<?xml version="1.0" encoding="UTF-8" standalone="no"?>
<svg
   width="970.88971pt"
   height="534.29224pt"
   viewBox="0 0 970.88971 534.29224"
   version="1.1"
   id="svg43"
   sodipodi:docname="alpha_even.svg"
   inkscape:version="1.3.2 (091e20e, 2023-11-25)"
   xmlns:inkscape="http://www.inkscape.org/namespaces/inkscape"
   xmlns:sodipodi="http://sodipodi.sourceforge.net/DTD/sodipodi-0.dtd"
   xmlns:xlink="http://www.w3.org/1999/xlink"
   xmlns="http://www.w3.org/2000/svg"
   xmlns:svg="http://www.w3.org/2000/svg"
   xmlns:rdf="http://www.w3.org/1999/02/22-rdf-syntax-ns#"
   xmlns:cc="http://creativecommons.org/ns#"
   xmlns:dc="http://purl.org/dc/elements/1.1/">
  <sodipodi:namedview
     id="namedview43"
     pagecolor="#ffffff"
     bordercolor="#000000"
     borderopacity="0.25"
     inkscape:showpageshadow="2"
     inkscape:pageopacity="0.0"
     inkscape:pagecheckerboard="0"
     inkscape:deskcolor="#d1d1d1"
     inkscape:document-units="pt"
     inkscape:zoom="0.30729167"
     inkscape:cx="717.55932"
     inkscape:cy="292.88136"
     inkscape:window-width="1312"
     inkscape:window-height="449"
     inkscape:window-x="0"
     inkscape:window-y="25"
     inkscape:window-maximized="0"
     inkscape:current-layer="svg43" />
  <metadata
     id="metadata1">
    <rdf:RDF>
      <cc:Work>
        <dc:type
           rdf:resource="http://purl.org/dc/dcmitype/StillImage" />
        <dc:date>2024-08-15T19:13:27.135768</dc:date>
        <dc:format>image/svg+xml</dc:format>
        <dc:creator>
          <cc:Agent>
            <dc:title>Matplotlib v3.9.0, https://matplotlib.org/</dc:title>
          </cc:Agent>
        </dc:creator>
      </cc:Work>
    </rdf:RDF>
  </metadata>
  <defs
     id="defs1">
    <marker
       style="overflow:visible"
       id="DartArrow"
       refX="0"
       refY="0"
       orient="auto-start-reverse"
       inkscape:stockid="Dart arrow"
       markerWidth="1"
       markerHeight="1"
       viewBox="0 0 1 1"
       inkscape:isstock="true"
       inkscape:collect="always"
       preserveAspectRatio="xMidYMid">
      <path
         style="fill:context-stroke;fill-rule:evenodd;stroke:none"
         d="M 0,0 5,-5 -12.5,0 5,5 Z"
         transform="scale(-0.5)"
         id="path6" />
    </marker>
    <style
       type="text/css"
       id="style1">*{stroke-linejoin: round; stroke-linecap: butt}</style>
  </defs>
  <g
     id="figure_1"
     transform="translate(-1.510286,-68.72)">
    <g
       id="axes_1">
      <g
         id="patch_2">
        <path
           d="M 135,512.64 H 972 V 69.12 H 135 Z"
           style="fill:#ffffff"
           id="path2" />
      </g>
      <g
         id="matplotlib.axis_1">
        <g
           id="xtick_1">
          <g
             id="line2d_1">
            <defs
               id="defs2">
              <path
                 id="m2d20bf9e9c"
                 d="M 0,0 V 3.5"
                 style="stroke:#262626;stroke-width:0.8" />
            </defs>
            <g
               id="g2">
              <use
                 xlink:href="#m2d20bf9e9c"
                 x="173.04546"
                 y="512.64001"
                 style="fill:#262626;stroke:#262626;stroke-width:0.8"
                 id="use2" />
            </g>
          </g>
          <g
             id="text_1">
            <!-- $\mathdefault{0.2}$ -->
            <g
               style="fill:#262626"
               transform="matrix(0.5,0,0,-0.5,143.42592,554.23251)"
               id="g5">
              <defs
                 id="defs3">
                <path
                   id="CMR17-30"
                   d="m 2688,2025 c 0,391 -6,1055 -275,1566 -237,448 -615,607 -947,607 -308,0 -698,-140 -941,-601 C 269,3118 243,2524 243,2025 c 0,-364 7,-919 205,-1406 275,-658 768,-747 1018,-747 294,0 742,121 1004,728 192,442 218,959 218,1425 z M 1466,-26 c -410,0 -653,351 -743,838 -70,376 -70,926 -70,1284 0,492 0,901 83,1291 122,542 480,709 730,709 262,0 601,-173 723,-696 83,-364 89,-793 89,-1304 0,-416 0,-927 -76,-1304 C 2067,95 1690,-26 1466,-26 Z"
                   transform="scale(0.015625)" />
                <path
                   id="CMMI12-3a"
                   d="M 1178,307 C 1178,492 1024,619 870,619 685,619 557,466 557,313 557,128 710,0 864,0 c 186,0 314,153 314,307 z"
                   transform="scale(0.015625)" />
                <path
                   id="CMR17-32"
                   d="M 2669,989 H 2554 C 2490,536 2438,459 2413,420 2381,369 1920,369 1830,369 H 602 c 230,250 678,703 1222,1228 390,370 845,805 845,1438 0,755 -602,1189 -1274,1189 -704,0 -1133,-620 -1133,-1194 0,-250 186,-282 263,-282 64,0 256,39 256,262 0,197 -167,254 -256,254 -39,0 -77,-6 -103,-19 122,545 493,813 884,813 556,0 921,-441 921,-1023 0,-556 -326,-1035 -691,-1451 L 262,146 V 0 h 2253 z"
                   transform="scale(0.015625)" />
              </defs>
              <use
                 xlink:href="#CMR17-30"
                 transform="scale(0.996264)"
                 id="use3" />
              <use
                 xlink:href="#CMMI12-3a"
                 transform="matrix(0.996264,0,0,0.996264,45.690477,0)"
                 id="use4" />
              <use
                 xlink:href="#CMR17-32"
                 transform="matrix(0.996264,0,0,0.996264,72.787654,0)"
                 id="use5" />
            </g>
          </g>
        </g>
        <g
           id="xtick_2">
          <g
             id="line2d_2">
            <g
               id="g6">
              <use
                 xlink:href="#m2d20bf9e9c"
                 x="363.27274"
                 y="512.64001"
                 style="fill:#262626;stroke:#262626;stroke-width:0.8"
                 id="use6" />
            </g>
          </g>
          <g
             id="text_2">
            <!-- $\mathdefault{0.4}$ -->
            <g
               style="fill:#262626"
               transform="matrix(0.5,0,0,-0.5,333.65319,554.23251)"
               id="g9">
              <defs
                 id="defs6">
                <path
                   id="CMR17-34"
                   d="m 2150,4122 c 0,134 -6,134 -121,134 L 128,1254 V 1088 H 1779 V 457 c 0,-233 -13,-297 -461,-297 H 1197 V 0 c 205,0 550,0 768,0 217,0 563,0 768,0 v 160 h -122 c -448,0 -461,64 -461,297 v 631 h 653 v 166 H 2150 Z M 1798,3703 V 1254 H 256 Z"
                   transform="scale(0.015625)" />
              </defs>
              <use
                 xlink:href="#CMR17-30"
                 transform="scale(0.996264)"
                 id="use7" />
              <use
                 xlink:href="#CMMI12-3a"
                 transform="matrix(0.996264,0,0,0.996264,45.690477,0)"
                 id="use8" />
              <use
                 xlink:href="#CMR17-34"
                 transform="matrix(0.996264,0,0,0.996264,72.787654,0)"
                 id="use9" />
            </g>
          </g>
        </g>
        <g
           id="xtick_3">
          <g
             id="line2d_3">
            <g
               id="g10">
              <use
                 xlink:href="#m2d20bf9e9c"
                 x="553.5"
                 y="512.64001"
                 style="fill:#262626;stroke:#262626;stroke-width:0.8"
                 id="use10" />
            </g>
          </g>
          <g
             id="text_3">
            <!-- $\mathdefault{0.6}$ -->
            <g
               style="fill:#262626"
               transform="matrix(0.5,0,0,-0.5,523.88047,554.23251)"
               id="g13">
              <defs
                 id="defs10">
                <path
                   id="CMR17-36"
                   d="m 678,2176 c 0,1514 717,1856 1133,1856 135,0 461,-23 589,-256 -102,0 -294,0 -294,-223 0,-172 140,-230 230,-230 58,0 230,25 230,237 0,394 -320,619 -761,619 -762,0 -1562,-789 -1562,-2195 0,-1731 723,-2112 1235,-2112 621,0 1210,555 1210,1411 0,798 -518,1379 -1171,1379 -391,0 -679,-255 -839,-702 z M 1478,25 c -787,0 -787,1175 -787,1411 0,460 218,1124 813,1124 109,0 422,0 634,-440 115,-250 115,-511 115,-831 0,-345 0,-599 -135,-855 C 1978,171 1773,25 1478,25 Z"
                   transform="scale(0.015625)" />
              </defs>
              <use
                 xlink:href="#CMR17-30"
                 transform="scale(0.996264)"
                 id="use11" />
              <use
                 xlink:href="#CMMI12-3a"
                 transform="matrix(0.996264,0,0,0.996264,45.690477,0)"
                 id="use12" />
              <use
                 xlink:href="#CMR17-36"
                 transform="matrix(0.996264,0,0,0.996264,72.787654,0)"
                 id="use13" />
            </g>
          </g>
        </g>
        <g
           id="xtick_4">
          <g
             id="line2d_4">
            <g
               id="g14">
              <use
                 xlink:href="#m2d20bf9e9c"
                 x="743.72729"
                 y="512.64001"
                 style="fill:#262626;stroke:#262626;stroke-width:0.8"
                 id="use14" />
            </g>
          </g>
          <g
             id="text_4">
            <!-- $\mathdefault{0.8}$ -->
            <g
               style="fill:#262626"
               transform="matrix(0.5,0,0,-0.5,714.10774,554.23251)"
               id="g17">
              <defs
                 id="defs14">
                <path
                   id="CMR17-38"
                   d="m 1741,2264 c 403,203 813,509 813,999 0,578 -564,916 -1082,916 -582,0 -1094,-420 -1094,-999 0,-159 38,-433 288,-675 64,-63 332,-254 505,-375 C 883,1983 211,1634 211,934 211,279 838,-128 1459,-128 c 685,0 1261,490 1261,1138 0,580 -390,847 -646,1019 z m -839,558 c -51,32 -307,229 -307,529 0,388 403,681 864,681 506,0 877,-356 877,-770 0,-593 -666,-931 -698,-931 -6,0 -12,0 -64,39 z M 2080,1519 c 96,-70 403,-279 403,-668 C 2483,381 2010,25 1472,25 890,25 448,438 448,940 c 0,503 390,922 832,1120 z"
                   transform="scale(0.015625)" />
              </defs>
              <use
                 xlink:href="#CMR17-30"
                 transform="scale(0.996264)"
                 id="use15" />
              <use
                 xlink:href="#CMMI12-3a"
                 transform="matrix(0.996264,0,0,0.996264,45.690477,0)"
                 id="use16" />
              <use
                 xlink:href="#CMR17-38"
                 transform="matrix(0.996264,0,0,0.996264,72.787654,0)"
                 id="use17" />
            </g>
          </g>
        </g>
        <g
           id="xtick_5">
          <g
             id="line2d_5">
            <g
               id="g18">
              <use
                 xlink:href="#m2d20bf9e9c"
                 x="933.95453"
                 y="512.64001"
                 style="fill:#262626;stroke:#262626;stroke-width:0.8"
                 id="use18" />
            </g>
          </g>
          <g
             id="text_5">
            <!-- $\mathdefault{1.0}$ -->
            <g
               style="fill:#262626"
               transform="matrix(0.5,0,0,-0.5,904.33501,554.23251)"
               id="g21">
              <defs
                 id="defs18">
                <path
                   id="CMR17-31"
                   d="m 1702,4058 c 0,134 -6,134 -96,134 -249,-276 -627,-365 -985,-365 -19,0 -51,0 -58,-19 -6,-13 -6,-26 -6,-160 198,0 531,38 787,191 V 461 C 1344,236 1331,160 781,160 H 589 V 0 c 307,0 627,0 934,0 307,0 627,0 935,0 v 160 h -192 c -551,0 -564,70 -564,298 z"
                   transform="scale(0.015625)" />
              </defs>
              <use
                 xlink:href="#CMR17-31"
                 transform="scale(0.996264)"
                 id="use19" />
              <use
                 xlink:href="#CMMI12-3a"
                 transform="matrix(0.996264,0,0,0.996264,45.690477,0)"
                 id="use20" />
              <use
                 xlink:href="#CMR17-30"
                 transform="matrix(0.996264,0,0,0.996264,72.787654,0)"
                 id="use21" />
            </g>
          </g>
        </g>
        <g
           id="text_6">
          <!-- $\alpha$ -->
          <g
             style="fill:#262626"
             transform="matrix(0.5,0,0,-0.5,537.98832,602.5141)"
             id="g22">
            <defs
               id="defs21">
              <path
                 id="CMMI12-b"
                 d="m 2963,1616 c 0,619 -352,1199 -1030,1199 C 1094,2815 256,1902 256,996 256,441 602,-64 1254,-64 c 397,0 871,153 1325,536 90,-357 288,-536 563,-536 346,0 519,358 519,441 0,57 -45,57 -64,57 -51,0 -58,-19 -77,-70 -58,-160 -205,-300 -358,-300 -199,0 -199,408 -199,798 653,779 807,1584 807,1590 0,58 -52,58 -71,58 -57,0 -64,-19 -89,-134 -84,-281 -250,-779 -647,-1303 z M 2560,626 C 1997,121 1491,64 1267,64 813,64 685,466 685,766 c 0,274 141,926 339,1278 262,447 621,644 909,644 621,0 621,-811 621,-1347 0,-159 -7,-325 -7,-485 0,-128 7,-160 13,-230 z"
                 transform="scale(0.015625)" />
            </defs>
            <use
               xlink:href="#CMMI12-b"
               transform="scale(0.996264)"
               id="use22" />
          </g>
        </g>
      </g>
      <g
         id="matplotlib.axis_2">
        <g
           id="ytick_1">
          <g
             id="line2d_6">
            <defs
               id="defs22">
              <path
                 id="m2465c6eaf7"
                 d="M 0,0 H -3.5"
                 style="stroke:#262626;stroke-width:0.8" />
            </defs>
            <g
               id="g23">
              <use
                 xlink:href="#m2465c6eaf7"
                 x="135"
                 y="506.79642"
                 style="fill:#262626;stroke:#262626;stroke-width:0.8"
                 id="use23" />
            </g>
          </g>
          <g
             id="text_7">
            <!-- $\mathdefault{0}$ -->
            <g
               style="fill:#262626"
               transform="matrix(0.5,0,0,-0.5,105.15476,524.09268)"
               id="g24">
              <use
                 xlink:href="#CMR17-30"
                 transform="scale(0.996264)"
                 id="use24" />
            </g>
          </g>
        </g>
        <g
           id="ytick_2">
          <g
             id="line2d_7">
            <g
               id="g25">
              <use
                 xlink:href="#m2465c6eaf7"
                 x="135"
                 y="341.72223"
                 style="fill:#262626;stroke:#262626;stroke-width:0.8"
                 id="use25" />
            </g>
          </g>
          <g
             id="text_8">
            <!-- $\mathdefault{1000}$ -->
            <g
               style="fill:#262626"
               transform="matrix(0.5,0,0,-0.5,36.619046,359.01848)"
               id="g29">
              <use
                 xlink:href="#CMR17-31"
                 transform="scale(0.996264)"
                 id="use26" />
              <use
                 xlink:href="#CMR17-30"
                 transform="matrix(0.996264,0,0,0.996264,45.690477,0)"
                 id="use27" />
              <use
                 xlink:href="#CMR17-30"
                 transform="matrix(0.996264,0,0,0.996264,91.380954,0)"
                 id="use28" />
              <use
                 xlink:href="#CMR17-30"
                 transform="matrix(0.996264,0,0,0.996264,137.07143,0)"
                 id="use29" />
            </g>
          </g>
        </g>
        <g
           id="ytick_3">
          <g
             id="line2d_8">
            <g
               id="g30">
              <use
                 xlink:href="#m2465c6eaf7"
                 x="135"
                 y="176.64803"
                 style="fill:#262626;stroke:#262626;stroke-width:0.8"
                 id="use30" />
            </g>
          </g>
          <g
             id="text_9">
            <!-- $\mathdefault{2000}$ -->
            <g
               style="fill:#262626"
               transform="matrix(0.5,0,0,-0.5,36.619046,193.94429)"
               id="g34">
              <use
                 xlink:href="#CMR17-32"
                 transform="scale(0.996264)"
                 id="use31" />
              <use
                 xlink:href="#CMR17-30"
                 transform="matrix(0.996264,0,0,0.996264,45.690477,0)"
                 id="use32" />
              <use
                 xlink:href="#CMR17-30"
                 transform="matrix(0.996264,0,0,0.996264,91.380954,0)"
                 id="use33" />
              <use
                 xlink:href="#CMR17-30"
                 transform="matrix(0.996264,0,0,0.996264,137.07143,0)"
                 id="use34" />
            </g>
          </g>
        </g>
        <g
           id="text_10">
          <!-- $\tau$ -->
          <g
             style="fill:#262626"
             transform="matrix(0,-0.5,-0.5,0,22.929962,301.47096)"
             id="g35">
            <defs
               id="defs34">
              <path
                 id="CMMI12-1c"
                 d="m 1837,2408 h 1062 c 83,0 295,0 295,204 0,140 -122,140 -237,140 H 1197 c -147,0 -365,0 -659,-312 -167,-185 -372,-523 -372,-561 0,-38 32,-51 71,-51 45,0 51,19 83,57 333,523 666,523 826,523 h 531 L 1011,223 C 979,127 979,114 979,95 c 0,-70 45,-159 173,-159 198,0 230,172 250,267 z"
                 transform="scale(0.015625)" />
            </defs>
            <use
               xlink:href="#CMMI12-1c"
               transform="scale(0.996264)"
               id="use35" />
          </g>
        </g>
      </g>
      <g
         id="line2d_9">
        <path
           d="m 173.04545,89.28 19.02273,38.58258 19.02273,31.74785 19.02273,26.77616 19.02272,22.88609 19.02273,20.03523 19.02273,17.52083 19.02272,15.57894 19.02273,13.80445 19.02273,12.5628 19.02273,11.37816 19.02272,10.32404 19.02273,9.45046 19.02273,8.60862 19.02273,8.02797 19.02272,7.39755 19.02273,6.78323 19.02273,6.38289 19.02273,5.94951 19.02272,5.48931 19.02273,5.19142 19.02273,4.84068 19.02272,4.53566 19.02273,4.2824 19.02273,4.07995 19.02273,3.80054 19.02272,3.62492 19.02273,3.41475 19.02273,3.20373 19.02273,3.09114 19.02272,2.90964 19.02273,2.77357 19.02273,2.62835 19.02272,2.5071 19.02273,2.39793 19.02273,2.28647 19.02273,2.16986 19.02272,2.09316 19.02273,1.99473 19.02273,1.89156 19.02273,1.85593"
           clip-path="url(#p1958b7e922)"
           style="fill:none;stroke:#1f77b4;stroke-width:5;stroke-linecap:round"
           id="path35" />
      </g>
      <g
         id="line2d_10">
        <path
           d="m 173.04545,372.3206 19.02273,11.63089 19.02273,9.78937 19.02273,8.38286 19.02272,7.27544 19.02273,6.36983 19.02273,5.63326 19.02272,5.0246 19.02273,4.49797 19.02273,4.07068 19.02273,3.70462 19.02272,3.36544 19.02273,3.09018 19.02273,2.83736 19.02273,2.62289 19.02272,2.42072 19.02273,2.24811 19.02273,2.09728 19.02273,1.9464 19.02272,1.83245 19.02273,1.70614 19.02273,1.59923 19.02272,1.49887 19.02273,1.42978 19.02273,1.33209 19.02273,1.25954 19.02272,1.18986 19.02273,1.12036 19.02273,1.07071 19.02273,1.01477 19.02272,0.97013 19.02273,0.90962 19.02273,0.86553 19.02272,0.83034 19.02273,0.79171 19.02273,0.75499 19.02273,0.72301 19.02272,0.69275 19.02273,0.65633 19.02273,0.63296 19.02273,0.60746"
           clip-path="url(#p1958b7e922)"
           style="fill:none;stroke:#2ca02c;stroke-width:5;stroke-linecap:round"
           id="path36" />
      </g>
      <g
         id="line2d_11">
        <path
           d="m 173.04545,305.00322 19.02273,17.40106 19.02273,14.72355 19.02273,12.50572 19.02272,10.91679 19.02273,9.56114 19.02273,8.45669 19.02272,7.53181 19.02273,6.75743 19.02273,6.11857 19.02273,5.55226 19.02272,5.05835 19.02273,4.62878 19.02273,4.26077 19.02273,3.92574 19.02272,3.64887 19.02273,3.38071 19.02273,3.11571 19.02273,2.91513 19.02272,2.74559 19.02273,2.5882 19.02273,2.38789 19.02272,2.25797 19.02273,2.12446 19.02273,2.00352 19.02273,1.88912 19.02272,1.79122 19.02273,1.69796 19.02273,1.60398 19.02273,1.51932 19.02272,1.44347 19.02273,1.37677 19.02273,1.3114 19.02272,1.24414 19.02273,1.17703 19.02273,1.15008 19.02273,1.08106 19.02272,1.02291 19.02273,1.00593 19.02273,0.9356 19.02273,0.91391"
           clip-path="url(#p1958b7e922)"
           style="fill:none;stroke:#8c564b;stroke-width:5;stroke-linecap:round"
           id="path37" />
      </g>
      <g
         id="line2d_12">
        <path
           d="m 173.04545,406.00975 19.02273,8.70257 19.02273,7.36488 19.02273,6.28295 19.02272,5.4336 19.02273,4.7817 19.02273,4.22578 19.02272,3.77366 19.02273,3.37685 19.02273,3.06066 19.02273,2.76289 19.02272,2.5389 19.02273,2.31694 19.02273,2.12872 19.02273,1.96074 19.02272,1.8183 19.02273,1.69533 19.02273,1.56292 19.02273,1.46005 19.02272,1.37466 19.02273,1.27759 19.02273,1.19513 19.02272,1.12827 19.02273,1.06029 19.02273,1.00143 19.02273,0.9426 19.02272,0.89398 19.02273,0.84784 19.02273,0.79737 19.02273,0.76301 19.02272,0.71831 19.02273,0.68385 19.02273,0.65492 19.02272,0.62115 19.02273,0.59208 19.02273,0.5669 19.02273,0.54219 19.02272,0.51753 19.02273,0.48868 19.02273,0.47345 19.02273,0.45015"
           clip-path="url(#p1958b7e922)"
           style="fill:none;stroke:#7f7f7f;stroke-width:5;stroke-linecap:round"
           id="path38" />
      </g>
      <g
         id="line2d_13">
        <path
           d="m 173.04545,426.23267 19.02273,6.93381 19.02273,5.88461 19.02273,5.03859 19.02272,4.35919 19.02273,3.80854 19.02273,3.39605 19.02272,3.01427 19.02273,2.70321 19.02273,2.44721 19.02273,2.21748 19.02272,2.0236 19.02273,1.85065 19.02273,1.70576 19.02273,1.579 19.02272,1.44228 19.02273,1.35033 19.02273,1.25559 19.02273,1.16985 19.02272,1.09137 19.02273,1.02363 19.02273,0.96007 19.02272,0.90275 19.02273,0.84243 19.02273,0.80353 19.02273,0.75521 19.02272,0.71795 19.02273,0.67431 19.02273,0.64182 19.02273,0.60715 19.02272,0.57641 19.02273,0.54198 19.02273,0.52944 19.02272,0.49095 19.02273,0.47563 19.02273,0.44807 19.02273,0.43409 19.02272,0.41098 19.02273,0.39686 19.02273,0.37616 19.02273,0.36652"
           clip-path="url(#p1958b7e922)"
           style="fill:none;stroke:#17becf;stroke-width:5;stroke-linecap:round"
           id="path39" />
      </g>
      <g
         id="patch_3">
        <path
           d="M 135,512.64 V 69.12"
           style="fill:none;stroke:#262626;stroke-width:0.8;stroke-linecap:square;stroke-linejoin:miter"
           id="path40" />
      </g>
      <g
         id="patch_5">
        <path
           d="M 135,512.64 H 972"
           style="fill:none;stroke:#262626;stroke-width:0.8;stroke-linecap:square;stroke-linejoin:miter"
           id="path42" />
      </g>
    </g>
  </g>
  <defs
     id="defs43">
    <clipPath
       id="p1958b7e922">
      <rect
         x="135"
         y="69.120003"
         width="837"
         height="443.51999"
         id="rect43" />
    </clipPath>
  </defs>
  <path
     style="fill:#74cbf1;stroke:#000000;stroke-width:4;marker-end:url(#DartArrow)"
     d="M 452.45581,111.89017 V 409.65288"
     id="path44" />
  <g
     inkscape:label=""
     transform="matrix(4.6354032,0,0,4.6354032,-96.59071,-297.18889)"
     id="g466"
     style="stroke-width:0.611521">
    <g
       id="g8982"
       style="stroke-width:0.611521">
      <g
         style="fill:#000000;fill-opacity:1;stroke-width:0.611521"
         id="g9371">
        <g
           id="use1864"
           transform="translate(91.925003,81.962997)"
           style="stroke-width:0.611521">
          <path
             style="stroke:none;stroke-width:0.611521"
             d="M 2.25,-6.03125 C 2.25,-6.390625 2.265625,-6.5 3.0625,-6.5 h 0.25 v -0.3125 c -0.34375,0.03125 -1.125,0.03125 -1.515625,0.03125 -0.375,0 -1.171875,0 -1.515625,-0.03125 V -6.5 h 0.25 c 0.796875,0 0.828125,0.109375 0.828125,0.46875 v 5.25 c 0,0.359375 -0.03125,0.46875 -0.828125,0.46875 h -0.25 V 0 c 0.34375,-0.03125 1.140625,-0.03125 1.515625,-0.03125 0.390625,0 1.171875,0 1.515625,0.03125 v -0.3125 h -0.25 C 2.265625,-0.3125 2.25,-0.421875 2.25,-0.78125 Z m 0,0"
             id="path55" />
        </g>
        <g
           id="use5701"
           transform="translate(95.522491,81.962997)"
           style="stroke-width:0.611521">
          <path
             style="stroke:none;stroke-width:0.611521"
             d="M 1.09375,-3.421875 V -0.75 c 0,0.4375 -0.109375,0.4375 -0.78125,0.4375 V 0 c 0.359375,-0.015625 0.859375,-0.03125 1.140625,-0.03125 0.25,0 0.765625,0.015625 1.109375,0.03125 v -0.3125 c -0.671875,0 -0.78125,0 -0.78125,-0.4375 V -2.59375 C 1.78125,-3.625 2.5,-4.1875 3.125,-4.1875 c 0.640625,0 0.75,0.53125 0.75,1.109375 V -0.75 c 0,0.4375 -0.109375,0.4375 -0.78125,0.4375 V 0 c 0.34375,-0.015625 0.859375,-0.03125 1.125,-0.03125 0.25,0 0.78125,0.015625 1.109375,0.03125 v -0.3125 c -0.515625,0 -0.765625,0 -0.765625,-0.296875 v -1.90625 c 0,-0.859375 0,-1.15625 -0.3125,-1.515625 -0.140625,-0.171875 -0.46875,-0.375 -1.046875,-0.375 C 2.46875,-4.40625 2,-3.984375 1.71875,-3.359375 V -4.40625 L 0.3125,-4.296875 v 0.3125 c 0.703125,0 0.78125,0.0625 0.78125,0.5625 z m 0,0"
             id="path53" />
        </g>
        <g
           id="use8995"
           transform="translate(101.05772,81.962997)"
           style="stroke-width:0.611521">
          <path
             style="stroke:none;stroke-width:0.611521"
             d="m 1.171875,-2.171875 c 0,-1.625 0.8125,-2.046875 1.34375,-2.046875 0.09375,0 0.71875,0.015625 1.0625,0.375 -0.40625,0.03125 -0.46875,0.328125 -0.46875,0.453125 0,0.265625 0.1875,0.453125 0.453125,0.453125 0.265625,0 0.46875,-0.15625 0.46875,-0.46875 0,-0.671875 -0.765625,-1.0625 -1.53125,-1.0625 -1.25,0 -2.15625,1.078125 -2.15625,2.3125 0,1.28125 0.984375,2.265625 2.140625,2.265625 1.328125,0 1.65625,-1.203125 1.65625,-1.296875 0,-0.09375 -0.109375,-0.09375 -0.140625,-0.09375 -0.078125,0 -0.109375,0.03125 -0.125,0.09375 -0.28125,0.921875 -0.9375,1.046875 -1.296875,1.046875 -0.53125,0 -1.40625,-0.421875 -1.40625,-2.03125 z m 0,0"
             id="path50" />
        </g>
        <g
           id="use8293"
           transform="translate(105.48509,81.962997)"
           style="stroke-width:0.611521">
          <path
             style="stroke:none;stroke-width:0.611521"
             d="M 1.671875,-3.3125 V -4.40625 L 0.28125,-4.296875 v 0.3125 c 0.703125,0 0.78125,0.0625 0.78125,0.5625 V -0.75 c 0,0.4375 -0.109375,0.4375 -0.78125,0.4375 V 0 c 0.390625,-0.015625 0.859375,-0.03125 1.140625,-0.03125 0.390625,0 0.859375,0 1.265625,0.03125 V -0.3125 H 2.46875 c -0.734375,0 -0.75,-0.109375 -0.75,-0.46875 V -2.3125 c 0,-0.984375 0.421875,-1.875 1.171875,-1.875 0.0625,0 0.09375,0 0.109375,0.015625 -0.03125,0 -0.234375,0.125 -0.234375,0.390625 0,0.265625 0.21875,0.421875 0.4375,0.421875 0.171875,0 0.421875,-0.125 0.421875,-0.4375 0,-0.3125 -0.3125,-0.609375 -0.734375,-0.609375 -0.734375,0 -1.09375,0.671875 -1.21875,1.09375 z m 0,0"
             id="path49" />
        </g>
        <g
           id="use9585"
           transform="translate(109.38744,81.962997)"
           style="stroke-width:0.611521">
          <path
             style="stroke:none;stroke-width:0.611521"
             d="M 1.109375,-2.515625 C 1.171875,-4 2.015625,-4.25 2.359375,-4.25 c 1.015625,0 1.125,1.34375 1.125,1.734375 z m 0,0.21875 h 2.78125 c 0.21875,0 0.25,0 0.25,-0.21875 0,-0.984375 -0.546875,-1.953125 -1.78125,-1.953125 -1.15625,0 -2.078125,1.03125 -2.078125,2.28125 0,1.328125 1.046875,2.296875 2.1875,2.296875 C 3.6875,0.109375 4.140625,-1 4.140625,-1.1875 4.140625,-1.28125 4.0625,-1.3125 4,-1.3125 c -0.078125,0 -0.109375,0.0625 -0.125,0.140625 -0.34375,1.03125 -1.25,1.03125 -1.34375,1.03125 -0.5,0 -0.890625,-0.296875 -1.125,-0.671875 -0.296875,-0.46875 -0.296875,-1.125 -0.296875,-1.484375 z m 0,0"
             id="path48" />
        </g>
        <g
           id="use3126"
           transform="translate(113.81483,81.962997)"
           style="stroke-width:0.611521">
          <path
             style="stroke:none;stroke-width:0.611521"
             d="m 3.3125,-0.75 c 0.046875,0.390625 0.3125,0.8125 0.78125,0.8125 0.21875,0 0.828125,-0.140625 0.828125,-0.953125 v -0.5625 h -0.25 v 0.5625 c 0,0.578125 -0.25,0.640625 -0.359375,0.640625 -0.328125,0 -0.375,-0.453125 -0.375,-0.5 v -1.984375 c 0,-0.421875 0,-0.8125 -0.359375,-1.1875 C 3.1875,-4.3125 2.6875,-4.46875 2.21875,-4.46875 c -0.828125,0 -1.515625,0.46875 -1.515625,1.125 0,0.296875 0.203125,0.46875 0.46875,0.46875 0.28125,0 0.453125,-0.203125 0.453125,-0.453125 0,-0.125 -0.046875,-0.453125 -0.515625,-0.453125 C 1.390625,-4.140625 1.875,-4.25 2.1875,-4.25 c 0.5,0 1.0625,0.390625 1.0625,1.28125 v 0.359375 c -0.515625,0.03125 -1.203125,0.0625 -1.828125,0.359375 -0.75,0.34375 -1,0.859375 -1,1.296875 0,0.8125 0.96875,1.0625 1.59375,1.0625 0.65625,0 1.109375,-0.40625 1.296875,-0.859375 z M 3.25,-2.390625 v 1 c 0,0.9375 -0.71875,1.28125 -1.171875,1.28125 -0.484375,0 -0.890625,-0.34375 -0.890625,-0.84375 0,-0.546875 0.421875,-1.375 2.0625,-1.4375 z m 0,0"
             id="path47" />
        </g>
        <g
           id="use2934"
           transform="translate(118.79613,81.962997)"
           style="stroke-width:0.611521">
          <path
             style="stroke:none;stroke-width:0.611521"
             d="m 2.078125,-1.9375 c 0.21875,0.046875 1.03125,0.203125 1.03125,0.921875 0,0.5 -0.34375,0.90625 -1.125,0.90625 -0.84375,0 -1.203125,-0.5625 -1.390625,-1.421875 C 0.5625,-1.65625 0.5625,-1.6875 0.453125,-1.6875 c -0.125,0 -0.125,0.0625 -0.125,0.234375 V -0.125 c 0,0.171875 0,0.234375 0.109375,0.234375 0.046875,0 0.0625,-0.015625 0.25,-0.203125 0.015625,-0.015625 0.015625,-0.03125 0.203125,-0.21875 0.4375,0.40625 0.890625,0.421875 1.09375,0.421875 1.140625,0 1.609375,-0.671875 1.609375,-1.390625 0,-0.515625 -0.296875,-0.828125 -0.421875,-0.9375 C 2.84375,-2.546875 2.453125,-2.625 2.03125,-2.703125 1.46875,-2.8125 0.8125,-2.9375 0.8125,-3.515625 c 0,-0.359375 0.25,-0.765625 1.109375,-0.765625 1.09375,0 1.15625,0.90625 1.171875,1.203125 0,0.09375 0.09375,0.09375 0.109375,0.09375 0.140625,0 0.140625,-0.046875 0.140625,-0.234375 v -1.015625 c 0,-0.15625 0,-0.234375 -0.109375,-0.234375 -0.046875,0 -0.078125,0 -0.203125,0.125 -0.03125,0.03125 -0.125,0.125 -0.171875,0.15625 -0.375,-0.28125 -0.78125,-0.28125 -0.9375,-0.28125 -1.21875,0 -1.59375,0.671875 -1.59375,1.234375 0,0.34375 0.15625,0.625 0.421875,0.84375 0.328125,0.25 0.609375,0.3125 1.328125,0.453125 z m 0,0"
             id="path46" />
        </g>
        <g
           id="use5216"
           transform="translate(122.72537,81.962997)"
           style="stroke-width:0.611521">
          <path
             style="stroke:none;stroke-width:0.611521"
             d="M 1.765625,-4.40625 0.375,-4.296875 v 0.3125 c 0.640625,0 0.734375,0.0625 0.734375,0.546875 V -0.75 c 0,0.4375 -0.109375,0.4375 -0.78125,0.4375 V 0 C 0.640625,-0.015625 1.1875,-0.03125 1.421875,-0.03125 1.78125,-0.03125 2.125,-0.015625 2.46875,0 v -0.3125 c -0.671875,0 -0.703125,-0.046875 -0.703125,-0.4375 z m 0.03125,-1.734375 c 0,-0.3125 -0.234375,-0.53125 -0.515625,-0.53125 -0.3125,0 -0.53125,0.265625 -0.53125,0.53125 0,0.265625 0.21875,0.53125 0.53125,0.53125 0.28125,0 0.515625,-0.21875 0.515625,-0.53125 z m 0,0"
             id="path52" />
        </g>
        <g
           id="use5878"
           transform="translate(125.49298,81.962997)"
           style="stroke-width:0.611521">
          <path
             style="stroke:none;stroke-width:0.611521"
             d="M 1.09375,-3.421875 V -0.75 c 0,0.4375 -0.109375,0.4375 -0.78125,0.4375 V 0 c 0.359375,-0.015625 0.859375,-0.03125 1.140625,-0.03125 0.25,0 0.765625,0.015625 1.109375,0.03125 v -0.3125 c -0.671875,0 -0.78125,0 -0.78125,-0.4375 V -2.59375 C 1.78125,-3.625 2.5,-4.1875 3.125,-4.1875 c 0.640625,0 0.75,0.53125 0.75,1.109375 V -0.75 c 0,0.4375 -0.109375,0.4375 -0.78125,0.4375 V 0 c 0.34375,-0.015625 0.859375,-0.03125 1.125,-0.03125 0.25,0 0.78125,0.015625 1.109375,0.03125 v -0.3125 c -0.515625,0 -0.765625,0 -0.765625,-0.296875 v -1.90625 c 0,-0.859375 0,-1.15625 -0.3125,-1.515625 -0.140625,-0.171875 -0.46875,-0.375 -1.046875,-0.375 C 2.46875,-4.40625 2,-3.984375 1.71875,-3.359375 V -4.40625 L 0.3125,-4.296875 v 0.3125 c 0.703125,0 0.78125,0.0625 0.78125,0.5625 z m 0,0"
             id="path54" />
        </g>
        <g
           id="use6433"
           transform="translate(131.0282,81.962997)"
           style="stroke-width:0.611521">
          <path
             style="stroke:none;stroke-width:0.611521"
             d="m 2.21875,-1.71875 c -0.875,0 -0.875,-1 -0.875,-1.21875 0,-0.265625 0.015625,-0.59375 0.15625,-0.84375 0.078125,-0.109375 0.3125,-0.390625 0.71875,-0.390625 0.859375,0 0.859375,0.984375 0.859375,1.21875 0,0.265625 0,0.59375 -0.15625,0.84375 C 2.84375,-2 2.609375,-1.71875 2.21875,-1.71875 Z M 1.0625,-1.328125 c 0,-0.03125 0,-0.265625 0.15625,-0.46875 0.390625,0.28125 0.8125,0.3125 1,0.3125 0.921875,0 1.609375,-0.6875 1.609375,-1.453125 0,-0.375 -0.15625,-0.734375 -0.40625,-0.96875 C 3.78125,-4.25 4.140625,-4.296875 4.3125,-4.296875 c 0.03125,0 0.078125,0 0.109375,0.015625 C 4.3125,-4.25 4.25,-4.140625 4.25,-4.015625 c 0,0.171875 0.140625,0.28125 0.296875,0.28125 0.09375,0 0.28125,-0.0625 0.28125,-0.296875 0,-0.171875 -0.109375,-0.484375 -0.5,-0.484375 -0.203125,0 -0.640625,0.0625 -1.0625,0.46875 C 2.84375,-4.375 2.4375,-4.40625 2.21875,-4.40625 c -0.9375,0 -1.625,0.6875 -1.625,1.453125 0,0.4375 0.21875,0.8125 0.46875,1.03125 -0.125,0.140625 -0.3125,0.46875 -0.3125,0.828125 0,0.3125 0.140625,0.6875 0.453125,0.890625 -0.609375,0.15625 -0.921875,0.59375 -0.921875,0.984375 0,0.71875 0.984375,1.265625 2.203125,1.265625 1.171875,0 2.203125,-0.5 2.203125,-1.28125 0,-0.34375 -0.125,-0.859375 -0.640625,-1.140625 -0.53125,-0.265625 -1.109375,-0.265625 -1.71875,-0.265625 -0.25,0 -0.671875,0 -0.75,-0.015625 C 1.265625,-0.703125 1.0625,-1 1.0625,-1.328125 Z M 2.5,1.828125 c -1.015625,0 -1.703125,-0.515625 -1.703125,-1.046875 0,-0.453125 0.375,-0.828125 0.8125,-0.84375 h 0.59375 c 0.859375,0 1.96875,0 1.96875,0.84375 0,0.546875 -0.703125,1.046875 -1.671875,1.046875 z m 0,0"
             id="path51" />
        </g>
      </g>
      <g
         style="fill:#000000;fill-opacity:1;stroke-width:0.611521"
         id="g6697">
        <g
           id="use8577"
           transform="translate(139.33099,81.962997)"
           style="stroke-width:0.611521">
          <path
             style="stroke:none;stroke-width:0.611521"
             d="m 5.734375,-5.671875 c 0,-0.75 -0.546875,-1.359375 -1.359375,-1.359375 -0.578125,0 -0.859375,0.15625 -1.203125,0.40625 C 2.625,-6.21875 2.078125,-5.25 1.890625,-4.5 L 0.296875,1.828125 C 0.296875,1.875 0.34375,1.9375 0.421875,1.9375 0.5,1.9375 0.53125,1.90625 0.53125,1.890625 L 1.234375,-0.875 c 0.1875,0.609375 0.625,0.96875 1.359375,0.96875 C 3.3125,0.09375 4.0625,-0.25 4.515625,-0.6875 5,-1.140625 5.3125,-1.78125 5.3125,-2.515625 c 0,-0.71875 -0.375,-1.25 -0.734375,-1.484375 0.578125,-0.34375 1.15625,-0.953125 1.15625,-1.671875 z M 3.9375,-4.015625 c -0.125,0.046875 -0.234375,0.0625 -0.484375,0.0625 -0.140625,0 -0.328125,0.015625 -0.4375,-0.03125 0.03125,-0.109375 0.390625,-0.078125 0.5,-0.078125 0.203125,0 0.296875,0 0.421875,0.046875 z M 5.171875,-5.90625 c 0,0.703125 -0.375,1.421875 -0.890625,1.734375 C 4,-4.28125 3.8125,-4.296875 3.515625,-4.296875 c -0.21875,0 -0.78125,-0.015625 -0.78125,0.3125 0,0.28125 0.515625,0.25 0.6875,0.25 0.375,0 0.53125,0 0.828125,-0.125 0.375,0.359375 0.421875,0.671875 0.4375,1.125 0.015625,0.578125 -0.21875,1.328125 -0.5,1.71875 C 3.796875,-0.484375 3.125,-0.125 2.5625,-0.125 c -0.765625,0 -1.140625,-0.578125 -1.140625,-1.28125 0,-0.09375 0,-0.25 0.046875,-0.4375 L 2.109375,-4.359375 C 2.328125,-5.21875 3.046875,-6.8125 4.25,-6.8125 c 0.578125,0 0.921875,0.3125 0.921875,0.90625 z m 0,0"
             id="path45" />
        </g>
      </g>
    </g>
  </g>
</svg>
