<?xml version="1.0" encoding="utf-8" standalone="no"?>
<!DOCTYPE svg PUBLIC "-//W3C//DTD SVG 1.1//EN"
  "http://www.w3.org/Graphics/SVG/1.1/DTD/svg11.dtd">
<svg xmlns:xlink="http://www.w3.org/1999/xlink" width="1080pt" height="756pt" viewBox="0 0 1080 756" xmlns="http://www.w3.org/2000/svg" version="1.1">
 <metadata>
  <rdf:RDF xmlns:dc="http://purl.org/dc/elements/1.1/" xmlns:cc="http://creativecommons.org/ns#" xmlns:rdf="http://www.w3.org/1999/02/22-rdf-syntax-ns#">
   <cc:Work>
    <dc:type rdf:resource="http://purl.org/dc/dcmitype/StillImage"/>
    <dc:date>2024-07-30T20:15:19.225176</dc:date>
    <dc:format>image/svg+xml</dc:format>
    <dc:creator>
     <cc:Agent>
      <dc:title>Matplotlib v3.9.0, https://matplotlib.org/</dc:title>
     </cc:Agent>
    </dc:creator>
   </cc:Work>
  </rdf:RDF>
 </metadata>
 <defs>
  <style type="text/css">*{stroke-linejoin: round; stroke-linecap: butt}</style>
 </defs>
 <g id="figure_1">
  <g id="patch_1">
   <path d="M 0 756 
L 1080 756 
L 1080 0 
L 0 0 
z
" style="fill: #ffffff"/>
  </g>
  <g id="axes_1">
   <g id="patch_2">
    <path d="M 88.532127 678.237256 
L 1041.12 678.237256 
L 1041.12 38.88 
L 88.532127 38.88 
z
" style="fill: #ffffff"/>
   </g>
   <g id="matplotlib.axis_1">
    <g id="xtick_1">
     <g id="line2d_1">
      <defs>
       <path id="m5316b69cae" d="M 0 0 
L 0 3.5 
" style="stroke: #262626; stroke-width: 0.8"/>
      </defs>
      <g>
       <use xlink:href="#m5316b69cae" x="131.831576" y="678.237256" style="fill: #262626; stroke: #262626; stroke-width: 0.8"/>
      </g>
     </g>
     <g id="text_1">
      <!-- $\mathdefault{0.0}$ -->
      <g style="fill: #262626" transform="translate(110.505512 710.143856) scale(0.36 -0.36)">
       <defs>
        <path id="CMR17-30" d="M 2688 2025 
C 2688 2416 2682 3080 2413 3591 
C 2176 4039 1798 4198 1466 4198 
C 1158 4198 768 4058 525 3597 
C 269 3118 243 2524 243 2025 
C 243 1661 250 1106 448 619 
C 723 -39 1216 -128 1466 -128 
C 1760 -128 2208 -7 2470 600 
C 2662 1042 2688 1559 2688 2025 
z
M 1466 -26 
C 1056 -26 813 325 723 812 
C 653 1188 653 1738 653 2096 
C 653 2588 653 2997 736 3387 
C 858 3929 1216 4096 1466 4096 
C 1728 4096 2067 3923 2189 3400 
C 2272 3036 2278 2607 2278 2096 
C 2278 1680 2278 1169 2202 792 
C 2067 95 1690 -26 1466 -26 
z
" transform="scale(0.015625)"/>
        <path id="CMMI12-3a" d="M 1178 307 
C 1178 492 1024 619 870 619 
C 685 619 557 466 557 313 
C 557 128 710 0 864 0 
C 1050 0 1178 153 1178 307 
z
" transform="scale(0.015625)"/>
       </defs>
       <use xlink:href="#CMR17-30" transform="scale(0.996264)"/>
       <use xlink:href="#CMMI12-3a" transform="translate(45.690477 0) scale(0.996264)"/>
       <use xlink:href="#CMR17-30" transform="translate(72.787654 0) scale(0.996264)"/>
      </g>
     </g>
    </g>
    <g id="xtick_2">
     <g id="line2d_2">
      <g>
       <use xlink:href="#m5316b69cae" x="305.029371" y="678.237256" style="fill: #262626; stroke: #262626; stroke-width: 0.8"/>
      </g>
     </g>
     <g id="text_2">
      <!-- $\mathdefault{0.2}$ -->
      <g style="fill: #262626" transform="translate(283.703307 710.143856) scale(0.36 -0.36)">
       <defs>
        <path id="CMR17-32" d="M 2669 989 
L 2554 989 
C 2490 536 2438 459 2413 420 
C 2381 369 1920 369 1830 369 
L 602 369 
C 832 619 1280 1072 1824 1597 
C 2214 1967 2669 2402 2669 3035 
C 2669 3790 2067 4224 1395 4224 
C 691 4224 262 3604 262 3030 
C 262 2780 448 2748 525 2748 
C 589 2748 781 2787 781 3010 
C 781 3207 614 3264 525 3264 
C 486 3264 448 3258 422 3245 
C 544 3790 915 4058 1306 4058 
C 1862 4058 2227 3617 2227 3035 
C 2227 2479 1901 2000 1536 1584 
L 262 146 
L 262 0 
L 2515 0 
L 2669 989 
z
" transform="scale(0.015625)"/>
       </defs>
       <use xlink:href="#CMR17-30" transform="scale(0.996264)"/>
       <use xlink:href="#CMMI12-3a" transform="translate(45.690477 0) scale(0.996264)"/>
       <use xlink:href="#CMR17-32" transform="translate(72.787654 0) scale(0.996264)"/>
      </g>
     </g>
    </g>
    <g id="xtick_3">
     <g id="line2d_3">
      <g>
       <use xlink:href="#m5316b69cae" x="478.227166" y="678.237256" style="fill: #262626; stroke: #262626; stroke-width: 0.8"/>
      </g>
     </g>
     <g id="text_3">
      <!-- $\mathdefault{0.4}$ -->
      <g style="fill: #262626" transform="translate(456.901102 710.143856) scale(0.36 -0.36)">
       <defs>
        <path id="CMR17-34" d="M 2150 4122 
C 2150 4256 2144 4256 2029 4256 
L 128 1254 
L 128 1088 
L 1779 1088 
L 1779 457 
C 1779 224 1766 160 1318 160 
L 1197 160 
L 1197 0 
C 1402 0 1747 0 1965 0 
C 2182 0 2528 0 2733 0 
L 2733 160 
L 2611 160 
C 2163 160 2150 224 2150 457 
L 2150 1088 
L 2803 1088 
L 2803 1254 
L 2150 1254 
L 2150 4122 
z
M 1798 3703 
L 1798 1254 
L 256 1254 
L 1798 3703 
z
" transform="scale(0.015625)"/>
       </defs>
       <use xlink:href="#CMR17-30" transform="scale(0.996264)"/>
       <use xlink:href="#CMMI12-3a" transform="translate(45.690477 0) scale(0.996264)"/>
       <use xlink:href="#CMR17-34" transform="translate(72.787654 0) scale(0.996264)"/>
      </g>
     </g>
    </g>
    <g id="xtick_4">
     <g id="line2d_4">
      <g>
       <use xlink:href="#m5316b69cae" x="651.424961" y="678.237256" style="fill: #262626; stroke: #262626; stroke-width: 0.8"/>
      </g>
     </g>
     <g id="text_4">
      <!-- $\mathdefault{0.6}$ -->
      <g style="fill: #262626" transform="translate(630.098898 710.143856) scale(0.36 -0.36)">
       <defs>
        <path id="CMR17-36" d="M 678 2176 
C 678 3690 1395 4032 1811 4032 
C 1946 4032 2272 4009 2400 3776 
C 2298 3776 2106 3776 2106 3553 
C 2106 3381 2246 3323 2336 3323 
C 2394 3323 2566 3348 2566 3560 
C 2566 3954 2246 4179 1805 4179 
C 1043 4179 243 3390 243 1984 
C 243 253 966 -128 1478 -128 
C 2099 -128 2688 427 2688 1283 
C 2688 2081 2170 2662 1517 2662 
C 1126 2662 838 2407 678 1960 
L 678 2176 
z
M 1478 25 
C 691 25 691 1200 691 1436 
C 691 1896 909 2560 1504 2560 
C 1613 2560 1926 2560 2138 2120 
C 2253 1870 2253 1609 2253 1289 
C 2253 944 2253 690 2118 434 
C 1978 171 1773 25 1478 25 
z
" transform="scale(0.015625)"/>
       </defs>
       <use xlink:href="#CMR17-30" transform="scale(0.996264)"/>
       <use xlink:href="#CMMI12-3a" transform="translate(45.690477 0) scale(0.996264)"/>
       <use xlink:href="#CMR17-36" transform="translate(72.787654 0) scale(0.996264)"/>
      </g>
     </g>
    </g>
    <g id="xtick_5">
     <g id="line2d_5">
      <g>
       <use xlink:href="#m5316b69cae" x="824.622756" y="678.237256" style="fill: #262626; stroke: #262626; stroke-width: 0.8"/>
      </g>
     </g>
     <g id="text_5">
      <!-- $\mathdefault{0.8}$ -->
      <g style="fill: #262626" transform="translate(803.296693 710.143856) scale(0.36 -0.36)">
       <defs>
        <path id="CMR17-38" d="M 1741 2264 
C 2144 2467 2554 2773 2554 3263 
C 2554 3841 1990 4179 1472 4179 
C 890 4179 378 3759 378 3180 
C 378 3021 416 2747 666 2505 
C 730 2442 998 2251 1171 2130 
C 883 1983 211 1634 211 934 
C 211 279 838 -128 1459 -128 
C 2144 -128 2720 362 2720 1010 
C 2720 1590 2330 1857 2074 2029 
L 1741 2264 
z
M 902 2822 
C 851 2854 595 3051 595 3351 
C 595 3739 998 4032 1459 4032 
C 1965 4032 2336 3676 2336 3262 
C 2336 2669 1670 2331 1638 2331 
C 1632 2331 1626 2331 1574 2370 
L 902 2822 
z
M 2080 1519 
C 2176 1449 2483 1240 2483 851 
C 2483 381 2010 25 1472 25 
C 890 25 448 438 448 940 
C 448 1443 838 1862 1280 2060 
L 2080 1519 
z
" transform="scale(0.015625)"/>
       </defs>
       <use xlink:href="#CMR17-30" transform="scale(0.996264)"/>
       <use xlink:href="#CMMI12-3a" transform="translate(45.690477 0) scale(0.996264)"/>
       <use xlink:href="#CMR17-38" transform="translate(72.787654 0) scale(0.996264)"/>
      </g>
     </g>
    </g>
    <g id="xtick_6">
     <g id="line2d_6">
      <g>
       <use xlink:href="#m5316b69cae" x="997.820551" y="678.237256" style="fill: #262626; stroke: #262626; stroke-width: 0.8"/>
      </g>
     </g>
     <g id="text_6">
      <!-- $\mathdefault{1.0}$ -->
      <g style="fill: #262626" transform="translate(976.494488 710.143856) scale(0.36 -0.36)">
       <defs>
        <path id="CMR17-31" d="M 1702 4058 
C 1702 4192 1696 4192 1606 4192 
C 1357 3916 979 3827 621 3827 
C 602 3827 570 3827 563 3808 
C 557 3795 557 3782 557 3648 
C 755 3648 1088 3686 1344 3839 
L 1344 461 
C 1344 236 1331 160 781 160 
L 589 160 
L 589 0 
C 896 0 1216 0 1523 0 
C 1830 0 2150 0 2458 0 
L 2458 160 
L 2266 160 
C 1715 160 1702 230 1702 458 
L 1702 4058 
z
" transform="scale(0.015625)"/>
       </defs>
       <use xlink:href="#CMR17-31" transform="scale(0.996264)"/>
       <use xlink:href="#CMMI12-3a" transform="translate(45.690477 0) scale(0.996264)"/>
       <use xlink:href="#CMR17-30" transform="translate(72.787654 0) scale(0.996264)"/>
      </g>
     </g>
    </g>
   </g>
   <g id="matplotlib.axis_2">
    <g id="ytick_1">
     <g id="line2d_7">
      <defs>
       <path id="mca3402d652" d="M 0 0 
L -3.5 0 
" style="stroke: #262626; stroke-width: 0.8"/>
      </defs>
      <g>
       <use xlink:href="#mca3402d652" x="88.532127" y="615.575439" style="fill: #262626; stroke: #262626; stroke-width: 0.8"/>
      </g>
     </g>
     <g id="text_7">
      <!-- $\mathdefault{0.0}$ -->
      <g style="fill: #262626" transform="translate(38.88 628.028739) scale(0.36 -0.36)">
       <use xlink:href="#CMR17-30" transform="scale(0.996264)"/>
       <use xlink:href="#CMMI12-3a" transform="translate(45.690477 0) scale(0.996264)"/>
       <use xlink:href="#CMR17-30" transform="translate(72.787654 0) scale(0.996264)"/>
      </g>
     </g>
    </g>
    <g id="ytick_2">
     <g id="line2d_8">
      <g>
       <use xlink:href="#mca3402d652" x="88.532127" y="506.04869" style="fill: #262626; stroke: #262626; stroke-width: 0.8"/>
      </g>
     </g>
     <g id="text_8">
      <!-- $\mathdefault{0.2}$ -->
      <g style="fill: #262626" transform="translate(38.88 518.50199) scale(0.36 -0.36)">
       <use xlink:href="#CMR17-30" transform="scale(0.996264)"/>
       <use xlink:href="#CMMI12-3a" transform="translate(45.690477 0) scale(0.996264)"/>
       <use xlink:href="#CMR17-32" transform="translate(72.787654 0) scale(0.996264)"/>
      </g>
     </g>
    </g>
    <g id="ytick_3">
     <g id="line2d_9">
      <g>
       <use xlink:href="#mca3402d652" x="88.532127" y="396.521941" style="fill: #262626; stroke: #262626; stroke-width: 0.8"/>
      </g>
     </g>
     <g id="text_9">
      <!-- $\mathdefault{0.4}$ -->
      <g style="fill: #262626" transform="translate(38.88 408.975241) scale(0.36 -0.36)">
       <use xlink:href="#CMR17-30" transform="scale(0.996264)"/>
       <use xlink:href="#CMMI12-3a" transform="translate(45.690477 0) scale(0.996264)"/>
       <use xlink:href="#CMR17-34" transform="translate(72.787654 0) scale(0.996264)"/>
      </g>
     </g>
    </g>
    <g id="ytick_4">
     <g id="line2d_10">
      <g>
       <use xlink:href="#mca3402d652" x="88.532127" y="286.995192" style="fill: #262626; stroke: #262626; stroke-width: 0.8"/>
      </g>
     </g>
     <g id="text_10">
      <!-- $\mathdefault{0.6}$ -->
      <g style="fill: #262626" transform="translate(38.88 299.448492) scale(0.36 -0.36)">
       <use xlink:href="#CMR17-30" transform="scale(0.996264)"/>
       <use xlink:href="#CMMI12-3a" transform="translate(45.690477 0) scale(0.996264)"/>
       <use xlink:href="#CMR17-36" transform="translate(72.787654 0) scale(0.996264)"/>
      </g>
     </g>
    </g>
    <g id="ytick_5">
     <g id="line2d_11">
      <g>
       <use xlink:href="#mca3402d652" x="88.532127" y="177.468443" style="fill: #262626; stroke: #262626; stroke-width: 0.8"/>
      </g>
     </g>
     <g id="text_11">
      <!-- $\mathdefault{0.8}$ -->
      <g style="fill: #262626" transform="translate(38.88 189.921743) scale(0.36 -0.36)">
       <use xlink:href="#CMR17-30" transform="scale(0.996264)"/>
       <use xlink:href="#CMMI12-3a" transform="translate(45.690477 0) scale(0.996264)"/>
       <use xlink:href="#CMR17-38" transform="translate(72.787654 0) scale(0.996264)"/>
      </g>
     </g>
    </g>
    <g id="ytick_6">
     <g id="line2d_12">
      <g>
       <use xlink:href="#mca3402d652" x="88.532127" y="67.941693" style="fill: #262626; stroke: #262626; stroke-width: 0.8"/>
      </g>
     </g>
     <g id="text_12">
      <!-- $\mathdefault{1.0}$ -->
      <g style="fill: #262626" transform="translate(38.88 80.394994) scale(0.36 -0.36)">
       <use xlink:href="#CMR17-31" transform="scale(0.996264)"/>
       <use xlink:href="#CMMI12-3a" transform="translate(45.690477 0) scale(0.996264)"/>
       <use xlink:href="#CMR17-30" transform="translate(72.787654 0) scale(0.996264)"/>
      </g>
     </g>
    </g>
   </g>
   <g id="line2d_13">
    <path d="M 131.831576 67.941693 
L 997.820551 67.941693 
L 997.820551 67.941693 
" clip-path="url(#p21816d8ebb)" style="fill: none; stroke: #1f77b4; stroke-width: 5; stroke-linecap: round"/>
   </g>
   <g id="line2d_14">
    <path d="M 131.831576 609.219946 
L 143.378096 606.787022 
L 154.924615 604.030431 
L 166.471135 600.97137 
L 178.017655 597.630795 
L 189.564174 594.028406 
L 201.110694 590.183534 
L 212.657214 586.11475 
L 224.203733 581.838457 
L 235.750253 577.37204 
L 247.296773 572.730846 
L 264.616552 565.47383 
L 281.936332 557.903865 
L 299.256111 550.06455 
L 316.575891 541.995958 
L 339.66893 530.944738 
L 362.761969 519.627897 
L 391.628269 505.218997 
L 432.041087 484.764957 
L 507.093465 446.734773 
L 541.733024 429.45505 
L 570.599323 415.288032 
L 599.465623 401.381403 
L 628.331922 387.763795 
L 651.424961 377.108141 
L 674.518 366.660494 
L 703.3843 353.932099 
L 726.477339 344.006338 
L 749.570378 334.338761 
L 766.890158 327.235586 
L 789.983197 317.995449 
L 813.076237 309.004204 
L 836.169276 300.260293 
L 865.035575 289.692362 
L 888.128614 281.515029 
L 911.221654 273.592709 
L 934.314693 265.911403 
L 957.407732 258.466237 
L 980.500772 251.269157 
L 997.820551 246.021314 
L 997.820551 246.021314 
" clip-path="url(#p21816d8ebb)" style="fill: none; stroke: #ff7f0e; stroke-width: 5; stroke-linecap: round"/>
   </g>
   <g id="line2d_15">
    <path d="M 131.831576 616.547372 
L 137.604836 615.6003 
L 154.924615 614.386919 
L 166.471135 613.137006 
L 178.017655 611.484106 
L 189.564174 609.45425 
L 201.110694 607.072353 
L 212.657214 604.362339 
L 224.203733 601.346173 
L 235.750253 598.045841 
L 247.296773 594.481515 
L 258.843292 590.672634 
L 270.389812 586.63748 
L 281.936332 582.393753 
L 293.482851 577.958001 
L 305.029371 573.345963 
L 322.349151 566.130118 
L 339.66893 558.597768 
L 356.98871 550.793743 
L 374.308489 542.756554 
L 397.401528 531.74327 
L 420.494568 520.460435 
L 449.360867 506.087968 
L 489.773686 485.674484 
L 570.599323 444.795155 
L 605.238882 427.572625 
L 634.105182 413.458238 
L 662.971481 399.603845 
L 686.06452 388.735792 
L 714.930819 375.437442 
L 738.023859 365.046739 
L 761.116898 354.880932 
L 784.209937 344.95364 
L 807.302977 335.268371 
L 830.396016 325.836954 
L 847.715796 318.908114 
L 870.808835 309.904483 
L 899.675134 299.01108 
L 922.768173 290.563355 
L 951.634473 280.364996 
L 980.500772 270.55398 
L 997.820551 264.849957 
L 997.820551 264.849957 
" clip-path="url(#p21816d8ebb)" style="fill: none; stroke: #2ca02c; stroke-width: 5; stroke-linecap: round"/>
   </g>
   <g id="line2d_16">
    <path d="M 131.831576 620.255198 
L 137.604836 617.115357 
L 143.378096 615.837833 
L 149.151356 615.310183 
L 160.697875 614.564387 
L 172.244395 613.389842 
L 183.790915 611.807385 
L 195.337434 609.843435 
L 206.883954 607.523205 
L 218.430474 604.870555 
L 229.976993 601.908441 
L 241.523513 598.657589 
L 253.070033 595.139613 
L 264.616552 591.373915 
L 276.163072 587.378932 
L 287.709592 583.171999 
L 299.256111 578.770395 
L 310.802631 574.189889 
L 328.12241 567.016592 
L 345.44219 559.520767 
L 362.761969 551.748431 
L 380.081749 543.73934 
L 403.174788 532.755931 
L 426.267828 521.498047 
L 455.134127 507.144929 
L 495.546946 486.747791 
L 576.372583 445.861779 
L 611.012142 428.623858 
L 639.878441 414.495122 
L 668.744741 400.62861 
L 691.83778 389.744321 
L 714.930819 379.056186 
L 738.023859 368.590569 
L 761.116898 358.348294 
L 784.209937 348.339076 
L 813.076237 336.167046 
L 841.942536 324.379189 
L 865.035575 315.22694 
L 893.901874 304.146024 
L 916.994914 295.553993 
L 945.861213 285.172841 
L 974.727512 275.178472 
L 997.820551 267.471835 
L 997.820551 267.471835 
" clip-path="url(#p21816d8ebb)" style="fill: none; stroke: #d62728; stroke-width: 5; stroke-linecap: round"/>
   </g>
   <g id="line2d_17">
    <path d="M 131.831576 624.233822 
L 137.604836 618.727649 
L 143.378096 616.500349 
L 149.151356 615.585748 
L 166.471135 614.378653 
L 178.017655 613.126798 
L 189.564174 611.471998 
L 201.110694 609.440475 
L 212.657214 607.057338 
L 224.203733 604.345812 
L 235.750253 601.328889 
L 247.296773 598.027809 
L 258.843292 594.463059 
L 270.389812 590.653747 
L 281.936332 586.618615 
L 293.482851 582.375257 
L 305.029371 577.939615 
L 316.575891 573.328192 
L 333.89567 566.113326 
L 351.21545 558.582385 
L 368.535229 550.779569 
L 385.855009 542.744103 
L 408.948048 531.733551 
L 432.041087 520.453935 
L 460.907387 506.084954 
L 501.320205 485.677405 
L 582.145843 444.808665 
L 616.785402 427.590165 
L 645.651701 413.479989 
L 674.518 399.627918 
L 697.61104 388.763296 
L 720.704079 378.101029 
L 743.797119 367.660376 
L 766.890158 357.439218 
L 789.983197 347.447029 
L 813.076237 337.70765 
L 836.169276 328.200352 
L 865.035575 316.681669 
L 882.355355 309.945781 
L 911.221654 299.053069 
L 934.314693 290.60701 
L 963.180992 280.409717 
L 992.047291 270.599831 
L 997.820551 268.684648 
L 997.820551 268.684648 
" clip-path="url(#p21816d8ebb)" style="fill: none; stroke: #9467bd; stroke-width: 5; stroke-linecap: round"/>
   </g>
   <g id="line2d_18">
    <path d="M 131.831576 628.310468 
L 137.604836 620.371896 
L 143.378096 617.172851 
L 149.151356 615.864153 
L 154.924615 615.32177 
L 166.471135 614.581775 
L 178.017655 613.415475 
L 189.564174 611.840741 
L 201.110694 609.884071 
L 212.657214 607.570833 
L 224.203733 604.924499 
L 235.750253 601.968263 
L 247.296773 598.723598 
L 258.843292 595.211278 
L 270.389812 591.450557 
L 281.936332 587.460314 
L 293.482851 583.25818 
L 305.029371 578.860865 
L 316.575891 574.28427 
L 333.89567 567.116231 
L 351.21545 559.626439 
L 368.535229 551.858246 
L 385.855009 543.853124 
L 408.948048 532.874975 
L 432.041087 521.620583 
L 460.907387 507.272306 
L 501.320205 486.879475 
L 582.145843 445.998617 
L 616.785402 428.759594 
L 645.651701 414.630598 
L 674.518 400.764094 
L 703.3843 387.184798 
L 726.477339 376.552556 
L 755.343638 363.573793 
L 778.436678 353.451411 
L 801.529717 343.553094 
L 824.622756 333.912263 
L 847.715796 324.502783 
L 870.808835 315.348756 
L 893.901874 306.447214 
L 916.994914 297.801395 
L 934.314693 291.470096 
L 957.407732 283.271014 
L 974.727512 277.266247 
L 992.047291 271.404032 
L 997.820551 269.475956 
L 997.820551 269.475956 
" clip-path="url(#p21816d8ebb)" style="fill: none; stroke: #8c564b; stroke-width: 5; stroke-linecap: round"/>
   </g>
   <g id="line2d_19">
    <path d="M 131.831576 632.436081 
L 137.604836 622.030431 
L 143.378096 617.848992 
L 149.151356 616.143172 
L 154.924615 615.438148 
L 166.471135 614.71977 
L 178.017655 613.617134 
L 189.564174 612.101971 
L 201.110694 610.200999 
L 212.657214 607.939759 
L 224.203733 605.341937 
L 235.750253 602.4309 
L 247.296773 599.228278 
L 258.843292 595.754952 
L 270.389812 592.030406 
L 281.936332 588.073649 
L 293.482851 583.902376 
L 305.029371 579.533444 
L 316.575891 574.982947 
L 333.89567 567.850196 
L 351.21545 560.390573 
L 368.535229 552.648827 
L 385.855009 544.66586 
L 403.174788 536.479978 
L 426.267828 525.308164 
L 455.134127 511.030631 
L 489.773686 493.609105 
L 593.692363 441.093031 
L 628.331922 423.937473 
L 657.198221 409.891199 
L 686.06452 396.117951 
L 709.15756 385.315088 
L 732.250599 374.725302 
L 755.343638 364.354829 
L 778.436678 354.206624 
L 801.529717 344.295258 
L 830.396016 332.249951 
L 859.262315 320.594462 
L 882.355355 311.547696 
L 905.448394 302.756673 
L 922.768173 296.315581 
L 945.861213 287.967584 
L 963.180992 281.856906 
L 986.274032 273.93434 
L 997.820551 270.061039 
L 997.820551 270.061039 
" clip-path="url(#p21816d8ebb)" style="fill: none; stroke: #e377c2; stroke-width: 5; stroke-linecap: round"/>
   </g>
   <g id="line2d_20">
    <path d="M 131.831576 636.590715 
L 137.604836 623.696444 
L 143.378096 618.526497 
L 149.151356 616.422066 
L 154.924615 615.554195 
L 172.244395 614.349546 
L 183.790915 613.086342 
L 195.337434 611.420984 
L 206.883954 609.379729 
L 218.430474 606.987397 
L 229.976993 604.267867 
L 241.523513 601.242775 
L 253.070033 597.934498 
L 264.616552 594.363287 
L 276.163072 590.548303 
L 287.709592 586.507566 
L 299.256111 582.259222 
L 310.802631 577.819529 
L 322.349151 573.203983 
L 339.66893 565.983783 
L 356.98871 558.449349 
L 374.308489 550.642701 
L 391.628269 542.604702 
L 414.721308 531.59227 
L 437.814347 520.310075 
L 466.680646 505.941131 
L 507.093465 485.534658 
L 582.145843 447.564986 
L 616.785402 430.307287 
L 645.651701 416.154798 
L 674.518 402.24996 
L 703.3843 388.641872 
L 726.477339 377.984714 
L 749.570378 367.547638 
L 772.663418 357.330809 
L 795.756457 347.342526 
L 818.849496 337.604937 
L 841.942536 328.102702 
L 870.808835 316.58768 
L 888.128614 309.855457 
L 911.221654 301.106986 
L 940.087953 290.524526 
L 968.954252 280.331647 
L 997.820551 270.525635 
L 997.820551 270.525635 
" clip-path="url(#p21816d8ebb)" style="fill: none; stroke: #7f7f7f; stroke-width: 5; stroke-linecap: round"/>
   </g>
   <g id="line2d_21">
    <path d="M 131.831576 640.767327 
L 137.604836 625.367863 
L 143.378096 619.204833 
L 149.151356 616.700746 
L 154.924615 615.669925 
L 178.017655 613.891926 
L 189.564174 612.463895 
L 201.110694 610.644398 
L 212.657214 608.459271 
L 224.203733 605.932457 
L 235.750253 603.087577 
L 247.296773 599.946494 
L 258.843292 596.530324 
L 270.389812 592.858752 
L 281.936332 588.951014 
L 293.482851 584.825144 
L 305.029371 580.497977 
L 316.575891 575.985871 
L 333.89567 568.90433 
L 351.21545 561.489641 
L 368.535229 553.787014 
L 385.855009 545.836712 
L 403.174788 537.678566 
L 426.267828 526.535511 
L 449.360867 515.15849 
L 478.227166 500.709079 
L 535.959764 471.46797 
L 587.919103 445.241888 
L 622.558662 428.022592 
L 651.424961 413.908088 
L 680.29126 400.048795 
L 703.3843 389.178693 
L 732.250599 375.872079 
L 755.343638 365.474656 
L 778.436678 355.304384 
L 801.529717 345.375398 
L 824.622756 335.678694 
L 847.715796 326.237887 
L 865.035575 319.307898 
L 893.901874 308.095654 
L 911.221654 301.537774 
L 934.314693 293.036646 
L 951.634473 286.810827 
L 974.727512 278.743715 
L 997.820551 270.911481 
L 997.820551 270.911481 
" clip-path="url(#p21816d8ebb)" style="fill: none; stroke: #bcbd22; stroke-width: 5; stroke-linecap: round"/>
   </g>
   <g id="line2d_22">
    <path d="M 131.831576 644.96419 
L 137.604836 627.044491 
L 143.378096 619.884121 
L 149.151356 616.979345 
L 154.924615 615.785427 
L 160.697875 615.288951 
L 172.244395 614.533537 
L 183.790915 613.346313 
L 195.337434 611.752051 
L 206.883954 609.777248 
L 218.430474 607.446966 
L 229.976993 604.785275 
L 241.523513 601.814107 
L 253.070033 598.555907 
L 264.616552 595.031205 
L 276.163072 591.259299 
L 287.709592 587.258316 
L 299.256111 583.046802 
L 310.802631 578.640959 
L 322.349151 574.056427 
L 339.66893 566.877817 
L 356.98871 559.379237 
L 374.308489 551.604296 
L 391.628269 543.592579 
L 414.721308 532.607921 
L 437.814347 521.348646 
L 466.680646 506.998039 
L 507.093465 486.605342 
L 582.145843 448.626843 
L 616.785402 431.350594 
L 645.651701 417.180245 
L 674.518 403.264164 
L 703.3843 389.636207 
L 726.477339 378.951535 
L 749.570378 368.490949 
L 772.663418 358.254062 
L 795.756457 348.249921 
L 824.622756 336.083053 
L 847.715796 326.629556 
L 870.808835 317.425442 
L 888.128614 310.674025 
L 916.994914 299.752286 
L 940.087953 291.291904 
L 963.180992 283.097625 
L 980.500772 277.09799 
L 997.820551 271.240699 
L 997.820551 271.240699 
" clip-path="url(#p21816d8ebb)" style="fill: none; stroke: #17becf; stroke-width: 5; stroke-linecap: round"/>
   </g>
   <g id="line2d_23">
    <path d="M 131.831576 649.175563 
L 137.604836 628.72442 
L 143.378096 620.563748 
L 149.151356 617.257679 
L 154.924615 615.900654 
L 160.697875 615.337045 
L 172.244395 614.603156 
L 183.790915 613.446564 
L 195.337434 611.880962 
L 206.883954 609.932951 
L 218.430474 607.627691 
L 229.976993 604.989327 
L 241.523513 602.039873 
L 253.070033 598.801903 
L 264.616552 595.29595 
L 276.163072 591.541479 
L 287.709592 587.556576 
L 299.256111 583.359846 
L 310.802631 578.967529 
L 322.349151 574.395639 
L 339.66893 567.233962 
L 356.98871 559.749929 
L 374.308489 551.987354 
L 391.628269 543.987047 
L 414.721308 533.014107 
L 437.814347 521.7631 
L 466.680646 507.42073 
L 507.093465 487.031142 
L 593.692363 443.261211 
L 628.331922 426.072311 
L 657.198221 411.99035 
L 686.06452 398.178944 
L 714.930819 384.657338 
L 738.023859 374.085082 
L 761.116898 363.723727 
L 784.209937 353.597391 
L 807.302977 343.697138 
L 830.396016 334.055493 
L 847.715796 326.971116 
L 870.808835 317.757108 
L 893.901874 308.788769 
L 916.994914 300.067293 
L 940.087953 291.599951 
L 963.180992 283.396862 
L 980.500772 277.3922 
L 997.820551 271.527684 
L 997.820551 271.527684 
" clip-path="url(#p21816d8ebb)" style="fill: none; stroke: #17becf; stroke-width: 5; stroke-linecap: round"/>
   </g>
   <g id="patch_3">
    <path d="M 88.532127 678.237256 
L 88.532127 38.88 
" style="fill: none; stroke: #262626; stroke-width: 0.8; stroke-linejoin: miter; stroke-linecap: square"/>
   </g>
   <g id="patch_4">
    <path d="M 88.532127 678.237256 
L 1041.12 678.237256 
" style="fill: none; stroke: #262626; stroke-width: 0.8; stroke-linejoin: miter; stroke-linecap: square"/>
   </g>
  </g>
 </g>
 <defs>
  <clipPath id="p21816d8ebb">
   <rect x="88.532127" y="38.88" width="952.587873" height="639.357256"/>
  </clipPath>
 </defs>
</svg>
