<?xml version="1.0" encoding="utf-8" standalone="no"?>
<!DOCTYPE svg PUBLIC "-//W3C//DTD SVG 1.1//EN"
  "http://www.w3.org/Graphics/SVG/1.1/DTD/svg11.dtd">
<svg xmlns:xlink="http://www.w3.org/1999/xlink" width="1080pt" height="756pt" viewBox="0 0 1080 756" xmlns="http://www.w3.org/2000/svg" version="1.1">
 <metadata>
  <rdf:RDF xmlns:dc="http://purl.org/dc/elements/1.1/" xmlns:cc="http://creativecommons.org/ns#" xmlns:rdf="http://www.w3.org/1999/02/22-rdf-syntax-ns#">
   <cc:Work>
    <dc:type rdf:resource="http://purl.org/dc/dcmitype/StillImage"/>
    <dc:date>2024-07-30T20:15:13.395379</dc:date>
    <dc:format>image/svg+xml</dc:format>
    <dc:creator>
     <cc:Agent>
      <dc:title>Matplotlib v3.9.0, https://matplotlib.org/</dc:title>
     </cc:Agent>
    </dc:creator>
   </cc:Work>
  </rdf:RDF>
 </metadata>
 <defs>
  <style type="text/css">*{stroke-linejoin: round; stroke-linecap: butt}</style>
 </defs>
 <g id="figure_1">
  <g id="patch_1">
   <path d="M 0 756 
L 1080 756 
L 1080 0 
L 0 0 
z
" style="fill: #ffffff"/>
  </g>
  <g id="axes_1">
   <g id="patch_2">
    <path d="M 88.532127 678.237256 
L 1041.12 678.237256 
L 1041.12 38.88 
L 88.532127 38.88 
z
" style="fill: #ffffff"/>
   </g>
   <g id="matplotlib.axis_1">
    <g id="xtick_1">
     <g id="line2d_1">
      <defs>
       <path id="m4c2c9ef0ac" d="M 0 0 
L 0 3.5 
" style="stroke: #262626; stroke-width: 0.8"/>
      </defs>
      <g>
       <use xlink:href="#m4c2c9ef0ac" x="131.831576" y="678.237256" style="fill: #262626; stroke: #262626; stroke-width: 0.8"/>
      </g>
     </g>
     <g id="text_1">
      <!-- $\mathdefault{0.0}$ -->
      <g style="fill: #262626" transform="translate(110.505512 710.143856) scale(0.36 -0.36)">
       <defs>
        <path id="CMR17-30" d="M 2688 2025 
C 2688 2416 2682 3080 2413 3591 
C 2176 4039 1798 4198 1466 4198 
C 1158 4198 768 4058 525 3597 
C 269 3118 243 2524 243 2025 
C 243 1661 250 1106 448 619 
C 723 -39 1216 -128 1466 -128 
C 1760 -128 2208 -7 2470 600 
C 2662 1042 2688 1559 2688 2025 
z
M 1466 -26 
C 1056 -26 813 325 723 812 
C 653 1188 653 1738 653 2096 
C 653 2588 653 2997 736 3387 
C 858 3929 1216 4096 1466 4096 
C 1728 4096 2067 3923 2189 3400 
C 2272 3036 2278 2607 2278 2096 
C 2278 1680 2278 1169 2202 792 
C 2067 95 1690 -26 1466 -26 
z
" transform="scale(0.015625)"/>
        <path id="CMMI12-3a" d="M 1178 307 
C 1178 492 1024 619 870 619 
C 685 619 557 466 557 313 
C 557 128 710 0 864 0 
C 1050 0 1178 153 1178 307 
z
" transform="scale(0.015625)"/>
       </defs>
       <use xlink:href="#CMR17-30" transform="scale(0.996264)"/>
       <use xlink:href="#CMMI12-3a" transform="translate(45.690477 0) scale(0.996264)"/>
       <use xlink:href="#CMR17-30" transform="translate(72.787654 0) scale(0.996264)"/>
      </g>
     </g>
    </g>
    <g id="xtick_2">
     <g id="line2d_2">
      <g>
       <use xlink:href="#m4c2c9ef0ac" x="305.029371" y="678.237256" style="fill: #262626; stroke: #262626; stroke-width: 0.8"/>
      </g>
     </g>
     <g id="text_2">
      <!-- $\mathdefault{0.2}$ -->
      <g style="fill: #262626" transform="translate(283.703307 710.143856) scale(0.36 -0.36)">
       <defs>
        <path id="CMR17-32" d="M 2669 989 
L 2554 989 
C 2490 536 2438 459 2413 420 
C 2381 369 1920 369 1830 369 
L 602 369 
C 832 619 1280 1072 1824 1597 
C 2214 1967 2669 2402 2669 3035 
C 2669 3790 2067 4224 1395 4224 
C 691 4224 262 3604 262 3030 
C 262 2780 448 2748 525 2748 
C 589 2748 781 2787 781 3010 
C 781 3207 614 3264 525 3264 
C 486 3264 448 3258 422 3245 
C 544 3790 915 4058 1306 4058 
C 1862 4058 2227 3617 2227 3035 
C 2227 2479 1901 2000 1536 1584 
L 262 146 
L 262 0 
L 2515 0 
L 2669 989 
z
" transform="scale(0.015625)"/>
       </defs>
       <use xlink:href="#CMR17-30" transform="scale(0.996264)"/>
       <use xlink:href="#CMMI12-3a" transform="translate(45.690477 0) scale(0.996264)"/>
       <use xlink:href="#CMR17-32" transform="translate(72.787654 0) scale(0.996264)"/>
      </g>
     </g>
    </g>
    <g id="xtick_3">
     <g id="line2d_3">
      <g>
       <use xlink:href="#m4c2c9ef0ac" x="478.227166" y="678.237256" style="fill: #262626; stroke: #262626; stroke-width: 0.8"/>
      </g>
     </g>
     <g id="text_3">
      <!-- $\mathdefault{0.4}$ -->
      <g style="fill: #262626" transform="translate(456.901102 710.143856) scale(0.36 -0.36)">
       <defs>
        <path id="CMR17-34" d="M 2150 4122 
C 2150 4256 2144 4256 2029 4256 
L 128 1254 
L 128 1088 
L 1779 1088 
L 1779 457 
C 1779 224 1766 160 1318 160 
L 1197 160 
L 1197 0 
C 1402 0 1747 0 1965 0 
C 2182 0 2528 0 2733 0 
L 2733 160 
L 2611 160 
C 2163 160 2150 224 2150 457 
L 2150 1088 
L 2803 1088 
L 2803 1254 
L 2150 1254 
L 2150 4122 
z
M 1798 3703 
L 1798 1254 
L 256 1254 
L 1798 3703 
z
" transform="scale(0.015625)"/>
       </defs>
       <use xlink:href="#CMR17-30" transform="scale(0.996264)"/>
       <use xlink:href="#CMMI12-3a" transform="translate(45.690477 0) scale(0.996264)"/>
       <use xlink:href="#CMR17-34" transform="translate(72.787654 0) scale(0.996264)"/>
      </g>
     </g>
    </g>
    <g id="xtick_4">
     <g id="line2d_4">
      <g>
       <use xlink:href="#m4c2c9ef0ac" x="651.424961" y="678.237256" style="fill: #262626; stroke: #262626; stroke-width: 0.8"/>
      </g>
     </g>
     <g id="text_4">
      <!-- $\mathdefault{0.6}$ -->
      <g style="fill: #262626" transform="translate(630.098898 710.143856) scale(0.36 -0.36)">
       <defs>
        <path id="CMR17-36" d="M 678 2176 
C 678 3690 1395 4032 1811 4032 
C 1946 4032 2272 4009 2400 3776 
C 2298 3776 2106 3776 2106 3553 
C 2106 3381 2246 3323 2336 3323 
C 2394 3323 2566 3348 2566 3560 
C 2566 3954 2246 4179 1805 4179 
C 1043 4179 243 3390 243 1984 
C 243 253 966 -128 1478 -128 
C 2099 -128 2688 427 2688 1283 
C 2688 2081 2170 2662 1517 2662 
C 1126 2662 838 2407 678 1960 
L 678 2176 
z
M 1478 25 
C 691 25 691 1200 691 1436 
C 691 1896 909 2560 1504 2560 
C 1613 2560 1926 2560 2138 2120 
C 2253 1870 2253 1609 2253 1289 
C 2253 944 2253 690 2118 434 
C 1978 171 1773 25 1478 25 
z
" transform="scale(0.015625)"/>
       </defs>
       <use xlink:href="#CMR17-30" transform="scale(0.996264)"/>
       <use xlink:href="#CMMI12-3a" transform="translate(45.690477 0) scale(0.996264)"/>
       <use xlink:href="#CMR17-36" transform="translate(72.787654 0) scale(0.996264)"/>
      </g>
     </g>
    </g>
    <g id="xtick_5">
     <g id="line2d_5">
      <g>
       <use xlink:href="#m4c2c9ef0ac" x="824.622756" y="678.237256" style="fill: #262626; stroke: #262626; stroke-width: 0.8"/>
      </g>
     </g>
     <g id="text_5">
      <!-- $\mathdefault{0.8}$ -->
      <g style="fill: #262626" transform="translate(803.296693 710.143856) scale(0.36 -0.36)">
       <defs>
        <path id="CMR17-38" d="M 1741 2264 
C 2144 2467 2554 2773 2554 3263 
C 2554 3841 1990 4179 1472 4179 
C 890 4179 378 3759 378 3180 
C 378 3021 416 2747 666 2505 
C 730 2442 998 2251 1171 2130 
C 883 1983 211 1634 211 934 
C 211 279 838 -128 1459 -128 
C 2144 -128 2720 362 2720 1010 
C 2720 1590 2330 1857 2074 2029 
L 1741 2264 
z
M 902 2822 
C 851 2854 595 3051 595 3351 
C 595 3739 998 4032 1459 4032 
C 1965 4032 2336 3676 2336 3262 
C 2336 2669 1670 2331 1638 2331 
C 1632 2331 1626 2331 1574 2370 
L 902 2822 
z
M 2080 1519 
C 2176 1449 2483 1240 2483 851 
C 2483 381 2010 25 1472 25 
C 890 25 448 438 448 940 
C 448 1443 838 1862 1280 2060 
L 2080 1519 
z
" transform="scale(0.015625)"/>
       </defs>
       <use xlink:href="#CMR17-30" transform="scale(0.996264)"/>
       <use xlink:href="#CMMI12-3a" transform="translate(45.690477 0) scale(0.996264)"/>
       <use xlink:href="#CMR17-38" transform="translate(72.787654 0) scale(0.996264)"/>
      </g>
     </g>
    </g>
    <g id="xtick_6">
     <g id="line2d_6">
      <g>
       <use xlink:href="#m4c2c9ef0ac" x="997.820551" y="678.237256" style="fill: #262626; stroke: #262626; stroke-width: 0.8"/>
      </g>
     </g>
     <g id="text_6">
      <!-- $\mathdefault{1.0}$ -->
      <g style="fill: #262626" transform="translate(976.494488 710.143856) scale(0.36 -0.36)">
       <defs>
        <path id="CMR17-31" d="M 1702 4058 
C 1702 4192 1696 4192 1606 4192 
C 1357 3916 979 3827 621 3827 
C 602 3827 570 3827 563 3808 
C 557 3795 557 3782 557 3648 
C 755 3648 1088 3686 1344 3839 
L 1344 461 
C 1344 236 1331 160 781 160 
L 589 160 
L 589 0 
C 896 0 1216 0 1523 0 
C 1830 0 2150 0 2458 0 
L 2458 160 
L 2266 160 
C 1715 160 1702 230 1702 458 
L 1702 4058 
z
" transform="scale(0.015625)"/>
       </defs>
       <use xlink:href="#CMR17-31" transform="scale(0.996264)"/>
       <use xlink:href="#CMMI12-3a" transform="translate(45.690477 0) scale(0.996264)"/>
       <use xlink:href="#CMR17-30" transform="translate(72.787654 0) scale(0.996264)"/>
      </g>
     </g>
    </g>
   </g>
   <g id="matplotlib.axis_2">
    <g id="ytick_1">
     <g id="line2d_7">
      <defs>
       <path id="m29fa5a70c3" d="M 0 0 
L -3.5 0 
" style="stroke: #262626; stroke-width: 0.8"/>
      </defs>
      <g>
       <use xlink:href="#m29fa5a70c3" x="88.532127" y="606.887027" style="fill: #262626; stroke: #262626; stroke-width: 0.8"/>
      </g>
     </g>
     <g id="text_7">
      <!-- $\mathdefault{0.0}$ -->
      <g style="fill: #262626" transform="translate(38.88 619.340327) scale(0.36 -0.36)">
       <use xlink:href="#CMR17-30" transform="scale(0.996264)"/>
       <use xlink:href="#CMMI12-3a" transform="translate(45.690477 0) scale(0.996264)"/>
       <use xlink:href="#CMR17-30" transform="translate(72.787654 0) scale(0.996264)"/>
      </g>
     </g>
    </g>
    <g id="ytick_2">
     <g id="line2d_8">
      <g>
       <use xlink:href="#m29fa5a70c3" x="88.532127" y="499.09796" style="fill: #262626; stroke: #262626; stroke-width: 0.8"/>
      </g>
     </g>
     <g id="text_8">
      <!-- $\mathdefault{0.2}$ -->
      <g style="fill: #262626" transform="translate(38.88 511.55126) scale(0.36 -0.36)">
       <use xlink:href="#CMR17-30" transform="scale(0.996264)"/>
       <use xlink:href="#CMMI12-3a" transform="translate(45.690477 0) scale(0.996264)"/>
       <use xlink:href="#CMR17-32" transform="translate(72.787654 0) scale(0.996264)"/>
      </g>
     </g>
    </g>
    <g id="ytick_3">
     <g id="line2d_9">
      <g>
       <use xlink:href="#m29fa5a70c3" x="88.532127" y="391.308894" style="fill: #262626; stroke: #262626; stroke-width: 0.8"/>
      </g>
     </g>
     <g id="text_9">
      <!-- $\mathdefault{0.4}$ -->
      <g style="fill: #262626" transform="translate(38.88 403.762194) scale(0.36 -0.36)">
       <use xlink:href="#CMR17-30" transform="scale(0.996264)"/>
       <use xlink:href="#CMMI12-3a" transform="translate(45.690477 0) scale(0.996264)"/>
       <use xlink:href="#CMR17-34" transform="translate(72.787654 0) scale(0.996264)"/>
      </g>
     </g>
    </g>
    <g id="ytick_4">
     <g id="line2d_10">
      <g>
       <use xlink:href="#m29fa5a70c3" x="88.532127" y="283.519827" style="fill: #262626; stroke: #262626; stroke-width: 0.8"/>
      </g>
     </g>
     <g id="text_10">
      <!-- $\mathdefault{0.6}$ -->
      <g style="fill: #262626" transform="translate(38.88 295.973127) scale(0.36 -0.36)">
       <use xlink:href="#CMR17-30" transform="scale(0.996264)"/>
       <use xlink:href="#CMMI12-3a" transform="translate(45.690477 0) scale(0.996264)"/>
       <use xlink:href="#CMR17-36" transform="translate(72.787654 0) scale(0.996264)"/>
      </g>
     </g>
    </g>
    <g id="ytick_5">
     <g id="line2d_11">
      <g>
       <use xlink:href="#m29fa5a70c3" x="88.532127" y="175.73076" style="fill: #262626; stroke: #262626; stroke-width: 0.8"/>
      </g>
     </g>
     <g id="text_11">
      <!-- $\mathdefault{0.8}$ -->
      <g style="fill: #262626" transform="translate(38.88 188.18406) scale(0.36 -0.36)">
       <use xlink:href="#CMR17-30" transform="scale(0.996264)"/>
       <use xlink:href="#CMMI12-3a" transform="translate(45.690477 0) scale(0.996264)"/>
       <use xlink:href="#CMR17-38" transform="translate(72.787654 0) scale(0.996264)"/>
      </g>
     </g>
    </g>
    <g id="ytick_6">
     <g id="line2d_12">
      <g>
       <use xlink:href="#m29fa5a70c3" x="88.532127" y="67.941693" style="fill: #262626; stroke: #262626; stroke-width: 0.8"/>
      </g>
     </g>
     <g id="text_12">
      <!-- $\mathdefault{1.0}$ -->
      <g style="fill: #262626" transform="translate(38.88 80.394994) scale(0.36 -0.36)">
       <use xlink:href="#CMR17-31" transform="scale(0.996264)"/>
       <use xlink:href="#CMMI12-3a" transform="translate(45.690477 0) scale(0.996264)"/>
       <use xlink:href="#CMR17-30" transform="translate(72.787654 0) scale(0.996264)"/>
      </g>
     </g>
    </g>
   </g>
   <g id="line2d_13">
    <path d="M 131.831576 67.941693 
L 997.820551 67.941693 
L 997.820551 67.941693 
" clip-path="url(#paa6972a68f)" style="fill: none; stroke: #1f77b4; stroke-width: 5; stroke-linecap: round"/>
   </g>
   <g id="line2d_14">
    <path d="M 131.831576 579.533847 
L 143.378096 575.37968 
L 154.924615 571.0389 
L 166.471135 566.52547 
L 183.790915 559.463162 
L 201.110694 552.088891 
L 218.430474 544.444307 
L 235.750253 536.568344 
L 258.843292 525.767519 
L 281.936332 514.69621 
L 310.802631 500.580861 
L 351.21545 480.516772 
L 432.041087 440.285991 
L 466.680646 423.321847 
L 495.546946 409.412366 
L 524.413245 395.758542 
L 553.279544 382.393992 
L 576.372583 371.929699 
L 599.465623 361.676433 
L 622.558662 351.650397 
L 645.651701 341.852575 
L 668.744741 332.294684 
L 691.83778 322.974867 
L 714.930819 313.901893 
L 738.023859 305.074723 
L 761.116898 296.500389 
L 784.209937 288.161161 
L 807.302977 280.076178 
L 830.396016 272.235387 
L 853.489055 264.634063 
L 876.582095 257.267621 
L 899.675134 250.136491 
L 928.541433 241.551347 
L 957.407732 233.319025 
L 986.274032 225.433309 
L 997.820551 222.381307 
L 997.820551 222.381307 
" clip-path="url(#paa6972a68f)" style="fill: none; stroke: #ff7f0e; stroke-width: 5; stroke-linecap: round"/>
   </g>
   <g id="line2d_15">
    <path d="M 131.831576 606.158208 
L 143.378096 605.114035 
L 154.924615 603.663647 
L 166.471135 601.833412 
L 178.017655 599.647939 
L 189.564174 597.130743 
L 201.110694 594.303597 
L 212.657214 591.18839 
L 224.203733 587.805215 
L 235.750253 584.173603 
L 247.296773 580.311943 
L 258.843292 576.237726 
L 270.389812 571.968032 
L 281.936332 567.518283 
L 299.256111 560.538659 
L 316.575891 553.235549 
L 333.89567 545.65214 
L 351.21545 537.829009 
L 368.535229 529.803327 
L 391.628269 518.845791 
L 420.494568 504.838347 
L 455.134127 487.736647 
L 564.826064 433.318403 
L 599.465623 416.500451 
L 628.331922 402.739465 
L 657.198221 389.250868 
L 686.06452 376.063893 
L 709.15756 365.749853 
L 732.250599 355.652517 
L 755.343638 345.784518 
L 778.436678 336.149819 
L 801.529717 326.754305 
L 824.622756 317.599441 
L 847.715796 308.691989 
L 870.808835 300.032889 
L 893.901874 291.610549 
L 916.994914 283.442198 
L 940.087953 275.517412 
L 963.180992 267.829571 
L 986.274032 260.384196 
L 997.820551 256.748662 
L 997.820551 256.748662 
" clip-path="url(#paa6972a68f)" style="fill: none; stroke: #2ca02c; stroke-width: 5; stroke-linecap: round"/>
   </g>
   <g id="line2d_16">
    <path d="M 131.831576 610.200923 
L 137.604836 608.070311 
L 143.378096 606.941744 
L 149.151356 606.336533 
L 160.697875 605.393047 
L 172.244395 604.043551 
L 183.790915 602.306462 
L 195.337434 600.20711 
L 206.883954 597.769628 
L 218.430474 595.01686 
L 229.976993 591.970572 
L 241.523513 588.651458 
L 253.070033 585.079552 
L 264.616552 581.273034 
L 276.163072 577.250213 
L 287.709592 573.027575 
L 299.256111 568.621435 
L 316.575891 561.701051 
L 333.89567 554.449511 
L 351.21545 546.911224 
L 368.535229 539.127028 
L 385.855009 531.134782 
L 408.948048 520.213615 
L 432.041087 509.056686 
L 460.907387 494.880489 
L 512.866725 469.049236 
L 570.599323 440.411573 
L 605.238882 423.483946 
L 634.105182 409.605106 
L 662.971481 395.981281 
L 686.06452 385.285706 
L 714.930819 372.200692 
L 738.023859 361.964908 
L 761.116898 351.956635 
L 784.209937 342.176758 
L 807.302977 332.637239 
L 830.396016 323.330779 
L 853.489055 314.271211 
L 876.582095 305.45734 
L 899.675134 296.891742 
L 922.768173 288.564286 
L 945.861213 280.485471 
L 968.954252 272.651883 
L 992.047291 265.056703 
L 997.820551 263.19318 
L 997.820551 263.19318 
" clip-path="url(#paa6972a68f)" style="fill: none; stroke: #d62728; stroke-width: 5; stroke-linecap: round"/>
   </g>
   <g id="line2d_17">
    <path d="M 131.831576 615.343558 
L 137.604836 610.786093 
L 143.378096 608.39083 
L 149.151356 607.116259 
L 154.924615 606.432638 
L 166.471135 605.510864 
L 178.017655 604.204809 
L 189.564174 602.508626 
L 201.110694 600.44737 
L 212.657214 598.04558 
L 224.203733 595.326073 
L 235.750253 592.310883 
L 247.296773 589.02074 
L 258.843292 585.475402 
L 270.389812 581.694148 
L 281.936332 577.694414 
L 293.482851 573.493408 
L 305.029371 569.106609 
L 316.575891 564.550479 
L 333.89567 557.428708 
L 351.21545 550.002609 
L 368.535229 542.314571 
L 385.855009 534.403631 
L 408.948048 523.569562 
L 432.041087 512.478433 
L 460.907387 498.357415 
L 501.320205 478.313284 
L 576.372583 441.044036 
L 611.012142 424.108074 
L 639.878441 410.222267 
L 668.744741 396.587019 
L 691.83778 385.880507 
L 714.930819 375.374049 
L 738.023859 365.078412 
L 761.116898 354.999892 
L 784.209937 345.150802 
L 807.302977 335.540393 
L 830.396016 326.159874 
L 853.489055 317.026486 
L 876.582095 308.137203 
L 899.675134 299.497565 
L 922.768173 291.096397 
L 945.861213 282.949265 
L 968.954252 275.036736 
L 992.047291 267.367563 
L 997.820551 265.486952 
L 997.820551 265.486952 
" clip-path="url(#paa6972a68f)" style="fill: none; stroke: #9467bd; stroke-width: 5; stroke-linecap: round"/>
   </g>
   <g id="line2d_18">
    <path d="M 131.831576 620.770417 
L 137.604836 613.634844 
L 143.378096 609.901868 
L 149.151356 607.924555 
L 154.924615 606.868782 
L 160.697875 606.298629 
L 172.244395 605.344035 
L 183.790915 603.979198 
L 195.337434 602.227856 
L 206.883954 600.115328 
L 218.430474 597.665589 
L 229.976993 594.90149 
L 241.523513 591.844751 
L 253.070033 588.516347 
L 264.616552 584.935469 
L 276.163072 581.121278 
L 287.709592 577.091067 
L 299.256111 572.86214 
L 310.802631 568.450281 
L 328.12241 561.52248 
L 345.44219 554.264641 
L 362.761969 546.721377 
L 380.081749 538.933412 
L 397.401528 530.937321 
L 420.494568 520.013007 
L 443.587607 508.855105 
L 472.453906 494.679589 
L 524.413245 468.850426 
L 576.372583 443.064432 
L 611.012142 426.10189 
L 639.878441 412.183245 
L 668.744741 398.509886 
L 697.61104 385.117765 
L 720.704079 374.627673 
L 743.797119 364.34455 
L 766.890158 354.285888 
L 789.983197 344.45296 
L 813.076237 334.856031 
L 836.169276 325.497191 
L 859.262315 316.382945 
L 882.355355 307.511007 
L 905.448394 298.886215 
L 928.541433 290.50769 
L 951.634473 282.374098 
L 974.727512 274.479665 
L 997.820551 266.828853 
L 997.820551 266.828853 
" clip-path="url(#paa6972a68f)" style="fill: none; stroke: #8c564b; stroke-width: 5; stroke-linecap: round"/>
   </g>
   <g id="line2d_19">
    <path d="M 131.831576 626.334455 
L 137.604836 616.544241 
L 143.378096 611.439131 
L 149.151356 608.743746 
L 154.924615 607.309153 
L 160.697875 606.536859 
L 172.244395 605.618962 
L 183.790915 604.353999 
L 195.337434 602.696081 
L 206.883954 600.67085 
L 218.430474 598.302579 
L 229.976993 595.61441 
L 241.523513 592.628328 
L 253.070033 589.365578 
L 264.616552 585.845588 
L 276.163072 582.087762 
L 287.709592 578.109654 
L 299.256111 573.928712 
L 310.802631 569.56099 
L 322.349151 565.021746 
L 339.66893 557.923038 
L 356.98871 550.517433 
L 374.308489 542.846729 
L 391.628269 534.950088 
L 414.721308 524.132577 
L 437.814347 513.054614 
L 466.680646 498.945065 
L 507.093465 478.909691 
L 587.919103 438.796851 
L 622.558662 421.897771 
L 651.424961 408.048724 
L 680.29126 394.460266 
L 703.3843 383.792231 
L 726.477339 373.327241 
L 749.570378 363.076951 
L 772.663418 353.04333 
L 795.756457 343.242173 
L 818.849496 333.673517 
L 841.942536 324.349587 
L 865.035575 315.264218 
L 888.128614 306.426023 
L 911.221654 297.826696 
L 934.314693 289.481771 
L 957.407732 281.373281 
L 980.500772 273.512322 
L 997.820551 267.779355 
L 997.820551 267.779355 
" clip-path="url(#paa6972a68f)" style="fill: none; stroke: #e377c2; stroke-width: 5; stroke-linecap: round"/>
   </g>
   <g id="line2d_20">
    <path d="M 131.831576 631.979056 
L 137.604836 619.487266 
L 143.378096 612.989731 
L 149.151356 609.567715 
L 154.924615 607.750859 
L 160.697875 606.775174 
L 183.790915 604.625193 
L 195.337434 603.040008 
L 206.883954 601.082754 
L 218.430474 598.777943 
L 229.976993 596.148937 
L 241.523513 593.21794 
L 253.070033 590.006377 
L 264.616552 586.533904 
L 276.163072 582.820068 
L 287.709592 578.882601 
L 299.256111 574.73922 
L 310.802631 570.405902 
L 322.349151 565.898355 
L 339.66893 558.842127 
L 356.98871 551.473409 
L 374.308489 543.834154 
L 391.628269 535.964524 
L 414.721308 525.176077 
L 437.814347 514.120349 
L 466.680646 500.029509 
L 507.093465 480.00672 
L 587.919103 439.882046 
L 622.558662 422.967117 
L 651.424961 409.100976 
L 680.29126 395.488231 
L 709.15756 382.165716 
L 732.250599 371.733349 
L 755.343638 361.513722 
L 778.436678 351.519059 
L 801.529717 341.751267 
L 824.622756 332.221119 
L 847.715796 322.930093 
L 870.808835 313.883284 
L 893.901874 305.081671 
L 916.994914 296.531523 
L 940.087953 288.214532 
L 963.180992 280.150074 
L 986.274032 272.329143 
L 997.820551 268.508517 
L 997.820551 268.508517 
" clip-path="url(#paa6972a68f)" style="fill: none; stroke: #7f7f7f; stroke-width: 5; stroke-linecap: round"/>
   </g>
   <g id="line2d_21">
    <path d="M 131.831576 637.675999 
L 137.604836 622.450784 
L 143.378096 614.547593 
L 149.151356 610.393686 
L 154.924615 608.192657 
L 160.697875 607.013015 
L 166.471135 606.377352 
L 178.017655 605.447745 
L 189.564174 604.119797 
L 201.110694 602.402845 
L 212.657214 600.322552 
L 224.203733 597.902887 
L 235.750253 595.166939 
L 247.296773 592.136467 
L 258.843292 588.832204 
L 270.389812 585.274312 
L 281.936332 581.481134 
L 293.482851 577.470685 
L 305.029371 573.259509 
L 316.575891 568.864444 
L 328.12241 564.300163 
L 345.44219 557.167901 
L 362.761969 549.733124 
L 380.081749 542.037994 
L 397.401528 534.120539 
L 420.494568 523.280655 
L 443.587607 512.185829 
L 472.453906 498.063226 
L 518.639985 475.145459 
L 582.145843 443.60394 
L 616.785402 426.63317 
L 645.651701 412.707596 
L 674.518 399.026232 
L 703.3843 385.624694 
L 732.250599 372.533843 
L 755.343638 362.29641 
L 778.436678 352.282609 
L 801.529717 342.498797 
L 824.622756 332.954933 
L 847.715796 323.642778 
L 870.808835 314.576763 
L 893.901874 305.758158 
L 916.994914 297.183443 
L 940.087953 288.85236 
L 963.180992 280.766176 
L 986.274032 272.925273 
L 997.820551 269.095267 
L 997.820551 269.095267 
" clip-path="url(#paa6972a68f)" style="fill: none; stroke: #bcbd22; stroke-width: 5; stroke-linecap: round"/>
   </g>
   <g id="line2d_22">
    <path d="M 131.831576 643.404912 
L 137.604836 625.425367 
L 143.378096 616.108382 
L 149.151356 611.219697 
L 154.924615 608.633676 
L 160.697875 607.250012 
L 166.471135 606.505765 
L 178.017655 605.589149 
L 189.564174 604.313353 
L 201.110694 602.645215 
L 212.657214 600.610542 
L 224.203733 598.233464 
L 235.750253 595.537203 
L 247.296773 592.543682 
L 258.843292 589.27375 
L 270.389812 585.747718 
L 281.936332 581.984003 
L 293.482851 578.000869 
L 305.029371 573.814703 
L 316.575891 569.442744 
L 328.12241 564.899775 
L 345.44219 557.795793 
L 362.761969 550.385529 
L 380.081749 542.7116 
L 397.401528 534.812137 
L 420.494568 523.991974 
L 443.587607 512.911758 
L 472.453906 498.801385 
L 512.866725 478.766507 
L 587.919103 441.498237 
L 622.558662 424.560071 
L 651.424961 410.668231 
L 680.29126 397.025163 
L 709.15756 383.668165 
L 732.250599 373.206173 
L 755.343638 362.958952 
L 778.436678 352.928843 
L 801.529717 343.131372 
L 824.622756 333.566932 
L 847.715796 324.245696 
L 870.808835 315.163361 
L 893.901874 306.330246 
L 916.994914 297.733931 
L 940.087953 289.39171 
L 963.180992 281.287106 
L 986.274032 273.429273 
L 997.820551 269.591315 
L 997.820551 269.591315 
" clip-path="url(#paa6972a68f)" style="fill: none; stroke: #17becf; stroke-width: 5; stroke-linecap: round"/>
   </g>
   <g id="line2d_23">
    <path d="M 131.831576 649.175563 
L 137.604836 628.416792 
L 143.378096 617.675505 
L 149.151356 612.047752 
L 154.924615 609.075097 
L 160.697875 607.486858 
L 166.471135 606.633811 
L 183.790915 605.141211 
L 195.337434 603.709755 
L 206.883954 601.89625 
L 218.430474 599.725695 
L 229.976993 597.221913 
L 241.523513 594.407552 
L 253.070033 591.304431 
L 264.616552 587.932646 
L 276.163072 584.312117 
L 287.709592 580.460999 
L 299.256111 576.397161 
L 310.802631 572.137194 
L 322.349151 567.697034 
L 339.66893 560.731115 
L 356.98871 553.441019 
L 374.308489 545.869543 
L 391.628269 538.057496 
L 408.948048 530.0429 
L 432.041087 519.097768 
L 460.907387 505.104262 
L 495.546946 488.01767 
L 605.238882 433.628991 
L 639.878441 416.819144 
L 668.744741 403.060893 
L 697.61104 389.572497 
L 726.477339 376.389477 
L 749.570378 366.071643 
L 772.663418 355.977584 
L 795.756457 346.108547 
L 818.849496 336.469136 
L 841.942536 327.074387 
L 865.035575 317.917289 
L 888.128614 309.007108 
L 911.221654 300.341603 
L 934.314693 291.9181 
L 957.407732 283.74406 
L 980.500772 275.816846 
L 997.820551 270.020298 
L 997.820551 270.020298 
" clip-path="url(#paa6972a68f)" style="fill: none; stroke: #17becf; stroke-width: 5; stroke-linecap: round"/>
   </g>
   <g id="patch_3">
    <path d="M 88.532127 678.237256 
L 88.532127 38.88 
" style="fill: none; stroke: #262626; stroke-width: 0.8; stroke-linejoin: miter; stroke-linecap: square"/>
   </g>
   <g id="patch_4">
    <path d="M 88.532127 678.237256 
L 1041.12 678.237256 
" style="fill: none; stroke: #262626; stroke-width: 0.8; stroke-linejoin: miter; stroke-linecap: square"/>
   </g>
  </g>
 </g>
 <defs>
  <clipPath id="paa6972a68f">
   <rect x="88.532127" y="38.88" width="952.587873" height="639.357256"/>
  </clipPath>
 </defs>
</svg>
