<?xml version="1.0" encoding="utf-8" standalone="no"?>
<!DOCTYPE svg PUBLIC "-//W3C//DTD SVG 1.1//EN"
  "http://www.w3.org/Graphics/SVG/1.1/DTD/svg11.dtd">
<svg xmlns:xlink="http://www.w3.org/1999/xlink" width="1080pt" height="756pt" viewBox="0 0 1080 756" xmlns="http://www.w3.org/2000/svg" version="1.1">
 <metadata>
  <rdf:RDF xmlns:dc="http://purl.org/dc/elements/1.1/" xmlns:cc="http://creativecommons.org/ns#" xmlns:rdf="http://www.w3.org/1999/02/22-rdf-syntax-ns#">
   <cc:Work>
    <dc:type rdf:resource="http://purl.org/dc/dcmitype/StillImage"/>
    <dc:date>2024-07-31T14:16:34.093088</dc:date>
    <dc:format>image/svg+xml</dc:format>
    <dc:creator>
     <cc:Agent>
      <dc:title>Matplotlib v3.9.0, https://matplotlib.org/</dc:title>
     </cc:Agent>
    </dc:creator>
   </cc:Work>
  </rdf:RDF>
 </metadata>
 <defs>
  <style type="text/css">*{stroke-linejoin: round; stroke-linecap: butt}</style>
 </defs>
 <g id="figure_1">
  <g id="patch_1">
   <path d="M 0 756 
L 1080 756 
L 1080 0 
L 0 0 
z
" style="fill: #ffffff"/>
  </g>
  <g id="axes_1">
   <g id="patch_2">
    <path d="M 88.532127 678.237256 
L 1041.12 678.237256 
L 1041.12 38.88 
L 88.532127 38.88 
z
" style="fill: #ffffff"/>
   </g>
   <g id="matplotlib.axis_1">
    <g id="xtick_1">
     <g id="line2d_1">
      <defs>
       <path id="m29ed030268" d="M 0 0 
L 0 3.5 
" style="stroke: #262626; stroke-width: 0.8"/>
      </defs>
      <g>
       <use xlink:href="#m29ed030268" x="88.532127" y="678.237256" style="fill: #262626; stroke: #262626; stroke-width: 0.8"/>
      </g>
     </g>
     <g id="text_1">
      <!-- $\mathdefault{0.0}$ -->
      <g style="fill: #262626" transform="translate(67.206064 710.143856) scale(0.36 -0.36)">
       <defs>
        <path id="CMR17-30" d="M 2688 2025 
C 2688 2416 2682 3080 2413 3591 
C 2176 4039 1798 4198 1466 4198 
C 1158 4198 768 4058 525 3597 
C 269 3118 243 2524 243 2025 
C 243 1661 250 1106 448 619 
C 723 -39 1216 -128 1466 -128 
C 1760 -128 2208 -7 2470 600 
C 2662 1042 2688 1559 2688 2025 
z
M 1466 -26 
C 1056 -26 813 325 723 812 
C 653 1188 653 1738 653 2096 
C 653 2588 653 2997 736 3387 
C 858 3929 1216 4096 1466 4096 
C 1728 4096 2067 3923 2189 3400 
C 2272 3036 2278 2607 2278 2096 
C 2278 1680 2278 1169 2202 792 
C 2067 95 1690 -26 1466 -26 
z
" transform="scale(0.015625)"/>
        <path id="CMMI12-3a" d="M 1178 307 
C 1178 492 1024 619 870 619 
C 685 619 557 466 557 313 
C 557 128 710 0 864 0 
C 1050 0 1178 153 1178 307 
z
" transform="scale(0.015625)"/>
       </defs>
       <use xlink:href="#CMR17-30" transform="scale(0.996264)"/>
       <use xlink:href="#CMMI12-3a" transform="translate(45.690477 0) scale(0.996264)"/>
       <use xlink:href="#CMR17-30" transform="translate(72.787654 0) scale(0.996264)"/>
      </g>
     </g>
    </g>
    <g id="xtick_2">
     <g id="line2d_2">
      <g>
       <use xlink:href="#m29ed030268" x="269.977436" y="678.237256" style="fill: #262626; stroke: #262626; stroke-width: 0.8"/>
      </g>
     </g>
     <g id="text_2">
      <!-- $\mathdefault{0.2}$ -->
      <g style="fill: #262626" transform="translate(248.651373 710.143856) scale(0.36 -0.36)">
       <defs>
        <path id="CMR17-32" d="M 2669 989 
L 2554 989 
C 2490 536 2438 459 2413 420 
C 2381 369 1920 369 1830 369 
L 602 369 
C 832 619 1280 1072 1824 1597 
C 2214 1967 2669 2402 2669 3035 
C 2669 3790 2067 4224 1395 4224 
C 691 4224 262 3604 262 3030 
C 262 2780 448 2748 525 2748 
C 589 2748 781 2787 781 3010 
C 781 3207 614 3264 525 3264 
C 486 3264 448 3258 422 3245 
C 544 3790 915 4058 1306 4058 
C 1862 4058 2227 3617 2227 3035 
C 2227 2479 1901 2000 1536 1584 
L 262 146 
L 262 0 
L 2515 0 
L 2669 989 
z
" transform="scale(0.015625)"/>
       </defs>
       <use xlink:href="#CMR17-30" transform="scale(0.996264)"/>
       <use xlink:href="#CMMI12-3a" transform="translate(45.690477 0) scale(0.996264)"/>
       <use xlink:href="#CMR17-32" transform="translate(72.787654 0) scale(0.996264)"/>
      </g>
     </g>
    </g>
    <g id="xtick_3">
     <g id="line2d_3">
      <g>
       <use xlink:href="#m29ed030268" x="451.422745" y="678.237256" style="fill: #262626; stroke: #262626; stroke-width: 0.8"/>
      </g>
     </g>
     <g id="text_3">
      <!-- $\mathdefault{0.4}$ -->
      <g style="fill: #262626" transform="translate(430.096682 710.143856) scale(0.36 -0.36)">
       <defs>
        <path id="CMR17-34" d="M 2150 4122 
C 2150 4256 2144 4256 2029 4256 
L 128 1254 
L 128 1088 
L 1779 1088 
L 1779 457 
C 1779 224 1766 160 1318 160 
L 1197 160 
L 1197 0 
C 1402 0 1747 0 1965 0 
C 2182 0 2528 0 2733 0 
L 2733 160 
L 2611 160 
C 2163 160 2150 224 2150 457 
L 2150 1088 
L 2803 1088 
L 2803 1254 
L 2150 1254 
L 2150 4122 
z
M 1798 3703 
L 1798 1254 
L 256 1254 
L 1798 3703 
z
" transform="scale(0.015625)"/>
       </defs>
       <use xlink:href="#CMR17-30" transform="scale(0.996264)"/>
       <use xlink:href="#CMMI12-3a" transform="translate(45.690477 0) scale(0.996264)"/>
       <use xlink:href="#CMR17-34" transform="translate(72.787654 0) scale(0.996264)"/>
      </g>
     </g>
    </g>
    <g id="xtick_4">
     <g id="line2d_4">
      <g>
       <use xlink:href="#m29ed030268" x="632.868055" y="678.237256" style="fill: #262626; stroke: #262626; stroke-width: 0.8"/>
      </g>
     </g>
     <g id="text_4">
      <!-- $\mathdefault{0.6}$ -->
      <g style="fill: #262626" transform="translate(611.541991 710.143856) scale(0.36 -0.36)">
       <defs>
        <path id="CMR17-36" d="M 678 2176 
C 678 3690 1395 4032 1811 4032 
C 1946 4032 2272 4009 2400 3776 
C 2298 3776 2106 3776 2106 3553 
C 2106 3381 2246 3323 2336 3323 
C 2394 3323 2566 3348 2566 3560 
C 2566 3954 2246 4179 1805 4179 
C 1043 4179 243 3390 243 1984 
C 243 253 966 -128 1478 -128 
C 2099 -128 2688 427 2688 1283 
C 2688 2081 2170 2662 1517 2662 
C 1126 2662 838 2407 678 1960 
L 678 2176 
z
M 1478 25 
C 691 25 691 1200 691 1436 
C 691 1896 909 2560 1504 2560 
C 1613 2560 1926 2560 2138 2120 
C 2253 1870 2253 1609 2253 1289 
C 2253 944 2253 690 2118 434 
C 1978 171 1773 25 1478 25 
z
" transform="scale(0.015625)"/>
       </defs>
       <use xlink:href="#CMR17-30" transform="scale(0.996264)"/>
       <use xlink:href="#CMMI12-3a" transform="translate(45.690477 0) scale(0.996264)"/>
       <use xlink:href="#CMR17-36" transform="translate(72.787654 0) scale(0.996264)"/>
      </g>
     </g>
    </g>
    <g id="xtick_5">
     <g id="line2d_5">
      <g>
       <use xlink:href="#m29ed030268" x="814.313364" y="678.237256" style="fill: #262626; stroke: #262626; stroke-width: 0.8"/>
      </g>
     </g>
     <g id="text_5">
      <!-- $\mathdefault{0.8}$ -->
      <g style="fill: #262626" transform="translate(792.9873 710.143856) scale(0.36 -0.36)">
       <defs>
        <path id="CMR17-38" d="M 1741 2264 
C 2144 2467 2554 2773 2554 3263 
C 2554 3841 1990 4179 1472 4179 
C 890 4179 378 3759 378 3180 
C 378 3021 416 2747 666 2505 
C 730 2442 998 2251 1171 2130 
C 883 1983 211 1634 211 934 
C 211 279 838 -128 1459 -128 
C 2144 -128 2720 362 2720 1010 
C 2720 1590 2330 1857 2074 2029 
L 1741 2264 
z
M 902 2822 
C 851 2854 595 3051 595 3351 
C 595 3739 998 4032 1459 4032 
C 1965 4032 2336 3676 2336 3262 
C 2336 2669 1670 2331 1638 2331 
C 1632 2331 1626 2331 1574 2370 
L 902 2822 
z
M 2080 1519 
C 2176 1449 2483 1240 2483 851 
C 2483 381 2010 25 1472 25 
C 890 25 448 438 448 940 
C 448 1443 838 1862 1280 2060 
L 2080 1519 
z
" transform="scale(0.015625)"/>
       </defs>
       <use xlink:href="#CMR17-30" transform="scale(0.996264)"/>
       <use xlink:href="#CMMI12-3a" transform="translate(45.690477 0) scale(0.996264)"/>
       <use xlink:href="#CMR17-38" transform="translate(72.787654 0) scale(0.996264)"/>
      </g>
     </g>
    </g>
    <g id="xtick_6">
     <g id="line2d_6">
      <g>
       <use xlink:href="#m29ed030268" x="995.758673" y="678.237256" style="fill: #262626; stroke: #262626; stroke-width: 0.8"/>
      </g>
     </g>
     <g id="text_6">
      <!-- $\mathdefault{1.0}$ -->
      <g style="fill: #262626" transform="translate(974.432609 710.143856) scale(0.36 -0.36)">
       <defs>
        <path id="CMR17-31" d="M 1702 4058 
C 1702 4192 1696 4192 1606 4192 
C 1357 3916 979 3827 621 3827 
C 602 3827 570 3827 563 3808 
C 557 3795 557 3782 557 3648 
C 755 3648 1088 3686 1344 3839 
L 1344 461 
C 1344 236 1331 160 781 160 
L 589 160 
L 589 0 
C 896 0 1216 0 1523 0 
C 1830 0 2150 0 2458 0 
L 2458 160 
L 2266 160 
C 1715 160 1702 230 1702 458 
L 1702 4058 
z
" transform="scale(0.015625)"/>
       </defs>
       <use xlink:href="#CMR17-31" transform="scale(0.996264)"/>
       <use xlink:href="#CMMI12-3a" transform="translate(45.690477 0) scale(0.996264)"/>
       <use xlink:href="#CMR17-30" transform="translate(72.787654 0) scale(0.996264)"/>
      </g>
     </g>
    </g>
   </g>
   <g id="matplotlib.axis_2">
    <g id="ytick_1">
     <g id="line2d_7">
      <defs>
       <path id="mced7f4c5ef" d="M 0 0 
L -3.5 0 
" style="stroke: #262626; stroke-width: 0.8"/>
      </defs>
      <g>
       <use xlink:href="#mced7f4c5ef" x="88.532127" y="678.237256" style="fill: #262626; stroke: #262626; stroke-width: 0.8"/>
      </g>
     </g>
     <g id="text_7">
      <!-- $\mathdefault{0.0}$ -->
      <g style="fill: #262626" transform="translate(38.88 690.690556) scale(0.36 -0.36)">
       <use xlink:href="#CMR17-30" transform="scale(0.996264)"/>
       <use xlink:href="#CMMI12-3a" transform="translate(45.690477 0) scale(0.996264)"/>
       <use xlink:href="#CMR17-30" transform="translate(72.787654 0) scale(0.996264)"/>
      </g>
     </g>
    </g>
    <g id="ytick_2">
     <g id="line2d_8">
      <g>
       <use xlink:href="#mced7f4c5ef" x="88.532127" y="556.908261" style="fill: #262626; stroke: #262626; stroke-width: 0.8"/>
      </g>
     </g>
     <g id="text_8">
      <!-- $\mathdefault{0.2}$ -->
      <g style="fill: #262626" transform="translate(38.88 569.361561) scale(0.36 -0.36)">
       <use xlink:href="#CMR17-30" transform="scale(0.996264)"/>
       <use xlink:href="#CMMI12-3a" transform="translate(45.690477 0) scale(0.996264)"/>
       <use xlink:href="#CMR17-32" transform="translate(72.787654 0) scale(0.996264)"/>
      </g>
     </g>
    </g>
    <g id="ytick_3">
     <g id="line2d_9">
      <g>
       <use xlink:href="#mced7f4c5ef" x="88.532127" y="435.579266" style="fill: #262626; stroke: #262626; stroke-width: 0.8"/>
      </g>
     </g>
     <g id="text_9">
      <!-- $\mathdefault{0.4}$ -->
      <g style="fill: #262626" transform="translate(38.88 448.032566) scale(0.36 -0.36)">
       <use xlink:href="#CMR17-30" transform="scale(0.996264)"/>
       <use xlink:href="#CMMI12-3a" transform="translate(45.690477 0) scale(0.996264)"/>
       <use xlink:href="#CMR17-34" transform="translate(72.787654 0) scale(0.996264)"/>
      </g>
     </g>
    </g>
    <g id="ytick_4">
     <g id="line2d_10">
      <g>
       <use xlink:href="#mced7f4c5ef" x="88.532127" y="314.25027" style="fill: #262626; stroke: #262626; stroke-width: 0.8"/>
      </g>
     </g>
     <g id="text_10">
      <!-- $\mathdefault{0.6}$ -->
      <g style="fill: #262626" transform="translate(38.88 326.70357) scale(0.36 -0.36)">
       <use xlink:href="#CMR17-30" transform="scale(0.996264)"/>
       <use xlink:href="#CMMI12-3a" transform="translate(45.690477 0) scale(0.996264)"/>
       <use xlink:href="#CMR17-36" transform="translate(72.787654 0) scale(0.996264)"/>
      </g>
     </g>
    </g>
    <g id="ytick_5">
     <g id="line2d_11">
      <g>
       <use xlink:href="#mced7f4c5ef" x="88.532127" y="192.921275" style="fill: #262626; stroke: #262626; stroke-width: 0.8"/>
      </g>
     </g>
     <g id="text_11">
      <!-- $\mathdefault{0.8}$ -->
      <g style="fill: #262626" transform="translate(38.88 205.374575) scale(0.36 -0.36)">
       <use xlink:href="#CMR17-30" transform="scale(0.996264)"/>
       <use xlink:href="#CMMI12-3a" transform="translate(45.690477 0) scale(0.996264)"/>
       <use xlink:href="#CMR17-38" transform="translate(72.787654 0) scale(0.996264)"/>
      </g>
     </g>
    </g>
    <g id="ytick_6">
     <g id="line2d_12">
      <g>
       <use xlink:href="#mced7f4c5ef" x="88.532127" y="71.592279" style="fill: #262626; stroke: #262626; stroke-width: 0.8"/>
      </g>
     </g>
     <g id="text_12">
      <!-- $\mathdefault{1.0}$ -->
      <g style="fill: #262626" transform="translate(38.88 84.04558) scale(0.36 -0.36)">
       <use xlink:href="#CMR17-31" transform="scale(0.996264)"/>
       <use xlink:href="#CMMI12-3a" transform="translate(45.690477 0) scale(0.996264)"/>
       <use xlink:href="#CMR17-30" transform="translate(72.787654 0) scale(0.996264)"/>
      </g>
     </g>
    </g>
   </g>
   <g id="line2d_13">
    <path d="M 88.532127 71.592279 
L 995.758673 71.592279 
L 995.758673 71.592279 
" clip-path="url(#pcf63e2a6f4)" style="fill: none; stroke: #1f77b4; stroke-width: 5; stroke-linecap: round"/>
   </g>
   <g id="line2d_14">
    <path d="M 88.532127 677.416886 
L 94.580304 676.888432 
L 100.628481 676.24155 
L 112.724835 674.608972 
L 124.821189 672.548831 
L 136.917543 670.08883 
L 149.013897 667.255437 
L 161.110251 664.073159 
L 173.206605 660.566634 
L 185.302959 656.758481 
L 197.399313 652.670684 
L 209.495667 648.323942 
L 221.592021 643.737941 
L 233.688375 638.93191 
L 245.784728 633.923206 
L 257.881082 628.728925 
L 276.025613 620.623948 
L 294.170144 612.188034 
L 312.314675 603.467315 
L 330.459206 594.505125 
L 354.651914 582.247769 
L 378.844622 569.714805 
L 409.085507 553.777344 
L 457.470922 527.94592 
L 517.952692 495.648043 
L 554.241754 476.519262 
L 584.482639 460.817389 
L 608.675347 448.445689 
L 638.916232 433.262721 
L 663.108939 421.361521 
L 687.301647 409.687859 
L 711.494355 398.261934 
L 735.687063 387.088072 
L 759.879771 376.179442 
L 784.072479 365.531948 
L 808.265187 355.160189 
L 832.457895 345.063374 
L 856.650602 335.244839 
L 880.84331 325.704093 
L 905.036018 316.434758 
L 929.228726 307.440517 
L 953.421434 298.721006 
L 977.614142 290.27112 
L 995.758673 284.116244 
L 995.758673 284.116244 
" clip-path="url(#pcf63e2a6f4)" style="fill: none; stroke: #2ca02c; stroke-width: 5; stroke-linecap: round"/>
   </g>
   <g id="line2d_15">
    <path d="M 88.532127 687.756055 
L 94.580304 682.626103 
L 100.628481 679.92996 
L 106.676658 678.495283 
L 112.724835 677.725789 
L 124.821189 676.688226 
L 130.869366 676.009943 
L 142.96572 674.316527 
L 155.062074 672.198268 
L 167.158428 669.683156 
L 179.254782 666.797678 
L 191.351136 663.567127 
L 203.44749 660.015484 
L 215.543844 656.165971 
L 227.640198 652.039797 
L 239.736552 647.658136 
L 251.832905 643.040148 
L 263.929259 638.204857 
L 276.025613 633.169702 
L 288.121967 627.951539 
L 306.266498 619.815539 
L 324.411029 611.353535 
L 342.55556 602.611122 
L 360.700091 593.631353 
L 384.892799 581.356558 
L 409.085507 568.812832 
L 439.326392 552.8683 
L 487.711807 527.039332 
L 548.193577 494.766492 
L 584.482639 475.654242 
L 614.723524 459.971861 
L 644.964408 444.563809 
L 675.205293 429.468992 
L 699.398001 417.642765 
L 723.590709 406.05384 
L 747.783417 394.709307 
L 771.976125 383.623023 
L 796.168833 372.805402 
L 820.361541 362.246549 
L 844.554248 351.96587 
L 868.746956 341.959959 
L 892.939664 332.235053 
L 917.132372 322.778571 
L 941.32508 313.608037 
L 959.469611 306.898527 
L 983.662319 298.200249 
L 995.758673 293.952195 
L 995.758673 293.952195 
" clip-path="url(#pcf63e2a6f4)" style="fill: none; stroke: #9467bd; stroke-width: 5; stroke-linecap: round"/>
   </g>
   <g id="line2d_16">
    <path d="M 88.532127 700.127574 
L 94.580304 689.107562 
L 100.628481 683.361173 
L 106.676658 680.327207 
L 112.724835 678.712407 
L 118.773012 677.843102 
L 130.869366 676.809904 
L 136.917543 676.155095 
L 149.013897 674.506529 
L 161.110251 672.430036 
L 173.206605 669.954039 
L 185.302959 667.105043 
L 197.399313 663.908591 
L 209.495667 660.388753 
L 221.592021 656.568469 
L 233.688375 652.470089 
L 245.784728 648.113844 
L 257.881082 643.519653 
L 269.977436 638.70571 
L 282.07379 633.69082 
L 294.170144 628.49134 
L 312.314675 620.380164 
L 330.459206 611.939304 
L 348.603737 603.216179 
L 366.748268 594.251938 
L 390.940976 581.994351 
L 415.133684 569.463817 
L 445.374568 553.531843 
L 493.759984 527.711341 
L 554.241754 495.433286 
L 590.530816 476.317718 
L 620.771701 460.626253 
L 651.012585 445.207973 
L 675.205293 433.094642 
L 699.398001 421.202979 
L 723.590709 409.539014 
L 747.783417 398.121389 
L 771.976125 386.957292 
L 796.168833 376.059266 
L 820.361541 365.419378 
L 844.554248 355.057061 
L 868.746956 344.968265 
L 892.939664 335.157142 
L 917.132372 325.625188 
L 935.276903 318.65123 
L 959.469611 309.603749 
L 977.614142 302.985673 
L 995.758673 296.532558 
L 995.758673 296.532558 
" clip-path="url(#pcf63e2a6f4)" style="fill: none; stroke: #e377c2; stroke-width: 5; stroke-linecap: round"/>
   </g>
   <g id="line2d_17">
    <path d="M 88.532127 712.893786 
L 94.580304 695.756055 
L 100.628481 686.860105 
L 106.676658 682.184405 
L 112.724835 679.706892 
L 118.773012 678.37907 
L 124.821189 677.663558 
L 136.917543 676.617179 
L 142.96572 675.92631 
L 155.062074 674.208911 
L 167.158428 672.068341 
L 179.254782 669.532407 
L 191.351136 666.627614 
L 203.44749 663.379148 
L 215.543844 659.811298 
L 227.640198 655.946393 
L 239.736552 651.806563 
L 251.832905 647.411976 
L 263.929259 642.782693 
L 276.025613 637.936843 
L 288.121967 632.892299 
L 300.218321 627.665611 
L 318.362852 619.518266 
L 336.507383 611.046866 
L 354.651914 602.297245 
L 372.796445 593.311355 
L 396.989153 581.030033 
L 421.181861 568.482715 
L 451.422745 552.536068 
L 499.808161 526.709521 
L 560.289931 494.443357 
L 596.578993 475.340803 
L 626.819878 459.665967 
L 657.060762 444.266018 
L 687.301647 429.181045 
L 711.494355 417.362485 
L 735.687063 405.779992 
L 759.879771 394.444661 
L 784.072479 383.36604 
L 808.265187 372.554596 
L 832.457895 362.005651 
L 856.650602 351.733606 
L 880.84331 341.735454 
L 905.036018 332.01727 
L 929.228726 322.570306 
L 953.421434 313.40715 
L 971.565965 306.703819 
L 995.758673 298.013768 
L 995.758673 298.013768 
" clip-path="url(#pcf63e2a6f4)" style="fill: none; stroke: #bcbd22; stroke-width: 5; stroke-linecap: round"/>
   </g>
   <g id="line2d_18">
    <path d="M 88.532127 725.837868 
L 94.580304 702.471483 
L 100.628481 690.38093 
L 106.676658 684.046246 
L 112.724835 680.700181 
L 118.773012 678.912435 
L 124.821189 677.952232 
L 142.96572 676.27214 
L 155.062074 674.660871 
L 167.158428 672.619563 
L 179.254782 670.176354 
L 191.351136 667.358059 
L 203.44749 664.190171 
L 215.543844 660.697252 
L 227.640198 656.90192 
L 239.736552 652.826598 
L 251.832905 648.491722 
L 263.929259 643.917405 
L 276.025613 639.122322 
L 288.121967 634.12441 
L 300.218321 628.940183 
L 318.362852 620.850097 
L 336.507383 612.427951 
L 354.651914 603.720615 
L 372.796445 594.770387 
L 396.989153 582.527111 
L 421.181861 570.008848 
L 451.422745 554.085554 
L 493.759984 531.509806 
L 566.338108 492.788878 
L 602.62717 473.711908 
L 632.868055 458.064051 
L 663.108939 442.695847 
L 687.301647 430.631194 
L 711.494355 418.785745 
L 735.687063 407.171837 
L 759.879771 395.809812 
L 784.072479 384.701075 
L 808.265187 373.850809 
L 832.457895 363.275938 
L 856.650602 352.968571 
L 880.84331 342.939137 
L 905.036018 333.185114 
L 929.228726 323.703493 
L 953.421434 314.502671 
L 977.614142 305.579679 
L 995.758673 299.054997 
L 995.758673 299.054997 
" clip-path="url(#pcf63e2a6f4)" style="fill: none; stroke: #17becf; stroke-width: 5; stroke-linecap: round"/>
   </g>
   <g id="patch_3">
    <path d="M 88.532127 678.237256 
L 88.532127 38.88 
" style="fill: none; stroke: #262626; stroke-width: 0.8; stroke-linejoin: miter; stroke-linecap: square"/>
   </g>
   <g id="patch_4">
    <path d="M 88.532127 678.237256 
L 1041.12 678.237256 
" style="fill: none; stroke: #262626; stroke-width: 0.8; stroke-linejoin: miter; stroke-linecap: square"/>
   </g>
  </g>
 </g>
 <defs>
  <clipPath id="pcf63e2a6f4">
   <rect x="88.532127" y="38.88" width="952.587873" height="639.357256"/>
  </clipPath>
 </defs>
</svg>
