<?xml version="1.0" encoding="utf-8" standalone="no"?>
<!DOCTYPE svg PUBLIC "-//W3C//DTD SVG 1.1//EN"
  "http://www.w3.org/Graphics/SVG/1.1/DTD/svg11.dtd">
<svg xmlns:xlink="http://www.w3.org/1999/xlink" width="1080pt" height="756pt" viewBox="0 0 1080 756" xmlns="http://www.w3.org/2000/svg" version="1.1">
 <metadata>
  <rdf:RDF xmlns:dc="http://purl.org/dc/elements/1.1/" xmlns:cc="http://creativecommons.org/ns#" xmlns:rdf="http://www.w3.org/1999/02/22-rdf-syntax-ns#">
   <cc:Work>
    <dc:type rdf:resource="http://purl.org/dc/dcmitype/StillImage"/>
    <dc:date>2024-07-30T20:15:15.290914</dc:date>
    <dc:format>image/svg+xml</dc:format>
    <dc:creator>
     <cc:Agent>
      <dc:title>Matplotlib v3.9.0, https://matplotlib.org/</dc:title>
     </cc:Agent>
    </dc:creator>
   </cc:Work>
  </rdf:RDF>
 </metadata>
 <defs>
  <style type="text/css">*{stroke-linejoin: round; stroke-linecap: butt}</style>
 </defs>
 <g id="figure_1">
  <g id="patch_1">
   <path d="M 0 756 
L 1080 756 
L 1080 0 
L 0 0 
z
" style="fill: #ffffff"/>
  </g>
  <g id="axes_1">
   <g id="patch_2">
    <path d="M 88.532127 678.237256 
L 1041.12 678.237256 
L 1041.12 38.88 
L 88.532127 38.88 
z
" style="fill: #ffffff"/>
   </g>
   <g id="matplotlib.axis_1">
    <g id="xtick_1">
     <g id="line2d_1">
      <defs>
       <path id="m7eac48dc3c" d="M 0 0 
L 0 3.5 
" style="stroke: #262626; stroke-width: 0.8"/>
      </defs>
      <g>
       <use xlink:href="#m7eac48dc3c" x="131.831576" y="678.237256" style="fill: #262626; stroke: #262626; stroke-width: 0.8"/>
      </g>
     </g>
     <g id="text_1">
      <!-- $\mathdefault{0.0}$ -->
      <g style="fill: #262626" transform="translate(110.505512 710.143856) scale(0.36 -0.36)">
       <defs>
        <path id="CMR17-30" d="M 2688 2025 
C 2688 2416 2682 3080 2413 3591 
C 2176 4039 1798 4198 1466 4198 
C 1158 4198 768 4058 525 3597 
C 269 3118 243 2524 243 2025 
C 243 1661 250 1106 448 619 
C 723 -39 1216 -128 1466 -128 
C 1760 -128 2208 -7 2470 600 
C 2662 1042 2688 1559 2688 2025 
z
M 1466 -26 
C 1056 -26 813 325 723 812 
C 653 1188 653 1738 653 2096 
C 653 2588 653 2997 736 3387 
C 858 3929 1216 4096 1466 4096 
C 1728 4096 2067 3923 2189 3400 
C 2272 3036 2278 2607 2278 2096 
C 2278 1680 2278 1169 2202 792 
C 2067 95 1690 -26 1466 -26 
z
" transform="scale(0.015625)"/>
        <path id="CMMI12-3a" d="M 1178 307 
C 1178 492 1024 619 870 619 
C 685 619 557 466 557 313 
C 557 128 710 0 864 0 
C 1050 0 1178 153 1178 307 
z
" transform="scale(0.015625)"/>
       </defs>
       <use xlink:href="#CMR17-30" transform="scale(0.996264)"/>
       <use xlink:href="#CMMI12-3a" transform="translate(45.690477 0) scale(0.996264)"/>
       <use xlink:href="#CMR17-30" transform="translate(72.787654 0) scale(0.996264)"/>
      </g>
     </g>
    </g>
    <g id="xtick_2">
     <g id="line2d_2">
      <g>
       <use xlink:href="#m7eac48dc3c" x="305.029371" y="678.237256" style="fill: #262626; stroke: #262626; stroke-width: 0.8"/>
      </g>
     </g>
     <g id="text_2">
      <!-- $\mathdefault{0.2}$ -->
      <g style="fill: #262626" transform="translate(283.703307 710.143856) scale(0.36 -0.36)">
       <defs>
        <path id="CMR17-32" d="M 2669 989 
L 2554 989 
C 2490 536 2438 459 2413 420 
C 2381 369 1920 369 1830 369 
L 602 369 
C 832 619 1280 1072 1824 1597 
C 2214 1967 2669 2402 2669 3035 
C 2669 3790 2067 4224 1395 4224 
C 691 4224 262 3604 262 3030 
C 262 2780 448 2748 525 2748 
C 589 2748 781 2787 781 3010 
C 781 3207 614 3264 525 3264 
C 486 3264 448 3258 422 3245 
C 544 3790 915 4058 1306 4058 
C 1862 4058 2227 3617 2227 3035 
C 2227 2479 1901 2000 1536 1584 
L 262 146 
L 262 0 
L 2515 0 
L 2669 989 
z
" transform="scale(0.015625)"/>
       </defs>
       <use xlink:href="#CMR17-30" transform="scale(0.996264)"/>
       <use xlink:href="#CMMI12-3a" transform="translate(45.690477 0) scale(0.996264)"/>
       <use xlink:href="#CMR17-32" transform="translate(72.787654 0) scale(0.996264)"/>
      </g>
     </g>
    </g>
    <g id="xtick_3">
     <g id="line2d_3">
      <g>
       <use xlink:href="#m7eac48dc3c" x="478.227166" y="678.237256" style="fill: #262626; stroke: #262626; stroke-width: 0.8"/>
      </g>
     </g>
     <g id="text_3">
      <!-- $\mathdefault{0.4}$ -->
      <g style="fill: #262626" transform="translate(456.901102 710.143856) scale(0.36 -0.36)">
       <defs>
        <path id="CMR17-34" d="M 2150 4122 
C 2150 4256 2144 4256 2029 4256 
L 128 1254 
L 128 1088 
L 1779 1088 
L 1779 457 
C 1779 224 1766 160 1318 160 
L 1197 160 
L 1197 0 
C 1402 0 1747 0 1965 0 
C 2182 0 2528 0 2733 0 
L 2733 160 
L 2611 160 
C 2163 160 2150 224 2150 457 
L 2150 1088 
L 2803 1088 
L 2803 1254 
L 2150 1254 
L 2150 4122 
z
M 1798 3703 
L 1798 1254 
L 256 1254 
L 1798 3703 
z
" transform="scale(0.015625)"/>
       </defs>
       <use xlink:href="#CMR17-30" transform="scale(0.996264)"/>
       <use xlink:href="#CMMI12-3a" transform="translate(45.690477 0) scale(0.996264)"/>
       <use xlink:href="#CMR17-34" transform="translate(72.787654 0) scale(0.996264)"/>
      </g>
     </g>
    </g>
    <g id="xtick_4">
     <g id="line2d_4">
      <g>
       <use xlink:href="#m7eac48dc3c" x="651.424961" y="678.237256" style="fill: #262626; stroke: #262626; stroke-width: 0.8"/>
      </g>
     </g>
     <g id="text_4">
      <!-- $\mathdefault{0.6}$ -->
      <g style="fill: #262626" transform="translate(630.098898 710.143856) scale(0.36 -0.36)">
       <defs>
        <path id="CMR17-36" d="M 678 2176 
C 678 3690 1395 4032 1811 4032 
C 1946 4032 2272 4009 2400 3776 
C 2298 3776 2106 3776 2106 3553 
C 2106 3381 2246 3323 2336 3323 
C 2394 3323 2566 3348 2566 3560 
C 2566 3954 2246 4179 1805 4179 
C 1043 4179 243 3390 243 1984 
C 243 253 966 -128 1478 -128 
C 2099 -128 2688 427 2688 1283 
C 2688 2081 2170 2662 1517 2662 
C 1126 2662 838 2407 678 1960 
L 678 2176 
z
M 1478 25 
C 691 25 691 1200 691 1436 
C 691 1896 909 2560 1504 2560 
C 1613 2560 1926 2560 2138 2120 
C 2253 1870 2253 1609 2253 1289 
C 2253 944 2253 690 2118 434 
C 1978 171 1773 25 1478 25 
z
" transform="scale(0.015625)"/>
       </defs>
       <use xlink:href="#CMR17-30" transform="scale(0.996264)"/>
       <use xlink:href="#CMMI12-3a" transform="translate(45.690477 0) scale(0.996264)"/>
       <use xlink:href="#CMR17-36" transform="translate(72.787654 0) scale(0.996264)"/>
      </g>
     </g>
    </g>
    <g id="xtick_5">
     <g id="line2d_5">
      <g>
       <use xlink:href="#m7eac48dc3c" x="824.622756" y="678.237256" style="fill: #262626; stroke: #262626; stroke-width: 0.8"/>
      </g>
     </g>
     <g id="text_5">
      <!-- $\mathdefault{0.8}$ -->
      <g style="fill: #262626" transform="translate(803.296693 710.143856) scale(0.36 -0.36)">
       <defs>
        <path id="CMR17-38" d="M 1741 2264 
C 2144 2467 2554 2773 2554 3263 
C 2554 3841 1990 4179 1472 4179 
C 890 4179 378 3759 378 3180 
C 378 3021 416 2747 666 2505 
C 730 2442 998 2251 1171 2130 
C 883 1983 211 1634 211 934 
C 211 279 838 -128 1459 -128 
C 2144 -128 2720 362 2720 1010 
C 2720 1590 2330 1857 2074 2029 
L 1741 2264 
z
M 902 2822 
C 851 2854 595 3051 595 3351 
C 595 3739 998 4032 1459 4032 
C 1965 4032 2336 3676 2336 3262 
C 2336 2669 1670 2331 1638 2331 
C 1632 2331 1626 2331 1574 2370 
L 902 2822 
z
M 2080 1519 
C 2176 1449 2483 1240 2483 851 
C 2483 381 2010 25 1472 25 
C 890 25 448 438 448 940 
C 448 1443 838 1862 1280 2060 
L 2080 1519 
z
" transform="scale(0.015625)"/>
       </defs>
       <use xlink:href="#CMR17-30" transform="scale(0.996264)"/>
       <use xlink:href="#CMMI12-3a" transform="translate(45.690477 0) scale(0.996264)"/>
       <use xlink:href="#CMR17-38" transform="translate(72.787654 0) scale(0.996264)"/>
      </g>
     </g>
    </g>
    <g id="xtick_6">
     <g id="line2d_6">
      <g>
       <use xlink:href="#m7eac48dc3c" x="997.820551" y="678.237256" style="fill: #262626; stroke: #262626; stroke-width: 0.8"/>
      </g>
     </g>
     <g id="text_6">
      <!-- $\mathdefault{1.0}$ -->
      <g style="fill: #262626" transform="translate(976.494488 710.143856) scale(0.36 -0.36)">
       <defs>
        <path id="CMR17-31" d="M 1702 4058 
C 1702 4192 1696 4192 1606 4192 
C 1357 3916 979 3827 621 3827 
C 602 3827 570 3827 563 3808 
C 557 3795 557 3782 557 3648 
C 755 3648 1088 3686 1344 3839 
L 1344 461 
C 1344 236 1331 160 781 160 
L 589 160 
L 589 0 
C 896 0 1216 0 1523 0 
C 1830 0 2150 0 2458 0 
L 2458 160 
L 2266 160 
C 1715 160 1702 230 1702 458 
L 1702 4058 
z
" transform="scale(0.015625)"/>
       </defs>
       <use xlink:href="#CMR17-31" transform="scale(0.996264)"/>
       <use xlink:href="#CMMI12-3a" transform="translate(45.690477 0) scale(0.996264)"/>
       <use xlink:href="#CMR17-30" transform="translate(72.787654 0) scale(0.996264)"/>
      </g>
     </g>
    </g>
   </g>
   <g id="matplotlib.axis_2">
    <g id="ytick_1">
     <g id="line2d_7">
      <defs>
       <path id="m0867637189" d="M 0 0 
L -3.5 0 
" style="stroke: #262626; stroke-width: 0.8"/>
      </defs>
      <g>
       <use xlink:href="#m0867637189" x="88.532127" y="610.34837" style="fill: #262626; stroke: #262626; stroke-width: 0.8"/>
      </g>
     </g>
     <g id="text_7">
      <!-- $\mathdefault{0.0}$ -->
      <g style="fill: #262626" transform="translate(38.88 622.80167) scale(0.36 -0.36)">
       <use xlink:href="#CMR17-30" transform="scale(0.996264)"/>
       <use xlink:href="#CMMI12-3a" transform="translate(45.690477 0) scale(0.996264)"/>
       <use xlink:href="#CMR17-30" transform="translate(72.787654 0) scale(0.996264)"/>
      </g>
     </g>
    </g>
    <g id="ytick_2">
     <g id="line2d_8">
      <g>
       <use xlink:href="#m0867637189" x="88.532127" y="501.867035" style="fill: #262626; stroke: #262626; stroke-width: 0.8"/>
      </g>
     </g>
     <g id="text_8">
      <!-- $\mathdefault{0.2}$ -->
      <g style="fill: #262626" transform="translate(38.88 514.320335) scale(0.36 -0.36)">
       <use xlink:href="#CMR17-30" transform="scale(0.996264)"/>
       <use xlink:href="#CMMI12-3a" transform="translate(45.690477 0) scale(0.996264)"/>
       <use xlink:href="#CMR17-32" transform="translate(72.787654 0) scale(0.996264)"/>
      </g>
     </g>
    </g>
    <g id="ytick_3">
     <g id="line2d_9">
      <g>
       <use xlink:href="#m0867637189" x="88.532127" y="393.385699" style="fill: #262626; stroke: #262626; stroke-width: 0.8"/>
      </g>
     </g>
     <g id="text_9">
      <!-- $\mathdefault{0.4}$ -->
      <g style="fill: #262626" transform="translate(38.88 405.839) scale(0.36 -0.36)">
       <use xlink:href="#CMR17-30" transform="scale(0.996264)"/>
       <use xlink:href="#CMMI12-3a" transform="translate(45.690477 0) scale(0.996264)"/>
       <use xlink:href="#CMR17-34" transform="translate(72.787654 0) scale(0.996264)"/>
      </g>
     </g>
    </g>
    <g id="ytick_4">
     <g id="line2d_10">
      <g>
       <use xlink:href="#m0867637189" x="88.532127" y="284.904364" style="fill: #262626; stroke: #262626; stroke-width: 0.8"/>
      </g>
     </g>
     <g id="text_10">
      <!-- $\mathdefault{0.6}$ -->
      <g style="fill: #262626" transform="translate(38.88 297.357664) scale(0.36 -0.36)">
       <use xlink:href="#CMR17-30" transform="scale(0.996264)"/>
       <use xlink:href="#CMMI12-3a" transform="translate(45.690477 0) scale(0.996264)"/>
       <use xlink:href="#CMR17-36" transform="translate(72.787654 0) scale(0.996264)"/>
      </g>
     </g>
    </g>
    <g id="ytick_5">
     <g id="line2d_11">
      <g>
       <use xlink:href="#m0867637189" x="88.532127" y="176.423029" style="fill: #262626; stroke: #262626; stroke-width: 0.8"/>
      </g>
     </g>
     <g id="text_11">
      <!-- $\mathdefault{0.8}$ -->
      <g style="fill: #262626" transform="translate(38.88 188.876329) scale(0.36 -0.36)">
       <use xlink:href="#CMR17-30" transform="scale(0.996264)"/>
       <use xlink:href="#CMMI12-3a" transform="translate(45.690477 0) scale(0.996264)"/>
       <use xlink:href="#CMR17-38" transform="translate(72.787654 0) scale(0.996264)"/>
      </g>
     </g>
    </g>
    <g id="ytick_6">
     <g id="line2d_12">
      <g>
       <use xlink:href="#m0867637189" x="88.532127" y="67.941693" style="fill: #262626; stroke: #262626; stroke-width: 0.8"/>
      </g>
     </g>
     <g id="text_12">
      <!-- $\mathdefault{1.0}$ -->
      <g style="fill: #262626" transform="translate(38.88 80.394994) scale(0.36 -0.36)">
       <use xlink:href="#CMR17-31" transform="scale(0.996264)"/>
       <use xlink:href="#CMMI12-3a" transform="translate(45.690477 0) scale(0.996264)"/>
       <use xlink:href="#CMR17-30" transform="translate(72.787654 0) scale(0.996264)"/>
      </g>
     </g>
    </g>
   </g>
   <g id="line2d_13">
    <path d="M 131.831576 67.941693 
L 997.820551 67.941693 
L 997.820551 67.941693 
" clip-path="url(#p8320847a81)" style="fill: none; stroke: #1f77b4; stroke-width: 5; stroke-linecap: round"/>
   </g>
   <g id="line2d_14">
    <path d="M 131.831576 593.242561 
L 143.378096 589.71175 
L 154.924615 585.938248 
L 166.471135 581.940574 
L 178.017655 577.736001 
L 189.564174 573.34123 
L 201.110694 568.77156 
L 218.430474 561.622062 
L 235.750253 554.159446 
L 253.070033 546.427149 
L 270.389812 538.465122 
L 293.482851 527.553002 
L 316.575891 516.375996 
L 345.44219 502.135187 
L 385.855009 481.911 
L 466.680646 441.409456 
L 501.320205 424.343621 
L 530.186505 410.361962 
L 559.052804 396.636293 
L 587.919103 383.206484 
L 611.012142 372.693968 
L 634.105182 362.397009 
L 657.198221 352.32669 
L 680.29126 342.489719 
L 703.3843 332.893483 
L 726.477339 323.539361 
L 749.570378 314.434681 
L 772.663418 305.57428 
L 795.756457 296.971401 
L 813.076237 290.66892 
L 836.169276 282.493509 
L 859.262315 274.56289 
L 888.128614 264.9946 
L 911.221654 257.608368 
L 934.314693 250.463199 
L 957.407732 243.542703 
L 980.500772 236.853094 
L 997.820551 231.983768 
L 997.820551 231.983768 
" clip-path="url(#p8320847a81)" style="fill: none; stroke: #ff7f0e; stroke-width: 5; stroke-linecap: round"/>
   </g>
   <g id="line2d_15">
    <path d="M 131.831576 610.300863 
L 149.151356 608.911086 
L 160.697875 607.573464 
L 172.244395 605.842837 
L 183.790915 603.744647 
L 195.337434 601.30368 
L 206.883954 598.543314 
L 218.430474 595.485652 
L 229.976993 592.151871 
L 241.523513 588.562438 
L 253.070033 584.735551 
L 264.616552 580.689885 
L 276.163072 576.442182 
L 287.709592 572.009041 
L 299.256111 567.405472 
L 316.575891 560.213093 
L 333.89567 552.716137 
L 351.21545 544.956906 
L 368.535229 536.975038 
L 391.628269 526.047457 
L 414.721308 514.863636 
L 443.587607 500.628835 
L 484.000426 480.430301 
L 553.279544 445.75451 
L 587.919103 428.657321 
L 616.785402 414.628298 
L 645.651701 400.846698 
L 674.518 387.349802 
L 697.61104 376.776414 
L 720.704079 366.413207 
L 743.797119 356.274996 
L 766.890158 346.360504 
L 789.983197 336.68617 
L 813.076237 327.253214 
L 836.169276 318.068436 
L 859.262315 309.124897 
L 882.355355 300.436857 
L 905.448394 291.986111 
L 928.541433 283.785874 
L 951.634473 275.833895 
L 974.727512 268.128896 
L 992.047291 262.497201 
L 997.820551 260.649953 
L 997.820551 260.649953 
" clip-path="url(#p8320847a81)" style="fill: none; stroke: #2ca02c; stroke-width: 5; stroke-linecap: round"/>
   </g>
   <g id="line2d_16">
    <path d="M 131.831576 614.354341 
L 137.604836 611.817803 
L 143.378096 610.578895 
L 149.151356 609.968425 
L 160.697875 609.118243 
L 172.244395 607.859936 
L 183.790915 606.203306 
L 195.337434 604.174614 
L 206.883954 601.798713 
L 218.430474 599.099103 
L 229.976993 596.098226 
L 241.523513 592.817835 
L 253.070033 589.277329 
L 264.616552 585.496563 
L 276.163072 581.493281 
L 287.709592 577.285214 
L 299.256111 572.888329 
L 310.802631 568.318858 
L 328.12241 561.171263 
L 345.44219 553.713886 
L 362.761969 545.989334 
L 380.081749 538.036636 
L 403.174788 527.141416 
L 426.267828 515.983164 
L 455.134127 501.770916 
L 495.546946 481.589072 
L 570.599323 444.044002 
L 605.238882 426.976379 
L 634.105182 412.978205 
L 662.971481 399.232931 
L 691.83778 385.773457 
L 714.930819 375.233108 
L 738.023859 364.905637 
L 761.116898 354.799061 
L 784.209937 344.92868 
L 807.302977 335.295376 
L 830.396016 325.898431 
L 853.489055 316.74431 
L 876.582095 307.847744 
L 899.675134 299.185853 
L 922.768173 290.777445 
L 945.861213 282.615897 
L 968.954252 274.699453 
L 992.047291 267.028736 
L 997.820551 265.145514 
L 997.820551 265.145514 
" clip-path="url(#p8320847a81)" style="fill: none; stroke: #d62728; stroke-width: 5; stroke-linecap: round"/>
   </g>
   <g id="line2d_17">
    <path d="M 131.831576 619.040251 
L 137.604836 614.093278 
L 143.378096 611.693732 
L 149.151356 610.519421 
L 154.924615 609.939133 
L 166.471135 609.081198 
L 178.017655 607.808877 
L 189.564174 606.139392 
L 201.110694 604.0987 
L 212.657214 601.711684 
L 224.203733 599.001981 
L 235.750253 595.991871 
L 247.296773 592.702735 
L 258.843292 589.15448 
L 270.389812 585.366692 
L 281.936332 581.356935 
L 293.482851 577.143 
L 305.029371 572.7406 
L 316.575891 568.166076 
L 333.89567 561.012365 
L 351.21545 553.549473 
L 368.535229 545.820584 
L 385.855009 537.864426 
L 408.948048 526.965242 
L 432.041087 515.805185 
L 460.907387 501.591875 
L 501.320205 481.409419 
L 576.372583 443.869113 
L 611.012142 426.807556 
L 639.878441 412.812779 
L 668.744741 399.07158 
L 697.61104 385.617285 
L 720.704079 375.082062 
L 743.797119 364.758385 
L 766.890158 354.655496 
L 789.983197 344.790229 
L 813.076237 335.160377 
L 836.169276 325.76899 
L 859.262315 316.618428 
L 882.355355 307.725059 
L 905.448394 299.068404 
L 928.541433 290.664186 
L 951.634473 282.506924 
L 974.727512 274.594071 
L 997.820551 266.926965 
L 997.820551 266.926965 
" clip-path="url(#p8320847a81)" style="fill: none; stroke: #9467bd; stroke-width: 5; stroke-linecap: round"/>
   </g>
   <g id="line2d_18">
    <path d="M 131.831576 623.917523 
L 137.604836 616.448924 
L 143.378096 612.841694 
L 149.151356 611.083802 
L 154.924615 610.218761 
L 172.244395 608.842282 
L 183.790915 607.482466 
L 195.337434 605.731295 
L 206.883954 603.614553 
L 218.430474 601.156642 
L 229.976993 598.380873 
L 241.523513 595.309781 
L 253.070033 591.96357 
L 264.616552 588.362864 
L 276.163072 584.526108 
L 287.709592 580.471696 
L 299.256111 576.216361 
L 310.802631 571.77672 
L 322.349151 567.167362 
L 339.66893 559.967592 
L 356.98871 552.465079 
L 374.308489 544.701583 
L 391.628269 536.717119 
L 414.721308 525.787253 
L 437.814347 514.603442 
L 466.680646 500.370845 
L 507.093465 480.178991 
L 576.372583 445.519051 
L 611.012142 428.433949 
L 639.878441 414.414045 
L 668.744741 400.642247 
L 697.61104 387.155317 
L 726.477339 373.979262 
L 749.570378 363.679667 
L 772.663418 353.605525 
L 795.756457 343.760638 
L 818.849496 334.152791 
L 841.942536 324.790312 
L 865.035575 315.673273 
L 888.128614 306.797556 
L 911.221654 298.172562 
L 934.314693 289.797635 
L 957.407732 281.666824 
L 980.500772 273.77803 
L 997.820551 268.03189 
L 997.820551 268.03189 
" clip-path="url(#p8320847a81)" style="fill: none; stroke: #8c564b; stroke-width: 5; stroke-linecap: round"/>
   </g>
   <g id="line2d_19">
    <path d="M 131.831576 628.881482 
L 137.604836 618.837744 
L 143.378096 614.001645 
L 149.151356 611.652051 
L 154.924615 610.49932 
L 160.697875 609.929518 
L 172.244395 609.068755 
L 183.790915 607.792032 
L 195.337434 606.118592 
L 206.883954 604.074482 
L 218.430474 601.684352 
L 229.976993 598.971751 
L 241.523513 595.959416 
L 253.070033 592.667842 
L 264.616552 589.11778 
L 276.163072 585.32792 
L 287.709592 581.316865 
L 299.256111 577.101415 
L 310.802631 572.698446 
L 322.349151 568.122794 
L 339.66893 560.968101 
L 356.98871 553.504456 
L 374.308489 545.774742 
L 391.628269 537.818682 
L 414.721308 526.91942 
L 437.814347 515.759493 
L 466.680646 501.546784 
L 507.093465 481.366545 
L 582.145843 443.830551 
L 616.785402 426.771587 
L 645.651701 412.77825 
L 674.518 399.03938 
L 703.3843 385.586904 
L 726.477339 375.053906 
L 749.570378 364.731836 
L 772.663418 354.630299 
L 795.756457 344.767251 
L 818.849496 335.138214 
L 841.942536 325.748216 
L 865.035575 316.599592 
L 888.128614 307.707245 
L 911.221654 299.051901 
L 934.314693 290.649335 
L 957.407732 282.493326 
L 980.500772 274.581546 
L 997.820551 268.81193 
L 997.820551 268.81193 
" clip-path="url(#p8320847a81)" style="fill: none; stroke: #e377c2; stroke-width: 5; stroke-linecap: round"/>
   </g>
   <g id="line2d_20">
    <path d="M 131.831576 633.899173 
L 137.604836 621.245894 
L 143.378096 615.167855 
L 149.151356 612.221854 
L 154.924615 610.779909 
L 160.697875 610.068904 
L 172.244395 609.232758 
L 183.790915 608.021562 
L 195.337434 606.409467 
L 206.883954 604.422703 
L 218.430474 602.086112 
L 229.976993 599.423434 
L 241.523513 596.457558 
L 253.070033 593.209171 
L 264.616552 589.699199 
L 276.163072 585.946484 
L 287.709592 581.969652 
L 299.256111 577.785907 
L 310.802631 573.412106 
L 322.349151 568.863046 
L 339.66893 561.744199 
L 356.98871 554.311667 
L 374.308489 546.608825 
L 391.628269 538.675156 
L 414.721308 527.800962 
L 437.814347 516.658435 
L 466.680646 502.462622 
L 507.093465 482.293212 
L 582.145843 444.748557 
L 616.785402 427.674248 
L 651.424961 410.896605 
L 680.29126 397.195716 
L 709.15756 383.785886 
L 732.250599 373.285153 
L 755.343638 363.000268 
L 778.436678 352.944422 
L 801.529717 343.113087 
L 824.622756 333.523699 
L 847.715796 324.176315 
L 870.808835 315.08106 
L 893.901874 306.218864 
L 916.994914 297.614002 
L 940.087953 289.257425 
L 957.407732 283.141955 
L 980.500772 275.212061 
L 997.820551 269.423978 
L 997.820551 269.423978 
" clip-path="url(#p8320847a81)" style="fill: none; stroke: #7f7f7f; stroke-width: 5; stroke-linecap: round"/>
   </g>
   <g id="line2d_21">
    <path d="M 131.831576 638.965777 
L 137.604836 623.672203 
L 143.378096 616.340316 
L 149.151356 612.793485 
L 154.924615 611.060802 
L 160.697875 610.208068 
L 178.017655 608.832503 
L 189.564174 607.469814 
L 201.110694 605.716028 
L 212.657214 603.596954 
L 224.203733 601.137133 
L 235.750253 598.359747 
L 247.296773 595.286994 
L 258.843292 591.939632 
L 270.389812 588.337986 
L 281.936332 584.500406 
L 293.482851 580.445305 
L 305.029371 576.189286 
L 316.575891 571.748966 
L 333.89567 564.775623 
L 351.21545 557.469539 
L 368.535229 549.875616 
L 385.855009 542.034588 
L 403.174788 533.984287 
L 426.267828 522.985356 
L 449.360867 511.750333 
L 484.000426 494.598468 
L 541.733024 465.676993 
L 587.919103 442.635842 
L 622.558662 425.592681 
L 651.424961 411.622636 
L 680.29126 397.909962 
L 703.3843 387.142555 
L 732.250599 373.968317 
L 755.343638 363.669796 
L 778.436678 353.59746 
L 801.529717 343.752906 
L 824.622756 334.14698 
L 847.715796 324.785287 
L 870.808835 315.669532 
L 893.901874 306.794521 
L 916.994914 298.170529 
L 940.087953 289.796527 
L 963.180992 281.666741 
L 986.274032 273.778966 
L 997.820551 269.925935 
L 997.820551 269.925935 
" clip-path="url(#p8320847a81)" style="fill: none; stroke: #bcbd22; stroke-width: 5; stroke-linecap: round"/>
   </g>
   <g id="line2d_22">
    <path d="M 131.831576 644.060576 
L 137.604836 626.10756 
L 143.378096 617.515024 
L 149.151356 613.365187 
L 154.924615 611.341233 
L 160.697875 610.346756 
L 183.790915 608.34816 
L 195.337434 606.829521 
L 206.883954 604.930129 
L 218.430474 602.675121 
L 229.976993 600.088516 
L 241.523513 597.193469 
L 253.070033 594.01093 
L 264.616552 590.56209 
L 276.163072 586.86593 
L 287.709592 582.941514 
L 299.256111 578.806005 
L 310.802631 574.476681 
L 322.349151 569.968375 
L 339.66893 562.904375 
L 356.98871 555.519292 
L 374.308489 547.857206 
L 391.628269 539.958618 
L 414.721308 529.121657 
L 437.814347 518.008582 
L 466.680646 503.837383 
L 507.093465 483.684807 
L 587.919103 443.264464 
L 622.558662 426.213863 
L 651.424961 412.235053 
L 680.29126 398.50601 
L 709.15756 385.067058 
L 732.250599 374.546097 
L 755.343638 364.235949 
L 778.436678 354.145253 
L 801.529717 344.293774 
L 824.622756 334.6738 
L 847.715796 325.299947 
L 870.808835 316.1648 
L 893.901874 307.280919 
L 916.994914 298.640719 
L 940.087953 290.251954 
L 963.180992 282.10871 
L 986.274032 274.208658 
L 997.820551 270.349895 
L 997.820551 270.349895 
" clip-path="url(#p8320847a81)" style="fill: none; stroke: #17becf; stroke-width: 5; stroke-linecap: round"/>
   </g>
   <g id="line2d_23">
    <path d="M 131.831576 649.175563 
L 137.604836 628.548762 
L 143.378096 618.690737 
L 149.151356 613.936507 
L 154.924615 611.621054 
L 160.697875 610.484936 
L 166.471135 609.922513 
L 178.017655 609.059531 
L 189.564174 607.779754 
L 201.110694 606.10353 
L 212.657214 604.056925 
L 224.203733 601.66473 
L 235.750253 598.950357 
L 247.296773 595.936265 
L 258.843292 592.643356 
L 270.389812 589.092275 
L 281.936332 585.301456 
L 293.482851 581.28958 
L 305.029371 577.073297 
L 316.575891 572.669712 
L 328.12241 568.093642 
L 345.44219 560.938239 
L 362.761969 553.474689 
L 380.081749 545.744743 
L 397.401528 537.789078 
L 420.494568 526.890525 
L 443.587607 515.731121 
L 472.453906 501.519036 
L 512.866725 481.341215 
L 587.919103 443.80916 
L 622.558662 426.752509 
L 651.424961 412.76088 
L 680.29126 399.023471 
L 709.15756 385.573043 
L 732.250599 375.041344 
L 755.343638 364.720376 
L 778.436678 354.620518 
L 801.529717 344.757987 
L 824.622756 335.130763 
L 847.715796 325.741706 
L 870.808835 316.594313 
L 893.901874 307.702701 
L 916.994914 299.048413 
L 940.087953 290.646818 
L 963.180992 282.491879 
L 986.274032 274.581157 
L 997.820551 270.717413 
L 997.820551 270.717413 
" clip-path="url(#p8320847a81)" style="fill: none; stroke: #17becf; stroke-width: 5; stroke-linecap: round"/>
   </g>
   <g id="patch_3">
    <path d="M 88.532127 678.237256 
L 88.532127 38.88 
" style="fill: none; stroke: #262626; stroke-width: 0.8; stroke-linejoin: miter; stroke-linecap: square"/>
   </g>
   <g id="patch_4">
    <path d="M 88.532127 678.237256 
L 1041.12 678.237256 
" style="fill: none; stroke: #262626; stroke-width: 0.8; stroke-linejoin: miter; stroke-linecap: square"/>
   </g>
  </g>
 </g>
 <defs>
  <clipPath id="p8320847a81">
   <rect x="88.532127" y="38.88" width="952.587873" height="639.357256"/>
  </clipPath>
 </defs>
</svg>
