<?xml version="1.0" encoding="utf-8" standalone="no"?>
<!DOCTYPE svg PUBLIC "-//W3C//DTD SVG 1.1//EN"
  "http://www.w3.org/Graphics/SVG/1.1/DTD/svg11.dtd">
<svg xmlns:xlink="http://www.w3.org/1999/xlink" width="1080pt" height="756pt" viewBox="0 0 1080 756" xmlns="http://www.w3.org/2000/svg" version="1.1">
 <metadata>
  <rdf:RDF xmlns:dc="http://purl.org/dc/elements/1.1/" xmlns:cc="http://creativecommons.org/ns#" xmlns:rdf="http://www.w3.org/1999/02/22-rdf-syntax-ns#">
   <cc:Work>
    <dc:type rdf:resource="http://purl.org/dc/dcmitype/StillImage"/>
    <dc:date>2024-08-01T10:48:21.901035</dc:date>
    <dc:format>image/svg+xml</dc:format>
    <dc:creator>
     <cc:Agent>
      <dc:title>Matplotlib v3.9.0, https://matplotlib.org/</dc:title>
     </cc:Agent>
    </dc:creator>
   </cc:Work>
  </rdf:RDF>
 </metadata>
 <defs>
  <style type="text/css">*{stroke-linejoin: round; stroke-linecap: butt}</style>
 </defs>
 <g id="figure_1">
  <g id="patch_1">
   <path d="M 0 756 
L 1080 756 
L 1080 0 
L 0 0 
z
" style="fill: #ffffff"/>
  </g>
  <g id="axes_1">
   <g id="patch_2">
    <path d="M 88.532127 678.237256 
L 1017.27 678.237256 
L 1017.27 168.032287 
L 88.532127 168.032287 
z
" style="fill: #ffffff"/>
   </g>
   <g id="matplotlib.axis_1">
    <g id="xtick_1">
     <g id="line2d_1">
      <defs>
       <path id="m9a609c158b" d="M 0 0 
L 0 3.5 
" style="stroke: #262626; stroke-width: 0.8"/>
      </defs>
      <g>
       <use xlink:href="#m9a609c158b" x="122.21913" y="678.237256" style="fill: #262626; stroke: #262626; stroke-width: 0.8"/>
      </g>
     </g>
     <g id="text_1">
      <!-- $\mathdefault{0}$ -->
      <g style="fill: #262626" transform="translate(113.994844 710.143856) scale(0.36 -0.36)">
       <defs>
        <path id="CMR17-30" d="M 2688 2025 
C 2688 2416 2682 3080 2413 3591 
C 2176 4039 1798 4198 1466 4198 
C 1158 4198 768 4058 525 3597 
C 269 3118 243 2524 243 2025 
C 243 1661 250 1106 448 619 
C 723 -39 1216 -128 1466 -128 
C 1760 -128 2208 -7 2470 600 
C 2662 1042 2688 1559 2688 2025 
z
M 1466 -26 
C 1056 -26 813 325 723 812 
C 653 1188 653 1738 653 2096 
C 653 2588 653 2997 736 3387 
C 858 3929 1216 4096 1466 4096 
C 1728 4096 2067 3923 2189 3400 
C 2272 3036 2278 2607 2278 2096 
C 2278 1680 2278 1169 2202 792 
C 2067 95 1690 -26 1466 -26 
z
" transform="scale(0.015625)"/>
       </defs>
       <use xlink:href="#CMR17-30" transform="scale(0.996264)"/>
      </g>
     </g>
    </g>
    <g id="xtick_2">
     <g id="line2d_2">
      <g>
       <use xlink:href="#m9a609c158b" x="292.786232" y="678.237256" style="fill: #262626; stroke: #262626; stroke-width: 0.8"/>
      </g>
     </g>
     <g id="text_2">
      <!-- $\mathdefault{2}$ -->
      <g style="fill: #262626" transform="translate(284.561947 710.143856) scale(0.36 -0.36)">
       <defs>
        <path id="CMR17-32" d="M 2669 989 
L 2554 989 
C 2490 536 2438 459 2413 420 
C 2381 369 1920 369 1830 369 
L 602 369 
C 832 619 1280 1072 1824 1597 
C 2214 1967 2669 2402 2669 3035 
C 2669 3790 2067 4224 1395 4224 
C 691 4224 262 3604 262 3030 
C 262 2780 448 2748 525 2748 
C 589 2748 781 2787 781 3010 
C 781 3207 614 3264 525 3264 
C 486 3264 448 3258 422 3245 
C 544 3790 915 4058 1306 4058 
C 1862 4058 2227 3617 2227 3035 
C 2227 2479 1901 2000 1536 1584 
L 262 146 
L 262 0 
L 2515 0 
L 2669 989 
z
" transform="scale(0.015625)"/>
       </defs>
       <use xlink:href="#CMR17-32" transform="scale(0.996264)"/>
      </g>
     </g>
    </g>
    <g id="xtick_3">
     <g id="line2d_3">
      <g>
       <use xlink:href="#m9a609c158b" x="463.353335" y="678.237256" style="fill: #262626; stroke: #262626; stroke-width: 0.8"/>
      </g>
     </g>
     <g id="text_3">
      <!-- $\mathdefault{4}$ -->
      <g style="fill: #262626" transform="translate(455.129049 710.143856) scale(0.36 -0.36)">
       <defs>
        <path id="CMR17-34" d="M 2150 4122 
C 2150 4256 2144 4256 2029 4256 
L 128 1254 
L 128 1088 
L 1779 1088 
L 1779 457 
C 1779 224 1766 160 1318 160 
L 1197 160 
L 1197 0 
C 1402 0 1747 0 1965 0 
C 2182 0 2528 0 2733 0 
L 2733 160 
L 2611 160 
C 2163 160 2150 224 2150 457 
L 2150 1088 
L 2803 1088 
L 2803 1254 
L 2150 1254 
L 2150 4122 
z
M 1798 3703 
L 1798 1254 
L 256 1254 
L 1798 3703 
z
" transform="scale(0.015625)"/>
       </defs>
       <use xlink:href="#CMR17-34" transform="scale(0.996264)"/>
      </g>
     </g>
    </g>
    <g id="xtick_4">
     <g id="line2d_4">
      <g>
       <use xlink:href="#m9a609c158b" x="633.920437" y="678.237256" style="fill: #262626; stroke: #262626; stroke-width: 0.8"/>
      </g>
     </g>
     <g id="text_4">
      <!-- $\mathdefault{6}$ -->
      <g style="fill: #262626" transform="translate(625.696151 710.143856) scale(0.36 -0.36)">
       <defs>
        <path id="CMR17-36" d="M 678 2176 
C 678 3690 1395 4032 1811 4032 
C 1946 4032 2272 4009 2400 3776 
C 2298 3776 2106 3776 2106 3553 
C 2106 3381 2246 3323 2336 3323 
C 2394 3323 2566 3348 2566 3560 
C 2566 3954 2246 4179 1805 4179 
C 1043 4179 243 3390 243 1984 
C 243 253 966 -128 1478 -128 
C 2099 -128 2688 427 2688 1283 
C 2688 2081 2170 2662 1517 2662 
C 1126 2662 838 2407 678 1960 
L 678 2176 
z
M 1478 25 
C 691 25 691 1200 691 1436 
C 691 1896 909 2560 1504 2560 
C 1613 2560 1926 2560 2138 2120 
C 2253 1870 2253 1609 2253 1289 
C 2253 944 2253 690 2118 434 
C 1978 171 1773 25 1478 25 
z
" transform="scale(0.015625)"/>
       </defs>
       <use xlink:href="#CMR17-36" transform="scale(0.996264)"/>
      </g>
     </g>
    </g>
    <g id="xtick_5">
     <g id="line2d_5">
      <g>
       <use xlink:href="#m9a609c158b" x="804.48754" y="678.237256" style="fill: #262626; stroke: #262626; stroke-width: 0.8"/>
      </g>
     </g>
     <g id="text_5">
      <!-- $\mathdefault{8}$ -->
      <g style="fill: #262626" transform="translate(796.263254 710.143856) scale(0.36 -0.36)">
       <defs>
        <path id="CMR17-38" d="M 1741 2264 
C 2144 2467 2554 2773 2554 3263 
C 2554 3841 1990 4179 1472 4179 
C 890 4179 378 3759 378 3180 
C 378 3021 416 2747 666 2505 
C 730 2442 998 2251 1171 2130 
C 883 1983 211 1634 211 934 
C 211 279 838 -128 1459 -128 
C 2144 -128 2720 362 2720 1010 
C 2720 1590 2330 1857 2074 2029 
L 1741 2264 
z
M 902 2822 
C 851 2854 595 3051 595 3351 
C 595 3739 998 4032 1459 4032 
C 1965 4032 2336 3676 2336 3262 
C 2336 2669 1670 2331 1638 2331 
C 1632 2331 1626 2331 1574 2370 
L 902 2822 
z
M 2080 1519 
C 2176 1449 2483 1240 2483 851 
C 2483 381 2010 25 1472 25 
C 890 25 448 438 448 940 
C 448 1443 838 1862 1280 2060 
L 2080 1519 
z
" transform="scale(0.015625)"/>
       </defs>
       <use xlink:href="#CMR17-38" transform="scale(0.996264)"/>
      </g>
     </g>
    </g>
    <g id="xtick_6">
     <g id="line2d_6">
      <g>
       <use xlink:href="#m9a609c158b" x="975.054642" y="678.237256" style="fill: #262626; stroke: #262626; stroke-width: 0.8"/>
      </g>
     </g>
     <g id="text_6">
      <!-- $\mathdefault{10}$ -->
      <g style="fill: #262626" transform="translate(958.60607 710.143856) scale(0.36 -0.36)">
       <defs>
        <path id="CMR17-31" d="M 1702 4058 
C 1702 4192 1696 4192 1606 4192 
C 1357 3916 979 3827 621 3827 
C 602 3827 570 3827 563 3808 
C 557 3795 557 3782 557 3648 
C 755 3648 1088 3686 1344 3839 
L 1344 461 
C 1344 236 1331 160 781 160 
L 589 160 
L 589 0 
C 896 0 1216 0 1523 0 
C 1830 0 2150 0 2458 0 
L 2458 160 
L 2266 160 
C 1715 160 1702 230 1702 458 
L 1702 4058 
z
" transform="scale(0.015625)"/>
       </defs>
       <use xlink:href="#CMR17-31" transform="scale(0.996264)"/>
       <use xlink:href="#CMR17-30" transform="translate(45.690477 0) scale(0.996264)"/>
      </g>
     </g>
    </g>
   </g>
   <g id="matplotlib.axis_2">
    <g id="ytick_1">
     <g id="line2d_7">
      <defs>
       <path id="m029d3d1429" d="M 0 0 
L -3.5 0 
" style="stroke: #262626; stroke-width: 0.8"/>
      </defs>
      <g>
       <use xlink:href="#m029d3d1429" x="88.532127" y="678.237256" style="fill: #262626; stroke: #262626; stroke-width: 0.8"/>
      </g>
     </g>
     <g id="text_7">
      <!-- $\mathdefault{0.0}$ -->
      <g style="fill: #262626" transform="translate(38.88 690.690556) scale(0.36 -0.36)">
       <defs>
        <path id="CMMI12-3a" d="M 1178 307 
C 1178 492 1024 619 870 619 
C 685 619 557 466 557 313 
C 557 128 710 0 864 0 
C 1050 0 1178 153 1178 307 
z
" transform="scale(0.015625)"/>
       </defs>
       <use xlink:href="#CMR17-30" transform="scale(0.996264)"/>
       <use xlink:href="#CMMI12-3a" transform="translate(45.690477 0) scale(0.996264)"/>
       <use xlink:href="#CMR17-30" transform="translate(72.787654 0) scale(0.996264)"/>
      </g>
     </g>
    </g>
    <g id="ytick_2">
     <g id="line2d_8">
      <g>
       <use xlink:href="#m029d3d1429" x="88.532127" y="576.196262" style="fill: #262626; stroke: #262626; stroke-width: 0.8"/>
      </g>
     </g>
     <g id="text_8">
      <!-- $\mathdefault{0.2}$ -->
      <g style="fill: #262626" transform="translate(38.88 588.649563) scale(0.36 -0.36)">
       <use xlink:href="#CMR17-30" transform="scale(0.996264)"/>
       <use xlink:href="#CMMI12-3a" transform="translate(45.690477 0) scale(0.996264)"/>
       <use xlink:href="#CMR17-32" transform="translate(72.787654 0) scale(0.996264)"/>
      </g>
     </g>
    </g>
    <g id="ytick_3">
     <g id="line2d_9">
      <g>
       <use xlink:href="#m029d3d1429" x="88.532127" y="474.155269" style="fill: #262626; stroke: #262626; stroke-width: 0.8"/>
      </g>
     </g>
     <g id="text_9">
      <!-- $\mathdefault{0.4}$ -->
      <g style="fill: #262626" transform="translate(38.88 486.608569) scale(0.36 -0.36)">
       <use xlink:href="#CMR17-30" transform="scale(0.996264)"/>
       <use xlink:href="#CMMI12-3a" transform="translate(45.690477 0) scale(0.996264)"/>
       <use xlink:href="#CMR17-34" transform="translate(72.787654 0) scale(0.996264)"/>
      </g>
     </g>
    </g>
    <g id="ytick_4">
     <g id="line2d_10">
      <g>
       <use xlink:href="#m029d3d1429" x="88.532127" y="372.114275" style="fill: #262626; stroke: #262626; stroke-width: 0.8"/>
      </g>
     </g>
     <g id="text_10">
      <!-- $\mathdefault{0.6}$ -->
      <g style="fill: #262626" transform="translate(38.88 384.567575) scale(0.36 -0.36)">
       <use xlink:href="#CMR17-30" transform="scale(0.996264)"/>
       <use xlink:href="#CMMI12-3a" transform="translate(45.690477 0) scale(0.996264)"/>
       <use xlink:href="#CMR17-36" transform="translate(72.787654 0) scale(0.996264)"/>
      </g>
     </g>
    </g>
    <g id="ytick_5">
     <g id="line2d_11">
      <g>
       <use xlink:href="#m029d3d1429" x="88.532127" y="270.073281" style="fill: #262626; stroke: #262626; stroke-width: 0.8"/>
      </g>
     </g>
     <g id="text_11">
      <!-- $\mathdefault{0.8}$ -->
      <g style="fill: #262626" transform="translate(38.88 282.526581) scale(0.36 -0.36)">
       <use xlink:href="#CMR17-30" transform="scale(0.996264)"/>
       <use xlink:href="#CMMI12-3a" transform="translate(45.690477 0) scale(0.996264)"/>
       <use xlink:href="#CMR17-38" transform="translate(72.787654 0) scale(0.996264)"/>
      </g>
     </g>
    </g>
    <g id="ytick_6">
     <g id="line2d_12">
      <g>
       <use xlink:href="#m029d3d1429" x="88.532127" y="168.032287" style="fill: #262626; stroke: #262626; stroke-width: 0.8"/>
      </g>
     </g>
     <g id="text_12">
      <!-- $\mathdefault{1.0}$ -->
      <g style="fill: #262626" transform="translate(38.88 180.485587) scale(0.36 -0.36)">
       <use xlink:href="#CMR17-31" transform="scale(0.996264)"/>
       <use xlink:href="#CMMI12-3a" transform="translate(45.690477 0) scale(0.996264)"/>
       <use xlink:href="#CMR17-30" transform="translate(72.787654 0) scale(0.996264)"/>
      </g>
     </g>
    </g>
   </g>
   <g id="PathCollection_1">
    <defs>
     <path id="m52971452cf" d="M 0 3 
C 0.795609 3 1.55874 2.683901 2.12132 2.12132 
C 2.683901 1.55874 3 0.795609 3 0 
C 3 -0.795609 2.683901 -1.55874 2.12132 -2.12132 
C 1.55874 -2.683901 0.795609 -3 0 -3 
C -0.795609 -3 -1.55874 -2.683901 -2.12132 -2.12132 
C -2.683901 -1.55874 -3 -0.795609 -3 0 
C -3 0.795609 -2.683901 1.55874 -2.12132 2.12132 
C -1.55874 2.683901 -0.795609 3 0 3 
z
" style="stroke: #e7cb94"/>
    </defs>
    <g clip-path="url(#pd9c7136d61)">
     <use xlink:href="#m52971452cf" x="130.747485" y="652.727008" style="fill: #e7cb94; stroke: #e7cb94"/>
     <use xlink:href="#m52971452cf" x="139.27584" y="627.216759" style="fill: #e7cb94; stroke: #e7cb94"/>
     <use xlink:href="#m52971452cf" x="147.804195" y="601.706511" style="fill: #e7cb94; stroke: #e7cb94"/>
     <use xlink:href="#m52971452cf" x="156.33255" y="576.196262" style="fill: #e7cb94; stroke: #e7cb94"/>
     <use xlink:href="#m52971452cf" x="164.860906" y="550.686014" style="fill: #e7cb94; stroke: #e7cb94"/>
     <use xlink:href="#m52971452cf" x="173.389261" y="525.175765" style="fill: #e7cb94; stroke: #e7cb94"/>
     <use xlink:href="#m52971452cf" x="181.917616" y="499.665517" style="fill: #e7cb94; stroke: #e7cb94"/>
     <use xlink:href="#m52971452cf" x="190.445971" y="499.665517" style="fill: #e7cb94; stroke: #e7cb94"/>
     <use xlink:href="#m52971452cf" x="198.974326" y="474.155269" style="fill: #e7cb94; stroke: #e7cb94"/>
     <use xlink:href="#m52971452cf" x="207.502681" y="474.155269" style="fill: #e7cb94; stroke: #e7cb94"/>
     <use xlink:href="#m52971452cf" x="216.031036" y="474.155269" style="fill: #e7cb94; stroke: #e7cb94"/>
     <use xlink:href="#m52971452cf" x="224.559391" y="448.64502" style="fill: #e7cb94; stroke: #e7cb94"/>
     <use xlink:href="#m52971452cf" x="233.087747" y="448.64502" style="fill: #e7cb94; stroke: #e7cb94"/>
     <use xlink:href="#m52971452cf" x="241.616102" y="448.64502" style="fill: #e7cb94; stroke: #e7cb94"/>
     <use xlink:href="#m52971452cf" x="250.144457" y="423.134772" style="fill: #e7cb94; stroke: #e7cb94"/>
     <use xlink:href="#m52971452cf" x="258.672812" y="423.134772" style="fill: #e7cb94; stroke: #e7cb94"/>
     <use xlink:href="#m52971452cf" x="267.201167" y="423.134772" style="fill: #e7cb94; stroke: #e7cb94"/>
     <use xlink:href="#m52971452cf" x="275.729522" y="423.134772" style="fill: #e7cb94; stroke: #e7cb94"/>
     <use xlink:href="#m52971452cf" x="284.257877" y="423.134772" style="fill: #e7cb94; stroke: #e7cb94"/>
     <use xlink:href="#m52971452cf" x="292.786232" y="423.134772" style="fill: #e7cb94; stroke: #e7cb94"/>
     <use xlink:href="#m52971452cf" x="301.314588" y="423.134772" style="fill: #e7cb94; stroke: #e7cb94"/>
     <use xlink:href="#m52971452cf" x="309.842943" y="397.624523" style="fill: #e7cb94; stroke: #e7cb94"/>
     <use xlink:href="#m52971452cf" x="318.371298" y="397.624523" style="fill: #e7cb94; stroke: #e7cb94"/>
     <use xlink:href="#m52971452cf" x="326.899653" y="397.624523" style="fill: #e7cb94; stroke: #e7cb94"/>
     <use xlink:href="#m52971452cf" x="335.428008" y="397.624523" style="fill: #e7cb94; stroke: #e7cb94"/>
     <use xlink:href="#m52971452cf" x="343.956363" y="397.624523" style="fill: #e7cb94; stroke: #e7cb94"/>
     <use xlink:href="#m52971452cf" x="352.484718" y="397.624523" style="fill: #e7cb94; stroke: #e7cb94"/>
     <use xlink:href="#m52971452cf" x="361.013073" y="397.624523" style="fill: #e7cb94; stroke: #e7cb94"/>
     <use xlink:href="#m52971452cf" x="369.541429" y="397.624523" style="fill: #e7cb94; stroke: #e7cb94"/>
     <use xlink:href="#m52971452cf" x="378.069784" y="397.624523" style="fill: #e7cb94; stroke: #e7cb94"/>
     <use xlink:href="#m52971452cf" x="386.598139" y="397.624523" style="fill: #e7cb94; stroke: #e7cb94"/>
     <use xlink:href="#m52971452cf" x="395.126494" y="397.624523" style="fill: #e7cb94; stroke: #e7cb94"/>
     <use xlink:href="#m52971452cf" x="403.654849" y="397.624523" style="fill: #e7cb94; stroke: #e7cb94"/>
     <use xlink:href="#m52971452cf" x="412.183204" y="397.624523" style="fill: #e7cb94; stroke: #e7cb94"/>
     <use xlink:href="#m52971452cf" x="420.711559" y="397.624523" style="fill: #e7cb94; stroke: #e7cb94"/>
     <use xlink:href="#m52971452cf" x="429.239914" y="397.624523" style="fill: #e7cb94; stroke: #e7cb94"/>
     <use xlink:href="#m52971452cf" x="437.768269" y="397.624523" style="fill: #e7cb94; stroke: #e7cb94"/>
     <use xlink:href="#m52971452cf" x="446.296625" y="397.624523" style="fill: #e7cb94; stroke: #e7cb94"/>
     <use xlink:href="#m52971452cf" x="454.82498" y="397.624523" style="fill: #e7cb94; stroke: #e7cb94"/>
     <use xlink:href="#m52971452cf" x="463.353335" y="397.624523" style="fill: #e7cb94; stroke: #e7cb94"/>
     <use xlink:href="#m52971452cf" x="471.88169" y="397.624523" style="fill: #e7cb94; stroke: #e7cb94"/>
     <use xlink:href="#m52971452cf" x="480.410045" y="397.624523" style="fill: #e7cb94; stroke: #e7cb94"/>
     <use xlink:href="#m52971452cf" x="488.9384" y="397.624523" style="fill: #e7cb94; stroke: #e7cb94"/>
     <use xlink:href="#m52971452cf" x="497.466755" y="397.624523" style="fill: #e7cb94; stroke: #e7cb94"/>
     <use xlink:href="#m52971452cf" x="505.99511" y="397.624523" style="fill: #e7cb94; stroke: #e7cb94"/>
     <use xlink:href="#m52971452cf" x="514.523466" y="397.624523" style="fill: #e7cb94; stroke: #e7cb94"/>
     <use xlink:href="#m52971452cf" x="523.051821" y="397.624523" style="fill: #e7cb94; stroke: #e7cb94"/>
     <use xlink:href="#m52971452cf" x="531.580176" y="397.624523" style="fill: #e7cb94; stroke: #e7cb94"/>
     <use xlink:href="#m52971452cf" x="540.108531" y="397.624523" style="fill: #e7cb94; stroke: #e7cb94"/>
     <use xlink:href="#m52971452cf" x="548.636886" y="397.624523" style="fill: #e7cb94; stroke: #e7cb94"/>
     <use xlink:href="#m52971452cf" x="557.165241" y="397.624523" style="fill: #e7cb94; stroke: #e7cb94"/>
     <use xlink:href="#m52971452cf" x="565.693596" y="397.624523" style="fill: #e7cb94; stroke: #e7cb94"/>
     <use xlink:href="#m52971452cf" x="574.221951" y="397.624523" style="fill: #e7cb94; stroke: #e7cb94"/>
     <use xlink:href="#m52971452cf" x="582.750307" y="397.624523" style="fill: #e7cb94; stroke: #e7cb94"/>
     <use xlink:href="#m52971452cf" x="591.278662" y="397.624523" style="fill: #e7cb94; stroke: #e7cb94"/>
     <use xlink:href="#m52971452cf" x="599.807017" y="397.624523" style="fill: #e7cb94; stroke: #e7cb94"/>
     <use xlink:href="#m52971452cf" x="608.335372" y="397.624523" style="fill: #e7cb94; stroke: #e7cb94"/>
     <use xlink:href="#m52971452cf" x="616.863727" y="397.624523" style="fill: #e7cb94; stroke: #e7cb94"/>
     <use xlink:href="#m52971452cf" x="625.392082" y="397.624523" style="fill: #e7cb94; stroke: #e7cb94"/>
     <use xlink:href="#m52971452cf" x="633.920437" y="397.624523" style="fill: #e7cb94; stroke: #e7cb94"/>
     <use xlink:href="#m52971452cf" x="642.448792" y="397.624523" style="fill: #e7cb94; stroke: #e7cb94"/>
     <use xlink:href="#m52971452cf" x="650.977148" y="397.624523" style="fill: #e7cb94; stroke: #e7cb94"/>
     <use xlink:href="#m52971452cf" x="659.505503" y="397.624523" style="fill: #e7cb94; stroke: #e7cb94"/>
     <use xlink:href="#m52971452cf" x="668.033858" y="397.624523" style="fill: #e7cb94; stroke: #e7cb94"/>
     <use xlink:href="#m52971452cf" x="676.562213" y="397.624523" style="fill: #e7cb94; stroke: #e7cb94"/>
     <use xlink:href="#m52971452cf" x="685.090568" y="397.624523" style="fill: #e7cb94; stroke: #e7cb94"/>
     <use xlink:href="#m52971452cf" x="693.618923" y="397.624523" style="fill: #e7cb94; stroke: #e7cb94"/>
     <use xlink:href="#m52971452cf" x="702.147278" y="397.624523" style="fill: #e7cb94; stroke: #e7cb94"/>
     <use xlink:href="#m52971452cf" x="710.675633" y="397.624523" style="fill: #e7cb94; stroke: #e7cb94"/>
     <use xlink:href="#m52971452cf" x="719.203989" y="397.624523" style="fill: #e7cb94; stroke: #e7cb94"/>
     <use xlink:href="#m52971452cf" x="727.732344" y="397.624523" style="fill: #e7cb94; stroke: #e7cb94"/>
     <use xlink:href="#m52971452cf" x="736.260699" y="397.624523" style="fill: #e7cb94; stroke: #e7cb94"/>
     <use xlink:href="#m52971452cf" x="744.789054" y="397.624523" style="fill: #e7cb94; stroke: #e7cb94"/>
     <use xlink:href="#m52971452cf" x="753.317409" y="397.624523" style="fill: #e7cb94; stroke: #e7cb94"/>
     <use xlink:href="#m52971452cf" x="761.845764" y="397.624523" style="fill: #e7cb94; stroke: #e7cb94"/>
     <use xlink:href="#m52971452cf" x="770.374119" y="397.624523" style="fill: #e7cb94; stroke: #e7cb94"/>
     <use xlink:href="#m52971452cf" x="778.902474" y="397.624523" style="fill: #e7cb94; stroke: #e7cb94"/>
     <use xlink:href="#m52971452cf" x="787.430829" y="397.624523" style="fill: #e7cb94; stroke: #e7cb94"/>
     <use xlink:href="#m52971452cf" x="795.959185" y="397.624523" style="fill: #e7cb94; stroke: #e7cb94"/>
     <use xlink:href="#m52971452cf" x="804.48754" y="397.624523" style="fill: #e7cb94; stroke: #e7cb94"/>
     <use xlink:href="#m52971452cf" x="813.015895" y="397.624523" style="fill: #e7cb94; stroke: #e7cb94"/>
     <use xlink:href="#m52971452cf" x="821.54425" y="397.624523" style="fill: #e7cb94; stroke: #e7cb94"/>
     <use xlink:href="#m52971452cf" x="830.072605" y="397.624523" style="fill: #e7cb94; stroke: #e7cb94"/>
     <use xlink:href="#m52971452cf" x="838.60096" y="397.624523" style="fill: #e7cb94; stroke: #e7cb94"/>
     <use xlink:href="#m52971452cf" x="847.129315" y="397.624523" style="fill: #e7cb94; stroke: #e7cb94"/>
     <use xlink:href="#m52971452cf" x="855.65767" y="397.624523" style="fill: #e7cb94; stroke: #e7cb94"/>
     <use xlink:href="#m52971452cf" x="864.186026" y="397.624523" style="fill: #e7cb94; stroke: #e7cb94"/>
     <use xlink:href="#m52971452cf" x="872.714381" y="397.624523" style="fill: #e7cb94; stroke: #e7cb94"/>
     <use xlink:href="#m52971452cf" x="881.242736" y="397.624523" style="fill: #e7cb94; stroke: #e7cb94"/>
     <use xlink:href="#m52971452cf" x="889.771091" y="397.624523" style="fill: #e7cb94; stroke: #e7cb94"/>
     <use xlink:href="#m52971452cf" x="898.299446" y="397.624523" style="fill: #e7cb94; stroke: #e7cb94"/>
     <use xlink:href="#m52971452cf" x="906.827801" y="397.624523" style="fill: #e7cb94; stroke: #e7cb94"/>
     <use xlink:href="#m52971452cf" x="915.356156" y="397.624523" style="fill: #e7cb94; stroke: #e7cb94"/>
     <use xlink:href="#m52971452cf" x="923.884511" y="397.624523" style="fill: #e7cb94; stroke: #e7cb94"/>
     <use xlink:href="#m52971452cf" x="932.412867" y="397.624523" style="fill: #e7cb94; stroke: #e7cb94"/>
     <use xlink:href="#m52971452cf" x="940.941222" y="397.624523" style="fill: #e7cb94; stroke: #e7cb94"/>
     <use xlink:href="#m52971452cf" x="949.469577" y="397.624523" style="fill: #e7cb94; stroke: #e7cb94"/>
     <use xlink:href="#m52971452cf" x="957.997932" y="397.624523" style="fill: #e7cb94; stroke: #e7cb94"/>
     <use xlink:href="#m52971452cf" x="966.526287" y="397.624523" style="fill: #e7cb94; stroke: #e7cb94"/>
     <use xlink:href="#m52971452cf" x="975.054642" y="397.624523" style="fill: #e7cb94; stroke: #e7cb94"/>
    </g>
   </g>
   <g id="PathCollection_2">
    <defs>
     <path id="m356d56f42a" d="M -3 3 
L 3 -3 
M -3 -3 
L 3 3 
" style="stroke: #e7cb94; stroke-width: 1.5"/>
    </defs>
    <g clip-path="url(#pd9c7136d61)">
     <use xlink:href="#m356d56f42a" x="130.747485" y="653.304418" style="fill: #e7cb94; stroke: #e7cb94; stroke-width: 1.5"/>
     <use xlink:href="#m356d56f42a" x="139.27584" y="625.629747" style="fill: #e7cb94; stroke: #e7cb94; stroke-width: 1.5"/>
     <use xlink:href="#m356d56f42a" x="147.804195" y="597.027926" style="fill: #e7cb94; stroke: #e7cb94; stroke-width: 1.5"/>
     <use xlink:href="#m356d56f42a" x="156.33255" y="574.994186" style="fill: #e7cb94; stroke: #e7cb94; stroke-width: 1.5"/>
     <use xlink:href="#m356d56f42a" x="164.860906" y="552.155796" style="fill: #e7cb94; stroke: #e7cb94; stroke-width: 1.5"/>
     <use xlink:href="#m356d56f42a" x="173.389261" y="526.519247" style="fill: #e7cb94; stroke: #e7cb94; stroke-width: 1.5"/>
     <use xlink:href="#m356d56f42a" x="181.917616" y="501.60395" style="fill: #e7cb94; stroke: #e7cb94; stroke-width: 1.5"/>
     <use xlink:href="#m356d56f42a" x="190.445971" y="498.005295" style="fill: #e7cb94; stroke: #e7cb94; stroke-width: 1.5"/>
     <use xlink:href="#m356d56f42a" x="198.974326" y="476.614054" style="fill: #e7cb94; stroke: #e7cb94; stroke-width: 1.5"/>
     <use xlink:href="#m356d56f42a" x="207.502681" y="473.184938" style="fill: #e7cb94; stroke: #e7cb94; stroke-width: 1.5"/>
     <use xlink:href="#m356d56f42a" x="216.031036" y="473.890694" style="fill: #e7cb94; stroke: #e7cb94; stroke-width: 1.5"/>
     <use xlink:href="#m356d56f42a" x="224.559391" y="449.573621" style="fill: #e7cb94; stroke: #e7cb94; stroke-width: 1.5"/>
     <use xlink:href="#m356d56f42a" x="233.087747" y="448.019055" style="fill: #e7cb94; stroke: #e7cb94; stroke-width: 1.5"/>
     <use xlink:href="#m356d56f42a" x="241.616102" y="446.762613" style="fill: #e7cb94; stroke: #e7cb94; stroke-width: 1.5"/>
     <use xlink:href="#m356d56f42a" x="250.144457" y="423.894693" style="fill: #e7cb94; stroke: #e7cb94; stroke-width: 1.5"/>
     <use xlink:href="#m356d56f42a" x="258.672812" y="424.249956" style="fill: #e7cb94; stroke: #e7cb94; stroke-width: 1.5"/>
     <use xlink:href="#m356d56f42a" x="267.201167" y="424.335922" style="fill: #e7cb94; stroke: #e7cb94; stroke-width: 1.5"/>
     <use xlink:href="#m356d56f42a" x="275.729522" y="421.244823" style="fill: #e7cb94; stroke: #e7cb94; stroke-width: 1.5"/>
     <use xlink:href="#m356d56f42a" x="284.257877" y="423.323647" style="fill: #e7cb94; stroke: #e7cb94; stroke-width: 1.5"/>
     <use xlink:href="#m356d56f42a" x="292.786232" y="424.682637" style="fill: #e7cb94; stroke: #e7cb94; stroke-width: 1.5"/>
     <use xlink:href="#m356d56f42a" x="301.314588" y="419.903836" style="fill: #e7cb94; stroke: #e7cb94; stroke-width: 1.5"/>
     <use xlink:href="#m356d56f42a" x="309.842943" y="402.872542" style="fill: #e7cb94; stroke: #e7cb94; stroke-width: 1.5"/>
     <use xlink:href="#m356d56f42a" x="318.371298" y="399.73955" style="fill: #e7cb94; stroke: #e7cb94; stroke-width: 1.5"/>
     <use xlink:href="#m356d56f42a" x="326.899653" y="399.364082" style="fill: #e7cb94; stroke: #e7cb94; stroke-width: 1.5"/>
     <use xlink:href="#m356d56f42a" x="335.428008" y="397.714118" style="fill: #e7cb94; stroke: #e7cb94; stroke-width: 1.5"/>
     <use xlink:href="#m356d56f42a" x="343.956363" y="398.474105" style="fill: #e7cb94; stroke: #e7cb94; stroke-width: 1.5"/>
     <use xlink:href="#m356d56f42a" x="352.484718" y="396.885814" style="fill: #e7cb94; stroke: #e7cb94; stroke-width: 1.5"/>
     <use xlink:href="#m356d56f42a" x="361.013073" y="391.625031" style="fill: #e7cb94; stroke: #e7cb94; stroke-width: 1.5"/>
     <use xlink:href="#m356d56f42a" x="369.541429" y="397.839086" style="fill: #e7cb94; stroke: #e7cb94; stroke-width: 1.5"/>
     <use xlink:href="#m356d56f42a" x="378.069784" y="397.963659" style="fill: #e7cb94; stroke: #e7cb94; stroke-width: 1.5"/>
     <use xlink:href="#m356d56f42a" x="386.598139" y="396.003536" style="fill: #e7cb94; stroke: #e7cb94; stroke-width: 1.5"/>
     <use xlink:href="#m356d56f42a" x="395.126494" y="396.513429" style="fill: #e7cb94; stroke: #e7cb94; stroke-width: 1.5"/>
     <use xlink:href="#m356d56f42a" x="403.654849" y="397.299297" style="fill: #e7cb94; stroke: #e7cb94; stroke-width: 1.5"/>
     <use xlink:href="#m356d56f42a" x="412.183204" y="397.555894" style="fill: #e7cb94; stroke: #e7cb94; stroke-width: 1.5"/>
     <use xlink:href="#m356d56f42a" x="420.711559" y="397.878622" style="fill: #e7cb94; stroke: #e7cb94; stroke-width: 1.5"/>
     <use xlink:href="#m356d56f42a" x="429.239914" y="397.821517" style="fill: #e7cb94; stroke: #e7cb94; stroke-width: 1.5"/>
     <use xlink:href="#m356d56f42a" x="437.768269" y="397.64073" style="fill: #e7cb94; stroke: #e7cb94; stroke-width: 1.5"/>
     <use xlink:href="#m356d56f42a" x="446.296625" y="397.612359" style="fill: #e7cb94; stroke: #e7cb94; stroke-width: 1.5"/>
     <use xlink:href="#m356d56f42a" x="454.82498" y="397.685264" style="fill: #e7cb94; stroke: #e7cb94; stroke-width: 1.5"/>
     <use xlink:href="#m356d56f42a" x="463.353335" y="397.500707" style="fill: #e7cb94; stroke: #e7cb94; stroke-width: 1.5"/>
     <use xlink:href="#m356d56f42a" x="471.88169" y="397.540257" style="fill: #e7cb94; stroke: #e7cb94; stroke-width: 1.5"/>
     <use xlink:href="#m356d56f42a" x="480.410045" y="398.294302" style="fill: #e7cb94; stroke: #e7cb94; stroke-width: 1.5"/>
     <use xlink:href="#m356d56f42a" x="488.9384" y="397.793395" style="fill: #e7cb94; stroke: #e7cb94; stroke-width: 1.5"/>
     <use xlink:href="#m356d56f42a" x="497.466755" y="396.979797" style="fill: #e7cb94; stroke: #e7cb94; stroke-width: 1.5"/>
     <use xlink:href="#m356d56f42a" x="505.99511" y="396.498391" style="fill: #e7cb94; stroke: #e7cb94; stroke-width: 1.5"/>
     <use xlink:href="#m356d56f42a" x="514.523466" y="397.365492" style="fill: #e7cb94; stroke: #e7cb94; stroke-width: 1.5"/>
     <use xlink:href="#m356d56f42a" x="523.051821" y="397.405752" style="fill: #e7cb94; stroke: #e7cb94; stroke-width: 1.5"/>
     <use xlink:href="#m356d56f42a" x="531.580176" y="397.536096" style="fill: #e7cb94; stroke: #e7cb94; stroke-width: 1.5"/>
     <use xlink:href="#m356d56f42a" x="540.108531" y="397.544822" style="fill: #e7cb94; stroke: #e7cb94; stroke-width: 1.5"/>
     <use xlink:href="#m356d56f42a" x="548.636886" y="397.574146" style="fill: #e7cb94; stroke: #e7cb94; stroke-width: 1.5"/>
     <use xlink:href="#m356d56f42a" x="557.165241" y="397.491935" style="fill: #e7cb94; stroke: #e7cb94; stroke-width: 1.5"/>
     <use xlink:href="#m356d56f42a" x="565.693596" y="397.510123" style="fill: #e7cb94; stroke: #e7cb94; stroke-width: 1.5"/>
     <use xlink:href="#m356d56f42a" x="574.221951" y="397.684138" style="fill: #e7cb94; stroke: #e7cb94; stroke-width: 1.5"/>
     <use xlink:href="#m356d56f42a" x="582.750307" y="397.660029" style="fill: #e7cb94; stroke: #e7cb94; stroke-width: 1.5"/>
     <use xlink:href="#m356d56f42a" x="591.278662" y="397.638528" style="fill: #e7cb94; stroke: #e7cb94; stroke-width: 1.5"/>
     <use xlink:href="#m356d56f42a" x="599.807017" y="397.638528" style="fill: #e7cb94; stroke: #e7cb94; stroke-width: 1.5"/>
     <use xlink:href="#m356d56f42a" x="608.335372" y="397.638528" style="fill: #e7cb94; stroke: #e7cb94; stroke-width: 1.5"/>
     <use xlink:href="#m356d56f42a" x="616.863727" y="397.638528" style="fill: #e7cb94; stroke: #e7cb94; stroke-width: 1.5"/>
     <use xlink:href="#m356d56f42a" x="625.392082" y="397.638528" style="fill: #e7cb94; stroke: #e7cb94; stroke-width: 1.5"/>
     <use xlink:href="#m356d56f42a" x="633.920437" y="397.638528" style="fill: #e7cb94; stroke: #e7cb94; stroke-width: 1.5"/>
     <use xlink:href="#m356d56f42a" x="642.448792" y="397.638528" style="fill: #e7cb94; stroke: #e7cb94; stroke-width: 1.5"/>
     <use xlink:href="#m356d56f42a" x="650.977148" y="397.638528" style="fill: #e7cb94; stroke: #e7cb94; stroke-width: 1.5"/>
     <use xlink:href="#m356d56f42a" x="659.505503" y="397.638528" style="fill: #e7cb94; stroke: #e7cb94; stroke-width: 1.5"/>
     <use xlink:href="#m356d56f42a" x="668.033858" y="397.638528" style="fill: #e7cb94; stroke: #e7cb94; stroke-width: 1.5"/>
     <use xlink:href="#m356d56f42a" x="676.562213" y="397.638528" style="fill: #e7cb94; stroke: #e7cb94; stroke-width: 1.5"/>
     <use xlink:href="#m356d56f42a" x="685.090568" y="397.638528" style="fill: #e7cb94; stroke: #e7cb94; stroke-width: 1.5"/>
     <use xlink:href="#m356d56f42a" x="693.618923" y="397.638528" style="fill: #e7cb94; stroke: #e7cb94; stroke-width: 1.5"/>
     <use xlink:href="#m356d56f42a" x="702.147278" y="397.638528" style="fill: #e7cb94; stroke: #e7cb94; stroke-width: 1.5"/>
     <use xlink:href="#m356d56f42a" x="710.675633" y="397.638528" style="fill: #e7cb94; stroke: #e7cb94; stroke-width: 1.5"/>
     <use xlink:href="#m356d56f42a" x="719.203989" y="397.638528" style="fill: #e7cb94; stroke: #e7cb94; stroke-width: 1.5"/>
     <use xlink:href="#m356d56f42a" x="727.732344" y="397.638528" style="fill: #e7cb94; stroke: #e7cb94; stroke-width: 1.5"/>
     <use xlink:href="#m356d56f42a" x="736.260699" y="397.638528" style="fill: #e7cb94; stroke: #e7cb94; stroke-width: 1.5"/>
     <use xlink:href="#m356d56f42a" x="744.789054" y="397.638528" style="fill: #e7cb94; stroke: #e7cb94; stroke-width: 1.5"/>
     <use xlink:href="#m356d56f42a" x="753.317409" y="397.638528" style="fill: #e7cb94; stroke: #e7cb94; stroke-width: 1.5"/>
     <use xlink:href="#m356d56f42a" x="761.845764" y="397.638528" style="fill: #e7cb94; stroke: #e7cb94; stroke-width: 1.5"/>
     <use xlink:href="#m356d56f42a" x="770.374119" y="397.638528" style="fill: #e7cb94; stroke: #e7cb94; stroke-width: 1.5"/>
     <use xlink:href="#m356d56f42a" x="778.902474" y="397.638528" style="fill: #e7cb94; stroke: #e7cb94; stroke-width: 1.5"/>
     <use xlink:href="#m356d56f42a" x="787.430829" y="397.638528" style="fill: #e7cb94; stroke: #e7cb94; stroke-width: 1.5"/>
     <use xlink:href="#m356d56f42a" x="795.959185" y="397.638528" style="fill: #e7cb94; stroke: #e7cb94; stroke-width: 1.5"/>
     <use xlink:href="#m356d56f42a" x="804.48754" y="397.638528" style="fill: #e7cb94; stroke: #e7cb94; stroke-width: 1.5"/>
     <use xlink:href="#m356d56f42a" x="813.015895" y="397.638528" style="fill: #e7cb94; stroke: #e7cb94; stroke-width: 1.5"/>
     <use xlink:href="#m356d56f42a" x="821.54425" y="397.638528" style="fill: #e7cb94; stroke: #e7cb94; stroke-width: 1.5"/>
     <use xlink:href="#m356d56f42a" x="830.072605" y="397.638528" style="fill: #e7cb94; stroke: #e7cb94; stroke-width: 1.5"/>
     <use xlink:href="#m356d56f42a" x="838.60096" y="397.638528" style="fill: #e7cb94; stroke: #e7cb94; stroke-width: 1.5"/>
     <use xlink:href="#m356d56f42a" x="847.129315" y="397.638528" style="fill: #e7cb94; stroke: #e7cb94; stroke-width: 1.5"/>
     <use xlink:href="#m356d56f42a" x="855.65767" y="397.638528" style="fill: #e7cb94; stroke: #e7cb94; stroke-width: 1.5"/>
     <use xlink:href="#m356d56f42a" x="864.186026" y="397.638528" style="fill: #e7cb94; stroke: #e7cb94; stroke-width: 1.5"/>
     <use xlink:href="#m356d56f42a" x="872.714381" y="397.638528" style="fill: #e7cb94; stroke: #e7cb94; stroke-width: 1.5"/>
     <use xlink:href="#m356d56f42a" x="881.242736" y="397.638528" style="fill: #e7cb94; stroke: #e7cb94; stroke-width: 1.5"/>
     <use xlink:href="#m356d56f42a" x="889.771091" y="397.638528" style="fill: #e7cb94; stroke: #e7cb94; stroke-width: 1.5"/>
     <use xlink:href="#m356d56f42a" x="898.299446" y="397.638528" style="fill: #e7cb94; stroke: #e7cb94; stroke-width: 1.5"/>
     <use xlink:href="#m356d56f42a" x="906.827801" y="397.638528" style="fill: #e7cb94; stroke: #e7cb94; stroke-width: 1.5"/>
     <use xlink:href="#m356d56f42a" x="915.356156" y="397.638528" style="fill: #e7cb94; stroke: #e7cb94; stroke-width: 1.5"/>
     <use xlink:href="#m356d56f42a" x="923.884511" y="397.638528" style="fill: #e7cb94; stroke: #e7cb94; stroke-width: 1.5"/>
     <use xlink:href="#m356d56f42a" x="932.412867" y="397.638528" style="fill: #e7cb94; stroke: #e7cb94; stroke-width: 1.5"/>
     <use xlink:href="#m356d56f42a" x="940.941222" y="397.638528" style="fill: #e7cb94; stroke: #e7cb94; stroke-width: 1.5"/>
     <use xlink:href="#m356d56f42a" x="949.469577" y="397.638528" style="fill: #e7cb94; stroke: #e7cb94; stroke-width: 1.5"/>
     <use xlink:href="#m356d56f42a" x="957.997932" y="397.638528" style="fill: #e7cb94; stroke: #e7cb94; stroke-width: 1.5"/>
     <use xlink:href="#m356d56f42a" x="966.526287" y="397.638528" style="fill: #e7cb94; stroke: #e7cb94; stroke-width: 1.5"/>
     <use xlink:href="#m356d56f42a" x="975.054642" y="397.638528" style="fill: #e7cb94; stroke: #e7cb94; stroke-width: 1.5"/>
    </g>
   </g>
   <g id="patch_3">
    <path d="M 88.532127 678.237256 
L 88.532127 168.032287 
" style="fill: none; stroke: #262626; stroke-width: 0.8; stroke-linejoin: miter; stroke-linecap: square"/>
   </g>
   <g id="patch_4">
    <path d="M 88.532127 678.237256 
L 1017.27 678.237256 
" style="fill: none; stroke: #262626; stroke-width: 0.8; stroke-linejoin: miter; stroke-linecap: square"/>
   </g>
   <g id="legend_1">
    <g id="patch_5">
     <path d="M 710.132193 150.032287 
L 1038.506894 150.032287 
Q 1045.706894 150.032287 1045.706894 142.832287 
L 1045.706894 46.08 
Q 1045.706894 38.88 1038.506894 38.88 
L 710.132193 38.88 
Q 702.932193 38.88 702.932193 46.08 
L 702.932193 142.832287 
Q 702.932193 150.032287 710.132193 150.032287 
z
" style="fill: #ffffff; opacity: 0.8; stroke: #cccccc; stroke-linejoin: miter"/>
    </g>
    <g id="PathCollection_3">
     <g>
      <use xlink:href="#m52971452cf" x="753.332193" y="69.03" style="fill: #e7cb94; stroke: #e7cb94"/>
     </g>
    </g>
    <g id="text_13">
     <!-- Physical Model -->
     <g style="fill: #262626" transform="translate(818.132193 78.48) scale(0.36 -0.36)">
      <defs>
       <path id="CMSS17-50" d="M 2106 1856 
C 2874 1856 3501 2453 3501 3158 
C 3501 3850 2899 4453 2067 4453 
L 570 4453 
L 570 0 
L 1107 0 
L 1107 1856 
L 2106 1856 
z
M 1926 4096 
C 2669 4096 2995 3627 2995 3157 
C 2995 2720 2694 2226 1926 2226 
L 1094 2226 
L 1094 4096 
L 1926 4096 
z
" transform="scale(0.015625)"/>
       <path id="CMSS17-68" d="M 2618 1891 
C 2618 2292 2522 2820 1798 2820 
C 1395 2820 1133 2623 947 2407 
L 947 4448 
L 474 4448 
L 474 32 
L 960 32 
L 960 1573 
C 960 1973 1114 2432 1549 2432 
C 2112 2432 2131 2056 2131 1839 
L 2131 32 
L 2618 32 
L 2618 1891 
z
" transform="scale(0.015625)"/>
       <path id="CMSS17-79" d="M 2675 2752 
L 2176 2752 
C 1632 1294 1446 702 1434 383 
L 1427 383 
C 1408 696 1126 1460 902 2007 
L 602 2752 
L 83 2752 
L 1216 13 
C 1146 -178 1043 -465 1011 -529 
C 870 -885 774 -885 672 -885 
C 646 -885 442 -885 211 -809 
L 250 -1229 
C 410 -1261 570 -1280 685 -1280 
C 845 -1280 1165 -1280 1459 -497 
L 2675 2752 
z
" transform="scale(0.015625)"/>
       <path id="CMSS17-73" d="M 2061 2627 
C 1683 2807 1389 2807 1197 2807 
C 742 2807 198 2648 198 2003 
C 198 1359 902 1218 1094 1179 
C 1389 1122 1715 1058 1715 740 
C 1715 337 1254 337 1171 337 
C 915 337 563 407 243 638 
L 166 210 
C 531 0 883 -64 1178 -64 
C 1965 -64 2163 416 2163 781 
C 2163 1094 1984 1305 1862 1401 
C 1651 1568 1574 1587 1050 1696 
C 960 1709 646 1779 646 2066 
C 646 2432 1050 2432 1139 2432 
C 1555 2432 1811 2303 1984 2208 
L 2061 2627 
z
" transform="scale(0.015625)"/>
       <path id="CMSS17-69" d="M 979 4183 
L 442 4183 
L 442 3648 
L 979 3648 
L 979 4183 
z
M 947 2739 
L 474 2739 
L 474 0 
L 947 0 
L 947 2739 
z
" transform="scale(0.015625)"/>
       <path id="CMSS17-63" d="M 2464 2541 
C 2464 2585 2170 2714 2093 2739 
C 1882 2816 1613 2816 1542 2816 
C 710 2816 211 2093 211 1363 
C 211 595 768 -64 1517 -64 
C 1946 -64 2253 76 2502 242 
L 2464 664 
C 2189 453 1869 337 1523 337 
C 1024 337 698 774 698 1369 
C 698 1831 909 2414 1549 2414 
C 1901 2414 2099 2343 2394 2145 
L 2464 2541 
z
" transform="scale(0.015625)"/>
       <path id="CMSS17-61" d="M 2406 1791 
C 2406 2392 1978 2808 1402 2808 
C 1120 2808 813 2757 461 2553 
L 499 2135 
C 659 2248 934 2432 1395 2432 
C 1722 2432 1920 2180 1920 1782 
L 1920 1536 
C 896 1536 256 1238 256 726 
C 256 461 416 -64 947 -64 
C 1043 -64 1562 -64 1933 217 
L 1933 -19 
L 2406 -19 
L 2406 1791 
z
M 1920 816 
C 1920 701 1920 548 1728 434 
C 1562 325 1350 325 1261 325 
C 941 325 723 511 723 744 
C 723 1211 1722 1211 1920 1211 
L 1920 816 
z
" transform="scale(0.015625)"/>
       <path id="CMSS17-6c" d="M 947 4416 
L 474 4416 
L 474 0 
L 947 0 
L 947 4416 
z
" transform="scale(0.015625)"/>
       <path id="CMSS17-4d" d="M 3194 2371 
L 2886 1473 
C 2835 1307 2662 791 2624 587 
L 2618 587 
C 2598 715 2560 849 2458 1174 
C 2400 1365 2336 1562 2272 1741 
L 1325 4416 
L 576 4416 
L 576 0 
L 1075 0 
L 1075 3900 
L 1082 3900 
C 1082 3894 1139 3613 1530 2499 
L 2374 96 
L 2848 96 
L 3610 2231 
C 3661 2378 3821 2843 3891 3066 
C 3955 3257 4115 3728 4154 3913 
L 4160 3913 
L 4160 0 
L 4666 0 
L 4666 4416 
L 3923 4416 
L 3194 2371 
z
" transform="scale(0.015625)"/>
       <path id="CMSS17-6f" d="M 2829 1356 
C 2829 2176 2221 2816 1504 2816 
C 768 2816 173 2157 173 1356 
C 173 544 787 -64 1498 -64 
C 2227 -64 2829 563 2829 1356 
z
M 1504 337 
C 1050 337 659 709 659 1408 
C 659 2151 1114 2427 1498 2427 
C 1914 2427 2342 2126 2342 1408 
C 2342 683 1926 337 1504 337 
z
" transform="scale(0.015625)"/>
       <path id="CMSS17-64" d="M 2611 4416 
L 2138 4416 
L 2138 2438 
C 1939 2603 1613 2756 1254 2756 
C 672 2756 211 2131 211 1347 
C 211 562 666 -64 1235 -64 
C 1677 -64 1971 172 2125 306 
L 2125 -13 
L 2611 -13 
L 2611 4416 
z
M 2125 836 
C 2125 747 2125 653 1926 482 
C 1798 375 1645 325 1498 325 
C 1152 325 698 576 698 1340 
C 698 2134 1210 2368 1562 2368 
C 1798 2368 1990 2254 2125 2065 
L 2125 836 
z
" transform="scale(0.015625)"/>
       <path id="CMSS17-65" d="M 2502 1377 
C 2502 1590 2490 2003 2285 2345 
C 2061 2713 1696 2816 1421 2816 
C 755 2816 192 2188 192 1375 
C 192 582 774 -64 1510 -64 
C 1798 -64 2150 19 2470 248 
C 2470 274 2458 414 2451 420 
C 2451 433 2432 630 2432 656 
C 2125 407 1773 325 1517 325 
C 1107 325 666 667 646 1377 
L 2502 1377 
z
M 698 1728 
C 781 2084 1062 2421 1421 2421 
C 1517 2421 1965 2421 2080 1728 
L 698 1728 
z
" transform="scale(0.015625)"/>
      </defs>
      <use xlink:href="#CMSS17-50" transform="scale(0.996264)"/>
      <use xlink:href="#CMSS17-68" transform="translate(59.735586 0) scale(0.996264)"/>
      <use xlink:href="#CMSS17-79" transform="translate(107.940529 0) scale(0.996264)"/>
      <use xlink:href="#CMSS17-73" transform="translate(150.940671 0) scale(0.996264)"/>
      <use xlink:href="#CMSS17-69" transform="translate(186.854213 0) scale(0.996264)"/>
      <use xlink:href="#CMSS17-63" transform="translate(209.034936 0) scale(0.996264)"/>
      <use xlink:href="#CMSS17-61" transform="translate(250.673758 0) scale(0.996264)"/>
      <use xlink:href="#CMSS17-6c" transform="translate(295.595679 0) scale(0.996264)"/>
      <use xlink:href="#CMSS17-4d" transform="translate(349.005515 0) scale(0.996264)"/>
      <use xlink:href="#CMSS17-6f" transform="translate(430.681545 0) scale(0.996264)"/>
      <use xlink:href="#CMSS17-64" transform="translate(480.127607 0) scale(0.996264)"/>
      <use xlink:href="#CMSS17-65" transform="translate(528.33255 0) scale(0.996264)"/>
      <use xlink:href="#CMSS17-6c" transform="translate(569.971372 0) scale(0.996264)"/>
     </g>
    </g>
    <g id="PathCollection_4">
     <g>
      <use xlink:href="#m356d56f42a" x="753.332193" y="119.206144" style="fill: #e7cb94; stroke: #e7cb94; stroke-width: 1.5"/>
     </g>
    </g>
    <g id="text_14">
     <!-- ML Model -->
     <g style="fill: #262626" transform="translate(818.132193 128.656144) scale(0.36 -0.36)">
      <defs>
       <path id="CMSS17-4c" d="M 1670 414 
C 1594 414 1517 414 1440 414 
L 1101 414 
L 1101 4416 
L 563 4416 
L 563 0 
L 3002 0 
L 3002 414 
L 1670 414 
z
" transform="scale(0.015625)"/>
      </defs>
      <use xlink:href="#CMSS17-4d" transform="scale(0.996264)"/>
      <use xlink:href="#CMSS17-4c" transform="translate(81.67603 0) scale(0.996264)"/>
      <use xlink:href="#CMSS17-4d" transform="translate(163.592248 0) scale(0.996264)"/>
      <use xlink:href="#CMSS17-6f" transform="translate(245.268278 0) scale(0.996264)"/>
      <use xlink:href="#CMSS17-64" transform="translate(294.71434 0) scale(0.996264)"/>
      <use xlink:href="#CMSS17-65" transform="translate(342.919283 0) scale(0.996264)"/>
      <use xlink:href="#CMSS17-6c" transform="translate(384.558105 0) scale(0.996264)"/>
     </g>
    </g>
   </g>
  </g>
 </g>
 <defs>
  <clipPath id="pd9c7136d61">
   <rect x="88.532127" y="168.032287" width="928.737873" height="510.204969"/>
  </clipPath>
 </defs>
</svg>
