<?xml version="1.0" encoding="utf-8" standalone="no"?>
<!DOCTYPE svg PUBLIC "-//W3C//DTD SVG 1.1//EN"
  "http://www.w3.org/Graphics/SVG/1.1/DTD/svg11.dtd">
<svg xmlns:xlink="http://www.w3.org/1999/xlink" width="1080pt" height="756pt" viewBox="0 0 1080 756" xmlns="http://www.w3.org/2000/svg" version="1.1">
 <metadata>
  <rdf:RDF xmlns:dc="http://purl.org/dc/elements/1.1/" xmlns:cc="http://creativecommons.org/ns#" xmlns:rdf="http://www.w3.org/1999/02/22-rdf-syntax-ns#">
   <cc:Work>
    <dc:type rdf:resource="http://purl.org/dc/dcmitype/StillImage"/>
    <dc:date>2024-07-30T20:13:57.049667</dc:date>
    <dc:format>image/svg+xml</dc:format>
    <dc:creator>
     <cc:Agent>
      <dc:title>Matplotlib v3.9.0, https://matplotlib.org/</dc:title>
     </cc:Agent>
    </dc:creator>
   </cc:Work>
  </rdf:RDF>
 </metadata>
 <defs>
  <style type="text/css">*{stroke-linejoin: round; stroke-linecap: butt}</style>
 </defs>
 <g id="figure_1">
  <g id="patch_1">
   <path d="M 0 756 
L 1080 756 
L 1080 0 
L 0 0 
z
" style="fill: #ffffff"/>
  </g>
  <g id="axes_1">
   <g id="patch_2">
    <path d="M 88.532127 678.237256 
L 1041.12 678.237256 
L 1041.12 38.88 
L 88.532127 38.88 
z
" style="fill: #ffffff"/>
   </g>
   <g id="matplotlib.axis_1">
    <g id="xtick_1">
     <g id="line2d_1">
      <defs>
       <path id="mb30a9812c5" d="M 0 0 
L 0 3.5 
" style="stroke: #262626; stroke-width: 0.8"/>
      </defs>
      <g>
       <use xlink:href="#mb30a9812c5" x="131.831576" y="678.237256" style="fill: #262626; stroke: #262626; stroke-width: 0.8"/>
      </g>
     </g>
     <g id="text_1">
      <!-- $\mathdefault{0.0}$ -->
      <g style="fill: #262626" transform="translate(110.505512 710.143856) scale(0.36 -0.36)">
       <defs>
        <path id="CMR17-30" d="M 2688 2025 
C 2688 2416 2682 3080 2413 3591 
C 2176 4039 1798 4198 1466 4198 
C 1158 4198 768 4058 525 3597 
C 269 3118 243 2524 243 2025 
C 243 1661 250 1106 448 619 
C 723 -39 1216 -128 1466 -128 
C 1760 -128 2208 -7 2470 600 
C 2662 1042 2688 1559 2688 2025 
z
M 1466 -26 
C 1056 -26 813 325 723 812 
C 653 1188 653 1738 653 2096 
C 653 2588 653 2997 736 3387 
C 858 3929 1216 4096 1466 4096 
C 1728 4096 2067 3923 2189 3400 
C 2272 3036 2278 2607 2278 2096 
C 2278 1680 2278 1169 2202 792 
C 2067 95 1690 -26 1466 -26 
z
" transform="scale(0.015625)"/>
        <path id="CMMI12-3a" d="M 1178 307 
C 1178 492 1024 619 870 619 
C 685 619 557 466 557 313 
C 557 128 710 0 864 0 
C 1050 0 1178 153 1178 307 
z
" transform="scale(0.015625)"/>
       </defs>
       <use xlink:href="#CMR17-30" transform="scale(0.996264)"/>
       <use xlink:href="#CMMI12-3a" transform="translate(45.690477 0) scale(0.996264)"/>
       <use xlink:href="#CMR17-30" transform="translate(72.787654 0) scale(0.996264)"/>
      </g>
     </g>
    </g>
    <g id="xtick_2">
     <g id="line2d_2">
      <g>
       <use xlink:href="#mb30a9812c5" x="305.029371" y="678.237256" style="fill: #262626; stroke: #262626; stroke-width: 0.8"/>
      </g>
     </g>
     <g id="text_2">
      <!-- $\mathdefault{0.2}$ -->
      <g style="fill: #262626" transform="translate(283.703307 710.143856) scale(0.36 -0.36)">
       <defs>
        <path id="CMR17-32" d="M 2669 989 
L 2554 989 
C 2490 536 2438 459 2413 420 
C 2381 369 1920 369 1830 369 
L 602 369 
C 832 619 1280 1072 1824 1597 
C 2214 1967 2669 2402 2669 3035 
C 2669 3790 2067 4224 1395 4224 
C 691 4224 262 3604 262 3030 
C 262 2780 448 2748 525 2748 
C 589 2748 781 2787 781 3010 
C 781 3207 614 3264 525 3264 
C 486 3264 448 3258 422 3245 
C 544 3790 915 4058 1306 4058 
C 1862 4058 2227 3617 2227 3035 
C 2227 2479 1901 2000 1536 1584 
L 262 146 
L 262 0 
L 2515 0 
L 2669 989 
z
" transform="scale(0.015625)"/>
       </defs>
       <use xlink:href="#CMR17-30" transform="scale(0.996264)"/>
       <use xlink:href="#CMMI12-3a" transform="translate(45.690477 0) scale(0.996264)"/>
       <use xlink:href="#CMR17-32" transform="translate(72.787654 0) scale(0.996264)"/>
      </g>
     </g>
    </g>
    <g id="xtick_3">
     <g id="line2d_3">
      <g>
       <use xlink:href="#mb30a9812c5" x="478.227166" y="678.237256" style="fill: #262626; stroke: #262626; stroke-width: 0.8"/>
      </g>
     </g>
     <g id="text_3">
      <!-- $\mathdefault{0.4}$ -->
      <g style="fill: #262626" transform="translate(456.901102 710.143856) scale(0.36 -0.36)">
       <defs>
        <path id="CMR17-34" d="M 2150 4122 
C 2150 4256 2144 4256 2029 4256 
L 128 1254 
L 128 1088 
L 1779 1088 
L 1779 457 
C 1779 224 1766 160 1318 160 
L 1197 160 
L 1197 0 
C 1402 0 1747 0 1965 0 
C 2182 0 2528 0 2733 0 
L 2733 160 
L 2611 160 
C 2163 160 2150 224 2150 457 
L 2150 1088 
L 2803 1088 
L 2803 1254 
L 2150 1254 
L 2150 4122 
z
M 1798 3703 
L 1798 1254 
L 256 1254 
L 1798 3703 
z
" transform="scale(0.015625)"/>
       </defs>
       <use xlink:href="#CMR17-30" transform="scale(0.996264)"/>
       <use xlink:href="#CMMI12-3a" transform="translate(45.690477 0) scale(0.996264)"/>
       <use xlink:href="#CMR17-34" transform="translate(72.787654 0) scale(0.996264)"/>
      </g>
     </g>
    </g>
    <g id="xtick_4">
     <g id="line2d_4">
      <g>
       <use xlink:href="#mb30a9812c5" x="651.424961" y="678.237256" style="fill: #262626; stroke: #262626; stroke-width: 0.8"/>
      </g>
     </g>
     <g id="text_4">
      <!-- $\mathdefault{0.6}$ -->
      <g style="fill: #262626" transform="translate(630.098898 710.143856) scale(0.36 -0.36)">
       <defs>
        <path id="CMR17-36" d="M 678 2176 
C 678 3690 1395 4032 1811 4032 
C 1946 4032 2272 4009 2400 3776 
C 2298 3776 2106 3776 2106 3553 
C 2106 3381 2246 3323 2336 3323 
C 2394 3323 2566 3348 2566 3560 
C 2566 3954 2246 4179 1805 4179 
C 1043 4179 243 3390 243 1984 
C 243 253 966 -128 1478 -128 
C 2099 -128 2688 427 2688 1283 
C 2688 2081 2170 2662 1517 2662 
C 1126 2662 838 2407 678 1960 
L 678 2176 
z
M 1478 25 
C 691 25 691 1200 691 1436 
C 691 1896 909 2560 1504 2560 
C 1613 2560 1926 2560 2138 2120 
C 2253 1870 2253 1609 2253 1289 
C 2253 944 2253 690 2118 434 
C 1978 171 1773 25 1478 25 
z
" transform="scale(0.015625)"/>
       </defs>
       <use xlink:href="#CMR17-30" transform="scale(0.996264)"/>
       <use xlink:href="#CMMI12-3a" transform="translate(45.690477 0) scale(0.996264)"/>
       <use xlink:href="#CMR17-36" transform="translate(72.787654 0) scale(0.996264)"/>
      </g>
     </g>
    </g>
    <g id="xtick_5">
     <g id="line2d_5">
      <g>
       <use xlink:href="#mb30a9812c5" x="824.622756" y="678.237256" style="fill: #262626; stroke: #262626; stroke-width: 0.8"/>
      </g>
     </g>
     <g id="text_5">
      <!-- $\mathdefault{0.8}$ -->
      <g style="fill: #262626" transform="translate(803.296693 710.143856) scale(0.36 -0.36)">
       <defs>
        <path id="CMR17-38" d="M 1741 2264 
C 2144 2467 2554 2773 2554 3263 
C 2554 3841 1990 4179 1472 4179 
C 890 4179 378 3759 378 3180 
C 378 3021 416 2747 666 2505 
C 730 2442 998 2251 1171 2130 
C 883 1983 211 1634 211 934 
C 211 279 838 -128 1459 -128 
C 2144 -128 2720 362 2720 1010 
C 2720 1590 2330 1857 2074 2029 
L 1741 2264 
z
M 902 2822 
C 851 2854 595 3051 595 3351 
C 595 3739 998 4032 1459 4032 
C 1965 4032 2336 3676 2336 3262 
C 2336 2669 1670 2331 1638 2331 
C 1632 2331 1626 2331 1574 2370 
L 902 2822 
z
M 2080 1519 
C 2176 1449 2483 1240 2483 851 
C 2483 381 2010 25 1472 25 
C 890 25 448 438 448 940 
C 448 1443 838 1862 1280 2060 
L 2080 1519 
z
" transform="scale(0.015625)"/>
       </defs>
       <use xlink:href="#CMR17-30" transform="scale(0.996264)"/>
       <use xlink:href="#CMMI12-3a" transform="translate(45.690477 0) scale(0.996264)"/>
       <use xlink:href="#CMR17-38" transform="translate(72.787654 0) scale(0.996264)"/>
      </g>
     </g>
    </g>
    <g id="xtick_6">
     <g id="line2d_6">
      <g>
       <use xlink:href="#mb30a9812c5" x="997.820551" y="678.237256" style="fill: #262626; stroke: #262626; stroke-width: 0.8"/>
      </g>
     </g>
     <g id="text_6">
      <!-- $\mathdefault{1.0}$ -->
      <g style="fill: #262626" transform="translate(976.494488 710.143856) scale(0.36 -0.36)">
       <defs>
        <path id="CMR17-31" d="M 1702 4058 
C 1702 4192 1696 4192 1606 4192 
C 1357 3916 979 3827 621 3827 
C 602 3827 570 3827 563 3808 
C 557 3795 557 3782 557 3648 
C 755 3648 1088 3686 1344 3839 
L 1344 461 
C 1344 236 1331 160 781 160 
L 589 160 
L 589 0 
C 896 0 1216 0 1523 0 
C 1830 0 2150 0 2458 0 
L 2458 160 
L 2266 160 
C 1715 160 1702 230 1702 458 
L 1702 4058 
z
" transform="scale(0.015625)"/>
       </defs>
       <use xlink:href="#CMR17-31" transform="scale(0.996264)"/>
       <use xlink:href="#CMMI12-3a" transform="translate(45.690477 0) scale(0.996264)"/>
       <use xlink:href="#CMR17-30" transform="translate(72.787654 0) scale(0.996264)"/>
      </g>
     </g>
    </g>
   </g>
   <g id="matplotlib.axis_2">
    <g id="ytick_1">
     <g id="line2d_7">
      <defs>
       <path id="m9545fbb657" d="M 0 0 
L -3.5 0 
" style="stroke: #262626; stroke-width: 0.8"/>
      </defs>
      <g>
       <use xlink:href="#m9545fbb657" x="88.532127" y="631.248385" style="fill: #262626; stroke: #262626; stroke-width: 0.8"/>
      </g>
     </g>
     <g id="text_7">
      <!-- $\mathdefault{0.0}$ -->
      <g style="fill: #262626" transform="translate(38.88 643.701685) scale(0.36 -0.36)">
       <use xlink:href="#CMR17-30" transform="scale(0.996264)"/>
       <use xlink:href="#CMMI12-3a" transform="translate(45.690477 0) scale(0.996264)"/>
       <use xlink:href="#CMR17-30" transform="translate(72.787654 0) scale(0.996264)"/>
      </g>
     </g>
    </g>
    <g id="ytick_2">
     <g id="line2d_8">
      <g>
       <use xlink:href="#m9545fbb657" x="88.532127" y="518.587047" style="fill: #262626; stroke: #262626; stroke-width: 0.8"/>
      </g>
     </g>
     <g id="text_8">
      <!-- $\mathdefault{0.2}$ -->
      <g style="fill: #262626" transform="translate(38.88 531.040347) scale(0.36 -0.36)">
       <use xlink:href="#CMR17-30" transform="scale(0.996264)"/>
       <use xlink:href="#CMMI12-3a" transform="translate(45.690477 0) scale(0.996264)"/>
       <use xlink:href="#CMR17-32" transform="translate(72.787654 0) scale(0.996264)"/>
      </g>
     </g>
    </g>
    <g id="ytick_3">
     <g id="line2d_9">
      <g>
       <use xlink:href="#m9545fbb657" x="88.532127" y="405.925708" style="fill: #262626; stroke: #262626; stroke-width: 0.8"/>
      </g>
     </g>
     <g id="text_9">
      <!-- $\mathdefault{0.4}$ -->
      <g style="fill: #262626" transform="translate(38.88 418.379008) scale(0.36 -0.36)">
       <use xlink:href="#CMR17-30" transform="scale(0.996264)"/>
       <use xlink:href="#CMMI12-3a" transform="translate(45.690477 0) scale(0.996264)"/>
       <use xlink:href="#CMR17-34" transform="translate(72.787654 0) scale(0.996264)"/>
      </g>
     </g>
    </g>
    <g id="ytick_4">
     <g id="line2d_10">
      <g>
       <use xlink:href="#m9545fbb657" x="88.532127" y="293.26437" style="fill: #262626; stroke: #262626; stroke-width: 0.8"/>
      </g>
     </g>
     <g id="text_10">
      <!-- $\mathdefault{0.6}$ -->
      <g style="fill: #262626" transform="translate(38.88 305.71767) scale(0.36 -0.36)">
       <use xlink:href="#CMR17-30" transform="scale(0.996264)"/>
       <use xlink:href="#CMMI12-3a" transform="translate(45.690477 0) scale(0.996264)"/>
       <use xlink:href="#CMR17-36" transform="translate(72.787654 0) scale(0.996264)"/>
      </g>
     </g>
    </g>
    <g id="ytick_5">
     <g id="line2d_11">
      <g>
       <use xlink:href="#m9545fbb657" x="88.532127" y="180.603032" style="fill: #262626; stroke: #262626; stroke-width: 0.8"/>
      </g>
     </g>
     <g id="text_11">
      <!-- $\mathdefault{0.8}$ -->
      <g style="fill: #262626" transform="translate(38.88 193.056332) scale(0.36 -0.36)">
       <use xlink:href="#CMR17-30" transform="scale(0.996264)"/>
       <use xlink:href="#CMMI12-3a" transform="translate(45.690477 0) scale(0.996264)"/>
       <use xlink:href="#CMR17-38" transform="translate(72.787654 0) scale(0.996264)"/>
      </g>
     </g>
    </g>
    <g id="ytick_6">
     <g id="line2d_12">
      <g>
       <use xlink:href="#m9545fbb657" x="88.532127" y="67.941693" style="fill: #262626; stroke: #262626; stroke-width: 0.8"/>
      </g>
     </g>
     <g id="text_12">
      <!-- $\mathdefault{1.0}$ -->
      <g style="fill: #262626" transform="translate(38.88 80.394994) scale(0.36 -0.36)">
       <use xlink:href="#CMR17-31" transform="scale(0.996264)"/>
       <use xlink:href="#CMMI12-3a" transform="translate(45.690477 0) scale(0.996264)"/>
       <use xlink:href="#CMR17-30" transform="translate(72.787654 0) scale(0.996264)"/>
      </g>
     </g>
    </g>
   </g>
   <g id="line2d_13">
    <path d="M 131.831576 67.941693 
L 997.820551 67.941693 
L 997.820551 67.941693 
" clip-path="url(#p220ede7828)" style="fill: none; stroke: #1f77b4; stroke-width: 5; stroke-linecap: round"/>
   </g>
   <g id="line2d_14">
    <path d="M 131.831576 357.60552 
L 166.471135 348.111385 
L 201.110694 338.840988 
L 235.750253 329.797236 
L 270.389812 320.98196 
L 305.029371 312.395988 
L 339.66893 304.03961 
L 374.308489 295.911616 
L 408.948048 288.011732 
L 443.587607 280.338332 
L 478.227166 272.888211 
L 512.866725 265.658493 
L 547.506284 258.647646 
L 582.145843 251.850872 
L 616.785402 245.265149 
L 651.424961 238.88656 
L 686.06452 232.711059 
L 720.704079 226.73468 
L 761.116898 220.00716 
L 801.529717 213.537695 
L 841.942536 207.31841 
L 882.355355 201.342728 
L 922.768173 195.602351 
L 963.180992 190.09021 
L 997.820551 185.542243 
L 997.820551 185.542243 
" clip-path="url(#p220ede7828)" style="fill: none; stroke: #ff7f0e; stroke-width: 5; stroke-linecap: round"/>
   </g>
   <g id="line2d_15">
    <path d="M 131.831576 492.359767 
L 224.203733 462.280788 
L 276.163072 445.574932 
L 322.349151 430.940164 
L 362.761969 418.339304 
L 403.174788 405.956876 
L 443.587607 393.814679 
L 484.000426 381.930786 
L 518.639985 371.961401 
L 553.279544 362.199964 
L 587.919103 352.65244 
L 622.558662 343.32392 
L 657.198221 334.217226 
L 691.83778 325.335611 
L 726.477339 316.679836 
L 761.116898 308.250397 
L 795.756457 300.048095 
L 830.396016 292.071162 
L 865.035575 284.319184 
L 899.675134 276.789009 
L 934.314693 269.479432 
L 968.954252 262.386687 
L 997.820551 256.640111 
L 997.820551 256.640111 
" clip-path="url(#p220ede7828)" style="fill: none; stroke: #2ca02c; stroke-width: 5; stroke-linecap: round"/>
   </g>
   <g id="line2d_16">
    <path d="M 131.831576 559.071241 
L 160.697875 550.311986 
L 195.337434 539.556794 
L 235.750253 526.75103 
L 287.709592 510.012878 
L 397.401528 474.322179 
L 460.907387 453.803221 
L 512.866725 437.248809 
L 559.052804 422.775698 
L 599.465623 410.333448 
L 639.878441 398.123088 
L 680.29126 386.163542 
L 714.930819 376.124579 
L 749.570378 366.290159 
L 784.209937 356.666869 
L 818.849496 347.259286 
L 853.489055 338.072077 
L 888.128614 329.107987 
L 922.768173 320.368993 
L 957.407732 311.855466 
L 992.047291 303.568178 
L 997.820551 302.209273 
L 997.820551 302.209273 
" clip-path="url(#p220ede7828)" style="fill: none; stroke: #d62728; stroke-width: 5; stroke-linecap: round"/>
   </g>
   <g id="line2d_17">
    <path d="M 131.831576 593.346247 
L 154.924615 587.421443 
L 178.017655 581.243901 
L 201.110694 574.840809 
L 224.203733 568.237821 
L 253.070033 559.739502 
L 281.936332 551.009873 
L 316.575891 540.285376 
L 356.98871 527.509189 
L 403.174788 512.667721 
L 484.000426 486.406477 
L 564.826064 460.200681 
L 616.785402 443.566575 
L 662.971481 428.999537 
L 703.3843 416.460107 
L 743.797119 404.141161 
L 784.209937 392.063437 
L 824.622756 380.245316 
L 859.262315 370.332224 
L 893.901874 360.627396 
L 928.541433 351.136497 
L 963.180992 341.864072 
L 997.820551 332.813485 
L 997.820551 332.813485 
" clip-path="url(#p220ede7828)" style="fill: none; stroke: #9467bd; stroke-width: 5; stroke-linecap: round"/>
   </g>
   <g id="line2d_18">
    <path d="M 131.831576 611.306057 
L 149.151356 607.73989 
L 166.471135 603.964524 
L 183.790915 599.99457 
L 201.110694 595.844065 
L 224.203733 590.052258 
L 247.296773 583.993384 
L 270.389812 577.695803 
L 293.482851 571.186108 
L 322.349151 562.788588 
L 351.21545 554.143675 
L 385.855009 543.501635 
L 420.494568 532.628367 
L 466.680646 517.87166 
L 530.186505 497.301904 
L 651.424961 457.982293 
L 703.3843 441.384991 
L 749.570378 426.858291 
L 789.983197 414.359231 
L 830.396016 402.084243 
L 870.808835 390.053853 
L 911.221654 378.285036 
L 945.861213 368.416082 
L 980.500772 358.756504 
L 997.820551 354.00665 
L 997.820551 354.00665 
" clip-path="url(#p220ede7828)" style="fill: none; stroke: #8c564b; stroke-width: 5; stroke-linecap: round"/>
   </g>
   <g id="line2d_19">
    <path d="M 131.831576 620.798151 
L 149.151356 617.995977 
L 166.471135 614.932928 
L 183.790915 611.625902 
L 201.110694 608.091092 
L 218.430474 604.344043 
L 235.750253 600.399696 
L 253.070033 596.272363 
L 276.163072 590.508064 
L 299.256111 584.473294 
L 322.349151 578.196832 
L 345.44219 571.705663 
L 374.308489 563.328026 
L 403.174788 554.699856 
L 437.814347 544.074251 
L 472.453906 533.213949 
L 518.639985 518.46994 
L 582.145843 497.910437 
L 703.3843 458.592599 
L 755.343638 441.990589 
L 801.529717 427.457324 
L 841.942536 414.951349 
L 882.355355 402.668151 
L 922.768173 390.628747 
L 963.180992 378.849887 
L 997.820551 368.971862 
L 997.820551 368.971862 
" clip-path="url(#p220ede7828)" style="fill: none; stroke: #e377c2; stroke-width: 5; stroke-linecap: round"/>
   </g>
   <g id="line2d_20">
    <path d="M 131.831576 626.481431 
L 143.378096 624.496473 
L 178.017655 619.378415 
L 195.337434 616.44807 
L 212.657214 613.26399 
L 229.976993 609.842959 
L 247.296773 606.201114 
L 264.616552 602.353947 
L 281.936332 598.316221 
L 305.029371 592.660508 
L 328.12241 586.722706 
L 351.21545 580.532517 
L 374.308489 574.117732 
L 397.401528 567.504256 
L 426.267828 558.994852 
L 455.134127 550.256705 
L 489.773686 539.525317 
L 530.186505 526.745564 
L 582.145843 510.038627 
L 680.29126 478.154613 
L 749.570378 455.771089 
L 801.529717 439.212623 
L 847.715796 424.728211 
L 888.128614 412.271013 
L 928.541433 400.041433 
L 968.954252 388.059534 
L 997.820551 379.661908 
L 997.820551 379.661908 
" clip-path="url(#p220ede7828)" style="fill: none; stroke: #7f7f7f; stroke-width: 5; stroke-linecap: round"/>
   </g>
   <g id="line2d_21">
    <path d="M 131.831576 633.113232 
L 137.604836 631.374096 
L 143.378096 629.80795 
L 149.151356 628.412009 
L 154.924615 627.162598 
L 160.697875 626.042694 
L 172.244395 624.141765 
L 195.337434 620.830394 
L 212.657214 618.045345 
L 229.976993 614.996354 
L 247.296773 611.700916 
L 264.616552 608.175784 
L 281.936332 604.436927 
L 299.256111 600.499611 
L 316.575891 596.378348 
L 339.66893 590.621048 
L 362.761969 584.592326 
L 385.855009 578.321161 
L 408.948048 571.834677 
L 437.814347 563.462305 
L 466.680646 554.838912 
L 501.320205 544.218425 
L 535.959764 533.362743 
L 582.145843 518.624272 
L 645.651701 498.071284 
L 766.890158 458.762483 
L 818.849496 442.163068 
L 865.035575 427.631912 
L 905.448394 415.127022 
L 945.861213 402.844298 
L 986.274032 390.805095 
L 997.820551 387.412483 
L 997.820551 387.412483 
" clip-path="url(#p220ede7828)" style="fill: none; stroke: #bcbd22; stroke-width: 5; stroke-linecap: round"/>
   </g>
   <g id="line2d_22">
    <path d="M 131.831576 640.779815 
L 137.604836 638.223887 
L 143.378096 635.92805 
L 149.151356 633.885369 
L 154.924615 632.06046 
L 160.697875 630.427472 
L 166.471135 628.969153 
L 172.244395 627.661456 
L 178.017655 626.491861 
L 189.564174 624.502882 
L 224.203733 619.395101 
L 241.523513 616.469338 
L 258.843292 613.288755 
L 276.163072 609.870549 
L 293.482851 606.231099 
L 310.802631 602.386053 
L 328.12241 598.350265 
L 351.21545 592.696975 
L 374.308489 586.761539 
L 397.401528 580.57363 
L 420.494568 574.161023 
L 443.587607 567.549783 
L 472.453906 559.043065 
L 501.320205 550.307549 
L 535.959764 539.579167 
L 576.372583 526.802946 
L 628.331922 510.100085 
L 726.477339 478.222871 
L 795.756457 455.843194 
L 847.715796 439.28718 
L 893.901874 424.804727 
L 934.314693 412.348769 
L 974.727512 400.120384 
L 997.820551 393.242648 
L 997.820551 393.242648 
" clip-path="url(#p220ede7828)" style="fill: none; stroke: #17becf; stroke-width: 5; stroke-linecap: round"/>
   </g>
   <g id="line2d_23">
    <path d="M 131.831576 649.175563 
L 137.604836 645.709311 
L 143.378096 642.602461 
L 149.151356 639.843329 
L 154.924615 637.383018 
L 160.697875 635.185177 
L 166.471135 633.224744 
L 172.244395 631.469142 
L 178.017655 629.900361 
L 183.790915 628.494477 
L 189.564174 627.238209 
L 195.337434 626.11316 
L 206.883954 624.200606 
L 229.976993 620.892837 
L 247.296773 618.115689 
L 264.616552 615.073829 
L 281.936332 611.784914 
L 299.256111 608.265817 
L 316.575891 604.532571 
L 333.89567 600.600506 
L 351.21545 596.484152 
L 374.308489 590.732993 
L 397.401528 584.709884 
L 420.494568 578.443894 
L 443.587607 571.962239 
L 472.453906 563.595305 
L 501.320205 554.976758 
L 535.959764 544.361394 
L 570.599323 533.510217 
L 616.785402 518.776673 
L 680.29126 498.228728 
L 801.529717 458.924958 
L 853.489055 442.326085 
L 899.675134 427.794595 
L 940.087953 415.289129 
L 980.500772 403.005768 
L 997.820551 397.814595 
L 997.820551 397.814595 
" clip-path="url(#p220ede7828)" style="fill: none; stroke: #17becf; stroke-width: 5; stroke-linecap: round"/>
   </g>
   <g id="patch_3">
    <path d="M 88.532127 678.237256 
L 88.532127 38.88 
" style="fill: none; stroke: #262626; stroke-width: 0.8; stroke-linejoin: miter; stroke-linecap: square"/>
   </g>
   <g id="patch_4">
    <path d="M 88.532127 678.237256 
L 1041.12 678.237256 
" style="fill: none; stroke: #262626; stroke-width: 0.8; stroke-linejoin: miter; stroke-linecap: square"/>
   </g>
  </g>
 </g>
 <defs>
  <clipPath id="p220ede7828">
   <rect x="88.532127" y="38.88" width="952.587873" height="639.357256"/>
  </clipPath>
 </defs>
</svg>
