<?xml version="1.0" encoding="utf-8" standalone="no"?>
<!DOCTYPE svg PUBLIC "-//W3C//DTD SVG 1.1//EN"
  "http://www.w3.org/Graphics/SVG/1.1/DTD/svg11.dtd">
<svg xmlns:xlink="http://www.w3.org/1999/xlink" width="1080pt" height="576pt" viewBox="0 0 1080 576" xmlns="http://www.w3.org/2000/svg" version="1.1">
 <metadata>
  <rdf:RDF xmlns:dc="http://purl.org/dc/elements/1.1/" xmlns:cc="http://creativecommons.org/ns#" xmlns:rdf="http://www.w3.org/1999/02/22-rdf-syntax-ns#">
   <cc:Work>
    <dc:type rdf:resource="http://purl.org/dc/dcmitype/StillImage"/>
    <dc:date>2024-07-17T11:20:08.231144</dc:date>
    <dc:format>image/svg+xml</dc:format>
    <dc:creator>
     <cc:Agent>
      <dc:title>Matplotlib v3.9.0, https://matplotlib.org/</dc:title>
     </cc:Agent>
    </dc:creator>
   </cc:Work>
  </rdf:RDF>
 </metadata>
 <defs>
  <style type="text/css">*{stroke-linejoin: round; stroke-linecap: butt}</style>
 </defs>
 <g id="figure_1">
  <g id="patch_1">
   <path d="M 0 576 
L 1080 576 
L 1080 0 
L 0 0 
z
" style="fill: #ffffff"/>
  </g>
  <g id="axes_1">
   <g id="patch_2">
    <path d="M 69.793325 515.449571 
L 1060.56 515.449571 
L 1060.56 19.44 
L 69.793325 19.44 
z
" style="fill: #eaeaf2"/>
   </g>
   <g id="matplotlib.axis_1">
    <g id="xtick_1">
     <g id="line2d_1">
      <path d="M 114.828174 515.449571 
L 114.828174 19.44 
" clip-path="url(#p0f9243c534)" style="fill: none; stroke: #ffffff; stroke-width: 0.8; stroke-linecap: round"/>
     </g>
     <g id="text_1">
      <!-- $\mathdefault{0.3}$ -->
      <g style="fill: #262626" transform="translate(104.856413 533.519159) scale(0.16 -0.16)">
       <defs>
        <path id="CMR17-30" d="M 2688 2025 
C 2688 2416 2682 3080 2413 3591 
C 2176 4039 1798 4198 1466 4198 
C 1158 4198 768 4058 525 3597 
C 269 3118 243 2524 243 2025 
C 243 1661 250 1106 448 619 
C 723 -39 1216 -128 1466 -128 
C 1760 -128 2208 -7 2470 600 
C 2662 1042 2688 1559 2688 2025 
z
M 1466 -26 
C 1056 -26 813 325 723 812 
C 653 1188 653 1738 653 2096 
C 653 2588 653 2997 736 3387 
C 858 3929 1216 4096 1466 4096 
C 1728 4096 2067 3923 2189 3400 
C 2272 3036 2278 2607 2278 2096 
C 2278 1680 2278 1169 2202 792 
C 2067 95 1690 -26 1466 -26 
z
" transform="scale(0.015625)"/>
        <path id="CMMI12-3a" d="M 1178 307 
C 1178 492 1024 619 870 619 
C 685 619 557 466 557 313 
C 557 128 710 0 864 0 
C 1050 0 1178 153 1178 307 
z
" transform="scale(0.015625)"/>
        <path id="CMR17-33" d="M 1414 2157 
C 1984 2157 2234 1662 2234 1090 
C 2234 320 1824 25 1453 25 
C 1114 25 563 194 390 693 
C 422 680 454 680 486 680 
C 640 680 755 782 755 948 
C 755 1133 614 1216 486 1216 
C 378 1216 211 1165 211 926 
C 211 335 787 -128 1466 -128 
C 2176 -128 2720 430 2720 1085 
C 2720 1707 2208 2157 1600 2227 
C 2086 2328 2554 2756 2554 3329 
C 2554 3820 2048 4179 1472 4179 
C 890 4179 378 3829 378 3329 
C 378 3110 544 3072 627 3072 
C 762 3072 877 3155 877 3321 
C 877 3486 762 3569 627 3569 
C 602 3569 570 3569 544 3557 
C 730 3959 1235 4032 1459 4032 
C 1683 4032 2106 3925 2106 3320 
C 2106 3143 2080 2828 1862 2550 
C 1670 2304 1453 2304 1242 2284 
C 1210 2284 1062 2269 1037 2269 
C 992 2263 966 2257 966 2208 
C 966 2163 973 2157 1101 2157 
L 1414 2157 
z
" transform="scale(0.015625)"/>
       </defs>
       <use xlink:href="#CMR17-30" transform="scale(0.996264)"/>
       <use xlink:href="#CMMI12-3a" transform="translate(45.690477 0) scale(0.996264)"/>
       <use xlink:href="#CMR17-33" transform="translate(72.787654 0) scale(0.996264)"/>
      </g>
     </g>
    </g>
    <g id="xtick_2">
     <g id="line2d_2">
      <path d="M 243.333949 515.449571 
L 243.333949 19.44 
" clip-path="url(#p0f9243c534)" style="fill: none; stroke: #ffffff; stroke-width: 0.8; stroke-linecap: round"/>
     </g>
     <g id="text_2">
      <!-- $\mathdefault{0.4}$ -->
      <g style="fill: #262626" transform="translate(233.362188 533.519159) scale(0.16 -0.16)">
       <defs>
        <path id="CMR17-34" d="M 2150 4122 
C 2150 4256 2144 4256 2029 4256 
L 128 1254 
L 128 1088 
L 1779 1088 
L 1779 457 
C 1779 224 1766 160 1318 160 
L 1197 160 
L 1197 0 
C 1402 0 1747 0 1965 0 
C 2182 0 2528 0 2733 0 
L 2733 160 
L 2611 160 
C 2163 160 2150 224 2150 457 
L 2150 1088 
L 2803 1088 
L 2803 1254 
L 2150 1254 
L 2150 4122 
z
M 1798 3703 
L 1798 1254 
L 256 1254 
L 1798 3703 
z
" transform="scale(0.015625)"/>
       </defs>
       <use xlink:href="#CMR17-30" transform="scale(0.996264)"/>
       <use xlink:href="#CMMI12-3a" transform="translate(45.690477 0) scale(0.996264)"/>
       <use xlink:href="#CMR17-34" transform="translate(72.787654 0) scale(0.996264)"/>
      </g>
     </g>
    </g>
    <g id="xtick_3">
     <g id="line2d_3">
      <path d="M 371.839724 515.449571 
L 371.839724 19.44 
" clip-path="url(#p0f9243c534)" style="fill: none; stroke: #ffffff; stroke-width: 0.8; stroke-linecap: round"/>
     </g>
     <g id="text_3">
      <!-- $\mathdefault{0.5}$ -->
      <g style="fill: #262626" transform="translate(361.867963 533.519159) scale(0.16 -0.16)">
       <defs>
        <path id="CMR17-35" d="M 730 3692 
C 794 3666 1056 3584 1325 3584 
C 1920 3584 2246 3911 2432 4100 
C 2432 4157 2432 4192 2394 4192 
C 2387 4192 2374 4192 2323 4163 
C 2099 4058 1837 3973 1517 3973 
C 1325 3973 1037 3999 723 4139 
C 653 4171 640 4171 634 4171 
C 602 4171 595 4164 595 4037 
L 595 2203 
C 595 2089 595 2057 659 2057 
C 691 2057 704 2070 736 2114 
C 941 2401 1222 2522 1542 2522 
C 1766 2522 2246 2382 2246 1289 
C 2246 1085 2246 715 2054 421 
C 1894 159 1645 25 1370 25 
C 947 25 518 320 403 814 
C 429 807 480 795 506 795 
C 589 795 749 840 749 1038 
C 749 1210 627 1280 506 1280 
C 358 1280 262 1190 262 1011 
C 262 454 704 -128 1382 -128 
C 2042 -128 2669 440 2669 1264 
C 2669 2030 2170 2624 1549 2624 
C 1222 2624 947 2503 730 2274 
L 730 3692 
z
" transform="scale(0.015625)"/>
       </defs>
       <use xlink:href="#CMR17-30" transform="scale(0.996264)"/>
       <use xlink:href="#CMMI12-3a" transform="translate(45.690477 0) scale(0.996264)"/>
       <use xlink:href="#CMR17-35" transform="translate(72.787654 0) scale(0.996264)"/>
      </g>
     </g>
    </g>
    <g id="xtick_4">
     <g id="line2d_4">
      <path d="M 500.345499 515.449571 
L 500.345499 19.44 
" clip-path="url(#p0f9243c534)" style="fill: none; stroke: #ffffff; stroke-width: 0.8; stroke-linecap: round"/>
     </g>
     <g id="text_4">
      <!-- $\mathdefault{0.6}$ -->
      <g style="fill: #262626" transform="translate(490.373738 533.519159) scale(0.16 -0.16)">
       <defs>
        <path id="CMR17-36" d="M 678 2176 
C 678 3690 1395 4032 1811 4032 
C 1946 4032 2272 4009 2400 3776 
C 2298 3776 2106 3776 2106 3553 
C 2106 3381 2246 3323 2336 3323 
C 2394 3323 2566 3348 2566 3560 
C 2566 3954 2246 4179 1805 4179 
C 1043 4179 243 3390 243 1984 
C 243 253 966 -128 1478 -128 
C 2099 -128 2688 427 2688 1283 
C 2688 2081 2170 2662 1517 2662 
C 1126 2662 838 2407 678 1960 
L 678 2176 
z
M 1478 25 
C 691 25 691 1200 691 1436 
C 691 1896 909 2560 1504 2560 
C 1613 2560 1926 2560 2138 2120 
C 2253 1870 2253 1609 2253 1289 
C 2253 944 2253 690 2118 434 
C 1978 171 1773 25 1478 25 
z
" transform="scale(0.015625)"/>
       </defs>
       <use xlink:href="#CMR17-30" transform="scale(0.996264)"/>
       <use xlink:href="#CMMI12-3a" transform="translate(45.690477 0) scale(0.996264)"/>
       <use xlink:href="#CMR17-36" transform="translate(72.787654 0) scale(0.996264)"/>
      </g>
     </g>
    </g>
    <g id="xtick_5">
     <g id="line2d_5">
      <path d="M 628.851274 515.449571 
L 628.851274 19.44 
" clip-path="url(#p0f9243c534)" style="fill: none; stroke: #ffffff; stroke-width: 0.8; stroke-linecap: round"/>
     </g>
     <g id="text_5">
      <!-- $\mathdefault{0.7}$ -->
      <g style="fill: #262626" transform="translate(618.879513 533.519159) scale(0.16 -0.16)">
       <defs>
        <path id="CMR17-37" d="M 2886 3941 
L 2886 4081 
L 1382 4081 
C 634 4081 621 4165 595 4288 
L 480 4288 
L 294 3094 
L 410 3094 
C 429 3215 474 3540 550 3661 
C 589 3712 1062 3712 1171 3712 
L 2579 3712 
L 1869 2661 
C 1395 1954 1069 999 1069 165 
C 1069 89 1069 -128 1299 -128 
C 1530 -128 1530 89 1530 171 
L 1530 465 
C 1530 1508 1709 2196 2003 2636 
L 2886 3941 
z
" transform="scale(0.015625)"/>
       </defs>
       <use xlink:href="#CMR17-30" transform="scale(0.996264)"/>
       <use xlink:href="#CMMI12-3a" transform="translate(45.690477 0) scale(0.996264)"/>
       <use xlink:href="#CMR17-37" transform="translate(72.787654 0) scale(0.996264)"/>
      </g>
     </g>
    </g>
    <g id="xtick_6">
     <g id="line2d_6">
      <path d="M 757.357049 515.449571 
L 757.357049 19.44 
" clip-path="url(#p0f9243c534)" style="fill: none; stroke: #ffffff; stroke-width: 0.8; stroke-linecap: round"/>
     </g>
     <g id="text_6">
      <!-- $\mathdefault{0.8}$ -->
      <g style="fill: #262626" transform="translate(747.385288 533.519159) scale(0.16 -0.16)">
       <defs>
        <path id="CMR17-38" d="M 1741 2264 
C 2144 2467 2554 2773 2554 3263 
C 2554 3841 1990 4179 1472 4179 
C 890 4179 378 3759 378 3180 
C 378 3021 416 2747 666 2505 
C 730 2442 998 2251 1171 2130 
C 883 1983 211 1634 211 934 
C 211 279 838 -128 1459 -128 
C 2144 -128 2720 362 2720 1010 
C 2720 1590 2330 1857 2074 2029 
L 1741 2264 
z
M 902 2822 
C 851 2854 595 3051 595 3351 
C 595 3739 998 4032 1459 4032 
C 1965 4032 2336 3676 2336 3262 
C 2336 2669 1670 2331 1638 2331 
C 1632 2331 1626 2331 1574 2370 
L 902 2822 
z
M 2080 1519 
C 2176 1449 2483 1240 2483 851 
C 2483 381 2010 25 1472 25 
C 890 25 448 438 448 940 
C 448 1443 838 1862 1280 2060 
L 2080 1519 
z
" transform="scale(0.015625)"/>
       </defs>
       <use xlink:href="#CMR17-30" transform="scale(0.996264)"/>
       <use xlink:href="#CMMI12-3a" transform="translate(45.690477 0) scale(0.996264)"/>
       <use xlink:href="#CMR17-38" transform="translate(72.787654 0) scale(0.996264)"/>
      </g>
     </g>
    </g>
    <g id="xtick_7">
     <g id="line2d_7">
      <path d="M 885.862824 515.449571 
L 885.862824 19.44 
" clip-path="url(#p0f9243c534)" style="fill: none; stroke: #ffffff; stroke-width: 0.8; stroke-linecap: round"/>
     </g>
     <g id="text_7">
      <!-- $\mathdefault{0.9}$ -->
      <g style="fill: #262626" transform="translate(875.891063 533.519159) scale(0.16 -0.16)">
       <defs>
        <path id="CMR17-39" d="M 2253 1864 
C 2253 464 1670 31 1190 31 
C 1043 31 685 31 538 294 
C 704 268 826 357 826 518 
C 826 692 685 749 595 749 
C 538 749 365 723 365 506 
C 365 71 742 -128 1203 -128 
C 1939 -128 2688 674 2688 2073 
C 2688 3817 1971 4179 1485 4179 
C 851 4179 243 3628 243 2778 
C 243 1991 762 1408 1414 1408 
C 1952 1408 2189 1903 2253 2112 
L 2253 1864 
z
M 1427 1510 
C 1254 1510 1011 1542 813 1922 
C 678 2169 678 2461 678 2771 
C 678 3146 678 3405 858 3684 
C 947 3817 1114 4032 1485 4032 
C 2240 4032 2240 2885 2240 2632 
C 2240 2182 2035 1510 1427 1510 
z
" transform="scale(0.015625)"/>
       </defs>
       <use xlink:href="#CMR17-30" transform="scale(0.996264)"/>
       <use xlink:href="#CMMI12-3a" transform="translate(45.690477 0) scale(0.996264)"/>
       <use xlink:href="#CMR17-39" transform="translate(72.787654 0) scale(0.996264)"/>
      </g>
     </g>
    </g>
    <g id="xtick_8">
     <g id="line2d_8">
      <path d="M 1014.368599 515.449571 
L 1014.368599 19.44 
" clip-path="url(#p0f9243c534)" style="fill: none; stroke: #ffffff; stroke-width: 0.8; stroke-linecap: round"/>
     </g>
     <g id="text_8">
      <!-- $\mathdefault{1.0}$ -->
      <g style="fill: #262626" transform="translate(1004.396838 533.519159) scale(0.16 -0.16)">
       <defs>
        <path id="CMR17-31" d="M 1702 4058 
C 1702 4192 1696 4192 1606 4192 
C 1357 3916 979 3827 621 3827 
C 602 3827 570 3827 563 3808 
C 557 3795 557 3782 557 3648 
C 755 3648 1088 3686 1344 3839 
L 1344 461 
C 1344 236 1331 160 781 160 
L 589 160 
L 589 0 
C 896 0 1216 0 1523 0 
C 1830 0 2150 0 2458 0 
L 2458 160 
L 2266 160 
C 1715 160 1702 230 1702 458 
L 1702 4058 
z
" transform="scale(0.015625)"/>
       </defs>
       <use xlink:href="#CMR17-31" transform="scale(0.996264)"/>
       <use xlink:href="#CMMI12-3a" transform="translate(45.690477 0) scale(0.996264)"/>
       <use xlink:href="#CMR17-30" transform="translate(72.787654 0) scale(0.996264)"/>
      </g>
     </g>
    </g>
    <g id="text_9">
     <!-- adhesivity -->
     <g style="fill: #262626" transform="translate(530.933941 553.071936) scale(0.18 -0.18)">
      <defs>
       <path id="CMSS17-61" d="M 2406 1791 
C 2406 2392 1978 2808 1402 2808 
C 1120 2808 813 2757 461 2553 
L 499 2135 
C 659 2248 934 2432 1395 2432 
C 1722 2432 1920 2180 1920 1782 
L 1920 1536 
C 896 1536 256 1238 256 726 
C 256 461 416 -64 947 -64 
C 1043 -64 1562 -64 1933 217 
L 1933 -19 
L 2406 -19 
L 2406 1791 
z
M 1920 816 
C 1920 701 1920 548 1728 434 
C 1562 325 1350 325 1261 325 
C 941 325 723 511 723 744 
C 723 1211 1722 1211 1920 1211 
L 1920 816 
z
" transform="scale(0.015625)"/>
       <path id="CMSS17-64" d="M 2611 4416 
L 2138 4416 
L 2138 2438 
C 1939 2603 1613 2756 1254 2756 
C 672 2756 211 2131 211 1347 
C 211 562 666 -64 1235 -64 
C 1677 -64 1971 172 2125 306 
L 2125 -13 
L 2611 -13 
L 2611 4416 
z
M 2125 836 
C 2125 747 2125 653 1926 482 
C 1798 375 1645 325 1498 325 
C 1152 325 698 576 698 1340 
C 698 2134 1210 2368 1562 2368 
C 1798 2368 1990 2254 2125 2065 
L 2125 836 
z
" transform="scale(0.015625)"/>
       <path id="CMSS17-68" d="M 2618 1891 
C 2618 2292 2522 2820 1798 2820 
C 1395 2820 1133 2623 947 2407 
L 947 4448 
L 474 4448 
L 474 32 
L 960 32 
L 960 1573 
C 960 1973 1114 2432 1549 2432 
C 2112 2432 2131 2056 2131 1839 
L 2131 32 
L 2618 32 
L 2618 1891 
z
" transform="scale(0.015625)"/>
       <path id="CMSS17-65" d="M 2502 1377 
C 2502 1590 2490 2003 2285 2345 
C 2061 2713 1696 2816 1421 2816 
C 755 2816 192 2188 192 1375 
C 192 582 774 -64 1510 -64 
C 1798 -64 2150 19 2470 248 
C 2470 274 2458 414 2451 420 
C 2451 433 2432 630 2432 656 
C 2125 407 1773 325 1517 325 
C 1107 325 666 667 646 1377 
L 2502 1377 
z
M 698 1728 
C 781 2084 1062 2421 1421 2421 
C 1517 2421 1965 2421 2080 1728 
L 698 1728 
z
" transform="scale(0.015625)"/>
       <path id="CMSS17-73" d="M 2061 2627 
C 1683 2807 1389 2807 1197 2807 
C 742 2807 198 2648 198 2003 
C 198 1359 902 1218 1094 1179 
C 1389 1122 1715 1058 1715 740 
C 1715 337 1254 337 1171 337 
C 915 337 563 407 243 638 
L 166 210 
C 531 0 883 -64 1178 -64 
C 1965 -64 2163 416 2163 781 
C 2163 1094 1984 1305 1862 1401 
C 1651 1568 1574 1587 1050 1696 
C 960 1709 646 1779 646 2066 
C 646 2432 1050 2432 1139 2432 
C 1555 2432 1811 2303 1984 2208 
L 2061 2627 
z
" transform="scale(0.015625)"/>
       <path id="CMSS17-69" d="M 979 4183 
L 442 4183 
L 442 3648 
L 979 3648 
L 979 4183 
z
M 947 2739 
L 474 2739 
L 474 0 
L 947 0 
L 947 2739 
z
" transform="scale(0.015625)"/>
       <path id="CMSS17-76" d="M 2675 2752 
L 2176 2752 
L 1747 1556 
C 1613 1165 1421 627 1389 352 
L 1382 352 
C 1370 468 1318 634 1286 749 
C 1248 890 1197 1056 1158 1172 
L 595 2752 
L 83 2752 
L 1094 0 
L 1664 0 
L 2675 2752 
z
" transform="scale(0.015625)"/>
       <path id="CMSS17-74" d="M 1069 2368 
L 1901 2368 
L 1901 2737 
L 1069 2737 
L 1069 3520 
L 614 3520 
L 614 2737 
L 109 2737 
L 109 2368 
L 602 2368 
L 602 749 
C 602 384 685 -64 1107 -64 
C 1427 -64 1722 25 2003 172 
L 1901 548 
C 1747 414 1562 337 1363 337 
C 1082 337 1069 696 1069 856 
L 1069 2368 
z
" transform="scale(0.015625)"/>
       <path id="CMSS17-79" d="M 2675 2752 
L 2176 2752 
C 1632 1294 1446 702 1434 383 
L 1427 383 
C 1408 696 1126 1460 902 2007 
L 602 2752 
L 83 2752 
L 1216 13 
C 1146 -178 1043 -465 1011 -529 
C 870 -885 774 -885 672 -885 
C 646 -885 442 -885 211 -809 
L 250 -1229 
C 410 -1261 570 -1280 685 -1280 
C 845 -1280 1165 -1280 1459 -497 
L 2675 2752 
z
" transform="scale(0.015625)"/>
      </defs>
      <use xlink:href="#CMSS17-61" transform="scale(0.996264)"/>
      <use xlink:href="#CMSS17-64" transform="translate(44.921921 0) scale(0.996264)"/>
      <use xlink:href="#CMSS17-68" transform="translate(93.126864 0) scale(0.996264)"/>
      <use xlink:href="#CMSS17-65" transform="translate(141.331807 0) scale(0.996264)"/>
      <use xlink:href="#CMSS17-73" transform="translate(182.970629 0) scale(0.996264)"/>
      <use xlink:href="#CMSS17-69" transform="translate(218.884171 0) scale(0.996264)"/>
      <use xlink:href="#CMSS17-76" transform="translate(241.064894 0) scale(0.996264)"/>
      <use xlink:href="#CMSS17-69" transform="translate(284.065036 0) scale(0.996264)"/>
      <use xlink:href="#CMSS17-74" transform="translate(306.245759 0) scale(0.996264)"/>
      <use xlink:href="#CMSS17-79" transform="translate(337.474871 0) scale(0.996264)"/>
     </g>
    </g>
   </g>
   <g id="matplotlib.axis_2">
    <g id="ytick_1">
     <g id="line2d_9">
      <path d="M 69.793325 514.183533 
L 1060.56 514.183533 
" clip-path="url(#p0f9243c534)" style="fill: none; stroke: #ffffff; stroke-width: 0.8; stroke-linecap: round"/>
     </g>
     <g id="text_10">
      <!-- $\mathdefault{50}$ -->
      <g style="fill: #262626" transform="translate(47.185351 519.718327) scale(0.16 -0.16)">
       <use xlink:href="#CMR17-35" transform="scale(0.996264)"/>
       <use xlink:href="#CMR17-30" transform="translate(45.690477 0) scale(0.996264)"/>
      </g>
     </g>
    </g>
    <g id="ytick_2">
     <g id="line2d_10">
      <path d="M 69.793325 433.64727 
L 1060.56 433.64727 
" clip-path="url(#p0f9243c534)" style="fill: none; stroke: #ffffff; stroke-width: 0.8; stroke-linecap: round"/>
     </g>
     <g id="text_11">
      <!-- $\mathdefault{100}$ -->
      <g style="fill: #262626" transform="translate(39.381364 439.182064) scale(0.16 -0.16)">
       <use xlink:href="#CMR17-31" transform="scale(0.996264)"/>
       <use xlink:href="#CMR17-30" transform="translate(45.690477 0) scale(0.996264)"/>
       <use xlink:href="#CMR17-30" transform="translate(91.380954 0) scale(0.996264)"/>
      </g>
     </g>
    </g>
    <g id="ytick_3">
     <g id="line2d_11">
      <path d="M 69.793325 353.111006 
L 1060.56 353.111006 
" clip-path="url(#p0f9243c534)" style="fill: none; stroke: #ffffff; stroke-width: 0.8; stroke-linecap: round"/>
     </g>
     <g id="text_12">
      <!-- $\mathdefault{150}$ -->
      <g style="fill: #262626" transform="translate(39.381364 358.645801) scale(0.16 -0.16)">
       <use xlink:href="#CMR17-31" transform="scale(0.996264)"/>
       <use xlink:href="#CMR17-35" transform="translate(45.690477 0) scale(0.996264)"/>
       <use xlink:href="#CMR17-30" transform="translate(91.380954 0) scale(0.996264)"/>
      </g>
     </g>
    </g>
    <g id="ytick_4">
     <g id="line2d_12">
      <path d="M 69.793325 272.574743 
L 1060.56 272.574743 
" clip-path="url(#p0f9243c534)" style="fill: none; stroke: #ffffff; stroke-width: 0.8; stroke-linecap: round"/>
     </g>
     <g id="text_13">
      <!-- $\mathdefault{200}$ -->
      <g style="fill: #262626" transform="translate(39.381364 278.109537) scale(0.16 -0.16)">
       <defs>
        <path id="CMR17-32" d="M 2669 989 
L 2554 989 
C 2490 536 2438 459 2413 420 
C 2381 369 1920 369 1830 369 
L 602 369 
C 832 619 1280 1072 1824 1597 
C 2214 1967 2669 2402 2669 3035 
C 2669 3790 2067 4224 1395 4224 
C 691 4224 262 3604 262 3030 
C 262 2780 448 2748 525 2748 
C 589 2748 781 2787 781 3010 
C 781 3207 614 3264 525 3264 
C 486 3264 448 3258 422 3245 
C 544 3790 915 4058 1306 4058 
C 1862 4058 2227 3617 2227 3035 
C 2227 2479 1901 2000 1536 1584 
L 262 146 
L 262 0 
L 2515 0 
L 2669 989 
z
" transform="scale(0.015625)"/>
       </defs>
       <use xlink:href="#CMR17-32" transform="scale(0.996264)"/>
       <use xlink:href="#CMR17-30" transform="translate(45.690477 0) scale(0.996264)"/>
       <use xlink:href="#CMR17-30" transform="translate(91.380954 0) scale(0.996264)"/>
      </g>
     </g>
    </g>
    <g id="ytick_5">
     <g id="line2d_13">
      <path d="M 69.793325 192.03848 
L 1060.56 192.03848 
" clip-path="url(#p0f9243c534)" style="fill: none; stroke: #ffffff; stroke-width: 0.8; stroke-linecap: round"/>
     </g>
     <g id="text_14">
      <!-- $\mathdefault{250}$ -->
      <g style="fill: #262626" transform="translate(39.381364 197.573274) scale(0.16 -0.16)">
       <use xlink:href="#CMR17-32" transform="scale(0.996264)"/>
       <use xlink:href="#CMR17-35" transform="translate(45.690477 0) scale(0.996264)"/>
       <use xlink:href="#CMR17-30" transform="translate(91.380954 0) scale(0.996264)"/>
      </g>
     </g>
    </g>
    <g id="ytick_6">
     <g id="line2d_14">
      <path d="M 69.793325 111.502217 
L 1060.56 111.502217 
" clip-path="url(#p0f9243c534)" style="fill: none; stroke: #ffffff; stroke-width: 0.8; stroke-linecap: round"/>
     </g>
     <g id="text_15">
      <!-- $\mathdefault{300}$ -->
      <g style="fill: #262626" transform="translate(39.381364 117.037011) scale(0.16 -0.16)">
       <use xlink:href="#CMR17-33" transform="scale(0.996264)"/>
       <use xlink:href="#CMR17-30" transform="translate(45.690477 0) scale(0.996264)"/>
       <use xlink:href="#CMR17-30" transform="translate(91.380954 0) scale(0.996264)"/>
      </g>
     </g>
    </g>
    <g id="ytick_7">
     <g id="line2d_15">
      <path d="M 69.793325 30.965954 
L 1060.56 30.965954 
" clip-path="url(#p0f9243c534)" style="fill: none; stroke: #ffffff; stroke-width: 0.8; stroke-linecap: round"/>
     </g>
     <g id="text_16">
      <!-- $\mathdefault{350}$ -->
      <g style="fill: #262626" transform="translate(39.381364 36.500748) scale(0.16 -0.16)">
       <use xlink:href="#CMR17-33" transform="scale(0.996264)"/>
       <use xlink:href="#CMR17-35" transform="translate(45.690477 0) scale(0.996264)"/>
       <use xlink:href="#CMR17-30" transform="translate(91.380954 0) scale(0.996264)"/>
      </g>
     </g>
    </g>
    <g id="text_17">
     <!-- lifetime -->
     <g style="fill: #262626" transform="translate(31.8933 293.230414) rotate(-90) scale(0.18 -0.18)">
      <defs>
       <path id="CMSS17-6c" d="M 947 4416 
L 474 4416 
L 474 0 
L 947 0 
L 947 4416 
z
" transform="scale(0.015625)"/>
       <path id="CMSS17-66" d="M 1075 2368 
L 1722 2368 
L 1722 2737 
L 1062 2737 
L 1062 3559 
C 1062 4014 1408 4092 1606 4092 
C 1670 4092 1850 4092 2080 4009 
L 2080 4429 
C 1933 4461 1754 4480 1613 4480 
C 1018 4480 602 3993 602 3359 
L 602 2737 
L 160 2737 
L 160 2368 
L 602 2368 
L 602 0 
L 1075 0 
L 1075 2368 
z
" transform="scale(0.015625)"/>
       <path id="CMSS17-6d" d="M 4288 1877 
C 4288 2308 4179 2816 3462 2816 
C 2982 2816 2694 2516 2566 2331 
C 2451 2670 2182 2816 1798 2816 
C 1363 2816 1088 2568 941 2389 
L 941 2758 
L 474 2758 
L 474 0 
L 960 0 
L 960 1559 
C 960 1939 1101 2428 1555 2428 
C 2138 2428 2138 2016 2138 1829 
L 2138 0 
L 2624 0 
L 2624 1559 
C 2624 1939 2765 2428 3219 2428 
C 3802 2428 3802 2016 3802 1829 
L 3802 0 
L 4288 0 
L 4288 1877 
z
" transform="scale(0.015625)"/>
      </defs>
      <use xlink:href="#CMSS17-6c" transform="scale(0.996264)"/>
      <use xlink:href="#CMSS17-69" transform="translate(22.180723 0) scale(0.996264)"/>
      <use xlink:href="#CMSS17-66" transform="translate(44.361446 0) scale(0.996264)"/>
      <use xlink:href="#CMSS17-65" transform="translate(72.988105 0) scale(0.996264)"/>
      <use xlink:href="#CMSS17-74" transform="translate(114.626927 0) scale(0.996264)"/>
      <use xlink:href="#CMSS17-69" transform="translate(148.458494 0) scale(0.996264)"/>
      <use xlink:href="#CMSS17-6d" transform="translate(170.639217 0) scale(0.996264)"/>
      <use xlink:href="#CMSS17-65" transform="translate(244.868471 0) scale(0.996264)"/>
     </g>
    </g>
   </g>
   <g id="PathCollection_1">
    <defs>
     <path id="C0_0_86373a8f7c" d="M 0 3 
C 0.795609 3 1.55874 2.683901 2.12132 2.12132 
C 2.683901 1.55874 3 0.795609 3 -0 
C 3 -0.795609 2.683901 -1.55874 2.12132 -2.12132 
C 1.55874 -2.683901 0.795609 -3 0 -3 
C -0.795609 -3 -1.55874 -2.683901 -2.12132 -2.12132 
C -2.683901 -1.55874 -3 -0.795609 -3 0 
C -3 0.795609 -2.683901 1.55874 -2.12132 2.12132 
C -1.55874 2.683901 -0.795609 3 0 3 
z
"/>
    </defs>
    <g clip-path="url(#p0f9243c534)">
     <use xlink:href="#C0_0_86373a8f7c" x="179.081062" y="234.114229" style="fill: #637939; stroke: #ffffff; stroke-width: 0.48"/>
    </g>
    <g clip-path="url(#p0f9243c534)">
     <use xlink:href="#C0_0_86373a8f7c" x="179.081062" y="306.442177" style="fill: #8c6d31; stroke: #ffffff; stroke-width: 0.48"/>
    </g>
    <g clip-path="url(#p0f9243c534)">
     <use xlink:href="#C0_0_86373a8f7c" x="693.104162" y="448.534546" style="fill: #8c6d31; stroke: #ffffff; stroke-width: 0.48"/>
    </g>
    <g clip-path="url(#p0f9243c534)">
     <use xlink:href="#C0_0_86373a8f7c" x="693.104162" y="411.721704" style="fill: #637939; stroke: #ffffff; stroke-width: 0.48"/>
    </g>
    <g clip-path="url(#p0f9243c534)">
     <use xlink:href="#C0_0_86373a8f7c" x="179.081062" y="113.648748" style="fill: #393b79; stroke: #ffffff; stroke-width: 0.48"/>
    </g>
    <g clip-path="url(#p0f9243c534)">
     <use xlink:href="#C0_0_86373a8f7c" x="693.104162" y="350.363187" style="fill: #393b79; stroke: #ffffff; stroke-width: 0.48"/>
    </g>
    <g clip-path="url(#p0f9243c534)">
     <use xlink:href="#C0_0_86373a8f7c" x="821.609937" y="431.065713" style="fill: #637939; stroke: #ffffff; stroke-width: 0.48"/>
    </g>
    <g clip-path="url(#p0f9243c534)">
     <use xlink:href="#C0_0_86373a8f7c" x="307.586837" y="210.386197" style="fill: #393b79; stroke: #ffffff; stroke-width: 0.48"/>
    </g>
    <g clip-path="url(#p0f9243c534)">
     <use xlink:href="#C0_0_86373a8f7c" x="821.609937" y="464.010193" style="fill: #8c6d31; stroke: #ffffff; stroke-width: 0.48"/>
    </g>
    <g clip-path="url(#p0f9243c534)">
     <use xlink:href="#C0_0_86373a8f7c" x="307.586837" y="306.683639" style="fill: #637939; stroke: #ffffff; stroke-width: 0.48"/>
    </g>
    <g clip-path="url(#p0f9243c534)">
     <use xlink:href="#C0_0_86373a8f7c" x="821.609937" y="376.151881" style="fill: #393b79; stroke: #ffffff; stroke-width: 0.48"/>
    </g>
    <g clip-path="url(#p0f9243c534)">
     <use xlink:href="#C0_0_86373a8f7c" x="307.586837" y="364.451986" style="fill: #8c6d31; stroke: #ffffff; stroke-width: 0.48"/>
    </g>
    <g clip-path="url(#p0f9243c534)">
     <use xlink:href="#C0_0_86373a8f7c" x="564.598387" y="317.274423" style="fill: #393b79; stroke: #ffffff; stroke-width: 0.48"/>
    </g>
    <g clip-path="url(#p0f9243c534)">
     <use xlink:href="#C0_0_86373a8f7c" x="564.598387" y="386.890411" style="fill: #637939; stroke: #ffffff; stroke-width: 0.48"/>
    </g>
    <g clip-path="url(#p0f9243c534)">
     <use xlink:href="#C0_0_86373a8f7c" x="564.598387" y="428.654479" style="fill: #8c6d31; stroke: #ffffff; stroke-width: 0.48"/>
    </g>
    <g clip-path="url(#p0f9243c534)">
     <use xlink:href="#C0_0_86373a8f7c" x="436.092612" y="402.080433" style="fill: #8c6d31; stroke: #ffffff; stroke-width: 0.48"/>
    </g>
    <g clip-path="url(#p0f9243c534)">
     <use xlink:href="#C0_0_86373a8f7c" x="436.092612" y="353.68608" style="fill: #637939; stroke: #ffffff; stroke-width: 0.48"/>
    </g>
    <g clip-path="url(#p0f9243c534)">
     <use xlink:href="#C0_0_86373a8f7c" x="950.115712" y="396.881882" style="fill: #393b79; stroke: #ffffff; stroke-width: 0.48"/>
    </g>
    <g clip-path="url(#p0f9243c534)">
     <use xlink:href="#C0_0_86373a8f7c" x="950.115712" y="476.455425" style="fill: #8c6d31; stroke: #ffffff; stroke-width: 0.48"/>
    </g>
    <g clip-path="url(#p0f9243c534)">
     <use xlink:href="#C0_0_86373a8f7c" x="950.115712" y="446.628866" style="fill: #637939; stroke: #ffffff; stroke-width: 0.48"/>
    </g>
    <g clip-path="url(#p0f9243c534)">
     <use xlink:href="#C0_0_86373a8f7c" x="436.092612" y="273.064091" style="fill: #393b79; stroke: #ffffff; stroke-width: 0.48"/>
    </g>
    <g clip-path="url(#p0f9243c534)">
     <use xlink:href="#C0_0_86373a8f7c" x="371.839724" y="332.42165" style="fill: #637939; stroke: #ffffff; stroke-width: 0.48"/>
    </g>
    <g clip-path="url(#p0f9243c534)">
     <use xlink:href="#C0_0_86373a8f7c" x="371.839724" y="385.068745" style="fill: #8c6d31; stroke: #ffffff; stroke-width: 0.48"/>
    </g>
    <g clip-path="url(#p0f9243c534)">
     <use xlink:href="#C0_0_86373a8f7c" x="243.333949" y="167.859409" style="fill: #393b79; stroke: #ffffff; stroke-width: 0.48"/>
    </g>
    <g clip-path="url(#p0f9243c534)">
     <use xlink:href="#C0_0_86373a8f7c" x="371.839724" y="244.695581" style="fill: #393b79; stroke: #ffffff; stroke-width: 0.48"/>
    </g>
    <g clip-path="url(#p0f9243c534)">
     <use xlink:href="#C0_0_86373a8f7c" x="243.333949" y="338.942829" style="fill: #8c6d31; stroke: #ffffff; stroke-width: 0.48"/>
    </g>
    <g clip-path="url(#p0f9243c534)">
     <use xlink:href="#C0_0_86373a8f7c" x="243.333949" y="274.773431" style="fill: #637939; stroke: #ffffff; stroke-width: 0.48"/>
    </g>
    <g clip-path="url(#p0f9243c534)">
     <use xlink:href="#C0_0_86373a8f7c" x="500.345499" y="416.423002" style="fill: #8c6d31; stroke: #ffffff; stroke-width: 0.48"/>
    </g>
    <g clip-path="url(#p0f9243c534)">
     <use xlink:href="#C0_0_86373a8f7c" x="500.345499" y="371.599646" style="fill: #637939; stroke: #ffffff; stroke-width: 0.48"/>
    </g>
    <g clip-path="url(#p0f9243c534)">
     <use xlink:href="#C0_0_86373a8f7c" x="628.851274" y="334.91574" style="fill: #393b79; stroke: #ffffff; stroke-width: 0.48"/>
    </g>
    <g clip-path="url(#p0f9243c534)">
     <use xlink:href="#C0_0_86373a8f7c" x="500.345499" y="296.908883" style="fill: #393b79; stroke: #ffffff; stroke-width: 0.48"/>
    </g>
    <g clip-path="url(#p0f9243c534)">
     <use xlink:href="#C0_0_86373a8f7c" x="628.851274" y="400.129456" style="fill: #637939; stroke: #ffffff; stroke-width: 0.48"/>
    </g>
    <g clip-path="url(#p0f9243c534)">
     <use xlink:href="#C0_0_86373a8f7c" x="628.851274" y="439.259717" style="fill: #8c6d31; stroke: #ffffff; stroke-width: 0.48"/>
    </g>
    <g clip-path="url(#p0f9243c534)">
     <use xlink:href="#C0_0_86373a8f7c" x="885.862824" y="387.052578" style="fill: #393b79; stroke: #ffffff; stroke-width: 0.48"/>
    </g>
    <g clip-path="url(#p0f9243c534)">
     <use xlink:href="#C0_0_86373a8f7c" x="757.357049" y="456.714303" style="fill: #8c6d31; stroke: #ffffff; stroke-width: 0.48"/>
    </g>
    <g clip-path="url(#p0f9243c534)">
     <use xlink:href="#C0_0_86373a8f7c" x="114.828174" y="263.362532" style="fill: #8c6d31; stroke: #ffffff; stroke-width: 0.48"/>
    </g>
    <g clip-path="url(#p0f9243c534)">
     <use xlink:href="#C0_0_86373a8f7c" x="114.828174" y="180.355339" style="fill: #637939; stroke: #ffffff; stroke-width: 0.48"/>
    </g>
    <g clip-path="url(#p0f9243c534)">
     <use xlink:href="#C0_0_86373a8f7c" x="757.357049" y="421.946251" style="fill: #637939; stroke: #ffffff; stroke-width: 0.48"/>
    </g>
    <g clip-path="url(#p0f9243c534)">
     <use xlink:href="#C0_0_86373a8f7c" x="885.862824" y="439.237422" style="fill: #637939; stroke: #ffffff; stroke-width: 0.48"/>
    </g>
    <g clip-path="url(#p0f9243c534)">
     <use xlink:href="#C0_0_86373a8f7c" x="885.862824" y="470.559286" style="fill: #8c6d31; stroke: #ffffff; stroke-width: 0.48"/>
    </g>
    <g clip-path="url(#p0f9243c534)">
     <use xlink:href="#C0_0_86373a8f7c" x="757.357049" y="363.996226" style="fill: #393b79; stroke: #ffffff; stroke-width: 0.48"/>
    </g>
    <g clip-path="url(#p0f9243c534)">
     <use xlink:href="#C0_0_86373a8f7c" x="114.828174" y="41.98589" style="fill: #393b79; stroke: #ffffff; stroke-width: 0.48"/>
    </g>
    <g clip-path="url(#p0f9243c534)">
     <use xlink:href="#C0_0_86373a8f7c" x="1014.368599" y="481.821838" style="fill: #8c6d31; stroke: #ffffff; stroke-width: 0.48"/>
    </g>
    <g clip-path="url(#p0f9243c534)">
     <use xlink:href="#C0_0_86373a8f7c" x="1014.368599" y="453.315639" style="fill: #637939; stroke: #ffffff; stroke-width: 0.48"/>
    </g>
    <g clip-path="url(#p0f9243c534)">
     <use xlink:href="#C0_0_86373a8f7c" x="1014.368599" y="405.800637" style="fill: #393b79; stroke: #ffffff; stroke-width: 0.48"/>
    </g>
    <g clip-path="url(#p0f9243c534)">
     <use xlink:href="#C0_0_86373a8f7c" x="371.839724" y="404.21837" style="fill: #e7cb94; stroke: #ffffff; stroke-width: 0.48"/>
    </g>
    <g clip-path="url(#p0f9243c534)">
     <use xlink:href="#C0_0_86373a8f7c" x="757.357049" y="397.121876" style="fill: #6b6ecf; stroke: #ffffff; stroke-width: 0.48"/>
    </g>
    <g clip-path="url(#p0f9243c534)">
     <use xlink:href="#C0_0_86373a8f7c" x="885.862824" y="481.944073" style="fill: #e7cb94; stroke: #ffffff; stroke-width: 0.48"/>
    </g>
    <g clip-path="url(#p0f9243c534)">
     <use xlink:href="#C0_0_86373a8f7c" x="114.828174" y="226.459445" style="fill: #b5cf6b; stroke: #ffffff; stroke-width: 0.48"/>
    </g>
    <g clip-path="url(#p0f9243c534)">
     <use xlink:href="#C0_0_86373a8f7c" x="1014.368599" y="492.196215" style="fill: #e7cb94; stroke: #ffffff; stroke-width: 0.48"/>
    </g>
    <g clip-path="url(#p0f9243c534)">
     <use xlink:href="#C0_0_86373a8f7c" x="628.851274" y="421.871271" style="fill: #b5cf6b; stroke: #ffffff; stroke-width: 0.48"/>
    </g>
    <g clip-path="url(#p0f9243c534)">
     <use xlink:href="#C0_0_86373a8f7c" x="243.333949" y="228.955583" style="fill: #6b6ecf; stroke: #ffffff; stroke-width: 0.48"/>
    </g>
    <g clip-path="url(#p0f9243c534)">
     <use xlink:href="#C0_0_86373a8f7c" x="114.828174" y="121.068103" style="fill: #6b6ecf; stroke: #ffffff; stroke-width: 0.48"/>
    </g>
    <g clip-path="url(#p0f9243c534)">
     <use xlink:href="#C0_0_86373a8f7c" x="628.851274" y="372.192088" style="fill: #6b6ecf; stroke: #ffffff; stroke-width: 0.48"/>
    </g>
    <g clip-path="url(#p0f9243c534)">
     <use xlink:href="#C0_0_86373a8f7c" x="243.333949" y="310.410724" style="fill: #b5cf6b; stroke: #ffffff; stroke-width: 0.48"/>
    </g>
    <g clip-path="url(#p0f9243c534)">
     <use xlink:href="#C0_0_86373a8f7c" x="500.345499" y="432.719674" style="fill: #e7cb94; stroke: #ffffff; stroke-width: 0.48"/>
    </g>
    <g clip-path="url(#p0f9243c534)">
     <use xlink:href="#C0_0_86373a8f7c" x="757.357049" y="441.271073" style="fill: #b5cf6b; stroke: #ffffff; stroke-width: 0.48"/>
    </g>
    <g clip-path="url(#p0f9243c534)">
     <use xlink:href="#C0_0_86373a8f7c" x="757.357049" y="469.362816" style="fill: #e7cb94; stroke: #ffffff; stroke-width: 0.48"/>
    </g>
    <g clip-path="url(#p0f9243c534)">
     <use xlink:href="#C0_0_86373a8f7c" x="371.839724" y="294.856876" style="fill: #6b6ecf; stroke: #ffffff; stroke-width: 0.48"/>
    </g>
    <g clip-path="url(#p0f9243c534)">
     <use xlink:href="#C0_0_86373a8f7c" x="500.345499" y="396.501364" style="fill: #b5cf6b; stroke: #ffffff; stroke-width: 0.48"/>
    </g>
    <g clip-path="url(#p0f9243c534)">
     <use xlink:href="#C0_0_86373a8f7c" x="1014.368599" y="432.95541" style="fill: #6b6ecf; stroke: #ffffff; stroke-width: 0.48"/>
    </g>
    <g clip-path="url(#p0f9243c534)">
     <use xlink:href="#C0_0_86373a8f7c" x="243.333949" y="362.249953" style="fill: #e7cb94; stroke: #ffffff; stroke-width: 0.48"/>
    </g>
    <g clip-path="url(#p0f9243c534)">
     <use xlink:href="#C0_0_86373a8f7c" x="885.862824" y="416.865243" style="fill: #6b6ecf; stroke: #ffffff; stroke-width: 0.48"/>
    </g>
    <g clip-path="url(#p0f9243c534)">
     <use xlink:href="#C0_0_86373a8f7c" x="1014.368599" y="469.143712" style="fill: #b5cf6b; stroke: #ffffff; stroke-width: 0.48"/>
    </g>
    <g clip-path="url(#p0f9243c534)">
     <use xlink:href="#C0_0_86373a8f7c" x="628.851274" y="453.487886" style="fill: #e7cb94; stroke: #ffffff; stroke-width: 0.48"/>
    </g>
    <g clip-path="url(#p0f9243c534)">
     <use xlink:href="#C0_0_86373a8f7c" x="885.862824" y="456.633052" style="fill: #b5cf6b; stroke: #ffffff; stroke-width: 0.48"/>
    </g>
    <g clip-path="url(#p0f9243c534)">
     <use xlink:href="#C0_0_86373a8f7c" x="114.828174" y="293.579287" style="fill: #e7cb94; stroke: #ffffff; stroke-width: 0.48"/>
    </g>
    <g clip-path="url(#p0f9243c534)">
     <use xlink:href="#C0_0_86373a8f7c" x="371.839724" y="361.664787" style="fill: #b5cf6b; stroke: #ffffff; stroke-width: 0.48"/>
    </g>
    <g clip-path="url(#p0f9243c534)">
     <use xlink:href="#C0_0_86373a8f7c" x="500.345499" y="339.580187" style="fill: #6b6ecf; stroke: #ffffff; stroke-width: 0.48"/>
    </g>
    <g clip-path="url(#p0f9243c534)">
     <use xlink:href="#C0_0_86373a8f7c" x="950.115712" y="463.192264" style="fill: #b5cf6b; stroke: #ffffff; stroke-width: 0.48"/>
    </g>
    <g clip-path="url(#p0f9243c534)">
     <use xlink:href="#C0_0_86373a8f7c" x="821.609937" y="449.376714" style="fill: #b5cf6b; stroke: #ffffff; stroke-width: 0.48"/>
    </g>
    <g clip-path="url(#p0f9243c534)">
     <use xlink:href="#C0_0_86373a8f7c" x="179.081062" y="182.492906" style="fill: #6b6ecf; stroke: #ffffff; stroke-width: 0.48"/>
    </g>
    <g clip-path="url(#p0f9243c534)">
     <use xlink:href="#C0_0_86373a8f7c" x="564.598387" y="357.073239" style="fill: #6b6ecf; stroke: #ffffff; stroke-width: 0.48"/>
    </g>
    <g clip-path="url(#p0f9243c534)">
     <use xlink:href="#C0_0_86373a8f7c" x="693.104162" y="385.427599" style="fill: #6b6ecf; stroke: #ffffff; stroke-width: 0.48"/>
    </g>
    <g clip-path="url(#p0f9243c534)">
     <use xlink:href="#C0_0_86373a8f7c" x="436.092612" y="319.118743" style="fill: #6b6ecf; stroke: #ffffff; stroke-width: 0.48"/>
    </g>
    <g clip-path="url(#p0f9243c534)">
     <use xlink:href="#C0_0_86373a8f7c" x="307.586837" y="265.420548" style="fill: #6b6ecf; stroke: #ffffff; stroke-width: 0.48"/>
    </g>
    <g clip-path="url(#p0f9243c534)">
     <use xlink:href="#C0_0_86373a8f7c" x="564.598387" y="410.092431" style="fill: #b5cf6b; stroke: #ffffff; stroke-width: 0.48"/>
    </g>
    <g clip-path="url(#p0f9243c534)">
     <use xlink:href="#C0_0_86373a8f7c" x="693.104162" y="432.165277" style="fill: #b5cf6b; stroke: #ffffff; stroke-width: 0.48"/>
    </g>
    <g clip-path="url(#p0f9243c534)">
     <use xlink:href="#C0_0_86373a8f7c" x="436.092612" y="380.585417" style="fill: #b5cf6b; stroke: #ffffff; stroke-width: 0.48"/>
    </g>
    <g clip-path="url(#p0f9243c534)">
     <use xlink:href="#C0_0_86373a8f7c" x="307.586837" y="338.769661" style="fill: #b5cf6b; stroke: #ffffff; stroke-width: 0.48"/>
    </g>
    <g clip-path="url(#p0f9243c534)">
     <use xlink:href="#C0_0_86373a8f7c" x="950.115712" y="425.300338" style="fill: #6b6ecf; stroke: #ffffff; stroke-width: 0.48"/>
    </g>
    <g clip-path="url(#p0f9243c534)">
     <use xlink:href="#C0_0_86373a8f7c" x="821.609937" y="407.535727" style="fill: #6b6ecf; stroke: #ffffff; stroke-width: 0.48"/>
    </g>
    <g clip-path="url(#p0f9243c534)">
     <use xlink:href="#C0_0_86373a8f7c" x="179.081062" y="274.273232" style="fill: #b5cf6b; stroke: #ffffff; stroke-width: 0.48"/>
    </g>
    <g clip-path="url(#p0f9243c534)">
     <use xlink:href="#C0_0_86373a8f7c" x="179.081062" y="332.702582" style="fill: #e7cb94; stroke: #ffffff; stroke-width: 0.48"/>
    </g>
    <g clip-path="url(#p0f9243c534)">
     <use xlink:href="#C0_0_86373a8f7c" x="436.092612" y="419.687336" style="fill: #e7cb94; stroke: #ffffff; stroke-width: 0.48"/>
    </g>
    <g clip-path="url(#p0f9243c534)">
     <use xlink:href="#C0_0_86373a8f7c" x="307.586837" y="385.473075" style="fill: #e7cb94; stroke: #ffffff; stroke-width: 0.48"/>
    </g>
    <g clip-path="url(#p0f9243c534)">
     <use xlink:href="#C0_0_86373a8f7c" x="564.598387" y="443.85075" style="fill: #e7cb94; stroke: #ffffff; stroke-width: 0.48"/>
    </g>
    <g clip-path="url(#p0f9243c534)">
     <use xlink:href="#C0_0_86373a8f7c" x="693.104162" y="461.910633" style="fill: #e7cb94; stroke: #ffffff; stroke-width: 0.48"/>
    </g>
    <g clip-path="url(#p0f9243c534)">
     <use xlink:href="#C0_0_86373a8f7c" x="950.115712" y="487.314596" style="fill: #e7cb94; stroke: #ffffff; stroke-width: 0.48"/>
    </g>
    <g clip-path="url(#p0f9243c534)">
     <use xlink:href="#C0_0_86373a8f7c" x="821.609937" y="476.001341" style="fill: #e7cb94; stroke: #ffffff; stroke-width: 0.48"/>
    </g>
   </g>
   <g id="PathCollection_2">
    <defs>
     <path id="m9f96637ed9" d="M -3 3 
L 3 -3 
M -3 -3 
L 3 3 
" style="stroke: #000000; stroke-width: 2"/>
    </defs>
    <g clip-path="url(#p0f9243c534)">
     <use xlink:href="#m9f96637ed9" x="307.586837" y="303.55229" style="stroke: #000000; stroke-width: 2"/>
     <use xlink:href="#m9f96637ed9" x="179.081062" y="228.534639" style="stroke: #000000; stroke-width: 2"/>
     <use xlink:href="#m9f96637ed9" x="628.851274" y="398.985146" style="stroke: #000000; stroke-width: 2"/>
     <use xlink:href="#m9f96637ed9" x="564.598387" y="317.571814" style="stroke: #000000; stroke-width: 2"/>
     <use xlink:href="#m9f96637ed9" x="950.115712" y="397.274908" style="stroke: #000000; stroke-width: 2"/>
     <use xlink:href="#m9f96637ed9" x="821.609937" y="376.261211" style="stroke: #000000; stroke-width: 2"/>
     <use xlink:href="#m9f96637ed9" x="436.092612" y="351.370542" style="stroke: #000000; stroke-width: 2"/>
     <use xlink:href="#m9f96637ed9" x="500.345499" y="369.644171" style="stroke: #000000; stroke-width: 2"/>
     <use xlink:href="#m9f96637ed9" x="628.851274" y="440.781255" style="stroke: #000000; stroke-width: 2"/>
     <use xlink:href="#m9f96637ed9" x="693.104162" y="450.315742" style="stroke: #000000; stroke-width: 2"/>
     <use xlink:href="#m9f96637ed9" x="307.586837" y="212.288686" style="stroke: #000000; stroke-width: 2"/>
     <use xlink:href="#m9f96637ed9" x="307.586837" y="365.788527" style="stroke: #000000; stroke-width: 2"/>
     <use xlink:href="#m9f96637ed9" x="885.862824" y="438.39659" style="stroke: #000000; stroke-width: 2"/>
     <use xlink:href="#m9f96637ed9" x="500.345499" y="417.541973" style="stroke: #000000; stroke-width: 2"/>
     <use xlink:href="#m9f96637ed9" x="950.115712" y="445.244053" style="stroke: #000000; stroke-width: 2"/>
     <use xlink:href="#m9f96637ed9" x="950.115712" y="477.51984" style="stroke: #000000; stroke-width: 2"/>
     <use xlink:href="#m9f96637ed9" x="436.092612" y="403.201554" style="stroke: #000000; stroke-width: 2"/>
     <use xlink:href="#m9f96637ed9" x="243.333949" y="270.800406" style="stroke: #000000; stroke-width: 2"/>
     <use xlink:href="#m9f96637ed9" x="243.333949" y="170.766618" style="stroke: #000000; stroke-width: 2"/>
     <use xlink:href="#m9f96637ed9" x="371.839724" y="329.754805" style="stroke: #000000; stroke-width: 2"/>
     <use xlink:href="#m9f96637ed9" x="371.839724" y="245.866027" style="stroke: #000000; stroke-width: 2"/>
     <use xlink:href="#m9f96637ed9" x="564.598387" y="429.941212" style="stroke: #000000; stroke-width: 2"/>
     <use xlink:href="#m9f96637ed9" x="436.092612" y="273.718688" style="stroke: #000000; stroke-width: 2"/>
     <use xlink:href="#m9f96637ed9" x="179.081062" y="306.168004" style="stroke: #000000; stroke-width: 2"/>
     <use xlink:href="#m9f96637ed9" x="564.598387" y="385.350231" style="stroke: #000000; stroke-width: 2"/>
     <use xlink:href="#m9f96637ed9" x="693.104162" y="350.560113" style="stroke: #000000; stroke-width: 2"/>
     <use xlink:href="#m9f96637ed9" x="243.333949" y="339.964231" style="stroke: #000000; stroke-width: 2"/>
     <use xlink:href="#m9f96637ed9" x="757.357049" y="421.325304" style="stroke: #000000; stroke-width: 2"/>
     <use xlink:href="#m9f96637ed9" x="821.609937" y="430.457919" style="stroke: #000000; stroke-width: 2"/>
     <use xlink:href="#m9f96637ed9" x="114.828174" y="260.49263" style="stroke: #000000; stroke-width: 2"/>
     <use xlink:href="#m9f96637ed9" x="1014.368599" y="481.745189" style="stroke: #000000; stroke-width: 2"/>
     <use xlink:href="#m9f96637ed9" x="114.828174" y="172.493365" style="stroke: #000000; stroke-width: 2"/>
     <use xlink:href="#m9f96637ed9" x="1014.368599" y="451.319804" style="stroke: #000000; stroke-width: 2"/>
     <use xlink:href="#m9f96637ed9" x="114.828174" y="49.480434" style="stroke: #000000; stroke-width: 2"/>
     <use xlink:href="#m9f96637ed9" x="1014.368599" y="407.071726" style="stroke: #000000; stroke-width: 2"/>
    </g>
   </g>
   <g id="PathCollection_3">
    <defs>
     <path id="m615832297e" d="M 0 3 
C 0.795609 3 1.55874 2.683901 2.12132 2.12132 
C 2.683901 1.55874 3 0.795609 3 0 
C 3 -0.795609 2.683901 -1.55874 2.12132 -2.12132 
C 1.55874 -2.683901 0.795609 -3 0 -3 
C -0.795609 -3 -1.55874 -2.683901 -2.12132 -2.12132 
C -2.683901 -1.55874 -3 -0.795609 -3 0 
C -3 0.795609 -2.683901 1.55874 -2.12132 2.12132 
C -1.55874 2.683901 -0.795609 3 0 3 
z
" style="stroke: #ffffff; stroke-width: 0.48"/>
    </defs>
    <g clip-path="url(#p0f9243c534)">
     <use xlink:href="#m615832297e" x="564.598387" y="317.274423" style="fill: #ff0000; stroke: #ffffff; stroke-width: 0.48"/>
     <use xlink:href="#m615832297e" x="950.115712" y="396.881882" style="fill: #ff0000; stroke: #ffffff; stroke-width: 0.48"/>
     <use xlink:href="#m615832297e" x="307.586837" y="210.386197" style="fill: #ff0000; stroke: #ffffff; stroke-width: 0.48"/>
     <use xlink:href="#m615832297e" x="821.609937" y="376.151881" style="fill: #ff0000; stroke: #ffffff; stroke-width: 0.48"/>
     <use xlink:href="#m615832297e" x="371.839724" y="244.695581" style="fill: #ff0000; stroke: #ffffff; stroke-width: 0.48"/>
     <use xlink:href="#m615832297e" x="436.092612" y="273.064091" style="fill: #ff0000; stroke: #ffffff; stroke-width: 0.48"/>
     <use xlink:href="#m615832297e" x="693.104162" y="350.363187" style="fill: #ff0000; stroke: #ffffff; stroke-width: 0.48"/>
     <use xlink:href="#m615832297e" x="243.333949" y="167.859409" style="fill: #ff0000; stroke: #ffffff; stroke-width: 0.48"/>
     <use xlink:href="#m615832297e" x="114.828174" y="41.98589" style="fill: #ff0000; stroke: #ffffff; stroke-width: 0.48"/>
     <use xlink:href="#m615832297e" x="1014.368599" y="405.800637" style="fill: #ff0000; stroke: #ffffff; stroke-width: 0.48"/>
     <use xlink:href="#m615832297e" x="436.092612" y="353.68608" style="fill: #ff0000; stroke: #ffffff; stroke-width: 0.48"/>
     <use xlink:href="#m615832297e" x="243.333949" y="274.773431" style="fill: #ff0000; stroke: #ffffff; stroke-width: 0.48"/>
     <use xlink:href="#m615832297e" x="628.851274" y="400.129456" style="fill: #ff0000; stroke: #ffffff; stroke-width: 0.48"/>
     <use xlink:href="#m615832297e" x="500.345499" y="371.599646" style="fill: #ff0000; stroke: #ffffff; stroke-width: 0.48"/>
     <use xlink:href="#m615832297e" x="885.862824" y="439.237422" style="fill: #ff0000; stroke: #ffffff; stroke-width: 0.48"/>
     <use xlink:href="#m615832297e" x="371.839724" y="332.42165" style="fill: #ff0000; stroke: #ffffff; stroke-width: 0.48"/>
     <use xlink:href="#m615832297e" x="950.115712" y="446.628866" style="fill: #ff0000; stroke: #ffffff; stroke-width: 0.48"/>
     <use xlink:href="#m615832297e" x="757.357049" y="421.946251" style="fill: #ff0000; stroke: #ffffff; stroke-width: 0.48"/>
     <use xlink:href="#m615832297e" x="564.598387" y="386.890411" style="fill: #ff0000; stroke: #ffffff; stroke-width: 0.48"/>
     <use xlink:href="#m615832297e" x="821.609937" y="431.065713" style="fill: #ff0000; stroke: #ffffff; stroke-width: 0.48"/>
     <use xlink:href="#m615832297e" x="114.828174" y="180.355339" style="fill: #ff0000; stroke: #ffffff; stroke-width: 0.48"/>
     <use xlink:href="#m615832297e" x="1014.368599" y="453.315639" style="fill: #ff0000; stroke: #ffffff; stroke-width: 0.48"/>
     <use xlink:href="#m615832297e" x="307.586837" y="306.683639" style="fill: #ff0000; stroke: #ffffff; stroke-width: 0.48"/>
     <use xlink:href="#m615832297e" x="179.081062" y="234.114229" style="fill: #ff0000; stroke: #ffffff; stroke-width: 0.48"/>
     <use xlink:href="#m615832297e" x="243.333949" y="338.942829" style="fill: #ff0000; stroke: #ffffff; stroke-width: 0.48"/>
     <use xlink:href="#m615832297e" x="628.851274" y="439.259717" style="fill: #ff0000; stroke: #ffffff; stroke-width: 0.48"/>
     <use xlink:href="#m615832297e" x="307.586837" y="364.451986" style="fill: #ff0000; stroke: #ffffff; stroke-width: 0.48"/>
     <use xlink:href="#m615832297e" x="693.104162" y="448.534546" style="fill: #ff0000; stroke: #ffffff; stroke-width: 0.48"/>
     <use xlink:href="#m615832297e" x="564.598387" y="428.654479" style="fill: #ff0000; stroke: #ffffff; stroke-width: 0.48"/>
     <use xlink:href="#m615832297e" x="950.115712" y="476.455425" style="fill: #ff0000; stroke: #ffffff; stroke-width: 0.48"/>
     <use xlink:href="#m615832297e" x="436.092612" y="402.080433" style="fill: #ff0000; stroke: #ffffff; stroke-width: 0.48"/>
     <use xlink:href="#m615832297e" x="500.345499" y="416.423002" style="fill: #ff0000; stroke: #ffffff; stroke-width: 0.48"/>
     <use xlink:href="#m615832297e" x="179.081062" y="306.442177" style="fill: #ff0000; stroke: #ffffff; stroke-width: 0.48"/>
     <use xlink:href="#m615832297e" x="114.828174" y="263.362532" style="fill: #ff0000; stroke: #ffffff; stroke-width: 0.48"/>
     <use xlink:href="#m615832297e" x="1014.368599" y="481.821838" style="fill: #ff0000; stroke: #ffffff; stroke-width: 0.48"/>
    </g>
   </g>
   <g id="line2d_16"/>
   <g id="line2d_17"/>
   <g id="line2d_18"/>
   <g id="line2d_19"/>
   <g id="line2d_20"/>
   <g id="line2d_21"/>
   <g id="line2d_22">
    <path d="M 114.828174 49.480434 
L 123.052544 59.337089 
L 131.276913 68.849847 
L 139.629789 78.173767 
L 148.11117 87.307761 
L 156.721057 96.251309 
L 165.45945 105.00443 
L 174.326348 113.567663 
L 183.321752 121.942038 
L 192.445662 130.129048 
L 201.698078 138.130623 
L 211.079 145.94909 
L 220.588427 153.58715 
L 230.354866 161.145468 
L 240.249811 168.522643 
L 250.401767 175.813283 
L 260.810735 183.011642 
L 271.348208 190.028924 
L 282.142693 196.951387 
L 293.19419 203.775548 
L 304.502698 210.498678 
L 316.196724 217.190894 
L 328.147761 223.773221 
L 340.484315 230.311937 
L 353.077881 236.735126 
L 366.056964 243.10529 
L 379.421565 249.416376 
L 393.171683 255.6631 
L 407.307318 261.840852 
L 421.956976 267.998567 
L 436.992152 274.075643 
L 452.412845 280.069114 
L 468.347561 286.023386 
L 484.7963 291.930512 
L 501.630557 297.739616 
L 518.978837 303.490669 
L 536.841139 309.177025 
L 555.217465 314.792482 
L 574.107814 320.331311 
L 593.512186 325.788303 
L 613.430581 331.158831 
L 633.991505 336.471444 
L 655.194958 341.718825 
L 677.04094 346.894792 
L 699.657956 352.022878 
L 723.046007 357.095668 
L 747.205093 362.107344 
L 772.392225 367.103569 
L 798.607403 372.075286 
L 825.979133 377.038801 
L 854.892932 382.053458 
L 885.734318 387.173445 
L 919.788349 392.596599 
L 962.709278 399.191364 
L 1015.525151 407.251639 
L 1015.525151 407.251639 
" clip-path="url(#p0f9243c534)" style="fill: none; stroke: #393b79; stroke-width: 1.5; stroke-linecap: round"/>
   </g>
   <g id="line2d_23">
    <path d="M 114.828174 115.820342 
L 123.052544 124.777228 
L 131.405419 133.542253 
L 139.758294 141.987184 
L 148.239676 150.248771 
L 156.849563 158.326961 
L 165.587955 166.222221 
L 174.454854 173.935515 
L 183.450258 181.468274 
L 192.702674 188.923956 
L 202.083595 196.195571 
L 211.593023 203.286213 
L 221.359462 210.289693 
L 231.254406 217.112466 
L 241.406363 223.842504 
L 251.81533 230.474798 
L 262.48131 237.005267 
L 273.404301 243.430711 
L 284.584303 249.748756 
L 296.021317 255.957791 
L 307.843848 262.122577 
L 320.051897 268.235022 
L 332.516957 274.22766 
L 345.367535 280.159999 
L 358.732135 286.08266 
L 372.482253 291.93105 
L 386.617888 297.701869 
L 401.267547 303.441768 
L 416.431228 309.142602 
L 432.108933 314.797075 
L 448.30066 320.398602 
L 465.006411 325.941171 
L 482.226185 331.419227 
L 499.959982 336.827567 
L 518.336308 342.198033 
L 537.226657 347.486076 
L 556.759534 352.72109 
L 576.806435 357.862396 
L 597.495865 362.937171 
L 618.699318 367.908547 
L 640.5453 372.801875 
L 663.03381 377.610985 
L 686.293356 382.356035 
L 710.19543 387.004268 
L 734.868539 391.57487 
L 760.312682 396.060829 
L 786.52786 400.45556 
L 813.514073 404.752747 
L 841.27132 408.946469 
L 869.928108 413.049906 
L 899.741448 417.092787 
L 931.61088 421.187035 
L 968.620543 425.707946 
L 1015.525151 431.276052 
L 1015.525151 431.276052 
" clip-path="url(#p0f9243c534)" style="fill: none; stroke: #6b6ecf; stroke-width: 1.5; stroke-linecap: round"/>
   </g>
   <g id="line2d_24">
    <path d="M 114.828174 172.493365 
L 123.052544 180.6218 
L 131.405419 188.565021 
L 139.8868 196.322761 
L 148.496687 203.895306 
L 157.23508 211.283465 
L 166.101978 218.488547 
L 175.097383 225.512335 
L 184.221293 232.357056 
L 193.602214 239.116097 
L 203.111642 245.69454 
L 212.87808 252.179799 
L 222.901531 258.565887 
L 233.053487 264.770936 
L 243.462455 270.87422 
L 254.128434 276.872386 
L 265.179931 282.830817 
L 276.488439 288.674429 
L 288.182465 294.465016 
L 300.133502 300.135289 
L 312.470056 305.7436 
L 325.320634 311.339249 
L 338.556728 316.858449 
L 352.306846 322.348286 
L 366.442482 327.752005 
L 381.09214 333.114344 
L 396.384327 338.472772 
L 412.190538 343.773802 
L 428.510771 349.012782 
L 445.473533 354.224262 
L 463.078824 359.399592 
L 481.326644 364.530789 
L 500.216993 369.610387 
L 519.749871 374.631308 
L 539.925278 379.586781 
L 560.743213 384.470299 
L 582.203678 389.275624 
L 604.306671 393.996808 
L 627.180699 398.653774 
L 650.697256 403.213279 
L 674.856342 407.670513 
L 699.786462 412.042856 
L 725.359111 416.301516 
L 751.574289 420.441665 
L 778.431996 424.4577 
L 805.803726 428.325195 
L 833.560974 432.02251 
L 861.703738 435.54667 
L 890.232021 438.895125 
L 919.531337 442.109774 
L 950.629735 445.294997 
L 986.739858 448.760233 
L 1015.525151 451.426719 
L 1015.525151 451.426719 
" clip-path="url(#p0f9243c534)" style="fill: none; stroke: #637939; stroke-width: 1.5; stroke-linecap: round"/>
   </g>
   <g id="line2d_25">
    <path d="M 114.828174 220.412335 
L 123.18105 227.895733 
L 131.662431 235.192158 
L 140.272318 242.302211 
L 149.01071 249.227026 
L 157.877609 255.968241 
L 166.873013 262.527969 
L 175.996923 268.90877 
L 185.377845 275.197979 
L 194.887272 281.307602 
L 204.653711 287.319218 
L 214.677161 293.227499 
L 224.957623 299.028164 
L 235.495097 304.717942 
L 246.289582 310.294522 
L 257.469584 315.818601 
L 268.906598 321.222099 
L 280.72913 326.562357 
L 292.937178 331.833167 
L 305.65925 337.081435 
L 318.766839 342.246993 
L 332.388451 347.3748 
L 346.524086 352.457137 
L 361.173745 357.487684 
L 376.465932 362.502546 
L 392.400648 367.492128 
L 408.977893 372.448196 
L 426.197667 377.363646 
L 444.188475 382.266478 
L 462.950319 387.146461 
L 482.354691 391.963039 
L 502.530097 396.741461 
L 523.476539 401.473214 
L 545.194015 406.150124 
L 567.682525 410.764287 
L 590.942071 415.308066 
L 614.97265 419.774104 
L 639.774265 424.155326 
L 665.218408 428.42388 
L 691.433587 432.596125 
L 718.419799 436.664811 
L 745.920035 440.58616 
L 773.934294 444.356486 
L 802.33407 447.953793 
L 830.862352 451.342505 
L 859.262129 454.492696 
L 887.661905 457.419882 
L 916.318693 460.149394 
L 945.746515 462.727353 
L 977.744453 465.301633 
L 1015.525151 468.131531 
L 1015.525151 468.131531 
" clip-path="url(#p0f9243c534)" style="fill: none; stroke: #b5cf6b; stroke-width: 1.5; stroke-linecap: round"/>
   </g>
   <g id="line2d_26">
    <path d="M 114.828174 260.49263 
L 123.18105 267.277304 
L 131.662431 273.883252 
L 140.400823 280.405365 
L 149.267722 286.743332 
L 158.263126 292.899576 
L 167.387036 298.876966 
L 176.767958 304.757595 
L 186.405891 310.534847 
L 196.17233 316.131261 
L 206.19578 321.620874 
L 216.476242 327.000021 
L 227.142222 332.328793 
L 238.065212 337.537076 
L 249.373721 342.681596 
L 261.067746 347.754922 
L 273.147289 352.751111 
L 285.612349 357.665629 
L 298.591432 362.542396 
L 312.084539 367.372741 
L 326.091668 372.149709 
L 340.741327 376.908668 
L 356.033514 381.639833 
L 371.96823 386.335204 
L 388.673981 391.023515 
L 406.150766 395.694564 
L 424.398586 400.339643 
L 443.545947 404.981616 
L 463.464342 409.580485 
L 484.282277 414.157885 
L 505.999753 418.704201 
L 528.61677 423.210275 
L 552.133326 427.667265 
L 576.549424 432.066596 
L 601.865061 436.399961 
L 627.951734 440.638992 
L 654.937946 444.798331 
L 682.8237 448.870021 
L 711.480487 452.828284 
L 740.779804 456.649801 
L 770.464638 460.29707 
L 800.277978 463.736366 
L 829.962812 466.937246 
L 859.262129 469.873372 
L 888.175928 472.547587 
L 916.832716 474.975064 
L 945.875021 477.211382 
L 976.716407 479.359289 
L 1014.625611 481.76095 
L 1015.525151 481.816088 
L 1015.525151 481.816088 
" clip-path="url(#p0f9243c534)" style="fill: none; stroke: #8c6d31; stroke-width: 1.5; stroke-linecap: round"/>
   </g>
   <g id="line2d_27">
    <path d="M 114.828174 293.652176 
L 123.309555 299.900836 
L 131.919442 305.971504 
L 140.786341 311.950702 
L 149.781745 317.748481 
L 159.034161 323.445335 
L 168.415082 328.960551 
L 178.053015 334.369001 
L 187.94796 339.665758 
L 198.099916 344.847014 
L 208.508884 349.910043 
L 219.303369 354.911267 
L 230.354866 359.786323 
L 241.79188 364.588463 
L 253.614411 369.311515 
L 265.950966 373.99843 
L 278.673037 378.593677 
L 291.909132 383.138718 
L 305.787756 387.667708 
L 320.308908 392.169547 
L 335.47259 396.63533 
L 351.407306 401.093186 
L 368.113057 405.532701 
L 385.589842 409.945488 
L 403.966168 414.354907 
L 423.37054 418.779677 
L 443.674452 423.179954 
L 465.006411 427.574308 
L 487.366416 431.952253 
L 510.754467 436.30396 
L 535.170564 440.620019 
L 560.614708 444.89133 
L 587.086897 449.109121 
L 614.587133 453.264999 
L 643.115415 457.350958 
L 672.671743 461.359147 
L 703.256118 465.281226 
L 734.611527 469.076917 
L 766.352453 472.695397 
L 798.09338 476.091088 
L 829.448789 479.222903 
L 860.033163 482.055656 
L 889.846503 484.594994 
L 919.14582 486.868037 
L 948.573642 488.927414 
L 979.543534 490.86883 
L 1015.525151 492.903682 
L 1015.525151 492.903682 
" clip-path="url(#p0f9243c534)" style="fill: none; stroke: #e7cb94; stroke-width: 1.5; stroke-linecap: round"/>
   </g>
   <g id="patch_3">
    <path d="M 69.793325 515.449571 
L 69.793325 19.44 
" style="fill: none; stroke: #ffffff; stroke-width: 0.8; stroke-linejoin: miter; stroke-linecap: square"/>
   </g>
   <g id="patch_4">
    <path d="M 1060.56 515.449571 
L 1060.56 19.44 
" style="fill: none; stroke: #ffffff; stroke-width: 0.8; stroke-linejoin: miter; stroke-linecap: square"/>
   </g>
   <g id="patch_5">
    <path d="M 69.793325 515.449571 
L 1060.56 515.449571 
" style="fill: none; stroke: #ffffff; stroke-width: 0.8; stroke-linejoin: miter; stroke-linecap: square"/>
   </g>
   <g id="patch_6">
    <path d="M 69.793325 19.44 
L 1060.56 19.44 
" style="fill: none; stroke: #ffffff; stroke-width: 0.8; stroke-linejoin: miter; stroke-linecap: square"/>
   </g>
   <g id="legend_1">
    <g id="patch_7">
     <path d="M 951.948243 184.368385 
L 1047.96 184.368385 
Q 1051.56 184.368385 1051.56 180.768385 
L 1051.56 32.04 
Q 1051.56 28.44 1047.96 28.44 
L 951.948243 28.44 
Q 948.348243 28.44 948.348243 32.04 
L 948.348243 180.768385 
Q 948.348243 184.368385 951.948243 184.368385 
z
" style="fill: #eaeaf2; opacity: 0.8; stroke: #cccccc; stroke-linejoin: miter"/>
    </g>
    <g id="line2d_28">
     <defs>
      <path id="m8b038df8cf" d="M 0 3 
C 0.795609 3 1.55874 2.683901 2.12132 2.12132 
C 2.683901 1.55874 3 0.795609 3 0 
C 3 -0.795609 2.683901 -1.55874 2.12132 -2.12132 
C 1.55874 -2.683901 0.795609 -3 0 -3 
C -0.795609 -3 -1.55874 -2.683901 -2.12132 -2.12132 
C -2.683901 -1.55874 -3 -0.795609 -3 0 
C -3 0.795609 -2.683901 1.55874 -2.12132 2.12132 
C -1.55874 2.683901 -0.795609 3 0 3 
z
" style="stroke: #ffffff; stroke-width: 0.48"/>
     </defs>
     <g>
      <use xlink:href="#m8b038df8cf" x="973.548243" y="41.94" style="fill: #393b79; stroke: #ffffff; stroke-width: 0.48"/>
     </g>
    </g>
    <g id="text_18">
     <!-- 0.03 -->
     <g style="fill: #262626" transform="translate(1005.948243 48.24) scale(0.18 -0.18)">
      <defs>
       <path id="CMSS17-30" d="M 2758 2044 
C 2758 2405 2752 3077 2490 3596 
C 2227 4096 1805 4229 1504 4229 
C 1069 4229 698 3975 506 3570 
C 301 3146 243 2709 243 2044 
C 243 1589 262 1031 493 543 
C 755 5 1197 -128 1498 -128 
C 1894 -128 2278 81 2496 518 
C 2720 974 2758 1474 2758 2044 
z
M 1498 261 
C 1011 261 864 811 819 995 
C 742 1310 730 1614 730 2114 
C 730 2506 730 2948 851 3297 
C 998 3701 1254 3840 1498 3840 
C 1971 3840 2125 3372 2176 3208 
C 2272 2873 2272 2481 2272 2114 
C 2272 1526 2272 261 1498 261 
z
" transform="scale(0.015625)"/>
       <path id="CMSS17-2e" d="M 1088 510 
L 576 510 
L 576 0 
L 1088 0 
L 1088 510 
z
" transform="scale(0.015625)"/>
       <path id="CMSS17-33" d="M 1005 2025 
L 1440 2025 
C 2042 2025 2214 1507 2214 1146 
C 2214 653 1933 267 1472 267 
C 1114 267 608 444 320 912 
C 275 691 275 678 250 526 
C 550 88 1037 -128 1485 -128 
C 2214 -128 2752 473 2752 1138 
C 2752 1638 2400 2057 1920 2215 
C 2304 2424 2586 2816 2586 3273 
C 2586 3805 2093 4229 1491 4229 
C 941 4229 512 3892 333 3530 
C 378 3468 493 3284 550 3189 
C 691 3562 1056 3840 1485 3840 
C 1843 3840 2080 3607 2080 3271 
C 2080 2923 1856 2543 1478 2455 
C 1453 2455 1056 2417 1005 2411 
L 1005 2025 
z
" transform="scale(0.015625)"/>
      </defs>
      <use xlink:href="#CMSS17-30" transform="scale(0.996264)"/>
      <use xlink:href="#CMSS17-2e" transform="translate(46.843624 0) scale(0.996264)"/>
      <use xlink:href="#CMSS17-30" transform="translate(72.867828 0) scale(0.996264)"/>
      <use xlink:href="#CMSS17-33" transform="translate(119.711452 0) scale(0.996264)"/>
     </g>
    </g>
    <g id="line2d_29">
     <defs>
      <path id="m61c8d74757" d="M 0 3 
C 0.795609 3 1.55874 2.683901 2.12132 2.12132 
C 2.683901 1.55874 3 0.795609 3 0 
C 3 -0.795609 2.683901 -1.55874 2.12132 -2.12132 
C 1.55874 -2.683901 0.795609 -3 0 -3 
C -0.795609 -3 -1.55874 -2.683901 -2.12132 -2.12132 
C -2.683901 -1.55874 -3 -0.795609 -3 0 
C -3 0.795609 -2.683901 1.55874 -2.12132 2.12132 
C -1.55874 2.683901 -0.795609 3 0 3 
z
" style="stroke: #ffffff; stroke-width: 0.48"/>
     </defs>
     <g>
      <use xlink:href="#m61c8d74757" x="973.548243" y="67.028064" style="fill: #6b6ecf; stroke: #ffffff; stroke-width: 0.48"/>
     </g>
    </g>
    <g id="text_19">
     <!-- 0.035 -->
     <g style="fill: #262626" transform="translate(1005.948243 73.328064) scale(0.18 -0.18)">
      <defs>
       <path id="CMSS17-35" d="M 934 3752 
L 2502 3752 
L 2502 4160 
L 467 4160 
L 467 1781 
L 896 1781 
C 1011 2046 1248 2240 1555 2240 
C 1843 2240 2163 1989 2163 1266 
C 2163 493 1709 267 1376 267 
C 966 267 589 512 422 851 
L 218 499 
C 512 49 992 -128 1376 -128 
C 2118 -128 2701 497 2701 1253 
C 2701 2030 2182 2629 1562 2629 
C 1338 2629 1120 2553 934 2399 
L 934 3752 
z
" transform="scale(0.015625)"/>
      </defs>
      <use xlink:href="#CMSS17-30" transform="scale(0.996264)"/>
      <use xlink:href="#CMSS17-2e" transform="translate(46.843624 0) scale(0.996264)"/>
      <use xlink:href="#CMSS17-30" transform="translate(72.867828 0) scale(0.996264)"/>
      <use xlink:href="#CMSS17-33" transform="translate(119.711452 0) scale(0.996264)"/>
      <use xlink:href="#CMSS17-35" transform="translate(166.555075 0) scale(0.996264)"/>
     </g>
    </g>
    <g id="line2d_30">
     <defs>
      <path id="me451b33811" d="M 0 3 
C 0.795609 3 1.55874 2.683901 2.12132 2.12132 
C 2.683901 1.55874 3 0.795609 3 0 
C 3 -0.795609 2.683901 -1.55874 2.12132 -2.12132 
C 1.55874 -2.683901 0.795609 -3 0 -3 
C -0.795609 -3 -1.55874 -2.683901 -2.12132 -2.12132 
C -2.683901 -1.55874 -3 -0.795609 -3 0 
C -3 0.795609 -2.683901 1.55874 -2.12132 2.12132 
C -1.55874 2.683901 -0.795609 3 0 3 
z
" style="stroke: #ffffff; stroke-width: 0.48"/>
     </defs>
     <g>
      <use xlink:href="#me451b33811" x="973.548243" y="92.116128" style="fill: #637939; stroke: #ffffff; stroke-width: 0.48"/>
     </g>
    </g>
    <g id="text_20">
     <!-- 0.04 -->
     <g style="fill: #262626" transform="translate(1005.948243 98.416128) scale(0.18 -0.18)">
      <defs>
       <path id="CMSS17-34" d="M 2253 1088 
L 2835 1088 
L 2835 1477 
L 2253 1477 
L 2253 4192 
L 1690 4192 
L 166 1477 
L 166 1088 
L 1747 1088 
L 1747 0 
L 2253 0 
L 2253 1088 
z
M 659 1477 
C 1030 2127 1766 3439 1766 3885 
L 1766 1477 
L 659 1477 
z
" transform="scale(0.015625)"/>
      </defs>
      <use xlink:href="#CMSS17-30" transform="scale(0.996264)"/>
      <use xlink:href="#CMSS17-2e" transform="translate(46.843624 0) scale(0.996264)"/>
      <use xlink:href="#CMSS17-30" transform="translate(72.867828 0) scale(0.996264)"/>
      <use xlink:href="#CMSS17-34" transform="translate(119.711452 0) scale(0.996264)"/>
     </g>
    </g>
    <g id="line2d_31">
     <defs>
      <path id="mc377004918" d="M 0 3 
C 0.795609 3 1.55874 2.683901 2.12132 2.12132 
C 2.683901 1.55874 3 0.795609 3 0 
C 3 -0.795609 2.683901 -1.55874 2.12132 -2.12132 
C 1.55874 -2.683901 0.795609 -3 0 -3 
C -0.795609 -3 -1.55874 -2.683901 -2.12132 -2.12132 
C -2.683901 -1.55874 -3 -0.795609 -3 0 
C -3 0.795609 -2.683901 1.55874 -2.12132 2.12132 
C -1.55874 2.683901 -0.795609 3 0 3 
z
" style="stroke: #ffffff; stroke-width: 0.48"/>
     </defs>
     <g>
      <use xlink:href="#mc377004918" x="973.548243" y="117.204193" style="fill: #b5cf6b; stroke: #ffffff; stroke-width: 0.48"/>
     </g>
    </g>
    <g id="text_21">
     <!-- 0.045 -->
     <g style="fill: #262626" transform="translate(1005.948243 123.504193) scale(0.18 -0.18)">
      <use xlink:href="#CMSS17-30" transform="scale(0.996264)"/>
      <use xlink:href="#CMSS17-2e" transform="translate(46.843624 0) scale(0.996264)"/>
      <use xlink:href="#CMSS17-30" transform="translate(72.867828 0) scale(0.996264)"/>
      <use xlink:href="#CMSS17-34" transform="translate(119.711452 0) scale(0.996264)"/>
      <use xlink:href="#CMSS17-35" transform="translate(166.555075 0) scale(0.996264)"/>
     </g>
    </g>
    <g id="line2d_32">
     <defs>
      <path id="m9fab3176a1" d="M 0 3 
C 0.795609 3 1.55874 2.683901 2.12132 2.12132 
C 2.683901 1.55874 3 0.795609 3 0 
C 3 -0.795609 2.683901 -1.55874 2.12132 -2.12132 
C 1.55874 -2.683901 0.795609 -3 0 -3 
C -0.795609 -3 -1.55874 -2.683901 -2.12132 -2.12132 
C -2.683901 -1.55874 -3 -0.795609 -3 0 
C -3 0.795609 -2.683901 1.55874 -2.12132 2.12132 
C -1.55874 2.683901 -0.795609 3 0 3 
z
" style="stroke: #ffffff; stroke-width: 0.48"/>
     </defs>
     <g>
      <use xlink:href="#m9fab3176a1" x="973.548243" y="142.292257" style="fill: #8c6d31; stroke: #ffffff; stroke-width: 0.48"/>
     </g>
    </g>
    <g id="text_22">
     <!-- 0.05 -->
     <g style="fill: #262626" transform="translate(1005.948243 148.592257) scale(0.18 -0.18)">
      <use xlink:href="#CMSS17-30" transform="scale(0.996264)"/>
      <use xlink:href="#CMSS17-2e" transform="translate(46.843624 0) scale(0.996264)"/>
      <use xlink:href="#CMSS17-30" transform="translate(72.867828 0) scale(0.996264)"/>
      <use xlink:href="#CMSS17-35" transform="translate(119.711452 0) scale(0.996264)"/>
     </g>
    </g>
    <g id="line2d_33">
     <defs>
      <path id="mdd1bfe0986" d="M 0 3 
C 0.795609 3 1.55874 2.683901 2.12132 2.12132 
C 2.683901 1.55874 3 0.795609 3 0 
C 3 -0.795609 2.683901 -1.55874 2.12132 -2.12132 
C 1.55874 -2.683901 0.795609 -3 0 -3 
C -0.795609 -3 -1.55874 -2.683901 -2.12132 -2.12132 
C -2.683901 -1.55874 -3 -0.795609 -3 0 
C -3 0.795609 -2.683901 1.55874 -2.12132 2.12132 
C -1.55874 2.683901 -0.795609 3 0 3 
z
" style="stroke: #ffffff; stroke-width: 0.48"/>
     </defs>
     <g>
      <use xlink:href="#mdd1bfe0986" x="973.548243" y="167.380321" style="fill: #e7cb94; stroke: #ffffff; stroke-width: 0.48"/>
     </g>
    </g>
    <g id="text_23">
     <!-- 0.055 -->
     <g style="fill: #262626" transform="translate(1005.948243 173.680321) scale(0.18 -0.18)">
      <use xlink:href="#CMSS17-30" transform="scale(0.996264)"/>
      <use xlink:href="#CMSS17-2e" transform="translate(46.843624 0) scale(0.996264)"/>
      <use xlink:href="#CMSS17-30" transform="translate(72.867828 0) scale(0.996264)"/>
      <use xlink:href="#CMSS17-35" transform="translate(119.711452 0) scale(0.996264)"/>
      <use xlink:href="#CMSS17-35" transform="translate(166.555075 0) scale(0.996264)"/>
     </g>
    </g>
   </g>
  </g>
 </g>
 <defs>
  <clipPath id="p0f9243c534">
   <rect x="69.793325" y="19.44" width="990.766675" height="496.009571"/>
  </clipPath>
 </defs>
</svg>
