<?xml version="1.0" encoding="utf-8" standalone="no"?>
<!DOCTYPE svg PUBLIC "-//W3C//DTD SVG 1.1//EN"
  "http://www.w3.org/Graphics/SVG/1.1/DTD/svg11.dtd">
<svg xmlns:xlink="http://www.w3.org/1999/xlink" width="1080pt" height="576pt" viewBox="0 0 1080 576" xmlns="http://www.w3.org/2000/svg" version="1.1">
 <metadata>
  <rdf:RDF xmlns:dc="http://purl.org/dc/elements/1.1/" xmlns:cc="http://creativecommons.org/ns#" xmlns:rdf="http://www.w3.org/1999/02/22-rdf-syntax-ns#">
   <cc:Work>
    <dc:type rdf:resource="http://purl.org/dc/dcmitype/StillImage"/>
    <dc:date>2024-07-17T11:32:25.628730</dc:date>
    <dc:format>image/svg+xml</dc:format>
    <dc:creator>
     <cc:Agent>
      <dc:title>Matplotlib v3.9.0, https://matplotlib.org/</dc:title>
     </cc:Agent>
    </dc:creator>
   </cc:Work>
  </rdf:RDF>
 </metadata>
 <defs>
  <style type="text/css">*{stroke-linejoin: round; stroke-linecap: butt}</style>
 </defs>
 <g id="figure_1">
  <g id="patch_1">
   <path d="M 0 576 
L 1080 576 
L 1080 0 
L 0 0 
z
" style="fill: #ffffff"/>
  </g>
  <g id="axes_1">
   <g id="patch_2">
    <path d="M 69.793325 515.449571 
L 1060.56 515.449571 
L 1060.56 19.44 
L 69.793325 19.44 
z
" style="fill: #eaeaf2"/>
   </g>
   <g id="matplotlib.axis_1">
    <g id="xtick_1">
     <g id="line2d_1">
      <path d="M 114.828174 515.449571 
L 114.828174 19.44 
" clip-path="url(#p02ca2cd121)" style="fill: none; stroke: #ffffff; stroke-width: 0.8; stroke-linecap: round"/>
     </g>
     <g id="text_1">
      <!-- $\mathdefault{0.3}$ -->
      <g style="fill: #262626" transform="translate(104.856413 533.519159) scale(0.16 -0.16)">
       <defs>
        <path id="CMR17-30" d="M 2688 2025 
C 2688 2416 2682 3080 2413 3591 
C 2176 4039 1798 4198 1466 4198 
C 1158 4198 768 4058 525 3597 
C 269 3118 243 2524 243 2025 
C 243 1661 250 1106 448 619 
C 723 -39 1216 -128 1466 -128 
C 1760 -128 2208 -7 2470 600 
C 2662 1042 2688 1559 2688 2025 
z
M 1466 -26 
C 1056 -26 813 325 723 812 
C 653 1188 653 1738 653 2096 
C 653 2588 653 2997 736 3387 
C 858 3929 1216 4096 1466 4096 
C 1728 4096 2067 3923 2189 3400 
C 2272 3036 2278 2607 2278 2096 
C 2278 1680 2278 1169 2202 792 
C 2067 95 1690 -26 1466 -26 
z
" transform="scale(0.015625)"/>
        <path id="CMMI12-3a" d="M 1178 307 
C 1178 492 1024 619 870 619 
C 685 619 557 466 557 313 
C 557 128 710 0 864 0 
C 1050 0 1178 153 1178 307 
z
" transform="scale(0.015625)"/>
        <path id="CMR17-33" d="M 1414 2157 
C 1984 2157 2234 1662 2234 1090 
C 2234 320 1824 25 1453 25 
C 1114 25 563 194 390 693 
C 422 680 454 680 486 680 
C 640 680 755 782 755 948 
C 755 1133 614 1216 486 1216 
C 378 1216 211 1165 211 926 
C 211 335 787 -128 1466 -128 
C 2176 -128 2720 430 2720 1085 
C 2720 1707 2208 2157 1600 2227 
C 2086 2328 2554 2756 2554 3329 
C 2554 3820 2048 4179 1472 4179 
C 890 4179 378 3829 378 3329 
C 378 3110 544 3072 627 3072 
C 762 3072 877 3155 877 3321 
C 877 3486 762 3569 627 3569 
C 602 3569 570 3569 544 3557 
C 730 3959 1235 4032 1459 4032 
C 1683 4032 2106 3925 2106 3320 
C 2106 3143 2080 2828 1862 2550 
C 1670 2304 1453 2304 1242 2284 
C 1210 2284 1062 2269 1037 2269 
C 992 2263 966 2257 966 2208 
C 966 2163 973 2157 1101 2157 
L 1414 2157 
z
" transform="scale(0.015625)"/>
       </defs>
       <use xlink:href="#CMR17-30" transform="scale(0.996264)"/>
       <use xlink:href="#CMMI12-3a" transform="translate(45.690477 0) scale(0.996264)"/>
       <use xlink:href="#CMR17-33" transform="translate(72.787654 0) scale(0.996264)"/>
      </g>
     </g>
    </g>
    <g id="xtick_2">
     <g id="line2d_2">
      <path d="M 243.333949 515.449571 
L 243.333949 19.44 
" clip-path="url(#p02ca2cd121)" style="fill: none; stroke: #ffffff; stroke-width: 0.8; stroke-linecap: round"/>
     </g>
     <g id="text_2">
      <!-- $\mathdefault{0.4}$ -->
      <g style="fill: #262626" transform="translate(233.362188 533.519159) scale(0.16 -0.16)">
       <defs>
        <path id="CMR17-34" d="M 2150 4122 
C 2150 4256 2144 4256 2029 4256 
L 128 1254 
L 128 1088 
L 1779 1088 
L 1779 457 
C 1779 224 1766 160 1318 160 
L 1197 160 
L 1197 0 
C 1402 0 1747 0 1965 0 
C 2182 0 2528 0 2733 0 
L 2733 160 
L 2611 160 
C 2163 160 2150 224 2150 457 
L 2150 1088 
L 2803 1088 
L 2803 1254 
L 2150 1254 
L 2150 4122 
z
M 1798 3703 
L 1798 1254 
L 256 1254 
L 1798 3703 
z
" transform="scale(0.015625)"/>
       </defs>
       <use xlink:href="#CMR17-30" transform="scale(0.996264)"/>
       <use xlink:href="#CMMI12-3a" transform="translate(45.690477 0) scale(0.996264)"/>
       <use xlink:href="#CMR17-34" transform="translate(72.787654 0) scale(0.996264)"/>
      </g>
     </g>
    </g>
    <g id="xtick_3">
     <g id="line2d_3">
      <path d="M 371.839724 515.449571 
L 371.839724 19.44 
" clip-path="url(#p02ca2cd121)" style="fill: none; stroke: #ffffff; stroke-width: 0.8; stroke-linecap: round"/>
     </g>
     <g id="text_3">
      <!-- $\mathdefault{0.5}$ -->
      <g style="fill: #262626" transform="translate(361.867963 533.519159) scale(0.16 -0.16)">
       <defs>
        <path id="CMR17-35" d="M 730 3692 
C 794 3666 1056 3584 1325 3584 
C 1920 3584 2246 3911 2432 4100 
C 2432 4157 2432 4192 2394 4192 
C 2387 4192 2374 4192 2323 4163 
C 2099 4058 1837 3973 1517 3973 
C 1325 3973 1037 3999 723 4139 
C 653 4171 640 4171 634 4171 
C 602 4171 595 4164 595 4037 
L 595 2203 
C 595 2089 595 2057 659 2057 
C 691 2057 704 2070 736 2114 
C 941 2401 1222 2522 1542 2522 
C 1766 2522 2246 2382 2246 1289 
C 2246 1085 2246 715 2054 421 
C 1894 159 1645 25 1370 25 
C 947 25 518 320 403 814 
C 429 807 480 795 506 795 
C 589 795 749 840 749 1038 
C 749 1210 627 1280 506 1280 
C 358 1280 262 1190 262 1011 
C 262 454 704 -128 1382 -128 
C 2042 -128 2669 440 2669 1264 
C 2669 2030 2170 2624 1549 2624 
C 1222 2624 947 2503 730 2274 
L 730 3692 
z
" transform="scale(0.015625)"/>
       </defs>
       <use xlink:href="#CMR17-30" transform="scale(0.996264)"/>
       <use xlink:href="#CMMI12-3a" transform="translate(45.690477 0) scale(0.996264)"/>
       <use xlink:href="#CMR17-35" transform="translate(72.787654 0) scale(0.996264)"/>
      </g>
     </g>
    </g>
    <g id="xtick_4">
     <g id="line2d_4">
      <path d="M 500.345499 515.449571 
L 500.345499 19.44 
" clip-path="url(#p02ca2cd121)" style="fill: none; stroke: #ffffff; stroke-width: 0.8; stroke-linecap: round"/>
     </g>
     <g id="text_4">
      <!-- $\mathdefault{0.6}$ -->
      <g style="fill: #262626" transform="translate(490.373738 533.519159) scale(0.16 -0.16)">
       <defs>
        <path id="CMR17-36" d="M 678 2176 
C 678 3690 1395 4032 1811 4032 
C 1946 4032 2272 4009 2400 3776 
C 2298 3776 2106 3776 2106 3553 
C 2106 3381 2246 3323 2336 3323 
C 2394 3323 2566 3348 2566 3560 
C 2566 3954 2246 4179 1805 4179 
C 1043 4179 243 3390 243 1984 
C 243 253 966 -128 1478 -128 
C 2099 -128 2688 427 2688 1283 
C 2688 2081 2170 2662 1517 2662 
C 1126 2662 838 2407 678 1960 
L 678 2176 
z
M 1478 25 
C 691 25 691 1200 691 1436 
C 691 1896 909 2560 1504 2560 
C 1613 2560 1926 2560 2138 2120 
C 2253 1870 2253 1609 2253 1289 
C 2253 944 2253 690 2118 434 
C 1978 171 1773 25 1478 25 
z
" transform="scale(0.015625)"/>
       </defs>
       <use xlink:href="#CMR17-30" transform="scale(0.996264)"/>
       <use xlink:href="#CMMI12-3a" transform="translate(45.690477 0) scale(0.996264)"/>
       <use xlink:href="#CMR17-36" transform="translate(72.787654 0) scale(0.996264)"/>
      </g>
     </g>
    </g>
    <g id="xtick_5">
     <g id="line2d_5">
      <path d="M 628.851274 515.449571 
L 628.851274 19.44 
" clip-path="url(#p02ca2cd121)" style="fill: none; stroke: #ffffff; stroke-width: 0.8; stroke-linecap: round"/>
     </g>
     <g id="text_5">
      <!-- $\mathdefault{0.7}$ -->
      <g style="fill: #262626" transform="translate(618.879513 533.519159) scale(0.16 -0.16)">
       <defs>
        <path id="CMR17-37" d="M 2886 3941 
L 2886 4081 
L 1382 4081 
C 634 4081 621 4165 595 4288 
L 480 4288 
L 294 3094 
L 410 3094 
C 429 3215 474 3540 550 3661 
C 589 3712 1062 3712 1171 3712 
L 2579 3712 
L 1869 2661 
C 1395 1954 1069 999 1069 165 
C 1069 89 1069 -128 1299 -128 
C 1530 -128 1530 89 1530 171 
L 1530 465 
C 1530 1508 1709 2196 2003 2636 
L 2886 3941 
z
" transform="scale(0.015625)"/>
       </defs>
       <use xlink:href="#CMR17-30" transform="scale(0.996264)"/>
       <use xlink:href="#CMMI12-3a" transform="translate(45.690477 0) scale(0.996264)"/>
       <use xlink:href="#CMR17-37" transform="translate(72.787654 0) scale(0.996264)"/>
      </g>
     </g>
    </g>
    <g id="xtick_6">
     <g id="line2d_6">
      <path d="M 757.357049 515.449571 
L 757.357049 19.44 
" clip-path="url(#p02ca2cd121)" style="fill: none; stroke: #ffffff; stroke-width: 0.8; stroke-linecap: round"/>
     </g>
     <g id="text_6">
      <!-- $\mathdefault{0.8}$ -->
      <g style="fill: #262626" transform="translate(747.385288 533.519159) scale(0.16 -0.16)">
       <defs>
        <path id="CMR17-38" d="M 1741 2264 
C 2144 2467 2554 2773 2554 3263 
C 2554 3841 1990 4179 1472 4179 
C 890 4179 378 3759 378 3180 
C 378 3021 416 2747 666 2505 
C 730 2442 998 2251 1171 2130 
C 883 1983 211 1634 211 934 
C 211 279 838 -128 1459 -128 
C 2144 -128 2720 362 2720 1010 
C 2720 1590 2330 1857 2074 2029 
L 1741 2264 
z
M 902 2822 
C 851 2854 595 3051 595 3351 
C 595 3739 998 4032 1459 4032 
C 1965 4032 2336 3676 2336 3262 
C 2336 2669 1670 2331 1638 2331 
C 1632 2331 1626 2331 1574 2370 
L 902 2822 
z
M 2080 1519 
C 2176 1449 2483 1240 2483 851 
C 2483 381 2010 25 1472 25 
C 890 25 448 438 448 940 
C 448 1443 838 1862 1280 2060 
L 2080 1519 
z
" transform="scale(0.015625)"/>
       </defs>
       <use xlink:href="#CMR17-30" transform="scale(0.996264)"/>
       <use xlink:href="#CMMI12-3a" transform="translate(45.690477 0) scale(0.996264)"/>
       <use xlink:href="#CMR17-38" transform="translate(72.787654 0) scale(0.996264)"/>
      </g>
     </g>
    </g>
    <g id="xtick_7">
     <g id="line2d_7">
      <path d="M 885.862824 515.449571 
L 885.862824 19.44 
" clip-path="url(#p02ca2cd121)" style="fill: none; stroke: #ffffff; stroke-width: 0.8; stroke-linecap: round"/>
     </g>
     <g id="text_7">
      <!-- $\mathdefault{0.9}$ -->
      <g style="fill: #262626" transform="translate(875.891063 533.519159) scale(0.16 -0.16)">
       <defs>
        <path id="CMR17-39" d="M 2253 1864 
C 2253 464 1670 31 1190 31 
C 1043 31 685 31 538 294 
C 704 268 826 357 826 518 
C 826 692 685 749 595 749 
C 538 749 365 723 365 506 
C 365 71 742 -128 1203 -128 
C 1939 -128 2688 674 2688 2073 
C 2688 3817 1971 4179 1485 4179 
C 851 4179 243 3628 243 2778 
C 243 1991 762 1408 1414 1408 
C 1952 1408 2189 1903 2253 2112 
L 2253 1864 
z
M 1427 1510 
C 1254 1510 1011 1542 813 1922 
C 678 2169 678 2461 678 2771 
C 678 3146 678 3405 858 3684 
C 947 3817 1114 4032 1485 4032 
C 2240 4032 2240 2885 2240 2632 
C 2240 2182 2035 1510 1427 1510 
z
" transform="scale(0.015625)"/>
       </defs>
       <use xlink:href="#CMR17-30" transform="scale(0.996264)"/>
       <use xlink:href="#CMMI12-3a" transform="translate(45.690477 0) scale(0.996264)"/>
       <use xlink:href="#CMR17-39" transform="translate(72.787654 0) scale(0.996264)"/>
      </g>
     </g>
    </g>
    <g id="xtick_8">
     <g id="line2d_8">
      <path d="M 1014.368599 515.449571 
L 1014.368599 19.44 
" clip-path="url(#p02ca2cd121)" style="fill: none; stroke: #ffffff; stroke-width: 0.8; stroke-linecap: round"/>
     </g>
     <g id="text_8">
      <!-- $\mathdefault{1.0}$ -->
      <g style="fill: #262626" transform="translate(1004.396838 533.519159) scale(0.16 -0.16)">
       <defs>
        <path id="CMR17-31" d="M 1702 4058 
C 1702 4192 1696 4192 1606 4192 
C 1357 3916 979 3827 621 3827 
C 602 3827 570 3827 563 3808 
C 557 3795 557 3782 557 3648 
C 755 3648 1088 3686 1344 3839 
L 1344 461 
C 1344 236 1331 160 781 160 
L 589 160 
L 589 0 
C 896 0 1216 0 1523 0 
C 1830 0 2150 0 2458 0 
L 2458 160 
L 2266 160 
C 1715 160 1702 230 1702 458 
L 1702 4058 
z
" transform="scale(0.015625)"/>
       </defs>
       <use xlink:href="#CMR17-31" transform="scale(0.996264)"/>
       <use xlink:href="#CMMI12-3a" transform="translate(45.690477 0) scale(0.996264)"/>
       <use xlink:href="#CMR17-30" transform="translate(72.787654 0) scale(0.996264)"/>
      </g>
     </g>
    </g>
    <g id="text_9">
     <!-- adhesivity -->
     <g style="fill: #262626" transform="translate(530.933941 553.071936) scale(0.18 -0.18)">
      <defs>
       <path id="CMSS17-61" d="M 2406 1791 
C 2406 2392 1978 2808 1402 2808 
C 1120 2808 813 2757 461 2553 
L 499 2135 
C 659 2248 934 2432 1395 2432 
C 1722 2432 1920 2180 1920 1782 
L 1920 1536 
C 896 1536 256 1238 256 726 
C 256 461 416 -64 947 -64 
C 1043 -64 1562 -64 1933 217 
L 1933 -19 
L 2406 -19 
L 2406 1791 
z
M 1920 816 
C 1920 701 1920 548 1728 434 
C 1562 325 1350 325 1261 325 
C 941 325 723 511 723 744 
C 723 1211 1722 1211 1920 1211 
L 1920 816 
z
" transform="scale(0.015625)"/>
       <path id="CMSS17-64" d="M 2611 4416 
L 2138 4416 
L 2138 2438 
C 1939 2603 1613 2756 1254 2756 
C 672 2756 211 2131 211 1347 
C 211 562 666 -64 1235 -64 
C 1677 -64 1971 172 2125 306 
L 2125 -13 
L 2611 -13 
L 2611 4416 
z
M 2125 836 
C 2125 747 2125 653 1926 482 
C 1798 375 1645 325 1498 325 
C 1152 325 698 576 698 1340 
C 698 2134 1210 2368 1562 2368 
C 1798 2368 1990 2254 2125 2065 
L 2125 836 
z
" transform="scale(0.015625)"/>
       <path id="CMSS17-68" d="M 2618 1891 
C 2618 2292 2522 2820 1798 2820 
C 1395 2820 1133 2623 947 2407 
L 947 4448 
L 474 4448 
L 474 32 
L 960 32 
L 960 1573 
C 960 1973 1114 2432 1549 2432 
C 2112 2432 2131 2056 2131 1839 
L 2131 32 
L 2618 32 
L 2618 1891 
z
" transform="scale(0.015625)"/>
       <path id="CMSS17-65" d="M 2502 1377 
C 2502 1590 2490 2003 2285 2345 
C 2061 2713 1696 2816 1421 2816 
C 755 2816 192 2188 192 1375 
C 192 582 774 -64 1510 -64 
C 1798 -64 2150 19 2470 248 
C 2470 274 2458 414 2451 420 
C 2451 433 2432 630 2432 656 
C 2125 407 1773 325 1517 325 
C 1107 325 666 667 646 1377 
L 2502 1377 
z
M 698 1728 
C 781 2084 1062 2421 1421 2421 
C 1517 2421 1965 2421 2080 1728 
L 698 1728 
z
" transform="scale(0.015625)"/>
       <path id="CMSS17-73" d="M 2061 2627 
C 1683 2807 1389 2807 1197 2807 
C 742 2807 198 2648 198 2003 
C 198 1359 902 1218 1094 1179 
C 1389 1122 1715 1058 1715 740 
C 1715 337 1254 337 1171 337 
C 915 337 563 407 243 638 
L 166 210 
C 531 0 883 -64 1178 -64 
C 1965 -64 2163 416 2163 781 
C 2163 1094 1984 1305 1862 1401 
C 1651 1568 1574 1587 1050 1696 
C 960 1709 646 1779 646 2066 
C 646 2432 1050 2432 1139 2432 
C 1555 2432 1811 2303 1984 2208 
L 2061 2627 
z
" transform="scale(0.015625)"/>
       <path id="CMSS17-69" d="M 979 4183 
L 442 4183 
L 442 3648 
L 979 3648 
L 979 4183 
z
M 947 2739 
L 474 2739 
L 474 0 
L 947 0 
L 947 2739 
z
" transform="scale(0.015625)"/>
       <path id="CMSS17-76" d="M 2675 2752 
L 2176 2752 
L 1747 1556 
C 1613 1165 1421 627 1389 352 
L 1382 352 
C 1370 468 1318 634 1286 749 
C 1248 890 1197 1056 1158 1172 
L 595 2752 
L 83 2752 
L 1094 0 
L 1664 0 
L 2675 2752 
z
" transform="scale(0.015625)"/>
       <path id="CMSS17-74" d="M 1069 2368 
L 1901 2368 
L 1901 2737 
L 1069 2737 
L 1069 3520 
L 614 3520 
L 614 2737 
L 109 2737 
L 109 2368 
L 602 2368 
L 602 749 
C 602 384 685 -64 1107 -64 
C 1427 -64 1722 25 2003 172 
L 1901 548 
C 1747 414 1562 337 1363 337 
C 1082 337 1069 696 1069 856 
L 1069 2368 
z
" transform="scale(0.015625)"/>
       <path id="CMSS17-79" d="M 2675 2752 
L 2176 2752 
C 1632 1294 1446 702 1434 383 
L 1427 383 
C 1408 696 1126 1460 902 2007 
L 602 2752 
L 83 2752 
L 1216 13 
C 1146 -178 1043 -465 1011 -529 
C 870 -885 774 -885 672 -885 
C 646 -885 442 -885 211 -809 
L 250 -1229 
C 410 -1261 570 -1280 685 -1280 
C 845 -1280 1165 -1280 1459 -497 
L 2675 2752 
z
" transform="scale(0.015625)"/>
      </defs>
      <use xlink:href="#CMSS17-61" transform="scale(0.996264)"/>
      <use xlink:href="#CMSS17-64" transform="translate(44.921921 0) scale(0.996264)"/>
      <use xlink:href="#CMSS17-68" transform="translate(93.126864 0) scale(0.996264)"/>
      <use xlink:href="#CMSS17-65" transform="translate(141.331807 0) scale(0.996264)"/>
      <use xlink:href="#CMSS17-73" transform="translate(182.970629 0) scale(0.996264)"/>
      <use xlink:href="#CMSS17-69" transform="translate(218.884171 0) scale(0.996264)"/>
      <use xlink:href="#CMSS17-76" transform="translate(241.064894 0) scale(0.996264)"/>
      <use xlink:href="#CMSS17-69" transform="translate(284.065036 0) scale(0.996264)"/>
      <use xlink:href="#CMSS17-74" transform="translate(306.245759 0) scale(0.996264)"/>
      <use xlink:href="#CMSS17-79" transform="translate(337.474871 0) scale(0.996264)"/>
     </g>
    </g>
   </g>
   <g id="matplotlib.axis_2">
    <g id="ytick_1">
     <g id="line2d_9">
      <path d="M 69.793325 475.745557 
L 1060.56 475.745557 
" clip-path="url(#p02ca2cd121)" style="fill: none; stroke: #ffffff; stroke-width: 0.8; stroke-linecap: round"/>
     </g>
     <g id="text_10">
      <!-- $\mathdefault{50}$ -->
      <g style="fill: #262626" transform="translate(47.185351 481.280351) scale(0.16 -0.16)">
       <use xlink:href="#CMR17-35" transform="scale(0.996264)"/>
       <use xlink:href="#CMR17-30" transform="translate(45.690477 0) scale(0.996264)"/>
      </g>
     </g>
    </g>
    <g id="ytick_2">
     <g id="line2d_10">
      <path d="M 69.793325 401.765131 
L 1060.56 401.765131 
" clip-path="url(#p02ca2cd121)" style="fill: none; stroke: #ffffff; stroke-width: 0.8; stroke-linecap: round"/>
     </g>
     <g id="text_11">
      <!-- $\mathdefault{100}$ -->
      <g style="fill: #262626" transform="translate(39.381364 407.299925) scale(0.16 -0.16)">
       <use xlink:href="#CMR17-31" transform="scale(0.996264)"/>
       <use xlink:href="#CMR17-30" transform="translate(45.690477 0) scale(0.996264)"/>
       <use xlink:href="#CMR17-30" transform="translate(91.380954 0) scale(0.996264)"/>
      </g>
     </g>
    </g>
    <g id="ytick_3">
     <g id="line2d_11">
      <path d="M 69.793325 327.784705 
L 1060.56 327.784705 
" clip-path="url(#p02ca2cd121)" style="fill: none; stroke: #ffffff; stroke-width: 0.8; stroke-linecap: round"/>
     </g>
     <g id="text_12">
      <!-- $\mathdefault{150}$ -->
      <g style="fill: #262626" transform="translate(39.381364 333.319499) scale(0.16 -0.16)">
       <use xlink:href="#CMR17-31" transform="scale(0.996264)"/>
       <use xlink:href="#CMR17-35" transform="translate(45.690477 0) scale(0.996264)"/>
       <use xlink:href="#CMR17-30" transform="translate(91.380954 0) scale(0.996264)"/>
      </g>
     </g>
    </g>
    <g id="ytick_4">
     <g id="line2d_12">
      <path d="M 69.793325 253.804279 
L 1060.56 253.804279 
" clip-path="url(#p02ca2cd121)" style="fill: none; stroke: #ffffff; stroke-width: 0.8; stroke-linecap: round"/>
     </g>
     <g id="text_13">
      <!-- $\mathdefault{200}$ -->
      <g style="fill: #262626" transform="translate(39.381364 259.339074) scale(0.16 -0.16)">
       <defs>
        <path id="CMR17-32" d="M 2669 989 
L 2554 989 
C 2490 536 2438 459 2413 420 
C 2381 369 1920 369 1830 369 
L 602 369 
C 832 619 1280 1072 1824 1597 
C 2214 1967 2669 2402 2669 3035 
C 2669 3790 2067 4224 1395 4224 
C 691 4224 262 3604 262 3030 
C 262 2780 448 2748 525 2748 
C 589 2748 781 2787 781 3010 
C 781 3207 614 3264 525 3264 
C 486 3264 448 3258 422 3245 
C 544 3790 915 4058 1306 4058 
C 1862 4058 2227 3617 2227 3035 
C 2227 2479 1901 2000 1536 1584 
L 262 146 
L 262 0 
L 2515 0 
L 2669 989 
z
" transform="scale(0.015625)"/>
       </defs>
       <use xlink:href="#CMR17-32" transform="scale(0.996264)"/>
       <use xlink:href="#CMR17-30" transform="translate(45.690477 0) scale(0.996264)"/>
       <use xlink:href="#CMR17-30" transform="translate(91.380954 0) scale(0.996264)"/>
      </g>
     </g>
    </g>
    <g id="ytick_5">
     <g id="line2d_13">
      <path d="M 69.793325 179.823854 
L 1060.56 179.823854 
" clip-path="url(#p02ca2cd121)" style="fill: none; stroke: #ffffff; stroke-width: 0.8; stroke-linecap: round"/>
     </g>
     <g id="text_14">
      <!-- $\mathdefault{250}$ -->
      <g style="fill: #262626" transform="translate(39.381364 185.358648) scale(0.16 -0.16)">
       <use xlink:href="#CMR17-32" transform="scale(0.996264)"/>
       <use xlink:href="#CMR17-35" transform="translate(45.690477 0) scale(0.996264)"/>
       <use xlink:href="#CMR17-30" transform="translate(91.380954 0) scale(0.996264)"/>
      </g>
     </g>
    </g>
    <g id="ytick_6">
     <g id="line2d_14">
      <path d="M 69.793325 105.843428 
L 1060.56 105.843428 
" clip-path="url(#p02ca2cd121)" style="fill: none; stroke: #ffffff; stroke-width: 0.8; stroke-linecap: round"/>
     </g>
     <g id="text_15">
      <!-- $\mathdefault{300}$ -->
      <g style="fill: #262626" transform="translate(39.381364 111.378222) scale(0.16 -0.16)">
       <use xlink:href="#CMR17-33" transform="scale(0.996264)"/>
       <use xlink:href="#CMR17-30" transform="translate(45.690477 0) scale(0.996264)"/>
       <use xlink:href="#CMR17-30" transform="translate(91.380954 0) scale(0.996264)"/>
      </g>
     </g>
    </g>
    <g id="ytick_7">
     <g id="line2d_15">
      <path d="M 69.793325 31.863002 
L 1060.56 31.863002 
" clip-path="url(#p02ca2cd121)" style="fill: none; stroke: #ffffff; stroke-width: 0.8; stroke-linecap: round"/>
     </g>
     <g id="text_16">
      <!-- $\mathdefault{350}$ -->
      <g style="fill: #262626" transform="translate(39.381364 37.397796) scale(0.16 -0.16)">
       <use xlink:href="#CMR17-33" transform="scale(0.996264)"/>
       <use xlink:href="#CMR17-35" transform="translate(45.690477 0) scale(0.996264)"/>
       <use xlink:href="#CMR17-30" transform="translate(91.380954 0) scale(0.996264)"/>
      </g>
     </g>
    </g>
    <g id="text_17">
     <!-- lifetime -->
     <g style="fill: #262626" transform="translate(31.8933 293.230414) rotate(-90) scale(0.18 -0.18)">
      <defs>
       <path id="CMSS17-6c" d="M 947 4416 
L 474 4416 
L 474 0 
L 947 0 
L 947 4416 
z
" transform="scale(0.015625)"/>
       <path id="CMSS17-66" d="M 1075 2368 
L 1722 2368 
L 1722 2737 
L 1062 2737 
L 1062 3559 
C 1062 4014 1408 4092 1606 4092 
C 1670 4092 1850 4092 2080 4009 
L 2080 4429 
C 1933 4461 1754 4480 1613 4480 
C 1018 4480 602 3993 602 3359 
L 602 2737 
L 160 2737 
L 160 2368 
L 602 2368 
L 602 0 
L 1075 0 
L 1075 2368 
z
" transform="scale(0.015625)"/>
       <path id="CMSS17-6d" d="M 4288 1877 
C 4288 2308 4179 2816 3462 2816 
C 2982 2816 2694 2516 2566 2331 
C 2451 2670 2182 2816 1798 2816 
C 1363 2816 1088 2568 941 2389 
L 941 2758 
L 474 2758 
L 474 0 
L 960 0 
L 960 1559 
C 960 1939 1101 2428 1555 2428 
C 2138 2428 2138 2016 2138 1829 
L 2138 0 
L 2624 0 
L 2624 1559 
C 2624 1939 2765 2428 3219 2428 
C 3802 2428 3802 2016 3802 1829 
L 3802 0 
L 4288 0 
L 4288 1877 
z
" transform="scale(0.015625)"/>
      </defs>
      <use xlink:href="#CMSS17-6c" transform="scale(0.996264)"/>
      <use xlink:href="#CMSS17-69" transform="translate(22.180723 0) scale(0.996264)"/>
      <use xlink:href="#CMSS17-66" transform="translate(44.361446 0) scale(0.996264)"/>
      <use xlink:href="#CMSS17-65" transform="translate(72.988105 0) scale(0.996264)"/>
      <use xlink:href="#CMSS17-74" transform="translate(114.626927 0) scale(0.996264)"/>
      <use xlink:href="#CMSS17-69" transform="translate(148.458494 0) scale(0.996264)"/>
      <use xlink:href="#CMSS17-6d" transform="translate(170.639217 0) scale(0.996264)"/>
      <use xlink:href="#CMSS17-65" transform="translate(244.868471 0) scale(0.996264)"/>
     </g>
    </g>
   </g>
   <g id="PathCollection_1">
    <defs>
     <path id="C0_0_190e713201" d="M 0 3 
C 0.795609 3 1.55874 2.683901 2.12132 2.12132 
C 2.683901 1.55874 3 0.795609 3 -0 
C 3 -0.795609 2.683901 -1.55874 2.12132 -2.12132 
C 1.55874 -2.683901 0.795609 -3 0 -3 
C -0.795609 -3 -1.55874 -2.683901 -2.12132 -2.12132 
C -2.683901 -1.55874 -3 -0.795609 -3 0 
C -3 0.795609 -2.683901 1.55874 -2.12132 2.12132 
C -1.55874 2.683901 -0.795609 3 0 3 
z
"/>
    </defs>
    <g clip-path="url(#p02ca2cd121)">
     <use xlink:href="#C0_0_190e713201" x="693.104162" y="437.98248" style="fill: #e7ba52; stroke: #ffffff; stroke-width: 0.48"/>
    </g>
    <g clip-path="url(#p02ca2cd121)">
     <use xlink:href="#C0_0_190e713201" x="821.609937" y="483.48505" style="fill: #de9ed6; stroke: #ffffff; stroke-width: 0.48"/>
    </g>
    <g clip-path="url(#p02ca2cd121)">
     <use xlink:href="#C0_0_190e713201" x="179.081062" y="218.47454" style="fill: #9c9ede; stroke: #ffffff; stroke-width: 0.48"/>
    </g>
    <g clip-path="url(#p02ca2cd121)">
     <use xlink:href="#C0_0_190e713201" x="179.081062" y="284.914826" style="fill: #b5cf6b; stroke: #ffffff; stroke-width: 0.48"/>
    </g>
    <g clip-path="url(#p02ca2cd121)">
     <use xlink:href="#C0_0_190e713201" x="693.104162" y="454.088877" style="fill: #ad494a; stroke: #ffffff; stroke-width: 0.48"/>
    </g>
    <g clip-path="url(#p02ca2cd121)">
     <use xlink:href="#C0_0_190e713201" x="821.609937" y="475.070622" style="fill: #7b4173; stroke: #ffffff; stroke-width: 0.48"/>
    </g>
    <g clip-path="url(#p02ca2cd121)">
     <use xlink:href="#C0_0_190e713201" x="179.081062" y="360.736771" style="fill: #ad494a; stroke: #ffffff; stroke-width: 0.48"/>
    </g>
    <g clip-path="url(#p02ca2cd121)">
     <use xlink:href="#C0_0_190e713201" x="693.104162" y="415.440549" style="fill: #b5cf6b; stroke: #ffffff; stroke-width: 0.48"/>
    </g>
    <g clip-path="url(#p02ca2cd121)">
     <use xlink:href="#C0_0_190e713201" x="693.104162" y="381.624357" style="fill: #9c9ede; stroke: #ffffff; stroke-width: 0.48"/>
    </g>
    <g clip-path="url(#p02ca2cd121)">
     <use xlink:href="#C0_0_190e713201" x="307.586837" y="432.574247" style="fill: #de9ed6; stroke: #ffffff; stroke-width: 0.48"/>
    </g>
    <g clip-path="url(#p02ca2cd121)">
     <use xlink:href="#C0_0_190e713201" x="179.081062" y="107.815227" style="fill: #393b79; stroke: #ffffff; stroke-width: 0.48"/>
    </g>
    <g clip-path="url(#p02ca2cd121)">
     <use xlink:href="#C0_0_190e713201" x="307.586837" y="417.832269" style="fill: #7b4173; stroke: #ffffff; stroke-width: 0.48"/>
    </g>
    <g clip-path="url(#p02ca2cd121)">
     <use xlink:href="#C0_0_190e713201" x="693.104162" y="325.260564" style="fill: #393b79; stroke: #ffffff; stroke-width: 0.48"/>
    </g>
    <g clip-path="url(#p02ca2cd121)">
     <use xlink:href="#C0_0_190e713201" x="821.609937" y="464.258897" style="fill: #ad494a; stroke: #ffffff; stroke-width: 0.48"/>
    </g>
    <g clip-path="url(#p02ca2cd121)">
     <use xlink:href="#C0_0_190e713201" x="693.104162" y="466.160163" style="fill: #7b4173; stroke: #ffffff; stroke-width: 0.48"/>
    </g>
    <g clip-path="url(#p02ca2cd121)">
     <use xlink:href="#C0_0_190e713201" x="821.609937" y="449.843485" style="fill: #e7ba52; stroke: #ffffff; stroke-width: 0.48"/>
    </g>
    <g clip-path="url(#p02ca2cd121)">
     <use xlink:href="#C0_0_190e713201" x="693.104162" y="475.563939" style="fill: #de9ed6; stroke: #ffffff; stroke-width: 0.48"/>
    </g>
    <g clip-path="url(#p02ca2cd121)">
     <use xlink:href="#C0_0_190e713201" x="179.081062" y="402.881468" style="fill: #de9ed6; stroke: #ffffff; stroke-width: 0.48"/>
    </g>
    <g clip-path="url(#p02ca2cd121)">
     <use xlink:href="#C0_0_190e713201" x="821.609937" y="399.393719" style="fill: #9c9ede; stroke: #ffffff; stroke-width: 0.48"/>
    </g>
    <g clip-path="url(#p02ca2cd121)">
     <use xlink:href="#C0_0_190e713201" x="307.586837" y="196.678024" style="fill: #393b79; stroke: #ffffff; stroke-width: 0.48"/>
    </g>
    <g clip-path="url(#p02ca2cd121)">
     <use xlink:href="#C0_0_190e713201" x="821.609937" y="429.656443" style="fill: #b5cf6b; stroke: #ffffff; stroke-width: 0.48"/>
    </g>
    <g clip-path="url(#p02ca2cd121)">
     <use xlink:href="#C0_0_190e713201" x="179.081062" y="384.456143" style="fill: #7b4173; stroke: #ffffff; stroke-width: 0.48"/>
    </g>
    <g clip-path="url(#p02ca2cd121)">
     <use xlink:href="#C0_0_190e713201" x="307.586837" y="398.877921" style="fill: #ad494a; stroke: #ffffff; stroke-width: 0.48"/>
    </g>
    <g clip-path="url(#p02ca2cd121)">
     <use xlink:href="#C0_0_190e713201" x="307.586837" y="373.591" style="fill: #e7ba52; stroke: #ffffff; stroke-width: 0.48"/>
    </g>
    <g clip-path="url(#p02ca2cd121)">
     <use xlink:href="#C0_0_190e713201" x="307.586837" y="285.136633" style="fill: #9c9ede; stroke: #ffffff; stroke-width: 0.48"/>
    </g>
    <g clip-path="url(#p02ca2cd121)">
     <use xlink:href="#C0_0_190e713201" x="821.609937" y="348.95" style="fill: #393b79; stroke: #ffffff; stroke-width: 0.48"/>
    </g>
    <g clip-path="url(#p02ca2cd121)">
     <use xlink:href="#C0_0_190e713201" x="307.586837" y="338.202503" style="fill: #b5cf6b; stroke: #ffffff; stroke-width: 0.48"/>
    </g>
    <g clip-path="url(#p02ca2cd121)">
     <use xlink:href="#C0_0_190e713201" x="436.092612" y="439.454248" style="fill: #7b4173; stroke: #ffffff; stroke-width: 0.48"/>
    </g>
    <g clip-path="url(#p02ca2cd121)">
     <use xlink:href="#C0_0_190e713201" x="436.092612" y="451.812317" style="fill: #de9ed6; stroke: #ffffff; stroke-width: 0.48"/>
    </g>
    <g clip-path="url(#p02ca2cd121)">
     <use xlink:href="#C0_0_190e713201" x="564.598387" y="294.865302" style="fill: #393b79; stroke: #ffffff; stroke-width: 0.48"/>
    </g>
    <g clip-path="url(#p02ca2cd121)">
     <use xlink:href="#C0_0_190e713201" x="950.115712" y="482.231551" style="fill: #7b4173; stroke: #ffffff; stroke-width: 0.48"/>
    </g>
    <g clip-path="url(#p02ca2cd121)">
     <use xlink:href="#C0_0_190e713201" x="564.598387" y="441.037997" style="fill: #ad494a; stroke: #ffffff; stroke-width: 0.48"/>
    </g>
    <g clip-path="url(#p02ca2cd121)">
     <use xlink:href="#C0_0_190e713201" x="950.115712" y="489.849988" style="fill: #de9ed6; stroke: #ffffff; stroke-width: 0.48"/>
    </g>
    <g clip-path="url(#p02ca2cd121)">
     <use xlink:href="#C0_0_190e713201" x="564.598387" y="422.759001" style="fill: #e7ba52; stroke: #ffffff; stroke-width: 0.48"/>
    </g>
    <g clip-path="url(#p02ca2cd121)">
     <use xlink:href="#C0_0_190e713201" x="564.598387" y="358.814388" style="fill: #9c9ede; stroke: #ffffff; stroke-width: 0.48"/>
    </g>
    <g clip-path="url(#p02ca2cd121)">
     <use xlink:href="#C0_0_190e713201" x="564.598387" y="397.178765" style="fill: #b5cf6b; stroke: #ffffff; stroke-width: 0.48"/>
    </g>
    <g clip-path="url(#p02ca2cd121)">
     <use xlink:href="#C0_0_190e713201" x="436.092612" y="402.409973" style="fill: #e7ba52; stroke: #ffffff; stroke-width: 0.48"/>
    </g>
    <g clip-path="url(#p02ca2cd121)">
     <use xlink:href="#C0_0_190e713201" x="436.092612" y="423.575933" style="fill: #ad494a; stroke: #ffffff; stroke-width: 0.48"/>
    </g>
    <g clip-path="url(#p02ca2cd121)">
     <use xlink:href="#C0_0_190e713201" x="436.092612" y="372.767907" style="fill: #b5cf6b; stroke: #ffffff; stroke-width: 0.48"/>
    </g>
    <g clip-path="url(#p02ca2cd121)">
     <use xlink:href="#C0_0_190e713201" x="436.092612" y="328.312966" style="fill: #9c9ede; stroke: #ffffff; stroke-width: 0.48"/>
    </g>
    <g clip-path="url(#p02ca2cd121)">
     <use xlink:href="#C0_0_190e713201" x="950.115712" y="367.992531" style="fill: #393b79; stroke: #ffffff; stroke-width: 0.48"/>
    </g>
    <g clip-path="url(#p02ca2cd121)">
     <use xlink:href="#C0_0_190e713201" x="564.598387" y="465.396132" style="fill: #de9ed6; stroke: #ffffff; stroke-width: 0.48"/>
    </g>
    <g clip-path="url(#p02ca2cd121)">
     <use xlink:href="#C0_0_190e713201" x="950.115712" y="459.378828" style="fill: #e7ba52; stroke: #ffffff; stroke-width: 0.48"/>
    </g>
    <g clip-path="url(#p02ca2cd121)">
     <use xlink:href="#C0_0_190e713201" x="564.598387" y="454.741144" style="fill: #7b4173; stroke: #ffffff; stroke-width: 0.48"/>
    </g>
    <g clip-path="url(#p02ca2cd121)">
     <use xlink:href="#C0_0_190e713201" x="950.115712" y="472.439602" style="fill: #ad494a; stroke: #ffffff; stroke-width: 0.48"/>
    </g>
    <g clip-path="url(#p02ca2cd121)">
     <use xlink:href="#C0_0_190e713201" x="950.115712" y="441.088604" style="fill: #b5cf6b; stroke: #ffffff; stroke-width: 0.48"/>
    </g>
    <g clip-path="url(#p02ca2cd121)">
     <use xlink:href="#C0_0_190e713201" x="950.115712" y="413.689996" style="fill: #9c9ede; stroke: #ffffff; stroke-width: 0.48"/>
    </g>
    <g clip-path="url(#p02ca2cd121)">
     <use xlink:href="#C0_0_190e713201" x="436.092612" y="254.253793" style="fill: #393b79; stroke: #ffffff; stroke-width: 0.48"/>
    </g>
    <g clip-path="url(#p02ca2cd121)">
     <use xlink:href="#C0_0_190e713201" x="179.081062" y="329.116281" style="fill: #e7ba52; stroke: #ffffff; stroke-width: 0.48"/>
    </g>
    <g clip-path="url(#p02ca2cd121)">
     <use xlink:href="#C0_0_190e713201" x="371.839724" y="308.77951" style="fill: #9c9ede; stroke: #ffffff; stroke-width: 0.48"/>
    </g>
    <g clip-path="url(#p02ca2cd121)">
     <use xlink:href="#C0_0_190e713201" x="371.839724" y="357.141011" style="fill: #b5cf6b; stroke: #ffffff; stroke-width: 0.48"/>
    </g>
    <g clip-path="url(#p02ca2cd121)">
     <use xlink:href="#C0_0_190e713201" x="500.345499" y="447.697741" style="fill: #7b4173; stroke: #ffffff; stroke-width: 0.48"/>
    </g>
    <g clip-path="url(#p02ca2cd121)">
     <use xlink:href="#C0_0_190e713201" x="371.839724" y="412.410222" style="fill: #ad494a; stroke: #ffffff; stroke-width: 0.48"/>
    </g>
    <g clip-path="url(#p02ca2cd121)">
     <use xlink:href="#C0_0_190e713201" x="500.345499" y="459.136657" style="fill: #de9ed6; stroke: #ffffff; stroke-width: 0.48"/>
    </g>
    <g clip-path="url(#p02ca2cd121)">
     <use xlink:href="#C0_0_190e713201" x="243.333949" y="157.613014" style="fill: #393b79; stroke: #ffffff; stroke-width: 0.48"/>
    </g>
    <g clip-path="url(#p02ca2cd121)">
     <use xlink:href="#C0_0_190e713201" x="371.839724" y="389.375798" style="fill: #e7ba52; stroke: #ffffff; stroke-width: 0.48"/>
    </g>
    <g clip-path="url(#p02ca2cd121)">
     <use xlink:href="#C0_0_190e713201" x="243.333949" y="354.039185" style="fill: #e7ba52; stroke: #ffffff; stroke-width: 0.48"/>
    </g>
    <g clip-path="url(#p02ca2cd121)">
     <use xlink:href="#C0_0_190e713201" x="371.839724" y="228.194545" style="fill: #393b79; stroke: #ffffff; stroke-width: 0.48"/>
    </g>
    <g clip-path="url(#p02ca2cd121)">
     <use xlink:href="#C0_0_190e713201" x="628.851274" y="470.821069" style="fill: #de9ed6; stroke: #ffffff; stroke-width: 0.48"/>
    </g>
    <g clip-path="url(#p02ca2cd121)">
     <use xlink:href="#C0_0_190e713201" x="243.333949" y="382.120783" style="fill: #ad494a; stroke: #ffffff; stroke-width: 0.48"/>
    </g>
    <g clip-path="url(#p02ca2cd121)">
     <use xlink:href="#C0_0_190e713201" x="628.851274" y="460.829214" style="fill: #7b4173; stroke: #ffffff; stroke-width: 0.48"/>
    </g>
    <g clip-path="url(#p02ca2cd121)">
     <use xlink:href="#C0_0_190e713201" x="243.333949" y="314.769851" style="fill: #b5cf6b; stroke: #ffffff; stroke-width: 0.48"/>
    </g>
    <g clip-path="url(#p02ca2cd121)">
     <use xlink:href="#C0_0_190e713201" x="243.333949" y="255.823989" style="fill: #9c9ede; stroke: #ffffff; stroke-width: 0.48"/>
    </g>
    <g clip-path="url(#p02ca2cd121)">
     <use xlink:href="#C0_0_190e713201" x="500.345499" y="385.942958" style="fill: #b5cf6b; stroke: #ffffff; stroke-width: 0.48"/>
    </g>
    <g clip-path="url(#p02ca2cd121)">
     <use xlink:href="#C0_0_190e713201" x="500.345499" y="344.768327" style="fill: #9c9ede; stroke: #ffffff; stroke-width: 0.48"/>
    </g>
    <g clip-path="url(#p02ca2cd121)">
     <use xlink:href="#C0_0_190e713201" x="371.839724" y="443.109627" style="fill: #de9ed6; stroke: #ffffff; stroke-width: 0.48"/>
    </g>
    <g clip-path="url(#p02ca2cd121)">
     <use xlink:href="#C0_0_190e713201" x="628.851274" y="311.070575" style="fill: #393b79; stroke: #ffffff; stroke-width: 0.48"/>
    </g>
    <g clip-path="url(#p02ca2cd121)">
     <use xlink:href="#C0_0_190e713201" x="500.345499" y="413.386606" style="fill: #e7ba52; stroke: #ffffff; stroke-width: 0.48"/>
    </g>
    <g clip-path="url(#p02ca2cd121)">
     <use xlink:href="#C0_0_190e713201" x="371.839724" y="429.666112" style="fill: #7b4173; stroke: #ffffff; stroke-width: 0.48"/>
    </g>
    <g clip-path="url(#p02ca2cd121)">
     <use xlink:href="#C0_0_190e713201" x="500.345499" y="432.998644" style="fill: #ad494a; stroke: #ffffff; stroke-width: 0.48"/>
    </g>
    <g clip-path="url(#p02ca2cd121)">
     <use xlink:href="#C0_0_190e713201" x="628.851274" y="447.99477" style="fill: #ad494a; stroke: #ffffff; stroke-width: 0.48"/>
    </g>
    <g clip-path="url(#p02ca2cd121)">
     <use xlink:href="#C0_0_190e713201" x="243.333949" y="403.162157" style="fill: #7b4173; stroke: #ffffff; stroke-width: 0.48"/>
    </g>
    <g clip-path="url(#p02ca2cd121)">
     <use xlink:href="#C0_0_190e713201" x="628.851274" y="430.872548" style="fill: #e7ba52; stroke: #ffffff; stroke-width: 0.48"/>
    </g>
    <g clip-path="url(#p02ca2cd121)">
     <use xlink:href="#C0_0_190e713201" x="500.345499" y="276.157564" style="fill: #393b79; stroke: #ffffff; stroke-width: 0.48"/>
    </g>
    <g clip-path="url(#p02ca2cd121)">
     <use xlink:href="#C0_0_190e713201" x="243.333949" y="419.52953" style="fill: #de9ed6; stroke: #ffffff; stroke-width: 0.48"/>
    </g>
    <g clip-path="url(#p02ca2cd121)">
     <use xlink:href="#C0_0_190e713201" x="628.851274" y="370.975744" style="fill: #9c9ede; stroke: #ffffff; stroke-width: 0.48"/>
    </g>
    <g clip-path="url(#p02ca2cd121)">
     <use xlink:href="#C0_0_190e713201" x="628.851274" y="406.920712" style="fill: #b5cf6b; stroke: #ffffff; stroke-width: 0.48"/>
    </g>
    <g clip-path="url(#p02ca2cd121)">
     <use xlink:href="#C0_0_190e713201" x="1014.368599" y="485.3142" style="fill: #7b4173; stroke: #ffffff; stroke-width: 0.48"/>
    </g>
    <g clip-path="url(#p02ca2cd121)">
     <use xlink:href="#C0_0_190e713201" x="757.357049" y="444.255119" style="fill: #e7ba52; stroke: #ffffff; stroke-width: 0.48"/>
    </g>
    <g clip-path="url(#p02ca2cd121)">
     <use xlink:href="#C0_0_190e713201" x="114.828174" y="296.260461" style="fill: #e7ba52; stroke: #ffffff; stroke-width: 0.48"/>
    </g>
    <g clip-path="url(#p02ca2cd121)">
     <use xlink:href="#C0_0_190e713201" x="885.862824" y="358.963355" style="fill: #393b79; stroke: #ffffff; stroke-width: 0.48"/>
    </g>
    <g clip-path="url(#p02ca2cd121)">
     <use xlink:href="#C0_0_190e713201" x="1014.368599" y="492.595567" style="fill: #de9ed6; stroke: #ffffff; stroke-width: 0.48"/>
    </g>
    <g clip-path="url(#p02ca2cd121)">
     <use xlink:href="#C0_0_190e713201" x="114.828174" y="332.50307" style="fill: #ad494a; stroke: #ffffff; stroke-width: 0.48"/>
    </g>
    <g clip-path="url(#p02ca2cd121)">
     <use xlink:href="#C0_0_190e713201" x="757.357049" y="459.464118" style="fill: #ad494a; stroke: #ffffff; stroke-width: 0.48"/>
    </g>
    <g clip-path="url(#p02ca2cd121)">
     <use xlink:href="#C0_0_190e713201" x="757.357049" y="422.954455" style="fill: #b5cf6b; stroke: #ffffff; stroke-width: 0.48"/>
    </g>
    <g clip-path="url(#p02ca2cd121)">
     <use xlink:href="#C0_0_190e713201" x="114.828174" y="245.341963" style="fill: #b5cf6b; stroke: #ffffff; stroke-width: 0.48"/>
    </g>
    <g clip-path="url(#p02ca2cd121)">
     <use xlink:href="#C0_0_190e713201" x="114.828174" y="169.091748" style="fill: #9c9ede; stroke: #ffffff; stroke-width: 0.48"/>
    </g>
    <g clip-path="url(#p02ca2cd121)">
     <use xlink:href="#C0_0_190e713201" x="757.357049" y="391.016603" style="fill: #9c9ede; stroke: #ffffff; stroke-width: 0.48"/>
    </g>
    <g clip-path="url(#p02ca2cd121)">
     <use xlink:href="#C0_0_190e713201" x="885.862824" y="406.900232" style="fill: #9c9ede; stroke: #ffffff; stroke-width: 0.48"/>
    </g>
    <g clip-path="url(#p02ca2cd121)">
     <use xlink:href="#C0_0_190e713201" x="885.862824" y="435.672424" style="fill: #b5cf6b; stroke: #ffffff; stroke-width: 0.48"/>
    </g>
    <g clip-path="url(#p02ca2cd121)">
     <use xlink:href="#C0_0_190e713201" x="885.862824" y="468.552427" style="fill: #ad494a; stroke: #ffffff; stroke-width: 0.48"/>
    </g>
    <g clip-path="url(#p02ca2cd121)">
     <use xlink:href="#C0_0_190e713201" x="757.357049" y="337.783843" style="fill: #393b79; stroke: #ffffff; stroke-width: 0.48"/>
    </g>
    <g clip-path="url(#p02ca2cd121)">
     <use xlink:href="#C0_0_190e713201" x="885.862824" y="454.857667" style="fill: #e7ba52; stroke: #ffffff; stroke-width: 0.48"/>
    </g>
    <g clip-path="url(#p02ca2cd121)">
     <use xlink:href="#C0_0_190e713201" x="114.828174" y="41.98589" style="fill: #393b79; stroke: #ffffff; stroke-width: 0.48"/>
    </g>
    <g clip-path="url(#p02ca2cd121)">
     <use xlink:href="#C0_0_190e713201" x="757.357049" y="470.877707" style="fill: #7b4173; stroke: #ffffff; stroke-width: 0.48"/>
    </g>
    <g clip-path="url(#p02ca2cd121)">
     <use xlink:href="#C0_0_190e713201" x="114.828174" y="359.73541" style="fill: #7b4173; stroke: #ffffff; stroke-width: 0.48"/>
    </g>
    <g clip-path="url(#p02ca2cd121)">
     <use xlink:href="#C0_0_190e713201" x="1014.368599" y="463.481721" style="fill: #e7ba52; stroke: #ffffff; stroke-width: 0.48"/>
    </g>
    <g clip-path="url(#p02ca2cd121)">
     <use xlink:href="#C0_0_190e713201" x="114.828174" y="380.915735" style="fill: #de9ed6; stroke: #ffffff; stroke-width: 0.48"/>
    </g>
    <g clip-path="url(#p02ca2cd121)">
     <use xlink:href="#C0_0_190e713201" x="757.357049" y="479.751875" style="fill: #de9ed6; stroke: #ffffff; stroke-width: 0.48"/>
    </g>
    <g clip-path="url(#p02ca2cd121)">
     <use xlink:href="#C0_0_190e713201" x="1014.368599" y="475.957738" style="fill: #ad494a; stroke: #ffffff; stroke-width: 0.48"/>
    </g>
    <g clip-path="url(#p02ca2cd121)">
     <use xlink:href="#C0_0_190e713201" x="1014.368599" y="446.018179" style="fill: #b5cf6b; stroke: #ffffff; stroke-width: 0.48"/>
    </g>
    <g clip-path="url(#p02ca2cd121)">
     <use xlink:href="#C0_0_190e713201" x="1014.368599" y="419.83245" style="fill: #9c9ede; stroke: #ffffff; stroke-width: 0.48"/>
    </g>
    <g clip-path="url(#p02ca2cd121)">
     <use xlink:href="#C0_0_190e713201" x="885.862824" y="486.827105" style="fill: #de9ed6; stroke: #ffffff; stroke-width: 0.48"/>
    </g>
    <g clip-path="url(#p02ca2cd121)">
     <use xlink:href="#C0_0_190e713201" x="1014.368599" y="376.185278" style="fill: #393b79; stroke: #ffffff; stroke-width: 0.48"/>
    </g>
    <g clip-path="url(#p02ca2cd121)">
     <use xlink:href="#C0_0_190e713201" x="885.862824" y="478.841305" style="fill: #7b4173; stroke: #ffffff; stroke-width: 0.48"/>
    </g>
   </g>
   <g id="PathCollection_2">
    <defs>
     <path id="m70cca0f661" d="M -3 3 
L 3 -3 
M -3 -3 
L 3 3 
" style="stroke: #000000; stroke-width: 2"/>
    </defs>
    <g clip-path="url(#p02ca2cd121)">
     <use xlink:href="#m70cca0f661" x="564.598387" y="452.318208" style="stroke: #000000; stroke-width: 2"/>
     <use xlink:href="#m70cca0f661" x="307.586837" y="282.260182" style="stroke: #000000; stroke-width: 2"/>
     <use xlink:href="#m70cca0f661" x="950.115712" y="472.856023" style="stroke: #000000; stroke-width: 2"/>
     <use xlink:href="#m70cca0f661" x="436.092612" y="452.649514" style="stroke: #000000; stroke-width: 2"/>
     <use xlink:href="#m70cca0f661" x="885.862824" y="477.559808" style="stroke: #000000; stroke-width: 2"/>
     <use xlink:href="#m70cca0f661" x="885.862824" y="487.079477" style="stroke: #000000; stroke-width: 2"/>
     <use xlink:href="#m70cca0f661" x="885.862824" y="468.858167" style="stroke: #000000; stroke-width: 2"/>
     <use xlink:href="#m70cca0f661" x="371.839724" y="412.437732" style="stroke: #000000; stroke-width: 2"/>
     <use xlink:href="#m70cca0f661" x="243.333949" y="419.03257" style="stroke: #000000; stroke-width: 2"/>
     <use xlink:href="#m70cca0f661" x="179.081062" y="213.349141" style="stroke: #000000; stroke-width: 2"/>
     <use xlink:href="#m70cca0f661" x="628.851274" y="369.924584" style="stroke: #000000; stroke-width: 2"/>
     <use xlink:href="#m70cca0f661" x="885.862824" y="456.828454" style="stroke: #000000; stroke-width: 2"/>
     <use xlink:href="#m70cca0f661" x="564.598387" y="295.138485" style="stroke: #000000; stroke-width: 2"/>
     <use xlink:href="#m70cca0f661" x="179.081062" y="384.461753" style="stroke: #000000; stroke-width: 2"/>
     <use xlink:href="#m70cca0f661" x="628.851274" y="458.501133" style="stroke: #000000; stroke-width: 2"/>
     <use xlink:href="#m70cca0f661" x="950.115712" y="368.353564" style="stroke: #000000; stroke-width: 2"/>
     <use xlink:href="#m70cca0f661" x="821.609937" y="349.05043" style="stroke: #000000; stroke-width: 2"/>
     <use xlink:href="#m70cca0f661" x="436.092612" y="326.185919" style="stroke: #000000; stroke-width: 2"/>
     <use xlink:href="#m70cca0f661" x="693.104162" y="453.268465" style="stroke: #000000; stroke-width: 2"/>
     <use xlink:href="#m70cca0f661" x="821.609937" y="464.203771" style="stroke: #000000; stroke-width: 2"/>
     <use xlink:href="#m70cca0f661" x="500.345499" y="342.972032" style="stroke: #000000; stroke-width: 2"/>
     <use xlink:href="#m70cca0f661" x="179.081062" y="332.467315" style="stroke: #000000; stroke-width: 2"/>
     <use xlink:href="#m70cca0f661" x="757.357049" y="445.97027" style="stroke: #000000; stroke-width: 2"/>
     <use xlink:href="#m70cca0f661" x="628.851274" y="408.318393" style="stroke: #000000; stroke-width: 2"/>
     <use xlink:href="#m70cca0f661" x="693.104162" y="417.076751" style="stroke: #000000; stroke-width: 2"/>
     <use xlink:href="#m70cca0f661" x="436.092612" y="422.931411" style="stroke: #000000; stroke-width: 2"/>
     <use xlink:href="#m70cca0f661" x="693.104162" y="476.870526" style="stroke: #000000; stroke-width: 2"/>
     <use xlink:href="#m70cca0f661" x="179.081062" y="363.481747" style="stroke: #000000; stroke-width: 2"/>
     <use xlink:href="#m70cca0f661" x="307.586837" y="198.425646" style="stroke: #000000; stroke-width: 2"/>
     <use xlink:href="#m70cca0f661" x="307.586837" y="339.430247" style="stroke: #000000; stroke-width: 2"/>
     <use xlink:href="#m70cca0f661" x="757.357049" y="468.881575" style="stroke: #000000; stroke-width: 2"/>
     <use xlink:href="#m70cca0f661" x="693.104162" y="463.959933" style="stroke: #000000; stroke-width: 2"/>
     <use xlink:href="#m70cca0f661" x="243.333949" y="402.462106" style="stroke: #000000; stroke-width: 2"/>
     <use xlink:href="#m70cca0f661" x="885.862824" y="406.127846" style="stroke: #000000; stroke-width: 2"/>
     <use xlink:href="#m70cca0f661" x="950.115712" y="489.967834" style="stroke: #000000; stroke-width: 2"/>
     <use xlink:href="#m70cca0f661" x="757.357049" y="480.644282" style="stroke: #000000; stroke-width: 2"/>
     <use xlink:href="#m70cca0f661" x="500.345499" y="386.970843" style="stroke: #000000; stroke-width: 2"/>
     <use xlink:href="#m70cca0f661" x="950.115712" y="412.41791" style="stroke: #000000; stroke-width: 2"/>
     <use xlink:href="#m70cca0f661" x="371.839724" y="443.350271" style="stroke: #000000; stroke-width: 2"/>
     <use xlink:href="#m70cca0f661" x="950.115712" y="442.066373" style="stroke: #000000; stroke-width: 2"/>
     <use xlink:href="#m70cca0f661" x="436.092612" y="373.797767" style="stroke: #000000; stroke-width: 2"/>
     <use xlink:href="#m70cca0f661" x="243.333949" y="252.174378" style="stroke: #000000; stroke-width: 2"/>
     <use xlink:href="#m70cca0f661" x="628.851274" y="472.427042" style="stroke: #000000; stroke-width: 2"/>
     <use xlink:href="#m70cca0f661" x="500.345499" y="431.978421" style="stroke: #000000; stroke-width: 2"/>
     <use xlink:href="#m70cca0f661" x="243.333949" y="160.28357" style="stroke: #000000; stroke-width: 2"/>
     <use xlink:href="#m70cca0f661" x="564.598387" y="423.900176" style="stroke: #000000; stroke-width: 2"/>
     <use xlink:href="#m70cca0f661" x="628.851274" y="446.953975" style="stroke: #000000; stroke-width: 2"/>
     <use xlink:href="#m70cca0f661" x="307.586837" y="416.31381" style="stroke: #000000; stroke-width: 2"/>
     <use xlink:href="#m70cca0f661" x="371.839724" y="306.329752" style="stroke: #000000; stroke-width: 2"/>
     <use xlink:href="#m70cca0f661" x="371.839724" y="229.269714" style="stroke: #000000; stroke-width: 2"/>
     <use xlink:href="#m70cca0f661" x="564.598387" y="398.360755" style="stroke: #000000; stroke-width: 2"/>
     <use xlink:href="#m70cca0f661" x="436.092612" y="254.855104" style="stroke: #000000; stroke-width: 2"/>
     <use xlink:href="#m70cca0f661" x="179.081062" y="284.662972" style="stroke: #000000; stroke-width: 2"/>
     <use xlink:href="#m70cca0f661" x="500.345499" y="414.603414" style="stroke: #000000; stroke-width: 2"/>
     <use xlink:href="#m70cca0f661" x="371.839724" y="391.495477" style="stroke: #000000; stroke-width: 2"/>
     <use xlink:href="#m70cca0f661" x="500.345499" y="460.50229" style="stroke: #000000; stroke-width: 2"/>
     <use xlink:href="#m70cca0f661" x="564.598387" y="357.399582" style="stroke: #000000; stroke-width: 2"/>
     <use xlink:href="#m70cca0f661" x="693.104162" y="325.44146" style="stroke: #000000; stroke-width: 2"/>
     <use xlink:href="#m70cca0f661" x="821.609937" y="483.995561" style="stroke: #000000; stroke-width: 2"/>
     <use xlink:href="#m70cca0f661" x="179.081062" y="402.198797" style="stroke: #000000; stroke-width: 2"/>
     <use xlink:href="#m70cca0f661" x="243.333949" y="315.708107" style="stroke: #000000; stroke-width: 2"/>
     <use xlink:href="#m70cca0f661" x="757.357049" y="390.446202" style="stroke: #000000; stroke-width: 2"/>
     <use xlink:href="#m70cca0f661" x="821.609937" y="398.835401" style="stroke: #000000; stroke-width: 2"/>
     <use xlink:href="#m70cca0f661" x="307.586837" y="376.456023" style="stroke: #000000; stroke-width: 2"/>
     <use xlink:href="#m70cca0f661" x="371.839724" y="427.559037" style="stroke: #000000; stroke-width: 2"/>
     <use xlink:href="#m70cca0f661" x="436.092612" y="437.0516" style="stroke: #000000; stroke-width: 2"/>
     <use xlink:href="#m70cca0f661" x="950.115712" y="481.308818" style="stroke: #000000; stroke-width: 2"/>
     <use xlink:href="#m70cca0f661" x="307.586837" y="399.889363" style="stroke: #000000; stroke-width: 2"/>
     <use xlink:href="#m70cca0f661" x="564.598387" y="467.044523" style="stroke: #000000; stroke-width: 2"/>
     <use xlink:href="#m70cca0f661" x="628.851274" y="432.112869" style="stroke: #000000; stroke-width: 2"/>
     <use xlink:href="#m70cca0f661" x="757.357049" y="458.995481" style="stroke: #000000; stroke-width: 2"/>
     <use xlink:href="#m70cca0f661" x="436.092612" y="403.950859" style="stroke: #000000; stroke-width: 2"/>
     <use xlink:href="#m70cca0f661" x="114.828174" y="242.705678" style="stroke: #000000; stroke-width: 2"/>
     <use xlink:href="#m70cca0f661" x="1014.368599" y="445.94777" style="stroke: #000000; stroke-width: 2"/>
     <use xlink:href="#m70cca0f661" x="114.828174" y="379.702935" style="stroke: #000000; stroke-width: 2"/>
     <use xlink:href="#m70cca0f661" x="1014.368599" y="492.848473" style="stroke: #000000; stroke-width: 2"/>
     <use xlink:href="#m70cca0f661" x="114.828174" y="161.869756" style="stroke: #000000; stroke-width: 2"/>
     <use xlink:href="#m70cca0f661" x="1014.368599" y="417.999081" style="stroke: #000000; stroke-width: 2"/>
     <use xlink:href="#m70cca0f661" x="114.828174" y="48.870361" style="stroke: #000000; stroke-width: 2"/>
     <use xlink:href="#m70cca0f661" x="1014.368599" y="377.352898" style="stroke: #000000; stroke-width: 2"/>
     <use xlink:href="#m70cca0f661" x="114.828174" y="359.782873" style="stroke: #000000; stroke-width: 2"/>
     <use xlink:href="#m70cca0f661" x="1014.368599" y="484.735902" style="stroke: #000000; stroke-width: 2"/>
     <use xlink:href="#m70cca0f661" x="114.828174" y="334.869693" style="stroke: #000000; stroke-width: 2"/>
     <use xlink:href="#m70cca0f661" x="1014.368599" y="476.237847" style="stroke: #000000; stroke-width: 2"/>
     <use xlink:href="#m70cca0f661" x="114.828174" y="298.114404" style="stroke: #000000; stroke-width: 2"/>
     <use xlink:href="#m70cca0f661" x="1014.368599" y="464.328786" style="stroke: #000000; stroke-width: 2"/>
    </g>
   </g>
   <g id="PathCollection_3">
    <defs>
     <path id="m2fd0cc5d40" d="M 0 3 
C 0.795609 3 1.55874 2.683901 2.12132 2.12132 
C 2.683901 1.55874 3 0.795609 3 0 
C 3 -0.795609 2.683901 -1.55874 2.12132 -2.12132 
C 1.55874 -2.683901 0.795609 -3 0 -3 
C -0.795609 -3 -1.55874 -2.683901 -2.12132 -2.12132 
C -2.683901 -1.55874 -3 -0.795609 -3 0 
C -3 0.795609 -2.683901 1.55874 -2.12132 2.12132 
C -1.55874 2.683901 -0.795609 3 0 3 
z
" style="stroke: #ffffff; stroke-width: 0.48"/>
    </defs>
    <g clip-path="url(#p02ca2cd121)">
     <use xlink:href="#m2fd0cc5d40" x="564.598387" y="294.865302" style="fill: #ff0000; stroke: #ffffff; stroke-width: 0.48"/>
     <use xlink:href="#m2fd0cc5d40" x="950.115712" y="367.992531" style="fill: #ff0000; stroke: #ffffff; stroke-width: 0.48"/>
     <use xlink:href="#m2fd0cc5d40" x="307.586837" y="196.678024" style="fill: #ff0000; stroke: #ffffff; stroke-width: 0.48"/>
     <use xlink:href="#m2fd0cc5d40" x="821.609937" y="348.95" style="fill: #ff0000; stroke: #ffffff; stroke-width: 0.48"/>
     <use xlink:href="#m2fd0cc5d40" x="371.839724" y="228.194545" style="fill: #ff0000; stroke: #ffffff; stroke-width: 0.48"/>
     <use xlink:href="#m2fd0cc5d40" x="436.092612" y="254.253793" style="fill: #ff0000; stroke: #ffffff; stroke-width: 0.48"/>
     <use xlink:href="#m2fd0cc5d40" x="693.104162" y="325.260564" style="fill: #ff0000; stroke: #ffffff; stroke-width: 0.48"/>
     <use xlink:href="#m2fd0cc5d40" x="243.333949" y="157.613014" style="fill: #ff0000; stroke: #ffffff; stroke-width: 0.48"/>
     <use xlink:href="#m2fd0cc5d40" x="114.828174" y="41.98589" style="fill: #ff0000; stroke: #ffffff; stroke-width: 0.48"/>
     <use xlink:href="#m2fd0cc5d40" x="1014.368599" y="376.185278" style="fill: #ff0000; stroke: #ffffff; stroke-width: 0.48"/>
     <use xlink:href="#m2fd0cc5d40" x="436.092612" y="328.312966" style="fill: #ff0000; stroke: #ffffff; stroke-width: 0.48"/>
     <use xlink:href="#m2fd0cc5d40" x="243.333949" y="255.823989" style="fill: #ff0000; stroke: #ffffff; stroke-width: 0.48"/>
     <use xlink:href="#m2fd0cc5d40" x="628.851274" y="370.975744" style="fill: #ff0000; stroke: #ffffff; stroke-width: 0.48"/>
     <use xlink:href="#m2fd0cc5d40" x="500.345499" y="344.768327" style="fill: #ff0000; stroke: #ffffff; stroke-width: 0.48"/>
     <use xlink:href="#m2fd0cc5d40" x="885.862824" y="406.900232" style="fill: #ff0000; stroke: #ffffff; stroke-width: 0.48"/>
     <use xlink:href="#m2fd0cc5d40" x="371.839724" y="308.77951" style="fill: #ff0000; stroke: #ffffff; stroke-width: 0.48"/>
     <use xlink:href="#m2fd0cc5d40" x="950.115712" y="413.689996" style="fill: #ff0000; stroke: #ffffff; stroke-width: 0.48"/>
     <use xlink:href="#m2fd0cc5d40" x="757.357049" y="391.016603" style="fill: #ff0000; stroke: #ffffff; stroke-width: 0.48"/>
     <use xlink:href="#m2fd0cc5d40" x="564.598387" y="358.814388" style="fill: #ff0000; stroke: #ffffff; stroke-width: 0.48"/>
     <use xlink:href="#m2fd0cc5d40" x="821.609937" y="399.393719" style="fill: #ff0000; stroke: #ffffff; stroke-width: 0.48"/>
     <use xlink:href="#m2fd0cc5d40" x="114.828174" y="169.091748" style="fill: #ff0000; stroke: #ffffff; stroke-width: 0.48"/>
     <use xlink:href="#m2fd0cc5d40" x="1014.368599" y="419.83245" style="fill: #ff0000; stroke: #ffffff; stroke-width: 0.48"/>
     <use xlink:href="#m2fd0cc5d40" x="307.586837" y="285.136633" style="fill: #ff0000; stroke: #ffffff; stroke-width: 0.48"/>
     <use xlink:href="#m2fd0cc5d40" x="179.081062" y="218.47454" style="fill: #ff0000; stroke: #ffffff; stroke-width: 0.48"/>
     <use xlink:href="#m2fd0cc5d40" x="243.333949" y="314.769851" style="fill: #ff0000; stroke: #ffffff; stroke-width: 0.48"/>
     <use xlink:href="#m2fd0cc5d40" x="628.851274" y="406.920712" style="fill: #ff0000; stroke: #ffffff; stroke-width: 0.48"/>
     <use xlink:href="#m2fd0cc5d40" x="307.586837" y="338.202503" style="fill: #ff0000; stroke: #ffffff; stroke-width: 0.48"/>
     <use xlink:href="#m2fd0cc5d40" x="693.104162" y="415.440549" style="fill: #ff0000; stroke: #ffffff; stroke-width: 0.48"/>
     <use xlink:href="#m2fd0cc5d40" x="564.598387" y="397.178765" style="fill: #ff0000; stroke: #ffffff; stroke-width: 0.48"/>
     <use xlink:href="#m2fd0cc5d40" x="950.115712" y="441.088604" style="fill: #ff0000; stroke: #ffffff; stroke-width: 0.48"/>
     <use xlink:href="#m2fd0cc5d40" x="436.092612" y="372.767907" style="fill: #ff0000; stroke: #ffffff; stroke-width: 0.48"/>
     <use xlink:href="#m2fd0cc5d40" x="500.345499" y="385.942958" style="fill: #ff0000; stroke: #ffffff; stroke-width: 0.48"/>
     <use xlink:href="#m2fd0cc5d40" x="179.081062" y="284.914826" style="fill: #ff0000; stroke: #ffffff; stroke-width: 0.48"/>
     <use xlink:href="#m2fd0cc5d40" x="114.828174" y="245.341963" style="fill: #ff0000; stroke: #ffffff; stroke-width: 0.48"/>
     <use xlink:href="#m2fd0cc5d40" x="1014.368599" y="446.018179" style="fill: #ff0000; stroke: #ffffff; stroke-width: 0.48"/>
     <use xlink:href="#m2fd0cc5d40" x="564.598387" y="422.759001" style="fill: #ff0000; stroke: #ffffff; stroke-width: 0.48"/>
     <use xlink:href="#m2fd0cc5d40" x="307.586837" y="373.591" style="fill: #ff0000; stroke: #ffffff; stroke-width: 0.48"/>
     <use xlink:href="#m2fd0cc5d40" x="179.081062" y="329.116281" style="fill: #ff0000; stroke: #ffffff; stroke-width: 0.48"/>
     <use xlink:href="#m2fd0cc5d40" x="1014.368599" y="463.481721" style="fill: #ff0000; stroke: #ffffff; stroke-width: 0.48"/>
     <use xlink:href="#m2fd0cc5d40" x="114.828174" y="296.260461" style="fill: #ff0000; stroke: #ffffff; stroke-width: 0.48"/>
     <use xlink:href="#m2fd0cc5d40" x="628.851274" y="430.872548" style="fill: #ff0000; stroke: #ffffff; stroke-width: 0.48"/>
     <use xlink:href="#m2fd0cc5d40" x="436.092612" y="402.409973" style="fill: #ff0000; stroke: #ffffff; stroke-width: 0.48"/>
     <use xlink:href="#m2fd0cc5d40" x="500.345499" y="413.386606" style="fill: #ff0000; stroke: #ffffff; stroke-width: 0.48"/>
     <use xlink:href="#m2fd0cc5d40" x="371.839724" y="389.375798" style="fill: #ff0000; stroke: #ffffff; stroke-width: 0.48"/>
     <use xlink:href="#m2fd0cc5d40" x="757.357049" y="444.255119" style="fill: #ff0000; stroke: #ffffff; stroke-width: 0.48"/>
     <use xlink:href="#m2fd0cc5d40" x="885.862824" y="454.857667" style="fill: #ff0000; stroke: #ffffff; stroke-width: 0.48"/>
     <use xlink:href="#m2fd0cc5d40" x="885.862824" y="468.552427" style="fill: #ff0000; stroke: #ffffff; stroke-width: 0.48"/>
     <use xlink:href="#m2fd0cc5d40" x="628.851274" y="447.99477" style="fill: #ff0000; stroke: #ffffff; stroke-width: 0.48"/>
     <use xlink:href="#m2fd0cc5d40" x="436.092612" y="423.575933" style="fill: #ff0000; stroke: #ffffff; stroke-width: 0.48"/>
     <use xlink:href="#m2fd0cc5d40" x="693.104162" y="454.088877" style="fill: #ff0000; stroke: #ffffff; stroke-width: 0.48"/>
     <use xlink:href="#m2fd0cc5d40" x="1014.368599" y="475.957738" style="fill: #ff0000; stroke: #ffffff; stroke-width: 0.48"/>
     <use xlink:href="#m2fd0cc5d40" x="114.828174" y="332.50307" style="fill: #ff0000; stroke: #ffffff; stroke-width: 0.48"/>
     <use xlink:href="#m2fd0cc5d40" x="307.586837" y="398.877921" style="fill: #ff0000; stroke: #ffffff; stroke-width: 0.48"/>
     <use xlink:href="#m2fd0cc5d40" x="757.357049" y="459.464118" style="fill: #ff0000; stroke: #ffffff; stroke-width: 0.48"/>
     <use xlink:href="#m2fd0cc5d40" x="500.345499" y="432.998644" style="fill: #ff0000; stroke: #ffffff; stroke-width: 0.48"/>
     <use xlink:href="#m2fd0cc5d40" x="950.115712" y="472.439602" style="fill: #ff0000; stroke: #ffffff; stroke-width: 0.48"/>
     <use xlink:href="#m2fd0cc5d40" x="821.609937" y="464.258897" style="fill: #ff0000; stroke: #ffffff; stroke-width: 0.48"/>
     <use xlink:href="#m2fd0cc5d40" x="179.081062" y="360.736771" style="fill: #ff0000; stroke: #ffffff; stroke-width: 0.48"/>
     <use xlink:href="#m2fd0cc5d40" x="371.839724" y="412.410222" style="fill: #ff0000; stroke: #ffffff; stroke-width: 0.48"/>
     <use xlink:href="#m2fd0cc5d40" x="693.104162" y="466.160163" style="fill: #ff0000; stroke: #ffffff; stroke-width: 0.48"/>
     <use xlink:href="#m2fd0cc5d40" x="243.333949" y="403.162157" style="fill: #ff0000; stroke: #ffffff; stroke-width: 0.48"/>
     <use xlink:href="#m2fd0cc5d40" x="179.081062" y="384.456143" style="fill: #ff0000; stroke: #ffffff; stroke-width: 0.48"/>
     <use xlink:href="#m2fd0cc5d40" x="564.598387" y="454.741144" style="fill: #ff0000; stroke: #ffffff; stroke-width: 0.48"/>
     <use xlink:href="#m2fd0cc5d40" x="885.862824" y="478.841305" style="fill: #ff0000; stroke: #ffffff; stroke-width: 0.48"/>
     <use xlink:href="#m2fd0cc5d40" x="114.828174" y="359.73541" style="fill: #ff0000; stroke: #ffffff; stroke-width: 0.48"/>
     <use xlink:href="#m2fd0cc5d40" x="1014.368599" y="485.3142" style="fill: #ff0000; stroke: #ffffff; stroke-width: 0.48"/>
     <use xlink:href="#m2fd0cc5d40" x="371.839724" y="429.666112" style="fill: #ff0000; stroke: #ffffff; stroke-width: 0.48"/>
     <use xlink:href="#m2fd0cc5d40" x="628.851274" y="460.829214" style="fill: #ff0000; stroke: #ffffff; stroke-width: 0.48"/>
     <use xlink:href="#m2fd0cc5d40" x="307.586837" y="417.832269" style="fill: #ff0000; stroke: #ffffff; stroke-width: 0.48"/>
     <use xlink:href="#m2fd0cc5d40" x="757.357049" y="470.877707" style="fill: #ff0000; stroke: #ffffff; stroke-width: 0.48"/>
     <use xlink:href="#m2fd0cc5d40" x="436.092612" y="439.454248" style="fill: #ff0000; stroke: #ffffff; stroke-width: 0.48"/>
     <use xlink:href="#m2fd0cc5d40" x="950.115712" y="482.231551" style="fill: #ff0000; stroke: #ffffff; stroke-width: 0.48"/>
     <use xlink:href="#m2fd0cc5d40" x="243.333949" y="419.52953" style="fill: #ff0000; stroke: #ffffff; stroke-width: 0.48"/>
     <use xlink:href="#m2fd0cc5d40" x="885.862824" y="486.827105" style="fill: #ff0000; stroke: #ffffff; stroke-width: 0.48"/>
     <use xlink:href="#m2fd0cc5d40" x="436.092612" y="451.812317" style="fill: #ff0000; stroke: #ffffff; stroke-width: 0.48"/>
     <use xlink:href="#m2fd0cc5d40" x="628.851274" y="470.821069" style="fill: #ff0000; stroke: #ffffff; stroke-width: 0.48"/>
     <use xlink:href="#m2fd0cc5d40" x="371.839724" y="443.109627" style="fill: #ff0000; stroke: #ffffff; stroke-width: 0.48"/>
     <use xlink:href="#m2fd0cc5d40" x="757.357049" y="479.751875" style="fill: #ff0000; stroke: #ffffff; stroke-width: 0.48"/>
     <use xlink:href="#m2fd0cc5d40" x="950.115712" y="489.849988" style="fill: #ff0000; stroke: #ffffff; stroke-width: 0.48"/>
     <use xlink:href="#m2fd0cc5d40" x="693.104162" y="475.563939" style="fill: #ff0000; stroke: #ffffff; stroke-width: 0.48"/>
     <use xlink:href="#m2fd0cc5d40" x="821.609937" y="483.48505" style="fill: #ff0000; stroke: #ffffff; stroke-width: 0.48"/>
     <use xlink:href="#m2fd0cc5d40" x="179.081062" y="402.881468" style="fill: #ff0000; stroke: #ffffff; stroke-width: 0.48"/>
     <use xlink:href="#m2fd0cc5d40" x="500.345499" y="459.136657" style="fill: #ff0000; stroke: #ffffff; stroke-width: 0.48"/>
     <use xlink:href="#m2fd0cc5d40" x="564.598387" y="465.396132" style="fill: #ff0000; stroke: #ffffff; stroke-width: 0.48"/>
     <use xlink:href="#m2fd0cc5d40" x="114.828174" y="380.915735" style="fill: #ff0000; stroke: #ffffff; stroke-width: 0.48"/>
     <use xlink:href="#m2fd0cc5d40" x="1014.368599" y="492.595567" style="fill: #ff0000; stroke: #ffffff; stroke-width: 0.48"/>
    </g>
   </g>
   <g id="line2d_16"/>
   <g id="line2d_17"/>
   <g id="line2d_18"/>
   <g id="line2d_19"/>
   <g id="line2d_20"/>
   <g id="line2d_21"/>
   <g id="line2d_22"/>
   <g id="line2d_23">
    <path d="M 114.828174 48.870361 
L 123.18105 58.063594 
L 131.662431 67.065139 
L 140.143812 75.745153 
L 148.753699 84.241898 
L 157.492091 92.555304 
L 166.35899 100.685803 
L 175.354394 108.634305 
L 184.478304 116.402171 
L 193.859226 124.094611 
L 203.368653 131.60274 
L 213.006586 138.929522 
L 222.901531 146.170521 
L 232.924981 153.230163 
L 243.205443 160.198154 
L 253.742917 167.069303 
L 264.537402 173.839317 
L 275.588899 180.504752 
L 286.897407 187.062964 
L 298.462927 193.512043 
L 310.285458 199.850754 
L 322.493507 206.143413 
L 335.087073 212.382381 
L 347.93765 218.501073 
L 361.173745 224.558491 
L 374.923863 230.60495 
L 389.059498 236.576369 
L 403.580651 242.469302 
L 418.615826 248.329924 
L 434.165025 254.149901 
L 450.099741 259.876403 
L 466.54848 265.551378 
L 483.511243 271.168241 
L 500.988028 276.720876 
L 518.978837 282.203578 
L 537.483668 287.611024 
L 556.631029 292.973505 
L 576.292412 298.248287 
L 596.596325 303.463755 
L 617.41426 308.581464 
L 638.874725 313.628388 
L 661.106224 318.627046 
L 684.108757 323.56905 
L 707.882326 328.447506 
L 732.555435 333.28167 
L 758.128084 338.064426 
L 784.857285 342.835398 
L 812.743038 347.58533 
L 842.042355 352.349003 
L 873.269258 357.197679 
L 907.194783 362.23642 
L 947.288585 367.956914 
L 1015.525151 377.518165 
L 1015.525151 377.518165 
" clip-path="url(#p02ca2cd121)" style="fill: none; stroke: #393b79; stroke-width: 1.5; stroke-linecap: round"/>
   </g>
   <g id="line2d_24">
    <path d="M 114.828174 161.869756 
L 123.309555 169.565273 
L 131.790936 176.963142 
L 140.400823 184.18241 
L 149.267722 191.325216 
L 158.263126 198.283206 
L 167.387036 205.05842 
L 176.639452 211.653334 
L 186.148879 218.156922 
L 195.786812 224.479349 
L 205.681757 230.703797 
L 215.833713 236.824785 
L 226.242681 242.837847 
L 236.90866 248.739498 
L 247.831651 254.527188 
L 259.011654 260.199246 
L 270.577173 265.815884 
L 282.399705 271.310716 
L 294.607753 276.74059 
L 307.201319 282.099818 
L 320.308908 287.435028 
L 333.802015 292.687127 
L 347.809144 297.900652 
L 362.330297 303.068034 
L 377.493978 308.225665 
L 393.171683 313.321747 
L 409.491916 318.391165 
L 426.454679 323.425266 
L 444.05997 328.416365 
L 462.30779 333.357536 
L 481.326644 338.274891 
L 500.988028 343.12706 
L 521.29194 347.908551 
L 542.366888 352.642254 
L 564.084364 357.292204 
L 586.572874 361.879166 
L 609.832419 366.394828 
L 633.734494 370.808253 
L 658.407602 375.137611 
L 683.851746 379.375969 
L 710.066924 383.516693 
L 737.053137 387.553141 
L 764.681878 391.460559 
L 792.953149 395.233915 
L 821.738442 398.851056 
L 850.909253 402.292408 
L 880.465582 405.555649 
L 910.792945 408.679078 
L 942.533871 411.721889 
L 978.258476 414.916034 
L 1015.525151 418.097292 
L 1015.525151 418.097292 
" clip-path="url(#p02ca2cd121)" style="fill: none; stroke: #9c9ede; stroke-width: 1.5; stroke-linecap: round"/>
   </g>
   <g id="line2d_25">
    <path d="M 114.828174 242.705678 
L 123.438061 249.125735 
L 132.176454 255.365899 
L 141.171858 261.513831 
L 150.295768 267.478372 
L 159.548184 273.262606 
L 169.057611 278.945109 
L 178.82405 284.519711 
L 188.847501 289.98136 
L 199.127963 295.326096 
L 209.665436 300.551019 
L 220.459921 305.65424 
L 231.639924 310.691356 
L 243.076938 315.600488 
L 254.899469 320.434101 
L 267.236023 325.235622 
L 279.958095 329.947549 
L 293.19419 334.611697 
L 306.944308 339.220445 
L 321.336955 343.807816 
L 336.37213 348.363547 
L 352.049835 352.879339 
L 368.498574 357.382951 
L 385.718348 361.864251 
L 403.709156 366.314853 
L 422.599505 370.757255 
L 442.389395 375.1812 
L 463.078824 379.5776 
L 484.7963 383.963483 
L 507.413317 388.303265 
L 531.058379 392.612477 
L 555.602982 396.858841 
L 581.175632 401.056032 
L 607.647821 405.174639 
L 635.148057 409.226646 
L 663.547833 413.185243 
L 692.84715 417.043876 
L 722.917501 420.779514 
L 753.630382 424.37077 
L 784.728779 427.782805 
L 815.827177 430.970832 
L 846.540057 433.896599 
L 876.86742 436.562684 
L 906.809265 438.972025 
L 936.879617 441.168274 
L 968.235026 443.232869 
L 1004.60216 445.394575 
L 1015.525151 446.012897 
L 1015.525151 446.012897 
" clip-path="url(#p02ca2cd121)" style="fill: none; stroke: #b5cf6b; stroke-width: 1.5; stroke-linecap: round"/>
   </g>
   <g id="line2d_26">
    <path d="M 114.828174 298.114404 
L 123.823578 303.641537 
L 132.947488 308.985821 
L 142.32841 314.220856 
L 151.837837 319.273995 
L 161.604276 324.213491 
L 171.627727 329.035272 
L 182.036694 333.793647 
L 192.702674 338.423702 
L 203.75417 342.976547 
L 215.191184 347.444728 
L 227.013716 351.822454 
L 239.221764 356.105535 
L 251.943836 360.332855 
L 265.179931 364.496539 
L 279.058555 368.62794 
L 293.579707 372.717068 
L 308.871894 376.78961 
L 324.935116 380.834747 
L 341.897879 384.874004 
L 359.760181 388.896587 
L 378.65053 392.920811 
L 398.697431 396.961304 
L 419.900884 401.005491 
L 442.260889 405.042729 
L 465.905951 409.085066 
L 490.836072 413.120535 
L 517.05125 417.137907 
L 544.551486 421.126462 
L 573.336779 425.076001 
L 603.535636 428.993243 
L 635.019551 432.85159 
L 667.91703 436.657801 
L 702.099566 440.38806 
L 737.438654 444.019939 
L 773.291765 447.480919 
L 808.887865 450.694483 
L 843.455918 453.593849 
L 876.738914 456.164089 
L 908.865358 458.42322 
L 940.477779 460.423662 
L 973.118245 462.263596 
L 1011.412966 464.187093 
L 1015.525151 464.384094 
L 1015.525151 464.384094 
" clip-path="url(#p02ca2cd121)" style="fill: none; stroke: #e7ba52; stroke-width: 1.5; stroke-linecap: round"/>
   </g>
   <g id="line2d_27">
    <path d="M 114.828174 334.869693 
L 124.209096 339.686525 
L 133.847029 344.384623 
L 143.741974 348.959878 
L 153.89393 353.409356 
L 164.431403 357.783165 
L 175.225888 362.023132 
L 186.405891 366.176429 
L 198.099916 370.281005 
L 210.179459 374.283917 
L 222.773025 378.222007 
L 235.880614 382.08797 
L 249.630732 385.911368 
L 264.151885 389.715809 
L 279.444072 393.489119 
L 295.507294 397.222196 
L 312.598562 400.963348 
L 330.717876 404.699283 
L 349.993742 408.44423 
L 370.554666 412.209586 
L 392.400648 415.982577 
L 415.788699 419.793377 
L 440.590314 423.606801 
L 466.933998 427.429593 
L 494.691245 431.230574 
L 523.862056 434.999068 
L 554.44643 438.724919 
L 586.572874 442.413625 
L 620.498399 446.083227 
L 656.480016 449.748996 
L 694.774737 453.42432 
L 735.382562 457.096708 
L 777.660962 460.696825 
L 819.939362 464.074989 
L 860.290175 467.078478 
L 898.199379 469.679524 
L 934.566513 471.952415 
L 971.576176 474.040074 
L 1015.525151 476.295683 
L 1015.525151 476.295683 
" clip-path="url(#p02ca2cd121)" style="fill: none; stroke: #ad494a; stroke-width: 1.5; stroke-linecap: round"/>
   </g>
   <g id="line2d_28">
    <path d="M 114.828174 359.782873 
L 124.851625 364.209955 
L 135.132087 368.505974 
L 145.798066 372.71944 
L 156.849563 376.842394 
L 168.286577 380.868708 
L 180.109108 384.79404 
L 192.445662 388.654801 
L 205.29624 392.443194 
L 218.789346 396.188302 
L 232.924981 399.880633 
L 247.831651 403.544037 
L 263.637862 407.197603 
L 280.343612 410.8294 
L 298.077409 414.456211 
L 316.967758 418.091547 
L 337.143165 421.746009 
L 358.732135 425.427404 
L 381.606163 429.100515 
L 405.893755 432.773831 
L 431.466404 436.415737 
L 458.324111 440.014978 
L 486.33837 443.543548 
L 515.380675 446.976773 
L 545.579532 450.321634 
L 577.063447 453.583251 
L 610.089431 456.779123 
L 645.300013 459.959834 
L 683.337723 463.16919 
L 725.359111 466.48723 
L 772.135213 469.953825 
L 822.637983 473.472557 
L 872.626729 476.735249 
L 919.659843 479.584478 
L 967.335486 482.245985 
L 1015.525151 484.797486 
L 1015.525151 484.797486 
" clip-path="url(#p02ca2cd121)" style="fill: none; stroke: #7b4173; stroke-width: 1.5; stroke-linecap: round"/>
   </g>
   <g id="line2d_29">
    <path d="M 114.828174 379.702935 
L 125.494153 383.954808 
L 136.54565 388.120428 
L 147.982664 392.194041 
L 159.933701 396.213653 
L 172.398761 400.169862 
L 185.377845 404.055598 
L 198.999457 407.901231 
L 213.392104 411.731111 
L 228.555785 415.533213 
L 244.490501 419.298483 
L 261.453263 423.076033 
L 279.444072 426.851947 
L 298.462927 430.614977 
L 318.638333 434.378948 
L 339.970292 438.131193 
L 362.458803 441.859168 
L 385.975359 445.529876 
L 410.262951 449.0949 
L 435.193071 452.529687 
L 460.76572 455.827748 
L 486.723887 458.951113 
L 513.196077 461.911565 
L 540.182289 464.704602 
L 567.811031 467.339662 
L 596.339313 469.836414 
L 626.281159 472.23147 
L 658.022085 474.545063 
L 692.590139 476.838002 
L 731.270377 479.175578 
L 776.247398 481.66429 
L 830.476835 484.434911 
L 894.2157 487.464621 
L 974.403303 491.034693 
L 1015.525151 492.903682 
L 1015.525151 492.903682 
" clip-path="url(#p02ca2cd121)" style="fill: none; stroke: #de9ed6; stroke-width: 1.5; stroke-linecap: round"/>
   </g>
   <g id="patch_3">
    <path d="M 69.793325 515.449571 
L 69.793325 19.44 
" style="fill: none; stroke: #ffffff; stroke-width: 0.8; stroke-linejoin: miter; stroke-linecap: square"/>
   </g>
   <g id="patch_4">
    <path d="M 1060.56 515.449571 
L 1060.56 19.44 
" style="fill: none; stroke: #ffffff; stroke-width: 0.8; stroke-linejoin: miter; stroke-linecap: square"/>
   </g>
   <g id="patch_5">
    <path d="M 69.793325 515.449571 
L 1060.56 515.449571 
" style="fill: none; stroke: #ffffff; stroke-width: 0.8; stroke-linejoin: miter; stroke-linecap: square"/>
   </g>
   <g id="patch_6">
    <path d="M 69.793325 19.44 
L 1060.56 19.44 
" style="fill: none; stroke: #ffffff; stroke-width: 0.8; stroke-linejoin: miter; stroke-linecap: square"/>
   </g>
   <g id="legend_1">
    <g id="patch_7">
     <path d="M 960.380094 209.456449 
L 1047.96 209.456449 
Q 1051.56 209.456449 1051.56 205.856449 
L 1051.56 32.04 
Q 1051.56 28.44 1047.96 28.44 
L 960.380094 28.44 
Q 956.780094 28.44 956.780094 32.04 
L 956.780094 205.856449 
Q 956.780094 209.456449 960.380094 209.456449 
z
" style="fill: #eaeaf2; opacity: 0.8; stroke: #cccccc; stroke-linejoin: miter"/>
    </g>
    <g id="line2d_30">
     <defs>
      <path id="mf6bc862993" d="M 0 3 
C 0.795609 3 1.55874 2.683901 2.12132 2.12132 
C 2.683901 1.55874 3 0.795609 3 0 
C 3 -0.795609 2.683901 -1.55874 2.12132 -2.12132 
C 1.55874 -2.683901 0.795609 -3 0 -3 
C -0.795609 -3 -1.55874 -2.683901 -2.12132 -2.12132 
C -2.683901 -1.55874 -3 -0.795609 -3 0 
C -3 0.795609 -2.683901 1.55874 -2.12132 2.12132 
C -1.55874 2.683901 -0.795609 3 0 3 
z
" style="stroke: #ffffff; stroke-width: 0.48"/>
     </defs>
     <g>
      <use xlink:href="#mf6bc862993" x="981.980094" y="41.94" style="fill: #393b79; stroke: #ffffff; stroke-width: 0.48"/>
     </g>
    </g>
    <g id="text_18">
     <!-- 0.03 -->
     <g style="fill: #262626" transform="translate(1014.380094 48.24) scale(0.18 -0.18)">
      <defs>
       <path id="CMSS17-30" d="M 2758 2044 
C 2758 2405 2752 3077 2490 3596 
C 2227 4096 1805 4229 1504 4229 
C 1069 4229 698 3975 506 3570 
C 301 3146 243 2709 243 2044 
C 243 1589 262 1031 493 543 
C 755 5 1197 -128 1498 -128 
C 1894 -128 2278 81 2496 518 
C 2720 974 2758 1474 2758 2044 
z
M 1498 261 
C 1011 261 864 811 819 995 
C 742 1310 730 1614 730 2114 
C 730 2506 730 2948 851 3297 
C 998 3701 1254 3840 1498 3840 
C 1971 3840 2125 3372 2176 3208 
C 2272 2873 2272 2481 2272 2114 
C 2272 1526 2272 261 1498 261 
z
" transform="scale(0.015625)"/>
       <path id="CMSS17-2e" d="M 1088 510 
L 576 510 
L 576 0 
L 1088 0 
L 1088 510 
z
" transform="scale(0.015625)"/>
       <path id="CMSS17-33" d="M 1005 2025 
L 1440 2025 
C 2042 2025 2214 1507 2214 1146 
C 2214 653 1933 267 1472 267 
C 1114 267 608 444 320 912 
C 275 691 275 678 250 526 
C 550 88 1037 -128 1485 -128 
C 2214 -128 2752 473 2752 1138 
C 2752 1638 2400 2057 1920 2215 
C 2304 2424 2586 2816 2586 3273 
C 2586 3805 2093 4229 1491 4229 
C 941 4229 512 3892 333 3530 
C 378 3468 493 3284 550 3189 
C 691 3562 1056 3840 1485 3840 
C 1843 3840 2080 3607 2080 3271 
C 2080 2923 1856 2543 1478 2455 
C 1453 2455 1056 2417 1005 2411 
L 1005 2025 
z
" transform="scale(0.015625)"/>
      </defs>
      <use xlink:href="#CMSS17-30" transform="scale(0.996264)"/>
      <use xlink:href="#CMSS17-2e" transform="translate(46.843624 0) scale(0.996264)"/>
      <use xlink:href="#CMSS17-30" transform="translate(72.867828 0) scale(0.996264)"/>
      <use xlink:href="#CMSS17-33" transform="translate(119.711452 0) scale(0.996264)"/>
     </g>
    </g>
    <g id="line2d_31">
     <defs>
      <path id="m4491accf83" d="M 0 3 
C 0.795609 3 1.55874 2.683901 2.12132 2.12132 
C 2.683901 1.55874 3 0.795609 3 0 
C 3 -0.795609 2.683901 -1.55874 2.12132 -2.12132 
C 1.55874 -2.683901 0.795609 -3 0 -3 
C -0.795609 -3 -1.55874 -2.683901 -2.12132 -2.12132 
C -2.683901 -1.55874 -3 -0.795609 -3 0 
C -3 0.795609 -2.683901 1.55874 -2.12132 2.12132 
C -1.55874 2.683901 -0.795609 3 0 3 
z
" style="stroke: #ffffff; stroke-width: 0.48"/>
     </defs>
     <g>
      <use xlink:href="#m4491accf83" x="981.980094" y="67.028064" style="fill: #9c9ede; stroke: #ffffff; stroke-width: 0.48"/>
     </g>
    </g>
    <g id="text_19">
     <!-- 0.04 -->
     <g style="fill: #262626" transform="translate(1014.380094 73.328064) scale(0.18 -0.18)">
      <defs>
       <path id="CMSS17-34" d="M 2253 1088 
L 2835 1088 
L 2835 1477 
L 2253 1477 
L 2253 4192 
L 1690 4192 
L 166 1477 
L 166 1088 
L 1747 1088 
L 1747 0 
L 2253 0 
L 2253 1088 
z
M 659 1477 
C 1030 2127 1766 3439 1766 3885 
L 1766 1477 
L 659 1477 
z
" transform="scale(0.015625)"/>
      </defs>
      <use xlink:href="#CMSS17-30" transform="scale(0.996264)"/>
      <use xlink:href="#CMSS17-2e" transform="translate(46.843624 0) scale(0.996264)"/>
      <use xlink:href="#CMSS17-30" transform="translate(72.867828 0) scale(0.996264)"/>
      <use xlink:href="#CMSS17-34" transform="translate(119.711452 0) scale(0.996264)"/>
     </g>
    </g>
    <g id="line2d_32">
     <defs>
      <path id="mf16cf60bae" d="M 0 3 
C 0.795609 3 1.55874 2.683901 2.12132 2.12132 
C 2.683901 1.55874 3 0.795609 3 0 
C 3 -0.795609 2.683901 -1.55874 2.12132 -2.12132 
C 1.55874 -2.683901 0.795609 -3 0 -3 
C -0.795609 -3 -1.55874 -2.683901 -2.12132 -2.12132 
C -2.683901 -1.55874 -3 -0.795609 -3 0 
C -3 0.795609 -2.683901 1.55874 -2.12132 2.12132 
C -1.55874 2.683901 -0.795609 3 0 3 
z
" style="stroke: #ffffff; stroke-width: 0.48"/>
     </defs>
     <g>
      <use xlink:href="#mf16cf60bae" x="981.980094" y="92.116128" style="fill: #b5cf6b; stroke: #ffffff; stroke-width: 0.48"/>
     </g>
    </g>
    <g id="text_20">
     <!-- 0.05 -->
     <g style="fill: #262626" transform="translate(1014.380094 98.416128) scale(0.18 -0.18)">
      <defs>
       <path id="CMSS17-35" d="M 934 3752 
L 2502 3752 
L 2502 4160 
L 467 4160 
L 467 1781 
L 896 1781 
C 1011 2046 1248 2240 1555 2240 
C 1843 2240 2163 1989 2163 1266 
C 2163 493 1709 267 1376 267 
C 966 267 589 512 422 851 
L 218 499 
C 512 49 992 -128 1376 -128 
C 2118 -128 2701 497 2701 1253 
C 2701 2030 2182 2629 1562 2629 
C 1338 2629 1120 2553 934 2399 
L 934 3752 
z
" transform="scale(0.015625)"/>
      </defs>
      <use xlink:href="#CMSS17-30" transform="scale(0.996264)"/>
      <use xlink:href="#CMSS17-2e" transform="translate(46.843624 0) scale(0.996264)"/>
      <use xlink:href="#CMSS17-30" transform="translate(72.867828 0) scale(0.996264)"/>
      <use xlink:href="#CMSS17-35" transform="translate(119.711452 0) scale(0.996264)"/>
     </g>
    </g>
    <g id="line2d_33">
     <defs>
      <path id="m0c9260edf2" d="M 0 3 
C 0.795609 3 1.55874 2.683901 2.12132 2.12132 
C 2.683901 1.55874 3 0.795609 3 0 
C 3 -0.795609 2.683901 -1.55874 2.12132 -2.12132 
C 1.55874 -2.683901 0.795609 -3 0 -3 
C -0.795609 -3 -1.55874 -2.683901 -2.12132 -2.12132 
C -2.683901 -1.55874 -3 -0.795609 -3 0 
C -3 0.795609 -2.683901 1.55874 -2.12132 2.12132 
C -1.55874 2.683901 -0.795609 3 0 3 
z
" style="stroke: #ffffff; stroke-width: 0.48"/>
     </defs>
     <g>
      <use xlink:href="#m0c9260edf2" x="981.980094" y="117.204193" style="fill: #e7ba52; stroke: #ffffff; stroke-width: 0.48"/>
     </g>
    </g>
    <g id="text_21">
     <!-- 0.06 -->
     <g style="fill: #262626" transform="translate(1014.380094 123.504193) scale(0.18 -0.18)">
      <defs>
       <path id="CMSS17-36" d="M 2496 4101 
C 2227 4210 2035 4229 1856 4229 
C 1024 4229 250 3368 250 2006 
C 250 265 986 -128 1510 -128 
C 1798 -128 2086 -39 2362 280 
C 2643 617 2752 898 2752 1389 
C 2752 2179 2362 2880 1779 2880 
C 1357 2880 992 2657 768 2376 
C 832 3258 1254 3840 1862 3840 
C 2029 3840 2246 3816 2496 3710 
L 2496 4101 
z
M 774 1369 
C 774 1420 774 1452 781 1548 
C 781 2045 1069 2491 1536 2491 
C 1837 2491 1990 2332 2106 2135 
C 2240 1886 2246 1650 2246 1388 
C 2246 1140 2246 891 2099 637 
C 1978 439 1818 267 1510 267 
C 902 267 800 1114 774 1369 
z
" transform="scale(0.015625)"/>
      </defs>
      <use xlink:href="#CMSS17-30" transform="scale(0.996264)"/>
      <use xlink:href="#CMSS17-2e" transform="translate(46.843624 0) scale(0.996264)"/>
      <use xlink:href="#CMSS17-30" transform="translate(72.867828 0) scale(0.996264)"/>
      <use xlink:href="#CMSS17-36" transform="translate(119.711452 0) scale(0.996264)"/>
     </g>
    </g>
    <g id="line2d_34">
     <defs>
      <path id="ma08ec1223c" d="M 0 3 
C 0.795609 3 1.55874 2.683901 2.12132 2.12132 
C 2.683901 1.55874 3 0.795609 3 0 
C 3 -0.795609 2.683901 -1.55874 2.12132 -2.12132 
C 1.55874 -2.683901 0.795609 -3 0 -3 
C -0.795609 -3 -1.55874 -2.683901 -2.12132 -2.12132 
C -2.683901 -1.55874 -3 -0.795609 -3 0 
C -3 0.795609 -2.683901 1.55874 -2.12132 2.12132 
C -1.55874 2.683901 -0.795609 3 0 3 
z
" style="stroke: #ffffff; stroke-width: 0.48"/>
     </defs>
     <g>
      <use xlink:href="#ma08ec1223c" x="981.980094" y="142.292257" style="fill: #ad494a; stroke: #ffffff; stroke-width: 0.48"/>
     </g>
    </g>
    <g id="text_22">
     <!-- 0.07 -->
     <g style="fill: #262626" transform="translate(1014.380094 148.592257) scale(0.18 -0.18)">
      <defs>
       <path id="CMSS17-37" d="M 1389 3776 
C 1466 3776 1542 3776 1619 3776 
L 2355 3776 
C 1440 2711 915 1365 915 -32 
L 1427 -32 
C 1427 1323 1875 2696 2752 3795 
L 2752 4209 
L 250 4209 
L 250 3776 
L 1389 3776 
z
" transform="scale(0.015625)"/>
      </defs>
      <use xlink:href="#CMSS17-30" transform="scale(0.996264)"/>
      <use xlink:href="#CMSS17-2e" transform="translate(46.843624 0) scale(0.996264)"/>
      <use xlink:href="#CMSS17-30" transform="translate(72.867828 0) scale(0.996264)"/>
      <use xlink:href="#CMSS17-37" transform="translate(119.711452 0) scale(0.996264)"/>
     </g>
    </g>
    <g id="line2d_35">
     <defs>
      <path id="mf5930a49ee" d="M 0 3 
C 0.795609 3 1.55874 2.683901 2.12132 2.12132 
C 2.683901 1.55874 3 0.795609 3 0 
C 3 -0.795609 2.683901 -1.55874 2.12132 -2.12132 
C 1.55874 -2.683901 0.795609 -3 0 -3 
C -0.795609 -3 -1.55874 -2.683901 -2.12132 -2.12132 
C -2.683901 -1.55874 -3 -0.795609 -3 0 
C -3 0.795609 -2.683901 1.55874 -2.12132 2.12132 
C -1.55874 2.683901 -0.795609 3 0 3 
z
" style="stroke: #ffffff; stroke-width: 0.48"/>
     </defs>
     <g>
      <use xlink:href="#mf5930a49ee" x="981.980094" y="167.380321" style="fill: #7b4173; stroke: #ffffff; stroke-width: 0.48"/>
     </g>
    </g>
    <g id="text_23">
     <!-- 0.08 -->
     <g style="fill: #262626" transform="translate(1014.380094 173.680321) scale(0.18 -0.18)">
      <defs>
       <path id="CMSS17-38" d="M 1933 2222 
C 2419 2380 2669 2760 2669 3134 
C 2669 3722 2157 4229 1504 4229 
C 826 4229 333 3708 333 3144 
C 333 2780 576 2403 1069 2241 
C 442 1997 250 1512 250 1149 
C 250 446 819 -128 1498 -128 
C 2202 -128 2752 455 2752 1138 
C 2752 1557 2502 2000 1933 2222 
z
M 1504 2432 
C 1075 2432 787 2712 787 3136 
C 787 3566 1075 3840 1504 3840 
C 1901 3840 2214 3591 2214 3136 
C 2214 2687 1907 2432 1504 2432 
z
M 1504 267 
C 1139 267 749 517 749 1156 
C 749 1813 1184 2043 1498 2043 
C 1843 2043 2253 1800 2253 1156 
C 2253 491 1830 267 1504 267 
z
" transform="scale(0.015625)"/>
      </defs>
      <use xlink:href="#CMSS17-30" transform="scale(0.996264)"/>
      <use xlink:href="#CMSS17-2e" transform="translate(46.843624 0) scale(0.996264)"/>
      <use xlink:href="#CMSS17-30" transform="translate(72.867828 0) scale(0.996264)"/>
      <use xlink:href="#CMSS17-38" transform="translate(119.711452 0) scale(0.996264)"/>
     </g>
    </g>
    <g id="line2d_36">
     <defs>
      <path id="m25edd832ba" d="M 0 3 
C 0.795609 3 1.55874 2.683901 2.12132 2.12132 
C 2.683901 1.55874 3 0.795609 3 0 
C 3 -0.795609 2.683901 -1.55874 2.12132 -2.12132 
C 1.55874 -2.683901 0.795609 -3 0 -3 
C -0.795609 -3 -1.55874 -2.683901 -2.12132 -2.12132 
C -2.683901 -1.55874 -3 -0.795609 -3 0 
C -3 0.795609 -2.683901 1.55874 -2.12132 2.12132 
C -1.55874 2.683901 -0.795609 3 0 3 
z
" style="stroke: #ffffff; stroke-width: 0.48"/>
     </defs>
     <g>
      <use xlink:href="#m25edd832ba" x="981.980094" y="192.468385" style="fill: #de9ed6; stroke: #ffffff; stroke-width: 0.48"/>
     </g>
    </g>
    <g id="text_24">
     <!-- 0.09 -->
     <g style="fill: #262626" transform="translate(1014.380094 198.768385) scale(0.18 -0.18)">
      <defs>
       <path id="CMSS17-39" d="M 435 174 
C 614 21 845 -128 1235 -128 
C 2010 -128 2752 721 2752 2095 
C 2752 3932 1952 4229 1523 4229 
C 1094 4229 819 4041 582 3741 
C 301 3397 250 3090 250 2733 
C 250 2307 326 2045 506 1745 
C 749 1357 973 1275 1222 1275 
C 1600 1275 1978 1459 2234 1776 
C 2189 902 1798 267 1235 267 
C 1005 267 819 339 634 516 
L 435 174 
z
M 2214 2746 
C 2221 2703 2221 2622 2221 2596 
C 2221 2074 1914 1664 1466 1664 
C 1171 1664 1018 1813 902 2006 
C 762 2249 755 2485 755 2733 
C 755 2976 755 3244 934 3511 
C 1069 3703 1235 3840 1523 3840 
C 2112 3840 2208 3000 2214 2746 
z
" transform="scale(0.015625)"/>
      </defs>
      <use xlink:href="#CMSS17-30" transform="scale(0.996264)"/>
      <use xlink:href="#CMSS17-2e" transform="translate(46.843624 0) scale(0.996264)"/>
      <use xlink:href="#CMSS17-30" transform="translate(72.867828 0) scale(0.996264)"/>
      <use xlink:href="#CMSS17-39" transform="translate(119.711452 0) scale(0.996264)"/>
     </g>
    </g>
   </g>
  </g>
 </g>
 <defs>
  <clipPath id="p02ca2cd121">
   <rect x="69.793325" y="19.44" width="990.766675" height="496.009571"/>
  </clipPath>
 </defs>
</svg>
