<?xml version="1.0" encoding="utf-8" standalone="no"?>
<!DOCTYPE svg PUBLIC "-//W3C//DTD SVG 1.1//EN"
  "http://www.w3.org/Graphics/SVG/1.1/DTD/svg11.dtd">
<svg xmlns:xlink="http://www.w3.org/1999/xlink" width="1080pt" height="576pt" viewBox="0 0 1080 576" xmlns="http://www.w3.org/2000/svg" version="1.1">
 <metadata>
  <rdf:RDF xmlns:dc="http://purl.org/dc/elements/1.1/" xmlns:cc="http://creativecommons.org/ns#" xmlns:rdf="http://www.w3.org/1999/02/22-rdf-syntax-ns#">
   <cc:Work>
    <dc:type rdf:resource="http://purl.org/dc/dcmitype/StillImage"/>
    <dc:date>2024-06-28T11:56:49.788140</dc:date>
    <dc:format>image/svg+xml</dc:format>
    <dc:creator>
     <cc:Agent>
      <dc:title>Matplotlib v3.9.0, https://matplotlib.org/</dc:title>
     </cc:Agent>
    </dc:creator>
   </cc:Work>
  </rdf:RDF>
 </metadata>
 <defs>
  <style type="text/css">*{stroke-linejoin: round; stroke-linecap: butt}</style>
 </defs>
 <g id="figure_1">
  <g id="patch_1">
   <path d="M 0 576 
L 1080 576 
L 1080 0 
L 0 0 
z
" style="fill: #ffffff"/>
  </g>
  <g id="axes_1">
   <g id="patch_2">
    <path d="M 48.559071 521.153031 
L 935.517672 521.153031 
L 935.517672 51.564121 
L 48.559071 51.564121 
z
" style="fill: #eaeaf2"/>
   </g>
   <g id="matplotlib.axis_1">
    <g id="xtick_1">
     <g id="line2d_1">
      <path d="M 48.559071 521.153031 
L 48.559071 51.564121 
" clip-path="url(#pcfb353a43d)" style="fill: none; stroke: #ffffff; stroke-linecap: round"/>
     </g>
     <g id="line2d_2"/>
     <g id="text_1">
      <!-- $\mathdefault{0.00}$ -->
      <g style="fill: #262626" transform="translate(36.419535 537.838907) scale(0.14 -0.14)">
       <defs>
        <path id="CMR17-30" d="M 2688 2025 
C 2688 2416 2682 3080 2413 3591 
C 2176 4039 1798 4198 1466 4198 
C 1158 4198 768 4058 525 3597 
C 269 3118 243 2524 243 2025 
C 243 1661 250 1106 448 619 
C 723 -39 1216 -128 1466 -128 
C 1760 -128 2208 -7 2470 600 
C 2662 1042 2688 1559 2688 2025 
z
M 1466 -26 
C 1056 -26 813 325 723 812 
C 653 1188 653 1738 653 2096 
C 653 2588 653 2997 736 3387 
C 858 3929 1216 4096 1466 4096 
C 1728 4096 2067 3923 2189 3400 
C 2272 3036 2278 2607 2278 2096 
C 2278 1680 2278 1169 2202 792 
C 2067 95 1690 -26 1466 -26 
z
" transform="scale(0.015625)"/>
        <path id="CMMI12-3a" d="M 1178 307 
C 1178 492 1024 619 870 619 
C 685 619 557 466 557 313 
C 557 128 710 0 864 0 
C 1050 0 1178 153 1178 307 
z
" transform="scale(0.015625)"/>
       </defs>
       <use xlink:href="#CMR17-30" transform="scale(0.996264)"/>
       <use xlink:href="#CMMI12-3a" transform="translate(45.690477 0) scale(0.996264)"/>
       <use xlink:href="#CMR17-30" transform="translate(72.787654 0) scale(0.996264)"/>
       <use xlink:href="#CMR17-30" transform="translate(118.478131 0) scale(0.996264)"/>
      </g>
     </g>
    </g>
    <g id="xtick_2">
     <g id="line2d_3">
      <path d="M 154.14938 521.153031 
L 154.14938 51.564121 
" clip-path="url(#pcfb353a43d)" style="fill: none; stroke: #ffffff; stroke-linecap: round"/>
     </g>
     <g id="line2d_4"/>
     <g id="text_2">
      <!-- $\mathdefault{0.25}$ -->
      <g style="fill: #262626" transform="translate(142.009845 537.838907) scale(0.14 -0.14)">
       <defs>
        <path id="CMR17-32" d="M 2669 989 
L 2554 989 
C 2490 536 2438 459 2413 420 
C 2381 369 1920 369 1830 369 
L 602 369 
C 832 619 1280 1072 1824 1597 
C 2214 1967 2669 2402 2669 3035 
C 2669 3790 2067 4224 1395 4224 
C 691 4224 262 3604 262 3030 
C 262 2780 448 2748 525 2748 
C 589 2748 781 2787 781 3010 
C 781 3207 614 3264 525 3264 
C 486 3264 448 3258 422 3245 
C 544 3790 915 4058 1306 4058 
C 1862 4058 2227 3617 2227 3035 
C 2227 2479 1901 2000 1536 1584 
L 262 146 
L 262 0 
L 2515 0 
L 2669 989 
z
" transform="scale(0.015625)"/>
        <path id="CMR17-35" d="M 730 3692 
C 794 3666 1056 3584 1325 3584 
C 1920 3584 2246 3911 2432 4100 
C 2432 4157 2432 4192 2394 4192 
C 2387 4192 2374 4192 2323 4163 
C 2099 4058 1837 3973 1517 3973 
C 1325 3973 1037 3999 723 4139 
C 653 4171 640 4171 634 4171 
C 602 4171 595 4164 595 4037 
L 595 2203 
C 595 2089 595 2057 659 2057 
C 691 2057 704 2070 736 2114 
C 941 2401 1222 2522 1542 2522 
C 1766 2522 2246 2382 2246 1289 
C 2246 1085 2246 715 2054 421 
C 1894 159 1645 25 1370 25 
C 947 25 518 320 403 814 
C 429 807 480 795 506 795 
C 589 795 749 840 749 1038 
C 749 1210 627 1280 506 1280 
C 358 1280 262 1190 262 1011 
C 262 454 704 -128 1382 -128 
C 2042 -128 2669 440 2669 1264 
C 2669 2030 2170 2624 1549 2624 
C 1222 2624 947 2503 730 2274 
L 730 3692 
z
" transform="scale(0.015625)"/>
       </defs>
       <use xlink:href="#CMR17-30" transform="scale(0.996264)"/>
       <use xlink:href="#CMMI12-3a" transform="translate(45.690477 0) scale(0.996264)"/>
       <use xlink:href="#CMR17-32" transform="translate(72.787654 0) scale(0.996264)"/>
       <use xlink:href="#CMR17-35" transform="translate(118.478131 0) scale(0.996264)"/>
      </g>
     </g>
    </g>
    <g id="xtick_3">
     <g id="line2d_5">
      <path d="M 259.73969 521.153031 
L 259.73969 51.564121 
" clip-path="url(#pcfb353a43d)" style="fill: none; stroke: #ffffff; stroke-linecap: round"/>
     </g>
     <g id="line2d_6"/>
     <g id="text_3">
      <!-- $\mathdefault{0.50}$ -->
      <g style="fill: #262626" transform="translate(247.600155 537.838907) scale(0.14 -0.14)">
       <use xlink:href="#CMR17-30" transform="scale(0.996264)"/>
       <use xlink:href="#CMMI12-3a" transform="translate(45.690477 0) scale(0.996264)"/>
       <use xlink:href="#CMR17-35" transform="translate(72.787654 0) scale(0.996264)"/>
       <use xlink:href="#CMR17-30" transform="translate(118.478131 0) scale(0.996264)"/>
      </g>
     </g>
    </g>
    <g id="xtick_4">
     <g id="line2d_7">
      <path d="M 365.33 521.153031 
L 365.33 51.564121 
" clip-path="url(#pcfb353a43d)" style="fill: none; stroke: #ffffff; stroke-linecap: round"/>
     </g>
     <g id="line2d_8"/>
     <g id="text_4">
      <!-- $\mathdefault{0.75}$ -->
      <g style="fill: #262626" transform="translate(353.190464 537.838907) scale(0.14 -0.14)">
       <defs>
        <path id="CMR17-37" d="M 2886 3941 
L 2886 4081 
L 1382 4081 
C 634 4081 621 4165 595 4288 
L 480 4288 
L 294 3094 
L 410 3094 
C 429 3215 474 3540 550 3661 
C 589 3712 1062 3712 1171 3712 
L 2579 3712 
L 1869 2661 
C 1395 1954 1069 999 1069 165 
C 1069 89 1069 -128 1299 -128 
C 1530 -128 1530 89 1530 171 
L 1530 465 
C 1530 1508 1709 2196 2003 2636 
L 2886 3941 
z
" transform="scale(0.015625)"/>
       </defs>
       <use xlink:href="#CMR17-30" transform="scale(0.996264)"/>
       <use xlink:href="#CMMI12-3a" transform="translate(45.690477 0) scale(0.996264)"/>
       <use xlink:href="#CMR17-37" transform="translate(72.787654 0) scale(0.996264)"/>
       <use xlink:href="#CMR17-35" transform="translate(118.478131 0) scale(0.996264)"/>
      </g>
     </g>
    </g>
    <g id="xtick_5">
     <g id="line2d_9">
      <path d="M 470.920309 521.153031 
L 470.920309 51.564121 
" clip-path="url(#pcfb353a43d)" style="fill: none; stroke: #ffffff; stroke-linecap: round"/>
     </g>
     <g id="line2d_10"/>
     <g id="text_5">
      <!-- $\mathdefault{1.00}$ -->
      <g style="fill: #262626" transform="translate(458.780774 537.838907) scale(0.14 -0.14)">
       <defs>
        <path id="CMR17-31" d="M 1702 4058 
C 1702 4192 1696 4192 1606 4192 
C 1357 3916 979 3827 621 3827 
C 602 3827 570 3827 563 3808 
C 557 3795 557 3782 557 3648 
C 755 3648 1088 3686 1344 3839 
L 1344 461 
C 1344 236 1331 160 781 160 
L 589 160 
L 589 0 
C 896 0 1216 0 1523 0 
C 1830 0 2150 0 2458 0 
L 2458 160 
L 2266 160 
C 1715 160 1702 230 1702 458 
L 1702 4058 
z
" transform="scale(0.015625)"/>
       </defs>
       <use xlink:href="#CMR17-31" transform="scale(0.996264)"/>
       <use xlink:href="#CMMI12-3a" transform="translate(45.690477 0) scale(0.996264)"/>
       <use xlink:href="#CMR17-30" transform="translate(72.787654 0) scale(0.996264)"/>
       <use xlink:href="#CMR17-30" transform="translate(118.478131 0) scale(0.996264)"/>
      </g>
     </g>
    </g>
    <g id="xtick_6">
     <g id="line2d_11">
      <path d="M 576.510619 521.153031 
L 576.510619 51.564121 
" clip-path="url(#pcfb353a43d)" style="fill: none; stroke: #ffffff; stroke-linecap: round"/>
     </g>
     <g id="line2d_12"/>
     <g id="text_6">
      <!-- $\mathdefault{1.25}$ -->
      <g style="fill: #262626" transform="translate(564.371084 537.838907) scale(0.14 -0.14)">
       <use xlink:href="#CMR17-31" transform="scale(0.996264)"/>
       <use xlink:href="#CMMI12-3a" transform="translate(45.690477 0) scale(0.996264)"/>
       <use xlink:href="#CMR17-32" transform="translate(72.787654 0) scale(0.996264)"/>
       <use xlink:href="#CMR17-35" transform="translate(118.478131 0) scale(0.996264)"/>
      </g>
     </g>
    </g>
    <g id="xtick_7">
     <g id="line2d_13">
      <path d="M 682.100929 521.153031 
L 682.100929 51.564121 
" clip-path="url(#pcfb353a43d)" style="fill: none; stroke: #ffffff; stroke-linecap: round"/>
     </g>
     <g id="line2d_14"/>
     <g id="text_7">
      <!-- $\mathdefault{1.50}$ -->
      <g style="fill: #262626" transform="translate(669.961393 537.838907) scale(0.14 -0.14)">
       <use xlink:href="#CMR17-31" transform="scale(0.996264)"/>
       <use xlink:href="#CMMI12-3a" transform="translate(45.690477 0) scale(0.996264)"/>
       <use xlink:href="#CMR17-35" transform="translate(72.787654 0) scale(0.996264)"/>
       <use xlink:href="#CMR17-30" transform="translate(118.478131 0) scale(0.996264)"/>
      </g>
     </g>
    </g>
    <g id="xtick_8">
     <g id="line2d_15">
      <path d="M 787.691238 521.153031 
L 787.691238 51.564121 
" clip-path="url(#pcfb353a43d)" style="fill: none; stroke: #ffffff; stroke-linecap: round"/>
     </g>
     <g id="line2d_16"/>
     <g id="text_8">
      <!-- $\mathdefault{1.75}$ -->
      <g style="fill: #262626" transform="translate(775.551703 537.838907) scale(0.14 -0.14)">
       <use xlink:href="#CMR17-31" transform="scale(0.996264)"/>
       <use xlink:href="#CMMI12-3a" transform="translate(45.690477 0) scale(0.996264)"/>
       <use xlink:href="#CMR17-37" transform="translate(72.787654 0) scale(0.996264)"/>
       <use xlink:href="#CMR17-35" transform="translate(118.478131 0) scale(0.996264)"/>
      </g>
     </g>
    </g>
    <g id="xtick_9">
     <g id="line2d_17">
      <path d="M 893.281548 521.153031 
L 893.281548 51.564121 
" clip-path="url(#pcfb353a43d)" style="fill: none; stroke: #ffffff; stroke-linecap: round"/>
     </g>
     <g id="line2d_18"/>
     <g id="text_9">
      <!-- $\mathdefault{2.00}$ -->
      <g style="fill: #262626" transform="translate(881.142013 537.838907) scale(0.14 -0.14)">
       <use xlink:href="#CMR17-32" transform="scale(0.996264)"/>
       <use xlink:href="#CMMI12-3a" transform="translate(45.690477 0) scale(0.996264)"/>
       <use xlink:href="#CMR17-30" transform="translate(72.787654 0) scale(0.996264)"/>
       <use xlink:href="#CMR17-30" transform="translate(118.478131 0) scale(0.996264)"/>
      </g>
     </g>
    </g>
    <g id="text_10">
     <!-- $x$ -->
     <g style="fill: #262626" transform="translate(487.603646 555.620524) scale(0.16 -0.16)">
      <defs>
       <path id="CMMI12-78" d="M 3034 2606 
C 2829 2567 2752 2414 2752 2293 
C 2752 2139 2874 2088 2963 2088 
C 3155 2088 3290 2254 3290 2427 
C 3290 2695 2982 2816 2714 2816 
C 2323 2816 2106 2433 2048 2312 
C 1901 2816 1504 2816 1389 2816 
C 736 2816 390 1980 390 1839 
C 390 1814 416 1782 461 1782 
C 512 1782 525 1820 538 1846 
C 755 2555 1184 2689 1370 2689 
C 1658 2689 1715 2420 1715 2267 
C 1715 2127 1677 1980 1600 1673 
L 1382 798 
C 1286 415 1101 64 762 64 
C 730 64 570 64 435 147 
C 666 192 717 383 717 460 
C 717 588 621 664 499 664 
C 346 664 179 530 179 326 
C 179 57 480 -64 755 -64 
C 1062 -64 1280 179 1414 441 
C 1517 64 1837 -64 2074 -64 
C 2726 -64 3072 773 3072 913 
C 3072 945 3046 971 3008 971 
C 2950 971 2944 939 2925 888 
C 2752 326 2381 64 2093 64 
C 1869 64 1747 230 1747 492 
C 1747 632 1773 734 1875 1156 
L 2099 2024 
C 2195 2408 2413 2689 2707 2689 
C 2720 2689 2899 2689 3034 2606 
z
" transform="scale(0.015625)"/>
      </defs>
      <use xlink:href="#CMMI12-78" transform="scale(0.996264)"/>
     </g>
    </g>
   </g>
   <g id="matplotlib.axis_2">
    <g id="ytick_1">
     <g id="line2d_19">
      <path d="M 48.559071 521.153031 
L 935.517672 521.153031 
" clip-path="url(#pcfb353a43d)" style="fill: none; stroke: #ffffff; stroke-linecap: round"/>
     </g>
     <g id="line2d_20"/>
     <g id="text_11">
      <!-- $\mathdefault{0.00}$ -->
      <g style="fill: #262626" transform="translate(17.28 525.995969) scale(0.14 -0.14)">
       <use xlink:href="#CMR17-30" transform="scale(0.996264)"/>
       <use xlink:href="#CMMI12-3a" transform="translate(45.690477 0) scale(0.996264)"/>
       <use xlink:href="#CMR17-30" transform="translate(72.787654 0) scale(0.996264)"/>
       <use xlink:href="#CMR17-30" transform="translate(118.478131 0) scale(0.996264)"/>
      </g>
     </g>
    </g>
    <g id="ytick_2">
     <g id="line2d_21">
      <path d="M 48.559071 465.209352 
L 935.517672 465.209352 
" clip-path="url(#pcfb353a43d)" style="fill: none; stroke: #ffffff; stroke-linecap: round"/>
     </g>
     <g id="line2d_22"/>
     <g id="text_12">
      <!-- $\mathdefault{0.25}$ -->
      <g style="fill: #262626" transform="translate(17.28 470.05229) scale(0.14 -0.14)">
       <use xlink:href="#CMR17-30" transform="scale(0.996264)"/>
       <use xlink:href="#CMMI12-3a" transform="translate(45.690477 0) scale(0.996264)"/>
       <use xlink:href="#CMR17-32" transform="translate(72.787654 0) scale(0.996264)"/>
       <use xlink:href="#CMR17-35" transform="translate(118.478131 0) scale(0.996264)"/>
      </g>
     </g>
    </g>
    <g id="ytick_3">
     <g id="line2d_23">
      <path d="M 48.559071 409.265674 
L 935.517672 409.265674 
" clip-path="url(#pcfb353a43d)" style="fill: none; stroke: #ffffff; stroke-linecap: round"/>
     </g>
     <g id="line2d_24"/>
     <g id="text_13">
      <!-- $\mathdefault{0.50}$ -->
      <g style="fill: #262626" transform="translate(17.28 414.108612) scale(0.14 -0.14)">
       <use xlink:href="#CMR17-30" transform="scale(0.996264)"/>
       <use xlink:href="#CMMI12-3a" transform="translate(45.690477 0) scale(0.996264)"/>
       <use xlink:href="#CMR17-35" transform="translate(72.787654 0) scale(0.996264)"/>
       <use xlink:href="#CMR17-30" transform="translate(118.478131 0) scale(0.996264)"/>
      </g>
     </g>
    </g>
    <g id="ytick_4">
     <g id="line2d_25">
      <path d="M 48.559071 353.321995 
L 935.517672 353.321995 
" clip-path="url(#pcfb353a43d)" style="fill: none; stroke: #ffffff; stroke-linecap: round"/>
     </g>
     <g id="line2d_26"/>
     <g id="text_14">
      <!-- $\mathdefault{0.75}$ -->
      <g style="fill: #262626" transform="translate(17.28 358.164933) scale(0.14 -0.14)">
       <use xlink:href="#CMR17-30" transform="scale(0.996264)"/>
       <use xlink:href="#CMMI12-3a" transform="translate(45.690477 0) scale(0.996264)"/>
       <use xlink:href="#CMR17-37" transform="translate(72.787654 0) scale(0.996264)"/>
       <use xlink:href="#CMR17-35" transform="translate(118.478131 0) scale(0.996264)"/>
      </g>
     </g>
    </g>
    <g id="ytick_5">
     <g id="line2d_27">
      <path d="M 48.559071 297.378317 
L 935.517672 297.378317 
" clip-path="url(#pcfb353a43d)" style="fill: none; stroke: #ffffff; stroke-linecap: round"/>
     </g>
     <g id="line2d_28"/>
     <g id="text_15">
      <!-- $\mathdefault{1.00}$ -->
      <g style="fill: #262626" transform="translate(17.28 302.221255) scale(0.14 -0.14)">
       <use xlink:href="#CMR17-31" transform="scale(0.996264)"/>
       <use xlink:href="#CMMI12-3a" transform="translate(45.690477 0) scale(0.996264)"/>
       <use xlink:href="#CMR17-30" transform="translate(72.787654 0) scale(0.996264)"/>
       <use xlink:href="#CMR17-30" transform="translate(118.478131 0) scale(0.996264)"/>
      </g>
     </g>
    </g>
    <g id="ytick_6">
     <g id="line2d_29">
      <path d="M 48.559071 241.434638 
L 935.517672 241.434638 
" clip-path="url(#pcfb353a43d)" style="fill: none; stroke: #ffffff; stroke-linecap: round"/>
     </g>
     <g id="line2d_30"/>
     <g id="text_16">
      <!-- $\mathdefault{1.25}$ -->
      <g style="fill: #262626" transform="translate(17.28 246.277576) scale(0.14 -0.14)">
       <use xlink:href="#CMR17-31" transform="scale(0.996264)"/>
       <use xlink:href="#CMMI12-3a" transform="translate(45.690477 0) scale(0.996264)"/>
       <use xlink:href="#CMR17-32" transform="translate(72.787654 0) scale(0.996264)"/>
       <use xlink:href="#CMR17-35" transform="translate(118.478131 0) scale(0.996264)"/>
      </g>
     </g>
    </g>
    <g id="ytick_7">
     <g id="line2d_31">
      <path d="M 48.559071 185.49096 
L 935.517672 185.49096 
" clip-path="url(#pcfb353a43d)" style="fill: none; stroke: #ffffff; stroke-linecap: round"/>
     </g>
     <g id="line2d_32"/>
     <g id="text_17">
      <!-- $\mathdefault{1.50}$ -->
      <g style="fill: #262626" transform="translate(17.28 190.333898) scale(0.14 -0.14)">
       <use xlink:href="#CMR17-31" transform="scale(0.996264)"/>
       <use xlink:href="#CMMI12-3a" transform="translate(45.690477 0) scale(0.996264)"/>
       <use xlink:href="#CMR17-35" transform="translate(72.787654 0) scale(0.996264)"/>
       <use xlink:href="#CMR17-30" transform="translate(118.478131 0) scale(0.996264)"/>
      </g>
     </g>
    </g>
    <g id="ytick_8">
     <g id="line2d_33">
      <path d="M 48.559071 129.547281 
L 935.517672 129.547281 
" clip-path="url(#pcfb353a43d)" style="fill: none; stroke: #ffffff; stroke-linecap: round"/>
     </g>
     <g id="line2d_34"/>
     <g id="text_18">
      <!-- $\mathdefault{1.75}$ -->
      <g style="fill: #262626" transform="translate(17.28 134.390219) scale(0.14 -0.14)">
       <use xlink:href="#CMR17-31" transform="scale(0.996264)"/>
       <use xlink:href="#CMMI12-3a" transform="translate(45.690477 0) scale(0.996264)"/>
       <use xlink:href="#CMR17-37" transform="translate(72.787654 0) scale(0.996264)"/>
       <use xlink:href="#CMR17-35" transform="translate(118.478131 0) scale(0.996264)"/>
      </g>
     </g>
    </g>
    <g id="ytick_9">
     <g id="line2d_35">
      <path d="M 48.559071 73.603603 
L 935.517672 73.603603 
" clip-path="url(#pcfb353a43d)" style="fill: none; stroke: #ffffff; stroke-linecap: round"/>
     </g>
     <g id="line2d_36"/>
     <g id="text_19">
      <!-- $\mathdefault{2.00}$ -->
      <g style="fill: #262626" transform="translate(17.28 78.446541) scale(0.14 -0.14)">
       <use xlink:href="#CMR17-32" transform="scale(0.996264)"/>
       <use xlink:href="#CMMI12-3a" transform="translate(45.690477 0) scale(0.996264)"/>
       <use xlink:href="#CMR17-30" transform="translate(72.787654 0) scale(0.996264)"/>
       <use xlink:href="#CMR17-30" transform="translate(118.478131 0) scale(0.996264)"/>
      </g>
     </g>
    </g>
   </g>
   <g id="line2d_37">
    <path d="M 48.559071 73.603603 
L 57.006295 73.603603 
L 65.45352 73.603603 
L 73.900745 73.603603 
L 82.34797 73.603603 
L 90.795195 73.603603 
L 99.242419 73.603603 
L 107.689644 73.603603 
L 116.136869 73.603603 
L 124.584094 73.603603 
L 133.031318 73.603603 
L 141.478543 73.603603 
L 149.925768 73.603603 
L 158.372993 73.603603 
L 166.820217 73.603603 
L 175.267442 73.603603 
L 183.714667 73.603603 
L 192.161892 73.603603 
L 200.609117 73.603603 
L 209.056341 73.603603 
L 217.503566 73.603603 
L 225.950791 73.603603 
L 234.398016 73.603603 
L 242.84524 73.603603 
L 251.292465 73.603603 
L 259.73969 73.603603 
L 268.186915 73.603603 
L 276.63414 73.603603 
L 285.081364 73.603603 
L 293.528589 73.603603 
L 301.975814 73.603603 
L 310.423039 73.603603 
L 318.870263 73.603603 
L 327.317488 73.603603 
L 335.764713 73.603603 
L 344.211938 73.603603 
L 352.659162 73.603603 
L 361.106387 73.603603 
L 369.553612 73.603603 
L 378.000837 73.603603 
L 386.448062 73.603603 
L 394.895286 73.603603 
L 403.342511 73.603603 
L 411.789736 73.603603 
L 420.236961 73.603603 
L 428.684185 73.603603 
L 437.13141 73.603603 
L 445.578635 73.603603 
L 454.02586 73.603603 
L 462.473085 73.603603 
L 470.920309 73.603603 
L 479.367534 73.603603 
L 487.814759 73.603603 
L 496.261984 73.603603 
L 504.709208 73.603603 
L 513.156433 73.603603 
L 521.603658 73.603603 
L 530.050883 73.603603 
L 538.498107 73.603603 
L 546.945332 73.603603 
L 555.392557 73.603603 
L 563.839782 73.603603 
L 572.287007 73.603603 
L 580.734231 73.603603 
L 589.181456 73.603603 
L 597.628681 73.603603 
L 606.075906 73.603603 
L 614.52313 73.603603 
L 622.970355 73.603603 
L 631.41758 73.603603 
L 639.864805 73.603603 
L 648.31203 73.603603 
L 656.759254 73.603603 
L 665.206479 73.603603 
L 673.653704 73.603603 
L 682.100929 73.603603 
L 690.548153 73.603603 
L 698.995378 73.603603 
L 707.442603 73.603603 
L 715.889828 73.603603 
L 724.337052 73.603603 
L 732.784277 73.603603 
L 741.231502 73.603603 
L 749.678727 73.603603 
L 758.125952 73.603603 
L 766.573176 73.603603 
L 775.020401 73.603603 
L 783.467626 73.603603 
L 791.914851 73.603603 
L 800.362075 73.603603 
L 808.8093 73.603603 
L 817.256525 73.603603 
L 825.70375 73.603603 
L 834.150975 73.603603 
L 842.598199 73.603603 
L 851.045424 73.603603 
L 859.492649 73.603603 
L 867.939874 73.603603 
L 876.387098 73.603603 
L 884.834323 73.603603 
L 893.281548 73.603603 
" clip-path="url(#pcfb353a43d)" style="fill: none; stroke: #393b79; stroke-width: 2; stroke-linecap: round"/>
   </g>
   <g id="line2d_38">
    <path d="M 48.559071 99.506243 
L 57.006295 99.442539 
L 65.45352 99.378772 
L 73.900745 99.314832 
L 82.34797 99.251056 
L 90.795195 99.187442 
L 99.242419 99.123991 
L 107.689644 99.060701 
L 116.136869 98.997573 
L 124.584094 98.934606 
L 133.031318 98.8718 
L 141.478543 98.809154 
L 149.925768 98.746668 
L 158.372993 98.684341 
L 166.820217 98.622173 
L 175.267442 98.560164 
L 183.714667 98.498313 
L 192.161892 98.436619 
L 200.609117 98.375083 
L 209.056341 98.313705 
L 217.503566 98.252483 
L 225.950791 98.191418 
L 234.398016 98.130508 
L 242.84524 98.069755 
L 251.292465 98.009156 
L 259.73969 97.948712 
L 268.186915 97.888421 
L 276.63414 97.828284 
L 285.081364 97.768301 
L 293.528589 97.70847 
L 301.975814 97.648792 
L 310.423039 97.589267 
L 318.870263 97.529893 
L 327.317488 97.47067 
L 335.764713 97.411598 
L 344.211938 97.352677 
L 352.659162 97.293905 
L 361.106387 97.235283 
L 369.553612 97.176811 
L 378.000837 97.118487 
L 386.448062 97.060312 
L 394.895286 97.002284 
L 403.342511 96.944405 
L 411.789736 96.886322 
L 420.236961 96.828227 
L 428.684185 96.77028 
L 437.13141 96.71248 
L 445.578635 96.654827 
L 454.02586 96.597321 
L 462.473085 96.539961 
L 470.920309 96.482747 
L 479.367534 96.425679 
L 487.814759 96.368756 
L 496.261984 96.311978 
L 504.709208 96.255345 
L 513.156433 96.198856 
L 521.603658 96.142512 
L 530.050883 96.08631 
L 538.498107 96.030252 
L 546.945332 95.974336 
L 555.392557 95.918563 
L 563.839782 95.862931 
L 572.287007 95.80744 
L 580.734231 95.752091 
L 589.181456 95.696882 
L 597.628681 95.641814 
L 606.075906 95.586885 
L 614.52313 95.532097 
L 622.970355 95.477447 
L 631.41758 95.422936 
L 639.864805 95.368564 
L 648.31203 95.31433 
L 656.759254 95.260234 
L 665.206479 95.206276 
L 673.653704 95.152456 
L 682.100929 95.098772 
L 690.548153 95.045224 
L 698.995378 94.991812 
L 707.442603 94.938536 
L 715.889828 94.885396 
L 724.337052 94.83239 
L 732.784277 94.779519 
L 741.231502 94.726782 
L 749.678727 94.674179 
L 758.125952 94.62171 
L 766.573176 94.569374 
L 775.020401 94.517171 
L 783.467626 94.465101 
L 791.914851 94.413047 
L 800.362075 94.360781 
L 808.8093 94.308647 
L 817.256525 94.256646 
L 825.70375 94.204776 
L 834.150975 94.153038 
L 842.598199 94.101432 
L 851.045424 94.049956 
L 859.492649 93.998611 
L 867.939874 93.947397 
L 876.387098 93.896313 
L 884.834323 93.845358 
L 893.281548 93.794533 
" clip-path="url(#pcfb353a43d)" style="fill: none; stroke: #6b6ecf; stroke-width: 2; stroke-linecap: round"/>
   </g>
   <g id="line2d_39">
    <path d="M 48.559071 184.494028 
L 57.006295 184.276435 
L 65.45352 184.059434 
L 73.900745 183.843021 
L 82.34797 183.627195 
L 90.795195 183.411955 
L 99.242419 183.197298 
L 107.689644 182.982202 
L 116.136869 182.767028 
L 124.584094 182.552436 
L 133.031318 182.338443 
L 141.478543 182.125057 
L 149.925768 181.912259 
L 158.372993 181.70004 
L 166.820217 181.488396 
L 175.267442 181.276863 
L 183.714667 181.064704 
L 192.161892 180.853116 
L 200.609117 180.642101 
L 209.056341 180.431654 
L 217.503566 180.221783 
L 225.950791 180.012482 
L 234.398016 179.803757 
L 242.84524 179.595597 
L 251.292465 179.386763 
L 259.73969 179.178101 
L 268.186915 178.969998 
L 276.63414 178.762453 
L 285.081364 178.555457 
L 293.528589 178.349016 
L 301.975814 178.143141 
L 310.423039 177.937827 
L 318.870263 177.733003 
L 327.317488 177.527179 
L 335.764713 177.321913 
L 344.211938 177.117197 
L 352.659162 176.913027 
L 361.106387 176.709402 
L 369.553612 176.506339 
L 378.000837 176.303822 
L 386.448062 176.101857 
L 394.895286 175.900262 
L 403.342511 175.697772 
L 411.789736 175.49582 
L 420.236961 175.294405 
L 428.684185 175.093534 
L 437.13141 174.893199 
L 445.578635 174.693396 
L 454.02586 174.494124 
L 462.473085 174.295383 
L 470.920309 174.097187 
L 479.367534 173.898014 
L 487.814759 173.699308 
L 496.261984 173.501136 
L 504.709208 173.303489 
L 513.156433 173.106366 
L 521.603658 172.909766 
L 530.050883 172.713701 
L 538.498107 172.518161 
L 546.945332 172.323141 
L 555.392557 172.127747 
L 563.839782 171.932208 
L 572.287007 171.737185 
L 580.734231 171.542671 
L 589.181456 171.348667 
L 597.628681 171.155175 
L 606.075906 170.962194 
L 614.52313 170.769734 
L 622.970355 170.577791 
L 631.41758 170.386353 
L 639.864805 170.193978 
L 648.31203 170.002037 
L 656.759254 169.81061 
L 665.206479 169.619684 
L 673.653704 169.42926 
L 682.100929 169.239334 
L 690.548153 169.049906 
L 698.995378 168.860975 
L 707.442603 168.672546 
L 715.889828 168.484501 
L 724.337052 168.295545 
L 732.784277 168.107089 
L 741.231502 167.919123 
L 749.678727 167.73168 
L 758.125952 167.54473 
L 766.573176 167.358268 
L 775.020401 167.172292 
L 783.467626 166.986803 
L 791.914851 166.801801 
L 800.362075 166.617281 
L 808.8093 166.431855 
L 817.256525 166.24681 
L 825.70375 166.06225 
L 834.150975 165.878176 
L 842.598199 165.694583 
L 851.045424 165.511474 
L 859.492649 165.328846 
L 867.939874 165.146702 
L 876.387098 164.965038 
L 884.834323 164.78386 
L 893.281548 164.602399 
" clip-path="url(#pcfb353a43d)" style="fill: none; stroke: #637939; stroke-width: 2; stroke-linecap: round"/>
   </g>
   <g id="line2d_40">
    <path d="M 48.559071 260.480204 
L 57.006295 260.146454 
L 65.45352 259.813547 
L 73.900745 259.481817 
L 82.34797 259.15054 
L 90.795195 258.818677 
L 99.242419 258.487887 
L 107.689644 258.158227 
L 116.136869 257.828241 
L 124.584094 257.498457 
L 133.031318 257.169769 
L 141.478543 256.842199 
L 149.925768 256.513633 
L 158.372993 256.185937 
L 166.820217 255.859317 
L 175.267442 255.533413 
L 183.714667 255.206679 
L 192.161892 254.881002 
L 200.609117 254.556386 
L 209.056341 254.232015 
L 217.503566 253.907268 
L 225.950791 253.583562 
L 234.398016 253.260936 
L 242.84524 252.938197 
L 251.292465 252.615419 
L 259.73969 252.293706 
L 268.186915 251.973026 
L 276.63414 251.651988 
L 285.081364 251.331125 
L 293.528589 251.011301 
L 301.975814 250.692508 
L 310.423039 250.373243 
L 318.870263 250.054287 
L 327.317488 249.736366 
L 335.764713 249.419474 
L 344.211938 249.102088 
L 352.659162 248.785004 
L 361.106387 248.468929 
L 369.553612 248.153881 
L 378.000837 247.838433 
L 386.448062 247.523183 
L 394.895286 247.208942 
L 403.342511 246.89571 
L 411.789736 246.582319 
L 420.236961 246.268893 
L 428.684185 245.956447 
L 437.13141 245.64497 
L 445.578635 245.333624 
L 454.02586 245.021943 
L 462.473085 244.711283 
L 470.920309 244.401604 
L 479.367534 244.092522 
L 487.814759 243.782581 
L 496.261984 243.473637 
L 504.709208 243.165672 
L 513.156433 242.858674 
L 521.603658 242.550676 
L 530.050883 242.243444 
L 538.498107 241.937185 
L 546.945332 241.631891 
L 555.392557 241.326304 
L 563.839782 241.020747 
L 572.287007 240.716142 
L 580.734231 240.412495 
L 589.181456 240.109383 
L 597.628681 239.805455 
L 606.075906 239.502472 
L 614.52313 239.200445 
L 622.970355 238.899375 
L 631.41758 238.597645 
L 639.864805 238.296293 
L 648.31203 237.995899 
L 656.759254 237.696425 
L 665.206479 237.39741 
L 673.653704 237.097655 
L 682.100929 236.798812 
L 690.548153 236.500897 
L 698.995378 236.203911 
L 707.442603 235.906461 
L 715.889828 235.609167 
L 724.337052 235.312792 
L 732.784277 235.01733 
L 741.231502 234.722774 
L 749.678727 234.427021 
L 758.125952 234.132178 
L 766.573176 233.838249 
L 775.020401 233.545213 
L 783.467626 233.252455 
L 791.914851 232.959097 
L 800.362075 232.666635 
L 808.8093 232.375071 
L 817.256525 232.084403 
L 825.70375 231.79352 
L 834.150975 231.502507 
L 842.598199 231.212386 
L 851.045424 230.923173 
L 859.492649 230.634843 
L 867.939874 230.345979 
L 876.387098 230.05729 
L 884.834323 229.769475 
L 893.281548 229.48255 
" clip-path="url(#pcfb353a43d)" style="fill: none; stroke: #b5cf6b; stroke-width: 2; stroke-linecap: round"/>
   </g>
   <g id="line2d_41">
    <path d="M 48.559071 384.480781 
L 57.006295 384.031764 
L 65.45352 383.582879 
L 73.900745 383.134173 
L 82.34797 382.685655 
L 90.795195 382.237296 
L 99.242419 381.789075 
L 107.689644 381.3411 
L 116.136869 380.893284 
L 124.584094 380.445636 
L 133.031318 379.998261 
L 141.478543 379.551041 
L 149.925768 379.10407 
L 158.372993 378.657303 
L 166.820217 378.21077 
L 175.267442 377.764416 
L 183.714667 377.318359 
L 192.161892 376.872508 
L 200.609117 376.42687 
L 209.056341 375.981245 
L 217.503566 375.535899 
L 225.950791 375.090746 
L 234.398016 374.645844 
L 242.84524 374.201257 
L 251.292465 373.756914 
L 259.73969 373.312833 
L 268.186915 372.869065 
L 276.63414 372.425365 
L 285.081364 371.981793 
L 293.528589 371.53847 
L 301.975814 371.095478 
L 310.423039 370.652786 
L 318.870263 370.210423 
L 327.317488 369.768379 
L 335.764713 369.326247 
L 344.211938 368.884409 
L 352.659162 368.442883 
L 361.106387 368.001723 
L 369.553612 367.560925 
L 378.000837 367.120327 
L 386.448062 366.679692 
L 394.895286 366.239455 
L 403.342511 365.799589 
L 411.789736 365.36012 
L 420.236961 364.920893 
L 428.684185 364.481611 
L 437.13141 364.042718 
L 445.578635 363.604147 
L 454.02586 363.166143 
L 462.473085 362.728109 
L 470.920309 362.290254 
L 479.367534 361.852842 
L 487.814759 361.415892 
L 496.261984 360.979148 
L 504.709208 360.54238 
L 513.156433 360.106097 
L 521.603658 359.67031 
L 530.050883 359.234761 
L 538.498107 358.799164 
L 546.945332 358.364096 
L 555.392557 357.92955 
L 563.839782 357.495093 
L 572.287007 357.06071 
L 580.734231 356.62693 
L 589.181456 356.193704 
L 597.628681 355.760163 
L 606.075906 355.327147 
L 614.52313 354.894717 
L 622.970355 354.462484 
L 631.41758 354.030286 
L 639.864805 353.598663 
L 648.31203 353.167686 
L 656.759254 352.736335 
L 665.206479 352.305611 
L 673.653704 351.875524 
L 682.100929 351.445274 
L 690.548153 351.015459 
L 698.995378 350.586328 
L 707.442603 350.157112 
L 715.889828 349.728264 
L 724.337052 349.300106 
L 732.784277 348.871945 
L 741.231502 348.444047 
L 749.678727 348.016931 
L 758.125952 347.589795 
L 766.573176 347.162941 
L 775.020401 346.736893 
L 783.467626 346.310657 
L 791.914851 345.884889 
L 800.362075 345.459997 
L 808.8093 345.034615 
L 817.256525 344.609972 
L 825.70375 344.186013 
L 834.150975 343.76171 
L 842.598199 343.338269 
L 851.045424 342.915076 
L 859.492649 342.492042 
L 867.939874 342.069888 
L 876.387098 341.647425 
L 884.834323 341.22562 
L 893.281548 340.804469 
" clip-path="url(#pcfb353a43d)" style="fill: none; stroke: #8c6d31; stroke-width: 2; stroke-linecap: round"/>
   </g>
   <g id="line2d_42">
    <path d="M 48.559071 461.612002 
L 57.006295 461.192985 
L 65.45352 460.773325 
L 73.900745 460.353096 
L 82.34797 459.932266 
L 90.795195 459.510833 
L 99.242419 459.088771 
L 107.689644 458.66617 
L 116.136869 458.242961 
L 124.584094 457.819159 
L 133.031318 457.394839 
L 141.478543 456.969926 
L 149.925768 456.544483 
L 158.372993 456.118508 
L 166.820217 455.692016 
L 175.267442 455.264973 
L 183.714667 454.837383 
L 192.161892 454.409264 
L 200.609117 453.98064 
L 209.056341 453.55155 
L 217.503566 453.121934 
L 225.950791 452.691794 
L 234.398016 452.261226 
L 242.84524 451.830167 
L 251.292465 451.398617 
L 259.73969 450.966668 
L 268.186915 450.53415 
L 276.63414 450.101268 
L 285.081364 449.667871 
L 293.528589 449.234067 
L 301.975814 448.799803 
L 310.423039 448.365158 
L 318.870263 447.930032 
L 327.317488 447.494591 
L 335.764713 447.058611 
L 344.211938 446.622321 
L 352.659162 446.18558 
L 361.106387 445.748442 
L 369.553612 445.311008 
L 378.000837 444.873085 
L 386.448062 444.434798 
L 394.895286 443.996224 
L 403.342511 443.557251 
L 411.789736 443.117865 
L 420.236961 442.67817 
L 428.684185 442.238175 
L 437.13141 441.797845 
L 445.578635 441.356998 
L 454.02586 440.915947 
L 462.473085 440.474574 
L 470.920309 440.032898 
L 479.367534 439.590918 
L 487.814759 439.148639 
L 496.261984 438.706059 
L 504.709208 438.263139 
L 513.156433 437.819924 
L 521.603658 437.376431 
L 530.050883 436.932667 
L 538.498107 436.488616 
L 546.945332 436.044332 
L 555.392557 435.599777 
L 563.839782 435.154959 
L 572.287007 434.709862 
L 580.734231 434.264572 
L 589.181456 433.819019 
L 597.628681 433.373126 
L 606.075906 432.927049 
L 614.52313 432.480753 
L 622.970355 432.034227 
L 631.41758 431.587518 
L 639.864805 431.140591 
L 648.31203 430.693521 
L 656.759254 430.246194 
L 665.206479 429.79859 
L 673.653704 429.350813 
L 682.100929 428.902914 
L 690.548153 428.454871 
L 698.995378 428.006559 
L 707.442603 427.558016 
L 715.889828 427.109404 
L 724.337052 426.660675 
L 732.784277 426.211646 
L 741.231502 425.762468 
L 749.678727 425.313267 
L 758.125952 424.863874 
L 766.573176 424.414238 
L 775.020401 423.964603 
L 783.467626 423.51477 
L 791.914851 423.064734 
L 800.362075 422.614776 
L 808.8093 422.164468 
L 817.256525 421.71412 
L 825.70375 421.26378 
L 834.150975 420.81313 
L 842.598199 420.362582 
L 851.045424 419.911714 
L 859.492649 419.460967 
L 867.939874 419.009993 
L 876.387098 418.558972 
L 884.834323 418.107859 
L 893.281548 417.656693 
" clip-path="url(#pcfb353a43d)" style="fill: none; stroke: #e7cb94; stroke-width: 2; stroke-linecap: round"/>
   </g>
   <g id="line2d_43">
    <path d="M 48.559071 490.417037 
L 57.006295 490.067608 
L 65.45352 489.716897 
L 73.900745 489.364951 
L 82.34797 489.011757 
L 90.795195 488.657331 
L 99.242419 488.301655 
L 107.689644 487.944777 
L 116.136869 487.586697 
L 124.584094 487.22739 
L 133.031318 486.866957 
L 141.478543 486.505301 
L 149.925768 486.142499 
L 158.372993 485.778551 
L 166.820217 485.413463 
L 175.267442 485.047211 
L 183.714667 484.67987 
L 192.161892 484.311397 
L 200.609117 483.941811 
L 209.056341 483.571125 
L 217.503566 483.199364 
L 225.950791 482.826529 
L 234.398016 482.452595 
L 242.84524 482.077663 
L 251.292465 481.701639 
L 259.73969 481.324582 
L 268.186915 480.946526 
L 276.63414 480.567403 
L 285.081364 480.187282 
L 293.528589 479.806146 
L 301.975814 479.424034 
L 310.423039 479.040932 
L 318.870263 478.656865 
L 327.317488 478.271833 
L 335.764713 477.885862 
L 344.211938 477.498894 
L 352.659162 477.110999 
L 361.106387 476.7222 
L 369.553612 476.332457 
L 378.000837 475.941806 
L 386.448062 475.550249 
L 394.895286 475.157801 
L 403.342511 474.764462 
L 411.789736 474.370275 
L 420.236961 473.975164 
L 428.684185 473.579224 
L 437.13141 473.182437 
L 445.578635 472.784741 
L 454.02586 472.386255 
L 462.473085 471.986937 
L 470.920309 471.586799 
L 479.367534 471.185846 
L 487.814759 470.784096 
L 496.261984 470.381545 
L 504.709208 469.978213 
L 513.156433 469.574113 
L 521.603658 469.16922 
L 530.050883 468.763551 
L 538.498107 468.357126 
L 546.945332 467.950004 
L 555.392557 467.542111 
L 563.839782 467.133461 
L 572.287007 466.724111 
L 580.734231 466.314021 
L 589.181456 465.903258 
L 597.628681 465.491726 
L 606.075906 465.079557 
L 614.52313 464.666671 
L 622.970355 464.253153 
L 631.41758 463.838893 
L 639.864805 463.424001 
L 648.31203 463.008495 
L 656.759254 462.592272 
L 665.206479 462.175434 
L 673.653704 461.757972 
L 682.100929 461.339896 
L 690.548153 460.921144 
L 698.995378 460.501791 
L 707.442603 460.081825 
L 715.889828 459.661294 
L 724.337052 459.240141 
L 732.784277 458.818414 
L 741.231502 458.396095 
L 749.678727 457.973223 
L 758.125952 457.549795 
L 766.573176 457.125785 
L 775.020401 456.701237 
L 783.467626 456.276149 
L 791.914851 455.850517 
L 800.362075 455.424395 
L 808.8093 454.997647 
L 817.256525 454.570395 
L 825.70375 454.142702 
L 834.150975 453.714508 
L 842.598199 453.285713 
L 851.045424 452.856476 
L 859.492649 452.42683 
L 867.939874 451.996623 
L 876.387098 451.565925 
L 884.834323 451.134854 
L 893.281548 450.703213 
" clip-path="url(#pcfb353a43d)" style="fill: none; stroke: #ad494a; stroke-width: 2; stroke-linecap: round"/>
   </g>
   <g id="line2d_44">
    <path d="M 48.559071 503.638424 
L 57.006295 503.351603 
L 65.45352 503.063026 
L 73.900745 502.772731 
L 82.34797 502.480711 
L 90.795195 502.186983 
L 99.242419 501.89154 
L 107.689644 501.594437 
L 116.136869 501.29565 
L 124.584094 500.995198 
L 133.031318 500.693118 
L 141.478543 500.389395 
L 149.925768 500.084053 
L 158.372993 499.777109 
L 166.820217 499.468573 
L 175.267442 499.158433 
L 183.714667 498.84674 
L 192.161892 498.533482 
L 200.609117 498.218662 
L 209.056341 497.902299 
L 217.503566 497.58444 
L 225.950791 497.265039 
L 234.398016 496.944137 
L 242.84524 496.621773 
L 251.292465 496.297925 
L 259.73969 495.972587 
L 268.186915 495.645815 
L 276.63414 495.31759 
L 285.081364 494.98793 
L 293.528589 494.656832 
L 301.975814 494.324351 
L 310.423039 493.990445 
L 318.870263 493.655169 
L 327.317488 493.318515 
L 335.764713 492.9805 
L 344.211938 492.641113 
L 352.659162 492.300386 
L 361.106387 491.958332 
L 369.553612 491.61496 
L 378.000837 491.270263 
L 386.448062 490.924266 
L 394.895286 490.576996 
L 403.342511 490.228428 
L 411.789736 489.878597 
L 420.236961 489.527507 
L 428.684185 489.175176 
L 437.13141 488.821603 
L 445.578635 488.466747 
L 454.02586 488.110726 
L 462.473085 487.753507 
L 470.920309 487.395065 
L 479.367534 487.03546 
L 487.814759 486.674651 
L 496.261984 486.31268 
L 504.709208 485.949561 
L 513.156433 485.585295 
L 521.603658 485.21989 
L 530.050883 484.853357 
L 538.498107 484.48569 
L 546.945332 484.11694 
L 555.392557 483.747095 
L 563.839782 483.376149 
L 572.287007 483.004087 
L 580.734231 482.63102 
L 589.181456 482.256843 
L 597.628681 481.881615 
L 606.075906 481.505354 
L 614.52313 481.128062 
L 622.970355 480.749748 
L 631.41758 480.370435 
L 639.864805 479.990101 
L 648.31203 479.608781 
L 656.759254 479.226472 
L 665.206479 478.843184 
L 673.653704 478.458904 
L 682.100929 478.073677 
L 690.548153 477.6875 
L 698.995378 477.300395 
L 707.442603 476.912337 
L 715.889828 476.523361 
L 724.337052 476.13348 
L 732.784277 475.742659 
L 741.231502 475.350971 
L 749.678727 474.958368 
L 758.125952 474.564933 
L 766.573176 474.170575 
L 775.020401 473.775361 
L 783.467626 473.379309 
L 791.914851 472.982403 
L 800.362075 472.584658 
L 808.8093 472.186051 
L 817.256525 471.786624 
L 825.70375 471.386418 
L 834.150975 470.98538 
L 842.598199 470.58353 
L 851.045424 470.180917 
L 859.492649 469.777544 
L 867.939874 469.373383 
L 876.387098 468.968395 
L 884.834323 468.562671 
L 893.281548 468.156238 
" clip-path="url(#pcfb353a43d)" style="fill: none; stroke: #e7969c; stroke-width: 2; stroke-linecap: round"/>
   </g>
   <g id="line2d_45">
    <path d="M 48.559071 510.511563 
L 57.006295 510.275637 
L 65.45352 510.037595 
L 73.900745 509.797472 
L 82.34797 509.555274 
L 90.795195 509.311014 
L 99.242419 509.064688 
L 107.689644 508.816348 
L 116.136869 508.565979 
L 124.584094 508.313598 
L 133.031318 508.059244 
L 141.478543 507.8029 
L 149.925768 507.544598 
L 158.372993 507.284351 
L 166.820217 507.022174 
L 175.267442 506.758054 
L 183.714667 506.492051 
L 192.161892 506.224142 
L 200.609117 505.954345 
L 209.056341 505.682678 
L 217.503566 505.409171 
L 225.950791 505.133817 
L 234.398016 504.856626 
L 242.84524 504.577641 
L 251.292465 504.296851 
L 259.73969 504.01426 
L 268.186915 503.729909 
L 276.63414 503.443789 
L 285.081364 503.155916 
L 293.528589 502.866301 
L 301.975814 502.57497 
L 310.423039 502.281925 
L 318.870263 501.987192 
L 327.317488 501.690764 
L 335.764713 501.392671 
L 344.211938 501.092908 
L 352.659162 500.791501 
L 361.106387 500.488455 
L 369.553612 500.18379 
L 378.000837 499.877513 
L 386.448062 499.569629 
L 394.895286 499.260167 
L 403.342511 498.949136 
L 411.789736 498.63653 
L 420.236961 498.322379 
L 428.684185 498.006694 
L 437.13141 497.689473 
L 445.578635 497.370692 
L 454.02586 497.050466 
L 462.473085 496.72873 
L 470.920309 496.405523 
L 479.367534 496.080832 
L 487.814759 495.754687 
L 496.261984 495.427096 
L 504.709208 495.098073 
L 513.156433 494.767614 
L 521.603658 494.435756 
L 530.050883 494.102492 
L 538.498107 493.767834 
L 546.945332 493.431813 
L 555.392557 493.094415 
L 563.839782 492.755657 
L 572.287007 492.415533 
L 580.734231 492.07409 
L 589.181456 491.731328 
L 597.628681 491.387223 
L 606.075906 491.041833 
L 614.52313 490.695152 
L 622.970355 490.347189 
L 631.41758 489.997961 
L 639.864805 489.647457 
L 648.31203 489.295717 
L 656.759254 488.942725 
L 665.206479 488.588501 
L 673.653704 488.233059 
L 682.100929 487.876417 
L 690.548153 487.518562 
L 698.995378 487.159526 
L 707.442603 486.799297 
L 715.889828 486.437912 
L 724.337052 486.075351 
L 732.784277 485.711653 
L 741.231502 485.346802 
L 749.678727 484.980837 
L 758.125952 484.613756 
L 766.573176 484.24555 
L 775.020401 483.876256 
L 783.467626 483.50587 
L 791.914851 483.134365 
L 800.362075 482.761848 
L 808.8093 482.388208 
L 817.256525 482.013549 
L 825.70375 481.637835 
L 834.150975 481.26108 
L 842.598199 480.883302 
L 851.045424 480.504514 
L 859.492649 480.124725 
L 867.939874 479.743929 
L 876.387098 479.362128 
L 884.834323 478.979356 
L 893.281548 478.595641 
" clip-path="url(#pcfb353a43d)" style="fill: none; stroke: #a55194; stroke-width: 2; stroke-linecap: round"/>
   </g>
   <g id="line2d_46">
    <path d="M 48.559071 514.393241 
L 57.006295 514.197998 
L 65.45352 514.000369 
L 73.900745 513.800387 
L 82.34797 513.598055 
L 90.795195 513.393391 
L 99.242419 513.186396 
L 107.689644 512.977117 
L 116.136869 512.765542 
L 124.584094 512.551692 
L 133.031318 512.335603 
L 141.478543 512.117262 
L 149.925768 511.896704 
L 158.372993 511.673939 
L 166.820217 511.448982 
L 175.267442 511.221832 
L 183.714667 510.992537 
L 192.161892 510.761082 
L 200.609117 510.527486 
L 209.056341 510.291768 
L 217.503566 510.053961 
L 225.950791 509.814053 
L 234.398016 509.572062 
L 242.84524 509.328027 
L 251.292465 509.08194 
L 259.73969 508.833811 
L 268.186915 508.583674 
L 276.63414 508.331522 
L 285.081364 508.077384 
L 293.528589 507.821258 
L 301.975814 507.56318 
L 310.423039 507.303148 
L 318.870263 507.041184 
L 327.317488 506.777301 
L 335.764713 506.511512 
L 344.211938 506.243816 
L 352.659162 505.974249 
L 361.106387 505.702812 
L 369.553612 505.429522 
L 378.000837 505.154394 
L 386.448062 504.877432 
L 394.895286 504.598662 
L 403.342511 504.318094 
L 411.789736 504.035734 
L 420.236961 503.7516 
L 428.684185 503.465714 
L 437.13141 503.178064 
L 445.578635 502.888647 
L 454.02586 502.597551 
L 462.473085 502.304735 
L 470.920309 502.010226 
L 479.367534 501.71402 
L 487.814759 501.416146 
L 496.261984 501.11661 
L 504.709208 500.81543 
L 513.156433 500.512605 
L 521.603658 500.208166 
L 530.050883 499.902119 
L 538.498107 499.594457 
L 546.945332 499.285225 
L 555.392557 498.974419 
L 563.839782 498.662039 
L 572.287007 498.348098 
L 580.734231 498.03264 
L 589.181456 497.715648 
L 597.628681 497.397107 
L 606.075906 497.077088 
L 614.52313 496.755584 
L 622.970355 496.432587 
L 631.41758 496.108125 
L 639.864805 495.782196 
L 648.31203 495.45484 
L 656.759254 495.126045 
L 665.206479 494.795823 
L 673.653704 494.464173 
L 682.100929 494.131142 
L 690.548153 493.796711 
L 698.995378 493.460896 
L 707.442603 493.123703 
L 715.889828 492.785178 
L 724.337052 492.445285 
L 732.784277 492.104073 
L 741.231502 491.761505 
L 749.678727 491.417655 
L 758.125952 491.072496 
L 766.573176 490.726046 
L 775.020401 490.378302 
L 783.467626 490.029288 
L 791.914851 489.679 
L 800.362075 489.327489 
L 808.8093 488.974717 
L 817.256525 488.620713 
L 825.70375 488.265499 
L 834.150975 487.909066 
L 842.598199 487.551419 
L 851.045424 487.192602 
L 859.492649 486.832611 
L 867.939874 486.471452 
L 876.387098 486.109116 
L 884.834323 485.745621 
L 893.281548 485.381012 
" clip-path="url(#pcfb353a43d)" style="fill: none; stroke: #de9ed6; stroke-width: 2; stroke-linecap: round"/>
   </g>
   <g id="patch_3">
    <path d="M 48.559071 521.153031 
L 48.559071 51.564121 
" style="fill: none"/>
   </g>
   <g id="patch_4">
    <path d="M 935.517672 521.153031 
L 935.517672 51.564121 
" style="fill: none"/>
   </g>
   <g id="patch_5">
    <path d="M 48.559071 521.153031 
L 935.517672 521.153031 
" style="fill: none"/>
   </g>
   <g id="patch_6">
    <path d="M 48.559071 51.564121 
L 935.517672 51.564121 
" style="fill: none"/>
   </g>
   <g id="patch_7">
    <path d="M 470.920309 80.081279 
Q 470.920309 286.689677 470.920309 491.621024 
" style="fill: none; stroke: #000000; stroke-width: 1.5; stroke-linecap: round"/>
    <path d="M 474.120309 485.221024 
L 470.920309 491.621024 
L 467.720309 485.221024 
" style="fill: none; stroke: #000000; stroke-width: 1.5; stroke-linecap: round"/>
   </g>
   <g id="text_20">
    <!-- Time -->
    <g style="fill: #262626" transform="translate(492.038371 491.80892) scale(0.18 -0.18)">
     <defs>
      <path id="CMR17-54" d="M 3981 4326 
L 288 4326 
L 179 2918 
L 294 2918 
C 378 3976 467 4160 1453 4160 
C 1568 4160 1754 4160 1805 4154 
C 1926 4135 1926 4058 1926 3912 
L 1926 459 
C 1926 230 1907 160 1376 160 
L 1197 160 
L 1197 0 
C 1504 0 1824 0 2138 0 
C 2451 0 2771 0 3078 0 
L 3078 160 
L 2899 160 
C 2368 160 2349 230 2349 459 
L 2349 3912 
C 2349 4052 2349 4129 2464 4154 
C 2515 4160 2701 4160 2816 4160 
C 3795 4160 3891 3976 3974 2918 
L 4090 2918 
L 3981 4326 
z
" transform="scale(0.015625)"/>
      <path id="CMR17-69" d="M 992 3909 
C 992 4049 877 4170 730 4170 
C 589 4170 467 4056 467 3909 
C 467 3769 582 3648 730 3648 
C 870 3648 992 3763 992 3909 
z
M 243 2706 
L 243 2541 
C 602 2541 653 2502 653 2197 
L 653 427 
C 653 184 627 153 218 153 
L 218 -13 
C 371 0 646 0 806 0 
C 960 0 1222 0 1370 -13 
L 1370 153 
C 992 153 979 191 979 420 
L 979 2776 
L 243 2706 
z
" transform="scale(0.015625)"/>
      <path id="CMR17-6d" d="M 4326 1933 
C 4326 2252 4269 2790 3507 2790 
C 3072 2790 2771 2496 2656 2151 
L 2650 2151 
C 2573 2676 2195 2790 1837 2790 
C 1331 2790 1069 2400 973 2144 
L 966 2144 
L 966 2790 
L 211 2720 
L 211 2554 
C 589 2554 646 2515 646 2208 
L 646 428 
C 646 184 621 153 211 153 
L 211 -13 
C 365 0 646 0 813 0 
C 979 0 1267 0 1421 -13 
L 1421 153 
C 1011 153 986 178 986 428 
L 986 1658 
C 986 2247 1344 2688 1792 2688 
C 2266 2688 2317 2266 2317 1958 
L 2317 428 
C 2317 184 2291 153 1882 153 
L 1882 -13 
C 2035 0 2317 0 2483 0 
C 2650 0 2938 0 3091 -13 
L 3091 153 
C 2682 153 2656 178 2656 428 
L 2656 1658 
C 2656 2247 3014 2688 3462 2688 
C 3936 2688 3987 2266 3987 1958 
L 3987 428 
C 3987 184 3962 153 3552 153 
L 3552 -13 
C 3706 0 3987 0 4154 0 
C 4320 0 4608 0 4762 -13 
L 4762 153 
C 4352 153 4326 178 4326 428 
L 4326 1933 
z
" transform="scale(0.015625)"/>
      <path id="CMR17-65" d="M 2438 1472 
C 2464 1498 2464 1511 2464 1576 
C 2464 2238 2118 2816 1389 2816 
C 710 2816 173 2169 173 1383 
C 173 551 781 -64 1459 -64 
C 2176 -64 2458 607 2458 740 
C 2458 784 2419 784 2406 784 
C 2362 784 2355 771 2330 696 
C 2189 265 1837 51 1504 51 
C 1229 51 954 203 781 480 
C 582 803 582 1176 582 1472 
L 2438 1472 
z
M 589 1568 
C 634 2505 1126 2714 1382 2714 
C 1818 2714 2112 2297 2118 1568 
L 589 1568 
z
" transform="scale(0.015625)"/>
     </defs>
     <use xlink:href="#CMR17-54" transform="scale(0.996264)"/>
     <use xlink:href="#CMR17-69" transform="translate(66.509881 0) scale(0.996264)"/>
     <use xlink:href="#CMR17-6d" transform="translate(91.380939 0) scale(0.996264)"/>
     <use xlink:href="#CMR17-65" transform="translate(168.300529 0) scale(0.996264)"/>
    </g>
   </g>
   <g id="legend_1">
    <g id="line2d_47">
     <path d="M 948.117672 197.198434 
L 962.117672 197.198434 
L 976.117672 197.198434 
" style="fill: none; stroke: #393b79; stroke-width: 2; stroke-linecap: round"/>
    </g>
    <g id="text_21">
     <!-- t = 0.00 -->
     <g style="fill: #262626" transform="translate(987.317672 202.098434) scale(0.14 -0.14)">
      <defs>
       <path id="CMR17-74" d="M 966 2560 
L 1862 2560 
L 1862 2725 
L 966 2725 
L 966 3904 
L 851 3904 
C 838 3245 614 2668 70 2668 
L 70 2560 
L 627 2560 
L 627 771 
C 627 650 627 -64 1370 -64 
C 1747 -64 1965 306 1965 777 
L 1965 1140 
L 1850 1140 
L 1850 783 
C 1850 344 1677 51 1408 51 
C 1222 51 966 178 966 758 
L 966 2560 
z
" transform="scale(0.015625)"/>
       <path id="CMR17-3d" d="M 4115 2017 
C 4211 2017 4307 2017 4307 2125 
C 4307 2240 4198 2240 4090 2240 
L 512 2240 
C 403 2240 294 2240 294 2125 
C 294 2017 390 2017 486 2017 
L 4115 2017 
z
M 4090 896 
C 4198 896 4307 896 4307 1011 
C 4307 1119 4211 1119 4115 1119 
L 486 1119 
C 390 1119 294 1119 294 1011 
C 294 896 403 896 512 896 
L 4090 896 
z
" transform="scale(0.015625)"/>
       <path id="CMR17-2e" d="M 1062 261 
C 1062 420 934 522 800 522 
C 672 522 538 420 538 261 
C 538 102 666 0 800 0 
C 928 0 1062 102 1062 261 
z
" transform="scale(0.015625)"/>
      </defs>
      <use xlink:href="#CMR17-74" transform="scale(0.996264)"/>
      <use xlink:href="#CMR17-3d" transform="translate(65.356734 0) scale(0.996264)"/>
      <use xlink:href="#CMR17-30" transform="translate(167.147489 0) scale(0.996264)"/>
      <use xlink:href="#CMR17-2e" transform="translate(212.837966 0) scale(0.996264)"/>
      <use xlink:href="#CMR17-30" transform="translate(237.709025 0) scale(0.996264)"/>
      <use xlink:href="#CMR17-30" transform="translate(283.399502 0) scale(0.996264)"/>
     </g>
    </g>
    <g id="line2d_48">
     <path d="M 948.117672 216.710462 
L 962.117672 216.710462 
L 976.117672 216.710462 
" style="fill: none; stroke: #6b6ecf; stroke-width: 2; stroke-linecap: round"/>
    </g>
    <g id="text_22">
     <!-- t = 10.00 -->
     <g style="fill: #262626" transform="translate(987.317672 221.610462) scale(0.14 -0.14)">
      <use xlink:href="#CMR17-74" transform="scale(0.996264)"/>
      <use xlink:href="#CMR17-3d" transform="translate(65.356734 0) scale(0.996264)"/>
      <use xlink:href="#CMR17-31" transform="translate(167.147489 0) scale(0.996264)"/>
      <use xlink:href="#CMR17-30" transform="translate(212.837966 0) scale(0.996264)"/>
      <use xlink:href="#CMR17-2e" transform="translate(258.528443 0) scale(0.996264)"/>
      <use xlink:href="#CMR17-30" transform="translate(283.399502 0) scale(0.996264)"/>
      <use xlink:href="#CMR17-30" transform="translate(329.089979 0) scale(0.996264)"/>
     </g>
    </g>
    <g id="line2d_49">
     <path d="M 948.117672 236.222491 
L 962.117672 236.222491 
L 976.117672 236.222491 
" style="fill: none; stroke: #637939; stroke-width: 2; stroke-linecap: round"/>
    </g>
    <g id="text_23">
     <!-- t = 50.00 -->
     <g style="fill: #262626" transform="translate(987.317672 241.122491) scale(0.14 -0.14)">
      <use xlink:href="#CMR17-74" transform="scale(0.996264)"/>
      <use xlink:href="#CMR17-3d" transform="translate(65.356734 0) scale(0.996264)"/>
      <use xlink:href="#CMR17-35" transform="translate(167.147489 0) scale(0.996264)"/>
      <use xlink:href="#CMR17-30" transform="translate(212.837966 0) scale(0.996264)"/>
      <use xlink:href="#CMR17-2e" transform="translate(258.528443 0) scale(0.996264)"/>
      <use xlink:href="#CMR17-30" transform="translate(283.399502 0) scale(0.996264)"/>
      <use xlink:href="#CMR17-30" transform="translate(329.089979 0) scale(0.996264)"/>
     </g>
    </g>
    <g id="line2d_50">
     <path d="M 948.117672 255.734519 
L 962.117672 255.734519 
L 976.117672 255.734519 
" style="fill: none; stroke: #b5cf6b; stroke-width: 2; stroke-linecap: round"/>
    </g>
    <g id="text_24">
     <!-- t = 100.00 -->
     <g style="fill: #262626" transform="translate(987.317672 260.634519) scale(0.14 -0.14)">
      <use xlink:href="#CMR17-74" transform="scale(0.996264)"/>
      <use xlink:href="#CMR17-3d" transform="translate(65.356734 0) scale(0.996264)"/>
      <use xlink:href="#CMR17-31" transform="translate(167.147489 0) scale(0.996264)"/>
      <use xlink:href="#CMR17-30" transform="translate(212.837966 0) scale(0.996264)"/>
      <use xlink:href="#CMR17-30" transform="translate(258.528443 0) scale(0.996264)"/>
      <use xlink:href="#CMR17-2e" transform="translate(304.21892 0) scale(0.996264)"/>
      <use xlink:href="#CMR17-30" transform="translate(329.089979 0) scale(0.996264)"/>
      <use xlink:href="#CMR17-30" transform="translate(374.780456 0) scale(0.996264)"/>
     </g>
    </g>
    <g id="line2d_51">
     <path d="M 948.117672 275.246547 
L 962.117672 275.246547 
L 976.117672 275.246547 
" style="fill: none; stroke: #8c6d31; stroke-width: 2; stroke-linecap: round"/>
    </g>
    <g id="text_25">
     <!-- t = 250.00 -->
     <g style="fill: #262626" transform="translate(987.317672 280.146547) scale(0.14 -0.14)">
      <use xlink:href="#CMR17-74" transform="scale(0.996264)"/>
      <use xlink:href="#CMR17-3d" transform="translate(65.356734 0) scale(0.996264)"/>
      <use xlink:href="#CMR17-32" transform="translate(167.147489 0) scale(0.996264)"/>
      <use xlink:href="#CMR17-35" transform="translate(212.837966 0) scale(0.996264)"/>
      <use xlink:href="#CMR17-30" transform="translate(258.528443 0) scale(0.996264)"/>
      <use xlink:href="#CMR17-2e" transform="translate(304.21892 0) scale(0.996264)"/>
      <use xlink:href="#CMR17-30" transform="translate(329.089979 0) scale(0.996264)"/>
      <use xlink:href="#CMR17-30" transform="translate(374.780456 0) scale(0.996264)"/>
     </g>
    </g>
    <g id="line2d_52">
     <path d="M 948.117672 294.758576 
L 962.117672 294.758576 
L 976.117672 294.758576 
" style="fill: none; stroke: #e7cb94; stroke-width: 2; stroke-linecap: round"/>
    </g>
    <g id="text_26">
     <!-- t = 500.00 -->
     <g style="fill: #262626" transform="translate(987.317672 299.658576) scale(0.14 -0.14)">
      <use xlink:href="#CMR17-74" transform="scale(0.996264)"/>
      <use xlink:href="#CMR17-3d" transform="translate(65.356734 0) scale(0.996264)"/>
      <use xlink:href="#CMR17-35" transform="translate(167.147489 0) scale(0.996264)"/>
      <use xlink:href="#CMR17-30" transform="translate(212.837966 0) scale(0.996264)"/>
      <use xlink:href="#CMR17-30" transform="translate(258.528443 0) scale(0.996264)"/>
      <use xlink:href="#CMR17-2e" transform="translate(304.21892 0) scale(0.996264)"/>
      <use xlink:href="#CMR17-30" transform="translate(329.089979 0) scale(0.996264)"/>
      <use xlink:href="#CMR17-30" transform="translate(374.780456 0) scale(0.996264)"/>
     </g>
    </g>
    <g id="line2d_53">
     <path d="M 948.117672 314.270604 
L 962.117672 314.270604 
L 976.117672 314.270604 
" style="fill: none; stroke: #ad494a; stroke-width: 2; stroke-linecap: round"/>
    </g>
    <g id="text_27">
     <!-- t = 750.00 -->
     <g style="fill: #262626" transform="translate(987.317672 319.170604) scale(0.14 -0.14)">
      <use xlink:href="#CMR17-74" transform="scale(0.996264)"/>
      <use xlink:href="#CMR17-3d" transform="translate(65.356734 0) scale(0.996264)"/>
      <use xlink:href="#CMR17-37" transform="translate(167.147489 0) scale(0.996264)"/>
      <use xlink:href="#CMR17-35" transform="translate(212.837966 0) scale(0.996264)"/>
      <use xlink:href="#CMR17-30" transform="translate(258.528443 0) scale(0.996264)"/>
      <use xlink:href="#CMR17-2e" transform="translate(304.21892 0) scale(0.996264)"/>
      <use xlink:href="#CMR17-30" transform="translate(329.089979 0) scale(0.996264)"/>
      <use xlink:href="#CMR17-30" transform="translate(374.780456 0) scale(0.996264)"/>
     </g>
    </g>
    <g id="line2d_54">
     <path d="M 948.117672 333.782633 
L 962.117672 333.782633 
L 976.117672 333.782633 
" style="fill: none; stroke: #e7969c; stroke-width: 2; stroke-linecap: round"/>
    </g>
    <g id="text_28">
     <!-- t = 1000.00 -->
     <g style="fill: #262626" transform="translate(987.317672 338.682633) scale(0.14 -0.14)">
      <use xlink:href="#CMR17-74" transform="scale(0.996264)"/>
      <use xlink:href="#CMR17-3d" transform="translate(65.356734 0) scale(0.996264)"/>
      <use xlink:href="#CMR17-31" transform="translate(167.147489 0) scale(0.996264)"/>
      <use xlink:href="#CMR17-30" transform="translate(212.837966 0) scale(0.996264)"/>
      <use xlink:href="#CMR17-30" transform="translate(258.528443 0) scale(0.996264)"/>
      <use xlink:href="#CMR17-30" transform="translate(304.21892 0) scale(0.996264)"/>
      <use xlink:href="#CMR17-2e" transform="translate(349.909397 0) scale(0.996264)"/>
      <use xlink:href="#CMR17-30" transform="translate(374.780456 0) scale(0.996264)"/>
      <use xlink:href="#CMR17-30" transform="translate(420.470933 0) scale(0.996264)"/>
     </g>
    </g>
    <g id="line2d_55">
     <path d="M 948.117672 353.294661 
L 962.117672 353.294661 
L 976.117672 353.294661 
" style="fill: none; stroke: #a55194; stroke-width: 2; stroke-linecap: round"/>
    </g>
    <g id="text_29">
     <!-- t = 1250.00 -->
     <g style="fill: #262626" transform="translate(987.317672 358.194661) scale(0.14 -0.14)">
      <use xlink:href="#CMR17-74" transform="scale(0.996264)"/>
      <use xlink:href="#CMR17-3d" transform="translate(65.356734 0) scale(0.996264)"/>
      <use xlink:href="#CMR17-31" transform="translate(167.147489 0) scale(0.996264)"/>
      <use xlink:href="#CMR17-32" transform="translate(212.837966 0) scale(0.996264)"/>
      <use xlink:href="#CMR17-35" transform="translate(258.528443 0) scale(0.996264)"/>
      <use xlink:href="#CMR17-30" transform="translate(304.21892 0) scale(0.996264)"/>
      <use xlink:href="#CMR17-2e" transform="translate(349.909397 0) scale(0.996264)"/>
      <use xlink:href="#CMR17-30" transform="translate(374.780456 0) scale(0.996264)"/>
      <use xlink:href="#CMR17-30" transform="translate(420.470933 0) scale(0.996264)"/>
     </g>
    </g>
    <g id="line2d_56">
     <path d="M 948.117672 372.806689 
L 962.117672 372.806689 
L 976.117672 372.806689 
" style="fill: none; stroke: #de9ed6; stroke-width: 2; stroke-linecap: round"/>
    </g>
    <g id="text_30">
     <!-- t = 1500.00 -->
     <g style="fill: #262626" transform="translate(987.317672 377.706689) scale(0.14 -0.14)">
      <use xlink:href="#CMR17-74" transform="scale(0.996264)"/>
      <use xlink:href="#CMR17-3d" transform="translate(65.356734 0) scale(0.996264)"/>
      <use xlink:href="#CMR17-31" transform="translate(167.147489 0) scale(0.996264)"/>
      <use xlink:href="#CMR17-35" transform="translate(212.837966 0) scale(0.996264)"/>
      <use xlink:href="#CMR17-30" transform="translate(258.528443 0) scale(0.996264)"/>
      <use xlink:href="#CMR17-30" transform="translate(304.21892 0) scale(0.996264)"/>
      <use xlink:href="#CMR17-2e" transform="translate(349.909397 0) scale(0.996264)"/>
      <use xlink:href="#CMR17-30" transform="translate(374.780456 0) scale(0.996264)"/>
      <use xlink:href="#CMR17-30" transform="translate(420.470933 0) scale(0.996264)"/>
     </g>
    </g>
   </g>
  </g>
  <g id="text_31">
   <!-- permeability -->
   <g style="fill: #262626" transform="translate(492.111452 24.803515) scale(0.192 -0.192)">
    <defs>
     <path id="CMR17-70" d="M 1408 -1063 
C 998 -1063 973 -1037 973 -789 
L 973 402 
C 1158 134 1427 -38 1766 -38 
C 2406 -38 3053 523 3053 1388 
C 3053 2191 2496 2802 1837 2802 
C 1453 2802 1139 2592 960 2338 
L 960 2802 
L 198 2732 
L 198 2567 
C 576 2567 634 2528 634 2223 
L 634 -789 
C 634 -1031 608 -1063 198 -1063 
L 198 -1228 
C 352 -1216 634 -1216 800 -1216 
C 966 -1216 1254 -1216 1408 -1228 
L 1408 -1063 
z
M 973 2012 
C 973 2102 973 2235 1222 2471 
C 1254 2497 1472 2688 1792 2688 
C 2259 2688 2643 2108 2643 1382 
C 2643 656 2234 64 1728 64 
C 1498 64 1248 172 1056 472 
C 973 612 973 650 973 752 
L 973 2012 
z
" transform="scale(0.015625)"/>
     <path id="CMR17-72" d="M 960 1497 
C 960 2112 1222 2688 1702 2688 
C 1747 2688 1792 2682 1837 2662 
C 1837 2662 1696 2617 1696 2452 
C 1696 2298 1818 2234 1914 2234 
C 1990 2234 2131 2279 2131 2458 
C 2131 2663 1926 2790 1709 2790 
C 1222 2790 1011 2317 947 2093 
L 941 2093 
L 941 2790 
L 198 2720 
L 198 2554 
C 576 2554 634 2515 634 2208 
L 634 428 
C 634 184 608 153 198 153 
L 198 -13 
C 352 0 646 0 813 0 
C 998 0 1325 0 1498 -13 
L 1498 153 
C 1037 153 960 153 960 440 
L 960 1497 
z
" transform="scale(0.015625)"/>
     <path id="CMR17-61" d="M 2304 1653 
C 2304 2072 2304 2294 2035 2543 
C 1798 2752 1523 2816 1306 2816 
C 800 2816 435 2407 435 1971 
C 435 1728 627 1728 666 1728 
C 749 1728 896 1778 896 1954 
C 896 2112 774 2181 666 2181 
C 640 2181 608 2174 589 2168 
C 723 2592 1069 2714 1293 2714 
C 1613 2714 1965 2429 1965 1885 
L 1965 1600 
C 1587 1600 1133 1549 774 1357 
C 371 1133 256 813 256 570 
C 256 77 832 -64 1171 -64 
C 1523 -64 1850 139 1990 511 
C 2003 233 2182 -18 2464 -18 
C 2598 -18 2938 70 2938 567 
L 2938 920 
L 2822 920 
L 2822 562 
C 2822 178 2650 128 2566 128 
C 2304 128 2304 458 2304 738 
L 2304 1653 
z
M 1965 870 
C 1965 317 1568 38 1216 38 
C 896 38 646 275 646 570 
C 646 761 730 1100 1101 1305 
C 1408 1478 1760 1504 1965 1504 
L 1965 870 
z
" transform="scale(0.015625)"/>
     <path id="CMR17-62" d="M 960 4396 
L 198 4326 
L 198 4160 
C 576 4160 634 4122 634 3817 
L 634 -13 
L 749 -13 
L 934 441 
C 1120 141 1395 -64 1766 -64 
C 2406 -64 3053 500 3053 1370 
C 3053 2188 2477 2790 1830 2790 
C 1434 2790 1152 2579 960 2330 
L 960 4396 
z
M 973 2004 
C 973 2118 973 2138 1062 2272 
C 1312 2657 1670 2688 1792 2688 
C 1984 2688 2643 2585 2643 1376 
C 2643 108 1888 38 1734 38 
C 1536 38 1248 114 1043 486 
C 973 608 973 621 973 735 
L 973 2004 
z
" transform="scale(0.015625)"/>
     <path id="CMR17-6c" d="M 979 4396 
L 218 4326 
L 218 4160 
C 595 4160 653 4122 653 3817 
L 653 426 
C 653 184 627 153 218 153 
L 218 -13 
C 371 0 653 0 813 0 
C 979 0 1261 0 1414 -13 
L 1414 153 
C 1005 153 979 178 979 426 
L 979 4396 
z
" transform="scale(0.015625)"/>
     <path id="CMR17-79" d="M 2496 2197 
C 2656 2586 2944 2586 3034 2586 
L 3034 2752 
C 2912 2752 2752 2752 2630 2752 
C 2496 2752 2285 2752 2157 2758 
L 2157 2592 
C 2400 2573 2406 2394 2406 2343 
C 2406 2280 2394 2248 2362 2171 
L 1664 449 
L 902 2306 
C 870 2382 870 2426 870 2433 
C 870 2573 1018 2586 1171 2586 
L 1171 2758 
C 1018 2752 742 2752 582 2752 
C 410 2752 205 2752 64 2758 
L 64 2586 
C 410 2586 448 2554 531 2350 
L 1485 15 
C 1197 -738 1030 -1178 627 -1178 
C 557 -1178 397 -1159 282 -1044 
C 429 -1031 493 -942 493 -833 
C 493 -725 416 -629 288 -629 
C 147 -629 77 -725 77 -840 
C 77 -1095 339 -1280 627 -1280 
C 998 -1280 1229 -922 1357 -604 
L 2496 2197 
z
" transform="scale(0.015625)"/>
    </defs>
    <use xlink:href="#CMR17-70" transform="scale(0.996264)"/>
    <use xlink:href="#CMR17-65" transform="translate(53.497809 0) scale(0.996264)"/>
    <use xlink:href="#CMR17-72" transform="translate(93.983469 0) scale(0.996264)"/>
    <use xlink:href="#CMR17-6d" transform="translate(129.264237 0) scale(0.996264)"/>
    <use xlink:href="#CMR17-65" transform="translate(206.183827 0) scale(0.996264)"/>
    <use xlink:href="#CMR17-61" transform="translate(246.669487 0) scale(0.996264)"/>
    <use xlink:href="#CMR17-62" transform="translate(292.359964 0) scale(0.996264)"/>
    <use xlink:href="#CMR17-69" transform="translate(343.255334 0) scale(0.996264)"/>
    <use xlink:href="#CMR17-6c" transform="translate(368.126392 0) scale(0.996264)"/>
    <use xlink:href="#CMR17-69" transform="translate(392.997451 0) scale(0.996264)"/>
    <use xlink:href="#CMR17-74" transform="translate(417.868509 0) scale(0.996264)"/>
    <use xlink:href="#CMR17-79" transform="translate(450.546823 0) scale(0.996264)"/>
   </g>
  </g>
 </g>
 <defs>
  <clipPath id="pcfb353a43d">
   <rect x="48.559071" y="51.564121" width="886.958601" height="469.58891"/>
  </clipPath>
 </defs>
</svg>
