<?xml version="1.0" encoding="utf-8" standalone="no"?>
<!DOCTYPE svg PUBLIC "-//W3C//DTD SVG 1.1//EN"
  "http://www.w3.org/Graphics/SVG/1.1/DTD/svg11.dtd">
<svg xmlns:xlink="http://www.w3.org/1999/xlink" width="1080pt" height="576pt" viewBox="0 0 1080 576" xmlns="http://www.w3.org/2000/svg" version="1.1">
 <metadata>
  <rdf:RDF xmlns:dc="http://purl.org/dc/elements/1.1/" xmlns:cc="http://creativecommons.org/ns#" xmlns:rdf="http://www.w3.org/1999/02/22-rdf-syntax-ns#">
   <cc:Work>
    <dc:type rdf:resource="http://purl.org/dc/dcmitype/StillImage"/>
    <dc:date>2024-06-28T11:53:17.583616</dc:date>
    <dc:format>image/svg+xml</dc:format>
    <dc:creator>
     <cc:Agent>
      <dc:title>Matplotlib v3.9.0, https://matplotlib.org/</dc:title>
     </cc:Agent>
    </dc:creator>
   </cc:Work>
  </rdf:RDF>
 </metadata>
 <defs>
  <style type="text/css">*{stroke-linejoin: round; stroke-linecap: butt}</style>
 </defs>
 <g id="figure_1">
  <g id="patch_1">
   <path d="M 0 576 
L 1080 576 
L 1080 0 
L 0 0 
z
" style="fill: #ffffff"/>
  </g>
  <g id="axes_1">
   <g id="patch_2">
    <path d="M 48.559071 521.153031 
L 935.517672 521.153031 
L 935.517672 51.564121 
L 48.559071 51.564121 
z
" style="fill: #eaeaf2"/>
   </g>
   <g id="matplotlib.axis_1">
    <g id="xtick_1">
     <g id="line2d_1">
      <path d="M 48.559071 521.153031 
L 48.559071 51.564121 
" clip-path="url(#p799496d5ff)" style="fill: none; stroke: #ffffff; stroke-linecap: round"/>
     </g>
     <g id="line2d_2"/>
     <g id="text_1">
      <!-- $\mathdefault{0.00}$ -->
      <g style="fill: #262626" transform="translate(36.419535 537.838907) scale(0.14 -0.14)">
       <defs>
        <path id="CMR17-30" d="M 2688 2025 
C 2688 2416 2682 3080 2413 3591 
C 2176 4039 1798 4198 1466 4198 
C 1158 4198 768 4058 525 3597 
C 269 3118 243 2524 243 2025 
C 243 1661 250 1106 448 619 
C 723 -39 1216 -128 1466 -128 
C 1760 -128 2208 -7 2470 600 
C 2662 1042 2688 1559 2688 2025 
z
M 1466 -26 
C 1056 -26 813 325 723 812 
C 653 1188 653 1738 653 2096 
C 653 2588 653 2997 736 3387 
C 858 3929 1216 4096 1466 4096 
C 1728 4096 2067 3923 2189 3400 
C 2272 3036 2278 2607 2278 2096 
C 2278 1680 2278 1169 2202 792 
C 2067 95 1690 -26 1466 -26 
z
" transform="scale(0.015625)"/>
        <path id="CMMI12-3a" d="M 1178 307 
C 1178 492 1024 619 870 619 
C 685 619 557 466 557 313 
C 557 128 710 0 864 0 
C 1050 0 1178 153 1178 307 
z
" transform="scale(0.015625)"/>
       </defs>
       <use xlink:href="#CMR17-30" transform="scale(0.996264)"/>
       <use xlink:href="#CMMI12-3a" transform="translate(45.690477 0) scale(0.996264)"/>
       <use xlink:href="#CMR17-30" transform="translate(72.787654 0) scale(0.996264)"/>
       <use xlink:href="#CMR17-30" transform="translate(118.478131 0) scale(0.996264)"/>
      </g>
     </g>
    </g>
    <g id="xtick_2">
     <g id="line2d_3">
      <path d="M 154.14938 521.153031 
L 154.14938 51.564121 
" clip-path="url(#p799496d5ff)" style="fill: none; stroke: #ffffff; stroke-linecap: round"/>
     </g>
     <g id="line2d_4"/>
     <g id="text_2">
      <!-- $\mathdefault{0.25}$ -->
      <g style="fill: #262626" transform="translate(142.009845 537.838907) scale(0.14 -0.14)">
       <defs>
        <path id="CMR17-32" d="M 2669 989 
L 2554 989 
C 2490 536 2438 459 2413 420 
C 2381 369 1920 369 1830 369 
L 602 369 
C 832 619 1280 1072 1824 1597 
C 2214 1967 2669 2402 2669 3035 
C 2669 3790 2067 4224 1395 4224 
C 691 4224 262 3604 262 3030 
C 262 2780 448 2748 525 2748 
C 589 2748 781 2787 781 3010 
C 781 3207 614 3264 525 3264 
C 486 3264 448 3258 422 3245 
C 544 3790 915 4058 1306 4058 
C 1862 4058 2227 3617 2227 3035 
C 2227 2479 1901 2000 1536 1584 
L 262 146 
L 262 0 
L 2515 0 
L 2669 989 
z
" transform="scale(0.015625)"/>
        <path id="CMR17-35" d="M 730 3692 
C 794 3666 1056 3584 1325 3584 
C 1920 3584 2246 3911 2432 4100 
C 2432 4157 2432 4192 2394 4192 
C 2387 4192 2374 4192 2323 4163 
C 2099 4058 1837 3973 1517 3973 
C 1325 3973 1037 3999 723 4139 
C 653 4171 640 4171 634 4171 
C 602 4171 595 4164 595 4037 
L 595 2203 
C 595 2089 595 2057 659 2057 
C 691 2057 704 2070 736 2114 
C 941 2401 1222 2522 1542 2522 
C 1766 2522 2246 2382 2246 1289 
C 2246 1085 2246 715 2054 421 
C 1894 159 1645 25 1370 25 
C 947 25 518 320 403 814 
C 429 807 480 795 506 795 
C 589 795 749 840 749 1038 
C 749 1210 627 1280 506 1280 
C 358 1280 262 1190 262 1011 
C 262 454 704 -128 1382 -128 
C 2042 -128 2669 440 2669 1264 
C 2669 2030 2170 2624 1549 2624 
C 1222 2624 947 2503 730 2274 
L 730 3692 
z
" transform="scale(0.015625)"/>
       </defs>
       <use xlink:href="#CMR17-30" transform="scale(0.996264)"/>
       <use xlink:href="#CMMI12-3a" transform="translate(45.690477 0) scale(0.996264)"/>
       <use xlink:href="#CMR17-32" transform="translate(72.787654 0) scale(0.996264)"/>
       <use xlink:href="#CMR17-35" transform="translate(118.478131 0) scale(0.996264)"/>
      </g>
     </g>
    </g>
    <g id="xtick_3">
     <g id="line2d_5">
      <path d="M 259.73969 521.153031 
L 259.73969 51.564121 
" clip-path="url(#p799496d5ff)" style="fill: none; stroke: #ffffff; stroke-linecap: round"/>
     </g>
     <g id="line2d_6"/>
     <g id="text_3">
      <!-- $\mathdefault{0.50}$ -->
      <g style="fill: #262626" transform="translate(247.600155 537.838907) scale(0.14 -0.14)">
       <use xlink:href="#CMR17-30" transform="scale(0.996264)"/>
       <use xlink:href="#CMMI12-3a" transform="translate(45.690477 0) scale(0.996264)"/>
       <use xlink:href="#CMR17-35" transform="translate(72.787654 0) scale(0.996264)"/>
       <use xlink:href="#CMR17-30" transform="translate(118.478131 0) scale(0.996264)"/>
      </g>
     </g>
    </g>
    <g id="xtick_4">
     <g id="line2d_7">
      <path d="M 365.33 521.153031 
L 365.33 51.564121 
" clip-path="url(#p799496d5ff)" style="fill: none; stroke: #ffffff; stroke-linecap: round"/>
     </g>
     <g id="line2d_8"/>
     <g id="text_4">
      <!-- $\mathdefault{0.75}$ -->
      <g style="fill: #262626" transform="translate(353.190464 537.838907) scale(0.14 -0.14)">
       <defs>
        <path id="CMR17-37" d="M 2886 3941 
L 2886 4081 
L 1382 4081 
C 634 4081 621 4165 595 4288 
L 480 4288 
L 294 3094 
L 410 3094 
C 429 3215 474 3540 550 3661 
C 589 3712 1062 3712 1171 3712 
L 2579 3712 
L 1869 2661 
C 1395 1954 1069 999 1069 165 
C 1069 89 1069 -128 1299 -128 
C 1530 -128 1530 89 1530 171 
L 1530 465 
C 1530 1508 1709 2196 2003 2636 
L 2886 3941 
z
" transform="scale(0.015625)"/>
       </defs>
       <use xlink:href="#CMR17-30" transform="scale(0.996264)"/>
       <use xlink:href="#CMMI12-3a" transform="translate(45.690477 0) scale(0.996264)"/>
       <use xlink:href="#CMR17-37" transform="translate(72.787654 0) scale(0.996264)"/>
       <use xlink:href="#CMR17-35" transform="translate(118.478131 0) scale(0.996264)"/>
      </g>
     </g>
    </g>
    <g id="xtick_5">
     <g id="line2d_9">
      <path d="M 470.920309 521.153031 
L 470.920309 51.564121 
" clip-path="url(#p799496d5ff)" style="fill: none; stroke: #ffffff; stroke-linecap: round"/>
     </g>
     <g id="line2d_10"/>
     <g id="text_5">
      <!-- $\mathdefault{1.00}$ -->
      <g style="fill: #262626" transform="translate(458.780774 537.838907) scale(0.14 -0.14)">
       <defs>
        <path id="CMR17-31" d="M 1702 4058 
C 1702 4192 1696 4192 1606 4192 
C 1357 3916 979 3827 621 3827 
C 602 3827 570 3827 563 3808 
C 557 3795 557 3782 557 3648 
C 755 3648 1088 3686 1344 3839 
L 1344 461 
C 1344 236 1331 160 781 160 
L 589 160 
L 589 0 
C 896 0 1216 0 1523 0 
C 1830 0 2150 0 2458 0 
L 2458 160 
L 2266 160 
C 1715 160 1702 230 1702 458 
L 1702 4058 
z
" transform="scale(0.015625)"/>
       </defs>
       <use xlink:href="#CMR17-31" transform="scale(0.996264)"/>
       <use xlink:href="#CMMI12-3a" transform="translate(45.690477 0) scale(0.996264)"/>
       <use xlink:href="#CMR17-30" transform="translate(72.787654 0) scale(0.996264)"/>
       <use xlink:href="#CMR17-30" transform="translate(118.478131 0) scale(0.996264)"/>
      </g>
     </g>
    </g>
    <g id="xtick_6">
     <g id="line2d_11">
      <path d="M 576.510619 521.153031 
L 576.510619 51.564121 
" clip-path="url(#p799496d5ff)" style="fill: none; stroke: #ffffff; stroke-linecap: round"/>
     </g>
     <g id="line2d_12"/>
     <g id="text_6">
      <!-- $\mathdefault{1.25}$ -->
      <g style="fill: #262626" transform="translate(564.371084 537.838907) scale(0.14 -0.14)">
       <use xlink:href="#CMR17-31" transform="scale(0.996264)"/>
       <use xlink:href="#CMMI12-3a" transform="translate(45.690477 0) scale(0.996264)"/>
       <use xlink:href="#CMR17-32" transform="translate(72.787654 0) scale(0.996264)"/>
       <use xlink:href="#CMR17-35" transform="translate(118.478131 0) scale(0.996264)"/>
      </g>
     </g>
    </g>
    <g id="xtick_7">
     <g id="line2d_13">
      <path d="M 682.100929 521.153031 
L 682.100929 51.564121 
" clip-path="url(#p799496d5ff)" style="fill: none; stroke: #ffffff; stroke-linecap: round"/>
     </g>
     <g id="line2d_14"/>
     <g id="text_7">
      <!-- $\mathdefault{1.50}$ -->
      <g style="fill: #262626" transform="translate(669.961393 537.838907) scale(0.14 -0.14)">
       <use xlink:href="#CMR17-31" transform="scale(0.996264)"/>
       <use xlink:href="#CMMI12-3a" transform="translate(45.690477 0) scale(0.996264)"/>
       <use xlink:href="#CMR17-35" transform="translate(72.787654 0) scale(0.996264)"/>
       <use xlink:href="#CMR17-30" transform="translate(118.478131 0) scale(0.996264)"/>
      </g>
     </g>
    </g>
    <g id="xtick_8">
     <g id="line2d_15">
      <path d="M 787.691238 521.153031 
L 787.691238 51.564121 
" clip-path="url(#p799496d5ff)" style="fill: none; stroke: #ffffff; stroke-linecap: round"/>
     </g>
     <g id="line2d_16"/>
     <g id="text_8">
      <!-- $\mathdefault{1.75}$ -->
      <g style="fill: #262626" transform="translate(775.551703 537.838907) scale(0.14 -0.14)">
       <use xlink:href="#CMR17-31" transform="scale(0.996264)"/>
       <use xlink:href="#CMMI12-3a" transform="translate(45.690477 0) scale(0.996264)"/>
       <use xlink:href="#CMR17-37" transform="translate(72.787654 0) scale(0.996264)"/>
       <use xlink:href="#CMR17-35" transform="translate(118.478131 0) scale(0.996264)"/>
      </g>
     </g>
    </g>
    <g id="xtick_9">
     <g id="line2d_17">
      <path d="M 893.281548 521.153031 
L 893.281548 51.564121 
" clip-path="url(#p799496d5ff)" style="fill: none; stroke: #ffffff; stroke-linecap: round"/>
     </g>
     <g id="line2d_18"/>
     <g id="text_9">
      <!-- $\mathdefault{2.00}$ -->
      <g style="fill: #262626" transform="translate(881.142013 537.838907) scale(0.14 -0.14)">
       <use xlink:href="#CMR17-32" transform="scale(0.996264)"/>
       <use xlink:href="#CMMI12-3a" transform="translate(45.690477 0) scale(0.996264)"/>
       <use xlink:href="#CMR17-30" transform="translate(72.787654 0) scale(0.996264)"/>
       <use xlink:href="#CMR17-30" transform="translate(118.478131 0) scale(0.996264)"/>
      </g>
     </g>
    </g>
    <g id="text_10">
     <!-- $x$ -->
     <g style="fill: #262626" transform="translate(487.603646 555.620524) scale(0.16 -0.16)">
      <defs>
       <path id="CMMI12-78" d="M 3034 2606 
C 2829 2567 2752 2414 2752 2293 
C 2752 2139 2874 2088 2963 2088 
C 3155 2088 3290 2254 3290 2427 
C 3290 2695 2982 2816 2714 2816 
C 2323 2816 2106 2433 2048 2312 
C 1901 2816 1504 2816 1389 2816 
C 736 2816 390 1980 390 1839 
C 390 1814 416 1782 461 1782 
C 512 1782 525 1820 538 1846 
C 755 2555 1184 2689 1370 2689 
C 1658 2689 1715 2420 1715 2267 
C 1715 2127 1677 1980 1600 1673 
L 1382 798 
C 1286 415 1101 64 762 64 
C 730 64 570 64 435 147 
C 666 192 717 383 717 460 
C 717 588 621 664 499 664 
C 346 664 179 530 179 326 
C 179 57 480 -64 755 -64 
C 1062 -64 1280 179 1414 441 
C 1517 64 1837 -64 2074 -64 
C 2726 -64 3072 773 3072 913 
C 3072 945 3046 971 3008 971 
C 2950 971 2944 939 2925 888 
C 2752 326 2381 64 2093 64 
C 1869 64 1747 230 1747 492 
C 1747 632 1773 734 1875 1156 
L 2099 2024 
C 2195 2408 2413 2689 2707 2689 
C 2720 2689 2899 2689 3034 2606 
z
" transform="scale(0.015625)"/>
      </defs>
      <use xlink:href="#CMMI12-78" transform="scale(0.996264)"/>
     </g>
    </g>
   </g>
   <g id="matplotlib.axis_2">
    <g id="ytick_1">
     <g id="line2d_19">
      <path d="M 48.559071 521.153031 
L 935.517672 521.153031 
" clip-path="url(#p799496d5ff)" style="fill: none; stroke: #ffffff; stroke-linecap: round"/>
     </g>
     <g id="line2d_20"/>
     <g id="text_11">
      <!-- $\mathdefault{0.00}$ -->
      <g style="fill: #262626" transform="translate(17.28 525.995969) scale(0.14 -0.14)">
       <use xlink:href="#CMR17-30" transform="scale(0.996264)"/>
       <use xlink:href="#CMMI12-3a" transform="translate(45.690477 0) scale(0.996264)"/>
       <use xlink:href="#CMR17-30" transform="translate(72.787654 0) scale(0.996264)"/>
       <use xlink:href="#CMR17-30" transform="translate(118.478131 0) scale(0.996264)"/>
      </g>
     </g>
    </g>
    <g id="ytick_2">
     <g id="line2d_21">
      <path d="M 48.559071 464.421307 
L 935.517672 464.421307 
" clip-path="url(#p799496d5ff)" style="fill: none; stroke: #ffffff; stroke-linecap: round"/>
     </g>
     <g id="line2d_22"/>
     <g id="text_12">
      <!-- $\mathdefault{0.25}$ -->
      <g style="fill: #262626" transform="translate(17.28 469.264245) scale(0.14 -0.14)">
       <use xlink:href="#CMR17-30" transform="scale(0.996264)"/>
       <use xlink:href="#CMMI12-3a" transform="translate(45.690477 0) scale(0.996264)"/>
       <use xlink:href="#CMR17-32" transform="translate(72.787654 0) scale(0.996264)"/>
       <use xlink:href="#CMR17-35" transform="translate(118.478131 0) scale(0.996264)"/>
      </g>
     </g>
    </g>
    <g id="ytick_3">
     <g id="line2d_23">
      <path d="M 48.559071 407.689584 
L 935.517672 407.689584 
" clip-path="url(#p799496d5ff)" style="fill: none; stroke: #ffffff; stroke-linecap: round"/>
     </g>
     <g id="line2d_24"/>
     <g id="text_13">
      <!-- $\mathdefault{0.50}$ -->
      <g style="fill: #262626" transform="translate(17.28 412.532522) scale(0.14 -0.14)">
       <use xlink:href="#CMR17-30" transform="scale(0.996264)"/>
       <use xlink:href="#CMMI12-3a" transform="translate(45.690477 0) scale(0.996264)"/>
       <use xlink:href="#CMR17-35" transform="translate(72.787654 0) scale(0.996264)"/>
       <use xlink:href="#CMR17-30" transform="translate(118.478131 0) scale(0.996264)"/>
      </g>
     </g>
    </g>
    <g id="ytick_4">
     <g id="line2d_25">
      <path d="M 48.559071 350.95786 
L 935.517672 350.95786 
" clip-path="url(#p799496d5ff)" style="fill: none; stroke: #ffffff; stroke-linecap: round"/>
     </g>
     <g id="line2d_26"/>
     <g id="text_14">
      <!-- $\mathdefault{0.75}$ -->
      <g style="fill: #262626" transform="translate(17.28 355.800798) scale(0.14 -0.14)">
       <use xlink:href="#CMR17-30" transform="scale(0.996264)"/>
       <use xlink:href="#CMMI12-3a" transform="translate(45.690477 0) scale(0.996264)"/>
       <use xlink:href="#CMR17-37" transform="translate(72.787654 0) scale(0.996264)"/>
       <use xlink:href="#CMR17-35" transform="translate(118.478131 0) scale(0.996264)"/>
      </g>
     </g>
    </g>
    <g id="ytick_5">
     <g id="line2d_27">
      <path d="M 48.559071 294.226137 
L 935.517672 294.226137 
" clip-path="url(#p799496d5ff)" style="fill: none; stroke: #ffffff; stroke-linecap: round"/>
     </g>
     <g id="line2d_28"/>
     <g id="text_15">
      <!-- $\mathdefault{1.00}$ -->
      <g style="fill: #262626" transform="translate(17.28 299.069075) scale(0.14 -0.14)">
       <use xlink:href="#CMR17-31" transform="scale(0.996264)"/>
       <use xlink:href="#CMMI12-3a" transform="translate(45.690477 0) scale(0.996264)"/>
       <use xlink:href="#CMR17-30" transform="translate(72.787654 0) scale(0.996264)"/>
       <use xlink:href="#CMR17-30" transform="translate(118.478131 0) scale(0.996264)"/>
      </g>
     </g>
    </g>
    <g id="ytick_6">
     <g id="line2d_29">
      <path d="M 48.559071 237.494413 
L 935.517672 237.494413 
" clip-path="url(#p799496d5ff)" style="fill: none; stroke: #ffffff; stroke-linecap: round"/>
     </g>
     <g id="line2d_30"/>
     <g id="text_16">
      <!-- $\mathdefault{1.25}$ -->
      <g style="fill: #262626" transform="translate(17.28 242.337351) scale(0.14 -0.14)">
       <use xlink:href="#CMR17-31" transform="scale(0.996264)"/>
       <use xlink:href="#CMMI12-3a" transform="translate(45.690477 0) scale(0.996264)"/>
       <use xlink:href="#CMR17-32" transform="translate(72.787654 0) scale(0.996264)"/>
       <use xlink:href="#CMR17-35" transform="translate(118.478131 0) scale(0.996264)"/>
      </g>
     </g>
    </g>
    <g id="ytick_7">
     <g id="line2d_31">
      <path d="M 48.559071 180.762689 
L 935.517672 180.762689 
" clip-path="url(#p799496d5ff)" style="fill: none; stroke: #ffffff; stroke-linecap: round"/>
     </g>
     <g id="line2d_32"/>
     <g id="text_17">
      <!-- $\mathdefault{1.50}$ -->
      <g style="fill: #262626" transform="translate(17.28 185.605628) scale(0.14 -0.14)">
       <use xlink:href="#CMR17-31" transform="scale(0.996264)"/>
       <use xlink:href="#CMMI12-3a" transform="translate(45.690477 0) scale(0.996264)"/>
       <use xlink:href="#CMR17-35" transform="translate(72.787654 0) scale(0.996264)"/>
       <use xlink:href="#CMR17-30" transform="translate(118.478131 0) scale(0.996264)"/>
      </g>
     </g>
    </g>
    <g id="ytick_8">
     <g id="line2d_33">
      <path d="M 48.559071 124.030966 
L 935.517672 124.030966 
" clip-path="url(#p799496d5ff)" style="fill: none; stroke: #ffffff; stroke-linecap: round"/>
     </g>
     <g id="line2d_34"/>
     <g id="text_18">
      <!-- $\mathdefault{1.75}$ -->
      <g style="fill: #262626" transform="translate(17.28 128.873904) scale(0.14 -0.14)">
       <use xlink:href="#CMR17-31" transform="scale(0.996264)"/>
       <use xlink:href="#CMMI12-3a" transform="translate(45.690477 0) scale(0.996264)"/>
       <use xlink:href="#CMR17-37" transform="translate(72.787654 0) scale(0.996264)"/>
       <use xlink:href="#CMR17-35" transform="translate(118.478131 0) scale(0.996264)"/>
      </g>
     </g>
    </g>
    <g id="ytick_9">
     <g id="line2d_35">
      <path d="M 48.559071 67.299242 
L 935.517672 67.299242 
" clip-path="url(#p799496d5ff)" style="fill: none; stroke: #ffffff; stroke-linecap: round"/>
     </g>
     <g id="line2d_36"/>
     <g id="text_19">
      <!-- $\mathdefault{2.00}$ -->
      <g style="fill: #262626" transform="translate(17.28 72.142181) scale(0.14 -0.14)">
       <use xlink:href="#CMR17-32" transform="scale(0.996264)"/>
       <use xlink:href="#CMMI12-3a" transform="translate(45.690477 0) scale(0.996264)"/>
       <use xlink:href="#CMR17-30" transform="translate(72.787654 0) scale(0.996264)"/>
       <use xlink:href="#CMR17-30" transform="translate(118.478131 0) scale(0.996264)"/>
      </g>
     </g>
    </g>
   </g>
   <g id="line2d_37">
    <path d="M 48.559071 67.299242 
L 57.006295 67.299242 
L 65.45352 67.299242 
L 73.900745 67.299242 
L 82.34797 67.299242 
L 90.795195 67.299242 
L 99.242419 67.299242 
L 107.689644 67.299242 
L 116.136869 67.299242 
L 124.584094 67.299242 
L 133.031318 67.299242 
L 141.478543 67.299242 
L 149.925768 67.299242 
L 158.372993 67.299242 
L 166.820217 67.299242 
L 175.267442 67.299242 
L 183.714667 67.299242 
L 192.161892 67.299242 
L 200.609117 67.299242 
L 209.056341 67.299242 
L 217.503566 67.299242 
L 225.950791 67.299242 
L 234.398016 67.299242 
L 242.84524 67.299242 
L 251.292465 67.299242 
L 259.73969 67.299242 
L 268.186915 67.299242 
L 276.63414 67.299242 
L 285.081364 67.299242 
L 293.528589 67.299242 
L 301.975814 67.299242 
L 310.423039 67.299242 
L 318.870263 67.299242 
L 327.317488 67.299242 
L 335.764713 67.299242 
L 344.211938 67.299242 
L 352.659162 67.299242 
L 361.106387 67.299242 
L 369.553612 67.299242 
L 378.000837 67.299242 
L 386.448062 67.299242 
L 394.895286 67.299242 
L 403.342511 67.299242 
L 411.789736 67.299242 
L 420.236961 67.299242 
L 428.684185 67.299242 
L 437.13141 67.299242 
L 445.578635 67.299242 
L 454.02586 67.299242 
L 462.473085 67.299242 
L 470.920309 67.299242 
L 479.367534 67.299242 
L 487.814759 67.299242 
L 496.261984 67.299242 
L 504.709208 67.299242 
L 513.156433 67.299242 
L 521.603658 67.299242 
L 530.050883 67.299242 
L 538.498107 67.299242 
L 546.945332 67.299242 
L 555.392557 67.299242 
L 563.839782 67.299242 
L 572.287007 67.299242 
L 580.734231 67.299242 
L 589.181456 67.299242 
L 597.628681 67.299242 
L 606.075906 67.299242 
L 614.52313 67.299242 
L 622.970355 67.299242 
L 631.41758 67.299242 
L 639.864805 67.299242 
L 648.31203 67.299242 
L 656.759254 67.299242 
L 665.206479 67.299242 
L 673.653704 67.299242 
L 682.100929 67.299242 
L 690.548153 67.299242 
L 698.995378 67.299242 
L 707.442603 67.299242 
L 715.889828 67.299242 
L 724.337052 67.299242 
L 732.784277 67.299242 
L 741.231502 67.299242 
L 749.678727 67.299242 
L 758.125952 67.299242 
L 766.573176 67.299242 
L 775.020401 67.299242 
L 783.467626 67.299242 
L 791.914851 67.299242 
L 800.362075 67.299242 
L 808.8093 67.299242 
L 817.256525 67.299242 
L 825.70375 67.299242 
L 834.150975 67.299242 
L 842.598199 67.299242 
L 851.045424 67.299242 
L 859.492649 67.299242 
L 867.939874 67.299242 
L 876.387098 67.299242 
L 884.834323 67.299242 
L 893.281548 67.299242 
" clip-path="url(#p799496d5ff)" style="fill: none; stroke: #393b79; stroke-width: 2; stroke-linecap: round"/>
   </g>
   <g id="line2d_38">
    <path d="M 48.559071 71.810378 
L 57.006295 71.799141 
L 65.45352 71.787928 
L 73.900745 71.776741 
L 82.34797 71.765582 
L 90.795195 71.754449 
L 99.242419 71.743344 
L 107.689644 71.732266 
L 116.136869 71.721214 
L 124.584094 71.710189 
L 133.031318 71.699191 
L 141.478543 71.688219 
L 149.925768 71.677274 
L 158.372993 71.666355 
L 166.820217 71.655463 
L 175.267442 71.644598 
L 183.714667 71.633758 
L 192.161892 71.622945 
L 200.609117 71.612158 
L 209.056341 71.601397 
L 217.503566 71.590663 
L 225.950791 71.579954 
L 234.398016 71.569271 
L 242.84524 71.558614 
L 251.292465 71.547983 
L 259.73969 71.537378 
L 268.186915 71.526798 
L 276.63414 71.516244 
L 285.081364 71.505716 
L 293.528589 71.495213 
L 301.975814 71.484736 
L 310.423039 71.474284 
L 318.870263 71.463857 
L 327.317488 71.453455 
L 335.764713 71.443079 
L 344.211938 71.432728 
L 352.659162 71.422402 
L 361.106387 71.412101 
L 369.553612 71.401826 
L 378.000837 71.391575 
L 386.448062 71.381348 
L 394.895286 71.371147 
L 403.342511 71.36097 
L 411.789736 71.350805 
L 420.236961 71.340663 
L 428.684185 71.330545 
L 437.13141 71.320452 
L 445.578635 71.310383 
L 454.02586 71.300339 
L 462.473085 71.290318 
L 470.920309 71.280323 
L 479.367534 71.270351 
L 487.814759 71.260404 
L 496.261984 71.250481 
L 504.709208 71.240582 
L 513.156433 71.230707 
L 521.603658 71.220856 
L 530.050883 71.211028 
L 538.498107 71.201225 
L 546.945332 71.191446 
L 555.392557 71.18169 
L 563.839782 71.171958 
L 572.287007 71.162249 
L 580.734231 71.152564 
L 589.181456 71.142903 
L 597.628681 71.133265 
L 606.075906 71.12365 
L 614.52313 71.114059 
L 622.970355 71.104491 
L 631.41758 71.094946 
L 639.864805 71.085425 
L 648.31203 71.075926 
L 656.759254 71.066451 
L 665.206479 71.056999 
L 673.653704 71.047569 
L 682.100929 71.038163 
L 690.548153 71.028779 
L 698.995378 71.019418 
L 707.442603 71.01008 
L 715.889828 71.000765 
L 724.337052 70.991472 
L 732.784277 70.982202 
L 741.231502 70.972954 
L 749.678727 70.963729 
L 758.125952 70.954526 
L 766.573176 70.945346 
L 775.020401 70.936188 
L 783.467626 70.927052 
L 791.914851 70.917938 
L 800.362075 70.908843 
L 808.8093 70.899761 
L 817.256525 70.8907 
L 825.70375 70.881661 
L 834.150975 70.872644 
L 842.598199 70.863649 
L 851.045424 70.854676 
L 859.492649 70.845725 
L 867.939874 70.836795 
L 876.387098 70.827887 
L 884.834323 70.819001 
L 893.281548 70.810137 
" clip-path="url(#p799496d5ff)" style="fill: none; stroke: #6b6ecf; stroke-width: 2; stroke-linecap: round"/>
   </g>
   <g id="line2d_39">
    <path d="M 48.559071 89.238167 
L 57.006295 89.19274 
L 65.45352 89.147358 
L 73.900745 89.102064 
L 82.34797 89.056869 
L 90.795195 89.011774 
L 99.242419 88.966778 
L 107.689644 88.92188 
L 116.136869 88.877081 
L 124.584094 88.832381 
L 133.031318 88.787779 
L 141.478543 88.743247 
L 149.925768 88.698775 
L 158.372993 88.654401 
L 166.820217 88.610124 
L 175.267442 88.565945 
L 183.714667 88.521862 
L 192.161892 88.477876 
L 200.609117 88.433987 
L 209.056341 88.390194 
L 217.503566 88.346497 
L 225.950791 88.302843 
L 234.398016 88.259274 
L 242.84524 88.2158 
L 251.292465 88.172422 
L 259.73969 88.129139 
L 268.186915 88.085951 
L 276.63414 88.042857 
L 285.081364 87.999858 
L 293.528589 87.956954 
L 301.975814 87.91414 
L 310.423039 87.871361 
L 318.870263 87.828675 
L 327.317488 87.786083 
L 335.764713 87.743584 
L 344.211938 87.701178 
L 352.659162 87.658865 
L 361.106387 87.616645 
L 369.553612 87.574517 
L 378.000837 87.532482 
L 386.448062 87.490536 
L 394.895286 87.448624 
L 403.342511 87.406802 
L 411.789736 87.365073 
L 420.236961 87.323435 
L 428.684185 87.281888 
L 437.13141 87.240432 
L 445.578635 87.199066 
L 454.02586 87.157791 
L 462.473085 87.116607 
L 470.920309 87.075512 
L 479.367534 87.034459 
L 487.814759 86.993484 
L 496.261984 86.952599 
L 504.709208 86.911803 
L 513.156433 86.871096 
L 521.603658 86.830479 
L 530.050883 86.78995 
L 538.498107 86.74951 
L 546.945332 86.709158 
L 555.392557 86.668895 
L 563.839782 86.628699 
L 572.287007 86.588552 
L 580.734231 86.548493 
L 589.181456 86.508522 
L 597.628681 86.468638 
L 606.075906 86.428841 
L 614.52313 86.389131 
L 622.970355 86.349508 
L 631.41758 86.309972 
L 639.864805 86.270522 
L 648.31203 86.231157 
L 656.759254 86.191843 
L 665.206479 86.152593 
L 673.653704 86.113429 
L 682.100929 86.07435 
L 690.548153 86.035357 
L 698.995378 85.996448 
L 707.442603 85.957625 
L 715.889828 85.918886 
L 724.337052 85.880232 
L 732.784277 85.841663 
L 741.231502 85.803177 
L 749.678727 85.764738 
L 758.125952 85.726364 
L 766.573176 85.688074 
L 775.020401 85.649867 
L 783.467626 85.611743 
L 791.914851 85.573703 
L 800.362075 85.535745 
L 808.8093 85.49787 
L 817.256525 85.460078 
L 825.70375 85.422369 
L 834.150975 85.384741 
L 842.598199 85.347172 
L 851.045424 85.309653 
L 859.492649 85.272216 
L 867.939874 85.234861 
L 876.387098 85.197587 
L 884.834323 85.160394 
L 893.281548 85.123283 
" clip-path="url(#p799496d5ff)" style="fill: none; stroke: #637939; stroke-width: 2; stroke-linecap: round"/>
   </g>
   <g id="line2d_40">
    <path d="M 48.559071 109.715949 
L 57.006295 109.631218 
L 65.45352 109.546678 
L 73.900745 109.462241 
L 82.34797 109.37796 
L 90.795195 109.293869 
L 99.242419 109.209968 
L 107.689644 109.12625 
L 116.136869 109.042606 
L 124.584094 108.95915 
L 133.031318 108.875882 
L 141.478543 108.792801 
L 149.925768 108.709868 
L 158.372993 108.627041 
L 166.820217 108.544401 
L 175.267442 108.461946 
L 183.714667 108.379677 
L 192.161892 108.297527 
L 200.609117 108.215509 
L 209.056341 108.133675 
L 217.503566 108.052025 
L 225.950791 107.970559 
L 234.398016 107.889189 
L 242.84524 107.807972 
L 251.292465 107.726936 
L 259.73969 107.646082 
L 268.186915 107.565409 
L 276.63414 107.484818 
L 285.081364 107.404391 
L 293.528589 107.324145 
L 301.975814 107.244078 
L 310.423039 107.164191 
L 318.870263 107.084375 
L 327.317488 107.004732 
L 335.764713 106.925266 
L 344.211938 106.845978 
L 352.659162 106.766868 
L 361.106387 106.687826 
L 369.553612 106.608956 
L 378.000837 106.530263 
L 386.448062 106.451745 
L 394.895286 106.373403 
L 403.342511 106.295134 
L 411.789736 106.21703 
L 420.236961 106.139101 
L 428.684185 106.061345 
L 437.13141 105.983763 
L 445.578635 105.906264 
L 454.02586 105.828917 
L 462.473085 105.751743 
L 470.920309 105.674741 
L 479.367534 105.597911 
L 487.814759 105.52118 
L 496.261984 105.444583 
L 504.709208 105.368156 
L 513.156433 105.2919 
L 521.603658 105.215814 
L 530.050883 105.139849 
L 538.498107 105.063993 
L 546.945332 104.988306 
L 555.392557 104.912788 
L 563.839782 104.837438 
L 572.287007 104.762237 
L 580.734231 104.687114 
L 589.181456 104.612158 
L 597.628681 104.53737 
L 606.075906 104.462748 
L 614.52313 104.388292 
L 622.970355 104.313913 
L 631.41758 104.239681 
L 639.864805 104.165614 
L 648.31203 104.091712 
L 656.759254 104.017974 
L 665.206479 103.944356 
L 673.653704 103.87084 
L 682.100929 103.797488 
L 690.548153 103.724298 
L 698.995378 103.651271 
L 707.442603 103.578406 
L 715.889828 103.505604 
L 724.337052 103.432958 
L 732.784277 103.360473 
L 741.231502 103.28815 
L 749.678727 103.215987 
L 758.125952 103.143941 
L 766.573176 103.071994 
L 775.020401 103.000207 
L 783.467626 102.928578 
L 791.914851 102.857109 
L 800.362075 102.785798 
L 808.8093 102.714563 
L 817.256525 102.643466 
L 825.70375 102.572526 
L 834.150975 102.501744 
L 842.598199 102.431118 
L 851.045424 102.360636 
L 859.492649 102.290221 
L 867.939874 102.219963 
L 876.387098 102.149859 
L 884.834323 102.079911 
L 893.281548 102.010118 
" clip-path="url(#p799496d5ff)" style="fill: none; stroke: #b5cf6b; stroke-width: 2; stroke-linecap: round"/>
   </g>
   <g id="line2d_41">
    <path d="M 48.559071 163.566344 
L 57.006295 163.383559 
L 65.45352 163.201172 
L 73.900745 163.019063 
L 82.34797 162.837293 
L 90.795195 162.65586 
L 99.242419 162.474705 
L 107.689644 162.293946 
L 116.136869 162.113408 
L 124.584094 161.933266 
L 133.031318 161.75339 
L 141.478543 161.573864 
L 149.925768 161.394652 
L 158.372993 161.215737 
L 166.820217 161.037186 
L 175.267442 160.858883 
L 183.714667 160.680981 
L 192.161892 160.503298 
L 200.609117 160.326007 
L 209.056341 160.148976 
L 217.503566 159.972294 
L 225.950791 159.795912 
L 234.398016 159.619838 
L 242.84524 159.444106 
L 251.292465 159.268639 
L 259.73969 159.093549 
L 268.186915 158.918687 
L 276.63414 158.74423 
L 285.081364 158.569983 
L 293.528589 158.396129 
L 301.975814 158.222517 
L 310.423039 158.049269 
L 318.870263 157.876291 
L 327.317488 157.703647 
L 335.764713 157.531298 
L 344.211938 157.359255 
L 352.659162 157.187533 
L 361.106387 157.016092 
L 369.553612 156.844993 
L 378.000837 156.674153 
L 386.448062 156.503675 
L 394.895286 156.333434 
L 403.342511 156.163573 
L 411.789736 155.993931 
L 420.236961 155.824687 
L 428.684185 155.655642 
L 437.13141 155.487004 
L 445.578635 155.31856 
L 454.02586 155.150521 
L 462.473085 154.982684 
L 470.920309 154.81524 
L 479.367534 154.648007 
L 487.814759 154.48116 
L 496.261984 154.314528 
L 504.709208 154.148277 
L 513.156433 153.982245 
L 521.603658 153.816588 
L 530.050883 153.65115 
L 538.498107 153.486087 
L 546.945332 153.32124 
L 555.392557 153.156771 
L 563.839782 152.992515 
L 572.287007 152.828639 
L 580.734231 152.664969 
L 589.181456 152.501683 
L 597.628681 152.338598 
L 606.075906 152.175905 
L 614.52313 152.0134 
L 622.970355 151.851293 
L 631.41758 151.68937 
L 639.864805 151.527841 
L 648.31203 151.366507 
L 656.759254 151.205552 
L 665.206479 151.044805 
L 673.653704 150.884421 
L 682.100929 150.724262 
L 690.548153 150.564446 
L 698.995378 150.404875 
L 707.442603 150.245624 
L 715.889828 150.086641 
L 724.337052 149.927952 
L 732.784277 149.769555 
L 741.231502 149.611426 
L 749.678727 149.453616 
L 758.125952 149.296046 
L 766.573176 149.138819 
L 775.020401 148.981802 
L 783.467626 148.825161 
L 791.914851 148.668698 
L 800.362075 148.512615 
L 808.8093 148.356726 
L 817.256525 148.201191 
L 825.70375 148.045887 
L 834.150975 147.890896 
L 842.598199 147.736175 
L 851.045424 147.581728 
L 859.492649 147.427589 
L 867.939874 147.273682 
L 876.387098 147.120124 
L 884.834323 146.966754 
L 893.281548 146.813756 
" clip-path="url(#p799496d5ff)" style="fill: none; stroke: #8c6d31; stroke-width: 2; stroke-linecap: round"/>
   </g>
   <g id="line2d_42">
    <path d="M 48.559071 233.538147 
L 57.006295 233.24213 
L 65.45352 232.946572 
L 73.900745 232.65148 
L 82.34797 232.356816 
L 90.795195 232.062576 
L 99.242419 231.768796 
L 107.689644 231.475476 
L 116.136869 231.182563 
L 124.584094 230.89009 
L 133.031318 230.598078 
L 141.478543 230.306522 
L 149.925768 230.015362 
L 158.372993 229.72465 
L 166.820217 229.434393 
L 175.267442 229.144594 
L 183.714667 228.855194 
L 192.161892 228.566236 
L 200.609117 228.277731 
L 209.056341 227.989674 
L 217.503566 227.702048 
L 225.950791 227.414831 
L 234.398016 227.128065 
L 242.84524 226.841748 
L 251.292465 226.555879 
L 259.73969 226.270423 
L 268.186915 225.985392 
L 276.63414 225.700805 
L 285.081364 225.416662 
L 293.528589 225.132967 
L 301.975814 224.849693 
L 310.423039 224.56683 
L 318.870263 224.284409 
L 327.317488 224.002434 
L 335.764713 223.720897 
L 344.211938 223.4398 
L 352.659162 223.159115 
L 361.106387 222.878852 
L 369.553612 222.599026 
L 378.000837 222.319636 
L 386.448062 222.040688 
L 394.895286 221.762174 
L 403.342511 221.484095 
L 411.789736 221.206412 
L 420.236961 220.929166 
L 428.684185 220.652351 
L 437.13141 220.375969 
L 445.578635 220.100022 
L 454.02586 219.824509 
L 462.473085 219.549423 
L 470.920309 219.274768 
L 479.367534 219.000511 
L 487.814759 218.726686 
L 496.261984 218.453291 
L 504.709208 218.180325 
L 513.156433 217.907787 
L 521.603658 217.635677 
L 530.050883 217.363996 
L 538.498107 217.09274 
L 546.945332 216.821908 
L 555.392557 216.551506 
L 563.839782 216.281505 
L 572.287007 216.011924 
L 580.734231 215.742773 
L 589.181456 215.47404 
L 597.628681 215.205734 
L 606.075906 214.937852 
L 614.52313 214.67039 
L 622.970355 214.403347 
L 631.41758 214.136731 
L 639.864805 213.870532 
L 648.31203 213.604754 
L 656.759254 213.339398 
L 665.206479 213.074459 
L 673.653704 212.809937 
L 682.100929 212.545838 
L 690.548153 212.282151 
L 698.995378 212.018885 
L 707.442603 211.756035 
L 715.889828 211.493599 
L 724.337052 211.231574 
L 732.784277 210.969964 
L 741.231502 210.708768 
L 749.678727 210.447992 
L 758.125952 210.18763 
L 766.573176 209.927678 
L 775.020401 209.668145 
L 783.467626 209.409022 
L 791.914851 209.150314 
L 800.362075 208.892019 
L 808.8093 208.634135 
L 817.256525 208.376665 
L 825.70375 208.119606 
L 834.150975 207.862957 
L 842.598199 207.606722 
L 851.045424 207.350895 
L 859.492649 207.095479 
L 867.939874 206.840468 
L 876.387098 206.58586 
L 884.834323 206.331664 
L 893.281548 206.077874 
" clip-path="url(#p799496d5ff)" style="fill: none; stroke: #e7cb94; stroke-width: 2; stroke-linecap: round"/>
   </g>
   <g id="line2d_43">
    <path d="M 48.559071 285.857768 
L 57.006295 285.490811 
L 65.45352 285.124281 
L 73.900745 284.758205 
L 82.34797 284.392583 
L 90.795195 284.027418 
L 99.242419 283.662707 
L 107.689644 283.298447 
L 116.136869 282.934645 
L 124.584094 282.571293 
L 133.031318 282.20838 
L 141.478543 281.84592 
L 149.925768 281.483913 
L 158.372993 281.122362 
L 166.820217 280.761263 
L 175.267442 280.400622 
L 183.714667 280.040429 
L 192.161892 279.680697 
L 200.609117 279.321417 
L 209.056341 278.962588 
L 217.503566 278.604214 
L 225.950791 278.246295 
L 234.398016 277.88883 
L 242.84524 277.53182 
L 251.292465 277.175264 
L 259.73969 276.819162 
L 268.186915 276.463517 
L 276.63414 276.108324 
L 285.081364 275.753586 
L 293.528589 275.399306 
L 301.975814 275.04548 
L 310.423039 274.692109 
L 318.870263 274.339195 
L 327.317488 273.986741 
L 335.764713 273.634741 
L 344.211938 273.283199 
L 352.659162 272.932113 
L 361.106387 272.581483 
L 369.553612 272.231295 
L 378.000837 271.881563 
L 386.448062 271.532294 
L 394.895286 271.183481 
L 403.342511 270.835127 
L 411.789736 270.487233 
L 420.236961 270.139803 
L 428.684185 269.79283 
L 437.13141 269.446287 
L 445.578635 269.100208 
L 454.02586 268.754591 
L 462.473085 268.409433 
L 470.920309 268.064742 
L 479.367534 267.720512 
L 487.814759 267.376709 
L 496.261984 267.033369 
L 504.709208 266.690494 
L 513.156433 266.348086 
L 521.603658 266.006144 
L 530.050883 265.664622 
L 538.498107 265.323567 
L 546.945332 264.982978 
L 555.392557 264.642862 
L 563.839782 264.303182 
L 572.287007 263.963948 
L 580.734231 263.62519 
L 589.181456 263.286898 
L 597.628681 262.949043 
L 606.075906 262.611641 
L 614.52313 262.274709 
L 622.970355 261.938251 
L 631.41758 261.602208 
L 639.864805 261.266636 
L 648.31203 260.931541 
L 656.759254 260.596887 
L 665.206479 260.262679 
L 673.653704 259.928947 
L 682.100929 259.595672 
L 690.548153 259.262826 
L 698.995378 258.930465 
L 707.442603 258.598557 
L 715.889828 258.267081 
L 724.337052 257.936089 
L 732.784277 257.605543 
L 741.231502 257.275437 
L 749.678727 256.945821 
L 758.125952 256.616632 
L 766.573176 256.287899 
L 775.020401 255.959657 
L 783.467626 255.631815 
L 791.914851 255.304465 
L 800.362075 254.977563 
L 808.8093 254.651104 
L 817.256525 254.325138 
L 825.70375 253.999572 
L 834.150975 253.674498 
L 842.598199 253.349866 
L 851.045424 253.025685 
L 859.492649 252.701981 
L 867.939874 252.378695 
L 876.387098 252.055908 
L 884.834323 251.733525 
L 893.281548 251.411635 
" clip-path="url(#p799496d5ff)" style="fill: none; stroke: #ad494a; stroke-width: 2; stroke-linecap: round"/>
   </g>
   <g id="line2d_44">
    <path d="M 48.559071 325.906979 
L 57.006295 325.496415 
L 65.45352 325.086246 
L 73.900745 324.676476 
L 82.34797 324.267092 
L 90.795195 323.858099 
L 99.242419 323.449503 
L 107.689644 323.041304 
L 116.136869 322.633508 
L 124.584094 322.226111 
L 133.031318 321.819116 
L 141.478543 321.412519 
L 149.925768 321.006323 
L 158.372993 320.600532 
L 166.820217 320.19514 
L 175.267442 319.790154 
L 183.714667 319.385565 
L 192.161892 318.98139 
L 200.609117 318.57762 
L 209.056341 318.174252 
L 217.503566 317.771292 
L 225.950791 317.36874 
L 234.398016 316.966597 
L 242.84524 316.564866 
L 251.292465 316.163545 
L 259.73969 315.762638 
L 268.186915 315.362145 
L 276.63414 314.962065 
L 285.081364 314.5624 
L 293.528589 314.163156 
L 301.975814 313.764319 
L 310.423039 313.365889 
L 318.870263 312.96788 
L 327.317488 312.570296 
L 335.764713 312.173133 
L 344.211938 311.776394 
L 352.659162 311.380051 
L 361.106387 310.984136 
L 369.553612 310.588649 
L 378.000837 310.193591 
L 386.448062 309.79894 
L 394.895286 309.404709 
L 403.342511 309.010914 
L 411.789736 308.617547 
L 420.236961 308.224585 
L 428.684185 307.832058 
L 437.13141 307.439972 
L 445.578635 307.048283 
L 454.02586 306.657037 
L 462.473085 306.26623 
L 470.920309 305.875824 
L 479.367534 305.485864 
L 487.814759 305.096335 
L 496.261984 304.707221 
L 504.709208 304.318563 
L 513.156433 303.930306 
L 521.603658 303.5425 
L 530.050883 303.155119 
L 538.498107 302.768168 
L 546.945332 302.38166 
L 555.392557 301.99557 
L 563.839782 301.609939 
L 572.287007 301.224708 
L 580.734231 300.839952 
L 589.181456 300.455589 
L 597.628681 300.071699 
L 606.075906 299.688213 
L 614.52313 299.305192 
L 622.970355 298.922581 
L 631.41758 298.540431 
L 639.864805 298.158704 
L 648.31203 297.77742 
L 656.759254 297.396586 
L 665.206479 297.016171 
L 673.653704 296.636222 
L 682.100929 296.256685 
L 690.548153 295.877602 
L 698.995378 295.498967 
L 707.442603 295.120753 
L 715.889828 294.743005 
L 724.337052 294.365682 
L 732.784277 293.988801 
L 741.231502 293.61238 
L 749.678727 293.236386 
L 758.125952 292.860836 
L 766.573176 292.485743 
L 775.020401 292.111084 
L 783.467626 291.736861 
L 791.914851 291.363099 
L 800.362075 290.989789 
L 808.8093 290.616898 
L 817.256525 290.244463 
L 825.70375 289.872488 
L 834.150975 289.500956 
L 842.598199 289.129853 
L 851.045424 288.759205 
L 859.492649 288.389014 
L 867.939874 288.01928 
L 876.387098 287.649965 
L 884.834323 287.281106 
L 893.281548 286.912701 
" clip-path="url(#p799496d5ff)" style="fill: none; stroke: #e7969c; stroke-width: 2; stroke-linecap: round"/>
   </g>
   <g id="line2d_45">
    <path d="M 48.559071 357.174794 
L 57.006295 356.738781 
L 65.45352 356.303052 
L 73.900745 355.867623 
L 82.34797 355.432504 
L 90.795195 354.997671 
L 99.242419 354.563145 
L 107.689644 354.12893 
L 116.136869 353.695014 
L 124.584094 353.261402 
L 133.031318 352.828106 
L 141.478543 352.395123 
L 149.925768 351.962448 
L 158.372993 351.530081 
L 166.820217 351.098031 
L 175.267442 350.666303 
L 183.714667 350.234889 
L 192.161892 349.803803 
L 200.609117 349.373038 
L 209.056341 348.942592 
L 217.503566 348.512472 
L 225.950791 348.082677 
L 234.398016 347.65321 
L 242.84524 347.224071 
L 251.292465 346.795262 
L 259.73969 346.366784 
L 268.186915 345.938639 
L 276.63414 345.510828 
L 285.081364 345.083353 
L 293.528589 344.656218 
L 301.975814 344.229423 
L 310.423039 343.80297 
L 318.870263 343.376862 
L 327.317488 342.951096 
L 335.764713 342.525664 
L 344.211938 342.100582 
L 352.659162 341.675851 
L 361.106387 341.251478 
L 369.553612 340.827437 
L 378.000837 340.403748 
L 386.448062 339.980426 
L 394.895286 339.557452 
L 403.342511 339.134822 
L 411.789736 338.712561 
L 420.236961 338.290658 
L 428.684185 337.869101 
L 437.13141 337.447921 
L 445.578635 337.027085 
L 454.02586 336.606623 
L 462.473085 336.186521 
L 470.920309 335.766781 
L 479.367534 335.347416 
L 487.814759 334.928404 
L 496.261984 334.509777 
L 504.709208 334.091501 
L 513.156433 333.673613 
L 521.603658 333.256083 
L 530.050883 332.838933 
L 538.498107 332.422156 
L 546.945332 332.005747 
L 555.392557 331.589735 
L 563.839782 331.174072 
L 572.287007 330.758803 
L 580.734231 330.343918 
L 589.181456 329.929395 
L 597.628681 329.51527 
L 606.075906 329.101527 
L 614.52313 328.688152 
L 622.970355 328.275172 
L 631.41758 327.86259 
L 639.864805 327.45037 
L 648.31203 327.038544 
L 656.759254 326.627116 
L 665.206479 326.216081 
L 673.653704 325.805422 
L 682.100929 325.395156 
L 690.548153 324.985283 
L 698.995378 324.575809 
L 707.442603 324.16673 
L 715.889828 323.75805 
L 724.337052 323.349752 
L 732.784277 322.941852 
L 741.231502 322.534349 
L 749.678727 322.127251 
L 758.125952 321.720552 
L 766.573176 321.31425 
L 775.020401 320.908353 
L 783.467626 320.502856 
L 791.914851 320.097763 
L 800.362075 319.693073 
L 808.8093 319.288788 
L 817.256525 318.884907 
L 825.70375 318.481433 
L 834.150975 318.078363 
L 842.598199 317.675703 
L 851.045424 317.27345 
L 859.492649 316.871608 
L 867.939874 316.470175 
L 876.387098 316.069153 
L 884.834323 315.668547 
L 893.281548 315.268353 
" clip-path="url(#p799496d5ff)" style="fill: none; stroke: #a55194; stroke-width: 2; stroke-linecap: round"/>
   </g>
   <g id="line2d_46">
    <path d="M 48.559071 382.001671 
L 57.006295 381.552408 
L 65.45352 381.103321 
L 73.900745 380.654419 
L 82.34797 380.205703 
L 90.795195 379.757161 
L 99.242419 379.308811 
L 107.689644 378.860657 
L 116.136869 378.412682 
L 124.584094 377.964912 
L 133.031318 377.517334 
L 141.478543 377.069957 
L 149.925768 376.62278 
L 158.372993 376.175809 
L 166.820217 375.72904 
L 175.267442 375.282492 
L 183.714667 374.836135 
L 192.161892 374.390008 
L 200.609117 373.944094 
L 209.056341 373.498389 
L 217.503566 373.052911 
L 225.950791 372.60766 
L 234.398016 372.162625 
L 242.84524 371.717817 
L 251.292465 371.273241 
L 259.73969 370.828898 
L 268.186915 370.384789 
L 276.63414 369.940916 
L 285.081364 369.497279 
L 293.528589 369.053882 
L 301.975814 368.610725 
L 310.423039 368.167812 
L 318.870263 367.725146 
L 327.317488 367.282728 
L 335.764713 366.840558 
L 344.211938 366.39864 
L 352.659162 365.956975 
L 361.106387 365.515571 
L 369.553612 365.074425 
L 378.000837 364.633542 
L 386.448062 364.192921 
L 394.895286 363.752555 
L 403.342511 363.31246 
L 411.789736 362.872639 
L 420.236961 362.433083 
L 428.684185 361.993795 
L 437.13141 361.55479 
L 445.578635 361.116052 
L 454.02586 360.677595 
L 462.473085 360.239422 
L 470.920309 359.801519 
L 479.367534 359.363915 
L 487.814759 358.926576 
L 496.261984 358.489544 
L 504.709208 358.05278 
L 513.156433 357.616326 
L 521.603658 357.180146 
L 530.050883 356.744271 
L 538.498107 356.308688 
L 546.945332 355.873397 
L 555.392557 355.438419 
L 563.839782 355.003728 
L 572.287007 354.569339 
L 580.734231 354.135267 
L 589.181456 353.701492 
L 597.628681 353.268018 
L 606.075906 352.83486 
L 614.52313 352.402014 
L 622.970355 351.969483 
L 631.41758 351.537254 
L 639.864805 351.105341 
L 648.31203 350.673748 
L 656.759254 350.242477 
L 665.206479 349.811524 
L 673.653704 349.380892 
L 682.100929 348.950588 
L 690.548153 348.520602 
L 698.995378 348.090945 
L 707.442603 347.661613 
L 715.889828 347.232609 
L 724.337052 346.803936 
L 732.784277 346.375593 
L 741.231502 345.947581 
L 749.678727 345.519909 
L 758.125952 345.092571 
L 766.573176 344.665568 
L 775.020401 344.23891 
L 783.467626 343.812591 
L 791.914851 343.386619 
L 800.362075 342.960976 
L 808.8093 342.53568 
L 817.256525 342.110732 
L 825.70375 341.686138 
L 834.150975 341.261891 
L 842.598199 340.837982 
L 851.045424 340.414429 
L 859.492649 339.991239 
L 867.939874 339.568389 
L 876.387098 339.145893 
L 884.834323 338.723768 
L 893.281548 338.301986 
" clip-path="url(#p799496d5ff)" style="fill: none; stroke: #de9ed6; stroke-width: 2; stroke-linecap: round"/>
   </g>
   <g id="patch_3">
    <path d="M 48.559071 521.153031 
L 48.559071 51.564121 
" style="fill: none"/>
   </g>
   <g id="patch_4">
    <path d="M 935.517672 521.153031 
L 935.517672 51.564121 
" style="fill: none"/>
   </g>
   <g id="patch_5">
    <path d="M 48.559071 521.153031 
L 935.517672 521.153031 
" style="fill: none"/>
   </g>
   <g id="patch_6">
    <path d="M 48.559071 51.564121 
L 935.517672 51.564121 
" style="fill: none"/>
   </g>
   <g id="patch_7">
    <path d="M 470.920309 73.841256 
Q 470.920309 212.418625 470.920309 349.318943 
" style="fill: none; stroke: #000000; stroke-width: 1.5; stroke-linecap: round"/>
    <path d="M 474.120309 342.918943 
L 470.920309 349.318943 
L 467.720309 342.918943 
" style="fill: none; stroke: #000000; stroke-width: 1.5; stroke-linecap: round"/>
   </g>
   <g id="text_20">
    <!-- Time -->
    <g style="fill: #262626" transform="translate(492.038371 349.505648) scale(0.18 -0.18)">
     <defs>
      <path id="CMR17-54" d="M 3981 4326 
L 288 4326 
L 179 2918 
L 294 2918 
C 378 3976 467 4160 1453 4160 
C 1568 4160 1754 4160 1805 4154 
C 1926 4135 1926 4058 1926 3912 
L 1926 459 
C 1926 230 1907 160 1376 160 
L 1197 160 
L 1197 0 
C 1504 0 1824 0 2138 0 
C 2451 0 2771 0 3078 0 
L 3078 160 
L 2899 160 
C 2368 160 2349 230 2349 459 
L 2349 3912 
C 2349 4052 2349 4129 2464 4154 
C 2515 4160 2701 4160 2816 4160 
C 3795 4160 3891 3976 3974 2918 
L 4090 2918 
L 3981 4326 
z
" transform="scale(0.015625)"/>
      <path id="CMR17-69" d="M 992 3909 
C 992 4049 877 4170 730 4170 
C 589 4170 467 4056 467 3909 
C 467 3769 582 3648 730 3648 
C 870 3648 992 3763 992 3909 
z
M 243 2706 
L 243 2541 
C 602 2541 653 2502 653 2197 
L 653 427 
C 653 184 627 153 218 153 
L 218 -13 
C 371 0 646 0 806 0 
C 960 0 1222 0 1370 -13 
L 1370 153 
C 992 153 979 191 979 420 
L 979 2776 
L 243 2706 
z
" transform="scale(0.015625)"/>
      <path id="CMR17-6d" d="M 4326 1933 
C 4326 2252 4269 2790 3507 2790 
C 3072 2790 2771 2496 2656 2151 
L 2650 2151 
C 2573 2676 2195 2790 1837 2790 
C 1331 2790 1069 2400 973 2144 
L 966 2144 
L 966 2790 
L 211 2720 
L 211 2554 
C 589 2554 646 2515 646 2208 
L 646 428 
C 646 184 621 153 211 153 
L 211 -13 
C 365 0 646 0 813 0 
C 979 0 1267 0 1421 -13 
L 1421 153 
C 1011 153 986 178 986 428 
L 986 1658 
C 986 2247 1344 2688 1792 2688 
C 2266 2688 2317 2266 2317 1958 
L 2317 428 
C 2317 184 2291 153 1882 153 
L 1882 -13 
C 2035 0 2317 0 2483 0 
C 2650 0 2938 0 3091 -13 
L 3091 153 
C 2682 153 2656 178 2656 428 
L 2656 1658 
C 2656 2247 3014 2688 3462 2688 
C 3936 2688 3987 2266 3987 1958 
L 3987 428 
C 3987 184 3962 153 3552 153 
L 3552 -13 
C 3706 0 3987 0 4154 0 
C 4320 0 4608 0 4762 -13 
L 4762 153 
C 4352 153 4326 178 4326 428 
L 4326 1933 
z
" transform="scale(0.015625)"/>
      <path id="CMR17-65" d="M 2438 1472 
C 2464 1498 2464 1511 2464 1576 
C 2464 2238 2118 2816 1389 2816 
C 710 2816 173 2169 173 1383 
C 173 551 781 -64 1459 -64 
C 2176 -64 2458 607 2458 740 
C 2458 784 2419 784 2406 784 
C 2362 784 2355 771 2330 696 
C 2189 265 1837 51 1504 51 
C 1229 51 954 203 781 480 
C 582 803 582 1176 582 1472 
L 2438 1472 
z
M 589 1568 
C 634 2505 1126 2714 1382 2714 
C 1818 2714 2112 2297 2118 1568 
L 589 1568 
z
" transform="scale(0.015625)"/>
     </defs>
     <use xlink:href="#CMR17-54" transform="scale(0.996264)"/>
     <use xlink:href="#CMR17-69" transform="translate(66.509881 0) scale(0.996264)"/>
     <use xlink:href="#CMR17-6d" transform="translate(91.380939 0) scale(0.996264)"/>
     <use xlink:href="#CMR17-65" transform="translate(168.300529 0) scale(0.996264)"/>
    </g>
   </g>
   <g id="legend_1">
    <g id="line2d_47">
     <path d="M 948.117672 197.198434 
L 962.117672 197.198434 
L 976.117672 197.198434 
" style="fill: none; stroke: #393b79; stroke-width: 2; stroke-linecap: round"/>
    </g>
    <g id="text_21">
     <!-- t = 0.00 -->
     <g style="fill: #262626" transform="translate(987.317672 202.098434) scale(0.14 -0.14)">
      <defs>
       <path id="CMR17-74" d="M 966 2560 
L 1862 2560 
L 1862 2725 
L 966 2725 
L 966 3904 
L 851 3904 
C 838 3245 614 2668 70 2668 
L 70 2560 
L 627 2560 
L 627 771 
C 627 650 627 -64 1370 -64 
C 1747 -64 1965 306 1965 777 
L 1965 1140 
L 1850 1140 
L 1850 783 
C 1850 344 1677 51 1408 51 
C 1222 51 966 178 966 758 
L 966 2560 
z
" transform="scale(0.015625)"/>
       <path id="CMR17-3d" d="M 4115 2017 
C 4211 2017 4307 2017 4307 2125 
C 4307 2240 4198 2240 4090 2240 
L 512 2240 
C 403 2240 294 2240 294 2125 
C 294 2017 390 2017 486 2017 
L 4115 2017 
z
M 4090 896 
C 4198 896 4307 896 4307 1011 
C 4307 1119 4211 1119 4115 1119 
L 486 1119 
C 390 1119 294 1119 294 1011 
C 294 896 403 896 512 896 
L 4090 896 
z
" transform="scale(0.015625)"/>
       <path id="CMR17-2e" d="M 1062 261 
C 1062 420 934 522 800 522 
C 672 522 538 420 538 261 
C 538 102 666 0 800 0 
C 928 0 1062 102 1062 261 
z
" transform="scale(0.015625)"/>
      </defs>
      <use xlink:href="#CMR17-74" transform="scale(0.996264)"/>
      <use xlink:href="#CMR17-3d" transform="translate(65.356734 0) scale(0.996264)"/>
      <use xlink:href="#CMR17-30" transform="translate(167.147489 0) scale(0.996264)"/>
      <use xlink:href="#CMR17-2e" transform="translate(212.837966 0) scale(0.996264)"/>
      <use xlink:href="#CMR17-30" transform="translate(237.709025 0) scale(0.996264)"/>
      <use xlink:href="#CMR17-30" transform="translate(283.399502 0) scale(0.996264)"/>
     </g>
    </g>
    <g id="line2d_48">
     <path d="M 948.117672 216.710462 
L 962.117672 216.710462 
L 976.117672 216.710462 
" style="fill: none; stroke: #6b6ecf; stroke-width: 2; stroke-linecap: round"/>
    </g>
    <g id="text_22">
     <!-- t = 10.00 -->
     <g style="fill: #262626" transform="translate(987.317672 221.610462) scale(0.14 -0.14)">
      <use xlink:href="#CMR17-74" transform="scale(0.996264)"/>
      <use xlink:href="#CMR17-3d" transform="translate(65.356734 0) scale(0.996264)"/>
      <use xlink:href="#CMR17-31" transform="translate(167.147489 0) scale(0.996264)"/>
      <use xlink:href="#CMR17-30" transform="translate(212.837966 0) scale(0.996264)"/>
      <use xlink:href="#CMR17-2e" transform="translate(258.528443 0) scale(0.996264)"/>
      <use xlink:href="#CMR17-30" transform="translate(283.399502 0) scale(0.996264)"/>
      <use xlink:href="#CMR17-30" transform="translate(329.089979 0) scale(0.996264)"/>
     </g>
    </g>
    <g id="line2d_49">
     <path d="M 948.117672 236.222491 
L 962.117672 236.222491 
L 976.117672 236.222491 
" style="fill: none; stroke: #637939; stroke-width: 2; stroke-linecap: round"/>
    </g>
    <g id="text_23">
     <!-- t = 50.00 -->
     <g style="fill: #262626" transform="translate(987.317672 241.122491) scale(0.14 -0.14)">
      <use xlink:href="#CMR17-74" transform="scale(0.996264)"/>
      <use xlink:href="#CMR17-3d" transform="translate(65.356734 0) scale(0.996264)"/>
      <use xlink:href="#CMR17-35" transform="translate(167.147489 0) scale(0.996264)"/>
      <use xlink:href="#CMR17-30" transform="translate(212.837966 0) scale(0.996264)"/>
      <use xlink:href="#CMR17-2e" transform="translate(258.528443 0) scale(0.996264)"/>
      <use xlink:href="#CMR17-30" transform="translate(283.399502 0) scale(0.996264)"/>
      <use xlink:href="#CMR17-30" transform="translate(329.089979 0) scale(0.996264)"/>
     </g>
    </g>
    <g id="line2d_50">
     <path d="M 948.117672 255.734519 
L 962.117672 255.734519 
L 976.117672 255.734519 
" style="fill: none; stroke: #b5cf6b; stroke-width: 2; stroke-linecap: round"/>
    </g>
    <g id="text_24">
     <!-- t = 100.00 -->
     <g style="fill: #262626" transform="translate(987.317672 260.634519) scale(0.14 -0.14)">
      <use xlink:href="#CMR17-74" transform="scale(0.996264)"/>
      <use xlink:href="#CMR17-3d" transform="translate(65.356734 0) scale(0.996264)"/>
      <use xlink:href="#CMR17-31" transform="translate(167.147489 0) scale(0.996264)"/>
      <use xlink:href="#CMR17-30" transform="translate(212.837966 0) scale(0.996264)"/>
      <use xlink:href="#CMR17-30" transform="translate(258.528443 0) scale(0.996264)"/>
      <use xlink:href="#CMR17-2e" transform="translate(304.21892 0) scale(0.996264)"/>
      <use xlink:href="#CMR17-30" transform="translate(329.089979 0) scale(0.996264)"/>
      <use xlink:href="#CMR17-30" transform="translate(374.780456 0) scale(0.996264)"/>
     </g>
    </g>
    <g id="line2d_51">
     <path d="M 948.117672 275.246547 
L 962.117672 275.246547 
L 976.117672 275.246547 
" style="fill: none; stroke: #8c6d31; stroke-width: 2; stroke-linecap: round"/>
    </g>
    <g id="text_25">
     <!-- t = 250.00 -->
     <g style="fill: #262626" transform="translate(987.317672 280.146547) scale(0.14 -0.14)">
      <use xlink:href="#CMR17-74" transform="scale(0.996264)"/>
      <use xlink:href="#CMR17-3d" transform="translate(65.356734 0) scale(0.996264)"/>
      <use xlink:href="#CMR17-32" transform="translate(167.147489 0) scale(0.996264)"/>
      <use xlink:href="#CMR17-35" transform="translate(212.837966 0) scale(0.996264)"/>
      <use xlink:href="#CMR17-30" transform="translate(258.528443 0) scale(0.996264)"/>
      <use xlink:href="#CMR17-2e" transform="translate(304.21892 0) scale(0.996264)"/>
      <use xlink:href="#CMR17-30" transform="translate(329.089979 0) scale(0.996264)"/>
      <use xlink:href="#CMR17-30" transform="translate(374.780456 0) scale(0.996264)"/>
     </g>
    </g>
    <g id="line2d_52">
     <path d="M 948.117672 294.758576 
L 962.117672 294.758576 
L 976.117672 294.758576 
" style="fill: none; stroke: #e7cb94; stroke-width: 2; stroke-linecap: round"/>
    </g>
    <g id="text_26">
     <!-- t = 500.00 -->
     <g style="fill: #262626" transform="translate(987.317672 299.658576) scale(0.14 -0.14)">
      <use xlink:href="#CMR17-74" transform="scale(0.996264)"/>
      <use xlink:href="#CMR17-3d" transform="translate(65.356734 0) scale(0.996264)"/>
      <use xlink:href="#CMR17-35" transform="translate(167.147489 0) scale(0.996264)"/>
      <use xlink:href="#CMR17-30" transform="translate(212.837966 0) scale(0.996264)"/>
      <use xlink:href="#CMR17-30" transform="translate(258.528443 0) scale(0.996264)"/>
      <use xlink:href="#CMR17-2e" transform="translate(304.21892 0) scale(0.996264)"/>
      <use xlink:href="#CMR17-30" transform="translate(329.089979 0) scale(0.996264)"/>
      <use xlink:href="#CMR17-30" transform="translate(374.780456 0) scale(0.996264)"/>
     </g>
    </g>
    <g id="line2d_53">
     <path d="M 948.117672 314.270604 
L 962.117672 314.270604 
L 976.117672 314.270604 
" style="fill: none; stroke: #ad494a; stroke-width: 2; stroke-linecap: round"/>
    </g>
    <g id="text_27">
     <!-- t = 750.00 -->
     <g style="fill: #262626" transform="translate(987.317672 319.170604) scale(0.14 -0.14)">
      <use xlink:href="#CMR17-74" transform="scale(0.996264)"/>
      <use xlink:href="#CMR17-3d" transform="translate(65.356734 0) scale(0.996264)"/>
      <use xlink:href="#CMR17-37" transform="translate(167.147489 0) scale(0.996264)"/>
      <use xlink:href="#CMR17-35" transform="translate(212.837966 0) scale(0.996264)"/>
      <use xlink:href="#CMR17-30" transform="translate(258.528443 0) scale(0.996264)"/>
      <use xlink:href="#CMR17-2e" transform="translate(304.21892 0) scale(0.996264)"/>
      <use xlink:href="#CMR17-30" transform="translate(329.089979 0) scale(0.996264)"/>
      <use xlink:href="#CMR17-30" transform="translate(374.780456 0) scale(0.996264)"/>
     </g>
    </g>
    <g id="line2d_54">
     <path d="M 948.117672 333.782633 
L 962.117672 333.782633 
L 976.117672 333.782633 
" style="fill: none; stroke: #e7969c; stroke-width: 2; stroke-linecap: round"/>
    </g>
    <g id="text_28">
     <!-- t = 1000.00 -->
     <g style="fill: #262626" transform="translate(987.317672 338.682633) scale(0.14 -0.14)">
      <use xlink:href="#CMR17-74" transform="scale(0.996264)"/>
      <use xlink:href="#CMR17-3d" transform="translate(65.356734 0) scale(0.996264)"/>
      <use xlink:href="#CMR17-31" transform="translate(167.147489 0) scale(0.996264)"/>
      <use xlink:href="#CMR17-30" transform="translate(212.837966 0) scale(0.996264)"/>
      <use xlink:href="#CMR17-30" transform="translate(258.528443 0) scale(0.996264)"/>
      <use xlink:href="#CMR17-30" transform="translate(304.21892 0) scale(0.996264)"/>
      <use xlink:href="#CMR17-2e" transform="translate(349.909397 0) scale(0.996264)"/>
      <use xlink:href="#CMR17-30" transform="translate(374.780456 0) scale(0.996264)"/>
      <use xlink:href="#CMR17-30" transform="translate(420.470933 0) scale(0.996264)"/>
     </g>
    </g>
    <g id="line2d_55">
     <path d="M 948.117672 353.294661 
L 962.117672 353.294661 
L 976.117672 353.294661 
" style="fill: none; stroke: #a55194; stroke-width: 2; stroke-linecap: round"/>
    </g>
    <g id="text_29">
     <!-- t = 1250.00 -->
     <g style="fill: #262626" transform="translate(987.317672 358.194661) scale(0.14 -0.14)">
      <use xlink:href="#CMR17-74" transform="scale(0.996264)"/>
      <use xlink:href="#CMR17-3d" transform="translate(65.356734 0) scale(0.996264)"/>
      <use xlink:href="#CMR17-31" transform="translate(167.147489 0) scale(0.996264)"/>
      <use xlink:href="#CMR17-32" transform="translate(212.837966 0) scale(0.996264)"/>
      <use xlink:href="#CMR17-35" transform="translate(258.528443 0) scale(0.996264)"/>
      <use xlink:href="#CMR17-30" transform="translate(304.21892 0) scale(0.996264)"/>
      <use xlink:href="#CMR17-2e" transform="translate(349.909397 0) scale(0.996264)"/>
      <use xlink:href="#CMR17-30" transform="translate(374.780456 0) scale(0.996264)"/>
      <use xlink:href="#CMR17-30" transform="translate(420.470933 0) scale(0.996264)"/>
     </g>
    </g>
    <g id="line2d_56">
     <path d="M 948.117672 372.806689 
L 962.117672 372.806689 
L 976.117672 372.806689 
" style="fill: none; stroke: #de9ed6; stroke-width: 2; stroke-linecap: round"/>
    </g>
    <g id="text_30">
     <!-- t = 1500.00 -->
     <g style="fill: #262626" transform="translate(987.317672 377.706689) scale(0.14 -0.14)">
      <use xlink:href="#CMR17-74" transform="scale(0.996264)"/>
      <use xlink:href="#CMR17-3d" transform="translate(65.356734 0) scale(0.996264)"/>
      <use xlink:href="#CMR17-31" transform="translate(167.147489 0) scale(0.996264)"/>
      <use xlink:href="#CMR17-35" transform="translate(212.837966 0) scale(0.996264)"/>
      <use xlink:href="#CMR17-30" transform="translate(258.528443 0) scale(0.996264)"/>
      <use xlink:href="#CMR17-30" transform="translate(304.21892 0) scale(0.996264)"/>
      <use xlink:href="#CMR17-2e" transform="translate(349.909397 0) scale(0.996264)"/>
      <use xlink:href="#CMR17-30" transform="translate(374.780456 0) scale(0.996264)"/>
      <use xlink:href="#CMR17-30" transform="translate(420.470933 0) scale(0.996264)"/>
     </g>
    </g>
   </g>
  </g>
  <g id="text_31">
   <!-- permeability -->
   <g style="fill: #262626" transform="translate(492.111452 24.803515) scale(0.192 -0.192)">
    <defs>
     <path id="CMR17-70" d="M 1408 -1063 
C 998 -1063 973 -1037 973 -789 
L 973 402 
C 1158 134 1427 -38 1766 -38 
C 2406 -38 3053 523 3053 1388 
C 3053 2191 2496 2802 1837 2802 
C 1453 2802 1139 2592 960 2338 
L 960 2802 
L 198 2732 
L 198 2567 
C 576 2567 634 2528 634 2223 
L 634 -789 
C 634 -1031 608 -1063 198 -1063 
L 198 -1228 
C 352 -1216 634 -1216 800 -1216 
C 966 -1216 1254 -1216 1408 -1228 
L 1408 -1063 
z
M 973 2012 
C 973 2102 973 2235 1222 2471 
C 1254 2497 1472 2688 1792 2688 
C 2259 2688 2643 2108 2643 1382 
C 2643 656 2234 64 1728 64 
C 1498 64 1248 172 1056 472 
C 973 612 973 650 973 752 
L 973 2012 
z
" transform="scale(0.015625)"/>
     <path id="CMR17-72" d="M 960 1497 
C 960 2112 1222 2688 1702 2688 
C 1747 2688 1792 2682 1837 2662 
C 1837 2662 1696 2617 1696 2452 
C 1696 2298 1818 2234 1914 2234 
C 1990 2234 2131 2279 2131 2458 
C 2131 2663 1926 2790 1709 2790 
C 1222 2790 1011 2317 947 2093 
L 941 2093 
L 941 2790 
L 198 2720 
L 198 2554 
C 576 2554 634 2515 634 2208 
L 634 428 
C 634 184 608 153 198 153 
L 198 -13 
C 352 0 646 0 813 0 
C 998 0 1325 0 1498 -13 
L 1498 153 
C 1037 153 960 153 960 440 
L 960 1497 
z
" transform="scale(0.015625)"/>
     <path id="CMR17-61" d="M 2304 1653 
C 2304 2072 2304 2294 2035 2543 
C 1798 2752 1523 2816 1306 2816 
C 800 2816 435 2407 435 1971 
C 435 1728 627 1728 666 1728 
C 749 1728 896 1778 896 1954 
C 896 2112 774 2181 666 2181 
C 640 2181 608 2174 589 2168 
C 723 2592 1069 2714 1293 2714 
C 1613 2714 1965 2429 1965 1885 
L 1965 1600 
C 1587 1600 1133 1549 774 1357 
C 371 1133 256 813 256 570 
C 256 77 832 -64 1171 -64 
C 1523 -64 1850 139 1990 511 
C 2003 233 2182 -18 2464 -18 
C 2598 -18 2938 70 2938 567 
L 2938 920 
L 2822 920 
L 2822 562 
C 2822 178 2650 128 2566 128 
C 2304 128 2304 458 2304 738 
L 2304 1653 
z
M 1965 870 
C 1965 317 1568 38 1216 38 
C 896 38 646 275 646 570 
C 646 761 730 1100 1101 1305 
C 1408 1478 1760 1504 1965 1504 
L 1965 870 
z
" transform="scale(0.015625)"/>
     <path id="CMR17-62" d="M 960 4396 
L 198 4326 
L 198 4160 
C 576 4160 634 4122 634 3817 
L 634 -13 
L 749 -13 
L 934 441 
C 1120 141 1395 -64 1766 -64 
C 2406 -64 3053 500 3053 1370 
C 3053 2188 2477 2790 1830 2790 
C 1434 2790 1152 2579 960 2330 
L 960 4396 
z
M 973 2004 
C 973 2118 973 2138 1062 2272 
C 1312 2657 1670 2688 1792 2688 
C 1984 2688 2643 2585 2643 1376 
C 2643 108 1888 38 1734 38 
C 1536 38 1248 114 1043 486 
C 973 608 973 621 973 735 
L 973 2004 
z
" transform="scale(0.015625)"/>
     <path id="CMR17-6c" d="M 979 4396 
L 218 4326 
L 218 4160 
C 595 4160 653 4122 653 3817 
L 653 426 
C 653 184 627 153 218 153 
L 218 -13 
C 371 0 653 0 813 0 
C 979 0 1261 0 1414 -13 
L 1414 153 
C 1005 153 979 178 979 426 
L 979 4396 
z
" transform="scale(0.015625)"/>
     <path id="CMR17-79" d="M 2496 2197 
C 2656 2586 2944 2586 3034 2586 
L 3034 2752 
C 2912 2752 2752 2752 2630 2752 
C 2496 2752 2285 2752 2157 2758 
L 2157 2592 
C 2400 2573 2406 2394 2406 2343 
C 2406 2280 2394 2248 2362 2171 
L 1664 449 
L 902 2306 
C 870 2382 870 2426 870 2433 
C 870 2573 1018 2586 1171 2586 
L 1171 2758 
C 1018 2752 742 2752 582 2752 
C 410 2752 205 2752 64 2758 
L 64 2586 
C 410 2586 448 2554 531 2350 
L 1485 15 
C 1197 -738 1030 -1178 627 -1178 
C 557 -1178 397 -1159 282 -1044 
C 429 -1031 493 -942 493 -833 
C 493 -725 416 -629 288 -629 
C 147 -629 77 -725 77 -840 
C 77 -1095 339 -1280 627 -1280 
C 998 -1280 1229 -922 1357 -604 
L 2496 2197 
z
" transform="scale(0.015625)"/>
    </defs>
    <use xlink:href="#CMR17-70" transform="scale(0.996264)"/>
    <use xlink:href="#CMR17-65" transform="translate(53.497809 0) scale(0.996264)"/>
    <use xlink:href="#CMR17-72" transform="translate(93.983469 0) scale(0.996264)"/>
    <use xlink:href="#CMR17-6d" transform="translate(129.264237 0) scale(0.996264)"/>
    <use xlink:href="#CMR17-65" transform="translate(206.183827 0) scale(0.996264)"/>
    <use xlink:href="#CMR17-61" transform="translate(246.669487 0) scale(0.996264)"/>
    <use xlink:href="#CMR17-62" transform="translate(292.359964 0) scale(0.996264)"/>
    <use xlink:href="#CMR17-69" transform="translate(343.255334 0) scale(0.996264)"/>
    <use xlink:href="#CMR17-6c" transform="translate(368.126392 0) scale(0.996264)"/>
    <use xlink:href="#CMR17-69" transform="translate(392.997451 0) scale(0.996264)"/>
    <use xlink:href="#CMR17-74" transform="translate(417.868509 0) scale(0.996264)"/>
    <use xlink:href="#CMR17-79" transform="translate(450.546823 0) scale(0.996264)"/>
   </g>
  </g>
 </g>
 <defs>
  <clipPath id="p799496d5ff">
   <rect x="48.559071" y="51.564121" width="886.958601" height="469.58891"/>
  </clipPath>
 </defs>
</svg>
