<?xml version="1.0" encoding="utf-8" standalone="no"?>
<!DOCTYPE svg PUBLIC "-//W3C//DTD SVG 1.1//EN"
  "http://www.w3.org/Graphics/SVG/1.1/DTD/svg11.dtd">
<svg xmlns:xlink="http://www.w3.org/1999/xlink" width="1080pt" height="576pt" viewBox="0 0 1080 576" xmlns="http://www.w3.org/2000/svg" version="1.1">
 <metadata>
  <rdf:RDF xmlns:dc="http://purl.org/dc/elements/1.1/" xmlns:cc="http://creativecommons.org/ns#" xmlns:rdf="http://www.w3.org/1999/02/22-rdf-syntax-ns#">
   <cc:Work>
    <dc:type rdf:resource="http://purl.org/dc/dcmitype/StillImage"/>
    <dc:date>2024-06-28T11:58:15.020598</dc:date>
    <dc:format>image/svg+xml</dc:format>
    <dc:creator>
     <cc:Agent>
      <dc:title>Matplotlib v3.9.0, https://matplotlib.org/</dc:title>
     </cc:Agent>
    </dc:creator>
   </cc:Work>
  </rdf:RDF>
 </metadata>
 <defs>
  <style type="text/css">*{stroke-linejoin: round; stroke-linecap: butt}</style>
 </defs>
 <g id="figure_1">
  <g id="patch_1">
   <path d="M 0 576 
L 1080 576 
L 1080 0 
L 0 0 
z
" style="fill: #ffffff"/>
  </g>
  <g id="axes_1">
   <g id="patch_2">
    <path d="M 48.559071 521.153031 
L 935.517672 521.153031 
L 935.517672 51.564121 
L 48.559071 51.564121 
z
" style="fill: #eaeaf2"/>
   </g>
   <g id="matplotlib.axis_1">
    <g id="xtick_1">
     <g id="line2d_1">
      <path d="M 48.559071 521.153031 
L 48.559071 51.564121 
" clip-path="url(#pe0d44f2bad)" style="fill: none; stroke: #ffffff; stroke-linecap: round"/>
     </g>
     <g id="line2d_2"/>
     <g id="text_1">
      <!-- $\mathdefault{0.00}$ -->
      <g style="fill: #262626" transform="translate(36.419535 537.838907) scale(0.14 -0.14)">
       <defs>
        <path id="CMR17-30" d="M 2688 2025 
C 2688 2416 2682 3080 2413 3591 
C 2176 4039 1798 4198 1466 4198 
C 1158 4198 768 4058 525 3597 
C 269 3118 243 2524 243 2025 
C 243 1661 250 1106 448 619 
C 723 -39 1216 -128 1466 -128 
C 1760 -128 2208 -7 2470 600 
C 2662 1042 2688 1559 2688 2025 
z
M 1466 -26 
C 1056 -26 813 325 723 812 
C 653 1188 653 1738 653 2096 
C 653 2588 653 2997 736 3387 
C 858 3929 1216 4096 1466 4096 
C 1728 4096 2067 3923 2189 3400 
C 2272 3036 2278 2607 2278 2096 
C 2278 1680 2278 1169 2202 792 
C 2067 95 1690 -26 1466 -26 
z
" transform="scale(0.015625)"/>
        <path id="CMMI12-3a" d="M 1178 307 
C 1178 492 1024 619 870 619 
C 685 619 557 466 557 313 
C 557 128 710 0 864 0 
C 1050 0 1178 153 1178 307 
z
" transform="scale(0.015625)"/>
       </defs>
       <use xlink:href="#CMR17-30" transform="scale(0.996264)"/>
       <use xlink:href="#CMMI12-3a" transform="translate(45.690477 0) scale(0.996264)"/>
       <use xlink:href="#CMR17-30" transform="translate(72.787654 0) scale(0.996264)"/>
       <use xlink:href="#CMR17-30" transform="translate(118.478131 0) scale(0.996264)"/>
      </g>
     </g>
    </g>
    <g id="xtick_2">
     <g id="line2d_3">
      <path d="M 154.14938 521.153031 
L 154.14938 51.564121 
" clip-path="url(#pe0d44f2bad)" style="fill: none; stroke: #ffffff; stroke-linecap: round"/>
     </g>
     <g id="line2d_4"/>
     <g id="text_2">
      <!-- $\mathdefault{0.25}$ -->
      <g style="fill: #262626" transform="translate(142.009845 537.838907) scale(0.14 -0.14)">
       <defs>
        <path id="CMR17-32" d="M 2669 989 
L 2554 989 
C 2490 536 2438 459 2413 420 
C 2381 369 1920 369 1830 369 
L 602 369 
C 832 619 1280 1072 1824 1597 
C 2214 1967 2669 2402 2669 3035 
C 2669 3790 2067 4224 1395 4224 
C 691 4224 262 3604 262 3030 
C 262 2780 448 2748 525 2748 
C 589 2748 781 2787 781 3010 
C 781 3207 614 3264 525 3264 
C 486 3264 448 3258 422 3245 
C 544 3790 915 4058 1306 4058 
C 1862 4058 2227 3617 2227 3035 
C 2227 2479 1901 2000 1536 1584 
L 262 146 
L 262 0 
L 2515 0 
L 2669 989 
z
" transform="scale(0.015625)"/>
        <path id="CMR17-35" d="M 730 3692 
C 794 3666 1056 3584 1325 3584 
C 1920 3584 2246 3911 2432 4100 
C 2432 4157 2432 4192 2394 4192 
C 2387 4192 2374 4192 2323 4163 
C 2099 4058 1837 3973 1517 3973 
C 1325 3973 1037 3999 723 4139 
C 653 4171 640 4171 634 4171 
C 602 4171 595 4164 595 4037 
L 595 2203 
C 595 2089 595 2057 659 2057 
C 691 2057 704 2070 736 2114 
C 941 2401 1222 2522 1542 2522 
C 1766 2522 2246 2382 2246 1289 
C 2246 1085 2246 715 2054 421 
C 1894 159 1645 25 1370 25 
C 947 25 518 320 403 814 
C 429 807 480 795 506 795 
C 589 795 749 840 749 1038 
C 749 1210 627 1280 506 1280 
C 358 1280 262 1190 262 1011 
C 262 454 704 -128 1382 -128 
C 2042 -128 2669 440 2669 1264 
C 2669 2030 2170 2624 1549 2624 
C 1222 2624 947 2503 730 2274 
L 730 3692 
z
" transform="scale(0.015625)"/>
       </defs>
       <use xlink:href="#CMR17-30" transform="scale(0.996264)"/>
       <use xlink:href="#CMMI12-3a" transform="translate(45.690477 0) scale(0.996264)"/>
       <use xlink:href="#CMR17-32" transform="translate(72.787654 0) scale(0.996264)"/>
       <use xlink:href="#CMR17-35" transform="translate(118.478131 0) scale(0.996264)"/>
      </g>
     </g>
    </g>
    <g id="xtick_3">
     <g id="line2d_5">
      <path d="M 259.73969 521.153031 
L 259.73969 51.564121 
" clip-path="url(#pe0d44f2bad)" style="fill: none; stroke: #ffffff; stroke-linecap: round"/>
     </g>
     <g id="line2d_6"/>
     <g id="text_3">
      <!-- $\mathdefault{0.50}$ -->
      <g style="fill: #262626" transform="translate(247.600155 537.838907) scale(0.14 -0.14)">
       <use xlink:href="#CMR17-30" transform="scale(0.996264)"/>
       <use xlink:href="#CMMI12-3a" transform="translate(45.690477 0) scale(0.996264)"/>
       <use xlink:href="#CMR17-35" transform="translate(72.787654 0) scale(0.996264)"/>
       <use xlink:href="#CMR17-30" transform="translate(118.478131 0) scale(0.996264)"/>
      </g>
     </g>
    </g>
    <g id="xtick_4">
     <g id="line2d_7">
      <path d="M 365.33 521.153031 
L 365.33 51.564121 
" clip-path="url(#pe0d44f2bad)" style="fill: none; stroke: #ffffff; stroke-linecap: round"/>
     </g>
     <g id="line2d_8"/>
     <g id="text_4">
      <!-- $\mathdefault{0.75}$ -->
      <g style="fill: #262626" transform="translate(353.190464 537.838907) scale(0.14 -0.14)">
       <defs>
        <path id="CMR17-37" d="M 2886 3941 
L 2886 4081 
L 1382 4081 
C 634 4081 621 4165 595 4288 
L 480 4288 
L 294 3094 
L 410 3094 
C 429 3215 474 3540 550 3661 
C 589 3712 1062 3712 1171 3712 
L 2579 3712 
L 1869 2661 
C 1395 1954 1069 999 1069 165 
C 1069 89 1069 -128 1299 -128 
C 1530 -128 1530 89 1530 171 
L 1530 465 
C 1530 1508 1709 2196 2003 2636 
L 2886 3941 
z
" transform="scale(0.015625)"/>
       </defs>
       <use xlink:href="#CMR17-30" transform="scale(0.996264)"/>
       <use xlink:href="#CMMI12-3a" transform="translate(45.690477 0) scale(0.996264)"/>
       <use xlink:href="#CMR17-37" transform="translate(72.787654 0) scale(0.996264)"/>
       <use xlink:href="#CMR17-35" transform="translate(118.478131 0) scale(0.996264)"/>
      </g>
     </g>
    </g>
    <g id="xtick_5">
     <g id="line2d_9">
      <path d="M 470.920309 521.153031 
L 470.920309 51.564121 
" clip-path="url(#pe0d44f2bad)" style="fill: none; stroke: #ffffff; stroke-linecap: round"/>
     </g>
     <g id="line2d_10"/>
     <g id="text_5">
      <!-- $\mathdefault{1.00}$ -->
      <g style="fill: #262626" transform="translate(458.780774 537.838907) scale(0.14 -0.14)">
       <defs>
        <path id="CMR17-31" d="M 1702 4058 
C 1702 4192 1696 4192 1606 4192 
C 1357 3916 979 3827 621 3827 
C 602 3827 570 3827 563 3808 
C 557 3795 557 3782 557 3648 
C 755 3648 1088 3686 1344 3839 
L 1344 461 
C 1344 236 1331 160 781 160 
L 589 160 
L 589 0 
C 896 0 1216 0 1523 0 
C 1830 0 2150 0 2458 0 
L 2458 160 
L 2266 160 
C 1715 160 1702 230 1702 458 
L 1702 4058 
z
" transform="scale(0.015625)"/>
       </defs>
       <use xlink:href="#CMR17-31" transform="scale(0.996264)"/>
       <use xlink:href="#CMMI12-3a" transform="translate(45.690477 0) scale(0.996264)"/>
       <use xlink:href="#CMR17-30" transform="translate(72.787654 0) scale(0.996264)"/>
       <use xlink:href="#CMR17-30" transform="translate(118.478131 0) scale(0.996264)"/>
      </g>
     </g>
    </g>
    <g id="xtick_6">
     <g id="line2d_11">
      <path d="M 576.510619 521.153031 
L 576.510619 51.564121 
" clip-path="url(#pe0d44f2bad)" style="fill: none; stroke: #ffffff; stroke-linecap: round"/>
     </g>
     <g id="line2d_12"/>
     <g id="text_6">
      <!-- $\mathdefault{1.25}$ -->
      <g style="fill: #262626" transform="translate(564.371084 537.838907) scale(0.14 -0.14)">
       <use xlink:href="#CMR17-31" transform="scale(0.996264)"/>
       <use xlink:href="#CMMI12-3a" transform="translate(45.690477 0) scale(0.996264)"/>
       <use xlink:href="#CMR17-32" transform="translate(72.787654 0) scale(0.996264)"/>
       <use xlink:href="#CMR17-35" transform="translate(118.478131 0) scale(0.996264)"/>
      </g>
     </g>
    </g>
    <g id="xtick_7">
     <g id="line2d_13">
      <path d="M 682.100929 521.153031 
L 682.100929 51.564121 
" clip-path="url(#pe0d44f2bad)" style="fill: none; stroke: #ffffff; stroke-linecap: round"/>
     </g>
     <g id="line2d_14"/>
     <g id="text_7">
      <!-- $\mathdefault{1.50}$ -->
      <g style="fill: #262626" transform="translate(669.961393 537.838907) scale(0.14 -0.14)">
       <use xlink:href="#CMR17-31" transform="scale(0.996264)"/>
       <use xlink:href="#CMMI12-3a" transform="translate(45.690477 0) scale(0.996264)"/>
       <use xlink:href="#CMR17-35" transform="translate(72.787654 0) scale(0.996264)"/>
       <use xlink:href="#CMR17-30" transform="translate(118.478131 0) scale(0.996264)"/>
      </g>
     </g>
    </g>
    <g id="xtick_8">
     <g id="line2d_15">
      <path d="M 787.691238 521.153031 
L 787.691238 51.564121 
" clip-path="url(#pe0d44f2bad)" style="fill: none; stroke: #ffffff; stroke-linecap: round"/>
     </g>
     <g id="line2d_16"/>
     <g id="text_8">
      <!-- $\mathdefault{1.75}$ -->
      <g style="fill: #262626" transform="translate(775.551703 537.838907) scale(0.14 -0.14)">
       <use xlink:href="#CMR17-31" transform="scale(0.996264)"/>
       <use xlink:href="#CMMI12-3a" transform="translate(45.690477 0) scale(0.996264)"/>
       <use xlink:href="#CMR17-37" transform="translate(72.787654 0) scale(0.996264)"/>
       <use xlink:href="#CMR17-35" transform="translate(118.478131 0) scale(0.996264)"/>
      </g>
     </g>
    </g>
    <g id="xtick_9">
     <g id="line2d_17">
      <path d="M 893.281548 521.153031 
L 893.281548 51.564121 
" clip-path="url(#pe0d44f2bad)" style="fill: none; stroke: #ffffff; stroke-linecap: round"/>
     </g>
     <g id="line2d_18"/>
     <g id="text_9">
      <!-- $\mathdefault{2.00}$ -->
      <g style="fill: #262626" transform="translate(881.142013 537.838907) scale(0.14 -0.14)">
       <use xlink:href="#CMR17-32" transform="scale(0.996264)"/>
       <use xlink:href="#CMMI12-3a" transform="translate(45.690477 0) scale(0.996264)"/>
       <use xlink:href="#CMR17-30" transform="translate(72.787654 0) scale(0.996264)"/>
       <use xlink:href="#CMR17-30" transform="translate(118.478131 0) scale(0.996264)"/>
      </g>
     </g>
    </g>
    <g id="text_10">
     <!-- $x$ -->
     <g style="fill: #262626" transform="translate(487.603646 555.620524) scale(0.16 -0.16)">
      <defs>
       <path id="CMMI12-78" d="M 3034 2606 
C 2829 2567 2752 2414 2752 2293 
C 2752 2139 2874 2088 2963 2088 
C 3155 2088 3290 2254 3290 2427 
C 3290 2695 2982 2816 2714 2816 
C 2323 2816 2106 2433 2048 2312 
C 1901 2816 1504 2816 1389 2816 
C 736 2816 390 1980 390 1839 
C 390 1814 416 1782 461 1782 
C 512 1782 525 1820 538 1846 
C 755 2555 1184 2689 1370 2689 
C 1658 2689 1715 2420 1715 2267 
C 1715 2127 1677 1980 1600 1673 
L 1382 798 
C 1286 415 1101 64 762 64 
C 730 64 570 64 435 147 
C 666 192 717 383 717 460 
C 717 588 621 664 499 664 
C 346 664 179 530 179 326 
C 179 57 480 -64 755 -64 
C 1062 -64 1280 179 1414 441 
C 1517 64 1837 -64 2074 -64 
C 2726 -64 3072 773 3072 913 
C 3072 945 3046 971 3008 971 
C 2950 971 2944 939 2925 888 
C 2752 326 2381 64 2093 64 
C 1869 64 1747 230 1747 492 
C 1747 632 1773 734 1875 1156 
L 2099 2024 
C 2195 2408 2413 2689 2707 2689 
C 2720 2689 2899 2689 3034 2606 
z
" transform="scale(0.015625)"/>
      </defs>
      <use xlink:href="#CMMI12-78" transform="scale(0.996264)"/>
     </g>
    </g>
   </g>
   <g id="matplotlib.axis_2">
    <g id="ytick_1">
     <g id="line2d_19">
      <path d="M 48.559071 521.153031 
L 935.517672 521.153031 
" clip-path="url(#pe0d44f2bad)" style="fill: none; stroke: #ffffff; stroke-linecap: round"/>
     </g>
     <g id="line2d_20"/>
     <g id="text_11">
      <!-- $\mathdefault{0.00}$ -->
      <g style="fill: #262626" transform="translate(17.28 525.995969) scale(0.14 -0.14)">
       <use xlink:href="#CMR17-30" transform="scale(0.996264)"/>
       <use xlink:href="#CMMI12-3a" transform="translate(45.690477 0) scale(0.996264)"/>
       <use xlink:href="#CMR17-30" transform="translate(72.787654 0) scale(0.996264)"/>
       <use xlink:href="#CMR17-30" transform="translate(118.478131 0) scale(0.996264)"/>
      </g>
     </g>
    </g>
    <g id="ytick_2">
     <g id="line2d_21">
      <path d="M 48.559071 465.231928 
L 935.517672 465.231928 
" clip-path="url(#pe0d44f2bad)" style="fill: none; stroke: #ffffff; stroke-linecap: round"/>
     </g>
     <g id="line2d_22"/>
     <g id="text_12">
      <!-- $\mathdefault{0.25}$ -->
      <g style="fill: #262626" transform="translate(17.28 470.074866) scale(0.14 -0.14)">
       <use xlink:href="#CMR17-30" transform="scale(0.996264)"/>
       <use xlink:href="#CMMI12-3a" transform="translate(45.690477 0) scale(0.996264)"/>
       <use xlink:href="#CMR17-32" transform="translate(72.787654 0) scale(0.996264)"/>
       <use xlink:href="#CMR17-35" transform="translate(118.478131 0) scale(0.996264)"/>
      </g>
     </g>
    </g>
    <g id="ytick_3">
     <g id="line2d_23">
      <path d="M 48.559071 409.310825 
L 935.517672 409.310825 
" clip-path="url(#pe0d44f2bad)" style="fill: none; stroke: #ffffff; stroke-linecap: round"/>
     </g>
     <g id="line2d_24"/>
     <g id="text_13">
      <!-- $\mathdefault{0.50}$ -->
      <g style="fill: #262626" transform="translate(17.28 414.153763) scale(0.14 -0.14)">
       <use xlink:href="#CMR17-30" transform="scale(0.996264)"/>
       <use xlink:href="#CMMI12-3a" transform="translate(45.690477 0) scale(0.996264)"/>
       <use xlink:href="#CMR17-35" transform="translate(72.787654 0) scale(0.996264)"/>
       <use xlink:href="#CMR17-30" transform="translate(118.478131 0) scale(0.996264)"/>
      </g>
     </g>
    </g>
    <g id="ytick_4">
     <g id="line2d_25">
      <path d="M 48.559071 353.389722 
L 935.517672 353.389722 
" clip-path="url(#pe0d44f2bad)" style="fill: none; stroke: #ffffff; stroke-linecap: round"/>
     </g>
     <g id="line2d_26"/>
     <g id="text_14">
      <!-- $\mathdefault{0.75}$ -->
      <g style="fill: #262626" transform="translate(17.28 358.23266) scale(0.14 -0.14)">
       <use xlink:href="#CMR17-30" transform="scale(0.996264)"/>
       <use xlink:href="#CMMI12-3a" transform="translate(45.690477 0) scale(0.996264)"/>
       <use xlink:href="#CMR17-37" transform="translate(72.787654 0) scale(0.996264)"/>
       <use xlink:href="#CMR17-35" transform="translate(118.478131 0) scale(0.996264)"/>
      </g>
     </g>
    </g>
    <g id="ytick_5">
     <g id="line2d_27">
      <path d="M 48.559071 297.468619 
L 935.517672 297.468619 
" clip-path="url(#pe0d44f2bad)" style="fill: none; stroke: #ffffff; stroke-linecap: round"/>
     </g>
     <g id="line2d_28"/>
     <g id="text_15">
      <!-- $\mathdefault{1.00}$ -->
      <g style="fill: #262626" transform="translate(17.28 302.311558) scale(0.14 -0.14)">
       <use xlink:href="#CMR17-31" transform="scale(0.996264)"/>
       <use xlink:href="#CMMI12-3a" transform="translate(45.690477 0) scale(0.996264)"/>
       <use xlink:href="#CMR17-30" transform="translate(72.787654 0) scale(0.996264)"/>
       <use xlink:href="#CMR17-30" transform="translate(118.478131 0) scale(0.996264)"/>
      </g>
     </g>
    </g>
    <g id="ytick_6">
     <g id="line2d_29">
      <path d="M 48.559071 241.547517 
L 935.517672 241.547517 
" clip-path="url(#pe0d44f2bad)" style="fill: none; stroke: #ffffff; stroke-linecap: round"/>
     </g>
     <g id="line2d_30"/>
     <g id="text_16">
      <!-- $\mathdefault{1.25}$ -->
      <g style="fill: #262626" transform="translate(17.28 246.390455) scale(0.14 -0.14)">
       <use xlink:href="#CMR17-31" transform="scale(0.996264)"/>
       <use xlink:href="#CMMI12-3a" transform="translate(45.690477 0) scale(0.996264)"/>
       <use xlink:href="#CMR17-32" transform="translate(72.787654 0) scale(0.996264)"/>
       <use xlink:href="#CMR17-35" transform="translate(118.478131 0) scale(0.996264)"/>
      </g>
     </g>
    </g>
    <g id="ytick_7">
     <g id="line2d_31">
      <path d="M 48.559071 185.626414 
L 935.517672 185.626414 
" clip-path="url(#pe0d44f2bad)" style="fill: none; stroke: #ffffff; stroke-linecap: round"/>
     </g>
     <g id="line2d_32"/>
     <g id="text_17">
      <!-- $\mathdefault{1.50}$ -->
      <g style="fill: #262626" transform="translate(17.28 190.469352) scale(0.14 -0.14)">
       <use xlink:href="#CMR17-31" transform="scale(0.996264)"/>
       <use xlink:href="#CMMI12-3a" transform="translate(45.690477 0) scale(0.996264)"/>
       <use xlink:href="#CMR17-35" transform="translate(72.787654 0) scale(0.996264)"/>
       <use xlink:href="#CMR17-30" transform="translate(118.478131 0) scale(0.996264)"/>
      </g>
     </g>
    </g>
    <g id="ytick_8">
     <g id="line2d_33">
      <path d="M 48.559071 129.705311 
L 935.517672 129.705311 
" clip-path="url(#pe0d44f2bad)" style="fill: none; stroke: #ffffff; stroke-linecap: round"/>
     </g>
     <g id="line2d_34"/>
     <g id="text_18">
      <!-- $\mathdefault{1.75}$ -->
      <g style="fill: #262626" transform="translate(17.28 134.548249) scale(0.14 -0.14)">
       <use xlink:href="#CMR17-31" transform="scale(0.996264)"/>
       <use xlink:href="#CMMI12-3a" transform="translate(45.690477 0) scale(0.996264)"/>
       <use xlink:href="#CMR17-37" transform="translate(72.787654 0) scale(0.996264)"/>
       <use xlink:href="#CMR17-35" transform="translate(118.478131 0) scale(0.996264)"/>
      </g>
     </g>
    </g>
    <g id="ytick_9">
     <g id="line2d_35">
      <path d="M 48.559071 73.784208 
L 935.517672 73.784208 
" clip-path="url(#pe0d44f2bad)" style="fill: none; stroke: #ffffff; stroke-linecap: round"/>
     </g>
     <g id="line2d_36"/>
     <g id="text_19">
      <!-- $\mathdefault{2.00}$ -->
      <g style="fill: #262626" transform="translate(17.28 78.627146) scale(0.14 -0.14)">
       <use xlink:href="#CMR17-32" transform="scale(0.996264)"/>
       <use xlink:href="#CMMI12-3a" transform="translate(45.690477 0) scale(0.996264)"/>
       <use xlink:href="#CMR17-30" transform="translate(72.787654 0) scale(0.996264)"/>
       <use xlink:href="#CMR17-30" transform="translate(118.478131 0) scale(0.996264)"/>
      </g>
     </g>
    </g>
   </g>
   <g id="line2d_37">
    <path d="M 48.559071 73.784208 
L 57.006295 73.784208 
L 65.45352 73.784208 
L 73.900745 73.784208 
L 82.34797 73.784208 
L 90.795195 73.784208 
L 99.242419 73.784208 
L 107.689644 73.784208 
L 116.136869 73.784208 
L 124.584094 73.784208 
L 133.031318 73.784208 
L 141.478543 73.784208 
L 149.925768 73.784208 
L 158.372993 73.784208 
L 166.820217 73.784208 
L 175.267442 73.784208 
L 183.714667 73.784208 
L 192.161892 73.784208 
L 200.609117 73.784208 
L 209.056341 73.784208 
L 217.503566 73.784208 
L 225.950791 73.784208 
L 234.398016 73.784208 
L 242.84524 73.784208 
L 251.292465 73.784208 
L 259.73969 73.784208 
L 268.186915 73.784208 
L 276.63414 73.784208 
L 285.081364 73.784208 
L 293.528589 73.784208 
L 301.975814 73.784208 
L 310.423039 73.784208 
L 318.870263 73.784208 
L 327.317488 73.784208 
L 335.764713 73.784208 
L 344.211938 73.784208 
L 352.659162 73.784208 
L 361.106387 73.784208 
L 369.553612 73.784208 
L 378.000837 73.784208 
L 386.448062 73.784208 
L 394.895286 73.784208 
L 403.342511 73.784208 
L 411.789736 73.784208 
L 420.236961 73.784208 
L 428.684185 73.784208 
L 437.13141 73.784208 
L 445.578635 73.784208 
L 454.02586 73.784208 
L 462.473085 73.784208 
L 470.920309 73.784208 
L 479.367534 73.784208 
L 487.814759 73.784208 
L 496.261984 73.784208 
L 504.709208 73.784208 
L 513.156433 73.784208 
L 521.603658 73.784208 
L 530.050883 73.784208 
L 538.498107 73.784208 
L 546.945332 73.784208 
L 555.392557 73.784208 
L 563.839782 73.784208 
L 572.287007 73.784208 
L 580.734231 73.784208 
L 589.181456 73.784208 
L 597.628681 73.784208 
L 606.075906 73.784208 
L 614.52313 73.784208 
L 622.970355 73.784208 
L 631.41758 73.784208 
L 639.864805 73.784208 
L 648.31203 73.784208 
L 656.759254 73.784208 
L 665.206479 73.784208 
L 673.653704 73.784208 
L 682.100929 73.784208 
L 690.548153 73.784208 
L 698.995378 73.784208 
L 707.442603 73.784208 
L 715.889828 73.784208 
L 724.337052 73.784208 
L 732.784277 73.784208 
L 741.231502 73.784208 
L 749.678727 73.784208 
L 758.125952 73.784208 
L 766.573176 73.784208 
L 775.020401 73.784208 
L 783.467626 73.784208 
L 791.914851 73.784208 
L 800.362075 73.784208 
L 808.8093 73.784208 
L 817.256525 73.784208 
L 825.70375 73.784208 
L 834.150975 73.784208 
L 842.598199 73.784208 
L 851.045424 73.784208 
L 859.492649 73.784208 
L 867.939874 73.784208 
L 876.387098 73.784208 
L 884.834323 73.784208 
L 893.281548 73.784208 
" clip-path="url(#pe0d44f2bad)" style="fill: none; stroke: #393b79; stroke-width: 2; stroke-linecap: round"/>
   </g>
   <g id="line2d_38">
    <path d="M 48.559071 107.900491 
L 57.006295 107.816962 
L 65.45352 107.73365 
L 73.900745 107.649695 
L 82.34797 107.565847 
L 90.795195 107.482218 
L 99.242419 107.398807 
L 107.689644 107.315613 
L 116.136869 107.232635 
L 124.584094 107.149874 
L 133.031318 107.067328 
L 141.478543 106.984999 
L 149.925768 106.902885 
L 158.372993 106.820985 
L 166.820217 106.739297 
L 175.267442 106.657823 
L 183.714667 106.57656 
L 192.161892 106.495508 
L 200.609117 106.414667 
L 209.056341 106.334036 
L 217.503566 106.253617 
L 225.950791 106.173406 
L 234.398016 106.093404 
L 242.84524 106.01361 
L 251.292465 105.934023 
L 259.73969 105.854642 
L 268.186915 105.775468 
L 276.63414 105.6965 
L 285.081364 105.617737 
L 293.528589 105.539178 
L 301.975814 105.460823 
L 310.423039 105.382672 
L 318.870263 105.304724 
L 327.317488 105.226978 
L 335.764713 105.149434 
L 344.211938 105.072091 
L 352.659162 104.99495 
L 361.106387 104.91801 
L 369.553612 104.841269 
L 378.000837 104.764729 
L 386.448062 104.688389 
L 394.895286 104.612246 
L 403.342511 104.5363 
L 411.789736 104.460001 
L 420.236961 104.383562 
L 428.684185 104.307321 
L 437.13141 104.231278 
L 445.578635 104.155432 
L 454.02586 104.079782 
L 462.473085 104.004328 
L 470.920309 103.92907 
L 479.367534 103.854007 
L 487.814759 103.779138 
L 496.261984 103.704463 
L 504.709208 103.629982 
L 513.156433 103.555695 
L 521.603658 103.4816 
L 530.050883 103.407697 
L 538.498107 103.333985 
L 546.945332 103.260463 
L 555.392557 103.187133 
L 563.839782 103.113994 
L 572.287007 103.041043 
L 580.734231 102.968282 
L 589.181456 102.895709 
L 597.628681 102.823323 
L 606.075906 102.751127 
L 614.52313 102.679117 
L 622.970355 102.607294 
L 631.41758 102.535657 
L 639.864805 102.464205 
L 648.31203 102.392938 
L 656.759254 102.321855 
L 665.206479 102.250956 
L 673.653704 102.180241 
L 682.100929 102.109708 
L 690.548153 102.039357 
L 698.995378 101.969189 
L 707.442603 101.899201 
L 715.889828 101.829396 
L 724.337052 101.75977 
L 732.784277 101.690325 
L 741.231502 101.621059 
L 749.678727 101.551971 
L 758.125952 101.483063 
L 766.573176 101.414332 
L 775.020401 101.345778 
L 783.467626 101.277402 
L 791.914851 101.208687 
L 800.362075 101.139863 
L 808.8093 101.071218 
L 817.256525 101.002749 
L 825.70375 100.934457 
L 834.150975 100.866342 
L 842.598199 100.798402 
L 851.045424 100.730637 
L 859.492649 100.663048 
L 867.939874 100.595632 
L 876.387098 100.528391 
L 884.834323 100.461323 
L 893.281548 100.394428 
" clip-path="url(#pe0d44f2bad)" style="fill: none; stroke: #6b6ecf; stroke-width: 2; stroke-linecap: round"/>
   </g>
   <g id="line2d_39">
    <path d="M 48.559071 213.220846 
L 57.006295 212.953389 
L 65.45352 212.685656 
L 73.900745 212.418747 
L 82.34797 212.152647 
L 90.795195 211.887339 
L 99.242419 211.622813 
L 107.689644 211.359074 
L 116.136869 211.096092 
L 124.584094 210.83168 
L 133.031318 210.567579 
L 141.478543 210.304264 
L 149.925768 210.041727 
L 158.372993 209.779988 
L 166.820217 209.519012 
L 175.267442 209.258817 
L 183.714667 208.999406 
L 192.161892 208.738483 
L 200.609117 208.477958 
L 209.056341 208.218215 
L 217.503566 207.959229 
L 225.950791 207.700989 
L 234.398016 207.44351 
L 242.84524 207.186778 
L 251.292465 206.930783 
L 259.73969 206.673677 
L 268.186915 206.41657 
L 276.63414 206.160217 
L 285.081364 205.904627 
L 293.528589 205.649787 
L 301.975814 205.395686 
L 310.423039 205.142342 
L 318.870263 204.889737 
L 327.317488 204.636956 
L 335.764713 204.383245 
L 344.211938 204.130259 
L 352.659162 203.878014 
L 361.106387 203.626507 
L 369.553612 203.375717 
L 378.000837 203.125644 
L 386.448062 202.876286 
L 394.895286 202.627656 
L 403.342511 202.377725 
L 411.789736 202.128014 
L 420.236961 201.879032 
L 428.684185 201.630774 
L 437.13141 201.383219 
L 445.578635 201.136368 
L 454.02586 200.890234 
L 462.473085 200.644797 
L 470.920309 200.400014 
L 479.367534 200.153466 
L 487.814759 199.907632 
L 496.261984 199.6625 
L 504.709208 199.418082 
L 513.156433 199.174357 
L 521.603658 198.931326 
L 530.050883 198.688997 
L 538.498107 198.447367 
L 546.945332 198.206417 
L 555.392557 197.963705 
L 563.839782 197.721674 
L 572.287007 197.480329 
L 580.734231 197.239677 
L 589.181456 196.999706 
L 597.628681 196.760408 
L 606.075906 196.521783 
L 614.52313 196.283831 
L 622.970355 196.046544 
L 631.41758 195.808045 
L 639.864805 195.569654 
L 648.31203 195.331946 
L 656.759254 195.094937 
L 665.206479 194.858628 
L 673.653704 194.62298 
L 682.100929 194.387988 
L 690.548153 194.153666 
L 698.995378 193.920008 
L 707.442603 193.686345 
L 715.889828 193.451576 
L 724.337052 193.217453 
L 732.784277 192.983975 
L 741.231502 192.751154 
L 749.678727 192.519013 
L 758.125952 192.287538 
L 766.573176 192.056707 
L 775.020401 191.826518 
L 783.467626 191.596967 
L 791.914851 191.366825 
L 800.362075 191.136183 
L 808.8093 190.906178 
L 817.256525 190.676811 
L 825.70375 190.448087 
L 834.150975 190.220007 
L 842.598199 189.9926 
L 851.045424 189.765823 
L 859.492649 189.539682 
L 867.939874 189.314168 
L 876.387098 189.08813 
L 884.834323 188.861523 
L 893.281548 188.635536 
" clip-path="url(#pe0d44f2bad)" style="fill: none; stroke: #637939; stroke-width: 2; stroke-linecap: round"/>
   </g>
   <g id="line2d_40">
    <path d="M 48.559071 298.793377 
L 57.006295 298.408872 
L 65.45352 298.025029 
L 73.900745 297.64274 
L 82.34797 297.260437 
L 90.795195 296.877676 
L 99.242419 296.496323 
L 107.689644 296.116206 
L 116.136869 295.734514 
L 124.584094 295.354218 
L 133.031318 294.975322 
L 141.478543 294.595596 
L 149.925768 294.216305 
L 158.372993 293.838441 
L 166.820217 293.46108 
L 175.267442 293.082798 
L 183.714667 292.705941 
L 192.161892 292.330451 
L 200.609117 291.95375 
L 209.056341 291.577826 
L 217.503566 291.203258 
L 225.950791 290.829168 
L 234.398016 290.454146 
L 242.84524 290.080487 
L 251.292465 289.70819 
L 259.73969 289.334922 
L 268.186915 288.962112 
L 276.63414 288.590653 
L 285.081364 288.220243 
L 293.528589 287.848307 
L 301.975814 287.477735 
L 310.423039 287.108536 
L 318.870263 286.73926 
L 327.317488 286.369481 
L 335.764713 286.001017 
L 344.211938 285.633834 
L 352.659162 285.265811 
L 361.106387 284.898204 
L 369.553612 284.531897 
L 378.000837 284.166874 
L 386.448062 283.800054 
L 394.895286 283.434447 
L 403.342511 283.070167 
L 411.789736 282.706751 
L 420.236961 282.341903 
L 428.684185 281.978378 
L 437.13141 281.616138 
L 445.578635 281.25427 
L 454.02586 280.89142 
L 462.473085 280.529829 
L 470.920309 280.169531 
L 479.367534 279.809379 
L 487.814759 279.448464 
L 496.261984 279.088806 
L 504.709208 278.730458 
L 513.156433 278.372149 
L 521.603658 278.013115 
L 530.050883 277.655362 
L 538.498107 277.298894 
L 546.945332 276.942582 
L 555.392557 276.58546 
L 563.839782 276.229587 
L 572.287007 275.87494 
L 580.734231 275.520733 
L 589.181456 275.165414 
L 597.628681 274.811335 
L 606.075906 274.458478 
L 614.52313 274.10651 
L 622.970355 273.752948 
L 631.41758 273.400647 
L 639.864805 273.04954 
L 648.31203 272.69962 
L 656.759254 272.348087 
L 665.206479 271.997491 
L 673.653704 271.648223 
L 682.100929 271.300113 
L 690.548153 270.951233 
L 698.995378 270.602319 
L 707.442603 270.2546 
L 715.889828 269.908091 
L 724.337052 269.561906 
L 732.784277 269.214644 
L 741.231502 268.868576 
L 749.678727 268.52371 
L 758.125952 268.180038 
L 766.573176 267.834799 
L 775.020401 267.490331 
L 783.467626 267.147035 
L 791.914851 266.804909 
L 800.362075 266.462709 
L 808.8093 266.11981 
L 817.256525 265.778055 
L 825.70375 265.437474 
L 834.150975 265.098047 
L 842.598199 264.757132 
L 851.045424 264.416933 
L 859.492649 264.077874 
L 867.939874 263.739945 
L 876.387098 263.402438 
L 884.834323 263.063714 
L 893.281548 262.726124 
" clip-path="url(#pe0d44f2bad)" style="fill: none; stroke: #b5cf6b; stroke-width: 2; stroke-linecap: round"/>
   </g>
   <g id="line2d_41">
    <path d="M 48.559071 420.449261 
L 57.006295 419.995535 
L 65.45352 419.541797 
L 73.900745 419.088109 
L 82.34797 418.634375 
L 90.795195 418.180525 
L 99.242419 417.726308 
L 107.689644 417.272148 
L 116.136869 416.817958 
L 124.584094 416.363634 
L 133.031318 415.909358 
L 141.478543 415.455039 
L 149.925768 415.000627 
L 158.372993 414.54627 
L 166.820217 414.091767 
L 175.267442 413.637106 
L 183.714667 413.182465 
L 192.161892 412.727781 
L 200.609117 412.273067 
L 209.056341 411.818376 
L 217.503566 411.363648 
L 225.950791 410.908893 
L 234.398016 410.454153 
L 242.84524 409.999391 
L 251.292465 409.544613 
L 259.73969 409.089811 
L 268.186915 408.63502 
L 276.63414 408.180229 
L 285.081364 407.725438 
L 293.528589 407.270697 
L 301.975814 406.81596 
L 310.423039 406.361264 
L 318.870263 405.906603 
L 327.317488 405.451895 
L 335.764713 404.997275 
L 344.211938 404.542603 
L 352.659162 404.088134 
L 361.106387 403.63365 
L 369.553612 403.179235 
L 378.000837 402.724869 
L 386.448062 402.270546 
L 394.895286 401.816137 
L 403.342511 401.361744 
L 411.789736 400.907454 
L 420.236961 400.453236 
L 428.684185 399.999126 
L 437.13141 399.545107 
L 445.578635 399.091178 
L 454.02586 398.637394 
L 462.473085 398.18372 
L 470.920309 397.730181 
L 479.367534 397.276391 
L 487.814759 396.822731 
L 496.261984 396.369202 
L 504.709208 395.915855 
L 513.156433 395.462691 
L 521.603658 395.009687 
L 530.050883 394.556833 
L 538.498107 394.103707 
L 546.945332 393.65078 
L 555.392557 393.198051 
L 563.839782 392.745564 
L 572.287007 392.293304 
L 580.734231 391.84105 
L 589.181456 391.388643 
L 597.628681 390.936433 
L 606.075906 390.484561 
L 614.52313 390.03295 
L 622.970355 389.581329 
L 631.41758 389.12959 
L 639.864805 388.678129 
L 648.31203 388.226931 
L 656.759254 387.776095 
L 665.206479 387.324992 
L 673.653704 386.874109 
L 682.100929 386.423565 
L 690.548153 385.973393 
L 698.995378 385.52304 
L 707.442603 385.072685 
L 715.889828 384.622745 
L 724.337052 384.173242 
L 732.784277 383.723522 
L 741.231502 383.273887 
L 749.678727 382.824727 
L 758.125952 382.37607 
L 766.573176 381.926817 
L 775.020401 381.478021 
L 783.467626 381.029734 
L 791.914851 380.581493 
L 800.362075 380.13309 
L 808.8093 379.685248 
L 817.256525 379.237952 
L 825.70375 378.789981 
L 834.150975 378.342632 
L 842.598199 377.895919 
L 851.045424 377.448787 
L 859.492649 377.001957 
L 867.939874 376.555858 
L 876.387098 376.109454 
L 884.834323 375.663282 
L 893.281548 375.21778 
" clip-path="url(#pe0d44f2bad)" style="fill: none; stroke: #8c6d31; stroke-width: 2; stroke-linecap: round"/>
   </g>
   <g id="line2d_42">
    <path d="M 48.559071 483.458898 
L 57.006295 483.08565 
L 65.45352 482.711328 
L 73.900745 482.335954 
L 82.34797 481.959515 
L 90.795195 481.582005 
L 99.242419 481.203429 
L 107.689644 480.823875 
L 116.136869 480.443304 
L 124.584094 480.061637 
L 133.031318 479.679 
L 141.478543 479.295364 
L 149.925768 478.910733 
L 158.372993 478.525175 
L 166.820217 478.138585 
L 175.267442 477.751085 
L 183.714667 477.36261 
L 192.161892 476.973211 
L 200.609117 476.582843 
L 209.056341 476.191615 
L 217.503566 475.799396 
L 225.950791 475.406339 
L 234.398016 475.012336 
L 242.84524 474.617437 
L 251.292465 474.221698 
L 259.73969 473.825062 
L 268.186915 473.427517 
L 276.63414 473.029135 
L 285.081364 472.62991 
L 293.528589 472.229877 
L 301.975814 471.82901 
L 310.423039 471.42733 
L 318.870263 471.024837 
L 327.317488 470.621487 
L 335.764713 470.217379 
L 344.211938 469.812407 
L 352.659162 469.406756 
L 361.106387 469.0003 
L 369.553612 468.593102 
L 378.000837 468.185155 
L 386.448062 467.776367 
L 394.895286 467.36683 
L 403.342511 466.956615 
L 411.789736 466.545749 
L 420.236961 466.134027 
L 428.684185 465.721652 
L 437.13141 465.30866 
L 445.578635 464.894809 
L 454.02586 464.480394 
L 462.473085 464.06522 
L 470.920309 463.649407 
L 479.367534 463.23292 
L 487.814759 462.815791 
L 496.261984 462.397971 
L 504.709208 461.979577 
L 513.156433 461.560458 
L 521.603658 461.14081 
L 530.050883 460.720424 
L 538.498107 460.299486 
L 546.945332 459.878037 
L 555.392557 459.455819 
L 563.839782 459.033081 
L 572.287007 458.609802 
L 580.734231 458.185905 
L 589.181456 457.761386 
L 597.628681 457.336307 
L 606.075906 456.910742 
L 614.52313 456.484627 
L 622.970355 456.057901 
L 631.41758 455.630644 
L 639.864805 455.202845 
L 648.31203 454.77448 
L 656.759254 454.345631 
L 665.206479 453.916322 
L 673.653704 453.486542 
L 682.100929 453.056238 
L 690.548153 452.625421 
L 698.995378 452.194098 
L 707.442603 451.762301 
L 715.889828 451.330034 
L 724.337052 450.897291 
L 732.784277 450.464096 
L 741.231502 450.030463 
L 749.678727 449.596395 
L 758.125952 449.161912 
L 766.573176 448.726999 
L 775.020401 448.291565 
L 783.467626 447.855686 
L 791.914851 447.419417 
L 800.362075 446.982784 
L 808.8093 446.545783 
L 817.256525 446.108378 
L 825.70375 445.670432 
L 834.150975 445.232169 
L 842.598199 444.793612 
L 851.045424 444.354723 
L 859.492649 443.915251 
L 867.939874 443.475549 
L 876.387098 443.035591 
L 884.834323 442.595084 
L 893.281548 442.154275 
" clip-path="url(#pe0d44f2bad)" style="fill: none; stroke: #e7cb94; stroke-width: 2; stroke-linecap: round"/>
   </g>
   <g id="line2d_43">
    <path d="M 48.559071 503.698379 
L 57.006295 503.411271 
L 65.45352 503.1224 
L 73.900745 502.831828 
L 82.34797 502.539508 
L 90.795195 502.245457 
L 99.242419 501.949684 
L 107.689644 501.652258 
L 116.136869 501.353146 
L 124.584094 501.052319 
L 133.031318 500.749869 
L 141.478543 500.44577 
L 149.925768 500.140018 
L 158.372993 499.832692 
L 166.820217 499.523733 
L 175.267442 499.213178 
L 183.714667 498.901063 
L 192.161892 498.587373 
L 200.609117 498.272106 
L 209.056341 497.955314 
L 217.503566 497.63698 
L 225.950791 497.317122 
L 234.398016 496.995758 
L 242.84524 496.672883 
L 251.292465 496.348529 
L 259.73969 496.022683 
L 268.186915 495.695387 
L 276.63414 495.366629 
L 285.081364 495.036415 
L 293.528589 494.704813 
L 301.975814 494.371761 
L 310.423039 494.037324 
L 318.870263 493.701502 
L 327.317488 493.364262 
L 335.764713 493.025668 
L 344.211938 492.685663 
L 352.659162 492.344371 
L 361.106387 492.001705 
L 369.553612 491.657723 
L 378.000837 491.312431 
L 386.448062 490.965777 
L 394.895286 490.617857 
L 403.342511 490.26863 
L 411.789736 489.918169 
L 420.236961 489.566421 
L 428.684185 489.213407 
L 437.13141 488.859169 
L 445.578635 488.503679 
L 454.02586 488.146973 
L 462.473085 487.789046 
L 470.920309 487.429911 
L 479.367534 487.069596 
L 487.814759 486.708104 
L 496.261984 486.345392 
L 504.709208 485.981549 
L 513.156433 485.616566 
L 521.603658 485.250391 
L 530.050883 484.883127 
L 538.498107 484.514717 
L 546.945332 484.145205 
L 555.392557 483.774619 
L 563.839782 483.402892 
L 572.287007 483.030079 
L 580.734231 482.656194 
L 589.181456 482.281267 
L 597.628681 481.905252 
L 606.075906 481.528215 
L 614.52313 481.150116 
L 622.970355 480.770963 
L 631.41758 480.390843 
L 639.864805 480.009693 
L 648.31203 479.627514 
L 656.759254 479.244373 
L 665.206479 478.860227 
L 673.653704 478.47516 
L 682.100929 478.089157 
L 690.548153 477.702096 
L 698.995378 477.314147 
L 707.442603 476.925208 
L 715.889828 476.535398 
L 724.337052 476.1446 
L 732.784277 475.752967 
L 741.231502 475.36036 
L 749.678727 474.966889 
L 758.125952 474.572583 
L 766.573176 474.177324 
L 775.020401 473.7812 
L 783.467626 473.384239 
L 791.914851 472.986435 
L 800.362075 472.5878 
L 808.8093 472.188319 
L 817.256525 471.787979 
L 825.70375 471.386821 
L 834.150975 470.984861 
L 842.598199 470.582114 
L 851.045424 470.178605 
L 859.492649 469.774239 
L 867.939874 469.36911 
L 876.387098 468.963197 
L 884.834323 468.556562 
L 893.281548 468.149157 
" clip-path="url(#pe0d44f2bad)" style="fill: none; stroke: #ad494a; stroke-width: 2; stroke-linecap: round"/>
   </g>
   <g id="line2d_44">
    <path d="M 48.559071 512.079325 
L 57.006295 511.857876 
L 65.45352 511.634221 
L 73.900745 511.408385 
L 82.34797 511.180357 
L 90.795195 510.950144 
L 99.242419 510.717765 
L 107.689644 510.483268 
L 116.136869 510.246642 
L 124.584094 510.007881 
L 133.031318 509.767041 
L 141.478543 509.524114 
L 149.925768 509.2791 
L 158.372993 509.032063 
L 166.820217 508.782977 
L 175.267442 508.531855 
L 183.714667 508.278742 
L 192.161892 508.023615 
L 200.609117 507.766508 
L 209.056341 507.507448 
L 217.503566 507.246418 
L 225.950791 506.983448 
L 234.398016 506.718557 
L 242.84524 506.451743 
L 251.292465 506.18304 
L 259.73969 505.912436 
L 268.186915 505.639961 
L 276.63414 505.365625 
L 285.081364 505.089438 
L 293.528589 504.811433 
L 301.975814 504.531605 
L 310.423039 504.249982 
L 318.870263 503.96657 
L 327.317488 503.681345 
L 335.764713 503.394385 
L 344.211938 503.105628 
L 352.659162 502.815183 
L 361.106387 502.522993 
L 369.553612 502.229096 
L 378.000837 501.933475 
L 386.448062 501.636161 
L 394.895286 501.337167 
L 403.342511 501.036514 
L 411.789736 500.734226 
L 420.236961 500.430281 
L 428.684185 500.124718 
L 437.13141 499.817543 
L 445.578635 499.508756 
L 454.02586 499.198378 
L 462.473085 498.886424 
L 470.920309 498.572889 
L 479.367534 498.257816 
L 487.814759 497.94119 
L 496.261984 497.623038 
L 504.709208 497.303353 
L 513.156433 496.982173 
L 521.603658 496.659491 
L 530.050883 496.335324 
L 538.498107 496.009692 
L 546.945332 495.682597 
L 555.392557 495.354067 
L 563.839782 495.02408 
L 572.287007 494.69268 
L 580.734231 494.359833 
L 589.181456 494.025619 
L 597.628681 493.689979 
L 606.075906 493.352971 
L 614.52313 493.01458 
L 622.970355 492.674812 
L 631.41758 492.333749 
L 639.864805 491.99131 
L 648.31203 491.647506 
L 656.759254 491.302414 
L 665.206479 490.95604 
L 673.653704 490.608389 
L 682.100929 490.259441 
L 690.548153 489.909232 
L 698.995378 489.557694 
L 707.442603 489.204929 
L 715.889828 488.850927 
L 724.337052 488.495687 
L 732.784277 488.139226 
L 741.231502 487.781553 
L 749.678727 487.422687 
L 758.125952 487.062635 
L 766.573176 486.701405 
L 775.020401 486.338969 
L 783.467626 485.975382 
L 791.914851 485.610672 
L 800.362075 485.244775 
L 808.8093 484.877787 
L 817.256525 484.509629 
L 825.70375 484.140383 
L 834.150975 483.770061 
L 842.598199 483.3986 
L 851.045424 483.026089 
L 859.492649 482.652487 
L 867.939874 482.27784 
L 876.387098 481.902131 
L 884.834323 481.525384 
L 893.281548 481.147577 
" clip-path="url(#pe0d44f2bad)" style="fill: none; stroke: #e7969c; stroke-width: 2; stroke-linecap: round"/>
   </g>
   <g id="line2d_45">
    <path d="M 48.559071 516.086547 
L 57.006295 515.913807 
L 65.45352 515.738534 
L 73.900745 515.560755 
L 82.34797 515.380468 
L 90.795195 515.19768 
L 99.242419 515.012411 
L 107.689644 514.824703 
L 116.136869 514.634557 
L 124.584094 514.441965 
L 133.031318 514.246983 
L 141.478543 514.049602 
L 149.925768 513.849832 
L 158.372993 513.647727 
L 166.820217 513.44327 
L 175.267442 513.236476 
L 183.714667 513.027385 
L 192.161892 512.815984 
L 200.609117 512.602304 
L 209.056341 512.386369 
L 217.503566 512.168173 
L 225.950791 511.947739 
L 234.398016 511.725092 
L 242.84524 511.500234 
L 251.292465 511.273188 
L 259.73969 511.043959 
L 268.186915 510.812569 
L 276.63414 510.579039 
L 285.081364 510.343367 
L 293.528589 510.105598 
L 301.975814 509.86572 
L 310.423039 509.623762 
L 318.870263 509.379733 
L 327.317488 509.133628 
L 335.764713 508.885504 
L 344.211938 508.635311 
L 352.659162 508.383151 
L 361.106387 508.128969 
L 369.553612 507.872809 
L 378.000837 507.614662 
L 386.448062 507.354559 
L 394.895286 507.092499 
L 403.342511 506.828517 
L 411.789736 506.562629 
L 420.236961 506.29483 
L 428.684185 506.025147 
L 437.13141 505.753593 
L 445.578635 505.480161 
L 454.02586 505.204879 
L 462.473085 504.927771 
L 470.920309 504.648829 
L 479.367534 504.368079 
L 487.814759 504.085535 
L 496.261984 503.80121 
L 504.709208 503.515103 
L 513.156433 503.227247 
L 521.603658 502.937641 
L 530.050883 502.646308 
L 538.498107 502.353264 
L 546.945332 502.058506 
L 555.392557 501.762058 
L 563.839782 501.463934 
L 572.287007 501.164138 
L 580.734231 500.862672 
L 589.181456 500.559587 
L 597.628681 500.254832 
L 606.075906 499.948499 
L 614.52313 499.640527 
L 622.970355 499.330946 
L 631.41758 499.019828 
L 639.864805 498.707123 
L 648.31203 498.392828 
L 656.759254 498.076987 
L 665.206479 497.759659 
L 673.653704 497.440803 
L 682.100929 497.120436 
L 690.548153 496.798561 
L 698.995378 496.475177 
L 707.442603 496.150326 
L 715.889828 495.824007 
L 724.337052 495.496239 
L 732.784277 495.167028 
L 741.231502 494.836379 
L 749.678727 494.504329 
L 758.125952 494.170869 
L 766.573176 493.835988 
L 775.020401 493.499736 
L 783.467626 493.162108 
L 791.914851 492.823112 
L 800.362075 492.482769 
L 808.8093 492.141076 
L 817.256525 491.798067 
L 825.70375 491.45371 
L 834.150975 491.108052 
L 842.598199 490.761118 
L 851.045424 490.412888 
L 859.492649 490.063363 
L 867.939874 489.712605 
L 876.387098 489.360556 
L 884.834323 489.007273 
L 893.281548 488.652744 
" clip-path="url(#pe0d44f2bad)" style="fill: none; stroke: #a55194; stroke-width: 2; stroke-linecap: round"/>
   </g>
   <g id="line2d_46">
    <path d="M 48.559071 518.185956 
L 57.006295 518.049729 
L 65.45352 517.910734 
L 73.900745 517.768995 
L 82.34797 517.624516 
L 90.795195 517.477307 
L 99.242419 517.327388 
L 107.689644 517.174797 
L 116.136869 517.019539 
L 124.584094 516.861614 
L 133.031318 516.701067 
L 141.478543 516.537899 
L 149.925768 516.372121 
L 158.372993 516.203777 
L 166.820217 516.032864 
L 175.267442 515.859395 
L 183.714667 515.683403 
L 192.161892 515.504888 
L 200.609117 515.323875 
L 209.056341 515.140387 
L 217.503566 514.954426 
L 225.950791 514.766012 
L 234.398016 514.57517 
L 242.84524 514.381907 
L 251.292465 514.186244 
L 259.73969 513.988187 
L 268.186915 513.787762 
L 276.63414 513.584987 
L 285.081364 513.379863 
L 293.528589 513.172432 
L 301.975814 512.962689 
L 310.423039 512.750663 
L 318.870263 512.536359 
L 327.317488 512.319782 
L 335.764713 512.100975 
L 344.211938 511.879909 
L 352.659162 511.65667 
L 361.106387 511.431216 
L 369.553612 511.203579 
L 378.000837 510.973763 
L 386.448062 510.741794 
L 394.895286 510.507678 
L 403.342511 510.271442 
L 411.789736 510.033105 
L 420.236961 509.792667 
L 428.684185 509.550148 
L 437.13141 509.305572 
L 445.578635 509.058934 
L 454.02586 508.810256 
L 462.473085 508.559561 
L 470.920309 508.306845 
L 479.367534 508.05214 
L 487.814759 507.795457 
L 496.261984 507.536798 
L 504.709208 507.276191 
L 513.156433 507.013643 
L 521.603658 506.749166 
L 530.050883 506.482783 
L 538.498107 506.214499 
L 546.945332 505.944334 
L 555.392557 505.672299 
L 563.839782 505.398409 
L 572.287007 505.122674 
L 580.734231 504.845096 
L 589.181456 504.565712 
L 597.628681 504.284507 
L 606.075906 504.001519 
L 614.52313 503.716752 
L 622.970355 503.430193 
L 631.41758 503.141925 
L 639.864805 502.851898 
L 648.31203 502.560126 
L 656.759254 502.266635 
L 665.206479 501.971483 
L 673.653704 501.674642 
L 682.100929 501.376123 
L 690.548153 501.075932 
L 698.995378 500.774078 
L 707.442603 500.470577 
L 715.889828 500.165467 
L 724.337052 499.858721 
L 732.784277 499.550384 
L 741.231502 499.240459 
L 749.678727 498.928961 
L 758.125952 498.615896 
L 766.573176 498.301277 
L 775.020401 497.985104 
L 783.467626 497.667414 
L 791.914851 497.348186 
L 800.362075 497.027467 
L 808.8093 496.705244 
L 817.256525 496.381538 
L 825.70375 496.056353 
L 834.150975 495.729712 
L 842.598199 495.40164 
L 851.045424 495.072125 
L 859.492649 494.741169 
L 867.939874 494.408805 
L 876.387098 494.07505 
L 884.834323 493.739891 
L 893.281548 493.403336 
" clip-path="url(#pe0d44f2bad)" style="fill: none; stroke: #de9ed6; stroke-width: 2; stroke-linecap: round"/>
   </g>
   <g id="patch_3">
    <path d="M 48.559071 521.153031 
L 48.559071 51.564121 
" style="fill: none"/>
   </g>
   <g id="patch_4">
    <path d="M 935.517672 521.153031 
L 935.517672 51.564121 
" style="fill: none"/>
   </g>
   <g id="patch_5">
    <path d="M 48.559071 521.153031 
L 935.517672 521.153031 
" style="fill: none"/>
   </g>
   <g id="patch_6">
    <path d="M 48.559071 51.564121 
L 935.517672 51.564121 
" style="fill: none"/>
   </g>
   <g id="patch_7">
    <path d="M 470.920309 80.257152 
Q 470.920309 289.925396 470.920309 497.916589 
" style="fill: none; stroke: #000000; stroke-width: 1.5; stroke-linecap: round"/>
    <path d="M 474.120309 491.516589 
L 470.920309 497.916589 
L 467.720309 491.516589 
" style="fill: none; stroke: #000000; stroke-width: 1.5; stroke-linecap: round"/>
   </g>
   <g id="text_20">
    <!-- Time -->
    <g style="fill: #262626" transform="translate(492.038371 498.108248) scale(0.18 -0.18)">
     <defs>
      <path id="CMR17-54" d="M 3981 4326 
L 288 4326 
L 179 2918 
L 294 2918 
C 378 3976 467 4160 1453 4160 
C 1568 4160 1754 4160 1805 4154 
C 1926 4135 1926 4058 1926 3912 
L 1926 459 
C 1926 230 1907 160 1376 160 
L 1197 160 
L 1197 0 
C 1504 0 1824 0 2138 0 
C 2451 0 2771 0 3078 0 
L 3078 160 
L 2899 160 
C 2368 160 2349 230 2349 459 
L 2349 3912 
C 2349 4052 2349 4129 2464 4154 
C 2515 4160 2701 4160 2816 4160 
C 3795 4160 3891 3976 3974 2918 
L 4090 2918 
L 3981 4326 
z
" transform="scale(0.015625)"/>
      <path id="CMR17-69" d="M 992 3909 
C 992 4049 877 4170 730 4170 
C 589 4170 467 4056 467 3909 
C 467 3769 582 3648 730 3648 
C 870 3648 992 3763 992 3909 
z
M 243 2706 
L 243 2541 
C 602 2541 653 2502 653 2197 
L 653 427 
C 653 184 627 153 218 153 
L 218 -13 
C 371 0 646 0 806 0 
C 960 0 1222 0 1370 -13 
L 1370 153 
C 992 153 979 191 979 420 
L 979 2776 
L 243 2706 
z
" transform="scale(0.015625)"/>
      <path id="CMR17-6d" d="M 4326 1933 
C 4326 2252 4269 2790 3507 2790 
C 3072 2790 2771 2496 2656 2151 
L 2650 2151 
C 2573 2676 2195 2790 1837 2790 
C 1331 2790 1069 2400 973 2144 
L 966 2144 
L 966 2790 
L 211 2720 
L 211 2554 
C 589 2554 646 2515 646 2208 
L 646 428 
C 646 184 621 153 211 153 
L 211 -13 
C 365 0 646 0 813 0 
C 979 0 1267 0 1421 -13 
L 1421 153 
C 1011 153 986 178 986 428 
L 986 1658 
C 986 2247 1344 2688 1792 2688 
C 2266 2688 2317 2266 2317 1958 
L 2317 428 
C 2317 184 2291 153 1882 153 
L 1882 -13 
C 2035 0 2317 0 2483 0 
C 2650 0 2938 0 3091 -13 
L 3091 153 
C 2682 153 2656 178 2656 428 
L 2656 1658 
C 2656 2247 3014 2688 3462 2688 
C 3936 2688 3987 2266 3987 1958 
L 3987 428 
C 3987 184 3962 153 3552 153 
L 3552 -13 
C 3706 0 3987 0 4154 0 
C 4320 0 4608 0 4762 -13 
L 4762 153 
C 4352 153 4326 178 4326 428 
L 4326 1933 
z
" transform="scale(0.015625)"/>
      <path id="CMR17-65" d="M 2438 1472 
C 2464 1498 2464 1511 2464 1576 
C 2464 2238 2118 2816 1389 2816 
C 710 2816 173 2169 173 1383 
C 173 551 781 -64 1459 -64 
C 2176 -64 2458 607 2458 740 
C 2458 784 2419 784 2406 784 
C 2362 784 2355 771 2330 696 
C 2189 265 1837 51 1504 51 
C 1229 51 954 203 781 480 
C 582 803 582 1176 582 1472 
L 2438 1472 
z
M 589 1568 
C 634 2505 1126 2714 1382 2714 
C 1818 2714 2112 2297 2118 1568 
L 589 1568 
z
" transform="scale(0.015625)"/>
     </defs>
     <use xlink:href="#CMR17-54" transform="scale(0.996264)"/>
     <use xlink:href="#CMR17-69" transform="translate(66.509881 0) scale(0.996264)"/>
     <use xlink:href="#CMR17-6d" transform="translate(91.380939 0) scale(0.996264)"/>
     <use xlink:href="#CMR17-65" transform="translate(168.300529 0) scale(0.996264)"/>
    </g>
   </g>
   <g id="legend_1">
    <g id="line2d_47">
     <path d="M 948.117672 197.198434 
L 962.117672 197.198434 
L 976.117672 197.198434 
" style="fill: none; stroke: #393b79; stroke-width: 2; stroke-linecap: round"/>
    </g>
    <g id="text_21">
     <!-- t = 0.00 -->
     <g style="fill: #262626" transform="translate(987.317672 202.098434) scale(0.14 -0.14)">
      <defs>
       <path id="CMR17-74" d="M 966 2560 
L 1862 2560 
L 1862 2725 
L 966 2725 
L 966 3904 
L 851 3904 
C 838 3245 614 2668 70 2668 
L 70 2560 
L 627 2560 
L 627 771 
C 627 650 627 -64 1370 -64 
C 1747 -64 1965 306 1965 777 
L 1965 1140 
L 1850 1140 
L 1850 783 
C 1850 344 1677 51 1408 51 
C 1222 51 966 178 966 758 
L 966 2560 
z
" transform="scale(0.015625)"/>
       <path id="CMR17-3d" d="M 4115 2017 
C 4211 2017 4307 2017 4307 2125 
C 4307 2240 4198 2240 4090 2240 
L 512 2240 
C 403 2240 294 2240 294 2125 
C 294 2017 390 2017 486 2017 
L 4115 2017 
z
M 4090 896 
C 4198 896 4307 896 4307 1011 
C 4307 1119 4211 1119 4115 1119 
L 486 1119 
C 390 1119 294 1119 294 1011 
C 294 896 403 896 512 896 
L 4090 896 
z
" transform="scale(0.015625)"/>
       <path id="CMR17-2e" d="M 1062 261 
C 1062 420 934 522 800 522 
C 672 522 538 420 538 261 
C 538 102 666 0 800 0 
C 928 0 1062 102 1062 261 
z
" transform="scale(0.015625)"/>
      </defs>
      <use xlink:href="#CMR17-74" transform="scale(0.996264)"/>
      <use xlink:href="#CMR17-3d" transform="translate(65.356734 0) scale(0.996264)"/>
      <use xlink:href="#CMR17-30" transform="translate(167.147489 0) scale(0.996264)"/>
      <use xlink:href="#CMR17-2e" transform="translate(212.837966 0) scale(0.996264)"/>
      <use xlink:href="#CMR17-30" transform="translate(237.709025 0) scale(0.996264)"/>
      <use xlink:href="#CMR17-30" transform="translate(283.399502 0) scale(0.996264)"/>
     </g>
    </g>
    <g id="line2d_48">
     <path d="M 948.117672 216.710462 
L 962.117672 216.710462 
L 976.117672 216.710462 
" style="fill: none; stroke: #6b6ecf; stroke-width: 2; stroke-linecap: round"/>
    </g>
    <g id="text_22">
     <!-- t = 10.00 -->
     <g style="fill: #262626" transform="translate(987.317672 221.610462) scale(0.14 -0.14)">
      <use xlink:href="#CMR17-74" transform="scale(0.996264)"/>
      <use xlink:href="#CMR17-3d" transform="translate(65.356734 0) scale(0.996264)"/>
      <use xlink:href="#CMR17-31" transform="translate(167.147489 0) scale(0.996264)"/>
      <use xlink:href="#CMR17-30" transform="translate(212.837966 0) scale(0.996264)"/>
      <use xlink:href="#CMR17-2e" transform="translate(258.528443 0) scale(0.996264)"/>
      <use xlink:href="#CMR17-30" transform="translate(283.399502 0) scale(0.996264)"/>
      <use xlink:href="#CMR17-30" transform="translate(329.089979 0) scale(0.996264)"/>
     </g>
    </g>
    <g id="line2d_49">
     <path d="M 948.117672 236.222491 
L 962.117672 236.222491 
L 976.117672 236.222491 
" style="fill: none; stroke: #637939; stroke-width: 2; stroke-linecap: round"/>
    </g>
    <g id="text_23">
     <!-- t = 50.00 -->
     <g style="fill: #262626" transform="translate(987.317672 241.122491) scale(0.14 -0.14)">
      <use xlink:href="#CMR17-74" transform="scale(0.996264)"/>
      <use xlink:href="#CMR17-3d" transform="translate(65.356734 0) scale(0.996264)"/>
      <use xlink:href="#CMR17-35" transform="translate(167.147489 0) scale(0.996264)"/>
      <use xlink:href="#CMR17-30" transform="translate(212.837966 0) scale(0.996264)"/>
      <use xlink:href="#CMR17-2e" transform="translate(258.528443 0) scale(0.996264)"/>
      <use xlink:href="#CMR17-30" transform="translate(283.399502 0) scale(0.996264)"/>
      <use xlink:href="#CMR17-30" transform="translate(329.089979 0) scale(0.996264)"/>
     </g>
    </g>
    <g id="line2d_50">
     <path d="M 948.117672 255.734519 
L 962.117672 255.734519 
L 976.117672 255.734519 
" style="fill: none; stroke: #b5cf6b; stroke-width: 2; stroke-linecap: round"/>
    </g>
    <g id="text_24">
     <!-- t = 100.00 -->
     <g style="fill: #262626" transform="translate(987.317672 260.634519) scale(0.14 -0.14)">
      <use xlink:href="#CMR17-74" transform="scale(0.996264)"/>
      <use xlink:href="#CMR17-3d" transform="translate(65.356734 0) scale(0.996264)"/>
      <use xlink:href="#CMR17-31" transform="translate(167.147489 0) scale(0.996264)"/>
      <use xlink:href="#CMR17-30" transform="translate(212.837966 0) scale(0.996264)"/>
      <use xlink:href="#CMR17-30" transform="translate(258.528443 0) scale(0.996264)"/>
      <use xlink:href="#CMR17-2e" transform="translate(304.21892 0) scale(0.996264)"/>
      <use xlink:href="#CMR17-30" transform="translate(329.089979 0) scale(0.996264)"/>
      <use xlink:href="#CMR17-30" transform="translate(374.780456 0) scale(0.996264)"/>
     </g>
    </g>
    <g id="line2d_51">
     <path d="M 948.117672 275.246547 
L 962.117672 275.246547 
L 976.117672 275.246547 
" style="fill: none; stroke: #8c6d31; stroke-width: 2; stroke-linecap: round"/>
    </g>
    <g id="text_25">
     <!-- t = 250.00 -->
     <g style="fill: #262626" transform="translate(987.317672 280.146547) scale(0.14 -0.14)">
      <use xlink:href="#CMR17-74" transform="scale(0.996264)"/>
      <use xlink:href="#CMR17-3d" transform="translate(65.356734 0) scale(0.996264)"/>
      <use xlink:href="#CMR17-32" transform="translate(167.147489 0) scale(0.996264)"/>
      <use xlink:href="#CMR17-35" transform="translate(212.837966 0) scale(0.996264)"/>
      <use xlink:href="#CMR17-30" transform="translate(258.528443 0) scale(0.996264)"/>
      <use xlink:href="#CMR17-2e" transform="translate(304.21892 0) scale(0.996264)"/>
      <use xlink:href="#CMR17-30" transform="translate(329.089979 0) scale(0.996264)"/>
      <use xlink:href="#CMR17-30" transform="translate(374.780456 0) scale(0.996264)"/>
     </g>
    </g>
    <g id="line2d_52">
     <path d="M 948.117672 294.758576 
L 962.117672 294.758576 
L 976.117672 294.758576 
" style="fill: none; stroke: #e7cb94; stroke-width: 2; stroke-linecap: round"/>
    </g>
    <g id="text_26">
     <!-- t = 500.00 -->
     <g style="fill: #262626" transform="translate(987.317672 299.658576) scale(0.14 -0.14)">
      <use xlink:href="#CMR17-74" transform="scale(0.996264)"/>
      <use xlink:href="#CMR17-3d" transform="translate(65.356734 0) scale(0.996264)"/>
      <use xlink:href="#CMR17-35" transform="translate(167.147489 0) scale(0.996264)"/>
      <use xlink:href="#CMR17-30" transform="translate(212.837966 0) scale(0.996264)"/>
      <use xlink:href="#CMR17-30" transform="translate(258.528443 0) scale(0.996264)"/>
      <use xlink:href="#CMR17-2e" transform="translate(304.21892 0) scale(0.996264)"/>
      <use xlink:href="#CMR17-30" transform="translate(329.089979 0) scale(0.996264)"/>
      <use xlink:href="#CMR17-30" transform="translate(374.780456 0) scale(0.996264)"/>
     </g>
    </g>
    <g id="line2d_53">
     <path d="M 948.117672 314.270604 
L 962.117672 314.270604 
L 976.117672 314.270604 
" style="fill: none; stroke: #ad494a; stroke-width: 2; stroke-linecap: round"/>
    </g>
    <g id="text_27">
     <!-- t = 750.00 -->
     <g style="fill: #262626" transform="translate(987.317672 319.170604) scale(0.14 -0.14)">
      <use xlink:href="#CMR17-74" transform="scale(0.996264)"/>
      <use xlink:href="#CMR17-3d" transform="translate(65.356734 0) scale(0.996264)"/>
      <use xlink:href="#CMR17-37" transform="translate(167.147489 0) scale(0.996264)"/>
      <use xlink:href="#CMR17-35" transform="translate(212.837966 0) scale(0.996264)"/>
      <use xlink:href="#CMR17-30" transform="translate(258.528443 0) scale(0.996264)"/>
      <use xlink:href="#CMR17-2e" transform="translate(304.21892 0) scale(0.996264)"/>
      <use xlink:href="#CMR17-30" transform="translate(329.089979 0) scale(0.996264)"/>
      <use xlink:href="#CMR17-30" transform="translate(374.780456 0) scale(0.996264)"/>
     </g>
    </g>
    <g id="line2d_54">
     <path d="M 948.117672 333.782633 
L 962.117672 333.782633 
L 976.117672 333.782633 
" style="fill: none; stroke: #e7969c; stroke-width: 2; stroke-linecap: round"/>
    </g>
    <g id="text_28">
     <!-- t = 1000.00 -->
     <g style="fill: #262626" transform="translate(987.317672 338.682633) scale(0.14 -0.14)">
      <use xlink:href="#CMR17-74" transform="scale(0.996264)"/>
      <use xlink:href="#CMR17-3d" transform="translate(65.356734 0) scale(0.996264)"/>
      <use xlink:href="#CMR17-31" transform="translate(167.147489 0) scale(0.996264)"/>
      <use xlink:href="#CMR17-30" transform="translate(212.837966 0) scale(0.996264)"/>
      <use xlink:href="#CMR17-30" transform="translate(258.528443 0) scale(0.996264)"/>
      <use xlink:href="#CMR17-30" transform="translate(304.21892 0) scale(0.996264)"/>
      <use xlink:href="#CMR17-2e" transform="translate(349.909397 0) scale(0.996264)"/>
      <use xlink:href="#CMR17-30" transform="translate(374.780456 0) scale(0.996264)"/>
      <use xlink:href="#CMR17-30" transform="translate(420.470933 0) scale(0.996264)"/>
     </g>
    </g>
    <g id="line2d_55">
     <path d="M 948.117672 353.294661 
L 962.117672 353.294661 
L 976.117672 353.294661 
" style="fill: none; stroke: #a55194; stroke-width: 2; stroke-linecap: round"/>
    </g>
    <g id="text_29">
     <!-- t = 1250.00 -->
     <g style="fill: #262626" transform="translate(987.317672 358.194661) scale(0.14 -0.14)">
      <use xlink:href="#CMR17-74" transform="scale(0.996264)"/>
      <use xlink:href="#CMR17-3d" transform="translate(65.356734 0) scale(0.996264)"/>
      <use xlink:href="#CMR17-31" transform="translate(167.147489 0) scale(0.996264)"/>
      <use xlink:href="#CMR17-32" transform="translate(212.837966 0) scale(0.996264)"/>
      <use xlink:href="#CMR17-35" transform="translate(258.528443 0) scale(0.996264)"/>
      <use xlink:href="#CMR17-30" transform="translate(304.21892 0) scale(0.996264)"/>
      <use xlink:href="#CMR17-2e" transform="translate(349.909397 0) scale(0.996264)"/>
      <use xlink:href="#CMR17-30" transform="translate(374.780456 0) scale(0.996264)"/>
      <use xlink:href="#CMR17-30" transform="translate(420.470933 0) scale(0.996264)"/>
     </g>
    </g>
    <g id="line2d_56">
     <path d="M 948.117672 372.806689 
L 962.117672 372.806689 
L 976.117672 372.806689 
" style="fill: none; stroke: #de9ed6; stroke-width: 2; stroke-linecap: round"/>
    </g>
    <g id="text_30">
     <!-- t = 1500.00 -->
     <g style="fill: #262626" transform="translate(987.317672 377.706689) scale(0.14 -0.14)">
      <use xlink:href="#CMR17-74" transform="scale(0.996264)"/>
      <use xlink:href="#CMR17-3d" transform="translate(65.356734 0) scale(0.996264)"/>
      <use xlink:href="#CMR17-31" transform="translate(167.147489 0) scale(0.996264)"/>
      <use xlink:href="#CMR17-35" transform="translate(212.837966 0) scale(0.996264)"/>
      <use xlink:href="#CMR17-30" transform="translate(258.528443 0) scale(0.996264)"/>
      <use xlink:href="#CMR17-30" transform="translate(304.21892 0) scale(0.996264)"/>
      <use xlink:href="#CMR17-2e" transform="translate(349.909397 0) scale(0.996264)"/>
      <use xlink:href="#CMR17-30" transform="translate(374.780456 0) scale(0.996264)"/>
      <use xlink:href="#CMR17-30" transform="translate(420.470933 0) scale(0.996264)"/>
     </g>
    </g>
   </g>
  </g>
  <g id="text_31">
   <!-- permeability -->
   <g style="fill: #262626" transform="translate(492.111452 24.803515) scale(0.192 -0.192)">
    <defs>
     <path id="CMR17-70" d="M 1408 -1063 
C 998 -1063 973 -1037 973 -789 
L 973 402 
C 1158 134 1427 -38 1766 -38 
C 2406 -38 3053 523 3053 1388 
C 3053 2191 2496 2802 1837 2802 
C 1453 2802 1139 2592 960 2338 
L 960 2802 
L 198 2732 
L 198 2567 
C 576 2567 634 2528 634 2223 
L 634 -789 
C 634 -1031 608 -1063 198 -1063 
L 198 -1228 
C 352 -1216 634 -1216 800 -1216 
C 966 -1216 1254 -1216 1408 -1228 
L 1408 -1063 
z
M 973 2012 
C 973 2102 973 2235 1222 2471 
C 1254 2497 1472 2688 1792 2688 
C 2259 2688 2643 2108 2643 1382 
C 2643 656 2234 64 1728 64 
C 1498 64 1248 172 1056 472 
C 973 612 973 650 973 752 
L 973 2012 
z
" transform="scale(0.015625)"/>
     <path id="CMR17-72" d="M 960 1497 
C 960 2112 1222 2688 1702 2688 
C 1747 2688 1792 2682 1837 2662 
C 1837 2662 1696 2617 1696 2452 
C 1696 2298 1818 2234 1914 2234 
C 1990 2234 2131 2279 2131 2458 
C 2131 2663 1926 2790 1709 2790 
C 1222 2790 1011 2317 947 2093 
L 941 2093 
L 941 2790 
L 198 2720 
L 198 2554 
C 576 2554 634 2515 634 2208 
L 634 428 
C 634 184 608 153 198 153 
L 198 -13 
C 352 0 646 0 813 0 
C 998 0 1325 0 1498 -13 
L 1498 153 
C 1037 153 960 153 960 440 
L 960 1497 
z
" transform="scale(0.015625)"/>
     <path id="CMR17-61" d="M 2304 1653 
C 2304 2072 2304 2294 2035 2543 
C 1798 2752 1523 2816 1306 2816 
C 800 2816 435 2407 435 1971 
C 435 1728 627 1728 666 1728 
C 749 1728 896 1778 896 1954 
C 896 2112 774 2181 666 2181 
C 640 2181 608 2174 589 2168 
C 723 2592 1069 2714 1293 2714 
C 1613 2714 1965 2429 1965 1885 
L 1965 1600 
C 1587 1600 1133 1549 774 1357 
C 371 1133 256 813 256 570 
C 256 77 832 -64 1171 -64 
C 1523 -64 1850 139 1990 511 
C 2003 233 2182 -18 2464 -18 
C 2598 -18 2938 70 2938 567 
L 2938 920 
L 2822 920 
L 2822 562 
C 2822 178 2650 128 2566 128 
C 2304 128 2304 458 2304 738 
L 2304 1653 
z
M 1965 870 
C 1965 317 1568 38 1216 38 
C 896 38 646 275 646 570 
C 646 761 730 1100 1101 1305 
C 1408 1478 1760 1504 1965 1504 
L 1965 870 
z
" transform="scale(0.015625)"/>
     <path id="CMR17-62" d="M 960 4396 
L 198 4326 
L 198 4160 
C 576 4160 634 4122 634 3817 
L 634 -13 
L 749 -13 
L 934 441 
C 1120 141 1395 -64 1766 -64 
C 2406 -64 3053 500 3053 1370 
C 3053 2188 2477 2790 1830 2790 
C 1434 2790 1152 2579 960 2330 
L 960 4396 
z
M 973 2004 
C 973 2118 973 2138 1062 2272 
C 1312 2657 1670 2688 1792 2688 
C 1984 2688 2643 2585 2643 1376 
C 2643 108 1888 38 1734 38 
C 1536 38 1248 114 1043 486 
C 973 608 973 621 973 735 
L 973 2004 
z
" transform="scale(0.015625)"/>
     <path id="CMR17-6c" d="M 979 4396 
L 218 4326 
L 218 4160 
C 595 4160 653 4122 653 3817 
L 653 426 
C 653 184 627 153 218 153 
L 218 -13 
C 371 0 653 0 813 0 
C 979 0 1261 0 1414 -13 
L 1414 153 
C 1005 153 979 178 979 426 
L 979 4396 
z
" transform="scale(0.015625)"/>
     <path id="CMR17-79" d="M 2496 2197 
C 2656 2586 2944 2586 3034 2586 
L 3034 2752 
C 2912 2752 2752 2752 2630 2752 
C 2496 2752 2285 2752 2157 2758 
L 2157 2592 
C 2400 2573 2406 2394 2406 2343 
C 2406 2280 2394 2248 2362 2171 
L 1664 449 
L 902 2306 
C 870 2382 870 2426 870 2433 
C 870 2573 1018 2586 1171 2586 
L 1171 2758 
C 1018 2752 742 2752 582 2752 
C 410 2752 205 2752 64 2758 
L 64 2586 
C 410 2586 448 2554 531 2350 
L 1485 15 
C 1197 -738 1030 -1178 627 -1178 
C 557 -1178 397 -1159 282 -1044 
C 429 -1031 493 -942 493 -833 
C 493 -725 416 -629 288 -629 
C 147 -629 77 -725 77 -840 
C 77 -1095 339 -1280 627 -1280 
C 998 -1280 1229 -922 1357 -604 
L 2496 2197 
z
" transform="scale(0.015625)"/>
    </defs>
    <use xlink:href="#CMR17-70" transform="scale(0.996264)"/>
    <use xlink:href="#CMR17-65" transform="translate(53.497809 0) scale(0.996264)"/>
    <use xlink:href="#CMR17-72" transform="translate(93.983469 0) scale(0.996264)"/>
    <use xlink:href="#CMR17-6d" transform="translate(129.264237 0) scale(0.996264)"/>
    <use xlink:href="#CMR17-65" transform="translate(206.183827 0) scale(0.996264)"/>
    <use xlink:href="#CMR17-61" transform="translate(246.669487 0) scale(0.996264)"/>
    <use xlink:href="#CMR17-62" transform="translate(292.359964 0) scale(0.996264)"/>
    <use xlink:href="#CMR17-69" transform="translate(343.255334 0) scale(0.996264)"/>
    <use xlink:href="#CMR17-6c" transform="translate(368.126392 0) scale(0.996264)"/>
    <use xlink:href="#CMR17-69" transform="translate(392.997451 0) scale(0.996264)"/>
    <use xlink:href="#CMR17-74" transform="translate(417.868509 0) scale(0.996264)"/>
    <use xlink:href="#CMR17-79" transform="translate(450.546823 0) scale(0.996264)"/>
   </g>
  </g>
 </g>
 <defs>
  <clipPath id="pe0d44f2bad">
   <rect x="48.559071" y="51.564121" width="886.958601" height="469.58891"/>
  </clipPath>
 </defs>
</svg>
