<?xml version="1.0" encoding="utf-8" standalone="no"?>
<!DOCTYPE svg PUBLIC "-//W3C//DTD SVG 1.1//EN"
  "http://www.w3.org/Graphics/SVG/1.1/DTD/svg11.dtd">
<svg xmlns:xlink="http://www.w3.org/1999/xlink" width="1080pt" height="576pt" viewBox="0 0 1080 576" xmlns="http://www.w3.org/2000/svg" version="1.1">
 <metadata>
  <rdf:RDF xmlns:dc="http://purl.org/dc/elements/1.1/" xmlns:cc="http://creativecommons.org/ns#" xmlns:rdf="http://www.w3.org/1999/02/22-rdf-syntax-ns#">
   <cc:Work>
    <dc:type rdf:resource="http://purl.org/dc/dcmitype/StillImage"/>
    <dc:date>2024-06-28T11:56:06.905307</dc:date>
    <dc:format>image/svg+xml</dc:format>
    <dc:creator>
     <cc:Agent>
      <dc:title>Matplotlib v3.9.0, https://matplotlib.org/</dc:title>
     </cc:Agent>
    </dc:creator>
   </cc:Work>
  </rdf:RDF>
 </metadata>
 <defs>
  <style type="text/css">*{stroke-linejoin: round; stroke-linecap: butt}</style>
 </defs>
 <g id="figure_1">
  <g id="patch_1">
   <path d="M 0 576 
L 1080 576 
L 1080 0 
L 0 0 
z
" style="fill: #ffffff"/>
  </g>
  <g id="axes_1">
   <g id="patch_2">
    <path d="M 48.559071 521.153031 
L 935.517672 521.153031 
L 935.517672 51.564121 
L 48.559071 51.564121 
z
" style="fill: #eaeaf2"/>
   </g>
   <g id="matplotlib.axis_1">
    <g id="xtick_1">
     <g id="line2d_1">
      <path d="M 48.559071 521.153031 
L 48.559071 51.564121 
" clip-path="url(#pa4fd324ab8)" style="fill: none; stroke: #ffffff; stroke-linecap: round"/>
     </g>
     <g id="line2d_2"/>
     <g id="text_1">
      <!-- $\mathdefault{0.00}$ -->
      <g style="fill: #262626" transform="translate(36.419535 537.838907) scale(0.14 -0.14)">
       <defs>
        <path id="CMR17-30" d="M 2688 2025 
C 2688 2416 2682 3080 2413 3591 
C 2176 4039 1798 4198 1466 4198 
C 1158 4198 768 4058 525 3597 
C 269 3118 243 2524 243 2025 
C 243 1661 250 1106 448 619 
C 723 -39 1216 -128 1466 -128 
C 1760 -128 2208 -7 2470 600 
C 2662 1042 2688 1559 2688 2025 
z
M 1466 -26 
C 1056 -26 813 325 723 812 
C 653 1188 653 1738 653 2096 
C 653 2588 653 2997 736 3387 
C 858 3929 1216 4096 1466 4096 
C 1728 4096 2067 3923 2189 3400 
C 2272 3036 2278 2607 2278 2096 
C 2278 1680 2278 1169 2202 792 
C 2067 95 1690 -26 1466 -26 
z
" transform="scale(0.015625)"/>
        <path id="CMMI12-3a" d="M 1178 307 
C 1178 492 1024 619 870 619 
C 685 619 557 466 557 313 
C 557 128 710 0 864 0 
C 1050 0 1178 153 1178 307 
z
" transform="scale(0.015625)"/>
       </defs>
       <use xlink:href="#CMR17-30" transform="scale(0.996264)"/>
       <use xlink:href="#CMMI12-3a" transform="translate(45.690477 0) scale(0.996264)"/>
       <use xlink:href="#CMR17-30" transform="translate(72.787654 0) scale(0.996264)"/>
       <use xlink:href="#CMR17-30" transform="translate(118.478131 0) scale(0.996264)"/>
      </g>
     </g>
    </g>
    <g id="xtick_2">
     <g id="line2d_3">
      <path d="M 154.14938 521.153031 
L 154.14938 51.564121 
" clip-path="url(#pa4fd324ab8)" style="fill: none; stroke: #ffffff; stroke-linecap: round"/>
     </g>
     <g id="line2d_4"/>
     <g id="text_2">
      <!-- $\mathdefault{0.25}$ -->
      <g style="fill: #262626" transform="translate(142.009845 537.838907) scale(0.14 -0.14)">
       <defs>
        <path id="CMR17-32" d="M 2669 989 
L 2554 989 
C 2490 536 2438 459 2413 420 
C 2381 369 1920 369 1830 369 
L 602 369 
C 832 619 1280 1072 1824 1597 
C 2214 1967 2669 2402 2669 3035 
C 2669 3790 2067 4224 1395 4224 
C 691 4224 262 3604 262 3030 
C 262 2780 448 2748 525 2748 
C 589 2748 781 2787 781 3010 
C 781 3207 614 3264 525 3264 
C 486 3264 448 3258 422 3245 
C 544 3790 915 4058 1306 4058 
C 1862 4058 2227 3617 2227 3035 
C 2227 2479 1901 2000 1536 1584 
L 262 146 
L 262 0 
L 2515 0 
L 2669 989 
z
" transform="scale(0.015625)"/>
        <path id="CMR17-35" d="M 730 3692 
C 794 3666 1056 3584 1325 3584 
C 1920 3584 2246 3911 2432 4100 
C 2432 4157 2432 4192 2394 4192 
C 2387 4192 2374 4192 2323 4163 
C 2099 4058 1837 3973 1517 3973 
C 1325 3973 1037 3999 723 4139 
C 653 4171 640 4171 634 4171 
C 602 4171 595 4164 595 4037 
L 595 2203 
C 595 2089 595 2057 659 2057 
C 691 2057 704 2070 736 2114 
C 941 2401 1222 2522 1542 2522 
C 1766 2522 2246 2382 2246 1289 
C 2246 1085 2246 715 2054 421 
C 1894 159 1645 25 1370 25 
C 947 25 518 320 403 814 
C 429 807 480 795 506 795 
C 589 795 749 840 749 1038 
C 749 1210 627 1280 506 1280 
C 358 1280 262 1190 262 1011 
C 262 454 704 -128 1382 -128 
C 2042 -128 2669 440 2669 1264 
C 2669 2030 2170 2624 1549 2624 
C 1222 2624 947 2503 730 2274 
L 730 3692 
z
" transform="scale(0.015625)"/>
       </defs>
       <use xlink:href="#CMR17-30" transform="scale(0.996264)"/>
       <use xlink:href="#CMMI12-3a" transform="translate(45.690477 0) scale(0.996264)"/>
       <use xlink:href="#CMR17-32" transform="translate(72.787654 0) scale(0.996264)"/>
       <use xlink:href="#CMR17-35" transform="translate(118.478131 0) scale(0.996264)"/>
      </g>
     </g>
    </g>
    <g id="xtick_3">
     <g id="line2d_5">
      <path d="M 259.73969 521.153031 
L 259.73969 51.564121 
" clip-path="url(#pa4fd324ab8)" style="fill: none; stroke: #ffffff; stroke-linecap: round"/>
     </g>
     <g id="line2d_6"/>
     <g id="text_3">
      <!-- $\mathdefault{0.50}$ -->
      <g style="fill: #262626" transform="translate(247.600155 537.838907) scale(0.14 -0.14)">
       <use xlink:href="#CMR17-30" transform="scale(0.996264)"/>
       <use xlink:href="#CMMI12-3a" transform="translate(45.690477 0) scale(0.996264)"/>
       <use xlink:href="#CMR17-35" transform="translate(72.787654 0) scale(0.996264)"/>
       <use xlink:href="#CMR17-30" transform="translate(118.478131 0) scale(0.996264)"/>
      </g>
     </g>
    </g>
    <g id="xtick_4">
     <g id="line2d_7">
      <path d="M 365.33 521.153031 
L 365.33 51.564121 
" clip-path="url(#pa4fd324ab8)" style="fill: none; stroke: #ffffff; stroke-linecap: round"/>
     </g>
     <g id="line2d_8"/>
     <g id="text_4">
      <!-- $\mathdefault{0.75}$ -->
      <g style="fill: #262626" transform="translate(353.190464 537.838907) scale(0.14 -0.14)">
       <defs>
        <path id="CMR17-37" d="M 2886 3941 
L 2886 4081 
L 1382 4081 
C 634 4081 621 4165 595 4288 
L 480 4288 
L 294 3094 
L 410 3094 
C 429 3215 474 3540 550 3661 
C 589 3712 1062 3712 1171 3712 
L 2579 3712 
L 1869 2661 
C 1395 1954 1069 999 1069 165 
C 1069 89 1069 -128 1299 -128 
C 1530 -128 1530 89 1530 171 
L 1530 465 
C 1530 1508 1709 2196 2003 2636 
L 2886 3941 
z
" transform="scale(0.015625)"/>
       </defs>
       <use xlink:href="#CMR17-30" transform="scale(0.996264)"/>
       <use xlink:href="#CMMI12-3a" transform="translate(45.690477 0) scale(0.996264)"/>
       <use xlink:href="#CMR17-37" transform="translate(72.787654 0) scale(0.996264)"/>
       <use xlink:href="#CMR17-35" transform="translate(118.478131 0) scale(0.996264)"/>
      </g>
     </g>
    </g>
    <g id="xtick_5">
     <g id="line2d_9">
      <path d="M 470.920309 521.153031 
L 470.920309 51.564121 
" clip-path="url(#pa4fd324ab8)" style="fill: none; stroke: #ffffff; stroke-linecap: round"/>
     </g>
     <g id="line2d_10"/>
     <g id="text_5">
      <!-- $\mathdefault{1.00}$ -->
      <g style="fill: #262626" transform="translate(458.780774 537.838907) scale(0.14 -0.14)">
       <defs>
        <path id="CMR17-31" d="M 1702 4058 
C 1702 4192 1696 4192 1606 4192 
C 1357 3916 979 3827 621 3827 
C 602 3827 570 3827 563 3808 
C 557 3795 557 3782 557 3648 
C 755 3648 1088 3686 1344 3839 
L 1344 461 
C 1344 236 1331 160 781 160 
L 589 160 
L 589 0 
C 896 0 1216 0 1523 0 
C 1830 0 2150 0 2458 0 
L 2458 160 
L 2266 160 
C 1715 160 1702 230 1702 458 
L 1702 4058 
z
" transform="scale(0.015625)"/>
       </defs>
       <use xlink:href="#CMR17-31" transform="scale(0.996264)"/>
       <use xlink:href="#CMMI12-3a" transform="translate(45.690477 0) scale(0.996264)"/>
       <use xlink:href="#CMR17-30" transform="translate(72.787654 0) scale(0.996264)"/>
       <use xlink:href="#CMR17-30" transform="translate(118.478131 0) scale(0.996264)"/>
      </g>
     </g>
    </g>
    <g id="xtick_6">
     <g id="line2d_11">
      <path d="M 576.510619 521.153031 
L 576.510619 51.564121 
" clip-path="url(#pa4fd324ab8)" style="fill: none; stroke: #ffffff; stroke-linecap: round"/>
     </g>
     <g id="line2d_12"/>
     <g id="text_6">
      <!-- $\mathdefault{1.25}$ -->
      <g style="fill: #262626" transform="translate(564.371084 537.838907) scale(0.14 -0.14)">
       <use xlink:href="#CMR17-31" transform="scale(0.996264)"/>
       <use xlink:href="#CMMI12-3a" transform="translate(45.690477 0) scale(0.996264)"/>
       <use xlink:href="#CMR17-32" transform="translate(72.787654 0) scale(0.996264)"/>
       <use xlink:href="#CMR17-35" transform="translate(118.478131 0) scale(0.996264)"/>
      </g>
     </g>
    </g>
    <g id="xtick_7">
     <g id="line2d_13">
      <path d="M 682.100929 521.153031 
L 682.100929 51.564121 
" clip-path="url(#pa4fd324ab8)" style="fill: none; stroke: #ffffff; stroke-linecap: round"/>
     </g>
     <g id="line2d_14"/>
     <g id="text_7">
      <!-- $\mathdefault{1.50}$ -->
      <g style="fill: #262626" transform="translate(669.961393 537.838907) scale(0.14 -0.14)">
       <use xlink:href="#CMR17-31" transform="scale(0.996264)"/>
       <use xlink:href="#CMMI12-3a" transform="translate(45.690477 0) scale(0.996264)"/>
       <use xlink:href="#CMR17-35" transform="translate(72.787654 0) scale(0.996264)"/>
       <use xlink:href="#CMR17-30" transform="translate(118.478131 0) scale(0.996264)"/>
      </g>
     </g>
    </g>
    <g id="xtick_8">
     <g id="line2d_15">
      <path d="M 787.691238 521.153031 
L 787.691238 51.564121 
" clip-path="url(#pa4fd324ab8)" style="fill: none; stroke: #ffffff; stroke-linecap: round"/>
     </g>
     <g id="line2d_16"/>
     <g id="text_8">
      <!-- $\mathdefault{1.75}$ -->
      <g style="fill: #262626" transform="translate(775.551703 537.838907) scale(0.14 -0.14)">
       <use xlink:href="#CMR17-31" transform="scale(0.996264)"/>
       <use xlink:href="#CMMI12-3a" transform="translate(45.690477 0) scale(0.996264)"/>
       <use xlink:href="#CMR17-37" transform="translate(72.787654 0) scale(0.996264)"/>
       <use xlink:href="#CMR17-35" transform="translate(118.478131 0) scale(0.996264)"/>
      </g>
     </g>
    </g>
    <g id="xtick_9">
     <g id="line2d_17">
      <path d="M 893.281548 521.153031 
L 893.281548 51.564121 
" clip-path="url(#pa4fd324ab8)" style="fill: none; stroke: #ffffff; stroke-linecap: round"/>
     </g>
     <g id="line2d_18"/>
     <g id="text_9">
      <!-- $\mathdefault{2.00}$ -->
      <g style="fill: #262626" transform="translate(881.142013 537.838907) scale(0.14 -0.14)">
       <use xlink:href="#CMR17-32" transform="scale(0.996264)"/>
       <use xlink:href="#CMMI12-3a" transform="translate(45.690477 0) scale(0.996264)"/>
       <use xlink:href="#CMR17-30" transform="translate(72.787654 0) scale(0.996264)"/>
       <use xlink:href="#CMR17-30" transform="translate(118.478131 0) scale(0.996264)"/>
      </g>
     </g>
    </g>
    <g id="text_10">
     <!-- $x$ -->
     <g style="fill: #262626" transform="translate(487.603646 555.620524) scale(0.16 -0.16)">
      <defs>
       <path id="CMMI12-78" d="M 3034 2606 
C 2829 2567 2752 2414 2752 2293 
C 2752 2139 2874 2088 2963 2088 
C 3155 2088 3290 2254 3290 2427 
C 3290 2695 2982 2816 2714 2816 
C 2323 2816 2106 2433 2048 2312 
C 1901 2816 1504 2816 1389 2816 
C 736 2816 390 1980 390 1839 
C 390 1814 416 1782 461 1782 
C 512 1782 525 1820 538 1846 
C 755 2555 1184 2689 1370 2689 
C 1658 2689 1715 2420 1715 2267 
C 1715 2127 1677 1980 1600 1673 
L 1382 798 
C 1286 415 1101 64 762 64 
C 730 64 570 64 435 147 
C 666 192 717 383 717 460 
C 717 588 621 664 499 664 
C 346 664 179 530 179 326 
C 179 57 480 -64 755 -64 
C 1062 -64 1280 179 1414 441 
C 1517 64 1837 -64 2074 -64 
C 2726 -64 3072 773 3072 913 
C 3072 945 3046 971 3008 971 
C 2950 971 2944 939 2925 888 
C 2752 326 2381 64 2093 64 
C 1869 64 1747 230 1747 492 
C 1747 632 1773 734 1875 1156 
L 2099 2024 
C 2195 2408 2413 2689 2707 2689 
C 2720 2689 2899 2689 3034 2606 
z
" transform="scale(0.015625)"/>
      </defs>
      <use xlink:href="#CMMI12-78" transform="scale(0.996264)"/>
     </g>
    </g>
   </g>
   <g id="matplotlib.axis_2">
    <g id="ytick_1">
     <g id="line2d_19">
      <path d="M 48.559071 521.153031 
L 935.517672 521.153031 
" clip-path="url(#pa4fd324ab8)" style="fill: none; stroke: #ffffff; stroke-linecap: round"/>
     </g>
     <g id="line2d_20"/>
     <g id="text_11">
      <!-- $\mathdefault{0.00}$ -->
      <g style="fill: #262626" transform="translate(17.28 525.995969) scale(0.14 -0.14)">
       <use xlink:href="#CMR17-30" transform="scale(0.996264)"/>
       <use xlink:href="#CMMI12-3a" transform="translate(45.690477 0) scale(0.996264)"/>
       <use xlink:href="#CMR17-30" transform="translate(72.787654 0) scale(0.996264)"/>
       <use xlink:href="#CMR17-30" transform="translate(118.478131 0) scale(0.996264)"/>
      </g>
     </g>
    </g>
    <g id="ytick_2">
     <g id="line2d_21">
      <path d="M 48.559071 465.186114 
L 935.517672 465.186114 
" clip-path="url(#pa4fd324ab8)" style="fill: none; stroke: #ffffff; stroke-linecap: round"/>
     </g>
     <g id="line2d_22"/>
     <g id="text_12">
      <!-- $\mathdefault{0.25}$ -->
      <g style="fill: #262626" transform="translate(17.28 470.029052) scale(0.14 -0.14)">
       <use xlink:href="#CMR17-30" transform="scale(0.996264)"/>
       <use xlink:href="#CMMI12-3a" transform="translate(45.690477 0) scale(0.996264)"/>
       <use xlink:href="#CMR17-32" transform="translate(72.787654 0) scale(0.996264)"/>
       <use xlink:href="#CMR17-35" transform="translate(118.478131 0) scale(0.996264)"/>
      </g>
     </g>
    </g>
    <g id="ytick_3">
     <g id="line2d_23">
      <path d="M 48.559071 409.219196 
L 935.517672 409.219196 
" clip-path="url(#pa4fd324ab8)" style="fill: none; stroke: #ffffff; stroke-linecap: round"/>
     </g>
     <g id="line2d_24"/>
     <g id="text_13">
      <!-- $\mathdefault{0.50}$ -->
      <g style="fill: #262626" transform="translate(17.28 414.062135) scale(0.14 -0.14)">
       <use xlink:href="#CMR17-30" transform="scale(0.996264)"/>
       <use xlink:href="#CMMI12-3a" transform="translate(45.690477 0) scale(0.996264)"/>
       <use xlink:href="#CMR17-35" transform="translate(72.787654 0) scale(0.996264)"/>
       <use xlink:href="#CMR17-30" transform="translate(118.478131 0) scale(0.996264)"/>
      </g>
     </g>
    </g>
    <g id="ytick_4">
     <g id="line2d_25">
      <path d="M 48.559071 353.252279 
L 935.517672 353.252279 
" clip-path="url(#pa4fd324ab8)" style="fill: none; stroke: #ffffff; stroke-linecap: round"/>
     </g>
     <g id="line2d_26"/>
     <g id="text_14">
      <!-- $\mathdefault{0.75}$ -->
      <g style="fill: #262626" transform="translate(17.28 358.095217) scale(0.14 -0.14)">
       <use xlink:href="#CMR17-30" transform="scale(0.996264)"/>
       <use xlink:href="#CMMI12-3a" transform="translate(45.690477 0) scale(0.996264)"/>
       <use xlink:href="#CMR17-37" transform="translate(72.787654 0) scale(0.996264)"/>
       <use xlink:href="#CMR17-35" transform="translate(118.478131 0) scale(0.996264)"/>
      </g>
     </g>
    </g>
    <g id="ytick_5">
     <g id="line2d_27">
      <path d="M 48.559071 297.285362 
L 935.517672 297.285362 
" clip-path="url(#pa4fd324ab8)" style="fill: none; stroke: #ffffff; stroke-linecap: round"/>
     </g>
     <g id="line2d_28"/>
     <g id="text_15">
      <!-- $\mathdefault{1.00}$ -->
      <g style="fill: #262626" transform="translate(17.28 302.1283) scale(0.14 -0.14)">
       <use xlink:href="#CMR17-31" transform="scale(0.996264)"/>
       <use xlink:href="#CMMI12-3a" transform="translate(45.690477 0) scale(0.996264)"/>
       <use xlink:href="#CMR17-30" transform="translate(72.787654 0) scale(0.996264)"/>
       <use xlink:href="#CMR17-30" transform="translate(118.478131 0) scale(0.996264)"/>
      </g>
     </g>
    </g>
    <g id="ytick_6">
     <g id="line2d_29">
      <path d="M 48.559071 241.318445 
L 935.517672 241.318445 
" clip-path="url(#pa4fd324ab8)" style="fill: none; stroke: #ffffff; stroke-linecap: round"/>
     </g>
     <g id="line2d_30"/>
     <g id="text_16">
      <!-- $\mathdefault{1.25}$ -->
      <g style="fill: #262626" transform="translate(17.28 246.161383) scale(0.14 -0.14)">
       <use xlink:href="#CMR17-31" transform="scale(0.996264)"/>
       <use xlink:href="#CMMI12-3a" transform="translate(45.690477 0) scale(0.996264)"/>
       <use xlink:href="#CMR17-32" transform="translate(72.787654 0) scale(0.996264)"/>
       <use xlink:href="#CMR17-35" transform="translate(118.478131 0) scale(0.996264)"/>
      </g>
     </g>
    </g>
    <g id="ytick_7">
     <g id="line2d_31">
      <path d="M 48.559071 185.351528 
L 935.517672 185.351528 
" clip-path="url(#pa4fd324ab8)" style="fill: none; stroke: #ffffff; stroke-linecap: round"/>
     </g>
     <g id="line2d_32"/>
     <g id="text_17">
      <!-- $\mathdefault{1.50}$ -->
      <g style="fill: #262626" transform="translate(17.28 190.194466) scale(0.14 -0.14)">
       <use xlink:href="#CMR17-31" transform="scale(0.996264)"/>
       <use xlink:href="#CMMI12-3a" transform="translate(45.690477 0) scale(0.996264)"/>
       <use xlink:href="#CMR17-35" transform="translate(72.787654 0) scale(0.996264)"/>
       <use xlink:href="#CMR17-30" transform="translate(118.478131 0) scale(0.996264)"/>
      </g>
     </g>
    </g>
    <g id="ytick_8">
     <g id="line2d_33">
      <path d="M 48.559071 129.384611 
L 935.517672 129.384611 
" clip-path="url(#pa4fd324ab8)" style="fill: none; stroke: #ffffff; stroke-linecap: round"/>
     </g>
     <g id="line2d_34"/>
     <g id="text_18">
      <!-- $\mathdefault{1.75}$ -->
      <g style="fill: #262626" transform="translate(17.28 134.227549) scale(0.14 -0.14)">
       <use xlink:href="#CMR17-31" transform="scale(0.996264)"/>
       <use xlink:href="#CMMI12-3a" transform="translate(45.690477 0) scale(0.996264)"/>
       <use xlink:href="#CMR17-37" transform="translate(72.787654 0) scale(0.996264)"/>
       <use xlink:href="#CMR17-35" transform="translate(118.478131 0) scale(0.996264)"/>
      </g>
     </g>
    </g>
    <g id="ytick_9">
     <g id="line2d_35">
      <path d="M 48.559071 73.417693 
L 935.517672 73.417693 
" clip-path="url(#pa4fd324ab8)" style="fill: none; stroke: #ffffff; stroke-linecap: round"/>
     </g>
     <g id="line2d_36"/>
     <g id="text_19">
      <!-- $\mathdefault{2.00}$ -->
      <g style="fill: #262626" transform="translate(17.28 78.260632) scale(0.14 -0.14)">
       <use xlink:href="#CMR17-32" transform="scale(0.996264)"/>
       <use xlink:href="#CMMI12-3a" transform="translate(45.690477 0) scale(0.996264)"/>
       <use xlink:href="#CMR17-30" transform="translate(72.787654 0) scale(0.996264)"/>
       <use xlink:href="#CMR17-30" transform="translate(118.478131 0) scale(0.996264)"/>
      </g>
     </g>
    </g>
   </g>
   <g id="line2d_37">
    <path d="M 48.559071 73.417693 
L 57.006295 73.417693 
L 65.45352 73.417693 
L 73.900745 73.417693 
L 82.34797 73.417693 
L 90.795195 73.417693 
L 99.242419 73.417693 
L 107.689644 73.417693 
L 116.136869 73.417693 
L 124.584094 73.417693 
L 133.031318 73.417693 
L 141.478543 73.417693 
L 149.925768 73.417693 
L 158.372993 73.417693 
L 166.820217 73.417693 
L 175.267442 73.417693 
L 183.714667 73.417693 
L 192.161892 73.417693 
L 200.609117 73.417693 
L 209.056341 73.417693 
L 217.503566 73.417693 
L 225.950791 73.417693 
L 234.398016 73.417693 
L 242.84524 73.417693 
L 251.292465 73.417693 
L 259.73969 73.417693 
L 268.186915 73.417693 
L 276.63414 73.417693 
L 285.081364 73.417693 
L 293.528589 73.417693 
L 301.975814 73.417693 
L 310.423039 73.417693 
L 318.870263 73.417693 
L 327.317488 73.417693 
L 335.764713 73.417693 
L 344.211938 73.417693 
L 352.659162 73.417693 
L 361.106387 73.417693 
L 369.553612 73.417693 
L 378.000837 73.417693 
L 386.448062 73.417693 
L 394.895286 73.417693 
L 403.342511 73.417693 
L 411.789736 73.417693 
L 420.236961 73.417693 
L 428.684185 73.417693 
L 437.13141 73.417693 
L 445.578635 73.417693 
L 454.02586 73.417693 
L 462.473085 73.417693 
L 470.920309 73.417693 
L 479.367534 73.417693 
L 487.814759 73.417693 
L 496.261984 73.417693 
L 504.709208 73.417693 
L 513.156433 73.417693 
L 521.603658 73.417693 
L 530.050883 73.417693 
L 538.498107 73.417693 
L 546.945332 73.417693 
L 555.392557 73.417693 
L 563.839782 73.417693 
L 572.287007 73.417693 
L 580.734231 73.417693 
L 589.181456 73.417693 
L 597.628681 73.417693 
L 606.075906 73.417693 
L 614.52313 73.417693 
L 622.970355 73.417693 
L 631.41758 73.417693 
L 639.864805 73.417693 
L 648.31203 73.417693 
L 656.759254 73.417693 
L 665.206479 73.417693 
L 673.653704 73.417693 
L 682.100929 73.417693 
L 690.548153 73.417693 
L 698.995378 73.417693 
L 707.442603 73.417693 
L 715.889828 73.417693 
L 724.337052 73.417693 
L 732.784277 73.417693 
L 741.231502 73.417693 
L 749.678727 73.417693 
L 758.125952 73.417693 
L 766.573176 73.417693 
L 775.020401 73.417693 
L 783.467626 73.417693 
L 791.914851 73.417693 
L 800.362075 73.417693 
L 808.8093 73.417693 
L 817.256525 73.417693 
L 825.70375 73.417693 
L 834.150975 73.417693 
L 842.598199 73.417693 
L 851.045424 73.417693 
L 859.492649 73.417693 
L 867.939874 73.417693 
L 876.387098 73.417693 
L 884.834323 73.417693 
L 893.281548 73.417693 
" clip-path="url(#pa4fd324ab8)" style="fill: none; stroke: #393b79; stroke-width: 2; stroke-linecap: round"/>
   </g>
   <g id="line2d_38">
    <path d="M 48.559071 95.141164 
L 57.006295 95.087615 
L 65.45352 95.033941 
L 73.900745 94.980269 
L 82.34797 94.926732 
L 90.795195 94.873332 
L 99.242419 94.820066 
L 107.689644 94.766935 
L 116.136869 94.713938 
L 124.584094 94.661075 
L 133.031318 94.608345 
L 141.478543 94.555749 
L 149.925768 94.503285 
L 158.372993 94.450954 
L 166.820217 94.398755 
L 175.267442 94.346689 
L 183.714667 94.294754 
L 192.161892 94.24295 
L 200.609117 94.191276 
L 209.056341 94.139733 
L 217.503566 94.088321 
L 225.950791 94.037038 
L 234.398016 93.985884 
L 242.84524 93.934859 
L 251.292465 93.883963 
L 259.73969 93.833196 
L 268.186915 93.782557 
L 276.63414 93.732046 
L 285.081364 93.681662 
L 293.528589 93.631406 
L 301.975814 93.581276 
L 310.423039 93.531273 
L 318.870263 93.481396 
L 327.317488 93.431645 
L 335.764713 93.382019 
L 344.211938 93.332518 
L 352.659162 93.283143 
L 361.106387 93.233891 
L 369.553612 93.184764 
L 378.000837 93.135761 
L 386.448062 93.086882 
L 394.895286 93.038125 
L 403.342511 92.989492 
L 411.789736 92.940723 
L 420.236961 92.891976 
L 428.684185 92.843353 
L 437.13141 92.794852 
L 445.578635 92.746474 
L 454.02586 92.698218 
L 462.473085 92.650084 
L 470.920309 92.60207 
L 479.367534 92.554178 
L 487.814759 92.506407 
L 496.261984 92.458756 
L 504.709208 92.411225 
L 513.156433 92.363814 
L 521.603658 92.316522 
L 530.050883 92.26935 
L 538.498107 92.222296 
L 546.945332 92.175361 
L 555.392557 92.128544 
L 563.839782 92.081845 
L 572.287007 92.035264 
L 580.734231 91.9888 
L 589.181456 91.942454 
L 597.628681 91.896225 
L 606.075906 91.850112 
L 614.52313 91.804116 
L 622.970355 91.758235 
L 631.41758 91.71247 
L 639.864805 91.66682 
L 648.31203 91.621285 
L 656.759254 91.575864 
L 665.206479 91.530558 
L 673.653704 91.485367 
L 682.100929 91.440289 
L 690.548153 91.395324 
L 698.995378 91.350473 
L 707.442603 91.305734 
L 715.889828 91.261108 
L 724.337052 91.216595 
L 732.784277 91.172194 
L 741.231502 91.127904 
L 749.678727 91.083726 
L 758.125952 91.039659 
L 766.573176 90.995703 
L 775.020401 90.951858 
L 783.467626 90.908123 
L 791.914851 90.864481 
L 800.362075 90.820643 
L 808.8093 90.776916 
L 817.256525 90.733299 
L 825.70375 90.689792 
L 834.150975 90.646395 
L 842.598199 90.603108 
L 851.045424 90.559929 
L 859.492649 90.516859 
L 867.939874 90.473897 
L 876.387098 90.431043 
L 884.834323 90.388297 
L 893.281548 90.345659 
" clip-path="url(#pa4fd324ab8)" style="fill: none; stroke: #6b6ecf; stroke-width: 2; stroke-linecap: round"/>
   </g>
   <g id="line2d_39">
    <path d="M 48.559071 168.687359 
L 57.006295 168.498522 
L 65.45352 168.310178 
L 73.900745 168.122344 
L 82.34797 167.935011 
L 90.795195 167.748167 
L 99.242419 167.561112 
L 107.689644 167.374003 
L 116.136869 167.187385 
L 124.584094 167.001255 
L 133.031318 166.815615 
L 141.478543 166.630461 
L 149.925768 166.44579 
L 158.372993 166.261599 
L 166.820217 166.07784 
L 175.267442 165.893367 
L 183.714667 165.709376 
L 192.161892 165.525879 
L 200.609117 165.342865 
L 209.056341 165.160334 
L 217.503566 164.97828 
L 225.950791 164.796698 
L 234.398016 164.615586 
L 242.84524 164.43455 
L 251.292465 164.25317 
L 259.73969 164.072263 
L 268.186915 163.891823 
L 276.63414 163.71185 
L 285.081364 163.532342 
L 293.528589 163.353307 
L 301.975814 163.174744 
L 310.423039 162.996657 
L 318.870263 162.818544 
L 327.317488 162.640174 
L 335.764713 162.462263 
L 344.211938 162.284811 
L 352.659162 162.107815 
L 361.106387 161.931276 
L 369.553612 161.755193 
L 378.000837 161.579569 
L 386.448062 161.404396 
L 394.895286 161.229356 
L 403.342511 161.053914 
L 411.789736 160.878923 
L 420.236961 160.70438 
L 428.684185 160.530294 
L 437.13141 160.356671 
L 445.578635 160.183493 
L 454.02586 160.010759 
L 462.473085 159.838475 
L 470.920309 159.666633 
L 479.367534 159.494155 
L 487.814759 159.322026 
L 496.261984 159.150341 
L 504.709208 158.979101 
L 513.156433 158.808298 
L 521.603658 158.637932 
L 530.050883 158.468002 
L 538.498107 158.298508 
L 546.945332 158.129452 
L 555.392557 157.960441 
L 563.839782 157.791116 
L 572.287007 157.622222 
L 580.734231 157.453758 
L 589.181456 157.285726 
L 597.628681 157.118123 
L 606.075906 156.950954 
L 614.52313 156.784213 
L 622.970355 156.617899 
L 631.41758 156.452015 
L 639.864805 156.285973 
L 648.31203 156.119809 
L 656.759254 155.954063 
L 665.206479 155.788737 
L 673.653704 155.623831 
L 682.100929 155.459343 
L 690.548153 155.29528 
L 698.995378 155.131639 
L 707.442603 154.968413 
L 715.889828 154.805609 
L 724.337052 154.642731 
L 732.784277 154.479648 
L 741.231502 154.316977 
L 749.678727 154.154718 
L 758.125952 153.992868 
L 766.573176 153.831428 
L 775.020401 153.670397 
L 783.467626 153.509772 
L 791.914851 153.349552 
L 800.362075 153.189737 
L 808.8093 153.030219 
L 817.256525 152.87012 
L 825.70375 152.710439 
L 834.150975 152.551179 
L 842.598199 152.392321 
L 851.045424 152.233863 
L 859.492649 152.075804 
L 867.939874 151.918143 
L 876.387098 151.760878 
L 884.834323 151.604008 
L 893.281548 151.447533 
" clip-path="url(#pa4fd324ab8)" style="fill: none; stroke: #637939; stroke-width: 2; stroke-linecap: round"/>
   </g>
   <g id="line2d_40">
    <path d="M 48.559071 237.84656 
L 57.006295 237.547094 
L 65.45352 237.248462 
L 73.900745 236.949086 
L 82.34797 236.650626 
L 90.795195 236.353067 
L 99.242419 236.055986 
L 107.689644 235.758529 
L 116.136869 235.461986 
L 124.584094 235.166344 
L 133.031318 234.870909 
L 141.478543 234.575325 
L 149.925768 234.280644 
L 158.372993 233.986862 
L 166.820217 233.693112 
L 175.267442 233.399357 
L 183.714667 233.106511 
L 192.161892 232.814574 
L 200.609117 232.52258 
L 209.056341 232.230674 
L 217.503566 231.939658 
L 225.950791 231.64954 
L 234.398016 231.359361 
L 242.84524 231.069239 
L 251.292465 230.780011 
L 259.73969 230.491678 
L 268.186915 230.203375 
L 276.63414 229.915022 
L 285.081364 229.627567 
L 293.528589 229.340977 
L 301.975814 229.054603 
L 310.423039 228.768033 
L 318.870263 228.482329 
L 327.317488 228.197487 
L 335.764713 227.913103 
L 344.211938 227.62824 
L 352.659162 227.344234 
L 361.106387 227.061091 
L 369.553612 226.778761 
L 378.000837 226.495586 
L 386.448062 226.213259 
L 394.895286 225.931797 
L 403.342511 225.651185 
L 411.789736 225.37011 
L 420.236961 225.089457 
L 428.684185 224.809651 
L 437.13141 224.530706 
L 445.578635 224.251834 
L 454.02586 223.972823 
L 462.473085 223.694641 
L 470.920309 223.417307 
L 479.367534 223.140717 
L 487.814759 222.863345 
L 496.261984 222.586785 
L 504.709208 222.311038 
L 513.156433 222.036099 
L 521.603658 221.760921 
L 530.050883 221.485957 
L 538.498107 221.211807 
L 546.945332 220.938465 
L 555.392557 220.665682 
L 563.839782 220.392283 
L 572.287007 220.119693 
L 580.734231 219.847901 
L 589.181456 219.576909 
L 597.628681 219.305719 
L 606.075906 219.034659 
L 614.52313 218.764414 
L 622.970355 218.494958 
L 631.41758 218.226293 
L 639.864805 217.956783 
L 648.31203 217.688038 
L 656.759254 217.420073 
L 665.206479 217.1529 
L 673.653704 216.885993 
L 682.100929 216.618715 
L 690.548153 216.352231 
L 698.995378 216.086525 
L 707.442603 215.821606 
L 715.889828 215.556529 
L 724.337052 215.291501 
L 732.784277 215.027266 
L 741.231502 214.763791 
L 749.678727 214.50107 
L 758.125952 214.237882 
L 766.573176 213.975061 
L 775.020401 213.713011 
L 783.467626 213.451712 
L 791.914851 213.191163 
L 800.362075 212.929937 
L 808.8093 212.669279 
L 817.256525 212.409372 
L 825.70375 212.150235 
L 834.150975 211.891853 
L 842.598199 211.632703 
L 851.045424 211.374194 
L 859.492649 211.116437 
L 867.939874 210.859424 
L 876.387098 210.603149 
L 884.834323 210.346132 
L 893.281548 210.089714 
" clip-path="url(#pa4fd324ab8)" style="fill: none; stroke: #b5cf6b; stroke-width: 2; stroke-linecap: round"/>
   </g>
   <g id="line2d_41">
    <path d="M 48.559071 359.848914 
L 57.006295 359.41338 
L 65.45352 358.978178 
L 73.900745 358.543339 
L 82.34797 358.1086 
L 90.795195 357.674106 
L 99.242419 357.239956 
L 107.689644 356.806188 
L 116.136869 356.37276 
L 124.584094 355.939635 
L 133.031318 355.506905 
L 141.478543 355.074497 
L 149.925768 354.642113 
L 158.372993 354.210138 
L 166.820217 353.778496 
L 175.267442 353.347237 
L 183.714667 352.916372 
L 192.161892 352.485926 
L 200.609117 352.055475 
L 209.056341 351.625375 
L 217.503566 351.195686 
L 225.950791 350.766423 
L 234.398016 350.337562 
L 242.84524 349.908932 
L 251.292465 349.480421 
L 259.73969 349.052357 
L 268.186915 348.624741 
L 276.63414 348.197532 
L 285.081364 347.770585 
L 293.528589 347.343763 
L 301.975814 346.917391 
L 310.423039 346.49148 
L 318.870263 346.066107 
L 327.317488 345.640674 
L 335.764713 345.215609 
L 344.211938 344.791035 
L 352.659162 344.366959 
L 361.106387 343.943093 
L 369.553612 343.519377 
L 378.000837 343.096158 
L 386.448062 342.673473 
L 394.895286 342.251053 
L 403.342511 341.828755 
L 411.789736 341.40699 
L 420.236961 340.98577 
L 428.684185 340.564689 
L 437.13141 340.143874 
L 445.578635 339.723609 
L 454.02586 339.303923 
L 462.473085 338.884116 
L 470.920309 338.464813 
L 479.367534 338.046131 
L 487.814759 337.627769 
L 496.261984 337.209441 
L 504.709208 336.791725 
L 513.156433 336.37465 
L 521.603658 335.957391 
L 530.050883 335.540725 
L 538.498107 335.124715 
L 546.945332 334.708752 
L 555.392557 334.293145 
L 563.839782 333.878213 
L 572.287007 333.463533 
L 580.734231 333.049019 
L 589.181456 332.63519 
L 597.628681 332.221702 
L 606.075906 331.808296 
L 614.52313 331.395654 
L 622.970355 330.983346 
L 631.41758 330.571133 
L 639.864805 330.159624 
L 648.31203 329.748456 
L 656.759254 329.337381 
L 665.206479 328.927159 
L 673.653704 328.517067 
L 682.100929 328.10721 
L 690.548153 327.698206 
L 698.995378 327.289171 
L 707.442603 326.880622 
L 715.889828 326.472904 
L 724.337052 326.064903 
L 732.784277 325.657674 
L 741.231502 325.250981 
L 749.678727 324.844222 
L 758.125952 324.438357 
L 766.573176 324.032619 
L 775.020401 323.627266 
L 783.467626 323.222784 
L 791.914851 322.817922 
L 800.362075 322.413967 
L 808.8093 322.010394 
L 817.256525 321.606987 
L 825.70375 321.204521 
L 834.150975 320.801794 
L 842.598199 320.399887 
L 851.045424 319.998353 
L 859.492649 319.597044 
L 867.939874 319.196684 
L 876.387098 318.795944 
L 884.834323 318.396195 
L 893.281548 317.996644 
" clip-path="url(#pa4fd324ab8)" style="fill: none; stroke: #8c6d31; stroke-width: 2; stroke-linecap: round"/>
   </g>
   <g id="line2d_42">
    <path d="M 48.559071 444.380122 
L 57.006295 443.941726 
L 65.45352 443.502921 
L 73.900745 443.063781 
L 82.34797 442.624314 
L 90.795195 442.184473 
L 99.242419 441.74425 
L 107.689644 441.303802 
L 116.136869 440.862955 
L 124.584094 440.421778 
L 133.031318 439.980328 
L 141.478543 439.538528 
L 149.925768 439.09646 
L 158.372993 438.654034 
L 166.820217 438.211374 
L 175.267442 437.768341 
L 183.714667 437.325097 
L 192.161892 436.881558 
L 200.609117 436.437716 
L 209.056341 435.993672 
L 217.503566 435.549269 
L 225.950791 435.104705 
L 234.398016 434.659857 
L 242.84524 434.214696 
L 251.292465 433.769357 
L 259.73969 433.323794 
L 268.186915 432.877941 
L 276.63414 432.431879 
L 285.081364 431.985639 
L 293.528589 431.539148 
L 301.975814 431.092402 
L 310.423039 430.645475 
L 318.870263 430.198419 
L 327.317488 429.751115 
L 335.764713 429.303629 
L 344.211938 428.855898 
L 352.659162 428.408 
L 361.106387 427.959925 
L 369.553612 427.511685 
L 378.000837 427.063267 
L 386.448062 426.614697 
L 394.895286 426.165983 
L 403.342511 425.717106 
L 411.789736 425.268072 
L 420.236961 424.818887 
L 428.684185 424.369554 
L 437.13141 423.920099 
L 445.578635 423.470497 
L 454.02586 423.020763 
L 462.473085 422.570907 
L 470.920309 422.120923 
L 479.367534 421.670847 
L 487.814759 421.220668 
L 496.261984 420.770357 
L 504.709208 420.319959 
L 513.156433 419.869482 
L 521.603658 419.418911 
L 530.050883 418.968166 
L 538.498107 418.51736 
L 546.945332 418.066487 
L 555.392557 417.615567 
L 563.839782 417.16461 
L 572.287007 416.713546 
L 580.734231 416.262344 
L 589.181456 415.811119 
L 597.628681 415.359896 
L 606.075906 414.908622 
L 614.52313 414.457202 
L 622.970355 414.005776 
L 631.41758 413.554415 
L 639.864805 413.102895 
L 648.31203 412.651329 
L 656.759254 412.199802 
L 665.206479 411.748289 
L 673.653704 411.296616 
L 682.100929 410.845022 
L 690.548153 410.3934 
L 698.995378 409.941711 
L 707.442603 409.490155 
L 715.889828 409.038431 
L 724.337052 408.586801 
L 732.784277 408.135211 
L 741.231502 407.683497 
L 749.678727 407.231968 
L 758.125952 406.780245 
L 766.573176 406.328725 
L 775.020401 405.877123 
L 783.467626 405.425576 
L 791.914851 404.974048 
L 800.362075 404.522541 
L 808.8093 404.071116 
L 817.256525 403.619689 
L 825.70375 403.168343 
L 834.150975 402.717011 
L 842.598199 402.265748 
L 851.045424 401.814533 
L 859.492649 401.363372 
L 867.939874 400.912345 
L 876.387098 400.461213 
L 884.834323 400.010414 
L 893.281548 399.559373 
" clip-path="url(#pa4fd324ab8)" style="fill: none; stroke: #e7cb94; stroke-width: 2; stroke-linecap: round"/>
   </g>
   <g id="line2d_43">
    <path d="M 48.559071 478.962706 
L 57.006295 478.578649 
L 65.45352 478.193636 
L 73.900745 477.807699 
L 82.34797 477.420789 
L 90.795195 477.032923 
L 99.242419 476.644154 
L 107.689644 476.254458 
L 116.136869 475.863888 
L 124.584094 475.472349 
L 133.031318 475.079961 
L 141.478543 474.686702 
L 149.925768 474.292511 
L 158.372993 473.897491 
L 166.820217 473.501592 
L 175.267442 473.104845 
L 183.714667 472.707261 
L 192.161892 472.308856 
L 200.609117 471.909601 
L 209.056341 471.509537 
L 217.503566 471.108677 
L 225.950791 470.707029 
L 234.398016 470.304548 
L 242.84524 469.901283 
L 251.292465 469.497267 
L 259.73969 469.09244 
L 268.186915 468.68691 
L 276.63414 468.280568 
L 285.081364 467.873524 
L 293.528589 467.4657 
L 301.975814 467.057178 
L 310.423039 466.647925 
L 318.870263 466.237974 
L 327.317488 465.827278 
L 335.764713 465.415914 
L 344.211938 465.00386 
L 352.659162 464.591095 
L 361.106387 464.177651 
L 369.553612 463.763541 
L 378.000837 463.348759 
L 386.448062 462.933334 
L 394.895286 462.517271 
L 403.342511 462.100571 
L 411.789736 461.683232 
L 420.236961 461.265236 
L 428.684185 460.846625 
L 437.13141 460.427434 
L 445.578635 460.007645 
L 454.02586 459.587226 
L 462.473085 459.166215 
L 470.920309 458.744654 
L 479.367534 458.322482 
L 487.814759 457.899768 
L 496.261984 457.476465 
L 504.709208 457.052597 
L 513.156433 456.628194 
L 521.603658 456.203247 
L 530.050883 455.777753 
L 538.498107 455.351778 
L 546.945332 454.925199 
L 555.392557 454.498147 
L 563.839782 454.070615 
L 572.287007 453.642528 
L 580.734231 453.213955 
L 589.181456 452.784906 
L 597.628681 452.355391 
L 606.075906 451.925346 
L 614.52313 451.494855 
L 622.970355 451.063887 
L 631.41758 450.632488 
L 639.864805 450.200615 
L 648.31203 449.768307 
L 656.759254 449.335534 
L 665.206479 448.90238 
L 673.653704 448.468754 
L 682.100929 448.03469 
L 690.548153 447.60024 
L 698.995378 447.165382 
L 707.442603 446.730124 
L 715.889828 446.294484 
L 724.337052 445.858438 
L 732.784277 445.421963 
L 741.231502 444.985127 
L 749.678727 444.547921 
L 758.125952 444.110396 
L 766.573176 443.672439 
L 775.020401 443.234142 
L 783.467626 442.795515 
L 791.914851 442.356509 
L 800.362075 441.917147 
L 808.8093 441.477534 
L 817.256525 441.037508 
L 825.70375 440.597194 
L 834.150975 440.156574 
L 842.598199 439.715604 
L 851.045424 439.27438 
L 859.492649 438.832808 
L 867.939874 438.390999 
L 876.387098 437.948807 
L 884.834323 437.506427 
L 893.281548 437.063703 
" clip-path="url(#pa4fd324ab8)" style="fill: none; stroke: #ad494a; stroke-width: 2; stroke-linecap: round"/>
   </g>
   <g id="line2d_44">
    <path d="M 48.559071 495.849067 
L 57.006295 495.521924 
L 65.45352 495.193351 
L 73.900745 494.863357 
L 82.34797 494.531937 
L 90.795195 494.199109 
L 99.242419 493.864884 
L 107.689644 493.529292 
L 116.136869 493.192332 
L 124.584094 492.853997 
L 133.031318 492.514313 
L 141.478543 492.173306 
L 149.925768 491.830951 
L 158.372993 491.487295 
L 166.820217 491.142317 
L 175.267442 490.796038 
L 183.714667 490.448479 
L 192.161892 490.099665 
L 200.609117 489.749561 
L 209.056341 489.398221 
L 217.503566 489.045626 
L 225.950791 488.69181 
L 234.398016 488.336768 
L 242.84524 487.9805 
L 251.292465 487.623034 
L 259.73969 487.264388 
L 268.186915 486.904554 
L 276.63414 486.54354 
L 285.081364 486.181361 
L 293.528589 485.818049 
L 301.975814 485.453571 
L 310.423039 485.087967 
L 318.870263 484.721273 
L 327.317488 484.35342 
L 335.764713 483.98448 
L 344.211938 483.614448 
L 352.659162 483.243338 
L 361.106387 482.871144 
L 369.553612 482.497873 
L 378.000837 482.123559 
L 386.448062 481.748178 
L 394.895286 481.37179 
L 403.342511 480.994358 
L 411.789736 480.615901 
L 420.236961 480.23644 
L 428.684185 479.855977 
L 437.13141 479.474537 
L 445.578635 479.0921 
L 454.02586 478.708692 
L 462.473085 478.32432 
L 470.920309 477.938994 
L 479.367534 477.552737 
L 487.814759 477.165521 
L 496.261984 476.777375 
L 504.709208 476.388299 
L 513.156433 475.998324 
L 521.603658 475.607435 
L 530.050883 475.215675 
L 538.498107 474.823007 
L 546.945332 474.429456 
L 555.392557 474.035046 
L 563.839782 473.639781 
L 572.287007 473.243677 
L 580.734231 472.846711 
L 589.181456 472.448899 
L 597.628681 472.05026 
L 606.075906 471.650799 
L 614.52313 471.250546 
L 622.970355 470.849481 
L 631.41758 470.447656 
L 639.864805 470.04498 
L 648.31203 469.641556 
L 656.759254 469.237358 
L 665.206479 468.832403 
L 673.653704 468.426706 
L 682.100929 468.020191 
L 690.548153 467.613005 
L 698.995378 467.205062 
L 707.442603 466.79639 
L 715.889828 466.38703 
L 724.337052 465.976949 
L 732.784277 465.566144 
L 741.231502 465.154657 
L 749.678727 464.742473 
L 758.125952 464.329627 
L 766.573176 463.916118 
L 775.020401 463.50194 
L 783.467626 463.087079 
L 791.914851 462.671569 
L 800.362075 462.255417 
L 808.8093 461.838643 
L 817.256525 461.421246 
L 825.70375 461.003232 
L 834.150975 460.58461 
L 842.598199 460.165343 
L 851.045424 459.745483 
L 859.492649 459.325098 
L 867.939874 458.904051 
L 876.387098 458.482439 
L 884.834323 458.060307 
L 893.281548 457.63754 
" clip-path="url(#pa4fd324ab8)" style="fill: none; stroke: #e7969c; stroke-width: 2; stroke-linecap: round"/>
   </g>
   <g id="line2d_45">
    <path d="M 48.559071 505.063729 
L 57.006295 504.786246 
L 65.45352 504.50696 
L 73.900745 504.225888 
L 82.34797 503.943022 
L 90.795195 503.658382 
L 99.242419 503.371984 
L 107.689644 503.083857 
L 116.136869 502.794003 
L 124.584094 502.502407 
L 133.031318 502.209121 
L 141.478543 501.914146 
L 149.925768 501.617472 
L 158.372993 501.319151 
L 166.820217 501.019158 
L 175.267442 500.717523 
L 183.714667 500.414257 
L 192.161892 500.109384 
L 200.609117 499.80289 
L 209.056341 499.494805 
L 217.503566 499.185144 
L 225.950791 498.87392 
L 234.398016 498.561128 
L 242.84524 498.246782 
L 251.292465 497.930903 
L 259.73969 497.613504 
L 268.186915 497.294605 
L 276.63414 496.974194 
L 285.081364 496.652291 
L 293.528589 496.328918 
L 301.975814 496.004079 
L 310.423039 495.677787 
L 318.870263 495.350079 
L 327.317488 495.020896 
L 335.764713 494.690313 
L 344.211938 494.358327 
L 352.659162 494.024937 
L 361.106387 493.690159 
L 369.553612 493.354 
L 378.000837 493.016469 
L 386.448062 492.677603 
L 394.895286 492.337385 
L 403.342511 491.99584 
L 411.789736 491.652973 
L 420.236961 491.308793 
L 428.684185 490.963311 
L 437.13141 490.616554 
L 445.578635 490.268515 
L 454.02586 489.919195 
L 462.473085 489.568634 
L 470.920309 489.216806 
L 479.367534 488.863757 
L 487.814759 488.509485 
L 496.261984 488.153976 
L 504.709208 487.797266 
L 513.156433 487.439363 
L 521.603658 487.080281 
L 530.050883 486.720008 
L 538.498107 486.35859 
L 546.945332 485.995988 
L 555.392557 485.632255 
L 563.839782 485.267394 
L 572.287007 484.901402 
L 580.734231 484.534285 
L 589.181456 484.166058 
L 597.628681 483.79674 
L 606.075906 483.426325 
L 614.52313 483.054841 
L 622.970355 482.682284 
L 631.41758 482.308683 
L 639.864805 481.934007 
L 648.31203 481.558304 
L 656.759254 481.181558 
L 665.206479 480.803811 
L 673.653704 480.425027 
L 682.100929 480.04523 
L 690.548153 479.66446 
L 698.995378 479.282701 
L 707.442603 478.899958 
L 715.889828 478.516251 
L 724.337052 478.131592 
L 732.784277 477.745987 
L 741.231502 477.359422 
L 749.678727 476.971913 
L 758.125952 476.583512 
L 766.573176 476.194172 
L 775.020401 475.803952 
L 783.467626 475.412797 
L 791.914851 475.020755 
L 800.362075 474.627848 
L 808.8093 474.234079 
L 817.256525 473.839425 
L 825.70375 473.443915 
L 834.150975 473.047563 
L 842.598199 472.650377 
L 851.045424 472.252349 
L 859.492649 471.853533 
L 867.939874 471.453883 
L 876.387098 471.053406 
L 884.834323 470.652149 
L 893.281548 470.250097 
" clip-path="url(#pa4fd324ab8)" style="fill: none; stroke: #a55194; stroke-width: 2; stroke-linecap: round"/>
   </g>
   <g id="line2d_46">
    <path d="M 48.559071 510.489142 
L 57.006295 510.253222 
L 65.45352 510.015204 
L 73.900745 509.775112 
L 82.34797 509.532938 
L 90.795195 509.288703 
L 99.242419 509.042424 
L 107.689644 508.794131 
L 116.136869 508.543823 
L 124.584094 508.291499 
L 133.031318 508.0372 
L 141.478543 507.780934 
L 149.925768 507.522693 
L 158.372993 507.262522 
L 166.820217 507.000408 
L 175.267442 506.736377 
L 183.714667 506.470448 
L 192.161892 506.202636 
L 200.609117 505.932938 
L 209.056341 505.661377 
L 217.503566 505.387971 
L 225.950791 505.112734 
L 234.398016 504.83567 
L 242.84524 504.556787 
L 251.292465 504.276108 
L 259.73969 503.99365 
L 268.186915 503.709432 
L 276.63414 503.42344 
L 285.081364 503.135706 
L 293.528589 502.846245 
L 301.975814 502.55506 
L 310.423039 502.262172 
L 318.870263 501.967607 
L 327.317488 501.671328 
L 335.764713 501.373393 
L 344.211938 501.073804 
L 352.659162 500.772571 
L 361.106387 500.469702 
L 369.553612 500.165212 
L 378.000837 499.85911 
L 386.448062 499.551414 
L 394.895286 499.242143 
L 403.342511 498.931294 
L 411.789736 498.618886 
L 420.236961 498.304928 
L 428.684185 497.989433 
L 437.13141 497.672425 
L 445.578635 497.353898 
L 454.02586 497.033872 
L 462.473085 496.712357 
L 470.920309 496.389357 
L 479.367534 496.064901 
L 487.814759 495.738996 
L 496.261984 495.411631 
L 504.709208 495.082828 
L 513.156433 494.752615 
L 521.603658 494.420993 
L 530.050883 494.087967 
L 538.498107 493.753559 
L 546.945332 493.417772 
L 555.392557 493.080611 
L 563.839782 492.742107 
L 572.287007 492.402262 
L 580.734231 492.06108 
L 589.181456 491.718574 
L 597.628681 491.374753 
L 606.075906 491.029626 
L 614.52313 490.683222 
L 622.970355 490.335528 
L 631.41758 489.986587 
L 639.864805 489.636358 
L 648.31203 489.284895 
L 656.759254 488.932183 
L 665.206479 488.578276 
L 673.653704 488.223121 
L 682.100929 487.866743 
L 690.548153 487.509184 
L 698.995378 487.150441 
L 707.442603 486.790528 
L 715.889828 486.429434 
L 724.337052 486.067209 
L 732.784277 485.703803 
L 741.231502 485.339274 
L 749.678727 484.973605 
L 758.125952 484.60683 
L 766.573176 484.238952 
L 775.020401 483.86997 
L 783.467626 483.499882 
L 791.914851 483.128722 
L 800.362075 482.756497 
L 808.8093 482.383201 
L 817.256525 482.00888 
L 825.70375 481.633482 
L 834.150975 481.257073 
L 842.598199 480.879642 
L 851.045424 480.50117 
L 859.492649 480.121731 
L 867.939874 479.741274 
L 876.387098 479.359827 
L 884.834323 478.977423 
L 893.281548 478.594033 
" clip-path="url(#pa4fd324ab8)" style="fill: none; stroke: #de9ed6; stroke-width: 2; stroke-linecap: round"/>
   </g>
   <g id="patch_3">
    <path d="M 48.559071 521.153031 
L 48.559071 51.564121 
" style="fill: none"/>
   </g>
   <g id="patch_4">
    <path d="M 935.517672 521.153031 
L 935.517672 51.564121 
" style="fill: none"/>
   </g>
   <g id="patch_5">
    <path d="M 48.559071 521.153031 
L 935.517672 521.153031 
" style="fill: none"/>
   </g>
   <g id="patch_6">
    <path d="M 48.559071 51.564121 
L 935.517672 51.564121 
" style="fill: none"/>
   </g>
   <g id="patch_7">
    <path d="M 470.920309 79.896258 
Q 470.920309 283.785923 470.920309 485.998538 
" style="fill: none; stroke: #000000; stroke-width: 1.5; stroke-linecap: round"/>
    <path d="M 474.120309 479.598538 
L 470.920309 485.998538 
L 467.720309 479.598538 
" style="fill: none; stroke: #000000; stroke-width: 1.5; stroke-linecap: round"/>
   </g>
   <g id="text_20">
    <!-- Time -->
    <g style="fill: #262626" transform="translate(492.038371 486.185263) scale(0.18 -0.18)">
     <defs>
      <path id="CMR17-54" d="M 3981 4326 
L 288 4326 
L 179 2918 
L 294 2918 
C 378 3976 467 4160 1453 4160 
C 1568 4160 1754 4160 1805 4154 
C 1926 4135 1926 4058 1926 3912 
L 1926 459 
C 1926 230 1907 160 1376 160 
L 1197 160 
L 1197 0 
C 1504 0 1824 0 2138 0 
C 2451 0 2771 0 3078 0 
L 3078 160 
L 2899 160 
C 2368 160 2349 230 2349 459 
L 2349 3912 
C 2349 4052 2349 4129 2464 4154 
C 2515 4160 2701 4160 2816 4160 
C 3795 4160 3891 3976 3974 2918 
L 4090 2918 
L 3981 4326 
z
" transform="scale(0.015625)"/>
      <path id="CMR17-69" d="M 992 3909 
C 992 4049 877 4170 730 4170 
C 589 4170 467 4056 467 3909 
C 467 3769 582 3648 730 3648 
C 870 3648 992 3763 992 3909 
z
M 243 2706 
L 243 2541 
C 602 2541 653 2502 653 2197 
L 653 427 
C 653 184 627 153 218 153 
L 218 -13 
C 371 0 646 0 806 0 
C 960 0 1222 0 1370 -13 
L 1370 153 
C 992 153 979 191 979 420 
L 979 2776 
L 243 2706 
z
" transform="scale(0.015625)"/>
      <path id="CMR17-6d" d="M 4326 1933 
C 4326 2252 4269 2790 3507 2790 
C 3072 2790 2771 2496 2656 2151 
L 2650 2151 
C 2573 2676 2195 2790 1837 2790 
C 1331 2790 1069 2400 973 2144 
L 966 2144 
L 966 2790 
L 211 2720 
L 211 2554 
C 589 2554 646 2515 646 2208 
L 646 428 
C 646 184 621 153 211 153 
L 211 -13 
C 365 0 646 0 813 0 
C 979 0 1267 0 1421 -13 
L 1421 153 
C 1011 153 986 178 986 428 
L 986 1658 
C 986 2247 1344 2688 1792 2688 
C 2266 2688 2317 2266 2317 1958 
L 2317 428 
C 2317 184 2291 153 1882 153 
L 1882 -13 
C 2035 0 2317 0 2483 0 
C 2650 0 2938 0 3091 -13 
L 3091 153 
C 2682 153 2656 178 2656 428 
L 2656 1658 
C 2656 2247 3014 2688 3462 2688 
C 3936 2688 3987 2266 3987 1958 
L 3987 428 
C 3987 184 3962 153 3552 153 
L 3552 -13 
C 3706 0 3987 0 4154 0 
C 4320 0 4608 0 4762 -13 
L 4762 153 
C 4352 153 4326 178 4326 428 
L 4326 1933 
z
" transform="scale(0.015625)"/>
      <path id="CMR17-65" d="M 2438 1472 
C 2464 1498 2464 1511 2464 1576 
C 2464 2238 2118 2816 1389 2816 
C 710 2816 173 2169 173 1383 
C 173 551 781 -64 1459 -64 
C 2176 -64 2458 607 2458 740 
C 2458 784 2419 784 2406 784 
C 2362 784 2355 771 2330 696 
C 2189 265 1837 51 1504 51 
C 1229 51 954 203 781 480 
C 582 803 582 1176 582 1472 
L 2438 1472 
z
M 589 1568 
C 634 2505 1126 2714 1382 2714 
C 1818 2714 2112 2297 2118 1568 
L 589 1568 
z
" transform="scale(0.015625)"/>
     </defs>
     <use xlink:href="#CMR17-54" transform="scale(0.996264)"/>
     <use xlink:href="#CMR17-69" transform="translate(66.509881 0) scale(0.996264)"/>
     <use xlink:href="#CMR17-6d" transform="translate(91.380939 0) scale(0.996264)"/>
     <use xlink:href="#CMR17-65" transform="translate(168.300529 0) scale(0.996264)"/>
    </g>
   </g>
   <g id="legend_1">
    <g id="line2d_47">
     <path d="M 948.117672 197.198434 
L 962.117672 197.198434 
L 976.117672 197.198434 
" style="fill: none; stroke: #393b79; stroke-width: 2; stroke-linecap: round"/>
    </g>
    <g id="text_21">
     <!-- t = 0.00 -->
     <g style="fill: #262626" transform="translate(987.317672 202.098434) scale(0.14 -0.14)">
      <defs>
       <path id="CMR17-74" d="M 966 2560 
L 1862 2560 
L 1862 2725 
L 966 2725 
L 966 3904 
L 851 3904 
C 838 3245 614 2668 70 2668 
L 70 2560 
L 627 2560 
L 627 771 
C 627 650 627 -64 1370 -64 
C 1747 -64 1965 306 1965 777 
L 1965 1140 
L 1850 1140 
L 1850 783 
C 1850 344 1677 51 1408 51 
C 1222 51 966 178 966 758 
L 966 2560 
z
" transform="scale(0.015625)"/>
       <path id="CMR17-3d" d="M 4115 2017 
C 4211 2017 4307 2017 4307 2125 
C 4307 2240 4198 2240 4090 2240 
L 512 2240 
C 403 2240 294 2240 294 2125 
C 294 2017 390 2017 486 2017 
L 4115 2017 
z
M 4090 896 
C 4198 896 4307 896 4307 1011 
C 4307 1119 4211 1119 4115 1119 
L 486 1119 
C 390 1119 294 1119 294 1011 
C 294 896 403 896 512 896 
L 4090 896 
z
" transform="scale(0.015625)"/>
       <path id="CMR17-2e" d="M 1062 261 
C 1062 420 934 522 800 522 
C 672 522 538 420 538 261 
C 538 102 666 0 800 0 
C 928 0 1062 102 1062 261 
z
" transform="scale(0.015625)"/>
      </defs>
      <use xlink:href="#CMR17-74" transform="scale(0.996264)"/>
      <use xlink:href="#CMR17-3d" transform="translate(65.356734 0) scale(0.996264)"/>
      <use xlink:href="#CMR17-30" transform="translate(167.147489 0) scale(0.996264)"/>
      <use xlink:href="#CMR17-2e" transform="translate(212.837966 0) scale(0.996264)"/>
      <use xlink:href="#CMR17-30" transform="translate(237.709025 0) scale(0.996264)"/>
      <use xlink:href="#CMR17-30" transform="translate(283.399502 0) scale(0.996264)"/>
     </g>
    </g>
    <g id="line2d_48">
     <path d="M 948.117672 216.710462 
L 962.117672 216.710462 
L 976.117672 216.710462 
" style="fill: none; stroke: #6b6ecf; stroke-width: 2; stroke-linecap: round"/>
    </g>
    <g id="text_22">
     <!-- t = 10.00 -->
     <g style="fill: #262626" transform="translate(987.317672 221.610462) scale(0.14 -0.14)">
      <use xlink:href="#CMR17-74" transform="scale(0.996264)"/>
      <use xlink:href="#CMR17-3d" transform="translate(65.356734 0) scale(0.996264)"/>
      <use xlink:href="#CMR17-31" transform="translate(167.147489 0) scale(0.996264)"/>
      <use xlink:href="#CMR17-30" transform="translate(212.837966 0) scale(0.996264)"/>
      <use xlink:href="#CMR17-2e" transform="translate(258.528443 0) scale(0.996264)"/>
      <use xlink:href="#CMR17-30" transform="translate(283.399502 0) scale(0.996264)"/>
      <use xlink:href="#CMR17-30" transform="translate(329.089979 0) scale(0.996264)"/>
     </g>
    </g>
    <g id="line2d_49">
     <path d="M 948.117672 236.222491 
L 962.117672 236.222491 
L 976.117672 236.222491 
" style="fill: none; stroke: #637939; stroke-width: 2; stroke-linecap: round"/>
    </g>
    <g id="text_23">
     <!-- t = 50.00 -->
     <g style="fill: #262626" transform="translate(987.317672 241.122491) scale(0.14 -0.14)">
      <use xlink:href="#CMR17-74" transform="scale(0.996264)"/>
      <use xlink:href="#CMR17-3d" transform="translate(65.356734 0) scale(0.996264)"/>
      <use xlink:href="#CMR17-35" transform="translate(167.147489 0) scale(0.996264)"/>
      <use xlink:href="#CMR17-30" transform="translate(212.837966 0) scale(0.996264)"/>
      <use xlink:href="#CMR17-2e" transform="translate(258.528443 0) scale(0.996264)"/>
      <use xlink:href="#CMR17-30" transform="translate(283.399502 0) scale(0.996264)"/>
      <use xlink:href="#CMR17-30" transform="translate(329.089979 0) scale(0.996264)"/>
     </g>
    </g>
    <g id="line2d_50">
     <path d="M 948.117672 255.734519 
L 962.117672 255.734519 
L 976.117672 255.734519 
" style="fill: none; stroke: #b5cf6b; stroke-width: 2; stroke-linecap: round"/>
    </g>
    <g id="text_24">
     <!-- t = 100.00 -->
     <g style="fill: #262626" transform="translate(987.317672 260.634519) scale(0.14 -0.14)">
      <use xlink:href="#CMR17-74" transform="scale(0.996264)"/>
      <use xlink:href="#CMR17-3d" transform="translate(65.356734 0) scale(0.996264)"/>
      <use xlink:href="#CMR17-31" transform="translate(167.147489 0) scale(0.996264)"/>
      <use xlink:href="#CMR17-30" transform="translate(212.837966 0) scale(0.996264)"/>
      <use xlink:href="#CMR17-30" transform="translate(258.528443 0) scale(0.996264)"/>
      <use xlink:href="#CMR17-2e" transform="translate(304.21892 0) scale(0.996264)"/>
      <use xlink:href="#CMR17-30" transform="translate(329.089979 0) scale(0.996264)"/>
      <use xlink:href="#CMR17-30" transform="translate(374.780456 0) scale(0.996264)"/>
     </g>
    </g>
    <g id="line2d_51">
     <path d="M 948.117672 275.246547 
L 962.117672 275.246547 
L 976.117672 275.246547 
" style="fill: none; stroke: #8c6d31; stroke-width: 2; stroke-linecap: round"/>
    </g>
    <g id="text_25">
     <!-- t = 250.00 -->
     <g style="fill: #262626" transform="translate(987.317672 280.146547) scale(0.14 -0.14)">
      <use xlink:href="#CMR17-74" transform="scale(0.996264)"/>
      <use xlink:href="#CMR17-3d" transform="translate(65.356734 0) scale(0.996264)"/>
      <use xlink:href="#CMR17-32" transform="translate(167.147489 0) scale(0.996264)"/>
      <use xlink:href="#CMR17-35" transform="translate(212.837966 0) scale(0.996264)"/>
      <use xlink:href="#CMR17-30" transform="translate(258.528443 0) scale(0.996264)"/>
      <use xlink:href="#CMR17-2e" transform="translate(304.21892 0) scale(0.996264)"/>
      <use xlink:href="#CMR17-30" transform="translate(329.089979 0) scale(0.996264)"/>
      <use xlink:href="#CMR17-30" transform="translate(374.780456 0) scale(0.996264)"/>
     </g>
    </g>
    <g id="line2d_52">
     <path d="M 948.117672 294.758576 
L 962.117672 294.758576 
L 976.117672 294.758576 
" style="fill: none; stroke: #e7cb94; stroke-width: 2; stroke-linecap: round"/>
    </g>
    <g id="text_26">
     <!-- t = 500.00 -->
     <g style="fill: #262626" transform="translate(987.317672 299.658576) scale(0.14 -0.14)">
      <use xlink:href="#CMR17-74" transform="scale(0.996264)"/>
      <use xlink:href="#CMR17-3d" transform="translate(65.356734 0) scale(0.996264)"/>
      <use xlink:href="#CMR17-35" transform="translate(167.147489 0) scale(0.996264)"/>
      <use xlink:href="#CMR17-30" transform="translate(212.837966 0) scale(0.996264)"/>
      <use xlink:href="#CMR17-30" transform="translate(258.528443 0) scale(0.996264)"/>
      <use xlink:href="#CMR17-2e" transform="translate(304.21892 0) scale(0.996264)"/>
      <use xlink:href="#CMR17-30" transform="translate(329.089979 0) scale(0.996264)"/>
      <use xlink:href="#CMR17-30" transform="translate(374.780456 0) scale(0.996264)"/>
     </g>
    </g>
    <g id="line2d_53">
     <path d="M 948.117672 314.270604 
L 962.117672 314.270604 
L 976.117672 314.270604 
" style="fill: none; stroke: #ad494a; stroke-width: 2; stroke-linecap: round"/>
    </g>
    <g id="text_27">
     <!-- t = 750.00 -->
     <g style="fill: #262626" transform="translate(987.317672 319.170604) scale(0.14 -0.14)">
      <use xlink:href="#CMR17-74" transform="scale(0.996264)"/>
      <use xlink:href="#CMR17-3d" transform="translate(65.356734 0) scale(0.996264)"/>
      <use xlink:href="#CMR17-37" transform="translate(167.147489 0) scale(0.996264)"/>
      <use xlink:href="#CMR17-35" transform="translate(212.837966 0) scale(0.996264)"/>
      <use xlink:href="#CMR17-30" transform="translate(258.528443 0) scale(0.996264)"/>
      <use xlink:href="#CMR17-2e" transform="translate(304.21892 0) scale(0.996264)"/>
      <use xlink:href="#CMR17-30" transform="translate(329.089979 0) scale(0.996264)"/>
      <use xlink:href="#CMR17-30" transform="translate(374.780456 0) scale(0.996264)"/>
     </g>
    </g>
    <g id="line2d_54">
     <path d="M 948.117672 333.782633 
L 962.117672 333.782633 
L 976.117672 333.782633 
" style="fill: none; stroke: #e7969c; stroke-width: 2; stroke-linecap: round"/>
    </g>
    <g id="text_28">
     <!-- t = 1000.00 -->
     <g style="fill: #262626" transform="translate(987.317672 338.682633) scale(0.14 -0.14)">
      <use xlink:href="#CMR17-74" transform="scale(0.996264)"/>
      <use xlink:href="#CMR17-3d" transform="translate(65.356734 0) scale(0.996264)"/>
      <use xlink:href="#CMR17-31" transform="translate(167.147489 0) scale(0.996264)"/>
      <use xlink:href="#CMR17-30" transform="translate(212.837966 0) scale(0.996264)"/>
      <use xlink:href="#CMR17-30" transform="translate(258.528443 0) scale(0.996264)"/>
      <use xlink:href="#CMR17-30" transform="translate(304.21892 0) scale(0.996264)"/>
      <use xlink:href="#CMR17-2e" transform="translate(349.909397 0) scale(0.996264)"/>
      <use xlink:href="#CMR17-30" transform="translate(374.780456 0) scale(0.996264)"/>
      <use xlink:href="#CMR17-30" transform="translate(420.470933 0) scale(0.996264)"/>
     </g>
    </g>
    <g id="line2d_55">
     <path d="M 948.117672 353.294661 
L 962.117672 353.294661 
L 976.117672 353.294661 
" style="fill: none; stroke: #a55194; stroke-width: 2; stroke-linecap: round"/>
    </g>
    <g id="text_29">
     <!-- t = 1250.00 -->
     <g style="fill: #262626" transform="translate(987.317672 358.194661) scale(0.14 -0.14)">
      <use xlink:href="#CMR17-74" transform="scale(0.996264)"/>
      <use xlink:href="#CMR17-3d" transform="translate(65.356734 0) scale(0.996264)"/>
      <use xlink:href="#CMR17-31" transform="translate(167.147489 0) scale(0.996264)"/>
      <use xlink:href="#CMR17-32" transform="translate(212.837966 0) scale(0.996264)"/>
      <use xlink:href="#CMR17-35" transform="translate(258.528443 0) scale(0.996264)"/>
      <use xlink:href="#CMR17-30" transform="translate(304.21892 0) scale(0.996264)"/>
      <use xlink:href="#CMR17-2e" transform="translate(349.909397 0) scale(0.996264)"/>
      <use xlink:href="#CMR17-30" transform="translate(374.780456 0) scale(0.996264)"/>
      <use xlink:href="#CMR17-30" transform="translate(420.470933 0) scale(0.996264)"/>
     </g>
    </g>
    <g id="line2d_56">
     <path d="M 948.117672 372.806689 
L 962.117672 372.806689 
L 976.117672 372.806689 
" style="fill: none; stroke: #de9ed6; stroke-width: 2; stroke-linecap: round"/>
    </g>
    <g id="text_30">
     <!-- t = 1500.00 -->
     <g style="fill: #262626" transform="translate(987.317672 377.706689) scale(0.14 -0.14)">
      <use xlink:href="#CMR17-74" transform="scale(0.996264)"/>
      <use xlink:href="#CMR17-3d" transform="translate(65.356734 0) scale(0.996264)"/>
      <use xlink:href="#CMR17-31" transform="translate(167.147489 0) scale(0.996264)"/>
      <use xlink:href="#CMR17-35" transform="translate(212.837966 0) scale(0.996264)"/>
      <use xlink:href="#CMR17-30" transform="translate(258.528443 0) scale(0.996264)"/>
      <use xlink:href="#CMR17-30" transform="translate(304.21892 0) scale(0.996264)"/>
      <use xlink:href="#CMR17-2e" transform="translate(349.909397 0) scale(0.996264)"/>
      <use xlink:href="#CMR17-30" transform="translate(374.780456 0) scale(0.996264)"/>
      <use xlink:href="#CMR17-30" transform="translate(420.470933 0) scale(0.996264)"/>
     </g>
    </g>
   </g>
  </g>
  <g id="text_31">
   <!-- permeability -->
   <g style="fill: #262626" transform="translate(492.111452 24.803515) scale(0.192 -0.192)">
    <defs>
     <path id="CMR17-70" d="M 1408 -1063 
C 998 -1063 973 -1037 973 -789 
L 973 402 
C 1158 134 1427 -38 1766 -38 
C 2406 -38 3053 523 3053 1388 
C 3053 2191 2496 2802 1837 2802 
C 1453 2802 1139 2592 960 2338 
L 960 2802 
L 198 2732 
L 198 2567 
C 576 2567 634 2528 634 2223 
L 634 -789 
C 634 -1031 608 -1063 198 -1063 
L 198 -1228 
C 352 -1216 634 -1216 800 -1216 
C 966 -1216 1254 -1216 1408 -1228 
L 1408 -1063 
z
M 973 2012 
C 973 2102 973 2235 1222 2471 
C 1254 2497 1472 2688 1792 2688 
C 2259 2688 2643 2108 2643 1382 
C 2643 656 2234 64 1728 64 
C 1498 64 1248 172 1056 472 
C 973 612 973 650 973 752 
L 973 2012 
z
" transform="scale(0.015625)"/>
     <path id="CMR17-72" d="M 960 1497 
C 960 2112 1222 2688 1702 2688 
C 1747 2688 1792 2682 1837 2662 
C 1837 2662 1696 2617 1696 2452 
C 1696 2298 1818 2234 1914 2234 
C 1990 2234 2131 2279 2131 2458 
C 2131 2663 1926 2790 1709 2790 
C 1222 2790 1011 2317 947 2093 
L 941 2093 
L 941 2790 
L 198 2720 
L 198 2554 
C 576 2554 634 2515 634 2208 
L 634 428 
C 634 184 608 153 198 153 
L 198 -13 
C 352 0 646 0 813 0 
C 998 0 1325 0 1498 -13 
L 1498 153 
C 1037 153 960 153 960 440 
L 960 1497 
z
" transform="scale(0.015625)"/>
     <path id="CMR17-61" d="M 2304 1653 
C 2304 2072 2304 2294 2035 2543 
C 1798 2752 1523 2816 1306 2816 
C 800 2816 435 2407 435 1971 
C 435 1728 627 1728 666 1728 
C 749 1728 896 1778 896 1954 
C 896 2112 774 2181 666 2181 
C 640 2181 608 2174 589 2168 
C 723 2592 1069 2714 1293 2714 
C 1613 2714 1965 2429 1965 1885 
L 1965 1600 
C 1587 1600 1133 1549 774 1357 
C 371 1133 256 813 256 570 
C 256 77 832 -64 1171 -64 
C 1523 -64 1850 139 1990 511 
C 2003 233 2182 -18 2464 -18 
C 2598 -18 2938 70 2938 567 
L 2938 920 
L 2822 920 
L 2822 562 
C 2822 178 2650 128 2566 128 
C 2304 128 2304 458 2304 738 
L 2304 1653 
z
M 1965 870 
C 1965 317 1568 38 1216 38 
C 896 38 646 275 646 570 
C 646 761 730 1100 1101 1305 
C 1408 1478 1760 1504 1965 1504 
L 1965 870 
z
" transform="scale(0.015625)"/>
     <path id="CMR17-62" d="M 960 4396 
L 198 4326 
L 198 4160 
C 576 4160 634 4122 634 3817 
L 634 -13 
L 749 -13 
L 934 441 
C 1120 141 1395 -64 1766 -64 
C 2406 -64 3053 500 3053 1370 
C 3053 2188 2477 2790 1830 2790 
C 1434 2790 1152 2579 960 2330 
L 960 4396 
z
M 973 2004 
C 973 2118 973 2138 1062 2272 
C 1312 2657 1670 2688 1792 2688 
C 1984 2688 2643 2585 2643 1376 
C 2643 108 1888 38 1734 38 
C 1536 38 1248 114 1043 486 
C 973 608 973 621 973 735 
L 973 2004 
z
" transform="scale(0.015625)"/>
     <path id="CMR17-6c" d="M 979 4396 
L 218 4326 
L 218 4160 
C 595 4160 653 4122 653 3817 
L 653 426 
C 653 184 627 153 218 153 
L 218 -13 
C 371 0 653 0 813 0 
C 979 0 1261 0 1414 -13 
L 1414 153 
C 1005 153 979 178 979 426 
L 979 4396 
z
" transform="scale(0.015625)"/>
     <path id="CMR17-79" d="M 2496 2197 
C 2656 2586 2944 2586 3034 2586 
L 3034 2752 
C 2912 2752 2752 2752 2630 2752 
C 2496 2752 2285 2752 2157 2758 
L 2157 2592 
C 2400 2573 2406 2394 2406 2343 
C 2406 2280 2394 2248 2362 2171 
L 1664 449 
L 902 2306 
C 870 2382 870 2426 870 2433 
C 870 2573 1018 2586 1171 2586 
L 1171 2758 
C 1018 2752 742 2752 582 2752 
C 410 2752 205 2752 64 2758 
L 64 2586 
C 410 2586 448 2554 531 2350 
L 1485 15 
C 1197 -738 1030 -1178 627 -1178 
C 557 -1178 397 -1159 282 -1044 
C 429 -1031 493 -942 493 -833 
C 493 -725 416 -629 288 -629 
C 147 -629 77 -725 77 -840 
C 77 -1095 339 -1280 627 -1280 
C 998 -1280 1229 -922 1357 -604 
L 2496 2197 
z
" transform="scale(0.015625)"/>
    </defs>
    <use xlink:href="#CMR17-70" transform="scale(0.996264)"/>
    <use xlink:href="#CMR17-65" transform="translate(53.497809 0) scale(0.996264)"/>
    <use xlink:href="#CMR17-72" transform="translate(93.983469 0) scale(0.996264)"/>
    <use xlink:href="#CMR17-6d" transform="translate(129.264237 0) scale(0.996264)"/>
    <use xlink:href="#CMR17-65" transform="translate(206.183827 0) scale(0.996264)"/>
    <use xlink:href="#CMR17-61" transform="translate(246.669487 0) scale(0.996264)"/>
    <use xlink:href="#CMR17-62" transform="translate(292.359964 0) scale(0.996264)"/>
    <use xlink:href="#CMR17-69" transform="translate(343.255334 0) scale(0.996264)"/>
    <use xlink:href="#CMR17-6c" transform="translate(368.126392 0) scale(0.996264)"/>
    <use xlink:href="#CMR17-69" transform="translate(392.997451 0) scale(0.996264)"/>
    <use xlink:href="#CMR17-74" transform="translate(417.868509 0) scale(0.996264)"/>
    <use xlink:href="#CMR17-79" transform="translate(450.546823 0) scale(0.996264)"/>
   </g>
  </g>
 </g>
 <defs>
  <clipPath id="pa4fd324ab8">
   <rect x="48.559071" y="51.564121" width="886.958601" height="469.58891"/>
  </clipPath>
 </defs>
</svg>
