<?xml version="1.0" encoding="utf-8" standalone="no"?>
<!DOCTYPE svg PUBLIC "-//W3C//DTD SVG 1.1//EN"
  "http://www.w3.org/Graphics/SVG/1.1/DTD/svg11.dtd">
<svg xmlns:xlink="http://www.w3.org/1999/xlink" width="1080pt" height="756pt" viewBox="0 0 1080 756" xmlns="http://www.w3.org/2000/svg" version="1.1">
 <metadata>
  <rdf:RDF xmlns:dc="http://purl.org/dc/elements/1.1/" xmlns:cc="http://creativecommons.org/ns#" xmlns:rdf="http://www.w3.org/1999/02/22-rdf-syntax-ns#">
   <cc:Work>
    <dc:type rdf:resource="http://purl.org/dc/dcmitype/StillImage"/>
    <dc:date>2024-07-30T18:07:20.094836</dc:date>
    <dc:format>image/svg+xml</dc:format>
    <dc:creator>
     <cc:Agent>
      <dc:title>Matplotlib v3.9.0, https://matplotlib.org/</dc:title>
     </cc:Agent>
    </dc:creator>
   </cc:Work>
  </rdf:RDF>
 </metadata>
 <defs>
  <style type="text/css">*{stroke-linejoin: round; stroke-linecap: butt}</style>
 </defs>
 <g id="figure_1">
  <g id="patch_1">
   <path d="M 0 756 
L 1080 756 
L 1080 0 
L 0 0 
z
" style="fill: #ffffff"/>
  </g>
  <g id="axes_1">
   <g id="patch_2">
    <path d="M 88.532127 678.237256 
L 1041.12 678.237256 
L 1041.12 38.88 
L 88.532127 38.88 
z
" style="fill: #ffffff"/>
   </g>
   <g id="matplotlib.axis_1">
    <g id="xtick_1">
     <g id="line2d_1">
      <defs>
       <path id="m10ba4e57dd" d="M 0 0 
L 0 3.5 
" style="stroke: #262626; stroke-width: 0.8"/>
      </defs>
      <g>
       <use xlink:href="#m10ba4e57dd" x="88.532127" y="678.237256" style="fill: #262626; stroke: #262626; stroke-width: 0.8"/>
      </g>
     </g>
     <g id="text_1">
      <!-- $\mathdefault{0}$ -->
      <g style="fill: #262626" transform="translate(80.307841 710.143856) scale(0.36 -0.36)">
       <defs>
        <path id="CMR17-30" d="M 2688 2025 
C 2688 2416 2682 3080 2413 3591 
C 2176 4039 1798 4198 1466 4198 
C 1158 4198 768 4058 525 3597 
C 269 3118 243 2524 243 2025 
C 243 1661 250 1106 448 619 
C 723 -39 1216 -128 1466 -128 
C 1760 -128 2208 -7 2470 600 
C 2662 1042 2688 1559 2688 2025 
z
M 1466 -26 
C 1056 -26 813 325 723 812 
C 653 1188 653 1738 653 2096 
C 653 2588 653 2997 736 3387 
C 858 3929 1216 4096 1466 4096 
C 1728 4096 2067 3923 2189 3400 
C 2272 3036 2278 2607 2278 2096 
C 2278 1680 2278 1169 2202 792 
C 2067 95 1690 -26 1466 -26 
z
" transform="scale(0.015625)"/>
       </defs>
       <use xlink:href="#CMR17-30" transform="scale(0.996264)"/>
      </g>
     </g>
    </g>
    <g id="xtick_2">
     <g id="line2d_2">
      <g>
       <use xlink:href="#m10ba4e57dd" x="239.736552" y="678.237256" style="fill: #262626; stroke: #262626; stroke-width: 0.8"/>
      </g>
     </g>
     <g id="text_2">
      <!-- $\mathdefault{500}$ -->
      <g style="fill: #262626" transform="translate(215.063694 710.143856) scale(0.36 -0.36)">
       <defs>
        <path id="CMR17-35" d="M 730 3692 
C 794 3666 1056 3584 1325 3584 
C 1920 3584 2246 3911 2432 4100 
C 2432 4157 2432 4192 2394 4192 
C 2387 4192 2374 4192 2323 4163 
C 2099 4058 1837 3973 1517 3973 
C 1325 3973 1037 3999 723 4139 
C 653 4171 640 4171 634 4171 
C 602 4171 595 4164 595 4037 
L 595 2203 
C 595 2089 595 2057 659 2057 
C 691 2057 704 2070 736 2114 
C 941 2401 1222 2522 1542 2522 
C 1766 2522 2246 2382 2246 1289 
C 2246 1085 2246 715 2054 421 
C 1894 159 1645 25 1370 25 
C 947 25 518 320 403 814 
C 429 807 480 795 506 795 
C 589 795 749 840 749 1038 
C 749 1210 627 1280 506 1280 
C 358 1280 262 1190 262 1011 
C 262 454 704 -128 1382 -128 
C 2042 -128 2669 440 2669 1264 
C 2669 2030 2170 2624 1549 2624 
C 1222 2624 947 2503 730 2274 
L 730 3692 
z
" transform="scale(0.015625)"/>
       </defs>
       <use xlink:href="#CMR17-35" transform="scale(0.996264)"/>
       <use xlink:href="#CMR17-30" transform="translate(45.690477 0) scale(0.996264)"/>
       <use xlink:href="#CMR17-30" transform="translate(91.380954 0) scale(0.996264)"/>
      </g>
     </g>
    </g>
    <g id="xtick_3">
     <g id="line2d_3">
      <g>
       <use xlink:href="#m10ba4e57dd" x="390.940976" y="678.237256" style="fill: #262626; stroke: #262626; stroke-width: 0.8"/>
      </g>
     </g>
     <g id="text_3">
      <!-- $\mathdefault{1000}$ -->
      <g style="fill: #262626" transform="translate(358.043832 710.143856) scale(0.36 -0.36)">
       <defs>
        <path id="CMR17-31" d="M 1702 4058 
C 1702 4192 1696 4192 1606 4192 
C 1357 3916 979 3827 621 3827 
C 602 3827 570 3827 563 3808 
C 557 3795 557 3782 557 3648 
C 755 3648 1088 3686 1344 3839 
L 1344 461 
C 1344 236 1331 160 781 160 
L 589 160 
L 589 0 
C 896 0 1216 0 1523 0 
C 1830 0 2150 0 2458 0 
L 2458 160 
L 2266 160 
C 1715 160 1702 230 1702 458 
L 1702 4058 
z
" transform="scale(0.015625)"/>
       </defs>
       <use xlink:href="#CMR17-31" transform="scale(0.996264)"/>
       <use xlink:href="#CMR17-30" transform="translate(45.690477 0) scale(0.996264)"/>
       <use xlink:href="#CMR17-30" transform="translate(91.380954 0) scale(0.996264)"/>
       <use xlink:href="#CMR17-30" transform="translate(137.071431 0) scale(0.996264)"/>
      </g>
     </g>
    </g>
    <g id="xtick_4">
     <g id="line2d_4">
      <g>
       <use xlink:href="#m10ba4e57dd" x="542.1454" y="678.237256" style="fill: #262626; stroke: #262626; stroke-width: 0.8"/>
      </g>
     </g>
     <g id="text_4">
      <!-- $\mathdefault{1500}$ -->
      <g style="fill: #262626" transform="translate(509.248256 710.143856) scale(0.36 -0.36)">
       <use xlink:href="#CMR17-31" transform="scale(0.996264)"/>
       <use xlink:href="#CMR17-35" transform="translate(45.690477 0) scale(0.996264)"/>
       <use xlink:href="#CMR17-30" transform="translate(91.380954 0) scale(0.996264)"/>
       <use xlink:href="#CMR17-30" transform="translate(137.071431 0) scale(0.996264)"/>
      </g>
     </g>
    </g>
    <g id="xtick_5">
     <g id="line2d_5">
      <g>
       <use xlink:href="#m10ba4e57dd" x="693.349824" y="678.237256" style="fill: #262626; stroke: #262626; stroke-width: 0.8"/>
      </g>
     </g>
     <g id="text_5">
      <!-- $\mathdefault{2000}$ -->
      <g style="fill: #262626" transform="translate(660.452681 710.143856) scale(0.36 -0.36)">
       <defs>
        <path id="CMR17-32" d="M 2669 989 
L 2554 989 
C 2490 536 2438 459 2413 420 
C 2381 369 1920 369 1830 369 
L 602 369 
C 832 619 1280 1072 1824 1597 
C 2214 1967 2669 2402 2669 3035 
C 2669 3790 2067 4224 1395 4224 
C 691 4224 262 3604 262 3030 
C 262 2780 448 2748 525 2748 
C 589 2748 781 2787 781 3010 
C 781 3207 614 3264 525 3264 
C 486 3264 448 3258 422 3245 
C 544 3790 915 4058 1306 4058 
C 1862 4058 2227 3617 2227 3035 
C 2227 2479 1901 2000 1536 1584 
L 262 146 
L 262 0 
L 2515 0 
L 2669 989 
z
" transform="scale(0.015625)"/>
       </defs>
       <use xlink:href="#CMR17-32" transform="scale(0.996264)"/>
       <use xlink:href="#CMR17-30" transform="translate(45.690477 0) scale(0.996264)"/>
       <use xlink:href="#CMR17-30" transform="translate(91.380954 0) scale(0.996264)"/>
       <use xlink:href="#CMR17-30" transform="translate(137.071431 0) scale(0.996264)"/>
      </g>
     </g>
    </g>
    <g id="xtick_6">
     <g id="line2d_6">
      <g>
       <use xlink:href="#m10ba4e57dd" x="844.554248" y="678.237256" style="fill: #262626; stroke: #262626; stroke-width: 0.8"/>
      </g>
     </g>
     <g id="text_6">
      <!-- $\mathdefault{2500}$ -->
      <g style="fill: #262626" transform="translate(811.657105 710.143856) scale(0.36 -0.36)">
       <use xlink:href="#CMR17-32" transform="scale(0.996264)"/>
       <use xlink:href="#CMR17-35" transform="translate(45.690477 0) scale(0.996264)"/>
       <use xlink:href="#CMR17-30" transform="translate(91.380954 0) scale(0.996264)"/>
       <use xlink:href="#CMR17-30" transform="translate(137.071431 0) scale(0.996264)"/>
      </g>
     </g>
    </g>
    <g id="xtick_7">
     <g id="line2d_7">
      <g>
       <use xlink:href="#m10ba4e57dd" x="995.758673" y="678.237256" style="fill: #262626; stroke: #262626; stroke-width: 0.8"/>
      </g>
     </g>
     <g id="text_7">
      <!-- $\mathdefault{3000}$ -->
      <g style="fill: #262626" transform="translate(962.861529 710.143856) scale(0.36 -0.36)">
       <defs>
        <path id="CMR17-33" d="M 1414 2157 
C 1984 2157 2234 1662 2234 1090 
C 2234 320 1824 25 1453 25 
C 1114 25 563 194 390 693 
C 422 680 454 680 486 680 
C 640 680 755 782 755 948 
C 755 1133 614 1216 486 1216 
C 378 1216 211 1165 211 926 
C 211 335 787 -128 1466 -128 
C 2176 -128 2720 430 2720 1085 
C 2720 1707 2208 2157 1600 2227 
C 2086 2328 2554 2756 2554 3329 
C 2554 3820 2048 4179 1472 4179 
C 890 4179 378 3829 378 3329 
C 378 3110 544 3072 627 3072 
C 762 3072 877 3155 877 3321 
C 877 3486 762 3569 627 3569 
C 602 3569 570 3569 544 3557 
C 730 3959 1235 4032 1459 4032 
C 1683 4032 2106 3925 2106 3320 
C 2106 3143 2080 2828 1862 2550 
C 1670 2304 1453 2304 1242 2284 
C 1210 2284 1062 2269 1037 2269 
C 992 2263 966 2257 966 2208 
C 966 2163 973 2157 1101 2157 
L 1414 2157 
z
" transform="scale(0.015625)"/>
       </defs>
       <use xlink:href="#CMR17-33" transform="scale(0.996264)"/>
       <use xlink:href="#CMR17-30" transform="translate(45.690477 0) scale(0.996264)"/>
       <use xlink:href="#CMR17-30" transform="translate(91.380954 0) scale(0.996264)"/>
       <use xlink:href="#CMR17-30" transform="translate(137.071431 0) scale(0.996264)"/>
      </g>
     </g>
    </g>
   </g>
   <g id="matplotlib.axis_2">
    <g id="ytick_1">
     <g id="line2d_8">
      <defs>
       <path id="m6c47f5a2a8" d="M 0 0 
L -3.5 0 
" style="stroke: #262626; stroke-width: 0.8"/>
      </defs>
      <g>
       <use xlink:href="#m6c47f5a2a8" x="88.532127" y="649.73388" style="fill: #262626; stroke: #262626; stroke-width: 0.8"/>
      </g>
     </g>
     <g id="text_8">
      <!-- $\mathdefault{0.0}$ -->
      <g style="fill: #262626" transform="translate(38.88 662.18718) scale(0.36 -0.36)">
       <defs>
        <path id="CMMI12-3a" d="M 1178 307 
C 1178 492 1024 619 870 619 
C 685 619 557 466 557 313 
C 557 128 710 0 864 0 
C 1050 0 1178 153 1178 307 
z
" transform="scale(0.015625)"/>
       </defs>
       <use xlink:href="#CMR17-30" transform="scale(0.996264)"/>
       <use xlink:href="#CMMI12-3a" transform="translate(45.690477 0) scale(0.996264)"/>
       <use xlink:href="#CMR17-30" transform="translate(72.787654 0) scale(0.996264)"/>
      </g>
     </g>
    </g>
    <g id="ytick_2">
     <g id="line2d_9">
      <g>
       <use xlink:href="#m6c47f5a2a8" x="88.532127" y="504.285833" style="fill: #262626; stroke: #262626; stroke-width: 0.8"/>
      </g>
     </g>
     <g id="text_9">
      <!-- $\mathdefault{0.2}$ -->
      <g style="fill: #262626" transform="translate(38.88 516.739134) scale(0.36 -0.36)">
       <use xlink:href="#CMR17-30" transform="scale(0.996264)"/>
       <use xlink:href="#CMMI12-3a" transform="translate(45.690477 0) scale(0.996264)"/>
       <use xlink:href="#CMR17-32" transform="translate(72.787654 0) scale(0.996264)"/>
      </g>
     </g>
    </g>
    <g id="ytick_3">
     <g id="line2d_10">
      <g>
       <use xlink:href="#m6c47f5a2a8" x="88.532127" y="358.837787" style="fill: #262626; stroke: #262626; stroke-width: 0.8"/>
      </g>
     </g>
     <g id="text_10">
      <!-- $\mathdefault{0.4}$ -->
      <g style="fill: #262626" transform="translate(38.88 371.291087) scale(0.36 -0.36)">
       <defs>
        <path id="CMR17-34" d="M 2150 4122 
C 2150 4256 2144 4256 2029 4256 
L 128 1254 
L 128 1088 
L 1779 1088 
L 1779 457 
C 1779 224 1766 160 1318 160 
L 1197 160 
L 1197 0 
C 1402 0 1747 0 1965 0 
C 2182 0 2528 0 2733 0 
L 2733 160 
L 2611 160 
C 2163 160 2150 224 2150 457 
L 2150 1088 
L 2803 1088 
L 2803 1254 
L 2150 1254 
L 2150 4122 
z
M 1798 3703 
L 1798 1254 
L 256 1254 
L 1798 3703 
z
" transform="scale(0.015625)"/>
       </defs>
       <use xlink:href="#CMR17-30" transform="scale(0.996264)"/>
       <use xlink:href="#CMMI12-3a" transform="translate(45.690477 0) scale(0.996264)"/>
       <use xlink:href="#CMR17-34" transform="translate(72.787654 0) scale(0.996264)"/>
      </g>
     </g>
    </g>
    <g id="ytick_4">
     <g id="line2d_11">
      <g>
       <use xlink:href="#m6c47f5a2a8" x="88.532127" y="213.38974" style="fill: #262626; stroke: #262626; stroke-width: 0.8"/>
      </g>
     </g>
     <g id="text_11">
      <!-- $\mathdefault{0.6}$ -->
      <g style="fill: #262626" transform="translate(38.88 225.84304) scale(0.36 -0.36)">
       <defs>
        <path id="CMR17-36" d="M 678 2176 
C 678 3690 1395 4032 1811 4032 
C 1946 4032 2272 4009 2400 3776 
C 2298 3776 2106 3776 2106 3553 
C 2106 3381 2246 3323 2336 3323 
C 2394 3323 2566 3348 2566 3560 
C 2566 3954 2246 4179 1805 4179 
C 1043 4179 243 3390 243 1984 
C 243 253 966 -128 1478 -128 
C 2099 -128 2688 427 2688 1283 
C 2688 2081 2170 2662 1517 2662 
C 1126 2662 838 2407 678 1960 
L 678 2176 
z
M 1478 25 
C 691 25 691 1200 691 1436 
C 691 1896 909 2560 1504 2560 
C 1613 2560 1926 2560 2138 2120 
C 2253 1870 2253 1609 2253 1289 
C 2253 944 2253 690 2118 434 
C 1978 171 1773 25 1478 25 
z
" transform="scale(0.015625)"/>
       </defs>
       <use xlink:href="#CMR17-30" transform="scale(0.996264)"/>
       <use xlink:href="#CMMI12-3a" transform="translate(45.690477 0) scale(0.996264)"/>
       <use xlink:href="#CMR17-36" transform="translate(72.787654 0) scale(0.996264)"/>
      </g>
     </g>
    </g>
    <g id="ytick_5">
     <g id="line2d_12">
      <g>
       <use xlink:href="#m6c47f5a2a8" x="88.532127" y="67.941693" style="fill: #262626; stroke: #262626; stroke-width: 0.8"/>
      </g>
     </g>
     <g id="text_12">
      <!-- $\mathdefault{0.8}$ -->
      <g style="fill: #262626" transform="translate(38.88 80.394994) scale(0.36 -0.36)">
       <defs>
        <path id="CMR17-38" d="M 1741 2264 
C 2144 2467 2554 2773 2554 3263 
C 2554 3841 1990 4179 1472 4179 
C 890 4179 378 3759 378 3180 
C 378 3021 416 2747 666 2505 
C 730 2442 998 2251 1171 2130 
C 883 1983 211 1634 211 934 
C 211 279 838 -128 1459 -128 
C 2144 -128 2720 362 2720 1010 
C 2720 1590 2330 1857 2074 2029 
L 1741 2264 
z
M 902 2822 
C 851 2854 595 3051 595 3351 
C 595 3739 998 4032 1459 4032 
C 1965 4032 2336 3676 2336 3262 
C 2336 2669 1670 2331 1638 2331 
C 1632 2331 1626 2331 1574 2370 
L 902 2822 
z
M 2080 1519 
C 2176 1449 2483 1240 2483 851 
C 2483 381 2010 25 1472 25 
C 890 25 448 438 448 940 
C 448 1443 838 1862 1280 2060 
L 2080 1519 
z
" transform="scale(0.015625)"/>
       </defs>
       <use xlink:href="#CMR17-30" transform="scale(0.996264)"/>
       <use xlink:href="#CMMI12-3a" transform="translate(45.690477 0) scale(0.996264)"/>
       <use xlink:href="#CMR17-38" transform="translate(72.787654 0) scale(0.996264)"/>
      </g>
     </g>
    </g>
   </g>
   <g id="line2d_13">
    <path d="M 88.532127 67.941694 
L 103.65257 105.863147 
L 109.700747 120.176465 
L 115.748924 133.965918 
L 121.797101 147.248983 
L 127.845278 160.056628 
L 133.893455 172.409081 
L 139.941632 184.324379 
L 145.989808 195.834109 
L 152.037985 206.938635 
L 158.086162 217.672307 
L 164.134339 228.04667 
L 170.182516 238.079708 
L 176.230693 247.782714 
L 182.27887 257.162702 
L 188.327047 266.238907 
L 194.375224 275.025632 
L 200.423401 283.541711 
L 209.495667 295.83955 
L 218.567932 307.602465 
L 227.640198 318.815086 
L 236.712463 329.525635 
L 245.784728 339.761198 
L 254.856994 349.549936 
L 263.929259 358.919727 
L 273.001525 367.89616 
L 282.07379 376.507435 
L 291.146056 384.780919 
L 300.218321 392.743979 
L 309.290587 400.389298 
L 318.362852 407.721087 
L 327.435118 414.776245 
L 336.507383 421.562818 
L 345.579648 428.088876 
L 354.651914 434.374639 
L 363.724179 440.42797 
L 372.796445 446.255343 
L 381.86871 451.871929 
L 390.940976 457.287316 
L 403.03733 464.210958 
L 415.133684 470.819453 
L 427.230038 477.131756 
L 439.326392 483.172414 
L 451.422745 488.949967 
L 463.519099 494.475841 
L 475.615453 499.759394 
L 487.711807 504.813732 
L 499.808161 509.649287 
L 511.904515 514.270466 
L 524.000869 518.683439 
L 536.097223 522.89401 
L 548.193577 526.904423 
L 563.314019 531.648848 
L 578.434462 536.123218 
L 593.554904 540.338364 
L 608.675347 544.311795 
L 623.795789 548.062198 
L 638.916232 551.6032 
L 654.036674 554.930312 
L 669.157116 558.05429 
L 687.301647 561.569398 
L 705.446178 564.85367 
L 726.614798 568.431591 
L 747.783417 571.782534 
L 765.927948 574.454716 
L 787.096567 577.348306 
L 811.289275 580.424872 
L 835.481983 583.283891 
L 859.674691 585.928508 
L 886.891487 588.680438 
L 914.108284 591.222412 
L 944.349168 593.823431 
L 977.614142 596.446318 
L 995.758673 597.781974 
L 995.758673 597.781974 
" clip-path="url(#pc005625b3b)" style="fill: none; stroke: #1f77b4; stroke-width: 5; stroke-linecap: round"/>
   </g>
   <g id="line2d_14">
    <path d="M 88.532127 67.941694 
L 97.604393 112.815282 
L 103.65257 140.434505 
L 109.700747 166.090805 
L 115.748924 189.968093 
L 121.797101 212.219991 
L 127.845278 232.998162 
L 133.893455 252.427342 
L 139.941632 270.602815 
L 145.989808 287.654612 
L 152.037985 303.708429 
L 158.086162 318.79559 
L 164.134339 332.981677 
L 170.182516 346.33805 
L 176.230693 358.932213 
L 182.27887 370.826345 
L 188.327047 382.086349 
L 194.375224 392.777174 
L 200.423401 402.904755 
L 206.471578 412.498635 
L 212.519755 421.611952 
L 218.567932 430.263122 
L 224.616109 438.493227 
L 230.664286 446.31496 
L 236.712463 453.761519 
L 242.76064 460.854612 
L 248.808817 467.619761 
L 254.856994 474.079246 
L 260.905171 480.254281 
L 266.953348 486.164677 
L 273.001525 491.815809 
L 279.049702 497.220737 
L 285.097879 502.388408 
L 291.146056 507.343346 
L 297.194233 512.090851 
L 303.24241 516.64115 
L 312.314675 523.12882 
L 321.386941 529.241143 
L 330.459206 535.014683 
L 339.531472 540.484381 
L 348.603737 545.652349 
L 357.676002 550.503397 
L 366.748268 555.058733 
L 375.820533 559.36161 
L 384.892799 563.436777 
L 396.989153 568.606524 
L 406.061418 572.259629 
L 415.133684 575.668846 
L 424.205949 578.8632 
L 433.278215 581.872794 
L 442.35048 584.698415 
L 454.446834 588.199373 
L 466.543188 591.419161 
L 478.639542 594.381161 
L 490.735896 597.106749 
L 502.83225 599.618348 
L 514.928604 601.935222 
L 530.049046 604.586175 
L 545.169488 606.99608 
L 560.289931 609.188414 
L 578.434462 611.574963 
L 596.578993 613.718953 
L 614.723524 615.660102 
L 635.892143 617.694796 
L 657.060762 619.519068 
L 681.25347 621.383715 
L 708.470267 623.239059 
L 738.711152 625.051313 
L 771.976125 626.796571 
L 805.241098 628.326375 
L 844.554248 629.900378 
L 886.891487 631.356005 
L 935.276903 632.799142 
L 989.710496 634.1873 
L 995.758673 634.320938 
L 995.758673 634.320938 
" clip-path="url(#pc005625b3b)" style="fill: none; stroke: #ff7f0e; stroke-width: 5; stroke-linecap: round"/>
   </g>
   <g id="line2d_15">
    <path d="M 88.532127 67.941694 
L 94.580304 112.544596 
L 97.604393 133.482918 
L 100.628481 153.28529 
L 103.65257 172.034353 
L 106.676658 189.803652 
L 109.700747 206.661476 
L 112.724835 222.659689 
L 115.748924 237.863261 
L 118.773012 252.336734 
L 121.797101 266.119748 
L 124.821189 279.242144 
L 127.845278 291.750507 
L 130.869366 303.68209 
L 133.893455 315.077851 
L 136.917543 325.964706 
L 139.941632 336.381836 
L 142.96572 346.34768 
L 145.989808 355.888141 
L 149.013897 365.026984 
L 152.037985 373.77984 
L 155.062074 382.171884 
L 158.086162 390.222437 
L 164.134339 405.381442 
L 170.182516 419.405336 
L 176.230693 432.384474 
L 182.27887 444.421137 
L 188.327047 455.608129 
L 194.375224 466.019049 
L 200.423401 475.725399 
L 206.471578 484.787317 
L 212.519755 493.257303 
L 218.567932 501.189164 
L 224.616109 508.623721 
L 230.664286 515.604367 
L 236.712463 522.167818 
L 242.76064 528.346925 
L 248.808817 534.16976 
L 254.856994 539.660651 
L 260.905171 544.839529 
L 266.953348 549.733842 
L 273.001525 554.35848 
L 279.049702 558.727135 
L 285.097879 562.871988 
L 291.146056 566.809937 
L 297.194233 570.556711 
L 303.24241 574.112793 
L 309.290587 577.483911 
L 315.338764 580.676685 
L 324.411029 585.175475 
L 333.483295 589.359542 
L 342.55556 593.237012 
L 351.627825 596.82516 
L 360.700091 600.124519 
L 369.772356 603.131064 
L 378.844622 605.880847 
L 387.916887 608.410282 
L 396.989153 610.719857 
L 406.061418 612.820556 
L 418.157772 615.362056 
L 430.254126 617.630688 
L 442.35048 619.629644 
L 457.470922 621.916096 
L 469.567276 623.491075 
L 493.759984 626.226921 
L 508.880427 627.688017 
L 527.024958 629.233802 
L 548.193577 630.808336 
L 569.362196 632.181202 
L 593.554904 633.530499 
L 620.771701 634.83559 
L 651.012585 636.072185 
L 687.301647 637.319243 
L 726.614798 638.446041 
L 771.976125 639.524478 
L 826.409718 640.581336 
L 889.915576 641.577596 
L 959.469611 642.446113 
L 995.758673 642.834577 
L 995.758673 642.834577 
" clip-path="url(#pc005625b3b)" style="fill: none; stroke: #2ca02c; stroke-width: 5; stroke-linecap: round"/>
   </g>
   <g id="line2d_16">
    <path d="M 88.532127 67.941695 
L 94.580304 126.382502 
L 97.604393 153.07909 
L 100.628481 177.894008 
L 103.65257 201.001715 
L 106.676658 222.547755 
L 109.700747 242.685997 
L 112.724835 261.519255 
L 115.748924 279.151851 
L 118.773012 295.714995 
L 121.797101 311.316994 
L 124.821189 325.969002 
L 127.845278 339.757545 
L 130.869366 352.746602 
L 133.893455 365.001275 
L 136.917543 376.583638 
L 139.941632 387.558466 
L 142.96572 397.98974 
L 145.989808 407.84731 
L 149.013897 417.206543 
L 152.037985 426.09372 
L 155.062074 434.537204 
L 158.086162 442.569493 
L 161.110251 450.206784 
L 164.134339 457.480461 
L 167.158428 464.410891 
L 170.182516 471.024521 
L 173.206605 477.340723 
L 176.230693 483.382483 
L 179.254782 489.164361 
L 182.27887 494.693849 
L 185.302959 499.982473 
L 191.351136 509.894148 
L 197.399313 519.002474 
L 203.44749 527.397555 
L 209.495667 535.163104 
L 215.543844 542.384005 
L 221.592021 549.072449 
L 227.640198 555.219924 
L 233.688375 560.938682 
L 239.736552 566.270325 
L 245.784728 571.252339 
L 251.832905 575.889178 
L 257.881082 580.214 
L 263.929259 584.269875 
L 269.977436 588.074373 
L 276.025613 591.644654 
L 282.07379 594.980206 
L 288.121967 598.102048 
L 294.170144 601.047332 
L 300.218321 603.817355 
L 306.266498 606.413938 
L 312.314675 608.829333 
L 321.386941 612.12624 
L 330.459206 615.07772 
L 339.531472 617.709358 
L 348.603737 620.040826 
L 357.676002 622.118551 
L 366.748268 623.96128 
L 375.820533 625.629473 
L 387.916887 627.548551 
L 400.013241 629.248518 
L 412.109595 630.720322 
L 427.230038 632.323037 
L 439.326392 633.43939 
L 460.495011 635.114917 
L 481.66363 636.479493 
L 502.83225 637.649186 
L 530.049046 638.875102 
L 557.265842 639.892773 
L 590.530816 640.912937 
L 629.843966 641.882898 
L 681.25347 642.886741 
L 720.566621 643.494689 
L 808.265187 644.533256 
L 892.939664 645.266934 
L 995.758673 645.920519 
L 995.758673 645.920519 
" clip-path="url(#pc005625b3b)" style="fill: none; stroke: #d62728; stroke-width: 5; stroke-linecap: round"/>
   </g>
   <g id="line2d_17">
    <path d="M 88.532127 67.941696 
L 91.556216 104.726693 
L 94.580304 139.744103 
L 97.604393 171.664301 
L 100.628481 200.845193 
L 103.65257 227.590745 
L 106.676658 252.17579 
L 109.700747 274.808577 
L 112.724835 295.695015 
L 115.748924 315.026041 
L 118.773012 332.94607 
L 121.797101 349.577323 
L 124.821189 365.042529 
L 127.845278 379.449403 
L 130.869366 392.89459 
L 133.893455 405.470082 
L 136.917543 417.23631 
L 139.941632 428.264514 
L 142.96572 438.615354 
L 145.989808 448.351189 
L 149.013897 457.516996 
L 152.037985 466.152583 
L 155.062074 474.289116 
L 158.086162 481.964755 
L 161.110251 489.214447 
L 164.134339 496.077502 
L 167.158428 502.59045 
L 170.182516 508.770291 
L 173.206605 514.621885 
L 176.230693 520.179944 
L 179.254782 525.461112 
L 182.27887 530.479826 
L 185.302959 535.259843 
L 188.327047 539.809156 
L 191.351136 544.145846 
L 194.375224 548.284839 
L 200.423401 555.997586 
L 206.471578 563.035916 
L 212.519755 569.47428 
L 218.567932 575.376596 
L 224.616109 580.796909 
L 230.664286 585.78204 
L 236.712463 590.374631 
L 242.76064 594.617001 
L 248.808817 598.538139 
L 254.856994 602.165231 
L 260.905171 605.518814 
L 266.953348 608.61754 
L 273.001525 611.49371 
L 279.049702 614.158914 
L 285.097879 616.615069 
L 291.146056 618.854694 
L 297.194233 620.875268 
L 303.24241 622.722995 
L 309.290587 624.400457 
L 318.362852 626.631124 
L 327.435118 628.572261 
L 336.507383 630.258202 
L 345.579648 631.732196 
L 357.676002 633.42413 
L 366.748268 634.491754 
L 384.892799 636.324305 
L 400.013241 637.570552 
L 418.157772 638.814243 
L 439.326392 639.992147 
L 460.495011 640.948938 
L 484.687719 641.856612 
L 514.928604 642.757944 
L 548.193577 643.549177 
L 572.386285 644.002238 
L 617.747612 644.750681 
L 687.301647 645.566654 
L 762.903859 646.202583 
L 859.674691 646.782471 
L 989.710496 647.320564 
L 995.758673 647.340085 
L 995.758673 647.340085 
" clip-path="url(#pc005625b3b)" style="fill: none; stroke: #9467bd; stroke-width: 5; stroke-linecap: round"/>
   </g>
   <g id="line2d_18">
    <path d="M 88.532127 67.941697 
L 91.556216 111.72346 
L 94.580304 152.653106 
L 97.604393 189.321534 
L 100.628481 222.304771 
L 103.65257 252.079588 
L 106.676658 279.073056 
L 109.700747 303.584754 
L 112.724835 325.925402 
L 115.748924 346.356467 
L 118.773012 365.077187 
L 121.797101 382.257553 
L 124.821189 398.066459 
L 127.845278 412.663449 
L 130.869366 426.172782 
L 133.893455 438.685992 
L 136.917543 450.299089 
L 139.941632 461.099638 
L 142.96572 471.161447 
L 145.989808 480.543115 
L 149.013897 489.308812 
L 152.037985 497.508906 
L 155.062074 505.190072 
L 158.086162 512.394793 
L 161.110251 519.163619 
L 164.134339 525.531246 
L 167.158428 531.528615 
L 170.182516 537.182514 
L 173.206605 542.515653 
L 176.230693 547.54829 
L 179.254782 552.305897 
L 182.27887 556.80118 
L 185.302959 561.049064 
L 188.327047 565.085537 
L 191.351136 568.920973 
L 194.375224 572.572355 
L 197.399313 576.032488 
L 200.423401 579.314313 
L 206.471578 585.381717 
L 212.519755 590.888412 
L 218.567932 595.888571 
L 224.616109 600.443689 
L 230.664286 604.584979 
L 236.712463 608.366431 
L 242.76064 611.829903 
L 248.808817 614.982494 
L 254.856994 617.868824 
L 260.905171 620.521498 
L 266.953348 622.864269 
L 276.025613 625.972006 
L 282.07379 627.772433 
L 291.146056 630.076577 
L 300.218321 632.033645 
L 309.290587 633.695174 
L 318.362852 635.113928 
L 327.435118 636.324271 
L 336.507383 637.366796 
L 351.627825 638.812435 
L 366.748268 639.982067 
L 381.86871 640.941087 
L 403.03733 642.020165 
L 427.230038 642.982426 
L 454.446834 643.825681 
L 487.711807 644.613427 
L 530.049046 645.366366 
L 590.530816 646.151351 
L 681.25347 646.892061 
L 778.024302 647.416666 
L 908.060107 647.880169 
L 995.758673 648.101474 
L 995.758673 648.101474 
" clip-path="url(#pc005625b3b)" style="fill: none; stroke: #8c564b; stroke-width: 5; stroke-linecap: round"/>
   </g>
   <g id="line2d_19">
    <path d="M 88.532127 67.941699 
L 91.556216 118.606115 
L 94.580304 165.12784 
L 97.604393 206.104963 
L 100.628481 242.390396 
L 103.65257 274.67298 
L 106.676658 303.560284 
L 109.700747 329.440126 
L 112.724835 352.73667 
L 115.748924 373.848718 
L 118.773012 392.97534 
L 121.797101 410.376106 
L 124.821189 426.248912 
L 127.845278 440.755977 
L 130.869366 454.052886 
L 133.893455 466.281743 
L 136.917543 477.551868 
L 139.941632 487.949734 
L 142.96572 497.562359 
L 145.989808 506.483529 
L 149.013897 514.781676 
L 152.037985 522.50003 
L 155.062074 529.664088 
L 158.086162 536.312085 
L 161.110251 542.554323 
L 164.134339 548.434402 
L 167.158428 553.929748 
L 170.182516 559.058062 
L 173.206605 563.85288 
L 176.230693 568.364403 
L 179.254782 572.633144 
L 182.27887 576.653509 
L 185.302959 580.436324 
L 188.327047 583.991857 
L 191.351136 587.343736 
L 194.375224 590.516873 
L 197.399313 593.522885 
L 200.423401 596.358749 
L 206.471578 601.582296 
L 212.519755 606.273613 
L 218.567932 610.481869 
L 224.616109 614.282913 
L 230.664286 617.702047 
L 236.712463 620.790768 
L 242.76064 623.587158 
L 248.808817 626.000759 
L 254.856994 628.231418 
L 260.905171 630.136223 
L 266.953348 631.799141 
L 273.001525 633.258388 
L 279.049702 634.535303 
L 288.121967 636.172225 
L 297.194233 637.526885 
L 306.266498 638.660613 
L 318.362852 639.909716 
L 333.483295 641.167315 
L 342.55556 641.804395 
L 363.724179 642.935105 
L 384.892799 643.815915 
L 409.085507 644.588519 
L 439.326392 645.316981 
L 478.639542 646.014419 
L 527.024958 646.623587 
L 590.530816 647.179092 
L 675.205293 647.674163 
L 784.072479 648.086945 
L 920.156461 648.420104 
L 995.758673 648.5532 
L 995.758673 648.5532 
" clip-path="url(#pc005625b3b)" style="fill: none; stroke: #e377c2; stroke-width: 5; stroke-linecap: round"/>
   </g>
   <g id="line2d_20">
    <path d="M 88.532127 67.9417 
L 91.556216 125.377757 
L 94.580304 177.185809 
L 97.604393 222.070526 
L 100.628481 261.213048 
L 103.65257 295.563372 
L 106.676658 325.91984 
L 109.700747 352.771992 
L 112.724835 376.67586 
L 115.748924 398.142538 
L 118.773012 417.405606 
L 121.797101 434.765501 
L 124.821189 450.451613 
L 127.845278 464.670096 
L 130.869366 477.616973 
L 133.893455 489.455868 
L 136.917543 500.273215 
L 139.941632 510.189705 
L 142.96572 519.295958 
L 145.989808 527.697014 
L 149.013897 535.47996 
L 152.037985 542.713462 
L 155.062074 549.366902 
L 158.086162 555.487942 
L 161.110251 561.163378 
L 164.134339 566.511237 
L 167.158428 571.531842 
L 170.182516 576.16215 
L 173.206605 580.493352 
L 176.230693 584.545348 
L 179.254782 588.339967 
L 182.27887 591.89333 
L 185.302959 595.224923 
L 188.327047 598.351703 
L 191.351136 601.287796 
L 194.375224 604.0493 
L 197.399313 606.646436 
L 203.44749 611.390135 
L 209.495667 615.597521 
L 215.543844 619.338723 
L 221.592021 622.667714 
L 227.640198 625.627628 
L 233.688375 628.246783 
L 239.736552 630.516804 
L 245.784728 632.45209 
L 251.832905 634.109544 
L 257.881082 635.560077 
L 263.929259 636.783609 
L 273.001525 638.328613 
L 282.07379 639.563333 
L 291.146056 640.600598 
L 303.24241 641.711093 
L 312.314675 642.405762 
L 333.483295 643.640043 
L 351.627825 644.42309 
L 372.796445 645.129249 
L 396.989153 645.737768 
L 430.254126 646.367073 
L 475.615453 646.964936 
L 533.073135 647.475224 
L 614.723524 647.943239 
L 720.566621 648.33659 
L 880.84331 648.682669 
L 995.758673 648.841826 
L 995.758673 648.841826 
" clip-path="url(#pc005625b3b)" style="fill: none; stroke: #7f7f7f; stroke-width: 5; stroke-linecap: round"/>
   </g>
   <g id="line2d_21">
    <path d="M 88.532127 67.941702 
L 91.556216 132.031224 
L 94.580304 188.845731 
L 97.604393 237.271021 
L 100.628481 278.903464 
L 103.65257 314.948624 
L 106.676658 346.361558 
L 109.700747 373.905975 
L 112.724835 398.18712 
L 115.748924 419.715209 
L 118.773012 438.874651 
L 121.797101 455.975251 
L 124.821189 471.386133 
L 127.845278 485.202681 
L 130.869366 497.741863 
L 133.893455 509.072692 
L 136.917543 519.42367 
L 139.941632 528.824192 
L 142.96572 537.432063 
L 145.989808 545.311301 
L 149.013897 552.53744 
L 152.037985 559.191889 
L 155.062074 565.324606 
L 158.086162 570.993573 
L 161.110251 576.226963 
L 164.134339 581.075463 
L 167.158428 585.581888 
L 170.182516 589.761094 
L 173.206605 593.636114 
L 176.230693 597.254369 
L 179.254782 600.638756 
L 182.27887 603.765206 
L 188.327047 609.451464 
L 191.351136 612.051789 
L 197.399313 616.642777 
L 200.423401 618.740528 
L 206.471578 622.537215 
L 209.495667 624.263625 
L 215.543844 627.389354 
L 218.567932 628.840619 
L 224.616109 631.324222 
L 230.664286 633.462582 
L 236.712463 635.258924 
L 242.76064 636.769026 
L 248.808817 638.042351 
L 254.856994 639.119368 
L 263.929259 640.44663 
L 273.001525 641.509806 
L 282.07379 642.373957 
L 297.194233 643.494259 
L 312.314675 644.339553 
L 330.459206 645.105485 
L 351.627825 645.774645 
L 381.86871 646.459744 
L 418.157772 647.029792 
L 466.543188 647.545253 
L 530.049046 647.983911 
L 617.747612 648.370835 
L 768.952036 648.746034 
L 986.686407 649.029074 
L 995.758673 649.037002 
L 995.758673 649.037002 
" clip-path="url(#pc005625b3b)" style="fill: none; stroke: #bcbd22; stroke-width: 5; stroke-linecap: round"/>
   </g>
   <g id="line2d_22">
    <path d="M 88.532127 67.941693 
L 91.556216 138.582353 
L 94.580304 200.115144 
L 97.604393 251.752637 
L 100.628481 295.496936 
L 103.65257 332.905807 
L 106.676658 365.130416 
L 109.700747 393.070126 
L 112.724835 417.477602 
L 115.748924 438.903417 
L 118.773012 457.836315 
L 121.797101 474.636473 
L 124.821189 489.580531 
L 127.845278 502.960243 
L 130.869366 515.001378 
L 133.893455 525.843804 
L 136.917543 535.6405 
L 139.941632 544.525499 
L 142.96572 552.606774 
L 145.989808 559.969232 
L 149.013897 566.692496 
L 152.037985 572.847778 
L 155.062074 578.496054 
L 158.086162 583.685967 
L 161.110251 588.460798 
L 164.134339 592.864912 
L 167.158428 596.934448 
L 170.182516 600.697397 
L 173.206605 604.177473 
L 176.230693 607.392595 
L 179.254782 610.366714 
L 182.27887 613.13306 
L 185.302959 615.704954 
L 188.327047 618.094355 
L 191.351136 620.313059 
L 194.375224 622.372214 
L 197.399313 624.291803 
L 203.44749 627.742998 
L 209.495667 630.712359 
L 215.543844 633.249139 
L 221.592021 635.377709 
L 227.640198 637.092669 
L 233.688375 638.517817 
L 239.736552 639.702058 
L 245.784728 640.693028 
L 254.856994 641.887526 
L 263.929259 642.832963 
L 279.049702 644.018886 
L 294.170144 644.87444 
L 312.314675 645.627617 
L 336.507383 646.345266 
L 369.772356 647.009142 
L 409.085507 647.528412 
L 463.519099 647.992203 
L 542.1454 648.40083 
L 626.819878 648.674326 
L 787.096567 648.970828 
L 995.758673 649.175563 
L 995.758673 649.175563 
" clip-path="url(#pc005625b3b)" style="fill: none; stroke: #17becf; stroke-width: 5; stroke-linecap: round"/>
   </g>
   <g id="patch_3">
    <path d="M 88.532127 678.237256 
L 88.532127 38.88 
" style="fill: none; stroke: #262626; stroke-width: 0.8; stroke-linejoin: miter; stroke-linecap: square"/>
   </g>
   <g id="patch_4">
    <path d="M 88.532127 678.237256 
L 1041.12 678.237256 
" style="fill: none; stroke: #262626; stroke-width: 0.8; stroke-linejoin: miter; stroke-linecap: square"/>
   </g>
  </g>
 </g>
 <defs>
  <clipPath id="pc005625b3b">
   <rect x="88.532127" y="38.88" width="952.587873" height="639.357256"/>
  </clipPath>
 </defs>
</svg>
