<?xml version="1.0" encoding="utf-8" standalone="no"?>
<!DOCTYPE svg PUBLIC "-//W3C//DTD SVG 1.1//EN"
  "http://www.w3.org/Graphics/SVG/1.1/DTD/svg11.dtd">
<svg xmlns:xlink="http://www.w3.org/1999/xlink" width="1080pt" height="756pt" viewBox="0 0 1080 756" xmlns="http://www.w3.org/2000/svg" version="1.1">
 <metadata>
  <rdf:RDF xmlns:dc="http://purl.org/dc/elements/1.1/" xmlns:cc="http://creativecommons.org/ns#" xmlns:rdf="http://www.w3.org/1999/02/22-rdf-syntax-ns#">
   <cc:Work>
    <dc:type rdf:resource="http://purl.org/dc/dcmitype/StillImage"/>
    <dc:date>2024-07-30T17:29:13.699633</dc:date>
    <dc:format>image/svg+xml</dc:format>
    <dc:creator>
     <cc:Agent>
      <dc:title>Matplotlib v3.9.0, https://matplotlib.org/</dc:title>
     </cc:Agent>
    </dc:creator>
   </cc:Work>
  </rdf:RDF>
 </metadata>
 <defs>
  <style type="text/css">*{stroke-linejoin: round; stroke-linecap: butt}</style>
 </defs>
 <g id="figure_1">
  <g id="patch_1">
   <path d="M 0 756 
L 1080 756 
L 1080 0 
L 0 0 
z
" style="fill: #ffffff"/>
  </g>
  <g id="axes_1">
   <g id="patch_2">
    <path d="M 88.532127 678.237256 
L 1041.12 678.237256 
L 1041.12 38.88 
L 88.532127 38.88 
z
" style="fill: #ffffff"/>
   </g>
   <g id="matplotlib.axis_1">
    <g id="xtick_1">
     <g id="line2d_1">
      <defs>
       <path id="md76e37ead1" d="M 0 0 
L 0 3.5 
" style="stroke: #262626; stroke-width: 0.8"/>
      </defs>
      <g>
       <use xlink:href="#md76e37ead1" x="88.532127" y="678.237256" style="fill: #262626; stroke: #262626; stroke-width: 0.8"/>
      </g>
     </g>
     <g id="text_1">
      <!-- $\mathdefault{0}$ -->
      <g style="fill: #262626" transform="translate(80.307841 710.143856) scale(0.36 -0.36)">
       <defs>
        <path id="CMR17-30" d="M 2688 2025 
C 2688 2416 2682 3080 2413 3591 
C 2176 4039 1798 4198 1466 4198 
C 1158 4198 768 4058 525 3597 
C 269 3118 243 2524 243 2025 
C 243 1661 250 1106 448 619 
C 723 -39 1216 -128 1466 -128 
C 1760 -128 2208 -7 2470 600 
C 2662 1042 2688 1559 2688 2025 
z
M 1466 -26 
C 1056 -26 813 325 723 812 
C 653 1188 653 1738 653 2096 
C 653 2588 653 2997 736 3387 
C 858 3929 1216 4096 1466 4096 
C 1728 4096 2067 3923 2189 3400 
C 2272 3036 2278 2607 2278 2096 
C 2278 1680 2278 1169 2202 792 
C 2067 95 1690 -26 1466 -26 
z
" transform="scale(0.015625)"/>
       </defs>
       <use xlink:href="#CMR17-30" transform="scale(0.996264)"/>
      </g>
     </g>
    </g>
    <g id="xtick_2">
     <g id="line2d_2">
      <g>
       <use xlink:href="#md76e37ead1" x="239.736552" y="678.237256" style="fill: #262626; stroke: #262626; stroke-width: 0.8"/>
      </g>
     </g>
     <g id="text_2">
      <!-- $\mathdefault{500}$ -->
      <g style="fill: #262626" transform="translate(215.063694 710.143856) scale(0.36 -0.36)">
       <defs>
        <path id="CMR17-35" d="M 730 3692 
C 794 3666 1056 3584 1325 3584 
C 1920 3584 2246 3911 2432 4100 
C 2432 4157 2432 4192 2394 4192 
C 2387 4192 2374 4192 2323 4163 
C 2099 4058 1837 3973 1517 3973 
C 1325 3973 1037 3999 723 4139 
C 653 4171 640 4171 634 4171 
C 602 4171 595 4164 595 4037 
L 595 2203 
C 595 2089 595 2057 659 2057 
C 691 2057 704 2070 736 2114 
C 941 2401 1222 2522 1542 2522 
C 1766 2522 2246 2382 2246 1289 
C 2246 1085 2246 715 2054 421 
C 1894 159 1645 25 1370 25 
C 947 25 518 320 403 814 
C 429 807 480 795 506 795 
C 589 795 749 840 749 1038 
C 749 1210 627 1280 506 1280 
C 358 1280 262 1190 262 1011 
C 262 454 704 -128 1382 -128 
C 2042 -128 2669 440 2669 1264 
C 2669 2030 2170 2624 1549 2624 
C 1222 2624 947 2503 730 2274 
L 730 3692 
z
" transform="scale(0.015625)"/>
       </defs>
       <use xlink:href="#CMR17-35" transform="scale(0.996264)"/>
       <use xlink:href="#CMR17-30" transform="translate(45.690477 0) scale(0.996264)"/>
       <use xlink:href="#CMR17-30" transform="translate(91.380954 0) scale(0.996264)"/>
      </g>
     </g>
    </g>
    <g id="xtick_3">
     <g id="line2d_3">
      <g>
       <use xlink:href="#md76e37ead1" x="390.940976" y="678.237256" style="fill: #262626; stroke: #262626; stroke-width: 0.8"/>
      </g>
     </g>
     <g id="text_3">
      <!-- $\mathdefault{1000}$ -->
      <g style="fill: #262626" transform="translate(358.043832 710.143856) scale(0.36 -0.36)">
       <defs>
        <path id="CMR17-31" d="M 1702 4058 
C 1702 4192 1696 4192 1606 4192 
C 1357 3916 979 3827 621 3827 
C 602 3827 570 3827 563 3808 
C 557 3795 557 3782 557 3648 
C 755 3648 1088 3686 1344 3839 
L 1344 461 
C 1344 236 1331 160 781 160 
L 589 160 
L 589 0 
C 896 0 1216 0 1523 0 
C 1830 0 2150 0 2458 0 
L 2458 160 
L 2266 160 
C 1715 160 1702 230 1702 458 
L 1702 4058 
z
" transform="scale(0.015625)"/>
       </defs>
       <use xlink:href="#CMR17-31" transform="scale(0.996264)"/>
       <use xlink:href="#CMR17-30" transform="translate(45.690477 0) scale(0.996264)"/>
       <use xlink:href="#CMR17-30" transform="translate(91.380954 0) scale(0.996264)"/>
       <use xlink:href="#CMR17-30" transform="translate(137.071431 0) scale(0.996264)"/>
      </g>
     </g>
    </g>
    <g id="xtick_4">
     <g id="line2d_4">
      <g>
       <use xlink:href="#md76e37ead1" x="542.1454" y="678.237256" style="fill: #262626; stroke: #262626; stroke-width: 0.8"/>
      </g>
     </g>
     <g id="text_4">
      <!-- $\mathdefault{1500}$ -->
      <g style="fill: #262626" transform="translate(509.248256 710.143856) scale(0.36 -0.36)">
       <use xlink:href="#CMR17-31" transform="scale(0.996264)"/>
       <use xlink:href="#CMR17-35" transform="translate(45.690477 0) scale(0.996264)"/>
       <use xlink:href="#CMR17-30" transform="translate(91.380954 0) scale(0.996264)"/>
       <use xlink:href="#CMR17-30" transform="translate(137.071431 0) scale(0.996264)"/>
      </g>
     </g>
    </g>
    <g id="xtick_5">
     <g id="line2d_5">
      <g>
       <use xlink:href="#md76e37ead1" x="693.349824" y="678.237256" style="fill: #262626; stroke: #262626; stroke-width: 0.8"/>
      </g>
     </g>
     <g id="text_5">
      <!-- $\mathdefault{2000}$ -->
      <g style="fill: #262626" transform="translate(660.452681 710.143856) scale(0.36 -0.36)">
       <defs>
        <path id="CMR17-32" d="M 2669 989 
L 2554 989 
C 2490 536 2438 459 2413 420 
C 2381 369 1920 369 1830 369 
L 602 369 
C 832 619 1280 1072 1824 1597 
C 2214 1967 2669 2402 2669 3035 
C 2669 3790 2067 4224 1395 4224 
C 691 4224 262 3604 262 3030 
C 262 2780 448 2748 525 2748 
C 589 2748 781 2787 781 3010 
C 781 3207 614 3264 525 3264 
C 486 3264 448 3258 422 3245 
C 544 3790 915 4058 1306 4058 
C 1862 4058 2227 3617 2227 3035 
C 2227 2479 1901 2000 1536 1584 
L 262 146 
L 262 0 
L 2515 0 
L 2669 989 
z
" transform="scale(0.015625)"/>
       </defs>
       <use xlink:href="#CMR17-32" transform="scale(0.996264)"/>
       <use xlink:href="#CMR17-30" transform="translate(45.690477 0) scale(0.996264)"/>
       <use xlink:href="#CMR17-30" transform="translate(91.380954 0) scale(0.996264)"/>
       <use xlink:href="#CMR17-30" transform="translate(137.071431 0) scale(0.996264)"/>
      </g>
     </g>
    </g>
    <g id="xtick_6">
     <g id="line2d_6">
      <g>
       <use xlink:href="#md76e37ead1" x="844.554248" y="678.237256" style="fill: #262626; stroke: #262626; stroke-width: 0.8"/>
      </g>
     </g>
     <g id="text_6">
      <!-- $\mathdefault{2500}$ -->
      <g style="fill: #262626" transform="translate(811.657105 710.143856) scale(0.36 -0.36)">
       <use xlink:href="#CMR17-32" transform="scale(0.996264)"/>
       <use xlink:href="#CMR17-35" transform="translate(45.690477 0) scale(0.996264)"/>
       <use xlink:href="#CMR17-30" transform="translate(91.380954 0) scale(0.996264)"/>
       <use xlink:href="#CMR17-30" transform="translate(137.071431 0) scale(0.996264)"/>
      </g>
     </g>
    </g>
    <g id="xtick_7">
     <g id="line2d_7">
      <g>
       <use xlink:href="#md76e37ead1" x="995.758673" y="678.237256" style="fill: #262626; stroke: #262626; stroke-width: 0.8"/>
      </g>
     </g>
     <g id="text_7">
      <!-- $\mathdefault{3000}$ -->
      <g style="fill: #262626" transform="translate(962.861529 710.143856) scale(0.36 -0.36)">
       <defs>
        <path id="CMR17-33" d="M 1414 2157 
C 1984 2157 2234 1662 2234 1090 
C 2234 320 1824 25 1453 25 
C 1114 25 563 194 390 693 
C 422 680 454 680 486 680 
C 640 680 755 782 755 948 
C 755 1133 614 1216 486 1216 
C 378 1216 211 1165 211 926 
C 211 335 787 -128 1466 -128 
C 2176 -128 2720 430 2720 1085 
C 2720 1707 2208 2157 1600 2227 
C 2086 2328 2554 2756 2554 3329 
C 2554 3820 2048 4179 1472 4179 
C 890 4179 378 3829 378 3329 
C 378 3110 544 3072 627 3072 
C 762 3072 877 3155 877 3321 
C 877 3486 762 3569 627 3569 
C 602 3569 570 3569 544 3557 
C 730 3959 1235 4032 1459 4032 
C 1683 4032 2106 3925 2106 3320 
C 2106 3143 2080 2828 1862 2550 
C 1670 2304 1453 2304 1242 2284 
C 1210 2284 1062 2269 1037 2269 
C 992 2263 966 2257 966 2208 
C 966 2163 973 2157 1101 2157 
L 1414 2157 
z
" transform="scale(0.015625)"/>
       </defs>
       <use xlink:href="#CMR17-33" transform="scale(0.996264)"/>
       <use xlink:href="#CMR17-30" transform="translate(45.690477 0) scale(0.996264)"/>
       <use xlink:href="#CMR17-30" transform="translate(91.380954 0) scale(0.996264)"/>
       <use xlink:href="#CMR17-30" transform="translate(137.071431 0) scale(0.996264)"/>
      </g>
     </g>
    </g>
   </g>
   <g id="matplotlib.axis_2">
    <g id="ytick_1">
     <g id="line2d_8">
      <defs>
       <path id="m7d47aa60ee" d="M 0 0 
L -3.5 0 
" style="stroke: #262626; stroke-width: 0.8"/>
      </defs>
      <g>
       <use xlink:href="#m7d47aa60ee" x="88.532127" y="651.377465" style="fill: #262626; stroke: #262626; stroke-width: 0.8"/>
      </g>
     </g>
     <g id="text_8">
      <!-- $\mathdefault{0.0}$ -->
      <g style="fill: #262626" transform="translate(38.88 663.830765) scale(0.36 -0.36)">
       <defs>
        <path id="CMMI12-3a" d="M 1178 307 
C 1178 492 1024 619 870 619 
C 685 619 557 466 557 313 
C 557 128 710 0 864 0 
C 1050 0 1178 153 1178 307 
z
" transform="scale(0.015625)"/>
       </defs>
       <use xlink:href="#CMR17-30" transform="scale(0.996264)"/>
       <use xlink:href="#CMMI12-3a" transform="translate(45.690477 0) scale(0.996264)"/>
       <use xlink:href="#CMR17-30" transform="translate(72.787654 0) scale(0.996264)"/>
      </g>
     </g>
    </g>
    <g id="ytick_2">
     <g id="line2d_9">
      <g>
       <use xlink:href="#m7d47aa60ee" x="88.532127" y="505.518521" style="fill: #262626; stroke: #262626; stroke-width: 0.8"/>
      </g>
     </g>
     <g id="text_9">
      <!-- $\mathdefault{0.5}$ -->
      <g style="fill: #262626" transform="translate(38.88 517.971821) scale(0.36 -0.36)">
       <use xlink:href="#CMR17-30" transform="scale(0.996264)"/>
       <use xlink:href="#CMMI12-3a" transform="translate(45.690477 0) scale(0.996264)"/>
       <use xlink:href="#CMR17-35" transform="translate(72.787654 0) scale(0.996264)"/>
      </g>
     </g>
    </g>
    <g id="ytick_3">
     <g id="line2d_10">
      <g>
       <use xlink:href="#m7d47aa60ee" x="88.532127" y="359.659578" style="fill: #262626; stroke: #262626; stroke-width: 0.8"/>
      </g>
     </g>
     <g id="text_10">
      <!-- $\mathdefault{1.0}$ -->
      <g style="fill: #262626" transform="translate(38.88 372.112878) scale(0.36 -0.36)">
       <use xlink:href="#CMR17-31" transform="scale(0.996264)"/>
       <use xlink:href="#CMMI12-3a" transform="translate(45.690477 0) scale(0.996264)"/>
       <use xlink:href="#CMR17-30" transform="translate(72.787654 0) scale(0.996264)"/>
      </g>
     </g>
    </g>
    <g id="ytick_4">
     <g id="line2d_11">
      <g>
       <use xlink:href="#m7d47aa60ee" x="88.532127" y="213.800634" style="fill: #262626; stroke: #262626; stroke-width: 0.8"/>
      </g>
     </g>
     <g id="text_11">
      <!-- $\mathdefault{1.5}$ -->
      <g style="fill: #262626" transform="translate(38.88 226.253934) scale(0.36 -0.36)">
       <use xlink:href="#CMR17-31" transform="scale(0.996264)"/>
       <use xlink:href="#CMMI12-3a" transform="translate(45.690477 0) scale(0.996264)"/>
       <use xlink:href="#CMR17-35" transform="translate(72.787654 0) scale(0.996264)"/>
      </g>
     </g>
    </g>
    <g id="ytick_5">
     <g id="line2d_12">
      <g>
       <use xlink:href="#m7d47aa60ee" x="88.532127" y="67.941691" style="fill: #262626; stroke: #262626; stroke-width: 0.8"/>
      </g>
     </g>
     <g id="text_12">
      <!-- $\mathdefault{2.0}$ -->
      <g style="fill: #262626" transform="translate(38.88 80.394991) scale(0.36 -0.36)">
       <use xlink:href="#CMR17-32" transform="scale(0.996264)"/>
       <use xlink:href="#CMMI12-3a" transform="translate(45.690477 0) scale(0.996264)"/>
       <use xlink:href="#CMR17-30" transform="translate(72.787654 0) scale(0.996264)"/>
      </g>
     </g>
    </g>
   </g>
   <g id="line2d_13">
    <path d="M 88.532127 593.033887 
L 121.797101 598.424433 
L 139.941632 601.068726 
L 161.110251 603.910968 
L 182.27887 606.519474 
L 206.471578 609.246255 
L 230.664286 611.731946 
L 254.856994 614.007277 
L 282.07379 616.335021 
L 312.314675 618.676298 
L 345.579648 621.00906 
L 378.844622 623.087185 
L 415.133684 625.119277 
L 454.446834 627.094553 
L 496.784073 628.987634 
L 539.121312 630.658376 
L 587.506727 632.344304 
L 644.964408 634.114077 
L 699.398001 635.562605 
L 759.879771 636.949476 
L 826.409718 638.239031 
L 898.987841 639.416557 
L 980.63823 640.51639 
L 995.758673 640.696883 
L 995.758673 640.696883 
" clip-path="url(#p37cb730e36)" style="fill: none; stroke: #1f77b4; stroke-width: 5; stroke-linecap: round"/>
   </g>
   <g id="line2d_14">
    <path d="M 88.532127 534.69031 
L 103.65257 543.681433 
L 112.724835 548.63695 
L 121.797101 553.264446 
L 130.869366 557.589332 
L 139.941632 561.638071 
L 149.013897 565.432307 
L 158.086162 568.996488 
L 167.158428 572.349538 
L 176.230693 575.503601 
L 188.327047 579.430941 
L 200.423401 583.064829 
L 212.519755 586.437672 
L 224.616109 589.569519 
L 236.712463 592.4873 
L 248.808817 595.20657 
L 263.929259 598.356405 
L 279.049702 601.251836 
L 294.170144 603.923778 
L 309.290587 606.396909 
L 327.435118 609.126729 
L 345.579648 611.622778 
L 363.724179 613.907805 
L 384.892799 616.335071 
L 406.061418 618.546399 
L 430.254126 620.84573 
L 454.446834 622.929459 
L 481.66363 625.028539 
L 508.880427 626.900139 
L 542.1454 628.963124 
L 575.410373 630.786524 
L 608.675347 632.387766 
L 644.964408 633.92499 
L 684.277559 635.365208 
L 729.638886 636.789765 
L 778.024302 638.078562 
L 826.409718 639.16975 
L 883.867399 640.270746 
L 953.421434 641.380014 
L 995.758673 641.953858 
L 995.758673 641.953858 
" clip-path="url(#p37cb730e36)" style="fill: none; stroke: #ff7f0e; stroke-width: 5; stroke-linecap: round"/>
   </g>
   <g id="line2d_15">
    <path d="M 88.532127 476.346733 
L 97.604393 487.492648 
L 103.65257 494.460237 
L 109.700747 501.005752 
L 115.748924 507.162926 
L 121.797101 512.960399 
L 127.845278 518.428859 
L 133.893455 523.589494 
L 139.941632 528.464151 
L 145.989808 533.078783 
L 152.037985 537.455531 
L 158.086162 541.60015 
L 164.134339 545.531409 
L 170.182516 549.262824 
L 176.230693 552.809546 
L 185.302959 557.809838 
L 194.375224 562.462182 
L 203.44749 566.794715 
L 212.519755 570.831929 
L 221.592021 574.599216 
L 230.664286 578.120603 
L 239.736552 581.423623 
L 248.808817 584.528804 
L 257.881082 587.44087 
L 269.977436 591.059166 
L 282.07379 594.400442 
L 294.170144 597.493059 
L 306.266498 600.361189 
L 318.362852 603.024641 
L 333.483295 606.095491 
L 348.603737 608.911624 
L 363.724179 611.496929 
L 378.844622 613.878645 
L 396.989153 616.493605 
L 415.133684 618.873605 
L 433.278215 621.046864 
L 454.446834 623.351723 
L 475.615453 625.433088 
L 496.784073 627.310852 
L 520.976781 629.221444 
L 545.169488 630.899879 
L 572.386285 632.56361 
L 599.603081 634.012144 
L 629.843966 635.40962 
L 663.108939 636.734263 
L 702.42209 638.055346 
L 747.783417 639.351742 
L 799.192921 640.554216 
L 856.650602 641.659054 
L 920.156461 642.656921 
L 995.758673 643.617682 
L 995.758673 643.617682 
" clip-path="url(#p37cb730e36)" style="fill: none; stroke: #2ca02c; stroke-width: 5; stroke-linecap: round"/>
   </g>
   <g id="line2d_16">
    <path d="M 88.532127 418.003155 
L 97.604393 436.003299 
L 103.65257 447.082198 
L 109.700747 457.37371 
L 115.748924 466.951607 
L 121.797101 475.877511 
L 127.845278 484.212259 
L 133.893455 492.005887 
L 139.941632 499.296614 
L 145.989808 506.136602 
L 152.037985 512.57627 
L 158.086162 518.628183 
L 164.134339 524.318648 
L 170.182516 529.676291 
L 176.230693 534.728187 
L 182.27887 539.499281 
L 188.327047 544.016006 
L 194.375224 548.304417 
L 200.423401 552.366894 
L 206.471578 556.215287 
L 212.519755 559.870912 
L 218.567932 563.341156 
L 227.640198 568.230763 
L 236.712463 572.767068 
L 245.784728 576.984965 
L 254.856994 580.917119 
L 263.929259 584.592859 
L 273.001525 588.031786 
L 282.07379 591.247771 
L 291.146056 594.260348 
L 300.218321 597.086991 
L 312.314675 600.592375 
L 324.411029 603.830556 
L 336.507383 606.835567 
L 348.603737 609.627239 
L 360.700091 612.193042 
L 375.820533 615.126435 
L 390.940976 617.811939 
L 406.061418 620.300217 
L 421.181861 622.529525 
L 436.302303 624.542026 
L 451.422745 626.354058 
L 469.567276 628.292144 
L 487.711807 630.002212 
L 508.880427 631.748659 
L 530.049046 633.267365 
L 554.241754 634.771219 
L 581.45855 636.220278 
L 611.699435 637.585299 
L 644.964408 638.849414 
L 681.25347 640.005363 
L 723.590709 641.125048 
L 771.976125 642.176622 
L 826.409718 643.141552 
L 889.915576 644.044221 
L 968.541876 644.934797 
L 995.758673 645.194871 
L 995.758673 645.194871 
" clip-path="url(#p37cb730e36)" style="fill: none; stroke: #d62728; stroke-width: 5; stroke-linecap: round"/>
   </g>
   <g id="line2d_17">
    <path d="M 88.532127 359.659578 
L 94.580304 377.036004 
L 97.604393 385.36318 
L 100.628481 393.348218 
L 103.65257 401.010067 
L 109.700747 415.432296 
L 115.748924 428.751509 
L 121.797101 441.084915 
L 127.845278 452.519505 
L 133.893455 463.142233 
L 139.941632 473.03283 
L 145.989808 482.252377 
L 152.037985 490.865403 
L 158.086162 498.916316 
L 164.134339 506.455402 
L 170.182516 513.526952 
L 176.230693 520.166826 
L 182.27887 526.412888 
L 188.327047 532.292538 
L 194.375224 537.832742 
L 200.423401 543.058192 
L 206.471578 547.994987 
L 212.519755 552.660342 
L 218.567932 557.072715 
L 224.616109 561.256739 
L 230.664286 565.225215 
L 236.712463 568.992601 
L 242.76064 572.571854 
L 248.808817 575.973777 
L 257.881082 580.766697 
L 266.953348 585.212456 
L 276.025613 589.344196 
L 285.097879 593.192781 
L 294.170144 596.785848 
L 303.24241 600.150113 
L 312.314675 603.288943 
L 321.386941 606.211096 
L 333.483295 609.830855 
L 342.55556 612.348935 
L 354.651914 615.432726 
L 363.724179 617.543299 
L 375.820533 620.096141 
L 387.916887 622.394226 
L 400.013241 624.440674 
L 412.109595 626.260733 
L 427.230038 628.313825 
L 439.326392 629.740109 
L 454.446834 631.31412 
L 472.591365 632.990624 
L 490.735896 634.408166 
L 514.928604 636.048716 
L 536.097223 637.260655 
L 566.338108 638.708867 
L 587.506727 639.567427 
L 623.795789 640.820327 
L 663.108939 641.920793 
L 705.446178 642.885562 
L 759.879771 643.880245 
L 820.361541 644.751778 
L 895.963753 645.596361 
L 977.614142 646.307709 
L 995.758673 646.443886 
L 995.758673 646.443886 
" clip-path="url(#p37cb730e36)" style="fill: none; stroke: #9467bd; stroke-width: 5; stroke-linecap: round"/>
   </g>
   <g id="line2d_18">
    <path d="M 88.532127 301.316001 
L 94.580304 324.347801 
L 97.604393 335.331648 
L 100.628481 345.837012 
L 103.65257 355.891799 
L 106.676658 365.521897 
L 109.700747 374.751092 
L 112.724835 383.598699 
L 115.748924 392.087588 
L 118.773012 400.240364 
L 124.821189 415.597953 
L 130.869366 429.792533 
L 136.917543 442.944917 
L 142.96572 455.154583 
L 149.013897 466.505085 
L 155.062074 477.073698 
L 161.110251 486.930038 
L 167.158428 496.137998 
L 173.206605 504.755993 
L 179.254782 512.833452 
L 185.302959 520.40996 
L 191.351136 527.518954 
L 197.399313 534.204156 
L 203.44749 540.492238 
L 209.495667 546.420023 
L 215.543844 552.019416 
L 221.592021 557.309035 
L 227.640198 562.291702 
L 233.688375 566.982916 
L 239.736552 571.430534 
L 245.784728 575.651306 
L 251.832905 579.651393 
L 257.881082 583.440876 
L 263.929259 587.030546 
L 269.977436 590.425968 
L 279.049702 595.194264 
L 288.121967 599.625841 
L 297.194233 603.709132 
L 306.266498 607.463073 
L 315.338764 610.885997 
L 324.411029 613.961349 
L 333.483295 616.739569 
L 342.55556 619.232759 
L 351.627825 621.449336 
L 360.700091 623.438032 
L 369.772356 625.228448 
L 378.844622 626.843511 
L 390.940976 628.742653 
L 403.03733 630.40228 
L 415.133684 631.863196 
L 430.254126 633.460552 
L 445.374568 634.832388 
L 463.519099 636.236139 
L 484.687719 637.649595 
L 511.904515 639.120143 
L 539.121312 640.32886 
L 569.362196 641.430317 
L 602.62717 642.42529 
L 641.94032 643.380261 
L 690.325736 644.317027 
L 747.783417 645.187035 
L 817.337452 645.996964 
L 898.987841 646.718615 
L 995.758673 647.361384 
L 995.758673 647.361384 
" clip-path="url(#p37cb730e36)" style="fill: none; stroke: #8c564b; stroke-width: 5; stroke-linecap: round"/>
   </g>
   <g id="line2d_19">
    <path d="M 88.532127 242.972424 
L 94.580304 271.95757 
L 97.604393 285.741662 
L 100.628481 298.910778 
L 103.65257 311.498527 
L 106.676658 323.541215 
L 109.700747 335.067745 
L 112.724835 346.107412 
L 115.748924 356.691433 
L 118.773012 366.844112 
L 121.797101 376.583726 
L 124.821189 385.934601 
L 130.869366 403.551608 
L 136.917543 419.844386 
L 142.96572 434.940597 
L 149.013897 448.948216 
L 155.062074 461.96923 
L 161.110251 474.093728 
L 167.158428 485.402428 
L 173.206605 495.964813 
L 179.254782 505.842375 
L 185.302959 515.087696 
L 191.351136 523.746359 
L 197.399313 531.870047 
L 203.44749 539.492351 
L 209.495667 546.646636 
L 215.543844 553.359243 
L 221.592021 559.664941 
L 227.640198 565.610792 
L 233.688375 571.222375 
L 239.736552 576.49202 
L 245.784728 581.435906 
L 251.832905 586.091795 
L 257.881082 590.475204 
L 263.929259 594.595303 
L 269.977436 598.461561 
L 276.025613 602.065552 
L 282.07379 605.382911 
L 288.121967 608.411932 
L 294.170144 611.171698 
L 300.218321 613.678504 
L 306.266498 615.973836 
L 312.314675 618.071794 
L 318.362852 619.995546 
L 324.411029 621.74328 
L 333.483295 624.064636 
L 342.55556 626.094066 
L 351.627825 627.892345 
L 360.700091 629.474903 
L 372.796445 631.313634 
L 384.892799 632.894194 
L 396.989153 634.265243 
L 412.109595 635.736494 
L 427.230038 636.991863 
L 445.374568 638.271196 
L 466.543188 639.517547 
L 490.735896 640.693801 
L 517.952692 641.776517 
L 548.193577 642.757326 
L 584.482639 643.707794 
L 626.819878 644.587577 
L 678.229382 645.42394 
L 738.711152 646.183439 
L 814.313364 646.901581 
L 908.060107 647.560425 
L 995.758673 648.025218 
L 995.758673 648.025218 
" clip-path="url(#p37cb730e36)" style="fill: none; stroke: #e377c2; stroke-width: 5; stroke-linecap: round"/>
   </g>
   <g id="line2d_20">
    <path d="M 88.532127 184.628847 
L 94.580304 219.781763 
L 97.604393 236.484171 
L 100.628481 252.437546 
L 103.65257 267.686901 
L 106.676658 282.274731 
L 109.700747 296.238234 
L 112.724835 309.61023 
L 115.748924 322.427684 
L 118.773012 334.724599 
L 121.797101 346.515141 
L 127.845278 368.732461 
L 130.869366 379.194455 
L 136.917543 398.917128 
L 142.96572 417.182993 
L 149.013897 434.141401 
L 155.062074 449.887749 
L 161.110251 464.536415 
L 167.158428 478.185353 
L 173.206605 490.928862 
L 179.254782 502.784964 
L 185.302959 513.891194 
L 191.351136 524.26586 
L 197.399313 533.934016 
L 203.44749 542.989158 
L 209.495667 551.46094 
L 215.543844 559.355495 
L 221.592021 566.727736 
L 227.640198 573.618824 
L 233.688375 580.04468 
L 239.736552 586.022501 
L 245.784728 591.5699 
L 251.832905 596.642166 
L 257.881082 601.214812 
L 263.929259 605.293802 
L 269.977436 608.933334 
L 276.025613 612.180053 
L 282.07379 615.05473 
L 288.121967 617.604685 
L 294.170144 619.884594 
L 300.218321 621.91745 
L 306.266498 623.743245 
L 312.314675 625.395936 
L 321.386941 627.583609 
L 330.459206 629.411321 
L 339.531472 631.040144 
L 348.603737 632.456781 
L 360.700091 634.086845 
L 372.796445 635.476559 
L 384.892799 636.672863 
L 400.013241 637.949516 
L 418.157772 639.232167 
L 439.326392 640.461478 
L 463.519099 641.596239 
L 490.735896 642.647001 
L 524.000869 643.657799 
L 560.289931 644.525613 
L 602.62717 645.331805 
L 657.060762 646.1288 
L 723.590709 646.860838 
L 808.265187 647.550113 
L 908.060107 648.130327 
L 995.758673 648.515651 
L 995.758673 648.515651 
" clip-path="url(#p37cb730e36)" style="fill: none; stroke: #7f7f7f; stroke-width: 5; stroke-linecap: round"/>
   </g>
   <g id="line2d_21">
    <path d="M 88.532127 126.28527 
L 94.580304 167.759916 
L 97.604393 187.477316 
L 100.628481 206.329304 
L 103.65257 224.366794 
L 106.676658 241.636678 
L 109.700747 258.183587 
L 112.724835 274.045745 
L 115.748924 289.263007 
L 118.773012 303.867582 
L 121.797101 317.892144 
L 124.821189 331.368077 
L 127.845278 344.321956 
L 130.869366 356.781453 
L 136.917543 380.307501 
L 142.96572 402.121626 
L 149.013897 422.380425 
L 155.062074 441.197547 
L 161.110251 458.685401 
L 167.158428 474.993168 
L 173.206605 490.167119 
L 179.254782 504.251327 
L 185.302959 517.391429 
L 191.351136 529.606268 
L 197.399313 540.933889 
L 203.44749 551.444437 
L 209.495667 561.181031 
L 215.543844 570.180311 
L 221.592021 578.465809 
L 224.616109 582.342362 
L 227.640198 586.026316 
L 230.664286 589.502667 
L 233.688375 592.761397 
L 236.712463 595.829482 
L 239.736552 598.698349 
L 242.76064 601.368342 
L 245.784728 603.840916 
L 248.808817 606.143213 
L 251.832905 608.28328 
L 254.856994 610.273099 
L 260.905171 613.847842 
L 266.953348 616.946038 
L 273.001525 619.640384 
L 279.049702 621.993818 
L 285.097879 624.065581 
L 291.146056 625.894102 
L 297.194233 627.521467 
L 303.24241 628.955802 
L 312.314675 630.851265 
L 321.386941 632.474481 
L 330.459206 633.909471 
L 342.55556 635.476419 
L 354.651914 636.819407 
L 369.772356 638.221898 
L 384.892799 639.390679 
L 403.03733 640.553827 
L 424.205949 641.661711 
L 451.422745 642.810839 
L 475.615453 643.618274 
L 511.904515 644.598925 
L 554.241754 645.471274 
L 602.62717 646.233469 
L 660.084851 646.916262 
L 738.711152 647.617343 
L 835.481983 648.217036 
L 959.469611 648.762049 
L 995.758673 648.887219 
L 995.758673 648.887219 
" clip-path="url(#p37cb730e36)" style="fill: none; stroke: #bcbd22; stroke-width: 5; stroke-linecap: round"/>
   </g>
   <g id="line2d_22">
    <path d="M 88.532127 67.941693 
L 94.580304 115.855823 
L 97.604393 138.680516 
L 100.628481 160.543066 
L 103.65257 181.498365 
L 106.676658 201.598289 
L 109.700747 220.889041 
L 112.724835 239.413323 
L 115.748924 257.21453 
L 118.773012 274.325822 
L 121.797101 290.785773 
L 127.845278 321.870031 
L 133.893455 350.697231 
L 139.941632 377.463159 
L 145.989808 402.33605 
L 152.037985 425.458882 
L 158.086162 446.955734 
L 164.134339 466.928328 
L 170.182516 485.470989 
L 176.230693 502.65772 
L 182.27887 518.551642 
L 185.302959 526.035025 
L 188.327047 533.217961 
L 191.351136 540.106698 
L 194.375224 546.702195 
L 197.399313 553.009099 
L 200.423401 559.029993 
L 203.44749 564.77595 
L 206.471578 570.256814 
L 209.495667 575.480943 
L 212.519755 580.407516 
L 215.543844 584.974688 
L 218.567932 589.199263 
L 221.592021 593.065336 
L 224.616109 596.617751 
L 227.640198 599.88135 
L 230.664286 602.872403 
L 233.688375 605.610104 
L 236.712463 608.10993 
L 239.736552 610.395526 
L 242.76064 612.491024 
L 245.784728 614.424673 
L 248.808817 616.212654 
L 251.832905 617.85359 
L 254.856994 619.360052 
L 260.905171 622.020741 
L 266.953348 624.337824 
L 273.001525 626.353762 
L 279.049702 628.107774 
L 285.097879 629.652243 
L 291.146056 631.039351 
L 300.218321 632.811307 
L 309.290587 634.319726 
L 318.362852 635.620111 
L 330.459206 637.075299 
L 342.55556 638.305731 
L 357.676002 639.581489 
L 372.796445 640.629669 
L 390.940976 641.685422 
L 412.109595 642.684716 
L 436.302303 643.606947 
L 466.543188 644.522758 
L 502.83225 645.373886 
L 548.193577 646.18939 
L 599.603081 646.875344 
L 666.133028 647.543529 
L 750.807505 648.154463 
L 859.674691 648.704759 
L 995.758673 649.175563 
L 995.758673 649.175563 
" clip-path="url(#p37cb730e36)" style="fill: none; stroke: #17becf; stroke-width: 5; stroke-linecap: round"/>
   </g>
   <g id="patch_3">
    <path d="M 88.532127 678.237256 
L 88.532127 38.88 
" style="fill: none; stroke: #262626; stroke-width: 0.8; stroke-linejoin: miter; stroke-linecap: square"/>
   </g>
   <g id="patch_4">
    <path d="M 88.532127 678.237256 
L 1041.12 678.237256 
" style="fill: none; stroke: #262626; stroke-width: 0.8; stroke-linejoin: miter; stroke-linecap: square"/>
   </g>
  </g>
 </g>
 <defs>
  <clipPath id="p37cb730e36">
   <rect x="88.532127" y="38.88" width="952.587873" height="639.357256"/>
  </clipPath>
 </defs>
</svg>
