<?xml version="1.0" encoding="utf-8" standalone="no"?>
<!DOCTYPE svg PUBLIC "-//W3C//DTD SVG 1.1//EN"
  "http://www.w3.org/Graphics/SVG/1.1/DTD/svg11.dtd">
<svg xmlns:xlink="http://www.w3.org/1999/xlink" width="1080pt" height="576pt" viewBox="0 0 1080 576" xmlns="http://www.w3.org/2000/svg" version="1.1">
 <metadata>
  <rdf:RDF xmlns:dc="http://purl.org/dc/elements/1.1/" xmlns:cc="http://creativecommons.org/ns#" xmlns:rdf="http://www.w3.org/1999/02/22-rdf-syntax-ns#">
   <cc:Work>
    <dc:type rdf:resource="http://purl.org/dc/dcmitype/StillImage"/>
    <dc:date>2024-07-29T20:42:57.519317</dc:date>
    <dc:format>image/svg+xml</dc:format>
    <dc:creator>
     <cc:Agent>
      <dc:title>Matplotlib v3.9.0, https://matplotlib.org/</dc:title>
     </cc:Agent>
    </dc:creator>
   </cc:Work>
  </rdf:RDF>
 </metadata>
 <defs>
  <style type="text/css">*{stroke-linejoin: round; stroke-linecap: butt}</style>
 </defs>
 <g id="figure_1">
  <g id="patch_1">
   <path d="M 0 576 
L 1080 576 
L 1080 0 
L 0 0 
z
" style="fill: #ffffff"/>
  </g>
  <g id="axes_1">
   <g id="patch_2">
    <path d="M 88.532127 498.237256 
L 1041.12 498.237256 
L 1041.12 38.88 
L 88.532127 38.88 
z
" style="fill: #ffffff"/>
   </g>
   <g id="matplotlib.axis_1">
    <g id="xtick_1">
     <g id="line2d_1">
      <defs>
       <path id="ma50516707d" d="M 0 0 
L 0 3.5 
" style="stroke: #262626; stroke-width: 0.8"/>
      </defs>
      <g>
       <use xlink:href="#ma50516707d" x="88.532127" y="498.237256" style="fill: #262626; stroke: #262626; stroke-width: 0.8"/>
      </g>
     </g>
     <g id="text_1">
      <!-- $\mathdefault{0}$ -->
      <g style="fill: #262626" transform="translate(80.307841 530.143856) scale(0.36 -0.36)">
       <defs>
        <path id="CMR17-30" d="M 2688 2025 
C 2688 2416 2682 3080 2413 3591 
C 2176 4039 1798 4198 1466 4198 
C 1158 4198 768 4058 525 3597 
C 269 3118 243 2524 243 2025 
C 243 1661 250 1106 448 619 
C 723 -39 1216 -128 1466 -128 
C 1760 -128 2208 -7 2470 600 
C 2662 1042 2688 1559 2688 2025 
z
M 1466 -26 
C 1056 -26 813 325 723 812 
C 653 1188 653 1738 653 2096 
C 653 2588 653 2997 736 3387 
C 858 3929 1216 4096 1466 4096 
C 1728 4096 2067 3923 2189 3400 
C 2272 3036 2278 2607 2278 2096 
C 2278 1680 2278 1169 2202 792 
C 2067 95 1690 -26 1466 -26 
z
" transform="scale(0.015625)"/>
       </defs>
       <use xlink:href="#CMR17-30" transform="scale(0.996264)"/>
      </g>
     </g>
    </g>
    <g id="xtick_2">
     <g id="line2d_2">
      <g>
       <use xlink:href="#ma50516707d" x="239.736552" y="498.237256" style="fill: #262626; stroke: #262626; stroke-width: 0.8"/>
      </g>
     </g>
     <g id="text_2">
      <!-- $\mathdefault{500}$ -->
      <g style="fill: #262626" transform="translate(215.063694 530.143856) scale(0.36 -0.36)">
       <defs>
        <path id="CMR17-35" d="M 730 3692 
C 794 3666 1056 3584 1325 3584 
C 1920 3584 2246 3911 2432 4100 
C 2432 4157 2432 4192 2394 4192 
C 2387 4192 2374 4192 2323 4163 
C 2099 4058 1837 3973 1517 3973 
C 1325 3973 1037 3999 723 4139 
C 653 4171 640 4171 634 4171 
C 602 4171 595 4164 595 4037 
L 595 2203 
C 595 2089 595 2057 659 2057 
C 691 2057 704 2070 736 2114 
C 941 2401 1222 2522 1542 2522 
C 1766 2522 2246 2382 2246 1289 
C 2246 1085 2246 715 2054 421 
C 1894 159 1645 25 1370 25 
C 947 25 518 320 403 814 
C 429 807 480 795 506 795 
C 589 795 749 840 749 1038 
C 749 1210 627 1280 506 1280 
C 358 1280 262 1190 262 1011 
C 262 454 704 -128 1382 -128 
C 2042 -128 2669 440 2669 1264 
C 2669 2030 2170 2624 1549 2624 
C 1222 2624 947 2503 730 2274 
L 730 3692 
z
" transform="scale(0.015625)"/>
       </defs>
       <use xlink:href="#CMR17-35" transform="scale(0.996264)"/>
       <use xlink:href="#CMR17-30" transform="translate(45.690477 0) scale(0.996264)"/>
       <use xlink:href="#CMR17-30" transform="translate(91.380954 0) scale(0.996264)"/>
      </g>
     </g>
    </g>
    <g id="xtick_3">
     <g id="line2d_3">
      <g>
       <use xlink:href="#ma50516707d" x="390.940976" y="498.237256" style="fill: #262626; stroke: #262626; stroke-width: 0.8"/>
      </g>
     </g>
     <g id="text_3">
      <!-- $\mathdefault{1000}$ -->
      <g style="fill: #262626" transform="translate(358.043832 530.143856) scale(0.36 -0.36)">
       <defs>
        <path id="CMR17-31" d="M 1702 4058 
C 1702 4192 1696 4192 1606 4192 
C 1357 3916 979 3827 621 3827 
C 602 3827 570 3827 563 3808 
C 557 3795 557 3782 557 3648 
C 755 3648 1088 3686 1344 3839 
L 1344 461 
C 1344 236 1331 160 781 160 
L 589 160 
L 589 0 
C 896 0 1216 0 1523 0 
C 1830 0 2150 0 2458 0 
L 2458 160 
L 2266 160 
C 1715 160 1702 230 1702 458 
L 1702 4058 
z
" transform="scale(0.015625)"/>
       </defs>
       <use xlink:href="#CMR17-31" transform="scale(0.996264)"/>
       <use xlink:href="#CMR17-30" transform="translate(45.690477 0) scale(0.996264)"/>
       <use xlink:href="#CMR17-30" transform="translate(91.380954 0) scale(0.996264)"/>
       <use xlink:href="#CMR17-30" transform="translate(137.071431 0) scale(0.996264)"/>
      </g>
     </g>
    </g>
    <g id="xtick_4">
     <g id="line2d_4">
      <g>
       <use xlink:href="#ma50516707d" x="542.1454" y="498.237256" style="fill: #262626; stroke: #262626; stroke-width: 0.8"/>
      </g>
     </g>
     <g id="text_4">
      <!-- $\mathdefault{1500}$ -->
      <g style="fill: #262626" transform="translate(509.248256 530.143856) scale(0.36 -0.36)">
       <use xlink:href="#CMR17-31" transform="scale(0.996264)"/>
       <use xlink:href="#CMR17-35" transform="translate(45.690477 0) scale(0.996264)"/>
       <use xlink:href="#CMR17-30" transform="translate(91.380954 0) scale(0.996264)"/>
       <use xlink:href="#CMR17-30" transform="translate(137.071431 0) scale(0.996264)"/>
      </g>
     </g>
    </g>
    <g id="xtick_5">
     <g id="line2d_5">
      <g>
       <use xlink:href="#ma50516707d" x="693.349824" y="498.237256" style="fill: #262626; stroke: #262626; stroke-width: 0.8"/>
      </g>
     </g>
     <g id="text_5">
      <!-- $\mathdefault{2000}$ -->
      <g style="fill: #262626" transform="translate(660.452681 530.143856) scale(0.36 -0.36)">
       <defs>
        <path id="CMR17-32" d="M 2669 989 
L 2554 989 
C 2490 536 2438 459 2413 420 
C 2381 369 1920 369 1830 369 
L 602 369 
C 832 619 1280 1072 1824 1597 
C 2214 1967 2669 2402 2669 3035 
C 2669 3790 2067 4224 1395 4224 
C 691 4224 262 3604 262 3030 
C 262 2780 448 2748 525 2748 
C 589 2748 781 2787 781 3010 
C 781 3207 614 3264 525 3264 
C 486 3264 448 3258 422 3245 
C 544 3790 915 4058 1306 4058 
C 1862 4058 2227 3617 2227 3035 
C 2227 2479 1901 2000 1536 1584 
L 262 146 
L 262 0 
L 2515 0 
L 2669 989 
z
" transform="scale(0.015625)"/>
       </defs>
       <use xlink:href="#CMR17-32" transform="scale(0.996264)"/>
       <use xlink:href="#CMR17-30" transform="translate(45.690477 0) scale(0.996264)"/>
       <use xlink:href="#CMR17-30" transform="translate(91.380954 0) scale(0.996264)"/>
       <use xlink:href="#CMR17-30" transform="translate(137.071431 0) scale(0.996264)"/>
      </g>
     </g>
    </g>
    <g id="xtick_6">
     <g id="line2d_6">
      <g>
       <use xlink:href="#ma50516707d" x="844.554248" y="498.237256" style="fill: #262626; stroke: #262626; stroke-width: 0.8"/>
      </g>
     </g>
     <g id="text_6">
      <!-- $\mathdefault{2500}$ -->
      <g style="fill: #262626" transform="translate(811.657105 530.143856) scale(0.36 -0.36)">
       <use xlink:href="#CMR17-32" transform="scale(0.996264)"/>
       <use xlink:href="#CMR17-35" transform="translate(45.690477 0) scale(0.996264)"/>
       <use xlink:href="#CMR17-30" transform="translate(91.380954 0) scale(0.996264)"/>
       <use xlink:href="#CMR17-30" transform="translate(137.071431 0) scale(0.996264)"/>
      </g>
     </g>
    </g>
    <g id="xtick_7">
     <g id="line2d_7">
      <g>
       <use xlink:href="#ma50516707d" x="995.758673" y="498.237256" style="fill: #262626; stroke: #262626; stroke-width: 0.8"/>
      </g>
     </g>
     <g id="text_7">
      <!-- $\mathdefault{3000}$ -->
      <g style="fill: #262626" transform="translate(962.861529 530.143856) scale(0.36 -0.36)">
       <defs>
        <path id="CMR17-33" d="M 1414 2157 
C 1984 2157 2234 1662 2234 1090 
C 2234 320 1824 25 1453 25 
C 1114 25 563 194 390 693 
C 422 680 454 680 486 680 
C 640 680 755 782 755 948 
C 755 1133 614 1216 486 1216 
C 378 1216 211 1165 211 926 
C 211 335 787 -128 1466 -128 
C 2176 -128 2720 430 2720 1085 
C 2720 1707 2208 2157 1600 2227 
C 2086 2328 2554 2756 2554 3329 
C 2554 3820 2048 4179 1472 4179 
C 890 4179 378 3829 378 3329 
C 378 3110 544 3072 627 3072 
C 762 3072 877 3155 877 3321 
C 877 3486 762 3569 627 3569 
C 602 3569 570 3569 544 3557 
C 730 3959 1235 4032 1459 4032 
C 1683 4032 2106 3925 2106 3320 
C 2106 3143 2080 2828 1862 2550 
C 1670 2304 1453 2304 1242 2284 
C 1210 2284 1062 2269 1037 2269 
C 992 2263 966 2257 966 2208 
C 966 2163 973 2157 1101 2157 
L 1414 2157 
z
" transform="scale(0.015625)"/>
       </defs>
       <use xlink:href="#CMR17-33" transform="scale(0.996264)"/>
       <use xlink:href="#CMR17-30" transform="translate(45.690477 0) scale(0.996264)"/>
       <use xlink:href="#CMR17-30" transform="translate(91.380954 0) scale(0.996264)"/>
       <use xlink:href="#CMR17-30" transform="translate(137.071431 0) scale(0.996264)"/>
      </g>
     </g>
    </g>
   </g>
   <g id="matplotlib.axis_2">
    <g id="ytick_1">
     <g id="line2d_8">
      <defs>
       <path id="m4f7a122a79" d="M 0 0 
L -3.5 0 
" style="stroke: #262626; stroke-width: 0.8"/>
      </defs>
      <g>
       <use xlink:href="#m4f7a122a79" x="88.532127" y="477.604809" style="fill: #262626; stroke: #262626; stroke-width: 0.8"/>
      </g>
     </g>
     <g id="text_8">
      <!-- $\mathdefault{0.0}$ -->
      <g style="fill: #262626" transform="translate(38.88 490.058109) scale(0.36 -0.36)">
       <defs>
        <path id="CMMI12-3a" d="M 1178 307 
C 1178 492 1024 619 870 619 
C 685 619 557 466 557 313 
C 557 128 710 0 864 0 
C 1050 0 1178 153 1178 307 
z
" transform="scale(0.015625)"/>
       </defs>
       <use xlink:href="#CMR17-30" transform="scale(0.996264)"/>
       <use xlink:href="#CMMI12-3a" transform="translate(45.690477 0) scale(0.996264)"/>
       <use xlink:href="#CMR17-30" transform="translate(72.787654 0) scale(0.996264)"/>
      </g>
     </g>
    </g>
    <g id="ytick_2">
     <g id="line2d_9">
      <g>
       <use xlink:href="#m4f7a122a79" x="88.532127" y="394.035822" style="fill: #262626; stroke: #262626; stroke-width: 0.8"/>
      </g>
     </g>
     <g id="text_9">
      <!-- $\mathdefault{0.2}$ -->
      <g style="fill: #262626" transform="translate(38.88 406.489122) scale(0.36 -0.36)">
       <use xlink:href="#CMR17-30" transform="scale(0.996264)"/>
       <use xlink:href="#CMMI12-3a" transform="translate(45.690477 0) scale(0.996264)"/>
       <use xlink:href="#CMR17-32" transform="translate(72.787654 0) scale(0.996264)"/>
      </g>
     </g>
    </g>
    <g id="ytick_3">
     <g id="line2d_10">
      <g>
       <use xlink:href="#m4f7a122a79" x="88.532127" y="310.466835" style="fill: #262626; stroke: #262626; stroke-width: 0.8"/>
      </g>
     </g>
     <g id="text_10">
      <!-- $\mathdefault{0.4}$ -->
      <g style="fill: #262626" transform="translate(38.88 322.920135) scale(0.36 -0.36)">
       <defs>
        <path id="CMR17-34" d="M 2150 4122 
C 2150 4256 2144 4256 2029 4256 
L 128 1254 
L 128 1088 
L 1779 1088 
L 1779 457 
C 1779 224 1766 160 1318 160 
L 1197 160 
L 1197 0 
C 1402 0 1747 0 1965 0 
C 2182 0 2528 0 2733 0 
L 2733 160 
L 2611 160 
C 2163 160 2150 224 2150 457 
L 2150 1088 
L 2803 1088 
L 2803 1254 
L 2150 1254 
L 2150 4122 
z
M 1798 3703 
L 1798 1254 
L 256 1254 
L 1798 3703 
z
" transform="scale(0.015625)"/>
       </defs>
       <use xlink:href="#CMR17-30" transform="scale(0.996264)"/>
       <use xlink:href="#CMMI12-3a" transform="translate(45.690477 0) scale(0.996264)"/>
       <use xlink:href="#CMR17-34" transform="translate(72.787654 0) scale(0.996264)"/>
      </g>
     </g>
    </g>
    <g id="ytick_4">
     <g id="line2d_11">
      <g>
       <use xlink:href="#m4f7a122a79" x="88.532127" y="226.897849" style="fill: #262626; stroke: #262626; stroke-width: 0.8"/>
      </g>
     </g>
     <g id="text_11">
      <!-- $\mathdefault{0.6}$ -->
      <g style="fill: #262626" transform="translate(38.88 239.351149) scale(0.36 -0.36)">
       <defs>
        <path id="CMR17-36" d="M 678 2176 
C 678 3690 1395 4032 1811 4032 
C 1946 4032 2272 4009 2400 3776 
C 2298 3776 2106 3776 2106 3553 
C 2106 3381 2246 3323 2336 3323 
C 2394 3323 2566 3348 2566 3560 
C 2566 3954 2246 4179 1805 4179 
C 1043 4179 243 3390 243 1984 
C 243 253 966 -128 1478 -128 
C 2099 -128 2688 427 2688 1283 
C 2688 2081 2170 2662 1517 2662 
C 1126 2662 838 2407 678 1960 
L 678 2176 
z
M 1478 25 
C 691 25 691 1200 691 1436 
C 691 1896 909 2560 1504 2560 
C 1613 2560 1926 2560 2138 2120 
C 2253 1870 2253 1609 2253 1289 
C 2253 944 2253 690 2118 434 
C 1978 171 1773 25 1478 25 
z
" transform="scale(0.015625)"/>
       </defs>
       <use xlink:href="#CMR17-30" transform="scale(0.996264)"/>
       <use xlink:href="#CMMI12-3a" transform="translate(45.690477 0) scale(0.996264)"/>
       <use xlink:href="#CMR17-36" transform="translate(72.787654 0) scale(0.996264)"/>
      </g>
     </g>
    </g>
    <g id="ytick_5">
     <g id="line2d_12">
      <g>
       <use xlink:href="#m4f7a122a79" x="88.532127" y="143.328862" style="fill: #262626; stroke: #262626; stroke-width: 0.8"/>
      </g>
     </g>
     <g id="text_12">
      <!-- $\mathdefault{0.8}$ -->
      <g style="fill: #262626" transform="translate(38.88 155.782162) scale(0.36 -0.36)">
       <defs>
        <path id="CMR17-38" d="M 1741 2264 
C 2144 2467 2554 2773 2554 3263 
C 2554 3841 1990 4179 1472 4179 
C 890 4179 378 3759 378 3180 
C 378 3021 416 2747 666 2505 
C 730 2442 998 2251 1171 2130 
C 883 1983 211 1634 211 934 
C 211 279 838 -128 1459 -128 
C 2144 -128 2720 362 2720 1010 
C 2720 1590 2330 1857 2074 2029 
L 1741 2264 
z
M 902 2822 
C 851 2854 595 3051 595 3351 
C 595 3739 998 4032 1459 4032 
C 1965 4032 2336 3676 2336 3262 
C 2336 2669 1670 2331 1638 2331 
C 1632 2331 1626 2331 1574 2370 
L 902 2822 
z
M 2080 1519 
C 2176 1449 2483 1240 2483 851 
C 2483 381 2010 25 1472 25 
C 890 25 448 438 448 940 
C 448 1443 838 1862 1280 2060 
L 2080 1519 
z
" transform="scale(0.015625)"/>
       </defs>
       <use xlink:href="#CMR17-30" transform="scale(0.996264)"/>
       <use xlink:href="#CMMI12-3a" transform="translate(45.690477 0) scale(0.996264)"/>
       <use xlink:href="#CMR17-38" transform="translate(72.787654 0) scale(0.996264)"/>
      </g>
     </g>
    </g>
    <g id="ytick_6">
     <g id="line2d_13">
      <g>
       <use xlink:href="#m4f7a122a79" x="88.532127" y="59.759875" style="fill: #262626; stroke: #262626; stroke-width: 0.8"/>
      </g>
     </g>
     <g id="text_13">
      <!-- $\mathdefault{1.0}$ -->
      <g style="fill: #262626" transform="translate(38.88 72.213175) scale(0.36 -0.36)">
       <use xlink:href="#CMR17-31" transform="scale(0.996264)"/>
       <use xlink:href="#CMMI12-3a" transform="translate(45.690477 0) scale(0.996264)"/>
       <use xlink:href="#CMR17-30" transform="translate(72.787654 0) scale(0.996264)"/>
      </g>
     </g>
    </g>
   </g>
   <g id="line2d_14">
    <path d="M 88.532127 59.759875 
L 100.628481 84.874487 
L 106.676658 96.780149 
L 112.724835 108.201641 
L 118.773012 119.156804 
L 124.821189 129.671717 
L 130.869366 139.778203 
L 136.917543 149.488431 
L 142.96572 158.826421 
L 149.013897 167.815691 
L 155.062074 176.464512 
L 161.110251 184.79804 
L 167.158428 192.826097 
L 173.206605 200.564031 
L 179.254782 208.025756 
L 185.302959 215.222607 
L 191.351136 222.169301 
L 197.399313 228.877675 
L 203.44749 235.356918 
L 212.519755 244.676097 
L 221.592021 253.531444 
L 230.664286 261.95846 
L 239.736552 269.98724 
L 248.808817 277.648297 
L 257.881082 284.94956 
L 266.953348 291.917046 
L 276.025613 298.569823 
L 285.097879 304.927254 
L 294.170144 311.008605 
L 303.24241 316.827996 
L 312.314675 322.405154 
L 321.386941 327.746853 
L 330.459206 332.86838 
L 339.531472 337.780746 
L 348.603737 342.491208 
L 360.700091 348.479285 
L 372.796445 354.1531 
L 384.892799 359.537107 
L 396.989153 364.657349 
L 409.085507 369.527282 
L 421.181861 374.152886 
L 433.278215 378.552886 
L 445.374568 382.738163 
L 457.470922 386.700565 
L 469.567276 390.44088 
L 481.66363 393.978287 
L 493.759984 397.315994 
L 505.856338 400.456469 
L 520.976781 404.128328 
L 536.097223 407.539874 
L 551.217665 410.699116 
L 566.338108 413.64032 
L 581.45855 416.380562 
L 596.578993 418.911112 
L 614.723524 421.737381 
L 635.892143 424.761731 
L 654.036674 427.127946 
L 675.205293 429.655997 
L 699.398001 432.295545 
L 720.566621 434.397976 
L 750.807505 437.128374 
L 775.000213 439.059846 
L 808.265187 441.501931 
L 838.506072 443.463946 
L 874.795133 445.583239 
L 908.060107 447.320513 
L 947.373257 449.139354 
L 992.734584 451.030877 
L 995.758673 451.148247 
L 995.758673 451.148247 
" clip-path="url(#p3ec24bdd1f)" style="fill: none; stroke: #1f77b4; stroke-width: 5; stroke-linecap: round"/>
   </g>
   <g id="line2d_15">
    <path d="M 88.532127 59.759876 
L 94.580304 84.649167 
L 97.604393 96.576678 
L 100.628481 108.014124 
L 103.65257 118.988648 
L 106.676658 129.52501 
L 109.700747 139.646466 
L 115.748924 158.72437 
L 121.797101 176.390244 
L 127.845278 192.768688 
L 133.893455 207.984257 
L 139.941632 222.151147 
L 145.989808 235.356855 
L 152.037985 247.693806 
L 158.086162 259.225609 
L 164.134339 270.024293 
L 170.182516 280.153294 
L 176.230693 289.663983 
L 182.27887 298.61059 
L 188.327047 307.032363 
L 194.375224 314.967928 
L 200.423401 322.452652 
L 206.471578 329.523919 
L 212.519755 336.206384 
L 218.567932 342.52649 
L 224.616109 348.519517 
L 230.664286 354.203801 
L 236.712463 359.600054 
L 242.76064 364.726831 
L 248.808817 369.599608 
L 254.856994 374.23321 
L 260.905171 378.641133 
L 266.953348 382.832719 
L 273.001525 386.824681 
L 279.049702 390.631762 
L 288.121967 396.017535 
L 297.194233 401.050875 
L 306.266498 405.76249 
L 315.338764 410.153868 
L 324.411029 414.247528 
L 333.483295 418.09512 
L 342.55556 421.701917 
L 351.627825 425.054397 
L 360.700091 428.162001 
L 369.772356 431.020266 
L 378.844622 433.654908 
L 387.916887 436.090387 
L 396.989153 438.322385 
L 406.061418 440.355517 
L 418.157772 442.846845 
L 430.254126 445.105511 
L 442.35048 447.087441 
L 454.446834 448.866882 
L 469.567276 450.889247 
L 481.66363 452.327814 
L 499.808161 454.216872 
L 520.976781 456.178412 
L 539.121312 457.60564 
L 569.362196 459.656551 
L 587.506727 460.688587 
L 617.747612 462.209775 
L 647.988497 463.491786 
L 684.277559 464.784654 
L 723.590709 465.955138 
L 768.952036 467.073278 
L 820.361541 468.114442 
L 880.84331 469.102047 
L 950.397345 470.033906 
L 995.758673 470.53815 
L 995.758673 470.53815 
" clip-path="url(#p3ec24bdd1f)" style="fill: none; stroke: #ff7f0e; stroke-width: 5; stroke-linecap: round"/>
   </g>
   <g id="line2d_16">
    <path d="M 88.532127 59.759876 
L 94.580304 96.37362 
L 97.604393 113.384701 
L 100.628481 129.381028 
L 103.65257 144.436153 
L 106.676658 158.628158 
L 109.700747 172.0159 
L 112.724835 184.659021 
L 115.748924 196.624035 
L 118.773012 207.957459 
L 121.797101 218.68948 
L 124.821189 228.865335 
L 127.845278 238.523975 
L 130.869366 247.70181 
L 133.893455 256.433015 
L 136.917543 264.744984 
L 139.941632 272.662403 
L 142.96572 280.207488 
L 145.989808 287.400141 
L 149.013897 294.262794 
L 152.037985 300.815109 
L 155.062074 307.08048 
L 158.086162 313.082293 
L 161.110251 318.828643 
L 167.158428 329.593658 
L 173.206605 339.4934 
L 179.254782 348.610026 
L 185.302959 357.02868 
L 191.351136 364.810517 
L 197.399313 372.018602 
L 203.44749 378.708471 
L 209.495667 384.925506 
L 215.543844 390.713454 
L 221.592021 396.102063 
L 227.640198 401.130464 
L 233.688375 405.824222 
L 239.736552 410.213808 
L 245.784728 414.320875 
L 251.832905 418.169128 
L 257.881082 421.775765 
L 263.929259 425.15804 
L 269.977436 428.33051 
L 276.025613 431.312197 
L 282.07379 434.113368 
L 288.121967 436.74476 
L 294.170144 439.207016 
L 300.218321 441.498122 
L 306.266498 443.62085 
L 312.314675 445.582638 
L 318.362852 447.379267 
L 327.435118 449.80108 
L 336.507383 451.949164 
L 345.579648 453.847091 
L 354.651914 455.535036 
L 363.724179 457.030481 
L 375.820533 458.76947 
L 387.916887 460.262801 
L 403.03733 461.857614 
L 418.157772 463.216017 
L 436.302303 464.591358 
L 454.446834 465.733891 
L 481.66363 467.164657 
L 514.928604 468.49148 
L 545.169488 469.459913 
L 581.45855 470.388899 
L 623.795789 471.245036 
L 675.205293 472.053399 
L 738.711152 472.812888 
L 817.337452 473.512619 
L 914.108284 474.139854 
L 995.758673 474.539218 
L 995.758673 474.539218 
" clip-path="url(#p3ec24bdd1f)" style="fill: none; stroke: #2ca02c; stroke-width: 5; stroke-linecap: round"/>
   </g>
   <g id="line2d_17">
    <path d="M 88.532127 59.759877 
L 91.556216 84.19568 
L 94.580304 107.647611 
L 97.604393 129.231528 
L 100.628481 149.142557 
L 103.65257 167.548912 
L 106.676658 184.603888 
L 109.700747 200.428042 
L 112.724835 215.13825 
L 115.748924 228.846065 
L 118.773012 241.63325 
L 121.797101 253.58157 
L 124.821189 264.760127 
L 127.845278 275.232093 
L 130.869366 285.060389 
L 133.893455 294.296671 
L 136.917543 302.98609 
L 139.941632 311.17012 
L 142.96572 318.883441 
L 145.989808 326.164908 
L 149.013897 333.044765 
L 152.037985 339.547528 
L 155.062074 345.704361 
L 158.086162 351.54342 
L 161.110251 357.0837 
L 164.134339 362.345078 
L 167.158428 367.344673 
L 170.182516 372.096983 
L 173.206605 376.617769 
L 176.230693 380.917723 
L 179.254782 385.006699 
L 182.27887 388.906034 
L 188.327047 396.171526 
L 194.375224 402.80855 
L 200.423401 408.876319 
L 206.471578 414.39546 
L 212.519755 419.471583 
L 218.567932 424.133112 
L 224.616109 428.411073 
L 230.664286 432.344023 
L 236.712463 435.963291 
L 242.76064 439.297888 
L 248.808817 442.370132 
L 254.856994 445.202294 
L 260.905171 447.80377 
L 266.953348 450.164753 
L 273.001525 452.282842 
L 279.049702 454.174809 
L 285.097879 455.874587 
L 291.146056 457.422092 
L 297.194233 458.786369 
L 306.266498 460.544583 
L 315.338764 462.064809 
L 324.411029 463.370817 
L 333.483295 464.493226 
L 345.579648 465.776228 
L 360.700091 467.076509 
L 375.820533 468.150353 
L 393.965064 469.192606 
L 415.133684 470.170484 
L 439.326392 471.048434 
L 469.567276 471.906083 
L 505.856338 472.68749 
L 548.193577 473.372751 
L 602.62717 474.02115 
L 672.181205 474.612972 
L 762.903859 475.146827 
L 883.867399 475.622719 
L 995.758673 475.925395 
L 995.758673 475.925395 
" clip-path="url(#p3ec24bdd1f)" style="fill: none; stroke: #d62728; stroke-width: 5; stroke-linecap: round"/>
   </g>
   <g id="line2d_18">
    <path d="M 88.532127 59.759878 
L 91.556216 90.029918 
L 94.580304 118.497026 
L 97.604393 144.190237 
L 100.628481 167.461494 
L 103.65257 188.60549 
L 106.676658 207.887331 
L 109.700747 225.499169 
L 112.724835 241.637791 
L 115.748924 256.468961 
L 118.773012 270.122123 
L 121.797101 282.710581 
L 124.821189 294.345127 
L 127.845278 305.127085 
L 130.869366 315.144444 
L 133.893455 324.453788 
L 136.917543 333.115628 
L 139.941632 341.186065 
L 142.96572 348.732828 
L 145.989808 355.80963 
L 149.013897 362.441197 
L 152.037985 368.657286 
L 155.062074 374.471156 
L 158.086162 379.923107 
L 161.110251 385.055708 
L 164.134339 389.910263 
L 167.158428 394.509571 
L 170.182516 398.828329 
L 173.206605 402.894585 
L 176.230693 406.731352 
L 179.254782 410.366231 
L 182.27887 413.811694 
L 188.327047 420.157922 
L 191.351136 423.092845 
L 197.399313 428.464576 
L 203.44749 433.345456 
L 209.495667 437.727729 
L 215.543844 441.683562 
L 221.592021 445.272745 
L 227.640198 448.505702 
L 233.688375 451.426618 
L 239.736552 454.041777 
L 245.784728 456.340179 
L 251.832905 458.347504 
L 257.881082 460.094674 
L 263.929259 461.609716 
L 269.977436 462.92903 
L 276.025613 464.076379 
L 285.097879 465.531859 
L 294.170144 466.758061 
L 306.266498 468.064752 
L 318.362852 469.12396 
L 333.483295 470.174355 
L 351.627825 471.153453 
L 372.796445 472.027258 
L 396.989153 472.787886 
L 427.230038 473.497196 
L 466.543188 474.164276 
L 514.928604 474.743161 
L 581.45855 475.282721 
L 678.229382 475.79025 
L 802.21701 476.189372 
L 983.662319 476.535017 
L 995.758673 476.552926 
L 995.758673 476.552926 
" clip-path="url(#p3ec24bdd1f)" style="fill: none; stroke: #9467bd; stroke-width: 5; stroke-linecap: round"/>
   </g>
   <g id="line2d_19">
    <path d="M 88.532127 59.75988 
L 91.556216 95.759639 
L 94.580304 128.940398 
L 97.604393 158.324041 
L 100.628481 184.469634 
L 103.65257 207.84045 
L 106.676658 228.834477 
L 109.700747 247.719678 
L 112.724835 264.784182 
L 115.748924 280.296903 
L 118.773012 294.397389 
L 121.797101 307.259761 
L 124.821189 319.022318 
L 127.845278 329.799823 
L 130.869366 339.701623 
L 133.893455 348.827818 
L 136.917543 357.24769 
L 139.941632 365.033735 
L 142.96572 372.24888 
L 145.989808 378.940013 
L 149.013897 385.15815 
L 152.037985 390.94225 
L 155.062074 396.33101 
L 158.086162 401.358774 
L 161.110251 406.054894 
L 164.134339 410.443672 
L 167.158428 414.547609 
L 170.182516 418.39357 
L 173.206605 421.998819 
L 176.230693 425.37975 
L 179.254782 428.550249 
L 182.27887 431.525063 
L 185.302959 434.325175 
L 188.327047 436.962787 
L 191.351136 439.436307 
L 197.399313 443.928749 
L 203.44749 447.992637 
L 206.471578 449.814958 
L 212.519755 453.09367 
L 218.567932 456.051717 
L 224.616109 458.612528 
L 230.664286 460.786353 
L 236.712463 462.625727 
L 242.76064 464.190008 
L 248.808817 465.497054 
L 254.856994 466.626706 
L 263.929259 467.982122 
L 273.001525 469.086309 
L 282.07379 469.991706 
L 294.170144 470.942007 
L 309.290587 471.867468 
L 327.435118 472.701617 
L 348.603737 473.423294 
L 375.820533 474.099156 
L 409.085507 474.685399 
L 460.495011 475.292307 
L 517.952692 475.728897 
L 602.62717 476.142273 
L 723.590709 476.494889 
L 911.084195 476.79878 
L 995.758673 476.887511 
L 995.758673 476.887511 
" clip-path="url(#p3ec24bdd1f)" style="fill: none; stroke: #8c564b; stroke-width: 5; stroke-linecap: round"/>
   </g>
   <g id="line2d_20">
    <path d="M 88.532127 59.759881 
L 91.556216 101.382685 
L 94.580304 138.997591 
L 97.604393 171.692339 
L 100.628481 200.295806 
L 103.65257 225.447654 
L 106.676658 247.745363 
L 109.700747 267.522093 
L 112.724835 285.179759 
L 115.748924 301.02884 
L 118.773012 315.254819 
L 121.797101 328.140994 
L 124.821189 339.766641 
L 127.845278 350.357421 
L 130.869366 359.99309 
L 133.893455 368.792005 
L 136.917543 376.848868 
L 139.941632 384.240838 
L 142.96572 391.032003 
L 145.989808 397.282514 
L 149.013897 403.046613 
L 152.037985 408.365631 
L 155.062074 413.288145 
L 158.086162 417.851616 
L 161.110251 422.065338 
L 164.134339 425.995988 
L 167.158428 429.662809 
L 170.182516 433.0291 
L 173.206605 436.180064 
L 176.230693 439.105941 
L 179.254782 441.832472 
L 182.27887 444.374247 
L 188.327047 448.935418 
L 191.351136 450.98738 
L 197.399313 454.682181 
L 203.44749 457.888579 
L 209.495667 460.637122 
L 215.543844 462.92009 
L 221.592021 464.789216 
L 227.640198 466.317977 
L 233.688375 467.580822 
L 239.736552 468.624011 
L 248.808817 469.86853 
L 257.881082 470.841354 
L 269.977436 471.837022 
L 282.07379 472.594018 
L 297.194233 473.312749 
L 315.338764 473.953326 
L 339.531472 474.568269 
L 369.772356 475.104224 
L 412.109595 475.603336 
L 469.567276 476.034444 
L 551.217665 476.405312 
L 675.205293 476.724233 
L 874.795133 476.98953 
L 995.758673 477.085002 
L 995.758673 477.085002 
" clip-path="url(#p3ec24bdd1f)" style="fill: none; stroke: #e377c2; stroke-width: 5; stroke-linecap: round"/>
   </g>
   <g id="line2d_21">
    <path d="M 88.532127 59.759875 
L 91.556216 106.907715 
L 94.580304 148.685219 
L 97.604393 184.34694 
L 100.628481 215.042834 
L 103.65257 241.641042 
L 106.676658 264.846301 
L 109.700747 285.206159 
L 112.724835 303.202907 
L 115.748924 319.13448 
L 118.773012 333.31767 
L 121.797101 346.011152 
L 124.821189 357.4088 
L 127.845278 367.67015 
L 130.869366 376.930544 
L 133.893455 385.318736 
L 136.917543 392.944937 
L 139.941632 399.88827 
L 142.96572 406.212258 
L 145.989808 411.992292 
L 149.013897 417.276776 
L 152.037985 422.130431 
L 155.062074 426.592829 
L 158.086162 430.690013 
L 161.110251 434.455617 
L 164.134339 437.916758 
L 167.158428 441.104924 
L 170.182516 444.04538 
L 173.206605 446.762219 
L 176.230693 449.272519 
L 179.254782 451.582202 
L 182.27887 453.709068 
L 185.302959 455.673529 
L 188.327047 457.484107 
L 191.351136 459.154112 
L 194.375224 460.687391 
L 197.399313 462.086865 
L 200.423401 463.349259 
L 203.44749 464.481118 
L 209.495667 466.383143 
L 215.543844 467.897099 
L 221.592021 469.109422 
L 227.640198 470.084209 
L 236.712463 471.221975 
L 245.784728 472.076679 
L 254.856994 472.758657 
L 266.953348 473.449742 
L 282.07379 474.090844 
L 303.24241 474.725795 
L 330.459206 475.275509 
L 366.748268 475.754676 
L 418.157772 476.176185 
L 490.735896 476.52686 
L 602.62717 476.824756 
L 787.096567 477.0704 
L 995.758673 477.211338 
L 995.758673 477.211338 
" clip-path="url(#p3ec24bdd1f)" style="fill: none; stroke: #7f7f7f; stroke-width: 5; stroke-linecap: round"/>
   </g>
   <g id="line2d_22">
    <path d="M 88.532127 59.759875 
L 91.556216 112.33606 
L 94.580304 158.020587 
L 97.604393 196.339062 
L 100.628481 228.793814 
L 103.65257 256.533886 
L 106.676658 280.411444 
L 109.700747 301.112402 
L 112.724835 319.192619 
L 115.748924 335.051656 
L 118.773012 349.031838 
L 121.797101 361.432505 
L 124.821189 372.485484 
L 127.845278 382.350859 
L 130.869366 391.180522 
L 133.893455 399.127472 
L 136.917543 406.282332 
L 139.941632 412.758401 
L 142.96572 418.619114 
L 145.989808 423.930763 
L 149.013897 428.757895 
L 152.037985 433.147525 
L 155.062074 437.149071 
L 158.086162 440.790755 
L 161.110251 444.115393 
L 164.134339 447.149554 
L 167.158428 449.920592 
L 170.182516 452.462574 
L 173.206605 454.766665 
L 176.230693 456.858568 
L 179.254782 458.799186 
L 182.27887 460.557503 
L 185.302959 462.142137 
L 188.327047 463.590435 
L 191.351136 464.877958 
L 194.375224 466.005182 
L 197.399313 467.006978 
L 203.44749 468.648869 
L 209.495667 469.913778 
L 215.543844 470.902306 
L 224.616109 472.023529 
L 233.688375 472.859774 
L 245.784728 473.657577 
L 260.905171 474.363118 
L 279.049702 474.945308 
L 303.24241 475.465215 
L 336.507383 475.917982 
L 384.892799 476.33169 
L 454.446834 476.662512 
L 563.314019 476.936103 
L 750.807505 477.160994 
L 995.758673 477.296811 
L 995.758673 477.296811 
" clip-path="url(#p3ec24bdd1f)" style="fill: none; stroke: #bcbd22; stroke-width: 5; stroke-linecap: round"/>
   </g>
   <g id="line2d_23">
    <path d="M 88.532127 59.759875 
L 91.556216 117.667642 
L 94.580304 167.024696 
L 97.604393 207.71302 
L 100.628481 241.650378 
L 103.65257 270.26051 
L 106.676658 294.581675 
L 109.700747 315.433944 
L 112.724835 333.459716 
L 115.748924 349.114771 
L 118.773012 362.810856 
L 121.797101 374.850124 
L 124.821189 385.467405 
L 127.845278 394.883838 
L 130.869366 403.264205 
L 133.893455 410.752056 
L 136.917543 417.429373 
L 139.941632 423.416004 
L 142.96572 428.823743 
L 145.989808 433.67634 
L 149.013897 438.050801 
L 152.037985 441.995992 
L 155.062074 445.559799 
L 158.086162 448.77533 
L 161.110251 451.683095 
L 164.134339 454.313036 
L 167.158428 456.680418 
L 170.182516 458.836189 
L 173.206605 460.769776 
L 179.254782 464.087552 
L 182.27887 465.483566 
L 185.302959 466.696729 
L 188.327047 467.748144 
L 191.351136 468.658297 
L 197.399313 470.127816 
L 203.44749 471.234419 
L 209.495667 472.089984 
L 218.567932 473.041105 
L 227.640198 473.73392 
L 239.736552 474.399665 
L 254.856994 474.978885 
L 273.001525 475.455848 
L 300.218321 475.917655 
L 327.435118 476.223493 
L 369.772356 476.527102 
L 439.326392 476.817156 
L 557.265842 477.065149 
L 771.976125 477.262242 
L 995.758673 477.357381 
L 995.758673 477.357381 
" clip-path="url(#p3ec24bdd1f)" style="fill: none; stroke: #17becf; stroke-width: 5; stroke-linecap: round"/>
   </g>
   <g id="patch_3">
    <path d="M 88.532127 498.237256 
L 88.532127 38.88 
" style="fill: none; stroke: #262626; stroke-width: 0.8; stroke-linejoin: miter; stroke-linecap: square"/>
   </g>
   <g id="patch_4">
    <path d="M 88.532127 498.237256 
L 1041.12 498.237256 
" style="fill: none; stroke: #262626; stroke-width: 0.8; stroke-linejoin: miter; stroke-linecap: square"/>
   </g>
  </g>
 </g>
 <defs>
  <clipPath id="p3ec24bdd1f">
   <rect x="88.532127" y="38.88" width="952.587873" height="459.357256"/>
  </clipPath>
 </defs>
</svg>
