<?xml version="1.0" encoding="utf-8" standalone="no"?>
<!DOCTYPE svg PUBLIC "-//W3C//DTD SVG 1.1//EN"
  "http://www.w3.org/Graphics/SVG/1.1/DTD/svg11.dtd">
<svg xmlns:xlink="http://www.w3.org/1999/xlink" width="1080pt" height="756pt" viewBox="0 0 1080 756" xmlns="http://www.w3.org/2000/svg" version="1.1">
 <metadata>
  <rdf:RDF xmlns:dc="http://purl.org/dc/elements/1.1/" xmlns:cc="http://creativecommons.org/ns#" xmlns:rdf="http://www.w3.org/1999/02/22-rdf-syntax-ns#">
   <cc:Work>
    <dc:type rdf:resource="http://purl.org/dc/dcmitype/StillImage"/>
    <dc:date>2024-07-30T18:45:27.518435</dc:date>
    <dc:format>image/svg+xml</dc:format>
    <dc:creator>
     <cc:Agent>
      <dc:title>Matplotlib v3.9.0, https://matplotlib.org/</dc:title>
     </cc:Agent>
    </dc:creator>
   </cc:Work>
  </rdf:RDF>
 </metadata>
 <defs>
  <style type="text/css">*{stroke-linejoin: round; stroke-linecap: butt}</style>
 </defs>
 <g id="figure_1">
  <g id="patch_1">
   <path d="M 0 756 
L 1080 756 
L 1080 0 
L 0 0 
z
" style="fill: #ffffff"/>
  </g>
  <g id="axes_1">
   <g id="patch_2">
    <path d="M 88.532127 678.237256 
L 1041.12 678.237256 
L 1041.12 38.88 
L 88.532127 38.88 
z
" style="fill: #ffffff"/>
   </g>
   <g id="matplotlib.axis_1">
    <g id="xtick_1">
     <g id="line2d_1">
      <defs>
       <path id="mc220a7f285" d="M 0 0 
L 0 3.5 
" style="stroke: #262626; stroke-width: 0.8"/>
      </defs>
      <g>
       <use xlink:href="#mc220a7f285" x="88.532127" y="678.237256" style="fill: #262626; stroke: #262626; stroke-width: 0.8"/>
      </g>
     </g>
     <g id="text_1">
      <!-- $\mathdefault{0}$ -->
      <g style="fill: #262626" transform="translate(80.307841 710.143856) scale(0.36 -0.36)">
       <defs>
        <path id="CMR17-30" d="M 2688 2025 
C 2688 2416 2682 3080 2413 3591 
C 2176 4039 1798 4198 1466 4198 
C 1158 4198 768 4058 525 3597 
C 269 3118 243 2524 243 2025 
C 243 1661 250 1106 448 619 
C 723 -39 1216 -128 1466 -128 
C 1760 -128 2208 -7 2470 600 
C 2662 1042 2688 1559 2688 2025 
z
M 1466 -26 
C 1056 -26 813 325 723 812 
C 653 1188 653 1738 653 2096 
C 653 2588 653 2997 736 3387 
C 858 3929 1216 4096 1466 4096 
C 1728 4096 2067 3923 2189 3400 
C 2272 3036 2278 2607 2278 2096 
C 2278 1680 2278 1169 2202 792 
C 2067 95 1690 -26 1466 -26 
z
" transform="scale(0.015625)"/>
       </defs>
       <use xlink:href="#CMR17-30" transform="scale(0.996264)"/>
      </g>
     </g>
    </g>
    <g id="xtick_2">
     <g id="line2d_2">
      <g>
       <use xlink:href="#mc220a7f285" x="239.736552" y="678.237256" style="fill: #262626; stroke: #262626; stroke-width: 0.8"/>
      </g>
     </g>
     <g id="text_2">
      <!-- $\mathdefault{500}$ -->
      <g style="fill: #262626" transform="translate(215.063694 710.143856) scale(0.36 -0.36)">
       <defs>
        <path id="CMR17-35" d="M 730 3692 
C 794 3666 1056 3584 1325 3584 
C 1920 3584 2246 3911 2432 4100 
C 2432 4157 2432 4192 2394 4192 
C 2387 4192 2374 4192 2323 4163 
C 2099 4058 1837 3973 1517 3973 
C 1325 3973 1037 3999 723 4139 
C 653 4171 640 4171 634 4171 
C 602 4171 595 4164 595 4037 
L 595 2203 
C 595 2089 595 2057 659 2057 
C 691 2057 704 2070 736 2114 
C 941 2401 1222 2522 1542 2522 
C 1766 2522 2246 2382 2246 1289 
C 2246 1085 2246 715 2054 421 
C 1894 159 1645 25 1370 25 
C 947 25 518 320 403 814 
C 429 807 480 795 506 795 
C 589 795 749 840 749 1038 
C 749 1210 627 1280 506 1280 
C 358 1280 262 1190 262 1011 
C 262 454 704 -128 1382 -128 
C 2042 -128 2669 440 2669 1264 
C 2669 2030 2170 2624 1549 2624 
C 1222 2624 947 2503 730 2274 
L 730 3692 
z
" transform="scale(0.015625)"/>
       </defs>
       <use xlink:href="#CMR17-35" transform="scale(0.996264)"/>
       <use xlink:href="#CMR17-30" transform="translate(45.690477 0) scale(0.996264)"/>
       <use xlink:href="#CMR17-30" transform="translate(91.380954 0) scale(0.996264)"/>
      </g>
     </g>
    </g>
    <g id="xtick_3">
     <g id="line2d_3">
      <g>
       <use xlink:href="#mc220a7f285" x="390.940976" y="678.237256" style="fill: #262626; stroke: #262626; stroke-width: 0.8"/>
      </g>
     </g>
     <g id="text_3">
      <!-- $\mathdefault{1000}$ -->
      <g style="fill: #262626" transform="translate(358.043832 710.143856) scale(0.36 -0.36)">
       <defs>
        <path id="CMR17-31" d="M 1702 4058 
C 1702 4192 1696 4192 1606 4192 
C 1357 3916 979 3827 621 3827 
C 602 3827 570 3827 563 3808 
C 557 3795 557 3782 557 3648 
C 755 3648 1088 3686 1344 3839 
L 1344 461 
C 1344 236 1331 160 781 160 
L 589 160 
L 589 0 
C 896 0 1216 0 1523 0 
C 1830 0 2150 0 2458 0 
L 2458 160 
L 2266 160 
C 1715 160 1702 230 1702 458 
L 1702 4058 
z
" transform="scale(0.015625)"/>
       </defs>
       <use xlink:href="#CMR17-31" transform="scale(0.996264)"/>
       <use xlink:href="#CMR17-30" transform="translate(45.690477 0) scale(0.996264)"/>
       <use xlink:href="#CMR17-30" transform="translate(91.380954 0) scale(0.996264)"/>
       <use xlink:href="#CMR17-30" transform="translate(137.071431 0) scale(0.996264)"/>
      </g>
     </g>
    </g>
    <g id="xtick_4">
     <g id="line2d_4">
      <g>
       <use xlink:href="#mc220a7f285" x="542.1454" y="678.237256" style="fill: #262626; stroke: #262626; stroke-width: 0.8"/>
      </g>
     </g>
     <g id="text_4">
      <!-- $\mathdefault{1500}$ -->
      <g style="fill: #262626" transform="translate(509.248256 710.143856) scale(0.36 -0.36)">
       <use xlink:href="#CMR17-31" transform="scale(0.996264)"/>
       <use xlink:href="#CMR17-35" transform="translate(45.690477 0) scale(0.996264)"/>
       <use xlink:href="#CMR17-30" transform="translate(91.380954 0) scale(0.996264)"/>
       <use xlink:href="#CMR17-30" transform="translate(137.071431 0) scale(0.996264)"/>
      </g>
     </g>
    </g>
    <g id="xtick_5">
     <g id="line2d_5">
      <g>
       <use xlink:href="#mc220a7f285" x="693.349824" y="678.237256" style="fill: #262626; stroke: #262626; stroke-width: 0.8"/>
      </g>
     </g>
     <g id="text_5">
      <!-- $\mathdefault{2000}$ -->
      <g style="fill: #262626" transform="translate(660.452681 710.143856) scale(0.36 -0.36)">
       <defs>
        <path id="CMR17-32" d="M 2669 989 
L 2554 989 
C 2490 536 2438 459 2413 420 
C 2381 369 1920 369 1830 369 
L 602 369 
C 832 619 1280 1072 1824 1597 
C 2214 1967 2669 2402 2669 3035 
C 2669 3790 2067 4224 1395 4224 
C 691 4224 262 3604 262 3030 
C 262 2780 448 2748 525 2748 
C 589 2748 781 2787 781 3010 
C 781 3207 614 3264 525 3264 
C 486 3264 448 3258 422 3245 
C 544 3790 915 4058 1306 4058 
C 1862 4058 2227 3617 2227 3035 
C 2227 2479 1901 2000 1536 1584 
L 262 146 
L 262 0 
L 2515 0 
L 2669 989 
z
" transform="scale(0.015625)"/>
       </defs>
       <use xlink:href="#CMR17-32" transform="scale(0.996264)"/>
       <use xlink:href="#CMR17-30" transform="translate(45.690477 0) scale(0.996264)"/>
       <use xlink:href="#CMR17-30" transform="translate(91.380954 0) scale(0.996264)"/>
       <use xlink:href="#CMR17-30" transform="translate(137.071431 0) scale(0.996264)"/>
      </g>
     </g>
    </g>
    <g id="xtick_6">
     <g id="line2d_6">
      <g>
       <use xlink:href="#mc220a7f285" x="844.554248" y="678.237256" style="fill: #262626; stroke: #262626; stroke-width: 0.8"/>
      </g>
     </g>
     <g id="text_6">
      <!-- $\mathdefault{2500}$ -->
      <g style="fill: #262626" transform="translate(811.657105 710.143856) scale(0.36 -0.36)">
       <use xlink:href="#CMR17-32" transform="scale(0.996264)"/>
       <use xlink:href="#CMR17-35" transform="translate(45.690477 0) scale(0.996264)"/>
       <use xlink:href="#CMR17-30" transform="translate(91.380954 0) scale(0.996264)"/>
       <use xlink:href="#CMR17-30" transform="translate(137.071431 0) scale(0.996264)"/>
      </g>
     </g>
    </g>
    <g id="xtick_7">
     <g id="line2d_7">
      <g>
       <use xlink:href="#mc220a7f285" x="995.758673" y="678.237256" style="fill: #262626; stroke: #262626; stroke-width: 0.8"/>
      </g>
     </g>
     <g id="text_7">
      <!-- $\mathdefault{3000}$ -->
      <g style="fill: #262626" transform="translate(962.861529 710.143856) scale(0.36 -0.36)">
       <defs>
        <path id="CMR17-33" d="M 1414 2157 
C 1984 2157 2234 1662 2234 1090 
C 2234 320 1824 25 1453 25 
C 1114 25 563 194 390 693 
C 422 680 454 680 486 680 
C 640 680 755 782 755 948 
C 755 1133 614 1216 486 1216 
C 378 1216 211 1165 211 926 
C 211 335 787 -128 1466 -128 
C 2176 -128 2720 430 2720 1085 
C 2720 1707 2208 2157 1600 2227 
C 2086 2328 2554 2756 2554 3329 
C 2554 3820 2048 4179 1472 4179 
C 890 4179 378 3829 378 3329 
C 378 3110 544 3072 627 3072 
C 762 3072 877 3155 877 3321 
C 877 3486 762 3569 627 3569 
C 602 3569 570 3569 544 3557 
C 730 3959 1235 4032 1459 4032 
C 1683 4032 2106 3925 2106 3320 
C 2106 3143 2080 2828 1862 2550 
C 1670 2304 1453 2304 1242 2284 
C 1210 2284 1062 2269 1037 2269 
C 992 2263 966 2257 966 2208 
C 966 2163 973 2157 1101 2157 
L 1414 2157 
z
" transform="scale(0.015625)"/>
       </defs>
       <use xlink:href="#CMR17-33" transform="scale(0.996264)"/>
       <use xlink:href="#CMR17-30" transform="translate(45.690477 0) scale(0.996264)"/>
       <use xlink:href="#CMR17-30" transform="translate(91.380954 0) scale(0.996264)"/>
       <use xlink:href="#CMR17-30" transform="translate(137.071431 0) scale(0.996264)"/>
      </g>
     </g>
    </g>
   </g>
   <g id="matplotlib.axis_2">
    <g id="ytick_1">
     <g id="line2d_8">
      <defs>
       <path id="m92fa4f73fe" d="M 0 0 
L -3.5 0 
" style="stroke: #262626; stroke-width: 0.8"/>
      </defs>
      <g>
       <use xlink:href="#m92fa4f73fe" x="88.532127" y="649.402996" style="fill: #262626; stroke: #262626; stroke-width: 0.8"/>
      </g>
     </g>
     <g id="text_8">
      <!-- $\mathdefault{0.0}$ -->
      <g style="fill: #262626" transform="translate(38.88 661.856296) scale(0.36 -0.36)">
       <defs>
        <path id="CMMI12-3a" d="M 1178 307 
C 1178 492 1024 619 870 619 
C 685 619 557 466 557 313 
C 557 128 710 0 864 0 
C 1050 0 1178 153 1178 307 
z
" transform="scale(0.015625)"/>
       </defs>
       <use xlink:href="#CMR17-30" transform="scale(0.996264)"/>
       <use xlink:href="#CMMI12-3a" transform="translate(45.690477 0) scale(0.996264)"/>
       <use xlink:href="#CMR17-30" transform="translate(72.787654 0) scale(0.996264)"/>
      </g>
     </g>
    </g>
    <g id="ytick_2">
     <g id="line2d_9">
      <g>
       <use xlink:href="#m92fa4f73fe" x="88.532127" y="504.03767" style="fill: #262626; stroke: #262626; stroke-width: 0.8"/>
      </g>
     </g>
     <g id="text_9">
      <!-- $\mathdefault{0.5}$ -->
      <g style="fill: #262626" transform="translate(38.88 516.49097) scale(0.36 -0.36)">
       <use xlink:href="#CMR17-30" transform="scale(0.996264)"/>
       <use xlink:href="#CMMI12-3a" transform="translate(45.690477 0) scale(0.996264)"/>
       <use xlink:href="#CMR17-35" transform="translate(72.787654 0) scale(0.996264)"/>
      </g>
     </g>
    </g>
    <g id="ytick_3">
     <g id="line2d_10">
      <g>
       <use xlink:href="#m92fa4f73fe" x="88.532127" y="358.672345" style="fill: #262626; stroke: #262626; stroke-width: 0.8"/>
      </g>
     </g>
     <g id="text_10">
      <!-- $\mathdefault{1.0}$ -->
      <g style="fill: #262626" transform="translate(38.88 371.125645) scale(0.36 -0.36)">
       <use xlink:href="#CMR17-31" transform="scale(0.996264)"/>
       <use xlink:href="#CMMI12-3a" transform="translate(45.690477 0) scale(0.996264)"/>
       <use xlink:href="#CMR17-30" transform="translate(72.787654 0) scale(0.996264)"/>
      </g>
     </g>
    </g>
    <g id="ytick_4">
     <g id="line2d_11">
      <g>
       <use xlink:href="#m92fa4f73fe" x="88.532127" y="213.307019" style="fill: #262626; stroke: #262626; stroke-width: 0.8"/>
      </g>
     </g>
     <g id="text_11">
      <!-- $\mathdefault{1.5}$ -->
      <g style="fill: #262626" transform="translate(38.88 225.760319) scale(0.36 -0.36)">
       <use xlink:href="#CMR17-31" transform="scale(0.996264)"/>
       <use xlink:href="#CMMI12-3a" transform="translate(45.690477 0) scale(0.996264)"/>
       <use xlink:href="#CMR17-35" transform="translate(72.787654 0) scale(0.996264)"/>
      </g>
     </g>
    </g>
    <g id="ytick_5">
     <g id="line2d_12">
      <g>
       <use xlink:href="#m92fa4f73fe" x="88.532127" y="67.941693" style="fill: #262626; stroke: #262626; stroke-width: 0.8"/>
      </g>
     </g>
     <g id="text_12">
      <!-- $\mathdefault{2.0}$ -->
      <g style="fill: #262626" transform="translate(38.88 80.394994) scale(0.36 -0.36)">
       <use xlink:href="#CMR17-32" transform="scale(0.996264)"/>
       <use xlink:href="#CMMI12-3a" transform="translate(45.690477 0) scale(0.996264)"/>
       <use xlink:href="#CMR17-30" transform="translate(72.787654 0) scale(0.996264)"/>
      </g>
     </g>
    </g>
   </g>
   <g id="line2d_13">
    <path d="M 88.532127 591.256866 
L 97.604393 595.663141 
L 103.65257 598.371147 
L 109.700747 600.880017 
L 115.748924 603.208908 
L 124.821189 606.400144 
L 133.893455 609.273238 
L 142.96572 611.866134 
L 152.037985 614.223567 
L 161.110251 616.355228 
L 173.206605 618.920984 
L 185.302959 621.207764 
L 197.399313 623.236365 
L 209.495667 625.05943 
L 224.616109 627.083608 
L 239.736552 628.866006 
L 254.856994 630.445802 
L 273.001525 632.107631 
L 294.170144 633.801648 
L 315.338764 635.24838 
L 339.531472 636.679267 
L 366.748268 638.042804 
L 396.989153 639.322126 
L 430.254126 640.497011 
L 466.543188 641.562399 
L 508.880427 642.585708 
L 557.265842 643.529614 
L 614.723524 644.418828 
L 681.25347 645.213273 
L 753.831594 645.850477 
L 850.602425 646.4667 
L 971.565965 646.998811 
L 995.758673 647.083584 
L 995.758673 647.083584 
" clip-path="url(#p25cbe0536a)" style="fill: none; stroke: #1f77b4; stroke-width: 5; stroke-linecap: round"/>
   </g>
   <g id="line2d_14">
    <path d="M 88.532127 533.110736 
L 94.580304 543.617488 
L 97.604393 548.460132 
L 100.628481 552.981592 
L 103.65257 557.210099 
L 106.676658 561.170253 
L 109.700747 564.885855 
L 112.724835 568.372238 
L 115.748924 571.650319 
L 118.773012 574.741498 
L 121.797101 577.659003 
L 124.821189 580.408333 
L 130.869366 585.456822 
L 136.917543 589.979087 
L 142.96572 594.059701 
L 149.013897 597.736255 
L 155.062074 601.070441 
L 161.110251 604.100594 
L 167.158428 606.863335 
L 173.206605 609.390227 
L 179.254782 611.703834 
L 185.302959 613.828522 
L 191.351136 615.784898 
L 200.423401 618.442954 
L 209.495667 620.810611 
L 218.567932 622.927675 
L 227.640198 624.830961 
L 236.712463 626.548049 
L 248.808817 628.586017 
L 260.905171 630.370198 
L 273.001525 631.957139 
L 288.121967 633.697337 
L 303.24241 635.196724 
L 321.386941 636.761491 
L 339.531472 638.093419 
L 363.724179 639.60819 
L 387.916887 640.846747 
L 415.133684 642.037513 
L 445.374568 643.091632 
L 478.639542 644.018052 
L 514.928604 644.801101 
L 560.289931 645.539958 
L 617.747612 646.222086 
L 687.301647 646.788977 
L 775.000213 647.283174 
L 895.963753 647.72986 
L 995.758673 647.980906 
L 995.758673 647.980906 
" clip-path="url(#p25cbe0536a)" style="fill: none; stroke: #ff7f0e; stroke-width: 5; stroke-linecap: round"/>
   </g>
   <g id="line2d_15">
    <path d="M 88.532127 474.964606 
L 91.556216 485.777327 
L 94.580304 496.085003 
L 97.604393 505.477774 
L 100.628481 514.059064 
L 103.65257 521.92057 
L 106.676658 529.136703 
L 109.700747 535.784597 
L 112.724835 541.917928 
L 115.748924 547.590959 
L 118.773012 552.842493 
L 121.797101 557.720224 
L 124.821189 562.252423 
L 127.845278 566.476918 
L 130.869366 570.416475 
L 133.893455 574.099537 
L 136.917543 577.542746 
L 139.941632 580.771066 
L 142.96572 583.808703 
L 145.989808 586.661331 
L 149.013897 589.337054 
L 155.062074 594.230884 
L 161.110251 598.622812 
L 167.158428 602.520475 
L 173.206605 606.054007 
L 179.254782 609.221115 
L 185.302959 612.095334 
L 191.351136 614.701947 
L 197.399313 617.066452 
L 203.44749 619.232162 
L 209.495667 621.215123 
L 218.567932 623.889581 
L 227.640198 626.252452 
L 236.712463 628.346153 
L 245.784728 630.211619 
L 254.856994 631.879443 
L 266.953348 633.841247 
L 279.049702 635.548 
L 291.146056 637.040883 
L 306.266498 638.655247 
L 321.386941 640.033378 
L 336.507383 641.195489 
L 354.651914 642.341373 
L 372.796445 643.257326 
L 393.965064 644.104891 
L 418.157772 644.855282 
L 448.398657 645.562334 
L 484.687719 646.184295 
L 530.049046 646.739482 
L 590.530816 647.247912 
L 672.181205 647.69783 
L 787.096567 648.09113 
L 956.445522 648.427857 
L 995.758673 648.482887 
L 995.758673 648.482887 
" clip-path="url(#p25cbe0536a)" style="fill: none; stroke: #2ca02c; stroke-width: 5; stroke-linecap: round"/>
   </g>
   <g id="line2d_16">
    <path d="M 88.532127 416.818476 
L 91.556216 434.321222 
L 94.580304 450.683768 
L 97.604393 465.342798 
L 100.628481 478.528589 
L 103.65257 490.431743 
L 106.676658 501.222989 
L 109.700747 511.022092 
L 112.724835 519.953269 
L 115.748924 528.121047 
L 118.773012 535.605076 
L 121.797101 542.473314 
L 124.821189 548.79328 
L 127.845278 554.628755 
L 130.869366 560.029415 
L 133.893455 565.031853 
L 136.917543 569.674449 
L 139.941632 573.992212 
L 142.96572 578.014646 
L 145.989808 581.76518 
L 149.013897 585.269464 
L 152.037985 588.547636 
L 155.062074 591.618355 
L 158.086162 594.498605 
L 161.110251 597.204595 
L 164.134339 599.750197 
L 170.182516 604.408054 
L 176.230693 608.552006 
L 182.27887 612.251057 
L 188.327047 615.562916 
L 194.375224 618.55594 
L 200.423401 621.251189 
L 206.471578 623.67677 
L 212.519755 625.878196 
L 218.567932 627.877122 
L 224.616109 629.698133 
L 233.688375 632.126326 
L 242.76064 634.250028 
L 251.832905 636.099056 
L 260.905171 637.724688 
L 269.977436 639.087785 
L 279.049702 640.277905 
L 288.121967 641.252539 
L 300.218321 642.326929 
L 312.314675 643.190206 
L 327.435118 644.042203 
L 345.579648 644.820188 
L 366.748268 645.504489 
L 393.965064 646.147316 
L 430.254126 646.745971 
L 475.615453 647.252264 
L 539.121312 647.709051 
L 638.916232 648.142913 
L 775.000213 648.47124 
L 989.710496 648.744969 
L 995.758673 648.750405 
L 995.758673 648.750405 
" clip-path="url(#p25cbe0536a)" style="fill: none; stroke: #d62728; stroke-width: 5; stroke-linecap: round"/>
   </g>
   <g id="line2d_17">
    <path d="M 88.532127 358.672348 
L 91.556216 383.720476 
L 94.580304 406.807183 
L 97.604393 427.251911 
L 100.628481 445.443648 
L 103.65257 461.704734 
L 106.676658 476.312084 
L 109.700747 489.452142 
L 112.724835 501.325385 
L 115.748924 512.118919 
L 118.773012 521.92984 
L 121.797101 530.879298 
L 124.821189 539.063521 
L 127.845278 546.562357 
L 130.869366 553.451891 
L 133.893455 559.80177 
L 136.917543 565.660199 
L 139.941632 571.07762 
L 142.96572 576.097817 
L 145.989808 580.753413 
L 149.013897 585.079906 
L 152.037985 589.104402 
L 155.062074 592.853825 
L 158.086162 596.352073 
L 161.110251 599.619568 
L 164.134339 602.673218 
L 167.158428 605.52868 
L 170.182516 608.204646 
L 173.206605 610.713128 
L 176.230693 613.065532 
L 182.27887 617.341354 
L 188.327047 621.124847 
L 194.375224 624.456841 
L 200.423401 627.4167 
L 206.471578 630.067207 
L 212.519755 632.348489 
L 218.567932 634.406656 
L 224.616109 636.188433 
L 230.664286 637.70095 
L 236.712463 638.98076 
L 242.76064 640.069165 
L 251.832905 641.389512 
L 260.905171 642.41779 
L 273.001525 643.475943 
L 285.097879 644.28797 
L 300.218321 645.04787 
L 318.362852 645.722492 
L 339.531472 646.296384 
L 366.748268 646.825554 
L 406.061418 647.341107 
L 463.519099 647.813797 
L 542.1454 648.195178 
L 657.060762 648.512557 
L 844.554248 648.781631 
L 995.758673 648.90391 
L 995.758673 648.90391 
" clip-path="url(#p25cbe0536a)" style="fill: none; stroke: #9467bd; stroke-width: 5; stroke-linecap: round"/>
   </g>
   <g id="line2d_18">
    <path d="M 88.532127 300.52622 
L 91.556216 333.740601 
L 94.580304 364.06715 
L 97.604393 390.727329 
L 100.628481 414.294409 
L 103.65257 435.219245 
L 106.676658 453.923161 
L 109.700747 470.6553 
L 112.724835 485.707167 
L 115.748924 499.305928 
L 118.773012 511.59543 
L 121.797101 522.781741 
L 124.821189 532.939932 
L 127.845278 542.229395 
L 130.869366 550.719227 
L 133.893455 558.500587 
L 136.917543 565.648646 
L 139.941632 572.22284 
L 142.96572 578.275146 
L 145.989808 583.853726 
L 149.013897 589.002288 
L 152.037985 593.754775 
L 155.062074 598.151886 
L 158.086162 602.220997 
L 161.110251 605.971115 
L 164.134339 609.459935 
L 167.158428 612.696462 
L 170.182516 615.676192 
L 173.206605 618.436294 
L 176.230693 620.989851 
L 179.254782 623.351604 
L 182.27887 625.536051 
L 185.302959 627.551864 
L 188.327047 629.409329 
L 191.351136 631.124771 
L 194.375224 632.687451 
L 197.399313 634.09388 
L 200.423401 635.347056 
L 203.44749 636.46228 
L 209.495667 638.330643 
L 215.543844 639.808935 
L 221.592021 640.988503 
L 230.664286 642.361387 
L 242.76064 643.636235 
L 254.856994 644.555982 
L 266.953348 645.236241 
L 282.07379 645.868816 
L 300.218321 646.413983 
L 327.435118 646.993682 
L 360.700091 647.458919 
L 406.061418 647.867732 
L 472.591365 648.232675 
L 560.289931 648.512151 
L 714.518444 648.779188 
L 983.662319 648.993737 
L 995.758673 648.999978 
L 995.758673 648.999978 
" clip-path="url(#p25cbe0536a)" style="fill: none; stroke: #8c564b; stroke-width: 5; stroke-linecap: round"/>
   </g>
   <g id="line2d_19">
    <path d="M 88.532127 242.380084 
L 91.556216 284.226349 
L 94.580304 322.216585 
L 97.604393 355.50214 
L 100.628481 384.829103 
L 103.65257 410.805645 
L 106.676658 433.921438 
L 109.700747 454.573401 
L 112.724835 473.096433 
L 115.748924 489.766687 
L 118.773012 504.810232 
L 121.797101 518.420439 
L 124.821189 530.773643 
L 127.845278 542.010217 
L 130.869366 552.217503 
L 133.893455 561.506088 
L 136.917543 570.000484 
L 139.941632 577.743481 
L 142.96572 584.800469 
L 145.989808 591.241628 
L 149.013897 597.116757 
L 152.037985 602.474059 
L 155.062074 607.355149 
L 158.086162 611.780726 
L 161.110251 615.801376 
L 164.134339 619.469601 
L 167.158428 622.756709 
L 170.182516 625.727283 
L 173.206605 628.402098 
L 176.230693 630.758705 
L 179.254782 632.805219 
L 182.27887 634.550192 
L 185.302959 636.031859 
L 188.327047 637.300721 
L 191.351136 638.396965 
L 194.375224 639.329824 
L 200.423401 640.834685 
L 206.471578 641.986657 
L 212.519755 642.887894 
L 221.592021 643.916089 
L 230.664286 644.678526 
L 242.76064 645.429507 
L 257.881082 646.097601 
L 276.025613 646.66061 
L 300.218321 647.173625 
L 333.483295 647.633319 
L 381.86871 648.045116 
L 445.374568 648.36546 
L 551.217665 648.6594 
L 726.614798 648.897106 
L 995.758673 649.06519 
L 995.758673 649.06519 
" clip-path="url(#p25cbe0536a)" style="fill: none; stroke: #e377c2; stroke-width: 5; stroke-linecap: round"/>
   </g>
   <g id="line2d_20">
    <path d="M 88.532127 184.233954 
L 91.556216 235.066316 
L 94.580304 281.11636 
L 97.604393 321.451457 
L 100.628481 356.981162 
L 103.65257 388.443822 
L 106.676658 416.426709 
L 109.700747 441.412574 
L 112.724835 463.797818 
L 115.748924 483.908523 
L 118.773012 502.013451 
L 121.797101 518.345568 
L 124.821189 533.068977 
L 127.845278 546.400716 
L 130.869366 558.385901 
L 133.893455 569.218781 
L 136.917543 578.955076 
L 139.941632 587.719049 
L 142.96572 595.572561 
L 145.989808 602.590553 
L 149.013897 608.839014 
L 152.037985 614.380005 
L 155.062074 619.27315 
L 158.086162 623.568469 
L 161.110251 627.279583 
L 164.134339 630.394775 
L 167.158428 632.941729 
L 170.182516 634.99522 
L 173.206605 636.684427 
L 176.230693 638.070774 
L 179.254782 639.205991 
L 182.27887 640.16662 
L 185.302959 640.977534 
L 191.351136 642.260465 
L 197.399313 643.22647 
L 203.44749 643.97571 
L 212.519755 644.823426 
L 221.592021 645.45116 
L 233.688375 646.069976 
L 248.808817 646.62143 
L 269.977436 647.148882 
L 297.194233 647.595047 
L 333.483295 647.974017 
L 387.916887 648.319393 
L 490.735896 648.659686 
L 644.964408 648.898891 
L 938.300992 649.090825 
L 995.758673 649.112541 
L 995.758673 649.112541 
" clip-path="url(#p25cbe0536a)" style="fill: none; stroke: #7f7f7f; stroke-width: 5; stroke-linecap: round"/>
   </g>
   <g id="line2d_21">
    <path d="M 88.532127 126.087824 
L 91.556216 186.187714 
L 94.580304 240.684235 
L 97.604393 288.538446 
L 100.628481 330.794392 
L 103.65257 368.2916 
L 106.676658 401.688564 
L 109.700747 431.532637 
L 112.724835 458.264324 
L 115.748924 482.237352 
L 118.773012 503.740392 
L 121.797101 523.016781 
L 124.821189 540.270524 
L 127.845278 555.666881 
L 130.869366 569.357651 
L 133.893455 581.455498 
L 136.917543 592.07085 
L 139.941632 601.351814 
L 142.96572 609.368848 
L 145.989808 616.316062 
L 149.013897 622.159769 
L 152.037985 626.911811 
L 155.062074 630.728595 
L 158.086162 633.6325 
L 161.110251 635.851276 
L 164.134339 637.612351 
L 167.158428 638.994508 
L 170.182516 640.130395 
L 173.206605 641.050047 
L 176.230693 641.825001 
L 182.27887 643.028907 
L 188.327047 643.917232 
L 194.375224 644.59457 
L 203.44749 645.358386 
L 215.543844 646.07408 
L 230.664286 646.684977 
L 248.808817 647.177659 
L 279.049702 647.697278 
L 318.362852 648.097175 
L 378.844622 648.446054 
L 472.591365 648.726761 
L 632.868055 648.953555 
L 938.300992 649.129219 
L 995.758673 649.148002 
L 995.758673 649.148002 
" clip-path="url(#p25cbe0536a)" style="fill: none; stroke: #bcbd22; stroke-width: 5; stroke-linecap: round"/>
   </g>
   <g id="line2d_22">
    <path d="M 88.532127 67.941693 
L 91.556216 137.538857 
L 94.580304 200.882781 
L 97.604393 256.787022 
L 100.628481 306.383848 
L 103.65257 350.57693 
L 106.676658 390.040555 
L 109.700747 425.401382 
L 112.724835 457.009363 
L 115.748924 485.291253 
L 118.773012 510.494829 
L 121.797101 532.824333 
L 124.821189 552.478192 
L 127.845278 569.608174 
L 130.869366 584.391042 
L 133.893455 596.992835 
L 136.917543 607.595108 
L 139.941632 616.392234 
L 142.96572 623.381545 
L 145.989808 628.656199 
L 149.013897 632.544691 
L 152.037985 635.336549 
L 155.062074 637.425015 
L 158.086162 639.03057 
L 161.110251 640.284102 
L 164.134339 641.283934 
L 167.158428 642.101193 
L 173.206605 643.344603 
L 179.254782 644.240898 
L 185.302959 644.915751 
L 194.375224 645.657455 
L 206.471578 646.33879 
L 221.592021 646.910764 
L 239.736552 647.374633 
L 266.953348 647.817724 
L 306.266498 648.200873 
L 363.724179 648.514652 
L 457.470922 648.781377 
L 620.771701 648.995292 
L 944.349168 649.16089 
L 995.758673 649.175563 
L 995.758673 649.175563 
" clip-path="url(#p25cbe0536a)" style="fill: none; stroke: #17becf; stroke-width: 5; stroke-linecap: round"/>
   </g>
   <g id="patch_3">
    <path d="M 88.532127 678.237256 
L 88.532127 38.88 
" style="fill: none; stroke: #262626; stroke-width: 0.8; stroke-linejoin: miter; stroke-linecap: square"/>
   </g>
   <g id="patch_4">
    <path d="M 88.532127 678.237256 
L 1041.12 678.237256 
" style="fill: none; stroke: #262626; stroke-width: 0.8; stroke-linejoin: miter; stroke-linecap: square"/>
   </g>
  </g>
 </g>
 <defs>
  <clipPath id="p25cbe0536a">
   <rect x="88.532127" y="38.88" width="952.587873" height="639.357256"/>
  </clipPath>
 </defs>
</svg>
