<?xml version="1.0" encoding="utf-8" standalone="no"?>
<!DOCTYPE svg PUBLIC "-//W3C//DTD SVG 1.1//EN"
  "http://www.w3.org/Graphics/SVG/1.1/DTD/svg11.dtd">
<svg xmlns:xlink="http://www.w3.org/1999/xlink" width="1080pt" height="756pt" viewBox="0 0 1080 756" xmlns="http://www.w3.org/2000/svg" version="1.1">
 <metadata>
  <rdf:RDF xmlns:dc="http://purl.org/dc/elements/1.1/" xmlns:cc="http://creativecommons.org/ns#" xmlns:rdf="http://www.w3.org/1999/02/22-rdf-syntax-ns#">
   <cc:Work>
    <dc:type rdf:resource="http://purl.org/dc/dcmitype/StillImage"/>
    <dc:date>2024-07-30T19:52:19.070173</dc:date>
    <dc:format>image/svg+xml</dc:format>
    <dc:creator>
     <cc:Agent>
      <dc:title>Matplotlib v3.9.0, https://matplotlib.org/</dc:title>
     </cc:Agent>
    </dc:creator>
   </cc:Work>
  </rdf:RDF>
 </metadata>
 <defs>
  <style type="text/css">*{stroke-linejoin: round; stroke-linecap: butt}</style>
 </defs>
 <g id="figure_1">
  <g id="patch_1">
   <path d="M 0 756 
L 1080 756 
L 1080 0 
L 0 0 
z
" style="fill: #ffffff"/>
  </g>
  <g id="axes_1">
   <g id="patch_2">
    <path d="M 104.980699 678.237256 
L 1041.12 678.237256 
L 1041.12 38.88 
L 104.980699 38.88 
z
" style="fill: #ffffff"/>
   </g>
   <g id="matplotlib.axis_1">
    <g id="xtick_1">
     <g id="line2d_1">
      <defs>
       <path id="m5a1b3f3352" d="M 0 0 
L 0 3.5 
" style="stroke: #262626; stroke-width: 0.8"/>
      </defs>
      <g>
       <use xlink:href="#m5a1b3f3352" x="104.980699" y="678.237256" style="fill: #262626; stroke: #262626; stroke-width: 0.8"/>
      </g>
     </g>
     <g id="text_1">
      <!-- $\mathdefault{0}$ -->
      <g style="fill: #262626" transform="translate(96.756413 710.143856) scale(0.36 -0.36)">
       <defs>
        <path id="CMR17-30" d="M 2688 2025 
C 2688 2416 2682 3080 2413 3591 
C 2176 4039 1798 4198 1466 4198 
C 1158 4198 768 4058 525 3597 
C 269 3118 243 2524 243 2025 
C 243 1661 250 1106 448 619 
C 723 -39 1216 -128 1466 -128 
C 1760 -128 2208 -7 2470 600 
C 2662 1042 2688 1559 2688 2025 
z
M 1466 -26 
C 1056 -26 813 325 723 812 
C 653 1188 653 1738 653 2096 
C 653 2588 653 2997 736 3387 
C 858 3929 1216 4096 1466 4096 
C 1728 4096 2067 3923 2189 3400 
C 2272 3036 2278 2607 2278 2096 
C 2278 1680 2278 1169 2202 792 
C 2067 95 1690 -26 1466 -26 
z
" transform="scale(0.015625)"/>
       </defs>
       <use xlink:href="#CMR17-30" transform="scale(0.996264)"/>
      </g>
     </g>
    </g>
    <g id="xtick_2">
     <g id="line2d_2">
      <g>
       <use xlink:href="#m5a1b3f3352" x="253.574239" y="678.237256" style="fill: #262626; stroke: #262626; stroke-width: 0.8"/>
      </g>
     </g>
     <g id="text_2">
      <!-- $\mathdefault{500}$ -->
      <g style="fill: #262626" transform="translate(228.901381 710.143856) scale(0.36 -0.36)">
       <defs>
        <path id="CMR17-35" d="M 730 3692 
C 794 3666 1056 3584 1325 3584 
C 1920 3584 2246 3911 2432 4100 
C 2432 4157 2432 4192 2394 4192 
C 2387 4192 2374 4192 2323 4163 
C 2099 4058 1837 3973 1517 3973 
C 1325 3973 1037 3999 723 4139 
C 653 4171 640 4171 634 4171 
C 602 4171 595 4164 595 4037 
L 595 2203 
C 595 2089 595 2057 659 2057 
C 691 2057 704 2070 736 2114 
C 941 2401 1222 2522 1542 2522 
C 1766 2522 2246 2382 2246 1289 
C 2246 1085 2246 715 2054 421 
C 1894 159 1645 25 1370 25 
C 947 25 518 320 403 814 
C 429 807 480 795 506 795 
C 589 795 749 840 749 1038 
C 749 1210 627 1280 506 1280 
C 358 1280 262 1190 262 1011 
C 262 454 704 -128 1382 -128 
C 2042 -128 2669 440 2669 1264 
C 2669 2030 2170 2624 1549 2624 
C 1222 2624 947 2503 730 2274 
L 730 3692 
z
" transform="scale(0.015625)"/>
       </defs>
       <use xlink:href="#CMR17-35" transform="scale(0.996264)"/>
       <use xlink:href="#CMR17-30" transform="translate(45.690477 0) scale(0.996264)"/>
       <use xlink:href="#CMR17-30" transform="translate(91.380954 0) scale(0.996264)"/>
      </g>
     </g>
    </g>
    <g id="xtick_3">
     <g id="line2d_3">
      <g>
       <use xlink:href="#m5a1b3f3352" x="402.167779" y="678.237256" style="fill: #262626; stroke: #262626; stroke-width: 0.8"/>
      </g>
     </g>
     <g id="text_3">
      <!-- $\mathdefault{1000}$ -->
      <g style="fill: #262626" transform="translate(369.270635 710.143856) scale(0.36 -0.36)">
       <defs>
        <path id="CMR17-31" d="M 1702 4058 
C 1702 4192 1696 4192 1606 4192 
C 1357 3916 979 3827 621 3827 
C 602 3827 570 3827 563 3808 
C 557 3795 557 3782 557 3648 
C 755 3648 1088 3686 1344 3839 
L 1344 461 
C 1344 236 1331 160 781 160 
L 589 160 
L 589 0 
C 896 0 1216 0 1523 0 
C 1830 0 2150 0 2458 0 
L 2458 160 
L 2266 160 
C 1715 160 1702 230 1702 458 
L 1702 4058 
z
" transform="scale(0.015625)"/>
       </defs>
       <use xlink:href="#CMR17-31" transform="scale(0.996264)"/>
       <use xlink:href="#CMR17-30" transform="translate(45.690477 0) scale(0.996264)"/>
       <use xlink:href="#CMR17-30" transform="translate(91.380954 0) scale(0.996264)"/>
       <use xlink:href="#CMR17-30" transform="translate(137.071431 0) scale(0.996264)"/>
      </g>
     </g>
    </g>
    <g id="xtick_4">
     <g id="line2d_4">
      <g>
       <use xlink:href="#m5a1b3f3352" x="550.761319" y="678.237256" style="fill: #262626; stroke: #262626; stroke-width: 0.8"/>
      </g>
     </g>
     <g id="text_4">
      <!-- $\mathdefault{1500}$ -->
      <g style="fill: #262626" transform="translate(517.864175 710.143856) scale(0.36 -0.36)">
       <use xlink:href="#CMR17-31" transform="scale(0.996264)"/>
       <use xlink:href="#CMR17-35" transform="translate(45.690477 0) scale(0.996264)"/>
       <use xlink:href="#CMR17-30" transform="translate(91.380954 0) scale(0.996264)"/>
       <use xlink:href="#CMR17-30" transform="translate(137.071431 0) scale(0.996264)"/>
      </g>
     </g>
    </g>
    <g id="xtick_5">
     <g id="line2d_5">
      <g>
       <use xlink:href="#m5a1b3f3352" x="699.354858" y="678.237256" style="fill: #262626; stroke: #262626; stroke-width: 0.8"/>
      </g>
     </g>
     <g id="text_5">
      <!-- $\mathdefault{2000}$ -->
      <g style="fill: #262626" transform="translate(666.457715 710.143856) scale(0.36 -0.36)">
       <defs>
        <path id="CMR17-32" d="M 2669 989 
L 2554 989 
C 2490 536 2438 459 2413 420 
C 2381 369 1920 369 1830 369 
L 602 369 
C 832 619 1280 1072 1824 1597 
C 2214 1967 2669 2402 2669 3035 
C 2669 3790 2067 4224 1395 4224 
C 691 4224 262 3604 262 3030 
C 262 2780 448 2748 525 2748 
C 589 2748 781 2787 781 3010 
C 781 3207 614 3264 525 3264 
C 486 3264 448 3258 422 3245 
C 544 3790 915 4058 1306 4058 
C 1862 4058 2227 3617 2227 3035 
C 2227 2479 1901 2000 1536 1584 
L 262 146 
L 262 0 
L 2515 0 
L 2669 989 
z
" transform="scale(0.015625)"/>
       </defs>
       <use xlink:href="#CMR17-32" transform="scale(0.996264)"/>
       <use xlink:href="#CMR17-30" transform="translate(45.690477 0) scale(0.996264)"/>
       <use xlink:href="#CMR17-30" transform="translate(91.380954 0) scale(0.996264)"/>
       <use xlink:href="#CMR17-30" transform="translate(137.071431 0) scale(0.996264)"/>
      </g>
     </g>
    </g>
    <g id="xtick_6">
     <g id="line2d_6">
      <g>
       <use xlink:href="#m5a1b3f3352" x="847.948398" y="678.237256" style="fill: #262626; stroke: #262626; stroke-width: 0.8"/>
      </g>
     </g>
     <g id="text_6">
      <!-- $\mathdefault{2500}$ -->
      <g style="fill: #262626" transform="translate(815.051255 710.143856) scale(0.36 -0.36)">
       <use xlink:href="#CMR17-32" transform="scale(0.996264)"/>
       <use xlink:href="#CMR17-35" transform="translate(45.690477 0) scale(0.996264)"/>
       <use xlink:href="#CMR17-30" transform="translate(91.380954 0) scale(0.996264)"/>
       <use xlink:href="#CMR17-30" transform="translate(137.071431 0) scale(0.996264)"/>
      </g>
     </g>
    </g>
    <g id="xtick_7">
     <g id="line2d_7">
      <g>
       <use xlink:href="#m5a1b3f3352" x="996.541938" y="678.237256" style="fill: #262626; stroke: #262626; stroke-width: 0.8"/>
      </g>
     </g>
     <g id="text_7">
      <!-- $\mathdefault{3000}$ -->
      <g style="fill: #262626" transform="translate(963.644795 710.143856) scale(0.36 -0.36)">
       <defs>
        <path id="CMR17-33" d="M 1414 2157 
C 1984 2157 2234 1662 2234 1090 
C 2234 320 1824 25 1453 25 
C 1114 25 563 194 390 693 
C 422 680 454 680 486 680 
C 640 680 755 782 755 948 
C 755 1133 614 1216 486 1216 
C 378 1216 211 1165 211 926 
C 211 335 787 -128 1466 -128 
C 2176 -128 2720 430 2720 1085 
C 2720 1707 2208 2157 1600 2227 
C 2086 2328 2554 2756 2554 3329 
C 2554 3820 2048 4179 1472 4179 
C 890 4179 378 3829 378 3329 
C 378 3110 544 3072 627 3072 
C 762 3072 877 3155 877 3321 
C 877 3486 762 3569 627 3569 
C 602 3569 570 3569 544 3557 
C 730 3959 1235 4032 1459 4032 
C 1683 4032 2106 3925 2106 3320 
C 2106 3143 2080 2828 1862 2550 
C 1670 2304 1453 2304 1242 2284 
C 1210 2284 1062 2269 1037 2269 
C 992 2263 966 2257 966 2208 
C 966 2163 973 2157 1101 2157 
L 1414 2157 
z
" transform="scale(0.015625)"/>
       </defs>
       <use xlink:href="#CMR17-33" transform="scale(0.996264)"/>
       <use xlink:href="#CMR17-30" transform="translate(45.690477 0) scale(0.996264)"/>
       <use xlink:href="#CMR17-30" transform="translate(91.380954 0) scale(0.996264)"/>
       <use xlink:href="#CMR17-30" transform="translate(137.071431 0) scale(0.996264)"/>
      </g>
     </g>
    </g>
   </g>
   <g id="matplotlib.axis_2">
    <g id="ytick_1">
     <g id="line2d_8">
      <defs>
       <path id="m862edc52e0" d="M 0 0 
L -3.5 0 
" style="stroke: #262626; stroke-width: 0.8"/>
      </defs>
      <g>
       <use xlink:href="#m862edc52e0" x="104.980699" y="649.275391" style="fill: #262626; stroke: #262626; stroke-width: 0.8"/>
      </g>
     </g>
     <g id="text_8">
      <!-- $\mathdefault{0.00}$ -->
      <g style="fill: #262626" transform="translate(38.88 661.728691) scale(0.36 -0.36)">
       <defs>
        <path id="CMMI12-3a" d="M 1178 307 
C 1178 492 1024 619 870 619 
C 685 619 557 466 557 313 
C 557 128 710 0 864 0 
C 1050 0 1178 153 1178 307 
z
" transform="scale(0.015625)"/>
       </defs>
       <use xlink:href="#CMR17-30" transform="scale(0.996264)"/>
       <use xlink:href="#CMMI12-3a" transform="translate(45.690477 0) scale(0.996264)"/>
       <use xlink:href="#CMR17-30" transform="translate(72.787654 0) scale(0.996264)"/>
       <use xlink:href="#CMR17-30" transform="translate(118.478131 0) scale(0.996264)"/>
      </g>
     </g>
    </g>
    <g id="ytick_2">
     <g id="line2d_9">
      <g>
       <use xlink:href="#m862edc52e0" x="104.980699" y="568.534599" style="fill: #262626; stroke: #262626; stroke-width: 0.8"/>
      </g>
     </g>
     <g id="text_9">
      <!-- $\mathdefault{0.25}$ -->
      <g style="fill: #262626" transform="translate(38.88 580.9879) scale(0.36 -0.36)">
       <use xlink:href="#CMR17-30" transform="scale(0.996264)"/>
       <use xlink:href="#CMMI12-3a" transform="translate(45.690477 0) scale(0.996264)"/>
       <use xlink:href="#CMR17-32" transform="translate(72.787654 0) scale(0.996264)"/>
       <use xlink:href="#CMR17-35" transform="translate(118.478131 0) scale(0.996264)"/>
      </g>
     </g>
    </g>
    <g id="ytick_3">
     <g id="line2d_10">
      <g>
       <use xlink:href="#m862edc52e0" x="104.980699" y="487.793808" style="fill: #262626; stroke: #262626; stroke-width: 0.8"/>
      </g>
     </g>
     <g id="text_10">
      <!-- $\mathdefault{0.50}$ -->
      <g style="fill: #262626" transform="translate(38.88 500.247108) scale(0.36 -0.36)">
       <use xlink:href="#CMR17-30" transform="scale(0.996264)"/>
       <use xlink:href="#CMMI12-3a" transform="translate(45.690477 0) scale(0.996264)"/>
       <use xlink:href="#CMR17-35" transform="translate(72.787654 0) scale(0.996264)"/>
       <use xlink:href="#CMR17-30" transform="translate(118.478131 0) scale(0.996264)"/>
      </g>
     </g>
    </g>
    <g id="ytick_4">
     <g id="line2d_11">
      <g>
       <use xlink:href="#m862edc52e0" x="104.980699" y="407.053017" style="fill: #262626; stroke: #262626; stroke-width: 0.8"/>
      </g>
     </g>
     <g id="text_11">
      <!-- $\mathdefault{0.75}$ -->
      <g style="fill: #262626" transform="translate(38.88 419.506317) scale(0.36 -0.36)">
       <defs>
        <path id="CMR17-37" d="M 2886 3941 
L 2886 4081 
L 1382 4081 
C 634 4081 621 4165 595 4288 
L 480 4288 
L 294 3094 
L 410 3094 
C 429 3215 474 3540 550 3661 
C 589 3712 1062 3712 1171 3712 
L 2579 3712 
L 1869 2661 
C 1395 1954 1069 999 1069 165 
C 1069 89 1069 -128 1299 -128 
C 1530 -128 1530 89 1530 171 
L 1530 465 
C 1530 1508 1709 2196 2003 2636 
L 2886 3941 
z
" transform="scale(0.015625)"/>
       </defs>
       <use xlink:href="#CMR17-30" transform="scale(0.996264)"/>
       <use xlink:href="#CMMI12-3a" transform="translate(45.690477 0) scale(0.996264)"/>
       <use xlink:href="#CMR17-37" transform="translate(72.787654 0) scale(0.996264)"/>
       <use xlink:href="#CMR17-35" transform="translate(118.478131 0) scale(0.996264)"/>
      </g>
     </g>
    </g>
    <g id="ytick_5">
     <g id="line2d_12">
      <g>
       <use xlink:href="#m862edc52e0" x="104.980699" y="326.312226" style="fill: #262626; stroke: #262626; stroke-width: 0.8"/>
      </g>
     </g>
     <g id="text_12">
      <!-- $\mathdefault{1.00}$ -->
      <g style="fill: #262626" transform="translate(38.88 338.765526) scale(0.36 -0.36)">
       <use xlink:href="#CMR17-31" transform="scale(0.996264)"/>
       <use xlink:href="#CMMI12-3a" transform="translate(45.690477 0) scale(0.996264)"/>
       <use xlink:href="#CMR17-30" transform="translate(72.787654 0) scale(0.996264)"/>
       <use xlink:href="#CMR17-30" transform="translate(118.478131 0) scale(0.996264)"/>
      </g>
     </g>
    </g>
    <g id="ytick_6">
     <g id="line2d_13">
      <g>
       <use xlink:href="#m862edc52e0" x="104.980699" y="245.571434" style="fill: #262626; stroke: #262626; stroke-width: 0.8"/>
      </g>
     </g>
     <g id="text_13">
      <!-- $\mathdefault{1.25}$ -->
      <g style="fill: #262626" transform="translate(38.88 258.024734) scale(0.36 -0.36)">
       <use xlink:href="#CMR17-31" transform="scale(0.996264)"/>
       <use xlink:href="#CMMI12-3a" transform="translate(45.690477 0) scale(0.996264)"/>
       <use xlink:href="#CMR17-32" transform="translate(72.787654 0) scale(0.996264)"/>
       <use xlink:href="#CMR17-35" transform="translate(118.478131 0) scale(0.996264)"/>
      </g>
     </g>
    </g>
    <g id="ytick_7">
     <g id="line2d_14">
      <g>
       <use xlink:href="#m862edc52e0" x="104.980699" y="164.830643" style="fill: #262626; stroke: #262626; stroke-width: 0.8"/>
      </g>
     </g>
     <g id="text_14">
      <!-- $\mathdefault{1.50}$ -->
      <g style="fill: #262626" transform="translate(38.88 177.283943) scale(0.36 -0.36)">
       <use xlink:href="#CMR17-31" transform="scale(0.996264)"/>
       <use xlink:href="#CMMI12-3a" transform="translate(45.690477 0) scale(0.996264)"/>
       <use xlink:href="#CMR17-35" transform="translate(72.787654 0) scale(0.996264)"/>
       <use xlink:href="#CMR17-30" transform="translate(118.478131 0) scale(0.996264)"/>
      </g>
     </g>
    </g>
    <g id="ytick_8">
     <g id="line2d_15">
      <g>
       <use xlink:href="#m862edc52e0" x="104.980699" y="84.089852" style="fill: #262626; stroke: #262626; stroke-width: 0.8"/>
      </g>
     </g>
     <g id="text_15">
      <!-- $\mathdefault{1.75}$ -->
      <g style="fill: #262626" transform="translate(38.88 96.543152) scale(0.36 -0.36)">
       <use xlink:href="#CMR17-31" transform="scale(0.996264)"/>
       <use xlink:href="#CMMI12-3a" transform="translate(45.690477 0) scale(0.996264)"/>
       <use xlink:href="#CMR17-37" transform="translate(72.787654 0) scale(0.996264)"/>
       <use xlink:href="#CMR17-35" transform="translate(118.478131 0) scale(0.996264)"/>
      </g>
     </g>
    </g>
   </g>
   <g id="line2d_16">
    <path d="M 104.980699 67.941694 
L 116.868182 114.160573 
L 122.811924 135.932994 
L 128.755665 156.752088 
L 134.699407 176.674464 
L 140.643149 195.750702 
L 146.58689 214.030593 
L 152.530632 231.556251 
L 158.474373 248.370551 
L 164.418115 264.51008 
L 170.361857 280.009561 
L 176.305598 294.904352 
L 182.24934 309.223769 
L 188.193081 322.997595 
L 194.136823 336.25109 
L 200.080565 349.008745 
L 206.024306 361.29438 
L 211.968048 373.131829 
L 217.911789 384.540474 
L 223.855531 395.538093 
L 229.799273 406.136992 
L 235.743014 416.351877 
L 241.686756 426.194553 
L 247.630497 435.70088 
L 253.574239 444.879835 
L 259.51798 453.748696 
L 265.461722 462.299665 
L 271.405464 470.537647 
L 277.349205 478.46824 
L 283.292947 486.127924 
L 289.236688 493.526719 
L 295.18043 500.678196 
L 301.124172 507.564596 
L 307.067913 514.197222 
L 313.011655 520.572789 
L 318.955396 526.675636 
L 324.899138 532.49675 
L 330.84288 538.022258 
L 336.786621 543.234367 
L 342.730363 548.118267 
L 348.674104 552.737576 
L 354.617846 557.071735 
L 360.561588 561.131139 
L 366.505329 564.927414 
L 372.449071 568.497278 
L 378.392812 571.850199 
L 384.336554 574.990708 
L 390.280296 577.933763 
L 396.224037 580.689753 
L 402.167779 583.271664 
L 411.083391 586.847593 
L 419.999003 590.124101 
L 428.914616 593.134967 
L 437.830228 595.889735 
L 446.745841 598.397962 
L 455.661453 600.696687 
L 467.548936 603.525068 
L 479.436419 606.061686 
L 491.323903 608.359157 
L 503.211386 610.444005 
L 518.07074 612.795008 
L 532.930094 614.89512 
L 547.789448 616.781691 
L 565.620673 618.808562 
L 583.451897 620.612273 
L 604.254993 622.477561 
L 625.058088 624.127773 
L 648.833055 625.790742 
L 675.579892 627.431631 
L 705.2986 629.014625 
L 737.989179 630.522214 
L 773.651628 631.938708 
L 812.285949 633.252976 
L 856.864011 634.549431 
L 907.385814 635.793689 
L 963.851359 636.961313 
L 996.541938 637.554606 
L 996.541938 637.554606 
" clip-path="url(#p8bd164235f)" style="fill: none; stroke: #1f77b4; stroke-width: 5; stroke-linecap: round"/>
   </g>
   <g id="line2d_17">
    <path d="M 104.980699 67.941696 
L 110.924441 113.858602 
L 113.896311 135.68789 
L 116.868182 156.559074 
L 119.840053 176.528521 
L 122.811924 195.648146 
L 125.783795 213.967358 
L 128.755665 231.528478 
L 131.727536 248.375629 
L 134.699407 264.544468 
L 137.671278 280.071172 
L 140.643149 294.990483 
L 146.58689 323.125831 
L 152.530632 349.171704 
L 158.474373 373.322293 
L 164.418115 395.750968 
L 170.361857 416.583552 
L 176.305598 435.944492 
L 182.24934 453.99895 
L 188.193081 470.79815 
L 194.136823 486.390887 
L 200.080565 500.938397 
L 206.024306 514.461542 
L 211.968048 527.00244 
L 217.911789 538.63875 
L 223.855531 549.418211 
L 229.799273 559.381384 
L 235.743014 568.554323 
L 238.714885 572.846086 
L 241.686756 576.92462 
L 244.658626 580.773316 
L 247.630497 584.381082 
L 250.602368 587.777783 
L 253.574239 590.953928 
L 256.54611 593.909897 
L 259.51798 596.647304 
L 262.489851 599.196195 
L 265.461722 601.56548 
L 268.433593 603.768424 
L 271.405464 605.818582 
L 277.349205 609.501746 
L 283.292947 612.698627 
L 289.236688 615.48477 
L 295.18043 617.926817 
L 301.124172 620.081734 
L 307.067913 621.988758 
L 313.011655 623.685176 
L 321.927267 625.884166 
L 330.84288 627.788471 
L 342.730363 629.936437 
L 354.617846 631.671218 
L 366.505329 633.158051 
L 378.392812 634.424336 
L 393.252166 635.763285 
L 408.11152 636.890231 
L 425.942745 638.027068 
L 446.745841 639.112832 
L 473.492678 640.267099 
L 506.183257 641.356868 
L 538.873835 642.216556 
L 580.480027 643.080475 
L 631.00183 643.886439 
L 693.411117 644.633932 
L 761.764145 645.256294 
L 856.864011 645.88167 
L 960.879488 646.379843 
L 996.541938 646.51842 
L 996.541938 646.51842 
" clip-path="url(#p8bd164235f)" style="fill: none; stroke: #ff7f0e; stroke-width: 5; stroke-linecap: round"/>
   </g>
   <g id="line2d_18">
    <path d="M 104.980699 67.941698 
L 110.924441 135.443997 
L 113.896311 166.486168 
L 116.868182 195.547028 
L 119.840053 222.794593 
L 122.811924 248.376027 
L 125.783795 272.439972 
L 128.755665 295.055808 
L 131.727536 316.408522 
L 134.699407 336.552943 
L 137.671278 355.541483 
L 140.643149 373.502516 
L 143.615019 390.492176 
L 146.58689 406.582472 
L 149.558761 421.791364 
L 152.530632 436.205218 
L 155.502503 449.864248 
L 158.474373 462.806178 
L 161.446244 475.068171 
L 164.418115 486.683808 
L 167.389986 497.681227 
L 170.361857 508.093567 
L 173.333727 517.953219 
L 176.305598 527.27932 
L 179.277469 536.093236 
L 182.24934 544.409564 
L 185.221211 552.248705 
L 188.193081 559.629834 
L 191.164952 566.573321 
L 194.136823 573.104116 
L 197.108694 579.235164 
L 200.080565 584.965926 
L 203.052435 590.310263 
L 206.024306 595.277785 
L 208.996177 599.833971 
L 211.968048 603.956495 
L 214.939919 607.648392 
L 217.911789 610.922741 
L 220.88366 613.85159 
L 223.855531 616.460077 
L 226.827402 618.791522 
L 229.799273 620.861814 
L 232.771143 622.701843 
L 235.743014 624.332537 
L 241.686756 627.106819 
L 247.630497 629.500076 
L 253.574239 631.353454 
L 259.51798 632.969608 
L 265.461722 634.331041 
L 271.405464 635.495267 
L 280.321076 636.951198 
L 289.236688 638.149022 
L 298.152301 639.144208 
L 310.039784 640.234708 
L 321.927267 641.114716 
L 339.758492 642.176374 
L 357.589717 642.989228 
L 384.336554 643.929663 
L 411.083391 644.617702 
L 446.745841 645.317844 
L 494.295773 645.973928 
L 550.761319 646.520367 
L 628.029959 647.032615 
L 732.045437 647.482654 
L 880.638977 647.883528 
L 996.541938 648.091053 
L 996.541938 648.091053 
" clip-path="url(#p8bd164235f)" style="fill: none; stroke: #2ca02c; stroke-width: 5; stroke-linecap: round"/>
   </g>
   <g id="line2d_19">
    <path d="M 104.980699 67.941702 
L 107.95257 113.252001 
L 110.924441 156.174873 
L 113.896311 195.449348 
L 116.868182 231.48196 
L 119.840053 264.618012 
L 122.811924 295.168665 
L 125.783795 323.389561 
L 128.755665 349.487674 
L 131.727536 373.707862 
L 134.699407 396.18348 
L 137.671278 417.051239 
L 140.643149 436.468681 
L 143.615019 454.523225 
L 146.58689 471.289427 
L 149.558761 486.942434 
L 152.530632 501.490098 
L 155.502503 514.968866 
L 158.474373 527.548354 
L 161.446244 539.157979 
L 164.418115 549.907868 
L 167.389986 559.860237 
L 170.361857 569.012606 
L 173.333727 577.430756 
L 176.305598 585.143264 
L 179.277469 592.189016 
L 182.24934 598.606137 
L 185.221211 604.421537 
L 188.193081 609.606912 
L 191.164952 614.152502 
L 194.136823 618.014453 
L 197.108694 621.298623 
L 200.080565 624.113667 
L 203.052435 626.465862 
L 206.024306 628.511545 
L 208.996177 630.256219 
L 211.968048 631.760099 
L 214.939919 633.069471 
L 217.911789 634.217132 
L 220.88366 635.2266 
L 226.827402 636.910513 
L 232.771143 638.259139 
L 238.714885 639.374525 
L 247.630497 640.67531 
L 256.54611 641.692229 
L 265.461722 642.502345 
L 277.349205 643.351072 
L 292.208559 644.172922 
L 310.039784 644.894618 
L 333.81475 645.605077 
L 366.505329 646.271909 
L 405.13965 646.807405 
L 458.633324 647.29959 
L 532.930094 647.726656 
L 633.973701 648.08104 
L 794.454724 648.401996 
L 996.541938 648.622733 
L 996.541938 648.622733 
" clip-path="url(#p8bd164235f)" style="fill: none; stroke: #d62728; stroke-width: 5; stroke-linecap: round"/>
   </g>
   <g id="line2d_20">
    <path d="M 104.980699 67.941693 
L 107.95257 124.075008 
L 110.924441 176.093135 
L 113.896311 222.708319 
L 116.868182 264.654962 
L 119.840053 302.532965 
L 122.811924 336.844705 
L 125.783795 368.014774 
L 128.755665 396.389927 
L 131.727536 422.278259 
L 134.699407 445.914606 
L 137.671278 467.488687 
L 140.643149 487.202929 
L 143.615019 505.209684 
L 146.58689 521.639687 
L 149.558761 536.595878 
L 152.530632 550.173384 
L 155.502503 562.459285 
L 158.474373 573.54898 
L 161.446244 583.501185 
L 164.418115 592.396971 
L 167.389986 600.334358 
L 170.361857 607.258919 
L 173.333727 613.390793 
L 176.305598 618.665886 
L 179.277469 623.005895 
L 182.24934 626.516357 
L 185.221211 629.354503 
L 188.193081 631.666075 
L 191.164952 633.558042 
L 194.136823 635.132624 
L 197.108694 636.443273 
L 200.080565 637.553625 
L 206.024306 639.324103 
L 211.968048 640.655763 
L 217.911789 641.690173 
L 223.855531 642.512768 
L 232.771143 643.470611 
L 241.686756 644.199765 
L 253.574239 644.935858 
L 268.433593 645.604714 
L 286.264818 646.182952 
L 310.039784 646.720217 
L 342.730363 647.221179 
L 381.364683 647.608077 
L 443.77397 647.998847 
L 535.901965 648.328211 
L 681.523634 648.603339 
L 931.160781 648.827353 
L 996.541938 648.86353 
L 996.541938 648.86353 
" clip-path="url(#p8bd164235f)" style="fill: none; stroke: #9467bd; stroke-width: 5; stroke-linecap: round"/>
   </g>
   <g id="line2d_21">
    <path d="M 104.980699 67.941693 
L 107.95257 134.704694 
L 110.924441 195.243096 
L 113.896311 248.402773 
L 116.868182 295.34352 
L 119.840053 336.997941 
L 122.811924 374.097536 
L 125.783795 407.250339 
L 128.755665 436.945696 
L 131.727536 463.576548 
L 134.699407 487.463571 
L 137.671278 508.877081 
L 140.643149 528.043699 
L 143.615019 545.147009 
L 146.58689 560.355637 
L 149.558761 573.794739 
L 152.530632 585.586986 
L 155.502503 595.896906 
L 158.474373 604.802766 
L 161.446244 612.520198 
L 164.418115 619.011782 
L 167.389986 624.29067 
L 170.361857 628.530609 
L 173.333727 631.756463 
L 176.305598 634.221228 
L 179.277469 636.17755 
L 182.24934 637.712942 
L 185.221211 638.974762 
L 188.193081 639.996374 
L 191.164952 640.857244 
L 197.108694 642.194625 
L 203.052435 643.181435 
L 208.996177 643.933868 
L 217.911789 644.782366 
L 226.827402 645.406254 
L 238.714885 646.010271 
L 253.574239 646.550376 
L 274.377334 647.070341 
L 301.124172 647.505318 
L 339.758492 647.898985 
L 396.224037 648.23973 
L 488.352032 648.538138 
L 639.917442 648.776122 
L 922.245168 648.964031 
L 996.541938 648.992127 
L 996.541938 648.992127 
" clip-path="url(#p8bd164235f)" style="fill: none; stroke: #8c564b; stroke-width: 5; stroke-linecap: round"/>
   </g>
   <g id="line2d_22">
    <path d="M 104.980699 67.941693 
L 107.95257 145.140754 
L 110.924441 213.65728 
L 113.896311 272.636725 
L 116.868182 323.794547 
L 119.840053 368.380348 
L 122.811924 407.485816 
L 125.783795 441.823177 
L 128.755665 472.090188 
L 131.727536 498.728193 
L 134.699407 522.15182 
L 137.671278 542.664315 
L 140.643149 560.558554 
L 143.615019 576.041507 
L 146.58689 589.346416 
L 149.558761 600.635952 
L 152.530632 610.164495 
L 155.502503 618.092983 
L 158.474373 624.546384 
L 161.446244 629.493163 
L 164.418115 633.212602 
L 167.389986 635.937873 
L 170.361857 637.953905 
L 173.333727 639.502963 
L 176.305598 640.708579 
L 179.277469 641.665215 
L 182.24934 642.44467 
L 188.193081 643.636008 
L 194.136823 644.482575 
L 200.080565 645.117411 
L 208.996177 645.814509 
L 220.88366 646.454459 
L 235.743014 646.988248 
L 256.54611 647.470889 
L 286.264818 647.891422 
L 327.871009 648.233985 
L 396.224037 648.536751 
L 509.155127 648.776857 
L 732.045437 648.971465 
L 996.541938 649.068745 
L 996.541938 649.068745 
" clip-path="url(#p8bd164235f)" style="fill: none; stroke: #e377c2; stroke-width: 5; stroke-linecap: round"/>
   </g>
   <g id="line2d_23">
    <path d="M 104.980699 67.941693 
L 107.95257 155.393366 
L 110.924441 231.37731 
L 113.896311 295.525992 
L 116.868182 350.156095 
L 119.840053 397.052747 
L 122.811924 437.461879 
L 125.783795 472.372953 
L 128.755665 502.570027 
L 131.727536 528.609933 
L 134.699407 550.948989 
L 137.671278 569.993232 
L 140.643149 586.024825 
L 143.615019 599.405458 
L 146.58689 610.411295 
L 149.558761 619.333374 
L 152.530632 626.415812 
L 155.502503 631.662659 
L 158.474373 635.435709 
L 161.446244 638.042245 
L 164.418115 639.930334 
L 167.389986 641.298635 
L 170.361857 642.356309 
L 173.333727 643.18048 
L 176.305598 643.839232 
L 182.24934 644.821725 
L 188.193081 645.515453 
L 197.108694 646.239175 
L 208.996177 646.864859 
L 223.855531 647.364851 
L 244.658626 647.796635 
L 274.377334 648.159839 
L 318.955396 648.461733 
L 393.252166 648.716231 
L 526.986352 648.917936 
L 803.370336 649.070962 
L 996.541938 649.11813 
L 996.541938 649.11813 
" clip-path="url(#p8bd164235f)" style="fill: none; stroke: #7f7f7f; stroke-width: 5; stroke-linecap: round"/>
   </g>
   <g id="line2d_24">
    <path d="M 104.980699 67.941693 
L 107.95257 165.46398 
L 110.924441 248.421614 
L 113.896311 317.144252 
L 116.868182 374.678098 
L 119.840053 423.214202 
L 122.811924 464.349922 
L 125.783795 499.257117 
L 128.755665 528.819337 
L 131.727536 553.711693 
L 134.699407 574.383745 
L 137.671278 591.499683 
L 140.643149 605.290178 
L 143.615019 616.308028 
L 146.58689 624.90184 
L 149.558761 631.338945 
L 152.530632 635.756023 
L 155.502503 638.741596 
L 158.474373 640.754439 
L 161.446244 642.171962 
L 164.418115 643.218348 
L 167.389986 644.013787 
L 170.361857 644.631456 
L 176.305598 645.529074 
L 182.24934 646.146916 
L 191.164952 646.777292 
L 203.052435 647.310161 
L 220.88366 647.792315 
L 241.686756 648.124086 
L 277.349205 648.44505 
L 333.81475 648.699011 
L 428.914616 648.897129 
L 631.00183 649.056976 
L 996.541938 649.151713 
L 996.541938 649.151713 
" clip-path="url(#p8bd164235f)" style="fill: none; stroke: #bcbd22; stroke-width: 5; stroke-linecap: round"/>
   </g>
   <g id="line2d_25">
    <path d="M 104.980699 67.941693 
L 107.95257 175.3579 
L 110.924441 264.841065 
L 113.896311 337.596414 
L 116.868182 397.474081 
L 119.840053 447.153546 
L 122.811924 488.538022 
L 125.783795 522.95547 
L 128.755665 551.398057 
L 131.727536 574.653435 
L 134.699407 593.368622 
L 137.671278 608.128411 
L 140.643149 619.528974 
L 143.615019 628.141597 
L 146.58689 634.197764 
L 149.558761 638.158843 
L 152.530632 640.723585 
L 155.502503 642.398152 
L 158.474373 643.55828 
L 161.446244 644.418553 
L 164.418115 645.064591 
L 170.361857 645.957095 
L 176.305598 646.543378 
L 185.221211 647.12622 
L 197.108694 647.609732 
L 211.968048 647.980319 
L 238.714885 648.349072 
L 277.349205 648.621417 
L 345.702234 648.846326 
L 476.464549 649.016791 
L 776.623499 649.140788 
L 996.541938 649.175563 
L 996.541938 649.175563 
" clip-path="url(#p8bd164235f)" style="fill: none; stroke: #17becf; stroke-width: 5; stroke-linecap: round"/>
   </g>
   <g id="patch_3">
    <path d="M 104.980699 678.237256 
L 104.980699 38.88 
" style="fill: none; stroke: #262626; stroke-width: 0.8; stroke-linejoin: miter; stroke-linecap: square"/>
   </g>
   <g id="patch_4">
    <path d="M 104.980699 678.237256 
L 1041.12 678.237256 
" style="fill: none; stroke: #262626; stroke-width: 0.8; stroke-linejoin: miter; stroke-linecap: square"/>
   </g>
  </g>
 </g>
 <defs>
  <clipPath id="p8bd164235f">
   <rect x="104.980699" y="38.88" width="936.139301" height="639.357256"/>
  </clipPath>
 </defs>
</svg>
