<?xml version="1.0" encoding="utf-8" standalone="no"?>
<!DOCTYPE svg PUBLIC "-//W3C//DTD SVG 1.1//EN"
  "http://www.w3.org/Graphics/SVG/1.1/DTD/svg11.dtd">
<svg xmlns:xlink="http://www.w3.org/1999/xlink" width="1080pt" height="576pt" viewBox="0 0 1080 576" xmlns="http://www.w3.org/2000/svg" version="1.1">
 <metadata>
  <rdf:RDF xmlns:dc="http://purl.org/dc/elements/1.1/" xmlns:cc="http://creativecommons.org/ns#" xmlns:rdf="http://www.w3.org/1999/02/22-rdf-syntax-ns#">
   <cc:Work>
    <dc:type rdf:resource="http://purl.org/dc/dcmitype/StillImage"/>
    <dc:date>2024-08-15T22:28:07.760991</dc:date>
    <dc:format>image/svg+xml</dc:format>
    <dc:creator>
     <cc:Agent>
      <dc:title>Matplotlib v3.9.0, https://matplotlib.org/</dc:title>
     </cc:Agent>
    </dc:creator>
   </cc:Work>
  </rdf:RDF>
 </metadata>
 <defs>
  <style type="text/css">*{stroke-linejoin: round; stroke-linecap: butt}</style>
 </defs>
 <g id="figure_1">
  <g id="patch_1">
   <path d="M 0 576 
L 1080 576 
L 1080 0 
L 0 0 
z
" style="fill: #ffffff"/>
  </g>
  <g id="axes_1">
   <g id="patch_2">
    <path d="M 83.845239 470.718409 
L 1020.166666 470.718409 
L 1020.166666 54 
L 83.845239 54 
z
" style="fill: #ffffff"/>
   </g>
   <g id="matplotlib.axis_1">
    <g id="xtick_1">
     <g id="line2d_1">
      <defs>
       <path id="m9961ae5962" d="M 0 0 
L 0 3.5 
" style="stroke: #262626; stroke-width: 0.8"/>
      </defs>
      <g>
       <use xlink:href="#m9961ae5962" x="83.845239" y="470.718409" style="fill: #262626; stroke: #262626; stroke-width: 0.8"/>
      </g>
     </g>
     <g id="text_1">
      <!-- $\mathdefault{0.0}$ -->
      <g style="fill: #262626" transform="translate(54.225706 512.310916) scale(0.5 -0.5)">
       <defs>
        <path id="CMR17-30" d="M 2688 2025 
C 2688 2416 2682 3080 2413 3591 
C 2176 4039 1798 4198 1466 4198 
C 1158 4198 768 4058 525 3597 
C 269 3118 243 2524 243 2025 
C 243 1661 250 1106 448 619 
C 723 -39 1216 -128 1466 -128 
C 1760 -128 2208 -7 2470 600 
C 2662 1042 2688 1559 2688 2025 
z
M 1466 -26 
C 1056 -26 813 325 723 812 
C 653 1188 653 1738 653 2096 
C 653 2588 653 2997 736 3387 
C 858 3929 1216 4096 1466 4096 
C 1728 4096 2067 3923 2189 3400 
C 2272 3036 2278 2607 2278 2096 
C 2278 1680 2278 1169 2202 792 
C 2067 95 1690 -26 1466 -26 
z
" transform="scale(0.015625)"/>
        <path id="CMMI12-3a" d="M 1178 307 
C 1178 492 1024 619 870 619 
C 685 619 557 466 557 313 
C 557 128 710 0 864 0 
C 1050 0 1178 153 1178 307 
z
" transform="scale(0.015625)"/>
       </defs>
       <use xlink:href="#CMR17-30" transform="scale(0.996264)"/>
       <use xlink:href="#CMMI12-3a" transform="translate(45.690477 0) scale(0.996264)"/>
       <use xlink:href="#CMR17-30" transform="translate(72.787654 0) scale(0.996264)"/>
      </g>
     </g>
    </g>
    <g id="xtick_2">
     <g id="line2d_2">
      <g>
       <use xlink:href="#m9961ae5962" x="83.904688" y="470.718409" style="fill: #262626; stroke: #262626; stroke-width: 0.8"/>
      </g>
     </g>
     <g id="text_2">
      <!-- $\mathdefault{0.2}$ -->
      <g style="fill: #262626" transform="translate(54.285155 512.310916) scale(0.5 -0.5)">
       <defs>
        <path id="CMR17-32" d="M 2669 989 
L 2554 989 
C 2490 536 2438 459 2413 420 
C 2381 369 1920 369 1830 369 
L 602 369 
C 832 619 1280 1072 1824 1597 
C 2214 1967 2669 2402 2669 3035 
C 2669 3790 2067 4224 1395 4224 
C 691 4224 262 3604 262 3030 
C 262 2780 448 2748 525 2748 
C 589 2748 781 2787 781 3010 
C 781 3207 614 3264 525 3264 
C 486 3264 448 3258 422 3245 
C 544 3790 915 4058 1306 4058 
C 1862 4058 2227 3617 2227 3035 
C 2227 2479 1901 2000 1536 1584 
L 262 146 
L 262 0 
L 2515 0 
L 2669 989 
z
" transform="scale(0.015625)"/>
       </defs>
       <use xlink:href="#CMR17-30" transform="scale(0.996264)"/>
       <use xlink:href="#CMMI12-3a" transform="translate(45.690477 0) scale(0.996264)"/>
       <use xlink:href="#CMR17-32" transform="translate(72.787654 0) scale(0.996264)"/>
      </g>
     </g>
    </g>
    <g id="xtick_3">
     <g id="line2d_3">
      <g>
       <use xlink:href="#m9961ae5962" x="83.964137" y="470.718409" style="fill: #262626; stroke: #262626; stroke-width: 0.8"/>
      </g>
     </g>
     <g id="text_3">
      <!-- $\mathdefault{0.4}$ -->
      <g style="fill: #262626" transform="translate(54.344604 512.310916) scale(0.5 -0.5)">
       <defs>
        <path id="CMR17-34" d="M 2150 4122 
C 2150 4256 2144 4256 2029 4256 
L 128 1254 
L 128 1088 
L 1779 1088 
L 1779 457 
C 1779 224 1766 160 1318 160 
L 1197 160 
L 1197 0 
C 1402 0 1747 0 1965 0 
C 2182 0 2528 0 2733 0 
L 2733 160 
L 2611 160 
C 2163 160 2150 224 2150 457 
L 2150 1088 
L 2803 1088 
L 2803 1254 
L 2150 1254 
L 2150 4122 
z
M 1798 3703 
L 1798 1254 
L 256 1254 
L 1798 3703 
z
" transform="scale(0.015625)"/>
       </defs>
       <use xlink:href="#CMR17-30" transform="scale(0.996264)"/>
       <use xlink:href="#CMMI12-3a" transform="translate(45.690477 0) scale(0.996264)"/>
       <use xlink:href="#CMR17-34" transform="translate(72.787654 0) scale(0.996264)"/>
      </g>
     </g>
    </g>
    <g id="xtick_4">
     <g id="line2d_4">
      <g>
       <use xlink:href="#m9961ae5962" x="84.023585" y="470.718409" style="fill: #262626; stroke: #262626; stroke-width: 0.8"/>
      </g>
     </g>
     <g id="text_4">
      <!-- $\mathdefault{0.6}$ -->
      <g style="fill: #262626" transform="translate(54.404053 512.310916) scale(0.5 -0.5)">
       <defs>
        <path id="CMR17-36" d="M 678 2176 
C 678 3690 1395 4032 1811 4032 
C 1946 4032 2272 4009 2400 3776 
C 2298 3776 2106 3776 2106 3553 
C 2106 3381 2246 3323 2336 3323 
C 2394 3323 2566 3348 2566 3560 
C 2566 3954 2246 4179 1805 4179 
C 1043 4179 243 3390 243 1984 
C 243 253 966 -128 1478 -128 
C 2099 -128 2688 427 2688 1283 
C 2688 2081 2170 2662 1517 2662 
C 1126 2662 838 2407 678 1960 
L 678 2176 
z
M 1478 25 
C 691 25 691 1200 691 1436 
C 691 1896 909 2560 1504 2560 
C 1613 2560 1926 2560 2138 2120 
C 2253 1870 2253 1609 2253 1289 
C 2253 944 2253 690 2118 434 
C 1978 171 1773 25 1478 25 
z
" transform="scale(0.015625)"/>
       </defs>
       <use xlink:href="#CMR17-30" transform="scale(0.996264)"/>
       <use xlink:href="#CMMI12-3a" transform="translate(45.690477 0) scale(0.996264)"/>
       <use xlink:href="#CMR17-36" transform="translate(72.787654 0) scale(0.996264)"/>
      </g>
     </g>
    </g>
    <g id="xtick_5">
     <g id="line2d_5">
      <g>
       <use xlink:href="#m9961ae5962" x="84.083034" y="470.718409" style="fill: #262626; stroke: #262626; stroke-width: 0.8"/>
      </g>
     </g>
     <g id="text_5">
      <!-- $\mathdefault{0.8}$ -->
      <g style="fill: #262626" transform="translate(54.463502 512.310916) scale(0.5 -0.5)">
       <defs>
        <path id="CMR17-38" d="M 1741 2264 
C 2144 2467 2554 2773 2554 3263 
C 2554 3841 1990 4179 1472 4179 
C 890 4179 378 3759 378 3180 
C 378 3021 416 2747 666 2505 
C 730 2442 998 2251 1171 2130 
C 883 1983 211 1634 211 934 
C 211 279 838 -128 1459 -128 
C 2144 -128 2720 362 2720 1010 
C 2720 1590 2330 1857 2074 2029 
L 1741 2264 
z
M 902 2822 
C 851 2854 595 3051 595 3351 
C 595 3739 998 4032 1459 4032 
C 1965 4032 2336 3676 2336 3262 
C 2336 2669 1670 2331 1638 2331 
C 1632 2331 1626 2331 1574 2370 
L 902 2822 
z
M 2080 1519 
C 2176 1449 2483 1240 2483 851 
C 2483 381 2010 25 1472 25 
C 890 25 448 438 448 940 
C 448 1443 838 1862 1280 2060 
L 2080 1519 
z
" transform="scale(0.015625)"/>
       </defs>
       <use xlink:href="#CMR17-30" transform="scale(0.996264)"/>
       <use xlink:href="#CMMI12-3a" transform="translate(45.690477 0) scale(0.996264)"/>
       <use xlink:href="#CMR17-38" transform="translate(72.787654 0) scale(0.996264)"/>
      </g>
     </g>
    </g>
    <g id="xtick_6">
     <g id="line2d_6">
      <g>
       <use xlink:href="#m9961ae5962" x="84.142483" y="470.718409" style="fill: #262626; stroke: #262626; stroke-width: 0.8"/>
      </g>
     </g>
     <g id="text_6">
      <!-- $\mathdefault{1.0}$ -->
      <g style="fill: #262626" transform="translate(54.522951 512.310916) scale(0.5 -0.5)">
       <defs>
        <path id="CMR17-31" d="M 1702 4058 
C 1702 4192 1696 4192 1606 4192 
C 1357 3916 979 3827 621 3827 
C 602 3827 570 3827 563 3808 
C 557 3795 557 3782 557 3648 
C 755 3648 1088 3686 1344 3839 
L 1344 461 
C 1344 236 1331 160 781 160 
L 589 160 
L 589 0 
C 896 0 1216 0 1523 0 
C 1830 0 2150 0 2458 0 
L 2458 160 
L 2266 160 
C 1715 160 1702 230 1702 458 
L 1702 4058 
z
" transform="scale(0.015625)"/>
       </defs>
       <use xlink:href="#CMR17-31" transform="scale(0.996264)"/>
       <use xlink:href="#CMMI12-3a" transform="translate(45.690477 0) scale(0.996264)"/>
       <use xlink:href="#CMR17-30" transform="translate(72.787654 0) scale(0.996264)"/>
      </g>
     </g>
    </g>
    <g id="xtick_7">
     <g id="line2d_7">
      <g>
       <use xlink:href="#m9961ae5962" x="84.201932" y="470.718409" style="fill: #262626; stroke: #262626; stroke-width: 0.8"/>
      </g>
     </g>
     <g id="text_7">
      <!-- $\mathdefault{1.2}$ -->
      <g style="fill: #262626" transform="translate(54.5824 512.310916) scale(0.5 -0.5)">
       <use xlink:href="#CMR17-31" transform="scale(0.996264)"/>
       <use xlink:href="#CMMI12-3a" transform="translate(45.690477 0) scale(0.996264)"/>
       <use xlink:href="#CMR17-32" transform="translate(72.787654 0) scale(0.996264)"/>
      </g>
     </g>
    </g>
    <g id="text_8">
     <!-- $t$ -->
     <g style="fill: #262626" transform="translate(543.19937 560.592507) scale(0.5 -0.5)">
      <defs>
       <path id="CMMI12-74" d="M 1286 2566 
L 1875 2566 
C 1997 2566 2061 2566 2061 2681 
C 2061 2752 2022 2752 1894 2752 
L 1331 2752 
L 1568 3692 
C 1594 3781 1594 3794 1594 3840 
C 1594 3943 1510 4000 1427 4000 
C 1376 4000 1229 3981 1178 3775 
L 928 2752 
L 326 2752 
C 198 2752 141 2752 141 2630 
C 141 2566 186 2566 307 2566 
L 877 2566 
L 454 881 
C 403 658 384 594 384 511 
C 384 211 595 -64 954 -64 
C 1600 -64 1946 868 1946 912 
C 1946 951 1920 970 1882 970 
C 1869 970 1843 970 1830 944 
C 1824 938 1818 931 1773 829 
C 1638 511 1344 64 973 64 
C 781 64 768 224 768 364 
C 768 370 768 492 787 568 
L 1286 2566 
z
" transform="scale(0.015625)"/>
      </defs>
      <use xlink:href="#CMMI12-74" transform="scale(0.996264)"/>
     </g>
    </g>
   </g>
   <g id="matplotlib.axis_2">
    <g id="ytick_1">
     <g id="line2d_8">
      <defs>
       <path id="m1aedcedeca" d="M 0 0 
L -3.5 0 
" style="stroke: #262626; stroke-width: 0.8"/>
      </defs>
      <g>
       <use xlink:href="#m1aedcedeca" x="83.845239" y="452.065359" style="fill: #262626; stroke: #262626; stroke-width: 0.8"/>
      </g>
     </g>
     <g id="text_9">
      <!-- $\mathdefault{0}$ -->
      <g style="fill: #262626" transform="translate(54 469.361612) scale(0.5 -0.5)">
       <use xlink:href="#CMR17-30" transform="scale(0.996264)"/>
      </g>
     </g>
    </g>
    <g id="ytick_2">
     <g id="line2d_9">
      <g>
       <use xlink:href="#m1aedcedeca" x="83.845239" y="262.503552" style="fill: #262626; stroke: #262626; stroke-width: 0.8"/>
      </g>
     </g>
     <g id="text_10">
      <!-- $\mathdefault{1}$ -->
      <g style="fill: #262626" transform="translate(54 279.799806) scale(0.5 -0.5)">
       <use xlink:href="#CMR17-31" transform="scale(0.996264)"/>
      </g>
     </g>
    </g>
    <g id="ytick_3">
     <g id="line2d_10">
      <g>
       <use xlink:href="#m1aedcedeca" x="83.845239" y="72.941746" style="fill: #262626; stroke: #262626; stroke-width: 0.8"/>
      </g>
     </g>
     <g id="text_11">
      <!-- $\mathdefault{2}$ -->
      <g style="fill: #262626" transform="translate(54 90.237999) scale(0.5 -0.5)">
       <use xlink:href="#CMR17-32" transform="scale(0.996264)"/>
      </g>
     </g>
    </g>
    <g id="text_12">
     <!-- $\psi$ -->
     <g style="fill: #262626" transform="translate(40.310916 278.213926) rotate(-90) scale(0.5 -0.5)">
      <defs>
       <path id="CMMI12-20" d="M 3008 4294 
C 3008 4301 3034 4384 3034 4391 
C 3034 4448 2982 4448 2963 4448 
C 2906 4448 2899 4416 2874 4320 
L 1818 77 
C 1286 141 1088 410 1088 794 
C 1088 934 1088 1082 1389 1875 
C 1472 2105 1504 2188 1504 2303 
C 1504 2591 1299 2821 998 2821 
C 410 2821 173 1894 173 1843 
C 173 1817 198 1785 243 1785 
C 301 1785 307 1811 333 1900 
C 486 2453 742 2688 979 2688 
C 1037 2688 1146 2688 1146 2483 
C 1146 2457 1146 2316 1037 2035 
C 691 1126 691 985 691 838 
C 691 223 1203 -14 1779 -58 
C 1728 -253 1683 -453 1632 -647 
C 1530 -1022 1485 -1198 1485 -1223 
C 1485 -1280 1536 -1280 1555 -1280 
C 1568 -1280 1594 -1280 1606 -1254 
C 1632 -1230 1894 -176 1920 -64 
C 2157 -64 2662 -64 3238 531 
C 3450 761 3642 1056 3750 1331 
C 3814 1498 3968 2067 3968 2393 
C 3968 2777 3776 2821 3712 2821 
C 3558 2821 3418 2668 3418 2540 
C 3418 2463 3462 2418 3488 2393 
C 3546 2335 3718 2162 3718 1830 
C 3718 1600 3590 1126 3181 666 
C 2643 64 2150 64 1958 64 
L 3008 4294 
z
" transform="scale(0.015625)"/>
      </defs>
      <use xlink:href="#CMMI12-20" transform="scale(0.996264)"/>
     </g>
    </g>
   </g>
   <g id="line2d_11">
    <path d="M 83.845239 376.240636 
L 89.790137 383.091234 
L 92.762585 386.248729 
L 95.735034 389.196805 
L 98.707483 391.95387 
L 101.679932 394.535965 
L 104.652381 396.958606 
L 110.597279 401.369163 
L 116.542177 405.286937 
L 122.487075 408.771823 
L 128.431973 411.884846 
L 134.376871 414.683596 
L 140.321769 417.208989 
L 146.266667 419.491445 
L 152.211565 421.561948 
L 158.156463 423.448896 
L 167.07381 425.976287 
L 175.991157 428.19223 
L 184.908504 430.145732 
L 193.825851 431.878834 
L 202.743198 433.42259 
L 214.632993 435.231005 
L 226.522789 436.802886 
L 238.412585 438.176731 
L 253.27483 439.655619 
L 268.137075 440.930569 
L 285.971769 442.232265 
L 306.778912 443.493378 
L 327.586055 444.522684 
L 351.365646 445.472755 
L 378.117687 446.317879 
L 410.814626 447.117869 
L 449.456463 447.831862 
L 497.015646 448.481733 
L 556.464626 449.06653 
L 633.748299 449.597528 
L 737.784013 450.076634 
L 880.461564 450.497887 
L 975.579931 450.692512 
L 975.579931 450.692512 
" clip-path="url(#pd8bba8c767)" style="fill: none; stroke: #1f77b4; stroke-width: 5; stroke-linecap: round"/>
   </g>
   <g id="line2d_12">
    <path d="M 83.845239 300.415914 
L 86.817688 311.828031 
L 89.790137 322.496716 
L 92.762585 332.054677 
L 95.735034 340.652059 
L 98.707483 348.413137 
L 101.679932 355.449231 
L 104.652381 361.838429 
L 107.62483 367.661723 
L 110.597279 372.987266 
L 113.569728 377.866993 
L 116.542177 382.345212 
L 119.514626 386.465947 
L 122.487075 390.270786 
L 125.459524 393.792117 
L 128.431973 397.0538 
L 131.404422 400.080859 
L 134.376871 402.896121 
L 137.34932 405.518823 
L 140.321769 407.964241 
L 143.294218 410.2491 
L 149.239116 414.388695 
L 155.184014 418.031028 
L 161.128912 421.254077 
L 167.07381 424.117949 
L 173.018708 426.669865 
L 178.963606 428.948852 
L 184.908504 431.000736 
L 190.853402 432.854418 
L 196.7983 434.519633 
L 205.715647 436.726333 
L 214.632993 438.617168 
L 223.55034 440.207375 
L 232.467687 441.540862 
L 241.385034 442.649602 
L 253.27483 443.873289 
L 265.164626 444.828589 
L 277.054422 445.615591 
L 294.889116 446.545347 
L 315.696259 447.354531 
L 339.47585 448.048904 
L 372.172789 448.739255 
L 413.787075 449.340635 
L 464.318707 449.839885 
L 535.657483 450.302293 
L 633.748299 450.699087 
L 776.42585 451.037119 
L 975.579931 451.303599 
L 975.579931 451.303599 
" clip-path="url(#pd8bba8c767)" style="fill: none; stroke: #2ca02c; stroke-width: 5; stroke-linecap: round"/>
   </g>
   <g id="line2d_13">
    <path d="M 83.845239 224.591194 
L 86.817688 246.24759 
L 89.790137 266.021066 
L 92.762585 283.403999 
L 95.735034 298.770176 
L 98.707483 312.413559 
L 101.679932 324.608861 
L 104.652381 335.518527 
L 107.62483 345.332625 
L 110.597279 354.199271 
L 113.569728 362.212256 
L 116.542177 369.505939 
L 119.514626 376.129269 
L 122.487075 382.186172 
L 125.459524 387.721701 
L 128.431973 392.795293 
L 131.404422 397.45596 
L 134.376871 401.742458 
L 137.34932 405.688674 
L 140.321769 409.326012 
L 143.294218 412.682971 
L 146.266667 415.781681 
L 149.239116 418.648679 
L 152.211565 421.301816 
L 155.184014 423.746962 
L 158.156463 426.021738 
L 161.128912 428.131852 
L 164.101361 430.072143 
L 167.07381 431.851791 
L 170.046259 433.463832 
L 173.018708 434.90802 
L 175.991157 436.221866 
L 178.963606 437.388522 
L 184.908504 439.353323 
L 190.853402 440.929539 
L 196.7983 442.203376 
L 202.743198 443.245424 
L 208.688096 444.111843 
L 217.605442 445.151411 
L 226.522789 445.971652 
L 238.412585 446.816156 
L 253.27483 447.606297 
L 271.109524 448.298755 
L 291.916667 448.88416 
L 318.668708 449.41987 
L 354.338095 449.909961 
L 404.869728 450.361927 
L 476.208503 450.753819 
L 583.216666 451.092336 
L 743.728911 451.365158 
L 975.579931 451.568255 
L 975.579931 451.568255 
" clip-path="url(#pd8bba8c767)" style="fill: none; stroke: #8c564b; stroke-width: 5; stroke-linecap: round"/>
   </g>
   <g id="line2d_14">
    <path d="M 83.845239 148.766468 
L 86.817688 181.910117 
L 89.790137 211.935604 
L 92.762585 238.234839 
L 95.735034 261.400869 
L 98.707483 281.91511 
L 101.679932 300.160475 
L 104.652381 316.451725 
L 107.62483 331.047321 
L 110.597279 344.159876 
L 113.569728 355.964627 
L 116.542177 366.613472 
L 119.514626 376.213409 
L 122.487075 384.905951 
L 125.459524 392.720515 
L 128.431973 399.783755 
L 131.404422 406.132001 
L 134.376871 411.846275 
L 137.34932 416.966911 
L 140.321769 421.541129 
L 143.294218 425.574373 
L 146.266667 429.0211 
L 149.239116 431.894851 
L 152.211565 434.282395 
L 155.184014 436.252643 
L 158.156463 437.900212 
L 161.128912 439.273859 
L 164.101361 440.436188 
L 167.07381 441.427252 
L 173.018708 443.012169 
L 178.963606 444.216545 
L 184.908504 445.152042 
L 190.853402 445.903184 
L 199.770749 446.777076 
L 208.688096 447.442127 
L 220.577891 448.115833 
L 235.440136 448.726816 
L 256.247279 449.328429 
L 282.99932 449.847339 
L 318.668708 450.297726 
L 369.20034 450.694731 
L 443.511565 451.037921 
L 574.299319 451.353398 
L 779.398299 451.585442 
L 975.579931 451.699702 
L 975.579931 451.699702 
" clip-path="url(#pd8bba8c767)" style="fill: none; stroke: #7f7f7f; stroke-width: 5; stroke-linecap: round"/>
   </g>
   <g id="line2d_15">
    <path d="M 83.845239 72.941746 
L 86.817688 118.320394 
L 89.790137 159.621814 
L 92.762585 196.072422 
L 95.735034 228.410477 
L 98.707483 257.225191 
L 101.679932 282.95621 
L 104.652381 306.012129 
L 107.62483 326.621122 
L 110.597279 345.061442 
L 113.569728 361.494644 
L 116.542177 376.053896 
L 119.514626 388.868579 
L 122.487075 400.037647 
L 125.459524 409.676353 
L 128.431973 417.850206 
L 131.404422 424.413725 
L 134.376871 429.381288 
L 137.34932 433.111538 
L 140.321769 435.946386 
L 143.294218 438.126364 
L 146.266667 439.83909 
L 149.239116 441.205448 
L 152.211565 442.317291 
L 155.184014 443.236291 
L 158.156463 444.007095 
L 164.101361 445.222938 
L 170.046259 446.128893 
L 175.991157 446.832123 
L 184.908504 447.632803 
L 193.825851 448.2235 
L 205.715647 448.80943 
L 223.55034 449.418137 
L 244.357483 449.896772 
L 274.081973 450.34459 
L 315.696259 450.732576 
L 390.007483 451.115196 
L 497.015646 451.395021 
L 699.142176 451.634903 
L 975.579931 451.776663 
L 975.579931 451.776663 
" clip-path="url(#pd8bba8c767)" style="fill: none; stroke: #17becf; stroke-width: 5; stroke-linecap: round"/>
   </g>
   <g id="patch_3">
    <path d="M 83.845239 470.718409 
L 83.845239 54 
" style="fill: none; stroke: #262626; stroke-width: 0.8; stroke-linejoin: miter; stroke-linecap: square"/>
   </g>
   <g id="patch_4">
    <path d="M 83.845239 470.718409 
L 1020.166666 470.718409 
" style="fill: none; stroke: #262626; stroke-width: 0.8; stroke-linejoin: miter; stroke-linecap: square"/>
   </g>
  </g>
 </g>
 <defs>
  <clipPath id="pd8bba8c767">
   <rect x="83.845239" y="54" width="936.321427" height="416.718409"/>
  </clipPath>
 </defs>
</svg>
