<?xml version="1.0" encoding="utf-8" standalone="no"?>
<!DOCTYPE svg PUBLIC "-//W3C//DTD SVG 1.1//EN"
  "http://www.w3.org/Graphics/SVG/1.1/DTD/svg11.dtd">
<svg xmlns:xlink="http://www.w3.org/1999/xlink" width="1080pt" height="756pt" viewBox="0 0 1080 756" xmlns="http://www.w3.org/2000/svg" version="1.1">
 <metadata>
  <rdf:RDF xmlns:dc="http://purl.org/dc/elements/1.1/" xmlns:cc="http://creativecommons.org/ns#" xmlns:rdf="http://www.w3.org/1999/02/22-rdf-syntax-ns#">
   <cc:Work>
    <dc:type rdf:resource="http://purl.org/dc/dcmitype/StillImage"/>
    <dc:date>2024-07-30T19:14:05.741636</dc:date>
    <dc:format>image/svg+xml</dc:format>
    <dc:creator>
     <cc:Agent>
      <dc:title>Matplotlib v3.9.0, https://matplotlib.org/</dc:title>
     </cc:Agent>
    </dc:creator>
   </cc:Work>
  </rdf:RDF>
 </metadata>
 <defs>
  <style type="text/css">*{stroke-linejoin: round; stroke-linecap: butt}</style>
 </defs>
 <g id="figure_1">
  <g id="patch_1">
   <path d="M 0 756 
L 1080 756 
L 1080 0 
L 0 0 
z
" style="fill: #ffffff"/>
  </g>
  <g id="axes_1">
   <g id="patch_2">
    <path d="M 88.532127 678.237256 
L 1041.12 678.237256 
L 1041.12 38.88 
L 88.532127 38.88 
z
" style="fill: #ffffff"/>
   </g>
   <g id="matplotlib.axis_1">
    <g id="xtick_1">
     <g id="line2d_1">
      <defs>
       <path id="mbf23bd4ed7" d="M 0 0 
L 0 3.5 
" style="stroke: #262626; stroke-width: 0.8"/>
      </defs>
      <g>
       <use xlink:href="#mbf23bd4ed7" x="88.532127" y="678.237256" style="fill: #262626; stroke: #262626; stroke-width: 0.8"/>
      </g>
     </g>
     <g id="text_1">
      <!-- $\mathdefault{0}$ -->
      <g style="fill: #262626" transform="translate(80.307841 710.143856) scale(0.36 -0.36)">
       <defs>
        <path id="CMR17-30" d="M 2688 2025 
C 2688 2416 2682 3080 2413 3591 
C 2176 4039 1798 4198 1466 4198 
C 1158 4198 768 4058 525 3597 
C 269 3118 243 2524 243 2025 
C 243 1661 250 1106 448 619 
C 723 -39 1216 -128 1466 -128 
C 1760 -128 2208 -7 2470 600 
C 2662 1042 2688 1559 2688 2025 
z
M 1466 -26 
C 1056 -26 813 325 723 812 
C 653 1188 653 1738 653 2096 
C 653 2588 653 2997 736 3387 
C 858 3929 1216 4096 1466 4096 
C 1728 4096 2067 3923 2189 3400 
C 2272 3036 2278 2607 2278 2096 
C 2278 1680 2278 1169 2202 792 
C 2067 95 1690 -26 1466 -26 
z
" transform="scale(0.015625)"/>
       </defs>
       <use xlink:href="#CMR17-30" transform="scale(0.996264)"/>
      </g>
     </g>
    </g>
    <g id="xtick_2">
     <g id="line2d_2">
      <g>
       <use xlink:href="#mbf23bd4ed7" x="239.736552" y="678.237256" style="fill: #262626; stroke: #262626; stroke-width: 0.8"/>
      </g>
     </g>
     <g id="text_2">
      <!-- $\mathdefault{500}$ -->
      <g style="fill: #262626" transform="translate(215.063694 710.143856) scale(0.36 -0.36)">
       <defs>
        <path id="CMR17-35" d="M 730 3692 
C 794 3666 1056 3584 1325 3584 
C 1920 3584 2246 3911 2432 4100 
C 2432 4157 2432 4192 2394 4192 
C 2387 4192 2374 4192 2323 4163 
C 2099 4058 1837 3973 1517 3973 
C 1325 3973 1037 3999 723 4139 
C 653 4171 640 4171 634 4171 
C 602 4171 595 4164 595 4037 
L 595 2203 
C 595 2089 595 2057 659 2057 
C 691 2057 704 2070 736 2114 
C 941 2401 1222 2522 1542 2522 
C 1766 2522 2246 2382 2246 1289 
C 2246 1085 2246 715 2054 421 
C 1894 159 1645 25 1370 25 
C 947 25 518 320 403 814 
C 429 807 480 795 506 795 
C 589 795 749 840 749 1038 
C 749 1210 627 1280 506 1280 
C 358 1280 262 1190 262 1011 
C 262 454 704 -128 1382 -128 
C 2042 -128 2669 440 2669 1264 
C 2669 2030 2170 2624 1549 2624 
C 1222 2624 947 2503 730 2274 
L 730 3692 
z
" transform="scale(0.015625)"/>
       </defs>
       <use xlink:href="#CMR17-35" transform="scale(0.996264)"/>
       <use xlink:href="#CMR17-30" transform="translate(45.690477 0) scale(0.996264)"/>
       <use xlink:href="#CMR17-30" transform="translate(91.380954 0) scale(0.996264)"/>
      </g>
     </g>
    </g>
    <g id="xtick_3">
     <g id="line2d_3">
      <g>
       <use xlink:href="#mbf23bd4ed7" x="390.940976" y="678.237256" style="fill: #262626; stroke: #262626; stroke-width: 0.8"/>
      </g>
     </g>
     <g id="text_3">
      <!-- $\mathdefault{1000}$ -->
      <g style="fill: #262626" transform="translate(358.043832 710.143856) scale(0.36 -0.36)">
       <defs>
        <path id="CMR17-31" d="M 1702 4058 
C 1702 4192 1696 4192 1606 4192 
C 1357 3916 979 3827 621 3827 
C 602 3827 570 3827 563 3808 
C 557 3795 557 3782 557 3648 
C 755 3648 1088 3686 1344 3839 
L 1344 461 
C 1344 236 1331 160 781 160 
L 589 160 
L 589 0 
C 896 0 1216 0 1523 0 
C 1830 0 2150 0 2458 0 
L 2458 160 
L 2266 160 
C 1715 160 1702 230 1702 458 
L 1702 4058 
z
" transform="scale(0.015625)"/>
       </defs>
       <use xlink:href="#CMR17-31" transform="scale(0.996264)"/>
       <use xlink:href="#CMR17-30" transform="translate(45.690477 0) scale(0.996264)"/>
       <use xlink:href="#CMR17-30" transform="translate(91.380954 0) scale(0.996264)"/>
       <use xlink:href="#CMR17-30" transform="translate(137.071431 0) scale(0.996264)"/>
      </g>
     </g>
    </g>
    <g id="xtick_4">
     <g id="line2d_4">
      <g>
       <use xlink:href="#mbf23bd4ed7" x="542.1454" y="678.237256" style="fill: #262626; stroke: #262626; stroke-width: 0.8"/>
      </g>
     </g>
     <g id="text_4">
      <!-- $\mathdefault{1500}$ -->
      <g style="fill: #262626" transform="translate(509.248256 710.143856) scale(0.36 -0.36)">
       <use xlink:href="#CMR17-31" transform="scale(0.996264)"/>
       <use xlink:href="#CMR17-35" transform="translate(45.690477 0) scale(0.996264)"/>
       <use xlink:href="#CMR17-30" transform="translate(91.380954 0) scale(0.996264)"/>
       <use xlink:href="#CMR17-30" transform="translate(137.071431 0) scale(0.996264)"/>
      </g>
     </g>
    </g>
    <g id="xtick_5">
     <g id="line2d_5">
      <g>
       <use xlink:href="#mbf23bd4ed7" x="693.349824" y="678.237256" style="fill: #262626; stroke: #262626; stroke-width: 0.8"/>
      </g>
     </g>
     <g id="text_5">
      <!-- $\mathdefault{2000}$ -->
      <g style="fill: #262626" transform="translate(660.452681 710.143856) scale(0.36 -0.36)">
       <defs>
        <path id="CMR17-32" d="M 2669 989 
L 2554 989 
C 2490 536 2438 459 2413 420 
C 2381 369 1920 369 1830 369 
L 602 369 
C 832 619 1280 1072 1824 1597 
C 2214 1967 2669 2402 2669 3035 
C 2669 3790 2067 4224 1395 4224 
C 691 4224 262 3604 262 3030 
C 262 2780 448 2748 525 2748 
C 589 2748 781 2787 781 3010 
C 781 3207 614 3264 525 3264 
C 486 3264 448 3258 422 3245 
C 544 3790 915 4058 1306 4058 
C 1862 4058 2227 3617 2227 3035 
C 2227 2479 1901 2000 1536 1584 
L 262 146 
L 262 0 
L 2515 0 
L 2669 989 
z
" transform="scale(0.015625)"/>
       </defs>
       <use xlink:href="#CMR17-32" transform="scale(0.996264)"/>
       <use xlink:href="#CMR17-30" transform="translate(45.690477 0) scale(0.996264)"/>
       <use xlink:href="#CMR17-30" transform="translate(91.380954 0) scale(0.996264)"/>
       <use xlink:href="#CMR17-30" transform="translate(137.071431 0) scale(0.996264)"/>
      </g>
     </g>
    </g>
    <g id="xtick_6">
     <g id="line2d_6">
      <g>
       <use xlink:href="#mbf23bd4ed7" x="844.554248" y="678.237256" style="fill: #262626; stroke: #262626; stroke-width: 0.8"/>
      </g>
     </g>
     <g id="text_6">
      <!-- $\mathdefault{2500}$ -->
      <g style="fill: #262626" transform="translate(811.657105 710.143856) scale(0.36 -0.36)">
       <use xlink:href="#CMR17-32" transform="scale(0.996264)"/>
       <use xlink:href="#CMR17-35" transform="translate(45.690477 0) scale(0.996264)"/>
       <use xlink:href="#CMR17-30" transform="translate(91.380954 0) scale(0.996264)"/>
       <use xlink:href="#CMR17-30" transform="translate(137.071431 0) scale(0.996264)"/>
      </g>
     </g>
    </g>
    <g id="xtick_7">
     <g id="line2d_7">
      <g>
       <use xlink:href="#mbf23bd4ed7" x="995.758673" y="678.237256" style="fill: #262626; stroke: #262626; stroke-width: 0.8"/>
      </g>
     </g>
     <g id="text_7">
      <!-- $\mathdefault{3000}$ -->
      <g style="fill: #262626" transform="translate(962.861529 710.143856) scale(0.36 -0.36)">
       <defs>
        <path id="CMR17-33" d="M 1414 2157 
C 1984 2157 2234 1662 2234 1090 
C 2234 320 1824 25 1453 25 
C 1114 25 563 194 390 693 
C 422 680 454 680 486 680 
C 640 680 755 782 755 948 
C 755 1133 614 1216 486 1216 
C 378 1216 211 1165 211 926 
C 211 335 787 -128 1466 -128 
C 2176 -128 2720 430 2720 1085 
C 2720 1707 2208 2157 1600 2227 
C 2086 2328 2554 2756 2554 3329 
C 2554 3820 2048 4179 1472 4179 
C 890 4179 378 3829 378 3329 
C 378 3110 544 3072 627 3072 
C 762 3072 877 3155 877 3321 
C 877 3486 762 3569 627 3569 
C 602 3569 570 3569 544 3557 
C 730 3959 1235 4032 1459 4032 
C 1683 4032 2106 3925 2106 3320 
C 2106 3143 2080 2828 1862 2550 
C 1670 2304 1453 2304 1242 2284 
C 1210 2284 1062 2269 1037 2269 
C 992 2263 966 2257 966 2208 
C 966 2163 973 2157 1101 2157 
L 1414 2157 
z
" transform="scale(0.015625)"/>
       </defs>
       <use xlink:href="#CMR17-33" transform="scale(0.996264)"/>
       <use xlink:href="#CMR17-30" transform="translate(45.690477 0) scale(0.996264)"/>
       <use xlink:href="#CMR17-30" transform="translate(91.380954 0) scale(0.996264)"/>
       <use xlink:href="#CMR17-30" transform="translate(137.071431 0) scale(0.996264)"/>
      </g>
     </g>
    </g>
   </g>
   <g id="matplotlib.axis_2">
    <g id="ytick_1">
     <g id="line2d_8">
      <defs>
       <path id="m991b086d97" d="M 0 0 
L -3.5 0 
" style="stroke: #262626; stroke-width: 0.8"/>
      </defs>
      <g>
       <use xlink:href="#m991b086d97" x="88.532127" y="649.34407" style="fill: #262626; stroke: #262626; stroke-width: 0.8"/>
      </g>
     </g>
     <g id="text_8">
      <!-- $\mathdefault{0.0}$ -->
      <g style="fill: #262626" transform="translate(38.88 661.797371) scale(0.36 -0.36)">
       <defs>
        <path id="CMMI12-3a" d="M 1178 307 
C 1178 492 1024 619 870 619 
C 685 619 557 466 557 313 
C 557 128 710 0 864 0 
C 1050 0 1178 153 1178 307 
z
" transform="scale(0.015625)"/>
       </defs>
       <use xlink:href="#CMR17-30" transform="scale(0.996264)"/>
       <use xlink:href="#CMMI12-3a" transform="translate(45.690477 0) scale(0.996264)"/>
       <use xlink:href="#CMR17-30" transform="translate(72.787654 0) scale(0.996264)"/>
      </g>
     </g>
    </g>
    <g id="ytick_2">
     <g id="line2d_9">
      <g>
       <use xlink:href="#m991b086d97" x="88.532127" y="566.286588" style="fill: #262626; stroke: #262626; stroke-width: 0.8"/>
      </g>
     </g>
     <g id="text_9">
      <!-- $\mathdefault{0.2}$ -->
      <g style="fill: #262626" transform="translate(38.88 578.739888) scale(0.36 -0.36)">
       <use xlink:href="#CMR17-30" transform="scale(0.996264)"/>
       <use xlink:href="#CMMI12-3a" transform="translate(45.690477 0) scale(0.996264)"/>
       <use xlink:href="#CMR17-32" transform="translate(72.787654 0) scale(0.996264)"/>
      </g>
     </g>
    </g>
    <g id="ytick_3">
     <g id="line2d_10">
      <g>
       <use xlink:href="#m991b086d97" x="88.532127" y="483.229106" style="fill: #262626; stroke: #262626; stroke-width: 0.8"/>
      </g>
     </g>
     <g id="text_10">
      <!-- $\mathdefault{0.4}$ -->
      <g style="fill: #262626" transform="translate(38.88 495.682406) scale(0.36 -0.36)">
       <defs>
        <path id="CMR17-34" d="M 2150 4122 
C 2150 4256 2144 4256 2029 4256 
L 128 1254 
L 128 1088 
L 1779 1088 
L 1779 457 
C 1779 224 1766 160 1318 160 
L 1197 160 
L 1197 0 
C 1402 0 1747 0 1965 0 
C 2182 0 2528 0 2733 0 
L 2733 160 
L 2611 160 
C 2163 160 2150 224 2150 457 
L 2150 1088 
L 2803 1088 
L 2803 1254 
L 2150 1254 
L 2150 4122 
z
M 1798 3703 
L 1798 1254 
L 256 1254 
L 1798 3703 
z
" transform="scale(0.015625)"/>
       </defs>
       <use xlink:href="#CMR17-30" transform="scale(0.996264)"/>
       <use xlink:href="#CMMI12-3a" transform="translate(45.690477 0) scale(0.996264)"/>
       <use xlink:href="#CMR17-34" transform="translate(72.787654 0) scale(0.996264)"/>
      </g>
     </g>
    </g>
    <g id="ytick_4">
     <g id="line2d_11">
      <g>
       <use xlink:href="#m991b086d97" x="88.532127" y="400.171623" style="fill: #262626; stroke: #262626; stroke-width: 0.8"/>
      </g>
     </g>
     <g id="text_11">
      <!-- $\mathdefault{0.6}$ -->
      <g style="fill: #262626" transform="translate(38.88 412.624923) scale(0.36 -0.36)">
       <defs>
        <path id="CMR17-36" d="M 678 2176 
C 678 3690 1395 4032 1811 4032 
C 1946 4032 2272 4009 2400 3776 
C 2298 3776 2106 3776 2106 3553 
C 2106 3381 2246 3323 2336 3323 
C 2394 3323 2566 3348 2566 3560 
C 2566 3954 2246 4179 1805 4179 
C 1043 4179 243 3390 243 1984 
C 243 253 966 -128 1478 -128 
C 2099 -128 2688 427 2688 1283 
C 2688 2081 2170 2662 1517 2662 
C 1126 2662 838 2407 678 1960 
L 678 2176 
z
M 1478 25 
C 691 25 691 1200 691 1436 
C 691 1896 909 2560 1504 2560 
C 1613 2560 1926 2560 2138 2120 
C 2253 1870 2253 1609 2253 1289 
C 2253 944 2253 690 2118 434 
C 1978 171 1773 25 1478 25 
z
" transform="scale(0.015625)"/>
       </defs>
       <use xlink:href="#CMR17-30" transform="scale(0.996264)"/>
       <use xlink:href="#CMMI12-3a" transform="translate(45.690477 0) scale(0.996264)"/>
       <use xlink:href="#CMR17-36" transform="translate(72.787654 0) scale(0.996264)"/>
      </g>
     </g>
    </g>
    <g id="ytick_5">
     <g id="line2d_12">
      <g>
       <use xlink:href="#m991b086d97" x="88.532127" y="317.114141" style="fill: #262626; stroke: #262626; stroke-width: 0.8"/>
      </g>
     </g>
     <g id="text_12">
      <!-- $\mathdefault{0.8}$ -->
      <g style="fill: #262626" transform="translate(38.88 329.567441) scale(0.36 -0.36)">
       <defs>
        <path id="CMR17-38" d="M 1741 2264 
C 2144 2467 2554 2773 2554 3263 
C 2554 3841 1990 4179 1472 4179 
C 890 4179 378 3759 378 3180 
C 378 3021 416 2747 666 2505 
C 730 2442 998 2251 1171 2130 
C 883 1983 211 1634 211 934 
C 211 279 838 -128 1459 -128 
C 2144 -128 2720 362 2720 1010 
C 2720 1590 2330 1857 2074 2029 
L 1741 2264 
z
M 902 2822 
C 851 2854 595 3051 595 3351 
C 595 3739 998 4032 1459 4032 
C 1965 4032 2336 3676 2336 3262 
C 2336 2669 1670 2331 1638 2331 
C 1632 2331 1626 2331 1574 2370 
L 902 2822 
z
M 2080 1519 
C 2176 1449 2483 1240 2483 851 
C 2483 381 2010 25 1472 25 
C 890 25 448 438 448 940 
C 448 1443 838 1862 1280 2060 
L 2080 1519 
z
" transform="scale(0.015625)"/>
       </defs>
       <use xlink:href="#CMR17-30" transform="scale(0.996264)"/>
       <use xlink:href="#CMMI12-3a" transform="translate(45.690477 0) scale(0.996264)"/>
       <use xlink:href="#CMR17-38" transform="translate(72.787654 0) scale(0.996264)"/>
      </g>
     </g>
    </g>
    <g id="ytick_6">
     <g id="line2d_13">
      <g>
       <use xlink:href="#m991b086d97" x="88.532127" y="234.056658" style="fill: #262626; stroke: #262626; stroke-width: 0.8"/>
      </g>
     </g>
     <g id="text_13">
      <!-- $\mathdefault{1.0}$ -->
      <g style="fill: #262626" transform="translate(38.88 246.509958) scale(0.36 -0.36)">
       <use xlink:href="#CMR17-31" transform="scale(0.996264)"/>
       <use xlink:href="#CMMI12-3a" transform="translate(45.690477 0) scale(0.996264)"/>
       <use xlink:href="#CMR17-30" transform="translate(72.787654 0) scale(0.996264)"/>
      </g>
     </g>
    </g>
    <g id="ytick_7">
     <g id="line2d_14">
      <g>
       <use xlink:href="#m991b086d97" x="88.532127" y="150.999176" style="fill: #262626; stroke: #262626; stroke-width: 0.8"/>
      </g>
     </g>
     <g id="text_14">
      <!-- $\mathdefault{1.2}$ -->
      <g style="fill: #262626" transform="translate(38.88 163.452476) scale(0.36 -0.36)">
       <use xlink:href="#CMR17-31" transform="scale(0.996264)"/>
       <use xlink:href="#CMMI12-3a" transform="translate(45.690477 0) scale(0.996264)"/>
       <use xlink:href="#CMR17-32" transform="translate(72.787654 0) scale(0.996264)"/>
      </g>
     </g>
    </g>
    <g id="ytick_8">
     <g id="line2d_15">
      <g>
       <use xlink:href="#m991b086d97" x="88.532127" y="67.941693" style="fill: #262626; stroke: #262626; stroke-width: 0.8"/>
      </g>
     </g>
     <g id="text_15">
      <!-- $\mathdefault{1.4}$ -->
      <g style="fill: #262626" transform="translate(38.88 80.394994) scale(0.36 -0.36)">
       <use xlink:href="#CMR17-31" transform="scale(0.996264)"/>
       <use xlink:href="#CMMI12-3a" transform="translate(45.690477 0) scale(0.996264)"/>
       <use xlink:href="#CMR17-34" transform="translate(72.787654 0) scale(0.996264)"/>
      </g>
     </g>
    </g>
   </g>
   <g id="line2d_16">
    <path d="M 88.532127 67.941694 
L 100.628481 109.525555 
L 106.676658 129.105412 
L 112.724835 147.810872 
L 118.773012 165.694257 
L 124.821189 182.801538 
L 130.869366 199.181817 
L 136.917543 214.869282 
L 142.96572 229.904866 
L 149.013897 244.330258 
L 155.062074 258.178121 
L 161.110251 271.460186 
L 167.158428 284.22311 
L 173.206605 296.520963 
L 179.254782 308.343329 
L 185.302959 319.689273 
L 191.351136 330.623347 
L 197.399313 341.138688 
L 203.44749 351.286367 
L 209.495667 361.064792 
L 215.543844 370.490238 
L 221.592021 379.590162 
L 227.640198 388.367362 
L 233.688375 396.844099 
L 239.736552 405.026822 
L 245.784728 412.934022 
L 251.832905 420.576122 
L 257.881082 427.962631 
L 263.929259 435.100644 
L 269.977436 442.003115 
L 279.049702 451.939467 
L 288.121967 461.408737 
L 297.194233 470.439638 
L 306.266498 479.039195 
L 315.338764 487.238266 
L 324.411029 495.050298 
L 333.483295 502.498683 
L 342.55556 509.620481 
L 351.627825 516.438344 
L 360.700091 522.912126 
L 369.772356 529.039051 
L 378.844622 534.821253 
L 387.916887 540.258936 
L 396.989153 545.360791 
L 406.061418 550.128263 
L 415.133684 554.599838 
L 424.205949 558.776683 
L 433.278215 562.684641 
L 442.35048 566.326627 
L 451.422745 569.762828 
L 460.495011 572.976594 
L 469.567276 575.973615 
L 481.66363 579.677321 
L 493.759984 583.080808 
L 505.856338 586.216244 
L 517.952692 589.105105 
L 530.049046 591.779138 
L 542.1454 594.252018 
L 557.265842 597.08965 
L 572.386285 599.675566 
L 587.506727 602.042261 
L 605.651258 604.625419 
L 623.795789 606.965535 
L 641.94032 609.094366 
L 663.108939 611.337438 
L 684.277559 613.368573 
L 705.446178 615.194112 
L 735.687063 617.540093 
L 759.879771 619.205526 
L 790.120656 621.052765 
L 823.385629 622.863934 
L 859.674691 624.626024 
L 895.963753 626.150807 
L 944.349168 627.939297 
L 986.686407 629.295507 
L 995.758673 629.56391 
L 995.758673 629.56391 
" clip-path="url(#p187cf692db)" style="fill: none; stroke: #1f77b4; stroke-width: 5; stroke-linecap: round"/>
   </g>
   <g id="line2d_17">
    <path d="M 88.532127 67.941695 
L 94.580304 109.204733 
L 97.604393 128.827664 
L 100.628481 147.57512 
L 103.65257 165.494945 
L 106.676658 182.638826 
L 109.700747 199.047908 
L 112.724835 214.763896 
L 115.748924 229.831229 
L 118.773012 244.284507 
L 121.797101 258.149749 
L 124.821189 271.461586 
L 127.845278 284.247967 
L 130.869366 296.541026 
L 136.917543 319.735303 
L 142.96572 341.226157 
L 149.013897 361.167299 
L 155.062074 379.703917 
L 161.110251 396.964262 
L 167.158428 413.063243 
L 173.206605 428.099777 
L 179.254782 442.161399 
L 185.302959 455.322971 
L 191.351136 467.649378 
L 197.399313 479.214199 
L 203.44749 490.065255 
L 209.495667 500.250042 
L 215.543844 509.80606 
L 221.592021 518.782804 
L 227.640198 527.247273 
L 233.688375 535.235882 
L 239.736552 542.737708 
L 245.784728 549.775789 
L 251.832905 556.403877 
L 257.881082 562.644065 
L 263.929259 568.509408 
L 269.977436 574.013383 
L 276.025613 579.143998 
L 282.07379 583.866566 
L 288.121967 588.178657 
L 294.170144 592.10744 
L 300.218321 595.676111 
L 306.266498 598.943728 
L 312.314675 601.930366 
L 318.362852 604.669004 
L 324.411029 607.157066 
L 330.459206 609.409826 
L 336.507383 611.466864 
L 345.579648 614.23721 
L 354.651914 616.693672 
L 363.724179 618.856169 
L 372.796445 620.781351 
L 381.86871 622.499385 
L 393.965064 624.520747 
L 406.061418 626.28062 
L 418.157772 627.825825 
L 433.278215 629.507546 
L 448.398657 630.960679 
L 466.543188 632.460379 
L 484.687719 633.746364 
L 505.856338 635.029379 
L 530.049046 636.270085 
L 557.265842 637.439657 
L 587.506727 638.525286 
L 623.795789 639.597937 
L 666.133028 640.615104 
L 714.518444 641.551038 
L 771.976125 642.436469 
L 841.53016 643.275836 
L 926.204638 644.061281 
L 995.758673 644.571837 
L 995.758673 644.571837 
" clip-path="url(#p187cf692db)" style="fill: none; stroke: #ff7f0e; stroke-width: 5; stroke-linecap: round"/>
   </g>
   <g id="line2d_18">
    <path d="M 88.532127 67.941696 
L 94.580304 128.550776 
L 97.604393 156.417 
L 100.628481 182.472911 
L 103.65257 206.872174 
L 106.676658 229.756704 
L 109.700747 251.243917 
L 112.724835 271.445338 
L 115.748924 290.469469 
L 118.773012 308.398654 
L 121.797101 325.318062 
L 124.821189 341.298643 
L 127.845278 356.405437 
L 130.869366 370.705697 
L 133.893455 384.25221 
L 136.917543 397.097712 
L 139.941632 409.285994 
L 142.96572 420.858034 
L 145.989808 431.853619 
L 149.013897 442.310566 
L 152.037985 452.25768 
L 155.062074 461.726024 
L 158.086162 470.753364 
L 161.110251 479.361866 
L 164.134339 487.574951 
L 167.158428 495.402595 
L 170.182516 502.863052 
L 173.206605 509.967505 
L 176.230693 516.757658 
L 179.254782 523.249328 
L 182.27887 529.458903 
L 185.302959 535.392547 
L 188.327047 541.055014 
L 191.351136 546.458603 
L 194.375224 551.620656 
L 197.399313 556.554629 
L 200.423401 561.268446 
L 203.44749 565.771764 
L 209.495667 574.182935 
L 215.543844 581.85703 
L 221.592021 588.845891 
L 224.616109 592.088915 
L 227.640198 595.166872 
L 230.664286 598.075022 
L 233.688375 600.811054 
L 236.712463 603.371024 
L 239.736552 605.763054 
L 242.76064 607.985522 
L 245.784728 610.045258 
L 248.808817 611.963842 
L 254.856994 615.416796 
L 260.905171 618.389498 
L 266.953348 620.961911 
L 273.001525 623.200671 
L 279.049702 625.151968 
L 285.097879 626.866591 
L 291.146056 628.377005 
L 300.218321 630.334202 
L 309.290587 631.992063 
L 318.362852 633.398772 
L 327.435118 634.608417 
L 339.531472 635.983866 
L 351.627825 637.131534 
L 366.748268 638.333061 
L 384.892799 639.509111 
L 406.061418 640.606773 
L 430.254126 641.605059 
L 457.470922 642.492469 
L 490.735896 643.34329 
L 530.049046 644.118564 
L 581.45855 644.876355 
L 641.94032 645.530846 
L 729.638886 646.20118 
L 832.457895 646.741515 
L 971.565965 647.234616 
L 995.758673 647.302135 
L 995.758673 647.302135 
" clip-path="url(#p187cf692db)" style="fill: none; stroke: #2ca02c; stroke-width: 5; stroke-linecap: round"/>
   </g>
   <g id="line2d_19">
    <path d="M 88.532127 67.941699 
L 91.556216 108.560238 
L 94.580304 147.103291 
L 97.604393 182.31068 
L 100.628481 214.559072 
L 103.65257 244.173739 
L 106.676658 271.427812 
L 109.700747 296.606194 
L 112.724835 319.858095 
L 115.748924 341.382759 
L 118.773012 361.371477 
L 121.797101 379.948627 
L 124.821189 397.245032 
L 127.845278 413.371417 
L 130.869366 428.428291 
L 133.893455 442.491103 
L 136.917543 455.652571 
L 139.941632 468.001076 
L 142.96572 479.56996 
L 145.989808 490.42025 
L 149.013897 500.593566 
L 152.037985 510.163012 
L 155.062074 519.185469 
L 158.086162 527.636914 
L 161.110251 535.573435 
L 164.134339 543.060138 
L 167.158428 550.119269 
L 170.182516 556.763068 
L 173.206605 562.989654 
L 176.230693 568.848561 
L 179.254782 574.362629 
L 182.27887 579.554336 
L 185.302959 584.427982 
L 188.327047 589.003916 
L 191.351136 593.300943 
L 194.375224 597.332337 
L 197.399313 601.11115 
L 200.423401 604.644991 
L 203.44749 607.934875 
L 206.471578 610.966637 
L 209.495667 613.729795 
L 212.519755 616.235928 
L 215.543844 618.497452 
L 218.567932 620.549192 
L 221.592021 622.403344 
L 224.616109 624.078425 
L 227.640198 625.593895 
L 230.664286 626.965762 
L 236.712463 629.340734 
L 242.76064 631.328597 
L 248.808817 632.978715 
L 254.856994 634.395279 
L 260.905171 635.592935 
L 269.977436 637.101371 
L 279.049702 638.329387 
L 288.121967 639.346274 
L 300.218321 640.456307 
L 312.314675 641.354637 
L 327.435118 642.260047 
L 345.579648 643.116012 
L 366.748268 643.892756 
L 393.965064 644.652289 
L 427.230038 645.340109 
L 469.567276 645.973681 
L 524.000869 646.5477 
L 593.554904 647.048966 
L 690.325736 647.509902 
L 826.409718 647.9151 
L 995.758673 648.224467 
L 995.758673 648.224467 
" clip-path="url(#p187cf692db)" style="fill: none; stroke: #d62728; stroke-width: 5; stroke-linecap: round"/>
   </g>
   <g id="line2d_20">
    <path d="M 88.532127 67.941702 
L 91.556216 118.229226 
L 94.580304 164.901376 
L 97.604393 206.641279 
L 100.628481 244.129094 
L 103.65257 277.913183 
L 106.676658 308.480042 
L 109.700747 336.229378 
L 112.724835 361.479045 
L 115.748924 384.518527 
L 118.773012 405.554512 
L 121.797101 424.911798 
L 124.821189 442.653282 
L 127.845278 458.992862 
L 130.869366 474.051887 
L 133.893455 487.945541 
L 136.917543 500.788184 
L 139.941632 512.652219 
L 142.96572 523.630432 
L 145.989808 533.821185 
L 149.013897 543.258366 
L 152.037985 551.977772 
L 155.062074 560.068941 
L 158.086162 567.577282 
L 161.110251 574.538708 
L 164.134339 580.953036 
L 167.158428 586.887089 
L 170.182516 592.39591 
L 173.206605 597.46673 
L 176.230693 602.144061 
L 179.254782 606.457162 
L 182.27887 610.418867 
L 185.302959 614.043195 
L 188.327047 617.328345 
L 191.351136 620.242545 
L 194.375224 622.828822 
L 197.399313 625.107449 
L 200.423401 627.079587 
L 203.44749 628.830155 
L 206.471578 630.37674 
L 209.495667 631.728613 
L 212.519755 632.930159 
L 218.567932 634.948548 
L 224.616109 636.574351 
L 230.664286 637.899014 
L 236.712463 638.984232 
L 245.784728 640.309394 
L 254.856994 641.353465 
L 263.929259 642.184856 
L 276.025613 643.070158 
L 291.146056 643.919524 
L 309.290587 644.685535 
L 330.459206 645.350567 
L 357.676002 645.975211 
L 393.965064 646.56059 
L 439.326392 647.060194 
L 502.83225 647.521852 
L 593.554904 647.932483 
L 723.590709 648.277837 
L 929.228726 648.576312 
L 995.758673 648.640492 
L 995.758673 648.640492 
" clip-path="url(#p187cf692db)" style="fill: none; stroke: #9467bd; stroke-width: 5; stroke-linecap: round"/>
   </g>
   <g id="line2d_21">
    <path d="M 88.532127 67.941693 
L 91.556216 127.716014 
L 94.580304 181.982279 
L 97.604393 229.528254 
L 100.628481 271.419669 
L 103.65257 308.525254 
L 106.676658 341.544469 
L 109.700747 371.044284 
L 112.724835 397.503076 
L 115.748924 421.315311 
L 118.773012 442.803912 
L 121.797101 462.245095 
L 124.821189 479.890741 
L 127.845278 495.941362 
L 130.869366 510.521721 
L 133.893455 523.789785 
L 136.917543 535.923406 
L 139.941632 546.983709 
L 142.96572 557.064099 
L 145.989808 566.264822 
L 149.013897 574.657014 
L 152.037985 582.309526 
L 155.062074 589.281806 
L 158.086162 595.603417 
L 161.110251 601.34662 
L 164.134339 606.586411 
L 167.158428 611.281804 
L 170.182516 615.525051 
L 173.206605 619.345828 
L 176.230693 622.712069 
L 179.254782 625.635364 
L 182.27887 628.12793 
L 185.302959 630.244382 
L 188.327047 632.056859 
L 191.351136 633.622763 
L 194.375224 634.955283 
L 197.399313 636.097564 
L 200.423401 637.104867 
L 206.471578 638.750375 
L 212.519755 640.037725 
L 218.567932 641.06614 
L 224.616109 641.903702 
L 233.688375 642.897409 
L 242.76064 643.668233 
L 254.856994 644.457565 
L 269.977436 645.189001 
L 288.121967 645.829757 
L 312.314675 646.432793 
L 342.55556 646.95115 
L 384.892799 647.433552 
L 439.326392 647.827645 
L 520.976781 648.18815 
L 641.94032 648.488832 
L 865.722868 648.77051 
L 995.758673 648.86154 
L 995.758673 648.86154 
" clip-path="url(#p187cf692db)" style="fill: none; stroke: #8c564b; stroke-width: 5; stroke-linecap: round"/>
   </g>
   <g id="line2d_22">
    <path d="M 88.532127 67.941693 
L 91.556216 137.022344 
L 94.580304 198.387639 
L 97.604393 251.084251 
L 100.628481 296.669505 
L 103.65257 336.379958 
L 106.676658 371.158406 
L 109.700747 401.784859 
L 112.724835 428.880789 
L 115.748924 452.93803 
L 118.773012 474.366598 
L 121.797101 493.527929 
L 124.821189 510.700901 
L 127.845278 526.091757 
L 130.869366 539.905571 
L 133.893455 552.307027 
L 136.917543 563.464544 
L 139.941632 573.484826 
L 142.96572 582.469214 
L 145.989808 590.525097 
L 149.013897 597.706549 
L 152.037985 604.114754 
L 155.062074 609.880815 
L 158.086162 614.96357 
L 161.110251 619.454265 
L 164.134339 623.414 
L 167.158428 626.832799 
L 170.182516 629.695541 
L 173.206605 632.057511 
L 176.230693 634.003321 
L 179.254782 635.632542 
L 182.27887 636.99527 
L 185.302959 638.138957 
L 188.327047 639.102415 
L 194.375224 640.655409 
L 200.423401 641.82528 
L 206.471578 642.738993 
L 212.519755 643.464178 
L 221.592021 644.30738 
L 233.688375 645.12852 
L 248.808817 645.8496 
L 266.953348 646.451255 
L 291.146056 646.997032 
L 321.386941 647.448724 
L 363.724179 647.853398 
L 427.230038 648.216817 
L 524.000869 648.524209 
L 684.277559 648.77967 
L 971.565965 648.982563 
L 995.758673 648.993211 
L 995.758673 648.993211 
" clip-path="url(#p187cf692db)" style="fill: none; stroke: #e377c2; stroke-width: 5; stroke-linecap: round"/>
   </g>
   <g id="line2d_23">
    <path d="M 88.532127 67.941693 
L 91.556216 146.153338 
L 94.580304 214.15003 
L 97.604393 271.407873 
L 100.628481 320.070286 
L 103.65257 361.789249 
L 106.676658 397.780896 
L 109.700747 429.040307 
L 112.724835 456.334726 
L 115.748924 480.266012 
L 118.773012 501.313383 
L 121.797101 519.860635 
L 124.821189 536.285115 
L 127.845278 550.79751 
L 130.869366 563.631379 
L 133.893455 574.988953 
L 136.917543 584.990681 
L 139.941632 593.903698 
L 142.96572 601.622013 
L 145.989808 608.449268 
L 149.013897 614.406658 
L 152.037985 619.581871 
L 155.062074 624.071897 
L 158.086162 627.904427 
L 161.110251 631.068398 
L 164.134339 633.641586 
L 167.158428 635.6822 
L 170.182516 637.335031 
L 173.206605 638.682025 
L 176.230693 639.796168 
L 179.254782 640.709649 
L 182.27887 641.49501 
L 188.327047 642.706424 
L 194.375224 643.626261 
L 200.423401 644.322411 
L 206.471578 644.87852 
L 215.543844 645.516739 
L 227.640198 646.146175 
L 242.76064 646.694447 
L 263.929259 647.21113 
L 291.146056 647.638554 
L 339.531472 648.096254 
L 390.940976 648.372775 
L 487.711807 648.660044 
L 651.012585 648.888733 
L 959.469611 649.065514 
L 995.758673 649.077689 
L 995.758673 649.077689 
" clip-path="url(#p187cf692db)" style="fill: none; stroke: #7f7f7f; stroke-width: 5; stroke-linecap: round"/>
   </g>
   <g id="line2d_24">
    <path d="M 88.532127 67.941693 
L 91.556216 155.108659 
L 94.580304 229.29902 
L 97.604393 290.580595 
L 100.628481 341.796906 
L 103.65257 384.994128 
L 106.676658 421.758758 
L 109.700747 453.306381 
L 112.724835 480.426324 
L 115.748924 503.943342 
L 118.773012 524.346915 
L 121.797101 542.095323 
L 124.821189 557.58565 
L 127.845278 571.023186 
L 130.869366 582.781362 
L 133.893455 592.925299 
L 136.917543 601.726761 
L 139.941632 609.317059 
L 142.96572 615.834851 
L 145.989808 621.407311 
L 149.013897 626.152267 
L 152.037985 630.095209 
L 155.062074 633.286213 
L 158.086162 635.797107 
L 161.110251 637.736666 
L 164.134339 639.26358 
L 167.158428 640.462187 
L 170.182516 641.45013 
L 173.206605 642.267928 
L 176.230693 642.930324 
L 182.27887 643.979831 
L 188.327047 644.721385 
L 197.399313 645.547888 
L 206.471578 646.135253 
L 218.567932 646.68667 
L 236.712463 647.238306 
L 260.905171 647.69955 
L 294.170144 648.082744 
L 342.55556 648.402918 
L 430.254126 648.704338 
L 578.434462 648.927289 
L 862.698779 649.095344 
L 995.758673 649.134892 
L 995.758673 649.134892 
" clip-path="url(#p187cf692db)" style="fill: none; stroke: #bcbd22; stroke-width: 5; stroke-linecap: round"/>
   </g>
   <g id="line2d_25">
    <path d="M 88.532127 67.941693 
L 91.556216 163.899792 
L 94.580304 243.869557 
L 97.604393 308.710163 
L 100.628481 361.984474 
L 103.65257 406.293945 
L 106.676658 443.475108 
L 109.700747 474.921395 
L 112.724835 501.677511 
L 115.748924 524.538292 
L 118.773012 544.107031 
L 121.797101 560.906194 
L 124.821189 575.290266 
L 127.845278 587.630036 
L 130.869366 598.123787 
L 133.893455 607.065632 
L 136.917543 614.615756 
L 139.941632 620.960728 
L 142.96572 626.26263 
L 145.989808 630.66682 
L 149.013897 634.125627 
L 152.037985 636.81048 
L 155.062074 638.817639 
L 158.086162 640.342853 
L 161.110251 641.508956 
L 164.134339 642.467116 
L 170.182516 643.837928 
L 176.230693 644.777145 
L 182.27887 645.456772 
L 191.351136 646.176649 
L 203.44749 646.813856 
L 218.567932 647.328045 
L 239.736552 647.779049 
L 269.977436 648.162338 
L 315.338764 648.481862 
L 393.965064 648.760006 
L 557.265842 648.99314 
L 862.698779 649.14398 
L 995.758673 649.175563 
L 995.758673 649.175563 
" clip-path="url(#p187cf692db)" style="fill: none; stroke: #17becf; stroke-width: 5; stroke-linecap: round"/>
   </g>
   <g id="patch_3">
    <path d="M 88.532127 678.237256 
L 88.532127 38.88 
" style="fill: none; stroke: #262626; stroke-width: 0.8; stroke-linejoin: miter; stroke-linecap: square"/>
   </g>
   <g id="patch_4">
    <path d="M 88.532127 678.237256 
L 1041.12 678.237256 
" style="fill: none; stroke: #262626; stroke-width: 0.8; stroke-linejoin: miter; stroke-linecap: square"/>
   </g>
  </g>
 </g>
 <defs>
  <clipPath id="p187cf692db">
   <rect x="88.532127" y="38.88" width="952.587873" height="639.357256"/>
  </clipPath>
 </defs>
</svg>
