<?xml version="1.0" encoding="utf-8" standalone="no"?>
<!DOCTYPE svg PUBLIC "-//W3C//DTD SVG 1.1//EN"
  "http://www.w3.org/Graphics/SVG/1.1/DTD/svg11.dtd">
<svg xmlns:xlink="http://www.w3.org/1999/xlink" width="1080pt" height="576pt" viewBox="0 0 1080 576" xmlns="http://www.w3.org/2000/svg" version="1.1">
 <metadata>
  <rdf:RDF xmlns:dc="http://purl.org/dc/elements/1.1/" xmlns:cc="http://creativecommons.org/ns#" xmlns:rdf="http://www.w3.org/1999/02/22-rdf-syntax-ns#">
   <cc:Work>
    <dc:type rdf:resource="http://purl.org/dc/dcmitype/StillImage"/>
    <dc:date>2024-06-24T13:23:05.483617</dc:date>
    <dc:format>image/svg+xml</dc:format>
    <dc:creator>
     <cc:Agent>
      <dc:title>Matplotlib v3.9.0, https://matplotlib.org/</dc:title>
     </cc:Agent>
    </dc:creator>
   </cc:Work>
  </rdf:RDF>
 </metadata>
 <defs>
  <style type="text/css">*{stroke-linejoin: round; stroke-linecap: butt}</style>
 </defs>
 <g id="figure_1">
  <g id="patch_1">
   <path d="M 0 576 
L 1080 576 
L 1080 0 
L 0 0 
z
" style="fill: #ffffff"/>
  </g>
  <g id="axes_1">
   <g id="patch_2">
    <path d="M 51.593955 521.153031 
L 942.34616 521.153031 
L 942.34616 51.564121 
L 51.593955 51.564121 
z
" style="fill: #eaeaf2"/>
   </g>
   <g id="matplotlib.axis_1">
    <g id="xtick_1">
     <g id="line2d_1">
      <path d="M 51.593955 521.153031 
L 51.593955 51.564121 
" clip-path="url(#pe4dd9ac6c1)" style="fill: none; stroke: #ffffff; stroke-linecap: round"/>
     </g>
     <g id="line2d_2"/>
     <g id="text_1">
      <!-- $\mathdefault{0.0}$ -->
      <g style="fill: #262626" transform="translate(42.868663 537.838907) scale(0.14 -0.14)">
       <defs>
        <path id="CMR17-30" d="M 2688 2025 
C 2688 2416 2682 3080 2413 3591 
C 2176 4039 1798 4198 1466 4198 
C 1158 4198 768 4058 525 3597 
C 269 3118 243 2524 243 2025 
C 243 1661 250 1106 448 619 
C 723 -39 1216 -128 1466 -128 
C 1760 -128 2208 -7 2470 600 
C 2662 1042 2688 1559 2688 2025 
z
M 1466 -26 
C 1056 -26 813 325 723 812 
C 653 1188 653 1738 653 2096 
C 653 2588 653 2997 736 3387 
C 858 3929 1216 4096 1466 4096 
C 1728 4096 2067 3923 2189 3400 
C 2272 3036 2278 2607 2278 2096 
C 2278 1680 2278 1169 2202 792 
C 2067 95 1690 -26 1466 -26 
z
" transform="scale(0.015625)"/>
        <path id="CMMI12-3a" d="M 1178 307 
C 1178 492 1024 619 870 619 
C 685 619 557 466 557 313 
C 557 128 710 0 864 0 
C 1050 0 1178 153 1178 307 
z
" transform="scale(0.015625)"/>
       </defs>
       <use xlink:href="#CMR17-30" transform="scale(0.996264)"/>
       <use xlink:href="#CMMI12-3a" transform="translate(45.690477 0) scale(0.996264)"/>
       <use xlink:href="#CMR17-30" transform="translate(72.787654 0) scale(0.996264)"/>
      </g>
     </g>
    </g>
    <g id="xtick_2">
     <g id="line2d_3">
      <path d="M 221.261041 521.153031 
L 221.261041 51.564121 
" clip-path="url(#pe4dd9ac6c1)" style="fill: none; stroke: #ffffff; stroke-linecap: round"/>
     </g>
     <g id="line2d_4"/>
     <g id="text_2">
      <!-- $\mathdefault{0.2}$ -->
      <g style="fill: #262626" transform="translate(212.53575 537.838907) scale(0.14 -0.14)">
       <defs>
        <path id="CMR17-32" d="M 2669 989 
L 2554 989 
C 2490 536 2438 459 2413 420 
C 2381 369 1920 369 1830 369 
L 602 369 
C 832 619 1280 1072 1824 1597 
C 2214 1967 2669 2402 2669 3035 
C 2669 3790 2067 4224 1395 4224 
C 691 4224 262 3604 262 3030 
C 262 2780 448 2748 525 2748 
C 589 2748 781 2787 781 3010 
C 781 3207 614 3264 525 3264 
C 486 3264 448 3258 422 3245 
C 544 3790 915 4058 1306 4058 
C 1862 4058 2227 3617 2227 3035 
C 2227 2479 1901 2000 1536 1584 
L 262 146 
L 262 0 
L 2515 0 
L 2669 989 
z
" transform="scale(0.015625)"/>
       </defs>
       <use xlink:href="#CMR17-30" transform="scale(0.996264)"/>
       <use xlink:href="#CMMI12-3a" transform="translate(45.690477 0) scale(0.996264)"/>
       <use xlink:href="#CMR17-32" transform="translate(72.787654 0) scale(0.996264)"/>
      </g>
     </g>
    </g>
    <g id="xtick_3">
     <g id="line2d_5">
      <path d="M 390.928128 521.153031 
L 390.928128 51.564121 
" clip-path="url(#pe4dd9ac6c1)" style="fill: none; stroke: #ffffff; stroke-linecap: round"/>
     </g>
     <g id="line2d_6"/>
     <g id="text_3">
      <!-- $\mathdefault{0.4}$ -->
      <g style="fill: #262626" transform="translate(382.202837 537.838907) scale(0.14 -0.14)">
       <defs>
        <path id="CMR17-34" d="M 2150 4122 
C 2150 4256 2144 4256 2029 4256 
L 128 1254 
L 128 1088 
L 1779 1088 
L 1779 457 
C 1779 224 1766 160 1318 160 
L 1197 160 
L 1197 0 
C 1402 0 1747 0 1965 0 
C 2182 0 2528 0 2733 0 
L 2733 160 
L 2611 160 
C 2163 160 2150 224 2150 457 
L 2150 1088 
L 2803 1088 
L 2803 1254 
L 2150 1254 
L 2150 4122 
z
M 1798 3703 
L 1798 1254 
L 256 1254 
L 1798 3703 
z
" transform="scale(0.015625)"/>
       </defs>
       <use xlink:href="#CMR17-30" transform="scale(0.996264)"/>
       <use xlink:href="#CMMI12-3a" transform="translate(45.690477 0) scale(0.996264)"/>
       <use xlink:href="#CMR17-34" transform="translate(72.787654 0) scale(0.996264)"/>
      </g>
     </g>
    </g>
    <g id="xtick_4">
     <g id="line2d_7">
      <path d="M 560.595215 521.153031 
L 560.595215 51.564121 
" clip-path="url(#pe4dd9ac6c1)" style="fill: none; stroke: #ffffff; stroke-linecap: round"/>
     </g>
     <g id="line2d_8"/>
     <g id="text_4">
      <!-- $\mathdefault{0.6}$ -->
      <g style="fill: #262626" transform="translate(551.869924 537.838907) scale(0.14 -0.14)">
       <defs>
        <path id="CMR17-36" d="M 678 2176 
C 678 3690 1395 4032 1811 4032 
C 1946 4032 2272 4009 2400 3776 
C 2298 3776 2106 3776 2106 3553 
C 2106 3381 2246 3323 2336 3323 
C 2394 3323 2566 3348 2566 3560 
C 2566 3954 2246 4179 1805 4179 
C 1043 4179 243 3390 243 1984 
C 243 253 966 -128 1478 -128 
C 2099 -128 2688 427 2688 1283 
C 2688 2081 2170 2662 1517 2662 
C 1126 2662 838 2407 678 1960 
L 678 2176 
z
M 1478 25 
C 691 25 691 1200 691 1436 
C 691 1896 909 2560 1504 2560 
C 1613 2560 1926 2560 2138 2120 
C 2253 1870 2253 1609 2253 1289 
C 2253 944 2253 690 2118 434 
C 1978 171 1773 25 1478 25 
z
" transform="scale(0.015625)"/>
       </defs>
       <use xlink:href="#CMR17-30" transform="scale(0.996264)"/>
       <use xlink:href="#CMMI12-3a" transform="translate(45.690477 0) scale(0.996264)"/>
       <use xlink:href="#CMR17-36" transform="translate(72.787654 0) scale(0.996264)"/>
      </g>
     </g>
    </g>
    <g id="xtick_5">
     <g id="line2d_9">
      <path d="M 730.262302 521.153031 
L 730.262302 51.564121 
" clip-path="url(#pe4dd9ac6c1)" style="fill: none; stroke: #ffffff; stroke-linecap: round"/>
     </g>
     <g id="line2d_10"/>
     <g id="text_5">
      <!-- $\mathdefault{0.8}$ -->
      <g style="fill: #262626" transform="translate(721.537011 537.838907) scale(0.14 -0.14)">
       <defs>
        <path id="CMR17-38" d="M 1741 2264 
C 2144 2467 2554 2773 2554 3263 
C 2554 3841 1990 4179 1472 4179 
C 890 4179 378 3759 378 3180 
C 378 3021 416 2747 666 2505 
C 730 2442 998 2251 1171 2130 
C 883 1983 211 1634 211 934 
C 211 279 838 -128 1459 -128 
C 2144 -128 2720 362 2720 1010 
C 2720 1590 2330 1857 2074 2029 
L 1741 2264 
z
M 902 2822 
C 851 2854 595 3051 595 3351 
C 595 3739 998 4032 1459 4032 
C 1965 4032 2336 3676 2336 3262 
C 2336 2669 1670 2331 1638 2331 
C 1632 2331 1626 2331 1574 2370 
L 902 2822 
z
M 2080 1519 
C 2176 1449 2483 1240 2483 851 
C 2483 381 2010 25 1472 25 
C 890 25 448 438 448 940 
C 448 1443 838 1862 1280 2060 
L 2080 1519 
z
" transform="scale(0.015625)"/>
       </defs>
       <use xlink:href="#CMR17-30" transform="scale(0.996264)"/>
       <use xlink:href="#CMMI12-3a" transform="translate(45.690477 0) scale(0.996264)"/>
       <use xlink:href="#CMR17-38" transform="translate(72.787654 0) scale(0.996264)"/>
      </g>
     </g>
    </g>
    <g id="xtick_6">
     <g id="line2d_11">
      <path d="M 899.929389 521.153031 
L 899.929389 51.564121 
" clip-path="url(#pe4dd9ac6c1)" style="fill: none; stroke: #ffffff; stroke-linecap: round"/>
     </g>
     <g id="line2d_12"/>
     <g id="text_6">
      <!-- $\mathdefault{1.0}$ -->
      <g style="fill: #262626" transform="translate(891.204098 537.838907) scale(0.14 -0.14)">
       <defs>
        <path id="CMR17-31" d="M 1702 4058 
C 1702 4192 1696 4192 1606 4192 
C 1357 3916 979 3827 621 3827 
C 602 3827 570 3827 563 3808 
C 557 3795 557 3782 557 3648 
C 755 3648 1088 3686 1344 3839 
L 1344 461 
C 1344 236 1331 160 781 160 
L 589 160 
L 589 0 
C 896 0 1216 0 1523 0 
C 1830 0 2150 0 2458 0 
L 2458 160 
L 2266 160 
C 1715 160 1702 230 1702 458 
L 1702 4058 
z
" transform="scale(0.015625)"/>
       </defs>
       <use xlink:href="#CMR17-31" transform="scale(0.996264)"/>
       <use xlink:href="#CMMI12-3a" transform="translate(45.690477 0) scale(0.996264)"/>
       <use xlink:href="#CMR17-30" transform="translate(72.787654 0) scale(0.996264)"/>
      </g>
     </g>
    </g>
    <g id="text_7">
     <!-- $x$ -->
     <g style="fill: #262626" transform="translate(492.535333 555.620524) scale(0.16 -0.16)">
      <defs>
       <path id="CMMI12-78" d="M 3034 2606 
C 2829 2567 2752 2414 2752 2293 
C 2752 2139 2874 2088 2963 2088 
C 3155 2088 3290 2254 3290 2427 
C 3290 2695 2982 2816 2714 2816 
C 2323 2816 2106 2433 2048 2312 
C 1901 2816 1504 2816 1389 2816 
C 736 2816 390 1980 390 1839 
C 390 1814 416 1782 461 1782 
C 512 1782 525 1820 538 1846 
C 755 2555 1184 2689 1370 2689 
C 1658 2689 1715 2420 1715 2267 
C 1715 2127 1677 1980 1600 1673 
L 1382 798 
C 1286 415 1101 64 762 64 
C 730 64 570 64 435 147 
C 666 192 717 383 717 460 
C 717 588 621 664 499 664 
C 346 664 179 530 179 326 
C 179 57 480 -64 755 -64 
C 1062 -64 1280 179 1414 441 
C 1517 64 1837 -64 2074 -64 
C 2726 -64 3072 773 3072 913 
C 3072 945 3046 971 3008 971 
C 2950 971 2944 939 2925 888 
C 2752 326 2381 64 2093 64 
C 1869 64 1747 230 1747 492 
C 1747 632 1773 734 1875 1156 
L 2099 2024 
C 2195 2408 2413 2689 2707 2689 
C 2720 2689 2899 2689 3034 2606 
z
" transform="scale(0.015625)"/>
      </defs>
      <use xlink:href="#CMMI12-78" transform="scale(0.996264)"/>
     </g>
    </g>
   </g>
   <g id="matplotlib.axis_2">
    <g id="ytick_1">
     <g id="line2d_13">
      <path d="M 51.593955 499.80808 
L 942.34616 499.80808 
" clip-path="url(#pe4dd9ac6c1)" style="fill: none; stroke: #ffffff; stroke-linecap: round"/>
     </g>
     <g id="line2d_14"/>
     <g id="text_8">
      <!-- $\mathdefault{0}$ -->
      <g style="fill: #262626" transform="translate(37.765466 504.651018) scale(0.14 -0.14)">
       <use xlink:href="#CMR17-30" transform="scale(0.996264)"/>
      </g>
     </g>
    </g>
    <g id="ytick_2">
     <g id="line2d_15">
      <path d="M 51.593955 433.777048 
L 942.34616 433.777048 
" clip-path="url(#pe4dd9ac6c1)" style="fill: none; stroke: #ffffff; stroke-linecap: round"/>
     </g>
     <g id="line2d_16"/>
     <g id="text_9">
      <!-- $\mathdefault{200}$ -->
      <g style="fill: #262626" transform="translate(24.108489 438.619986) scale(0.14 -0.14)">
       <use xlink:href="#CMR17-32" transform="scale(0.996264)"/>
       <use xlink:href="#CMR17-30" transform="translate(45.690477 0) scale(0.996264)"/>
       <use xlink:href="#CMR17-30" transform="translate(91.380954 0) scale(0.996264)"/>
      </g>
     </g>
    </g>
    <g id="ytick_3">
     <g id="line2d_17">
      <path d="M 51.593955 367.746016 
L 942.34616 367.746016 
" clip-path="url(#pe4dd9ac6c1)" style="fill: none; stroke: #ffffff; stroke-linecap: round"/>
     </g>
     <g id="line2d_18"/>
     <g id="text_10">
      <!-- $\mathdefault{400}$ -->
      <g style="fill: #262626" transform="translate(24.108489 372.588954) scale(0.14 -0.14)">
       <use xlink:href="#CMR17-34" transform="scale(0.996264)"/>
       <use xlink:href="#CMR17-30" transform="translate(45.690477 0) scale(0.996264)"/>
       <use xlink:href="#CMR17-30" transform="translate(91.380954 0) scale(0.996264)"/>
      </g>
     </g>
    </g>
    <g id="ytick_4">
     <g id="line2d_19">
      <path d="M 51.593955 301.714984 
L 942.34616 301.714984 
" clip-path="url(#pe4dd9ac6c1)" style="fill: none; stroke: #ffffff; stroke-linecap: round"/>
     </g>
     <g id="line2d_20"/>
     <g id="text_11">
      <!-- $\mathdefault{600}$ -->
      <g style="fill: #262626" transform="translate(24.108489 306.557922) scale(0.14 -0.14)">
       <use xlink:href="#CMR17-36" transform="scale(0.996264)"/>
       <use xlink:href="#CMR17-30" transform="translate(45.690477 0) scale(0.996264)"/>
       <use xlink:href="#CMR17-30" transform="translate(91.380954 0) scale(0.996264)"/>
      </g>
     </g>
    </g>
    <g id="ytick_5">
     <g id="line2d_21">
      <path d="M 51.593955 235.683952 
L 942.34616 235.683952 
" clip-path="url(#pe4dd9ac6c1)" style="fill: none; stroke: #ffffff; stroke-linecap: round"/>
     </g>
     <g id="line2d_22"/>
     <g id="text_12">
      <!-- $\mathdefault{800}$ -->
      <g style="fill: #262626" transform="translate(24.108489 240.52689) scale(0.14 -0.14)">
       <use xlink:href="#CMR17-38" transform="scale(0.996264)"/>
       <use xlink:href="#CMR17-30" transform="translate(45.690477 0) scale(0.996264)"/>
       <use xlink:href="#CMR17-30" transform="translate(91.380954 0) scale(0.996264)"/>
      </g>
     </g>
    </g>
    <g id="ytick_6">
     <g id="line2d_23">
      <path d="M 51.593955 169.652919 
L 942.34616 169.652919 
" clip-path="url(#pe4dd9ac6c1)" style="fill: none; stroke: #ffffff; stroke-linecap: round"/>
     </g>
     <g id="line2d_24"/>
     <g id="text_13">
      <!-- $\mathdefault{1000}$ -->
      <g style="fill: #262626" transform="translate(17.28 174.495858) scale(0.14 -0.14)">
       <use xlink:href="#CMR17-31" transform="scale(0.996264)"/>
       <use xlink:href="#CMR17-30" transform="translate(45.690477 0) scale(0.996264)"/>
       <use xlink:href="#CMR17-30" transform="translate(91.380954 0) scale(0.996264)"/>
       <use xlink:href="#CMR17-30" transform="translate(137.071431 0) scale(0.996264)"/>
      </g>
     </g>
    </g>
    <g id="ytick_7">
     <g id="line2d_25">
      <path d="M 51.593955 103.621887 
L 942.34616 103.621887 
" clip-path="url(#pe4dd9ac6c1)" style="fill: none; stroke: #ffffff; stroke-linecap: round"/>
     </g>
     <g id="line2d_26"/>
     <g id="text_14">
      <!-- $\mathdefault{1200}$ -->
      <g style="fill: #262626" transform="translate(17.28 108.464825) scale(0.14 -0.14)">
       <use xlink:href="#CMR17-31" transform="scale(0.996264)"/>
       <use xlink:href="#CMR17-32" transform="translate(45.690477 0) scale(0.996264)"/>
       <use xlink:href="#CMR17-30" transform="translate(91.380954 0) scale(0.996264)"/>
       <use xlink:href="#CMR17-30" transform="translate(137.071431 0) scale(0.996264)"/>
      </g>
     </g>
    </g>
   </g>
   <g id="line2d_27">
    <path d="M 51.593955 499.80808 
L 60.077309 499.80808 
L 68.560663 499.80808 
L 77.044018 499.80808 
L 85.527372 499.80808 
L 94.010726 499.80808 
L 102.494081 499.80808 
L 110.977435 499.80808 
L 119.460789 499.80808 
L 127.944144 499.80808 
L 136.427498 499.80808 
L 144.910852 499.80808 
L 153.394207 499.80808 
L 161.877561 499.80808 
L 170.360915 499.80808 
L 178.84427 499.80808 
L 187.327624 499.80808 
L 195.810978 499.80808 
L 204.294333 499.80808 
L 212.777687 499.80808 
L 221.261041 499.80808 
L 229.744396 499.80808 
L 238.22775 499.80808 
L 246.711104 499.80808 
L 255.194459 499.80808 
L 263.677813 499.80808 
L 272.161167 499.80808 
L 280.644522 499.80808 
L 289.127876 499.80808 
L 297.61123 499.80808 
L 306.094585 499.80808 
L 314.577939 499.80808 
L 323.061293 499.80808 
L 331.544648 499.80808 
L 340.028002 499.80808 
L 348.511356 499.80808 
L 356.994711 499.80808 
L 365.478065 499.80808 
L 373.96142 499.80808 
L 382.444774 499.80808 
L 390.928128 499.80808 
L 399.411483 499.80808 
L 407.894837 499.80808 
L 416.378191 499.80808 
L 424.861546 499.80808 
L 433.3449 499.80808 
L 441.828254 499.80808 
L 450.311609 499.80808 
L 458.794963 499.80808 
L 467.278317 499.80808 
L 475.761672 499.80808 
L 484.245026 499.80808 
L 492.72838 499.80808 
L 501.211735 499.80808 
L 509.695089 499.80808 
L 518.178443 499.80808 
L 526.661798 499.80808 
L 535.145152 499.80808 
L 543.628506 499.80808 
L 552.111861 499.80808 
L 560.595215 499.80808 
L 569.078569 499.80808 
L 577.561924 499.80808 
L 586.045278 499.80808 
L 594.528632 499.80808 
L 603.011987 499.80808 
L 611.495341 499.80808 
L 619.978695 499.80808 
L 628.46205 499.80808 
L 636.945404 499.80808 
L 645.428758 499.80808 
L 653.912113 499.80808 
L 662.395467 499.80808 
L 670.878821 499.80808 
L 679.362176 499.80808 
L 687.84553 499.80808 
L 696.328885 499.80808 
L 704.812239 499.80808 
L 713.295593 499.80808 
L 721.778948 499.80808 
L 730.262302 499.80808 
L 738.745656 499.80808 
L 747.229011 499.80808 
L 755.712365 499.80808 
L 764.195719 499.80808 
L 772.679074 499.80808 
L 781.162428 499.80808 
L 789.645782 499.80808 
L 798.129137 499.80808 
L 806.612491 499.80808 
L 815.095845 499.80808 
L 823.5792 499.80808 
L 832.062554 499.80808 
L 840.545908 499.80808 
L 849.029263 499.80808 
L 857.512617 499.80808 
L 865.995971 499.80808 
L 874.479326 499.80808 
L 882.96268 499.80808 
L 891.446034 499.80808 
L 899.929389 499.80808 
" clip-path="url(#pe4dd9ac6c1)" style="fill: none; stroke: #393b79; stroke-width: 2; stroke-linecap: round"/>
   </g>
   <g id="line2d_28">
    <path d="M 51.593955 481.509527 
L 60.077309 481.747359 
L 68.560663 481.981415 
L 77.044018 482.211774 
L 85.527372 482.438505 
L 94.010726 482.661679 
L 102.494081 482.881367 
L 110.977435 483.097634 
L 119.460789 483.310548 
L 127.944144 483.520194 
L 136.427498 483.726653 
L 144.910852 483.929985 
L 153.394207 484.130246 
L 161.877561 484.327493 
L 170.360915 484.521782 
L 178.84427 484.713164 
L 187.327624 484.901693 
L 195.810978 485.087421 
L 204.294333 485.270399 
L 212.777687 485.450675 
L 221.261041 485.6283 
L 229.744396 485.803321 
L 238.22775 485.975782 
L 246.711104 486.145731 
L 255.194459 486.313212 
L 263.677813 486.478269 
L 272.161167 486.640947 
L 280.644522 486.801303 
L 289.127876 486.959386 
L 297.61123 487.115236 
L 306.094585 487.26889 
L 314.577939 487.420383 
L 323.061293 487.569754 
L 331.544648 487.717037 
L 340.028002 487.862266 
L 348.511356 488.005476 
L 356.994711 488.146701 
L 365.478065 488.285973 
L 373.96142 488.423325 
L 382.444774 488.558789 
L 390.928128 488.692395 
L 399.411483 488.824173 
L 407.894837 488.954154 
L 416.378191 489.082367 
L 424.861546 489.208842 
L 433.3449 489.333605 
L 441.828254 489.456686 
L 450.311609 489.57811 
L 458.794963 489.697906 
L 467.278317 489.816098 
L 475.761672 489.932715 
L 484.245026 490.047789 
L 492.72838 490.16135 
L 501.211735 490.273421 
L 509.695089 490.384026 
L 518.178443 490.493186 
L 526.661798 490.600923 
L 535.145152 490.70726 
L 543.628506 490.812216 
L 552.111861 490.915813 
L 560.595215 491.018072 
L 569.078569 491.119012 
L 577.561924 491.218654 
L 586.045278 491.317016 
L 594.528632 491.414118 
L 603.011987 491.50998 
L 611.495341 491.604618 
L 619.978695 491.698052 
L 628.46205 491.790299 
L 636.945404 491.881377 
L 645.428758 491.971304 
L 653.912113 492.060095 
L 662.395467 492.147768 
L 670.878821 492.234339 
L 679.362176 492.319824 
L 687.84553 492.404239 
L 696.328885 492.4876 
L 704.812239 492.569922 
L 713.295593 492.65122 
L 721.778948 492.731509 
L 730.262302 492.810803 
L 738.745656 492.889117 
L 747.229011 492.966464 
L 755.712365 493.042859 
L 764.195719 493.118315 
L 772.679074 493.192846 
L 781.162428 493.266466 
L 789.645782 493.339194 
L 798.129137 493.411041 
L 806.612491 493.48202 
L 815.095845 493.552142 
L 823.5792 493.621418 
L 832.062554 493.689862 
L 840.545908 493.757483 
L 849.029263 493.824292 
L 857.512617 493.890302 
L 865.995971 493.955522 
L 874.479326 494.019964 
L 882.96268 494.083637 
L 891.446034 494.146552 
L 899.929389 494.208719 
" clip-path="url(#pe4dd9ac6c1)" style="fill: none; stroke: #6b6ecf; stroke-width: 2; stroke-linecap: round"/>
   </g>
   <g id="line2d_29">
    <path d="M 51.593955 459.178667 
L 60.077309 459.844302 
L 68.560663 460.494881 
L 77.044018 461.131007 
L 85.527372 461.753112 
L 94.010726 462.361581 
L 102.494081 462.956785 
L 110.977435 463.53909 
L 119.460789 464.10895 
L 127.944144 464.666788 
L 136.427498 465.212915 
L 144.910852 465.747643 
L 153.394207 466.27126 
L 161.877561 466.784062 
L 170.360915 467.286402 
L 178.84427 467.778635 
L 187.327624 468.261014 
L 195.810978 468.733782 
L 204.294333 469.197179 
L 212.777687 469.651438 
L 221.261041 470.096782 
L 229.744396 470.533498 
L 238.22775 470.96186 
L 246.711104 471.382071 
L 255.194459 471.794318 
L 263.677813 472.198791 
L 272.161167 472.595678 
L 280.644522 472.985149 
L 289.127876 473.367381 
L 297.61123 473.742586 
L 306.094585 474.110986 
L 314.577939 474.472735 
L 323.061293 474.827983 
L 331.544648 475.176872 
L 340.028002 475.519542 
L 348.511356 475.856135 
L 356.994711 476.186784 
L 365.478065 476.511619 
L 373.96142 476.830777 
L 382.444774 477.144441 
L 390.928128 477.452742 
L 399.411483 477.755793 
L 407.894837 478.053702 
L 416.378191 478.34658 
L 424.861546 478.634531 
L 433.3449 478.917656 
L 441.828254 479.196057 
L 450.311609 479.469832 
L 458.794963 479.739076 
L 467.278317 480.003884 
L 475.761672 480.264375 
L 484.245026 480.520668 
L 492.72838 480.772844 
L 501.211735 481.020984 
L 509.695089 481.265168 
L 518.178443 481.505472 
L 526.661798 481.741972 
L 535.145152 481.974743 
L 543.628506 482.203856 
L 552.111861 482.429382 
L 560.595215 482.651391 
L 569.078569 482.869951 
L 577.561924 483.085127 
L 586.045278 483.296985 
L 594.528632 483.505607 
L 603.011987 483.711076 
L 611.495341 483.91345 
L 619.978695 484.112785 
L 628.46205 484.309137 
L 636.945404 484.502558 
L 645.428758 484.693104 
L 653.912113 484.880824 
L 662.395467 485.065771 
L 670.878821 485.247994 
L 679.362176 485.427541 
L 687.84553 485.604461 
L 696.328885 485.778801 
L 704.812239 485.950606 
L 713.295593 486.119921 
L 721.778948 486.286792 
L 730.262302 486.451259 
L 738.745656 486.613367 
L 747.229011 486.773171 
L 755.712365 486.930722 
L 764.195719 487.086059 
L 772.679074 487.239219 
L 781.162428 487.390236 
L 789.645782 487.539149 
L 798.129137 487.685991 
L 806.612491 487.830796 
L 815.095845 487.973599 
L 823.5792 488.114433 
L 832.062554 488.253329 
L 840.545908 488.390321 
L 849.029263 488.525438 
L 857.512617 488.658712 
L 865.995971 488.790173 
L 874.479326 488.91985 
L 882.96268 489.047773 
L 891.446034 489.173969 
L 899.929389 489.298468 
" clip-path="url(#pe4dd9ac6c1)" style="fill: none; stroke: #637939; stroke-width: 2; stroke-linecap: round"/>
   </g>
   <g id="line2d_30">
    <path d="M 51.593955 431.897682 
L 60.077309 433.288095 
L 68.560663 434.636097 
L 77.044018 435.943742 
L 85.527372 437.212535 
L 94.010726 438.444226 
L 102.494081 439.640387 
L 110.977435 440.802299 
L 119.460789 441.931547 
L 127.944144 443.029354 
L 136.427498 444.09683 
L 144.910852 445.135355 
L 153.394207 446.145973 
L 161.877561 447.129617 
L 170.360915 448.087429 
L 178.84427 449.020394 
L 187.327624 449.929308 
L 195.810978 450.815005 
L 204.294333 451.678481 
L 212.777687 452.520462 
L 221.261041 453.341602 
L 229.744396 454.14262 
L 238.22775 454.924348 
L 246.711104 455.687386 
L 255.194459 456.432281 
L 263.677813 457.159591 
L 272.161167 457.870039 
L 280.644522 458.564152 
L 289.127876 459.242403 
L 297.61123 459.90524 
L 306.094585 460.553137 
L 314.577939 461.186689 
L 323.061293 461.806318 
L 331.544648 462.412397 
L 340.028002 463.005295 
L 348.511356 463.585378 
L 356.994711 464.153111 
L 365.478065 464.708895 
L 373.96142 465.253042 
L 382.444774 465.785857 
L 390.928128 466.30763 
L 399.411483 466.81865 
L 407.894837 467.319281 
L 416.378191 467.809866 
L 424.861546 468.290653 
L 433.3449 468.761884 
L 441.828254 469.223795 
L 450.311609 469.676618 
L 458.794963 470.120576 
L 467.278317 470.55596 
L 475.761672 470.983038 
L 484.245026 471.402005 
L 492.72838 471.813051 
L 501.211735 472.216364 
L 509.695089 472.612124 
L 518.178443 473.000511 
L 526.661798 473.381695 
L 535.145152 473.75589 
L 543.628506 474.123315 
L 552.111861 474.48412 
L 560.595215 474.838452 
L 569.078569 475.186458 
L 577.561924 475.528275 
L 586.045278 475.86404 
L 594.528632 476.19389 
L 603.011987 476.517953 
L 611.495341 476.836363 
L 619.978695 477.149306 
L 628.46205 477.45691 
L 636.945404 477.759286 
L 645.428758 478.056545 
L 653.912113 478.348792 
L 662.395467 478.636132 
L 670.878821 478.918667 
L 679.362176 479.196498 
L 687.84553 479.469721 
L 696.328885 479.738433 
L 704.812239 480.002724 
L 713.295593 480.262717 
L 721.778948 480.518527 
L 730.262302 480.770237 
L 738.745656 481.017926 
L 747.229011 481.261673 
L 755.712365 481.501554 
L 764.195719 481.737646 
L 772.679074 481.970022 
L 781.162428 482.198753 
L 789.645782 482.423911 
L 798.129137 482.645565 
L 806.612491 482.863781 
L 815.095845 483.078625 
L 823.5792 483.290163 
L 832.062554 483.498474 
L 840.545908 483.703644 
L 849.029263 483.905729 
L 857.512617 484.104785 
L 865.995971 484.300867 
L 874.479326 484.494028 
L 882.96268 484.684323 
L 891.446034 484.871801 
L 899.929389 485.056514 
" clip-path="url(#pe4dd9ac6c1)" style="fill: none; stroke: #b5cf6b; stroke-width: 2; stroke-linecap: round"/>
   </g>
   <g id="line2d_31">
    <path d="M 51.593955 398.497074 
L 60.077309 401.069245 
L 68.560663 403.53895 
L 77.044018 405.911985 
L 85.527372 408.193778 
L 94.010726 410.389443 
L 102.494081 412.503533 
L 110.977435 414.54042 
L 119.460789 416.504228 
L 127.944144 418.39853 
L 136.427498 420.227021 
L 144.910852 421.992823 
L 153.394207 423.699114 
L 161.877561 425.348664 
L 170.360915 426.944258 
L 178.84427 428.488295 
L 187.327624 429.983285 
L 195.810978 431.431279 
L 204.294333 432.83457 
L 212.777687 434.194916 
L 221.261041 435.514362 
L 229.744396 436.794562 
L 238.22775 438.037104 
L 246.711104 439.243746 
L 255.194459 440.415764 
L 263.677813 441.554644 
L 272.161167 442.661796 
L 280.644522 443.738286 
L 289.127876 444.785413 
L 297.61123 445.804376 
L 306.094585 446.796104 
L 314.577939 447.761624 
L 323.061293 448.702071 
L 331.544648 449.618247 
L 340.028002 450.510934 
L 348.511356 451.381131 
L 356.994711 452.229637 
L 365.478065 453.057121 
L 373.96142 453.864252 
L 382.444774 454.651874 
L 390.928128 455.420639 
L 399.411483 456.171107 
L 407.894837 456.903821 
L 416.378191 457.619445 
L 424.861546 458.318606 
L 433.3449 459.001771 
L 441.828254 459.669395 
L 450.311609 460.321924 
L 458.794963 460.959937 
L 467.278317 461.583912 
L 475.761672 462.194232 
L 484.245026 462.791268 
L 492.72838 463.37538 
L 501.211735 463.946983 
L 509.695089 464.506539 
L 518.178443 465.054371 
L 526.661798 465.590781 
L 535.145152 466.116065 
L 543.628506 466.630513 
L 552.111861 467.134442 
L 560.595215 467.628238 
L 569.078569 468.112165 
L 577.561924 468.586464 
L 586.045278 469.051375 
L 594.528632 469.507131 
L 603.011987 469.953958 
L 611.495341 470.392103 
L 619.978695 470.821876 
L 628.46205 471.24348 
L 636.945404 471.65711 
L 645.428758 472.06295 
L 653.912113 472.461184 
L 662.395467 472.85199 
L 670.878821 473.235543 
L 679.362176 473.612029 
L 687.84553 473.981687 
L 696.328885 474.34468 
L 704.812239 474.701158 
L 713.295593 475.051264 
L 721.778948 475.395142 
L 730.262302 475.732928 
L 738.745656 476.064756 
L 747.229011 476.390759 
L 755.712365 476.711065 
L 764.195719 477.025841 
L 772.679074 477.335243 
L 781.162428 477.639384 
L 789.645782 477.938374 
L 798.129137 478.23232 
L 806.612491 478.521328 
L 815.095845 478.8055 
L 823.5792 479.084937 
L 832.062554 479.359737 
L 840.545908 479.629995 
L 849.029263 479.895806 
L 857.512617 480.157271 
L 865.995971 480.414523 
L 874.479326 480.667648 
L 882.96268 480.916729 
L 891.446034 481.161844 
L 899.929389 481.40307 
" clip-path="url(#pe4dd9ac6c1)" style="fill: none; stroke: #8c6d31; stroke-width: 2; stroke-linecap: round"/>
   </g>
   <g id="line2d_32">
    <path d="M 51.593955 357.494628 
L 60.077309 361.949694 
L 68.560663 366.177268 
L 77.044018 370.194049 
L 85.527372 374.0151 
L 94.010726 377.654162 
L 102.494081 381.123725 
L 110.977435 384.435147 
L 119.460789 387.598801 
L 127.944144 390.624128 
L 136.427498 393.519836 
L 144.910852 396.293898 
L 153.394207 398.953626 
L 161.877561 401.505821 
L 170.360915 403.95676 
L 178.84427 406.312136 
L 187.327624 408.577262 
L 195.810978 410.757203 
L 204.294333 412.85648 
L 212.777687 414.879324 
L 221.261041 416.829845 
L 229.744396 418.71158 
L 238.22775 420.528118 
L 246.711104 422.282627 
L 255.194459 423.978141 
L 263.677813 425.617511 
L 272.161167 427.203371 
L 280.644522 428.738196 
L 289.127876 430.224371 
L 297.61123 431.663984 
L 306.094585 433.059269 
L 314.577939 434.411967 
L 323.061293 435.724134 
L 331.544648 436.997346 
L 340.028002 438.233251 
L 348.511356 439.433516 
L 356.994711 440.599411 
L 365.478065 441.732471 
L 373.96142 442.834008 
L 382.444774 443.90511 
L 390.928128 444.947106 
L 399.411483 445.961116 
L 407.894837 446.948074 
L 416.378191 447.909056 
L 424.861546 448.845122 
L 433.3449 449.757064 
L 441.828254 450.645688 
L 450.311609 451.511999 
L 458.794963 452.356747 
L 467.278317 453.180597 
L 475.761672 453.984232 
L 484.245026 454.768505 
L 492.72838 455.53403 
L 501.211735 456.281362 
L 509.695089 457.011044 
L 518.178443 457.723771 
L 526.661798 458.420125 
L 535.145152 459.10057 
L 543.628506 459.765557 
L 552.111861 460.415542 
L 560.595215 461.051113 
L 569.078569 461.672721 
L 577.561924 462.280742 
L 586.045278 462.875547 
L 594.528632 463.457497 
L 603.011987 464.027025 
L 611.495341 464.584568 
L 619.978695 465.130445 
L 628.46205 465.664956 
L 636.945404 466.188396 
L 645.428758 466.701054 
L 653.912113 467.203261 
L 662.395467 467.695389 
L 670.878821 468.177693 
L 679.362176 468.650415 
L 687.84553 469.113792 
L 696.328885 469.568054 
L 704.812239 470.013428 
L 713.295593 470.450175 
L 721.778948 470.878591 
L 730.262302 471.298874 
L 738.745656 471.711215 
L 747.229011 472.115802 
L 755.712365 472.512815 
L 764.195719 472.902431 
L 772.679074 473.284826 
L 781.162428 473.66019 
L 789.645782 474.028762 
L 798.129137 474.390698 
L 806.612491 474.746144 
L 815.095845 475.095245 
L 823.5792 475.43814 
L 832.062554 475.774969 
L 840.545908 476.105865 
L 849.029263 476.430958 
L 857.512617 476.750377 
L 865.995971 477.064298 
L 874.479326 477.372865 
L 882.96268 477.676191 
L 891.446034 477.974385 
L 899.929389 478.267555 
" clip-path="url(#pe4dd9ac6c1)" style="fill: none; stroke: #e7cb94; stroke-width: 2; stroke-linecap: round"/>
   </g>
   <g id="line2d_33">
    <path d="M 51.593955 307.008073 
L 60.077309 314.419463 
L 68.560663 321.35311 
L 77.044018 327.853304 
L 85.527372 333.958941 
L 94.010726 339.70444 
L 102.494081 345.120418 
L 110.977435 350.234083 
L 119.460789 355.069658 
L 127.944144 359.648917 
L 136.427498 363.991422 
L 144.910852 368.114763 
L 153.394207 372.034855 
L 161.877561 375.766138 
L 170.360915 379.321688 
L 178.84427 382.713398 
L 187.327624 385.952108 
L 195.810978 389.047764 
L 204.294333 392.009417 
L 212.777687 394.845443 
L 221.261041 397.56349 
L 229.744396 400.170585 
L 238.22775 402.673199 
L 246.711104 405.077356 
L 255.194459 407.388667 
L 263.677813 409.612234 
L 272.161167 411.752783 
L 280.644522 413.814844 
L 289.127876 415.802459 
L 297.61123 417.719467 
L 306.094585 419.569552 
L 314.577939 421.3559 
L 323.061293 423.081822 
L 331.544648 424.750053 
L 340.028002 426.36352 
L 348.511356 427.924598 
L 356.994711 429.435907 
L 365.478065 430.899509 
L 373.96142 432.317723 
L 382.444774 433.692441 
L 390.928128 435.025549 
L 399.411483 436.318941 
L 407.894837 437.574116 
L 416.378191 438.79288 
L 424.861546 439.976618 
L 433.3449 441.126669 
L 441.828254 442.244595 
L 450.311609 443.331522 
L 458.794963 444.388603 
L 467.278317 445.417186 
L 475.761672 446.418242 
L 484.245026 447.392709 
L 492.72838 448.341767 
L 501.211735 449.266299 
L 509.695089 450.167088 
L 518.178443 451.04502 
L 526.661798 451.901043 
L 535.145152 452.735829 
L 543.628506 453.550027 
L 552.111861 454.344413 
L 560.595215 455.119758 
L 569.078569 455.87663 
L 577.561924 456.615569 
L 586.045278 457.337157 
L 594.528632 458.042103 
L 603.011987 458.730904 
L 611.495341 459.404015 
L 619.978695 460.061885 
L 628.46205 460.705016 
L 636.945404 461.333973 
L 645.428758 461.949151 
L 653.912113 462.550923 
L 662.395467 463.139654 
L 670.878821 463.715711 
L 679.362176 464.279582 
L 687.84553 464.831622 
L 696.328885 465.372137 
L 704.812239 465.90143 
L 713.295593 466.419793 
L 721.778948 466.927513 
L 730.262302 467.424976 
L 738.745656 467.912484 
L 747.229011 468.390285 
L 755.712365 468.858617 
L 764.195719 469.317716 
L 772.679074 469.76781 
L 781.162428 470.209125 
L 789.645782 470.641967 
L 798.129137 471.066575 
L 806.612491 471.483142 
L 815.095845 471.891857 
L 823.5792 472.292903 
L 832.062554 472.686462 
L 840.545908 473.072709 
L 849.029263 473.451814 
L 857.512617 473.824008 
L 865.995971 474.189487 
L 874.479326 474.5484 
L 882.96268 474.900893 
L 891.446034 475.247109 
L 899.929389 475.587185 
" clip-path="url(#pe4dd9ac6c1)" style="fill: none; stroke: #ad494a; stroke-width: 2; stroke-linecap: round"/>
   </g>
   <g id="line2d_34">
    <path d="M 51.593955 244.644803 
L 60.077309 256.653572 
L 68.560663 267.696665 
L 77.044018 277.885179 
L 85.527372 287.313772 
L 94.010726 296.063672 
L 102.494081 304.205053 
L 110.977435 311.798629 
L 119.460789 318.89735 
L 127.944144 325.547484 
L 136.427498 331.789844 
L 144.910852 337.660399 
L 153.394207 343.190902 
L 161.877561 348.409751 
L 170.360915 353.34224 
L 178.84427 358.010923 
L 187.327624 362.436113 
L 195.810978 366.63613 
L 204.294333 370.627388 
L 212.777687 374.424855 
L 221.261041 378.042055 
L 229.744396 381.491295 
L 238.22775 384.783797 
L 246.711104 387.9298 
L 255.194459 390.938675 
L 263.677813 393.819019 
L 272.161167 396.578714 
L 280.644522 399.224977 
L 289.127876 401.764526 
L 297.61123 404.203567 
L 306.094585 406.547792 
L 314.577939 408.802423 
L 323.061293 410.972429 
L 331.544648 413.062398 
L 340.028002 415.076417 
L 348.511356 417.018593 
L 356.994711 418.892465 
L 365.478065 420.701521 
L 373.96142 422.44899 
L 382.444774 424.137789 
L 390.928128 425.77082 
L 399.411483 427.350601 
L 407.894837 428.879702 
L 416.378191 430.360404 
L 424.861546 431.794836 
L 433.3449 433.185166 
L 441.828254 434.533151 
L 450.311609 435.840825 
L 458.794963 437.109722 
L 467.278317 438.341545 
L 475.761672 439.537894 
L 484.245026 440.700037 
L 492.72838 441.829536 
L 501.211735 442.927644 
L 509.695089 443.995458 
L 518.178443 445.034329 
L 526.661798 446.04534 
L 535.145152 447.029403 
L 543.628506 447.987628 
L 552.111861 448.921041 
L 560.595215 449.830431 
L 569.078569 450.716609 
L 577.561924 451.580576 
L 586.045278 452.423065 
L 594.528632 453.244738 
L 603.011987 454.046284 
L 611.495341 454.828551 
L 619.978695 455.592143 
L 628.46205 456.337609 
L 636.945404 457.065491 
L 645.428758 457.776493 
L 653.912113 458.471182 
L 662.395467 459.150018 
L 670.878821 459.813452 
L 679.362176 460.461941 
L 687.84553 461.096075 
L 696.328885 461.716288 
L 704.812239 462.322963 
L 713.295593 462.916466 
L 721.778948 463.497156 
L 730.262302 464.065476 
L 738.745656 464.621851 
L 747.229011 465.166594 
L 755.712365 465.700006 
L 764.195719 466.222381 
L 772.679074 466.734007 
L 781.162428 467.235223 
L 789.645782 467.726393 
L 798.129137 468.207765 
L 806.612491 468.679584 
L 815.095845 469.142086 
L 823.5792 469.595498 
L 832.062554 470.040049 
L 840.545908 470.476004 
L 849.029263 470.90365 
L 857.512617 471.323187 
L 865.995971 471.734803 
L 874.479326 472.138685 
L 882.96268 472.535015 
L 891.446034 472.923969 
L 899.929389 473.305719 
" clip-path="url(#pe4dd9ac6c1)" style="fill: none; stroke: #e7969c; stroke-width: 2; stroke-linecap: round"/>
   </g>
   <g id="line2d_35">
    <path d="M 51.593955 167.380519 
L 60.077309 186.48904 
L 68.560663 203.698742 
L 77.044018 219.277714 
L 85.527372 233.445853 
L 94.010726 246.385309 
L 102.494081 258.248318 
L 110.977435 269.162884 
L 119.460789 279.237532 
L 127.944144 288.564745 
L 136.427498 297.224107 
L 144.910852 305.284203 
L 153.394207 312.804507 
L 161.877561 319.837001 
L 170.360915 326.427133 
L 178.84427 332.614893 
L 187.327624 338.4356 
L 195.810978 343.920616 
L 204.294333 349.097691 
L 212.777687 353.991816 
L 221.261041 358.62514 
L 229.744396 363.017727 
L 238.22775 367.187542 
L 246.711104 371.150817 
L 255.194459 374.9223 
L 263.677813 378.515357 
L 272.161167 381.942137 
L 280.644522 385.213663 
L 289.127876 388.340065 
L 297.61123 391.330592 
L 306.094585 394.19374 
L 314.577939 396.937302 
L 323.061293 399.568415 
L 331.544648 402.093711 
L 340.028002 404.519302 
L 348.511356 406.850883 
L 356.994711 409.093575 
L 365.478065 411.252268 
L 373.96142 413.331568 
L 382.444774 415.335487 
L 390.928128 417.268063 
L 399.411483 419.132865 
L 407.894837 420.933276 
L 416.378191 422.672577 
L 424.861546 424.353564 
L 433.3449 425.979192 
L 441.828254 427.551908 
L 450.311609 429.0743 
L 458.794963 430.548549 
L 467.278317 431.976879 
L 475.761672 433.361349 
L 484.245026 434.703745 
L 492.72838 436.006078 
L 501.211735 437.26984 
L 509.695089 438.496789 
L 518.178443 439.688441 
L 526.661798 440.846086 
L 535.145152 441.971284 
L 543.628506 443.065246 
L 552.111861 444.12908 
L 560.595215 445.164146 
L 569.078569 446.17148 
L 577.561924 447.152001 
L 586.045278 448.106851 
L 594.528632 449.036998 
L 603.011987 449.943231 
L 611.495341 450.82638 
L 619.978695 451.687441 
L 628.46205 452.527115 
L 636.945404 453.346062 
L 645.428758 454.144995 
L 653.912113 454.924748 
L 662.395467 455.685898 
L 670.878821 456.428998 
L 679.362176 457.1546 
L 687.84553 457.863413 
L 696.328885 458.555974 
L 704.812239 459.232745 
L 713.295593 459.894177 
L 721.778948 460.540736 
L 730.262302 461.173013 
L 738.745656 461.791422 
L 747.229011 462.396343 
L 755.712365 462.98814 
L 764.195719 463.567173 
L 772.679074 464.133907 
L 781.162428 464.68874 
L 789.645782 465.231983 
L 798.129137 465.763935 
L 806.612491 466.28489 
L 815.095845 466.795135 
L 823.5792 467.295023 
L 832.062554 467.784902 
L 840.545908 468.265018 
L 849.029263 468.735612 
L 857.512617 469.19692 
L 865.995971 469.649171 
L 874.479326 470.092589 
L 882.96268 470.527455 
L 891.446034 470.954042 
L 899.929389 471.372545 
" clip-path="url(#pe4dd9ac6c1)" style="fill: none; stroke: #a55194; stroke-width: 2; stroke-linecap: round"/>
   </g>
   <g id="line2d_36">
    <path d="M 51.593955 72.909071 
L 60.077309 101.876569 
L 68.560663 127.797392 
L 77.044018 151.001895 
L 85.527372 171.790325 
L 94.010726 190.447052 
L 102.494081 207.270278 
L 110.977435 222.516203 
L 119.460789 236.395375 
L 127.944144 249.082453 
L 136.427498 260.723771 
L 144.910852 271.442576 
L 153.394207 281.343398 
L 161.877561 290.515737 
L 170.360915 299.036438 
L 178.84427 306.97193 
L 187.327624 314.379878 
L 195.810978 321.310687 
L 204.294333 327.80847 
L 212.777687 333.912174 
L 221.261041 339.656127 
L 229.744396 345.070812 
L 238.22775 350.183437 
L 246.711104 355.018159 
L 255.194459 359.596787 
L 263.677813 363.938824 
L 272.161167 368.061844 
L 280.644522 371.981745 
L 289.127876 375.712935 
L 297.61123 379.268465 
L 306.094585 382.66023 
L 314.577939 385.899078 
L 323.061293 388.994911 
L 331.544648 391.956821 
L 340.028002 394.793109 
L 348.511356 397.511465 
L 356.994711 400.118911 
L 365.478065 402.621886 
L 373.96142 405.026452 
L 382.444774 407.33818 
L 390.928128 409.562168 
L 399.411483 411.703133 
L 407.894837 413.765638 
L 416.378191 415.753711 
L 424.861546 417.671182 
L 433.3449 419.521729 
L 441.828254 421.308553 
L 450.311609 423.034944 
L 458.794963 424.703639 
L 467.278317 426.31758 
L 475.761672 427.879128 
L 484.245026 429.39091 
L 492.72838 430.854983 
L 501.211735 432.273661 
L 509.695089 433.648841 
L 518.178443 434.982409 
L 526.661798 436.276273 
L 535.145152 437.531903 
L 543.628506 438.751109 
L 552.111861 439.935294 
L 560.595215 441.085786 
L 569.078569 442.204147 
L 577.561924 443.291507 
L 586.045278 444.349015 
L 594.528632 445.378019 
L 603.011987 446.379492 
L 611.495341 447.354372 
L 619.978695 448.303835 
L 628.46205 449.228771 
L 636.945404 450.129958 
L 645.428758 451.008279 
L 653.912113 451.864685 
L 662.395467 452.699852 
L 670.878821 453.514432 
L 679.362176 454.309189 
L 687.84553 455.0849 
L 696.328885 455.84213 
L 704.812239 456.581428 
L 713.295593 457.30337 
L 721.778948 458.008663 
L 730.262302 458.697806 
L 738.745656 459.371258 
L 747.229011 460.029464 
L 755.712365 460.672921 
L 764.195719 461.302201 
L 772.679074 461.917697 
L 781.162428 462.519786 
L 789.645782 463.108831 
L 798.129137 463.685196 
L 806.612491 464.249365 
L 815.095845 464.801703 
L 823.5792 465.342514 
L 832.062554 465.872101 
L 840.545908 466.390754 
L 849.029263 466.898758 
L 857.512617 467.396498 
L 865.995971 467.88428 
L 874.479326 468.362353 
L 882.96268 468.830956 
L 891.446034 469.290323 
L 899.929389 469.740682 
" clip-path="url(#pe4dd9ac6c1)" style="fill: none; stroke: #de9ed6; stroke-width: 2; stroke-linecap: round"/>
   </g>
   <g id="patch_3">
    <path d="M 51.593955 521.153031 
L 51.593955 51.564121 
" style="fill: none"/>
   </g>
   <g id="patch_4">
    <path d="M 942.34616 521.153031 
L 942.34616 51.564121 
" style="fill: none"/>
   </g>
   <g id="patch_5">
    <path d="M 51.593955 521.153031 
L 942.34616 521.153031 
" style="fill: none"/>
   </g>
   <g id="patch_6">
    <path d="M 51.593955 51.564121 
L 942.34616 51.564121 
" style="fill: none"/>
   </g>
   <g id="patch_7">
    <path d="M 475.761672 497.816686 
Q 475.761672 463.844095 475.761672 431.548555 
" style="fill: none; stroke: #000000; stroke-width: 1.5; stroke-linecap: round"/>
    <path d="M 472.561672 437.948555 
L 475.761672 431.548555 
L 478.961672 437.948555 
" style="fill: none; stroke: #000000; stroke-width: 1.5; stroke-linecap: round"/>
   </g>
   <g id="text_15">
    <!-- Time -->
    <g style="fill: #262626" transform="translate(518.178443 424.38116) scale(0.18 -0.18)">
     <defs>
      <path id="CMR17-54" d="M 3981 4326 
L 288 4326 
L 179 2918 
L 294 2918 
C 378 3976 467 4160 1453 4160 
C 1568 4160 1754 4160 1805 4154 
C 1926 4135 1926 4058 1926 3912 
L 1926 459 
C 1926 230 1907 160 1376 160 
L 1197 160 
L 1197 0 
C 1504 0 1824 0 2138 0 
C 2451 0 2771 0 3078 0 
L 3078 160 
L 2899 160 
C 2368 160 2349 230 2349 459 
L 2349 3912 
C 2349 4052 2349 4129 2464 4154 
C 2515 4160 2701 4160 2816 4160 
C 3795 4160 3891 3976 3974 2918 
L 4090 2918 
L 3981 4326 
z
" transform="scale(0.015625)"/>
      <path id="CMR17-69" d="M 992 3909 
C 992 4049 877 4170 730 4170 
C 589 4170 467 4056 467 3909 
C 467 3769 582 3648 730 3648 
C 870 3648 992 3763 992 3909 
z
M 243 2706 
L 243 2541 
C 602 2541 653 2502 653 2197 
L 653 427 
C 653 184 627 153 218 153 
L 218 -13 
C 371 0 646 0 806 0 
C 960 0 1222 0 1370 -13 
L 1370 153 
C 992 153 979 191 979 420 
L 979 2776 
L 243 2706 
z
" transform="scale(0.015625)"/>
      <path id="CMR17-6d" d="M 4326 1933 
C 4326 2252 4269 2790 3507 2790 
C 3072 2790 2771 2496 2656 2151 
L 2650 2151 
C 2573 2676 2195 2790 1837 2790 
C 1331 2790 1069 2400 973 2144 
L 966 2144 
L 966 2790 
L 211 2720 
L 211 2554 
C 589 2554 646 2515 646 2208 
L 646 428 
C 646 184 621 153 211 153 
L 211 -13 
C 365 0 646 0 813 0 
C 979 0 1267 0 1421 -13 
L 1421 153 
C 1011 153 986 178 986 428 
L 986 1658 
C 986 2247 1344 2688 1792 2688 
C 2266 2688 2317 2266 2317 1958 
L 2317 428 
C 2317 184 2291 153 1882 153 
L 1882 -13 
C 2035 0 2317 0 2483 0 
C 2650 0 2938 0 3091 -13 
L 3091 153 
C 2682 153 2656 178 2656 428 
L 2656 1658 
C 2656 2247 3014 2688 3462 2688 
C 3936 2688 3987 2266 3987 1958 
L 3987 428 
C 3987 184 3962 153 3552 153 
L 3552 -13 
C 3706 0 3987 0 4154 0 
C 4320 0 4608 0 4762 -13 
L 4762 153 
C 4352 153 4326 178 4326 428 
L 4326 1933 
z
" transform="scale(0.015625)"/>
      <path id="CMR17-65" d="M 2438 1472 
C 2464 1498 2464 1511 2464 1576 
C 2464 2238 2118 2816 1389 2816 
C 710 2816 173 2169 173 1383 
C 173 551 781 -64 1459 -64 
C 2176 -64 2458 607 2458 740 
C 2458 784 2419 784 2406 784 
C 2362 784 2355 771 2330 696 
C 2189 265 1837 51 1504 51 
C 1229 51 954 203 781 480 
C 582 803 582 1176 582 1472 
L 2438 1472 
z
M 589 1568 
C 634 2505 1126 2714 1382 2714 
C 1818 2714 2112 2297 2118 1568 
L 589 1568 
z
" transform="scale(0.015625)"/>
     </defs>
     <use xlink:href="#CMR17-54" transform="scale(0.996264)"/>
     <use xlink:href="#CMR17-69" transform="translate(66.509881 0) scale(0.996264)"/>
     <use xlink:href="#CMR17-6d" transform="translate(91.380939 0) scale(0.996264)"/>
     <use xlink:href="#CMR17-65" transform="translate(168.300529 0) scale(0.996264)"/>
    </g>
   </g>
   <g id="legend_1">
    <g id="line2d_37">
     <path d="M 954.94616 197.198434 
L 968.94616 197.198434 
L 982.94616 197.198434 
" style="fill: none; stroke: #393b79; stroke-width: 2; stroke-linecap: round"/>
    </g>
    <g id="text_16">
     <!-- t = 0.00 -->
     <g style="fill: #262626" transform="translate(994.14616 202.098434) scale(0.14 -0.14)">
      <defs>
       <path id="CMR17-74" d="M 966 2560 
L 1862 2560 
L 1862 2725 
L 966 2725 
L 966 3904 
L 851 3904 
C 838 3245 614 2668 70 2668 
L 70 2560 
L 627 2560 
L 627 771 
C 627 650 627 -64 1370 -64 
C 1747 -64 1965 306 1965 777 
L 1965 1140 
L 1850 1140 
L 1850 783 
C 1850 344 1677 51 1408 51 
C 1222 51 966 178 966 758 
L 966 2560 
z
" transform="scale(0.015625)"/>
       <path id="CMR17-3d" d="M 4115 2017 
C 4211 2017 4307 2017 4307 2125 
C 4307 2240 4198 2240 4090 2240 
L 512 2240 
C 403 2240 294 2240 294 2125 
C 294 2017 390 2017 486 2017 
L 4115 2017 
z
M 4090 896 
C 4198 896 4307 896 4307 1011 
C 4307 1119 4211 1119 4115 1119 
L 486 1119 
C 390 1119 294 1119 294 1011 
C 294 896 403 896 512 896 
L 4090 896 
z
" transform="scale(0.015625)"/>
       <path id="CMR17-2e" d="M 1062 261 
C 1062 420 934 522 800 522 
C 672 522 538 420 538 261 
C 538 102 666 0 800 0 
C 928 0 1062 102 1062 261 
z
" transform="scale(0.015625)"/>
      </defs>
      <use xlink:href="#CMR17-74" transform="scale(0.996264)"/>
      <use xlink:href="#CMR17-3d" transform="translate(65.356734 0) scale(0.996264)"/>
      <use xlink:href="#CMR17-30" transform="translate(167.147489 0) scale(0.996264)"/>
      <use xlink:href="#CMR17-2e" transform="translate(212.837966 0) scale(0.996264)"/>
      <use xlink:href="#CMR17-30" transform="translate(237.709025 0) scale(0.996264)"/>
      <use xlink:href="#CMR17-30" transform="translate(283.399502 0) scale(0.996264)"/>
     </g>
    </g>
    <g id="line2d_38">
     <path d="M 954.94616 216.710462 
L 968.94616 216.710462 
L 982.94616 216.710462 
" style="fill: none; stroke: #6b6ecf; stroke-width: 2; stroke-linecap: round"/>
    </g>
    <g id="text_17">
     <!-- t = 50.00 -->
     <g style="fill: #262626" transform="translate(994.14616 221.610462) scale(0.14 -0.14)">
      <defs>
       <path id="CMR17-35" d="M 730 3692 
C 794 3666 1056 3584 1325 3584 
C 1920 3584 2246 3911 2432 4100 
C 2432 4157 2432 4192 2394 4192 
C 2387 4192 2374 4192 2323 4163 
C 2099 4058 1837 3973 1517 3973 
C 1325 3973 1037 3999 723 4139 
C 653 4171 640 4171 634 4171 
C 602 4171 595 4164 595 4037 
L 595 2203 
C 595 2089 595 2057 659 2057 
C 691 2057 704 2070 736 2114 
C 941 2401 1222 2522 1542 2522 
C 1766 2522 2246 2382 2246 1289 
C 2246 1085 2246 715 2054 421 
C 1894 159 1645 25 1370 25 
C 947 25 518 320 403 814 
C 429 807 480 795 506 795 
C 589 795 749 840 749 1038 
C 749 1210 627 1280 506 1280 
C 358 1280 262 1190 262 1011 
C 262 454 704 -128 1382 -128 
C 2042 -128 2669 440 2669 1264 
C 2669 2030 2170 2624 1549 2624 
C 1222 2624 947 2503 730 2274 
L 730 3692 
z
" transform="scale(0.015625)"/>
      </defs>
      <use xlink:href="#CMR17-74" transform="scale(0.996264)"/>
      <use xlink:href="#CMR17-3d" transform="translate(65.356734 0) scale(0.996264)"/>
      <use xlink:href="#CMR17-35" transform="translate(167.147489 0) scale(0.996264)"/>
      <use xlink:href="#CMR17-30" transform="translate(212.837966 0) scale(0.996264)"/>
      <use xlink:href="#CMR17-2e" transform="translate(258.528443 0) scale(0.996264)"/>
      <use xlink:href="#CMR17-30" transform="translate(283.399502 0) scale(0.996264)"/>
      <use xlink:href="#CMR17-30" transform="translate(329.089979 0) scale(0.996264)"/>
     </g>
    </g>
    <g id="line2d_39">
     <path d="M 954.94616 236.222491 
L 968.94616 236.222491 
L 982.94616 236.222491 
" style="fill: none; stroke: #637939; stroke-width: 2; stroke-linecap: round"/>
    </g>
    <g id="text_18">
     <!-- t = 100.00 -->
     <g style="fill: #262626" transform="translate(994.14616 241.122491) scale(0.14 -0.14)">
      <use xlink:href="#CMR17-74" transform="scale(0.996264)"/>
      <use xlink:href="#CMR17-3d" transform="translate(65.356734 0) scale(0.996264)"/>
      <use xlink:href="#CMR17-31" transform="translate(167.147489 0) scale(0.996264)"/>
      <use xlink:href="#CMR17-30" transform="translate(212.837966 0) scale(0.996264)"/>
      <use xlink:href="#CMR17-30" transform="translate(258.528443 0) scale(0.996264)"/>
      <use xlink:href="#CMR17-2e" transform="translate(304.21892 0) scale(0.996264)"/>
      <use xlink:href="#CMR17-30" transform="translate(329.089979 0) scale(0.996264)"/>
      <use xlink:href="#CMR17-30" transform="translate(374.780456 0) scale(0.996264)"/>
     </g>
    </g>
    <g id="line2d_40">
     <path d="M 954.94616 255.734519 
L 968.94616 255.734519 
L 982.94616 255.734519 
" style="fill: none; stroke: #b5cf6b; stroke-width: 2; stroke-linecap: round"/>
    </g>
    <g id="text_19">
     <!-- t = 150.00 -->
     <g style="fill: #262626" transform="translate(994.14616 260.634519) scale(0.14 -0.14)">
      <use xlink:href="#CMR17-74" transform="scale(0.996264)"/>
      <use xlink:href="#CMR17-3d" transform="translate(65.356734 0) scale(0.996264)"/>
      <use xlink:href="#CMR17-31" transform="translate(167.147489 0) scale(0.996264)"/>
      <use xlink:href="#CMR17-35" transform="translate(212.837966 0) scale(0.996264)"/>
      <use xlink:href="#CMR17-30" transform="translate(258.528443 0) scale(0.996264)"/>
      <use xlink:href="#CMR17-2e" transform="translate(304.21892 0) scale(0.996264)"/>
      <use xlink:href="#CMR17-30" transform="translate(329.089979 0) scale(0.996264)"/>
      <use xlink:href="#CMR17-30" transform="translate(374.780456 0) scale(0.996264)"/>
     </g>
    </g>
    <g id="line2d_41">
     <path d="M 954.94616 275.246547 
L 968.94616 275.246547 
L 982.94616 275.246547 
" style="fill: none; stroke: #8c6d31; stroke-width: 2; stroke-linecap: round"/>
    </g>
    <g id="text_20">
     <!-- t = 200.00 -->
     <g style="fill: #262626" transform="translate(994.14616 280.146547) scale(0.14 -0.14)">
      <use xlink:href="#CMR17-74" transform="scale(0.996264)"/>
      <use xlink:href="#CMR17-3d" transform="translate(65.356734 0) scale(0.996264)"/>
      <use xlink:href="#CMR17-32" transform="translate(167.147489 0) scale(0.996264)"/>
      <use xlink:href="#CMR17-30" transform="translate(212.837966 0) scale(0.996264)"/>
      <use xlink:href="#CMR17-30" transform="translate(258.528443 0) scale(0.996264)"/>
      <use xlink:href="#CMR17-2e" transform="translate(304.21892 0) scale(0.996264)"/>
      <use xlink:href="#CMR17-30" transform="translate(329.089979 0) scale(0.996264)"/>
      <use xlink:href="#CMR17-30" transform="translate(374.780456 0) scale(0.996264)"/>
     </g>
    </g>
    <g id="line2d_42">
     <path d="M 954.94616 294.758576 
L 968.94616 294.758576 
L 982.94616 294.758576 
" style="fill: none; stroke: #e7cb94; stroke-width: 2; stroke-linecap: round"/>
    </g>
    <g id="text_21">
     <!-- t = 250.00 -->
     <g style="fill: #262626" transform="translate(994.14616 299.658576) scale(0.14 -0.14)">
      <use xlink:href="#CMR17-74" transform="scale(0.996264)"/>
      <use xlink:href="#CMR17-3d" transform="translate(65.356734 0) scale(0.996264)"/>
      <use xlink:href="#CMR17-32" transform="translate(167.147489 0) scale(0.996264)"/>
      <use xlink:href="#CMR17-35" transform="translate(212.837966 0) scale(0.996264)"/>
      <use xlink:href="#CMR17-30" transform="translate(258.528443 0) scale(0.996264)"/>
      <use xlink:href="#CMR17-2e" transform="translate(304.21892 0) scale(0.996264)"/>
      <use xlink:href="#CMR17-30" transform="translate(329.089979 0) scale(0.996264)"/>
      <use xlink:href="#CMR17-30" transform="translate(374.780456 0) scale(0.996264)"/>
     </g>
    </g>
    <g id="line2d_43">
     <path d="M 954.94616 314.270604 
L 968.94616 314.270604 
L 982.94616 314.270604 
" style="fill: none; stroke: #ad494a; stroke-width: 2; stroke-linecap: round"/>
    </g>
    <g id="text_22">
     <!-- t = 300.00 -->
     <g style="fill: #262626" transform="translate(994.14616 319.170604) scale(0.14 -0.14)">
      <defs>
       <path id="CMR17-33" d="M 1414 2157 
C 1984 2157 2234 1662 2234 1090 
C 2234 320 1824 25 1453 25 
C 1114 25 563 194 390 693 
C 422 680 454 680 486 680 
C 640 680 755 782 755 948 
C 755 1133 614 1216 486 1216 
C 378 1216 211 1165 211 926 
C 211 335 787 -128 1466 -128 
C 2176 -128 2720 430 2720 1085 
C 2720 1707 2208 2157 1600 2227 
C 2086 2328 2554 2756 2554 3329 
C 2554 3820 2048 4179 1472 4179 
C 890 4179 378 3829 378 3329 
C 378 3110 544 3072 627 3072 
C 762 3072 877 3155 877 3321 
C 877 3486 762 3569 627 3569 
C 602 3569 570 3569 544 3557 
C 730 3959 1235 4032 1459 4032 
C 1683 4032 2106 3925 2106 3320 
C 2106 3143 2080 2828 1862 2550 
C 1670 2304 1453 2304 1242 2284 
C 1210 2284 1062 2269 1037 2269 
C 992 2263 966 2257 966 2208 
C 966 2163 973 2157 1101 2157 
L 1414 2157 
z
" transform="scale(0.015625)"/>
      </defs>
      <use xlink:href="#CMR17-74" transform="scale(0.996264)"/>
      <use xlink:href="#CMR17-3d" transform="translate(65.356734 0) scale(0.996264)"/>
      <use xlink:href="#CMR17-33" transform="translate(167.147489 0) scale(0.996264)"/>
      <use xlink:href="#CMR17-30" transform="translate(212.837966 0) scale(0.996264)"/>
      <use xlink:href="#CMR17-30" transform="translate(258.528443 0) scale(0.996264)"/>
      <use xlink:href="#CMR17-2e" transform="translate(304.21892 0) scale(0.996264)"/>
      <use xlink:href="#CMR17-30" transform="translate(329.089979 0) scale(0.996264)"/>
      <use xlink:href="#CMR17-30" transform="translate(374.780456 0) scale(0.996264)"/>
     </g>
    </g>
    <g id="line2d_44">
     <path d="M 954.94616 333.782633 
L 968.94616 333.782633 
L 982.94616 333.782633 
" style="fill: none; stroke: #e7969c; stroke-width: 2; stroke-linecap: round"/>
    </g>
    <g id="text_23">
     <!-- t = 350.00 -->
     <g style="fill: #262626" transform="translate(994.14616 338.682633) scale(0.14 -0.14)">
      <use xlink:href="#CMR17-74" transform="scale(0.996264)"/>
      <use xlink:href="#CMR17-3d" transform="translate(65.356734 0) scale(0.996264)"/>
      <use xlink:href="#CMR17-33" transform="translate(167.147489 0) scale(0.996264)"/>
      <use xlink:href="#CMR17-35" transform="translate(212.837966 0) scale(0.996264)"/>
      <use xlink:href="#CMR17-30" transform="translate(258.528443 0) scale(0.996264)"/>
      <use xlink:href="#CMR17-2e" transform="translate(304.21892 0) scale(0.996264)"/>
      <use xlink:href="#CMR17-30" transform="translate(329.089979 0) scale(0.996264)"/>
      <use xlink:href="#CMR17-30" transform="translate(374.780456 0) scale(0.996264)"/>
     </g>
    </g>
    <g id="line2d_45">
     <path d="M 954.94616 353.294661 
L 968.94616 353.294661 
L 982.94616 353.294661 
" style="fill: none; stroke: #a55194; stroke-width: 2; stroke-linecap: round"/>
    </g>
    <g id="text_24">
     <!-- t = 400.00 -->
     <g style="fill: #262626" transform="translate(994.14616 358.194661) scale(0.14 -0.14)">
      <use xlink:href="#CMR17-74" transform="scale(0.996264)"/>
      <use xlink:href="#CMR17-3d" transform="translate(65.356734 0) scale(0.996264)"/>
      <use xlink:href="#CMR17-34" transform="translate(167.147489 0) scale(0.996264)"/>
      <use xlink:href="#CMR17-30" transform="translate(212.837966 0) scale(0.996264)"/>
      <use xlink:href="#CMR17-30" transform="translate(258.528443 0) scale(0.996264)"/>
      <use xlink:href="#CMR17-2e" transform="translate(304.21892 0) scale(0.996264)"/>
      <use xlink:href="#CMR17-30" transform="translate(329.089979 0) scale(0.996264)"/>
      <use xlink:href="#CMR17-30" transform="translate(374.780456 0) scale(0.996264)"/>
     </g>
    </g>
    <g id="line2d_46">
     <path d="M 954.94616 372.806689 
L 968.94616 372.806689 
L 982.94616 372.806689 
" style="fill: none; stroke: #de9ed6; stroke-width: 2; stroke-linecap: round"/>
    </g>
    <g id="text_25">
     <!-- t = 450.00 -->
     <g style="fill: #262626" transform="translate(994.14616 377.706689) scale(0.14 -0.14)">
      <use xlink:href="#CMR17-74" transform="scale(0.996264)"/>
      <use xlink:href="#CMR17-3d" transform="translate(65.356734 0) scale(0.996264)"/>
      <use xlink:href="#CMR17-34" transform="translate(167.147489 0) scale(0.996264)"/>
      <use xlink:href="#CMR17-35" transform="translate(212.837966 0) scale(0.996264)"/>
      <use xlink:href="#CMR17-30" transform="translate(258.528443 0) scale(0.996264)"/>
      <use xlink:href="#CMR17-2e" transform="translate(304.21892 0) scale(0.996264)"/>
      <use xlink:href="#CMR17-30" transform="translate(329.089979 0) scale(0.996264)"/>
      <use xlink:href="#CMR17-30" transform="translate(374.780456 0) scale(0.996264)"/>
     </g>
    </g>
   </g>
  </g>
  <g id="text_26">
   <!-- Auxiliar variable -->
   <g style="fill: #262626" transform="translate(476.179847 24.803515) scale(0.192 -0.192)">
    <defs>
     <path id="CMR17-41" d="M 2323 4378 
C 2291 4461 2278 4480 2214 4480 
C 2150 4480 2138 4461 2106 4378 
L 749 566 
C 627 223 371 153 147 153 
L 147 -13 
C 262 0 518 0 640 0 
C 800 0 1056 0 1210 -13 
L 1210 153 
C 909 153 864 361 864 439 
C 864 497 877 530 890 569 
L 1229 1536 
L 2906 1536 
L 3290 442 
C 3322 365 3322 352 3322 327 
C 3322 153 3046 153 2925 153 
L 2925 0 
C 3110 0 3443 0 3642 0 
C 3808 0 4128 0 4282 -13 
L 4282 153 
C 3942 153 3827 153 3744 387 
L 2323 4378 
z
M 2067 3893 
L 2848 1702 
L 1286 1702 
L 2067 3893 
z
" transform="scale(0.015625)"/>
     <path id="CMR17-75" d="M 1882 2693 
L 1882 2528 
C 2259 2528 2317 2489 2317 2186 
L 2317 1032 
C 2317 500 2029 38 1555 38 
C 1030 38 986 348 986 678 
L 986 2763 
L 211 2693 
L 211 2528 
C 467 2528 640 2528 646 2274 
L 646 1058 
C 646 633 646 361 813 183 
C 896 101 1056 -64 1517 -64 
C 2061 -64 2272 377 2323 506 
L 2330 506 
L 2330 -63 
L 3091 -63 
L 3091 128 
C 2714 128 2656 166 2656 473 
L 2656 2763 
L 1882 2693 
z
" transform="scale(0.015625)"/>
     <path id="CMR17-78" d="M 1664 1477 
C 1856 1726 2074 2006 2253 2216 
C 2464 2458 2707 2560 2989 2560 
L 2989 2726 
C 2880 2726 2656 2726 2541 2726 
C 2368 2726 2170 2726 2022 2732 
L 2022 2566 
C 2112 2553 2163 2489 2163 2400 
C 2163 2285 2099 2215 2067 2171 
L 1594 1573 
L 1030 2306 
C 973 2376 973 2388 973 2420 
C 973 2497 1037 2560 1146 2560 
L 1146 2732 
C 992 2726 717 2726 557 2726 
C 384 2726 179 2726 38 2732 
L 38 2560 
C 384 2560 461 2534 614 2343 
L 1350 1395 
C 1363 1382 1395 1344 1395 1325 
C 1395 1299 838 619 768 530 
C 480 185 179 160 6 160 
L 6 0 
C 115 0 339 0 454 0 
C 582 0 864 0 979 -6 
L 979 160 
C 941 166 838 179 838 325 
C 838 440 890 510 947 586 
L 1478 1236 
L 2035 512 
C 2086 442 2163 346 2163 301 
C 2163 211 2086 160 1984 160 
L 1984 -6 
C 2138 0 2413 0 2573 0 
C 2746 0 2950 0 3091 -6 
L 3091 160 
C 2771 160 2675 172 2522 370 
L 1664 1477 
z
" transform="scale(0.015625)"/>
     <path id="CMR17-6c" d="M 979 4396 
L 218 4326 
L 218 4160 
C 595 4160 653 4122 653 3817 
L 653 426 
C 653 184 627 153 218 153 
L 218 -13 
C 371 0 653 0 813 0 
C 979 0 1261 0 1414 -13 
L 1414 153 
C 1005 153 979 178 979 426 
L 979 4396 
z
" transform="scale(0.015625)"/>
     <path id="CMR17-61" d="M 2304 1653 
C 2304 2072 2304 2294 2035 2543 
C 1798 2752 1523 2816 1306 2816 
C 800 2816 435 2407 435 1971 
C 435 1728 627 1728 666 1728 
C 749 1728 896 1778 896 1954 
C 896 2112 774 2181 666 2181 
C 640 2181 608 2174 589 2168 
C 723 2592 1069 2714 1293 2714 
C 1613 2714 1965 2429 1965 1885 
L 1965 1600 
C 1587 1600 1133 1549 774 1357 
C 371 1133 256 813 256 570 
C 256 77 832 -64 1171 -64 
C 1523 -64 1850 139 1990 511 
C 2003 233 2182 -18 2464 -18 
C 2598 -18 2938 70 2938 567 
L 2938 920 
L 2822 920 
L 2822 562 
C 2822 178 2650 128 2566 128 
C 2304 128 2304 458 2304 738 
L 2304 1653 
z
M 1965 870 
C 1965 317 1568 38 1216 38 
C 896 38 646 275 646 570 
C 646 761 730 1100 1101 1305 
C 1408 1478 1760 1504 1965 1504 
L 1965 870 
z
" transform="scale(0.015625)"/>
     <path id="CMR17-72" d="M 960 1497 
C 960 2112 1222 2688 1702 2688 
C 1747 2688 1792 2682 1837 2662 
C 1837 2662 1696 2617 1696 2452 
C 1696 2298 1818 2234 1914 2234 
C 1990 2234 2131 2279 2131 2458 
C 2131 2663 1926 2790 1709 2790 
C 1222 2790 1011 2317 947 2093 
L 941 2093 
L 941 2790 
L 198 2720 
L 198 2554 
C 576 2554 634 2515 634 2208 
L 634 428 
C 634 184 608 153 198 153 
L 198 -13 
C 352 0 646 0 813 0 
C 998 0 1325 0 1498 -13 
L 1498 153 
C 1037 153 960 153 960 440 
L 960 1497 
z
" transform="scale(0.015625)"/>
     <path id="CMR17-76" d="M 2502 2163 
C 2560 2304 2662 2560 3034 2560 
L 3034 2726 
C 2912 2726 2752 2726 2630 2726 
C 2496 2726 2285 2726 2157 2732 
L 2157 2566 
C 2317 2553 2406 2477 2406 2311 
C 2406 2253 2406 2240 2368 2151 
L 1664 377 
L 902 2286 
C 864 2369 864 2381 864 2407 
C 864 2560 1075 2560 1171 2560 
L 1171 2732 
C 1018 2726 736 2726 576 2726 
C 403 2726 205 2726 64 2732 
L 64 2560 
C 307 2560 442 2560 518 2362 
L 1446 44 
C 1485 -51 1491 -64 1549 -64 
C 1606 -64 1613 -51 1651 44 
L 2502 2163 
z
" transform="scale(0.015625)"/>
     <path id="CMR17-62" d="M 960 4396 
L 198 4326 
L 198 4160 
C 576 4160 634 4122 634 3817 
L 634 -13 
L 749 -13 
L 934 441 
C 1120 141 1395 -64 1766 -64 
C 2406 -64 3053 500 3053 1370 
C 3053 2188 2477 2790 1830 2790 
C 1434 2790 1152 2579 960 2330 
L 960 4396 
z
M 973 2004 
C 973 2118 973 2138 1062 2272 
C 1312 2657 1670 2688 1792 2688 
C 1984 2688 2643 2585 2643 1376 
C 2643 108 1888 38 1734 38 
C 1536 38 1248 114 1043 486 
C 973 608 973 621 973 735 
L 973 2004 
z
" transform="scale(0.015625)"/>
    </defs>
    <use xlink:href="#CMR17-41" transform="scale(0.996264)"/>
    <use xlink:href="#CMR17-75" transform="translate(69.07243 0) scale(0.996264)"/>
    <use xlink:href="#CMR17-78" transform="translate(119.9678 0) scale(0.996264)"/>
    <use xlink:href="#CMR17-69" transform="translate(168.260715 0) scale(0.996264)"/>
    <use xlink:href="#CMR17-6c" transform="translate(193.131774 0) scale(0.996264)"/>
    <use xlink:href="#CMR17-69" transform="translate(218.002832 0) scale(0.996264)"/>
    <use xlink:href="#CMR17-61" transform="translate(242.873891 0) scale(0.996264)"/>
    <use xlink:href="#CMR17-72" transform="translate(288.564368 0) scale(0.996264)"/>
    <use xlink:href="#CMR17-76" transform="translate(353.921102 0) scale(0.996264)"/>
    <use xlink:href="#CMR17-61" transform="translate(397.009201 0) scale(0.996264)"/>
    <use xlink:href="#CMR17-72" transform="translate(442.699678 0) scale(0.996264)"/>
    <use xlink:href="#CMR17-69" transform="translate(477.980446 0) scale(0.996264)"/>
    <use xlink:href="#CMR17-61" transform="translate(502.851505 0) scale(0.996264)"/>
    <use xlink:href="#CMR17-62" transform="translate(548.541982 0) scale(0.996264)"/>
    <use xlink:href="#CMR17-6c" transform="translate(599.437352 0) scale(0.996264)"/>
    <use xlink:href="#CMR17-65" transform="translate(624.30841 0) scale(0.996264)"/>
   </g>
  </g>
 </g>
 <defs>
  <clipPath id="pe4dd9ac6c1">
   <rect x="51.593955" y="51.564121" width="890.752206" height="469.58891"/>
  </clipPath>
 </defs>
</svg>
