<?xml version="1.0" encoding="utf-8" standalone="no"?>
<!DOCTYPE svg PUBLIC "-//W3C//DTD SVG 1.1//EN"
  "http://www.w3.org/Graphics/SVG/1.1/DTD/svg11.dtd">
<svg xmlns:xlink="http://www.w3.org/1999/xlink" width="1080pt" height="756pt" viewBox="0 0 1080 756" xmlns="http://www.w3.org/2000/svg" version="1.1">
 <metadata>
  <rdf:RDF xmlns:dc="http://purl.org/dc/elements/1.1/" xmlns:cc="http://creativecommons.org/ns#" xmlns:rdf="http://www.w3.org/1999/02/22-rdf-syntax-ns#">
   <cc:Work>
    <dc:type rdf:resource="http://purl.org/dc/dcmitype/StillImage"/>
    <dc:date>2024-07-31T08:54:35.146864</dc:date>
    <dc:format>image/svg+xml</dc:format>
    <dc:creator>
     <cc:Agent>
      <dc:title>Matplotlib v3.9.0, https://matplotlib.org/</dc:title>
     </cc:Agent>
    </dc:creator>
   </cc:Work>
  </rdf:RDF>
 </metadata>
 <defs>
  <style type="text/css">*{stroke-linejoin: round; stroke-linecap: butt}</style>
 </defs>
 <g id="figure_1">
  <g id="patch_1">
   <path d="M 0 756 
L 1080 756 
L 1080 0 
L 0 0 
z
" style="fill: #ffffff"/>
  </g>
  <g id="axes_1">
   <g id="patch_2">
    <path d="M 88.532127 678.237256 
L 1041.12 678.237256 
L 1041.12 38.88 
L 88.532127 38.88 
z
" style="fill: #ffffff"/>
   </g>
   <g id="matplotlib.axis_1">
    <g id="xtick_1">
     <g id="line2d_1">
      <defs>
       <path id="md80b9373d2" d="M 0 0 
L 0 3.5 
" style="stroke: #262626; stroke-width: 0.8"/>
      </defs>
      <g>
       <use xlink:href="#md80b9373d2" x="88.532127" y="678.237256" style="fill: #262626; stroke: #262626; stroke-width: 0.8"/>
      </g>
     </g>
     <g id="text_1">
      <!-- $\mathdefault{0.0}$ -->
      <g style="fill: #262626" transform="translate(67.206064 710.143856) scale(0.36 -0.36)">
       <defs>
        <path id="CMR17-30" d="M 2688 2025 
C 2688 2416 2682 3080 2413 3591 
C 2176 4039 1798 4198 1466 4198 
C 1158 4198 768 4058 525 3597 
C 269 3118 243 2524 243 2025 
C 243 1661 250 1106 448 619 
C 723 -39 1216 -128 1466 -128 
C 1760 -128 2208 -7 2470 600 
C 2662 1042 2688 1559 2688 2025 
z
M 1466 -26 
C 1056 -26 813 325 723 812 
C 653 1188 653 1738 653 2096 
C 653 2588 653 2997 736 3387 
C 858 3929 1216 4096 1466 4096 
C 1728 4096 2067 3923 2189 3400 
C 2272 3036 2278 2607 2278 2096 
C 2278 1680 2278 1169 2202 792 
C 2067 95 1690 -26 1466 -26 
z
" transform="scale(0.015625)"/>
        <path id="CMMI12-3a" d="M 1178 307 
C 1178 492 1024 619 870 619 
C 685 619 557 466 557 313 
C 557 128 710 0 864 0 
C 1050 0 1178 153 1178 307 
z
" transform="scale(0.015625)"/>
       </defs>
       <use xlink:href="#CMR17-30" transform="scale(0.996264)"/>
       <use xlink:href="#CMMI12-3a" transform="translate(45.690477 0) scale(0.996264)"/>
       <use xlink:href="#CMR17-30" transform="translate(72.787654 0) scale(0.996264)"/>
      </g>
     </g>
    </g>
    <g id="xtick_2">
     <g id="line2d_2">
      <g>
       <use xlink:href="#md80b9373d2" x="269.977436" y="678.237256" style="fill: #262626; stroke: #262626; stroke-width: 0.8"/>
      </g>
     </g>
     <g id="text_2">
      <!-- $\mathdefault{0.2}$ -->
      <g style="fill: #262626" transform="translate(248.651373 710.143856) scale(0.36 -0.36)">
       <defs>
        <path id="CMR17-32" d="M 2669 989 
L 2554 989 
C 2490 536 2438 459 2413 420 
C 2381 369 1920 369 1830 369 
L 602 369 
C 832 619 1280 1072 1824 1597 
C 2214 1967 2669 2402 2669 3035 
C 2669 3790 2067 4224 1395 4224 
C 691 4224 262 3604 262 3030 
C 262 2780 448 2748 525 2748 
C 589 2748 781 2787 781 3010 
C 781 3207 614 3264 525 3264 
C 486 3264 448 3258 422 3245 
C 544 3790 915 4058 1306 4058 
C 1862 4058 2227 3617 2227 3035 
C 2227 2479 1901 2000 1536 1584 
L 262 146 
L 262 0 
L 2515 0 
L 2669 989 
z
" transform="scale(0.015625)"/>
       </defs>
       <use xlink:href="#CMR17-30" transform="scale(0.996264)"/>
       <use xlink:href="#CMMI12-3a" transform="translate(45.690477 0) scale(0.996264)"/>
       <use xlink:href="#CMR17-32" transform="translate(72.787654 0) scale(0.996264)"/>
      </g>
     </g>
    </g>
    <g id="xtick_3">
     <g id="line2d_3">
      <g>
       <use xlink:href="#md80b9373d2" x="451.422745" y="678.237256" style="fill: #262626; stroke: #262626; stroke-width: 0.8"/>
      </g>
     </g>
     <g id="text_3">
      <!-- $\mathdefault{0.4}$ -->
      <g style="fill: #262626" transform="translate(430.096682 710.143856) scale(0.36 -0.36)">
       <defs>
        <path id="CMR17-34" d="M 2150 4122 
C 2150 4256 2144 4256 2029 4256 
L 128 1254 
L 128 1088 
L 1779 1088 
L 1779 457 
C 1779 224 1766 160 1318 160 
L 1197 160 
L 1197 0 
C 1402 0 1747 0 1965 0 
C 2182 0 2528 0 2733 0 
L 2733 160 
L 2611 160 
C 2163 160 2150 224 2150 457 
L 2150 1088 
L 2803 1088 
L 2803 1254 
L 2150 1254 
L 2150 4122 
z
M 1798 3703 
L 1798 1254 
L 256 1254 
L 1798 3703 
z
" transform="scale(0.015625)"/>
       </defs>
       <use xlink:href="#CMR17-30" transform="scale(0.996264)"/>
       <use xlink:href="#CMMI12-3a" transform="translate(45.690477 0) scale(0.996264)"/>
       <use xlink:href="#CMR17-34" transform="translate(72.787654 0) scale(0.996264)"/>
      </g>
     </g>
    </g>
    <g id="xtick_4">
     <g id="line2d_4">
      <g>
       <use xlink:href="#md80b9373d2" x="632.868055" y="678.237256" style="fill: #262626; stroke: #262626; stroke-width: 0.8"/>
      </g>
     </g>
     <g id="text_4">
      <!-- $\mathdefault{0.6}$ -->
      <g style="fill: #262626" transform="translate(611.541991 710.143856) scale(0.36 -0.36)">
       <defs>
        <path id="CMR17-36" d="M 678 2176 
C 678 3690 1395 4032 1811 4032 
C 1946 4032 2272 4009 2400 3776 
C 2298 3776 2106 3776 2106 3553 
C 2106 3381 2246 3323 2336 3323 
C 2394 3323 2566 3348 2566 3560 
C 2566 3954 2246 4179 1805 4179 
C 1043 4179 243 3390 243 1984 
C 243 253 966 -128 1478 -128 
C 2099 -128 2688 427 2688 1283 
C 2688 2081 2170 2662 1517 2662 
C 1126 2662 838 2407 678 1960 
L 678 2176 
z
M 1478 25 
C 691 25 691 1200 691 1436 
C 691 1896 909 2560 1504 2560 
C 1613 2560 1926 2560 2138 2120 
C 2253 1870 2253 1609 2253 1289 
C 2253 944 2253 690 2118 434 
C 1978 171 1773 25 1478 25 
z
" transform="scale(0.015625)"/>
       </defs>
       <use xlink:href="#CMR17-30" transform="scale(0.996264)"/>
       <use xlink:href="#CMMI12-3a" transform="translate(45.690477 0) scale(0.996264)"/>
       <use xlink:href="#CMR17-36" transform="translate(72.787654 0) scale(0.996264)"/>
      </g>
     </g>
    </g>
    <g id="xtick_5">
     <g id="line2d_5">
      <g>
       <use xlink:href="#md80b9373d2" x="814.313364" y="678.237256" style="fill: #262626; stroke: #262626; stroke-width: 0.8"/>
      </g>
     </g>
     <g id="text_5">
      <!-- $\mathdefault{0.8}$ -->
      <g style="fill: #262626" transform="translate(792.9873 710.143856) scale(0.36 -0.36)">
       <defs>
        <path id="CMR17-38" d="M 1741 2264 
C 2144 2467 2554 2773 2554 3263 
C 2554 3841 1990 4179 1472 4179 
C 890 4179 378 3759 378 3180 
C 378 3021 416 2747 666 2505 
C 730 2442 998 2251 1171 2130 
C 883 1983 211 1634 211 934 
C 211 279 838 -128 1459 -128 
C 2144 -128 2720 362 2720 1010 
C 2720 1590 2330 1857 2074 2029 
L 1741 2264 
z
M 902 2822 
C 851 2854 595 3051 595 3351 
C 595 3739 998 4032 1459 4032 
C 1965 4032 2336 3676 2336 3262 
C 2336 2669 1670 2331 1638 2331 
C 1632 2331 1626 2331 1574 2370 
L 902 2822 
z
M 2080 1519 
C 2176 1449 2483 1240 2483 851 
C 2483 381 2010 25 1472 25 
C 890 25 448 438 448 940 
C 448 1443 838 1862 1280 2060 
L 2080 1519 
z
" transform="scale(0.015625)"/>
       </defs>
       <use xlink:href="#CMR17-30" transform="scale(0.996264)"/>
       <use xlink:href="#CMMI12-3a" transform="translate(45.690477 0) scale(0.996264)"/>
       <use xlink:href="#CMR17-38" transform="translate(72.787654 0) scale(0.996264)"/>
      </g>
     </g>
    </g>
    <g id="xtick_6">
     <g id="line2d_6">
      <g>
       <use xlink:href="#md80b9373d2" x="995.758673" y="678.237256" style="fill: #262626; stroke: #262626; stroke-width: 0.8"/>
      </g>
     </g>
     <g id="text_6">
      <!-- $\mathdefault{1.0}$ -->
      <g style="fill: #262626" transform="translate(974.432609 710.143856) scale(0.36 -0.36)">
       <defs>
        <path id="CMR17-31" d="M 1702 4058 
C 1702 4192 1696 4192 1606 4192 
C 1357 3916 979 3827 621 3827 
C 602 3827 570 3827 563 3808 
C 557 3795 557 3782 557 3648 
C 755 3648 1088 3686 1344 3839 
L 1344 461 
C 1344 236 1331 160 781 160 
L 589 160 
L 589 0 
C 896 0 1216 0 1523 0 
C 1830 0 2150 0 2458 0 
L 2458 160 
L 2266 160 
C 1715 160 1702 230 1702 458 
L 1702 4058 
z
" transform="scale(0.015625)"/>
       </defs>
       <use xlink:href="#CMR17-31" transform="scale(0.996264)"/>
       <use xlink:href="#CMMI12-3a" transform="translate(45.690477 0) scale(0.996264)"/>
       <use xlink:href="#CMR17-30" transform="translate(72.787654 0) scale(0.996264)"/>
      </g>
     </g>
    </g>
   </g>
   <g id="matplotlib.axis_2">
    <g id="ytick_1">
     <g id="line2d_7">
      <defs>
       <path id="m61a32e969e" d="M 0 0 
L -3.5 0 
" style="stroke: #262626; stroke-width: 0.8"/>
      </defs>
      <g>
       <use xlink:href="#m61a32e969e" x="88.532127" y="678.237256" style="fill: #262626; stroke: #262626; stroke-width: 0.8"/>
      </g>
     </g>
     <g id="text_7">
      <!-- $\mathdefault{0.0}$ -->
      <g style="fill: #262626" transform="translate(38.88 690.690556) scale(0.36 -0.36)">
       <use xlink:href="#CMR17-30" transform="scale(0.996264)"/>
       <use xlink:href="#CMMI12-3a" transform="translate(45.690477 0) scale(0.996264)"/>
       <use xlink:href="#CMR17-30" transform="translate(72.787654 0) scale(0.996264)"/>
      </g>
     </g>
    </g>
    <g id="ytick_2">
     <g id="line2d_8">
      <g>
       <use xlink:href="#m61a32e969e" x="88.532127" y="678.234727" style="fill: #262626; stroke: #262626; stroke-width: 0.8"/>
      </g>
     </g>
     <g id="text_8">
      <!-- $\mathdefault{0.2}$ -->
      <g style="fill: #262626" transform="translate(38.88 690.688027) scale(0.36 -0.36)">
       <use xlink:href="#CMR17-30" transform="scale(0.996264)"/>
       <use xlink:href="#CMMI12-3a" transform="translate(45.690477 0) scale(0.996264)"/>
       <use xlink:href="#CMR17-32" transform="translate(72.787654 0) scale(0.996264)"/>
      </g>
     </g>
    </g>
    <g id="ytick_3">
     <g id="line2d_9">
      <g>
       <use xlink:href="#m61a32e969e" x="88.532127" y="678.232197" style="fill: #262626; stroke: #262626; stroke-width: 0.8"/>
      </g>
     </g>
     <g id="text_9">
      <!-- $\mathdefault{0.4}$ -->
      <g style="fill: #262626" transform="translate(38.88 690.685497) scale(0.36 -0.36)">
       <use xlink:href="#CMR17-30" transform="scale(0.996264)"/>
       <use xlink:href="#CMMI12-3a" transform="translate(45.690477 0) scale(0.996264)"/>
       <use xlink:href="#CMR17-34" transform="translate(72.787654 0) scale(0.996264)"/>
      </g>
     </g>
    </g>
    <g id="ytick_4">
     <g id="line2d_10">
      <g>
       <use xlink:href="#m61a32e969e" x="88.532127" y="678.229667" style="fill: #262626; stroke: #262626; stroke-width: 0.8"/>
      </g>
     </g>
     <g id="text_10">
      <!-- $\mathdefault{0.6}$ -->
      <g style="fill: #262626" transform="translate(38.88 690.682968) scale(0.36 -0.36)">
       <use xlink:href="#CMR17-30" transform="scale(0.996264)"/>
       <use xlink:href="#CMMI12-3a" transform="translate(45.690477 0) scale(0.996264)"/>
       <use xlink:href="#CMR17-36" transform="translate(72.787654 0) scale(0.996264)"/>
      </g>
     </g>
    </g>
    <g id="ytick_5">
     <g id="line2d_11">
      <g>
       <use xlink:href="#m61a32e969e" x="88.532127" y="678.227138" style="fill: #262626; stroke: #262626; stroke-width: 0.8"/>
      </g>
     </g>
     <g id="text_11">
      <!-- $\mathdefault{0.8}$ -->
      <g style="fill: #262626" transform="translate(38.88 690.680438) scale(0.36 -0.36)">
       <use xlink:href="#CMR17-30" transform="scale(0.996264)"/>
       <use xlink:href="#CMMI12-3a" transform="translate(45.690477 0) scale(0.996264)"/>
       <use xlink:href="#CMR17-38" transform="translate(72.787654 0) scale(0.996264)"/>
      </g>
     </g>
    </g>
    <g id="ytick_6">
     <g id="line2d_12">
      <g>
       <use xlink:href="#m61a32e969e" x="88.532127" y="678.224608" style="fill: #262626; stroke: #262626; stroke-width: 0.8"/>
      </g>
     </g>
     <g id="text_12">
      <!-- $\mathdefault{1.0}$ -->
      <g style="fill: #262626" transform="translate(38.88 690.677908) scale(0.36 -0.36)">
       <use xlink:href="#CMR17-31" transform="scale(0.996264)"/>
       <use xlink:href="#CMMI12-3a" transform="translate(45.690477 0) scale(0.996264)"/>
       <use xlink:href="#CMR17-30" transform="translate(72.787654 0) scale(0.996264)"/>
      </g>
     </g>
    </g>
    <g id="ytick_7">
     <g id="line2d_13">
      <g>
       <use xlink:href="#m61a32e969e" x="88.532127" y="678.222079" style="fill: #262626; stroke: #262626; stroke-width: 0.8"/>
      </g>
     </g>
     <g id="text_13">
      <!-- $\mathdefault{1.2}$ -->
      <g style="fill: #262626" transform="translate(38.88 690.675379) scale(0.36 -0.36)">
       <use xlink:href="#CMR17-31" transform="scale(0.996264)"/>
       <use xlink:href="#CMMI12-3a" transform="translate(45.690477 0) scale(0.996264)"/>
       <use xlink:href="#CMR17-32" transform="translate(72.787654 0) scale(0.996264)"/>
      </g>
     </g>
    </g>
   </g>
   <g id="line2d_14">
    <path d="M 88.532127 678.237256 
L 995.758673 678.237256 
L 995.758673 678.237256 
" clip-path="url(#p57079d7ec5)" style="fill: none; stroke: #1f77b4; stroke-width: 5; stroke-linecap: round"/>
   </g>
   <g id="line2d_15">
    <path d="M 88.532127 675.748277 
L 142.96572 676.288562 
L 215.543844 676.755421 
L 318.362852 677.164954 
L 463.519099 677.5034 
L 687.301647 677.785516 
L 995.758673 677.980504 
L 995.758673 677.980504 
" clip-path="url(#p57079d7ec5)" style="fill: none; stroke: #ff7f0e; stroke-width: 5; stroke-linecap: round"/>
   </g>
   <g id="line2d_16">
    <path d="M 88.532127 665.981273 
L 94.580304 667.238056 
L 100.628481 668.26788 
L 106.676658 669.127424 
L 118.773012 670.480638 
L 130.869366 671.497882 
L 142.96572 672.290552 
L 161.110251 673.197845 
L 179.254782 673.87927 
L 203.44749 674.561227 
L 233.688375 675.181349 
L 276.025613 675.788636 
L 330.459206 676.313319 
L 403.03733 676.769918 
L 505.856338 677.17265 
L 657.060762 677.517359 
L 886.891487 677.79729 
L 995.758673 677.879626 
L 995.758673 677.879626 
" clip-path="url(#p57079d7ec5)" style="fill: none; stroke: #2ca02c; stroke-width: 5; stroke-linecap: round"/>
   </g>
   <g id="line2d_17">
    <path d="M 88.532127 625.993646 
L 94.580304 640.290858 
L 100.628481 649.425893 
L 106.676658 655.292844 
L 112.724835 659.209774 
L 118.773012 662.004119 
L 124.821189 664.097425 
L 130.869366 665.724383 
L 136.917543 667.025252 
L 142.96572 668.089095 
L 149.013897 668.975176 
L 161.110251 670.366645 
L 173.206605 671.409519 
L 185.302959 672.22006 
L 203.44749 673.14549 
L 221.592021 673.838765 
L 245.784728 674.531138 
L 276.025613 675.159408 
L 318.362852 675.773457 
L 372.796445 676.302982 
L 445.374568 676.763074 
L 548.193577 677.168314 
L 699.398001 677.514762 
L 929.228726 677.795839 
L 995.758673 677.848939 
L 995.758673 677.848939 
" clip-path="url(#p57079d7ec5)" style="fill: none; stroke: #d62728; stroke-width: 5; stroke-linecap: round"/>
   </g>
   <g id="line2d_18">
    <path d="M 88.532127 557.231696 
L 94.580304 596.619327 
L 100.628481 621.589082 
L 106.676658 637.462994 
L 112.724835 647.615018 
L 118.773012 654.119442 
L 124.821189 658.400876 
L 130.869366 661.412465 
L 136.917543 663.646295 
L 142.96572 665.369136 
L 149.013897 666.738161 
L 155.062074 667.852127 
L 161.110251 668.776283 
L 167.158428 669.555354 
L 179.254782 670.796103 
L 191.351136 671.739983 
L 203.44749 672.482149 
L 221.592021 673.338772 
L 245.784728 674.169546 
L 276.025613 674.902893 
L 312.314675 675.51813 
L 360.700091 676.079985 
L 421.181861 676.549103 
L 505.856338 676.973312 
L 626.819878 677.342203 
L 808.265187 677.654729 
L 995.758673 677.838701 
L 995.758673 677.838701 
" clip-path="url(#p57079d7ec5)" style="fill: none; stroke: #9467bd; stroke-width: 5; stroke-linecap: round"/>
   </g>
   <g id="line2d_19">
    <path d="M 88.532127 480.702315 
L 94.580304 548.283869 
L 100.628481 590.947213 
L 106.676658 617.956721 
L 112.724835 635.160223 
L 118.773012 646.133033 
L 124.821189 653.168039 
L 130.869366 657.755473 
L 136.917543 660.946271 
L 142.96572 663.293853 
L 149.013897 665.09324 
L 155.062074 666.516261 
L 161.110251 667.669868 
L 167.158428 668.62398 
L 173.206605 669.426086 
L 185.302959 670.699663 
L 197.399313 671.665257 
L 209.495667 672.422544 
L 227.640198 673.294513 
L 245.784728 673.952933 
L 269.977436 674.614986 
L 300.218321 675.219663 
L 342.55556 675.814296 
L 396.989153 676.33 
L 469.567276 676.780292 
L 572.386285 677.178629 
L 723.590709 677.52046 
L 953.421434 677.798671 
L 995.758673 677.833181 
L 995.758673 677.833181 
" clip-path="url(#p57079d7ec5)" style="fill: none; stroke: #8c564b; stroke-width: 5; stroke-linecap: round"/>
   </g>
   <g id="line2d_20">
    <path d="M 88.532127 401.084992 
L 94.580304 498.16999 
L 100.628481 559.285697 
L 106.676658 597.869173 
L 112.724835 622.376285 
L 118.773012 637.963077 
L 124.821189 647.928192 
L 130.869366 654.321689 
L 136.917543 658.538045 
L 142.96572 661.511688 
L 149.013897 663.72119 
L 155.062074 665.427419 
L 161.110251 666.784798 
L 167.158428 667.890416 
L 173.206605 668.808213 
L 179.254782 669.582356 
L 191.351136 670.815996 
L 203.44749 671.755317 
L 215.543844 672.494234 
L 233.688375 673.347633 
L 257.881082 674.175714 
L 288.121967 674.907089 
L 324.411029 675.520963 
L 372.796445 676.0818 
L 433.278215 676.550242 
L 517.952692 676.973968 
L 638.916232 677.34254 
L 820.361541 677.65487 
L 995.758673 677.829447 
L 995.758673 677.829447 
" clip-path="url(#p57079d7ec5)" style="fill: none; stroke: #e377c2; stroke-width: 5; stroke-linecap: round"/>
   </g>
   <g id="line2d_21">
    <path d="M 88.532127 319.580981 
L 94.580304 446.994029 
L 100.628481 527.031628 
L 106.676658 577.454947 
L 112.724835 609.415436 
L 118.773012 629.7007 
L 124.821189 642.642574 
L 130.869366 650.928492 
L 136.917543 656.267922 
L 142.96572 659.888222 
L 149.013897 662.50274 
L 155.062074 664.479328 
L 161.110251 666.026136 
L 167.158428 667.269618 
L 173.206605 668.290853 
L 179.254782 669.144595 
L 191.351136 670.490834 
L 203.44749 671.50433 
L 215.543844 672.294676 
L 233.688375 673.199989 
L 251.832905 673.88023 
L 276.025613 674.561319 
L 306.266498 675.180872 
L 348.603737 675.787805 
L 403.03733 676.312318 
L 475.615453 676.768893 
L 578.434462 677.171695 
L 729.638886 677.516541 
L 959.469611 677.796654 
L 995.758673 677.826632 
L 995.758673 677.826632 
" clip-path="url(#p57079d7ec5)" style="fill: none; stroke: #7f7f7f; stroke-width: 5; stroke-linecap: round"/>
   </g>
   <g id="line2d_22">
    <path d="M 88.532127 236.922476 
L 94.580304 395.191528 
L 100.628481 494.444065 
L 106.676658 556.868126 
L 112.724835 596.369218 
L 118.773012 621.399178 
L 124.821189 637.342065 
L 130.869366 647.532868 
L 136.917543 654.065075 
L 142.96572 658.362682 
L 149.013897 661.384081 
L 155.062074 663.624062 
L 161.110251 665.351119 
L 167.158428 666.723357 
L 173.206605 667.839742 
L 179.254782 668.765791 
L 185.302959 669.546244 
L 197.399313 670.788918 
L 209.495667 671.734248 
L 221.592021 672.477305 
L 239.736552 673.335011 
L 263.929259 674.166666 
L 294.170144 674.900698 
L 330.459206 675.516449 
L 378.844622 676.078723 
L 439.326392 676.548163 
L 524.000869 676.972632 
L 644.964408 677.341723 
L 826.409718 677.654409 
L 995.758673 677.82438 
L 995.758673 677.82438 
" clip-path="url(#p57079d7ec5)" style="fill: none; stroke: #bcbd22; stroke-width: 5; stroke-linecap: round"/>
   </g>
   <g id="line2d_23">
    <path d="M 88.532127 153.429885 
L 94.580304 342.947257 
L 100.628481 461.629049 
L 106.676658 536.169187 
L 112.724835 583.271765 
L 118.773012 613.077585 
L 124.821189 632.036561 
L 130.869366 644.138825 
L 136.917543 651.886466 
L 142.96572 656.89929 
L 149.013897 660.334193 
L 155.062074 662.834293 
L 161.110251 664.735554 
L 167.158428 666.230147 
L 173.206605 667.435734 
L 179.254782 668.428818 
L 185.302959 669.260915 
L 197.399313 670.576747 
L 209.495667 671.570342 
L 221.592021 672.3469 
L 239.736552 673.238462 
L 257.881082 673.909727 
L 282.07379 674.582988 
L 312.314675 675.196457 
L 354.651914 675.79837 
L 409.085507 676.319318 
L 481.66363 676.773354 
L 584.482639 677.174368 
L 735.687063 677.518018 
L 965.517788 677.79739 
L 995.758673 677.822505 
L 995.758673 677.822505 
" clip-path="url(#p57079d7ec5)" style="fill: none; stroke: #17becf; stroke-width: 5; stroke-linecap: round"/>
   </g>
   <g id="line2d_24">
    <path d="M 88.532127 69.325584 
L 94.580304 290.388606 
L 100.628481 428.659128 
L 106.676658 515.399137 
L 112.724835 570.145995 
L 118.773012 604.748489 
L 124.821189 626.732921 
L 130.869366 640.750232 
L 136.917543 649.714762 
L 142.96572 655.475189 
L 149.013897 659.333502 
L 155.062074 662.092833 
L 161.110251 664.164253 
L 167.158428 665.776525 
L 173.206605 667.066856 
L 179.254782 668.122991 
L 185.302959 669.003259 
L 197.399313 670.386675 
L 209.495667 671.42439 
L 221.592021 672.231325 
L 239.736552 673.153354 
L 257.881082 673.844468 
L 282.07379 674.534988 
L 312.314675 675.161884 
L 354.651914 675.774854 
L 409.085507 676.303684 
L 481.66363 676.763319 
L 584.482639 677.168296 
L 735.687063 677.514611 
L 965.517788 677.795655 
L 995.758673 677.820898 
L 995.758673 677.820898 
" clip-path="url(#p57079d7ec5)" style="fill: none; stroke: #17becf; stroke-width: 5; stroke-linecap: round"/>
   </g>
   <g id="patch_3">
    <path d="M 88.532127 678.237256 
L 88.532127 38.88 
" style="fill: none; stroke: #262626; stroke-width: 0.8; stroke-linejoin: miter; stroke-linecap: square"/>
   </g>
   <g id="patch_4">
    <path d="M 88.532127 678.237256 
L 1041.12 678.237256 
" style="fill: none; stroke: #262626; stroke-width: 0.8; stroke-linejoin: miter; stroke-linecap: square"/>
   </g>
  </g>
 </g>
 <defs>
  <clipPath id="p57079d7ec5">
   <rect x="88.532127" y="38.88" width="952.587873" height="639.357256"/>
  </clipPath>
 </defs>
</svg>
