<?xml version="1.0" encoding="utf-8" standalone="no"?>
<!DOCTYPE svg PUBLIC "-//W3C//DTD SVG 1.1//EN"
  "http://www.w3.org/Graphics/SVG/1.1/DTD/svg11.dtd">
<svg xmlns:xlink="http://www.w3.org/1999/xlink" width="1080pt" height="576pt" viewBox="0 0 1080 576" xmlns="http://www.w3.org/2000/svg" version="1.1">
 <metadata>
  <rdf:RDF xmlns:dc="http://purl.org/dc/elements/1.1/" xmlns:cc="http://creativecommons.org/ns#" xmlns:rdf="http://www.w3.org/1999/02/22-rdf-syntax-ns#">
   <cc:Work>
    <dc:type rdf:resource="http://purl.org/dc/dcmitype/StillImage"/>
    <dc:date>2024-07-30T14:05:59.288390</dc:date>
    <dc:format>image/svg+xml</dc:format>
    <dc:creator>
     <cc:Agent>
      <dc:title>Matplotlib v3.9.0, https://matplotlib.org/</dc:title>
     </cc:Agent>
    </dc:creator>
   </cc:Work>
  </rdf:RDF>
 </metadata>
 <defs>
  <style type="text/css">*{stroke-linejoin: round; stroke-linecap: butt}</style>
 </defs>
 <g id="figure_1">
  <g id="patch_1">
   <path d="M 0 576 
L 1080 576 
L 1080 0 
L 0 0 
z
" style="fill: #ffffff"/>
  </g>
  <g id="axes_1">
   <g id="patch_2">
    <path d="M 111.674287 462.354512 
L 738.936009 462.354512 
L 738.936009 73.400718 
L 111.674287 73.400718 
z
" style="fill: #ffffff"/>
   </g>
   <g id="matplotlib.axis_1">
    <g id="xtick_1">
     <g id="line2d_1">
      <defs>
       <path id="m45776cc08f" d="M 0 0 
L 0 3.5 
" style="stroke: #262626; stroke-width: 0.8"/>
      </defs>
      <g>
       <use xlink:href="#m45776cc08f" x="111.674287" y="462.354512" style="fill: #262626; stroke: #262626; stroke-width: 0.8"/>
      </g>
     </g>
     <g id="text_1">
      <!-- $\mathdefault{0.00}$ -->
      <g style="fill: #262626" transform="translate(82.123938 494.261113) scale(0.36 -0.36)">
       <defs>
        <path id="CMR17-30" d="M 2688 2025 
C 2688 2416 2682 3080 2413 3591 
C 2176 4039 1798 4198 1466 4198 
C 1158 4198 768 4058 525 3597 
C 269 3118 243 2524 243 2025 
C 243 1661 250 1106 448 619 
C 723 -39 1216 -128 1466 -128 
C 1760 -128 2208 -7 2470 600 
C 2662 1042 2688 1559 2688 2025 
z
M 1466 -26 
C 1056 -26 813 325 723 812 
C 653 1188 653 1738 653 2096 
C 653 2588 653 2997 736 3387 
C 858 3929 1216 4096 1466 4096 
C 1728 4096 2067 3923 2189 3400 
C 2272 3036 2278 2607 2278 2096 
C 2278 1680 2278 1169 2202 792 
C 2067 95 1690 -26 1466 -26 
z
" transform="scale(0.015625)"/>
        <path id="CMMI12-3a" d="M 1178 307 
C 1178 492 1024 619 870 619 
C 685 619 557 466 557 313 
C 557 128 710 0 864 0 
C 1050 0 1178 153 1178 307 
z
" transform="scale(0.015625)"/>
       </defs>
       <use xlink:href="#CMR17-30" transform="scale(0.996264)"/>
       <use xlink:href="#CMMI12-3a" transform="translate(45.690477 0) scale(0.996264)"/>
       <use xlink:href="#CMR17-30" transform="translate(72.787654 0) scale(0.996264)"/>
       <use xlink:href="#CMR17-30" transform="translate(118.478131 0) scale(0.996264)"/>
      </g>
     </g>
    </g>
    <g id="xtick_2">
     <g id="line2d_2">
      <g>
       <use xlink:href="#m45776cc08f" x="261.022316" y="462.354512" style="fill: #262626; stroke: #262626; stroke-width: 0.8"/>
      </g>
     </g>
     <g id="text_2">
      <!-- $\mathdefault{0.25}$ -->
      <g style="fill: #262626" transform="translate(231.471967 494.261113) scale(0.36 -0.36)">
       <defs>
        <path id="CMR17-32" d="M 2669 989 
L 2554 989 
C 2490 536 2438 459 2413 420 
C 2381 369 1920 369 1830 369 
L 602 369 
C 832 619 1280 1072 1824 1597 
C 2214 1967 2669 2402 2669 3035 
C 2669 3790 2067 4224 1395 4224 
C 691 4224 262 3604 262 3030 
C 262 2780 448 2748 525 2748 
C 589 2748 781 2787 781 3010 
C 781 3207 614 3264 525 3264 
C 486 3264 448 3258 422 3245 
C 544 3790 915 4058 1306 4058 
C 1862 4058 2227 3617 2227 3035 
C 2227 2479 1901 2000 1536 1584 
L 262 146 
L 262 0 
L 2515 0 
L 2669 989 
z
" transform="scale(0.015625)"/>
        <path id="CMR17-35" d="M 730 3692 
C 794 3666 1056 3584 1325 3584 
C 1920 3584 2246 3911 2432 4100 
C 2432 4157 2432 4192 2394 4192 
C 2387 4192 2374 4192 2323 4163 
C 2099 4058 1837 3973 1517 3973 
C 1325 3973 1037 3999 723 4139 
C 653 4171 640 4171 634 4171 
C 602 4171 595 4164 595 4037 
L 595 2203 
C 595 2089 595 2057 659 2057 
C 691 2057 704 2070 736 2114 
C 941 2401 1222 2522 1542 2522 
C 1766 2522 2246 2382 2246 1289 
C 2246 1085 2246 715 2054 421 
C 1894 159 1645 25 1370 25 
C 947 25 518 320 403 814 
C 429 807 480 795 506 795 
C 589 795 749 840 749 1038 
C 749 1210 627 1280 506 1280 
C 358 1280 262 1190 262 1011 
C 262 454 704 -128 1382 -128 
C 2042 -128 2669 440 2669 1264 
C 2669 2030 2170 2624 1549 2624 
C 1222 2624 947 2503 730 2274 
L 730 3692 
z
" transform="scale(0.015625)"/>
       </defs>
       <use xlink:href="#CMR17-30" transform="scale(0.996264)"/>
       <use xlink:href="#CMMI12-3a" transform="translate(45.690477 0) scale(0.996264)"/>
       <use xlink:href="#CMR17-32" transform="translate(72.787654 0) scale(0.996264)"/>
       <use xlink:href="#CMR17-35" transform="translate(118.478131 0) scale(0.996264)"/>
      </g>
     </g>
    </g>
    <g id="xtick_3">
     <g id="line2d_3">
      <g>
       <use xlink:href="#m45776cc08f" x="410.370345" y="462.354512" style="fill: #262626; stroke: #262626; stroke-width: 0.8"/>
      </g>
     </g>
     <g id="text_3">
      <!-- $\mathdefault{0.50}$ -->
      <g style="fill: #262626" transform="translate(380.819996 494.261113) scale(0.36 -0.36)">
       <use xlink:href="#CMR17-30" transform="scale(0.996264)"/>
       <use xlink:href="#CMMI12-3a" transform="translate(45.690477 0) scale(0.996264)"/>
       <use xlink:href="#CMR17-35" transform="translate(72.787654 0) scale(0.996264)"/>
       <use xlink:href="#CMR17-30" transform="translate(118.478131 0) scale(0.996264)"/>
      </g>
     </g>
    </g>
    <g id="xtick_4">
     <g id="line2d_4">
      <g>
       <use xlink:href="#m45776cc08f" x="559.718374" y="462.354512" style="fill: #262626; stroke: #262626; stroke-width: 0.8"/>
      </g>
     </g>
     <g id="text_4">
      <!-- $\mathdefault{0.75}$ -->
      <g style="fill: #262626" transform="translate(530.168025 494.261113) scale(0.36 -0.36)">
       <defs>
        <path id="CMR17-37" d="M 2886 3941 
L 2886 4081 
L 1382 4081 
C 634 4081 621 4165 595 4288 
L 480 4288 
L 294 3094 
L 410 3094 
C 429 3215 474 3540 550 3661 
C 589 3712 1062 3712 1171 3712 
L 2579 3712 
L 1869 2661 
C 1395 1954 1069 999 1069 165 
C 1069 89 1069 -128 1299 -128 
C 1530 -128 1530 89 1530 171 
L 1530 465 
C 1530 1508 1709 2196 2003 2636 
L 2886 3941 
z
" transform="scale(0.015625)"/>
       </defs>
       <use xlink:href="#CMR17-30" transform="scale(0.996264)"/>
       <use xlink:href="#CMMI12-3a" transform="translate(45.690477 0) scale(0.996264)"/>
       <use xlink:href="#CMR17-37" transform="translate(72.787654 0) scale(0.996264)"/>
       <use xlink:href="#CMR17-35" transform="translate(118.478131 0) scale(0.996264)"/>
      </g>
     </g>
    </g>
    <g id="xtick_5">
     <g id="line2d_5">
      <g>
       <use xlink:href="#m45776cc08f" x="709.066403" y="462.354512" style="fill: #262626; stroke: #262626; stroke-width: 0.8"/>
      </g>
     </g>
     <g id="text_5">
      <!-- $\mathdefault{1.00}$ -->
      <g style="fill: #262626" transform="translate(679.516054 494.261113) scale(0.36 -0.36)">
       <defs>
        <path id="CMR17-31" d="M 1702 4058 
C 1702 4192 1696 4192 1606 4192 
C 1357 3916 979 3827 621 3827 
C 602 3827 570 3827 563 3808 
C 557 3795 557 3782 557 3648 
C 755 3648 1088 3686 1344 3839 
L 1344 461 
C 1344 236 1331 160 781 160 
L 589 160 
L 589 0 
C 896 0 1216 0 1523 0 
C 1830 0 2150 0 2458 0 
L 2458 160 
L 2266 160 
C 1715 160 1702 230 1702 458 
L 1702 4058 
z
" transform="scale(0.015625)"/>
       </defs>
       <use xlink:href="#CMR17-31" transform="scale(0.996264)"/>
       <use xlink:href="#CMMI12-3a" transform="translate(45.690477 0) scale(0.996264)"/>
       <use xlink:href="#CMR17-30" transform="translate(72.787654 0) scale(0.996264)"/>
       <use xlink:href="#CMR17-30" transform="translate(118.478131 0) scale(0.996264)"/>
      </g>
     </g>
    </g>
    <g id="text_6">
     <!-- $x$ -->
     <g style="fill: #262626" transform="translate(415.327017 530.143856) scale(0.36 -0.36)">
      <defs>
       <path id="CMMI12-78" d="M 3034 2606 
C 2829 2567 2752 2414 2752 2293 
C 2752 2139 2874 2088 2963 2088 
C 3155 2088 3290 2254 3290 2427 
C 3290 2695 2982 2816 2714 2816 
C 2323 2816 2106 2433 2048 2312 
C 1901 2816 1504 2816 1389 2816 
C 736 2816 390 1980 390 1839 
C 390 1814 416 1782 461 1782 
C 512 1782 525 1820 538 1846 
C 755 2555 1184 2689 1370 2689 
C 1658 2689 1715 2420 1715 2267 
C 1715 2127 1677 1980 1600 1673 
L 1382 798 
C 1286 415 1101 64 762 64 
C 730 64 570 64 435 147 
C 666 192 717 383 717 460 
C 717 588 621 664 499 664 
C 346 664 179 530 179 326 
C 179 57 480 -64 755 -64 
C 1062 -64 1280 179 1414 441 
C 1517 64 1837 -64 2074 -64 
C 2726 -64 3072 773 3072 913 
C 3072 945 3046 971 3008 971 
C 2950 971 2944 939 2925 888 
C 2752 326 2381 64 2093 64 
C 1869 64 1747 230 1747 492 
C 1747 632 1773 734 1875 1156 
L 2099 2024 
C 2195 2408 2413 2689 2707 2689 
C 2720 2689 2899 2689 3034 2606 
z
" transform="scale(0.015625)"/>
      </defs>
      <use xlink:href="#CMMI12-78" transform="scale(0.996264)"/>
     </g>
    </g>
   </g>
   <g id="matplotlib.axis_2">
    <g id="ytick_1">
     <g id="line2d_6">
      <defs>
       <path id="maa1c81e07b" d="M 0 0 
L -3.5 0 
" style="stroke: #262626; stroke-width: 0.8"/>
      </defs>
      <g>
       <use xlink:href="#maa1c81e07b" x="111.674287" y="462.354512" style="fill: #262626; stroke: #262626; stroke-width: 0.8"/>
      </g>
     </g>
     <g id="text_7">
      <!-- $\mathdefault{0}$ -->
      <g style="fill: #262626" transform="translate(88.225715 474.807813) scale(0.36 -0.36)">
       <use xlink:href="#CMR17-30" transform="scale(0.996264)"/>
      </g>
     </g>
    </g>
    <g id="ytick_2">
     <g id="line2d_7">
      <g>
       <use xlink:href="#maa1c81e07b" x="111.674287" y="325.733077" style="fill: #262626; stroke: #262626; stroke-width: 0.8"/>
      </g>
     </g>
     <g id="text_8">
      <!-- $\mathdefault{2000}$ -->
      <g style="fill: #262626" transform="translate(38.88 338.186377) scale(0.36 -0.36)">
       <use xlink:href="#CMR17-32" transform="scale(0.996264)"/>
       <use xlink:href="#CMR17-30" transform="translate(45.690477 0) scale(0.996264)"/>
       <use xlink:href="#CMR17-30" transform="translate(91.380954 0) scale(0.996264)"/>
       <use xlink:href="#CMR17-30" transform="translate(137.071431 0) scale(0.996264)"/>
      </g>
     </g>
    </g>
    <g id="ytick_3">
     <g id="line2d_8">
      <g>
       <use xlink:href="#maa1c81e07b" x="111.674287" y="189.111641" style="fill: #262626; stroke: #262626; stroke-width: 0.8"/>
      </g>
     </g>
     <g id="text_9">
      <!-- $\mathdefault{4000}$ -->
      <g style="fill: #262626" transform="translate(38.88 201.564942) scale(0.36 -0.36)">
       <defs>
        <path id="CMR17-34" d="M 2150 4122 
C 2150 4256 2144 4256 2029 4256 
L 128 1254 
L 128 1088 
L 1779 1088 
L 1779 457 
C 1779 224 1766 160 1318 160 
L 1197 160 
L 1197 0 
C 1402 0 1747 0 1965 0 
C 2182 0 2528 0 2733 0 
L 2733 160 
L 2611 160 
C 2163 160 2150 224 2150 457 
L 2150 1088 
L 2803 1088 
L 2803 1254 
L 2150 1254 
L 2150 4122 
z
M 1798 3703 
L 1798 1254 
L 256 1254 
L 1798 3703 
z
" transform="scale(0.015625)"/>
       </defs>
       <use xlink:href="#CMR17-34" transform="scale(0.996264)"/>
       <use xlink:href="#CMR17-30" transform="translate(45.690477 0) scale(0.996264)"/>
       <use xlink:href="#CMR17-30" transform="translate(91.380954 0) scale(0.996264)"/>
       <use xlink:href="#CMR17-30" transform="translate(137.071431 0) scale(0.996264)"/>
      </g>
     </g>
    </g>
   </g>
   <g id="line2d_9">
    <path d="M 111.674287 462.354512 
L 709.066403 462.354512 
L 709.066403 462.354512 
" clip-path="url(#pda9979aa4d)" style="fill: none; stroke: #1f77b4; stroke-width: 5; stroke-linecap: round"/>
   </g>
   <g id="line2d_10">
    <path d="M 111.674287 458.164618 
L 179.378727 458.950635 
L 259.031009 459.645611 
L 358.596362 460.28131 
L 482.057399 460.836547 
L 641.361963 461.316345 
L 709.066403 461.466283 
L 709.066403 461.466283 
" clip-path="url(#pda9979aa4d)" style="fill: none; stroke: #ff7f0e; stroke-width: 5; stroke-linecap: round"/>
   </g>
   <g id="line2d_11">
    <path d="M 111.674287 451.899247 
L 135.569972 453.005005 
L 163.44827 454.08098 
L 195.309183 455.095442 
L 235.135324 456.122718 
L 278.94408 457.025717 
L 330.718063 457.871633 
L 394.439889 458.679112 
L 470.109557 459.40578 
L 561.709681 460.057431 
L 677.20549 460.645406 
L 709.066403 460.77466 
L 709.066403 460.77466 
" clip-path="url(#pda9979aa4d)" style="fill: none; stroke: #2ca02c; stroke-width: 5; stroke-linecap: round"/>
   </g>
   <g id="line2d_12">
    <path d="M 111.674287 442.294397 
L 123.622129 443.942268 
L 135.569972 445.370807 
L 151.500428 447.003565 
L 167.430885 448.389556 
L 187.343955 449.852283 
L 207.257026 451.081333 
L 231.15271 452.318723 
L 259.031009 453.511913 
L 290.891922 454.627236 
L 326.735449 455.646556 
L 370.544204 456.644474 
L 418.335573 457.507494 
L 478.074785 458.350953 
L 549.761839 459.122094 
L 637.379349 459.822624 
L 709.066403 460.258952 
L 709.066403 460.258952 
" clip-path="url(#pda9979aa4d)" style="fill: none; stroke: #d62728; stroke-width: 5; stroke-linecap: round"/>
   </g>
   <g id="line2d_13">
    <path d="M 111.674287 427.234864 
L 119.639515 430.189549 
L 127.604743 432.720601 
L 135.569972 434.913286 
L 143.5352 436.831367 
L 151.500428 438.523366 
L 159.465656 440.026988 
L 171.413499 441.992689 
L 183.361341 443.676717 
L 195.309183 445.135355 
L 211.23964 446.800958 
L 227.170096 448.21342 
L 247.083167 449.702505 
L 266.996237 450.952424 
L 290.891922 452.209566 
L 318.770221 453.42052 
L 350.631133 454.55131 
L 386.47466 455.583747 
L 426.300802 456.511104 
L 474.092171 457.400772 
L 529.848768 458.216895 
L 597.553208 458.981502 
L 681.188104 459.690388 
L 709.066403 459.883895 
L 709.066403 459.883895 
" clip-path="url(#pda9979aa4d)" style="fill: none; stroke: #9467bd; stroke-width: 5; stroke-linecap: round"/>
   </g>
   <g id="line2d_14">
    <path d="M 111.674287 403.147621 
L 115.656901 407.096356 
L 119.639515 410.575315 
L 123.622129 413.66384 
L 127.604743 416.424404 
L 131.587358 418.906543 
L 135.569972 421.150645 
L 139.552586 423.189263 
L 143.5352 425.049492 
L 147.517814 426.753673 
L 151.500428 428.320751 
L 159.465656 431.10461 
L 167.430885 433.502412 
L 175.396113 435.589081 
L 183.361341 437.421365 
L 191.326569 439.042928 
L 199.291797 440.488044 
L 211.23964 442.382813 
L 223.187482 444.011059 
L 235.135324 445.424995 
L 251.065781 447.043561 
L 266.996237 448.419406 
L 286.909308 449.873145 
L 306.822378 451.095889 
L 330.718063 452.328012 
L 358.596362 453.517012 
L 390.457275 454.629197 
L 426.300802 455.646226 
L 470.109557 456.642445 
L 517.900926 457.504397 
L 577.640138 458.347164 
L 649.327192 459.117986 
L 709.066403 459.618615 
L 709.066403 459.618615 
" clip-path="url(#pda9979aa4d)" style="fill: none; stroke: #8c564b; stroke-width: 5; stroke-linecap: round"/>
   </g>
   <g id="line2d_15">
    <path d="M 111.674287 363.774198 
L 115.656901 373.838931 
L 119.639515 382.087171 
L 123.622129 388.972679 
L 127.604743 394.809062 
L 131.587358 399.819652 
L 135.569972 404.169018 
L 139.552586 407.979942 
L 143.5352 411.346889 
L 147.517814 414.34309 
L 151.500428 417.026786 
L 155.483042 419.444253 
L 159.465656 421.633465 
L 163.44827 423.625048 
L 167.430885 425.444858 
L 171.413499 427.114007 
L 179.378727 430.069162 
L 187.343955 432.604356 
L 195.309183 434.802777 
L 203.274412 436.727303 
L 211.23964 438.425847 
L 219.204868 439.935853 
L 231.15271 441.91038 
L 243.100553 443.602393 
L 255.048395 445.068056 
L 270.978851 446.741678 
L 286.909308 448.160873 
L 302.839764 449.378952 
L 322.752835 450.677793 
L 346.648519 451.980395 
L 370.544204 453.067663 
L 398.422503 454.127638 
L 430.283416 455.128845 
L 470.109557 456.144568 
L 513.918312 457.038969 
L 565.692295 457.878194 
L 629.414121 458.680553 
L 705.083789 459.403707 
L 709.066403 459.436436 
L 709.066403 459.436436 
" clip-path="url(#pda9979aa4d)" style="fill: none; stroke: #e377c2; stroke-width: 5; stroke-linecap: round"/>
   </g>
   <g id="line2d_16">
    <path d="M 111.674287 298.794039 
L 115.656901 323.867979 
L 119.639515 342.559926 
L 123.622129 356.895338 
L 127.604743 368.23897 
L 131.587358 377.440382 
L 135.569972 385.055745 
L 139.552586 391.462678 
L 143.5352 396.928177 
L 147.517814 401.645417 
L 151.500428 405.758506 
L 155.483042 409.376237 
L 159.465656 412.58333 
L 163.44827 415.445602 
L 167.430885 418.01616 
L 171.413499 420.337174 
L 175.396113 422.443077 
L 179.378727 424.362679 
L 183.361341 426.119513 
L 187.343955 427.733443 
L 195.309183 430.596676 
L 203.274412 433.0589 
L 211.23964 435.198506 
L 219.204868 437.074807 
L 227.170096 438.733403 
L 235.135324 440.20986 
L 247.083167 442.143484 
L 259.031009 443.802992 
L 270.978851 445.242409 
L 286.909308 446.888276 
L 302.839764 448.285736 
L 322.752835 449.760658 
L 342.665905 450.999952 
L 366.56159 452.247496 
L 394.439889 453.450226 
L 426.300802 454.574208 
L 462.144328 455.601155 
L 501.97047 456.52416 
L 549.761839 457.410163 
L 605.518436 458.223367 
L 673.222876 458.985632 
L 709.066403 459.315051 
L 709.066403 459.315051 
" clip-path="url(#pda9979aa4d)" style="fill: none; stroke: #7f7f7f; stroke-width: 5; stroke-linecap: round"/>
   </g>
   <g id="line2d_17">
    <path d="M 111.674287 204.537583 
L 115.656901 254.285281 
L 119.639515 290.897077 
L 123.622129 317.965188 
L 127.604743 338.075629 
L 131.587358 353.377791 
L 135.569972 365.406675 
L 139.552586 375.111323 
L 143.5352 383.106757 
L 147.517814 389.807798 
L 151.500428 395.505606 
L 155.483042 400.409393 
L 159.465656 404.674717 
L 163.44827 408.418199 
L 167.430885 411.730493 
L 171.413499 414.681708 
L 175.396113 417.327556 
L 179.378727 419.713374 
L 183.361341 421.875527 
L 187.343955 423.844062 
L 191.326569 425.643635 
L 195.309183 427.295258 
L 203.274412 430.221777 
L 211.23964 432.734417 
L 219.204868 434.914945 
L 227.170096 436.824909 
L 235.135324 438.511447 
L 243.100553 440.011505 
L 255.048395 441.973997 
L 266.996237 443.656533 
L 278.94408 445.114607 
L 294.874536 446.780278 
L 310.804992 448.193303 
L 330.718063 449.683394 
L 350.631133 450.934425 
L 374.526818 452.192883 
L 402.405117 453.405251 
L 434.26603 454.537462 
L 470.109557 455.571275 
L 509.935698 456.499922 
L 557.727067 457.390859 
L 613.483665 458.208193 
L 681.188104 458.973979 
L 709.066403 459.235053 
L 709.066403 459.235053 
" clip-path="url(#pda9979aa4d)" style="fill: none; stroke: #bcbd22; stroke-width: 5; stroke-linecap: round"/>
   </g>
   <g id="line2d_18">
    <path d="M 111.674287 91.922327 
L 115.656901 171.472319 
L 119.639515 229.811454 
L 123.622129 272.806521 
L 127.604743 304.56122 
L 131.587358 328.073005 
L 135.569972 345.684864 
L 139.552586 359.305487 
L 143.5352 370.154524 
L 147.517814 378.999567 
L 151.500428 386.349381 
L 155.483042 392.553064 
L 159.465656 397.859783 
L 163.44827 402.45041 
L 167.430885 406.461207 
L 171.413499 409.995107 
L 175.396113 413.132066 
L 179.378727 415.93572 
L 183.361341 418.456309 
L 187.343955 420.734644 
L 191.326569 422.803778 
L 195.309183 424.691432 
L 199.291797 426.420377 
L 203.274412 428.009751 
L 211.23964 430.83215 
L 219.204868 433.261813 
L 227.170096 435.375141 
L 235.135324 437.22983 
L 243.100553 438.870521 
L 251.065781 440.332028 
L 263.013623 442.247272 
L 274.961465 443.892193 
L 286.909308 445.319857 
L 302.839764 446.953252 
L 318.770221 448.340944 
L 338.683291 449.80642 
L 358.596362 451.038418 
L 382.492046 452.279237 
L 410.370345 453.476052 
L 442.231258 454.595012 
L 478.074785 455.617795 
L 517.900926 456.537414 
L 565.692295 457.420485 
L 621.448893 458.231272 
L 689.153333 458.991511 
L 709.066403 459.179466 
L 709.066403 459.179466 
" clip-path="url(#pda9979aa4d)" style="fill: none; stroke: #17becf; stroke-width: 5; stroke-linecap: round"/>
   </g>
   <g id="patch_3">
    <path d="M 111.674287 462.354512 
L 111.674287 73.400718 
" style="fill: none; stroke: #262626; stroke-width: 0.8; stroke-linejoin: miter; stroke-linecap: square"/>
   </g>
   <g id="patch_4">
    <path d="M 111.674287 462.354512 
L 738.936009 462.354512 
" style="fill: none; stroke: #262626; stroke-width: 0.8; stroke-linejoin: miter; stroke-linecap: square"/>
   </g>
   <g id="patch_5">
    <path d="M 410.370345 460.356589 
Q 410.370345 457.915086 410.370345 457.150633 
" style="fill: none; stroke: #ffffff; stroke-width: 1.5; stroke-linecap: round"/>
    <path d="M 403.170345 471.550633 
L 410.370345 457.150633 
L 417.570345 471.550633 
" style="fill: none; stroke: #ffffff; stroke-width: 1.5; stroke-linecap: round"/>
   </g>
   <g id="text_10">
    <!-- Time -->
    <g style="fill: #262626" transform="translate(440.239951 449.985939) scale(0.18 -0.18)">
     <defs>
      <path id="CMSS17-54" d="M 2317 3968 
L 2848 3968 
C 2925 3968 3002 3968 3078 3968 
L 3878 3968 
L 3878 4376 
L 218 4376 
L 218 3968 
L 1018 3968 
C 1094 3968 1171 3968 1248 3968 
L 1779 3968 
L 1779 -32 
L 2317 -32 
L 2317 3968 
z
" transform="scale(0.015625)"/>
      <path id="CMSS17-69" d="M 979 4183 
L 442 4183 
L 442 3648 
L 979 3648 
L 979 4183 
z
M 947 2739 
L 474 2739 
L 474 0 
L 947 0 
L 947 2739 
z
" transform="scale(0.015625)"/>
      <path id="CMSS17-6d" d="M 4288 1877 
C 4288 2308 4179 2816 3462 2816 
C 2982 2816 2694 2516 2566 2331 
C 2451 2670 2182 2816 1798 2816 
C 1363 2816 1088 2568 941 2389 
L 941 2758 
L 474 2758 
L 474 0 
L 960 0 
L 960 1559 
C 960 1939 1101 2428 1555 2428 
C 2138 2428 2138 2016 2138 1829 
L 2138 0 
L 2624 0 
L 2624 1559 
C 2624 1939 2765 2428 3219 2428 
C 3802 2428 3802 2016 3802 1829 
L 3802 0 
L 4288 0 
L 4288 1877 
z
" transform="scale(0.015625)"/>
      <path id="CMSS17-65" d="M 2502 1377 
C 2502 1590 2490 2003 2285 2345 
C 2061 2713 1696 2816 1421 2816 
C 755 2816 192 2188 192 1375 
C 192 582 774 -64 1510 -64 
C 1798 -64 2150 19 2470 248 
C 2470 274 2458 414 2451 420 
C 2451 433 2432 630 2432 656 
C 2125 407 1773 325 1517 325 
C 1107 325 666 667 646 1377 
L 2502 1377 
z
M 698 1728 
C 781 2084 1062 2421 1421 2421 
C 1517 2421 1965 2421 2080 1728 
L 698 1728 
z
" transform="scale(0.015625)"/>
     </defs>
     <use xlink:href="#CMSS17-54" transform="scale(0.996264)"/>
     <use xlink:href="#CMSS17-69" transform="translate(63.819454 0) scale(0.996264)"/>
     <use xlink:href="#CMSS17-6d" transform="translate(86.000177 0) scale(0.996264)"/>
     <use xlink:href="#CMSS17-65" transform="translate(160.229431 0) scale(0.996264)"/>
    </g>
   </g>
   <g id="legend_1">
    <g id="patch_6">
     <path d="M 764.136009 524.158333 
L 1033.92 524.158333 
Q 1041.12 524.158333 1041.12 516.958333 
L 1041.12 18.796897 
Q 1041.12 11.596897 1033.92 11.596897 
L 764.136009 11.596897 
Q 756.936009 11.596897 756.936009 18.796897 
L 756.936009 516.958333 
Q 756.936009 524.158333 764.136009 524.158333 
z
" style="fill: #ffffff; opacity: 0.8; stroke: #cccccc; stroke-linejoin: miter"/>
    </g>
    <g id="line2d_19">
     <path d="M 771.336009 38.596897 
L 807.336009 38.596897 
L 843.336009 38.596897 
" style="fill: none; stroke: #1f77b4; stroke-width: 5; stroke-linecap: round"/>
    </g>
    <g id="text_11">
     <!-- t = 0.00 -->
     <g style="fill: #262626" transform="translate(872.136009 51.196897) scale(0.36 -0.36)">
      <defs>
       <path id="CMSS17-74" d="M 1069 2368 
L 1901 2368 
L 1901 2737 
L 1069 2737 
L 1069 3520 
L 614 3520 
L 614 2737 
L 109 2737 
L 109 2368 
L 602 2368 
L 602 749 
C 602 384 685 -64 1107 -64 
C 1427 -64 1722 25 2003 172 
L 1901 548 
C 1747 414 1562 337 1363 337 
C 1082 337 1069 696 1069 856 
L 1069 2368 
z
" transform="scale(0.015625)"/>
       <path id="CMSS17-3d" d="M 4147 2017 
C 4243 2017 4339 2017 4339 2125 
C 4339 2240 4230 2240 4122 2240 
L 550 2240 
C 442 2240 333 2240 333 2125 
C 333 2017 429 2017 525 2017 
L 4147 2017 
z
M 4122 896 
C 4230 896 4339 896 4339 1011 
C 4339 1119 4243 1119 4147 1119 
L 525 1119 
C 429 1119 333 1119 333 1011 
C 333 896 442 896 550 896 
L 4122 896 
z
" transform="scale(0.015625)"/>
       <path id="CMSS17-30" d="M 2758 2044 
C 2758 2405 2752 3077 2490 3596 
C 2227 4096 1805 4229 1504 4229 
C 1069 4229 698 3975 506 3570 
C 301 3146 243 2709 243 2044 
C 243 1589 262 1031 493 543 
C 755 5 1197 -128 1498 -128 
C 1894 -128 2278 81 2496 518 
C 2720 974 2758 1474 2758 2044 
z
M 1498 261 
C 1011 261 864 811 819 995 
C 742 1310 730 1614 730 2114 
C 730 2506 730 2948 851 3297 
C 998 3701 1254 3840 1498 3840 
C 1971 3840 2125 3372 2176 3208 
C 2272 2873 2272 2481 2272 2114 
C 2272 1526 2272 261 1498 261 
z
" transform="scale(0.015625)"/>
       <path id="CMSS17-2e" d="M 1088 510 
L 576 510 
L 576 0 
L 1088 0 
L 1088 510 
z
" transform="scale(0.015625)"/>
      </defs>
      <use xlink:href="#CMSS17-74" transform="scale(0.996264)"/>
      <use xlink:href="#CMSS17-3d" transform="translate(65.060679 0) scale(0.996264)"/>
      <use xlink:href="#CMSS17-30" transform="translate(169.157727 0) scale(0.996264)"/>
      <use xlink:href="#CMSS17-2e" transform="translate(216.001351 0) scale(0.996264)"/>
      <use xlink:href="#CMSS17-30" transform="translate(242.025555 0) scale(0.996264)"/>
      <use xlink:href="#CMSS17-30" transform="translate(288.869179 0) scale(0.996264)"/>
     </g>
    </g>
    <g id="line2d_20">
     <path d="M 771.336009 88.773041 
L 807.336009 88.773041 
L 843.336009 88.773041 
" style="fill: none; stroke: #ff7f0e; stroke-width: 5; stroke-linecap: round"/>
    </g>
    <g id="text_12">
     <!-- t = 50.00 -->
     <g style="fill: #262626" transform="translate(872.136009 101.373041) scale(0.36 -0.36)">
      <defs>
       <path id="CMSS17-35" d="M 934 3752 
L 2502 3752 
L 2502 4160 
L 467 4160 
L 467 1781 
L 896 1781 
C 1011 2046 1248 2240 1555 2240 
C 1843 2240 2163 1989 2163 1266 
C 2163 493 1709 267 1376 267 
C 966 267 589 512 422 851 
L 218 499 
C 512 49 992 -128 1376 -128 
C 2118 -128 2701 497 2701 1253 
C 2701 2030 2182 2629 1562 2629 
C 1338 2629 1120 2553 934 2399 
L 934 3752 
z
" transform="scale(0.015625)"/>
      </defs>
      <use xlink:href="#CMSS17-74" transform="scale(0.996264)"/>
      <use xlink:href="#CMSS17-3d" transform="translate(65.060679 0) scale(0.996264)"/>
      <use xlink:href="#CMSS17-35" transform="translate(169.157727 0) scale(0.996264)"/>
      <use xlink:href="#CMSS17-30" transform="translate(216.001351 0) scale(0.996264)"/>
      <use xlink:href="#CMSS17-2e" transform="translate(262.844974 0) scale(0.996264)"/>
      <use xlink:href="#CMSS17-30" transform="translate(288.869179 0) scale(0.996264)"/>
      <use xlink:href="#CMSS17-30" transform="translate(335.712802 0) scale(0.996264)"/>
     </g>
    </g>
    <g id="line2d_21">
     <path d="M 771.336009 138.949184 
L 807.336009 138.949184 
L 843.336009 138.949184 
" style="fill: none; stroke: #2ca02c; stroke-width: 5; stroke-linecap: round"/>
    </g>
    <g id="text_13">
     <!-- t = 100.00 -->
     <g style="fill: #262626" transform="translate(872.136009 151.549184) scale(0.36 -0.36)">
      <defs>
       <path id="CMSS17-31" d="M 1818 4288 
L 1696 4288 
C 1350 3940 947 3890 538 3890 
L 538 3520 
C 723 3520 1024 3520 1325 3667 
L 1325 369 
L 570 369 
L 570 0 
L 2573 0 
L 2573 369 
L 1818 369 
L 1818 4288 
z
" transform="scale(0.015625)"/>
      </defs>
      <use xlink:href="#CMSS17-74" transform="scale(0.996264)"/>
      <use xlink:href="#CMSS17-3d" transform="translate(65.060679 0) scale(0.996264)"/>
      <use xlink:href="#CMSS17-31" transform="translate(169.157727 0) scale(0.996264)"/>
      <use xlink:href="#CMSS17-30" transform="translate(216.001351 0) scale(0.996264)"/>
      <use xlink:href="#CMSS17-30" transform="translate(262.844974 0) scale(0.996264)"/>
      <use xlink:href="#CMSS17-2e" transform="translate(309.688598 0) scale(0.996264)"/>
      <use xlink:href="#CMSS17-30" transform="translate(335.712802 0) scale(0.996264)"/>
      <use xlink:href="#CMSS17-30" transform="translate(382.556426 0) scale(0.996264)"/>
     </g>
    </g>
    <g id="line2d_22">
     <path d="M 771.336009 189.125328 
L 807.336009 189.125328 
L 843.336009 189.125328 
" style="fill: none; stroke: #d62728; stroke-width: 5; stroke-linecap: round"/>
    </g>
    <g id="text_14">
     <!-- t = 150.00 -->
     <g style="fill: #262626" transform="translate(872.136009 201.725328) scale(0.36 -0.36)">
      <use xlink:href="#CMSS17-74" transform="scale(0.996264)"/>
      <use xlink:href="#CMSS17-3d" transform="translate(65.060679 0) scale(0.996264)"/>
      <use xlink:href="#CMSS17-31" transform="translate(169.157727 0) scale(0.996264)"/>
      <use xlink:href="#CMSS17-35" transform="translate(216.001351 0) scale(0.996264)"/>
      <use xlink:href="#CMSS17-30" transform="translate(262.844974 0) scale(0.996264)"/>
      <use xlink:href="#CMSS17-2e" transform="translate(309.688598 0) scale(0.996264)"/>
      <use xlink:href="#CMSS17-30" transform="translate(335.712802 0) scale(0.996264)"/>
      <use xlink:href="#CMSS17-30" transform="translate(382.556426 0) scale(0.996264)"/>
     </g>
    </g>
    <g id="line2d_23">
     <path d="M 771.336009 239.301472 
L 807.336009 239.301472 
L 843.336009 239.301472 
" style="fill: none; stroke: #9467bd; stroke-width: 5; stroke-linecap: round"/>
    </g>
    <g id="text_15">
     <!-- t = 200.00 -->
     <g style="fill: #262626" transform="translate(872.136009 251.901472) scale(0.36 -0.36)">
      <defs>
       <path id="CMSS17-32" d="M 1651 1357 
C 1830 1541 2099 1764 2285 1987 
C 2464 2204 2701 2511 2701 2957 
C 2701 3657 2227 4288 1421 4288 
C 787 4288 422 3893 250 3274 
L 499 2929 
C 640 3510 838 3880 1338 3880 
C 1888 3880 2195 3433 2195 2942 
C 2195 2355 1747 1901 1408 1563 
C 1030 1187 659 804 301 408 
L 301 0 
L 2701 0 
L 2701 433 
L 1613 433 
C 1536 433 1459 433 1382 433 
L 742 433 
L 742 439 
L 1651 1357 
z
" transform="scale(0.015625)"/>
      </defs>
      <use xlink:href="#CMSS17-74" transform="scale(0.996264)"/>
      <use xlink:href="#CMSS17-3d" transform="translate(65.060679 0) scale(0.996264)"/>
      <use xlink:href="#CMSS17-32" transform="translate(169.157727 0) scale(0.996264)"/>
      <use xlink:href="#CMSS17-30" transform="translate(216.001351 0) scale(0.996264)"/>
      <use xlink:href="#CMSS17-30" transform="translate(262.844974 0) scale(0.996264)"/>
      <use xlink:href="#CMSS17-2e" transform="translate(309.688598 0) scale(0.996264)"/>
      <use xlink:href="#CMSS17-30" transform="translate(335.712802 0) scale(0.996264)"/>
      <use xlink:href="#CMSS17-30" transform="translate(382.556426 0) scale(0.996264)"/>
     </g>
    </g>
    <g id="line2d_24">
     <path d="M 771.336009 289.477615 
L 807.336009 289.477615 
L 843.336009 289.477615 
" style="fill: none; stroke: #8c564b; stroke-width: 5; stroke-linecap: round"/>
    </g>
    <g id="text_16">
     <!-- t = 250.00 -->
     <g style="fill: #262626" transform="translate(872.136009 302.077615) scale(0.36 -0.36)">
      <use xlink:href="#CMSS17-74" transform="scale(0.996264)"/>
      <use xlink:href="#CMSS17-3d" transform="translate(65.060679 0) scale(0.996264)"/>
      <use xlink:href="#CMSS17-32" transform="translate(169.157727 0) scale(0.996264)"/>
      <use xlink:href="#CMSS17-35" transform="translate(216.001351 0) scale(0.996264)"/>
      <use xlink:href="#CMSS17-30" transform="translate(262.844974 0) scale(0.996264)"/>
      <use xlink:href="#CMSS17-2e" transform="translate(309.688598 0) scale(0.996264)"/>
      <use xlink:href="#CMSS17-30" transform="translate(335.712802 0) scale(0.996264)"/>
      <use xlink:href="#CMSS17-30" transform="translate(382.556426 0) scale(0.996264)"/>
     </g>
    </g>
    <g id="line2d_25">
     <path d="M 771.336009 339.653759 
L 807.336009 339.653759 
L 843.336009 339.653759 
" style="fill: none; stroke: #e377c2; stroke-width: 5; stroke-linecap: round"/>
    </g>
    <g id="text_17">
     <!-- t = 300.00 -->
     <g style="fill: #262626" transform="translate(872.136009 352.253759) scale(0.36 -0.36)">
      <defs>
       <path id="CMSS17-33" d="M 1005 2025 
L 1440 2025 
C 2042 2025 2214 1507 2214 1146 
C 2214 653 1933 267 1472 267 
C 1114 267 608 444 320 912 
C 275 691 275 678 250 526 
C 550 88 1037 -128 1485 -128 
C 2214 -128 2752 473 2752 1138 
C 2752 1638 2400 2057 1920 2215 
C 2304 2424 2586 2816 2586 3273 
C 2586 3805 2093 4229 1491 4229 
C 941 4229 512 3892 333 3530 
C 378 3468 493 3284 550 3189 
C 691 3562 1056 3840 1485 3840 
C 1843 3840 2080 3607 2080 3271 
C 2080 2923 1856 2543 1478 2455 
C 1453 2455 1056 2417 1005 2411 
L 1005 2025 
z
" transform="scale(0.015625)"/>
      </defs>
      <use xlink:href="#CMSS17-74" transform="scale(0.996264)"/>
      <use xlink:href="#CMSS17-3d" transform="translate(65.060679 0) scale(0.996264)"/>
      <use xlink:href="#CMSS17-33" transform="translate(169.157727 0) scale(0.996264)"/>
      <use xlink:href="#CMSS17-30" transform="translate(216.001351 0) scale(0.996264)"/>
      <use xlink:href="#CMSS17-30" transform="translate(262.844974 0) scale(0.996264)"/>
      <use xlink:href="#CMSS17-2e" transform="translate(309.688598 0) scale(0.996264)"/>
      <use xlink:href="#CMSS17-30" transform="translate(335.712802 0) scale(0.996264)"/>
      <use xlink:href="#CMSS17-30" transform="translate(382.556426 0) scale(0.996264)"/>
     </g>
    </g>
    <g id="line2d_26">
     <path d="M 771.336009 389.829902 
L 807.336009 389.829902 
L 843.336009 389.829902 
" style="fill: none; stroke: #7f7f7f; stroke-width: 5; stroke-linecap: round"/>
    </g>
    <g id="text_18">
     <!-- t = 350.00 -->
     <g style="fill: #262626" transform="translate(872.136009 402.429902) scale(0.36 -0.36)">
      <use xlink:href="#CMSS17-74" transform="scale(0.996264)"/>
      <use xlink:href="#CMSS17-3d" transform="translate(65.060679 0) scale(0.996264)"/>
      <use xlink:href="#CMSS17-33" transform="translate(169.157727 0) scale(0.996264)"/>
      <use xlink:href="#CMSS17-35" transform="translate(216.001351 0) scale(0.996264)"/>
      <use xlink:href="#CMSS17-30" transform="translate(262.844974 0) scale(0.996264)"/>
      <use xlink:href="#CMSS17-2e" transform="translate(309.688598 0) scale(0.996264)"/>
      <use xlink:href="#CMSS17-30" transform="translate(335.712802 0) scale(0.996264)"/>
      <use xlink:href="#CMSS17-30" transform="translate(382.556426 0) scale(0.996264)"/>
     </g>
    </g>
    <g id="line2d_27">
     <path d="M 771.336009 440.006046 
L 807.336009 440.006046 
L 843.336009 440.006046 
" style="fill: none; stroke: #bcbd22; stroke-width: 5; stroke-linecap: round"/>
    </g>
    <g id="text_19">
     <!-- t = 400.00 -->
     <g style="fill: #262626" transform="translate(872.136009 452.606046) scale(0.36 -0.36)">
      <defs>
       <path id="CMSS17-34" d="M 2253 1088 
L 2835 1088 
L 2835 1477 
L 2253 1477 
L 2253 4192 
L 1690 4192 
L 166 1477 
L 166 1088 
L 1747 1088 
L 1747 0 
L 2253 0 
L 2253 1088 
z
M 659 1477 
C 1030 2127 1766 3439 1766 3885 
L 1766 1477 
L 659 1477 
z
" transform="scale(0.015625)"/>
      </defs>
      <use xlink:href="#CMSS17-74" transform="scale(0.996264)"/>
      <use xlink:href="#CMSS17-3d" transform="translate(65.060679 0) scale(0.996264)"/>
      <use xlink:href="#CMSS17-34" transform="translate(169.157727 0) scale(0.996264)"/>
      <use xlink:href="#CMSS17-30" transform="translate(216.001351 0) scale(0.996264)"/>
      <use xlink:href="#CMSS17-30" transform="translate(262.844974 0) scale(0.996264)"/>
      <use xlink:href="#CMSS17-2e" transform="translate(309.688598 0) scale(0.996264)"/>
      <use xlink:href="#CMSS17-30" transform="translate(335.712802 0) scale(0.996264)"/>
      <use xlink:href="#CMSS17-30" transform="translate(382.556426 0) scale(0.996264)"/>
     </g>
    </g>
    <g id="line2d_28">
     <path d="M 771.336009 490.182189 
L 807.336009 490.182189 
L 843.336009 490.182189 
" style="fill: none; stroke: #17becf; stroke-width: 5; stroke-linecap: round"/>
    </g>
    <g id="text_20">
     <!-- t = 450.00 -->
     <g style="fill: #262626" transform="translate(872.136009 502.782189) scale(0.36 -0.36)">
      <use xlink:href="#CMSS17-74" transform="scale(0.996264)"/>
      <use xlink:href="#CMSS17-3d" transform="translate(65.060679 0) scale(0.996264)"/>
      <use xlink:href="#CMSS17-34" transform="translate(169.157727 0) scale(0.996264)"/>
      <use xlink:href="#CMSS17-35" transform="translate(216.001351 0) scale(0.996264)"/>
      <use xlink:href="#CMSS17-30" transform="translate(262.844974 0) scale(0.996264)"/>
      <use xlink:href="#CMSS17-2e" transform="translate(309.688598 0) scale(0.996264)"/>
      <use xlink:href="#CMSS17-30" transform="translate(335.712802 0) scale(0.996264)"/>
      <use xlink:href="#CMSS17-30" transform="translate(382.556426 0) scale(0.996264)"/>
     </g>
    </g>
   </g>
  </g>
 </g>
 <defs>
  <clipPath id="pda9979aa4d">
   <rect x="111.674287" y="73.400718" width="627.261722" height="388.953795"/>
  </clipPath>
 </defs>
</svg>
