<?xml version="1.0" encoding="utf-8" standalone="no"?>
<!DOCTYPE svg PUBLIC "-//W3C//DTD SVG 1.1//EN"
  "http://www.w3.org/Graphics/SVG/1.1/DTD/svg11.dtd">
<svg xmlns:xlink="http://www.w3.org/1999/xlink" width="1080pt" height="756pt" viewBox="0 0 1080 756" xmlns="http://www.w3.org/2000/svg" version="1.1">
 <metadata>
  <rdf:RDF xmlns:dc="http://purl.org/dc/elements/1.1/" xmlns:cc="http://creativecommons.org/ns#" xmlns:rdf="http://www.w3.org/1999/02/22-rdf-syntax-ns#">
   <cc:Work>
    <dc:type rdf:resource="http://purl.org/dc/dcmitype/StillImage"/>
    <dc:date>2024-07-31T08:54:39.205015</dc:date>
    <dc:format>image/svg+xml</dc:format>
    <dc:creator>
     <cc:Agent>
      <dc:title>Matplotlib v3.9.0, https://matplotlib.org/</dc:title>
     </cc:Agent>
    </dc:creator>
   </cc:Work>
  </rdf:RDF>
 </metadata>
 <defs>
  <style type="text/css">*{stroke-linejoin: round; stroke-linecap: butt}</style>
 </defs>
 <g id="figure_1">
  <g id="patch_1">
   <path d="M 0 756 
L 1080 756 
L 1080 0 
L 0 0 
z
" style="fill: #ffffff"/>
  </g>
  <g id="axes_1">
   <g id="patch_2">
    <path d="M 88.532127 678.237256 
L 1041.12 678.237256 
L 1041.12 38.88 
L 88.532127 38.88 
z
" style="fill: #ffffff"/>
   </g>
   <g id="matplotlib.axis_1">
    <g id="xtick_1">
     <g id="line2d_1">
      <defs>
       <path id="m85bcaa6a28" d="M 0 0 
L 0 3.5 
" style="stroke: #262626; stroke-width: 0.8"/>
      </defs>
      <g>
       <use xlink:href="#m85bcaa6a28" x="88.532127" y="678.237256" style="fill: #262626; stroke: #262626; stroke-width: 0.8"/>
      </g>
     </g>
     <g id="text_1">
      <!-- $\mathdefault{0.0}$ -->
      <g style="fill: #262626" transform="translate(67.206064 710.143856) scale(0.36 -0.36)">
       <defs>
        <path id="CMR17-30" d="M 2688 2025 
C 2688 2416 2682 3080 2413 3591 
C 2176 4039 1798 4198 1466 4198 
C 1158 4198 768 4058 525 3597 
C 269 3118 243 2524 243 2025 
C 243 1661 250 1106 448 619 
C 723 -39 1216 -128 1466 -128 
C 1760 -128 2208 -7 2470 600 
C 2662 1042 2688 1559 2688 2025 
z
M 1466 -26 
C 1056 -26 813 325 723 812 
C 653 1188 653 1738 653 2096 
C 653 2588 653 2997 736 3387 
C 858 3929 1216 4096 1466 4096 
C 1728 4096 2067 3923 2189 3400 
C 2272 3036 2278 2607 2278 2096 
C 2278 1680 2278 1169 2202 792 
C 2067 95 1690 -26 1466 -26 
z
" transform="scale(0.015625)"/>
        <path id="CMMI12-3a" d="M 1178 307 
C 1178 492 1024 619 870 619 
C 685 619 557 466 557 313 
C 557 128 710 0 864 0 
C 1050 0 1178 153 1178 307 
z
" transform="scale(0.015625)"/>
       </defs>
       <use xlink:href="#CMR17-30" transform="scale(0.996264)"/>
       <use xlink:href="#CMMI12-3a" transform="translate(45.690477 0) scale(0.996264)"/>
       <use xlink:href="#CMR17-30" transform="translate(72.787654 0) scale(0.996264)"/>
      </g>
     </g>
    </g>
    <g id="xtick_2">
     <g id="line2d_2">
      <g>
       <use xlink:href="#m85bcaa6a28" x="269.977436" y="678.237256" style="fill: #262626; stroke: #262626; stroke-width: 0.8"/>
      </g>
     </g>
     <g id="text_2">
      <!-- $\mathdefault{0.2}$ -->
      <g style="fill: #262626" transform="translate(248.651373 710.143856) scale(0.36 -0.36)">
       <defs>
        <path id="CMR17-32" d="M 2669 989 
L 2554 989 
C 2490 536 2438 459 2413 420 
C 2381 369 1920 369 1830 369 
L 602 369 
C 832 619 1280 1072 1824 1597 
C 2214 1967 2669 2402 2669 3035 
C 2669 3790 2067 4224 1395 4224 
C 691 4224 262 3604 262 3030 
C 262 2780 448 2748 525 2748 
C 589 2748 781 2787 781 3010 
C 781 3207 614 3264 525 3264 
C 486 3264 448 3258 422 3245 
C 544 3790 915 4058 1306 4058 
C 1862 4058 2227 3617 2227 3035 
C 2227 2479 1901 2000 1536 1584 
L 262 146 
L 262 0 
L 2515 0 
L 2669 989 
z
" transform="scale(0.015625)"/>
       </defs>
       <use xlink:href="#CMR17-30" transform="scale(0.996264)"/>
       <use xlink:href="#CMMI12-3a" transform="translate(45.690477 0) scale(0.996264)"/>
       <use xlink:href="#CMR17-32" transform="translate(72.787654 0) scale(0.996264)"/>
      </g>
     </g>
    </g>
    <g id="xtick_3">
     <g id="line2d_3">
      <g>
       <use xlink:href="#m85bcaa6a28" x="451.422745" y="678.237256" style="fill: #262626; stroke: #262626; stroke-width: 0.8"/>
      </g>
     </g>
     <g id="text_3">
      <!-- $\mathdefault{0.4}$ -->
      <g style="fill: #262626" transform="translate(430.096682 710.143856) scale(0.36 -0.36)">
       <defs>
        <path id="CMR17-34" d="M 2150 4122 
C 2150 4256 2144 4256 2029 4256 
L 128 1254 
L 128 1088 
L 1779 1088 
L 1779 457 
C 1779 224 1766 160 1318 160 
L 1197 160 
L 1197 0 
C 1402 0 1747 0 1965 0 
C 2182 0 2528 0 2733 0 
L 2733 160 
L 2611 160 
C 2163 160 2150 224 2150 457 
L 2150 1088 
L 2803 1088 
L 2803 1254 
L 2150 1254 
L 2150 4122 
z
M 1798 3703 
L 1798 1254 
L 256 1254 
L 1798 3703 
z
" transform="scale(0.015625)"/>
       </defs>
       <use xlink:href="#CMR17-30" transform="scale(0.996264)"/>
       <use xlink:href="#CMMI12-3a" transform="translate(45.690477 0) scale(0.996264)"/>
       <use xlink:href="#CMR17-34" transform="translate(72.787654 0) scale(0.996264)"/>
      </g>
     </g>
    </g>
    <g id="xtick_4">
     <g id="line2d_4">
      <g>
       <use xlink:href="#m85bcaa6a28" x="632.868055" y="678.237256" style="fill: #262626; stroke: #262626; stroke-width: 0.8"/>
      </g>
     </g>
     <g id="text_4">
      <!-- $\mathdefault{0.6}$ -->
      <g style="fill: #262626" transform="translate(611.541991 710.143856) scale(0.36 -0.36)">
       <defs>
        <path id="CMR17-36" d="M 678 2176 
C 678 3690 1395 4032 1811 4032 
C 1946 4032 2272 4009 2400 3776 
C 2298 3776 2106 3776 2106 3553 
C 2106 3381 2246 3323 2336 3323 
C 2394 3323 2566 3348 2566 3560 
C 2566 3954 2246 4179 1805 4179 
C 1043 4179 243 3390 243 1984 
C 243 253 966 -128 1478 -128 
C 2099 -128 2688 427 2688 1283 
C 2688 2081 2170 2662 1517 2662 
C 1126 2662 838 2407 678 1960 
L 678 2176 
z
M 1478 25 
C 691 25 691 1200 691 1436 
C 691 1896 909 2560 1504 2560 
C 1613 2560 1926 2560 2138 2120 
C 2253 1870 2253 1609 2253 1289 
C 2253 944 2253 690 2118 434 
C 1978 171 1773 25 1478 25 
z
" transform="scale(0.015625)"/>
       </defs>
       <use xlink:href="#CMR17-30" transform="scale(0.996264)"/>
       <use xlink:href="#CMMI12-3a" transform="translate(45.690477 0) scale(0.996264)"/>
       <use xlink:href="#CMR17-36" transform="translate(72.787654 0) scale(0.996264)"/>
      </g>
     </g>
    </g>
    <g id="xtick_5">
     <g id="line2d_5">
      <g>
       <use xlink:href="#m85bcaa6a28" x="814.313364" y="678.237256" style="fill: #262626; stroke: #262626; stroke-width: 0.8"/>
      </g>
     </g>
     <g id="text_5">
      <!-- $\mathdefault{0.8}$ -->
      <g style="fill: #262626" transform="translate(792.9873 710.143856) scale(0.36 -0.36)">
       <defs>
        <path id="CMR17-38" d="M 1741 2264 
C 2144 2467 2554 2773 2554 3263 
C 2554 3841 1990 4179 1472 4179 
C 890 4179 378 3759 378 3180 
C 378 3021 416 2747 666 2505 
C 730 2442 998 2251 1171 2130 
C 883 1983 211 1634 211 934 
C 211 279 838 -128 1459 -128 
C 2144 -128 2720 362 2720 1010 
C 2720 1590 2330 1857 2074 2029 
L 1741 2264 
z
M 902 2822 
C 851 2854 595 3051 595 3351 
C 595 3739 998 4032 1459 4032 
C 1965 4032 2336 3676 2336 3262 
C 2336 2669 1670 2331 1638 2331 
C 1632 2331 1626 2331 1574 2370 
L 902 2822 
z
M 2080 1519 
C 2176 1449 2483 1240 2483 851 
C 2483 381 2010 25 1472 25 
C 890 25 448 438 448 940 
C 448 1443 838 1862 1280 2060 
L 2080 1519 
z
" transform="scale(0.015625)"/>
       </defs>
       <use xlink:href="#CMR17-30" transform="scale(0.996264)"/>
       <use xlink:href="#CMMI12-3a" transform="translate(45.690477 0) scale(0.996264)"/>
       <use xlink:href="#CMR17-38" transform="translate(72.787654 0) scale(0.996264)"/>
      </g>
     </g>
    </g>
    <g id="xtick_6">
     <g id="line2d_6">
      <g>
       <use xlink:href="#m85bcaa6a28" x="995.758673" y="678.237256" style="fill: #262626; stroke: #262626; stroke-width: 0.8"/>
      </g>
     </g>
     <g id="text_6">
      <!-- $\mathdefault{1.0}$ -->
      <g style="fill: #262626" transform="translate(974.432609 710.143856) scale(0.36 -0.36)">
       <defs>
        <path id="CMR17-31" d="M 1702 4058 
C 1702 4192 1696 4192 1606 4192 
C 1357 3916 979 3827 621 3827 
C 602 3827 570 3827 563 3808 
C 557 3795 557 3782 557 3648 
C 755 3648 1088 3686 1344 3839 
L 1344 461 
C 1344 236 1331 160 781 160 
L 589 160 
L 589 0 
C 896 0 1216 0 1523 0 
C 1830 0 2150 0 2458 0 
L 2458 160 
L 2266 160 
C 1715 160 1702 230 1702 458 
L 1702 4058 
z
" transform="scale(0.015625)"/>
       </defs>
       <use xlink:href="#CMR17-31" transform="scale(0.996264)"/>
       <use xlink:href="#CMMI12-3a" transform="translate(45.690477 0) scale(0.996264)"/>
       <use xlink:href="#CMR17-30" transform="translate(72.787654 0) scale(0.996264)"/>
      </g>
     </g>
    </g>
   </g>
   <g id="matplotlib.axis_2">
    <g id="ytick_1">
     <g id="line2d_7">
      <defs>
       <path id="m388503b8e0" d="M 0 0 
L -3.5 0 
" style="stroke: #262626; stroke-width: 0.8"/>
      </defs>
      <g>
       <use xlink:href="#m388503b8e0" x="88.532127" y="678.237256" style="fill: #262626; stroke: #262626; stroke-width: 0.8"/>
      </g>
     </g>
     <g id="text_7">
      <!-- $\mathdefault{0.0}$ -->
      <g style="fill: #262626" transform="translate(38.88 690.690556) scale(0.36 -0.36)">
       <use xlink:href="#CMR17-30" transform="scale(0.996264)"/>
       <use xlink:href="#CMMI12-3a" transform="translate(45.690477 0) scale(0.996264)"/>
       <use xlink:href="#CMR17-30" transform="translate(72.787654 0) scale(0.996264)"/>
      </g>
     </g>
    </g>
    <g id="ytick_2">
     <g id="line2d_8">
      <g>
       <use xlink:href="#m388503b8e0" x="88.532127" y="678.235053" style="fill: #262626; stroke: #262626; stroke-width: 0.8"/>
      </g>
     </g>
     <g id="text_8">
      <!-- $\mathdefault{0.2}$ -->
      <g style="fill: #262626" transform="translate(38.88 690.688353) scale(0.36 -0.36)">
       <use xlink:href="#CMR17-30" transform="scale(0.996264)"/>
       <use xlink:href="#CMMI12-3a" transform="translate(45.690477 0) scale(0.996264)"/>
       <use xlink:href="#CMR17-32" transform="translate(72.787654 0) scale(0.996264)"/>
      </g>
     </g>
    </g>
    <g id="ytick_3">
     <g id="line2d_9">
      <g>
       <use xlink:href="#m388503b8e0" x="88.532127" y="678.232849" style="fill: #262626; stroke: #262626; stroke-width: 0.8"/>
      </g>
     </g>
     <g id="text_9">
      <!-- $\mathdefault{0.4}$ -->
      <g style="fill: #262626" transform="translate(38.88 690.68615) scale(0.36 -0.36)">
       <use xlink:href="#CMR17-30" transform="scale(0.996264)"/>
       <use xlink:href="#CMMI12-3a" transform="translate(45.690477 0) scale(0.996264)"/>
       <use xlink:href="#CMR17-34" transform="translate(72.787654 0) scale(0.996264)"/>
      </g>
     </g>
    </g>
    <g id="ytick_4">
     <g id="line2d_10">
      <g>
       <use xlink:href="#m388503b8e0" x="88.532127" y="678.230646" style="fill: #262626; stroke: #262626; stroke-width: 0.8"/>
      </g>
     </g>
     <g id="text_10">
      <!-- $\mathdefault{0.6}$ -->
      <g style="fill: #262626" transform="translate(38.88 690.683946) scale(0.36 -0.36)">
       <use xlink:href="#CMR17-30" transform="scale(0.996264)"/>
       <use xlink:href="#CMMI12-3a" transform="translate(45.690477 0) scale(0.996264)"/>
       <use xlink:href="#CMR17-36" transform="translate(72.787654 0) scale(0.996264)"/>
      </g>
     </g>
    </g>
    <g id="ytick_5">
     <g id="line2d_11">
      <g>
       <use xlink:href="#m388503b8e0" x="88.532127" y="678.228443" style="fill: #262626; stroke: #262626; stroke-width: 0.8"/>
      </g>
     </g>
     <g id="text_11">
      <!-- $\mathdefault{0.8}$ -->
      <g style="fill: #262626" transform="translate(38.88 690.681743) scale(0.36 -0.36)">
       <use xlink:href="#CMR17-30" transform="scale(0.996264)"/>
       <use xlink:href="#CMMI12-3a" transform="translate(45.690477 0) scale(0.996264)"/>
       <use xlink:href="#CMR17-38" transform="translate(72.787654 0) scale(0.996264)"/>
      </g>
     </g>
    </g>
    <g id="ytick_6">
     <g id="line2d_12">
      <g>
       <use xlink:href="#m388503b8e0" x="88.532127" y="678.226239" style="fill: #262626; stroke: #262626; stroke-width: 0.8"/>
      </g>
     </g>
     <g id="text_12">
      <!-- $\mathdefault{1.0}$ -->
      <g style="fill: #262626" transform="translate(38.88 690.679539) scale(0.36 -0.36)">
       <use xlink:href="#CMR17-31" transform="scale(0.996264)"/>
       <use xlink:href="#CMMI12-3a" transform="translate(45.690477 0) scale(0.996264)"/>
       <use xlink:href="#CMR17-30" transform="translate(72.787654 0) scale(0.996264)"/>
      </g>
     </g>
    </g>
    <g id="ytick_7">
     <g id="line2d_13">
      <g>
       <use xlink:href="#m388503b8e0" x="88.532127" y="678.224036" style="fill: #262626; stroke: #262626; stroke-width: 0.8"/>
      </g>
     </g>
     <g id="text_13">
      <!-- $\mathdefault{1.2}$ -->
      <g style="fill: #262626" transform="translate(38.88 690.677336) scale(0.36 -0.36)">
       <use xlink:href="#CMR17-31" transform="scale(0.996264)"/>
       <use xlink:href="#CMMI12-3a" transform="translate(45.690477 0) scale(0.996264)"/>
       <use xlink:href="#CMR17-32" transform="translate(72.787654 0) scale(0.996264)"/>
      </g>
     </g>
    </g>
   </g>
   <g id="line2d_14">
    <path d="M 88.532127 678.237256 
L 995.758673 678.237256 
L 995.758673 678.237256 
" clip-path="url(#p9e9f162d00)" style="fill: none; stroke: #1f77b4; stroke-width: 5; stroke-linecap: round"/>
   </g>
   <g id="line2d_15">
    <path d="M 88.532127 675.864754 
L 136.917543 676.389839 
L 203.44749 676.846757 
L 294.170144 677.225972 
L 433.278215 677.557845 
L 651.012585 677.826525 
L 995.758673 678.02311 
L 995.758673 678.02311 
" clip-path="url(#p9e9f162d00)" style="fill: none; stroke: #ff7f0e; stroke-width: 5; stroke-linecap: round"/>
   </g>
   <g id="line2d_16">
    <path d="M 88.532127 664.685292 
L 94.580304 666.54329 
L 100.628481 667.958998 
L 106.676658 669.074817 
L 112.724835 669.97783 
L 118.773012 670.723611 
L 130.869366 671.884423 
L 142.96572 672.746432 
L 155.062074 673.411931 
L 173.206605 674.167186 
L 197.399313 674.886872 
L 227.640198 675.511992 
L 263.929259 676.029217 
L 312.314675 676.495866 
L 378.844622 676.912042 
L 475.615453 677.282533 
L 620.771701 677.598048 
L 850.602425 677.855427 
L 995.758673 677.949295 
L 995.758673 677.949295 
" clip-path="url(#p9e9f162d00)" style="fill: none; stroke: #2ca02c; stroke-width: 5; stroke-linecap: round"/>
   </g>
   <g id="line2d_17">
    <path d="M 88.532127 617.510628 
L 94.580304 637.107976 
L 100.628481 648.924661 
L 106.676658 656.110071 
L 112.724835 660.565025 
L 118.773012 663.544624 
L 124.821189 665.678809 
L 130.869366 667.282674 
L 136.917543 668.532174 
L 142.96572 669.533114 
L 149.013897 670.352905 
L 161.110251 671.615651 
L 173.206605 672.5428 
L 185.302959 673.252417 
L 203.44749 674.05117 
L 227.640198 674.805774 
L 257.881082 675.456097 
L 294.170144 675.990589 
L 342.55556 676.470088 
L 409.085507 676.895555 
L 505.856338 677.272638 
L 651.012585 677.592533 
L 880.84331 677.852648 
L 995.758673 677.930363 
L 995.758673 677.930363 
" clip-path="url(#p9e9f162d00)" style="fill: none; stroke: #d62728; stroke-width: 5; stroke-linecap: round"/>
   </g>
   <g id="line2d_18">
    <path d="M 88.532127 547.256329 
L 94.580304 594.845984 
L 100.628481 623.335382 
L 106.676658 640.565206 
L 112.724835 651.011094 
L 118.773012 657.373671 
L 124.821189 661.381367 
L 130.869366 664.115572 
L 136.917543 666.100295 
L 142.96572 667.606628 
L 149.013897 668.788867 
L 155.062074 669.741532 
L 161.110251 670.525428 
L 173.206605 671.739525 
L 185.302959 672.636072 
L 197.399313 673.325083 
L 215.543844 674.103756 
L 239.736552 674.8423 
L 269.977436 675.481048 
L 306.266498 676.007635 
L 354.651914 676.481292 
L 421.181861 676.902569 
L 517.952692 677.27672 
L 663.108939 677.594706 
L 892.939664 677.853668 
L 995.758673 677.923984 
L 995.758673 677.923984 
" clip-path="url(#p9e9f162d00)" style="fill: none; stroke: #9467bd; stroke-width: 5; stroke-linecap: round"/>
   </g>
   <g id="line2d_19">
    <path d="M 88.532127 471.340331 
L 94.580304 549.409725 
L 100.628481 595.967306 
L 106.676658 624.016812 
L 112.724835 640.95809 
L 118.773012 651.230763 
L 124.821189 657.502491 
L 130.869366 661.463682 
L 136.917543 664.17236 
L 142.96572 666.141677 
L 149.013897 667.637946 
L 155.062074 668.813439 
L 161.110251 669.761144 
L 167.158428 670.541462 
L 179.254782 671.7509 
L 191.351136 672.644515 
L 203.44749 673.331587 
L 221.592021 674.108383 
L 245.784728 674.845416 
L 276.025613 675.483127 
L 312.314675 676.009013 
L 360.700091 676.482168 
L 427.230038 676.903079 
L 524.000869 677.276992 
L 669.157116 677.594828 
L 898.987841 677.853709 
L 995.758673 677.920367 
L 995.758673 677.920367 
" clip-path="url(#p9e9f162d00)" style="fill: none; stroke: #8c564b; stroke-width: 5; stroke-linecap: round"/>
   </g>
   <g id="line2d_20">
    <path d="M 88.532127 393.022582 
L 94.580304 502.685819 
L 100.628481 567.9129 
L 106.676658 607.106766 
L 112.724835 630.717384 
L 118.773012 644.997558 
L 124.821189 653.693422 
L 130.869366 659.025523 
L 136.917543 662.481438 
L 142.96572 664.90035 
L 149.013897 666.688041 
L 155.062074 668.063184 
L 161.110251 669.153607 
L 167.158428 670.03948 
L 173.206605 670.773593 
L 185.302959 671.919248 
L 197.399313 672.772088 
L 209.495667 673.431672 
L 227.640198 674.181191 
L 251.832905 674.896326 
L 282.07379 675.518153 
L 318.362852 676.033132 
L 366.748268 676.498138 
L 439.326392 676.942648 
L 542.1454 677.317442 
L 693.349824 677.626136 
L 935.276903 677.877812 
L 995.758673 677.917888 
L 995.758673 677.917888 
" clip-path="url(#p9e9f162d00)" style="fill: none; stroke: #e377c2; stroke-width: 5; stroke-linecap: round"/>
   </g>
   <g id="line2d_21">
    <path d="M 88.532127 313.43428 
L 94.580304 455.312744 
L 100.628481 539.533396 
L 106.676658 590.03936 
L 112.724835 620.40452 
L 118.773012 638.734136 
L 124.821189 649.872873 
L 130.869366 656.669595 
L 136.917543 660.915991 
L 142.96572 663.785032 
L 149.013897 665.853235 
L 155.062074 667.414961 
L 161.110251 668.635725 
L 167.158428 669.61624 
L 173.206605 670.421254 
L 185.302959 671.66414 
L 197.399313 672.578899 
L 209.495667 673.280337 
L 227.640198 674.071109 
L 251.832905 674.819417 
L 282.07379 675.465233 
L 318.362852 675.996693 
L 366.748268 676.473965 
L 433.278215 676.897858 
L 530.049046 677.273881 
L 675.205293 677.59311 
L 905.036018 677.852856 
L 995.758673 677.915991 
L 995.758673 677.915991 
" clip-path="url(#p9e9f162d00)" style="fill: none; stroke: #7f7f7f; stroke-width: 5; stroke-linecap: round"/>
   </g>
   <g id="line2d_22">
    <path d="M 88.532127 232.695481 
L 94.580304 407.341907 
L 100.628481 510.847434 
L 106.676658 572.818403 
L 112.724835 610.017276 
L 118.773012 632.436616 
L 124.821189 646.039117 
L 130.869366 654.325448 
L 136.917543 659.418602 
L 142.96572 662.747767 
L 149.013897 665.092413 
L 155.062074 666.83315 
L 161.110251 668.176427 
L 167.158428 669.244465 
L 173.206605 670.114192 
L 179.254782 670.835906 
L 191.351136 671.964572 
L 203.44749 672.806516 
L 221.592021 673.732519 
L 239.736552 674.402714 
L 263.929259 675.052849 
L 294.170144 675.626904 
L 336.507383 676.173867 
L 390.940976 676.63473 
L 469.567276 677.052729 
L 584.482639 677.411381 
L 759.879771 677.708506 
L 995.758673 677.914456 
L 995.758673 677.914456 
" clip-path="url(#p9e9f162d00)" style="fill: none; stroke: #bcbd22; stroke-width: 5; stroke-linecap: round"/>
   </g>
   <g id="line2d_23">
    <path d="M 88.532127 151.26818 
L 94.580304 359.0341 
L 100.628481 482.002683 
L 106.676658 555.527526 
L 112.724835 599.60304 
L 118.773012 626.131853 
L 124.821189 642.206568 
L 130.869366 651.986128 
L 136.917543 657.963579 
L 142.96572 661.766436 
L 149.013897 664.38607 
L 155.062074 666.300527 
L 161.110251 667.760494 
L 167.158428 668.910689 
L 173.206605 669.840449 
L 179.254782 670.607346 
L 191.351136 671.798331 
L 203.44749 672.680203 
L 215.543844 673.359458 
L 233.688375 674.128516 
L 257.881082 674.859379 
L 288.121967 675.492621 
L 324.411029 676.015472 
L 372.796445 676.486373 
L 439.326392 676.905675 
L 536.097223 677.278464 
L 681.25347 677.595582 
L 911.084195 677.854041 
L 995.758673 677.913172 
L 995.758673 677.913172 
" clip-path="url(#p9e9f162d00)" style="fill: none; stroke: #17becf; stroke-width: 5; stroke-linecap: round"/>
   </g>
   <g id="line2d_24">
    <path d="M 88.532127 69.325584 
L 94.580304 310.482114 
L 100.628481 453.048538 
L 106.676658 538.1927 
L 112.724835 589.175242 
L 118.773012 619.826624 
L 124.821189 638.37841 
L 130.869366 649.65238 
L 136.917543 656.531411 
L 142.96572 660.825155 
L 149.013897 663.720539 
L 155.062074 665.805197 
L 161.110251 667.377532 
L 167.158428 668.605785 
L 173.206605 669.591978 
L 179.254782 670.400979 
L 191.351136 671.649459 
L 203.44749 672.567773 
L 215.543844 673.271572 
L 233.688375 674.064742 
L 257.881082 674.814926 
L 288.121967 675.462095 
L 324.411029 675.994488 
L 372.796445 676.472474 
L 439.326392 676.896886 
L 536.097223 677.273274 
L 681.25347 677.592756 
L 911.084195 677.852666 
L 995.758673 677.91207 
L 995.758673 677.91207 
" clip-path="url(#p9e9f162d00)" style="fill: none; stroke: #17becf; stroke-width: 5; stroke-linecap: round"/>
   </g>
   <g id="patch_3">
    <path d="M 88.532127 678.237256 
L 88.532127 38.88 
" style="fill: none; stroke: #262626; stroke-width: 0.8; stroke-linejoin: miter; stroke-linecap: square"/>
   </g>
   <g id="patch_4">
    <path d="M 88.532127 678.237256 
L 1041.12 678.237256 
" style="fill: none; stroke: #262626; stroke-width: 0.8; stroke-linejoin: miter; stroke-linecap: square"/>
   </g>
  </g>
 </g>
 <defs>
  <clipPath id="p9e9f162d00">
   <rect x="88.532127" y="38.88" width="952.587873" height="639.357256"/>
  </clipPath>
 </defs>
</svg>
