<?xml version="1.0" encoding="utf-8" standalone="no"?>
<!DOCTYPE svg PUBLIC "-//W3C//DTD SVG 1.1//EN"
  "http://www.w3.org/Graphics/SVG/1.1/DTD/svg11.dtd">
<svg xmlns:xlink="http://www.w3.org/1999/xlink" width="1080pt" height="756pt" viewBox="0 0 1080 756" xmlns="http://www.w3.org/2000/svg" version="1.1">
 <metadata>
  <rdf:RDF xmlns:dc="http://purl.org/dc/elements/1.1/" xmlns:cc="http://creativecommons.org/ns#" xmlns:rdf="http://www.w3.org/1999/02/22-rdf-syntax-ns#">
   <cc:Work>
    <dc:type rdf:resource="http://purl.org/dc/dcmitype/StillImage"/>
    <dc:date>2024-07-31T08:54:01.052223</dc:date>
    <dc:format>image/svg+xml</dc:format>
    <dc:creator>
     <cc:Agent>
      <dc:title>Matplotlib v3.9.0, https://matplotlib.org/</dc:title>
     </cc:Agent>
    </dc:creator>
   </cc:Work>
  </rdf:RDF>
 </metadata>
 <defs>
  <style type="text/css">*{stroke-linejoin: round; stroke-linecap: butt}</style>
 </defs>
 <g id="figure_1">
  <g id="patch_1">
   <path d="M 0 756 
L 1080 756 
L 1080 0 
L 0 0 
z
" style="fill: #ffffff"/>
  </g>
  <g id="axes_1">
   <g id="patch_2">
    <path d="M 88.532127 678.237256 
L 1041.12 678.237256 
L 1041.12 38.88 
L 88.532127 38.88 
z
" style="fill: #ffffff"/>
   </g>
   <g id="matplotlib.axis_1">
    <g id="xtick_1">
     <g id="line2d_1">
      <defs>
       <path id="m7726404303" d="M 0 0 
L 0 3.5 
" style="stroke: #262626; stroke-width: 0.8"/>
      </defs>
      <g>
       <use xlink:href="#m7726404303" x="88.532127" y="678.237256" style="fill: #262626; stroke: #262626; stroke-width: 0.8"/>
      </g>
     </g>
     <g id="text_1">
      <!-- $\mathdefault{0.0}$ -->
      <g style="fill: #262626" transform="translate(67.206064 710.143856) scale(0.36 -0.36)">
       <defs>
        <path id="CMR17-30" d="M 2688 2025 
C 2688 2416 2682 3080 2413 3591 
C 2176 4039 1798 4198 1466 4198 
C 1158 4198 768 4058 525 3597 
C 269 3118 243 2524 243 2025 
C 243 1661 250 1106 448 619 
C 723 -39 1216 -128 1466 -128 
C 1760 -128 2208 -7 2470 600 
C 2662 1042 2688 1559 2688 2025 
z
M 1466 -26 
C 1056 -26 813 325 723 812 
C 653 1188 653 1738 653 2096 
C 653 2588 653 2997 736 3387 
C 858 3929 1216 4096 1466 4096 
C 1728 4096 2067 3923 2189 3400 
C 2272 3036 2278 2607 2278 2096 
C 2278 1680 2278 1169 2202 792 
C 2067 95 1690 -26 1466 -26 
z
" transform="scale(0.015625)"/>
        <path id="CMMI12-3a" d="M 1178 307 
C 1178 492 1024 619 870 619 
C 685 619 557 466 557 313 
C 557 128 710 0 864 0 
C 1050 0 1178 153 1178 307 
z
" transform="scale(0.015625)"/>
       </defs>
       <use xlink:href="#CMR17-30" transform="scale(0.996264)"/>
       <use xlink:href="#CMMI12-3a" transform="translate(45.690477 0) scale(0.996264)"/>
       <use xlink:href="#CMR17-30" transform="translate(72.787654 0) scale(0.996264)"/>
      </g>
     </g>
    </g>
    <g id="xtick_2">
     <g id="line2d_2">
      <g>
       <use xlink:href="#m7726404303" x="269.977436" y="678.237256" style="fill: #262626; stroke: #262626; stroke-width: 0.8"/>
      </g>
     </g>
     <g id="text_2">
      <!-- $\mathdefault{0.2}$ -->
      <g style="fill: #262626" transform="translate(248.651373 710.143856) scale(0.36 -0.36)">
       <defs>
        <path id="CMR17-32" d="M 2669 989 
L 2554 989 
C 2490 536 2438 459 2413 420 
C 2381 369 1920 369 1830 369 
L 602 369 
C 832 619 1280 1072 1824 1597 
C 2214 1967 2669 2402 2669 3035 
C 2669 3790 2067 4224 1395 4224 
C 691 4224 262 3604 262 3030 
C 262 2780 448 2748 525 2748 
C 589 2748 781 2787 781 3010 
C 781 3207 614 3264 525 3264 
C 486 3264 448 3258 422 3245 
C 544 3790 915 4058 1306 4058 
C 1862 4058 2227 3617 2227 3035 
C 2227 2479 1901 2000 1536 1584 
L 262 146 
L 262 0 
L 2515 0 
L 2669 989 
z
" transform="scale(0.015625)"/>
       </defs>
       <use xlink:href="#CMR17-30" transform="scale(0.996264)"/>
       <use xlink:href="#CMMI12-3a" transform="translate(45.690477 0) scale(0.996264)"/>
       <use xlink:href="#CMR17-32" transform="translate(72.787654 0) scale(0.996264)"/>
      </g>
     </g>
    </g>
    <g id="xtick_3">
     <g id="line2d_3">
      <g>
       <use xlink:href="#m7726404303" x="451.422745" y="678.237256" style="fill: #262626; stroke: #262626; stroke-width: 0.8"/>
      </g>
     </g>
     <g id="text_3">
      <!-- $\mathdefault{0.4}$ -->
      <g style="fill: #262626" transform="translate(430.096682 710.143856) scale(0.36 -0.36)">
       <defs>
        <path id="CMR17-34" d="M 2150 4122 
C 2150 4256 2144 4256 2029 4256 
L 128 1254 
L 128 1088 
L 1779 1088 
L 1779 457 
C 1779 224 1766 160 1318 160 
L 1197 160 
L 1197 0 
C 1402 0 1747 0 1965 0 
C 2182 0 2528 0 2733 0 
L 2733 160 
L 2611 160 
C 2163 160 2150 224 2150 457 
L 2150 1088 
L 2803 1088 
L 2803 1254 
L 2150 1254 
L 2150 4122 
z
M 1798 3703 
L 1798 1254 
L 256 1254 
L 1798 3703 
z
" transform="scale(0.015625)"/>
       </defs>
       <use xlink:href="#CMR17-30" transform="scale(0.996264)"/>
       <use xlink:href="#CMMI12-3a" transform="translate(45.690477 0) scale(0.996264)"/>
       <use xlink:href="#CMR17-34" transform="translate(72.787654 0) scale(0.996264)"/>
      </g>
     </g>
    </g>
    <g id="xtick_4">
     <g id="line2d_4">
      <g>
       <use xlink:href="#m7726404303" x="632.868055" y="678.237256" style="fill: #262626; stroke: #262626; stroke-width: 0.8"/>
      </g>
     </g>
     <g id="text_4">
      <!-- $\mathdefault{0.6}$ -->
      <g style="fill: #262626" transform="translate(611.541991 710.143856) scale(0.36 -0.36)">
       <defs>
        <path id="CMR17-36" d="M 678 2176 
C 678 3690 1395 4032 1811 4032 
C 1946 4032 2272 4009 2400 3776 
C 2298 3776 2106 3776 2106 3553 
C 2106 3381 2246 3323 2336 3323 
C 2394 3323 2566 3348 2566 3560 
C 2566 3954 2246 4179 1805 4179 
C 1043 4179 243 3390 243 1984 
C 243 253 966 -128 1478 -128 
C 2099 -128 2688 427 2688 1283 
C 2688 2081 2170 2662 1517 2662 
C 1126 2662 838 2407 678 1960 
L 678 2176 
z
M 1478 25 
C 691 25 691 1200 691 1436 
C 691 1896 909 2560 1504 2560 
C 1613 2560 1926 2560 2138 2120 
C 2253 1870 2253 1609 2253 1289 
C 2253 944 2253 690 2118 434 
C 1978 171 1773 25 1478 25 
z
" transform="scale(0.015625)"/>
       </defs>
       <use xlink:href="#CMR17-30" transform="scale(0.996264)"/>
       <use xlink:href="#CMMI12-3a" transform="translate(45.690477 0) scale(0.996264)"/>
       <use xlink:href="#CMR17-36" transform="translate(72.787654 0) scale(0.996264)"/>
      </g>
     </g>
    </g>
    <g id="xtick_5">
     <g id="line2d_5">
      <g>
       <use xlink:href="#m7726404303" x="814.313364" y="678.237256" style="fill: #262626; stroke: #262626; stroke-width: 0.8"/>
      </g>
     </g>
     <g id="text_5">
      <!-- $\mathdefault{0.8}$ -->
      <g style="fill: #262626" transform="translate(792.9873 710.143856) scale(0.36 -0.36)">
       <defs>
        <path id="CMR17-38" d="M 1741 2264 
C 2144 2467 2554 2773 2554 3263 
C 2554 3841 1990 4179 1472 4179 
C 890 4179 378 3759 378 3180 
C 378 3021 416 2747 666 2505 
C 730 2442 998 2251 1171 2130 
C 883 1983 211 1634 211 934 
C 211 279 838 -128 1459 -128 
C 2144 -128 2720 362 2720 1010 
C 2720 1590 2330 1857 2074 2029 
L 1741 2264 
z
M 902 2822 
C 851 2854 595 3051 595 3351 
C 595 3739 998 4032 1459 4032 
C 1965 4032 2336 3676 2336 3262 
C 2336 2669 1670 2331 1638 2331 
C 1632 2331 1626 2331 1574 2370 
L 902 2822 
z
M 2080 1519 
C 2176 1449 2483 1240 2483 851 
C 2483 381 2010 25 1472 25 
C 890 25 448 438 448 940 
C 448 1443 838 1862 1280 2060 
L 2080 1519 
z
" transform="scale(0.015625)"/>
       </defs>
       <use xlink:href="#CMR17-30" transform="scale(0.996264)"/>
       <use xlink:href="#CMMI12-3a" transform="translate(45.690477 0) scale(0.996264)"/>
       <use xlink:href="#CMR17-38" transform="translate(72.787654 0) scale(0.996264)"/>
      </g>
     </g>
    </g>
    <g id="xtick_6">
     <g id="line2d_6">
      <g>
       <use xlink:href="#m7726404303" x="995.758673" y="678.237256" style="fill: #262626; stroke: #262626; stroke-width: 0.8"/>
      </g>
     </g>
     <g id="text_6">
      <!-- $\mathdefault{1.0}$ -->
      <g style="fill: #262626" transform="translate(974.432609 710.143856) scale(0.36 -0.36)">
       <defs>
        <path id="CMR17-31" d="M 1702 4058 
C 1702 4192 1696 4192 1606 4192 
C 1357 3916 979 3827 621 3827 
C 602 3827 570 3827 563 3808 
C 557 3795 557 3782 557 3648 
C 755 3648 1088 3686 1344 3839 
L 1344 461 
C 1344 236 1331 160 781 160 
L 589 160 
L 589 0 
C 896 0 1216 0 1523 0 
C 1830 0 2150 0 2458 0 
L 2458 160 
L 2266 160 
C 1715 160 1702 230 1702 458 
L 1702 4058 
z
" transform="scale(0.015625)"/>
       </defs>
       <use xlink:href="#CMR17-31" transform="scale(0.996264)"/>
       <use xlink:href="#CMMI12-3a" transform="translate(45.690477 0) scale(0.996264)"/>
       <use xlink:href="#CMR17-30" transform="translate(72.787654 0) scale(0.996264)"/>
      </g>
     </g>
    </g>
   </g>
   <g id="matplotlib.axis_2">
    <g id="ytick_1">
     <g id="line2d_7">
      <defs>
       <path id="mdfde377ca2" d="M 0 0 
L -3.5 0 
" style="stroke: #262626; stroke-width: 0.8"/>
      </defs>
      <g>
       <use xlink:href="#mdfde377ca2" x="88.532127" y="678.237256" style="fill: #262626; stroke: #262626; stroke-width: 0.8"/>
      </g>
     </g>
     <g id="text_7">
      <!-- $\mathdefault{0.0}$ -->
      <g style="fill: #262626" transform="translate(38.88 690.690556) scale(0.36 -0.36)">
       <use xlink:href="#CMR17-30" transform="scale(0.996264)"/>
       <use xlink:href="#CMMI12-3a" transform="translate(45.690477 0) scale(0.996264)"/>
       <use xlink:href="#CMR17-30" transform="translate(72.787654 0) scale(0.996264)"/>
      </g>
     </g>
    </g>
    <g id="ytick_2">
     <g id="line2d_8">
      <g>
       <use xlink:href="#mdfde377ca2" x="88.532127" y="678.179615" style="fill: #262626; stroke: #262626; stroke-width: 0.8"/>
      </g>
     </g>
     <g id="text_8">
      <!-- $\mathdefault{0.2}$ -->
      <g style="fill: #262626" transform="translate(38.88 690.632915) scale(0.36 -0.36)">
       <use xlink:href="#CMR17-30" transform="scale(0.996264)"/>
       <use xlink:href="#CMMI12-3a" transform="translate(45.690477 0) scale(0.996264)"/>
       <use xlink:href="#CMR17-32" transform="translate(72.787654 0) scale(0.996264)"/>
      </g>
     </g>
    </g>
    <g id="ytick_3">
     <g id="line2d_9">
      <g>
       <use xlink:href="#mdfde377ca2" x="88.532127" y="678.121974" style="fill: #262626; stroke: #262626; stroke-width: 0.8"/>
      </g>
     </g>
     <g id="text_9">
      <!-- $\mathdefault{0.4}$ -->
      <g style="fill: #262626" transform="translate(38.88 690.575274) scale(0.36 -0.36)">
       <use xlink:href="#CMR17-30" transform="scale(0.996264)"/>
       <use xlink:href="#CMMI12-3a" transform="translate(45.690477 0) scale(0.996264)"/>
       <use xlink:href="#CMR17-34" transform="translate(72.787654 0) scale(0.996264)"/>
      </g>
     </g>
    </g>
    <g id="ytick_4">
     <g id="line2d_10">
      <g>
       <use xlink:href="#mdfde377ca2" x="88.532127" y="678.064333" style="fill: #262626; stroke: #262626; stroke-width: 0.8"/>
      </g>
     </g>
     <g id="text_10">
      <!-- $\mathdefault{0.6}$ -->
      <g style="fill: #262626" transform="translate(38.88 690.517633) scale(0.36 -0.36)">
       <use xlink:href="#CMR17-30" transform="scale(0.996264)"/>
       <use xlink:href="#CMMI12-3a" transform="translate(45.690477 0) scale(0.996264)"/>
       <use xlink:href="#CMR17-36" transform="translate(72.787654 0) scale(0.996264)"/>
      </g>
     </g>
    </g>
    <g id="ytick_5">
     <g id="line2d_11">
      <g>
       <use xlink:href="#mdfde377ca2" x="88.532127" y="678.006692" style="fill: #262626; stroke: #262626; stroke-width: 0.8"/>
      </g>
     </g>
     <g id="text_11">
      <!-- $\mathdefault{0.8}$ -->
      <g style="fill: #262626" transform="translate(38.88 690.459992) scale(0.36 -0.36)">
       <use xlink:href="#CMR17-30" transform="scale(0.996264)"/>
       <use xlink:href="#CMMI12-3a" transform="translate(45.690477 0) scale(0.996264)"/>
       <use xlink:href="#CMR17-38" transform="translate(72.787654 0) scale(0.996264)"/>
      </g>
     </g>
    </g>
    <g id="ytick_6">
     <g id="line2d_12">
      <g>
       <use xlink:href="#mdfde377ca2" x="88.532127" y="677.949051" style="fill: #262626; stroke: #262626; stroke-width: 0.8"/>
      </g>
     </g>
     <g id="text_12">
      <!-- $\mathdefault{1.0}$ -->
      <g style="fill: #262626" transform="translate(38.88 690.402351) scale(0.36 -0.36)">
       <use xlink:href="#CMR17-31" transform="scale(0.996264)"/>
       <use xlink:href="#CMMI12-3a" transform="translate(45.690477 0) scale(0.996264)"/>
       <use xlink:href="#CMR17-30" transform="translate(72.787654 0) scale(0.996264)"/>
      </g>
     </g>
    </g>
    <g id="ytick_7">
     <g id="line2d_13">
      <g>
       <use xlink:href="#mdfde377ca2" x="88.532127" y="677.89141" style="fill: #262626; stroke: #262626; stroke-width: 0.8"/>
      </g>
     </g>
     <g id="text_13">
      <!-- $\mathdefault{1.2}$ -->
      <g style="fill: #262626" transform="translate(38.88 690.344711) scale(0.36 -0.36)">
       <use xlink:href="#CMR17-31" transform="scale(0.996264)"/>
       <use xlink:href="#CMMI12-3a" transform="translate(45.690477 0) scale(0.996264)"/>
       <use xlink:href="#CMR17-32" transform="translate(72.787654 0) scale(0.996264)"/>
      </g>
     </g>
    </g>
   </g>
   <g id="line2d_14">
    <path d="M 88.532127 678.237256 
L 995.758673 678.237256 
L 995.758673 678.237256 
" clip-path="url(#pe5addd4174)" style="fill: none; stroke: #1f77b4; stroke-width: 5; stroke-linecap: round"/>
   </g>
   <g id="line2d_15">
    <path d="M 88.532127 647.494828 
L 142.96572 649.958844 
L 197.399313 652.201888 
L 257.881082 654.463327 
L 318.362852 656.508503 
L 384.892799 658.536878 
L 457.470922 660.516304 
L 536.097223 662.420039 
L 614.723524 664.105394 
L 699.398001 665.707998 
L 796.168833 667.306473 
L 898.987841 668.771689 
L 995.758673 669.963476 
L 995.758673 669.963476 
" clip-path="url(#pe5addd4174)" style="fill: none; stroke: #ff7f0e; stroke-width: 5; stroke-linecap: round"/>
   </g>
   <g id="line2d_16">
    <path d="M 88.532127 612.568034 
L 118.773012 615.982645 
L 149.013897 619.178791 
L 179.254782 622.174484 
L 215.543844 625.52729 
L 251.832905 628.639321 
L 288.121967 631.532411 
L 324.411029 634.225891 
L 366.748268 637.138821 
L 409.085507 639.827484 
L 457.470922 642.652704 
L 505.856338 645.24029 
L 554.241754 647.614345 
L 608.675347 650.056087 
L 663.108939 652.280401 
L 723.590709 654.524442 
L 784.072479 656.555162 
L 850.602425 658.570412 
L 923.180549 660.538213 
L 995.758673 662.29429 
L 995.758673 662.29429 
" clip-path="url(#pe5addd4174)" style="fill: none; stroke: #2ca02c; stroke-width: 5; stroke-linecap: round"/>
   </g>
   <g id="line2d_17">
    <path d="M 88.532127 572.781061 
L 106.676658 576.606259 
L 124.821189 580.24669 
L 149.013897 584.834001 
L 173.206605 589.140234 
L 197.399313 593.188504 
L 221.592021 596.999462 
L 245.784728 600.59163 
L 269.977436 603.981669 
L 294.170144 607.1846 
L 324.411029 610.945705 
L 354.651914 614.459368 
L 384.892799 617.746702 
L 415.133684 620.826516 
L 451.422745 624.27193 
L 487.711807 627.468456 
L 524.000869 630.438831 
L 560.289931 633.203165 
L 602.62717 636.191526 
L 644.964408 638.948713 
L 687.301647 641.496714 
L 735.687063 644.177317 
L 784.072479 646.635328 
L 838.506072 649.162033 
L 892.939664 651.462531 
L 953.421434 653.782266 
L 995.758673 655.272757 
L 995.758673 655.272757 
" clip-path="url(#pe5addd4174)" style="fill: none; stroke: #d62728; stroke-width: 5; stroke-linecap: round"/>
   </g>
   <g id="line2d_18">
    <path d="M 88.532127 527.337501 
L 100.628481 531.562115 
L 112.724835 535.618751 
L 130.869366 541.40906 
L 149.013897 546.871205 
L 167.158428 552.030988 
L 185.302959 556.911566 
L 203.44749 561.533789 
L 221.592021 565.916478 
L 239.736552 570.076664 
L 257.881082 574.029805 
L 276.025613 577.789969 
L 294.170144 581.36996 
L 318.362852 585.88312 
L 342.55556 590.121754 
L 366.748268 594.10823 
L 390.940976 597.862553 
L 415.133684 601.40269 
L 439.326392 604.744815 
L 469.567276 608.666126 
L 499.808161 612.326272 
L 530.049046 615.747869 
L 560.289931 618.951032 
L 590.530816 621.953711 
L 626.819878 625.314797 
L 663.108939 628.434937 
L 699.398001 631.335924 
L 735.687063 634.037061 
L 778.024302 636.958598 
L 820.361541 639.655508 
L 862.698779 642.148978 
L 911.084195 644.773434 
L 959.469611 647.181059 
L 995.758673 648.857496 
L 995.758673 648.857496 
" clip-path="url(#pe5addd4174)" style="fill: none; stroke: #9467bd; stroke-width: 5; stroke-linecap: round"/>
   </g>
   <g id="line2d_19">
    <path d="M 88.532127 475.304161 
L 100.628481 481.819067 
L 112.724835 488.022986 
L 124.821189 493.937028 
L 136.917543 499.580456 
L 149.013897 504.97084 
L 161.110251 510.124258 
L 173.206605 515.05545 
L 185.302959 519.777956 
L 197.399313 524.304219 
L 209.495667 528.645722 
L 221.592021 532.813073 
L 233.688375 536.816064 
L 251.832905 542.532052 
L 269.977436 547.926448 
L 288.121967 553.024271 
L 306.266498 557.848023 
L 324.411029 562.417976 
L 342.55556 566.752471 
L 360.700091 570.86811 
L 378.844622 574.779987 
L 396.989153 578.501841 
L 415.133684 582.046198 
L 439.326392 586.515582 
L 463.519099 590.714249 
L 487.711807 594.664128 
L 511.904515 598.384855 
L 536.097223 601.894073 
L 560.289931 605.207682 
L 590.530816 609.096352 
L 620.771701 612.726822 
L 651.012585 616.121365 
L 681.25347 619.299793 
L 711.494355 622.279804 
L 747.783417 625.616113 
L 784.072479 628.71381 
L 820.361541 631.594414 
L 862.698779 634.706055 
L 905.036018 637.574768 
L 947.373257 640.223942 
L 995.758673 643.009032 
L 995.758673 643.009032 
" clip-path="url(#pe5addd4174)" style="fill: none; stroke: #8c564b; stroke-width: 5; stroke-linecap: round"/>
   </g>
   <g id="line2d_20">
    <path d="M 88.532127 415.574873 
L 100.628481 425.233132 
L 112.724835 434.343975 
L 124.821189 442.951779 
L 136.917543 451.09627 
L 149.013897 458.813058 
L 161.110251 466.13419 
L 173.206605 473.08857 
L 185.302959 479.702356 
L 197.399313 485.999242 
L 209.495667 492.00079 
L 221.592021 497.726649 
L 233.688375 503.194736 
L 245.784728 508.421457 
L 257.881082 513.421864 
L 269.977436 518.20977 
L 282.07379 522.797888 
L 294.170144 527.197928 
L 306.266498 531.420715 
L 318.362852 535.476254 
L 336.507383 541.266057 
L 354.651914 546.728745 
L 372.796445 551.889867 
L 390.940976 556.772375 
L 409.085507 561.396952 
L 427.230038 565.782298 
L 445.374568 569.945359 
L 463.519099 573.901506 
L 481.66363 577.664747 
L 499.808161 581.247854 
L 524.000869 585.765157 
L 548.193577 590.007876 
L 572.386285 593.998337 
L 596.578993 597.756524 
L 620.771701 601.300385 
L 644.964408 604.64609 
L 675.205293 608.571664 
L 705.446178 612.235841 
L 735.687063 615.661241 
L 765.927948 618.867993 
L 796.168833 621.87406 
L 832.457895 625.238957 
L 868.746956 628.362655 
L 905.036018 631.26697 
L 941.32508 633.971224 
L 983.662319 636.896149 
L 995.758673 637.689563 
L 995.758673 637.689563 
" clip-path="url(#pe5addd4174)" style="fill: none; stroke: #e377c2; stroke-width: 5; stroke-linecap: round"/>
   </g>
   <g id="line2d_21">
    <path d="M 88.532127 346.833977 
L 94.580304 353.930013 
L 100.628481 360.781064 
L 106.676658 367.399517 
L 112.724835 373.796858 
L 118.773012 379.98384 
L 124.821189 385.970546 
L 130.869366 391.766401 
L 136.917543 397.380257 
L 142.96572 402.820411 
L 149.013897 408.094665 
L 155.062074 413.210372 
L 161.110251 418.17443 
L 173.206605 427.673308 
L 185.302959 436.639146 
L 197.399313 445.114624 
L 209.495667 453.137998 
L 221.592021 460.743642 
L 233.688375 467.962494 
L 245.784728 474.822517 
L 257.881082 481.349055 
L 269.977436 487.565101 
L 282.07379 493.491582 
L 294.170144 499.147579 
L 306.266498 504.550541 
L 318.362852 509.716447 
L 330.459206 514.65996 
L 342.55556 519.394545 
L 354.651914 523.93262 
L 366.748268 528.285639 
L 378.844622 532.464161 
L 390.940976 536.477993 
L 409.085507 542.209577 
L 427.230038 547.618758 
L 445.374568 552.73058 
L 463.519099 557.567551 
L 481.66363 562.149982 
L 499.808161 566.496239 
L 517.952692 570.622961 
L 536.097223 574.54528 
L 554.241754 578.276974 
L 572.386285 581.830607 
L 596.578993 586.311536 
L 620.771701 590.520886 
L 644.964408 594.48066 
L 669.157116 598.210563 
L 693.349824 601.728303 
L 717.542532 605.049834 
L 747.783417 608.947646 
L 778.024302 612.5865 
L 808.265187 615.988749 
L 838.506072 619.174277 
L 868.746956 622.160847 
L 905.036018 625.504386 
L 941.32508 628.608695 
L 977.614142 631.495364 
L 995.758673 632.863147 
L 995.758673 632.863147 
" clip-path="url(#pe5addd4174)" style="fill: none; stroke: #7f7f7f; stroke-width: 5; stroke-linecap: round"/>
   </g>
   <g id="line2d_22">
    <path d="M 88.532127 267.506747 
L 94.580304 277.600628 
L 100.628481 287.284006 
L 106.676658 296.581348 
L 112.724835 305.515105 
L 118.773012 314.10602 
L 124.821189 322.373315 
L 130.869366 330.334762 
L 136.917543 338.006862 
L 142.96572 345.404931 
L 149.013897 352.543219 
L 155.062074 359.435021 
L 161.110251 366.0927 
L 167.158428 372.527841 
L 173.206605 378.751223 
L 179.254782 384.773005 
L 185.302959 390.602647 
L 191.351136 396.249034 
L 197.399313 401.720546 
L 203.44749 407.025013 
L 209.495667 412.169823 
L 215.543844 417.161938 
L 227.640198 426.71396 
L 239.736552 435.729205 
L 251.832905 444.250684 
L 263.929259 452.316937 
L 276.025613 459.962562 
L 288.121967 467.218737 
L 300.218321 474.113664 
L 312.314675 480.672849 
L 324.411029 486.91947 
L 336.507383 492.87462 
L 348.603737 498.557524 
L 360.700091 503.985771 
L 372.796445 509.175459 
L 384.892799 514.141353 
L 396.989153 518.897038 
L 409.085507 523.45501 
L 421.181861 527.826809 
L 433.278215 532.023087 
L 445.374568 536.053707 
L 463.519099 541.808821 
L 481.66363 547.239718 
L 499.808161 552.371615 
L 517.952692 557.227179 
L 536.097223 561.826863 
L 554.241754 566.18916 
L 572.386285 570.330815 
L 590.530816 574.267058 
L 608.675347 578.011749 
L 626.819878 581.57754 
L 651.012585 586.073489 
L 675.205293 590.296634 
L 699.398001 594.269108 
L 723.590709 598.010723 
L 747.783417 601.539294 
L 771.976125 604.870853 
L 802.21701 608.780199 
L 832.457895 612.429588 
L 862.698779 615.841486 
L 892.939664 619.035871 
L 923.180549 622.030592 
L 959.469611 625.383083 
L 995.758673 628.495545 
L 995.758673 628.495545 
" clip-path="url(#pe5addd4174)" style="fill: none; stroke: #bcbd22; stroke-width: 5; stroke-linecap: round"/>
   </g>
   <g id="line2d_23">
    <path d="M 88.532127 175.709904 
L 94.580304 189.886769 
L 100.628481 203.387791 
L 106.676658 216.260116 
L 112.724835 228.546455 
L 118.773012 240.285729 
L 124.821189 251.513516 
L 130.869366 262.262319 
L 136.917543 272.56195 
L 142.96572 282.439768 
L 149.013897 291.920946 
L 155.062074 301.028717 
L 161.110251 309.784476 
L 167.158428 318.20806 
L 173.206605 326.317772 
L 179.254782 334.130676 
L 185.302959 341.662546 
L 191.351136 348.928068 
L 197.399313 355.940962 
L 203.44749 362.713963 
L 209.495667 369.25899 
L 215.543844 375.587188 
L 221.592021 381.708997 
L 227.640198 387.634139 
L 233.688375 393.371803 
L 239.736552 398.930557 
L 245.784728 404.3185 
L 251.832905 409.54322 
L 257.881082 414.61188 
L 269.977436 424.307575 
L 282.07379 433.455071 
L 294.170144 442.098527 
L 306.266498 450.277494 
L 318.362852 458.027487 
L 330.459206 465.380494 
L 342.55556 472.365377 
L 354.651914 479.008299 
L 366.748268 485.332995 
L 378.844622 491.361027 
L 390.940976 497.112101 
L 403.03733 502.604177 
L 415.133684 507.853702 
L 427.230038 512.875782 
L 439.326392 517.684297 
L 451.422745 522.291987 
L 463.519099 526.710641 
L 475.615453 530.951125 
L 487.711807 535.023481 
L 505.856338 540.83699 
L 524.000869 546.321683 
L 542.1454 551.503242 
L 560.289931 556.404759 
L 578.434462 561.047034 
L 596.578993 565.448877 
L 614.723524 569.627324 
L 632.868055 573.597848 
L 651.012585 577.374534 
L 669.157116 580.970229 
L 693.349824 585.503109 
L 717.542532 589.760153 
L 741.73524 593.76381 
L 765.927948 597.534183 
L 790.120656 601.089327 
L 814.313364 604.445485 
L 844.554248 608.383093 
L 874.795133 612.058281 
L 905.036018 615.493782 
L 935.276903 618.709822 
L 965.517788 621.724453 
L 995.758673 624.553833 
L 995.758673 624.553833 
" clip-path="url(#pe5addd4174)" style="fill: none; stroke: #17becf; stroke-width: 5; stroke-linecap: round"/>
   </g>
   <g id="line2d_24">
    <path d="M 88.532127 69.325584 
L 94.580304 89.010256 
L 100.628481 107.629407 
L 106.676658 125.247409 
L 112.724835 141.936502 
L 118.773012 157.768005 
L 124.821189 172.806171 
L 130.869366 187.108901 
L 136.917543 200.728605 
L 142.96572 213.712786 
L 149.013897 226.104636 
L 155.062074 237.943542 
L 161.110251 249.2654 
L 167.158428 260.103123 
L 173.206605 270.486806 
L 179.254782 280.444189 
L 185.302959 290.000709 
L 191.351136 299.179836 
L 197.399313 308.003284 
L 203.44749 316.491064 
L 209.495667 324.661745 
L 215.543844 332.532553 
L 221.592021 340.119502 
L 227.640198 347.437414 
L 233.688375 354.500176 
L 239.736552 361.320673 
L 245.784728 367.910987 
L 251.832905 374.282373 
L 257.881082 380.445387 
L 263.929259 386.409904 
L 269.977436 392.185168 
L 276.025613 397.779899 
L 282.07379 403.202243 
L 288.121967 408.45989 
L 294.170144 413.560091 
L 300.218321 418.50964 
L 312.314675 427.982165 
L 324.411029 436.924717 
L 336.507383 445.379526 
L 348.603737 453.384437 
L 360.700091 460.973503 
L 372.796445 468.177414 
L 384.892799 475.023906 
L 396.989153 481.538136 
L 409.085507 487.742934 
L 421.181861 493.659108 
L 433.278215 499.305633 
L 445.374568 504.699865 
L 457.470922 509.857693 
L 469.567276 514.793709 
L 481.66363 519.52133 
L 493.759984 524.052915 
L 505.856338 528.399873 
L 517.952692 532.572723 
L 530.049046 536.581233 
L 548.193577 542.305442 
L 566.338108 547.70789 
L 584.482639 552.813531 
L 602.62717 557.644836 
L 620.771701 562.222043 
L 638.916232 566.563476 
L 657.060762 570.685745 
L 675.205293 574.603927 
L 693.349824 578.331778 
L 711.494355 581.881838 
L 735.687063 586.358385 
L 759.879771 590.563742 
L 784.072479 594.519867 
L 808.265187 598.246433 
L 832.457895 601.761112 
L 856.650602 605.079835 
L 886.891487 608.974454 
L 917.132372 612.610434 
L 947.373257 616.010083 
L 977.614142 619.193264 
L 995.758673 621.006724 
L 995.758673 621.006724 
" clip-path="url(#pe5addd4174)" style="fill: none; stroke: #17becf; stroke-width: 5; stroke-linecap: round"/>
   </g>
   <g id="patch_3">
    <path d="M 88.532127 678.237256 
L 88.532127 38.88 
" style="fill: none; stroke: #262626; stroke-width: 0.8; stroke-linejoin: miter; stroke-linecap: square"/>
   </g>
   <g id="patch_4">
    <path d="M 88.532127 678.237256 
L 1041.12 678.237256 
" style="fill: none; stroke: #262626; stroke-width: 0.8; stroke-linejoin: miter; stroke-linecap: square"/>
   </g>
  </g>
 </g>
 <defs>
  <clipPath id="pe5addd4174">
   <rect x="88.532127" y="38.88" width="952.587873" height="639.357256"/>
  </clipPath>
 </defs>
</svg>
