<?xml version="1.0" encoding="utf-8" standalone="no"?>
<!DOCTYPE svg PUBLIC "-//W3C//DTD SVG 1.1//EN"
  "http://www.w3.org/Graphics/SVG/1.1/DTD/svg11.dtd">
<svg xmlns:xlink="http://www.w3.org/1999/xlink" width="1080pt" height="576pt" viewBox="0 0 1080 576" xmlns="http://www.w3.org/2000/svg" version="1.1">
 <metadata>
  <rdf:RDF xmlns:dc="http://purl.org/dc/elements/1.1/" xmlns:cc="http://creativecommons.org/ns#" xmlns:rdf="http://www.w3.org/1999/02/22-rdf-syntax-ns#">
   <cc:Work>
    <dc:type rdf:resource="http://purl.org/dc/dcmitype/StillImage"/>
    <dc:date>2024-06-28T12:47:42.185191</dc:date>
    <dc:format>image/svg+xml</dc:format>
    <dc:creator>
     <cc:Agent>
      <dc:title>Matplotlib v3.9.0, https://matplotlib.org/</dc:title>
     </cc:Agent>
    </dc:creator>
   </cc:Work>
  </rdf:RDF>
 </metadata>
 <defs>
  <style type="text/css">*{stroke-linejoin: round; stroke-linecap: butt}</style>
 </defs>
 <g id="figure_1">
  <g id="patch_1">
   <path d="M 0 576 
L 1080 576 
L 1080 0 
L 0 0 
z
" style="fill: #ffffff"/>
  </g>
  <g id="axes_1">
   <g id="patch_2">
    <path d="M 48.559071 521.153031 
L 935.517672 521.153031 
L 935.517672 51.564121 
L 48.559071 51.564121 
z
" style="fill: #eaeaf2"/>
   </g>
   <g id="matplotlib.axis_1">
    <g id="xtick_1">
     <g id="line2d_1">
      <path d="M 48.559071 521.153031 
L 48.559071 51.564121 
" clip-path="url(#p01bd0b1d39)" style="fill: none; stroke: #ffffff; stroke-linecap: round"/>
     </g>
     <g id="line2d_2"/>
     <g id="text_1">
      <!-- $\mathdefault{0.00}$ -->
      <g style="fill: #262626" transform="translate(36.419535 537.838907) scale(0.14 -0.14)">
       <defs>
        <path id="CMR17-30" d="M 2688 2025 
C 2688 2416 2682 3080 2413 3591 
C 2176 4039 1798 4198 1466 4198 
C 1158 4198 768 4058 525 3597 
C 269 3118 243 2524 243 2025 
C 243 1661 250 1106 448 619 
C 723 -39 1216 -128 1466 -128 
C 1760 -128 2208 -7 2470 600 
C 2662 1042 2688 1559 2688 2025 
z
M 1466 -26 
C 1056 -26 813 325 723 812 
C 653 1188 653 1738 653 2096 
C 653 2588 653 2997 736 3387 
C 858 3929 1216 4096 1466 4096 
C 1728 4096 2067 3923 2189 3400 
C 2272 3036 2278 2607 2278 2096 
C 2278 1680 2278 1169 2202 792 
C 2067 95 1690 -26 1466 -26 
z
" transform="scale(0.015625)"/>
        <path id="CMMI12-3a" d="M 1178 307 
C 1178 492 1024 619 870 619 
C 685 619 557 466 557 313 
C 557 128 710 0 864 0 
C 1050 0 1178 153 1178 307 
z
" transform="scale(0.015625)"/>
       </defs>
       <use xlink:href="#CMR17-30" transform="scale(0.996264)"/>
       <use xlink:href="#CMMI12-3a" transform="translate(45.690477 0) scale(0.996264)"/>
       <use xlink:href="#CMR17-30" transform="translate(72.787654 0) scale(0.996264)"/>
       <use xlink:href="#CMR17-30" transform="translate(118.478131 0) scale(0.996264)"/>
      </g>
     </g>
    </g>
    <g id="xtick_2">
     <g id="line2d_3">
      <path d="M 154.14938 521.153031 
L 154.14938 51.564121 
" clip-path="url(#p01bd0b1d39)" style="fill: none; stroke: #ffffff; stroke-linecap: round"/>
     </g>
     <g id="line2d_4"/>
     <g id="text_2">
      <!-- $\mathdefault{0.25}$ -->
      <g style="fill: #262626" transform="translate(142.009845 537.838907) scale(0.14 -0.14)">
       <defs>
        <path id="CMR17-32" d="M 2669 989 
L 2554 989 
C 2490 536 2438 459 2413 420 
C 2381 369 1920 369 1830 369 
L 602 369 
C 832 619 1280 1072 1824 1597 
C 2214 1967 2669 2402 2669 3035 
C 2669 3790 2067 4224 1395 4224 
C 691 4224 262 3604 262 3030 
C 262 2780 448 2748 525 2748 
C 589 2748 781 2787 781 3010 
C 781 3207 614 3264 525 3264 
C 486 3264 448 3258 422 3245 
C 544 3790 915 4058 1306 4058 
C 1862 4058 2227 3617 2227 3035 
C 2227 2479 1901 2000 1536 1584 
L 262 146 
L 262 0 
L 2515 0 
L 2669 989 
z
" transform="scale(0.015625)"/>
        <path id="CMR17-35" d="M 730 3692 
C 794 3666 1056 3584 1325 3584 
C 1920 3584 2246 3911 2432 4100 
C 2432 4157 2432 4192 2394 4192 
C 2387 4192 2374 4192 2323 4163 
C 2099 4058 1837 3973 1517 3973 
C 1325 3973 1037 3999 723 4139 
C 653 4171 640 4171 634 4171 
C 602 4171 595 4164 595 4037 
L 595 2203 
C 595 2089 595 2057 659 2057 
C 691 2057 704 2070 736 2114 
C 941 2401 1222 2522 1542 2522 
C 1766 2522 2246 2382 2246 1289 
C 2246 1085 2246 715 2054 421 
C 1894 159 1645 25 1370 25 
C 947 25 518 320 403 814 
C 429 807 480 795 506 795 
C 589 795 749 840 749 1038 
C 749 1210 627 1280 506 1280 
C 358 1280 262 1190 262 1011 
C 262 454 704 -128 1382 -128 
C 2042 -128 2669 440 2669 1264 
C 2669 2030 2170 2624 1549 2624 
C 1222 2624 947 2503 730 2274 
L 730 3692 
z
" transform="scale(0.015625)"/>
       </defs>
       <use xlink:href="#CMR17-30" transform="scale(0.996264)"/>
       <use xlink:href="#CMMI12-3a" transform="translate(45.690477 0) scale(0.996264)"/>
       <use xlink:href="#CMR17-32" transform="translate(72.787654 0) scale(0.996264)"/>
       <use xlink:href="#CMR17-35" transform="translate(118.478131 0) scale(0.996264)"/>
      </g>
     </g>
    </g>
    <g id="xtick_3">
     <g id="line2d_5">
      <path d="M 259.73969 521.153031 
L 259.73969 51.564121 
" clip-path="url(#p01bd0b1d39)" style="fill: none; stroke: #ffffff; stroke-linecap: round"/>
     </g>
     <g id="line2d_6"/>
     <g id="text_3">
      <!-- $\mathdefault{0.50}$ -->
      <g style="fill: #262626" transform="translate(247.600155 537.838907) scale(0.14 -0.14)">
       <use xlink:href="#CMR17-30" transform="scale(0.996264)"/>
       <use xlink:href="#CMMI12-3a" transform="translate(45.690477 0) scale(0.996264)"/>
       <use xlink:href="#CMR17-35" transform="translate(72.787654 0) scale(0.996264)"/>
       <use xlink:href="#CMR17-30" transform="translate(118.478131 0) scale(0.996264)"/>
      </g>
     </g>
    </g>
    <g id="xtick_4">
     <g id="line2d_7">
      <path d="M 365.33 521.153031 
L 365.33 51.564121 
" clip-path="url(#p01bd0b1d39)" style="fill: none; stroke: #ffffff; stroke-linecap: round"/>
     </g>
     <g id="line2d_8"/>
     <g id="text_4">
      <!-- $\mathdefault{0.75}$ -->
      <g style="fill: #262626" transform="translate(353.190464 537.838907) scale(0.14 -0.14)">
       <defs>
        <path id="CMR17-37" d="M 2886 3941 
L 2886 4081 
L 1382 4081 
C 634 4081 621 4165 595 4288 
L 480 4288 
L 294 3094 
L 410 3094 
C 429 3215 474 3540 550 3661 
C 589 3712 1062 3712 1171 3712 
L 2579 3712 
L 1869 2661 
C 1395 1954 1069 999 1069 165 
C 1069 89 1069 -128 1299 -128 
C 1530 -128 1530 89 1530 171 
L 1530 465 
C 1530 1508 1709 2196 2003 2636 
L 2886 3941 
z
" transform="scale(0.015625)"/>
       </defs>
       <use xlink:href="#CMR17-30" transform="scale(0.996264)"/>
       <use xlink:href="#CMMI12-3a" transform="translate(45.690477 0) scale(0.996264)"/>
       <use xlink:href="#CMR17-37" transform="translate(72.787654 0) scale(0.996264)"/>
       <use xlink:href="#CMR17-35" transform="translate(118.478131 0) scale(0.996264)"/>
      </g>
     </g>
    </g>
    <g id="xtick_5">
     <g id="line2d_9">
      <path d="M 470.920309 521.153031 
L 470.920309 51.564121 
" clip-path="url(#p01bd0b1d39)" style="fill: none; stroke: #ffffff; stroke-linecap: round"/>
     </g>
     <g id="line2d_10"/>
     <g id="text_5">
      <!-- $\mathdefault{1.00}$ -->
      <g style="fill: #262626" transform="translate(458.780774 537.838907) scale(0.14 -0.14)">
       <defs>
        <path id="CMR17-31" d="M 1702 4058 
C 1702 4192 1696 4192 1606 4192 
C 1357 3916 979 3827 621 3827 
C 602 3827 570 3827 563 3808 
C 557 3795 557 3782 557 3648 
C 755 3648 1088 3686 1344 3839 
L 1344 461 
C 1344 236 1331 160 781 160 
L 589 160 
L 589 0 
C 896 0 1216 0 1523 0 
C 1830 0 2150 0 2458 0 
L 2458 160 
L 2266 160 
C 1715 160 1702 230 1702 458 
L 1702 4058 
z
" transform="scale(0.015625)"/>
       </defs>
       <use xlink:href="#CMR17-31" transform="scale(0.996264)"/>
       <use xlink:href="#CMMI12-3a" transform="translate(45.690477 0) scale(0.996264)"/>
       <use xlink:href="#CMR17-30" transform="translate(72.787654 0) scale(0.996264)"/>
       <use xlink:href="#CMR17-30" transform="translate(118.478131 0) scale(0.996264)"/>
      </g>
     </g>
    </g>
    <g id="xtick_6">
     <g id="line2d_11">
      <path d="M 576.510619 521.153031 
L 576.510619 51.564121 
" clip-path="url(#p01bd0b1d39)" style="fill: none; stroke: #ffffff; stroke-linecap: round"/>
     </g>
     <g id="line2d_12"/>
     <g id="text_6">
      <!-- $\mathdefault{1.25}$ -->
      <g style="fill: #262626" transform="translate(564.371084 537.838907) scale(0.14 -0.14)">
       <use xlink:href="#CMR17-31" transform="scale(0.996264)"/>
       <use xlink:href="#CMMI12-3a" transform="translate(45.690477 0) scale(0.996264)"/>
       <use xlink:href="#CMR17-32" transform="translate(72.787654 0) scale(0.996264)"/>
       <use xlink:href="#CMR17-35" transform="translate(118.478131 0) scale(0.996264)"/>
      </g>
     </g>
    </g>
    <g id="xtick_7">
     <g id="line2d_13">
      <path d="M 682.100929 521.153031 
L 682.100929 51.564121 
" clip-path="url(#p01bd0b1d39)" style="fill: none; stroke: #ffffff; stroke-linecap: round"/>
     </g>
     <g id="line2d_14"/>
     <g id="text_7">
      <!-- $\mathdefault{1.50}$ -->
      <g style="fill: #262626" transform="translate(669.961393 537.838907) scale(0.14 -0.14)">
       <use xlink:href="#CMR17-31" transform="scale(0.996264)"/>
       <use xlink:href="#CMMI12-3a" transform="translate(45.690477 0) scale(0.996264)"/>
       <use xlink:href="#CMR17-35" transform="translate(72.787654 0) scale(0.996264)"/>
       <use xlink:href="#CMR17-30" transform="translate(118.478131 0) scale(0.996264)"/>
      </g>
     </g>
    </g>
    <g id="xtick_8">
     <g id="line2d_15">
      <path d="M 787.691238 521.153031 
L 787.691238 51.564121 
" clip-path="url(#p01bd0b1d39)" style="fill: none; stroke: #ffffff; stroke-linecap: round"/>
     </g>
     <g id="line2d_16"/>
     <g id="text_8">
      <!-- $\mathdefault{1.75}$ -->
      <g style="fill: #262626" transform="translate(775.551703 537.838907) scale(0.14 -0.14)">
       <use xlink:href="#CMR17-31" transform="scale(0.996264)"/>
       <use xlink:href="#CMMI12-3a" transform="translate(45.690477 0) scale(0.996264)"/>
       <use xlink:href="#CMR17-37" transform="translate(72.787654 0) scale(0.996264)"/>
       <use xlink:href="#CMR17-35" transform="translate(118.478131 0) scale(0.996264)"/>
      </g>
     </g>
    </g>
    <g id="xtick_9">
     <g id="line2d_17">
      <path d="M 893.281548 521.153031 
L 893.281548 51.564121 
" clip-path="url(#p01bd0b1d39)" style="fill: none; stroke: #ffffff; stroke-linecap: round"/>
     </g>
     <g id="line2d_18"/>
     <g id="text_9">
      <!-- $\mathdefault{2.00}$ -->
      <g style="fill: #262626" transform="translate(881.142013 537.838907) scale(0.14 -0.14)">
       <use xlink:href="#CMR17-32" transform="scale(0.996264)"/>
       <use xlink:href="#CMMI12-3a" transform="translate(45.690477 0) scale(0.996264)"/>
       <use xlink:href="#CMR17-30" transform="translate(72.787654 0) scale(0.996264)"/>
       <use xlink:href="#CMR17-30" transform="translate(118.478131 0) scale(0.996264)"/>
      </g>
     </g>
    </g>
    <g id="text_10">
     <!-- $x$ -->
     <g style="fill: #262626" transform="translate(487.603646 555.620524) scale(0.16 -0.16)">
      <defs>
       <path id="CMMI12-78" d="M 3034 2606 
C 2829 2567 2752 2414 2752 2293 
C 2752 2139 2874 2088 2963 2088 
C 3155 2088 3290 2254 3290 2427 
C 3290 2695 2982 2816 2714 2816 
C 2323 2816 2106 2433 2048 2312 
C 1901 2816 1504 2816 1389 2816 
C 736 2816 390 1980 390 1839 
C 390 1814 416 1782 461 1782 
C 512 1782 525 1820 538 1846 
C 755 2555 1184 2689 1370 2689 
C 1658 2689 1715 2420 1715 2267 
C 1715 2127 1677 1980 1600 1673 
L 1382 798 
C 1286 415 1101 64 762 64 
C 730 64 570 64 435 147 
C 666 192 717 383 717 460 
C 717 588 621 664 499 664 
C 346 664 179 530 179 326 
C 179 57 480 -64 755 -64 
C 1062 -64 1280 179 1414 441 
C 1517 64 1837 -64 2074 -64 
C 2726 -64 3072 773 3072 913 
C 3072 945 3046 971 3008 971 
C 2950 971 2944 939 2925 888 
C 2752 326 2381 64 2093 64 
C 1869 64 1747 230 1747 492 
C 1747 632 1773 734 1875 1156 
L 2099 2024 
C 2195 2408 2413 2689 2707 2689 
C 2720 2689 2899 2689 3034 2606 
z
" transform="scale(0.015625)"/>
      </defs>
      <use xlink:href="#CMMI12-78" transform="scale(0.996264)"/>
     </g>
    </g>
   </g>
   <g id="matplotlib.axis_2">
    <g id="ytick_1">
     <g id="line2d_19">
      <path d="M 48.559071 521.153031 
L 935.517672 521.153031 
" clip-path="url(#p01bd0b1d39)" style="fill: none; stroke: #ffffff; stroke-linecap: round"/>
     </g>
     <g id="line2d_20"/>
     <g id="text_11">
      <!-- $\mathdefault{0.00}$ -->
      <g style="fill: #262626" transform="translate(17.28 525.995969) scale(0.14 -0.14)">
       <use xlink:href="#CMR17-30" transform="scale(0.996264)"/>
       <use xlink:href="#CMMI12-3a" transform="translate(45.690477 0) scale(0.996264)"/>
       <use xlink:href="#CMR17-30" transform="translate(72.787654 0) scale(0.996264)"/>
       <use xlink:href="#CMR17-30" transform="translate(118.478131 0) scale(0.996264)"/>
      </g>
     </g>
    </g>
    <g id="ytick_2">
     <g id="line2d_21">
      <path d="M 48.559071 465.28535 
L 935.517672 465.28535 
" clip-path="url(#p01bd0b1d39)" style="fill: none; stroke: #ffffff; stroke-linecap: round"/>
     </g>
     <g id="line2d_22"/>
     <g id="text_12">
      <!-- $\mathdefault{0.25}$ -->
      <g style="fill: #262626" transform="translate(17.28 470.128288) scale(0.14 -0.14)">
       <use xlink:href="#CMR17-30" transform="scale(0.996264)"/>
       <use xlink:href="#CMMI12-3a" transform="translate(45.690477 0) scale(0.996264)"/>
       <use xlink:href="#CMR17-32" transform="translate(72.787654 0) scale(0.996264)"/>
       <use xlink:href="#CMR17-35" transform="translate(118.478131 0) scale(0.996264)"/>
      </g>
     </g>
    </g>
    <g id="ytick_3">
     <g id="line2d_23">
      <path d="M 48.559071 409.41767 
L 935.517672 409.41767 
" clip-path="url(#p01bd0b1d39)" style="fill: none; stroke: #ffffff; stroke-linecap: round"/>
     </g>
     <g id="line2d_24"/>
     <g id="text_13">
      <!-- $\mathdefault{0.50}$ -->
      <g style="fill: #262626" transform="translate(17.28 414.260608) scale(0.14 -0.14)">
       <use xlink:href="#CMR17-30" transform="scale(0.996264)"/>
       <use xlink:href="#CMMI12-3a" transform="translate(45.690477 0) scale(0.996264)"/>
       <use xlink:href="#CMR17-35" transform="translate(72.787654 0) scale(0.996264)"/>
       <use xlink:href="#CMR17-30" transform="translate(118.478131 0) scale(0.996264)"/>
      </g>
     </g>
    </g>
    <g id="ytick_4">
     <g id="line2d_25">
      <path d="M 48.559071 353.549989 
L 935.517672 353.549989 
" clip-path="url(#p01bd0b1d39)" style="fill: none; stroke: #ffffff; stroke-linecap: round"/>
     </g>
     <g id="line2d_26"/>
     <g id="text_14">
      <!-- $\mathdefault{0.75}$ -->
      <g style="fill: #262626" transform="translate(17.28 358.392928) scale(0.14 -0.14)">
       <use xlink:href="#CMR17-30" transform="scale(0.996264)"/>
       <use xlink:href="#CMMI12-3a" transform="translate(45.690477 0) scale(0.996264)"/>
       <use xlink:href="#CMR17-37" transform="translate(72.787654 0) scale(0.996264)"/>
       <use xlink:href="#CMR17-35" transform="translate(118.478131 0) scale(0.996264)"/>
      </g>
     </g>
    </g>
    <g id="ytick_5">
     <g id="line2d_27">
      <path d="M 48.559071 297.682309 
L 935.517672 297.682309 
" clip-path="url(#p01bd0b1d39)" style="fill: none; stroke: #ffffff; stroke-linecap: round"/>
     </g>
     <g id="line2d_28"/>
     <g id="text_15">
      <!-- $\mathdefault{1.00}$ -->
      <g style="fill: #262626" transform="translate(17.28 302.525247) scale(0.14 -0.14)">
       <use xlink:href="#CMR17-31" transform="scale(0.996264)"/>
       <use xlink:href="#CMMI12-3a" transform="translate(45.690477 0) scale(0.996264)"/>
       <use xlink:href="#CMR17-30" transform="translate(72.787654 0) scale(0.996264)"/>
       <use xlink:href="#CMR17-30" transform="translate(118.478131 0) scale(0.996264)"/>
      </g>
     </g>
    </g>
    <g id="ytick_6">
     <g id="line2d_29">
      <path d="M 48.559071 241.814629 
L 935.517672 241.814629 
" clip-path="url(#p01bd0b1d39)" style="fill: none; stroke: #ffffff; stroke-linecap: round"/>
     </g>
     <g id="line2d_30"/>
     <g id="text_16">
      <!-- $\mathdefault{1.25}$ -->
      <g style="fill: #262626" transform="translate(17.28 246.657567) scale(0.14 -0.14)">
       <use xlink:href="#CMR17-31" transform="scale(0.996264)"/>
       <use xlink:href="#CMMI12-3a" transform="translate(45.690477 0) scale(0.996264)"/>
       <use xlink:href="#CMR17-32" transform="translate(72.787654 0) scale(0.996264)"/>
       <use xlink:href="#CMR17-35" transform="translate(118.478131 0) scale(0.996264)"/>
      </g>
     </g>
    </g>
    <g id="ytick_7">
     <g id="line2d_31">
      <path d="M 48.559071 185.946948 
L 935.517672 185.946948 
" clip-path="url(#p01bd0b1d39)" style="fill: none; stroke: #ffffff; stroke-linecap: round"/>
     </g>
     <g id="line2d_32"/>
     <g id="text_17">
      <!-- $\mathdefault{1.50}$ -->
      <g style="fill: #262626" transform="translate(17.28 190.789886) scale(0.14 -0.14)">
       <use xlink:href="#CMR17-31" transform="scale(0.996264)"/>
       <use xlink:href="#CMMI12-3a" transform="translate(45.690477 0) scale(0.996264)"/>
       <use xlink:href="#CMR17-35" transform="translate(72.787654 0) scale(0.996264)"/>
       <use xlink:href="#CMR17-30" transform="translate(118.478131 0) scale(0.996264)"/>
      </g>
     </g>
    </g>
    <g id="ytick_8">
     <g id="line2d_33">
      <path d="M 48.559071 130.079268 
L 935.517672 130.079268 
" clip-path="url(#p01bd0b1d39)" style="fill: none; stroke: #ffffff; stroke-linecap: round"/>
     </g>
     <g id="line2d_34"/>
     <g id="text_18">
      <!-- $\mathdefault{1.75}$ -->
      <g style="fill: #262626" transform="translate(17.28 134.922206) scale(0.14 -0.14)">
       <use xlink:href="#CMR17-31" transform="scale(0.996264)"/>
       <use xlink:href="#CMMI12-3a" transform="translate(45.690477 0) scale(0.996264)"/>
       <use xlink:href="#CMR17-37" transform="translate(72.787654 0) scale(0.996264)"/>
       <use xlink:href="#CMR17-35" transform="translate(118.478131 0) scale(0.996264)"/>
      </g>
     </g>
    </g>
    <g id="ytick_9">
     <g id="line2d_35">
      <path d="M 48.559071 74.211587 
L 935.517672 74.211587 
" clip-path="url(#p01bd0b1d39)" style="fill: none; stroke: #ffffff; stroke-linecap: round"/>
     </g>
     <g id="line2d_36"/>
     <g id="text_19">
      <!-- $\mathdefault{2.00}$ -->
      <g style="fill: #262626" transform="translate(17.28 79.054525) scale(0.14 -0.14)">
       <use xlink:href="#CMR17-32" transform="scale(0.996264)"/>
       <use xlink:href="#CMMI12-3a" transform="translate(45.690477 0) scale(0.996264)"/>
       <use xlink:href="#CMR17-30" transform="translate(72.787654 0) scale(0.996264)"/>
       <use xlink:href="#CMR17-30" transform="translate(118.478131 0) scale(0.996264)"/>
      </g>
     </g>
    </g>
   </g>
   <g id="line2d_37">
    <path d="M 48.559071 74.211587 
L 57.006295 74.211587 
L 65.45352 74.211587 
L 73.900745 74.211587 
L 82.34797 74.211587 
L 90.795195 74.211587 
L 99.242419 74.211587 
L 107.689644 74.211587 
L 116.136869 74.211587 
L 124.584094 74.211587 
L 133.031318 74.211587 
L 141.478543 74.211587 
L 149.925768 74.211587 
L 158.372993 74.211587 
L 166.820217 74.211587 
L 175.267442 74.211587 
L 183.714667 74.211587 
L 192.161892 74.211587 
L 200.609117 74.211587 
L 209.056341 74.211587 
L 217.503566 74.211587 
L 225.950791 74.211587 
L 234.398016 74.211587 
L 242.84524 74.211587 
L 251.292465 74.211587 
L 259.73969 74.211587 
L 268.186915 74.211587 
L 276.63414 74.211587 
L 285.081364 74.211587 
L 293.528589 74.211587 
L 301.975814 74.211587 
L 310.423039 74.211587 
L 318.870263 74.211587 
L 327.317488 74.211587 
L 335.764713 74.211587 
L 344.211938 74.211587 
L 352.659162 74.211587 
L 361.106387 74.211587 
L 369.553612 74.211587 
L 378.000837 74.211587 
L 386.448062 74.211587 
L 394.895286 74.211587 
L 403.342511 74.211587 
L 411.789736 74.211587 
L 420.236961 74.211587 
L 428.684185 74.211587 
L 437.13141 74.211587 
L 445.578635 74.211587 
L 454.02586 74.211587 
L 462.473085 74.211587 
L 470.920309 74.211587 
L 479.367534 74.211587 
L 487.814759 74.211587 
L 496.261984 74.211587 
L 504.709208 74.211587 
L 513.156433 74.211587 
L 521.603658 74.211587 
L 530.050883 74.211587 
L 538.498107 74.211587 
L 546.945332 74.211587 
L 555.392557 74.211587 
L 563.839782 74.211587 
L 572.287007 74.211587 
L 580.734231 74.211587 
L 589.181456 74.211587 
L 597.628681 74.211587 
L 606.075906 74.211587 
L 614.52313 74.211587 
L 622.970355 74.211587 
L 631.41758 74.211587 
L 639.864805 74.211587 
L 648.31203 74.211587 
L 656.759254 74.211587 
L 665.206479 74.211587 
L 673.653704 74.211587 
L 682.100929 74.211587 
L 690.548153 74.211587 
L 698.995378 74.211587 
L 707.442603 74.211587 
L 715.889828 74.211587 
L 724.337052 74.211587 
L 732.784277 74.211587 
L 741.231502 74.211587 
L 749.678727 74.211587 
L 758.125952 74.211587 
L 766.573176 74.211587 
L 775.020401 74.211587 
L 783.467626 74.211587 
L 791.914851 74.211587 
L 800.362075 74.211587 
L 808.8093 74.211587 
L 817.256525 74.211587 
L 825.70375 74.211587 
L 834.150975 74.211587 
L 842.598199 74.211587 
L 851.045424 74.211587 
L 859.492649 74.211587 
L 867.939874 74.211587 
L 876.387098 74.211587 
L 884.834323 74.211587 
L 893.281548 74.211587 
" clip-path="url(#p01bd0b1d39)" style="fill: none; stroke: #393b79; stroke-width: 2; stroke-linecap: round"/>
   </g>
   <g id="line2d_38">
    <path d="M 48.559071 209.612114 
L 57.006295 208.437929 
L 65.45352 207.279212 
L 73.900745 206.135439 
L 82.34797 205.006696 
L 90.795195 203.892612 
L 99.242419 202.793022 
L 107.689644 201.66131 
L 116.136869 200.538325 
L 124.584094 199.4297 
L 133.031318 198.335272 
L 141.478543 197.254722 
L 149.925768 196.187955 
L 158.372993 195.134803 
L 166.820217 194.094907 
L 175.267442 193.068036 
L 183.714667 192.031202 
L 192.161892 190.981192 
L 200.609117 189.944192 
L 209.056341 188.920125 
L 217.503566 187.90881 
L 225.950791 186.910173 
L 234.398016 185.923832 
L 242.84524 184.949565 
L 251.292465 183.987294 
L 259.73969 183.036933 
L 268.186915 182.098249 
L 276.63414 181.135555 
L 285.081364 180.173996 
L 293.528589 179.224164 
L 301.975814 178.285892 
L 310.423039 177.358967 
L 318.870263 176.44316 
L 327.317488 175.538466 
L 335.764713 174.644627 
L 344.211938 173.761561 
L 352.659162 172.889103 
L 361.106387 172.027053 
L 369.553612 171.175252 
L 378.000837 170.314437 
L 386.448062 169.440679 
L 394.895286 168.5772 
L 403.342511 167.723883 
L 411.789736 166.880746 
L 420.236961 166.047495 
L 428.684185 165.223978 
L 437.13141 164.410103 
L 445.578635 163.605805 
L 454.02586 162.810926 
L 462.473085 162.025263 
L 470.920309 161.248681 
L 479.367534 160.481146 
L 487.814759 159.722531 
L 496.261984 158.972564 
L 504.709208 158.193183 
L 513.156433 157.422756 
L 521.603658 156.66119 
L 530.050883 155.908416 
L 538.498107 155.164226 
L 546.945332 154.428518 
L 555.392557 153.701214 
L 563.839782 152.982204 
L 572.287007 152.271335 
L 580.734231 151.568508 
L 589.181456 150.873706 
L 597.628681 150.186785 
L 606.075906 149.507586 
L 614.52313 148.836042 
L 622.970355 148.172071 
L 631.41758 147.515597 
L 639.864805 146.866481 
L 648.31203 146.203205 
L 656.759254 145.535237 
L 665.206479 144.874739 
L 673.653704 144.221618 
L 682.100929 143.575743 
L 690.548153 142.937054 
L 698.995378 142.305436 
L 707.442603 141.680841 
L 715.889828 141.063151 
L 724.337052 140.452268 
L 732.784277 139.848113 
L 741.231502 139.250656 
L 749.678727 138.659763 
L 758.125952 138.07537 
L 766.573176 137.497386 
L 775.020401 136.925762 
L 783.467626 136.360391 
L 791.914851 135.801179 
L 800.362075 135.248059 
L 808.8093 134.700987 
L 817.256525 134.159853 
L 825.70375 133.623662 
L 834.150975 133.065971 
L 842.598199 132.514321 
L 851.045424 131.968631 
L 859.492649 131.428839 
L 867.939874 130.894903 
L 876.387098 130.366714 
L 884.834323 129.844208 
L 893.281548 129.327315 
" clip-path="url(#p01bd0b1d39)" style="fill: none; stroke: #6b6ecf; stroke-width: 2; stroke-linecap: round"/>
   </g>
   <g id="line2d_39">
    <path d="M 48.559071 436.134668 
L 57.006295 434.144681 
L 65.45352 432.145886 
L 73.900745 430.143664 
L 82.34797 428.141766 
L 90.795195 426.129452 
L 99.242419 424.115369 
L 107.689644 422.100726 
L 116.136869 420.084909 
L 124.584094 418.067878 
L 133.031318 416.044996 
L 141.478543 414.020898 
L 149.925768 411.996548 
L 158.372993 409.972154 
L 166.820217 407.947954 
L 175.267442 405.924283 
L 183.714667 403.901929 
L 192.161892 401.881572 
L 200.609117 399.857077 
L 209.056341 397.833259 
L 217.503566 395.812231 
L 225.950791 393.794814 
L 234.398016 391.78201 
L 242.84524 389.776193 
L 251.292465 387.760046 
L 259.73969 385.749836 
L 268.186915 383.748589 
L 276.63414 381.755238 
L 285.081364 379.750224 
L 293.528589 377.757795 
L 301.975814 375.779439 
L 310.423039 373.784776 
L 318.870263 371.806116 
L 327.317488 369.836939 
L 335.764713 367.858721 
L 344.211938 365.902576 
L 352.659162 363.93577 
L 361.106387 361.983534 
L 369.553612 360.036415 
L 378.000837 358.089801 
L 386.448062 356.159918 
L 394.895286 354.221334 
L 403.342511 352.306883 
L 411.789736 350.37874 
L 420.236961 348.477144 
L 428.684185 346.56257 
L 437.13141 344.672176 
L 445.578635 342.775089 
L 454.02586 340.893434 
L 462.473085 339.017766 
L 470.920309 337.143281 
L 479.367534 335.293841 
L 487.814759 333.424487 
L 496.261984 331.590317 
L 504.709208 329.740898 
L 513.156433 327.909502 
L 521.603658 326.096735 
L 530.050883 324.266336 
L 538.498107 322.468937 
L 546.945332 320.66594 
L 555.392557 318.867382 
L 563.839782 317.100788 
L 572.287007 315.313127 
L 580.734231 313.543241 
L 589.181456 311.804231 
L 597.628681 310.038162 
L 606.075906 308.29394 
L 614.52313 306.579614 
L 622.970355 304.843045 
L 631.41758 303.121292 
L 639.864805 301.428601 
L 648.31203 299.729907 
L 656.759254 298.028305 
L 665.206479 296.354902 
L 673.653704 294.703908 
L 682.100929 293.019763 
L 690.548153 291.36289 
L 698.995378 289.732779 
L 707.442603 288.101434 
L 715.889828 286.458735 
L 724.337052 284.842305 
L 732.784277 283.25129 
L 741.231502 281.650751 
L 749.678727 280.045634 
L 758.125952 278.465489 
L 766.573176 276.909784 
L 775.020401 275.352507 
L 783.467626 273.780943 
L 791.914851 272.233359 
L 800.362075 270.709323 
L 808.8093 269.208375 
L 817.256525 267.668425 
L 825.70375 266.15011 
L 834.150975 264.654506 
L 842.598199 263.181001 
L 851.045424 261.714154 
L 859.492649 260.22206 
L 867.939874 258.751748 
L 876.387098 257.302835 
L 884.834323 255.874897 
L 893.281548 254.458865 
" clip-path="url(#p01bd0b1d39)" style="fill: none; stroke: #637939; stroke-width: 2; stroke-linecap: round"/>
   </g>
   <g id="line2d_40">
    <path d="M 48.559071 501.732416 
L 57.006295 500.392061 
L 65.45352 499.019346 
L 73.900745 497.615239 
L 82.34797 496.181277 
L 90.795195 494.717948 
L 99.242419 493.226409 
L 107.689644 491.708054 
L 116.136869 490.163038 
L 124.584094 488.593036 
L 133.031318 486.998507 
L 141.478543 485.380961 
L 149.925768 483.739955 
L 158.372993 482.077597 
L 166.820217 480.394422 
L 175.267442 478.691631 
L 183.714667 476.968249 
L 192.161892 475.227987 
L 200.609117 473.468712 
L 209.056341 471.692517 
L 217.503566 469.900663 
L 225.950791 468.09331 
L 234.398016 466.269324 
L 242.84524 464.433318 
L 251.292465 462.582134 
L 259.73969 460.720433 
L 268.186915 458.843385 
L 276.63414 456.955866 
L 285.081364 455.057442 
L 293.528589 453.148864 
L 301.975814 451.230258 
L 310.423039 449.302747 
L 318.870263 447.366976 
L 327.317488 445.423509 
L 335.764713 443.468886 
L 344.211938 441.50974 
L 352.659162 439.544439 
L 361.106387 437.570844 
L 369.553612 435.594134 
L 378.000837 433.609735 
L 386.448062 431.620692 
L 394.895286 429.632387 
L 403.342511 427.632491 
L 411.789736 425.631718 
L 420.236961 423.630219 
L 428.684185 421.627681 
L 437.13141 419.618329 
L 445.578635 417.606729 
L 454.02586 415.594323 
L 462.473085 413.581213 
L 470.920309 411.56768 
L 479.367534 409.553549 
L 487.814759 407.539553 
L 496.261984 405.525987 
L 504.709208 403.51353 
L 513.156433 401.502731 
L 521.603658 399.494321 
L 530.050883 397.483587 
L 538.498107 395.471252 
L 546.945332 393.462626 
L 555.392557 391.458962 
L 563.839782 389.461458 
L 572.287007 387.463244 
L 580.734231 385.461531 
L 589.181456 383.468942 
L 597.628681 381.487005 
L 606.075906 379.495072 
L 614.52313 377.510842 
L 622.970355 375.541234 
L 631.41758 373.561267 
L 639.864805 371.590991 
L 648.31203 369.636287 
L 656.759254 367.666233 
L 665.206479 365.718207 
L 673.653704 363.765252 
L 682.100929 361.821231 
L 690.548153 359.88737 
L 698.995378 357.948903 
L 707.442603 356.031948 
L 715.889828 354.101363 
L 724.337052 352.199133 
L 732.784277 350.279274 
L 741.231502 348.38942 
L 749.678727 346.483564 
L 758.125952 344.604306 
L 766.573176 342.715834 
L 775.020401 340.844876 
L 783.467626 338.978296 
L 791.914851 337.114035 
L 800.362075 335.273882 
L 808.8093 333.414489 
L 817.256525 331.589844 
L 825.70375 329.749953 
L 834.150975 327.927743 
L 842.598199 326.124838 
L 851.045424 324.303087 
L 859.492649 322.51423 
L 867.939874 320.72144 
L 876.387098 318.931202 
L 884.834323 317.172536 
L 893.281548 315.395384 
" clip-path="url(#p01bd0b1d39)" style="fill: none; stroke: #b5cf6b; stroke-width: 2; stroke-linecap: round"/>
   </g>
   <g id="line2d_41">
    <path d="M 48.559071 520.917076 
L 57.006295 520.704827 
L 65.45352 520.427868 
L 73.900745 520.087888 
L 82.34797 519.686669 
L 90.795195 519.225762 
L 99.242419 518.706868 
L 107.689644 518.131597 
L 116.136869 517.501477 
L 124.584094 516.81806 
L 133.031318 516.08284 
L 141.478543 515.297245 
L 149.925768 514.462768 
L 158.372993 513.580824 
L 166.820217 512.652764 
L 175.267442 511.679913 
L 183.714667 510.663594 
L 192.161892 509.605179 
L 200.609117 508.506021 
L 209.056341 507.367045 
L 217.503566 506.189706 
L 225.950791 504.975378 
L 234.398016 503.724559 
L 242.84524 502.439131 
L 251.292465 501.119783 
L 259.73969 499.767831 
L 268.186915 498.383995 
L 276.63414 496.970069 
L 285.081364 495.526014 
L 293.528589 494.05394 
L 301.975814 492.554044 
L 310.423039 491.027165 
L 318.870263 489.475017 
L 327.317488 487.897999 
L 335.764713 486.296796 
L 344.211938 484.67347 
L 352.659162 483.027151 
L 361.106387 481.359948 
L 369.553612 479.672721 
L 378.000837 477.964198 
L 386.448062 476.238568 
L 394.895286 474.493425 
L 403.342511 472.731461 
L 411.789736 470.95295 
L 420.236961 469.158762 
L 428.684185 467.350345 
L 437.13141 465.524851 
L 445.578635 463.687593 
L 454.02586 461.835502 
L 462.473085 459.973038 
L 470.920309 458.097241 
L 479.367534 456.209257 
L 487.814759 454.311191 
L 496.261984 452.403278 
L 504.709208 450.486264 
L 513.156433 448.561049 
L 521.603658 446.625462 
L 530.050883 444.680985 
L 538.498107 442.731188 
L 546.945332 440.774613 
L 555.392557 438.809185 
L 563.839782 436.841712 
L 572.287007 434.86415 
L 580.734231 432.884612 
L 589.181456 430.900891 
L 597.628681 428.909179 
L 606.075906 426.917416 
L 614.52313 424.925053 
L 622.970355 422.922868 
L 631.41758 420.919577 
L 639.864805 418.915317 
L 648.31203 416.9101 
L 656.759254 414.903744 
L 665.206479 412.896232 
L 673.653704 410.887802 
L 682.100929 408.878593 
L 690.548153 406.869084 
L 698.995378 404.859354 
L 707.442603 402.850518 
L 715.889828 400.842704 
L 724.337052 398.837503 
L 732.784277 396.835146 
L 741.231502 394.837324 
L 749.678727 392.831441 
L 758.125952 390.829473 
L 766.573176 388.833406 
L 775.020401 386.845115 
L 783.467626 384.854098 
L 791.914851 382.861967 
L 800.362075 380.88053 
L 808.8093 378.907287 
L 817.256525 376.922888 
L 825.70375 374.953064 
L 834.150975 372.990998 
L 842.598199 371.02 
L 851.045424 369.068778 
L 859.492649 367.111245 
L 867.939874 365.162105 
L 876.387098 363.225713 
L 884.834323 361.280076 
L 893.281548 359.362085 
" clip-path="url(#p01bd0b1d39)" style="fill: none; stroke: #8c6d31; stroke-width: 2; stroke-linecap: round"/>
   </g>
   <g id="line2d_42">
    <path d="M 48.559071 521.990703 
L 57.006295 521.258419 
L 65.45352 521.05989 
L 73.900745 520.91251 
L 82.34797 520.698739 
L 90.795195 520.420287 
L 99.242419 520.078923 
L 107.689644 519.676356 
L 116.136869 519.214225 
L 124.584094 518.694163 
L 133.031318 518.117782 
L 141.478543 517.486592 
L 149.925768 516.802173 
L 158.372993 516.066009 
L 166.820217 515.279579 
L 175.267442 514.444256 
L 183.714667 513.561495 
L 192.161892 512.632723 
L 200.609117 511.65927 
L 209.056341 510.64239 
L 217.503566 509.583488 
L 225.950791 508.483736 
L 234.398016 507.344302 
L 242.84524 506.166619 
L 251.292465 504.951681 
L 259.73969 503.700741 
L 268.186915 502.414797 
L 276.63414 501.095349 
L 285.081364 499.743265 
L 293.528589 498.359331 
L 301.975814 496.945065 
L 310.423039 495.501133 
L 318.870263 494.028568 
L 327.317488 492.528692 
L 335.764713 491.001887 
L 344.211938 489.449909 
L 352.659162 487.873009 
L 361.106387 486.271848 
L 369.553612 484.648574 
L 378.000837 483.002088 
L 386.448062 481.33477 
L 394.895286 479.647825 
L 403.342511 477.939863 
L 411.789736 476.214338 
L 420.236961 474.469398 
L 428.684185 472.707748 
L 437.13141 470.929422 
L 445.578635 469.135586 
L 454.02586 467.327183 
L 462.473085 465.502431 
L 470.920309 463.665213 
L 479.367534 461.813605 
L 487.814759 459.951556 
L 496.261984 458.075732 
L 504.709208 456.18847 
L 513.156433 454.29095 
L 521.603658 452.38342 
L 530.050883 450.466792 
L 538.498107 448.54175 
L 546.945332 446.606978 
L 555.392557 444.662817 
L 563.839782 442.713385 
L 572.287007 440.757605 
L 580.734231 438.792316 
L 589.181456 436.825737 
L 597.628681 434.848231 
L 606.075906 432.869432 
L 614.52313 430.885973 
L 622.970355 428.894976 
L 631.41758 426.90384 
L 639.864805 424.911895 
L 648.31203 422.910078 
L 656.759254 420.907396 
L 665.206479 418.903749 
L 673.653704 416.899093 
L 682.100929 414.893272 
L 690.548153 412.886448 
L 698.995378 410.878383 
L 707.442603 408.869825 
L 715.889828 406.86055 
L 724.337052 404.851729 
L 732.784277 402.843193 
L 741.231502 400.836163 
L 749.678727 398.831295 
L 758.125952 396.829692 
L 766.573176 394.832278 
L 775.020401 392.826949 
L 783.467626 390.825439 
L 791.914851 388.829953 
L 800.362075 386.842228 
L 808.8093 384.851832 
L 817.256525 382.860263 
L 825.70375 380.879374 
L 834.150975 378.906758 
L 842.598199 376.922745 
L 851.045424 374.953496 
L 859.492649 372.991762 
L 867.939874 371.021432 
L 876.387098 369.070906 
L 884.834323 367.11386 
L 893.281548 365.165251 
" clip-path="url(#p01bd0b1d39)" style="fill: none; stroke: #e7cb94; stroke-width: 2; stroke-linecap: round"/>
   </g>
   <g id="line2d_43">
    <path d="M 48.559071 523.245464 
L 57.006295 521.594422 
L 65.45352 521.151704 
L 73.900745 521.011389 
L 82.34797 520.838391 
L 90.795195 520.599638 
L 99.242419 520.296915 
L 107.689644 519.931951 
L 116.136869 519.506408 
L 124.584094 519.021943 
L 133.031318 518.480181 
L 141.478543 517.882657 
L 149.925768 517.230968 
L 158.372993 516.526626 
L 166.820217 515.771104 
L 175.267442 514.965824 
L 183.714667 514.112268 
L 192.161892 513.211811 
L 200.609117 512.265862 
L 209.056341 511.275669 
L 217.503566 510.242655 
L 225.950791 509.16814 
L 234.398016 508.052987 
L 242.84524 506.89904 
L 251.292465 505.706951 
L 259.73969 504.478123 
L 268.186915 503.21377 
L 276.63414 501.915202 
L 285.081364 500.583111 
L 293.528589 499.218856 
L 301.975814 497.823079 
L 310.423039 496.397518 
L 318.870263 494.942548 
L 327.317488 493.459522 
L 335.764713 491.949438 
L 344.211938 490.412947 
L 352.659162 488.851584 
L 361.106387 487.265373 
L 369.553612 485.655673 
L 378.000837 484.023298 
L 386.448062 482.36932 
L 394.895286 480.694312 
L 403.342511 478.999046 
L 411.789736 477.285506 
L 420.236961 475.551568 
L 428.684185 473.800685 
L 437.13141 472.032745 
L 445.578635 470.248533 
L 454.02586 468.448563 
L 462.473085 466.634885 
L 470.920309 464.804847 
L 479.367534 462.962865 
L 487.814759 461.106166 
L 496.261984 459.238908 
L 504.709208 457.360727 
L 513.156433 455.469673 
L 521.603658 453.56825 
L 530.050883 451.657651 
L 538.498107 449.737478 
L 546.945332 447.806687 
L 555.392557 445.868213 
L 563.839782 443.923681 
L 572.287007 441.97217 
L 580.734231 440.010796 
L 589.181456 438.048996 
L 597.628681 436.073749 
L 606.075906 434.099886 
L 614.52313 432.116226 
L 622.970355 430.129903 
L 631.41758 428.143544 
L 639.864805 426.147297 
L 648.31203 424.149125 
L 656.759254 422.150123 
L 665.206479 420.14993 
L 673.653704 418.148422 
L 682.100929 416.143549 
L 690.548153 414.135598 
L 698.995378 412.127133 
L 707.442603 410.118907 
L 715.889828 408.110682 
L 724.337052 406.103634 
L 732.784277 404.097585 
L 741.231502 402.08855 
L 749.678727 400.079628 
L 758.125952 398.072536 
L 766.573176 396.068038 
L 775.020401 394.067451 
L 783.467626 392.072249 
L 791.914851 390.07574 
L 800.362075 388.076069 
L 808.8093 386.08386 
L 817.256525 384.100916 
L 825.70375 382.11459 
L 834.150975 380.128311 
L 842.598199 378.154487 
L 851.045424 376.182741 
L 859.492649 374.206939 
L 867.939874 372.248345 
L 876.387098 370.284757 
L 884.834323 368.326607 
L 893.281548 366.385728 
" clip-path="url(#p01bd0b1d39)" style="fill: none; stroke: #ad494a; stroke-width: 2; stroke-linecap: round"/>
   </g>
   <g id="line2d_44">
    <path d="M 48.559071 524.537567 
L 57.006295 521.938595 
L 65.45352 521.244492 
L 73.900745 521.055251 
L 82.34797 520.905202 
L 90.795195 520.688795 
L 99.242419 520.407824 
L 107.689644 520.064029 
L 116.136869 519.659087 
L 124.584094 519.194662 
L 133.031318 518.672395 
L 141.478543 518.093834 
L 149.925768 517.460581 
L 158.372993 516.774155 
L 166.820217 516.03606 
L 175.267442 515.247704 
L 183.714667 514.410571 
L 192.161892 513.526094 
L 200.609117 512.595694 
L 209.056341 511.620551 
L 217.503566 510.602116 
L 225.950791 509.541704 
L 234.398016 508.440389 
L 242.84524 507.299671 
L 251.292465 506.120597 
L 259.73969 504.904292 
L 268.186915 503.652074 
L 276.63414 502.365312 
L 285.081364 501.044555 
L 293.528589 499.691079 
L 301.975814 498.306315 
L 310.423039 496.890863 
L 318.870263 495.446049 
L 327.317488 493.972445 
L 335.764713 492.47159 
L 344.211938 490.944295 
L 352.659162 489.391303 
L 361.106387 487.813731 
L 369.553612 486.21198 
L 378.000837 484.587329 
L 386.448062 482.940377 
L 394.895286 481.272685 
L 403.342511 479.584824 
L 411.789736 477.876877 
L 420.236961 476.150223 
L 428.684185 474.405135 
L 437.13141 472.643007 
L 445.578635 470.86445 
L 454.02586 469.069782 
L 462.473085 467.260819 
L 470.920309 465.436495 
L 479.367534 463.598094 
L 487.814759 461.746855 
L 496.261984 459.884853 
L 504.709208 458.00794 
L 513.156433 456.120621 
L 521.603658 454.222859 
L 530.050883 452.315243 
L 538.498107 450.398107 
L 546.945332 448.472799 
L 555.392557 446.539157 
L 563.839782 444.594312 
L 572.287007 442.644425 
L 580.734231 440.689369 
L 589.181456 438.723531 
L 597.628681 436.75747 
L 606.075906 434.779193 
L 614.52313 432.801203 
L 622.970355 430.816503 
L 631.41758 428.826163 
L 639.864805 426.8355 
L 648.31203 424.842582 
L 656.759254 422.841009 
L 665.206479 420.838672 
L 673.653704 418.835439 
L 682.100929 416.831067 
L 690.548153 414.825623 
L 698.995378 412.818774 
L 707.442603 410.811161 
L 715.889828 408.802456 
L 724.337052 406.793706 
L 732.784277 404.784626 
L 741.231502 402.776301 
L 749.678727 400.769248 
L 758.125952 398.764416 
L 766.573176 396.762572 
L 775.020401 394.765034 
L 783.467626 392.76164 
L 791.914851 390.759918 
L 800.362075 388.764203 
L 808.8093 386.776348 
L 817.256525 384.787637 
L 825.70375 382.795735 
L 834.150975 380.814688 
L 842.598199 378.843472 
L 851.045424 376.859228 
L 859.492649 374.889519 
L 867.939874 372.929435 
L 876.387098 370.958816 
L 884.834323 369.007617 
L 893.281548 367.05213 
" clip-path="url(#p01bd0b1d39)" style="fill: none; stroke: #e7969c; stroke-width: 2; stroke-linecap: round"/>
   </g>
   <g id="line2d_45">
    <path d="M 48.559071 525.845053 
L 57.006295 522.285706 
L 65.45352 521.337764 
L 73.900745 521.082211 
L 82.34797 520.946834 
L 90.795195 520.745997 
L 99.242419 520.480182 
L 107.689644 520.151138 
L 116.136869 519.760551 
L 124.584094 519.310094 
L 133.031318 518.801413 
L 141.478543 518.236067 
L 149.925768 517.615662 
L 158.372993 516.941732 
L 166.820217 516.215778 
L 175.267442 515.439224 
L 183.714667 514.613555 
L 192.161892 513.740217 
L 200.609117 512.820597 
L 209.056341 511.855949 
L 217.503566 510.847712 
L 225.950791 509.797225 
L 234.398016 508.705448 
L 242.84524 507.574055 
L 251.292465 506.403971 
L 259.73969 505.196529 
L 268.186915 503.952704 
L 276.63414 502.673978 
L 285.081364 501.361231 
L 293.528589 500.015479 
L 301.975814 498.638014 
L 310.423039 497.229877 
L 318.870263 495.791756 
L 327.317488 494.325405 
L 335.764713 492.831062 
L 344.211938 491.309435 
L 352.659162 489.76291 
L 361.106387 488.191139 
L 369.553612 486.594777 
L 378.000837 484.975704 
L 386.448062 483.333899 
L 394.895286 481.671195 
L 403.342511 479.987948 
L 411.789736 478.28533 
L 420.236961 476.562321 
L 428.684185 474.822061 
L 437.13141 473.064457 
L 445.578635 471.289943 
L 454.02586 469.498647 
L 462.473085 467.692149 
L 470.920309 465.872174 
L 479.367534 464.036809 
L 487.814759 462.189455 
L 496.261984 460.327661 
L 504.709208 458.455331 
L 513.156433 456.572032 
L 521.603658 454.677594 
L 530.050883 452.772453 
L 538.498107 450.856776 
L 546.945332 448.931717 
L 555.392557 446.998432 
L 563.839782 445.058321 
L 572.287007 443.111717 
L 580.734231 441.153823 
L 589.181456 439.194358 
L 597.628681 437.224092 
L 606.075906 435.25322 
L 614.52313 433.271717 
L 622.970355 431.290752 
L 631.41758 429.302318 
L 639.864805 427.309138 
L 648.31203 425.315569 
L 656.759254 423.321039 
L 665.206479 421.318872 
L 673.653704 419.314388 
L 682.100929 417.309054 
L 690.548153 415.302935 
L 698.995378 413.295691 
L 707.442603 411.287963 
L 715.889828 409.279419 
L 724.337052 407.271107 
L 732.784277 405.262738 
L 741.231502 403.255398 
L 749.678727 401.249602 
L 758.125952 399.246303 
L 766.573176 397.246265 
L 775.020401 395.239599 
L 783.467626 393.235579 
L 791.914851 391.236299 
L 800.362075 389.243298 
L 808.8093 387.255786 
L 817.256525 385.258445 
L 825.70375 383.26987 
L 834.150975 381.292426 
L 842.598199 379.31035 
L 851.045424 377.330029 
L 859.492649 375.364525 
L 867.939874 373.393945 
L 876.387098 371.42784 
L 884.834323 369.481443 
L 893.281548 367.515778 
" clip-path="url(#p01bd0b1d39)" style="fill: none; stroke: #a55194; stroke-width: 2; stroke-linecap: round"/>
   </g>
   <g id="line2d_46">
    <path d="M 48.559071 527.160914 
L 57.006295 522.63419 
L 65.45352 521.431178 
L 73.900745 521.107547 
L 82.34797 520.976083 
L 90.795195 520.787192 
L 99.242419 520.533008 
L 107.689644 520.215285 
L 116.136869 519.835715 
L 124.584094 519.395978 
L 133.031318 518.897725 
L 141.478543 518.342524 
L 149.925768 517.731981 
L 158.372993 517.067647 
L 166.820217 516.35102 
L 175.267442 515.58352 
L 183.714667 514.766667 
L 192.161892 513.90185 
L 200.609117 512.990534 
L 209.056341 512.033942 
L 217.503566 511.033556 
L 225.950791 509.99064 
L 234.398016 508.906229 
L 242.84524 507.782071 
L 251.292465 506.618887 
L 259.73969 505.418102 
L 268.186915 504.180815 
L 276.63414 502.908473 
L 285.081364 501.601579 
L 293.528589 500.26198 
L 301.975814 498.890202 
L 310.423039 497.487472 
L 318.870263 496.054745 
L 327.317488 494.593338 
L 335.764713 493.104033 
L 344.211938 491.587316 
L 352.659162 490.045538 
L 361.106387 488.478103 
L 369.553612 486.886321 
L 378.000837 485.270931 
L 386.448062 483.633475 
L 394.895286 481.974747 
L 403.342511 480.294895 
L 411.789736 478.59532 
L 420.236961 476.876691 
L 428.684185 475.139806 
L 437.13141 473.384396 
L 445.578635 471.61273 
L 454.02586 469.824946 
L 462.473085 468.022647 
L 470.920309 466.203459 
L 479.367534 464.371255 
L 487.814759 462.525404 
L 496.261984 460.668291 
L 504.709208 458.796412 
L 513.156433 456.914 
L 521.603658 455.020889 
L 530.050883 453.117515 
L 538.498107 451.20405 
L 546.945332 449.281656 
L 555.392557 447.351495 
L 563.839782 445.413474 
L 572.287007 443.464284 
L 580.734231 441.510746 
L 589.181456 439.55082 
L 597.628681 437.582606 
L 606.075906 435.61132 
L 614.52313 433.63315 
L 622.970355 431.649706 
L 631.41758 429.666574 
L 639.864805 427.67287 
L 648.31203 425.677575 
L 656.759254 423.681548 
L 665.206479 421.684355 
L 673.653704 419.682077 
L 682.100929 417.675979 
L 690.548153 415.669315 
L 698.995378 413.661742 
L 707.442603 411.653901 
L 715.889828 409.645455 
L 724.337052 407.637454 
L 732.784277 405.629606 
L 741.231502 403.622998 
L 749.678727 401.618143 
L 758.125952 399.615996 
L 766.573176 397.607653 
L 775.020401 395.601495 
L 783.467626 393.599118 
L 791.914851 391.601689 
L 800.362075 389.610748 
L 808.8093 387.614529 
L 817.256525 385.619508 
L 825.70375 383.633462 
L 834.150975 381.658237 
L 842.598199 379.668348 
L 851.045424 377.691015 
L 859.492649 375.728714 
L 867.939874 373.750079 
L 876.387098 371.787416 
L 884.834323 369.833835 
L 893.281548 367.871204 
" clip-path="url(#p01bd0b1d39)" style="fill: none; stroke: #de9ed6; stroke-width: 2; stroke-linecap: round"/>
   </g>
   <g id="patch_3">
    <path d="M 48.559071 521.153031 
L 48.559071 51.564121 
" style="fill: none"/>
   </g>
   <g id="patch_4">
    <path d="M 935.517672 521.153031 
L 935.517672 51.564121 
" style="fill: none"/>
   </g>
   <g id="patch_5">
    <path d="M 48.559071 521.153031 
L 935.517672 521.153031 
" style="fill: none"/>
   </g>
   <g id="patch_6">
    <path d="M 48.559071 51.564121 
L 935.517672 51.564121 
" style="fill: none"/>
   </g>
   <g id="patch_7">
    <path d="M 470.920309 80.682831 
Q 470.920309 269.089651 470.920309 455.819419 
" style="fill: none; stroke: #000000; stroke-width: 1.5; stroke-linecap: round"/>
    <path d="M 474.120309 449.419419 
L 470.920309 455.819419 
L 467.720309 449.419419 
" style="fill: none; stroke: #000000; stroke-width: 1.5; stroke-linecap: round"/>
   </g>
   <g id="text_20">
    <!-- Time -->
    <g style="fill: #262626" transform="translate(492.038371 456.011273) scale(0.18 -0.18)">
     <defs>
      <path id="CMR17-54" d="M 3981 4326 
L 288 4326 
L 179 2918 
L 294 2918 
C 378 3976 467 4160 1453 4160 
C 1568 4160 1754 4160 1805 4154 
C 1926 4135 1926 4058 1926 3912 
L 1926 459 
C 1926 230 1907 160 1376 160 
L 1197 160 
L 1197 0 
C 1504 0 1824 0 2138 0 
C 2451 0 2771 0 3078 0 
L 3078 160 
L 2899 160 
C 2368 160 2349 230 2349 459 
L 2349 3912 
C 2349 4052 2349 4129 2464 4154 
C 2515 4160 2701 4160 2816 4160 
C 3795 4160 3891 3976 3974 2918 
L 4090 2918 
L 3981 4326 
z
" transform="scale(0.015625)"/>
      <path id="CMR17-69" d="M 992 3909 
C 992 4049 877 4170 730 4170 
C 589 4170 467 4056 467 3909 
C 467 3769 582 3648 730 3648 
C 870 3648 992 3763 992 3909 
z
M 243 2706 
L 243 2541 
C 602 2541 653 2502 653 2197 
L 653 427 
C 653 184 627 153 218 153 
L 218 -13 
C 371 0 646 0 806 0 
C 960 0 1222 0 1370 -13 
L 1370 153 
C 992 153 979 191 979 420 
L 979 2776 
L 243 2706 
z
" transform="scale(0.015625)"/>
      <path id="CMR17-6d" d="M 4326 1933 
C 4326 2252 4269 2790 3507 2790 
C 3072 2790 2771 2496 2656 2151 
L 2650 2151 
C 2573 2676 2195 2790 1837 2790 
C 1331 2790 1069 2400 973 2144 
L 966 2144 
L 966 2790 
L 211 2720 
L 211 2554 
C 589 2554 646 2515 646 2208 
L 646 428 
C 646 184 621 153 211 153 
L 211 -13 
C 365 0 646 0 813 0 
C 979 0 1267 0 1421 -13 
L 1421 153 
C 1011 153 986 178 986 428 
L 986 1658 
C 986 2247 1344 2688 1792 2688 
C 2266 2688 2317 2266 2317 1958 
L 2317 428 
C 2317 184 2291 153 1882 153 
L 1882 -13 
C 2035 0 2317 0 2483 0 
C 2650 0 2938 0 3091 -13 
L 3091 153 
C 2682 153 2656 178 2656 428 
L 2656 1658 
C 2656 2247 3014 2688 3462 2688 
C 3936 2688 3987 2266 3987 1958 
L 3987 428 
C 3987 184 3962 153 3552 153 
L 3552 -13 
C 3706 0 3987 0 4154 0 
C 4320 0 4608 0 4762 -13 
L 4762 153 
C 4352 153 4326 178 4326 428 
L 4326 1933 
z
" transform="scale(0.015625)"/>
      <path id="CMR17-65" d="M 2438 1472 
C 2464 1498 2464 1511 2464 1576 
C 2464 2238 2118 2816 1389 2816 
C 710 2816 173 2169 173 1383 
C 173 551 781 -64 1459 -64 
C 2176 -64 2458 607 2458 740 
C 2458 784 2419 784 2406 784 
C 2362 784 2355 771 2330 696 
C 2189 265 1837 51 1504 51 
C 1229 51 954 203 781 480 
C 582 803 582 1176 582 1472 
L 2438 1472 
z
M 589 1568 
C 634 2505 1126 2714 1382 2714 
C 1818 2714 2112 2297 2118 1568 
L 589 1568 
z
" transform="scale(0.015625)"/>
     </defs>
     <use xlink:href="#CMR17-54" transform="scale(0.996264)"/>
     <use xlink:href="#CMR17-69" transform="translate(66.509881 0) scale(0.996264)"/>
     <use xlink:href="#CMR17-6d" transform="translate(91.380939 0) scale(0.996264)"/>
     <use xlink:href="#CMR17-65" transform="translate(168.300529 0) scale(0.996264)"/>
    </g>
   </g>
   <g id="legend_1">
    <g id="line2d_47">
     <path d="M 948.117672 197.198434 
L 962.117672 197.198434 
L 976.117672 197.198434 
" style="fill: none; stroke: #393b79; stroke-width: 2; stroke-linecap: round"/>
    </g>
    <g id="text_21">
     <!-- t = 0.00 -->
     <g style="fill: #262626" transform="translate(987.317672 202.098434) scale(0.14 -0.14)">
      <defs>
       <path id="CMR17-74" d="M 966 2560 
L 1862 2560 
L 1862 2725 
L 966 2725 
L 966 3904 
L 851 3904 
C 838 3245 614 2668 70 2668 
L 70 2560 
L 627 2560 
L 627 771 
C 627 650 627 -64 1370 -64 
C 1747 -64 1965 306 1965 777 
L 1965 1140 
L 1850 1140 
L 1850 783 
C 1850 344 1677 51 1408 51 
C 1222 51 966 178 966 758 
L 966 2560 
z
" transform="scale(0.015625)"/>
       <path id="CMR17-3d" d="M 4115 2017 
C 4211 2017 4307 2017 4307 2125 
C 4307 2240 4198 2240 4090 2240 
L 512 2240 
C 403 2240 294 2240 294 2125 
C 294 2017 390 2017 486 2017 
L 4115 2017 
z
M 4090 896 
C 4198 896 4307 896 4307 1011 
C 4307 1119 4211 1119 4115 1119 
L 486 1119 
C 390 1119 294 1119 294 1011 
C 294 896 403 896 512 896 
L 4090 896 
z
" transform="scale(0.015625)"/>
       <path id="CMR17-2e" d="M 1062 261 
C 1062 420 934 522 800 522 
C 672 522 538 420 538 261 
C 538 102 666 0 800 0 
C 928 0 1062 102 1062 261 
z
" transform="scale(0.015625)"/>
      </defs>
      <use xlink:href="#CMR17-74" transform="scale(0.996264)"/>
      <use xlink:href="#CMR17-3d" transform="translate(65.356734 0) scale(0.996264)"/>
      <use xlink:href="#CMR17-30" transform="translate(167.147489 0) scale(0.996264)"/>
      <use xlink:href="#CMR17-2e" transform="translate(212.837966 0) scale(0.996264)"/>
      <use xlink:href="#CMR17-30" transform="translate(237.709025 0) scale(0.996264)"/>
      <use xlink:href="#CMR17-30" transform="translate(283.399502 0) scale(0.996264)"/>
     </g>
    </g>
    <g id="line2d_48">
     <path d="M 948.117672 216.710462 
L 962.117672 216.710462 
L 976.117672 216.710462 
" style="fill: none; stroke: #6b6ecf; stroke-width: 2; stroke-linecap: round"/>
    </g>
    <g id="text_22">
     <!-- t = 10.00 -->
     <g style="fill: #262626" transform="translate(987.317672 221.610462) scale(0.14 -0.14)">
      <use xlink:href="#CMR17-74" transform="scale(0.996264)"/>
      <use xlink:href="#CMR17-3d" transform="translate(65.356734 0) scale(0.996264)"/>
      <use xlink:href="#CMR17-31" transform="translate(167.147489 0) scale(0.996264)"/>
      <use xlink:href="#CMR17-30" transform="translate(212.837966 0) scale(0.996264)"/>
      <use xlink:href="#CMR17-2e" transform="translate(258.528443 0) scale(0.996264)"/>
      <use xlink:href="#CMR17-30" transform="translate(283.399502 0) scale(0.996264)"/>
      <use xlink:href="#CMR17-30" transform="translate(329.089979 0) scale(0.996264)"/>
     </g>
    </g>
    <g id="line2d_49">
     <path d="M 948.117672 236.222491 
L 962.117672 236.222491 
L 976.117672 236.222491 
" style="fill: none; stroke: #637939; stroke-width: 2; stroke-linecap: round"/>
    </g>
    <g id="text_23">
     <!-- t = 50.00 -->
     <g style="fill: #262626" transform="translate(987.317672 241.122491) scale(0.14 -0.14)">
      <use xlink:href="#CMR17-74" transform="scale(0.996264)"/>
      <use xlink:href="#CMR17-3d" transform="translate(65.356734 0) scale(0.996264)"/>
      <use xlink:href="#CMR17-35" transform="translate(167.147489 0) scale(0.996264)"/>
      <use xlink:href="#CMR17-30" transform="translate(212.837966 0) scale(0.996264)"/>
      <use xlink:href="#CMR17-2e" transform="translate(258.528443 0) scale(0.996264)"/>
      <use xlink:href="#CMR17-30" transform="translate(283.399502 0) scale(0.996264)"/>
      <use xlink:href="#CMR17-30" transform="translate(329.089979 0) scale(0.996264)"/>
     </g>
    </g>
    <g id="line2d_50">
     <path d="M 948.117672 255.734519 
L 962.117672 255.734519 
L 976.117672 255.734519 
" style="fill: none; stroke: #b5cf6b; stroke-width: 2; stroke-linecap: round"/>
    </g>
    <g id="text_24">
     <!-- t = 100.00 -->
     <g style="fill: #262626" transform="translate(987.317672 260.634519) scale(0.14 -0.14)">
      <use xlink:href="#CMR17-74" transform="scale(0.996264)"/>
      <use xlink:href="#CMR17-3d" transform="translate(65.356734 0) scale(0.996264)"/>
      <use xlink:href="#CMR17-31" transform="translate(167.147489 0) scale(0.996264)"/>
      <use xlink:href="#CMR17-30" transform="translate(212.837966 0) scale(0.996264)"/>
      <use xlink:href="#CMR17-30" transform="translate(258.528443 0) scale(0.996264)"/>
      <use xlink:href="#CMR17-2e" transform="translate(304.21892 0) scale(0.996264)"/>
      <use xlink:href="#CMR17-30" transform="translate(329.089979 0) scale(0.996264)"/>
      <use xlink:href="#CMR17-30" transform="translate(374.780456 0) scale(0.996264)"/>
     </g>
    </g>
    <g id="line2d_51">
     <path d="M 948.117672 275.246547 
L 962.117672 275.246547 
L 976.117672 275.246547 
" style="fill: none; stroke: #8c6d31; stroke-width: 2; stroke-linecap: round"/>
    </g>
    <g id="text_25">
     <!-- t = 250.00 -->
     <g style="fill: #262626" transform="translate(987.317672 280.146547) scale(0.14 -0.14)">
      <use xlink:href="#CMR17-74" transform="scale(0.996264)"/>
      <use xlink:href="#CMR17-3d" transform="translate(65.356734 0) scale(0.996264)"/>
      <use xlink:href="#CMR17-32" transform="translate(167.147489 0) scale(0.996264)"/>
      <use xlink:href="#CMR17-35" transform="translate(212.837966 0) scale(0.996264)"/>
      <use xlink:href="#CMR17-30" transform="translate(258.528443 0) scale(0.996264)"/>
      <use xlink:href="#CMR17-2e" transform="translate(304.21892 0) scale(0.996264)"/>
      <use xlink:href="#CMR17-30" transform="translate(329.089979 0) scale(0.996264)"/>
      <use xlink:href="#CMR17-30" transform="translate(374.780456 0) scale(0.996264)"/>
     </g>
    </g>
    <g id="line2d_52">
     <path d="M 948.117672 294.758576 
L 962.117672 294.758576 
L 976.117672 294.758576 
" style="fill: none; stroke: #e7cb94; stroke-width: 2; stroke-linecap: round"/>
    </g>
    <g id="text_26">
     <!-- t = 500.00 -->
     <g style="fill: #262626" transform="translate(987.317672 299.658576) scale(0.14 -0.14)">
      <use xlink:href="#CMR17-74" transform="scale(0.996264)"/>
      <use xlink:href="#CMR17-3d" transform="translate(65.356734 0) scale(0.996264)"/>
      <use xlink:href="#CMR17-35" transform="translate(167.147489 0) scale(0.996264)"/>
      <use xlink:href="#CMR17-30" transform="translate(212.837966 0) scale(0.996264)"/>
      <use xlink:href="#CMR17-30" transform="translate(258.528443 0) scale(0.996264)"/>
      <use xlink:href="#CMR17-2e" transform="translate(304.21892 0) scale(0.996264)"/>
      <use xlink:href="#CMR17-30" transform="translate(329.089979 0) scale(0.996264)"/>
      <use xlink:href="#CMR17-30" transform="translate(374.780456 0) scale(0.996264)"/>
     </g>
    </g>
    <g id="line2d_53">
     <path d="M 948.117672 314.270604 
L 962.117672 314.270604 
L 976.117672 314.270604 
" style="fill: none; stroke: #ad494a; stroke-width: 2; stroke-linecap: round"/>
    </g>
    <g id="text_27">
     <!-- t = 750.00 -->
     <g style="fill: #262626" transform="translate(987.317672 319.170604) scale(0.14 -0.14)">
      <use xlink:href="#CMR17-74" transform="scale(0.996264)"/>
      <use xlink:href="#CMR17-3d" transform="translate(65.356734 0) scale(0.996264)"/>
      <use xlink:href="#CMR17-37" transform="translate(167.147489 0) scale(0.996264)"/>
      <use xlink:href="#CMR17-35" transform="translate(212.837966 0) scale(0.996264)"/>
      <use xlink:href="#CMR17-30" transform="translate(258.528443 0) scale(0.996264)"/>
      <use xlink:href="#CMR17-2e" transform="translate(304.21892 0) scale(0.996264)"/>
      <use xlink:href="#CMR17-30" transform="translate(329.089979 0) scale(0.996264)"/>
      <use xlink:href="#CMR17-30" transform="translate(374.780456 0) scale(0.996264)"/>
     </g>
    </g>
    <g id="line2d_54">
     <path d="M 948.117672 333.782633 
L 962.117672 333.782633 
L 976.117672 333.782633 
" style="fill: none; stroke: #e7969c; stroke-width: 2; stroke-linecap: round"/>
    </g>
    <g id="text_28">
     <!-- t = 1000.00 -->
     <g style="fill: #262626" transform="translate(987.317672 338.682633) scale(0.14 -0.14)">
      <use xlink:href="#CMR17-74" transform="scale(0.996264)"/>
      <use xlink:href="#CMR17-3d" transform="translate(65.356734 0) scale(0.996264)"/>
      <use xlink:href="#CMR17-31" transform="translate(167.147489 0) scale(0.996264)"/>
      <use xlink:href="#CMR17-30" transform="translate(212.837966 0) scale(0.996264)"/>
      <use xlink:href="#CMR17-30" transform="translate(258.528443 0) scale(0.996264)"/>
      <use xlink:href="#CMR17-30" transform="translate(304.21892 0) scale(0.996264)"/>
      <use xlink:href="#CMR17-2e" transform="translate(349.909397 0) scale(0.996264)"/>
      <use xlink:href="#CMR17-30" transform="translate(374.780456 0) scale(0.996264)"/>
      <use xlink:href="#CMR17-30" transform="translate(420.470933 0) scale(0.996264)"/>
     </g>
    </g>
    <g id="line2d_55">
     <path d="M 948.117672 353.294661 
L 962.117672 353.294661 
L 976.117672 353.294661 
" style="fill: none; stroke: #a55194; stroke-width: 2; stroke-linecap: round"/>
    </g>
    <g id="text_29">
     <!-- t = 1250.00 -->
     <g style="fill: #262626" transform="translate(987.317672 358.194661) scale(0.14 -0.14)">
      <use xlink:href="#CMR17-74" transform="scale(0.996264)"/>
      <use xlink:href="#CMR17-3d" transform="translate(65.356734 0) scale(0.996264)"/>
      <use xlink:href="#CMR17-31" transform="translate(167.147489 0) scale(0.996264)"/>
      <use xlink:href="#CMR17-32" transform="translate(212.837966 0) scale(0.996264)"/>
      <use xlink:href="#CMR17-35" transform="translate(258.528443 0) scale(0.996264)"/>
      <use xlink:href="#CMR17-30" transform="translate(304.21892 0) scale(0.996264)"/>
      <use xlink:href="#CMR17-2e" transform="translate(349.909397 0) scale(0.996264)"/>
      <use xlink:href="#CMR17-30" transform="translate(374.780456 0) scale(0.996264)"/>
      <use xlink:href="#CMR17-30" transform="translate(420.470933 0) scale(0.996264)"/>
     </g>
    </g>
    <g id="line2d_56">
     <path d="M 948.117672 372.806689 
L 962.117672 372.806689 
L 976.117672 372.806689 
" style="fill: none; stroke: #de9ed6; stroke-width: 2; stroke-linecap: round"/>
    </g>
    <g id="text_30">
     <!-- t = 1500.00 -->
     <g style="fill: #262626" transform="translate(987.317672 377.706689) scale(0.14 -0.14)">
      <use xlink:href="#CMR17-74" transform="scale(0.996264)"/>
      <use xlink:href="#CMR17-3d" transform="translate(65.356734 0) scale(0.996264)"/>
      <use xlink:href="#CMR17-31" transform="translate(167.147489 0) scale(0.996264)"/>
      <use xlink:href="#CMR17-35" transform="translate(212.837966 0) scale(0.996264)"/>
      <use xlink:href="#CMR17-30" transform="translate(258.528443 0) scale(0.996264)"/>
      <use xlink:href="#CMR17-30" transform="translate(304.21892 0) scale(0.996264)"/>
      <use xlink:href="#CMR17-2e" transform="translate(349.909397 0) scale(0.996264)"/>
      <use xlink:href="#CMR17-30" transform="translate(374.780456 0) scale(0.996264)"/>
      <use xlink:href="#CMR17-30" transform="translate(420.470933 0) scale(0.996264)"/>
     </g>
    </g>
   </g>
  </g>
  <g id="text_31">
   <!-- permeability -->
   <g style="fill: #262626" transform="translate(492.111452 24.803515) scale(0.192 -0.192)">
    <defs>
     <path id="CMR17-70" d="M 1408 -1063 
C 998 -1063 973 -1037 973 -789 
L 973 402 
C 1158 134 1427 -38 1766 -38 
C 2406 -38 3053 523 3053 1388 
C 3053 2191 2496 2802 1837 2802 
C 1453 2802 1139 2592 960 2338 
L 960 2802 
L 198 2732 
L 198 2567 
C 576 2567 634 2528 634 2223 
L 634 -789 
C 634 -1031 608 -1063 198 -1063 
L 198 -1228 
C 352 -1216 634 -1216 800 -1216 
C 966 -1216 1254 -1216 1408 -1228 
L 1408 -1063 
z
M 973 2012 
C 973 2102 973 2235 1222 2471 
C 1254 2497 1472 2688 1792 2688 
C 2259 2688 2643 2108 2643 1382 
C 2643 656 2234 64 1728 64 
C 1498 64 1248 172 1056 472 
C 973 612 973 650 973 752 
L 973 2012 
z
" transform="scale(0.015625)"/>
     <path id="CMR17-72" d="M 960 1497 
C 960 2112 1222 2688 1702 2688 
C 1747 2688 1792 2682 1837 2662 
C 1837 2662 1696 2617 1696 2452 
C 1696 2298 1818 2234 1914 2234 
C 1990 2234 2131 2279 2131 2458 
C 2131 2663 1926 2790 1709 2790 
C 1222 2790 1011 2317 947 2093 
L 941 2093 
L 941 2790 
L 198 2720 
L 198 2554 
C 576 2554 634 2515 634 2208 
L 634 428 
C 634 184 608 153 198 153 
L 198 -13 
C 352 0 646 0 813 0 
C 998 0 1325 0 1498 -13 
L 1498 153 
C 1037 153 960 153 960 440 
L 960 1497 
z
" transform="scale(0.015625)"/>
     <path id="CMR17-61" d="M 2304 1653 
C 2304 2072 2304 2294 2035 2543 
C 1798 2752 1523 2816 1306 2816 
C 800 2816 435 2407 435 1971 
C 435 1728 627 1728 666 1728 
C 749 1728 896 1778 896 1954 
C 896 2112 774 2181 666 2181 
C 640 2181 608 2174 589 2168 
C 723 2592 1069 2714 1293 2714 
C 1613 2714 1965 2429 1965 1885 
L 1965 1600 
C 1587 1600 1133 1549 774 1357 
C 371 1133 256 813 256 570 
C 256 77 832 -64 1171 -64 
C 1523 -64 1850 139 1990 511 
C 2003 233 2182 -18 2464 -18 
C 2598 -18 2938 70 2938 567 
L 2938 920 
L 2822 920 
L 2822 562 
C 2822 178 2650 128 2566 128 
C 2304 128 2304 458 2304 738 
L 2304 1653 
z
M 1965 870 
C 1965 317 1568 38 1216 38 
C 896 38 646 275 646 570 
C 646 761 730 1100 1101 1305 
C 1408 1478 1760 1504 1965 1504 
L 1965 870 
z
" transform="scale(0.015625)"/>
     <path id="CMR17-62" d="M 960 4396 
L 198 4326 
L 198 4160 
C 576 4160 634 4122 634 3817 
L 634 -13 
L 749 -13 
L 934 441 
C 1120 141 1395 -64 1766 -64 
C 2406 -64 3053 500 3053 1370 
C 3053 2188 2477 2790 1830 2790 
C 1434 2790 1152 2579 960 2330 
L 960 4396 
z
M 973 2004 
C 973 2118 973 2138 1062 2272 
C 1312 2657 1670 2688 1792 2688 
C 1984 2688 2643 2585 2643 1376 
C 2643 108 1888 38 1734 38 
C 1536 38 1248 114 1043 486 
C 973 608 973 621 973 735 
L 973 2004 
z
" transform="scale(0.015625)"/>
     <path id="CMR17-6c" d="M 979 4396 
L 218 4326 
L 218 4160 
C 595 4160 653 4122 653 3817 
L 653 426 
C 653 184 627 153 218 153 
L 218 -13 
C 371 0 653 0 813 0 
C 979 0 1261 0 1414 -13 
L 1414 153 
C 1005 153 979 178 979 426 
L 979 4396 
z
" transform="scale(0.015625)"/>
     <path id="CMR17-79" d="M 2496 2197 
C 2656 2586 2944 2586 3034 2586 
L 3034 2752 
C 2912 2752 2752 2752 2630 2752 
C 2496 2752 2285 2752 2157 2758 
L 2157 2592 
C 2400 2573 2406 2394 2406 2343 
C 2406 2280 2394 2248 2362 2171 
L 1664 449 
L 902 2306 
C 870 2382 870 2426 870 2433 
C 870 2573 1018 2586 1171 2586 
L 1171 2758 
C 1018 2752 742 2752 582 2752 
C 410 2752 205 2752 64 2758 
L 64 2586 
C 410 2586 448 2554 531 2350 
L 1485 15 
C 1197 -738 1030 -1178 627 -1178 
C 557 -1178 397 -1159 282 -1044 
C 429 -1031 493 -942 493 -833 
C 493 -725 416 -629 288 -629 
C 147 -629 77 -725 77 -840 
C 77 -1095 339 -1280 627 -1280 
C 998 -1280 1229 -922 1357 -604 
L 2496 2197 
z
" transform="scale(0.015625)"/>
    </defs>
    <use xlink:href="#CMR17-70" transform="scale(0.996264)"/>
    <use xlink:href="#CMR17-65" transform="translate(53.497809 0) scale(0.996264)"/>
    <use xlink:href="#CMR17-72" transform="translate(93.983469 0) scale(0.996264)"/>
    <use xlink:href="#CMR17-6d" transform="translate(129.264237 0) scale(0.996264)"/>
    <use xlink:href="#CMR17-65" transform="translate(206.183827 0) scale(0.996264)"/>
    <use xlink:href="#CMR17-61" transform="translate(246.669487 0) scale(0.996264)"/>
    <use xlink:href="#CMR17-62" transform="translate(292.359964 0) scale(0.996264)"/>
    <use xlink:href="#CMR17-69" transform="translate(343.255334 0) scale(0.996264)"/>
    <use xlink:href="#CMR17-6c" transform="translate(368.126392 0) scale(0.996264)"/>
    <use xlink:href="#CMR17-69" transform="translate(392.997451 0) scale(0.996264)"/>
    <use xlink:href="#CMR17-74" transform="translate(417.868509 0) scale(0.996264)"/>
    <use xlink:href="#CMR17-79" transform="translate(450.546823 0) scale(0.996264)"/>
   </g>
  </g>
 </g>
 <defs>
  <clipPath id="p01bd0b1d39">
   <rect x="48.559071" y="51.564121" width="886.958601" height="469.58891"/>
  </clipPath>
 </defs>
</svg>
