<?xml version="1.0" encoding="utf-8" standalone="no"?>
<!DOCTYPE svg PUBLIC "-//W3C//DTD SVG 1.1//EN"
  "http://www.w3.org/Graphics/SVG/1.1/DTD/svg11.dtd">
<svg xmlns:xlink="http://www.w3.org/1999/xlink" width="1080pt" height="576pt" viewBox="0 0 1080 576" xmlns="http://www.w3.org/2000/svg" version="1.1">
 <metadata>
  <rdf:RDF xmlns:dc="http://purl.org/dc/elements/1.1/" xmlns:cc="http://creativecommons.org/ns#" xmlns:rdf="http://www.w3.org/1999/02/22-rdf-syntax-ns#">
   <cc:Work>
    <dc:type rdf:resource="http://purl.org/dc/dcmitype/StillImage"/>
    <dc:date>2024-06-28T11:51:52.319269</dc:date>
    <dc:format>image/svg+xml</dc:format>
    <dc:creator>
     <cc:Agent>
      <dc:title>Matplotlib v3.9.0, https://matplotlib.org/</dc:title>
     </cc:Agent>
    </dc:creator>
   </cc:Work>
  </rdf:RDF>
 </metadata>
 <defs>
  <style type="text/css">*{stroke-linejoin: round; stroke-linecap: butt}</style>
 </defs>
 <g id="figure_1">
  <g id="patch_1">
   <path d="M 0 576 
L 1080 576 
L 1080 0 
L 0 0 
z
" style="fill: #ffffff"/>
  </g>
  <g id="axes_1">
   <g id="patch_2">
    <path d="M 48.559071 521.153031 
L 935.517672 521.153031 
L 935.517672 51.564121 
L 48.559071 51.564121 
z
" style="fill: #eaeaf2"/>
   </g>
   <g id="matplotlib.axis_1">
    <g id="xtick_1">
     <g id="line2d_1">
      <path d="M 48.559071 521.153031 
L 48.559071 51.564121 
" clip-path="url(#p9a35c1d63a)" style="fill: none; stroke: #ffffff; stroke-linecap: round"/>
     </g>
     <g id="line2d_2"/>
     <g id="text_1">
      <!-- $\mathdefault{0.00}$ -->
      <g style="fill: #262626" transform="translate(36.419535 537.838907) scale(0.14 -0.14)">
       <defs>
        <path id="CMR17-30" d="M 2688 2025 
C 2688 2416 2682 3080 2413 3591 
C 2176 4039 1798 4198 1466 4198 
C 1158 4198 768 4058 525 3597 
C 269 3118 243 2524 243 2025 
C 243 1661 250 1106 448 619 
C 723 -39 1216 -128 1466 -128 
C 1760 -128 2208 -7 2470 600 
C 2662 1042 2688 1559 2688 2025 
z
M 1466 -26 
C 1056 -26 813 325 723 812 
C 653 1188 653 1738 653 2096 
C 653 2588 653 2997 736 3387 
C 858 3929 1216 4096 1466 4096 
C 1728 4096 2067 3923 2189 3400 
C 2272 3036 2278 2607 2278 2096 
C 2278 1680 2278 1169 2202 792 
C 2067 95 1690 -26 1466 -26 
z
" transform="scale(0.015625)"/>
        <path id="CMMI12-3a" d="M 1178 307 
C 1178 492 1024 619 870 619 
C 685 619 557 466 557 313 
C 557 128 710 0 864 0 
C 1050 0 1178 153 1178 307 
z
" transform="scale(0.015625)"/>
       </defs>
       <use xlink:href="#CMR17-30" transform="scale(0.996264)"/>
       <use xlink:href="#CMMI12-3a" transform="translate(45.690477 0) scale(0.996264)"/>
       <use xlink:href="#CMR17-30" transform="translate(72.787654 0) scale(0.996264)"/>
       <use xlink:href="#CMR17-30" transform="translate(118.478131 0) scale(0.996264)"/>
      </g>
     </g>
    </g>
    <g id="xtick_2">
     <g id="line2d_3">
      <path d="M 154.14938 521.153031 
L 154.14938 51.564121 
" clip-path="url(#p9a35c1d63a)" style="fill: none; stroke: #ffffff; stroke-linecap: round"/>
     </g>
     <g id="line2d_4"/>
     <g id="text_2">
      <!-- $\mathdefault{0.25}$ -->
      <g style="fill: #262626" transform="translate(142.009845 537.838907) scale(0.14 -0.14)">
       <defs>
        <path id="CMR17-32" d="M 2669 989 
L 2554 989 
C 2490 536 2438 459 2413 420 
C 2381 369 1920 369 1830 369 
L 602 369 
C 832 619 1280 1072 1824 1597 
C 2214 1967 2669 2402 2669 3035 
C 2669 3790 2067 4224 1395 4224 
C 691 4224 262 3604 262 3030 
C 262 2780 448 2748 525 2748 
C 589 2748 781 2787 781 3010 
C 781 3207 614 3264 525 3264 
C 486 3264 448 3258 422 3245 
C 544 3790 915 4058 1306 4058 
C 1862 4058 2227 3617 2227 3035 
C 2227 2479 1901 2000 1536 1584 
L 262 146 
L 262 0 
L 2515 0 
L 2669 989 
z
" transform="scale(0.015625)"/>
        <path id="CMR17-35" d="M 730 3692 
C 794 3666 1056 3584 1325 3584 
C 1920 3584 2246 3911 2432 4100 
C 2432 4157 2432 4192 2394 4192 
C 2387 4192 2374 4192 2323 4163 
C 2099 4058 1837 3973 1517 3973 
C 1325 3973 1037 3999 723 4139 
C 653 4171 640 4171 634 4171 
C 602 4171 595 4164 595 4037 
L 595 2203 
C 595 2089 595 2057 659 2057 
C 691 2057 704 2070 736 2114 
C 941 2401 1222 2522 1542 2522 
C 1766 2522 2246 2382 2246 1289 
C 2246 1085 2246 715 2054 421 
C 1894 159 1645 25 1370 25 
C 947 25 518 320 403 814 
C 429 807 480 795 506 795 
C 589 795 749 840 749 1038 
C 749 1210 627 1280 506 1280 
C 358 1280 262 1190 262 1011 
C 262 454 704 -128 1382 -128 
C 2042 -128 2669 440 2669 1264 
C 2669 2030 2170 2624 1549 2624 
C 1222 2624 947 2503 730 2274 
L 730 3692 
z
" transform="scale(0.015625)"/>
       </defs>
       <use xlink:href="#CMR17-30" transform="scale(0.996264)"/>
       <use xlink:href="#CMMI12-3a" transform="translate(45.690477 0) scale(0.996264)"/>
       <use xlink:href="#CMR17-32" transform="translate(72.787654 0) scale(0.996264)"/>
       <use xlink:href="#CMR17-35" transform="translate(118.478131 0) scale(0.996264)"/>
      </g>
     </g>
    </g>
    <g id="xtick_3">
     <g id="line2d_5">
      <path d="M 259.73969 521.153031 
L 259.73969 51.564121 
" clip-path="url(#p9a35c1d63a)" style="fill: none; stroke: #ffffff; stroke-linecap: round"/>
     </g>
     <g id="line2d_6"/>
     <g id="text_3">
      <!-- $\mathdefault{0.50}$ -->
      <g style="fill: #262626" transform="translate(247.600155 537.838907) scale(0.14 -0.14)">
       <use xlink:href="#CMR17-30" transform="scale(0.996264)"/>
       <use xlink:href="#CMMI12-3a" transform="translate(45.690477 0) scale(0.996264)"/>
       <use xlink:href="#CMR17-35" transform="translate(72.787654 0) scale(0.996264)"/>
       <use xlink:href="#CMR17-30" transform="translate(118.478131 0) scale(0.996264)"/>
      </g>
     </g>
    </g>
    <g id="xtick_4">
     <g id="line2d_7">
      <path d="M 365.33 521.153031 
L 365.33 51.564121 
" clip-path="url(#p9a35c1d63a)" style="fill: none; stroke: #ffffff; stroke-linecap: round"/>
     </g>
     <g id="line2d_8"/>
     <g id="text_4">
      <!-- $\mathdefault{0.75}$ -->
      <g style="fill: #262626" transform="translate(353.190464 537.838907) scale(0.14 -0.14)">
       <defs>
        <path id="CMR17-37" d="M 2886 3941 
L 2886 4081 
L 1382 4081 
C 634 4081 621 4165 595 4288 
L 480 4288 
L 294 3094 
L 410 3094 
C 429 3215 474 3540 550 3661 
C 589 3712 1062 3712 1171 3712 
L 2579 3712 
L 1869 2661 
C 1395 1954 1069 999 1069 165 
C 1069 89 1069 -128 1299 -128 
C 1530 -128 1530 89 1530 171 
L 1530 465 
C 1530 1508 1709 2196 2003 2636 
L 2886 3941 
z
" transform="scale(0.015625)"/>
       </defs>
       <use xlink:href="#CMR17-30" transform="scale(0.996264)"/>
       <use xlink:href="#CMMI12-3a" transform="translate(45.690477 0) scale(0.996264)"/>
       <use xlink:href="#CMR17-37" transform="translate(72.787654 0) scale(0.996264)"/>
       <use xlink:href="#CMR17-35" transform="translate(118.478131 0) scale(0.996264)"/>
      </g>
     </g>
    </g>
    <g id="xtick_5">
     <g id="line2d_9">
      <path d="M 470.920309 521.153031 
L 470.920309 51.564121 
" clip-path="url(#p9a35c1d63a)" style="fill: none; stroke: #ffffff; stroke-linecap: round"/>
     </g>
     <g id="line2d_10"/>
     <g id="text_5">
      <!-- $\mathdefault{1.00}$ -->
      <g style="fill: #262626" transform="translate(458.780774 537.838907) scale(0.14 -0.14)">
       <defs>
        <path id="CMR17-31" d="M 1702 4058 
C 1702 4192 1696 4192 1606 4192 
C 1357 3916 979 3827 621 3827 
C 602 3827 570 3827 563 3808 
C 557 3795 557 3782 557 3648 
C 755 3648 1088 3686 1344 3839 
L 1344 461 
C 1344 236 1331 160 781 160 
L 589 160 
L 589 0 
C 896 0 1216 0 1523 0 
C 1830 0 2150 0 2458 0 
L 2458 160 
L 2266 160 
C 1715 160 1702 230 1702 458 
L 1702 4058 
z
" transform="scale(0.015625)"/>
       </defs>
       <use xlink:href="#CMR17-31" transform="scale(0.996264)"/>
       <use xlink:href="#CMMI12-3a" transform="translate(45.690477 0) scale(0.996264)"/>
       <use xlink:href="#CMR17-30" transform="translate(72.787654 0) scale(0.996264)"/>
       <use xlink:href="#CMR17-30" transform="translate(118.478131 0) scale(0.996264)"/>
      </g>
     </g>
    </g>
    <g id="xtick_6">
     <g id="line2d_11">
      <path d="M 576.510619 521.153031 
L 576.510619 51.564121 
" clip-path="url(#p9a35c1d63a)" style="fill: none; stroke: #ffffff; stroke-linecap: round"/>
     </g>
     <g id="line2d_12"/>
     <g id="text_6">
      <!-- $\mathdefault{1.25}$ -->
      <g style="fill: #262626" transform="translate(564.371084 537.838907) scale(0.14 -0.14)">
       <use xlink:href="#CMR17-31" transform="scale(0.996264)"/>
       <use xlink:href="#CMMI12-3a" transform="translate(45.690477 0) scale(0.996264)"/>
       <use xlink:href="#CMR17-32" transform="translate(72.787654 0) scale(0.996264)"/>
       <use xlink:href="#CMR17-35" transform="translate(118.478131 0) scale(0.996264)"/>
      </g>
     </g>
    </g>
    <g id="xtick_7">
     <g id="line2d_13">
      <path d="M 682.100929 521.153031 
L 682.100929 51.564121 
" clip-path="url(#p9a35c1d63a)" style="fill: none; stroke: #ffffff; stroke-linecap: round"/>
     </g>
     <g id="line2d_14"/>
     <g id="text_7">
      <!-- $\mathdefault{1.50}$ -->
      <g style="fill: #262626" transform="translate(669.961393 537.838907) scale(0.14 -0.14)">
       <use xlink:href="#CMR17-31" transform="scale(0.996264)"/>
       <use xlink:href="#CMMI12-3a" transform="translate(45.690477 0) scale(0.996264)"/>
       <use xlink:href="#CMR17-35" transform="translate(72.787654 0) scale(0.996264)"/>
       <use xlink:href="#CMR17-30" transform="translate(118.478131 0) scale(0.996264)"/>
      </g>
     </g>
    </g>
    <g id="xtick_8">
     <g id="line2d_15">
      <path d="M 787.691238 521.153031 
L 787.691238 51.564121 
" clip-path="url(#p9a35c1d63a)" style="fill: none; stroke: #ffffff; stroke-linecap: round"/>
     </g>
     <g id="line2d_16"/>
     <g id="text_8">
      <!-- $\mathdefault{1.75}$ -->
      <g style="fill: #262626" transform="translate(775.551703 537.838907) scale(0.14 -0.14)">
       <use xlink:href="#CMR17-31" transform="scale(0.996264)"/>
       <use xlink:href="#CMMI12-3a" transform="translate(45.690477 0) scale(0.996264)"/>
       <use xlink:href="#CMR17-37" transform="translate(72.787654 0) scale(0.996264)"/>
       <use xlink:href="#CMR17-35" transform="translate(118.478131 0) scale(0.996264)"/>
      </g>
     </g>
    </g>
    <g id="xtick_9">
     <g id="line2d_17">
      <path d="M 893.281548 521.153031 
L 893.281548 51.564121 
" clip-path="url(#p9a35c1d63a)" style="fill: none; stroke: #ffffff; stroke-linecap: round"/>
     </g>
     <g id="line2d_18"/>
     <g id="text_9">
      <!-- $\mathdefault{2.00}$ -->
      <g style="fill: #262626" transform="translate(881.142013 537.838907) scale(0.14 -0.14)">
       <use xlink:href="#CMR17-32" transform="scale(0.996264)"/>
       <use xlink:href="#CMMI12-3a" transform="translate(45.690477 0) scale(0.996264)"/>
       <use xlink:href="#CMR17-30" transform="translate(72.787654 0) scale(0.996264)"/>
       <use xlink:href="#CMR17-30" transform="translate(118.478131 0) scale(0.996264)"/>
      </g>
     </g>
    </g>
    <g id="text_10">
     <!-- $x$ -->
     <g style="fill: #262626" transform="translate(487.603646 555.620524) scale(0.16 -0.16)">
      <defs>
       <path id="CMMI12-78" d="M 3034 2606 
C 2829 2567 2752 2414 2752 2293 
C 2752 2139 2874 2088 2963 2088 
C 3155 2088 3290 2254 3290 2427 
C 3290 2695 2982 2816 2714 2816 
C 2323 2816 2106 2433 2048 2312 
C 1901 2816 1504 2816 1389 2816 
C 736 2816 390 1980 390 1839 
C 390 1814 416 1782 461 1782 
C 512 1782 525 1820 538 1846 
C 755 2555 1184 2689 1370 2689 
C 1658 2689 1715 2420 1715 2267 
C 1715 2127 1677 1980 1600 1673 
L 1382 798 
C 1286 415 1101 64 762 64 
C 730 64 570 64 435 147 
C 666 192 717 383 717 460 
C 717 588 621 664 499 664 
C 346 664 179 530 179 326 
C 179 57 480 -64 755 -64 
C 1062 -64 1280 179 1414 441 
C 1517 64 1837 -64 2074 -64 
C 2726 -64 3072 773 3072 913 
C 3072 945 3046 971 3008 971 
C 2950 971 2944 939 2925 888 
C 2752 326 2381 64 2093 64 
C 1869 64 1747 230 1747 492 
C 1747 632 1773 734 1875 1156 
L 2099 2024 
C 2195 2408 2413 2689 2707 2689 
C 2720 2689 2899 2689 3034 2606 
z
" transform="scale(0.015625)"/>
      </defs>
      <use xlink:href="#CMMI12-78" transform="scale(0.996264)"/>
     </g>
    </g>
   </g>
   <g id="matplotlib.axis_2">
    <g id="ytick_1">
     <g id="line2d_19">
      <path d="M 48.559071 521.153031 
L 935.517672 521.153031 
" clip-path="url(#p9a35c1d63a)" style="fill: none; stroke: #ffffff; stroke-linecap: round"/>
     </g>
     <g id="line2d_20"/>
     <g id="text_11">
      <!-- $\mathdefault{0.00}$ -->
      <g style="fill: #262626" transform="translate(17.28 525.995969) scale(0.14 -0.14)">
       <use xlink:href="#CMR17-30" transform="scale(0.996264)"/>
       <use xlink:href="#CMMI12-3a" transform="translate(45.690477 0) scale(0.996264)"/>
       <use xlink:href="#CMR17-30" transform="translate(72.787654 0) scale(0.996264)"/>
       <use xlink:href="#CMR17-30" transform="translate(118.478131 0) scale(0.996264)"/>
      </g>
     </g>
    </g>
    <g id="ytick_2">
     <g id="line2d_21">
      <path d="M 48.559071 465.143321 
L 935.517672 465.143321 
" clip-path="url(#p9a35c1d63a)" style="fill: none; stroke: #ffffff; stroke-linecap: round"/>
     </g>
     <g id="line2d_22"/>
     <g id="text_12">
      <!-- $\mathdefault{0.25}$ -->
      <g style="fill: #262626" transform="translate(17.28 469.986259) scale(0.14 -0.14)">
       <use xlink:href="#CMR17-30" transform="scale(0.996264)"/>
       <use xlink:href="#CMMI12-3a" transform="translate(45.690477 0) scale(0.996264)"/>
       <use xlink:href="#CMR17-32" transform="translate(72.787654 0) scale(0.996264)"/>
       <use xlink:href="#CMR17-35" transform="translate(118.478131 0) scale(0.996264)"/>
      </g>
     </g>
    </g>
    <g id="ytick_3">
     <g id="line2d_23">
      <path d="M 48.559071 409.133612 
L 935.517672 409.133612 
" clip-path="url(#p9a35c1d63a)" style="fill: none; stroke: #ffffff; stroke-linecap: round"/>
     </g>
     <g id="line2d_24"/>
     <g id="text_13">
      <!-- $\mathdefault{0.50}$ -->
      <g style="fill: #262626" transform="translate(17.28 413.97655) scale(0.14 -0.14)">
       <use xlink:href="#CMR17-30" transform="scale(0.996264)"/>
       <use xlink:href="#CMMI12-3a" transform="translate(45.690477 0) scale(0.996264)"/>
       <use xlink:href="#CMR17-35" transform="translate(72.787654 0) scale(0.996264)"/>
       <use xlink:href="#CMR17-30" transform="translate(118.478131 0) scale(0.996264)"/>
      </g>
     </g>
    </g>
    <g id="ytick_4">
     <g id="line2d_25">
      <path d="M 48.559071 353.123902 
L 935.517672 353.123902 
" clip-path="url(#p9a35c1d63a)" style="fill: none; stroke: #ffffff; stroke-linecap: round"/>
     </g>
     <g id="line2d_26"/>
     <g id="text_14">
      <!-- $\mathdefault{0.75}$ -->
      <g style="fill: #262626" transform="translate(17.28 357.96684) scale(0.14 -0.14)">
       <use xlink:href="#CMR17-30" transform="scale(0.996264)"/>
       <use xlink:href="#CMMI12-3a" transform="translate(45.690477 0) scale(0.996264)"/>
       <use xlink:href="#CMR17-37" transform="translate(72.787654 0) scale(0.996264)"/>
       <use xlink:href="#CMR17-35" transform="translate(118.478131 0) scale(0.996264)"/>
      </g>
     </g>
    </g>
    <g id="ytick_5">
     <g id="line2d_27">
      <path d="M 48.559071 297.114193 
L 935.517672 297.114193 
" clip-path="url(#p9a35c1d63a)" style="fill: none; stroke: #ffffff; stroke-linecap: round"/>
     </g>
     <g id="line2d_28"/>
     <g id="text_15">
      <!-- $\mathdefault{1.00}$ -->
      <g style="fill: #262626" transform="translate(17.28 301.957131) scale(0.14 -0.14)">
       <use xlink:href="#CMR17-31" transform="scale(0.996264)"/>
       <use xlink:href="#CMMI12-3a" transform="translate(45.690477 0) scale(0.996264)"/>
       <use xlink:href="#CMR17-30" transform="translate(72.787654 0) scale(0.996264)"/>
       <use xlink:href="#CMR17-30" transform="translate(118.478131 0) scale(0.996264)"/>
      </g>
     </g>
    </g>
    <g id="ytick_6">
     <g id="line2d_29">
      <path d="M 48.559071 241.104483 
L 935.517672 241.104483 
" clip-path="url(#p9a35c1d63a)" style="fill: none; stroke: #ffffff; stroke-linecap: round"/>
     </g>
     <g id="line2d_30"/>
     <g id="text_16">
      <!-- $\mathdefault{1.25}$ -->
      <g style="fill: #262626" transform="translate(17.28 245.947422) scale(0.14 -0.14)">
       <use xlink:href="#CMR17-31" transform="scale(0.996264)"/>
       <use xlink:href="#CMMI12-3a" transform="translate(45.690477 0) scale(0.996264)"/>
       <use xlink:href="#CMR17-32" transform="translate(72.787654 0) scale(0.996264)"/>
       <use xlink:href="#CMR17-35" transform="translate(118.478131 0) scale(0.996264)"/>
      </g>
     </g>
    </g>
    <g id="ytick_7">
     <g id="line2d_31">
      <path d="M 48.559071 185.094774 
L 935.517672 185.094774 
" clip-path="url(#p9a35c1d63a)" style="fill: none; stroke: #ffffff; stroke-linecap: round"/>
     </g>
     <g id="line2d_32"/>
     <g id="text_17">
      <!-- $\mathdefault{1.50}$ -->
      <g style="fill: #262626" transform="translate(17.28 189.937712) scale(0.14 -0.14)">
       <use xlink:href="#CMR17-31" transform="scale(0.996264)"/>
       <use xlink:href="#CMMI12-3a" transform="translate(45.690477 0) scale(0.996264)"/>
       <use xlink:href="#CMR17-35" transform="translate(72.787654 0) scale(0.996264)"/>
       <use xlink:href="#CMR17-30" transform="translate(118.478131 0) scale(0.996264)"/>
      </g>
     </g>
    </g>
    <g id="ytick_8">
     <g id="line2d_33">
      <path d="M 48.559071 129.085064 
L 935.517672 129.085064 
" clip-path="url(#p9a35c1d63a)" style="fill: none; stroke: #ffffff; stroke-linecap: round"/>
     </g>
     <g id="line2d_34"/>
     <g id="text_18">
      <!-- $\mathdefault{1.75}$ -->
      <g style="fill: #262626" transform="translate(17.28 133.928003) scale(0.14 -0.14)">
       <use xlink:href="#CMR17-31" transform="scale(0.996264)"/>
       <use xlink:href="#CMMI12-3a" transform="translate(45.690477 0) scale(0.996264)"/>
       <use xlink:href="#CMR17-37" transform="translate(72.787654 0) scale(0.996264)"/>
       <use xlink:href="#CMR17-35" transform="translate(118.478131 0) scale(0.996264)"/>
      </g>
     </g>
    </g>
    <g id="ytick_9">
     <g id="line2d_35">
      <path d="M 48.559071 73.075355 
L 935.517672 73.075355 
" clip-path="url(#p9a35c1d63a)" style="fill: none; stroke: #ffffff; stroke-linecap: round"/>
     </g>
     <g id="line2d_36"/>
     <g id="text_19">
      <!-- $\mathdefault{2.00}$ -->
      <g style="fill: #262626" transform="translate(17.28 77.918293) scale(0.14 -0.14)">
       <use xlink:href="#CMR17-32" transform="scale(0.996264)"/>
       <use xlink:href="#CMMI12-3a" transform="translate(45.690477 0) scale(0.996264)"/>
       <use xlink:href="#CMR17-30" transform="translate(72.787654 0) scale(0.996264)"/>
       <use xlink:href="#CMR17-30" transform="translate(118.478131 0) scale(0.996264)"/>
      </g>
     </g>
    </g>
   </g>
   <g id="line2d_37">
    <path d="M 48.559071 73.075355 
L 57.006295 73.075355 
L 65.45352 73.075355 
L 73.900745 73.075355 
L 82.34797 73.075355 
L 90.795195 73.075355 
L 99.242419 73.075355 
L 107.689644 73.075355 
L 116.136869 73.075355 
L 124.584094 73.075355 
L 133.031318 73.075355 
L 141.478543 73.075355 
L 149.925768 73.075355 
L 158.372993 73.075355 
L 166.820217 73.075355 
L 175.267442 73.075355 
L 183.714667 73.075355 
L 192.161892 73.075355 
L 200.609117 73.075355 
L 209.056341 73.075355 
L 217.503566 73.075355 
L 225.950791 73.075355 
L 234.398016 73.075355 
L 242.84524 73.075355 
L 251.292465 73.075355 
L 259.73969 73.075355 
L 268.186915 73.075355 
L 276.63414 73.075355 
L 285.081364 73.075355 
L 293.528589 73.075355 
L 301.975814 73.075355 
L 310.423039 73.075355 
L 318.870263 73.075355 
L 327.317488 73.075355 
L 335.764713 73.075355 
L 344.211938 73.075355 
L 352.659162 73.075355 
L 361.106387 73.075355 
L 369.553612 73.075355 
L 378.000837 73.075355 
L 386.448062 73.075355 
L 394.895286 73.075355 
L 403.342511 73.075355 
L 411.789736 73.075355 
L 420.236961 73.075355 
L 428.684185 73.075355 
L 437.13141 73.075355 
L 445.578635 73.075355 
L 454.02586 73.075355 
L 462.473085 73.075355 
L 470.920309 73.075355 
L 479.367534 73.075355 
L 487.814759 73.075355 
L 496.261984 73.075355 
L 504.709208 73.075355 
L 513.156433 73.075355 
L 521.603658 73.075355 
L 530.050883 73.075355 
L 538.498107 73.075355 
L 546.945332 73.075355 
L 555.392557 73.075355 
L 563.839782 73.075355 
L 572.287007 73.075355 
L 580.734231 73.075355 
L 589.181456 73.075355 
L 597.628681 73.075355 
L 606.075906 73.075355 
L 614.52313 73.075355 
L 622.970355 73.075355 
L 631.41758 73.075355 
L 639.864805 73.075355 
L 648.31203 73.075355 
L 656.759254 73.075355 
L 665.206479 73.075355 
L 673.653704 73.075355 
L 682.100929 73.075355 
L 690.548153 73.075355 
L 698.995378 73.075355 
L 707.442603 73.075355 
L 715.889828 73.075355 
L 724.337052 73.075355 
L 732.784277 73.075355 
L 741.231502 73.075355 
L 749.678727 73.075355 
L 758.125952 73.075355 
L 766.573176 73.075355 
L 775.020401 73.075355 
L 783.467626 73.075355 
L 791.914851 73.075355 
L 800.362075 73.075355 
L 808.8093 73.075355 
L 817.256525 73.075355 
L 825.70375 73.075355 
L 834.150975 73.075355 
L 842.598199 73.075355 
L 851.045424 73.075355 
L 859.492649 73.075355 
L 867.939874 73.075355 
L 876.387098 73.075355 
L 884.834323 73.075355 
L 893.281548 73.075355 
" clip-path="url(#p9a35c1d63a)" style="fill: none; stroke: #393b79; stroke-width: 2; stroke-linecap: round"/>
   </g>
   <g id="line2d_38">
    <path d="M 48.559071 92.68186 
L 57.006295 92.652715 
L 65.45352 92.623491 
L 73.900745 92.594234 
L 82.34797 92.565018 
L 90.795195 92.535843 
L 99.242419 92.506709 
L 107.689644 92.477615 
L 116.136869 92.448563 
L 124.584094 92.419551 
L 133.031318 92.390581 
L 141.478543 92.361651 
L 149.925768 92.332761 
L 158.372993 92.303912 
L 166.820217 92.275104 
L 175.267442 92.246336 
L 183.714667 92.217608 
L 192.161892 92.188921 
L 200.609117 92.160274 
L 209.056341 92.131667 
L 217.503566 92.103101 
L 225.950791 92.074574 
L 234.398016 92.046088 
L 242.84524 92.017641 
L 251.292465 91.989235 
L 259.73969 91.960868 
L 268.186915 91.932542 
L 276.63414 91.904255 
L 285.081364 91.876008 
L 293.528589 91.8478 
L 301.975814 91.819633 
L 310.423039 91.791505 
L 318.870263 91.763417 
L 327.317488 91.735368 
L 335.764713 91.707358 
L 344.211938 91.679388 
L 352.659162 91.651457 
L 361.106387 91.623566 
L 369.553612 91.595713 
L 378.000837 91.5679 
L 386.448062 91.540126 
L 394.895286 91.512391 
L 403.342511 91.484695 
L 411.789736 91.457038 
L 420.236961 91.42942 
L 428.684185 91.401841 
L 437.13141 91.3743 
L 445.578635 91.346798 
L 454.02586 91.319335 
L 462.473085 91.29191 
L 470.920309 91.264524 
L 479.367534 91.237177 
L 487.814759 91.209867 
L 496.261984 91.182596 
L 504.709208 91.155364 
L 513.156433 91.12817 
L 521.603658 91.101014 
L 530.050883 91.073896 
L 538.498107 91.046816 
L 546.945332 91.019774 
L 555.392557 90.992771 
L 563.839782 90.965805 
L 572.287007 90.938877 
L 580.734231 90.911987 
L 589.181456 90.885135 
L 597.628681 90.858321 
L 606.075906 90.831544 
L 614.52313 90.804805 
L 622.970355 90.778103 
L 631.41758 90.75144 
L 639.864805 90.724691 
L 648.31203 90.697925 
L 656.759254 90.671197 
L 665.206479 90.644506 
L 673.653704 90.617853 
L 682.100929 90.591237 
L 690.548153 90.564659 
L 698.995378 90.538118 
L 707.442603 90.511614 
L 715.889828 90.485148 
L 724.337052 90.458718 
L 732.784277 90.432326 
L 741.231502 90.405971 
L 749.678727 90.379654 
L 758.125952 90.353373 
L 766.573176 90.327129 
L 775.020401 90.300922 
L 783.467626 90.274752 
L 791.914851 90.248618 
L 800.362075 90.222522 
L 808.8093 90.196462 
L 817.256525 90.170439 
L 825.70375 90.144452 
L 834.150975 90.118502 
L 842.598199 90.092588 
L 851.045424 90.066711 
L 859.492649 90.04087 
L 867.939874 90.015066 
L 876.387098 89.989298 
L 884.834323 89.963566 
L 893.281548 89.937871 
" clip-path="url(#p9a35c1d63a)" style="fill: none; stroke: #6b6ecf; stroke-width: 2; stroke-linecap: round"/>
   </g>
   <g id="line2d_39">
    <path d="M 48.559071 159.833272 
L 57.006295 159.742312 
L 65.45352 159.651474 
L 73.900745 159.560762 
L 82.34797 159.470173 
L 90.795195 159.379705 
L 99.242419 159.288984 
L 107.689644 159.198211 
L 116.136869 159.107559 
L 124.584094 159.01703 
L 133.031318 158.926625 
L 141.478543 158.836344 
L 149.925768 158.746185 
L 158.372993 158.656145 
L 166.820217 158.566227 
L 175.267442 158.476428 
L 183.714667 158.386749 
L 192.161892 158.297194 
L 200.609117 158.20776 
L 209.056341 158.118444 
L 217.503566 158.029246 
L 225.950791 157.940167 
L 234.398016 157.851037 
L 242.84524 157.761652 
L 251.292465 157.672386 
L 259.73969 157.583239 
L 268.186915 157.494211 
L 276.63414 157.405306 
L 285.081364 157.316522 
L 293.528589 157.227857 
L 301.975814 157.13931 
L 310.423039 157.050882 
L 318.870263 156.962571 
L 327.317488 156.874383 
L 335.764713 156.786313 
L 344.211938 156.69836 
L 352.659162 156.610524 
L 361.106387 156.522805 
L 369.553612 156.435203 
L 378.000837 156.347408 
L 386.448062 156.259503 
L 394.895286 156.171716 
L 403.342511 156.084049 
L 411.789736 155.9965 
L 420.236961 155.909067 
L 428.684185 155.821754 
L 437.13141 155.734557 
L 445.578635 155.647475 
L 454.02586 155.560511 
L 462.473085 155.473664 
L 470.920309 155.386933 
L 479.367534 155.300316 
L 487.814759 155.213815 
L 496.261984 155.127428 
L 504.709208 155.041158 
L 513.156433 154.955003 
L 521.603658 154.868723 
L 530.050883 154.782269 
L 538.498107 154.695929 
L 546.945332 154.609701 
L 555.392557 154.523588 
L 563.839782 154.437589 
L 572.287007 154.351707 
L 580.734231 154.265939 
L 589.181456 154.180289 
L 597.628681 154.094754 
L 606.075906 154.009331 
L 614.52313 153.924024 
L 622.970355 153.838832 
L 631.41758 153.753753 
L 639.864805 153.668789 
L 648.31203 153.583938 
L 656.759254 153.499199 
L 665.206479 153.414571 
L 673.653704 153.329571 
L 682.100929 153.244647 
L 690.548153 153.159836 
L 698.995378 153.075137 
L 707.442603 152.990549 
L 715.889828 152.906073 
L 724.337052 152.821711 
L 732.784277 152.737461 
L 741.231502 152.653323 
L 749.678727 152.569295 
L 758.125952 152.485378 
L 766.573176 152.401572 
L 775.020401 152.317876 
L 783.467626 152.234291 
L 791.914851 152.150816 
L 800.362075 152.067451 
L 808.8093 151.984195 
L 817.256525 151.90105 
L 825.70375 151.817507 
L 834.150975 151.734072 
L 842.598199 151.65075 
L 851.045424 151.567538 
L 859.492649 151.484438 
L 867.939874 151.40145 
L 876.387098 151.318572 
L 884.834323 151.235805 
L 893.281548 151.153145 
" clip-path="url(#p9a35c1d63a)" style="fill: none; stroke: #637939; stroke-width: 2; stroke-linecap: round"/>
   </g>
   <g id="line2d_40">
    <path d="M 48.559071 224.22619 
L 57.006295 224.082748 
L 65.45352 223.939261 
L 73.900745 223.795475 
L 82.34797 223.65191 
L 90.795195 223.508575 
L 99.242419 223.365456 
L 107.689644 223.222555 
L 116.136869 223.079871 
L 124.584094 222.937403 
L 133.031318 222.794605 
L 141.478543 222.651799 
L 149.925768 222.509207 
L 158.372993 222.366834 
L 166.820217 222.224679 
L 175.267442 222.082738 
L 183.714667 221.941016 
L 192.161892 221.799515 
L 200.609117 221.65748 
L 209.056341 221.515619 
L 217.503566 221.373983 
L 225.950791 221.232562 
L 234.398016 221.091355 
L 242.84524 220.950359 
L 251.292465 220.809574 
L 259.73969 220.668907 
L 268.186915 220.527761 
L 276.63414 220.386831 
L 285.081364 220.246124 
L 293.528589 220.105646 
L 301.975814 219.965387 
L 310.423039 219.825337 
L 318.870263 219.685496 
L 327.317488 219.545719 
L 335.764713 219.405521 
L 344.211938 219.265532 
L 352.659162 219.125751 
L 361.106387 218.986178 
L 369.553612 218.84682 
L 378.000837 218.707681 
L 386.448062 218.568752 
L 394.895286 218.429911 
L 403.342511 218.290636 
L 411.789736 218.15157 
L 420.236961 218.012712 
L 428.684185 217.874065 
L 437.13141 217.735625 
L 445.578635 217.597394 
L 454.02586 217.459379 
L 462.473085 217.321545 
L 470.920309 217.183175 
L 479.367534 217.04501 
L 487.814759 216.90705 
L 496.261984 216.769301 
L 504.709208 216.631762 
L 513.156433 216.494431 
L 521.603658 216.357304 
L 530.050883 216.220383 
L 538.498107 216.083053 
L 546.945332 215.945781 
L 555.392557 215.808711 
L 563.839782 215.671846 
L 572.287007 215.535187 
L 580.734231 215.39873 
L 589.181456 215.262484 
L 597.628681 215.126439 
L 606.075906 214.990236 
L 614.52313 214.853843 
L 622.970355 214.717664 
L 631.41758 214.581688 
L 639.864805 214.445915 
L 648.31203 214.310341 
L 656.759254 214.174971 
L 665.206479 214.039805 
L 673.653704 213.9048 
L 682.100929 213.769272 
L 690.548153 213.633943 
L 698.995378 213.498815 
L 707.442603 213.363897 
L 715.889828 213.229186 
L 724.337052 213.094676 
L 732.784277 212.960365 
L 741.231502 212.826255 
L 749.678727 212.691959 
L 758.125952 212.557488 
L 766.573176 212.423216 
L 775.020401 212.289139 
L 783.467626 212.155262 
L 791.914851 212.021593 
L 800.362075 211.888119 
L 808.8093 211.75484 
L 817.256525 211.621761 
L 825.70375 211.488246 
L 834.150975 211.35482 
L 842.598199 211.221592 
L 851.045424 211.088559 
L 859.492649 210.955724 
L 867.939874 210.823083 
L 876.387098 210.690647 
L 884.834323 210.558409 
L 893.281548 210.426299 
" clip-path="url(#p9a35c1d63a)" style="fill: none; stroke: #b5cf6b; stroke-width: 2; stroke-linecap: round"/>
   </g>
   <g id="line2d_41">
    <path d="M 48.559071 341.766164 
L 57.006295 341.551914 
L 65.45352 341.337511 
L 73.900745 341.123575 
L 82.34797 340.909261 
L 90.795195 340.695356 
L 99.242419 340.481473 
L 107.689644 340.267586 
L 116.136869 340.054106 
L 124.584094 339.84025 
L 133.031318 339.626863 
L 141.478543 339.413368 
L 149.925768 339.200004 
L 158.372993 338.986945 
L 166.820217 338.7736 
L 175.267442 338.560714 
L 183.714667 338.347644 
L 192.161892 338.134792 
L 200.609117 337.922161 
L 209.056341 337.70931 
L 217.503566 337.49693 
L 225.950791 337.28431 
L 234.398016 337.071927 
L 242.84524 336.859778 
L 251.292465 336.647401 
L 259.73969 336.435479 
L 268.186915 336.223343 
L 276.63414 336.011421 
L 285.081364 335.799775 
L 293.528589 335.587858 
L 301.975814 335.37641 
L 310.423039 335.164818 
L 318.870263 334.95337 
L 327.317488 334.742288 
L 335.764713 334.530825 
L 344.211938 334.319785 
L 352.659162 334.108721 
L 361.106387 333.89772 
L 369.553612 333.687148 
L 378.000837 333.476154 
L 386.448062 333.265573 
L 394.895286 333.055124 
L 403.342511 332.844524 
L 411.789736 332.63438 
L 420.236961 332.424007 
L 428.684185 332.21384 
L 437.13141 332.004033 
L 445.578635 331.793836 
L 454.02586 331.584091 
L 462.473085 331.37438 
L 470.920309 331.164612 
L 479.367534 330.955283 
L 487.814759 330.74566 
L 496.261984 330.536308 
L 504.709208 330.327296 
L 513.156433 330.117902 
L 521.603658 329.908944 
L 530.050883 329.700046 
L 538.498107 329.491072 
L 546.945332 329.282521 
L 555.392557 329.073745 
L 563.839782 328.865164 
L 572.287007 328.65702 
L 580.734231 328.448389 
L 589.181456 328.240195 
L 597.628681 328.032212 
L 606.075906 327.823966 
L 614.52313 327.61616 
L 622.970355 327.40833 
L 631.41758 327.200491 
L 639.864805 326.993101 
L 648.31203 326.785464 
L 656.759254 326.577987 
L 665.206479 326.370946 
L 673.653704 326.163475 
L 682.100929 325.956368 
L 690.548153 325.749568 
L 698.995378 325.542412 
L 707.442603 325.335701 
L 715.889828 325.129126 
L 724.337052 324.922341 
L 732.784277 324.715989 
L 741.231502 324.509622 
L 749.678727 324.303197 
L 758.125952 324.097191 
L 766.573176 323.891046 
L 775.020401 323.684972 
L 783.467626 323.479327 
L 791.914851 323.273412 
L 800.362075 323.067697 
L 808.8093 322.862409 
L 817.256525 322.656735 
L 825.70375 322.45136 
L 834.150975 322.246425 
L 842.598199 322.041021 
L 851.045424 321.835989 
L 859.492649 321.63135 
L 867.939874 321.426251 
L 876.387098 321.221564 
L 884.834323 321.017198 
L 893.281548 320.812449 
" clip-path="url(#p9a35c1d63a)" style="fill: none; stroke: #8c6d31; stroke-width: 2; stroke-linecap: round"/>
   </g>
   <g id="line2d_42">
    <path d="M 48.559071 428.005494 
L 57.006295 427.778921 
L 65.45352 427.552242 
L 73.900745 427.325528 
L 82.34797 427.098779 
L 90.795195 426.872015 
L 99.242419 426.645226 
L 107.689644 426.41839 
L 116.136869 426.19145 
L 124.584094 425.964482 
L 133.031318 425.737488 
L 141.478543 425.510478 
L 149.925768 425.283433 
L 158.372993 425.05637 
L 166.820217 424.829263 
L 175.267442 424.602045 
L 183.714667 424.374825 
L 192.161892 424.14758 
L 200.609117 423.92029 
L 209.056341 423.692986 
L 217.503566 423.465654 
L 225.950791 423.238294 
L 234.398016 423.010909 
L 242.84524 422.783474 
L 251.292465 422.555974 
L 259.73969 422.328442 
L 268.186915 422.100884 
L 276.63414 421.873305 
L 285.081364 421.645698 
L 293.528589 421.418073 
L 301.975814 421.190431 
L 310.423039 420.962763 
L 318.870263 420.735076 
L 327.317488 420.50737 
L 335.764713 420.279624 
L 344.211938 420.051834 
L 352.659162 419.824021 
L 361.106387 419.596224 
L 369.553612 419.368346 
L 378.000837 419.14045 
L 386.448062 418.912536 
L 394.895286 418.684606 
L 403.342511 418.45665 
L 411.789736 418.228686 
L 420.236961 418.000692 
L 428.684185 417.772683 
L 437.13141 417.544654 
L 445.578635 417.316608 
L 454.02586 417.088547 
L 462.473085 416.860462 
L 470.920309 416.632374 
L 479.367534 416.404263 
L 487.814759 416.176117 
L 496.261984 415.947978 
L 504.709208 415.71982 
L 513.156433 415.491648 
L 521.603658 415.263451 
L 530.050883 415.035249 
L 538.498107 414.807052 
L 546.945332 414.578821 
L 555.392557 414.350574 
L 563.839782 414.122338 
L 572.287007 413.894082 
L 580.734231 413.665815 
L 589.181456 413.437544 
L 597.628681 413.209263 
L 606.075906 412.980939 
L 614.52313 412.752605 
L 622.970355 412.524269 
L 631.41758 412.295935 
L 639.864805 412.067614 
L 648.31203 411.839269 
L 656.759254 411.610912 
L 665.206479 411.382551 
L 673.653704 411.154192 
L 682.100929 410.925826 
L 690.548153 410.697456 
L 698.995378 410.469097 
L 707.442603 410.240756 
L 715.889828 410.012413 
L 724.337052 409.78407 
L 732.784277 409.555668 
L 741.231502 409.327261 
L 749.678727 409.098858 
L 758.125952 408.870454 
L 766.573176 408.642065 
L 775.020401 408.41368 
L 783.467626 408.18531 
L 791.914851 407.956946 
L 800.362075 407.728616 
L 808.8093 407.500272 
L 817.256525 407.271858 
L 825.70375 407.043452 
L 834.150975 406.815074 
L 842.598199 406.586712 
L 851.045424 406.358359 
L 859.492649 406.130029 
L 867.939874 405.901733 
L 876.387098 405.673438 
L 884.834323 405.445053 
L 893.281548 405.216711 
" clip-path="url(#p9a35c1d63a)" style="fill: none; stroke: #e7cb94; stroke-width: 2; stroke-linecap: round"/>
   </g>
   <g id="line2d_43">
    <path d="M 48.559071 465.618313 
L 57.006295 465.410596 
L 65.45352 465.20268 
L 73.900745 464.994588 
L 82.34797 464.786337 
L 90.795195 464.577892 
L 99.242419 464.369278 
L 107.689644 464.160507 
L 116.136869 463.951566 
L 124.584094 463.742423 
L 133.031318 463.533131 
L 141.478543 463.323688 
L 149.925768 463.114072 
L 158.372993 462.904268 
L 166.820217 462.69431 
L 175.267442 462.484182 
L 183.714667 462.273921 
L 192.161892 462.063483 
L 200.609117 461.852856 
L 209.056341 461.642084 
L 217.503566 461.431158 
L 225.950791 461.220074 
L 234.398016 461.008839 
L 242.84524 460.797447 
L 251.292465 460.585881 
L 259.73969 460.374156 
L 268.186915 460.162276 
L 276.63414 459.950249 
L 285.081364 459.738069 
L 293.528589 459.525743 
L 301.975814 459.313274 
L 310.423039 459.100655 
L 318.870263 458.887893 
L 327.317488 458.674985 
L 335.764713 458.461917 
L 344.211938 458.248689 
L 352.659162 458.035313 
L 361.106387 457.821827 
L 369.553612 457.608172 
L 378.000837 457.394377 
L 386.448062 457.180443 
L 394.895286 456.966372 
L 403.342511 456.752154 
L 411.789736 456.537809 
L 420.236961 456.323319 
L 428.684185 456.108692 
L 437.13141 455.893934 
L 445.578635 455.679042 
L 454.02586 455.464019 
L 462.473085 455.248863 
L 470.920309 455.033559 
L 479.367534 454.818115 
L 487.814759 454.602529 
L 496.261984 454.386837 
L 504.709208 454.171017 
L 513.156433 453.955073 
L 521.603658 453.739006 
L 530.050883 453.522782 
L 538.498107 453.306444 
L 546.945332 453.08997 
L 555.392557 452.873382 
L 563.839782 452.656698 
L 572.287007 452.439865 
L 580.734231 452.222885 
L 589.181456 452.005803 
L 597.628681 451.788615 
L 606.075906 451.571324 
L 614.52313 451.353852 
L 622.970355 451.136287 
L 631.41758 450.918632 
L 639.864805 450.700894 
L 648.31203 450.482959 
L 656.759254 450.264933 
L 665.206479 450.046816 
L 673.653704 449.828569 
L 682.100929 449.610184 
L 690.548153 449.391713 
L 698.995378 449.173148 
L 707.442603 448.954437 
L 715.889828 448.735647 
L 724.337052 448.516765 
L 732.784277 448.297715 
L 741.231502 448.0786 
L 749.678727 447.859384 
L 758.125952 447.640014 
L 766.573176 447.42059 
L 775.020401 447.201037 
L 783.467626 446.98137 
L 791.914851 446.761652 
L 800.362075 446.54177 
L 808.8093 446.321814 
L 817.256525 446.101767 
L 825.70375 445.881589 
L 834.150975 445.661386 
L 842.598199 445.440993 
L 851.045424 445.220564 
L 859.492649 444.999999 
L 867.939874 444.77937 
L 876.387098 444.558634 
L 884.834323 444.337787 
L 893.281548 444.116903 
" clip-path="url(#p9a35c1d63a)" style="fill: none; stroke: #ad494a; stroke-width: 2; stroke-linecap: round"/>
   </g>
   <g id="line2d_44">
    <path d="M 48.559071 485.076285 
L 57.006295 484.891462 
L 65.45352 484.706362 
L 73.900745 484.520969 
L 82.34797 484.335289 
L 90.795195 484.149332 
L 99.242419 483.9631 
L 107.689644 483.776588 
L 116.136869 483.589802 
L 124.584094 483.40274 
L 133.031318 483.215401 
L 141.478543 483.027786 
L 149.925768 482.839902 
L 158.372993 482.651757 
L 166.820217 482.463331 
L 175.267442 482.274623 
L 183.714667 482.085678 
L 192.161892 481.896452 
L 200.609117 481.706954 
L 209.056341 481.517209 
L 217.503566 481.327183 
L 225.950791 481.136914 
L 234.398016 480.946363 
L 242.84524 480.755571 
L 251.292465 480.564503 
L 259.73969 480.373201 
L 268.186915 480.181612 
L 276.63414 479.989795 
L 285.081364 479.797707 
L 293.528589 479.605377 
L 301.975814 479.412812 
L 310.423039 479.219974 
L 318.870263 479.026907 
L 327.317488 478.833601 
L 335.764713 478.640018 
L 344.211938 478.446187 
L 352.659162 478.25212 
L 361.106387 478.057834 
L 369.553612 477.863276 
L 378.000837 477.668483 
L 386.448062 477.47346 
L 394.895286 477.278206 
L 403.342511 477.082708 
L 411.789736 476.886971 
L 420.236961 476.690993 
L 428.684185 476.494784 
L 437.13141 476.298346 
L 445.578635 476.101677 
L 454.02586 475.904779 
L 462.473085 475.707647 
L 470.920309 475.510299 
L 479.367534 475.312715 
L 487.814759 475.114892 
L 496.261984 474.91686 
L 504.709208 474.718602 
L 513.156433 474.520119 
L 521.603658 474.321411 
L 530.050883 474.122485 
L 538.498107 473.923356 
L 546.945332 473.723993 
L 555.392557 473.524405 
L 563.839782 473.324605 
L 572.287007 473.124585 
L 580.734231 472.924355 
L 589.181456 472.72392 
L 597.628681 472.523281 
L 606.075906 472.322401 
L 614.52313 472.121316 
L 622.970355 471.920036 
L 631.41758 471.718567 
L 639.864805 471.516874 
L 648.31203 471.314968 
L 656.759254 471.11287 
L 665.206479 470.910552 
L 673.653704 470.708029 
L 682.100929 470.505321 
L 690.548153 470.302389 
L 698.995378 470.099264 
L 707.442603 469.895979 
L 715.889828 469.692449 
L 724.337052 469.48875 
L 732.784277 469.284844 
L 741.231502 469.080742 
L 749.678727 468.876458 
L 758.125952 468.671957 
L 766.573176 468.467293 
L 775.020401 468.262407 
L 783.467626 468.057365 
L 791.914851 467.852095 
L 800.362075 467.646685 
L 808.8093 467.441043 
L 817.256525 467.235245 
L 825.70375 467.029248 
L 834.150975 466.823075 
L 842.598199 466.616736 
L 851.045424 466.410175 
L 859.492649 466.203468 
L 867.939874 465.996566 
L 876.387098 465.789479 
L 884.834323 465.582243 
L 893.281548 465.374801 
" clip-path="url(#p9a35c1d63a)" style="fill: none; stroke: #e7969c; stroke-width: 2; stroke-linecap: round"/>
   </g>
   <g id="line2d_45">
    <path d="M 48.559071 496.305907 
L 57.006295 496.1423 
L 65.45352 495.978329 
L 73.900745 495.813983 
L 82.34797 495.649265 
L 90.795195 495.484185 
L 99.242419 495.318742 
L 107.689644 495.152932 
L 116.136869 494.986762 
L 124.584094 494.820229 
L 133.031318 494.653344 
L 141.478543 494.486094 
L 149.925768 494.318489 
L 158.372993 494.150536 
L 166.820217 493.982223 
L 175.267442 493.813551 
L 183.714667 493.644543 
L 192.161892 493.475183 
L 200.609117 493.305468 
L 209.056341 493.135413 
L 217.503566 492.965008 
L 225.950791 492.794264 
L 234.398016 492.623175 
L 242.84524 492.45174 
L 251.292465 492.279971 
L 259.73969 492.107864 
L 268.186915 491.935419 
L 276.63414 491.762635 
L 285.081364 491.589516 
L 293.528589 491.416069 
L 301.975814 491.242295 
L 310.423039 491.068192 
L 318.870263 490.893764 
L 327.317488 490.719011 
L 335.764713 490.543926 
L 344.211938 490.368498 
L 352.659162 490.192748 
L 361.106387 490.016702 
L 369.553612 489.840324 
L 378.000837 489.663625 
L 386.448062 489.486605 
L 394.895286 489.309278 
L 403.342511 489.131631 
L 411.789736 488.953672 
L 420.236961 488.775406 
L 428.684185 488.596814 
L 437.13141 488.417928 
L 445.578635 488.238721 
L 454.02586 488.059221 
L 462.473085 487.879395 
L 470.920309 487.699287 
L 479.367534 487.518865 
L 487.814759 487.338127 
L 496.261984 487.157109 
L 504.709208 486.975786 
L 513.156433 486.794158 
L 521.603658 486.612233 
L 530.050883 486.430017 
L 538.498107 486.247522 
L 546.945332 486.06471 
L 555.392557 485.881605 
L 563.839782 485.698222 
L 572.287007 485.514543 
L 580.734231 485.330577 
L 589.181456 485.146326 
L 597.628681 484.961789 
L 606.075906 484.776965 
L 614.52313 484.591857 
L 622.970355 484.406472 
L 631.41758 484.220812 
L 639.864805 484.034886 
L 648.31203 483.848667 
L 656.759254 483.662159 
L 665.206479 483.475376 
L 673.653704 483.288324 
L 682.100929 483.101 
L 690.548153 482.913398 
L 698.995378 482.72552 
L 707.442603 482.537392 
L 715.889828 482.349 
L 724.337052 482.160318 
L 732.784277 481.971381 
L 741.231502 481.782183 
L 749.678727 481.592706 
L 758.125952 481.402982 
L 766.573176 481.212978 
L 775.020401 481.022731 
L 783.467626 480.832212 
L 791.914851 480.641444 
L 800.362075 480.45042 
L 808.8093 480.259141 
L 817.256525 480.067596 
L 825.70375 479.875812 
L 834.150975 479.683769 
L 842.598199 479.491479 
L 851.045424 479.298945 
L 859.492649 479.106142 
L 867.939874 478.913109 
L 876.387098 478.719834 
L 884.834323 478.526293 
L 893.281548 478.332526 
" clip-path="url(#p9a35c1d63a)" style="fill: none; stroke: #a55194; stroke-width: 2; stroke-linecap: round"/>
   </g>
   <g id="line2d_46">
    <path d="M 48.559071 503.300035 
L 57.006295 503.154893 
L 65.45352 503.009317 
L 73.900745 502.863299 
L 82.34797 502.716836 
L 90.795195 502.569943 
L 99.242419 502.422622 
L 107.689644 502.274861 
L 116.136869 502.126676 
L 124.584094 501.978053 
L 133.031318 501.82901 
L 141.478543 501.679544 
L 149.925768 501.529652 
L 158.372993 501.379336 
L 166.820217 501.228602 
L 175.267442 501.077439 
L 183.714667 500.925871 
L 192.161892 500.773884 
L 200.609117 500.621476 
L 209.056341 500.468662 
L 217.503566 500.315434 
L 225.950791 500.161794 
L 234.398016 500.007749 
L 242.84524 499.853293 
L 251.292465 499.698434 
L 259.73969 499.543173 
L 268.186915 499.387503 
L 276.63414 499.231436 
L 285.081364 499.074967 
L 293.528589 498.918106 
L 301.975814 498.760851 
L 310.423039 498.603202 
L 318.870263 498.445164 
L 327.317488 498.286735 
L 335.764713 498.127912 
L 344.211938 497.968686 
L 352.659162 497.809073 
L 361.106387 497.6491 
L 369.553612 497.488724 
L 378.000837 497.327969 
L 386.448062 497.166834 
L 394.895286 497.005324 
L 403.342511 496.843427 
L 411.789736 496.681167 
L 420.236961 496.518524 
L 428.684185 496.355504 
L 437.13141 496.192117 
L 445.578635 496.028359 
L 454.02586 495.864232 
L 462.473085 495.699736 
L 470.920309 495.534881 
L 479.367534 495.369653 
L 487.814759 495.204054 
L 496.261984 495.038104 
L 504.709208 494.871793 
L 513.156433 494.705123 
L 521.603658 494.538093 
L 530.050883 494.3707 
L 538.498107 494.202969 
L 546.945332 494.034875 
L 555.392557 493.866419 
L 563.839782 493.697631 
L 572.287007 493.528479 
L 580.734231 493.358989 
L 589.181456 493.189144 
L 597.628681 493.018962 
L 606.075906 492.84843 
L 614.52313 492.677553 
L 622.970355 492.506343 
L 631.41758 492.334802 
L 639.864805 492.162923 
L 648.31203 491.990696 
L 656.759254 491.818135 
L 665.206479 491.645237 
L 673.653704 491.47201 
L 682.100929 491.298449 
L 690.548153 491.124553 
L 698.995378 490.950334 
L 707.442603 490.775797 
L 715.889828 490.600931 
L 724.337052 490.42574 
L 732.784277 490.250227 
L 741.231502 490.074387 
L 749.678727 489.898224 
L 758.125952 489.721742 
L 766.573176 489.54495 
L 775.020401 489.36783 
L 783.467626 489.1904 
L 791.914851 489.01266 
L 800.362075 488.834605 
L 808.8093 488.65624 
L 817.256525 488.477559 
L 825.70375 488.298577 
L 834.150975 488.119283 
L 842.598199 487.939696 
L 851.045424 487.759783 
L 859.492649 487.579577 
L 867.939874 487.399078 
L 876.387098 487.218259 
L 884.834323 487.03715 
L 893.281548 486.855758 
" clip-path="url(#p9a35c1d63a)" style="fill: none; stroke: #de9ed6; stroke-width: 2; stroke-linecap: round"/>
   </g>
   <g id="patch_3">
    <path d="M 48.559071 521.153031 
L 48.559071 51.564121 
" style="fill: none"/>
   </g>
   <g id="patch_4">
    <path d="M 935.517672 521.153031 
L 935.517672 51.564121 
" style="fill: none"/>
   </g>
   <g id="patch_5">
    <path d="M 48.559071 521.153031 
L 935.517672 521.153031 
" style="fill: none"/>
   </g>
   <g id="patch_6">
    <path d="M 48.559071 51.564121 
L 935.517672 51.564121 
" style="fill: none"/>
   </g>
   <g id="patch_7">
    <path d="M 470.920309 79.554812 
Q 470.920309 283.183535 470.920309 485.135208 
" style="fill: none; stroke: #000000; stroke-width: 1.5; stroke-linecap: round"/>
    <path d="M 474.120309 478.735208 
L 470.920309 485.135208 
L 467.720309 478.735208 
" style="fill: none; stroke: #000000; stroke-width: 1.5; stroke-linecap: round"/>
   </g>
   <g id="text_20">
    <!-- Time -->
    <g style="fill: #262626" transform="translate(492.038371 485.325651) scale(0.18 -0.18)">
     <defs>
      <path id="CMR17-54" d="M 3981 4326 
L 288 4326 
L 179 2918 
L 294 2918 
C 378 3976 467 4160 1453 4160 
C 1568 4160 1754 4160 1805 4154 
C 1926 4135 1926 4058 1926 3912 
L 1926 459 
C 1926 230 1907 160 1376 160 
L 1197 160 
L 1197 0 
C 1504 0 1824 0 2138 0 
C 2451 0 2771 0 3078 0 
L 3078 160 
L 2899 160 
C 2368 160 2349 230 2349 459 
L 2349 3912 
C 2349 4052 2349 4129 2464 4154 
C 2515 4160 2701 4160 2816 4160 
C 3795 4160 3891 3976 3974 2918 
L 4090 2918 
L 3981 4326 
z
" transform="scale(0.015625)"/>
      <path id="CMR17-69" d="M 992 3909 
C 992 4049 877 4170 730 4170 
C 589 4170 467 4056 467 3909 
C 467 3769 582 3648 730 3648 
C 870 3648 992 3763 992 3909 
z
M 243 2706 
L 243 2541 
C 602 2541 653 2502 653 2197 
L 653 427 
C 653 184 627 153 218 153 
L 218 -13 
C 371 0 646 0 806 0 
C 960 0 1222 0 1370 -13 
L 1370 153 
C 992 153 979 191 979 420 
L 979 2776 
L 243 2706 
z
" transform="scale(0.015625)"/>
      <path id="CMR17-6d" d="M 4326 1933 
C 4326 2252 4269 2790 3507 2790 
C 3072 2790 2771 2496 2656 2151 
L 2650 2151 
C 2573 2676 2195 2790 1837 2790 
C 1331 2790 1069 2400 973 2144 
L 966 2144 
L 966 2790 
L 211 2720 
L 211 2554 
C 589 2554 646 2515 646 2208 
L 646 428 
C 646 184 621 153 211 153 
L 211 -13 
C 365 0 646 0 813 0 
C 979 0 1267 0 1421 -13 
L 1421 153 
C 1011 153 986 178 986 428 
L 986 1658 
C 986 2247 1344 2688 1792 2688 
C 2266 2688 2317 2266 2317 1958 
L 2317 428 
C 2317 184 2291 153 1882 153 
L 1882 -13 
C 2035 0 2317 0 2483 0 
C 2650 0 2938 0 3091 -13 
L 3091 153 
C 2682 153 2656 178 2656 428 
L 2656 1658 
C 2656 2247 3014 2688 3462 2688 
C 3936 2688 3987 2266 3987 1958 
L 3987 428 
C 3987 184 3962 153 3552 153 
L 3552 -13 
C 3706 0 3987 0 4154 0 
C 4320 0 4608 0 4762 -13 
L 4762 153 
C 4352 153 4326 178 4326 428 
L 4326 1933 
z
" transform="scale(0.015625)"/>
      <path id="CMR17-65" d="M 2438 1472 
C 2464 1498 2464 1511 2464 1576 
C 2464 2238 2118 2816 1389 2816 
C 710 2816 173 2169 173 1383 
C 173 551 781 -64 1459 -64 
C 2176 -64 2458 607 2458 740 
C 2458 784 2419 784 2406 784 
C 2362 784 2355 771 2330 696 
C 2189 265 1837 51 1504 51 
C 1229 51 954 203 781 480 
C 582 803 582 1176 582 1472 
L 2438 1472 
z
M 589 1568 
C 634 2505 1126 2714 1382 2714 
C 1818 2714 2112 2297 2118 1568 
L 589 1568 
z
" transform="scale(0.015625)"/>
     </defs>
     <use xlink:href="#CMR17-54" transform="scale(0.996264)"/>
     <use xlink:href="#CMR17-69" transform="translate(66.509881 0) scale(0.996264)"/>
     <use xlink:href="#CMR17-6d" transform="translate(91.380939 0) scale(0.996264)"/>
     <use xlink:href="#CMR17-65" transform="translate(168.300529 0) scale(0.996264)"/>
    </g>
   </g>
   <g id="legend_1">
    <g id="line2d_47">
     <path d="M 948.117672 197.198434 
L 962.117672 197.198434 
L 976.117672 197.198434 
" style="fill: none; stroke: #393b79; stroke-width: 2; stroke-linecap: round"/>
    </g>
    <g id="text_21">
     <!-- t = 0.00 -->
     <g style="fill: #262626" transform="translate(987.317672 202.098434) scale(0.14 -0.14)">
      <defs>
       <path id="CMR17-74" d="M 966 2560 
L 1862 2560 
L 1862 2725 
L 966 2725 
L 966 3904 
L 851 3904 
C 838 3245 614 2668 70 2668 
L 70 2560 
L 627 2560 
L 627 771 
C 627 650 627 -64 1370 -64 
C 1747 -64 1965 306 1965 777 
L 1965 1140 
L 1850 1140 
L 1850 783 
C 1850 344 1677 51 1408 51 
C 1222 51 966 178 966 758 
L 966 2560 
z
" transform="scale(0.015625)"/>
       <path id="CMR17-3d" d="M 4115 2017 
C 4211 2017 4307 2017 4307 2125 
C 4307 2240 4198 2240 4090 2240 
L 512 2240 
C 403 2240 294 2240 294 2125 
C 294 2017 390 2017 486 2017 
L 4115 2017 
z
M 4090 896 
C 4198 896 4307 896 4307 1011 
C 4307 1119 4211 1119 4115 1119 
L 486 1119 
C 390 1119 294 1119 294 1011 
C 294 896 403 896 512 896 
L 4090 896 
z
" transform="scale(0.015625)"/>
       <path id="CMR17-2e" d="M 1062 261 
C 1062 420 934 522 800 522 
C 672 522 538 420 538 261 
C 538 102 666 0 800 0 
C 928 0 1062 102 1062 261 
z
" transform="scale(0.015625)"/>
      </defs>
      <use xlink:href="#CMR17-74" transform="scale(0.996264)"/>
      <use xlink:href="#CMR17-3d" transform="translate(65.356734 0) scale(0.996264)"/>
      <use xlink:href="#CMR17-30" transform="translate(167.147489 0) scale(0.996264)"/>
      <use xlink:href="#CMR17-2e" transform="translate(212.837966 0) scale(0.996264)"/>
      <use xlink:href="#CMR17-30" transform="translate(237.709025 0) scale(0.996264)"/>
      <use xlink:href="#CMR17-30" transform="translate(283.399502 0) scale(0.996264)"/>
     </g>
    </g>
    <g id="line2d_48">
     <path d="M 948.117672 216.710462 
L 962.117672 216.710462 
L 976.117672 216.710462 
" style="fill: none; stroke: #6b6ecf; stroke-width: 2; stroke-linecap: round"/>
    </g>
    <g id="text_22">
     <!-- t = 10.00 -->
     <g style="fill: #262626" transform="translate(987.317672 221.610462) scale(0.14 -0.14)">
      <use xlink:href="#CMR17-74" transform="scale(0.996264)"/>
      <use xlink:href="#CMR17-3d" transform="translate(65.356734 0) scale(0.996264)"/>
      <use xlink:href="#CMR17-31" transform="translate(167.147489 0) scale(0.996264)"/>
      <use xlink:href="#CMR17-30" transform="translate(212.837966 0) scale(0.996264)"/>
      <use xlink:href="#CMR17-2e" transform="translate(258.528443 0) scale(0.996264)"/>
      <use xlink:href="#CMR17-30" transform="translate(283.399502 0) scale(0.996264)"/>
      <use xlink:href="#CMR17-30" transform="translate(329.089979 0) scale(0.996264)"/>
     </g>
    </g>
    <g id="line2d_49">
     <path d="M 948.117672 236.222491 
L 962.117672 236.222491 
L 976.117672 236.222491 
" style="fill: none; stroke: #637939; stroke-width: 2; stroke-linecap: round"/>
    </g>
    <g id="text_23">
     <!-- t = 50.00 -->
     <g style="fill: #262626" transform="translate(987.317672 241.122491) scale(0.14 -0.14)">
      <use xlink:href="#CMR17-74" transform="scale(0.996264)"/>
      <use xlink:href="#CMR17-3d" transform="translate(65.356734 0) scale(0.996264)"/>
      <use xlink:href="#CMR17-35" transform="translate(167.147489 0) scale(0.996264)"/>
      <use xlink:href="#CMR17-30" transform="translate(212.837966 0) scale(0.996264)"/>
      <use xlink:href="#CMR17-2e" transform="translate(258.528443 0) scale(0.996264)"/>
      <use xlink:href="#CMR17-30" transform="translate(283.399502 0) scale(0.996264)"/>
      <use xlink:href="#CMR17-30" transform="translate(329.089979 0) scale(0.996264)"/>
     </g>
    </g>
    <g id="line2d_50">
     <path d="M 948.117672 255.734519 
L 962.117672 255.734519 
L 976.117672 255.734519 
" style="fill: none; stroke: #b5cf6b; stroke-width: 2; stroke-linecap: round"/>
    </g>
    <g id="text_24">
     <!-- t = 100.00 -->
     <g style="fill: #262626" transform="translate(987.317672 260.634519) scale(0.14 -0.14)">
      <use xlink:href="#CMR17-74" transform="scale(0.996264)"/>
      <use xlink:href="#CMR17-3d" transform="translate(65.356734 0) scale(0.996264)"/>
      <use xlink:href="#CMR17-31" transform="translate(167.147489 0) scale(0.996264)"/>
      <use xlink:href="#CMR17-30" transform="translate(212.837966 0) scale(0.996264)"/>
      <use xlink:href="#CMR17-30" transform="translate(258.528443 0) scale(0.996264)"/>
      <use xlink:href="#CMR17-2e" transform="translate(304.21892 0) scale(0.996264)"/>
      <use xlink:href="#CMR17-30" transform="translate(329.089979 0) scale(0.996264)"/>
      <use xlink:href="#CMR17-30" transform="translate(374.780456 0) scale(0.996264)"/>
     </g>
    </g>
    <g id="line2d_51">
     <path d="M 948.117672 275.246547 
L 962.117672 275.246547 
L 976.117672 275.246547 
" style="fill: none; stroke: #8c6d31; stroke-width: 2; stroke-linecap: round"/>
    </g>
    <g id="text_25">
     <!-- t = 250.00 -->
     <g style="fill: #262626" transform="translate(987.317672 280.146547) scale(0.14 -0.14)">
      <use xlink:href="#CMR17-74" transform="scale(0.996264)"/>
      <use xlink:href="#CMR17-3d" transform="translate(65.356734 0) scale(0.996264)"/>
      <use xlink:href="#CMR17-32" transform="translate(167.147489 0) scale(0.996264)"/>
      <use xlink:href="#CMR17-35" transform="translate(212.837966 0) scale(0.996264)"/>
      <use xlink:href="#CMR17-30" transform="translate(258.528443 0) scale(0.996264)"/>
      <use xlink:href="#CMR17-2e" transform="translate(304.21892 0) scale(0.996264)"/>
      <use xlink:href="#CMR17-30" transform="translate(329.089979 0) scale(0.996264)"/>
      <use xlink:href="#CMR17-30" transform="translate(374.780456 0) scale(0.996264)"/>
     </g>
    </g>
    <g id="line2d_52">
     <path d="M 948.117672 294.758576 
L 962.117672 294.758576 
L 976.117672 294.758576 
" style="fill: none; stroke: #e7cb94; stroke-width: 2; stroke-linecap: round"/>
    </g>
    <g id="text_26">
     <!-- t = 500.00 -->
     <g style="fill: #262626" transform="translate(987.317672 299.658576) scale(0.14 -0.14)">
      <use xlink:href="#CMR17-74" transform="scale(0.996264)"/>
      <use xlink:href="#CMR17-3d" transform="translate(65.356734 0) scale(0.996264)"/>
      <use xlink:href="#CMR17-35" transform="translate(167.147489 0) scale(0.996264)"/>
      <use xlink:href="#CMR17-30" transform="translate(212.837966 0) scale(0.996264)"/>
      <use xlink:href="#CMR17-30" transform="translate(258.528443 0) scale(0.996264)"/>
      <use xlink:href="#CMR17-2e" transform="translate(304.21892 0) scale(0.996264)"/>
      <use xlink:href="#CMR17-30" transform="translate(329.089979 0) scale(0.996264)"/>
      <use xlink:href="#CMR17-30" transform="translate(374.780456 0) scale(0.996264)"/>
     </g>
    </g>
    <g id="line2d_53">
     <path d="M 948.117672 314.270604 
L 962.117672 314.270604 
L 976.117672 314.270604 
" style="fill: none; stroke: #ad494a; stroke-width: 2; stroke-linecap: round"/>
    </g>
    <g id="text_27">
     <!-- t = 750.00 -->
     <g style="fill: #262626" transform="translate(987.317672 319.170604) scale(0.14 -0.14)">
      <use xlink:href="#CMR17-74" transform="scale(0.996264)"/>
      <use xlink:href="#CMR17-3d" transform="translate(65.356734 0) scale(0.996264)"/>
      <use xlink:href="#CMR17-37" transform="translate(167.147489 0) scale(0.996264)"/>
      <use xlink:href="#CMR17-35" transform="translate(212.837966 0) scale(0.996264)"/>
      <use xlink:href="#CMR17-30" transform="translate(258.528443 0) scale(0.996264)"/>
      <use xlink:href="#CMR17-2e" transform="translate(304.21892 0) scale(0.996264)"/>
      <use xlink:href="#CMR17-30" transform="translate(329.089979 0) scale(0.996264)"/>
      <use xlink:href="#CMR17-30" transform="translate(374.780456 0) scale(0.996264)"/>
     </g>
    </g>
    <g id="line2d_54">
     <path d="M 948.117672 333.782633 
L 962.117672 333.782633 
L 976.117672 333.782633 
" style="fill: none; stroke: #e7969c; stroke-width: 2; stroke-linecap: round"/>
    </g>
    <g id="text_28">
     <!-- t = 1000.00 -->
     <g style="fill: #262626" transform="translate(987.317672 338.682633) scale(0.14 -0.14)">
      <use xlink:href="#CMR17-74" transform="scale(0.996264)"/>
      <use xlink:href="#CMR17-3d" transform="translate(65.356734 0) scale(0.996264)"/>
      <use xlink:href="#CMR17-31" transform="translate(167.147489 0) scale(0.996264)"/>
      <use xlink:href="#CMR17-30" transform="translate(212.837966 0) scale(0.996264)"/>
      <use xlink:href="#CMR17-30" transform="translate(258.528443 0) scale(0.996264)"/>
      <use xlink:href="#CMR17-30" transform="translate(304.21892 0) scale(0.996264)"/>
      <use xlink:href="#CMR17-2e" transform="translate(349.909397 0) scale(0.996264)"/>
      <use xlink:href="#CMR17-30" transform="translate(374.780456 0) scale(0.996264)"/>
      <use xlink:href="#CMR17-30" transform="translate(420.470933 0) scale(0.996264)"/>
     </g>
    </g>
    <g id="line2d_55">
     <path d="M 948.117672 353.294661 
L 962.117672 353.294661 
L 976.117672 353.294661 
" style="fill: none; stroke: #a55194; stroke-width: 2; stroke-linecap: round"/>
    </g>
    <g id="text_29">
     <!-- t = 1250.00 -->
     <g style="fill: #262626" transform="translate(987.317672 358.194661) scale(0.14 -0.14)">
      <use xlink:href="#CMR17-74" transform="scale(0.996264)"/>
      <use xlink:href="#CMR17-3d" transform="translate(65.356734 0) scale(0.996264)"/>
      <use xlink:href="#CMR17-31" transform="translate(167.147489 0) scale(0.996264)"/>
      <use xlink:href="#CMR17-32" transform="translate(212.837966 0) scale(0.996264)"/>
      <use xlink:href="#CMR17-35" transform="translate(258.528443 0) scale(0.996264)"/>
      <use xlink:href="#CMR17-30" transform="translate(304.21892 0) scale(0.996264)"/>
      <use xlink:href="#CMR17-2e" transform="translate(349.909397 0) scale(0.996264)"/>
      <use xlink:href="#CMR17-30" transform="translate(374.780456 0) scale(0.996264)"/>
      <use xlink:href="#CMR17-30" transform="translate(420.470933 0) scale(0.996264)"/>
     </g>
    </g>
    <g id="line2d_56">
     <path d="M 948.117672 372.806689 
L 962.117672 372.806689 
L 976.117672 372.806689 
" style="fill: none; stroke: #de9ed6; stroke-width: 2; stroke-linecap: round"/>
    </g>
    <g id="text_30">
     <!-- t = 1500.00 -->
     <g style="fill: #262626" transform="translate(987.317672 377.706689) scale(0.14 -0.14)">
      <use xlink:href="#CMR17-74" transform="scale(0.996264)"/>
      <use xlink:href="#CMR17-3d" transform="translate(65.356734 0) scale(0.996264)"/>
      <use xlink:href="#CMR17-31" transform="translate(167.147489 0) scale(0.996264)"/>
      <use xlink:href="#CMR17-35" transform="translate(212.837966 0) scale(0.996264)"/>
      <use xlink:href="#CMR17-30" transform="translate(258.528443 0) scale(0.996264)"/>
      <use xlink:href="#CMR17-30" transform="translate(304.21892 0) scale(0.996264)"/>
      <use xlink:href="#CMR17-2e" transform="translate(349.909397 0) scale(0.996264)"/>
      <use xlink:href="#CMR17-30" transform="translate(374.780456 0) scale(0.996264)"/>
      <use xlink:href="#CMR17-30" transform="translate(420.470933 0) scale(0.996264)"/>
     </g>
    </g>
   </g>
  </g>
  <g id="text_31">
   <!-- permeability -->
   <g style="fill: #262626" transform="translate(492.111452 24.803515) scale(0.192 -0.192)">
    <defs>
     <path id="CMR17-70" d="M 1408 -1063 
C 998 -1063 973 -1037 973 -789 
L 973 402 
C 1158 134 1427 -38 1766 -38 
C 2406 -38 3053 523 3053 1388 
C 3053 2191 2496 2802 1837 2802 
C 1453 2802 1139 2592 960 2338 
L 960 2802 
L 198 2732 
L 198 2567 
C 576 2567 634 2528 634 2223 
L 634 -789 
C 634 -1031 608 -1063 198 -1063 
L 198 -1228 
C 352 -1216 634 -1216 800 -1216 
C 966 -1216 1254 -1216 1408 -1228 
L 1408 -1063 
z
M 973 2012 
C 973 2102 973 2235 1222 2471 
C 1254 2497 1472 2688 1792 2688 
C 2259 2688 2643 2108 2643 1382 
C 2643 656 2234 64 1728 64 
C 1498 64 1248 172 1056 472 
C 973 612 973 650 973 752 
L 973 2012 
z
" transform="scale(0.015625)"/>
     <path id="CMR17-72" d="M 960 1497 
C 960 2112 1222 2688 1702 2688 
C 1747 2688 1792 2682 1837 2662 
C 1837 2662 1696 2617 1696 2452 
C 1696 2298 1818 2234 1914 2234 
C 1990 2234 2131 2279 2131 2458 
C 2131 2663 1926 2790 1709 2790 
C 1222 2790 1011 2317 947 2093 
L 941 2093 
L 941 2790 
L 198 2720 
L 198 2554 
C 576 2554 634 2515 634 2208 
L 634 428 
C 634 184 608 153 198 153 
L 198 -13 
C 352 0 646 0 813 0 
C 998 0 1325 0 1498 -13 
L 1498 153 
C 1037 153 960 153 960 440 
L 960 1497 
z
" transform="scale(0.015625)"/>
     <path id="CMR17-61" d="M 2304 1653 
C 2304 2072 2304 2294 2035 2543 
C 1798 2752 1523 2816 1306 2816 
C 800 2816 435 2407 435 1971 
C 435 1728 627 1728 666 1728 
C 749 1728 896 1778 896 1954 
C 896 2112 774 2181 666 2181 
C 640 2181 608 2174 589 2168 
C 723 2592 1069 2714 1293 2714 
C 1613 2714 1965 2429 1965 1885 
L 1965 1600 
C 1587 1600 1133 1549 774 1357 
C 371 1133 256 813 256 570 
C 256 77 832 -64 1171 -64 
C 1523 -64 1850 139 1990 511 
C 2003 233 2182 -18 2464 -18 
C 2598 -18 2938 70 2938 567 
L 2938 920 
L 2822 920 
L 2822 562 
C 2822 178 2650 128 2566 128 
C 2304 128 2304 458 2304 738 
L 2304 1653 
z
M 1965 870 
C 1965 317 1568 38 1216 38 
C 896 38 646 275 646 570 
C 646 761 730 1100 1101 1305 
C 1408 1478 1760 1504 1965 1504 
L 1965 870 
z
" transform="scale(0.015625)"/>
     <path id="CMR17-62" d="M 960 4396 
L 198 4326 
L 198 4160 
C 576 4160 634 4122 634 3817 
L 634 -13 
L 749 -13 
L 934 441 
C 1120 141 1395 -64 1766 -64 
C 2406 -64 3053 500 3053 1370 
C 3053 2188 2477 2790 1830 2790 
C 1434 2790 1152 2579 960 2330 
L 960 4396 
z
M 973 2004 
C 973 2118 973 2138 1062 2272 
C 1312 2657 1670 2688 1792 2688 
C 1984 2688 2643 2585 2643 1376 
C 2643 108 1888 38 1734 38 
C 1536 38 1248 114 1043 486 
C 973 608 973 621 973 735 
L 973 2004 
z
" transform="scale(0.015625)"/>
     <path id="CMR17-6c" d="M 979 4396 
L 218 4326 
L 218 4160 
C 595 4160 653 4122 653 3817 
L 653 426 
C 653 184 627 153 218 153 
L 218 -13 
C 371 0 653 0 813 0 
C 979 0 1261 0 1414 -13 
L 1414 153 
C 1005 153 979 178 979 426 
L 979 4396 
z
" transform="scale(0.015625)"/>
     <path id="CMR17-79" d="M 2496 2197 
C 2656 2586 2944 2586 3034 2586 
L 3034 2752 
C 2912 2752 2752 2752 2630 2752 
C 2496 2752 2285 2752 2157 2758 
L 2157 2592 
C 2400 2573 2406 2394 2406 2343 
C 2406 2280 2394 2248 2362 2171 
L 1664 449 
L 902 2306 
C 870 2382 870 2426 870 2433 
C 870 2573 1018 2586 1171 2586 
L 1171 2758 
C 1018 2752 742 2752 582 2752 
C 410 2752 205 2752 64 2758 
L 64 2586 
C 410 2586 448 2554 531 2350 
L 1485 15 
C 1197 -738 1030 -1178 627 -1178 
C 557 -1178 397 -1159 282 -1044 
C 429 -1031 493 -942 493 -833 
C 493 -725 416 -629 288 -629 
C 147 -629 77 -725 77 -840 
C 77 -1095 339 -1280 627 -1280 
C 998 -1280 1229 -922 1357 -604 
L 2496 2197 
z
" transform="scale(0.015625)"/>
    </defs>
    <use xlink:href="#CMR17-70" transform="scale(0.996264)"/>
    <use xlink:href="#CMR17-65" transform="translate(53.497809 0) scale(0.996264)"/>
    <use xlink:href="#CMR17-72" transform="translate(93.983469 0) scale(0.996264)"/>
    <use xlink:href="#CMR17-6d" transform="translate(129.264237 0) scale(0.996264)"/>
    <use xlink:href="#CMR17-65" transform="translate(206.183827 0) scale(0.996264)"/>
    <use xlink:href="#CMR17-61" transform="translate(246.669487 0) scale(0.996264)"/>
    <use xlink:href="#CMR17-62" transform="translate(292.359964 0) scale(0.996264)"/>
    <use xlink:href="#CMR17-69" transform="translate(343.255334 0) scale(0.996264)"/>
    <use xlink:href="#CMR17-6c" transform="translate(368.126392 0) scale(0.996264)"/>
    <use xlink:href="#CMR17-69" transform="translate(392.997451 0) scale(0.996264)"/>
    <use xlink:href="#CMR17-74" transform="translate(417.868509 0) scale(0.996264)"/>
    <use xlink:href="#CMR17-79" transform="translate(450.546823 0) scale(0.996264)"/>
   </g>
  </g>
 </g>
 <defs>
  <clipPath id="p9a35c1d63a">
   <rect x="48.559071" y="51.564121" width="886.958601" height="469.58891"/>
  </clipPath>
 </defs>
</svg>
