<?xml version="1.0" encoding="utf-8" standalone="no"?>
<!DOCTYPE svg PUBLIC "-//W3C//DTD SVG 1.1//EN"
  "http://www.w3.org/Graphics/SVG/1.1/DTD/svg11.dtd">
<svg xmlns:xlink="http://www.w3.org/1999/xlink" width="1080pt" height="576pt" viewBox="0 0 1080 576" xmlns="http://www.w3.org/2000/svg" version="1.1">
 <metadata>
  <rdf:RDF xmlns:dc="http://purl.org/dc/elements/1.1/" xmlns:cc="http://creativecommons.org/ns#" xmlns:rdf="http://www.w3.org/1999/02/22-rdf-syntax-ns#">
   <cc:Work>
    <dc:type rdf:resource="http://purl.org/dc/dcmitype/StillImage"/>
    <dc:date>2024-06-28T11:52:35.177959</dc:date>
    <dc:format>image/svg+xml</dc:format>
    <dc:creator>
     <cc:Agent>
      <dc:title>Matplotlib v3.9.0, https://matplotlib.org/</dc:title>
     </cc:Agent>
    </dc:creator>
   </cc:Work>
  </rdf:RDF>
 </metadata>
 <defs>
  <style type="text/css">*{stroke-linejoin: round; stroke-linecap: butt}</style>
 </defs>
 <g id="figure_1">
  <g id="patch_1">
   <path d="M 0 576 
L 1080 576 
L 1080 0 
L 0 0 
z
" style="fill: #ffffff"/>
  </g>
  <g id="axes_1">
   <g id="patch_2">
    <path d="M 48.559071 521.153031 
L 935.517672 521.153031 
L 935.517672 51.564121 
L 48.559071 51.564121 
z
" style="fill: #eaeaf2"/>
   </g>
   <g id="matplotlib.axis_1">
    <g id="xtick_1">
     <g id="line2d_1">
      <path d="M 48.559071 521.153031 
L 48.559071 51.564121 
" clip-path="url(#p79f636b579)" style="fill: none; stroke: #ffffff; stroke-linecap: round"/>
     </g>
     <g id="line2d_2"/>
     <g id="text_1">
      <!-- $\mathdefault{0.00}$ -->
      <g style="fill: #262626" transform="translate(36.419535 537.838907) scale(0.14 -0.14)">
       <defs>
        <path id="CMR17-30" d="M 2688 2025 
C 2688 2416 2682 3080 2413 3591 
C 2176 4039 1798 4198 1466 4198 
C 1158 4198 768 4058 525 3597 
C 269 3118 243 2524 243 2025 
C 243 1661 250 1106 448 619 
C 723 -39 1216 -128 1466 -128 
C 1760 -128 2208 -7 2470 600 
C 2662 1042 2688 1559 2688 2025 
z
M 1466 -26 
C 1056 -26 813 325 723 812 
C 653 1188 653 1738 653 2096 
C 653 2588 653 2997 736 3387 
C 858 3929 1216 4096 1466 4096 
C 1728 4096 2067 3923 2189 3400 
C 2272 3036 2278 2607 2278 2096 
C 2278 1680 2278 1169 2202 792 
C 2067 95 1690 -26 1466 -26 
z
" transform="scale(0.015625)"/>
        <path id="CMMI12-3a" d="M 1178 307 
C 1178 492 1024 619 870 619 
C 685 619 557 466 557 313 
C 557 128 710 0 864 0 
C 1050 0 1178 153 1178 307 
z
" transform="scale(0.015625)"/>
       </defs>
       <use xlink:href="#CMR17-30" transform="scale(0.996264)"/>
       <use xlink:href="#CMMI12-3a" transform="translate(45.690477 0) scale(0.996264)"/>
       <use xlink:href="#CMR17-30" transform="translate(72.787654 0) scale(0.996264)"/>
       <use xlink:href="#CMR17-30" transform="translate(118.478131 0) scale(0.996264)"/>
      </g>
     </g>
    </g>
    <g id="xtick_2">
     <g id="line2d_3">
      <path d="M 154.14938 521.153031 
L 154.14938 51.564121 
" clip-path="url(#p79f636b579)" style="fill: none; stroke: #ffffff; stroke-linecap: round"/>
     </g>
     <g id="line2d_4"/>
     <g id="text_2">
      <!-- $\mathdefault{0.25}$ -->
      <g style="fill: #262626" transform="translate(142.009845 537.838907) scale(0.14 -0.14)">
       <defs>
        <path id="CMR17-32" d="M 2669 989 
L 2554 989 
C 2490 536 2438 459 2413 420 
C 2381 369 1920 369 1830 369 
L 602 369 
C 832 619 1280 1072 1824 1597 
C 2214 1967 2669 2402 2669 3035 
C 2669 3790 2067 4224 1395 4224 
C 691 4224 262 3604 262 3030 
C 262 2780 448 2748 525 2748 
C 589 2748 781 2787 781 3010 
C 781 3207 614 3264 525 3264 
C 486 3264 448 3258 422 3245 
C 544 3790 915 4058 1306 4058 
C 1862 4058 2227 3617 2227 3035 
C 2227 2479 1901 2000 1536 1584 
L 262 146 
L 262 0 
L 2515 0 
L 2669 989 
z
" transform="scale(0.015625)"/>
        <path id="CMR17-35" d="M 730 3692 
C 794 3666 1056 3584 1325 3584 
C 1920 3584 2246 3911 2432 4100 
C 2432 4157 2432 4192 2394 4192 
C 2387 4192 2374 4192 2323 4163 
C 2099 4058 1837 3973 1517 3973 
C 1325 3973 1037 3999 723 4139 
C 653 4171 640 4171 634 4171 
C 602 4171 595 4164 595 4037 
L 595 2203 
C 595 2089 595 2057 659 2057 
C 691 2057 704 2070 736 2114 
C 941 2401 1222 2522 1542 2522 
C 1766 2522 2246 2382 2246 1289 
C 2246 1085 2246 715 2054 421 
C 1894 159 1645 25 1370 25 
C 947 25 518 320 403 814 
C 429 807 480 795 506 795 
C 589 795 749 840 749 1038 
C 749 1210 627 1280 506 1280 
C 358 1280 262 1190 262 1011 
C 262 454 704 -128 1382 -128 
C 2042 -128 2669 440 2669 1264 
C 2669 2030 2170 2624 1549 2624 
C 1222 2624 947 2503 730 2274 
L 730 3692 
z
" transform="scale(0.015625)"/>
       </defs>
       <use xlink:href="#CMR17-30" transform="scale(0.996264)"/>
       <use xlink:href="#CMMI12-3a" transform="translate(45.690477 0) scale(0.996264)"/>
       <use xlink:href="#CMR17-32" transform="translate(72.787654 0) scale(0.996264)"/>
       <use xlink:href="#CMR17-35" transform="translate(118.478131 0) scale(0.996264)"/>
      </g>
     </g>
    </g>
    <g id="xtick_3">
     <g id="line2d_5">
      <path d="M 259.73969 521.153031 
L 259.73969 51.564121 
" clip-path="url(#p79f636b579)" style="fill: none; stroke: #ffffff; stroke-linecap: round"/>
     </g>
     <g id="line2d_6"/>
     <g id="text_3">
      <!-- $\mathdefault{0.50}$ -->
      <g style="fill: #262626" transform="translate(247.600155 537.838907) scale(0.14 -0.14)">
       <use xlink:href="#CMR17-30" transform="scale(0.996264)"/>
       <use xlink:href="#CMMI12-3a" transform="translate(45.690477 0) scale(0.996264)"/>
       <use xlink:href="#CMR17-35" transform="translate(72.787654 0) scale(0.996264)"/>
       <use xlink:href="#CMR17-30" transform="translate(118.478131 0) scale(0.996264)"/>
      </g>
     </g>
    </g>
    <g id="xtick_4">
     <g id="line2d_7">
      <path d="M 365.33 521.153031 
L 365.33 51.564121 
" clip-path="url(#p79f636b579)" style="fill: none; stroke: #ffffff; stroke-linecap: round"/>
     </g>
     <g id="line2d_8"/>
     <g id="text_4">
      <!-- $\mathdefault{0.75}$ -->
      <g style="fill: #262626" transform="translate(353.190464 537.838907) scale(0.14 -0.14)">
       <defs>
        <path id="CMR17-37" d="M 2886 3941 
L 2886 4081 
L 1382 4081 
C 634 4081 621 4165 595 4288 
L 480 4288 
L 294 3094 
L 410 3094 
C 429 3215 474 3540 550 3661 
C 589 3712 1062 3712 1171 3712 
L 2579 3712 
L 1869 2661 
C 1395 1954 1069 999 1069 165 
C 1069 89 1069 -128 1299 -128 
C 1530 -128 1530 89 1530 171 
L 1530 465 
C 1530 1508 1709 2196 2003 2636 
L 2886 3941 
z
" transform="scale(0.015625)"/>
       </defs>
       <use xlink:href="#CMR17-30" transform="scale(0.996264)"/>
       <use xlink:href="#CMMI12-3a" transform="translate(45.690477 0) scale(0.996264)"/>
       <use xlink:href="#CMR17-37" transform="translate(72.787654 0) scale(0.996264)"/>
       <use xlink:href="#CMR17-35" transform="translate(118.478131 0) scale(0.996264)"/>
      </g>
     </g>
    </g>
    <g id="xtick_5">
     <g id="line2d_9">
      <path d="M 470.920309 521.153031 
L 470.920309 51.564121 
" clip-path="url(#p79f636b579)" style="fill: none; stroke: #ffffff; stroke-linecap: round"/>
     </g>
     <g id="line2d_10"/>
     <g id="text_5">
      <!-- $\mathdefault{1.00}$ -->
      <g style="fill: #262626" transform="translate(458.780774 537.838907) scale(0.14 -0.14)">
       <defs>
        <path id="CMR17-31" d="M 1702 4058 
C 1702 4192 1696 4192 1606 4192 
C 1357 3916 979 3827 621 3827 
C 602 3827 570 3827 563 3808 
C 557 3795 557 3782 557 3648 
C 755 3648 1088 3686 1344 3839 
L 1344 461 
C 1344 236 1331 160 781 160 
L 589 160 
L 589 0 
C 896 0 1216 0 1523 0 
C 1830 0 2150 0 2458 0 
L 2458 160 
L 2266 160 
C 1715 160 1702 230 1702 458 
L 1702 4058 
z
" transform="scale(0.015625)"/>
       </defs>
       <use xlink:href="#CMR17-31" transform="scale(0.996264)"/>
       <use xlink:href="#CMMI12-3a" transform="translate(45.690477 0) scale(0.996264)"/>
       <use xlink:href="#CMR17-30" transform="translate(72.787654 0) scale(0.996264)"/>
       <use xlink:href="#CMR17-30" transform="translate(118.478131 0) scale(0.996264)"/>
      </g>
     </g>
    </g>
    <g id="xtick_6">
     <g id="line2d_11">
      <path d="M 576.510619 521.153031 
L 576.510619 51.564121 
" clip-path="url(#p79f636b579)" style="fill: none; stroke: #ffffff; stroke-linecap: round"/>
     </g>
     <g id="line2d_12"/>
     <g id="text_6">
      <!-- $\mathdefault{1.25}$ -->
      <g style="fill: #262626" transform="translate(564.371084 537.838907) scale(0.14 -0.14)">
       <use xlink:href="#CMR17-31" transform="scale(0.996264)"/>
       <use xlink:href="#CMMI12-3a" transform="translate(45.690477 0) scale(0.996264)"/>
       <use xlink:href="#CMR17-32" transform="translate(72.787654 0) scale(0.996264)"/>
       <use xlink:href="#CMR17-35" transform="translate(118.478131 0) scale(0.996264)"/>
      </g>
     </g>
    </g>
    <g id="xtick_7">
     <g id="line2d_13">
      <path d="M 682.100929 521.153031 
L 682.100929 51.564121 
" clip-path="url(#p79f636b579)" style="fill: none; stroke: #ffffff; stroke-linecap: round"/>
     </g>
     <g id="line2d_14"/>
     <g id="text_7">
      <!-- $\mathdefault{1.50}$ -->
      <g style="fill: #262626" transform="translate(669.961393 537.838907) scale(0.14 -0.14)">
       <use xlink:href="#CMR17-31" transform="scale(0.996264)"/>
       <use xlink:href="#CMMI12-3a" transform="translate(45.690477 0) scale(0.996264)"/>
       <use xlink:href="#CMR17-35" transform="translate(72.787654 0) scale(0.996264)"/>
       <use xlink:href="#CMR17-30" transform="translate(118.478131 0) scale(0.996264)"/>
      </g>
     </g>
    </g>
    <g id="xtick_8">
     <g id="line2d_15">
      <path d="M 787.691238 521.153031 
L 787.691238 51.564121 
" clip-path="url(#p79f636b579)" style="fill: none; stroke: #ffffff; stroke-linecap: round"/>
     </g>
     <g id="line2d_16"/>
     <g id="text_8">
      <!-- $\mathdefault{1.75}$ -->
      <g style="fill: #262626" transform="translate(775.551703 537.838907) scale(0.14 -0.14)">
       <use xlink:href="#CMR17-31" transform="scale(0.996264)"/>
       <use xlink:href="#CMMI12-3a" transform="translate(45.690477 0) scale(0.996264)"/>
       <use xlink:href="#CMR17-37" transform="translate(72.787654 0) scale(0.996264)"/>
       <use xlink:href="#CMR17-35" transform="translate(118.478131 0) scale(0.996264)"/>
      </g>
     </g>
    </g>
    <g id="xtick_9">
     <g id="line2d_17">
      <path d="M 893.281548 521.153031 
L 893.281548 51.564121 
" clip-path="url(#p79f636b579)" style="fill: none; stroke: #ffffff; stroke-linecap: round"/>
     </g>
     <g id="line2d_18"/>
     <g id="text_9">
      <!-- $\mathdefault{2.00}$ -->
      <g style="fill: #262626" transform="translate(881.142013 537.838907) scale(0.14 -0.14)">
       <use xlink:href="#CMR17-32" transform="scale(0.996264)"/>
       <use xlink:href="#CMMI12-3a" transform="translate(45.690477 0) scale(0.996264)"/>
       <use xlink:href="#CMR17-30" transform="translate(72.787654 0) scale(0.996264)"/>
       <use xlink:href="#CMR17-30" transform="translate(118.478131 0) scale(0.996264)"/>
      </g>
     </g>
    </g>
    <g id="text_10">
     <!-- $x$ -->
     <g style="fill: #262626" transform="translate(487.603646 555.620524) scale(0.16 -0.16)">
      <defs>
       <path id="CMMI12-78" d="M 3034 2606 
C 2829 2567 2752 2414 2752 2293 
C 2752 2139 2874 2088 2963 2088 
C 3155 2088 3290 2254 3290 2427 
C 3290 2695 2982 2816 2714 2816 
C 2323 2816 2106 2433 2048 2312 
C 1901 2816 1504 2816 1389 2816 
C 736 2816 390 1980 390 1839 
C 390 1814 416 1782 461 1782 
C 512 1782 525 1820 538 1846 
C 755 2555 1184 2689 1370 2689 
C 1658 2689 1715 2420 1715 2267 
C 1715 2127 1677 1980 1600 1673 
L 1382 798 
C 1286 415 1101 64 762 64 
C 730 64 570 64 435 147 
C 666 192 717 383 717 460 
C 717 588 621 664 499 664 
C 346 664 179 530 179 326 
C 179 57 480 -64 755 -64 
C 1062 -64 1280 179 1414 441 
C 1517 64 1837 -64 2074 -64 
C 2726 -64 3072 773 3072 913 
C 3072 945 3046 971 3008 971 
C 2950 971 2944 939 2925 888 
C 2752 326 2381 64 2093 64 
C 1869 64 1747 230 1747 492 
C 1747 632 1773 734 1875 1156 
L 2099 2024 
C 2195 2408 2413 2689 2707 2689 
C 2720 2689 2899 2689 3034 2606 
z
" transform="scale(0.015625)"/>
      </defs>
      <use xlink:href="#CMMI12-78" transform="scale(0.996264)"/>
     </g>
    </g>
   </g>
   <g id="matplotlib.axis_2">
    <g id="ytick_1">
     <g id="line2d_19">
      <path d="M 48.559071 521.153031 
L 935.517672 521.153031 
" clip-path="url(#p79f636b579)" style="fill: none; stroke: #ffffff; stroke-linecap: round"/>
     </g>
     <g id="line2d_20"/>
     <g id="text_11">
      <!-- $\mathdefault{0.00}$ -->
      <g style="fill: #262626" transform="translate(17.28 525.995969) scale(0.14 -0.14)">
       <use xlink:href="#CMR17-30" transform="scale(0.996264)"/>
       <use xlink:href="#CMMI12-3a" transform="translate(45.690477 0) scale(0.996264)"/>
       <use xlink:href="#CMR17-30" transform="translate(72.787654 0) scale(0.996264)"/>
       <use xlink:href="#CMR17-30" transform="translate(118.478131 0) scale(0.996264)"/>
      </g>
     </g>
    </g>
    <g id="ytick_2">
     <g id="line2d_21">
      <path d="M 48.559071 465.162869 
L 935.517672 465.162869 
" clip-path="url(#p79f636b579)" style="fill: none; stroke: #ffffff; stroke-linecap: round"/>
     </g>
     <g id="line2d_22"/>
     <g id="text_12">
      <!-- $\mathdefault{0.25}$ -->
      <g style="fill: #262626" transform="translate(17.28 470.005807) scale(0.14 -0.14)">
       <use xlink:href="#CMR17-30" transform="scale(0.996264)"/>
       <use xlink:href="#CMMI12-3a" transform="translate(45.690477 0) scale(0.996264)"/>
       <use xlink:href="#CMR17-32" transform="translate(72.787654 0) scale(0.996264)"/>
       <use xlink:href="#CMR17-35" transform="translate(118.478131 0) scale(0.996264)"/>
      </g>
     </g>
    </g>
    <g id="ytick_3">
     <g id="line2d_23">
      <path d="M 48.559071 409.172707 
L 935.517672 409.172707 
" clip-path="url(#p79f636b579)" style="fill: none; stroke: #ffffff; stroke-linecap: round"/>
     </g>
     <g id="line2d_24"/>
     <g id="text_13">
      <!-- $\mathdefault{0.50}$ -->
      <g style="fill: #262626" transform="translate(17.28 414.015645) scale(0.14 -0.14)">
       <use xlink:href="#CMR17-30" transform="scale(0.996264)"/>
       <use xlink:href="#CMMI12-3a" transform="translate(45.690477 0) scale(0.996264)"/>
       <use xlink:href="#CMR17-35" transform="translate(72.787654 0) scale(0.996264)"/>
       <use xlink:href="#CMR17-30" transform="translate(118.478131 0) scale(0.996264)"/>
      </g>
     </g>
    </g>
    <g id="ytick_4">
     <g id="line2d_25">
      <path d="M 48.559071 353.182544 
L 935.517672 353.182544 
" clip-path="url(#p79f636b579)" style="fill: none; stroke: #ffffff; stroke-linecap: round"/>
     </g>
     <g id="line2d_26"/>
     <g id="text_14">
      <!-- $\mathdefault{0.75}$ -->
      <g style="fill: #262626" transform="translate(17.28 358.025483) scale(0.14 -0.14)">
       <use xlink:href="#CMR17-30" transform="scale(0.996264)"/>
       <use xlink:href="#CMMI12-3a" transform="translate(45.690477 0) scale(0.996264)"/>
       <use xlink:href="#CMR17-37" transform="translate(72.787654 0) scale(0.996264)"/>
       <use xlink:href="#CMR17-35" transform="translate(118.478131 0) scale(0.996264)"/>
      </g>
     </g>
    </g>
    <g id="ytick_5">
     <g id="line2d_27">
      <path d="M 48.559071 297.192382 
L 935.517672 297.192382 
" clip-path="url(#p79f636b579)" style="fill: none; stroke: #ffffff; stroke-linecap: round"/>
     </g>
     <g id="line2d_28"/>
     <g id="text_15">
      <!-- $\mathdefault{1.00}$ -->
      <g style="fill: #262626" transform="translate(17.28 302.035321) scale(0.14 -0.14)">
       <use xlink:href="#CMR17-31" transform="scale(0.996264)"/>
       <use xlink:href="#CMMI12-3a" transform="translate(45.690477 0) scale(0.996264)"/>
       <use xlink:href="#CMR17-30" transform="translate(72.787654 0) scale(0.996264)"/>
       <use xlink:href="#CMR17-30" transform="translate(118.478131 0) scale(0.996264)"/>
      </g>
     </g>
    </g>
    <g id="ytick_6">
     <g id="line2d_29">
      <path d="M 48.559071 241.20222 
L 935.517672 241.20222 
" clip-path="url(#p79f636b579)" style="fill: none; stroke: #ffffff; stroke-linecap: round"/>
     </g>
     <g id="line2d_30"/>
     <g id="text_16">
      <!-- $\mathdefault{1.25}$ -->
      <g style="fill: #262626" transform="translate(17.28 246.045159) scale(0.14 -0.14)">
       <use xlink:href="#CMR17-31" transform="scale(0.996264)"/>
       <use xlink:href="#CMMI12-3a" transform="translate(45.690477 0) scale(0.996264)"/>
       <use xlink:href="#CMR17-32" transform="translate(72.787654 0) scale(0.996264)"/>
       <use xlink:href="#CMR17-35" transform="translate(118.478131 0) scale(0.996264)"/>
      </g>
     </g>
    </g>
    <g id="ytick_7">
     <g id="line2d_31">
      <path d="M 48.559071 185.212058 
L 935.517672 185.212058 
" clip-path="url(#p79f636b579)" style="fill: none; stroke: #ffffff; stroke-linecap: round"/>
     </g>
     <g id="line2d_32"/>
     <g id="text_17">
      <!-- $\mathdefault{1.50}$ -->
      <g style="fill: #262626" transform="translate(17.28 190.054996) scale(0.14 -0.14)">
       <use xlink:href="#CMR17-31" transform="scale(0.996264)"/>
       <use xlink:href="#CMMI12-3a" transform="translate(45.690477 0) scale(0.996264)"/>
       <use xlink:href="#CMR17-35" transform="translate(72.787654 0) scale(0.996264)"/>
       <use xlink:href="#CMR17-30" transform="translate(118.478131 0) scale(0.996264)"/>
      </g>
     </g>
    </g>
    <g id="ytick_8">
     <g id="line2d_33">
      <path d="M 48.559071 129.221896 
L 935.517672 129.221896 
" clip-path="url(#p79f636b579)" style="fill: none; stroke: #ffffff; stroke-linecap: round"/>
     </g>
     <g id="line2d_34"/>
     <g id="text_18">
      <!-- $\mathdefault{1.75}$ -->
      <g style="fill: #262626" transform="translate(17.28 134.064834) scale(0.14 -0.14)">
       <use xlink:href="#CMR17-31" transform="scale(0.996264)"/>
       <use xlink:href="#CMMI12-3a" transform="translate(45.690477 0) scale(0.996264)"/>
       <use xlink:href="#CMR17-37" transform="translate(72.787654 0) scale(0.996264)"/>
       <use xlink:href="#CMR17-35" transform="translate(118.478131 0) scale(0.996264)"/>
      </g>
     </g>
    </g>
    <g id="ytick_9">
     <g id="line2d_35">
      <path d="M 48.559071 73.231734 
L 935.517672 73.231734 
" clip-path="url(#p79f636b579)" style="fill: none; stroke: #ffffff; stroke-linecap: round"/>
     </g>
     <g id="line2d_36"/>
     <g id="text_19">
      <!-- $\mathdefault{2.00}$ -->
      <g style="fill: #262626" transform="translate(17.28 78.074672) scale(0.14 -0.14)">
       <use xlink:href="#CMR17-32" transform="scale(0.996264)"/>
       <use xlink:href="#CMMI12-3a" transform="translate(45.690477 0) scale(0.996264)"/>
       <use xlink:href="#CMR17-30" transform="translate(72.787654 0) scale(0.996264)"/>
       <use xlink:href="#CMR17-30" transform="translate(118.478131 0) scale(0.996264)"/>
      </g>
     </g>
    </g>
   </g>
   <g id="line2d_37">
    <path d="M 48.559071 73.231734 
L 57.006295 73.231734 
L 65.45352 73.231734 
L 73.900745 73.231734 
L 82.34797 73.231734 
L 90.795195 73.231734 
L 99.242419 73.231734 
L 107.689644 73.231734 
L 116.136869 73.231734 
L 124.584094 73.231734 
L 133.031318 73.231734 
L 141.478543 73.231734 
L 149.925768 73.231734 
L 158.372993 73.231734 
L 166.820217 73.231734 
L 175.267442 73.231734 
L 183.714667 73.231734 
L 192.161892 73.231734 
L 200.609117 73.231734 
L 209.056341 73.231734 
L 217.503566 73.231734 
L 225.950791 73.231734 
L 234.398016 73.231734 
L 242.84524 73.231734 
L 251.292465 73.231734 
L 259.73969 73.231734 
L 268.186915 73.231734 
L 276.63414 73.231734 
L 285.081364 73.231734 
L 293.528589 73.231734 
L 301.975814 73.231734 
L 310.423039 73.231734 
L 318.870263 73.231734 
L 327.317488 73.231734 
L 335.764713 73.231734 
L 344.211938 73.231734 
L 352.659162 73.231734 
L 361.106387 73.231734 
L 369.553612 73.231734 
L 378.000837 73.231734 
L 386.448062 73.231734 
L 394.895286 73.231734 
L 403.342511 73.231734 
L 411.789736 73.231734 
L 420.236961 73.231734 
L 428.684185 73.231734 
L 437.13141 73.231734 
L 445.578635 73.231734 
L 454.02586 73.231734 
L 462.473085 73.231734 
L 470.920309 73.231734 
L 479.367534 73.231734 
L 487.814759 73.231734 
L 496.261984 73.231734 
L 504.709208 73.231734 
L 513.156433 73.231734 
L 521.603658 73.231734 
L 530.050883 73.231734 
L 538.498107 73.231734 
L 546.945332 73.231734 
L 555.392557 73.231734 
L 563.839782 73.231734 
L 572.287007 73.231734 
L 580.734231 73.231734 
L 589.181456 73.231734 
L 597.628681 73.231734 
L 606.075906 73.231734 
L 614.52313 73.231734 
L 622.970355 73.231734 
L 631.41758 73.231734 
L 639.864805 73.231734 
L 648.31203 73.231734 
L 656.759254 73.231734 
L 665.206479 73.231734 
L 673.653704 73.231734 
L 682.100929 73.231734 
L 690.548153 73.231734 
L 698.995378 73.231734 
L 707.442603 73.231734 
L 715.889828 73.231734 
L 724.337052 73.231734 
L 732.784277 73.231734 
L 741.231502 73.231734 
L 749.678727 73.231734 
L 758.125952 73.231734 
L 766.573176 73.231734 
L 775.020401 73.231734 
L 783.467626 73.231734 
L 791.914851 73.231734 
L 800.362075 73.231734 
L 808.8093 73.231734 
L 817.256525 73.231734 
L 825.70375 73.231734 
L 834.150975 73.231734 
L 842.598199 73.231734 
L 851.045424 73.231734 
L 859.492649 73.231734 
L 867.939874 73.231734 
L 876.387098 73.231734 
L 884.834323 73.231734 
L 893.281548 73.231734 
" clip-path="url(#p79f636b579)" style="fill: none; stroke: #393b79; stroke-width: 2; stroke-linecap: round"/>
   </g>
   <g id="line2d_38">
    <path d="M 48.559071 94.942102 
L 57.006295 94.909856 
L 65.45352 94.877546 
L 73.900745 94.845154 
L 82.34797 94.812807 
L 90.795195 94.780506 
L 99.242419 94.74825 
L 107.689644 94.71604 
L 116.136869 94.683876 
L 124.584094 94.651757 
L 133.031318 94.619683 
L 141.478543 94.587655 
L 149.925768 94.555672 
L 158.372993 94.523734 
L 166.820217 94.491841 
L 175.267442 94.459993 
L 183.714667 94.42819 
L 192.161892 94.396432 
L 200.609117 94.364719 
L 209.056341 94.33305 
L 217.503566 94.301426 
L 225.950791 94.269847 
L 234.398016 94.238313 
L 242.84524 94.206824 
L 251.292465 94.175379 
L 259.73969 94.143979 
L 268.186915 94.112623 
L 276.63414 94.081311 
L 285.081364 94.050043 
L 293.528589 94.01882 
L 301.975814 93.98764 
L 310.423039 93.956505 
L 318.870263 93.925413 
L 327.317488 93.894366 
L 335.764713 93.863362 
L 344.211938 93.832403 
L 352.659162 93.801486 
L 361.106387 93.770614 
L 369.553612 93.739785 
L 378.000837 93.709 
L 386.448062 93.678258 
L 394.895286 93.64756 
L 403.342511 93.616905 
L 411.789736 93.586294 
L 420.236961 93.555726 
L 428.684185 93.525201 
L 437.13141 93.494719 
L 445.578635 93.464281 
L 454.02586 93.433885 
L 462.473085 93.403532 
L 470.920309 93.373223 
L 479.367534 93.342955 
L 487.814759 93.312731 
L 496.261984 93.28255 
L 504.709208 93.252411 
L 513.156433 93.222315 
L 521.603658 93.192261 
L 530.050883 93.16225 
L 538.498107 93.132282 
L 546.945332 93.102355 
L 555.392557 93.072471 
L 563.839782 93.04263 
L 572.287007 93.01283 
L 580.734231 92.983073 
L 589.181456 92.953357 
L 597.628681 92.923684 
L 606.075906 92.894052 
L 614.52313 92.864462 
L 622.970355 92.834915 
L 631.41758 92.805409 
L 639.864805 92.775781 
L 648.31203 92.746141 
L 656.759254 92.716542 
L 665.206479 92.686986 
L 673.653704 92.657471 
L 682.100929 92.627998 
L 690.548153 92.598566 
L 698.995378 92.569177 
L 707.442603 92.539829 
L 715.889828 92.510522 
L 724.337052 92.481256 
L 732.784277 92.452032 
L 741.231502 92.42285 
L 749.678727 92.393708 
L 758.125952 92.364608 
L 766.573176 92.335549 
L 775.020401 92.306531 
L 783.467626 92.277554 
L 791.914851 92.248618 
L 800.362075 92.219723 
L 808.8093 92.190869 
L 817.256525 92.162056 
L 825.70375 92.133283 
L 834.150975 92.104551 
L 842.598199 92.07586 
L 851.045424 92.047209 
L 859.492649 92.018599 
L 867.939874 91.990029 
L 876.387098 91.9615 
L 884.834323 91.933011 
L 893.281548 91.904562 
" clip-path="url(#p79f636b579)" style="fill: none; stroke: #6b6ecf; stroke-width: 2; stroke-linecap: round"/>
   </g>
   <g id="line2d_39">
    <path d="M 48.559071 168.095651 
L 57.006295 167.996682 
L 65.45352 167.897848 
L 73.900745 167.79915 
L 82.34797 167.700586 
L 90.795195 167.602158 
L 99.242419 167.503763 
L 107.689644 167.404945 
L 116.136869 167.306261 
L 124.584094 167.207711 
L 133.031318 167.109297 
L 141.478543 167.011018 
L 149.925768 166.912873 
L 158.372993 166.814866 
L 166.820217 166.716998 
L 175.267442 166.619263 
L 183.714667 166.521662 
L 192.161892 166.424193 
L 200.609117 166.326868 
L 209.056341 166.229675 
L 217.503566 166.132614 
L 225.950791 166.035687 
L 234.398016 165.938893 
L 242.84524 165.84159 
L 251.292465 165.744409 
L 259.73969 165.64736 
L 268.186915 165.550444 
L 276.63414 165.453659 
L 285.081364 165.357006 
L 293.528589 165.260486 
L 301.975814 165.164097 
L 310.423039 165.067838 
L 318.870263 164.971713 
L 327.317488 164.87572 
L 335.764713 164.779855 
L 344.211938 164.684126 
L 352.659162 164.588533 
L 361.106387 164.493074 
L 369.553612 164.397744 
L 378.000837 164.302256 
L 386.448062 164.206544 
L 394.895286 164.110961 
L 403.342511 164.015508 
L 411.789736 163.920184 
L 420.236961 163.82499 
L 428.684185 163.729924 
L 437.13141 163.634987 
L 445.578635 163.540179 
L 454.02586 163.445501 
L 462.473085 163.350953 
L 470.920309 163.256534 
L 479.367534 163.162244 
L 487.814759 163.068081 
L 496.261984 162.974047 
L 504.709208 162.88014 
L 513.156433 162.786364 
L 521.603658 162.692383 
L 530.050883 162.59823 
L 538.498107 162.504214 
L 546.945332 162.410324 
L 555.392557 162.316561 
L 563.839782 162.222924 
L 572.287007 162.129413 
L 580.734231 162.036027 
L 589.181456 161.942768 
L 597.628681 161.849635 
L 606.075906 161.756627 
L 614.52313 161.663745 
L 622.970355 161.57099 
L 631.41758 161.478361 
L 639.864805 161.385858 
L 648.31203 161.29348 
L 656.759254 161.201226 
L 665.206479 161.108967 
L 673.653704 161.016339 
L 682.100929 160.923839 
L 690.548153 160.831464 
L 698.995378 160.739213 
L 707.442603 160.647087 
L 715.889828 160.555085 
L 724.337052 160.463208 
L 732.784277 160.371464 
L 741.231502 160.279846 
L 749.678727 160.18835 
L 758.125952 160.096978 
L 766.573176 160.005728 
L 775.020401 159.914601 
L 783.467626 159.823597 
L 791.914851 159.732716 
L 800.362075 159.641957 
L 808.8093 159.551319 
L 817.256525 159.460513 
L 825.70375 159.369504 
L 834.150975 159.278617 
L 842.598199 159.187853 
L 851.045424 159.097215 
L 859.492649 159.006698 
L 867.939874 158.916303 
L 876.387098 158.826028 
L 884.834323 158.735875 
L 893.281548 158.645842 
" clip-path="url(#p79f636b579)" style="fill: none; stroke: #637939; stroke-width: 2; stroke-linecap: round"/>
   </g>
   <g id="line2d_40">
    <path d="M 48.559071 236.418105 
L 57.006295 236.264775 
L 65.45352 236.111687 
L 73.900745 235.958511 
L 82.34797 235.804979 
L 90.795195 235.651686 
L 99.242419 235.498636 
L 107.689644 235.345821 
L 116.136869 235.193244 
L 124.584094 235.04092 
L 133.031318 234.888856 
L 141.478543 234.736239 
L 149.925768 234.583735 
L 158.372993 234.431471 
L 166.820217 234.279448 
L 175.267442 234.12766 
L 183.714667 233.976112 
L 192.161892 233.824803 
L 200.609117 233.673479 
L 209.056341 233.521749 
L 217.503566 233.37026 
L 225.950791 233.219009 
L 234.398016 233.067993 
L 242.84524 232.917213 
L 251.292465 232.766684 
L 259.73969 232.616386 
L 268.186915 232.465767 
L 276.63414 232.315032 
L 285.081364 232.16453 
L 293.528589 232.014274 
L 301.975814 231.864251 
L 310.423039 231.714463 
L 318.870263 231.56491 
L 327.317488 231.415587 
L 335.764713 231.26572 
L 344.211938 231.115959 
L 352.659162 230.966434 
L 361.106387 230.81715 
L 369.553612 230.668108 
L 378.000837 230.519315 
L 386.448062 230.370752 
L 394.895286 230.222417 
L 403.342511 230.073414 
L 411.789736 229.924635 
L 420.236961 229.776088 
L 428.684185 229.627768 
L 437.13141 229.479674 
L 445.578635 229.331812 
L 454.02586 229.184178 
L 462.473085 229.036754 
L 470.920309 228.888692 
L 479.367534 228.740859 
L 487.814759 228.593269 
L 496.261984 228.44591 
L 504.709208 228.298778 
L 513.156433 228.15188 
L 521.603658 228.005208 
L 530.050883 227.85876 
L 538.498107 227.711669 
L 546.945332 227.56479 
L 555.392557 227.41814 
L 563.839782 227.271716 
L 572.287007 227.125516 
L 580.734231 226.979544 
L 589.181456 226.833795 
L 597.628681 226.688268 
L 606.075906 226.542245 
L 614.52313 226.396283 
L 622.970355 226.250545 
L 631.41758 226.105032 
L 639.864805 225.959758 
L 648.31203 225.814714 
L 656.759254 225.669891 
L 665.206479 225.525286 
L 673.653704 225.380416 
L 682.100929 225.23537 
L 690.548153 225.090543 
L 698.995378 224.945936 
L 707.442603 224.801548 
L 715.889828 224.657382 
L 724.337052 224.513455 
L 732.784277 224.36977 
L 741.231502 224.226148 
L 749.678727 224.082017 
L 758.125952 223.938103 
L 766.573176 223.794405 
L 775.020401 223.650924 
L 783.467626 223.507664 
L 791.914851 223.364626 
L 800.362075 223.221807 
L 808.8093 223.079207 
L 817.256525 222.936226 
L 825.70375 222.793191 
L 834.150975 222.65037 
L 842.598199 222.507766 
L 851.045424 222.36538 
L 859.492649 222.223223 
L 867.939874 222.081283 
L 876.387098 221.939556 
L 884.834323 221.797962 
L 893.281548 221.655793 
" clip-path="url(#p79f636b579)" style="fill: none; stroke: #b5cf6b; stroke-width: 2; stroke-linecap: round"/>
   </g>
   <g id="line2d_41">
    <path d="M 48.559071 356.067488 
L 57.006295 355.847182 
L 65.45352 355.627116 
L 73.900745 355.407153 
L 82.34797 355.187102 
L 90.795195 354.967447 
L 99.242419 354.747426 
L 107.689644 354.527894 
L 116.136869 354.308068 
L 124.584094 354.088587 
L 133.031318 353.869167 
L 141.478543 353.649716 
L 149.925768 353.430618 
L 158.372993 353.211142 
L 166.820217 352.992222 
L 175.267442 352.773019 
L 183.714667 352.554073 
L 192.161892 352.335228 
L 200.609117 352.116323 
L 209.056341 351.897862 
L 217.503566 351.67896 
L 225.950791 351.460559 
L 234.398016 351.242007 
L 242.84524 351.023605 
L 251.292465 350.805457 
L 259.73969 350.587051 
L 268.186915 350.369163 
L 276.63414 350.150927 
L 285.081364 349.932998 
L 293.528589 349.715189 
L 301.975814 349.49728 
L 310.423039 349.279868 
L 318.870263 349.061975 
L 327.317488 348.844524 
L 335.764713 348.627083 
L 344.211938 348.409621 
L 352.659162 348.192631 
L 361.106387 347.975151 
L 369.553612 347.758196 
L 378.000837 347.541178 
L 386.448062 347.324177 
L 394.895286 347.107636 
L 403.342511 346.890603 
L 411.789736 346.674066 
L 420.236961 346.457507 
L 428.684185 346.240918 
L 437.13141 346.024821 
L 445.578635 345.80822 
L 454.02586 345.592084 
L 462.473085 345.375985 
L 470.920309 345.159823 
L 479.367534 344.944154 
L 487.814759 344.728068 
L 496.261984 344.512339 
L 504.709208 344.296782 
L 513.156433 344.081025 
L 521.603658 343.865748 
L 530.050883 343.650208 
L 538.498107 343.43486 
L 546.945332 343.219889 
L 555.392557 343.00451 
L 563.839782 342.789603 
L 572.287007 342.574656 
L 580.734231 342.359682 
L 589.181456 342.145184 
L 597.628681 341.930284 
L 606.075906 341.715729 
L 614.52313 341.501409 
L 622.970355 341.286798 
L 631.41758 341.072653 
L 639.864805 340.858399 
L 648.31203 340.644157 
L 656.759254 340.43045 
L 665.206479 340.216308 
L 673.653704 340.002486 
L 682.100929 339.788955 
L 690.548153 339.575037 
L 698.995378 339.361596 
L 707.442603 339.148159 
L 715.889828 338.934643 
L 724.337052 338.721603 
L 732.784277 338.508311 
L 741.231502 338.295194 
L 749.678727 338.082543 
L 758.125952 337.869342 
L 766.573176 337.656589 
L 775.020401 337.444091 
L 783.467626 337.23125 
L 791.914851 337.018867 
L 800.362075 336.806494 
L 808.8093 336.594015 
L 817.256525 336.38202 
L 825.70375 336.169818 
L 834.150975 335.957678 
L 842.598199 335.746012 
L 851.045424 335.533991 
L 859.492649 335.322229 
L 867.939874 335.11092 
L 876.387098 334.899069 
L 884.834323 334.687658 
L 893.281548 334.476544 
" clip-path="url(#p79f636b579)" style="fill: none; stroke: #8c6d31; stroke-width: 2; stroke-linecap: round"/>
   </g>
   <g id="line2d_42">
    <path d="M 48.559071 438.97382 
L 57.006295 438.749969 
L 65.45352 438.526104 
L 73.900745 438.302074 
L 82.34797 438.077981 
L 90.795195 437.85383 
L 99.242419 437.629659 
L 107.689644 437.405313 
L 116.136869 437.180891 
L 124.584094 436.956459 
L 133.031318 436.732005 
L 141.478543 436.507441 
L 149.925768 436.282742 
L 158.372993 436.057995 
L 166.820217 435.833235 
L 175.267442 435.608434 
L 183.714667 435.383478 
L 192.161892 435.158451 
L 200.609117 434.933402 
L 209.056341 434.708288 
L 217.503566 434.483153 
L 225.950791 434.25792 
L 234.398016 434.03258 
L 242.84524 433.807192 
L 251.292465 433.581767 
L 259.73969 433.356287 
L 268.186915 433.130783 
L 276.63414 432.905197 
L 285.081364 432.67948 
L 293.528589 432.453733 
L 301.975814 432.227951 
L 310.423039 432.00212 
L 318.870263 431.776236 
L 327.317488 431.5503 
L 335.764713 431.324332 
L 344.211938 431.09823 
L 352.659162 430.872084 
L 361.106387 430.645901 
L 369.553612 430.41969 
L 378.000837 430.193431 
L 386.448062 429.967119 
L 394.895286 429.740767 
L 403.342511 429.514372 
L 411.789736 429.287925 
L 420.236961 429.061432 
L 428.684185 428.834834 
L 437.13141 428.608196 
L 445.578635 428.38152 
L 454.02586 428.154793 
L 462.473085 427.928029 
L 470.920309 427.701231 
L 479.367534 427.474395 
L 487.814759 427.247517 
L 496.261984 427.020593 
L 504.709208 426.793627 
L 513.156433 426.566631 
L 521.603658 426.339593 
L 530.050883 426.112509 
L 538.498107 425.885379 
L 546.945332 425.658221 
L 555.392557 425.43103 
L 563.839782 425.203796 
L 572.287007 424.976517 
L 580.734231 424.749186 
L 589.181456 424.521843 
L 597.628681 424.294439 
L 606.075906 424.067025 
L 614.52313 423.839539 
L 622.970355 423.612057 
L 631.41758 423.384523 
L 639.864805 423.156941 
L 648.31203 422.929328 
L 656.759254 422.70172 
L 665.206479 422.474067 
L 673.653704 422.246371 
L 682.100929 422.018635 
L 690.548153 421.790864 
L 698.995378 421.563067 
L 707.442603 421.33524 
L 715.889828 421.107388 
L 724.337052 420.879516 
L 732.784277 420.651643 
L 741.231502 420.42373 
L 749.678727 420.195782 
L 758.125952 419.967818 
L 766.573176 419.739825 
L 775.020401 419.511816 
L 783.467626 419.283792 
L 791.914851 419.055731 
L 800.362075 418.827659 
L 808.8093 418.599573 
L 817.256525 418.371477 
L 825.70375 418.14337 
L 834.150975 417.915149 
L 842.598199 417.686926 
L 851.045424 417.458711 
L 859.492649 417.230464 
L 867.939874 417.002209 
L 876.387098 416.773956 
L 884.834323 416.545682 
L 893.281548 416.31739 
" clip-path="url(#p79f636b579)" style="fill: none; stroke: #e7cb94; stroke-width: 2; stroke-linecap: round"/>
   </g>
   <g id="line2d_43">
    <path d="M 48.559071 473.477867 
L 57.006295 473.27754 
L 65.45352 473.077001 
L 73.900745 472.876245 
L 82.34797 472.675281 
L 90.795195 472.474079 
L 99.242419 472.27269 
L 107.689644 472.071064 
L 116.136869 471.869226 
L 124.584094 471.667199 
L 133.031318 471.464976 
L 141.478543 471.262555 
L 149.925768 471.059883 
L 158.372993 470.857036 
L 166.820217 470.65397 
L 175.267442 470.450723 
L 183.714667 470.247262 
L 192.161892 470.043576 
L 200.609117 469.839739 
L 209.056341 469.635672 
L 217.503566 469.431413 
L 225.950791 469.226971 
L 234.398016 469.022334 
L 242.84524 468.817475 
L 251.292465 468.612447 
L 259.73969 468.407237 
L 268.186915 468.201814 
L 276.63414 467.996202 
L 285.081364 467.7904 
L 293.528589 467.584432 
L 301.975814 467.378258 
L 310.423039 467.171889 
L 318.870263 466.965342 
L 327.317488 466.758611 
L 335.764713 466.551715 
L 344.211938 466.344616 
L 352.659162 466.137321 
L 361.106387 465.929858 
L 369.553612 465.722233 
L 378.000837 465.51443 
L 386.448062 465.306445 
L 394.895286 465.098292 
L 403.342511 464.889964 
L 411.789736 464.681453 
L 420.236961 464.472759 
L 428.684185 464.26389 
L 437.13141 464.054846 
L 445.578635 463.845638 
L 454.02586 463.636252 
L 462.473085 463.426704 
L 470.920309 463.216993 
L 479.367534 463.00712 
L 487.814759 462.797079 
L 496.261984 462.586869 
L 504.709208 462.376498 
L 513.156433 462.16597 
L 521.603658 461.955282 
L 530.050883 461.744426 
L 538.498107 461.53341 
L 546.945332 461.322244 
L 555.392557 461.11092 
L 563.839782 460.89942 
L 572.287007 460.687759 
L 580.734231 460.475934 
L 589.181456 460.263975 
L 597.628681 460.051848 
L 606.075906 459.839594 
L 614.52313 459.627166 
L 622.970355 459.414622 
L 631.41758 459.2019 
L 639.864805 458.989001 
L 648.31203 458.77596 
L 656.759254 458.562815 
L 665.206479 458.34952 
L 673.653704 458.136084 
L 682.100929 457.92246 
L 690.548153 457.708686 
L 698.995378 457.494782 
L 707.442603 457.280756 
L 715.889828 457.066594 
L 724.337052 456.852249 
L 732.784277 456.637802 
L 741.231502 456.423228 
L 749.678727 456.208518 
L 758.125952 455.993621 
L 766.573176 455.778608 
L 775.020401 455.563491 
L 783.467626 455.348219 
L 791.914851 455.13278 
L 800.362075 454.917248 
L 808.8093 454.701593 
L 817.256525 454.485759 
L 825.70375 454.269838 
L 834.150975 454.053784 
L 842.598199 453.837549 
L 851.045424 453.621246 
L 859.492649 453.404814 
L 867.939874 453.188205 
L 876.387098 452.971536 
L 884.834323 452.754704 
L 893.281548 452.537729 
" clip-path="url(#p79f636b579)" style="fill: none; stroke: #ad494a; stroke-width: 2; stroke-linecap: round"/>
   </g>
   <g id="line2d_44">
    <path d="M 48.559071 490.802807 
L 57.006295 490.627561 
L 65.45352 490.452003 
L 73.900745 490.276108 
L 82.34797 490.099901 
L 90.795195 489.923355 
L 99.242419 489.746494 
L 107.689644 489.569304 
L 116.136869 489.391795 
L 124.584094 489.213985 
L 133.031318 489.035863 
L 141.478543 488.857424 
L 149.925768 488.678658 
L 158.372993 488.499577 
L 166.820217 488.320205 
L 175.267442 488.140524 
L 183.714667 487.960517 
L 192.161892 487.780209 
L 200.609117 487.599611 
L 209.056341 487.418692 
L 217.503566 487.237488 
L 225.950791 487.055976 
L 234.398016 486.874171 
L 242.84524 486.692049 
L 251.292465 486.509638 
L 259.73969 486.326928 
L 268.186915 486.143941 
L 276.63414 485.960651 
L 285.081364 485.77705 
L 293.528589 485.593175 
L 301.975814 485.409018 
L 310.423039 485.224556 
L 318.870263 485.039818 
L 327.317488 484.854779 
L 335.764713 484.669465 
L 344.211938 484.483867 
L 352.659162 484.297976 
L 361.106387 484.111825 
L 369.553612 483.925386 
L 378.000837 483.73868 
L 386.448062 483.55168 
L 394.895286 483.364414 
L 403.342511 483.176877 
L 411.789736 482.989048 
L 420.236961 482.800966 
L 428.684185 482.612601 
L 437.13141 482.423957 
L 445.578635 482.235062 
L 454.02586 482.045889 
L 462.473085 481.856441 
L 470.920309 481.66674 
L 479.367534 481.476785 
L 487.814759 481.286567 
L 496.261984 481.096066 
L 504.709208 480.905313 
L 513.156433 480.714308 
L 521.603658 480.523049 
L 530.050883 480.331529 
L 538.498107 480.139752 
L 546.945332 479.947726 
L 555.392557 479.755446 
L 563.839782 479.562909 
L 572.287007 479.370117 
L 580.734231 479.177067 
L 589.181456 478.983787 
L 597.628681 478.790244 
L 606.075906 478.596473 
L 614.52313 478.402435 
L 622.970355 478.208169 
L 631.41758 478.01365 
L 639.864805 477.81888 
L 648.31203 477.623871 
L 656.759254 477.428652 
L 665.206479 477.233186 
L 673.653704 477.037482 
L 682.100929 476.84154 
L 690.548153 476.645337 
L 698.995378 476.448906 
L 707.442603 476.252252 
L 715.889828 476.055376 
L 724.337052 475.858259 
L 732.784277 475.660923 
L 741.231502 475.463362 
L 749.678727 475.26558 
L 758.125952 475.067542 
L 766.573176 474.869293 
L 775.020401 474.670842 
L 783.467626 474.472129 
L 791.914851 474.273209 
L 800.362075 474.074079 
L 808.8093 473.874706 
L 817.256525 473.675149 
L 825.70375 473.475346 
L 834.150975 473.275328 
L 842.598199 473.075096 
L 851.045424 472.874661 
L 859.492649 472.67401 
L 867.939874 472.473136 
L 876.387098 472.272074 
L 884.834323 472.070779 
L 893.281548 471.869276 
" clip-path="url(#p79f636b579)" style="fill: none; stroke: #e7969c; stroke-width: 2; stroke-linecap: round"/>
   </g>
   <g id="line2d_45">
    <path d="M 48.559071 500.589397 
L 57.006295 500.436265 
L 65.45352 500.282735 
L 73.900745 500.128791 
L 82.34797 499.974434 
L 90.795195 499.81966 
L 99.242419 499.664495 
L 107.689644 499.508907 
L 116.136869 499.352916 
L 124.584094 499.196533 
L 133.031318 499.039769 
L 141.478543 498.882592 
L 149.925768 498.72501 
L 158.372993 498.567033 
L 166.820217 498.408673 
L 175.267442 498.24992 
L 183.714667 498.090762 
L 192.161892 497.93122 
L 200.609117 497.771303 
L 209.056341 497.610985 
L 217.503566 497.450297 
L 225.950791 497.289218 
L 234.398016 497.127764 
L 242.84524 496.96592 
L 251.292465 496.803701 
L 259.73969 496.641103 
L 268.186915 496.47814 
L 276.63414 496.314793 
L 285.081364 496.151071 
L 293.528589 495.986976 
L 301.975814 495.822523 
L 310.423039 495.657692 
L 318.870263 495.492501 
L 327.317488 495.326929 
L 335.764713 495.161004 
L 344.211938 494.994714 
L 352.659162 494.828059 
L 361.106387 494.661047 
L 369.553612 494.493687 
L 378.000837 494.325969 
L 386.448062 494.15789 
L 394.895286 493.989462 
L 403.342511 493.820678 
L 411.789736 493.65154 
L 420.236961 493.482055 
L 428.684185 493.312218 
L 437.13141 493.14203 
L 445.578635 492.971502 
L 454.02586 492.800626 
L 462.473085 492.629412 
L 470.920309 492.45785 
L 479.367534 492.285955 
L 487.814759 492.113728 
L 496.261984 491.941149 
L 504.709208 491.76824 
L 513.156433 491.595007 
L 521.603658 491.421429 
L 530.050883 491.247529 
L 538.498107 491.073281 
L 546.945332 490.898723 
L 555.392557 490.723828 
L 563.839782 490.548612 
L 572.287007 490.37307 
L 580.734231 490.197186 
L 589.181456 490.021003 
L 597.628681 489.844489 
L 606.075906 489.667658 
L 614.52313 489.490491 
L 622.970355 489.313035 
L 631.41758 489.135256 
L 639.864805 488.957156 
L 648.31203 488.778733 
L 656.759254 488.600024 
L 665.206479 488.420996 
L 673.653704 488.241655 
L 682.100929 488.062002 
L 690.548153 487.88204 
L 698.995378 487.701774 
L 707.442603 487.521206 
L 715.889828 487.340337 
L 724.337052 487.159169 
L 732.784277 486.977708 
L 741.231502 486.795942 
L 749.678727 486.613875 
L 758.125952 486.43152 
L 766.573176 486.248874 
L 775.020401 486.065915 
L 783.467626 485.882674 
L 791.914851 485.699143 
L 800.362075 485.515318 
L 808.8093 485.331201 
L 817.256525 485.146814 
L 825.70375 484.962126 
L 834.150975 484.777147 
L 842.598199 484.591891 
L 851.045424 484.406358 
L 859.492649 484.220545 
L 867.939874 484.034441 
L 876.387098 483.848078 
L 884.834323 483.661421 
L 893.281548 483.474482 
" clip-path="url(#p79f636b579)" style="fill: none; stroke: #a55194; stroke-width: 2; stroke-linecap: round"/>
   </g>
   <g id="line2d_46">
    <path d="M 48.559071 506.583999 
L 57.006295 506.449579 
L 65.45352 506.314689 
L 73.900745 506.179316 
L 82.34797 506.043468 
L 90.795195 505.907135 
L 99.242419 505.770338 
L 107.689644 505.633058 
L 116.136869 505.495305 
L 124.584094 505.357092 
L 133.031318 505.218425 
L 141.478543 505.079289 
L 149.925768 504.939678 
L 158.372993 504.799603 
L 166.820217 504.659081 
L 175.267442 504.518098 
L 183.714667 504.376647 
L 192.161892 504.234746 
L 200.609117 504.092403 
L 209.056341 503.949593 
L 217.503566 503.806348 
L 225.950791 503.662647 
L 234.398016 503.518501 
L 242.84524 503.373909 
L 251.292465 503.228877 
L 259.73969 503.083399 
L 268.186915 502.937488 
L 276.63414 502.791135 
L 285.081364 502.644337 
L 293.528589 502.497109 
L 301.975814 502.349455 
L 310.423039 502.201363 
L 318.870263 502.052839 
L 327.317488 501.903884 
L 335.764713 501.754506 
L 344.211938 501.604696 
L 352.659162 501.454467 
L 361.106387 501.303816 
L 369.553612 501.152751 
L 378.000837 501.001265 
L 386.448062 500.849358 
L 394.895286 500.697039 
L 403.342511 500.544303 
L 411.789736 500.391153 
L 420.236961 500.237595 
L 428.684185 500.083626 
L 437.13141 499.92924 
L 445.578635 499.774453 
L 454.02586 499.61926 
L 462.473085 499.463659 
L 470.920309 499.307667 
L 479.367534 499.151268 
L 487.814759 498.994477 
L 496.261984 498.837282 
L 504.709208 498.679691 
L 513.156433 498.521712 
L 521.603658 498.363342 
L 530.050883 498.204576 
L 538.498107 498.045416 
L 546.945332 497.885872 
L 555.392557 497.725945 
L 563.839782 497.565632 
L 572.287007 497.404933 
L 580.734231 497.24384 
L 589.181456 497.08238 
L 597.628681 496.920529 
L 606.075906 496.758318 
L 614.52313 496.595709 
L 622.970355 496.432742 
L 631.41758 496.269402 
L 639.864805 496.105673 
L 648.31203 495.941581 
L 656.759254 495.777135 
L 665.206479 495.612322 
L 673.653704 495.447126 
L 682.100929 495.28157 
L 690.548153 495.115649 
L 698.995378 494.949359 
L 707.442603 494.782714 
L 715.889828 494.615711 
L 724.337052 494.448357 
L 732.784277 494.280658 
L 741.231502 494.112593 
L 749.678727 493.94417 
L 758.125952 493.7754 
L 766.573176 493.606279 
L 775.020401 493.43681 
L 783.467626 493.266994 
L 791.914851 493.09682 
L 800.362075 492.926307 
L 808.8093 492.755452 
L 817.256525 492.584261 
L 825.70375 492.412733 
L 834.150975 492.240842 
L 842.598199 492.068626 
L 851.045424 491.896087 
L 859.492649 491.723194 
L 867.939874 491.54998 
L 876.387098 491.37643 
L 884.834323 491.202551 
L 893.281548 491.028328 
" clip-path="url(#p79f636b579)" style="fill: none; stroke: #de9ed6; stroke-width: 2; stroke-linecap: round"/>
   </g>
   <g id="patch_3">
    <path d="M 48.559071 521.153031 
L 48.559071 51.564121 
" style="fill: none"/>
   </g>
   <g id="patch_4">
    <path d="M 935.517672 521.153031 
L 935.517672 51.564121 
" style="fill: none"/>
   </g>
   <g id="patch_5">
    <path d="M 48.559071 521.153031 
L 935.517672 521.153031 
" style="fill: none"/>
   </g>
   <g id="patch_6">
    <path d="M 48.559071 51.564121 
L 935.517672 51.564121 
" style="fill: none"/>
   </g>
   <g id="patch_7">
    <path d="M 470.920309 79.708231 
Q 470.920309 285.148405 470.920309 488.911529 
" style="fill: none; stroke: #000000; stroke-width: 1.5; stroke-linecap: round"/>
    <path d="M 474.120309 482.511529 
L 470.920309 488.911529 
L 467.720309 482.511529 
" style="fill: none; stroke: #000000; stroke-width: 1.5; stroke-linecap: round"/>
   </g>
   <g id="text_20">
    <!-- Time -->
    <g style="fill: #262626" transform="translate(492.038371 489.100784) scale(0.18 -0.18)">
     <defs>
      <path id="CMR17-54" d="M 3981 4326 
L 288 4326 
L 179 2918 
L 294 2918 
C 378 3976 467 4160 1453 4160 
C 1568 4160 1754 4160 1805 4154 
C 1926 4135 1926 4058 1926 3912 
L 1926 459 
C 1926 230 1907 160 1376 160 
L 1197 160 
L 1197 0 
C 1504 0 1824 0 2138 0 
C 2451 0 2771 0 3078 0 
L 3078 160 
L 2899 160 
C 2368 160 2349 230 2349 459 
L 2349 3912 
C 2349 4052 2349 4129 2464 4154 
C 2515 4160 2701 4160 2816 4160 
C 3795 4160 3891 3976 3974 2918 
L 4090 2918 
L 3981 4326 
z
" transform="scale(0.015625)"/>
      <path id="CMR17-69" d="M 992 3909 
C 992 4049 877 4170 730 4170 
C 589 4170 467 4056 467 3909 
C 467 3769 582 3648 730 3648 
C 870 3648 992 3763 992 3909 
z
M 243 2706 
L 243 2541 
C 602 2541 653 2502 653 2197 
L 653 427 
C 653 184 627 153 218 153 
L 218 -13 
C 371 0 646 0 806 0 
C 960 0 1222 0 1370 -13 
L 1370 153 
C 992 153 979 191 979 420 
L 979 2776 
L 243 2706 
z
" transform="scale(0.015625)"/>
      <path id="CMR17-6d" d="M 4326 1933 
C 4326 2252 4269 2790 3507 2790 
C 3072 2790 2771 2496 2656 2151 
L 2650 2151 
C 2573 2676 2195 2790 1837 2790 
C 1331 2790 1069 2400 973 2144 
L 966 2144 
L 966 2790 
L 211 2720 
L 211 2554 
C 589 2554 646 2515 646 2208 
L 646 428 
C 646 184 621 153 211 153 
L 211 -13 
C 365 0 646 0 813 0 
C 979 0 1267 0 1421 -13 
L 1421 153 
C 1011 153 986 178 986 428 
L 986 1658 
C 986 2247 1344 2688 1792 2688 
C 2266 2688 2317 2266 2317 1958 
L 2317 428 
C 2317 184 2291 153 1882 153 
L 1882 -13 
C 2035 0 2317 0 2483 0 
C 2650 0 2938 0 3091 -13 
L 3091 153 
C 2682 153 2656 178 2656 428 
L 2656 1658 
C 2656 2247 3014 2688 3462 2688 
C 3936 2688 3987 2266 3987 1958 
L 3987 428 
C 3987 184 3962 153 3552 153 
L 3552 -13 
C 3706 0 3987 0 4154 0 
C 4320 0 4608 0 4762 -13 
L 4762 153 
C 4352 153 4326 178 4326 428 
L 4326 1933 
z
" transform="scale(0.015625)"/>
      <path id="CMR17-65" d="M 2438 1472 
C 2464 1498 2464 1511 2464 1576 
C 2464 2238 2118 2816 1389 2816 
C 710 2816 173 2169 173 1383 
C 173 551 781 -64 1459 -64 
C 2176 -64 2458 607 2458 740 
C 2458 784 2419 784 2406 784 
C 2362 784 2355 771 2330 696 
C 2189 265 1837 51 1504 51 
C 1229 51 954 203 781 480 
C 582 803 582 1176 582 1472 
L 2438 1472 
z
M 589 1568 
C 634 2505 1126 2714 1382 2714 
C 1818 2714 2112 2297 2118 1568 
L 589 1568 
z
" transform="scale(0.015625)"/>
     </defs>
     <use xlink:href="#CMR17-54" transform="scale(0.996264)"/>
     <use xlink:href="#CMR17-69" transform="translate(66.509881 0) scale(0.996264)"/>
     <use xlink:href="#CMR17-6d" transform="translate(91.380939 0) scale(0.996264)"/>
     <use xlink:href="#CMR17-65" transform="translate(168.300529 0) scale(0.996264)"/>
    </g>
   </g>
   <g id="legend_1">
    <g id="line2d_47">
     <path d="M 948.117672 197.198434 
L 962.117672 197.198434 
L 976.117672 197.198434 
" style="fill: none; stroke: #393b79; stroke-width: 2; stroke-linecap: round"/>
    </g>
    <g id="text_21">
     <!-- t = 0.00 -->
     <g style="fill: #262626" transform="translate(987.317672 202.098434) scale(0.14 -0.14)">
      <defs>
       <path id="CMR17-74" d="M 966 2560 
L 1862 2560 
L 1862 2725 
L 966 2725 
L 966 3904 
L 851 3904 
C 838 3245 614 2668 70 2668 
L 70 2560 
L 627 2560 
L 627 771 
C 627 650 627 -64 1370 -64 
C 1747 -64 1965 306 1965 777 
L 1965 1140 
L 1850 1140 
L 1850 783 
C 1850 344 1677 51 1408 51 
C 1222 51 966 178 966 758 
L 966 2560 
z
" transform="scale(0.015625)"/>
       <path id="CMR17-3d" d="M 4115 2017 
C 4211 2017 4307 2017 4307 2125 
C 4307 2240 4198 2240 4090 2240 
L 512 2240 
C 403 2240 294 2240 294 2125 
C 294 2017 390 2017 486 2017 
L 4115 2017 
z
M 4090 896 
C 4198 896 4307 896 4307 1011 
C 4307 1119 4211 1119 4115 1119 
L 486 1119 
C 390 1119 294 1119 294 1011 
C 294 896 403 896 512 896 
L 4090 896 
z
" transform="scale(0.015625)"/>
       <path id="CMR17-2e" d="M 1062 261 
C 1062 420 934 522 800 522 
C 672 522 538 420 538 261 
C 538 102 666 0 800 0 
C 928 0 1062 102 1062 261 
z
" transform="scale(0.015625)"/>
      </defs>
      <use xlink:href="#CMR17-74" transform="scale(0.996264)"/>
      <use xlink:href="#CMR17-3d" transform="translate(65.356734 0) scale(0.996264)"/>
      <use xlink:href="#CMR17-30" transform="translate(167.147489 0) scale(0.996264)"/>
      <use xlink:href="#CMR17-2e" transform="translate(212.837966 0) scale(0.996264)"/>
      <use xlink:href="#CMR17-30" transform="translate(237.709025 0) scale(0.996264)"/>
      <use xlink:href="#CMR17-30" transform="translate(283.399502 0) scale(0.996264)"/>
     </g>
    </g>
    <g id="line2d_48">
     <path d="M 948.117672 216.710462 
L 962.117672 216.710462 
L 976.117672 216.710462 
" style="fill: none; stroke: #6b6ecf; stroke-width: 2; stroke-linecap: round"/>
    </g>
    <g id="text_22">
     <!-- t = 10.00 -->
     <g style="fill: #262626" transform="translate(987.317672 221.610462) scale(0.14 -0.14)">
      <use xlink:href="#CMR17-74" transform="scale(0.996264)"/>
      <use xlink:href="#CMR17-3d" transform="translate(65.356734 0) scale(0.996264)"/>
      <use xlink:href="#CMR17-31" transform="translate(167.147489 0) scale(0.996264)"/>
      <use xlink:href="#CMR17-30" transform="translate(212.837966 0) scale(0.996264)"/>
      <use xlink:href="#CMR17-2e" transform="translate(258.528443 0) scale(0.996264)"/>
      <use xlink:href="#CMR17-30" transform="translate(283.399502 0) scale(0.996264)"/>
      <use xlink:href="#CMR17-30" transform="translate(329.089979 0) scale(0.996264)"/>
     </g>
    </g>
    <g id="line2d_49">
     <path d="M 948.117672 236.222491 
L 962.117672 236.222491 
L 976.117672 236.222491 
" style="fill: none; stroke: #637939; stroke-width: 2; stroke-linecap: round"/>
    </g>
    <g id="text_23">
     <!-- t = 50.00 -->
     <g style="fill: #262626" transform="translate(987.317672 241.122491) scale(0.14 -0.14)">
      <use xlink:href="#CMR17-74" transform="scale(0.996264)"/>
      <use xlink:href="#CMR17-3d" transform="translate(65.356734 0) scale(0.996264)"/>
      <use xlink:href="#CMR17-35" transform="translate(167.147489 0) scale(0.996264)"/>
      <use xlink:href="#CMR17-30" transform="translate(212.837966 0) scale(0.996264)"/>
      <use xlink:href="#CMR17-2e" transform="translate(258.528443 0) scale(0.996264)"/>
      <use xlink:href="#CMR17-30" transform="translate(283.399502 0) scale(0.996264)"/>
      <use xlink:href="#CMR17-30" transform="translate(329.089979 0) scale(0.996264)"/>
     </g>
    </g>
    <g id="line2d_50">
     <path d="M 948.117672 255.734519 
L 962.117672 255.734519 
L 976.117672 255.734519 
" style="fill: none; stroke: #b5cf6b; stroke-width: 2; stroke-linecap: round"/>
    </g>
    <g id="text_24">
     <!-- t = 100.00 -->
     <g style="fill: #262626" transform="translate(987.317672 260.634519) scale(0.14 -0.14)">
      <use xlink:href="#CMR17-74" transform="scale(0.996264)"/>
      <use xlink:href="#CMR17-3d" transform="translate(65.356734 0) scale(0.996264)"/>
      <use xlink:href="#CMR17-31" transform="translate(167.147489 0) scale(0.996264)"/>
      <use xlink:href="#CMR17-30" transform="translate(212.837966 0) scale(0.996264)"/>
      <use xlink:href="#CMR17-30" transform="translate(258.528443 0) scale(0.996264)"/>
      <use xlink:href="#CMR17-2e" transform="translate(304.21892 0) scale(0.996264)"/>
      <use xlink:href="#CMR17-30" transform="translate(329.089979 0) scale(0.996264)"/>
      <use xlink:href="#CMR17-30" transform="translate(374.780456 0) scale(0.996264)"/>
     </g>
    </g>
    <g id="line2d_51">
     <path d="M 948.117672 275.246547 
L 962.117672 275.246547 
L 976.117672 275.246547 
" style="fill: none; stroke: #8c6d31; stroke-width: 2; stroke-linecap: round"/>
    </g>
    <g id="text_25">
     <!-- t = 250.00 -->
     <g style="fill: #262626" transform="translate(987.317672 280.146547) scale(0.14 -0.14)">
      <use xlink:href="#CMR17-74" transform="scale(0.996264)"/>
      <use xlink:href="#CMR17-3d" transform="translate(65.356734 0) scale(0.996264)"/>
      <use xlink:href="#CMR17-32" transform="translate(167.147489 0) scale(0.996264)"/>
      <use xlink:href="#CMR17-35" transform="translate(212.837966 0) scale(0.996264)"/>
      <use xlink:href="#CMR17-30" transform="translate(258.528443 0) scale(0.996264)"/>
      <use xlink:href="#CMR17-2e" transform="translate(304.21892 0) scale(0.996264)"/>
      <use xlink:href="#CMR17-30" transform="translate(329.089979 0) scale(0.996264)"/>
      <use xlink:href="#CMR17-30" transform="translate(374.780456 0) scale(0.996264)"/>
     </g>
    </g>
    <g id="line2d_52">
     <path d="M 948.117672 294.758576 
L 962.117672 294.758576 
L 976.117672 294.758576 
" style="fill: none; stroke: #e7cb94; stroke-width: 2; stroke-linecap: round"/>
    </g>
    <g id="text_26">
     <!-- t = 500.00 -->
     <g style="fill: #262626" transform="translate(987.317672 299.658576) scale(0.14 -0.14)">
      <use xlink:href="#CMR17-74" transform="scale(0.996264)"/>
      <use xlink:href="#CMR17-3d" transform="translate(65.356734 0) scale(0.996264)"/>
      <use xlink:href="#CMR17-35" transform="translate(167.147489 0) scale(0.996264)"/>
      <use xlink:href="#CMR17-30" transform="translate(212.837966 0) scale(0.996264)"/>
      <use xlink:href="#CMR17-30" transform="translate(258.528443 0) scale(0.996264)"/>
      <use xlink:href="#CMR17-2e" transform="translate(304.21892 0) scale(0.996264)"/>
      <use xlink:href="#CMR17-30" transform="translate(329.089979 0) scale(0.996264)"/>
      <use xlink:href="#CMR17-30" transform="translate(374.780456 0) scale(0.996264)"/>
     </g>
    </g>
    <g id="line2d_53">
     <path d="M 948.117672 314.270604 
L 962.117672 314.270604 
L 976.117672 314.270604 
" style="fill: none; stroke: #ad494a; stroke-width: 2; stroke-linecap: round"/>
    </g>
    <g id="text_27">
     <!-- t = 750.00 -->
     <g style="fill: #262626" transform="translate(987.317672 319.170604) scale(0.14 -0.14)">
      <use xlink:href="#CMR17-74" transform="scale(0.996264)"/>
      <use xlink:href="#CMR17-3d" transform="translate(65.356734 0) scale(0.996264)"/>
      <use xlink:href="#CMR17-37" transform="translate(167.147489 0) scale(0.996264)"/>
      <use xlink:href="#CMR17-35" transform="translate(212.837966 0) scale(0.996264)"/>
      <use xlink:href="#CMR17-30" transform="translate(258.528443 0) scale(0.996264)"/>
      <use xlink:href="#CMR17-2e" transform="translate(304.21892 0) scale(0.996264)"/>
      <use xlink:href="#CMR17-30" transform="translate(329.089979 0) scale(0.996264)"/>
      <use xlink:href="#CMR17-30" transform="translate(374.780456 0) scale(0.996264)"/>
     </g>
    </g>
    <g id="line2d_54">
     <path d="M 948.117672 333.782633 
L 962.117672 333.782633 
L 976.117672 333.782633 
" style="fill: none; stroke: #e7969c; stroke-width: 2; stroke-linecap: round"/>
    </g>
    <g id="text_28">
     <!-- t = 1000.00 -->
     <g style="fill: #262626" transform="translate(987.317672 338.682633) scale(0.14 -0.14)">
      <use xlink:href="#CMR17-74" transform="scale(0.996264)"/>
      <use xlink:href="#CMR17-3d" transform="translate(65.356734 0) scale(0.996264)"/>
      <use xlink:href="#CMR17-31" transform="translate(167.147489 0) scale(0.996264)"/>
      <use xlink:href="#CMR17-30" transform="translate(212.837966 0) scale(0.996264)"/>
      <use xlink:href="#CMR17-30" transform="translate(258.528443 0) scale(0.996264)"/>
      <use xlink:href="#CMR17-30" transform="translate(304.21892 0) scale(0.996264)"/>
      <use xlink:href="#CMR17-2e" transform="translate(349.909397 0) scale(0.996264)"/>
      <use xlink:href="#CMR17-30" transform="translate(374.780456 0) scale(0.996264)"/>
      <use xlink:href="#CMR17-30" transform="translate(420.470933 0) scale(0.996264)"/>
     </g>
    </g>
    <g id="line2d_55">
     <path d="M 948.117672 353.294661 
L 962.117672 353.294661 
L 976.117672 353.294661 
" style="fill: none; stroke: #a55194; stroke-width: 2; stroke-linecap: round"/>
    </g>
    <g id="text_29">
     <!-- t = 1250.00 -->
     <g style="fill: #262626" transform="translate(987.317672 358.194661) scale(0.14 -0.14)">
      <use xlink:href="#CMR17-74" transform="scale(0.996264)"/>
      <use xlink:href="#CMR17-3d" transform="translate(65.356734 0) scale(0.996264)"/>
      <use xlink:href="#CMR17-31" transform="translate(167.147489 0) scale(0.996264)"/>
      <use xlink:href="#CMR17-32" transform="translate(212.837966 0) scale(0.996264)"/>
      <use xlink:href="#CMR17-35" transform="translate(258.528443 0) scale(0.996264)"/>
      <use xlink:href="#CMR17-30" transform="translate(304.21892 0) scale(0.996264)"/>
      <use xlink:href="#CMR17-2e" transform="translate(349.909397 0) scale(0.996264)"/>
      <use xlink:href="#CMR17-30" transform="translate(374.780456 0) scale(0.996264)"/>
      <use xlink:href="#CMR17-30" transform="translate(420.470933 0) scale(0.996264)"/>
     </g>
    </g>
    <g id="line2d_56">
     <path d="M 948.117672 372.806689 
L 962.117672 372.806689 
L 976.117672 372.806689 
" style="fill: none; stroke: #de9ed6; stroke-width: 2; stroke-linecap: round"/>
    </g>
    <g id="text_30">
     <!-- t = 1500.00 -->
     <g style="fill: #262626" transform="translate(987.317672 377.706689) scale(0.14 -0.14)">
      <use xlink:href="#CMR17-74" transform="scale(0.996264)"/>
      <use xlink:href="#CMR17-3d" transform="translate(65.356734 0) scale(0.996264)"/>
      <use xlink:href="#CMR17-31" transform="translate(167.147489 0) scale(0.996264)"/>
      <use xlink:href="#CMR17-35" transform="translate(212.837966 0) scale(0.996264)"/>
      <use xlink:href="#CMR17-30" transform="translate(258.528443 0) scale(0.996264)"/>
      <use xlink:href="#CMR17-30" transform="translate(304.21892 0) scale(0.996264)"/>
      <use xlink:href="#CMR17-2e" transform="translate(349.909397 0) scale(0.996264)"/>
      <use xlink:href="#CMR17-30" transform="translate(374.780456 0) scale(0.996264)"/>
      <use xlink:href="#CMR17-30" transform="translate(420.470933 0) scale(0.996264)"/>
     </g>
    </g>
   </g>
  </g>
  <g id="text_31">
   <!-- permeability -->
   <g style="fill: #262626" transform="translate(492.111452 24.803515) scale(0.192 -0.192)">
    <defs>
     <path id="CMR17-70" d="M 1408 -1063 
C 998 -1063 973 -1037 973 -789 
L 973 402 
C 1158 134 1427 -38 1766 -38 
C 2406 -38 3053 523 3053 1388 
C 3053 2191 2496 2802 1837 2802 
C 1453 2802 1139 2592 960 2338 
L 960 2802 
L 198 2732 
L 198 2567 
C 576 2567 634 2528 634 2223 
L 634 -789 
C 634 -1031 608 -1063 198 -1063 
L 198 -1228 
C 352 -1216 634 -1216 800 -1216 
C 966 -1216 1254 -1216 1408 -1228 
L 1408 -1063 
z
M 973 2012 
C 973 2102 973 2235 1222 2471 
C 1254 2497 1472 2688 1792 2688 
C 2259 2688 2643 2108 2643 1382 
C 2643 656 2234 64 1728 64 
C 1498 64 1248 172 1056 472 
C 973 612 973 650 973 752 
L 973 2012 
z
" transform="scale(0.015625)"/>
     <path id="CMR17-72" d="M 960 1497 
C 960 2112 1222 2688 1702 2688 
C 1747 2688 1792 2682 1837 2662 
C 1837 2662 1696 2617 1696 2452 
C 1696 2298 1818 2234 1914 2234 
C 1990 2234 2131 2279 2131 2458 
C 2131 2663 1926 2790 1709 2790 
C 1222 2790 1011 2317 947 2093 
L 941 2093 
L 941 2790 
L 198 2720 
L 198 2554 
C 576 2554 634 2515 634 2208 
L 634 428 
C 634 184 608 153 198 153 
L 198 -13 
C 352 0 646 0 813 0 
C 998 0 1325 0 1498 -13 
L 1498 153 
C 1037 153 960 153 960 440 
L 960 1497 
z
" transform="scale(0.015625)"/>
     <path id="CMR17-61" d="M 2304 1653 
C 2304 2072 2304 2294 2035 2543 
C 1798 2752 1523 2816 1306 2816 
C 800 2816 435 2407 435 1971 
C 435 1728 627 1728 666 1728 
C 749 1728 896 1778 896 1954 
C 896 2112 774 2181 666 2181 
C 640 2181 608 2174 589 2168 
C 723 2592 1069 2714 1293 2714 
C 1613 2714 1965 2429 1965 1885 
L 1965 1600 
C 1587 1600 1133 1549 774 1357 
C 371 1133 256 813 256 570 
C 256 77 832 -64 1171 -64 
C 1523 -64 1850 139 1990 511 
C 2003 233 2182 -18 2464 -18 
C 2598 -18 2938 70 2938 567 
L 2938 920 
L 2822 920 
L 2822 562 
C 2822 178 2650 128 2566 128 
C 2304 128 2304 458 2304 738 
L 2304 1653 
z
M 1965 870 
C 1965 317 1568 38 1216 38 
C 896 38 646 275 646 570 
C 646 761 730 1100 1101 1305 
C 1408 1478 1760 1504 1965 1504 
L 1965 870 
z
" transform="scale(0.015625)"/>
     <path id="CMR17-62" d="M 960 4396 
L 198 4326 
L 198 4160 
C 576 4160 634 4122 634 3817 
L 634 -13 
L 749 -13 
L 934 441 
C 1120 141 1395 -64 1766 -64 
C 2406 -64 3053 500 3053 1370 
C 3053 2188 2477 2790 1830 2790 
C 1434 2790 1152 2579 960 2330 
L 960 4396 
z
M 973 2004 
C 973 2118 973 2138 1062 2272 
C 1312 2657 1670 2688 1792 2688 
C 1984 2688 2643 2585 2643 1376 
C 2643 108 1888 38 1734 38 
C 1536 38 1248 114 1043 486 
C 973 608 973 621 973 735 
L 973 2004 
z
" transform="scale(0.015625)"/>
     <path id="CMR17-6c" d="M 979 4396 
L 218 4326 
L 218 4160 
C 595 4160 653 4122 653 3817 
L 653 426 
C 653 184 627 153 218 153 
L 218 -13 
C 371 0 653 0 813 0 
C 979 0 1261 0 1414 -13 
L 1414 153 
C 1005 153 979 178 979 426 
L 979 4396 
z
" transform="scale(0.015625)"/>
     <path id="CMR17-79" d="M 2496 2197 
C 2656 2586 2944 2586 3034 2586 
L 3034 2752 
C 2912 2752 2752 2752 2630 2752 
C 2496 2752 2285 2752 2157 2758 
L 2157 2592 
C 2400 2573 2406 2394 2406 2343 
C 2406 2280 2394 2248 2362 2171 
L 1664 449 
L 902 2306 
C 870 2382 870 2426 870 2433 
C 870 2573 1018 2586 1171 2586 
L 1171 2758 
C 1018 2752 742 2752 582 2752 
C 410 2752 205 2752 64 2758 
L 64 2586 
C 410 2586 448 2554 531 2350 
L 1485 15 
C 1197 -738 1030 -1178 627 -1178 
C 557 -1178 397 -1159 282 -1044 
C 429 -1031 493 -942 493 -833 
C 493 -725 416 -629 288 -629 
C 147 -629 77 -725 77 -840 
C 77 -1095 339 -1280 627 -1280 
C 998 -1280 1229 -922 1357 -604 
L 2496 2197 
z
" transform="scale(0.015625)"/>
    </defs>
    <use xlink:href="#CMR17-70" transform="scale(0.996264)"/>
    <use xlink:href="#CMR17-65" transform="translate(53.497809 0) scale(0.996264)"/>
    <use xlink:href="#CMR17-72" transform="translate(93.983469 0) scale(0.996264)"/>
    <use xlink:href="#CMR17-6d" transform="translate(129.264237 0) scale(0.996264)"/>
    <use xlink:href="#CMR17-65" transform="translate(206.183827 0) scale(0.996264)"/>
    <use xlink:href="#CMR17-61" transform="translate(246.669487 0) scale(0.996264)"/>
    <use xlink:href="#CMR17-62" transform="translate(292.359964 0) scale(0.996264)"/>
    <use xlink:href="#CMR17-69" transform="translate(343.255334 0) scale(0.996264)"/>
    <use xlink:href="#CMR17-6c" transform="translate(368.126392 0) scale(0.996264)"/>
    <use xlink:href="#CMR17-69" transform="translate(392.997451 0) scale(0.996264)"/>
    <use xlink:href="#CMR17-74" transform="translate(417.868509 0) scale(0.996264)"/>
    <use xlink:href="#CMR17-79" transform="translate(450.546823 0) scale(0.996264)"/>
   </g>
  </g>
 </g>
 <defs>
  <clipPath id="p79f636b579">
   <rect x="48.559071" y="51.564121" width="886.958601" height="469.58891"/>
  </clipPath>
 </defs>
</svg>
