<?xml version="1.0" encoding="utf-8" standalone="no"?>
<!DOCTYPE svg PUBLIC "-//W3C//DTD SVG 1.1//EN"
  "http://www.w3.org/Graphics/SVG/1.1/DTD/svg11.dtd">
<svg xmlns:xlink="http://www.w3.org/1999/xlink" width="1080pt" height="576pt" viewBox="0 0 1080 576" xmlns="http://www.w3.org/2000/svg" version="1.1">
 <metadata>
  <rdf:RDF xmlns:dc="http://purl.org/dc/elements/1.1/" xmlns:cc="http://creativecommons.org/ns#" xmlns:rdf="http://www.w3.org/1999/02/22-rdf-syntax-ns#">
   <cc:Work>
    <dc:type rdf:resource="http://purl.org/dc/dcmitype/StillImage"/>
    <dc:date>2024-06-28T11:49:45.012204</dc:date>
    <dc:format>image/svg+xml</dc:format>
    <dc:creator>
     <cc:Agent>
      <dc:title>Matplotlib v3.9.0, https://matplotlib.org/</dc:title>
     </cc:Agent>
    </dc:creator>
   </cc:Work>
  </rdf:RDF>
 </metadata>
 <defs>
  <style type="text/css">*{stroke-linejoin: round; stroke-linecap: butt}</style>
 </defs>
 <g id="figure_1">
  <g id="patch_1">
   <path d="M 0 576 
L 1080 576 
L 1080 0 
L 0 0 
z
" style="fill: #ffffff"/>
  </g>
  <g id="axes_1">
   <g id="patch_2">
    <path d="M 48.559071 521.153031 
L 935.517672 521.153031 
L 935.517672 51.564121 
L 48.559071 51.564121 
z
" style="fill: #eaeaf2"/>
   </g>
   <g id="matplotlib.axis_1">
    <g id="xtick_1">
     <g id="line2d_1">
      <path d="M 48.559071 521.153031 
L 48.559071 51.564121 
" clip-path="url(#p1709dd107d)" style="fill: none; stroke: #ffffff; stroke-linecap: round"/>
     </g>
     <g id="line2d_2"/>
     <g id="text_1">
      <!-- $\mathdefault{0.00}$ -->
      <g style="fill: #262626" transform="translate(36.419535 537.838907) scale(0.14 -0.14)">
       <defs>
        <path id="CMR17-30" d="M 2688 2025 
C 2688 2416 2682 3080 2413 3591 
C 2176 4039 1798 4198 1466 4198 
C 1158 4198 768 4058 525 3597 
C 269 3118 243 2524 243 2025 
C 243 1661 250 1106 448 619 
C 723 -39 1216 -128 1466 -128 
C 1760 -128 2208 -7 2470 600 
C 2662 1042 2688 1559 2688 2025 
z
M 1466 -26 
C 1056 -26 813 325 723 812 
C 653 1188 653 1738 653 2096 
C 653 2588 653 2997 736 3387 
C 858 3929 1216 4096 1466 4096 
C 1728 4096 2067 3923 2189 3400 
C 2272 3036 2278 2607 2278 2096 
C 2278 1680 2278 1169 2202 792 
C 2067 95 1690 -26 1466 -26 
z
" transform="scale(0.015625)"/>
        <path id="CMMI12-3a" d="M 1178 307 
C 1178 492 1024 619 870 619 
C 685 619 557 466 557 313 
C 557 128 710 0 864 0 
C 1050 0 1178 153 1178 307 
z
" transform="scale(0.015625)"/>
       </defs>
       <use xlink:href="#CMR17-30" transform="scale(0.996264)"/>
       <use xlink:href="#CMMI12-3a" transform="translate(45.690477 0) scale(0.996264)"/>
       <use xlink:href="#CMR17-30" transform="translate(72.787654 0) scale(0.996264)"/>
       <use xlink:href="#CMR17-30" transform="translate(118.478131 0) scale(0.996264)"/>
      </g>
     </g>
    </g>
    <g id="xtick_2">
     <g id="line2d_3">
      <path d="M 154.14938 521.153031 
L 154.14938 51.564121 
" clip-path="url(#p1709dd107d)" style="fill: none; stroke: #ffffff; stroke-linecap: round"/>
     </g>
     <g id="line2d_4"/>
     <g id="text_2">
      <!-- $\mathdefault{0.25}$ -->
      <g style="fill: #262626" transform="translate(142.009845 537.838907) scale(0.14 -0.14)">
       <defs>
        <path id="CMR17-32" d="M 2669 989 
L 2554 989 
C 2490 536 2438 459 2413 420 
C 2381 369 1920 369 1830 369 
L 602 369 
C 832 619 1280 1072 1824 1597 
C 2214 1967 2669 2402 2669 3035 
C 2669 3790 2067 4224 1395 4224 
C 691 4224 262 3604 262 3030 
C 262 2780 448 2748 525 2748 
C 589 2748 781 2787 781 3010 
C 781 3207 614 3264 525 3264 
C 486 3264 448 3258 422 3245 
C 544 3790 915 4058 1306 4058 
C 1862 4058 2227 3617 2227 3035 
C 2227 2479 1901 2000 1536 1584 
L 262 146 
L 262 0 
L 2515 0 
L 2669 989 
z
" transform="scale(0.015625)"/>
        <path id="CMR17-35" d="M 730 3692 
C 794 3666 1056 3584 1325 3584 
C 1920 3584 2246 3911 2432 4100 
C 2432 4157 2432 4192 2394 4192 
C 2387 4192 2374 4192 2323 4163 
C 2099 4058 1837 3973 1517 3973 
C 1325 3973 1037 3999 723 4139 
C 653 4171 640 4171 634 4171 
C 602 4171 595 4164 595 4037 
L 595 2203 
C 595 2089 595 2057 659 2057 
C 691 2057 704 2070 736 2114 
C 941 2401 1222 2522 1542 2522 
C 1766 2522 2246 2382 2246 1289 
C 2246 1085 2246 715 2054 421 
C 1894 159 1645 25 1370 25 
C 947 25 518 320 403 814 
C 429 807 480 795 506 795 
C 589 795 749 840 749 1038 
C 749 1210 627 1280 506 1280 
C 358 1280 262 1190 262 1011 
C 262 454 704 -128 1382 -128 
C 2042 -128 2669 440 2669 1264 
C 2669 2030 2170 2624 1549 2624 
C 1222 2624 947 2503 730 2274 
L 730 3692 
z
" transform="scale(0.015625)"/>
       </defs>
       <use xlink:href="#CMR17-30" transform="scale(0.996264)"/>
       <use xlink:href="#CMMI12-3a" transform="translate(45.690477 0) scale(0.996264)"/>
       <use xlink:href="#CMR17-32" transform="translate(72.787654 0) scale(0.996264)"/>
       <use xlink:href="#CMR17-35" transform="translate(118.478131 0) scale(0.996264)"/>
      </g>
     </g>
    </g>
    <g id="xtick_3">
     <g id="line2d_5">
      <path d="M 259.73969 521.153031 
L 259.73969 51.564121 
" clip-path="url(#p1709dd107d)" style="fill: none; stroke: #ffffff; stroke-linecap: round"/>
     </g>
     <g id="line2d_6"/>
     <g id="text_3">
      <!-- $\mathdefault{0.50}$ -->
      <g style="fill: #262626" transform="translate(247.600155 537.838907) scale(0.14 -0.14)">
       <use xlink:href="#CMR17-30" transform="scale(0.996264)"/>
       <use xlink:href="#CMMI12-3a" transform="translate(45.690477 0) scale(0.996264)"/>
       <use xlink:href="#CMR17-35" transform="translate(72.787654 0) scale(0.996264)"/>
       <use xlink:href="#CMR17-30" transform="translate(118.478131 0) scale(0.996264)"/>
      </g>
     </g>
    </g>
    <g id="xtick_4">
     <g id="line2d_7">
      <path d="M 365.33 521.153031 
L 365.33 51.564121 
" clip-path="url(#p1709dd107d)" style="fill: none; stroke: #ffffff; stroke-linecap: round"/>
     </g>
     <g id="line2d_8"/>
     <g id="text_4">
      <!-- $\mathdefault{0.75}$ -->
      <g style="fill: #262626" transform="translate(353.190464 537.838907) scale(0.14 -0.14)">
       <defs>
        <path id="CMR17-37" d="M 2886 3941 
L 2886 4081 
L 1382 4081 
C 634 4081 621 4165 595 4288 
L 480 4288 
L 294 3094 
L 410 3094 
C 429 3215 474 3540 550 3661 
C 589 3712 1062 3712 1171 3712 
L 2579 3712 
L 1869 2661 
C 1395 1954 1069 999 1069 165 
C 1069 89 1069 -128 1299 -128 
C 1530 -128 1530 89 1530 171 
L 1530 465 
C 1530 1508 1709 2196 2003 2636 
L 2886 3941 
z
" transform="scale(0.015625)"/>
       </defs>
       <use xlink:href="#CMR17-30" transform="scale(0.996264)"/>
       <use xlink:href="#CMMI12-3a" transform="translate(45.690477 0) scale(0.996264)"/>
       <use xlink:href="#CMR17-37" transform="translate(72.787654 0) scale(0.996264)"/>
       <use xlink:href="#CMR17-35" transform="translate(118.478131 0) scale(0.996264)"/>
      </g>
     </g>
    </g>
    <g id="xtick_5">
     <g id="line2d_9">
      <path d="M 470.920309 521.153031 
L 470.920309 51.564121 
" clip-path="url(#p1709dd107d)" style="fill: none; stroke: #ffffff; stroke-linecap: round"/>
     </g>
     <g id="line2d_10"/>
     <g id="text_5">
      <!-- $\mathdefault{1.00}$ -->
      <g style="fill: #262626" transform="translate(458.780774 537.838907) scale(0.14 -0.14)">
       <defs>
        <path id="CMR17-31" d="M 1702 4058 
C 1702 4192 1696 4192 1606 4192 
C 1357 3916 979 3827 621 3827 
C 602 3827 570 3827 563 3808 
C 557 3795 557 3782 557 3648 
C 755 3648 1088 3686 1344 3839 
L 1344 461 
C 1344 236 1331 160 781 160 
L 589 160 
L 589 0 
C 896 0 1216 0 1523 0 
C 1830 0 2150 0 2458 0 
L 2458 160 
L 2266 160 
C 1715 160 1702 230 1702 458 
L 1702 4058 
z
" transform="scale(0.015625)"/>
       </defs>
       <use xlink:href="#CMR17-31" transform="scale(0.996264)"/>
       <use xlink:href="#CMMI12-3a" transform="translate(45.690477 0) scale(0.996264)"/>
       <use xlink:href="#CMR17-30" transform="translate(72.787654 0) scale(0.996264)"/>
       <use xlink:href="#CMR17-30" transform="translate(118.478131 0) scale(0.996264)"/>
      </g>
     </g>
    </g>
    <g id="xtick_6">
     <g id="line2d_11">
      <path d="M 576.510619 521.153031 
L 576.510619 51.564121 
" clip-path="url(#p1709dd107d)" style="fill: none; stroke: #ffffff; stroke-linecap: round"/>
     </g>
     <g id="line2d_12"/>
     <g id="text_6">
      <!-- $\mathdefault{1.25}$ -->
      <g style="fill: #262626" transform="translate(564.371084 537.838907) scale(0.14 -0.14)">
       <use xlink:href="#CMR17-31" transform="scale(0.996264)"/>
       <use xlink:href="#CMMI12-3a" transform="translate(45.690477 0) scale(0.996264)"/>
       <use xlink:href="#CMR17-32" transform="translate(72.787654 0) scale(0.996264)"/>
       <use xlink:href="#CMR17-35" transform="translate(118.478131 0) scale(0.996264)"/>
      </g>
     </g>
    </g>
    <g id="xtick_7">
     <g id="line2d_13">
      <path d="M 682.100929 521.153031 
L 682.100929 51.564121 
" clip-path="url(#p1709dd107d)" style="fill: none; stroke: #ffffff; stroke-linecap: round"/>
     </g>
     <g id="line2d_14"/>
     <g id="text_7">
      <!-- $\mathdefault{1.50}$ -->
      <g style="fill: #262626" transform="translate(669.961393 537.838907) scale(0.14 -0.14)">
       <use xlink:href="#CMR17-31" transform="scale(0.996264)"/>
       <use xlink:href="#CMMI12-3a" transform="translate(45.690477 0) scale(0.996264)"/>
       <use xlink:href="#CMR17-35" transform="translate(72.787654 0) scale(0.996264)"/>
       <use xlink:href="#CMR17-30" transform="translate(118.478131 0) scale(0.996264)"/>
      </g>
     </g>
    </g>
    <g id="xtick_8">
     <g id="line2d_15">
      <path d="M 787.691238 521.153031 
L 787.691238 51.564121 
" clip-path="url(#p1709dd107d)" style="fill: none; stroke: #ffffff; stroke-linecap: round"/>
     </g>
     <g id="line2d_16"/>
     <g id="text_8">
      <!-- $\mathdefault{1.75}$ -->
      <g style="fill: #262626" transform="translate(775.551703 537.838907) scale(0.14 -0.14)">
       <use xlink:href="#CMR17-31" transform="scale(0.996264)"/>
       <use xlink:href="#CMMI12-3a" transform="translate(45.690477 0) scale(0.996264)"/>
       <use xlink:href="#CMR17-37" transform="translate(72.787654 0) scale(0.996264)"/>
       <use xlink:href="#CMR17-35" transform="translate(118.478131 0) scale(0.996264)"/>
      </g>
     </g>
    </g>
    <g id="xtick_9">
     <g id="line2d_17">
      <path d="M 893.281548 521.153031 
L 893.281548 51.564121 
" clip-path="url(#p1709dd107d)" style="fill: none; stroke: #ffffff; stroke-linecap: round"/>
     </g>
     <g id="line2d_18"/>
     <g id="text_9">
      <!-- $\mathdefault{2.00}$ -->
      <g style="fill: #262626" transform="translate(881.142013 537.838907) scale(0.14 -0.14)">
       <use xlink:href="#CMR17-32" transform="scale(0.996264)"/>
       <use xlink:href="#CMMI12-3a" transform="translate(45.690477 0) scale(0.996264)"/>
       <use xlink:href="#CMR17-30" transform="translate(72.787654 0) scale(0.996264)"/>
       <use xlink:href="#CMR17-30" transform="translate(118.478131 0) scale(0.996264)"/>
      </g>
     </g>
    </g>
    <g id="text_10">
     <!-- $x$ -->
     <g style="fill: #262626" transform="translate(487.603646 555.620524) scale(0.16 -0.16)">
      <defs>
       <path id="CMMI12-78" d="M 3034 2606 
C 2829 2567 2752 2414 2752 2293 
C 2752 2139 2874 2088 2963 2088 
C 3155 2088 3290 2254 3290 2427 
C 3290 2695 2982 2816 2714 2816 
C 2323 2816 2106 2433 2048 2312 
C 1901 2816 1504 2816 1389 2816 
C 736 2816 390 1980 390 1839 
C 390 1814 416 1782 461 1782 
C 512 1782 525 1820 538 1846 
C 755 2555 1184 2689 1370 2689 
C 1658 2689 1715 2420 1715 2267 
C 1715 2127 1677 1980 1600 1673 
L 1382 798 
C 1286 415 1101 64 762 64 
C 730 64 570 64 435 147 
C 666 192 717 383 717 460 
C 717 588 621 664 499 664 
C 346 664 179 530 179 326 
C 179 57 480 -64 755 -64 
C 1062 -64 1280 179 1414 441 
C 1517 64 1837 -64 2074 -64 
C 2726 -64 3072 773 3072 913 
C 3072 945 3046 971 3008 971 
C 2950 971 2944 939 2925 888 
C 2752 326 2381 64 2093 64 
C 1869 64 1747 230 1747 492 
C 1747 632 1773 734 1875 1156 
L 2099 2024 
C 2195 2408 2413 2689 2707 2689 
C 2720 2689 2899 2689 3034 2606 
z
" transform="scale(0.015625)"/>
      </defs>
      <use xlink:href="#CMMI12-78" transform="scale(0.996264)"/>
     </g>
    </g>
   </g>
   <g id="matplotlib.axis_2">
    <g id="ytick_1">
     <g id="line2d_19">
      <path d="M 48.559071 521.153031 
L 935.517672 521.153031 
" clip-path="url(#p1709dd107d)" style="fill: none; stroke: #ffffff; stroke-linecap: round"/>
     </g>
     <g id="line2d_20"/>
     <g id="text_11">
      <!-- $\mathdefault{0.00}$ -->
      <g style="fill: #262626" transform="translate(17.28 525.995969) scale(0.14 -0.14)">
       <use xlink:href="#CMR17-30" transform="scale(0.996264)"/>
       <use xlink:href="#CMMI12-3a" transform="translate(45.690477 0) scale(0.996264)"/>
       <use xlink:href="#CMR17-30" transform="translate(72.787654 0) scale(0.996264)"/>
       <use xlink:href="#CMR17-30" transform="translate(118.478131 0) scale(0.996264)"/>
      </g>
     </g>
    </g>
    <g id="ytick_2">
     <g id="line2d_21">
      <path d="M 48.559071 465.034005 
L 935.517672 465.034005 
" clip-path="url(#p1709dd107d)" style="fill: none; stroke: #ffffff; stroke-linecap: round"/>
     </g>
     <g id="line2d_22"/>
     <g id="text_12">
      <!-- $\mathdefault{0.25}$ -->
      <g style="fill: #262626" transform="translate(17.28 469.876943) scale(0.14 -0.14)">
       <use xlink:href="#CMR17-30" transform="scale(0.996264)"/>
       <use xlink:href="#CMMI12-3a" transform="translate(45.690477 0) scale(0.996264)"/>
       <use xlink:href="#CMR17-32" transform="translate(72.787654 0) scale(0.996264)"/>
       <use xlink:href="#CMR17-35" transform="translate(118.478131 0) scale(0.996264)"/>
      </g>
     </g>
    </g>
    <g id="ytick_3">
     <g id="line2d_23">
      <path d="M 48.559071 408.91498 
L 935.517672 408.91498 
" clip-path="url(#p1709dd107d)" style="fill: none; stroke: #ffffff; stroke-linecap: round"/>
     </g>
     <g id="line2d_24"/>
     <g id="text_13">
      <!-- $\mathdefault{0.50}$ -->
      <g style="fill: #262626" transform="translate(17.28 413.757918) scale(0.14 -0.14)">
       <use xlink:href="#CMR17-30" transform="scale(0.996264)"/>
       <use xlink:href="#CMMI12-3a" transform="translate(45.690477 0) scale(0.996264)"/>
       <use xlink:href="#CMR17-35" transform="translate(72.787654 0) scale(0.996264)"/>
       <use xlink:href="#CMR17-30" transform="translate(118.478131 0) scale(0.996264)"/>
      </g>
     </g>
    </g>
    <g id="ytick_4">
     <g id="line2d_25">
      <path d="M 48.559071 352.795954 
L 935.517672 352.795954 
" clip-path="url(#p1709dd107d)" style="fill: none; stroke: #ffffff; stroke-linecap: round"/>
     </g>
     <g id="line2d_26"/>
     <g id="text_14">
      <!-- $\mathdefault{0.75}$ -->
      <g style="fill: #262626" transform="translate(17.28 357.638892) scale(0.14 -0.14)">
       <use xlink:href="#CMR17-30" transform="scale(0.996264)"/>
       <use xlink:href="#CMMI12-3a" transform="translate(45.690477 0) scale(0.996264)"/>
       <use xlink:href="#CMR17-37" transform="translate(72.787654 0) scale(0.996264)"/>
       <use xlink:href="#CMR17-35" transform="translate(118.478131 0) scale(0.996264)"/>
      </g>
     </g>
    </g>
    <g id="ytick_5">
     <g id="line2d_27">
      <path d="M 48.559071 296.676929 
L 935.517672 296.676929 
" clip-path="url(#p1709dd107d)" style="fill: none; stroke: #ffffff; stroke-linecap: round"/>
     </g>
     <g id="line2d_28"/>
     <g id="text_15">
      <!-- $\mathdefault{1.00}$ -->
      <g style="fill: #262626" transform="translate(17.28 301.519867) scale(0.14 -0.14)">
       <use xlink:href="#CMR17-31" transform="scale(0.996264)"/>
       <use xlink:href="#CMMI12-3a" transform="translate(45.690477 0) scale(0.996264)"/>
       <use xlink:href="#CMR17-30" transform="translate(72.787654 0) scale(0.996264)"/>
       <use xlink:href="#CMR17-30" transform="translate(118.478131 0) scale(0.996264)"/>
      </g>
     </g>
    </g>
    <g id="ytick_6">
     <g id="line2d_29">
      <path d="M 48.559071 240.557903 
L 935.517672 240.557903 
" clip-path="url(#p1709dd107d)" style="fill: none; stroke: #ffffff; stroke-linecap: round"/>
     </g>
     <g id="line2d_30"/>
     <g id="text_16">
      <!-- $\mathdefault{1.25}$ -->
      <g style="fill: #262626" transform="translate(17.28 245.400841) scale(0.14 -0.14)">
       <use xlink:href="#CMR17-31" transform="scale(0.996264)"/>
       <use xlink:href="#CMMI12-3a" transform="translate(45.690477 0) scale(0.996264)"/>
       <use xlink:href="#CMR17-32" transform="translate(72.787654 0) scale(0.996264)"/>
       <use xlink:href="#CMR17-35" transform="translate(118.478131 0) scale(0.996264)"/>
      </g>
     </g>
    </g>
    <g id="ytick_7">
     <g id="line2d_31">
      <path d="M 48.559071 184.438878 
L 935.517672 184.438878 
" clip-path="url(#p1709dd107d)" style="fill: none; stroke: #ffffff; stroke-linecap: round"/>
     </g>
     <g id="line2d_32"/>
     <g id="text_17">
      <!-- $\mathdefault{1.50}$ -->
      <g style="fill: #262626" transform="translate(17.28 189.281816) scale(0.14 -0.14)">
       <use xlink:href="#CMR17-31" transform="scale(0.996264)"/>
       <use xlink:href="#CMMI12-3a" transform="translate(45.690477 0) scale(0.996264)"/>
       <use xlink:href="#CMR17-35" transform="translate(72.787654 0) scale(0.996264)"/>
       <use xlink:href="#CMR17-30" transform="translate(118.478131 0) scale(0.996264)"/>
      </g>
     </g>
    </g>
    <g id="ytick_8">
     <g id="line2d_33">
      <path d="M 48.559071 128.319852 
L 935.517672 128.319852 
" clip-path="url(#p1709dd107d)" style="fill: none; stroke: #ffffff; stroke-linecap: round"/>
     </g>
     <g id="line2d_34"/>
     <g id="text_18">
      <!-- $\mathdefault{1.75}$ -->
      <g style="fill: #262626" transform="translate(17.28 133.162791) scale(0.14 -0.14)">
       <use xlink:href="#CMR17-31" transform="scale(0.996264)"/>
       <use xlink:href="#CMMI12-3a" transform="translate(45.690477 0) scale(0.996264)"/>
       <use xlink:href="#CMR17-37" transform="translate(72.787654 0) scale(0.996264)"/>
       <use xlink:href="#CMR17-35" transform="translate(118.478131 0) scale(0.996264)"/>
      </g>
     </g>
    </g>
    <g id="ytick_9">
     <g id="line2d_35">
      <path d="M 48.559071 72.200827 
L 935.517672 72.200827 
" clip-path="url(#p1709dd107d)" style="fill: none; stroke: #ffffff; stroke-linecap: round"/>
     </g>
     <g id="line2d_36"/>
     <g id="text_19">
      <!-- $\mathdefault{2.00}$ -->
      <g style="fill: #262626" transform="translate(17.28 77.043765) scale(0.14 -0.14)">
       <use xlink:href="#CMR17-32" transform="scale(0.996264)"/>
       <use xlink:href="#CMMI12-3a" transform="translate(45.690477 0) scale(0.996264)"/>
       <use xlink:href="#CMR17-30" transform="translate(72.787654 0) scale(0.996264)"/>
       <use xlink:href="#CMR17-30" transform="translate(118.478131 0) scale(0.996264)"/>
      </g>
     </g>
    </g>
   </g>
   <g id="line2d_37">
    <path d="M 48.559071 72.200827 
L 57.006295 72.200827 
L 65.45352 72.200827 
L 73.900745 72.200827 
L 82.34797 72.200827 
L 90.795195 72.200827 
L 99.242419 72.200827 
L 107.689644 72.200827 
L 116.136869 72.200827 
L 124.584094 72.200827 
L 133.031318 72.200827 
L 141.478543 72.200827 
L 149.925768 72.200827 
L 158.372993 72.200827 
L 166.820217 72.200827 
L 175.267442 72.200827 
L 183.714667 72.200827 
L 192.161892 72.200827 
L 200.609117 72.200827 
L 209.056341 72.200827 
L 217.503566 72.200827 
L 225.950791 72.200827 
L 234.398016 72.200827 
L 242.84524 72.200827 
L 251.292465 72.200827 
L 259.73969 72.200827 
L 268.186915 72.200827 
L 276.63414 72.200827 
L 285.081364 72.200827 
L 293.528589 72.200827 
L 301.975814 72.200827 
L 310.423039 72.200827 
L 318.870263 72.200827 
L 327.317488 72.200827 
L 335.764713 72.200827 
L 344.211938 72.200827 
L 352.659162 72.200827 
L 361.106387 72.200827 
L 369.553612 72.200827 
L 378.000837 72.200827 
L 386.448062 72.200827 
L 394.895286 72.200827 
L 403.342511 72.200827 
L 411.789736 72.200827 
L 420.236961 72.200827 
L 428.684185 72.200827 
L 437.13141 72.200827 
L 445.578635 72.200827 
L 454.02586 72.200827 
L 462.473085 72.200827 
L 470.920309 72.200827 
L 479.367534 72.200827 
L 487.814759 72.200827 
L 496.261984 72.200827 
L 504.709208 72.200827 
L 513.156433 72.200827 
L 521.603658 72.200827 
L 530.050883 72.200827 
L 538.498107 72.200827 
L 546.945332 72.200827 
L 555.392557 72.200827 
L 563.839782 72.200827 
L 572.287007 72.200827 
L 580.734231 72.200827 
L 589.181456 72.200827 
L 597.628681 72.200827 
L 606.075906 72.200827 
L 614.52313 72.200827 
L 622.970355 72.200827 
L 631.41758 72.200827 
L 639.864805 72.200827 
L 648.31203 72.200827 
L 656.759254 72.200827 
L 665.206479 72.200827 
L 673.653704 72.200827 
L 682.100929 72.200827 
L 690.548153 72.200827 
L 698.995378 72.200827 
L 707.442603 72.200827 
L 715.889828 72.200827 
L 724.337052 72.200827 
L 732.784277 72.200827 
L 741.231502 72.200827 
L 749.678727 72.200827 
L 758.125952 72.200827 
L 766.573176 72.200827 
L 775.020401 72.200827 
L 783.467626 72.200827 
L 791.914851 72.200827 
L 800.362075 72.200827 
L 808.8093 72.200827 
L 817.256525 72.200827 
L 825.70375 72.200827 
L 834.150975 72.200827 
L 842.598199 72.200827 
L 851.045424 72.200827 
L 859.492649 72.200827 
L 867.939874 72.200827 
L 876.387098 72.200827 
L 884.834323 72.200827 
L 893.281548 72.200827 
" clip-path="url(#p1709dd107d)" style="fill: none; stroke: #393b79; stroke-width: 2; stroke-linecap: round"/>
   </g>
   <g id="line2d_38">
    <path d="M 48.559071 85.41952 
L 57.006295 85.399814 
L 65.45352 85.380054 
L 73.900745 85.360321 
L 82.34797 85.340615 
L 90.795195 85.320936 
L 99.242419 85.301284 
L 107.689644 85.28166 
L 116.136869 85.262062 
L 124.584094 85.242492 
L 133.031318 85.222949 
L 141.478543 85.203432 
L 149.925768 85.183943 
L 158.372993 85.16448 
L 166.820217 85.145045 
L 175.267442 85.125636 
L 183.714667 85.106254 
L 192.161892 85.086899 
L 200.609117 85.06757 
L 209.056341 85.048268 
L 217.503566 85.028993 
L 225.950791 85.009744 
L 234.398016 84.990522 
L 242.84524 84.971327 
L 251.292465 84.952158 
L 259.73969 84.933015 
L 268.186915 84.913899 
L 276.63414 84.89481 
L 285.081364 84.875747 
L 293.528589 84.85671 
L 301.975814 84.837699 
L 310.423039 84.818715 
L 318.870263 84.799756 
L 327.317488 84.780824 
L 335.764713 84.761919 
L 344.211938 84.743039 
L 352.659162 84.724185 
L 361.106387 84.705358 
L 369.553612 84.686556 
L 378.000837 84.66778 
L 386.448062 84.649031 
L 394.895286 84.630307 
L 403.342511 84.61161 
L 411.789736 84.592938 
L 420.236961 84.574291 
L 428.684185 84.555671 
L 437.13141 84.537077 
L 445.578635 84.518508 
L 454.02586 84.499964 
L 462.473085 84.481447 
L 470.920309 84.462955 
L 479.367534 84.444489 
L 487.814759 84.426048 
L 496.261984 84.407633 
L 504.709208 84.389243 
L 513.156433 84.370879 
L 521.603658 84.35254 
L 530.050883 84.334226 
L 538.498107 84.315938 
L 546.945332 84.297675 
L 555.392557 84.279437 
L 563.839782 84.261225 
L 572.287007 84.243038 
L 580.734231 84.224875 
L 589.181456 84.206738 
L 597.628681 84.188627 
L 606.075906 84.17054 
L 614.52313 84.152478 
L 622.970355 84.134441 
L 631.41758 84.116429 
L 639.864805 84.098402 
L 648.31203 84.08036 
L 656.759254 84.062342 
L 665.206479 84.04435 
L 673.653704 84.026382 
L 682.100929 84.00844 
L 690.548153 83.990522 
L 698.995378 83.972629 
L 707.442603 83.954761 
L 715.889828 83.936918 
L 724.337052 83.919099 
L 732.784277 83.901305 
L 741.231502 83.883535 
L 749.678727 83.865791 
L 758.125952 83.84807 
L 766.573176 83.830375 
L 775.020401 83.812703 
L 783.467626 83.795057 
L 791.914851 83.777434 
L 800.362075 83.759837 
L 808.8093 83.742263 
L 817.256525 83.724714 
L 825.70375 83.707189 
L 834.150975 83.689689 
L 842.598199 83.672212 
L 851.045424 83.65476 
L 859.492649 83.637332 
L 867.939874 83.619928 
L 876.387098 83.602549 
L 884.834323 83.585193 
L 893.281548 83.567862 
" clip-path="url(#p1709dd107d)" style="fill: none; stroke: #6b6ecf; stroke-width: 2; stroke-linecap: round"/>
   </g>
   <g id="line2d_39">
    <path d="M 48.559071 133.014968 
L 57.006295 132.950247 
L 65.45352 132.885608 
L 73.900745 132.821049 
L 82.34797 132.756482 
L 90.795195 132.691815 
L 99.242419 132.627231 
L 107.689644 132.562728 
L 116.136869 132.498307 
L 124.584094 132.433969 
L 133.031318 132.369711 
L 141.478543 132.305535 
L 149.925768 132.241438 
L 158.372993 132.177423 
L 166.820217 132.113487 
L 175.267442 132.049632 
L 183.714667 131.985857 
L 192.161892 131.922163 
L 200.609117 131.858548 
L 209.056341 131.795014 
L 217.503566 131.73156 
L 225.950791 131.668095 
L 234.398016 131.604533 
L 242.84524 131.541052 
L 251.292465 131.477651 
L 259.73969 131.41433 
L 268.186915 131.351089 
L 276.63414 131.287927 
L 285.081364 131.224844 
L 293.528589 131.161842 
L 301.975814 131.098919 
L 310.423039 131.036075 
L 318.870263 130.97331 
L 327.317488 130.910623 
L 335.764713 130.848015 
L 344.211938 130.785485 
L 352.659162 130.723033 
L 361.106387 130.660661 
L 369.553612 130.598367 
L 378.000837 130.535894 
L 386.448062 130.473493 
L 394.895286 130.411171 
L 403.342511 130.348927 
L 411.789736 130.286762 
L 420.236961 130.224674 
L 428.684185 130.162664 
L 437.13141 130.100733 
L 445.578635 130.038879 
L 454.02586 129.977103 
L 462.473085 129.915403 
L 470.920309 129.853781 
L 479.367534 129.792237 
L 487.814759 129.730771 
L 496.261984 129.669382 
L 504.709208 129.608069 
L 513.156433 129.546833 
L 521.603658 129.485614 
L 530.050883 129.424273 
L 538.498107 129.363009 
L 546.945332 129.301822 
L 555.392557 129.240711 
L 563.839782 129.179677 
L 572.287007 129.118718 
L 580.734231 129.057836 
L 589.181456 128.99703 
L 597.628681 128.9363 
L 606.075906 128.875646 
L 614.52313 128.815068 
L 622.970355 128.754565 
L 631.41758 128.694138 
L 639.864805 128.633787 
L 648.31203 128.573511 
L 656.759254 128.51331 
L 665.206479 128.453186 
L 673.653704 128.393119 
L 682.100929 128.332892 
L 690.548153 128.27274 
L 698.995378 128.212664 
L 707.442603 128.152663 
L 715.889828 128.092737 
L 724.337052 128.032885 
L 732.784277 127.973107 
L 741.231502 127.913404 
L 749.678727 127.853776 
L 758.125952 127.794221 
L 766.573176 127.73474 
L 775.020401 127.675334 
L 783.467626 127.616001 
L 791.914851 127.556743 
L 800.362075 127.497557 
L 808.8093 127.438446 
L 817.256525 127.379408 
L 825.70375 127.320443 
L 834.150975 127.261428 
L 842.598199 127.202361 
L 851.045424 127.143368 
L 859.492649 127.084449 
L 867.939874 127.025603 
L 876.387098 126.966831 
L 884.834323 126.908132 
L 893.281548 126.849507 
" clip-path="url(#p1709dd107d)" style="fill: none; stroke: #637939; stroke-width: 2; stroke-linecap: round"/>
   </g>
   <g id="line2d_40">
    <path d="M 48.559071 182.580304 
L 57.006295 182.471855 
L 65.45352 182.363554 
L 73.900745 182.255404 
L 82.34797 182.147401 
L 90.795195 182.039545 
L 99.242419 181.931836 
L 107.689644 181.824105 
L 116.136869 181.716264 
L 124.584094 181.608574 
L 133.031318 181.501033 
L 141.478543 181.393641 
L 149.925768 181.2864 
L 158.372993 181.179304 
L 166.820217 181.072354 
L 175.267442 180.965497 
L 183.714667 180.858416 
L 192.161892 180.751479 
L 200.609117 180.644687 
L 209.056341 180.538041 
L 217.503566 180.431541 
L 225.950791 180.325189 
L 234.398016 180.218984 
L 242.84524 180.112926 
L 251.292465 180.006699 
L 259.73969 179.900515 
L 268.186915 179.794476 
L 276.63414 179.68858 
L 285.081364 179.582826 
L 293.528589 179.477215 
L 301.975814 179.371747 
L 310.423039 179.266424 
L 318.870263 179.161124 
L 327.317488 179.055673 
L 335.764713 178.950364 
L 344.211938 178.845196 
L 352.659162 178.740172 
L 361.106387 178.635293 
L 369.553612 178.530555 
L 378.000837 178.425958 
L 386.448062 178.321505 
L 394.895286 178.216895 
L 403.342511 178.112316 
L 411.789736 178.007877 
L 420.236961 177.903582 
L 428.684185 177.79943 
L 437.13141 177.695418 
L 445.578635 177.591546 
L 454.02586 177.487814 
L 462.473085 177.3842 
L 470.920309 177.280344 
L 479.367534 177.176626 
L 487.814759 177.073047 
L 496.261984 176.969607 
L 504.709208 176.866306 
L 513.156433 176.763146 
L 521.603658 176.660124 
L 530.050883 176.55724 
L 538.498107 176.454378 
L 546.945332 176.351371 
L 555.392557 176.248502 
L 563.839782 176.145772 
L 572.287007 176.043179 
L 580.734231 175.940724 
L 589.181456 175.838409 
L 597.628681 175.736232 
L 606.075906 175.634191 
L 614.52313 175.532122 
L 622.970355 175.429953 
L 631.41758 175.327924 
L 639.864805 175.226032 
L 648.31203 175.124276 
L 656.759254 175.022658 
L 665.206479 174.921176 
L 673.653704 174.819828 
L 682.100929 174.718615 
L 690.548153 174.617365 
L 698.995378 174.516026 
L 707.442603 174.414828 
L 715.889828 174.313769 
L 724.337052 174.212844 
L 732.784277 174.112054 
L 741.231502 174.011398 
L 749.678727 173.910875 
L 758.125952 173.810487 
L 766.573176 173.710095 
L 775.020401 173.609575 
L 783.467626 173.509189 
L 791.914851 173.408937 
L 800.362075 173.308822 
L 808.8093 173.208841 
L 817.256525 173.108994 
L 825.70375 173.009283 
L 834.150975 172.909705 
L 842.598199 172.810207 
L 851.045424 172.710501 
L 859.492649 172.610928 
L 867.939874 172.511487 
L 876.387098 172.412177 
L 884.834323 172.313002 
L 893.281548 172.213959 
" clip-path="url(#p1709dd107d)" style="fill: none; stroke: #b5cf6b; stroke-width: 2; stroke-linecap: round"/>
   </g>
   <g id="line2d_41">
    <path d="M 48.559071 286.411302 
L 57.006295 286.226767 
L 65.45352 286.042564 
L 73.900745 285.858245 
L 82.34797 285.674115 
L 90.795195 285.490314 
L 99.242419 285.306257 
L 107.689644 285.122515 
L 116.136869 284.938997 
L 124.584094 284.755323 
L 133.031318 284.571975 
L 141.478543 284.388737 
L 149.925768 284.205455 
L 158.372993 284.022501 
L 166.820217 283.839543 
L 175.267442 283.656655 
L 183.714667 283.474089 
L 192.161892 283.291418 
L 200.609117 283.108896 
L 209.056341 282.926703 
L 217.503566 282.744327 
L 225.950791 282.562195 
L 234.398016 282.380394 
L 242.84524 282.198328 
L 251.292465 282.01657 
L 259.73969 281.835079 
L 268.186915 281.653373 
L 276.63414 281.471997 
L 285.081364 281.290827 
L 293.528589 281.109491 
L 301.975814 280.928472 
L 310.423039 280.747615 
L 318.870263 280.566654 
L 327.317488 280.386015 
L 335.764713 280.205473 
L 344.211938 280.02487 
L 352.659162 279.844594 
L 361.106387 279.664391 
L 369.553612 279.484152 
L 378.000837 279.30423 
L 386.448062 279.124365 
L 394.895286 278.944491 
L 403.342511 278.764935 
L 411.789736 278.585407 
L 420.236961 278.405883 
L 428.684185 278.22669 
L 437.13141 278.047522 
L 445.578635 277.868351 
L 454.02586 277.6895 
L 462.473085 277.510687 
L 470.920309 277.331876 
L 479.367534 277.153372 
L 487.814759 276.974919 
L 496.261984 276.796455 
L 504.709208 276.618298 
L 513.156433 276.440212 
L 521.603658 276.262088 
L 530.050883 276.084277 
L 538.498107 275.906557 
L 546.945332 275.728783 
L 555.392557 275.551314 
L 563.839782 275.373985 
L 572.287007 275.19655 
L 580.734231 275.019416 
L 589.181456 274.842473 
L 597.628681 274.665368 
L 606.075906 274.488577 
L 614.52313 274.312032 
L 622.970355 274.135257 
L 631.41758 273.958793 
L 639.864805 273.782641 
L 648.31203 273.606212 
L 656.759254 273.430077 
L 665.206479 273.254253 
L 673.653704 273.07824 
L 682.100929 272.90243 
L 690.548153 272.726922 
L 698.995378 272.551314 
L 707.442603 272.375825 
L 715.889828 272.200658 
L 724.337052 272.025497 
L 732.784277 271.85034 
L 741.231502 271.675473 
L 749.678727 271.500723 
L 758.125952 271.325884 
L 766.573176 271.151341 
L 775.020401 270.977027 
L 783.467626 270.802496 
L 791.914851 270.628269 
L 800.362075 270.454339 
L 808.8093 270.280187 
L 817.256525 270.10627 
L 825.70375 269.932652 
L 834.150975 269.758956 
L 842.598199 269.58535 
L 851.045424 269.412041 
L 859.492649 269.238801 
L 867.939874 269.0655 
L 876.387098 268.892494 
L 884.834323 268.71973 
L 893.281548 268.546732 
" clip-path="url(#p1709dd107d)" style="fill: none; stroke: #8c6d31; stroke-width: 2; stroke-linecap: round"/>
   </g>
   <g id="line2d_42">
    <path d="M 48.559071 379.451928 
L 57.006295 379.227324 
L 65.45352 379.002773 
L 73.900745 378.778282 
L 82.34797 378.553841 
L 90.795195 378.329458 
L 99.242419 378.105126 
L 107.689644 377.880842 
L 116.136869 377.656622 
L 124.584094 377.432453 
L 133.031318 377.208353 
L 141.478543 376.984297 
L 149.925768 376.760304 
L 158.372993 376.536319 
L 166.820217 376.312382 
L 175.267442 376.088528 
L 183.714667 375.864723 
L 192.161892 375.640967 
L 200.609117 375.417276 
L 209.056341 375.193647 
L 217.503566 374.970083 
L 225.950791 374.746586 
L 234.398016 374.523147 
L 242.84524 374.299707 
L 251.292465 374.076335 
L 259.73969 373.853024 
L 268.186915 373.629782 
L 276.63414 373.406613 
L 285.081364 373.18351 
L 293.528589 372.960474 
L 301.975814 372.737501 
L 310.423039 372.514516 
L 318.870263 372.291612 
L 327.317488 372.068771 
L 335.764713 371.845993 
L 344.211938 371.623298 
L 352.659162 371.400674 
L 361.106387 371.178125 
L 369.553612 370.955577 
L 378.000837 370.733076 
L 386.448062 370.510661 
L 394.895286 370.288318 
L 403.342511 370.066054 
L 411.789736 369.843869 
L 420.236961 369.621736 
L 428.684185 369.39961 
L 437.13141 369.17756 
L 445.578635 368.955585 
L 454.02586 368.733692 
L 462.473085 368.511893 
L 470.920309 368.290153 
L 479.367534 368.068394 
L 487.814759 367.846727 
L 496.261984 367.625143 
L 504.709208 367.403643 
L 513.156433 367.182239 
L 521.603658 366.960846 
L 530.050883 366.739489 
L 538.498107 366.518215 
L 546.945332 366.297036 
L 555.392557 366.075964 
L 563.839782 365.854935 
L 572.287007 365.633904 
L 580.734231 365.412965 
L 589.181456 365.192116 
L 597.628681 364.971368 
L 606.075906 364.750694 
L 614.52313 364.529994 
L 622.970355 364.309392 
L 631.41758 364.088895 
L 639.864805 363.868501 
L 648.31203 363.64814 
L 656.759254 363.427792 
L 665.206479 363.207549 
L 673.653704 362.987417 
L 682.100929 362.76738 
L 690.548153 362.547318 
L 698.995378 362.327328 
L 707.442603 362.107452 
L 715.889828 361.887699 
L 724.337052 361.667992 
L 732.784277 361.448283 
L 741.231502 361.228678 
L 749.678727 361.009182 
L 758.125952 360.789801 
L 766.573176 360.570363 
L 775.020401 360.351032 
L 783.467626 360.131832 
L 791.914851 359.91275 
L 800.362075 359.693599 
L 808.8093 359.474568 
L 817.256525 359.255652 
L 825.70375 359.036871 
L 834.150975 358.818021 
L 842.598199 358.599284 
L 851.045424 358.380681 
L 859.492649 358.162188 
L 867.939874 357.943629 
L 876.387098 357.725202 
L 884.834323 357.506911 
L 893.281548 357.288695 
" clip-path="url(#p1709dd107d)" style="fill: none; stroke: #e7cb94; stroke-width: 2; stroke-linecap: round"/>
   </g>
   <g id="line2d_43">
    <path d="M 48.559071 427.688578 
L 57.006295 427.46296 
L 65.45352 427.237317 
L 73.900745 427.011648 
L 82.34797 426.785889 
L 90.795195 426.560109 
L 99.242419 426.334304 
L 107.689644 426.108451 
L 116.136869 425.882532 
L 124.584094 425.656594 
L 133.031318 425.430647 
L 141.478543 425.204604 
L 149.925768 424.97855 
L 158.372993 424.752485 
L 166.820217 424.526349 
L 175.267442 424.300184 
L 183.714667 424.07401 
L 192.161892 423.84777 
L 200.609117 423.621488 
L 209.056341 423.395203 
L 217.503566 423.168861 
L 225.950791 422.942488 
L 234.398016 422.716128 
L 242.84524 422.489679 
L 251.292465 422.263223 
L 259.73969 422.036758 
L 268.186915 421.810212 
L 276.63414 421.583685 
L 285.081364 421.357112 
L 293.528589 421.130501 
L 301.975814 420.903901 
L 310.423039 420.677204 
L 318.870263 420.450546 
L 327.317488 420.223829 
L 335.764713 419.997086 
L 344.211938 419.770346 
L 352.659162 419.54354 
L 361.106387 419.31677 
L 369.553612 419.089902 
L 378.000837 418.863069 
L 386.448062 418.636178 
L 394.895286 418.409295 
L 403.342511 418.182372 
L 411.789736 417.955435 
L 420.236961 417.728475 
L 428.684185 417.501501 
L 437.13141 417.274521 
L 445.578635 417.047492 
L 454.02586 416.820472 
L 462.473085 416.593415 
L 470.920309 416.366366 
L 479.367534 416.13927 
L 487.814759 415.912189 
L 496.261984 415.685066 
L 504.709208 415.457941 
L 513.156433 415.230803 
L 521.603658 415.003641 
L 530.050883 414.776486 
L 538.498107 414.549285 
L 546.945332 414.322115 
L 555.392557 414.09489 
L 563.839782 413.867709 
L 572.287007 413.640449 
L 580.734231 413.413233 
L 589.181456 413.185968 
L 597.628681 412.958715 
L 606.075906 412.731472 
L 614.52313 412.504173 
L 622.970355 412.276929 
L 631.41758 412.049607 
L 639.864805 411.822327 
L 648.31203 411.595027 
L 656.759254 411.367704 
L 665.206479 411.140435 
L 673.653704 410.913087 
L 682.100929 410.685769 
L 690.548153 410.458459 
L 698.995378 410.231101 
L 707.442603 410.003793 
L 715.889828 409.776455 
L 724.337052 409.549118 
L 732.784277 409.321824 
L 741.231502 409.094452 
L 749.678727 408.867106 
L 758.125952 408.639816 
L 766.573176 408.412436 
L 775.020401 408.185094 
L 783.467626 407.957798 
L 791.914851 407.730423 
L 800.362075 407.503094 
L 808.8093 407.275808 
L 817.256525 407.048436 
L 825.70375 406.821116 
L 834.150975 406.593832 
L 842.598199 406.36649 
L 851.045424 406.139174 
L 859.492649 405.911892 
L 867.939874 405.684597 
L 876.387098 405.45728 
L 884.834323 405.230008 
L 893.281548 405.00277 
" clip-path="url(#p1709dd107d)" style="fill: none; stroke: #ad494a; stroke-width: 2; stroke-linecap: round"/>
   </g>
   <g id="line2d_44">
    <path d="M 48.559071 455.682332 
L 57.006295 455.468 
L 65.45352 455.25354 
L 73.900745 455.038937 
L 82.34797 454.824201 
L 90.795195 454.609341 
L 99.242419 454.394353 
L 107.689644 454.17924 
L 116.136869 453.963982 
L 124.584094 453.748597 
L 133.031318 453.5331 
L 141.478543 453.317476 
L 149.925768 453.101716 
L 158.372993 452.885838 
L 166.820217 452.66984 
L 175.267442 452.453723 
L 183.714667 452.237474 
L 192.161892 452.021108 
L 200.609117 451.804619 
L 209.056341 451.588001 
L 217.503566 451.371285 
L 225.950791 451.154434 
L 234.398016 450.937482 
L 242.84524 450.720414 
L 251.292465 450.503214 
L 259.73969 450.285919 
L 268.186915 450.068487 
L 276.63414 449.850964 
L 285.081364 449.633321 
L 293.528589 449.415566 
L 301.975814 449.197699 
L 310.423039 448.979713 
L 318.870263 448.76164 
L 327.317488 448.543442 
L 335.764713 448.32514 
L 344.211938 448.10673 
L 352.659162 447.888215 
L 361.106387 447.669598 
L 369.553612 447.450867 
L 378.000837 447.23205 
L 386.448062 447.013106 
L 394.895286 446.794088 
L 403.342511 446.574943 
L 411.789736 446.355709 
L 420.236961 446.136377 
L 428.684185 445.916938 
L 437.13141 445.697419 
L 445.578635 445.477782 
L 454.02586 445.258046 
L 462.473085 445.038241 
L 470.920309 444.818317 
L 479.367534 444.598296 
L 487.814759 444.378204 
L 496.261984 444.158 
L 504.709208 443.937694 
L 513.156433 443.717318 
L 521.603658 443.496855 
L 530.050883 443.276273 
L 538.498107 443.05561 
L 546.945332 442.834871 
L 555.392557 442.614055 
L 563.839782 442.393115 
L 572.287007 442.172108 
L 580.734231 441.95102 
L 589.181456 441.729851 
L 597.628681 441.508584 
L 606.075906 441.287231 
L 614.52313 441.065796 
L 622.970355 440.844285 
L 631.41758 440.622701 
L 639.864805 440.401035 
L 648.31203 440.179265 
L 656.759254 439.957422 
L 665.206479 439.735507 
L 673.653704 439.513518 
L 682.100929 439.291447 
L 690.548153 439.069305 
L 698.995378 438.847085 
L 707.442603 438.624788 
L 715.889828 438.402412 
L 724.337052 438.179966 
L 732.784277 437.957444 
L 741.231502 437.734844 
L 749.678727 437.51217 
L 758.125952 437.289436 
L 766.573176 437.066626 
L 775.020401 436.843741 
L 783.467626 436.620791 
L 791.914851 436.397773 
L 800.362075 436.174689 
L 808.8093 435.951535 
L 817.256525 435.72831 
L 825.70375 435.505028 
L 834.150975 435.281675 
L 842.598199 435.058254 
L 851.045424 434.834777 
L 859.492649 434.61123 
L 867.939874 434.387622 
L 876.387098 434.163951 
L 884.834323 433.940227 
L 893.281548 433.716435 
" clip-path="url(#p1709dd107d)" style="fill: none; stroke: #e7969c; stroke-width: 2; stroke-linecap: round"/>
   </g>
   <g id="line2d_45">
    <path d="M 48.559071 473.252573 
L 57.006295 473.053021 
L 65.45352 472.85326 
L 73.900745 472.653293 
L 82.34797 472.453104 
L 90.795195 472.25271 
L 99.242419 472.052106 
L 107.689644 471.851291 
L 116.136869 471.650275 
L 124.584094 471.44905 
L 133.031318 471.247626 
L 141.478543 471.045989 
L 149.925768 470.84416 
L 158.372993 470.642128 
L 166.820217 470.439887 
L 175.267442 470.237458 
L 183.714667 470.034827 
L 192.161892 469.831989 
L 200.609117 469.628961 
L 209.056341 469.425736 
L 217.503566 469.222319 
L 225.950791 469.018711 
L 234.398016 468.814909 
L 242.84524 468.61091 
L 251.292465 468.40673 
L 259.73969 468.202359 
L 268.186915 467.997791 
L 276.63414 467.79304 
L 285.081364 467.58811 
L 293.528589 467.382992 
L 301.975814 467.177676 
L 310.423039 466.972185 
L 318.870263 466.766519 
L 327.317488 466.56066 
L 335.764713 466.35463 
L 344.211938 466.148406 
L 352.659162 465.942016 
L 361.106387 465.735441 
L 369.553612 465.528692 
L 378.000837 465.321766 
L 386.448062 465.114668 
L 394.895286 464.907396 
L 403.342511 464.699952 
L 411.789736 464.49233 
L 420.236961 464.284543 
L 428.684185 464.076581 
L 437.13141 463.868462 
L 445.578635 463.660158 
L 454.02586 463.451691 
L 462.473085 463.243074 
L 470.920309 463.03427 
L 479.367534 462.825307 
L 487.814759 462.616195 
L 496.261984 462.406902 
L 504.709208 462.197445 
L 513.156433 461.987842 
L 521.603658 461.77808 
L 530.050883 461.568143 
L 538.498107 461.358048 
L 546.945332 461.147802 
L 555.392557 460.937414 
L 563.839782 460.726861 
L 572.287007 460.516146 
L 580.734231 460.305278 
L 589.181456 460.094255 
L 597.628681 459.883088 
L 606.075906 459.671773 
L 614.52313 459.460302 
L 622.970355 459.248683 
L 631.41758 459.036919 
L 639.864805 458.825007 
L 648.31203 458.612945 
L 656.759254 458.400739 
L 665.206479 458.188389 
L 673.653704 457.975896 
L 682.100929 457.763252 
L 690.548153 457.550468 
L 698.995378 457.33754 
L 707.442603 457.124471 
L 715.889828 456.911271 
L 724.337052 456.697934 
L 732.784277 456.484457 
L 741.231502 456.270838 
L 749.678727 456.057082 
L 758.125952 455.843202 
L 766.573176 455.629186 
L 775.020401 455.415022 
L 783.467626 455.200724 
L 791.914851 454.986299 
L 800.362075 454.771749 
L 808.8093 454.557072 
L 817.256525 454.342259 
L 825.70375 454.127312 
L 834.150975 453.91224 
L 842.598199 453.697046 
L 851.045424 453.481735 
L 859.492649 453.266273 
L 867.939874 453.050699 
L 876.387098 452.835012 
L 884.834323 452.619191 
L 893.281548 452.403241 
" clip-path="url(#p1709dd107d)" style="fill: none; stroke: #a55194; stroke-width: 2; stroke-linecap: round"/>
   </g>
   <g id="line2d_46">
    <path d="M 48.559071 484.934945 
L 57.006295 484.750533 
L 65.45352 484.56584 
L 73.900745 484.38087 
L 82.34797 484.19562 
L 90.795195 484.01009 
L 99.242419 483.824281 
L 107.689644 483.638197 
L 116.136869 483.451844 
L 124.584094 483.265207 
L 133.031318 483.078309 
L 141.478543 482.891132 
L 149.925768 482.703691 
L 158.372993 482.515988 
L 166.820217 482.328001 
L 175.267442 482.139768 
L 183.714667 481.951257 
L 192.161892 481.762481 
L 200.609117 481.573445 
L 209.056341 481.384143 
L 217.503566 481.194587 
L 225.950791 481.004773 
L 234.398016 480.814702 
L 242.84524 480.624371 
L 251.292465 480.43379 
L 259.73969 480.242951 
L 268.186915 480.051856 
L 276.63414 479.860512 
L 285.081364 479.668919 
L 293.528589 479.477074 
L 301.975814 479.284978 
L 310.423039 479.092633 
L 318.870263 478.900051 
L 327.317488 478.707219 
L 335.764713 478.51414 
L 344.211938 478.320823 
L 352.659162 478.127261 
L 361.106387 477.933455 
L 369.553612 477.739411 
L 378.000837 477.545129 
L 386.448062 477.350617 
L 394.895286 477.155863 
L 403.342511 476.960872 
L 411.789736 476.765651 
L 420.236961 476.570192 
L 428.684185 476.374507 
L 437.13141 476.178598 
L 445.578635 475.982442 
L 454.02586 475.786068 
L 462.473085 475.589466 
L 470.920309 475.39264 
L 479.367534 475.195582 
L 487.814759 474.998309 
L 496.261984 474.800803 
L 504.709208 474.603083 
L 513.156433 474.405134 
L 521.603658 474.20697 
L 530.050883 474.008592 
L 538.498107 473.809981 
L 546.945332 473.611162 
L 555.392557 473.412141 
L 563.839782 473.212885 
L 572.287007 473.013424 
L 580.734231 472.813751 
L 589.181456 472.613866 
L 597.628681 472.413777 
L 606.075906 472.213472 
L 614.52313 472.012954 
L 622.970355 471.812231 
L 631.41758 471.611305 
L 639.864805 471.410174 
L 648.31203 471.208836 
L 656.759254 471.007298 
L 665.206479 470.805559 
L 673.653704 470.603619 
L 682.100929 470.401475 
L 690.548153 470.199133 
L 698.995378 469.996592 
L 707.442603 469.793856 
L 715.889828 469.590931 
L 724.337052 469.387814 
L 732.784277 469.184492 
L 741.231502 468.980973 
L 749.678727 468.777262 
L 758.125952 468.573372 
L 766.573176 468.369292 
L 775.020401 468.165004 
L 783.467626 467.960537 
L 791.914851 467.75589 
L 800.362075 467.551056 
L 808.8093 467.346027 
L 817.256525 467.14082 
L 825.70375 466.935436 
L 834.150975 466.729859 
L 842.598199 466.524111 
L 851.045424 466.318175 
L 859.492649 466.112062 
L 867.939874 465.905772 
L 876.387098 465.6993 
L 884.834323 465.492664 
L 893.281548 465.285837 
" clip-path="url(#p1709dd107d)" style="fill: none; stroke: #de9ed6; stroke-width: 2; stroke-linecap: round"/>
   </g>
   <g id="patch_3">
    <path d="M 48.559071 521.153031 
L 48.559071 51.564121 
" style="fill: none"/>
   </g>
   <g id="patch_4">
    <path d="M 935.517672 521.153031 
L 935.517672 51.564121 
" style="fill: none"/>
   </g>
   <g id="patch_5">
    <path d="M 48.559071 521.153031 
L 935.517672 521.153031 
" style="fill: none"/>
   </g>
   <g id="patch_6">
    <path d="M 48.559071 51.564121 
L 935.517672 51.564121 
" style="fill: none"/>
   </g>
   <g id="patch_7">
    <path d="M 470.920309 78.690979 
Q 470.920309 272.673508 470.920309 464.978986 
" style="fill: none; stroke: #000000; stroke-width: 1.5; stroke-linecap: round"/>
    <path d="M 474.120309 458.578986 
L 470.920309 464.978986 
L 467.720309 458.578986 
" style="fill: none; stroke: #000000; stroke-width: 1.5; stroke-linecap: round"/>
   </g>
   <g id="text_20">
    <!-- Time -->
    <g style="fill: #262626" transform="translate(492.038371 465.170292) scale(0.18 -0.18)">
     <defs>
      <path id="CMR17-54" d="M 3981 4326 
L 288 4326 
L 179 2918 
L 294 2918 
C 378 3976 467 4160 1453 4160 
C 1568 4160 1754 4160 1805 4154 
C 1926 4135 1926 4058 1926 3912 
L 1926 459 
C 1926 230 1907 160 1376 160 
L 1197 160 
L 1197 0 
C 1504 0 1824 0 2138 0 
C 2451 0 2771 0 3078 0 
L 3078 160 
L 2899 160 
C 2368 160 2349 230 2349 459 
L 2349 3912 
C 2349 4052 2349 4129 2464 4154 
C 2515 4160 2701 4160 2816 4160 
C 3795 4160 3891 3976 3974 2918 
L 4090 2918 
L 3981 4326 
z
" transform="scale(0.015625)"/>
      <path id="CMR17-69" d="M 992 3909 
C 992 4049 877 4170 730 4170 
C 589 4170 467 4056 467 3909 
C 467 3769 582 3648 730 3648 
C 870 3648 992 3763 992 3909 
z
M 243 2706 
L 243 2541 
C 602 2541 653 2502 653 2197 
L 653 427 
C 653 184 627 153 218 153 
L 218 -13 
C 371 0 646 0 806 0 
C 960 0 1222 0 1370 -13 
L 1370 153 
C 992 153 979 191 979 420 
L 979 2776 
L 243 2706 
z
" transform="scale(0.015625)"/>
      <path id="CMR17-6d" d="M 4326 1933 
C 4326 2252 4269 2790 3507 2790 
C 3072 2790 2771 2496 2656 2151 
L 2650 2151 
C 2573 2676 2195 2790 1837 2790 
C 1331 2790 1069 2400 973 2144 
L 966 2144 
L 966 2790 
L 211 2720 
L 211 2554 
C 589 2554 646 2515 646 2208 
L 646 428 
C 646 184 621 153 211 153 
L 211 -13 
C 365 0 646 0 813 0 
C 979 0 1267 0 1421 -13 
L 1421 153 
C 1011 153 986 178 986 428 
L 986 1658 
C 986 2247 1344 2688 1792 2688 
C 2266 2688 2317 2266 2317 1958 
L 2317 428 
C 2317 184 2291 153 1882 153 
L 1882 -13 
C 2035 0 2317 0 2483 0 
C 2650 0 2938 0 3091 -13 
L 3091 153 
C 2682 153 2656 178 2656 428 
L 2656 1658 
C 2656 2247 3014 2688 3462 2688 
C 3936 2688 3987 2266 3987 1958 
L 3987 428 
C 3987 184 3962 153 3552 153 
L 3552 -13 
C 3706 0 3987 0 4154 0 
C 4320 0 4608 0 4762 -13 
L 4762 153 
C 4352 153 4326 178 4326 428 
L 4326 1933 
z
" transform="scale(0.015625)"/>
      <path id="CMR17-65" d="M 2438 1472 
C 2464 1498 2464 1511 2464 1576 
C 2464 2238 2118 2816 1389 2816 
C 710 2816 173 2169 173 1383 
C 173 551 781 -64 1459 -64 
C 2176 -64 2458 607 2458 740 
C 2458 784 2419 784 2406 784 
C 2362 784 2355 771 2330 696 
C 2189 265 1837 51 1504 51 
C 1229 51 954 203 781 480 
C 582 803 582 1176 582 1472 
L 2438 1472 
z
M 589 1568 
C 634 2505 1126 2714 1382 2714 
C 1818 2714 2112 2297 2118 1568 
L 589 1568 
z
" transform="scale(0.015625)"/>
     </defs>
     <use xlink:href="#CMR17-54" transform="scale(0.996264)"/>
     <use xlink:href="#CMR17-69" transform="translate(66.509881 0) scale(0.996264)"/>
     <use xlink:href="#CMR17-6d" transform="translate(91.380939 0) scale(0.996264)"/>
     <use xlink:href="#CMR17-65" transform="translate(168.300529 0) scale(0.996264)"/>
    </g>
   </g>
   <g id="legend_1">
    <g id="line2d_47">
     <path d="M 948.117672 197.198434 
L 962.117672 197.198434 
L 976.117672 197.198434 
" style="fill: none; stroke: #393b79; stroke-width: 2; stroke-linecap: round"/>
    </g>
    <g id="text_21">
     <!-- t = 0.00 -->
     <g style="fill: #262626" transform="translate(987.317672 202.098434) scale(0.14 -0.14)">
      <defs>
       <path id="CMR17-74" d="M 966 2560 
L 1862 2560 
L 1862 2725 
L 966 2725 
L 966 3904 
L 851 3904 
C 838 3245 614 2668 70 2668 
L 70 2560 
L 627 2560 
L 627 771 
C 627 650 627 -64 1370 -64 
C 1747 -64 1965 306 1965 777 
L 1965 1140 
L 1850 1140 
L 1850 783 
C 1850 344 1677 51 1408 51 
C 1222 51 966 178 966 758 
L 966 2560 
z
" transform="scale(0.015625)"/>
       <path id="CMR17-3d" d="M 4115 2017 
C 4211 2017 4307 2017 4307 2125 
C 4307 2240 4198 2240 4090 2240 
L 512 2240 
C 403 2240 294 2240 294 2125 
C 294 2017 390 2017 486 2017 
L 4115 2017 
z
M 4090 896 
C 4198 896 4307 896 4307 1011 
C 4307 1119 4211 1119 4115 1119 
L 486 1119 
C 390 1119 294 1119 294 1011 
C 294 896 403 896 512 896 
L 4090 896 
z
" transform="scale(0.015625)"/>
       <path id="CMR17-2e" d="M 1062 261 
C 1062 420 934 522 800 522 
C 672 522 538 420 538 261 
C 538 102 666 0 800 0 
C 928 0 1062 102 1062 261 
z
" transform="scale(0.015625)"/>
      </defs>
      <use xlink:href="#CMR17-74" transform="scale(0.996264)"/>
      <use xlink:href="#CMR17-3d" transform="translate(65.356734 0) scale(0.996264)"/>
      <use xlink:href="#CMR17-30" transform="translate(167.147489 0) scale(0.996264)"/>
      <use xlink:href="#CMR17-2e" transform="translate(212.837966 0) scale(0.996264)"/>
      <use xlink:href="#CMR17-30" transform="translate(237.709025 0) scale(0.996264)"/>
      <use xlink:href="#CMR17-30" transform="translate(283.399502 0) scale(0.996264)"/>
     </g>
    </g>
    <g id="line2d_48">
     <path d="M 948.117672 216.710462 
L 962.117672 216.710462 
L 976.117672 216.710462 
" style="fill: none; stroke: #6b6ecf; stroke-width: 2; stroke-linecap: round"/>
    </g>
    <g id="text_22">
     <!-- t = 10.00 -->
     <g style="fill: #262626" transform="translate(987.317672 221.610462) scale(0.14 -0.14)">
      <use xlink:href="#CMR17-74" transform="scale(0.996264)"/>
      <use xlink:href="#CMR17-3d" transform="translate(65.356734 0) scale(0.996264)"/>
      <use xlink:href="#CMR17-31" transform="translate(167.147489 0) scale(0.996264)"/>
      <use xlink:href="#CMR17-30" transform="translate(212.837966 0) scale(0.996264)"/>
      <use xlink:href="#CMR17-2e" transform="translate(258.528443 0) scale(0.996264)"/>
      <use xlink:href="#CMR17-30" transform="translate(283.399502 0) scale(0.996264)"/>
      <use xlink:href="#CMR17-30" transform="translate(329.089979 0) scale(0.996264)"/>
     </g>
    </g>
    <g id="line2d_49">
     <path d="M 948.117672 236.222491 
L 962.117672 236.222491 
L 976.117672 236.222491 
" style="fill: none; stroke: #637939; stroke-width: 2; stroke-linecap: round"/>
    </g>
    <g id="text_23">
     <!-- t = 50.00 -->
     <g style="fill: #262626" transform="translate(987.317672 241.122491) scale(0.14 -0.14)">
      <use xlink:href="#CMR17-74" transform="scale(0.996264)"/>
      <use xlink:href="#CMR17-3d" transform="translate(65.356734 0) scale(0.996264)"/>
      <use xlink:href="#CMR17-35" transform="translate(167.147489 0) scale(0.996264)"/>
      <use xlink:href="#CMR17-30" transform="translate(212.837966 0) scale(0.996264)"/>
      <use xlink:href="#CMR17-2e" transform="translate(258.528443 0) scale(0.996264)"/>
      <use xlink:href="#CMR17-30" transform="translate(283.399502 0) scale(0.996264)"/>
      <use xlink:href="#CMR17-30" transform="translate(329.089979 0) scale(0.996264)"/>
     </g>
    </g>
    <g id="line2d_50">
     <path d="M 948.117672 255.734519 
L 962.117672 255.734519 
L 976.117672 255.734519 
" style="fill: none; stroke: #b5cf6b; stroke-width: 2; stroke-linecap: round"/>
    </g>
    <g id="text_24">
     <!-- t = 100.00 -->
     <g style="fill: #262626" transform="translate(987.317672 260.634519) scale(0.14 -0.14)">
      <use xlink:href="#CMR17-74" transform="scale(0.996264)"/>
      <use xlink:href="#CMR17-3d" transform="translate(65.356734 0) scale(0.996264)"/>
      <use xlink:href="#CMR17-31" transform="translate(167.147489 0) scale(0.996264)"/>
      <use xlink:href="#CMR17-30" transform="translate(212.837966 0) scale(0.996264)"/>
      <use xlink:href="#CMR17-30" transform="translate(258.528443 0) scale(0.996264)"/>
      <use xlink:href="#CMR17-2e" transform="translate(304.21892 0) scale(0.996264)"/>
      <use xlink:href="#CMR17-30" transform="translate(329.089979 0) scale(0.996264)"/>
      <use xlink:href="#CMR17-30" transform="translate(374.780456 0) scale(0.996264)"/>
     </g>
    </g>
    <g id="line2d_51">
     <path d="M 948.117672 275.246547 
L 962.117672 275.246547 
L 976.117672 275.246547 
" style="fill: none; stroke: #8c6d31; stroke-width: 2; stroke-linecap: round"/>
    </g>
    <g id="text_25">
     <!-- t = 250.00 -->
     <g style="fill: #262626" transform="translate(987.317672 280.146547) scale(0.14 -0.14)">
      <use xlink:href="#CMR17-74" transform="scale(0.996264)"/>
      <use xlink:href="#CMR17-3d" transform="translate(65.356734 0) scale(0.996264)"/>
      <use xlink:href="#CMR17-32" transform="translate(167.147489 0) scale(0.996264)"/>
      <use xlink:href="#CMR17-35" transform="translate(212.837966 0) scale(0.996264)"/>
      <use xlink:href="#CMR17-30" transform="translate(258.528443 0) scale(0.996264)"/>
      <use xlink:href="#CMR17-2e" transform="translate(304.21892 0) scale(0.996264)"/>
      <use xlink:href="#CMR17-30" transform="translate(329.089979 0) scale(0.996264)"/>
      <use xlink:href="#CMR17-30" transform="translate(374.780456 0) scale(0.996264)"/>
     </g>
    </g>
    <g id="line2d_52">
     <path d="M 948.117672 294.758576 
L 962.117672 294.758576 
L 976.117672 294.758576 
" style="fill: none; stroke: #e7cb94; stroke-width: 2; stroke-linecap: round"/>
    </g>
    <g id="text_26">
     <!-- t = 500.00 -->
     <g style="fill: #262626" transform="translate(987.317672 299.658576) scale(0.14 -0.14)">
      <use xlink:href="#CMR17-74" transform="scale(0.996264)"/>
      <use xlink:href="#CMR17-3d" transform="translate(65.356734 0) scale(0.996264)"/>
      <use xlink:href="#CMR17-35" transform="translate(167.147489 0) scale(0.996264)"/>
      <use xlink:href="#CMR17-30" transform="translate(212.837966 0) scale(0.996264)"/>
      <use xlink:href="#CMR17-30" transform="translate(258.528443 0) scale(0.996264)"/>
      <use xlink:href="#CMR17-2e" transform="translate(304.21892 0) scale(0.996264)"/>
      <use xlink:href="#CMR17-30" transform="translate(329.089979 0) scale(0.996264)"/>
      <use xlink:href="#CMR17-30" transform="translate(374.780456 0) scale(0.996264)"/>
     </g>
    </g>
    <g id="line2d_53">
     <path d="M 948.117672 314.270604 
L 962.117672 314.270604 
L 976.117672 314.270604 
" style="fill: none; stroke: #ad494a; stroke-width: 2; stroke-linecap: round"/>
    </g>
    <g id="text_27">
     <!-- t = 750.00 -->
     <g style="fill: #262626" transform="translate(987.317672 319.170604) scale(0.14 -0.14)">
      <use xlink:href="#CMR17-74" transform="scale(0.996264)"/>
      <use xlink:href="#CMR17-3d" transform="translate(65.356734 0) scale(0.996264)"/>
      <use xlink:href="#CMR17-37" transform="translate(167.147489 0) scale(0.996264)"/>
      <use xlink:href="#CMR17-35" transform="translate(212.837966 0) scale(0.996264)"/>
      <use xlink:href="#CMR17-30" transform="translate(258.528443 0) scale(0.996264)"/>
      <use xlink:href="#CMR17-2e" transform="translate(304.21892 0) scale(0.996264)"/>
      <use xlink:href="#CMR17-30" transform="translate(329.089979 0) scale(0.996264)"/>
      <use xlink:href="#CMR17-30" transform="translate(374.780456 0) scale(0.996264)"/>
     </g>
    </g>
    <g id="line2d_54">
     <path d="M 948.117672 333.782633 
L 962.117672 333.782633 
L 976.117672 333.782633 
" style="fill: none; stroke: #e7969c; stroke-width: 2; stroke-linecap: round"/>
    </g>
    <g id="text_28">
     <!-- t = 1000.00 -->
     <g style="fill: #262626" transform="translate(987.317672 338.682633) scale(0.14 -0.14)">
      <use xlink:href="#CMR17-74" transform="scale(0.996264)"/>
      <use xlink:href="#CMR17-3d" transform="translate(65.356734 0) scale(0.996264)"/>
      <use xlink:href="#CMR17-31" transform="translate(167.147489 0) scale(0.996264)"/>
      <use xlink:href="#CMR17-30" transform="translate(212.837966 0) scale(0.996264)"/>
      <use xlink:href="#CMR17-30" transform="translate(258.528443 0) scale(0.996264)"/>
      <use xlink:href="#CMR17-30" transform="translate(304.21892 0) scale(0.996264)"/>
      <use xlink:href="#CMR17-2e" transform="translate(349.909397 0) scale(0.996264)"/>
      <use xlink:href="#CMR17-30" transform="translate(374.780456 0) scale(0.996264)"/>
      <use xlink:href="#CMR17-30" transform="translate(420.470933 0) scale(0.996264)"/>
     </g>
    </g>
    <g id="line2d_55">
     <path d="M 948.117672 353.294661 
L 962.117672 353.294661 
L 976.117672 353.294661 
" style="fill: none; stroke: #a55194; stroke-width: 2; stroke-linecap: round"/>
    </g>
    <g id="text_29">
     <!-- t = 1250.00 -->
     <g style="fill: #262626" transform="translate(987.317672 358.194661) scale(0.14 -0.14)">
      <use xlink:href="#CMR17-74" transform="scale(0.996264)"/>
      <use xlink:href="#CMR17-3d" transform="translate(65.356734 0) scale(0.996264)"/>
      <use xlink:href="#CMR17-31" transform="translate(167.147489 0) scale(0.996264)"/>
      <use xlink:href="#CMR17-32" transform="translate(212.837966 0) scale(0.996264)"/>
      <use xlink:href="#CMR17-35" transform="translate(258.528443 0) scale(0.996264)"/>
      <use xlink:href="#CMR17-30" transform="translate(304.21892 0) scale(0.996264)"/>
      <use xlink:href="#CMR17-2e" transform="translate(349.909397 0) scale(0.996264)"/>
      <use xlink:href="#CMR17-30" transform="translate(374.780456 0) scale(0.996264)"/>
      <use xlink:href="#CMR17-30" transform="translate(420.470933 0) scale(0.996264)"/>
     </g>
    </g>
    <g id="line2d_56">
     <path d="M 948.117672 372.806689 
L 962.117672 372.806689 
L 976.117672 372.806689 
" style="fill: none; stroke: #de9ed6; stroke-width: 2; stroke-linecap: round"/>
    </g>
    <g id="text_30">
     <!-- t = 1500.00 -->
     <g style="fill: #262626" transform="translate(987.317672 377.706689) scale(0.14 -0.14)">
      <use xlink:href="#CMR17-74" transform="scale(0.996264)"/>
      <use xlink:href="#CMR17-3d" transform="translate(65.356734 0) scale(0.996264)"/>
      <use xlink:href="#CMR17-31" transform="translate(167.147489 0) scale(0.996264)"/>
      <use xlink:href="#CMR17-35" transform="translate(212.837966 0) scale(0.996264)"/>
      <use xlink:href="#CMR17-30" transform="translate(258.528443 0) scale(0.996264)"/>
      <use xlink:href="#CMR17-30" transform="translate(304.21892 0) scale(0.996264)"/>
      <use xlink:href="#CMR17-2e" transform="translate(349.909397 0) scale(0.996264)"/>
      <use xlink:href="#CMR17-30" transform="translate(374.780456 0) scale(0.996264)"/>
      <use xlink:href="#CMR17-30" transform="translate(420.470933 0) scale(0.996264)"/>
     </g>
    </g>
   </g>
  </g>
  <g id="text_31">
   <!-- permeability -->
   <g style="fill: #262626" transform="translate(492.111452 24.803515) scale(0.192 -0.192)">
    <defs>
     <path id="CMR17-70" d="M 1408 -1063 
C 998 -1063 973 -1037 973 -789 
L 973 402 
C 1158 134 1427 -38 1766 -38 
C 2406 -38 3053 523 3053 1388 
C 3053 2191 2496 2802 1837 2802 
C 1453 2802 1139 2592 960 2338 
L 960 2802 
L 198 2732 
L 198 2567 
C 576 2567 634 2528 634 2223 
L 634 -789 
C 634 -1031 608 -1063 198 -1063 
L 198 -1228 
C 352 -1216 634 -1216 800 -1216 
C 966 -1216 1254 -1216 1408 -1228 
L 1408 -1063 
z
M 973 2012 
C 973 2102 973 2235 1222 2471 
C 1254 2497 1472 2688 1792 2688 
C 2259 2688 2643 2108 2643 1382 
C 2643 656 2234 64 1728 64 
C 1498 64 1248 172 1056 472 
C 973 612 973 650 973 752 
L 973 2012 
z
" transform="scale(0.015625)"/>
     <path id="CMR17-72" d="M 960 1497 
C 960 2112 1222 2688 1702 2688 
C 1747 2688 1792 2682 1837 2662 
C 1837 2662 1696 2617 1696 2452 
C 1696 2298 1818 2234 1914 2234 
C 1990 2234 2131 2279 2131 2458 
C 2131 2663 1926 2790 1709 2790 
C 1222 2790 1011 2317 947 2093 
L 941 2093 
L 941 2790 
L 198 2720 
L 198 2554 
C 576 2554 634 2515 634 2208 
L 634 428 
C 634 184 608 153 198 153 
L 198 -13 
C 352 0 646 0 813 0 
C 998 0 1325 0 1498 -13 
L 1498 153 
C 1037 153 960 153 960 440 
L 960 1497 
z
" transform="scale(0.015625)"/>
     <path id="CMR17-61" d="M 2304 1653 
C 2304 2072 2304 2294 2035 2543 
C 1798 2752 1523 2816 1306 2816 
C 800 2816 435 2407 435 1971 
C 435 1728 627 1728 666 1728 
C 749 1728 896 1778 896 1954 
C 896 2112 774 2181 666 2181 
C 640 2181 608 2174 589 2168 
C 723 2592 1069 2714 1293 2714 
C 1613 2714 1965 2429 1965 1885 
L 1965 1600 
C 1587 1600 1133 1549 774 1357 
C 371 1133 256 813 256 570 
C 256 77 832 -64 1171 -64 
C 1523 -64 1850 139 1990 511 
C 2003 233 2182 -18 2464 -18 
C 2598 -18 2938 70 2938 567 
L 2938 920 
L 2822 920 
L 2822 562 
C 2822 178 2650 128 2566 128 
C 2304 128 2304 458 2304 738 
L 2304 1653 
z
M 1965 870 
C 1965 317 1568 38 1216 38 
C 896 38 646 275 646 570 
C 646 761 730 1100 1101 1305 
C 1408 1478 1760 1504 1965 1504 
L 1965 870 
z
" transform="scale(0.015625)"/>
     <path id="CMR17-62" d="M 960 4396 
L 198 4326 
L 198 4160 
C 576 4160 634 4122 634 3817 
L 634 -13 
L 749 -13 
L 934 441 
C 1120 141 1395 -64 1766 -64 
C 2406 -64 3053 500 3053 1370 
C 3053 2188 2477 2790 1830 2790 
C 1434 2790 1152 2579 960 2330 
L 960 4396 
z
M 973 2004 
C 973 2118 973 2138 1062 2272 
C 1312 2657 1670 2688 1792 2688 
C 1984 2688 2643 2585 2643 1376 
C 2643 108 1888 38 1734 38 
C 1536 38 1248 114 1043 486 
C 973 608 973 621 973 735 
L 973 2004 
z
" transform="scale(0.015625)"/>
     <path id="CMR17-6c" d="M 979 4396 
L 218 4326 
L 218 4160 
C 595 4160 653 4122 653 3817 
L 653 426 
C 653 184 627 153 218 153 
L 218 -13 
C 371 0 653 0 813 0 
C 979 0 1261 0 1414 -13 
L 1414 153 
C 1005 153 979 178 979 426 
L 979 4396 
z
" transform="scale(0.015625)"/>
     <path id="CMR17-79" d="M 2496 2197 
C 2656 2586 2944 2586 3034 2586 
L 3034 2752 
C 2912 2752 2752 2752 2630 2752 
C 2496 2752 2285 2752 2157 2758 
L 2157 2592 
C 2400 2573 2406 2394 2406 2343 
C 2406 2280 2394 2248 2362 2171 
L 1664 449 
L 902 2306 
C 870 2382 870 2426 870 2433 
C 870 2573 1018 2586 1171 2586 
L 1171 2758 
C 1018 2752 742 2752 582 2752 
C 410 2752 205 2752 64 2758 
L 64 2586 
C 410 2586 448 2554 531 2350 
L 1485 15 
C 1197 -738 1030 -1178 627 -1178 
C 557 -1178 397 -1159 282 -1044 
C 429 -1031 493 -942 493 -833 
C 493 -725 416 -629 288 -629 
C 147 -629 77 -725 77 -840 
C 77 -1095 339 -1280 627 -1280 
C 998 -1280 1229 -922 1357 -604 
L 2496 2197 
z
" transform="scale(0.015625)"/>
    </defs>
    <use xlink:href="#CMR17-70" transform="scale(0.996264)"/>
    <use xlink:href="#CMR17-65" transform="translate(53.497809 0) scale(0.996264)"/>
    <use xlink:href="#CMR17-72" transform="translate(93.983469 0) scale(0.996264)"/>
    <use xlink:href="#CMR17-6d" transform="translate(129.264237 0) scale(0.996264)"/>
    <use xlink:href="#CMR17-65" transform="translate(206.183827 0) scale(0.996264)"/>
    <use xlink:href="#CMR17-61" transform="translate(246.669487 0) scale(0.996264)"/>
    <use xlink:href="#CMR17-62" transform="translate(292.359964 0) scale(0.996264)"/>
    <use xlink:href="#CMR17-69" transform="translate(343.255334 0) scale(0.996264)"/>
    <use xlink:href="#CMR17-6c" transform="translate(368.126392 0) scale(0.996264)"/>
    <use xlink:href="#CMR17-69" transform="translate(392.997451 0) scale(0.996264)"/>
    <use xlink:href="#CMR17-74" transform="translate(417.868509 0) scale(0.996264)"/>
    <use xlink:href="#CMR17-79" transform="translate(450.546823 0) scale(0.996264)"/>
   </g>
  </g>
 </g>
 <defs>
  <clipPath id="p1709dd107d">
   <rect x="48.559071" y="51.564121" width="886.958601" height="469.58891"/>
  </clipPath>
 </defs>
</svg>
