<?xml version="1.0" encoding="utf-8" standalone="no"?>
<!DOCTYPE svg PUBLIC "-//W3C//DTD SVG 1.1//EN"
  "http://www.w3.org/Graphics/SVG/1.1/DTD/svg11.dtd">
<svg xmlns:xlink="http://www.w3.org/1999/xlink" width="1080pt" height="576pt" viewBox="0 0 1080 576" xmlns="http://www.w3.org/2000/svg" version="1.1">
 <metadata>
  <rdf:RDF xmlns:dc="http://purl.org/dc/elements/1.1/" xmlns:cc="http://creativecommons.org/ns#" xmlns:rdf="http://www.w3.org/1999/02/22-rdf-syntax-ns#">
   <cc:Work>
    <dc:type rdf:resource="http://purl.org/dc/dcmitype/StillImage"/>
    <dc:date>2024-06-28T11:47:38.394808</dc:date>
    <dc:format>image/svg+xml</dc:format>
    <dc:creator>
     <cc:Agent>
      <dc:title>Matplotlib v3.9.0, https://matplotlib.org/</dc:title>
     </cc:Agent>
    </dc:creator>
   </cc:Work>
  </rdf:RDF>
 </metadata>
 <defs>
  <style type="text/css">*{stroke-linejoin: round; stroke-linecap: butt}</style>
 </defs>
 <g id="figure_1">
  <g id="patch_1">
   <path d="M 0 576 
L 1080 576 
L 1080 0 
L 0 0 
z
" style="fill: #ffffff"/>
  </g>
  <g id="axes_1">
   <g id="patch_2">
    <path d="M 48.559071 521.153031 
L 935.517672 521.153031 
L 935.517672 51.564121 
L 48.559071 51.564121 
z
" style="fill: #eaeaf2"/>
   </g>
   <g id="matplotlib.axis_1">
    <g id="xtick_1">
     <g id="line2d_1">
      <path d="M 48.559071 521.153031 
L 48.559071 51.564121 
" clip-path="url(#p0b17ffbc3b)" style="fill: none; stroke: #ffffff; stroke-linecap: round"/>
     </g>
     <g id="line2d_2"/>
     <g id="text_1">
      <!-- $\mathdefault{0.00}$ -->
      <g style="fill: #262626" transform="translate(36.419535 537.838907) scale(0.14 -0.14)">
       <defs>
        <path id="CMR17-30" d="M 2688 2025 
C 2688 2416 2682 3080 2413 3591 
C 2176 4039 1798 4198 1466 4198 
C 1158 4198 768 4058 525 3597 
C 269 3118 243 2524 243 2025 
C 243 1661 250 1106 448 619 
C 723 -39 1216 -128 1466 -128 
C 1760 -128 2208 -7 2470 600 
C 2662 1042 2688 1559 2688 2025 
z
M 1466 -26 
C 1056 -26 813 325 723 812 
C 653 1188 653 1738 653 2096 
C 653 2588 653 2997 736 3387 
C 858 3929 1216 4096 1466 4096 
C 1728 4096 2067 3923 2189 3400 
C 2272 3036 2278 2607 2278 2096 
C 2278 1680 2278 1169 2202 792 
C 2067 95 1690 -26 1466 -26 
z
" transform="scale(0.015625)"/>
        <path id="CMMI12-3a" d="M 1178 307 
C 1178 492 1024 619 870 619 
C 685 619 557 466 557 313 
C 557 128 710 0 864 0 
C 1050 0 1178 153 1178 307 
z
" transform="scale(0.015625)"/>
       </defs>
       <use xlink:href="#CMR17-30" transform="scale(0.996264)"/>
       <use xlink:href="#CMMI12-3a" transform="translate(45.690477 0) scale(0.996264)"/>
       <use xlink:href="#CMR17-30" transform="translate(72.787654 0) scale(0.996264)"/>
       <use xlink:href="#CMR17-30" transform="translate(118.478131 0) scale(0.996264)"/>
      </g>
     </g>
    </g>
    <g id="xtick_2">
     <g id="line2d_3">
      <path d="M 154.14938 521.153031 
L 154.14938 51.564121 
" clip-path="url(#p0b17ffbc3b)" style="fill: none; stroke: #ffffff; stroke-linecap: round"/>
     </g>
     <g id="line2d_4"/>
     <g id="text_2">
      <!-- $\mathdefault{0.25}$ -->
      <g style="fill: #262626" transform="translate(142.009845 537.838907) scale(0.14 -0.14)">
       <defs>
        <path id="CMR17-32" d="M 2669 989 
L 2554 989 
C 2490 536 2438 459 2413 420 
C 2381 369 1920 369 1830 369 
L 602 369 
C 832 619 1280 1072 1824 1597 
C 2214 1967 2669 2402 2669 3035 
C 2669 3790 2067 4224 1395 4224 
C 691 4224 262 3604 262 3030 
C 262 2780 448 2748 525 2748 
C 589 2748 781 2787 781 3010 
C 781 3207 614 3264 525 3264 
C 486 3264 448 3258 422 3245 
C 544 3790 915 4058 1306 4058 
C 1862 4058 2227 3617 2227 3035 
C 2227 2479 1901 2000 1536 1584 
L 262 146 
L 262 0 
L 2515 0 
L 2669 989 
z
" transform="scale(0.015625)"/>
        <path id="CMR17-35" d="M 730 3692 
C 794 3666 1056 3584 1325 3584 
C 1920 3584 2246 3911 2432 4100 
C 2432 4157 2432 4192 2394 4192 
C 2387 4192 2374 4192 2323 4163 
C 2099 4058 1837 3973 1517 3973 
C 1325 3973 1037 3999 723 4139 
C 653 4171 640 4171 634 4171 
C 602 4171 595 4164 595 4037 
L 595 2203 
C 595 2089 595 2057 659 2057 
C 691 2057 704 2070 736 2114 
C 941 2401 1222 2522 1542 2522 
C 1766 2522 2246 2382 2246 1289 
C 2246 1085 2246 715 2054 421 
C 1894 159 1645 25 1370 25 
C 947 25 518 320 403 814 
C 429 807 480 795 506 795 
C 589 795 749 840 749 1038 
C 749 1210 627 1280 506 1280 
C 358 1280 262 1190 262 1011 
C 262 454 704 -128 1382 -128 
C 2042 -128 2669 440 2669 1264 
C 2669 2030 2170 2624 1549 2624 
C 1222 2624 947 2503 730 2274 
L 730 3692 
z
" transform="scale(0.015625)"/>
       </defs>
       <use xlink:href="#CMR17-30" transform="scale(0.996264)"/>
       <use xlink:href="#CMMI12-3a" transform="translate(45.690477 0) scale(0.996264)"/>
       <use xlink:href="#CMR17-32" transform="translate(72.787654 0) scale(0.996264)"/>
       <use xlink:href="#CMR17-35" transform="translate(118.478131 0) scale(0.996264)"/>
      </g>
     </g>
    </g>
    <g id="xtick_3">
     <g id="line2d_5">
      <path d="M 259.73969 521.153031 
L 259.73969 51.564121 
" clip-path="url(#p0b17ffbc3b)" style="fill: none; stroke: #ffffff; stroke-linecap: round"/>
     </g>
     <g id="line2d_6"/>
     <g id="text_3">
      <!-- $\mathdefault{0.50}$ -->
      <g style="fill: #262626" transform="translate(247.600155 537.838907) scale(0.14 -0.14)">
       <use xlink:href="#CMR17-30" transform="scale(0.996264)"/>
       <use xlink:href="#CMMI12-3a" transform="translate(45.690477 0) scale(0.996264)"/>
       <use xlink:href="#CMR17-35" transform="translate(72.787654 0) scale(0.996264)"/>
       <use xlink:href="#CMR17-30" transform="translate(118.478131 0) scale(0.996264)"/>
      </g>
     </g>
    </g>
    <g id="xtick_4">
     <g id="line2d_7">
      <path d="M 365.33 521.153031 
L 365.33 51.564121 
" clip-path="url(#p0b17ffbc3b)" style="fill: none; stroke: #ffffff; stroke-linecap: round"/>
     </g>
     <g id="line2d_8"/>
     <g id="text_4">
      <!-- $\mathdefault{0.75}$ -->
      <g style="fill: #262626" transform="translate(353.190464 537.838907) scale(0.14 -0.14)">
       <defs>
        <path id="CMR17-37" d="M 2886 3941 
L 2886 4081 
L 1382 4081 
C 634 4081 621 4165 595 4288 
L 480 4288 
L 294 3094 
L 410 3094 
C 429 3215 474 3540 550 3661 
C 589 3712 1062 3712 1171 3712 
L 2579 3712 
L 1869 2661 
C 1395 1954 1069 999 1069 165 
C 1069 89 1069 -128 1299 -128 
C 1530 -128 1530 89 1530 171 
L 1530 465 
C 1530 1508 1709 2196 2003 2636 
L 2886 3941 
z
" transform="scale(0.015625)"/>
       </defs>
       <use xlink:href="#CMR17-30" transform="scale(0.996264)"/>
       <use xlink:href="#CMMI12-3a" transform="translate(45.690477 0) scale(0.996264)"/>
       <use xlink:href="#CMR17-37" transform="translate(72.787654 0) scale(0.996264)"/>
       <use xlink:href="#CMR17-35" transform="translate(118.478131 0) scale(0.996264)"/>
      </g>
     </g>
    </g>
    <g id="xtick_5">
     <g id="line2d_9">
      <path d="M 470.920309 521.153031 
L 470.920309 51.564121 
" clip-path="url(#p0b17ffbc3b)" style="fill: none; stroke: #ffffff; stroke-linecap: round"/>
     </g>
     <g id="line2d_10"/>
     <g id="text_5">
      <!-- $\mathdefault{1.00}$ -->
      <g style="fill: #262626" transform="translate(458.780774 537.838907) scale(0.14 -0.14)">
       <defs>
        <path id="CMR17-31" d="M 1702 4058 
C 1702 4192 1696 4192 1606 4192 
C 1357 3916 979 3827 621 3827 
C 602 3827 570 3827 563 3808 
C 557 3795 557 3782 557 3648 
C 755 3648 1088 3686 1344 3839 
L 1344 461 
C 1344 236 1331 160 781 160 
L 589 160 
L 589 0 
C 896 0 1216 0 1523 0 
C 1830 0 2150 0 2458 0 
L 2458 160 
L 2266 160 
C 1715 160 1702 230 1702 458 
L 1702 4058 
z
" transform="scale(0.015625)"/>
       </defs>
       <use xlink:href="#CMR17-31" transform="scale(0.996264)"/>
       <use xlink:href="#CMMI12-3a" transform="translate(45.690477 0) scale(0.996264)"/>
       <use xlink:href="#CMR17-30" transform="translate(72.787654 0) scale(0.996264)"/>
       <use xlink:href="#CMR17-30" transform="translate(118.478131 0) scale(0.996264)"/>
      </g>
     </g>
    </g>
    <g id="xtick_6">
     <g id="line2d_11">
      <path d="M 576.510619 521.153031 
L 576.510619 51.564121 
" clip-path="url(#p0b17ffbc3b)" style="fill: none; stroke: #ffffff; stroke-linecap: round"/>
     </g>
     <g id="line2d_12"/>
     <g id="text_6">
      <!-- $\mathdefault{1.25}$ -->
      <g style="fill: #262626" transform="translate(564.371084 537.838907) scale(0.14 -0.14)">
       <use xlink:href="#CMR17-31" transform="scale(0.996264)"/>
       <use xlink:href="#CMMI12-3a" transform="translate(45.690477 0) scale(0.996264)"/>
       <use xlink:href="#CMR17-32" transform="translate(72.787654 0) scale(0.996264)"/>
       <use xlink:href="#CMR17-35" transform="translate(118.478131 0) scale(0.996264)"/>
      </g>
     </g>
    </g>
    <g id="xtick_7">
     <g id="line2d_13">
      <path d="M 682.100929 521.153031 
L 682.100929 51.564121 
" clip-path="url(#p0b17ffbc3b)" style="fill: none; stroke: #ffffff; stroke-linecap: round"/>
     </g>
     <g id="line2d_14"/>
     <g id="text_7">
      <!-- $\mathdefault{1.50}$ -->
      <g style="fill: #262626" transform="translate(669.961393 537.838907) scale(0.14 -0.14)">
       <use xlink:href="#CMR17-31" transform="scale(0.996264)"/>
       <use xlink:href="#CMMI12-3a" transform="translate(45.690477 0) scale(0.996264)"/>
       <use xlink:href="#CMR17-35" transform="translate(72.787654 0) scale(0.996264)"/>
       <use xlink:href="#CMR17-30" transform="translate(118.478131 0) scale(0.996264)"/>
      </g>
     </g>
    </g>
    <g id="xtick_8">
     <g id="line2d_15">
      <path d="M 787.691238 521.153031 
L 787.691238 51.564121 
" clip-path="url(#p0b17ffbc3b)" style="fill: none; stroke: #ffffff; stroke-linecap: round"/>
     </g>
     <g id="line2d_16"/>
     <g id="text_8">
      <!-- $\mathdefault{1.75}$ -->
      <g style="fill: #262626" transform="translate(775.551703 537.838907) scale(0.14 -0.14)">
       <use xlink:href="#CMR17-31" transform="scale(0.996264)"/>
       <use xlink:href="#CMMI12-3a" transform="translate(45.690477 0) scale(0.996264)"/>
       <use xlink:href="#CMR17-37" transform="translate(72.787654 0) scale(0.996264)"/>
       <use xlink:href="#CMR17-35" transform="translate(118.478131 0) scale(0.996264)"/>
      </g>
     </g>
    </g>
    <g id="xtick_9">
     <g id="line2d_17">
      <path d="M 893.281548 521.153031 
L 893.281548 51.564121 
" clip-path="url(#p0b17ffbc3b)" style="fill: none; stroke: #ffffff; stroke-linecap: round"/>
     </g>
     <g id="line2d_18"/>
     <g id="text_9">
      <!-- $\mathdefault{2.00}$ -->
      <g style="fill: #262626" transform="translate(881.142013 537.838907) scale(0.14 -0.14)">
       <use xlink:href="#CMR17-32" transform="scale(0.996264)"/>
       <use xlink:href="#CMMI12-3a" transform="translate(45.690477 0) scale(0.996264)"/>
       <use xlink:href="#CMR17-30" transform="translate(72.787654 0) scale(0.996264)"/>
       <use xlink:href="#CMR17-30" transform="translate(118.478131 0) scale(0.996264)"/>
      </g>
     </g>
    </g>
    <g id="text_10">
     <!-- $x$ -->
     <g style="fill: #262626" transform="translate(487.603646 555.620524) scale(0.16 -0.16)">
      <defs>
       <path id="CMMI12-78" d="M 3034 2606 
C 2829 2567 2752 2414 2752 2293 
C 2752 2139 2874 2088 2963 2088 
C 3155 2088 3290 2254 3290 2427 
C 3290 2695 2982 2816 2714 2816 
C 2323 2816 2106 2433 2048 2312 
C 1901 2816 1504 2816 1389 2816 
C 736 2816 390 1980 390 1839 
C 390 1814 416 1782 461 1782 
C 512 1782 525 1820 538 1846 
C 755 2555 1184 2689 1370 2689 
C 1658 2689 1715 2420 1715 2267 
C 1715 2127 1677 1980 1600 1673 
L 1382 798 
C 1286 415 1101 64 762 64 
C 730 64 570 64 435 147 
C 666 192 717 383 717 460 
C 717 588 621 664 499 664 
C 346 664 179 530 179 326 
C 179 57 480 -64 755 -64 
C 1062 -64 1280 179 1414 441 
C 1517 64 1837 -64 2074 -64 
C 2726 -64 3072 773 3072 913 
C 3072 945 3046 971 3008 971 
C 2950 971 2944 939 2925 888 
C 2752 326 2381 64 2093 64 
C 1869 64 1747 230 1747 492 
C 1747 632 1773 734 1875 1156 
L 2099 2024 
C 2195 2408 2413 2689 2707 2689 
C 2720 2689 2899 2689 3034 2606 
z
" transform="scale(0.015625)"/>
      </defs>
      <use xlink:href="#CMMI12-78" transform="scale(0.996264)"/>
     </g>
    </g>
   </g>
   <g id="matplotlib.axis_2">
    <g id="ytick_1">
     <g id="line2d_19">
      <path d="M 48.559071 521.153031 
L 935.517672 521.153031 
" clip-path="url(#p0b17ffbc3b)" style="fill: none; stroke: #ffffff; stroke-linecap: round"/>
     </g>
     <g id="line2d_20"/>
     <g id="text_11">
      <!-- $\mathdefault{0.00}$ -->
      <g style="fill: #262626" transform="translate(17.28 525.995969) scale(0.14 -0.14)">
       <use xlink:href="#CMR17-30" transform="scale(0.996264)"/>
       <use xlink:href="#CMMI12-3a" transform="translate(45.690477 0) scale(0.996264)"/>
       <use xlink:href="#CMR17-30" transform="translate(72.787654 0) scale(0.996264)"/>
       <use xlink:href="#CMR17-30" transform="translate(118.478131 0) scale(0.996264)"/>
      </g>
     </g>
    </g>
    <g id="ytick_2">
     <g id="line2d_21">
      <path d="M 48.559071 464.689023 
L 935.517672 464.689023 
" clip-path="url(#p0b17ffbc3b)" style="fill: none; stroke: #ffffff; stroke-linecap: round"/>
     </g>
     <g id="line2d_22"/>
     <g id="text_12">
      <!-- $\mathdefault{0.25}$ -->
      <g style="fill: #262626" transform="translate(17.28 469.531961) scale(0.14 -0.14)">
       <use xlink:href="#CMR17-30" transform="scale(0.996264)"/>
       <use xlink:href="#CMMI12-3a" transform="translate(45.690477 0) scale(0.996264)"/>
       <use xlink:href="#CMR17-32" transform="translate(72.787654 0) scale(0.996264)"/>
       <use xlink:href="#CMR17-35" transform="translate(118.478131 0) scale(0.996264)"/>
      </g>
     </g>
    </g>
    <g id="ytick_3">
     <g id="line2d_23">
      <path d="M 48.559071 408.225015 
L 935.517672 408.225015 
" clip-path="url(#p0b17ffbc3b)" style="fill: none; stroke: #ffffff; stroke-linecap: round"/>
     </g>
     <g id="line2d_24"/>
     <g id="text_13">
      <!-- $\mathdefault{0.50}$ -->
      <g style="fill: #262626" transform="translate(17.28 413.067953) scale(0.14 -0.14)">
       <use xlink:href="#CMR17-30" transform="scale(0.996264)"/>
       <use xlink:href="#CMMI12-3a" transform="translate(45.690477 0) scale(0.996264)"/>
       <use xlink:href="#CMR17-35" transform="translate(72.787654 0) scale(0.996264)"/>
       <use xlink:href="#CMR17-30" transform="translate(118.478131 0) scale(0.996264)"/>
      </g>
     </g>
    </g>
    <g id="ytick_4">
     <g id="line2d_25">
      <path d="M 48.559071 351.761007 
L 935.517672 351.761007 
" clip-path="url(#p0b17ffbc3b)" style="fill: none; stroke: #ffffff; stroke-linecap: round"/>
     </g>
     <g id="line2d_26"/>
     <g id="text_14">
      <!-- $\mathdefault{0.75}$ -->
      <g style="fill: #262626" transform="translate(17.28 356.603945) scale(0.14 -0.14)">
       <use xlink:href="#CMR17-30" transform="scale(0.996264)"/>
       <use xlink:href="#CMMI12-3a" transform="translate(45.690477 0) scale(0.996264)"/>
       <use xlink:href="#CMR17-37" transform="translate(72.787654 0) scale(0.996264)"/>
       <use xlink:href="#CMR17-35" transform="translate(118.478131 0) scale(0.996264)"/>
      </g>
     </g>
    </g>
    <g id="ytick_5">
     <g id="line2d_27">
      <path d="M 48.559071 295.296999 
L 935.517672 295.296999 
" clip-path="url(#p0b17ffbc3b)" style="fill: none; stroke: #ffffff; stroke-linecap: round"/>
     </g>
     <g id="line2d_28"/>
     <g id="text_15">
      <!-- $\mathdefault{1.00}$ -->
      <g style="fill: #262626" transform="translate(17.28 300.139937) scale(0.14 -0.14)">
       <use xlink:href="#CMR17-31" transform="scale(0.996264)"/>
       <use xlink:href="#CMMI12-3a" transform="translate(45.690477 0) scale(0.996264)"/>
       <use xlink:href="#CMR17-30" transform="translate(72.787654 0) scale(0.996264)"/>
       <use xlink:href="#CMR17-30" transform="translate(118.478131 0) scale(0.996264)"/>
      </g>
     </g>
    </g>
    <g id="ytick_6">
     <g id="line2d_29">
      <path d="M 48.559071 238.832991 
L 935.517672 238.832991 
" clip-path="url(#p0b17ffbc3b)" style="fill: none; stroke: #ffffff; stroke-linecap: round"/>
     </g>
     <g id="line2d_30"/>
     <g id="text_16">
      <!-- $\mathdefault{1.25}$ -->
      <g style="fill: #262626" transform="translate(17.28 243.675929) scale(0.14 -0.14)">
       <use xlink:href="#CMR17-31" transform="scale(0.996264)"/>
       <use xlink:href="#CMMI12-3a" transform="translate(45.690477 0) scale(0.996264)"/>
       <use xlink:href="#CMR17-32" transform="translate(72.787654 0) scale(0.996264)"/>
       <use xlink:href="#CMR17-35" transform="translate(118.478131 0) scale(0.996264)"/>
      </g>
     </g>
    </g>
    <g id="ytick_7">
     <g id="line2d_31">
      <path d="M 48.559071 182.368983 
L 935.517672 182.368983 
" clip-path="url(#p0b17ffbc3b)" style="fill: none; stroke: #ffffff; stroke-linecap: round"/>
     </g>
     <g id="line2d_32"/>
     <g id="text_17">
      <!-- $\mathdefault{1.50}$ -->
      <g style="fill: #262626" transform="translate(17.28 187.211921) scale(0.14 -0.14)">
       <use xlink:href="#CMR17-31" transform="scale(0.996264)"/>
       <use xlink:href="#CMMI12-3a" transform="translate(45.690477 0) scale(0.996264)"/>
       <use xlink:href="#CMR17-35" transform="translate(72.787654 0) scale(0.996264)"/>
       <use xlink:href="#CMR17-30" transform="translate(118.478131 0) scale(0.996264)"/>
      </g>
     </g>
    </g>
    <g id="ytick_8">
     <g id="line2d_33">
      <path d="M 48.559071 125.904975 
L 935.517672 125.904975 
" clip-path="url(#p0b17ffbc3b)" style="fill: none; stroke: #ffffff; stroke-linecap: round"/>
     </g>
     <g id="line2d_34"/>
     <g id="text_18">
      <!-- $\mathdefault{1.75}$ -->
      <g style="fill: #262626" transform="translate(17.28 130.747913) scale(0.14 -0.14)">
       <use xlink:href="#CMR17-31" transform="scale(0.996264)"/>
       <use xlink:href="#CMMI12-3a" transform="translate(45.690477 0) scale(0.996264)"/>
       <use xlink:href="#CMR17-37" transform="translate(72.787654 0) scale(0.996264)"/>
       <use xlink:href="#CMR17-35" transform="translate(118.478131 0) scale(0.996264)"/>
      </g>
     </g>
    </g>
    <g id="ytick_9">
     <g id="line2d_35">
      <path d="M 48.559071 69.440967 
L 935.517672 69.440967 
" clip-path="url(#p0b17ffbc3b)" style="fill: none; stroke: #ffffff; stroke-linecap: round"/>
     </g>
     <g id="line2d_36"/>
     <g id="text_19">
      <!-- $\mathdefault{2.00}$ -->
      <g style="fill: #262626" transform="translate(17.28 74.283905) scale(0.14 -0.14)">
       <use xlink:href="#CMR17-32" transform="scale(0.996264)"/>
       <use xlink:href="#CMMI12-3a" transform="translate(45.690477 0) scale(0.996264)"/>
       <use xlink:href="#CMR17-30" transform="translate(72.787654 0) scale(0.996264)"/>
       <use xlink:href="#CMR17-30" transform="translate(118.478131 0) scale(0.996264)"/>
      </g>
     </g>
    </g>
   </g>
   <g id="line2d_37">
    <path d="M 48.559071 69.440967 
L 57.006295 69.440967 
L 65.45352 69.440967 
L 73.900745 69.440967 
L 82.34797 69.440967 
L 90.795195 69.440967 
L 99.242419 69.440967 
L 107.689644 69.440967 
L 116.136869 69.440967 
L 124.584094 69.440967 
L 133.031318 69.440967 
L 141.478543 69.440967 
L 149.925768 69.440967 
L 158.372993 69.440967 
L 166.820217 69.440967 
L 175.267442 69.440967 
L 183.714667 69.440967 
L 192.161892 69.440967 
L 200.609117 69.440967 
L 209.056341 69.440967 
L 217.503566 69.440967 
L 225.950791 69.440967 
L 234.398016 69.440967 
L 242.84524 69.440967 
L 251.292465 69.440967 
L 259.73969 69.440967 
L 268.186915 69.440967 
L 276.63414 69.440967 
L 285.081364 69.440967 
L 293.528589 69.440967 
L 301.975814 69.440967 
L 310.423039 69.440967 
L 318.870263 69.440967 
L 327.317488 69.440967 
L 335.764713 69.440967 
L 344.211938 69.440967 
L 352.659162 69.440967 
L 361.106387 69.440967 
L 369.553612 69.440967 
L 378.000837 69.440967 
L 386.448062 69.440967 
L 394.895286 69.440967 
L 403.342511 69.440967 
L 411.789736 69.440967 
L 420.236961 69.440967 
L 428.684185 69.440967 
L 437.13141 69.440967 
L 445.578635 69.440967 
L 454.02586 69.440967 
L 462.473085 69.440967 
L 470.920309 69.440967 
L 479.367534 69.440967 
L 487.814759 69.440967 
L 496.261984 69.440967 
L 504.709208 69.440967 
L 513.156433 69.440967 
L 521.603658 69.440967 
L 530.050883 69.440967 
L 538.498107 69.440967 
L 546.945332 69.440967 
L 555.392557 69.440967 
L 563.839782 69.440967 
L 572.287007 69.440967 
L 580.734231 69.440967 
L 589.181456 69.440967 
L 597.628681 69.440967 
L 606.075906 69.440967 
L 614.52313 69.440967 
L 622.970355 69.440967 
L 631.41758 69.440967 
L 639.864805 69.440967 
L 648.31203 69.440967 
L 656.759254 69.440967 
L 665.206479 69.440967 
L 673.653704 69.440967 
L 682.100929 69.440967 
L 690.548153 69.440967 
L 698.995378 69.440967 
L 707.442603 69.440967 
L 715.889828 69.440967 
L 724.337052 69.440967 
L 732.784277 69.440967 
L 741.231502 69.440967 
L 749.678727 69.440967 
L 758.125952 69.440967 
L 766.573176 69.440967 
L 775.020401 69.440967 
L 783.467626 69.440967 
L 791.914851 69.440967 
L 800.362075 69.440967 
L 808.8093 69.440967 
L 817.256525 69.440967 
L 825.70375 69.440967 
L 834.150975 69.440967 
L 842.598199 69.440967 
L 851.045424 69.440967 
L 859.492649 69.440967 
L 867.939874 69.440967 
L 876.387098 69.440967 
L 884.834323 69.440967 
L 893.281548 69.440967 
" clip-path="url(#p0b17ffbc3b)" style="fill: none; stroke: #393b79; stroke-width: 2; stroke-linecap: round"/>
   </g>
   <g id="line2d_38">
    <path d="M 48.559071 76.153321 
L 57.006295 76.14328 
L 65.45352 76.133242 
L 73.900745 76.123218 
L 82.34797 76.113207 
L 90.795195 76.10321 
L 99.242419 76.093226 
L 107.689644 76.083256 
L 116.136869 76.0733 
L 124.584094 76.063357 
L 133.031318 76.053427 
L 141.478543 76.043511 
L 149.925768 76.033609 
L 158.372993 76.02372 
L 166.820217 76.013844 
L 175.267442 76.003982 
L 183.714667 75.994133 
L 192.161892 75.984297 
L 200.609117 75.974475 
L 209.056341 75.964666 
L 217.503566 75.95487 
L 225.950791 75.945088 
L 234.398016 75.935319 
L 242.84524 75.925563 
L 251.292465 75.915821 
L 259.73969 75.906091 
L 268.186915 75.896375 
L 276.63414 75.886672 
L 285.081364 75.876983 
L 293.528589 75.867306 
L 301.975814 75.857643 
L 310.423039 75.847993 
L 318.870263 75.838355 
L 327.317488 75.828731 
L 335.764713 75.81912 
L 344.211938 75.809522 
L 352.659162 75.799938 
L 361.106387 75.790366 
L 369.553612 75.780807 
L 378.000837 75.771261 
L 386.448062 75.761728 
L 394.895286 75.752208 
L 403.342511 75.742701 
L 411.789736 75.733207 
L 420.236961 75.723726 
L 428.684185 75.714257 
L 437.13141 75.704802 
L 445.578635 75.695359 
L 454.02586 75.68593 
L 462.473085 75.676513 
L 470.920309 75.667109 
L 479.367534 75.657717 
L 487.814759 75.648339 
L 496.261984 75.638973 
L 504.709208 75.62962 
L 513.156433 75.62028 
L 521.603658 75.610952 
L 530.050883 75.601637 
L 538.498107 75.592335 
L 546.945332 75.583045 
L 555.392557 75.573768 
L 563.839782 75.564504 
L 572.287007 75.555252 
L 580.734231 75.546013 
L 589.181456 75.536786 
L 597.628681 75.527572 
L 606.075906 75.518371 
L 614.52313 75.509182 
L 622.970355 75.500006 
L 631.41758 75.490842 
L 639.864805 75.481684 
L 648.31203 75.472524 
L 656.759254 75.463377 
L 665.206479 75.454243 
L 673.653704 75.445121 
L 682.100929 75.436011 
L 690.548153 75.426914 
L 698.995378 75.417829 
L 707.442603 75.408757 
L 715.889828 75.399696 
L 724.337052 75.390649 
L 732.784277 75.381613 
L 741.231502 75.37259 
L 749.678727 75.363579 
L 758.125952 75.354581 
L 766.573176 75.345594 
L 775.020401 75.33662 
L 783.467626 75.327659 
L 791.914851 75.318709 
L 800.362075 75.309772 
L 808.8093 75.300846 
L 817.256525 75.291933 
L 825.70375 75.283033 
L 834.150975 75.274144 
L 842.598199 75.265267 
L 851.045424 75.256403 
L 859.492649 75.24755 
L 867.939874 75.23871 
L 876.387098 75.229882 
L 884.834323 75.221065 
L 893.281548 75.212261 
" clip-path="url(#p0b17ffbc3b)" style="fill: none; stroke: #6b6ecf; stroke-width: 2; stroke-linecap: round"/>
   </g>
   <g id="line2d_39">
    <path d="M 48.559071 101.604246 
L 57.006295 101.569477 
L 65.45352 101.534742 
L 73.900745 101.499979 
L 82.34797 101.465258 
L 90.795195 101.430577 
L 99.242419 101.395937 
L 107.689644 101.361338 
L 116.136869 101.326779 
L 124.584094 101.292261 
L 133.031318 101.257783 
L 141.478543 101.223346 
L 149.925768 101.188949 
L 158.372993 101.154592 
L 166.820217 101.120276 
L 175.267442 101.086001 
L 183.714667 101.051765 
L 192.161892 101.01757 
L 200.609117 100.983415 
L 209.056341 100.949301 
L 217.503566 100.915194 
L 225.950791 100.881085 
L 234.398016 100.847016 
L 242.84524 100.812988 
L 251.292465 100.778999 
L 259.73969 100.74505 
L 268.186915 100.711142 
L 276.63414 100.677272 
L 285.081364 100.643443 
L 293.528589 100.609653 
L 301.975814 100.575903 
L 310.423039 100.542192 
L 318.870263 100.508521 
L 327.317488 100.47489 
L 335.764713 100.441298 
L 344.211938 100.407745 
L 352.659162 100.374232 
L 361.106387 100.340758 
L 369.553612 100.307293 
L 378.000837 100.273825 
L 386.448062 100.240396 
L 394.895286 100.207006 
L 403.342511 100.173656 
L 411.789736 100.140344 
L 420.236961 100.107071 
L 428.684185 100.073838 
L 437.13141 100.040643 
L 445.578635 100.007487 
L 454.02586 99.97437 
L 462.473085 99.941292 
L 470.920309 99.908253 
L 479.367534 99.875253 
L 487.814759 99.842291 
L 496.261984 99.809368 
L 504.709208 99.776483 
L 513.156433 99.743637 
L 521.603658 99.710829 
L 530.050883 99.677989 
L 538.498107 99.645187 
L 546.945332 99.612423 
L 555.392557 99.579697 
L 563.839782 99.54701 
L 572.287007 99.514362 
L 580.734231 99.481751 
L 589.181456 99.449178 
L 597.628681 99.416644 
L 606.075906 99.384148 
L 614.52313 99.35169 
L 622.970355 99.319269 
L 631.41758 99.286887 
L 639.864805 99.254543 
L 648.31203 99.222236 
L 656.759254 99.189967 
L 665.206479 99.157736 
L 673.653704 99.125543 
L 682.100929 99.093376 
L 690.548153 99.061187 
L 698.995378 99.029037 
L 707.442603 98.996924 
L 715.889828 98.964848 
L 724.337052 98.93281 
L 732.784277 98.90081 
L 741.231502 98.868847 
L 749.678727 98.836922 
L 758.125952 98.805034 
L 766.573176 98.773183 
L 775.020401 98.74137 
L 783.467626 98.709593 
L 791.914851 98.677854 
L 800.362075 98.646152 
L 808.8093 98.614487 
L 817.256525 98.582859 
L 825.70375 98.551267 
L 834.150975 98.519713 
L 842.598199 98.488195 
L 851.045424 98.456653 
L 859.492649 98.42514 
L 867.939874 98.393664 
L 876.387098 98.362225 
L 884.834323 98.330823 
L 893.281548 98.299457 
" clip-path="url(#p0b17ffbc3b)" style="fill: none; stroke: #637939; stroke-width: 2; stroke-linecap: round"/>
   </g>
   <g id="line2d_40">
    <path d="M 48.559071 130.549474 
L 57.006295 130.487515 
L 65.45352 130.425632 
L 73.900745 130.363824 
L 82.34797 130.302029 
L 90.795195 130.240241 
L 99.242419 130.178528 
L 107.689644 130.116888 
L 116.136869 130.055323 
L 124.584094 129.993832 
L 133.031318 129.932415 
L 141.478543 129.871072 
L 149.925768 129.809803 
L 158.372993 129.748531 
L 166.820217 129.687281 
L 175.267442 129.626106 
L 183.714667 129.565006 
L 192.161892 129.503979 
L 200.609117 129.443025 
L 209.056341 129.382145 
L 217.503566 129.321338 
L 225.950791 129.260604 
L 234.398016 129.199864 
L 242.84524 129.139149 
L 251.292465 129.078507 
L 259.73969 129.017939 
L 268.186915 128.957443 
L 276.63414 128.897019 
L 285.081364 128.836669 
L 293.528589 128.776391 
L 301.975814 128.716186 
L 310.423039 128.655985 
L 318.870263 128.595798 
L 327.317488 128.535684 
L 335.764713 128.475642 
L 344.211938 128.415673 
L 352.659162 128.355776 
L 361.106387 128.29595 
L 369.553612 128.236196 
L 378.000837 128.176514 
L 386.448062 128.116858 
L 394.895286 128.057194 
L 403.342511 127.997601 
L 411.789736 127.938081 
L 420.236961 127.878632 
L 428.684185 127.819255 
L 437.13141 127.759949 
L 445.578635 127.700713 
L 454.02586 127.641549 
L 462.473085 127.582445 
L 470.920309 127.523299 
L 479.367534 127.464224 
L 487.814759 127.405219 
L 496.261984 127.346285 
L 504.709208 127.287422 
L 513.156433 127.22863 
L 521.603658 127.169908 
L 530.050883 127.111257 
L 538.498107 127.052676 
L 546.945332 126.994078 
L 555.392557 126.935514 
L 563.839782 126.87702 
L 572.287007 126.818596 
L 580.734231 126.760242 
L 589.181456 126.701958 
L 597.628681 126.643744 
L 606.075906 126.5856 
L 614.52313 126.527525 
L 622.970355 126.469494 
L 631.41758 126.411436 
L 639.864805 126.353447 
L 648.31203 126.295528 
L 656.759254 126.237678 
L 665.206479 126.179898 
L 673.653704 126.122187 
L 682.100929 126.064544 
L 690.548153 126.006971 
L 698.995378 125.949466 
L 707.442603 125.891955 
L 715.889828 125.834467 
L 724.337052 125.777046 
L 732.784277 125.719695 
L 741.231502 125.662411 
L 749.678727 125.605197 
L 758.125952 125.548053 
L 766.573176 125.490976 
L 775.020401 125.433968 
L 783.467626 125.377027 
L 791.914851 125.320046 
L 800.362075 125.263121 
L 808.8093 125.206264 
L 817.256525 125.149474 
L 825.70375 125.092752 
L 834.150975 125.036098 
L 842.598199 124.979512 
L 851.045424 124.922993 
L 859.492649 124.866541 
L 867.939874 124.810147 
L 876.387098 124.753711 
L 884.834323 124.697342 
L 893.281548 124.64104 
" clip-path="url(#p0b17ffbc3b)" style="fill: none; stroke: #b5cf6b; stroke-width: 2; stroke-linecap: round"/>
   </g>
   <g id="line2d_41">
    <path d="M 48.559071 201.8908 
L 57.006295 201.767151 
L 65.45352 201.643497 
L 73.900745 201.519961 
L 82.34797 201.396599 
L 90.795195 201.273297 
L 99.242419 201.150049 
L 107.689644 201.026976 
L 116.136869 200.904026 
L 124.584094 200.781064 
L 133.031318 200.658275 
L 141.478543 200.535659 
L 149.925768 200.413002 
L 158.372993 200.290494 
L 166.820217 200.16816 
L 175.267442 200.045863 
L 183.714667 199.923644 
L 192.161892 199.801594 
L 200.609117 199.679652 
L 209.056341 199.557711 
L 217.503566 199.435943 
L 225.950791 199.314344 
L 234.398016 199.192703 
L 242.84524 199.071212 
L 251.292465 198.949893 
L 259.73969 198.828616 
L 268.186915 198.707406 
L 276.63414 198.586364 
L 285.081364 198.465449 
L 293.528589 198.344514 
L 301.975814 198.223749 
L 310.423039 198.103151 
L 318.870263 197.982542 
L 327.317488 197.862053 
L 335.764713 197.741731 
L 344.211938 197.621492 
L 352.659162 197.501276 
L 361.106387 197.381229 
L 369.553612 197.261348 
L 378.000837 197.141417 
L 386.448062 197.021641 
L 394.895286 196.902031 
L 403.342511 196.782472 
L 411.789736 196.662966 
L 420.236961 196.543626 
L 428.684185 196.424441 
L 437.13141 196.305209 
L 445.578635 196.18614 
L 454.02586 196.067234 
L 462.473085 195.948363 
L 470.920309 195.829561 
L 479.367534 195.710925 
L 487.814759 195.592436 
L 496.261984 195.473901 
L 504.709208 195.355532 
L 513.156433 195.237325 
L 521.603658 195.119155 
L 530.050883 195.001049 
L 538.498107 194.883107 
L 546.945332 194.765317 
L 555.392557 194.647475 
L 563.839782 194.529796 
L 572.287007 194.41228 
L 580.734231 194.294813 
L 589.181456 194.177398 
L 597.628681 194.060143 
L 606.075906 193.94305 
L 614.52313 193.825911 
L 622.970355 193.708918 
L 631.41758 193.592085 
L 639.864805 193.475334 
L 648.31203 193.358598 
L 656.759254 193.242024 
L 665.206479 193.12561 
L 673.653704 193.009189 
L 682.100929 192.892873 
L 690.548153 192.776716 
L 698.995378 192.660686 
L 707.442603 192.544629 
L 715.889828 192.42873 
L 724.337052 192.312988 
L 732.784277 192.197289 
L 741.231502 192.081641 
L 749.678727 191.966157 
L 758.125952 191.850831 
L 766.573176 191.735472 
L 775.020401 191.620239 
L 783.467626 191.505164 
L 791.914851 191.390205 
L 800.362075 191.275224 
L 808.8093 191.160401 
L 817.256525 191.045733 
L 825.70375 190.931113 
L 834.150975 190.816539 
L 842.598199 190.702124 
L 851.045424 190.587865 
L 859.492649 190.473586 
L 867.939874 190.359419 
L 876.387098 190.245406 
L 884.834323 190.131534 
L 893.281548 190.017615 
" clip-path="url(#p0b17ffbc3b)" style="fill: none; stroke: #8c6d31; stroke-width: 2; stroke-linecap: round"/>
   </g>
   <g id="line2d_42">
    <path d="M 48.559071 284.786648 
L 57.006295 284.603599 
L 65.45352 284.420697 
L 73.900745 284.237837 
L 82.34797 284.055114 
L 90.795195 283.872543 
L 99.242419 283.690064 
L 107.689644 283.507671 
L 116.136869 283.32543 
L 124.584094 283.143327 
L 133.031318 282.961264 
L 141.478543 282.779352 
L 149.925768 282.597594 
L 158.372993 282.415888 
L 166.820217 282.23431 
L 175.267442 282.052885 
L 183.714667 281.871558 
L 192.161892 281.690312 
L 200.609117 281.509221 
L 209.056341 281.328256 
L 217.503566 281.147346 
L 225.950791 280.966593 
L 234.398016 280.785991 
L 242.84524 280.605417 
L 251.292465 280.425 
L 259.73969 280.244743 
L 268.186915 280.064526 
L 276.63414 279.884448 
L 285.081364 279.704528 
L 293.528589 279.524667 
L 301.975814 279.344929 
L 310.423039 279.165352 
L 318.870263 278.985844 
L 327.317488 278.80645 
L 335.764713 278.627215 
L 344.211938 278.44806 
L 352.659162 278.269008 
L 361.106387 278.090119 
L 369.553612 277.911314 
L 378.000837 277.732604 
L 386.448062 277.554062 
L 394.895286 277.3756 
L 403.342511 277.197237 
L 411.789736 277.019041 
L 420.236961 276.840923 
L 428.684185 276.662908 
L 437.13141 276.485064 
L 445.578635 276.307287 
L 454.02586 276.129621 
L 462.473085 275.952126 
L 470.920309 275.774682 
L 479.367534 275.597374 
L 487.814759 275.420231 
L 496.261984 275.243125 
L 504.709208 275.066168 
L 513.156433 274.889377 
L 521.603658 274.712606 
L 530.050883 274.536002 
L 538.498107 274.359542 
L 546.945332 274.183123 
L 555.392557 274.00688 
L 563.839782 273.830745 
L 572.287007 273.654685 
L 580.734231 273.478801 
L 589.181456 273.30299 
L 597.628681 273.127293 
L 606.075906 272.95177 
L 614.52313 272.776281 
L 622.970355 272.600945 
L 631.41758 272.425765 
L 639.864805 272.250614 
L 648.31203 272.075643 
L 656.759254 271.900777 
L 665.206479 271.725993 
L 673.653704 271.55139 
L 682.100929 271.376838 
L 690.548153 271.202422 
L 698.995378 271.028171 
L 707.442603 270.853946 
L 715.889828 270.679902 
L 724.337052 270.505958 
L 732.784277 270.3321 
L 741.231502 270.158426 
L 749.678727 269.984791 
L 758.125952 269.811312 
L 766.573176 269.637976 
L 775.020401 269.464685 
L 783.467626 269.291574 
L 791.914851 269.118542 
L 800.362075 268.945625 
L 808.8093 268.772888 
L 817.256525 268.60016 
L 825.70375 268.42762 
L 834.150975 268.255181 
L 842.598199 268.082835 
L 851.045424 267.910678 
L 859.492649 267.738533 
L 867.939874 267.566568 
L 876.387098 267.394715 
L 884.834323 267.222939 
L 893.281548 267.05136 
" clip-path="url(#p0b17ffbc3b)" style="fill: none; stroke: #e7cb94; stroke-width: 2; stroke-linecap: round"/>
   </g>
   <g id="line2d_43">
    <path d="M 48.559071 339.948951 
L 57.006295 339.737217 
L 65.45352 339.525549 
L 73.900745 339.313986 
L 82.34797 339.102523 
L 90.795195 338.891163 
L 99.242419 338.679861 
L 107.689644 338.468653 
L 116.136869 338.257548 
L 124.584094 338.046543 
L 133.031318 337.835638 
L 141.478543 337.624785 
L 149.925768 337.414035 
L 158.372993 337.203385 
L 166.820217 336.99284 
L 175.267442 336.782395 
L 183.714667 336.572007 
L 192.161892 336.361717 
L 200.609117 336.151528 
L 209.056341 335.941441 
L 217.503566 335.731455 
L 225.950791 335.521545 
L 234.398016 335.311714 
L 242.84524 335.101988 
L 251.292465 334.89236 
L 259.73969 334.682835 
L 268.186915 334.473409 
L 276.63414 334.264059 
L 285.081364 334.054792 
L 293.528589 333.845626 
L 301.975814 333.636561 
L 310.423039 333.427597 
L 318.870263 333.218732 
L 327.317488 333.009966 
L 335.764713 332.801263 
L 344.211938 332.592663 
L 352.659162 332.384164 
L 361.106387 332.175764 
L 369.553612 331.967466 
L 378.000837 331.759265 
L 386.448062 331.551167 
L 394.895286 331.34314 
L 403.342511 331.135205 
L 411.789736 330.927372 
L 420.236961 330.71964 
L 428.684185 330.512006 
L 437.13141 330.304475 
L 445.578635 330.097045 
L 454.02586 329.889711 
L 462.473085 329.68247 
L 470.920309 329.475306 
L 479.367534 329.268247 
L 487.814759 329.061285 
L 496.261984 328.854427 
L 504.709208 328.647668 
L 513.156433 328.441006 
L 521.603658 328.234449 
L 530.050883 328.027986 
L 538.498107 327.821628 
L 546.945332 327.615366 
L 555.392557 327.409186 
L 563.839782 327.203103 
L 572.287007 326.99712 
L 580.734231 326.791237 
L 589.181456 326.585458 
L 597.628681 326.379777 
L 606.075906 326.174195 
L 614.52313 325.968717 
L 622.970355 325.763338 
L 631.41758 325.558061 
L 639.864805 325.35288 
L 648.31203 325.147802 
L 656.759254 324.942824 
L 665.206479 324.737945 
L 673.653704 324.533167 
L 682.100929 324.328477 
L 690.548153 324.123888 
L 698.995378 323.919397 
L 707.442603 323.715012 
L 715.889828 323.510728 
L 724.337052 323.306539 
L 732.784277 323.102455 
L 741.231502 322.898472 
L 749.678727 322.694589 
L 758.125952 322.490814 
L 766.573176 322.287134 
L 775.020401 322.083561 
L 783.467626 321.880085 
L 791.914851 321.676712 
L 800.362075 321.473441 
L 808.8093 321.27027 
L 817.256525 321.067202 
L 825.70375 320.864235 
L 834.150975 320.661371 
L 842.598199 320.458611 
L 851.045424 320.255951 
L 859.492649 320.053393 
L 867.939874 319.850939 
L 876.387098 319.648587 
L 884.834323 319.446333 
L 893.281548 319.244187 
" clip-path="url(#p0b17ffbc3b)" style="fill: none; stroke: #ad494a; stroke-width: 2; stroke-linecap: round"/>
   </g>
   <g id="line2d_44">
    <path d="M 48.559071 378.412702 
L 57.006295 378.188627 
L 65.45352 377.964605 
L 73.900745 377.740617 
L 82.34797 377.516679 
L 90.795195 377.292798 
L 99.242419 377.068972 
L 107.689644 376.845202 
L 116.136869 376.62149 
L 124.584094 376.397811 
L 133.031318 376.174185 
L 141.478543 375.950615 
L 149.925768 375.727106 
L 158.372993 375.503655 
L 166.820217 375.280248 
L 175.267442 375.056886 
L 183.714667 374.83359 
L 192.161892 374.610352 
L 200.609117 374.387177 
L 209.056341 374.164034 
L 217.503566 373.94095 
L 225.950791 373.71793 
L 234.398016 373.494974 
L 242.84524 373.272065 
L 251.292465 373.049202 
L 259.73969 372.826408 
L 268.186915 372.603681 
L 276.63414 372.380998 
L 285.081364 372.158365 
L 293.528589 371.935801 
L 301.975814 371.71331 
L 310.423039 371.49085 
L 318.870263 371.268453 
L 327.317488 371.046132 
L 335.764713 370.823865 
L 344.211938 370.601642 
L 352.659162 370.379494 
L 361.106387 370.157421 
L 369.553612 369.935374 
L 378.000837 369.7134 
L 386.448062 369.491508 
L 394.895286 369.269648 
L 403.342511 369.047856 
L 411.789736 368.826144 
L 420.236961 368.604474 
L 428.684185 368.382867 
L 437.13141 368.161345 
L 445.578635 367.939862 
L 454.02586 367.718444 
L 462.473085 367.497114 
L 470.920309 367.275811 
L 479.367534 367.054592 
L 487.814759 366.83345 
L 496.261984 366.612342 
L 504.709208 366.391321 
L 513.156433 366.17036 
L 521.603658 365.949454 
L 530.050883 365.728636 
L 538.498107 365.507857 
L 546.945332 365.287155 
L 555.392557 365.066532 
L 563.839782 364.845948 
L 572.287007 364.62546 
L 580.734231 364.405013 
L 589.181456 364.184648 
L 597.628681 363.964355 
L 606.075906 363.744109 
L 614.52313 363.523967 
L 622.970355 363.30385 
L 631.41758 363.083832 
L 639.864805 362.863864 
L 648.31203 362.643973 
L 656.759254 362.424158 
L 665.206479 362.204393 
L 673.653704 361.984729 
L 682.100929 361.765097 
L 690.548153 361.545573 
L 698.995378 361.326078 
L 707.442603 361.106691 
L 715.889828 360.887348 
L 724.337052 360.668091 
L 732.784277 360.448895 
L 741.231502 360.229779 
L 749.678727 360.010728 
L 758.125952 359.791757 
L 766.573176 359.572854 
L 775.020401 359.354023 
L 783.467626 359.135266 
L 791.914851 358.916578 
L 800.362075 358.697968 
L 808.8093 358.479426 
L 817.256525 358.260961 
L 825.70375 358.042567 
L 834.150975 357.824246 
L 842.598199 357.606007 
L 851.045424 357.387831 
L 859.492649 357.169744 
L 867.939874 356.951713 
L 876.387098 356.733783 
L 884.834323 356.515892 
L 893.281548 356.298121 
" clip-path="url(#p0b17ffbc3b)" style="fill: none; stroke: #e7969c; stroke-width: 2; stroke-linecap: round"/>
   </g>
   <g id="line2d_45">
    <path d="M 48.559071 406.238992 
L 57.006295 406.011616 
L 65.45352 405.784261 
L 73.900745 405.556893 
L 82.34797 405.329539 
L 90.795195 405.102191 
L 99.242419 404.874844 
L 107.689644 404.647518 
L 116.136869 404.420179 
L 124.584094 404.192867 
L 133.031318 403.965543 
L 141.478543 403.738242 
L 149.925768 403.510939 
L 158.372993 403.283654 
L 166.820217 403.056371 
L 175.267442 402.829106 
L 183.714667 402.601849 
L 192.161892 402.374606 
L 200.609117 402.147365 
L 209.056341 401.920147 
L 217.503566 401.69293 
L 225.950791 401.46574 
L 234.398016 401.238543 
L 242.84524 401.011383 
L 251.292465 400.784213 
L 259.73969 400.557075 
L 268.186915 400.329943 
L 276.63414 400.102828 
L 285.081364 399.875736 
L 293.528589 399.648643 
L 301.975814 399.421585 
L 310.423039 399.19453 
L 318.870263 398.967495 
L 327.317488 398.740492 
L 335.764713 398.513482 
L 344.211938 398.286508 
L 352.659162 398.059553 
L 361.106387 397.832605 
L 369.553612 397.605691 
L 378.000837 397.37879 
L 386.448062 397.151904 
L 394.895286 396.925049 
L 403.342511 396.698212 
L 411.789736 396.471386 
L 420.236961 396.244595 
L 428.684185 396.017831 
L 437.13141 395.791071 
L 445.578635 395.564345 
L 454.02586 395.337649 
L 462.473085 395.110968 
L 470.920309 394.884303 
L 479.367534 394.657677 
L 487.814759 394.431081 
L 496.261984 394.204498 
L 504.709208 393.977939 
L 513.156433 393.751412 
L 521.603658 393.524921 
L 530.050883 393.298445 
L 538.498107 393.071993 
L 546.945332 392.845571 
L 555.392557 392.619185 
L 563.839782 392.39283 
L 572.287007 392.166493 
L 580.734231 391.940183 
L 589.181456 391.713907 
L 597.628681 391.487664 
L 606.075906 391.261454 
L 614.52313 391.035281 
L 622.970355 390.809123 
L 631.41758 390.582997 
L 639.864805 390.356904 
L 648.31203 390.130848 
L 656.759254 389.904826 
L 665.206479 389.678838 
L 673.653704 389.452886 
L 682.100929 389.226962 
L 690.548153 389.001066 
L 698.995378 388.775204 
L 707.442603 388.549382 
L 715.889828 388.323596 
L 724.337052 388.097842 
L 732.784277 387.872127 
L 741.231502 387.646449 
L 749.678727 387.420806 
L 758.125952 387.195207 
L 766.573176 386.969639 
L 775.020401 386.744113 
L 783.467626 386.518621 
L 791.914851 386.293165 
L 800.362075 386.067746 
L 808.8093 385.842366 
L 817.256525 385.617025 
L 825.70375 385.391723 
L 834.150975 385.166462 
L 842.598199 384.941243 
L 851.045424 384.716065 
L 859.492649 384.490925 
L 867.939874 384.265829 
L 876.387098 384.040775 
L 884.834323 383.815759 
L 893.281548 383.590789 
" clip-path="url(#p0b17ffbc3b)" style="fill: none; stroke: #a55194; stroke-width: 2; stroke-linecap: round"/>
   </g>
   <g id="line2d_46">
    <path d="M 48.559071 426.977888 
L 57.006295 426.75235 
L 65.45352 426.52676 
L 73.900745 426.301137 
L 82.34797 426.075467 
L 90.795195 425.849757 
L 99.242419 425.624011 
L 107.689644 425.398218 
L 116.136869 425.172398 
L 124.584094 424.946524 
L 133.031318 424.720622 
L 141.478543 424.494681 
L 149.925768 424.268697 
L 158.372993 424.042684 
L 166.820217 423.816633 
L 175.267442 423.590543 
L 183.714667 423.364429 
L 192.161892 423.138276 
L 200.609117 422.912082 
L 209.056341 422.685862 
L 217.503566 422.459616 
L 225.950791 422.233324 
L 234.398016 422.007005 
L 242.84524 421.78066 
L 251.292465 421.554289 
L 259.73969 421.327878 
L 268.186915 421.10144 
L 276.63414 420.874976 
L 285.081364 420.648485 
L 293.528589 420.421969 
L 301.975814 420.195421 
L 310.423039 419.968845 
L 318.870263 419.742242 
L 327.317488 419.51562 
L 335.764713 419.288971 
L 344.211938 419.062301 
L 352.659162 418.835609 
L 361.106387 418.608891 
L 369.553612 418.382147 
L 378.000837 418.155379 
L 386.448062 417.928593 
L 394.895286 417.701784 
L 403.342511 417.474955 
L 411.789736 417.248106 
L 420.236961 417.021239 
L 428.684185 416.794352 
L 437.13141 416.567448 
L 445.578635 416.340527 
L 454.02586 416.113586 
L 462.473085 415.88663 
L 470.920309 415.659654 
L 479.367534 415.432668 
L 487.814759 415.205663 
L 496.261984 414.978647 
L 504.709208 414.751614 
L 513.156433 414.524568 
L 521.603658 414.297512 
L 530.050883 414.070435 
L 538.498107 413.843347 
L 546.945332 413.616245 
L 555.392557 413.389134 
L 563.839782 413.162013 
L 572.287007 412.934882 
L 580.734231 412.707745 
L 589.181456 412.480601 
L 597.628681 412.253438 
L 606.075906 412.026265 
L 614.52313 411.799089 
L 622.970355 411.571908 
L 631.41758 411.344724 
L 639.864805 411.117526 
L 648.31203 410.890319 
L 656.759254 410.663109 
L 665.206479 410.435898 
L 673.653704 410.208688 
L 682.100929 409.981458 
L 690.548153 409.75423 
L 698.995378 409.527003 
L 707.442603 409.299778 
L 715.889828 409.072538 
L 724.337052 408.8453 
L 732.784277 408.618071 
L 741.231502 408.390826 
L 749.678727 408.163584 
L 758.125952 407.936356 
L 766.573176 407.709113 
L 775.020401 407.481876 
L 783.467626 407.254647 
L 791.914851 407.027408 
L 800.362075 406.800176 
L 808.8093 406.572958 
L 817.256525 406.345721 
L 825.70375 406.118502 
L 834.150975 405.891286 
L 842.598199 405.66407 
L 851.045424 405.436874 
L 859.492649 405.209659 
L 867.939874 404.982469 
L 876.387098 404.755277 
L 884.834323 404.528091 
L 893.281548 404.300918 
" clip-path="url(#p0b17ffbc3b)" style="fill: none; stroke: #de9ed6; stroke-width: 2; stroke-linecap: round"/>
   </g>
   <g id="patch_3">
    <path d="M 48.559071 521.153031 
L 48.559071 51.564121 
" style="fill: none"/>
   </g>
   <g id="patch_4">
    <path d="M 935.517672 521.153031 
L 935.517672 51.564121 
" style="fill: none"/>
   </g>
   <g id="patch_5">
    <path d="M 48.559071 521.153031 
L 935.517672 521.153031 
" style="fill: none"/>
   </g>
   <g id="patch_6">
    <path d="M 48.559071 51.564121 
L 935.517672 51.564121 
" style="fill: none"/>
   </g>
   <g id="patch_7">
    <path d="M 470.920309 75.958873 
Q 470.920309 241.421926 470.920309 405.207929 
" style="fill: none; stroke: #000000; stroke-width: 1.5; stroke-linecap: round"/>
    <path d="M 474.120309 398.807929 
L 470.920309 405.207929 
L 467.720309 398.807929 
" style="fill: none; stroke: #000000; stroke-width: 1.5; stroke-linecap: round"/>
   </g>
   <g id="text_20">
    <!-- Time -->
    <g style="fill: #262626" transform="translate(492.038371 405.395909) scale(0.18 -0.18)">
     <defs>
      <path id="CMR17-54" d="M 3981 4326 
L 288 4326 
L 179 2918 
L 294 2918 
C 378 3976 467 4160 1453 4160 
C 1568 4160 1754 4160 1805 4154 
C 1926 4135 1926 4058 1926 3912 
L 1926 459 
C 1926 230 1907 160 1376 160 
L 1197 160 
L 1197 0 
C 1504 0 1824 0 2138 0 
C 2451 0 2771 0 3078 0 
L 3078 160 
L 2899 160 
C 2368 160 2349 230 2349 459 
L 2349 3912 
C 2349 4052 2349 4129 2464 4154 
C 2515 4160 2701 4160 2816 4160 
C 3795 4160 3891 3976 3974 2918 
L 4090 2918 
L 3981 4326 
z
" transform="scale(0.015625)"/>
      <path id="CMR17-69" d="M 992 3909 
C 992 4049 877 4170 730 4170 
C 589 4170 467 4056 467 3909 
C 467 3769 582 3648 730 3648 
C 870 3648 992 3763 992 3909 
z
M 243 2706 
L 243 2541 
C 602 2541 653 2502 653 2197 
L 653 427 
C 653 184 627 153 218 153 
L 218 -13 
C 371 0 646 0 806 0 
C 960 0 1222 0 1370 -13 
L 1370 153 
C 992 153 979 191 979 420 
L 979 2776 
L 243 2706 
z
" transform="scale(0.015625)"/>
      <path id="CMR17-6d" d="M 4326 1933 
C 4326 2252 4269 2790 3507 2790 
C 3072 2790 2771 2496 2656 2151 
L 2650 2151 
C 2573 2676 2195 2790 1837 2790 
C 1331 2790 1069 2400 973 2144 
L 966 2144 
L 966 2790 
L 211 2720 
L 211 2554 
C 589 2554 646 2515 646 2208 
L 646 428 
C 646 184 621 153 211 153 
L 211 -13 
C 365 0 646 0 813 0 
C 979 0 1267 0 1421 -13 
L 1421 153 
C 1011 153 986 178 986 428 
L 986 1658 
C 986 2247 1344 2688 1792 2688 
C 2266 2688 2317 2266 2317 1958 
L 2317 428 
C 2317 184 2291 153 1882 153 
L 1882 -13 
C 2035 0 2317 0 2483 0 
C 2650 0 2938 0 3091 -13 
L 3091 153 
C 2682 153 2656 178 2656 428 
L 2656 1658 
C 2656 2247 3014 2688 3462 2688 
C 3936 2688 3987 2266 3987 1958 
L 3987 428 
C 3987 184 3962 153 3552 153 
L 3552 -13 
C 3706 0 3987 0 4154 0 
C 4320 0 4608 0 4762 -13 
L 4762 153 
C 4352 153 4326 178 4326 428 
L 4326 1933 
z
" transform="scale(0.015625)"/>
      <path id="CMR17-65" d="M 2438 1472 
C 2464 1498 2464 1511 2464 1576 
C 2464 2238 2118 2816 1389 2816 
C 710 2816 173 2169 173 1383 
C 173 551 781 -64 1459 -64 
C 2176 -64 2458 607 2458 740 
C 2458 784 2419 784 2406 784 
C 2362 784 2355 771 2330 696 
C 2189 265 1837 51 1504 51 
C 1229 51 954 203 781 480 
C 582 803 582 1176 582 1472 
L 2438 1472 
z
M 589 1568 
C 634 2505 1126 2714 1382 2714 
C 1818 2714 2112 2297 2118 1568 
L 589 1568 
z
" transform="scale(0.015625)"/>
     </defs>
     <use xlink:href="#CMR17-54" transform="scale(0.996264)"/>
     <use xlink:href="#CMR17-69" transform="translate(66.509881 0) scale(0.996264)"/>
     <use xlink:href="#CMR17-6d" transform="translate(91.380939 0) scale(0.996264)"/>
     <use xlink:href="#CMR17-65" transform="translate(168.300529 0) scale(0.996264)"/>
    </g>
   </g>
   <g id="legend_1">
    <g id="line2d_47">
     <path d="M 948.117672 197.198434 
L 962.117672 197.198434 
L 976.117672 197.198434 
" style="fill: none; stroke: #393b79; stroke-width: 2; stroke-linecap: round"/>
    </g>
    <g id="text_21">
     <!-- t = 0.00 -->
     <g style="fill: #262626" transform="translate(987.317672 202.098434) scale(0.14 -0.14)">
      <defs>
       <path id="CMR17-74" d="M 966 2560 
L 1862 2560 
L 1862 2725 
L 966 2725 
L 966 3904 
L 851 3904 
C 838 3245 614 2668 70 2668 
L 70 2560 
L 627 2560 
L 627 771 
C 627 650 627 -64 1370 -64 
C 1747 -64 1965 306 1965 777 
L 1965 1140 
L 1850 1140 
L 1850 783 
C 1850 344 1677 51 1408 51 
C 1222 51 966 178 966 758 
L 966 2560 
z
" transform="scale(0.015625)"/>
       <path id="CMR17-3d" d="M 4115 2017 
C 4211 2017 4307 2017 4307 2125 
C 4307 2240 4198 2240 4090 2240 
L 512 2240 
C 403 2240 294 2240 294 2125 
C 294 2017 390 2017 486 2017 
L 4115 2017 
z
M 4090 896 
C 4198 896 4307 896 4307 1011 
C 4307 1119 4211 1119 4115 1119 
L 486 1119 
C 390 1119 294 1119 294 1011 
C 294 896 403 896 512 896 
L 4090 896 
z
" transform="scale(0.015625)"/>
       <path id="CMR17-2e" d="M 1062 261 
C 1062 420 934 522 800 522 
C 672 522 538 420 538 261 
C 538 102 666 0 800 0 
C 928 0 1062 102 1062 261 
z
" transform="scale(0.015625)"/>
      </defs>
      <use xlink:href="#CMR17-74" transform="scale(0.996264)"/>
      <use xlink:href="#CMR17-3d" transform="translate(65.356734 0) scale(0.996264)"/>
      <use xlink:href="#CMR17-30" transform="translate(167.147489 0) scale(0.996264)"/>
      <use xlink:href="#CMR17-2e" transform="translate(212.837966 0) scale(0.996264)"/>
      <use xlink:href="#CMR17-30" transform="translate(237.709025 0) scale(0.996264)"/>
      <use xlink:href="#CMR17-30" transform="translate(283.399502 0) scale(0.996264)"/>
     </g>
    </g>
    <g id="line2d_48">
     <path d="M 948.117672 216.710462 
L 962.117672 216.710462 
L 976.117672 216.710462 
" style="fill: none; stroke: #6b6ecf; stroke-width: 2; stroke-linecap: round"/>
    </g>
    <g id="text_22">
     <!-- t = 10.00 -->
     <g style="fill: #262626" transform="translate(987.317672 221.610462) scale(0.14 -0.14)">
      <use xlink:href="#CMR17-74" transform="scale(0.996264)"/>
      <use xlink:href="#CMR17-3d" transform="translate(65.356734 0) scale(0.996264)"/>
      <use xlink:href="#CMR17-31" transform="translate(167.147489 0) scale(0.996264)"/>
      <use xlink:href="#CMR17-30" transform="translate(212.837966 0) scale(0.996264)"/>
      <use xlink:href="#CMR17-2e" transform="translate(258.528443 0) scale(0.996264)"/>
      <use xlink:href="#CMR17-30" transform="translate(283.399502 0) scale(0.996264)"/>
      <use xlink:href="#CMR17-30" transform="translate(329.089979 0) scale(0.996264)"/>
     </g>
    </g>
    <g id="line2d_49">
     <path d="M 948.117672 236.222491 
L 962.117672 236.222491 
L 976.117672 236.222491 
" style="fill: none; stroke: #637939; stroke-width: 2; stroke-linecap: round"/>
    </g>
    <g id="text_23">
     <!-- t = 50.00 -->
     <g style="fill: #262626" transform="translate(987.317672 241.122491) scale(0.14 -0.14)">
      <use xlink:href="#CMR17-74" transform="scale(0.996264)"/>
      <use xlink:href="#CMR17-3d" transform="translate(65.356734 0) scale(0.996264)"/>
      <use xlink:href="#CMR17-35" transform="translate(167.147489 0) scale(0.996264)"/>
      <use xlink:href="#CMR17-30" transform="translate(212.837966 0) scale(0.996264)"/>
      <use xlink:href="#CMR17-2e" transform="translate(258.528443 0) scale(0.996264)"/>
      <use xlink:href="#CMR17-30" transform="translate(283.399502 0) scale(0.996264)"/>
      <use xlink:href="#CMR17-30" transform="translate(329.089979 0) scale(0.996264)"/>
     </g>
    </g>
    <g id="line2d_50">
     <path d="M 948.117672 255.734519 
L 962.117672 255.734519 
L 976.117672 255.734519 
" style="fill: none; stroke: #b5cf6b; stroke-width: 2; stroke-linecap: round"/>
    </g>
    <g id="text_24">
     <!-- t = 100.00 -->
     <g style="fill: #262626" transform="translate(987.317672 260.634519) scale(0.14 -0.14)">
      <use xlink:href="#CMR17-74" transform="scale(0.996264)"/>
      <use xlink:href="#CMR17-3d" transform="translate(65.356734 0) scale(0.996264)"/>
      <use xlink:href="#CMR17-31" transform="translate(167.147489 0) scale(0.996264)"/>
      <use xlink:href="#CMR17-30" transform="translate(212.837966 0) scale(0.996264)"/>
      <use xlink:href="#CMR17-30" transform="translate(258.528443 0) scale(0.996264)"/>
      <use xlink:href="#CMR17-2e" transform="translate(304.21892 0) scale(0.996264)"/>
      <use xlink:href="#CMR17-30" transform="translate(329.089979 0) scale(0.996264)"/>
      <use xlink:href="#CMR17-30" transform="translate(374.780456 0) scale(0.996264)"/>
     </g>
    </g>
    <g id="line2d_51">
     <path d="M 948.117672 275.246547 
L 962.117672 275.246547 
L 976.117672 275.246547 
" style="fill: none; stroke: #8c6d31; stroke-width: 2; stroke-linecap: round"/>
    </g>
    <g id="text_25">
     <!-- t = 250.00 -->
     <g style="fill: #262626" transform="translate(987.317672 280.146547) scale(0.14 -0.14)">
      <use xlink:href="#CMR17-74" transform="scale(0.996264)"/>
      <use xlink:href="#CMR17-3d" transform="translate(65.356734 0) scale(0.996264)"/>
      <use xlink:href="#CMR17-32" transform="translate(167.147489 0) scale(0.996264)"/>
      <use xlink:href="#CMR17-35" transform="translate(212.837966 0) scale(0.996264)"/>
      <use xlink:href="#CMR17-30" transform="translate(258.528443 0) scale(0.996264)"/>
      <use xlink:href="#CMR17-2e" transform="translate(304.21892 0) scale(0.996264)"/>
      <use xlink:href="#CMR17-30" transform="translate(329.089979 0) scale(0.996264)"/>
      <use xlink:href="#CMR17-30" transform="translate(374.780456 0) scale(0.996264)"/>
     </g>
    </g>
    <g id="line2d_52">
     <path d="M 948.117672 294.758576 
L 962.117672 294.758576 
L 976.117672 294.758576 
" style="fill: none; stroke: #e7cb94; stroke-width: 2; stroke-linecap: round"/>
    </g>
    <g id="text_26">
     <!-- t = 500.00 -->
     <g style="fill: #262626" transform="translate(987.317672 299.658576) scale(0.14 -0.14)">
      <use xlink:href="#CMR17-74" transform="scale(0.996264)"/>
      <use xlink:href="#CMR17-3d" transform="translate(65.356734 0) scale(0.996264)"/>
      <use xlink:href="#CMR17-35" transform="translate(167.147489 0) scale(0.996264)"/>
      <use xlink:href="#CMR17-30" transform="translate(212.837966 0) scale(0.996264)"/>
      <use xlink:href="#CMR17-30" transform="translate(258.528443 0) scale(0.996264)"/>
      <use xlink:href="#CMR17-2e" transform="translate(304.21892 0) scale(0.996264)"/>
      <use xlink:href="#CMR17-30" transform="translate(329.089979 0) scale(0.996264)"/>
      <use xlink:href="#CMR17-30" transform="translate(374.780456 0) scale(0.996264)"/>
     </g>
    </g>
    <g id="line2d_53">
     <path d="M 948.117672 314.270604 
L 962.117672 314.270604 
L 976.117672 314.270604 
" style="fill: none; stroke: #ad494a; stroke-width: 2; stroke-linecap: round"/>
    </g>
    <g id="text_27">
     <!-- t = 750.00 -->
     <g style="fill: #262626" transform="translate(987.317672 319.170604) scale(0.14 -0.14)">
      <use xlink:href="#CMR17-74" transform="scale(0.996264)"/>
      <use xlink:href="#CMR17-3d" transform="translate(65.356734 0) scale(0.996264)"/>
      <use xlink:href="#CMR17-37" transform="translate(167.147489 0) scale(0.996264)"/>
      <use xlink:href="#CMR17-35" transform="translate(212.837966 0) scale(0.996264)"/>
      <use xlink:href="#CMR17-30" transform="translate(258.528443 0) scale(0.996264)"/>
      <use xlink:href="#CMR17-2e" transform="translate(304.21892 0) scale(0.996264)"/>
      <use xlink:href="#CMR17-30" transform="translate(329.089979 0) scale(0.996264)"/>
      <use xlink:href="#CMR17-30" transform="translate(374.780456 0) scale(0.996264)"/>
     </g>
    </g>
    <g id="line2d_54">
     <path d="M 948.117672 333.782633 
L 962.117672 333.782633 
L 976.117672 333.782633 
" style="fill: none; stroke: #e7969c; stroke-width: 2; stroke-linecap: round"/>
    </g>
    <g id="text_28">
     <!-- t = 1000.00 -->
     <g style="fill: #262626" transform="translate(987.317672 338.682633) scale(0.14 -0.14)">
      <use xlink:href="#CMR17-74" transform="scale(0.996264)"/>
      <use xlink:href="#CMR17-3d" transform="translate(65.356734 0) scale(0.996264)"/>
      <use xlink:href="#CMR17-31" transform="translate(167.147489 0) scale(0.996264)"/>
      <use xlink:href="#CMR17-30" transform="translate(212.837966 0) scale(0.996264)"/>
      <use xlink:href="#CMR17-30" transform="translate(258.528443 0) scale(0.996264)"/>
      <use xlink:href="#CMR17-30" transform="translate(304.21892 0) scale(0.996264)"/>
      <use xlink:href="#CMR17-2e" transform="translate(349.909397 0) scale(0.996264)"/>
      <use xlink:href="#CMR17-30" transform="translate(374.780456 0) scale(0.996264)"/>
      <use xlink:href="#CMR17-30" transform="translate(420.470933 0) scale(0.996264)"/>
     </g>
    </g>
    <g id="line2d_55">
     <path d="M 948.117672 353.294661 
L 962.117672 353.294661 
L 976.117672 353.294661 
" style="fill: none; stroke: #a55194; stroke-width: 2; stroke-linecap: round"/>
    </g>
    <g id="text_29">
     <!-- t = 1250.00 -->
     <g style="fill: #262626" transform="translate(987.317672 358.194661) scale(0.14 -0.14)">
      <use xlink:href="#CMR17-74" transform="scale(0.996264)"/>
      <use xlink:href="#CMR17-3d" transform="translate(65.356734 0) scale(0.996264)"/>
      <use xlink:href="#CMR17-31" transform="translate(167.147489 0) scale(0.996264)"/>
      <use xlink:href="#CMR17-32" transform="translate(212.837966 0) scale(0.996264)"/>
      <use xlink:href="#CMR17-35" transform="translate(258.528443 0) scale(0.996264)"/>
      <use xlink:href="#CMR17-30" transform="translate(304.21892 0) scale(0.996264)"/>
      <use xlink:href="#CMR17-2e" transform="translate(349.909397 0) scale(0.996264)"/>
      <use xlink:href="#CMR17-30" transform="translate(374.780456 0) scale(0.996264)"/>
      <use xlink:href="#CMR17-30" transform="translate(420.470933 0) scale(0.996264)"/>
     </g>
    </g>
    <g id="line2d_56">
     <path d="M 948.117672 372.806689 
L 962.117672 372.806689 
L 976.117672 372.806689 
" style="fill: none; stroke: #de9ed6; stroke-width: 2; stroke-linecap: round"/>
    </g>
    <g id="text_30">
     <!-- t = 1500.00 -->
     <g style="fill: #262626" transform="translate(987.317672 377.706689) scale(0.14 -0.14)">
      <use xlink:href="#CMR17-74" transform="scale(0.996264)"/>
      <use xlink:href="#CMR17-3d" transform="translate(65.356734 0) scale(0.996264)"/>
      <use xlink:href="#CMR17-31" transform="translate(167.147489 0) scale(0.996264)"/>
      <use xlink:href="#CMR17-35" transform="translate(212.837966 0) scale(0.996264)"/>
      <use xlink:href="#CMR17-30" transform="translate(258.528443 0) scale(0.996264)"/>
      <use xlink:href="#CMR17-30" transform="translate(304.21892 0) scale(0.996264)"/>
      <use xlink:href="#CMR17-2e" transform="translate(349.909397 0) scale(0.996264)"/>
      <use xlink:href="#CMR17-30" transform="translate(374.780456 0) scale(0.996264)"/>
      <use xlink:href="#CMR17-30" transform="translate(420.470933 0) scale(0.996264)"/>
     </g>
    </g>
   </g>
  </g>
  <g id="text_31">
   <!-- permeability -->
   <g style="fill: #262626" transform="translate(492.111452 24.803515) scale(0.192 -0.192)">
    <defs>
     <path id="CMR17-70" d="M 1408 -1063 
C 998 -1063 973 -1037 973 -789 
L 973 402 
C 1158 134 1427 -38 1766 -38 
C 2406 -38 3053 523 3053 1388 
C 3053 2191 2496 2802 1837 2802 
C 1453 2802 1139 2592 960 2338 
L 960 2802 
L 198 2732 
L 198 2567 
C 576 2567 634 2528 634 2223 
L 634 -789 
C 634 -1031 608 -1063 198 -1063 
L 198 -1228 
C 352 -1216 634 -1216 800 -1216 
C 966 -1216 1254 -1216 1408 -1228 
L 1408 -1063 
z
M 973 2012 
C 973 2102 973 2235 1222 2471 
C 1254 2497 1472 2688 1792 2688 
C 2259 2688 2643 2108 2643 1382 
C 2643 656 2234 64 1728 64 
C 1498 64 1248 172 1056 472 
C 973 612 973 650 973 752 
L 973 2012 
z
" transform="scale(0.015625)"/>
     <path id="CMR17-72" d="M 960 1497 
C 960 2112 1222 2688 1702 2688 
C 1747 2688 1792 2682 1837 2662 
C 1837 2662 1696 2617 1696 2452 
C 1696 2298 1818 2234 1914 2234 
C 1990 2234 2131 2279 2131 2458 
C 2131 2663 1926 2790 1709 2790 
C 1222 2790 1011 2317 947 2093 
L 941 2093 
L 941 2790 
L 198 2720 
L 198 2554 
C 576 2554 634 2515 634 2208 
L 634 428 
C 634 184 608 153 198 153 
L 198 -13 
C 352 0 646 0 813 0 
C 998 0 1325 0 1498 -13 
L 1498 153 
C 1037 153 960 153 960 440 
L 960 1497 
z
" transform="scale(0.015625)"/>
     <path id="CMR17-61" d="M 2304 1653 
C 2304 2072 2304 2294 2035 2543 
C 1798 2752 1523 2816 1306 2816 
C 800 2816 435 2407 435 1971 
C 435 1728 627 1728 666 1728 
C 749 1728 896 1778 896 1954 
C 896 2112 774 2181 666 2181 
C 640 2181 608 2174 589 2168 
C 723 2592 1069 2714 1293 2714 
C 1613 2714 1965 2429 1965 1885 
L 1965 1600 
C 1587 1600 1133 1549 774 1357 
C 371 1133 256 813 256 570 
C 256 77 832 -64 1171 -64 
C 1523 -64 1850 139 1990 511 
C 2003 233 2182 -18 2464 -18 
C 2598 -18 2938 70 2938 567 
L 2938 920 
L 2822 920 
L 2822 562 
C 2822 178 2650 128 2566 128 
C 2304 128 2304 458 2304 738 
L 2304 1653 
z
M 1965 870 
C 1965 317 1568 38 1216 38 
C 896 38 646 275 646 570 
C 646 761 730 1100 1101 1305 
C 1408 1478 1760 1504 1965 1504 
L 1965 870 
z
" transform="scale(0.015625)"/>
     <path id="CMR17-62" d="M 960 4396 
L 198 4326 
L 198 4160 
C 576 4160 634 4122 634 3817 
L 634 -13 
L 749 -13 
L 934 441 
C 1120 141 1395 -64 1766 -64 
C 2406 -64 3053 500 3053 1370 
C 3053 2188 2477 2790 1830 2790 
C 1434 2790 1152 2579 960 2330 
L 960 4396 
z
M 973 2004 
C 973 2118 973 2138 1062 2272 
C 1312 2657 1670 2688 1792 2688 
C 1984 2688 2643 2585 2643 1376 
C 2643 108 1888 38 1734 38 
C 1536 38 1248 114 1043 486 
C 973 608 973 621 973 735 
L 973 2004 
z
" transform="scale(0.015625)"/>
     <path id="CMR17-6c" d="M 979 4396 
L 218 4326 
L 218 4160 
C 595 4160 653 4122 653 3817 
L 653 426 
C 653 184 627 153 218 153 
L 218 -13 
C 371 0 653 0 813 0 
C 979 0 1261 0 1414 -13 
L 1414 153 
C 1005 153 979 178 979 426 
L 979 4396 
z
" transform="scale(0.015625)"/>
     <path id="CMR17-79" d="M 2496 2197 
C 2656 2586 2944 2586 3034 2586 
L 3034 2752 
C 2912 2752 2752 2752 2630 2752 
C 2496 2752 2285 2752 2157 2758 
L 2157 2592 
C 2400 2573 2406 2394 2406 2343 
C 2406 2280 2394 2248 2362 2171 
L 1664 449 
L 902 2306 
C 870 2382 870 2426 870 2433 
C 870 2573 1018 2586 1171 2586 
L 1171 2758 
C 1018 2752 742 2752 582 2752 
C 410 2752 205 2752 64 2758 
L 64 2586 
C 410 2586 448 2554 531 2350 
L 1485 15 
C 1197 -738 1030 -1178 627 -1178 
C 557 -1178 397 -1159 282 -1044 
C 429 -1031 493 -942 493 -833 
C 493 -725 416 -629 288 -629 
C 147 -629 77 -725 77 -840 
C 77 -1095 339 -1280 627 -1280 
C 998 -1280 1229 -922 1357 -604 
L 2496 2197 
z
" transform="scale(0.015625)"/>
    </defs>
    <use xlink:href="#CMR17-70" transform="scale(0.996264)"/>
    <use xlink:href="#CMR17-65" transform="translate(53.497809 0) scale(0.996264)"/>
    <use xlink:href="#CMR17-72" transform="translate(93.983469 0) scale(0.996264)"/>
    <use xlink:href="#CMR17-6d" transform="translate(129.264237 0) scale(0.996264)"/>
    <use xlink:href="#CMR17-65" transform="translate(206.183827 0) scale(0.996264)"/>
    <use xlink:href="#CMR17-61" transform="translate(246.669487 0) scale(0.996264)"/>
    <use xlink:href="#CMR17-62" transform="translate(292.359964 0) scale(0.996264)"/>
    <use xlink:href="#CMR17-69" transform="translate(343.255334 0) scale(0.996264)"/>
    <use xlink:href="#CMR17-6c" transform="translate(368.126392 0) scale(0.996264)"/>
    <use xlink:href="#CMR17-69" transform="translate(392.997451 0) scale(0.996264)"/>
    <use xlink:href="#CMR17-74" transform="translate(417.868509 0) scale(0.996264)"/>
    <use xlink:href="#CMR17-79" transform="translate(450.546823 0) scale(0.996264)"/>
   </g>
  </g>
 </g>
 <defs>
  <clipPath id="p0b17ffbc3b">
   <rect x="48.559071" y="51.564121" width="886.958601" height="469.58891"/>
  </clipPath>
 </defs>
</svg>
