<?xml version="1.0" encoding="utf-8" standalone="no"?>
<!DOCTYPE svg PUBLIC "-//W3C//DTD SVG 1.1//EN"
  "http://www.w3.org/Graphics/SVG/1.1/DTD/svg11.dtd">
<svg xmlns:xlink="http://www.w3.org/1999/xlink" width="1080pt" height="576pt" viewBox="0 0 1080 576" xmlns="http://www.w3.org/2000/svg" version="1.1">
 <metadata>
  <rdf:RDF xmlns:dc="http://purl.org/dc/elements/1.1/" xmlns:cc="http://creativecommons.org/ns#" xmlns:rdf="http://www.w3.org/1999/02/22-rdf-syntax-ns#">
   <cc:Work>
    <dc:type rdf:resource="http://purl.org/dc/dcmitype/StillImage"/>
    <dc:date>2024-06-28T12:40:40.349194</dc:date>
    <dc:format>image/svg+xml</dc:format>
    <dc:creator>
     <cc:Agent>
      <dc:title>Matplotlib v3.9.0, https://matplotlib.org/</dc:title>
     </cc:Agent>
    </dc:creator>
   </cc:Work>
  </rdf:RDF>
 </metadata>
 <defs>
  <style type="text/css">*{stroke-linejoin: round; stroke-linecap: butt}</style>
 </defs>
 <g id="figure_1">
  <g id="patch_1">
   <path d="M 0 576 
L 1080 576 
L 1080 0 
L 0 0 
z
" style="fill: #ffffff"/>
  </g>
  <g id="axes_1">
   <g id="patch_2">
    <path d="M 48.559071 521.153031 
L 935.517672 521.153031 
L 935.517672 51.564121 
L 48.559071 51.564121 
z
" style="fill: #eaeaf2"/>
   </g>
   <g id="matplotlib.axis_1">
    <g id="xtick_1">
     <g id="line2d_1">
      <path d="M 48.559071 521.153031 
L 48.559071 51.564121 
" clip-path="url(#p951350ae5f)" style="fill: none; stroke: #ffffff; stroke-linecap: round"/>
     </g>
     <g id="line2d_2"/>
     <g id="text_1">
      <!-- $\mathdefault{0.00}$ -->
      <g style="fill: #262626" transform="translate(36.419535 537.838907) scale(0.14 -0.14)">
       <defs>
        <path id="CMR17-30" d="M 2688 2025 
C 2688 2416 2682 3080 2413 3591 
C 2176 4039 1798 4198 1466 4198 
C 1158 4198 768 4058 525 3597 
C 269 3118 243 2524 243 2025 
C 243 1661 250 1106 448 619 
C 723 -39 1216 -128 1466 -128 
C 1760 -128 2208 -7 2470 600 
C 2662 1042 2688 1559 2688 2025 
z
M 1466 -26 
C 1056 -26 813 325 723 812 
C 653 1188 653 1738 653 2096 
C 653 2588 653 2997 736 3387 
C 858 3929 1216 4096 1466 4096 
C 1728 4096 2067 3923 2189 3400 
C 2272 3036 2278 2607 2278 2096 
C 2278 1680 2278 1169 2202 792 
C 2067 95 1690 -26 1466 -26 
z
" transform="scale(0.015625)"/>
        <path id="CMMI12-3a" d="M 1178 307 
C 1178 492 1024 619 870 619 
C 685 619 557 466 557 313 
C 557 128 710 0 864 0 
C 1050 0 1178 153 1178 307 
z
" transform="scale(0.015625)"/>
       </defs>
       <use xlink:href="#CMR17-30" transform="scale(0.996264)"/>
       <use xlink:href="#CMMI12-3a" transform="translate(45.690477 0) scale(0.996264)"/>
       <use xlink:href="#CMR17-30" transform="translate(72.787654 0) scale(0.996264)"/>
       <use xlink:href="#CMR17-30" transform="translate(118.478131 0) scale(0.996264)"/>
      </g>
     </g>
    </g>
    <g id="xtick_2">
     <g id="line2d_3">
      <path d="M 154.14938 521.153031 
L 154.14938 51.564121 
" clip-path="url(#p951350ae5f)" style="fill: none; stroke: #ffffff; stroke-linecap: round"/>
     </g>
     <g id="line2d_4"/>
     <g id="text_2">
      <!-- $\mathdefault{0.25}$ -->
      <g style="fill: #262626" transform="translate(142.009845 537.838907) scale(0.14 -0.14)">
       <defs>
        <path id="CMR17-32" d="M 2669 989 
L 2554 989 
C 2490 536 2438 459 2413 420 
C 2381 369 1920 369 1830 369 
L 602 369 
C 832 619 1280 1072 1824 1597 
C 2214 1967 2669 2402 2669 3035 
C 2669 3790 2067 4224 1395 4224 
C 691 4224 262 3604 262 3030 
C 262 2780 448 2748 525 2748 
C 589 2748 781 2787 781 3010 
C 781 3207 614 3264 525 3264 
C 486 3264 448 3258 422 3245 
C 544 3790 915 4058 1306 4058 
C 1862 4058 2227 3617 2227 3035 
C 2227 2479 1901 2000 1536 1584 
L 262 146 
L 262 0 
L 2515 0 
L 2669 989 
z
" transform="scale(0.015625)"/>
        <path id="CMR17-35" d="M 730 3692 
C 794 3666 1056 3584 1325 3584 
C 1920 3584 2246 3911 2432 4100 
C 2432 4157 2432 4192 2394 4192 
C 2387 4192 2374 4192 2323 4163 
C 2099 4058 1837 3973 1517 3973 
C 1325 3973 1037 3999 723 4139 
C 653 4171 640 4171 634 4171 
C 602 4171 595 4164 595 4037 
L 595 2203 
C 595 2089 595 2057 659 2057 
C 691 2057 704 2070 736 2114 
C 941 2401 1222 2522 1542 2522 
C 1766 2522 2246 2382 2246 1289 
C 2246 1085 2246 715 2054 421 
C 1894 159 1645 25 1370 25 
C 947 25 518 320 403 814 
C 429 807 480 795 506 795 
C 589 795 749 840 749 1038 
C 749 1210 627 1280 506 1280 
C 358 1280 262 1190 262 1011 
C 262 454 704 -128 1382 -128 
C 2042 -128 2669 440 2669 1264 
C 2669 2030 2170 2624 1549 2624 
C 1222 2624 947 2503 730 2274 
L 730 3692 
z
" transform="scale(0.015625)"/>
       </defs>
       <use xlink:href="#CMR17-30" transform="scale(0.996264)"/>
       <use xlink:href="#CMMI12-3a" transform="translate(45.690477 0) scale(0.996264)"/>
       <use xlink:href="#CMR17-32" transform="translate(72.787654 0) scale(0.996264)"/>
       <use xlink:href="#CMR17-35" transform="translate(118.478131 0) scale(0.996264)"/>
      </g>
     </g>
    </g>
    <g id="xtick_3">
     <g id="line2d_5">
      <path d="M 259.73969 521.153031 
L 259.73969 51.564121 
" clip-path="url(#p951350ae5f)" style="fill: none; stroke: #ffffff; stroke-linecap: round"/>
     </g>
     <g id="line2d_6"/>
     <g id="text_3">
      <!-- $\mathdefault{0.50}$ -->
      <g style="fill: #262626" transform="translate(247.600155 537.838907) scale(0.14 -0.14)">
       <use xlink:href="#CMR17-30" transform="scale(0.996264)"/>
       <use xlink:href="#CMMI12-3a" transform="translate(45.690477 0) scale(0.996264)"/>
       <use xlink:href="#CMR17-35" transform="translate(72.787654 0) scale(0.996264)"/>
       <use xlink:href="#CMR17-30" transform="translate(118.478131 0) scale(0.996264)"/>
      </g>
     </g>
    </g>
    <g id="xtick_4">
     <g id="line2d_7">
      <path d="M 365.33 521.153031 
L 365.33 51.564121 
" clip-path="url(#p951350ae5f)" style="fill: none; stroke: #ffffff; stroke-linecap: round"/>
     </g>
     <g id="line2d_8"/>
     <g id="text_4">
      <!-- $\mathdefault{0.75}$ -->
      <g style="fill: #262626" transform="translate(353.190464 537.838907) scale(0.14 -0.14)">
       <defs>
        <path id="CMR17-37" d="M 2886 3941 
L 2886 4081 
L 1382 4081 
C 634 4081 621 4165 595 4288 
L 480 4288 
L 294 3094 
L 410 3094 
C 429 3215 474 3540 550 3661 
C 589 3712 1062 3712 1171 3712 
L 2579 3712 
L 1869 2661 
C 1395 1954 1069 999 1069 165 
C 1069 89 1069 -128 1299 -128 
C 1530 -128 1530 89 1530 171 
L 1530 465 
C 1530 1508 1709 2196 2003 2636 
L 2886 3941 
z
" transform="scale(0.015625)"/>
       </defs>
       <use xlink:href="#CMR17-30" transform="scale(0.996264)"/>
       <use xlink:href="#CMMI12-3a" transform="translate(45.690477 0) scale(0.996264)"/>
       <use xlink:href="#CMR17-37" transform="translate(72.787654 0) scale(0.996264)"/>
       <use xlink:href="#CMR17-35" transform="translate(118.478131 0) scale(0.996264)"/>
      </g>
     </g>
    </g>
    <g id="xtick_5">
     <g id="line2d_9">
      <path d="M 470.920309 521.153031 
L 470.920309 51.564121 
" clip-path="url(#p951350ae5f)" style="fill: none; stroke: #ffffff; stroke-linecap: round"/>
     </g>
     <g id="line2d_10"/>
     <g id="text_5">
      <!-- $\mathdefault{1.00}$ -->
      <g style="fill: #262626" transform="translate(458.780774 537.838907) scale(0.14 -0.14)">
       <defs>
        <path id="CMR17-31" d="M 1702 4058 
C 1702 4192 1696 4192 1606 4192 
C 1357 3916 979 3827 621 3827 
C 602 3827 570 3827 563 3808 
C 557 3795 557 3782 557 3648 
C 755 3648 1088 3686 1344 3839 
L 1344 461 
C 1344 236 1331 160 781 160 
L 589 160 
L 589 0 
C 896 0 1216 0 1523 0 
C 1830 0 2150 0 2458 0 
L 2458 160 
L 2266 160 
C 1715 160 1702 230 1702 458 
L 1702 4058 
z
" transform="scale(0.015625)"/>
       </defs>
       <use xlink:href="#CMR17-31" transform="scale(0.996264)"/>
       <use xlink:href="#CMMI12-3a" transform="translate(45.690477 0) scale(0.996264)"/>
       <use xlink:href="#CMR17-30" transform="translate(72.787654 0) scale(0.996264)"/>
       <use xlink:href="#CMR17-30" transform="translate(118.478131 0) scale(0.996264)"/>
      </g>
     </g>
    </g>
    <g id="xtick_6">
     <g id="line2d_11">
      <path d="M 576.510619 521.153031 
L 576.510619 51.564121 
" clip-path="url(#p951350ae5f)" style="fill: none; stroke: #ffffff; stroke-linecap: round"/>
     </g>
     <g id="line2d_12"/>
     <g id="text_6">
      <!-- $\mathdefault{1.25}$ -->
      <g style="fill: #262626" transform="translate(564.371084 537.838907) scale(0.14 -0.14)">
       <use xlink:href="#CMR17-31" transform="scale(0.996264)"/>
       <use xlink:href="#CMMI12-3a" transform="translate(45.690477 0) scale(0.996264)"/>
       <use xlink:href="#CMR17-32" transform="translate(72.787654 0) scale(0.996264)"/>
       <use xlink:href="#CMR17-35" transform="translate(118.478131 0) scale(0.996264)"/>
      </g>
     </g>
    </g>
    <g id="xtick_7">
     <g id="line2d_13">
      <path d="M 682.100929 521.153031 
L 682.100929 51.564121 
" clip-path="url(#p951350ae5f)" style="fill: none; stroke: #ffffff; stroke-linecap: round"/>
     </g>
     <g id="line2d_14"/>
     <g id="text_7">
      <!-- $\mathdefault{1.50}$ -->
      <g style="fill: #262626" transform="translate(669.961393 537.838907) scale(0.14 -0.14)">
       <use xlink:href="#CMR17-31" transform="scale(0.996264)"/>
       <use xlink:href="#CMMI12-3a" transform="translate(45.690477 0) scale(0.996264)"/>
       <use xlink:href="#CMR17-35" transform="translate(72.787654 0) scale(0.996264)"/>
       <use xlink:href="#CMR17-30" transform="translate(118.478131 0) scale(0.996264)"/>
      </g>
     </g>
    </g>
    <g id="xtick_8">
     <g id="line2d_15">
      <path d="M 787.691238 521.153031 
L 787.691238 51.564121 
" clip-path="url(#p951350ae5f)" style="fill: none; stroke: #ffffff; stroke-linecap: round"/>
     </g>
     <g id="line2d_16"/>
     <g id="text_8">
      <!-- $\mathdefault{1.75}$ -->
      <g style="fill: #262626" transform="translate(775.551703 537.838907) scale(0.14 -0.14)">
       <use xlink:href="#CMR17-31" transform="scale(0.996264)"/>
       <use xlink:href="#CMMI12-3a" transform="translate(45.690477 0) scale(0.996264)"/>
       <use xlink:href="#CMR17-37" transform="translate(72.787654 0) scale(0.996264)"/>
       <use xlink:href="#CMR17-35" transform="translate(118.478131 0) scale(0.996264)"/>
      </g>
     </g>
    </g>
    <g id="xtick_9">
     <g id="line2d_17">
      <path d="M 893.281548 521.153031 
L 893.281548 51.564121 
" clip-path="url(#p951350ae5f)" style="fill: none; stroke: #ffffff; stroke-linecap: round"/>
     </g>
     <g id="line2d_18"/>
     <g id="text_9">
      <!-- $\mathdefault{2.00}$ -->
      <g style="fill: #262626" transform="translate(881.142013 537.838907) scale(0.14 -0.14)">
       <use xlink:href="#CMR17-32" transform="scale(0.996264)"/>
       <use xlink:href="#CMMI12-3a" transform="translate(45.690477 0) scale(0.996264)"/>
       <use xlink:href="#CMR17-30" transform="translate(72.787654 0) scale(0.996264)"/>
       <use xlink:href="#CMR17-30" transform="translate(118.478131 0) scale(0.996264)"/>
      </g>
     </g>
    </g>
    <g id="text_10">
     <!-- $x$ -->
     <g style="fill: #262626" transform="translate(487.603646 555.620524) scale(0.16 -0.16)">
      <defs>
       <path id="CMMI12-78" d="M 3034 2606 
C 2829 2567 2752 2414 2752 2293 
C 2752 2139 2874 2088 2963 2088 
C 3155 2088 3290 2254 3290 2427 
C 3290 2695 2982 2816 2714 2816 
C 2323 2816 2106 2433 2048 2312 
C 1901 2816 1504 2816 1389 2816 
C 736 2816 390 1980 390 1839 
C 390 1814 416 1782 461 1782 
C 512 1782 525 1820 538 1846 
C 755 2555 1184 2689 1370 2689 
C 1658 2689 1715 2420 1715 2267 
C 1715 2127 1677 1980 1600 1673 
L 1382 798 
C 1286 415 1101 64 762 64 
C 730 64 570 64 435 147 
C 666 192 717 383 717 460 
C 717 588 621 664 499 664 
C 346 664 179 530 179 326 
C 179 57 480 -64 755 -64 
C 1062 -64 1280 179 1414 441 
C 1517 64 1837 -64 2074 -64 
C 2726 -64 3072 773 3072 913 
C 3072 945 3046 971 3008 971 
C 2950 971 2944 939 2925 888 
C 2752 326 2381 64 2093 64 
C 1869 64 1747 230 1747 492 
C 1747 632 1773 734 1875 1156 
L 2099 2024 
C 2195 2408 2413 2689 2707 2689 
C 2720 2689 2899 2689 3034 2606 
z
" transform="scale(0.015625)"/>
      </defs>
      <use xlink:href="#CMMI12-78" transform="scale(0.996264)"/>
     </g>
    </g>
   </g>
   <g id="matplotlib.axis_2">
    <g id="ytick_1">
     <g id="line2d_19">
      <path d="M 48.559071 521.153031 
L 935.517672 521.153031 
" clip-path="url(#p951350ae5f)" style="fill: none; stroke: #ffffff; stroke-linecap: round"/>
     </g>
     <g id="line2d_20"/>
     <g id="text_11">
      <!-- $\mathdefault{0.00}$ -->
      <g style="fill: #262626" transform="translate(17.28 525.995969) scale(0.14 -0.14)">
       <use xlink:href="#CMR17-30" transform="scale(0.996264)"/>
       <use xlink:href="#CMMI12-3a" transform="translate(45.690477 0) scale(0.996264)"/>
       <use xlink:href="#CMR17-30" transform="translate(72.787654 0) scale(0.996264)"/>
       <use xlink:href="#CMR17-30" transform="translate(118.478131 0) scale(0.996264)"/>
      </g>
     </g>
    </g>
    <g id="ytick_2">
     <g id="line2d_21">
      <path d="M 48.559071 465.283326 
L 935.517672 465.283326 
" clip-path="url(#p951350ae5f)" style="fill: none; stroke: #ffffff; stroke-linecap: round"/>
     </g>
     <g id="line2d_22"/>
     <g id="text_12">
      <!-- $\mathdefault{0.25}$ -->
      <g style="fill: #262626" transform="translate(17.28 470.126265) scale(0.14 -0.14)">
       <use xlink:href="#CMR17-30" transform="scale(0.996264)"/>
       <use xlink:href="#CMMI12-3a" transform="translate(45.690477 0) scale(0.996264)"/>
       <use xlink:href="#CMR17-32" transform="translate(72.787654 0) scale(0.996264)"/>
       <use xlink:href="#CMR17-35" transform="translate(118.478131 0) scale(0.996264)"/>
      </g>
     </g>
    </g>
    <g id="ytick_3">
     <g id="line2d_23">
      <path d="M 48.559071 409.413622 
L 935.517672 409.413622 
" clip-path="url(#p951350ae5f)" style="fill: none; stroke: #ffffff; stroke-linecap: round"/>
     </g>
     <g id="line2d_24"/>
     <g id="text_13">
      <!-- $\mathdefault{0.50}$ -->
      <g style="fill: #262626" transform="translate(17.28 414.25656) scale(0.14 -0.14)">
       <use xlink:href="#CMR17-30" transform="scale(0.996264)"/>
       <use xlink:href="#CMMI12-3a" transform="translate(45.690477 0) scale(0.996264)"/>
       <use xlink:href="#CMR17-35" transform="translate(72.787654 0) scale(0.996264)"/>
       <use xlink:href="#CMR17-30" transform="translate(118.478131 0) scale(0.996264)"/>
      </g>
     </g>
    </g>
    <g id="ytick_4">
     <g id="line2d_25">
      <path d="M 48.559071 353.543918 
L 935.517672 353.543918 
" clip-path="url(#p951350ae5f)" style="fill: none; stroke: #ffffff; stroke-linecap: round"/>
     </g>
     <g id="line2d_26"/>
     <g id="text_14">
      <!-- $\mathdefault{0.75}$ -->
      <g style="fill: #262626" transform="translate(17.28 358.386856) scale(0.14 -0.14)">
       <use xlink:href="#CMR17-30" transform="scale(0.996264)"/>
       <use xlink:href="#CMMI12-3a" transform="translate(45.690477 0) scale(0.996264)"/>
       <use xlink:href="#CMR17-37" transform="translate(72.787654 0) scale(0.996264)"/>
       <use xlink:href="#CMR17-35" transform="translate(118.478131 0) scale(0.996264)"/>
      </g>
     </g>
    </g>
    <g id="ytick_5">
     <g id="line2d_27">
      <path d="M 48.559071 297.674213 
L 935.517672 297.674213 
" clip-path="url(#p951350ae5f)" style="fill: none; stroke: #ffffff; stroke-linecap: round"/>
     </g>
     <g id="line2d_28"/>
     <g id="text_15">
      <!-- $\mathdefault{1.00}$ -->
      <g style="fill: #262626" transform="translate(17.28 302.517152) scale(0.14 -0.14)">
       <use xlink:href="#CMR17-31" transform="scale(0.996264)"/>
       <use xlink:href="#CMMI12-3a" transform="translate(45.690477 0) scale(0.996264)"/>
       <use xlink:href="#CMR17-30" transform="translate(72.787654 0) scale(0.996264)"/>
       <use xlink:href="#CMR17-30" transform="translate(118.478131 0) scale(0.996264)"/>
      </g>
     </g>
    </g>
    <g id="ytick_6">
     <g id="line2d_29">
      <path d="M 48.559071 241.804509 
L 935.517672 241.804509 
" clip-path="url(#p951350ae5f)" style="fill: none; stroke: #ffffff; stroke-linecap: round"/>
     </g>
     <g id="line2d_30"/>
     <g id="text_16">
      <!-- $\mathdefault{1.25}$ -->
      <g style="fill: #262626" transform="translate(17.28 246.647447) scale(0.14 -0.14)">
       <use xlink:href="#CMR17-31" transform="scale(0.996264)"/>
       <use xlink:href="#CMMI12-3a" transform="translate(45.690477 0) scale(0.996264)"/>
       <use xlink:href="#CMR17-32" transform="translate(72.787654 0) scale(0.996264)"/>
       <use xlink:href="#CMR17-35" transform="translate(118.478131 0) scale(0.996264)"/>
      </g>
     </g>
    </g>
    <g id="ytick_7">
     <g id="line2d_31">
      <path d="M 48.559071 185.934805 
L 935.517672 185.934805 
" clip-path="url(#p951350ae5f)" style="fill: none; stroke: #ffffff; stroke-linecap: round"/>
     </g>
     <g id="line2d_32"/>
     <g id="text_17">
      <!-- $\mathdefault{1.50}$ -->
      <g style="fill: #262626" transform="translate(17.28 190.777743) scale(0.14 -0.14)">
       <use xlink:href="#CMR17-31" transform="scale(0.996264)"/>
       <use xlink:href="#CMMI12-3a" transform="translate(45.690477 0) scale(0.996264)"/>
       <use xlink:href="#CMR17-35" transform="translate(72.787654 0) scale(0.996264)"/>
       <use xlink:href="#CMR17-30" transform="translate(118.478131 0) scale(0.996264)"/>
      </g>
     </g>
    </g>
    <g id="ytick_8">
     <g id="line2d_33">
      <path d="M 48.559071 130.0651 
L 935.517672 130.0651 
" clip-path="url(#p951350ae5f)" style="fill: none; stroke: #ffffff; stroke-linecap: round"/>
     </g>
     <g id="line2d_34"/>
     <g id="text_18">
      <!-- $\mathdefault{1.75}$ -->
      <g style="fill: #262626" transform="translate(17.28 134.908039) scale(0.14 -0.14)">
       <use xlink:href="#CMR17-31" transform="scale(0.996264)"/>
       <use xlink:href="#CMMI12-3a" transform="translate(45.690477 0) scale(0.996264)"/>
       <use xlink:href="#CMR17-37" transform="translate(72.787654 0) scale(0.996264)"/>
       <use xlink:href="#CMR17-35" transform="translate(118.478131 0) scale(0.996264)"/>
      </g>
     </g>
    </g>
    <g id="ytick_9">
     <g id="line2d_35">
      <path d="M 48.559071 74.195396 
L 935.517672 74.195396 
" clip-path="url(#p951350ae5f)" style="fill: none; stroke: #ffffff; stroke-linecap: round"/>
     </g>
     <g id="line2d_36"/>
     <g id="text_19">
      <!-- $\mathdefault{2.00}$ -->
      <g style="fill: #262626" transform="translate(17.28 79.038334) scale(0.14 -0.14)">
       <use xlink:href="#CMR17-32" transform="scale(0.996264)"/>
       <use xlink:href="#CMMI12-3a" transform="translate(45.690477 0) scale(0.996264)"/>
       <use xlink:href="#CMR17-30" transform="translate(72.787654 0) scale(0.996264)"/>
       <use xlink:href="#CMR17-30" transform="translate(118.478131 0) scale(0.996264)"/>
      </g>
     </g>
    </g>
   </g>
   <g id="line2d_37">
    <path d="M 48.559071 74.195396 
L 57.006295 74.195396 
L 65.45352 74.195396 
L 73.900745 74.195396 
L 82.34797 74.195396 
L 90.795195 74.195396 
L 99.242419 74.195396 
L 107.689644 74.195396 
L 116.136869 74.195396 
L 124.584094 74.195396 
L 133.031318 74.195396 
L 141.478543 74.195396 
L 149.925768 74.195396 
L 158.372993 74.195396 
L 166.820217 74.195396 
L 175.267442 74.195396 
L 183.714667 74.195396 
L 192.161892 74.195396 
L 200.609117 74.195396 
L 209.056341 74.195396 
L 217.503566 74.195396 
L 225.950791 74.195396 
L 234.398016 74.195396 
L 242.84524 74.195396 
L 251.292465 74.195396 
L 259.73969 74.195396 
L 268.186915 74.195396 
L 276.63414 74.195396 
L 285.081364 74.195396 
L 293.528589 74.195396 
L 301.975814 74.195396 
L 310.423039 74.195396 
L 318.870263 74.195396 
L 327.317488 74.195396 
L 335.764713 74.195396 
L 344.211938 74.195396 
L 352.659162 74.195396 
L 361.106387 74.195396 
L 369.553612 74.195396 
L 378.000837 74.195396 
L 386.448062 74.195396 
L 394.895286 74.195396 
L 403.342511 74.195396 
L 411.789736 74.195396 
L 420.236961 74.195396 
L 428.684185 74.195396 
L 437.13141 74.195396 
L 445.578635 74.195396 
L 454.02586 74.195396 
L 462.473085 74.195396 
L 470.920309 74.195396 
L 479.367534 74.195396 
L 487.814759 74.195396 
L 496.261984 74.195396 
L 504.709208 74.195396 
L 513.156433 74.195396 
L 521.603658 74.195396 
L 530.050883 74.195396 
L 538.498107 74.195396 
L 546.945332 74.195396 
L 555.392557 74.195396 
L 563.839782 74.195396 
L 572.287007 74.195396 
L 580.734231 74.195396 
L 589.181456 74.195396 
L 597.628681 74.195396 
L 606.075906 74.195396 
L 614.52313 74.195396 
L 622.970355 74.195396 
L 631.41758 74.195396 
L 639.864805 74.195396 
L 648.31203 74.195396 
L 656.759254 74.195396 
L 665.206479 74.195396 
L 673.653704 74.195396 
L 682.100929 74.195396 
L 690.548153 74.195396 
L 698.995378 74.195396 
L 707.442603 74.195396 
L 715.889828 74.195396 
L 724.337052 74.195396 
L 732.784277 74.195396 
L 741.231502 74.195396 
L 749.678727 74.195396 
L 758.125952 74.195396 
L 766.573176 74.195396 
L 775.020401 74.195396 
L 783.467626 74.195396 
L 791.914851 74.195396 
L 800.362075 74.195396 
L 808.8093 74.195396 
L 817.256525 74.195396 
L 825.70375 74.195396 
L 834.150975 74.195396 
L 842.598199 74.195396 
L 851.045424 74.195396 
L 859.492649 74.195396 
L 867.939874 74.195396 
L 876.387098 74.195396 
L 884.834323 74.195396 
L 893.281548 74.195396 
" clip-path="url(#p951350ae5f)" style="fill: none; stroke: #393b79; stroke-width: 2; stroke-linecap: round"/>
   </g>
   <g id="line2d_38">
    <path d="M 48.559071 196.381182 
L 57.006295 195.426678 
L 65.45352 194.483015 
L 73.900745 193.550004 
L 82.34797 192.6275 
L 90.795195 191.715495 
L 99.242419 190.802015 
L 107.689644 189.871634 
L 116.136869 188.951516 
L 124.584094 188.041807 
L 133.031318 187.142288 
L 141.478543 186.252694 
L 149.925768 185.372845 
L 158.372993 184.50277 
L 166.820217 183.642323 
L 175.267442 182.791331 
L 183.714667 181.949632 
L 192.161892 181.095235 
L 200.609117 180.235626 
L 209.056341 179.385343 
L 217.503566 178.544301 
L 225.950791 177.712393 
L 234.398016 176.889525 
L 242.84524 176.075556 
L 251.292465 175.270308 
L 259.73969 174.473808 
L 268.186915 173.68581 
L 276.63414 172.906242 
L 285.081364 172.135009 
L 293.528589 171.356135 
L 301.975814 170.567645 
L 310.423039 169.787532 
L 318.870263 169.015661 
L 327.317488 168.251921 
L 335.764713 167.496281 
L 344.211938 166.748688 
L 352.659162 166.008921 
L 361.106387 165.276888 
L 369.553612 164.552509 
L 378.000837 163.835812 
L 386.448062 163.126607 
L 394.895286 162.424755 
L 403.342511 161.730185 
L 411.789736 161.026633 
L 420.236961 160.31561 
L 428.684185 159.612008 
L 437.13141 158.915674 
L 445.578635 158.226517 
L 454.02586 157.544453 
L 462.473085 156.869401 
L 470.920309 156.201284 
L 479.367534 155.540017 
L 487.814759 154.885573 
L 496.261984 154.237788 
L 504.709208 153.596633 
L 513.156433 152.962035 
L 521.603658 152.333883 
L 530.050883 151.712094 
L 538.498107 151.09664 
L 546.945332 150.482105 
L 555.392557 149.851307 
L 563.839782 149.22685 
L 572.287007 148.608673 
L 580.734231 147.996777 
L 589.181456 147.391032 
L 597.628681 146.791356 
L 606.075906 146.197668 
L 614.52313 145.60995 
L 622.970355 145.028129 
L 631.41758 144.452104 
L 639.864805 143.881804 
L 648.31203 143.317212 
L 656.759254 142.758213 
L 665.206479 142.204772 
L 673.653704 141.656815 
L 682.100929 141.114296 
L 690.548153 140.577162 
L 698.995378 140.045327 
L 707.442603 139.518776 
L 715.889828 138.98277 
L 724.337052 138.44236 
L 732.784277 137.907244 
L 741.231502 137.377401 
L 749.678727 136.852782 
L 758.125952 136.333285 
L 766.573176 135.818854 
L 775.020401 135.309437 
L 783.467626 134.805013 
L 791.914851 134.305511 
L 800.362075 133.810871 
L 808.8093 133.321028 
L 817.256525 132.835957 
L 825.70375 132.355587 
L 834.150975 131.879868 
L 842.598199 131.408763 
L 851.045424 130.942229 
L 859.492649 130.480197 
L 867.939874 130.022622 
L 876.387098 129.569453 
L 884.834323 129.120674 
L 893.281548 128.676211 
" clip-path="url(#p951350ae5f)" style="fill: none; stroke: #6b6ecf; stroke-width: 2; stroke-linecap: round"/>
   </g>
   <g id="line2d_39">
    <path d="M 48.559071 417.030686 
L 57.006295 415.226761 
L 65.45352 413.42252 
L 73.900745 411.618205 
L 82.34797 409.81353 
L 90.795195 408.008913 
L 99.242419 406.204536 
L 107.689644 404.400963 
L 116.136869 402.598494 
L 124.584094 400.7977 
L 133.031318 398.995455 
L 141.478543 397.191968 
L 149.925768 395.390658 
L 158.372993 393.592474 
L 166.820217 391.797888 
L 175.267442 390.008441 
L 183.714667 388.213196 
L 192.161892 386.420563 
L 200.609117 384.634374 
L 209.056341 382.856174 
L 217.503566 381.068863 
L 225.950791 379.288326 
L 234.398016 377.518204 
L 242.84524 375.743123 
L 251.292465 373.971665 
L 259.73969 372.213877 
L 268.186915 370.446279 
L 276.63414 368.688765 
L 285.081364 366.940195 
L 293.528589 365.184063 
L 301.975814 363.447093 
L 310.423039 361.698863 
L 318.870263 359.966031 
L 327.317488 358.232736 
L 335.764713 356.505265 
L 344.211938 354.785401 
L 352.659162 353.065263 
L 361.106387 351.357073 
L 369.553612 349.645859 
L 378.000837 347.948094 
L 386.448062 346.248584 
L 394.895286 344.559416 
L 403.342511 342.873737 
L 411.789736 341.191854 
L 420.236961 339.52333 
L 428.684185 337.847561 
L 437.13141 336.199295 
L 445.578635 334.528195 
L 454.02586 332.885146 
L 462.473085 331.236019 
L 470.920309 329.595977 
L 479.367534 327.974152 
L 487.814759 326.335697 
L 496.261984 324.723955 
L 504.709208 323.107774 
L 513.156433 321.496106 
L 521.603658 319.910273 
L 530.050883 318.303291 
L 538.498107 316.715912 
L 546.945332 315.14989 
L 555.392557 313.560056 
L 563.839782 311.994854 
L 572.287007 310.447154 
L 580.734231 308.878171 
L 589.181456 307.332951 
L 597.628681 305.809628 
L 606.075906 304.259078 
L 614.52313 302.731815 
L 622.970355 301.227473 
L 631.41758 299.704622 
L 639.864805 298.193341 
L 648.31203 296.704416 
L 656.759254 295.217752 
L 665.206479 293.720818 
L 673.653704 292.24555 
L 682.100929 290.791666 
L 690.548153 289.31816 
L 698.995378 287.854917 
L 707.442603 286.412501 
L 715.889828 284.990367 
L 724.337052 283.537475 
L 732.784277 282.104991 
L 741.231502 280.692536 
L 749.678727 279.299585 
L 758.125952 277.875564 
L 766.573176 276.471104 
L 775.020401 275.08587 
L 783.467626 273.719673 
L 791.914851 272.333665 
L 800.362075 270.954614 
L 808.8093 269.594222 
L 817.256525 268.25201 
L 825.70375 266.914659 
L 834.150975 265.55879 
L 842.598199 264.220782 
L 851.045424 262.900491 
L 859.492649 261.597561 
L 867.939874 260.288295 
L 876.387098 258.970654 
L 884.834323 257.670151 
L 893.281548 256.386491 
" clip-path="url(#p951350ae5f)" style="fill: none; stroke: #637939; stroke-width: 2; stroke-linecap: round"/>
   </g>
   <g id="line2d_40">
    <path d="M 48.559071 491.564909 
L 57.006295 490.18771 
L 65.45352 488.789888 
L 73.900745 487.373114 
L 82.34797 485.937158 
L 90.795195 484.483223 
L 99.242419 483.011414 
L 107.689644 481.522832 
L 116.136869 480.018039 
L 124.584094 478.497881 
L 133.031318 476.961399 
L 141.478543 475.411243 
L 149.925768 473.846494 
L 158.372993 472.268051 
L 166.820217 470.67651 
L 175.267442 469.072955 
L 183.714667 467.456027 
L 192.161892 465.827856 
L 200.609117 464.190158 
L 209.056341 462.539194 
L 217.503566 460.880027 
L 225.950791 459.210836 
L 234.398016 457.5311 
L 242.84524 455.843062 
L 251.292465 454.146741 
L 259.73969 452.442555 
L 268.186915 450.730705 
L 276.63414 449.011716 
L 285.081364 447.286536 
L 293.528589 445.554202 
L 301.975814 443.814415 
L 310.423039 442.07051 
L 318.870263 440.321272 
L 327.317488 438.565396 
L 335.764713 436.807458 
L 344.211938 435.042033 
L 352.659162 433.274992 
L 361.106387 431.503824 
L 369.553612 429.727163 
L 378.000837 427.950639 
L 386.448062 426.17051 
L 394.895286 424.384954 
L 403.342511 422.598822 
L 411.789736 420.811673 
L 420.236961 419.024063 
L 428.684185 417.235198 
L 437.13141 415.442349 
L 445.578635 413.648603 
L 454.02586 411.854605 
L 462.473085 410.060483 
L 470.920309 408.266739 
L 479.367534 406.473159 
L 487.814759 404.680637 
L 496.261984 402.889164 
L 504.709208 401.094772 
L 513.156433 399.300882 
L 521.603658 397.508968 
L 530.050883 395.719345 
L 538.498107 393.93265 
L 546.945332 392.15006 
L 555.392557 390.366206 
L 563.839782 388.580598 
L 572.287007 386.799773 
L 580.734231 385.026689 
L 589.181456 383.252574 
L 597.628681 381.476028 
L 606.075906 379.709008 
L 614.52313 377.948232 
L 622.970355 376.178767 
L 631.41758 374.421307 
L 639.864805 372.669366 
L 648.31203 370.911011 
L 656.759254 369.168198 
L 665.206479 367.420692 
L 673.653704 365.679049 
L 682.100929 363.948934 
L 690.548153 362.209733 
L 698.995378 360.492407 
L 707.442603 358.759609 
L 715.889828 357.048222 
L 724.337052 355.328217 
L 732.784277 353.624522 
L 741.231502 351.916369 
L 749.678727 350.222008 
L 758.125952 348.52385 
L 766.573176 346.841687 
L 775.020401 345.151998 
L 783.467626 343.484326 
L 791.914851 341.801718 
L 800.362075 340.148379 
L 808.8093 338.474973 
L 817.256525 336.826693 
L 825.70375 335.17343 
L 834.150975 333.529314 
L 842.598199 331.899788 
L 851.045424 330.258145 
L 859.492649 328.643675 
L 867.939874 327.016676 
L 876.387098 325.403289 
L 884.834323 323.807711 
L 893.281548 322.19441 
" clip-path="url(#p951350ae5f)" style="fill: none; stroke: #b5cf6b; stroke-width: 2; stroke-linecap: round"/>
   </g>
   <g id="line2d_41">
    <path d="M 48.559071 520.301814 
L 57.006295 519.980315 
L 65.45352 519.610542 
L 73.900745 519.193713 
L 82.34797 518.730935 
L 90.795195 518.223335 
L 99.242419 517.672033 
L 107.689644 517.078108 
L 116.136869 516.442663 
L 124.584094 515.76673 
L 133.031318 515.051396 
L 141.478543 514.297576 
L 149.925768 513.506178 
L 158.372993 512.678473 
L 166.820217 511.815142 
L 175.267442 510.917198 
L 183.714667 509.985613 
L 192.161892 509.021266 
L 200.609117 508.024971 
L 209.056341 506.997734 
L 217.503566 505.940313 
L 225.950791 504.85355 
L 234.398016 503.738293 
L 242.84524 502.595366 
L 251.292465 501.425437 
L 259.73969 500.22965 
L 268.186915 499.008374 
L 276.63414 497.762147 
L 285.081364 496.492158 
L 293.528589 495.199264 
L 301.975814 493.883844 
L 310.423039 492.546337 
L 318.870263 491.188256 
L 327.317488 489.809213 
L 335.764713 488.410532 
L 344.211938 486.992834 
L 352.659162 485.557031 
L 361.106387 484.1024 
L 369.553612 482.630866 
L 378.000837 481.142676 
L 386.448062 479.638409 
L 394.895286 478.118711 
L 403.342511 476.583484 
L 411.789736 475.033838 
L 420.236961 473.470941 
L 428.684185 471.89436 
L 437.13141 470.304523 
L 445.578635 468.702028 
L 454.02586 467.087897 
L 462.473085 465.463703 
L 470.920309 463.826043 
L 479.367534 462.180309 
L 487.814759 460.522407 
L 496.261984 458.855594 
L 504.709208 457.180477 
L 513.156433 455.496392 
L 521.603658 453.80408 
L 530.050883 452.103344 
L 538.498107 450.394526 
L 546.945332 448.678358 
L 555.392557 446.956265 
L 563.839782 445.228862 
L 572.287007 443.494547 
L 580.734231 441.753163 
L 589.181456 440.009616 
L 597.628681 438.257533 
L 606.075906 436.504129 
L 614.52313 434.743232 
L 622.970355 432.983194 
L 631.41758 431.213274 
L 639.864805 429.44347 
L 648.31203 427.673058 
L 656.759254 425.894288 
L 665.206479 424.115075 
L 673.653704 422.335131 
L 682.100929 420.554585 
L 690.548153 418.771779 
L 698.995378 416.984477 
L 707.442603 415.196945 
L 715.889828 413.408863 
L 724.337052 411.620344 
L 732.784277 409.831788 
L 741.231502 408.043409 
L 749.678727 406.255067 
L 758.125952 404.467759 
L 766.573176 402.681591 
L 775.020401 400.897041 
L 783.467626 399.108307 
L 791.914851 397.320912 
L 800.362075 395.536251 
L 808.8093 393.75427 
L 817.256525 391.976549 
L 825.70375 390.201558 
L 834.150975 388.420377 
L 842.598199 386.644739 
L 851.045424 384.875559 
L 859.492649 383.109952 
L 867.939874 381.338184 
L 876.387098 379.575274 
L 884.834323 377.822568 
L 893.281548 376.057529 
" clip-path="url(#p951350ae5f)" style="fill: none; stroke: #8c6d31; stroke-width: 2; stroke-linecap: round"/>
   </g>
   <g id="line2d_42">
    <path d="M 48.559071 521.695113 
L 57.006295 521.210591 
L 65.45352 521.037996 
L 73.900745 520.899062 
L 82.34797 520.707539 
L 90.795195 520.464674 
L 99.242419 520.171697 
L 107.689644 519.829813 
L 116.136869 519.440215 
L 124.584094 519.004067 
L 133.031318 518.522534 
L 141.478543 517.996676 
L 149.925768 517.427558 
L 158.372993 516.816436 
L 166.820217 516.164159 
L 175.267442 515.47189 
L 183.714667 514.74061 
L 192.161892 513.971332 
L 200.609117 513.16505 
L 209.056341 512.322662 
L 217.503566 511.44523 
L 225.950791 510.533601 
L 234.398016 509.588686 
L 242.84524 508.611432 
L 251.292465 507.602632 
L 259.73969 506.563304 
L 268.186915 505.49417 
L 276.63414 504.395975 
L 285.081364 503.26954 
L 293.528589 502.116145 
L 301.975814 500.936103 
L 310.423039 499.72983 
L 318.870263 498.499024 
L 327.317488 497.243575 
L 335.764713 495.964649 
L 344.211938 494.663127 
L 352.659162 493.339377 
L 361.106387 491.993829 
L 369.553612 490.627519 
L 378.000837 489.241176 
L 386.448062 487.835199 
L 394.895286 486.410676 
L 403.342511 484.967691 
L 411.789736 483.507356 
L 420.236961 482.029625 
L 428.684185 480.535679 
L 437.13141 479.025099 
L 445.578635 477.499762 
L 454.02586 475.959498 
L 462.473085 474.405746 
L 470.920309 472.837602 
L 479.367534 471.25614 
L 487.814759 469.662671 
L 496.261984 468.05564 
L 504.709208 466.437485 
L 513.156433 464.809354 
L 521.603658 463.168359 
L 530.050883 461.519257 
L 538.498107 459.858487 
L 546.945332 458.188312 
L 555.392557 456.510135 
L 563.839782 454.823426 
L 572.287007 453.127871 
L 580.734231 451.425025 
L 589.181456 449.71455 
L 597.628681 447.997231 
L 606.075906 446.274621 
L 614.52313 444.544606 
L 622.970355 442.807266 
L 631.41758 441.067289 
L 639.864805 439.319744 
L 648.31203 437.568609 
L 656.759254 435.812562 
L 665.206479 434.053486 
L 673.653704 432.287933 
L 682.100929 430.523057 
L 690.548153 428.750979 
L 698.995378 426.976256 
L 707.442603 425.201361 
L 715.889828 423.42564 
L 724.337052 421.642738 
L 732.784277 419.859015 
L 741.231502 418.074732 
L 749.678727 416.28939 
L 758.125952 414.503558 
L 766.573176 412.716928 
L 775.020401 410.929541 
L 783.467626 409.141787 
L 791.914851 407.353563 
L 800.362075 405.565806 
L 808.8093 403.778045 
L 817.256525 401.991355 
L 825.70375 400.206091 
L 834.150975 398.422902 
L 842.598199 396.642556 
L 851.045424 394.858563 
L 859.492649 393.075031 
L 867.939874 391.295258 
L 876.387098 389.520151 
L 884.834323 387.751075 
L 893.281548 385.973333 
" clip-path="url(#p951350ae5f)" style="fill: none; stroke: #e7cb94; stroke-width: 2; stroke-linecap: round"/>
   </g>
   <g id="line2d_43">
    <path d="M 48.559071 522.919211 
L 57.006295 521.641717 
L 65.45352 521.191708 
L 73.900745 521.029912 
L 82.34797 520.887221 
L 90.795195 520.692037 
L 99.242419 520.445608 
L 107.689644 520.149161 
L 116.136869 519.803907 
L 124.584094 519.411031 
L 133.031318 518.971715 
L 141.478543 518.487044 
L 149.925768 517.958104 
L 158.372993 517.38615 
L 166.820217 516.772071 
L 175.267442 516.117047 
L 183.714667 515.42205 
L 192.161892 514.688164 
L 200.609117 513.916302 
L 209.056341 513.107503 
L 217.503566 512.262772 
L 225.950791 511.382961 
L 234.398016 510.469086 
L 242.84524 509.521947 
L 251.292465 508.542539 
L 259.73969 507.531756 
L 268.186915 506.490422 
L 276.63414 505.419233 
L 285.081364 504.319121 
L 293.528589 503.191086 
L 301.975814 502.035764 
L 310.423039 500.853685 
L 318.870263 499.646274 
L 327.317488 498.413557 
L 335.764713 497.156845 
L 344.211938 495.876421 
L 352.659162 494.573218 
L 361.106387 493.247805 
L 369.553612 491.901222 
L 378.000837 490.533747 
L 386.448062 489.146289 
L 394.895286 487.739249 
L 403.342511 486.313104 
L 411.789736 484.869338 
L 420.236961 483.407335 
L 428.684185 481.928563 
L 437.13141 480.433576 
L 445.578635 478.923018 
L 454.02586 477.39607 
L 462.473085 475.85563 
L 470.920309 474.300292 
L 479.367534 472.730982 
L 487.814759 471.149046 
L 496.261984 469.554527 
L 504.709208 467.948324 
L 513.156433 466.328625 
L 521.603658 464.699401 
L 530.050883 463.058654 
L 538.498107 461.40873 
L 546.945332 459.746881 
L 555.392557 458.077096 
L 563.839782 456.398691 
L 572.287007 454.711187 
L 580.734231 453.015935 
L 589.181456 451.312403 
L 597.628681 449.601148 
L 606.075906 447.883459 
L 614.52313 446.159716 
L 622.970355 444.431176 
L 631.41758 442.692916 
L 639.864805 440.951624 
L 648.31203 439.205324 
L 656.759254 437.452945 
L 665.206479 435.69782 
L 673.653704 433.937126 
L 682.100929 432.172706 
L 690.548153 430.408403 
L 698.995378 428.634535 
L 707.442603 426.860702 
L 715.889828 425.086309 
L 724.337052 423.308826 
L 732.784277 421.526132 
L 741.231502 419.742958 
L 749.678727 417.958754 
L 758.125952 416.174028 
L 766.573176 414.388416 
L 775.020401 412.601896 
L 783.467626 410.814795 
L 791.914851 409.026941 
L 800.362075 407.239197 
L 808.8093 405.451023 
L 817.256525 403.663406 
L 825.70375 401.876621 
L 834.150975 400.091223 
L 842.598199 398.307886 
L 851.045424 396.526968 
L 859.492649 394.746006 
L 867.939874 392.962149 
L 876.387098 391.181857 
L 884.834323 389.406367 
L 893.281548 387.636856 
" clip-path="url(#p951350ae5f)" style="fill: none; stroke: #ad494a; stroke-width: 2; stroke-linecap: round"/>
   </g>
   <g id="line2d_44">
    <path d="M 48.559071 524.201356 
L 57.006295 522.090868 
L 65.45352 521.350364 
L 73.900745 521.0884 
L 82.34797 520.962126 
L 90.795195 520.791909 
L 99.242419 520.569857 
L 107.689644 520.297207 
L 116.136869 519.97518 
L 124.584094 519.604972 
L 133.031318 519.187774 
L 141.478543 518.724681 
L 149.925768 518.216793 
L 158.372993 517.66537 
L 166.820217 517.07132 
L 175.267442 516.435803 
L 183.714667 515.759844 
L 192.161892 515.044496 
L 200.609117 514.29072 
L 209.056341 513.49954 
L 217.503566 512.671947 
L 225.950791 511.80885 
L 234.398016 510.911187 
L 242.84524 509.979944 
L 251.292465 509.015923 
L 259.73969 508.020079 
L 268.186915 506.993357 
L 276.63414 505.936313 
L 285.081364 504.849991 
L 293.528589 503.735366 
L 301.975814 502.593163 
L 310.423039 501.423713 
L 318.870263 500.22863 
L 327.317488 499.007978 
L 335.764713 497.762457 
L 344.211938 496.493367 
L 352.659162 495.20122 
L 361.106387 493.886357 
L 369.553612 492.549925 
L 378.000837 491.192591 
L 386.448062 489.814303 
L 394.895286 488.416643 
L 403.342511 486.999818 
L 411.789736 485.564618 
L 420.236961 484.111173 
L 428.684185 482.640491 
L 437.13141 481.153249 
L 445.578635 479.650114 
L 454.02586 478.131165 
L 462.473085 476.597046 
L 470.920309 475.048561 
L 479.367534 473.486396 
L 487.814759 471.910974 
L 496.261984 470.322105 
L 504.709208 468.720837 
L 513.156433 467.107705 
L 521.603658 465.48459 
L 530.050883 463.848069 
L 538.498107 462.203276 
L 546.945332 460.54638 
L 555.392557 458.880837 
L 563.839782 457.206713 
L 572.287007 455.523453 
L 580.734231 453.832313 
L 589.181456 452.132669 
L 597.628681 450.424974 
L 606.075906 448.710397 
L 614.52313 446.989192 
L 622.970355 445.262923 
L 631.41758 443.529765 
L 639.864805 441.789378 
L 648.31203 440.047204 
L 656.759254 438.296034 
L 665.206479 436.543933 
L 673.653704 434.783775 
L 682.100929 433.024816 
L 690.548153 431.256173 
L 698.995378 429.487151 
L 707.442603 427.718202 
L 715.889828 425.940603 
L 724.337052 424.162128 
L 732.784277 422.383157 
L 741.231502 420.603442 
L 749.678727 418.822391 
L 758.125952 417.036446 
L 766.573176 415.249798 
L 775.020401 413.462643 
L 783.467626 411.675305 
L 791.914851 409.887608 
L 800.362075 408.100415 
L 808.8093 406.313181 
L 817.256525 404.526894 
L 825.70375 402.741829 
L 834.150975 400.957006 
L 842.598199 399.169441 
L 851.045424 397.383157 
L 859.492649 395.599558 
L 867.939874 393.819113 
L 876.387098 392.042617 
L 884.834323 390.267164 
L 893.281548 388.487292 
" clip-path="url(#p951350ae5f)" style="fill: none; stroke: #e7969c; stroke-width: 2; stroke-linecap: round"/>
   </g>
   <g id="line2d_45">
    <path d="M 48.559071 525.505065 
L 57.006295 522.5461 
L 65.45352 521.510654 
L 73.900745 521.145317 
L 82.34797 521.005579 
L 90.795195 520.852275 
L 99.242419 520.646737 
L 107.689644 520.390209 
L 116.136869 520.08392 
L 124.584094 519.72907 
L 133.031318 519.326859 
L 141.478543 518.87839 
L 149.925768 518.38477 
L 158.372993 517.84726 
L 166.820217 517.266777 
L 175.267442 516.644497 
L 183.714667 515.981435 
L 192.161892 515.278653 
L 200.609117 514.537149 
L 209.056341 513.757881 
L 217.503566 512.941926 
L 225.950791 512.090146 
L 234.398016 511.203531 
L 242.84524 510.282976 
L 251.292465 509.329459 
L 259.73969 508.343849 
L 268.186915 507.326906 
L 276.63414 506.279523 
L 285.081364 505.202595 
L 293.528589 504.09715 
L 301.975814 502.963719 
L 310.423039 501.802815 
L 318.870263 500.615979 
L 327.317488 499.403344 
L 335.764713 498.166002 
L 344.211938 496.904437 
L 352.659162 495.619753 
L 361.106387 494.31201 
L 369.553612 492.982564 
L 378.000837 491.631778 
L 386.448062 490.260338 
L 394.895286 488.869208 
L 403.342511 487.458326 
L 411.789736 486.028523 
L 420.236961 484.581436 
L 428.684185 483.116419 
L 437.13141 481.634492 
L 445.578635 480.136608 
L 454.02586 478.622008 
L 462.473085 477.093121 
L 470.920309 475.549059 
L 479.367534 473.991363 
L 487.814759 472.420357 
L 496.261984 470.835745 
L 504.709208 469.238448 
L 513.156433 467.628866 
L 521.603658 466.008965 
L 530.050883 464.376747 
L 538.498107 462.734661 
L 546.945332 461.08114 
L 555.392557 459.419671 
L 563.839782 457.748965 
L 572.287007 456.067274 
L 580.734231 454.37826 
L 589.181456 452.681296 
L 597.628681 450.976838 
L 606.075906 449.266069 
L 614.52313 447.546363 
L 622.970355 445.819999 
L 631.41758 444.088921 
L 639.864805 442.353578 
L 648.31203 440.608716 
L 656.759254 438.862826 
L 665.206479 437.108914 
L 673.653704 435.353934 
L 682.100929 433.59114 
L 690.548153 431.828801 
L 698.995378 430.05916 
L 707.442603 428.287323 
L 715.889828 426.515117 
L 724.337052 424.739264 
L 732.784277 422.958332 
L 741.231502 421.176937 
L 749.678727 419.394481 
L 758.125952 417.611415 
L 766.573176 415.827323 
L 775.020401 414.042128 
L 783.467626 412.256091 
L 791.914851 410.468982 
L 800.362075 408.681588 
L 808.8093 406.89331 
L 817.256525 405.105051 
L 825.70375 403.317009 
L 834.150975 401.529654 
L 842.598199 399.743569 
L 851.045424 397.95902 
L 859.492649 396.177417 
L 867.939874 394.399228 
L 876.387098 392.618979 
L 884.834323 390.83731 
L 893.281548 389.060288 
" clip-path="url(#p951350ae5f)" style="fill: none; stroke: #a55194; stroke-width: 2; stroke-linecap: round"/>
   </g>
   <g id="line2d_46">
    <path d="M 48.559071 526.820901 
L 57.006295 523.004507 
L 65.45352 521.671692 
L 73.900745 521.202369 
L 82.34797 521.034601 
L 90.795195 520.89409 
L 99.242419 520.701044 
L 107.689644 520.456712 
L 116.136869 520.162328 
L 124.584094 519.819099 
L 133.031318 519.428225 
L 141.478543 518.990822 
L 149.925768 518.507996 
L 158.372993 517.981014 
L 166.820217 517.410802 
L 175.267442 516.798535 
L 183.714667 516.145229 
L 192.161892 515.451967 
L 200.609117 514.719725 
L 209.056341 513.949505 
L 217.503566 513.142356 
L 225.950791 512.29915 
L 234.398016 511.420901 
L 242.84524 510.508464 
L 251.292465 509.562834 
L 259.73969 508.584877 
L 268.186915 507.575471 
L 276.63414 506.535399 
L 285.081364 505.465513 
L 293.528589 504.366887 
L 301.975814 503.240206 
L 310.423039 502.085907 
L 318.870263 500.905385 
L 327.317488 499.698864 
L 335.764713 498.467393 
L 344.211938 497.211711 
L 352.659162 495.932509 
L 361.106387 494.630563 
L 369.553612 493.306263 
L 378.000837 491.960834 
L 386.448062 490.593876 
L 394.895286 489.207424 
L 403.342511 487.801294 
L 411.789736 486.376177 
L 420.236961 484.933308 
L 428.684185 483.472589 
L 437.13141 481.994642 
L 445.578635 480.500602 
L 454.02586 478.990127 
L 462.473085 477.464462 
L 470.920309 475.924401 
L 479.367534 474.370435 
L 487.814759 472.801991 
L 496.261984 471.220556 
L 504.709208 469.627067 
L 513.156433 468.02029 
L 521.603658 466.401949 
L 530.050883 464.773812 
L 538.498107 463.132899 
L 546.945332 461.483844 
L 555.392557 459.823019 
L 563.839782 458.153388 
L 572.287007 456.474766 
L 580.734231 454.788319 
L 589.181456 453.093339 
L 597.628681 451.390177 
L 606.075906 449.679891 
L 614.52313 447.962619 
L 622.970355 446.239789 
L 631.41758 444.51062 
L 639.864805 442.773126 
L 648.31203 441.032957 
L 656.759254 439.286165 
L 665.206479 437.534872 
L 673.653704 435.779176 
L 682.100929 434.020058 
L 690.548153 432.255009 
L 698.995378 430.49037 
L 707.442603 428.718233 
L 715.889828 426.944026 
L 724.337052 425.169322 
L 732.784277 423.393704 
L 741.231502 421.611003 
L 749.678727 419.827451 
L 758.125952 418.043496 
L 766.573176 416.258721 
L 775.020401 414.473043 
L 783.467626 412.686725 
L 791.914851 410.899532 
L 800.362075 409.112253 
L 808.8093 407.324285 
L 817.256525 405.536531 
L 825.70375 403.74919 
L 834.150975 401.96273 
L 842.598199 400.177734 
L 851.045424 398.394469 
L 859.492649 396.614346 
L 867.939874 394.831597 
L 876.387098 393.048073 
L 884.834323 391.268336 
L 893.281548 389.493442 
" clip-path="url(#p951350ae5f)" style="fill: none; stroke: #de9ed6; stroke-width: 2; stroke-linecap: round"/>
   </g>
   <g id="patch_3">
    <path d="M 48.559071 521.153031 
L 48.559071 51.564121 
" style="fill: none"/>
   </g>
   <g id="patch_4">
    <path d="M 935.517672 521.153031 
L 935.517672 51.564121 
" style="fill: none"/>
   </g>
   <g id="patch_5">
    <path d="M 48.559071 521.153031 
L 935.517672 521.153031 
" style="fill: none"/>
   </g>
   <g id="patch_6">
    <path d="M 48.559071 51.564121 
L 935.517672 51.564121 
" style="fill: none"/>
   </g>
   <g id="patch_7">
    <path d="M 470.920309 80.66435 
Q 470.920309 273.941694 470.920309 465.541986 
" style="fill: none; stroke: #000000; stroke-width: 1.5; stroke-linecap: round"/>
    <path d="M 474.120309 459.141986 
L 470.920309 465.541986 
L 467.720309 459.141986 
" style="fill: none; stroke: #000000; stroke-width: 1.5; stroke-linecap: round"/>
   </g>
   <g id="text_20">
    <!-- Time -->
    <g style="fill: #262626" transform="translate(492.038371 465.731973) scale(0.18 -0.18)">
     <defs>
      <path id="CMR17-54" d="M 3981 4326 
L 288 4326 
L 179 2918 
L 294 2918 
C 378 3976 467 4160 1453 4160 
C 1568 4160 1754 4160 1805 4154 
C 1926 4135 1926 4058 1926 3912 
L 1926 459 
C 1926 230 1907 160 1376 160 
L 1197 160 
L 1197 0 
C 1504 0 1824 0 2138 0 
C 2451 0 2771 0 3078 0 
L 3078 160 
L 2899 160 
C 2368 160 2349 230 2349 459 
L 2349 3912 
C 2349 4052 2349 4129 2464 4154 
C 2515 4160 2701 4160 2816 4160 
C 3795 4160 3891 3976 3974 2918 
L 4090 2918 
L 3981 4326 
z
" transform="scale(0.015625)"/>
      <path id="CMR17-69" d="M 992 3909 
C 992 4049 877 4170 730 4170 
C 589 4170 467 4056 467 3909 
C 467 3769 582 3648 730 3648 
C 870 3648 992 3763 992 3909 
z
M 243 2706 
L 243 2541 
C 602 2541 653 2502 653 2197 
L 653 427 
C 653 184 627 153 218 153 
L 218 -13 
C 371 0 646 0 806 0 
C 960 0 1222 0 1370 -13 
L 1370 153 
C 992 153 979 191 979 420 
L 979 2776 
L 243 2706 
z
" transform="scale(0.015625)"/>
      <path id="CMR17-6d" d="M 4326 1933 
C 4326 2252 4269 2790 3507 2790 
C 3072 2790 2771 2496 2656 2151 
L 2650 2151 
C 2573 2676 2195 2790 1837 2790 
C 1331 2790 1069 2400 973 2144 
L 966 2144 
L 966 2790 
L 211 2720 
L 211 2554 
C 589 2554 646 2515 646 2208 
L 646 428 
C 646 184 621 153 211 153 
L 211 -13 
C 365 0 646 0 813 0 
C 979 0 1267 0 1421 -13 
L 1421 153 
C 1011 153 986 178 986 428 
L 986 1658 
C 986 2247 1344 2688 1792 2688 
C 2266 2688 2317 2266 2317 1958 
L 2317 428 
C 2317 184 2291 153 1882 153 
L 1882 -13 
C 2035 0 2317 0 2483 0 
C 2650 0 2938 0 3091 -13 
L 3091 153 
C 2682 153 2656 178 2656 428 
L 2656 1658 
C 2656 2247 3014 2688 3462 2688 
C 3936 2688 3987 2266 3987 1958 
L 3987 428 
C 3987 184 3962 153 3552 153 
L 3552 -13 
C 3706 0 3987 0 4154 0 
C 4320 0 4608 0 4762 -13 
L 4762 153 
C 4352 153 4326 178 4326 428 
L 4326 1933 
z
" transform="scale(0.015625)"/>
      <path id="CMR17-65" d="M 2438 1472 
C 2464 1498 2464 1511 2464 1576 
C 2464 2238 2118 2816 1389 2816 
C 710 2816 173 2169 173 1383 
C 173 551 781 -64 1459 -64 
C 2176 -64 2458 607 2458 740 
C 2458 784 2419 784 2406 784 
C 2362 784 2355 771 2330 696 
C 2189 265 1837 51 1504 51 
C 1229 51 954 203 781 480 
C 582 803 582 1176 582 1472 
L 2438 1472 
z
M 589 1568 
C 634 2505 1126 2714 1382 2714 
C 1818 2714 2112 2297 2118 1568 
L 589 1568 
z
" transform="scale(0.015625)"/>
     </defs>
     <use xlink:href="#CMR17-54" transform="scale(0.996264)"/>
     <use xlink:href="#CMR17-69" transform="translate(66.509881 0) scale(0.996264)"/>
     <use xlink:href="#CMR17-6d" transform="translate(91.380939 0) scale(0.996264)"/>
     <use xlink:href="#CMR17-65" transform="translate(168.300529 0) scale(0.996264)"/>
    </g>
   </g>
   <g id="legend_1">
    <g id="line2d_47">
     <path d="M 948.117672 197.198434 
L 962.117672 197.198434 
L 976.117672 197.198434 
" style="fill: none; stroke: #393b79; stroke-width: 2; stroke-linecap: round"/>
    </g>
    <g id="text_21">
     <!-- t = 0.00 -->
     <g style="fill: #262626" transform="translate(987.317672 202.098434) scale(0.14 -0.14)">
      <defs>
       <path id="CMR17-74" d="M 966 2560 
L 1862 2560 
L 1862 2725 
L 966 2725 
L 966 3904 
L 851 3904 
C 838 3245 614 2668 70 2668 
L 70 2560 
L 627 2560 
L 627 771 
C 627 650 627 -64 1370 -64 
C 1747 -64 1965 306 1965 777 
L 1965 1140 
L 1850 1140 
L 1850 783 
C 1850 344 1677 51 1408 51 
C 1222 51 966 178 966 758 
L 966 2560 
z
" transform="scale(0.015625)"/>
       <path id="CMR17-3d" d="M 4115 2017 
C 4211 2017 4307 2017 4307 2125 
C 4307 2240 4198 2240 4090 2240 
L 512 2240 
C 403 2240 294 2240 294 2125 
C 294 2017 390 2017 486 2017 
L 4115 2017 
z
M 4090 896 
C 4198 896 4307 896 4307 1011 
C 4307 1119 4211 1119 4115 1119 
L 486 1119 
C 390 1119 294 1119 294 1011 
C 294 896 403 896 512 896 
L 4090 896 
z
" transform="scale(0.015625)"/>
       <path id="CMR17-2e" d="M 1062 261 
C 1062 420 934 522 800 522 
C 672 522 538 420 538 261 
C 538 102 666 0 800 0 
C 928 0 1062 102 1062 261 
z
" transform="scale(0.015625)"/>
      </defs>
      <use xlink:href="#CMR17-74" transform="scale(0.996264)"/>
      <use xlink:href="#CMR17-3d" transform="translate(65.356734 0) scale(0.996264)"/>
      <use xlink:href="#CMR17-30" transform="translate(167.147489 0) scale(0.996264)"/>
      <use xlink:href="#CMR17-2e" transform="translate(212.837966 0) scale(0.996264)"/>
      <use xlink:href="#CMR17-30" transform="translate(237.709025 0) scale(0.996264)"/>
      <use xlink:href="#CMR17-30" transform="translate(283.399502 0) scale(0.996264)"/>
     </g>
    </g>
    <g id="line2d_48">
     <path d="M 948.117672 216.710462 
L 962.117672 216.710462 
L 976.117672 216.710462 
" style="fill: none; stroke: #6b6ecf; stroke-width: 2; stroke-linecap: round"/>
    </g>
    <g id="text_22">
     <!-- t = 10.00 -->
     <g style="fill: #262626" transform="translate(987.317672 221.610462) scale(0.14 -0.14)">
      <use xlink:href="#CMR17-74" transform="scale(0.996264)"/>
      <use xlink:href="#CMR17-3d" transform="translate(65.356734 0) scale(0.996264)"/>
      <use xlink:href="#CMR17-31" transform="translate(167.147489 0) scale(0.996264)"/>
      <use xlink:href="#CMR17-30" transform="translate(212.837966 0) scale(0.996264)"/>
      <use xlink:href="#CMR17-2e" transform="translate(258.528443 0) scale(0.996264)"/>
      <use xlink:href="#CMR17-30" transform="translate(283.399502 0) scale(0.996264)"/>
      <use xlink:href="#CMR17-30" transform="translate(329.089979 0) scale(0.996264)"/>
     </g>
    </g>
    <g id="line2d_49">
     <path d="M 948.117672 236.222491 
L 962.117672 236.222491 
L 976.117672 236.222491 
" style="fill: none; stroke: #637939; stroke-width: 2; stroke-linecap: round"/>
    </g>
    <g id="text_23">
     <!-- t = 50.00 -->
     <g style="fill: #262626" transform="translate(987.317672 241.122491) scale(0.14 -0.14)">
      <use xlink:href="#CMR17-74" transform="scale(0.996264)"/>
      <use xlink:href="#CMR17-3d" transform="translate(65.356734 0) scale(0.996264)"/>
      <use xlink:href="#CMR17-35" transform="translate(167.147489 0) scale(0.996264)"/>
      <use xlink:href="#CMR17-30" transform="translate(212.837966 0) scale(0.996264)"/>
      <use xlink:href="#CMR17-2e" transform="translate(258.528443 0) scale(0.996264)"/>
      <use xlink:href="#CMR17-30" transform="translate(283.399502 0) scale(0.996264)"/>
      <use xlink:href="#CMR17-30" transform="translate(329.089979 0) scale(0.996264)"/>
     </g>
    </g>
    <g id="line2d_50">
     <path d="M 948.117672 255.734519 
L 962.117672 255.734519 
L 976.117672 255.734519 
" style="fill: none; stroke: #b5cf6b; stroke-width: 2; stroke-linecap: round"/>
    </g>
    <g id="text_24">
     <!-- t = 100.00 -->
     <g style="fill: #262626" transform="translate(987.317672 260.634519) scale(0.14 -0.14)">
      <use xlink:href="#CMR17-74" transform="scale(0.996264)"/>
      <use xlink:href="#CMR17-3d" transform="translate(65.356734 0) scale(0.996264)"/>
      <use xlink:href="#CMR17-31" transform="translate(167.147489 0) scale(0.996264)"/>
      <use xlink:href="#CMR17-30" transform="translate(212.837966 0) scale(0.996264)"/>
      <use xlink:href="#CMR17-30" transform="translate(258.528443 0) scale(0.996264)"/>
      <use xlink:href="#CMR17-2e" transform="translate(304.21892 0) scale(0.996264)"/>
      <use xlink:href="#CMR17-30" transform="translate(329.089979 0) scale(0.996264)"/>
      <use xlink:href="#CMR17-30" transform="translate(374.780456 0) scale(0.996264)"/>
     </g>
    </g>
    <g id="line2d_51">
     <path d="M 948.117672 275.246547 
L 962.117672 275.246547 
L 976.117672 275.246547 
" style="fill: none; stroke: #8c6d31; stroke-width: 2; stroke-linecap: round"/>
    </g>
    <g id="text_25">
     <!-- t = 250.00 -->
     <g style="fill: #262626" transform="translate(987.317672 280.146547) scale(0.14 -0.14)">
      <use xlink:href="#CMR17-74" transform="scale(0.996264)"/>
      <use xlink:href="#CMR17-3d" transform="translate(65.356734 0) scale(0.996264)"/>
      <use xlink:href="#CMR17-32" transform="translate(167.147489 0) scale(0.996264)"/>
      <use xlink:href="#CMR17-35" transform="translate(212.837966 0) scale(0.996264)"/>
      <use xlink:href="#CMR17-30" transform="translate(258.528443 0) scale(0.996264)"/>
      <use xlink:href="#CMR17-2e" transform="translate(304.21892 0) scale(0.996264)"/>
      <use xlink:href="#CMR17-30" transform="translate(329.089979 0) scale(0.996264)"/>
      <use xlink:href="#CMR17-30" transform="translate(374.780456 0) scale(0.996264)"/>
     </g>
    </g>
    <g id="line2d_52">
     <path d="M 948.117672 294.758576 
L 962.117672 294.758576 
L 976.117672 294.758576 
" style="fill: none; stroke: #e7cb94; stroke-width: 2; stroke-linecap: round"/>
    </g>
    <g id="text_26">
     <!-- t = 500.00 -->
     <g style="fill: #262626" transform="translate(987.317672 299.658576) scale(0.14 -0.14)">
      <use xlink:href="#CMR17-74" transform="scale(0.996264)"/>
      <use xlink:href="#CMR17-3d" transform="translate(65.356734 0) scale(0.996264)"/>
      <use xlink:href="#CMR17-35" transform="translate(167.147489 0) scale(0.996264)"/>
      <use xlink:href="#CMR17-30" transform="translate(212.837966 0) scale(0.996264)"/>
      <use xlink:href="#CMR17-30" transform="translate(258.528443 0) scale(0.996264)"/>
      <use xlink:href="#CMR17-2e" transform="translate(304.21892 0) scale(0.996264)"/>
      <use xlink:href="#CMR17-30" transform="translate(329.089979 0) scale(0.996264)"/>
      <use xlink:href="#CMR17-30" transform="translate(374.780456 0) scale(0.996264)"/>
     </g>
    </g>
    <g id="line2d_53">
     <path d="M 948.117672 314.270604 
L 962.117672 314.270604 
L 976.117672 314.270604 
" style="fill: none; stroke: #ad494a; stroke-width: 2; stroke-linecap: round"/>
    </g>
    <g id="text_27">
     <!-- t = 750.00 -->
     <g style="fill: #262626" transform="translate(987.317672 319.170604) scale(0.14 -0.14)">
      <use xlink:href="#CMR17-74" transform="scale(0.996264)"/>
      <use xlink:href="#CMR17-3d" transform="translate(65.356734 0) scale(0.996264)"/>
      <use xlink:href="#CMR17-37" transform="translate(167.147489 0) scale(0.996264)"/>
      <use xlink:href="#CMR17-35" transform="translate(212.837966 0) scale(0.996264)"/>
      <use xlink:href="#CMR17-30" transform="translate(258.528443 0) scale(0.996264)"/>
      <use xlink:href="#CMR17-2e" transform="translate(304.21892 0) scale(0.996264)"/>
      <use xlink:href="#CMR17-30" transform="translate(329.089979 0) scale(0.996264)"/>
      <use xlink:href="#CMR17-30" transform="translate(374.780456 0) scale(0.996264)"/>
     </g>
    </g>
    <g id="line2d_54">
     <path d="M 948.117672 333.782633 
L 962.117672 333.782633 
L 976.117672 333.782633 
" style="fill: none; stroke: #e7969c; stroke-width: 2; stroke-linecap: round"/>
    </g>
    <g id="text_28">
     <!-- t = 1000.00 -->
     <g style="fill: #262626" transform="translate(987.317672 338.682633) scale(0.14 -0.14)">
      <use xlink:href="#CMR17-74" transform="scale(0.996264)"/>
      <use xlink:href="#CMR17-3d" transform="translate(65.356734 0) scale(0.996264)"/>
      <use xlink:href="#CMR17-31" transform="translate(167.147489 0) scale(0.996264)"/>
      <use xlink:href="#CMR17-30" transform="translate(212.837966 0) scale(0.996264)"/>
      <use xlink:href="#CMR17-30" transform="translate(258.528443 0) scale(0.996264)"/>
      <use xlink:href="#CMR17-30" transform="translate(304.21892 0) scale(0.996264)"/>
      <use xlink:href="#CMR17-2e" transform="translate(349.909397 0) scale(0.996264)"/>
      <use xlink:href="#CMR17-30" transform="translate(374.780456 0) scale(0.996264)"/>
      <use xlink:href="#CMR17-30" transform="translate(420.470933 0) scale(0.996264)"/>
     </g>
    </g>
    <g id="line2d_55">
     <path d="M 948.117672 353.294661 
L 962.117672 353.294661 
L 976.117672 353.294661 
" style="fill: none; stroke: #a55194; stroke-width: 2; stroke-linecap: round"/>
    </g>
    <g id="text_29">
     <!-- t = 1250.00 -->
     <g style="fill: #262626" transform="translate(987.317672 358.194661) scale(0.14 -0.14)">
      <use xlink:href="#CMR17-74" transform="scale(0.996264)"/>
      <use xlink:href="#CMR17-3d" transform="translate(65.356734 0) scale(0.996264)"/>
      <use xlink:href="#CMR17-31" transform="translate(167.147489 0) scale(0.996264)"/>
      <use xlink:href="#CMR17-32" transform="translate(212.837966 0) scale(0.996264)"/>
      <use xlink:href="#CMR17-35" transform="translate(258.528443 0) scale(0.996264)"/>
      <use xlink:href="#CMR17-30" transform="translate(304.21892 0) scale(0.996264)"/>
      <use xlink:href="#CMR17-2e" transform="translate(349.909397 0) scale(0.996264)"/>
      <use xlink:href="#CMR17-30" transform="translate(374.780456 0) scale(0.996264)"/>
      <use xlink:href="#CMR17-30" transform="translate(420.470933 0) scale(0.996264)"/>
     </g>
    </g>
    <g id="line2d_56">
     <path d="M 948.117672 372.806689 
L 962.117672 372.806689 
L 976.117672 372.806689 
" style="fill: none; stroke: #de9ed6; stroke-width: 2; stroke-linecap: round"/>
    </g>
    <g id="text_30">
     <!-- t = 1500.00 -->
     <g style="fill: #262626" transform="translate(987.317672 377.706689) scale(0.14 -0.14)">
      <use xlink:href="#CMR17-74" transform="scale(0.996264)"/>
      <use xlink:href="#CMR17-3d" transform="translate(65.356734 0) scale(0.996264)"/>
      <use xlink:href="#CMR17-31" transform="translate(167.147489 0) scale(0.996264)"/>
      <use xlink:href="#CMR17-35" transform="translate(212.837966 0) scale(0.996264)"/>
      <use xlink:href="#CMR17-30" transform="translate(258.528443 0) scale(0.996264)"/>
      <use xlink:href="#CMR17-30" transform="translate(304.21892 0) scale(0.996264)"/>
      <use xlink:href="#CMR17-2e" transform="translate(349.909397 0) scale(0.996264)"/>
      <use xlink:href="#CMR17-30" transform="translate(374.780456 0) scale(0.996264)"/>
      <use xlink:href="#CMR17-30" transform="translate(420.470933 0) scale(0.996264)"/>
     </g>
    </g>
   </g>
  </g>
  <g id="text_31">
   <!-- permeability -->
   <g style="fill: #262626" transform="translate(492.111452 24.803515) scale(0.192 -0.192)">
    <defs>
     <path id="CMR17-70" d="M 1408 -1063 
C 998 -1063 973 -1037 973 -789 
L 973 402 
C 1158 134 1427 -38 1766 -38 
C 2406 -38 3053 523 3053 1388 
C 3053 2191 2496 2802 1837 2802 
C 1453 2802 1139 2592 960 2338 
L 960 2802 
L 198 2732 
L 198 2567 
C 576 2567 634 2528 634 2223 
L 634 -789 
C 634 -1031 608 -1063 198 -1063 
L 198 -1228 
C 352 -1216 634 -1216 800 -1216 
C 966 -1216 1254 -1216 1408 -1228 
L 1408 -1063 
z
M 973 2012 
C 973 2102 973 2235 1222 2471 
C 1254 2497 1472 2688 1792 2688 
C 2259 2688 2643 2108 2643 1382 
C 2643 656 2234 64 1728 64 
C 1498 64 1248 172 1056 472 
C 973 612 973 650 973 752 
L 973 2012 
z
" transform="scale(0.015625)"/>
     <path id="CMR17-72" d="M 960 1497 
C 960 2112 1222 2688 1702 2688 
C 1747 2688 1792 2682 1837 2662 
C 1837 2662 1696 2617 1696 2452 
C 1696 2298 1818 2234 1914 2234 
C 1990 2234 2131 2279 2131 2458 
C 2131 2663 1926 2790 1709 2790 
C 1222 2790 1011 2317 947 2093 
L 941 2093 
L 941 2790 
L 198 2720 
L 198 2554 
C 576 2554 634 2515 634 2208 
L 634 428 
C 634 184 608 153 198 153 
L 198 -13 
C 352 0 646 0 813 0 
C 998 0 1325 0 1498 -13 
L 1498 153 
C 1037 153 960 153 960 440 
L 960 1497 
z
" transform="scale(0.015625)"/>
     <path id="CMR17-61" d="M 2304 1653 
C 2304 2072 2304 2294 2035 2543 
C 1798 2752 1523 2816 1306 2816 
C 800 2816 435 2407 435 1971 
C 435 1728 627 1728 666 1728 
C 749 1728 896 1778 896 1954 
C 896 2112 774 2181 666 2181 
C 640 2181 608 2174 589 2168 
C 723 2592 1069 2714 1293 2714 
C 1613 2714 1965 2429 1965 1885 
L 1965 1600 
C 1587 1600 1133 1549 774 1357 
C 371 1133 256 813 256 570 
C 256 77 832 -64 1171 -64 
C 1523 -64 1850 139 1990 511 
C 2003 233 2182 -18 2464 -18 
C 2598 -18 2938 70 2938 567 
L 2938 920 
L 2822 920 
L 2822 562 
C 2822 178 2650 128 2566 128 
C 2304 128 2304 458 2304 738 
L 2304 1653 
z
M 1965 870 
C 1965 317 1568 38 1216 38 
C 896 38 646 275 646 570 
C 646 761 730 1100 1101 1305 
C 1408 1478 1760 1504 1965 1504 
L 1965 870 
z
" transform="scale(0.015625)"/>
     <path id="CMR17-62" d="M 960 4396 
L 198 4326 
L 198 4160 
C 576 4160 634 4122 634 3817 
L 634 -13 
L 749 -13 
L 934 441 
C 1120 141 1395 -64 1766 -64 
C 2406 -64 3053 500 3053 1370 
C 3053 2188 2477 2790 1830 2790 
C 1434 2790 1152 2579 960 2330 
L 960 4396 
z
M 973 2004 
C 973 2118 973 2138 1062 2272 
C 1312 2657 1670 2688 1792 2688 
C 1984 2688 2643 2585 2643 1376 
C 2643 108 1888 38 1734 38 
C 1536 38 1248 114 1043 486 
C 973 608 973 621 973 735 
L 973 2004 
z
" transform="scale(0.015625)"/>
     <path id="CMR17-6c" d="M 979 4396 
L 218 4326 
L 218 4160 
C 595 4160 653 4122 653 3817 
L 653 426 
C 653 184 627 153 218 153 
L 218 -13 
C 371 0 653 0 813 0 
C 979 0 1261 0 1414 -13 
L 1414 153 
C 1005 153 979 178 979 426 
L 979 4396 
z
" transform="scale(0.015625)"/>
     <path id="CMR17-79" d="M 2496 2197 
C 2656 2586 2944 2586 3034 2586 
L 3034 2752 
C 2912 2752 2752 2752 2630 2752 
C 2496 2752 2285 2752 2157 2758 
L 2157 2592 
C 2400 2573 2406 2394 2406 2343 
C 2406 2280 2394 2248 2362 2171 
L 1664 449 
L 902 2306 
C 870 2382 870 2426 870 2433 
C 870 2573 1018 2586 1171 2586 
L 1171 2758 
C 1018 2752 742 2752 582 2752 
C 410 2752 205 2752 64 2758 
L 64 2586 
C 410 2586 448 2554 531 2350 
L 1485 15 
C 1197 -738 1030 -1178 627 -1178 
C 557 -1178 397 -1159 282 -1044 
C 429 -1031 493 -942 493 -833 
C 493 -725 416 -629 288 -629 
C 147 -629 77 -725 77 -840 
C 77 -1095 339 -1280 627 -1280 
C 998 -1280 1229 -922 1357 -604 
L 2496 2197 
z
" transform="scale(0.015625)"/>
    </defs>
    <use xlink:href="#CMR17-70" transform="scale(0.996264)"/>
    <use xlink:href="#CMR17-65" transform="translate(53.497809 0) scale(0.996264)"/>
    <use xlink:href="#CMR17-72" transform="translate(93.983469 0) scale(0.996264)"/>
    <use xlink:href="#CMR17-6d" transform="translate(129.264237 0) scale(0.996264)"/>
    <use xlink:href="#CMR17-65" transform="translate(206.183827 0) scale(0.996264)"/>
    <use xlink:href="#CMR17-61" transform="translate(246.669487 0) scale(0.996264)"/>
    <use xlink:href="#CMR17-62" transform="translate(292.359964 0) scale(0.996264)"/>
    <use xlink:href="#CMR17-69" transform="translate(343.255334 0) scale(0.996264)"/>
    <use xlink:href="#CMR17-6c" transform="translate(368.126392 0) scale(0.996264)"/>
    <use xlink:href="#CMR17-69" transform="translate(392.997451 0) scale(0.996264)"/>
    <use xlink:href="#CMR17-74" transform="translate(417.868509 0) scale(0.996264)"/>
    <use xlink:href="#CMR17-79" transform="translate(450.546823 0) scale(0.996264)"/>
   </g>
  </g>
 </g>
 <defs>
  <clipPath id="p951350ae5f">
   <rect x="48.559071" y="51.564121" width="886.958601" height="469.58891"/>
  </clipPath>
 </defs>
</svg>
