<?xml version="1.0" encoding="utf-8" standalone="no"?>
<!DOCTYPE svg PUBLIC "-//W3C//DTD SVG 1.1//EN"
  "http://www.w3.org/Graphics/SVG/1.1/DTD/svg11.dtd">
<svg xmlns:xlink="http://www.w3.org/1999/xlink" width="1080pt" height="576pt" viewBox="0 0 1080 576" xmlns="http://www.w3.org/2000/svg" version="1.1">
 <metadata>
  <rdf:RDF xmlns:dc="http://purl.org/dc/elements/1.1/" xmlns:cc="http://creativecommons.org/ns#" xmlns:rdf="http://www.w3.org/1999/02/22-rdf-syntax-ns#">
   <cc:Work>
    <dc:type rdf:resource="http://purl.org/dc/dcmitype/StillImage"/>
    <dc:date>2024-06-28T12:41:22.564429</dc:date>
    <dc:format>image/svg+xml</dc:format>
    <dc:creator>
     <cc:Agent>
      <dc:title>Matplotlib v3.9.0, https://matplotlib.org/</dc:title>
     </cc:Agent>
    </dc:creator>
   </cc:Work>
  </rdf:RDF>
 </metadata>
 <defs>
  <style type="text/css">*{stroke-linejoin: round; stroke-linecap: butt}</style>
 </defs>
 <g id="figure_1">
  <g id="patch_1">
   <path d="M 0 576 
L 1080 576 
L 1080 0 
L 0 0 
z
" style="fill: #ffffff"/>
  </g>
  <g id="axes_1">
   <g id="patch_2">
    <path d="M 48.559071 521.153031 
L 935.517672 521.153031 
L 935.517672 51.564121 
L 48.559071 51.564121 
z
" style="fill: #eaeaf2"/>
   </g>
   <g id="matplotlib.axis_1">
    <g id="xtick_1">
     <g id="line2d_1">
      <path d="M 48.559071 521.153031 
L 48.559071 51.564121 
" clip-path="url(#pb64c9ff127)" style="fill: none; stroke: #ffffff; stroke-linecap: round"/>
     </g>
     <g id="line2d_2"/>
     <g id="text_1">
      <!-- $\mathdefault{0.00}$ -->
      <g style="fill: #262626" transform="translate(36.419535 537.838907) scale(0.14 -0.14)">
       <defs>
        <path id="CMR17-30" d="M 2688 2025 
C 2688 2416 2682 3080 2413 3591 
C 2176 4039 1798 4198 1466 4198 
C 1158 4198 768 4058 525 3597 
C 269 3118 243 2524 243 2025 
C 243 1661 250 1106 448 619 
C 723 -39 1216 -128 1466 -128 
C 1760 -128 2208 -7 2470 600 
C 2662 1042 2688 1559 2688 2025 
z
M 1466 -26 
C 1056 -26 813 325 723 812 
C 653 1188 653 1738 653 2096 
C 653 2588 653 2997 736 3387 
C 858 3929 1216 4096 1466 4096 
C 1728 4096 2067 3923 2189 3400 
C 2272 3036 2278 2607 2278 2096 
C 2278 1680 2278 1169 2202 792 
C 2067 95 1690 -26 1466 -26 
z
" transform="scale(0.015625)"/>
        <path id="CMMI12-3a" d="M 1178 307 
C 1178 492 1024 619 870 619 
C 685 619 557 466 557 313 
C 557 128 710 0 864 0 
C 1050 0 1178 153 1178 307 
z
" transform="scale(0.015625)"/>
       </defs>
       <use xlink:href="#CMR17-30" transform="scale(0.996264)"/>
       <use xlink:href="#CMMI12-3a" transform="translate(45.690477 0) scale(0.996264)"/>
       <use xlink:href="#CMR17-30" transform="translate(72.787654 0) scale(0.996264)"/>
       <use xlink:href="#CMR17-30" transform="translate(118.478131 0) scale(0.996264)"/>
      </g>
     </g>
    </g>
    <g id="xtick_2">
     <g id="line2d_3">
      <path d="M 154.14938 521.153031 
L 154.14938 51.564121 
" clip-path="url(#pb64c9ff127)" style="fill: none; stroke: #ffffff; stroke-linecap: round"/>
     </g>
     <g id="line2d_4"/>
     <g id="text_2">
      <!-- $\mathdefault{0.25}$ -->
      <g style="fill: #262626" transform="translate(142.009845 537.838907) scale(0.14 -0.14)">
       <defs>
        <path id="CMR17-32" d="M 2669 989 
L 2554 989 
C 2490 536 2438 459 2413 420 
C 2381 369 1920 369 1830 369 
L 602 369 
C 832 619 1280 1072 1824 1597 
C 2214 1967 2669 2402 2669 3035 
C 2669 3790 2067 4224 1395 4224 
C 691 4224 262 3604 262 3030 
C 262 2780 448 2748 525 2748 
C 589 2748 781 2787 781 3010 
C 781 3207 614 3264 525 3264 
C 486 3264 448 3258 422 3245 
C 544 3790 915 4058 1306 4058 
C 1862 4058 2227 3617 2227 3035 
C 2227 2479 1901 2000 1536 1584 
L 262 146 
L 262 0 
L 2515 0 
L 2669 989 
z
" transform="scale(0.015625)"/>
        <path id="CMR17-35" d="M 730 3692 
C 794 3666 1056 3584 1325 3584 
C 1920 3584 2246 3911 2432 4100 
C 2432 4157 2432 4192 2394 4192 
C 2387 4192 2374 4192 2323 4163 
C 2099 4058 1837 3973 1517 3973 
C 1325 3973 1037 3999 723 4139 
C 653 4171 640 4171 634 4171 
C 602 4171 595 4164 595 4037 
L 595 2203 
C 595 2089 595 2057 659 2057 
C 691 2057 704 2070 736 2114 
C 941 2401 1222 2522 1542 2522 
C 1766 2522 2246 2382 2246 1289 
C 2246 1085 2246 715 2054 421 
C 1894 159 1645 25 1370 25 
C 947 25 518 320 403 814 
C 429 807 480 795 506 795 
C 589 795 749 840 749 1038 
C 749 1210 627 1280 506 1280 
C 358 1280 262 1190 262 1011 
C 262 454 704 -128 1382 -128 
C 2042 -128 2669 440 2669 1264 
C 2669 2030 2170 2624 1549 2624 
C 1222 2624 947 2503 730 2274 
L 730 3692 
z
" transform="scale(0.015625)"/>
       </defs>
       <use xlink:href="#CMR17-30" transform="scale(0.996264)"/>
       <use xlink:href="#CMMI12-3a" transform="translate(45.690477 0) scale(0.996264)"/>
       <use xlink:href="#CMR17-32" transform="translate(72.787654 0) scale(0.996264)"/>
       <use xlink:href="#CMR17-35" transform="translate(118.478131 0) scale(0.996264)"/>
      </g>
     </g>
    </g>
    <g id="xtick_3">
     <g id="line2d_5">
      <path d="M 259.73969 521.153031 
L 259.73969 51.564121 
" clip-path="url(#pb64c9ff127)" style="fill: none; stroke: #ffffff; stroke-linecap: round"/>
     </g>
     <g id="line2d_6"/>
     <g id="text_3">
      <!-- $\mathdefault{0.50}$ -->
      <g style="fill: #262626" transform="translate(247.600155 537.838907) scale(0.14 -0.14)">
       <use xlink:href="#CMR17-30" transform="scale(0.996264)"/>
       <use xlink:href="#CMMI12-3a" transform="translate(45.690477 0) scale(0.996264)"/>
       <use xlink:href="#CMR17-35" transform="translate(72.787654 0) scale(0.996264)"/>
       <use xlink:href="#CMR17-30" transform="translate(118.478131 0) scale(0.996264)"/>
      </g>
     </g>
    </g>
    <g id="xtick_4">
     <g id="line2d_7">
      <path d="M 365.33 521.153031 
L 365.33 51.564121 
" clip-path="url(#pb64c9ff127)" style="fill: none; stroke: #ffffff; stroke-linecap: round"/>
     </g>
     <g id="line2d_8"/>
     <g id="text_4">
      <!-- $\mathdefault{0.75}$ -->
      <g style="fill: #262626" transform="translate(353.190464 537.838907) scale(0.14 -0.14)">
       <defs>
        <path id="CMR17-37" d="M 2886 3941 
L 2886 4081 
L 1382 4081 
C 634 4081 621 4165 595 4288 
L 480 4288 
L 294 3094 
L 410 3094 
C 429 3215 474 3540 550 3661 
C 589 3712 1062 3712 1171 3712 
L 2579 3712 
L 1869 2661 
C 1395 1954 1069 999 1069 165 
C 1069 89 1069 -128 1299 -128 
C 1530 -128 1530 89 1530 171 
L 1530 465 
C 1530 1508 1709 2196 2003 2636 
L 2886 3941 
z
" transform="scale(0.015625)"/>
       </defs>
       <use xlink:href="#CMR17-30" transform="scale(0.996264)"/>
       <use xlink:href="#CMMI12-3a" transform="translate(45.690477 0) scale(0.996264)"/>
       <use xlink:href="#CMR17-37" transform="translate(72.787654 0) scale(0.996264)"/>
       <use xlink:href="#CMR17-35" transform="translate(118.478131 0) scale(0.996264)"/>
      </g>
     </g>
    </g>
    <g id="xtick_5">
     <g id="line2d_9">
      <path d="M 470.920309 521.153031 
L 470.920309 51.564121 
" clip-path="url(#pb64c9ff127)" style="fill: none; stroke: #ffffff; stroke-linecap: round"/>
     </g>
     <g id="line2d_10"/>
     <g id="text_5">
      <!-- $\mathdefault{1.00}$ -->
      <g style="fill: #262626" transform="translate(458.780774 537.838907) scale(0.14 -0.14)">
       <defs>
        <path id="CMR17-31" d="M 1702 4058 
C 1702 4192 1696 4192 1606 4192 
C 1357 3916 979 3827 621 3827 
C 602 3827 570 3827 563 3808 
C 557 3795 557 3782 557 3648 
C 755 3648 1088 3686 1344 3839 
L 1344 461 
C 1344 236 1331 160 781 160 
L 589 160 
L 589 0 
C 896 0 1216 0 1523 0 
C 1830 0 2150 0 2458 0 
L 2458 160 
L 2266 160 
C 1715 160 1702 230 1702 458 
L 1702 4058 
z
" transform="scale(0.015625)"/>
       </defs>
       <use xlink:href="#CMR17-31" transform="scale(0.996264)"/>
       <use xlink:href="#CMMI12-3a" transform="translate(45.690477 0) scale(0.996264)"/>
       <use xlink:href="#CMR17-30" transform="translate(72.787654 0) scale(0.996264)"/>
       <use xlink:href="#CMR17-30" transform="translate(118.478131 0) scale(0.996264)"/>
      </g>
     </g>
    </g>
    <g id="xtick_6">
     <g id="line2d_11">
      <path d="M 576.510619 521.153031 
L 576.510619 51.564121 
" clip-path="url(#pb64c9ff127)" style="fill: none; stroke: #ffffff; stroke-linecap: round"/>
     </g>
     <g id="line2d_12"/>
     <g id="text_6">
      <!-- $\mathdefault{1.25}$ -->
      <g style="fill: #262626" transform="translate(564.371084 537.838907) scale(0.14 -0.14)">
       <use xlink:href="#CMR17-31" transform="scale(0.996264)"/>
       <use xlink:href="#CMMI12-3a" transform="translate(45.690477 0) scale(0.996264)"/>
       <use xlink:href="#CMR17-32" transform="translate(72.787654 0) scale(0.996264)"/>
       <use xlink:href="#CMR17-35" transform="translate(118.478131 0) scale(0.996264)"/>
      </g>
     </g>
    </g>
    <g id="xtick_7">
     <g id="line2d_13">
      <path d="M 682.100929 521.153031 
L 682.100929 51.564121 
" clip-path="url(#pb64c9ff127)" style="fill: none; stroke: #ffffff; stroke-linecap: round"/>
     </g>
     <g id="line2d_14"/>
     <g id="text_7">
      <!-- $\mathdefault{1.50}$ -->
      <g style="fill: #262626" transform="translate(669.961393 537.838907) scale(0.14 -0.14)">
       <use xlink:href="#CMR17-31" transform="scale(0.996264)"/>
       <use xlink:href="#CMMI12-3a" transform="translate(45.690477 0) scale(0.996264)"/>
       <use xlink:href="#CMR17-35" transform="translate(72.787654 0) scale(0.996264)"/>
       <use xlink:href="#CMR17-30" transform="translate(118.478131 0) scale(0.996264)"/>
      </g>
     </g>
    </g>
    <g id="xtick_8">
     <g id="line2d_15">
      <path d="M 787.691238 521.153031 
L 787.691238 51.564121 
" clip-path="url(#pb64c9ff127)" style="fill: none; stroke: #ffffff; stroke-linecap: round"/>
     </g>
     <g id="line2d_16"/>
     <g id="text_8">
      <!-- $\mathdefault{1.75}$ -->
      <g style="fill: #262626" transform="translate(775.551703 537.838907) scale(0.14 -0.14)">
       <use xlink:href="#CMR17-31" transform="scale(0.996264)"/>
       <use xlink:href="#CMMI12-3a" transform="translate(45.690477 0) scale(0.996264)"/>
       <use xlink:href="#CMR17-37" transform="translate(72.787654 0) scale(0.996264)"/>
       <use xlink:href="#CMR17-35" transform="translate(118.478131 0) scale(0.996264)"/>
      </g>
     </g>
    </g>
    <g id="xtick_9">
     <g id="line2d_17">
      <path d="M 893.281548 521.153031 
L 893.281548 51.564121 
" clip-path="url(#pb64c9ff127)" style="fill: none; stroke: #ffffff; stroke-linecap: round"/>
     </g>
     <g id="line2d_18"/>
     <g id="text_9">
      <!-- $\mathdefault{2.00}$ -->
      <g style="fill: #262626" transform="translate(881.142013 537.838907) scale(0.14 -0.14)">
       <use xlink:href="#CMR17-32" transform="scale(0.996264)"/>
       <use xlink:href="#CMMI12-3a" transform="translate(45.690477 0) scale(0.996264)"/>
       <use xlink:href="#CMR17-30" transform="translate(72.787654 0) scale(0.996264)"/>
       <use xlink:href="#CMR17-30" transform="translate(118.478131 0) scale(0.996264)"/>
      </g>
     </g>
    </g>
    <g id="text_10">
     <!-- $x$ -->
     <g style="fill: #262626" transform="translate(487.603646 555.620524) scale(0.16 -0.16)">
      <defs>
       <path id="CMMI12-78" d="M 3034 2606 
C 2829 2567 2752 2414 2752 2293 
C 2752 2139 2874 2088 2963 2088 
C 3155 2088 3290 2254 3290 2427 
C 3290 2695 2982 2816 2714 2816 
C 2323 2816 2106 2433 2048 2312 
C 1901 2816 1504 2816 1389 2816 
C 736 2816 390 1980 390 1839 
C 390 1814 416 1782 461 1782 
C 512 1782 525 1820 538 1846 
C 755 2555 1184 2689 1370 2689 
C 1658 2689 1715 2420 1715 2267 
C 1715 2127 1677 1980 1600 1673 
L 1382 798 
C 1286 415 1101 64 762 64 
C 730 64 570 64 435 147 
C 666 192 717 383 717 460 
C 717 588 621 664 499 664 
C 346 664 179 530 179 326 
C 179 57 480 -64 755 -64 
C 1062 -64 1280 179 1414 441 
C 1517 64 1837 -64 2074 -64 
C 2726 -64 3072 773 3072 913 
C 3072 945 3046 971 3008 971 
C 2950 971 2944 939 2925 888 
C 2752 326 2381 64 2093 64 
C 1869 64 1747 230 1747 492 
C 1747 632 1773 734 1875 1156 
L 2099 2024 
C 2195 2408 2413 2689 2707 2689 
C 2720 2689 2899 2689 3034 2606 
z
" transform="scale(0.015625)"/>
      </defs>
      <use xlink:href="#CMMI12-78" transform="scale(0.996264)"/>
     </g>
    </g>
   </g>
   <g id="matplotlib.axis_2">
    <g id="ytick_1">
     <g id="line2d_19">
      <path d="M 48.559071 521.153031 
L 935.517672 521.153031 
" clip-path="url(#pb64c9ff127)" style="fill: none; stroke: #ffffff; stroke-linecap: round"/>
     </g>
     <g id="line2d_20"/>
     <g id="text_11">
      <!-- $\mathdefault{0.00}$ -->
      <g style="fill: #262626" transform="translate(17.28 525.995969) scale(0.14 -0.14)">
       <use xlink:href="#CMR17-30" transform="scale(0.996264)"/>
       <use xlink:href="#CMMI12-3a" transform="translate(45.690477 0) scale(0.996264)"/>
       <use xlink:href="#CMR17-30" transform="translate(72.787654 0) scale(0.996264)"/>
       <use xlink:href="#CMR17-30" transform="translate(118.478131 0) scale(0.996264)"/>
      </g>
     </g>
    </g>
    <g id="ytick_2">
     <g id="line2d_21">
      <path d="M 48.559071 465.280685 
L 935.517672 465.280685 
" clip-path="url(#pb64c9ff127)" style="fill: none; stroke: #ffffff; stroke-linecap: round"/>
     </g>
     <g id="line2d_22"/>
     <g id="text_12">
      <!-- $\mathdefault{0.25}$ -->
      <g style="fill: #262626" transform="translate(17.28 470.123623) scale(0.14 -0.14)">
       <use xlink:href="#CMR17-30" transform="scale(0.996264)"/>
       <use xlink:href="#CMMI12-3a" transform="translate(45.690477 0) scale(0.996264)"/>
       <use xlink:href="#CMR17-32" transform="translate(72.787654 0) scale(0.996264)"/>
       <use xlink:href="#CMR17-35" transform="translate(118.478131 0) scale(0.996264)"/>
      </g>
     </g>
    </g>
    <g id="ytick_3">
     <g id="line2d_23">
      <path d="M 48.559071 409.408339 
L 935.517672 409.408339 
" clip-path="url(#pb64c9ff127)" style="fill: none; stroke: #ffffff; stroke-linecap: round"/>
     </g>
     <g id="line2d_24"/>
     <g id="text_13">
      <!-- $\mathdefault{0.50}$ -->
      <g style="fill: #262626" transform="translate(17.28 414.251278) scale(0.14 -0.14)">
       <use xlink:href="#CMR17-30" transform="scale(0.996264)"/>
       <use xlink:href="#CMMI12-3a" transform="translate(45.690477 0) scale(0.996264)"/>
       <use xlink:href="#CMR17-35" transform="translate(72.787654 0) scale(0.996264)"/>
       <use xlink:href="#CMR17-30" transform="translate(118.478131 0) scale(0.996264)"/>
      </g>
     </g>
    </g>
    <g id="ytick_4">
     <g id="line2d_25">
      <path d="M 48.559071 353.535994 
L 935.517672 353.535994 
" clip-path="url(#pb64c9ff127)" style="fill: none; stroke: #ffffff; stroke-linecap: round"/>
     </g>
     <g id="line2d_26"/>
     <g id="text_14">
      <!-- $\mathdefault{0.75}$ -->
      <g style="fill: #262626" transform="translate(17.28 358.378932) scale(0.14 -0.14)">
       <use xlink:href="#CMR17-30" transform="scale(0.996264)"/>
       <use xlink:href="#CMMI12-3a" transform="translate(45.690477 0) scale(0.996264)"/>
       <use xlink:href="#CMR17-37" transform="translate(72.787654 0) scale(0.996264)"/>
       <use xlink:href="#CMR17-35" transform="translate(118.478131 0) scale(0.996264)"/>
      </g>
     </g>
    </g>
    <g id="ytick_5">
     <g id="line2d_27">
      <path d="M 48.559071 297.663648 
L 935.517672 297.663648 
" clip-path="url(#pb64c9ff127)" style="fill: none; stroke: #ffffff; stroke-linecap: round"/>
     </g>
     <g id="line2d_28"/>
     <g id="text_15">
      <!-- $\mathdefault{1.00}$ -->
      <g style="fill: #262626" transform="translate(17.28 302.506586) scale(0.14 -0.14)">
       <use xlink:href="#CMR17-31" transform="scale(0.996264)"/>
       <use xlink:href="#CMMI12-3a" transform="translate(45.690477 0) scale(0.996264)"/>
       <use xlink:href="#CMR17-30" transform="translate(72.787654 0) scale(0.996264)"/>
       <use xlink:href="#CMR17-30" transform="translate(118.478131 0) scale(0.996264)"/>
      </g>
     </g>
    </g>
    <g id="ytick_6">
     <g id="line2d_29">
      <path d="M 48.559071 241.791302 
L 935.517672 241.791302 
" clip-path="url(#pb64c9ff127)" style="fill: none; stroke: #ffffff; stroke-linecap: round"/>
     </g>
     <g id="line2d_30"/>
     <g id="text_16">
      <!-- $\mathdefault{1.25}$ -->
      <g style="fill: #262626" transform="translate(17.28 246.634241) scale(0.14 -0.14)">
       <use xlink:href="#CMR17-31" transform="scale(0.996264)"/>
       <use xlink:href="#CMMI12-3a" transform="translate(45.690477 0) scale(0.996264)"/>
       <use xlink:href="#CMR17-32" transform="translate(72.787654 0) scale(0.996264)"/>
       <use xlink:href="#CMR17-35" transform="translate(118.478131 0) scale(0.996264)"/>
      </g>
     </g>
    </g>
    <g id="ytick_7">
     <g id="line2d_31">
      <path d="M 48.559071 185.918957 
L 935.517672 185.918957 
" clip-path="url(#pb64c9ff127)" style="fill: none; stroke: #ffffff; stroke-linecap: round"/>
     </g>
     <g id="line2d_32"/>
     <g id="text_17">
      <!-- $\mathdefault{1.50}$ -->
      <g style="fill: #262626" transform="translate(17.28 190.761895) scale(0.14 -0.14)">
       <use xlink:href="#CMR17-31" transform="scale(0.996264)"/>
       <use xlink:href="#CMMI12-3a" transform="translate(45.690477 0) scale(0.996264)"/>
       <use xlink:href="#CMR17-35" transform="translate(72.787654 0) scale(0.996264)"/>
       <use xlink:href="#CMR17-30" transform="translate(118.478131 0) scale(0.996264)"/>
      </g>
     </g>
    </g>
    <g id="ytick_8">
     <g id="line2d_33">
      <path d="M 48.559071 130.046611 
L 935.517672 130.046611 
" clip-path="url(#pb64c9ff127)" style="fill: none; stroke: #ffffff; stroke-linecap: round"/>
     </g>
     <g id="line2d_34"/>
     <g id="text_18">
      <!-- $\mathdefault{1.75}$ -->
      <g style="fill: #262626" transform="translate(17.28 134.889549) scale(0.14 -0.14)">
       <use xlink:href="#CMR17-31" transform="scale(0.996264)"/>
       <use xlink:href="#CMMI12-3a" transform="translate(45.690477 0) scale(0.996264)"/>
       <use xlink:href="#CMR17-37" transform="translate(72.787654 0) scale(0.996264)"/>
       <use xlink:href="#CMR17-35" transform="translate(118.478131 0) scale(0.996264)"/>
      </g>
     </g>
    </g>
    <g id="ytick_9">
     <g id="line2d_35">
      <path d="M 48.559071 74.174265 
L 935.517672 74.174265 
" clip-path="url(#pb64c9ff127)" style="fill: none; stroke: #ffffff; stroke-linecap: round"/>
     </g>
     <g id="line2d_36"/>
     <g id="text_19">
      <!-- $\mathdefault{2.00}$ -->
      <g style="fill: #262626" transform="translate(17.28 79.017204) scale(0.14 -0.14)">
       <use xlink:href="#CMR17-32" transform="scale(0.996264)"/>
       <use xlink:href="#CMMI12-3a" transform="translate(45.690477 0) scale(0.996264)"/>
       <use xlink:href="#CMR17-30" transform="translate(72.787654 0) scale(0.996264)"/>
       <use xlink:href="#CMR17-30" transform="translate(118.478131 0) scale(0.996264)"/>
      </g>
     </g>
    </g>
   </g>
   <g id="line2d_37">
    <path d="M 48.559071 74.174265 
L 57.006295 74.174265 
L 65.45352 74.174265 
L 73.900745 74.174265 
L 82.34797 74.174265 
L 90.795195 74.174265 
L 99.242419 74.174265 
L 107.689644 74.174265 
L 116.136869 74.174265 
L 124.584094 74.174265 
L 133.031318 74.174265 
L 141.478543 74.174265 
L 149.925768 74.174265 
L 158.372993 74.174265 
L 166.820217 74.174265 
L 175.267442 74.174265 
L 183.714667 74.174265 
L 192.161892 74.174265 
L 200.609117 74.174265 
L 209.056341 74.174265 
L 217.503566 74.174265 
L 225.950791 74.174265 
L 234.398016 74.174265 
L 242.84524 74.174265 
L 251.292465 74.174265 
L 259.73969 74.174265 
L 268.186915 74.174265 
L 276.63414 74.174265 
L 285.081364 74.174265 
L 293.528589 74.174265 
L 301.975814 74.174265 
L 310.423039 74.174265 
L 318.870263 74.174265 
L 327.317488 74.174265 
L 335.764713 74.174265 
L 344.211938 74.174265 
L 352.659162 74.174265 
L 361.106387 74.174265 
L 369.553612 74.174265 
L 378.000837 74.174265 
L 386.448062 74.174265 
L 394.895286 74.174265 
L 403.342511 74.174265 
L 411.789736 74.174265 
L 420.236961 74.174265 
L 428.684185 74.174265 
L 437.13141 74.174265 
L 445.578635 74.174265 
L 454.02586 74.174265 
L 462.473085 74.174265 
L 470.920309 74.174265 
L 479.367534 74.174265 
L 487.814759 74.174265 
L 496.261984 74.174265 
L 504.709208 74.174265 
L 513.156433 74.174265 
L 521.603658 74.174265 
L 530.050883 74.174265 
L 538.498107 74.174265 
L 546.945332 74.174265 
L 555.392557 74.174265 
L 563.839782 74.174265 
L 572.287007 74.174265 
L 580.734231 74.174265 
L 589.181456 74.174265 
L 597.628681 74.174265 
L 606.075906 74.174265 
L 614.52313 74.174265 
L 622.970355 74.174265 
L 631.41758 74.174265 
L 639.864805 74.174265 
L 648.31203 74.174265 
L 656.759254 74.174265 
L 665.206479 74.174265 
L 673.653704 74.174265 
L 682.100929 74.174265 
L 690.548153 74.174265 
L 698.995378 74.174265 
L 707.442603 74.174265 
L 715.889828 74.174265 
L 724.337052 74.174265 
L 732.784277 74.174265 
L 741.231502 74.174265 
L 749.678727 74.174265 
L 758.125952 74.174265 
L 766.573176 74.174265 
L 775.020401 74.174265 
L 783.467626 74.174265 
L 791.914851 74.174265 
L 800.362075 74.174265 
L 808.8093 74.174265 
L 817.256525 74.174265 
L 825.70375 74.174265 
L 834.150975 74.174265 
L 842.598199 74.174265 
L 851.045424 74.174265 
L 859.492649 74.174265 
L 867.939874 74.174265 
L 876.387098 74.174265 
L 884.834323 74.174265 
L 893.281548 74.174265 
" clip-path="url(#pb64c9ff127)" style="fill: none; stroke: #393b79; stroke-width: 2; stroke-linecap: round"/>
   </g>
   <g id="line2d_38">
    <path d="M 48.559071 209.052026 
L 57.006295 208.005328 
L 65.45352 206.970948 
L 73.900745 205.948687 
L 82.34797 204.938267 
L 90.795195 203.939647 
L 99.242419 202.952772 
L 107.689644 201.945208 
L 116.136869 200.934422 
L 124.584094 199.935201 
L 133.031318 198.947726 
L 141.478543 197.971496 
L 149.925768 197.006318 
L 158.372993 196.052093 
L 166.820217 195.108874 
L 175.267442 194.17629 
L 183.714667 193.254136 
L 192.161892 192.334926 
L 200.609117 191.389413 
L 209.056341 190.454487 
L 217.503566 189.530049 
L 225.950791 188.615934 
L 234.398016 187.71201 
L 242.84524 186.818102 
L 251.292465 185.93411 
L 259.73969 185.059929 
L 268.186915 184.195424 
L 276.63414 183.340449 
L 285.081364 182.494844 
L 293.528589 181.648782 
L 301.975814 180.780484 
L 310.423039 179.921675 
L 318.870263 179.072243 
L 327.317488 178.232035 
L 335.764713 177.400863 
L 344.211938 176.578752 
L 352.659162 175.765506 
L 361.106387 174.960997 
L 369.553612 174.165086 
L 378.000837 173.377869 
L 386.448062 172.599103 
L 394.895286 171.828605 
L 403.342511 171.066317 
L 411.789736 170.293428 
L 420.236961 169.509563 
L 428.684185 168.734028 
L 437.13141 167.966674 
L 445.578635 167.207452 
L 454.02586 166.456232 
L 462.473085 165.712903 
L 470.920309 164.9774 
L 479.367534 164.249637 
L 487.814759 163.529493 
L 496.261984 162.816866 
L 504.709208 162.111716 
L 513.156433 161.413939 
L 521.603658 160.723404 
L 530.050883 160.040023 
L 538.498107 159.363731 
L 546.945332 158.681615 
L 555.392557 157.985117 
L 563.839782 157.295761 
L 572.287007 156.613517 
L 580.734231 155.938377 
L 589.181456 155.270128 
L 597.628681 154.608688 
L 606.075906 153.954 
L 614.52313 153.306029 
L 622.970355 152.664687 
L 631.41758 152.029864 
L 639.864805 151.401493 
L 648.31203 150.779521 
L 656.759254 150.163827 
L 665.206479 149.554392 
L 673.653704 148.951145 
L 682.100929 148.353987 
L 690.548153 147.76282 
L 698.995378 147.1776 
L 707.442603 146.598152 
L 715.889828 145.994585 
L 724.337052 145.397046 
L 732.784277 144.805478 
L 741.231502 144.21984 
L 749.678727 143.640043 
L 758.125952 143.06604 
L 766.573176 142.497727 
L 775.020401 141.935057 
L 783.467626 141.377993 
L 791.914851 140.826443 
L 800.362075 140.280338 
L 808.8093 139.739629 
L 817.256525 139.204274 
L 825.70375 138.674181 
L 834.150975 138.149331 
L 842.598199 137.629647 
L 851.045424 137.115081 
L 859.492649 136.605548 
L 867.939874 136.101002 
L 876.387098 135.601403 
L 884.834323 135.106729 
L 893.281548 134.616876 
" clip-path="url(#pb64c9ff127)" style="fill: none; stroke: #6b6ecf; stroke-width: 2; stroke-linecap: round"/>
   </g>
   <g id="line2d_39">
    <path d="M 48.559071 433.143603 
L 57.006295 431.362763 
L 65.45352 429.579302 
L 73.900745 427.787539 
L 82.34797 425.994222 
L 90.795195 424.199131 
L 99.242419 422.402241 
L 107.689644 420.603501 
L 116.136869 418.803152 
L 124.584094 417.001061 
L 133.031318 415.198066 
L 141.478543 413.394234 
L 149.925768 411.589807 
L 158.372993 409.785677 
L 166.820217 407.982573 
L 175.267442 406.180804 
L 183.714667 404.374374 
L 192.161892 402.566977 
L 200.609117 400.762311 
L 209.056341 398.961346 
L 217.503566 397.165643 
L 225.950791 395.361513 
L 234.398016 393.560258 
L 242.84524 391.766274 
L 251.292465 389.976025 
L 259.73969 388.176919 
L 268.186915 386.388017 
L 276.63414 384.606566 
L 285.081364 382.813627 
L 293.528589 381.034747 
L 301.975814 379.256732 
L 310.423039 377.475972 
L 318.870263 375.714694 
L 327.317488 373.933994 
L 335.764713 372.173614 
L 344.211938 370.408047 
L 352.659162 368.650731 
L 361.106387 366.897999 
L 369.553612 365.144988 
L 378.000837 363.403531 
L 386.448062 361.657589 
L 394.895286 359.925324 
L 403.342511 358.188847 
L 411.789736 356.464088 
L 420.236961 354.740121 
L 428.684185 353.021402 
L 437.13141 351.313198 
L 445.578635 349.598842 
L 454.02586 347.9103 
L 462.473085 346.198717 
L 470.920309 344.517336 
L 479.367534 342.823836 
L 487.814759 341.143288 
L 496.261984 339.477738 
L 504.709208 337.796405 
L 513.156433 336.143693 
L 521.603658 334.480765 
L 530.050883 332.825747 
L 538.498107 331.19821 
L 546.945332 329.542143 
L 555.392557 327.910243 
L 563.839782 326.298333 
L 572.287007 324.660745 
L 580.734231 323.050119 
L 589.181456 321.456468 
L 597.628681 319.838429 
L 606.075906 318.245997 
L 614.52313 316.67711 
L 622.970355 315.075848 
L 631.41758 313.499626 
L 639.864805 311.947895 
L 648.31203 310.376429 
L 656.759254 308.814207 
L 665.206479 307.275919 
L 673.653704 305.744332 
L 682.100929 304.193974 
L 690.548153 302.666934 
L 698.995378 301.162694 
L 707.442603 299.644121 
L 715.889828 298.126487 
L 724.337052 296.63127 
L 732.784277 295.157968 
L 741.231502 293.661596 
L 749.678727 292.173366 
L 758.125952 290.706602 
L 766.573176 289.260974 
L 775.020401 287.79743 
L 783.467626 286.335602 
L 791.914851 284.894412 
L 800.362075 283.473533 
L 808.8093 282.054799 
L 817.256525 280.616404 
L 825.70375 279.198072 
L 834.150975 277.799322 
L 842.598199 276.419845 
L 851.045424 275.021184 
L 859.492649 273.622878 
L 867.939874 272.243736 
L 876.387098 270.883274 
L 884.834323 269.541107 
L 893.281548 268.177093 
" clip-path="url(#pb64c9ff127)" style="fill: none; stroke: #637939; stroke-width: 2; stroke-linecap: round"/>
   </g>
   <g id="line2d_40">
    <path d="M 48.559071 499.377739 
L 57.006295 498.135589 
L 65.45352 496.868749 
L 73.900745 495.578589 
L 82.34797 494.265887 
L 90.795195 492.930746 
L 99.242419 491.574318 
L 107.689644 490.197115 
L 116.136869 488.800334 
L 124.584094 487.383007 
L 133.031318 485.947507 
L 141.478543 484.493855 
L 149.925768 483.022782 
L 158.372993 481.534477 
L 166.820217 480.029983 
L 175.267442 478.50904 
L 183.714667 476.973222 
L 192.161892 475.422893 
L 200.609117 473.858125 
L 209.056341 472.280213 
L 217.503566 470.689087 
L 225.950791 469.08439 
L 234.398016 467.469043 
L 242.84524 465.841044 
L 251.292465 464.201426 
L 259.73969 462.552083 
L 268.186915 460.892618 
L 276.63414 459.223219 
L 285.081364 457.544116 
L 293.528589 455.855778 
L 301.975814 454.15942 
L 310.423039 452.455514 
L 318.870263 450.74563 
L 327.317488 449.023802 
L 335.764713 447.298176 
L 344.211938 445.565845 
L 352.659162 443.826498 
L 361.106387 442.082485 
L 369.553612 440.33262 
L 378.000837 438.57636 
L 386.448062 436.819273 
L 394.895286 435.053729 
L 403.342511 433.284181 
L 411.789736 431.512868 
L 420.236961 429.739849 
L 428.684185 427.961759 
L 437.13141 426.178709 
L 445.578635 424.3938 
L 454.02586 422.607212 
L 462.473085 420.818961 
L 470.920309 419.029048 
L 479.367534 417.237851 
L 487.814759 415.44554 
L 496.261984 413.652697 
L 504.709208 411.859405 
L 513.156433 410.066548 
L 521.603658 408.274929 
L 530.050883 406.479213 
L 538.498107 404.681853 
L 546.945332 402.886519 
L 555.392557 401.09372 
L 563.839782 399.305364 
L 572.287007 397.515136 
L 580.734231 395.720757 
L 589.181456 393.932368 
L 597.628681 392.151783 
L 606.075906 390.363687 
L 614.52313 388.57791 
L 622.970355 386.803166 
L 631.41758 385.023069 
L 639.864805 383.244398 
L 648.31203 381.480499 
L 656.759254 379.703254 
L 665.206479 377.937838 
L 673.653704 376.178145 
L 682.100929 374.412139 
L 690.548153 372.667803 
L 698.995378 370.902567 
L 707.442603 369.161805 
L 715.889828 367.409134 
L 724.337052 365.673587 
L 732.784277 363.931784 
L 741.231502 362.203507 
L 749.678727 360.470902 
L 758.125952 358.752591 
L 766.573176 357.027381 
L 775.020401 355.322128 
L 783.467626 353.602679 
L 791.914851 351.913804 
L 800.362075 350.198675 
L 808.8093 348.513937 
L 817.256525 346.817423 
L 825.70375 345.135031 
L 834.150975 343.462127 
L 842.598199 341.780199 
L 851.045424 340.127285 
L 859.492649 338.453047 
L 867.939874 336.798934 
L 876.387098 335.157905 
L 884.834323 333.501131 
L 893.281548 331.871932 
" clip-path="url(#pb64c9ff127)" style="fill: none; stroke: #b5cf6b; stroke-width: 2; stroke-linecap: round"/>
   </g>
   <g id="line2d_41">
    <path d="M 48.559071 520.75337 
L 57.006295 520.521425 
L 65.45352 520.239089 
L 73.900745 519.907565 
L 82.34797 519.528061 
L 90.795195 519.101739 
L 99.242419 518.62972 
L 107.689644 518.113151 
L 116.136869 517.55312 
L 124.584094 516.950661 
L 133.031318 516.306962 
L 141.478543 515.623001 
L 149.925768 514.89976 
L 158.372993 514.138272 
L 166.820217 513.33958 
L 175.267442 512.504541 
L 183.714667 511.634134 
L 192.161892 510.729464 
L 200.609117 509.791192 
L 209.056341 508.820331 
L 217.503566 507.817744 
L 225.950791 506.784388 
L 234.398016 505.721096 
L 242.84524 504.628532 
L 251.292465 503.507542 
L 259.73969 502.359315 
L 268.186915 501.184112 
L 276.63414 499.982794 
L 285.081364 498.756403 
L 293.528589 497.505512 
L 301.975814 496.230892 
L 310.423039 494.933205 
L 318.870263 493.613483 
L 327.317488 492.271851 
L 335.764713 490.909331 
L 344.211938 489.525911 
L 352.659162 488.123604 
L 361.106387 486.701656 
L 369.553612 485.261479 
L 378.000837 483.803756 
L 386.448062 482.329013 
L 394.895286 480.836865 
L 403.342511 479.329233 
L 411.789736 477.806432 
L 420.236961 476.268626 
L 428.684185 474.715846 
L 437.13141 473.148981 
L 445.578635 471.569043 
L 454.02586 469.977939 
L 462.473085 468.371619 
L 470.920309 466.755972 
L 479.367534 465.12744 
L 487.814759 463.488018 
L 496.261984 461.838737 
L 504.709208 460.179414 
L 513.156433 458.510567 
L 521.603658 456.832646 
L 530.050883 455.146057 
L 538.498107 453.451833 
L 546.945332 451.750848 
L 555.392557 450.038304 
L 563.839782 448.32137 
L 572.287007 446.598763 
L 580.734231 444.866903 
L 589.181456 443.132744 
L 597.628681 441.389184 
L 606.075906 439.642776 
L 614.52313 437.892273 
L 622.970355 436.133539 
L 631.41758 434.373479 
L 639.864805 432.611632 
L 648.31203 430.841839 
L 656.759254 429.068763 
L 665.206479 427.293777 
L 673.653704 425.516929 
L 682.100929 423.737886 
L 690.548153 421.956689 
L 698.995378 420.173511 
L 707.442603 418.388554 
L 715.889828 416.601719 
L 724.337052 414.813774 
L 732.784277 413.024462 
L 741.231502 411.234944 
L 749.678727 409.445326 
L 758.125952 407.656563 
L 766.573176 405.869293 
L 775.020401 404.084726 
L 783.467626 402.292212 
L 791.914851 400.501669 
L 800.362075 398.714988 
L 808.8093 396.933415 
L 817.256525 395.149849 
L 825.70375 393.362633 
L 834.150975 391.582802 
L 842.598199 389.811996 
L 851.045424 388.026873 
L 859.492649 386.252147 
L 867.939874 384.488762 
L 876.387098 382.710121 
L 884.834323 380.946052 
L 893.281548 379.184766 
" clip-path="url(#pb64c9ff127)" style="fill: none; stroke: #8c6d31; stroke-width: 2; stroke-linecap: round"/>
   </g>
   <g id="line2d_42">
    <path d="M 48.559071 521.781022 
L 57.006295 521.235011 
L 65.45352 521.064406 
L 73.900745 520.938858 
L 82.34797 520.760433 
L 90.795195 520.530386 
L 99.242419 520.249935 
L 107.689644 519.920306 
L 116.136869 519.54267 
L 124.584094 519.118162 
L 133.031318 518.648017 
L 141.478543 518.133305 
L 149.925768 517.575092 
L 158.372993 516.974501 
L 166.820217 516.332641 
L 175.267442 515.650412 
L 183.714667 514.92894 
L 192.161892 514.169308 
L 200.609117 513.372281 
L 209.056341 512.539005 
L 217.503566 511.670416 
L 225.950791 510.767398 
L 234.398016 509.830861 
L 242.84524 508.861704 
L 251.292465 507.860891 
L 259.73969 506.829164 
L 268.186915 505.767409 
L 276.63414 504.676535 
L 285.081364 503.557417 
L 293.528589 502.410392 
L 301.975814 501.236921 
L 310.423039 500.037308 
L 318.870263 498.812601 
L 327.317488 497.56339 
L 335.764713 496.290192 
L 344.211938 494.994155 
L 352.659162 493.675478 
L 361.106387 492.335473 
L 369.553612 490.9742 
L 378.000837 489.592519 
L 386.448062 488.191825 
L 394.895286 486.771423 
L 403.342511 485.332682 
L 411.789736 483.876471 
L 420.236961 482.402371 
L 428.684185 480.912128 
L 437.13141 479.40552 
L 445.578635 477.883872 
L 454.02586 476.347263 
L 462.473085 474.795848 
L 470.920309 473.230468 
L 479.367534 471.652198 
L 487.814759 470.061508 
L 496.261984 468.457242 
L 504.709208 466.842017 
L 513.156433 465.215906 
L 521.603658 463.577354 
L 530.050883 461.928947 
L 538.498107 460.270745 
L 546.945332 458.603075 
L 555.392557 456.926021 
L 563.839782 455.240899 
L 572.287007 453.54822 
L 580.734231 451.846787 
L 589.181456 450.136116 
L 597.628681 448.420941 
L 606.075906 446.698082 
L 614.52313 444.968083 
L 622.970355 443.233911 
L 631.41758 441.492549 
L 639.864805 439.745953 
L 648.31203 437.998165 
L 656.759254 436.239483 
L 665.206479 434.479559 
L 673.653704 432.718151 
L 682.100929 430.951192 
L 690.548153 429.178403 
L 698.995378 427.403874 
L 707.442603 425.627522 
L 715.889828 423.848961 
L 724.337052 422.068629 
L 732.784277 420.285961 
L 741.231502 418.501742 
L 749.678727 416.715725 
L 758.125952 414.928458 
L 766.573176 413.140161 
L 775.020401 411.351582 
L 783.467626 409.562965 
L 791.914851 407.775343 
L 800.362075 405.989366 
L 808.8093 404.203349 
L 817.256525 402.411333 
L 825.70375 400.622158 
L 834.150975 398.836808 
L 842.598199 397.056783 
L 851.045424 395.27114 
L 859.492649 393.485232 
L 867.939874 391.707067 
L 876.387098 389.934167 
L 884.834323 388.150882 
L 893.281548 386.378032 
" clip-path="url(#pb64c9ff127)" style="fill: none; stroke: #e7cb94; stroke-width: 2; stroke-linecap: round"/>
   </g>
   <g id="line2d_43">
    <path d="M 48.559071 522.88982 
L 57.006295 521.578401 
L 65.45352 521.171973 
L 73.900745 521.037764 
L 82.34797 520.898762 
L 90.795195 520.70721 
L 99.242419 520.464344 
L 107.689644 520.171403 
L 116.136869 519.82958 
L 124.584094 519.440022 
L 133.031318 519.003977 
L 141.478543 518.522535 
L 149.925768 517.996775 
L 158.372993 517.427835 
L 166.820217 516.816833 
L 175.267442 516.164702 
L 183.714667 515.472556 
L 192.161892 514.741518 
L 200.609117 513.972345 
L 209.056341 513.166232 
L 217.503566 512.324018 
L 225.950791 511.446727 
L 234.398016 510.535321 
L 242.84524 509.590557 
L 251.292465 508.613383 
L 259.73969 507.604858 
L 268.186915 506.56554 
L 276.63414 505.496538 
L 285.081364 504.398594 
L 293.528589 503.272314 
L 301.975814 502.118865 
L 310.423039 500.938707 
L 318.870263 499.733118 
L 327.317488 498.502154 
L 335.764713 497.246634 
L 344.211938 495.967781 
L 352.659162 494.666133 
L 361.106387 493.34253 
L 369.553612 491.997064 
L 378.000837 490.630992 
L 386.448062 489.244182 
L 394.895286 487.838839 
L 403.342511 486.413661 
L 411.789736 484.97053 
L 420.236961 483.510302 
L 428.684185 482.031762 
L 437.13141 480.538169 
L 445.578635 479.027306 
L 454.02586 477.501721 
L 462.473085 475.961328 
L 470.920309 474.406687 
L 479.367534 472.838553 
L 487.814759 471.257756 
L 496.261984 469.662481 
L 504.709208 468.057253 
L 513.156433 466.437741 
L 521.603658 464.8084 
L 530.050883 463.168929 
L 538.498107 461.519198 
L 546.945332 459.858774 
L 555.392557 458.188886 
L 563.839782 456.509753 
L 572.287007 454.82133 
L 580.734231 453.125003 
L 589.181456 451.421867 
L 597.628681 449.713305 
L 606.075906 447.993079 
L 614.52313 446.269762 
L 622.970355 444.538401 
L 631.41758 442.802776 
L 639.864805 441.059391 
L 648.31203 439.31579 
L 656.759254 437.560397 
L 665.206479 435.803983 
L 673.653704 434.046256 
L 682.100929 432.280075 
L 690.548153 430.51038 
L 698.995378 428.738911 
L 707.442603 426.965524 
L 715.889828 425.189774 
L 724.337052 423.412027 
L 732.784277 421.631655 
L 741.231502 419.849362 
L 749.678727 418.064826 
L 758.125952 416.27851 
L 766.573176 414.490546 
L 775.020401 412.701583 
L 783.467626 410.911766 
L 791.914851 409.122016 
L 800.362075 407.332866 
L 808.8093 405.545017 
L 817.256525 403.759632 
L 825.70375 401.975558 
L 834.150975 400.18399 
L 842.598199 398.396151 
L 851.045424 396.613388 
L 859.492649 394.837127 
L 867.939874 393.048776 
L 876.387098 391.267244 
L 884.834323 389.495175 
L 893.281548 387.717174 
" clip-path="url(#pb64c9ff127)" style="fill: none; stroke: #ad494a; stroke-width: 2; stroke-linecap: round"/>
   </g>
   <g id="line2d_44">
    <path d="M 48.559071 524.039055 
L 57.006295 521.932544 
L 65.45352 521.28214 
L 73.900745 521.079413 
L 82.34797 520.961104 
L 90.795195 520.790563 
L 99.242419 520.568212 
L 107.689644 520.295301 
L 116.136869 519.973028 
L 124.584094 519.602554 
L 133.031318 519.185129 
L 141.478543 518.721855 
L 149.925768 518.213818 
L 158.372993 517.662167 
L 166.820217 517.068021 
L 175.267442 516.432322 
L 183.714667 515.756201 
L 192.161892 515.040784 
L 200.609117 514.286842 
L 209.056341 513.495545 
L 217.503566 512.66779 
L 225.950791 511.804585 
L 234.398016 510.906832 
L 242.84524 509.975468 
L 251.292465 509.011289 
L 259.73969 508.015344 
L 268.186915 506.988417 
L 276.63414 505.931361 
L 285.081364 504.84492 
L 293.528589 503.729951 
L 301.975814 502.587507 
L 310.423039 501.418024 
L 318.870263 500.222759 
L 327.317488 499.001714 
L 335.764713 497.756418 
L 344.211938 496.486836 
L 352.659162 495.194503 
L 361.106387 493.87946 
L 369.553612 492.54291 
L 378.000837 491.185093 
L 386.448062 489.806589 
L 394.895286 488.408531 
L 403.342511 486.991173 
L 411.789736 485.555381 
L 420.236961 484.101779 
L 428.684185 482.631183 
L 437.13141 481.143342 
L 445.578635 479.640157 
L 454.02586 478.120269 
L 462.473085 476.585715 
L 470.920309 475.036925 
L 479.367534 473.474507 
L 487.814759 471.898395 
L 496.261984 470.308577 
L 504.709208 468.708319 
L 513.156433 467.093434 
L 521.603658 465.468935 
L 530.050883 463.834292 
L 538.498107 462.187314 
L 546.945332 460.530497 
L 555.392557 458.864172 
L 563.839782 457.189398 
L 572.287007 455.506413 
L 580.734231 453.813371 
L 589.181456 452.111888 
L 597.628681 450.40442 
L 606.075906 448.691483 
L 614.52313 446.96731 
L 622.970355 445.241449 
L 631.41758 443.505237 
L 639.864805 441.768276 
L 648.31203 440.020292 
L 656.759254 438.271722 
L 665.206479 436.517537 
L 673.653704 434.756663 
L 682.100929 432.994227 
L 690.548153 431.229906 
L 698.995378 429.46001 
L 707.442603 427.68519 
L 715.889828 425.908395 
L 724.337052 424.129992 
L 732.784277 422.349344 
L 741.231502 420.567159 
L 749.678727 418.783107 
L 758.125952 416.997652 
L 766.573176 415.210924 
L 775.020401 413.423573 
L 783.467626 411.635744 
L 791.914851 409.848359 
L 800.362075 408.061952 
L 808.8093 406.277065 
L 817.256525 404.484805 
L 825.70375 402.694466 
L 834.150975 400.906891 
L 842.598199 399.123428 
L 851.045424 397.343228 
L 859.492649 395.553489 
L 867.939874 393.769948 
L 876.387098 391.994029 
L 884.834323 390.215365 
L 893.281548 388.434471 
" clip-path="url(#pb64c9ff127)" style="fill: none; stroke: #e7969c; stroke-width: 2; stroke-linecap: round"/>
   </g>
   <g id="line2d_45">
    <path d="M 48.559071 525.203691 
L 57.006295 522.290329 
L 65.45352 521.393101 
L 73.900745 521.114149 
L 82.34797 520.998714 
L 90.795195 520.842625 
L 99.242419 520.634386 
L 107.689644 520.375252 
L 116.136869 520.066428 
L 124.584094 519.709083 
L 133.031318 519.304469 
L 141.478543 518.853694 
L 149.925768 518.357852 
L 158.372993 517.8181 
L 166.820217 517.235545 
L 175.267442 516.611171 
L 183.714667 515.946077 
L 192.161892 515.241407 
L 200.609117 514.497943 
L 209.056341 513.716863 
L 217.503566 512.89905 
L 225.950791 512.04553 
L 234.398016 511.157247 
L 242.84524 510.235007 
L 251.292465 509.279764 
L 259.73969 508.29252 
L 268.186915 507.274072 
L 276.63414 506.225232 
L 285.081364 505.146778 
L 293.528589 504.039743 
L 301.975814 502.904925 
L 310.423039 501.742661 
L 318.870263 500.554542 
L 327.317488 499.340368 
L 335.764713 498.101728 
L 344.211938 496.838713 
L 352.659162 495.552649 
L 361.106387 494.243892 
L 369.553612 492.912963 
L 378.000837 491.560928 
L 386.448062 490.188208 
L 394.895286 488.796072 
L 403.342511 487.383655 
L 411.789736 485.952882 
L 420.236961 484.504235 
L 428.684185 483.038366 
L 437.13141 481.555182 
L 445.578635 480.056086 
L 454.02586 478.540583 
L 462.473085 477.010236 
L 470.920309 475.465344 
L 479.367534 473.906364 
L 487.814759 472.334539 
L 496.261984 470.748631 
L 504.709208 469.150176 
L 513.156433 467.540114 
L 521.603658 465.919188 
L 530.050883 464.285353 
L 538.498107 462.641676 
L 546.945332 460.988177 
L 555.392557 459.324612 
L 563.839782 457.651909 
L 572.287007 455.970175 
L 580.734231 454.280382 
L 589.181456 452.583471 
L 597.628681 450.877673 
L 606.075906 449.16344 
L 614.52313 447.445346 
L 622.970355 445.717593 
L 631.41758 443.986181 
L 639.864805 442.246739 
L 648.31203 440.505758 
L 656.759254 438.754338 
L 665.206479 437.002085 
L 673.653704 435.246075 
L 682.100929 433.481696 
L 690.548153 431.715709 
L 698.995378 429.947899 
L 707.442603 428.178066 
L 715.889828 426.403175 
L 724.337052 424.62427 
L 732.784277 422.843383 
L 741.231502 421.061221 
L 749.678727 419.277454 
L 758.125952 417.492543 
L 766.573176 415.706617 
L 775.020401 413.920329 
L 783.467626 412.133819 
L 791.914851 410.348015 
L 800.362075 408.558126 
L 808.8093 406.766822 
L 817.256525 404.976748 
L 825.70375 403.188851 
L 834.150975 401.403979 
L 842.598199 399.623279 
L 851.045424 397.832148 
L 859.492649 396.045692 
L 867.939874 394.2657 
L 876.387098 392.489785 
L 884.834323 390.704232 
L 893.281548 388.92746 
" clip-path="url(#pb64c9ff127)" style="fill: none; stroke: #a55194; stroke-width: 2; stroke-linecap: round"/>
   </g>
   <g id="line2d_46">
    <path d="M 48.559071 526.377154 
L 57.006295 522.650024 
L 65.45352 521.504408 
L 73.900745 521.148917 
L 82.34797 521.024545 
L 90.795195 520.879477 
L 99.242419 520.682001 
L 107.689644 520.433375 
L 116.136869 520.13481 
L 124.584094 519.787478 
L 133.031318 519.392635 
L 141.478543 518.951395 
L 149.925768 518.464858 
L 158.372993 517.934175 
L 166.820217 517.36048 
L 175.267442 516.744727 
L 183.714667 516.088059 
L 192.161892 515.391581 
L 200.609117 514.656134 
L 209.056341 513.882829 
L 217.503566 513.072598 
L 225.950791 512.226472 
L 234.398016 511.345359 
L 242.84524 510.430134 
L 251.292465 509.481744 
L 259.73969 508.501205 
L 268.186915 507.489092 
L 276.63414 506.446591 
L 285.081364 505.374268 
L 293.528589 504.273143 
L 301.975814 503.144019 
L 310.423039 501.987471 
L 318.870263 500.804654 
L 327.317488 499.596053 
L 335.764713 498.362385 
L 344.211938 497.104494 
L 352.659162 495.823222 
L 361.106387 494.519298 
L 369.553612 493.19274 
L 378.000837 491.845118 
L 386.448062 490.476702 
L 394.895286 489.088574 
L 403.342511 487.680269 
L 411.789736 486.25348 
L 420.236961 484.808546 
L 428.684185 483.34595 
L 437.13141 481.867267 
L 445.578635 480.370425 
L 454.02586 478.858835 
L 462.473085 477.332081 
L 470.920309 475.79033 
L 479.367534 474.233895 
L 487.814759 472.663844 
L 496.261984 471.081416 
L 504.709208 469.485783 
L 513.156433 467.878022 
L 521.603658 466.258448 
L 530.050883 464.628906 
L 538.498107 462.987749 
L 546.945332 461.33562 
L 555.392557 459.673826 
L 563.839782 458.003305 
L 572.287007 456.324167 
L 580.734231 454.637005 
L 589.181456 452.938988 
L 597.628681 451.234191 
L 606.075906 449.524102 
L 614.52313 447.805194 
L 622.970355 446.079675 
L 631.41758 444.349943 
L 639.864805 442.611453 
L 648.31203 440.869733 
L 656.759254 439.122914 
L 665.206479 437.368674 
L 673.653704 435.61348 
L 682.100929 433.853876 
L 690.548153 432.086588 
L 698.995378 430.317684 
L 707.442603 428.546964 
L 715.889828 426.773919 
L 724.337052 424.998852 
L 732.784277 423.220393 
L 741.231502 421.438223 
L 749.678727 419.654646 
L 758.125952 417.870124 
L 766.573176 416.084785 
L 775.020401 414.299281 
L 783.467626 412.510499 
L 791.914851 410.720451 
L 800.362075 408.930206 
L 808.8093 407.14035 
L 817.256525 405.351917 
L 825.70375 403.56586 
L 834.150975 401.783025 
L 842.598199 399.99378 
L 851.045424 398.204931 
L 859.492649 396.420956 
L 867.939874 394.643647 
L 876.387098 392.859534 
L 884.834323 391.076898 
L 893.281548 389.303246 
" clip-path="url(#pb64c9ff127)" style="fill: none; stroke: #de9ed6; stroke-width: 2; stroke-linecap: round"/>
   </g>
   <g id="patch_3">
    <path d="M 48.559071 521.153031 
L 48.559071 51.564121 
" style="fill: none"/>
   </g>
   <g id="patch_4">
    <path d="M 935.517672 521.153031 
L 935.517672 51.564121 
" style="fill: none"/>
   </g>
   <g id="patch_5">
    <path d="M 48.559071 521.153031 
L 935.517672 521.153031 
" style="fill: none"/>
   </g>
   <g id="patch_6">
    <path d="M 48.559071 51.564121 
L 935.517672 51.564121 
" style="fill: none"/>
   </g>
   <g id="patch_7">
    <path d="M 470.920309 80.64285 
Q 470.920309 273.86404 470.920309 465.408179 
" style="fill: none; stroke: #000000; stroke-width: 1.5; stroke-linecap: round"/>
    <path d="M 474.120309 459.008179 
L 470.920309 465.408179 
L 467.720309 459.008179 
" style="fill: none; stroke: #000000; stroke-width: 1.5; stroke-linecap: round"/>
   </g>
   <g id="text_20">
    <!-- Time -->
    <g style="fill: #262626" transform="translate(492.038371 465.597585) scale(0.18 -0.18)">
     <defs>
      <path id="CMR17-54" d="M 3981 4326 
L 288 4326 
L 179 2918 
L 294 2918 
C 378 3976 467 4160 1453 4160 
C 1568 4160 1754 4160 1805 4154 
C 1926 4135 1926 4058 1926 3912 
L 1926 459 
C 1926 230 1907 160 1376 160 
L 1197 160 
L 1197 0 
C 1504 0 1824 0 2138 0 
C 2451 0 2771 0 3078 0 
L 3078 160 
L 2899 160 
C 2368 160 2349 230 2349 459 
L 2349 3912 
C 2349 4052 2349 4129 2464 4154 
C 2515 4160 2701 4160 2816 4160 
C 3795 4160 3891 3976 3974 2918 
L 4090 2918 
L 3981 4326 
z
" transform="scale(0.015625)"/>
      <path id="CMR17-69" d="M 992 3909 
C 992 4049 877 4170 730 4170 
C 589 4170 467 4056 467 3909 
C 467 3769 582 3648 730 3648 
C 870 3648 992 3763 992 3909 
z
M 243 2706 
L 243 2541 
C 602 2541 653 2502 653 2197 
L 653 427 
C 653 184 627 153 218 153 
L 218 -13 
C 371 0 646 0 806 0 
C 960 0 1222 0 1370 -13 
L 1370 153 
C 992 153 979 191 979 420 
L 979 2776 
L 243 2706 
z
" transform="scale(0.015625)"/>
      <path id="CMR17-6d" d="M 4326 1933 
C 4326 2252 4269 2790 3507 2790 
C 3072 2790 2771 2496 2656 2151 
L 2650 2151 
C 2573 2676 2195 2790 1837 2790 
C 1331 2790 1069 2400 973 2144 
L 966 2144 
L 966 2790 
L 211 2720 
L 211 2554 
C 589 2554 646 2515 646 2208 
L 646 428 
C 646 184 621 153 211 153 
L 211 -13 
C 365 0 646 0 813 0 
C 979 0 1267 0 1421 -13 
L 1421 153 
C 1011 153 986 178 986 428 
L 986 1658 
C 986 2247 1344 2688 1792 2688 
C 2266 2688 2317 2266 2317 1958 
L 2317 428 
C 2317 184 2291 153 1882 153 
L 1882 -13 
C 2035 0 2317 0 2483 0 
C 2650 0 2938 0 3091 -13 
L 3091 153 
C 2682 153 2656 178 2656 428 
L 2656 1658 
C 2656 2247 3014 2688 3462 2688 
C 3936 2688 3987 2266 3987 1958 
L 3987 428 
C 3987 184 3962 153 3552 153 
L 3552 -13 
C 3706 0 3987 0 4154 0 
C 4320 0 4608 0 4762 -13 
L 4762 153 
C 4352 153 4326 178 4326 428 
L 4326 1933 
z
" transform="scale(0.015625)"/>
      <path id="CMR17-65" d="M 2438 1472 
C 2464 1498 2464 1511 2464 1576 
C 2464 2238 2118 2816 1389 2816 
C 710 2816 173 2169 173 1383 
C 173 551 781 -64 1459 -64 
C 2176 -64 2458 607 2458 740 
C 2458 784 2419 784 2406 784 
C 2362 784 2355 771 2330 696 
C 2189 265 1837 51 1504 51 
C 1229 51 954 203 781 480 
C 582 803 582 1176 582 1472 
L 2438 1472 
z
M 589 1568 
C 634 2505 1126 2714 1382 2714 
C 1818 2714 2112 2297 2118 1568 
L 589 1568 
z
" transform="scale(0.015625)"/>
     </defs>
     <use xlink:href="#CMR17-54" transform="scale(0.996264)"/>
     <use xlink:href="#CMR17-69" transform="translate(66.509881 0) scale(0.996264)"/>
     <use xlink:href="#CMR17-6d" transform="translate(91.380939 0) scale(0.996264)"/>
     <use xlink:href="#CMR17-65" transform="translate(168.300529 0) scale(0.996264)"/>
    </g>
   </g>
   <g id="legend_1">
    <g id="line2d_47">
     <path d="M 948.117672 197.198434 
L 962.117672 197.198434 
L 976.117672 197.198434 
" style="fill: none; stroke: #393b79; stroke-width: 2; stroke-linecap: round"/>
    </g>
    <g id="text_21">
     <!-- t = 0.00 -->
     <g style="fill: #262626" transform="translate(987.317672 202.098434) scale(0.14 -0.14)">
      <defs>
       <path id="CMR17-74" d="M 966 2560 
L 1862 2560 
L 1862 2725 
L 966 2725 
L 966 3904 
L 851 3904 
C 838 3245 614 2668 70 2668 
L 70 2560 
L 627 2560 
L 627 771 
C 627 650 627 -64 1370 -64 
C 1747 -64 1965 306 1965 777 
L 1965 1140 
L 1850 1140 
L 1850 783 
C 1850 344 1677 51 1408 51 
C 1222 51 966 178 966 758 
L 966 2560 
z
" transform="scale(0.015625)"/>
       <path id="CMR17-3d" d="M 4115 2017 
C 4211 2017 4307 2017 4307 2125 
C 4307 2240 4198 2240 4090 2240 
L 512 2240 
C 403 2240 294 2240 294 2125 
C 294 2017 390 2017 486 2017 
L 4115 2017 
z
M 4090 896 
C 4198 896 4307 896 4307 1011 
C 4307 1119 4211 1119 4115 1119 
L 486 1119 
C 390 1119 294 1119 294 1011 
C 294 896 403 896 512 896 
L 4090 896 
z
" transform="scale(0.015625)"/>
       <path id="CMR17-2e" d="M 1062 261 
C 1062 420 934 522 800 522 
C 672 522 538 420 538 261 
C 538 102 666 0 800 0 
C 928 0 1062 102 1062 261 
z
" transform="scale(0.015625)"/>
      </defs>
      <use xlink:href="#CMR17-74" transform="scale(0.996264)"/>
      <use xlink:href="#CMR17-3d" transform="translate(65.356734 0) scale(0.996264)"/>
      <use xlink:href="#CMR17-30" transform="translate(167.147489 0) scale(0.996264)"/>
      <use xlink:href="#CMR17-2e" transform="translate(212.837966 0) scale(0.996264)"/>
      <use xlink:href="#CMR17-30" transform="translate(237.709025 0) scale(0.996264)"/>
      <use xlink:href="#CMR17-30" transform="translate(283.399502 0) scale(0.996264)"/>
     </g>
    </g>
    <g id="line2d_48">
     <path d="M 948.117672 216.710462 
L 962.117672 216.710462 
L 976.117672 216.710462 
" style="fill: none; stroke: #6b6ecf; stroke-width: 2; stroke-linecap: round"/>
    </g>
    <g id="text_22">
     <!-- t = 10.00 -->
     <g style="fill: #262626" transform="translate(987.317672 221.610462) scale(0.14 -0.14)">
      <use xlink:href="#CMR17-74" transform="scale(0.996264)"/>
      <use xlink:href="#CMR17-3d" transform="translate(65.356734 0) scale(0.996264)"/>
      <use xlink:href="#CMR17-31" transform="translate(167.147489 0) scale(0.996264)"/>
      <use xlink:href="#CMR17-30" transform="translate(212.837966 0) scale(0.996264)"/>
      <use xlink:href="#CMR17-2e" transform="translate(258.528443 0) scale(0.996264)"/>
      <use xlink:href="#CMR17-30" transform="translate(283.399502 0) scale(0.996264)"/>
      <use xlink:href="#CMR17-30" transform="translate(329.089979 0) scale(0.996264)"/>
     </g>
    </g>
    <g id="line2d_49">
     <path d="M 948.117672 236.222491 
L 962.117672 236.222491 
L 976.117672 236.222491 
" style="fill: none; stroke: #637939; stroke-width: 2; stroke-linecap: round"/>
    </g>
    <g id="text_23">
     <!-- t = 50.00 -->
     <g style="fill: #262626" transform="translate(987.317672 241.122491) scale(0.14 -0.14)">
      <use xlink:href="#CMR17-74" transform="scale(0.996264)"/>
      <use xlink:href="#CMR17-3d" transform="translate(65.356734 0) scale(0.996264)"/>
      <use xlink:href="#CMR17-35" transform="translate(167.147489 0) scale(0.996264)"/>
      <use xlink:href="#CMR17-30" transform="translate(212.837966 0) scale(0.996264)"/>
      <use xlink:href="#CMR17-2e" transform="translate(258.528443 0) scale(0.996264)"/>
      <use xlink:href="#CMR17-30" transform="translate(283.399502 0) scale(0.996264)"/>
      <use xlink:href="#CMR17-30" transform="translate(329.089979 0) scale(0.996264)"/>
     </g>
    </g>
    <g id="line2d_50">
     <path d="M 948.117672 255.734519 
L 962.117672 255.734519 
L 976.117672 255.734519 
" style="fill: none; stroke: #b5cf6b; stroke-width: 2; stroke-linecap: round"/>
    </g>
    <g id="text_24">
     <!-- t = 100.00 -->
     <g style="fill: #262626" transform="translate(987.317672 260.634519) scale(0.14 -0.14)">
      <use xlink:href="#CMR17-74" transform="scale(0.996264)"/>
      <use xlink:href="#CMR17-3d" transform="translate(65.356734 0) scale(0.996264)"/>
      <use xlink:href="#CMR17-31" transform="translate(167.147489 0) scale(0.996264)"/>
      <use xlink:href="#CMR17-30" transform="translate(212.837966 0) scale(0.996264)"/>
      <use xlink:href="#CMR17-30" transform="translate(258.528443 0) scale(0.996264)"/>
      <use xlink:href="#CMR17-2e" transform="translate(304.21892 0) scale(0.996264)"/>
      <use xlink:href="#CMR17-30" transform="translate(329.089979 0) scale(0.996264)"/>
      <use xlink:href="#CMR17-30" transform="translate(374.780456 0) scale(0.996264)"/>
     </g>
    </g>
    <g id="line2d_51">
     <path d="M 948.117672 275.246547 
L 962.117672 275.246547 
L 976.117672 275.246547 
" style="fill: none; stroke: #8c6d31; stroke-width: 2; stroke-linecap: round"/>
    </g>
    <g id="text_25">
     <!-- t = 250.00 -->
     <g style="fill: #262626" transform="translate(987.317672 280.146547) scale(0.14 -0.14)">
      <use xlink:href="#CMR17-74" transform="scale(0.996264)"/>
      <use xlink:href="#CMR17-3d" transform="translate(65.356734 0) scale(0.996264)"/>
      <use xlink:href="#CMR17-32" transform="translate(167.147489 0) scale(0.996264)"/>
      <use xlink:href="#CMR17-35" transform="translate(212.837966 0) scale(0.996264)"/>
      <use xlink:href="#CMR17-30" transform="translate(258.528443 0) scale(0.996264)"/>
      <use xlink:href="#CMR17-2e" transform="translate(304.21892 0) scale(0.996264)"/>
      <use xlink:href="#CMR17-30" transform="translate(329.089979 0) scale(0.996264)"/>
      <use xlink:href="#CMR17-30" transform="translate(374.780456 0) scale(0.996264)"/>
     </g>
    </g>
    <g id="line2d_52">
     <path d="M 948.117672 294.758576 
L 962.117672 294.758576 
L 976.117672 294.758576 
" style="fill: none; stroke: #e7cb94; stroke-width: 2; stroke-linecap: round"/>
    </g>
    <g id="text_26">
     <!-- t = 500.00 -->
     <g style="fill: #262626" transform="translate(987.317672 299.658576) scale(0.14 -0.14)">
      <use xlink:href="#CMR17-74" transform="scale(0.996264)"/>
      <use xlink:href="#CMR17-3d" transform="translate(65.356734 0) scale(0.996264)"/>
      <use xlink:href="#CMR17-35" transform="translate(167.147489 0) scale(0.996264)"/>
      <use xlink:href="#CMR17-30" transform="translate(212.837966 0) scale(0.996264)"/>
      <use xlink:href="#CMR17-30" transform="translate(258.528443 0) scale(0.996264)"/>
      <use xlink:href="#CMR17-2e" transform="translate(304.21892 0) scale(0.996264)"/>
      <use xlink:href="#CMR17-30" transform="translate(329.089979 0) scale(0.996264)"/>
      <use xlink:href="#CMR17-30" transform="translate(374.780456 0) scale(0.996264)"/>
     </g>
    </g>
    <g id="line2d_53">
     <path d="M 948.117672 314.270604 
L 962.117672 314.270604 
L 976.117672 314.270604 
" style="fill: none; stroke: #ad494a; stroke-width: 2; stroke-linecap: round"/>
    </g>
    <g id="text_27">
     <!-- t = 750.00 -->
     <g style="fill: #262626" transform="translate(987.317672 319.170604) scale(0.14 -0.14)">
      <use xlink:href="#CMR17-74" transform="scale(0.996264)"/>
      <use xlink:href="#CMR17-3d" transform="translate(65.356734 0) scale(0.996264)"/>
      <use xlink:href="#CMR17-37" transform="translate(167.147489 0) scale(0.996264)"/>
      <use xlink:href="#CMR17-35" transform="translate(212.837966 0) scale(0.996264)"/>
      <use xlink:href="#CMR17-30" transform="translate(258.528443 0) scale(0.996264)"/>
      <use xlink:href="#CMR17-2e" transform="translate(304.21892 0) scale(0.996264)"/>
      <use xlink:href="#CMR17-30" transform="translate(329.089979 0) scale(0.996264)"/>
      <use xlink:href="#CMR17-30" transform="translate(374.780456 0) scale(0.996264)"/>
     </g>
    </g>
    <g id="line2d_54">
     <path d="M 948.117672 333.782633 
L 962.117672 333.782633 
L 976.117672 333.782633 
" style="fill: none; stroke: #e7969c; stroke-width: 2; stroke-linecap: round"/>
    </g>
    <g id="text_28">
     <!-- t = 1000.00 -->
     <g style="fill: #262626" transform="translate(987.317672 338.682633) scale(0.14 -0.14)">
      <use xlink:href="#CMR17-74" transform="scale(0.996264)"/>
      <use xlink:href="#CMR17-3d" transform="translate(65.356734 0) scale(0.996264)"/>
      <use xlink:href="#CMR17-31" transform="translate(167.147489 0) scale(0.996264)"/>
      <use xlink:href="#CMR17-30" transform="translate(212.837966 0) scale(0.996264)"/>
      <use xlink:href="#CMR17-30" transform="translate(258.528443 0) scale(0.996264)"/>
      <use xlink:href="#CMR17-30" transform="translate(304.21892 0) scale(0.996264)"/>
      <use xlink:href="#CMR17-2e" transform="translate(349.909397 0) scale(0.996264)"/>
      <use xlink:href="#CMR17-30" transform="translate(374.780456 0) scale(0.996264)"/>
      <use xlink:href="#CMR17-30" transform="translate(420.470933 0) scale(0.996264)"/>
     </g>
    </g>
    <g id="line2d_55">
     <path d="M 948.117672 353.294661 
L 962.117672 353.294661 
L 976.117672 353.294661 
" style="fill: none; stroke: #a55194; stroke-width: 2; stroke-linecap: round"/>
    </g>
    <g id="text_29">
     <!-- t = 1250.00 -->
     <g style="fill: #262626" transform="translate(987.317672 358.194661) scale(0.14 -0.14)">
      <use xlink:href="#CMR17-74" transform="scale(0.996264)"/>
      <use xlink:href="#CMR17-3d" transform="translate(65.356734 0) scale(0.996264)"/>
      <use xlink:href="#CMR17-31" transform="translate(167.147489 0) scale(0.996264)"/>
      <use xlink:href="#CMR17-32" transform="translate(212.837966 0) scale(0.996264)"/>
      <use xlink:href="#CMR17-35" transform="translate(258.528443 0) scale(0.996264)"/>
      <use xlink:href="#CMR17-30" transform="translate(304.21892 0) scale(0.996264)"/>
      <use xlink:href="#CMR17-2e" transform="translate(349.909397 0) scale(0.996264)"/>
      <use xlink:href="#CMR17-30" transform="translate(374.780456 0) scale(0.996264)"/>
      <use xlink:href="#CMR17-30" transform="translate(420.470933 0) scale(0.996264)"/>
     </g>
    </g>
    <g id="line2d_56">
     <path d="M 948.117672 372.806689 
L 962.117672 372.806689 
L 976.117672 372.806689 
" style="fill: none; stroke: #de9ed6; stroke-width: 2; stroke-linecap: round"/>
    </g>
    <g id="text_30">
     <!-- t = 1500.00 -->
     <g style="fill: #262626" transform="translate(987.317672 377.706689) scale(0.14 -0.14)">
      <use xlink:href="#CMR17-74" transform="scale(0.996264)"/>
      <use xlink:href="#CMR17-3d" transform="translate(65.356734 0) scale(0.996264)"/>
      <use xlink:href="#CMR17-31" transform="translate(167.147489 0) scale(0.996264)"/>
      <use xlink:href="#CMR17-35" transform="translate(212.837966 0) scale(0.996264)"/>
      <use xlink:href="#CMR17-30" transform="translate(258.528443 0) scale(0.996264)"/>
      <use xlink:href="#CMR17-30" transform="translate(304.21892 0) scale(0.996264)"/>
      <use xlink:href="#CMR17-2e" transform="translate(349.909397 0) scale(0.996264)"/>
      <use xlink:href="#CMR17-30" transform="translate(374.780456 0) scale(0.996264)"/>
      <use xlink:href="#CMR17-30" transform="translate(420.470933 0) scale(0.996264)"/>
     </g>
    </g>
   </g>
  </g>
  <g id="text_31">
   <!-- permeability -->
   <g style="fill: #262626" transform="translate(492.111452 24.803515) scale(0.192 -0.192)">
    <defs>
     <path id="CMR17-70" d="M 1408 -1063 
C 998 -1063 973 -1037 973 -789 
L 973 402 
C 1158 134 1427 -38 1766 -38 
C 2406 -38 3053 523 3053 1388 
C 3053 2191 2496 2802 1837 2802 
C 1453 2802 1139 2592 960 2338 
L 960 2802 
L 198 2732 
L 198 2567 
C 576 2567 634 2528 634 2223 
L 634 -789 
C 634 -1031 608 -1063 198 -1063 
L 198 -1228 
C 352 -1216 634 -1216 800 -1216 
C 966 -1216 1254 -1216 1408 -1228 
L 1408 -1063 
z
M 973 2012 
C 973 2102 973 2235 1222 2471 
C 1254 2497 1472 2688 1792 2688 
C 2259 2688 2643 2108 2643 1382 
C 2643 656 2234 64 1728 64 
C 1498 64 1248 172 1056 472 
C 973 612 973 650 973 752 
L 973 2012 
z
" transform="scale(0.015625)"/>
     <path id="CMR17-72" d="M 960 1497 
C 960 2112 1222 2688 1702 2688 
C 1747 2688 1792 2682 1837 2662 
C 1837 2662 1696 2617 1696 2452 
C 1696 2298 1818 2234 1914 2234 
C 1990 2234 2131 2279 2131 2458 
C 2131 2663 1926 2790 1709 2790 
C 1222 2790 1011 2317 947 2093 
L 941 2093 
L 941 2790 
L 198 2720 
L 198 2554 
C 576 2554 634 2515 634 2208 
L 634 428 
C 634 184 608 153 198 153 
L 198 -13 
C 352 0 646 0 813 0 
C 998 0 1325 0 1498 -13 
L 1498 153 
C 1037 153 960 153 960 440 
L 960 1497 
z
" transform="scale(0.015625)"/>
     <path id="CMR17-61" d="M 2304 1653 
C 2304 2072 2304 2294 2035 2543 
C 1798 2752 1523 2816 1306 2816 
C 800 2816 435 2407 435 1971 
C 435 1728 627 1728 666 1728 
C 749 1728 896 1778 896 1954 
C 896 2112 774 2181 666 2181 
C 640 2181 608 2174 589 2168 
C 723 2592 1069 2714 1293 2714 
C 1613 2714 1965 2429 1965 1885 
L 1965 1600 
C 1587 1600 1133 1549 774 1357 
C 371 1133 256 813 256 570 
C 256 77 832 -64 1171 -64 
C 1523 -64 1850 139 1990 511 
C 2003 233 2182 -18 2464 -18 
C 2598 -18 2938 70 2938 567 
L 2938 920 
L 2822 920 
L 2822 562 
C 2822 178 2650 128 2566 128 
C 2304 128 2304 458 2304 738 
L 2304 1653 
z
M 1965 870 
C 1965 317 1568 38 1216 38 
C 896 38 646 275 646 570 
C 646 761 730 1100 1101 1305 
C 1408 1478 1760 1504 1965 1504 
L 1965 870 
z
" transform="scale(0.015625)"/>
     <path id="CMR17-62" d="M 960 4396 
L 198 4326 
L 198 4160 
C 576 4160 634 4122 634 3817 
L 634 -13 
L 749 -13 
L 934 441 
C 1120 141 1395 -64 1766 -64 
C 2406 -64 3053 500 3053 1370 
C 3053 2188 2477 2790 1830 2790 
C 1434 2790 1152 2579 960 2330 
L 960 4396 
z
M 973 2004 
C 973 2118 973 2138 1062 2272 
C 1312 2657 1670 2688 1792 2688 
C 1984 2688 2643 2585 2643 1376 
C 2643 108 1888 38 1734 38 
C 1536 38 1248 114 1043 486 
C 973 608 973 621 973 735 
L 973 2004 
z
" transform="scale(0.015625)"/>
     <path id="CMR17-6c" d="M 979 4396 
L 218 4326 
L 218 4160 
C 595 4160 653 4122 653 3817 
L 653 426 
C 653 184 627 153 218 153 
L 218 -13 
C 371 0 653 0 813 0 
C 979 0 1261 0 1414 -13 
L 1414 153 
C 1005 153 979 178 979 426 
L 979 4396 
z
" transform="scale(0.015625)"/>
     <path id="CMR17-79" d="M 2496 2197 
C 2656 2586 2944 2586 3034 2586 
L 3034 2752 
C 2912 2752 2752 2752 2630 2752 
C 2496 2752 2285 2752 2157 2758 
L 2157 2592 
C 2400 2573 2406 2394 2406 2343 
C 2406 2280 2394 2248 2362 2171 
L 1664 449 
L 902 2306 
C 870 2382 870 2426 870 2433 
C 870 2573 1018 2586 1171 2586 
L 1171 2758 
C 1018 2752 742 2752 582 2752 
C 410 2752 205 2752 64 2758 
L 64 2586 
C 410 2586 448 2554 531 2350 
L 1485 15 
C 1197 -738 1030 -1178 627 -1178 
C 557 -1178 397 -1159 282 -1044 
C 429 -1031 493 -942 493 -833 
C 493 -725 416 -629 288 -629 
C 147 -629 77 -725 77 -840 
C 77 -1095 339 -1280 627 -1280 
C 998 -1280 1229 -922 1357 -604 
L 2496 2197 
z
" transform="scale(0.015625)"/>
    </defs>
    <use xlink:href="#CMR17-70" transform="scale(0.996264)"/>
    <use xlink:href="#CMR17-65" transform="translate(53.497809 0) scale(0.996264)"/>
    <use xlink:href="#CMR17-72" transform="translate(93.983469 0) scale(0.996264)"/>
    <use xlink:href="#CMR17-6d" transform="translate(129.264237 0) scale(0.996264)"/>
    <use xlink:href="#CMR17-65" transform="translate(206.183827 0) scale(0.996264)"/>
    <use xlink:href="#CMR17-61" transform="translate(246.669487 0) scale(0.996264)"/>
    <use xlink:href="#CMR17-62" transform="translate(292.359964 0) scale(0.996264)"/>
    <use xlink:href="#CMR17-69" transform="translate(343.255334 0) scale(0.996264)"/>
    <use xlink:href="#CMR17-6c" transform="translate(368.126392 0) scale(0.996264)"/>
    <use xlink:href="#CMR17-69" transform="translate(392.997451 0) scale(0.996264)"/>
    <use xlink:href="#CMR17-74" transform="translate(417.868509 0) scale(0.996264)"/>
    <use xlink:href="#CMR17-79" transform="translate(450.546823 0) scale(0.996264)"/>
   </g>
  </g>
 </g>
 <defs>
  <clipPath id="pb64c9ff127">
   <rect x="48.559071" y="51.564121" width="886.958601" height="469.58891"/>
  </clipPath>
 </defs>
</svg>
