<?xml version="1.0" encoding="utf-8" standalone="no"?>
<!DOCTYPE svg PUBLIC "-//W3C//DTD SVG 1.1//EN"
  "http://www.w3.org/Graphics/SVG/1.1/DTD/svg11.dtd">
<svg xmlns:xlink="http://www.w3.org/1999/xlink" width="1080pt" height="576pt" viewBox="0 0 1080 576" xmlns="http://www.w3.org/2000/svg" version="1.1">
 <metadata>
  <rdf:RDF xmlns:dc="http://purl.org/dc/elements/1.1/" xmlns:cc="http://creativecommons.org/ns#" xmlns:rdf="http://www.w3.org/1999/02/22-rdf-syntax-ns#">
   <cc:Work>
    <dc:type rdf:resource="http://purl.org/dc/dcmitype/StillImage"/>
    <dc:date>2024-06-28T12:39:57.950219</dc:date>
    <dc:format>image/svg+xml</dc:format>
    <dc:creator>
     <cc:Agent>
      <dc:title>Matplotlib v3.9.0, https://matplotlib.org/</dc:title>
     </cc:Agent>
    </dc:creator>
   </cc:Work>
  </rdf:RDF>
 </metadata>
 <defs>
  <style type="text/css">*{stroke-linejoin: round; stroke-linecap: butt}</style>
 </defs>
 <g id="figure_1">
  <g id="patch_1">
   <path d="M 0 576 
L 1080 576 
L 1080 0 
L 0 0 
z
" style="fill: #ffffff"/>
  </g>
  <g id="axes_1">
   <g id="patch_2">
    <path d="M 48.559071 521.153031 
L 935.517672 521.153031 
L 935.517672 51.564121 
L 48.559071 51.564121 
z
" style="fill: #eaeaf2"/>
   </g>
   <g id="matplotlib.axis_1">
    <g id="xtick_1">
     <g id="line2d_1">
      <path d="M 48.559071 521.153031 
L 48.559071 51.564121 
" clip-path="url(#p26f8b92b91)" style="fill: none; stroke: #ffffff; stroke-linecap: round"/>
     </g>
     <g id="line2d_2"/>
     <g id="text_1">
      <!-- $\mathdefault{0.00}$ -->
      <g style="fill: #262626" transform="translate(36.419535 537.838907) scale(0.14 -0.14)">
       <defs>
        <path id="CMR17-30" d="M 2688 2025 
C 2688 2416 2682 3080 2413 3591 
C 2176 4039 1798 4198 1466 4198 
C 1158 4198 768 4058 525 3597 
C 269 3118 243 2524 243 2025 
C 243 1661 250 1106 448 619 
C 723 -39 1216 -128 1466 -128 
C 1760 -128 2208 -7 2470 600 
C 2662 1042 2688 1559 2688 2025 
z
M 1466 -26 
C 1056 -26 813 325 723 812 
C 653 1188 653 1738 653 2096 
C 653 2588 653 2997 736 3387 
C 858 3929 1216 4096 1466 4096 
C 1728 4096 2067 3923 2189 3400 
C 2272 3036 2278 2607 2278 2096 
C 2278 1680 2278 1169 2202 792 
C 2067 95 1690 -26 1466 -26 
z
" transform="scale(0.015625)"/>
        <path id="CMMI12-3a" d="M 1178 307 
C 1178 492 1024 619 870 619 
C 685 619 557 466 557 313 
C 557 128 710 0 864 0 
C 1050 0 1178 153 1178 307 
z
" transform="scale(0.015625)"/>
       </defs>
       <use xlink:href="#CMR17-30" transform="scale(0.996264)"/>
       <use xlink:href="#CMMI12-3a" transform="translate(45.690477 0) scale(0.996264)"/>
       <use xlink:href="#CMR17-30" transform="translate(72.787654 0) scale(0.996264)"/>
       <use xlink:href="#CMR17-30" transform="translate(118.478131 0) scale(0.996264)"/>
      </g>
     </g>
    </g>
    <g id="xtick_2">
     <g id="line2d_3">
      <path d="M 154.14938 521.153031 
L 154.14938 51.564121 
" clip-path="url(#p26f8b92b91)" style="fill: none; stroke: #ffffff; stroke-linecap: round"/>
     </g>
     <g id="line2d_4"/>
     <g id="text_2">
      <!-- $\mathdefault{0.25}$ -->
      <g style="fill: #262626" transform="translate(142.009845 537.838907) scale(0.14 -0.14)">
       <defs>
        <path id="CMR17-32" d="M 2669 989 
L 2554 989 
C 2490 536 2438 459 2413 420 
C 2381 369 1920 369 1830 369 
L 602 369 
C 832 619 1280 1072 1824 1597 
C 2214 1967 2669 2402 2669 3035 
C 2669 3790 2067 4224 1395 4224 
C 691 4224 262 3604 262 3030 
C 262 2780 448 2748 525 2748 
C 589 2748 781 2787 781 3010 
C 781 3207 614 3264 525 3264 
C 486 3264 448 3258 422 3245 
C 544 3790 915 4058 1306 4058 
C 1862 4058 2227 3617 2227 3035 
C 2227 2479 1901 2000 1536 1584 
L 262 146 
L 262 0 
L 2515 0 
L 2669 989 
z
" transform="scale(0.015625)"/>
        <path id="CMR17-35" d="M 730 3692 
C 794 3666 1056 3584 1325 3584 
C 1920 3584 2246 3911 2432 4100 
C 2432 4157 2432 4192 2394 4192 
C 2387 4192 2374 4192 2323 4163 
C 2099 4058 1837 3973 1517 3973 
C 1325 3973 1037 3999 723 4139 
C 653 4171 640 4171 634 4171 
C 602 4171 595 4164 595 4037 
L 595 2203 
C 595 2089 595 2057 659 2057 
C 691 2057 704 2070 736 2114 
C 941 2401 1222 2522 1542 2522 
C 1766 2522 2246 2382 2246 1289 
C 2246 1085 2246 715 2054 421 
C 1894 159 1645 25 1370 25 
C 947 25 518 320 403 814 
C 429 807 480 795 506 795 
C 589 795 749 840 749 1038 
C 749 1210 627 1280 506 1280 
C 358 1280 262 1190 262 1011 
C 262 454 704 -128 1382 -128 
C 2042 -128 2669 440 2669 1264 
C 2669 2030 2170 2624 1549 2624 
C 1222 2624 947 2503 730 2274 
L 730 3692 
z
" transform="scale(0.015625)"/>
       </defs>
       <use xlink:href="#CMR17-30" transform="scale(0.996264)"/>
       <use xlink:href="#CMMI12-3a" transform="translate(45.690477 0) scale(0.996264)"/>
       <use xlink:href="#CMR17-32" transform="translate(72.787654 0) scale(0.996264)"/>
       <use xlink:href="#CMR17-35" transform="translate(118.478131 0) scale(0.996264)"/>
      </g>
     </g>
    </g>
    <g id="xtick_3">
     <g id="line2d_5">
      <path d="M 259.73969 521.153031 
L 259.73969 51.564121 
" clip-path="url(#p26f8b92b91)" style="fill: none; stroke: #ffffff; stroke-linecap: round"/>
     </g>
     <g id="line2d_6"/>
     <g id="text_3">
      <!-- $\mathdefault{0.50}$ -->
      <g style="fill: #262626" transform="translate(247.600155 537.838907) scale(0.14 -0.14)">
       <use xlink:href="#CMR17-30" transform="scale(0.996264)"/>
       <use xlink:href="#CMMI12-3a" transform="translate(45.690477 0) scale(0.996264)"/>
       <use xlink:href="#CMR17-35" transform="translate(72.787654 0) scale(0.996264)"/>
       <use xlink:href="#CMR17-30" transform="translate(118.478131 0) scale(0.996264)"/>
      </g>
     </g>
    </g>
    <g id="xtick_4">
     <g id="line2d_7">
      <path d="M 365.33 521.153031 
L 365.33 51.564121 
" clip-path="url(#p26f8b92b91)" style="fill: none; stroke: #ffffff; stroke-linecap: round"/>
     </g>
     <g id="line2d_8"/>
     <g id="text_4">
      <!-- $\mathdefault{0.75}$ -->
      <g style="fill: #262626" transform="translate(353.190464 537.838907) scale(0.14 -0.14)">
       <defs>
        <path id="CMR17-37" d="M 2886 3941 
L 2886 4081 
L 1382 4081 
C 634 4081 621 4165 595 4288 
L 480 4288 
L 294 3094 
L 410 3094 
C 429 3215 474 3540 550 3661 
C 589 3712 1062 3712 1171 3712 
L 2579 3712 
L 1869 2661 
C 1395 1954 1069 999 1069 165 
C 1069 89 1069 -128 1299 -128 
C 1530 -128 1530 89 1530 171 
L 1530 465 
C 1530 1508 1709 2196 2003 2636 
L 2886 3941 
z
" transform="scale(0.015625)"/>
       </defs>
       <use xlink:href="#CMR17-30" transform="scale(0.996264)"/>
       <use xlink:href="#CMMI12-3a" transform="translate(45.690477 0) scale(0.996264)"/>
       <use xlink:href="#CMR17-37" transform="translate(72.787654 0) scale(0.996264)"/>
       <use xlink:href="#CMR17-35" transform="translate(118.478131 0) scale(0.996264)"/>
      </g>
     </g>
    </g>
    <g id="xtick_5">
     <g id="line2d_9">
      <path d="M 470.920309 521.153031 
L 470.920309 51.564121 
" clip-path="url(#p26f8b92b91)" style="fill: none; stroke: #ffffff; stroke-linecap: round"/>
     </g>
     <g id="line2d_10"/>
     <g id="text_5">
      <!-- $\mathdefault{1.00}$ -->
      <g style="fill: #262626" transform="translate(458.780774 537.838907) scale(0.14 -0.14)">
       <defs>
        <path id="CMR17-31" d="M 1702 4058 
C 1702 4192 1696 4192 1606 4192 
C 1357 3916 979 3827 621 3827 
C 602 3827 570 3827 563 3808 
C 557 3795 557 3782 557 3648 
C 755 3648 1088 3686 1344 3839 
L 1344 461 
C 1344 236 1331 160 781 160 
L 589 160 
L 589 0 
C 896 0 1216 0 1523 0 
C 1830 0 2150 0 2458 0 
L 2458 160 
L 2266 160 
C 1715 160 1702 230 1702 458 
L 1702 4058 
z
" transform="scale(0.015625)"/>
       </defs>
       <use xlink:href="#CMR17-31" transform="scale(0.996264)"/>
       <use xlink:href="#CMMI12-3a" transform="translate(45.690477 0) scale(0.996264)"/>
       <use xlink:href="#CMR17-30" transform="translate(72.787654 0) scale(0.996264)"/>
       <use xlink:href="#CMR17-30" transform="translate(118.478131 0) scale(0.996264)"/>
      </g>
     </g>
    </g>
    <g id="xtick_6">
     <g id="line2d_11">
      <path d="M 576.510619 521.153031 
L 576.510619 51.564121 
" clip-path="url(#p26f8b92b91)" style="fill: none; stroke: #ffffff; stroke-linecap: round"/>
     </g>
     <g id="line2d_12"/>
     <g id="text_6">
      <!-- $\mathdefault{1.25}$ -->
      <g style="fill: #262626" transform="translate(564.371084 537.838907) scale(0.14 -0.14)">
       <use xlink:href="#CMR17-31" transform="scale(0.996264)"/>
       <use xlink:href="#CMMI12-3a" transform="translate(45.690477 0) scale(0.996264)"/>
       <use xlink:href="#CMR17-32" transform="translate(72.787654 0) scale(0.996264)"/>
       <use xlink:href="#CMR17-35" transform="translate(118.478131 0) scale(0.996264)"/>
      </g>
     </g>
    </g>
    <g id="xtick_7">
     <g id="line2d_13">
      <path d="M 682.100929 521.153031 
L 682.100929 51.564121 
" clip-path="url(#p26f8b92b91)" style="fill: none; stroke: #ffffff; stroke-linecap: round"/>
     </g>
     <g id="line2d_14"/>
     <g id="text_7">
      <!-- $\mathdefault{1.50}$ -->
      <g style="fill: #262626" transform="translate(669.961393 537.838907) scale(0.14 -0.14)">
       <use xlink:href="#CMR17-31" transform="scale(0.996264)"/>
       <use xlink:href="#CMMI12-3a" transform="translate(45.690477 0) scale(0.996264)"/>
       <use xlink:href="#CMR17-35" transform="translate(72.787654 0) scale(0.996264)"/>
       <use xlink:href="#CMR17-30" transform="translate(118.478131 0) scale(0.996264)"/>
      </g>
     </g>
    </g>
    <g id="xtick_8">
     <g id="line2d_15">
      <path d="M 787.691238 521.153031 
L 787.691238 51.564121 
" clip-path="url(#p26f8b92b91)" style="fill: none; stroke: #ffffff; stroke-linecap: round"/>
     </g>
     <g id="line2d_16"/>
     <g id="text_8">
      <!-- $\mathdefault{1.75}$ -->
      <g style="fill: #262626" transform="translate(775.551703 537.838907) scale(0.14 -0.14)">
       <use xlink:href="#CMR17-31" transform="scale(0.996264)"/>
       <use xlink:href="#CMMI12-3a" transform="translate(45.690477 0) scale(0.996264)"/>
       <use xlink:href="#CMR17-37" transform="translate(72.787654 0) scale(0.996264)"/>
       <use xlink:href="#CMR17-35" transform="translate(118.478131 0) scale(0.996264)"/>
      </g>
     </g>
    </g>
    <g id="xtick_9">
     <g id="line2d_17">
      <path d="M 893.281548 521.153031 
L 893.281548 51.564121 
" clip-path="url(#p26f8b92b91)" style="fill: none; stroke: #ffffff; stroke-linecap: round"/>
     </g>
     <g id="line2d_18"/>
     <g id="text_9">
      <!-- $\mathdefault{2.00}$ -->
      <g style="fill: #262626" transform="translate(881.142013 537.838907) scale(0.14 -0.14)">
       <use xlink:href="#CMR17-32" transform="scale(0.996264)"/>
       <use xlink:href="#CMMI12-3a" transform="translate(45.690477 0) scale(0.996264)"/>
       <use xlink:href="#CMR17-30" transform="translate(72.787654 0) scale(0.996264)"/>
       <use xlink:href="#CMR17-30" transform="translate(118.478131 0) scale(0.996264)"/>
      </g>
     </g>
    </g>
    <g id="text_10">
     <!-- $x$ -->
     <g style="fill: #262626" transform="translate(487.603646 555.620524) scale(0.16 -0.16)">
      <defs>
       <path id="CMMI12-78" d="M 3034 2606 
C 2829 2567 2752 2414 2752 2293 
C 2752 2139 2874 2088 2963 2088 
C 3155 2088 3290 2254 3290 2427 
C 3290 2695 2982 2816 2714 2816 
C 2323 2816 2106 2433 2048 2312 
C 1901 2816 1504 2816 1389 2816 
C 736 2816 390 1980 390 1839 
C 390 1814 416 1782 461 1782 
C 512 1782 525 1820 538 1846 
C 755 2555 1184 2689 1370 2689 
C 1658 2689 1715 2420 1715 2267 
C 1715 2127 1677 1980 1600 1673 
L 1382 798 
C 1286 415 1101 64 762 64 
C 730 64 570 64 435 147 
C 666 192 717 383 717 460 
C 717 588 621 664 499 664 
C 346 664 179 530 179 326 
C 179 57 480 -64 755 -64 
C 1062 -64 1280 179 1414 441 
C 1517 64 1837 -64 2074 -64 
C 2726 -64 3072 773 3072 913 
C 3072 945 3046 971 3008 971 
C 2950 971 2944 939 2925 888 
C 2752 326 2381 64 2093 64 
C 1869 64 1747 230 1747 492 
C 1747 632 1773 734 1875 1156 
L 2099 2024 
C 2195 2408 2413 2689 2707 2689 
C 2720 2689 2899 2689 3034 2606 
z
" transform="scale(0.015625)"/>
      </defs>
      <use xlink:href="#CMMI12-78" transform="scale(0.996264)"/>
     </g>
    </g>
   </g>
   <g id="matplotlib.axis_2">
    <g id="ytick_1">
     <g id="line2d_19">
      <path d="M 48.559071 521.153031 
L 935.517672 521.153031 
" clip-path="url(#p26f8b92b91)" style="fill: none; stroke: #ffffff; stroke-linecap: round"/>
     </g>
     <g id="line2d_20"/>
     <g id="text_11">
      <!-- $\mathdefault{0.00}$ -->
      <g style="fill: #262626" transform="translate(17.28 525.995969) scale(0.14 -0.14)">
       <use xlink:href="#CMR17-30" transform="scale(0.996264)"/>
       <use xlink:href="#CMMI12-3a" transform="translate(45.690477 0) scale(0.996264)"/>
       <use xlink:href="#CMR17-30" transform="translate(72.787654 0) scale(0.996264)"/>
       <use xlink:href="#CMR17-30" transform="translate(118.478131 0) scale(0.996264)"/>
      </g>
     </g>
    </g>
    <g id="ytick_2">
     <g id="line2d_21">
      <path d="M 48.559071 465.286327 
L 935.517672 465.286327 
" clip-path="url(#p26f8b92b91)" style="fill: none; stroke: #ffffff; stroke-linecap: round"/>
     </g>
     <g id="line2d_22"/>
     <g id="text_12">
      <!-- $\mathdefault{0.25}$ -->
      <g style="fill: #262626" transform="translate(17.28 470.129265) scale(0.14 -0.14)">
       <use xlink:href="#CMR17-30" transform="scale(0.996264)"/>
       <use xlink:href="#CMMI12-3a" transform="translate(45.690477 0) scale(0.996264)"/>
       <use xlink:href="#CMR17-32" transform="translate(72.787654 0) scale(0.996264)"/>
       <use xlink:href="#CMR17-35" transform="translate(118.478131 0) scale(0.996264)"/>
      </g>
     </g>
    </g>
    <g id="ytick_3">
     <g id="line2d_23">
      <path d="M 48.559071 409.419624 
L 935.517672 409.419624 
" clip-path="url(#p26f8b92b91)" style="fill: none; stroke: #ffffff; stroke-linecap: round"/>
     </g>
     <g id="line2d_24"/>
     <g id="text_13">
      <!-- $\mathdefault{0.50}$ -->
      <g style="fill: #262626" transform="translate(17.28 414.262562) scale(0.14 -0.14)">
       <use xlink:href="#CMR17-30" transform="scale(0.996264)"/>
       <use xlink:href="#CMMI12-3a" transform="translate(45.690477 0) scale(0.996264)"/>
       <use xlink:href="#CMR17-35" transform="translate(72.787654 0) scale(0.996264)"/>
       <use xlink:href="#CMR17-30" transform="translate(118.478131 0) scale(0.996264)"/>
      </g>
     </g>
    </g>
    <g id="ytick_4">
     <g id="line2d_25">
      <path d="M 48.559071 353.55292 
L 935.517672 353.55292 
" clip-path="url(#p26f8b92b91)" style="fill: none; stroke: #ffffff; stroke-linecap: round"/>
     </g>
     <g id="line2d_26"/>
     <g id="text_14">
      <!-- $\mathdefault{0.75}$ -->
      <g style="fill: #262626" transform="translate(17.28 358.395859) scale(0.14 -0.14)">
       <use xlink:href="#CMR17-30" transform="scale(0.996264)"/>
       <use xlink:href="#CMMI12-3a" transform="translate(45.690477 0) scale(0.996264)"/>
       <use xlink:href="#CMR17-37" transform="translate(72.787654 0) scale(0.996264)"/>
       <use xlink:href="#CMR17-35" transform="translate(118.478131 0) scale(0.996264)"/>
      </g>
     </g>
    </g>
    <g id="ytick_5">
     <g id="line2d_27">
      <path d="M 48.559071 297.686217 
L 935.517672 297.686217 
" clip-path="url(#p26f8b92b91)" style="fill: none; stroke: #ffffff; stroke-linecap: round"/>
     </g>
     <g id="line2d_28"/>
     <g id="text_15">
      <!-- $\mathdefault{1.00}$ -->
      <g style="fill: #262626" transform="translate(17.28 302.529155) scale(0.14 -0.14)">
       <use xlink:href="#CMR17-31" transform="scale(0.996264)"/>
       <use xlink:href="#CMMI12-3a" transform="translate(45.690477 0) scale(0.996264)"/>
       <use xlink:href="#CMR17-30" transform="translate(72.787654 0) scale(0.996264)"/>
       <use xlink:href="#CMR17-30" transform="translate(118.478131 0) scale(0.996264)"/>
      </g>
     </g>
    </g>
    <g id="ytick_6">
     <g id="line2d_29">
      <path d="M 48.559071 241.819513 
L 935.517672 241.819513 
" clip-path="url(#p26f8b92b91)" style="fill: none; stroke: #ffffff; stroke-linecap: round"/>
     </g>
     <g id="line2d_30"/>
     <g id="text_16">
      <!-- $\mathdefault{1.25}$ -->
      <g style="fill: #262626" transform="translate(17.28 246.662452) scale(0.14 -0.14)">
       <use xlink:href="#CMR17-31" transform="scale(0.996264)"/>
       <use xlink:href="#CMMI12-3a" transform="translate(45.690477 0) scale(0.996264)"/>
       <use xlink:href="#CMR17-32" transform="translate(72.787654 0) scale(0.996264)"/>
       <use xlink:href="#CMR17-35" transform="translate(118.478131 0) scale(0.996264)"/>
      </g>
     </g>
    </g>
    <g id="ytick_7">
     <g id="line2d_31">
      <path d="M 48.559071 185.95281 
L 935.517672 185.95281 
" clip-path="url(#p26f8b92b91)" style="fill: none; stroke: #ffffff; stroke-linecap: round"/>
     </g>
     <g id="line2d_32"/>
     <g id="text_17">
      <!-- $\mathdefault{1.50}$ -->
      <g style="fill: #262626" transform="translate(17.28 190.795748) scale(0.14 -0.14)">
       <use xlink:href="#CMR17-31" transform="scale(0.996264)"/>
       <use xlink:href="#CMMI12-3a" transform="translate(45.690477 0) scale(0.996264)"/>
       <use xlink:href="#CMR17-35" transform="translate(72.787654 0) scale(0.996264)"/>
       <use xlink:href="#CMR17-30" transform="translate(118.478131 0) scale(0.996264)"/>
      </g>
     </g>
    </g>
    <g id="ytick_8">
     <g id="line2d_33">
      <path d="M 48.559071 130.086107 
L 935.517672 130.086107 
" clip-path="url(#p26f8b92b91)" style="fill: none; stroke: #ffffff; stroke-linecap: round"/>
     </g>
     <g id="line2d_34"/>
     <g id="text_18">
      <!-- $\mathdefault{1.75}$ -->
      <g style="fill: #262626" transform="translate(17.28 134.929045) scale(0.14 -0.14)">
       <use xlink:href="#CMR17-31" transform="scale(0.996264)"/>
       <use xlink:href="#CMMI12-3a" transform="translate(45.690477 0) scale(0.996264)"/>
       <use xlink:href="#CMR17-37" transform="translate(72.787654 0) scale(0.996264)"/>
       <use xlink:href="#CMR17-35" transform="translate(118.478131 0) scale(0.996264)"/>
      </g>
     </g>
    </g>
    <g id="ytick_9">
     <g id="line2d_35">
      <path d="M 48.559071 74.219403 
L 935.517672 74.219403 
" clip-path="url(#p26f8b92b91)" style="fill: none; stroke: #ffffff; stroke-linecap: round"/>
     </g>
     <g id="line2d_36"/>
     <g id="text_19">
      <!-- $\mathdefault{2.00}$ -->
      <g style="fill: #262626" transform="translate(17.28 79.062341) scale(0.14 -0.14)">
       <use xlink:href="#CMR17-32" transform="scale(0.996264)"/>
       <use xlink:href="#CMMI12-3a" transform="translate(45.690477 0) scale(0.996264)"/>
       <use xlink:href="#CMR17-30" transform="translate(72.787654 0) scale(0.996264)"/>
       <use xlink:href="#CMR17-30" transform="translate(118.478131 0) scale(0.996264)"/>
      </g>
     </g>
    </g>
   </g>
   <g id="line2d_37">
    <path d="M 48.559071 74.219403 
L 57.006295 74.219403 
L 65.45352 74.219403 
L 73.900745 74.219403 
L 82.34797 74.219403 
L 90.795195 74.219403 
L 99.242419 74.219403 
L 107.689644 74.219403 
L 116.136869 74.219403 
L 124.584094 74.219403 
L 133.031318 74.219403 
L 141.478543 74.219403 
L 149.925768 74.219403 
L 158.372993 74.219403 
L 166.820217 74.219403 
L 175.267442 74.219403 
L 183.714667 74.219403 
L 192.161892 74.219403 
L 200.609117 74.219403 
L 209.056341 74.219403 
L 217.503566 74.219403 
L 225.950791 74.219403 
L 234.398016 74.219403 
L 242.84524 74.219403 
L 251.292465 74.219403 
L 259.73969 74.219403 
L 268.186915 74.219403 
L 276.63414 74.219403 
L 285.081364 74.219403 
L 293.528589 74.219403 
L 301.975814 74.219403 
L 310.423039 74.219403 
L 318.870263 74.219403 
L 327.317488 74.219403 
L 335.764713 74.219403 
L 344.211938 74.219403 
L 352.659162 74.219403 
L 361.106387 74.219403 
L 369.553612 74.219403 
L 378.000837 74.219403 
L 386.448062 74.219403 
L 394.895286 74.219403 
L 403.342511 74.219403 
L 411.789736 74.219403 
L 420.236961 74.219403 
L 428.684185 74.219403 
L 437.13141 74.219403 
L 445.578635 74.219403 
L 454.02586 74.219403 
L 462.473085 74.219403 
L 470.920309 74.219403 
L 479.367534 74.219403 
L 487.814759 74.219403 
L 496.261984 74.219403 
L 504.709208 74.219403 
L 513.156433 74.219403 
L 521.603658 74.219403 
L 530.050883 74.219403 
L 538.498107 74.219403 
L 546.945332 74.219403 
L 555.392557 74.219403 
L 563.839782 74.219403 
L 572.287007 74.219403 
L 580.734231 74.219403 
L 589.181456 74.219403 
L 597.628681 74.219403 
L 606.075906 74.219403 
L 614.52313 74.219403 
L 622.970355 74.219403 
L 631.41758 74.219403 
L 639.864805 74.219403 
L 648.31203 74.219403 
L 656.759254 74.219403 
L 665.206479 74.219403 
L 673.653704 74.219403 
L 682.100929 74.219403 
L 690.548153 74.219403 
L 698.995378 74.219403 
L 707.442603 74.219403 
L 715.889828 74.219403 
L 724.337052 74.219403 
L 732.784277 74.219403 
L 741.231502 74.219403 
L 749.678727 74.219403 
L 758.125952 74.219403 
L 766.573176 74.219403 
L 775.020401 74.219403 
L 783.467626 74.219403 
L 791.914851 74.219403 
L 800.362075 74.219403 
L 808.8093 74.219403 
L 817.256525 74.219403 
L 825.70375 74.219403 
L 834.150975 74.219403 
L 842.598199 74.219403 
L 851.045424 74.219403 
L 859.492649 74.219403 
L 867.939874 74.219403 
L 876.387098 74.219403 
L 884.834323 74.219403 
L 893.281548 74.219403 
" clip-path="url(#p26f8b92b91)" style="fill: none; stroke: #393b79; stroke-width: 2; stroke-linecap: round"/>
   </g>
   <g id="line2d_38">
    <path d="M 48.559071 183.195089 
L 57.006295 182.337715 
L 65.45352 181.489732 
L 73.900745 180.650988 
L 82.34797 179.821358 
L 90.795195 179.000728 
L 99.242419 178.15968 
L 107.689644 177.325936 
L 116.136869 176.501162 
L 124.584094 175.685314 
L 133.031318 174.878223 
L 141.478543 174.079795 
L 149.925768 173.289938 
L 158.372993 172.508505 
L 166.820217 171.735437 
L 175.267442 170.970619 
L 183.714667 170.212687 
L 192.161892 169.434927 
L 200.609117 168.665348 
L 209.056341 167.903874 
L 217.503566 167.15051 
L 225.950791 166.405055 
L 234.398016 165.667377 
L 242.84524 164.937441 
L 251.292465 164.215225 
L 259.73969 163.500551 
L 268.186915 162.793289 
L 276.63414 162.093391 
L 285.081364 161.400782 
L 293.528589 160.696238 
L 301.975814 159.991229 
L 310.423039 159.293483 
L 318.870263 158.602922 
L 327.317488 157.9195 
L 335.764713 157.243129 
L 344.211938 156.573682 
L 352.659162 155.911085 
L 361.106387 155.255241 
L 369.553612 154.606109 
L 378.000837 153.963659 
L 386.448062 153.327793 
L 394.895286 152.69836 
L 403.342511 152.075291 
L 411.789736 151.444936 
L 420.236961 150.810062 
L 428.684185 150.181638 
L 437.13141 149.559549 
L 445.578635 148.943727 
L 454.02586 148.334098 
L 462.473085 147.730573 
L 470.920309 147.133168 
L 479.367534 146.541737 
L 487.814759 145.95622 
L 496.261984 145.376552 
L 504.709208 144.802663 
L 513.156433 144.234519 
L 521.603658 143.672036 
L 530.050883 143.115121 
L 538.498107 142.563713 
L 546.945332 142.017605 
L 555.392557 141.455233 
L 563.839782 140.898413 
L 572.287007 140.347077 
L 580.734231 139.801168 
L 589.181456 139.260644 
L 597.628681 138.725453 
L 606.075906 138.195505 
L 614.52313 137.670757 
L 622.970355 137.151144 
L 631.41758 136.636614 
L 639.864805 136.127153 
L 648.31203 135.622663 
L 656.759254 135.123078 
L 665.206479 134.628346 
L 673.653704 134.138455 
L 682.100929 133.653348 
L 690.548153 133.17294 
L 698.995378 132.697188 
L 707.442603 132.226039 
L 715.889828 131.755779 
L 724.337052 131.274725 
L 732.784277 130.79831 
L 741.231502 130.32648 
L 749.678727 129.859209 
L 758.125952 129.396444 
L 766.573176 128.938117 
L 775.020401 128.484185 
L 783.467626 128.03462 
L 791.914851 127.589356 
L 800.362075 127.148369 
L 808.8093 126.711591 
L 817.256525 126.278988 
L 825.70375 125.850505 
L 834.150975 125.426107 
L 842.598199 125.005766 
L 851.045424 124.589429 
L 859.492649 124.177043 
L 867.939874 123.768569 
L 876.387098 123.363976 
L 884.834323 122.963237 
L 893.281548 122.56629 
" clip-path="url(#p26f8b92b91)" style="fill: none; stroke: #6b6ecf; stroke-width: 2; stroke-linecap: round"/>
   </g>
   <g id="line2d_39">
    <path d="M 48.559071 397.685007 
L 57.006295 395.885585 
L 65.45352 394.087879 
L 73.900745 392.292338 
L 82.34797 390.498567 
L 90.795195 388.708412 
L 99.242419 386.921596 
L 107.689644 385.131206 
L 116.136869 383.344122 
L 124.584094 381.561257 
L 133.031318 379.783451 
L 141.478543 378.011478 
L 149.925768 376.237181 
L 158.372993 374.464885 
L 166.820217 372.699975 
L 175.267442 370.943542 
L 183.714667 369.181071 
L 192.161892 367.425111 
L 200.609117 365.679709 
L 209.056341 363.931934 
L 217.503566 362.187974 
L 225.950791 360.457151 
L 234.398016 358.720221 
L 242.84524 356.992032 
L 251.292465 355.275064 
L 259.73969 353.550251 
L 268.186915 351.843354 
L 276.63414 350.131047 
L 285.081364 348.429783 
L 293.528589 346.733698 
L 301.975814 345.039334 
L 310.423039 343.357982 
L 318.870263 341.671623 
L 327.317488 340.003874 
L 335.764713 338.327239 
L 344.211938 336.671662 
L 352.659162 335.006327 
L 361.106387 333.361587 
L 369.553612 331.709556 
L 378.000837 330.07451 
L 386.448062 328.438242 
L 394.895286 326.811899 
L 403.342511 325.193621 
L 411.789736 323.574538 
L 420.236961 321.977093 
L 428.684185 320.36431 
L 437.13141 318.777379 
L 445.578635 317.183411 
L 454.02586 315.601024 
L 462.473085 314.034107 
L 470.920309 312.455515 
L 479.367534 310.901319 
L 487.814759 309.342995 
L 496.261984 307.79143 
L 504.709208 306.263468 
L 513.156433 304.716917 
L 521.603658 303.189989 
L 530.050883 301.681458 
L 538.498107 300.1546 
L 546.945332 298.650526 
L 555.392557 297.161466 
L 563.839782 295.656381 
L 572.287007 294.173369 
L 580.734231 292.708039 
L 589.181456 291.222841 
L 597.628681 289.758974 
L 606.075906 288.316115 
L 614.52313 286.855225 
L 622.970355 285.409018 
L 631.41758 283.983198 
L 639.864805 282.555652 
L 648.31203 281.125511 
L 656.759254 279.715281 
L 665.206479 278.3246 
L 673.653704 276.911472 
L 682.100929 275.515323 
L 690.548153 274.138313 
L 698.995378 272.770506 
L 707.442603 271.387089 
L 715.889828 270.022409 
L 724.337052 268.675887 
L 732.784277 267.334922 
L 741.231502 265.981096 
L 749.678727 264.645204 
L 758.125952 263.327215 
L 766.573176 262.020252 
L 775.020401 260.693861 
L 783.467626 259.384861 
L 791.914851 258.092804 
L 800.362075 256.817416 
L 808.8093 255.526523 
L 817.256525 254.242099 
L 825.70375 252.974074 
L 834.150975 251.722195 
L 842.598199 250.481746 
L 851.045424 249.219993 
L 859.492649 247.97413 
L 867.939874 246.743899 
L 876.387098 245.529108 
L 884.834323 244.322761 
L 893.281548 243.097268 
" clip-path="url(#p26f8b92b91)" style="fill: none; stroke: #637939; stroke-width: 2; stroke-linecap: round"/>
   </g>
   <g id="line2d_40">
    <path d="M 48.559071 480.814273 
L 57.006295 479.301903 
L 65.45352 477.774059 
L 73.900745 476.230977 
L 82.34797 474.672928 
L 90.795195 473.101796 
L 99.242419 471.517195 
L 107.689644 469.919904 
L 116.136869 468.309442 
L 124.584094 466.687454 
L 133.031318 465.054355 
L 141.478543 463.410643 
L 149.925768 461.756995 
L 158.372993 460.091474 
L 166.820217 458.417692 
L 175.267442 456.73467 
L 183.714667 455.043369 
L 192.161892 453.342635 
L 200.609117 451.635086 
L 209.056341 449.920478 
L 217.503566 448.198953 
L 225.950791 446.469859 
L 234.398016 444.734785 
L 242.84524 442.993313 
L 251.292465 441.24574 
L 259.73969 439.493037 
L 268.186915 437.736354 
L 276.63414 435.9767 
L 285.081364 434.209728 
L 293.528589 432.440075 
L 301.975814 430.668569 
L 310.423039 428.890677 
L 318.870263 427.113127 
L 327.317488 425.329987 
L 335.764713 423.546076 
L 344.211938 421.761159 
L 352.659162 419.97096 
L 361.106387 418.181633 
L 369.553612 416.393657 
L 378.000837 414.599248 
L 386.448062 412.805614 
L 394.895286 411.012532 
L 403.342511 409.219521 
L 411.789736 407.427406 
L 420.236961 405.635293 
L 428.684185 403.842703 
L 437.13141 402.049958 
L 445.578635 400.257886 
L 454.02586 398.467484 
L 462.473085 396.67887 
L 470.920309 394.891962 
L 479.367534 393.104213 
L 487.814759 391.318337 
L 496.261984 389.534494 
L 504.709208 387.753401 
L 513.156433 385.97512 
L 521.603658 384.200729 
L 530.050883 382.431125 
L 538.498107 380.661098 
L 546.945332 378.891047 
L 555.392557 377.126198 
L 563.839782 375.368319 
L 572.287007 373.614702 
L 580.734231 371.856264 
L 589.181456 370.106196 
L 597.628681 368.365669 
L 606.075906 366.620033 
L 614.52313 364.880622 
L 622.970355 363.152806 
L 631.41758 361.419349 
L 639.864805 359.693946 
L 648.31203 357.980946 
L 656.759254 356.258149 
L 665.206479 354.550742 
L 673.653704 352.844428 
L 682.100929 351.141579 
L 690.548153 349.452236 
L 698.995378 347.754996 
L 707.442603 346.080052 
L 715.889828 344.390605 
L 724.337052 342.723863 
L 732.784277 341.047964 
L 741.231502 339.391613 
L 749.678727 337.727602 
L 758.125952 336.083302 
L 766.573176 334.430384 
L 775.020401 332.799996 
L 783.467626 331.156646 
L 791.914851 329.540351 
L 800.362075 327.907585 
L 808.8093 326.29938 
L 817.256525 324.684447 
L 825.70375 323.083224 
L 834.150975 321.48945 
L 842.598199 319.893751 
L 851.045424 318.323478 
L 859.492649 316.733179 
L 867.939874 315.167287 
L 876.387098 313.603757 
L 884.834323 312.041161 
L 893.281548 310.502621 
" clip-path="url(#p26f8b92b91)" style="fill: none; stroke: #b5cf6b; stroke-width: 2; stroke-linecap: round"/>
   </g>
   <g id="line2d_41">
    <path d="M 48.559071 519.353626 
L 57.006295 518.907526 
L 65.45352 518.416207 
L 73.900745 517.880784 
L 82.34797 517.302243 
L 90.795195 516.681893 
L 99.242419 516.020632 
L 107.689644 515.319474 
L 116.136869 514.579488 
L 124.584094 513.801655 
L 133.031318 512.987052 
L 141.478543 512.136549 
L 149.925768 511.251085 
L 158.372993 510.33157 
L 166.820217 509.379032 
L 175.267442 508.394259 
L 183.714667 507.378177 
L 192.161892 506.331595 
L 200.609117 505.255385 
L 209.056341 504.150345 
L 217.503566 503.017415 
L 225.950791 501.857388 
L 234.398016 500.67078 
L 242.84524 499.458431 
L 251.292465 498.22135 
L 259.73969 496.960056 
L 268.186915 495.675424 
L 276.63414 494.368117 
L 285.081364 493.038691 
L 293.528589 491.687907 
L 301.975814 490.316549 
L 310.423039 488.925103 
L 318.870263 487.514633 
L 327.317488 486.084862 
L 335.764713 484.637248 
L 344.211938 483.172136 
L 352.659162 481.690252 
L 361.106387 480.191474 
L 369.553612 478.677329 
L 378.000837 477.147901 
L 386.448062 475.604031 
L 394.895286 474.046405 
L 403.342511 472.474121 
L 411.789736 470.889958 
L 420.236961 469.291996 
L 428.684185 467.682382 
L 437.13141 466.061568 
L 445.578635 464.429226 
L 454.02586 462.786573 
L 462.473085 461.134551 
L 470.920309 459.470871 
L 479.367534 457.799106 
L 487.814759 456.11778 
L 496.261984 454.429753 
L 504.709208 452.73131 
L 513.156433 451.025776 
L 521.603658 449.313528 
L 530.050883 447.594727 
L 538.498107 445.868838 
L 546.945332 444.137013 
L 555.392557 442.399033 
L 563.839782 440.656185 
L 572.287007 438.908906 
L 580.734231 437.157002 
L 589.181456 435.398328 
L 597.628681 433.637545 
L 606.075906 431.872787 
L 614.52313 430.103721 
L 622.970355 428.333527 
L 631.41758 426.557523 
L 639.864805 424.781401 
L 648.31203 423.002552 
L 656.759254 421.220081 
L 665.206479 419.438336 
L 673.653704 417.65502 
L 682.100929 415.86722 
L 690.548153 414.08072 
L 698.995378 412.294305 
L 707.442603 410.508677 
L 715.889828 408.72116 
L 724.337052 406.931667 
L 732.784277 405.143351 
L 741.231502 403.355651 
L 749.678727 401.568755 
L 758.125952 399.783117 
L 766.573176 397.998741 
L 775.020401 396.215716 
L 783.467626 394.434525 
L 791.914851 392.655367 
L 800.362075 390.878939 
L 808.8093 389.102786 
L 817.256525 387.326205 
L 825.70375 385.552968 
L 834.150975 383.783181 
L 842.598199 382.017797 
L 851.045424 380.257672 
L 859.492649 378.496075 
L 867.939874 376.73553 
L 876.387098 374.981524 
L 884.834323 373.234986 
L 893.281548 371.486554 
" clip-path="url(#p26f8b92b91)" style="fill: none; stroke: #8c6d31; stroke-width: 2; stroke-linecap: round"/>
   </g>
   <g id="line2d_42">
    <path d="M 48.559071 521.552857 
L 57.006295 521.152337 
L 65.45352 520.986487 
L 73.900745 520.825398 
L 82.34797 520.612191 
L 90.795195 520.34819 
L 99.242419 520.034564 
L 107.689644 519.672495 
L 116.136869 519.263178 
L 124.584094 518.807761 
L 133.031318 518.307419 
L 141.478543 517.76325 
L 149.925768 517.1763 
L 158.372993 516.547637 
L 166.820217 515.878395 
L 175.267442 515.169568 
L 183.714667 514.422143 
L 192.161892 513.637133 
L 200.609117 512.815494 
L 209.056341 511.958207 
L 217.503566 511.066266 
L 225.950791 510.140545 
L 234.398016 509.181878 
L 242.84524 508.191205 
L 251.292465 507.169458 
L 259.73969 506.11739 
L 268.186915 505.036008 
L 276.63414 503.92602 
L 285.081364 502.788108 
L 293.528589 501.623319 
L 301.975814 500.432393 
L 310.423039 499.215735 
L 318.870263 497.974636 
L 327.317488 496.709387 
L 335.764713 495.421029 
L 344.211938 494.109938 
L 352.659162 492.777191 
L 361.106387 491.422749 
L 369.553612 490.048326 
L 378.000837 488.653802 
L 386.448062 487.240553 
L 394.895286 485.808143 
L 403.342511 484.357741 
L 411.789736 482.890464 
L 420.236961 481.405924 
L 428.684185 479.905488 
L 437.13141 478.3892 
L 445.578635 476.857743 
L 454.02586 475.312173 
L 462.473085 473.7522 
L 470.920309 472.17876 
L 479.367534 470.592389 
L 487.814759 468.994281 
L 496.261984 467.383411 
L 504.709208 465.761359 
L 513.156433 464.128383 
L 521.603658 462.483964 
L 530.050883 460.829808 
L 538.498107 459.166791 
L 546.945332 457.493526 
L 555.392557 455.812791 
L 563.839782 454.121955 
L 572.287007 452.424265 
L 580.734231 450.719587 
L 589.181456 449.007604 
L 597.628681 447.287733 
L 606.075906 445.561717 
L 614.52313 443.830643 
L 622.970355 442.092538 
L 631.41758 440.348471 
L 639.864805 438.600318 
L 648.31203 436.848158 
L 656.759254 435.092387 
L 665.206479 433.329701 
L 673.653704 431.567002 
L 682.100929 429.79729 
L 690.548153 428.027829 
L 698.995378 426.252276 
L 707.442603 424.479117 
L 715.889828 422.697644 
L 724.337052 420.917451 
L 732.784277 419.1377 
L 741.231502 417.351542 
L 749.678727 415.566213 
L 758.125952 413.781738 
L 766.573176 411.997724 
L 775.020401 410.210048 
L 783.467626 408.421823 
L 791.914851 406.634169 
L 800.362075 404.847314 
L 808.8093 403.061156 
L 817.256525 401.275585 
L 825.70375 399.491248 
L 834.150975 397.707819 
L 842.598199 395.925743 
L 851.045424 394.145375 
L 859.492649 392.367111 
L 867.939874 390.59133 
L 876.387098 388.818573 
L 884.834323 387.04632 
L 893.281548 385.273422 
" clip-path="url(#p26f8b92b91)" style="fill: none; stroke: #e7cb94; stroke-width: 2; stroke-linecap: round"/>
   </g>
   <g id="line2d_43">
    <path d="M 48.559071 522.908128 
L 57.006295 521.695307 
L 65.45352 521.209711 
L 73.900745 521.013822 
L 82.34797 520.86393 
L 90.795195 520.66173 
L 99.242419 520.408433 
L 107.689644 520.105251 
L 116.136869 519.753399 
L 124.584094 519.354055 
L 133.031318 518.90841 
L 141.478543 518.417593 
L 149.925768 517.882682 
L 158.372993 517.30476 
L 166.820217 516.684983 
L 175.267442 516.024382 
L 183.714667 515.323946 
L 192.161892 514.58472 
L 200.609117 513.807695 
L 209.056341 512.993862 
L 217.503566 512.144218 
L 225.950791 511.259692 
L 234.398016 510.341159 
L 242.84524 509.389505 
L 251.292465 508.405709 
L 259.73969 507.390633 
L 268.186915 506.345077 
L 276.63414 505.27003 
L 285.081364 504.166066 
L 293.528589 503.034248 
L 301.975814 501.875302 
L 310.423039 500.689911 
L 318.870263 499.478781 
L 327.317488 498.24301 
L 335.764713 496.982969 
L 344.211938 495.699543 
L 352.659162 494.393399 
L 361.106387 493.065122 
L 369.553612 491.715908 
L 378.000837 490.345644 
L 386.448062 488.955709 
L 394.895286 487.546518 
L 403.342511 486.118067 
L 411.789736 484.67186 
L 420.236961 483.20821 
L 428.684185 481.727341 
L 437.13141 480.230592 
L 445.578635 478.71746 
L 454.02586 477.189458 
L 462.473085 475.646976 
L 470.920309 474.090879 
L 479.367534 472.519738 
L 487.814759 470.93713 
L 496.261984 469.340559 
L 504.709208 467.732514 
L 513.156433 466.11272 
L 521.603658 464.481959 
L 530.050883 462.841057 
L 538.498107 461.189798 
L 546.945332 459.527688 
L 555.392557 457.857735 
L 563.839782 456.177462 
L 572.287007 454.490481 
L 580.734231 452.793938 
L 589.181456 451.089813 
L 597.628681 449.378739 
L 606.075906 447.660796 
L 614.52313 445.936814 
L 622.970355 444.206169 
L 631.41758 442.469616 
L 639.864805 440.728433 
L 648.31203 438.982492 
L 656.759254 437.231232 
L 665.206479 435.474006 
L 673.653704 433.715378 
L 682.100929 431.951099 
L 690.548153 430.183908 
L 698.995378 428.414119 
L 707.442603 426.640687 
L 715.889828 424.864911 
L 724.337052 423.08848 
L 732.784277 421.30648 
L 741.231502 419.525588 
L 749.678727 417.744467 
L 758.125952 415.957728 
L 766.573176 414.171843 
L 775.020401 412.386437 
L 783.467626 410.601488 
L 791.914851 408.816697 
L 800.362075 407.028496 
L 808.8093 405.241054 
L 817.256525 403.454273 
L 825.70375 401.668743 
L 834.150975 399.884086 
L 842.598199 398.100685 
L 851.045424 396.318836 
L 859.492649 394.53887 
L 867.939874 392.761098 
L 876.387098 390.985992 
L 884.834323 389.208578 
L 893.281548 387.433635 
" clip-path="url(#p26f8b92b91)" style="fill: none; stroke: #ad494a; stroke-width: 2; stroke-linecap: round"/>
   </g>
   <g id="line2d_44">
    <path d="M 48.559071 524.353488 
L 57.006295 522.270955 
L 65.45352 521.440681 
L 73.900745 521.107198 
L 82.34797 520.958371 
L 90.795195 520.786764 
L 99.242419 520.563336 
L 107.689644 520.289311 
L 116.136869 519.965919 
L 124.584094 519.594346 
L 133.031318 519.175796 
L 141.478543 518.711413 
L 149.925768 518.202284 
L 158.372993 517.649508 
L 166.820217 517.054255 
L 175.267442 516.417549 
L 183.714667 515.740414 
L 192.161892 515.023899 
L 200.609117 514.269009 
L 209.056341 513.476712 
L 217.503566 512.648063 
L 225.950791 511.784002 
L 234.398016 510.885351 
L 242.84524 509.953088 
L 251.292465 508.988128 
L 259.73969 507.991367 
L 268.186915 506.963719 
L 276.63414 505.905941 
L 285.081364 504.818912 
L 293.528589 503.703408 
L 301.975814 502.560399 
L 310.423039 501.390525 
L 318.870263 500.194522 
L 327.317488 498.973327 
L 335.764713 497.727406 
L 344.211938 496.45771 
L 352.659162 495.164888 
L 361.106387 493.849529 
L 369.553612 492.512739 
L 378.000837 491.154778 
L 386.448062 489.776626 
L 394.895286 488.378502 
L 403.342511 486.961377 
L 411.789736 485.525686 
L 420.236961 484.072174 
L 428.684185 482.601656 
L 437.13141 481.114082 
L 445.578635 479.610844 
L 454.02586 478.09182 
L 462.473085 476.55798 
L 470.920309 475.009363 
L 479.367534 473.446601 
L 487.814759 471.871694 
L 496.261984 470.282439 
L 504.709208 468.681631 
L 513.156433 467.068808 
L 521.603658 465.444563 
L 530.050883 463.809509 
L 538.498107 462.163815 
L 546.945332 460.509362 
L 555.392557 458.843027 
L 563.839782 457.169612 
L 572.287007 455.485813 
L 580.734231 453.795322 
L 589.181456 452.096339 
L 597.628681 450.388911 
L 606.075906 448.674722 
L 614.52313 446.954525 
L 622.970355 445.22762 
L 631.41758 443.494677 
L 639.864805 441.756878 
L 648.31203 440.013998 
L 656.759254 438.265137 
L 665.206479 436.510679 
L 673.653704 434.754197 
L 682.100929 432.992848 
L 690.548153 431.227024 
L 698.995378 429.460383 
L 707.442603 427.687192 
L 715.889828 425.914599 
L 724.337052 424.136885 
L 732.784277 422.357893 
L 741.231502 420.580075 
L 749.678727 418.795203 
L 758.125952 417.011039 
L 766.573176 415.227672 
L 775.020401 413.44466 
L 783.467626 411.656246 
L 791.914851 409.868431 
L 800.362075 408.081348 
L 808.8093 406.294805 
L 817.256525 404.508595 
L 825.70375 402.723256 
L 834.150975 400.938366 
L 842.598199 399.154254 
L 851.045424 397.371158 
L 859.492649 395.589352 
L 867.939874 393.809088 
L 876.387098 392.030769 
L 884.834323 390.25466 
L 893.281548 388.481627 
" clip-path="url(#p26f8b92b91)" style="fill: none; stroke: #e7969c; stroke-width: 2; stroke-linecap: round"/>
   </g>
   <g id="line2d_45">
    <path d="M 48.559071 525.83073 
L 57.006295 522.857286 
L 65.45352 521.675137 
L 73.900745 521.201641 
L 82.34797 521.01041 
L 90.795195 520.859112 
L 99.242419 520.655513 
L 107.689644 520.400848 
L 116.136869 520.096352 
L 124.584094 519.743221 
L 133.031318 519.342664 
L 141.478543 518.895835 
L 149.925768 518.403831 
L 158.372993 517.867764 
L 166.820217 517.288793 
L 175.267442 516.667967 
L 183.714667 516.006317 
L 192.161892 515.304888 
L 200.609117 514.56469 
L 209.056341 513.786739 
L 217.503566 512.972033 
L 225.950791 512.121549 
L 234.398016 511.23612 
L 242.84524 510.316722 
L 251.292465 509.364323 
L 259.73969 508.37975 
L 268.186915 507.363965 
L 276.63414 506.317796 
L 285.081364 505.241942 
L 293.528589 504.137391 
L 301.975814 503.004951 
L 310.423039 501.845358 
L 318.870263 500.659347 
L 327.317488 499.447772 
L 335.764713 498.211395 
L 344.211938 496.950837 
L 352.659162 495.666898 
L 361.106387 494.36026 
L 369.553612 493.031758 
L 378.000837 491.681802 
L 386.448062 490.311367 
L 394.895286 488.920967 
L 403.342511 487.511309 
L 411.789736 486.082604 
L 420.236961 484.635919 
L 428.684185 483.171829 
L 437.13141 481.691194 
L 445.578635 480.193553 
L 454.02586 478.680383 
L 462.473085 477.152196 
L 470.920309 475.609391 
L 479.367534 474.052767 
L 487.814759 472.481832 
L 496.261984 470.898793 
L 504.709208 469.302248 
L 513.156433 467.6938 
L 521.603658 466.073956 
L 530.050883 464.443233 
L 538.498107 462.801695 
L 546.945332 461.15109 
L 555.392557 459.488368 
L 563.839782 457.818283 
L 572.287007 456.138093 
L 580.734231 454.451257 
L 589.181456 452.754274 
L 597.628681 451.050049 
L 606.075906 449.338902 
L 614.52313 447.621511 
L 622.970355 445.897107 
L 631.41758 444.166274 
L 639.864805 442.430097 
L 648.31203 440.688259 
L 656.759254 438.942765 
L 665.206479 437.191541 
L 673.653704 435.434504 
L 682.100929 433.675238 
L 690.548153 431.911889 
L 698.995378 430.143955 
L 707.442603 428.37499 
L 715.889828 426.601059 
L 724.337052 424.825438 
L 732.784277 423.048949 
L 741.231502 421.267113 
L 749.678727 419.48647 
L 758.125952 417.705064 
L 766.573176 415.918654 
L 775.020401 414.132934 
L 783.467626 412.347838 
L 791.914851 410.563026 
L 800.362075 408.777836 
L 808.8093 406.989779 
L 817.256525 405.202335 
L 825.70375 403.416043 
L 834.150975 401.630474 
L 842.598199 399.845955 
L 851.045424 398.062724 
L 859.492649 396.281052 
L 867.939874 394.501187 
L 876.387098 392.723535 
L 884.834323 390.948356 
L 893.281548 389.172071 
" clip-path="url(#p26f8b92b91)" style="fill: none; stroke: #a55194; stroke-width: 2; stroke-linecap: round"/>
   </g>
   <g id="line2d_46">
    <path d="M 48.559071 527.325048 
L 57.006295 523.448963 
L 65.45352 521.911164 
L 73.900745 521.296491 
L 82.34797 521.048956 
L 90.795195 520.907803 
L 99.242419 520.719046 
L 107.689644 520.47887 
L 116.136869 520.188517 
L 124.584094 519.84919 
L 133.031318 519.462104 
L 141.478543 519.028416 
L 149.925768 518.549233 
L 158.372993 518.025669 
L 166.820217 517.458895 
L 175.267442 516.849964 
L 183.714667 516.199901 
L 192.161892 515.50978 
L 200.609117 514.780586 
L 209.056341 514.013358 
L 217.503566 513.209115 
L 225.950791 512.368806 
L 234.398016 511.493281 
L 242.84524 510.583553 
L 251.292465 509.640557 
L 259.73969 508.665123 
L 268.186915 507.65827 
L 276.63414 506.620679 
L 285.081364 505.553251 
L 293.528589 504.456846 
L 301.975814 503.332429 
L 310.423039 502.180514 
L 318.870263 501.001956 
L 327.317488 499.79783 
L 335.764713 498.568522 
L 344.211938 497.314703 
L 352.659162 496.037469 
L 361.106387 494.737214 
L 369.553612 493.415034 
L 378.000837 492.071083 
L 386.448062 490.706661 
L 394.895286 489.321945 
L 403.342511 487.917378 
L 411.789736 486.494503 
L 420.236961 485.053226 
L 428.684185 483.593892 
L 437.13141 482.1176 
L 445.578635 480.625256 
L 454.02586 479.116302 
L 462.473085 477.592386 
L 470.920309 476.053804 
L 479.367534 474.501238 
L 487.814759 472.934062 
L 496.261984 471.354651 
L 504.709208 469.761735 
L 513.156433 468.156837 
L 521.603658 466.540378 
L 530.050883 464.912775 
L 538.498107 463.273993 
L 546.945332 461.62566 
L 555.392557 459.967221 
L 563.839782 458.298539 
L 572.287007 456.622373 
L 580.734231 454.93601 
L 589.181456 453.242109 
L 597.628681 451.541127 
L 606.075906 449.832875 
L 614.52313 448.116751 
L 622.970355 446.394041 
L 631.41758 444.665333 
L 639.864805 442.931721 
L 648.31203 441.190424 
L 656.759254 439.444583 
L 665.206479 437.694175 
L 673.653704 435.941318 
L 682.100929 434.181386 
L 690.548153 432.418731 
L 698.995378 430.653939 
L 707.442603 428.883131 
L 715.889828 427.112636 
L 724.337052 425.336143 
L 732.784277 423.559298 
L 741.231502 421.781655 
L 749.678727 419.998194 
L 758.125952 418.216072 
L 766.573176 416.43479 
L 775.020401 414.648177 
L 783.467626 412.861205 
L 791.914851 411.074735 
L 800.362075 409.288858 
L 808.8093 407.50334 
L 817.256525 405.717934 
L 825.70375 403.933127 
L 834.150975 402.148305 
L 842.598199 400.363444 
L 851.045424 398.580073 
L 859.492649 396.797679 
L 867.939874 395.015838 
L 876.387098 393.235348 
L 884.834323 391.45641 
L 893.281548 389.679816 
" clip-path="url(#p26f8b92b91)" style="fill: none; stroke: #de9ed6; stroke-width: 2; stroke-linecap: round"/>
   </g>
   <g id="patch_3">
    <path d="M 48.559071 521.153031 
L 48.559071 51.564121 
" style="fill: none"/>
   </g>
   <g id="patch_4">
    <path d="M 935.517672 521.153031 
L 935.517672 51.564121 
" style="fill: none"/>
   </g>
   <g id="patch_5">
    <path d="M 48.559071 521.153031 
L 935.517672 521.153031 
" style="fill: none"/>
   </g>
   <g id="patch_6">
    <path d="M 48.559071 51.564121 
L 935.517672 51.564121 
" style="fill: none"/>
   </g>
   <g id="patch_7">
    <path d="M 470.920309 80.68866 
Q 470.920309 274.018458 470.920309 465.671206 
" style="fill: none; stroke: #000000; stroke-width: 1.5; stroke-linecap: round"/>
    <path d="M 474.120309 459.271206 
L 470.920309 465.671206 
L 467.720309 459.271206 
" style="fill: none; stroke: #000000; stroke-width: 1.5; stroke-linecap: round"/>
   </g>
   <g id="text_20">
    <!-- Time -->
    <g style="fill: #262626" transform="translate(492.038371 465.861736) scale(0.18 -0.18)">
     <defs>
      <path id="CMR17-54" d="M 3981 4326 
L 288 4326 
L 179 2918 
L 294 2918 
C 378 3976 467 4160 1453 4160 
C 1568 4160 1754 4160 1805 4154 
C 1926 4135 1926 4058 1926 3912 
L 1926 459 
C 1926 230 1907 160 1376 160 
L 1197 160 
L 1197 0 
C 1504 0 1824 0 2138 0 
C 2451 0 2771 0 3078 0 
L 3078 160 
L 2899 160 
C 2368 160 2349 230 2349 459 
L 2349 3912 
C 2349 4052 2349 4129 2464 4154 
C 2515 4160 2701 4160 2816 4160 
C 3795 4160 3891 3976 3974 2918 
L 4090 2918 
L 3981 4326 
z
" transform="scale(0.015625)"/>
      <path id="CMR17-69" d="M 992 3909 
C 992 4049 877 4170 730 4170 
C 589 4170 467 4056 467 3909 
C 467 3769 582 3648 730 3648 
C 870 3648 992 3763 992 3909 
z
M 243 2706 
L 243 2541 
C 602 2541 653 2502 653 2197 
L 653 427 
C 653 184 627 153 218 153 
L 218 -13 
C 371 0 646 0 806 0 
C 960 0 1222 0 1370 -13 
L 1370 153 
C 992 153 979 191 979 420 
L 979 2776 
L 243 2706 
z
" transform="scale(0.015625)"/>
      <path id="CMR17-6d" d="M 4326 1933 
C 4326 2252 4269 2790 3507 2790 
C 3072 2790 2771 2496 2656 2151 
L 2650 2151 
C 2573 2676 2195 2790 1837 2790 
C 1331 2790 1069 2400 973 2144 
L 966 2144 
L 966 2790 
L 211 2720 
L 211 2554 
C 589 2554 646 2515 646 2208 
L 646 428 
C 646 184 621 153 211 153 
L 211 -13 
C 365 0 646 0 813 0 
C 979 0 1267 0 1421 -13 
L 1421 153 
C 1011 153 986 178 986 428 
L 986 1658 
C 986 2247 1344 2688 1792 2688 
C 2266 2688 2317 2266 2317 1958 
L 2317 428 
C 2317 184 2291 153 1882 153 
L 1882 -13 
C 2035 0 2317 0 2483 0 
C 2650 0 2938 0 3091 -13 
L 3091 153 
C 2682 153 2656 178 2656 428 
L 2656 1658 
C 2656 2247 3014 2688 3462 2688 
C 3936 2688 3987 2266 3987 1958 
L 3987 428 
C 3987 184 3962 153 3552 153 
L 3552 -13 
C 3706 0 3987 0 4154 0 
C 4320 0 4608 0 4762 -13 
L 4762 153 
C 4352 153 4326 178 4326 428 
L 4326 1933 
z
" transform="scale(0.015625)"/>
      <path id="CMR17-65" d="M 2438 1472 
C 2464 1498 2464 1511 2464 1576 
C 2464 2238 2118 2816 1389 2816 
C 710 2816 173 2169 173 1383 
C 173 551 781 -64 1459 -64 
C 2176 -64 2458 607 2458 740 
C 2458 784 2419 784 2406 784 
C 2362 784 2355 771 2330 696 
C 2189 265 1837 51 1504 51 
C 1229 51 954 203 781 480 
C 582 803 582 1176 582 1472 
L 2438 1472 
z
M 589 1568 
C 634 2505 1126 2714 1382 2714 
C 1818 2714 2112 2297 2118 1568 
L 589 1568 
z
" transform="scale(0.015625)"/>
     </defs>
     <use xlink:href="#CMR17-54" transform="scale(0.996264)"/>
     <use xlink:href="#CMR17-69" transform="translate(66.509881 0) scale(0.996264)"/>
     <use xlink:href="#CMR17-6d" transform="translate(91.380939 0) scale(0.996264)"/>
     <use xlink:href="#CMR17-65" transform="translate(168.300529 0) scale(0.996264)"/>
    </g>
   </g>
   <g id="legend_1">
    <g id="line2d_47">
     <path d="M 948.117672 197.198434 
L 962.117672 197.198434 
L 976.117672 197.198434 
" style="fill: none; stroke: #393b79; stroke-width: 2; stroke-linecap: round"/>
    </g>
    <g id="text_21">
     <!-- t = 0.00 -->
     <g style="fill: #262626" transform="translate(987.317672 202.098434) scale(0.14 -0.14)">
      <defs>
       <path id="CMR17-74" d="M 966 2560 
L 1862 2560 
L 1862 2725 
L 966 2725 
L 966 3904 
L 851 3904 
C 838 3245 614 2668 70 2668 
L 70 2560 
L 627 2560 
L 627 771 
C 627 650 627 -64 1370 -64 
C 1747 -64 1965 306 1965 777 
L 1965 1140 
L 1850 1140 
L 1850 783 
C 1850 344 1677 51 1408 51 
C 1222 51 966 178 966 758 
L 966 2560 
z
" transform="scale(0.015625)"/>
       <path id="CMR17-3d" d="M 4115 2017 
C 4211 2017 4307 2017 4307 2125 
C 4307 2240 4198 2240 4090 2240 
L 512 2240 
C 403 2240 294 2240 294 2125 
C 294 2017 390 2017 486 2017 
L 4115 2017 
z
M 4090 896 
C 4198 896 4307 896 4307 1011 
C 4307 1119 4211 1119 4115 1119 
L 486 1119 
C 390 1119 294 1119 294 1011 
C 294 896 403 896 512 896 
L 4090 896 
z
" transform="scale(0.015625)"/>
       <path id="CMR17-2e" d="M 1062 261 
C 1062 420 934 522 800 522 
C 672 522 538 420 538 261 
C 538 102 666 0 800 0 
C 928 0 1062 102 1062 261 
z
" transform="scale(0.015625)"/>
      </defs>
      <use xlink:href="#CMR17-74" transform="scale(0.996264)"/>
      <use xlink:href="#CMR17-3d" transform="translate(65.356734 0) scale(0.996264)"/>
      <use xlink:href="#CMR17-30" transform="translate(167.147489 0) scale(0.996264)"/>
      <use xlink:href="#CMR17-2e" transform="translate(212.837966 0) scale(0.996264)"/>
      <use xlink:href="#CMR17-30" transform="translate(237.709025 0) scale(0.996264)"/>
      <use xlink:href="#CMR17-30" transform="translate(283.399502 0) scale(0.996264)"/>
     </g>
    </g>
    <g id="line2d_48">
     <path d="M 948.117672 216.710462 
L 962.117672 216.710462 
L 976.117672 216.710462 
" style="fill: none; stroke: #6b6ecf; stroke-width: 2; stroke-linecap: round"/>
    </g>
    <g id="text_22">
     <!-- t = 10.00 -->
     <g style="fill: #262626" transform="translate(987.317672 221.610462) scale(0.14 -0.14)">
      <use xlink:href="#CMR17-74" transform="scale(0.996264)"/>
      <use xlink:href="#CMR17-3d" transform="translate(65.356734 0) scale(0.996264)"/>
      <use xlink:href="#CMR17-31" transform="translate(167.147489 0) scale(0.996264)"/>
      <use xlink:href="#CMR17-30" transform="translate(212.837966 0) scale(0.996264)"/>
      <use xlink:href="#CMR17-2e" transform="translate(258.528443 0) scale(0.996264)"/>
      <use xlink:href="#CMR17-30" transform="translate(283.399502 0) scale(0.996264)"/>
      <use xlink:href="#CMR17-30" transform="translate(329.089979 0) scale(0.996264)"/>
     </g>
    </g>
    <g id="line2d_49">
     <path d="M 948.117672 236.222491 
L 962.117672 236.222491 
L 976.117672 236.222491 
" style="fill: none; stroke: #637939; stroke-width: 2; stroke-linecap: round"/>
    </g>
    <g id="text_23">
     <!-- t = 50.00 -->
     <g style="fill: #262626" transform="translate(987.317672 241.122491) scale(0.14 -0.14)">
      <use xlink:href="#CMR17-74" transform="scale(0.996264)"/>
      <use xlink:href="#CMR17-3d" transform="translate(65.356734 0) scale(0.996264)"/>
      <use xlink:href="#CMR17-35" transform="translate(167.147489 0) scale(0.996264)"/>
      <use xlink:href="#CMR17-30" transform="translate(212.837966 0) scale(0.996264)"/>
      <use xlink:href="#CMR17-2e" transform="translate(258.528443 0) scale(0.996264)"/>
      <use xlink:href="#CMR17-30" transform="translate(283.399502 0) scale(0.996264)"/>
      <use xlink:href="#CMR17-30" transform="translate(329.089979 0) scale(0.996264)"/>
     </g>
    </g>
    <g id="line2d_50">
     <path d="M 948.117672 255.734519 
L 962.117672 255.734519 
L 976.117672 255.734519 
" style="fill: none; stroke: #b5cf6b; stroke-width: 2; stroke-linecap: round"/>
    </g>
    <g id="text_24">
     <!-- t = 100.00 -->
     <g style="fill: #262626" transform="translate(987.317672 260.634519) scale(0.14 -0.14)">
      <use xlink:href="#CMR17-74" transform="scale(0.996264)"/>
      <use xlink:href="#CMR17-3d" transform="translate(65.356734 0) scale(0.996264)"/>
      <use xlink:href="#CMR17-31" transform="translate(167.147489 0) scale(0.996264)"/>
      <use xlink:href="#CMR17-30" transform="translate(212.837966 0) scale(0.996264)"/>
      <use xlink:href="#CMR17-30" transform="translate(258.528443 0) scale(0.996264)"/>
      <use xlink:href="#CMR17-2e" transform="translate(304.21892 0) scale(0.996264)"/>
      <use xlink:href="#CMR17-30" transform="translate(329.089979 0) scale(0.996264)"/>
      <use xlink:href="#CMR17-30" transform="translate(374.780456 0) scale(0.996264)"/>
     </g>
    </g>
    <g id="line2d_51">
     <path d="M 948.117672 275.246547 
L 962.117672 275.246547 
L 976.117672 275.246547 
" style="fill: none; stroke: #8c6d31; stroke-width: 2; stroke-linecap: round"/>
    </g>
    <g id="text_25">
     <!-- t = 250.00 -->
     <g style="fill: #262626" transform="translate(987.317672 280.146547) scale(0.14 -0.14)">
      <use xlink:href="#CMR17-74" transform="scale(0.996264)"/>
      <use xlink:href="#CMR17-3d" transform="translate(65.356734 0) scale(0.996264)"/>
      <use xlink:href="#CMR17-32" transform="translate(167.147489 0) scale(0.996264)"/>
      <use xlink:href="#CMR17-35" transform="translate(212.837966 0) scale(0.996264)"/>
      <use xlink:href="#CMR17-30" transform="translate(258.528443 0) scale(0.996264)"/>
      <use xlink:href="#CMR17-2e" transform="translate(304.21892 0) scale(0.996264)"/>
      <use xlink:href="#CMR17-30" transform="translate(329.089979 0) scale(0.996264)"/>
      <use xlink:href="#CMR17-30" transform="translate(374.780456 0) scale(0.996264)"/>
     </g>
    </g>
    <g id="line2d_52">
     <path d="M 948.117672 294.758576 
L 962.117672 294.758576 
L 976.117672 294.758576 
" style="fill: none; stroke: #e7cb94; stroke-width: 2; stroke-linecap: round"/>
    </g>
    <g id="text_26">
     <!-- t = 500.00 -->
     <g style="fill: #262626" transform="translate(987.317672 299.658576) scale(0.14 -0.14)">
      <use xlink:href="#CMR17-74" transform="scale(0.996264)"/>
      <use xlink:href="#CMR17-3d" transform="translate(65.356734 0) scale(0.996264)"/>
      <use xlink:href="#CMR17-35" transform="translate(167.147489 0) scale(0.996264)"/>
      <use xlink:href="#CMR17-30" transform="translate(212.837966 0) scale(0.996264)"/>
      <use xlink:href="#CMR17-30" transform="translate(258.528443 0) scale(0.996264)"/>
      <use xlink:href="#CMR17-2e" transform="translate(304.21892 0) scale(0.996264)"/>
      <use xlink:href="#CMR17-30" transform="translate(329.089979 0) scale(0.996264)"/>
      <use xlink:href="#CMR17-30" transform="translate(374.780456 0) scale(0.996264)"/>
     </g>
    </g>
    <g id="line2d_53">
     <path d="M 948.117672 314.270604 
L 962.117672 314.270604 
L 976.117672 314.270604 
" style="fill: none; stroke: #ad494a; stroke-width: 2; stroke-linecap: round"/>
    </g>
    <g id="text_27">
     <!-- t = 750.00 -->
     <g style="fill: #262626" transform="translate(987.317672 319.170604) scale(0.14 -0.14)">
      <use xlink:href="#CMR17-74" transform="scale(0.996264)"/>
      <use xlink:href="#CMR17-3d" transform="translate(65.356734 0) scale(0.996264)"/>
      <use xlink:href="#CMR17-37" transform="translate(167.147489 0) scale(0.996264)"/>
      <use xlink:href="#CMR17-35" transform="translate(212.837966 0) scale(0.996264)"/>
      <use xlink:href="#CMR17-30" transform="translate(258.528443 0) scale(0.996264)"/>
      <use xlink:href="#CMR17-2e" transform="translate(304.21892 0) scale(0.996264)"/>
      <use xlink:href="#CMR17-30" transform="translate(329.089979 0) scale(0.996264)"/>
      <use xlink:href="#CMR17-30" transform="translate(374.780456 0) scale(0.996264)"/>
     </g>
    </g>
    <g id="line2d_54">
     <path d="M 948.117672 333.782633 
L 962.117672 333.782633 
L 976.117672 333.782633 
" style="fill: none; stroke: #e7969c; stroke-width: 2; stroke-linecap: round"/>
    </g>
    <g id="text_28">
     <!-- t = 1000.00 -->
     <g style="fill: #262626" transform="translate(987.317672 338.682633) scale(0.14 -0.14)">
      <use xlink:href="#CMR17-74" transform="scale(0.996264)"/>
      <use xlink:href="#CMR17-3d" transform="translate(65.356734 0) scale(0.996264)"/>
      <use xlink:href="#CMR17-31" transform="translate(167.147489 0) scale(0.996264)"/>
      <use xlink:href="#CMR17-30" transform="translate(212.837966 0) scale(0.996264)"/>
      <use xlink:href="#CMR17-30" transform="translate(258.528443 0) scale(0.996264)"/>
      <use xlink:href="#CMR17-30" transform="translate(304.21892 0) scale(0.996264)"/>
      <use xlink:href="#CMR17-2e" transform="translate(349.909397 0) scale(0.996264)"/>
      <use xlink:href="#CMR17-30" transform="translate(374.780456 0) scale(0.996264)"/>
      <use xlink:href="#CMR17-30" transform="translate(420.470933 0) scale(0.996264)"/>
     </g>
    </g>
    <g id="line2d_55">
     <path d="M 948.117672 353.294661 
L 962.117672 353.294661 
L 976.117672 353.294661 
" style="fill: none; stroke: #a55194; stroke-width: 2; stroke-linecap: round"/>
    </g>
    <g id="text_29">
     <!-- t = 1250.00 -->
     <g style="fill: #262626" transform="translate(987.317672 358.194661) scale(0.14 -0.14)">
      <use xlink:href="#CMR17-74" transform="scale(0.996264)"/>
      <use xlink:href="#CMR17-3d" transform="translate(65.356734 0) scale(0.996264)"/>
      <use xlink:href="#CMR17-31" transform="translate(167.147489 0) scale(0.996264)"/>
      <use xlink:href="#CMR17-32" transform="translate(212.837966 0) scale(0.996264)"/>
      <use xlink:href="#CMR17-35" transform="translate(258.528443 0) scale(0.996264)"/>
      <use xlink:href="#CMR17-30" transform="translate(304.21892 0) scale(0.996264)"/>
      <use xlink:href="#CMR17-2e" transform="translate(349.909397 0) scale(0.996264)"/>
      <use xlink:href="#CMR17-30" transform="translate(374.780456 0) scale(0.996264)"/>
      <use xlink:href="#CMR17-30" transform="translate(420.470933 0) scale(0.996264)"/>
     </g>
    </g>
    <g id="line2d_56">
     <path d="M 948.117672 372.806689 
L 962.117672 372.806689 
L 976.117672 372.806689 
" style="fill: none; stroke: #de9ed6; stroke-width: 2; stroke-linecap: round"/>
    </g>
    <g id="text_30">
     <!-- t = 1500.00 -->
     <g style="fill: #262626" transform="translate(987.317672 377.706689) scale(0.14 -0.14)">
      <use xlink:href="#CMR17-74" transform="scale(0.996264)"/>
      <use xlink:href="#CMR17-3d" transform="translate(65.356734 0) scale(0.996264)"/>
      <use xlink:href="#CMR17-31" transform="translate(167.147489 0) scale(0.996264)"/>
      <use xlink:href="#CMR17-35" transform="translate(212.837966 0) scale(0.996264)"/>
      <use xlink:href="#CMR17-30" transform="translate(258.528443 0) scale(0.996264)"/>
      <use xlink:href="#CMR17-30" transform="translate(304.21892 0) scale(0.996264)"/>
      <use xlink:href="#CMR17-2e" transform="translate(349.909397 0) scale(0.996264)"/>
      <use xlink:href="#CMR17-30" transform="translate(374.780456 0) scale(0.996264)"/>
      <use xlink:href="#CMR17-30" transform="translate(420.470933 0) scale(0.996264)"/>
     </g>
    </g>
   </g>
  </g>
  <g id="text_31">
   <!-- permeability -->
   <g style="fill: #262626" transform="translate(492.111452 24.803515) scale(0.192 -0.192)">
    <defs>
     <path id="CMR17-70" d="M 1408 -1063 
C 998 -1063 973 -1037 973 -789 
L 973 402 
C 1158 134 1427 -38 1766 -38 
C 2406 -38 3053 523 3053 1388 
C 3053 2191 2496 2802 1837 2802 
C 1453 2802 1139 2592 960 2338 
L 960 2802 
L 198 2732 
L 198 2567 
C 576 2567 634 2528 634 2223 
L 634 -789 
C 634 -1031 608 -1063 198 -1063 
L 198 -1228 
C 352 -1216 634 -1216 800 -1216 
C 966 -1216 1254 -1216 1408 -1228 
L 1408 -1063 
z
M 973 2012 
C 973 2102 973 2235 1222 2471 
C 1254 2497 1472 2688 1792 2688 
C 2259 2688 2643 2108 2643 1382 
C 2643 656 2234 64 1728 64 
C 1498 64 1248 172 1056 472 
C 973 612 973 650 973 752 
L 973 2012 
z
" transform="scale(0.015625)"/>
     <path id="CMR17-72" d="M 960 1497 
C 960 2112 1222 2688 1702 2688 
C 1747 2688 1792 2682 1837 2662 
C 1837 2662 1696 2617 1696 2452 
C 1696 2298 1818 2234 1914 2234 
C 1990 2234 2131 2279 2131 2458 
C 2131 2663 1926 2790 1709 2790 
C 1222 2790 1011 2317 947 2093 
L 941 2093 
L 941 2790 
L 198 2720 
L 198 2554 
C 576 2554 634 2515 634 2208 
L 634 428 
C 634 184 608 153 198 153 
L 198 -13 
C 352 0 646 0 813 0 
C 998 0 1325 0 1498 -13 
L 1498 153 
C 1037 153 960 153 960 440 
L 960 1497 
z
" transform="scale(0.015625)"/>
     <path id="CMR17-61" d="M 2304 1653 
C 2304 2072 2304 2294 2035 2543 
C 1798 2752 1523 2816 1306 2816 
C 800 2816 435 2407 435 1971 
C 435 1728 627 1728 666 1728 
C 749 1728 896 1778 896 1954 
C 896 2112 774 2181 666 2181 
C 640 2181 608 2174 589 2168 
C 723 2592 1069 2714 1293 2714 
C 1613 2714 1965 2429 1965 1885 
L 1965 1600 
C 1587 1600 1133 1549 774 1357 
C 371 1133 256 813 256 570 
C 256 77 832 -64 1171 -64 
C 1523 -64 1850 139 1990 511 
C 2003 233 2182 -18 2464 -18 
C 2598 -18 2938 70 2938 567 
L 2938 920 
L 2822 920 
L 2822 562 
C 2822 178 2650 128 2566 128 
C 2304 128 2304 458 2304 738 
L 2304 1653 
z
M 1965 870 
C 1965 317 1568 38 1216 38 
C 896 38 646 275 646 570 
C 646 761 730 1100 1101 1305 
C 1408 1478 1760 1504 1965 1504 
L 1965 870 
z
" transform="scale(0.015625)"/>
     <path id="CMR17-62" d="M 960 4396 
L 198 4326 
L 198 4160 
C 576 4160 634 4122 634 3817 
L 634 -13 
L 749 -13 
L 934 441 
C 1120 141 1395 -64 1766 -64 
C 2406 -64 3053 500 3053 1370 
C 3053 2188 2477 2790 1830 2790 
C 1434 2790 1152 2579 960 2330 
L 960 4396 
z
M 973 2004 
C 973 2118 973 2138 1062 2272 
C 1312 2657 1670 2688 1792 2688 
C 1984 2688 2643 2585 2643 1376 
C 2643 108 1888 38 1734 38 
C 1536 38 1248 114 1043 486 
C 973 608 973 621 973 735 
L 973 2004 
z
" transform="scale(0.015625)"/>
     <path id="CMR17-6c" d="M 979 4396 
L 218 4326 
L 218 4160 
C 595 4160 653 4122 653 3817 
L 653 426 
C 653 184 627 153 218 153 
L 218 -13 
C 371 0 653 0 813 0 
C 979 0 1261 0 1414 -13 
L 1414 153 
C 1005 153 979 178 979 426 
L 979 4396 
z
" transform="scale(0.015625)"/>
     <path id="CMR17-79" d="M 2496 2197 
C 2656 2586 2944 2586 3034 2586 
L 3034 2752 
C 2912 2752 2752 2752 2630 2752 
C 2496 2752 2285 2752 2157 2758 
L 2157 2592 
C 2400 2573 2406 2394 2406 2343 
C 2406 2280 2394 2248 2362 2171 
L 1664 449 
L 902 2306 
C 870 2382 870 2426 870 2433 
C 870 2573 1018 2586 1171 2586 
L 1171 2758 
C 1018 2752 742 2752 582 2752 
C 410 2752 205 2752 64 2758 
L 64 2586 
C 410 2586 448 2554 531 2350 
L 1485 15 
C 1197 -738 1030 -1178 627 -1178 
C 557 -1178 397 -1159 282 -1044 
C 429 -1031 493 -942 493 -833 
C 493 -725 416 -629 288 -629 
C 147 -629 77 -725 77 -840 
C 77 -1095 339 -1280 627 -1280 
C 998 -1280 1229 -922 1357 -604 
L 2496 2197 
z
" transform="scale(0.015625)"/>
    </defs>
    <use xlink:href="#CMR17-70" transform="scale(0.996264)"/>
    <use xlink:href="#CMR17-65" transform="translate(53.497809 0) scale(0.996264)"/>
    <use xlink:href="#CMR17-72" transform="translate(93.983469 0) scale(0.996264)"/>
    <use xlink:href="#CMR17-6d" transform="translate(129.264237 0) scale(0.996264)"/>
    <use xlink:href="#CMR17-65" transform="translate(206.183827 0) scale(0.996264)"/>
    <use xlink:href="#CMR17-61" transform="translate(246.669487 0) scale(0.996264)"/>
    <use xlink:href="#CMR17-62" transform="translate(292.359964 0) scale(0.996264)"/>
    <use xlink:href="#CMR17-69" transform="translate(343.255334 0) scale(0.996264)"/>
    <use xlink:href="#CMR17-6c" transform="translate(368.126392 0) scale(0.996264)"/>
    <use xlink:href="#CMR17-69" transform="translate(392.997451 0) scale(0.996264)"/>
    <use xlink:href="#CMR17-74" transform="translate(417.868509 0) scale(0.996264)"/>
    <use xlink:href="#CMR17-79" transform="translate(450.546823 0) scale(0.996264)"/>
   </g>
  </g>
 </g>
 <defs>
  <clipPath id="p26f8b92b91">
   <rect x="48.559071" y="51.564121" width="886.958601" height="469.58891"/>
  </clipPath>
 </defs>
</svg>
