<?xml version="1.0" encoding="utf-8" standalone="no"?>
<!DOCTYPE svg PUBLIC "-//W3C//DTD SVG 1.1//EN"
  "http://www.w3.org/Graphics/SVG/1.1/DTD/svg11.dtd">
<svg xmlns:xlink="http://www.w3.org/1999/xlink" width="1080pt" height="576pt" viewBox="0 0 1080 576" xmlns="http://www.w3.org/2000/svg" version="1.1">
 <metadata>
  <rdf:RDF xmlns:dc="http://purl.org/dc/elements/1.1/" xmlns:cc="http://creativecommons.org/ns#" xmlns:rdf="http://www.w3.org/1999/02/22-rdf-syntax-ns#">
   <cc:Work>
    <dc:type rdf:resource="http://purl.org/dc/dcmitype/StillImage"/>
    <dc:date>2024-06-28T11:17:06.722451</dc:date>
    <dc:format>image/svg+xml</dc:format>
    <dc:creator>
     <cc:Agent>
      <dc:title>Matplotlib v3.9.0, https://matplotlib.org/</dc:title>
     </cc:Agent>
    </dc:creator>
   </cc:Work>
  </rdf:RDF>
 </metadata>
 <defs>
  <style type="text/css">*{stroke-linejoin: round; stroke-linecap: butt}</style>
 </defs>
 <g id="figure_1">
  <g id="patch_1">
   <path d="M 0 576 
L 1080 576 
L 1080 0 
L 0 0 
z
" style="fill: #ffffff"/>
  </g>
  <g id="axes_1">
   <g id="patch_2">
    <path d="M 51.593955 521.153031 
L 935.517672 521.153031 
L 935.517672 51.564121 
L 51.593955 51.564121 
z
" style="fill: #eaeaf2"/>
   </g>
   <g id="matplotlib.axis_1">
    <g id="xtick_1">
     <g id="line2d_1">
      <path d="M 51.593955 521.153031 
L 51.593955 51.564121 
" clip-path="url(#pa44e1a3953)" style="fill: none; stroke: #ffffff; stroke-linecap: round"/>
     </g>
     <g id="line2d_2"/>
     <g id="text_1">
      <!-- $\mathdefault{0.00}$ -->
      <g style="fill: #262626" transform="translate(39.454419 537.838907) scale(0.14 -0.14)">
       <defs>
        <path id="CMR17-30" d="M 2688 2025 
C 2688 2416 2682 3080 2413 3591 
C 2176 4039 1798 4198 1466 4198 
C 1158 4198 768 4058 525 3597 
C 269 3118 243 2524 243 2025 
C 243 1661 250 1106 448 619 
C 723 -39 1216 -128 1466 -128 
C 1760 -128 2208 -7 2470 600 
C 2662 1042 2688 1559 2688 2025 
z
M 1466 -26 
C 1056 -26 813 325 723 812 
C 653 1188 653 1738 653 2096 
C 653 2588 653 2997 736 3387 
C 858 3929 1216 4096 1466 4096 
C 1728 4096 2067 3923 2189 3400 
C 2272 3036 2278 2607 2278 2096 
C 2278 1680 2278 1169 2202 792 
C 2067 95 1690 -26 1466 -26 
z
" transform="scale(0.015625)"/>
        <path id="CMMI12-3a" d="M 1178 307 
C 1178 492 1024 619 870 619 
C 685 619 557 466 557 313 
C 557 128 710 0 864 0 
C 1050 0 1178 153 1178 307 
z
" transform="scale(0.015625)"/>
       </defs>
       <use xlink:href="#CMR17-30" transform="scale(0.996264)"/>
       <use xlink:href="#CMMI12-3a" transform="translate(45.690477 0) scale(0.996264)"/>
       <use xlink:href="#CMR17-30" transform="translate(72.787654 0) scale(0.996264)"/>
       <use xlink:href="#CMR17-30" transform="translate(118.478131 0) scale(0.996264)"/>
      </g>
     </g>
    </g>
    <g id="xtick_2">
     <g id="line2d_3">
      <path d="M 156.822968 521.153031 
L 156.822968 51.564121 
" clip-path="url(#pa44e1a3953)" style="fill: none; stroke: #ffffff; stroke-linecap: round"/>
     </g>
     <g id="line2d_4"/>
     <g id="text_2">
      <!-- $\mathdefault{0.25}$ -->
      <g style="fill: #262626" transform="translate(144.683433 537.838907) scale(0.14 -0.14)">
       <defs>
        <path id="CMR17-32" d="M 2669 989 
L 2554 989 
C 2490 536 2438 459 2413 420 
C 2381 369 1920 369 1830 369 
L 602 369 
C 832 619 1280 1072 1824 1597 
C 2214 1967 2669 2402 2669 3035 
C 2669 3790 2067 4224 1395 4224 
C 691 4224 262 3604 262 3030 
C 262 2780 448 2748 525 2748 
C 589 2748 781 2787 781 3010 
C 781 3207 614 3264 525 3264 
C 486 3264 448 3258 422 3245 
C 544 3790 915 4058 1306 4058 
C 1862 4058 2227 3617 2227 3035 
C 2227 2479 1901 2000 1536 1584 
L 262 146 
L 262 0 
L 2515 0 
L 2669 989 
z
" transform="scale(0.015625)"/>
        <path id="CMR17-35" d="M 730 3692 
C 794 3666 1056 3584 1325 3584 
C 1920 3584 2246 3911 2432 4100 
C 2432 4157 2432 4192 2394 4192 
C 2387 4192 2374 4192 2323 4163 
C 2099 4058 1837 3973 1517 3973 
C 1325 3973 1037 3999 723 4139 
C 653 4171 640 4171 634 4171 
C 602 4171 595 4164 595 4037 
L 595 2203 
C 595 2089 595 2057 659 2057 
C 691 2057 704 2070 736 2114 
C 941 2401 1222 2522 1542 2522 
C 1766 2522 2246 2382 2246 1289 
C 2246 1085 2246 715 2054 421 
C 1894 159 1645 25 1370 25 
C 947 25 518 320 403 814 
C 429 807 480 795 506 795 
C 589 795 749 840 749 1038 
C 749 1210 627 1280 506 1280 
C 358 1280 262 1190 262 1011 
C 262 454 704 -128 1382 -128 
C 2042 -128 2669 440 2669 1264 
C 2669 2030 2170 2624 1549 2624 
C 1222 2624 947 2503 730 2274 
L 730 3692 
z
" transform="scale(0.015625)"/>
       </defs>
       <use xlink:href="#CMR17-30" transform="scale(0.996264)"/>
       <use xlink:href="#CMMI12-3a" transform="translate(45.690477 0) scale(0.996264)"/>
       <use xlink:href="#CMR17-32" transform="translate(72.787654 0) scale(0.996264)"/>
       <use xlink:href="#CMR17-35" transform="translate(118.478131 0) scale(0.996264)"/>
      </g>
     </g>
    </g>
    <g id="xtick_3">
     <g id="line2d_5">
      <path d="M 262.051982 521.153031 
L 262.051982 51.564121 
" clip-path="url(#pa44e1a3953)" style="fill: none; stroke: #ffffff; stroke-linecap: round"/>
     </g>
     <g id="line2d_6"/>
     <g id="text_3">
      <!-- $\mathdefault{0.50}$ -->
      <g style="fill: #262626" transform="translate(249.912447 537.838907) scale(0.14 -0.14)">
       <use xlink:href="#CMR17-30" transform="scale(0.996264)"/>
       <use xlink:href="#CMMI12-3a" transform="translate(45.690477 0) scale(0.996264)"/>
       <use xlink:href="#CMR17-35" transform="translate(72.787654 0) scale(0.996264)"/>
       <use xlink:href="#CMR17-30" transform="translate(118.478131 0) scale(0.996264)"/>
      </g>
     </g>
    </g>
    <g id="xtick_4">
     <g id="line2d_7">
      <path d="M 367.280996 521.153031 
L 367.280996 51.564121 
" clip-path="url(#pa44e1a3953)" style="fill: none; stroke: #ffffff; stroke-linecap: round"/>
     </g>
     <g id="line2d_8"/>
     <g id="text_4">
      <!-- $\mathdefault{0.75}$ -->
      <g style="fill: #262626" transform="translate(355.141461 537.838907) scale(0.14 -0.14)">
       <defs>
        <path id="CMR17-37" d="M 2886 3941 
L 2886 4081 
L 1382 4081 
C 634 4081 621 4165 595 4288 
L 480 4288 
L 294 3094 
L 410 3094 
C 429 3215 474 3540 550 3661 
C 589 3712 1062 3712 1171 3712 
L 2579 3712 
L 1869 2661 
C 1395 1954 1069 999 1069 165 
C 1069 89 1069 -128 1299 -128 
C 1530 -128 1530 89 1530 171 
L 1530 465 
C 1530 1508 1709 2196 2003 2636 
L 2886 3941 
z
" transform="scale(0.015625)"/>
       </defs>
       <use xlink:href="#CMR17-30" transform="scale(0.996264)"/>
       <use xlink:href="#CMMI12-3a" transform="translate(45.690477 0) scale(0.996264)"/>
       <use xlink:href="#CMR17-37" transform="translate(72.787654 0) scale(0.996264)"/>
       <use xlink:href="#CMR17-35" transform="translate(118.478131 0) scale(0.996264)"/>
      </g>
     </g>
    </g>
    <g id="xtick_5">
     <g id="line2d_9">
      <path d="M 472.51001 521.153031 
L 472.51001 51.564121 
" clip-path="url(#pa44e1a3953)" style="fill: none; stroke: #ffffff; stroke-linecap: round"/>
     </g>
     <g id="line2d_10"/>
     <g id="text_5">
      <!-- $\mathdefault{1.00}$ -->
      <g style="fill: #262626" transform="translate(460.370475 537.838907) scale(0.14 -0.14)">
       <defs>
        <path id="CMR17-31" d="M 1702 4058 
C 1702 4192 1696 4192 1606 4192 
C 1357 3916 979 3827 621 3827 
C 602 3827 570 3827 563 3808 
C 557 3795 557 3782 557 3648 
C 755 3648 1088 3686 1344 3839 
L 1344 461 
C 1344 236 1331 160 781 160 
L 589 160 
L 589 0 
C 896 0 1216 0 1523 0 
C 1830 0 2150 0 2458 0 
L 2458 160 
L 2266 160 
C 1715 160 1702 230 1702 458 
L 1702 4058 
z
" transform="scale(0.015625)"/>
       </defs>
       <use xlink:href="#CMR17-31" transform="scale(0.996264)"/>
       <use xlink:href="#CMMI12-3a" transform="translate(45.690477 0) scale(0.996264)"/>
       <use xlink:href="#CMR17-30" transform="translate(72.787654 0) scale(0.996264)"/>
       <use xlink:href="#CMR17-30" transform="translate(118.478131 0) scale(0.996264)"/>
      </g>
     </g>
    </g>
    <g id="xtick_6">
     <g id="line2d_11">
      <path d="M 577.739024 521.153031 
L 577.739024 51.564121 
" clip-path="url(#pa44e1a3953)" style="fill: none; stroke: #ffffff; stroke-linecap: round"/>
     </g>
     <g id="line2d_12"/>
     <g id="text_6">
      <!-- $\mathdefault{1.25}$ -->
      <g style="fill: #262626" transform="translate(565.599489 537.838907) scale(0.14 -0.14)">
       <use xlink:href="#CMR17-31" transform="scale(0.996264)"/>
       <use xlink:href="#CMMI12-3a" transform="translate(45.690477 0) scale(0.996264)"/>
       <use xlink:href="#CMR17-32" transform="translate(72.787654 0) scale(0.996264)"/>
       <use xlink:href="#CMR17-35" transform="translate(118.478131 0) scale(0.996264)"/>
      </g>
     </g>
    </g>
    <g id="xtick_7">
     <g id="line2d_13">
      <path d="M 682.968038 521.153031 
L 682.968038 51.564121 
" clip-path="url(#pa44e1a3953)" style="fill: none; stroke: #ffffff; stroke-linecap: round"/>
     </g>
     <g id="line2d_14"/>
     <g id="text_7">
      <!-- $\mathdefault{1.50}$ -->
      <g style="fill: #262626" transform="translate(670.828503 537.838907) scale(0.14 -0.14)">
       <use xlink:href="#CMR17-31" transform="scale(0.996264)"/>
       <use xlink:href="#CMMI12-3a" transform="translate(45.690477 0) scale(0.996264)"/>
       <use xlink:href="#CMR17-35" transform="translate(72.787654 0) scale(0.996264)"/>
       <use xlink:href="#CMR17-30" transform="translate(118.478131 0) scale(0.996264)"/>
      </g>
     </g>
    </g>
    <g id="xtick_8">
     <g id="line2d_15">
      <path d="M 788.197052 521.153031 
L 788.197052 51.564121 
" clip-path="url(#pa44e1a3953)" style="fill: none; stroke: #ffffff; stroke-linecap: round"/>
     </g>
     <g id="line2d_16"/>
     <g id="text_8">
      <!-- $\mathdefault{1.75}$ -->
      <g style="fill: #262626" transform="translate(776.057517 537.838907) scale(0.14 -0.14)">
       <use xlink:href="#CMR17-31" transform="scale(0.996264)"/>
       <use xlink:href="#CMMI12-3a" transform="translate(45.690477 0) scale(0.996264)"/>
       <use xlink:href="#CMR17-37" transform="translate(72.787654 0) scale(0.996264)"/>
       <use xlink:href="#CMR17-35" transform="translate(118.478131 0) scale(0.996264)"/>
      </g>
     </g>
    </g>
    <g id="xtick_9">
     <g id="line2d_17">
      <path d="M 893.426066 521.153031 
L 893.426066 51.564121 
" clip-path="url(#pa44e1a3953)" style="fill: none; stroke: #ffffff; stroke-linecap: round"/>
     </g>
     <g id="line2d_18"/>
     <g id="text_9">
      <!-- $\mathdefault{2.00}$ -->
      <g style="fill: #262626" transform="translate(881.286531 537.838907) scale(0.14 -0.14)">
       <use xlink:href="#CMR17-32" transform="scale(0.996264)"/>
       <use xlink:href="#CMMI12-3a" transform="translate(45.690477 0) scale(0.996264)"/>
       <use xlink:href="#CMR17-30" transform="translate(72.787654 0) scale(0.996264)"/>
       <use xlink:href="#CMR17-30" transform="translate(118.478131 0) scale(0.996264)"/>
      </g>
     </g>
    </g>
    <g id="text_10">
     <!-- $x$ -->
     <g style="fill: #262626" transform="translate(489.121088 555.620524) scale(0.16 -0.16)">
      <defs>
       <path id="CMMI12-78" d="M 3034 2606 
C 2829 2567 2752 2414 2752 2293 
C 2752 2139 2874 2088 2963 2088 
C 3155 2088 3290 2254 3290 2427 
C 3290 2695 2982 2816 2714 2816 
C 2323 2816 2106 2433 2048 2312 
C 1901 2816 1504 2816 1389 2816 
C 736 2816 390 1980 390 1839 
C 390 1814 416 1782 461 1782 
C 512 1782 525 1820 538 1846 
C 755 2555 1184 2689 1370 2689 
C 1658 2689 1715 2420 1715 2267 
C 1715 2127 1677 1980 1600 1673 
L 1382 798 
C 1286 415 1101 64 762 64 
C 730 64 570 64 435 147 
C 666 192 717 383 717 460 
C 717 588 621 664 499 664 
C 346 664 179 530 179 326 
C 179 57 480 -64 755 -64 
C 1062 -64 1280 179 1414 441 
C 1517 64 1837 -64 2074 -64 
C 2726 -64 3072 773 3072 913 
C 3072 945 3046 971 3008 971 
C 2950 971 2944 939 2925 888 
C 2752 326 2381 64 2093 64 
C 1869 64 1747 230 1747 492 
C 1747 632 1773 734 1875 1156 
L 2099 2024 
C 2195 2408 2413 2689 2707 2689 
C 2720 2689 2899 2689 3034 2606 
z
" transform="scale(0.015625)"/>
      </defs>
      <use xlink:href="#CMMI12-78" transform="scale(0.996264)"/>
     </g>
    </g>
   </g>
   <g id="matplotlib.axis_2">
    <g id="ytick_1">
     <g id="line2d_19">
      <path d="M 51.593955 521.153031 
L 935.517672 521.153031 
" clip-path="url(#pa44e1a3953)" style="fill: none; stroke: #ffffff; stroke-linecap: round"/>
     </g>
     <g id="line2d_20"/>
     <g id="text_11">
      <!-- $\mathdefault{0}$ -->
      <g style="fill: #262626" transform="translate(37.765466 525.995969) scale(0.14 -0.14)">
       <use xlink:href="#CMR17-30" transform="scale(0.996264)"/>
      </g>
     </g>
    </g>
    <g id="ytick_2">
     <g id="line2d_21">
      <path d="M 51.593955 435.48685 
L 935.517672 435.48685 
" clip-path="url(#pa44e1a3953)" style="fill: none; stroke: #ffffff; stroke-linecap: round"/>
     </g>
     <g id="line2d_22"/>
     <g id="text_12">
      <!-- $\mathdefault{1000}$ -->
      <g style="fill: #262626" transform="translate(17.28 440.329788) scale(0.14 -0.14)">
       <use xlink:href="#CMR17-31" transform="scale(0.996264)"/>
       <use xlink:href="#CMR17-30" transform="translate(45.690477 0) scale(0.996264)"/>
       <use xlink:href="#CMR17-30" transform="translate(91.380954 0) scale(0.996264)"/>
       <use xlink:href="#CMR17-30" transform="translate(137.071431 0) scale(0.996264)"/>
      </g>
     </g>
    </g>
    <g id="ytick_3">
     <g id="line2d_23">
      <path d="M 51.593955 349.820669 
L 935.517672 349.820669 
" clip-path="url(#pa44e1a3953)" style="fill: none; stroke: #ffffff; stroke-linecap: round"/>
     </g>
     <g id="line2d_24"/>
     <g id="text_13">
      <!-- $\mathdefault{2000}$ -->
      <g style="fill: #262626" transform="translate(17.28 354.663607) scale(0.14 -0.14)">
       <use xlink:href="#CMR17-32" transform="scale(0.996264)"/>
       <use xlink:href="#CMR17-30" transform="translate(45.690477 0) scale(0.996264)"/>
       <use xlink:href="#CMR17-30" transform="translate(91.380954 0) scale(0.996264)"/>
       <use xlink:href="#CMR17-30" transform="translate(137.071431 0) scale(0.996264)"/>
      </g>
     </g>
    </g>
    <g id="ytick_4">
     <g id="line2d_25">
      <path d="M 51.593955 264.154488 
L 935.517672 264.154488 
" clip-path="url(#pa44e1a3953)" style="fill: none; stroke: #ffffff; stroke-linecap: round"/>
     </g>
     <g id="line2d_26"/>
     <g id="text_14">
      <!-- $\mathdefault{3000}$ -->
      <g style="fill: #262626" transform="translate(17.28 268.997426) scale(0.14 -0.14)">
       <defs>
        <path id="CMR17-33" d="M 1414 2157 
C 1984 2157 2234 1662 2234 1090 
C 2234 320 1824 25 1453 25 
C 1114 25 563 194 390 693 
C 422 680 454 680 486 680 
C 640 680 755 782 755 948 
C 755 1133 614 1216 486 1216 
C 378 1216 211 1165 211 926 
C 211 335 787 -128 1466 -128 
C 2176 -128 2720 430 2720 1085 
C 2720 1707 2208 2157 1600 2227 
C 2086 2328 2554 2756 2554 3329 
C 2554 3820 2048 4179 1472 4179 
C 890 4179 378 3829 378 3329 
C 378 3110 544 3072 627 3072 
C 762 3072 877 3155 877 3321 
C 877 3486 762 3569 627 3569 
C 602 3569 570 3569 544 3557 
C 730 3959 1235 4032 1459 4032 
C 1683 4032 2106 3925 2106 3320 
C 2106 3143 2080 2828 1862 2550 
C 1670 2304 1453 2304 1242 2284 
C 1210 2284 1062 2269 1037 2269 
C 992 2263 966 2257 966 2208 
C 966 2163 973 2157 1101 2157 
L 1414 2157 
z
" transform="scale(0.015625)"/>
       </defs>
       <use xlink:href="#CMR17-33" transform="scale(0.996264)"/>
       <use xlink:href="#CMR17-30" transform="translate(45.690477 0) scale(0.996264)"/>
       <use xlink:href="#CMR17-30" transform="translate(91.380954 0) scale(0.996264)"/>
       <use xlink:href="#CMR17-30" transform="translate(137.071431 0) scale(0.996264)"/>
      </g>
     </g>
    </g>
    <g id="ytick_5">
     <g id="line2d_27">
      <path d="M 51.593955 178.488307 
L 935.517672 178.488307 
" clip-path="url(#pa44e1a3953)" style="fill: none; stroke: #ffffff; stroke-linecap: round"/>
     </g>
     <g id="line2d_28"/>
     <g id="text_15">
      <!-- $\mathdefault{4000}$ -->
      <g style="fill: #262626" transform="translate(17.28 183.331245) scale(0.14 -0.14)">
       <defs>
        <path id="CMR17-34" d="M 2150 4122 
C 2150 4256 2144 4256 2029 4256 
L 128 1254 
L 128 1088 
L 1779 1088 
L 1779 457 
C 1779 224 1766 160 1318 160 
L 1197 160 
L 1197 0 
C 1402 0 1747 0 1965 0 
C 2182 0 2528 0 2733 0 
L 2733 160 
L 2611 160 
C 2163 160 2150 224 2150 457 
L 2150 1088 
L 2803 1088 
L 2803 1254 
L 2150 1254 
L 2150 4122 
z
M 1798 3703 
L 1798 1254 
L 256 1254 
L 1798 3703 
z
" transform="scale(0.015625)"/>
       </defs>
       <use xlink:href="#CMR17-34" transform="scale(0.996264)"/>
       <use xlink:href="#CMR17-30" transform="translate(45.690477 0) scale(0.996264)"/>
       <use xlink:href="#CMR17-30" transform="translate(91.380954 0) scale(0.996264)"/>
       <use xlink:href="#CMR17-30" transform="translate(137.071431 0) scale(0.996264)"/>
      </g>
     </g>
    </g>
    <g id="ytick_6">
     <g id="line2d_29">
      <path d="M 51.593955 92.822126 
L 935.517672 92.822126 
" clip-path="url(#pa44e1a3953)" style="fill: none; stroke: #ffffff; stroke-linecap: round"/>
     </g>
     <g id="line2d_30"/>
     <g id="text_16">
      <!-- $\mathdefault{5000}$ -->
      <g style="fill: #262626" transform="translate(17.28 97.665064) scale(0.14 -0.14)">
       <use xlink:href="#CMR17-35" transform="scale(0.996264)"/>
       <use xlink:href="#CMR17-30" transform="translate(45.690477 0) scale(0.996264)"/>
       <use xlink:href="#CMR17-30" transform="translate(91.380954 0) scale(0.996264)"/>
       <use xlink:href="#CMR17-30" transform="translate(137.071431 0) scale(0.996264)"/>
      </g>
     </g>
    </g>
   </g>
   <g id="line2d_31">
    <path d="M 51.593955 520.719095 
L 60.012276 520.721169 
L 68.430597 520.723232 
L 76.848918 520.725285 
L 85.267239 520.727328 
L 93.68556 520.72936 
L 102.103881 520.731383 
L 110.522202 520.733395 
L 118.940523 520.735398 
L 127.358845 520.73739 
L 135.777166 520.739372 
L 144.195487 520.741345 
L 152.613808 520.743308 
L 161.032129 520.745261 
L 169.45045 520.747204 
L 177.868771 520.749138 
L 186.287092 520.751062 
L 194.705413 520.752976 
L 203.123735 520.754881 
L 211.542056 520.756777 
L 219.960377 520.758663 
L 228.378698 520.76054 
L 236.797019 520.762408 
L 245.21534 520.764266 
L 253.633661 520.766115 
L 262.051982 520.767955 
L 270.470304 520.769786 
L 278.888625 520.771608 
L 287.306946 520.773421 
L 295.725267 520.775225 
L 304.143588 520.77702 
L 312.561909 520.778807 
L 320.98023 520.780584 
L 329.398551 520.782353 
L 337.816872 520.784113 
L 346.235194 520.785864 
L 354.653515 520.787607 
L 363.071836 520.789341 
L 371.490157 520.791067 
L 379.908478 520.792784 
L 388.326799 520.794493 
L 396.74512 520.796193 
L 405.163441 520.797885 
L 413.581763 520.799569 
L 422.000084 520.801244 
L 430.418405 520.802912 
L 438.836726 520.804571 
L 447.255047 520.806222 
L 455.673368 520.807864 
L 464.091689 520.809499 
L 472.51001 520.811126 
L 480.928331 520.812745 
L 489.346653 520.814356 
L 497.764974 520.815959 
L 506.183295 520.817554 
L 514.601616 520.819142 
L 523.019937 520.820721 
L 531.438258 520.822293 
L 539.856579 520.823858 
L 548.2749 520.825415 
L 556.693222 520.826964 
L 565.111543 520.828505 
L 573.529864 520.830039 
L 581.948185 520.831566 
L 590.366506 520.833085 
L 598.784827 520.834597 
L 607.203148 520.836101 
L 615.621469 520.837598 
L 624.03979 520.839088 
L 632.458112 520.840571 
L 640.876433 520.842046 
L 649.294754 520.843514 
L 657.713075 520.844975 
L 666.131396 520.846429 
L 674.549717 520.847876 
L 682.968038 520.849316 
L 691.386359 520.850749 
L 699.804681 520.852175 
L 708.223002 520.853595 
L 716.641323 520.855007 
L 725.059644 520.856412 
L 733.477965 520.857811 
L 741.896286 520.859203 
L 750.314607 520.860588 
L 758.732928 520.861966 
L 767.151249 520.863338 
L 775.569571 520.864703 
L 783.987892 520.866062 
L 792.406213 520.867413 
L 800.824534 520.868759 
L 809.242855 520.870098 
L 817.661176 520.87143 
L 826.079497 520.872756 
L 834.497818 520.874076 
L 842.91614 520.875389 
L 851.334461 520.876696 
L 859.752782 520.877997 
L 868.171103 520.879291 
L 876.589424 520.88058 
L 885.007745 520.881862 
L 893.426066 520.883138 
" clip-path="url(#pa44e1a3953)" style="fill: none; stroke: #393b79; stroke-width: 2; stroke-linecap: round"/>
   </g>
   <g id="line2d_32">
    <path d="M 51.593955 516.364928 
L 60.012276 516.397387 
L 68.430597 516.429534 
L 76.848918 516.46138 
L 85.267239 516.492932 
L 93.68556 516.524179 
L 102.103881 516.555141 
L 110.522202 516.585819 
L 118.940523 516.616204 
L 127.358845 516.646317 
L 135.777166 516.676145 
L 144.195487 516.705711 
L 152.613808 516.734999 
L 161.032129 516.76402 
L 169.45045 516.792783 
L 177.868771 516.821286 
L 186.287092 516.849536 
L 194.705413 516.877527 
L 203.123735 516.905268 
L 211.542056 516.932765 
L 219.960377 516.960018 
L 228.378698 516.987031 
L 236.797019 517.013808 
L 245.21534 517.040346 
L 253.633661 517.066655 
L 262.051982 517.092734 
L 270.470304 517.118583 
L 278.888625 517.144211 
L 287.306946 517.169622 
L 295.725267 517.194813 
L 304.143588 517.219788 
L 312.561909 517.244546 
L 320.98023 517.269096 
L 329.398551 517.293437 
L 337.816872 517.317575 
L 346.235194 517.341508 
L 354.653515 517.36524 
L 363.071836 517.388774 
L 371.490157 517.412111 
L 379.908478 517.435251 
L 388.326799 517.458202 
L 396.74512 517.480964 
L 405.163441 517.503538 
L 413.581763 517.525926 
L 422.000084 517.548131 
L 430.418405 517.570153 
L 438.836726 517.592004 
L 447.255047 517.613665 
L 455.673368 517.635155 
L 464.091689 517.656478 
L 472.51001 517.677625 
L 480.928331 517.698603 
L 489.346653 517.719412 
L 497.764974 517.740057 
L 506.183295 517.760537 
L 514.601616 517.780854 
L 523.019937 517.80101 
L 531.438258 517.821009 
L 539.856579 517.840852 
L 548.2749 517.860538 
L 556.693222 517.880071 
L 565.111543 517.899449 
L 573.529864 517.918679 
L 581.948185 517.937761 
L 590.366506 517.956694 
L 598.784827 517.975482 
L 607.203148 517.994126 
L 615.621469 518.012625 
L 624.03979 518.030984 
L 632.458112 518.049205 
L 640.876433 518.067287 
L 649.294754 518.085231 
L 657.713075 518.103038 
L 666.131396 518.120713 
L 674.549717 518.138256 
L 682.968038 518.155667 
L 691.386359 518.172947 
L 699.804681 518.190098 
L 708.223002 518.207121 
L 716.641323 518.22402 
L 725.059644 518.240792 
L 733.477965 518.257442 
L 741.896286 518.27397 
L 750.314607 518.290376 
L 758.732928 518.306658 
L 767.151249 518.322821 
L 775.569571 518.338868 
L 783.987892 518.3548 
L 792.406213 518.370616 
L 800.824534 518.38632 
L 809.242855 518.401909 
L 817.661176 518.417386 
L 826.079497 518.432752 
L 834.497818 518.448008 
L 842.91614 518.463154 
L 851.334461 518.478193 
L 859.752782 518.493126 
L 868.171103 518.50795 
L 876.589424 518.52267 
L 885.007745 518.537287 
L 893.426066 518.5518 
" clip-path="url(#pa44e1a3953)" style="fill: none; stroke: #8ca252; stroke-width: 2; stroke-linecap: round"/>
   </g>
   <g id="line2d_33">
    <path d="M 51.593955 482.351382 
L 60.012276 483.334116 
L 68.430597 484.271948 
L 76.848918 485.168019 
L 85.267239 486.025016 
L 93.68556 486.84529 
L 102.103881 487.631342 
L 110.522202 488.385187 
L 118.940523 489.108657 
L 127.358845 489.803741 
L 135.777166 490.471893 
L 144.195487 491.114814 
L 152.613808 491.73371 
L 161.032129 492.33 
L 169.45045 492.904941 
L 177.868771 493.459593 
L 186.287092 493.995009 
L 194.705413 494.512156 
L 203.123735 495.011964 
L 211.542056 495.49533 
L 219.960377 495.962974 
L 228.378698 496.415699 
L 236.797019 496.854187 
L 245.21534 497.27909 
L 253.633661 497.69103 
L 262.051982 498.090589 
L 270.470304 498.4783 
L 278.888625 498.854689 
L 287.306946 499.220277 
L 295.725267 499.575489 
L 304.143588 499.920745 
L 312.561909 500.256432 
L 320.98023 500.583019 
L 329.398551 500.900782 
L 337.816872 501.21015 
L 346.235194 501.511386 
L 354.653515 501.804846 
L 363.071836 502.090795 
L 371.490157 502.369541 
L 379.908478 502.641309 
L 388.326799 502.906404 
L 396.74512 503.165046 
L 405.163441 503.417466 
L 413.581763 503.663879 
L 422.000084 503.904495 
L 430.418405 504.139532 
L 438.836726 504.369186 
L 447.255047 504.593551 
L 455.673368 504.812917 
L 464.091689 505.027412 
L 472.51001 505.237178 
L 480.928331 505.442373 
L 489.346653 505.643142 
L 497.764974 505.839637 
L 506.183295 506.03198 
L 514.601616 506.2203 
L 523.019937 506.40472 
L 531.438258 506.585373 
L 539.856579 506.762366 
L 548.2749 506.935792 
L 556.693222 507.105767 
L 565.111543 507.272384 
L 573.529864 507.435755 
L 581.948185 507.595971 
L 590.366506 507.753112 
L 598.784827 507.90727 
L 607.203148 508.058511 
L 615.621469 508.206951 
L 624.03979 508.352621 
L 632.458112 508.495645 
L 640.876433 508.636059 
L 649.294754 508.773946 
L 657.713075 508.909354 
L 666.131396 509.042383 
L 674.549717 509.173063 
L 682.968038 509.301479 
L 691.386359 509.427665 
L 699.804681 509.551684 
L 708.223002 509.6736 
L 716.641323 509.793457 
L 725.059644 509.91131 
L 733.477965 510.027213 
L 741.896286 510.141201 
L 750.314607 510.253328 
L 758.732928 510.363621 
L 767.151249 510.472131 
L 775.569571 510.578917 
L 783.987892 510.684022 
L 792.406213 510.787457 
L 800.824534 510.889289 
L 809.242855 510.989539 
L 817.661176 511.088235 
L 826.079497 511.185429 
L 834.497818 511.281138 
L 842.91614 511.375415 
L 851.334461 511.468265 
L 859.752782 511.559746 
L 868.171103 511.649865 
L 876.589424 511.73866 
L 885.007745 511.826172 
L 893.426066 511.912402 
" clip-path="url(#pa44e1a3953)" style="fill: none; stroke: #e7ba52; stroke-width: 2; stroke-linecap: round"/>
   </g>
   <g id="line2d_34">
    <path d="M 51.593955 362.811715 
L 60.012276 376.318893 
L 68.430597 387.745382 
L 76.848918 397.538788 
L 85.267239 406.025495 
L 93.68556 413.449493 
L 102.103881 419.999979 
L 110.522202 425.821974 
L 118.940523 431.029935 
L 127.358845 435.717216 
L 135.777166 439.957171 
L 144.195487 443.811749 
L 152.613808 447.330255 
L 161.032129 450.555239 
L 169.45045 453.522133 
L 177.868771 456.260443 
L 186.287092 458.795581 
L 194.705413 461.149283 
L 203.123735 463.340397 
L 211.542056 465.385334 
L 219.960377 467.297981 
L 228.378698 469.090927 
L 236.797019 470.774996 
L 245.21534 472.359784 
L 253.633661 473.853815 
L 262.051982 475.264654 
L 270.470304 476.599017 
L 278.888625 477.862968 
L 287.306946 479.06203 
L 295.725267 480.200979 
L 304.143588 481.284181 
L 312.561909 482.315558 
L 320.98023 483.298947 
L 329.398551 484.237387 
L 337.816872 485.134078 
L 346.235194 485.991587 
L 354.653515 486.81252 
L 363.071836 487.599093 
L 371.490157 488.353468 
L 379.908478 489.077483 
L 388.326799 489.773039 
L 396.74512 490.441727 
L 405.163441 491.085071 
L 413.581763 491.704469 
L 422.000084 492.301227 
L 430.418405 492.8766 
L 438.836726 493.431723 
L 447.255047 493.967459 
L 455.673368 494.485034 
L 464.091689 494.985279 
L 472.51001 495.469013 
L 480.928331 495.937042 
L 489.346653 496.390116 
L 497.764974 496.828958 
L 506.183295 497.254207 
L 514.601616 497.666476 
L 523.019937 498.066351 
L 531.438258 498.454403 
L 539.856579 498.831136 
L 548.2749 499.197007 
L 556.693222 499.552495 
L 565.111543 499.898018 
L 573.529864 500.234016 
L 581.948185 500.56087 
L 590.366506 500.878929 
L 598.784827 501.188548 
L 607.203148 501.490032 
L 615.621469 501.783752 
L 624.03979 502.069925 
L 632.458112 502.348919 
L 640.876433 502.620941 
L 649.294754 502.886268 
L 657.713075 503.145111 
L 666.131396 503.397762 
L 674.549717 503.644386 
L 682.968038 503.885236 
L 691.386359 504.12047 
L 699.804681 504.35029 
L 708.223002 504.574898 
L 716.641323 504.794453 
L 725.059644 505.009128 
L 733.477965 505.21909 
L 741.896286 505.424473 
L 750.314607 505.625433 
L 758.732928 505.822087 
L 767.151249 506.014579 
L 775.569571 506.203065 
L 783.987892 506.38767 
L 792.406213 506.568473 
L 800.824534 506.745629 
L 809.242855 506.919223 
L 817.661176 507.089351 
L 826.079497 507.256135 
L 834.497818 507.419652 
L 842.91614 507.58002 
L 851.334461 507.737295 
L 859.752782 507.8916 
L 868.171103 508.042985 
L 876.589424 508.191543 
L 885.007745 508.337371 
L 893.426066 508.480505 
" clip-path="url(#pa44e1a3953)" style="fill: none; stroke: #e7969c; stroke-width: 2; stroke-linecap: round"/>
   </g>
   <g id="line2d_35">
    <path d="M 51.593955 73.912646 
L 60.012276 139.437415 
L 68.430597 193.004285 
L 76.848918 236.839341 
L 85.267239 272.739847 
L 93.68556 302.158082 
L 102.103881 326.289473 
L 110.522202 346.097006 
L 118.940523 362.389055 
L 127.358845 375.960235 
L 135.777166 387.43666 
L 144.195487 397.270556 
L 152.613808 405.7888 
L 161.032129 413.239799 
L 169.45045 419.812653 
L 177.868771 425.653381 
L 186.287092 430.877795 
L 194.705413 435.578423 
L 203.123735 439.830347 
L 211.542056 443.695115 
L 219.960377 447.222821 
L 228.378698 450.455982 
L 236.797019 453.429885 
L 245.21534 456.174457 
L 253.633661 458.715236 
L 262.051982 461.074078 
L 270.470304 463.269779 
L 278.888625 465.318714 
L 287.306946 467.235262 
L 295.725267 469.031707 
L 304.143588 470.718925 
L 312.561909 472.306478 
L 320.98023 473.80324 
L 329.398551 475.216443 
L 337.816872 476.553163 
L 346.235194 477.819219 
L 354.653515 479.0202 
L 363.071836 480.160891 
L 371.490157 481.245788 
L 379.908478 482.278749 
L 388.326799 483.263561 
L 396.74512 484.203436 
L 405.163441 485.101379 
L 413.581763 485.960111 
L 422.000084 486.782137 
L 430.418405 487.569809 
L 438.836726 488.325242 
L 447.255047 489.050133 
L 455.673368 489.746591 
L 464.091689 490.416157 
L 472.51001 491.060312 
L 480.928331 491.680477 
L 489.346653 492.277964 
L 497.764974 492.854017 
L 506.183295 493.409741 
L 514.601616 493.946184 
L 523.019937 494.46433 
L 531.438258 494.965128 
L 539.856579 495.449417 
L 548.2749 495.917962 
L 556.693222 496.371537 
L 565.111543 496.810827 
L 573.529864 497.236528 
L 581.948185 497.649252 
L 590.366506 498.049561 
L 598.784827 498.438011 
L 607.203148 498.815091 
L 615.621469 499.181357 
L 624.03979 499.537172 
L 632.458112 499.883075 
L 640.876433 500.219401 
L 649.294754 500.546568 
L 657.713075 500.864903 
L 666.131396 501.174827 
L 674.549717 501.476605 
L 682.968038 501.7706 
L 691.386359 502.05706 
L 699.804681 502.336279 
L 708.223002 502.608551 
L 716.641323 502.87411 
L 725.059644 503.133206 
L 733.477965 503.386083 
L 741.896286 503.632935 
L 750.314607 503.873986 
L 758.732928 504.10941 
L 767.151249 504.339409 
L 775.569571 504.564197 
L 783.987892 504.783952 
L 792.406213 504.998794 
L 800.824534 505.208932 
L 809.242855 505.41449 
L 817.661176 505.615604 
L 826.079497 505.812439 
L 834.497818 506.005106 
L 842.91614 506.193762 
L 851.334461 506.378493 
L 859.752782 506.559458 
L 868.171103 506.736734 
L 876.589424 506.910446 
L 885.007745 507.080719 
L 893.426066 507.247611 
" clip-path="url(#pa44e1a3953)" style="fill: none; stroke: #de9ed6; stroke-width: 2; stroke-linecap: round"/>
   </g>
   <g id="patch_3">
    <path d="M 51.593955 521.153031 
L 51.593955 51.564121 
" style="fill: none"/>
   </g>
   <g id="patch_4">
    <path d="M 935.517672 521.153031 
L 935.517672 51.564121 
" style="fill: none"/>
   </g>
   <g id="patch_5">
    <path d="M 51.593955 521.153031 
L 935.517672 521.153031 
" style="fill: none"/>
   </g>
   <g id="patch_6">
    <path d="M 51.593955 51.564121 
L 935.517672 51.564121 
" style="fill: none"/>
   </g>
   <g id="patch_7">
    <path d="M 472.51001 518.81149 
Q 472.51001 505.935743 472.51001 494.737047 
" style="fill: none; stroke: #000000; stroke-width: 1.5; stroke-linecap: round"/>
    <path d="M 469.31001 501.137047 
L 472.51001 494.737047 
L 475.71001 501.137047 
" style="fill: none; stroke: #000000; stroke-width: 1.5; stroke-linecap: round"/>
   </g>
   <g id="text_17">
    <!-- Time -->
    <g style="fill: #262626" transform="translate(493.555813 487.569678) scale(0.18 -0.18)">
     <defs>
      <path id="CMR17-54" d="M 3981 4326 
L 288 4326 
L 179 2918 
L 294 2918 
C 378 3976 467 4160 1453 4160 
C 1568 4160 1754 4160 1805 4154 
C 1926 4135 1926 4058 1926 3912 
L 1926 459 
C 1926 230 1907 160 1376 160 
L 1197 160 
L 1197 0 
C 1504 0 1824 0 2138 0 
C 2451 0 2771 0 3078 0 
L 3078 160 
L 2899 160 
C 2368 160 2349 230 2349 459 
L 2349 3912 
C 2349 4052 2349 4129 2464 4154 
C 2515 4160 2701 4160 2816 4160 
C 3795 4160 3891 3976 3974 2918 
L 4090 2918 
L 3981 4326 
z
" transform="scale(0.015625)"/>
      <path id="CMR17-69" d="M 992 3909 
C 992 4049 877 4170 730 4170 
C 589 4170 467 4056 467 3909 
C 467 3769 582 3648 730 3648 
C 870 3648 992 3763 992 3909 
z
M 243 2706 
L 243 2541 
C 602 2541 653 2502 653 2197 
L 653 427 
C 653 184 627 153 218 153 
L 218 -13 
C 371 0 646 0 806 0 
C 960 0 1222 0 1370 -13 
L 1370 153 
C 992 153 979 191 979 420 
L 979 2776 
L 243 2706 
z
" transform="scale(0.015625)"/>
      <path id="CMR17-6d" d="M 4326 1933 
C 4326 2252 4269 2790 3507 2790 
C 3072 2790 2771 2496 2656 2151 
L 2650 2151 
C 2573 2676 2195 2790 1837 2790 
C 1331 2790 1069 2400 973 2144 
L 966 2144 
L 966 2790 
L 211 2720 
L 211 2554 
C 589 2554 646 2515 646 2208 
L 646 428 
C 646 184 621 153 211 153 
L 211 -13 
C 365 0 646 0 813 0 
C 979 0 1267 0 1421 -13 
L 1421 153 
C 1011 153 986 178 986 428 
L 986 1658 
C 986 2247 1344 2688 1792 2688 
C 2266 2688 2317 2266 2317 1958 
L 2317 428 
C 2317 184 2291 153 1882 153 
L 1882 -13 
C 2035 0 2317 0 2483 0 
C 2650 0 2938 0 3091 -13 
L 3091 153 
C 2682 153 2656 178 2656 428 
L 2656 1658 
C 2656 2247 3014 2688 3462 2688 
C 3936 2688 3987 2266 3987 1958 
L 3987 428 
C 3987 184 3962 153 3552 153 
L 3552 -13 
C 3706 0 3987 0 4154 0 
C 4320 0 4608 0 4762 -13 
L 4762 153 
C 4352 153 4326 178 4326 428 
L 4326 1933 
z
" transform="scale(0.015625)"/>
      <path id="CMR17-65" d="M 2438 1472 
C 2464 1498 2464 1511 2464 1576 
C 2464 2238 2118 2816 1389 2816 
C 710 2816 173 2169 173 1383 
C 173 551 781 -64 1459 -64 
C 2176 -64 2458 607 2458 740 
C 2458 784 2419 784 2406 784 
C 2362 784 2355 771 2330 696 
C 2189 265 1837 51 1504 51 
C 1229 51 954 203 781 480 
C 582 803 582 1176 582 1472 
L 2438 1472 
z
M 589 1568 
C 634 2505 1126 2714 1382 2714 
C 1818 2714 2112 2297 2118 1568 
L 589 1568 
z
" transform="scale(0.015625)"/>
     </defs>
     <use xlink:href="#CMR17-54" transform="scale(0.996264)"/>
     <use xlink:href="#CMR17-69" transform="translate(66.509881 0) scale(0.996264)"/>
     <use xlink:href="#CMR17-6d" transform="translate(91.380939 0) scale(0.996264)"/>
     <use xlink:href="#CMR17-65" transform="translate(168.300529 0) scale(0.996264)"/>
    </g>
   </g>
   <g id="legend_1">
    <g id="line2d_36">
     <path d="M 948.117672 245.978505 
L 962.117672 245.978505 
L 976.117672 245.978505 
" style="fill: none; stroke: #393b79; stroke-width: 2; stroke-linecap: round"/>
    </g>
    <g id="text_18">
     <!-- t = 10.00 -->
     <g style="fill: #262626" transform="translate(987.317672 250.878505) scale(0.14 -0.14)">
      <defs>
       <path id="CMR17-74" d="M 966 2560 
L 1862 2560 
L 1862 2725 
L 966 2725 
L 966 3904 
L 851 3904 
C 838 3245 614 2668 70 2668 
L 70 2560 
L 627 2560 
L 627 771 
C 627 650 627 -64 1370 -64 
C 1747 -64 1965 306 1965 777 
L 1965 1140 
L 1850 1140 
L 1850 783 
C 1850 344 1677 51 1408 51 
C 1222 51 966 178 966 758 
L 966 2560 
z
" transform="scale(0.015625)"/>
       <path id="CMR17-3d" d="M 4115 2017 
C 4211 2017 4307 2017 4307 2125 
C 4307 2240 4198 2240 4090 2240 
L 512 2240 
C 403 2240 294 2240 294 2125 
C 294 2017 390 2017 486 2017 
L 4115 2017 
z
M 4090 896 
C 4198 896 4307 896 4307 1011 
C 4307 1119 4211 1119 4115 1119 
L 486 1119 
C 390 1119 294 1119 294 1011 
C 294 896 403 896 512 896 
L 4090 896 
z
" transform="scale(0.015625)"/>
       <path id="CMR17-2e" d="M 1062 261 
C 1062 420 934 522 800 522 
C 672 522 538 420 538 261 
C 538 102 666 0 800 0 
C 928 0 1062 102 1062 261 
z
" transform="scale(0.015625)"/>
      </defs>
      <use xlink:href="#CMR17-74" transform="scale(0.996264)"/>
      <use xlink:href="#CMR17-3d" transform="translate(65.356734 0) scale(0.996264)"/>
      <use xlink:href="#CMR17-31" transform="translate(167.147489 0) scale(0.996264)"/>
      <use xlink:href="#CMR17-30" transform="translate(212.837966 0) scale(0.996264)"/>
      <use xlink:href="#CMR17-2e" transform="translate(258.528443 0) scale(0.996264)"/>
      <use xlink:href="#CMR17-30" transform="translate(283.399502 0) scale(0.996264)"/>
      <use xlink:href="#CMR17-30" transform="translate(329.089979 0) scale(0.996264)"/>
     </g>
    </g>
    <g id="line2d_37">
     <path d="M 948.117672 265.490533 
L 962.117672 265.490533 
L 976.117672 265.490533 
" style="fill: none; stroke: #8ca252; stroke-width: 2; stroke-linecap: round"/>
    </g>
    <g id="text_19">
     <!-- t = 100.00 -->
     <g style="fill: #262626" transform="translate(987.317672 270.390533) scale(0.14 -0.14)">
      <use xlink:href="#CMR17-74" transform="scale(0.996264)"/>
      <use xlink:href="#CMR17-3d" transform="translate(65.356734 0) scale(0.996264)"/>
      <use xlink:href="#CMR17-31" transform="translate(167.147489 0) scale(0.996264)"/>
      <use xlink:href="#CMR17-30" transform="translate(212.837966 0) scale(0.996264)"/>
      <use xlink:href="#CMR17-30" transform="translate(258.528443 0) scale(0.996264)"/>
      <use xlink:href="#CMR17-2e" transform="translate(304.21892 0) scale(0.996264)"/>
      <use xlink:href="#CMR17-30" transform="translate(329.089979 0) scale(0.996264)"/>
      <use xlink:href="#CMR17-30" transform="translate(374.780456 0) scale(0.996264)"/>
     </g>
    </g>
    <g id="line2d_38">
     <path d="M 948.117672 285.002562 
L 962.117672 285.002562 
L 976.117672 285.002562 
" style="fill: none; stroke: #e7ba52; stroke-width: 2; stroke-linecap: round"/>
    </g>
    <g id="text_20">
     <!-- t = 500.00 -->
     <g style="fill: #262626" transform="translate(987.317672 289.902562) scale(0.14 -0.14)">
      <use xlink:href="#CMR17-74" transform="scale(0.996264)"/>
      <use xlink:href="#CMR17-3d" transform="translate(65.356734 0) scale(0.996264)"/>
      <use xlink:href="#CMR17-35" transform="translate(167.147489 0) scale(0.996264)"/>
      <use xlink:href="#CMR17-30" transform="translate(212.837966 0) scale(0.996264)"/>
      <use xlink:href="#CMR17-30" transform="translate(258.528443 0) scale(0.996264)"/>
      <use xlink:href="#CMR17-2e" transform="translate(304.21892 0) scale(0.996264)"/>
      <use xlink:href="#CMR17-30" transform="translate(329.089979 0) scale(0.996264)"/>
      <use xlink:href="#CMR17-30" transform="translate(374.780456 0) scale(0.996264)"/>
     </g>
    </g>
    <g id="line2d_39">
     <path d="M 948.117672 304.51459 
L 962.117672 304.51459 
L 976.117672 304.51459 
" style="fill: none; stroke: #e7969c; stroke-width: 2; stroke-linecap: round"/>
    </g>
    <g id="text_21">
     <!-- t = 1000.00 -->
     <g style="fill: #262626" transform="translate(987.317672 309.41459) scale(0.14 -0.14)">
      <use xlink:href="#CMR17-74" transform="scale(0.996264)"/>
      <use xlink:href="#CMR17-3d" transform="translate(65.356734 0) scale(0.996264)"/>
      <use xlink:href="#CMR17-31" transform="translate(167.147489 0) scale(0.996264)"/>
      <use xlink:href="#CMR17-30" transform="translate(212.837966 0) scale(0.996264)"/>
      <use xlink:href="#CMR17-30" transform="translate(258.528443 0) scale(0.996264)"/>
      <use xlink:href="#CMR17-30" transform="translate(304.21892 0) scale(0.996264)"/>
      <use xlink:href="#CMR17-2e" transform="translate(349.909397 0) scale(0.996264)"/>
      <use xlink:href="#CMR17-30" transform="translate(374.780456 0) scale(0.996264)"/>
      <use xlink:href="#CMR17-30" transform="translate(420.470933 0) scale(0.996264)"/>
     </g>
    </g>
    <g id="line2d_40">
     <path d="M 948.117672 324.026618 
L 962.117672 324.026618 
L 976.117672 324.026618 
" style="fill: none; stroke: #de9ed6; stroke-width: 2; stroke-linecap: round"/>
    </g>
    <g id="text_22">
     <!-- t = 1500.00 -->
     <g style="fill: #262626" transform="translate(987.317672 328.926618) scale(0.14 -0.14)">
      <use xlink:href="#CMR17-74" transform="scale(0.996264)"/>
      <use xlink:href="#CMR17-3d" transform="translate(65.356734 0) scale(0.996264)"/>
      <use xlink:href="#CMR17-31" transform="translate(167.147489 0) scale(0.996264)"/>
      <use xlink:href="#CMR17-35" transform="translate(212.837966 0) scale(0.996264)"/>
      <use xlink:href="#CMR17-30" transform="translate(258.528443 0) scale(0.996264)"/>
      <use xlink:href="#CMR17-30" transform="translate(304.21892 0) scale(0.996264)"/>
      <use xlink:href="#CMR17-2e" transform="translate(349.909397 0) scale(0.996264)"/>
      <use xlink:href="#CMR17-30" transform="translate(374.780456 0) scale(0.996264)"/>
      <use xlink:href="#CMR17-30" transform="translate(420.470933 0) scale(0.996264)"/>
     </g>
    </g>
   </g>
  </g>
  <g id="text_23">
   <!-- auxiliar_variable -->
   <g style="fill: #262626" transform="translate(478.153677 24.803515) scale(0.192 -0.192)">
    <defs>
     <path id="CMR17-61" d="M 2304 1653 
C 2304 2072 2304 2294 2035 2543 
C 1798 2752 1523 2816 1306 2816 
C 800 2816 435 2407 435 1971 
C 435 1728 627 1728 666 1728 
C 749 1728 896 1778 896 1954 
C 896 2112 774 2181 666 2181 
C 640 2181 608 2174 589 2168 
C 723 2592 1069 2714 1293 2714 
C 1613 2714 1965 2429 1965 1885 
L 1965 1600 
C 1587 1600 1133 1549 774 1357 
C 371 1133 256 813 256 570 
C 256 77 832 -64 1171 -64 
C 1523 -64 1850 139 1990 511 
C 2003 233 2182 -18 2464 -18 
C 2598 -18 2938 70 2938 567 
L 2938 920 
L 2822 920 
L 2822 562 
C 2822 178 2650 128 2566 128 
C 2304 128 2304 458 2304 738 
L 2304 1653 
z
M 1965 870 
C 1965 317 1568 38 1216 38 
C 896 38 646 275 646 570 
C 646 761 730 1100 1101 1305 
C 1408 1478 1760 1504 1965 1504 
L 1965 870 
z
" transform="scale(0.015625)"/>
     <path id="CMR17-75" d="M 1882 2693 
L 1882 2528 
C 2259 2528 2317 2489 2317 2186 
L 2317 1032 
C 2317 500 2029 38 1555 38 
C 1030 38 986 348 986 678 
L 986 2763 
L 211 2693 
L 211 2528 
C 467 2528 640 2528 646 2274 
L 646 1058 
C 646 633 646 361 813 183 
C 896 101 1056 -64 1517 -64 
C 2061 -64 2272 377 2323 506 
L 2330 506 
L 2330 -63 
L 3091 -63 
L 3091 128 
C 2714 128 2656 166 2656 473 
L 2656 2763 
L 1882 2693 
z
" transform="scale(0.015625)"/>
     <path id="CMR17-78" d="M 1664 1477 
C 1856 1726 2074 2006 2253 2216 
C 2464 2458 2707 2560 2989 2560 
L 2989 2726 
C 2880 2726 2656 2726 2541 2726 
C 2368 2726 2170 2726 2022 2732 
L 2022 2566 
C 2112 2553 2163 2489 2163 2400 
C 2163 2285 2099 2215 2067 2171 
L 1594 1573 
L 1030 2306 
C 973 2376 973 2388 973 2420 
C 973 2497 1037 2560 1146 2560 
L 1146 2732 
C 992 2726 717 2726 557 2726 
C 384 2726 179 2726 38 2732 
L 38 2560 
C 384 2560 461 2534 614 2343 
L 1350 1395 
C 1363 1382 1395 1344 1395 1325 
C 1395 1299 838 619 768 530 
C 480 185 179 160 6 160 
L 6 0 
C 115 0 339 0 454 0 
C 582 0 864 0 979 -6 
L 979 160 
C 941 166 838 179 838 325 
C 838 440 890 510 947 586 
L 1478 1236 
L 2035 512 
C 2086 442 2163 346 2163 301 
C 2163 211 2086 160 1984 160 
L 1984 -6 
C 2138 0 2413 0 2573 0 
C 2746 0 2950 0 3091 -6 
L 3091 160 
C 2771 160 2675 172 2522 370 
L 1664 1477 
z
" transform="scale(0.015625)"/>
     <path id="CMR17-6c" d="M 979 4396 
L 218 4326 
L 218 4160 
C 595 4160 653 4122 653 3817 
L 653 426 
C 653 184 627 153 218 153 
L 218 -13 
C 371 0 653 0 813 0 
C 979 0 1261 0 1414 -13 
L 1414 153 
C 1005 153 979 178 979 426 
L 979 4396 
z
" transform="scale(0.015625)"/>
     <path id="CMR17-72" d="M 960 1497 
C 960 2112 1222 2688 1702 2688 
C 1747 2688 1792 2682 1837 2662 
C 1837 2662 1696 2617 1696 2452 
C 1696 2298 1818 2234 1914 2234 
C 1990 2234 2131 2279 2131 2458 
C 2131 2663 1926 2790 1709 2790 
C 1222 2790 1011 2317 947 2093 
L 941 2093 
L 941 2790 
L 198 2720 
L 198 2554 
C 576 2554 634 2515 634 2208 
L 634 428 
C 634 184 608 153 198 153 
L 198 -13 
C 352 0 646 0 813 0 
C 998 0 1325 0 1498 -13 
L 1498 153 
C 1037 153 960 153 960 440 
L 960 1497 
z
" transform="scale(0.015625)"/>
     <path id="CMR17-76" d="M 2502 2163 
C 2560 2304 2662 2560 3034 2560 
L 3034 2726 
C 2912 2726 2752 2726 2630 2726 
C 2496 2726 2285 2726 2157 2732 
L 2157 2566 
C 2317 2553 2406 2477 2406 2311 
C 2406 2253 2406 2240 2368 2151 
L 1664 377 
L 902 2286 
C 864 2369 864 2381 864 2407 
C 864 2560 1075 2560 1171 2560 
L 1171 2732 
C 1018 2726 736 2726 576 2726 
C 403 2726 205 2726 64 2732 
L 64 2560 
C 307 2560 442 2560 518 2362 
L 1446 44 
C 1485 -51 1491 -64 1549 -64 
C 1606 -64 1613 -51 1651 44 
L 2502 2163 
z
" transform="scale(0.015625)"/>
     <path id="CMR17-62" d="M 960 4396 
L 198 4326 
L 198 4160 
C 576 4160 634 4122 634 3817 
L 634 -13 
L 749 -13 
L 934 441 
C 1120 141 1395 -64 1766 -64 
C 2406 -64 3053 500 3053 1370 
C 3053 2188 2477 2790 1830 2790 
C 1434 2790 1152 2579 960 2330 
L 960 4396 
z
M 973 2004 
C 973 2118 973 2138 1062 2272 
C 1312 2657 1670 2688 1792 2688 
C 1984 2688 2643 2585 2643 1376 
C 2643 108 1888 38 1734 38 
C 1536 38 1248 114 1043 486 
C 973 608 973 621 973 735 
L 973 2004 
z
" transform="scale(0.015625)"/>
    </defs>
    <use xlink:href="#CMR17-61" transform="scale(0.996264)"/>
    <use xlink:href="#CMR17-75" transform="translate(45.690477 0) scale(0.996264)"/>
    <use xlink:href="#CMR17-78" transform="translate(96.585847 0) scale(0.996264)"/>
    <use xlink:href="#CMR17-69" transform="translate(144.878763 0) scale(0.996264)"/>
    <use xlink:href="#CMR17-6c" transform="translate(169.749821 0) scale(0.996264)"/>
    <use xlink:href="#CMR17-69" transform="translate(194.62088 0) scale(0.996264)"/>
    <use xlink:href="#CMR17-61" transform="translate(219.491938 0) scale(0.996264)"/>
    <use xlink:href="#CMR17-72" transform="translate(265.182415 0) scale(0.996264)"/>
    <use xlink:href="#CMR17-76" transform="translate(333.360403 0) scale(0.996264)"/>
    <use xlink:href="#CMR17-61" transform="translate(376.448502 0) scale(0.996264)"/>
    <use xlink:href="#CMR17-72" transform="translate(422.138979 0) scale(0.996264)"/>
    <use xlink:href="#CMR17-69" transform="translate(457.419747 0) scale(0.996264)"/>
    <use xlink:href="#CMR17-61" transform="translate(482.290805 0) scale(0.996264)"/>
    <use xlink:href="#CMR17-62" transform="translate(527.981282 0) scale(0.996264)"/>
    <use xlink:href="#CMR17-6c" transform="translate(578.876652 0) scale(0.996264)"/>
    <use xlink:href="#CMR17-65" transform="translate(603.747711 0) scale(0.996264)"/>
    <path d="M 305.945812 0 
L 333.360403 0 
L 333.360403 0.3985 
L 305.945812 0.3985 
L 305.945812 0 
z
"/>
   </g>
  </g>
 </g>
 <defs>
  <clipPath id="pa44e1a3953">
   <rect x="51.593955" y="51.564121" width="883.923717" height="469.58891"/>
  </clipPath>
 </defs>
</svg>
