<?xml version="1.0" encoding="utf-8" standalone="no"?>
<!DOCTYPE svg PUBLIC "-//W3C//DTD SVG 1.1//EN"
  "http://www.w3.org/Graphics/SVG/1.1/DTD/svg11.dtd">
<svg xmlns:xlink="http://www.w3.org/1999/xlink" width="1080pt" height="576pt" viewBox="0 0 1080 576" xmlns="http://www.w3.org/2000/svg" version="1.1">
 <metadata>
  <rdf:RDF xmlns:dc="http://purl.org/dc/elements/1.1/" xmlns:cc="http://creativecommons.org/ns#" xmlns:rdf="http://www.w3.org/1999/02/22-rdf-syntax-ns#">
   <cc:Work>
    <dc:type rdf:resource="http://purl.org/dc/dcmitype/StillImage"/>
    <dc:date>2024-06-28T11:14:53.280013</dc:date>
    <dc:format>image/svg+xml</dc:format>
    <dc:creator>
     <cc:Agent>
      <dc:title>Matplotlib v3.9.0, https://matplotlib.org/</dc:title>
     </cc:Agent>
    </dc:creator>
   </cc:Work>
  </rdf:RDF>
 </metadata>
 <defs>
  <style type="text/css">*{stroke-linejoin: round; stroke-linecap: butt}</style>
 </defs>
 <g id="figure_1">
  <g id="patch_1">
   <path d="M 0 576 
L 1080 576 
L 1080 0 
L 0 0 
z
" style="fill: #ffffff"/>
  </g>
  <g id="axes_1">
   <g id="patch_2">
    <path d="M 51.593955 521.153031 
L 935.517672 521.153031 
L 935.517672 51.564121 
L 51.593955 51.564121 
z
" style="fill: #eaeaf2"/>
   </g>
   <g id="matplotlib.axis_1">
    <g id="xtick_1">
     <g id="line2d_1">
      <path d="M 51.593955 521.153031 
L 51.593955 51.564121 
" clip-path="url(#pababec9f35)" style="fill: none; stroke: #ffffff; stroke-linecap: round"/>
     </g>
     <g id="line2d_2"/>
     <g id="text_1">
      <!-- $\mathdefault{0.00}$ -->
      <g style="fill: #262626" transform="translate(39.454419 537.838907) scale(0.14 -0.14)">
       <defs>
        <path id="CMR17-30" d="M 2688 2025 
C 2688 2416 2682 3080 2413 3591 
C 2176 4039 1798 4198 1466 4198 
C 1158 4198 768 4058 525 3597 
C 269 3118 243 2524 243 2025 
C 243 1661 250 1106 448 619 
C 723 -39 1216 -128 1466 -128 
C 1760 -128 2208 -7 2470 600 
C 2662 1042 2688 1559 2688 2025 
z
M 1466 -26 
C 1056 -26 813 325 723 812 
C 653 1188 653 1738 653 2096 
C 653 2588 653 2997 736 3387 
C 858 3929 1216 4096 1466 4096 
C 1728 4096 2067 3923 2189 3400 
C 2272 3036 2278 2607 2278 2096 
C 2278 1680 2278 1169 2202 792 
C 2067 95 1690 -26 1466 -26 
z
" transform="scale(0.015625)"/>
        <path id="CMMI12-3a" d="M 1178 307 
C 1178 492 1024 619 870 619 
C 685 619 557 466 557 313 
C 557 128 710 0 864 0 
C 1050 0 1178 153 1178 307 
z
" transform="scale(0.015625)"/>
       </defs>
       <use xlink:href="#CMR17-30" transform="scale(0.996264)"/>
       <use xlink:href="#CMMI12-3a" transform="translate(45.690477 0) scale(0.996264)"/>
       <use xlink:href="#CMR17-30" transform="translate(72.787654 0) scale(0.996264)"/>
       <use xlink:href="#CMR17-30" transform="translate(118.478131 0) scale(0.996264)"/>
      </g>
     </g>
    </g>
    <g id="xtick_2">
     <g id="line2d_3">
      <path d="M 156.822968 521.153031 
L 156.822968 51.564121 
" clip-path="url(#pababec9f35)" style="fill: none; stroke: #ffffff; stroke-linecap: round"/>
     </g>
     <g id="line2d_4"/>
     <g id="text_2">
      <!-- $\mathdefault{0.25}$ -->
      <g style="fill: #262626" transform="translate(144.683433 537.838907) scale(0.14 -0.14)">
       <defs>
        <path id="CMR17-32" d="M 2669 989 
L 2554 989 
C 2490 536 2438 459 2413 420 
C 2381 369 1920 369 1830 369 
L 602 369 
C 832 619 1280 1072 1824 1597 
C 2214 1967 2669 2402 2669 3035 
C 2669 3790 2067 4224 1395 4224 
C 691 4224 262 3604 262 3030 
C 262 2780 448 2748 525 2748 
C 589 2748 781 2787 781 3010 
C 781 3207 614 3264 525 3264 
C 486 3264 448 3258 422 3245 
C 544 3790 915 4058 1306 4058 
C 1862 4058 2227 3617 2227 3035 
C 2227 2479 1901 2000 1536 1584 
L 262 146 
L 262 0 
L 2515 0 
L 2669 989 
z
" transform="scale(0.015625)"/>
        <path id="CMR17-35" d="M 730 3692 
C 794 3666 1056 3584 1325 3584 
C 1920 3584 2246 3911 2432 4100 
C 2432 4157 2432 4192 2394 4192 
C 2387 4192 2374 4192 2323 4163 
C 2099 4058 1837 3973 1517 3973 
C 1325 3973 1037 3999 723 4139 
C 653 4171 640 4171 634 4171 
C 602 4171 595 4164 595 4037 
L 595 2203 
C 595 2089 595 2057 659 2057 
C 691 2057 704 2070 736 2114 
C 941 2401 1222 2522 1542 2522 
C 1766 2522 2246 2382 2246 1289 
C 2246 1085 2246 715 2054 421 
C 1894 159 1645 25 1370 25 
C 947 25 518 320 403 814 
C 429 807 480 795 506 795 
C 589 795 749 840 749 1038 
C 749 1210 627 1280 506 1280 
C 358 1280 262 1190 262 1011 
C 262 454 704 -128 1382 -128 
C 2042 -128 2669 440 2669 1264 
C 2669 2030 2170 2624 1549 2624 
C 1222 2624 947 2503 730 2274 
L 730 3692 
z
" transform="scale(0.015625)"/>
       </defs>
       <use xlink:href="#CMR17-30" transform="scale(0.996264)"/>
       <use xlink:href="#CMMI12-3a" transform="translate(45.690477 0) scale(0.996264)"/>
       <use xlink:href="#CMR17-32" transform="translate(72.787654 0) scale(0.996264)"/>
       <use xlink:href="#CMR17-35" transform="translate(118.478131 0) scale(0.996264)"/>
      </g>
     </g>
    </g>
    <g id="xtick_3">
     <g id="line2d_5">
      <path d="M 262.051982 521.153031 
L 262.051982 51.564121 
" clip-path="url(#pababec9f35)" style="fill: none; stroke: #ffffff; stroke-linecap: round"/>
     </g>
     <g id="line2d_6"/>
     <g id="text_3">
      <!-- $\mathdefault{0.50}$ -->
      <g style="fill: #262626" transform="translate(249.912447 537.838907) scale(0.14 -0.14)">
       <use xlink:href="#CMR17-30" transform="scale(0.996264)"/>
       <use xlink:href="#CMMI12-3a" transform="translate(45.690477 0) scale(0.996264)"/>
       <use xlink:href="#CMR17-35" transform="translate(72.787654 0) scale(0.996264)"/>
       <use xlink:href="#CMR17-30" transform="translate(118.478131 0) scale(0.996264)"/>
      </g>
     </g>
    </g>
    <g id="xtick_4">
     <g id="line2d_7">
      <path d="M 367.280996 521.153031 
L 367.280996 51.564121 
" clip-path="url(#pababec9f35)" style="fill: none; stroke: #ffffff; stroke-linecap: round"/>
     </g>
     <g id="line2d_8"/>
     <g id="text_4">
      <!-- $\mathdefault{0.75}$ -->
      <g style="fill: #262626" transform="translate(355.141461 537.838907) scale(0.14 -0.14)">
       <defs>
        <path id="CMR17-37" d="M 2886 3941 
L 2886 4081 
L 1382 4081 
C 634 4081 621 4165 595 4288 
L 480 4288 
L 294 3094 
L 410 3094 
C 429 3215 474 3540 550 3661 
C 589 3712 1062 3712 1171 3712 
L 2579 3712 
L 1869 2661 
C 1395 1954 1069 999 1069 165 
C 1069 89 1069 -128 1299 -128 
C 1530 -128 1530 89 1530 171 
L 1530 465 
C 1530 1508 1709 2196 2003 2636 
L 2886 3941 
z
" transform="scale(0.015625)"/>
       </defs>
       <use xlink:href="#CMR17-30" transform="scale(0.996264)"/>
       <use xlink:href="#CMMI12-3a" transform="translate(45.690477 0) scale(0.996264)"/>
       <use xlink:href="#CMR17-37" transform="translate(72.787654 0) scale(0.996264)"/>
       <use xlink:href="#CMR17-35" transform="translate(118.478131 0) scale(0.996264)"/>
      </g>
     </g>
    </g>
    <g id="xtick_5">
     <g id="line2d_9">
      <path d="M 472.51001 521.153031 
L 472.51001 51.564121 
" clip-path="url(#pababec9f35)" style="fill: none; stroke: #ffffff; stroke-linecap: round"/>
     </g>
     <g id="line2d_10"/>
     <g id="text_5">
      <!-- $\mathdefault{1.00}$ -->
      <g style="fill: #262626" transform="translate(460.370475 537.838907) scale(0.14 -0.14)">
       <defs>
        <path id="CMR17-31" d="M 1702 4058 
C 1702 4192 1696 4192 1606 4192 
C 1357 3916 979 3827 621 3827 
C 602 3827 570 3827 563 3808 
C 557 3795 557 3782 557 3648 
C 755 3648 1088 3686 1344 3839 
L 1344 461 
C 1344 236 1331 160 781 160 
L 589 160 
L 589 0 
C 896 0 1216 0 1523 0 
C 1830 0 2150 0 2458 0 
L 2458 160 
L 2266 160 
C 1715 160 1702 230 1702 458 
L 1702 4058 
z
" transform="scale(0.015625)"/>
       </defs>
       <use xlink:href="#CMR17-31" transform="scale(0.996264)"/>
       <use xlink:href="#CMMI12-3a" transform="translate(45.690477 0) scale(0.996264)"/>
       <use xlink:href="#CMR17-30" transform="translate(72.787654 0) scale(0.996264)"/>
       <use xlink:href="#CMR17-30" transform="translate(118.478131 0) scale(0.996264)"/>
      </g>
     </g>
    </g>
    <g id="xtick_6">
     <g id="line2d_11">
      <path d="M 577.739024 521.153031 
L 577.739024 51.564121 
" clip-path="url(#pababec9f35)" style="fill: none; stroke: #ffffff; stroke-linecap: round"/>
     </g>
     <g id="line2d_12"/>
     <g id="text_6">
      <!-- $\mathdefault{1.25}$ -->
      <g style="fill: #262626" transform="translate(565.599489 537.838907) scale(0.14 -0.14)">
       <use xlink:href="#CMR17-31" transform="scale(0.996264)"/>
       <use xlink:href="#CMMI12-3a" transform="translate(45.690477 0) scale(0.996264)"/>
       <use xlink:href="#CMR17-32" transform="translate(72.787654 0) scale(0.996264)"/>
       <use xlink:href="#CMR17-35" transform="translate(118.478131 0) scale(0.996264)"/>
      </g>
     </g>
    </g>
    <g id="xtick_7">
     <g id="line2d_13">
      <path d="M 682.968038 521.153031 
L 682.968038 51.564121 
" clip-path="url(#pababec9f35)" style="fill: none; stroke: #ffffff; stroke-linecap: round"/>
     </g>
     <g id="line2d_14"/>
     <g id="text_7">
      <!-- $\mathdefault{1.50}$ -->
      <g style="fill: #262626" transform="translate(670.828503 537.838907) scale(0.14 -0.14)">
       <use xlink:href="#CMR17-31" transform="scale(0.996264)"/>
       <use xlink:href="#CMMI12-3a" transform="translate(45.690477 0) scale(0.996264)"/>
       <use xlink:href="#CMR17-35" transform="translate(72.787654 0) scale(0.996264)"/>
       <use xlink:href="#CMR17-30" transform="translate(118.478131 0) scale(0.996264)"/>
      </g>
     </g>
    </g>
    <g id="xtick_8">
     <g id="line2d_15">
      <path d="M 788.197052 521.153031 
L 788.197052 51.564121 
" clip-path="url(#pababec9f35)" style="fill: none; stroke: #ffffff; stroke-linecap: round"/>
     </g>
     <g id="line2d_16"/>
     <g id="text_8">
      <!-- $\mathdefault{1.75}$ -->
      <g style="fill: #262626" transform="translate(776.057517 537.838907) scale(0.14 -0.14)">
       <use xlink:href="#CMR17-31" transform="scale(0.996264)"/>
       <use xlink:href="#CMMI12-3a" transform="translate(45.690477 0) scale(0.996264)"/>
       <use xlink:href="#CMR17-37" transform="translate(72.787654 0) scale(0.996264)"/>
       <use xlink:href="#CMR17-35" transform="translate(118.478131 0) scale(0.996264)"/>
      </g>
     </g>
    </g>
    <g id="xtick_9">
     <g id="line2d_17">
      <path d="M 893.426066 521.153031 
L 893.426066 51.564121 
" clip-path="url(#pababec9f35)" style="fill: none; stroke: #ffffff; stroke-linecap: round"/>
     </g>
     <g id="line2d_18"/>
     <g id="text_9">
      <!-- $\mathdefault{2.00}$ -->
      <g style="fill: #262626" transform="translate(881.286531 537.838907) scale(0.14 -0.14)">
       <use xlink:href="#CMR17-32" transform="scale(0.996264)"/>
       <use xlink:href="#CMMI12-3a" transform="translate(45.690477 0) scale(0.996264)"/>
       <use xlink:href="#CMR17-30" transform="translate(72.787654 0) scale(0.996264)"/>
       <use xlink:href="#CMR17-30" transform="translate(118.478131 0) scale(0.996264)"/>
      </g>
     </g>
    </g>
    <g id="text_10">
     <!-- $x$ -->
     <g style="fill: #262626" transform="translate(489.121088 555.620524) scale(0.16 -0.16)">
      <defs>
       <path id="CMMI12-78" d="M 3034 2606 
C 2829 2567 2752 2414 2752 2293 
C 2752 2139 2874 2088 2963 2088 
C 3155 2088 3290 2254 3290 2427 
C 3290 2695 2982 2816 2714 2816 
C 2323 2816 2106 2433 2048 2312 
C 1901 2816 1504 2816 1389 2816 
C 736 2816 390 1980 390 1839 
C 390 1814 416 1782 461 1782 
C 512 1782 525 1820 538 1846 
C 755 2555 1184 2689 1370 2689 
C 1658 2689 1715 2420 1715 2267 
C 1715 2127 1677 1980 1600 1673 
L 1382 798 
C 1286 415 1101 64 762 64 
C 730 64 570 64 435 147 
C 666 192 717 383 717 460 
C 717 588 621 664 499 664 
C 346 664 179 530 179 326 
C 179 57 480 -64 755 -64 
C 1062 -64 1280 179 1414 441 
C 1517 64 1837 -64 2074 -64 
C 2726 -64 3072 773 3072 913 
C 3072 945 3046 971 3008 971 
C 2950 971 2944 939 2925 888 
C 2752 326 2381 64 2093 64 
C 1869 64 1747 230 1747 492 
C 1747 632 1773 734 1875 1156 
L 2099 2024 
C 2195 2408 2413 2689 2707 2689 
C 2720 2689 2899 2689 3034 2606 
z
" transform="scale(0.015625)"/>
      </defs>
      <use xlink:href="#CMMI12-78" transform="scale(0.996264)"/>
     </g>
    </g>
   </g>
   <g id="matplotlib.axis_2">
    <g id="ytick_1">
     <g id="line2d_19">
      <path d="M 51.593955 521.153031 
L 935.517672 521.153031 
" clip-path="url(#pababec9f35)" style="fill: none; stroke: #ffffff; stroke-linecap: round"/>
     </g>
     <g id="line2d_20"/>
     <g id="text_11">
      <!-- $\mathdefault{0}$ -->
      <g style="fill: #262626" transform="translate(37.765466 525.995969) scale(0.14 -0.14)">
       <use xlink:href="#CMR17-30" transform="scale(0.996264)"/>
      </g>
     </g>
    </g>
    <g id="ytick_2">
     <g id="line2d_21">
      <path d="M 51.593955 430.901794 
L 935.517672 430.901794 
" clip-path="url(#pababec9f35)" style="fill: none; stroke: #ffffff; stroke-linecap: round"/>
     </g>
     <g id="line2d_22"/>
     <g id="text_12">
      <!-- $\mathdefault{200}$ -->
      <g style="fill: #262626" transform="translate(24.108489 435.744732) scale(0.14 -0.14)">
       <use xlink:href="#CMR17-32" transform="scale(0.996264)"/>
       <use xlink:href="#CMR17-30" transform="translate(45.690477 0) scale(0.996264)"/>
       <use xlink:href="#CMR17-30" transform="translate(91.380954 0) scale(0.996264)"/>
      </g>
     </g>
    </g>
    <g id="ytick_3">
     <g id="line2d_23">
      <path d="M 51.593955 340.650557 
L 935.517672 340.650557 
" clip-path="url(#pababec9f35)" style="fill: none; stroke: #ffffff; stroke-linecap: round"/>
     </g>
     <g id="line2d_24"/>
     <g id="text_13">
      <!-- $\mathdefault{400}$ -->
      <g style="fill: #262626" transform="translate(24.108489 345.493495) scale(0.14 -0.14)">
       <defs>
        <path id="CMR17-34" d="M 2150 4122 
C 2150 4256 2144 4256 2029 4256 
L 128 1254 
L 128 1088 
L 1779 1088 
L 1779 457 
C 1779 224 1766 160 1318 160 
L 1197 160 
L 1197 0 
C 1402 0 1747 0 1965 0 
C 2182 0 2528 0 2733 0 
L 2733 160 
L 2611 160 
C 2163 160 2150 224 2150 457 
L 2150 1088 
L 2803 1088 
L 2803 1254 
L 2150 1254 
L 2150 4122 
z
M 1798 3703 
L 1798 1254 
L 256 1254 
L 1798 3703 
z
" transform="scale(0.015625)"/>
       </defs>
       <use xlink:href="#CMR17-34" transform="scale(0.996264)"/>
       <use xlink:href="#CMR17-30" transform="translate(45.690477 0) scale(0.996264)"/>
       <use xlink:href="#CMR17-30" transform="translate(91.380954 0) scale(0.996264)"/>
      </g>
     </g>
    </g>
    <g id="ytick_4">
     <g id="line2d_25">
      <path d="M 51.593955 250.39932 
L 935.517672 250.39932 
" clip-path="url(#pababec9f35)" style="fill: none; stroke: #ffffff; stroke-linecap: round"/>
     </g>
     <g id="line2d_26"/>
     <g id="text_14">
      <!-- $\mathdefault{600}$ -->
      <g style="fill: #262626" transform="translate(24.108489 255.242258) scale(0.14 -0.14)">
       <defs>
        <path id="CMR17-36" d="M 678 2176 
C 678 3690 1395 4032 1811 4032 
C 1946 4032 2272 4009 2400 3776 
C 2298 3776 2106 3776 2106 3553 
C 2106 3381 2246 3323 2336 3323 
C 2394 3323 2566 3348 2566 3560 
C 2566 3954 2246 4179 1805 4179 
C 1043 4179 243 3390 243 1984 
C 243 253 966 -128 1478 -128 
C 2099 -128 2688 427 2688 1283 
C 2688 2081 2170 2662 1517 2662 
C 1126 2662 838 2407 678 1960 
L 678 2176 
z
M 1478 25 
C 691 25 691 1200 691 1436 
C 691 1896 909 2560 1504 2560 
C 1613 2560 1926 2560 2138 2120 
C 2253 1870 2253 1609 2253 1289 
C 2253 944 2253 690 2118 434 
C 1978 171 1773 25 1478 25 
z
" transform="scale(0.015625)"/>
       </defs>
       <use xlink:href="#CMR17-36" transform="scale(0.996264)"/>
       <use xlink:href="#CMR17-30" transform="translate(45.690477 0) scale(0.996264)"/>
       <use xlink:href="#CMR17-30" transform="translate(91.380954 0) scale(0.996264)"/>
      </g>
     </g>
    </g>
    <g id="ytick_5">
     <g id="line2d_27">
      <path d="M 51.593955 160.148083 
L 935.517672 160.148083 
" clip-path="url(#pababec9f35)" style="fill: none; stroke: #ffffff; stroke-linecap: round"/>
     </g>
     <g id="line2d_28"/>
     <g id="text_15">
      <!-- $\mathdefault{800}$ -->
      <g style="fill: #262626" transform="translate(24.108489 164.991022) scale(0.14 -0.14)">
       <defs>
        <path id="CMR17-38" d="M 1741 2264 
C 2144 2467 2554 2773 2554 3263 
C 2554 3841 1990 4179 1472 4179 
C 890 4179 378 3759 378 3180 
C 378 3021 416 2747 666 2505 
C 730 2442 998 2251 1171 2130 
C 883 1983 211 1634 211 934 
C 211 279 838 -128 1459 -128 
C 2144 -128 2720 362 2720 1010 
C 2720 1590 2330 1857 2074 2029 
L 1741 2264 
z
M 902 2822 
C 851 2854 595 3051 595 3351 
C 595 3739 998 4032 1459 4032 
C 1965 4032 2336 3676 2336 3262 
C 2336 2669 1670 2331 1638 2331 
C 1632 2331 1626 2331 1574 2370 
L 902 2822 
z
M 2080 1519 
C 2176 1449 2483 1240 2483 851 
C 2483 381 2010 25 1472 25 
C 890 25 448 438 448 940 
C 448 1443 838 1862 1280 2060 
L 2080 1519 
z
" transform="scale(0.015625)"/>
       </defs>
       <use xlink:href="#CMR17-38" transform="scale(0.996264)"/>
       <use xlink:href="#CMR17-30" transform="translate(45.690477 0) scale(0.996264)"/>
       <use xlink:href="#CMR17-30" transform="translate(91.380954 0) scale(0.996264)"/>
      </g>
     </g>
    </g>
    <g id="ytick_6">
     <g id="line2d_29">
      <path d="M 51.593955 69.896847 
L 935.517672 69.896847 
" clip-path="url(#pababec9f35)" style="fill: none; stroke: #ffffff; stroke-linecap: round"/>
     </g>
     <g id="line2d_30"/>
     <g id="text_16">
      <!-- $\mathdefault{1000}$ -->
      <g style="fill: #262626" transform="translate(17.28 74.739785) scale(0.14 -0.14)">
       <use xlink:href="#CMR17-31" transform="scale(0.996264)"/>
       <use xlink:href="#CMR17-30" transform="translate(45.690477 0) scale(0.996264)"/>
       <use xlink:href="#CMR17-30" transform="translate(91.380954 0) scale(0.996264)"/>
       <use xlink:href="#CMR17-30" transform="translate(137.071431 0) scale(0.996264)"/>
      </g>
     </g>
    </g>
   </g>
   <g id="line2d_31">
    <path d="M 51.593955 518.891919 
L 60.012276 518.902159 
L 68.430597 518.912353 
L 76.848918 518.922501 
L 85.267239 518.932603 
L 93.68556 518.942659 
L 102.103881 518.95267 
L 110.522202 518.962636 
L 118.940523 518.972557 
L 127.358845 518.982433 
L 135.777166 518.992264 
L 144.195487 519.002051 
L 152.613808 519.011794 
L 161.032129 519.021493 
L 169.45045 519.031148 
L 177.868771 519.040759 
L 186.287092 519.050327 
L 194.705413 519.059852 
L 203.123735 519.069333 
L 211.542056 519.078772 
L 219.960377 519.088169 
L 228.378698 519.097523 
L 236.797019 519.106834 
L 245.21534 519.116104 
L 253.633661 519.125332 
L 262.051982 519.134518 
L 270.470304 519.143663 
L 278.888625 519.152766 
L 287.306946 519.161828 
L 295.725267 519.17085 
L 304.143588 519.17983 
L 312.561909 519.188771 
L 320.98023 519.197671 
L 329.398551 519.20653 
L 337.816872 519.21535 
L 346.235194 519.22413 
L 354.653515 519.23287 
L 363.071836 519.241571 
L 371.490157 519.250233 
L 379.908478 519.258855 
L 388.326799 519.267439 
L 396.74512 519.275984 
L 405.163441 519.28449 
L 413.581763 519.292958 
L 422.000084 519.301388 
L 430.418405 519.30978 
L 438.836726 519.318134 
L 447.255047 519.32645 
L 455.673368 519.334729 
L 464.091689 519.34297 
L 472.51001 519.351175 
L 480.928331 519.359342 
L 489.346653 519.367472 
L 497.764974 519.375566 
L 506.183295 519.383623 
L 514.601616 519.391644 
L 523.019937 519.399629 
L 531.438258 519.407578 
L 539.856579 519.41549 
L 548.2749 519.423368 
L 556.693222 519.431209 
L 565.111543 519.439016 
L 573.529864 519.446787 
L 581.948185 519.454523 
L 590.366506 519.462224 
L 598.784827 519.469891 
L 607.203148 519.477523 
L 615.621469 519.48512 
L 624.03979 519.492683 
L 632.458112 519.500212 
L 640.876433 519.507708 
L 649.294754 519.515169 
L 657.713075 519.522597 
L 666.131396 519.529991 
L 674.549717 519.537352 
L 682.968038 519.54468 
L 691.386359 519.551975 
L 699.804681 519.559237 
L 708.223002 519.566466 
L 716.641323 519.573662 
L 725.059644 519.580827 
L 733.477965 519.587958 
L 741.896286 519.595058 
L 750.314607 519.602126 
L 758.732928 519.609162 
L 767.151249 519.616166 
L 775.569571 519.623138 
L 783.987892 519.63008 
L 792.406213 519.63699 
L 800.824534 519.643868 
L 809.242855 519.650716 
L 817.661176 519.657533 
L 826.079497 519.664319 
L 834.497818 519.671075 
L 842.91614 519.6778 
L 851.334461 519.684494 
L 859.752782 519.691159 
L 868.171103 519.697794 
L 876.589424 519.704398 
L 885.007745 519.710973 
L 893.426066 519.717519 
" clip-path="url(#pababec9f35)" style="fill: none; stroke: #393b79; stroke-width: 2; stroke-linecap: round"/>
   </g>
   <g id="line2d_32">
    <path d="M 51.593955 498.179445 
L 60.012276 498.281624 
L 68.430597 498.383307 
L 76.848918 498.484496 
L 85.267239 498.585195 
L 93.68556 498.685405 
L 102.103881 498.78513 
L 110.522202 498.884373 
L 118.940523 498.983137 
L 127.358845 499.081424 
L 135.777166 499.179236 
L 144.195487 499.276576 
L 152.613808 499.373448 
L 161.032129 499.469855 
L 169.45045 499.565795 
L 177.868771 499.661273 
L 186.287092 499.756294 
L 194.705413 499.850859 
L 203.123735 499.944969 
L 211.542056 500.038628 
L 219.960377 500.131838 
L 228.378698 500.224602 
L 236.797019 500.316923 
L 245.21534 500.408802 
L 253.633661 500.500241 
L 262.051982 500.591243 
L 270.470304 500.681811 
L 278.888625 500.771947 
L 287.306946 500.861655 
L 295.725267 500.950936 
L 304.143588 501.039791 
L 312.561909 501.128222 
L 320.98023 501.216233 
L 329.398551 501.303828 
L 337.816872 501.391006 
L 346.235194 501.477769 
L 354.653515 501.564122 
L 363.071836 501.650066 
L 371.490157 501.735604 
L 379.908478 501.820738 
L 388.326799 501.905467 
L 396.74512 501.989796 
L 405.163441 502.073726 
L 413.581763 502.157261 
L 422.000084 502.240402 
L 430.418405 502.323153 
L 438.836726 502.405512 
L 447.255047 502.487483 
L 455.673368 502.56907 
L 464.091689 502.650272 
L 472.51001 502.731092 
L 480.928331 502.811534 
L 489.346653 502.891598 
L 497.764974 502.971286 
L 506.183295 503.0506 
L 514.601616 503.129542 
L 523.019937 503.208116 
L 531.438258 503.286324 
L 539.856579 503.364164 
L 548.2749 503.441639 
L 556.693222 503.518754 
L 565.111543 503.595509 
L 573.529864 503.671906 
L 581.948185 503.747946 
L 590.366506 503.823633 
L 598.784827 503.898965 
L 607.203148 503.973948 
L 615.621469 504.048582 
L 624.03979 504.122869 
L 632.458112 504.196812 
L 640.876433 504.270411 
L 649.294754 504.343668 
L 657.713075 504.416585 
L 666.131396 504.489164 
L 674.549717 504.561407 
L 682.968038 504.633315 
L 691.386359 504.704891 
L 699.804681 504.776137 
L 708.223002 504.847052 
L 716.641323 504.917639 
L 725.059644 504.987901 
L 733.477965 505.057839 
L 741.896286 505.127453 
L 750.314607 505.196747 
L 758.732928 505.265721 
L 767.151249 505.334377 
L 775.569571 505.402718 
L 783.987892 505.470745 
L 792.406213 505.538459 
L 800.824534 505.605861 
L 809.242855 505.672954 
L 817.661176 505.73974 
L 826.079497 505.806218 
L 834.497818 505.872391 
L 842.91614 505.938261 
L 851.334461 506.003829 
L 859.752782 506.069097 
L 868.171103 506.134066 
L 876.589424 506.198739 
L 885.007745 506.263116 
L 893.426066 506.327198 
" clip-path="url(#pababec9f35)" style="fill: none; stroke: #8ca252; stroke-width: 2; stroke-linecap: round"/>
   </g>
   <g id="line2d_33">
    <path d="M 51.593955 397.721074 
L 60.012276 398.483171 
L 68.430597 399.238908 
L 76.848918 399.988387 
L 85.267239 400.731642 
L 93.68556 401.468763 
L 102.103881 402.199829 
L 110.522202 402.924902 
L 118.940523 403.644043 
L 127.358845 404.357321 
L 135.777166 405.064806 
L 144.195487 405.76656 
L 152.613808 406.46265 
L 161.032129 407.153135 
L 169.45045 407.838075 
L 177.868771 408.517542 
L 186.287092 409.191577 
L 194.705413 409.86026 
L 203.123735 410.523634 
L 211.542056 411.18177 
L 219.960377 411.834709 
L 228.378698 412.482521 
L 236.797019 413.125258 
L 245.21534 413.762964 
L 253.633661 414.3957 
L 262.051982 415.023531 
L 270.470304 415.646483 
L 278.888625 416.264625 
L 287.306946 416.878016 
L 295.725267 417.486681 
L 304.143588 418.090688 
L 312.561909 418.69008 
L 320.98023 419.284902 
L 329.398551 419.875206 
L 337.816872 420.461042 
L 346.235194 421.042446 
L 354.653515 421.619466 
L 363.071836 422.192157 
L 371.490157 422.760552 
L 379.908478 423.3247 
L 388.326799 423.884641 
L 396.74512 424.440408 
L 405.163441 424.992061 
L 413.581763 425.539636 
L 422.000084 426.083166 
L 430.418405 426.622702 
L 438.836726 427.158276 
L 447.255047 427.689932 
L 455.673368 428.217706 
L 464.091689 428.741628 
L 472.51001 429.261746 
L 480.928331 429.778104 
L 489.346653 430.290718 
L 497.764974 430.799651 
L 506.183295 431.304907 
L 514.601616 431.806546 
L 523.019937 432.304595 
L 531.438258 432.799092 
L 539.856579 433.290067 
L 548.2749 433.777546 
L 556.693222 434.261578 
L 565.111543 434.742184 
L 573.529864 435.219401 
L 581.948185 435.693265 
L 590.366506 436.163795 
L 598.784827 436.63104 
L 607.203148 437.095003 
L 615.621469 437.555755 
L 624.03979 438.013282 
L 632.458112 438.467647 
L 640.876433 438.918868 
L 649.294754 439.366971 
L 657.713075 439.811985 
L 666.131396 440.253937 
L 674.549717 440.692866 
L 682.968038 441.128782 
L 691.386359 441.561729 
L 699.804681 441.991725 
L 708.223002 442.418802 
L 716.641323 442.842974 
L 725.059644 443.264281 
L 733.477965 443.68274 
L 741.896286 444.098387 
L 750.314607 444.511229 
L 758.732928 444.921311 
L 767.151249 445.328641 
L 775.569571 445.733255 
L 783.987892 446.135172 
L 792.406213 446.534416 
L 800.824534 446.931009 
L 809.242855 447.324976 
L 817.661176 447.716339 
L 826.079497 448.105124 
L 834.497818 448.491343 
L 842.91614 448.87503 
L 851.334461 449.256203 
L 859.752782 449.634882 
L 868.171103 450.011087 
L 876.589424 450.384849 
L 885.007745 450.756171 
L 893.426066 451.125098 
" clip-path="url(#pababec9f35)" style="fill: none; stroke: #e7ba52; stroke-width: 2; stroke-linecap: round"/>
   </g>
   <g id="line2d_34">
    <path d="M 51.593955 250.283079 
L 60.012276 252.652903 
L 68.430597 254.990859 
L 76.848918 257.297617 
L 85.267239 259.573717 
L 93.68556 261.81978 
L 102.103881 264.036392 
L 110.522202 266.224103 
L 118.940523 268.383447 
L 127.358845 270.514953 
L 135.777166 272.619154 
L 144.195487 274.696544 
L 152.613808 276.747624 
L 161.032129 278.772869 
L 169.45045 280.772742 
L 177.868771 282.747726 
L 186.287092 284.698225 
L 194.705413 286.624719 
L 203.123735 288.527606 
L 211.542056 290.407323 
L 219.960377 292.264249 
L 228.378698 294.098806 
L 236.797019 295.911376 
L 245.21534 297.702319 
L 253.633661 299.472022 
L 262.051982 301.220868 
L 270.470304 302.949155 
L 278.888625 304.657271 
L 287.306946 306.345562 
L 295.725267 308.014318 
L 304.143588 309.663894 
L 312.561909 311.294596 
L 320.98023 312.906728 
L 329.398551 314.500601 
L 337.816872 316.076517 
L 346.235194 317.634749 
L 354.653515 319.175581 
L 363.071836 320.699315 
L 371.490157 322.206198 
L 379.908478 323.696505 
L 388.326799 325.170499 
L 396.74512 326.628403 
L 405.163441 328.070516 
L 413.581763 329.497062 
L 422.000084 330.908271 
L 430.418405 332.304393 
L 438.836726 333.685648 
L 447.255047 335.052267 
L 455.673368 336.40447 
L 464.091689 337.742454 
L 472.51001 339.066451 
L 480.928331 340.376682 
L 489.346653 341.673314 
L 497.764974 342.956596 
L 506.183295 344.226663 
L 514.601616 345.483753 
L 523.019937 346.72804 
L 531.438258 347.959717 
L 539.856579 349.178956 
L 548.2749 350.385922 
L 556.693222 351.580815 
L 565.111543 352.76379 
L 573.529864 353.935021 
L 581.948185 355.094677 
L 590.366506 356.242904 
L 598.784827 357.379886 
L 607.203148 358.505737 
L 615.621469 359.620672 
L 624.03979 360.724775 
L 632.458112 361.81824 
L 640.876433 362.901198 
L 649.294754 363.973786 
L 657.713075 365.036149 
L 666.131396 366.088413 
L 674.549717 367.130734 
L 682.968038 368.163222 
L 691.386359 369.186027 
L 699.804681 370.199261 
L 708.223002 371.203066 
L 716.641323 372.197542 
L 725.059644 373.182829 
L 733.477965 374.159038 
L 741.896286 375.126296 
L 750.314607 376.084698 
L 758.732928 377.034383 
L 767.151249 377.97544 
L 775.569571 378.907993 
L 783.987892 379.832143 
L 792.406213 380.747996 
L 800.824534 381.655658 
L 809.242855 382.555226 
L 817.661176 383.446806 
L 826.079497 384.330502 
L 834.497818 385.206391 
L 842.91614 386.074591 
L 851.334461 386.935189 
L 859.752782 387.788274 
L 868.171103 388.633935 
L 876.589424 389.472278 
L 885.007745 390.303363 
L 893.426066 391.127316 
" clip-path="url(#pababec9f35)" style="fill: none; stroke: #e7969c; stroke-width: 2; stroke-linecap: round"/>
   </g>
   <g id="line2d_35">
    <path d="M 51.593955 73.85714 
L 60.012276 79.1422 
L 68.430597 84.324251 
L 76.848918 89.406324 
L 85.267239 94.391133 
L 93.68556 99.281465 
L 102.103881 104.079959 
L 110.522202 108.789133 
L 118.940523 113.411402 
L 127.358845 117.949104 
L 135.777166 122.404532 
L 144.195487 126.779857 
L 152.613808 131.07719 
L 161.032129 135.298558 
L 169.45045 139.445916 
L 177.868771 143.521199 
L 186.287092 147.526175 
L 194.705413 151.462678 
L 203.123735 155.33238 
L 211.542056 159.136968 
L 219.960377 162.877998 
L 228.378698 166.557063 
L 236.797019 170.17565 
L 245.21534 173.735179 
L 253.633661 177.23708 
L 262.051982 180.682756 
L 270.470304 184.073432 
L 278.888625 187.410449 
L 287.306946 190.695063 
L 295.725267 193.928409 
L 304.143588 197.1117 
L 312.561909 200.246051 
L 320.98023 203.332548 
L 329.398551 206.372267 
L 337.816872 209.366249 
L 346.235194 212.315472 
L 354.653515 215.220911 
L 363.071836 218.083539 
L 371.490157 220.904246 
L 379.908478 223.683932 
L 388.326799 226.423473 
L 396.74512 229.123658 
L 405.163441 231.785383 
L 413.581763 234.409411 
L 422.000084 236.996506 
L 430.418405 239.547442 
L 438.836726 242.062935 
L 447.255047 244.543715 
L 455.673368 246.990467 
L 464.091689 249.403845 
L 472.51001 251.784534 
L 480.928331 254.133193 
L 489.346653 256.450395 
L 497.764974 258.736818 
L 506.183295 260.992969 
L 514.601616 263.219491 
L 523.019937 265.416927 
L 531.438258 267.585836 
L 539.856579 269.726743 
L 548.2749 271.840149 
L 556.693222 273.9266 
L 565.111543 275.986569 
L 573.529864 278.020551 
L 581.948185 280.029022 
L 590.366506 282.012427 
L 598.784827 283.971244 
L 607.203148 285.905859 
L 615.621469 287.816787 
L 624.03979 289.704354 
L 632.458112 291.569035 
L 640.876433 293.411209 
L 649.294754 295.231262 
L 657.713075 297.029581 
L 666.131396 298.806526 
L 674.549717 300.562485 
L 682.968038 302.297788 
L 691.386359 304.012811 
L 699.804681 305.707873 
L 708.223002 307.383326 
L 716.641323 309.039465 
L 725.059644 310.676635 
L 733.477965 312.295138 
L 741.896286 313.895287 
L 750.314607 315.477356 
L 758.732928 317.041671 
L 767.151249 318.588491 
L 775.569571 320.118112 
L 783.987892 321.630794 
L 792.406213 323.126814 
L 800.824534 324.606432 
L 809.242855 326.069897 
L 817.661176 327.517468 
L 826.079497 328.949398 
L 834.497818 330.365904 
L 842.91614 331.767249 
L 851.334461 333.153655 
L 859.752782 334.525344 
L 868.171103 335.882537 
L 876.589424 337.225471 
L 885.007745 338.554322 
L 893.426066 339.869353 
" clip-path="url(#pababec9f35)" style="fill: none; stroke: #de9ed6; stroke-width: 2; stroke-linecap: round"/>
   </g>
   <g id="patch_3">
    <path d="M 51.593955 521.153031 
L 51.593955 51.564121 
" style="fill: none"/>
   </g>
   <g id="patch_4">
    <path d="M 935.517672 521.153031 
L 935.517672 51.564121 
" style="fill: none"/>
   </g>
   <g id="patch_5">
    <path d="M 51.593955 521.153031 
L 935.517672 521.153031 
" style="fill: none"/>
   </g>
   <g id="patch_6">
    <path d="M 51.593955 51.564121 
L 935.517672 51.564121 
" style="fill: none"/>
   </g>
   <g id="patch_7">
    <path d="M 472.51001 517.36357 
Q 472.51001 385.566254 472.51001 255.44599 
" style="fill: none; stroke: #000000; stroke-width: 1.5; stroke-linecap: round"/>
    <path d="M 469.31001 261.84599 
L 472.51001 255.44599 
L 475.71001 261.84599 
" style="fill: none; stroke: #000000; stroke-width: 1.5; stroke-linecap: round"/>
   </g>
   <g id="text_17">
    <!-- Time -->
    <g style="fill: #262626" transform="translate(493.555813 248.282932) scale(0.18 -0.18)">
     <defs>
      <path id="CMR17-54" d="M 3981 4326 
L 288 4326 
L 179 2918 
L 294 2918 
C 378 3976 467 4160 1453 4160 
C 1568 4160 1754 4160 1805 4154 
C 1926 4135 1926 4058 1926 3912 
L 1926 459 
C 1926 230 1907 160 1376 160 
L 1197 160 
L 1197 0 
C 1504 0 1824 0 2138 0 
C 2451 0 2771 0 3078 0 
L 3078 160 
L 2899 160 
C 2368 160 2349 230 2349 459 
L 2349 3912 
C 2349 4052 2349 4129 2464 4154 
C 2515 4160 2701 4160 2816 4160 
C 3795 4160 3891 3976 3974 2918 
L 4090 2918 
L 3981 4326 
z
" transform="scale(0.015625)"/>
      <path id="CMR17-69" d="M 992 3909 
C 992 4049 877 4170 730 4170 
C 589 4170 467 4056 467 3909 
C 467 3769 582 3648 730 3648 
C 870 3648 992 3763 992 3909 
z
M 243 2706 
L 243 2541 
C 602 2541 653 2502 653 2197 
L 653 427 
C 653 184 627 153 218 153 
L 218 -13 
C 371 0 646 0 806 0 
C 960 0 1222 0 1370 -13 
L 1370 153 
C 992 153 979 191 979 420 
L 979 2776 
L 243 2706 
z
" transform="scale(0.015625)"/>
      <path id="CMR17-6d" d="M 4326 1933 
C 4326 2252 4269 2790 3507 2790 
C 3072 2790 2771 2496 2656 2151 
L 2650 2151 
C 2573 2676 2195 2790 1837 2790 
C 1331 2790 1069 2400 973 2144 
L 966 2144 
L 966 2790 
L 211 2720 
L 211 2554 
C 589 2554 646 2515 646 2208 
L 646 428 
C 646 184 621 153 211 153 
L 211 -13 
C 365 0 646 0 813 0 
C 979 0 1267 0 1421 -13 
L 1421 153 
C 1011 153 986 178 986 428 
L 986 1658 
C 986 2247 1344 2688 1792 2688 
C 2266 2688 2317 2266 2317 1958 
L 2317 428 
C 2317 184 2291 153 1882 153 
L 1882 -13 
C 2035 0 2317 0 2483 0 
C 2650 0 2938 0 3091 -13 
L 3091 153 
C 2682 153 2656 178 2656 428 
L 2656 1658 
C 2656 2247 3014 2688 3462 2688 
C 3936 2688 3987 2266 3987 1958 
L 3987 428 
C 3987 184 3962 153 3552 153 
L 3552 -13 
C 3706 0 3987 0 4154 0 
C 4320 0 4608 0 4762 -13 
L 4762 153 
C 4352 153 4326 178 4326 428 
L 4326 1933 
z
" transform="scale(0.015625)"/>
      <path id="CMR17-65" d="M 2438 1472 
C 2464 1498 2464 1511 2464 1576 
C 2464 2238 2118 2816 1389 2816 
C 710 2816 173 2169 173 1383 
C 173 551 781 -64 1459 -64 
C 2176 -64 2458 607 2458 740 
C 2458 784 2419 784 2406 784 
C 2362 784 2355 771 2330 696 
C 2189 265 1837 51 1504 51 
C 1229 51 954 203 781 480 
C 582 803 582 1176 582 1472 
L 2438 1472 
z
M 589 1568 
C 634 2505 1126 2714 1382 2714 
C 1818 2714 2112 2297 2118 1568 
L 589 1568 
z
" transform="scale(0.015625)"/>
     </defs>
     <use xlink:href="#CMR17-54" transform="scale(0.996264)"/>
     <use xlink:href="#CMR17-69" transform="translate(66.509881 0) scale(0.996264)"/>
     <use xlink:href="#CMR17-6d" transform="translate(91.380939 0) scale(0.996264)"/>
     <use xlink:href="#CMR17-65" transform="translate(168.300529 0) scale(0.996264)"/>
    </g>
   </g>
   <g id="legend_1">
    <g id="line2d_36">
     <path d="M 948.117672 245.978505 
L 962.117672 245.978505 
L 976.117672 245.978505 
" style="fill: none; stroke: #393b79; stroke-width: 2; stroke-linecap: round"/>
    </g>
    <g id="text_18">
     <!-- t = 10.00 -->
     <g style="fill: #262626" transform="translate(987.317672 250.878505) scale(0.14 -0.14)">
      <defs>
       <path id="CMR17-74" d="M 966 2560 
L 1862 2560 
L 1862 2725 
L 966 2725 
L 966 3904 
L 851 3904 
C 838 3245 614 2668 70 2668 
L 70 2560 
L 627 2560 
L 627 771 
C 627 650 627 -64 1370 -64 
C 1747 -64 1965 306 1965 777 
L 1965 1140 
L 1850 1140 
L 1850 783 
C 1850 344 1677 51 1408 51 
C 1222 51 966 178 966 758 
L 966 2560 
z
" transform="scale(0.015625)"/>
       <path id="CMR17-3d" d="M 4115 2017 
C 4211 2017 4307 2017 4307 2125 
C 4307 2240 4198 2240 4090 2240 
L 512 2240 
C 403 2240 294 2240 294 2125 
C 294 2017 390 2017 486 2017 
L 4115 2017 
z
M 4090 896 
C 4198 896 4307 896 4307 1011 
C 4307 1119 4211 1119 4115 1119 
L 486 1119 
C 390 1119 294 1119 294 1011 
C 294 896 403 896 512 896 
L 4090 896 
z
" transform="scale(0.015625)"/>
       <path id="CMR17-2e" d="M 1062 261 
C 1062 420 934 522 800 522 
C 672 522 538 420 538 261 
C 538 102 666 0 800 0 
C 928 0 1062 102 1062 261 
z
" transform="scale(0.015625)"/>
      </defs>
      <use xlink:href="#CMR17-74" transform="scale(0.996264)"/>
      <use xlink:href="#CMR17-3d" transform="translate(65.356734 0) scale(0.996264)"/>
      <use xlink:href="#CMR17-31" transform="translate(167.147489 0) scale(0.996264)"/>
      <use xlink:href="#CMR17-30" transform="translate(212.837966 0) scale(0.996264)"/>
      <use xlink:href="#CMR17-2e" transform="translate(258.528443 0) scale(0.996264)"/>
      <use xlink:href="#CMR17-30" transform="translate(283.399502 0) scale(0.996264)"/>
      <use xlink:href="#CMR17-30" transform="translate(329.089979 0) scale(0.996264)"/>
     </g>
    </g>
    <g id="line2d_37">
     <path d="M 948.117672 265.490533 
L 962.117672 265.490533 
L 976.117672 265.490533 
" style="fill: none; stroke: #8ca252; stroke-width: 2; stroke-linecap: round"/>
    </g>
    <g id="text_19">
     <!-- t = 100.00 -->
     <g style="fill: #262626" transform="translate(987.317672 270.390533) scale(0.14 -0.14)">
      <use xlink:href="#CMR17-74" transform="scale(0.996264)"/>
      <use xlink:href="#CMR17-3d" transform="translate(65.356734 0) scale(0.996264)"/>
      <use xlink:href="#CMR17-31" transform="translate(167.147489 0) scale(0.996264)"/>
      <use xlink:href="#CMR17-30" transform="translate(212.837966 0) scale(0.996264)"/>
      <use xlink:href="#CMR17-30" transform="translate(258.528443 0) scale(0.996264)"/>
      <use xlink:href="#CMR17-2e" transform="translate(304.21892 0) scale(0.996264)"/>
      <use xlink:href="#CMR17-30" transform="translate(329.089979 0) scale(0.996264)"/>
      <use xlink:href="#CMR17-30" transform="translate(374.780456 0) scale(0.996264)"/>
     </g>
    </g>
    <g id="line2d_38">
     <path d="M 948.117672 285.002562 
L 962.117672 285.002562 
L 976.117672 285.002562 
" style="fill: none; stroke: #e7ba52; stroke-width: 2; stroke-linecap: round"/>
    </g>
    <g id="text_20">
     <!-- t = 500.00 -->
     <g style="fill: #262626" transform="translate(987.317672 289.902562) scale(0.14 -0.14)">
      <use xlink:href="#CMR17-74" transform="scale(0.996264)"/>
      <use xlink:href="#CMR17-3d" transform="translate(65.356734 0) scale(0.996264)"/>
      <use xlink:href="#CMR17-35" transform="translate(167.147489 0) scale(0.996264)"/>
      <use xlink:href="#CMR17-30" transform="translate(212.837966 0) scale(0.996264)"/>
      <use xlink:href="#CMR17-30" transform="translate(258.528443 0) scale(0.996264)"/>
      <use xlink:href="#CMR17-2e" transform="translate(304.21892 0) scale(0.996264)"/>
      <use xlink:href="#CMR17-30" transform="translate(329.089979 0) scale(0.996264)"/>
      <use xlink:href="#CMR17-30" transform="translate(374.780456 0) scale(0.996264)"/>
     </g>
    </g>
    <g id="line2d_39">
     <path d="M 948.117672 304.51459 
L 962.117672 304.51459 
L 976.117672 304.51459 
" style="fill: none; stroke: #e7969c; stroke-width: 2; stroke-linecap: round"/>
    </g>
    <g id="text_21">
     <!-- t = 1000.00 -->
     <g style="fill: #262626" transform="translate(987.317672 309.41459) scale(0.14 -0.14)">
      <use xlink:href="#CMR17-74" transform="scale(0.996264)"/>
      <use xlink:href="#CMR17-3d" transform="translate(65.356734 0) scale(0.996264)"/>
      <use xlink:href="#CMR17-31" transform="translate(167.147489 0) scale(0.996264)"/>
      <use xlink:href="#CMR17-30" transform="translate(212.837966 0) scale(0.996264)"/>
      <use xlink:href="#CMR17-30" transform="translate(258.528443 0) scale(0.996264)"/>
      <use xlink:href="#CMR17-30" transform="translate(304.21892 0) scale(0.996264)"/>
      <use xlink:href="#CMR17-2e" transform="translate(349.909397 0) scale(0.996264)"/>
      <use xlink:href="#CMR17-30" transform="translate(374.780456 0) scale(0.996264)"/>
      <use xlink:href="#CMR17-30" transform="translate(420.470933 0) scale(0.996264)"/>
     </g>
    </g>
    <g id="line2d_40">
     <path d="M 948.117672 324.026618 
L 962.117672 324.026618 
L 976.117672 324.026618 
" style="fill: none; stroke: #de9ed6; stroke-width: 2; stroke-linecap: round"/>
    </g>
    <g id="text_22">
     <!-- t = 1500.00 -->
     <g style="fill: #262626" transform="translate(987.317672 328.926618) scale(0.14 -0.14)">
      <use xlink:href="#CMR17-74" transform="scale(0.996264)"/>
      <use xlink:href="#CMR17-3d" transform="translate(65.356734 0) scale(0.996264)"/>
      <use xlink:href="#CMR17-31" transform="translate(167.147489 0) scale(0.996264)"/>
      <use xlink:href="#CMR17-35" transform="translate(212.837966 0) scale(0.996264)"/>
      <use xlink:href="#CMR17-30" transform="translate(258.528443 0) scale(0.996264)"/>
      <use xlink:href="#CMR17-30" transform="translate(304.21892 0) scale(0.996264)"/>
      <use xlink:href="#CMR17-2e" transform="translate(349.909397 0) scale(0.996264)"/>
      <use xlink:href="#CMR17-30" transform="translate(374.780456 0) scale(0.996264)"/>
      <use xlink:href="#CMR17-30" transform="translate(420.470933 0) scale(0.996264)"/>
     </g>
    </g>
   </g>
  </g>
  <g id="text_23">
   <!-- auxiliar_variable -->
   <g style="fill: #262626" transform="translate(478.153677 24.803515) scale(0.192 -0.192)">
    <defs>
     <path id="CMR17-61" d="M 2304 1653 
C 2304 2072 2304 2294 2035 2543 
C 1798 2752 1523 2816 1306 2816 
C 800 2816 435 2407 435 1971 
C 435 1728 627 1728 666 1728 
C 749 1728 896 1778 896 1954 
C 896 2112 774 2181 666 2181 
C 640 2181 608 2174 589 2168 
C 723 2592 1069 2714 1293 2714 
C 1613 2714 1965 2429 1965 1885 
L 1965 1600 
C 1587 1600 1133 1549 774 1357 
C 371 1133 256 813 256 570 
C 256 77 832 -64 1171 -64 
C 1523 -64 1850 139 1990 511 
C 2003 233 2182 -18 2464 -18 
C 2598 -18 2938 70 2938 567 
L 2938 920 
L 2822 920 
L 2822 562 
C 2822 178 2650 128 2566 128 
C 2304 128 2304 458 2304 738 
L 2304 1653 
z
M 1965 870 
C 1965 317 1568 38 1216 38 
C 896 38 646 275 646 570 
C 646 761 730 1100 1101 1305 
C 1408 1478 1760 1504 1965 1504 
L 1965 870 
z
" transform="scale(0.015625)"/>
     <path id="CMR17-75" d="M 1882 2693 
L 1882 2528 
C 2259 2528 2317 2489 2317 2186 
L 2317 1032 
C 2317 500 2029 38 1555 38 
C 1030 38 986 348 986 678 
L 986 2763 
L 211 2693 
L 211 2528 
C 467 2528 640 2528 646 2274 
L 646 1058 
C 646 633 646 361 813 183 
C 896 101 1056 -64 1517 -64 
C 2061 -64 2272 377 2323 506 
L 2330 506 
L 2330 -63 
L 3091 -63 
L 3091 128 
C 2714 128 2656 166 2656 473 
L 2656 2763 
L 1882 2693 
z
" transform="scale(0.015625)"/>
     <path id="CMR17-78" d="M 1664 1477 
C 1856 1726 2074 2006 2253 2216 
C 2464 2458 2707 2560 2989 2560 
L 2989 2726 
C 2880 2726 2656 2726 2541 2726 
C 2368 2726 2170 2726 2022 2732 
L 2022 2566 
C 2112 2553 2163 2489 2163 2400 
C 2163 2285 2099 2215 2067 2171 
L 1594 1573 
L 1030 2306 
C 973 2376 973 2388 973 2420 
C 973 2497 1037 2560 1146 2560 
L 1146 2732 
C 992 2726 717 2726 557 2726 
C 384 2726 179 2726 38 2732 
L 38 2560 
C 384 2560 461 2534 614 2343 
L 1350 1395 
C 1363 1382 1395 1344 1395 1325 
C 1395 1299 838 619 768 530 
C 480 185 179 160 6 160 
L 6 0 
C 115 0 339 0 454 0 
C 582 0 864 0 979 -6 
L 979 160 
C 941 166 838 179 838 325 
C 838 440 890 510 947 586 
L 1478 1236 
L 2035 512 
C 2086 442 2163 346 2163 301 
C 2163 211 2086 160 1984 160 
L 1984 -6 
C 2138 0 2413 0 2573 0 
C 2746 0 2950 0 3091 -6 
L 3091 160 
C 2771 160 2675 172 2522 370 
L 1664 1477 
z
" transform="scale(0.015625)"/>
     <path id="CMR17-6c" d="M 979 4396 
L 218 4326 
L 218 4160 
C 595 4160 653 4122 653 3817 
L 653 426 
C 653 184 627 153 218 153 
L 218 -13 
C 371 0 653 0 813 0 
C 979 0 1261 0 1414 -13 
L 1414 153 
C 1005 153 979 178 979 426 
L 979 4396 
z
" transform="scale(0.015625)"/>
     <path id="CMR17-72" d="M 960 1497 
C 960 2112 1222 2688 1702 2688 
C 1747 2688 1792 2682 1837 2662 
C 1837 2662 1696 2617 1696 2452 
C 1696 2298 1818 2234 1914 2234 
C 1990 2234 2131 2279 2131 2458 
C 2131 2663 1926 2790 1709 2790 
C 1222 2790 1011 2317 947 2093 
L 941 2093 
L 941 2790 
L 198 2720 
L 198 2554 
C 576 2554 634 2515 634 2208 
L 634 428 
C 634 184 608 153 198 153 
L 198 -13 
C 352 0 646 0 813 0 
C 998 0 1325 0 1498 -13 
L 1498 153 
C 1037 153 960 153 960 440 
L 960 1497 
z
" transform="scale(0.015625)"/>
     <path id="CMR17-76" d="M 2502 2163 
C 2560 2304 2662 2560 3034 2560 
L 3034 2726 
C 2912 2726 2752 2726 2630 2726 
C 2496 2726 2285 2726 2157 2732 
L 2157 2566 
C 2317 2553 2406 2477 2406 2311 
C 2406 2253 2406 2240 2368 2151 
L 1664 377 
L 902 2286 
C 864 2369 864 2381 864 2407 
C 864 2560 1075 2560 1171 2560 
L 1171 2732 
C 1018 2726 736 2726 576 2726 
C 403 2726 205 2726 64 2732 
L 64 2560 
C 307 2560 442 2560 518 2362 
L 1446 44 
C 1485 -51 1491 -64 1549 -64 
C 1606 -64 1613 -51 1651 44 
L 2502 2163 
z
" transform="scale(0.015625)"/>
     <path id="CMR17-62" d="M 960 4396 
L 198 4326 
L 198 4160 
C 576 4160 634 4122 634 3817 
L 634 -13 
L 749 -13 
L 934 441 
C 1120 141 1395 -64 1766 -64 
C 2406 -64 3053 500 3053 1370 
C 3053 2188 2477 2790 1830 2790 
C 1434 2790 1152 2579 960 2330 
L 960 4396 
z
M 973 2004 
C 973 2118 973 2138 1062 2272 
C 1312 2657 1670 2688 1792 2688 
C 1984 2688 2643 2585 2643 1376 
C 2643 108 1888 38 1734 38 
C 1536 38 1248 114 1043 486 
C 973 608 973 621 973 735 
L 973 2004 
z
" transform="scale(0.015625)"/>
    </defs>
    <use xlink:href="#CMR17-61" transform="scale(0.996264)"/>
    <use xlink:href="#CMR17-75" transform="translate(45.690477 0) scale(0.996264)"/>
    <use xlink:href="#CMR17-78" transform="translate(96.585847 0) scale(0.996264)"/>
    <use xlink:href="#CMR17-69" transform="translate(144.878763 0) scale(0.996264)"/>
    <use xlink:href="#CMR17-6c" transform="translate(169.749821 0) scale(0.996264)"/>
    <use xlink:href="#CMR17-69" transform="translate(194.62088 0) scale(0.996264)"/>
    <use xlink:href="#CMR17-61" transform="translate(219.491938 0) scale(0.996264)"/>
    <use xlink:href="#CMR17-72" transform="translate(265.182415 0) scale(0.996264)"/>
    <use xlink:href="#CMR17-76" transform="translate(333.360403 0) scale(0.996264)"/>
    <use xlink:href="#CMR17-61" transform="translate(376.448502 0) scale(0.996264)"/>
    <use xlink:href="#CMR17-72" transform="translate(422.138979 0) scale(0.996264)"/>
    <use xlink:href="#CMR17-69" transform="translate(457.419747 0) scale(0.996264)"/>
    <use xlink:href="#CMR17-61" transform="translate(482.290805 0) scale(0.996264)"/>
    <use xlink:href="#CMR17-62" transform="translate(527.981282 0) scale(0.996264)"/>
    <use xlink:href="#CMR17-6c" transform="translate(578.876652 0) scale(0.996264)"/>
    <use xlink:href="#CMR17-65" transform="translate(603.747711 0) scale(0.996264)"/>
    <path d="M 305.945812 0 
L 333.360403 0 
L 333.360403 0.3985 
L 305.945812 0.3985 
L 305.945812 0 
z
"/>
   </g>
  </g>
 </g>
 <defs>
  <clipPath id="pababec9f35">
   <rect x="51.593955" y="51.564121" width="883.923717" height="469.58891"/>
  </clipPath>
 </defs>
</svg>
