<?xml version="1.0" encoding="utf-8" standalone="no"?>
<!DOCTYPE svg PUBLIC "-//W3C//DTD SVG 1.1//EN"
  "http://www.w3.org/Graphics/SVG/1.1/DTD/svg11.dtd">
<svg xmlns:xlink="http://www.w3.org/1999/xlink" width="1080pt" height="756pt" viewBox="0 0 1080 756" xmlns="http://www.w3.org/2000/svg" version="1.1">
 <metadata>
  <rdf:RDF xmlns:dc="http://purl.org/dc/elements/1.1/" xmlns:cc="http://creativecommons.org/ns#" xmlns:rdf="http://www.w3.org/1999/02/22-rdf-syntax-ns#">
   <cc:Work>
    <dc:type rdf:resource="http://purl.org/dc/dcmitype/StillImage"/>
    <dc:date>2024-07-30T18:26:20.766747</dc:date>
    <dc:format>image/svg+xml</dc:format>
    <dc:creator>
     <cc:Agent>
      <dc:title>Matplotlib v3.9.0, https://matplotlib.org/</dc:title>
     </cc:Agent>
    </dc:creator>
   </cc:Work>
  </rdf:RDF>
 </metadata>
 <defs>
  <style type="text/css">*{stroke-linejoin: round; stroke-linecap: butt}</style>
 </defs>
 <g id="figure_1">
  <g id="patch_1">
   <path d="M 0 756 
L 1080 756 
L 1080 0 
L 0 0 
z
" style="fill: #ffffff"/>
  </g>
  <g id="axes_1">
   <g id="patch_2">
    <path d="M 88.532127 678.237256 
L 1041.12 678.237256 
L 1041.12 38.88 
L 88.532127 38.88 
z
" style="fill: #ffffff"/>
   </g>
   <g id="matplotlib.axis_1">
    <g id="xtick_1">
     <g id="line2d_1">
      <defs>
       <path id="mc052888040" d="M 0 0 
L 0 3.5 
" style="stroke: #262626; stroke-width: 0.8"/>
      </defs>
      <g>
       <use xlink:href="#mc052888040" x="88.532127" y="678.237256" style="fill: #262626; stroke: #262626; stroke-width: 0.8"/>
      </g>
     </g>
     <g id="text_1">
      <!-- $\mathdefault{0}$ -->
      <g style="fill: #262626" transform="translate(80.307841 710.143856) scale(0.36 -0.36)">
       <defs>
        <path id="CMR17-30" d="M 2688 2025 
C 2688 2416 2682 3080 2413 3591 
C 2176 4039 1798 4198 1466 4198 
C 1158 4198 768 4058 525 3597 
C 269 3118 243 2524 243 2025 
C 243 1661 250 1106 448 619 
C 723 -39 1216 -128 1466 -128 
C 1760 -128 2208 -7 2470 600 
C 2662 1042 2688 1559 2688 2025 
z
M 1466 -26 
C 1056 -26 813 325 723 812 
C 653 1188 653 1738 653 2096 
C 653 2588 653 2997 736 3387 
C 858 3929 1216 4096 1466 4096 
C 1728 4096 2067 3923 2189 3400 
C 2272 3036 2278 2607 2278 2096 
C 2278 1680 2278 1169 2202 792 
C 2067 95 1690 -26 1466 -26 
z
" transform="scale(0.015625)"/>
       </defs>
       <use xlink:href="#CMR17-30" transform="scale(0.996264)"/>
      </g>
     </g>
    </g>
    <g id="xtick_2">
     <g id="line2d_2">
      <g>
       <use xlink:href="#mc052888040" x="315.338764" y="678.237256" style="fill: #262626; stroke: #262626; stroke-width: 0.8"/>
      </g>
     </g>
     <g id="text_2">
      <!-- $\mathdefault{500}$ -->
      <g style="fill: #262626" transform="translate(290.665906 710.143856) scale(0.36 -0.36)">
       <defs>
        <path id="CMR17-35" d="M 730 3692 
C 794 3666 1056 3584 1325 3584 
C 1920 3584 2246 3911 2432 4100 
C 2432 4157 2432 4192 2394 4192 
C 2387 4192 2374 4192 2323 4163 
C 2099 4058 1837 3973 1517 3973 
C 1325 3973 1037 3999 723 4139 
C 653 4171 640 4171 634 4171 
C 602 4171 595 4164 595 4037 
L 595 2203 
C 595 2089 595 2057 659 2057 
C 691 2057 704 2070 736 2114 
C 941 2401 1222 2522 1542 2522 
C 1766 2522 2246 2382 2246 1289 
C 2246 1085 2246 715 2054 421 
C 1894 159 1645 25 1370 25 
C 947 25 518 320 403 814 
C 429 807 480 795 506 795 
C 589 795 749 840 749 1038 
C 749 1210 627 1280 506 1280 
C 358 1280 262 1190 262 1011 
C 262 454 704 -128 1382 -128 
C 2042 -128 2669 440 2669 1264 
C 2669 2030 2170 2624 1549 2624 
C 1222 2624 947 2503 730 2274 
L 730 3692 
z
" transform="scale(0.015625)"/>
       </defs>
       <use xlink:href="#CMR17-35" transform="scale(0.996264)"/>
       <use xlink:href="#CMR17-30" transform="translate(45.690477 0) scale(0.996264)"/>
       <use xlink:href="#CMR17-30" transform="translate(91.380954 0) scale(0.996264)"/>
      </g>
     </g>
    </g>
    <g id="xtick_3">
     <g id="line2d_3">
      <g>
       <use xlink:href="#mc052888040" x="542.1454" y="678.237256" style="fill: #262626; stroke: #262626; stroke-width: 0.8"/>
      </g>
     </g>
     <g id="text_3">
      <!-- $\mathdefault{1000}$ -->
      <g style="fill: #262626" transform="translate(509.248256 710.143856) scale(0.36 -0.36)">
       <defs>
        <path id="CMR17-31" d="M 1702 4058 
C 1702 4192 1696 4192 1606 4192 
C 1357 3916 979 3827 621 3827 
C 602 3827 570 3827 563 3808 
C 557 3795 557 3782 557 3648 
C 755 3648 1088 3686 1344 3839 
L 1344 461 
C 1344 236 1331 160 781 160 
L 589 160 
L 589 0 
C 896 0 1216 0 1523 0 
C 1830 0 2150 0 2458 0 
L 2458 160 
L 2266 160 
C 1715 160 1702 230 1702 458 
L 1702 4058 
z
" transform="scale(0.015625)"/>
       </defs>
       <use xlink:href="#CMR17-31" transform="scale(0.996264)"/>
       <use xlink:href="#CMR17-30" transform="translate(45.690477 0) scale(0.996264)"/>
       <use xlink:href="#CMR17-30" transform="translate(91.380954 0) scale(0.996264)"/>
       <use xlink:href="#CMR17-30" transform="translate(137.071431 0) scale(0.996264)"/>
      </g>
     </g>
    </g>
    <g id="xtick_4">
     <g id="line2d_4">
      <g>
       <use xlink:href="#mc052888040" x="768.952036" y="678.237256" style="fill: #262626; stroke: #262626; stroke-width: 0.8"/>
      </g>
     </g>
     <g id="text_4">
      <!-- $\mathdefault{1500}$ -->
      <g style="fill: #262626" transform="translate(736.054893 710.143856) scale(0.36 -0.36)">
       <use xlink:href="#CMR17-31" transform="scale(0.996264)"/>
       <use xlink:href="#CMR17-35" transform="translate(45.690477 0) scale(0.996264)"/>
       <use xlink:href="#CMR17-30" transform="translate(91.380954 0) scale(0.996264)"/>
       <use xlink:href="#CMR17-30" transform="translate(137.071431 0) scale(0.996264)"/>
      </g>
     </g>
    </g>
    <g id="xtick_5">
     <g id="line2d_5">
      <g>
       <use xlink:href="#mc052888040" x="995.758673" y="678.237256" style="fill: #262626; stroke: #262626; stroke-width: 0.8"/>
      </g>
     </g>
     <g id="text_5">
      <!-- $\mathdefault{2000}$ -->
      <g style="fill: #262626" transform="translate(962.861529 710.143856) scale(0.36 -0.36)">
       <defs>
        <path id="CMR17-32" d="M 2669 989 
L 2554 989 
C 2490 536 2438 459 2413 420 
C 2381 369 1920 369 1830 369 
L 602 369 
C 832 619 1280 1072 1824 1597 
C 2214 1967 2669 2402 2669 3035 
C 2669 3790 2067 4224 1395 4224 
C 691 4224 262 3604 262 3030 
C 262 2780 448 2748 525 2748 
C 589 2748 781 2787 781 3010 
C 781 3207 614 3264 525 3264 
C 486 3264 448 3258 422 3245 
C 544 3790 915 4058 1306 4058 
C 1862 4058 2227 3617 2227 3035 
C 2227 2479 1901 2000 1536 1584 
L 262 146 
L 262 0 
L 2515 0 
L 2669 989 
z
" transform="scale(0.015625)"/>
       </defs>
       <use xlink:href="#CMR17-32" transform="scale(0.996264)"/>
       <use xlink:href="#CMR17-30" transform="translate(45.690477 0) scale(0.996264)"/>
       <use xlink:href="#CMR17-30" transform="translate(91.380954 0) scale(0.996264)"/>
       <use xlink:href="#CMR17-30" transform="translate(137.071431 0) scale(0.996264)"/>
      </g>
     </g>
    </g>
   </g>
   <g id="matplotlib.axis_2">
    <g id="ytick_1">
     <g id="line2d_6">
      <defs>
       <path id="m69e21bd754" d="M 0 0 
L -3.5 0 
" style="stroke: #262626; stroke-width: 0.8"/>
      </defs>
      <g>
       <use xlink:href="#m69e21bd754" x="88.532127" y="650.034624" style="fill: #262626; stroke: #262626; stroke-width: 0.8"/>
      </g>
     </g>
     <g id="text_6">
      <!-- $\mathdefault{0.0}$ -->
      <g style="fill: #262626" transform="translate(38.88 662.487924) scale(0.36 -0.36)">
       <defs>
        <path id="CMMI12-3a" d="M 1178 307 
C 1178 492 1024 619 870 619 
C 685 619 557 466 557 313 
C 557 128 710 0 864 0 
C 1050 0 1178 153 1178 307 
z
" transform="scale(0.015625)"/>
       </defs>
       <use xlink:href="#CMR17-30" transform="scale(0.996264)"/>
       <use xlink:href="#CMMI12-3a" transform="translate(45.690477 0) scale(0.996264)"/>
       <use xlink:href="#CMR17-30" transform="translate(72.787654 0) scale(0.996264)"/>
      </g>
     </g>
    </g>
    <g id="ytick_2">
     <g id="line2d_7">
      <g>
       <use xlink:href="#m69e21bd754" x="88.532127" y="533.616038" style="fill: #262626; stroke: #262626; stroke-width: 0.8"/>
      </g>
     </g>
     <g id="text_7">
      <!-- $\mathdefault{0.2}$ -->
      <g style="fill: #262626" transform="translate(38.88 546.069338) scale(0.36 -0.36)">
       <use xlink:href="#CMR17-30" transform="scale(0.996264)"/>
       <use xlink:href="#CMMI12-3a" transform="translate(45.690477 0) scale(0.996264)"/>
       <use xlink:href="#CMR17-32" transform="translate(72.787654 0) scale(0.996264)"/>
      </g>
     </g>
    </g>
    <g id="ytick_3">
     <g id="line2d_8">
      <g>
       <use xlink:href="#m69e21bd754" x="88.532127" y="417.197452" style="fill: #262626; stroke: #262626; stroke-width: 0.8"/>
      </g>
     </g>
     <g id="text_8">
      <!-- $\mathdefault{0.4}$ -->
      <g style="fill: #262626" transform="translate(38.88 429.650752) scale(0.36 -0.36)">
       <defs>
        <path id="CMR17-34" d="M 2150 4122 
C 2150 4256 2144 4256 2029 4256 
L 128 1254 
L 128 1088 
L 1779 1088 
L 1779 457 
C 1779 224 1766 160 1318 160 
L 1197 160 
L 1197 0 
C 1402 0 1747 0 1965 0 
C 2182 0 2528 0 2733 0 
L 2733 160 
L 2611 160 
C 2163 160 2150 224 2150 457 
L 2150 1088 
L 2803 1088 
L 2803 1254 
L 2150 1254 
L 2150 4122 
z
M 1798 3703 
L 1798 1254 
L 256 1254 
L 1798 3703 
z
" transform="scale(0.015625)"/>
       </defs>
       <use xlink:href="#CMR17-30" transform="scale(0.996264)"/>
       <use xlink:href="#CMMI12-3a" transform="translate(45.690477 0) scale(0.996264)"/>
       <use xlink:href="#CMR17-34" transform="translate(72.787654 0) scale(0.996264)"/>
      </g>
     </g>
    </g>
    <g id="ytick_4">
     <g id="line2d_9">
      <g>
       <use xlink:href="#m69e21bd754" x="88.532127" y="300.778866" style="fill: #262626; stroke: #262626; stroke-width: 0.8"/>
      </g>
     </g>
     <g id="text_9">
      <!-- $\mathdefault{0.6}$ -->
      <g style="fill: #262626" transform="translate(38.88 313.232166) scale(0.36 -0.36)">
       <defs>
        <path id="CMR17-36" d="M 678 2176 
C 678 3690 1395 4032 1811 4032 
C 1946 4032 2272 4009 2400 3776 
C 2298 3776 2106 3776 2106 3553 
C 2106 3381 2246 3323 2336 3323 
C 2394 3323 2566 3348 2566 3560 
C 2566 3954 2246 4179 1805 4179 
C 1043 4179 243 3390 243 1984 
C 243 253 966 -128 1478 -128 
C 2099 -128 2688 427 2688 1283 
C 2688 2081 2170 2662 1517 2662 
C 1126 2662 838 2407 678 1960 
L 678 2176 
z
M 1478 25 
C 691 25 691 1200 691 1436 
C 691 1896 909 2560 1504 2560 
C 1613 2560 1926 2560 2138 2120 
C 2253 1870 2253 1609 2253 1289 
C 2253 944 2253 690 2118 434 
C 1978 171 1773 25 1478 25 
z
" transform="scale(0.015625)"/>
       </defs>
       <use xlink:href="#CMR17-30" transform="scale(0.996264)"/>
       <use xlink:href="#CMMI12-3a" transform="translate(45.690477 0) scale(0.996264)"/>
       <use xlink:href="#CMR17-36" transform="translate(72.787654 0) scale(0.996264)"/>
      </g>
     </g>
    </g>
    <g id="ytick_5">
     <g id="line2d_10">
      <g>
       <use xlink:href="#m69e21bd754" x="88.532127" y="184.36028" style="fill: #262626; stroke: #262626; stroke-width: 0.8"/>
      </g>
     </g>
     <g id="text_10">
      <!-- $\mathdefault{0.8}$ -->
      <g style="fill: #262626" transform="translate(38.88 196.81358) scale(0.36 -0.36)">
       <defs>
        <path id="CMR17-38" d="M 1741 2264 
C 2144 2467 2554 2773 2554 3263 
C 2554 3841 1990 4179 1472 4179 
C 890 4179 378 3759 378 3180 
C 378 3021 416 2747 666 2505 
C 730 2442 998 2251 1171 2130 
C 883 1983 211 1634 211 934 
C 211 279 838 -128 1459 -128 
C 2144 -128 2720 362 2720 1010 
C 2720 1590 2330 1857 2074 2029 
L 1741 2264 
z
M 902 2822 
C 851 2854 595 3051 595 3351 
C 595 3739 998 4032 1459 4032 
C 1965 4032 2336 3676 2336 3262 
C 2336 2669 1670 2331 1638 2331 
C 1632 2331 1626 2331 1574 2370 
L 902 2822 
z
M 2080 1519 
C 2176 1449 2483 1240 2483 851 
C 2483 381 2010 25 1472 25 
C 890 25 448 438 448 940 
C 448 1443 838 1862 1280 2060 
L 2080 1519 
z
" transform="scale(0.015625)"/>
       </defs>
       <use xlink:href="#CMR17-30" transform="scale(0.996264)"/>
       <use xlink:href="#CMMI12-3a" transform="translate(45.690477 0) scale(0.996264)"/>
       <use xlink:href="#CMR17-38" transform="translate(72.787654 0) scale(0.996264)"/>
      </g>
     </g>
    </g>
    <g id="ytick_6">
     <g id="line2d_11">
      <g>
       <use xlink:href="#m69e21bd754" x="88.532127" y="67.941693" style="fill: #262626; stroke: #262626; stroke-width: 0.8"/>
      </g>
     </g>
     <g id="text_11">
      <!-- $\mathdefault{1.0}$ -->
      <g style="fill: #262626" transform="translate(38.88 80.394994) scale(0.36 -0.36)">
       <use xlink:href="#CMR17-31" transform="scale(0.996264)"/>
       <use xlink:href="#CMMI12-3a" transform="translate(45.690477 0) scale(0.996264)"/>
       <use xlink:href="#CMR17-30" transform="translate(72.787654 0) scale(0.996264)"/>
      </g>
     </g>
    </g>
   </g>
   <g id="line2d_12">
    <path d="M 88.532127 67.941693 
L 93.975487 85.034843 
L 99.418846 101.38577 
L 104.862205 117.036844 
L 110.305564 132.027449 
L 115.97573 146.979832 
L 121.645896 161.293853 
L 127.316062 175.005347 
L 132.986228 188.14767 
L 138.883201 201.245292 
L 144.780173 213.793457 
L 150.677146 225.822481 
L 156.574118 237.360617 
L 162.697897 248.851189 
L 168.821677 259.868323 
L 174.945456 270.437678 
L 181.296042 280.951117 
L 187.646627 291.033651 
L 193.997213 300.708514 
L 200.574606 310.32226 
L 207.151998 319.544442 
L 213.956197 328.694901 
L 220.760396 337.470441 
L 227.564595 345.89127 
L 234.595601 354.24018 
L 241.626607 362.249903 
L 248.884419 370.181441 
L 256.142232 377.789475 
L 263.626851 385.314797 
L 271.338276 392.746381 
L 279.049702 399.869295 
L 286.987934 406.897064 
L 294.926166 413.632741 
L 303.091205 420.272947 
L 311.483051 426.810202 
L 320.101703 433.237898 
L 328.720355 439.391862 
L 337.565814 445.439212 
L 346.638079 451.375014 
L 355.937152 457.195044 
L 365.46303 462.895745 
L 375.215716 468.474187 
L 385.195208 473.928029 
L 395.401506 479.255478 
L 406.061418 484.56564 
L 416.948137 489.737142 
L 428.061662 494.770232 
L 439.6288 499.761065 
L 451.422745 504.605983 
L 463.670304 509.39335 
L 476.144669 514.030374 
L 489.072647 518.598111 
L 502.454239 523.087914 
L 516.289443 527.492245 
L 530.578262 531.80463 
L 545.320693 536.019598 
L 560.516738 540.132623 
L 576.393202 544.196516 
L 592.72328 548.145766 
L 609.733778 552.029035 
L 627.424695 555.836748 
L 645.796033 559.560721 
L 664.84779 563.194087 
L 684.579968 566.731219 
L 705.219372 570.204612 
L 726.766002 573.6039 
L 749.219859 576.920357 
L 772.807749 580.177071 
L 797.302866 583.333991 
L 823.158822 586.439627 
L 850.148812 589.455649 
L 878.499642 592.398379 
L 908.211311 595.258042 
L 939.510627 598.046274 
L 972.624396 600.770564 
L 995.758673 602.548724 
L 995.758673 602.548724 
" clip-path="url(#pbb81fae97d)" style="fill: none; stroke: #1f77b4; stroke-width: 5; stroke-linecap: round"/>
   </g>
   <g id="line2d_13">
    <path d="M 88.532127 67.941693 
L 92.161033 90.585911 
L 96.016746 113.226711 
L 99.872459 134.519647 
L 103.728172 154.569667 
L 107.583885 173.471694 
L 111.439598 191.311761 
L 115.522117 209.130438 
L 119.604636 225.930177 
L 123.687156 241.787239 
L 127.769675 256.770882 
L 131.852195 270.944114 
L 136.161521 285.088929 
L 140.470847 298.456233 
L 144.780173 311.102002 
L 149.089499 323.077264 
L 153.625632 335.009591 
L 158.161765 346.300155 
L 162.697897 356.994181 
L 167.23403 367.132976 
L 171.996969 377.222454 
L 176.759909 386.781435 
L 181.522848 395.846481 
L 186.285788 404.451053 
L 191.275534 413.004872 
L 196.26528 421.119283 
L 201.255026 428.823884 
L 206.471578 436.469954 
L 211.688131 443.726203 
L 217.13149 450.910492 
L 222.574849 457.725816 
L 228.245015 464.459529 
L 233.915181 470.845547 
L 239.812154 477.143451 
L 245.709126 483.114965 
L 251.832905 488.994446 
L 257.956685 494.568571 
L 264.30727 500.04883 
L 270.884663 505.424788 
L 277.462055 510.516721 
L 284.266254 515.50627 
L 291.29726 520.386031 
L 298.555073 525.149813 
L 306.039692 529.792568 
L 313.751117 534.310298 
L 321.689349 538.699982 
L 329.854388 542.959488 
L 338.246234 547.087489 
L 346.864886 551.083389 
L 355.937152 555.043322 
L 365.236224 558.860504 
L 374.988909 562.621826 
L 385.195208 566.314144 
L 395.628313 569.851814 
L 406.515031 573.309417 
L 417.855363 576.678521 
L 429.649308 579.952269 
L 442.123673 583.181965 
L 455.051652 586.299045 
L 468.66005 589.350364 
L 482.948868 592.32426 
L 497.918106 595.211226 
L 513.79457 598.042641 
L 530.351455 600.767936 
L 547.815566 603.416678 
L 566.41371 606.009197 
L 585.919081 608.5025 
L 606.785291 610.942291 
L 628.785535 613.288944 
L 652.373425 615.577686 
L 677.322155 617.773317 
L 704.085338 619.903191 
L 732.662975 621.952696 
L 763.508677 623.938704 
L 796.622446 625.845021 
L 832.457895 627.681849 
L 871.241829 629.443601 
L 913.427864 631.133389 
L 959.242804 632.743242 
L 995.758673 633.883481 
L 995.758673 633.883481 
" clip-path="url(#pbb81fae97d)" style="fill: none; stroke: #ff7f0e; stroke-width: 5; stroke-linecap: round"/>
   </g>
   <g id="line2d_14">
    <path d="M 88.532127 67.941693 
L 91.480614 95.387554 
L 94.655906 122.82711 
L 97.831199 148.278024 
L 101.006492 171.928032 
L 104.181785 193.943218 
L 107.357078 214.470946 
L 110.532371 233.642332 
L 113.934471 252.810622 
L 117.33657 270.684211 
L 120.73867 287.377188 
L 124.140769 302.991338 
L 127.542869 317.617707 
L 131.171775 332.222233 
L 134.800681 345.88441 
L 138.429587 358.683638 
L 142.058493 370.691124 
L 145.6874 381.970878 
L 149.543112 393.22264 
L 153.398825 403.780155 
L 157.254538 413.69941 
L 161.110251 423.030857 
L 165.19277 432.321082 
L 169.27529 441.052151 
L 173.357809 449.268069 
L 177.440329 457.008594 
L 181.749655 464.703128 
L 186.058981 471.946354 
L 190.368307 478.772902 
L 194.90444 485.543032 
L 199.440572 491.919326 
L 204.203512 498.223328 
L 208.966451 504.157537 
L 213.956197 510.008582 
L 218.945943 515.514387 
L 224.162496 520.930208 
L 229.379048 526.025296 
L 234.822408 531.026798 
L 240.265767 535.731594 
L 245.935933 540.341708 
L 251.832905 544.846418 
L 257.956685 549.236792 
L 264.080464 553.357826 
L 270.43105 557.370071 
L 277.008442 561.267821 
L 283.812641 565.046677 
L 290.843647 568.703433 
L 298.328266 572.34262 
L 306.039692 575.842358 
L 313.977924 579.203605 
L 322.369769 582.5144 
L 331.215228 585.758949 
L 340.287494 588.849587 
L 349.813372 591.86079 
L 359.792864 594.78299 
L 370.22597 597.608656 
L 381.339495 600.386576 
L 393.13344 603.099774 
L 405.380998 605.688454 
L 418.308977 608.195252 
L 432.144181 610.649538 
L 446.886613 613.034417 
L 462.536271 615.336525 
L 479.093155 617.545753 
L 496.784073 619.680939 
L 515.83583 621.753185 
L 536.248427 623.746432 
L 558.248671 625.667587 
L 581.836561 627.50244 
L 607.465711 629.270617 
L 635.362928 630.968637 
L 665.755017 632.59183 
L 698.868786 634.135164 
L 735.384654 635.610972 
L 775.756235 637.015492 
L 820.437143 638.3434 
L 870.334603 639.59962 
L 926.355842 640.782991 
L 989.634894 641.892723 
L 995.758673 641.989382 
L 995.758673 641.989382 
" clip-path="url(#pbb81fae97d)" style="fill: none; stroke: #2ca02c; stroke-width: 5; stroke-linecap: round"/>
   </g>
   <g id="line2d_15">
    <path d="M 88.532127 67.941693 
L 91.253807 101.474912 
L 93.975487 132.188615 
L 96.697166 160.390507 
L 99.418846 186.347405 
L 102.140525 210.291596 
L 105.089012 234.19466 
L 108.037498 256.198601 
L 110.985984 276.49954 
L 113.934471 295.268903 
L 116.882957 312.65707 
L 119.831443 328.796396 
L 123.006736 344.914318 
L 126.182029 359.84793 
L 129.357322 373.710548 
L 132.532615 386.602248 
L 135.707908 398.611678 
L 139.110007 410.589169 
L 142.512107 421.730093 
L 145.914206 432.110623 
L 149.316306 441.798451 
L 152.718405 450.853897 
L 156.347312 459.876628 
L 159.976218 468.299477 
L 163.605124 476.174492 
L 167.460837 483.993381 
L 171.31655 491.296117 
L 175.172262 498.127171 
L 179.027975 504.526325 
L 183.110495 510.870728 
L 187.193014 516.808826 
L 191.50234 522.673521 
L 195.811666 528.159112 
L 200.120992 533.297594 
L 204.657125 538.363026 
L 209.193258 543.105608 
L 213.956197 547.767218 
L 218.945943 552.331119 
L 223.935689 556.596046 
L 229.152242 560.762879 
L 234.595601 564.820441 
L 240.265767 568.75968 
L 245.935933 572.431832 
L 251.832905 575.992906 
L 257.956685 579.43752 
L 264.534077 582.876126 
L 271.338276 586.175411 
L 278.369282 589.335562 
L 285.627094 592.357719 
L 293.33852 595.327875 
L 301.503559 598.229363 
L 310.122211 601.048491 
L 319.194476 603.774363 
L 328.720355 606.398653 
L 338.699847 608.915354 
L 349.359759 611.370434 
L 360.700091 613.74837 
L 372.720843 616.037126 
L 385.422014 618.227835 
L 399.030412 620.348023 
L 413.546037 622.384045 
L 429.195695 624.353021 
L 445.979386 626.239709 
L 464.123917 628.054624 
L 483.856094 629.802264 
L 505.402725 631.482705 
L 528.763808 633.078551 
L 554.392958 634.603438 
L 582.516981 636.051505 
L 613.816297 637.435707 
L 648.517712 638.743016 
L 687.301647 639.977002 
L 730.848521 641.13592 
L 780.292368 642.224465 
L 836.767221 643.24009 
L 901.860725 644.182874 
L 977.840948 645.054665 
L 995.758673 645.231802 
L 995.758673 645.231802 
" clip-path="url(#pbb81fae97d)" style="fill: none; stroke: #d62728; stroke-width: 5; stroke-linecap: round"/>
   </g>
   <g id="line2d_16">
    <path d="M 88.532127 67.941693 
L 90.800194 102.839634 
L 93.295067 137.717191 
L 95.78994 169.359078 
L 98.284813 198.153874 
L 100.779686 224.433488 
L 103.274559 248.482803 
L 105.769432 270.547453 
L 108.491111 292.603653 
L 111.212791 312.789275 
L 113.934471 331.310183 
L 116.65615 348.344661 
L 119.37783 364.047738 
L 122.326316 379.713486 
L 125.274802 394.125184 
L 128.223289 407.413288 
L 131.171775 419.691714 
L 134.120261 431.060288 
L 137.295554 442.386295 
L 140.470847 452.855034 
L 143.64614 462.550941 
L 146.821433 471.5483 
L 149.996726 479.912678 
L 153.398825 488.237907 
L 156.800925 495.966187 
L 160.203024 503.153284 
L 163.605124 509.848601 
L 167.23403 516.497578 
L 170.862936 522.684172 
L 174.491842 528.450305 
L 178.347555 534.157741 
L 182.203268 539.472274 
L 186.285788 544.71031 
L 190.368307 549.584511 
L 194.677633 554.371134 
L 198.986959 558.8234 
L 203.523092 563.182196 
L 208.059225 567.235678 
L 212.822164 571.193696 
L 217.81191 575.043194 
L 222.801656 578.617346 
L 228.018209 582.087367 
L 233.461568 585.445265 
L 239.131734 588.685002 
L 245.028706 591.802308 
L 251.152486 594.794475 
L 257.729878 597.758364 
L 264.534077 600.580199 
L 271.791889 603.345425 
L 279.276508 605.960949 
L 287.214741 608.501806 
L 295.606586 610.95606 
L 304.678852 613.372288 
L 314.20473 615.675784 
L 324.411029 617.910865 
L 335.297748 620.062736 
L 346.864886 622.120432 
L 359.339251 624.110664 
L 372.720843 626.017874 
L 387.236467 627.858062 
L 402.886125 629.614677 
L 419.896623 631.297313 
L 438.494767 632.909519 
L 458.907364 634.450591 
L 481.361221 635.917165 
L 506.083145 637.304575 
L 533.526748 638.617983 
L 564.145644 639.856961 
L 598.620252 641.024998 
L 637.630994 642.119596 
L 682.311901 643.144854 
L 733.570201 644.093411 
L 793.447153 644.972781 
L 863.984017 645.779383 
L 948.356086 646.514259 
L 995.758673 646.84647 
L 995.758673 646.84647 
" clip-path="url(#pbb81fae97d)" style="fill: none; stroke: #9467bd; stroke-width: 5; stroke-linecap: round"/>
   </g>
   <g id="line2d_17">
    <path d="M 88.532127 67.941693 
L 90.800194 109.477757 
L 93.06826 146.714574 
L 95.336326 180.226304 
L 97.604393 210.494283 
L 99.872459 237.924474 
L 102.140525 262.861213 
L 104.635398 287.760815 
L 107.130271 310.330303 
L 109.625144 330.85187 
L 112.120017 349.566219 
L 114.61489 366.679676 
L 117.109763 382.369919 
L 119.831443 398.043407 
L 122.553123 412.37795 
L 125.274802 425.521947 
L 127.996482 437.603782 
L 130.718162 448.734975 
L 133.666648 459.833491 
L 136.615134 470.037935 
L 139.56362 479.44189 
L 142.512107 488.127001 
L 145.460593 496.164758 
L 148.635886 504.16872 
L 151.811179 511.563494 
L 154.986472 518.409405 
L 158.161765 524.75949 
L 161.563864 531.065971 
L 164.965964 536.907589 
L 168.368063 542.328959 
L 171.996969 547.692838 
L 175.625876 552.665493 
L 179.481588 557.561761 
L 183.337301 562.097538 
L 187.419821 566.545537 
L 191.50234 570.664179 
L 195.811666 574.689344 
L 200.120992 578.415714 
L 204.657125 582.047095 
L 209.420064 585.57047 
L 214.40981 588.975589 
L 219.626363 592.254736 
L 225.069722 595.402469 
L 230.739888 598.415357 
L 236.636861 601.29172 
L 242.76064 604.031382 
L 249.338032 606.72431 
L 256.142232 609.268566 
L 263.400044 611.7429 
L 271.11147 614.132822 
L 279.276508 616.427315 
L 287.895161 618.618495 
L 297.194233 620.750615 
L 307.173725 622.805898 
L 317.833637 624.771066 
L 329.400775 626.672054 
L 341.87514 628.491223 
L 355.256732 630.216113 
L 369.999163 631.886986 
L 385.875628 633.460548 
L 403.339739 634.966135 
L 422.618303 636.401623 
L 443.938126 637.762564 
L 467.752823 639.054965 
L 494.2892 640.268357 
L 524.227676 641.410543 
L 558.248671 642.481032 
L 597.259413 643.480227 
L 642.393933 644.407291 
L 695.013073 645.25962 
L 757.384898 646.040899 
L 832.457895 646.751119 
L 924.314582 647.389295 
L 995.758673 647.765255 
L 995.758673 647.765255 
" clip-path="url(#pbb81fae97d)" style="fill: none; stroke: #8c564b; stroke-width: 5; stroke-linecap: round"/>
   </g>
   <g id="line2d_18">
    <path d="M 88.532127 67.941693 
L 90.573387 111.47467 
L 92.614647 150.291693 
L 94.655906 185.051021 
L 96.697166 216.29983 
L 98.965233 247.457823 
L 101.233299 275.369791 
L 103.501365 300.471964 
L 105.769432 323.129618 
L 108.037498 343.650493 
L 110.305564 362.295346 
L 112.800437 380.902003 
L 115.29531 397.758153 
L 117.790183 413.076894 
L 120.285056 427.039831 
L 122.779929 439.802509 
L 125.274802 451.498774 
L 127.996482 463.177609 
L 130.718162 473.854305 
L 133.439841 483.640415 
L 136.161521 492.632378 
L 138.883201 500.91392 
L 141.831687 509.168303 
L 144.780173 516.755154 
L 147.728659 523.744608 
L 150.677146 530.197821 
L 153.852439 536.608973 
L 157.027731 542.518623 
L 160.203024 547.977778 
L 163.605124 553.377609 
L 167.007223 558.359605 
L 170.409323 562.965814 
L 174.038229 567.506379 
L 177.667135 571.700544 
L 181.522848 575.815671 
L 185.378561 579.614617 
L 189.46108 583.327452 
L 193.770407 586.93658 
L 198.079733 590.260346 
L 202.615865 593.482943 
L 207.378805 596.593876 
L 212.368551 599.585302 
L 217.585103 602.451749 
L 223.028463 605.189835 
L 228.698629 607.797983 
L 234.822408 610.367075 
L 241.172994 612.791286 
L 247.977193 615.149939 
L 255.235005 617.427008 
L 262.946431 619.610362 
L 271.11147 621.691379 
L 279.956928 623.713621 
L 289.482807 625.658475 
L 299.689106 627.512287 
L 310.802631 629.300135 
L 322.823383 631.004329 
L 335.978168 632.639132 
L 350.266986 634.187062 
L 365.916644 635.656645 
L 383.153948 637.050556 
L 402.432512 638.382162 
L 423.979142 639.641595 
L 448.020646 640.820011 
L 475.237442 641.927342 
L 506.309951 642.96384 
L 542.1454 643.930121 
L 583.651014 644.820736 
L 632.414441 645.638748 
L 690.703747 646.386846 
L 761.240611 647.062038 
L 848.561166 647.666677 
L 959.015998 648.199538 
L 995.758673 648.337361 
L 995.758673 648.337361 
" clip-path="url(#pbb81fae97d)" style="fill: none; stroke: #e377c2; stroke-width: 5; stroke-linecap: round"/>
   </g>
   <g id="line2d_19">
    <path d="M 88.532127 67.941693 
L 90.34658 112.164525 
L 92.161033 151.522239 
L 94.202293 190.837931 
L 96.243553 225.670677 
L 98.284813 256.677928 
L 100.326072 284.400765 
L 102.367332 309.287782 
L 104.408592 331.713449 
L 106.676658 354.124999 
L 108.944725 374.246714 
L 111.212791 392.380584 
L 113.480857 408.780365 
L 115.748924 423.660545 
L 118.243797 438.490354 
L 120.73867 451.907303 
L 123.233543 464.0855 
L 125.728416 475.173016 
L 128.223289 485.296428 
L 130.718162 494.564454 
L 133.439841 503.809348 
L 136.161521 512.252574 
L 138.883201 519.984287 
L 141.60488 527.082305 
L 144.553366 534.13474 
L 147.501853 540.596741 
L 150.450339 546.532471 
L 153.398825 551.997604 
L 156.574118 557.41233 
L 159.749411 562.390141 
L 162.924704 566.976839 
L 166.326804 571.502429 
L 169.728903 575.667664 
L 173.357809 579.755312 
L 176.986715 583.51471 
L 180.842428 587.187633 
L 184.698141 590.564318 
L 188.780661 593.851172 
L 193.089987 597.033347 
L 197.626119 600.099351 
L 202.389059 603.040732 
L 207.378805 605.851745 
L 212.595357 608.529004 
L 218.038717 611.07115 
L 223.708883 613.478521 
L 229.832662 615.836055 
L 236.410054 618.12278 
L 243.44106 620.322413 
L 250.925679 622.422972 
L 258.863911 624.416295 
L 267.482563 626.34545 
L 276.781635 628.192208 
L 286.761127 629.943652 
L 297.647846 631.624341 
L 309.441791 633.217621 
L 322.369769 634.737505 
L 336.658587 636.189375 
L 352.535052 637.572648 
L 369.999163 638.867632 
L 389.504534 640.088878 
L 411.504777 641.240395 
L 436.453507 642.319745 
L 465.031144 643.328642 
L 498.144913 644.268404 
L 536.702041 645.133409 
L 582.290175 645.926574 
L 636.950574 646.647495 
L 703.631725 647.296393 
L 786.869761 647.874608 
L 893.242073 648.381013 
L 995.758673 648.717555 
L 995.758673 648.717555 
" clip-path="url(#pbb81fae97d)" style="fill: none; stroke: #7f7f7f; stroke-width: 5; stroke-linecap: round"/>
   </g>
   <g id="line2d_20">
    <path d="M 88.532127 67.941693 
L 90.34658 117.377881 
L 92.161033 160.759148 
L 93.975487 199.037001 
L 95.78994 232.9829 
L 97.604393 263.227679 
L 99.645652 293.472856 
L 101.686912 320.29776 
L 103.728172 344.200009 
L 105.769432 365.589817 
L 107.810691 384.807798 
L 110.078758 403.958643 
L 112.346824 421.104457 
L 114.61489 436.515987 
L 116.882957 450.419739 
L 119.151023 463.006381 
L 121.41909 474.437342 
L 123.913963 485.839982 
L 126.408836 496.165501 
L 128.903709 505.54554 
L 131.398582 514.092213 
L 133.893455 521.90148 
L 136.615134 529.676341 
L 139.336814 536.763637 
L 142.058493 543.242181 
L 144.780173 549.1798 
L 147.728659 555.069613 
L 150.677146 560.457634 
L 153.625632 565.399329 
L 156.800925 570.276928 
L 159.976218 574.74432 
L 163.151511 578.846277 
L 166.55361 582.879713 
L 169.95571 586.579526 
L 173.584616 590.198544 
L 177.440329 593.714436 
L 181.296042 596.929067 
L 185.378561 600.04156 
L 189.687887 603.038977 
L 194.22402 605.911796 
L 198.986959 608.653531 
L 203.976705 611.260339 
L 209.193258 613.730634 
L 214.636617 616.064714 
L 220.53359 618.347923 
L 226.884175 620.55841 
L 233.461568 622.612484 
L 240.492574 624.579392 
L 248.203999 626.502694 
L 256.369038 628.310763 
L 265.214497 630.043901 
L 274.967182 631.724755 
L 285.627094 633.330361 
L 297.194233 634.844765 
L 309.895404 636.281949 
L 323.957416 637.647372 
L 339.607074 638.940775 
L 357.071185 640.158564 
L 376.803362 641.307841 
L 399.257219 642.387366 
L 424.886369 643.391555 
L 454.598038 644.326457 
L 489.299454 645.188411 
L 530.351455 645.977775 
L 579.568495 646.693832 
L 639.672254 647.337737 
L 714.74525 647.910554 
L 811.138071 648.412991 
L 938.830207 648.844351 
L 995.758673 648.982974 
L 995.758673 648.982974 
" clip-path="url(#pbb81fae97d)" style="fill: none; stroke: #bcbd22; stroke-width: 5; stroke-linecap: round"/>
   </g>
   <g id="line2d_21">
    <path d="M 88.532127 67.941693 
L 90.119774 116.133402 
L 91.934227 164.208585 
L 93.74868 206.055374 
L 95.563133 242.706815 
L 97.377586 274.990055 
L 99.192039 303.573745 
L 101.006492 329.003171 
L 103.047752 354.396003 
L 105.089012 376.88524 
L 107.130271 396.897875 
L 109.171531 414.785121 
L 111.212791 430.838008 
L 113.254051 445.299356 
L 115.522117 459.747786 
L 117.790183 472.716627 
L 120.05825 484.401441 
L 122.326316 494.96649 
L 124.594382 504.550562 
L 127.089255 514.100215 
L 129.584128 522.738303 
L 132.079001 530.577367 
L 134.573874 537.713092 
L 137.068747 544.227245 
L 139.790427 550.706931 
L 142.512107 556.608433 
L 145.233786 561.998603 
L 148.182273 567.327376 
L 151.130759 572.186066 
L 154.079245 576.628423 
L 157.254538 580.999835 
L 160.429831 584.991707 
L 163.831931 588.895961 
L 167.23403 592.458631 
L 170.862936 595.925857 
L 174.491842 599.088799 
L 178.347555 602.154649 
L 182.430075 605.108465 
L 186.739401 607.93915 
L 191.275534 610.639034 
L 196.038473 613.203435 
L 201.028219 615.630218 
L 206.244772 617.919372 
L 211.914937 620.15759 
L 217.81191 622.24579 
L 224.162496 624.258754 
L 230.966695 626.18194 
L 238.451314 628.058832 
L 246.389546 629.817182 
L 255.008198 631.497421 
L 264.534077 633.121787 
L 274.967182 634.667344 
L 286.307514 636.118611 
L 298.781879 637.489578 
L 312.843891 638.805326 
L 328.493549 640.040089 
L 345.95766 641.191915 
L 365.916644 642.280143 
L 388.597307 643.289488 
L 414.906877 644.231566 
L 445.525773 645.099012 
L 481.588028 645.892451 
L 524.908096 646.616168 
L 577.754042 647.268476 
L 643.527966 647.849109 
L 727.673229 648.359287 
L 838.80848 648.798912 
L 992.129767 649.168922 
L 995.758673 649.175563 
L 995.758673 649.175563 
" clip-path="url(#pbb81fae97d)" style="fill: none; stroke: #17becf; stroke-width: 5; stroke-linecap: round"/>
   </g>
   <g id="patch_3">
    <path d="M 88.532127 678.237256 
L 88.532127 38.88 
" style="fill: none; stroke: #262626; stroke-width: 0.8; stroke-linejoin: miter; stroke-linecap: square"/>
   </g>
   <g id="patch_4">
    <path d="M 88.532127 678.237256 
L 1041.12 678.237256 
" style="fill: none; stroke: #262626; stroke-width: 0.8; stroke-linejoin: miter; stroke-linecap: square"/>
   </g>
  </g>
 </g>
 <defs>
  <clipPath id="pbb81fae97d">
   <rect x="88.532127" y="38.88" width="952.587873" height="639.357256"/>
  </clipPath>
 </defs>
</svg>
