<?xml version="1.0" encoding="utf-8" standalone="no"?>
<!DOCTYPE svg PUBLIC "-//W3C//DTD SVG 1.1//EN"
  "http://www.w3.org/Graphics/SVG/1.1/DTD/svg11.dtd">
<svg xmlns:xlink="http://www.w3.org/1999/xlink" width="1080pt" height="756pt" viewBox="0 0 1080 756" xmlns="http://www.w3.org/2000/svg" version="1.1">
 <metadata>
  <rdf:RDF xmlns:dc="http://purl.org/dc/elements/1.1/" xmlns:cc="http://creativecommons.org/ns#" xmlns:rdf="http://www.w3.org/1999/02/22-rdf-syntax-ns#">
   <cc:Work>
    <dc:type rdf:resource="http://purl.org/dc/dcmitype/StillImage"/>
    <dc:date>2024-07-30T17:57:46.378805</dc:date>
    <dc:format>image/svg+xml</dc:format>
    <dc:creator>
     <cc:Agent>
      <dc:title>Matplotlib v3.9.0, https://matplotlib.org/</dc:title>
     </cc:Agent>
    </dc:creator>
   </cc:Work>
  </rdf:RDF>
 </metadata>
 <defs>
  <style type="text/css">*{stroke-linejoin: round; stroke-linecap: butt}</style>
 </defs>
 <g id="figure_1">
  <g id="patch_1">
   <path d="M 0 756 
L 1080 756 
L 1080 0 
L 0 0 
z
" style="fill: #ffffff"/>
  </g>
  <g id="axes_1">
   <g id="patch_2">
    <path d="M 88.532127 678.237256 
L 1041.12 678.237256 
L 1041.12 38.88 
L 88.532127 38.88 
z
" style="fill: #ffffff"/>
   </g>
   <g id="matplotlib.axis_1">
    <g id="xtick_1">
     <g id="line2d_1">
      <defs>
       <path id="mc98b2682bb" d="M 0 0 
L 0 3.5 
" style="stroke: #262626; stroke-width: 0.8"/>
      </defs>
      <g>
       <use xlink:href="#mc98b2682bb" x="88.532127" y="678.237256" style="fill: #262626; stroke: #262626; stroke-width: 0.8"/>
      </g>
     </g>
     <g id="text_1">
      <!-- $\mathdefault{0}$ -->
      <g style="fill: #262626" transform="translate(80.307841 710.143856) scale(0.36 -0.36)">
       <defs>
        <path id="CMR17-30" d="M 2688 2025 
C 2688 2416 2682 3080 2413 3591 
C 2176 4039 1798 4198 1466 4198 
C 1158 4198 768 4058 525 3597 
C 269 3118 243 2524 243 2025 
C 243 1661 250 1106 448 619 
C 723 -39 1216 -128 1466 -128 
C 1760 -128 2208 -7 2470 600 
C 2662 1042 2688 1559 2688 2025 
z
M 1466 -26 
C 1056 -26 813 325 723 812 
C 653 1188 653 1738 653 2096 
C 653 2588 653 2997 736 3387 
C 858 3929 1216 4096 1466 4096 
C 1728 4096 2067 3923 2189 3400 
C 2272 3036 2278 2607 2278 2096 
C 2278 1680 2278 1169 2202 792 
C 2067 95 1690 -26 1466 -26 
z
" transform="scale(0.015625)"/>
       </defs>
       <use xlink:href="#CMR17-30" transform="scale(0.996264)"/>
      </g>
     </g>
    </g>
    <g id="xtick_2">
     <g id="line2d_2">
      <g>
       <use xlink:href="#mc98b2682bb" x="315.338764" y="678.237256" style="fill: #262626; stroke: #262626; stroke-width: 0.8"/>
      </g>
     </g>
     <g id="text_2">
      <!-- $\mathdefault{500}$ -->
      <g style="fill: #262626" transform="translate(290.665906 710.143856) scale(0.36 -0.36)">
       <defs>
        <path id="CMR17-35" d="M 730 3692 
C 794 3666 1056 3584 1325 3584 
C 1920 3584 2246 3911 2432 4100 
C 2432 4157 2432 4192 2394 4192 
C 2387 4192 2374 4192 2323 4163 
C 2099 4058 1837 3973 1517 3973 
C 1325 3973 1037 3999 723 4139 
C 653 4171 640 4171 634 4171 
C 602 4171 595 4164 595 4037 
L 595 2203 
C 595 2089 595 2057 659 2057 
C 691 2057 704 2070 736 2114 
C 941 2401 1222 2522 1542 2522 
C 1766 2522 2246 2382 2246 1289 
C 2246 1085 2246 715 2054 421 
C 1894 159 1645 25 1370 25 
C 947 25 518 320 403 814 
C 429 807 480 795 506 795 
C 589 795 749 840 749 1038 
C 749 1210 627 1280 506 1280 
C 358 1280 262 1190 262 1011 
C 262 454 704 -128 1382 -128 
C 2042 -128 2669 440 2669 1264 
C 2669 2030 2170 2624 1549 2624 
C 1222 2624 947 2503 730 2274 
L 730 3692 
z
" transform="scale(0.015625)"/>
       </defs>
       <use xlink:href="#CMR17-35" transform="scale(0.996264)"/>
       <use xlink:href="#CMR17-30" transform="translate(45.690477 0) scale(0.996264)"/>
       <use xlink:href="#CMR17-30" transform="translate(91.380954 0) scale(0.996264)"/>
      </g>
     </g>
    </g>
    <g id="xtick_3">
     <g id="line2d_3">
      <g>
       <use xlink:href="#mc98b2682bb" x="542.1454" y="678.237256" style="fill: #262626; stroke: #262626; stroke-width: 0.8"/>
      </g>
     </g>
     <g id="text_3">
      <!-- $\mathdefault{1000}$ -->
      <g style="fill: #262626" transform="translate(509.248256 710.143856) scale(0.36 -0.36)">
       <defs>
        <path id="CMR17-31" d="M 1702 4058 
C 1702 4192 1696 4192 1606 4192 
C 1357 3916 979 3827 621 3827 
C 602 3827 570 3827 563 3808 
C 557 3795 557 3782 557 3648 
C 755 3648 1088 3686 1344 3839 
L 1344 461 
C 1344 236 1331 160 781 160 
L 589 160 
L 589 0 
C 896 0 1216 0 1523 0 
C 1830 0 2150 0 2458 0 
L 2458 160 
L 2266 160 
C 1715 160 1702 230 1702 458 
L 1702 4058 
z
" transform="scale(0.015625)"/>
       </defs>
       <use xlink:href="#CMR17-31" transform="scale(0.996264)"/>
       <use xlink:href="#CMR17-30" transform="translate(45.690477 0) scale(0.996264)"/>
       <use xlink:href="#CMR17-30" transform="translate(91.380954 0) scale(0.996264)"/>
       <use xlink:href="#CMR17-30" transform="translate(137.071431 0) scale(0.996264)"/>
      </g>
     </g>
    </g>
    <g id="xtick_4">
     <g id="line2d_4">
      <g>
       <use xlink:href="#mc98b2682bb" x="768.952036" y="678.237256" style="fill: #262626; stroke: #262626; stroke-width: 0.8"/>
      </g>
     </g>
     <g id="text_4">
      <!-- $\mathdefault{1500}$ -->
      <g style="fill: #262626" transform="translate(736.054893 710.143856) scale(0.36 -0.36)">
       <use xlink:href="#CMR17-31" transform="scale(0.996264)"/>
       <use xlink:href="#CMR17-35" transform="translate(45.690477 0) scale(0.996264)"/>
       <use xlink:href="#CMR17-30" transform="translate(91.380954 0) scale(0.996264)"/>
       <use xlink:href="#CMR17-30" transform="translate(137.071431 0) scale(0.996264)"/>
      </g>
     </g>
    </g>
    <g id="xtick_5">
     <g id="line2d_5">
      <g>
       <use xlink:href="#mc98b2682bb" x="995.758673" y="678.237256" style="fill: #262626; stroke: #262626; stroke-width: 0.8"/>
      </g>
     </g>
     <g id="text_5">
      <!-- $\mathdefault{2000}$ -->
      <g style="fill: #262626" transform="translate(962.861529 710.143856) scale(0.36 -0.36)">
       <defs>
        <path id="CMR17-32" d="M 2669 989 
L 2554 989 
C 2490 536 2438 459 2413 420 
C 2381 369 1920 369 1830 369 
L 602 369 
C 832 619 1280 1072 1824 1597 
C 2214 1967 2669 2402 2669 3035 
C 2669 3790 2067 4224 1395 4224 
C 691 4224 262 3604 262 3030 
C 262 2780 448 2748 525 2748 
C 589 2748 781 2787 781 3010 
C 781 3207 614 3264 525 3264 
C 486 3264 448 3258 422 3245 
C 544 3790 915 4058 1306 4058 
C 1862 4058 2227 3617 2227 3035 
C 2227 2479 1901 2000 1536 1584 
L 262 146 
L 262 0 
L 2515 0 
L 2669 989 
z
" transform="scale(0.015625)"/>
       </defs>
       <use xlink:href="#CMR17-32" transform="scale(0.996264)"/>
       <use xlink:href="#CMR17-30" transform="translate(45.690477 0) scale(0.996264)"/>
       <use xlink:href="#CMR17-30" transform="translate(91.380954 0) scale(0.996264)"/>
       <use xlink:href="#CMR17-30" transform="translate(137.071431 0) scale(0.996264)"/>
      </g>
     </g>
    </g>
   </g>
   <g id="matplotlib.axis_2">
    <g id="ytick_1">
     <g id="line2d_6">
      <defs>
       <path id="m4f49b9b402" d="M 0 0 
L -3.5 0 
" style="stroke: #262626; stroke-width: 0.8"/>
      </defs>
      <g>
       <use xlink:href="#m4f49b9b402" x="88.532127" y="651.450452" style="fill: #262626; stroke: #262626; stroke-width: 0.8"/>
      </g>
     </g>
     <g id="text_6">
      <!-- $\mathdefault{0.0}$ -->
      <g style="fill: #262626" transform="translate(38.88 663.903752) scale(0.36 -0.36)">
       <defs>
        <path id="CMMI12-3a" d="M 1178 307 
C 1178 492 1024 619 870 619 
C 685 619 557 466 557 313 
C 557 128 710 0 864 0 
C 1050 0 1178 153 1178 307 
z
" transform="scale(0.015625)"/>
       </defs>
       <use xlink:href="#CMR17-30" transform="scale(0.996264)"/>
       <use xlink:href="#CMMI12-3a" transform="translate(45.690477 0) scale(0.996264)"/>
       <use xlink:href="#CMR17-30" transform="translate(72.787654 0) scale(0.996264)"/>
      </g>
     </g>
    </g>
    <g id="ytick_2">
     <g id="line2d_7">
      <g>
       <use xlink:href="#m4f49b9b402" x="88.532127" y="534.7487" style="fill: #262626; stroke: #262626; stroke-width: 0.8"/>
      </g>
     </g>
     <g id="text_7">
      <!-- $\mathdefault{0.2}$ -->
      <g style="fill: #262626" transform="translate(38.88 547.202) scale(0.36 -0.36)">
       <use xlink:href="#CMR17-30" transform="scale(0.996264)"/>
       <use xlink:href="#CMMI12-3a" transform="translate(45.690477 0) scale(0.996264)"/>
       <use xlink:href="#CMR17-32" transform="translate(72.787654 0) scale(0.996264)"/>
      </g>
     </g>
    </g>
    <g id="ytick_3">
     <g id="line2d_8">
      <g>
       <use xlink:href="#m4f49b9b402" x="88.532127" y="418.046948" style="fill: #262626; stroke: #262626; stroke-width: 0.8"/>
      </g>
     </g>
     <g id="text_8">
      <!-- $\mathdefault{0.4}$ -->
      <g style="fill: #262626" transform="translate(38.88 430.500248) scale(0.36 -0.36)">
       <defs>
        <path id="CMR17-34" d="M 2150 4122 
C 2150 4256 2144 4256 2029 4256 
L 128 1254 
L 128 1088 
L 1779 1088 
L 1779 457 
C 1779 224 1766 160 1318 160 
L 1197 160 
L 1197 0 
C 1402 0 1747 0 1965 0 
C 2182 0 2528 0 2733 0 
L 2733 160 
L 2611 160 
C 2163 160 2150 224 2150 457 
L 2150 1088 
L 2803 1088 
L 2803 1254 
L 2150 1254 
L 2150 4122 
z
M 1798 3703 
L 1798 1254 
L 256 1254 
L 1798 3703 
z
" transform="scale(0.015625)"/>
       </defs>
       <use xlink:href="#CMR17-30" transform="scale(0.996264)"/>
       <use xlink:href="#CMMI12-3a" transform="translate(45.690477 0) scale(0.996264)"/>
       <use xlink:href="#CMR17-34" transform="translate(72.787654 0) scale(0.996264)"/>
      </g>
     </g>
    </g>
    <g id="ytick_4">
     <g id="line2d_9">
      <g>
       <use xlink:href="#m4f49b9b402" x="88.532127" y="301.345197" style="fill: #262626; stroke: #262626; stroke-width: 0.8"/>
      </g>
     </g>
     <g id="text_9">
      <!-- $\mathdefault{0.6}$ -->
      <g style="fill: #262626" transform="translate(38.88 313.798497) scale(0.36 -0.36)">
       <defs>
        <path id="CMR17-36" d="M 678 2176 
C 678 3690 1395 4032 1811 4032 
C 1946 4032 2272 4009 2400 3776 
C 2298 3776 2106 3776 2106 3553 
C 2106 3381 2246 3323 2336 3323 
C 2394 3323 2566 3348 2566 3560 
C 2566 3954 2246 4179 1805 4179 
C 1043 4179 243 3390 243 1984 
C 243 253 966 -128 1478 -128 
C 2099 -128 2688 427 2688 1283 
C 2688 2081 2170 2662 1517 2662 
C 1126 2662 838 2407 678 1960 
L 678 2176 
z
M 1478 25 
C 691 25 691 1200 691 1436 
C 691 1896 909 2560 1504 2560 
C 1613 2560 1926 2560 2138 2120 
C 2253 1870 2253 1609 2253 1289 
C 2253 944 2253 690 2118 434 
C 1978 171 1773 25 1478 25 
z
" transform="scale(0.015625)"/>
       </defs>
       <use xlink:href="#CMR17-30" transform="scale(0.996264)"/>
       <use xlink:href="#CMMI12-3a" transform="translate(45.690477 0) scale(0.996264)"/>
       <use xlink:href="#CMR17-36" transform="translate(72.787654 0) scale(0.996264)"/>
      </g>
     </g>
    </g>
    <g id="ytick_5">
     <g id="line2d_10">
      <g>
       <use xlink:href="#m4f49b9b402" x="88.532127" y="184.643445" style="fill: #262626; stroke: #262626; stroke-width: 0.8"/>
      </g>
     </g>
     <g id="text_10">
      <!-- $\mathdefault{0.8}$ -->
      <g style="fill: #262626" transform="translate(38.88 197.096745) scale(0.36 -0.36)">
       <defs>
        <path id="CMR17-38" d="M 1741 2264 
C 2144 2467 2554 2773 2554 3263 
C 2554 3841 1990 4179 1472 4179 
C 890 4179 378 3759 378 3180 
C 378 3021 416 2747 666 2505 
C 730 2442 998 2251 1171 2130 
C 883 1983 211 1634 211 934 
C 211 279 838 -128 1459 -128 
C 2144 -128 2720 362 2720 1010 
C 2720 1590 2330 1857 2074 2029 
L 1741 2264 
z
M 902 2822 
C 851 2854 595 3051 595 3351 
C 595 3739 998 4032 1459 4032 
C 1965 4032 2336 3676 2336 3262 
C 2336 2669 1670 2331 1638 2331 
C 1632 2331 1626 2331 1574 2370 
L 902 2822 
z
M 2080 1519 
C 2176 1449 2483 1240 2483 851 
C 2483 381 2010 25 1472 25 
C 890 25 448 438 448 940 
C 448 1443 838 1862 1280 2060 
L 2080 1519 
z
" transform="scale(0.015625)"/>
       </defs>
       <use xlink:href="#CMR17-30" transform="scale(0.996264)"/>
       <use xlink:href="#CMMI12-3a" transform="translate(45.690477 0) scale(0.996264)"/>
       <use xlink:href="#CMR17-38" transform="translate(72.787654 0) scale(0.996264)"/>
      </g>
     </g>
    </g>
    <g id="ytick_6">
     <g id="line2d_11">
      <g>
       <use xlink:href="#m4f49b9b402" x="88.532127" y="67.941693" style="fill: #262626; stroke: #262626; stroke-width: 0.8"/>
      </g>
     </g>
     <g id="text_11">
      <!-- $\mathdefault{1.0}$ -->
      <g style="fill: #262626" transform="translate(38.88 80.394994) scale(0.36 -0.36)">
       <use xlink:href="#CMR17-31" transform="scale(0.996264)"/>
       <use xlink:href="#CMMI12-3a" transform="translate(45.690477 0) scale(0.996264)"/>
       <use xlink:href="#CMR17-30" transform="translate(72.787654 0) scale(0.996264)"/>
      </g>
     </g>
    </g>
   </g>
   <g id="line2d_12">
    <path d="M 88.532127 67.941693 
L 95.78994 81.705363 
L 103.047752 94.987646 
L 110.305564 107.810737 
L 117.790183 120.575745 
L 125.274802 132.896303 
L 132.759421 144.792809 
L 140.470847 156.626613 
L 148.182273 168.050544 
L 155.893698 179.083314 
L 163.831931 190.05061 
L 171.770163 200.640278 
L 179.935202 211.15659 
L 188.100241 221.309111 
L 196.26528 231.114431 
L 204.657125 240.846777 
L 213.048971 250.244934 
L 221.667623 259.56512 
L 230.513082 268.796839 
L 239.35854 277.706103 
L 248.430806 286.524393 
L 257.503071 295.034187 
L 266.802143 303.451445 
L 276.328022 311.768513 
L 285.853901 319.790902 
L 295.606586 327.713376 
L 305.586078 335.529782 
L 315.56557 343.066449 
L 325.771869 350.498799 
L 336.204974 357.821972 
L 346.864886 365.03165 
L 357.751605 372.12404 
L 368.86513 379.095848 
L 380.205462 385.944251 
L 391.7726 392.666877 
L 403.566545 399.26178 
L 415.587297 405.727409 
L 427.834855 412.062592 
L 440.30922 418.266505 
L 453.237199 424.444919 
L 466.391983 430.483019 
L 479.773575 436.381343 
L 493.60878 442.234692 
L 507.670791 447.942467 
L 522.186416 453.592778 
L 536.928847 459.093859 
L 552.124892 464.527489 
L 567.77455 469.886138 
L 583.877821 475.163074 
L 600.434706 480.352337 
L 617.445203 485.448708 
L 634.909314 490.44767 
L 652.827039 495.345377 
L 671.425183 500.1964 
L 690.47694 504.934966 
L 710.209118 509.611792 
L 730.621715 514.218097 
L 751.487925 518.69864 
L 773.034556 523.09885 
L 795.488413 527.455538 
L 818.62269 531.716254 
L 842.664193 535.915479 
L 867.386117 540.007282 
L 893.015266 544.02393 
L 919.77845 547.990859 
L 947.448859 551.865595 
L 976.253302 555.672363 
L 995.758673 558.127549 
L 995.758673 558.127549 
" clip-path="url(#p8a047b255c)" style="fill: none; stroke: #1f77b4; stroke-width: 5; stroke-linecap: round"/>
   </g>
   <g id="line2d_13">
    <path d="M 88.532127 67.941693 
L 93.295067 85.91653 
L 98.284813 103.870547 
L 103.274559 120.982668 
L 108.264305 137.304734 
L 113.254051 152.884652 
L 118.243797 167.766756 
L 123.460349 182.623743 
L 128.676902 196.806352 
L 133.893455 210.354799 
L 139.110007 223.306343 
L 144.553366 236.221957 
L 149.996726 248.561664 
L 155.440085 260.359207 
L 160.883444 271.645896 
L 166.55361 282.890967 
L 172.223776 293.643784 
L 177.893942 303.93267 
L 183.790915 314.169241 
L 189.687887 323.959965 
L 195.58486 333.33037 
L 201.708639 342.64171 
L 207.832418 351.550035 
L 214.183004 360.387121 
L 220.53359 368.839187 
L 226.884175 376.928284 
L 233.461568 384.945479 
L 240.03896 392.616446 
L 246.843159 400.208499 
L 253.647359 407.471275 
L 260.678364 414.65015 
L 267.70937 421.516705 
L 274.967182 428.296092 
L 282.451801 434.977994 
L 289.93642 441.36415 
L 297.647846 447.652664 
L 305.586078 453.835666 
L 313.751117 459.90627 
L 321.916156 465.701326 
L 330.308002 471.387491 
L 338.926654 476.959753 
L 347.772113 482.413886 
L 356.844378 487.746407 
L 366.14345 492.954523 
L 375.669329 498.036083 
L 385.422014 502.989534 
L 395.628313 507.920767 
L 406.061418 512.711871 
L 416.72133 517.363504 
L 427.834855 521.968294 
L 439.175187 526.426747 
L 450.969132 530.823579 
L 463.216691 535.148449 
L 475.691056 539.3186 
L 488.619034 543.408059 
L 502.000625 547.409766 
L 516.062637 551.379999 
L 530.578262 555.244556 
L 545.5475 559.000011 
L 561.197157 562.695797 
L 577.527235 566.320865 
L 594.537733 569.865772 
L 612.228651 573.322612 
L 630.599988 576.68491 
L 649.878552 579.98507 
L 670.064343 583.211712 
L 691.15736 586.355334 
L 713.157604 589.408208 
L 736.291881 592.392442 
L 760.560191 595.297327 
L 786.189341 598.138396 
L 813.17933 600.903363 
L 841.53016 603.582326 
L 871.468636 606.186506 
L 903.221565 608.72292 
L 936.788947 611.179235 
L 972.397589 613.560371 
L 995.758673 615.009592 
L 995.758673 615.009592 
" clip-path="url(#p8a047b255c)" style="fill: none; stroke: #ff7f0e; stroke-width: 5; stroke-linecap: round"/>
   </g>
   <g id="line2d_14">
    <path d="M 88.532127 67.941693 
L 92.38784 89.671897 
L 96.47036 111.382686 
L 100.552879 131.858169 
L 104.635398 151.190349 
L 108.717918 169.462817 
L 112.800437 186.751662 
L 117.109763 204.010454 
L 121.41909 220.32488 
L 125.728416 235.762625 
L 130.037742 250.385416 
L 134.347068 264.249641 
L 138.883201 278.080707 
L 143.419333 291.183402 
L 147.955466 303.608002 
L 152.491599 315.400517 
L 157.254538 327.148472 
L 162.017477 338.290739 
L 166.780417 348.868262 
L 171.543356 358.918583 
L 176.533102 368.919556 
L 181.522848 378.416108 
L 186.512594 387.441609 
L 191.729147 396.406947 
L 196.945699 404.923087 
L 202.162252 413.019552 
L 207.605611 421.04992 
L 213.048971 428.681187 
L 218.49233 435.939373 
L 224.162496 443.129046 
L 229.832662 449.964734 
L 235.729634 456.722904 
L 241.626607 463.146566 
L 247.750386 469.486506 
L 253.874165 475.511473 
L 260.224751 481.448835 
L 266.802143 487.286825 
L 273.379536 492.829093 
L 280.183735 498.272175 
L 287.214741 503.60747 
L 294.472553 508.827639 
L 301.730365 513.776061 
L 309.214984 518.614116 
L 316.92641 523.336775 
L 324.864642 527.939977 
L 333.029681 532.420555 
L 341.421527 536.776166 
L 350.266986 541.113336 
L 359.339251 545.310964 
L 368.638323 549.369681 
L 378.391009 553.381214 
L 388.370501 557.246076 
L 398.803606 561.04729 
L 409.690324 564.773565 
L 421.030656 568.415292 
L 432.824601 571.964457 
L 445.07216 575.414536 
L 457.773331 578.760386 
L 471.154923 582.05204 
L 484.990128 585.225597 
L 499.505752 588.326757 
L 514.701797 591.345535 
L 530.805068 594.314131 
L 547.588759 597.180022 
L 565.279677 599.973493 
L 583.877821 602.683863 
L 603.609998 605.331923 
L 624.476209 607.90418 
L 646.476453 610.389924 
L 669.837536 612.8034 
L 694.55946 615.132826 
L 720.869029 617.38784 
L 748.993052 619.573729 
L 779.158335 621.692345 
L 811.364877 623.72934 
L 846.066293 625.698566 
L 883.489388 627.595961 
L 923.860969 629.416921 
L 967.63465 631.165336 
L 995.758673 632.181082 
L 995.758673 632.181082 
" clip-path="url(#p8a047b255c)" style="fill: none; stroke: #2ca02c; stroke-width: 5; stroke-linecap: round"/>
   </g>
   <g id="line2d_15">
    <path d="M 88.532127 67.941693 
L 91.934227 93.394065 
L 95.336326 117.21559 
L 98.738426 139.542746 
L 102.367332 161.849024 
L 105.996238 182.727536 
L 109.625144 202.297639 
L 113.254051 220.666466 
L 116.882957 237.930405 
L 120.511863 254.176362 
L 124.367576 270.409983 
L 128.223289 285.667982 
L 132.079001 300.02703 
L 135.934714 313.556413 
L 139.790427 326.318862 
L 143.872947 339.059274 
L 147.955466 351.064861 
L 152.037985 362.391085 
L 156.120505 373.088273 
L 160.429831 383.74781 
L 164.739157 393.806289 
L 169.048483 403.308078 
L 173.357809 412.293527 
L 177.893942 421.234435 
L 182.430075 429.682951 
L 186.966207 437.674592 
L 191.729147 445.609479 
L 196.492086 453.110457 
L 201.255026 460.208605 
L 206.244772 467.243551 
L 211.234518 473.897189 
L 216.45107 480.474923 
L 221.667623 486.693652 
L 227.110982 492.827737 
L 232.554341 498.625399 
L 238.224507 504.332918 
L 243.894673 509.726458 
L 249.791646 515.026967 
L 255.688618 520.035481 
L 261.812397 524.950138 
L 268.162983 529.761135 
L 274.740376 534.460189 
L 281.544575 539.040449 
L 288.575581 543.496389 
L 295.833393 547.823717 
L 303.318012 552.019262 
L 311.029438 556.080879 
L 318.96767 560.007342 
L 327.132709 563.798246 
L 335.751361 567.549524 
L 344.59682 571.154484 
L 353.895892 574.699364 
L 363.421771 578.092672 
L 373.401263 581.411697 
L 383.834368 584.646343 
L 394.721086 587.788372 
L 406.061418 590.83127 
L 418.08217 593.824503 
L 430.556535 596.702171 
L 443.71132 599.509349 
L 457.546525 602.234963 
L 472.288956 604.909721 
L 487.711807 607.481066 
L 504.041885 609.97809 
L 521.505996 612.420199 
L 539.877334 614.76345 
L 559.609511 617.052714 
L 580.475722 619.248005 
L 602.929579 621.383535 
L 626.971082 623.442808 
L 652.827039 625.429956 
L 680.497448 627.331034 
L 710.435924 629.162419 
L 742.869273 630.92057 
L 778.024302 632.601185 
L 816.354623 634.208755 
L 858.313851 635.743563 
L 904.582405 637.209879 
L 955.613898 638.601049 
L 995.758673 639.557004 
L 995.758673 639.557004 
" clip-path="url(#p8a047b255c)" style="fill: none; stroke: #d62728; stroke-width: 5; stroke-linecap: round"/>
   </g>
   <g id="line2d_16">
    <path d="M 88.532127 67.941693 
L 91.480614 95.45431 
L 94.655906 122.960608 
L 97.831199 148.473426 
L 101.006492 172.180958 
L 104.181785 194.249693 
L 107.357078 214.82735 
L 110.532371 234.045367 
L 113.934471 253.260279 
L 117.33657 271.177343 
L 120.73867 287.910922 
L 124.140769 303.563051 
L 127.542869 318.224995 
L 131.171775 332.865044 
L 134.800681 346.560451 
L 138.429587 359.390811 
L 142.058493 371.427503 
L 145.6874 382.734693 
L 149.543112 394.013822 
L 153.398825 404.597017 
L 157.254538 414.540399 
L 161.110251 423.894542 
L 165.19277 433.207364 
L 169.27529 441.959669 
L 173.357809 450.19557 
L 177.440329 457.954923 
L 181.749655 465.668172 
L 186.058981 472.929017 
L 190.368307 479.772169 
L 194.90444 486.558766 
L 199.440572 492.950569 
L 204.203512 499.269905 
L 208.966451 505.218546 
L 213.956197 511.083824 
L 218.945943 516.60302 
L 224.162496 522.032014 
L 229.379048 527.139495 
L 234.822408 532.153162 
L 240.265767 536.869401 
L 245.935933 541.490729 
L 251.832905 546.006396 
L 257.956685 550.407448 
L 264.080464 554.538506 
L 270.43105 558.56051 
L 277.008442 562.46774 
L 283.812641 566.255787 
L 290.843647 569.921438 
L 298.328266 573.569476 
L 306.039692 577.077728 
L 313.977924 580.44715 
L 322.369769 583.765998 
L 330.988422 586.937998 
L 340.060687 590.041889 
L 349.586566 593.065865 
L 359.566058 596.000328 
L 369.999163 598.837723 
L 381.112688 601.627048 
L 392.679827 604.301002 
L 404.927385 606.904179 
L 417.855363 609.424789 
L 431.690568 611.892377 
L 446.206193 614.254749 
L 461.629044 616.540135 
L 478.185929 618.766761 
L 495.876846 620.918378 
L 514.701797 622.982617 
L 534.887588 624.971786 
L 556.661025 626.892353 
L 580.248915 628.746292 
L 605.651258 630.517437 
L 633.321668 632.220752 
L 663.48695 633.851115 
L 696.373913 635.403053 
L 732.662975 636.888704 
L 772.580943 638.296534 
L 816.808237 639.630456 
L 866.252083 640.894849 
L 921.592903 642.083518 
L 984.191534 643.201145 
L 995.758673 643.385641 
L 995.758673 643.385641 
" clip-path="url(#p8a047b255c)" style="fill: none; stroke: #9467bd; stroke-width: 5; stroke-linecap: round"/>
   </g>
   <g id="line2d_17">
    <path d="M 88.532127 67.941693 
L 91.253807 98.316797 
L 93.975487 126.37803 
L 96.923973 154.431881 
L 99.872459 180.293931 
L 102.820945 204.186851 
L 105.769432 226.305721 
L 108.717918 246.822034 
L 111.666404 265.887043 
L 114.841697 284.948676 
L 118.01699 302.629765 
L 121.192283 319.060552 
L 124.367576 334.356273 
L 127.542869 348.619177 
L 130.944968 362.857917 
L 134.347068 376.11481 
L 137.749167 388.478143 
L 141.151267 400.026495 
L 144.553366 410.829989 
L 148.182273 421.603282 
L 151.811179 431.668448 
L 155.440085 441.086245 
L 159.068991 449.911046 
L 162.924704 458.692126 
L 166.780417 466.911234 
L 170.63613 474.615341 
L 174.491842 481.846609 
L 178.574362 489.029961 
L 182.656881 495.766181 
L 186.739401 502.091638 
L 191.048727 508.359011 
L 195.358053 514.239816 
L 199.894186 520.046725 
L 204.430318 525.492471 
L 209.193258 530.85388 
L 213.956197 535.87996 
L 218.945943 540.815536 
L 223.935689 545.441421 
L 229.152242 549.973971 
L 234.595601 554.400397 
L 240.03896 558.543271 
L 245.709126 562.582789 
L 251.606099 566.510574 
L 257.729878 570.319973 
L 264.080464 574.005912 
L 270.657856 577.564753 
L 277.462055 580.994143 
L 284.493061 584.292873 
L 291.97768 587.556092 
L 299.689106 590.675495 
L 307.854145 593.735721 
L 316.472797 596.72174 
L 325.318256 599.551599 
L 334.617328 602.296226 
L 344.59682 605.006256 
L 355.029925 607.606594 
L 366.14345 610.143354 
L 377.937395 612.601894 
L 390.41176 614.970796 
L 403.566545 617.24158 
L 417.628557 619.442178 
L 432.597795 621.559262 
L 448.701066 623.610431 
L 465.93837 625.580532 
L 484.536514 627.480438 
L 504.722305 629.314966 
L 526.495742 631.067245 
L 550.083632 632.740633 
L 575.939589 634.34866 
L 604.290418 635.884603 
L 635.362928 637.341799 
L 669.837536 638.731298 
L 707.941051 640.040969 
L 750.580699 641.280255 
L 798.663706 642.450047 
L 853.097298 643.54626 
L 915.242317 644.569536 
L 986.686407 645.518177 
L 995.758673 645.624431 
L 995.758673 645.624431 
" clip-path="url(#p8a047b255c)" style="fill: none; stroke: #8c564b; stroke-width: 5; stroke-linecap: round"/>
   </g>
   <g id="line2d_18">
    <path d="M 88.532127 67.941693 
L 91.027 100.354777 
L 93.74868 132.724075 
L 96.47036 162.319891 
L 99.192039 189.450511 
L 101.913719 214.382521 
L 104.635398 237.347401 
L 107.357078 258.546931 
L 110.305564 279.725163 
L 113.254051 299.23449 
L 116.202537 317.245887 
L 119.151023 333.908969 
L 122.099509 349.355121 
L 125.047996 363.700094 
L 128.223289 378.034113 
L 131.398582 391.322283 
L 134.573874 403.663988 
L 137.749167 415.147075 
L 140.92446 425.849427 
L 144.32656 436.528369 
L 147.728659 446.466083 
L 151.130759 455.72965 
L 154.532858 464.378727 
L 158.161765 472.986936 
L 161.790671 481.01397 
L 165.419577 488.511018 
L 169.048483 495.523752 
L 172.904196 502.489739 
L 176.759909 508.998853 
L 180.615622 515.09021 
L 184.698141 521.123393 
L 188.780661 526.764626 
L 193.089987 532.330725 
L 197.399313 537.532059 
L 201.935445 542.647332 
L 206.471578 547.425468 
L 211.234518 552.111357 
L 215.997457 556.487456 
L 220.987203 560.768756 
L 226.203756 564.942191 
L 231.420308 568.833875 
L 236.863667 572.621174 
L 242.533833 576.295783 
L 248.430806 579.851245 
L 254.554585 583.282789 
L 260.905171 586.587155 
L 267.482563 589.76243 
L 274.513569 592.905483 
L 281.771381 595.904406 
L 289.482807 598.845024 
L 297.421039 601.63467 
L 305.812885 604.349068 
L 314.658344 606.976775 
L 323.957416 609.508941 
L 333.936908 611.993047 
L 344.370013 614.361233 
L 355.483538 616.656713 
L 367.50429 618.907585 
L 380.205462 621.056487 
L 393.81386 623.130893 
L 408.329485 625.117869 
L 423.979142 627.034524 
L 440.98964 628.889739 
L 459.360978 630.665436 
L 479.319962 632.366966 
L 501.093399 633.995334 
L 524.908096 635.548647 
L 550.990859 637.023357 
L 579.795302 638.425552 
L 611.775037 639.755516 
L 647.383679 641.010048 
L 687.528454 642.196654 
L 732.889781 643.309286 
L 784.601694 644.349282 
L 844.025033 645.315878 
L 912.97425 646.209055 
L 993.94422 647.029541 
L 995.758673 647.045664 
L 995.758673 647.045664 
" clip-path="url(#p8a047b255c)" style="fill: none; stroke: #e377c2; stroke-width: 5; stroke-linecap: round"/>
   </g>
   <g id="line2d_19">
    <path d="M 88.532127 67.941693 
L 91.027 104.783131 
L 93.521873 138.237982 
L 96.016746 168.709336 
L 98.511619 196.542005 
L 101.006492 222.032354 
L 103.728172 247.468325 
L 106.449852 270.706938 
L 109.171531 291.994397 
L 111.893211 311.543343 
L 114.61489 329.5382 
L 117.33657 346.139559 
L 120.285056 362.714202 
L 123.233543 377.973604 
L 126.182029 392.053425 
L 129.130515 405.072265 
L 132.079001 417.134176 
L 135.254294 429.158572 
L 138.429587 440.279809 
L 141.60488 450.586179 
L 144.780173 460.155436 
L 147.955466 469.056271 
L 151.357566 477.920151 
L 154.759665 486.152765 
L 158.161765 493.812695 
L 161.563864 500.951881 
L 165.19277 508.044971 
L 168.821677 514.647834 
L 172.450583 520.804648 
L 176.306296 526.90142 
L 180.162008 532.580898 
L 184.017721 537.880332 
L 188.100241 543.114078 
L 192.18276 547.993988 
L 196.492086 552.795562 
L 200.801412 557.27027 
L 205.337545 561.65922 
L 209.873678 565.748206 
L 214.636617 569.748018 
L 219.626363 573.645099 
L 224.842916 577.428417 
L 230.059468 580.942216 
L 235.502828 584.348458 
L 241.172994 587.640571 
L 247.069966 590.813738 
L 253.420552 593.973252 
L 259.997944 596.992099 
L 266.802143 599.871367 
L 274.059956 602.697859 
L 281.544575 605.376015 
L 289.482807 607.982213 
L 297.874653 610.503926 
L 306.720111 612.931497 
L 316.24599 615.311954 
L 326.225482 617.576559 
L 336.885394 619.768157 
L 348.225726 621.874027 
L 360.473284 623.920861 
L 373.628069 625.891275 
L 387.690081 627.772409 
L 402.886125 629.580889 
L 419.44301 631.325114 
L 437.360734 632.987544 
L 457.092911 634.590653 
L 478.639542 636.113777 
L 502.227432 637.555999 
L 528.537002 638.936994 
L 557.568251 640.234719 
L 590.228407 641.467152 
L 626.971082 642.625495 
L 668.476696 643.707 
L 716.10609 644.719907 
L 770.993296 645.658751 
L 834.952768 646.524499 
L 910.479377 647.318221 
L 995.758673 648.003866 
L 995.758673 648.003866 
" clip-path="url(#p8a047b255c)" style="fill: none; stroke: #7f7f7f; stroke-width: 5; stroke-linecap: round"/>
   </g>
   <g id="line2d_20">
    <path d="M 88.532127 67.941693 
L 90.800194 105.599413 
L 93.06826 139.720645 
L 95.336326 170.735198 
L 97.831199 201.69866 
L 100.326072 229.760179 
L 102.820945 255.271717 
L 105.315818 278.53341 
L 107.810691 299.802474 
L 110.305564 319.300361 
L 113.027244 338.775098 
L 115.748924 356.584061 
L 118.470603 372.912101 
L 121.192283 387.919102 
L 123.913963 401.74393 
L 126.862449 415.526828 
L 129.810935 428.198188 
L 132.759421 439.87448 
L 135.707908 450.657301 
L 138.656394 460.635598 
L 141.831687 470.571141 
L 145.00698 479.749755 
L 148.182273 488.246465 
L 151.357566 496.127224 
L 154.532858 503.450196 
L 157.934958 510.735601 
L 161.337058 517.495604 
L 164.739157 523.779567 
L 168.368063 530.006893 
L 171.996969 535.789149 
L 175.625876 541.167779 
L 179.481588 546.481329 
L 183.337301 551.419659 
L 187.419821 556.277814 
L 191.50234 560.79024 
L 195.811666 565.213649 
L 200.120992 569.320858 
L 204.657125 573.334954 
L 209.420064 577.240919 
L 214.183004 580.860922 
L 219.17275 584.376253 
L 224.389302 587.777698 
L 229.832662 591.058258 
L 235.502828 594.212931 
L 241.3998 597.23849 
L 247.523579 600.133267 
L 254.100972 602.991477 
L 260.905171 605.703982 
L 268.162983 608.353627 
L 275.874409 610.924233 
L 284.039448 613.403099 
L 292.6581 615.780714 
L 301.730365 618.050418 
L 311.483051 620.256842 
L 321.916156 622.383531 
L 333.029681 624.418188 
L 345.050433 626.387371 
L 357.978411 628.274245 
L 371.813616 630.066793 
L 386.782854 631.781644 
L 403.112932 633.427226 
L 421.030656 635.005891 
L 440.762834 636.515794 
L 462.309464 637.93866 
L 486.350967 639.298778 
L 513.114151 640.584558 
L 543.052627 641.795049 
L 576.846815 642.933335 
L 615.177137 643.996663 
L 659.177624 644.988938 
L 709.982311 645.906592 
L 769.40565 646.751858 
L 839.942514 647.526247 
L 924.995002 648.229782 
L 995.758673 648.680323 
L 995.758673 648.680323 
" clip-path="url(#p8a047b255c)" style="fill: none; stroke: #bcbd22; stroke-width: 5; stroke-linecap: round"/>
   </g>
   <g id="line2d_21">
    <path d="M 88.532127 67.941693 
L 90.800194 109.578786 
L 93.06826 146.906174 
L 95.336326 180.499414 
L 97.604393 210.841014 
L 99.872459 238.337924 
L 102.140525 263.335316 
L 104.635398 288.295482 
L 107.130271 310.919866 
L 109.625144 331.491348 
L 112.120017 350.251216 
L 114.61489 367.406297 
L 117.109763 383.134705 
L 119.831443 398.846315 
L 122.553123 413.215724 
L 125.274802 426.391692 
L 127.996482 438.502912 
L 130.718162 449.661181 
L 133.666648 460.786691 
L 136.615134 471.015955 
L 139.56362 480.442783 
L 142.512107 489.14902 
L 145.460593 497.206327 
L 148.635886 505.229757 
L 151.811179 512.642517 
L 154.986472 519.50508 
L 158.161765 525.87061 
L 161.563864 532.19243 
L 164.965964 538.048257 
L 168.368063 543.482813 
L 171.996969 548.859739 
L 175.625876 553.844489 
L 179.481588 558.752667 
L 183.337301 563.299476 
L 187.419821 567.758293 
L 191.50234 571.886953 
L 195.811666 575.921909 
L 200.120992 579.657342 
L 204.657125 583.297556 
L 209.420064 586.829501 
L 214.40981 590.242902 
L 219.626363 593.530025 
L 225.069722 596.685414 
L 230.739888 599.70563 
L 236.636861 602.58899 
L 242.76064 605.335315 
L 249.338032 608.034793 
L 256.142232 610.585238 
L 263.400044 613.065591 
L 271.11147 615.461325 
L 279.276508 617.761399 
L 287.895161 619.957909 
L 297.194233 622.095215 
L 307.173725 624.155497 
L 317.833637 626.125445 
L 329.400775 628.031056 
L 341.87514 629.85465 
L 355.256732 631.583735 
L 369.772356 633.234534 
L 385.648821 634.814996 
L 403.112932 636.327051 
L 422.391496 637.768578 
L 443.71132 639.135123 
L 467.29921 640.42136 
L 493.835586 641.641367 
L 523.774062 642.789578 
L 557.795058 643.865524 
L 596.578993 644.864388 
L 641.486707 645.792746 
L 693.87904 646.647526 
L 756.024058 647.432041 
L 830.643441 648.144071 
L 922.046516 648.785225 
L 995.758673 649.175563 
L 995.758673 649.175563 
" clip-path="url(#p8a047b255c)" style="fill: none; stroke: #17becf; stroke-width: 5; stroke-linecap: round"/>
   </g>
   <g id="patch_3">
    <path d="M 88.532127 678.237256 
L 88.532127 38.88 
" style="fill: none; stroke: #262626; stroke-width: 0.8; stroke-linejoin: miter; stroke-linecap: square"/>
   </g>
   <g id="patch_4">
    <path d="M 88.532127 678.237256 
L 1041.12 678.237256 
" style="fill: none; stroke: #262626; stroke-width: 0.8; stroke-linejoin: miter; stroke-linecap: square"/>
   </g>
  </g>
 </g>
 <defs>
  <clipPath id="p8a047b255c">
   <rect x="88.532127" y="38.88" width="952.587873" height="639.357256"/>
  </clipPath>
 </defs>
</svg>
