<?xml version="1.0" encoding="utf-8" standalone="no"?>
<!DOCTYPE svg PUBLIC "-//W3C//DTD SVG 1.1//EN"
  "http://www.w3.org/Graphics/SVG/1.1/DTD/svg11.dtd">
<svg xmlns:xlink="http://www.w3.org/1999/xlink" width="1080pt" height="576pt" viewBox="0 0 1080 576" xmlns="http://www.w3.org/2000/svg" version="1.1">
 <metadata>
  <rdf:RDF xmlns:dc="http://purl.org/dc/elements/1.1/" xmlns:cc="http://creativecommons.org/ns#" xmlns:rdf="http://www.w3.org/1999/02/22-rdf-syntax-ns#">
   <cc:Work>
    <dc:type rdf:resource="http://purl.org/dc/dcmitype/StillImage"/>
    <dc:date>2024-07-25T16:14:52.219103</dc:date>
    <dc:format>image/svg+xml</dc:format>
    <dc:creator>
     <cc:Agent>
      <dc:title>Matplotlib v3.9.0, https://matplotlib.org/</dc:title>
     </cc:Agent>
    </dc:creator>
   </cc:Work>
  </rdf:RDF>
 </metadata>
 <defs>
  <style type="text/css">*{stroke-linejoin: round; stroke-linecap: butt}</style>
 </defs>
 <g id="figure_1">
  <g id="patch_1">
   <path d="M 0 576 
L 1080 576 
L 1080 0 
L 0 0 
z
" style="fill: #ffffff"/>
  </g>
  <g id="axes_1">
   <g id="patch_2">
    <path d="M 88.532127 498.237256 
L 1041.12 498.237256 
L 1041.12 38.88 
L 88.532127 38.88 
z
" style="fill: #ffffff"/>
   </g>
   <g id="matplotlib.axis_1">
    <g id="xtick_1">
     <g id="line2d_1">
      <defs>
       <path id="m5bcd195333" d="M 0 0 
L 0 3.5 
" style="stroke: #262626; stroke-width: 0.8"/>
      </defs>
      <g>
       <use xlink:href="#m5bcd195333" x="88.532127" y="498.237256" style="fill: #262626; stroke: #262626; stroke-width: 0.8"/>
      </g>
     </g>
     <g id="text_1">
      <!-- $\mathdefault{0}$ -->
      <g style="fill: #262626" transform="translate(80.307841 530.143856) scale(0.36 -0.36)">
       <defs>
        <path id="CMR17-30" d="M 2688 2025 
C 2688 2416 2682 3080 2413 3591 
C 2176 4039 1798 4198 1466 4198 
C 1158 4198 768 4058 525 3597 
C 269 3118 243 2524 243 2025 
C 243 1661 250 1106 448 619 
C 723 -39 1216 -128 1466 -128 
C 1760 -128 2208 -7 2470 600 
C 2662 1042 2688 1559 2688 2025 
z
M 1466 -26 
C 1056 -26 813 325 723 812 
C 653 1188 653 1738 653 2096 
C 653 2588 653 2997 736 3387 
C 858 3929 1216 4096 1466 4096 
C 1728 4096 2067 3923 2189 3400 
C 2272 3036 2278 2607 2278 2096 
C 2278 1680 2278 1169 2202 792 
C 2067 95 1690 -26 1466 -26 
z
" transform="scale(0.015625)"/>
       </defs>
       <use xlink:href="#CMR17-30" transform="scale(0.996264)"/>
      </g>
     </g>
    </g>
    <g id="xtick_2">
     <g id="line2d_2">
      <g>
       <use xlink:href="#m5bcd195333" x="315.338764" y="498.237256" style="fill: #262626; stroke: #262626; stroke-width: 0.8"/>
      </g>
     </g>
     <g id="text_2">
      <!-- $\mathdefault{500}$ -->
      <g style="fill: #262626" transform="translate(290.665906 530.143856) scale(0.36 -0.36)">
       <defs>
        <path id="CMR17-35" d="M 730 3692 
C 794 3666 1056 3584 1325 3584 
C 1920 3584 2246 3911 2432 4100 
C 2432 4157 2432 4192 2394 4192 
C 2387 4192 2374 4192 2323 4163 
C 2099 4058 1837 3973 1517 3973 
C 1325 3973 1037 3999 723 4139 
C 653 4171 640 4171 634 4171 
C 602 4171 595 4164 595 4037 
L 595 2203 
C 595 2089 595 2057 659 2057 
C 691 2057 704 2070 736 2114 
C 941 2401 1222 2522 1542 2522 
C 1766 2522 2246 2382 2246 1289 
C 2246 1085 2246 715 2054 421 
C 1894 159 1645 25 1370 25 
C 947 25 518 320 403 814 
C 429 807 480 795 506 795 
C 589 795 749 840 749 1038 
C 749 1210 627 1280 506 1280 
C 358 1280 262 1190 262 1011 
C 262 454 704 -128 1382 -128 
C 2042 -128 2669 440 2669 1264 
C 2669 2030 2170 2624 1549 2624 
C 1222 2624 947 2503 730 2274 
L 730 3692 
z
" transform="scale(0.015625)"/>
       </defs>
       <use xlink:href="#CMR17-35" transform="scale(0.996264)"/>
       <use xlink:href="#CMR17-30" transform="translate(45.690477 0) scale(0.996264)"/>
       <use xlink:href="#CMR17-30" transform="translate(91.380954 0) scale(0.996264)"/>
      </g>
     </g>
    </g>
    <g id="xtick_3">
     <g id="line2d_3">
      <g>
       <use xlink:href="#m5bcd195333" x="542.1454" y="498.237256" style="fill: #262626; stroke: #262626; stroke-width: 0.8"/>
      </g>
     </g>
     <g id="text_3">
      <!-- $\mathdefault{1000}$ -->
      <g style="fill: #262626" transform="translate(509.248256 530.143856) scale(0.36 -0.36)">
       <defs>
        <path id="CMR17-31" d="M 1702 4058 
C 1702 4192 1696 4192 1606 4192 
C 1357 3916 979 3827 621 3827 
C 602 3827 570 3827 563 3808 
C 557 3795 557 3782 557 3648 
C 755 3648 1088 3686 1344 3839 
L 1344 461 
C 1344 236 1331 160 781 160 
L 589 160 
L 589 0 
C 896 0 1216 0 1523 0 
C 1830 0 2150 0 2458 0 
L 2458 160 
L 2266 160 
C 1715 160 1702 230 1702 458 
L 1702 4058 
z
" transform="scale(0.015625)"/>
       </defs>
       <use xlink:href="#CMR17-31" transform="scale(0.996264)"/>
       <use xlink:href="#CMR17-30" transform="translate(45.690477 0) scale(0.996264)"/>
       <use xlink:href="#CMR17-30" transform="translate(91.380954 0) scale(0.996264)"/>
       <use xlink:href="#CMR17-30" transform="translate(137.071431 0) scale(0.996264)"/>
      </g>
     </g>
    </g>
    <g id="xtick_4">
     <g id="line2d_4">
      <g>
       <use xlink:href="#m5bcd195333" x="768.952036" y="498.237256" style="fill: #262626; stroke: #262626; stroke-width: 0.8"/>
      </g>
     </g>
     <g id="text_4">
      <!-- $\mathdefault{1500}$ -->
      <g style="fill: #262626" transform="translate(736.054893 530.143856) scale(0.36 -0.36)">
       <use xlink:href="#CMR17-31" transform="scale(0.996264)"/>
       <use xlink:href="#CMR17-35" transform="translate(45.690477 0) scale(0.996264)"/>
       <use xlink:href="#CMR17-30" transform="translate(91.380954 0) scale(0.996264)"/>
       <use xlink:href="#CMR17-30" transform="translate(137.071431 0) scale(0.996264)"/>
      </g>
     </g>
    </g>
    <g id="xtick_5">
     <g id="line2d_5">
      <g>
       <use xlink:href="#m5bcd195333" x="995.758673" y="498.237256" style="fill: #262626; stroke: #262626; stroke-width: 0.8"/>
      </g>
     </g>
     <g id="text_5">
      <!-- $\mathdefault{2000}$ -->
      <g style="fill: #262626" transform="translate(962.861529 530.143856) scale(0.36 -0.36)">
       <defs>
        <path id="CMR17-32" d="M 2669 989 
L 2554 989 
C 2490 536 2438 459 2413 420 
C 2381 369 1920 369 1830 369 
L 602 369 
C 832 619 1280 1072 1824 1597 
C 2214 1967 2669 2402 2669 3035 
C 2669 3790 2067 4224 1395 4224 
C 691 4224 262 3604 262 3030 
C 262 2780 448 2748 525 2748 
C 589 2748 781 2787 781 3010 
C 781 3207 614 3264 525 3264 
C 486 3264 448 3258 422 3245 
C 544 3790 915 4058 1306 4058 
C 1862 4058 2227 3617 2227 3035 
C 2227 2479 1901 2000 1536 1584 
L 262 146 
L 262 0 
L 2515 0 
L 2669 989 
z
" transform="scale(0.015625)"/>
       </defs>
       <use xlink:href="#CMR17-32" transform="scale(0.996264)"/>
       <use xlink:href="#CMR17-30" transform="translate(45.690477 0) scale(0.996264)"/>
       <use xlink:href="#CMR17-30" transform="translate(91.380954 0) scale(0.996264)"/>
       <use xlink:href="#CMR17-30" transform="translate(137.071431 0) scale(0.996264)"/>
      </g>
     </g>
    </g>
   </g>
   <g id="matplotlib.axis_2">
    <g id="ytick_1">
     <g id="line2d_6">
      <defs>
       <path id="m5b83475775" d="M 0 0 
L -3.5 0 
" style="stroke: #262626; stroke-width: 0.8"/>
      </defs>
      <g>
       <use xlink:href="#m5b83475775" x="88.532127" y="478.304398" style="fill: #262626; stroke: #262626; stroke-width: 0.8"/>
      </g>
     </g>
     <g id="text_6">
      <!-- $\mathdefault{0.0}$ -->
      <g style="fill: #262626" transform="translate(38.88 490.757698) scale(0.36 -0.36)">
       <defs>
        <path id="CMMI12-3a" d="M 1178 307 
C 1178 492 1024 619 870 619 
C 685 619 557 466 557 313 
C 557 128 710 0 864 0 
C 1050 0 1178 153 1178 307 
z
" transform="scale(0.015625)"/>
       </defs>
       <use xlink:href="#CMR17-30" transform="scale(0.996264)"/>
       <use xlink:href="#CMMI12-3a" transform="translate(45.690477 0) scale(0.996264)"/>
       <use xlink:href="#CMR17-30" transform="translate(72.787654 0) scale(0.996264)"/>
      </g>
     </g>
    </g>
    <g id="ytick_2">
     <g id="line2d_7">
      <g>
       <use xlink:href="#m5b83475775" x="88.532127" y="394.595493" style="fill: #262626; stroke: #262626; stroke-width: 0.8"/>
      </g>
     </g>
     <g id="text_7">
      <!-- $\mathdefault{0.2}$ -->
      <g style="fill: #262626" transform="translate(38.88 407.048794) scale(0.36 -0.36)">
       <use xlink:href="#CMR17-30" transform="scale(0.996264)"/>
       <use xlink:href="#CMMI12-3a" transform="translate(45.690477 0) scale(0.996264)"/>
       <use xlink:href="#CMR17-32" transform="translate(72.787654 0) scale(0.996264)"/>
      </g>
     </g>
    </g>
    <g id="ytick_3">
     <g id="line2d_8">
      <g>
       <use xlink:href="#m5b83475775" x="88.532127" y="310.886589" style="fill: #262626; stroke: #262626; stroke-width: 0.8"/>
      </g>
     </g>
     <g id="text_8">
      <!-- $\mathdefault{0.4}$ -->
      <g style="fill: #262626" transform="translate(38.88 323.339889) scale(0.36 -0.36)">
       <defs>
        <path id="CMR17-34" d="M 2150 4122 
C 2150 4256 2144 4256 2029 4256 
L 128 1254 
L 128 1088 
L 1779 1088 
L 1779 457 
C 1779 224 1766 160 1318 160 
L 1197 160 
L 1197 0 
C 1402 0 1747 0 1965 0 
C 2182 0 2528 0 2733 0 
L 2733 160 
L 2611 160 
C 2163 160 2150 224 2150 457 
L 2150 1088 
L 2803 1088 
L 2803 1254 
L 2150 1254 
L 2150 4122 
z
M 1798 3703 
L 1798 1254 
L 256 1254 
L 1798 3703 
z
" transform="scale(0.015625)"/>
       </defs>
       <use xlink:href="#CMR17-30" transform="scale(0.996264)"/>
       <use xlink:href="#CMMI12-3a" transform="translate(45.690477 0) scale(0.996264)"/>
       <use xlink:href="#CMR17-34" transform="translate(72.787654 0) scale(0.996264)"/>
      </g>
     </g>
    </g>
    <g id="ytick_4">
     <g id="line2d_9">
      <g>
       <use xlink:href="#m5b83475775" x="88.532127" y="227.177684" style="fill: #262626; stroke: #262626; stroke-width: 0.8"/>
      </g>
     </g>
     <g id="text_9">
      <!-- $\mathdefault{0.6}$ -->
      <g style="fill: #262626" transform="translate(38.88 239.630985) scale(0.36 -0.36)">
       <defs>
        <path id="CMR17-36" d="M 678 2176 
C 678 3690 1395 4032 1811 4032 
C 1946 4032 2272 4009 2400 3776 
C 2298 3776 2106 3776 2106 3553 
C 2106 3381 2246 3323 2336 3323 
C 2394 3323 2566 3348 2566 3560 
C 2566 3954 2246 4179 1805 4179 
C 1043 4179 243 3390 243 1984 
C 243 253 966 -128 1478 -128 
C 2099 -128 2688 427 2688 1283 
C 2688 2081 2170 2662 1517 2662 
C 1126 2662 838 2407 678 1960 
L 678 2176 
z
M 1478 25 
C 691 25 691 1200 691 1436 
C 691 1896 909 2560 1504 2560 
C 1613 2560 1926 2560 2138 2120 
C 2253 1870 2253 1609 2253 1289 
C 2253 944 2253 690 2118 434 
C 1978 171 1773 25 1478 25 
z
" transform="scale(0.015625)"/>
       </defs>
       <use xlink:href="#CMR17-30" transform="scale(0.996264)"/>
       <use xlink:href="#CMMI12-3a" transform="translate(45.690477 0) scale(0.996264)"/>
       <use xlink:href="#CMR17-36" transform="translate(72.787654 0) scale(0.996264)"/>
      </g>
     </g>
    </g>
    <g id="ytick_5">
     <g id="line2d_10">
      <g>
       <use xlink:href="#m5b83475775" x="88.532127" y="143.46878" style="fill: #262626; stroke: #262626; stroke-width: 0.8"/>
      </g>
     </g>
     <g id="text_10">
      <!-- $\mathdefault{0.8}$ -->
      <g style="fill: #262626" transform="translate(38.88 155.92208) scale(0.36 -0.36)">
       <defs>
        <path id="CMR17-38" d="M 1741 2264 
C 2144 2467 2554 2773 2554 3263 
C 2554 3841 1990 4179 1472 4179 
C 890 4179 378 3759 378 3180 
C 378 3021 416 2747 666 2505 
C 730 2442 998 2251 1171 2130 
C 883 1983 211 1634 211 934 
C 211 279 838 -128 1459 -128 
C 2144 -128 2720 362 2720 1010 
C 2720 1590 2330 1857 2074 2029 
L 1741 2264 
z
M 902 2822 
C 851 2854 595 3051 595 3351 
C 595 3739 998 4032 1459 4032 
C 1965 4032 2336 3676 2336 3262 
C 2336 2669 1670 2331 1638 2331 
C 1632 2331 1626 2331 1574 2370 
L 902 2822 
z
M 2080 1519 
C 2176 1449 2483 1240 2483 851 
C 2483 381 2010 25 1472 25 
C 890 25 448 438 448 940 
C 448 1443 838 1862 1280 2060 
L 2080 1519 
z
" transform="scale(0.015625)"/>
       </defs>
       <use xlink:href="#CMR17-30" transform="scale(0.996264)"/>
       <use xlink:href="#CMMI12-3a" transform="translate(45.690477 0) scale(0.996264)"/>
       <use xlink:href="#CMR17-38" transform="translate(72.787654 0) scale(0.996264)"/>
      </g>
     </g>
    </g>
    <g id="ytick_6">
     <g id="line2d_11">
      <g>
       <use xlink:href="#m5b83475775" x="88.532127" y="59.759875" style="fill: #262626; stroke: #262626; stroke-width: 0.8"/>
      </g>
     </g>
     <g id="text_11">
      <!-- $\mathdefault{1.0}$ -->
      <g style="fill: #262626" transform="translate(38.88 72.213175) scale(0.36 -0.36)">
       <use xlink:href="#CMR17-31" transform="scale(0.996264)"/>
       <use xlink:href="#CMMI12-3a" transform="translate(45.690477 0) scale(0.996264)"/>
       <use xlink:href="#CMR17-30" transform="translate(72.787654 0) scale(0.996264)"/>
      </g>
     </g>
    </g>
   </g>
   <g id="line2d_12">
    <path d="M 88.532127 59.759875 
L 94.882713 71.245913 
L 101.233299 82.265434 
L 107.583885 92.843368 
L 114.161277 103.358388 
L 120.73867 113.448847 
L 127.316062 123.137302 
L 134.120261 132.759228 
L 140.92446 141.995296 
L 147.728659 150.865868 
L 154.759665 159.668363 
L 161.790671 168.120542 
L 169.048483 176.497366 
L 176.306296 184.539311 
L 183.790915 192.500461 
L 191.275534 200.142254 
L 198.986959 207.699396 
L 206.925191 215.16154 
L 214.863424 222.319167 
L 223.028463 229.380815 
L 231.420308 236.338371 
L 239.812154 243.008197 
L 248.430806 249.575222 
L 257.276265 256.033216 
L 266.34853 262.37673 
L 275.647602 268.601054 
L 284.946674 274.560029 
L 294.472553 280.404748 
L 304.225238 286.131839 
L 314.20473 291.738517 
L 324.637836 297.341659 
L 335.297748 302.809829 
L 346.184466 308.142409 
L 357.297991 313.339205 
L 368.86513 318.499248 
L 380.659075 323.515102 
L 392.679827 328.388227 
L 405.154192 333.205856 
L 418.08217 337.957659 
L 431.236955 342.557146 
L 444.845353 347.081286 
L 458.907364 351.522667 
L 473.422989 355.874885 
L 488.392227 360.132487 
L 504.041885 364.350428 
L 520.145156 368.459156 
L 536.928847 372.509391 
L 554.166152 376.440267 
L 572.083876 380.29852 
L 590.68202 384.075944 
L 609.960584 387.765596 
L 630.146375 391.401349 
L 651.239392 394.97138 
L 673.012829 398.43065 
L 695.920299 401.842608 
L 719.734996 405.162995 
L 744.683726 408.414742 
L 770.766489 411.587764 
L 797.983286 414.673756 
L 826.560922 417.689145 
L 856.499398 420.62387 
L 888.02552 423.489655 
L 921.139289 426.275715 
L 956.067511 428.990355 
L 993.036993 431.638525 
L 995.758673 431.824998 
L 995.758673 431.824998 
" clip-path="url(#pa02dfc5457)" style="fill: none; stroke: #393b79; stroke-width: 2; stroke-linecap: round"/>
   </g>
   <g id="line2d_13">
    <path d="M 88.532127 59.759875 
L 92.841453 75.244883 
L 97.150779 89.885774 
L 101.460106 103.742826 
L 105.769432 116.871027 
L 110.078758 129.320628 
L 114.61489 141.742856 
L 119.151023 153.51316 
L 123.687156 164.676385 
L 128.223289 175.273586 
L 132.986228 185.832608 
L 137.749167 195.848988 
L 142.512107 205.359294 
L 147.501853 214.81618 
L 152.491599 223.789777 
L 157.481345 232.312473 
L 162.697897 240.772682 
L 167.91445 248.803677 
L 173.131003 256.434017 
L 178.574362 263.997282 
L 184.017721 271.180176 
L 189.687887 278.28491 
L 195.358053 285.030141 
L 201.028219 291.439726 
L 206.925191 297.773174 
L 213.048971 304.015281 
L 219.17275 309.939055 
L 225.523336 315.768739 
L 231.873921 321.300713 
L 238.451314 326.737661 
L 245.255513 332.070107 
L 252.286519 337.289925 
L 259.317524 342.235094 
L 266.575337 347.071768 
L 274.059956 351.794336 
L 281.771381 356.398226 
L 289.709614 360.879828 
L 297.874653 365.236422 
L 306.266498 369.466099 
L 315.111957 373.672479 
L 324.184222 377.738316 
L 333.483295 381.664643 
L 343.23598 385.540446 
L 353.442279 389.351999 
L 363.875384 393.010433 
L 374.762102 396.592384 
L 386.102434 400.088811 
L 397.896379 403.492243 
L 410.143938 406.796676 
L 423.071916 410.052642 
L 436.453507 413.19405 
L 450.515519 416.26706 
L 465.25795 419.260859 
L 480.680802 422.166654 
L 497.010879 425.015587 
L 514.248184 427.793736 
L 532.392715 430.489745 
L 551.444472 433.094657 
L 571.630263 435.628984 
L 592.950087 438.081047 
L 615.63075 440.464622 
L 639.672254 442.767053 
L 665.301404 444.997519 
L 692.745007 447.160803 
L 722.229869 449.258228 
L 753.755992 451.27478 
L 787.550181 453.21175 
L 824.066049 455.079618 
L 863.530404 456.873098 
L 906.396858 458.595535 
L 953.119025 460.246597 
L 995.758673 461.578783 
L 995.758673 461.578783 
" clip-path="url(#pa02dfc5457)" style="fill: none; stroke: #6b6ecf; stroke-width: 2; stroke-linecap: round"/>
   </g>
   <g id="line2d_14">
    <path d="M 88.532127 59.759875 
L 91.934227 78.016586 
L 95.336326 95.103509 
L 98.738426 111.118536 
L 102.367332 127.118588 
L 105.996238 142.094519 
L 109.625144 156.131942 
L 113.254051 169.307703 
L 116.882957 181.69094 
L 120.73867 194.049376 
L 124.594382 205.650786 
L 128.450095 216.555786 
L 132.305808 226.819043 
L 136.388328 237.041369 
L 140.470847 246.65253 
L 144.553366 255.70031 
L 148.635886 264.227914 
L 152.945212 272.708135 
L 157.254538 280.694022 
L 161.563864 288.223276 
L 166.099997 295.693011 
L 170.63613 302.730729 
L 175.172262 309.369123 
L 179.935202 315.94208 
L 184.698141 322.13859 
L 189.687887 328.257119 
L 194.677633 334.022835 
L 199.894186 339.702261 
L 205.110738 345.052692 
L 210.554098 350.311933 
L 215.997457 355.265727 
L 221.667623 360.126127 
L 227.564595 364.881557 
L 233.461568 369.35552 
L 239.585347 373.726979 
L 245.935933 377.988091 
L 252.513325 382.132487 
L 259.317524 386.155165 
L 266.34853 390.052375 
L 273.606343 393.821501 
L 281.090962 397.460949 
L 289.029194 401.069762 
L 297.194233 404.535232 
L 305.812885 407.946084 
L 314.658344 411.206406 
L 323.957416 414.395423 
L 333.710101 417.501723 
L 343.9164 420.516036 
L 354.576312 423.431076 
L 365.689837 426.241369 
L 377.483782 428.993921 
L 389.958147 431.674267 
L 403.112932 434.270736 
L 416.948137 436.774253 
L 431.690568 439.213985 
L 447.340226 441.575834 
L 463.89711 443.848893 
L 481.588028 446.052048 
L 500.639786 448.196387 
L 520.825576 450.243103 
L 542.599013 452.225285 
L 565.960097 454.12715 
L 591.36244 455.968321 
L 618.806043 457.730658 
L 648.517712 459.413368 
L 680.951061 461.024895 
L 716.559703 462.567652 
L 755.570445 464.032024 
L 798.663706 465.424031 
L 846.519906 466.743917 
L 900.046272 467.993334 
L 960.150031 469.169206 
L 995.758673 469.773356 
L 995.758673 469.773356 
" clip-path="url(#pa02dfc5457)" style="fill: none; stroke: #637939; stroke-width: 2; stroke-linecap: round"/>
   </g>
   <g id="line2d_15">
    <path d="M 88.532127 59.759875 
L 91.480614 80.763809 
L 94.4291 100.22405 
L 97.377586 118.288345 
L 100.552879 136.330371 
L 103.728172 153.048251 
L 106.903465 168.568539 
L 110.078758 183.003014 
L 113.254051 196.450708 
L 116.65615 209.863691 
L 120.05825 222.340814 
L 123.460349 233.967203 
L 126.862449 244.818519 
L 130.264548 254.96219 
L 133.893455 265.069886 
L 137.522361 274.506184 
L 141.151267 283.329286 
L 144.780173 291.591217 
L 148.635886 299.806704 
L 152.491599 307.491329 
L 156.347312 314.689884 
L 160.429831 321.82665 
L 164.51235 328.506185 
L 168.59487 334.766745 
L 172.904196 340.958464 
L 177.213522 346.757811 
L 181.522848 352.197265 
L 186.058981 357.566241 
L 190.595114 362.599333 
L 195.358053 367.552585 
L 200.120992 372.194295 
L 205.110738 376.750748 
L 210.327291 381.207372 
L 215.543844 385.37681 
L 220.987203 389.447449 
L 226.657369 393.4096 
L 232.554341 397.255462 
L 238.678121 400.978972 
L 245.028706 404.575649 
L 251.606099 408.042437 
L 258.410298 411.377553 
L 265.441304 414.58033 
L 272.925923 417.74343 
L 280.637348 420.762185 
L 288.802387 423.718868 
L 297.421039 426.599159 
L 306.493305 429.391457 
L 316.019184 432.086686 
L 325.998676 434.678071 
L 336.658587 437.212494 
L 347.772113 439.626572 
L 359.792864 442.005736 
L 372.494036 444.288653 
L 386.102434 446.503564 
L 400.618059 448.635819 
L 416.04091 450.67457 
L 432.597795 452.637814 
L 450.515519 454.535588 
L 469.794083 456.351611 
L 490.660294 458.092174 
L 513.340957 459.759243 
L 538.062881 461.351795 
L 565.279677 462.878852 
L 595.218153 464.331887 
L 628.331922 465.712128 
L 665.074597 467.017116 
L 706.126598 468.248814 
L 752.395152 469.409904 
L 804.787485 470.497382 
L 864.664437 471.512645 
L 933.840461 472.457051 
L 995.758673 473.144749 
L 995.758673 473.144749 
" clip-path="url(#pa02dfc5457)" style="fill: none; stroke: #b5cf6b; stroke-width: 2; stroke-linecap: round"/>
   </g>
   <g id="line2d_16">
    <path d="M 88.532127 59.759875 
L 91.253807 83.871394 
L 93.975487 105.955587 
L 96.697166 126.233702 
L 99.418846 144.89759 
L 102.140525 162.114274 
L 105.089012 179.301386 
L 108.037498 195.122965 
L 110.985984 209.720027 
L 113.934471 223.215835 
L 116.882957 235.718516 
L 120.05825 248.181191 
L 123.233543 259.706769 
L 126.408836 270.386954 
L 129.584128 280.302498 
L 132.759421 289.52473 
L 136.161521 298.707983 
L 139.56362 307.236595 
L 142.96572 315.171374 
L 146.36782 322.566227 
L 149.996726 329.912848 
L 153.625632 336.751274 
L 157.254538 343.127343 
L 161.110251 349.440845 
L 164.965964 355.321866 
L 168.821677 360.809042 
L 172.904196 366.227899 
L 176.986715 371.280125 
L 181.296042 376.25098 
L 185.605368 380.883199 
L 190.1415 385.426406 
L 194.677633 389.658891 
L 199.440572 393.798866 
L 204.430318 397.832311 
L 209.420064 401.583581 
L 214.636617 405.231549 
L 220.079976 408.767415 
L 225.750142 412.184388 
L 231.647115 415.477503 
L 237.770894 418.643422 
L 244.12148 421.680255 
L 250.925679 424.683589 
L 257.956685 427.54269 
L 265.441304 430.34196 
L 273.152729 432.990553 
L 281.317768 435.56266 
L 289.93642 438.047038 
L 299.235492 440.492116 
L 308.988178 442.824584 
L 319.421283 445.088589 
L 330.534808 447.269824 
L 342.328753 449.357624 
L 355.029925 451.378797 
L 368.638323 453.318045 
L 383.380755 455.191541 
L 399.257219 456.982829 
L 416.494523 458.701614 
L 435.319474 460.351544 
L 455.958878 461.931958 
L 478.412735 463.425401 
L 503.361465 464.857054 
L 530.805068 466.205568 
L 561.423964 467.483821 
L 595.671766 468.687431 
L 634.455701 469.822915 
L 678.456188 470.88354 
L 728.807262 471.870162 
L 787.323374 472.788157 
L 855.818978 473.633346 
L 937.015754 474.405738 
L 995.758673 474.851006 
L 995.758673 474.851006 
" clip-path="url(#pa02dfc5457)" style="fill: none; stroke: #8c6d31; stroke-width: 2; stroke-linecap: round"/>
   </g>
   <g id="line2d_17">
    <path d="M 88.532127 59.759875 
L 91.027 86.18584 
L 93.521873 110.182643 
L 96.016746 132.039416 
L 98.511619 152.003489 
L 101.006492 170.28744 
L 103.728172 188.532387 
L 106.449852 205.201193 
L 109.171531 220.470457 
L 111.893211 234.492704 
L 114.61489 247.400221 
L 117.33657 259.308196 
L 120.285056 271.197008 
L 123.233543 282.142413 
L 126.182029 292.241716 
L 129.130515 301.579989 
L 132.305808 310.870903 
L 135.481101 319.447319 
L 138.656394 327.380709 
L 141.831687 334.733824 
L 145.233786 342.030898 
L 148.635886 348.785037 
L 152.037985 355.048828 
L 155.440085 360.868638 
L 159.068991 366.633188 
L 162.697897 371.983182 
L 166.55361 377.256681 
L 170.409323 382.147085 
L 174.265036 386.690639 
L 178.347555 391.158973 
L 182.430075 395.307995 
L 186.739401 399.373901 
L 191.275534 403.339097 
L 195.811666 407.01266 
L 200.574606 410.586541 
L 205.564352 414.049709 
L 210.780904 417.393608 
L 216.224264 420.611922 
L 221.894429 423.700342 
L 227.791402 426.656327 
L 233.915181 429.478871 
L 240.492574 432.260187 
L 247.296773 434.894464 
L 254.554585 437.462623 
L 262.266011 439.949251 
L 270.43105 442.342415 
L 279.049702 444.633347 
L 288.121967 446.816086 
L 297.874653 448.933898 
L 308.307758 450.97126 
L 319.64809 452.95425 
L 331.668841 454.829449 
L 344.823626 456.65261 
L 359.112444 458.402248 
L 374.535296 460.062905 
L 391.318987 461.644423 
L 409.690324 463.150726 
L 430.102922 464.596619 
L 452.556779 465.960348 
L 477.505509 467.249828 
L 505.402725 468.466085 
L 536.928847 469.613651 
L 572.764296 470.690031 
L 613.816297 471.694334 
L 661.218884 472.62512 
L 716.559703 473.48287 
L 782.106821 474.269186 
L 860.808724 474.983159 
L 956.974738 475.625016 
L 995.758673 475.8322 
L 995.758673 475.8322 
" clip-path="url(#pa02dfc5457)" style="fill: none; stroke: #e7cb94; stroke-width: 2; stroke-linecap: round"/>
   </g>
   <g id="line2d_18">
    <path d="M 88.532127 59.759875 
L 90.800194 87.725944 
L 93.06826 112.975751 
L 95.336326 135.850377 
L 97.604393 156.638953 
L 100.099266 177.389996 
L 102.594139 196.19329 
L 105.089012 213.285414 
L 107.583885 228.86806 
L 110.078758 243.114037 
L 112.573631 256.172098 
L 115.29531 269.213094 
L 118.01699 281.137224 
L 120.73867 292.068576 
L 123.460349 302.114463 
L 126.182029 311.368069 
L 129.130515 320.59271 
L 132.079001 329.072605 
L 135.027488 336.885873 
L 137.975974 344.100648 
L 141.151267 351.26933 
L 144.32656 357.878098 
L 147.501853 363.983815 
L 150.677146 369.636302 
L 154.079245 375.239246 
L 157.481345 380.419429 
L 161.110251 385.525655 
L 164.739157 390.242207 
L 168.368063 394.60777 
L 172.223776 398.899559 
L 176.079489 402.869278 
L 180.162008 406.756358 
L 184.471334 410.542025 
L 188.780661 414.034808 
L 193.316793 417.427345 
L 198.079733 420.70817 
L 203.069479 423.86854 
L 208.286031 426.902165 
L 213.729391 429.804933 
L 219.399556 432.574629 
L 225.296529 435.210669 
L 231.647115 437.802325 
L 238.224507 440.247501 
L 245.255513 442.62417 
L 252.740132 444.917464 
L 260.678364 447.116172 
L 269.297016 449.266052 
L 278.369282 451.297404 
L 288.121967 453.252121 
L 298.555073 455.117153 
L 309.895404 456.917515 
L 322.142963 458.636048 
L 335.524554 460.2871 
L 350.266986 461.876294 
L 366.370257 463.383231 
L 384.061174 464.811501 
L 403.566545 466.160819 
L 425.339982 467.441021 
L 449.835099 468.653304 
L 477.505509 469.793671 
L 508.804824 470.855835 
L 544.640273 471.84476 
L 586.145887 472.762406 
L 634.682508 473.607443 
L 692.291393 474.381542 
L 761.694224 475.084279 
L 846.746713 475.715072 
L 953.572638 476.275542 
L 995.758673 476.447725 
L 995.758673 476.447725 
" clip-path="url(#pa02dfc5457)" style="fill: none; stroke: #ad494a; stroke-width: 2; stroke-linecap: round"/>
   </g>
   <g id="line2d_19">
    <path d="M 88.532127 59.759875 
L 90.573387 88.503579 
L 92.614647 114.379835 
L 94.882713 140.215648 
L 97.150779 163.390488 
L 99.418846 184.258028 
L 101.686912 203.115028 
L 103.954979 220.211985 
L 106.223045 235.761536 
L 108.717918 251.294542 
L 111.212791 265.379859 
L 113.707664 278.192124 
L 116.202537 289.880392 
L 118.69741 300.572511 
L 121.41909 311.229576 
L 124.140769 320.955005 
L 126.862449 329.854398 
L 129.584128 338.018792 
L 132.305808 345.527015 
L 135.254294 352.999717 
L 138.202781 359.858258 
L 141.151267 366.16819 
L 144.099753 371.98654 
L 147.275046 377.759683 
L 150.450339 383.074638 
L 153.625632 387.978668 
L 157.027731 392.823825 
L 160.429831 397.28902 
L 164.058737 401.676647 
L 167.687643 405.71698 
L 171.543356 409.669184 
L 175.399069 413.306945 
L 179.481588 416.852019 
L 183.790915 420.288154 
L 188.100241 423.443753 
L 192.636373 426.495001 
L 197.399313 429.432584 
L 202.389059 432.249782 
L 207.605611 434.942171 
L 213.048971 437.507327 
L 218.945943 440.037439 
L 225.069722 442.423499 
L 231.647115 444.745857 
L 238.678121 446.98746 
L 246.16274 449.13543 
L 254.100972 451.180643 
L 262.719624 453.16669 
L 272.018696 455.074331 
L 281.998188 456.889585 
L 292.884907 458.637326 
L 304.678852 460.299689 
L 317.60683 461.890734 
L 331.668841 463.393117 
L 347.091693 464.815338 
L 364.328997 466.176667 
L 383.380755 467.454576 
L 404.700578 468.658925 
L 428.742082 469.791154 
L 456.185685 470.855862 
L 487.711807 471.849685 
L 524.000869 472.765755 
L 566.640517 473.613101 
L 617.218397 474.388187 
L 678.002575 475.089827 
L 752.621959 475.720528 
L 846.293099 476.280338 
L 967.181037 476.769434 
L 995.758673 476.859043 
L 995.758673 476.859043 
" clip-path="url(#pa02dfc5457)" style="fill: none; stroke: #e7969c; stroke-width: 2; stroke-linecap: round"/>
   </g>
   <g id="line2d_20">
    <path d="M 88.532127 59.759875 
L 90.573387 91.909234 
L 92.614647 120.484859 
L 94.655906 145.998156 
L 96.697166 168.872124 
L 98.738426 189.459102 
L 101.006492 210.008909 
L 103.274559 228.437783 
L 105.542625 245.028186 
L 107.810691 260.017038 
L 110.078758 273.604255 
L 112.346824 285.959481 
L 114.841697 298.299361 
L 117.33657 309.487192 
L 119.831443 319.662176 
L 122.326316 328.943095 
L 124.821189 337.431802 
L 127.542869 345.891469 
L 130.264548 353.610514 
L 132.986228 360.673001 
L 135.707908 367.151392 
L 138.656394 373.583061 
L 141.60488 379.471663 
L 144.553366 384.876707 
L 147.728659 390.215735 
L 150.903952 395.109425 
L 154.079245 399.605996 
L 157.481345 404.030516 
L 160.883444 408.091815 
L 164.51235 412.067048 
L 168.141257 415.713724 
L 171.996969 419.26767 
L 175.852682 422.527068 
L 179.935202 425.692296 
L 184.244528 428.749533 
L 188.780661 431.688296 
L 193.5436 434.501108 
L 198.533346 437.183139 
L 203.749899 439.731845 
L 209.193258 442.146622 
L 215.09023 444.515215 
L 221.21401 446.736654 
L 227.791402 448.887033 
L 234.822408 450.951352 
L 242.307027 452.918755 
L 250.472066 454.832229 
L 259.317524 456.670755 
L 268.843403 458.419063 
L 279.276508 460.101237 
L 290.61684 461.698448 
L 303.091205 463.224037 
L 316.699603 464.660256 
L 331.895648 466.034184 
L 348.679339 467.323548 
L 367.50429 468.541833 
L 388.597307 469.680623 
L 412.638811 470.751371 
L 440.082414 471.746692 
L 471.835343 472.670984 
L 509.031631 473.525089 
L 553.032119 474.30638 
L 605.878065 475.015457 
L 670.744763 475.654876 
L 751.714732 476.221637 
L 855.818978 476.717881 
L 994.397833 477.144127 
L 995.758673 477.14742 
L 995.758673 477.14742 
" clip-path="url(#pa02dfc5457)" style="fill: none; stroke: #a55194; stroke-width: 2; stroke-linecap: round"/>
   </g>
   <g id="line2d_21">
    <path d="M 88.532127 59.759875 
L 90.34658 91.557588 
L 92.161033 119.857117 
L 94.202293 148.126431 
L 96.243553 173.172354 
L 98.284813 195.467618 
L 100.326072 215.401276 
L 102.367332 233.295884 
L 104.408592 249.420697 
L 106.676658 265.53536 
L 108.944725 280.003554 
L 111.212791 293.042421 
L 113.480857 304.834419 
L 115.748924 315.533772 
L 118.243797 326.196906 
L 120.73867 335.844147 
L 123.233543 344.600683 
L 125.728416 352.572982 
L 128.223289 359.852058 
L 130.944968 367.093811 
L 133.666648 373.690445 
L 136.388328 379.716435 
L 139.110007 385.235801 
L 142.058493 390.707342 
L 145.00698 395.709689 
L 147.955466 400.295032 
L 151.130759 404.818367 
L 154.306052 408.959019 
L 157.708151 413.01838 
L 161.110251 416.731144 
L 164.739157 420.352551 
L 168.368063 423.663353 
L 172.223776 426.879313 
L 176.306296 429.984289 
L 180.388815 432.816102 
L 184.698141 435.543235 
L 189.234274 438.157022 
L 193.997213 440.651561 
L 199.213766 443.125788 
L 204.657125 445.45617 
L 210.327291 447.645608 
L 216.45107 449.772961 
L 223.028463 451.820213 
L 230.059468 453.774072 
L 237.544087 455.625453 
L 245.709126 457.415719 
L 254.554585 459.125931 
L 264.30727 460.778861 
L 274.967182 462.352354 
L 286.534321 463.831395 
L 299.235492 465.230265 
L 313.524311 466.574487 
L 329.400775 467.838463 
L 347.091693 469.020299 
L 367.277483 470.139671 
L 390.184954 471.181058 
L 416.494523 472.148785 
L 447.113419 473.045774 
L 482.948868 473.867108 
L 525.815322 474.61964 
L 577.754042 475.300277 
L 641.713513 475.907509 
L 722.683483 476.444283 
L 828.148568 476.910201 
L 971.036749 477.306283 
L 995.758673 477.357381 
L 995.758673 477.357381 
" clip-path="url(#pa02dfc5457)" style="fill: none; stroke: #de9ed6; stroke-width: 2; stroke-linecap: round"/>
   </g>
   <g id="patch_3">
    <path d="M 88.532127 498.237256 
L 88.532127 38.88 
" style="fill: none; stroke: #262626; stroke-width: 0.8; stroke-linejoin: miter; stroke-linecap: square"/>
   </g>
   <g id="patch_4">
    <path d="M 88.532127 498.237256 
L 1041.12 498.237256 
" style="fill: none; stroke: #262626; stroke-width: 0.8; stroke-linejoin: miter; stroke-linecap: square"/>
   </g>
  </g>
 </g>
 <defs>
  <clipPath id="pa02dfc5457">
   <rect x="88.532127" y="38.88" width="952.587873" height="459.357256"/>
  </clipPath>
 </defs>
</svg>
