<?xml version="1.0" encoding="utf-8" standalone="no"?>
<!DOCTYPE svg PUBLIC "-//W3C//DTD SVG 1.1//EN"
  "http://www.w3.org/Graphics/SVG/1.1/DTD/svg11.dtd">
<svg xmlns:xlink="http://www.w3.org/1999/xlink" width="1080pt" height="576pt" viewBox="0 0 1080 576" xmlns="http://www.w3.org/2000/svg" version="1.1">
 <metadata>
  <rdf:RDF xmlns:dc="http://purl.org/dc/elements/1.1/" xmlns:cc="http://creativecommons.org/ns#" xmlns:rdf="http://www.w3.org/1999/02/22-rdf-syntax-ns#">
   <cc:Work>
    <dc:type rdf:resource="http://purl.org/dc/dcmitype/StillImage"/>
    <dc:date>2024-07-24T00:25:27.909698</dc:date>
    <dc:format>image/svg+xml</dc:format>
    <dc:creator>
     <cc:Agent>
      <dc:title>Matplotlib v3.9.0, https://matplotlib.org/</dc:title>
     </cc:Agent>
    </dc:creator>
   </cc:Work>
  </rdf:RDF>
 </metadata>
 <defs>
  <style type="text/css">*{stroke-linejoin: round; stroke-linecap: butt}</style>
 </defs>
 <g id="figure_1">
  <g id="patch_1">
   <path d="M 0 576 
L 1080 576 
L 1080 0 
L 0 0 
z
" style="fill: #ffffff"/>
  </g>
  <g id="axes_1">
   <g id="patch_2">
    <path d="M 46.383522 535.390936 
L 1060.56 535.390936 
L 1060.56 19.44 
L 46.383522 19.44 
z
" style="fill: #eaeaf2"/>
   </g>
   <g id="matplotlib.axis_1">
    <g id="xtick_1">
     <g id="line2d_1">
      <path d="M 46.383522 535.390936 
L 46.383522 19.44 
" clip-path="url(#p3f7bbc8375)" style="fill: none; stroke: #ffffff; stroke-width: 0.8; stroke-linecap: round"/>
     </g>
     <g id="text_1">
      <!-- $\mathdefault{0}$ -->
      <g style="fill: #262626" transform="translate(42.481529 553.460524) scale(0.16 -0.16)">
       <defs>
        <path id="CMR17-30" d="M 2688 2025 
C 2688 2416 2682 3080 2413 3591 
C 2176 4039 1798 4198 1466 4198 
C 1158 4198 768 4058 525 3597 
C 269 3118 243 2524 243 2025 
C 243 1661 250 1106 448 619 
C 723 -39 1216 -128 1466 -128 
C 1760 -128 2208 -7 2470 600 
C 2662 1042 2688 1559 2688 2025 
z
M 1466 -26 
C 1056 -26 813 325 723 812 
C 653 1188 653 1738 653 2096 
C 653 2588 653 2997 736 3387 
C 858 3929 1216 4096 1466 4096 
C 1728 4096 2067 3923 2189 3400 
C 2272 3036 2278 2607 2278 2096 
C 2278 1680 2278 1169 2202 792 
C 2067 95 1690 -26 1466 -26 
z
" transform="scale(0.015625)"/>
       </defs>
       <use xlink:href="#CMR17-30" transform="scale(0.996264)"/>
      </g>
     </g>
    </g>
    <g id="xtick_2">
     <g id="line2d_2">
      <path d="M 167.118817 535.390936 
L 167.118817 19.44 
" clip-path="url(#p3f7bbc8375)" style="fill: none; stroke: #ffffff; stroke-width: 0.8; stroke-linecap: round"/>
     </g>
     <g id="text_2">
      <!-- $\mathdefault{250}$ -->
      <g style="fill: #262626" transform="translate(155.412837 553.460524) scale(0.16 -0.16)">
       <defs>
        <path id="CMR17-32" d="M 2669 989 
L 2554 989 
C 2490 536 2438 459 2413 420 
C 2381 369 1920 369 1830 369 
L 602 369 
C 832 619 1280 1072 1824 1597 
C 2214 1967 2669 2402 2669 3035 
C 2669 3790 2067 4224 1395 4224 
C 691 4224 262 3604 262 3030 
C 262 2780 448 2748 525 2748 
C 589 2748 781 2787 781 3010 
C 781 3207 614 3264 525 3264 
C 486 3264 448 3258 422 3245 
C 544 3790 915 4058 1306 4058 
C 1862 4058 2227 3617 2227 3035 
C 2227 2479 1901 2000 1536 1584 
L 262 146 
L 262 0 
L 2515 0 
L 2669 989 
z
" transform="scale(0.015625)"/>
        <path id="CMR17-35" d="M 730 3692 
C 794 3666 1056 3584 1325 3584 
C 1920 3584 2246 3911 2432 4100 
C 2432 4157 2432 4192 2394 4192 
C 2387 4192 2374 4192 2323 4163 
C 2099 4058 1837 3973 1517 3973 
C 1325 3973 1037 3999 723 4139 
C 653 4171 640 4171 634 4171 
C 602 4171 595 4164 595 4037 
L 595 2203 
C 595 2089 595 2057 659 2057 
C 691 2057 704 2070 736 2114 
C 941 2401 1222 2522 1542 2522 
C 1766 2522 2246 2382 2246 1289 
C 2246 1085 2246 715 2054 421 
C 1894 159 1645 25 1370 25 
C 947 25 518 320 403 814 
C 429 807 480 795 506 795 
C 589 795 749 840 749 1038 
C 749 1210 627 1280 506 1280 
C 358 1280 262 1190 262 1011 
C 262 454 704 -128 1382 -128 
C 2042 -128 2669 440 2669 1264 
C 2669 2030 2170 2624 1549 2624 
C 1222 2624 947 2503 730 2274 
L 730 3692 
z
" transform="scale(0.015625)"/>
       </defs>
       <use xlink:href="#CMR17-32" transform="scale(0.996264)"/>
       <use xlink:href="#CMR17-35" transform="translate(45.690477 0) scale(0.996264)"/>
       <use xlink:href="#CMR17-30" transform="translate(91.380954 0) scale(0.996264)"/>
      </g>
     </g>
    </g>
    <g id="xtick_3">
     <g id="line2d_3">
      <path d="M 287.854112 535.390936 
L 287.854112 19.44 
" clip-path="url(#p3f7bbc8375)" style="fill: none; stroke: #ffffff; stroke-width: 0.8; stroke-linecap: round"/>
     </g>
     <g id="text_3">
      <!-- $\mathdefault{500}$ -->
      <g style="fill: #262626" transform="translate(276.148132 553.460524) scale(0.16 -0.16)">
       <use xlink:href="#CMR17-35" transform="scale(0.996264)"/>
       <use xlink:href="#CMR17-30" transform="translate(45.690477 0) scale(0.996264)"/>
       <use xlink:href="#CMR17-30" transform="translate(91.380954 0) scale(0.996264)"/>
      </g>
     </g>
    </g>
    <g id="xtick_4">
     <g id="line2d_4">
      <path d="M 408.589407 535.390936 
L 408.589407 19.44 
" clip-path="url(#p3f7bbc8375)" style="fill: none; stroke: #ffffff; stroke-width: 0.8; stroke-linecap: round"/>
     </g>
     <g id="text_4">
      <!-- $\mathdefault{750}$ -->
      <g style="fill: #262626" transform="translate(396.883427 553.460524) scale(0.16 -0.16)">
       <defs>
        <path id="CMR17-37" d="M 2886 3941 
L 2886 4081 
L 1382 4081 
C 634 4081 621 4165 595 4288 
L 480 4288 
L 294 3094 
L 410 3094 
C 429 3215 474 3540 550 3661 
C 589 3712 1062 3712 1171 3712 
L 2579 3712 
L 1869 2661 
C 1395 1954 1069 999 1069 165 
C 1069 89 1069 -128 1299 -128 
C 1530 -128 1530 89 1530 171 
L 1530 465 
C 1530 1508 1709 2196 2003 2636 
L 2886 3941 
z
" transform="scale(0.015625)"/>
       </defs>
       <use xlink:href="#CMR17-37" transform="scale(0.996264)"/>
       <use xlink:href="#CMR17-35" transform="translate(45.690477 0) scale(0.996264)"/>
       <use xlink:href="#CMR17-30" transform="translate(91.380954 0) scale(0.996264)"/>
      </g>
     </g>
    </g>
    <g id="xtick_5">
     <g id="line2d_5">
      <path d="M 529.324702 535.390936 
L 529.324702 19.44 
" clip-path="url(#p3f7bbc8375)" style="fill: none; stroke: #ffffff; stroke-width: 0.8; stroke-linecap: round"/>
     </g>
     <g id="text_5">
      <!-- $\mathdefault{1000}$ -->
      <g style="fill: #262626" transform="translate(513.716728 553.460524) scale(0.16 -0.16)">
       <defs>
        <path id="CMR17-31" d="M 1702 4058 
C 1702 4192 1696 4192 1606 4192 
C 1357 3916 979 3827 621 3827 
C 602 3827 570 3827 563 3808 
C 557 3795 557 3782 557 3648 
C 755 3648 1088 3686 1344 3839 
L 1344 461 
C 1344 236 1331 160 781 160 
L 589 160 
L 589 0 
C 896 0 1216 0 1523 0 
C 1830 0 2150 0 2458 0 
L 2458 160 
L 2266 160 
C 1715 160 1702 230 1702 458 
L 1702 4058 
z
" transform="scale(0.015625)"/>
       </defs>
       <use xlink:href="#CMR17-31" transform="scale(0.996264)"/>
       <use xlink:href="#CMR17-30" transform="translate(45.690477 0) scale(0.996264)"/>
       <use xlink:href="#CMR17-30" transform="translate(91.380954 0) scale(0.996264)"/>
       <use xlink:href="#CMR17-30" transform="translate(137.071431 0) scale(0.996264)"/>
      </g>
     </g>
    </g>
    <g id="xtick_6">
     <g id="line2d_6">
      <path d="M 650.059997 535.390936 
L 650.059997 19.44 
" clip-path="url(#p3f7bbc8375)" style="fill: none; stroke: #ffffff; stroke-width: 0.8; stroke-linecap: round"/>
     </g>
     <g id="text_6">
      <!-- $\mathdefault{1250}$ -->
      <g style="fill: #262626" transform="translate(634.452023 553.460524) scale(0.16 -0.16)">
       <use xlink:href="#CMR17-31" transform="scale(0.996264)"/>
       <use xlink:href="#CMR17-32" transform="translate(45.690477 0) scale(0.996264)"/>
       <use xlink:href="#CMR17-35" transform="translate(91.380954 0) scale(0.996264)"/>
       <use xlink:href="#CMR17-30" transform="translate(137.071431 0) scale(0.996264)"/>
      </g>
     </g>
    </g>
    <g id="xtick_7">
     <g id="line2d_7">
      <path d="M 770.795292 535.390936 
L 770.795292 19.44 
" clip-path="url(#p3f7bbc8375)" style="fill: none; stroke: #ffffff; stroke-width: 0.8; stroke-linecap: round"/>
     </g>
     <g id="text_7">
      <!-- $\mathdefault{1500}$ -->
      <g style="fill: #262626" transform="translate(755.187318 553.460524) scale(0.16 -0.16)">
       <use xlink:href="#CMR17-31" transform="scale(0.996264)"/>
       <use xlink:href="#CMR17-35" transform="translate(45.690477 0) scale(0.996264)"/>
       <use xlink:href="#CMR17-30" transform="translate(91.380954 0) scale(0.996264)"/>
       <use xlink:href="#CMR17-30" transform="translate(137.071431 0) scale(0.996264)"/>
      </g>
     </g>
    </g>
    <g id="xtick_8">
     <g id="line2d_8">
      <path d="M 891.530587 535.390936 
L 891.530587 19.44 
" clip-path="url(#p3f7bbc8375)" style="fill: none; stroke: #ffffff; stroke-width: 0.8; stroke-linecap: round"/>
     </g>
     <g id="text_8">
      <!-- $\mathdefault{1750}$ -->
      <g style="fill: #262626" transform="translate(875.922613 553.460524) scale(0.16 -0.16)">
       <use xlink:href="#CMR17-31" transform="scale(0.996264)"/>
       <use xlink:href="#CMR17-37" transform="translate(45.690477 0) scale(0.996264)"/>
       <use xlink:href="#CMR17-35" transform="translate(91.380954 0) scale(0.996264)"/>
       <use xlink:href="#CMR17-30" transform="translate(137.071431 0) scale(0.996264)"/>
      </g>
     </g>
    </g>
    <g id="xtick_9">
     <g id="line2d_9">
      <path d="M 1012.265882 535.390936 
L 1012.265882 19.44 
" clip-path="url(#p3f7bbc8375)" style="fill: none; stroke: #ffffff; stroke-width: 0.8; stroke-linecap: round"/>
     </g>
     <g id="text_9">
      <!-- $\mathdefault{2000}$ -->
      <g style="fill: #262626" transform="translate(996.657908 553.460524) scale(0.16 -0.16)">
       <use xlink:href="#CMR17-32" transform="scale(0.996264)"/>
       <use xlink:href="#CMR17-30" transform="translate(45.690477 0) scale(0.996264)"/>
       <use xlink:href="#CMR17-30" transform="translate(91.380954 0) scale(0.996264)"/>
       <use xlink:href="#CMR17-30" transform="translate(137.071431 0) scale(0.996264)"/>
      </g>
     </g>
    </g>
   </g>
   <g id="matplotlib.axis_2">
    <g id="ytick_1">
     <g id="line2d_10">
      <path d="M 46.383522 512.787566 
L 1060.56 512.787566 
" clip-path="url(#p3f7bbc8375)" style="fill: none; stroke: #ffffff; stroke-width: 0.8; stroke-linecap: round"/>
     </g>
     <g id="text_10">
      <!-- $\mathdefault{0.0}$ -->
      <g style="fill: #262626" transform="translate(19.44 518.32236) scale(0.16 -0.16)">
       <defs>
        <path id="CMMI12-3a" d="M 1178 307 
C 1178 492 1024 619 870 619 
C 685 619 557 466 557 313 
C 557 128 710 0 864 0 
C 1050 0 1178 153 1178 307 
z
" transform="scale(0.015625)"/>
       </defs>
       <use xlink:href="#CMR17-30" transform="scale(0.996264)"/>
       <use xlink:href="#CMMI12-3a" transform="translate(45.690477 0) scale(0.996264)"/>
       <use xlink:href="#CMR17-30" transform="translate(72.787654 0) scale(0.996264)"/>
      </g>
     </g>
    </g>
    <g id="ytick_2">
     <g id="line2d_11">
      <path d="M 46.383522 418.808516 
L 1060.56 418.808516 
" clip-path="url(#p3f7bbc8375)" style="fill: none; stroke: #ffffff; stroke-width: 0.8; stroke-linecap: round"/>
     </g>
     <g id="text_11">
      <!-- $\mathdefault{0.2}$ -->
      <g style="fill: #262626" transform="translate(19.44 424.34331) scale(0.16 -0.16)">
       <use xlink:href="#CMR17-30" transform="scale(0.996264)"/>
       <use xlink:href="#CMMI12-3a" transform="translate(45.690477 0) scale(0.996264)"/>
       <use xlink:href="#CMR17-32" transform="translate(72.787654 0) scale(0.996264)"/>
      </g>
     </g>
    </g>
    <g id="ytick_3">
     <g id="line2d_12">
      <path d="M 46.383522 324.829466 
L 1060.56 324.829466 
" clip-path="url(#p3f7bbc8375)" style="fill: none; stroke: #ffffff; stroke-width: 0.8; stroke-linecap: round"/>
     </g>
     <g id="text_12">
      <!-- $\mathdefault{0.4}$ -->
      <g style="fill: #262626" transform="translate(19.44 330.36426) scale(0.16 -0.16)">
       <defs>
        <path id="CMR17-34" d="M 2150 4122 
C 2150 4256 2144 4256 2029 4256 
L 128 1254 
L 128 1088 
L 1779 1088 
L 1779 457 
C 1779 224 1766 160 1318 160 
L 1197 160 
L 1197 0 
C 1402 0 1747 0 1965 0 
C 2182 0 2528 0 2733 0 
L 2733 160 
L 2611 160 
C 2163 160 2150 224 2150 457 
L 2150 1088 
L 2803 1088 
L 2803 1254 
L 2150 1254 
L 2150 4122 
z
M 1798 3703 
L 1798 1254 
L 256 1254 
L 1798 3703 
z
" transform="scale(0.015625)"/>
       </defs>
       <use xlink:href="#CMR17-30" transform="scale(0.996264)"/>
       <use xlink:href="#CMMI12-3a" transform="translate(45.690477 0) scale(0.996264)"/>
       <use xlink:href="#CMR17-34" transform="translate(72.787654 0) scale(0.996264)"/>
      </g>
     </g>
    </g>
    <g id="ytick_4">
     <g id="line2d_13">
      <path d="M 46.383522 230.850415 
L 1060.56 230.850415 
" clip-path="url(#p3f7bbc8375)" style="fill: none; stroke: #ffffff; stroke-width: 0.8; stroke-linecap: round"/>
     </g>
     <g id="text_13">
      <!-- $\mathdefault{0.6}$ -->
      <g style="fill: #262626" transform="translate(19.44 236.38521) scale(0.16 -0.16)">
       <defs>
        <path id="CMR17-36" d="M 678 2176 
C 678 3690 1395 4032 1811 4032 
C 1946 4032 2272 4009 2400 3776 
C 2298 3776 2106 3776 2106 3553 
C 2106 3381 2246 3323 2336 3323 
C 2394 3323 2566 3348 2566 3560 
C 2566 3954 2246 4179 1805 4179 
C 1043 4179 243 3390 243 1984 
C 243 253 966 -128 1478 -128 
C 2099 -128 2688 427 2688 1283 
C 2688 2081 2170 2662 1517 2662 
C 1126 2662 838 2407 678 1960 
L 678 2176 
z
M 1478 25 
C 691 25 691 1200 691 1436 
C 691 1896 909 2560 1504 2560 
C 1613 2560 1926 2560 2138 2120 
C 2253 1870 2253 1609 2253 1289 
C 2253 944 2253 690 2118 434 
C 1978 171 1773 25 1478 25 
z
" transform="scale(0.015625)"/>
       </defs>
       <use xlink:href="#CMR17-30" transform="scale(0.996264)"/>
       <use xlink:href="#CMMI12-3a" transform="translate(45.690477 0) scale(0.996264)"/>
       <use xlink:href="#CMR17-36" transform="translate(72.787654 0) scale(0.996264)"/>
      </g>
     </g>
    </g>
    <g id="ytick_5">
     <g id="line2d_14">
      <path d="M 46.383522 136.871365 
L 1060.56 136.871365 
" clip-path="url(#p3f7bbc8375)" style="fill: none; stroke: #ffffff; stroke-width: 0.8; stroke-linecap: round"/>
     </g>
     <g id="text_14">
      <!-- $\mathdefault{0.8}$ -->
      <g style="fill: #262626" transform="translate(19.44 142.40616) scale(0.16 -0.16)">
       <defs>
        <path id="CMR17-38" d="M 1741 2264 
C 2144 2467 2554 2773 2554 3263 
C 2554 3841 1990 4179 1472 4179 
C 890 4179 378 3759 378 3180 
C 378 3021 416 2747 666 2505 
C 730 2442 998 2251 1171 2130 
C 883 1983 211 1634 211 934 
C 211 279 838 -128 1459 -128 
C 2144 -128 2720 362 2720 1010 
C 2720 1590 2330 1857 2074 2029 
L 1741 2264 
z
M 902 2822 
C 851 2854 595 3051 595 3351 
C 595 3739 998 4032 1459 4032 
C 1965 4032 2336 3676 2336 3262 
C 2336 2669 1670 2331 1638 2331 
C 1632 2331 1626 2331 1574 2370 
L 902 2822 
z
M 2080 1519 
C 2176 1449 2483 1240 2483 851 
C 2483 381 2010 25 1472 25 
C 890 25 448 438 448 940 
C 448 1443 838 1862 1280 2060 
L 2080 1519 
z
" transform="scale(0.015625)"/>
       </defs>
       <use xlink:href="#CMR17-30" transform="scale(0.996264)"/>
       <use xlink:href="#CMMI12-3a" transform="translate(45.690477 0) scale(0.996264)"/>
       <use xlink:href="#CMR17-38" transform="translate(72.787654 0) scale(0.996264)"/>
      </g>
     </g>
    </g>
    <g id="ytick_6">
     <g id="line2d_15">
      <path d="M 46.383522 42.892315 
L 1060.56 42.892315 
" clip-path="url(#p3f7bbc8375)" style="fill: none; stroke: #ffffff; stroke-width: 0.8; stroke-linecap: round"/>
     </g>
     <g id="text_15">
      <!-- $\mathdefault{1.0}$ -->
      <g style="fill: #262626" transform="translate(19.44 48.427109) scale(0.16 -0.16)">
       <use xlink:href="#CMR17-31" transform="scale(0.996264)"/>
       <use xlink:href="#CMMI12-3a" transform="translate(45.690477 0) scale(0.996264)"/>
       <use xlink:href="#CMR17-30" transform="translate(72.787654 0) scale(0.996264)"/>
      </g>
     </g>
    </g>
   </g>
   <g id="line2d_16">
    <path d="M 46.383522 42.892315 
L 51.937346 56.128054 
L 57.491169 68.81218 
L 63.286464 81.492362 
L 69.081758 93.636818 
L 74.877052 105.275313 
L 80.913817 116.890594 
L 86.950581 128.016123 
L 92.987346 138.679055 
L 99.024111 148.904693 
L 105.302346 159.100817 
L 111.580582 168.874211 
L 117.858817 178.247928 
L 124.378523 187.582179 
L 130.898229 196.531052 
L 137.659405 205.426677 
L 144.420582 213.952102 
L 151.181758 222.12759 
L 158.184405 230.246297 
L 165.187053 238.02946 
L 172.43117 245.747313 
L 179.675288 253.144416 
L 187.160876 260.469735 
L 194.646465 267.489301 
L 202.373523 274.432382 
L 210.342053 281.288116 
L 218.310582 287.852203 
L 226.520582 294.32739 
L 234.972053 300.705217 
L 243.423524 306.807717 
L 252.116465 312.813781 
L 261.050877 318.716971 
L 270.226759 324.511674 
L 279.644112 330.193064 
L 289.302936 335.757053 
L 299.20323 341.200258 
L 309.344995 346.519945 
L 319.72823 351.713993 
L 330.352936 356.780847 
L 341.219113 361.71947 
L 352.56823 366.631306 
L 364.158819 371.404425 
L 376.232348 376.131969 
L 388.547348 380.713873 
L 401.34529 385.235491 
L 414.384701 389.607696 
L 427.907054 393.908554 
L 441.912349 398.129791 
L 456.400584 402.264276 
L 471.371761 406.305957 
L 487.067349 410.309674 
L 503.245878 414.204756 
L 520.14882 418.041694 
L 537.534702 421.759166 
L 555.644996 425.403577 
L 574.479702 428.966371 
L 594.03882 432.440392 
L 614.56382 435.858734 
L 636.054703 439.209301 
L 658.511468 442.481842 
L 681.934115 445.667849 
L 706.322645 448.760449 
L 731.918527 451.78177 
L 758.963233 454.747492 
L 787.215292 457.62044 
L 816.916175 460.416633 
L 848.307351 463.147001 
L 881.388822 465.799585 
L 916.402058 468.381943 
L 953.347058 470.882563 
L 992.706764 473.321137 
L 1012.265882 474.454513 
L 1012.265882 474.454513 
" clip-path="url(#p3f7bbc8375)" style="fill: none; stroke: #393b79; stroke-width: 2; stroke-linecap: round"/>
   </g>
   <g id="line2d_17">
    <path d="M 46.383522 42.892315 
L 50.247052 61.171888 
L 54.110581 78.404587 
L 57.974111 94.668884 
L 62.079111 110.968203 
L 66.184111 126.332179 
L 70.289111 140.83106 
L 74.394111 154.528621 
L 78.499111 167.482864 
L 82.845581 180.447583 
L 87.192052 192.695265 
L 91.538523 204.277846 
L 95.884993 215.242643 
L 100.231464 225.632837 
L 104.819405 236.020454 
L 109.407346 245.854201 
L 113.995288 255.172777 
L 118.583229 264.011562 
L 123.412641 272.832779 
L 128.242052 281.192805 
L 133.071464 289.123248 
L 138.142347 297.019512 
L 143.213229 304.504718 
L 148.284111 311.606919 
L 153.596464 318.664497 
L 158.908817 325.356968 
L 164.462641 331.990117 
L 170.016464 338.27715 
L 175.811759 344.494099 
L 181.607053 350.384536 
L 187.643817 356.197415 
L 193.680582 361.703595 
L 199.958818 367.127452 
L 206.237053 372.2643 
L 212.756759 377.316258 
L 219.517935 382.272816 
L 226.520582 387.124938 
L 233.7647 391.864993 
L 241.008818 396.341746 
L 248.494406 400.711436 
L 256.221465 404.968979 
L 264.189994 409.110345 
L 272.641465 413.247205 
L 281.334406 417.249131 
L 290.268818 421.115812 
L 299.444701 424.847618 
L 309.103524 428.534852 
L 319.003818 432.078649 
L 329.387054 435.560317 
L 340.25323 438.968028 
L 351.602348 442.291837 
L 363.434407 445.523577 
L 375.749407 448.656735 
L 388.788819 451.741396 
L 402.311172 454.710982 
L 416.557937 457.611167 
L 431.529113 460.430776 
L 447.224702 463.160863 
L 463.886172 465.831687 
L 481.513525 468.429209 
L 500.106761 470.942196 
L 519.907349 473.390555 
L 540.91529 475.760458 
L 563.130585 478.041215 
L 586.794703 480.246417 
L 612.149115 482.383987 
L 639.435291 484.457327 
L 668.653233 486.450768 
L 700.044409 488.366752 
L 733.850292 490.205314 
L 770.553822 491.97585 
L 810.396469 493.671987 
L 853.861175 495.296182 
L 901.430881 496.847371 
L 953.588529 498.322336 
L 1011.3 499.727783 
L 1012.265882 499.749535 
L 1012.265882 499.749535 
" clip-path="url(#p3f7bbc8375)" style="fill: none; stroke: #6b6ecf; stroke-width: 2; stroke-linecap: round"/>
   </g>
   <g id="line2d_18">
    <path d="M 46.383522 42.892315 
L 49.52264 65.04802 
L 52.661758 85.6716 
L 55.800875 104.901219 
L 59.181464 124.191813 
L 62.562052 142.144518 
L 65.94264 158.880321 
L 69.323228 174.506831 
L 72.703817 189.120015 
L 76.084405 202.805674 
L 79.706464 216.526828 
L 83.328523 229.356082 
L 86.950581 241.369134 
L 90.57264 252.633813 
L 94.194699 263.211043 
L 98.058229 273.797395 
L 101.921758 283.723778 
L 105.785287 293.043955 
L 109.648817 301.806325 
L 113.753817 310.553911 
L 117.858817 318.768224 
L 121.963817 326.491763 
L 126.068817 333.762877 
L 130.415288 341.007051 
L 134.761758 347.820029 
L 139.108229 354.235379 
L 143.69617 360.609265 
L 148.284111 366.606195 
L 153.113523 372.543531 
L 157.942935 378.126179 
L 163.013817 383.636508 
L 168.0847 388.815252 
L 173.397053 393.913351 
L 178.709406 398.703187 
L 184.263229 403.407563 
L 189.817053 407.826722 
L 195.612347 412.158354 
L 201.649112 416.391311 
L 207.927347 420.516301 
L 214.447053 424.525768 
L 221.208229 428.413762 
L 228.210877 432.175805 
L 235.454994 435.80875 
L 242.940583 439.310641 
L 250.667641 442.680585 
L 258.877641 446.013211 
L 267.329112 449.201554 
L 276.263524 452.329942 
L 285.439406 455.308477 
L 295.09823 458.212033 
L 305.239995 461.030139 
L 316.106171 463.813927 
L 327.455289 466.488246 
L 339.528819 469.099665 
L 352.085289 471.587888 
L 365.607642 474.036981 
L 379.854407 476.38829 
L 395.067054 478.670278 
L 411.245584 480.869398 
L 428.631466 483.003699 
L 447.224702 485.057651 
L 467.02529 487.019783 
L 488.516172 488.922653 
L 511.697349 490.748137 
L 536.81029 492.499011 
L 564.096467 494.174929 
L 593.79735 495.773546 
L 626.395879 497.302032 
L 662.133527 498.752461 
L 701.734703 500.133807 
L 745.682351 501.440811 
L 794.942351 502.678766 
L 850.239116 503.841527 
L 913.02147 504.934023 
L 984.738235 505.953782 
L 1012.265882 506.293034 
L 1012.265882 506.293034 
" clip-path="url(#p3f7bbc8375)" style="fill: none; stroke: #8ca252; stroke-width: 2; stroke-linecap: round"/>
   </g>
   <g id="line2d_19">
    <path d="M 46.383522 42.892315 
L 49.039699 67.796858 
L 51.695875 90.770524 
L 54.593522 113.8587 
L 57.491169 135.100766 
L 60.388817 154.688567 
L 63.286464 172.789645 
L 66.184111 189.550844 
L 69.081758 205.101309 
L 72.220875 220.713191 
L 75.359993 235.165257 
L 78.499111 248.569683 
L 81.638228 261.025399 
L 84.777346 272.619921 
L 88.157934 284.232088 
L 91.538523 295.021327 
L 94.919111 305.063642 
L 98.299699 314.426459 
L 101.680287 323.169761 
L 105.302346 331.910781 
L 108.924405 340.060597 
L 112.546464 347.671375 
L 116.168523 354.789648 
L 120.032052 361.886431 
L 123.895582 368.515275 
L 127.759111 374.716454 
L 131.864111 380.876845 
L 135.969111 386.633706 
L 140.074111 392.021543 
L 144.420582 397.358367 
L 148.767052 402.348887 
L 153.354994 407.273333 
L 157.942935 411.875426 
L 162.772347 416.401721 
L 167.601758 420.630018 
L 172.672641 424.776988 
L 177.984994 428.828092 
L 183.297347 432.605657 
L 188.85117 436.288577 
L 194.646465 439.867395 
L 200.683229 443.334605 
L 206.961465 446.684488 
L 213.481171 449.912938 
L 220.242347 453.017296 
L 227.486465 456.094892 
L 234.972053 459.031814 
L 242.940583 461.914219 
L 251.150583 464.647997 
L 259.843524 467.309098 
L 269.019406 469.885492 
L 278.67823 472.367862 
L 289.061465 474.803469 
L 299.927642 477.123871 
L 311.51823 479.3721 
L 323.83323 481.535551 
L 337.114113 483.641302 
L 351.360877 485.671986 
L 366.573525 487.61459 
L 382.993525 489.486001 
L 400.862348 491.294852 
L 420.179996 493.023183 
L 441.187937 494.676264 
L 464.127643 496.25509 
L 489.240584 497.757854 
L 517.009702 499.192783 
L 547.676467 500.550995 
L 581.965291 501.841802 
L 620.359115 503.058761 
L 663.58235 504.200793 
L 712.60088 505.268414 
L 768.863527 506.265462 
L 833.819116 507.188273 
L 909.882352 508.039953 
L 999.950882 508.819061 
L 1012.265882 508.910482 
L 1012.265882 508.910482 
" clip-path="url(#p3f7bbc8375)" style="fill: none; stroke: #cedb9c; stroke-width: 2; stroke-linecap: round"/>
   </g>
   <g id="line2d_20">
    <path d="M 46.383522 42.892315 
L 48.798228 71.063722 
L 51.212934 96.772183 
L 53.62764 120.296934 
L 56.283817 143.938289 
L 58.939993 165.503575 
L 61.59617 185.229159 
L 64.252346 203.318681 
L 66.908522 219.948344 
L 69.564699 235.271238 
L 72.462346 250.653199 
L 75.359993 264.789509 
L 78.25764 277.811227 
L 81.155287 289.832606 
L 84.052934 300.95362 
L 87.192052 312.0869 
L 90.33117 322.364198 
L 93.470287 331.871124 
L 96.609405 340.682844 
L 99.748523 348.865568 
L 103.129111 357.041258 
L 106.509699 364.61971 
L 109.890287 371.657744 
L 113.270876 378.205577 
L 116.892935 384.727609 
L 120.514993 390.786427 
L 124.137052 396.424902 
L 128.000582 402.018725 
L 131.864111 407.218392 
L 135.727641 412.060102 
L 139.832641 416.848084 
L 143.937641 421.302399 
L 148.284111 425.688678 
L 152.630582 429.76671 
L 157.218523 433.768038 
L 162.047935 437.675141 
L 166.877347 441.299305 
L 171.948229 444.829321 
L 177.260582 448.254037 
L 182.814406 451.5647 
L 188.6097 454.754742 
L 194.646465 457.819555 
L 200.9247 460.756275 
L 207.444406 463.563552 
L 214.447053 466.332903 
L 221.691171 468.958755 
L 229.418229 471.521506 
L 237.62823 474.005625 
L 246.321171 476.398992 
L 255.497053 478.692604 
L 265.397347 480.932204 
L 275.780583 483.051925 
L 286.88823 485.093465 
L 298.961759 487.082814 
L 312.001171 488.999711 
L 326.006465 490.829123 
L 341.219113 492.586928 
L 357.639113 494.257389 
L 375.507936 495.850188 
L 395.067054 497.369083 
L 416.799407 498.828844 
L 440.704996 500.207336 
L 467.266761 501.512361 
L 496.967643 502.744776 
L 530.290585 503.901364 
L 568.201467 504.989786 
L 611.424703 506.003351 
L 661.409115 506.947088 
L 719.603527 507.817236 
L 788.422645 508.616702 
L 870.764116 509.343317 
L 970.974411 509.997535 
L 1012.265882 510.213924 
L 1012.265882 510.213924 
" clip-path="url(#p3f7bbc8375)" style="fill: none; stroke: #e7ba52; stroke-width: 2; stroke-linecap: round"/>
   </g>
   <g id="line2d_21">
    <path d="M 46.383522 42.892315 
L 48.556758 73.233913 
L 50.729993 100.724147 
L 53.144699 128.344691 
L 55.559405 153.274272 
L 57.974111 175.8518 
L 60.388817 196.364422 
L 62.803522 215.05673 
L 65.218228 232.138116 
L 67.874405 249.281229 
L 70.530581 264.898292 
L 73.186758 279.165363 
L 75.842934 292.23381 
L 78.499111 304.234348 
L 81.155287 315.280337 
L 84.052934 326.357481 
L 86.950581 336.527223 
L 89.848229 345.886107 
L 92.745876 354.518163 
L 95.643523 362.496806 
L 98.78264 370.47744 
L 101.921758 377.838284 
L 105.060876 384.641937 
L 108.199993 390.943285 
L 111.580582 397.222862 
L 114.96117 403.028798 
L 118.341758 408.407584 
L 121.963817 413.742954 
L 125.585876 418.679145 
L 129.207935 423.255028 
L 133.071464 427.777347 
L 136.934994 431.96524 
L 141.039994 436.084388 
L 145.144994 439.89626 
L 149.491464 443.630535 
L 154.079405 447.269103 
L 158.667347 450.62771 
L 163.496758 453.891381 
L 168.567641 457.048988 
L 173.879994 460.092008 
L 179.433817 463.014265 
L 185.229112 465.811674 
L 191.265876 468.481973 
L 197.785582 471.117847 
L 204.546759 473.610311 
L 211.790876 476.040421 
L 219.517935 478.391371 
L 227.727935 480.65025 
L 236.420877 482.807682 
L 245.596759 484.857413 
L 255.497053 486.841723 
L 266.121759 488.744754 
L 277.712347 490.591379 
L 290.268818 492.361587 
L 303.791171 494.041067 
L 318.520877 495.64513 
L 334.699407 497.180643 
L 352.56823 498.648435 
L 372.368819 500.045396 
L 394.342642 501.366309 
L 418.731172 502.605384 
L 446.258819 503.776205 
L 477.408525 504.872987 
L 512.904702 505.895199 
L 553.954702 506.848364 
L 601.524409 507.724806 
L 657.787056 508.532162 
L 724.91588 509.265957 
L 806.532939 509.92821 
L 907.950587 510.519912 
L 1012.265882 510.955615 
L 1012.265882 510.955615 
" clip-path="url(#p3f7bbc8375)" style="fill: none; stroke: #843c39; stroke-width: 2; stroke-linecap: round"/>
   </g>
   <g id="line2d_22">
    <path d="M 46.383522 42.892315 
L 48.556758 78.034365 
L 50.729993 109.369456 
L 52.903228 137.428967 
L 55.076464 162.654608 
L 57.249699 185.415995 
L 59.422934 206.024336 
L 61.83764 226.71649 
L 64.252346 245.380353 
L 66.667052 262.272893 
L 69.081758 277.6116 
L 71.496464 291.581555 
L 73.91117 304.341059 
L 76.567346 317.140237 
L 79.223523 328.794275 
L 81.879699 339.435939 
L 84.535876 349.179284 
L 87.192052 358.122731 
L 90.089699 367.066862 
L 92.987346 375.256151 
L 95.884993 382.773276 
L 98.78264 389.68989 
L 101.680287 396.068343 
L 104.819405 402.434025 
L 107.958523 408.292302 
L 111.09764 413.695739 
L 114.478229 419.058707 
L 117.858817 423.997413 
L 121.239405 428.555482 
L 124.861464 433.059993 
L 128.483523 437.212305 
L 132.347052 441.293493 
L 136.210582 445.05255 
L 140.315582 448.730481 
L 144.420582 452.116568 
L 148.767052 455.41712 
L 153.354994 458.616962 
L 158.184405 461.704214 
L 163.255288 464.670003 
L 168.567641 467.508142 
L 174.121464 470.214806 
L 179.916759 472.7882 
L 185.953523 475.228253 
L 192.473229 477.620806 
L 199.475876 479.944448 
L 206.719994 482.11386 
L 214.447053 484.199114 
L 222.898524 486.245268 
L 231.832935 488.178264 
L 241.491759 490.039593 
L 251.874994 491.814341 
L 263.224112 493.526534 
L 275.539112 495.157514 
L 289.061465 496.720635 
L 303.791171 498.197912 
L 320.211171 499.616626 
L 338.321466 500.953959 
L 358.604995 502.223409 
L 381.303231 503.415972 
L 406.899113 504.533558 
L 436.117054 505.58116 
L 469.681466 506.555905 
L 508.558231 507.456525 
L 554.196173 508.285121 
L 608.527056 509.042173 
L 674.207056 509.727359 
L 755.099704 510.34072 
L 857.241763 510.883487 
L 990.050588 511.355869 
L 1012.265882 511.417448 
L 1012.265882 511.417448 
" clip-path="url(#p3f7bbc8375)" style="fill: none; stroke: #e7969c; stroke-width: 2; stroke-linecap: round"/>
   </g>
   <g id="line2d_23">
    <path d="M 46.383522 42.892315 
L 48.315287 78.591252 
L 50.247052 110.362816 
L 52.178816 138.763515 
L 54.110581 164.254556 
L 56.283817 189.930735 
L 58.457052 212.865553 
L 60.630287 233.436313 
L 62.803522 251.957508 
L 64.976758 268.692971 
L 67.149993 283.86537 
L 69.564699 299.119255 
L 71.979405 312.895527 
L 74.394111 325.37925 
L 76.808817 336.727372 
L 79.223523 347.073704 
L 81.879699 357.43395 
L 84.535876 366.85091 
L 87.192052 375.435821 
L 89.848229 383.283982 
L 92.504405 390.477421 
L 95.402052 397.661169 
L 98.299699 404.22942 
L 101.197346 410.250587 
L 104.094993 415.78383 
L 107.234111 421.286981 
L 110.373229 426.334312 
L 113.512346 430.974845 
L 116.892935 435.566141 
L 120.273523 439.781165 
L 123.895582 443.925104 
L 127.517641 447.725676 
L 131.38117 451.442677 
L 135.244699 454.849756 
L 139.349699 458.167632 
L 143.454699 461.20824 
L 147.80117 464.158846 
L 152.389111 467.006711 
L 157.218523 469.742243 
L 162.289405 472.358666 
L 167.601758 474.851687 
L 173.397053 477.317003 
L 179.433817 479.637837 
L 185.953523 481.897317 
L 192.7147 484.004793 
L 199.958818 486.031991 
L 207.927347 488.023946 
L 216.378818 489.902856 
L 225.5547 491.710437 
L 235.454994 493.430507 
L 246.321171 495.086637 
L 258.15323 496.659245 
L 271.192642 498.161199 
L 285.439406 499.574267 
L 301.376465 500.925162 
L 319.003818 502.191332 
L 338.804407 503.385998 
L 361.261172 504.511668 
L 386.615584 505.555568 
L 415.833525 506.530916 
L 449.639408 507.431839 
L 489.482055 508.264373 
L 536.81029 509.023547 
L 594.03882 509.711166 
L 664.548233 510.327183 
L 753.40941 510.871629 
L 868.832352 511.345571 
L 1012.265882 511.72436 
L 1012.265882 511.72436 
" clip-path="url(#p3f7bbc8375)" style="fill: none; stroke: #a55194; stroke-width: 2; stroke-linecap: round"/>
   </g>
   <g id="line2d_24">
    <path d="M 46.383522 42.892315 
L 48.315287 82.79974 
L 50.247052 117.819322 
L 52.178816 148.719167 
L 54.110581 176.122037 
L 56.042346 200.537173 
L 57.974111 222.384279 
L 60.147346 244.324206 
L 62.320581 263.863968 
L 64.493817 281.341769 
L 66.667052 297.038216 
L 68.840287 311.18771 
L 71.013523 323.987292 
L 73.428228 336.827592 
L 75.842934 348.399197 
L 78.25764 358.864085 
L 80.672346 368.359162 
L 83.087052 377.000785 
L 85.501758 384.888358 
L 88.157934 392.795237 
L 90.814111 399.990008 
L 93.470287 406.555761 
L 96.126464 412.563806 
L 99.024111 418.553981 
L 101.921758 424.022141 
L 104.819405 429.027273 
L 107.958523 433.985827 
L 111.09764 438.516301 
L 114.236758 442.666626 
L 117.617346 446.758434 
L 120.997935 450.501923 
L 124.619993 454.169874 
L 128.242052 457.522822 
L 132.105582 460.791537 
L 135.969111 463.77836 
L 140.074111 466.678174 
L 144.420582 469.476521 
L 149.008523 472.162503 
L 153.837935 474.728417 
L 158.908817 477.169357 
L 164.22117 479.482826 
L 170.016464 481.758439 
L 176.053229 483.889362 
L 182.572935 485.95311 
L 189.575582 487.932671 
L 197.06117 489.815802 
L 205.271171 491.645089 
L 213.964112 493.353538 
L 223.622935 495.019636 
L 234.006171 496.582424 
L 245.355288 498.065795 
L 257.911759 499.481385 
L 271.917053 500.832065 
L 287.371171 502.096809 
L 304.757054 503.293693 
L 324.316171 504.414667 
L 346.772936 505.473071 
L 372.368819 506.451809 
L 402.069701 507.359845 
L 436.841466 508.195015 
L 478.132937 508.958504 
L 528.117349 509.652674 
L 589.450879 510.273995 
L 666.721468 510.825069 
L 766.690292 511.305114 
L 900.94794 511.715168 
L 1012.265882 511.93862 
L 1012.265882 511.93862 
" clip-path="url(#p3f7bbc8375)" style="fill: none; stroke: #de9ed6; stroke-width: 2; stroke-linecap: round"/>
   </g>
   <g id="patch_3">
    <path d="M 46.383522 535.390936 
L 46.383522 19.44 
" style="fill: none; stroke: #ffffff; stroke-width: 0.8; stroke-linejoin: miter; stroke-linecap: square"/>
   </g>
   <g id="patch_4">
    <path d="M 1060.56 535.390936 
L 1060.56 19.44 
" style="fill: none; stroke: #ffffff; stroke-width: 0.8; stroke-linejoin: miter; stroke-linecap: square"/>
   </g>
   <g id="patch_5">
    <path d="M 46.383522 535.390936 
L 1060.56 535.390936 
" style="fill: none; stroke: #ffffff; stroke-width: 0.8; stroke-linejoin: miter; stroke-linecap: square"/>
   </g>
   <g id="patch_6">
    <path d="M 46.383522 19.44 
L 1060.56 19.44 
" style="fill: none; stroke: #ffffff; stroke-width: 0.8; stroke-linejoin: miter; stroke-linecap: square"/>
   </g>
  </g>
 </g>
 <defs>
  <clipPath id="p3f7bbc8375">
   <rect x="46.383522" y="19.44" width="1014.176478" height="515.950936"/>
  </clipPath>
 </defs>
</svg>
