<?xml version="1.0" encoding="utf-8" standalone="no"?>
<!DOCTYPE svg PUBLIC "-//W3C//DTD SVG 1.1//EN"
  "http://www.w3.org/Graphics/SVG/1.1/DTD/svg11.dtd">
<svg xmlns:xlink="http://www.w3.org/1999/xlink" width="1080pt" height="756pt" viewBox="0 0 1080 756" xmlns="http://www.w3.org/2000/svg" version="1.1">
 <metadata>
  <rdf:RDF xmlns:dc="http://purl.org/dc/elements/1.1/" xmlns:cc="http://creativecommons.org/ns#" xmlns:rdf="http://www.w3.org/1999/02/22-rdf-syntax-ns#">
   <cc:Work>
    <dc:type rdf:resource="http://purl.org/dc/dcmitype/StillImage"/>
    <dc:date>2024-07-30T19:04:31.215564</dc:date>
    <dc:format>image/svg+xml</dc:format>
    <dc:creator>
     <cc:Agent>
      <dc:title>Matplotlib v3.9.0, https://matplotlib.org/</dc:title>
     </cc:Agent>
    </dc:creator>
   </cc:Work>
  </rdf:RDF>
 </metadata>
 <defs>
  <style type="text/css">*{stroke-linejoin: round; stroke-linecap: butt}</style>
 </defs>
 <g id="figure_1">
  <g id="patch_1">
   <path d="M 0 756 
L 1080 756 
L 1080 0 
L 0 0 
z
" style="fill: #ffffff"/>
  </g>
  <g id="axes_1">
   <g id="patch_2">
    <path d="M 88.532127 678.237256 
L 1041.12 678.237256 
L 1041.12 38.88 
L 88.532127 38.88 
z
" style="fill: #ffffff"/>
   </g>
   <g id="matplotlib.axis_1">
    <g id="xtick_1">
     <g id="line2d_1">
      <defs>
       <path id="m916cc61d6b" d="M 0 0 
L 0 3.5 
" style="stroke: #262626; stroke-width: 0.8"/>
      </defs>
      <g>
       <use xlink:href="#m916cc61d6b" x="88.532127" y="678.237256" style="fill: #262626; stroke: #262626; stroke-width: 0.8"/>
      </g>
     </g>
     <g id="text_1">
      <!-- $\mathdefault{0}$ -->
      <g style="fill: #262626" transform="translate(80.307841 710.143856) scale(0.36 -0.36)">
       <defs>
        <path id="CMR17-30" d="M 2688 2025 
C 2688 2416 2682 3080 2413 3591 
C 2176 4039 1798 4198 1466 4198 
C 1158 4198 768 4058 525 3597 
C 269 3118 243 2524 243 2025 
C 243 1661 250 1106 448 619 
C 723 -39 1216 -128 1466 -128 
C 1760 -128 2208 -7 2470 600 
C 2662 1042 2688 1559 2688 2025 
z
M 1466 -26 
C 1056 -26 813 325 723 812 
C 653 1188 653 1738 653 2096 
C 653 2588 653 2997 736 3387 
C 858 3929 1216 4096 1466 4096 
C 1728 4096 2067 3923 2189 3400 
C 2272 3036 2278 2607 2278 2096 
C 2278 1680 2278 1169 2202 792 
C 2067 95 1690 -26 1466 -26 
z
" transform="scale(0.015625)"/>
       </defs>
       <use xlink:href="#CMR17-30" transform="scale(0.996264)"/>
      </g>
     </g>
    </g>
    <g id="xtick_2">
     <g id="line2d_2">
      <g>
       <use xlink:href="#m916cc61d6b" x="315.338764" y="678.237256" style="fill: #262626; stroke: #262626; stroke-width: 0.8"/>
      </g>
     </g>
     <g id="text_2">
      <!-- $\mathdefault{500}$ -->
      <g style="fill: #262626" transform="translate(290.665906 710.143856) scale(0.36 -0.36)">
       <defs>
        <path id="CMR17-35" d="M 730 3692 
C 794 3666 1056 3584 1325 3584 
C 1920 3584 2246 3911 2432 4100 
C 2432 4157 2432 4192 2394 4192 
C 2387 4192 2374 4192 2323 4163 
C 2099 4058 1837 3973 1517 3973 
C 1325 3973 1037 3999 723 4139 
C 653 4171 640 4171 634 4171 
C 602 4171 595 4164 595 4037 
L 595 2203 
C 595 2089 595 2057 659 2057 
C 691 2057 704 2070 736 2114 
C 941 2401 1222 2522 1542 2522 
C 1766 2522 2246 2382 2246 1289 
C 2246 1085 2246 715 2054 421 
C 1894 159 1645 25 1370 25 
C 947 25 518 320 403 814 
C 429 807 480 795 506 795 
C 589 795 749 840 749 1038 
C 749 1210 627 1280 506 1280 
C 358 1280 262 1190 262 1011 
C 262 454 704 -128 1382 -128 
C 2042 -128 2669 440 2669 1264 
C 2669 2030 2170 2624 1549 2624 
C 1222 2624 947 2503 730 2274 
L 730 3692 
z
" transform="scale(0.015625)"/>
       </defs>
       <use xlink:href="#CMR17-35" transform="scale(0.996264)"/>
       <use xlink:href="#CMR17-30" transform="translate(45.690477 0) scale(0.996264)"/>
       <use xlink:href="#CMR17-30" transform="translate(91.380954 0) scale(0.996264)"/>
      </g>
     </g>
    </g>
    <g id="xtick_3">
     <g id="line2d_3">
      <g>
       <use xlink:href="#m916cc61d6b" x="542.1454" y="678.237256" style="fill: #262626; stroke: #262626; stroke-width: 0.8"/>
      </g>
     </g>
     <g id="text_3">
      <!-- $\mathdefault{1000}$ -->
      <g style="fill: #262626" transform="translate(509.248256 710.143856) scale(0.36 -0.36)">
       <defs>
        <path id="CMR17-31" d="M 1702 4058 
C 1702 4192 1696 4192 1606 4192 
C 1357 3916 979 3827 621 3827 
C 602 3827 570 3827 563 3808 
C 557 3795 557 3782 557 3648 
C 755 3648 1088 3686 1344 3839 
L 1344 461 
C 1344 236 1331 160 781 160 
L 589 160 
L 589 0 
C 896 0 1216 0 1523 0 
C 1830 0 2150 0 2458 0 
L 2458 160 
L 2266 160 
C 1715 160 1702 230 1702 458 
L 1702 4058 
z
" transform="scale(0.015625)"/>
       </defs>
       <use xlink:href="#CMR17-31" transform="scale(0.996264)"/>
       <use xlink:href="#CMR17-30" transform="translate(45.690477 0) scale(0.996264)"/>
       <use xlink:href="#CMR17-30" transform="translate(91.380954 0) scale(0.996264)"/>
       <use xlink:href="#CMR17-30" transform="translate(137.071431 0) scale(0.996264)"/>
      </g>
     </g>
    </g>
    <g id="xtick_4">
     <g id="line2d_4">
      <g>
       <use xlink:href="#m916cc61d6b" x="768.952036" y="678.237256" style="fill: #262626; stroke: #262626; stroke-width: 0.8"/>
      </g>
     </g>
     <g id="text_4">
      <!-- $\mathdefault{1500}$ -->
      <g style="fill: #262626" transform="translate(736.054893 710.143856) scale(0.36 -0.36)">
       <use xlink:href="#CMR17-31" transform="scale(0.996264)"/>
       <use xlink:href="#CMR17-35" transform="translate(45.690477 0) scale(0.996264)"/>
       <use xlink:href="#CMR17-30" transform="translate(91.380954 0) scale(0.996264)"/>
       <use xlink:href="#CMR17-30" transform="translate(137.071431 0) scale(0.996264)"/>
      </g>
     </g>
    </g>
    <g id="xtick_5">
     <g id="line2d_5">
      <g>
       <use xlink:href="#m916cc61d6b" x="995.758673" y="678.237256" style="fill: #262626; stroke: #262626; stroke-width: 0.8"/>
      </g>
     </g>
     <g id="text_5">
      <!-- $\mathdefault{2000}$ -->
      <g style="fill: #262626" transform="translate(962.861529 710.143856) scale(0.36 -0.36)">
       <defs>
        <path id="CMR17-32" d="M 2669 989 
L 2554 989 
C 2490 536 2438 459 2413 420 
C 2381 369 1920 369 1830 369 
L 602 369 
C 832 619 1280 1072 1824 1597 
C 2214 1967 2669 2402 2669 3035 
C 2669 3790 2067 4224 1395 4224 
C 691 4224 262 3604 262 3030 
C 262 2780 448 2748 525 2748 
C 589 2748 781 2787 781 3010 
C 781 3207 614 3264 525 3264 
C 486 3264 448 3258 422 3245 
C 544 3790 915 4058 1306 4058 
C 1862 4058 2227 3617 2227 3035 
C 2227 2479 1901 2000 1536 1584 
L 262 146 
L 262 0 
L 2515 0 
L 2669 989 
z
" transform="scale(0.015625)"/>
       </defs>
       <use xlink:href="#CMR17-32" transform="scale(0.996264)"/>
       <use xlink:href="#CMR17-30" transform="translate(45.690477 0) scale(0.996264)"/>
       <use xlink:href="#CMR17-30" transform="translate(91.380954 0) scale(0.996264)"/>
       <use xlink:href="#CMR17-30" transform="translate(137.071431 0) scale(0.996264)"/>
      </g>
     </g>
    </g>
   </g>
   <g id="matplotlib.axis_2">
    <g id="ytick_1">
     <g id="line2d_6">
      <defs>
       <path id="mc7a96cffe2" d="M 0 0 
L -3.5 0 
" style="stroke: #262626; stroke-width: 0.8"/>
      </defs>
      <g>
       <use xlink:href="#mc7a96cffe2" x="88.532127" y="649.623218" style="fill: #262626; stroke: #262626; stroke-width: 0.8"/>
      </g>
     </g>
     <g id="text_6">
      <!-- $\mathdefault{0.0}$ -->
      <g style="fill: #262626" transform="translate(38.88 662.076518) scale(0.36 -0.36)">
       <defs>
        <path id="CMMI12-3a" d="M 1178 307 
C 1178 492 1024 619 870 619 
C 685 619 557 466 557 313 
C 557 128 710 0 864 0 
C 1050 0 1178 153 1178 307 
z
" transform="scale(0.015625)"/>
       </defs>
       <use xlink:href="#CMR17-30" transform="scale(0.996264)"/>
       <use xlink:href="#CMMI12-3a" transform="translate(45.690477 0) scale(0.996264)"/>
       <use xlink:href="#CMR17-30" transform="translate(72.787654 0) scale(0.996264)"/>
      </g>
     </g>
    </g>
    <g id="ytick_2">
     <g id="line2d_7">
      <g>
       <use xlink:href="#mc7a96cffe2" x="88.532127" y="533.286913" style="fill: #262626; stroke: #262626; stroke-width: 0.8"/>
      </g>
     </g>
     <g id="text_7">
      <!-- $\mathdefault{0.2}$ -->
      <g style="fill: #262626" transform="translate(38.88 545.740213) scale(0.36 -0.36)">
       <use xlink:href="#CMR17-30" transform="scale(0.996264)"/>
       <use xlink:href="#CMMI12-3a" transform="translate(45.690477 0) scale(0.996264)"/>
       <use xlink:href="#CMR17-32" transform="translate(72.787654 0) scale(0.996264)"/>
      </g>
     </g>
    </g>
    <g id="ytick_3">
     <g id="line2d_8">
      <g>
       <use xlink:href="#mc7a96cffe2" x="88.532127" y="416.950608" style="fill: #262626; stroke: #262626; stroke-width: 0.8"/>
      </g>
     </g>
     <g id="text_8">
      <!-- $\mathdefault{0.4}$ -->
      <g style="fill: #262626" transform="translate(38.88 429.403908) scale(0.36 -0.36)">
       <defs>
        <path id="CMR17-34" d="M 2150 4122 
C 2150 4256 2144 4256 2029 4256 
L 128 1254 
L 128 1088 
L 1779 1088 
L 1779 457 
C 1779 224 1766 160 1318 160 
L 1197 160 
L 1197 0 
C 1402 0 1747 0 1965 0 
C 2182 0 2528 0 2733 0 
L 2733 160 
L 2611 160 
C 2163 160 2150 224 2150 457 
L 2150 1088 
L 2803 1088 
L 2803 1254 
L 2150 1254 
L 2150 4122 
z
M 1798 3703 
L 1798 1254 
L 256 1254 
L 1798 3703 
z
" transform="scale(0.015625)"/>
       </defs>
       <use xlink:href="#CMR17-30" transform="scale(0.996264)"/>
       <use xlink:href="#CMMI12-3a" transform="translate(45.690477 0) scale(0.996264)"/>
       <use xlink:href="#CMR17-34" transform="translate(72.787654 0) scale(0.996264)"/>
      </g>
     </g>
    </g>
    <g id="ytick_4">
     <g id="line2d_9">
      <g>
       <use xlink:href="#mc7a96cffe2" x="88.532127" y="300.614303" style="fill: #262626; stroke: #262626; stroke-width: 0.8"/>
      </g>
     </g>
     <g id="text_9">
      <!-- $\mathdefault{0.6}$ -->
      <g style="fill: #262626" transform="translate(38.88 313.067604) scale(0.36 -0.36)">
       <defs>
        <path id="CMR17-36" d="M 678 2176 
C 678 3690 1395 4032 1811 4032 
C 1946 4032 2272 4009 2400 3776 
C 2298 3776 2106 3776 2106 3553 
C 2106 3381 2246 3323 2336 3323 
C 2394 3323 2566 3348 2566 3560 
C 2566 3954 2246 4179 1805 4179 
C 1043 4179 243 3390 243 1984 
C 243 253 966 -128 1478 -128 
C 2099 -128 2688 427 2688 1283 
C 2688 2081 2170 2662 1517 2662 
C 1126 2662 838 2407 678 1960 
L 678 2176 
z
M 1478 25 
C 691 25 691 1200 691 1436 
C 691 1896 909 2560 1504 2560 
C 1613 2560 1926 2560 2138 2120 
C 2253 1870 2253 1609 2253 1289 
C 2253 944 2253 690 2118 434 
C 1978 171 1773 25 1478 25 
z
" transform="scale(0.015625)"/>
       </defs>
       <use xlink:href="#CMR17-30" transform="scale(0.996264)"/>
       <use xlink:href="#CMMI12-3a" transform="translate(45.690477 0) scale(0.996264)"/>
       <use xlink:href="#CMR17-36" transform="translate(72.787654 0) scale(0.996264)"/>
      </g>
     </g>
    </g>
    <g id="ytick_5">
     <g id="line2d_10">
      <g>
       <use xlink:href="#mc7a96cffe2" x="88.532127" y="184.277998" style="fill: #262626; stroke: #262626; stroke-width: 0.8"/>
      </g>
     </g>
     <g id="text_10">
      <!-- $\mathdefault{0.8}$ -->
      <g style="fill: #262626" transform="translate(38.88 196.731299) scale(0.36 -0.36)">
       <defs>
        <path id="CMR17-38" d="M 1741 2264 
C 2144 2467 2554 2773 2554 3263 
C 2554 3841 1990 4179 1472 4179 
C 890 4179 378 3759 378 3180 
C 378 3021 416 2747 666 2505 
C 730 2442 998 2251 1171 2130 
C 883 1983 211 1634 211 934 
C 211 279 838 -128 1459 -128 
C 2144 -128 2720 362 2720 1010 
C 2720 1590 2330 1857 2074 2029 
L 1741 2264 
z
M 902 2822 
C 851 2854 595 3051 595 3351 
C 595 3739 998 4032 1459 4032 
C 1965 4032 2336 3676 2336 3262 
C 2336 2669 1670 2331 1638 2331 
C 1632 2331 1626 2331 1574 2370 
L 902 2822 
z
M 2080 1519 
C 2176 1449 2483 1240 2483 851 
C 2483 381 2010 25 1472 25 
C 890 25 448 438 448 940 
C 448 1443 838 1862 1280 2060 
L 2080 1519 
z
" transform="scale(0.015625)"/>
       </defs>
       <use xlink:href="#CMR17-30" transform="scale(0.996264)"/>
       <use xlink:href="#CMMI12-3a" transform="translate(45.690477 0) scale(0.996264)"/>
       <use xlink:href="#CMR17-38" transform="translate(72.787654 0) scale(0.996264)"/>
      </g>
     </g>
    </g>
    <g id="ytick_6">
     <g id="line2d_11">
      <g>
       <use xlink:href="#mc7a96cffe2" x="88.532127" y="67.941693" style="fill: #262626; stroke: #262626; stroke-width: 0.8"/>
      </g>
     </g>
     <g id="text_11">
      <!-- $\mathdefault{1.0}$ -->
      <g style="fill: #262626" transform="translate(38.88 80.394994) scale(0.36 -0.36)">
       <use xlink:href="#CMR17-31" transform="scale(0.996264)"/>
       <use xlink:href="#CMMI12-3a" transform="translate(45.690477 0) scale(0.996264)"/>
       <use xlink:href="#CMR17-30" transform="translate(72.787654 0) scale(0.996264)"/>
      </g>
     </g>
    </g>
   </g>
   <g id="line2d_12">
    <path d="M 88.532127 67.941693 
L 93.06826 87.803522 
L 97.604393 106.664752 
L 102.140525 124.591503 
L 106.676658 141.644519 
L 111.439598 158.670919 
L 116.202537 174.855091 
L 120.965476 190.251696 
L 125.728416 204.911033 
L 130.491355 218.879445 
L 135.481101 232.818505 
L 140.470847 246.091507 
L 145.460593 258.740229 
L 150.450339 270.803227 
L 155.666892 282.82691 
L 160.883444 294.286915 
L 166.099997 305.217943 
L 171.31655 315.652063 
L 176.759909 326.042126 
L 182.203268 335.954614 
L 187.646627 345.418359 
L 193.316793 354.828001 
L 198.986959 363.807586 
L 204.657125 372.382931 
L 210.554098 380.898157 
L 216.45107 389.026905 
L 222.574849 397.083923 
L 228.698629 404.772879 
L 235.049214 412.38145 
L 241.3998 419.640713 
L 247.977193 426.813446 
L 254.554585 433.655696 
L 261.358784 440.407385 
L 268.162983 446.847263 
L 275.193989 453.194304 
L 282.224995 459.247872 
L 289.482807 465.20777 
L 296.967426 471.06543 
L 304.678852 476.813377 
L 312.390277 482.288117 
L 320.32851 487.656469 
L 328.493549 492.913051 
L 336.885394 498.05335 
L 345.504046 503.073667 
L 354.349505 507.971064 
L 363.421771 512.743307 
L 372.947649 517.499147 
L 382.700335 522.115916 
L 392.679827 526.593953 
L 403.112932 531.02788 
L 413.772844 535.315096 
L 424.886369 539.541825 
L 436.226701 543.617622 
L 448.020646 547.620886 
L 460.268204 551.542736 
L 472.969376 555.375627 
L 486.124161 559.11327 
L 499.959366 562.809302 
L 514.248184 566.393795 
L 529.217422 569.915956 
L 544.640273 573.316016 
L 560.743544 576.639018 
L 577.754042 579.918851 
L 595.44496 583.100747 
L 614.043104 586.216471 
L 633.548474 589.25471 
L 653.961072 592.206203 
L 675.280896 595.063593 
L 697.734753 597.848324 
L 721.549449 600.575093 
L 746.498179 603.20695 
L 773.034556 605.780371 
L 801.158579 608.280936 
L 830.870248 610.697184 
L 862.396371 613.036456 
L 895.963753 615.302725 
L 931.799201 617.497321 
L 970.129523 619.619584 
L 995.758673 620.923406 
L 995.758673 620.923406 
" clip-path="url(#pafb183bd67)" style="fill: none; stroke: #1f77b4; stroke-width: 5; stroke-linecap: round"/>
   </g>
   <g id="line2d_13">
    <path d="M 88.532127 67.941693 
L 91.70742 95.498814 
L 94.882713 121.141531 
L 98.058006 145.043248 
L 101.233299 167.358166 
L 104.635398 189.662046 
L 108.037498 210.452588 
L 111.439598 229.863738 
L 114.841697 248.014938 
L 118.243797 265.012971 
L 121.872703 281.9808 
L 125.501609 297.849335 
L 129.130515 312.711569 
L 132.759421 326.650862 
L 136.388328 339.742115 
L 140.24404 352.797701 
L 144.099753 365.044796 
L 147.955466 376.548831 
L 151.811179 387.368748 
L 155.666892 397.557758 
L 159.749411 407.711872 
L 163.831931 417.264232 
L 167.91445 426.261483 
L 171.996969 434.745833 
L 176.306296 443.187335 
L 180.615622 451.140755 
L 184.924948 458.643022 
L 189.46108 466.08953 
L 193.997213 473.10866 
L 198.533346 479.732514 
L 203.296285 486.293993 
L 208.059225 492.482398 
L 213.048971 498.595561 
L 218.038717 504.358668 
L 223.255269 510.037894 
L 228.471822 515.390333 
L 233.915181 520.653665 
L 239.35854 525.613274 
L 245.028706 530.481266 
L 250.925679 535.24597 
L 256.822651 539.730359 
L 262.946431 544.113634 
L 269.297016 548.387844 
L 275.874409 552.546509 
L 282.678608 556.58451 
L 289.709614 560.497979 
L 296.967426 564.284184 
L 304.452045 567.941416 
L 312.390277 571.569145 
L 320.555316 575.054009 
L 329.173968 578.485154 
L 338.019427 581.766017 
L 347.318499 584.976233 
L 357.071185 588.104263 
L 367.277483 591.140707 
L 377.937395 594.078154 
L 389.05092 596.911008 
L 400.844866 599.686596 
L 413.319231 602.390292 
L 426.474015 605.010268 
L 440.30922 607.537302 
L 455.051652 610.000781 
L 470.70131 612.386422 
L 487.258194 614.683149 
L 504.949112 616.90999 
L 523.774062 619.053582 
L 543.959853 621.126142 
L 565.73329 623.133939 
L 589.094374 625.060944 
L 614.26991 626.911292 
L 641.486707 628.685885 
L 670.971569 630.383421 
L 703.178112 632.012023 
L 738.33314 633.564387 
L 777.117075 635.050257 
L 819.756723 636.457723 
L 867.15931 637.795683 
L 920.005256 639.0602 
L 979.201788 640.249981 
L 995.758673 640.546845 
L 995.758673 640.546845 
" clip-path="url(#pafb183bd67)" style="fill: none; stroke: #ff7f0e; stroke-width: 5; stroke-linecap: round"/>
   </g>
   <g id="line2d_14">
    <path d="M 88.532127 67.941693 
L 91.027 100.253276 
L 93.74868 132.521212 
L 96.47036 162.024349 
L 99.192039 189.070011 
L 101.913719 213.923947 
L 104.635398 236.816914 
L 107.357078 257.950059 
L 110.305564 279.061972 
L 113.254051 298.510207 
L 116.202537 316.465201 
L 119.151023 333.076104 
L 122.099509 348.473886 
L 125.047996 362.773939 
L 128.223289 377.063072 
L 131.398582 390.30963 
L 134.573874 402.612688 
L 137.749167 414.059816 
L 140.92446 424.728654 
L 144.32656 435.374155 
L 147.728659 445.28075 
L 151.130759 454.515309 
L 154.532858 463.137302 
L 158.161765 471.718554 
L 161.790671 479.720452 
L 165.419577 487.194023 
L 169.048483 494.184797 
L 172.904196 501.12897 
L 176.759909 507.617701 
L 180.615622 513.689983 
L 184.698141 519.704273 
L 188.780661 525.327842 
L 193.089987 530.87651 
L 197.399313 536.061557 
L 201.935445 541.160811 
L 206.471578 545.923985 
L 211.234518 550.5952 
L 215.997457 554.957595 
L 220.987203 559.225489 
L 226.203756 563.385855 
L 231.420308 567.265352 
L 236.863667 571.040792 
L 242.533833 574.703893 
L 248.430806 578.248222 
L 254.554585 581.66902 
L 260.905171 584.963039 
L 267.482563 588.128371 
L 274.513569 591.261581 
L 281.771381 594.251113 
L 289.482807 597.182522 
L 297.421039 599.963433 
L 305.812885 602.669331 
L 314.658344 605.288809 
L 323.957416 607.813046 
L 333.936908 610.289373 
L 344.59682 612.699081 
L 355.710345 614.9829 
L 367.731097 617.22248 
L 380.432268 619.360735 
L 394.040666 621.424993 
L 408.783098 623.431599 
L 424.432756 625.335984 
L 441.443253 627.179552 
L 459.814591 628.944321 
L 479.773575 630.635589 
L 501.547012 632.25434 
L 525.361709 633.798669 
L 551.444472 635.265032 
L 580.248915 636.659462 
L 612.228651 637.982226 
L 648.064099 639.237412 
L 688.208874 640.416677 
L 733.570201 641.522631 
L 785.282114 642.556575 
L 844.93226 643.521007 
L 914.108284 644.411214 
L 995.531866 645.23022 
L 995.758673 645.232225 
L 995.758673 645.232225 
" clip-path="url(#pafb183bd67)" style="fill: none; stroke: #2ca02c; stroke-width: 5; stroke-linecap: round"/>
   </g>
   <g id="line2d_15">
    <path d="M 88.532127 67.941693 
L 90.800194 106.808157 
L 93.06826 141.899636 
L 95.336326 173.690154 
L 97.604393 202.581539 
L 100.099266 231.42076 
L 102.594139 257.553055 
L 105.089012 281.307212 
L 107.583885 302.96354 
L 110.078758 322.762203 
L 112.573631 340.909932 
L 115.29531 359.033946 
L 118.01699 375.605769 
L 120.73867 390.797858 
L 123.460349 404.759352 
L 126.182029 417.619756 
L 129.130515 430.439905 
L 132.079001 442.225027 
L 135.027488 453.083689 
L 137.975974 463.110583 
L 140.92446 472.388595 
L 144.099753 481.626112 
L 147.275046 490.159202 
L 150.450339 498.057753 
L 153.625632 505.383192 
L 157.027731 512.657308 
L 160.429831 519.394303 
L 163.831931 525.645815 
L 167.23403 531.45742 
L 170.862936 537.216964 
L 174.491842 542.56516 
L 178.347555 547.83964 
L 182.203268 552.73346 
L 186.058981 557.282404 
L 190.1415 561.758174 
L 194.22402 565.916045 
L 198.533346 569.992486 
L 203.069479 573.969778 
L 207.605611 577.656194 
L 212.368551 581.244141 
L 217.358297 584.722447 
L 222.574849 588.082407 
L 228.018209 591.317558 
L 233.688375 594.423442 
L 239.585347 597.397375 
L 245.709126 600.238214 
L 252.286519 603.038697 
L 259.090718 605.692201 
L 266.34853 608.280139 
L 274.059956 610.786924 
L 282.224995 613.200452 
L 290.843647 615.511792 
L 299.915912 617.714835 
L 309.668598 619.85318 
L 320.101703 621.911093 
L 331.215228 623.876951 
L 343.23598 625.776659 
L 356.163958 627.5942 
L 370.22597 629.344839 
L 385.422014 631.011912 
L 402.205705 632.624913 
L 420.577043 634.161281 
L 440.762834 635.6209 
L 462.989884 637.001187 
L 487.711807 638.30953 
L 515.382217 639.546342 
L 546.454726 640.707966 
L 581.609755 641.79544 
L 621.754529 642.810445 
L 668.023083 643.753196 
L 722.003063 644.625134 
L 785.735727 645.425745 
L 861.942757 646.153859 
L 954.933478 646.8118 
L 995.758673 647.042866 
L 995.758673 647.042866 
" clip-path="url(#pafb183bd67)" style="fill: none; stroke: #d62728; stroke-width: 5; stroke-linecap: round"/>
   </g>
   <g id="line2d_16">
    <path d="M 88.532127 67.941693 
L 90.573387 111.443902 
L 92.614647 150.23349 
L 94.655906 184.968251 
L 96.697166 216.194975 
L 98.965233 247.330947 
L 101.233299 275.223187 
L 103.501365 300.307619 
L 105.769432 322.949259 
L 108.037498 343.455631 
L 110.305564 362.087306 
L 112.800437 380.680812 
L 115.29531 397.525049 
L 117.790183 412.832962 
L 120.285056 426.786031 
L 122.779929 439.539689 
L 125.274802 451.227687 
L 127.996482 462.898268 
L 130.718162 473.567419 
L 133.439841 483.346611 
L 136.161521 492.332219 
L 138.883201 500.607909 
L 141.831687 508.856457 
L 144.780173 516.437946 
L 147.728659 523.422461 
L 150.677146 529.871112 
L 153.852439 536.277733 
L 157.027731 542.183206 
L 160.203024 547.638503 
L 163.605124 553.034517 
L 167.007223 558.012992 
L 170.409323 562.615946 
L 174.038229 567.153302 
L 177.667135 571.344502 
L 181.522848 575.456721 
L 185.378561 579.252982 
L 189.46108 582.963193 
L 193.770407 586.56977 
L 198.079733 589.891187 
L 202.615865 593.111506 
L 207.378805 596.22024 
L 212.368551 599.209552 
L 217.585103 602.073974 
L 223.028463 604.810124 
L 228.698629 607.416429 
L 234.822408 609.983705 
L 241.172994 612.406202 
L 247.977193 614.763189 
L 255.235005 617.038648 
L 262.946431 619.220459 
L 271.11147 621.300006 
L 279.956928 623.320818 
L 289.482807 625.264298 
L 299.689106 627.1168 
L 310.802631 628.903384 
L 322.823383 630.606373 
L 335.978168 632.24002 
L 350.266986 633.786857 
L 365.916644 635.255401 
L 383.380755 636.665283 
L 402.659319 637.993407 
L 424.205949 639.249678 
L 448.247453 640.425255 
L 475.464249 641.530032 
L 506.536758 642.564246 
L 542.372207 643.528496 
L 583.877821 644.41733 
L 632.868055 645.237125 
L 691.15736 645.983066 
L 761.921031 646.6583 
L 849.468392 647.262221 
L 960.376837 647.794825 
L 995.758673 647.927155 
L 995.758673 647.927155 
" clip-path="url(#pafb183bd67)" style="fill: none; stroke: #9467bd; stroke-width: 5; stroke-linecap: round"/>
   </g>
   <g id="line2d_17">
    <path d="M 88.532127 67.941693 
L 90.34658 114.225155 
L 92.161033 155.184556 
L 93.975487 191.607494 
L 96.016746 227.961897 
L 98.058006 260.145304 
L 100.099266 288.773078 
L 102.140525 314.351027 
L 104.181785 337.298023 
L 106.223045 357.96335 
L 108.491111 378.603728 
L 110.759178 397.124715 
L 113.027244 413.80717 
L 115.29531 428.886887 
L 117.563377 442.563003 
L 120.05825 456.186652 
L 122.553123 468.506873 
L 125.047996 479.684946 
L 127.542869 489.857938 
L 130.037742 499.14294 
L 132.532615 507.640464 
L 135.254294 516.113901 
L 137.975974 523.849981 
L 140.697654 530.931911 
L 143.419333 537.431474 
L 146.36782 543.887415 
L 149.316306 549.801168 
L 152.264792 555.231832 
L 155.440085 560.598623 
L 158.615378 565.519965 
L 161.790671 570.043857 
L 165.19277 574.497104 
L 168.59487 578.586426 
L 172.223776 582.590666 
L 175.852682 586.265367 
L 179.708395 589.847965 
L 183.564108 593.134838 
L 187.646627 596.327876 
L 191.955953 599.413062 
L 196.492086 602.379729 
L 201.255026 605.220233 
L 206.244772 607.929592 
L 211.461324 610.505131 
L 216.904683 612.946132 
L 222.801656 615.341231 
L 228.925435 617.588257 
L 235.502828 619.7641 
L 242.533833 621.853531 
L 250.018452 623.845497 
L 258.183491 625.783475 
L 267.02895 627.646137 
L 276.554829 629.417957 
L 286.761127 631.088554 
L 297.874653 632.682377 
L 310.122211 634.211761 
L 323.503803 635.65739 
L 338.473041 637.045895 
L 355.029925 638.353423 
L 373.628069 639.592879 
L 394.49428 640.754729 
L 418.08217 641.84054 
L 445.07216 642.855018 
L 476.144669 643.795219 
L 512.433731 644.664777 
L 555.300185 645.462598 
L 606.558485 646.187255 
L 669.157116 646.841682 
L 746.951793 647.42385 
L 846.519906 647.93616 
L 977.840948 648.377566 
L 995.758673 648.424056 
L 995.758673 648.424056 
" clip-path="url(#pafb183bd67)" style="fill: none; stroke: #8c564b; stroke-width: 5; stroke-linecap: round"/>
   </g>
   <g id="line2d_18">
    <path d="M 88.532127 67.941693 
L 90.34658 121.462927 
L 92.161033 167.905158 
L 93.975487 208.466068 
L 95.78994 244.10003 
L 97.604393 275.575158 
L 99.418846 303.515325 
L 101.460106 331.355272 
L 103.501365 355.95989 
L 105.542625 377.812434 
L 107.583885 397.309092 
L 109.625144 414.777169 
L 111.666404 430.488986 
L 113.934471 446.162891 
L 116.202537 460.210709 
L 118.470603 472.850085 
L 120.73867 484.263404 
L 123.006736 494.60443 
L 125.501609 504.89607 
L 127.996482 514.194454 
L 130.491355 522.623526 
L 132.986228 530.288467 
L 135.481101 537.279009 
L 138.202781 544.226006 
L 140.92446 550.547258 
L 143.64614 556.315784 
L 146.36782 561.594247 
L 149.316306 566.822035 
L 152.264792 571.597108 
L 155.213278 575.970308 
L 158.388571 580.280691 
L 161.563864 584.223113 
L 164.965964 588.084995 
L 168.368063 591.614339 
L 171.996969 595.054184 
L 175.625876 598.196638 
L 179.481588 601.246851 
L 183.564108 604.189662 
L 187.873434 607.013668 
L 192.409567 609.710832 
L 197.172506 612.276065 
L 202.162252 614.706809 
L 207.378805 617.00263 
L 213.048971 619.250221 
L 218.945943 621.349804 
L 225.296529 623.376249 
L 232.100728 625.314704 
L 239.585347 627.20884 
L 247.523579 628.985536 
L 256.142232 630.685375 
L 265.66811 632.330698 
L 275.874409 633.866349 
L 287.214741 635.344302 
L 299.689106 636.741958 
L 313.524311 638.064788 
L 328.947162 639.31264 
L 346.411273 640.496251 
L 366.14345 641.60383 
L 388.597307 642.635405 
L 414.453264 643.594459 
L 444.39174 644.477271 
L 479.773575 645.291545 
L 521.959609 646.032794 
L 573.217909 646.702989 
L 636.723767 647.301824 
L 717.240123 647.828921 
L 822.705209 648.285752 
L 966.500617 648.672816 
L 995.758673 648.730755 
L 995.758673 648.730755 
" clip-path="url(#pafb183bd67)" style="fill: none; stroke: #e377c2; stroke-width: 5; stroke-linecap: round"/>
   </g>
   <g id="line2d_19">
    <path d="M 88.532127 67.941693 
L 90.119774 121.527887 
L 91.70742 168.015615 
L 93.295067 208.607933 
L 95.10952 249.000515 
L 96.923973 284.073996 
L 98.738426 314.724518 
L 100.552879 341.666905 
L 102.367332 365.477016 
L 104.181785 386.622978 
L 106.223045 407.702784 
L 108.264305 426.341256 
L 110.305564 442.901845 
L 112.346824 457.682734 
L 114.388084 470.930419 
L 116.429344 482.85011 
L 118.69741 494.744896 
L 120.965476 505.40905 
L 123.233543 515.006851 
L 125.501609 523.676028 
L 127.769675 531.532755 
L 130.264548 539.353937 
L 132.759421 546.422045 
L 135.254294 552.830837 
L 137.749167 558.659913 
L 140.470847 564.437299 
L 143.192527 569.680603 
L 145.914206 574.453737 
L 148.862693 579.157224 
L 151.811179 583.4322 
L 154.759665 587.329221 
L 157.934958 591.152868 
L 161.110251 594.634629 
L 164.51235 598.030577 
L 167.91445 601.121093 
L 171.543356 604.120983 
L 175.399069 607.013063 
L 179.481588 609.784469 
L 183.790915 612.426204 
L 188.327047 614.932643 
L 193.089987 617.301034 
L 198.079733 619.531017 
L 203.523092 621.710178 
L 209.193258 623.737556 
L 215.317037 625.688494 
L 221.894429 627.547931 
L 228.925435 629.305636 
L 236.636861 631.002343 
L 245.028706 632.617949 
L 254.327778 634.174168 
L 264.534077 635.648338 
L 275.647602 637.025683 
L 288.121967 638.342244 
L 301.957172 639.574647 
L 317.60683 640.739929 
L 335.297748 641.828686 
L 355.483538 642.84311 
L 378.844622 643.787984 
L 406.061418 644.659295 
L 438.267961 645.459782 
L 476.825089 646.187126 
L 523.774062 646.841694 
L 582.290175 647.425363 
L 656.909558 647.936921 
L 755.343638 648.377894 
L 890.974007 648.749362 
L 995.758673 648.93325 
L 995.758673 648.93325 
" clip-path="url(#pafb183bd67)" style="fill: none; stroke: #7f7f7f; stroke-width: 5; stroke-linecap: round"/>
   </g>
   <g id="line2d_20">
    <path d="M 88.532127 67.941693 
L 90.119774 127.771472 
L 91.70742 178.795118 
L 93.295067 222.663444 
L 94.882713 260.657184 
L 96.47036 293.78239 
L 98.058006 322.838293 
L 99.872459 351.879295 
L 101.686912 377.205034 
L 103.501365 399.424308 
L 105.315818 419.025981 
L 107.130271 436.406284 
L 109.171531 453.704892 
L 111.212791 468.976496 
L 113.254051 482.526288 
L 115.29531 494.604052 
L 117.33657 505.415819 
L 119.37783 515.132761 
L 121.645896 524.81864 
L 123.913963 533.49297 
L 126.182029 541.292015 
L 128.450095 548.329824 
L 130.718162 554.702443 
L 133.213035 561.040747 
L 135.707908 566.763898 
L 138.202781 571.949077 
L 140.92446 577.068703 
L 143.64614 581.697734 
L 146.36782 585.896963 
L 149.316306 590.020828 
L 152.264792 593.756529 
L 155.213278 597.151333 
L 158.388571 600.47211 
L 161.790671 603.691664 
L 165.19277 606.60463 
L 168.821677 609.416294 
L 172.677389 612.111738 
L 176.759909 614.680381 
L 181.069235 617.115441 
L 185.605368 619.413369 
L 190.368307 621.573312 
L 195.358053 623.596596 
L 200.801412 625.563703 
L 206.698385 627.453077 
L 213.048971 629.249096 
L 219.85317 630.941392 
L 227.337789 632.570238 
L 235.502828 634.115437 
L 244.575093 635.598109 
L 254.554585 636.996014 
L 265.66811 638.320099 
L 277.915669 639.551591 
L 291.750873 640.715154 
L 307.400531 641.803719 
L 325.318256 642.821706 
L 345.95766 643.76587 
L 369.999163 644.637198 
L 398.349993 645.43606 
L 432.370988 646.16475 
L 473.876602 646.822399 
L 525.361709 647.406839 
L 591.135633 647.920973 
L 677.775769 648.364327 
L 797.076059 648.738402 
L 970.583136 649.043151 
L 995.758673 649.073907 
L 995.758673 649.073907 
" clip-path="url(#pafb183bd67)" style="fill: none; stroke: #bcbd22; stroke-width: 5; stroke-linecap: round"/>
   </g>
   <g id="line2d_21">
    <path d="M 88.532127 67.941693 
L 89.892967 125.206255 
L 91.253807 174.383286 
L 92.841453 223.461516 
L 94.4291 265.288387 
L 96.016746 301.228229 
L 97.604393 332.338446 
L 99.192039 359.448898 
L 100.779686 383.2183 
L 102.594139 406.965145 
L 104.408592 427.665185 
L 106.223045 445.819077 
L 108.037498 461.828581 
L 109.851951 476.019132 
L 111.893211 490.138453 
L 113.934471 502.599401 
L 115.97573 513.652236 
L 118.01699 523.501681 
L 120.05825 532.316523 
L 122.099509 540.236933 
L 124.367576 548.130248 
L 126.635642 555.197662 
L 128.903709 561.550634 
L 131.171775 567.282421 
L 133.666648 572.963247 
L 136.161521 578.075015 
L 138.656394 582.691343 
L 141.151267 586.87431 
L 143.872947 591.004946 
L 146.594626 594.740244 
L 149.543112 598.397257 
L 152.491599 601.700151 
L 155.666892 604.911776 
L 158.842185 607.810704 
L 162.244284 610.614276 
L 165.87319 613.304628 
L 169.728903 615.868896 
L 173.584616 618.170626 
L 177.893942 620.4749 
L 182.430075 622.637009 
L 187.193014 624.65799 
L 192.409567 626.621342 
L 197.852926 628.432839 
L 203.749899 630.163796 
L 210.327291 631.855404 
L 217.358297 633.430696 
L 225.069722 634.928929 
L 233.688375 636.369771 
L 243.214253 637.728707 
L 253.647359 638.990294 
L 265.441304 640.188869 
L 278.822895 641.31865 
L 294.01894 642.371786 
L 311.483051 643.352197 
L 331.668841 644.256418 
L 355.256732 645.085422 
L 383.380755 645.845122 
L 417.40175 646.533963 
L 459.360978 647.151994 
L 512.206924 647.698096 
L 580.702528 648.17292 
L 673.012829 648.577974 
L 803.653452 648.913712 
L 995.758673 649.175563 
L 995.758673 649.175563 
" clip-path="url(#pafb183bd67)" style="fill: none; stroke: #17becf; stroke-width: 5; stroke-linecap: round"/>
   </g>
   <g id="patch_3">
    <path d="M 88.532127 678.237256 
L 88.532127 38.88 
" style="fill: none; stroke: #262626; stroke-width: 0.8; stroke-linejoin: miter; stroke-linecap: square"/>
   </g>
   <g id="patch_4">
    <path d="M 88.532127 678.237256 
L 1041.12 678.237256 
" style="fill: none; stroke: #262626; stroke-width: 0.8; stroke-linejoin: miter; stroke-linecap: square"/>
   </g>
  </g>
 </g>
 <defs>
  <clipPath id="pafb183bd67">
   <rect x="88.532127" y="38.88" width="952.587873" height="639.357256"/>
  </clipPath>
 </defs>
</svg>
