<?xml version="1.0" encoding="utf-8" standalone="no"?>
<!DOCTYPE svg PUBLIC "-//W3C//DTD SVG 1.1//EN"
  "http://www.w3.org/Graphics/SVG/1.1/DTD/svg11.dtd">
<svg xmlns:xlink="http://www.w3.org/1999/xlink" width="1080pt" height="756pt" viewBox="0 0 1080 756" xmlns="http://www.w3.org/2000/svg" version="1.1">
 <metadata>
  <rdf:RDF xmlns:dc="http://purl.org/dc/elements/1.1/" xmlns:cc="http://creativecommons.org/ns#" xmlns:rdf="http://www.w3.org/1999/02/22-rdf-syntax-ns#">
   <cc:Work>
    <dc:type rdf:resource="http://purl.org/dc/dcmitype/StillImage"/>
    <dc:date>2024-07-30T19:42:39.317723</dc:date>
    <dc:format>image/svg+xml</dc:format>
    <dc:creator>
     <cc:Agent>
      <dc:title>Matplotlib v3.9.0, https://matplotlib.org/</dc:title>
     </cc:Agent>
    </dc:creator>
   </cc:Work>
  </rdf:RDF>
 </metadata>
 <defs>
  <style type="text/css">*{stroke-linejoin: round; stroke-linecap: butt}</style>
 </defs>
 <g id="figure_1">
  <g id="patch_1">
   <path d="M 0 756 
L 1080 756 
L 1080 0 
L 0 0 
z
" style="fill: #ffffff"/>
  </g>
  <g id="axes_1">
   <g id="patch_2">
    <path d="M 88.532127 678.237256 
L 1041.12 678.237256 
L 1041.12 38.88 
L 88.532127 38.88 
z
" style="fill: #ffffff"/>
   </g>
   <g id="matplotlib.axis_1">
    <g id="xtick_1">
     <g id="line2d_1">
      <defs>
       <path id="m6aec550de8" d="M 0 0 
L 0 3.5 
" style="stroke: #262626; stroke-width: 0.8"/>
      </defs>
      <g>
       <use xlink:href="#m6aec550de8" x="88.532127" y="678.237256" style="fill: #262626; stroke: #262626; stroke-width: 0.8"/>
      </g>
     </g>
     <g id="text_1">
      <!-- $\mathdefault{0}$ -->
      <g style="fill: #262626" transform="translate(80.307841 710.143856) scale(0.36 -0.36)">
       <defs>
        <path id="CMR17-30" d="M 2688 2025 
C 2688 2416 2682 3080 2413 3591 
C 2176 4039 1798 4198 1466 4198 
C 1158 4198 768 4058 525 3597 
C 269 3118 243 2524 243 2025 
C 243 1661 250 1106 448 619 
C 723 -39 1216 -128 1466 -128 
C 1760 -128 2208 -7 2470 600 
C 2662 1042 2688 1559 2688 2025 
z
M 1466 -26 
C 1056 -26 813 325 723 812 
C 653 1188 653 1738 653 2096 
C 653 2588 653 2997 736 3387 
C 858 3929 1216 4096 1466 4096 
C 1728 4096 2067 3923 2189 3400 
C 2272 3036 2278 2607 2278 2096 
C 2278 1680 2278 1169 2202 792 
C 2067 95 1690 -26 1466 -26 
z
" transform="scale(0.015625)"/>
       </defs>
       <use xlink:href="#CMR17-30" transform="scale(0.996264)"/>
      </g>
     </g>
    </g>
    <g id="xtick_2">
     <g id="line2d_2">
      <g>
       <use xlink:href="#m6aec550de8" x="315.338764" y="678.237256" style="fill: #262626; stroke: #262626; stroke-width: 0.8"/>
      </g>
     </g>
     <g id="text_2">
      <!-- $\mathdefault{500}$ -->
      <g style="fill: #262626" transform="translate(290.665906 710.143856) scale(0.36 -0.36)">
       <defs>
        <path id="CMR17-35" d="M 730 3692 
C 794 3666 1056 3584 1325 3584 
C 1920 3584 2246 3911 2432 4100 
C 2432 4157 2432 4192 2394 4192 
C 2387 4192 2374 4192 2323 4163 
C 2099 4058 1837 3973 1517 3973 
C 1325 3973 1037 3999 723 4139 
C 653 4171 640 4171 634 4171 
C 602 4171 595 4164 595 4037 
L 595 2203 
C 595 2089 595 2057 659 2057 
C 691 2057 704 2070 736 2114 
C 941 2401 1222 2522 1542 2522 
C 1766 2522 2246 2382 2246 1289 
C 2246 1085 2246 715 2054 421 
C 1894 159 1645 25 1370 25 
C 947 25 518 320 403 814 
C 429 807 480 795 506 795 
C 589 795 749 840 749 1038 
C 749 1210 627 1280 506 1280 
C 358 1280 262 1190 262 1011 
C 262 454 704 -128 1382 -128 
C 2042 -128 2669 440 2669 1264 
C 2669 2030 2170 2624 1549 2624 
C 1222 2624 947 2503 730 2274 
L 730 3692 
z
" transform="scale(0.015625)"/>
       </defs>
       <use xlink:href="#CMR17-35" transform="scale(0.996264)"/>
       <use xlink:href="#CMR17-30" transform="translate(45.690477 0) scale(0.996264)"/>
       <use xlink:href="#CMR17-30" transform="translate(91.380954 0) scale(0.996264)"/>
      </g>
     </g>
    </g>
    <g id="xtick_3">
     <g id="line2d_3">
      <g>
       <use xlink:href="#m6aec550de8" x="542.1454" y="678.237256" style="fill: #262626; stroke: #262626; stroke-width: 0.8"/>
      </g>
     </g>
     <g id="text_3">
      <!-- $\mathdefault{1000}$ -->
      <g style="fill: #262626" transform="translate(509.248256 710.143856) scale(0.36 -0.36)">
       <defs>
        <path id="CMR17-31" d="M 1702 4058 
C 1702 4192 1696 4192 1606 4192 
C 1357 3916 979 3827 621 3827 
C 602 3827 570 3827 563 3808 
C 557 3795 557 3782 557 3648 
C 755 3648 1088 3686 1344 3839 
L 1344 461 
C 1344 236 1331 160 781 160 
L 589 160 
L 589 0 
C 896 0 1216 0 1523 0 
C 1830 0 2150 0 2458 0 
L 2458 160 
L 2266 160 
C 1715 160 1702 230 1702 458 
L 1702 4058 
z
" transform="scale(0.015625)"/>
       </defs>
       <use xlink:href="#CMR17-31" transform="scale(0.996264)"/>
       <use xlink:href="#CMR17-30" transform="translate(45.690477 0) scale(0.996264)"/>
       <use xlink:href="#CMR17-30" transform="translate(91.380954 0) scale(0.996264)"/>
       <use xlink:href="#CMR17-30" transform="translate(137.071431 0) scale(0.996264)"/>
      </g>
     </g>
    </g>
    <g id="xtick_4">
     <g id="line2d_4">
      <g>
       <use xlink:href="#m6aec550de8" x="768.952036" y="678.237256" style="fill: #262626; stroke: #262626; stroke-width: 0.8"/>
      </g>
     </g>
     <g id="text_4">
      <!-- $\mathdefault{1500}$ -->
      <g style="fill: #262626" transform="translate(736.054893 710.143856) scale(0.36 -0.36)">
       <use xlink:href="#CMR17-31" transform="scale(0.996264)"/>
       <use xlink:href="#CMR17-35" transform="translate(45.690477 0) scale(0.996264)"/>
       <use xlink:href="#CMR17-30" transform="translate(91.380954 0) scale(0.996264)"/>
       <use xlink:href="#CMR17-30" transform="translate(137.071431 0) scale(0.996264)"/>
      </g>
     </g>
    </g>
    <g id="xtick_5">
     <g id="line2d_5">
      <g>
       <use xlink:href="#m6aec550de8" x="995.758673" y="678.237256" style="fill: #262626; stroke: #262626; stroke-width: 0.8"/>
      </g>
     </g>
     <g id="text_5">
      <!-- $\mathdefault{2000}$ -->
      <g style="fill: #262626" transform="translate(962.861529 710.143856) scale(0.36 -0.36)">
       <defs>
        <path id="CMR17-32" d="M 2669 989 
L 2554 989 
C 2490 536 2438 459 2413 420 
C 2381 369 1920 369 1830 369 
L 602 369 
C 832 619 1280 1072 1824 1597 
C 2214 1967 2669 2402 2669 3035 
C 2669 3790 2067 4224 1395 4224 
C 691 4224 262 3604 262 3030 
C 262 2780 448 2748 525 2748 
C 589 2748 781 2787 781 3010 
C 781 3207 614 3264 525 3264 
C 486 3264 448 3258 422 3245 
C 544 3790 915 4058 1306 4058 
C 1862 4058 2227 3617 2227 3035 
C 2227 2479 1901 2000 1536 1584 
L 262 146 
L 262 0 
L 2515 0 
L 2669 989 
z
" transform="scale(0.015625)"/>
       </defs>
       <use xlink:href="#CMR17-32" transform="scale(0.996264)"/>
       <use xlink:href="#CMR17-30" transform="translate(45.690477 0) scale(0.996264)"/>
       <use xlink:href="#CMR17-30" transform="translate(91.380954 0) scale(0.996264)"/>
       <use xlink:href="#CMR17-30" transform="translate(137.071431 0) scale(0.996264)"/>
      </g>
     </g>
    </g>
   </g>
   <g id="matplotlib.axis_2">
    <g id="ytick_1">
     <g id="line2d_6">
      <defs>
       <path id="mf4dac5f9a6" d="M 0 0 
L -3.5 0 
" style="stroke: #262626; stroke-width: 0.8"/>
      </defs>
      <g>
       <use xlink:href="#mf4dac5f9a6" x="88.532127" y="649.449605" style="fill: #262626; stroke: #262626; stroke-width: 0.8"/>
      </g>
     </g>
     <g id="text_6">
      <!-- $\mathdefault{0.0}$ -->
      <g style="fill: #262626" transform="translate(38.88 661.902905) scale(0.36 -0.36)">
       <defs>
        <path id="CMMI12-3a" d="M 1178 307 
C 1178 492 1024 619 870 619 
C 685 619 557 466 557 313 
C 557 128 710 0 864 0 
C 1050 0 1178 153 1178 307 
z
" transform="scale(0.015625)"/>
       </defs>
       <use xlink:href="#CMR17-30" transform="scale(0.996264)"/>
       <use xlink:href="#CMMI12-3a" transform="translate(45.690477 0) scale(0.996264)"/>
       <use xlink:href="#CMR17-30" transform="translate(72.787654 0) scale(0.996264)"/>
      </g>
     </g>
    </g>
    <g id="ytick_2">
     <g id="line2d_7">
      <g>
       <use xlink:href="#mf4dac5f9a6" x="88.532127" y="533.148023" style="fill: #262626; stroke: #262626; stroke-width: 0.8"/>
      </g>
     </g>
     <g id="text_7">
      <!-- $\mathdefault{0.2}$ -->
      <g style="fill: #262626" transform="translate(38.88 545.601323) scale(0.36 -0.36)">
       <use xlink:href="#CMR17-30" transform="scale(0.996264)"/>
       <use xlink:href="#CMMI12-3a" transform="translate(45.690477 0) scale(0.996264)"/>
       <use xlink:href="#CMR17-32" transform="translate(72.787654 0) scale(0.996264)"/>
      </g>
     </g>
    </g>
    <g id="ytick_3">
     <g id="line2d_8">
      <g>
       <use xlink:href="#mf4dac5f9a6" x="88.532127" y="416.846441" style="fill: #262626; stroke: #262626; stroke-width: 0.8"/>
      </g>
     </g>
     <g id="text_8">
      <!-- $\mathdefault{0.4}$ -->
      <g style="fill: #262626" transform="translate(38.88 429.299741) scale(0.36 -0.36)">
       <defs>
        <path id="CMR17-34" d="M 2150 4122 
C 2150 4256 2144 4256 2029 4256 
L 128 1254 
L 128 1088 
L 1779 1088 
L 1779 457 
C 1779 224 1766 160 1318 160 
L 1197 160 
L 1197 0 
C 1402 0 1747 0 1965 0 
C 2182 0 2528 0 2733 0 
L 2733 160 
L 2611 160 
C 2163 160 2150 224 2150 457 
L 2150 1088 
L 2803 1088 
L 2803 1254 
L 2150 1254 
L 2150 4122 
z
M 1798 3703 
L 1798 1254 
L 256 1254 
L 1798 3703 
z
" transform="scale(0.015625)"/>
       </defs>
       <use xlink:href="#CMR17-30" transform="scale(0.996264)"/>
       <use xlink:href="#CMMI12-3a" transform="translate(45.690477 0) scale(0.996264)"/>
       <use xlink:href="#CMR17-34" transform="translate(72.787654 0) scale(0.996264)"/>
      </g>
     </g>
    </g>
    <g id="ytick_4">
     <g id="line2d_9">
      <g>
       <use xlink:href="#mf4dac5f9a6" x="88.532127" y="300.544858" style="fill: #262626; stroke: #262626; stroke-width: 0.8"/>
      </g>
     </g>
     <g id="text_9">
      <!-- $\mathdefault{0.6}$ -->
      <g style="fill: #262626" transform="translate(38.88 312.998158) scale(0.36 -0.36)">
       <defs>
        <path id="CMR17-36" d="M 678 2176 
C 678 3690 1395 4032 1811 4032 
C 1946 4032 2272 4009 2400 3776 
C 2298 3776 2106 3776 2106 3553 
C 2106 3381 2246 3323 2336 3323 
C 2394 3323 2566 3348 2566 3560 
C 2566 3954 2246 4179 1805 4179 
C 1043 4179 243 3390 243 1984 
C 243 253 966 -128 1478 -128 
C 2099 -128 2688 427 2688 1283 
C 2688 2081 2170 2662 1517 2662 
C 1126 2662 838 2407 678 1960 
L 678 2176 
z
M 1478 25 
C 691 25 691 1200 691 1436 
C 691 1896 909 2560 1504 2560 
C 1613 2560 1926 2560 2138 2120 
C 2253 1870 2253 1609 2253 1289 
C 2253 944 2253 690 2118 434 
C 1978 171 1773 25 1478 25 
z
" transform="scale(0.015625)"/>
       </defs>
       <use xlink:href="#CMR17-30" transform="scale(0.996264)"/>
       <use xlink:href="#CMMI12-3a" transform="translate(45.690477 0) scale(0.996264)"/>
       <use xlink:href="#CMR17-36" transform="translate(72.787654 0) scale(0.996264)"/>
      </g>
     </g>
    </g>
    <g id="ytick_5">
     <g id="line2d_10">
      <g>
       <use xlink:href="#mf4dac5f9a6" x="88.532127" y="184.243276" style="fill: #262626; stroke: #262626; stroke-width: 0.8"/>
      </g>
     </g>
     <g id="text_10">
      <!-- $\mathdefault{0.8}$ -->
      <g style="fill: #262626" transform="translate(38.88 196.696576) scale(0.36 -0.36)">
       <defs>
        <path id="CMR17-38" d="M 1741 2264 
C 2144 2467 2554 2773 2554 3263 
C 2554 3841 1990 4179 1472 4179 
C 890 4179 378 3759 378 3180 
C 378 3021 416 2747 666 2505 
C 730 2442 998 2251 1171 2130 
C 883 1983 211 1634 211 934 
C 211 279 838 -128 1459 -128 
C 2144 -128 2720 362 2720 1010 
C 2720 1590 2330 1857 2074 2029 
L 1741 2264 
z
M 902 2822 
C 851 2854 595 3051 595 3351 
C 595 3739 998 4032 1459 4032 
C 1965 4032 2336 3676 2336 3262 
C 2336 2669 1670 2331 1638 2331 
C 1632 2331 1626 2331 1574 2370 
L 902 2822 
z
M 2080 1519 
C 2176 1449 2483 1240 2483 851 
C 2483 381 2010 25 1472 25 
C 890 25 448 438 448 940 
C 448 1443 838 1862 1280 2060 
L 2080 1519 
z
" transform="scale(0.015625)"/>
       </defs>
       <use xlink:href="#CMR17-30" transform="scale(0.996264)"/>
       <use xlink:href="#CMMI12-3a" transform="translate(45.690477 0) scale(0.996264)"/>
       <use xlink:href="#CMR17-38" transform="translate(72.787654 0) scale(0.996264)"/>
      </g>
     </g>
    </g>
    <g id="ytick_6">
     <g id="line2d_11">
      <g>
       <use xlink:href="#mf4dac5f9a6" x="88.532127" y="67.941693" style="fill: #262626; stroke: #262626; stroke-width: 0.8"/>
      </g>
     </g>
     <g id="text_11">
      <!-- $\mathdefault{1.0}$ -->
      <g style="fill: #262626" transform="translate(38.88 80.394994) scale(0.36 -0.36)">
       <use xlink:href="#CMR17-31" transform="scale(0.996264)"/>
       <use xlink:href="#CMMI12-3a" transform="translate(45.690477 0) scale(0.996264)"/>
       <use xlink:href="#CMR17-30" transform="translate(72.787654 0) scale(0.996264)"/>
      </g>
     </g>
    </g>
   </g>
   <g id="line2d_12">
    <path d="M 88.532127 67.941693 
L 92.38784 89.597384 
L 96.47036 111.233727 
L 100.552879 131.639 
L 104.635398 150.90489 
L 108.717918 169.114702 
L 112.800437 186.344264 
L 117.109763 203.543876 
L 121.41909 219.802359 
L 125.728416 235.187169 
L 130.037742 249.759818 
L 134.347068 263.576502 
L 138.883201 277.360142 
L 143.419333 290.417909 
L 147.955466 302.799905 
L 152.491599 314.551983 
L 157.254538 326.259654 
L 162.017477 337.363715 
L 166.780417 347.904968 
L 171.543356 357.920826 
L 176.533102 367.887506 
L 181.522848 377.351495 
L 186.512594 386.346047 
L 191.729147 395.280643 
L 196.945699 403.767581 
L 202.162252 411.836283 
L 207.605611 419.839115 
L 213.048971 427.444214 
L 218.49233 434.677513 
L 224.162496 441.842532 
L 229.832662 448.654781 
L 235.729634 455.389777 
L 241.626607 461.791412 
L 247.750386 468.109612 
L 253.874165 474.11392 
L 260.224751 480.030923 
L 266.802143 485.848895 
L 273.379536 491.372158 
L 280.183735 496.796576 
L 287.214741 502.113576 
L 294.472553 507.315845 
L 301.730365 512.247299 
L 309.214984 517.068764 
L 316.92641 521.775229 
L 324.864642 526.362647 
L 333.029681 530.827861 
L 341.421527 535.168537 
L 350.266986 539.490834 
L 359.339251 543.674069 
L 368.638323 547.718869 
L 378.391009 551.716646 
L 388.370501 555.568255 
L 398.803606 559.356435 
L 409.690324 563.069933 
L 421.030656 566.699173 
L 432.824601 570.236168 
L 445.07216 573.674416 
L 457.773331 577.008793 
L 471.154923 580.289161 
L 484.990128 583.451835 
L 499.505752 586.542361 
L 514.701797 589.550788 
L 530.805068 592.509205 
L 547.588759 595.365269 
L 565.279677 598.14916 
L 583.877821 600.850237 
L 603.609998 603.489217 
L 624.476209 606.052653 
L 646.476453 608.529874 
L 669.837536 610.935075 
L 694.786266 613.276829 
L 721.322643 615.540686 
L 749.673472 617.732267 
L 779.838755 619.838711 
L 812.272104 621.877683 
L 846.973519 623.834494 
L 884.396614 625.720127 
L 924.995002 627.539567 
L 968.99549 629.284852 
L 995.758673 630.24631 
L 995.758673 630.24631 
" clip-path="url(#p2d3762c61c)" style="fill: none; stroke: #1f77b4; stroke-width: 5; stroke-linecap: round"/>
   </g>
   <g id="line2d_13">
    <path d="M 88.532127 67.941693 
L 91.253807 98.212641 
L 93.975487 126.177652 
L 96.923973 154.135307 
L 99.872459 179.908677 
L 102.820945 203.719668 
L 105.769432 225.762692 
L 108.717918 246.208655 
L 111.666404 265.20829 
L 114.841697 284.204561 
L 118.01699 301.825021 
L 121.192283 318.199468 
L 124.367576 333.44274 
L 127.542869 347.656737 
L 130.944968 361.846652 
L 134.347068 375.058087 
L 137.749167 387.379026 
L 141.151267 398.887779 
L 144.553366 409.654228 
L 148.182273 420.39058 
L 151.811179 430.421233 
L 155.440085 439.806735 
L 159.068991 448.601276 
L 162.924704 457.352247 
L 166.780417 465.543172 
L 170.63613 473.220861 
L 174.491842 480.427333 
L 178.574362 487.586053 
L 182.656881 494.299175 
L 186.739401 500.602942 
L 191.048727 506.848824 
L 195.358053 512.709464 
L 199.894186 518.496461 
L 204.430318 523.923534 
L 209.193258 529.266558 
L 213.956197 534.275404 
L 218.945943 539.194056 
L 223.935689 543.804079 
L 229.152242 548.321087 
L 234.595601 552.732334 
L 240.03896 556.861002 
L 245.709126 560.886669 
L 251.606099 564.800986 
L 257.729878 568.597322 
L 264.080464 572.270622 
L 270.657856 575.81726 
L 277.462055 579.234891 
L 284.493061 582.522309 
L 291.97768 585.774339 
L 299.689106 588.883046 
L 307.854145 591.932778 
L 316.472797 594.908558 
L 325.318256 597.728713 
L 334.844134 600.527908 
L 344.823626 603.223428 
L 355.256732 605.809985 
L 366.370257 608.333437 
L 378.164202 610.779212 
L 390.638567 613.135943 
L 403.793352 615.395181 
L 417.855363 617.584707 
L 433.051408 619.721545 
L 449.154679 621.759549 
L 466.61879 623.741574 
L 485.443741 625.648754 
L 505.629532 627.467207 
L 527.629775 629.221501 
L 551.444472 630.893818 
L 577.527235 632.498047 
L 606.104871 634.027992 
L 637.404187 635.477506 
L 672.105603 636.857903 
L 710.662731 638.164659 
L 753.755992 639.398095 
L 802.292612 640.559768 
L 857.179818 641.646284 
L 920.005256 642.662141 
L 992.356573 643.604189 
L 995.758673 643.643562 
L 995.758673 643.643562 
" clip-path="url(#p2d3762c61c)" style="fill: none; stroke: #ff7f0e; stroke-width: 5; stroke-linecap: round"/>
   </g>
   <g id="line2d_14">
    <path d="M 88.532127 67.941693 
L 90.800194 105.470285 
L 93.06826 139.474516 
L 95.336326 170.38272 
L 97.831199 201.240009 
L 100.326072 229.205305 
L 102.820945 254.629364 
L 105.315818 277.811293 
L 107.810691 299.007425 
L 110.305564 318.438455 
L 113.027244 337.846413 
L 115.748924 355.594309 
L 118.470603 371.86636 
L 121.192283 386.821903 
L 123.913963 400.599326 
L 126.862449 414.334961 
L 129.810935 426.962871 
L 132.759421 438.599126 
L 135.707908 449.344973 
L 138.656394 459.289054 
L 141.831687 469.190529 
L 145.00698 478.337669 
L 148.182273 486.805243 
L 151.357566 494.658979 
L 154.532858 501.956841 
L 157.934958 509.217264 
L 161.337058 515.954088 
L 164.739157 522.216503 
L 168.368063 528.422476 
L 171.996969 534.184904 
L 175.625876 539.545091 
L 179.481588 544.84042 
L 183.337301 549.761818 
L 187.419821 554.603314 
L 191.50234 559.100267 
L 195.811666 563.508508 
L 200.120992 567.601633 
L 204.657125 571.601965 
L 209.420064 575.494537 
L 214.183004 579.102127 
L 219.17275 582.605404 
L 224.389302 585.995185 
L 229.832662 589.264496 
L 235.502828 592.408351 
L 241.3998 595.423536 
L 247.523579 598.308387 
L 254.100972 601.156796 
L 260.905171 603.86 
L 268.162983 606.50056 
L 275.874409 609.062351 
L 284.039448 611.532717 
L 292.6581 613.902179 
L 301.730365 616.1641 
L 311.483051 618.362959 
L 321.916156 620.482355 
L 333.029681 622.510035 
L 345.050433 624.472466 
L 357.978411 626.35287 
L 371.813616 628.139272 
L 387.009661 629.872534 
L 403.339739 631.509489 
L 421.257463 633.080004 
L 440.98964 634.582231 
L 462.763077 636.011787 
L 486.804581 637.363175 
L 513.567764 638.640906 
L 543.50624 639.84401 
L 577.300429 640.975529 
L 615.857557 642.038358 
L 660.084851 643.028515 
L 711.116344 643.942895 
L 770.993296 644.786923 
L 841.983773 645.558275 
L 927.489875 646.257618 
L 995.758673 646.688976 
L 995.758673 646.688976 
" clip-path="url(#p2d3762c61c)" style="fill: none; stroke: #2ca02c; stroke-width: 5; stroke-linecap: round"/>
   </g>
   <g id="line2d_15">
    <path d="M 88.532127 67.941693 
L 90.573387 112.608641 
L 92.614647 152.310397 
L 94.655906 187.757483 
L 96.697166 219.537599 
L 98.738426 248.140268 
L 101.006492 276.691294 
L 103.274559 302.295586 
L 105.542625 325.345585 
L 107.810691 346.170456 
L 110.078758 365.047955 
L 112.346824 382.21378 
L 114.841697 399.358283 
L 117.33657 414.902178 
L 119.831443 429.038868 
L 122.326316 441.933381 
L 124.821189 453.727227 
L 127.542869 465.480729 
L 130.264548 476.20524 
L 132.986228 486.017558 
L 135.707908 495.018358 
L 138.429587 503.294791 
L 141.378074 511.531116 
L 144.32656 519.089659 
L 147.275046 526.042852 
L 150.223532 532.453697 
L 153.398825 538.814096 
L 156.574118 544.669123 
L 159.749411 550.070967 
L 163.151511 555.407477 
L 166.55361 560.325052 
L 169.95571 564.86645 
L 173.584616 569.338066 
L 177.213522 573.463967 
L 181.069235 577.50774 
L 184.924948 581.236867 
L 189.007467 584.877712 
L 193.316793 588.413212 
L 197.626119 591.665907 
L 202.162252 594.816528 
L 206.925191 597.855037 
L 211.914937 600.774023 
L 217.13149 603.56841 
L 222.574849 606.235175 
L 228.471822 608.869887 
L 234.595601 611.35871 
L 241.172994 613.785063 
L 247.977193 616.058887 
L 255.235005 618.252567 
L 262.946431 620.354541 
L 271.338276 622.409283 
L 280.410542 624.394922 
L 290.163227 626.294951 
L 300.596332 628.097726 
L 311.936664 629.828356 
L 324.184222 631.471206 
L 337.565814 633.040861 
L 352.308245 634.543369 
L 368.638323 635.978749 
L 386.556047 637.327431 
L 406.515031 638.604294 
L 428.968888 639.813591 
L 454.371232 640.952859 
L 483.175675 642.016226 
L 516.062637 643.003201 
L 554.166152 643.919295 
L 598.847059 644.764875 
L 651.919812 645.539404 
L 715.879283 646.242076 
L 794.35438 646.872796 
L 892.78846 647.431806 
L 995.758673 647.842149 
L 995.758673 647.842149 
" clip-path="url(#p2d3762c61c)" style="fill: none; stroke: #d62728; stroke-width: 5; stroke-linecap: round"/>
   </g>
   <g id="line2d_16">
    <path d="M 88.532127 67.941693 
L 90.34658 117.328197 
L 92.161033 160.665864 
L 93.975487 198.905247 
L 95.78994 232.817029 
L 97.604393 263.031411 
L 99.645652 293.246191 
L 101.686912 320.044135 
L 103.728172 343.922362 
L 105.769432 365.290672 
L 107.810691 384.489339 
L 110.078758 403.620937 
L 112.346824 420.749519 
L 114.61489 436.14556 
L 116.882957 450.035339 
L 119.151023 462.609331 
L 121.41909 474.028803 
L 123.913963 485.419983 
L 126.408836 495.735125 
L 128.903709 505.105737 
L 131.398582 513.64382 
L 133.893455 521.445239 
L 136.615134 529.212285 
L 139.336814 536.292459 
L 142.058493 542.764491 
L 144.780173 548.696143 
L 147.728659 554.580036 
L 150.677146 559.962642 
L 153.625632 564.899371 
L 156.800925 569.772068 
L 159.976218 574.23497 
L 163.151511 578.332805 
L 166.55361 582.362187 
L 169.95571 586.058282 
L 173.584616 589.673662 
L 177.440329 593.18602 
L 181.296042 596.397421 
L 185.378561 599.506786 
L 189.687887 602.50119 
L 194.22402 605.371122 
L 198.986959 608.110101 
L 203.976705 610.714289 
L 209.193258 613.182101 
L 214.636617 615.513836 
L 220.53359 617.79475 
L 226.884175 620.003016 
L 233.461568 622.055025 
L 240.71938 624.079782 
L 248.430806 625.994501 
L 256.822651 627.841754 
L 265.894917 629.60349 
L 275.647602 631.2673 
L 286.307514 632.857265 
L 298.101459 634.384872 
L 311.029438 635.828925 
L 325.318256 637.195909 
L 341.19472 638.486556 
L 358.885638 639.698247 
L 378.844622 640.838785 
L 401.525285 641.907691 
L 427.608049 642.907981 
L 457.773331 643.835157 
L 492.92836 644.686867 
L 534.660781 645.468246 
L 584.785048 646.176684 
L 646.249646 646.814309 
L 723.137096 647.380062 
L 822.024789 647.874826 
L 953.799445 648.299483 
L 995.758673 648.399012 
L 995.758673 648.399012 
" clip-path="url(#p2d3762c61c)" style="fill: none; stroke: #9467bd; stroke-width: 5; stroke-linecap: round"/>
   </g>
   <g id="line2d_17">
    <path d="M 88.532127 67.941693 
L 90.119774 119.710866 
L 91.70742 164.84352 
L 93.295067 204.429568 
L 95.10952 243.993132 
L 96.923973 278.493404 
L 98.738426 308.760371 
L 100.552879 335.460451 
L 102.367332 359.133745 
L 104.181785 380.221744 
L 106.223045 401.30591 
L 108.264305 420.002204 
L 110.305564 436.65854 
L 112.346824 451.561637 
L 114.388084 464.949507 
L 116.65615 478.288622 
L 118.924217 490.229434 
L 121.192283 500.96099 
L 123.460349 510.641407 
L 125.728416 519.403759 
L 128.223289 528.115904 
L 130.718162 535.979831 
L 133.213035 543.102288 
L 135.707908 549.57373 
L 138.202781 555.471219 
L 140.92446 561.327528 
L 143.64614 566.652371 
L 146.36782 571.508217 
L 149.316306 576.301387 
L 152.264792 580.665158 
L 155.213278 584.649371 
L 158.388571 588.564552 
L 161.563864 592.134988 
L 164.965964 595.622483 
L 168.368063 598.800796 
L 171.996969 601.890134 
L 175.852682 604.87252 
L 179.935202 607.734349 
L 184.017721 610.328959 
L 188.327047 612.813407 
L 192.86318 615.181169 
L 197.852926 617.529796 
L 203.069479 619.735921 
L 208.739645 621.883965 
L 214.636617 623.879776 
L 220.987203 625.795896 
L 227.791402 627.619188 
L 235.276021 629.391411 
L 243.44106 631.089242 
L 252.286519 632.696141 
L 262.039204 634.234853 
L 272.699116 635.686066 
L 284.493061 637.062176 
L 297.647846 638.36684 
L 312.390277 639.598129 
L 328.947162 640.751186 
L 347.772113 641.832195 
L 369.318743 642.83927 
L 394.040666 643.766812 
L 423.071916 644.626717 
L 457.319718 645.411829 
L 498.598526 646.127423 
L 548.949599 646.76943 
L 612.001844 647.341232 
L 692.745007 647.84079 
L 800.024546 648.27035 
L 949.036506 648.630393 
L 995.758673 648.709673 
L 995.758673 648.709673 
" clip-path="url(#p2d3762c61c)" style="fill: none; stroke: #8c564b; stroke-width: 5; stroke-linecap: round"/>
   </g>
   <g id="line2d_18">
    <path d="M 88.532127 67.941693 
L 90.119774 127.753615 
L 91.70742 178.762032 
L 93.295067 222.617265 
L 94.882713 260.599665 
L 96.47036 293.714983 
L 98.058006 322.762215 
L 99.872459 351.794549 
L 101.686912 377.112729 
L 103.501365 399.325371 
L 105.315818 418.921194 
L 107.130271 436.296309 
L 109.171531 453.589755 
L 111.212791 468.8568 
L 113.254051 482.402548 
L 115.29531 494.476707 
L 117.33657 505.285248 
L 119.37783 514.999289 
L 121.645896 524.682277 
L 123.913963 533.354018 
L 126.182029 541.150735 
L 128.450095 548.186444 
L 130.718162 554.557161 
L 133.213035 560.893573 
L 135.707908 566.615016 
L 138.202781 571.798647 
L 140.92446 576.916745 
L 143.64614 581.544395 
L 146.36782 585.74237 
L 149.316306 589.865005 
L 152.264792 593.59959 
L 155.213278 596.993381 
L 158.388571 600.313167 
L 161.790671 603.53176 
L 165.19277 606.443856 
L 168.821677 609.254681 
L 172.677389 611.949321 
L 176.759909 614.517198 
L 181.069235 616.95153 
L 185.605368 619.248773 
L 190.368307 621.408071 
L 195.358053 623.430751 
L 200.801412 625.397271 
L 206.698385 627.286081 
L 213.048971 629.081564 
L 219.85317 630.773355 
L 227.337789 632.401714 
L 235.502828 633.946453 
L 244.575093 635.428682 
L 254.554585 636.82617 
L 265.66811 638.14986 
L 277.915669 639.380984 
L 291.750873 640.5442 
L 307.400531 641.63244 
L 325.318256 642.650123 
L 345.95766 643.594005 
L 369.999163 644.465073 
L 398.349993 645.263697 
L 432.370988 645.992169 
L 473.876602 646.649622 
L 525.361709 647.233887 
L 591.135633 647.747868 
L 677.775769 648.19109 
L 797.076059 648.565053 
L 970.583136 648.869711 
L 995.758673 648.900458 
L 995.758673 648.900458 
" clip-path="url(#p2d3762c61c)" style="fill: none; stroke: #e377c2; stroke-width: 5; stroke-linecap: round"/>
   </g>
   <g id="line2d_19">
    <path d="M 88.532127 67.941693 
L 89.892967 126.718488 
L 91.253807 176.982439 
L 92.841453 226.941485 
L 94.4291 269.35088 
L 96.016746 305.661935 
L 97.604393 336.992692 
L 99.192039 364.215832 
L 100.779686 388.020643 
L 102.594139 411.741306 
L 104.408592 432.366274 
L 106.223045 450.412616 
L 108.037498 466.293649 
L 109.851951 480.342974 
L 111.666404 492.832257 
L 113.707664 505.29413 
L 115.748924 516.322846 
L 117.790183 526.130327 
L 119.831443 534.890683 
L 121.872703 542.748034 
L 124.140769 550.564779 
L 126.408836 557.551612 
L 128.676902 563.822126 
L 130.944968 569.471106 
L 133.439841 575.061731 
L 135.934714 580.085188 
L 138.429587 584.615758 
L 140.92446 588.715937 
L 143.64614 592.759929 
L 146.36782 596.412562 
L 149.316306 599.984542 
L 152.264792 603.207039 
L 155.440085 606.337105 
L 158.615378 609.159459 
L 162.017477 611.886217 
L 165.646384 614.500223 
L 169.502096 616.989239 
L 173.584616 619.345339 
L 177.893942 621.564267 
L 182.430075 623.644807 
L 187.193014 625.588193 
L 192.409567 627.474862 
L 198.079733 629.282371 
L 204.203512 630.994763 
L 210.780904 632.601775 
L 218.038717 634.142825 
L 225.976949 635.598001 
L 234.822408 636.987661 
L 244.575093 638.29046 
L 255.461812 639.517126 
L 267.70937 640.669896 
L 281.544575 641.746069 
L 297.421039 642.753877 
L 315.792377 643.691355 
L 337.112201 644.551861 
L 362.514544 645.347004 
L 392.906633 646.067684 
L 430.102922 646.717927 
L 476.371475 647.294872 
L 535.568008 647.800585 
L 614.043104 648.236563 
L 722.456676 648.602416 
L 881.448128 648.899441 
L 995.758673 649.025956 
L 995.758673 649.025956 
" clip-path="url(#p2d3762c61c)" style="fill: none; stroke: #7f7f7f; stroke-width: 5; stroke-linecap: round"/>
   </g>
   <g id="line2d_20">
    <path d="M 88.532127 67.941693 
L 89.892967 133.531533 
L 91.253807 188.575945 
L 92.614647 235.226251 
L 93.975487 275.110783 
L 95.563133 314.74448 
L 97.150779 348.381537 
L 98.738426 377.176066 
L 100.326072 402.01686 
L 101.913719 423.597455 
L 103.501365 442.465491 
L 105.315818 461.264166 
L 107.130271 477.607236 
L 108.944725 491.905221 
L 110.759178 504.486195 
L 112.573631 515.614908 
L 114.388084 525.506918 
L 116.429344 535.376275 
L 118.470603 544.109805 
L 120.511863 551.875582 
L 122.553123 558.811668 
L 124.594382 565.032331 
L 126.862449 571.220397 
L 129.130515 576.751078 
L 131.398582 581.714404 
L 133.666648 586.18549 
L 136.161521 590.610124 
L 138.656394 594.585646 
L 141.151267 598.170906 
L 143.872947 601.69497 
L 146.594626 604.867391 
L 149.543112 607.959745 
L 152.491599 610.740788 
L 155.666892 613.433872 
L 159.068991 616.018583 
L 162.697897 618.480171 
L 166.55361 620.808877 
L 170.63613 622.999196 
L 174.945456 625.049152 
L 179.481588 626.959601 
L 184.471334 628.812781 
L 189.914694 630.584567 
L 195.811666 632.258085 
L 202.162252 633.822772 
L 209.193258 635.318135 
L 216.904683 636.723954 
L 225.523336 638.060336 
L 235.049214 639.306243 
L 245.709126 640.472471 
L 257.729878 641.561473 
L 271.565083 642.586221 
L 287.441547 643.533868 
L 306.039692 644.413911 
L 327.813129 645.215627 
L 353.895892 645.947126 
L 385.648821 646.607598 
L 425.113176 647.197211 
L 475.464249 647.716509 
L 541.691787 648.165017 
L 632.414441 648.543201 
L 763.96229 648.852407 
L 969.902716 649.09336 
L 995.758673 649.112882 
L 995.758673 649.112882 
" clip-path="url(#p2d3762c61c)" style="fill: none; stroke: #bcbd22; stroke-width: 5; stroke-linecap: round"/>
   </g>
   <g id="line2d_21">
    <path d="M 88.532127 67.941693 
L 89.892967 140.233407 
L 91.253807 199.780123 
L 92.614647 249.41948 
L 93.975487 291.239486 
L 95.336326 326.804579 
L 96.697166 357.305874 
L 98.284813 387.706343 
L 99.872459 413.582384 
L 101.460106 435.791178 
L 103.047752 454.995791 
L 104.635398 471.715696 
L 106.223045 486.36258 
L 108.037498 500.983409 
L 109.851951 513.717995 
L 111.666404 524.877927 
L 113.480857 534.712934 
L 115.29531 543.425071 
L 117.33657 552.088194 
L 119.37783 559.729246 
L 121.41909 566.503128 
L 123.460349 572.536439 
L 125.501609 577.933468 
L 127.769675 583.288667 
L 130.037742 588.06314 
L 132.305808 592.338016 
L 134.800681 596.543477 
L 137.295554 600.300286 
L 139.790427 603.670129 
L 142.512107 606.965195 
L 145.233786 609.916428 
L 148.182273 612.779069 
L 151.130759 615.341291 
L 154.306052 617.811109 
L 157.708151 620.170707 
L 161.337058 622.407737 
L 165.19277 624.514577 
L 169.27529 626.487572 
L 173.584616 628.32628 
L 178.347555 630.112618 
L 183.564108 631.820737 
L 189.234274 633.432581 
L 195.358053 634.936893 
L 202.162252 636.372389 
L 209.646871 637.718387 
L 218.038717 638.994269 
L 227.337789 640.179138 
L 237.997701 641.305284 
L 250.018452 642.345334 
L 263.853657 643.313335 
L 279.956928 644.209997 
L 298.781879 645.029568 
L 321.235736 645.778264 
L 348.452533 646.455878 
L 382.019915 647.061329 
L 424.659562 647.597897 
L 480.227188 648.063159 
L 555.526992 648.458108 
L 663.033337 648.783815 
L 827.921762 649.041253 
L 995.758673 649.175563 
L 995.758673 649.175563 
" clip-path="url(#p2d3762c61c)" style="fill: none; stroke: #17becf; stroke-width: 5; stroke-linecap: round"/>
   </g>
   <g id="patch_3">
    <path d="M 88.532127 678.237256 
L 88.532127 38.88 
" style="fill: none; stroke: #262626; stroke-width: 0.8; stroke-linejoin: miter; stroke-linecap: square"/>
   </g>
   <g id="patch_4">
    <path d="M 88.532127 678.237256 
L 1041.12 678.237256 
" style="fill: none; stroke: #262626; stroke-width: 0.8; stroke-linejoin: miter; stroke-linecap: square"/>
   </g>
  </g>
 </g>
 <defs>
  <clipPath id="p2d3762c61c">
   <rect x="88.532127" y="38.88" width="952.587873" height="639.357256"/>
  </clipPath>
 </defs>
</svg>
