<?xml version="1.0" encoding="utf-8" standalone="no"?>
<!DOCTYPE svg PUBLIC "-//W3C//DTD SVG 1.1//EN"
  "http://www.w3.org/Graphics/SVG/1.1/DTD/svg11.dtd">
<svg xmlns:xlink="http://www.w3.org/1999/xlink" width="1080pt" height="576pt" viewBox="0 0 1080 576" xmlns="http://www.w3.org/2000/svg" version="1.1">
 <metadata>
  <rdf:RDF xmlns:dc="http://purl.org/dc/elements/1.1/" xmlns:cc="http://creativecommons.org/ns#" xmlns:rdf="http://www.w3.org/1999/02/22-rdf-syntax-ns#">
   <cc:Work>
    <dc:type rdf:resource="http://purl.org/dc/dcmitype/StillImage"/>
    <dc:date>2024-07-24T00:51:20.635427</dc:date>
    <dc:format>image/svg+xml</dc:format>
    <dc:creator>
     <cc:Agent>
      <dc:title>Matplotlib v3.9.0, https://matplotlib.org/</dc:title>
     </cc:Agent>
    </dc:creator>
   </cc:Work>
  </rdf:RDF>
 </metadata>
 <defs>
  <style type="text/css">*{stroke-linejoin: round; stroke-linecap: butt}</style>
 </defs>
 <g id="figure_1">
  <g id="patch_1">
   <path d="M 0 576 
L 1080 576 
L 1080 0 
L 0 0 
z
" style="fill: #ffffff"/>
  </g>
  <g id="axes_1">
   <g id="patch_2">
    <path d="M 46.383522 535.390936 
L 1060.56 535.390936 
L 1060.56 19.44 
L 46.383522 19.44 
z
" style="fill: #eaeaf2"/>
   </g>
   <g id="matplotlib.axis_1">
    <g id="xtick_1">
     <g id="line2d_1">
      <path d="M 46.383522 535.390936 
L 46.383522 19.44 
" clip-path="url(#p1858235192)" style="fill: none; stroke: #ffffff; stroke-width: 0.8; stroke-linecap: round"/>
     </g>
     <g id="text_1">
      <!-- $\mathdefault{0}$ -->
      <g style="fill: #262626" transform="translate(42.481529 553.460524) scale(0.16 -0.16)">
       <defs>
        <path id="CMR17-30" d="M 2688 2025 
C 2688 2416 2682 3080 2413 3591 
C 2176 4039 1798 4198 1466 4198 
C 1158 4198 768 4058 525 3597 
C 269 3118 243 2524 243 2025 
C 243 1661 250 1106 448 619 
C 723 -39 1216 -128 1466 -128 
C 1760 -128 2208 -7 2470 600 
C 2662 1042 2688 1559 2688 2025 
z
M 1466 -26 
C 1056 -26 813 325 723 812 
C 653 1188 653 1738 653 2096 
C 653 2588 653 2997 736 3387 
C 858 3929 1216 4096 1466 4096 
C 1728 4096 2067 3923 2189 3400 
C 2272 3036 2278 2607 2278 2096 
C 2278 1680 2278 1169 2202 792 
C 2067 95 1690 -26 1466 -26 
z
" transform="scale(0.015625)"/>
       </defs>
       <use xlink:href="#CMR17-30" transform="scale(0.996264)"/>
      </g>
     </g>
    </g>
    <g id="xtick_2">
     <g id="line2d_2">
      <path d="M 167.118817 535.390936 
L 167.118817 19.44 
" clip-path="url(#p1858235192)" style="fill: none; stroke: #ffffff; stroke-width: 0.8; stroke-linecap: round"/>
     </g>
     <g id="text_2">
      <!-- $\mathdefault{250}$ -->
      <g style="fill: #262626" transform="translate(155.412837 553.460524) scale(0.16 -0.16)">
       <defs>
        <path id="CMR17-32" d="M 2669 989 
L 2554 989 
C 2490 536 2438 459 2413 420 
C 2381 369 1920 369 1830 369 
L 602 369 
C 832 619 1280 1072 1824 1597 
C 2214 1967 2669 2402 2669 3035 
C 2669 3790 2067 4224 1395 4224 
C 691 4224 262 3604 262 3030 
C 262 2780 448 2748 525 2748 
C 589 2748 781 2787 781 3010 
C 781 3207 614 3264 525 3264 
C 486 3264 448 3258 422 3245 
C 544 3790 915 4058 1306 4058 
C 1862 4058 2227 3617 2227 3035 
C 2227 2479 1901 2000 1536 1584 
L 262 146 
L 262 0 
L 2515 0 
L 2669 989 
z
" transform="scale(0.015625)"/>
        <path id="CMR17-35" d="M 730 3692 
C 794 3666 1056 3584 1325 3584 
C 1920 3584 2246 3911 2432 4100 
C 2432 4157 2432 4192 2394 4192 
C 2387 4192 2374 4192 2323 4163 
C 2099 4058 1837 3973 1517 3973 
C 1325 3973 1037 3999 723 4139 
C 653 4171 640 4171 634 4171 
C 602 4171 595 4164 595 4037 
L 595 2203 
C 595 2089 595 2057 659 2057 
C 691 2057 704 2070 736 2114 
C 941 2401 1222 2522 1542 2522 
C 1766 2522 2246 2382 2246 1289 
C 2246 1085 2246 715 2054 421 
C 1894 159 1645 25 1370 25 
C 947 25 518 320 403 814 
C 429 807 480 795 506 795 
C 589 795 749 840 749 1038 
C 749 1210 627 1280 506 1280 
C 358 1280 262 1190 262 1011 
C 262 454 704 -128 1382 -128 
C 2042 -128 2669 440 2669 1264 
C 2669 2030 2170 2624 1549 2624 
C 1222 2624 947 2503 730 2274 
L 730 3692 
z
" transform="scale(0.015625)"/>
       </defs>
       <use xlink:href="#CMR17-32" transform="scale(0.996264)"/>
       <use xlink:href="#CMR17-35" transform="translate(45.690477 0) scale(0.996264)"/>
       <use xlink:href="#CMR17-30" transform="translate(91.380954 0) scale(0.996264)"/>
      </g>
     </g>
    </g>
    <g id="xtick_3">
     <g id="line2d_3">
      <path d="M 287.854112 535.390936 
L 287.854112 19.44 
" clip-path="url(#p1858235192)" style="fill: none; stroke: #ffffff; stroke-width: 0.8; stroke-linecap: round"/>
     </g>
     <g id="text_3">
      <!-- $\mathdefault{500}$ -->
      <g style="fill: #262626" transform="translate(276.148132 553.460524) scale(0.16 -0.16)">
       <use xlink:href="#CMR17-35" transform="scale(0.996264)"/>
       <use xlink:href="#CMR17-30" transform="translate(45.690477 0) scale(0.996264)"/>
       <use xlink:href="#CMR17-30" transform="translate(91.380954 0) scale(0.996264)"/>
      </g>
     </g>
    </g>
    <g id="xtick_4">
     <g id="line2d_4">
      <path d="M 408.589407 535.390936 
L 408.589407 19.44 
" clip-path="url(#p1858235192)" style="fill: none; stroke: #ffffff; stroke-width: 0.8; stroke-linecap: round"/>
     </g>
     <g id="text_4">
      <!-- $\mathdefault{750}$ -->
      <g style="fill: #262626" transform="translate(396.883427 553.460524) scale(0.16 -0.16)">
       <defs>
        <path id="CMR17-37" d="M 2886 3941 
L 2886 4081 
L 1382 4081 
C 634 4081 621 4165 595 4288 
L 480 4288 
L 294 3094 
L 410 3094 
C 429 3215 474 3540 550 3661 
C 589 3712 1062 3712 1171 3712 
L 2579 3712 
L 1869 2661 
C 1395 1954 1069 999 1069 165 
C 1069 89 1069 -128 1299 -128 
C 1530 -128 1530 89 1530 171 
L 1530 465 
C 1530 1508 1709 2196 2003 2636 
L 2886 3941 
z
" transform="scale(0.015625)"/>
       </defs>
       <use xlink:href="#CMR17-37" transform="scale(0.996264)"/>
       <use xlink:href="#CMR17-35" transform="translate(45.690477 0) scale(0.996264)"/>
       <use xlink:href="#CMR17-30" transform="translate(91.380954 0) scale(0.996264)"/>
      </g>
     </g>
    </g>
    <g id="xtick_5">
     <g id="line2d_5">
      <path d="M 529.324702 535.390936 
L 529.324702 19.44 
" clip-path="url(#p1858235192)" style="fill: none; stroke: #ffffff; stroke-width: 0.8; stroke-linecap: round"/>
     </g>
     <g id="text_5">
      <!-- $\mathdefault{1000}$ -->
      <g style="fill: #262626" transform="translate(513.716728 553.460524) scale(0.16 -0.16)">
       <defs>
        <path id="CMR17-31" d="M 1702 4058 
C 1702 4192 1696 4192 1606 4192 
C 1357 3916 979 3827 621 3827 
C 602 3827 570 3827 563 3808 
C 557 3795 557 3782 557 3648 
C 755 3648 1088 3686 1344 3839 
L 1344 461 
C 1344 236 1331 160 781 160 
L 589 160 
L 589 0 
C 896 0 1216 0 1523 0 
C 1830 0 2150 0 2458 0 
L 2458 160 
L 2266 160 
C 1715 160 1702 230 1702 458 
L 1702 4058 
z
" transform="scale(0.015625)"/>
       </defs>
       <use xlink:href="#CMR17-31" transform="scale(0.996264)"/>
       <use xlink:href="#CMR17-30" transform="translate(45.690477 0) scale(0.996264)"/>
       <use xlink:href="#CMR17-30" transform="translate(91.380954 0) scale(0.996264)"/>
       <use xlink:href="#CMR17-30" transform="translate(137.071431 0) scale(0.996264)"/>
      </g>
     </g>
    </g>
    <g id="xtick_6">
     <g id="line2d_6">
      <path d="M 650.059997 535.390936 
L 650.059997 19.44 
" clip-path="url(#p1858235192)" style="fill: none; stroke: #ffffff; stroke-width: 0.8; stroke-linecap: round"/>
     </g>
     <g id="text_6">
      <!-- $\mathdefault{1250}$ -->
      <g style="fill: #262626" transform="translate(634.452023 553.460524) scale(0.16 -0.16)">
       <use xlink:href="#CMR17-31" transform="scale(0.996264)"/>
       <use xlink:href="#CMR17-32" transform="translate(45.690477 0) scale(0.996264)"/>
       <use xlink:href="#CMR17-35" transform="translate(91.380954 0) scale(0.996264)"/>
       <use xlink:href="#CMR17-30" transform="translate(137.071431 0) scale(0.996264)"/>
      </g>
     </g>
    </g>
    <g id="xtick_7">
     <g id="line2d_7">
      <path d="M 770.795292 535.390936 
L 770.795292 19.44 
" clip-path="url(#p1858235192)" style="fill: none; stroke: #ffffff; stroke-width: 0.8; stroke-linecap: round"/>
     </g>
     <g id="text_7">
      <!-- $\mathdefault{1500}$ -->
      <g style="fill: #262626" transform="translate(755.187318 553.460524) scale(0.16 -0.16)">
       <use xlink:href="#CMR17-31" transform="scale(0.996264)"/>
       <use xlink:href="#CMR17-35" transform="translate(45.690477 0) scale(0.996264)"/>
       <use xlink:href="#CMR17-30" transform="translate(91.380954 0) scale(0.996264)"/>
       <use xlink:href="#CMR17-30" transform="translate(137.071431 0) scale(0.996264)"/>
      </g>
     </g>
    </g>
    <g id="xtick_8">
     <g id="line2d_8">
      <path d="M 891.530587 535.390936 
L 891.530587 19.44 
" clip-path="url(#p1858235192)" style="fill: none; stroke: #ffffff; stroke-width: 0.8; stroke-linecap: round"/>
     </g>
     <g id="text_8">
      <!-- $\mathdefault{1750}$ -->
      <g style="fill: #262626" transform="translate(875.922613 553.460524) scale(0.16 -0.16)">
       <use xlink:href="#CMR17-31" transform="scale(0.996264)"/>
       <use xlink:href="#CMR17-37" transform="translate(45.690477 0) scale(0.996264)"/>
       <use xlink:href="#CMR17-35" transform="translate(91.380954 0) scale(0.996264)"/>
       <use xlink:href="#CMR17-30" transform="translate(137.071431 0) scale(0.996264)"/>
      </g>
     </g>
    </g>
    <g id="xtick_9">
     <g id="line2d_9">
      <path d="M 1012.265882 535.390936 
L 1012.265882 19.44 
" clip-path="url(#p1858235192)" style="fill: none; stroke: #ffffff; stroke-width: 0.8; stroke-linecap: round"/>
     </g>
     <g id="text_9">
      <!-- $\mathdefault{2000}$ -->
      <g style="fill: #262626" transform="translate(996.657908 553.460524) scale(0.16 -0.16)">
       <use xlink:href="#CMR17-32" transform="scale(0.996264)"/>
       <use xlink:href="#CMR17-30" transform="translate(45.690477 0) scale(0.996264)"/>
       <use xlink:href="#CMR17-30" transform="translate(91.380954 0) scale(0.996264)"/>
       <use xlink:href="#CMR17-30" transform="translate(137.071431 0) scale(0.996264)"/>
      </g>
     </g>
    </g>
   </g>
   <g id="matplotlib.axis_2">
    <g id="ytick_1">
     <g id="line2d_10">
      <path d="M 46.383522 512.381983 
L 1060.56 512.381983 
" clip-path="url(#p1858235192)" style="fill: none; stroke: #ffffff; stroke-width: 0.8; stroke-linecap: round"/>
     </g>
     <g id="text_10">
      <!-- $\mathdefault{0.0}$ -->
      <g style="fill: #262626" transform="translate(19.44 517.916777) scale(0.16 -0.16)">
       <defs>
        <path id="CMMI12-3a" d="M 1178 307 
C 1178 492 1024 619 870 619 
C 685 619 557 466 557 313 
C 557 128 710 0 864 0 
C 1050 0 1178 153 1178 307 
z
" transform="scale(0.015625)"/>
       </defs>
       <use xlink:href="#CMR17-30" transform="scale(0.996264)"/>
       <use xlink:href="#CMMI12-3a" transform="translate(45.690477 0) scale(0.996264)"/>
       <use xlink:href="#CMR17-30" transform="translate(72.787654 0) scale(0.996264)"/>
      </g>
     </g>
    </g>
    <g id="ytick_2">
     <g id="line2d_11">
      <path d="M 46.383522 418.484049 
L 1060.56 418.484049 
" clip-path="url(#p1858235192)" style="fill: none; stroke: #ffffff; stroke-width: 0.8; stroke-linecap: round"/>
     </g>
     <g id="text_11">
      <!-- $\mathdefault{0.2}$ -->
      <g style="fill: #262626" transform="translate(19.44 424.018843) scale(0.16 -0.16)">
       <use xlink:href="#CMR17-30" transform="scale(0.996264)"/>
       <use xlink:href="#CMMI12-3a" transform="translate(45.690477 0) scale(0.996264)"/>
       <use xlink:href="#CMR17-32" transform="translate(72.787654 0) scale(0.996264)"/>
      </g>
     </g>
    </g>
    <g id="ytick_3">
     <g id="line2d_12">
      <path d="M 46.383522 324.586116 
L 1060.56 324.586116 
" clip-path="url(#p1858235192)" style="fill: none; stroke: #ffffff; stroke-width: 0.8; stroke-linecap: round"/>
     </g>
     <g id="text_12">
      <!-- $\mathdefault{0.4}$ -->
      <g style="fill: #262626" transform="translate(19.44 330.12091) scale(0.16 -0.16)">
       <defs>
        <path id="CMR17-34" d="M 2150 4122 
C 2150 4256 2144 4256 2029 4256 
L 128 1254 
L 128 1088 
L 1779 1088 
L 1779 457 
C 1779 224 1766 160 1318 160 
L 1197 160 
L 1197 0 
C 1402 0 1747 0 1965 0 
C 2182 0 2528 0 2733 0 
L 2733 160 
L 2611 160 
C 2163 160 2150 224 2150 457 
L 2150 1088 
L 2803 1088 
L 2803 1254 
L 2150 1254 
L 2150 4122 
z
M 1798 3703 
L 1798 1254 
L 256 1254 
L 1798 3703 
z
" transform="scale(0.015625)"/>
       </defs>
       <use xlink:href="#CMR17-30" transform="scale(0.996264)"/>
       <use xlink:href="#CMMI12-3a" transform="translate(45.690477 0) scale(0.996264)"/>
       <use xlink:href="#CMR17-34" transform="translate(72.787654 0) scale(0.996264)"/>
      </g>
     </g>
    </g>
    <g id="ytick_4">
     <g id="line2d_13">
      <path d="M 46.383522 230.688182 
L 1060.56 230.688182 
" clip-path="url(#p1858235192)" style="fill: none; stroke: #ffffff; stroke-width: 0.8; stroke-linecap: round"/>
     </g>
     <g id="text_13">
      <!-- $\mathdefault{0.6}$ -->
      <g style="fill: #262626" transform="translate(19.44 236.222976) scale(0.16 -0.16)">
       <defs>
        <path id="CMR17-36" d="M 678 2176 
C 678 3690 1395 4032 1811 4032 
C 1946 4032 2272 4009 2400 3776 
C 2298 3776 2106 3776 2106 3553 
C 2106 3381 2246 3323 2336 3323 
C 2394 3323 2566 3348 2566 3560 
C 2566 3954 2246 4179 1805 4179 
C 1043 4179 243 3390 243 1984 
C 243 253 966 -128 1478 -128 
C 2099 -128 2688 427 2688 1283 
C 2688 2081 2170 2662 1517 2662 
C 1126 2662 838 2407 678 1960 
L 678 2176 
z
M 1478 25 
C 691 25 691 1200 691 1436 
C 691 1896 909 2560 1504 2560 
C 1613 2560 1926 2560 2138 2120 
C 2253 1870 2253 1609 2253 1289 
C 2253 944 2253 690 2118 434 
C 1978 171 1773 25 1478 25 
z
" transform="scale(0.015625)"/>
       </defs>
       <use xlink:href="#CMR17-30" transform="scale(0.996264)"/>
       <use xlink:href="#CMMI12-3a" transform="translate(45.690477 0) scale(0.996264)"/>
       <use xlink:href="#CMR17-36" transform="translate(72.787654 0) scale(0.996264)"/>
      </g>
     </g>
    </g>
    <g id="ytick_5">
     <g id="line2d_14">
      <path d="M 46.383522 136.790249 
L 1060.56 136.790249 
" clip-path="url(#p1858235192)" style="fill: none; stroke: #ffffff; stroke-width: 0.8; stroke-linecap: round"/>
     </g>
     <g id="text_14">
      <!-- $\mathdefault{0.8}$ -->
      <g style="fill: #262626" transform="translate(19.44 142.325043) scale(0.16 -0.16)">
       <defs>
        <path id="CMR17-38" d="M 1741 2264 
C 2144 2467 2554 2773 2554 3263 
C 2554 3841 1990 4179 1472 4179 
C 890 4179 378 3759 378 3180 
C 378 3021 416 2747 666 2505 
C 730 2442 998 2251 1171 2130 
C 883 1983 211 1634 211 934 
C 211 279 838 -128 1459 -128 
C 2144 -128 2720 362 2720 1010 
C 2720 1590 2330 1857 2074 2029 
L 1741 2264 
z
M 902 2822 
C 851 2854 595 3051 595 3351 
C 595 3739 998 4032 1459 4032 
C 1965 4032 2336 3676 2336 3262 
C 2336 2669 1670 2331 1638 2331 
C 1632 2331 1626 2331 1574 2370 
L 902 2822 
z
M 2080 1519 
C 2176 1449 2483 1240 2483 851 
C 2483 381 2010 25 1472 25 
C 890 25 448 438 448 940 
C 448 1443 838 1862 1280 2060 
L 2080 1519 
z
" transform="scale(0.015625)"/>
       </defs>
       <use xlink:href="#CMR17-30" transform="scale(0.996264)"/>
       <use xlink:href="#CMMI12-3a" transform="translate(45.690477 0) scale(0.996264)"/>
       <use xlink:href="#CMR17-38" transform="translate(72.787654 0) scale(0.996264)"/>
      </g>
     </g>
    </g>
    <g id="ytick_6">
     <g id="line2d_15">
      <path d="M 46.383522 42.892315 
L 1060.56 42.892315 
" clip-path="url(#p1858235192)" style="fill: none; stroke: #ffffff; stroke-width: 0.8; stroke-linecap: round"/>
     </g>
     <g id="text_15">
      <!-- $\mathdefault{1.0}$ -->
      <g style="fill: #262626" transform="translate(19.44 48.427109) scale(0.16 -0.16)">
       <use xlink:href="#CMR17-31" transform="scale(0.996264)"/>
       <use xlink:href="#CMMI12-3a" transform="translate(45.690477 0) scale(0.996264)"/>
       <use xlink:href="#CMR17-30" transform="translate(72.787654 0) scale(0.996264)"/>
      </g>
     </g>
    </g>
   </g>
   <g id="line2d_16">
    <path d="M 46.383522 42.892315 
L 50.971464 58.141388 
L 55.800875 73.403832 
L 60.630287 87.909473 
L 65.459699 101.707546 
L 70.289111 114.843346 
L 75.118523 127.3586 
L 80.189405 139.873829 
L 85.260287 151.788394 
L 90.33117 163.140136 
L 95.402052 173.963964 
L 100.714405 184.77209 
L 106.026758 195.070415 
L 111.339111 204.890512 
L 116.651464 214.261546 
L 122.205288 223.607647 
L 127.759111 232.520895 
L 133.312935 241.02762 
L 139.108229 249.497106 
L 144.903523 257.576048 
L 150.940288 265.6018 
L 156.977053 273.254139 
L 163.013817 280.555881 
L 169.292053 287.800442 
L 175.570288 294.710549 
L 182.089994 301.554155 
L 188.6097 308.079929 
L 195.370876 314.532402 
L 202.132053 320.68387 
L 209.1347 326.757366 
L 216.378818 332.741435 
L 223.622935 338.440659 
L 231.108524 344.049508 
L 238.835583 349.55937 
L 246.804112 354.962767 
L 255.014112 360.253294 
L 263.224112 365.281467 
L 271.675583 370.201478 
L 280.368524 375.008887 
L 289.302936 379.700088 
L 298.720289 384.389357 
L 308.379112 388.945214 
L 318.279407 393.367036 
L 328.421171 397.654773 
L 339.045877 401.902792 
L 349.912054 406.007843 
L 361.261172 410.05574 
L 373.09323 414.034687 
L 385.16676 417.860251 
L 397.723231 421.606771 
L 410.762643 425.266402 
L 424.284996 428.83263 
L 438.53176 432.358063 
L 453.261466 435.773422 
L 468.715584 439.126906 
L 484.894114 442.407001 
L 501.797055 445.604071 
L 519.424408 448.710245 
L 538.017643 451.757454 
L 557.335291 454.697352 
L 577.61882 457.559873 
L 599.109703 460.366354 
L 621.807938 463.102745 
L 645.713527 465.757606 
L 670.826468 468.321928 
L 697.629703 470.832235 
L 725.881762 473.252864 
L 756.065586 475.612476 
L 788.181175 477.896159 
L 822.228528 480.09241 
L 858.690587 482.219608 
L 897.808822 484.276189 
L 939.824705 486.259287 
L 984.979705 488.165301 
L 1012.265882 489.217648 
L 1012.265882 489.217648 
" clip-path="url(#p1858235192)" style="fill: none; stroke: #393b79; stroke-width: 2; stroke-linecap: round"/>
   </g>
   <g id="line2d_17">
    <path d="M 46.383522 42.892315 
L 49.764111 65.134355 
L 53.144699 85.831231 
L 56.525287 105.122903 
L 59.905875 123.13383 
L 63.286464 139.974982 
L 66.667052 155.745564 
L 70.289111 171.555424 
L 73.91117 186.336113 
L 77.533228 200.175103 
L 81.155287 213.150762 
L 84.777346 225.333471 
L 88.640876 237.525609 
L 92.504405 248.956673 
L 96.367934 259.688742 
L 100.231464 269.777693 
L 104.094993 279.273923 
L 108.199993 288.765102 
L 112.304993 297.68788 
L 116.409993 306.086773 
L 120.514993 314.00202 
L 124.861464 321.896163 
L 129.207935 329.328072 
L 133.554405 336.333155 
L 138.142347 343.29976 
L 142.730288 349.860676 
L 147.318229 356.046813 
L 152.147641 362.184415 
L 156.977053 367.967383 
L 162.047935 373.68713 
L 167.118817 379.073529 
L 172.43117 384.386548 
L 177.743523 389.388022 
L 183.297347 394.309639 
L 188.85117 398.941531 
L 194.646465 403.49002 
L 200.683229 407.943057 
L 206.961465 412.290464 
L 213.2397 416.371863 
L 219.759406 420.351472 
L 226.520582 424.222607 
L 233.52323 427.979976 
L 240.767347 431.619569 
L 248.494406 435.248193 
L 256.462936 438.739866 
L 264.672936 442.095008 
L 273.365877 445.403521 
L 282.300289 448.566247 
L 291.717642 451.663352 
L 301.617936 454.682268 
L 312.001171 457.612743 
L 322.867348 460.446678 
L 334.216466 463.177947 
L 346.289995 465.853546 
L 359.087936 468.458163 
L 372.610289 470.979491 
L 386.857054 473.408008 
L 402.069701 475.772555 
L 418.248231 478.058611 
L 435.392643 480.255057 
L 453.744408 482.38043 
L 473.544996 484.445378 
L 494.794408 486.432877 
L 517.492643 488.330345 
L 542.122643 490.163057 
L 568.684408 491.914223 
L 597.660879 493.598466 
L 629.293526 495.210233 
L 663.823821 496.743704 
L 701.734703 498.202127 
L 743.750586 499.592216 
L 790.35441 500.90773 
L 842.512057 502.152909 
L 901.189411 503.325934 
L 967.593823 504.425481 
L 1012.265882 505.056215 
L 1012.265882 505.056215 
" clip-path="url(#p1858235192)" style="fill: none; stroke: #6b6ecf; stroke-width: 2; stroke-linecap: round"/>
   </g>
   <g id="line2d_18">
    <path d="M 46.383522 42.892315 
L 49.039699 68.9718 
L 51.695875 92.934622 
L 54.352052 115.003981 
L 57.249699 137.148061 
L 60.147346 157.489487 
L 63.044993 176.218891 
L 65.94264 193.50234 
L 68.840287 209.485041 
L 71.737934 224.294411 
L 74.877052 239.14361 
L 78.01617 252.872588 
L 81.155287 265.59133 
L 84.294405 277.396638 
L 87.433523 288.373986 
L 90.57264 298.599074 
L 93.953229 308.846381 
L 97.333817 318.373604 
L 100.714405 327.246704 
L 104.094993 335.524251 
L 107.717052 343.791314 
L 111.339111 351.491567 
L 114.96117 358.675695 
L 118.583229 365.388836 
L 122.446758 372.075723 
L 126.310288 378.316185 
L 130.173817 384.149112 
L 134.278817 389.93886 
L 138.383817 395.344925 
L 142.730288 400.687614 
L 147.076758 405.672429 
L 151.423229 410.330649 
L 156.01117 414.924159 
L 160.840582 419.432089 
L 165.669994 423.634162 
L 170.740876 427.746736 
L 175.811759 431.579785 
L 181.124112 435.322515 
L 186.677935 438.963872 
L 192.473229 442.494965 
L 198.509994 445.908895 
L 204.788229 449.200572 
L 211.307935 452.366531 
L 218.069112 455.404747 
L 225.313229 458.410778 
L 232.798818 461.273709 
L 240.767347 464.077956 
L 248.977347 466.732409 
L 257.670289 469.31131 
L 266.846171 471.803313 
L 276.746465 474.256945 
L 287.1297 476.598575 
L 298.237348 478.872443 
L 310.069407 481.06411 
L 322.625877 483.162783 
L 336.14823 485.195337 
L 350.636466 487.146326 
L 366.332054 489.031958 
L 383.234995 490.835608 
L 401.58676 492.56698 
L 421.628819 494.229691 
L 443.361172 495.806666 
L 467.266761 497.315121 
L 493.587055 498.749475 
L 522.804996 500.114281 
L 555.162055 501.399519 
L 591.382644 502.612377 
L 632.191173 503.752801 
L 678.553527 504.821819 
L 731.677057 505.819413 
L 793.252057 506.747031 
L 865.210293 507.601821 
L 950.20794 508.382653 
L 1012.265882 508.837902 
L 1012.265882 508.837902 
" clip-path="url(#p1858235192)" style="fill: none; stroke: #8ca252; stroke-width: 2; stroke-linecap: round"/>
   </g>
   <g id="line2d_19">
    <path d="M 46.383522 42.892315 
L 48.798228 74.262408 
L 51.212934 102.585616 
L 53.62764 128.244535 
L 56.042346 151.563493 
L 58.457052 172.818885 
L 60.871758 192.247441 
L 63.527934 211.751129 
L 66.184111 229.523059 
L 68.840287 245.762528 
L 71.496464 260.640947 
L 74.15264 274.306398 
L 76.808817 286.887344 
L 79.706464 299.506227 
L 82.604111 311.093636 
L 85.501758 321.759087 
L 88.399405 331.597927 
L 91.297052 340.693486 
L 94.43617 349.792775 
L 97.575287 358.186726 
L 100.714405 365.946448 
L 103.853523 373.134306 
L 107.234111 380.298335 
L 110.614699 386.922929 
L 113.995288 393.06095 
L 117.375876 398.758936 
L 120.997935 404.422216 
L 124.619993 409.67208 
L 128.242052 414.54783 
L 132.105582 419.375339 
L 135.969111 423.853904 
L 140.074111 428.266721 
L 144.179111 432.357409 
L 148.525582 436.371589 
L 152.872052 440.090943 
L 157.459994 443.728179 
L 162.289405 447.267906 
L 167.360288 450.697717 
L 172.43117 453.863349 
L 177.743523 456.925167 
L 183.297347 459.876038 
L 189.092641 462.710859 
L 195.370876 465.530273 
L 201.890582 468.211301 
L 208.893229 470.842307 
L 216.137347 473.324044 
L 223.864406 475.733728 
L 232.074406 478.057496 
L 240.767347 480.284943 
L 250.1847 482.461777 
L 260.084994 484.519748 
L 270.7097 486.500634 
L 282.300289 488.429854 
L 294.615289 490.25242 
L 308.137642 492.023895 
L 322.625877 493.695738 
L 338.562936 495.307451 
L 355.948819 496.838815 
L 375.024995 498.293445 
L 396.274407 499.685664 
L 419.697054 500.993879 
L 446.017349 502.236349 
L 475.476761 503.400213 
L 508.799702 504.490606 
L 546.952055 505.511738 
L 590.899703 506.460142 
L 642.091468 507.336595 
L 702.459115 508.141255 
L 774.658822 508.874104 
L 862.554116 509.535785 
L 971.698823 510.126016 
L 1012.265882 510.299316 
L 1012.265882 510.299316 
" clip-path="url(#p1858235192)" style="fill: none; stroke: #cedb9c; stroke-width: 2; stroke-linecap: round"/>
   </g>
   <g id="line2d_20">
    <path d="M 46.383522 42.892315 
L 48.556758 78.004033 
L 50.729993 109.312077 
L 52.903228 137.347369 
L 55.076464 162.551237 
L 57.249699 185.292978 
L 59.422934 205.883531 
L 61.83764 226.557825 
L 64.252346 245.205579 
L 66.667052 262.083538 
L 69.081758 277.409006 
L 71.496464 291.366903 
L 73.91117 304.115393 
L 76.567346 316.903524 
L 79.223523 328.547503 
L 81.879699 339.179982 
L 84.535876 348.914917 
L 87.192052 357.850645 
L 90.089699 366.787055 
L 92.987346 374.969276 
L 95.884993 382.479913 
L 98.78264 389.390557 
L 101.680287 395.763504 
L 104.819405 402.123692 
L 107.958523 407.976913 
L 111.09764 413.375685 
L 114.478229 418.734025 
L 117.858817 423.668467 
L 121.239405 428.222603 
L 124.861464 432.723225 
L 128.483523 436.871954 
L 132.347052 440.949619 
L 136.210582 444.705431 
L 140.315582 448.380188 
L 144.420582 451.763352 
L 148.767052 455.061056 
L 153.354994 458.258135 
L 158.184405 461.342723 
L 163.255288 464.305952 
L 168.567641 467.141642 
L 174.121464 469.845969 
L 179.916759 472.417142 
L 185.953523 474.855089 
L 192.473229 477.245577 
L 199.475876 479.567213 
L 206.719994 481.734752 
L 214.447053 483.818207 
L 222.898524 485.862595 
L 231.832935 487.793922 
L 241.491759 489.653645 
L 251.874994 491.426861 
L 263.224112 493.137575 
L 275.539112 494.767148 
L 289.061465 496.328919 
L 303.791171 497.804922 
L 320.211171 499.222411 
L 338.321466 500.55859 
L 358.604995 501.826944 
L 381.303231 503.018478 
L 406.899113 504.1351 
L 436.117054 505.181797 
L 469.681466 506.155701 
L 508.558231 507.055544 
L 554.196173 507.883425 
L 608.527056 508.639823 
L 674.207056 509.324417 
L 755.341174 509.938793 
L 857.724704 510.481665 
L 990.775 510.953593 
L 1012.265882 511.013048 
L 1012.265882 511.013048 
" clip-path="url(#p1858235192)" style="fill: none; stroke: #e7ba52; stroke-width: 2; stroke-linecap: round"/>
   </g>
   <g id="line2d_21">
    <path d="M 46.383522 42.892315 
L 48.315287 80.248851 
L 50.247052 113.308205 
L 52.178816 142.706068 
L 54.110581 168.964647 
L 56.042346 192.516161 
L 58.215581 216.222019 
L 60.388817 237.382197 
L 62.562052 256.349028 
L 64.735287 273.415877 
L 66.908522 288.828603 
L 69.081758 302.79451 
L 71.496464 316.828201 
L 73.91117 329.49605 
L 76.325875 340.969905 
L 78.740581 351.395394 
L 81.155287 360.896579 
L 83.811464 370.406637 
L 86.46764 379.047325 
L 89.123817 386.921565 
L 91.779993 394.117477 
L 94.43617 400.710861 
L 97.333817 407.293185 
L 100.231464 413.309581 
L 103.129111 418.823166 
L 106.026758 423.888489 
L 109.165876 428.924832 
L 112.304993 433.542727 
L 115.444111 437.787313 
L 118.824699 441.985775 
L 122.205288 445.839179 
L 125.827346 449.626658 
L 129.449405 453.099463 
L 133.312935 456.495102 
L 137.417935 459.792686 
L 141.522935 462.806566 
L 145.869405 465.723609 
L 150.457347 468.531771 
L 155.286758 471.222222 
L 160.357641 473.788989 
L 165.669994 476.228579 
L 171.223817 478.539612 
L 177.260582 480.808799 
L 183.780288 483.012221 
L 190.541465 485.062114 
L 197.785582 487.02894 
L 205.754112 488.956653 
L 214.205582 490.770341 
L 223.381465 492.510781 
L 233.281759 494.162805 
L 244.147935 495.749438 
L 255.979994 497.252287 
L 269.019406 498.684039 
L 283.507642 500.048766 
L 299.686171 501.344779 
L 317.796465 502.567118 
L 338.079995 503.709627 
L 361.261172 504.786928 
L 387.822936 505.79164 
L 418.489701 506.722049 
L 454.227349 507.57752 
L 496.484702 508.360417 
L 547.434996 509.074003 
L 609.734409 509.715287 
L 687.487939 510.284211 
L 787.456763 510.782883 
L 920.265587 511.210998 
L 1012.265882 511.414109 
L 1012.265882 511.414109 
" clip-path="url(#p1858235192)" style="fill: none; stroke: #843c39; stroke-width: 2; stroke-linecap: round"/>
   </g>
   <g id="line2d_22">
    <path d="M 46.383522 42.892315 
L 48.073816 81.025663 
L 49.764111 114.683166 
L 51.695875 148.528641 
L 53.62764 178.220531 
L 55.559405 204.412799 
L 57.491169 227.635437 
L 59.422934 248.321654 
L 61.354699 266.828362 
L 63.527934 285.410055 
L 65.70117 301.955776 
L 67.874405 316.752846 
L 70.04764 330.039581 
L 72.220875 342.015002 
L 74.394111 352.846363 
L 76.808817 363.710641 
L 79.223523 373.5001 
L 81.638228 382.352133 
L 84.052934 390.382844 
L 86.46764 397.690889 
L 89.123817 404.99526 
L 91.779993 411.622519 
L 94.43617 417.65392 
L 97.092346 423.158875 
L 99.989993 428.633663 
L 102.88764 433.619001 
L 105.785287 438.171589 
L 108.924405 442.671547 
L 112.063523 446.773846 
L 115.20264 450.524032 
L 118.583229 454.213757 
L 121.963817 457.582619 
L 125.585876 460.877053 
L 129.449405 464.073778 
L 133.312935 466.98161 
L 137.417935 469.792372 
L 141.764405 472.492951 
L 146.352347 475.073882 
L 151.181758 477.528916 
L 156.252641 479.854574 
L 161.564994 482.049714 
L 167.360288 484.200078 
L 173.397053 486.205518 
L 179.916759 488.139947 
L 186.919406 489.988032 
L 194.646465 491.792136 
L 202.856465 493.480012 
L 211.790876 495.091241 
L 221.691171 496.647148 
L 232.557347 498.12474 
L 244.630877 499.534841 
L 257.911759 500.857113 
L 272.641465 502.098139 
L 289.302936 503.274675 
L 308.137642 504.376851 
L 329.628524 505.406483 
L 354.258524 506.359692 
L 382.993525 507.243926 
L 416.799407 508.055704 
L 457.124996 508.79529 
L 506.143526 509.464425 
L 566.994114 510.063412 
L 644.264703 510.591078 
L 745.44088 511.047805 
L 883.320587 511.434302 
L 1012.265882 511.661653 
L 1012.265882 511.661653 
" clip-path="url(#p1858235192)" style="fill: none; stroke: #e7969c; stroke-width: 2; stroke-linecap: round"/>
   </g>
   <g id="line2d_23">
    <path d="M 46.383522 42.892315 
L 48.073816 86.143069 
L 49.764111 123.664473 
L 51.454405 156.427545 
L 53.144699 185.205671 
L 54.834993 210.621038 
L 56.766758 236.193169 
L 58.698522 258.639808 
L 60.630287 278.451121 
L 62.562052 296.024707 
L 64.493817 311.685821 
L 66.425581 325.702634 
L 68.598817 339.781926 
L 70.772052 352.323545 
L 72.945287 363.543816 
L 75.118523 373.622278 
L 77.291758 382.708952 
L 79.464993 390.929981 
L 81.879699 399.178404 
L 84.294405 406.612937 
L 86.709111 413.337355 
L 89.123817 419.439392 
L 91.779993 425.52146 
L 94.43617 431.02469 
L 97.092346 436.02034 
L 99.748523 440.569023 
L 102.64617 445.082149 
L 105.543817 449.182323 
L 108.441464 452.918472 
L 111.580582 456.603611 
L 114.719699 459.956134 
L 118.100288 463.239044 
L 121.480876 466.222665 
L 125.102935 469.127316 
L 128.966464 471.933171 
L 133.071464 474.625161 
L 137.176464 477.056855 
L 141.522935 479.383941 
L 146.352347 481.70954 
L 151.423229 483.896232 
L 156.735582 485.945246 
L 162.530876 487.938019 
L 168.809111 489.852672 
L 175.570288 491.673314 
L 182.814406 493.389363 
L 190.782935 495.041599 
L 199.475876 496.609491 
L 208.893229 498.07947 
L 219.276465 499.473936 
L 230.867053 500.802452 
L 243.906465 502.065723 
L 258.3947 503.241167 
L 274.8147 504.34574 
L 293.649406 505.382836 
L 315.140289 506.338458 
L 340.25323 507.226364 
L 369.712642 508.039309 
L 404.967348 508.782444 
L 447.707643 509.453042 
L 500.589702 510.051954 
L 567.718526 510.580219 
L 655.613821 511.038215 
L 775.383233 511.426401 
L 947.310293 511.745141 
L 1012.265882 511.825092 
L 1012.265882 511.825092 
" clip-path="url(#p1858235192)" style="fill: none; stroke: #a55194; stroke-width: 2; stroke-linecap: round"/>
   </g>
   <g id="line2d_24">
    <path d="M 46.383522 42.892315 
L 47.832346 84.75457 
L 49.52264 126.862674 
L 51.212934 163.025632 
L 52.903228 194.31448 
L 54.593522 221.569118 
L 56.283817 245.455754 
L 57.974111 266.508342 
L 59.905875 287.648614 
L 61.83764 306.168826 
L 63.769405 322.485423 
L 65.70117 336.935177 
L 67.632934 349.792824 
L 69.564699 361.284299 
L 71.737934 372.811026 
L 73.91117 383.064898 
L 76.084405 392.226901 
L 78.25764 400.446928 
L 80.430876 407.849979 
L 82.845581 415.244445 
L 85.260287 421.879943 
L 87.674993 427.857013 
L 90.089699 433.260065 
L 92.504405 438.160394 
L 95.160582 443.042105 
L 97.816758 447.456925 
L 100.472934 451.462606 
L 103.370582 455.423297 
L 106.268229 459.009454 
L 109.407346 462.524774 
L 112.546464 465.703504 
L 115.927052 468.797985 
L 119.30764 471.594322 
L 122.929699 474.301622 
L 126.793229 476.902409 
L 130.898229 479.383979 
L 135.244699 481.737834 
L 139.832641 483.959095 
L 144.662052 486.045903 
L 149.732935 487.99886 
L 155.286758 489.898403 
L 161.323523 491.721701 
L 167.843229 493.452314 
L 174.845876 495.07945 
L 182.572935 496.642685 
L 191.024406 498.121537 
L 200.441759 499.536411 
L 210.824994 500.865291 
L 222.415582 502.118802 
L 235.454994 503.298947 
L 250.1847 504.402679 
L 266.846171 505.424833 
L 286.163818 506.381813 
L 308.620583 507.26533 
L 335.182348 508.079656 
L 366.814995 508.818972 
L 405.208819 509.485918 
L 452.778525 510.081284 
L 513.387643 510.60693 
L 592.831467 511.0615 
L 701.251762 511.445777 
L 857.483234 511.760778 
L 1012.265882 511.93862 
L 1012.265882 511.93862 
" clip-path="url(#p1858235192)" style="fill: none; stroke: #de9ed6; stroke-width: 2; stroke-linecap: round"/>
   </g>
   <g id="patch_3">
    <path d="M 46.383522 535.390936 
L 46.383522 19.44 
" style="fill: none; stroke: #ffffff; stroke-width: 0.8; stroke-linejoin: miter; stroke-linecap: square"/>
   </g>
   <g id="patch_4">
    <path d="M 1060.56 535.390936 
L 1060.56 19.44 
" style="fill: none; stroke: #ffffff; stroke-width: 0.8; stroke-linejoin: miter; stroke-linecap: square"/>
   </g>
   <g id="patch_5">
    <path d="M 46.383522 535.390936 
L 1060.56 535.390936 
" style="fill: none; stroke: #ffffff; stroke-width: 0.8; stroke-linejoin: miter; stroke-linecap: square"/>
   </g>
   <g id="patch_6">
    <path d="M 46.383522 19.44 
L 1060.56 19.44 
" style="fill: none; stroke: #ffffff; stroke-width: 0.8; stroke-linejoin: miter; stroke-linecap: square"/>
   </g>
  </g>
 </g>
 <defs>
  <clipPath id="p1858235192">
   <rect x="46.383522" y="19.44" width="1014.176478" height="515.950936"/>
  </clipPath>
 </defs>
</svg>
