<?xml version="1.0" encoding="utf-8" standalone="no"?>
<!DOCTYPE svg PUBLIC "-//W3C//DTD SVG 1.1//EN"
  "http://www.w3.org/Graphics/SVG/1.1/DTD/svg11.dtd">
<svg xmlns:xlink="http://www.w3.org/1999/xlink" width="1080pt" height="576pt" viewBox="0 0 1080 576" xmlns="http://www.w3.org/2000/svg" version="1.1">
 <metadata>
  <rdf:RDF xmlns:dc="http://purl.org/dc/elements/1.1/" xmlns:cc="http://creativecommons.org/ns#" xmlns:rdf="http://www.w3.org/1999/02/22-rdf-syntax-ns#">
   <cc:Work>
    <dc:type rdf:resource="http://purl.org/dc/dcmitype/StillImage"/>
    <dc:date>2024-06-28T12:31:46.897121</dc:date>
    <dc:format>image/svg+xml</dc:format>
    <dc:creator>
     <cc:Agent>
      <dc:title>Matplotlib v3.9.0, https://matplotlib.org/</dc:title>
     </cc:Agent>
    </dc:creator>
   </cc:Work>
  </rdf:RDF>
 </metadata>
 <defs>
  <style type="text/css">*{stroke-linejoin: round; stroke-linecap: butt}</style>
 </defs>
 <g id="figure_1">
  <g id="patch_1">
   <path d="M 0 576 
L 1080 576 
L 1080 0 
L 0 0 
z
" style="fill: #ffffff"/>
  </g>
  <g id="axes_1">
   <g id="patch_2">
    <path d="M 41.730582 521.153031 
L 935.517672 521.153031 
L 935.517672 51.564121 
L 41.730582 51.564121 
z
" style="fill: #eaeaf2"/>
   </g>
   <g id="matplotlib.axis_1">
    <g id="xtick_1">
     <g id="line2d_1">
      <path d="M 41.730582 521.153031 
L 41.730582 51.564121 
" clip-path="url(#pc3b9d2d060)" style="fill: none; stroke: #ffffff; stroke-linecap: round"/>
     </g>
     <g id="line2d_2"/>
     <g id="text_1">
      <!-- $\mathdefault{0.00}$ -->
      <g style="fill: #262626" transform="translate(29.591047 537.838907) scale(0.14 -0.14)">
       <defs>
        <path id="CMR17-30" d="M 2688 2025 
C 2688 2416 2682 3080 2413 3591 
C 2176 4039 1798 4198 1466 4198 
C 1158 4198 768 4058 525 3597 
C 269 3118 243 2524 243 2025 
C 243 1661 250 1106 448 619 
C 723 -39 1216 -128 1466 -128 
C 1760 -128 2208 -7 2470 600 
C 2662 1042 2688 1559 2688 2025 
z
M 1466 -26 
C 1056 -26 813 325 723 812 
C 653 1188 653 1738 653 2096 
C 653 2588 653 2997 736 3387 
C 858 3929 1216 4096 1466 4096 
C 1728 4096 2067 3923 2189 3400 
C 2272 3036 2278 2607 2278 2096 
C 2278 1680 2278 1169 2202 792 
C 2067 95 1690 -26 1466 -26 
z
" transform="scale(0.015625)"/>
        <path id="CMMI12-3a" d="M 1178 307 
C 1178 492 1024 619 870 619 
C 685 619 557 466 557 313 
C 557 128 710 0 864 0 
C 1050 0 1178 153 1178 307 
z
" transform="scale(0.015625)"/>
       </defs>
       <use xlink:href="#CMR17-30" transform="scale(0.996264)"/>
       <use xlink:href="#CMMI12-3a" transform="translate(45.690477 0) scale(0.996264)"/>
       <use xlink:href="#CMR17-30" transform="translate(72.787654 0) scale(0.996264)"/>
       <use xlink:href="#CMR17-30" transform="translate(118.478131 0) scale(0.996264)"/>
      </g>
     </g>
    </g>
    <g id="xtick_2">
     <g id="line2d_3">
      <path d="M 148.133807 521.153031 
L 148.133807 51.564121 
" clip-path="url(#pc3b9d2d060)" style="fill: none; stroke: #ffffff; stroke-linecap: round"/>
     </g>
     <g id="line2d_4"/>
     <g id="text_2">
      <!-- $\mathdefault{0.25}$ -->
      <g style="fill: #262626" transform="translate(135.994272 537.838907) scale(0.14 -0.14)">
       <defs>
        <path id="CMR17-32" d="M 2669 989 
L 2554 989 
C 2490 536 2438 459 2413 420 
C 2381 369 1920 369 1830 369 
L 602 369 
C 832 619 1280 1072 1824 1597 
C 2214 1967 2669 2402 2669 3035 
C 2669 3790 2067 4224 1395 4224 
C 691 4224 262 3604 262 3030 
C 262 2780 448 2748 525 2748 
C 589 2748 781 2787 781 3010 
C 781 3207 614 3264 525 3264 
C 486 3264 448 3258 422 3245 
C 544 3790 915 4058 1306 4058 
C 1862 4058 2227 3617 2227 3035 
C 2227 2479 1901 2000 1536 1584 
L 262 146 
L 262 0 
L 2515 0 
L 2669 989 
z
" transform="scale(0.015625)"/>
        <path id="CMR17-35" d="M 730 3692 
C 794 3666 1056 3584 1325 3584 
C 1920 3584 2246 3911 2432 4100 
C 2432 4157 2432 4192 2394 4192 
C 2387 4192 2374 4192 2323 4163 
C 2099 4058 1837 3973 1517 3973 
C 1325 3973 1037 3999 723 4139 
C 653 4171 640 4171 634 4171 
C 602 4171 595 4164 595 4037 
L 595 2203 
C 595 2089 595 2057 659 2057 
C 691 2057 704 2070 736 2114 
C 941 2401 1222 2522 1542 2522 
C 1766 2522 2246 2382 2246 1289 
C 2246 1085 2246 715 2054 421 
C 1894 159 1645 25 1370 25 
C 947 25 518 320 403 814 
C 429 807 480 795 506 795 
C 589 795 749 840 749 1038 
C 749 1210 627 1280 506 1280 
C 358 1280 262 1190 262 1011 
C 262 454 704 -128 1382 -128 
C 2042 -128 2669 440 2669 1264 
C 2669 2030 2170 2624 1549 2624 
C 1222 2624 947 2503 730 2274 
L 730 3692 
z
" transform="scale(0.015625)"/>
       </defs>
       <use xlink:href="#CMR17-30" transform="scale(0.996264)"/>
       <use xlink:href="#CMMI12-3a" transform="translate(45.690477 0) scale(0.996264)"/>
       <use xlink:href="#CMR17-32" transform="translate(72.787654 0) scale(0.996264)"/>
       <use xlink:href="#CMR17-35" transform="translate(118.478131 0) scale(0.996264)"/>
      </g>
     </g>
    </g>
    <g id="xtick_3">
     <g id="line2d_5">
      <path d="M 254.537032 521.153031 
L 254.537032 51.564121 
" clip-path="url(#pc3b9d2d060)" style="fill: none; stroke: #ffffff; stroke-linecap: round"/>
     </g>
     <g id="line2d_6"/>
     <g id="text_3">
      <!-- $\mathdefault{0.50}$ -->
      <g style="fill: #262626" transform="translate(242.397497 537.838907) scale(0.14 -0.14)">
       <use xlink:href="#CMR17-30" transform="scale(0.996264)"/>
       <use xlink:href="#CMMI12-3a" transform="translate(45.690477 0) scale(0.996264)"/>
       <use xlink:href="#CMR17-35" transform="translate(72.787654 0) scale(0.996264)"/>
       <use xlink:href="#CMR17-30" transform="translate(118.478131 0) scale(0.996264)"/>
      </g>
     </g>
    </g>
    <g id="xtick_4">
     <g id="line2d_7">
      <path d="M 360.940257 521.153031 
L 360.940257 51.564121 
" clip-path="url(#pc3b9d2d060)" style="fill: none; stroke: #ffffff; stroke-linecap: round"/>
     </g>
     <g id="line2d_8"/>
     <g id="text_4">
      <!-- $\mathdefault{0.75}$ -->
      <g style="fill: #262626" transform="translate(348.800722 537.838907) scale(0.14 -0.14)">
       <defs>
        <path id="CMR17-37" d="M 2886 3941 
L 2886 4081 
L 1382 4081 
C 634 4081 621 4165 595 4288 
L 480 4288 
L 294 3094 
L 410 3094 
C 429 3215 474 3540 550 3661 
C 589 3712 1062 3712 1171 3712 
L 2579 3712 
L 1869 2661 
C 1395 1954 1069 999 1069 165 
C 1069 89 1069 -128 1299 -128 
C 1530 -128 1530 89 1530 171 
L 1530 465 
C 1530 1508 1709 2196 2003 2636 
L 2886 3941 
z
" transform="scale(0.015625)"/>
       </defs>
       <use xlink:href="#CMR17-30" transform="scale(0.996264)"/>
       <use xlink:href="#CMMI12-3a" transform="translate(45.690477 0) scale(0.996264)"/>
       <use xlink:href="#CMR17-37" transform="translate(72.787654 0) scale(0.996264)"/>
       <use xlink:href="#CMR17-35" transform="translate(118.478131 0) scale(0.996264)"/>
      </g>
     </g>
    </g>
    <g id="xtick_5">
     <g id="line2d_9">
      <path d="M 467.343482 521.153031 
L 467.343482 51.564121 
" clip-path="url(#pc3b9d2d060)" style="fill: none; stroke: #ffffff; stroke-linecap: round"/>
     </g>
     <g id="line2d_10"/>
     <g id="text_5">
      <!-- $\mathdefault{1.00}$ -->
      <g style="fill: #262626" transform="translate(455.203947 537.838907) scale(0.14 -0.14)">
       <defs>
        <path id="CMR17-31" d="M 1702 4058 
C 1702 4192 1696 4192 1606 4192 
C 1357 3916 979 3827 621 3827 
C 602 3827 570 3827 563 3808 
C 557 3795 557 3782 557 3648 
C 755 3648 1088 3686 1344 3839 
L 1344 461 
C 1344 236 1331 160 781 160 
L 589 160 
L 589 0 
C 896 0 1216 0 1523 0 
C 1830 0 2150 0 2458 0 
L 2458 160 
L 2266 160 
C 1715 160 1702 230 1702 458 
L 1702 4058 
z
" transform="scale(0.015625)"/>
       </defs>
       <use xlink:href="#CMR17-31" transform="scale(0.996264)"/>
       <use xlink:href="#CMMI12-3a" transform="translate(45.690477 0) scale(0.996264)"/>
       <use xlink:href="#CMR17-30" transform="translate(72.787654 0) scale(0.996264)"/>
       <use xlink:href="#CMR17-30" transform="translate(118.478131 0) scale(0.996264)"/>
      </g>
     </g>
    </g>
    <g id="xtick_6">
     <g id="line2d_11">
      <path d="M 573.746707 521.153031 
L 573.746707 51.564121 
" clip-path="url(#pc3b9d2d060)" style="fill: none; stroke: #ffffff; stroke-linecap: round"/>
     </g>
     <g id="line2d_12"/>
     <g id="text_6">
      <!-- $\mathdefault{1.25}$ -->
      <g style="fill: #262626" transform="translate(561.607172 537.838907) scale(0.14 -0.14)">
       <use xlink:href="#CMR17-31" transform="scale(0.996264)"/>
       <use xlink:href="#CMMI12-3a" transform="translate(45.690477 0) scale(0.996264)"/>
       <use xlink:href="#CMR17-32" transform="translate(72.787654 0) scale(0.996264)"/>
       <use xlink:href="#CMR17-35" transform="translate(118.478131 0) scale(0.996264)"/>
      </g>
     </g>
    </g>
    <g id="xtick_7">
     <g id="line2d_13">
      <path d="M 680.149932 521.153031 
L 680.149932 51.564121 
" clip-path="url(#pc3b9d2d060)" style="fill: none; stroke: #ffffff; stroke-linecap: round"/>
     </g>
     <g id="line2d_14"/>
     <g id="text_7">
      <!-- $\mathdefault{1.50}$ -->
      <g style="fill: #262626" transform="translate(668.010397 537.838907) scale(0.14 -0.14)">
       <use xlink:href="#CMR17-31" transform="scale(0.996264)"/>
       <use xlink:href="#CMMI12-3a" transform="translate(45.690477 0) scale(0.996264)"/>
       <use xlink:href="#CMR17-35" transform="translate(72.787654 0) scale(0.996264)"/>
       <use xlink:href="#CMR17-30" transform="translate(118.478131 0) scale(0.996264)"/>
      </g>
     </g>
    </g>
    <g id="xtick_8">
     <g id="line2d_15">
      <path d="M 786.553157 521.153031 
L 786.553157 51.564121 
" clip-path="url(#pc3b9d2d060)" style="fill: none; stroke: #ffffff; stroke-linecap: round"/>
     </g>
     <g id="line2d_16"/>
     <g id="text_8">
      <!-- $\mathdefault{1.75}$ -->
      <g style="fill: #262626" transform="translate(774.413622 537.838907) scale(0.14 -0.14)">
       <use xlink:href="#CMR17-31" transform="scale(0.996264)"/>
       <use xlink:href="#CMMI12-3a" transform="translate(45.690477 0) scale(0.996264)"/>
       <use xlink:href="#CMR17-37" transform="translate(72.787654 0) scale(0.996264)"/>
       <use xlink:href="#CMR17-35" transform="translate(118.478131 0) scale(0.996264)"/>
      </g>
     </g>
    </g>
    <g id="xtick_9">
     <g id="line2d_17">
      <path d="M 892.956382 521.153031 
L 892.956382 51.564121 
" clip-path="url(#pc3b9d2d060)" style="fill: none; stroke: #ffffff; stroke-linecap: round"/>
     </g>
     <g id="line2d_18"/>
     <g id="text_9">
      <!-- $\mathdefault{2.00}$ -->
      <g style="fill: #262626" transform="translate(880.816846 537.838907) scale(0.14 -0.14)">
       <use xlink:href="#CMR17-32" transform="scale(0.996264)"/>
       <use xlink:href="#CMMI12-3a" transform="translate(45.690477 0) scale(0.996264)"/>
       <use xlink:href="#CMR17-30" transform="translate(72.787654 0) scale(0.996264)"/>
       <use xlink:href="#CMR17-30" transform="translate(118.478131 0) scale(0.996264)"/>
      </g>
     </g>
    </g>
    <g id="text_10">
     <!-- $x$ -->
     <g style="fill: #262626" transform="translate(484.189402 555.620524) scale(0.16 -0.16)">
      <defs>
       <path id="CMMI12-78" d="M 3034 2606 
C 2829 2567 2752 2414 2752 2293 
C 2752 2139 2874 2088 2963 2088 
C 3155 2088 3290 2254 3290 2427 
C 3290 2695 2982 2816 2714 2816 
C 2323 2816 2106 2433 2048 2312 
C 1901 2816 1504 2816 1389 2816 
C 736 2816 390 1980 390 1839 
C 390 1814 416 1782 461 1782 
C 512 1782 525 1820 538 1846 
C 755 2555 1184 2689 1370 2689 
C 1658 2689 1715 2420 1715 2267 
C 1715 2127 1677 1980 1600 1673 
L 1382 798 
C 1286 415 1101 64 762 64 
C 730 64 570 64 435 147 
C 666 192 717 383 717 460 
C 717 588 621 664 499 664 
C 346 664 179 530 179 326 
C 179 57 480 -64 755 -64 
C 1062 -64 1280 179 1414 441 
C 1517 64 1837 -64 2074 -64 
C 2726 -64 3072 773 3072 913 
C 3072 945 3046 971 3008 971 
C 2950 971 2944 939 2925 888 
C 2752 326 2381 64 2093 64 
C 1869 64 1747 230 1747 492 
C 1747 632 1773 734 1875 1156 
L 2099 2024 
C 2195 2408 2413 2689 2707 2689 
C 2720 2689 2899 2689 3034 2606 
z
" transform="scale(0.015625)"/>
      </defs>
      <use xlink:href="#CMMI12-78" transform="scale(0.996264)"/>
     </g>
    </g>
   </g>
   <g id="matplotlib.axis_2">
    <g id="ytick_1">
     <g id="line2d_19">
      <path d="M 41.730582 521.153031 
L 935.517672 521.153031 
" clip-path="url(#pc3b9d2d060)" style="fill: none; stroke: #ffffff; stroke-linecap: round"/>
     </g>
     <g id="line2d_20"/>
     <g id="text_11">
      <!-- $\mathdefault{0.0}$ -->
      <g style="fill: #262626" transform="translate(17.28 525.995969) scale(0.14 -0.14)">
       <use xlink:href="#CMR17-30" transform="scale(0.996264)"/>
       <use xlink:href="#CMMI12-3a" transform="translate(45.690477 0) scale(0.996264)"/>
       <use xlink:href="#CMR17-30" transform="translate(72.787654 0) scale(0.996264)"/>
      </g>
     </g>
    </g>
    <g id="ytick_2">
     <g id="line2d_21">
      <path d="M 41.730582 457.306068 
L 935.517672 457.306068 
" clip-path="url(#pc3b9d2d060)" style="fill: none; stroke: #ffffff; stroke-linecap: round"/>
     </g>
     <g id="line2d_22"/>
     <g id="text_12">
      <!-- $\mathdefault{0.2}$ -->
      <g style="fill: #262626" transform="translate(17.28 462.149007) scale(0.14 -0.14)">
       <use xlink:href="#CMR17-30" transform="scale(0.996264)"/>
       <use xlink:href="#CMMI12-3a" transform="translate(45.690477 0) scale(0.996264)"/>
       <use xlink:href="#CMR17-32" transform="translate(72.787654 0) scale(0.996264)"/>
      </g>
     </g>
    </g>
    <g id="ytick_3">
     <g id="line2d_23">
      <path d="M 41.730582 393.459106 
L 935.517672 393.459106 
" clip-path="url(#pc3b9d2d060)" style="fill: none; stroke: #ffffff; stroke-linecap: round"/>
     </g>
     <g id="line2d_24"/>
     <g id="text_13">
      <!-- $\mathdefault{0.4}$ -->
      <g style="fill: #262626" transform="translate(17.28 398.302044) scale(0.14 -0.14)">
       <defs>
        <path id="CMR17-34" d="M 2150 4122 
C 2150 4256 2144 4256 2029 4256 
L 128 1254 
L 128 1088 
L 1779 1088 
L 1779 457 
C 1779 224 1766 160 1318 160 
L 1197 160 
L 1197 0 
C 1402 0 1747 0 1965 0 
C 2182 0 2528 0 2733 0 
L 2733 160 
L 2611 160 
C 2163 160 2150 224 2150 457 
L 2150 1088 
L 2803 1088 
L 2803 1254 
L 2150 1254 
L 2150 4122 
z
M 1798 3703 
L 1798 1254 
L 256 1254 
L 1798 3703 
z
" transform="scale(0.015625)"/>
       </defs>
       <use xlink:href="#CMR17-30" transform="scale(0.996264)"/>
       <use xlink:href="#CMMI12-3a" transform="translate(45.690477 0) scale(0.996264)"/>
       <use xlink:href="#CMR17-34" transform="translate(72.787654 0) scale(0.996264)"/>
      </g>
     </g>
    </g>
    <g id="ytick_4">
     <g id="line2d_25">
      <path d="M 41.730582 329.612144 
L 935.517672 329.612144 
" clip-path="url(#pc3b9d2d060)" style="fill: none; stroke: #ffffff; stroke-linecap: round"/>
     </g>
     <g id="line2d_26"/>
     <g id="text_14">
      <!-- $\mathdefault{0.6}$ -->
      <g style="fill: #262626" transform="translate(17.28 334.455082) scale(0.14 -0.14)">
       <defs>
        <path id="CMR17-36" d="M 678 2176 
C 678 3690 1395 4032 1811 4032 
C 1946 4032 2272 4009 2400 3776 
C 2298 3776 2106 3776 2106 3553 
C 2106 3381 2246 3323 2336 3323 
C 2394 3323 2566 3348 2566 3560 
C 2566 3954 2246 4179 1805 4179 
C 1043 4179 243 3390 243 1984 
C 243 253 966 -128 1478 -128 
C 2099 -128 2688 427 2688 1283 
C 2688 2081 2170 2662 1517 2662 
C 1126 2662 838 2407 678 1960 
L 678 2176 
z
M 1478 25 
C 691 25 691 1200 691 1436 
C 691 1896 909 2560 1504 2560 
C 1613 2560 1926 2560 2138 2120 
C 2253 1870 2253 1609 2253 1289 
C 2253 944 2253 690 2118 434 
C 1978 171 1773 25 1478 25 
z
" transform="scale(0.015625)"/>
       </defs>
       <use xlink:href="#CMR17-30" transform="scale(0.996264)"/>
       <use xlink:href="#CMMI12-3a" transform="translate(45.690477 0) scale(0.996264)"/>
       <use xlink:href="#CMR17-36" transform="translate(72.787654 0) scale(0.996264)"/>
      </g>
     </g>
    </g>
    <g id="ytick_5">
     <g id="line2d_27">
      <path d="M 41.730582 265.765182 
L 935.517672 265.765182 
" clip-path="url(#pc3b9d2d060)" style="fill: none; stroke: #ffffff; stroke-linecap: round"/>
     </g>
     <g id="line2d_28"/>
     <g id="text_15">
      <!-- $\mathdefault{0.8}$ -->
      <g style="fill: #262626" transform="translate(17.28 270.60812) scale(0.14 -0.14)">
       <defs>
        <path id="CMR17-38" d="M 1741 2264 
C 2144 2467 2554 2773 2554 3263 
C 2554 3841 1990 4179 1472 4179 
C 890 4179 378 3759 378 3180 
C 378 3021 416 2747 666 2505 
C 730 2442 998 2251 1171 2130 
C 883 1983 211 1634 211 934 
C 211 279 838 -128 1459 -128 
C 2144 -128 2720 362 2720 1010 
C 2720 1590 2330 1857 2074 2029 
L 1741 2264 
z
M 902 2822 
C 851 2854 595 3051 595 3351 
C 595 3739 998 4032 1459 4032 
C 1965 4032 2336 3676 2336 3262 
C 2336 2669 1670 2331 1638 2331 
C 1632 2331 1626 2331 1574 2370 
L 902 2822 
z
M 2080 1519 
C 2176 1449 2483 1240 2483 851 
C 2483 381 2010 25 1472 25 
C 890 25 448 438 448 940 
C 448 1443 838 1862 1280 2060 
L 2080 1519 
z
" transform="scale(0.015625)"/>
       </defs>
       <use xlink:href="#CMR17-30" transform="scale(0.996264)"/>
       <use xlink:href="#CMMI12-3a" transform="translate(45.690477 0) scale(0.996264)"/>
       <use xlink:href="#CMR17-38" transform="translate(72.787654 0) scale(0.996264)"/>
      </g>
     </g>
    </g>
    <g id="ytick_6">
     <g id="line2d_29">
      <path d="M 41.730582 201.918219 
L 935.517672 201.918219 
" clip-path="url(#pc3b9d2d060)" style="fill: none; stroke: #ffffff; stroke-linecap: round"/>
     </g>
     <g id="line2d_30"/>
     <g id="text_16">
      <!-- $\mathdefault{1.0}$ -->
      <g style="fill: #262626" transform="translate(17.28 206.761158) scale(0.14 -0.14)">
       <use xlink:href="#CMR17-31" transform="scale(0.996264)"/>
       <use xlink:href="#CMMI12-3a" transform="translate(45.690477 0) scale(0.996264)"/>
       <use xlink:href="#CMR17-30" transform="translate(72.787654 0) scale(0.996264)"/>
      </g>
     </g>
    </g>
    <g id="ytick_7">
     <g id="line2d_31">
      <path d="M 41.730582 138.071257 
L 935.517672 138.071257 
" clip-path="url(#pc3b9d2d060)" style="fill: none; stroke: #ffffff; stroke-linecap: round"/>
     </g>
     <g id="line2d_32"/>
     <g id="text_17">
      <!-- $\mathdefault{1.2}$ -->
      <g style="fill: #262626" transform="translate(17.28 142.914195) scale(0.14 -0.14)">
       <use xlink:href="#CMR17-31" transform="scale(0.996264)"/>
       <use xlink:href="#CMMI12-3a" transform="translate(45.690477 0) scale(0.996264)"/>
       <use xlink:href="#CMR17-32" transform="translate(72.787654 0) scale(0.996264)"/>
      </g>
     </g>
    </g>
    <g id="ytick_8">
     <g id="line2d_33">
      <path d="M 41.730582 74.224295 
L 935.517672 74.224295 
" clip-path="url(#pc3b9d2d060)" style="fill: none; stroke: #ffffff; stroke-linecap: round"/>
     </g>
     <g id="line2d_34"/>
     <g id="text_18">
      <!-- $\mathdefault{1.4}$ -->
      <g style="fill: #262626" transform="translate(17.28 79.067233) scale(0.14 -0.14)">
       <use xlink:href="#CMR17-31" transform="scale(0.996264)"/>
       <use xlink:href="#CMMI12-3a" transform="translate(45.690477 0) scale(0.996264)"/>
       <use xlink:href="#CMR17-34" transform="translate(72.787654 0) scale(0.996264)"/>
      </g>
     </g>
    </g>
   </g>
   <g id="line2d_35">
    <path d="M 41.730582 74.224295 
L 50.24284 74.224295 
L 58.755098 74.224295 
L 67.267356 74.224295 
L 75.779614 74.224295 
L 84.291872 74.224295 
L 92.80413 74.224295 
L 101.316388 74.224295 
L 109.828646 74.224295 
L 118.340904 74.224295 
L 126.853162 74.224295 
L 135.36542 74.224295 
L 143.877678 74.224295 
L 152.389936 74.224295 
L 160.902194 74.224295 
L 169.414452 74.224295 
L 177.92671 74.224295 
L 186.438968 74.224295 
L 194.951226 74.224295 
L 203.463484 74.224295 
L 211.975742 74.224295 
L 220.488 74.224295 
L 229.000258 74.224295 
L 237.512516 74.224295 
L 246.024774 74.224295 
L 254.537032 74.224295 
L 263.04929 74.224295 
L 271.561548 74.224295 
L 280.073806 74.224295 
L 288.586064 74.224295 
L 297.098322 74.224295 
L 305.61058 74.224295 
L 314.122838 74.224295 
L 322.635096 74.224295 
L 331.147354 74.224295 
L 339.659612 74.224295 
L 348.17187 74.224295 
L 356.684128 74.224295 
L 365.196386 74.224295 
L 373.708644 74.224295 
L 382.220902 74.224295 
L 390.73316 74.224295 
L 399.245418 74.224295 
L 407.757676 74.224295 
L 416.269934 74.224295 
L 424.782192 74.224295 
L 433.29445 74.224295 
L 441.806708 74.224295 
L 450.318966 74.224295 
L 458.831224 74.224295 
L 467.343482 74.224295 
L 475.85574 74.224295 
L 484.367998 74.224295 
L 492.880256 74.224295 
L 501.392514 74.224295 
L 509.904772 74.224295 
L 518.41703 74.224295 
L 526.929288 74.224295 
L 535.441546 74.224295 
L 543.953804 74.224295 
L 552.466062 74.224295 
L 560.97832 74.224295 
L 569.490578 74.224295 
L 578.002836 74.224295 
L 586.515094 74.224295 
L 595.027352 74.224295 
L 603.53961 74.224295 
L 612.051868 74.224295 
L 620.564126 74.224295 
L 629.076384 74.224295 
L 637.588642 74.224295 
L 646.1009 74.224295 
L 654.613158 74.224295 
L 663.125416 74.224295 
L 671.637674 74.224295 
L 680.149932 74.224295 
L 688.66219 74.224295 
L 697.174448 74.224295 
L 705.686706 74.224295 
L 714.198964 74.224295 
L 722.711222 74.224295 
L 731.22348 74.224295 
L 739.735738 74.224295 
L 748.247996 74.224295 
L 756.760254 74.224295 
L 765.272512 74.224295 
L 773.78477 74.224295 
L 782.297028 74.224295 
L 790.809286 74.224295 
L 799.321544 74.224295 
L 807.833802 74.224295 
L 816.34606 74.224295 
L 824.858318 74.224295 
L 833.370576 74.224295 
L 841.882834 74.224295 
L 850.395092 74.224295 
L 858.90735 74.224295 
L 867.419608 74.224295 
L 875.931866 74.224295 
L 884.444124 74.224295 
L 892.956382 74.224295 
" clip-path="url(#pc3b9d2d060)" style="fill: none; stroke: #393b79; stroke-width: 2; stroke-linecap: round"/>
   </g>
   <g id="line2d_36">
    <path d="M 41.730582 145.74072 
L 50.24284 145.232677 
L 58.755098 144.729092 
L 67.267356 144.229907 
L 75.779614 143.72785 
L 84.291872 143.225212 
L 92.80413 142.726955 
L 101.316388 142.23306 
L 109.828646 141.743475 
L 118.340904 141.25815 
L 126.853162 140.777054 
L 135.36542 140.300133 
L 143.877678 139.827362 
L 152.389936 139.358685 
L 160.902194 138.894069 
L 169.414452 138.433475 
L 177.92671 137.976866 
L 186.438968 137.516904 
L 194.951226 137.056898 
L 203.463484 136.600852 
L 211.975742 136.148728 
L 220.488 135.700497 
L 229.000258 135.256124 
L 237.512516 134.815558 
L 246.024774 134.378755 
L 254.537032 133.945682 
L 263.04929 133.516332 
L 271.561548 133.090678 
L 280.073806 132.668646 
L 288.586064 132.250201 
L 297.098322 131.835309 
L 305.61058 131.423351 
L 314.122838 131.005181 
L 322.635096 130.590574 
L 331.147354 130.17949 
L 339.659612 129.771887 
L 348.17187 129.367732 
L 356.684128 128.966999 
L 365.196386 128.569663 
L 373.708644 128.175681 
L 382.220902 127.785025 
L 390.73316 127.397656 
L 399.245418 127.013553 
L 407.757676 126.632681 
L 416.269934 126.255016 
L 424.782192 125.880523 
L 433.29445 125.509177 
L 441.806708 125.140938 
L 450.318966 124.772155 
L 458.831224 124.400843 
L 467.343482 124.032633 
L 475.85574 123.667495 
L 484.367998 123.305413 
L 492.880256 122.946354 
L 501.392514 122.590291 
L 509.904772 122.237188 
L 518.41703 121.887028 
L 526.929288 121.53978 
L 535.441546 121.195418 
L 543.953804 120.85391 
L 552.466062 120.515236 
L 560.97832 120.179372 
L 569.490578 119.846295 
L 578.002836 119.515987 
L 586.515094 119.188407 
L 595.027352 118.863528 
L 603.53961 118.541329 
L 612.051868 118.221755 
L 620.564126 117.896709 
L 629.076384 117.574351 
L 637.588642 117.254651 
L 646.1009 116.93758 
L 654.613158 116.623113 
L 663.125416 116.311229 
L 671.637674 116.001905 
L 680.149932 115.695123 
L 688.66219 115.390855 
L 697.174448 115.089083 
L 705.686706 114.789779 
L 714.198964 114.492921 
L 722.711222 114.198497 
L 731.22348 113.906481 
L 739.735738 113.616848 
L 748.247996 113.329578 
L 756.760254 113.044653 
L 765.272512 112.762052 
L 773.78477 112.48176 
L 782.297028 112.203748 
L 790.809286 111.927996 
L 799.321544 111.654487 
L 807.833802 111.383203 
L 816.34606 111.107863 
L 824.858318 110.834052 
L 833.370576 110.56246 
L 841.882834 110.293067 
L 850.395092 110.025857 
L 858.90735 109.76081 
L 867.419608 109.497919 
L 875.931866 109.237156 
L 884.444124 108.978498 
L 892.956382 108.721927 
" clip-path="url(#pc3b9d2d060)" style="fill: none; stroke: #6b6ecf; stroke-width: 2; stroke-linecap: round"/>
   </g>
   <g id="line2d_37">
    <path d="M 41.730582 323.601798 
L 50.24284 322.186999 
L 58.755098 320.78364 
L 67.267356 319.383751 
L 75.779614 317.987321 
L 84.291872 316.601542 
L 92.80413 315.212475 
L 101.316388 313.837232 
L 109.828646 312.458885 
L 118.340904 311.092177 
L 126.853162 309.726232 
L 135.36542 308.368675 
L 143.877678 307.014551 
L 152.389936 305.66675 
L 160.902194 304.323884 
L 169.414452 302.986357 
L 177.92671 301.654284 
L 186.438968 300.327809 
L 194.951226 299.005752 
L 203.463484 297.691421 
L 211.975742 296.378785 
L 220.488 295.077193 
L 229.000258 293.773753 
L 237.512516 292.485927 
L 246.024774 291.190967 
L 254.537032 289.912334 
L 263.04929 288.631028 
L 271.561548 287.360138 
L 280.073806 286.094703 
L 288.586064 284.831101 
L 297.098322 283.582457 
L 305.61058 282.325767 
L 314.122838 281.084332 
L 322.635096 279.844928 
L 331.147354 278.609773 
L 339.659612 277.389569 
L 348.17187 276.16046 
L 356.684128 274.945739 
L 365.196386 273.737435 
L 373.708644 272.527951 
L 382.220902 271.33263 
L 390.73316 270.13699 
L 399.245418 268.946438 
L 407.757676 267.769802 
L 416.269934 266.588037 
L 424.782192 265.415494 
L 433.29445 264.256545 
L 441.806708 263.090278 
L 450.318966 261.934707 
L 458.831224 260.792574 
L 467.343482 259.643439 
L 475.85574 258.504225 
L 484.367998 257.377877 
L 492.880256 256.247404 
L 501.392514 255.123852 
L 509.904772 254.012734 
L 518.41703 252.902577 
L 526.929288 251.793813 
L 535.441546 250.697347 
L 543.953804 249.609575 
L 552.466062 248.51479 
L 560.97832 247.432114 
L 569.490578 246.361009 
L 578.002836 245.287256 
L 586.515094 244.217717 
L 595.027352 243.159811 
L 603.53961 242.112839 
L 612.051868 241.055403 
L 620.564126 240.009519 
L 629.076384 238.974999 
L 637.588642 237.946379 
L 646.1009 236.912023 
L 654.613158 235.888697 
L 663.125416 234.876335 
L 671.637674 233.868475 
L 680.149932 232.856021 
L 688.66219 231.854191 
L 697.174448 230.862847 
L 705.686706 229.87815 
L 714.198964 228.886403 
L 722.711222 227.905047 
L 731.22348 226.933819 
L 739.735738 225.972586 
L 748.247996 225.003067 
L 756.760254 224.041013 
L 765.272512 223.088899 
L 773.78477 222.146505 
L 782.297028 221.206015 
L 790.809286 220.262287 
L 799.321544 219.328177 
L 807.833802 218.403556 
L 816.34606 217.488347 
L 824.858318 216.569226 
L 833.370576 215.652332 
L 841.882834 214.744652 
L 850.395092 213.846039 
L 858.90735 212.956413 
L 867.419608 212.06198 
L 875.931866 211.170502 
L 884.444124 210.287816 
L 892.956382 209.413843 
" clip-path="url(#pc3b9d2d060)" style="fill: none; stroke: #637939; stroke-width: 2; stroke-linecap: round"/>
   </g>
   <g id="line2d_38">
    <path d="M 41.730582 424.64676 
L 50.24284 423.082166 
L 58.755098 421.516047 
L 67.267356 419.948967 
L 75.779614 418.381051 
L 84.291872 416.811215 
L 92.80413 415.24017 
L 101.316388 413.669247 
L 109.828646 412.099173 
L 118.340904 410.525991 
L 126.853162 408.95438 
L 135.36542 407.382687 
L 143.877678 405.810494 
L 152.389936 404.239677 
L 160.902194 402.668058 
L 169.414452 401.098005 
L 177.92671 399.528645 
L 186.438968 397.9591 
L 194.951226 396.392938 
L 203.463484 394.825299 
L 211.975742 393.259474 
L 220.488 391.696596 
L 229.000258 390.134372 
L 237.512516 388.572437 
L 246.024774 387.013497 
L 254.537032 385.45704 
L 263.04929 383.903096 
L 271.561548 382.349869 
L 280.073806 380.798188 
L 288.586064 379.249275 
L 297.098322 377.702854 
L 305.61058 376.159404 
L 314.122838 374.618407 
L 322.635096 373.080191 
L 331.147354 371.544836 
L 339.659612 370.01239 
L 348.17187 368.482799 
L 356.684128 366.956389 
L 365.196386 365.43317 
L 373.708644 363.913317 
L 382.220902 362.396745 
L 390.73316 360.884194 
L 399.245418 359.37566 
L 407.757676 357.870117 
L 416.269934 356.365859 
L 424.782192 354.865983 
L 433.29445 353.370353 
L 441.806708 351.87965 
L 450.318966 350.393764 
L 458.831224 348.910899 
L 467.343482 347.429331 
L 475.85574 345.953612 
L 484.367998 344.483638 
L 492.880256 343.018713 
L 501.392514 341.553417 
L 509.904772 340.094439 
L 518.41703 338.642688 
L 526.929288 337.192561 
L 535.441546 335.745711 
L 543.953804 334.306697 
L 552.466062 332.871396 
L 560.97832 331.437689 
L 569.490578 330.012812 
L 578.002836 328.59045 
L 586.515094 327.171461 
L 595.027352 325.762802 
L 603.53961 324.351882 
L 612.051868 322.949169 
L 620.564126 321.553255 
L 629.076384 320.157347 
L 637.588642 318.773546 
L 646.1009 317.38635 
L 654.613158 316.010131 
L 663.125416 314.636205 
L 671.637674 313.267959 
L 680.149932 311.906784 
L 688.66219 310.546932 
L 697.174448 309.197505 
L 705.686706 307.846702 
L 714.198964 306.50886 
L 722.711222 305.167624 
L 731.22348 303.8406 
L 739.735738 302.509669 
L 748.247996 301.192807 
L 756.760254 299.872828 
L 765.272512 298.56594 
L 773.78477 297.258023 
L 782.297028 295.959931 
L 790.809286 294.664781 
L 799.321544 293.375406 
L 807.833802 292.094209 
L 816.34606 290.812811 
L 824.858318 289.54651 
L 833.370576 288.272971 
L 841.882834 287.0151 
L 850.395092 285.756034 
L 858.90735 284.505123 
L 867.419608 283.263052 
L 875.931866 282.018994 
L 884.444124 280.789652 
L 892.956382 279.556653 
" clip-path="url(#pc3b9d2d060)" style="fill: none; stroke: #b5cf6b; stroke-width: 2; stroke-linecap: round"/>
   </g>
   <g id="line2d_39">
    <path d="M 41.730582 506.423982 
L 50.24284 505.484114 
L 58.755098 504.521986 
L 67.267356 503.538265 
L 75.779614 502.533287 
L 84.291872 501.507749 
L 92.80413 500.462088 
L 101.316388 499.396833 
L 109.828646 498.312656 
L 118.340904 497.209725 
L 126.853162 496.088755 
L 135.36542 494.950207 
L 143.877678 493.794535 
L 152.389936 492.622245 
L 160.902194 491.43365 
L 169.414452 490.229352 
L 177.92671 489.009774 
L 186.438968 487.775256 
L 194.951226 486.526196 
L 203.463484 485.26335 
L 211.975742 483.986641 
L 220.488 482.696639 
L 229.000258 481.394211 
L 237.512516 480.079029 
L 246.024774 478.752017 
L 254.537032 477.412996 
L 263.04929 476.062929 
L 271.561548 474.701802 
L 280.073806 473.33014 
L 288.586064 471.948305 
L 297.098322 470.556548 
L 305.61058 469.15545 
L 314.122838 467.744805 
L 322.635096 466.325322 
L 331.147354 464.897418 
L 339.659612 463.461281 
L 348.17187 462.017021 
L 356.684128 460.565259 
L 365.196386 459.106555 
L 373.708644 457.640029 
L 382.220902 456.167464 
L 390.73316 454.687659 
L 399.245418 453.202087 
L 407.757676 451.710687 
L 416.269934 450.213539 
L 424.782192 448.710998 
L 433.29445 447.203073 
L 441.806708 445.690421 
L 450.318966 444.173251 
L 458.831224 442.652019 
L 467.343482 441.125605 
L 475.85574 439.596717 
L 484.367998 438.062399 
L 492.880256 436.526055 
L 501.392514 434.985676 
L 509.904772 433.442128 
L 518.41703 431.896247 
L 526.929288 430.348282 
L 535.441546 428.797292 
L 543.953804 427.243621 
L 552.466062 425.688263 
L 560.97832 424.131405 
L 569.490578 422.572764 
L 578.002836 421.012761 
L 586.515094 419.45083 
L 595.027352 417.887843 
L 603.53961 416.324247 
L 612.051868 414.760608 
L 620.564126 413.195653 
L 629.076384 411.629938 
L 637.588642 410.065335 
L 646.1009 408.498932 
L 654.613158 406.933656 
L 663.125416 405.368238 
L 671.637674 403.803259 
L 680.149932 402.238753 
L 688.66219 400.675409 
L 697.174448 399.111352 
L 705.686706 397.550645 
L 714.198964 395.988424 
L 722.711222 394.428123 
L 731.22348 392.870914 
L 739.735738 391.312972 
L 748.247996 389.756473 
L 756.760254 388.20243 
L 765.272512 386.651409 
L 773.78477 385.101801 
L 782.297028 383.552229 
L 790.809286 382.005273 
L 799.321544 380.461023 
L 807.833802 378.9194 
L 816.34606 377.38017 
L 824.858318 375.843757 
L 833.370576 374.309801 
L 841.882834 372.778385 
L 850.395092 371.249801 
L 858.90735 369.72395 
L 867.419608 368.201072 
L 875.931866 366.681253 
L 884.444124 365.164352 
L 892.956382 363.650776 
" clip-path="url(#pc3b9d2d060)" style="fill: none; stroke: #8c6d31; stroke-width: 2; stroke-linecap: round"/>
   </g>
   <g id="line2d_40">
    <path d="M 41.730582 520.340911 
L 50.24284 520.067414 
L 58.755098 519.756623 
L 67.267356 519.409358 
L 75.779614 519.02636 
L 84.291872 518.608432 
L 92.80413 518.156301 
L 101.316388 517.670722 
L 109.828646 517.152471 
L 118.340904 516.602204 
L 126.853162 516.020649 
L 135.36542 515.40856 
L 143.877678 514.766573 
L 152.389936 514.095355 
L 160.902194 513.395605 
L 169.414452 512.667983 
L 177.92671 511.913114 
L 186.438968 511.131611 
L 194.951226 510.324146 
L 203.463484 509.491336 
L 211.975742 508.6337 
L 220.488 507.751873 
L 229.000258 506.84654 
L 237.512516 505.918094 
L 246.024774 504.967273 
L 254.537032 503.994493 
L 263.04929 503.000378 
L 271.561548 501.985482 
L 280.073806 500.950251 
L 288.586064 499.89524 
L 297.098322 498.820931 
L 305.61058 497.727964 
L 314.122838 496.616635 
L 322.635096 495.487505 
L 331.147354 494.341115 
L 339.659612 493.17787 
L 348.17187 491.998263 
L 356.684128 490.802668 
L 365.196386 489.591636 
L 373.708644 488.365523 
L 382.220902 487.124802 
L 390.73316 485.869764 
L 399.245418 484.601047 
L 407.757676 483.318936 
L 416.269934 482.023887 
L 424.782192 480.716238 
L 433.29445 479.396272 
L 441.806708 478.064704 
L 450.318966 476.72121 
L 458.831224 475.367236 
L 467.343482 474.00213 
L 475.85574 472.626844 
L 484.367998 471.241425 
L 492.880256 469.84608 
L 501.392514 468.441959 
L 509.904772 467.028177 
L 518.41703 465.605955 
L 526.929288 464.17557 
L 535.441546 462.736963 
L 543.953804 461.290343 
L 552.466062 459.83662 
L 560.97832 458.375786 
L 569.490578 456.907582 
L 578.002836 455.432981 
L 586.515094 453.952692 
L 595.027352 452.465546 
L 603.53961 450.972669 
L 612.051868 449.474314 
L 620.564126 447.970968 
L 629.076384 446.462948 
L 637.588642 444.949432 
L 646.1009 443.431312 
L 654.613158 441.909681 
L 663.125416 440.383348 
L 671.637674 438.853625 
L 680.149932 437.320081 
L 688.66219 435.783958 
L 697.174448 434.243221 
L 705.686706 432.700285 
L 714.198964 431.155108 
L 722.711222 429.607448 
L 731.22348 428.057118 
L 739.735738 426.504269 
L 748.247996 424.949888 
L 756.760254 423.393736 
L 765.272512 421.836481 
L 773.78477 420.276828 
L 782.297028 418.71605 
L 790.809286 417.154516 
L 799.321544 415.592887 
L 807.833802 414.030754 
L 816.34606 412.466382 
L 824.858318 410.903251 
L 833.370576 409.339688 
L 841.882834 407.775026 
L 850.395092 406.212635 
L 858.90735 404.64778 
L 867.419608 403.086117 
L 875.931866 401.522477 
L 884.444124 399.96115 
L 892.956382 398.400183 
" clip-path="url(#pc3b9d2d060)" style="fill: none; stroke: #e7cb94; stroke-width: 2; stroke-linecap: round"/>
   </g>
   <g id="line2d_41">
    <path d="M 41.730582 521.776021 
L 50.24284 521.262876 
L 58.755098 520.952306 
L 67.267356 520.758657 
L 75.779614 520.559245 
L 84.291872 520.320985 
L 92.80413 520.044681 
L 101.316388 519.731145 
L 109.828646 519.381203 
L 118.340904 518.995592 
L 126.853162 518.575094 
L 135.36542 518.120507 
L 143.877678 517.632537 
L 152.389936 517.111908 
L 160.902194 516.559371 
L 169.414452 515.975641 
L 177.92671 515.361399 
L 186.438968 514.71731 
L 194.951226 514.044097 
L 203.463484 513.342436 
L 211.975742 512.612881 
L 220.488 511.856141 
L 229.000258 511.072929 
L 237.512516 510.263713 
L 246.024774 509.429236 
L 254.537032 508.570021 
L 263.04929 507.68667 
L 271.561548 506.779815 
L 280.073806 505.84996 
L 288.586064 504.897722 
L 297.098322 503.923579 
L 305.61058 502.928236 
L 314.122838 501.912044 
L 322.635096 500.875613 
L 331.147354 499.819402 
L 339.659612 498.744091 
L 348.17187 497.649971 
L 356.684128 496.537615 
L 365.196386 495.407576 
L 373.708644 494.260232 
L 382.220902 493.09603 
L 390.73316 491.915532 
L 399.245418 490.719167 
L 407.757676 489.507342 
L 416.269934 488.280467 
L 424.782192 487.03899 
L 433.29445 485.783441 
L 441.806708 484.514126 
L 450.318966 483.231207 
L 458.831224 481.935568 
L 467.343482 480.62724 
L 475.85574 479.306897 
L 484.367998 477.974603 
L 492.880256 476.631121 
L 501.392514 475.276404 
L 509.904772 473.910865 
L 518.41703 472.535033 
L 526.929288 471.149465 
L 535.441546 469.754272 
L 543.953804 468.349181 
L 552.466062 466.935533 
L 560.97832 465.513477 
L 569.490578 464.082655 
L 578.002836 462.643722 
L 586.515094 461.197024 
L 595.027352 459.742912 
L 603.53961 458.282095 
L 612.051868 456.813519 
L 620.564126 455.339296 
L 629.076384 453.858357 
L 637.588642 452.371111 
L 646.1009 450.878335 
L 654.613158 449.380167 
L 663.125416 447.876619 
L 671.637674 446.368411 
L 680.149932 444.855801 
L 688.66219 443.337515 
L 697.174448 441.815468 
L 705.686706 440.289913 
L 714.198964 438.759728 
L 722.711222 437.226661 
L 731.22348 435.690164 
L 739.735738 434.149843 
L 748.247996 432.607435 
L 756.760254 431.062449 
L 765.272512 429.514652 
L 773.78477 427.96413 
L 782.297028 426.411682 
L 790.809286 424.857398 
L 799.321544 423.301632 
L 807.833802 421.744576 
L 816.34606 420.185949 
L 824.858318 418.625404 
L 833.370576 417.063941 
L 841.882834 415.502194 
L 850.395092 413.940888 
L 858.90735 412.376753 
L 867.419608 410.813428 
L 875.931866 409.251073 
L 884.444124 407.686243 
L 892.956382 406.124276 
" clip-path="url(#pc3b9d2d060)" style="fill: none; stroke: #ad494a; stroke-width: 2; stroke-linecap: round"/>
   </g>
   <g id="line2d_42">
    <path d="M 41.730582 523.540204 
L 50.24284 522.325503 
L 58.755098 521.594663 
L 67.267356 521.153319 
L 75.779614 520.885847 
L 84.291872 520.703224 
L 92.80413 520.492142 
L 101.316388 520.242451 
L 109.828646 519.95499 
L 118.340904 519.630531 
L 126.853162 519.269871 
L 135.36542 518.873826 
L 143.877678 518.443126 
L 152.389936 517.97852 
L 160.902194 517.480775 
L 169.414452 516.950621 
L 177.92671 516.388767 
L 186.438968 515.795892 
L 194.951226 515.172743 
L 203.463484 514.520006 
L 211.975742 513.838275 
L 220.488 513.128244 
L 229.000258 512.390671 
L 237.512516 511.62602 
L 246.024774 510.835091 
L 254.537032 510.018375 
L 263.04929 509.176522 
L 271.561548 508.310162 
L 280.073806 507.419834 
L 288.586064 506.506151 
L 297.098322 505.569632 
L 305.61058 504.610968 
L 314.122838 503.630533 
L 322.635096 502.62897 
L 331.147354 501.606811 
L 339.659612 500.5646 
L 348.17187 499.502726 
L 356.684128 498.421852 
L 365.196386 497.322383 
L 373.708644 496.204872 
L 382.220902 495.069635 
L 390.73316 493.917374 
L 399.245418 492.748536 
L 407.757676 491.563324 
L 416.269934 490.362392 
L 424.782192 489.146167 
L 433.29445 487.915008 
L 441.806708 486.669425 
L 450.318966 485.409779 
L 458.831224 484.136607 
L 467.343482 482.849948 
L 475.85574 481.55072 
L 484.367998 480.238782 
L 492.880256 478.914953 
L 501.392514 477.579735 
L 509.904772 476.232581 
L 518.41703 474.874829 
L 526.929288 473.506666 
L 535.441546 472.128045 
L 543.953804 470.739232 
L 552.466062 469.341213 
L 560.97832 467.933994 
L 569.490578 466.517983 
L 578.002836 465.092916 
L 586.515094 463.659928 
L 595.027352 462.219077 
L 603.53961 460.77029 
L 612.051868 459.313864 
L 620.564126 457.851129 
L 629.076384 456.381009 
L 637.588642 454.904849 
L 646.1009 453.422206 
L 654.613158 451.933479 
L 663.125416 450.439059 
L 671.637674 448.939482 
L 680.149932 447.434813 
L 688.66219 445.925406 
L 697.174448 444.410675 
L 705.686706 442.891504 
L 714.198964 441.369073 
L 722.711222 439.841535 
L 731.22348 438.311474 
L 739.735738 436.776559 
L 748.247996 435.239632 
L 756.760254 433.698883 
L 765.272512 432.155256 
L 773.78477 430.609163 
L 782.297028 429.060816 
L 790.809286 427.5102 
L 799.321544 425.957555 
L 807.833802 424.40296 
L 816.34606 422.846457 
L 824.858318 421.288614 
L 833.370576 419.729387 
L 841.882834 418.1693 
L 850.395092 416.608961 
L 858.90735 415.046617 
L 867.419608 413.483537 
L 875.931866 411.921325 
L 884.444124 410.35787 
L 892.956382 408.793899 
" clip-path="url(#pc3b9d2d060)" style="fill: none; stroke: #e7969c; stroke-width: 2; stroke-linecap: round"/>
   </g>
   <g id="line2d_43">
    <path d="M 41.730582 525.451941 
L 50.24284 523.471994 
L 58.755098 522.284717 
L 67.267356 521.570119 
L 75.779614 521.138473 
L 84.291872 520.876851 
L 92.80413 520.694749 
L 101.316388 520.481957 
L 109.828646 520.230615 
L 118.340904 519.94151 
L 126.853162 519.615452 
L 135.36542 519.253263 
L 143.877678 518.855692 
L 152.389936 518.423495 
L 160.902194 517.957453 
L 169.414452 517.458309 
L 177.92671 516.926776 
L 186.438968 516.363554 
L 194.951226 515.769394 
L 203.463484 515.144995 
L 211.975742 514.490956 
L 220.488 513.808003 
L 229.000258 513.096869 
L 237.512516 512.358059 
L 246.024774 511.59236 
L 254.537032 510.800288 
L 263.04929 509.982512 
L 271.561548 509.139659 
L 280.073806 508.272247 
L 288.586064 507.380972 
L 297.098322 506.466277 
L 305.61058 505.52892 
L 314.122838 504.569275 
L 322.635096 503.587985 
L 331.147354 502.585598 
L 339.659612 501.562614 
L 348.17187 500.519529 
L 356.684128 499.456954 
L 365.196386 498.375298 
L 373.708644 497.275165 
L 382.220902 496.156798 
L 390.73316 495.020984 
L 399.245418 493.868067 
L 407.757676 492.698416 
L 416.269934 491.512594 
L 424.782192 490.311139 
L 433.29445 489.094231 
L 441.806708 487.862557 
L 450.318966 486.616432 
L 458.831224 485.356249 
L 467.343482 484.082413 
L 475.85574 482.795639 
L 484.367998 481.495565 
L 492.880256 480.183326 
L 501.392514 478.859146 
L 509.904772 477.523162 
L 518.41703 476.175839 
L 526.929288 474.817918 
L 535.441546 473.449128 
L 543.953804 472.070084 
L 552.466062 470.681161 
L 560.97832 469.282716 
L 569.490578 467.87517 
L 578.002836 466.458529 
L 586.515094 465.033422 
L 595.027352 463.600105 
L 603.53961 462.158838 
L 612.051868 460.710094 
L 620.564126 459.253466 
L 629.076384 457.790338 
L 637.588642 456.32005 
L 646.1009 454.843902 
L 654.613158 453.360749 
L 663.125416 451.871779 
L 671.637674 450.377425 
L 680.149932 448.87765 
L 688.66219 447.372695 
L 697.174448 445.863003 
L 705.686706 444.348681 
L 714.198964 442.829249 
L 722.711222 441.306331 
L 731.22348 439.779275 
L 739.735738 438.248474 
L 748.247996 436.713972 
L 756.760254 435.177023 
L 765.272512 433.636057 
L 773.78477 432.092332 
L 782.297028 430.546335 
L 790.809286 428.998004 
L 799.321544 427.447528 
L 807.833802 425.894929 
L 816.34606 424.340198 
L 824.858318 422.783837 
L 833.370576 421.225743 
L 841.882834 419.666372 
L 850.395092 418.106257 
L 858.90735 416.545749 
L 867.419608 414.98408 
L 875.931866 413.420868 
L 884.444124 411.858217 
L 892.956382 410.295365 
" clip-path="url(#pc3b9d2d060)" style="fill: none; stroke: #a55194; stroke-width: 2; stroke-linecap: round"/>
   </g>
   <g id="line2d_44">
    <path d="M 41.730582 527.427775 
L 50.24284 524.653647 
L 58.755098 522.993981 
L 67.267356 521.997353 
L 75.779614 521.396721 
L 84.291872 521.033499 
L 92.80413 520.813068 
L 101.316388 520.626007 
L 109.828646 520.399889 
L 118.340904 520.135476 
L 126.853162 519.833585 
L 135.36542 519.495047 
L 143.877678 519.120619 
L 152.389936 518.711068 
L 160.902194 518.267178 
L 169.414452 517.789701 
L 177.92671 517.279363 
L 186.438968 516.736868 
L 194.951226 516.162973 
L 203.463484 515.558383 
L 211.975742 514.92371 
L 220.488 514.259684 
L 229.000258 513.567045 
L 237.512516 512.84632 
L 246.024774 512.098265 
L 254.537032 511.323436 
L 263.04929 510.522509 
L 271.561548 509.696087 
L 280.073806 508.844736 
L 288.586064 507.969122 
L 297.098322 507.06975 
L 305.61058 506.147311 
L 314.122838 505.202223 
L 322.635096 504.235108 
L 331.147354 503.246542 
L 339.659612 502.237093 
L 348.17187 501.20715 
L 356.684128 500.157379 
L 365.196386 499.088246 
L 373.708644 498.00021 
L 382.220902 496.893779 
L 390.73316 495.769489 
L 399.245418 494.627743 
L 407.757676 493.469083 
L 416.269934 492.293852 
L 424.782192 491.102696 
L 433.29445 489.895928 
L 441.806708 488.673968 
L 450.318966 487.437284 
L 458.831224 486.186331 
L 467.343482 484.921478 
L 475.85574 483.643191 
L 484.367998 482.351736 
L 492.880256 481.047611 
L 501.392514 479.731374 
L 509.904772 478.402978 
L 518.41703 477.063188 
L 526.929288 475.712192 
L 535.441546 474.350552 
L 543.953804 472.978204 
L 552.466062 471.595752 
L 560.97832 470.203674 
L 569.490578 468.802302 
L 578.002836 467.391267 
L 586.515094 465.971911 
L 595.027352 464.544101 
L 603.53961 463.10798 
L 612.051868 461.663892 
L 620.564126 460.212554 
L 629.076384 458.75424 
L 637.588642 457.288177 
L 646.1009 455.81607 
L 654.613158 454.337477 
L 663.125416 452.852293 
L 671.637674 451.361649 
L 680.149932 449.865445 
L 688.66219 448.36385 
L 697.174448 446.85723 
L 705.686706 445.34608 
L 714.198964 443.830041 
L 722.711222 442.309246 
L 731.22348 440.785542 
L 739.735738 439.256477 
L 748.247996 437.725336 
L 756.760254 436.189026 
L 765.272512 434.650858 
L 773.78477 433.10998 
L 782.297028 431.56498 
L 790.809286 430.017757 
L 799.321544 428.468476 
L 807.833802 426.917132 
L 816.34606 425.363688 
L 824.858318 423.808617 
L 833.370576 422.251786 
L 841.882834 420.693618 
L 850.395092 419.134614 
L 858.90735 417.574959 
L 867.419608 416.012662 
L 875.931866 414.450356 
L 884.444124 412.888381 
L 892.956382 411.325123 
" clip-path="url(#pc3b9d2d060)" style="fill: none; stroke: #de9ed6; stroke-width: 2; stroke-linecap: round"/>
   </g>
   <g id="patch_3">
    <path d="M 41.730582 521.153031 
L 41.730582 51.564121 
" style="fill: none"/>
   </g>
   <g id="patch_4">
    <path d="M 935.517672 521.153031 
L 935.517672 51.564121 
" style="fill: none"/>
   </g>
   <g id="patch_5">
    <path d="M 41.730582 521.153031 
L 935.517672 521.153031 
" style="fill: none"/>
   </g>
   <g id="patch_6">
    <path d="M 41.730582 51.564121 
L 935.517672 51.564121 
" style="fill: none"/>
   </g>
   <g id="patch_7">
    <path d="M 467.343482 82.6117 
Q 467.343482 277.978797 467.343482 471.668842 
" style="fill: none; stroke: #000000; stroke-width: 1.5; stroke-linecap: round"/>
    <path d="M 470.543482 465.268842 
L 467.343482 471.668842 
L 464.143482 465.268842 
" style="fill: none; stroke: #000000; stroke-width: 1.5; stroke-linecap: round"/>
   </g>
   <g id="text_19">
    <!-- Time -->
    <g style="fill: #262626" transform="translate(488.624127 471.85637) scale(0.18 -0.18)">
     <defs>
      <path id="CMR17-54" d="M 3981 4326 
L 288 4326 
L 179 2918 
L 294 2918 
C 378 3976 467 4160 1453 4160 
C 1568 4160 1754 4160 1805 4154 
C 1926 4135 1926 4058 1926 3912 
L 1926 459 
C 1926 230 1907 160 1376 160 
L 1197 160 
L 1197 0 
C 1504 0 1824 0 2138 0 
C 2451 0 2771 0 3078 0 
L 3078 160 
L 2899 160 
C 2368 160 2349 230 2349 459 
L 2349 3912 
C 2349 4052 2349 4129 2464 4154 
C 2515 4160 2701 4160 2816 4160 
C 3795 4160 3891 3976 3974 2918 
L 4090 2918 
L 3981 4326 
z
" transform="scale(0.015625)"/>
      <path id="CMR17-69" d="M 992 3909 
C 992 4049 877 4170 730 4170 
C 589 4170 467 4056 467 3909 
C 467 3769 582 3648 730 3648 
C 870 3648 992 3763 992 3909 
z
M 243 2706 
L 243 2541 
C 602 2541 653 2502 653 2197 
L 653 427 
C 653 184 627 153 218 153 
L 218 -13 
C 371 0 646 0 806 0 
C 960 0 1222 0 1370 -13 
L 1370 153 
C 992 153 979 191 979 420 
L 979 2776 
L 243 2706 
z
" transform="scale(0.015625)"/>
      <path id="CMR17-6d" d="M 4326 1933 
C 4326 2252 4269 2790 3507 2790 
C 3072 2790 2771 2496 2656 2151 
L 2650 2151 
C 2573 2676 2195 2790 1837 2790 
C 1331 2790 1069 2400 973 2144 
L 966 2144 
L 966 2790 
L 211 2720 
L 211 2554 
C 589 2554 646 2515 646 2208 
L 646 428 
C 646 184 621 153 211 153 
L 211 -13 
C 365 0 646 0 813 0 
C 979 0 1267 0 1421 -13 
L 1421 153 
C 1011 153 986 178 986 428 
L 986 1658 
C 986 2247 1344 2688 1792 2688 
C 2266 2688 2317 2266 2317 1958 
L 2317 428 
C 2317 184 2291 153 1882 153 
L 1882 -13 
C 2035 0 2317 0 2483 0 
C 2650 0 2938 0 3091 -13 
L 3091 153 
C 2682 153 2656 178 2656 428 
L 2656 1658 
C 2656 2247 3014 2688 3462 2688 
C 3936 2688 3987 2266 3987 1958 
L 3987 428 
C 3987 184 3962 153 3552 153 
L 3552 -13 
C 3706 0 3987 0 4154 0 
C 4320 0 4608 0 4762 -13 
L 4762 153 
C 4352 153 4326 178 4326 428 
L 4326 1933 
z
" transform="scale(0.015625)"/>
      <path id="CMR17-65" d="M 2438 1472 
C 2464 1498 2464 1511 2464 1576 
C 2464 2238 2118 2816 1389 2816 
C 710 2816 173 2169 173 1383 
C 173 551 781 -64 1459 -64 
C 2176 -64 2458 607 2458 740 
C 2458 784 2419 784 2406 784 
C 2362 784 2355 771 2330 696 
C 2189 265 1837 51 1504 51 
C 1229 51 954 203 781 480 
C 582 803 582 1176 582 1472 
L 2438 1472 
z
M 589 1568 
C 634 2505 1126 2714 1382 2714 
C 1818 2714 2112 2297 2118 1568 
L 589 1568 
z
" transform="scale(0.015625)"/>
     </defs>
     <use xlink:href="#CMR17-54" transform="scale(0.996264)"/>
     <use xlink:href="#CMR17-69" transform="translate(66.509881 0) scale(0.996264)"/>
     <use xlink:href="#CMR17-6d" transform="translate(91.380939 0) scale(0.996264)"/>
     <use xlink:href="#CMR17-65" transform="translate(168.300529 0) scale(0.996264)"/>
    </g>
   </g>
   <g id="legend_1">
    <g id="line2d_45">
     <path d="M 948.117672 197.198434 
L 962.117672 197.198434 
L 976.117672 197.198434 
" style="fill: none; stroke: #393b79; stroke-width: 2; stroke-linecap: round"/>
    </g>
    <g id="text_20">
     <!-- t = 0.00 -->
     <g style="fill: #262626" transform="translate(987.317672 202.098434) scale(0.14 -0.14)">
      <defs>
       <path id="CMR17-74" d="M 966 2560 
L 1862 2560 
L 1862 2725 
L 966 2725 
L 966 3904 
L 851 3904 
C 838 3245 614 2668 70 2668 
L 70 2560 
L 627 2560 
L 627 771 
C 627 650 627 -64 1370 -64 
C 1747 -64 1965 306 1965 777 
L 1965 1140 
L 1850 1140 
L 1850 783 
C 1850 344 1677 51 1408 51 
C 1222 51 966 178 966 758 
L 966 2560 
z
" transform="scale(0.015625)"/>
       <path id="CMR17-3d" d="M 4115 2017 
C 4211 2017 4307 2017 4307 2125 
C 4307 2240 4198 2240 4090 2240 
L 512 2240 
C 403 2240 294 2240 294 2125 
C 294 2017 390 2017 486 2017 
L 4115 2017 
z
M 4090 896 
C 4198 896 4307 896 4307 1011 
C 4307 1119 4211 1119 4115 1119 
L 486 1119 
C 390 1119 294 1119 294 1011 
C 294 896 403 896 512 896 
L 4090 896 
z
" transform="scale(0.015625)"/>
       <path id="CMR17-2e" d="M 1062 261 
C 1062 420 934 522 800 522 
C 672 522 538 420 538 261 
C 538 102 666 0 800 0 
C 928 0 1062 102 1062 261 
z
" transform="scale(0.015625)"/>
      </defs>
      <use xlink:href="#CMR17-74" transform="scale(0.996264)"/>
      <use xlink:href="#CMR17-3d" transform="translate(65.356734 0) scale(0.996264)"/>
      <use xlink:href="#CMR17-30" transform="translate(167.147489 0) scale(0.996264)"/>
      <use xlink:href="#CMR17-2e" transform="translate(212.837966 0) scale(0.996264)"/>
      <use xlink:href="#CMR17-30" transform="translate(237.709025 0) scale(0.996264)"/>
      <use xlink:href="#CMR17-30" transform="translate(283.399502 0) scale(0.996264)"/>
     </g>
    </g>
    <g id="line2d_46">
     <path d="M 948.117672 216.710462 
L 962.117672 216.710462 
L 976.117672 216.710462 
" style="fill: none; stroke: #6b6ecf; stroke-width: 2; stroke-linecap: round"/>
    </g>
    <g id="text_21">
     <!-- t = 10.00 -->
     <g style="fill: #262626" transform="translate(987.317672 221.610462) scale(0.14 -0.14)">
      <use xlink:href="#CMR17-74" transform="scale(0.996264)"/>
      <use xlink:href="#CMR17-3d" transform="translate(65.356734 0) scale(0.996264)"/>
      <use xlink:href="#CMR17-31" transform="translate(167.147489 0) scale(0.996264)"/>
      <use xlink:href="#CMR17-30" transform="translate(212.837966 0) scale(0.996264)"/>
      <use xlink:href="#CMR17-2e" transform="translate(258.528443 0) scale(0.996264)"/>
      <use xlink:href="#CMR17-30" transform="translate(283.399502 0) scale(0.996264)"/>
      <use xlink:href="#CMR17-30" transform="translate(329.089979 0) scale(0.996264)"/>
     </g>
    </g>
    <g id="line2d_47">
     <path d="M 948.117672 236.222491 
L 962.117672 236.222491 
L 976.117672 236.222491 
" style="fill: none; stroke: #637939; stroke-width: 2; stroke-linecap: round"/>
    </g>
    <g id="text_22">
     <!-- t = 50.00 -->
     <g style="fill: #262626" transform="translate(987.317672 241.122491) scale(0.14 -0.14)">
      <use xlink:href="#CMR17-74" transform="scale(0.996264)"/>
      <use xlink:href="#CMR17-3d" transform="translate(65.356734 0) scale(0.996264)"/>
      <use xlink:href="#CMR17-35" transform="translate(167.147489 0) scale(0.996264)"/>
      <use xlink:href="#CMR17-30" transform="translate(212.837966 0) scale(0.996264)"/>
      <use xlink:href="#CMR17-2e" transform="translate(258.528443 0) scale(0.996264)"/>
      <use xlink:href="#CMR17-30" transform="translate(283.399502 0) scale(0.996264)"/>
      <use xlink:href="#CMR17-30" transform="translate(329.089979 0) scale(0.996264)"/>
     </g>
    </g>
    <g id="line2d_48">
     <path d="M 948.117672 255.734519 
L 962.117672 255.734519 
L 976.117672 255.734519 
" style="fill: none; stroke: #b5cf6b; stroke-width: 2; stroke-linecap: round"/>
    </g>
    <g id="text_23">
     <!-- t = 100.00 -->
     <g style="fill: #262626" transform="translate(987.317672 260.634519) scale(0.14 -0.14)">
      <use xlink:href="#CMR17-74" transform="scale(0.996264)"/>
      <use xlink:href="#CMR17-3d" transform="translate(65.356734 0) scale(0.996264)"/>
      <use xlink:href="#CMR17-31" transform="translate(167.147489 0) scale(0.996264)"/>
      <use xlink:href="#CMR17-30" transform="translate(212.837966 0) scale(0.996264)"/>
      <use xlink:href="#CMR17-30" transform="translate(258.528443 0) scale(0.996264)"/>
      <use xlink:href="#CMR17-2e" transform="translate(304.21892 0) scale(0.996264)"/>
      <use xlink:href="#CMR17-30" transform="translate(329.089979 0) scale(0.996264)"/>
      <use xlink:href="#CMR17-30" transform="translate(374.780456 0) scale(0.996264)"/>
     </g>
    </g>
    <g id="line2d_49">
     <path d="M 948.117672 275.246547 
L 962.117672 275.246547 
L 976.117672 275.246547 
" style="fill: none; stroke: #8c6d31; stroke-width: 2; stroke-linecap: round"/>
    </g>
    <g id="text_24">
     <!-- t = 250.00 -->
     <g style="fill: #262626" transform="translate(987.317672 280.146547) scale(0.14 -0.14)">
      <use xlink:href="#CMR17-74" transform="scale(0.996264)"/>
      <use xlink:href="#CMR17-3d" transform="translate(65.356734 0) scale(0.996264)"/>
      <use xlink:href="#CMR17-32" transform="translate(167.147489 0) scale(0.996264)"/>
      <use xlink:href="#CMR17-35" transform="translate(212.837966 0) scale(0.996264)"/>
      <use xlink:href="#CMR17-30" transform="translate(258.528443 0) scale(0.996264)"/>
      <use xlink:href="#CMR17-2e" transform="translate(304.21892 0) scale(0.996264)"/>
      <use xlink:href="#CMR17-30" transform="translate(329.089979 0) scale(0.996264)"/>
      <use xlink:href="#CMR17-30" transform="translate(374.780456 0) scale(0.996264)"/>
     </g>
    </g>
    <g id="line2d_50">
     <path d="M 948.117672 294.758576 
L 962.117672 294.758576 
L 976.117672 294.758576 
" style="fill: none; stroke: #e7cb94; stroke-width: 2; stroke-linecap: round"/>
    </g>
    <g id="text_25">
     <!-- t = 500.00 -->
     <g style="fill: #262626" transform="translate(987.317672 299.658576) scale(0.14 -0.14)">
      <use xlink:href="#CMR17-74" transform="scale(0.996264)"/>
      <use xlink:href="#CMR17-3d" transform="translate(65.356734 0) scale(0.996264)"/>
      <use xlink:href="#CMR17-35" transform="translate(167.147489 0) scale(0.996264)"/>
      <use xlink:href="#CMR17-30" transform="translate(212.837966 0) scale(0.996264)"/>
      <use xlink:href="#CMR17-30" transform="translate(258.528443 0) scale(0.996264)"/>
      <use xlink:href="#CMR17-2e" transform="translate(304.21892 0) scale(0.996264)"/>
      <use xlink:href="#CMR17-30" transform="translate(329.089979 0) scale(0.996264)"/>
      <use xlink:href="#CMR17-30" transform="translate(374.780456 0) scale(0.996264)"/>
     </g>
    </g>
    <g id="line2d_51">
     <path d="M 948.117672 314.270604 
L 962.117672 314.270604 
L 976.117672 314.270604 
" style="fill: none; stroke: #ad494a; stroke-width: 2; stroke-linecap: round"/>
    </g>
    <g id="text_26">
     <!-- t = 750.00 -->
     <g style="fill: #262626" transform="translate(987.317672 319.170604) scale(0.14 -0.14)">
      <use xlink:href="#CMR17-74" transform="scale(0.996264)"/>
      <use xlink:href="#CMR17-3d" transform="translate(65.356734 0) scale(0.996264)"/>
      <use xlink:href="#CMR17-37" transform="translate(167.147489 0) scale(0.996264)"/>
      <use xlink:href="#CMR17-35" transform="translate(212.837966 0) scale(0.996264)"/>
      <use xlink:href="#CMR17-30" transform="translate(258.528443 0) scale(0.996264)"/>
      <use xlink:href="#CMR17-2e" transform="translate(304.21892 0) scale(0.996264)"/>
      <use xlink:href="#CMR17-30" transform="translate(329.089979 0) scale(0.996264)"/>
      <use xlink:href="#CMR17-30" transform="translate(374.780456 0) scale(0.996264)"/>
     </g>
    </g>
    <g id="line2d_52">
     <path d="M 948.117672 333.782633 
L 962.117672 333.782633 
L 976.117672 333.782633 
" style="fill: none; stroke: #e7969c; stroke-width: 2; stroke-linecap: round"/>
    </g>
    <g id="text_27">
     <!-- t = 1000.00 -->
     <g style="fill: #262626" transform="translate(987.317672 338.682633) scale(0.14 -0.14)">
      <use xlink:href="#CMR17-74" transform="scale(0.996264)"/>
      <use xlink:href="#CMR17-3d" transform="translate(65.356734 0) scale(0.996264)"/>
      <use xlink:href="#CMR17-31" transform="translate(167.147489 0) scale(0.996264)"/>
      <use xlink:href="#CMR17-30" transform="translate(212.837966 0) scale(0.996264)"/>
      <use xlink:href="#CMR17-30" transform="translate(258.528443 0) scale(0.996264)"/>
      <use xlink:href="#CMR17-30" transform="translate(304.21892 0) scale(0.996264)"/>
      <use xlink:href="#CMR17-2e" transform="translate(349.909397 0) scale(0.996264)"/>
      <use xlink:href="#CMR17-30" transform="translate(374.780456 0) scale(0.996264)"/>
      <use xlink:href="#CMR17-30" transform="translate(420.470933 0) scale(0.996264)"/>
     </g>
    </g>
    <g id="line2d_53">
     <path d="M 948.117672 353.294661 
L 962.117672 353.294661 
L 976.117672 353.294661 
" style="fill: none; stroke: #a55194; stroke-width: 2; stroke-linecap: round"/>
    </g>
    <g id="text_28">
     <!-- t = 1250.00 -->
     <g style="fill: #262626" transform="translate(987.317672 358.194661) scale(0.14 -0.14)">
      <use xlink:href="#CMR17-74" transform="scale(0.996264)"/>
      <use xlink:href="#CMR17-3d" transform="translate(65.356734 0) scale(0.996264)"/>
      <use xlink:href="#CMR17-31" transform="translate(167.147489 0) scale(0.996264)"/>
      <use xlink:href="#CMR17-32" transform="translate(212.837966 0) scale(0.996264)"/>
      <use xlink:href="#CMR17-35" transform="translate(258.528443 0) scale(0.996264)"/>
      <use xlink:href="#CMR17-30" transform="translate(304.21892 0) scale(0.996264)"/>
      <use xlink:href="#CMR17-2e" transform="translate(349.909397 0) scale(0.996264)"/>
      <use xlink:href="#CMR17-30" transform="translate(374.780456 0) scale(0.996264)"/>
      <use xlink:href="#CMR17-30" transform="translate(420.470933 0) scale(0.996264)"/>
     </g>
    </g>
    <g id="line2d_54">
     <path d="M 948.117672 372.806689 
L 962.117672 372.806689 
L 976.117672 372.806689 
" style="fill: none; stroke: #de9ed6; stroke-width: 2; stroke-linecap: round"/>
    </g>
    <g id="text_29">
     <!-- t = 1500.00 -->
     <g style="fill: #262626" transform="translate(987.317672 377.706689) scale(0.14 -0.14)">
      <use xlink:href="#CMR17-74" transform="scale(0.996264)"/>
      <use xlink:href="#CMR17-3d" transform="translate(65.356734 0) scale(0.996264)"/>
      <use xlink:href="#CMR17-31" transform="translate(167.147489 0) scale(0.996264)"/>
      <use xlink:href="#CMR17-35" transform="translate(212.837966 0) scale(0.996264)"/>
      <use xlink:href="#CMR17-30" transform="translate(258.528443 0) scale(0.996264)"/>
      <use xlink:href="#CMR17-30" transform="translate(304.21892 0) scale(0.996264)"/>
      <use xlink:href="#CMR17-2e" transform="translate(349.909397 0) scale(0.996264)"/>
      <use xlink:href="#CMR17-30" transform="translate(374.780456 0) scale(0.996264)"/>
      <use xlink:href="#CMR17-30" transform="translate(420.470933 0) scale(0.996264)"/>
     </g>
    </g>
   </g>
  </g>
  <g id="text_30">
   <!-- adhesivity -->
   <g style="fill: #262626" transform="translate(501.333696 24.803515) scale(0.192 -0.192)">
    <defs>
     <path id="CMR17-61" d="M 2304 1653 
C 2304 2072 2304 2294 2035 2543 
C 1798 2752 1523 2816 1306 2816 
C 800 2816 435 2407 435 1971 
C 435 1728 627 1728 666 1728 
C 749 1728 896 1778 896 1954 
C 896 2112 774 2181 666 2181 
C 640 2181 608 2174 589 2168 
C 723 2592 1069 2714 1293 2714 
C 1613 2714 1965 2429 1965 1885 
L 1965 1600 
C 1587 1600 1133 1549 774 1357 
C 371 1133 256 813 256 570 
C 256 77 832 -64 1171 -64 
C 1523 -64 1850 139 1990 511 
C 2003 233 2182 -18 2464 -18 
C 2598 -18 2938 70 2938 567 
L 2938 920 
L 2822 920 
L 2822 562 
C 2822 178 2650 128 2566 128 
C 2304 128 2304 458 2304 738 
L 2304 1653 
z
M 1965 870 
C 1965 317 1568 38 1216 38 
C 896 38 646 275 646 570 
C 646 761 730 1100 1101 1305 
C 1408 1478 1760 1504 1965 1504 
L 1965 870 
z
" transform="scale(0.015625)"/>
     <path id="CMR17-64" d="M 1869 4326 
L 1869 4160 
C 2246 4160 2304 4122 2304 3820 
L 2304 2345 
C 2278 2377 2016 2790 1498 2790 
C 845 2790 211 2208 211 1364 
C 211 525 806 -64 1434 -64 
C 1978 -64 2259 337 2291 380 
L 2291 -63 
L 3066 -63 
L 3066 128 
C 2688 128 2630 166 2630 473 
L 2630 4396 
L 1869 4326 
z
M 2291 755 
C 2291 563 2176 390 2029 262 
C 1811 70 1594 38 1472 38 
C 1286 38 621 134 621 1356 
C 621 2612 1363 2688 1530 2688 
C 1824 2688 2061 2522 2208 2291 
C 2291 2157 2291 2138 2291 2023 
L 2291 755 
z
" transform="scale(0.015625)"/>
     <path id="CMR17-68" d="M 2656 1933 
C 2656 2259 2592 2790 1837 2790 
C 1312 2790 1056 2368 979 2157 
L 973 2157 
L 973 4396 
L 211 4326 
L 211 4160 
C 589 4160 646 4122 646 3817 
L 646 426 
C 646 184 621 153 211 153 
L 211 -13 
C 365 0 646 0 813 0 
C 979 0 1267 0 1421 -13 
L 1421 153 
C 1011 153 986 178 986 428 
L 986 1658 
C 986 2247 1344 2688 1792 2688 
C 2266 2688 2317 2266 2317 1958 
L 2317 428 
C 2317 184 2291 153 1882 153 
L 1882 -13 
C 2035 0 2317 0 2483 0 
C 2650 0 2938 0 3091 -13 
L 3091 153 
C 2682 153 2656 178 2656 428 
L 2656 1933 
z
" transform="scale(0.015625)"/>
     <path id="CMR17-73" d="M 1978 2697 
C 1978 2813 1971 2819 1933 2819 
C 1907 2819 1901 2813 1824 2717 
C 1805 2691 1747 2626 1728 2601 
C 1523 2819 1235 2819 1126 2819 
C 416 2819 160 2447 160 2076 
C 160 1498 813 1365 998 1325 
C 1402 1243 1542 1217 1677 1101 
C 1760 1025 1901 884 1901 654 
C 1901 384 1747 38 1158 38 
C 602 38 403 460 288 1021 
C 269 1110 269 1117 218 1117 
C 166 1117 160 1110 160 983 
L 160 63 
C 160 -51 166 -58 205 -58 
C 237 -58 243 -51 275 0 
C 314 57 410 211 448 276 
C 576 103 800 -64 1158 -64 
C 1792 -64 2131 283 2131 784 
C 2131 1112 1958 1285 1875 1362 
C 1683 1561 1459 1606 1190 1657 
C 838 1735 390 1825 390 2217 
C 390 2383 480 2737 1126 2737 
C 1811 2737 1850 2094 1862 1888 
C 1869 1856 1901 1849 1920 1849 
C 1978 1849 1978 1869 1978 1978 
L 1978 2697 
z
" transform="scale(0.015625)"/>
     <path id="CMR17-76" d="M 2502 2163 
C 2560 2304 2662 2560 3034 2560 
L 3034 2726 
C 2912 2726 2752 2726 2630 2726 
C 2496 2726 2285 2726 2157 2732 
L 2157 2566 
C 2317 2553 2406 2477 2406 2311 
C 2406 2253 2406 2240 2368 2151 
L 1664 377 
L 902 2286 
C 864 2369 864 2381 864 2407 
C 864 2560 1075 2560 1171 2560 
L 1171 2732 
C 1018 2726 736 2726 576 2726 
C 403 2726 205 2726 64 2732 
L 64 2560 
C 307 2560 442 2560 518 2362 
L 1446 44 
C 1485 -51 1491 -64 1549 -64 
C 1606 -64 1613 -51 1651 44 
L 2502 2163 
z
" transform="scale(0.015625)"/>
     <path id="CMR17-79" d="M 2496 2197 
C 2656 2586 2944 2586 3034 2586 
L 3034 2752 
C 2912 2752 2752 2752 2630 2752 
C 2496 2752 2285 2752 2157 2758 
L 2157 2592 
C 2400 2573 2406 2394 2406 2343 
C 2406 2280 2394 2248 2362 2171 
L 1664 449 
L 902 2306 
C 870 2382 870 2426 870 2433 
C 870 2573 1018 2586 1171 2586 
L 1171 2758 
C 1018 2752 742 2752 582 2752 
C 410 2752 205 2752 64 2758 
L 64 2586 
C 410 2586 448 2554 531 2350 
L 1485 15 
C 1197 -738 1030 -1178 627 -1178 
C 557 -1178 397 -1159 282 -1044 
C 429 -1031 493 -942 493 -833 
C 493 -725 416 -629 288 -629 
C 147 -629 77 -725 77 -840 
C 77 -1095 339 -1280 627 -1280 
C 998 -1280 1229 -922 1357 -604 
L 2496 2197 
z
" transform="scale(0.015625)"/>
    </defs>
    <use xlink:href="#CMR17-61" transform="scale(0.996264)"/>
    <use xlink:href="#CMR17-64" transform="translate(45.690477 0) scale(0.996264)"/>
    <use xlink:href="#CMR17-68" transform="translate(96.585847 0) scale(0.996264)"/>
    <use xlink:href="#CMR17-65" transform="translate(147.481217 0) scale(0.996264)"/>
    <use xlink:href="#CMR17-73" transform="translate(187.966877 0) scale(0.996264)"/>
    <use xlink:href="#CMR17-69" transform="translate(223.768215 0) scale(0.996264)"/>
    <use xlink:href="#CMR17-76" transform="translate(248.639273 0) scale(0.996264)"/>
    <use xlink:href="#CMR17-69" transform="translate(296.932189 0) scale(0.996264)"/>
    <use xlink:href="#CMR17-74" transform="translate(321.803248 0) scale(0.996264)"/>
    <use xlink:href="#CMR17-79" transform="translate(354.481561 0) scale(0.996264)"/>
   </g>
  </g>
 </g>
 <defs>
  <clipPath id="pc3b9d2d060">
   <rect x="41.730582" y="51.564121" width="893.78709" height="469.58891"/>
  </clipPath>
 </defs>
</svg>
