<?xml version="1.0" encoding="utf-8" standalone="no"?>
<!DOCTYPE svg PUBLIC "-//W3C//DTD SVG 1.1//EN"
  "http://www.w3.org/Graphics/SVG/1.1/DTD/svg11.dtd">
<svg xmlns:xlink="http://www.w3.org/1999/xlink" width="1080pt" height="576pt" viewBox="0 0 1080 576" xmlns="http://www.w3.org/2000/svg" version="1.1">
 <metadata>
  <rdf:RDF xmlns:dc="http://purl.org/dc/elements/1.1/" xmlns:cc="http://creativecommons.org/ns#" xmlns:rdf="http://www.w3.org/1999/02/22-rdf-syntax-ns#">
   <cc:Work>
    <dc:type rdf:resource="http://purl.org/dc/dcmitype/StillImage"/>
    <dc:date>2024-06-28T12:32:29.292297</dc:date>
    <dc:format>image/svg+xml</dc:format>
    <dc:creator>
     <cc:Agent>
      <dc:title>Matplotlib v3.9.0, https://matplotlib.org/</dc:title>
     </cc:Agent>
    </dc:creator>
   </cc:Work>
  </rdf:RDF>
 </metadata>
 <defs>
  <style type="text/css">*{stroke-linejoin: round; stroke-linecap: butt}</style>
 </defs>
 <g id="figure_1">
  <g id="patch_1">
   <path d="M 0 576 
L 1080 576 
L 1080 0 
L 0 0 
z
" style="fill: #ffffff"/>
  </g>
  <g id="axes_1">
   <g id="patch_2">
    <path d="M 41.730582 521.153031 
L 935.517672 521.153031 
L 935.517672 51.564121 
L 41.730582 51.564121 
z
" style="fill: #eaeaf2"/>
   </g>
   <g id="matplotlib.axis_1">
    <g id="xtick_1">
     <g id="line2d_1">
      <path d="M 41.730582 521.153031 
L 41.730582 51.564121 
" clip-path="url(#p1b52702a87)" style="fill: none; stroke: #ffffff; stroke-linecap: round"/>
     </g>
     <g id="line2d_2"/>
     <g id="text_1">
      <!-- $\mathdefault{0.00}$ -->
      <g style="fill: #262626" transform="translate(29.591047 537.838907) scale(0.14 -0.14)">
       <defs>
        <path id="CMR17-30" d="M 2688 2025 
C 2688 2416 2682 3080 2413 3591 
C 2176 4039 1798 4198 1466 4198 
C 1158 4198 768 4058 525 3597 
C 269 3118 243 2524 243 2025 
C 243 1661 250 1106 448 619 
C 723 -39 1216 -128 1466 -128 
C 1760 -128 2208 -7 2470 600 
C 2662 1042 2688 1559 2688 2025 
z
M 1466 -26 
C 1056 -26 813 325 723 812 
C 653 1188 653 1738 653 2096 
C 653 2588 653 2997 736 3387 
C 858 3929 1216 4096 1466 4096 
C 1728 4096 2067 3923 2189 3400 
C 2272 3036 2278 2607 2278 2096 
C 2278 1680 2278 1169 2202 792 
C 2067 95 1690 -26 1466 -26 
z
" transform="scale(0.015625)"/>
        <path id="CMMI12-3a" d="M 1178 307 
C 1178 492 1024 619 870 619 
C 685 619 557 466 557 313 
C 557 128 710 0 864 0 
C 1050 0 1178 153 1178 307 
z
" transform="scale(0.015625)"/>
       </defs>
       <use xlink:href="#CMR17-30" transform="scale(0.996264)"/>
       <use xlink:href="#CMMI12-3a" transform="translate(45.690477 0) scale(0.996264)"/>
       <use xlink:href="#CMR17-30" transform="translate(72.787654 0) scale(0.996264)"/>
       <use xlink:href="#CMR17-30" transform="translate(118.478131 0) scale(0.996264)"/>
      </g>
     </g>
    </g>
    <g id="xtick_2">
     <g id="line2d_3">
      <path d="M 148.133807 521.153031 
L 148.133807 51.564121 
" clip-path="url(#p1b52702a87)" style="fill: none; stroke: #ffffff; stroke-linecap: round"/>
     </g>
     <g id="line2d_4"/>
     <g id="text_2">
      <!-- $\mathdefault{0.25}$ -->
      <g style="fill: #262626" transform="translate(135.994272 537.838907) scale(0.14 -0.14)">
       <defs>
        <path id="CMR17-32" d="M 2669 989 
L 2554 989 
C 2490 536 2438 459 2413 420 
C 2381 369 1920 369 1830 369 
L 602 369 
C 832 619 1280 1072 1824 1597 
C 2214 1967 2669 2402 2669 3035 
C 2669 3790 2067 4224 1395 4224 
C 691 4224 262 3604 262 3030 
C 262 2780 448 2748 525 2748 
C 589 2748 781 2787 781 3010 
C 781 3207 614 3264 525 3264 
C 486 3264 448 3258 422 3245 
C 544 3790 915 4058 1306 4058 
C 1862 4058 2227 3617 2227 3035 
C 2227 2479 1901 2000 1536 1584 
L 262 146 
L 262 0 
L 2515 0 
L 2669 989 
z
" transform="scale(0.015625)"/>
        <path id="CMR17-35" d="M 730 3692 
C 794 3666 1056 3584 1325 3584 
C 1920 3584 2246 3911 2432 4100 
C 2432 4157 2432 4192 2394 4192 
C 2387 4192 2374 4192 2323 4163 
C 2099 4058 1837 3973 1517 3973 
C 1325 3973 1037 3999 723 4139 
C 653 4171 640 4171 634 4171 
C 602 4171 595 4164 595 4037 
L 595 2203 
C 595 2089 595 2057 659 2057 
C 691 2057 704 2070 736 2114 
C 941 2401 1222 2522 1542 2522 
C 1766 2522 2246 2382 2246 1289 
C 2246 1085 2246 715 2054 421 
C 1894 159 1645 25 1370 25 
C 947 25 518 320 403 814 
C 429 807 480 795 506 795 
C 589 795 749 840 749 1038 
C 749 1210 627 1280 506 1280 
C 358 1280 262 1190 262 1011 
C 262 454 704 -128 1382 -128 
C 2042 -128 2669 440 2669 1264 
C 2669 2030 2170 2624 1549 2624 
C 1222 2624 947 2503 730 2274 
L 730 3692 
z
" transform="scale(0.015625)"/>
       </defs>
       <use xlink:href="#CMR17-30" transform="scale(0.996264)"/>
       <use xlink:href="#CMMI12-3a" transform="translate(45.690477 0) scale(0.996264)"/>
       <use xlink:href="#CMR17-32" transform="translate(72.787654 0) scale(0.996264)"/>
       <use xlink:href="#CMR17-35" transform="translate(118.478131 0) scale(0.996264)"/>
      </g>
     </g>
    </g>
    <g id="xtick_3">
     <g id="line2d_5">
      <path d="M 254.537032 521.153031 
L 254.537032 51.564121 
" clip-path="url(#p1b52702a87)" style="fill: none; stroke: #ffffff; stroke-linecap: round"/>
     </g>
     <g id="line2d_6"/>
     <g id="text_3">
      <!-- $\mathdefault{0.50}$ -->
      <g style="fill: #262626" transform="translate(242.397497 537.838907) scale(0.14 -0.14)">
       <use xlink:href="#CMR17-30" transform="scale(0.996264)"/>
       <use xlink:href="#CMMI12-3a" transform="translate(45.690477 0) scale(0.996264)"/>
       <use xlink:href="#CMR17-35" transform="translate(72.787654 0) scale(0.996264)"/>
       <use xlink:href="#CMR17-30" transform="translate(118.478131 0) scale(0.996264)"/>
      </g>
     </g>
    </g>
    <g id="xtick_4">
     <g id="line2d_7">
      <path d="M 360.940257 521.153031 
L 360.940257 51.564121 
" clip-path="url(#p1b52702a87)" style="fill: none; stroke: #ffffff; stroke-linecap: round"/>
     </g>
     <g id="line2d_8"/>
     <g id="text_4">
      <!-- $\mathdefault{0.75}$ -->
      <g style="fill: #262626" transform="translate(348.800722 537.838907) scale(0.14 -0.14)">
       <defs>
        <path id="CMR17-37" d="M 2886 3941 
L 2886 4081 
L 1382 4081 
C 634 4081 621 4165 595 4288 
L 480 4288 
L 294 3094 
L 410 3094 
C 429 3215 474 3540 550 3661 
C 589 3712 1062 3712 1171 3712 
L 2579 3712 
L 1869 2661 
C 1395 1954 1069 999 1069 165 
C 1069 89 1069 -128 1299 -128 
C 1530 -128 1530 89 1530 171 
L 1530 465 
C 1530 1508 1709 2196 2003 2636 
L 2886 3941 
z
" transform="scale(0.015625)"/>
       </defs>
       <use xlink:href="#CMR17-30" transform="scale(0.996264)"/>
       <use xlink:href="#CMMI12-3a" transform="translate(45.690477 0) scale(0.996264)"/>
       <use xlink:href="#CMR17-37" transform="translate(72.787654 0) scale(0.996264)"/>
       <use xlink:href="#CMR17-35" transform="translate(118.478131 0) scale(0.996264)"/>
      </g>
     </g>
    </g>
    <g id="xtick_5">
     <g id="line2d_9">
      <path d="M 467.343482 521.153031 
L 467.343482 51.564121 
" clip-path="url(#p1b52702a87)" style="fill: none; stroke: #ffffff; stroke-linecap: round"/>
     </g>
     <g id="line2d_10"/>
     <g id="text_5">
      <!-- $\mathdefault{1.00}$ -->
      <g style="fill: #262626" transform="translate(455.203947 537.838907) scale(0.14 -0.14)">
       <defs>
        <path id="CMR17-31" d="M 1702 4058 
C 1702 4192 1696 4192 1606 4192 
C 1357 3916 979 3827 621 3827 
C 602 3827 570 3827 563 3808 
C 557 3795 557 3782 557 3648 
C 755 3648 1088 3686 1344 3839 
L 1344 461 
C 1344 236 1331 160 781 160 
L 589 160 
L 589 0 
C 896 0 1216 0 1523 0 
C 1830 0 2150 0 2458 0 
L 2458 160 
L 2266 160 
C 1715 160 1702 230 1702 458 
L 1702 4058 
z
" transform="scale(0.015625)"/>
       </defs>
       <use xlink:href="#CMR17-31" transform="scale(0.996264)"/>
       <use xlink:href="#CMMI12-3a" transform="translate(45.690477 0) scale(0.996264)"/>
       <use xlink:href="#CMR17-30" transform="translate(72.787654 0) scale(0.996264)"/>
       <use xlink:href="#CMR17-30" transform="translate(118.478131 0) scale(0.996264)"/>
      </g>
     </g>
    </g>
    <g id="xtick_6">
     <g id="line2d_11">
      <path d="M 573.746707 521.153031 
L 573.746707 51.564121 
" clip-path="url(#p1b52702a87)" style="fill: none; stroke: #ffffff; stroke-linecap: round"/>
     </g>
     <g id="line2d_12"/>
     <g id="text_6">
      <!-- $\mathdefault{1.25}$ -->
      <g style="fill: #262626" transform="translate(561.607172 537.838907) scale(0.14 -0.14)">
       <use xlink:href="#CMR17-31" transform="scale(0.996264)"/>
       <use xlink:href="#CMMI12-3a" transform="translate(45.690477 0) scale(0.996264)"/>
       <use xlink:href="#CMR17-32" transform="translate(72.787654 0) scale(0.996264)"/>
       <use xlink:href="#CMR17-35" transform="translate(118.478131 0) scale(0.996264)"/>
      </g>
     </g>
    </g>
    <g id="xtick_7">
     <g id="line2d_13">
      <path d="M 680.149932 521.153031 
L 680.149932 51.564121 
" clip-path="url(#p1b52702a87)" style="fill: none; stroke: #ffffff; stroke-linecap: round"/>
     </g>
     <g id="line2d_14"/>
     <g id="text_7">
      <!-- $\mathdefault{1.50}$ -->
      <g style="fill: #262626" transform="translate(668.010397 537.838907) scale(0.14 -0.14)">
       <use xlink:href="#CMR17-31" transform="scale(0.996264)"/>
       <use xlink:href="#CMMI12-3a" transform="translate(45.690477 0) scale(0.996264)"/>
       <use xlink:href="#CMR17-35" transform="translate(72.787654 0) scale(0.996264)"/>
       <use xlink:href="#CMR17-30" transform="translate(118.478131 0) scale(0.996264)"/>
      </g>
     </g>
    </g>
    <g id="xtick_8">
     <g id="line2d_15">
      <path d="M 786.553157 521.153031 
L 786.553157 51.564121 
" clip-path="url(#p1b52702a87)" style="fill: none; stroke: #ffffff; stroke-linecap: round"/>
     </g>
     <g id="line2d_16"/>
     <g id="text_8">
      <!-- $\mathdefault{1.75}$ -->
      <g style="fill: #262626" transform="translate(774.413622 537.838907) scale(0.14 -0.14)">
       <use xlink:href="#CMR17-31" transform="scale(0.996264)"/>
       <use xlink:href="#CMMI12-3a" transform="translate(45.690477 0) scale(0.996264)"/>
       <use xlink:href="#CMR17-37" transform="translate(72.787654 0) scale(0.996264)"/>
       <use xlink:href="#CMR17-35" transform="translate(118.478131 0) scale(0.996264)"/>
      </g>
     </g>
    </g>
    <g id="xtick_9">
     <g id="line2d_17">
      <path d="M 892.956382 521.153031 
L 892.956382 51.564121 
" clip-path="url(#p1b52702a87)" style="fill: none; stroke: #ffffff; stroke-linecap: round"/>
     </g>
     <g id="line2d_18"/>
     <g id="text_9">
      <!-- $\mathdefault{2.00}$ -->
      <g style="fill: #262626" transform="translate(880.816846 537.838907) scale(0.14 -0.14)">
       <use xlink:href="#CMR17-32" transform="scale(0.996264)"/>
       <use xlink:href="#CMMI12-3a" transform="translate(45.690477 0) scale(0.996264)"/>
       <use xlink:href="#CMR17-30" transform="translate(72.787654 0) scale(0.996264)"/>
       <use xlink:href="#CMR17-30" transform="translate(118.478131 0) scale(0.996264)"/>
      </g>
     </g>
    </g>
    <g id="text_10">
     <!-- $x$ -->
     <g style="fill: #262626" transform="translate(484.189402 555.620524) scale(0.16 -0.16)">
      <defs>
       <path id="CMMI12-78" d="M 3034 2606 
C 2829 2567 2752 2414 2752 2293 
C 2752 2139 2874 2088 2963 2088 
C 3155 2088 3290 2254 3290 2427 
C 3290 2695 2982 2816 2714 2816 
C 2323 2816 2106 2433 2048 2312 
C 1901 2816 1504 2816 1389 2816 
C 736 2816 390 1980 390 1839 
C 390 1814 416 1782 461 1782 
C 512 1782 525 1820 538 1846 
C 755 2555 1184 2689 1370 2689 
C 1658 2689 1715 2420 1715 2267 
C 1715 2127 1677 1980 1600 1673 
L 1382 798 
C 1286 415 1101 64 762 64 
C 730 64 570 64 435 147 
C 666 192 717 383 717 460 
C 717 588 621 664 499 664 
C 346 664 179 530 179 326 
C 179 57 480 -64 755 -64 
C 1062 -64 1280 179 1414 441 
C 1517 64 1837 -64 2074 -64 
C 2726 -64 3072 773 3072 913 
C 3072 945 3046 971 3008 971 
C 2950 971 2944 939 2925 888 
C 2752 326 2381 64 2093 64 
C 1869 64 1747 230 1747 492 
C 1747 632 1773 734 1875 1156 
L 2099 2024 
C 2195 2408 2413 2689 2707 2689 
C 2720 2689 2899 2689 3034 2606 
z
" transform="scale(0.015625)"/>
      </defs>
      <use xlink:href="#CMMI12-78" transform="scale(0.996264)"/>
     </g>
    </g>
   </g>
   <g id="matplotlib.axis_2">
    <g id="ytick_1">
     <g id="line2d_19">
      <path d="M 41.730582 521.153031 
L 935.517672 521.153031 
" clip-path="url(#p1b52702a87)" style="fill: none; stroke: #ffffff; stroke-linecap: round"/>
     </g>
     <g id="line2d_20"/>
     <g id="text_11">
      <!-- $\mathdefault{0.0}$ -->
      <g style="fill: #262626" transform="translate(17.28 525.995969) scale(0.14 -0.14)">
       <use xlink:href="#CMR17-30" transform="scale(0.996264)"/>
       <use xlink:href="#CMMI12-3a" transform="translate(45.690477 0) scale(0.996264)"/>
       <use xlink:href="#CMR17-30" transform="translate(72.787654 0) scale(0.996264)"/>
      </g>
     </g>
    </g>
    <g id="ytick_2">
     <g id="line2d_21">
      <path d="M 41.730582 457.303705 
L 935.517672 457.303705 
" clip-path="url(#p1b52702a87)" style="fill: none; stroke: #ffffff; stroke-linecap: round"/>
     </g>
     <g id="line2d_22"/>
     <g id="text_12">
      <!-- $\mathdefault{0.2}$ -->
      <g style="fill: #262626" transform="translate(17.28 462.146643) scale(0.14 -0.14)">
       <use xlink:href="#CMR17-30" transform="scale(0.996264)"/>
       <use xlink:href="#CMMI12-3a" transform="translate(45.690477 0) scale(0.996264)"/>
       <use xlink:href="#CMR17-32" transform="translate(72.787654 0) scale(0.996264)"/>
      </g>
     </g>
    </g>
    <g id="ytick_3">
     <g id="line2d_23">
      <path d="M 41.730582 393.45438 
L 935.517672 393.45438 
" clip-path="url(#p1b52702a87)" style="fill: none; stroke: #ffffff; stroke-linecap: round"/>
     </g>
     <g id="line2d_24"/>
     <g id="text_13">
      <!-- $\mathdefault{0.4}$ -->
      <g style="fill: #262626" transform="translate(17.28 398.297318) scale(0.14 -0.14)">
       <defs>
        <path id="CMR17-34" d="M 2150 4122 
C 2150 4256 2144 4256 2029 4256 
L 128 1254 
L 128 1088 
L 1779 1088 
L 1779 457 
C 1779 224 1766 160 1318 160 
L 1197 160 
L 1197 0 
C 1402 0 1747 0 1965 0 
C 2182 0 2528 0 2733 0 
L 2733 160 
L 2611 160 
C 2163 160 2150 224 2150 457 
L 2150 1088 
L 2803 1088 
L 2803 1254 
L 2150 1254 
L 2150 4122 
z
M 1798 3703 
L 1798 1254 
L 256 1254 
L 1798 3703 
z
" transform="scale(0.015625)"/>
       </defs>
       <use xlink:href="#CMR17-30" transform="scale(0.996264)"/>
       <use xlink:href="#CMMI12-3a" transform="translate(45.690477 0) scale(0.996264)"/>
       <use xlink:href="#CMR17-34" transform="translate(72.787654 0) scale(0.996264)"/>
      </g>
     </g>
    </g>
    <g id="ytick_4">
     <g id="line2d_25">
      <path d="M 41.730582 329.605054 
L 935.517672 329.605054 
" clip-path="url(#p1b52702a87)" style="fill: none; stroke: #ffffff; stroke-linecap: round"/>
     </g>
     <g id="line2d_26"/>
     <g id="text_14">
      <!-- $\mathdefault{0.6}$ -->
      <g style="fill: #262626" transform="translate(17.28 334.447992) scale(0.14 -0.14)">
       <defs>
        <path id="CMR17-36" d="M 678 2176 
C 678 3690 1395 4032 1811 4032 
C 1946 4032 2272 4009 2400 3776 
C 2298 3776 2106 3776 2106 3553 
C 2106 3381 2246 3323 2336 3323 
C 2394 3323 2566 3348 2566 3560 
C 2566 3954 2246 4179 1805 4179 
C 1043 4179 243 3390 243 1984 
C 243 253 966 -128 1478 -128 
C 2099 -128 2688 427 2688 1283 
C 2688 2081 2170 2662 1517 2662 
C 1126 2662 838 2407 678 1960 
L 678 2176 
z
M 1478 25 
C 691 25 691 1200 691 1436 
C 691 1896 909 2560 1504 2560 
C 1613 2560 1926 2560 2138 2120 
C 2253 1870 2253 1609 2253 1289 
C 2253 944 2253 690 2118 434 
C 1978 171 1773 25 1478 25 
z
" transform="scale(0.015625)"/>
       </defs>
       <use xlink:href="#CMR17-30" transform="scale(0.996264)"/>
       <use xlink:href="#CMMI12-3a" transform="translate(45.690477 0) scale(0.996264)"/>
       <use xlink:href="#CMR17-36" transform="translate(72.787654 0) scale(0.996264)"/>
      </g>
     </g>
    </g>
    <g id="ytick_5">
     <g id="line2d_27">
      <path d="M 41.730582 265.755728 
L 935.517672 265.755728 
" clip-path="url(#p1b52702a87)" style="fill: none; stroke: #ffffff; stroke-linecap: round"/>
     </g>
     <g id="line2d_28"/>
     <g id="text_15">
      <!-- $\mathdefault{0.8}$ -->
      <g style="fill: #262626" transform="translate(17.28 270.598667) scale(0.14 -0.14)">
       <defs>
        <path id="CMR17-38" d="M 1741 2264 
C 2144 2467 2554 2773 2554 3263 
C 2554 3841 1990 4179 1472 4179 
C 890 4179 378 3759 378 3180 
C 378 3021 416 2747 666 2505 
C 730 2442 998 2251 1171 2130 
C 883 1983 211 1634 211 934 
C 211 279 838 -128 1459 -128 
C 2144 -128 2720 362 2720 1010 
C 2720 1590 2330 1857 2074 2029 
L 1741 2264 
z
M 902 2822 
C 851 2854 595 3051 595 3351 
C 595 3739 998 4032 1459 4032 
C 1965 4032 2336 3676 2336 3262 
C 2336 2669 1670 2331 1638 2331 
C 1632 2331 1626 2331 1574 2370 
L 902 2822 
z
M 2080 1519 
C 2176 1449 2483 1240 2483 851 
C 2483 381 2010 25 1472 25 
C 890 25 448 438 448 940 
C 448 1443 838 1862 1280 2060 
L 2080 1519 
z
" transform="scale(0.015625)"/>
       </defs>
       <use xlink:href="#CMR17-30" transform="scale(0.996264)"/>
       <use xlink:href="#CMMI12-3a" transform="translate(45.690477 0) scale(0.996264)"/>
       <use xlink:href="#CMR17-38" transform="translate(72.787654 0) scale(0.996264)"/>
      </g>
     </g>
    </g>
    <g id="ytick_6">
     <g id="line2d_29">
      <path d="M 41.730582 201.906403 
L 935.517672 201.906403 
" clip-path="url(#p1b52702a87)" style="fill: none; stroke: #ffffff; stroke-linecap: round"/>
     </g>
     <g id="line2d_30"/>
     <g id="text_16">
      <!-- $\mathdefault{1.0}$ -->
      <g style="fill: #262626" transform="translate(17.28 206.749341) scale(0.14 -0.14)">
       <use xlink:href="#CMR17-31" transform="scale(0.996264)"/>
       <use xlink:href="#CMMI12-3a" transform="translate(45.690477 0) scale(0.996264)"/>
       <use xlink:href="#CMR17-30" transform="translate(72.787654 0) scale(0.996264)"/>
      </g>
     </g>
    </g>
    <g id="ytick_7">
     <g id="line2d_31">
      <path d="M 41.730582 138.057077 
L 935.517672 138.057077 
" clip-path="url(#p1b52702a87)" style="fill: none; stroke: #ffffff; stroke-linecap: round"/>
     </g>
     <g id="line2d_32"/>
     <g id="text_17">
      <!-- $\mathdefault{1.2}$ -->
      <g style="fill: #262626" transform="translate(17.28 142.900016) scale(0.14 -0.14)">
       <use xlink:href="#CMR17-31" transform="scale(0.996264)"/>
       <use xlink:href="#CMMI12-3a" transform="translate(45.690477 0) scale(0.996264)"/>
       <use xlink:href="#CMR17-32" transform="translate(72.787654 0) scale(0.996264)"/>
      </g>
     </g>
    </g>
    <g id="ytick_8">
     <g id="line2d_33">
      <path d="M 41.730582 74.207752 
L 935.517672 74.207752 
" clip-path="url(#p1b52702a87)" style="fill: none; stroke: #ffffff; stroke-linecap: round"/>
     </g>
     <g id="line2d_34"/>
     <g id="text_18">
      <!-- $\mathdefault{1.4}$ -->
      <g style="fill: #262626" transform="translate(17.28 79.05069) scale(0.14 -0.14)">
       <use xlink:href="#CMR17-31" transform="scale(0.996264)"/>
       <use xlink:href="#CMMI12-3a" transform="translate(45.690477 0) scale(0.996264)"/>
       <use xlink:href="#CMR17-34" transform="translate(72.787654 0) scale(0.996264)"/>
      </g>
     </g>
    </g>
   </g>
   <g id="line2d_35">
    <path d="M 41.730582 74.207752 
L 50.24284 74.207752 
L 58.755098 74.207752 
L 67.267356 74.207752 
L 75.779614 74.207752 
L 84.291872 74.207752 
L 92.80413 74.207752 
L 101.316388 74.207752 
L 109.828646 74.207752 
L 118.340904 74.207752 
L 126.853162 74.207752 
L 135.36542 74.207752 
L 143.877678 74.207752 
L 152.389936 74.207752 
L 160.902194 74.207752 
L 169.414452 74.207752 
L 177.92671 74.207752 
L 186.438968 74.207752 
L 194.951226 74.207752 
L 203.463484 74.207752 
L 211.975742 74.207752 
L 220.488 74.207752 
L 229.000258 74.207752 
L 237.512516 74.207752 
L 246.024774 74.207752 
L 254.537032 74.207752 
L 263.04929 74.207752 
L 271.561548 74.207752 
L 280.073806 74.207752 
L 288.586064 74.207752 
L 297.098322 74.207752 
L 305.61058 74.207752 
L 314.122838 74.207752 
L 322.635096 74.207752 
L 331.147354 74.207752 
L 339.659612 74.207752 
L 348.17187 74.207752 
L 356.684128 74.207752 
L 365.196386 74.207752 
L 373.708644 74.207752 
L 382.220902 74.207752 
L 390.73316 74.207752 
L 399.245418 74.207752 
L 407.757676 74.207752 
L 416.269934 74.207752 
L 424.782192 74.207752 
L 433.29445 74.207752 
L 441.806708 74.207752 
L 450.318966 74.207752 
L 458.831224 74.207752 
L 467.343482 74.207752 
L 475.85574 74.207752 
L 484.367998 74.207752 
L 492.880256 74.207752 
L 501.392514 74.207752 
L 509.904772 74.207752 
L 518.41703 74.207752 
L 526.929288 74.207752 
L 535.441546 74.207752 
L 543.953804 74.207752 
L 552.466062 74.207752 
L 560.97832 74.207752 
L 569.490578 74.207752 
L 578.002836 74.207752 
L 586.515094 74.207752 
L 595.027352 74.207752 
L 603.53961 74.207752 
L 612.051868 74.207752 
L 620.564126 74.207752 
L 629.076384 74.207752 
L 637.588642 74.207752 
L 646.1009 74.207752 
L 654.613158 74.207752 
L 663.125416 74.207752 
L 671.637674 74.207752 
L 680.149932 74.207752 
L 688.66219 74.207752 
L 697.174448 74.207752 
L 705.686706 74.207752 
L 714.198964 74.207752 
L 722.711222 74.207752 
L 731.22348 74.207752 
L 739.735738 74.207752 
L 748.247996 74.207752 
L 756.760254 74.207752 
L 765.272512 74.207752 
L 773.78477 74.207752 
L 782.297028 74.207752 
L 790.809286 74.207752 
L 799.321544 74.207752 
L 807.833802 74.207752 
L 816.34606 74.207752 
L 824.858318 74.207752 
L 833.370576 74.207752 
L 841.882834 74.207752 
L 850.395092 74.207752 
L 858.90735 74.207752 
L 867.419608 74.207752 
L 875.931866 74.207752 
L 884.444124 74.207752 
L 892.956382 74.207752 
" clip-path="url(#p1b52702a87)" style="fill: none; stroke: #393b79; stroke-width: 2; stroke-linecap: round"/>
   </g>
   <g id="line2d_36">
    <path d="M 41.730582 158.538817 
L 50.24284 157.944468 
L 58.755098 157.355486 
L 67.267356 156.771804 
L 75.779614 156.193368 
L 84.291872 155.603841 
L 92.80413 155.019098 
L 101.316388 154.439707 
L 109.828646 153.865516 
L 118.340904 153.296451 
L 126.853162 152.73246 
L 135.36542 152.173515 
L 143.877678 151.619565 
L 152.389936 151.070553 
L 160.902194 150.526481 
L 169.414452 149.987287 
L 177.92671 149.452885 
L 186.438968 148.919633 
L 194.951226 148.379038 
L 203.463484 147.843212 
L 211.975742 147.312125 
L 220.488 146.785734 
L 229.000258 146.263988 
L 237.512516 145.746878 
L 246.024774 145.234308 
L 254.537032 144.72625 
L 263.04929 144.222652 
L 271.561548 143.723457 
L 280.073806 143.228652 
L 288.586064 142.738175 
L 297.098322 142.251983 
L 305.61058 141.770048 
L 314.122838 141.280013 
L 322.635096 140.792214 
L 331.147354 140.30868 
L 339.659612 139.829341 
L 348.17187 139.354148 
L 356.684128 138.883066 
L 365.196386 138.416094 
L 373.708644 137.953163 
L 382.220902 137.494222 
L 390.73316 137.039233 
L 399.245418 136.588183 
L 407.757676 136.141006 
L 416.269934 135.697682 
L 424.782192 135.258179 
L 433.29445 134.822442 
L 441.806708 134.39045 
L 450.318966 133.956805 
L 458.831224 133.519294 
L 467.343482 133.085545 
L 475.85574 132.65551 
L 484.367998 132.229137 
L 492.880256 131.806391 
L 501.392514 131.387243 
L 509.904772 130.971658 
L 518.41703 130.559619 
L 526.929288 130.1511 
L 535.441546 129.746039 
L 543.953804 129.344404 
L 552.466062 128.946175 
L 560.97832 128.551322 
L 569.490578 128.159801 
L 578.002836 127.771584 
L 586.515094 127.386664 
L 595.027352 127.004997 
L 603.53961 126.626543 
L 612.051868 126.248359 
L 620.564126 125.864827 
L 629.076384 125.484513 
L 637.588642 125.107395 
L 646.1009 124.733436 
L 654.613158 124.362619 
L 663.125416 123.994911 
L 671.637674 123.630277 
L 680.149932 123.268702 
L 688.66219 122.910145 
L 697.174448 122.554575 
L 705.686706 122.201968 
L 714.198964 121.852307 
L 722.711222 121.505567 
L 731.22348 121.161706 
L 739.735738 120.8207 
L 748.247996 120.482522 
L 756.760254 120.147162 
L 765.272512 119.814585 
L 773.78477 119.484768 
L 782.297028 119.157689 
L 790.809286 118.833314 
L 799.321544 118.511616 
L 807.833802 118.188784 
L 816.34606 117.862573 
L 824.858318 117.53906 
L 833.370576 117.218221 
L 841.882834 116.900024 
L 850.395092 116.584448 
L 858.90735 116.271473 
L 867.419608 115.961068 
L 875.931866 115.653211 
L 884.444124 115.347878 
L 892.956382 115.045058 
" clip-path="url(#p1b52702a87)" style="fill: none; stroke: #6b6ecf; stroke-width: 2; stroke-linecap: round"/>
   </g>
   <g id="line2d_37">
    <path d="M 41.730582 351.440914 
L 50.24284 349.947562 
L 58.755098 348.451498 
L 67.267356 346.961741 
L 75.779614 345.481139 
L 84.291872 343.996247 
L 92.80413 342.519918 
L 101.316388 341.050862 
L 109.828646 339.579217 
L 118.340904 338.120513 
L 126.853162 336.658128 
L 135.36542 335.204791 
L 143.877678 333.75591 
L 152.389936 332.308905 
L 160.902194 330.873152 
L 169.414452 329.432808 
L 177.92671 328.008887 
L 186.438968 326.575993 
L 194.951226 325.161082 
L 203.463484 323.73882 
L 211.975742 322.333462 
L 220.488 320.921368 
L 229.000258 319.526462 
L 237.512516 318.123743 
L 246.024774 316.740432 
L 254.537032 315.346522 
L 263.04929 313.9718 
L 271.561548 312.590295 
L 280.073806 311.223363 
L 288.586064 309.855584 
L 297.098322 308.495845 
L 305.61058 307.143212 
L 314.122838 305.789926 
L 322.635096 304.454074 
L 331.147354 303.106775 
L 339.659612 301.777327 
L 348.17187 300.447556 
L 356.684128 299.123178 
L 365.196386 297.813379 
L 373.708644 296.493473 
L 382.220902 295.190565 
L 390.73316 293.889691 
L 399.245418 292.590641 
L 407.757676 291.308103 
L 416.269934 290.017743 
L 424.782192 288.738255 
L 433.29445 287.473534 
L 441.806708 286.196588 
L 450.318966 284.935565 
L 458.831224 283.685252 
L 467.343482 282.426132 
L 475.85574 281.182474 
L 484.367998 279.948591 
L 492.880256 278.706183 
L 501.392514 277.478841 
L 509.904772 276.263675 
L 518.41703 275.037004 
L 526.929288 273.825017 
L 535.441546 272.627579 
L 543.953804 271.419278 
L 552.466062 270.221639 
L 560.97832 269.038301 
L 569.490578 267.853463 
L 578.002836 266.669696 
L 586.515094 265.499605 
L 595.027352 264.341445 
L 603.53961 263.170175 
L 612.051868 262.012545 
L 620.564126 260.868084 
L 629.076384 259.724775 
L 637.588642 258.578613 
L 646.1009 257.445551 
L 654.613158 256.325397 
L 663.125416 255.200135 
L 671.637674 254.077698 
L 680.149932 252.967857 
L 688.66219 251.870381 
L 697.174448 250.766412 
L 705.686706 249.666214 
L 714.198964 248.578198 
L 722.711222 247.502205 
L 731.22348 246.423205 
L 739.735738 245.343959 
L 748.247996 244.276531 
L 756.760254 243.220752 
L 765.272512 242.170727 
L 773.78477 241.111229 
L 782.297028 240.063141 
L 790.809286 239.026354 
L 799.321544 238.000666 
L 807.833802 236.96869 
L 816.34606 235.938882 
L 824.858318 234.920035 
L 833.370576 233.911964 
L 841.882834 232.914587 
L 850.395092 231.905137 
L 858.90735 230.903122 
L 867.419608 229.911646 
L 875.931866 228.93048 
L 884.444124 227.959616 
L 892.956382 226.977627 
" clip-path="url(#p1b52702a87)" style="fill: none; stroke: #637939; stroke-width: 2; stroke-linecap: round"/>
   </g>
   <g id="line2d_38">
    <path d="M 41.730582 447.648724 
L 50.24284 446.131572 
L 58.755098 444.6084 
L 67.267356 443.081893 
L 75.779614 441.550789 
L 84.291872 440.0164 
L 92.80413 438.476755 
L 101.316388 436.934408 
L 109.828646 435.388447 
L 118.340904 433.839902 
L 126.853162 432.287366 
L 135.36542 430.731991 
L 143.877678 429.17441 
L 152.389936 427.615553 
L 160.902194 426.054885 
L 169.414452 424.490208 
L 177.92671 422.925461 
L 186.438968 421.35898 
L 194.951226 419.790352 
L 203.463484 418.222305 
L 211.975742 416.651145 
L 220.488 415.081004 
L 229.000258 413.509095 
L 237.512516 411.936662 
L 246.024774 410.366448 
L 254.537032 408.791947 
L 263.04929 407.219442 
L 271.561548 405.648745 
L 280.073806 404.076221 
L 288.586064 402.503713 
L 297.098322 400.932827 
L 305.61058 399.363429 
L 314.122838 397.795377 
L 322.635096 396.227376 
L 331.147354 394.659295 
L 339.659612 393.093018 
L 348.17187 391.528243 
L 356.684128 389.96531 
L 365.196386 388.404005 
L 373.708644 386.844567 
L 382.220902 385.286939 
L 390.73316 383.73165 
L 399.245418 382.178565 
L 407.757676 380.627539 
L 416.269934 379.079507 
L 424.782192 377.534079 
L 433.29445 375.991061 
L 441.806708 374.448064 
L 450.318966 372.908272 
L 458.831224 371.371857 
L 467.343482 369.839221 
L 475.85574 368.310852 
L 484.367998 366.78653 
L 492.880256 365.26007 
L 501.392514 363.738354 
L 509.904772 362.221986 
L 518.41703 360.711524 
L 526.929288 359.199115 
L 535.441546 357.690997 
L 543.953804 356.189579 
L 552.466062 354.692476 
L 560.97832 353.193609 
L 569.490578 351.702431 
L 578.002836 350.218699 
L 586.515094 348.730656 
L 595.027352 347.25177 
L 603.53961 345.778724 
L 612.051868 344.303579 
L 620.564126 342.83922 
L 629.076384 341.3749 
L 637.588642 339.915073 
L 646.1009 338.465382 
L 654.613158 337.010531 
L 663.125416 335.569288 
L 671.637674 334.125083 
L 680.149932 332.690105 
L 688.66219 331.258432 
L 697.174448 329.830359 
L 705.686706 328.410447 
L 714.198964 326.990029 
L 722.711222 325.581141 
L 731.22348 324.169116 
L 739.735738 322.770527 
L 748.247996 321.367876 
L 756.760254 319.978868 
L 765.272512 318.586574 
L 773.78477 317.20642 
L 782.297028 315.825551 
L 790.809286 314.453673 
L 799.321544 313.085489 
L 807.833802 311.721255 
L 816.34606 310.367015 
L 824.858318 309.009715 
L 833.370576 307.670507 
L 841.882834 306.319992 
L 850.395092 304.986944 
L 858.90735 303.652997 
L 867.419608 302.325489 
L 875.931866 301.009972 
L 884.444124 299.687368 
L 892.956382 298.381733 
" clip-path="url(#p1b52702a87)" style="fill: none; stroke: #b5cf6b; stroke-width: 2; stroke-linecap: round"/>
   </g>
   <g id="line2d_39">
    <path d="M 41.730582 513.007612 
L 50.24284 512.264518 
L 58.755098 511.494344 
L 67.267356 510.698004 
L 75.779614 509.875691 
L 84.291872 509.028543 
L 92.80413 508.156653 
L 101.316388 507.26111 
L 109.828646 506.342018 
L 118.340904 505.400318 
L 126.853162 504.436341 
L 135.36542 503.450699 
L 143.877678 502.443866 
L 152.389936 501.416589 
L 160.902194 500.369272 
L 169.414452 499.302313 
L 177.92671 498.21637 
L 186.438968 497.111781 
L 194.951226 495.98928 
L 203.463484 494.849122 
L 211.975742 493.691945 
L 220.488 492.518116 
L 229.000258 491.32798 
L 237.512516 490.122205 
L 246.024774 488.901125 
L 254.537032 487.665188 
L 263.04929 486.41482 
L 271.561548 485.15049 
L 280.073806 483.872518 
L 288.586064 482.581498 
L 297.098322 481.277478 
L 305.61058 479.961085 
L 314.122838 478.632672 
L 322.635096 477.292875 
L 331.147354 475.941196 
L 339.659612 474.579321 
L 348.17187 473.206441 
L 356.684128 471.823356 
L 365.196386 470.430526 
L 373.708644 469.028442 
L 382.220902 467.616302 
L 390.73316 466.196025 
L 399.245418 464.76699 
L 407.757676 463.33015 
L 416.269934 461.884676 
L 424.782192 460.431672 
L 433.29445 458.971565 
L 441.806708 457.504418 
L 450.318966 456.030755 
L 458.831224 454.550761 
L 467.343482 453.063643 
L 475.85574 451.57128 
L 484.367998 450.073295 
L 492.880256 448.569718 
L 501.392514 447.061021 
L 509.904772 445.548409 
L 518.41703 444.029454 
L 526.929288 442.506692 
L 535.441546 440.980261 
L 543.953804 439.449862 
L 552.466062 437.915631 
L 560.97832 436.378005 
L 569.490578 434.83675 
L 578.002836 433.292683 
L 586.515094 431.745719 
L 595.027352 430.196402 
L 603.53961 428.645489 
L 612.051868 427.091087 
L 620.564126 425.534356 
L 629.076384 423.977311 
L 637.588642 422.417365 
L 646.1009 420.856226 
L 654.613158 419.294809 
L 663.125416 417.730783 
L 671.637674 416.167274 
L 680.149932 414.601898 
L 688.66219 413.036128 
L 697.174448 411.471943 
L 705.686706 409.903936 
L 714.198964 408.337939 
L 722.711222 406.773864 
L 731.22348 405.205785 
L 739.735738 403.639777 
L 748.247996 402.07512 
L 756.760254 400.512002 
L 765.272512 398.948413 
L 773.78477 397.384461 
L 782.297028 395.822101 
L 790.809286 394.26125 
L 799.321544 392.701984 
L 807.833802 391.144284 
L 816.34606 389.588048 
L 824.858318 388.033568 
L 833.370576 386.480786 
L 841.882834 384.929798 
L 850.395092 383.380834 
L 858.90735 381.833791 
L 867.419608 380.289247 
L 875.931866 378.747117 
L 884.444124 377.208036 
L 892.956382 375.67167 
" clip-path="url(#p1b52702a87)" style="fill: none; stroke: #8c6d31; stroke-width: 2; stroke-linecap: round"/>
   </g>
   <g id="line2d_40">
    <path d="M 41.730582 520.901081 
L 50.24284 520.736469 
L 58.755098 520.532231 
L 67.267356 520.289268 
L 75.779614 520.008282 
L 84.291872 519.690235 
L 92.80413 519.335761 
L 101.316388 518.945817 
L 109.828646 518.520992 
L 118.340904 518.062191 
L 126.853162 517.57006 
L 135.36542 517.045353 
L 143.877678 516.48877 
L 152.389936 515.901139 
L 160.902194 515.283031 
L 169.414452 514.635162 
L 177.92671 513.9582 
L 186.438968 513.252816 
L 194.951226 512.519684 
L 203.463484 511.759446 
L 211.975742 510.97272 
L 220.488 510.160091 
L 229.000258 509.32223 
L 237.512516 508.459666 
L 246.024774 507.573069 
L 254.537032 506.662973 
L 263.04929 505.729995 
L 271.561548 504.774636 
L 280.073806 503.797436 
L 288.586064 502.79901 
L 297.098322 501.779887 
L 305.61058 500.740578 
L 314.122838 499.681522 
L 322.635096 498.603239 
L 331.147354 497.506315 
L 339.659612 496.39133 
L 348.17187 495.258506 
L 356.684128 494.10852 
L 365.196386 492.941697 
L 373.708644 491.758718 
L 382.220902 490.559593 
L 390.73316 489.345268 
L 399.245418 488.116061 
L 407.757676 486.87194 
L 416.269934 485.613952 
L 424.782192 484.342179 
L 433.29445 483.05721 
L 441.806708 481.759064 
L 450.318966 480.448476 
L 458.831224 479.125773 
L 467.343482 477.791466 
L 475.85574 476.445673 
L 484.367998 475.088667 
L 492.880256 473.721142 
L 501.392514 472.343332 
L 509.904772 470.955498 
L 518.41703 469.557961 
L 526.929288 468.151235 
L 535.441546 466.735809 
L 543.953804 465.311092 
L 552.466062 463.878376 
L 560.97832 462.438195 
L 569.490578 460.989272 
L 578.002836 459.533413 
L 586.515094 458.070453 
L 595.027352 456.600767 
L 603.53961 455.124365 
L 612.051868 453.641268 
L 620.564126 452.15268 
L 629.076384 450.658326 
L 637.588642 449.158148 
L 646.1009 447.65311 
L 654.613158 446.143441 
L 663.125416 444.62805 
L 671.637674 443.108751 
L 680.149932 441.585578 
L 688.66219 440.058464 
L 697.174448 438.527546 
L 705.686706 436.992585 
L 714.198964 435.454439 
L 722.711222 433.912883 
L 731.22348 432.368039 
L 739.735738 430.820912 
L 748.247996 429.271567 
L 756.760254 427.720822 
L 765.272512 426.166834 
L 773.78477 424.610507 
L 782.297028 423.054368 
L 790.809286 421.494579 
L 799.321544 419.934772 
L 807.833802 418.373413 
L 816.34606 416.811225 
L 824.858318 415.247825 
L 833.370576 413.685328 
L 841.882834 412.119664 
L 850.395092 410.556222 
L 858.90735 408.991429 
L 867.419608 407.425712 
L 875.931866 405.861671 
L 884.444124 404.299468 
L 892.956382 402.733878 
" clip-path="url(#p1b52702a87)" style="fill: none; stroke: #e7cb94; stroke-width: 2; stroke-linecap: round"/>
   </g>
   <g id="line2d_41">
    <path d="M 41.730582 522.167314 
L 50.24284 521.494314 
L 58.755098 521.125848 
L 67.267356 520.923321 
L 75.779614 520.764519 
L 84.291872 520.566433 
L 92.80413 520.329413 
L 101.316388 520.054395 
L 109.828646 519.742065 
L 118.340904 519.393325 
L 126.853162 519.008884 
L 135.36542 518.589531 
L 143.877678 518.136005 
L 152.389936 517.649145 
L 160.902194 517.129598 
L 169.414452 516.578087 
L 177.92671 515.995338 
L 186.438968 515.38203 
L 194.951226 514.738894 
L 203.463484 514.066612 
L 211.975742 513.365793 
L 220.488 512.637114 
L 229.000258 511.881248 
L 237.512516 511.098742 
L 246.024774 510.290326 
L 254.537032 509.456517 
L 263.04929 508.598012 
L 271.561548 507.71535 
L 280.073806 506.809095 
L 288.586064 505.879831 
L 297.098322 504.928178 
L 305.61058 503.954627 
L 314.122838 502.959659 
L 322.635096 501.943986 
L 331.147354 500.907999 
L 339.659612 499.852275 
L 348.17187 498.777289 
L 356.684128 497.683547 
L 365.196386 496.571485 
L 373.708644 495.441744 
L 382.220902 494.294605 
L 390.73316 493.130781 
L 399.245418 491.950446 
L 407.757676 490.754201 
L 416.269934 489.542563 
L 424.782192 488.315741 
L 433.29445 487.07433 
L 441.806708 485.818677 
L 450.318966 484.549344 
L 458.831224 483.266802 
L 467.343482 481.97088 
L 475.85574 480.662555 
L 484.367998 479.342028 
L 492.880256 478.009745 
L 501.392514 476.666176 
L 509.904772 475.311091 
L 518.41703 473.945743 
L 526.929288 472.569848 
L 535.441546 471.183945 
L 543.953804 469.788235 
L 552.466062 468.38282 
L 560.97832 466.968866 
L 569.490578 465.546132 
L 578.002836 464.115149 
L 586.515094 462.675721 
L 595.027352 461.228728 
L 603.53961 459.774395 
L 612.051868 458.312836 
L 620.564126 456.844187 
L 629.076384 455.368962 
L 637.588642 453.887901 
L 646.1009 452.40041 
L 654.613158 450.906843 
L 663.125416 449.408723 
L 671.637674 447.904089 
L 680.149932 446.39512 
L 688.66219 444.882061 
L 697.174448 443.363088 
L 705.686706 441.840197 
L 714.198964 440.313541 
L 722.711222 438.783309 
L 731.22348 437.249168 
L 739.735738 435.711865 
L 748.247996 434.171212 
L 756.760254 432.62774 
L 765.272512 431.081826 
L 773.78477 429.53394 
L 782.297028 427.982516 
L 790.809286 426.428681 
L 799.321544 424.874299 
L 807.833802 423.317689 
L 816.34606 421.758622 
L 824.858318 420.200635 
L 833.370576 418.638127 
L 841.882834 417.078098 
L 850.395092 415.513651 
L 858.90735 413.951176 
L 867.419608 412.386839 
L 875.931866 410.822059 
L 884.444124 409.259525 
L 892.956382 407.693728 
" clip-path="url(#p1b52702a87)" style="fill: none; stroke: #ad494a; stroke-width: 2; stroke-linecap: round"/>
   </g>
   <g id="line2d_42">
    <path d="M 41.730582 523.737349 
L 50.24284 522.349893 
L 58.755098 521.59403 
L 67.267356 521.180617 
L 75.779614 520.953455 
L 84.291872 520.798087 
L 92.80413 520.607539 
L 101.316388 520.378006 
L 109.828646 520.110209 
L 118.340904 519.805049 
L 126.853162 519.463261 
L 135.36542 519.085648 
L 143.877678 518.672961 
L 152.389936 518.226049 
L 160.902194 517.745577 
L 169.414452 517.23229 
L 177.92671 516.686915 
L 186.438968 516.11016 
L 194.951226 515.502748 
L 203.463484 514.865381 
L 211.975742 514.198707 
L 220.488 513.50338 
L 229.000258 512.780096 
L 237.512516 512.02943 
L 246.024774 511.252116 
L 254.537032 510.448681 
L 263.04929 509.619843 
L 271.561548 508.766132 
L 280.073806 507.888134 
L 288.586064 506.986456 
L 297.098322 506.061658 
L 305.61058 505.114405 
L 314.122838 504.145011 
L 322.635096 503.154324 
L 331.147354 502.142626 
L 339.659612 501.11066 
L 348.17187 500.058767 
L 356.684128 498.98754 
L 365.196386 497.897483 
L 373.708644 496.789014 
L 382.220902 495.662625 
L 390.73316 494.519007 
L 399.245418 493.358423 
L 407.757676 492.181278 
L 416.269934 490.988246 
L 424.782192 489.779577 
L 433.29445 488.555755 
L 441.806708 487.317409 
L 450.318966 486.064526 
L 458.831224 484.797907 
L 467.343482 483.517942 
L 475.85574 482.224624 
L 484.367998 480.918801 
L 492.880256 479.600818 
L 501.392514 478.270792 
L 509.904772 476.929426 
L 518.41703 475.576736 
L 526.929288 474.213503 
L 535.441546 472.839502 
L 543.953804 471.455466 
L 552.466062 470.061771 
L 560.97832 468.658944 
L 569.490578 467.246214 
L 578.002836 465.825661 
L 586.515094 464.395924 
L 595.027352 462.958574 
L 603.53961 461.513484 
L 612.051868 460.060434 
L 620.564126 458.600252 
L 629.076384 457.133307 
L 637.588642 455.659479 
L 646.1009 454.178922 
L 654.613158 452.692795 
L 663.125416 451.201253 
L 671.637674 449.703019 
L 680.149932 448.200591 
L 688.66219 446.692252 
L 697.174448 445.179332 
L 705.686706 443.662386 
L 714.198964 442.141183 
L 722.711222 440.61502 
L 731.22348 439.085011 
L 739.735738 437.551828 
L 748.247996 436.015209 
L 756.760254 434.475602 
L 765.272512 432.933296 
L 773.78477 431.387883 
L 782.297028 429.838945 
L 790.809286 428.288117 
L 799.321544 426.736131 
L 807.833802 425.181942 
L 816.34606 423.624594 
L 824.858318 422.0679 
L 833.370576 420.507646 
L 841.882834 418.947658 
L 850.395092 417.385644 
L 858.90735 415.823852 
L 867.419608 414.259703 
L 875.931866 412.697841 
L 884.444124 411.132205 
L 892.956382 409.567829 
" clip-path="url(#p1b52702a87)" style="fill: none; stroke: #e7969c; stroke-width: 2; stroke-linecap: round"/>
   </g>
   <g id="line2d_43">
    <path d="M 41.730582 525.389762 
L 50.24284 523.246943 
L 58.755098 522.083055 
L 67.267356 521.448361 
L 75.779614 521.100636 
L 84.291872 520.909421 
L 92.80413 520.747173 
L 101.316388 520.545338 
L 109.828646 520.304665 
L 118.340904 520.026051 
L 126.853162 519.710248 
L 135.36542 519.358063 
L 143.877678 518.970263 
L 152.389936 518.547694 
L 160.902194 518.091038 
L 169.414452 517.601048 
L 177.92671 517.078458 
L 186.438968 516.523986 
L 194.951226 515.938367 
L 203.463484 515.322297 
L 211.975742 514.676439 
L 220.488 514.001463 
L 229.000258 513.29807 
L 237.512516 512.566838 
L 246.024774 511.808489 
L 254.537032 511.023596 
L 263.04929 510.212853 
L 271.561548 509.376822 
L 280.073806 508.516064 
L 288.586064 507.631237 
L 297.098322 506.722909 
L 305.61058 505.791669 
L 314.122838 504.837945 
L 322.635096 503.862459 
L 331.147354 502.865683 
L 339.659612 501.848197 
L 348.17187 500.810467 
L 356.684128 499.752994 
L 365.196386 498.676339 
L 373.708644 497.581014 
L 382.220902 496.467374 
L 390.73316 495.336134 
L 399.245418 494.187583 
L 407.757676 493.022148 
L 416.269934 491.840536 
L 424.782192 490.642966 
L 433.29445 489.429991 
L 441.806708 488.201909 
L 450.318966 486.959438 
L 458.831224 485.702788 
L 467.343482 484.432256 
L 475.85574 483.148278 
L 484.367998 481.851678 
L 492.880256 480.542457 
L 501.392514 479.220985 
L 509.904772 477.887723 
L 518.41703 476.542837 
L 526.929288 475.187424 
L 535.441546 473.820826 
L 543.953804 472.443962 
L 552.466062 471.057136 
L 560.97832 469.660895 
L 569.490578 468.255479 
L 578.002836 466.840428 
L 586.515094 465.417378 
L 595.027352 463.985217 
L 603.53961 462.545637 
L 612.051868 461.098518 
L 620.564126 459.643695 
L 629.076384 458.181529 
L 637.588642 456.712318 
L 646.1009 455.236432 
L 654.613158 453.75454 
L 663.125416 452.267403 
L 671.637674 450.773104 
L 680.149932 449.274439 
L 688.66219 447.769528 
L 697.174448 446.261038 
L 705.686706 444.74647 
L 714.198964 443.227535 
L 722.711222 441.704933 
L 731.22348 440.178207 
L 739.735738 438.647953 
L 748.247996 437.113844 
L 756.760254 435.576247 
L 765.272512 434.035371 
L 773.78477 432.491503 
L 782.297028 430.945156 
L 790.809286 429.396809 
L 799.321544 427.846851 
L 807.833802 426.292477 
L 816.34606 424.737342 
L 824.858318 423.182031 
L 833.370576 421.622241 
L 841.882834 420.063813 
L 850.395092 418.501961 
L 858.90735 416.941223 
L 867.419608 415.377366 
L 875.931866 413.815938 
L 884.444124 412.250553 
L 892.956382 410.686604 
" clip-path="url(#p1b52702a87)" style="fill: none; stroke: #a55194; stroke-width: 2; stroke-linecap: round"/>
   </g>
   <g id="line2d_44">
    <path d="M 41.730582 527.08037 
L 50.24284 524.162427 
L 58.755098 522.580887 
L 67.267356 521.720252 
L 75.779614 521.249729 
L 84.291872 520.991551 
L 92.80413 520.833843 
L 101.316388 520.651856 
L 109.828646 520.430617 
L 118.340904 520.171027 
L 126.853162 519.873846 
L 135.36542 519.539887 
L 143.877678 519.169923 
L 152.389936 518.764804 
L 160.902194 518.325222 
L 169.414452 517.851935 
L 177.92671 517.345684 
L 186.438968 516.807188 
L 194.951226 516.237189 
L 203.463484 515.636397 
L 211.975742 515.00547 
L 220.488 514.345094 
L 229.000258 513.655966 
L 237.512516 512.938664 
L 246.024774 512.19394 
L 254.537032 511.422352 
L 263.04929 510.624596 
L 271.561548 509.80125 
L 280.073806 508.952885 
L 288.586064 508.080174 
L 297.098322 507.183629 
L 305.61058 506.263906 
L 314.122838 505.321408 
L 322.635096 504.356885 
L 331.147354 503.370792 
L 339.659612 502.363761 
L 348.17187 501.336134 
L 356.684128 500.28859 
L 365.196386 499.221545 
L 373.708644 498.135658 
L 382.220902 497.031112 
L 390.73316 495.908772 
L 399.245418 494.768951 
L 407.757676 493.611951 
L 416.269934 492.438552 
L 424.782192 491.249047 
L 433.29445 490.043757 
L 441.806708 488.823344 
L 450.318966 487.588001 
L 458.831224 486.338504 
L 467.343482 485.074991 
L 475.85574 483.797713 
L 484.367998 482.507511 
L 492.880256 481.204486 
L 501.392514 479.889131 
L 509.904772 478.561799 
L 518.41703 477.223003 
L 526.929288 475.87277 
L 535.441546 474.511967 
L 543.953804 473.140199 
L 552.466062 471.758382 
L 560.97832 470.366957 
L 569.490578 468.966051 
L 578.002836 467.555956 
L 586.515094 466.136793 
L 595.027352 464.709371 
L 603.53961 463.273812 
L 612.051868 461.829978 
L 620.564126 460.378677 
L 629.076384 458.9201 
L 637.588642 457.454628 
L 646.1009 455.982544 
L 654.613158 454.504462 
L 663.125416 453.01919 
L 671.637674 451.528352 
L 680.149932 450.032437 
L 688.66219 448.530265 
L 697.174448 447.023689 
L 705.686706 445.512511 
L 714.198964 443.995497 
L 722.711222 442.474855 
L 731.22348 440.9501 
L 739.735738 439.421793 
L 748.247996 437.889573 
L 756.760254 436.353771 
L 765.272512 434.814557 
L 773.78477 433.272178 
L 782.297028 431.7271 
L 790.809286 430.179754 
L 799.321544 428.63077 
L 807.833802 427.078437 
L 816.34606 425.523624 
L 824.858318 423.968693 
L 833.370576 422.410825 
L 841.882834 420.851664 
L 850.395092 419.292281 
L 858.90735 417.730058 
L 867.419608 416.168611 
L 875.931866 414.605239 
L 884.444124 413.041643 
L 892.956382 411.479283 
" clip-path="url(#p1b52702a87)" style="fill: none; stroke: #de9ed6; stroke-width: 2; stroke-linecap: round"/>
   </g>
   <g id="patch_3">
    <path d="M 41.730582 521.153031 
L 41.730582 51.564121 
" style="fill: none"/>
   </g>
   <g id="patch_4">
    <path d="M 935.517672 521.153031 
L 935.517672 51.564121 
" style="fill: none"/>
   </g>
   <g id="patch_5">
    <path d="M 41.730582 521.153031 
L 935.517672 521.153031 
" style="fill: none"/>
   </g>
   <g id="patch_6">
    <path d="M 41.730582 51.564121 
L 935.517672 51.564121 
" style="fill: none"/>
   </g>
   <g id="patch_7">
    <path d="M 467.343482 82.590227 
Q 467.343482 278.044195 467.343482 471.821112 
" style="fill: none; stroke: #000000; stroke-width: 1.5; stroke-linecap: round"/>
    <path d="M 470.543482 465.421112 
L 467.343482 471.821112 
L 464.143482 465.421112 
" style="fill: none; stroke: #000000; stroke-width: 1.5; stroke-linecap: round"/>
   </g>
   <g id="text_19">
    <!-- Time -->
    <g style="fill: #262626" transform="translate(488.624127 472.009528) scale(0.18 -0.18)">
     <defs>
      <path id="CMR17-54" d="M 3981 4326 
L 288 4326 
L 179 2918 
L 294 2918 
C 378 3976 467 4160 1453 4160 
C 1568 4160 1754 4160 1805 4154 
C 1926 4135 1926 4058 1926 3912 
L 1926 459 
C 1926 230 1907 160 1376 160 
L 1197 160 
L 1197 0 
C 1504 0 1824 0 2138 0 
C 2451 0 2771 0 3078 0 
L 3078 160 
L 2899 160 
C 2368 160 2349 230 2349 459 
L 2349 3912 
C 2349 4052 2349 4129 2464 4154 
C 2515 4160 2701 4160 2816 4160 
C 3795 4160 3891 3976 3974 2918 
L 4090 2918 
L 3981 4326 
z
" transform="scale(0.015625)"/>
      <path id="CMR17-69" d="M 992 3909 
C 992 4049 877 4170 730 4170 
C 589 4170 467 4056 467 3909 
C 467 3769 582 3648 730 3648 
C 870 3648 992 3763 992 3909 
z
M 243 2706 
L 243 2541 
C 602 2541 653 2502 653 2197 
L 653 427 
C 653 184 627 153 218 153 
L 218 -13 
C 371 0 646 0 806 0 
C 960 0 1222 0 1370 -13 
L 1370 153 
C 992 153 979 191 979 420 
L 979 2776 
L 243 2706 
z
" transform="scale(0.015625)"/>
      <path id="CMR17-6d" d="M 4326 1933 
C 4326 2252 4269 2790 3507 2790 
C 3072 2790 2771 2496 2656 2151 
L 2650 2151 
C 2573 2676 2195 2790 1837 2790 
C 1331 2790 1069 2400 973 2144 
L 966 2144 
L 966 2790 
L 211 2720 
L 211 2554 
C 589 2554 646 2515 646 2208 
L 646 428 
C 646 184 621 153 211 153 
L 211 -13 
C 365 0 646 0 813 0 
C 979 0 1267 0 1421 -13 
L 1421 153 
C 1011 153 986 178 986 428 
L 986 1658 
C 986 2247 1344 2688 1792 2688 
C 2266 2688 2317 2266 2317 1958 
L 2317 428 
C 2317 184 2291 153 1882 153 
L 1882 -13 
C 2035 0 2317 0 2483 0 
C 2650 0 2938 0 3091 -13 
L 3091 153 
C 2682 153 2656 178 2656 428 
L 2656 1658 
C 2656 2247 3014 2688 3462 2688 
C 3936 2688 3987 2266 3987 1958 
L 3987 428 
C 3987 184 3962 153 3552 153 
L 3552 -13 
C 3706 0 3987 0 4154 0 
C 4320 0 4608 0 4762 -13 
L 4762 153 
C 4352 153 4326 178 4326 428 
L 4326 1933 
z
" transform="scale(0.015625)"/>
      <path id="CMR17-65" d="M 2438 1472 
C 2464 1498 2464 1511 2464 1576 
C 2464 2238 2118 2816 1389 2816 
C 710 2816 173 2169 173 1383 
C 173 551 781 -64 1459 -64 
C 2176 -64 2458 607 2458 740 
C 2458 784 2419 784 2406 784 
C 2362 784 2355 771 2330 696 
C 2189 265 1837 51 1504 51 
C 1229 51 954 203 781 480 
C 582 803 582 1176 582 1472 
L 2438 1472 
z
M 589 1568 
C 634 2505 1126 2714 1382 2714 
C 1818 2714 2112 2297 2118 1568 
L 589 1568 
z
" transform="scale(0.015625)"/>
     </defs>
     <use xlink:href="#CMR17-54" transform="scale(0.996264)"/>
     <use xlink:href="#CMR17-69" transform="translate(66.509881 0) scale(0.996264)"/>
     <use xlink:href="#CMR17-6d" transform="translate(91.380939 0) scale(0.996264)"/>
     <use xlink:href="#CMR17-65" transform="translate(168.300529 0) scale(0.996264)"/>
    </g>
   </g>
   <g id="legend_1">
    <g id="line2d_45">
     <path d="M 948.117672 197.198434 
L 962.117672 197.198434 
L 976.117672 197.198434 
" style="fill: none; stroke: #393b79; stroke-width: 2; stroke-linecap: round"/>
    </g>
    <g id="text_20">
     <!-- t = 0.00 -->
     <g style="fill: #262626" transform="translate(987.317672 202.098434) scale(0.14 -0.14)">
      <defs>
       <path id="CMR17-74" d="M 966 2560 
L 1862 2560 
L 1862 2725 
L 966 2725 
L 966 3904 
L 851 3904 
C 838 3245 614 2668 70 2668 
L 70 2560 
L 627 2560 
L 627 771 
C 627 650 627 -64 1370 -64 
C 1747 -64 1965 306 1965 777 
L 1965 1140 
L 1850 1140 
L 1850 783 
C 1850 344 1677 51 1408 51 
C 1222 51 966 178 966 758 
L 966 2560 
z
" transform="scale(0.015625)"/>
       <path id="CMR17-3d" d="M 4115 2017 
C 4211 2017 4307 2017 4307 2125 
C 4307 2240 4198 2240 4090 2240 
L 512 2240 
C 403 2240 294 2240 294 2125 
C 294 2017 390 2017 486 2017 
L 4115 2017 
z
M 4090 896 
C 4198 896 4307 896 4307 1011 
C 4307 1119 4211 1119 4115 1119 
L 486 1119 
C 390 1119 294 1119 294 1011 
C 294 896 403 896 512 896 
L 4090 896 
z
" transform="scale(0.015625)"/>
       <path id="CMR17-2e" d="M 1062 261 
C 1062 420 934 522 800 522 
C 672 522 538 420 538 261 
C 538 102 666 0 800 0 
C 928 0 1062 102 1062 261 
z
" transform="scale(0.015625)"/>
      </defs>
      <use xlink:href="#CMR17-74" transform="scale(0.996264)"/>
      <use xlink:href="#CMR17-3d" transform="translate(65.356734 0) scale(0.996264)"/>
      <use xlink:href="#CMR17-30" transform="translate(167.147489 0) scale(0.996264)"/>
      <use xlink:href="#CMR17-2e" transform="translate(212.837966 0) scale(0.996264)"/>
      <use xlink:href="#CMR17-30" transform="translate(237.709025 0) scale(0.996264)"/>
      <use xlink:href="#CMR17-30" transform="translate(283.399502 0) scale(0.996264)"/>
     </g>
    </g>
    <g id="line2d_46">
     <path d="M 948.117672 216.710462 
L 962.117672 216.710462 
L 976.117672 216.710462 
" style="fill: none; stroke: #6b6ecf; stroke-width: 2; stroke-linecap: round"/>
    </g>
    <g id="text_21">
     <!-- t = 10.00 -->
     <g style="fill: #262626" transform="translate(987.317672 221.610462) scale(0.14 -0.14)">
      <use xlink:href="#CMR17-74" transform="scale(0.996264)"/>
      <use xlink:href="#CMR17-3d" transform="translate(65.356734 0) scale(0.996264)"/>
      <use xlink:href="#CMR17-31" transform="translate(167.147489 0) scale(0.996264)"/>
      <use xlink:href="#CMR17-30" transform="translate(212.837966 0) scale(0.996264)"/>
      <use xlink:href="#CMR17-2e" transform="translate(258.528443 0) scale(0.996264)"/>
      <use xlink:href="#CMR17-30" transform="translate(283.399502 0) scale(0.996264)"/>
      <use xlink:href="#CMR17-30" transform="translate(329.089979 0) scale(0.996264)"/>
     </g>
    </g>
    <g id="line2d_47">
     <path d="M 948.117672 236.222491 
L 962.117672 236.222491 
L 976.117672 236.222491 
" style="fill: none; stroke: #637939; stroke-width: 2; stroke-linecap: round"/>
    </g>
    <g id="text_22">
     <!-- t = 50.00 -->
     <g style="fill: #262626" transform="translate(987.317672 241.122491) scale(0.14 -0.14)">
      <use xlink:href="#CMR17-74" transform="scale(0.996264)"/>
      <use xlink:href="#CMR17-3d" transform="translate(65.356734 0) scale(0.996264)"/>
      <use xlink:href="#CMR17-35" transform="translate(167.147489 0) scale(0.996264)"/>
      <use xlink:href="#CMR17-30" transform="translate(212.837966 0) scale(0.996264)"/>
      <use xlink:href="#CMR17-2e" transform="translate(258.528443 0) scale(0.996264)"/>
      <use xlink:href="#CMR17-30" transform="translate(283.399502 0) scale(0.996264)"/>
      <use xlink:href="#CMR17-30" transform="translate(329.089979 0) scale(0.996264)"/>
     </g>
    </g>
    <g id="line2d_48">
     <path d="M 948.117672 255.734519 
L 962.117672 255.734519 
L 976.117672 255.734519 
" style="fill: none; stroke: #b5cf6b; stroke-width: 2; stroke-linecap: round"/>
    </g>
    <g id="text_23">
     <!-- t = 100.00 -->
     <g style="fill: #262626" transform="translate(987.317672 260.634519) scale(0.14 -0.14)">
      <use xlink:href="#CMR17-74" transform="scale(0.996264)"/>
      <use xlink:href="#CMR17-3d" transform="translate(65.356734 0) scale(0.996264)"/>
      <use xlink:href="#CMR17-31" transform="translate(167.147489 0) scale(0.996264)"/>
      <use xlink:href="#CMR17-30" transform="translate(212.837966 0) scale(0.996264)"/>
      <use xlink:href="#CMR17-30" transform="translate(258.528443 0) scale(0.996264)"/>
      <use xlink:href="#CMR17-2e" transform="translate(304.21892 0) scale(0.996264)"/>
      <use xlink:href="#CMR17-30" transform="translate(329.089979 0) scale(0.996264)"/>
      <use xlink:href="#CMR17-30" transform="translate(374.780456 0) scale(0.996264)"/>
     </g>
    </g>
    <g id="line2d_49">
     <path d="M 948.117672 275.246547 
L 962.117672 275.246547 
L 976.117672 275.246547 
" style="fill: none; stroke: #8c6d31; stroke-width: 2; stroke-linecap: round"/>
    </g>
    <g id="text_24">
     <!-- t = 250.00 -->
     <g style="fill: #262626" transform="translate(987.317672 280.146547) scale(0.14 -0.14)">
      <use xlink:href="#CMR17-74" transform="scale(0.996264)"/>
      <use xlink:href="#CMR17-3d" transform="translate(65.356734 0) scale(0.996264)"/>
      <use xlink:href="#CMR17-32" transform="translate(167.147489 0) scale(0.996264)"/>
      <use xlink:href="#CMR17-35" transform="translate(212.837966 0) scale(0.996264)"/>
      <use xlink:href="#CMR17-30" transform="translate(258.528443 0) scale(0.996264)"/>
      <use xlink:href="#CMR17-2e" transform="translate(304.21892 0) scale(0.996264)"/>
      <use xlink:href="#CMR17-30" transform="translate(329.089979 0) scale(0.996264)"/>
      <use xlink:href="#CMR17-30" transform="translate(374.780456 0) scale(0.996264)"/>
     </g>
    </g>
    <g id="line2d_50">
     <path d="M 948.117672 294.758576 
L 962.117672 294.758576 
L 976.117672 294.758576 
" style="fill: none; stroke: #e7cb94; stroke-width: 2; stroke-linecap: round"/>
    </g>
    <g id="text_25">
     <!-- t = 500.00 -->
     <g style="fill: #262626" transform="translate(987.317672 299.658576) scale(0.14 -0.14)">
      <use xlink:href="#CMR17-74" transform="scale(0.996264)"/>
      <use xlink:href="#CMR17-3d" transform="translate(65.356734 0) scale(0.996264)"/>
      <use xlink:href="#CMR17-35" transform="translate(167.147489 0) scale(0.996264)"/>
      <use xlink:href="#CMR17-30" transform="translate(212.837966 0) scale(0.996264)"/>
      <use xlink:href="#CMR17-30" transform="translate(258.528443 0) scale(0.996264)"/>
      <use xlink:href="#CMR17-2e" transform="translate(304.21892 0) scale(0.996264)"/>
      <use xlink:href="#CMR17-30" transform="translate(329.089979 0) scale(0.996264)"/>
      <use xlink:href="#CMR17-30" transform="translate(374.780456 0) scale(0.996264)"/>
     </g>
    </g>
    <g id="line2d_51">
     <path d="M 948.117672 314.270604 
L 962.117672 314.270604 
L 976.117672 314.270604 
" style="fill: none; stroke: #ad494a; stroke-width: 2; stroke-linecap: round"/>
    </g>
    <g id="text_26">
     <!-- t = 750.00 -->
     <g style="fill: #262626" transform="translate(987.317672 319.170604) scale(0.14 -0.14)">
      <use xlink:href="#CMR17-74" transform="scale(0.996264)"/>
      <use xlink:href="#CMR17-3d" transform="translate(65.356734 0) scale(0.996264)"/>
      <use xlink:href="#CMR17-37" transform="translate(167.147489 0) scale(0.996264)"/>
      <use xlink:href="#CMR17-35" transform="translate(212.837966 0) scale(0.996264)"/>
      <use xlink:href="#CMR17-30" transform="translate(258.528443 0) scale(0.996264)"/>
      <use xlink:href="#CMR17-2e" transform="translate(304.21892 0) scale(0.996264)"/>
      <use xlink:href="#CMR17-30" transform="translate(329.089979 0) scale(0.996264)"/>
      <use xlink:href="#CMR17-30" transform="translate(374.780456 0) scale(0.996264)"/>
     </g>
    </g>
    <g id="line2d_52">
     <path d="M 948.117672 333.782633 
L 962.117672 333.782633 
L 976.117672 333.782633 
" style="fill: none; stroke: #e7969c; stroke-width: 2; stroke-linecap: round"/>
    </g>
    <g id="text_27">
     <!-- t = 1000.00 -->
     <g style="fill: #262626" transform="translate(987.317672 338.682633) scale(0.14 -0.14)">
      <use xlink:href="#CMR17-74" transform="scale(0.996264)"/>
      <use xlink:href="#CMR17-3d" transform="translate(65.356734 0) scale(0.996264)"/>
      <use xlink:href="#CMR17-31" transform="translate(167.147489 0) scale(0.996264)"/>
      <use xlink:href="#CMR17-30" transform="translate(212.837966 0) scale(0.996264)"/>
      <use xlink:href="#CMR17-30" transform="translate(258.528443 0) scale(0.996264)"/>
      <use xlink:href="#CMR17-30" transform="translate(304.21892 0) scale(0.996264)"/>
      <use xlink:href="#CMR17-2e" transform="translate(349.909397 0) scale(0.996264)"/>
      <use xlink:href="#CMR17-30" transform="translate(374.780456 0) scale(0.996264)"/>
      <use xlink:href="#CMR17-30" transform="translate(420.470933 0) scale(0.996264)"/>
     </g>
    </g>
    <g id="line2d_53">
     <path d="M 948.117672 353.294661 
L 962.117672 353.294661 
L 976.117672 353.294661 
" style="fill: none; stroke: #a55194; stroke-width: 2; stroke-linecap: round"/>
    </g>
    <g id="text_28">
     <!-- t = 1250.00 -->
     <g style="fill: #262626" transform="translate(987.317672 358.194661) scale(0.14 -0.14)">
      <use xlink:href="#CMR17-74" transform="scale(0.996264)"/>
      <use xlink:href="#CMR17-3d" transform="translate(65.356734 0) scale(0.996264)"/>
      <use xlink:href="#CMR17-31" transform="translate(167.147489 0) scale(0.996264)"/>
      <use xlink:href="#CMR17-32" transform="translate(212.837966 0) scale(0.996264)"/>
      <use xlink:href="#CMR17-35" transform="translate(258.528443 0) scale(0.996264)"/>
      <use xlink:href="#CMR17-30" transform="translate(304.21892 0) scale(0.996264)"/>
      <use xlink:href="#CMR17-2e" transform="translate(349.909397 0) scale(0.996264)"/>
      <use xlink:href="#CMR17-30" transform="translate(374.780456 0) scale(0.996264)"/>
      <use xlink:href="#CMR17-30" transform="translate(420.470933 0) scale(0.996264)"/>
     </g>
    </g>
    <g id="line2d_54">
     <path d="M 948.117672 372.806689 
L 962.117672 372.806689 
L 976.117672 372.806689 
" style="fill: none; stroke: #de9ed6; stroke-width: 2; stroke-linecap: round"/>
    </g>
    <g id="text_29">
     <!-- t = 1500.00 -->
     <g style="fill: #262626" transform="translate(987.317672 377.706689) scale(0.14 -0.14)">
      <use xlink:href="#CMR17-74" transform="scale(0.996264)"/>
      <use xlink:href="#CMR17-3d" transform="translate(65.356734 0) scale(0.996264)"/>
      <use xlink:href="#CMR17-31" transform="translate(167.147489 0) scale(0.996264)"/>
      <use xlink:href="#CMR17-35" transform="translate(212.837966 0) scale(0.996264)"/>
      <use xlink:href="#CMR17-30" transform="translate(258.528443 0) scale(0.996264)"/>
      <use xlink:href="#CMR17-30" transform="translate(304.21892 0) scale(0.996264)"/>
      <use xlink:href="#CMR17-2e" transform="translate(349.909397 0) scale(0.996264)"/>
      <use xlink:href="#CMR17-30" transform="translate(374.780456 0) scale(0.996264)"/>
      <use xlink:href="#CMR17-30" transform="translate(420.470933 0) scale(0.996264)"/>
     </g>
    </g>
   </g>
  </g>
  <g id="text_30">
   <!-- adhesivity -->
   <g style="fill: #262626" transform="translate(501.333696 24.803515) scale(0.192 -0.192)">
    <defs>
     <path id="CMR17-61" d="M 2304 1653 
C 2304 2072 2304 2294 2035 2543 
C 1798 2752 1523 2816 1306 2816 
C 800 2816 435 2407 435 1971 
C 435 1728 627 1728 666 1728 
C 749 1728 896 1778 896 1954 
C 896 2112 774 2181 666 2181 
C 640 2181 608 2174 589 2168 
C 723 2592 1069 2714 1293 2714 
C 1613 2714 1965 2429 1965 1885 
L 1965 1600 
C 1587 1600 1133 1549 774 1357 
C 371 1133 256 813 256 570 
C 256 77 832 -64 1171 -64 
C 1523 -64 1850 139 1990 511 
C 2003 233 2182 -18 2464 -18 
C 2598 -18 2938 70 2938 567 
L 2938 920 
L 2822 920 
L 2822 562 
C 2822 178 2650 128 2566 128 
C 2304 128 2304 458 2304 738 
L 2304 1653 
z
M 1965 870 
C 1965 317 1568 38 1216 38 
C 896 38 646 275 646 570 
C 646 761 730 1100 1101 1305 
C 1408 1478 1760 1504 1965 1504 
L 1965 870 
z
" transform="scale(0.015625)"/>
     <path id="CMR17-64" d="M 1869 4326 
L 1869 4160 
C 2246 4160 2304 4122 2304 3820 
L 2304 2345 
C 2278 2377 2016 2790 1498 2790 
C 845 2790 211 2208 211 1364 
C 211 525 806 -64 1434 -64 
C 1978 -64 2259 337 2291 380 
L 2291 -63 
L 3066 -63 
L 3066 128 
C 2688 128 2630 166 2630 473 
L 2630 4396 
L 1869 4326 
z
M 2291 755 
C 2291 563 2176 390 2029 262 
C 1811 70 1594 38 1472 38 
C 1286 38 621 134 621 1356 
C 621 2612 1363 2688 1530 2688 
C 1824 2688 2061 2522 2208 2291 
C 2291 2157 2291 2138 2291 2023 
L 2291 755 
z
" transform="scale(0.015625)"/>
     <path id="CMR17-68" d="M 2656 1933 
C 2656 2259 2592 2790 1837 2790 
C 1312 2790 1056 2368 979 2157 
L 973 2157 
L 973 4396 
L 211 4326 
L 211 4160 
C 589 4160 646 4122 646 3817 
L 646 426 
C 646 184 621 153 211 153 
L 211 -13 
C 365 0 646 0 813 0 
C 979 0 1267 0 1421 -13 
L 1421 153 
C 1011 153 986 178 986 428 
L 986 1658 
C 986 2247 1344 2688 1792 2688 
C 2266 2688 2317 2266 2317 1958 
L 2317 428 
C 2317 184 2291 153 1882 153 
L 1882 -13 
C 2035 0 2317 0 2483 0 
C 2650 0 2938 0 3091 -13 
L 3091 153 
C 2682 153 2656 178 2656 428 
L 2656 1933 
z
" transform="scale(0.015625)"/>
     <path id="CMR17-73" d="M 1978 2697 
C 1978 2813 1971 2819 1933 2819 
C 1907 2819 1901 2813 1824 2717 
C 1805 2691 1747 2626 1728 2601 
C 1523 2819 1235 2819 1126 2819 
C 416 2819 160 2447 160 2076 
C 160 1498 813 1365 998 1325 
C 1402 1243 1542 1217 1677 1101 
C 1760 1025 1901 884 1901 654 
C 1901 384 1747 38 1158 38 
C 602 38 403 460 288 1021 
C 269 1110 269 1117 218 1117 
C 166 1117 160 1110 160 983 
L 160 63 
C 160 -51 166 -58 205 -58 
C 237 -58 243 -51 275 0 
C 314 57 410 211 448 276 
C 576 103 800 -64 1158 -64 
C 1792 -64 2131 283 2131 784 
C 2131 1112 1958 1285 1875 1362 
C 1683 1561 1459 1606 1190 1657 
C 838 1735 390 1825 390 2217 
C 390 2383 480 2737 1126 2737 
C 1811 2737 1850 2094 1862 1888 
C 1869 1856 1901 1849 1920 1849 
C 1978 1849 1978 1869 1978 1978 
L 1978 2697 
z
" transform="scale(0.015625)"/>
     <path id="CMR17-76" d="M 2502 2163 
C 2560 2304 2662 2560 3034 2560 
L 3034 2726 
C 2912 2726 2752 2726 2630 2726 
C 2496 2726 2285 2726 2157 2732 
L 2157 2566 
C 2317 2553 2406 2477 2406 2311 
C 2406 2253 2406 2240 2368 2151 
L 1664 377 
L 902 2286 
C 864 2369 864 2381 864 2407 
C 864 2560 1075 2560 1171 2560 
L 1171 2732 
C 1018 2726 736 2726 576 2726 
C 403 2726 205 2726 64 2732 
L 64 2560 
C 307 2560 442 2560 518 2362 
L 1446 44 
C 1485 -51 1491 -64 1549 -64 
C 1606 -64 1613 -51 1651 44 
L 2502 2163 
z
" transform="scale(0.015625)"/>
     <path id="CMR17-79" d="M 2496 2197 
C 2656 2586 2944 2586 3034 2586 
L 3034 2752 
C 2912 2752 2752 2752 2630 2752 
C 2496 2752 2285 2752 2157 2758 
L 2157 2592 
C 2400 2573 2406 2394 2406 2343 
C 2406 2280 2394 2248 2362 2171 
L 1664 449 
L 902 2306 
C 870 2382 870 2426 870 2433 
C 870 2573 1018 2586 1171 2586 
L 1171 2758 
C 1018 2752 742 2752 582 2752 
C 410 2752 205 2752 64 2758 
L 64 2586 
C 410 2586 448 2554 531 2350 
L 1485 15 
C 1197 -738 1030 -1178 627 -1178 
C 557 -1178 397 -1159 282 -1044 
C 429 -1031 493 -942 493 -833 
C 493 -725 416 -629 288 -629 
C 147 -629 77 -725 77 -840 
C 77 -1095 339 -1280 627 -1280 
C 998 -1280 1229 -922 1357 -604 
L 2496 2197 
z
" transform="scale(0.015625)"/>
    </defs>
    <use xlink:href="#CMR17-61" transform="scale(0.996264)"/>
    <use xlink:href="#CMR17-64" transform="translate(45.690477 0) scale(0.996264)"/>
    <use xlink:href="#CMR17-68" transform="translate(96.585847 0) scale(0.996264)"/>
    <use xlink:href="#CMR17-65" transform="translate(147.481217 0) scale(0.996264)"/>
    <use xlink:href="#CMR17-73" transform="translate(187.966877 0) scale(0.996264)"/>
    <use xlink:href="#CMR17-69" transform="translate(223.768215 0) scale(0.996264)"/>
    <use xlink:href="#CMR17-76" transform="translate(248.639273 0) scale(0.996264)"/>
    <use xlink:href="#CMR17-69" transform="translate(296.932189 0) scale(0.996264)"/>
    <use xlink:href="#CMR17-74" transform="translate(321.803248 0) scale(0.996264)"/>
    <use xlink:href="#CMR17-79" transform="translate(354.481561 0) scale(0.996264)"/>
   </g>
  </g>
 </g>
 <defs>
  <clipPath id="p1b52702a87">
   <rect x="41.730582" y="51.564121" width="893.78709" height="469.58891"/>
  </clipPath>
 </defs>
</svg>
