<?xml version="1.0" encoding="UTF-8" standalone="no"?>
<svg
   width="1020.7092pt"
   height="506.35809pt"
   viewBox="0 0 1020.7092 506.35809"
   version="1.1"
   id="svg61"
   sodipodi:docname="reactivity_alpha_0.6_beta_0.01_phi_4.0.svg"
   inkscape:version="1.3.2 (091e20e, 2023-11-25)"
   xmlns:inkscape="http://www.inkscape.org/namespaces/inkscape"
   xmlns:sodipodi="http://sodipodi.sourceforge.net/DTD/sodipodi-0.dtd"
   xmlns:xlink="http://www.w3.org/1999/xlink"
   xmlns="http://www.w3.org/2000/svg"
   xmlns:svg="http://www.w3.org/2000/svg"
   xmlns:rdf="http://www.w3.org/1999/02/22-rdf-syntax-ns#"
   xmlns:cc="http://creativecommons.org/ns#"
   xmlns:dc="http://purl.org/dc/elements/1.1/">
  <sodipodi:namedview
     id="namedview61"
     pagecolor="#ffffff"
     bordercolor="#000000"
     borderopacity="0.25"
     inkscape:showpageshadow="2"
     inkscape:pageopacity="0.0"
     inkscape:pagecheckerboard="0"
     inkscape:deskcolor="#d1d1d1"
     inkscape:document-units="pt"
     inkscape:zoom="0.30729167"
     inkscape:cx="714.30508"
     inkscape:cy="312.40678"
     inkscape:window-width="1312"
     inkscape:window-height="449"
     inkscape:window-x="0"
     inkscape:window-y="25"
     inkscape:window-maximized="0"
     inkscape:current-layer="figure_1" />
  <metadata
     id="metadata1">
    <rdf:RDF>
      <cc:Work>
        <dc:type
           rdf:resource="http://purl.org/dc/dcmitype/StillImage" />
        <dc:date>2024-08-21T15:19:26.677243</dc:date>
        <dc:format>image/svg+xml</dc:format>
        <dc:creator>
          <cc:Agent>
            <dc:title>Matplotlib v3.9.0, https://matplotlib.org/</dc:title>
          </cc:Agent>
        </dc:creator>
      </cc:Work>
    </rdf:RDF>
  </metadata>
  <defs
     id="defs1">
    <marker
       style="overflow:visible"
       id="DartArrow"
       refX="0"
       refY="0"
       orient="auto-start-reverse"
       inkscape:stockid="Dart arrow"
       markerWidth="1"
       markerHeight="1"
       viewBox="0 0 1 1"
       inkscape:isstock="true"
       inkscape:collect="always"
       preserveAspectRatio="xMidYMid">
      <path
         style="fill:context-stroke;fill-rule:evenodd;stroke:none"
         d="M 0,0 5,-5 -12.5,0 5,5 Z"
         transform="scale(-0.5)"
         id="path6" />
    </marker>
    <style
       type="text/css"
       id="style1">*{stroke-linejoin: round; stroke-linecap: butt}</style>
  </defs>
  <g
     id="figure_1"
     transform="translate(-5.690742,-54.732531)">
    <g
       id="axes_1">
      <g
         id="patch_2">
        <path
           d="M 120.23907,470.71841 H 1026 V 56.322468 H 120.23907 Z"
           style="fill:#ffffff"
           id="path2" />
      </g>
      <g
         id="matplotlib.axis_1">
        <g
           id="xtick_1">
          <g
             id="line2d_1">
            <defs
               id="defs2">
              <path
                 id="m488075ca27"
                 d="M 0,0 V 3.5"
                 style="stroke:#262626;stroke-width:0.8" />
            </defs>
            <g
               id="g2">
              <use
                 xlink:href="#m488075ca27"
                 x="120.23907"
                 y="470.71841"
                 style="fill:#262626;stroke:#262626;stroke-width:0.8"
                 id="use2" />
            </g>
          </g>
          <g
             id="text_1">
            <!-- $\mathdefault{0.0}$ -->
            <g
               style="fill:#262626"
               transform="matrix(0.5,0,0,-0.5,90.619533,512.31092)"
               id="g5">
              <defs
                 id="defs3">
                <path
                   id="CMR17-30"
                   d="m 2688,2025 c 0,391 -6,1055 -275,1566 -237,448 -615,607 -947,607 -308,0 -698,-140 -941,-601 C 269,3118 243,2524 243,2025 c 0,-364 7,-919 205,-1406 275,-658 768,-747 1018,-747 294,0 742,121 1004,728 192,442 218,959 218,1425 z M 1466,-26 c -410,0 -653,351 -743,838 -70,376 -70,926 -70,1284 0,492 0,901 83,1291 122,542 480,709 730,709 262,0 601,-173 723,-696 83,-364 89,-793 89,-1304 0,-416 0,-927 -76,-1304 C 2067,95 1690,-26 1466,-26 Z"
                   transform="scale(0.015625)" />
                <path
                   id="CMMI12-3a"
                   d="M 1178,307 C 1178,492 1024,619 870,619 685,619 557,466 557,313 557,128 710,0 864,0 c 186,0 314,153 314,307 z"
                   transform="scale(0.015625)" />
              </defs>
              <use
                 xlink:href="#CMR17-30"
                 transform="scale(0.996264)"
                 id="use3" />
              <use
                 xlink:href="#CMMI12-3a"
                 transform="matrix(0.996264,0,0,0.996264,45.690477,0)"
                 id="use4" />
              <use
                 xlink:href="#CMR17-30"
                 transform="matrix(0.996264,0,0,0.996264,72.787654,0)"
                 id="use5" />
            </g>
          </g>
        </g>
        <g
           id="xtick_2">
          <g
             id="line2d_2">
            <g
               id="g6">
              <use
                 xlink:href="#m488075ca27"
                 x="292.76495"
                 y="470.71841"
                 style="fill:#262626;stroke:#262626;stroke-width:0.8"
                 id="use6" />
            </g>
          </g>
          <g
             id="text_2">
            <!-- $\mathdefault{0.2}$ -->
            <g
               style="fill:#262626"
               transform="matrix(0.5,0,0,-0.5,263.14542,512.31092)"
               id="g9">
              <defs
                 id="defs6">
                <path
                   id="CMR17-32"
                   d="M 2669,989 H 2554 C 2490,536 2438,459 2413,420 2381,369 1920,369 1830,369 H 602 c 230,250 678,703 1222,1228 390,370 845,805 845,1438 0,755 -602,1189 -1274,1189 -704,0 -1133,-620 -1133,-1194 0,-250 186,-282 263,-282 64,0 256,39 256,262 0,197 -167,254 -256,254 -39,0 -77,-6 -103,-19 122,545 493,813 884,813 556,0 921,-441 921,-1023 0,-556 -326,-1035 -691,-1451 L 262,146 V 0 h 2253 z"
                   transform="scale(0.015625)" />
              </defs>
              <use
                 xlink:href="#CMR17-30"
                 transform="scale(0.996264)"
                 id="use7" />
              <use
                 xlink:href="#CMMI12-3a"
                 transform="matrix(0.996264,0,0,0.996264,45.690477,0)"
                 id="use8" />
              <use
                 xlink:href="#CMR17-32"
                 transform="matrix(0.996264,0,0,0.996264,72.787654,0)"
                 id="use9" />
            </g>
          </g>
        </g>
        <g
           id="xtick_3">
          <g
             id="line2d_3">
            <g
               id="g10">
              <use
                 xlink:href="#m488075ca27"
                 x="465.29086"
                 y="470.71841"
                 style="fill:#262626;stroke:#262626;stroke-width:0.8"
                 id="use10" />
            </g>
          </g>
          <g
             id="text_3">
            <!-- $\mathdefault{0.4}$ -->
            <g
               style="fill:#262626"
               transform="matrix(0.5,0,0,-0.5,435.67132,512.31092)"
               id="g13">
              <defs
                 id="defs10">
                <path
                   id="CMR17-34"
                   d="m 2150,4122 c 0,134 -6,134 -121,134 L 128,1254 V 1088 H 1779 V 457 c 0,-233 -13,-297 -461,-297 H 1197 V 0 c 205,0 550,0 768,0 217,0 563,0 768,0 v 160 h -122 c -448,0 -461,64 -461,297 v 631 h 653 v 166 H 2150 Z M 1798,3703 V 1254 H 256 Z"
                   transform="scale(0.015625)" />
              </defs>
              <use
                 xlink:href="#CMR17-30"
                 transform="scale(0.996264)"
                 id="use11" />
              <use
                 xlink:href="#CMMI12-3a"
                 transform="matrix(0.996264,0,0,0.996264,45.690477,0)"
                 id="use12" />
              <use
                 xlink:href="#CMR17-34"
                 transform="matrix(0.996264,0,0,0.996264,72.787654,0)"
                 id="use13" />
            </g>
          </g>
        </g>
        <g
           id="xtick_4">
          <g
             id="line2d_4">
            <g
               id="g14">
              <use
                 xlink:href="#m488075ca27"
                 x="637.81677"
                 y="470.71841"
                 style="fill:#262626;stroke:#262626;stroke-width:0.8"
                 id="use14" />
            </g>
          </g>
          <g
             id="text_4">
            <!-- $\mathdefault{0.6}$ -->
            <g
               style="fill:#262626"
               transform="matrix(0.5,0,0,-0.5,608.19721,512.31092)"
               id="g17">
              <defs
                 id="defs14">
                <path
                   id="CMR17-36"
                   d="m 678,2176 c 0,1514 717,1856 1133,1856 135,0 461,-23 589,-256 -102,0 -294,0 -294,-223 0,-172 140,-230 230,-230 58,0 230,25 230,237 0,394 -320,619 -761,619 -762,0 -1562,-789 -1562,-2195 0,-1731 723,-2112 1235,-2112 621,0 1210,555 1210,1411 0,798 -518,1379 -1171,1379 -391,0 -679,-255 -839,-702 z M 1478,25 c -787,0 -787,1175 -787,1411 0,460 218,1124 813,1124 109,0 422,0 634,-440 115,-250 115,-511 115,-831 0,-345 0,-599 -135,-855 C 1978,171 1773,25 1478,25 Z"
                   transform="scale(0.015625)" />
              </defs>
              <use
                 xlink:href="#CMR17-30"
                 transform="scale(0.996264)"
                 id="use15" />
              <use
                 xlink:href="#CMMI12-3a"
                 transform="matrix(0.996264,0,0,0.996264,45.690477,0)"
                 id="use16" />
              <use
                 xlink:href="#CMR17-36"
                 transform="matrix(0.996264,0,0,0.996264,72.787654,0)"
                 id="use17" />
            </g>
          </g>
        </g>
        <g
           id="xtick_5">
          <g
             id="line2d_5">
            <g
               id="g18">
              <use
                 xlink:href="#m488075ca27"
                 x="810.34265"
                 y="470.71841"
                 style="fill:#262626;stroke:#262626;stroke-width:0.8"
                 id="use18" />
            </g>
          </g>
          <g
             id="text_5">
            <!-- $\mathdefault{0.8}$ -->
            <g
               style="fill:#262626"
               transform="matrix(0.5,0,0,-0.5,780.7231,512.31092)"
               id="g21">
              <defs
                 id="defs18">
                <path
                   id="CMR17-38"
                   d="m 1741,2264 c 403,203 813,509 813,999 0,578 -564,916 -1082,916 -582,0 -1094,-420 -1094,-999 0,-159 38,-433 288,-675 64,-63 332,-254 505,-375 C 883,1983 211,1634 211,934 211,279 838,-128 1459,-128 c 685,0 1261,490 1261,1138 0,580 -390,847 -646,1019 z m -839,558 c -51,32 -307,229 -307,529 0,388 403,681 864,681 506,0 877,-356 877,-770 0,-593 -666,-931 -698,-931 -6,0 -12,0 -64,39 z M 2080,1519 c 96,-70 403,-279 403,-668 C 2483,381 2010,25 1472,25 890,25 448,438 448,940 c 0,503 390,922 832,1120 z"
                   transform="scale(0.015625)" />
              </defs>
              <use
                 xlink:href="#CMR17-30"
                 transform="scale(0.996264)"
                 id="use19" />
              <use
                 xlink:href="#CMMI12-3a"
                 transform="matrix(0.996264,0,0,0.996264,45.690477,0)"
                 id="use20" />
              <use
                 xlink:href="#CMR17-38"
                 transform="matrix(0.996264,0,0,0.996264,72.787654,0)"
                 id="use21" />
            </g>
          </g>
        </g>
        <g
           id="xtick_6">
          <g
             id="line2d_6">
            <g
               id="g22">
              <use
                 xlink:href="#m488075ca27"
                 x="982.86853"
                 y="470.71841"
                 style="fill:#262626;stroke:#262626;stroke-width:0.8"
                 id="use22" />
            </g>
          </g>
          <g
             id="text_6">
            <!-- $\mathdefault{1.0}$ -->
            <g
               style="fill:#262626"
               transform="matrix(0.5,0,0,-0.5,953.24899,512.31092)"
               id="g25">
              <defs
                 id="defs22">
                <path
                   id="CMR17-31"
                   d="m 1702,4058 c 0,134 -6,134 -96,134 -249,-276 -627,-365 -985,-365 -19,0 -51,0 -58,-19 -6,-13 -6,-26 -6,-160 198,0 531,38 787,191 V 461 C 1344,236 1331,160 781,160 H 589 V 0 c 307,0 627,0 934,0 307,0 627,0 935,0 v 160 h -192 c -551,0 -564,70 -564,298 z"
                   transform="scale(0.015625)" />
              </defs>
              <use
                 xlink:href="#CMR17-31"
                 transform="scale(0.996264)"
                 id="use23" />
              <use
                 xlink:href="#CMMI12-3a"
                 transform="matrix(0.996264,0,0,0.996264,45.690477,0)"
                 id="use24" />
              <use
                 xlink:href="#CMR17-30"
                 transform="matrix(0.996264,0,0,0.996264,72.787654,0)"
                 id="use25" />
            </g>
          </g>
        </g>
        <g
           id="text_7">
          <!-- $x$ -->
          <g
             style="fill:#262626"
             transform="matrix(0.5,0,0,-0.5,559.26102,560.59251)"
             id="g26">
            <defs
               id="defs25">
              <path
                 id="CMMI12-78"
                 d="m 3034,2606 c -205,-39 -282,-192 -282,-313 0,-154 122,-205 211,-205 192,0 327,166 327,339 0,268 -308,389 -576,389 -391,0 -608,-383 -666,-504 -147,504 -544,504 -659,504 -653,0 -999,-836 -999,-977 0,-25 26,-57 71,-57 51,0 64,38 77,64 217,709 646,843 832,843 288,0 345,-269 345,-422 0,-140 -38,-287 -115,-594 L 1382,798 C 1286,415 1101,64 762,64 730,64 570,64 435,147 666,192 717,383 717,460 717,588 621,664 499,664 346,664 179,530 179,326 179,57 480,-64 755,-64 c 307,0 525,243 659,505 103,-377 423,-505 660,-505 652,0 998,837 998,977 0,32 -26,58 -64,58 -58,0 -64,-32 -83,-83 C 2752,326 2381,64 2093,64 c -224,0 -346,166 -346,428 0,140 26,242 128,664 l 224,868 c 96,384 314,665 608,665 13,0 192,0 327,-83 z"
                 transform="scale(0.015625)" />
            </defs>
            <use
               xlink:href="#CMMI12-78"
               transform="scale(0.996264)"
               id="use26" />
          </g>
        </g>
      </g>
      <g
         id="matplotlib.axis_2">
        <g
           id="ytick_2">
          <g
             id="line2d_8">
            <g
               id="g31">
              <path
                 id="use31"
                 d="m 120.23907,403.98416 h -3.5"
                 style="fill:#262626;stroke:#262626;stroke-width:0.8" />
            </g>
          </g>
          <g
             id="text_9">
            <!-- $\mathdefault{0.2}$ -->
            <g
               style="fill:#262626"
               transform="matrix(0.5,0,0,-0.5,54,421.28043)"
               id="g34">
              <use
                 xlink:href="#CMR17-30"
                 transform="scale(0.996264)"
                 id="use32" />
              <use
                 xlink:href="#CMMI12-3a"
                 transform="matrix(0.996264,0,0,0.996264,45.690477,0)"
                 id="use33" />
              <use
                 xlink:href="#CMR17-32"
                 transform="matrix(0.996264,0,0,0.996264,72.787654,0)"
                 id="use34" />
            </g>
          </g>
        </g>
        <g
           id="ytick_3">
          <g
             id="line2d_9">
            <g
               id="g35">
              <path
                 id="use35"
                 d="m 120.23907,337.24994 h -3.5"
                 style="fill:#262626;stroke:#262626;stroke-width:0.8" />
            </g>
          </g>
          <g
             id="text_10">
            <!-- $\mathdefault{0.4}$ -->
            <g
               style="fill:#262626"
               transform="matrix(0.5,0,0,-0.5,54,354.54619)"
               id="g38">
              <use
                 xlink:href="#CMR17-30"
                 transform="scale(0.996264)"
                 id="use36" />
              <use
                 xlink:href="#CMMI12-3a"
                 transform="matrix(0.996264,0,0,0.996264,45.690477,0)"
                 id="use37" />
              <use
                 xlink:href="#CMR17-34"
                 transform="matrix(0.996264,0,0,0.996264,72.787654,0)"
                 id="use38" />
            </g>
          </g>
        </g>
        <g
           id="ytick_4">
          <g
             id="line2d_10">
            <g
               id="g39">
              <path
                 id="use39"
                 d="m 120.23907,270.51569 h -3.5"
                 style="fill:#262626;stroke:#262626;stroke-width:0.8" />
            </g>
          </g>
          <g
             id="text_11">
            <!-- $\mathdefault{0.6}$ -->
            <g
               style="fill:#262626"
               transform="matrix(0.5,0,0,-0.5,54,287.81195)"
               id="g42">
              <use
                 xlink:href="#CMR17-30"
                 transform="scale(0.996264)"
                 id="use40" />
              <use
                 xlink:href="#CMMI12-3a"
                 transform="matrix(0.996264,0,0,0.996264,45.690477,0)"
                 id="use41" />
              <use
                 xlink:href="#CMR17-36"
                 transform="matrix(0.996264,0,0,0.996264,72.787654,0)"
                 id="use42" />
            </g>
          </g>
        </g>
        <g
           id="ytick_5">
          <g
             id="line2d_11">
            <g
               id="g43">
              <path
                 id="use43"
                 d="m 120.23907,203.78146 h -3.5"
                 style="fill:#262626;stroke:#262626;stroke-width:0.8" />
            </g>
          </g>
          <g
             id="text_12">
            <!-- $\mathdefault{0.8}$ -->
            <g
               style="fill:#262626"
               transform="matrix(0.5,0,0,-0.5,54,221.07772)"
               id="g46">
              <use
                 xlink:href="#CMR17-30"
                 transform="scale(0.996264)"
                 id="use44" />
              <use
                 xlink:href="#CMMI12-3a"
                 transform="matrix(0.996264,0,0,0.996264,45.690477,0)"
                 id="use45" />
              <use
                 xlink:href="#CMR17-38"
                 transform="matrix(0.996264,0,0,0.996264,72.787654,0)"
                 id="use46" />
            </g>
          </g>
        </g>
        <g
           id="ytick_6">
          <g
             id="line2d_12">
            <g
               id="g47">
              <path
                 id="use47"
                 d="m 120.23907,137.04723 h -3.5"
                 style="fill:#262626;stroke:#262626;stroke-width:0.8" />
            </g>
          </g>
          <g
             id="text_13">
            <!-- $\mathdefault{1.0}$ -->
            <g
               style="fill:#262626"
               transform="matrix(0.5,0,0,-0.5,54,154.34348)"
               id="g50">
              <use
                 xlink:href="#CMR17-31"
                 transform="scale(0.996264)"
                 id="use48" />
              <use
                 xlink:href="#CMMI12-3a"
                 transform="matrix(0.996264,0,0,0.996264,45.690477,0)"
                 id="use49" />
              <use
                 xlink:href="#CMR17-30"
                 transform="matrix(0.996264,0,0,0.996264,72.787654,0)"
                 id="use50" />
            </g>
          </g>
        </g>
        <g
           id="ytick_7">
          <g
             id="line2d_13">
            <g
               id="g51">
              <path
                 id="use51"
                 d="m 120.23907,70.312988 h -3.5"
                 style="fill:#262626;stroke:#262626;stroke-width:0.8" />
            </g>
          </g>
          <g
             id="text_14">
            <!-- $\mathdefault{1.2}$ -->
            <g
               style="fill:#262626"
               transform="matrix(0.5,0,0,-0.5,54,87.609243)"
               id="g54">
              <use
                 xlink:href="#CMR17-31"
                 transform="scale(0.996264)"
                 id="use52" />
              <use
                 xlink:href="#CMMI12-3a"
                 transform="matrix(0.996264,0,0,0.996264,45.690477,0)"
                 id="use53" />
              <use
                 xlink:href="#CMR17-32"
                 transform="matrix(0.996264,0,0,0.996264,72.787654,0)"
                 id="use54" />
            </g>
          </g>
        </g>
        <g
           id="text_15">
          <!-- $\psi$ -->
          <g
             style="fill:#262626"
             transform="matrix(0,-0.5,-0.5,0,40.310916,279.37516)"
             id="g55">
            <defs
               id="defs54">
              <path
                 id="CMMI12-20"
                 d="m 3008,4294 c 0,7 26,90 26,97 0,57 -52,57 -71,57 -57,0 -64,-32 -89,-128 L 1818,77 c -532,64 -730,333 -730,717 0,140 0,288 301,1081 83,230 115,313 115,428 0,288 -205,518 -506,518 -588,0 -825,-927 -825,-978 0,-26 25,-58 70,-58 58,0 64,26 90,115 153,553 409,788 646,788 58,0 167,0 167,-205 0,-26 0,-167 -109,-448 C 691,1126 691,985 691,838 c 0,-615 512,-852 1088,-896 -51,-195 -96,-395 -147,-589 -102,-375 -147,-551 -147,-576 0,-57 51,-57 70,-57 13,0 39,0 51,26 26,24 288,1078 314,1190 237,0 742,0 1318,595 212,230 404,525 512,800 64,167 218,736 218,1062 0,384 -192,428 -256,428 -154,0 -294,-153 -294,-281 0,-77 44,-122 70,-147 58,-58 230,-231 230,-563 0,-230 -128,-704 -537,-1164 C 2643,64 2150,64 1958,64 Z"
                 transform="scale(0.015625)" />
            </defs>
            <use
               xlink:href="#CMMI12-20"
               transform="scale(0.996264)"
               id="use55" />
          </g>
        </g>
      </g>
      <g
         id="line2d_14">
        <path
           d="m 120.23907,70.312989 h 862.62946 v 0"
           clip-path="url(#paa9c092238)"
           style="fill:none;stroke:#1f77b4;stroke-width:5;stroke-linecap:round"
           id="path55" />
      </g>
      <g
         id="line2d_15">
        <path
           d="m 120.23907,183.52723 h 862.62946 v 0"
           clip-path="url(#paa9c092238)"
           style="fill:none;stroke:#2ca02c;stroke-width:5;stroke-linecap:round"
           id="path56" />
      </g>
      <g
         id="line2d_16">
        <path
           d="m 120.23907,259.22417 h 862.62946 v 0"
           clip-path="url(#paa9c092238)"
           style="fill:none;stroke:#8c564b;stroke-width:5;stroke-linecap:round"
           id="path57" />
      </g>
      <g
         id="line2d_17">
        <path
           d="m 120.23907,312.17266 h 862.62946 v 0"
           clip-path="url(#paa9c092238)"
           style="fill:none;stroke:#7f7f7f;stroke-width:5;stroke-linecap:round"
           id="path58" />
      </g>
      <g
         id="line2d_18">
        <path
           d="m 120.23907,350.12341 h 862.62946 v 0"
           clip-path="url(#paa9c092238)"
           style="fill:none;stroke:#17becf;stroke-width:5;stroke-linecap:round"
           id="path59" />
      </g>
      <g
         id="patch_3">
        <path
           d="M 120.23907,470.71841 V 56.322468"
           style="fill:none;stroke:#262626;stroke-width:0.8;stroke-linecap:square;stroke-linejoin:miter"
           id="path60" />
      </g>
      <g
         id="patch_4">
        <path
           d="M 120.23907,470.71841 H 1026"
           style="fill:none;stroke:#262626;stroke-width:0.8;stroke-linecap:square;stroke-linejoin:miter"
           id="path61" />
      </g>
    </g>
    <path
       style="fill:#000000;stroke:#000000;stroke-width:4;stroke-linecap:round;stroke-dasharray:none;marker-end:url(#DartArrow)"
       d="M 546.71186,60.891998 V 401.83308"
       id="path62" />
    <g
       inkscape:label=""
       transform="matrix(4.567314,0,0,4.567314,-24.133039,80.348152)"
       id="g1099"
       style="stroke-width:0.620637">
      <g
         id="g1191"
         style="stroke-width:0.620637">
        <g
           style="fill:#000000;fill-opacity:1;stroke-width:0.620637"
           id="g5633">
          <g
             id="use7364"
             transform="translate(91.925003,81.962997)"
             style="stroke-width:0.620637">
            <path
               style="stroke:none;stroke-width:0.620637"
               d="M 2.25,-6.03125 C 2.25,-6.390625 2.265625,-6.5 3.0625,-6.5 h 0.25 v -0.3125 c -0.34375,0.03125 -1.125,0.03125 -1.515625,0.03125 -0.375,0 -1.171875,0 -1.515625,-0.03125 V -6.5 h 0.25 c 0.796875,0 0.828125,0.109375 0.828125,0.46875 v 5.25 c 0,0.359375 -0.03125,0.46875 -0.828125,0.46875 h -0.25 V 0 c 0.34375,-0.03125 1.140625,-0.03125 1.515625,-0.03125 0.390625,0 1.171875,0 1.515625,0.03125 v -0.3125 h -0.25 C 2.265625,-0.3125 2.25,-0.421875 2.25,-0.78125 Z m 0,0"
               id="path67" />
          </g>
          <g
             id="use2805"
             transform="translate(95.522491,81.962997)"
             style="stroke-width:0.620637">
            <path
               style="stroke:none;stroke-width:0.620637"
               d="M 1.09375,-3.421875 V -0.75 c 0,0.4375 -0.109375,0.4375 -0.78125,0.4375 V 0 c 0.359375,-0.015625 0.859375,-0.03125 1.140625,-0.03125 0.25,0 0.765625,0.015625 1.109375,0.03125 v -0.3125 c -0.671875,0 -0.78125,0 -0.78125,-0.4375 V -2.59375 C 1.78125,-3.625 2.5,-4.1875 3.125,-4.1875 c 0.640625,0 0.75,0.53125 0.75,1.109375 V -0.75 c 0,0.4375 -0.109375,0.4375 -0.78125,0.4375 V 0 c 0.34375,-0.015625 0.859375,-0.03125 1.125,-0.03125 0.25,0 0.78125,0.015625 1.109375,0.03125 v -0.3125 c -0.515625,0 -0.765625,0 -0.765625,-0.296875 v -1.90625 c 0,-0.859375 0,-1.15625 -0.3125,-1.515625 -0.140625,-0.171875 -0.46875,-0.375 -1.046875,-0.375 C 2.46875,-4.40625 2,-3.984375 1.71875,-3.359375 V -4.40625 L 0.3125,-4.296875 v 0.3125 c 0.703125,0 0.78125,0.0625 0.78125,0.5625 z m 0,0"
               id="path65" />
          </g>
          <g
             id="use2761"
             transform="translate(101.05772,81.962997)"
             style="stroke-width:0.620637">
            <path
               style="stroke:none;stroke-width:0.620637"
               d="m 1.171875,-2.171875 c 0,-1.625 0.8125,-2.046875 1.34375,-2.046875 0.09375,0 0.71875,0.015625 1.0625,0.375 -0.40625,0.03125 -0.46875,0.328125 -0.46875,0.453125 0,0.265625 0.1875,0.453125 0.453125,0.453125 0.265625,0 0.46875,-0.15625 0.46875,-0.46875 0,-0.671875 -0.765625,-1.0625 -1.53125,-1.0625 -1.25,0 -2.15625,1.078125 -2.15625,2.3125 0,1.28125 0.984375,2.265625 2.140625,2.265625 1.328125,0 1.65625,-1.203125 1.65625,-1.296875 0,-0.09375 -0.109375,-0.09375 -0.140625,-0.09375 -0.078125,0 -0.109375,0.03125 -0.125,0.09375 -0.28125,0.921875 -0.9375,1.046875 -1.296875,1.046875 -0.53125,0 -1.40625,-0.421875 -1.40625,-2.03125 z m 0,0"
               id="path64" />
          </g>
          <g
             id="use485"
             transform="translate(105.48509,81.962997)"
             style="stroke-width:0.620637">
            <path
               style="stroke:none;stroke-width:0.620637"
               d="M 1.671875,-3.3125 V -4.40625 L 0.28125,-4.296875 v 0.3125 c 0.703125,0 0.78125,0.0625 0.78125,0.5625 V -0.75 c 0,0.4375 -0.109375,0.4375 -0.78125,0.4375 V 0 c 0.390625,-0.015625 0.859375,-0.03125 1.140625,-0.03125 0.390625,0 0.859375,0 1.265625,0.03125 V -0.3125 H 2.46875 c -0.734375,0 -0.75,-0.109375 -0.75,-0.46875 V -2.3125 c 0,-0.984375 0.421875,-1.875 1.171875,-1.875 0.0625,0 0.09375,0 0.109375,0.015625 -0.03125,0 -0.234375,0.125 -0.234375,0.390625 0,0.265625 0.21875,0.421875 0.4375,0.421875 0.171875,0 0.421875,-0.125 0.421875,-0.4375 0,-0.3125 -0.3125,-0.609375 -0.734375,-0.609375 -0.734375,0 -1.09375,0.671875 -1.21875,1.09375 z m 0,0"
               id="path71" />
          </g>
          <g
             id="use483"
             transform="translate(109.38744,81.962997)"
             style="stroke-width:0.620637">
            <path
               style="stroke:none;stroke-width:0.620637"
               d="M 1.109375,-2.515625 C 1.171875,-4 2.015625,-4.25 2.359375,-4.25 c 1.015625,0 1.125,1.34375 1.125,1.734375 z m 0,0.21875 h 2.78125 c 0.21875,0 0.25,0 0.25,-0.21875 0,-0.984375 -0.546875,-1.953125 -1.78125,-1.953125 -1.15625,0 -2.078125,1.03125 -2.078125,2.28125 0,1.328125 1.046875,2.296875 2.1875,2.296875 C 3.6875,0.109375 4.140625,-1 4.140625,-1.1875 4.140625,-1.28125 4.0625,-1.3125 4,-1.3125 c -0.078125,0 -0.109375,0.0625 -0.125,0.140625 -0.34375,1.03125 -1.25,1.03125 -1.34375,1.03125 -0.5,0 -0.890625,-0.296875 -1.125,-0.671875 -0.296875,-0.46875 -0.296875,-1.125 -0.296875,-1.484375 z m 0,0"
               id="path69" />
          </g>
          <g
             id="use2213"
             transform="translate(113.81483,81.962997)"
             style="stroke-width:0.620637">
            <path
               style="stroke:none;stroke-width:0.620637"
               d="m 3.3125,-0.75 c 0.046875,0.390625 0.3125,0.8125 0.78125,0.8125 0.21875,0 0.828125,-0.140625 0.828125,-0.953125 v -0.5625 h -0.25 v 0.5625 c 0,0.578125 -0.25,0.640625 -0.359375,0.640625 -0.328125,0 -0.375,-0.453125 -0.375,-0.5 v -1.984375 c 0,-0.421875 0,-0.8125 -0.359375,-1.1875 C 3.1875,-4.3125 2.6875,-4.46875 2.21875,-4.46875 c -0.828125,0 -1.515625,0.46875 -1.515625,1.125 0,0.296875 0.203125,0.46875 0.46875,0.46875 0.28125,0 0.453125,-0.203125 0.453125,-0.453125 0,-0.125 -0.046875,-0.453125 -0.515625,-0.453125 C 1.390625,-4.140625 1.875,-4.25 2.1875,-4.25 c 0.5,0 1.0625,0.390625 1.0625,1.28125 v 0.359375 c -0.515625,0.03125 -1.203125,0.0625 -1.828125,0.359375 -0.75,0.34375 -1,0.859375 -1,1.296875 0,0.8125 0.96875,1.0625 1.59375,1.0625 0.65625,0 1.109375,-0.40625 1.296875,-0.859375 z M 3.25,-2.390625 v 1 c 0,0.9375 -0.71875,1.28125 -1.171875,1.28125 -0.484375,0 -0.890625,-0.34375 -0.890625,-0.84375 0,-0.546875 0.421875,-1.375 2.0625,-1.4375 z m 0,0"
               id="path68" />
          </g>
          <g
             id="use5793"
             transform="translate(118.79613,81.962997)"
             style="stroke-width:0.620637">
            <path
               style="stroke:none;stroke-width:0.620637"
               d="m 2.078125,-1.9375 c 0.21875,0.046875 1.03125,0.203125 1.03125,0.921875 0,0.5 -0.34375,0.90625 -1.125,0.90625 -0.84375,0 -1.203125,-0.5625 -1.390625,-1.421875 C 0.5625,-1.65625 0.5625,-1.6875 0.453125,-1.6875 c -0.125,0 -0.125,0.0625 -0.125,0.234375 V -0.125 c 0,0.171875 0,0.234375 0.109375,0.234375 0.046875,0 0.0625,-0.015625 0.25,-0.203125 0.015625,-0.015625 0.015625,-0.03125 0.203125,-0.21875 0.4375,0.40625 0.890625,0.421875 1.09375,0.421875 1.140625,0 1.609375,-0.671875 1.609375,-1.390625 0,-0.515625 -0.296875,-0.828125 -0.421875,-0.9375 C 2.84375,-2.546875 2.453125,-2.625 2.03125,-2.703125 1.46875,-2.8125 0.8125,-2.9375 0.8125,-3.515625 c 0,-0.359375 0.25,-0.765625 1.109375,-0.765625 1.09375,0 1.15625,0.90625 1.171875,1.203125 0,0.09375 0.09375,0.09375 0.109375,0.09375 0.140625,0 0.140625,-0.046875 0.140625,-0.234375 v -1.015625 c 0,-0.15625 0,-0.234375 -0.109375,-0.234375 -0.046875,0 -0.078125,0 -0.203125,0.125 -0.03125,0.03125 -0.125,0.125 -0.171875,0.15625 -0.375,-0.28125 -0.78125,-0.28125 -0.9375,-0.28125 -1.21875,0 -1.59375,0.671875 -1.59375,1.234375 0,0.34375 0.15625,0.625 0.421875,0.84375 0.328125,0.25 0.609375,0.3125 1.328125,0.453125 z m 0,0"
               id="path74" />
          </g>
          <g
             id="use2941"
             transform="translate(122.72537,81.962997)"
             style="stroke-width:0.620637">
            <path
               style="stroke:none;stroke-width:0.620637"
               d="M 1.765625,-4.40625 0.375,-4.296875 v 0.3125 c 0.640625,0 0.734375,0.0625 0.734375,0.546875 V -0.75 c 0,0.4375 -0.109375,0.4375 -0.78125,0.4375 V 0 C 0.640625,-0.015625 1.1875,-0.03125 1.421875,-0.03125 1.78125,-0.03125 2.125,-0.015625 2.46875,0 v -0.3125 c -0.671875,0 -0.703125,-0.046875 -0.703125,-0.4375 z m 0.03125,-1.734375 c 0,-0.3125 -0.234375,-0.53125 -0.515625,-0.53125 -0.3125,0 -0.53125,0.265625 -0.53125,0.53125 0,0.265625 0.21875,0.53125 0.53125,0.53125 0.28125,0 0.515625,-0.21875 0.515625,-0.53125 z m 0,0"
               id="path72" />
          </g>
          <g
             id="use4299"
             transform="translate(125.49298,81.962997)"
             style="stroke-width:0.620637">
            <path
               style="stroke:none;stroke-width:0.620637"
               d="M 1.09375,-3.421875 V -0.75 c 0,0.4375 -0.109375,0.4375 -0.78125,0.4375 V 0 c 0.359375,-0.015625 0.859375,-0.03125 1.140625,-0.03125 0.25,0 0.765625,0.015625 1.109375,0.03125 v -0.3125 c -0.671875,0 -0.78125,0 -0.78125,-0.4375 V -2.59375 C 1.78125,-3.625 2.5,-4.1875 3.125,-4.1875 c 0.640625,0 0.75,0.53125 0.75,1.109375 V -0.75 c 0,0.4375 -0.109375,0.4375 -0.78125,0.4375 V 0 c 0.34375,-0.015625 0.859375,-0.03125 1.125,-0.03125 0.25,0 0.78125,0.015625 1.109375,0.03125 v -0.3125 c -0.515625,0 -0.765625,0 -0.765625,-0.296875 v -1.90625 c 0,-0.859375 0,-1.15625 -0.3125,-1.515625 -0.140625,-0.171875 -0.46875,-0.375 -1.046875,-0.375 C 2.46875,-4.40625 2,-3.984375 1.71875,-3.359375 V -4.40625 L 0.3125,-4.296875 v 0.3125 c 0.703125,0 0.78125,0.0625 0.78125,0.5625 z m 0,0"
               id="path66" />
          </g>
          <g
             id="use3661"
             transform="translate(131.0282,81.962997)"
             style="stroke-width:0.620637">
            <path
               style="stroke:none;stroke-width:0.620637"
               d="m 2.21875,-1.71875 c -0.875,0 -0.875,-1 -0.875,-1.21875 0,-0.265625 0.015625,-0.59375 0.15625,-0.84375 0.078125,-0.109375 0.3125,-0.390625 0.71875,-0.390625 0.859375,0 0.859375,0.984375 0.859375,1.21875 0,0.265625 0,0.59375 -0.15625,0.84375 C 2.84375,-2 2.609375,-1.71875 2.21875,-1.71875 Z M 1.0625,-1.328125 c 0,-0.03125 0,-0.265625 0.15625,-0.46875 0.390625,0.28125 0.8125,0.3125 1,0.3125 0.921875,0 1.609375,-0.6875 1.609375,-1.453125 0,-0.375 -0.15625,-0.734375 -0.40625,-0.96875 C 3.78125,-4.25 4.140625,-4.296875 4.3125,-4.296875 c 0.03125,0 0.078125,0 0.109375,0.015625 C 4.3125,-4.25 4.25,-4.140625 4.25,-4.015625 c 0,0.171875 0.140625,0.28125 0.296875,0.28125 0.09375,0 0.28125,-0.0625 0.28125,-0.296875 0,-0.171875 -0.109375,-0.484375 -0.5,-0.484375 -0.203125,0 -0.640625,0.0625 -1.0625,0.46875 C 2.84375,-4.375 2.4375,-4.40625 2.21875,-4.40625 c -0.9375,0 -1.625,0.6875 -1.625,1.453125 0,0.4375 0.21875,0.8125 0.46875,1.03125 -0.125,0.140625 -0.3125,0.46875 -0.3125,0.828125 0,0.3125 0.140625,0.6875 0.453125,0.890625 -0.609375,0.15625 -0.921875,0.59375 -0.921875,0.984375 0,0.71875 0.984375,1.265625 2.203125,1.265625 1.171875,0 2.203125,-0.5 2.203125,-1.28125 0,-0.34375 -0.125,-0.859375 -0.640625,-1.140625 -0.53125,-0.265625 -1.109375,-0.265625 -1.71875,-0.265625 -0.25,0 -0.671875,0 -0.75,-0.015625 C 1.265625,-0.703125 1.0625,-1 1.0625,-1.328125 Z M 2.5,1.828125 c -1.015625,0 -1.703125,-0.515625 -1.703125,-1.046875 0,-0.453125 0.375,-0.828125 0.8125,-0.84375 h 0.59375 c 0.859375,0 1.96875,0 1.96875,0.84375 0,0.546875 -0.703125,1.046875 -1.671875,1.046875 z m 0,0"
               id="path76" />
          </g>
        </g>
        <g
           style="fill:#000000;fill-opacity:1;stroke-width:0.620637"
           id="g297">
          <g
             id="use8480"
             transform="translate(139.32706,81.962997)"
             style="stroke-width:0.620637">
            <path
               style="stroke:none;stroke-width:0.620637"
               d="m 1.71875,-3.984375 h 1.4375 v -0.3125 H 1.71875 V -6.125 h -0.25 c 0,0.8125 -0.296875,1.875 -1.28125,1.921875 v 0.21875 h 0.84375 v 2.75 c 0,1.21875 0.9375,1.34375 1.296875,1.34375 0.703125,0 0.984375,-0.703125 0.984375,-1.34375 v -0.5625 h -0.25 V -1.25 c 0,0.734375 -0.296875,1.109375 -0.671875,1.109375 -0.671875,0 -0.671875,-0.90625 -0.671875,-1.078125 z m 0,0"
               id="path75" />
          </g>
          <g
             id="use2989"
             transform="translate(143.20151,81.962997)"
             style="stroke-width:0.620637">
            <path
               style="stroke:none;stroke-width:0.620637"
               d="M 1.765625,-4.40625 0.375,-4.296875 v 0.3125 c 0.640625,0 0.734375,0.0625 0.734375,0.546875 V -0.75 c 0,0.4375 -0.109375,0.4375 -0.78125,0.4375 V 0 C 0.640625,-0.015625 1.1875,-0.03125 1.421875,-0.03125 1.78125,-0.03125 2.125,-0.015625 2.46875,0 v -0.3125 c -0.671875,0 -0.703125,-0.046875 -0.703125,-0.4375 z m 0.03125,-1.734375 c 0,-0.3125 -0.234375,-0.53125 -0.515625,-0.53125 -0.3125,0 -0.53125,0.265625 -0.53125,0.53125 0,0.265625 0.21875,0.53125 0.53125,0.53125 0.28125,0 0.515625,-0.21875 0.515625,-0.53125 z m 0,0"
               id="path73" />
          </g>
          <g
             id="use6149"
             transform="translate(145.96912,81.962997)"
             style="stroke-width:0.620637">
            <path
               style="stroke:none;stroke-width:0.620637"
               d="M 1.09375,-3.421875 V -0.75 c 0,0.4375 -0.109375,0.4375 -0.78125,0.4375 V 0 c 0.359375,-0.015625 0.859375,-0.03125 1.140625,-0.03125 0.25,0 0.765625,0.015625 1.109375,0.03125 v -0.3125 c -0.671875,0 -0.78125,0 -0.78125,-0.4375 V -2.59375 C 1.78125,-3.625 2.5,-4.1875 3.125,-4.1875 c 0.640625,0 0.75,0.53125 0.75,1.109375 V -0.75 c 0,0.4375 -0.109375,0.4375 -0.78125,0.4375 V 0 c 0.34375,-0.015625 0.859375,-0.03125 1.125,-0.03125 0.25,0 0.78125,0.015625 1.109375,0.03125 v -0.3125 c -0.65625,0 -0.765625,0 -0.765625,-0.4375 v -1.84375 c 0,-1.03125 0.703125,-1.59375 1.34375,-1.59375 0.625,0 0.734375,0.53125 0.734375,1.109375 V -0.75 c 0,0.4375 -0.109375,0.4375 -0.78125,0.4375 V 0 c 0.34375,-0.015625 0.859375,-0.03125 1.125,-0.03125 0.265625,0 0.78125,0.015625 1.125,0.03125 v -0.3125 c -0.515625,0 -0.765625,0 -0.78125,-0.296875 v -1.90625 c 0,-0.859375 0,-1.15625 -0.3125,-1.515625 -0.140625,-0.171875 -0.46875,-0.375 -1.046875,-0.375 -0.828125,0 -1.28125,0.59375 -1.4375,0.984375 C 4.390625,-4.296875 3.65625,-4.40625 3.203125,-4.40625 2.46875,-4.40625 2,-3.984375 1.71875,-3.359375 V -4.40625 L 0.3125,-4.296875 v 0.3125 c 0.703125,0 0.78125,0.0625 0.78125,0.5625 z m 0,0"
               id="path63" />
          </g>
          <g
             id="use800"
             transform="translate(154.27095,81.962997)"
             style="stroke-width:0.620637">
            <path
               style="stroke:none;stroke-width:0.620637"
               d="M 1.109375,-2.515625 C 1.171875,-4 2.015625,-4.25 2.359375,-4.25 c 1.015625,0 1.125,1.34375 1.125,1.734375 z m 0,0.21875 h 2.78125 c 0.21875,0 0.25,0 0.25,-0.21875 0,-0.984375 -0.546875,-1.953125 -1.78125,-1.953125 -1.15625,0 -2.078125,1.03125 -2.078125,2.28125 0,1.328125 1.046875,2.296875 2.1875,2.296875 C 3.6875,0.109375 4.140625,-1 4.140625,-1.1875 4.140625,-1.28125 4.0625,-1.3125 4,-1.3125 c -0.078125,0 -0.109375,0.0625 -0.125,0.140625 -0.34375,1.03125 -1.25,1.03125 -1.34375,1.03125 -0.5,0 -0.890625,-0.296875 -1.125,-0.671875 -0.296875,-0.46875 -0.296875,-1.125 -0.296875,-1.484375 z m 0,0"
               id="path70" />
          </g>
        </g>
      </g>
    </g>
  </g>
  <defs
     id="defs61">
    <clipPath
       id="paa9c092238">
      <rect
         x="120.23907"
         y="56.322468"
         width="905.76093"
         height="414.39594"
         id="rect61" />
    </clipPath>
  </defs>
</svg>
