<?xml version="1.0" encoding="utf-8" standalone="no"?>
<!DOCTYPE svg PUBLIC "-//W3C//DTD SVG 1.1//EN"
  "http://www.w3.org/Graphics/SVG/1.1/DTD/svg11.dtd">
<svg xmlns:xlink="http://www.w3.org/1999/xlink" width="1080pt" height="756pt" viewBox="0 0 1080 756" xmlns="http://www.w3.org/2000/svg" version="1.1">
 <metadata>
  <rdf:RDF xmlns:dc="http://purl.org/dc/elements/1.1/" xmlns:cc="http://creativecommons.org/ns#" xmlns:rdf="http://www.w3.org/1999/02/22-rdf-syntax-ns#">
   <cc:Work>
    <dc:type rdf:resource="http://purl.org/dc/dcmitype/StillImage"/>
    <dc:date>2024-07-31T08:55:25.815735</dc:date>
    <dc:format>image/svg+xml</dc:format>
    <dc:creator>
     <cc:Agent>
      <dc:title>Matplotlib v3.9.0, https://matplotlib.org/</dc:title>
     </cc:Agent>
    </dc:creator>
   </cc:Work>
  </rdf:RDF>
 </metadata>
 <defs>
  <style type="text/css">*{stroke-linejoin: round; stroke-linecap: butt}</style>
 </defs>
 <g id="figure_1">
  <g id="patch_1">
   <path d="M 0 756 
L 1080 756 
L 1080 0 
L 0 0 
z
" style="fill: #ffffff"/>
  </g>
  <g id="axes_1">
   <g id="patch_2">
    <path d="M 88.532127 678.237256 
L 1041.12 678.237256 
L 1041.12 38.88 
L 88.532127 38.88 
z
" style="fill: #ffffff"/>
   </g>
   <g id="matplotlib.axis_1">
    <g id="xtick_1">
     <g id="line2d_1">
      <defs>
       <path id="m4b69eac023" d="M 0 0 
L 0 3.5 
" style="stroke: #262626; stroke-width: 0.8"/>
      </defs>
      <g>
       <use xlink:href="#m4b69eac023" x="88.532127" y="678.237256" style="fill: #262626; stroke: #262626; stroke-width: 0.8"/>
      </g>
     </g>
     <g id="text_1">
      <!-- $\mathdefault{0.0}$ -->
      <g style="fill: #262626" transform="translate(67.206064 710.143856) scale(0.36 -0.36)">
       <defs>
        <path id="CMR17-30" d="M 2688 2025 
C 2688 2416 2682 3080 2413 3591 
C 2176 4039 1798 4198 1466 4198 
C 1158 4198 768 4058 525 3597 
C 269 3118 243 2524 243 2025 
C 243 1661 250 1106 448 619 
C 723 -39 1216 -128 1466 -128 
C 1760 -128 2208 -7 2470 600 
C 2662 1042 2688 1559 2688 2025 
z
M 1466 -26 
C 1056 -26 813 325 723 812 
C 653 1188 653 1738 653 2096 
C 653 2588 653 2997 736 3387 
C 858 3929 1216 4096 1466 4096 
C 1728 4096 2067 3923 2189 3400 
C 2272 3036 2278 2607 2278 2096 
C 2278 1680 2278 1169 2202 792 
C 2067 95 1690 -26 1466 -26 
z
" transform="scale(0.015625)"/>
        <path id="CMMI12-3a" d="M 1178 307 
C 1178 492 1024 619 870 619 
C 685 619 557 466 557 313 
C 557 128 710 0 864 0 
C 1050 0 1178 153 1178 307 
z
" transform="scale(0.015625)"/>
       </defs>
       <use xlink:href="#CMR17-30" transform="scale(0.996264)"/>
       <use xlink:href="#CMMI12-3a" transform="translate(45.690477 0) scale(0.996264)"/>
       <use xlink:href="#CMR17-30" transform="translate(72.787654 0) scale(0.996264)"/>
      </g>
     </g>
    </g>
    <g id="xtick_2">
     <g id="line2d_2">
      <g>
       <use xlink:href="#m4b69eac023" x="269.977436" y="678.237256" style="fill: #262626; stroke: #262626; stroke-width: 0.8"/>
      </g>
     </g>
     <g id="text_2">
      <!-- $\mathdefault{0.2}$ -->
      <g style="fill: #262626" transform="translate(248.651373 710.143856) scale(0.36 -0.36)">
       <defs>
        <path id="CMR17-32" d="M 2669 989 
L 2554 989 
C 2490 536 2438 459 2413 420 
C 2381 369 1920 369 1830 369 
L 602 369 
C 832 619 1280 1072 1824 1597 
C 2214 1967 2669 2402 2669 3035 
C 2669 3790 2067 4224 1395 4224 
C 691 4224 262 3604 262 3030 
C 262 2780 448 2748 525 2748 
C 589 2748 781 2787 781 3010 
C 781 3207 614 3264 525 3264 
C 486 3264 448 3258 422 3245 
C 544 3790 915 4058 1306 4058 
C 1862 4058 2227 3617 2227 3035 
C 2227 2479 1901 2000 1536 1584 
L 262 146 
L 262 0 
L 2515 0 
L 2669 989 
z
" transform="scale(0.015625)"/>
       </defs>
       <use xlink:href="#CMR17-30" transform="scale(0.996264)"/>
       <use xlink:href="#CMMI12-3a" transform="translate(45.690477 0) scale(0.996264)"/>
       <use xlink:href="#CMR17-32" transform="translate(72.787654 0) scale(0.996264)"/>
      </g>
     </g>
    </g>
    <g id="xtick_3">
     <g id="line2d_3">
      <g>
       <use xlink:href="#m4b69eac023" x="451.422745" y="678.237256" style="fill: #262626; stroke: #262626; stroke-width: 0.8"/>
      </g>
     </g>
     <g id="text_3">
      <!-- $\mathdefault{0.4}$ -->
      <g style="fill: #262626" transform="translate(430.096682 710.143856) scale(0.36 -0.36)">
       <defs>
        <path id="CMR17-34" d="M 2150 4122 
C 2150 4256 2144 4256 2029 4256 
L 128 1254 
L 128 1088 
L 1779 1088 
L 1779 457 
C 1779 224 1766 160 1318 160 
L 1197 160 
L 1197 0 
C 1402 0 1747 0 1965 0 
C 2182 0 2528 0 2733 0 
L 2733 160 
L 2611 160 
C 2163 160 2150 224 2150 457 
L 2150 1088 
L 2803 1088 
L 2803 1254 
L 2150 1254 
L 2150 4122 
z
M 1798 3703 
L 1798 1254 
L 256 1254 
L 1798 3703 
z
" transform="scale(0.015625)"/>
       </defs>
       <use xlink:href="#CMR17-30" transform="scale(0.996264)"/>
       <use xlink:href="#CMMI12-3a" transform="translate(45.690477 0) scale(0.996264)"/>
       <use xlink:href="#CMR17-34" transform="translate(72.787654 0) scale(0.996264)"/>
      </g>
     </g>
    </g>
    <g id="xtick_4">
     <g id="line2d_4">
      <g>
       <use xlink:href="#m4b69eac023" x="632.868055" y="678.237256" style="fill: #262626; stroke: #262626; stroke-width: 0.8"/>
      </g>
     </g>
     <g id="text_4">
      <!-- $\mathdefault{0.6}$ -->
      <g style="fill: #262626" transform="translate(611.541991 710.143856) scale(0.36 -0.36)">
       <defs>
        <path id="CMR17-36" d="M 678 2176 
C 678 3690 1395 4032 1811 4032 
C 1946 4032 2272 4009 2400 3776 
C 2298 3776 2106 3776 2106 3553 
C 2106 3381 2246 3323 2336 3323 
C 2394 3323 2566 3348 2566 3560 
C 2566 3954 2246 4179 1805 4179 
C 1043 4179 243 3390 243 1984 
C 243 253 966 -128 1478 -128 
C 2099 -128 2688 427 2688 1283 
C 2688 2081 2170 2662 1517 2662 
C 1126 2662 838 2407 678 1960 
L 678 2176 
z
M 1478 25 
C 691 25 691 1200 691 1436 
C 691 1896 909 2560 1504 2560 
C 1613 2560 1926 2560 2138 2120 
C 2253 1870 2253 1609 2253 1289 
C 2253 944 2253 690 2118 434 
C 1978 171 1773 25 1478 25 
z
" transform="scale(0.015625)"/>
       </defs>
       <use xlink:href="#CMR17-30" transform="scale(0.996264)"/>
       <use xlink:href="#CMMI12-3a" transform="translate(45.690477 0) scale(0.996264)"/>
       <use xlink:href="#CMR17-36" transform="translate(72.787654 0) scale(0.996264)"/>
      </g>
     </g>
    </g>
    <g id="xtick_5">
     <g id="line2d_5">
      <g>
       <use xlink:href="#m4b69eac023" x="814.313364" y="678.237256" style="fill: #262626; stroke: #262626; stroke-width: 0.8"/>
      </g>
     </g>
     <g id="text_5">
      <!-- $\mathdefault{0.8}$ -->
      <g style="fill: #262626" transform="translate(792.9873 710.143856) scale(0.36 -0.36)">
       <defs>
        <path id="CMR17-38" d="M 1741 2264 
C 2144 2467 2554 2773 2554 3263 
C 2554 3841 1990 4179 1472 4179 
C 890 4179 378 3759 378 3180 
C 378 3021 416 2747 666 2505 
C 730 2442 998 2251 1171 2130 
C 883 1983 211 1634 211 934 
C 211 279 838 -128 1459 -128 
C 2144 -128 2720 362 2720 1010 
C 2720 1590 2330 1857 2074 2029 
L 1741 2264 
z
M 902 2822 
C 851 2854 595 3051 595 3351 
C 595 3739 998 4032 1459 4032 
C 1965 4032 2336 3676 2336 3262 
C 2336 2669 1670 2331 1638 2331 
C 1632 2331 1626 2331 1574 2370 
L 902 2822 
z
M 2080 1519 
C 2176 1449 2483 1240 2483 851 
C 2483 381 2010 25 1472 25 
C 890 25 448 438 448 940 
C 448 1443 838 1862 1280 2060 
L 2080 1519 
z
" transform="scale(0.015625)"/>
       </defs>
       <use xlink:href="#CMR17-30" transform="scale(0.996264)"/>
       <use xlink:href="#CMMI12-3a" transform="translate(45.690477 0) scale(0.996264)"/>
       <use xlink:href="#CMR17-38" transform="translate(72.787654 0) scale(0.996264)"/>
      </g>
     </g>
    </g>
    <g id="xtick_6">
     <g id="line2d_6">
      <g>
       <use xlink:href="#m4b69eac023" x="995.758673" y="678.237256" style="fill: #262626; stroke: #262626; stroke-width: 0.8"/>
      </g>
     </g>
     <g id="text_6">
      <!-- $\mathdefault{1.0}$ -->
      <g style="fill: #262626" transform="translate(974.432609 710.143856) scale(0.36 -0.36)">
       <defs>
        <path id="CMR17-31" d="M 1702 4058 
C 1702 4192 1696 4192 1606 4192 
C 1357 3916 979 3827 621 3827 
C 602 3827 570 3827 563 3808 
C 557 3795 557 3782 557 3648 
C 755 3648 1088 3686 1344 3839 
L 1344 461 
C 1344 236 1331 160 781 160 
L 589 160 
L 589 0 
C 896 0 1216 0 1523 0 
C 1830 0 2150 0 2458 0 
L 2458 160 
L 2266 160 
C 1715 160 1702 230 1702 458 
L 1702 4058 
z
" transform="scale(0.015625)"/>
       </defs>
       <use xlink:href="#CMR17-31" transform="scale(0.996264)"/>
       <use xlink:href="#CMMI12-3a" transform="translate(45.690477 0) scale(0.996264)"/>
       <use xlink:href="#CMR17-30" transform="translate(72.787654 0) scale(0.996264)"/>
      </g>
     </g>
    </g>
   </g>
   <g id="matplotlib.axis_2">
    <g id="ytick_1">
     <g id="line2d_7">
      <defs>
       <path id="me99b2a46eb" d="M 0 0 
L -3.5 0 
" style="stroke: #262626; stroke-width: 0.8"/>
      </defs>
      <g>
       <use xlink:href="#me99b2a46eb" x="88.532127" y="678.237256" style="fill: #262626; stroke: #262626; stroke-width: 0.8"/>
      </g>
     </g>
     <g id="text_7">
      <!-- $\mathdefault{0.0}$ -->
      <g style="fill: #262626" transform="translate(38.88 690.690556) scale(0.36 -0.36)">
       <use xlink:href="#CMR17-30" transform="scale(0.996264)"/>
       <use xlink:href="#CMMI12-3a" transform="translate(45.690477 0) scale(0.996264)"/>
       <use xlink:href="#CMR17-30" transform="translate(72.787654 0) scale(0.996264)"/>
      </g>
     </g>
    </g>
    <g id="ytick_2">
     <g id="line2d_8">
      <g>
       <use xlink:href="#me99b2a46eb" x="88.532127" y="678.205315" style="fill: #262626; stroke: #262626; stroke-width: 0.8"/>
      </g>
     </g>
     <g id="text_8">
      <!-- $\mathdefault{0.2}$ -->
      <g style="fill: #262626" transform="translate(38.88 690.658615) scale(0.36 -0.36)">
       <use xlink:href="#CMR17-30" transform="scale(0.996264)"/>
       <use xlink:href="#CMMI12-3a" transform="translate(45.690477 0) scale(0.996264)"/>
       <use xlink:href="#CMR17-32" transform="translate(72.787654 0) scale(0.996264)"/>
      </g>
     </g>
    </g>
    <g id="ytick_3">
     <g id="line2d_9">
      <g>
       <use xlink:href="#me99b2a46eb" x="88.532127" y="678.173374" style="fill: #262626; stroke: #262626; stroke-width: 0.8"/>
      </g>
     </g>
     <g id="text_9">
      <!-- $\mathdefault{0.4}$ -->
      <g style="fill: #262626" transform="translate(38.88 690.626674) scale(0.36 -0.36)">
       <use xlink:href="#CMR17-30" transform="scale(0.996264)"/>
       <use xlink:href="#CMMI12-3a" transform="translate(45.690477 0) scale(0.996264)"/>
       <use xlink:href="#CMR17-34" transform="translate(72.787654 0) scale(0.996264)"/>
      </g>
     </g>
    </g>
    <g id="ytick_4">
     <g id="line2d_10">
      <g>
       <use xlink:href="#me99b2a46eb" x="88.532127" y="678.141433" style="fill: #262626; stroke: #262626; stroke-width: 0.8"/>
      </g>
     </g>
     <g id="text_10">
      <!-- $\mathdefault{0.6}$ -->
      <g style="fill: #262626" transform="translate(38.88 690.594733) scale(0.36 -0.36)">
       <use xlink:href="#CMR17-30" transform="scale(0.996264)"/>
       <use xlink:href="#CMMI12-3a" transform="translate(45.690477 0) scale(0.996264)"/>
       <use xlink:href="#CMR17-36" transform="translate(72.787654 0) scale(0.996264)"/>
      </g>
     </g>
    </g>
    <g id="ytick_5">
     <g id="line2d_11">
      <g>
       <use xlink:href="#me99b2a46eb" x="88.532127" y="678.109492" style="fill: #262626; stroke: #262626; stroke-width: 0.8"/>
      </g>
     </g>
     <g id="text_11">
      <!-- $\mathdefault{0.8}$ -->
      <g style="fill: #262626" transform="translate(38.88 690.562792) scale(0.36 -0.36)">
       <use xlink:href="#CMR17-30" transform="scale(0.996264)"/>
       <use xlink:href="#CMMI12-3a" transform="translate(45.690477 0) scale(0.996264)"/>
       <use xlink:href="#CMR17-38" transform="translate(72.787654 0) scale(0.996264)"/>
      </g>
     </g>
    </g>
    <g id="ytick_6">
     <g id="line2d_12">
      <g>
       <use xlink:href="#me99b2a46eb" x="88.532127" y="678.07755" style="fill: #262626; stroke: #262626; stroke-width: 0.8"/>
      </g>
     </g>
     <g id="text_12">
      <!-- $\mathdefault{1.0}$ -->
      <g style="fill: #262626" transform="translate(38.88 690.530851) scale(0.36 -0.36)">
       <use xlink:href="#CMR17-31" transform="scale(0.996264)"/>
       <use xlink:href="#CMMI12-3a" transform="translate(45.690477 0) scale(0.996264)"/>
       <use xlink:href="#CMR17-30" transform="translate(72.787654 0) scale(0.996264)"/>
      </g>
     </g>
    </g>
    <g id="ytick_7">
     <g id="line2d_13">
      <g>
       <use xlink:href="#me99b2a46eb" x="88.532127" y="678.045609" style="fill: #262626; stroke: #262626; stroke-width: 0.8"/>
      </g>
     </g>
     <g id="text_13">
      <!-- $\mathdefault{1.2}$ -->
      <g style="fill: #262626" transform="translate(38.88 690.498909) scale(0.36 -0.36)">
       <use xlink:href="#CMR17-31" transform="scale(0.996264)"/>
       <use xlink:href="#CMMI12-3a" transform="translate(45.690477 0) scale(0.996264)"/>
       <use xlink:href="#CMR17-32" transform="translate(72.787654 0) scale(0.996264)"/>
      </g>
     </g>
    </g>
   </g>
   <g id="line2d_14">
    <path d="M 88.532127 678.237256 
L 995.758673 678.237256 
L 995.758673 678.237256 
" clip-path="url(#p25d86199d7)" style="fill: none; stroke: #1f77b4; stroke-width: 5; stroke-linecap: round"/>
   </g>
   <g id="line2d_15">
    <path d="M 88.532127 660.510209 
L 136.917543 662.255753 
L 191.351136 663.98437 
L 251.832905 665.657463 
L 312.314675 667.110555 
L 378.844622 668.495239 
L 451.422745 669.79167 
L 536.097223 671.070333 
L 626.819878 672.211612 
L 729.638886 673.274485 
L 844.554248 674.231844 
L 977.614142 675.103651 
L 995.758673 675.206234 
L 995.758673 675.206234 
" clip-path="url(#p25d86199d7)" style="fill: none; stroke: #ff7f0e; stroke-width: 5; stroke-linecap: round"/>
   </g>
   <g id="line2d_16">
    <path d="M 88.532127 638.675923 
L 112.724835 641.097341 
L 136.917543 643.326739 
L 167.158428 645.874016 
L 197.399313 648.186306 
L 227.640198 650.291905 
L 263.929259 652.579273 
L 300.218321 654.638156 
L 342.55556 656.789871 
L 384.892799 658.708172 
L 433.278215 660.6549 
L 481.66363 662.376483 
L 536.097223 664.083391 
L 596.578993 665.737313 
L 663.108939 667.308412 
L 735.687063 668.774996 
L 814.313364 670.122767 
L 898.987841 671.343817 
L 995.758673 672.501422 
L 995.758673 672.501422 
" clip-path="url(#p25d86199d7)" style="fill: none; stroke: #2ca02c; stroke-width: 5; stroke-linecap: round"/>
   </g>
   <g id="line2d_17">
    <path d="M 88.532127 611.568962 
L 106.676658 615.316412 
L 124.821189 618.767725 
L 142.96572 621.955081 
L 161.110251 624.906173 
L 179.254782 627.644968 
L 197.399313 630.19232 
L 221.592021 633.322149 
L 245.784728 636.180942 
L 269.977436 638.800169 
L 294.170144 641.20663 
L 318.362852 643.42331 
L 348.603737 645.957212 
L 378.844622 648.258368 
L 409.085507 650.354607 
L 445.374568 652.632596 
L 481.66363 654.683702 
L 524.000869 656.827926 
L 566.338108 658.740067 
L 614.723524 660.681026 
L 663.108939 662.397897 
L 717.542532 664.100492 
L 778.024302 665.750572 
L 844.554248 667.318334 
L 917.132372 668.78209 
L 995.758673 670.127519 
L 995.758673 670.127519 
" clip-path="url(#p25d86199d7)" style="fill: none; stroke: #d62728; stroke-width: 5; stroke-linecap: round"/>
   </g>
   <g id="line2d_18">
    <path d="M 88.532127 577.55914 
L 100.628481 582.236341 
L 112.724835 586.584955 
L 124.821189 590.637666 
L 136.917543 594.42294 
L 149.013897 597.965703 
L 161.110251 601.287852 
L 173.206605 604.408733 
L 185.302959 607.345499 
L 197.399313 610.113386 
L 215.543844 613.977956 
L 233.688375 617.532955 
L 251.832905 620.812589 
L 269.977436 623.846215 
L 288.121967 626.659146 
L 306.266498 629.273367 
L 324.411029 631.708032 
L 348.603737 634.703649 
L 372.796445 637.443982 
L 396.989153 639.958165 
L 421.181861 642.271091 
L 451.422745 644.911531 
L 481.66363 647.306246 
L 511.904515 649.485085 
L 548.193577 651.85001 
L 584.482639 653.976891 
L 620.771701 655.896236 
L 663.108939 657.907086 
L 705.446178 659.704081 
L 753.831594 661.531828 
L 808.265187 663.340997 
L 862.698779 664.927204 
L 923.180549 666.467847 
L 989.710496 667.934712 
L 995.758673 668.057579 
L 995.758673 668.057579 
" clip-path="url(#p25d86199d7)" style="fill: none; stroke: #9467bd; stroke-width: 5; stroke-linecap: round"/>
   </g>
   <g id="line2d_19">
    <path d="M 88.532127 534.507663 
L 94.580304 538.704389 
L 100.628481 542.703006 
L 106.676658 546.517074 
L 112.724835 550.158981 
L 118.773012 553.640006 
L 124.821189 556.970445 
L 130.869366 560.159764 
L 142.96572 566.148945 
L 155.062074 571.66889 
L 167.158428 576.77179 
L 179.254782 581.502321 
L 191.351136 585.899007 
L 203.44749 589.995194 
L 215.543844 593.819922 
L 227.640198 597.398604 
L 239.736552 600.753561 
L 251.832905 603.904492 
L 263.929259 606.868854 
L 276.025613 609.662154 
L 294.170144 613.561225 
L 312.314675 617.146972 
L 330.459206 620.454134 
L 348.603737 623.512503 
L 366.748268 626.347774 
L 384.892799 628.982233 
L 403.03733 631.4353 
L 427.230038 634.452962 
L 451.422745 637.212892 
L 475.615453 639.74458 
L 499.808161 642.073209 
L 530.049046 644.73111 
L 560.289931 647.141234 
L 590.530816 649.333737 
L 626.819878 651.713119 
L 663.108939 653.852666 
L 699.398001 655.78317 
L 741.73524 657.805439 
L 784.072479 659.612402 
L 832.457895 661.45006 
L 886.891487 663.268816 
L 941.32508 664.863249 
L 995.758673 666.266398 
L 995.758673 666.266398 
" clip-path="url(#p25d86199d7)" style="fill: none; stroke: #8c564b; stroke-width: 5; stroke-linecap: round"/>
   </g>
   <g id="line2d_20">
    <path d="M 88.532127 479.663128 
L 94.580304 486.834059 
L 100.628481 493.571468 
L 106.676658 499.913365 
L 112.724835 505.893496 
L 118.773012 511.541819 
L 124.821189 516.885046 
L 130.869366 521.947127 
L 136.917543 526.749485 
L 142.96572 531.311498 
L 149.013897 535.65058 
L 155.062074 539.782521 
L 161.110251 543.721665 
L 167.158428 547.481029 
L 173.206605 551.072481 
L 179.254782 554.506898 
L 185.302959 557.7942 
L 191.351136 560.943491 
L 203.44749 566.860865 
L 215.543844 572.318378 
L 227.640198 577.366658 
L 239.736552 582.049138 
L 251.832905 586.40331 
L 263.929259 590.461712 
L 276.025613 594.252701 
L 288.121967 597.801117 
L 300.218321 601.128833 
L 312.314675 604.255153 
L 324.411029 607.19719 
L 336.507383 609.970187 
L 354.651914 613.842075 
L 372.796445 617.403991 
L 390.940976 620.690131 
L 409.085507 623.729868 
L 427.230038 626.548542 
L 445.374568 629.168146 
L 463.519099 631.607866 
L 487.711807 634.609744 
L 511.904515 637.355837 
L 536.097223 639.875324 
L 560.289931 642.19314 
L 590.530816 644.839171 
L 620.771701 647.238961 
L 651.012585 649.422411 
L 687.301647 651.792339 
L 723.590709 653.923713 
L 759.879771 655.847103 
L 802.21701 657.862185 
L 844.554248 659.662951 
L 892.939664 661.494527 
L 947.373257 663.30748 
L 995.758673 664.730345 
L 995.758673 664.730345 
" clip-path="url(#p25d86199d7)" style="fill: none; stroke: #e377c2; stroke-width: 5; stroke-linecap: round"/>
   </g>
   <g id="line2d_21">
    <path d="M 88.532127 409.140569 
L 94.580304 421.202661 
L 100.628481 432.338315 
L 106.676658 442.650154 
L 112.724835 452.226264 
L 118.773012 461.142494 
L 124.821189 469.464575 
L 130.869366 477.249812 
L 136.917543 484.548252 
L 142.96572 491.404007 
L 149.013897 497.855899 
L 155.062074 503.938362 
L 161.110251 509.682034 
L 167.158428 515.114212 
L 173.206605 520.259336 
L 179.254782 525.139385 
L 185.302959 529.774109 
L 191.351136 534.18134 
L 197.399313 538.377229 
L 203.44749 542.376441 
L 209.495667 546.192293 
L 215.543844 549.836923 
L 221.592021 553.321442 
L 227.640198 556.655999 
L 233.688375 559.849908 
L 245.784728 565.849335 
L 257.881082 571.380388 
L 269.977436 576.494816 
L 282.07379 581.236974 
L 294.170144 585.645159 
L 306.266498 589.752584 
L 318.362852 593.588198 
L 330.459206 597.177349 
L 342.55556 600.542322 
L 354.651914 603.702809 
L 366.748268 606.676258 
L 378.844622 609.478188 
L 396.989153 613.389367 
L 415.133684 616.986271 
L 433.278215 620.303707 
L 451.422745 623.37153 
L 469.567276 626.215505 
L 487.711807 628.857982 
L 505.856338 631.318437 
L 530.049046 634.345074 
L 554.241754 637.113086 
L 578.434462 639.652066 
L 602.62717 641.987291 
L 632.868055 644.652574 
L 663.108939 647.069252 
L 693.349824 649.267596 
L 729.638886 651.653176 
L 765.927948 653.798168 
L 802.21701 655.733477 
L 844.554248 657.760665 
L 886.891487 659.571924 
L 935.276903 661.413855 
L 989.710496 663.236744 
L 995.758673 663.424739 
L 995.758673 663.424739 
" clip-path="url(#p25d86199d7)" style="fill: none; stroke: #7f7f7f; stroke-width: 5; stroke-linecap: round"/>
   </g>
   <g id="line2d_22">
    <path d="M 88.532127 317.839458 
L 94.580304 337.841578 
L 100.628481 355.972964 
L 106.676658 372.459184 
L 112.724835 387.509462 
L 118.773012 401.285623 
L 124.821189 413.940155 
L 130.869366 425.604426 
L 136.917543 436.38989 
L 142.96572 446.392013 
L 149.013897 455.692756 
L 155.062074 464.363062 
L 161.110251 472.464632 
L 167.158428 480.051305 
L 173.206605 487.170341 
L 179.254782 493.863415 
L 185.302959 500.167348 
L 191.351136 506.114828 
L 197.399313 511.734994 
L 203.44749 517.053894 
L 209.495667 522.094866 
L 215.543844 526.878886 
L 221.592021 531.4249 
L 227.640198 535.750012 
L 233.688375 539.86973 
L 239.736552 543.798146 
L 245.784728 547.548083 
L 251.832905 551.131241 
L 257.881082 554.558336 
L 263.929259 557.83917 
L 269.977436 560.982742 
L 282.07379 566.890539 
L 294.170144 572.340489 
L 306.266498 577.382766 
L 318.362852 582.06047 
L 330.459206 586.410828 
L 342.55556 590.46616 
L 354.651914 594.254684 
L 366.748268 597.801127 
L 378.844622 601.127252 
L 390.940976 604.252286 
L 403.03733 607.193298 
L 415.133684 609.965462 
L 433.278215 613.836418 
L 451.422745 617.39767 
L 469.567276 620.683357 
L 487.711807 623.722793 
L 505.856338 626.541282 
L 524.000869 629.160791 
L 542.1454 631.600477 
L 566.338108 634.602377 
L 590.530816 637.348555 
L 614.723524 639.868167 
L 638.916232 642.186132 
L 669.157116 644.832369 
L 699.398001 647.232378 
L 729.638886 649.416051 
L 765.927948 651.786247 
L 802.21701 653.917883 
L 838.506072 655.841522 
L 880.84331 657.856884 
L 923.180549 659.657916 
L 971.565965 661.489777 
L 995.758673 662.325644 
L 995.758673 662.325644 
" clip-path="url(#p25d86199d7)" style="fill: none; stroke: #bcbd22; stroke-width: 5; stroke-linecap: round"/>
   </g>
   <g id="line2d_23">
    <path d="M 88.532127 203.498684 
L 94.580304 234.410407 
L 100.628481 262.270742 
L 106.676658 287.4517 
L 112.724835 310.282895 
L 118.773012 330.936989 
L 124.821189 349.687514 
L 130.869366 366.736745 
L 136.917543 382.266854 
L 142.96572 396.464665 
L 149.013897 409.49233 
L 155.062074 421.488343 
L 161.110251 432.570176 
L 167.158428 442.838036 
L 173.206605 452.378006 
L 179.254782 461.264469 
L 185.302959 469.56196 
L 191.351136 477.326771 
L 197.399313 484.608255 
L 203.44749 491.449857 
L 209.495667 497.889939 
L 215.543844 503.96252 
L 221.592021 509.697911 
L 227.640198 515.123154 
L 233.688375 520.262478 
L 239.736552 525.137656 
L 245.784728 529.768294 
L 251.832905 534.172105 
L 257.881082 538.365147 
L 263.929259 542.361983 
L 269.977436 546.175865 
L 276.025613 549.81887 
L 282.07379 553.302051 
L 288.121967 556.635511 
L 294.170144 559.828546 
L 306.266498 565.826726 
L 318.362852 571.35707 
L 330.459206 576.471161 
L 342.55556 581.213263 
L 354.651914 585.621598 
L 366.748268 589.72932 
L 378.844622 593.565332 
L 390.940976 597.154945 
L 403.03733 600.520437 
L 415.133684 603.681464 
L 427.230038 606.655474 
L 439.326392 609.457961 
L 457.470922 613.36999 
L 475.615453 616.96772 
L 493.759984 620.285955 
L 511.904515 623.354545 
L 530.049046 626.199251 
L 548.193577 628.84242 
L 566.338108 631.303531 
L 590.530816 634.330991 
L 614.723524 637.099765 
L 638.916232 639.639452 
L 663.108939 641.975328 
L 693.349824 644.641367 
L 723.590709 647.058733 
L 753.831594 649.257704 
L 790.120656 651.643971 
L 826.409718 653.789584 
L 862.698779 655.725455 
L 905.036018 657.753239 
L 947.373257 659.565032 
L 995.758673 661.407512 
L 995.758673 661.407512 
" clip-path="url(#p25d86199d7)" style="fill: none; stroke: #17becf; stroke-width: 5; stroke-linecap: round"/>
   </g>
   <g id="line2d_24">
    <path d="M 88.532127 69.325584 
L 94.580304 113.437557 
L 100.628481 153.071916 
L 106.676658 188.782738 
L 112.724835 221.056607 
L 118.773012 250.154624 
L 124.821189 276.479999 
L 130.869366 300.317119 
L 136.917543 321.920771 
L 142.96572 341.509434 
L 149.013897 359.302687 
L 155.062074 375.482497 
L 161.110251 390.247006 
L 167.158428 403.773542 
L 173.206605 416.210997 
L 179.254782 427.685345 
L 185.302959 438.303781 
L 191.351136 448.158146 
L 197.399313 457.32761 
L 203.44749 465.880777 
L 209.495667 473.87735 
L 215.543844 481.369551 
L 221.592021 488.403306 
L 227.640198 495.019096 
L 233.688375 501.252775 
L 239.736552 507.136221 
L 245.784728 512.697843 
L 251.832905 517.963061 
L 257.881082 522.954705 
L 263.929259 527.693303 
L 269.977436 532.197377 
L 276.025613 536.483677 
L 282.07379 540.567417 
L 288.121967 544.4624 
L 294.170144 548.18124 
L 300.218321 551.735408 
L 306.266498 555.135433 
L 312.314675 558.39095 
L 318.362852 561.510804 
L 330.459206 567.375476 
L 342.55556 572.787279 
L 354.651914 577.795651 
L 366.748268 582.443081 
L 378.844622 586.766294 
L 390.940976 590.797194 
L 403.03733 594.563648 
L 415.133684 598.090075 
L 427.230038 601.398006 
L 439.326392 604.506442 
L 451.422745 607.432278 
L 463.519099 610.190531 
L 481.66363 614.042684 
L 499.808161 617.587288 
L 517.952692 620.858162 
L 536.097223 623.884356 
L 554.241754 626.690965 
L 572.386285 629.299775 
L 590.530816 631.729791 
L 614.723524 634.72019 
L 638.916232 637.45622 
L 663.108939 639.966835 
L 687.301647 642.276792 
L 717.542532 644.914202 
L 747.783417 647.306491 
L 778.024302 649.483378 
L 814.313364 651.846465 
L 850.602425 653.971934 
L 886.891487 655.890198 
L 929.228726 657.900116 
L 971.565965 659.696449 
L 995.758673 660.638042 
L 995.758673 660.638042 
" clip-path="url(#p25d86199d7)" style="fill: none; stroke: #17becf; stroke-width: 5; stroke-linecap: round"/>
   </g>
   <g id="patch_3">
    <path d="M 88.532127 678.237256 
L 88.532127 38.88 
" style="fill: none; stroke: #262626; stroke-width: 0.8; stroke-linejoin: miter; stroke-linecap: square"/>
   </g>
   <g id="patch_4">
    <path d="M 88.532127 678.237256 
L 1041.12 678.237256 
" style="fill: none; stroke: #262626; stroke-width: 0.8; stroke-linejoin: miter; stroke-linecap: square"/>
   </g>
  </g>
 </g>
 <defs>
  <clipPath id="p25d86199d7">
   <rect x="88.532127" y="38.88" width="952.587873" height="639.357256"/>
  </clipPath>
 </defs>
</svg>
