<?xml version="1.0" encoding="utf-8" standalone="no"?>
<!DOCTYPE svg PUBLIC "-//W3C//DTD SVG 1.1//EN"
  "http://www.w3.org/Graphics/SVG/1.1/DTD/svg11.dtd">
<svg xmlns:xlink="http://www.w3.org/1999/xlink" width="1080pt" height="576pt" viewBox="0 0 1080 576" xmlns="http://www.w3.org/2000/svg" version="1.1">
 <metadata>
  <rdf:RDF xmlns:dc="http://purl.org/dc/elements/1.1/" xmlns:cc="http://creativecommons.org/ns#" xmlns:rdf="http://www.w3.org/1999/02/22-rdf-syntax-ns#">
   <cc:Work>
    <dc:type rdf:resource="http://purl.org/dc/dcmitype/StillImage"/>
    <dc:date>2024-07-18T10:19:12.668741</dc:date>
    <dc:format>image/svg+xml</dc:format>
    <dc:creator>
     <cc:Agent>
      <dc:title>Matplotlib v3.9.0, https://matplotlib.org/</dc:title>
     </cc:Agent>
    </dc:creator>
   </cc:Work>
  </rdf:RDF>
 </metadata>
 <defs>
  <style type="text/css">*{stroke-linejoin: round; stroke-linecap: butt}</style>
 </defs>
 <g id="figure_1">
  <g id="patch_1">
   <path d="M 0 576 
L 1080 576 
L 1080 0 
L 0 0 
z
" style="fill: #ffffff"/>
  </g>
  <g id="axes_1">
   <g id="patch_2">
    <path d="M 93.254908 515.449571 
L 560.786376 515.449571 
L 560.786376 19.44 
L 93.254908 19.44 
z
" style="fill: #eaeaf2"/>
   </g>
   <g id="matplotlib.axis_1">
    <g id="xtick_1">
     <g id="line2d_1">
      <path d="M 539.534945 515.449571 
L 539.534945 19.44 
" clip-path="url(#pc35a5060b2)" style="fill: none; stroke: #ffffff; stroke-width: 0.8; stroke-linecap: round"/>
     </g>
     <g id="text_1">
      <!-- $\mathdefault{10^{0}}$ -->
      <g style="fill: #262626" transform="translate(528.941424 533.519159) scale(0.16 -0.16)">
       <defs>
        <path id="CMR17-31" d="M 1702 4058 
C 1702 4192 1696 4192 1606 4192 
C 1357 3916 979 3827 621 3827 
C 602 3827 570 3827 563 3808 
C 557 3795 557 3782 557 3648 
C 755 3648 1088 3686 1344 3839 
L 1344 461 
C 1344 236 1331 160 781 160 
L 589 160 
L 589 0 
C 896 0 1216 0 1523 0 
C 1830 0 2150 0 2458 0 
L 2458 160 
L 2266 160 
C 1715 160 1702 230 1702 458 
L 1702 4058 
z
" transform="scale(0.015625)"/>
        <path id="CMR17-30" d="M 2688 2025 
C 2688 2416 2682 3080 2413 3591 
C 2176 4039 1798 4198 1466 4198 
C 1158 4198 768 4058 525 3597 
C 269 3118 243 2524 243 2025 
C 243 1661 250 1106 448 619 
C 723 -39 1216 -128 1466 -128 
C 1760 -128 2208 -7 2470 600 
C 2662 1042 2688 1559 2688 2025 
z
M 1466 -26 
C 1056 -26 813 325 723 812 
C 653 1188 653 1738 653 2096 
C 653 2588 653 2997 736 3387 
C 858 3929 1216 4096 1466 4096 
C 1728 4096 2067 3923 2189 3400 
C 2272 3036 2278 2607 2278 2096 
C 2278 1680 2278 1169 2202 792 
C 2067 95 1690 -26 1466 -26 
z
" transform="scale(0.015625)"/>
       </defs>
       <use xlink:href="#CMR17-31" transform="scale(0.996264)"/>
       <use xlink:href="#CMR17-30" transform="translate(45.690477 0) scale(0.996264)"/>
       <use xlink:href="#CMR17-30" transform="translate(91.380954 36.153639) scale(0.697382)"/>
      </g>
     </g>
    </g>
    <g id="xtick_2">
     <g id="text_2">
      <!-- $\mathdefault{3\times10^{-1}}$ -->
      <g style="fill: #262626" transform="translate(85.930294 532.053817) scale(0.16 -0.16)">
       <defs>
        <path id="CMR17-33" d="M 1414 2157 
C 1984 2157 2234 1662 2234 1090 
C 2234 320 1824 25 1453 25 
C 1114 25 563 194 390 693 
C 422 680 454 680 486 680 
C 640 680 755 782 755 948 
C 755 1133 614 1216 486 1216 
C 378 1216 211 1165 211 926 
C 211 335 787 -128 1466 -128 
C 2176 -128 2720 430 2720 1085 
C 2720 1707 2208 2157 1600 2227 
C 2086 2328 2554 2756 2554 3329 
C 2554 3820 2048 4179 1472 4179 
C 890 4179 378 3829 378 3329 
C 378 3110 544 3072 627 3072 
C 762 3072 877 3155 877 3321 
C 877 3486 762 3569 627 3569 
C 602 3569 570 3569 544 3557 
C 730 3959 1235 4032 1459 4032 
C 1683 4032 2106 3925 2106 3320 
C 2106 3143 2080 2828 1862 2550 
C 1670 2304 1453 2304 1242 2284 
C 1210 2284 1062 2269 1037 2269 
C 992 2263 966 2257 966 2208 
C 966 2163 973 2157 1101 2157 
L 1414 2157 
z
" transform="scale(0.015625)"/>
        <path id="CMSY10-2" d="M 2490 1785 
L 1210 3059 
C 1133 3136 1120 3148 1069 3148 
C 1005 3148 941 3091 941 3020 
C 941 2976 954 2963 1024 2892 
L 2304 1606 
L 1024 320 
C 954 249 941 236 941 192 
C 941 121 1005 64 1069 64 
C 1120 64 1133 76 1210 153 
L 2483 1427 
L 3808 102 
C 3821 96 3866 64 3904 64 
C 3981 64 4032 121 4032 192 
C 4032 204 4032 230 4013 262 
C 4006 275 2989 1280 2669 1606 
L 3840 2777 
C 3872 2816 3968 2899 4000 2937 
C 4006 2950 4032 2976 4032 3020 
C 4032 3091 3981 3148 3904 3148 
C 3853 3148 3827 3123 3757 3052 
L 2490 1785 
z
" transform="scale(0.015625)"/>
        <path id="CMSY10-0" d="M 4218 1472 
C 4326 1472 4442 1472 4442 1600 
C 4442 1728 4326 1728 4218 1728 
L 755 1728 
C 646 1728 531 1728 531 1600 
C 531 1472 646 1472 755 1472 
L 4218 1472 
z
" transform="scale(0.015625)"/>
       </defs>
       <use xlink:href="#CMR17-33" transform="scale(0.996264)"/>
       <use xlink:href="#CMSY10-2" transform="translate(67.829684 0) scale(0.996264)"/>
       <use xlink:href="#CMR17-31" transform="translate(167.456359 0) scale(0.996264)"/>
       <use xlink:href="#CMR17-30" transform="translate(213.146836 0) scale(0.996264)"/>
       <use xlink:href="#CMSY10-0" transform="translate(258.837313 36.153639) scale(0.697382)"/>
       <use xlink:href="#CMR17-31" transform="translate(313.078306 36.153639) scale(0.697382)"/>
      </g>
     </g>
    </g>
    <g id="xtick_3">
     <g id="text_3">
      <!-- $\mathdefault{4\times10^{-1}}$ -->
      <g style="fill: #262626" transform="translate(187.488327 532.053817) scale(0.16 -0.16)">
       <defs>
        <path id="CMR17-34" d="M 2150 4122 
C 2150 4256 2144 4256 2029 4256 
L 128 1254 
L 128 1088 
L 1779 1088 
L 1779 457 
C 1779 224 1766 160 1318 160 
L 1197 160 
L 1197 0 
C 1402 0 1747 0 1965 0 
C 2182 0 2528 0 2733 0 
L 2733 160 
L 2611 160 
C 2163 160 2150 224 2150 457 
L 2150 1088 
L 2803 1088 
L 2803 1254 
L 2150 1254 
L 2150 4122 
z
M 1798 3703 
L 1798 1254 
L 256 1254 
L 1798 3703 
z
" transform="scale(0.015625)"/>
       </defs>
       <use xlink:href="#CMR17-34" transform="scale(0.996264)"/>
       <use xlink:href="#CMSY10-2" transform="translate(67.829684 0) scale(0.996264)"/>
       <use xlink:href="#CMR17-31" transform="translate(167.456359 0) scale(0.996264)"/>
       <use xlink:href="#CMR17-30" transform="translate(213.146836 0) scale(0.996264)"/>
       <use xlink:href="#CMSY10-0" transform="translate(258.837313 36.153639) scale(0.697382)"/>
       <use xlink:href="#CMR17-31" transform="translate(313.078306 36.153639) scale(0.697382)"/>
      </g>
     </g>
    </g>
    <g id="xtick_4"/>
    <g id="xtick_5">
     <g id="text_4">
      <!-- $\mathdefault{6\times10^{-1}}$ -->
      <g style="fill: #262626" transform="translate(330.626336 532.053817) scale(0.16 -0.16)">
       <defs>
        <path id="CMR17-36" d="M 678 2176 
C 678 3690 1395 4032 1811 4032 
C 1946 4032 2272 4009 2400 3776 
C 2298 3776 2106 3776 2106 3553 
C 2106 3381 2246 3323 2336 3323 
C 2394 3323 2566 3348 2566 3560 
C 2566 3954 2246 4179 1805 4179 
C 1043 4179 243 3390 243 1984 
C 243 253 966 -128 1478 -128 
C 2099 -128 2688 427 2688 1283 
C 2688 2081 2170 2662 1517 2662 
C 1126 2662 838 2407 678 1960 
L 678 2176 
z
M 1478 25 
C 691 25 691 1200 691 1436 
C 691 1896 909 2560 1504 2560 
C 1613 2560 1926 2560 2138 2120 
C 2253 1870 2253 1609 2253 1289 
C 2253 944 2253 690 2118 434 
C 1978 171 1773 25 1478 25 
z
" transform="scale(0.015625)"/>
       </defs>
       <use xlink:href="#CMR17-36" transform="scale(0.996264)"/>
       <use xlink:href="#CMSY10-2" transform="translate(67.829684 0) scale(0.996264)"/>
       <use xlink:href="#CMR17-31" transform="translate(167.456359 0) scale(0.996264)"/>
       <use xlink:href="#CMR17-30" transform="translate(213.146836 0) scale(0.996264)"/>
       <use xlink:href="#CMSY10-0" transform="translate(258.837313 36.153639) scale(0.697382)"/>
       <use xlink:href="#CMR17-31" transform="translate(313.078306 36.153639) scale(0.697382)"/>
      </g>
     </g>
    </g>
    <g id="xtick_6"/>
    <g id="xtick_7"/>
    <g id="xtick_8"/>
    <g id="text_5">
     <!-- Stickiness -->
     <g style="fill: #262626" transform="translate(292.896836 553.071936) scale(0.18 -0.18)">
      <defs>
       <path id="CMSS17-53" d="M 2797 4169 
C 2515 4334 2208 4480 1690 4480 
C 864 4480 333 3879 333 3266 
C 333 3025 403 2753 653 2475 
C 902 2196 1184 2121 1542 2033 
C 1690 1994 1939 1924 1984 1906 
C 2342 1767 2515 1444 2515 1140 
C 2515 742 2202 318 1645 318 
C 1453 318 890 318 358 819 
L 269 318 
C 794 -64 1363 -128 1651 -128 
C 2438 -128 3002 488 3002 1186 
C 3002 1440 2925 1763 2656 2061 
C 2394 2347 2163 2410 1638 2549 
C 1338 2626 1146 2677 986 2873 
C 877 3013 819 3146 819 3317 
C 819 3673 1126 4060 1690 4060 
C 1971 4060 2336 4002 2707 3660 
L 2797 4169 
z
" transform="scale(0.015625)"/>
       <path id="CMSS17-74" d="M 1069 2368 
L 1901 2368 
L 1901 2737 
L 1069 2737 
L 1069 3520 
L 614 3520 
L 614 2737 
L 109 2737 
L 109 2368 
L 602 2368 
L 602 749 
C 602 384 685 -64 1107 -64 
C 1427 -64 1722 25 2003 172 
L 1901 548 
C 1747 414 1562 337 1363 337 
C 1082 337 1069 696 1069 856 
L 1069 2368 
z
" transform="scale(0.015625)"/>
       <path id="CMSS17-69" d="M 979 4183 
L 442 4183 
L 442 3648 
L 979 3648 
L 979 4183 
z
M 947 2739 
L 474 2739 
L 474 0 
L 947 0 
L 947 2739 
z
" transform="scale(0.015625)"/>
       <path id="CMSS17-63" d="M 2464 2541 
C 2464 2585 2170 2714 2093 2739 
C 1882 2816 1613 2816 1542 2816 
C 710 2816 211 2093 211 1363 
C 211 595 768 -64 1517 -64 
C 1946 -64 2253 76 2502 242 
L 2464 664 
C 2189 453 1869 337 1523 337 
C 1024 337 698 774 698 1369 
C 698 1831 909 2414 1549 2414 
C 1901 2414 2099 2343 2394 2145 
L 2464 2541 
z
" transform="scale(0.015625)"/>
       <path id="CMSS17-6b" d="M 1696 1688 
L 2688 2739 
L 2074 2739 
L 954 1554 
L 954 4416 
L 480 4416 
L 480 0 
L 947 0 
L 947 892 
L 1376 1344 
L 2278 0 
L 2822 0 
L 1696 1688 
z
" transform="scale(0.015625)"/>
       <path id="CMSS17-6e" d="M 2618 1877 
C 2618 2283 2522 2816 1798 2816 
C 1389 2816 1120 2606 941 2389 
L 941 2758 
L 474 2758 
L 474 0 
L 960 0 
L 960 1559 
C 960 1964 1114 2428 1549 2428 
C 2112 2428 2131 2048 2131 1829 
L 2131 0 
L 2618 0 
L 2618 1877 
z
" transform="scale(0.015625)"/>
       <path id="CMSS17-65" d="M 2502 1377 
C 2502 1590 2490 2003 2285 2345 
C 2061 2713 1696 2816 1421 2816 
C 755 2816 192 2188 192 1375 
C 192 582 774 -64 1510 -64 
C 1798 -64 2150 19 2470 248 
C 2470 274 2458 414 2451 420 
C 2451 433 2432 630 2432 656 
C 2125 407 1773 325 1517 325 
C 1107 325 666 667 646 1377 
L 2502 1377 
z
M 698 1728 
C 781 2084 1062 2421 1421 2421 
C 1517 2421 1965 2421 2080 1728 
L 698 1728 
z
" transform="scale(0.015625)"/>
       <path id="CMSS17-73" d="M 2061 2627 
C 1683 2807 1389 2807 1197 2807 
C 742 2807 198 2648 198 2003 
C 198 1359 902 1218 1094 1179 
C 1389 1122 1715 1058 1715 740 
C 1715 337 1254 337 1171 337 
C 915 337 563 407 243 638 
L 166 210 
C 531 0 883 -64 1178 -64 
C 1965 -64 2163 416 2163 781 
C 2163 1094 1984 1305 1862 1401 
C 1651 1568 1574 1587 1050 1696 
C 960 1709 646 1779 646 2066 
C 646 2432 1050 2432 1139 2432 
C 1555 2432 1811 2303 1984 2208 
L 2061 2627 
z
" transform="scale(0.015625)"/>
      </defs>
      <use xlink:href="#CMSS17-53" transform="scale(0.996264)"/>
      <use xlink:href="#CMSS17-74" transform="translate(52.048516 0) scale(0.996264)"/>
      <use xlink:href="#CMSS17-69" transform="translate(85.880083 0) scale(0.996264)"/>
      <use xlink:href="#CMSS17-63" transform="translate(108.060806 0) scale(0.996264)"/>
      <use xlink:href="#CMSS17-6b" transform="translate(149.699628 0) scale(0.996264)"/>
      <use xlink:href="#CMSS17-69" transform="translate(195.302117 0) scale(0.996264)"/>
      <use xlink:href="#CMSS17-6e" transform="translate(217.48284 0) scale(0.996264)"/>
      <use xlink:href="#CMSS17-65" transform="translate(265.687783 0) scale(0.996264)"/>
      <use xlink:href="#CMSS17-73" transform="translate(307.326605 0) scale(0.996264)"/>
      <use xlink:href="#CMSS17-73" transform="translate(343.240147 0) scale(0.996264)"/>
     </g>
    </g>
   </g>
   <g id="matplotlib.axis_2">
    <g id="ytick_1">
     <g id="line2d_2">
      <path d="M 93.254908 255.750789 
L 560.786376 255.750789 
" clip-path="url(#pc35a5060b2)" style="fill: none; stroke: #ffffff; stroke-width: 0.8; stroke-linecap: round"/>
     </g>
     <g id="text_6">
      <!-- $\mathdefault{10^{2}}$ -->
      <g style="fill: #262626" transform="translate(65.067864 261.285583) scale(0.16 -0.16)">
       <defs>
        <path id="CMR17-32" d="M 2669 989 
L 2554 989 
C 2490 536 2438 459 2413 420 
C 2381 369 1920 369 1830 369 
L 602 369 
C 832 619 1280 1072 1824 1597 
C 2214 1967 2669 2402 2669 3035 
C 2669 3790 2067 4224 1395 4224 
C 691 4224 262 3604 262 3030 
C 262 2780 448 2748 525 2748 
C 589 2748 781 2787 781 3010 
C 781 3207 614 3264 525 3264 
C 486 3264 448 3258 422 3245 
C 544 3790 915 4058 1306 4058 
C 1862 4058 2227 3617 2227 3035 
C 2227 2479 1901 2000 1536 1584 
L 262 146 
L 262 0 
L 2515 0 
L 2669 989 
z
" transform="scale(0.015625)"/>
       </defs>
       <use xlink:href="#CMR17-31" transform="scale(0.996264)"/>
       <use xlink:href="#CMR17-30" transform="translate(45.690477 0) scale(0.996264)"/>
       <use xlink:href="#CMR17-32" transform="translate(91.380954 36.153639) scale(0.697382)"/>
      </g>
     </g>
    </g>
    <g id="ytick_2">
     <g id="text_7">
      <!-- $\mathdefault{4\times10^{1}}$ -->
      <g style="fill: #262626" transform="translate(39.381364 489.703554) scale(0.16 -0.16)">
       <use xlink:href="#CMR17-34" transform="scale(0.996264)"/>
       <use xlink:href="#CMSY10-2" transform="translate(67.829684 0) scale(0.996264)"/>
       <use xlink:href="#CMR17-31" transform="translate(167.456359 0) scale(0.996264)"/>
       <use xlink:href="#CMR17-30" transform="translate(213.146836 0) scale(0.996264)"/>
       <use xlink:href="#CMR17-31" transform="translate(258.837313 36.153639) scale(0.697382)"/>
      </g>
     </g>
    </g>
    <g id="ytick_3"/>
    <g id="ytick_4">
     <g id="text_8">
      <!-- $\mathdefault{6\times10^{1}}$ -->
      <g style="fill: #262626" transform="translate(39.381364 388.656785) scale(0.16 -0.16)">
       <use xlink:href="#CMR17-36" transform="scale(0.996264)"/>
       <use xlink:href="#CMSY10-2" transform="translate(67.829684 0) scale(0.996264)"/>
       <use xlink:href="#CMR17-31" transform="translate(167.456359 0) scale(0.996264)"/>
       <use xlink:href="#CMR17-30" transform="translate(213.146836 0) scale(0.996264)"/>
       <use xlink:href="#CMR17-31" transform="translate(258.837313 36.153639) scale(0.697382)"/>
      </g>
     </g>
    </g>
    <g id="ytick_5"/>
    <g id="ytick_6"/>
    <g id="ytick_7"/>
    <g id="ytick_8">
     <g id="text_9">
      <!-- $\mathdefault{2\times10^{2}}$ -->
      <g style="fill: #262626" transform="translate(39.381364 88.612319) scale(0.16 -0.16)">
       <use xlink:href="#CMR17-32" transform="scale(0.996264)"/>
       <use xlink:href="#CMSY10-2" transform="translate(67.829684 0) scale(0.996264)"/>
       <use xlink:href="#CMR17-31" transform="translate(167.456359 0) scale(0.996264)"/>
       <use xlink:href="#CMR17-30" transform="translate(213.146836 0) scale(0.996264)"/>
       <use xlink:href="#CMR17-32" transform="translate(258.837313 36.153639) scale(0.697382)"/>
      </g>
     </g>
    </g>
    <g id="text_10">
     <!-- Volume Liquid Time 400 -->
     <g style="fill: #262626" transform="translate(31.8933 354.606371) rotate(-90) scale(0.18 -0.18)">
      <defs>
       <path id="CMSS17-56" d="M 3910 4416 
L 3411 4416 
L 2304 1362 
C 2272 1273 2074 688 2035 484 
L 2029 484 
C 1978 726 1773 1292 1664 1604 
L 922 3672 
L 646 4416 
L 83 4416 
L 1715 0 
L 2278 0 
L 3910 4416 
z
" transform="scale(0.015625)"/>
       <path id="CMSS17-6f" d="M 2829 1356 
C 2829 2176 2221 2816 1504 2816 
C 768 2816 173 2157 173 1356 
C 173 544 787 -64 1498 -64 
C 2227 -64 2829 563 2829 1356 
z
M 1504 337 
C 1050 337 659 709 659 1408 
C 659 2151 1114 2427 1498 2427 
C 1914 2427 2342 2126 2342 1408 
C 2342 683 1926 337 1504 337 
z
" transform="scale(0.015625)"/>
       <path id="CMSS17-6c" d="M 947 4416 
L 474 4416 
L 474 0 
L 947 0 
L 947 4416 
z
" transform="scale(0.015625)"/>
       <path id="CMSS17-75" d="M 2618 2739 
L 2131 2739 
L 2131 972 
C 2131 498 1786 306 1421 306 
C 998 306 960 447 960 709 
L 960 2739 
L 474 2739 
L 474 678 
C 474 179 646 -64 1088 -64 
C 1306 -64 1798 -13 2144 306 
L 2144 0 
L 2618 0 
L 2618 2739 
z
" transform="scale(0.015625)"/>
       <path id="CMSS17-6d" d="M 4288 1877 
C 4288 2308 4179 2816 3462 2816 
C 2982 2816 2694 2516 2566 2331 
C 2451 2670 2182 2816 1798 2816 
C 1363 2816 1088 2568 941 2389 
L 941 2758 
L 474 2758 
L 474 0 
L 960 0 
L 960 1559 
C 960 1939 1101 2428 1555 2428 
C 2138 2428 2138 2016 2138 1829 
L 2138 0 
L 2624 0 
L 2624 1559 
C 2624 1939 2765 2428 3219 2428 
C 3802 2428 3802 2016 3802 1829 
L 3802 0 
L 4288 0 
L 4288 1877 
z
" transform="scale(0.015625)"/>
       <path id="CMSS17-4c" d="M 1670 414 
C 1594 414 1517 414 1440 414 
L 1101 414 
L 1101 4416 
L 563 4416 
L 563 0 
L 3002 0 
L 3002 414 
L 1670 414 
z
" transform="scale(0.015625)"/>
       <path id="CMSS17-71" d="M 2611 2816 
L 2138 2816 
L 2138 2428 
C 2112 2460 1818 2816 1318 2816 
C 736 2816 211 2228 211 1399 
C 211 633 653 -5 1229 -5 
C 1498 -5 1837 91 2125 365 
L 2125 -1216 
L 2611 -1216 
L 2611 2816 
z
M 2138 914 
C 2138 832 2138 718 1939 554 
C 1888 510 1747 384 1504 384 
C 1050 384 698 850 698 1399 
C 698 2011 1126 2415 1562 2415 
C 1926 2415 2138 2061 2138 1797 
L 2138 914 
z
" transform="scale(0.015625)"/>
       <path id="CMSS17-64" d="M 2611 4416 
L 2138 4416 
L 2138 2438 
C 1939 2603 1613 2756 1254 2756 
C 672 2756 211 2131 211 1347 
C 211 562 666 -64 1235 -64 
C 1677 -64 1971 172 2125 306 
L 2125 -13 
L 2611 -13 
L 2611 4416 
z
M 2125 836 
C 2125 747 2125 653 1926 482 
C 1798 375 1645 325 1498 325 
C 1152 325 698 576 698 1340 
C 698 2134 1210 2368 1562 2368 
C 1798 2368 1990 2254 2125 2065 
L 2125 836 
z
" transform="scale(0.015625)"/>
       <path id="CMSS17-54" d="M 2317 3968 
L 2848 3968 
C 2925 3968 3002 3968 3078 3968 
L 3878 3968 
L 3878 4376 
L 218 4376 
L 218 3968 
L 1018 3968 
C 1094 3968 1171 3968 1248 3968 
L 1779 3968 
L 1779 -32 
L 2317 -32 
L 2317 3968 
z
" transform="scale(0.015625)"/>
       <path id="CMSS17-34" d="M 2253 1088 
L 2835 1088 
L 2835 1477 
L 2253 1477 
L 2253 4192 
L 1690 4192 
L 166 1477 
L 166 1088 
L 1747 1088 
L 1747 0 
L 2253 0 
L 2253 1088 
z
M 659 1477 
C 1030 2127 1766 3439 1766 3885 
L 1766 1477 
L 659 1477 
z
" transform="scale(0.015625)"/>
       <path id="CMSS17-30" d="M 2758 2044 
C 2758 2405 2752 3077 2490 3596 
C 2227 4096 1805 4229 1504 4229 
C 1069 4229 698 3975 506 3570 
C 301 3146 243 2709 243 2044 
C 243 1589 262 1031 493 543 
C 755 5 1197 -128 1498 -128 
C 1894 -128 2278 81 2496 518 
C 2720 974 2758 1474 2758 2044 
z
M 1498 261 
C 1011 261 864 811 819 995 
C 742 1310 730 1614 730 2114 
C 730 2506 730 2948 851 3297 
C 998 3701 1254 3840 1498 3840 
C 1971 3840 2125 3372 2176 3208 
C 2272 2873 2272 2481 2272 2114 
C 2272 1526 2272 261 1498 261 
z
" transform="scale(0.015625)"/>
      </defs>
      <use xlink:href="#CMSS17-56" transform="scale(0.996264)"/>
      <use xlink:href="#CMSS17-6f" transform="translate(59.615401 0) scale(0.996264)"/>
      <use xlink:href="#CMSS17-6c" transform="translate(106.459025 0) scale(0.996264)"/>
      <use xlink:href="#CMSS17-75" transform="translate(128.639748 0) scale(0.996264)"/>
      <use xlink:href="#CMSS17-6d" transform="translate(176.844691 0) scale(0.996264)"/>
      <use xlink:href="#CMSS17-65" transform="translate(251.073945 0) scale(0.996264)"/>
      <use xlink:href="#CMSS17-4c" transform="translate(323.94188 0) scale(0.996264)"/>
      <use xlink:href="#CMSS17-69" transform="translate(374.628985 0) scale(0.996264)"/>
      <use xlink:href="#CMSS17-71" transform="translate(396.809708 0) scale(0.996264)"/>
      <use xlink:href="#CMSS17-75" transform="translate(445.014651 0) scale(0.996264)"/>
      <use xlink:href="#CMSS17-69" transform="translate(493.219595 0) scale(0.996264)"/>
      <use xlink:href="#CMSS17-64" transform="translate(515.400318 0) scale(0.996264)"/>
      <use xlink:href="#CMSS17-54" transform="translate(594.834374 0) scale(0.996264)"/>
      <use xlink:href="#CMSS17-69" transform="translate(658.653827 0) scale(0.996264)"/>
      <use xlink:href="#CMSS17-6d" transform="translate(680.83455 0) scale(0.996264)"/>
      <use xlink:href="#CMSS17-65" transform="translate(755.063805 0) scale(0.996264)"/>
      <use xlink:href="#CMSS17-34" transform="translate(827.93174 0) scale(0.996264)"/>
      <use xlink:href="#CMSS17-30" transform="translate(874.775363 0) scale(0.996264)"/>
      <use xlink:href="#CMSS17-30" transform="translate(921.618987 0) scale(0.996264)"/>
     </g>
    </g>
   </g>
   <g id="line2d_3">
    <path d="M 114.506338 54.260555 
L 168.924884 69.47688 
L 216.064372 83.382849 
L 257.644347 96.207977 
L 294.838903 108.138995 
L 328.485471 119.336756 
L 359.202381 129.936117 
L 387.459199 140.025602 
L 413.620926 149.738399 
L 437.976912 159.147683 
L 460.760414 168.299347 
L 482.162226 179.680808 
L 502.34039 192.43047 
L 521.427296 204.514462 
L 539.534945 216.010333 
" clip-path="url(#pc35a5060b2)" style="fill: none; stroke: #393b79; stroke-width: 1.5; stroke-linecap: round"/>
   </g>
   <g id="line2d_4">
    <path d="M 114.506338 41.98589 
L 168.924884 62.176227 
L 216.064372 79.665893 
L 257.644347 95.092872 
L 294.838903 108.892775 
L 328.485471 121.376305 
L 359.202381 132.772875 
L 387.459199 143.256704 
L 413.620926 152.963213 
L 437.976912 161.999757 
L 460.760414 170.452879 
L 482.162226 178.393367 
L 502.34039 185.879858 
L 521.427296 192.961471 
L 539.534945 199.67976 
" clip-path="url(#pc35a5060b2)" style="fill: none; stroke-dasharray: 5.55,2.4; stroke-dashoffset: 0; stroke: #393b79; stroke-width: 1.5"/>
   </g>
   <g id="line2d_5">
    <path d="M 114.506338 88.591315 
L 168.924884 106.410044 
L 216.064372 122.601938 
L 257.644347 137.522918 
L 294.838903 151.383902 
L 328.485471 164.431475 
L 359.202381 176.835905 
L 387.459199 192.235936 
L 413.620926 208.639306 
L 437.976912 223.946108 
L 460.760414 238.274297 
L 482.162226 251.788265 
L 502.34039 264.553545 
L 521.427296 276.69164 
L 539.534945 288.206312 
" clip-path="url(#pc35a5060b2)" style="fill: none; stroke: #9c9ede; stroke-width: 1.5; stroke-linecap: round"/>
   </g>
   <g id="line2d_6">
    <path d="M 114.506338 70.118998 
L 168.924884 96.080439 
L 216.064372 118.569262 
L 257.644347 138.40581 
L 294.838903 156.150207 
L 328.485471 172.201967 
L 359.202381 186.856075 
L 387.459199 200.336548 
L 413.620926 212.817516 
L 437.976912 224.437019 
L 460.760414 235.306339 
L 482.162226 245.516496 
L 502.34039 255.142887 
L 521.427296 264.248672 
L 539.534945 272.887284 
" clip-path="url(#pc35a5060b2)" style="fill: none; stroke-dasharray: 5.55,2.4; stroke-dashoffset: 0; stroke: #9c9ede; stroke-width: 1.5"/>
   </g>
   <g id="line2d_7">
    <path d="M 114.506338 118.92286 
L 168.924884 138.797315 
L 216.064372 156.808585 
L 257.644347 173.396297 
L 294.838903 190.061062 
L 328.485471 211.150534 
L 359.202381 230.432144 
L 387.459199 248.143231 
L 413.620926 264.589283 
L 437.976912 279.91939 
L 460.760414 294.269306 
L 482.162226 307.805356 
L 502.34039 320.615581 
L 521.427296 332.740396 
L 539.534945 344.313344 
" clip-path="url(#pc35a5060b2)" style="fill: none; stroke: #b5cf6b; stroke-width: 1.5; stroke-linecap: round"/>
   </g>
   <g id="line2d_8">
    <path d="M 114.506338 99.589914 
L 168.924884 129.563938 
L 216.064372 155.528619 
L 257.644347 178.431091 
L 294.838903 198.91805 
L 328.485471 217.450759 
L 359.202381 234.369796 
L 387.459199 249.933802 
L 413.620926 264.343821 
L 437.976912 277.759227 
L 460.760414 290.308501 
L 482.162226 302.096733 
L 502.34039 313.210973 
L 521.427296 323.724143 
L 539.534945 333.697932 
" clip-path="url(#pc35a5060b2)" style="fill: none; stroke-dasharray: 5.55,2.4; stroke-dashoffset: 0; stroke: #b5cf6b; stroke-width: 1.5"/>
   </g>
   <g id="line2d_9">
    <path d="M 114.506338 146.090342 
L 168.924884 167.623636 
L 216.064372 187.170662 
L 257.644347 212.312408 
L 294.838903 235.711065 
L 328.485471 256.839276 
L 359.202381 276.136462 
L 387.459199 293.885372 
L 413.620926 310.342328 
L 437.976912 325.71497 
L 460.760414 340.112284 
L 482.162226 353.679451 
L 502.34039 366.515041 
L 521.427296 378.684124 
L 539.534945 390.266502 
" clip-path="url(#pc35a5060b2)" style="fill: none; stroke: #e7ba52; stroke-width: 1.5; stroke-linecap: round"/>
   </g>
   <g id="line2d_10">
    <path d="M 114.506338 130.14139 
L 168.924884 162.58326 
L 216.064372 190.685687 
L 257.644347 215.473784 
L 294.838903 237.647493 
L 328.485471 257.706052 
L 359.202381 276.018082 
L 387.459199 292.863516 
L 413.620926 308.459952 
L 437.976912 322.979887 
L 460.760414 336.562379 
L 482.162226 349.321169 
L 502.34039 361.350476 
L 521.427296 372.729225 
L 539.534945 383.524185 
" clip-path="url(#pc35a5060b2)" style="fill: none; stroke-dasharray: 5.55,2.4; stroke-dashoffset: 0; stroke: #e7ba52; stroke-width: 1.5"/>
   </g>
   <g id="line2d_11">
    <path d="M 114.506338 170.67137 
L 168.924884 194.758095 
L 216.064372 224.683152 
L 257.644347 250.934669 
L 294.838903 274.35811 
L 328.485471 295.494035 
L 359.202381 314.840683 
L 387.459199 332.624331 
L 413.620926 349.108981 
L 437.976912 364.503624 
L 460.760414 378.919498 
L 482.162226 392.522416 
L 502.34039 405.367254 
L 521.427296 417.596526 
L 539.534945 429.207165 
" clip-path="url(#pc35a5060b2)" style="fill: none; stroke: #ad494a; stroke-width: 1.5; stroke-linecap: round"/>
   </g>
   <g id="line2d_12">
    <path d="M 114.506338 160.835391 
L 168.924884 194.636456 
L 216.064372 223.91627 
L 257.644347 249.742897 
L 294.838903 272.845601 
L 328.485471 293.74454 
L 359.202381 312.823776 
L 387.459199 330.374972 
L 413.620926 346.624841 
L 437.976912 361.753107 
L 460.760414 375.904655 
L 482.162226 389.197991 
L 502.34039 401.731281 
L 521.427296 413.586757 
L 539.534945 424.833986 
" clip-path="url(#pc35a5060b2)" style="fill: none; stroke-dasharray: 5.55,2.4; stroke-dashoffset: 0; stroke: #ad494a; stroke-width: 1.5"/>
   </g>
   <g id="line2d_13">
    <path d="M 114.506338 193.441128 
L 168.924884 228.180016 
L 216.064372 258.114992 
L 257.644347 284.398037 
L 294.838903 307.825426 
L 328.485471 329.019138 
L 359.202381 348.382407 
L 387.459199 366.209132 
L 413.620926 382.717304 
L 437.976912 398.128876 
L 460.760414 412.61037 
L 482.162226 426.228089 
L 502.34039 439.144259 
L 521.427296 451.357937 
L 539.534945 463.008231 
" clip-path="url(#pc35a5060b2)" style="fill: none; stroke: #7b4173; stroke-width: 1.5; stroke-linecap: round"/>
   </g>
   <g id="line2d_14">
    <path d="M 114.506338 190.738733 
L 168.924884 225.1844 
L 216.064372 255.022594 
L 257.644347 281.341746 
L 294.838903 304.88503 
L 328.485471 326.182521 
L 359.202381 345.625607 
L 387.459199 363.511512 
L 413.620926 380.071274 
L 437.976912 395.488043 
L 460.760414 409.909468 
L 482.162226 423.456314 
L 502.34039 436.22862 
L 521.427296 448.310186 
L 539.534945 459.771904 
" clip-path="url(#pc35a5060b2)" style="fill: none; stroke-dasharray: 5.55,2.4; stroke-dashoffset: 0; stroke: #7b4173; stroke-width: 1.5"/>
   </g>
   <g id="line2d_15">
    <path d="M 114.506338 222.897778 
L 168.924884 257.638175 
L 216.064372 287.62581 
L 257.644347 313.936242 
L 294.838903 337.420249 
L 328.485471 358.640849 
L 359.202381 378.01702 
L 387.459199 395.860718 
L 413.620926 412.431422 
L 437.976912 427.88033 
L 460.760414 442.366321 
L 482.162226 456.029794 
L 502.34039 468.931564 
L 521.427296 481.205916 
L 539.534945 492.903682 
" clip-path="url(#pc35a5060b2)" style="fill: none; stroke: #de9ed6; stroke-width: 1.5; stroke-linecap: round"/>
   </g>
   <g id="line2d_16">
    <path d="M 114.506338 220.146763 
L 168.924884 254.648766 
L 216.064372 284.53576 
L 257.644347 310.897957 
L 294.838903 334.479746 
L 328.485471 355.812069 
L 359.202381 375.286954 
L 387.459199 393.202111 
L 413.620926 409.788957 
L 437.976912 425.23094 
L 460.760414 439.675951 
L 482.162226 453.244952 
L 502.34039 466.038148 
L 521.427296 478.139472 
L 539.534945 489.619937 
" clip-path="url(#pc35a5060b2)" style="fill: none; stroke-dasharray: 5.55,2.4; stroke-dashoffset: 0; stroke: #de9ed6; stroke-width: 1.5"/>
   </g>
   <g id="patch_3">
    <path d="M 93.254908 515.449571 
L 93.254908 19.44 
" style="fill: none; stroke: #ffffff; stroke-width: 0.8; stroke-linejoin: miter; stroke-linecap: square"/>
   </g>
   <g id="patch_4">
    <path d="M 560.786376 515.449571 
L 560.786376 19.44 
" style="fill: none; stroke: #ffffff; stroke-width: 0.8; stroke-linejoin: miter; stroke-linecap: square"/>
   </g>
   <g id="patch_5">
    <path d="M 93.254908 515.449571 
L 560.786376 515.449571 
" style="fill: none; stroke: #ffffff; stroke-width: 0.8; stroke-linejoin: miter; stroke-linecap: square"/>
   </g>
   <g id="patch_6">
    <path d="M 93.254908 19.44 
L 560.786376 19.44 
" style="fill: none; stroke: #ffffff; stroke-width: 0.8; stroke-linejoin: miter; stroke-linecap: square"/>
   </g>
   <g id="legend_1">
    <g id="patch_7">
     <path d="M 596.762949 159.133621 
L 1038.486573 159.133621 
Q 1042.086573 159.133621 1042.086573 155.533621 
L 1042.086573 32.04 
Q 1042.086573 28.44 1038.486573 28.44 
L 596.762949 28.44 
Q 593.162949 28.44 593.162949 32.04 
L 593.162949 155.533621 
Q 593.162949 159.133621 596.762949 159.133621 
z
" style="fill: #eaeaf2; opacity: 0.8; stroke: #cccccc; stroke-linejoin: miter"/>
    </g>
    <g id="text_11">
     <!-- Particle Size -->
     <g style="fill: #262626" transform="translate(774.370081 48.0933) scale(0.18 -0.18)">
      <defs>
       <path id="CMSS17-50" d="M 2106 1856 
C 2874 1856 3501 2453 3501 3158 
C 3501 3850 2899 4453 2067 4453 
L 570 4453 
L 570 0 
L 1107 0 
L 1107 1856 
L 2106 1856 
z
M 1926 4096 
C 2669 4096 2995 3627 2995 3157 
C 2995 2720 2694 2226 1926 2226 
L 1094 2226 
L 1094 4096 
L 1926 4096 
z
" transform="scale(0.015625)"/>
       <path id="CMSS17-61" d="M 2406 1791 
C 2406 2392 1978 2808 1402 2808 
C 1120 2808 813 2757 461 2553 
L 499 2135 
C 659 2248 934 2432 1395 2432 
C 1722 2432 1920 2180 1920 1782 
L 1920 1536 
C 896 1536 256 1238 256 726 
C 256 461 416 -64 947 -64 
C 1043 -64 1562 -64 1933 217 
L 1933 -19 
L 2406 -19 
L 2406 1791 
z
M 1920 816 
C 1920 701 1920 548 1728 434 
C 1562 325 1350 325 1261 325 
C 941 325 723 511 723 744 
C 723 1211 1722 1211 1920 1211 
L 1920 816 
z
" transform="scale(0.015625)"/>
       <path id="CMSS17-72" d="M 954 1363 
C 954 1965 1395 2368 1958 2368 
L 1958 2789 
C 1549 2789 1165 2585 934 2253 
L 934 2758 
L 480 2758 
L 480 0 
L 954 0 
L 954 1363 
z
" transform="scale(0.015625)"/>
       <path id="CMSS17-7a" d="M 2400 2502 
L 2400 2750 
L 250 2750 
L 250 2368 
L 1069 2368 
C 1146 2368 1222 2368 1299 2368 
L 1747 2368 
L 166 261 
L 166 0 
L 2419 0 
L 2419 395 
L 1549 395 
C 1472 395 1395 395 1318 395 
L 826 395 
L 2400 2502 
z
" transform="scale(0.015625)"/>
      </defs>
      <use xlink:href="#CMSS17-50" transform="scale(0.996264)"/>
      <use xlink:href="#CMSS17-61" transform="translate(57.133132 0) scale(0.996264)"/>
      <use xlink:href="#CMSS17-72" transform="translate(99.452599 0) scale(0.996264)"/>
      <use xlink:href="#CMSS17-74" transform="translate(131.362372 0) scale(0.996264)"/>
      <use xlink:href="#CMSS17-69" transform="translate(165.193938 0) scale(0.996264)"/>
      <use xlink:href="#CMSS17-63" transform="translate(187.374661 0) scale(0.996264)"/>
      <use xlink:href="#CMSS17-6c" transform="translate(229.013483 0) scale(0.996264)"/>
      <use xlink:href="#CMSS17-65" transform="translate(251.194206 0) scale(0.996264)"/>
      <use xlink:href="#CMSS17-53" transform="translate(324.062141 0) scale(0.996264)"/>
      <use xlink:href="#CMSS17-69" transform="translate(376.110657 0) scale(0.996264)"/>
      <use xlink:href="#CMSS17-7a" transform="translate(398.29138 0) scale(0.996264)"/>
      <use xlink:href="#CMSS17-65" transform="translate(438.969252 0) scale(0.996264)"/>
     </g>
    </g>
    <g id="line2d_17">
     <path d="M 600.362949 66.881364 
L 618.362949 66.881364 
L 636.362949 66.881364 
" style="fill: none; stroke-dasharray: 5.55,2.4; stroke-dashoffset: 0; stroke: #393b79; stroke-width: 1.5"/>
    </g>
    <g id="text_12">
     <!-- Beta 0.03,Order 0.53 -->
     <g style="fill: #262626" transform="translate(650.762949 73.181364) scale(0.18 -0.18)">
      <defs>
       <path id="CMSS17-42" d="M 570 4416 
L 570 0 
L 2163 0 
C 3034 0 3667 574 3667 1200 
C 3667 1685 3251 2176 2502 2317 
C 3334 2558 3501 3040 3501 3313 
C 3501 3883 2874 4416 1997 4416 
L 570 4416 
z
M 1088 2496 
L 1088 4059 
L 1824 4059 
C 2483 4059 3002 3724 3002 3306 
C 3002 2926 2592 2496 1766 2496 
L 1088 2496 
z
M 1088 357 
L 1088 2107 
L 1939 2107 
C 2630 2107 3162 1679 3162 1206 
C 3162 772 2694 357 1984 357 
L 1088 357 
z
" transform="scale(0.015625)"/>
       <path id="CMSS17-2e" d="M 1088 510 
L 576 510 
L 576 0 
L 1088 0 
L 1088 510 
z
" transform="scale(0.015625)"/>
       <path id="CMSS17-33" d="M 1005 2025 
L 1440 2025 
C 2042 2025 2214 1507 2214 1146 
C 2214 653 1933 267 1472 267 
C 1114 267 608 444 320 912 
C 275 691 275 678 250 526 
C 550 88 1037 -128 1485 -128 
C 2214 -128 2752 473 2752 1138 
C 2752 1638 2400 2057 1920 2215 
C 2304 2424 2586 2816 2586 3273 
C 2586 3805 2093 4229 1491 4229 
C 941 4229 512 3892 333 3530 
C 378 3468 493 3284 550 3189 
C 691 3562 1056 3840 1485 3840 
C 1843 3840 2080 3607 2080 3271 
C 2080 2923 1856 2543 1478 2455 
C 1453 2455 1056 2417 1005 2411 
L 1005 2025 
z
" transform="scale(0.015625)"/>
       <path id="CMSS17-2c" d="M 1088 6 
L 1088 510 
L 576 510 
L 576 0 
L 736 0 
L 570 -800 
L 826 -800 
L 1088 6 
z
" transform="scale(0.015625)"/>
       <path id="CMSS17-4f" d="M 4096 2178 
C 4096 3503 3219 4497 2214 4497 
C 1210 4497 333 3497 333 2178 
C 333 847 1222 -128 2214 -128 
C 3206 -128 4096 847 4096 2178 
z
M 2214 273 
C 1510 273 870 1057 870 2261 
C 870 3433 1549 4096 2214 4096 
C 2880 4096 3558 3433 3558 2261 
C 3558 1051 2912 273 2214 273 
z
" transform="scale(0.015625)"/>
       <path id="CMSS17-35" d="M 934 3752 
L 2502 3752 
L 2502 4160 
L 467 4160 
L 467 1781 
L 896 1781 
C 1011 2046 1248 2240 1555 2240 
C 1843 2240 2163 1989 2163 1266 
C 2163 493 1709 267 1376 267 
C 966 267 589 512 422 851 
L 218 499 
C 512 49 992 -128 1376 -128 
C 2118 -128 2701 497 2701 1253 
C 2701 2030 2182 2629 1562 2629 
C 1338 2629 1120 2553 934 2399 
L 934 3752 
z
" transform="scale(0.015625)"/>
      </defs>
      <use xlink:href="#CMSS17-42" transform="scale(0.996264)"/>
      <use xlink:href="#CMSS17-65" transform="translate(62.33804 0) scale(0.996264)"/>
      <use xlink:href="#CMSS17-74" transform="translate(103.976862 0) scale(0.996264)"/>
      <use xlink:href="#CMSS17-61" transform="translate(137.808429 0) scale(0.996264)"/>
      <use xlink:href="#CMSS17-30" transform="translate(213.959462 0) scale(0.996264)"/>
      <use xlink:href="#CMSS17-2e" transform="translate(260.803086 0) scale(0.996264)"/>
      <use xlink:href="#CMSS17-30" transform="translate(286.827291 0) scale(0.996264)"/>
      <use xlink:href="#CMSS17-33" transform="translate(333.670914 0) scale(0.996264)"/>
      <use xlink:href="#CMSS17-2c" transform="translate(380.514538 0) scale(0.996264)"/>
      <use xlink:href="#CMSS17-4f" transform="translate(406.538743 0) scale(0.996264)"/>
      <use xlink:href="#CMSS17-72" transform="translate(475.562998 0) scale(0.996264)"/>
      <use xlink:href="#CMSS17-64" transform="translate(507.472771 0) scale(0.996264)"/>
      <use xlink:href="#CMSS17-65" transform="translate(555.677714 0) scale(0.996264)"/>
      <use xlink:href="#CMSS17-72" transform="translate(597.316536 0) scale(0.996264)"/>
      <use xlink:href="#CMSS17-30" transform="translate(660.455421 0) scale(0.996264)"/>
      <use xlink:href="#CMSS17-2e" transform="translate(707.299045 0) scale(0.996264)"/>
      <use xlink:href="#CMSS17-35" transform="translate(733.323249 0) scale(0.996264)"/>
      <use xlink:href="#CMSS17-33" transform="translate(780.166873 0) scale(0.996264)"/>
     </g>
    </g>
    <g id="line2d_18">
     <path d="M 600.362949 91.969428 
L 618.362949 91.969428 
L 636.362949 91.969428 
" style="fill: none; stroke-dasharray: 5.55,2.4; stroke-dashoffset: 0; stroke: #9c9ede; stroke-width: 1.5"/>
    </g>
    <g id="text_13">
     <!-- Beta 0.04,Order 0.68 -->
     <g style="fill: #262626" transform="translate(650.762949 98.269428) scale(0.18 -0.18)">
      <defs>
       <path id="CMSS17-36" d="M 2496 4101 
C 2227 4210 2035 4229 1856 4229 
C 1024 4229 250 3368 250 2006 
C 250 265 986 -128 1510 -128 
C 1798 -128 2086 -39 2362 280 
C 2643 617 2752 898 2752 1389 
C 2752 2179 2362 2880 1779 2880 
C 1357 2880 992 2657 768 2376 
C 832 3258 1254 3840 1862 3840 
C 2029 3840 2246 3816 2496 3710 
L 2496 4101 
z
M 774 1369 
C 774 1420 774 1452 781 1548 
C 781 2045 1069 2491 1536 2491 
C 1837 2491 1990 2332 2106 2135 
C 2240 1886 2246 1650 2246 1388 
C 2246 1140 2246 891 2099 637 
C 1978 439 1818 267 1510 267 
C 902 267 800 1114 774 1369 
z
" transform="scale(0.015625)"/>
       <path id="CMSS17-38" d="M 1933 2222 
C 2419 2380 2669 2760 2669 3134 
C 2669 3722 2157 4229 1504 4229 
C 826 4229 333 3708 333 3144 
C 333 2780 576 2403 1069 2241 
C 442 1997 250 1512 250 1149 
C 250 446 819 -128 1498 -128 
C 2202 -128 2752 455 2752 1138 
C 2752 1557 2502 2000 1933 2222 
z
M 1504 2432 
C 1075 2432 787 2712 787 3136 
C 787 3566 1075 3840 1504 3840 
C 1901 3840 2214 3591 2214 3136 
C 2214 2687 1907 2432 1504 2432 
z
M 1504 267 
C 1139 267 749 517 749 1156 
C 749 1813 1184 2043 1498 2043 
C 1843 2043 2253 1800 2253 1156 
C 2253 491 1830 267 1504 267 
z
" transform="scale(0.015625)"/>
      </defs>
      <use xlink:href="#CMSS17-42" transform="scale(0.996264)"/>
      <use xlink:href="#CMSS17-65" transform="translate(62.33804 0) scale(0.996264)"/>
      <use xlink:href="#CMSS17-74" transform="translate(103.976862 0) scale(0.996264)"/>
      <use xlink:href="#CMSS17-61" transform="translate(137.808429 0) scale(0.996264)"/>
      <use xlink:href="#CMSS17-30" transform="translate(213.959462 0) scale(0.996264)"/>
      <use xlink:href="#CMSS17-2e" transform="translate(260.803086 0) scale(0.996264)"/>
      <use xlink:href="#CMSS17-30" transform="translate(286.827291 0) scale(0.996264)"/>
      <use xlink:href="#CMSS17-34" transform="translate(333.670914 0) scale(0.996264)"/>
      <use xlink:href="#CMSS17-2c" transform="translate(380.514538 0) scale(0.996264)"/>
      <use xlink:href="#CMSS17-4f" transform="translate(406.538743 0) scale(0.996264)"/>
      <use xlink:href="#CMSS17-72" transform="translate(475.562998 0) scale(0.996264)"/>
      <use xlink:href="#CMSS17-64" transform="translate(507.472771 0) scale(0.996264)"/>
      <use xlink:href="#CMSS17-65" transform="translate(555.677714 0) scale(0.996264)"/>
      <use xlink:href="#CMSS17-72" transform="translate(597.316536 0) scale(0.996264)"/>
      <use xlink:href="#CMSS17-30" transform="translate(660.455421 0) scale(0.996264)"/>
      <use xlink:href="#CMSS17-2e" transform="translate(707.299045 0) scale(0.996264)"/>
      <use xlink:href="#CMSS17-36" transform="translate(733.323249 0) scale(0.996264)"/>
      <use xlink:href="#CMSS17-38" transform="translate(780.166873 0) scale(0.996264)"/>
     </g>
    </g>
    <g id="line2d_19">
     <path d="M 600.362949 117.057493 
L 618.362949 117.057493 
L 636.362949 117.057493 
" style="fill: none; stroke-dasharray: 5.55,2.4; stroke-dashoffset: 0; stroke: #b5cf6b; stroke-width: 1.5"/>
    </g>
    <g id="text_14">
     <!-- Beta 0.05,Order 0.78 -->
     <g style="fill: #262626" transform="translate(650.762949 123.357493) scale(0.18 -0.18)">
      <defs>
       <path id="CMSS17-37" d="M 1389 3776 
C 1466 3776 1542 3776 1619 3776 
L 2355 3776 
C 1440 2711 915 1365 915 -32 
L 1427 -32 
C 1427 1323 1875 2696 2752 3795 
L 2752 4209 
L 250 4209 
L 250 3776 
L 1389 3776 
z
" transform="scale(0.015625)"/>
      </defs>
      <use xlink:href="#CMSS17-42" transform="scale(0.996264)"/>
      <use xlink:href="#CMSS17-65" transform="translate(62.33804 0) scale(0.996264)"/>
      <use xlink:href="#CMSS17-74" transform="translate(103.976862 0) scale(0.996264)"/>
      <use xlink:href="#CMSS17-61" transform="translate(137.808429 0) scale(0.996264)"/>
      <use xlink:href="#CMSS17-30" transform="translate(213.959462 0) scale(0.996264)"/>
      <use xlink:href="#CMSS17-2e" transform="translate(260.803086 0) scale(0.996264)"/>
      <use xlink:href="#CMSS17-30" transform="translate(286.827291 0) scale(0.996264)"/>
      <use xlink:href="#CMSS17-35" transform="translate(333.670914 0) scale(0.996264)"/>
      <use xlink:href="#CMSS17-2c" transform="translate(380.514538 0) scale(0.996264)"/>
      <use xlink:href="#CMSS17-4f" transform="translate(406.538743 0) scale(0.996264)"/>
      <use xlink:href="#CMSS17-72" transform="translate(475.562998 0) scale(0.996264)"/>
      <use xlink:href="#CMSS17-64" transform="translate(507.472771 0) scale(0.996264)"/>
      <use xlink:href="#CMSS17-65" transform="translate(555.677714 0) scale(0.996264)"/>
      <use xlink:href="#CMSS17-72" transform="translate(597.316536 0) scale(0.996264)"/>
      <use xlink:href="#CMSS17-30" transform="translate(660.455421 0) scale(0.996264)"/>
      <use xlink:href="#CMSS17-2e" transform="translate(707.299045 0) scale(0.996264)"/>
      <use xlink:href="#CMSS17-37" transform="translate(733.323249 0) scale(0.996264)"/>
      <use xlink:href="#CMSS17-38" transform="translate(780.166873 0) scale(0.996264)"/>
     </g>
    </g>
    <g id="line2d_20">
     <path d="M 600.362949 142.145557 
L 618.362949 142.145557 
L 636.362949 142.145557 
" style="fill: none; stroke-dasharray: 5.55,2.4; stroke-dashoffset: 0; stroke: #e7ba52; stroke-width: 1.5"/>
    </g>
    <g id="text_15">
     <!-- Beta 0.06,Order 0.84 -->
     <g style="fill: #262626" transform="translate(650.762949 148.445557) scale(0.18 -0.18)">
      <use xlink:href="#CMSS17-42" transform="scale(0.996264)"/>
      <use xlink:href="#CMSS17-65" transform="translate(62.33804 0) scale(0.996264)"/>
      <use xlink:href="#CMSS17-74" transform="translate(103.976862 0) scale(0.996264)"/>
      <use xlink:href="#CMSS17-61" transform="translate(137.808429 0) scale(0.996264)"/>
      <use xlink:href="#CMSS17-30" transform="translate(213.959462 0) scale(0.996264)"/>
      <use xlink:href="#CMSS17-2e" transform="translate(260.803086 0) scale(0.996264)"/>
      <use xlink:href="#CMSS17-30" transform="translate(286.827291 0) scale(0.996264)"/>
      <use xlink:href="#CMSS17-36" transform="translate(333.670914 0) scale(0.996264)"/>
      <use xlink:href="#CMSS17-2c" transform="translate(380.514538 0) scale(0.996264)"/>
      <use xlink:href="#CMSS17-4f" transform="translate(406.538743 0) scale(0.996264)"/>
      <use xlink:href="#CMSS17-72" transform="translate(475.562998 0) scale(0.996264)"/>
      <use xlink:href="#CMSS17-64" transform="translate(507.472771 0) scale(0.996264)"/>
      <use xlink:href="#CMSS17-65" transform="translate(555.677714 0) scale(0.996264)"/>
      <use xlink:href="#CMSS17-72" transform="translate(597.316536 0) scale(0.996264)"/>
      <use xlink:href="#CMSS17-30" transform="translate(660.455421 0) scale(0.996264)"/>
      <use xlink:href="#CMSS17-2e" transform="translate(707.299045 0) scale(0.996264)"/>
      <use xlink:href="#CMSS17-38" transform="translate(733.323249 0) scale(0.996264)"/>
      <use xlink:href="#CMSS17-34" transform="translate(780.166873 0) scale(0.996264)"/>
     </g>
    </g>
    <g id="line2d_21">
     <path d="M 835.624761 66.881364 
L 853.624761 66.881364 
L 871.624761 66.881364 
" style="fill: none; stroke-dasharray: 5.55,2.4; stroke-dashoffset: 0; stroke: #ad494a; stroke-width: 1.5"/>
    </g>
    <g id="text_16">
     <!-- Beta 0.07,Order 0.88 -->
     <g style="fill: #262626" transform="translate(886.024761 73.181364) scale(0.18 -0.18)">
      <use xlink:href="#CMSS17-42" transform="scale(0.996264)"/>
      <use xlink:href="#CMSS17-65" transform="translate(62.33804 0) scale(0.996264)"/>
      <use xlink:href="#CMSS17-74" transform="translate(103.976862 0) scale(0.996264)"/>
      <use xlink:href="#CMSS17-61" transform="translate(137.808429 0) scale(0.996264)"/>
      <use xlink:href="#CMSS17-30" transform="translate(213.959462 0) scale(0.996264)"/>
      <use xlink:href="#CMSS17-2e" transform="translate(260.803086 0) scale(0.996264)"/>
      <use xlink:href="#CMSS17-30" transform="translate(286.827291 0) scale(0.996264)"/>
      <use xlink:href="#CMSS17-37" transform="translate(333.670914 0) scale(0.996264)"/>
      <use xlink:href="#CMSS17-2c" transform="translate(380.514538 0) scale(0.996264)"/>
      <use xlink:href="#CMSS17-4f" transform="translate(406.538743 0) scale(0.996264)"/>
      <use xlink:href="#CMSS17-72" transform="translate(475.562998 0) scale(0.996264)"/>
      <use xlink:href="#CMSS17-64" transform="translate(507.472771 0) scale(0.996264)"/>
      <use xlink:href="#CMSS17-65" transform="translate(555.677714 0) scale(0.996264)"/>
      <use xlink:href="#CMSS17-72" transform="translate(597.316536 0) scale(0.996264)"/>
      <use xlink:href="#CMSS17-30" transform="translate(660.455421 0) scale(0.996264)"/>
      <use xlink:href="#CMSS17-2e" transform="translate(707.299045 0) scale(0.996264)"/>
      <use xlink:href="#CMSS17-38" transform="translate(733.323249 0) scale(0.996264)"/>
      <use xlink:href="#CMSS17-38" transform="translate(780.166873 0) scale(0.996264)"/>
     </g>
    </g>
    <g id="line2d_22">
     <path d="M 835.624761 91.969428 
L 853.624761 91.969428 
L 871.624761 91.969428 
" style="fill: none; stroke-dasharray: 5.55,2.4; stroke-dashoffset: 0; stroke: #7b4173; stroke-width: 1.5"/>
    </g>
    <g id="text_17">
     <!-- Beta 0.08,Order 0.90 -->
     <g style="fill: #262626" transform="translate(886.024761 98.269428) scale(0.18 -0.18)">
      <defs>
       <path id="CMSS17-39" d="M 435 174 
C 614 21 845 -128 1235 -128 
C 2010 -128 2752 721 2752 2095 
C 2752 3932 1952 4229 1523 4229 
C 1094 4229 819 4041 582 3741 
C 301 3397 250 3090 250 2733 
C 250 2307 326 2045 506 1745 
C 749 1357 973 1275 1222 1275 
C 1600 1275 1978 1459 2234 1776 
C 2189 902 1798 267 1235 267 
C 1005 267 819 339 634 516 
L 435 174 
z
M 2214 2746 
C 2221 2703 2221 2622 2221 2596 
C 2221 2074 1914 1664 1466 1664 
C 1171 1664 1018 1813 902 2006 
C 762 2249 755 2485 755 2733 
C 755 2976 755 3244 934 3511 
C 1069 3703 1235 3840 1523 3840 
C 2112 3840 2208 3000 2214 2746 
z
" transform="scale(0.015625)"/>
      </defs>
      <use xlink:href="#CMSS17-42" transform="scale(0.996264)"/>
      <use xlink:href="#CMSS17-65" transform="translate(62.33804 0) scale(0.996264)"/>
      <use xlink:href="#CMSS17-74" transform="translate(103.976862 0) scale(0.996264)"/>
      <use xlink:href="#CMSS17-61" transform="translate(137.808429 0) scale(0.996264)"/>
      <use xlink:href="#CMSS17-30" transform="translate(213.959462 0) scale(0.996264)"/>
      <use xlink:href="#CMSS17-2e" transform="translate(260.803086 0) scale(0.996264)"/>
      <use xlink:href="#CMSS17-30" transform="translate(286.827291 0) scale(0.996264)"/>
      <use xlink:href="#CMSS17-38" transform="translate(333.670914 0) scale(0.996264)"/>
      <use xlink:href="#CMSS17-2c" transform="translate(380.514538 0) scale(0.996264)"/>
      <use xlink:href="#CMSS17-4f" transform="translate(406.538743 0) scale(0.996264)"/>
      <use xlink:href="#CMSS17-72" transform="translate(475.562998 0) scale(0.996264)"/>
      <use xlink:href="#CMSS17-64" transform="translate(507.472771 0) scale(0.996264)"/>
      <use xlink:href="#CMSS17-65" transform="translate(555.677714 0) scale(0.996264)"/>
      <use xlink:href="#CMSS17-72" transform="translate(597.316536 0) scale(0.996264)"/>
      <use xlink:href="#CMSS17-30" transform="translate(660.455421 0) scale(0.996264)"/>
      <use xlink:href="#CMSS17-2e" transform="translate(707.299045 0) scale(0.996264)"/>
      <use xlink:href="#CMSS17-39" transform="translate(733.323249 0) scale(0.996264)"/>
      <use xlink:href="#CMSS17-30" transform="translate(780.166873 0) scale(0.996264)"/>
     </g>
    </g>
    <g id="line2d_23">
     <path d="M 835.624761 117.057493 
L 853.624761 117.057493 
L 871.624761 117.057493 
" style="fill: none; stroke-dasharray: 5.55,2.4; stroke-dashoffset: 0; stroke: #de9ed6; stroke-width: 1.5"/>
    </g>
    <g id="text_18">
     <!-- Beta 0.09,Order 0.90 -->
     <g style="fill: #262626" transform="translate(886.024761 123.357493) scale(0.18 -0.18)">
      <use xlink:href="#CMSS17-42" transform="scale(0.996264)"/>
      <use xlink:href="#CMSS17-65" transform="translate(62.33804 0) scale(0.996264)"/>
      <use xlink:href="#CMSS17-74" transform="translate(103.976862 0) scale(0.996264)"/>
      <use xlink:href="#CMSS17-61" transform="translate(137.808429 0) scale(0.996264)"/>
      <use xlink:href="#CMSS17-30" transform="translate(213.959462 0) scale(0.996264)"/>
      <use xlink:href="#CMSS17-2e" transform="translate(260.803086 0) scale(0.996264)"/>
      <use xlink:href="#CMSS17-30" transform="translate(286.827291 0) scale(0.996264)"/>
      <use xlink:href="#CMSS17-39" transform="translate(333.670914 0) scale(0.996264)"/>
      <use xlink:href="#CMSS17-2c" transform="translate(380.514538 0) scale(0.996264)"/>
      <use xlink:href="#CMSS17-4f" transform="translate(406.538743 0) scale(0.996264)"/>
      <use xlink:href="#CMSS17-72" transform="translate(475.562998 0) scale(0.996264)"/>
      <use xlink:href="#CMSS17-64" transform="translate(507.472771 0) scale(0.996264)"/>
      <use xlink:href="#CMSS17-65" transform="translate(555.677714 0) scale(0.996264)"/>
      <use xlink:href="#CMSS17-72" transform="translate(597.316536 0) scale(0.996264)"/>
      <use xlink:href="#CMSS17-30" transform="translate(660.455421 0) scale(0.996264)"/>
      <use xlink:href="#CMSS17-2e" transform="translate(707.299045 0) scale(0.996264)"/>
      <use xlink:href="#CMSS17-39" transform="translate(733.323249 0) scale(0.996264)"/>
      <use xlink:href="#CMSS17-30" transform="translate(780.166873 0) scale(0.996264)"/>
     </g>
    </g>
   </g>
  </g>
 </g>
 <defs>
  <clipPath id="pc35a5060b2">
   <rect x="93.254908" y="19.44" width="467.531468" height="496.009571"/>
  </clipPath>
 </defs>
</svg>
