<?xml version="1.0" encoding="utf-8" standalone="no"?>
<!DOCTYPE svg PUBLIC "-//W3C//DTD SVG 1.1//EN"
  "http://www.w3.org/Graphics/SVG/1.1/DTD/svg11.dtd">
<svg xmlns:xlink="http://www.w3.org/1999/xlink" width="1080pt" height="576pt" viewBox="0 0 1080 576" xmlns="http://www.w3.org/2000/svg" version="1.1">
 <metadata>
  <rdf:RDF xmlns:dc="http://purl.org/dc/elements/1.1/" xmlns:cc="http://creativecommons.org/ns#" xmlns:rdf="http://www.w3.org/1999/02/22-rdf-syntax-ns#">
   <cc:Work>
    <dc:type rdf:resource="http://purl.org/dc/dcmitype/StillImage"/>
    <dc:date>2024-06-28T12:56:09.875500</dc:date>
    <dc:format>image/svg+xml</dc:format>
    <dc:creator>
     <cc:Agent>
      <dc:title>Matplotlib v3.9.0, https://matplotlib.org/</dc:title>
     </cc:Agent>
    </dc:creator>
   </cc:Work>
  </rdf:RDF>
 </metadata>
 <defs>
  <style type="text/css">*{stroke-linejoin: round; stroke-linecap: butt}</style>
 </defs>
 <g id="figure_1">
  <g id="patch_1">
   <path d="M 0 576 
L 1080 576 
L 1080 0 
L 0 0 
z
" style="fill: #ffffff"/>
  </g>
  <g id="axes_1">
   <g id="patch_2">
    <path d="M 48.559071 521.153031 
L 935.517672 521.153031 
L 935.517672 51.564121 
L 48.559071 51.564121 
z
" style="fill: #eaeaf2"/>
   </g>
   <g id="matplotlib.axis_1">
    <g id="xtick_1">
     <g id="line2d_1">
      <path d="M 48.559071 521.153031 
L 48.559071 51.564121 
" clip-path="url(#p4feab24ee0)" style="fill: none; stroke: #ffffff; stroke-linecap: round"/>
     </g>
     <g id="line2d_2"/>
     <g id="text_1">
      <!-- $\mathdefault{0.00}$ -->
      <g style="fill: #262626" transform="translate(36.419535 537.838907) scale(0.14 -0.14)">
       <defs>
        <path id="CMR17-30" d="M 2688 2025 
C 2688 2416 2682 3080 2413 3591 
C 2176 4039 1798 4198 1466 4198 
C 1158 4198 768 4058 525 3597 
C 269 3118 243 2524 243 2025 
C 243 1661 250 1106 448 619 
C 723 -39 1216 -128 1466 -128 
C 1760 -128 2208 -7 2470 600 
C 2662 1042 2688 1559 2688 2025 
z
M 1466 -26 
C 1056 -26 813 325 723 812 
C 653 1188 653 1738 653 2096 
C 653 2588 653 2997 736 3387 
C 858 3929 1216 4096 1466 4096 
C 1728 4096 2067 3923 2189 3400 
C 2272 3036 2278 2607 2278 2096 
C 2278 1680 2278 1169 2202 792 
C 2067 95 1690 -26 1466 -26 
z
" transform="scale(0.015625)"/>
        <path id="CMMI12-3a" d="M 1178 307 
C 1178 492 1024 619 870 619 
C 685 619 557 466 557 313 
C 557 128 710 0 864 0 
C 1050 0 1178 153 1178 307 
z
" transform="scale(0.015625)"/>
       </defs>
       <use xlink:href="#CMR17-30" transform="scale(0.996264)"/>
       <use xlink:href="#CMMI12-3a" transform="translate(45.690477 0) scale(0.996264)"/>
       <use xlink:href="#CMR17-30" transform="translate(72.787654 0) scale(0.996264)"/>
       <use xlink:href="#CMR17-30" transform="translate(118.478131 0) scale(0.996264)"/>
      </g>
     </g>
    </g>
    <g id="xtick_2">
     <g id="line2d_3">
      <path d="M 154.14938 521.153031 
L 154.14938 51.564121 
" clip-path="url(#p4feab24ee0)" style="fill: none; stroke: #ffffff; stroke-linecap: round"/>
     </g>
     <g id="line2d_4"/>
     <g id="text_2">
      <!-- $\mathdefault{0.25}$ -->
      <g style="fill: #262626" transform="translate(142.009845 537.838907) scale(0.14 -0.14)">
       <defs>
        <path id="CMR17-32" d="M 2669 989 
L 2554 989 
C 2490 536 2438 459 2413 420 
C 2381 369 1920 369 1830 369 
L 602 369 
C 832 619 1280 1072 1824 1597 
C 2214 1967 2669 2402 2669 3035 
C 2669 3790 2067 4224 1395 4224 
C 691 4224 262 3604 262 3030 
C 262 2780 448 2748 525 2748 
C 589 2748 781 2787 781 3010 
C 781 3207 614 3264 525 3264 
C 486 3264 448 3258 422 3245 
C 544 3790 915 4058 1306 4058 
C 1862 4058 2227 3617 2227 3035 
C 2227 2479 1901 2000 1536 1584 
L 262 146 
L 262 0 
L 2515 0 
L 2669 989 
z
" transform="scale(0.015625)"/>
        <path id="CMR17-35" d="M 730 3692 
C 794 3666 1056 3584 1325 3584 
C 1920 3584 2246 3911 2432 4100 
C 2432 4157 2432 4192 2394 4192 
C 2387 4192 2374 4192 2323 4163 
C 2099 4058 1837 3973 1517 3973 
C 1325 3973 1037 3999 723 4139 
C 653 4171 640 4171 634 4171 
C 602 4171 595 4164 595 4037 
L 595 2203 
C 595 2089 595 2057 659 2057 
C 691 2057 704 2070 736 2114 
C 941 2401 1222 2522 1542 2522 
C 1766 2522 2246 2382 2246 1289 
C 2246 1085 2246 715 2054 421 
C 1894 159 1645 25 1370 25 
C 947 25 518 320 403 814 
C 429 807 480 795 506 795 
C 589 795 749 840 749 1038 
C 749 1210 627 1280 506 1280 
C 358 1280 262 1190 262 1011 
C 262 454 704 -128 1382 -128 
C 2042 -128 2669 440 2669 1264 
C 2669 2030 2170 2624 1549 2624 
C 1222 2624 947 2503 730 2274 
L 730 3692 
z
" transform="scale(0.015625)"/>
       </defs>
       <use xlink:href="#CMR17-30" transform="scale(0.996264)"/>
       <use xlink:href="#CMMI12-3a" transform="translate(45.690477 0) scale(0.996264)"/>
       <use xlink:href="#CMR17-32" transform="translate(72.787654 0) scale(0.996264)"/>
       <use xlink:href="#CMR17-35" transform="translate(118.478131 0) scale(0.996264)"/>
      </g>
     </g>
    </g>
    <g id="xtick_3">
     <g id="line2d_5">
      <path d="M 259.73969 521.153031 
L 259.73969 51.564121 
" clip-path="url(#p4feab24ee0)" style="fill: none; stroke: #ffffff; stroke-linecap: round"/>
     </g>
     <g id="line2d_6"/>
     <g id="text_3">
      <!-- $\mathdefault{0.50}$ -->
      <g style="fill: #262626" transform="translate(247.600155 537.838907) scale(0.14 -0.14)">
       <use xlink:href="#CMR17-30" transform="scale(0.996264)"/>
       <use xlink:href="#CMMI12-3a" transform="translate(45.690477 0) scale(0.996264)"/>
       <use xlink:href="#CMR17-35" transform="translate(72.787654 0) scale(0.996264)"/>
       <use xlink:href="#CMR17-30" transform="translate(118.478131 0) scale(0.996264)"/>
      </g>
     </g>
    </g>
    <g id="xtick_4">
     <g id="line2d_7">
      <path d="M 365.33 521.153031 
L 365.33 51.564121 
" clip-path="url(#p4feab24ee0)" style="fill: none; stroke: #ffffff; stroke-linecap: round"/>
     </g>
     <g id="line2d_8"/>
     <g id="text_4">
      <!-- $\mathdefault{0.75}$ -->
      <g style="fill: #262626" transform="translate(353.190464 537.838907) scale(0.14 -0.14)">
       <defs>
        <path id="CMR17-37" d="M 2886 3941 
L 2886 4081 
L 1382 4081 
C 634 4081 621 4165 595 4288 
L 480 4288 
L 294 3094 
L 410 3094 
C 429 3215 474 3540 550 3661 
C 589 3712 1062 3712 1171 3712 
L 2579 3712 
L 1869 2661 
C 1395 1954 1069 999 1069 165 
C 1069 89 1069 -128 1299 -128 
C 1530 -128 1530 89 1530 171 
L 1530 465 
C 1530 1508 1709 2196 2003 2636 
L 2886 3941 
z
" transform="scale(0.015625)"/>
       </defs>
       <use xlink:href="#CMR17-30" transform="scale(0.996264)"/>
       <use xlink:href="#CMMI12-3a" transform="translate(45.690477 0) scale(0.996264)"/>
       <use xlink:href="#CMR17-37" transform="translate(72.787654 0) scale(0.996264)"/>
       <use xlink:href="#CMR17-35" transform="translate(118.478131 0) scale(0.996264)"/>
      </g>
     </g>
    </g>
    <g id="xtick_5">
     <g id="line2d_9">
      <path d="M 470.920309 521.153031 
L 470.920309 51.564121 
" clip-path="url(#p4feab24ee0)" style="fill: none; stroke: #ffffff; stroke-linecap: round"/>
     </g>
     <g id="line2d_10"/>
     <g id="text_5">
      <!-- $\mathdefault{1.00}$ -->
      <g style="fill: #262626" transform="translate(458.780774 537.838907) scale(0.14 -0.14)">
       <defs>
        <path id="CMR17-31" d="M 1702 4058 
C 1702 4192 1696 4192 1606 4192 
C 1357 3916 979 3827 621 3827 
C 602 3827 570 3827 563 3808 
C 557 3795 557 3782 557 3648 
C 755 3648 1088 3686 1344 3839 
L 1344 461 
C 1344 236 1331 160 781 160 
L 589 160 
L 589 0 
C 896 0 1216 0 1523 0 
C 1830 0 2150 0 2458 0 
L 2458 160 
L 2266 160 
C 1715 160 1702 230 1702 458 
L 1702 4058 
z
" transform="scale(0.015625)"/>
       </defs>
       <use xlink:href="#CMR17-31" transform="scale(0.996264)"/>
       <use xlink:href="#CMMI12-3a" transform="translate(45.690477 0) scale(0.996264)"/>
       <use xlink:href="#CMR17-30" transform="translate(72.787654 0) scale(0.996264)"/>
       <use xlink:href="#CMR17-30" transform="translate(118.478131 0) scale(0.996264)"/>
      </g>
     </g>
    </g>
    <g id="xtick_6">
     <g id="line2d_11">
      <path d="M 576.510619 521.153031 
L 576.510619 51.564121 
" clip-path="url(#p4feab24ee0)" style="fill: none; stroke: #ffffff; stroke-linecap: round"/>
     </g>
     <g id="line2d_12"/>
     <g id="text_6">
      <!-- $\mathdefault{1.25}$ -->
      <g style="fill: #262626" transform="translate(564.371084 537.838907) scale(0.14 -0.14)">
       <use xlink:href="#CMR17-31" transform="scale(0.996264)"/>
       <use xlink:href="#CMMI12-3a" transform="translate(45.690477 0) scale(0.996264)"/>
       <use xlink:href="#CMR17-32" transform="translate(72.787654 0) scale(0.996264)"/>
       <use xlink:href="#CMR17-35" transform="translate(118.478131 0) scale(0.996264)"/>
      </g>
     </g>
    </g>
    <g id="xtick_7">
     <g id="line2d_13">
      <path d="M 682.100929 521.153031 
L 682.100929 51.564121 
" clip-path="url(#p4feab24ee0)" style="fill: none; stroke: #ffffff; stroke-linecap: round"/>
     </g>
     <g id="line2d_14"/>
     <g id="text_7">
      <!-- $\mathdefault{1.50}$ -->
      <g style="fill: #262626" transform="translate(669.961393 537.838907) scale(0.14 -0.14)">
       <use xlink:href="#CMR17-31" transform="scale(0.996264)"/>
       <use xlink:href="#CMMI12-3a" transform="translate(45.690477 0) scale(0.996264)"/>
       <use xlink:href="#CMR17-35" transform="translate(72.787654 0) scale(0.996264)"/>
       <use xlink:href="#CMR17-30" transform="translate(118.478131 0) scale(0.996264)"/>
      </g>
     </g>
    </g>
    <g id="xtick_8">
     <g id="line2d_15">
      <path d="M 787.691238 521.153031 
L 787.691238 51.564121 
" clip-path="url(#p4feab24ee0)" style="fill: none; stroke: #ffffff; stroke-linecap: round"/>
     </g>
     <g id="line2d_16"/>
     <g id="text_8">
      <!-- $\mathdefault{1.75}$ -->
      <g style="fill: #262626" transform="translate(775.551703 537.838907) scale(0.14 -0.14)">
       <use xlink:href="#CMR17-31" transform="scale(0.996264)"/>
       <use xlink:href="#CMMI12-3a" transform="translate(45.690477 0) scale(0.996264)"/>
       <use xlink:href="#CMR17-37" transform="translate(72.787654 0) scale(0.996264)"/>
       <use xlink:href="#CMR17-35" transform="translate(118.478131 0) scale(0.996264)"/>
      </g>
     </g>
    </g>
    <g id="xtick_9">
     <g id="line2d_17">
      <path d="M 893.281548 521.153031 
L 893.281548 51.564121 
" clip-path="url(#p4feab24ee0)" style="fill: none; stroke: #ffffff; stroke-linecap: round"/>
     </g>
     <g id="line2d_18"/>
     <g id="text_9">
      <!-- $\mathdefault{2.00}$ -->
      <g style="fill: #262626" transform="translate(881.142013 537.838907) scale(0.14 -0.14)">
       <use xlink:href="#CMR17-32" transform="scale(0.996264)"/>
       <use xlink:href="#CMMI12-3a" transform="translate(45.690477 0) scale(0.996264)"/>
       <use xlink:href="#CMR17-30" transform="translate(72.787654 0) scale(0.996264)"/>
       <use xlink:href="#CMR17-30" transform="translate(118.478131 0) scale(0.996264)"/>
      </g>
     </g>
    </g>
    <g id="text_10">
     <!-- $x$ -->
     <g style="fill: #262626" transform="translate(487.603646 555.620524) scale(0.16 -0.16)">
      <defs>
       <path id="CMMI12-78" d="M 3034 2606 
C 2829 2567 2752 2414 2752 2293 
C 2752 2139 2874 2088 2963 2088 
C 3155 2088 3290 2254 3290 2427 
C 3290 2695 2982 2816 2714 2816 
C 2323 2816 2106 2433 2048 2312 
C 1901 2816 1504 2816 1389 2816 
C 736 2816 390 1980 390 1839 
C 390 1814 416 1782 461 1782 
C 512 1782 525 1820 538 1846 
C 755 2555 1184 2689 1370 2689 
C 1658 2689 1715 2420 1715 2267 
C 1715 2127 1677 1980 1600 1673 
L 1382 798 
C 1286 415 1101 64 762 64 
C 730 64 570 64 435 147 
C 666 192 717 383 717 460 
C 717 588 621 664 499 664 
C 346 664 179 530 179 326 
C 179 57 480 -64 755 -64 
C 1062 -64 1280 179 1414 441 
C 1517 64 1837 -64 2074 -64 
C 2726 -64 3072 773 3072 913 
C 3072 945 3046 971 3008 971 
C 2950 971 2944 939 2925 888 
C 2752 326 2381 64 2093 64 
C 1869 64 1747 230 1747 492 
C 1747 632 1773 734 1875 1156 
L 2099 2024 
C 2195 2408 2413 2689 2707 2689 
C 2720 2689 2899 2689 3034 2606 
z
" transform="scale(0.015625)"/>
      </defs>
      <use xlink:href="#CMMI12-78" transform="scale(0.996264)"/>
     </g>
    </g>
   </g>
   <g id="matplotlib.axis_2">
    <g id="ytick_1">
     <g id="line2d_19">
      <path d="M 48.559071 521.153031 
L 935.517672 521.153031 
" clip-path="url(#p4feab24ee0)" style="fill: none; stroke: #ffffff; stroke-linecap: round"/>
     </g>
     <g id="line2d_20"/>
     <g id="text_11">
      <!-- $\mathdefault{0.00}$ -->
      <g style="fill: #262626" transform="translate(17.28 525.995969) scale(0.14 -0.14)">
       <use xlink:href="#CMR17-30" transform="scale(0.996264)"/>
       <use xlink:href="#CMMI12-3a" transform="translate(45.690477 0) scale(0.996264)"/>
       <use xlink:href="#CMR17-30" transform="translate(72.787654 0) scale(0.996264)"/>
       <use xlink:href="#CMR17-30" transform="translate(118.478131 0) scale(0.996264)"/>
      </g>
     </g>
    </g>
    <g id="ytick_2">
     <g id="line2d_21">
      <path d="M 48.559071 465.27963 
L 935.517672 465.27963 
" clip-path="url(#p4feab24ee0)" style="fill: none; stroke: #ffffff; stroke-linecap: round"/>
     </g>
     <g id="line2d_22"/>
     <g id="text_12">
      <!-- $\mathdefault{0.25}$ -->
      <g style="fill: #262626" transform="translate(17.28 470.122569) scale(0.14 -0.14)">
       <use xlink:href="#CMR17-30" transform="scale(0.996264)"/>
       <use xlink:href="#CMMI12-3a" transform="translate(45.690477 0) scale(0.996264)"/>
       <use xlink:href="#CMR17-32" transform="translate(72.787654 0) scale(0.996264)"/>
       <use xlink:href="#CMR17-35" transform="translate(118.478131 0) scale(0.996264)"/>
      </g>
     </g>
    </g>
    <g id="ytick_3">
     <g id="line2d_23">
      <path d="M 48.559071 409.40623 
L 935.517672 409.40623 
" clip-path="url(#p4feab24ee0)" style="fill: none; stroke: #ffffff; stroke-linecap: round"/>
     </g>
     <g id="line2d_24"/>
     <g id="text_13">
      <!-- $\mathdefault{0.50}$ -->
      <g style="fill: #262626" transform="translate(17.28 414.249168) scale(0.14 -0.14)">
       <use xlink:href="#CMR17-30" transform="scale(0.996264)"/>
       <use xlink:href="#CMMI12-3a" transform="translate(45.690477 0) scale(0.996264)"/>
       <use xlink:href="#CMR17-35" transform="translate(72.787654 0) scale(0.996264)"/>
       <use xlink:href="#CMR17-30" transform="translate(118.478131 0) scale(0.996264)"/>
      </g>
     </g>
    </g>
    <g id="ytick_4">
     <g id="line2d_25">
      <path d="M 48.559071 353.53283 
L 935.517672 353.53283 
" clip-path="url(#p4feab24ee0)" style="fill: none; stroke: #ffffff; stroke-linecap: round"/>
     </g>
     <g id="line2d_26"/>
     <g id="text_14">
      <!-- $\mathdefault{0.75}$ -->
      <g style="fill: #262626" transform="translate(17.28 358.375768) scale(0.14 -0.14)">
       <use xlink:href="#CMR17-30" transform="scale(0.996264)"/>
       <use xlink:href="#CMMI12-3a" transform="translate(45.690477 0) scale(0.996264)"/>
       <use xlink:href="#CMR17-37" transform="translate(72.787654 0) scale(0.996264)"/>
       <use xlink:href="#CMR17-35" transform="translate(118.478131 0) scale(0.996264)"/>
      </g>
     </g>
    </g>
    <g id="ytick_5">
     <g id="line2d_27">
      <path d="M 48.559071 297.65943 
L 935.517672 297.65943 
" clip-path="url(#p4feab24ee0)" style="fill: none; stroke: #ffffff; stroke-linecap: round"/>
     </g>
     <g id="line2d_28"/>
     <g id="text_15">
      <!-- $\mathdefault{1.00}$ -->
      <g style="fill: #262626" transform="translate(17.28 302.502368) scale(0.14 -0.14)">
       <use xlink:href="#CMR17-31" transform="scale(0.996264)"/>
       <use xlink:href="#CMMI12-3a" transform="translate(45.690477 0) scale(0.996264)"/>
       <use xlink:href="#CMR17-30" transform="translate(72.787654 0) scale(0.996264)"/>
       <use xlink:href="#CMR17-30" transform="translate(118.478131 0) scale(0.996264)"/>
      </g>
     </g>
    </g>
    <g id="ytick_6">
     <g id="line2d_29">
      <path d="M 48.559071 241.786029 
L 935.517672 241.786029 
" clip-path="url(#p4feab24ee0)" style="fill: none; stroke: #ffffff; stroke-linecap: round"/>
     </g>
     <g id="line2d_30"/>
     <g id="text_16">
      <!-- $\mathdefault{1.25}$ -->
      <g style="fill: #262626" transform="translate(17.28 246.628968) scale(0.14 -0.14)">
       <use xlink:href="#CMR17-31" transform="scale(0.996264)"/>
       <use xlink:href="#CMMI12-3a" transform="translate(45.690477 0) scale(0.996264)"/>
       <use xlink:href="#CMR17-32" transform="translate(72.787654 0) scale(0.996264)"/>
       <use xlink:href="#CMR17-35" transform="translate(118.478131 0) scale(0.996264)"/>
      </g>
     </g>
    </g>
    <g id="ytick_7">
     <g id="line2d_31">
      <path d="M 48.559071 185.912629 
L 935.517672 185.912629 
" clip-path="url(#p4feab24ee0)" style="fill: none; stroke: #ffffff; stroke-linecap: round"/>
     </g>
     <g id="line2d_32"/>
     <g id="text_17">
      <!-- $\mathdefault{1.50}$ -->
      <g style="fill: #262626" transform="translate(17.28 190.755567) scale(0.14 -0.14)">
       <use xlink:href="#CMR17-31" transform="scale(0.996264)"/>
       <use xlink:href="#CMMI12-3a" transform="translate(45.690477 0) scale(0.996264)"/>
       <use xlink:href="#CMR17-35" transform="translate(72.787654 0) scale(0.996264)"/>
       <use xlink:href="#CMR17-30" transform="translate(118.478131 0) scale(0.996264)"/>
      </g>
     </g>
    </g>
    <g id="ytick_8">
     <g id="line2d_33">
      <path d="M 48.559071 130.039229 
L 935.517672 130.039229 
" clip-path="url(#p4feab24ee0)" style="fill: none; stroke: #ffffff; stroke-linecap: round"/>
     </g>
     <g id="line2d_34"/>
     <g id="text_18">
      <!-- $\mathdefault{1.75}$ -->
      <g style="fill: #262626" transform="translate(17.28 134.882167) scale(0.14 -0.14)">
       <use xlink:href="#CMR17-31" transform="scale(0.996264)"/>
       <use xlink:href="#CMMI12-3a" transform="translate(45.690477 0) scale(0.996264)"/>
       <use xlink:href="#CMR17-37" transform="translate(72.787654 0) scale(0.996264)"/>
       <use xlink:href="#CMR17-35" transform="translate(118.478131 0) scale(0.996264)"/>
      </g>
     </g>
    </g>
    <g id="ytick_9">
     <g id="line2d_35">
      <path d="M 48.559071 74.165829 
L 935.517672 74.165829 
" clip-path="url(#p4feab24ee0)" style="fill: none; stroke: #ffffff; stroke-linecap: round"/>
     </g>
     <g id="line2d_36"/>
     <g id="text_19">
      <!-- $\mathdefault{2.00}$ -->
      <g style="fill: #262626" transform="translate(17.28 79.008767) scale(0.14 -0.14)">
       <use xlink:href="#CMR17-32" transform="scale(0.996264)"/>
       <use xlink:href="#CMMI12-3a" transform="translate(45.690477 0) scale(0.996264)"/>
       <use xlink:href="#CMR17-30" transform="translate(72.787654 0) scale(0.996264)"/>
       <use xlink:href="#CMR17-30" transform="translate(118.478131 0) scale(0.996264)"/>
      </g>
     </g>
    </g>
   </g>
   <g id="line2d_37">
    <path d="M 48.559071 74.165829 
L 57.006295 74.165829 
L 65.45352 74.165829 
L 73.900745 74.165829 
L 82.34797 74.165829 
L 90.795195 74.165829 
L 99.242419 74.165829 
L 107.689644 74.165829 
L 116.136869 74.165829 
L 124.584094 74.165829 
L 133.031318 74.165829 
L 141.478543 74.165829 
L 149.925768 74.165829 
L 158.372993 74.165829 
L 166.820217 74.165829 
L 175.267442 74.165829 
L 183.714667 74.165829 
L 192.161892 74.165829 
L 200.609117 74.165829 
L 209.056341 74.165829 
L 217.503566 74.165829 
L 225.950791 74.165829 
L 234.398016 74.165829 
L 242.84524 74.165829 
L 251.292465 74.165829 
L 259.73969 74.165829 
L 268.186915 74.165829 
L 276.63414 74.165829 
L 285.081364 74.165829 
L 293.528589 74.165829 
L 301.975814 74.165829 
L 310.423039 74.165829 
L 318.870263 74.165829 
L 327.317488 74.165829 
L 335.764713 74.165829 
L 344.211938 74.165829 
L 352.659162 74.165829 
L 361.106387 74.165829 
L 369.553612 74.165829 
L 378.000837 74.165829 
L 386.448062 74.165829 
L 394.895286 74.165829 
L 403.342511 74.165829 
L 411.789736 74.165829 
L 420.236961 74.165829 
L 428.684185 74.165829 
L 437.13141 74.165829 
L 445.578635 74.165829 
L 454.02586 74.165829 
L 462.473085 74.165829 
L 470.920309 74.165829 
L 479.367534 74.165829 
L 487.814759 74.165829 
L 496.261984 74.165829 
L 504.709208 74.165829 
L 513.156433 74.165829 
L 521.603658 74.165829 
L 530.050883 74.165829 
L 538.498107 74.165829 
L 546.945332 74.165829 
L 555.392557 74.165829 
L 563.839782 74.165829 
L 572.287007 74.165829 
L 580.734231 74.165829 
L 589.181456 74.165829 
L 597.628681 74.165829 
L 606.075906 74.165829 
L 614.52313 74.165829 
L 622.970355 74.165829 
L 631.41758 74.165829 
L 639.864805 74.165829 
L 648.31203 74.165829 
L 656.759254 74.165829 
L 665.206479 74.165829 
L 673.653704 74.165829 
L 682.100929 74.165829 
L 690.548153 74.165829 
L 698.995378 74.165829 
L 707.442603 74.165829 
L 715.889828 74.165829 
L 724.337052 74.165829 
L 732.784277 74.165829 
L 741.231502 74.165829 
L 749.678727 74.165829 
L 758.125952 74.165829 
L 766.573176 74.165829 
L 775.020401 74.165829 
L 783.467626 74.165829 
L 791.914851 74.165829 
L 800.362075 74.165829 
L 808.8093 74.165829 
L 817.256525 74.165829 
L 825.70375 74.165829 
L 834.150975 74.165829 
L 842.598199 74.165829 
L 851.045424 74.165829 
L 859.492649 74.165829 
L 867.939874 74.165829 
L 876.387098 74.165829 
L 884.834323 74.165829 
L 893.281548 74.165829 
" clip-path="url(#p4feab24ee0)" style="fill: none; stroke: #393b79; stroke-width: 2; stroke-linecap: round"/>
   </g>
   <g id="line2d_38">
    <path d="M 48.559071 251.374301 
L 57.006295 249.772823 
L 65.45352 248.128346 
L 73.900745 246.51087 
L 82.34797 244.91939 
L 90.795195 243.353612 
L 99.242419 241.812675 
L 107.689644 240.29623 
L 116.136869 238.788264 
L 124.584094 237.225477 
L 133.031318 235.687247 
L 141.478543 234.173054 
L 149.925768 232.682541 
L 158.372993 231.215091 
L 166.820217 229.770143 
L 175.267442 228.347555 
L 183.714667 226.934887 
L 192.161892 225.465096 
L 200.609117 224.017603 
L 209.056341 222.59206 
L 217.503566 221.18805 
L 225.950791 219.805177 
L 234.398016 218.442948 
L 242.84524 217.101027 
L 251.292465 215.778939 
L 259.73969 214.476424 
L 268.186915 213.110912 
L 276.63414 211.761806 
L 285.081364 210.432406 
L 293.528589 209.122385 
L 301.975814 207.831445 
L 310.423039 206.559207 
L 318.870263 205.305302 
L 327.317488 204.069477 
L 335.764713 202.851312 
L 344.211938 201.650488 
L 352.659162 200.439446 
L 361.106387 199.19259 
L 369.553612 197.963359 
L 378.000837 196.751438 
L 386.448062 195.556548 
L 394.895286 194.378421 
L 403.342511 193.216761 
L 411.789736 192.071243 
L 420.236961 190.941707 
L 428.684185 189.827837 
L 437.13141 188.729322 
L 445.578635 187.645871 
L 454.02586 186.577376 
L 462.473085 185.463254 
L 470.920309 184.350747 
L 479.367534 183.253298 
L 487.814759 182.170783 
L 496.261984 181.102909 
L 504.709208 180.049419 
L 513.156433 179.010142 
L 521.603658 177.984831 
L 530.050883 176.973231 
L 538.498107 175.975168 
L 546.945332 174.990412 
L 555.392557 174.018818 
L 563.839782 173.060072 
L 572.287007 172.113968 
L 580.734231 171.180422 
L 589.181456 170.214653 
L 597.628681 169.240008 
L 606.075906 168.278137 
L 614.52313 167.328819 
L 622.970355 166.391853 
L 631.41758 165.467073 
L 639.864805 164.554271 
L 648.31203 163.653298 
L 656.759254 162.763935 
L 665.206479 161.886079 
L 673.653704 161.019506 
L 682.100929 160.164062 
L 690.548153 159.319584 
L 698.995378 158.485927 
L 707.442603 157.662923 
L 715.889828 156.850421 
L 724.337052 156.048221 
L 732.784277 155.25618 
L 741.231502 154.474215 
L 749.678727 153.661112 
L 758.125952 152.842453 
L 766.573176 152.034079 
L 775.020401 151.23584 
L 783.467626 150.4476 
L 791.914851 149.669198 
L 800.362075 148.900508 
L 808.8093 148.141385 
L 817.256525 147.391703 
L 825.70375 146.651338 
L 834.150975 145.920157 
L 842.598199 145.19802 
L 851.045424 144.484797 
L 859.492649 143.780365 
L 867.939874 143.084633 
L 876.387098 142.397441 
L 884.834323 141.718695 
L 893.281548 141.048267 
" clip-path="url(#p4feab24ee0)" style="fill: none; stroke: #6b6ecf; stroke-width: 2; stroke-linecap: round"/>
   </g>
   <g id="line2d_39">
    <path d="M 48.559071 477.305469 
L 57.006295 475.369482 
L 65.45352 473.412219 
L 73.900745 471.434122 
L 82.34797 469.437652 
L 90.795195 467.418839 
L 99.242419 465.382694 
L 107.689644 463.329825 
L 116.136869 461.261161 
L 124.584094 459.178456 
L 133.031318 457.078076 
L 141.478543 454.963004 
L 149.925768 452.840417 
L 158.372993 450.699227 
L 166.820217 448.552425 
L 175.267442 446.388976 
L 183.714667 444.222853 
L 192.161892 442.041021 
L 200.609117 439.851385 
L 209.056341 437.657025 
L 217.503566 435.457822 
L 225.950791 433.250687 
L 234.398016 431.032843 
L 242.84524 428.811028 
L 251.292465 426.585267 
L 259.73969 424.355979 
L 268.186915 422.124516 
L 276.63414 419.891131 
L 285.081364 417.655775 
L 293.528589 415.410519 
L 301.975814 413.164313 
L 310.423039 410.919225 
L 318.870263 408.677464 
L 327.317488 406.442482 
L 335.764713 404.194643 
L 344.211938 401.946015 
L 352.659162 399.708453 
L 361.106387 397.477173 
L 369.553612 395.227568 
L 378.000837 392.995961 
L 386.448062 390.769118 
L 394.895286 388.529207 
L 403.342511 386.317291 
L 411.789736 384.083051 
L 420.236961 381.868967 
L 428.684185 379.655771 
L 437.13141 377.442972 
L 445.578635 375.246773 
L 454.02586 373.039575 
L 462.473085 370.855982 
L 470.920309 368.659972 
L 479.367534 366.485995 
L 487.814759 364.307067 
L 496.261984 362.13873 
L 504.709208 359.985368 
L 513.156433 357.818784 
L 521.603658 355.70011 
L 530.050883 353.532353 
L 538.498107 351.413414 
L 546.945332 349.286699 
L 555.392557 347.16212 
L 563.839782 345.084252 
L 572.287007 342.957504 
L 580.734231 340.869954 
L 589.181456 338.811608 
L 597.628681 336.710969 
L 606.075906 334.654725 
L 614.52313 332.621227 
L 622.970355 330.548309 
L 631.41758 328.517931 
L 639.864805 326.524409 
L 648.31203 324.473723 
L 656.759254 322.464336 
L 665.206479 320.495173 
L 673.653704 318.495699 
L 682.100929 316.502405 
L 690.548153 314.548162 
L 698.995378 312.625592 
L 707.442603 310.643938 
L 715.889828 308.700184 
L 724.337052 306.793344 
L 732.784277 304.904802 
L 741.231502 302.967328 
L 749.678727 301.065959 
L 758.125952 299.19989 
L 766.573176 297.368229 
L 775.020401 295.470737 
L 783.467626 293.605289 
L 791.914851 291.773461 
L 800.362075 289.974646 
L 808.8093 288.164604 
L 817.256525 286.328957 
L 825.70375 284.525646 
L 834.150975 282.754089 
L 842.598199 281.013428 
L 851.045424 279.255604 
L 859.492649 277.475611 
L 867.939874 275.726027 
L 876.387098 274.006308 
L 884.834323 272.31576 
L 893.281548 270.648857 
" clip-path="url(#p4feab24ee0)" style="fill: none; stroke: #637939; stroke-width: 2; stroke-linecap: round"/>
   </g>
   <g id="line2d_40">
    <path d="M 48.559071 516.104052 
L 57.006295 515.230904 
L 65.45352 514.297647 
L 73.900745 513.306202 
L 82.34797 512.258418 
L 90.795195 511.156299 
L 99.242419 510.001367 
L 107.689644 508.795578 
L 116.136869 507.540379 
L 124.584094 506.237619 
L 133.031318 504.889143 
L 141.478543 503.496095 
L 149.925768 502.060426 
L 158.372993 500.583163 
L 166.820217 499.066027 
L 175.267442 497.510646 
L 183.714667 495.918262 
L 192.161892 494.290686 
L 200.609117 492.628112 
L 209.056341 490.93296 
L 217.503566 489.205882 
L 225.950791 487.448721 
L 234.398016 485.663197 
L 242.84524 483.847816 
L 251.292465 482.006361 
L 259.73969 480.139585 
L 268.186915 478.247785 
L 276.63414 476.332374 
L 285.081364 474.396639 
L 293.528589 472.435604 
L 301.975814 470.457604 
L 310.423039 468.458686 
L 318.870263 466.440106 
L 327.317488 464.404977 
L 335.764713 462.353482 
L 344.211938 460.287282 
L 352.659162 458.204872 
L 361.106387 456.105659 
L 369.553612 453.996861 
L 378.000837 451.874921 
L 386.448062 449.739461 
L 394.895286 447.595283 
L 403.342511 445.441263 
L 411.789736 443.273049 
L 420.236961 441.10169 
L 428.684185 438.924125 
L 437.13141 436.730433 
L 445.578635 434.532365 
L 454.02586 432.329442 
L 462.473085 430.121231 
L 470.920309 427.908719 
L 479.367534 425.691293 
L 487.814759 423.469678 
L 496.261984 421.244651 
L 504.709208 419.017296 
L 513.156433 416.788605 
L 521.603658 414.560745 
L 530.050883 412.33553 
L 538.498107 410.093998 
L 546.945332 407.855369 
L 555.392557 405.622175 
L 563.839782 403.398054 
L 572.287007 401.160119 
L 580.734231 398.923441 
L 589.181456 396.701474 
L 597.628681 394.473662 
L 606.075906 392.241664 
L 614.52313 390.032881 
L 622.970355 387.803209 
L 631.41758 385.589419 
L 639.864805 383.383547 
L 648.31203 381.167042 
L 656.759254 378.981291 
L 665.206479 376.765686 
L 673.653704 374.595509 
L 682.100929 372.385139 
L 690.548153 370.227163 
L 698.995378 368.027182 
L 707.442603 365.877628 
L 715.889828 363.694999 
L 724.337052 361.550015 
L 732.784277 359.392417 
L 741.231502 357.248939 
L 749.678727 355.125824 
L 758.125952 352.980198 
L 766.573176 350.882708 
L 775.020401 348.751546 
L 783.467626 346.647769 
L 791.914851 344.572412 
L 800.362075 342.458918 
L 808.8093 340.390994 
L 817.256525 338.328076 
L 825.70375 336.246521 
L 834.150975 334.208783 
L 842.598199 332.171194 
L 851.045424 330.116265 
L 859.492649 328.10343 
L 867.939874 326.106092 
L 876.387098 324.072583 
L 884.834323 322.079765 
L 893.281548 320.126681 
" clip-path="url(#p4feab24ee0)" style="fill: none; stroke: #b5cf6b; stroke-width: 2; stroke-linecap: round"/>
   </g>
   <g id="line2d_41">
    <path d="M 48.559071 521.235114 
L 57.006295 521.077549 
L 65.45352 520.922527 
L 73.900745 520.685876 
L 82.34797 520.369996 
L 90.795195 519.97726 
L 99.242419 519.509884 
L 107.689644 518.970136 
L 116.136869 518.360209 
L 124.584094 517.682199 
L 133.031318 516.938296 
L 141.478543 516.130433 
L 149.925768 515.260715 
L 158.372993 514.330851 
L 166.820217 513.343036 
L 175.267442 512.298989 
L 183.714667 511.200423 
L 192.161892 510.049472 
L 200.609117 508.847494 
L 209.056341 507.596444 
L 217.503566 506.297784 
L 225.950791 504.953093 
L 234.398016 503.564333 
L 242.84524 502.132744 
L 251.292465 500.659593 
L 259.73969 499.147405 
L 268.186915 497.596446 
L 276.63414 496.007833 
L 285.081364 494.384291 
L 293.528589 492.726432 
L 301.975814 491.036428 
L 310.423039 489.313803 
L 318.870263 487.561353 
L 327.317488 485.778799 
L 335.764713 483.969028 
L 344.211938 482.131617 
L 352.659162 480.26894 
L 361.106387 478.381755 
L 369.553612 476.471723 
L 378.000837 474.538928 
L 386.448062 472.583405 
L 394.895286 470.608532 
L 403.342511 468.615994 
L 411.789736 466.602281 
L 420.236961 464.571261 
L 428.684185 462.524493 
L 437.13141 460.462063 
L 445.578635 458.381479 
L 454.02586 456.287994 
L 462.473085 454.185053 
L 470.920309 452.064502 
L 479.367534 449.936115 
L 487.814759 447.793248 
L 496.261984 445.647075 
L 504.709208 443.481115 
L 513.156433 441.311493 
L 521.603658 439.137652 
L 530.050883 436.952294 
L 538.498107 434.756801 
L 546.945332 432.557069 
L 555.392557 430.352382 
L 563.839782 428.143022 
L 572.287007 425.929082 
L 580.734231 423.711496 
L 589.181456 421.490556 
L 597.628681 419.267517 
L 606.075906 417.043788 
L 614.52313 414.82077 
L 622.970355 412.59113 
L 631.41758 410.354669 
L 639.864805 408.121242 
L 648.31203 405.893845 
L 656.759254 403.674876 
L 665.206479 401.433612 
L 673.653704 399.203185 
L 682.100929 396.988256 
L 690.548153 394.755786 
L 698.995378 392.530841 
L 707.442603 390.329155 
L 715.889828 388.095526 
L 724.337052 385.889504 
L 732.784277 383.679189 
L 741.231502 381.4712 
L 749.678727 379.280693 
L 758.125952 377.073872 
L 766.573176 374.899297 
L 775.020401 372.698122 
L 783.467626 370.535716 
L 791.914851 368.345424 
L 800.362075 366.191299 
L 808.8093 364.018782 
L 817.256525 361.869387 
L 825.70375 359.72234 
L 834.150975 357.574438 
L 842.598199 355.462514 
L 851.045424 353.312449 
L 859.492649 351.210645 
L 867.939874 349.090974 
L 876.387098 346.982835 
L 884.834323 344.919742 
L 893.281548 342.801976 
" clip-path="url(#p4feab24ee0)" style="fill: none; stroke: #8c6d31; stroke-width: 2; stroke-linecap: round"/>
   </g>
   <g id="line2d_42">
    <path d="M 48.559071 522.172839 
L 57.006295 521.215011 
L 65.45352 521.070221 
L 73.900745 520.910001 
L 82.34797 520.66833 
L 90.795195 520.347626 
L 99.242419 519.950167 
L 107.689644 519.478261 
L 116.136869 518.934143 
L 124.584094 518.319962 
L 133.031318 517.637943 
L 141.478543 516.890064 
L 149.925768 516.078488 
L 158.372993 515.204945 
L 166.820217 514.271696 
L 175.267442 513.280438 
L 183.714667 512.233012 
L 192.161892 511.131431 
L 200.609117 509.977452 
L 209.056341 508.772486 
L 217.503566 507.518606 
L 225.950791 506.217283 
L 234.398016 504.870311 
L 242.84524 503.478995 
L 251.292465 502.044967 
L 259.73969 500.569842 
L 268.186915 499.054722 
L 276.63414 497.501576 
L 285.081364 495.911798 
L 293.528589 494.286729 
L 301.975814 492.626612 
L 310.423039 490.934211 
L 318.870263 489.209865 
L 327.317488 487.455813 
L 335.764713 485.673118 
L 344.211938 483.860685 
L 352.659162 482.022472 
L 361.106387 480.158865 
L 369.553612 478.270321 
L 378.000837 476.35836 
L 386.448062 474.426302 
L 394.895286 472.468427 
L 403.342511 470.493711 
L 411.789736 468.498868 
L 420.236961 466.483872 
L 428.684185 464.452177 
L 437.13141 462.404454 
L 445.578635 460.342244 
L 454.02586 458.26238 
L 462.473085 456.16709 
L 470.920309 454.062918 
L 479.367534 451.943763 
L 487.814759 449.813121 
L 496.261984 447.671571 
L 504.709208 445.522825 
L 513.156433 443.357693 
L 521.603658 441.189174 
L 530.050883 439.016197 
L 538.498107 436.827207 
L 546.945332 434.632589 
L 555.392557 432.43305 
L 563.839782 430.228671 
L 572.287007 428.01933 
L 580.734231 425.805724 
L 589.181456 423.587897 
L 597.628681 421.366826 
L 606.075906 419.143619 
L 614.52313 416.91935 
L 622.970355 414.69587 
L 631.41758 412.470314 
L 639.864805 410.233061 
L 648.31203 407.998899 
L 656.759254 405.770887 
L 665.206479 403.55188 
L 673.653704 401.31316 
L 682.100929 399.081784 
L 690.548153 396.865533 
L 698.995378 394.636603 
L 707.442603 392.410401 
L 715.889828 390.207876 
L 724.337052 387.976881 
L 732.784277 385.769399 
L 741.231502 383.562542 
L 749.678727 381.352674 
L 758.125952 379.16554 
L 766.573176 376.956791 
L 775.020401 374.785515 
L 783.467626 372.582327 
L 791.914851 370.422891 
L 800.362075 368.230511 
L 808.8093 366.079498 
L 817.256525 363.904591 
L 825.70375 361.758175 
L 834.150975 359.608951 
L 842.598199 357.463855 
L 851.045424 355.349534 
L 859.492649 353.202245 
L 867.939874 351.103101 
L 876.387098 348.980983 
L 884.834323 346.875499 
L 893.281548 344.809787 
" clip-path="url(#p4feab24ee0)" style="fill: none; stroke: #e7cb94; stroke-width: 2; stroke-linecap: round"/>
   </g>
   <g id="line2d_43">
    <path d="M 48.559071 523.166069 
L 57.006295 521.347191 
L 65.45352 521.103672 
L 73.900745 520.969839 
L 82.34797 520.753793 
L 90.795195 520.457966 
L 99.242419 520.084656 
L 107.689644 519.636185 
L 116.136869 519.114805 
L 124.584094 518.52268 
L 133.031318 517.862049 
L 141.478543 517.134896 
L 149.925768 516.343413 
L 158.372993 515.48939 
L 166.820217 514.574965 
L 175.267442 513.601994 
L 183.714667 512.57224 
L 192.161892 511.48783 
L 200.609117 510.350325 
L 209.056341 509.161422 
L 217.503566 507.923119 
L 225.950791 506.636647 
L 234.398016 505.304146 
L 242.84524 503.926822 
L 251.292465 502.506018 
L 259.73969 501.043962 
L 268.186915 499.541602 
L 276.63414 498.00049 
L 285.081364 496.422454 
L 293.528589 494.807949 
L 301.975814 493.159269 
L 310.423039 491.477297 
L 318.870263 489.763652 
L 327.317488 488.019179 
L 335.764713 486.244421 
L 344.211938 484.441565 
L 352.659162 482.611675 
L 361.106387 480.756359 
L 369.553612 478.875723 
L 378.000837 476.970865 
L 386.448062 475.044669 
L 394.895286 473.095343 
L 403.342511 471.127286 
L 411.789736 469.136096 
L 420.236961 467.127924 
L 428.684185 465.102189 
L 437.13141 463.059233 
L 445.578635 461.000211 
L 454.02586 458.926805 
L 462.473085 456.841481 
L 470.920309 454.736125 
L 479.367534 452.621948 
L 487.814759 450.495974 
L 496.261984 448.357578 
L 504.709208 446.208607 
L 513.156433 444.055642 
L 521.603658 441.883365 
L 530.050883 439.707327 
L 538.498107 437.526425 
L 546.945332 435.340554 
L 555.392557 433.142813 
L 563.839782 430.938316 
L 572.287007 428.729523 
L 580.734231 426.517132 
L 589.181456 424.301181 
L 597.628681 422.082651 
L 606.075906 419.862652 
L 614.52313 417.641232 
L 622.970355 415.408822 
L 631.41758 413.175779 
L 639.864805 410.943937 
L 648.31203 408.715863 
L 656.759254 406.494632 
L 665.206479 404.258482 
L 673.653704 402.023684 
L 682.100929 399.800593 
L 690.548153 397.579744 
L 698.995378 395.34454 
L 707.442603 393.128124 
L 715.889828 390.910773 
L 724.337052 388.68595 
L 732.784277 386.48978 
L 741.231502 384.264326 
L 749.678727 382.066528 
L 758.125952 379.861344 
L 766.573176 377.665419 
L 775.020401 375.47659 
L 783.467626 373.286981 
L 791.914851 371.110441 
L 800.362075 368.932397 
L 808.8093 366.764688 
L 817.256525 364.604884 
L 825.70375 362.442142 
L 834.150975 360.308799 
L 842.598199 358.147709 
L 851.045424 356.036205 
L 859.492649 353.88708 
L 867.939874 351.772676 
L 876.387098 349.667878 
L 884.834323 347.547385 
L 893.281548 345.473417 
" clip-path="url(#p4feab24ee0)" style="fill: none; stroke: #ad494a; stroke-width: 2; stroke-linecap: round"/>
   </g>
   <g id="line2d_44">
    <path d="M 48.559071 524.172112 
L 57.006295 521.480421 
L 65.45352 521.122184 
L 73.900745 521.002252 
L 82.34797 520.801945 
L 90.795195 520.521399 
L 99.242419 520.162923 
L 107.689644 519.728849 
L 116.136869 519.221437 
L 124.584094 518.642868 
L 133.031318 517.99538 
L 141.478543 517.280968 
L 149.925768 516.501825 
L 158.372993 515.659752 
L 166.820217 514.756966 
L 175.267442 513.795208 
L 183.714667 512.776344 
L 192.161892 511.702426 
L 200.609117 510.575167 
L 209.056341 509.396157 
L 217.503566 508.16738 
L 225.950791 506.890038 
L 234.398016 505.566276 
L 242.84524 504.197833 
L 251.292465 502.785415 
L 259.73969 501.331025 
L 268.186915 499.83672 
L 276.63414 498.302882 
L 285.081364 496.732085 
L 293.528589 495.124359 
L 301.975814 493.482232 
L 310.423039 491.807153 
L 318.870263 490.098722 
L 327.317488 488.359969 
L 335.764713 486.592064 
L 344.211938 484.794183 
L 352.659162 482.971024 
L 361.106387 481.119551 
L 369.553612 479.243944 
L 378.000837 477.345161 
L 386.448062 475.420703 
L 394.895286 473.476635 
L 403.342511 471.5106 
L 411.789736 469.526831 
L 420.236961 467.521964 
L 428.684185 465.49887 
L 437.13141 463.459373 
L 445.578635 461.404647 
L 454.02586 459.3344 
L 462.473085 457.245815 
L 470.920309 455.146446 
L 479.367534 453.038084 
L 487.814759 450.909462 
L 496.261984 448.778847 
L 504.709208 446.627724 
L 513.156433 444.472853 
L 521.603658 442.310644 
L 530.050883 440.132661 
L 538.498107 437.950234 
L 546.945332 435.763252 
L 555.392557 433.570666 
L 563.839782 431.372375 
L 572.287007 429.166261 
L 580.734231 426.954559 
L 589.181456 424.739706 
L 597.628681 422.522152 
L 606.075906 420.297459 
L 614.52313 418.069386 
L 622.970355 415.839438 
L 631.41758 413.60926 
L 639.864805 411.380691 
L 648.31203 409.156307 
L 656.759254 406.928481 
L 665.206479 404.690244 
L 673.653704 402.460052 
L 682.100929 400.242001 
L 690.548153 398.008895 
L 698.995378 395.779205 
L 707.442603 393.568752 
L 715.889828 391.339596 
L 724.337052 389.121201 
L 732.784277 386.919203 
L 741.231502 384.695044 
L 749.678727 382.504611 
L 758.125952 380.288332 
L 766.573176 378.100236 
L 775.020401 375.900619 
L 783.467626 373.719301 
L 791.914851 371.532251 
L 800.362075 369.362964 
L 808.8093 367.184999 
L 817.256525 365.034421 
L 825.70375 362.861649 
L 834.150975 360.738011 
L 842.598199 358.567097 
L 851.045424 356.446049 
L 859.492649 354.30702 
L 867.939874 352.183246 
L 876.387098 350.089034 
L 884.834323 347.959326 
L 893.281548 345.876392 
" clip-path="url(#p4feab24ee0)" style="fill: none; stroke: #e7969c; stroke-width: 2; stroke-linecap: round"/>
   </g>
   <g id="line2d_45">
    <path d="M 48.559071 525.184165 
L 57.006295 521.614009 
L 65.45352 521.140179 
L 73.900745 521.023653 
L 82.34797 520.834724 
L 90.795195 520.565224 
L 99.242419 520.217474 
L 107.689644 519.793811 
L 116.136869 519.296497 
L 124.584094 518.727728 
L 133.031318 518.089737 
L 141.478543 517.384551 
L 149.925768 516.614329 
L 158.372993 515.780915 
L 166.820217 514.886499 
L 175.267442 513.932876 
L 183.714667 512.921871 
L 192.161892 511.855539 
L 200.609117 510.735685 
L 209.056341 509.563724 
L 217.503566 508.341741 
L 225.950791 507.071255 
L 234.398016 505.754091 
L 242.84524 504.391689 
L 251.292465 502.985353 
L 259.73969 501.536663 
L 268.186915 500.047831 
L 276.63414 498.519441 
L 285.081364 496.953531 
L 293.528589 495.351224 
L 301.975814 493.713872 
L 310.423039 492.042783 
L 318.870263 490.339343 
L 327.317488 488.60508 
L 335.764713 486.840341 
L 344.211938 485.047768 
L 352.659162 483.226355 
L 361.106387 481.37968 
L 369.553612 479.50752 
L 378.000837 477.61058 
L 386.448062 475.691259 
L 394.895286 473.75071 
L 403.342511 471.78723 
L 411.789736 469.804005 
L 420.236961 467.803413 
L 428.684185 465.784616 
L 437.13141 463.747651 
L 445.578635 461.693321 
L 454.02586 459.622897 
L 462.473085 457.538371 
L 470.920309 455.443707 
L 479.367534 453.33182 
L 487.814759 451.208941 
L 496.261984 449.075503 
L 504.709208 446.931204 
L 513.156433 444.774202 
L 521.603658 442.614136 
L 530.050883 440.440541 
L 538.498107 438.256982 
L 546.945332 436.069168 
L 555.392557 433.876044 
L 563.839782 431.677506 
L 572.287007 429.473243 
L 580.734231 427.263731 
L 589.181456 425.048796 
L 597.628681 422.829158 
L 606.075906 420.605647 
L 614.52313 418.37904 
L 622.970355 416.150848 
L 631.41758 413.922718 
L 639.864805 411.696492 
L 648.31203 409.474752 
L 656.759254 407.237612 
L 665.206479 405.002378 
L 673.653704 402.775493 
L 682.100929 400.559162 
L 690.548153 398.319088 
L 698.995378 396.093361 
L 707.442603 393.885866 
L 715.889828 391.6495 
L 724.337052 389.435729 
L 732.784277 387.225471 
L 741.231502 385.006268 
L 749.678727 382.819199 
L 758.125952 380.596833 
L 766.573176 378.414373 
L 775.020401 376.206954 
L 783.467626 374.031608 
L 791.914851 371.836959 
L 800.362075 369.673978 
L 808.8093 367.488597 
L 817.256525 365.344664 
L 825.70375 363.164643 
L 834.150975 361.03584 
L 842.598199 358.869981 
L 851.045424 356.742034 
L 859.492649 354.610279 
L 867.939874 352.479731 
L 876.387098 350.393149 
L 884.834323 348.256779 
L 893.281548 346.167366 
" clip-path="url(#p4feab24ee0)" style="fill: none; stroke: #a55194; stroke-width: 2; stroke-linecap: round"/>
   </g>
   <g id="line2d_46">
    <path d="M 48.559071 526.199983 
L 57.006295 521.747764 
L 65.45352 521.158153 
L 73.900745 521.039242 
L 82.34797 520.859229 
L 90.795195 520.598385 
L 99.242419 520.25904 
L 107.689644 519.843532 
L 116.136869 519.354136 
L 124.584094 518.793041 
L 133.031318 518.162503 
L 141.478543 517.464527 
L 149.925768 516.701318 
L 158.372993 515.874694 
L 166.820217 514.986847 
L 175.267442 514.039629 
L 183.714667 513.034752 
L 192.161892 511.974414 
L 200.609117 510.860284 
L 209.056341 509.694028 
L 217.503566 508.477423 
L 225.950791 507.212151 
L 234.398016 505.899984 
L 242.84524 504.542514 
L 251.292465 503.140635 
L 259.73969 501.696691 
L 268.186915 500.212075 
L 276.63414 498.688299 
L 285.081364 497.126196 
L 293.528589 495.528198 
L 301.975814 493.894586 
L 310.423039 492.227094 
L 318.870263 490.527066 
L 327.317488 488.79583 
L 335.764713 487.034989 
L 344.211938 485.244791 
L 352.659162 483.427132 
L 361.106387 481.582406 
L 369.553612 479.712854 
L 378.000837 477.819201 
L 386.448062 475.903879 
L 394.895286 473.962749 
L 403.342511 472.004556 
L 411.789736 470.02173 
L 420.236961 468.021983 
L 428.684185 466.004476 
L 437.13141 463.969253 
L 445.578635 461.917125 
L 454.02586 459.849375 
L 462.473085 457.768008 
L 470.920309 455.674974 
L 479.367534 453.562339 
L 487.814759 451.44394 
L 496.261984 449.30827 
L 504.709208 447.169299 
L 513.156433 445.010608 
L 521.603658 442.849098 
L 530.050883 440.682027 
L 538.498107 438.497563 
L 546.945332 436.309081 
L 555.392557 434.115519 
L 563.839782 431.916772 
L 572.287007 429.712525 
L 580.734231 427.503255 
L 589.181456 425.288784 
L 597.628681 423.069833 
L 606.075906 420.847233 
L 614.52313 418.621762 
L 622.970355 416.394932 
L 631.41758 414.168392 
L 639.864805 411.943989 
L 648.31203 409.717964 
L 656.759254 407.479863 
L 665.206479 405.246967 
L 673.653704 403.022661 
L 682.100929 400.799351 
L 690.548153 398.562124 
L 698.995378 396.339491 
L 707.442603 394.125292 
L 715.889828 391.89228 
L 724.337052 389.682119 
L 732.784277 387.465385 
L 741.231502 385.250053 
L 749.678727 383.056709 
L 758.125952 380.838469 
L 766.573176 378.660412 
L 775.020401 376.446878 
L 783.467626 374.276198 
L 791.914851 372.075593 
L 800.362075 369.91754 
L 808.8093 367.726347 
L 817.256525 365.587384 
L 825.70375 363.401905 
L 834.150975 361.267586 
L 842.598199 359.107143 
L 851.045424 356.97379 
L 859.492649 354.847722 
L 867.939874 352.711868 
L 876.387098 350.623961 
L 884.834323 348.489661 
L 893.281548 346.395171 
" clip-path="url(#p4feab24ee0)" style="fill: none; stroke: #de9ed6; stroke-width: 2; stroke-linecap: round"/>
   </g>
   <g id="patch_3">
    <path d="M 48.559071 521.153031 
L 48.559071 51.564121 
" style="fill: none"/>
   </g>
   <g id="patch_4">
    <path d="M 935.517672 521.153031 
L 935.517672 51.564121 
" style="fill: none"/>
   </g>
   <g id="patch_5">
    <path d="M 48.559071 521.153031 
L 935.517672 521.153031 
" style="fill: none"/>
   </g>
   <g id="patch_6">
    <path d="M 48.559071 51.564121 
L 935.517672 51.564121 
" style="fill: none"/>
   </g>
   <g id="patch_7">
    <path d="M 470.920309 80.633278 
Q 470.920309 263.8027 470.920309 445.295072 
" style="fill: none; stroke: #000000; stroke-width: 1.5; stroke-linecap: round"/>
    <path d="M 474.120309 438.895072 
L 470.920309 445.295072 
L 467.720309 438.895072 
" style="fill: none; stroke: #000000; stroke-width: 1.5; stroke-linecap: round"/>
   </g>
   <g id="text_20">
    <!-- Time -->
    <g style="fill: #262626" transform="translate(492.038371 445.482102) scale(0.18 -0.18)">
     <defs>
      <path id="CMR17-54" d="M 3981 4326 
L 288 4326 
L 179 2918 
L 294 2918 
C 378 3976 467 4160 1453 4160 
C 1568 4160 1754 4160 1805 4154 
C 1926 4135 1926 4058 1926 3912 
L 1926 459 
C 1926 230 1907 160 1376 160 
L 1197 160 
L 1197 0 
C 1504 0 1824 0 2138 0 
C 2451 0 2771 0 3078 0 
L 3078 160 
L 2899 160 
C 2368 160 2349 230 2349 459 
L 2349 3912 
C 2349 4052 2349 4129 2464 4154 
C 2515 4160 2701 4160 2816 4160 
C 3795 4160 3891 3976 3974 2918 
L 4090 2918 
L 3981 4326 
z
" transform="scale(0.015625)"/>
      <path id="CMR17-69" d="M 992 3909 
C 992 4049 877 4170 730 4170 
C 589 4170 467 4056 467 3909 
C 467 3769 582 3648 730 3648 
C 870 3648 992 3763 992 3909 
z
M 243 2706 
L 243 2541 
C 602 2541 653 2502 653 2197 
L 653 427 
C 653 184 627 153 218 153 
L 218 -13 
C 371 0 646 0 806 0 
C 960 0 1222 0 1370 -13 
L 1370 153 
C 992 153 979 191 979 420 
L 979 2776 
L 243 2706 
z
" transform="scale(0.015625)"/>
      <path id="CMR17-6d" d="M 4326 1933 
C 4326 2252 4269 2790 3507 2790 
C 3072 2790 2771 2496 2656 2151 
L 2650 2151 
C 2573 2676 2195 2790 1837 2790 
C 1331 2790 1069 2400 973 2144 
L 966 2144 
L 966 2790 
L 211 2720 
L 211 2554 
C 589 2554 646 2515 646 2208 
L 646 428 
C 646 184 621 153 211 153 
L 211 -13 
C 365 0 646 0 813 0 
C 979 0 1267 0 1421 -13 
L 1421 153 
C 1011 153 986 178 986 428 
L 986 1658 
C 986 2247 1344 2688 1792 2688 
C 2266 2688 2317 2266 2317 1958 
L 2317 428 
C 2317 184 2291 153 1882 153 
L 1882 -13 
C 2035 0 2317 0 2483 0 
C 2650 0 2938 0 3091 -13 
L 3091 153 
C 2682 153 2656 178 2656 428 
L 2656 1658 
C 2656 2247 3014 2688 3462 2688 
C 3936 2688 3987 2266 3987 1958 
L 3987 428 
C 3987 184 3962 153 3552 153 
L 3552 -13 
C 3706 0 3987 0 4154 0 
C 4320 0 4608 0 4762 -13 
L 4762 153 
C 4352 153 4326 178 4326 428 
L 4326 1933 
z
" transform="scale(0.015625)"/>
      <path id="CMR17-65" d="M 2438 1472 
C 2464 1498 2464 1511 2464 1576 
C 2464 2238 2118 2816 1389 2816 
C 710 2816 173 2169 173 1383 
C 173 551 781 -64 1459 -64 
C 2176 -64 2458 607 2458 740 
C 2458 784 2419 784 2406 784 
C 2362 784 2355 771 2330 696 
C 2189 265 1837 51 1504 51 
C 1229 51 954 203 781 480 
C 582 803 582 1176 582 1472 
L 2438 1472 
z
M 589 1568 
C 634 2505 1126 2714 1382 2714 
C 1818 2714 2112 2297 2118 1568 
L 589 1568 
z
" transform="scale(0.015625)"/>
     </defs>
     <use xlink:href="#CMR17-54" transform="scale(0.996264)"/>
     <use xlink:href="#CMR17-69" transform="translate(66.509881 0) scale(0.996264)"/>
     <use xlink:href="#CMR17-6d" transform="translate(91.380939 0) scale(0.996264)"/>
     <use xlink:href="#CMR17-65" transform="translate(168.300529 0) scale(0.996264)"/>
    </g>
   </g>
   <g id="legend_1">
    <g id="line2d_47">
     <path d="M 948.117672 197.198434 
L 962.117672 197.198434 
L 976.117672 197.198434 
" style="fill: none; stroke: #393b79; stroke-width: 2; stroke-linecap: round"/>
    </g>
    <g id="text_21">
     <!-- t = 0.00 -->
     <g style="fill: #262626" transform="translate(987.317672 202.098434) scale(0.14 -0.14)">
      <defs>
       <path id="CMR17-74" d="M 966 2560 
L 1862 2560 
L 1862 2725 
L 966 2725 
L 966 3904 
L 851 3904 
C 838 3245 614 2668 70 2668 
L 70 2560 
L 627 2560 
L 627 771 
C 627 650 627 -64 1370 -64 
C 1747 -64 1965 306 1965 777 
L 1965 1140 
L 1850 1140 
L 1850 783 
C 1850 344 1677 51 1408 51 
C 1222 51 966 178 966 758 
L 966 2560 
z
" transform="scale(0.015625)"/>
       <path id="CMR17-3d" d="M 4115 2017 
C 4211 2017 4307 2017 4307 2125 
C 4307 2240 4198 2240 4090 2240 
L 512 2240 
C 403 2240 294 2240 294 2125 
C 294 2017 390 2017 486 2017 
L 4115 2017 
z
M 4090 896 
C 4198 896 4307 896 4307 1011 
C 4307 1119 4211 1119 4115 1119 
L 486 1119 
C 390 1119 294 1119 294 1011 
C 294 896 403 896 512 896 
L 4090 896 
z
" transform="scale(0.015625)"/>
       <path id="CMR17-2e" d="M 1062 261 
C 1062 420 934 522 800 522 
C 672 522 538 420 538 261 
C 538 102 666 0 800 0 
C 928 0 1062 102 1062 261 
z
" transform="scale(0.015625)"/>
      </defs>
      <use xlink:href="#CMR17-74" transform="scale(0.996264)"/>
      <use xlink:href="#CMR17-3d" transform="translate(65.356734 0) scale(0.996264)"/>
      <use xlink:href="#CMR17-30" transform="translate(167.147489 0) scale(0.996264)"/>
      <use xlink:href="#CMR17-2e" transform="translate(212.837966 0) scale(0.996264)"/>
      <use xlink:href="#CMR17-30" transform="translate(237.709025 0) scale(0.996264)"/>
      <use xlink:href="#CMR17-30" transform="translate(283.399502 0) scale(0.996264)"/>
     </g>
    </g>
    <g id="line2d_48">
     <path d="M 948.117672 216.710462 
L 962.117672 216.710462 
L 976.117672 216.710462 
" style="fill: none; stroke: #6b6ecf; stroke-width: 2; stroke-linecap: round"/>
    </g>
    <g id="text_22">
     <!-- t = 10.00 -->
     <g style="fill: #262626" transform="translate(987.317672 221.610462) scale(0.14 -0.14)">
      <use xlink:href="#CMR17-74" transform="scale(0.996264)"/>
      <use xlink:href="#CMR17-3d" transform="translate(65.356734 0) scale(0.996264)"/>
      <use xlink:href="#CMR17-31" transform="translate(167.147489 0) scale(0.996264)"/>
      <use xlink:href="#CMR17-30" transform="translate(212.837966 0) scale(0.996264)"/>
      <use xlink:href="#CMR17-2e" transform="translate(258.528443 0) scale(0.996264)"/>
      <use xlink:href="#CMR17-30" transform="translate(283.399502 0) scale(0.996264)"/>
      <use xlink:href="#CMR17-30" transform="translate(329.089979 0) scale(0.996264)"/>
     </g>
    </g>
    <g id="line2d_49">
     <path d="M 948.117672 236.222491 
L 962.117672 236.222491 
L 976.117672 236.222491 
" style="fill: none; stroke: #637939; stroke-width: 2; stroke-linecap: round"/>
    </g>
    <g id="text_23">
     <!-- t = 50.00 -->
     <g style="fill: #262626" transform="translate(987.317672 241.122491) scale(0.14 -0.14)">
      <use xlink:href="#CMR17-74" transform="scale(0.996264)"/>
      <use xlink:href="#CMR17-3d" transform="translate(65.356734 0) scale(0.996264)"/>
      <use xlink:href="#CMR17-35" transform="translate(167.147489 0) scale(0.996264)"/>
      <use xlink:href="#CMR17-30" transform="translate(212.837966 0) scale(0.996264)"/>
      <use xlink:href="#CMR17-2e" transform="translate(258.528443 0) scale(0.996264)"/>
      <use xlink:href="#CMR17-30" transform="translate(283.399502 0) scale(0.996264)"/>
      <use xlink:href="#CMR17-30" transform="translate(329.089979 0) scale(0.996264)"/>
     </g>
    </g>
    <g id="line2d_50">
     <path d="M 948.117672 255.734519 
L 962.117672 255.734519 
L 976.117672 255.734519 
" style="fill: none; stroke: #b5cf6b; stroke-width: 2; stroke-linecap: round"/>
    </g>
    <g id="text_24">
     <!-- t = 100.00 -->
     <g style="fill: #262626" transform="translate(987.317672 260.634519) scale(0.14 -0.14)">
      <use xlink:href="#CMR17-74" transform="scale(0.996264)"/>
      <use xlink:href="#CMR17-3d" transform="translate(65.356734 0) scale(0.996264)"/>
      <use xlink:href="#CMR17-31" transform="translate(167.147489 0) scale(0.996264)"/>
      <use xlink:href="#CMR17-30" transform="translate(212.837966 0) scale(0.996264)"/>
      <use xlink:href="#CMR17-30" transform="translate(258.528443 0) scale(0.996264)"/>
      <use xlink:href="#CMR17-2e" transform="translate(304.21892 0) scale(0.996264)"/>
      <use xlink:href="#CMR17-30" transform="translate(329.089979 0) scale(0.996264)"/>
      <use xlink:href="#CMR17-30" transform="translate(374.780456 0) scale(0.996264)"/>
     </g>
    </g>
    <g id="line2d_51">
     <path d="M 948.117672 275.246547 
L 962.117672 275.246547 
L 976.117672 275.246547 
" style="fill: none; stroke: #8c6d31; stroke-width: 2; stroke-linecap: round"/>
    </g>
    <g id="text_25">
     <!-- t = 250.00 -->
     <g style="fill: #262626" transform="translate(987.317672 280.146547) scale(0.14 -0.14)">
      <use xlink:href="#CMR17-74" transform="scale(0.996264)"/>
      <use xlink:href="#CMR17-3d" transform="translate(65.356734 0) scale(0.996264)"/>
      <use xlink:href="#CMR17-32" transform="translate(167.147489 0) scale(0.996264)"/>
      <use xlink:href="#CMR17-35" transform="translate(212.837966 0) scale(0.996264)"/>
      <use xlink:href="#CMR17-30" transform="translate(258.528443 0) scale(0.996264)"/>
      <use xlink:href="#CMR17-2e" transform="translate(304.21892 0) scale(0.996264)"/>
      <use xlink:href="#CMR17-30" transform="translate(329.089979 0) scale(0.996264)"/>
      <use xlink:href="#CMR17-30" transform="translate(374.780456 0) scale(0.996264)"/>
     </g>
    </g>
    <g id="line2d_52">
     <path d="M 948.117672 294.758576 
L 962.117672 294.758576 
L 976.117672 294.758576 
" style="fill: none; stroke: #e7cb94; stroke-width: 2; stroke-linecap: round"/>
    </g>
    <g id="text_26">
     <!-- t = 500.00 -->
     <g style="fill: #262626" transform="translate(987.317672 299.658576) scale(0.14 -0.14)">
      <use xlink:href="#CMR17-74" transform="scale(0.996264)"/>
      <use xlink:href="#CMR17-3d" transform="translate(65.356734 0) scale(0.996264)"/>
      <use xlink:href="#CMR17-35" transform="translate(167.147489 0) scale(0.996264)"/>
      <use xlink:href="#CMR17-30" transform="translate(212.837966 0) scale(0.996264)"/>
      <use xlink:href="#CMR17-30" transform="translate(258.528443 0) scale(0.996264)"/>
      <use xlink:href="#CMR17-2e" transform="translate(304.21892 0) scale(0.996264)"/>
      <use xlink:href="#CMR17-30" transform="translate(329.089979 0) scale(0.996264)"/>
      <use xlink:href="#CMR17-30" transform="translate(374.780456 0) scale(0.996264)"/>
     </g>
    </g>
    <g id="line2d_53">
     <path d="M 948.117672 314.270604 
L 962.117672 314.270604 
L 976.117672 314.270604 
" style="fill: none; stroke: #ad494a; stroke-width: 2; stroke-linecap: round"/>
    </g>
    <g id="text_27">
     <!-- t = 750.00 -->
     <g style="fill: #262626" transform="translate(987.317672 319.170604) scale(0.14 -0.14)">
      <use xlink:href="#CMR17-74" transform="scale(0.996264)"/>
      <use xlink:href="#CMR17-3d" transform="translate(65.356734 0) scale(0.996264)"/>
      <use xlink:href="#CMR17-37" transform="translate(167.147489 0) scale(0.996264)"/>
      <use xlink:href="#CMR17-35" transform="translate(212.837966 0) scale(0.996264)"/>
      <use xlink:href="#CMR17-30" transform="translate(258.528443 0) scale(0.996264)"/>
      <use xlink:href="#CMR17-2e" transform="translate(304.21892 0) scale(0.996264)"/>
      <use xlink:href="#CMR17-30" transform="translate(329.089979 0) scale(0.996264)"/>
      <use xlink:href="#CMR17-30" transform="translate(374.780456 0) scale(0.996264)"/>
     </g>
    </g>
    <g id="line2d_54">
     <path d="M 948.117672 333.782633 
L 962.117672 333.782633 
L 976.117672 333.782633 
" style="fill: none; stroke: #e7969c; stroke-width: 2; stroke-linecap: round"/>
    </g>
    <g id="text_28">
     <!-- t = 1000.00 -->
     <g style="fill: #262626" transform="translate(987.317672 338.682633) scale(0.14 -0.14)">
      <use xlink:href="#CMR17-74" transform="scale(0.996264)"/>
      <use xlink:href="#CMR17-3d" transform="translate(65.356734 0) scale(0.996264)"/>
      <use xlink:href="#CMR17-31" transform="translate(167.147489 0) scale(0.996264)"/>
      <use xlink:href="#CMR17-30" transform="translate(212.837966 0) scale(0.996264)"/>
      <use xlink:href="#CMR17-30" transform="translate(258.528443 0) scale(0.996264)"/>
      <use xlink:href="#CMR17-30" transform="translate(304.21892 0) scale(0.996264)"/>
      <use xlink:href="#CMR17-2e" transform="translate(349.909397 0) scale(0.996264)"/>
      <use xlink:href="#CMR17-30" transform="translate(374.780456 0) scale(0.996264)"/>
      <use xlink:href="#CMR17-30" transform="translate(420.470933 0) scale(0.996264)"/>
     </g>
    </g>
    <g id="line2d_55">
     <path d="M 948.117672 353.294661 
L 962.117672 353.294661 
L 976.117672 353.294661 
" style="fill: none; stroke: #a55194; stroke-width: 2; stroke-linecap: round"/>
    </g>
    <g id="text_29">
     <!-- t = 1250.00 -->
     <g style="fill: #262626" transform="translate(987.317672 358.194661) scale(0.14 -0.14)">
      <use xlink:href="#CMR17-74" transform="scale(0.996264)"/>
      <use xlink:href="#CMR17-3d" transform="translate(65.356734 0) scale(0.996264)"/>
      <use xlink:href="#CMR17-31" transform="translate(167.147489 0) scale(0.996264)"/>
      <use xlink:href="#CMR17-32" transform="translate(212.837966 0) scale(0.996264)"/>
      <use xlink:href="#CMR17-35" transform="translate(258.528443 0) scale(0.996264)"/>
      <use xlink:href="#CMR17-30" transform="translate(304.21892 0) scale(0.996264)"/>
      <use xlink:href="#CMR17-2e" transform="translate(349.909397 0) scale(0.996264)"/>
      <use xlink:href="#CMR17-30" transform="translate(374.780456 0) scale(0.996264)"/>
      <use xlink:href="#CMR17-30" transform="translate(420.470933 0) scale(0.996264)"/>
     </g>
    </g>
    <g id="line2d_56">
     <path d="M 948.117672 372.806689 
L 962.117672 372.806689 
L 976.117672 372.806689 
" style="fill: none; stroke: #de9ed6; stroke-width: 2; stroke-linecap: round"/>
    </g>
    <g id="text_30">
     <!-- t = 1500.00 -->
     <g style="fill: #262626" transform="translate(987.317672 377.706689) scale(0.14 -0.14)">
      <use xlink:href="#CMR17-74" transform="scale(0.996264)"/>
      <use xlink:href="#CMR17-3d" transform="translate(65.356734 0) scale(0.996264)"/>
      <use xlink:href="#CMR17-31" transform="translate(167.147489 0) scale(0.996264)"/>
      <use xlink:href="#CMR17-35" transform="translate(212.837966 0) scale(0.996264)"/>
      <use xlink:href="#CMR17-30" transform="translate(258.528443 0) scale(0.996264)"/>
      <use xlink:href="#CMR17-30" transform="translate(304.21892 0) scale(0.996264)"/>
      <use xlink:href="#CMR17-2e" transform="translate(349.909397 0) scale(0.996264)"/>
      <use xlink:href="#CMR17-30" transform="translate(374.780456 0) scale(0.996264)"/>
      <use xlink:href="#CMR17-30" transform="translate(420.470933 0) scale(0.996264)"/>
     </g>
    </g>
   </g>
  </g>
  <g id="text_31">
   <!-- permeability -->
   <g style="fill: #262626" transform="translate(492.111452 24.803515) scale(0.192 -0.192)">
    <defs>
     <path id="CMR17-70" d="M 1408 -1063 
C 998 -1063 973 -1037 973 -789 
L 973 402 
C 1158 134 1427 -38 1766 -38 
C 2406 -38 3053 523 3053 1388 
C 3053 2191 2496 2802 1837 2802 
C 1453 2802 1139 2592 960 2338 
L 960 2802 
L 198 2732 
L 198 2567 
C 576 2567 634 2528 634 2223 
L 634 -789 
C 634 -1031 608 -1063 198 -1063 
L 198 -1228 
C 352 -1216 634 -1216 800 -1216 
C 966 -1216 1254 -1216 1408 -1228 
L 1408 -1063 
z
M 973 2012 
C 973 2102 973 2235 1222 2471 
C 1254 2497 1472 2688 1792 2688 
C 2259 2688 2643 2108 2643 1382 
C 2643 656 2234 64 1728 64 
C 1498 64 1248 172 1056 472 
C 973 612 973 650 973 752 
L 973 2012 
z
" transform="scale(0.015625)"/>
     <path id="CMR17-72" d="M 960 1497 
C 960 2112 1222 2688 1702 2688 
C 1747 2688 1792 2682 1837 2662 
C 1837 2662 1696 2617 1696 2452 
C 1696 2298 1818 2234 1914 2234 
C 1990 2234 2131 2279 2131 2458 
C 2131 2663 1926 2790 1709 2790 
C 1222 2790 1011 2317 947 2093 
L 941 2093 
L 941 2790 
L 198 2720 
L 198 2554 
C 576 2554 634 2515 634 2208 
L 634 428 
C 634 184 608 153 198 153 
L 198 -13 
C 352 0 646 0 813 0 
C 998 0 1325 0 1498 -13 
L 1498 153 
C 1037 153 960 153 960 440 
L 960 1497 
z
" transform="scale(0.015625)"/>
     <path id="CMR17-61" d="M 2304 1653 
C 2304 2072 2304 2294 2035 2543 
C 1798 2752 1523 2816 1306 2816 
C 800 2816 435 2407 435 1971 
C 435 1728 627 1728 666 1728 
C 749 1728 896 1778 896 1954 
C 896 2112 774 2181 666 2181 
C 640 2181 608 2174 589 2168 
C 723 2592 1069 2714 1293 2714 
C 1613 2714 1965 2429 1965 1885 
L 1965 1600 
C 1587 1600 1133 1549 774 1357 
C 371 1133 256 813 256 570 
C 256 77 832 -64 1171 -64 
C 1523 -64 1850 139 1990 511 
C 2003 233 2182 -18 2464 -18 
C 2598 -18 2938 70 2938 567 
L 2938 920 
L 2822 920 
L 2822 562 
C 2822 178 2650 128 2566 128 
C 2304 128 2304 458 2304 738 
L 2304 1653 
z
M 1965 870 
C 1965 317 1568 38 1216 38 
C 896 38 646 275 646 570 
C 646 761 730 1100 1101 1305 
C 1408 1478 1760 1504 1965 1504 
L 1965 870 
z
" transform="scale(0.015625)"/>
     <path id="CMR17-62" d="M 960 4396 
L 198 4326 
L 198 4160 
C 576 4160 634 4122 634 3817 
L 634 -13 
L 749 -13 
L 934 441 
C 1120 141 1395 -64 1766 -64 
C 2406 -64 3053 500 3053 1370 
C 3053 2188 2477 2790 1830 2790 
C 1434 2790 1152 2579 960 2330 
L 960 4396 
z
M 973 2004 
C 973 2118 973 2138 1062 2272 
C 1312 2657 1670 2688 1792 2688 
C 1984 2688 2643 2585 2643 1376 
C 2643 108 1888 38 1734 38 
C 1536 38 1248 114 1043 486 
C 973 608 973 621 973 735 
L 973 2004 
z
" transform="scale(0.015625)"/>
     <path id="CMR17-6c" d="M 979 4396 
L 218 4326 
L 218 4160 
C 595 4160 653 4122 653 3817 
L 653 426 
C 653 184 627 153 218 153 
L 218 -13 
C 371 0 653 0 813 0 
C 979 0 1261 0 1414 -13 
L 1414 153 
C 1005 153 979 178 979 426 
L 979 4396 
z
" transform="scale(0.015625)"/>
     <path id="CMR17-79" d="M 2496 2197 
C 2656 2586 2944 2586 3034 2586 
L 3034 2752 
C 2912 2752 2752 2752 2630 2752 
C 2496 2752 2285 2752 2157 2758 
L 2157 2592 
C 2400 2573 2406 2394 2406 2343 
C 2406 2280 2394 2248 2362 2171 
L 1664 449 
L 902 2306 
C 870 2382 870 2426 870 2433 
C 870 2573 1018 2586 1171 2586 
L 1171 2758 
C 1018 2752 742 2752 582 2752 
C 410 2752 205 2752 64 2758 
L 64 2586 
C 410 2586 448 2554 531 2350 
L 1485 15 
C 1197 -738 1030 -1178 627 -1178 
C 557 -1178 397 -1159 282 -1044 
C 429 -1031 493 -942 493 -833 
C 493 -725 416 -629 288 -629 
C 147 -629 77 -725 77 -840 
C 77 -1095 339 -1280 627 -1280 
C 998 -1280 1229 -922 1357 -604 
L 2496 2197 
z
" transform="scale(0.015625)"/>
    </defs>
    <use xlink:href="#CMR17-70" transform="scale(0.996264)"/>
    <use xlink:href="#CMR17-65" transform="translate(53.497809 0) scale(0.996264)"/>
    <use xlink:href="#CMR17-72" transform="translate(93.983469 0) scale(0.996264)"/>
    <use xlink:href="#CMR17-6d" transform="translate(129.264237 0) scale(0.996264)"/>
    <use xlink:href="#CMR17-65" transform="translate(206.183827 0) scale(0.996264)"/>
    <use xlink:href="#CMR17-61" transform="translate(246.669487 0) scale(0.996264)"/>
    <use xlink:href="#CMR17-62" transform="translate(292.359964 0) scale(0.996264)"/>
    <use xlink:href="#CMR17-69" transform="translate(343.255334 0) scale(0.996264)"/>
    <use xlink:href="#CMR17-6c" transform="translate(368.126392 0) scale(0.996264)"/>
    <use xlink:href="#CMR17-69" transform="translate(392.997451 0) scale(0.996264)"/>
    <use xlink:href="#CMR17-74" transform="translate(417.868509 0) scale(0.996264)"/>
    <use xlink:href="#CMR17-79" transform="translate(450.546823 0) scale(0.996264)"/>
   </g>
  </g>
 </g>
 <defs>
  <clipPath id="p4feab24ee0">
   <rect x="48.559071" y="51.564121" width="886.958601" height="469.58891"/>
  </clipPath>
 </defs>
</svg>
