<?xml version="1.0" encoding="utf-8" standalone="no"?>
<!DOCTYPE svg PUBLIC "-//W3C//DTD SVG 1.1//EN"
  "http://www.w3.org/Graphics/SVG/1.1/DTD/svg11.dtd">
<svg xmlns:xlink="http://www.w3.org/1999/xlink" width="1080pt" height="576pt" viewBox="0 0 1080 576" xmlns="http://www.w3.org/2000/svg" version="1.1">
 <metadata>
  <rdf:RDF xmlns:dc="http://purl.org/dc/elements/1.1/" xmlns:cc="http://creativecommons.org/ns#" xmlns:rdf="http://www.w3.org/1999/02/22-rdf-syntax-ns#">
   <cc:Work>
    <dc:type rdf:resource="http://purl.org/dc/dcmitype/StillImage"/>
    <dc:date>2024-06-28T12:53:21.959949</dc:date>
    <dc:format>image/svg+xml</dc:format>
    <dc:creator>
     <cc:Agent>
      <dc:title>Matplotlib v3.9.0, https://matplotlib.org/</dc:title>
     </cc:Agent>
    </dc:creator>
   </cc:Work>
  </rdf:RDF>
 </metadata>
 <defs>
  <style type="text/css">*{stroke-linejoin: round; stroke-linecap: butt}</style>
 </defs>
 <g id="figure_1">
  <g id="patch_1">
   <path d="M 0 576 
L 1080 576 
L 1080 0 
L 0 0 
z
" style="fill: #ffffff"/>
  </g>
  <g id="axes_1">
   <g id="patch_2">
    <path d="M 48.559071 521.153031 
L 935.517672 521.153031 
L 935.517672 51.564121 
L 48.559071 51.564121 
z
" style="fill: #eaeaf2"/>
   </g>
   <g id="matplotlib.axis_1">
    <g id="xtick_1">
     <g id="line2d_1">
      <path d="M 48.559071 521.153031 
L 48.559071 51.564121 
" clip-path="url(#p9b2280f4cb)" style="fill: none; stroke: #ffffff; stroke-linecap: round"/>
     </g>
     <g id="line2d_2"/>
     <g id="text_1">
      <!-- $\mathdefault{0.00}$ -->
      <g style="fill: #262626" transform="translate(36.419535 537.838907) scale(0.14 -0.14)">
       <defs>
        <path id="CMR17-30" d="M 2688 2025 
C 2688 2416 2682 3080 2413 3591 
C 2176 4039 1798 4198 1466 4198 
C 1158 4198 768 4058 525 3597 
C 269 3118 243 2524 243 2025 
C 243 1661 250 1106 448 619 
C 723 -39 1216 -128 1466 -128 
C 1760 -128 2208 -7 2470 600 
C 2662 1042 2688 1559 2688 2025 
z
M 1466 -26 
C 1056 -26 813 325 723 812 
C 653 1188 653 1738 653 2096 
C 653 2588 653 2997 736 3387 
C 858 3929 1216 4096 1466 4096 
C 1728 4096 2067 3923 2189 3400 
C 2272 3036 2278 2607 2278 2096 
C 2278 1680 2278 1169 2202 792 
C 2067 95 1690 -26 1466 -26 
z
" transform="scale(0.015625)"/>
        <path id="CMMI12-3a" d="M 1178 307 
C 1178 492 1024 619 870 619 
C 685 619 557 466 557 313 
C 557 128 710 0 864 0 
C 1050 0 1178 153 1178 307 
z
" transform="scale(0.015625)"/>
       </defs>
       <use xlink:href="#CMR17-30" transform="scale(0.996264)"/>
       <use xlink:href="#CMMI12-3a" transform="translate(45.690477 0) scale(0.996264)"/>
       <use xlink:href="#CMR17-30" transform="translate(72.787654 0) scale(0.996264)"/>
       <use xlink:href="#CMR17-30" transform="translate(118.478131 0) scale(0.996264)"/>
      </g>
     </g>
    </g>
    <g id="xtick_2">
     <g id="line2d_3">
      <path d="M 154.14938 521.153031 
L 154.14938 51.564121 
" clip-path="url(#p9b2280f4cb)" style="fill: none; stroke: #ffffff; stroke-linecap: round"/>
     </g>
     <g id="line2d_4"/>
     <g id="text_2">
      <!-- $\mathdefault{0.25}$ -->
      <g style="fill: #262626" transform="translate(142.009845 537.838907) scale(0.14 -0.14)">
       <defs>
        <path id="CMR17-32" d="M 2669 989 
L 2554 989 
C 2490 536 2438 459 2413 420 
C 2381 369 1920 369 1830 369 
L 602 369 
C 832 619 1280 1072 1824 1597 
C 2214 1967 2669 2402 2669 3035 
C 2669 3790 2067 4224 1395 4224 
C 691 4224 262 3604 262 3030 
C 262 2780 448 2748 525 2748 
C 589 2748 781 2787 781 3010 
C 781 3207 614 3264 525 3264 
C 486 3264 448 3258 422 3245 
C 544 3790 915 4058 1306 4058 
C 1862 4058 2227 3617 2227 3035 
C 2227 2479 1901 2000 1536 1584 
L 262 146 
L 262 0 
L 2515 0 
L 2669 989 
z
" transform="scale(0.015625)"/>
        <path id="CMR17-35" d="M 730 3692 
C 794 3666 1056 3584 1325 3584 
C 1920 3584 2246 3911 2432 4100 
C 2432 4157 2432 4192 2394 4192 
C 2387 4192 2374 4192 2323 4163 
C 2099 4058 1837 3973 1517 3973 
C 1325 3973 1037 3999 723 4139 
C 653 4171 640 4171 634 4171 
C 602 4171 595 4164 595 4037 
L 595 2203 
C 595 2089 595 2057 659 2057 
C 691 2057 704 2070 736 2114 
C 941 2401 1222 2522 1542 2522 
C 1766 2522 2246 2382 2246 1289 
C 2246 1085 2246 715 2054 421 
C 1894 159 1645 25 1370 25 
C 947 25 518 320 403 814 
C 429 807 480 795 506 795 
C 589 795 749 840 749 1038 
C 749 1210 627 1280 506 1280 
C 358 1280 262 1190 262 1011 
C 262 454 704 -128 1382 -128 
C 2042 -128 2669 440 2669 1264 
C 2669 2030 2170 2624 1549 2624 
C 1222 2624 947 2503 730 2274 
L 730 3692 
z
" transform="scale(0.015625)"/>
       </defs>
       <use xlink:href="#CMR17-30" transform="scale(0.996264)"/>
       <use xlink:href="#CMMI12-3a" transform="translate(45.690477 0) scale(0.996264)"/>
       <use xlink:href="#CMR17-32" transform="translate(72.787654 0) scale(0.996264)"/>
       <use xlink:href="#CMR17-35" transform="translate(118.478131 0) scale(0.996264)"/>
      </g>
     </g>
    </g>
    <g id="xtick_3">
     <g id="line2d_5">
      <path d="M 259.73969 521.153031 
L 259.73969 51.564121 
" clip-path="url(#p9b2280f4cb)" style="fill: none; stroke: #ffffff; stroke-linecap: round"/>
     </g>
     <g id="line2d_6"/>
     <g id="text_3">
      <!-- $\mathdefault{0.50}$ -->
      <g style="fill: #262626" transform="translate(247.600155 537.838907) scale(0.14 -0.14)">
       <use xlink:href="#CMR17-30" transform="scale(0.996264)"/>
       <use xlink:href="#CMMI12-3a" transform="translate(45.690477 0) scale(0.996264)"/>
       <use xlink:href="#CMR17-35" transform="translate(72.787654 0) scale(0.996264)"/>
       <use xlink:href="#CMR17-30" transform="translate(118.478131 0) scale(0.996264)"/>
      </g>
     </g>
    </g>
    <g id="xtick_4">
     <g id="line2d_7">
      <path d="M 365.33 521.153031 
L 365.33 51.564121 
" clip-path="url(#p9b2280f4cb)" style="fill: none; stroke: #ffffff; stroke-linecap: round"/>
     </g>
     <g id="line2d_8"/>
     <g id="text_4">
      <!-- $\mathdefault{0.75}$ -->
      <g style="fill: #262626" transform="translate(353.190464 537.838907) scale(0.14 -0.14)">
       <defs>
        <path id="CMR17-37" d="M 2886 3941 
L 2886 4081 
L 1382 4081 
C 634 4081 621 4165 595 4288 
L 480 4288 
L 294 3094 
L 410 3094 
C 429 3215 474 3540 550 3661 
C 589 3712 1062 3712 1171 3712 
L 2579 3712 
L 1869 2661 
C 1395 1954 1069 999 1069 165 
C 1069 89 1069 -128 1299 -128 
C 1530 -128 1530 89 1530 171 
L 1530 465 
C 1530 1508 1709 2196 2003 2636 
L 2886 3941 
z
" transform="scale(0.015625)"/>
       </defs>
       <use xlink:href="#CMR17-30" transform="scale(0.996264)"/>
       <use xlink:href="#CMMI12-3a" transform="translate(45.690477 0) scale(0.996264)"/>
       <use xlink:href="#CMR17-37" transform="translate(72.787654 0) scale(0.996264)"/>
       <use xlink:href="#CMR17-35" transform="translate(118.478131 0) scale(0.996264)"/>
      </g>
     </g>
    </g>
    <g id="xtick_5">
     <g id="line2d_9">
      <path d="M 470.920309 521.153031 
L 470.920309 51.564121 
" clip-path="url(#p9b2280f4cb)" style="fill: none; stroke: #ffffff; stroke-linecap: round"/>
     </g>
     <g id="line2d_10"/>
     <g id="text_5">
      <!-- $\mathdefault{1.00}$ -->
      <g style="fill: #262626" transform="translate(458.780774 537.838907) scale(0.14 -0.14)">
       <defs>
        <path id="CMR17-31" d="M 1702 4058 
C 1702 4192 1696 4192 1606 4192 
C 1357 3916 979 3827 621 3827 
C 602 3827 570 3827 563 3808 
C 557 3795 557 3782 557 3648 
C 755 3648 1088 3686 1344 3839 
L 1344 461 
C 1344 236 1331 160 781 160 
L 589 160 
L 589 0 
C 896 0 1216 0 1523 0 
C 1830 0 2150 0 2458 0 
L 2458 160 
L 2266 160 
C 1715 160 1702 230 1702 458 
L 1702 4058 
z
" transform="scale(0.015625)"/>
       </defs>
       <use xlink:href="#CMR17-31" transform="scale(0.996264)"/>
       <use xlink:href="#CMMI12-3a" transform="translate(45.690477 0) scale(0.996264)"/>
       <use xlink:href="#CMR17-30" transform="translate(72.787654 0) scale(0.996264)"/>
       <use xlink:href="#CMR17-30" transform="translate(118.478131 0) scale(0.996264)"/>
      </g>
     </g>
    </g>
    <g id="xtick_6">
     <g id="line2d_11">
      <path d="M 576.510619 521.153031 
L 576.510619 51.564121 
" clip-path="url(#p9b2280f4cb)" style="fill: none; stroke: #ffffff; stroke-linecap: round"/>
     </g>
     <g id="line2d_12"/>
     <g id="text_6">
      <!-- $\mathdefault{1.25}$ -->
      <g style="fill: #262626" transform="translate(564.371084 537.838907) scale(0.14 -0.14)">
       <use xlink:href="#CMR17-31" transform="scale(0.996264)"/>
       <use xlink:href="#CMMI12-3a" transform="translate(45.690477 0) scale(0.996264)"/>
       <use xlink:href="#CMR17-32" transform="translate(72.787654 0) scale(0.996264)"/>
       <use xlink:href="#CMR17-35" transform="translate(118.478131 0) scale(0.996264)"/>
      </g>
     </g>
    </g>
    <g id="xtick_7">
     <g id="line2d_13">
      <path d="M 682.100929 521.153031 
L 682.100929 51.564121 
" clip-path="url(#p9b2280f4cb)" style="fill: none; stroke: #ffffff; stroke-linecap: round"/>
     </g>
     <g id="line2d_14"/>
     <g id="text_7">
      <!-- $\mathdefault{1.50}$ -->
      <g style="fill: #262626" transform="translate(669.961393 537.838907) scale(0.14 -0.14)">
       <use xlink:href="#CMR17-31" transform="scale(0.996264)"/>
       <use xlink:href="#CMMI12-3a" transform="translate(45.690477 0) scale(0.996264)"/>
       <use xlink:href="#CMR17-35" transform="translate(72.787654 0) scale(0.996264)"/>
       <use xlink:href="#CMR17-30" transform="translate(118.478131 0) scale(0.996264)"/>
      </g>
     </g>
    </g>
    <g id="xtick_8">
     <g id="line2d_15">
      <path d="M 787.691238 521.153031 
L 787.691238 51.564121 
" clip-path="url(#p9b2280f4cb)" style="fill: none; stroke: #ffffff; stroke-linecap: round"/>
     </g>
     <g id="line2d_16"/>
     <g id="text_8">
      <!-- $\mathdefault{1.75}$ -->
      <g style="fill: #262626" transform="translate(775.551703 537.838907) scale(0.14 -0.14)">
       <use xlink:href="#CMR17-31" transform="scale(0.996264)"/>
       <use xlink:href="#CMMI12-3a" transform="translate(45.690477 0) scale(0.996264)"/>
       <use xlink:href="#CMR17-37" transform="translate(72.787654 0) scale(0.996264)"/>
       <use xlink:href="#CMR17-35" transform="translate(118.478131 0) scale(0.996264)"/>
      </g>
     </g>
    </g>
    <g id="xtick_9">
     <g id="line2d_17">
      <path d="M 893.281548 521.153031 
L 893.281548 51.564121 
" clip-path="url(#p9b2280f4cb)" style="fill: none; stroke: #ffffff; stroke-linecap: round"/>
     </g>
     <g id="line2d_18"/>
     <g id="text_9">
      <!-- $\mathdefault{2.00}$ -->
      <g style="fill: #262626" transform="translate(881.142013 537.838907) scale(0.14 -0.14)">
       <use xlink:href="#CMR17-32" transform="scale(0.996264)"/>
       <use xlink:href="#CMMI12-3a" transform="translate(45.690477 0) scale(0.996264)"/>
       <use xlink:href="#CMR17-30" transform="translate(72.787654 0) scale(0.996264)"/>
       <use xlink:href="#CMR17-30" transform="translate(118.478131 0) scale(0.996264)"/>
      </g>
     </g>
    </g>
    <g id="text_10">
     <!-- $x$ -->
     <g style="fill: #262626" transform="translate(487.603646 555.620524) scale(0.16 -0.16)">
      <defs>
       <path id="CMMI12-78" d="M 3034 2606 
C 2829 2567 2752 2414 2752 2293 
C 2752 2139 2874 2088 2963 2088 
C 3155 2088 3290 2254 3290 2427 
C 3290 2695 2982 2816 2714 2816 
C 2323 2816 2106 2433 2048 2312 
C 1901 2816 1504 2816 1389 2816 
C 736 2816 390 1980 390 1839 
C 390 1814 416 1782 461 1782 
C 512 1782 525 1820 538 1846 
C 755 2555 1184 2689 1370 2689 
C 1658 2689 1715 2420 1715 2267 
C 1715 2127 1677 1980 1600 1673 
L 1382 798 
C 1286 415 1101 64 762 64 
C 730 64 570 64 435 147 
C 666 192 717 383 717 460 
C 717 588 621 664 499 664 
C 346 664 179 530 179 326 
C 179 57 480 -64 755 -64 
C 1062 -64 1280 179 1414 441 
C 1517 64 1837 -64 2074 -64 
C 2726 -64 3072 773 3072 913 
C 3072 945 3046 971 3008 971 
C 2950 971 2944 939 2925 888 
C 2752 326 2381 64 2093 64 
C 1869 64 1747 230 1747 492 
C 1747 632 1773 734 1875 1156 
L 2099 2024 
C 2195 2408 2413 2689 2707 2689 
C 2720 2689 2899 2689 3034 2606 
z
" transform="scale(0.015625)"/>
      </defs>
      <use xlink:href="#CMMI12-78" transform="scale(0.996264)"/>
     </g>
    </g>
   </g>
   <g id="matplotlib.axis_2">
    <g id="ytick_1">
     <g id="line2d_19">
      <path d="M 48.559071 521.153031 
L 935.517672 521.153031 
" clip-path="url(#p9b2280f4cb)" style="fill: none; stroke: #ffffff; stroke-linecap: round"/>
     </g>
     <g id="line2d_20"/>
     <g id="text_11">
      <!-- $\mathdefault{0.00}$ -->
      <g style="fill: #262626" transform="translate(17.28 525.995969) scale(0.14 -0.14)">
       <use xlink:href="#CMR17-30" transform="scale(0.996264)"/>
       <use xlink:href="#CMMI12-3a" transform="translate(45.690477 0) scale(0.996264)"/>
       <use xlink:href="#CMR17-30" transform="translate(72.787654 0) scale(0.996264)"/>
       <use xlink:href="#CMR17-30" transform="translate(118.478131 0) scale(0.996264)"/>
      </g>
     </g>
    </g>
    <g id="ytick_2">
     <g id="line2d_21">
      <path d="M 48.559071 465.295959 
L 935.517672 465.295959 
" clip-path="url(#p9b2280f4cb)" style="fill: none; stroke: #ffffff; stroke-linecap: round"/>
     </g>
     <g id="line2d_22"/>
     <g id="text_12">
      <!-- $\mathdefault{0.25}$ -->
      <g style="fill: #262626" transform="translate(17.28 470.138897) scale(0.14 -0.14)">
       <use xlink:href="#CMR17-30" transform="scale(0.996264)"/>
       <use xlink:href="#CMMI12-3a" transform="translate(45.690477 0) scale(0.996264)"/>
       <use xlink:href="#CMR17-32" transform="translate(72.787654 0) scale(0.996264)"/>
       <use xlink:href="#CMR17-35" transform="translate(118.478131 0) scale(0.996264)"/>
      </g>
     </g>
    </g>
    <g id="ytick_3">
     <g id="line2d_23">
      <path d="M 48.559071 409.438888 
L 935.517672 409.438888 
" clip-path="url(#p9b2280f4cb)" style="fill: none; stroke: #ffffff; stroke-linecap: round"/>
     </g>
     <g id="line2d_24"/>
     <g id="text_13">
      <!-- $\mathdefault{0.50}$ -->
      <g style="fill: #262626" transform="translate(17.28 414.281826) scale(0.14 -0.14)">
       <use xlink:href="#CMR17-30" transform="scale(0.996264)"/>
       <use xlink:href="#CMMI12-3a" transform="translate(45.690477 0) scale(0.996264)"/>
       <use xlink:href="#CMR17-35" transform="translate(72.787654 0) scale(0.996264)"/>
       <use xlink:href="#CMR17-30" transform="translate(118.478131 0) scale(0.996264)"/>
      </g>
     </g>
    </g>
    <g id="ytick_4">
     <g id="line2d_25">
      <path d="M 48.559071 353.581816 
L 935.517672 353.581816 
" clip-path="url(#p9b2280f4cb)" style="fill: none; stroke: #ffffff; stroke-linecap: round"/>
     </g>
     <g id="line2d_26"/>
     <g id="text_14">
      <!-- $\mathdefault{0.75}$ -->
      <g style="fill: #262626" transform="translate(17.28 358.424754) scale(0.14 -0.14)">
       <use xlink:href="#CMR17-30" transform="scale(0.996264)"/>
       <use xlink:href="#CMMI12-3a" transform="translate(45.690477 0) scale(0.996264)"/>
       <use xlink:href="#CMR17-37" transform="translate(72.787654 0) scale(0.996264)"/>
       <use xlink:href="#CMR17-35" transform="translate(118.478131 0) scale(0.996264)"/>
      </g>
     </g>
    </g>
    <g id="ytick_5">
     <g id="line2d_27">
      <path d="M 48.559071 297.724745 
L 935.517672 297.724745 
" clip-path="url(#p9b2280f4cb)" style="fill: none; stroke: #ffffff; stroke-linecap: round"/>
     </g>
     <g id="line2d_28"/>
     <g id="text_15">
      <!-- $\mathdefault{1.00}$ -->
      <g style="fill: #262626" transform="translate(17.28 302.567683) scale(0.14 -0.14)">
       <use xlink:href="#CMR17-31" transform="scale(0.996264)"/>
       <use xlink:href="#CMMI12-3a" transform="translate(45.690477 0) scale(0.996264)"/>
       <use xlink:href="#CMR17-30" transform="translate(72.787654 0) scale(0.996264)"/>
       <use xlink:href="#CMR17-30" transform="translate(118.478131 0) scale(0.996264)"/>
      </g>
     </g>
    </g>
    <g id="ytick_6">
     <g id="line2d_29">
      <path d="M 48.559071 241.867673 
L 935.517672 241.867673 
" clip-path="url(#p9b2280f4cb)" style="fill: none; stroke: #ffffff; stroke-linecap: round"/>
     </g>
     <g id="line2d_30"/>
     <g id="text_16">
      <!-- $\mathdefault{1.25}$ -->
      <g style="fill: #262626" transform="translate(17.28 246.710611) scale(0.14 -0.14)">
       <use xlink:href="#CMR17-31" transform="scale(0.996264)"/>
       <use xlink:href="#CMMI12-3a" transform="translate(45.690477 0) scale(0.996264)"/>
       <use xlink:href="#CMR17-32" transform="translate(72.787654 0) scale(0.996264)"/>
       <use xlink:href="#CMR17-35" transform="translate(118.478131 0) scale(0.996264)"/>
      </g>
     </g>
    </g>
    <g id="ytick_7">
     <g id="line2d_31">
      <path d="M 48.559071 186.010602 
L 935.517672 186.010602 
" clip-path="url(#p9b2280f4cb)" style="fill: none; stroke: #ffffff; stroke-linecap: round"/>
     </g>
     <g id="line2d_32"/>
     <g id="text_17">
      <!-- $\mathdefault{1.50}$ -->
      <g style="fill: #262626" transform="translate(17.28 190.85354) scale(0.14 -0.14)">
       <use xlink:href="#CMR17-31" transform="scale(0.996264)"/>
       <use xlink:href="#CMMI12-3a" transform="translate(45.690477 0) scale(0.996264)"/>
       <use xlink:href="#CMR17-35" transform="translate(72.787654 0) scale(0.996264)"/>
       <use xlink:href="#CMR17-30" transform="translate(118.478131 0) scale(0.996264)"/>
      </g>
     </g>
    </g>
    <g id="ytick_8">
     <g id="line2d_33">
      <path d="M 48.559071 130.15353 
L 935.517672 130.15353 
" clip-path="url(#p9b2280f4cb)" style="fill: none; stroke: #ffffff; stroke-linecap: round"/>
     </g>
     <g id="line2d_34"/>
     <g id="text_18">
      <!-- $\mathdefault{1.75}$ -->
      <g style="fill: #262626" transform="translate(17.28 134.996468) scale(0.14 -0.14)">
       <use xlink:href="#CMR17-31" transform="scale(0.996264)"/>
       <use xlink:href="#CMMI12-3a" transform="translate(45.690477 0) scale(0.996264)"/>
       <use xlink:href="#CMR17-37" transform="translate(72.787654 0) scale(0.996264)"/>
       <use xlink:href="#CMR17-35" transform="translate(118.478131 0) scale(0.996264)"/>
      </g>
     </g>
    </g>
    <g id="ytick_9">
     <g id="line2d_35">
      <path d="M 48.559071 74.296459 
L 935.517672 74.296459 
" clip-path="url(#p9b2280f4cb)" style="fill: none; stroke: #ffffff; stroke-linecap: round"/>
     </g>
     <g id="line2d_36"/>
     <g id="text_19">
      <!-- $\mathdefault{2.00}$ -->
      <g style="fill: #262626" transform="translate(17.28 79.139397) scale(0.14 -0.14)">
       <use xlink:href="#CMR17-32" transform="scale(0.996264)"/>
       <use xlink:href="#CMMI12-3a" transform="translate(45.690477 0) scale(0.996264)"/>
       <use xlink:href="#CMR17-30" transform="translate(72.787654 0) scale(0.996264)"/>
       <use xlink:href="#CMR17-30" transform="translate(118.478131 0) scale(0.996264)"/>
      </g>
     </g>
    </g>
   </g>
   <g id="line2d_37">
    <path d="M 48.559071 74.296459 
L 57.006295 74.296459 
L 65.45352 74.296459 
L 73.900745 74.296459 
L 82.34797 74.296459 
L 90.795195 74.296459 
L 99.242419 74.296459 
L 107.689644 74.296459 
L 116.136869 74.296459 
L 124.584094 74.296459 
L 133.031318 74.296459 
L 141.478543 74.296459 
L 149.925768 74.296459 
L 158.372993 74.296459 
L 166.820217 74.296459 
L 175.267442 74.296459 
L 183.714667 74.296459 
L 192.161892 74.296459 
L 200.609117 74.296459 
L 209.056341 74.296459 
L 217.503566 74.296459 
L 225.950791 74.296459 
L 234.398016 74.296459 
L 242.84524 74.296459 
L 251.292465 74.296459 
L 259.73969 74.296459 
L 268.186915 74.296459 
L 276.63414 74.296459 
L 285.081364 74.296459 
L 293.528589 74.296459 
L 301.975814 74.296459 
L 310.423039 74.296459 
L 318.870263 74.296459 
L 327.317488 74.296459 
L 335.764713 74.296459 
L 344.211938 74.296459 
L 352.659162 74.296459 
L 361.106387 74.296459 
L 369.553612 74.296459 
L 378.000837 74.296459 
L 386.448062 74.296459 
L 394.895286 74.296459 
L 403.342511 74.296459 
L 411.789736 74.296459 
L 420.236961 74.296459 
L 428.684185 74.296459 
L 437.13141 74.296459 
L 445.578635 74.296459 
L 454.02586 74.296459 
L 462.473085 74.296459 
L 470.920309 74.296459 
L 479.367534 74.296459 
L 487.814759 74.296459 
L 496.261984 74.296459 
L 504.709208 74.296459 
L 513.156433 74.296459 
L 521.603658 74.296459 
L 530.050883 74.296459 
L 538.498107 74.296459 
L 546.945332 74.296459 
L 555.392557 74.296459 
L 563.839782 74.296459 
L 572.287007 74.296459 
L 580.734231 74.296459 
L 589.181456 74.296459 
L 597.628681 74.296459 
L 606.075906 74.296459 
L 614.52313 74.296459 
L 622.970355 74.296459 
L 631.41758 74.296459 
L 639.864805 74.296459 
L 648.31203 74.296459 
L 656.759254 74.296459 
L 665.206479 74.296459 
L 673.653704 74.296459 
L 682.100929 74.296459 
L 690.548153 74.296459 
L 698.995378 74.296459 
L 707.442603 74.296459 
L 715.889828 74.296459 
L 724.337052 74.296459 
L 732.784277 74.296459 
L 741.231502 74.296459 
L 749.678727 74.296459 
L 758.125952 74.296459 
L 766.573176 74.296459 
L 775.020401 74.296459 
L 783.467626 74.296459 
L 791.914851 74.296459 
L 800.362075 74.296459 
L 808.8093 74.296459 
L 817.256525 74.296459 
L 825.70375 74.296459 
L 834.150975 74.296459 
L 842.598199 74.296459 
L 851.045424 74.296459 
L 859.492649 74.296459 
L 867.939874 74.296459 
L 876.387098 74.296459 
L 884.834323 74.296459 
L 893.281548 74.296459 
" clip-path="url(#p9b2280f4cb)" style="fill: none; stroke: #393b79; stroke-width: 2; stroke-linecap: round"/>
   </g>
   <g id="line2d_38">
    <path d="M 48.559071 190.686728 
L 57.006295 189.560823 
L 65.45352 188.450224 
L 73.900745 187.354999 
L 82.34797 186.27477 
L 90.795195 185.20912 
L 99.242419 184.116975 
L 107.689644 183.037808 
L 116.136869 181.973093 
L 124.584094 180.922669 
L 133.031318 179.886469 
L 141.478543 178.864142 
L 149.925768 177.855431 
L 158.372993 176.860214 
L 166.820217 175.870572 
L 175.267442 174.861459 
L 183.714667 173.865757 
L 192.161892 172.883122 
L 200.609117 171.913392 
L 209.056341 170.956398 
L 217.503566 170.011981 
L 225.950791 169.079875 
L 234.398016 168.159944 
L 242.84524 167.251962 
L 251.292465 166.346041 
L 259.73969 165.424294 
L 268.186915 164.514424 
L 276.63414 163.616263 
L 285.081364 162.729707 
L 293.528589 161.854495 
L 301.975814 160.990444 
L 310.423039 160.137526 
L 318.870263 159.295467 
L 327.317488 158.464067 
L 335.764713 157.643238 
L 344.211938 156.832849 
L 352.659162 156.003653 
L 361.106387 155.179888 
L 369.553612 154.366518 
L 378.000837 153.563358 
L 386.448062 152.770276 
L 394.895286 151.987135 
L 403.342511 151.213762 
L 411.789736 150.450031 
L 420.236961 149.695849 
L 428.684185 148.951037 
L 437.13141 148.215421 
L 445.578635 147.488961 
L 454.02586 146.771495 
L 462.473085 146.047444 
L 470.920309 145.317265 
L 479.367534 144.596081 
L 487.814759 143.88373 
L 496.261984 143.18009 
L 504.709208 142.485068 
L 513.156433 141.798533 
L 521.603658 141.120361 
L 530.050883 140.45046 
L 538.498107 139.788674 
L 546.945332 139.13492 
L 555.392557 138.489142 
L 563.839782 137.851154 
L 572.287007 137.220847 
L 580.734231 136.598192 
L 589.181456 135.983026 
L 597.628681 135.36192 
L 606.075906 134.73506 
L 614.52313 134.115734 
L 622.970355 133.503802 
L 631.41758 132.899172 
L 639.864805 132.301803 
L 648.31203 131.711549 
L 656.759254 131.128303 
L 665.206479 130.552 
L 673.653704 129.982548 
L 682.100929 129.419842 
L 690.548153 128.863801 
L 698.995378 128.314354 
L 707.442603 127.771388 
L 715.889828 127.234823 
L 724.337052 126.704598 
L 732.784277 126.180612 
L 741.231502 125.662773 
L 749.678727 125.151025 
L 758.125952 124.645278 
L 766.573176 124.131172 
L 775.020401 123.615169 
L 783.467626 123.105184 
L 791.914851 122.601156 
L 800.362075 122.103005 
L 808.8093 121.610643 
L 817.256525 121.123999 
L 825.70375 120.643019 
L 834.150975 120.167621 
L 842.598199 119.697728 
L 851.045424 119.233273 
L 859.492649 118.774205 
L 867.939874 118.320434 
L 876.387098 117.871892 
L 884.834323 117.428534 
L 893.281548 116.990287 
" clip-path="url(#p9b2280f4cb)" style="fill: none; stroke: #6b6ecf; stroke-width: 2; stroke-linecap: round"/>
   </g>
   <g id="line2d_39">
    <path d="M 48.559071 413.252418 
L 57.006295 411.006069 
L 65.45352 408.763873 
L 73.900745 406.522504 
L 82.34797 404.276202 
L 90.795195 402.033281 
L 99.242419 399.793523 
L 107.689644 397.556652 
L 116.136869 395.321885 
L 124.584094 393.08563 
L 133.031318 390.852613 
L 141.478543 388.623462 
L 149.925768 386.39844 
L 158.372993 384.17769 
L 166.820217 381.961854 
L 175.267442 379.751532 
L 183.714667 377.542596 
L 192.161892 375.337307 
L 200.609117 373.137856 
L 209.056341 370.945348 
L 217.503566 368.760983 
L 225.950791 366.585812 
L 234.398016 364.413404 
L 242.84524 362.242038 
L 251.292465 360.08219 
L 259.73969 357.93555 
L 268.186915 355.789258 
L 276.63414 353.647415 
L 285.081364 351.521983 
L 293.528589 349.402023 
L 301.975814 347.282752 
L 310.423039 345.184072 
L 318.870263 343.084134 
L 327.317488 340.994026 
L 335.764713 338.924245 
L 344.211938 336.843647 
L 352.659162 334.791334 
L 361.106387 332.731868 
L 369.553612 330.693347 
L 378.000837 328.658133 
L 386.448062 326.635527 
L 394.895286 324.622436 
L 403.342511 322.617979 
L 411.789736 320.624748 
L 420.236961 318.641465 
L 428.684185 316.666284 
L 437.13141 314.707446 
L 445.578635 312.748146 
L 454.02586 310.81775 
L 462.473085 308.872632 
L 470.920309 306.964476 
L 479.367534 305.041856 
L 487.814759 303.145364 
L 496.261984 301.259148 
L 504.709208 299.372594 
L 513.156433 297.520649 
L 521.603658 295.649899 
L 530.050883 293.805726 
L 538.498107 291.981886 
L 546.945332 290.14378 
L 555.392557 288.33841 
L 563.839782 286.540074 
L 572.287007 284.738931 
L 580.734231 282.969327 
L 589.181456 281.202159 
L 597.628681 279.434913 
L 606.075906 277.697977 
L 614.52313 275.968582 
L 622.970355 274.232272 
L 631.41758 272.525374 
L 639.864805 270.841171 
L 648.31203 269.133142 
L 656.759254 267.453637 
L 665.206479 265.801765 
L 673.653704 264.140725 
L 682.100929 262.486068 
L 690.548153 260.858403 
L 698.995378 259.257179 
L 707.442603 257.627575 
L 715.889828 256.02177 
L 724.337052 254.441628 
L 732.784277 252.88406 
L 741.231502 251.298037 
L 749.678727 249.736985 
L 758.125952 248.20044 
L 766.573176 246.687849 
L 775.020401 245.151024 
L 783.467626 243.63103 
L 791.914851 242.134373 
L 800.362075 240.660777 
L 808.8093 239.187672 
L 817.256525 237.705359 
L 825.70375 236.24541 
L 834.150975 234.807506 
L 842.598199 233.391148 
L 851.045424 231.963712 
L 859.492649 230.53748 
L 867.939874 229.132361 
L 876.387098 227.747957 
L 884.834323 226.383949 
L 893.281548 225.016892 
" clip-path="url(#p9b2280f4cb)" style="fill: none; stroke: #637939; stroke-width: 2; stroke-linecap: round"/>
   </g>
   <g id="line2d_40">
    <path d="M 48.559071 491.927888 
L 57.006295 490.216341 
L 65.45352 488.473937 
L 73.900745 486.701302 
L 82.34797 484.900203 
L 90.795195 483.071848 
L 99.242419 481.216761 
L 107.689644 479.336796 
L 116.136869 477.432526 
L 124.584094 475.505641 
L 133.031318 473.556603 
L 141.478543 471.586313 
L 149.925768 469.59673 
L 158.372993 467.586986 
L 166.820217 465.559986 
L 175.267442 463.515482 
L 183.714667 461.455462 
L 192.161892 459.379994 
L 200.609117 457.289475 
L 209.056341 455.185096 
L 217.503566 453.068581 
L 225.950791 450.940475 
L 234.398016 448.799434 
L 242.84524 446.649097 
L 251.292465 444.490032 
L 259.73969 442.319174 
L 268.186915 440.140734 
L 276.63414 437.954874 
L 285.081364 435.76215 
L 293.528589 433.563111 
L 301.975814 431.358979 
L 310.423039 429.149722 
L 318.870263 426.932627 
L 327.317488 424.713471 
L 335.764713 422.493159 
L 344.211938 420.265031 
L 352.659162 418.040828 
L 361.106387 415.806801 
L 369.553612 413.577766 
L 378.000837 411.343981 
L 386.448062 409.109965 
L 394.895286 406.879421 
L 403.342511 404.647032 
L 411.789736 402.412648 
L 420.236961 400.181426 
L 428.684185 397.953122 
L 437.13141 395.727334 
L 445.578635 393.504115 
L 454.02586 391.283567 
L 462.473085 389.065587 
L 470.920309 386.850484 
L 479.367534 384.63829 
L 487.814759 382.429846 
L 496.261984 380.225064 
L 504.709208 378.025107 
L 513.156433 375.830375 
L 521.603658 373.641705 
L 530.050883 371.460485 
L 538.498107 369.287439 
L 546.945332 367.118296 
L 555.392557 364.948831 
L 563.839782 362.789487 
L 572.287007 360.641847 
L 580.734231 358.502035 
L 589.181456 356.358434 
L 597.628681 354.229492 
L 606.075906 352.117357 
L 614.52313 349.993967 
L 622.970355 347.888409 
L 631.41758 345.799045 
L 639.864805 343.700007 
L 648.31203 341.624341 
L 656.759254 339.550913 
L 665.206479 337.484814 
L 673.653704 335.438918 
L 682.100929 333.384334 
L 690.548153 331.36144 
L 698.995378 329.322086 
L 707.442603 327.315385 
L 715.889828 325.297986 
L 724.337052 323.310044 
L 732.784277 321.312395 
L 741.231502 319.34603 
L 749.678727 317.366289 
L 758.125952 315.424989 
L 766.573176 313.460953 
L 775.020401 311.534687 
L 783.467626 309.598553 
L 791.914851 307.685553 
L 800.362075 305.781385 
L 808.8093 303.879892 
L 817.256525 302.012826 
L 825.70375 300.12115 
L 834.150975 298.264092 
L 842.598199 296.412844 
L 851.045424 294.563468 
L 859.492649 292.747442 
L 867.939874 290.91644 
L 876.387098 289.105796 
L 884.834323 287.32725 
L 893.281548 285.521532 
" clip-path="url(#p9b2280f4cb)" style="fill: none; stroke: #b5cf6b; stroke-width: 2; stroke-linecap: round"/>
   </g>
   <g id="line2d_41">
    <path d="M 48.559071 520.5953 
L 57.006295 520.25406 
L 65.45352 519.836318 
L 73.900745 519.344405 
L 82.34797 518.780537 
L 90.795195 518.146911 
L 99.242419 517.445718 
L 107.689644 516.679031 
L 116.136869 515.848776 
L 124.584094 514.957186 
L 133.031318 514.005975 
L 141.478543 512.997244 
L 149.925768 511.932783 
L 158.372993 510.814459 
L 166.820217 509.643986 
L 175.267442 508.42312 
L 183.714667 507.153592 
L 192.161892 505.837131 
L 200.609117 504.475186 
L 209.056341 503.06938 
L 217.503566 501.621439 
L 225.950791 500.132586 
L 234.398016 498.604624 
L 242.84524 497.038741 
L 251.292465 495.436494 
L 259.73969 493.798987 
L 268.186915 492.127968 
L 276.63414 490.424248 
L 285.081364 488.689667 
L 293.528589 486.925008 
L 301.975814 485.131758 
L 310.423039 483.310847 
L 318.870263 481.463921 
L 327.317488 479.591537 
L 335.764713 477.694743 
L 344.211938 475.775545 
L 352.659162 473.833556 
L 361.106387 471.870925 
L 369.553612 469.888312 
L 378.000837 467.887088 
L 386.448062 465.867107 
L 394.895286 463.830831 
L 403.342511 461.776842 
L 411.789736 459.708225 
L 420.236961 457.62517 
L 428.684185 455.528946 
L 437.13141 453.41918 
L 445.578635 451.29627 
L 454.02586 449.164604 
L 462.473085 447.019209 
L 470.920309 444.865523 
L 479.367534 442.703518 
L 487.814759 440.533236 
L 496.261984 438.353354 
L 504.709208 436.167181 
L 513.156433 433.974454 
L 521.603658 431.774058 
L 530.050883 429.56878 
L 538.498107 427.359941 
L 546.945332 425.149929 
L 555.392557 422.92972 
L 563.839782 420.711252 
L 572.287007 418.487815 
L 580.734231 416.264732 
L 589.181456 414.036726 
L 597.628681 411.813239 
L 606.075906 409.58252 
L 614.52313 407.353955 
L 622.970355 405.128836 
L 631.41758 402.903174 
L 639.864805 400.674556 
L 648.31203 398.449339 
L 656.759254 396.226831 
L 665.206479 394.006974 
L 673.653704 391.790116 
L 682.100929 389.576097 
L 690.548153 387.365171 
L 698.995378 385.157454 
L 707.442603 382.953545 
L 715.889828 380.753894 
L 724.337052 378.559034 
L 732.784277 376.369805 
L 741.231502 374.186872 
L 749.678727 372.011634 
L 758.125952 369.839181 
L 766.573176 367.667373 
L 775.020401 365.504563 
L 783.467626 363.352248 
L 791.914851 361.211844 
L 800.362075 359.06379 
L 808.8093 356.927726 
L 817.256525 354.80673 
L 825.70375 352.687237 
L 834.150975 350.571362 
L 842.598199 348.474201 
L 851.045424 346.376808 
L 859.492649 344.286898 
L 867.939874 342.220267 
L 876.387098 340.138757 
L 884.834323 338.082442 
L 893.281548 336.02869 
" clip-path="url(#p9b2280f4cb)" style="fill: none; stroke: #8c6d31; stroke-width: 2; stroke-linecap: round"/>
   </g>
   <g id="line2d_42">
    <path d="M 48.559071 522.102934 
L 57.006295 521.26868 
L 65.45352 521.019833 
L 73.900745 520.828233 
L 82.34797 520.555728 
L 90.795195 520.204713 
L 99.242419 519.777562 
L 107.689644 519.276555 
L 116.136869 518.703846 
L 124.584094 518.061786 
L 133.031318 517.352335 
L 141.478543 516.577717 
L 149.925768 515.739935 
L 158.372993 514.840997 
L 166.820217 513.882783 
L 175.267442 512.867298 
L 183.714667 511.796326 
L 192.161892 510.671734 
L 200.609117 509.495212 
L 209.056341 508.268605 
L 217.503566 506.99357 
L 225.950791 505.671772 
L 234.398016 504.304711 
L 242.84524 502.894072 
L 251.292465 501.441425 
L 259.73969 499.948366 
L 268.186915 498.415954 
L 276.63414 496.846206 
L 285.081364 495.240093 
L 293.528589 493.598781 
L 301.975814 491.924384 
L 310.423039 490.217336 
L 318.870263 488.479746 
L 327.317488 486.711785 
L 335.764713 484.915683 
L 344.211938 483.092706 
L 352.659162 481.242615 
L 361.106387 479.367798 
L 369.553612 477.469323 
L 378.000837 475.547496 
L 386.448062 473.604623 
L 394.895286 471.640112 
L 403.342511 469.655642 
L 411.789736 467.65187 
L 420.236961 465.631351 
L 428.684185 463.592412 
L 437.13141 461.538086 
L 445.578635 459.468432 
L 454.02586 457.38416 
L 462.473085 455.286151 
L 470.920309 453.176465 
L 479.367534 451.053352 
L 487.814759 448.919632 
L 496.261984 446.774594 
L 504.709208 444.621795 
L 513.156433 442.458354 
L 521.603658 440.285716 
L 530.050883 438.106089 
L 538.498107 435.919543 
L 546.945332 433.72712 
L 555.392557 431.529783 
L 563.839782 429.323873 
L 572.287007 427.113882 
L 580.734231 424.902393 
L 589.181456 422.685607 
L 597.628681 420.465068 
L 606.075906 418.24482 
L 614.52313 416.019275 
L 622.970355 413.794231 
L 631.41758 411.569539 
L 639.864805 409.33946 
L 648.31203 407.113403 
L 656.759254 404.890327 
L 665.206479 402.66096 
L 673.653704 400.434372 
L 682.100929 398.210703 
L 690.548153 395.989836 
L 698.995378 393.771513 
L 707.442603 391.55593 
L 715.889828 389.343125 
L 724.337052 387.133199 
L 732.784277 384.926531 
L 741.231502 382.723313 
L 749.678727 380.524415 
L 758.125952 378.330201 
L 766.573176 376.141315 
L 775.020401 373.958874 
L 783.467626 371.783907 
L 791.914851 369.617328 
L 800.362075 367.44591 
L 808.8093 365.28307 
L 817.256525 363.130654 
L 825.70375 360.990063 
L 834.150975 358.847711 
L 842.598199 356.711343 
L 851.045424 354.589773 
L 859.492649 352.475843 
L 867.939874 350.359387 
L 876.387098 348.261446 
L 884.834323 346.169359 
L 893.281548 344.078599 
" clip-path="url(#p9b2280f4cb)" style="fill: none; stroke: #e7cb94; stroke-width: 2; stroke-linecap: round"/>
   </g>
   <g id="line2d_43">
    <path d="M 48.559071 523.752495 
L 57.006295 521.753969 
L 65.45352 521.16542 
L 73.900745 520.973439 
L 82.34797 520.758469 
L 90.795195 520.463291 
L 99.242419 520.090313 
L 107.689644 519.641853 
L 116.136869 519.120114 
L 124.584094 518.527465 
L 133.031318 517.86592 
L 141.478543 517.13772 
L 149.925768 516.344902 
L 158.372993 515.489513 
L 166.820217 514.573471 
L 175.267442 513.598824 
L 183.714667 512.567338 
L 192.161892 511.480961 
L 200.609117 510.341429 
L 209.056341 509.150519 
L 217.503566 507.910051 
L 225.950791 506.621493 
L 234.398016 505.286681 
L 242.84524 503.90717 
L 251.292465 502.484586 
L 259.73969 501.020361 
L 268.186915 499.516 
L 276.63414 497.972835 
L 285.081364 496.392514 
L 293.528589 494.776279 
L 301.975814 493.125622 
L 310.423039 491.441955 
L 318.870263 489.726206 
L 327.317488 487.98003 
L 335.764713 486.204145 
L 344.211938 484.400543 
L 352.659162 482.569237 
L 361.106387 480.712674 
L 369.553612 478.83104 
L 378.000837 476.925469 
L 386.448062 474.998229 
L 394.895286 473.048477 
L 403.342511 471.078328 
L 411.789736 469.089299 
L 420.236961 467.08009 
L 428.684185 465.054911 
L 437.13141 463.011242 
L 445.578635 460.952361 
L 454.02586 458.878627 
L 462.473085 456.790535 
L 470.920309 454.689695 
L 479.367534 452.576334 
L 487.814759 450.44942 
L 496.261984 448.313834 
L 504.709208 446.165774 
L 513.156433 444.008554 
L 521.603658 441.843229 
L 530.050883 439.670039 
L 538.498107 437.488773 
L 546.945332 435.300145 
L 555.392557 433.104769 
L 563.839782 430.903902 
L 572.287007 428.699045 
L 580.734231 426.491897 
L 589.181456 424.274848 
L 597.628681 422.05821 
L 606.075906 419.838286 
L 614.52313 417.615356 
L 622.970355 415.391058 
L 631.41758 413.166947 
L 639.864805 410.937626 
L 648.31203 408.71256 
L 656.759254 406.487088 
L 665.206479 404.257425 
L 673.653704 402.031167 
L 682.100929 399.807736 
L 690.548153 397.58694 
L 698.995378 395.368443 
L 707.442603 393.149824 
L 715.889828 390.933322 
L 724.337052 388.720529 
L 732.784277 386.511811 
L 741.231502 384.30735 
L 749.678727 382.108009 
L 758.125952 379.911449 
L 766.573176 377.717029 
L 775.020401 375.527875 
L 783.467626 373.344876 
L 791.914851 371.168807 
L 800.362075 369.001008 
L 808.8093 366.842726 
L 817.256525 364.680014 
L 825.70375 362.525503 
L 834.150975 360.382628 
L 842.598199 358.25332 
L 851.045424 356.115379 
L 859.492649 353.990944 
L 867.939874 351.883222 
L 876.387098 349.770655 
L 884.834323 347.669257 
L 893.281548 345.58885 
" clip-path="url(#p9b2280f4cb)" style="fill: none; stroke: #ad494a; stroke-width: 2; stroke-linecap: round"/>
   </g>
   <g id="line2d_44">
    <path d="M 48.559071 525.462548 
L 57.006295 522.253941 
L 65.45352 521.313419 
L 73.900745 521.034287 
L 82.34797 520.85083 
L 90.795195 520.586246 
L 99.242419 520.242952 
L 107.689644 519.823291 
L 116.136869 519.329489 
L 124.584094 518.763926 
L 133.031318 518.128643 
L 141.478543 517.425892 
L 149.925768 516.657741 
L 158.372993 515.826238 
L 166.820217 514.933342 
L 175.267442 513.981067 
L 183.714667 512.971303 
L 192.161892 511.905894 
L 200.609117 510.786626 
L 209.056341 509.61534 
L 217.503566 508.393808 
L 225.950791 507.123663 
L 234.398016 505.806475 
L 242.84524 504.444025 
L 251.292465 503.037983 
L 259.73969 501.589527 
L 268.186915 500.100511 
L 276.63414 498.572157 
L 285.081364 497.006276 
L 293.528589 495.403762 
L 301.975814 493.766136 
L 310.423039 492.095064 
L 318.870263 490.391543 
L 327.317488 488.656812 
L 335.764713 486.89254 
L 344.211938 485.099594 
L 352.659162 483.278676 
L 361.106387 481.432074 
L 369.553612 479.560142 
L 378.000837 477.663545 
L 386.448062 475.744359 
L 394.895286 473.802933 
L 403.342511 471.840716 
L 411.789736 469.858592 
L 420.236961 467.857736 
L 428.684185 465.83853 
L 437.13141 463.802495 
L 445.578635 461.749194 
L 454.02586 459.681116 
L 462.473085 457.598575 
L 470.920309 455.502972 
L 479.367534 453.39412 
L 487.814759 451.271839 
L 496.261984 449.140925 
L 504.709208 446.996099 
L 513.156433 444.843138 
L 521.603658 442.681932 
L 530.050883 440.51207 
L 538.498107 438.333011 
L 546.945332 436.14755 
L 555.392557 433.955888 
L 563.839782 431.756328 
L 572.287007 429.551685 
L 580.734231 427.343639 
L 589.181456 425.134286 
L 597.628681 422.914995 
L 606.075906 420.697309 
L 614.52313 418.474796 
L 622.970355 416.252477 
L 631.41758 414.025424 
L 639.864805 411.802854 
L 648.31203 409.572907 
L 656.759254 407.345261 
L 665.206479 405.120778 
L 673.653704 402.895938 
L 682.100929 400.668341 
L 690.548153 398.44386 
L 698.995378 396.22215 
L 707.442603 394.003311 
L 715.889828 391.787286 
L 724.337052 389.574079 
L 732.784277 387.363962 
L 741.231502 385.157024 
L 749.678727 382.954019 
L 758.125952 380.755193 
L 766.573176 378.561068 
L 775.020401 376.372625 
L 783.467626 374.190754 
L 791.914851 372.016225 
L 800.362075 369.844432 
L 808.8093 367.673531 
L 817.256525 365.511677 
L 825.70375 363.360095 
L 834.150975 361.220554 
L 842.598199 359.073125 
L 851.045424 356.937947 
L 859.492649 354.817767 
L 867.939874 352.69881 
L 876.387098 350.583769 
L 884.834323 348.487513 
L 893.281548 346.39064 
" clip-path="url(#p9b2280f4cb)" style="fill: none; stroke: #e7969c; stroke-width: 2; stroke-linecap: round"/>
   </g>
   <g id="line2d_45">
    <path d="M 48.559071 527.196192 
L 57.006295 522.758869 
L 65.45352 521.462319 
L 73.900745 521.078736 
L 82.34797 520.906985 
L 90.795195 520.663487 
L 99.242419 520.340657 
L 107.689644 519.940849 
L 116.136869 519.466307 
L 124.584094 518.919419 
L 133.031318 518.302245 
L 141.478543 517.617049 
L 149.925768 516.865904 
L 158.372993 516.050885 
L 166.820217 515.173937 
L 175.267442 514.237132 
L 183.714667 513.24229 
L 192.161892 512.191375 
L 200.609117 511.086097 
L 209.056341 509.928378 
L 217.503566 508.719899 
L 225.950791 507.462352 
L 234.398016 506.157459 
L 242.84524 504.806789 
L 251.292465 503.412021 
L 259.73969 501.974694 
L 268.186915 500.496276 
L 276.63414 498.978097 
L 285.081364 497.421898 
L 293.528589 495.828926 
L 301.975814 494.200532 
L 310.423039 492.5382 
L 318.870263 490.843164 
L 327.317488 489.116518 
L 335.764713 487.359952 
L 344.211938 485.574311 
L 352.659162 483.761129 
L 361.106387 481.920634 
L 369.553612 480.055159 
L 378.000837 478.165162 
L 386.448062 476.252468 
L 394.895286 474.316426 
L 403.342511 472.359628 
L 411.789736 470.382759 
L 420.236961 468.386764 
L 428.684185 466.372598 
L 437.13141 464.340392 
L 445.578635 462.291605 
L 454.02586 460.227718 
L 462.473085 458.148866 
L 470.920309 456.056242 
L 479.367534 453.951021 
L 487.814759 451.832992 
L 496.261984 449.702752 
L 504.709208 447.562649 
L 513.156433 445.413205 
L 521.603658 443.25193 
L 530.050883 441.083178 
L 538.498107 438.906602 
L 546.945332 436.722766 
L 555.392557 434.532122 
L 563.839782 432.335752 
L 572.287007 430.13496 
L 580.734231 427.928509 
L 589.181456 425.715159 
L 597.628681 423.501216 
L 606.075906 421.282961 
L 614.52313 419.061382 
L 622.970355 416.839101 
L 631.41758 414.614285 
L 639.864805 412.386939 
L 648.31203 410.164044 
L 656.759254 407.934283 
L 665.206479 405.706133 
L 673.653704 403.481348 
L 682.100929 401.259285 
L 690.548153 399.034192 
L 698.995378 396.810206 
L 707.442603 394.589412 
L 715.889828 392.371746 
L 724.337052 390.157206 
L 732.784277 387.94606 
L 741.231502 385.738392 
L 749.678727 383.534953 
L 758.125952 381.335986 
L 766.573176 379.142009 
L 775.020401 376.954003 
L 783.467626 374.772856 
L 791.914851 372.590786 
L 800.362075 370.41347 
L 808.8093 368.243984 
L 817.256525 366.083822 
L 825.70375 363.934208 
L 834.150975 361.78194 
L 842.598199 359.636239 
L 851.045424 357.503669 
L 859.492649 355.38292 
L 867.939874 353.254698 
L 876.387098 351.142878 
L 884.834323 349.046899 
L 893.281548 346.940993 
" clip-path="url(#p9b2280f4cb)" style="fill: none; stroke: #a55194; stroke-width: 2; stroke-linecap: round"/>
   </g>
   <g id="line2d_46">
    <path d="M 48.559071 528.943214 
L 57.006295 523.266283 
L 65.45352 521.611541 
L 73.900745 521.123159 
L 82.34797 520.945798 
L 90.795195 520.718398 
L 99.242419 520.411188 
L 107.689644 520.026537 
L 116.136869 519.566701 
L 124.584094 519.034071 
L 133.031318 518.430724 
L 141.478543 517.758931 
L 149.925768 517.020782 
L 158.372993 516.218337 
L 166.820217 515.353587 
L 175.267442 514.428569 
L 183.714667 513.445174 
L 192.161892 512.405304 
L 200.609117 511.310724 
L 209.056341 510.163334 
L 217.503566 508.964871 
L 225.950791 507.717016 
L 234.398016 506.421477 
L 242.84524 505.079781 
L 251.292465 503.693762 
L 259.73969 502.264786 
L 268.186915 500.794365 
L 276.63414 499.284073 
L 285.081364 497.735428 
L 293.528589 496.149837 
L 301.975814 494.528266 
L 310.423039 492.872659 
L 318.870263 491.184057 
L 327.317488 489.463613 
L 335.764713 487.713127 
L 344.211938 485.933276 
L 352.659162 484.125399 
L 361.106387 482.290126 
L 369.553612 480.429669 
L 378.000837 478.544489 
L 386.448062 476.636154 
L 394.895286 474.704757 
L 403.342511 472.752377 
L 411.789736 470.779499 
L 420.236961 468.786842 
L 428.684185 466.776529 
L 437.13141 464.747464 
L 445.578635 462.702916 
L 454.02586 460.642663 
L 462.473085 458.566816 
L 470.920309 456.476544 
L 479.367534 454.372409 
L 487.814759 452.256939 
L 496.261984 450.130014 
L 504.709208 447.991315 
L 513.156433 445.842477 
L 521.603658 443.685504 
L 530.050883 441.519489 
L 538.498107 439.343794 
L 546.945332 437.161337 
L 555.392557 434.97257 
L 563.839782 432.778124 
L 572.287007 430.575444 
L 580.734231 428.368358 
L 589.181456 426.158728 
L 597.628681 423.945539 
L 606.075906 421.725873 
L 614.52313 419.509371 
L 622.970355 417.282812 
L 631.41758 415.061519 
L 639.864805 412.832889 
L 648.31203 410.606594 
L 656.759254 408.383867 
L 665.206479 406.15293 
L 673.653704 403.925573 
L 682.100929 401.701196 
L 690.548153 399.479524 
L 698.995378 397.258912 
L 707.442603 395.036594 
L 715.889828 392.817643 
L 724.337052 390.602055 
L 732.784277 388.390093 
L 741.231502 386.181837 
L 749.678727 383.978037 
L 758.125952 381.778933 
L 766.573176 379.58504 
L 775.020401 377.396408 
L 783.467626 375.207224 
L 791.914851 373.023799 
L 800.362075 370.847323 
L 808.8093 368.678889 
L 817.256525 366.519989 
L 825.70375 364.364908 
L 834.150975 362.209404 
L 842.598199 360.06546 
L 851.045424 357.934852 
L 859.492649 355.804345 
L 867.939874 353.678348 
L 876.387098 351.568959 
L 884.834323 349.463591 
L 893.281548 347.360365 
" clip-path="url(#p9b2280f4cb)" style="fill: none; stroke: #de9ed6; stroke-width: 2; stroke-linecap: round"/>
   </g>
   <g id="patch_3">
    <path d="M 48.559071 521.153031 
L 48.559071 51.564121 
" style="fill: none"/>
   </g>
   <g id="patch_4">
    <path d="M 935.517672 521.153031 
L 935.517672 51.564121 
" style="fill: none"/>
   </g>
   <g id="patch_5">
    <path d="M 48.559071 521.153031 
L 935.517672 521.153031 
" style="fill: none"/>
   </g>
   <g id="patch_6">
    <path d="M 48.559071 51.564121 
L 935.517672 51.564121 
" style="fill: none"/>
   </g>
   <g id="patch_7">
    <path d="M 470.920309 80.766238 
Q 470.920309 264.269127 470.920309 446.094964 
" style="fill: none; stroke: #000000; stroke-width: 1.5; stroke-linecap: round"/>
    <path d="M 474.120309 439.694964 
L 470.920309 446.094964 
L 467.720309 439.694964 
" style="fill: none; stroke: #000000; stroke-width: 1.5; stroke-linecap: round"/>
   </g>
   <g id="text_20">
    <!-- Time -->
    <g style="fill: #262626" transform="translate(492.038371 446.285631) scale(0.18 -0.18)">
     <defs>
      <path id="CMR17-54" d="M 3981 4326 
L 288 4326 
L 179 2918 
L 294 2918 
C 378 3976 467 4160 1453 4160 
C 1568 4160 1754 4160 1805 4154 
C 1926 4135 1926 4058 1926 3912 
L 1926 459 
C 1926 230 1907 160 1376 160 
L 1197 160 
L 1197 0 
C 1504 0 1824 0 2138 0 
C 2451 0 2771 0 3078 0 
L 3078 160 
L 2899 160 
C 2368 160 2349 230 2349 459 
L 2349 3912 
C 2349 4052 2349 4129 2464 4154 
C 2515 4160 2701 4160 2816 4160 
C 3795 4160 3891 3976 3974 2918 
L 4090 2918 
L 3981 4326 
z
" transform="scale(0.015625)"/>
      <path id="CMR17-69" d="M 992 3909 
C 992 4049 877 4170 730 4170 
C 589 4170 467 4056 467 3909 
C 467 3769 582 3648 730 3648 
C 870 3648 992 3763 992 3909 
z
M 243 2706 
L 243 2541 
C 602 2541 653 2502 653 2197 
L 653 427 
C 653 184 627 153 218 153 
L 218 -13 
C 371 0 646 0 806 0 
C 960 0 1222 0 1370 -13 
L 1370 153 
C 992 153 979 191 979 420 
L 979 2776 
L 243 2706 
z
" transform="scale(0.015625)"/>
      <path id="CMR17-6d" d="M 4326 1933 
C 4326 2252 4269 2790 3507 2790 
C 3072 2790 2771 2496 2656 2151 
L 2650 2151 
C 2573 2676 2195 2790 1837 2790 
C 1331 2790 1069 2400 973 2144 
L 966 2144 
L 966 2790 
L 211 2720 
L 211 2554 
C 589 2554 646 2515 646 2208 
L 646 428 
C 646 184 621 153 211 153 
L 211 -13 
C 365 0 646 0 813 0 
C 979 0 1267 0 1421 -13 
L 1421 153 
C 1011 153 986 178 986 428 
L 986 1658 
C 986 2247 1344 2688 1792 2688 
C 2266 2688 2317 2266 2317 1958 
L 2317 428 
C 2317 184 2291 153 1882 153 
L 1882 -13 
C 2035 0 2317 0 2483 0 
C 2650 0 2938 0 3091 -13 
L 3091 153 
C 2682 153 2656 178 2656 428 
L 2656 1658 
C 2656 2247 3014 2688 3462 2688 
C 3936 2688 3987 2266 3987 1958 
L 3987 428 
C 3987 184 3962 153 3552 153 
L 3552 -13 
C 3706 0 3987 0 4154 0 
C 4320 0 4608 0 4762 -13 
L 4762 153 
C 4352 153 4326 178 4326 428 
L 4326 1933 
z
" transform="scale(0.015625)"/>
      <path id="CMR17-65" d="M 2438 1472 
C 2464 1498 2464 1511 2464 1576 
C 2464 2238 2118 2816 1389 2816 
C 710 2816 173 2169 173 1383 
C 173 551 781 -64 1459 -64 
C 2176 -64 2458 607 2458 740 
C 2458 784 2419 784 2406 784 
C 2362 784 2355 771 2330 696 
C 2189 265 1837 51 1504 51 
C 1229 51 954 203 781 480 
C 582 803 582 1176 582 1472 
L 2438 1472 
z
M 589 1568 
C 634 2505 1126 2714 1382 2714 
C 1818 2714 2112 2297 2118 1568 
L 589 1568 
z
" transform="scale(0.015625)"/>
     </defs>
     <use xlink:href="#CMR17-54" transform="scale(0.996264)"/>
     <use xlink:href="#CMR17-69" transform="translate(66.509881 0) scale(0.996264)"/>
     <use xlink:href="#CMR17-6d" transform="translate(91.380939 0) scale(0.996264)"/>
     <use xlink:href="#CMR17-65" transform="translate(168.300529 0) scale(0.996264)"/>
    </g>
   </g>
   <g id="legend_1">
    <g id="line2d_47">
     <path d="M 948.117672 197.198434 
L 962.117672 197.198434 
L 976.117672 197.198434 
" style="fill: none; stroke: #393b79; stroke-width: 2; stroke-linecap: round"/>
    </g>
    <g id="text_21">
     <!-- t = 0.00 -->
     <g style="fill: #262626" transform="translate(987.317672 202.098434) scale(0.14 -0.14)">
      <defs>
       <path id="CMR17-74" d="M 966 2560 
L 1862 2560 
L 1862 2725 
L 966 2725 
L 966 3904 
L 851 3904 
C 838 3245 614 2668 70 2668 
L 70 2560 
L 627 2560 
L 627 771 
C 627 650 627 -64 1370 -64 
C 1747 -64 1965 306 1965 777 
L 1965 1140 
L 1850 1140 
L 1850 783 
C 1850 344 1677 51 1408 51 
C 1222 51 966 178 966 758 
L 966 2560 
z
" transform="scale(0.015625)"/>
       <path id="CMR17-3d" d="M 4115 2017 
C 4211 2017 4307 2017 4307 2125 
C 4307 2240 4198 2240 4090 2240 
L 512 2240 
C 403 2240 294 2240 294 2125 
C 294 2017 390 2017 486 2017 
L 4115 2017 
z
M 4090 896 
C 4198 896 4307 896 4307 1011 
C 4307 1119 4211 1119 4115 1119 
L 486 1119 
C 390 1119 294 1119 294 1011 
C 294 896 403 896 512 896 
L 4090 896 
z
" transform="scale(0.015625)"/>
       <path id="CMR17-2e" d="M 1062 261 
C 1062 420 934 522 800 522 
C 672 522 538 420 538 261 
C 538 102 666 0 800 0 
C 928 0 1062 102 1062 261 
z
" transform="scale(0.015625)"/>
      </defs>
      <use xlink:href="#CMR17-74" transform="scale(0.996264)"/>
      <use xlink:href="#CMR17-3d" transform="translate(65.356734 0) scale(0.996264)"/>
      <use xlink:href="#CMR17-30" transform="translate(167.147489 0) scale(0.996264)"/>
      <use xlink:href="#CMR17-2e" transform="translate(212.837966 0) scale(0.996264)"/>
      <use xlink:href="#CMR17-30" transform="translate(237.709025 0) scale(0.996264)"/>
      <use xlink:href="#CMR17-30" transform="translate(283.399502 0) scale(0.996264)"/>
     </g>
    </g>
    <g id="line2d_48">
     <path d="M 948.117672 216.710462 
L 962.117672 216.710462 
L 976.117672 216.710462 
" style="fill: none; stroke: #6b6ecf; stroke-width: 2; stroke-linecap: round"/>
    </g>
    <g id="text_22">
     <!-- t = 10.00 -->
     <g style="fill: #262626" transform="translate(987.317672 221.610462) scale(0.14 -0.14)">
      <use xlink:href="#CMR17-74" transform="scale(0.996264)"/>
      <use xlink:href="#CMR17-3d" transform="translate(65.356734 0) scale(0.996264)"/>
      <use xlink:href="#CMR17-31" transform="translate(167.147489 0) scale(0.996264)"/>
      <use xlink:href="#CMR17-30" transform="translate(212.837966 0) scale(0.996264)"/>
      <use xlink:href="#CMR17-2e" transform="translate(258.528443 0) scale(0.996264)"/>
      <use xlink:href="#CMR17-30" transform="translate(283.399502 0) scale(0.996264)"/>
      <use xlink:href="#CMR17-30" transform="translate(329.089979 0) scale(0.996264)"/>
     </g>
    </g>
    <g id="line2d_49">
     <path d="M 948.117672 236.222491 
L 962.117672 236.222491 
L 976.117672 236.222491 
" style="fill: none; stroke: #637939; stroke-width: 2; stroke-linecap: round"/>
    </g>
    <g id="text_23">
     <!-- t = 50.00 -->
     <g style="fill: #262626" transform="translate(987.317672 241.122491) scale(0.14 -0.14)">
      <use xlink:href="#CMR17-74" transform="scale(0.996264)"/>
      <use xlink:href="#CMR17-3d" transform="translate(65.356734 0) scale(0.996264)"/>
      <use xlink:href="#CMR17-35" transform="translate(167.147489 0) scale(0.996264)"/>
      <use xlink:href="#CMR17-30" transform="translate(212.837966 0) scale(0.996264)"/>
      <use xlink:href="#CMR17-2e" transform="translate(258.528443 0) scale(0.996264)"/>
      <use xlink:href="#CMR17-30" transform="translate(283.399502 0) scale(0.996264)"/>
      <use xlink:href="#CMR17-30" transform="translate(329.089979 0) scale(0.996264)"/>
     </g>
    </g>
    <g id="line2d_50">
     <path d="M 948.117672 255.734519 
L 962.117672 255.734519 
L 976.117672 255.734519 
" style="fill: none; stroke: #b5cf6b; stroke-width: 2; stroke-linecap: round"/>
    </g>
    <g id="text_24">
     <!-- t = 100.00 -->
     <g style="fill: #262626" transform="translate(987.317672 260.634519) scale(0.14 -0.14)">
      <use xlink:href="#CMR17-74" transform="scale(0.996264)"/>
      <use xlink:href="#CMR17-3d" transform="translate(65.356734 0) scale(0.996264)"/>
      <use xlink:href="#CMR17-31" transform="translate(167.147489 0) scale(0.996264)"/>
      <use xlink:href="#CMR17-30" transform="translate(212.837966 0) scale(0.996264)"/>
      <use xlink:href="#CMR17-30" transform="translate(258.528443 0) scale(0.996264)"/>
      <use xlink:href="#CMR17-2e" transform="translate(304.21892 0) scale(0.996264)"/>
      <use xlink:href="#CMR17-30" transform="translate(329.089979 0) scale(0.996264)"/>
      <use xlink:href="#CMR17-30" transform="translate(374.780456 0) scale(0.996264)"/>
     </g>
    </g>
    <g id="line2d_51">
     <path d="M 948.117672 275.246547 
L 962.117672 275.246547 
L 976.117672 275.246547 
" style="fill: none; stroke: #8c6d31; stroke-width: 2; stroke-linecap: round"/>
    </g>
    <g id="text_25">
     <!-- t = 250.00 -->
     <g style="fill: #262626" transform="translate(987.317672 280.146547) scale(0.14 -0.14)">
      <use xlink:href="#CMR17-74" transform="scale(0.996264)"/>
      <use xlink:href="#CMR17-3d" transform="translate(65.356734 0) scale(0.996264)"/>
      <use xlink:href="#CMR17-32" transform="translate(167.147489 0) scale(0.996264)"/>
      <use xlink:href="#CMR17-35" transform="translate(212.837966 0) scale(0.996264)"/>
      <use xlink:href="#CMR17-30" transform="translate(258.528443 0) scale(0.996264)"/>
      <use xlink:href="#CMR17-2e" transform="translate(304.21892 0) scale(0.996264)"/>
      <use xlink:href="#CMR17-30" transform="translate(329.089979 0) scale(0.996264)"/>
      <use xlink:href="#CMR17-30" transform="translate(374.780456 0) scale(0.996264)"/>
     </g>
    </g>
    <g id="line2d_52">
     <path d="M 948.117672 294.758576 
L 962.117672 294.758576 
L 976.117672 294.758576 
" style="fill: none; stroke: #e7cb94; stroke-width: 2; stroke-linecap: round"/>
    </g>
    <g id="text_26">
     <!-- t = 500.00 -->
     <g style="fill: #262626" transform="translate(987.317672 299.658576) scale(0.14 -0.14)">
      <use xlink:href="#CMR17-74" transform="scale(0.996264)"/>
      <use xlink:href="#CMR17-3d" transform="translate(65.356734 0) scale(0.996264)"/>
      <use xlink:href="#CMR17-35" transform="translate(167.147489 0) scale(0.996264)"/>
      <use xlink:href="#CMR17-30" transform="translate(212.837966 0) scale(0.996264)"/>
      <use xlink:href="#CMR17-30" transform="translate(258.528443 0) scale(0.996264)"/>
      <use xlink:href="#CMR17-2e" transform="translate(304.21892 0) scale(0.996264)"/>
      <use xlink:href="#CMR17-30" transform="translate(329.089979 0) scale(0.996264)"/>
      <use xlink:href="#CMR17-30" transform="translate(374.780456 0) scale(0.996264)"/>
     </g>
    </g>
    <g id="line2d_53">
     <path d="M 948.117672 314.270604 
L 962.117672 314.270604 
L 976.117672 314.270604 
" style="fill: none; stroke: #ad494a; stroke-width: 2; stroke-linecap: round"/>
    </g>
    <g id="text_27">
     <!-- t = 750.00 -->
     <g style="fill: #262626" transform="translate(987.317672 319.170604) scale(0.14 -0.14)">
      <use xlink:href="#CMR17-74" transform="scale(0.996264)"/>
      <use xlink:href="#CMR17-3d" transform="translate(65.356734 0) scale(0.996264)"/>
      <use xlink:href="#CMR17-37" transform="translate(167.147489 0) scale(0.996264)"/>
      <use xlink:href="#CMR17-35" transform="translate(212.837966 0) scale(0.996264)"/>
      <use xlink:href="#CMR17-30" transform="translate(258.528443 0) scale(0.996264)"/>
      <use xlink:href="#CMR17-2e" transform="translate(304.21892 0) scale(0.996264)"/>
      <use xlink:href="#CMR17-30" transform="translate(329.089979 0) scale(0.996264)"/>
      <use xlink:href="#CMR17-30" transform="translate(374.780456 0) scale(0.996264)"/>
     </g>
    </g>
    <g id="line2d_54">
     <path d="M 948.117672 333.782633 
L 962.117672 333.782633 
L 976.117672 333.782633 
" style="fill: none; stroke: #e7969c; stroke-width: 2; stroke-linecap: round"/>
    </g>
    <g id="text_28">
     <!-- t = 1000.00 -->
     <g style="fill: #262626" transform="translate(987.317672 338.682633) scale(0.14 -0.14)">
      <use xlink:href="#CMR17-74" transform="scale(0.996264)"/>
      <use xlink:href="#CMR17-3d" transform="translate(65.356734 0) scale(0.996264)"/>
      <use xlink:href="#CMR17-31" transform="translate(167.147489 0) scale(0.996264)"/>
      <use xlink:href="#CMR17-30" transform="translate(212.837966 0) scale(0.996264)"/>
      <use xlink:href="#CMR17-30" transform="translate(258.528443 0) scale(0.996264)"/>
      <use xlink:href="#CMR17-30" transform="translate(304.21892 0) scale(0.996264)"/>
      <use xlink:href="#CMR17-2e" transform="translate(349.909397 0) scale(0.996264)"/>
      <use xlink:href="#CMR17-30" transform="translate(374.780456 0) scale(0.996264)"/>
      <use xlink:href="#CMR17-30" transform="translate(420.470933 0) scale(0.996264)"/>
     </g>
    </g>
    <g id="line2d_55">
     <path d="M 948.117672 353.294661 
L 962.117672 353.294661 
L 976.117672 353.294661 
" style="fill: none; stroke: #a55194; stroke-width: 2; stroke-linecap: round"/>
    </g>
    <g id="text_29">
     <!-- t = 1250.00 -->
     <g style="fill: #262626" transform="translate(987.317672 358.194661) scale(0.14 -0.14)">
      <use xlink:href="#CMR17-74" transform="scale(0.996264)"/>
      <use xlink:href="#CMR17-3d" transform="translate(65.356734 0) scale(0.996264)"/>
      <use xlink:href="#CMR17-31" transform="translate(167.147489 0) scale(0.996264)"/>
      <use xlink:href="#CMR17-32" transform="translate(212.837966 0) scale(0.996264)"/>
      <use xlink:href="#CMR17-35" transform="translate(258.528443 0) scale(0.996264)"/>
      <use xlink:href="#CMR17-30" transform="translate(304.21892 0) scale(0.996264)"/>
      <use xlink:href="#CMR17-2e" transform="translate(349.909397 0) scale(0.996264)"/>
      <use xlink:href="#CMR17-30" transform="translate(374.780456 0) scale(0.996264)"/>
      <use xlink:href="#CMR17-30" transform="translate(420.470933 0) scale(0.996264)"/>
     </g>
    </g>
    <g id="line2d_56">
     <path d="M 948.117672 372.806689 
L 962.117672 372.806689 
L 976.117672 372.806689 
" style="fill: none; stroke: #de9ed6; stroke-width: 2; stroke-linecap: round"/>
    </g>
    <g id="text_30">
     <!-- t = 1500.00 -->
     <g style="fill: #262626" transform="translate(987.317672 377.706689) scale(0.14 -0.14)">
      <use xlink:href="#CMR17-74" transform="scale(0.996264)"/>
      <use xlink:href="#CMR17-3d" transform="translate(65.356734 0) scale(0.996264)"/>
      <use xlink:href="#CMR17-31" transform="translate(167.147489 0) scale(0.996264)"/>
      <use xlink:href="#CMR17-35" transform="translate(212.837966 0) scale(0.996264)"/>
      <use xlink:href="#CMR17-30" transform="translate(258.528443 0) scale(0.996264)"/>
      <use xlink:href="#CMR17-30" transform="translate(304.21892 0) scale(0.996264)"/>
      <use xlink:href="#CMR17-2e" transform="translate(349.909397 0) scale(0.996264)"/>
      <use xlink:href="#CMR17-30" transform="translate(374.780456 0) scale(0.996264)"/>
      <use xlink:href="#CMR17-30" transform="translate(420.470933 0) scale(0.996264)"/>
     </g>
    </g>
   </g>
  </g>
  <g id="text_31">
   <!-- permeability -->
   <g style="fill: #262626" transform="translate(492.111452 24.803515) scale(0.192 -0.192)">
    <defs>
     <path id="CMR17-70" d="M 1408 -1063 
C 998 -1063 973 -1037 973 -789 
L 973 402 
C 1158 134 1427 -38 1766 -38 
C 2406 -38 3053 523 3053 1388 
C 3053 2191 2496 2802 1837 2802 
C 1453 2802 1139 2592 960 2338 
L 960 2802 
L 198 2732 
L 198 2567 
C 576 2567 634 2528 634 2223 
L 634 -789 
C 634 -1031 608 -1063 198 -1063 
L 198 -1228 
C 352 -1216 634 -1216 800 -1216 
C 966 -1216 1254 -1216 1408 -1228 
L 1408 -1063 
z
M 973 2012 
C 973 2102 973 2235 1222 2471 
C 1254 2497 1472 2688 1792 2688 
C 2259 2688 2643 2108 2643 1382 
C 2643 656 2234 64 1728 64 
C 1498 64 1248 172 1056 472 
C 973 612 973 650 973 752 
L 973 2012 
z
" transform="scale(0.015625)"/>
     <path id="CMR17-72" d="M 960 1497 
C 960 2112 1222 2688 1702 2688 
C 1747 2688 1792 2682 1837 2662 
C 1837 2662 1696 2617 1696 2452 
C 1696 2298 1818 2234 1914 2234 
C 1990 2234 2131 2279 2131 2458 
C 2131 2663 1926 2790 1709 2790 
C 1222 2790 1011 2317 947 2093 
L 941 2093 
L 941 2790 
L 198 2720 
L 198 2554 
C 576 2554 634 2515 634 2208 
L 634 428 
C 634 184 608 153 198 153 
L 198 -13 
C 352 0 646 0 813 0 
C 998 0 1325 0 1498 -13 
L 1498 153 
C 1037 153 960 153 960 440 
L 960 1497 
z
" transform="scale(0.015625)"/>
     <path id="CMR17-61" d="M 2304 1653 
C 2304 2072 2304 2294 2035 2543 
C 1798 2752 1523 2816 1306 2816 
C 800 2816 435 2407 435 1971 
C 435 1728 627 1728 666 1728 
C 749 1728 896 1778 896 1954 
C 896 2112 774 2181 666 2181 
C 640 2181 608 2174 589 2168 
C 723 2592 1069 2714 1293 2714 
C 1613 2714 1965 2429 1965 1885 
L 1965 1600 
C 1587 1600 1133 1549 774 1357 
C 371 1133 256 813 256 570 
C 256 77 832 -64 1171 -64 
C 1523 -64 1850 139 1990 511 
C 2003 233 2182 -18 2464 -18 
C 2598 -18 2938 70 2938 567 
L 2938 920 
L 2822 920 
L 2822 562 
C 2822 178 2650 128 2566 128 
C 2304 128 2304 458 2304 738 
L 2304 1653 
z
M 1965 870 
C 1965 317 1568 38 1216 38 
C 896 38 646 275 646 570 
C 646 761 730 1100 1101 1305 
C 1408 1478 1760 1504 1965 1504 
L 1965 870 
z
" transform="scale(0.015625)"/>
     <path id="CMR17-62" d="M 960 4396 
L 198 4326 
L 198 4160 
C 576 4160 634 4122 634 3817 
L 634 -13 
L 749 -13 
L 934 441 
C 1120 141 1395 -64 1766 -64 
C 2406 -64 3053 500 3053 1370 
C 3053 2188 2477 2790 1830 2790 
C 1434 2790 1152 2579 960 2330 
L 960 4396 
z
M 973 2004 
C 973 2118 973 2138 1062 2272 
C 1312 2657 1670 2688 1792 2688 
C 1984 2688 2643 2585 2643 1376 
C 2643 108 1888 38 1734 38 
C 1536 38 1248 114 1043 486 
C 973 608 973 621 973 735 
L 973 2004 
z
" transform="scale(0.015625)"/>
     <path id="CMR17-6c" d="M 979 4396 
L 218 4326 
L 218 4160 
C 595 4160 653 4122 653 3817 
L 653 426 
C 653 184 627 153 218 153 
L 218 -13 
C 371 0 653 0 813 0 
C 979 0 1261 0 1414 -13 
L 1414 153 
C 1005 153 979 178 979 426 
L 979 4396 
z
" transform="scale(0.015625)"/>
     <path id="CMR17-79" d="M 2496 2197 
C 2656 2586 2944 2586 3034 2586 
L 3034 2752 
C 2912 2752 2752 2752 2630 2752 
C 2496 2752 2285 2752 2157 2758 
L 2157 2592 
C 2400 2573 2406 2394 2406 2343 
C 2406 2280 2394 2248 2362 2171 
L 1664 449 
L 902 2306 
C 870 2382 870 2426 870 2433 
C 870 2573 1018 2586 1171 2586 
L 1171 2758 
C 1018 2752 742 2752 582 2752 
C 410 2752 205 2752 64 2758 
L 64 2586 
C 410 2586 448 2554 531 2350 
L 1485 15 
C 1197 -738 1030 -1178 627 -1178 
C 557 -1178 397 -1159 282 -1044 
C 429 -1031 493 -942 493 -833 
C 493 -725 416 -629 288 -629 
C 147 -629 77 -725 77 -840 
C 77 -1095 339 -1280 627 -1280 
C 998 -1280 1229 -922 1357 -604 
L 2496 2197 
z
" transform="scale(0.015625)"/>
    </defs>
    <use xlink:href="#CMR17-70" transform="scale(0.996264)"/>
    <use xlink:href="#CMR17-65" transform="translate(53.497809 0) scale(0.996264)"/>
    <use xlink:href="#CMR17-72" transform="translate(93.983469 0) scale(0.996264)"/>
    <use xlink:href="#CMR17-6d" transform="translate(129.264237 0) scale(0.996264)"/>
    <use xlink:href="#CMR17-65" transform="translate(206.183827 0) scale(0.996264)"/>
    <use xlink:href="#CMR17-61" transform="translate(246.669487 0) scale(0.996264)"/>
    <use xlink:href="#CMR17-62" transform="translate(292.359964 0) scale(0.996264)"/>
    <use xlink:href="#CMR17-69" transform="translate(343.255334 0) scale(0.996264)"/>
    <use xlink:href="#CMR17-6c" transform="translate(368.126392 0) scale(0.996264)"/>
    <use xlink:href="#CMR17-69" transform="translate(392.997451 0) scale(0.996264)"/>
    <use xlink:href="#CMR17-74" transform="translate(417.868509 0) scale(0.996264)"/>
    <use xlink:href="#CMR17-79" transform="translate(450.546823 0) scale(0.996264)"/>
   </g>
  </g>
 </g>
 <defs>
  <clipPath id="p9b2280f4cb">
   <rect x="48.559071" y="51.564121" width="886.958601" height="469.58891"/>
  </clipPath>
 </defs>
</svg>
