<?xml version="1.0" encoding="utf-8" standalone="no"?>
<!DOCTYPE svg PUBLIC "-//W3C//DTD SVG 1.1//EN"
  "http://www.w3.org/Graphics/SVG/1.1/DTD/svg11.dtd">
<svg xmlns:xlink="http://www.w3.org/1999/xlink" width="1080pt" height="576pt" viewBox="0 0 1080 576" xmlns="http://www.w3.org/2000/svg" version="1.1">
 <metadata>
  <rdf:RDF xmlns:dc="http://purl.org/dc/elements/1.1/" xmlns:cc="http://creativecommons.org/ns#" xmlns:rdf="http://www.w3.org/1999/02/22-rdf-syntax-ns#">
   <cc:Work>
    <dc:type rdf:resource="http://purl.org/dc/dcmitype/StillImage"/>
    <dc:date>2024-08-19T11:49:50.382381</dc:date>
    <dc:format>image/svg+xml</dc:format>
    <dc:creator>
     <cc:Agent>
      <dc:title>Matplotlib v3.9.0, https://matplotlib.org/</dc:title>
     </cc:Agent>
    </dc:creator>
   </cc:Work>
  </rdf:RDF>
 </metadata>
 <defs>
  <style type="text/css">*{stroke-linejoin: round; stroke-linecap: butt}</style>
 </defs>
 <g id="figure_1">
  <g id="patch_1">
   <path d="M 0 576 
L 1080 576 
L 1080 0 
L 0 0 
z
" style="fill: #ffffff"/>
  </g>
  <g id="axes_1">
   <g id="patch_2">
    <path d="M 258.536874 422.436818 
L 1026 422.436818 
L 1026 65.515581 
L 258.536874 65.515581 
z
" style="fill: #ffffff"/>
   </g>
   <g id="matplotlib.axis_1">
    <g id="xtick_1">
     <g id="line2d_1">
      <defs>
       <path id="mfd0291992a" d="M 0 0 
L 0 3.5 
" style="stroke: #262626; stroke-width: 0.8"/>
      </defs>
      <g>
       <use xlink:href="#mfd0291992a" x="293.421561" y="422.436818" style="fill: #262626; stroke: #262626; stroke-width: 0.8"/>
      </g>
     </g>
     <g id="text_1">
      <!-- $\mathdefault{10^{-2}}$ -->
      <g style="fill: #262626" transform="translate(249.020279 464.029325) scale(0.5 -0.5)">
       <defs>
        <path id="CMR17-31" d="M 1702 4058 
C 1702 4192 1696 4192 1606 4192 
C 1357 3916 979 3827 621 3827 
C 602 3827 570 3827 563 3808 
C 557 3795 557 3782 557 3648 
C 755 3648 1088 3686 1344 3839 
L 1344 461 
C 1344 236 1331 160 781 160 
L 589 160 
L 589 0 
C 896 0 1216 0 1523 0 
C 1830 0 2150 0 2458 0 
L 2458 160 
L 2266 160 
C 1715 160 1702 230 1702 458 
L 1702 4058 
z
" transform="scale(0.015625)"/>
        <path id="CMR17-30" d="M 2688 2025 
C 2688 2416 2682 3080 2413 3591 
C 2176 4039 1798 4198 1466 4198 
C 1158 4198 768 4058 525 3597 
C 269 3118 243 2524 243 2025 
C 243 1661 250 1106 448 619 
C 723 -39 1216 -128 1466 -128 
C 1760 -128 2208 -7 2470 600 
C 2662 1042 2688 1559 2688 2025 
z
M 1466 -26 
C 1056 -26 813 325 723 812 
C 653 1188 653 1738 653 2096 
C 653 2588 653 2997 736 3387 
C 858 3929 1216 4096 1466 4096 
C 1728 4096 2067 3923 2189 3400 
C 2272 3036 2278 2607 2278 2096 
C 2278 1680 2278 1169 2202 792 
C 2067 95 1690 -26 1466 -26 
z
" transform="scale(0.015625)"/>
        <path id="CMSY10-0" d="M 4218 1472 
C 4326 1472 4442 1472 4442 1600 
C 4442 1728 4326 1728 4218 1728 
L 755 1728 
C 646 1728 531 1728 531 1600 
C 531 1472 646 1472 755 1472 
L 4218 1472 
z
" transform="scale(0.015625)"/>
        <path id="CMR17-32" d="M 2669 989 
L 2554 989 
C 2490 536 2438 459 2413 420 
C 2381 369 1920 369 1830 369 
L 602 369 
C 832 619 1280 1072 1824 1597 
C 2214 1967 2669 2402 2669 3035 
C 2669 3790 2067 4224 1395 4224 
C 691 4224 262 3604 262 3030 
C 262 2780 448 2748 525 2748 
C 589 2748 781 2787 781 3010 
C 781 3207 614 3264 525 3264 
C 486 3264 448 3258 422 3245 
C 544 3790 915 4058 1306 4058 
C 1862 4058 2227 3617 2227 3035 
C 2227 2479 1901 2000 1536 1584 
L 262 146 
L 262 0 
L 2515 0 
L 2669 989 
z
" transform="scale(0.015625)"/>
       </defs>
       <use xlink:href="#CMR17-31" transform="scale(0.996264)"/>
       <use xlink:href="#CMR17-30" transform="translate(45.690477 0) scale(0.996264)"/>
       <use xlink:href="#CMSY10-0" transform="translate(91.380954 36.153639) scale(0.697382)"/>
       <use xlink:href="#CMR17-32" transform="translate(145.621947 36.153639) scale(0.697382)"/>
      </g>
     </g>
    </g>
    <g id="xtick_2">
     <g id="line2d_2">
      <g>
       <use xlink:href="#mfd0291992a" x="642.268437" y="422.436818" style="fill: #262626; stroke: #262626; stroke-width: 0.8"/>
      </g>
     </g>
     <g id="text_2">
      <!-- $\mathdefault{10^{-1}}$ -->
      <g style="fill: #262626" transform="translate(597.867155 464.029325) scale(0.5 -0.5)">
       <use xlink:href="#CMR17-31" transform="scale(0.996264)"/>
       <use xlink:href="#CMR17-30" transform="translate(45.690477 0) scale(0.996264)"/>
       <use xlink:href="#CMSY10-0" transform="translate(91.380954 36.153639) scale(0.697382)"/>
       <use xlink:href="#CMR17-31" transform="translate(145.621947 36.153639) scale(0.697382)"/>
      </g>
     </g>
    </g>
    <g id="xtick_3">
     <g id="line2d_3">
      <g>
       <use xlink:href="#mfd0291992a" x="991.115312" y="422.436818" style="fill: #262626; stroke: #262626; stroke-width: 0.8"/>
      </g>
     </g>
     <g id="text_3">
      <!-- $\mathdefault{10^{0}}$ -->
      <g style="fill: #262626" transform="translate(960.274278 464.029325) scale(0.5 -0.5)">
       <use xlink:href="#CMR17-31" transform="scale(0.996264)"/>
       <use xlink:href="#CMR17-30" transform="translate(45.690477 0) scale(0.996264)"/>
       <use xlink:href="#CMR17-30" transform="translate(91.380954 36.153639) scale(0.697382)"/>
      </g>
     </g>
    </g>
    <g id="xtick_4">
     <g id="line2d_4">
      <defs>
       <path id="m7242f1b1e7" d="M 0 0 
L 0 2 
" style="stroke: #262626; stroke-width: 0.6"/>
      </defs>
      <g>
       <use xlink:href="#m7242f1b1e7" x="259.614806" y="422.436818" style="fill: #262626; stroke: #262626; stroke-width: 0.6"/>
      </g>
     </g>
    </g>
    <g id="xtick_5">
     <g id="line2d_5">
      <g>
       <use xlink:href="#m7242f1b1e7" x="277.459204" y="422.436818" style="fill: #262626; stroke: #262626; stroke-width: 0.6"/>
      </g>
     </g>
    </g>
    <g id="xtick_6">
     <g id="line2d_6">
      <g>
       <use xlink:href="#m7242f1b1e7" x="398.434935" y="422.436818" style="fill: #262626; stroke: #262626; stroke-width: 0.6"/>
      </g>
     </g>
    </g>
    <g id="xtick_7">
     <g id="line2d_7">
      <g>
       <use xlink:href="#m7242f1b1e7" x="459.86382" y="422.436818" style="fill: #262626; stroke: #262626; stroke-width: 0.6"/>
      </g>
     </g>
    </g>
    <g id="xtick_8">
     <g id="line2d_8">
      <g>
       <use xlink:href="#m7242f1b1e7" x="503.448308" y="422.436818" style="fill: #262626; stroke: #262626; stroke-width: 0.6"/>
      </g>
     </g>
    </g>
    <g id="xtick_9">
     <g id="line2d_9">
      <g>
       <use xlink:href="#m7242f1b1e7" x="537.255063" y="422.436818" style="fill: #262626; stroke: #262626; stroke-width: 0.6"/>
      </g>
     </g>
    </g>
    <g id="xtick_10">
     <g id="line2d_10">
      <g>
       <use xlink:href="#m7242f1b1e7" x="564.877194" y="422.436818" style="fill: #262626; stroke: #262626; stroke-width: 0.6"/>
      </g>
     </g>
    </g>
    <g id="xtick_11">
     <g id="line2d_11">
      <g>
       <use xlink:href="#m7242f1b1e7" x="588.231372" y="422.436818" style="fill: #262626; stroke: #262626; stroke-width: 0.6"/>
      </g>
     </g>
    </g>
    <g id="xtick_12">
     <g id="line2d_12">
      <g>
       <use xlink:href="#m7242f1b1e7" x="608.461682" y="422.436818" style="fill: #262626; stroke: #262626; stroke-width: 0.6"/>
      </g>
     </g>
    </g>
    <g id="xtick_13">
     <g id="line2d_13">
      <g>
       <use xlink:href="#m7242f1b1e7" x="626.306079" y="422.436818" style="fill: #262626; stroke: #262626; stroke-width: 0.6"/>
      </g>
     </g>
    </g>
    <g id="xtick_14">
     <g id="line2d_14">
      <g>
       <use xlink:href="#m7242f1b1e7" x="747.28181" y="422.436818" style="fill: #262626; stroke: #262626; stroke-width: 0.6"/>
      </g>
     </g>
    </g>
    <g id="xtick_15">
     <g id="line2d_15">
      <g>
       <use xlink:href="#m7242f1b1e7" x="808.710696" y="422.436818" style="fill: #262626; stroke: #262626; stroke-width: 0.6"/>
      </g>
     </g>
    </g>
    <g id="xtick_16">
     <g id="line2d_16">
      <g>
       <use xlink:href="#m7242f1b1e7" x="852.295184" y="422.436818" style="fill: #262626; stroke: #262626; stroke-width: 0.6"/>
      </g>
     </g>
    </g>
    <g id="xtick_17">
     <g id="line2d_17">
      <g>
       <use xlink:href="#m7242f1b1e7" x="886.101939" y="422.436818" style="fill: #262626; stroke: #262626; stroke-width: 0.6"/>
      </g>
     </g>
    </g>
    <g id="xtick_18">
     <g id="line2d_18">
      <g>
       <use xlink:href="#m7242f1b1e7" x="913.724069" y="422.436818" style="fill: #262626; stroke: #262626; stroke-width: 0.6"/>
      </g>
     </g>
    </g>
    <g id="xtick_19">
     <g id="line2d_19">
      <g>
       <use xlink:href="#m7242f1b1e7" x="937.078248" y="422.436818" style="fill: #262626; stroke: #262626; stroke-width: 0.6"/>
      </g>
     </g>
    </g>
    <g id="xtick_20">
     <g id="line2d_20">
      <g>
       <use xlink:href="#m7242f1b1e7" x="957.308557" y="422.436818" style="fill: #262626; stroke: #262626; stroke-width: 0.6"/>
      </g>
     </g>
    </g>
    <g id="xtick_21">
     <g id="line2d_21">
      <g>
       <use xlink:href="#m7242f1b1e7" x="975.152955" y="422.436818" style="fill: #262626; stroke: #262626; stroke-width: 0.6"/>
      </g>
     </g>
    </g>
    <g id="text_4">
     <!-- $\alpha$ -->
     <g style="fill: #262626" transform="translate(626.756759 512.310916) scale(0.5 -0.5)">
      <defs>
       <path id="CMMI12-b" d="M 2963 1616 
C 2963 2235 2611 2815 1933 2815 
C 1094 2815 256 1902 256 996 
C 256 441 602 -64 1254 -64 
C 1651 -64 2125 89 2579 472 
C 2669 115 2867 -64 3142 -64 
C 3488 -64 3661 294 3661 377 
C 3661 434 3616 434 3597 434 
C 3546 434 3539 415 3520 364 
C 3462 204 3315 64 3162 64 
C 2963 64 2963 472 2963 862 
C 3616 1641 3770 2446 3770 2452 
C 3770 2510 3718 2510 3699 2510 
C 3642 2510 3635 2491 3610 2376 
C 3526 2095 3360 1597 2963 1073 
L 2963 1616 
z
M 2560 626 
C 1997 121 1491 64 1267 64 
C 813 64 685 466 685 766 
C 685 1040 826 1692 1024 2044 
C 1286 2491 1645 2688 1933 2688 
C 2554 2688 2554 1877 2554 1341 
C 2554 1182 2547 1016 2547 856 
C 2547 728 2554 696 2560 626 
z
" transform="scale(0.015625)"/>
      </defs>
      <use xlink:href="#CMMI12-b" transform="scale(0.996264)"/>
     </g>
    </g>
   </g>
   <g id="matplotlib.axis_2">
    <g id="ytick_1">
     <g id="line2d_22">
      <defs>
       <path id="mcd101bdc47" d="M 0 0 
L -3.5 0 
" style="stroke: #262626; stroke-width: 0.8"/>
      </defs>
      <g>
       <use xlink:href="#mcd101bdc47" x="258.536874" y="321.715088" style="fill: #262626; stroke: #262626; stroke-width: 0.8"/>
      </g>
     </g>
     <g id="text_5">
      <!-- $\mathdefault{10^{2}}$ -->
      <g style="fill: #262626" transform="translate(189.854806 339.011341) scale(0.5 -0.5)">
       <use xlink:href="#CMR17-31" transform="scale(0.996264)"/>
       <use xlink:href="#CMR17-30" transform="translate(45.690477 0) scale(0.996264)"/>
       <use xlink:href="#CMR17-32" transform="translate(91.380954 36.153639) scale(0.697382)"/>
      </g>
     </g>
    </g>
    <g id="ytick_2">
     <g id="line2d_23">
      <defs>
       <path id="m29b27987dc" d="M 0 0 
L -2 0 
" style="stroke: #262626; stroke-width: 0.6"/>
      </defs>
      <g>
       <use xlink:href="#m29b27987dc" x="258.536874" y="403.327085" style="fill: #262626; stroke: #262626; stroke-width: 0.6"/>
      </g>
     </g>
    </g>
    <g id="ytick_3">
     <g id="line2d_24">
      <g>
       <use xlink:href="#m29b27987dc" x="258.536874" y="372.773316" style="fill: #262626; stroke: #262626; stroke-width: 0.6"/>
      </g>
     </g>
    </g>
    <g id="ytick_4">
     <g id="line2d_25">
      <g>
       <use xlink:href="#m29b27987dc" x="258.536874" y="345.822983" style="fill: #262626; stroke: #262626; stroke-width: 0.6"/>
      </g>
     </g>
    </g>
    <g id="ytick_5">
     <g id="line2d_26">
      <g>
       <use xlink:href="#m29b27987dc" x="258.536874" y="163.113743" style="fill: #262626; stroke: #262626; stroke-width: 0.6"/>
      </g>
     </g>
     <g id="text_6">
      <!-- $\mathdefault{2\times10^{2}}$ -->
      <g style="fill: #262626" transform="translate(107.726687 180.621674) scale(0.5 -0.5)">
       <defs>
        <path id="CMSY10-2" d="M 2490 1785 
L 1210 3059 
C 1133 3136 1120 3148 1069 3148 
C 1005 3148 941 3091 941 3020 
C 941 2976 954 2963 1024 2892 
L 2304 1606 
L 1024 320 
C 954 249 941 236 941 192 
C 941 121 1005 64 1069 64 
C 1120 64 1133 76 1210 153 
L 2483 1427 
L 3808 102 
C 3821 96 3866 64 3904 64 
C 3981 64 4032 121 4032 192 
C 4032 204 4032 230 4013 262 
C 4006 275 2989 1280 2669 1606 
L 3840 2777 
C 3872 2816 3968 2899 4000 2937 
C 4006 2950 4032 2976 4032 3020 
C 4032 3091 3981 3148 3904 3148 
C 3853 3148 3827 3123 3757 3052 
L 2490 1785 
z
" transform="scale(0.015625)"/>
       </defs>
       <use xlink:href="#CMR17-32" transform="scale(0.996264)"/>
       <use xlink:href="#CMSY10-2" transform="translate(67.829684 0) scale(0.996264)"/>
       <use xlink:href="#CMR17-31" transform="translate(167.456359 0) scale(0.996264)"/>
       <use xlink:href="#CMR17-30" transform="translate(213.146836 0) scale(0.996264)"/>
       <use xlink:href="#CMR17-32" transform="translate(258.837313 36.153639) scale(0.697382)"/>
      </g>
     </g>
    </g>
    <g id="ytick_6">
     <g id="line2d_27">
      <g>
       <use xlink:href="#m29b27987dc" x="258.536874" y="70.337904" style="fill: #262626; stroke: #262626; stroke-width: 0.6"/>
      </g>
     </g>
     <g id="text_7">
      <!-- $\mathdefault{3\times10^{2}}$ -->
      <g style="fill: #262626" transform="translate(107.726687 87.845835) scale(0.5 -0.5)">
       <defs>
        <path id="CMR17-33" d="M 1414 2157 
C 1984 2157 2234 1662 2234 1090 
C 2234 320 1824 25 1453 25 
C 1114 25 563 194 390 693 
C 422 680 454 680 486 680 
C 640 680 755 782 755 948 
C 755 1133 614 1216 486 1216 
C 378 1216 211 1165 211 926 
C 211 335 787 -128 1466 -128 
C 2176 -128 2720 430 2720 1085 
C 2720 1707 2208 2157 1600 2227 
C 2086 2328 2554 2756 2554 3329 
C 2554 3820 2048 4179 1472 4179 
C 890 4179 378 3829 378 3329 
C 378 3110 544 3072 627 3072 
C 762 3072 877 3155 877 3321 
C 877 3486 762 3569 627 3569 
C 602 3569 570 3569 544 3557 
C 730 3959 1235 4032 1459 4032 
C 1683 4032 2106 3925 2106 3320 
C 2106 3143 2080 2828 1862 2550 
C 1670 2304 1453 2304 1242 2284 
C 1210 2284 1062 2269 1037 2269 
C 992 2263 966 2257 966 2208 
C 966 2163 973 2157 1101 2157 
L 1414 2157 
z
" transform="scale(0.015625)"/>
       </defs>
       <use xlink:href="#CMR17-33" transform="scale(0.996264)"/>
       <use xlink:href="#CMSY10-2" transform="translate(67.829684 0) scale(0.996264)"/>
       <use xlink:href="#CMR17-31" transform="translate(167.456359 0) scale(0.996264)"/>
       <use xlink:href="#CMR17-30" transform="translate(213.146836 0) scale(0.996264)"/>
       <use xlink:href="#CMR17-32" transform="translate(258.837313 36.153639) scale(0.697382)"/>
      </g>
     </g>
    </g>
    <g id="text_8">
     <!-- $\theta(\tau)$ -->
     <g style="fill: #262626" transform="translate(91.315055 287.031736) rotate(-90) scale(0.5 -0.5)">
      <defs>
       <path id="CMMI12-12" d="M 2835 3200 
C 2835 3850 2630 4480 2106 4480 
C 1210 4480 256 2615 256 1216 
C 256 923 320 -64 992 -64 
C 1862 -64 2835 1756 2835 3200 
z
M 896 2304 
C 992 2679 1126 3214 1382 3665 
C 1594 4047 1818 4352 2099 4352 
C 2310 4352 2451 4174 2451 3564 
C 2451 3334 2432 3017 2246 2304 
L 896 2304 
z
M 2202 2113 
C 2042 1490 1907 1088 1677 687 
C 1491 363 1267 64 998 64 
C 800 64 640 217 640 846 
C 640 1260 742 1693 845 2113 
L 2202 2113 
z
" transform="scale(0.015625)"/>
       <path id="CMR17-28" d="M 1958 -1561 
C 1958 -1555 1958 -1542 1939 -1523 
C 1645 -1224 858 -407 858 1581 
C 858 3569 1632 4379 1946 4697 
C 1946 4704 1958 4717 1958 4736 
C 1958 4755 1939 4768 1914 4768 
C 1843 4768 1299 4296 986 3594 
C 666 2887 576 2199 576 1588 
C 576 1128 621 351 1005 -471 
C 1312 -1135 1837 -1600 1914 -1600 
C 1946 -1600 1958 -1587 1958 -1561 
z
" transform="scale(0.015625)"/>
       <path id="CMMI12-1c" d="M 1837 2408 
L 2899 2408 
C 2982 2408 3194 2408 3194 2612 
C 3194 2752 3072 2752 2957 2752 
L 1197 2752 
C 1050 2752 832 2752 538 2440 
C 371 2255 166 1917 166 1879 
C 166 1841 198 1828 237 1828 
C 282 1828 288 1847 320 1885 
C 653 2408 986 2408 1146 2408 
L 1677 2408 
L 1011 223 
C 979 127 979 114 979 95 
C 979 25 1024 -64 1152 -64 
C 1350 -64 1382 108 1402 203 
L 1837 2408 
z
" transform="scale(0.015625)"/>
       <path id="CMR17-29" d="M 1683 1581 
C 1683 2040 1638 2817 1254 3639 
C 947 4303 422 4768 346 4768 
C 326 4768 301 4761 301 4729 
C 301 4717 307 4710 314 4697 
C 621 4378 1402 3568 1402 1584 
C 1402 -407 627 -1217 314 -1537 
C 307 -1549 301 -1556 301 -1568 
C 301 -1600 326 -1600 346 -1600 
C 416 -1600 960 -1128 1274 -426 
C 1594 281 1683 969 1683 1581 
z
" transform="scale(0.015625)"/>
      </defs>
      <use xlink:href="#CMMI12-12" transform="scale(0.996264)"/>
      <use xlink:href="#CMR17-28" transform="translate(48.169508 0) scale(0.996264)"/>
      <use xlink:href="#CMMI12-1c" transform="translate(83.450276 0) scale(0.996264)"/>
      <use xlink:href="#CMR17-29" transform="translate(136.941441 0) scale(0.996264)"/>
     </g>
    </g>
   </g>
   <g id="line2d_28">
    <path d="M 293.421561 321.452378 
L 398.434935 320.495692 
L 459.86382 319.572095 
L 503.448308 318.671746 
L 537.255063 317.78629 
L 564.877194 316.90872 
L 588.231372 316.033247 
L 608.461682 315.155181 
L 626.306079 314.270818 
L 642.268437 313.377337 
L 656.708146 312.472705 
L 669.890567 311.555584 
L 682.017219 310.625249 
L 693.244746 309.681508 
L 703.697322 308.724629 
L 713.475055 307.75527 
L 722.659823 306.774418 
L 731.319453 305.783331 
L 739.51076 304.783482 
L 747.28181 303.776509 
L 754.673631 302.764178 
L 761.721519 301.748334 
L 768.456062 300.730869 
L 774.903941 299.713691 
L 781.088566 298.698695 
L 787.030593 297.687738 
L 792.748338 296.682618 
L 798.258119 295.685056 
L 803.574534 294.696683 
L 808.710696 293.719026 
L 813.678429 292.753496 
L 818.488429 291.801388 
L 823.150405 290.863867 
L 827.673197 289.941971 
L 832.064874 289.036608 
L 836.332826 288.148556 
L 840.483833 287.278464 
L 844.524133 286.426855 
L 848.459478 285.594132 
L 852.295184 284.780581 
L 856.036171 283.986378 
L 859.687005 283.211594 
L 863.251928 282.456207 
L 866.734893 281.720104 
L 870.139581 281.003092 
L 873.469436 280.30491 
L 876.727675 279.625231 
L 879.917314 278.963677 
L 883.041183 278.319828 
L 886.101939 277.693226 
L 889.102082 277.083391 
L 892.043966 276.489826 
L 894.929811 275.912026 
L 897.761712 275.349489 
L 900.541648 274.801722 
L 903.271492 274.26825 
L 905.953019 273.74862 
L 908.587907 273.242415 
L 911.177753 272.749253 
L 913.724069 272.268793 
L 916.228296 271.800743 
L 918.691802 271.344862 
L 921.11589 270.900961 
L 923.501802 270.468905 
L 925.850721 270.048616 
L 928.163778 269.640068 
L 930.442051 269.243288 
L 932.68657 268.858351 
L 934.898321 268.485375 
L 937.078248 268.124517 
L 939.227252 267.77596 
L 941.3462 267.43991 
L 943.435919 267.116578 
L 945.497206 266.806171 
L 947.530825 266.508875 
L 949.537507 266.224839 
L 951.517957 265.954155 
L 953.472852 265.696835 
L 955.402843 265.452791 
L 957.308557 265.221804 
L 959.190597 265.003501 
L 961.049544 264.797318 
L 962.885958 264.602471 
L 964.700378 264.417915 
L 966.493325 264.242307 
L 968.265302 264.073965 
L 970.016793 263.910819 
L 971.748266 263.750364 
L 973.460174 263.58961 
L 975.152955 263.425024 
L 976.82703 263.25248 
L 978.482809 263.067191 
L 980.120688 262.863656 
L 981.741048 262.635589 
L 983.344262 262.375861 
L 984.930687 262.076435 
L 986.500673 261.728299 
L 988.054556 261.321412 
L 989.592664 260.84464 
L 991.115312 260.285712 
" clip-path="url(#p0644389ff4)" style="fill: none; stroke: #1f77b4; stroke-width: 6; stroke-linecap: round"/>
   </g>
   <g id="line2d_29">
    <path d="M 293.421561 352.326612 
L 398.434935 339.121318 
L 459.86382 331.396716 
L 503.448308 325.916024 
L 537.255063 321.664869 
L 564.877194 318.191422 
L 588.231372 315.254665 
L 608.461682 312.71073 
L 626.306079 310.46682 
L 642.268437 308.459575 
L 656.708146 306.6438 
L 669.890567 304.986128 
L 682.017219 303.461218 
L 693.244746 302.049371 
L 703.697322 300.734973 
L 713.475055 299.505436 
L 722.659823 298.350464 
L 731.319453 297.261527 
L 739.51076 296.23148 
L 747.28181 295.254281 
L 754.673631 294.324769 
L 761.721519 293.438507 
L 768.456062 292.591647 
L 774.903941 291.780834 
L 781.088566 291.003126 
L 787.030593 290.255924 
L 792.748338 289.536925 
L 798.258119 288.844077 
L 803.574534 288.175545 
L 808.710696 287.529679 
L 813.678429 286.904993 
L 818.488429 286.300142 
L 823.150405 285.713905 
L 827.673197 285.14517 
L 832.064874 284.592922 
L 836.332826 284.056233 
L 840.483833 283.534249 
L 844.524133 283.026187 
L 848.459478 282.531322 
L 852.295184 282.048987 
L 856.036171 281.578563 
L 859.687005 281.119475 
L 863.251928 280.671191 
L 866.734893 280.233213 
L 870.139581 279.805077 
L 873.469436 279.386353 
L 876.727675 278.976633 
L 879.917314 278.57554 
L 883.041183 278.182718 
L 886.101939 277.797832 
L 889.102082 277.420568 
L 892.043966 277.05063 
L 894.929811 276.687739 
L 897.761712 276.331631 
L 900.541648 275.982058 
L 903.271492 275.638783 
L 905.953019 275.301585 
L 908.587907 274.970251 
L 911.177753 274.644581 
L 913.724069 274.324385 
L 916.228296 274.009482 
L 918.691802 273.699699 
L 921.11589 273.394874 
L 923.501802 273.094848 
L 925.850721 272.799475 
L 928.163778 272.508611 
L 930.442051 272.222121 
L 932.68657 271.939876 
L 934.898321 271.661751 
L 937.078248 271.387628 
L 939.227252 271.117394 
L 941.3462 270.850939 
L 943.435919 270.588159 
L 945.497206 270.328955 
L 947.530825 270.07323 
L 949.537507 269.820893 
L 951.517957 269.571854 
L 953.472852 269.326028 
L 955.402843 269.083334 
L 957.308557 268.843693 
L 959.190597 268.607029 
L 961.049544 268.373269 
L 962.885958 268.142342 
L 964.700378 267.914181 
L 966.493325 267.688721 
L 968.265302 267.465897 
L 970.016793 267.245649 
L 971.748266 267.027919 
L 973.460174 266.812648 
L 975.152955 266.599784 
L 976.82703 266.389271 
L 978.482809 266.181059 
L 980.120688 265.975098 
L 981.741048 265.771339 
L 983.344262 265.569737 
L 984.930687 265.370247 
L 986.500673 265.172823 
L 988.054556 264.977424 
L 989.592664 264.784009 
L 991.115312 264.592538 
" clip-path="url(#p0644389ff4)" style="fill: none; stroke-dasharray: 22.2,9.6; stroke-dashoffset: 0; stroke: #1f77b4; stroke-width: 6"/>
   </g>
   <g id="line2d_30">
    <path d="M 293.421561 319.121824 
L 398.434935 317.377404 
L 459.86382 315.545131 
L 503.448308 313.636483 
L 537.255063 311.662538 
L 564.877194 309.633907 
L 588.231372 307.560684 
L 608.461682 305.452406 
L 626.306079 303.318021 
L 642.268437 301.165871 
L 656.708146 299.003681 
L 669.890567 296.838552 
L 682.017219 294.676966 
L 693.244746 292.52479 
L 703.697322 290.387291 
L 713.475055 288.269149 
L 722.659823 286.174476 
L 731.319453 284.106834 
L 739.51076 282.069261 
L 747.28181 280.064287 
L 754.673631 278.093966 
L 761.721519 276.159891 
L 768.456062 274.263225 
L 774.903941 272.404722 
L 781.088566 270.58475 
L 787.030593 268.803315 
L 792.748338 267.060086 
L 798.258119 265.354414 
L 803.574534 263.685355 
L 808.710696 262.051694 
L 813.678429 260.451959 
L 818.488429 258.884449 
L 823.150405 257.34725 
L 827.673197 255.838251 
L 832.064874 254.355167 
L 836.332826 252.895558 
L 840.483833 251.456841 
L 844.524133 250.036311 
L 848.459478 248.631159 
L 852.295184 247.238485 
L 856.036171 245.855317 
L 859.687005 244.478623 
L 863.251928 243.105331 
L 866.734893 241.732337 
L 870.139581 240.356527 
L 873.469436 238.974784 
L 876.727675 237.584004 
L 879.917314 236.181108 
L 883.041183 234.763053 
L 886.101939 233.326844 
L 889.102082 231.869542 
L 892.043966 230.388277 
L 894.929811 228.880252 
L 897.761712 227.342752 
L 900.541648 225.773149 
L 903.271492 224.168911 
L 905.953019 222.527599 
L 908.587907 220.846873 
L 911.177753 219.124495 
L 913.724069 217.358324 
L 916.228296 215.546318 
L 918.691802 213.686528 
L 921.11589 211.777096 
L 923.501802 209.816246 
L 925.850721 207.802281 
L 928.163778 205.733568 
L 930.442051 203.608536 
L 932.68657 201.425657 
L 934.898321 199.183438 
L 937.078248 196.88041 
L 939.227252 194.515106 
L 941.3462 192.086053 
L 943.435919 189.591755 
L 945.497206 187.030673 
L 947.530825 184.401215 
L 949.537507 181.70171 
L 951.517957 178.930402 
L 953.472852 176.085426 
L 955.402843 173.164793 
L 957.308557 170.166377 
L 959.190597 167.087897 
L 961.049544 163.926907 
L 962.885958 160.68078 
L 964.700378 157.346698 
L 966.493325 153.921645 
L 968.265302 150.402397 
L 970.016793 146.785517 
L 971.748266 143.067355 
L 973.460174 139.244045 
L 975.152955 135.311511 
L 976.82703 131.26547 
" clip-path="url(#p0644389ff4)" style="fill: none; stroke: #2ca02c; stroke-width: 6; stroke-linecap: round"/>
   </g>
   <g id="line2d_31">
    <path d="M 293.421561 403.242777 
L 398.434935 370.430899 
L 459.86382 351.237181 
L 503.448308 337.619021 
L 537.255063 327.055955 
L 564.877194 318.425302 
L 588.231372 311.128189 
L 608.461682 304.807142 
L 626.306079 299.231584 
L 642.268437 294.244077 
L 656.708146 289.732328 
L 669.890567 285.613424 
L 682.017219 281.824399 
L 693.244746 278.316311 
L 703.697322 275.050358 
L 713.475055 271.995264 
L 722.659823 269.125444 
L 731.319453 266.419705 
L 739.51076 263.860296 
L 747.28181 261.432198 
L 754.673631 259.122592 
L 761.721519 256.920449 
L 768.456062 254.816213 
L 774.903941 252.801545 
L 781.088566 250.869133 
L 787.030593 249.012521 
L 792.748338 247.225987 
L 798.258119 245.504432 
L 803.574534 243.843296 
L 808.710696 242.23848 
L 813.678429 240.686291 
L 818.488429 239.183386 
L 823.150405 237.726731 
L 827.673197 236.313565 
L 832.064874 234.941367 
L 836.332826 233.607827 
L 840.483833 232.310827 
L 844.524133 231.048418 
L 848.459478 229.818803 
L 852.295184 228.62032 
L 856.036171 227.451433 
L 859.687005 226.310714 
L 863.251928 225.196838 
L 866.734893 224.108571 
L 870.139581 223.044762 
L 873.469436 222.004334 
L 876.727675 220.986284 
L 879.917314 219.989667 
L 883.041183 219.013601 
L 886.101939 218.057255 
L 889.102082 217.119847 
L 892.043966 216.200643 
L 894.929811 215.298948 
L 897.761712 214.414109 
L 900.541648 213.545506 
L 903.271492 212.692554 
L 905.953019 211.8547 
L 908.587907 211.031417 
L 911.177753 210.222209 
L 913.724069 209.426602 
L 916.228296 208.644145 
L 918.691802 207.874412 
L 921.11589 207.116996 
L 923.501802 206.371507 
L 925.850721 205.637577 
L 928.163778 204.914853 
L 930.442051 204.202997 
L 932.68657 203.501687 
L 934.898321 202.810616 
L 937.078248 202.129489 
L 939.227252 201.458023 
L 941.3462 200.795949 
L 943.435919 200.143007 
L 945.497206 199.498949 
L 947.530825 198.863536 
L 949.537507 198.23654 
L 951.517957 197.61774 
L 953.472852 197.006924 
L 955.402843 196.40389 
L 957.308557 195.808442 
L 959.190597 195.22039 
L 961.049544 194.639554 
L 962.885958 194.065759 
L 964.700378 193.498836 
L 966.493325 192.938622 
L 968.265302 192.38496 
L 970.016793 191.837699 
L 971.748266 191.296693 
L 973.460174 190.7618 
L 975.152955 190.232883 
L 976.82703 189.709811 
" clip-path="url(#p0644389ff4)" style="fill: none; stroke-dasharray: 22.2,9.6; stroke-dashoffset: 0; stroke: #2ca02c; stroke-width: 6"/>
   </g>
   <g id="line2d_32">
    <path d="M 293.421561 317.826597 
L 398.434935 314.569703 
L 459.86382 311.223585 
L 503.448308 307.813884 
L 537.255063 304.363198 
L 564.877194 300.89123 
L 588.231372 297.414949 
L 608.461682 293.948767 
L 626.306079 290.504717 
L 642.268437 287.09264 
L 656.708146 283.720352 
L 669.890567 280.393818 
L 682.017219 277.117311 
L 693.244746 273.893559 
L 703.697322 270.723885 
L 713.475055 267.608338 
L 722.659823 264.545808 
L 731.319453 261.534136 
L 739.51076 258.570217 
L 747.28181 255.650091 
L 754.673631 252.769033 
L 761.721519 249.921627 
L 768.456062 247.101847 
L 774.903941 244.303128 
L 781.088566 241.518433 
L 787.030593 238.740318 
L 792.748338 235.960997 
L 798.258119 233.172407 
L 803.574534 230.366262 
L 808.710696 227.534124 
L 813.678429 224.667454 
L 818.488429 221.75768 
L 823.150405 218.796253 
L 827.673197 215.774707 
L 832.064874 212.68472 
L 836.332826 209.518173 
L 840.483833 206.267205 
L 844.524133 202.924271 
L 848.459478 199.482196 
L 852.295184 195.934222 
L 856.036171 192.274063 
L 859.687005 188.495938 
L 863.251928 184.594622 
L 866.734893 180.56547 
L 870.139581 176.40445 
L 873.469436 172.108163 
L 876.727675 167.673862 
L 879.917314 163.099455 
L 883.041183 158.383515 
L 886.101939 153.525268 
L 889.102082 148.524585 
L 892.043966 143.381966 
L 894.929811 138.098515 
L 897.761712 132.675909 
L 900.541648 127.116367 
L 903.271492 121.422613 
L 905.953019 115.597831 
L 908.587907 109.645621 
L 911.177753 103.569956 
" clip-path="url(#p0644389ff4)" style="fill: none; stroke: #8c564b; stroke-width: 6; stroke-linecap: round"/>
   </g>
   <g id="line2d_33">
    <path d="M 293.421561 403.529933 
L 398.434935 363.32911 
L 459.86382 339.813135 
L 503.448308 323.128286 
L 537.255063 310.186512 
L 564.877194 299.612312 
L 588.231372 290.671953 
L 608.461682 282.927463 
L 626.306079 276.096338 
L 642.268437 269.985688 
L 656.708146 264.457933 
L 669.890567 259.411488 
L 682.017219 254.769209 
L 693.244746 250.47113 
L 703.697322 246.469714 
L 713.475055 242.726639 
L 722.659823 239.210561 
L 731.319453 235.895514 
L 739.51076 232.759749 
L 747.28181 229.784865 
L 754.673631 226.955156 
L 761.721519 224.25711 
L 768.456062 221.679017 
L 774.903941 219.210665 
L 781.088566 216.84309 
L 787.030593 214.568386 
L 792.748338 212.37954 
L 798.258119 210.270306 
L 803.574534 208.235096 
L 808.710696 206.26889 
L 813.678429 204.367162 
L 818.488429 202.525816 
L 823.150405 200.741135 
L 827.673197 199.009737 
L 832.064874 197.328532 
L 836.332826 195.694691 
L 840.483833 194.105618 
L 844.524133 192.558925 
L 848.459478 191.052411 
L 852.295184 189.584041 
L 856.036171 188.15193 
L 859.687005 186.754332 
L 863.251928 185.389621 
L 866.734893 184.056286 
L 870.139581 182.752916 
L 873.469436 181.478194 
L 876.727675 180.230887 
L 879.917314 179.009841 
L 883.041183 177.813974 
L 886.101939 176.642266 
L 889.102082 175.493763 
L 892.043966 174.367562 
L 894.929811 173.262814 
L 897.761712 172.178716 
L 900.541648 171.114512 
L 903.271492 170.069483 
L 905.953019 169.042951 
L 908.587907 168.034273 
L 911.177753 167.042838 
" clip-path="url(#p0644389ff4)" style="fill: none; stroke-dasharray: 22.2,9.6; stroke-dashoffset: 0; stroke: #8c564b; stroke-width: 6"/>
   </g>
   <g id="line2d_34">
    <path d="M 293.421561 318.473439 
L 398.434935 313.756654 
L 459.86382 308.986202 
L 503.448308 304.191223 
L 537.255063 299.395128 
L 564.877194 294.616133 
L 588.231372 289.867788 
L 608.461682 285.159472 
L 626.306079 280.496852 
L 642.268437 275.882313 
L 656.708146 271.315342 
L 669.890567 266.792881 
L 682.017219 262.309648 
L 693.244746 257.858426 
L 703.697322 253.43033 
L 713.475055 249.015051 
L 722.659823 244.601085 
L 731.319453 240.175944 
L 739.51076 235.726361 
L 747.28181 231.238482 
L 754.673631 226.698053 
L 761.721519 222.090605 
L 768.456062 217.401628 
L 774.903941 212.616747 
L 781.088566 207.721892 
L 787.030593 202.703458 
L 792.748338 197.548465 
L 798.258119 192.244706 
L 803.574534 186.780889 
L 808.710696 181.146759 
L 813.678429 175.333212 
L 818.488429 169.332395 
L 823.150405 163.137781 
L 827.673197 156.744225 
L 832.064874 150.14801 
L 836.332826 143.346854 
L 840.483833 136.339914 
L 844.524133 129.127753 
L 848.459478 121.712299 
L 852.295184 114.09678 
L 856.036171 106.285645 
L 859.687005 98.284468 
L 863.251928 90.099843 
L 866.734893 81.739273 
" clip-path="url(#p0644389ff4)" style="fill: none; stroke: #7f7f7f; stroke-width: 6; stroke-linecap: round"/>
   </g>
   <g id="line2d_35">
    <path d="M 293.421561 406.213125 
L 398.434935 359.157478 
L 459.86382 331.63169 
L 503.448308 312.101832 
L 537.255063 296.953297 
L 564.877194 284.576043 
L 588.231372 274.111224 
L 608.461682 265.046185 
L 626.306079 257.050254 
L 642.268437 249.89765 
L 656.708146 243.427333 
L 669.890567 237.520396 
L 682.017219 232.086541 
L 693.244746 227.055577 
L 703.697322 222.371861 
L 713.475055 217.990538 
L 722.659823 213.874918 
L 731.319453 209.994607 
L 739.51076 206.324149 
L 747.28181 202.842003 
L 754.673631 199.529788 
L 761.721519 196.371686 
L 768.456062 193.353992 
L 774.903941 190.464749 
L 781.088566 187.693469 
L 787.030593 185.030894 
L 792.748338 182.468818 
L 798.258119 179.99993 
L 803.574534 177.617687 
L 808.710696 175.316215 
L 813.678429 173.090214 
L 818.488429 170.934891 
L 823.150405 168.845897 
L 827.673197 166.819271 
L 832.064874 164.851395 
L 836.332826 162.93896 
L 840.483833 161.078928 
L 844.524133 159.268502 
L 848.459478 157.505105 
L 852.295184 155.786357 
L 856.036171 154.110051 
L 859.687005 152.474141 
L 863.251928 150.876728 
L 866.734893 149.316039 
" clip-path="url(#p0644389ff4)" style="fill: none; stroke-dasharray: 22.2,9.6; stroke-dashoffset: 0; stroke: #7f7f7f; stroke-width: 6"/>
   </g>
   <g id="line2d_36">
    <path d="M 293.421561 314.788404 
L 398.434935 309.315041 
L 459.86382 303.755978 
L 503.448308 298.135259 
L 537.255063 292.469486 
L 564.877194 286.768686 
L 588.231372 281.037152 
L 608.461682 275.27422 
L 626.306079 269.474987 
L 642.268437 263.630985 
L 656.708146 257.730798 
L 669.890567 251.760636 
L 682.017219 245.704878 
L 693.244746 239.546575 
L 703.697322 233.26793 
L 713.475055 226.850749 
L 722.659823 220.276867 
L 731.319453 213.528555 
L 739.51076 206.588885 
L 747.28181 199.442085 
L 754.673631 192.073839 
L 761.721519 184.471567 
L 768.456062 176.624647 
L 774.903941 168.524602 
L 781.088566 160.165231 
L 787.030593 151.54269 
L 792.748338 142.655522 
L 798.258119 133.504635 
L 803.574534 124.093237 
L 808.710696 114.426715 
L 813.678429 104.512494 
L 818.488429 94.359843 
L 823.150405 83.979678 
" clip-path="url(#p0644389ff4)" style="fill: none; stroke: #17becf; stroke-width: 6; stroke-linecap: round"/>
   </g>
   <g id="line2d_37">
    <path d="M 293.421561 394.279353 
L 398.434935 345.456518 
L 459.86382 316.89699 
L 503.448308 296.633682 
L 537.255063 280.91624 
L 564.877194 268.074154 
L 588.231372 257.216325 
L 608.461682 247.810846 
L 626.306079 239.514626 
L 642.268437 232.093404 
L 656.708146 225.380092 
L 669.890567 219.251318 
L 682.017219 213.613393 
L 693.244746 208.39349 
L 703.697322 203.533876 
L 713.475055 198.988011 
L 722.659823 194.717827 
L 731.319453 190.69179 
L 739.51076 186.883487 
L 747.28181 183.270568 
L 754.673631 179.833962 
L 761.721519 176.557256 
L 768.456062 173.426232 
L 774.903941 170.428483 
L 781.088566 167.553126 
L 787.030593 164.790558 
L 792.748338 162.132262 
L 798.258119 159.570654 
L 803.574534 157.098946 
L 808.710696 154.71104 
L 813.678429 152.401441 
L 818.488429 150.165175 
L 823.150405 147.997728 
" clip-path="url(#p0644389ff4)" style="fill: none; stroke-dasharray: 22.2,9.6; stroke-dashoffset: 0; stroke: #17becf; stroke-width: 6"/>
   </g>
   <g id="patch_3">
    <path d="M 258.536874 422.436818 
L 258.536874 65.515581 
" style="fill: none; stroke: #262626; stroke-width: 0.8; stroke-linejoin: miter; stroke-linecap: square"/>
   </g>
   <g id="patch_4">
    <path d="M 1026 422.436818 
L 1026 65.515581 
" style="fill: none; stroke: #262626; stroke-width: 0.8; stroke-linejoin: miter; stroke-linecap: square"/>
   </g>
   <g id="patch_5">
    <path d="M 258.536874 422.436818 
L 1026 422.436818 
" style="fill: none; stroke: #262626; stroke-width: 0.8; stroke-linejoin: miter; stroke-linecap: square"/>
   </g>
   <g id="patch_6">
    <path d="M 258.536874 65.515581 
L 1026 65.515581 
" style="fill: none; stroke: #262626; stroke-width: 0.8; stroke-linejoin: miter; stroke-linecap: square"/>
   </g>
  </g>
 </g>
 <defs>
  <clipPath id="p0644389ff4">
   <rect x="258.536874" y="65.515581" width="767.463126" height="356.921237"/>
  </clipPath>
 </defs>
</svg>
