<?xml version="1.0" encoding="utf-8" standalone="no"?>
<!DOCTYPE svg PUBLIC "-//W3C//DTD SVG 1.1//EN"
  "http://www.w3.org/Graphics/SVG/1.1/DTD/svg11.dtd">
<svg xmlns:xlink="http://www.w3.org/1999/xlink" width="1080pt" height="756pt" viewBox="0 0 1080 756" xmlns="http://www.w3.org/2000/svg" version="1.1">
 <metadata>
  <rdf:RDF xmlns:dc="http://purl.org/dc/elements/1.1/" xmlns:cc="http://creativecommons.org/ns#" xmlns:rdf="http://www.w3.org/1999/02/22-rdf-syntax-ns#">
   <cc:Work>
    <dc:type rdf:resource="http://purl.org/dc/dcmitype/StillImage"/>
    <dc:date>2024-07-31T08:54:48.217313</dc:date>
    <dc:format>image/svg+xml</dc:format>
    <dc:creator>
     <cc:Agent>
      <dc:title>Matplotlib v3.9.0, https://matplotlib.org/</dc:title>
     </cc:Agent>
    </dc:creator>
   </cc:Work>
  </rdf:RDF>
 </metadata>
 <defs>
  <style type="text/css">*{stroke-linejoin: round; stroke-linecap: butt}</style>
 </defs>
 <g id="figure_1">
  <g id="patch_1">
   <path d="M 0 756 
L 1080 756 
L 1080 0 
L 0 0 
z
" style="fill: #ffffff"/>
  </g>
  <g id="axes_1">
   <g id="patch_2">
    <path d="M 88.532127 678.237256 
L 1041.12 678.237256 
L 1041.12 38.88 
L 88.532127 38.88 
z
" style="fill: #ffffff"/>
   </g>
   <g id="matplotlib.axis_1">
    <g id="xtick_1">
     <g id="line2d_1">
      <defs>
       <path id="m84b87f6df5" d="M 0 0 
L 0 3.5 
" style="stroke: #262626; stroke-width: 0.8"/>
      </defs>
      <g>
       <use xlink:href="#m84b87f6df5" x="88.532127" y="678.237256" style="fill: #262626; stroke: #262626; stroke-width: 0.8"/>
      </g>
     </g>
     <g id="text_1">
      <!-- $\mathdefault{0.0}$ -->
      <g style="fill: #262626" transform="translate(67.206064 710.143856) scale(0.36 -0.36)">
       <defs>
        <path id="CMR17-30" d="M 2688 2025 
C 2688 2416 2682 3080 2413 3591 
C 2176 4039 1798 4198 1466 4198 
C 1158 4198 768 4058 525 3597 
C 269 3118 243 2524 243 2025 
C 243 1661 250 1106 448 619 
C 723 -39 1216 -128 1466 -128 
C 1760 -128 2208 -7 2470 600 
C 2662 1042 2688 1559 2688 2025 
z
M 1466 -26 
C 1056 -26 813 325 723 812 
C 653 1188 653 1738 653 2096 
C 653 2588 653 2997 736 3387 
C 858 3929 1216 4096 1466 4096 
C 1728 4096 2067 3923 2189 3400 
C 2272 3036 2278 2607 2278 2096 
C 2278 1680 2278 1169 2202 792 
C 2067 95 1690 -26 1466 -26 
z
" transform="scale(0.015625)"/>
        <path id="CMMI12-3a" d="M 1178 307 
C 1178 492 1024 619 870 619 
C 685 619 557 466 557 313 
C 557 128 710 0 864 0 
C 1050 0 1178 153 1178 307 
z
" transform="scale(0.015625)"/>
       </defs>
       <use xlink:href="#CMR17-30" transform="scale(0.996264)"/>
       <use xlink:href="#CMMI12-3a" transform="translate(45.690477 0) scale(0.996264)"/>
       <use xlink:href="#CMR17-30" transform="translate(72.787654 0) scale(0.996264)"/>
      </g>
     </g>
    </g>
    <g id="xtick_2">
     <g id="line2d_2">
      <g>
       <use xlink:href="#m84b87f6df5" x="269.977436" y="678.237256" style="fill: #262626; stroke: #262626; stroke-width: 0.8"/>
      </g>
     </g>
     <g id="text_2">
      <!-- $\mathdefault{0.2}$ -->
      <g style="fill: #262626" transform="translate(248.651373 710.143856) scale(0.36 -0.36)">
       <defs>
        <path id="CMR17-32" d="M 2669 989 
L 2554 989 
C 2490 536 2438 459 2413 420 
C 2381 369 1920 369 1830 369 
L 602 369 
C 832 619 1280 1072 1824 1597 
C 2214 1967 2669 2402 2669 3035 
C 2669 3790 2067 4224 1395 4224 
C 691 4224 262 3604 262 3030 
C 262 2780 448 2748 525 2748 
C 589 2748 781 2787 781 3010 
C 781 3207 614 3264 525 3264 
C 486 3264 448 3258 422 3245 
C 544 3790 915 4058 1306 4058 
C 1862 4058 2227 3617 2227 3035 
C 2227 2479 1901 2000 1536 1584 
L 262 146 
L 262 0 
L 2515 0 
L 2669 989 
z
" transform="scale(0.015625)"/>
       </defs>
       <use xlink:href="#CMR17-30" transform="scale(0.996264)"/>
       <use xlink:href="#CMMI12-3a" transform="translate(45.690477 0) scale(0.996264)"/>
       <use xlink:href="#CMR17-32" transform="translate(72.787654 0) scale(0.996264)"/>
      </g>
     </g>
    </g>
    <g id="xtick_3">
     <g id="line2d_3">
      <g>
       <use xlink:href="#m84b87f6df5" x="451.422745" y="678.237256" style="fill: #262626; stroke: #262626; stroke-width: 0.8"/>
      </g>
     </g>
     <g id="text_3">
      <!-- $\mathdefault{0.4}$ -->
      <g style="fill: #262626" transform="translate(430.096682 710.143856) scale(0.36 -0.36)">
       <defs>
        <path id="CMR17-34" d="M 2150 4122 
C 2150 4256 2144 4256 2029 4256 
L 128 1254 
L 128 1088 
L 1779 1088 
L 1779 457 
C 1779 224 1766 160 1318 160 
L 1197 160 
L 1197 0 
C 1402 0 1747 0 1965 0 
C 2182 0 2528 0 2733 0 
L 2733 160 
L 2611 160 
C 2163 160 2150 224 2150 457 
L 2150 1088 
L 2803 1088 
L 2803 1254 
L 2150 1254 
L 2150 4122 
z
M 1798 3703 
L 1798 1254 
L 256 1254 
L 1798 3703 
z
" transform="scale(0.015625)"/>
       </defs>
       <use xlink:href="#CMR17-30" transform="scale(0.996264)"/>
       <use xlink:href="#CMMI12-3a" transform="translate(45.690477 0) scale(0.996264)"/>
       <use xlink:href="#CMR17-34" transform="translate(72.787654 0) scale(0.996264)"/>
      </g>
     </g>
    </g>
    <g id="xtick_4">
     <g id="line2d_4">
      <g>
       <use xlink:href="#m84b87f6df5" x="632.868055" y="678.237256" style="fill: #262626; stroke: #262626; stroke-width: 0.8"/>
      </g>
     </g>
     <g id="text_4">
      <!-- $\mathdefault{0.6}$ -->
      <g style="fill: #262626" transform="translate(611.541991 710.143856) scale(0.36 -0.36)">
       <defs>
        <path id="CMR17-36" d="M 678 2176 
C 678 3690 1395 4032 1811 4032 
C 1946 4032 2272 4009 2400 3776 
C 2298 3776 2106 3776 2106 3553 
C 2106 3381 2246 3323 2336 3323 
C 2394 3323 2566 3348 2566 3560 
C 2566 3954 2246 4179 1805 4179 
C 1043 4179 243 3390 243 1984 
C 243 253 966 -128 1478 -128 
C 2099 -128 2688 427 2688 1283 
C 2688 2081 2170 2662 1517 2662 
C 1126 2662 838 2407 678 1960 
L 678 2176 
z
M 1478 25 
C 691 25 691 1200 691 1436 
C 691 1896 909 2560 1504 2560 
C 1613 2560 1926 2560 2138 2120 
C 2253 1870 2253 1609 2253 1289 
C 2253 944 2253 690 2118 434 
C 1978 171 1773 25 1478 25 
z
" transform="scale(0.015625)"/>
       </defs>
       <use xlink:href="#CMR17-30" transform="scale(0.996264)"/>
       <use xlink:href="#CMMI12-3a" transform="translate(45.690477 0) scale(0.996264)"/>
       <use xlink:href="#CMR17-36" transform="translate(72.787654 0) scale(0.996264)"/>
      </g>
     </g>
    </g>
    <g id="xtick_5">
     <g id="line2d_5">
      <g>
       <use xlink:href="#m84b87f6df5" x="814.313364" y="678.237256" style="fill: #262626; stroke: #262626; stroke-width: 0.8"/>
      </g>
     </g>
     <g id="text_5">
      <!-- $\mathdefault{0.8}$ -->
      <g style="fill: #262626" transform="translate(792.9873 710.143856) scale(0.36 -0.36)">
       <defs>
        <path id="CMR17-38" d="M 1741 2264 
C 2144 2467 2554 2773 2554 3263 
C 2554 3841 1990 4179 1472 4179 
C 890 4179 378 3759 378 3180 
C 378 3021 416 2747 666 2505 
C 730 2442 998 2251 1171 2130 
C 883 1983 211 1634 211 934 
C 211 279 838 -128 1459 -128 
C 2144 -128 2720 362 2720 1010 
C 2720 1590 2330 1857 2074 2029 
L 1741 2264 
z
M 902 2822 
C 851 2854 595 3051 595 3351 
C 595 3739 998 4032 1459 4032 
C 1965 4032 2336 3676 2336 3262 
C 2336 2669 1670 2331 1638 2331 
C 1632 2331 1626 2331 1574 2370 
L 902 2822 
z
M 2080 1519 
C 2176 1449 2483 1240 2483 851 
C 2483 381 2010 25 1472 25 
C 890 25 448 438 448 940 
C 448 1443 838 1862 1280 2060 
L 2080 1519 
z
" transform="scale(0.015625)"/>
       </defs>
       <use xlink:href="#CMR17-30" transform="scale(0.996264)"/>
       <use xlink:href="#CMMI12-3a" transform="translate(45.690477 0) scale(0.996264)"/>
       <use xlink:href="#CMR17-38" transform="translate(72.787654 0) scale(0.996264)"/>
      </g>
     </g>
    </g>
    <g id="xtick_6">
     <g id="line2d_6">
      <g>
       <use xlink:href="#m84b87f6df5" x="995.758673" y="678.237256" style="fill: #262626; stroke: #262626; stroke-width: 0.8"/>
      </g>
     </g>
     <g id="text_6">
      <!-- $\mathdefault{1.0}$ -->
      <g style="fill: #262626" transform="translate(974.432609 710.143856) scale(0.36 -0.36)">
       <defs>
        <path id="CMR17-31" d="M 1702 4058 
C 1702 4192 1696 4192 1606 4192 
C 1357 3916 979 3827 621 3827 
C 602 3827 570 3827 563 3808 
C 557 3795 557 3782 557 3648 
C 755 3648 1088 3686 1344 3839 
L 1344 461 
C 1344 236 1331 160 781 160 
L 589 160 
L 589 0 
C 896 0 1216 0 1523 0 
C 1830 0 2150 0 2458 0 
L 2458 160 
L 2266 160 
C 1715 160 1702 230 1702 458 
L 1702 4058 
z
" transform="scale(0.015625)"/>
       </defs>
       <use xlink:href="#CMR17-31" transform="scale(0.996264)"/>
       <use xlink:href="#CMMI12-3a" transform="translate(45.690477 0) scale(0.996264)"/>
       <use xlink:href="#CMR17-30" transform="translate(72.787654 0) scale(0.996264)"/>
      </g>
     </g>
    </g>
   </g>
   <g id="matplotlib.axis_2">
    <g id="ytick_1">
     <g id="line2d_7">
      <defs>
       <path id="md5c32c6249" d="M 0 0 
L -3.5 0 
" style="stroke: #262626; stroke-width: 0.8"/>
      </defs>
      <g>
       <use xlink:href="#md5c32c6249" x="88.532127" y="678.237256" style="fill: #262626; stroke: #262626; stroke-width: 0.8"/>
      </g>
     </g>
     <g id="text_7">
      <!-- $\mathdefault{0.0}$ -->
      <g style="fill: #262626" transform="translate(38.88 690.690556) scale(0.36 -0.36)">
       <use xlink:href="#CMR17-30" transform="scale(0.996264)"/>
       <use xlink:href="#CMMI12-3a" transform="translate(45.690477 0) scale(0.996264)"/>
       <use xlink:href="#CMR17-30" transform="translate(72.787654 0) scale(0.996264)"/>
      </g>
     </g>
    </g>
    <g id="ytick_2">
     <g id="line2d_8">
      <g>
       <use xlink:href="#md5c32c6249" x="88.532127" y="678.222109" style="fill: #262626; stroke: #262626; stroke-width: 0.8"/>
      </g>
     </g>
     <g id="text_8">
      <!-- $\mathdefault{0.2}$ -->
      <g style="fill: #262626" transform="translate(38.88 690.675409) scale(0.36 -0.36)">
       <use xlink:href="#CMR17-30" transform="scale(0.996264)"/>
       <use xlink:href="#CMMI12-3a" transform="translate(45.690477 0) scale(0.996264)"/>
       <use xlink:href="#CMR17-32" transform="translate(72.787654 0) scale(0.996264)"/>
      </g>
     </g>
    </g>
    <g id="ytick_3">
     <g id="line2d_9">
      <g>
       <use xlink:href="#md5c32c6249" x="88.532127" y="678.206962" style="fill: #262626; stroke: #262626; stroke-width: 0.8"/>
      </g>
     </g>
     <g id="text_9">
      <!-- $\mathdefault{0.4}$ -->
      <g style="fill: #262626" transform="translate(38.88 690.660262) scale(0.36 -0.36)">
       <use xlink:href="#CMR17-30" transform="scale(0.996264)"/>
       <use xlink:href="#CMMI12-3a" transform="translate(45.690477 0) scale(0.996264)"/>
       <use xlink:href="#CMR17-34" transform="translate(72.787654 0) scale(0.996264)"/>
      </g>
     </g>
    </g>
    <g id="ytick_4">
     <g id="line2d_10">
      <g>
       <use xlink:href="#md5c32c6249" x="88.532127" y="678.191815" style="fill: #262626; stroke: #262626; stroke-width: 0.8"/>
      </g>
     </g>
     <g id="text_10">
      <!-- $\mathdefault{0.6}$ -->
      <g style="fill: #262626" transform="translate(38.88 690.645115) scale(0.36 -0.36)">
       <use xlink:href="#CMR17-30" transform="scale(0.996264)"/>
       <use xlink:href="#CMMI12-3a" transform="translate(45.690477 0) scale(0.996264)"/>
       <use xlink:href="#CMR17-36" transform="translate(72.787654 0) scale(0.996264)"/>
      </g>
     </g>
    </g>
    <g id="ytick_5">
     <g id="line2d_11">
      <g>
       <use xlink:href="#md5c32c6249" x="88.532127" y="678.176668" style="fill: #262626; stroke: #262626; stroke-width: 0.8"/>
      </g>
     </g>
     <g id="text_11">
      <!-- $\mathdefault{0.8}$ -->
      <g style="fill: #262626" transform="translate(38.88 690.629968) scale(0.36 -0.36)">
       <use xlink:href="#CMR17-30" transform="scale(0.996264)"/>
       <use xlink:href="#CMMI12-3a" transform="translate(45.690477 0) scale(0.996264)"/>
       <use xlink:href="#CMR17-38" transform="translate(72.787654 0) scale(0.996264)"/>
      </g>
     </g>
    </g>
    <g id="ytick_6">
     <g id="line2d_12">
      <g>
       <use xlink:href="#md5c32c6249" x="88.532127" y="678.161521" style="fill: #262626; stroke: #262626; stroke-width: 0.8"/>
      </g>
     </g>
     <g id="text_12">
      <!-- $\mathdefault{1.0}$ -->
      <g style="fill: #262626" transform="translate(38.88 690.614821) scale(0.36 -0.36)">
       <use xlink:href="#CMR17-31" transform="scale(0.996264)"/>
       <use xlink:href="#CMMI12-3a" transform="translate(45.690477 0) scale(0.996264)"/>
       <use xlink:href="#CMR17-30" transform="translate(72.787654 0) scale(0.996264)"/>
      </g>
     </g>
    </g>
    <g id="ytick_7">
     <g id="line2d_13">
      <g>
       <use xlink:href="#md5c32c6249" x="88.532127" y="678.146373" style="fill: #262626; stroke: #262626; stroke-width: 0.8"/>
      </g>
     </g>
     <g id="text_13">
      <!-- $\mathdefault{1.2}$ -->
      <g style="fill: #262626" transform="translate(38.88 690.599674) scale(0.36 -0.36)">
       <use xlink:href="#CMR17-31" transform="scale(0.996264)"/>
       <use xlink:href="#CMMI12-3a" transform="translate(45.690477 0) scale(0.996264)"/>
       <use xlink:href="#CMR17-32" transform="translate(72.787654 0) scale(0.996264)"/>
      </g>
     </g>
    </g>
   </g>
   <g id="line2d_14">
    <path d="M 88.532127 678.237256 
L 995.758673 678.237256 
L 995.758673 678.237256 
" clip-path="url(#p0ab2638453)" style="fill: none; stroke: #1f77b4; stroke-width: 5; stroke-linecap: round"/>
   </g>
   <g id="line2d_15">
    <path d="M 88.532127 669.249191 
L 155.062074 670.447469 
L 227.640198 671.533363 
L 312.314675 672.573836 
L 409.085507 673.534098 
L 524.000869 674.436114 
L 657.060762 675.242373 
L 814.313364 675.958222 
L 995.758673 676.560047 
L 995.758673 676.560047 
" clip-path="url(#p0ab2638453)" style="fill: none; stroke: #ff7f0e; stroke-width: 5; stroke-linecap: round"/>
   </g>
   <g id="line2d_16">
    <path d="M 88.532127 656.577379 
L 118.773012 658.472208 
L 149.013897 660.131043 
L 185.302959 661.866134 
L 221.592021 663.372295 
L 263.929259 664.8939 
L 312.314675 666.381367 
L 366.748268 667.798613 
L 427.230038 669.121719 
L 493.759984 670.336813 
L 566.338108 671.437776 
L 651.012585 672.49253 
L 747.783417 673.465844 
L 856.650602 674.337318 
L 983.662319 675.131608 
L 995.758673 675.197158 
L 995.758673 675.197158 
" clip-path="url(#p0ab2638453)" style="fill: none; stroke: #2ca02c; stroke-width: 5; stroke-linecap: round"/>
   </g>
   <g id="line2d_17">
    <path d="M 88.532127 638.355755 
L 100.628481 640.388862 
L 112.724835 642.256758 
L 130.869366 644.790045 
L 149.013897 647.047377 
L 167.158428 649.070983 
L 185.302959 650.894868 
L 209.495667 653.063121 
L 233.688375 654.977437 
L 257.881082 656.678937 
L 288.121967 658.55569 
L 318.362852 660.200754 
L 354.651914 661.923234 
L 390.940976 663.419758 
L 433.278215 664.932721 
L 481.66363 666.412676 
L 536.097223 667.82353 
L 596.578993 669.141278 
L 663.108939 670.351936 
L 735.687063 671.449262 
L 820.361541 672.500876 
L 917.132372 673.471597 
L 995.758673 674.119545 
L 995.758673 674.119545 
" clip-path="url(#p0ab2638453)" style="fill: none; stroke: #d62728; stroke-width: 5; stroke-linecap: round"/>
   </g>
   <g id="line2d_18">
    <path d="M 88.532127 611.6159 
L 94.580304 614.076359 
L 100.628481 616.381408 
L 106.676658 618.54535 
L 112.724835 620.580721 
L 124.821189 624.308932 
L 136.917543 627.640888 
L 149.013897 630.636338 
L 161.110251 633.34353 
L 173.206605 635.801904 
L 185.302959 638.043964 
L 197.399313 640.096789 
L 209.495667 641.983106 
L 227.640198 644.541615 
L 245.784728 646.82141 
L 263.929259 648.864974 
L 282.07379 650.706568 
L 306.266498 652.895387 
L 330.459206 654.827309 
L 354.651914 656.54395 
L 384.892799 658.43676 
L 415.133684 660.095282 
L 451.422745 661.83121 
L 487.711807 663.338837 
L 530.049046 664.862461 
L 578.434462 666.352275 
L 632.868055 667.772 
L 693.349824 669.097564 
L 759.879771 670.315007 
L 832.457895 671.418168 
L 917.132372 672.47509 
L 995.758673 673.283588 
L 995.758673 673.283588 
" clip-path="url(#p0ab2638453)" style="fill: none; stroke: #9467bd; stroke-width: 5; stroke-linecap: round"/>
   </g>
   <g id="line2d_19">
    <path d="M 88.532127 571.606115 
L 94.580304 577.233327 
L 100.628481 582.33883 
L 106.676658 586.992299 
L 112.724835 591.251334 
L 118.773012 595.164123 
L 124.821189 598.77127 
L 130.869366 602.107208 
L 136.917543 605.201435 
L 142.96572 608.079225 
L 149.013897 610.762477 
L 155.062074 613.270223 
L 161.110251 615.619042 
L 167.158428 617.823552 
L 173.206605 619.896585 
L 185.302959 623.69235 
L 197.399313 627.082939 
L 209.495667 630.129503 
L 221.592021 632.881469 
L 233.688375 635.379201 
L 245.784728 637.656026 
L 257.881082 639.739673 
L 269.977436 641.653416 
L 288.121967 644.247697 
L 306.266498 646.55792 
L 324.411029 648.627546 
L 342.55556 650.49161 
L 366.748268 652.705859 
L 390.940976 654.65905 
L 415.133684 656.393634 
L 445.374568 658.305199 
L 475.615453 659.979245 
L 511.904515 661.730504 
L 548.193577 663.250687 
L 590.530816 664.786286 
L 638.916232 666.287117 
L 687.301647 667.569568 
L 741.73524 668.802629 
L 808.265187 670.069456 
L 880.84331 671.214627 
L 965.517788 672.309378 
L 995.758673 672.649091 
L 995.758673 672.649091 
" clip-path="url(#p0ab2638453)" style="fill: none; stroke: #8c564b; stroke-width: 5; stroke-linecap: round"/>
   </g>
   <g id="line2d_20">
    <path d="M 88.532127 510.735266 
L 94.580304 523.336511 
L 100.628481 534.346145 
L 106.676658 543.98894 
L 112.724835 552.489559 
L 118.773012 560.040412 
L 124.821189 566.792733 
L 130.869366 572.867036 
L 136.917543 578.360757 
L 142.96572 583.353304 
L 149.013897 587.91026 
L 155.062074 592.0862 
L 161.110251 595.926864 
L 167.158428 599.471036 
L 173.206605 602.751669 
L 179.254782 605.797003 
L 185.302959 608.631343 
L 191.351136 611.275834 
L 197.399313 613.748812 
L 203.44749 616.066356 
L 209.495667 618.242603 
L 215.543844 620.290014 
L 227.640198 624.041141 
L 239.736552 627.394366 
L 251.832905 630.409287 
L 263.929259 633.134202 
L 276.025613 635.608622 
L 288.121967 637.865201 
L 300.218321 639.931166 
L 312.314675 641.829331 
L 330.459206 644.403538 
L 348.603737 646.696873 
L 366.748268 648.752148 
L 384.892799 650.603919 
L 409.085507 652.804338 
L 433.278215 654.746015 
L 457.470922 656.470916 
L 487.711807 658.372379 
L 517.952692 660.038096 
L 554.241754 661.781144 
L 590.530816 663.294622 
L 632.868055 664.823843 
L 681.25347 666.31883 
L 729.638886 667.596595 
L 784.072479 668.825419 
L 850.602425 670.088172 
L 923.180549 671.229904 
L 995.758673 672.179109 
L 995.758673 672.179109 
" clip-path="url(#p0ab2638453)" style="fill: none; stroke: #e377c2; stroke-width: 5; stroke-linecap: round"/>
   </g>
   <g id="line2d_21">
    <path d="M 88.532127 424.186305 
L 94.580304 448.337428 
L 100.628481 469.263749 
L 106.676658 487.360032 
L 112.724835 503.085086 
L 118.773012 516.712277 
L 124.821189 528.557139 
L 130.869366 538.887588 
L 136.917543 547.964567 
L 142.96572 556.000295 
L 149.013897 563.164277 
L 155.062074 569.591024 
L 161.110251 575.388589 
L 167.158428 580.644998 
L 173.206605 585.432483 
L 179.254782 589.81096 
L 185.302959 593.8305 
L 191.351136 597.533423 
L 197.399313 600.955547 
L 203.44749 604.127529 
L 209.495667 607.07572 
L 215.543844 609.822891 
L 221.592021 612.388753 
L 227.640198 614.790624 
L 233.688375 617.043655 
L 239.736552 619.161163 
L 251.832905 623.035401 
L 263.929259 626.492763 
L 276.025613 629.596577 
L 288.121967 632.397972 
L 300.218321 634.938686 
L 312.314675 637.253053 
L 324.411029 639.369715 
L 336.507383 641.312621 
L 354.651914 643.944646 
L 372.796445 646.286731 
L 390.940976 648.383501 
L 409.085507 650.270879 
L 433.278215 652.511415 
L 457.470922 654.486518 
L 481.66363 656.23956 
L 511.904515 658.170367 
L 542.1454 659.860327 
L 578.434462 661.6273 
L 614.723524 663.160355 
L 657.060762 664.708221 
L 705.446178 666.220342 
L 753.831594 667.511892 
L 808.265187 668.753229 
L 868.746956 669.921663 
L 941.32508 671.092192 
L 995.758673 671.837142 
L 995.758673 671.837142 
" clip-path="url(#p0ab2638453)" style="fill: none; stroke: #7f7f7f; stroke-width: 5; stroke-linecap: round"/>
   </g>
   <g id="line2d_22">
    <path d="M 88.532127 317.875816 
L 94.580304 356.655758 
L 100.628481 390.121145 
L 106.676658 418.96092 
L 112.724835 443.932943 
L 118.773012 465.478785 
L 124.821189 484.111115 
L 130.869366 500.251435 
L 136.917543 514.253155 
L 142.96572 526.414996 
L 149.013897 537.011858 
L 155.062074 546.306603 
L 161.110251 554.524635 
L 167.158428 561.842747 
L 173.206605 568.400883 
L 179.254782 574.311384 
L 185.302959 579.665413 
L 191.351136 584.53792 
L 197.399313 588.990843 
L 203.44749 593.075987 
L 209.495667 596.836975 
L 215.543844 600.310778 
L 221.592021 603.52887 
L 227.640198 606.518407 
L 233.688375 609.302798 
L 239.736552 611.902333 
L 245.784728 614.334705 
L 251.832905 616.615467 
L 257.881082 618.758243 
L 269.977436 622.676799 
L 282.07379 626.171607 
L 294.170144 629.307307 
L 306.266498 632.136104 
L 318.362852 634.700512 
L 330.459206 637.035534 
L 342.55556 639.170304 
L 354.651914 641.129161 
L 372.796445 643.781795 
L 390.940976 646.14124 
L 409.085507 648.252776 
L 427.230038 650.152809 
L 445.374568 651.870959 
L 469.567276 653.920348 
L 493.759984 655.735793 
L 517.952692 657.354109 
L 548.193577 659.144178 
L 578.434462 660.717583 
L 614.723524 662.369342 
L 651.012585 663.807975 
L 693.349824 665.265766 
L 741.73524 666.695021 
L 796.168833 668.060562 
L 856.650602 669.338667 
L 923.180549 670.515204 
L 995.758673 671.583535 
L 995.758673 671.583535 
" clip-path="url(#p0ab2638453)" style="fill: none; stroke: #bcbd22; stroke-width: 5; stroke-linecap: round"/>
   </g>
   <g id="line2d_23">
    <path d="M 88.532127 198.27144 
L 94.580304 253.878521 
L 100.628481 301.713218 
L 106.676658 342.808513 
L 112.724835 378.280603 
L 118.773012 408.796016 
L 124.821189 435.10892 
L 130.869366 457.83904 
L 136.917543 477.502653 
L 142.96572 494.529114 
L 149.013897 509.290424 
L 155.062074 522.102784 
L 161.110251 533.247323 
L 167.158428 542.993805 
L 173.206605 551.587226 
L 179.254782 559.220528 
L 185.302959 566.045785 
L 191.351136 572.18472 
L 197.399313 577.735617 
L 203.44749 582.778916 
L 209.495667 587.38103 
L 215.543844 591.597254 
L 221.592021 595.473922 
L 227.640198 599.05037 
L 233.688375 602.360048 
L 239.736552 605.431582 
L 245.784728 608.289636 
L 251.832905 610.955639 
L 257.881082 613.448174 
L 263.929259 615.783577 
L 269.977436 617.97612 
L 276.025613 620.038461 
L 288.121967 623.815979 
L 300.218321 627.191656 
L 312.314675 630.225806 
L 324.411029 632.967351 
L 336.507383 635.456232 
L 348.603737 637.725455 
L 360.700091 639.802532 
L 372.796445 641.710544 
L 390.940976 644.297512 
L 409.085507 646.601642 
L 427.230038 648.666138 
L 445.374568 650.525842 
L 469.567276 652.735227 
L 493.759984 654.684411 
L 517.952692 656.41565 
L 548.193577 658.323754 
L 578.434462 659.994978 
L 614.723524 661.743488 
L 651.012585 663.261457 
L 693.349824 664.794979 
L 741.73524 666.293947 
L 790.120656 667.574935 
L 844.554248 668.80671 
L 911.084195 670.072342 
L 983.662319 671.216551 
L 995.758673 671.387237 
L 995.758673 671.387237 
" clip-path="url(#p0ab2638453)" style="fill: none; stroke: #17becf; stroke-width: 5; stroke-linecap: round"/>
   </g>
   <g id="line2d_24">
    <path d="M 88.532127 69.325584 
L 94.580304 143.383724 
L 100.628481 206.92984 
L 106.676658 261.388838 
L 112.724835 308.278732 
L 118.773012 348.519795 
L 124.821189 383.136007 
L 130.869366 412.967806 
L 136.917543 438.714661 
L 142.96572 460.957999 
L 149.013897 480.200509 
L 155.062074 496.866363 
L 161.110251 511.31797 
L 167.158428 523.866225 
L 173.206605 534.784342 
L 179.254782 544.34377 
L 185.302959 552.782247 
L 191.351136 560.285855 
L 197.399313 567.001457 
L 203.44749 573.046765 
L 209.495667 578.517161 
L 215.543844 583.490734 
L 221.592021 588.031935 
L 227.640198 592.194684 
L 233.688375 596.024253 
L 239.736552 599.558932 
L 245.784728 602.831353 
L 251.832905 605.869566 
L 257.881082 608.697684 
L 263.929259 611.336698 
L 269.977436 613.804815 
L 276.025613 616.118045 
L 282.07379 618.29044 
L 288.121967 620.33433 
L 300.218321 624.07953 
L 312.314675 627.427795 
L 324.411029 630.438601 
L 336.507383 633.160035 
L 348.603737 635.631486 
L 360.700091 637.885519 
L 372.796445 639.949256 
L 384.892799 641.845508 
L 403.03733 644.417277 
L 421.181861 646.708579 
L 439.326392 648.762159 
L 457.470922 650.61251 
L 481.66363 652.81135 
L 505.856338 654.751743 
L 530.049046 656.475589 
L 560.289931 658.375988 
L 590.530816 660.04085 
L 626.819878 661.783085 
L 663.108939 663.295926 
L 705.446178 664.824569 
L 753.831594 666.319062 
L 802.21701 667.596451 
L 856.650602 668.824971 
L 923.180549 670.087459 
L 995.758673 671.229007 
L 995.758673 671.229007 
" clip-path="url(#p0ab2638453)" style="fill: none; stroke: #17becf; stroke-width: 5; stroke-linecap: round"/>
   </g>
   <g id="patch_3">
    <path d="M 88.532127 678.237256 
L 88.532127 38.88 
" style="fill: none; stroke: #262626; stroke-width: 0.8; stroke-linejoin: miter; stroke-linecap: square"/>
   </g>
   <g id="patch_4">
    <path d="M 88.532127 678.237256 
L 1041.12 678.237256 
" style="fill: none; stroke: #262626; stroke-width: 0.8; stroke-linejoin: miter; stroke-linecap: square"/>
   </g>
  </g>
 </g>
 <defs>
  <clipPath id="p0ab2638453">
   <rect x="88.532127" y="38.88" width="952.587873" height="639.357256"/>
  </clipPath>
 </defs>
</svg>
