<?xml version="1.0" encoding="utf-8" standalone="no"?>
<!DOCTYPE svg PUBLIC "-//W3C//DTD SVG 1.1//EN"
  "http://www.w3.org/Graphics/SVG/1.1/DTD/svg11.dtd">
<svg xmlns:xlink="http://www.w3.org/1999/xlink" width="1080pt" height="756pt" viewBox="0 0 1080 756" xmlns="http://www.w3.org/2000/svg" version="1.1">
 <metadata>
  <rdf:RDF xmlns:dc="http://purl.org/dc/elements/1.1/" xmlns:cc="http://creativecommons.org/ns#" xmlns:rdf="http://www.w3.org/1999/02/22-rdf-syntax-ns#">
   <cc:Work>
    <dc:type rdf:resource="http://purl.org/dc/dcmitype/StillImage"/>
    <dc:date>2024-07-31T08:55:08.550805</dc:date>
    <dc:format>image/svg+xml</dc:format>
    <dc:creator>
     <cc:Agent>
      <dc:title>Matplotlib v3.9.0, https://matplotlib.org/</dc:title>
     </cc:Agent>
    </dc:creator>
   </cc:Work>
  </rdf:RDF>
 </metadata>
 <defs>
  <style type="text/css">*{stroke-linejoin: round; stroke-linecap: butt}</style>
 </defs>
 <g id="figure_1">
  <g id="patch_1">
   <path d="M 0 756 
L 1080 756 
L 1080 0 
L 0 0 
z
" style="fill: #ffffff"/>
  </g>
  <g id="axes_1">
   <g id="patch_2">
    <path d="M 88.532127 678.237256 
L 1041.12 678.237256 
L 1041.12 38.88 
L 88.532127 38.88 
z
" style="fill: #ffffff"/>
   </g>
   <g id="matplotlib.axis_1">
    <g id="xtick_1">
     <g id="line2d_1">
      <defs>
       <path id="m5b6698e5d7" d="M 0 0 
L 0 3.5 
" style="stroke: #262626; stroke-width: 0.8"/>
      </defs>
      <g>
       <use xlink:href="#m5b6698e5d7" x="88.532127" y="678.237256" style="fill: #262626; stroke: #262626; stroke-width: 0.8"/>
      </g>
     </g>
     <g id="text_1">
      <!-- $\mathdefault{0.0}$ -->
      <g style="fill: #262626" transform="translate(67.206064 710.143856) scale(0.36 -0.36)">
       <defs>
        <path id="CMR17-30" d="M 2688 2025 
C 2688 2416 2682 3080 2413 3591 
C 2176 4039 1798 4198 1466 4198 
C 1158 4198 768 4058 525 3597 
C 269 3118 243 2524 243 2025 
C 243 1661 250 1106 448 619 
C 723 -39 1216 -128 1466 -128 
C 1760 -128 2208 -7 2470 600 
C 2662 1042 2688 1559 2688 2025 
z
M 1466 -26 
C 1056 -26 813 325 723 812 
C 653 1188 653 1738 653 2096 
C 653 2588 653 2997 736 3387 
C 858 3929 1216 4096 1466 4096 
C 1728 4096 2067 3923 2189 3400 
C 2272 3036 2278 2607 2278 2096 
C 2278 1680 2278 1169 2202 792 
C 2067 95 1690 -26 1466 -26 
z
" transform="scale(0.015625)"/>
        <path id="CMMI12-3a" d="M 1178 307 
C 1178 492 1024 619 870 619 
C 685 619 557 466 557 313 
C 557 128 710 0 864 0 
C 1050 0 1178 153 1178 307 
z
" transform="scale(0.015625)"/>
       </defs>
       <use xlink:href="#CMR17-30" transform="scale(0.996264)"/>
       <use xlink:href="#CMMI12-3a" transform="translate(45.690477 0) scale(0.996264)"/>
       <use xlink:href="#CMR17-30" transform="translate(72.787654 0) scale(0.996264)"/>
      </g>
     </g>
    </g>
    <g id="xtick_2">
     <g id="line2d_2">
      <g>
       <use xlink:href="#m5b6698e5d7" x="269.977436" y="678.237256" style="fill: #262626; stroke: #262626; stroke-width: 0.8"/>
      </g>
     </g>
     <g id="text_2">
      <!-- $\mathdefault{0.2}$ -->
      <g style="fill: #262626" transform="translate(248.651373 710.143856) scale(0.36 -0.36)">
       <defs>
        <path id="CMR17-32" d="M 2669 989 
L 2554 989 
C 2490 536 2438 459 2413 420 
C 2381 369 1920 369 1830 369 
L 602 369 
C 832 619 1280 1072 1824 1597 
C 2214 1967 2669 2402 2669 3035 
C 2669 3790 2067 4224 1395 4224 
C 691 4224 262 3604 262 3030 
C 262 2780 448 2748 525 2748 
C 589 2748 781 2787 781 3010 
C 781 3207 614 3264 525 3264 
C 486 3264 448 3258 422 3245 
C 544 3790 915 4058 1306 4058 
C 1862 4058 2227 3617 2227 3035 
C 2227 2479 1901 2000 1536 1584 
L 262 146 
L 262 0 
L 2515 0 
L 2669 989 
z
" transform="scale(0.015625)"/>
       </defs>
       <use xlink:href="#CMR17-30" transform="scale(0.996264)"/>
       <use xlink:href="#CMMI12-3a" transform="translate(45.690477 0) scale(0.996264)"/>
       <use xlink:href="#CMR17-32" transform="translate(72.787654 0) scale(0.996264)"/>
      </g>
     </g>
    </g>
    <g id="xtick_3">
     <g id="line2d_3">
      <g>
       <use xlink:href="#m5b6698e5d7" x="451.422745" y="678.237256" style="fill: #262626; stroke: #262626; stroke-width: 0.8"/>
      </g>
     </g>
     <g id="text_3">
      <!-- $\mathdefault{0.4}$ -->
      <g style="fill: #262626" transform="translate(430.096682 710.143856) scale(0.36 -0.36)">
       <defs>
        <path id="CMR17-34" d="M 2150 4122 
C 2150 4256 2144 4256 2029 4256 
L 128 1254 
L 128 1088 
L 1779 1088 
L 1779 457 
C 1779 224 1766 160 1318 160 
L 1197 160 
L 1197 0 
C 1402 0 1747 0 1965 0 
C 2182 0 2528 0 2733 0 
L 2733 160 
L 2611 160 
C 2163 160 2150 224 2150 457 
L 2150 1088 
L 2803 1088 
L 2803 1254 
L 2150 1254 
L 2150 4122 
z
M 1798 3703 
L 1798 1254 
L 256 1254 
L 1798 3703 
z
" transform="scale(0.015625)"/>
       </defs>
       <use xlink:href="#CMR17-30" transform="scale(0.996264)"/>
       <use xlink:href="#CMMI12-3a" transform="translate(45.690477 0) scale(0.996264)"/>
       <use xlink:href="#CMR17-34" transform="translate(72.787654 0) scale(0.996264)"/>
      </g>
     </g>
    </g>
    <g id="xtick_4">
     <g id="line2d_4">
      <g>
       <use xlink:href="#m5b6698e5d7" x="632.868055" y="678.237256" style="fill: #262626; stroke: #262626; stroke-width: 0.8"/>
      </g>
     </g>
     <g id="text_4">
      <!-- $\mathdefault{0.6}$ -->
      <g style="fill: #262626" transform="translate(611.541991 710.143856) scale(0.36 -0.36)">
       <defs>
        <path id="CMR17-36" d="M 678 2176 
C 678 3690 1395 4032 1811 4032 
C 1946 4032 2272 4009 2400 3776 
C 2298 3776 2106 3776 2106 3553 
C 2106 3381 2246 3323 2336 3323 
C 2394 3323 2566 3348 2566 3560 
C 2566 3954 2246 4179 1805 4179 
C 1043 4179 243 3390 243 1984 
C 243 253 966 -128 1478 -128 
C 2099 -128 2688 427 2688 1283 
C 2688 2081 2170 2662 1517 2662 
C 1126 2662 838 2407 678 1960 
L 678 2176 
z
M 1478 25 
C 691 25 691 1200 691 1436 
C 691 1896 909 2560 1504 2560 
C 1613 2560 1926 2560 2138 2120 
C 2253 1870 2253 1609 2253 1289 
C 2253 944 2253 690 2118 434 
C 1978 171 1773 25 1478 25 
z
" transform="scale(0.015625)"/>
       </defs>
       <use xlink:href="#CMR17-30" transform="scale(0.996264)"/>
       <use xlink:href="#CMMI12-3a" transform="translate(45.690477 0) scale(0.996264)"/>
       <use xlink:href="#CMR17-36" transform="translate(72.787654 0) scale(0.996264)"/>
      </g>
     </g>
    </g>
    <g id="xtick_5">
     <g id="line2d_5">
      <g>
       <use xlink:href="#m5b6698e5d7" x="814.313364" y="678.237256" style="fill: #262626; stroke: #262626; stroke-width: 0.8"/>
      </g>
     </g>
     <g id="text_5">
      <!-- $\mathdefault{0.8}$ -->
      <g style="fill: #262626" transform="translate(792.9873 710.143856) scale(0.36 -0.36)">
       <defs>
        <path id="CMR17-38" d="M 1741 2264 
C 2144 2467 2554 2773 2554 3263 
C 2554 3841 1990 4179 1472 4179 
C 890 4179 378 3759 378 3180 
C 378 3021 416 2747 666 2505 
C 730 2442 998 2251 1171 2130 
C 883 1983 211 1634 211 934 
C 211 279 838 -128 1459 -128 
C 2144 -128 2720 362 2720 1010 
C 2720 1590 2330 1857 2074 2029 
L 1741 2264 
z
M 902 2822 
C 851 2854 595 3051 595 3351 
C 595 3739 998 4032 1459 4032 
C 1965 4032 2336 3676 2336 3262 
C 2336 2669 1670 2331 1638 2331 
C 1632 2331 1626 2331 1574 2370 
L 902 2822 
z
M 2080 1519 
C 2176 1449 2483 1240 2483 851 
C 2483 381 2010 25 1472 25 
C 890 25 448 438 448 940 
C 448 1443 838 1862 1280 2060 
L 2080 1519 
z
" transform="scale(0.015625)"/>
       </defs>
       <use xlink:href="#CMR17-30" transform="scale(0.996264)"/>
       <use xlink:href="#CMMI12-3a" transform="translate(45.690477 0) scale(0.996264)"/>
       <use xlink:href="#CMR17-38" transform="translate(72.787654 0) scale(0.996264)"/>
      </g>
     </g>
    </g>
    <g id="xtick_6">
     <g id="line2d_6">
      <g>
       <use xlink:href="#m5b6698e5d7" x="995.758673" y="678.237256" style="fill: #262626; stroke: #262626; stroke-width: 0.8"/>
      </g>
     </g>
     <g id="text_6">
      <!-- $\mathdefault{1.0}$ -->
      <g style="fill: #262626" transform="translate(974.432609 710.143856) scale(0.36 -0.36)">
       <defs>
        <path id="CMR17-31" d="M 1702 4058 
C 1702 4192 1696 4192 1606 4192 
C 1357 3916 979 3827 621 3827 
C 602 3827 570 3827 563 3808 
C 557 3795 557 3782 557 3648 
C 755 3648 1088 3686 1344 3839 
L 1344 461 
C 1344 236 1331 160 781 160 
L 589 160 
L 589 0 
C 896 0 1216 0 1523 0 
C 1830 0 2150 0 2458 0 
L 2458 160 
L 2266 160 
C 1715 160 1702 230 1702 458 
L 1702 4058 
z
" transform="scale(0.015625)"/>
       </defs>
       <use xlink:href="#CMR17-31" transform="scale(0.996264)"/>
       <use xlink:href="#CMMI12-3a" transform="translate(45.690477 0) scale(0.996264)"/>
       <use xlink:href="#CMR17-30" transform="translate(72.787654 0) scale(0.996264)"/>
      </g>
     </g>
    </g>
   </g>
   <g id="matplotlib.axis_2">
    <g id="ytick_1">
     <g id="line2d_7">
      <defs>
       <path id="m942f0006ae" d="M 0 0 
L -3.5 0 
" style="stroke: #262626; stroke-width: 0.8"/>
      </defs>
      <g>
       <use xlink:href="#m942f0006ae" x="88.532127" y="678.237256" style="fill: #262626; stroke: #262626; stroke-width: 0.8"/>
      </g>
     </g>
     <g id="text_7">
      <!-- $\mathdefault{0.0}$ -->
      <g style="fill: #262626" transform="translate(38.88 690.690556) scale(0.36 -0.36)">
       <use xlink:href="#CMR17-30" transform="scale(0.996264)"/>
       <use xlink:href="#CMMI12-3a" transform="translate(45.690477 0) scale(0.996264)"/>
       <use xlink:href="#CMR17-30" transform="translate(72.787654 0) scale(0.996264)"/>
      </g>
     </g>
    </g>
    <g id="ytick_2">
     <g id="line2d_8">
      <g>
       <use xlink:href="#m942f0006ae" x="88.532127" y="678.23489" style="fill: #262626; stroke: #262626; stroke-width: 0.8"/>
      </g>
     </g>
     <g id="text_8">
      <!-- $\mathdefault{0.2}$ -->
      <g style="fill: #262626" transform="translate(38.88 690.68819) scale(0.36 -0.36)">
       <use xlink:href="#CMR17-30" transform="scale(0.996264)"/>
       <use xlink:href="#CMMI12-3a" transform="translate(45.690477 0) scale(0.996264)"/>
       <use xlink:href="#CMR17-32" transform="translate(72.787654 0) scale(0.996264)"/>
      </g>
     </g>
    </g>
    <g id="ytick_3">
     <g id="line2d_9">
      <g>
       <use xlink:href="#m942f0006ae" x="88.532127" y="678.232523" style="fill: #262626; stroke: #262626; stroke-width: 0.8"/>
      </g>
     </g>
     <g id="text_9">
      <!-- $\mathdefault{0.4}$ -->
      <g style="fill: #262626" transform="translate(38.88 690.685823) scale(0.36 -0.36)">
       <use xlink:href="#CMR17-30" transform="scale(0.996264)"/>
       <use xlink:href="#CMMI12-3a" transform="translate(45.690477 0) scale(0.996264)"/>
       <use xlink:href="#CMR17-34" transform="translate(72.787654 0) scale(0.996264)"/>
      </g>
     </g>
    </g>
    <g id="ytick_4">
     <g id="line2d_10">
      <g>
       <use xlink:href="#m942f0006ae" x="88.532127" y="678.230156" style="fill: #262626; stroke: #262626; stroke-width: 0.8"/>
      </g>
     </g>
     <g id="text_10">
      <!-- $\mathdefault{0.6}$ -->
      <g style="fill: #262626" transform="translate(38.88 690.683457) scale(0.36 -0.36)">
       <use xlink:href="#CMR17-30" transform="scale(0.996264)"/>
       <use xlink:href="#CMMI12-3a" transform="translate(45.690477 0) scale(0.996264)"/>
       <use xlink:href="#CMR17-36" transform="translate(72.787654 0) scale(0.996264)"/>
      </g>
     </g>
    </g>
    <g id="ytick_5">
     <g id="line2d_11">
      <g>
       <use xlink:href="#m942f0006ae" x="88.532127" y="678.22779" style="fill: #262626; stroke: #262626; stroke-width: 0.8"/>
      </g>
     </g>
     <g id="text_11">
      <!-- $\mathdefault{0.8}$ -->
      <g style="fill: #262626" transform="translate(38.88 690.68109) scale(0.36 -0.36)">
       <use xlink:href="#CMR17-30" transform="scale(0.996264)"/>
       <use xlink:href="#CMMI12-3a" transform="translate(45.690477 0) scale(0.996264)"/>
       <use xlink:href="#CMR17-38" transform="translate(72.787654 0) scale(0.996264)"/>
      </g>
     </g>
    </g>
    <g id="ytick_6">
     <g id="line2d_12">
      <g>
       <use xlink:href="#m942f0006ae" x="88.532127" y="678.225423" style="fill: #262626; stroke: #262626; stroke-width: 0.8"/>
      </g>
     </g>
     <g id="text_12">
      <!-- $\mathdefault{1.0}$ -->
      <g style="fill: #262626" transform="translate(38.88 690.678723) scale(0.36 -0.36)">
       <use xlink:href="#CMR17-31" transform="scale(0.996264)"/>
       <use xlink:href="#CMMI12-3a" transform="translate(45.690477 0) scale(0.996264)"/>
       <use xlink:href="#CMR17-30" transform="translate(72.787654 0) scale(0.996264)"/>
      </g>
     </g>
    </g>
    <g id="ytick_7">
     <g id="line2d_13">
      <g>
       <use xlink:href="#m942f0006ae" x="88.532127" y="678.223057" style="fill: #262626; stroke: #262626; stroke-width: 0.8"/>
      </g>
     </g>
     <g id="text_13">
      <!-- $\mathdefault{1.2}$ -->
      <g style="fill: #262626" transform="translate(38.88 690.676357) scale(0.36 -0.36)">
       <use xlink:href="#CMR17-31" transform="scale(0.996264)"/>
       <use xlink:href="#CMMI12-3a" transform="translate(45.690477 0) scale(0.996264)"/>
       <use xlink:href="#CMR17-32" transform="translate(72.787654 0) scale(0.996264)"/>
      </g>
     </g>
    </g>
   </g>
   <g id="line2d_14">
    <path d="M 88.532127 678.237256 
L 995.758673 678.237256 
L 995.758673 678.237256 
" clip-path="url(#pcdd2f0dbf3)" style="fill: none; stroke: #1f77b4; stroke-width: 5; stroke-linecap: round"/>
   </g>
   <g id="line2d_15">
    <path d="M 88.532127 675.894216 
L 136.917543 676.390838 
L 203.44749 676.836741 
L 300.218321 677.236147 
L 439.326392 677.566795 
L 657.060762 677.839254 
L 995.758673 678.036392 
L 995.758673 678.036392 
" clip-path="url(#pcdd2f0dbf3)" style="fill: none; stroke: #ff7f0e; stroke-width: 5; stroke-linecap: round"/>
   </g>
   <g id="line2d_16">
    <path d="M 88.532127 666.309061 
L 94.580304 667.649801 
L 100.628481 668.72676 
L 106.676658 669.611174 
L 118.773012 670.978758 
L 130.869366 671.987551 
L 142.96572 672.762625 
L 161.110251 673.638335 
L 179.254782 674.28816 
L 203.44749 674.931858 
L 233.688375 675.511415 
L 276.025613 676.073577 
L 330.459206 676.554781 
L 409.085507 676.996914 
L 517.952692 677.36455 
L 681.25347 677.674269 
L 941.32508 677.92245 
L 995.758673 677.955425 
L 995.758673 677.955425 
" clip-path="url(#pcdd2f0dbf3)" style="fill: none; stroke: #2ca02c; stroke-width: 5; stroke-linecap: round"/>
   </g>
   <g id="line2d_17">
    <path d="M 88.532127 625.367397 
L 94.580304 640.955197 
L 100.628481 650.591611 
L 106.676658 656.602992 
L 112.724835 660.509557 
L 118.773012 663.24205 
L 124.821189 665.260819 
L 130.869366 666.81332 
L 136.917543 668.044324 
L 142.96572 669.044363 
L 149.013897 669.872631 
L 161.110251 671.165397 
L 173.206605 672.12769 
L 185.302959 672.871736 
L 203.44749 673.71723 
L 221.592021 674.347792 
L 245.784728 674.975033 
L 276.025613 675.541986 
L 318.362852 676.093953 
L 372.796445 676.567991 
L 451.422745 677.00484 
L 560.289931 677.369041 
L 723.590709 677.676547 
L 983.662319 677.923418 
L 995.758673 677.931109 
L 995.758673 677.931109 
" clip-path="url(#pcdd2f0dbf3)" style="fill: none; stroke: #d62728; stroke-width: 5; stroke-linecap: round"/>
   </g>
   <g id="line2d_18">
    <path d="M 88.532127 556.420422 
L 94.580304 598.485583 
L 100.628481 624.279778 
L 106.676658 640.224759 
L 112.724835 650.123991 
L 118.773012 656.301829 
L 124.821189 660.301782 
L 130.869366 663.090116 
L 136.917543 665.144847 
L 142.96572 666.721877 
L 149.013897 667.970103 
L 155.062074 668.983022 
L 161.110251 669.821127 
L 173.206605 671.127481 
L 185.302959 672.098563 
L 197.399313 672.848665 
L 215.543844 673.700226 
L 233.688375 674.334695 
L 257.881082 674.965347 
L 288.121967 675.534982 
L 330.459206 676.08914 
L 384.892799 676.564741 
L 463.519099 677.002782 
L 572.386285 677.367782 
L 735.687063 677.675833 
L 995.758673 677.923054 
L 995.758673 677.923054 
" clip-path="url(#pcdd2f0dbf3)" style="fill: none; stroke: #9467bd; stroke-width: 5; stroke-linecap: round"/>
   </g>
   <g id="line2d_19">
    <path d="M 88.532127 479.982139 
L 94.580304 551.712763 
L 100.628481 595.48725 
L 106.676658 622.417296 
L 112.724835 639.058132 
L 118.773012 649.395173 
L 124.821189 655.840849 
L 130.869366 659.990915 
L 136.917543 662.866314 
L 142.96572 664.976164 
L 149.013897 666.589828 
L 155.062074 667.864381 
L 161.110251 668.89617 
L 167.158428 669.748659 
L 179.254782 671.074706 
L 191.351136 672.058458 
L 203.44749 672.817128 
L 221.592021 673.677179 
L 239.736552 674.317154 
L 263.929259 674.952519 
L 294.170144 675.525774 
L 336.507383 676.082888 
L 390.940976 676.560597 
L 469.567276 677.000207 
L 578.434462 677.366246 
L 741.73524 677.674988 
L 995.758673 677.918696 
L 995.758673 677.918696 
" clip-path="url(#pcdd2f0dbf3)" style="fill: none; stroke: #8c564b; stroke-width: 5; stroke-linecap: round"/>
   </g>
   <g id="line2d_20">
    <path d="M 88.532127 400.397485 
L 94.580304 503.207062 
L 100.628481 565.744552 
L 106.676658 604.093417 
L 112.724835 627.714523 
L 118.773012 642.34138 
L 124.821189 651.43079 
L 130.869366 657.125503 
L 136.917543 660.859958 
L 142.96572 663.493131 
L 149.013897 665.449032 
L 155.062074 666.959711 
L 161.110251 668.161209 
L 167.158428 669.139783 
L 173.206605 669.952092 
L 185.302959 671.222721 
L 197.399313 672.170917 
L 209.495667 672.905443 
L 227.640198 673.741564 
L 251.832905 674.540613 
L 282.07379 675.236339 
L 318.362852 675.813087 
L 366.748268 676.334137 
L 433.278215 676.799087 
L 524.000869 677.192569 
L 657.060762 677.530394 
L 862.698779 677.809266 
L 995.758673 677.915733 
L 995.758673 677.915733 
" clip-path="url(#pcdd2f0dbf3)" style="fill: none; stroke: #e377c2; stroke-width: 5; stroke-linecap: round"/>
   </g>
   <g id="line2d_21">
    <path d="M 88.532127 319.040174 
L 94.580304 453.761244 
L 100.628481 535.510407 
L 106.676658 585.518518 
L 112.724835 616.247197 
L 118.773012 635.23 
L 124.821189 646.996347 
L 130.869366 654.341984 
L 136.917543 658.997071 
L 142.96572 662.159466 
L 149.013897 664.447255 
L 155.062074 666.179776 
L 161.110251 667.536809 
L 167.158428 668.628654 
L 173.206605 669.525996 
L 179.254782 670.276516 
L 191.351136 671.460974 
L 203.44749 672.353203 
L 215.543844 673.04942 
L 233.688375 673.847219 
L 257.881082 674.615012 
L 288.121967 675.287898 
L 324.411029 675.848758 
L 372.796445 676.357882 
L 439.326392 676.814145 
L 530.049046 677.201721 
L 663.108939 677.535543 
L 868.746956 677.811858 
L 995.758673 677.913501 
L 995.758673 677.913501 
" clip-path="url(#pcdd2f0dbf3)" style="fill: none; stroke: #7f7f7f; stroke-width: 5; stroke-linecap: round"/>
   </g>
   <g id="line2d_22">
    <path d="M 88.532127 236.58187 
L 94.580304 403.756029 
L 100.628481 505.000552 
L 106.676658 566.814528 
L 112.724835 604.724762 
L 118.773012 628.099457 
L 124.821189 642.560858 
L 130.869366 651.573901 
L 136.917543 657.214225 
L 142.96572 660.920286 
L 149.013897 663.536169 
L 155.062074 665.481872 
L 161.110251 666.98515 
L 167.158428 668.181676 
L 173.206605 669.156509 
L 179.254782 669.965992 
L 191.351136 671.232797 
L 203.44749 672.178505 
L 215.543844 672.911408 
L 233.688375 673.745865 
L 257.881082 674.543561 
L 288.121967 675.238358 
L 324.411029 675.814442 
L 372.796445 676.335007 
L 439.326392 676.799614 
L 530.049046 677.192866 
L 663.108939 677.530542 
L 868.746956 677.809326 
L 995.758673 677.911713 
L 995.758673 677.911713 
" clip-path="url(#pcdd2f0dbf3)" style="fill: none; stroke: #bcbd22; stroke-width: 5; stroke-linecap: round"/>
   </g>
   <g id="line2d_23">
    <path d="M 88.532127 153.270622 
L 94.580304 353.323914 
L 100.628481 474.284748 
L 106.676658 548.017337 
L 112.724835 593.165052 
L 118.773012 620.958173 
L 124.821189 638.126263 
L 130.869366 648.809509 
L 136.917543 655.471954 
L 142.96572 659.74292 
L 149.013897 662.687558 
L 155.062074 664.841359 
L 161.110251 666.4846 
L 167.158428 667.779776 
L 173.206605 668.826733 
L 179.254782 669.690539 
L 191.351136 671.032327 
L 203.44749 672.026117 
L 215.543844 672.791688 
L 233.688375 673.658499 
L 251.832905 674.302854 
L 276.025613 674.942 
L 306.266498 675.518195 
L 348.603737 676.077714 
L 403.03733 676.557123 
L 481.66363 676.998014 
L 590.530816 677.364915 
L 753.831594 677.674236 
L 995.758673 677.910219 
L 995.758673 677.910219 
" clip-path="url(#pcdd2f0dbf3)" style="fill: none; stroke: #17becf; stroke-width: 5; stroke-linecap: round"/>
   </g>
   <g id="line2d_24">
    <path d="M 88.532127 69.325584 
L 94.580304 302.584817 
L 100.628481 443.428178 
L 106.676658 529.161971 
L 112.724835 581.586583 
L 118.773012 613.815703 
L 124.821189 633.697237 
L 130.869366 646.051822 
L 136.917543 653.747091 
L 142.96572 658.608394 
L 149.013897 661.885067 
L 155.062074 664.243933 
L 161.110251 666.022596 
L 167.158428 667.41188 
L 173.206605 668.526871 
L 179.254782 669.44145 
L 185.302959 670.205229 
L 197.399313 671.408247 
L 209.495667 672.312626 
L 221.592021 673.017189 
L 239.736552 673.823455 
L 263.929259 674.598167 
L 294.170144 675.276138 
L 330.459206 675.840567 
L 378.844622 676.352374 
L 445.374568 676.810613 
L 536.097223 677.199543 
L 669.157116 677.534293 
L 874.795133 677.811208 
L 995.758673 677.908938 
L 995.758673 677.908938 
" clip-path="url(#pcdd2f0dbf3)" style="fill: none; stroke: #17becf; stroke-width: 5; stroke-linecap: round"/>
   </g>
   <g id="patch_3">
    <path d="M 88.532127 678.237256 
L 88.532127 38.88 
" style="fill: none; stroke: #262626; stroke-width: 0.8; stroke-linejoin: miter; stroke-linecap: square"/>
   </g>
   <g id="patch_4">
    <path d="M 88.532127 678.237256 
L 1041.12 678.237256 
" style="fill: none; stroke: #262626; stroke-width: 0.8; stroke-linejoin: miter; stroke-linecap: square"/>
   </g>
  </g>
 </g>
 <defs>
  <clipPath id="pcdd2f0dbf3">
   <rect x="88.532127" y="38.88" width="952.587873" height="639.357256"/>
  </clipPath>
 </defs>
</svg>
