<?xml version="1.0" encoding="utf-8" standalone="no"?>
<!DOCTYPE svg PUBLIC "-//W3C//DTD SVG 1.1//EN"
  "http://www.w3.org/Graphics/SVG/1.1/DTD/svg11.dtd">
<svg xmlns:xlink="http://www.w3.org/1999/xlink" width="1080pt" height="576pt" viewBox="0 0 1080 576" xmlns="http://www.w3.org/2000/svg" version="1.1">
 <metadata>
  <rdf:RDF xmlns:dc="http://purl.org/dc/elements/1.1/" xmlns:cc="http://creativecommons.org/ns#" xmlns:rdf="http://www.w3.org/1999/02/22-rdf-syntax-ns#">
   <cc:Work>
    <dc:type rdf:resource="http://purl.org/dc/dcmitype/StillImage"/>
    <dc:date>2024-06-28T12:25:26.144511</dc:date>
    <dc:format>image/svg+xml</dc:format>
    <dc:creator>
     <cc:Agent>
      <dc:title>Matplotlib v3.9.0, https://matplotlib.org/</dc:title>
     </cc:Agent>
    </dc:creator>
   </cc:Work>
  </rdf:RDF>
 </metadata>
 <defs>
  <style type="text/css">*{stroke-linejoin: round; stroke-linecap: butt}</style>
 </defs>
 <g id="figure_1">
  <g id="patch_1">
   <path d="M 0 576 
L 1080 576 
L 1080 0 
L 0 0 
z
" style="fill: #ffffff"/>
  </g>
  <g id="axes_1">
   <g id="patch_2">
    <path d="M 41.730582 521.153031 
L 935.517672 521.153031 
L 935.517672 51.564121 
L 41.730582 51.564121 
z
" style="fill: #eaeaf2"/>
   </g>
   <g id="matplotlib.axis_1">
    <g id="xtick_1">
     <g id="line2d_1">
      <path d="M 41.730582 521.153031 
L 41.730582 51.564121 
" clip-path="url(#p1f3185478e)" style="fill: none; stroke: #ffffff; stroke-linecap: round"/>
     </g>
     <g id="line2d_2"/>
     <g id="text_1">
      <!-- $\mathdefault{0.00}$ -->
      <g style="fill: #262626" transform="translate(29.591047 537.838907) scale(0.14 -0.14)">
       <defs>
        <path id="CMR17-30" d="M 2688 2025 
C 2688 2416 2682 3080 2413 3591 
C 2176 4039 1798 4198 1466 4198 
C 1158 4198 768 4058 525 3597 
C 269 3118 243 2524 243 2025 
C 243 1661 250 1106 448 619 
C 723 -39 1216 -128 1466 -128 
C 1760 -128 2208 -7 2470 600 
C 2662 1042 2688 1559 2688 2025 
z
M 1466 -26 
C 1056 -26 813 325 723 812 
C 653 1188 653 1738 653 2096 
C 653 2588 653 2997 736 3387 
C 858 3929 1216 4096 1466 4096 
C 1728 4096 2067 3923 2189 3400 
C 2272 3036 2278 2607 2278 2096 
C 2278 1680 2278 1169 2202 792 
C 2067 95 1690 -26 1466 -26 
z
" transform="scale(0.015625)"/>
        <path id="CMMI12-3a" d="M 1178 307 
C 1178 492 1024 619 870 619 
C 685 619 557 466 557 313 
C 557 128 710 0 864 0 
C 1050 0 1178 153 1178 307 
z
" transform="scale(0.015625)"/>
       </defs>
       <use xlink:href="#CMR17-30" transform="scale(0.996264)"/>
       <use xlink:href="#CMMI12-3a" transform="translate(45.690477 0) scale(0.996264)"/>
       <use xlink:href="#CMR17-30" transform="translate(72.787654 0) scale(0.996264)"/>
       <use xlink:href="#CMR17-30" transform="translate(118.478131 0) scale(0.996264)"/>
      </g>
     </g>
    </g>
    <g id="xtick_2">
     <g id="line2d_3">
      <path d="M 148.133807 521.153031 
L 148.133807 51.564121 
" clip-path="url(#p1f3185478e)" style="fill: none; stroke: #ffffff; stroke-linecap: round"/>
     </g>
     <g id="line2d_4"/>
     <g id="text_2">
      <!-- $\mathdefault{0.25}$ -->
      <g style="fill: #262626" transform="translate(135.994272 537.838907) scale(0.14 -0.14)">
       <defs>
        <path id="CMR17-32" d="M 2669 989 
L 2554 989 
C 2490 536 2438 459 2413 420 
C 2381 369 1920 369 1830 369 
L 602 369 
C 832 619 1280 1072 1824 1597 
C 2214 1967 2669 2402 2669 3035 
C 2669 3790 2067 4224 1395 4224 
C 691 4224 262 3604 262 3030 
C 262 2780 448 2748 525 2748 
C 589 2748 781 2787 781 3010 
C 781 3207 614 3264 525 3264 
C 486 3264 448 3258 422 3245 
C 544 3790 915 4058 1306 4058 
C 1862 4058 2227 3617 2227 3035 
C 2227 2479 1901 2000 1536 1584 
L 262 146 
L 262 0 
L 2515 0 
L 2669 989 
z
" transform="scale(0.015625)"/>
        <path id="CMR17-35" d="M 730 3692 
C 794 3666 1056 3584 1325 3584 
C 1920 3584 2246 3911 2432 4100 
C 2432 4157 2432 4192 2394 4192 
C 2387 4192 2374 4192 2323 4163 
C 2099 4058 1837 3973 1517 3973 
C 1325 3973 1037 3999 723 4139 
C 653 4171 640 4171 634 4171 
C 602 4171 595 4164 595 4037 
L 595 2203 
C 595 2089 595 2057 659 2057 
C 691 2057 704 2070 736 2114 
C 941 2401 1222 2522 1542 2522 
C 1766 2522 2246 2382 2246 1289 
C 2246 1085 2246 715 2054 421 
C 1894 159 1645 25 1370 25 
C 947 25 518 320 403 814 
C 429 807 480 795 506 795 
C 589 795 749 840 749 1038 
C 749 1210 627 1280 506 1280 
C 358 1280 262 1190 262 1011 
C 262 454 704 -128 1382 -128 
C 2042 -128 2669 440 2669 1264 
C 2669 2030 2170 2624 1549 2624 
C 1222 2624 947 2503 730 2274 
L 730 3692 
z
" transform="scale(0.015625)"/>
       </defs>
       <use xlink:href="#CMR17-30" transform="scale(0.996264)"/>
       <use xlink:href="#CMMI12-3a" transform="translate(45.690477 0) scale(0.996264)"/>
       <use xlink:href="#CMR17-32" transform="translate(72.787654 0) scale(0.996264)"/>
       <use xlink:href="#CMR17-35" transform="translate(118.478131 0) scale(0.996264)"/>
      </g>
     </g>
    </g>
    <g id="xtick_3">
     <g id="line2d_5">
      <path d="M 254.537032 521.153031 
L 254.537032 51.564121 
" clip-path="url(#p1f3185478e)" style="fill: none; stroke: #ffffff; stroke-linecap: round"/>
     </g>
     <g id="line2d_6"/>
     <g id="text_3">
      <!-- $\mathdefault{0.50}$ -->
      <g style="fill: #262626" transform="translate(242.397497 537.838907) scale(0.14 -0.14)">
       <use xlink:href="#CMR17-30" transform="scale(0.996264)"/>
       <use xlink:href="#CMMI12-3a" transform="translate(45.690477 0) scale(0.996264)"/>
       <use xlink:href="#CMR17-35" transform="translate(72.787654 0) scale(0.996264)"/>
       <use xlink:href="#CMR17-30" transform="translate(118.478131 0) scale(0.996264)"/>
      </g>
     </g>
    </g>
    <g id="xtick_4">
     <g id="line2d_7">
      <path d="M 360.940257 521.153031 
L 360.940257 51.564121 
" clip-path="url(#p1f3185478e)" style="fill: none; stroke: #ffffff; stroke-linecap: round"/>
     </g>
     <g id="line2d_8"/>
     <g id="text_4">
      <!-- $\mathdefault{0.75}$ -->
      <g style="fill: #262626" transform="translate(348.800722 537.838907) scale(0.14 -0.14)">
       <defs>
        <path id="CMR17-37" d="M 2886 3941 
L 2886 4081 
L 1382 4081 
C 634 4081 621 4165 595 4288 
L 480 4288 
L 294 3094 
L 410 3094 
C 429 3215 474 3540 550 3661 
C 589 3712 1062 3712 1171 3712 
L 2579 3712 
L 1869 2661 
C 1395 1954 1069 999 1069 165 
C 1069 89 1069 -128 1299 -128 
C 1530 -128 1530 89 1530 171 
L 1530 465 
C 1530 1508 1709 2196 2003 2636 
L 2886 3941 
z
" transform="scale(0.015625)"/>
       </defs>
       <use xlink:href="#CMR17-30" transform="scale(0.996264)"/>
       <use xlink:href="#CMMI12-3a" transform="translate(45.690477 0) scale(0.996264)"/>
       <use xlink:href="#CMR17-37" transform="translate(72.787654 0) scale(0.996264)"/>
       <use xlink:href="#CMR17-35" transform="translate(118.478131 0) scale(0.996264)"/>
      </g>
     </g>
    </g>
    <g id="xtick_5">
     <g id="line2d_9">
      <path d="M 467.343482 521.153031 
L 467.343482 51.564121 
" clip-path="url(#p1f3185478e)" style="fill: none; stroke: #ffffff; stroke-linecap: round"/>
     </g>
     <g id="line2d_10"/>
     <g id="text_5">
      <!-- $\mathdefault{1.00}$ -->
      <g style="fill: #262626" transform="translate(455.203947 537.838907) scale(0.14 -0.14)">
       <defs>
        <path id="CMR17-31" d="M 1702 4058 
C 1702 4192 1696 4192 1606 4192 
C 1357 3916 979 3827 621 3827 
C 602 3827 570 3827 563 3808 
C 557 3795 557 3782 557 3648 
C 755 3648 1088 3686 1344 3839 
L 1344 461 
C 1344 236 1331 160 781 160 
L 589 160 
L 589 0 
C 896 0 1216 0 1523 0 
C 1830 0 2150 0 2458 0 
L 2458 160 
L 2266 160 
C 1715 160 1702 230 1702 458 
L 1702 4058 
z
" transform="scale(0.015625)"/>
       </defs>
       <use xlink:href="#CMR17-31" transform="scale(0.996264)"/>
       <use xlink:href="#CMMI12-3a" transform="translate(45.690477 0) scale(0.996264)"/>
       <use xlink:href="#CMR17-30" transform="translate(72.787654 0) scale(0.996264)"/>
       <use xlink:href="#CMR17-30" transform="translate(118.478131 0) scale(0.996264)"/>
      </g>
     </g>
    </g>
    <g id="xtick_6">
     <g id="line2d_11">
      <path d="M 573.746707 521.153031 
L 573.746707 51.564121 
" clip-path="url(#p1f3185478e)" style="fill: none; stroke: #ffffff; stroke-linecap: round"/>
     </g>
     <g id="line2d_12"/>
     <g id="text_6">
      <!-- $\mathdefault{1.25}$ -->
      <g style="fill: #262626" transform="translate(561.607172 537.838907) scale(0.14 -0.14)">
       <use xlink:href="#CMR17-31" transform="scale(0.996264)"/>
       <use xlink:href="#CMMI12-3a" transform="translate(45.690477 0) scale(0.996264)"/>
       <use xlink:href="#CMR17-32" transform="translate(72.787654 0) scale(0.996264)"/>
       <use xlink:href="#CMR17-35" transform="translate(118.478131 0) scale(0.996264)"/>
      </g>
     </g>
    </g>
    <g id="xtick_7">
     <g id="line2d_13">
      <path d="M 680.149932 521.153031 
L 680.149932 51.564121 
" clip-path="url(#p1f3185478e)" style="fill: none; stroke: #ffffff; stroke-linecap: round"/>
     </g>
     <g id="line2d_14"/>
     <g id="text_7">
      <!-- $\mathdefault{1.50}$ -->
      <g style="fill: #262626" transform="translate(668.010397 537.838907) scale(0.14 -0.14)">
       <use xlink:href="#CMR17-31" transform="scale(0.996264)"/>
       <use xlink:href="#CMMI12-3a" transform="translate(45.690477 0) scale(0.996264)"/>
       <use xlink:href="#CMR17-35" transform="translate(72.787654 0) scale(0.996264)"/>
       <use xlink:href="#CMR17-30" transform="translate(118.478131 0) scale(0.996264)"/>
      </g>
     </g>
    </g>
    <g id="xtick_8">
     <g id="line2d_15">
      <path d="M 786.553157 521.153031 
L 786.553157 51.564121 
" clip-path="url(#p1f3185478e)" style="fill: none; stroke: #ffffff; stroke-linecap: round"/>
     </g>
     <g id="line2d_16"/>
     <g id="text_8">
      <!-- $\mathdefault{1.75}$ -->
      <g style="fill: #262626" transform="translate(774.413622 537.838907) scale(0.14 -0.14)">
       <use xlink:href="#CMR17-31" transform="scale(0.996264)"/>
       <use xlink:href="#CMMI12-3a" transform="translate(45.690477 0) scale(0.996264)"/>
       <use xlink:href="#CMR17-37" transform="translate(72.787654 0) scale(0.996264)"/>
       <use xlink:href="#CMR17-35" transform="translate(118.478131 0) scale(0.996264)"/>
      </g>
     </g>
    </g>
    <g id="xtick_9">
     <g id="line2d_17">
      <path d="M 892.956382 521.153031 
L 892.956382 51.564121 
" clip-path="url(#p1f3185478e)" style="fill: none; stroke: #ffffff; stroke-linecap: round"/>
     </g>
     <g id="line2d_18"/>
     <g id="text_9">
      <!-- $\mathdefault{2.00}$ -->
      <g style="fill: #262626" transform="translate(880.816846 537.838907) scale(0.14 -0.14)">
       <use xlink:href="#CMR17-32" transform="scale(0.996264)"/>
       <use xlink:href="#CMMI12-3a" transform="translate(45.690477 0) scale(0.996264)"/>
       <use xlink:href="#CMR17-30" transform="translate(72.787654 0) scale(0.996264)"/>
       <use xlink:href="#CMR17-30" transform="translate(118.478131 0) scale(0.996264)"/>
      </g>
     </g>
    </g>
    <g id="text_10">
     <!-- $x$ -->
     <g style="fill: #262626" transform="translate(484.189402 555.620524) scale(0.16 -0.16)">
      <defs>
       <path id="CMMI12-78" d="M 3034 2606 
C 2829 2567 2752 2414 2752 2293 
C 2752 2139 2874 2088 2963 2088 
C 3155 2088 3290 2254 3290 2427 
C 3290 2695 2982 2816 2714 2816 
C 2323 2816 2106 2433 2048 2312 
C 1901 2816 1504 2816 1389 2816 
C 736 2816 390 1980 390 1839 
C 390 1814 416 1782 461 1782 
C 512 1782 525 1820 538 1846 
C 755 2555 1184 2689 1370 2689 
C 1658 2689 1715 2420 1715 2267 
C 1715 2127 1677 1980 1600 1673 
L 1382 798 
C 1286 415 1101 64 762 64 
C 730 64 570 64 435 147 
C 666 192 717 383 717 460 
C 717 588 621 664 499 664 
C 346 664 179 530 179 326 
C 179 57 480 -64 755 -64 
C 1062 -64 1280 179 1414 441 
C 1517 64 1837 -64 2074 -64 
C 2726 -64 3072 773 3072 913 
C 3072 945 3046 971 3008 971 
C 2950 971 2944 939 2925 888 
C 2752 326 2381 64 2093 64 
C 1869 64 1747 230 1747 492 
C 1747 632 1773 734 1875 1156 
L 2099 2024 
C 2195 2408 2413 2689 2707 2689 
C 2720 2689 2899 2689 3034 2606 
z
" transform="scale(0.015625)"/>
      </defs>
      <use xlink:href="#CMMI12-78" transform="scale(0.996264)"/>
     </g>
    </g>
   </g>
   <g id="matplotlib.axis_2">
    <g id="ytick_1">
     <g id="line2d_19">
      <path d="M 41.730582 521.153031 
L 935.517672 521.153031 
" clip-path="url(#p1f3185478e)" style="fill: none; stroke: #ffffff; stroke-linecap: round"/>
     </g>
     <g id="line2d_20"/>
     <g id="text_11">
      <!-- $\mathdefault{0.0}$ -->
      <g style="fill: #262626" transform="translate(17.28 525.995969) scale(0.14 -0.14)">
       <use xlink:href="#CMR17-30" transform="scale(0.996264)"/>
       <use xlink:href="#CMMI12-3a" transform="translate(45.690477 0) scale(0.996264)"/>
       <use xlink:href="#CMR17-30" transform="translate(72.787654 0) scale(0.996264)"/>
      </g>
     </g>
    </g>
    <g id="ytick_2">
     <g id="line2d_21">
      <path d="M 41.730582 446.653591 
L 935.517672 446.653591 
" clip-path="url(#p1f3185478e)" style="fill: none; stroke: #ffffff; stroke-linecap: round"/>
     </g>
     <g id="line2d_22"/>
     <g id="text_12">
      <!-- $\mathdefault{0.2}$ -->
      <g style="fill: #262626" transform="translate(17.28 451.496529) scale(0.14 -0.14)">
       <use xlink:href="#CMR17-30" transform="scale(0.996264)"/>
       <use xlink:href="#CMMI12-3a" transform="translate(45.690477 0) scale(0.996264)"/>
       <use xlink:href="#CMR17-32" transform="translate(72.787654 0) scale(0.996264)"/>
      </g>
     </g>
    </g>
    <g id="ytick_3">
     <g id="line2d_23">
      <path d="M 41.730582 372.154151 
L 935.517672 372.154151 
" clip-path="url(#p1f3185478e)" style="fill: none; stroke: #ffffff; stroke-linecap: round"/>
     </g>
     <g id="line2d_24"/>
     <g id="text_13">
      <!-- $\mathdefault{0.4}$ -->
      <g style="fill: #262626" transform="translate(17.28 376.997089) scale(0.14 -0.14)">
       <defs>
        <path id="CMR17-34" d="M 2150 4122 
C 2150 4256 2144 4256 2029 4256 
L 128 1254 
L 128 1088 
L 1779 1088 
L 1779 457 
C 1779 224 1766 160 1318 160 
L 1197 160 
L 1197 0 
C 1402 0 1747 0 1965 0 
C 2182 0 2528 0 2733 0 
L 2733 160 
L 2611 160 
C 2163 160 2150 224 2150 457 
L 2150 1088 
L 2803 1088 
L 2803 1254 
L 2150 1254 
L 2150 4122 
z
M 1798 3703 
L 1798 1254 
L 256 1254 
L 1798 3703 
z
" transform="scale(0.015625)"/>
       </defs>
       <use xlink:href="#CMR17-30" transform="scale(0.996264)"/>
       <use xlink:href="#CMMI12-3a" transform="translate(45.690477 0) scale(0.996264)"/>
       <use xlink:href="#CMR17-34" transform="translate(72.787654 0) scale(0.996264)"/>
      </g>
     </g>
    </g>
    <g id="ytick_4">
     <g id="line2d_25">
      <path d="M 41.730582 297.654711 
L 935.517672 297.654711 
" clip-path="url(#p1f3185478e)" style="fill: none; stroke: #ffffff; stroke-linecap: round"/>
     </g>
     <g id="line2d_26"/>
     <g id="text_14">
      <!-- $\mathdefault{0.6}$ -->
      <g style="fill: #262626" transform="translate(17.28 302.497649) scale(0.14 -0.14)">
       <defs>
        <path id="CMR17-36" d="M 678 2176 
C 678 3690 1395 4032 1811 4032 
C 1946 4032 2272 4009 2400 3776 
C 2298 3776 2106 3776 2106 3553 
C 2106 3381 2246 3323 2336 3323 
C 2394 3323 2566 3348 2566 3560 
C 2566 3954 2246 4179 1805 4179 
C 1043 4179 243 3390 243 1984 
C 243 253 966 -128 1478 -128 
C 2099 -128 2688 427 2688 1283 
C 2688 2081 2170 2662 1517 2662 
C 1126 2662 838 2407 678 1960 
L 678 2176 
z
M 1478 25 
C 691 25 691 1200 691 1436 
C 691 1896 909 2560 1504 2560 
C 1613 2560 1926 2560 2138 2120 
C 2253 1870 2253 1609 2253 1289 
C 2253 944 2253 690 2118 434 
C 1978 171 1773 25 1478 25 
z
" transform="scale(0.015625)"/>
       </defs>
       <use xlink:href="#CMR17-30" transform="scale(0.996264)"/>
       <use xlink:href="#CMMI12-3a" transform="translate(45.690477 0) scale(0.996264)"/>
       <use xlink:href="#CMR17-36" transform="translate(72.787654 0) scale(0.996264)"/>
      </g>
     </g>
    </g>
    <g id="ytick_5">
     <g id="line2d_27">
      <path d="M 41.730582 223.155271 
L 935.517672 223.155271 
" clip-path="url(#p1f3185478e)" style="fill: none; stroke: #ffffff; stroke-linecap: round"/>
     </g>
     <g id="line2d_28"/>
     <g id="text_15">
      <!-- $\mathdefault{0.8}$ -->
      <g style="fill: #262626" transform="translate(17.28 227.99821) scale(0.14 -0.14)">
       <defs>
        <path id="CMR17-38" d="M 1741 2264 
C 2144 2467 2554 2773 2554 3263 
C 2554 3841 1990 4179 1472 4179 
C 890 4179 378 3759 378 3180 
C 378 3021 416 2747 666 2505 
C 730 2442 998 2251 1171 2130 
C 883 1983 211 1634 211 934 
C 211 279 838 -128 1459 -128 
C 2144 -128 2720 362 2720 1010 
C 2720 1590 2330 1857 2074 2029 
L 1741 2264 
z
M 902 2822 
C 851 2854 595 3051 595 3351 
C 595 3739 998 4032 1459 4032 
C 1965 4032 2336 3676 2336 3262 
C 2336 2669 1670 2331 1638 2331 
C 1632 2331 1626 2331 1574 2370 
L 902 2822 
z
M 2080 1519 
C 2176 1449 2483 1240 2483 851 
C 2483 381 2010 25 1472 25 
C 890 25 448 438 448 940 
C 448 1443 838 1862 1280 2060 
L 2080 1519 
z
" transform="scale(0.015625)"/>
       </defs>
       <use xlink:href="#CMR17-30" transform="scale(0.996264)"/>
       <use xlink:href="#CMMI12-3a" transform="translate(45.690477 0) scale(0.996264)"/>
       <use xlink:href="#CMR17-38" transform="translate(72.787654 0) scale(0.996264)"/>
      </g>
     </g>
    </g>
    <g id="ytick_6">
     <g id="line2d_29">
      <path d="M 41.730582 148.655832 
L 935.517672 148.655832 
" clip-path="url(#p1f3185478e)" style="fill: none; stroke: #ffffff; stroke-linecap: round"/>
     </g>
     <g id="line2d_30"/>
     <g id="text_16">
      <!-- $\mathdefault{1.0}$ -->
      <g style="fill: #262626" transform="translate(17.28 153.49877) scale(0.14 -0.14)">
       <use xlink:href="#CMR17-31" transform="scale(0.996264)"/>
       <use xlink:href="#CMMI12-3a" transform="translate(45.690477 0) scale(0.996264)"/>
       <use xlink:href="#CMR17-30" transform="translate(72.787654 0) scale(0.996264)"/>
      </g>
     </g>
    </g>
    <g id="ytick_7">
     <g id="line2d_31">
      <path d="M 41.730582 74.156392 
L 935.517672 74.156392 
" clip-path="url(#p1f3185478e)" style="fill: none; stroke: #ffffff; stroke-linecap: round"/>
     </g>
     <g id="line2d_32"/>
     <g id="text_17">
      <!-- $\mathdefault{1.2}$ -->
      <g style="fill: #262626" transform="translate(17.28 78.99933) scale(0.14 -0.14)">
       <use xlink:href="#CMR17-31" transform="scale(0.996264)"/>
       <use xlink:href="#CMMI12-3a" transform="translate(45.690477 0) scale(0.996264)"/>
       <use xlink:href="#CMR17-32" transform="translate(72.787654 0) scale(0.996264)"/>
      </g>
     </g>
    </g>
   </g>
   <g id="line2d_33">
    <path d="M 41.730582 74.156392 
L 50.24284 74.156392 
L 58.755098 74.156392 
L 67.267356 74.156392 
L 75.779614 74.156392 
L 84.291872 74.156392 
L 92.80413 74.156392 
L 101.316388 74.156392 
L 109.828646 74.156392 
L 118.340904 74.156392 
L 126.853162 74.156392 
L 135.36542 74.156392 
L 143.877678 74.156392 
L 152.389936 74.156392 
L 160.902194 74.156392 
L 169.414452 74.156392 
L 177.92671 74.156392 
L 186.438968 74.156392 
L 194.951226 74.156392 
L 203.463484 74.156392 
L 211.975742 74.156392 
L 220.488 74.156392 
L 229.000258 74.156392 
L 237.512516 74.156392 
L 246.024774 74.156392 
L 254.537032 74.156392 
L 263.04929 74.156392 
L 271.561548 74.156392 
L 280.073806 74.156392 
L 288.586064 74.156392 
L 297.098322 74.156392 
L 305.61058 74.156392 
L 314.122838 74.156392 
L 322.635096 74.156392 
L 331.147354 74.156392 
L 339.659612 74.156392 
L 348.17187 74.156392 
L 356.684128 74.156392 
L 365.196386 74.156392 
L 373.708644 74.156392 
L 382.220902 74.156392 
L 390.73316 74.156392 
L 399.245418 74.156392 
L 407.757676 74.156392 
L 416.269934 74.156392 
L 424.782192 74.156392 
L 433.29445 74.156392 
L 441.806708 74.156392 
L 450.318966 74.156392 
L 458.831224 74.156392 
L 467.343482 74.156392 
L 475.85574 74.156392 
L 484.367998 74.156392 
L 492.880256 74.156392 
L 501.392514 74.156392 
L 509.904772 74.156392 
L 518.41703 74.156392 
L 526.929288 74.156392 
L 535.441546 74.156392 
L 543.953804 74.156392 
L 552.466062 74.156392 
L 560.97832 74.156392 
L 569.490578 74.156392 
L 578.002836 74.156392 
L 586.515094 74.156392 
L 595.027352 74.156392 
L 603.53961 74.156392 
L 612.051868 74.156392 
L 620.564126 74.156392 
L 629.076384 74.156392 
L 637.588642 74.156392 
L 646.1009 74.156392 
L 654.613158 74.156392 
L 663.125416 74.156392 
L 671.637674 74.156392 
L 680.149932 74.156392 
L 688.66219 74.156392 
L 697.174448 74.156392 
L 705.686706 74.156392 
L 714.198964 74.156392 
L 722.711222 74.156392 
L 731.22348 74.156392 
L 739.735738 74.156392 
L 748.247996 74.156392 
L 756.760254 74.156392 
L 765.272512 74.156392 
L 773.78477 74.156392 
L 782.297028 74.156392 
L 790.809286 74.156392 
L 799.321544 74.156392 
L 807.833802 74.156392 
L 816.34606 74.156392 
L 824.858318 74.156392 
L 833.370576 74.156392 
L 841.882834 74.156392 
L 850.395092 74.156392 
L 858.90735 74.156392 
L 867.419608 74.156392 
L 875.931866 74.156392 
L 884.444124 74.156392 
L 892.956382 74.156392 
" clip-path="url(#p1f3185478e)" style="fill: none; stroke: #393b79; stroke-width: 2; stroke-linecap: round"/>
   </g>
   <g id="line2d_34">
    <path d="M 41.730582 147.362992 
L 50.24284 146.9122 
L 58.755098 146.464855 
L 67.267356 146.020924 
L 75.779614 145.576266 
L 84.291872 145.12794 
L 92.80413 144.683027 
L 101.316388 144.241501 
L 109.828646 143.803323 
L 118.340904 143.368469 
L 126.853162 142.936918 
L 135.36542 142.508653 
L 143.877678 142.08364 
L 152.389936 141.661833 
L 160.902194 141.2432 
L 169.414452 140.827713 
L 177.92671 140.415364 
L 186.438968 140.006169 
L 194.951226 139.60004 
L 203.463484 139.191965 
L 211.975742 138.781612 
L 220.488 138.374338 
L 229.000258 137.97011 
L 237.512516 137.568907 
L 246.024774 137.170712 
L 254.537032 136.775491 
L 263.04929 136.383218 
L 271.561548 135.993866 
L 280.073806 135.60743 
L 288.586064 135.223876 
L 297.098322 134.843185 
L 305.61058 134.465323 
L 314.122838 134.090267 
L 322.635096 133.717985 
L 331.147354 133.34847 
L 339.659612 132.981689 
L 348.17187 132.610894 
L 356.684128 132.240148 
L 365.196386 131.87216 
L 373.708644 131.506888 
L 382.220902 131.144302 
L 390.73316 130.784382 
L 399.245418 130.427112 
L 407.757676 130.072471 
L 416.269934 129.720433 
L 424.782192 129.370984 
L 433.29445 129.024096 
L 441.806708 128.679763 
L 450.318966 128.337961 
L 458.831224 127.998656 
L 467.343482 127.661838 
L 475.85574 127.327482 
L 484.367998 126.995573 
L 492.880256 126.666086 
L 501.392514 126.338998 
L 509.904772 126.009573 
L 518.41703 125.678801 
L 526.929288 125.350451 
L 535.441546 125.0245 
L 543.953804 124.700913 
L 552.466062 124.379671 
L 560.97832 124.060755 
L 569.490578 123.744147 
L 578.002836 123.429828 
L 586.515094 123.117785 
L 595.027352 122.808007 
L 603.53961 122.500469 
L 612.051868 122.195154 
L 620.564126 121.89204 
L 629.076384 121.591119 
L 637.588642 121.292376 
L 646.1009 120.995787 
L 654.613158 120.701334 
L 663.125416 120.408997 
L 671.637674 120.118765 
L 680.149932 119.830616 
L 688.66219 119.544533 
L 697.174448 119.258478 
L 705.686706 118.969054 
L 714.198964 118.681704 
L 722.711222 118.396415 
L 731.22348 118.113167 
L 739.735738 117.831948 
L 748.247996 117.552737 
L 756.760254 117.275528 
L 765.272512 117.000298 
L 773.78477 116.727029 
L 782.297028 116.455709 
L 790.809286 116.186324 
L 799.321544 115.91886 
L 807.833802 115.6533 
L 816.34606 115.389627 
L 824.858318 115.127828 
L 833.370576 114.86789 
L 841.882834 114.609795 
L 850.395092 114.353531 
L 858.90735 114.099098 
L 867.419608 113.846478 
L 875.931866 113.595648 
L 884.444124 113.346593 
L 892.956382 113.099299 
" clip-path="url(#p1f3185478e)" style="fill: none; stroke: #6b6ecf; stroke-width: 2; stroke-linecap: round"/>
   </g>
   <g id="line2d_35">
    <path d="M 41.730582 325.784555 
L 50.24284 324.56574 
L 58.755098 323.347758 
L 67.267356 322.135863 
L 75.779614 320.925394 
L 84.291872 319.720907 
L 92.80413 318.517626 
L 101.316388 317.321362 
L 109.828646 316.124753 
L 118.340904 314.937352 
L 126.853162 313.747024 
L 135.36542 312.569245 
L 143.877678 311.384708 
L 152.389936 310.214038 
L 160.902194 309.038448 
L 169.414452 307.873123 
L 177.92671 306.708698 
L 186.438968 305.5482 
L 194.951226 304.395751 
L 203.463484 303.2398 
L 211.975742 302.097002 
L 220.488 300.949121 
L 229.000258 299.810211 
L 237.512516 298.675759 
L 246.024774 297.540636 
L 254.537032 296.41837 
L 263.04929 295.290322 
L 271.561548 294.170541 
L 280.073806 293.059079 
L 288.586064 291.942214 
L 297.098322 290.837623 
L 305.61058 289.734265 
L 314.122838 288.632003 
L 322.635096 287.541653 
L 331.147354 286.447336 
L 339.659612 285.358829 
L 348.17187 284.281958 
L 356.684128 283.197925 
L 365.196386 282.122567 
L 373.708644 281.058574 
L 382.220902 279.986151 
L 390.73316 278.923253 
L 399.245418 277.871484 
L 407.757676 276.81207 
L 416.269934 275.760869 
L 424.782192 274.720508 
L 433.29445 273.675642 
L 441.806708 272.635783 
L 450.318966 271.606565 
L 458.831224 270.577735 
L 467.343482 269.548395 
L 475.85574 268.529506 
L 484.367998 267.518538 
L 492.880256 266.499287 
L 501.392514 265.490303 
L 509.904772 264.49142 
L 518.41703 263.489398 
L 526.929288 262.489731 
L 535.441546 261.499958 
L 543.953804 260.519402 
L 552.466062 259.52855 
L 560.97832 258.547414 
L 569.490578 257.57592 
L 578.002836 256.608076 
L 586.515094 255.63514 
L 595.027352 254.671616 
L 603.53961 253.717451 
L 612.051868 252.764316 
L 620.564126 251.808271 
L 629.076384 250.861575 
L 637.588642 249.923811 
L 646.1009 248.987656 
L 654.613158 248.047831 
L 663.125416 247.116918 
L 671.637674 246.194803 
L 680.149932 245.277933 
L 688.66219 244.353434 
L 697.174448 243.437613 
L 705.686706 242.53037 
L 714.198964 241.631587 
L 722.711222 240.725445 
L 731.22348 239.823939 
L 739.735738 238.930783 
L 748.247996 238.045877 
L 756.760254 237.164272 
L 765.272512 236.276398 
L 773.78477 235.396634 
L 782.297028 234.524919 
L 790.809286 233.661153 
L 799.321544 232.795802 
L 807.833802 231.92877 
L 816.34606 231.069571 
L 824.858318 230.218138 
L 833.370576 229.374387 
L 841.882834 228.528368 
L 850.395092 227.68116 
L 858.90735 226.841476 
L 867.419608 226.009227 
L 875.931866 225.18448 
L 884.444124 224.361063 
L 892.956382 223.532467 
" clip-path="url(#p1f3185478e)" style="fill: none; stroke: #637939; stroke-width: 2; stroke-linecap: round"/>
   </g>
   <g id="line2d_36">
    <path d="M 41.730582 424.959596 
L 50.24284 423.614807 
L 58.755098 422.270325 
L 67.267356 420.922393 
L 75.779614 419.575334 
L 84.291872 418.226242 
L 92.80413 416.877618 
L 101.316388 415.527178 
L 109.828646 414.177935 
L 118.340904 412.826122 
L 126.853162 411.475981 
L 135.36542 410.124478 
L 143.877678 408.772684 
L 152.389936 407.42231 
L 160.902194 406.071197 
L 169.414452 404.719527 
L 177.92671 403.369124 
L 186.438968 402.019829 
L 194.951226 400.670196 
L 203.463484 399.320196 
L 211.975742 397.971371 
L 220.488 396.623734 
L 229.000258 395.2771 
L 237.512516 393.931155 
L 246.024774 392.586743 
L 254.537032 391.243739 
L 263.04929 389.901274 
L 271.561548 388.559619 
L 280.073806 387.219306 
L 288.586064 385.880445 
L 297.098322 384.543193 
L 305.61058 383.20748 
L 314.122838 381.872712 
L 322.635096 380.539599 
L 331.147354 379.208093 
L 339.659612 377.878423 
L 348.17187 376.550824 
L 356.684128 375.225351 
L 365.196386 373.901983 
L 373.708644 372.581557 
L 382.220902 371.263631 
L 390.73316 369.946086 
L 399.245418 368.629796 
L 407.757676 367.316645 
L 416.269934 366.006738 
L 424.782192 364.700477 
L 433.29445 363.394541 
L 441.806708 362.089932 
L 450.318966 360.789437 
L 458.831224 359.493387 
L 467.343482 358.197693 
L 475.85574 356.903336 
L 484.367998 355.614034 
L 492.880256 354.329558 
L 501.392514 353.042136 
L 509.904772 351.760566 
L 518.41703 350.48529 
L 526.929288 349.206446 
L 535.441546 347.933457 
L 543.953804 346.667204 
L 552.466062 345.39688 
L 560.97832 344.134007 
L 569.490578 342.874834 
L 578.002836 341.615094 
L 586.515094 340.36407 
L 595.027352 339.110589 
L 603.53961 337.863241 
L 612.051868 336.620227 
L 620.564126 335.376621 
L 629.076384 334.143749 
L 637.588642 332.904526 
L 646.1009 331.67693 
L 654.613158 330.446571 
L 663.125416 329.224076 
L 671.637674 328.002358 
L 680.149932 326.785794 
L 688.66219 325.572256 
L 697.174448 324.361921 
L 705.686706 323.156104 
L 714.198964 321.952858 
L 722.711222 320.754114 
L 731.22348 319.558259 
L 739.735738 318.366602 
L 748.247996 317.17886 
L 756.760254 315.993406 
L 765.272512 314.814799 
L 773.78477 313.635404 
L 782.297028 312.466234 
L 790.809286 311.292439 
L 799.321544 310.132273 
L 807.833802 308.965281 
L 816.34606 307.810024 
L 824.858318 306.65454 
L 833.370576 305.503827 
L 841.882834 304.360466 
L 850.395092 303.214179 
L 858.90735 302.080739 
L 867.419608 300.941611 
L 875.931866 299.811857 
L 884.444124 298.687223 
L 892.956382 297.560839 
" clip-path="url(#p1f3185478e)" style="fill: none; stroke: #b5cf6b; stroke-width: 2; stroke-linecap: round"/>
   </g>
   <g id="line2d_37">
    <path d="M 41.730582 505.225644 
L 50.24284 504.395454 
L 58.755098 503.549351 
L 67.267356 502.687678 
L 75.779614 501.810675 
L 84.291872 500.918762 
L 92.80413 500.01227 
L 101.316388 499.091453 
L 109.828646 498.156691 
L 118.340904 497.208344 
L 126.853162 496.246567 
L 135.36542 495.271775 
L 143.877678 494.284345 
L 152.389936 493.2843 
L 160.902194 492.2723 
L 169.414452 491.248277 
L 177.92671 490.212828 
L 186.438968 489.165957 
L 194.951226 488.107993 
L 203.463484 487.039523 
L 211.975742 485.960565 
L 220.488 484.871317 
L 229.000258 483.771947 
L 237.512516 482.662747 
L 246.024774 481.544368 
L 254.537032 480.417041 
L 263.04929 479.280386 
L 271.561548 478.134906 
L 280.073806 476.981124 
L 288.586064 475.819227 
L 297.098322 474.648964 
L 305.61058 473.471136 
L 314.122838 472.285734 
L 322.635096 471.092973 
L 331.147354 469.892977 
L 339.659612 468.686086 
L 348.17187 467.472797 
L 356.684128 466.252546 
L 365.196386 465.026204 
L 373.708644 463.793539 
L 382.220902 462.555146 
L 390.73316 461.311335 
L 399.245418 460.061676 
L 407.757676 458.806663 
L 416.269934 457.546565 
L 424.782192 456.281263 
L 433.29445 455.011046 
L 441.806708 453.736438 
L 450.318966 452.457865 
L 458.831224 451.174254 
L 467.343482 449.886972 
L 475.85574 448.595511 
L 484.367998 447.300721 
L 492.880256 446.001516 
L 501.392514 444.699565 
L 509.904772 443.394582 
L 518.41703 442.085395 
L 526.929288 440.77357 
L 535.441546 439.458907 
L 543.953804 438.141675 
L 552.466062 436.82191 
L 560.97832 435.499518 
L 569.490578 434.175011 
L 578.002836 432.848336 
L 586.515094 431.519989 
L 595.027352 430.19006 
L 603.53961 428.856761 
L 612.051868 427.522504 
L 620.564126 426.187045 
L 629.076384 424.850748 
L 637.588642 423.511553 
L 646.1009 422.173038 
L 654.613158 420.832065 
L 663.125416 419.490795 
L 671.637674 418.148636 
L 680.149932 416.805819 
L 688.66219 415.462188 
L 697.174448 414.118841 
L 705.686706 412.773661 
L 714.198964 411.430183 
L 722.711222 410.084639 
L 731.22348 408.739424 
L 739.735738 407.395681 
L 748.247996 406.050613 
L 756.760254 404.705261 
L 765.272512 403.361257 
L 773.78477 402.018396 
L 782.297028 400.675221 
L 790.809286 399.33156 
L 799.321544 397.989124 
L 807.833802 396.647514 
L 816.34606 395.307199 
L 824.858318 393.96795 
L 833.370576 392.629685 
L 841.882834 391.292443 
L 850.395092 389.956419 
L 858.90735 388.621476 
L 867.419608 387.287506 
L 875.931866 385.95494 
L 884.444124 384.623675 
L 892.956382 383.29373 
" clip-path="url(#p1f3185478e)" style="fill: none; stroke: #8c6d31; stroke-width: 2; stroke-linecap: round"/>
   </g>
   <g id="line2d_38">
    <path d="M 41.730582 520.029222 
L 50.24284 519.760468 
L 58.755098 519.464801 
L 67.267356 519.142718 
L 75.779614 518.794688 
L 84.291872 518.421213 
L 92.80413 518.022788 
L 101.316388 517.599826 
L 109.828646 517.152848 
L 118.340904 516.682299 
L 126.853162 516.188598 
L 135.36542 515.672214 
L 143.877678 515.133577 
L 152.389936 514.573105 
L 160.902194 513.991284 
L 169.414452 513.388491 
L 177.92671 512.765148 
L 186.438968 512.12161 
L 194.951226 511.458302 
L 203.463484 510.775723 
L 211.975742 510.074185 
L 220.488 509.354067 
L 229.000258 508.61573 
L 237.512516 507.859452 
L 246.024774 507.085874 
L 254.537032 506.295328 
L 263.04929 505.487886 
L 271.561548 504.664052 
L 280.073806 503.824259 
L 288.586064 502.968735 
L 297.098322 502.097906 
L 305.61058 501.212113 
L 314.122838 500.311615 
L 322.635096 499.396758 
L 331.147354 498.467882 
L 339.659612 497.525276 
L 348.17187 496.5692 
L 356.684128 495.600129 
L 365.196386 494.618123 
L 373.708644 493.623721 
L 382.220902 492.617002 
L 390.73316 491.598561 
L 399.245418 490.568258 
L 407.757676 489.526704 
L 416.269934 488.474063 
L 424.782192 487.410496 
L 433.29445 486.336559 
L 441.806708 485.252301 
L 450.318966 484.15789 
L 458.831224 483.053766 
L 467.343482 481.940196 
L 475.85574 480.817417 
L 484.367998 479.685434 
L 492.880256 478.544842 
L 501.392514 477.395413 
L 509.904772 476.237857 
L 518.41703 475.072247 
L 526.929288 473.898952 
L 535.441546 472.71761 
L 543.953804 471.52905 
L 552.466062 470.333405 
L 560.97832 469.130813 
L 569.490578 467.92111 
L 578.002836 466.704943 
L 586.515094 465.482734 
L 595.027352 464.254064 
L 603.53961 463.019285 
L 612.051868 461.779187 
L 620.564126 460.533204 
L 629.076384 459.282221 
L 637.588642 458.025477 
L 646.1009 456.763842 
L 654.613158 455.497243 
L 663.125416 454.226055 
L 671.637674 452.950904 
L 680.149932 451.670605 
L 688.66219 450.386624 
L 697.174448 449.098475 
L 705.686706 447.806728 
L 714.198964 446.510857 
L 722.711222 445.212147 
L 731.22348 443.90963 
L 739.735738 442.60367 
L 748.247996 441.294828 
L 756.760254 439.983201 
L 765.272512 438.668912 
L 773.78477 437.35198 
L 782.297028 436.032331 
L 790.809286 434.710408 
L 799.321544 433.386315 
L 807.833802 432.060015 
L 816.34606 430.732176 
L 824.858318 429.402981 
L 833.370576 428.070906 
L 841.882834 426.737239 
L 850.395092 425.403135 
L 858.90735 424.067419 
L 867.419608 422.729547 
L 875.931866 421.392534 
L 884.444124 420.052343 
L 892.956382 418.7131 
" clip-path="url(#p1f3185478e)" style="fill: none; stroke: #e7cb94; stroke-width: 2; stroke-linecap: round"/>
   </g>
   <g id="line2d_39">
    <path d="M 41.730582 521.392052 
L 50.24284 521.077078 
L 58.755098 520.87451 
L 67.267356 520.7238 
L 75.779614 520.548552 
L 84.291872 520.344691 
L 92.80413 520.112745 
L 101.316388 519.8532 
L 109.828646 519.566591 
L 118.340904 519.253417 
L 126.853162 518.914143 
L 135.36542 518.549273 
L 143.877678 518.159284 
L 152.389936 517.744634 
L 160.902194 517.305834 
L 169.414452 516.843305 
L 177.92671 516.357511 
L 186.438968 515.848868 
L 194.951226 515.317819 
L 203.463484 514.764876 
L 211.975742 514.190411 
L 220.488 513.594832 
L 229.000258 512.978566 
L 237.512516 512.341919 
L 246.024774 511.685517 
L 254.537032 511.009735 
L 263.04929 510.314729 
L 271.561548 509.601021 
L 280.073806 508.869067 
L 288.586064 508.11915 
L 297.098322 507.35166 
L 305.61058 506.567027 
L 314.122838 505.76552 
L 322.635096 504.947567 
L 331.147354 504.113418 
L 339.659612 503.263523 
L 348.17187 502.398196 
L 356.684128 501.517751 
L 365.196386 500.622454 
L 373.708644 499.71281 
L 382.220902 498.788865 
L 390.73316 497.851247 
L 399.245418 496.90009 
L 407.757676 495.935737 
L 416.269934 494.958456 
L 424.782192 493.968557 
L 433.29445 492.966388 
L 441.806708 491.952203 
L 450.318966 490.926354 
L 458.831224 489.889061 
L 467.343482 488.84044 
L 475.85574 487.78093 
L 484.367998 486.710861 
L 492.880256 485.630471 
L 501.392514 484.539872 
L 509.904772 483.439435 
L 518.41703 482.329565 
L 526.929288 481.210167 
L 535.441546 480.0816 
L 543.953804 478.944306 
L 552.466062 477.798536 
L 560.97832 476.644018 
L 569.490578 475.481593 
L 578.002836 474.311042 
L 586.515094 473.133089 
L 595.027352 471.947559 
L 603.53961 470.754573 
L 612.051868 469.554632 
L 620.564126 468.347573 
L 629.076384 467.134656 
L 637.588642 465.914378 
L 646.1009 464.68872 
L 654.613158 463.45626 
L 663.125416 462.218236 
L 671.637674 460.974772 
L 680.149932 459.725814 
L 688.66219 458.471506 
L 697.174448 457.211913 
L 705.686706 455.94744 
L 714.198964 454.678349 
L 722.711222 453.405005 
L 731.22348 452.126802 
L 739.735738 450.844496 
L 748.247996 449.55845 
L 756.760254 448.267942 
L 765.272512 446.974073 
L 773.78477 445.677127 
L 782.297028 444.375574 
L 790.809286 443.071379 
L 799.321544 441.764405 
L 807.833802 440.454373 
L 816.34606 439.141659 
L 824.858318 437.82593 
L 833.370576 436.507695 
L 841.882834 435.187083 
L 850.395092 433.863933 
L 858.90735 432.53859 
L 867.419608 431.211165 
L 875.931866 429.882314 
L 884.444124 428.552228 
L 892.956382 427.220318 
" clip-path="url(#p1f3185478e)" style="fill: none; stroke: #ad494a; stroke-width: 2; stroke-linecap: round"/>
   </g>
   <g id="line2d_40">
    <path d="M 41.730582 522.803494 
L 50.24284 521.980875 
L 58.755098 521.454809 
L 67.267356 521.11746 
L 75.779614 520.900541 
L 84.291872 520.748528 
L 92.80413 520.577829 
L 101.316388 520.378425 
L 109.828646 520.150859 
L 118.340904 519.895644 
L 126.853162 519.613269 
L 135.36542 519.304246 
L 143.877678 518.969067 
L 152.389936 518.608209 
L 160.902194 518.222186 
L 169.414452 517.811444 
L 177.92671 517.376458 
L 186.438968 516.917658 
L 194.951226 516.4355 
L 203.463484 515.930502 
L 211.975742 515.403056 
L 220.488 514.853591 
L 229.000258 514.28254 
L 237.512516 513.690218 
L 246.024774 513.077259 
L 254.537032 512.44406 
L 263.04929 511.790783 
L 271.561548 511.117969 
L 280.073806 510.426083 
L 288.586064 509.715406 
L 297.098322 508.986376 
L 305.61058 508.239411 
L 314.122838 507.474753 
L 322.635096 506.692906 
L 331.147354 505.894118 
L 339.659612 505.078794 
L 348.17187 504.24732 
L 356.684128 503.400069 
L 365.196386 502.537146 
L 373.708644 501.659175 
L 382.220902 500.766318 
L 390.73316 499.859002 
L 399.245418 498.937547 
L 407.757676 498.00218 
L 416.269934 497.053191 
L 424.782192 496.091039 
L 433.29445 495.115885 
L 441.806708 494.128095 
L 450.318966 493.127976 
L 458.831224 492.115848 
L 467.343482 491.091861 
L 475.85574 490.056456 
L 484.367998 489.00973 
L 492.880256 487.952105 
L 501.392514 486.883856 
L 509.904772 485.805252 
L 518.41703 484.716365 
L 526.929288 483.617606 
L 535.441546 482.509334 
L 543.953804 481.391442 
L 552.466062 480.264578 
L 560.97832 479.128714 
L 569.490578 477.984325 
L 578.002836 476.831631 
L 586.515094 475.670373 
L 595.027352 474.501504 
L 603.53961 473.324664 
L 612.051868 472.140385 
L 620.564126 470.948583 
L 629.076384 469.75025 
L 637.588642 468.544457 
L 646.1009 467.332125 
L 654.613158 466.113773 
L 663.125416 464.888387 
L 671.637674 463.657579 
L 680.149932 462.42074 
L 688.66219 461.177986 
L 697.174448 459.929805 
L 705.686706 458.676449 
L 714.198964 457.418022 
L 722.711222 456.154714 
L 731.22348 454.88681 
L 739.735738 453.613646 
L 748.247996 452.336386 
L 756.760254 451.05531 
L 765.272512 449.769322 
L 773.78477 448.480422 
L 782.297028 447.186729 
L 790.809286 445.88997 
L 799.321544 444.590439 
L 807.833802 443.286381 
L 816.34606 441.979516 
L 824.858318 440.669892 
L 833.370576 439.357487 
L 841.882834 438.042329 
L 850.395092 436.724664 
L 858.90735 435.40451 
L 867.419608 434.081888 
L 875.931866 432.757354 
L 884.444124 431.430997 
L 892.956382 430.103065 
" clip-path="url(#p1f3185478e)" style="fill: none; stroke: #e7969c; stroke-width: 2; stroke-linecap: round"/>
   </g>
   <g id="line2d_41">
    <path d="M 41.730582 524.370424 
L 50.24284 522.980157 
L 58.755098 522.093821 
L 67.267356 521.527185 
L 75.779614 521.163942 
L 84.291872 520.930476 
L 92.80413 520.774229 
L 101.316388 520.608377 
L 109.828646 520.413755 
L 118.340904 520.190885 
L 126.853162 519.940265 
L 135.36542 519.662416 
L 143.877678 519.357838 
L 152.389936 519.027015 
L 160.902194 518.670466 
L 169.414452 518.288649 
L 177.92671 517.882044 
L 186.438968 517.451092 
L 194.951226 516.996254 
L 203.463484 516.518056 
L 211.975742 516.016897 
L 220.488 515.493212 
L 229.000258 514.947434 
L 237.512516 514.379909 
L 246.024774 513.791256 
L 254.537032 513.181875 
L 263.04929 512.551961 
L 271.561548 511.902035 
L 280.073806 511.232585 
L 288.586064 510.543881 
L 297.098322 509.836386 
L 305.61058 509.110511 
L 314.122838 508.36653 
L 322.635096 507.604888 
L 331.147354 506.825949 
L 339.659612 506.030009 
L 348.17187 505.217536 
L 356.684128 504.38884 
L 365.196386 503.544105 
L 373.708644 502.683991 
L 382.220902 501.8085 
L 390.73316 500.918252 
L 399.245418 500.013387 
L 407.757676 499.094347 
L 416.269934 498.161282 
L 424.782192 497.214679 
L 433.29445 496.25473 
L 441.806708 495.281851 
L 450.318966 494.296334 
L 458.831224 493.298351 
L 467.343482 492.288249 
L 475.85574 491.266235 
L 484.367998 490.232754 
L 492.880256 489.188025 
L 501.392514 488.132338 
L 509.904772 487.065912 
L 518.41703 485.989082 
L 526.929288 484.902037 
L 535.441546 483.804889 
L 543.953804 482.698312 
L 552.466062 481.582126 
L 560.97832 480.456786 
L 569.490578 479.322588 
L 578.002836 478.179576 
L 586.515094 477.028339 
L 595.027352 475.868682 
L 603.53961 474.701054 
L 612.051868 473.525605 
L 620.564126 472.342414 
L 629.076384 471.152321 
L 637.588642 469.954738 
L 646.1009 468.750596 
L 654.613158 467.539647 
L 663.125416 466.321806 
L 671.637674 465.098249 
L 680.149932 463.868094 
L 688.66219 462.63219 
L 697.174448 461.390696 
L 705.686706 460.143774 
L 714.198964 458.891433 
L 722.711222 457.633758 
L 731.22348 456.371066 
L 739.735738 455.10371 
L 748.247996 453.831911 
L 756.760254 452.555678 
L 765.272512 451.274641 
L 773.78477 449.990558 
L 782.297028 448.701109 
L 790.809286 447.409158 
L 799.321544 446.112781 
L 807.833802 444.812939 
L 816.34606 443.510417 
L 824.858318 442.204793 
L 833.370576 440.895326 
L 841.882834 439.583149 
L 850.395092 438.268468 
L 858.90735 436.951262 
L 867.419608 435.631512 
L 875.931866 434.309725 
L 884.444124 432.985947 
L 892.956382 431.660375 
" clip-path="url(#p1f3185478e)" style="fill: none; stroke: #a55194; stroke-width: 2; stroke-linecap: round"/>
   </g>
   <g id="line2d_42">
    <path d="M 41.730582 526.001807 
L 50.24284 524.01792 
L 58.755098 522.755776 
L 67.267356 521.950563 
L 75.779614 521.435445 
L 84.291872 521.105045 
L 92.80413 520.892574 
L 101.316388 520.741232 
L 109.828646 520.569201 
L 118.340904 520.368514 
L 126.853162 520.139675 
L 135.36542 519.88321 
L 143.877678 519.599622 
L 152.389936 519.289404 
L 160.902194 518.953079 
L 169.414452 518.591109 
L 177.92671 518.203981 
L 186.438968 517.792141 
L 194.951226 517.356057 
L 203.463484 516.896256 
L 211.975742 516.413136 
L 220.488 515.907151 
L 229.000258 515.378735 
L 237.512516 514.828237 
L 246.024774 514.256275 
L 254.537032 513.663253 
L 263.04929 513.049385 
L 271.561548 512.415186 
L 280.073806 511.761142 
L 288.586064 511.087546 
L 297.098322 510.394856 
L 305.61058 509.683472 
L 314.122838 508.953697 
L 322.635096 508.205987 
L 331.147354 507.44064 
L 339.659612 506.658063 
L 348.17187 505.85866 
L 356.684128 505.042727 
L 365.196386 504.210535 
L 373.708644 503.362631 
L 382.220902 502.499151 
L 390.73316 501.62065 
L 399.245418 500.727239 
L 407.757676 499.819409 
L 416.269934 498.897315 
L 424.782192 497.961404 
L 433.29445 497.011999 
L 441.806708 496.049332 
L 450.318966 495.073776 
L 458.831224 494.085565 
L 467.343482 493.08502 
L 475.85574 492.07238 
L 484.367998 491.048113 
L 492.880256 490.012222 
L 501.392514 488.96524 
L 509.904772 487.907173 
L 518.41703 486.83866 
L 526.929288 485.759607 
L 535.441546 484.670432 
L 543.953804 483.571324 
L 552.466062 482.462673 
L 560.97832 481.344535 
L 569.490578 480.217444 
L 578.002836 479.081331 
L 586.515094 477.93665 
L 595.027352 476.783637 
L 603.53961 475.622188 
L 612.051868 474.453232 
L 620.564126 473.275852 
L 629.076384 472.091525 
L 637.588642 470.899589 
L 646.1009 469.700877 
L 654.613158 468.495415 
L 663.125416 467.282607 
L 671.637674 466.063891 
L 680.149932 464.83864 
L 688.66219 463.607889 
L 697.174448 462.37052 
L 705.686706 461.12773 
L 714.198964 459.87956 
L 722.711222 458.626048 
L 731.22348 457.36746 
L 739.735738 456.104094 
L 748.247996 454.836114 
L 756.760254 453.563001 
L 765.272512 452.28555 
L 773.78477 451.004699 
L 782.297028 449.718432 
L 790.809286 448.429682 
L 799.321544 447.135863 
L 807.833802 445.839123 
L 816.34606 444.539331 
L 824.858318 443.235336 
L 833.370576 441.928545 
L 841.882834 440.618916 
L 850.395092 439.30662 
L 858.90735 437.991597 
L 867.419608 436.673791 
L 875.931866 435.353663 
L 884.444124 434.031215 
L 892.956382 432.706596 
" clip-path="url(#p1f3185478e)" style="fill: none; stroke: #de9ed6; stroke-width: 2; stroke-linecap: round"/>
   </g>
   <g id="patch_3">
    <path d="M 41.730582 521.153031 
L 41.730582 51.564121 
" style="fill: none"/>
   </g>
   <g id="patch_4">
    <path d="M 935.517672 521.153031 
L 935.517672 51.564121 
" style="fill: none"/>
   </g>
   <g id="patch_5">
    <path d="M 41.730582 521.153031 
L 935.517672 521.153031 
" style="fill: none"/>
   </g>
   <g id="patch_6">
    <path d="M 41.730582 51.564121 
L 935.517672 51.564121 
" style="fill: none"/>
   </g>
   <g id="patch_7">
    <path d="M 467.343482 83.606755 
Q 467.343482 281.75714 467.343482 478.230475 
" style="fill: none; stroke: #000000; stroke-width: 1.5; stroke-linecap: round"/>
    <path d="M 470.543482 471.830475 
L 467.343482 478.230475 
L 464.143482 471.830475 
" style="fill: none; stroke: #000000; stroke-width: 1.5; stroke-linecap: round"/>
   </g>
   <g id="text_18">
    <!-- Time -->
    <g style="fill: #262626" transform="translate(488.624127 478.422039) scale(0.18 -0.18)">
     <defs>
      <path id="CMR17-54" d="M 3981 4326 
L 288 4326 
L 179 2918 
L 294 2918 
C 378 3976 467 4160 1453 4160 
C 1568 4160 1754 4160 1805 4154 
C 1926 4135 1926 4058 1926 3912 
L 1926 459 
C 1926 230 1907 160 1376 160 
L 1197 160 
L 1197 0 
C 1504 0 1824 0 2138 0 
C 2451 0 2771 0 3078 0 
L 3078 160 
L 2899 160 
C 2368 160 2349 230 2349 459 
L 2349 3912 
C 2349 4052 2349 4129 2464 4154 
C 2515 4160 2701 4160 2816 4160 
C 3795 4160 3891 3976 3974 2918 
L 4090 2918 
L 3981 4326 
z
" transform="scale(0.015625)"/>
      <path id="CMR17-69" d="M 992 3909 
C 992 4049 877 4170 730 4170 
C 589 4170 467 4056 467 3909 
C 467 3769 582 3648 730 3648 
C 870 3648 992 3763 992 3909 
z
M 243 2706 
L 243 2541 
C 602 2541 653 2502 653 2197 
L 653 427 
C 653 184 627 153 218 153 
L 218 -13 
C 371 0 646 0 806 0 
C 960 0 1222 0 1370 -13 
L 1370 153 
C 992 153 979 191 979 420 
L 979 2776 
L 243 2706 
z
" transform="scale(0.015625)"/>
      <path id="CMR17-6d" d="M 4326 1933 
C 4326 2252 4269 2790 3507 2790 
C 3072 2790 2771 2496 2656 2151 
L 2650 2151 
C 2573 2676 2195 2790 1837 2790 
C 1331 2790 1069 2400 973 2144 
L 966 2144 
L 966 2790 
L 211 2720 
L 211 2554 
C 589 2554 646 2515 646 2208 
L 646 428 
C 646 184 621 153 211 153 
L 211 -13 
C 365 0 646 0 813 0 
C 979 0 1267 0 1421 -13 
L 1421 153 
C 1011 153 986 178 986 428 
L 986 1658 
C 986 2247 1344 2688 1792 2688 
C 2266 2688 2317 2266 2317 1958 
L 2317 428 
C 2317 184 2291 153 1882 153 
L 1882 -13 
C 2035 0 2317 0 2483 0 
C 2650 0 2938 0 3091 -13 
L 3091 153 
C 2682 153 2656 178 2656 428 
L 2656 1658 
C 2656 2247 3014 2688 3462 2688 
C 3936 2688 3987 2266 3987 1958 
L 3987 428 
C 3987 184 3962 153 3552 153 
L 3552 -13 
C 3706 0 3987 0 4154 0 
C 4320 0 4608 0 4762 -13 
L 4762 153 
C 4352 153 4326 178 4326 428 
L 4326 1933 
z
" transform="scale(0.015625)"/>
      <path id="CMR17-65" d="M 2438 1472 
C 2464 1498 2464 1511 2464 1576 
C 2464 2238 2118 2816 1389 2816 
C 710 2816 173 2169 173 1383 
C 173 551 781 -64 1459 -64 
C 2176 -64 2458 607 2458 740 
C 2458 784 2419 784 2406 784 
C 2362 784 2355 771 2330 696 
C 2189 265 1837 51 1504 51 
C 1229 51 954 203 781 480 
C 582 803 582 1176 582 1472 
L 2438 1472 
z
M 589 1568 
C 634 2505 1126 2714 1382 2714 
C 1818 2714 2112 2297 2118 1568 
L 589 1568 
z
" transform="scale(0.015625)"/>
     </defs>
     <use xlink:href="#CMR17-54" transform="scale(0.996264)"/>
     <use xlink:href="#CMR17-69" transform="translate(66.509881 0) scale(0.996264)"/>
     <use xlink:href="#CMR17-6d" transform="translate(91.380939 0) scale(0.996264)"/>
     <use xlink:href="#CMR17-65" transform="translate(168.300529 0) scale(0.996264)"/>
    </g>
   </g>
   <g id="legend_1">
    <g id="line2d_43">
     <path d="M 948.117672 197.198434 
L 962.117672 197.198434 
L 976.117672 197.198434 
" style="fill: none; stroke: #393b79; stroke-width: 2; stroke-linecap: round"/>
    </g>
    <g id="text_19">
     <!-- t = 0.00 -->
     <g style="fill: #262626" transform="translate(987.317672 202.098434) scale(0.14 -0.14)">
      <defs>
       <path id="CMR17-74" d="M 966 2560 
L 1862 2560 
L 1862 2725 
L 966 2725 
L 966 3904 
L 851 3904 
C 838 3245 614 2668 70 2668 
L 70 2560 
L 627 2560 
L 627 771 
C 627 650 627 -64 1370 -64 
C 1747 -64 1965 306 1965 777 
L 1965 1140 
L 1850 1140 
L 1850 783 
C 1850 344 1677 51 1408 51 
C 1222 51 966 178 966 758 
L 966 2560 
z
" transform="scale(0.015625)"/>
       <path id="CMR17-3d" d="M 4115 2017 
C 4211 2017 4307 2017 4307 2125 
C 4307 2240 4198 2240 4090 2240 
L 512 2240 
C 403 2240 294 2240 294 2125 
C 294 2017 390 2017 486 2017 
L 4115 2017 
z
M 4090 896 
C 4198 896 4307 896 4307 1011 
C 4307 1119 4211 1119 4115 1119 
L 486 1119 
C 390 1119 294 1119 294 1011 
C 294 896 403 896 512 896 
L 4090 896 
z
" transform="scale(0.015625)"/>
       <path id="CMR17-2e" d="M 1062 261 
C 1062 420 934 522 800 522 
C 672 522 538 420 538 261 
C 538 102 666 0 800 0 
C 928 0 1062 102 1062 261 
z
" transform="scale(0.015625)"/>
      </defs>
      <use xlink:href="#CMR17-74" transform="scale(0.996264)"/>
      <use xlink:href="#CMR17-3d" transform="translate(65.356734 0) scale(0.996264)"/>
      <use xlink:href="#CMR17-30" transform="translate(167.147489 0) scale(0.996264)"/>
      <use xlink:href="#CMR17-2e" transform="translate(212.837966 0) scale(0.996264)"/>
      <use xlink:href="#CMR17-30" transform="translate(237.709025 0) scale(0.996264)"/>
      <use xlink:href="#CMR17-30" transform="translate(283.399502 0) scale(0.996264)"/>
     </g>
    </g>
    <g id="line2d_44">
     <path d="M 948.117672 216.710462 
L 962.117672 216.710462 
L 976.117672 216.710462 
" style="fill: none; stroke: #6b6ecf; stroke-width: 2; stroke-linecap: round"/>
    </g>
    <g id="text_20">
     <!-- t = 10.00 -->
     <g style="fill: #262626" transform="translate(987.317672 221.610462) scale(0.14 -0.14)">
      <use xlink:href="#CMR17-74" transform="scale(0.996264)"/>
      <use xlink:href="#CMR17-3d" transform="translate(65.356734 0) scale(0.996264)"/>
      <use xlink:href="#CMR17-31" transform="translate(167.147489 0) scale(0.996264)"/>
      <use xlink:href="#CMR17-30" transform="translate(212.837966 0) scale(0.996264)"/>
      <use xlink:href="#CMR17-2e" transform="translate(258.528443 0) scale(0.996264)"/>
      <use xlink:href="#CMR17-30" transform="translate(283.399502 0) scale(0.996264)"/>
      <use xlink:href="#CMR17-30" transform="translate(329.089979 0) scale(0.996264)"/>
     </g>
    </g>
    <g id="line2d_45">
     <path d="M 948.117672 236.222491 
L 962.117672 236.222491 
L 976.117672 236.222491 
" style="fill: none; stroke: #637939; stroke-width: 2; stroke-linecap: round"/>
    </g>
    <g id="text_21">
     <!-- t = 50.00 -->
     <g style="fill: #262626" transform="translate(987.317672 241.122491) scale(0.14 -0.14)">
      <use xlink:href="#CMR17-74" transform="scale(0.996264)"/>
      <use xlink:href="#CMR17-3d" transform="translate(65.356734 0) scale(0.996264)"/>
      <use xlink:href="#CMR17-35" transform="translate(167.147489 0) scale(0.996264)"/>
      <use xlink:href="#CMR17-30" transform="translate(212.837966 0) scale(0.996264)"/>
      <use xlink:href="#CMR17-2e" transform="translate(258.528443 0) scale(0.996264)"/>
      <use xlink:href="#CMR17-30" transform="translate(283.399502 0) scale(0.996264)"/>
      <use xlink:href="#CMR17-30" transform="translate(329.089979 0) scale(0.996264)"/>
     </g>
    </g>
    <g id="line2d_46">
     <path d="M 948.117672 255.734519 
L 962.117672 255.734519 
L 976.117672 255.734519 
" style="fill: none; stroke: #b5cf6b; stroke-width: 2; stroke-linecap: round"/>
    </g>
    <g id="text_22">
     <!-- t = 100.00 -->
     <g style="fill: #262626" transform="translate(987.317672 260.634519) scale(0.14 -0.14)">
      <use xlink:href="#CMR17-74" transform="scale(0.996264)"/>
      <use xlink:href="#CMR17-3d" transform="translate(65.356734 0) scale(0.996264)"/>
      <use xlink:href="#CMR17-31" transform="translate(167.147489 0) scale(0.996264)"/>
      <use xlink:href="#CMR17-30" transform="translate(212.837966 0) scale(0.996264)"/>
      <use xlink:href="#CMR17-30" transform="translate(258.528443 0) scale(0.996264)"/>
      <use xlink:href="#CMR17-2e" transform="translate(304.21892 0) scale(0.996264)"/>
      <use xlink:href="#CMR17-30" transform="translate(329.089979 0) scale(0.996264)"/>
      <use xlink:href="#CMR17-30" transform="translate(374.780456 0) scale(0.996264)"/>
     </g>
    </g>
    <g id="line2d_47">
     <path d="M 948.117672 275.246547 
L 962.117672 275.246547 
L 976.117672 275.246547 
" style="fill: none; stroke: #8c6d31; stroke-width: 2; stroke-linecap: round"/>
    </g>
    <g id="text_23">
     <!-- t = 250.00 -->
     <g style="fill: #262626" transform="translate(987.317672 280.146547) scale(0.14 -0.14)">
      <use xlink:href="#CMR17-74" transform="scale(0.996264)"/>
      <use xlink:href="#CMR17-3d" transform="translate(65.356734 0) scale(0.996264)"/>
      <use xlink:href="#CMR17-32" transform="translate(167.147489 0) scale(0.996264)"/>
      <use xlink:href="#CMR17-35" transform="translate(212.837966 0) scale(0.996264)"/>
      <use xlink:href="#CMR17-30" transform="translate(258.528443 0) scale(0.996264)"/>
      <use xlink:href="#CMR17-2e" transform="translate(304.21892 0) scale(0.996264)"/>
      <use xlink:href="#CMR17-30" transform="translate(329.089979 0) scale(0.996264)"/>
      <use xlink:href="#CMR17-30" transform="translate(374.780456 0) scale(0.996264)"/>
     </g>
    </g>
    <g id="line2d_48">
     <path d="M 948.117672 294.758576 
L 962.117672 294.758576 
L 976.117672 294.758576 
" style="fill: none; stroke: #e7cb94; stroke-width: 2; stroke-linecap: round"/>
    </g>
    <g id="text_24">
     <!-- t = 500.00 -->
     <g style="fill: #262626" transform="translate(987.317672 299.658576) scale(0.14 -0.14)">
      <use xlink:href="#CMR17-74" transform="scale(0.996264)"/>
      <use xlink:href="#CMR17-3d" transform="translate(65.356734 0) scale(0.996264)"/>
      <use xlink:href="#CMR17-35" transform="translate(167.147489 0) scale(0.996264)"/>
      <use xlink:href="#CMR17-30" transform="translate(212.837966 0) scale(0.996264)"/>
      <use xlink:href="#CMR17-30" transform="translate(258.528443 0) scale(0.996264)"/>
      <use xlink:href="#CMR17-2e" transform="translate(304.21892 0) scale(0.996264)"/>
      <use xlink:href="#CMR17-30" transform="translate(329.089979 0) scale(0.996264)"/>
      <use xlink:href="#CMR17-30" transform="translate(374.780456 0) scale(0.996264)"/>
     </g>
    </g>
    <g id="line2d_49">
     <path d="M 948.117672 314.270604 
L 962.117672 314.270604 
L 976.117672 314.270604 
" style="fill: none; stroke: #ad494a; stroke-width: 2; stroke-linecap: round"/>
    </g>
    <g id="text_25">
     <!-- t = 750.00 -->
     <g style="fill: #262626" transform="translate(987.317672 319.170604) scale(0.14 -0.14)">
      <use xlink:href="#CMR17-74" transform="scale(0.996264)"/>
      <use xlink:href="#CMR17-3d" transform="translate(65.356734 0) scale(0.996264)"/>
      <use xlink:href="#CMR17-37" transform="translate(167.147489 0) scale(0.996264)"/>
      <use xlink:href="#CMR17-35" transform="translate(212.837966 0) scale(0.996264)"/>
      <use xlink:href="#CMR17-30" transform="translate(258.528443 0) scale(0.996264)"/>
      <use xlink:href="#CMR17-2e" transform="translate(304.21892 0) scale(0.996264)"/>
      <use xlink:href="#CMR17-30" transform="translate(329.089979 0) scale(0.996264)"/>
      <use xlink:href="#CMR17-30" transform="translate(374.780456 0) scale(0.996264)"/>
     </g>
    </g>
    <g id="line2d_50">
     <path d="M 948.117672 333.782633 
L 962.117672 333.782633 
L 976.117672 333.782633 
" style="fill: none; stroke: #e7969c; stroke-width: 2; stroke-linecap: round"/>
    </g>
    <g id="text_26">
     <!-- t = 1000.00 -->
     <g style="fill: #262626" transform="translate(987.317672 338.682633) scale(0.14 -0.14)">
      <use xlink:href="#CMR17-74" transform="scale(0.996264)"/>
      <use xlink:href="#CMR17-3d" transform="translate(65.356734 0) scale(0.996264)"/>
      <use xlink:href="#CMR17-31" transform="translate(167.147489 0) scale(0.996264)"/>
      <use xlink:href="#CMR17-30" transform="translate(212.837966 0) scale(0.996264)"/>
      <use xlink:href="#CMR17-30" transform="translate(258.528443 0) scale(0.996264)"/>
      <use xlink:href="#CMR17-30" transform="translate(304.21892 0) scale(0.996264)"/>
      <use xlink:href="#CMR17-2e" transform="translate(349.909397 0) scale(0.996264)"/>
      <use xlink:href="#CMR17-30" transform="translate(374.780456 0) scale(0.996264)"/>
      <use xlink:href="#CMR17-30" transform="translate(420.470933 0) scale(0.996264)"/>
     </g>
    </g>
    <g id="line2d_51">
     <path d="M 948.117672 353.294661 
L 962.117672 353.294661 
L 976.117672 353.294661 
" style="fill: none; stroke: #a55194; stroke-width: 2; stroke-linecap: round"/>
    </g>
    <g id="text_27">
     <!-- t = 1250.00 -->
     <g style="fill: #262626" transform="translate(987.317672 358.194661) scale(0.14 -0.14)">
      <use xlink:href="#CMR17-74" transform="scale(0.996264)"/>
      <use xlink:href="#CMR17-3d" transform="translate(65.356734 0) scale(0.996264)"/>
      <use xlink:href="#CMR17-31" transform="translate(167.147489 0) scale(0.996264)"/>
      <use xlink:href="#CMR17-32" transform="translate(212.837966 0) scale(0.996264)"/>
      <use xlink:href="#CMR17-35" transform="translate(258.528443 0) scale(0.996264)"/>
      <use xlink:href="#CMR17-30" transform="translate(304.21892 0) scale(0.996264)"/>
      <use xlink:href="#CMR17-2e" transform="translate(349.909397 0) scale(0.996264)"/>
      <use xlink:href="#CMR17-30" transform="translate(374.780456 0) scale(0.996264)"/>
      <use xlink:href="#CMR17-30" transform="translate(420.470933 0) scale(0.996264)"/>
     </g>
    </g>
    <g id="line2d_52">
     <path d="M 948.117672 372.806689 
L 962.117672 372.806689 
L 976.117672 372.806689 
" style="fill: none; stroke: #de9ed6; stroke-width: 2; stroke-linecap: round"/>
    </g>
    <g id="text_28">
     <!-- t = 1500.00 -->
     <g style="fill: #262626" transform="translate(987.317672 377.706689) scale(0.14 -0.14)">
      <use xlink:href="#CMR17-74" transform="scale(0.996264)"/>
      <use xlink:href="#CMR17-3d" transform="translate(65.356734 0) scale(0.996264)"/>
      <use xlink:href="#CMR17-31" transform="translate(167.147489 0) scale(0.996264)"/>
      <use xlink:href="#CMR17-35" transform="translate(212.837966 0) scale(0.996264)"/>
      <use xlink:href="#CMR17-30" transform="translate(258.528443 0) scale(0.996264)"/>
      <use xlink:href="#CMR17-30" transform="translate(304.21892 0) scale(0.996264)"/>
      <use xlink:href="#CMR17-2e" transform="translate(349.909397 0) scale(0.996264)"/>
      <use xlink:href="#CMR17-30" transform="translate(374.780456 0) scale(0.996264)"/>
      <use xlink:href="#CMR17-30" transform="translate(420.470933 0) scale(0.996264)"/>
     </g>
    </g>
   </g>
  </g>
  <g id="text_29">
   <!-- adhesivity -->
   <g style="fill: #262626" transform="translate(501.333696 24.803515) scale(0.192 -0.192)">
    <defs>
     <path id="CMR17-61" d="M 2304 1653 
C 2304 2072 2304 2294 2035 2543 
C 1798 2752 1523 2816 1306 2816 
C 800 2816 435 2407 435 1971 
C 435 1728 627 1728 666 1728 
C 749 1728 896 1778 896 1954 
C 896 2112 774 2181 666 2181 
C 640 2181 608 2174 589 2168 
C 723 2592 1069 2714 1293 2714 
C 1613 2714 1965 2429 1965 1885 
L 1965 1600 
C 1587 1600 1133 1549 774 1357 
C 371 1133 256 813 256 570 
C 256 77 832 -64 1171 -64 
C 1523 -64 1850 139 1990 511 
C 2003 233 2182 -18 2464 -18 
C 2598 -18 2938 70 2938 567 
L 2938 920 
L 2822 920 
L 2822 562 
C 2822 178 2650 128 2566 128 
C 2304 128 2304 458 2304 738 
L 2304 1653 
z
M 1965 870 
C 1965 317 1568 38 1216 38 
C 896 38 646 275 646 570 
C 646 761 730 1100 1101 1305 
C 1408 1478 1760 1504 1965 1504 
L 1965 870 
z
" transform="scale(0.015625)"/>
     <path id="CMR17-64" d="M 1869 4326 
L 1869 4160 
C 2246 4160 2304 4122 2304 3820 
L 2304 2345 
C 2278 2377 2016 2790 1498 2790 
C 845 2790 211 2208 211 1364 
C 211 525 806 -64 1434 -64 
C 1978 -64 2259 337 2291 380 
L 2291 -63 
L 3066 -63 
L 3066 128 
C 2688 128 2630 166 2630 473 
L 2630 4396 
L 1869 4326 
z
M 2291 755 
C 2291 563 2176 390 2029 262 
C 1811 70 1594 38 1472 38 
C 1286 38 621 134 621 1356 
C 621 2612 1363 2688 1530 2688 
C 1824 2688 2061 2522 2208 2291 
C 2291 2157 2291 2138 2291 2023 
L 2291 755 
z
" transform="scale(0.015625)"/>
     <path id="CMR17-68" d="M 2656 1933 
C 2656 2259 2592 2790 1837 2790 
C 1312 2790 1056 2368 979 2157 
L 973 2157 
L 973 4396 
L 211 4326 
L 211 4160 
C 589 4160 646 4122 646 3817 
L 646 426 
C 646 184 621 153 211 153 
L 211 -13 
C 365 0 646 0 813 0 
C 979 0 1267 0 1421 -13 
L 1421 153 
C 1011 153 986 178 986 428 
L 986 1658 
C 986 2247 1344 2688 1792 2688 
C 2266 2688 2317 2266 2317 1958 
L 2317 428 
C 2317 184 2291 153 1882 153 
L 1882 -13 
C 2035 0 2317 0 2483 0 
C 2650 0 2938 0 3091 -13 
L 3091 153 
C 2682 153 2656 178 2656 428 
L 2656 1933 
z
" transform="scale(0.015625)"/>
     <path id="CMR17-73" d="M 1978 2697 
C 1978 2813 1971 2819 1933 2819 
C 1907 2819 1901 2813 1824 2717 
C 1805 2691 1747 2626 1728 2601 
C 1523 2819 1235 2819 1126 2819 
C 416 2819 160 2447 160 2076 
C 160 1498 813 1365 998 1325 
C 1402 1243 1542 1217 1677 1101 
C 1760 1025 1901 884 1901 654 
C 1901 384 1747 38 1158 38 
C 602 38 403 460 288 1021 
C 269 1110 269 1117 218 1117 
C 166 1117 160 1110 160 983 
L 160 63 
C 160 -51 166 -58 205 -58 
C 237 -58 243 -51 275 0 
C 314 57 410 211 448 276 
C 576 103 800 -64 1158 -64 
C 1792 -64 2131 283 2131 784 
C 2131 1112 1958 1285 1875 1362 
C 1683 1561 1459 1606 1190 1657 
C 838 1735 390 1825 390 2217 
C 390 2383 480 2737 1126 2737 
C 1811 2737 1850 2094 1862 1888 
C 1869 1856 1901 1849 1920 1849 
C 1978 1849 1978 1869 1978 1978 
L 1978 2697 
z
" transform="scale(0.015625)"/>
     <path id="CMR17-76" d="M 2502 2163 
C 2560 2304 2662 2560 3034 2560 
L 3034 2726 
C 2912 2726 2752 2726 2630 2726 
C 2496 2726 2285 2726 2157 2732 
L 2157 2566 
C 2317 2553 2406 2477 2406 2311 
C 2406 2253 2406 2240 2368 2151 
L 1664 377 
L 902 2286 
C 864 2369 864 2381 864 2407 
C 864 2560 1075 2560 1171 2560 
L 1171 2732 
C 1018 2726 736 2726 576 2726 
C 403 2726 205 2726 64 2732 
L 64 2560 
C 307 2560 442 2560 518 2362 
L 1446 44 
C 1485 -51 1491 -64 1549 -64 
C 1606 -64 1613 -51 1651 44 
L 2502 2163 
z
" transform="scale(0.015625)"/>
     <path id="CMR17-79" d="M 2496 2197 
C 2656 2586 2944 2586 3034 2586 
L 3034 2752 
C 2912 2752 2752 2752 2630 2752 
C 2496 2752 2285 2752 2157 2758 
L 2157 2592 
C 2400 2573 2406 2394 2406 2343 
C 2406 2280 2394 2248 2362 2171 
L 1664 449 
L 902 2306 
C 870 2382 870 2426 870 2433 
C 870 2573 1018 2586 1171 2586 
L 1171 2758 
C 1018 2752 742 2752 582 2752 
C 410 2752 205 2752 64 2758 
L 64 2586 
C 410 2586 448 2554 531 2350 
L 1485 15 
C 1197 -738 1030 -1178 627 -1178 
C 557 -1178 397 -1159 282 -1044 
C 429 -1031 493 -942 493 -833 
C 493 -725 416 -629 288 -629 
C 147 -629 77 -725 77 -840 
C 77 -1095 339 -1280 627 -1280 
C 998 -1280 1229 -922 1357 -604 
L 2496 2197 
z
" transform="scale(0.015625)"/>
    </defs>
    <use xlink:href="#CMR17-61" transform="scale(0.996264)"/>
    <use xlink:href="#CMR17-64" transform="translate(45.690477 0) scale(0.996264)"/>
    <use xlink:href="#CMR17-68" transform="translate(96.585847 0) scale(0.996264)"/>
    <use xlink:href="#CMR17-65" transform="translate(147.481217 0) scale(0.996264)"/>
    <use xlink:href="#CMR17-73" transform="translate(187.966877 0) scale(0.996264)"/>
    <use xlink:href="#CMR17-69" transform="translate(223.768215 0) scale(0.996264)"/>
    <use xlink:href="#CMR17-76" transform="translate(248.639273 0) scale(0.996264)"/>
    <use xlink:href="#CMR17-69" transform="translate(296.932189 0) scale(0.996264)"/>
    <use xlink:href="#CMR17-74" transform="translate(321.803248 0) scale(0.996264)"/>
    <use xlink:href="#CMR17-79" transform="translate(354.481561 0) scale(0.996264)"/>
   </g>
  </g>
 </g>
 <defs>
  <clipPath id="p1f3185478e">
   <rect x="41.730582" y="51.564121" width="893.78709" height="469.58891"/>
  </clipPath>
 </defs>
</svg>
