<?xml version="1.0" encoding="utf-8" standalone="no"?>
<!DOCTYPE svg PUBLIC "-//W3C//DTD SVG 1.1//EN"
  "http://www.w3.org/Graphics/SVG/1.1/DTD/svg11.dtd">
<svg xmlns:xlink="http://www.w3.org/1999/xlink" width="1080pt" height="756pt" viewBox="0 0 1080 756" xmlns="http://www.w3.org/2000/svg" version="1.1">
 <metadata>
  <rdf:RDF xmlns:dc="http://purl.org/dc/elements/1.1/" xmlns:cc="http://creativecommons.org/ns#" xmlns:rdf="http://www.w3.org/1999/02/22-rdf-syntax-ns#">
   <cc:Work>
    <dc:type rdf:resource="http://purl.org/dc/dcmitype/StillImage"/>
    <dc:date>2024-07-30T20:14:24.271198</dc:date>
    <dc:format>image/svg+xml</dc:format>
    <dc:creator>
     <cc:Agent>
      <dc:title>Matplotlib v3.9.0, https://matplotlib.org/</dc:title>
     </cc:Agent>
    </dc:creator>
   </cc:Work>
  </rdf:RDF>
 </metadata>
 <defs>
  <style type="text/css">*{stroke-linejoin: round; stroke-linecap: butt}</style>
 </defs>
 <g id="figure_1">
  <g id="patch_1">
   <path d="M 0 756 
L 1080 756 
L 1080 0 
L 0 0 
z
" style="fill: #ffffff"/>
  </g>
  <g id="axes_1">
   <g id="patch_2">
    <path d="M 88.532127 678.237256 
L 1041.12 678.237256 
L 1041.12 38.88 
L 88.532127 38.88 
z
" style="fill: #ffffff"/>
   </g>
   <g id="matplotlib.axis_1">
    <g id="xtick_1">
     <g id="line2d_1">
      <defs>
       <path id="mb6e4d8b88f" d="M 0 0 
L 0 3.5 
" style="stroke: #262626; stroke-width: 0.8"/>
      </defs>
      <g>
       <use xlink:href="#mb6e4d8b88f" x="131.831576" y="678.237256" style="fill: #262626; stroke: #262626; stroke-width: 0.8"/>
      </g>
     </g>
     <g id="text_1">
      <!-- $\mathdefault{0.0}$ -->
      <g style="fill: #262626" transform="translate(110.505512 710.143856) scale(0.36 -0.36)">
       <defs>
        <path id="CMR17-30" d="M 2688 2025 
C 2688 2416 2682 3080 2413 3591 
C 2176 4039 1798 4198 1466 4198 
C 1158 4198 768 4058 525 3597 
C 269 3118 243 2524 243 2025 
C 243 1661 250 1106 448 619 
C 723 -39 1216 -128 1466 -128 
C 1760 -128 2208 -7 2470 600 
C 2662 1042 2688 1559 2688 2025 
z
M 1466 -26 
C 1056 -26 813 325 723 812 
C 653 1188 653 1738 653 2096 
C 653 2588 653 2997 736 3387 
C 858 3929 1216 4096 1466 4096 
C 1728 4096 2067 3923 2189 3400 
C 2272 3036 2278 2607 2278 2096 
C 2278 1680 2278 1169 2202 792 
C 2067 95 1690 -26 1466 -26 
z
" transform="scale(0.015625)"/>
        <path id="CMMI12-3a" d="M 1178 307 
C 1178 492 1024 619 870 619 
C 685 619 557 466 557 313 
C 557 128 710 0 864 0 
C 1050 0 1178 153 1178 307 
z
" transform="scale(0.015625)"/>
       </defs>
       <use xlink:href="#CMR17-30" transform="scale(0.996264)"/>
       <use xlink:href="#CMMI12-3a" transform="translate(45.690477 0) scale(0.996264)"/>
       <use xlink:href="#CMR17-30" transform="translate(72.787654 0) scale(0.996264)"/>
      </g>
     </g>
    </g>
    <g id="xtick_2">
     <g id="line2d_2">
      <g>
       <use xlink:href="#mb6e4d8b88f" x="305.029371" y="678.237256" style="fill: #262626; stroke: #262626; stroke-width: 0.8"/>
      </g>
     </g>
     <g id="text_2">
      <!-- $\mathdefault{0.2}$ -->
      <g style="fill: #262626" transform="translate(283.703307 710.143856) scale(0.36 -0.36)">
       <defs>
        <path id="CMR17-32" d="M 2669 989 
L 2554 989 
C 2490 536 2438 459 2413 420 
C 2381 369 1920 369 1830 369 
L 602 369 
C 832 619 1280 1072 1824 1597 
C 2214 1967 2669 2402 2669 3035 
C 2669 3790 2067 4224 1395 4224 
C 691 4224 262 3604 262 3030 
C 262 2780 448 2748 525 2748 
C 589 2748 781 2787 781 3010 
C 781 3207 614 3264 525 3264 
C 486 3264 448 3258 422 3245 
C 544 3790 915 4058 1306 4058 
C 1862 4058 2227 3617 2227 3035 
C 2227 2479 1901 2000 1536 1584 
L 262 146 
L 262 0 
L 2515 0 
L 2669 989 
z
" transform="scale(0.015625)"/>
       </defs>
       <use xlink:href="#CMR17-30" transform="scale(0.996264)"/>
       <use xlink:href="#CMMI12-3a" transform="translate(45.690477 0) scale(0.996264)"/>
       <use xlink:href="#CMR17-32" transform="translate(72.787654 0) scale(0.996264)"/>
      </g>
     </g>
    </g>
    <g id="xtick_3">
     <g id="line2d_3">
      <g>
       <use xlink:href="#mb6e4d8b88f" x="478.227166" y="678.237256" style="fill: #262626; stroke: #262626; stroke-width: 0.8"/>
      </g>
     </g>
     <g id="text_3">
      <!-- $\mathdefault{0.4}$ -->
      <g style="fill: #262626" transform="translate(456.901102 710.143856) scale(0.36 -0.36)">
       <defs>
        <path id="CMR17-34" d="M 2150 4122 
C 2150 4256 2144 4256 2029 4256 
L 128 1254 
L 128 1088 
L 1779 1088 
L 1779 457 
C 1779 224 1766 160 1318 160 
L 1197 160 
L 1197 0 
C 1402 0 1747 0 1965 0 
C 2182 0 2528 0 2733 0 
L 2733 160 
L 2611 160 
C 2163 160 2150 224 2150 457 
L 2150 1088 
L 2803 1088 
L 2803 1254 
L 2150 1254 
L 2150 4122 
z
M 1798 3703 
L 1798 1254 
L 256 1254 
L 1798 3703 
z
" transform="scale(0.015625)"/>
       </defs>
       <use xlink:href="#CMR17-30" transform="scale(0.996264)"/>
       <use xlink:href="#CMMI12-3a" transform="translate(45.690477 0) scale(0.996264)"/>
       <use xlink:href="#CMR17-34" transform="translate(72.787654 0) scale(0.996264)"/>
      </g>
     </g>
    </g>
    <g id="xtick_4">
     <g id="line2d_4">
      <g>
       <use xlink:href="#mb6e4d8b88f" x="651.424961" y="678.237256" style="fill: #262626; stroke: #262626; stroke-width: 0.8"/>
      </g>
     </g>
     <g id="text_4">
      <!-- $\mathdefault{0.6}$ -->
      <g style="fill: #262626" transform="translate(630.098898 710.143856) scale(0.36 -0.36)">
       <defs>
        <path id="CMR17-36" d="M 678 2176 
C 678 3690 1395 4032 1811 4032 
C 1946 4032 2272 4009 2400 3776 
C 2298 3776 2106 3776 2106 3553 
C 2106 3381 2246 3323 2336 3323 
C 2394 3323 2566 3348 2566 3560 
C 2566 3954 2246 4179 1805 4179 
C 1043 4179 243 3390 243 1984 
C 243 253 966 -128 1478 -128 
C 2099 -128 2688 427 2688 1283 
C 2688 2081 2170 2662 1517 2662 
C 1126 2662 838 2407 678 1960 
L 678 2176 
z
M 1478 25 
C 691 25 691 1200 691 1436 
C 691 1896 909 2560 1504 2560 
C 1613 2560 1926 2560 2138 2120 
C 2253 1870 2253 1609 2253 1289 
C 2253 944 2253 690 2118 434 
C 1978 171 1773 25 1478 25 
z
" transform="scale(0.015625)"/>
       </defs>
       <use xlink:href="#CMR17-30" transform="scale(0.996264)"/>
       <use xlink:href="#CMMI12-3a" transform="translate(45.690477 0) scale(0.996264)"/>
       <use xlink:href="#CMR17-36" transform="translate(72.787654 0) scale(0.996264)"/>
      </g>
     </g>
    </g>
    <g id="xtick_5">
     <g id="line2d_5">
      <g>
       <use xlink:href="#mb6e4d8b88f" x="824.622756" y="678.237256" style="fill: #262626; stroke: #262626; stroke-width: 0.8"/>
      </g>
     </g>
     <g id="text_5">
      <!-- $\mathdefault{0.8}$ -->
      <g style="fill: #262626" transform="translate(803.296693 710.143856) scale(0.36 -0.36)">
       <defs>
        <path id="CMR17-38" d="M 1741 2264 
C 2144 2467 2554 2773 2554 3263 
C 2554 3841 1990 4179 1472 4179 
C 890 4179 378 3759 378 3180 
C 378 3021 416 2747 666 2505 
C 730 2442 998 2251 1171 2130 
C 883 1983 211 1634 211 934 
C 211 279 838 -128 1459 -128 
C 2144 -128 2720 362 2720 1010 
C 2720 1590 2330 1857 2074 2029 
L 1741 2264 
z
M 902 2822 
C 851 2854 595 3051 595 3351 
C 595 3739 998 4032 1459 4032 
C 1965 4032 2336 3676 2336 3262 
C 2336 2669 1670 2331 1638 2331 
C 1632 2331 1626 2331 1574 2370 
L 902 2822 
z
M 2080 1519 
C 2176 1449 2483 1240 2483 851 
C 2483 381 2010 25 1472 25 
C 890 25 448 438 448 940 
C 448 1443 838 1862 1280 2060 
L 2080 1519 
z
" transform="scale(0.015625)"/>
       </defs>
       <use xlink:href="#CMR17-30" transform="scale(0.996264)"/>
       <use xlink:href="#CMMI12-3a" transform="translate(45.690477 0) scale(0.996264)"/>
       <use xlink:href="#CMR17-38" transform="translate(72.787654 0) scale(0.996264)"/>
      </g>
     </g>
    </g>
    <g id="xtick_6">
     <g id="line2d_6">
      <g>
       <use xlink:href="#mb6e4d8b88f" x="997.820551" y="678.237256" style="fill: #262626; stroke: #262626; stroke-width: 0.8"/>
      </g>
     </g>
     <g id="text_6">
      <!-- $\mathdefault{1.0}$ -->
      <g style="fill: #262626" transform="translate(976.494488 710.143856) scale(0.36 -0.36)">
       <defs>
        <path id="CMR17-31" d="M 1702 4058 
C 1702 4192 1696 4192 1606 4192 
C 1357 3916 979 3827 621 3827 
C 602 3827 570 3827 563 3808 
C 557 3795 557 3782 557 3648 
C 755 3648 1088 3686 1344 3839 
L 1344 461 
C 1344 236 1331 160 781 160 
L 589 160 
L 589 0 
C 896 0 1216 0 1523 0 
C 1830 0 2150 0 2458 0 
L 2458 160 
L 2266 160 
C 1715 160 1702 230 1702 458 
L 1702 4058 
z
" transform="scale(0.015625)"/>
       </defs>
       <use xlink:href="#CMR17-31" transform="scale(0.996264)"/>
       <use xlink:href="#CMMI12-3a" transform="translate(45.690477 0) scale(0.996264)"/>
       <use xlink:href="#CMR17-30" transform="translate(72.787654 0) scale(0.996264)"/>
      </g>
     </g>
    </g>
   </g>
   <g id="matplotlib.axis_2">
    <g id="ytick_1">
     <g id="line2d_7">
      <defs>
       <path id="m5694f1636a" d="M 0 0 
L -3.5 0 
" style="stroke: #262626; stroke-width: 0.8"/>
      </defs>
      <g>
       <use xlink:href="#m5694f1636a" x="88.532127" y="612.326075" style="fill: #262626; stroke: #262626; stroke-width: 0.8"/>
      </g>
     </g>
     <g id="text_7">
      <!-- $\mathdefault{0.0}$ -->
      <g style="fill: #262626" transform="translate(38.88 624.779375) scale(0.36 -0.36)">
       <use xlink:href="#CMR17-30" transform="scale(0.996264)"/>
       <use xlink:href="#CMMI12-3a" transform="translate(45.690477 0) scale(0.996264)"/>
       <use xlink:href="#CMR17-30" transform="translate(72.787654 0) scale(0.996264)"/>
      </g>
     </g>
    </g>
    <g id="ytick_2">
     <g id="line2d_8">
      <g>
       <use xlink:href="#m5694f1636a" x="88.532127" y="503.449199" style="fill: #262626; stroke: #262626; stroke-width: 0.8"/>
      </g>
     </g>
     <g id="text_8">
      <!-- $\mathdefault{0.2}$ -->
      <g style="fill: #262626" transform="translate(38.88 515.902499) scale(0.36 -0.36)">
       <use xlink:href="#CMR17-30" transform="scale(0.996264)"/>
       <use xlink:href="#CMMI12-3a" transform="translate(45.690477 0) scale(0.996264)"/>
       <use xlink:href="#CMR17-32" transform="translate(72.787654 0) scale(0.996264)"/>
      </g>
     </g>
    </g>
    <g id="ytick_3">
     <g id="line2d_9">
      <g>
       <use xlink:href="#m5694f1636a" x="88.532127" y="394.572322" style="fill: #262626; stroke: #262626; stroke-width: 0.8"/>
      </g>
     </g>
     <g id="text_9">
      <!-- $\mathdefault{0.4}$ -->
      <g style="fill: #262626" transform="translate(38.88 407.025622) scale(0.36 -0.36)">
       <use xlink:href="#CMR17-30" transform="scale(0.996264)"/>
       <use xlink:href="#CMMI12-3a" transform="translate(45.690477 0) scale(0.996264)"/>
       <use xlink:href="#CMR17-34" transform="translate(72.787654 0) scale(0.996264)"/>
      </g>
     </g>
    </g>
    <g id="ytick_4">
     <g id="line2d_10">
      <g>
       <use xlink:href="#m5694f1636a" x="88.532127" y="285.695446" style="fill: #262626; stroke: #262626; stroke-width: 0.8"/>
      </g>
     </g>
     <g id="text_10">
      <!-- $\mathdefault{0.6}$ -->
      <g style="fill: #262626" transform="translate(38.88 298.148746) scale(0.36 -0.36)">
       <use xlink:href="#CMR17-30" transform="scale(0.996264)"/>
       <use xlink:href="#CMMI12-3a" transform="translate(45.690477 0) scale(0.996264)"/>
       <use xlink:href="#CMR17-36" transform="translate(72.787654 0) scale(0.996264)"/>
      </g>
     </g>
    </g>
    <g id="ytick_5">
     <g id="line2d_11">
      <g>
       <use xlink:href="#m5694f1636a" x="88.532127" y="176.81857" style="fill: #262626; stroke: #262626; stroke-width: 0.8"/>
      </g>
     </g>
     <g id="text_11">
      <!-- $\mathdefault{0.8}$ -->
      <g style="fill: #262626" transform="translate(38.88 189.27187) scale(0.36 -0.36)">
       <use xlink:href="#CMR17-30" transform="scale(0.996264)"/>
       <use xlink:href="#CMMI12-3a" transform="translate(45.690477 0) scale(0.996264)"/>
       <use xlink:href="#CMR17-38" transform="translate(72.787654 0) scale(0.996264)"/>
      </g>
     </g>
    </g>
    <g id="ytick_6">
     <g id="line2d_12">
      <g>
       <use xlink:href="#m5694f1636a" x="88.532127" y="67.941693" style="fill: #262626; stroke: #262626; stroke-width: 0.8"/>
      </g>
     </g>
     <g id="text_12">
      <!-- $\mathdefault{1.0}$ -->
      <g style="fill: #262626" transform="translate(38.88 80.394994) scale(0.36 -0.36)">
       <use xlink:href="#CMR17-31" transform="scale(0.996264)"/>
       <use xlink:href="#CMMI12-3a" transform="translate(45.690477 0) scale(0.996264)"/>
       <use xlink:href="#CMR17-30" transform="translate(72.787654 0) scale(0.996264)"/>
      </g>
     </g>
    </g>
   </g>
   <g id="line2d_13">
    <path d="M 131.831576 67.941693 
L 997.820551 67.941693 
L 997.820551 67.941693 
" clip-path="url(#p63a90625a0)" style="fill: none; stroke: #1f77b4; stroke-width: 5; stroke-linecap: round"/>
   </g>
   <g id="line2d_14">
    <path d="M 131.831576 442.600367 
L 178.017655 425.42582 
L 218.430474 410.662725 
L 253.070033 398.242743 
L 287.709592 386.06479 
L 322.349151 374.148213 
L 351.21545 364.429058 
L 380.081749 354.910356 
L 408.948048 345.598214 
L 437.814347 336.497836 
L 466.680646 327.613438 
L 495.546946 318.945836 
L 524.413245 310.49854 
L 553.279544 302.271233 
L 582.145843 294.263308 
L 611.012142 286.476404 
L 639.878441 278.907043 
L 668.744741 271.554302 
L 697.61104 264.416725 
L 726.477339 257.491026 
L 755.343638 250.773631 
L 784.209937 244.262778 
L 813.076237 237.953369 
L 841.942536 231.843639 
L 870.808835 225.927873 
L 899.675134 220.20152 
L 928.541433 214.661435 
L 963.180992 208.254234 
L 997.820551 202.101203 
L 997.820551 202.101203 
" clip-path="url(#p63a90625a0)" style="fill: none; stroke: #ff7f0e; stroke-width: 5; stroke-linecap: round"/>
   </g>
   <g id="line2d_15">
    <path d="M 131.831576 557.616226 
L 154.924615 549.915644 
L 178.017655 541.978889 
L 206.883954 531.781133 
L 235.750253 521.336132 
L 270.389812 508.558767 
L 316.575891 491.255142 
L 460.907387 436.963329 
L 501.320205 422.073904 
L 541.733024 407.438364 
L 576.372583 395.130473 
L 611.012142 383.066086 
L 645.651701 371.265066 
L 674.518 361.641961 
L 703.3843 352.219851 
L 732.250599 343.004788 
L 761.116898 333.999346 
L 789.983197 325.209302 
L 818.849496 316.634975 
L 847.715796 308.27945 
L 876.582095 300.142056 
L 905.448394 292.224602 
L 934.314693 284.523274 
L 963.180992 277.039374 
L 992.047291 269.768366 
L 997.820551 268.34003 
L 997.820551 268.34003 
" clip-path="url(#p63a90625a0)" style="fill: none; stroke: #2ca02c; stroke-width: 5; stroke-linecap: round"/>
   </g>
   <g id="line2d_16">
    <path d="M 131.831576 594.994894 
L 149.151356 590.995515 
L 166.471135 586.693597 
L 183.790915 582.114557 
L 201.110694 577.282458 
L 218.430474 572.220015 
L 235.750253 566.948664 
L 253.070033 561.488725 
L 276.163072 553.948101 
L 299.256111 546.148027 
L 322.349151 538.12743 
L 351.21545 527.845574 
L 380.081749 517.338438 
L 420.494568 502.357497 
L 478.227166 480.650345 
L 570.599323 445.892812 
L 616.785402 428.770819 
L 657.198221 414.031876 
L 691.83778 401.619295 
L 726.477339 389.438299 
L 761.116898 377.508949 
L 795.756457 365.850018 
L 824.622756 356.350758 
L 853.489055 347.054517 
L 882.355355 337.967169 
L 911.221654 329.092207 
L 940.087953 320.432261 
L 968.954252 311.990547 
L 997.820551 303.765714 
L 997.820551 303.765714 
" clip-path="url(#p63a90625a0)" style="fill: none; stroke: #d62728; stroke-width: 5; stroke-linecap: round"/>
   </g>
   <g id="line2d_17">
    <path d="M 131.831576 607.077808 
L 143.378096 605.43143 
L 154.924615 603.594654 
L 166.471135 601.577163 
L 178.017655 599.388145 
L 189.564174 597.036649 
L 206.883954 593.223525 
L 224.203733 589.092109 
L 241.523513 584.668869 
L 258.843292 579.978816 
L 276.163072 575.045614 
L 293.482851 569.891474 
L 310.802631 564.537452 
L 333.89567 557.121741 
L 356.98871 549.429453 
L 380.081749 541.500713 
L 408.948048 531.313548 
L 437.814347 520.880518 
L 472.453906 508.119416 
L 518.639985 490.841185 
L 657.198221 438.787322 
L 697.61104 423.895758 
L 738.023859 409.251291 
L 772.663418 396.931071 
L 807.302977 384.849919 
L 841.942536 373.028672 
L 870.808835 363.387597 
L 899.675134 353.944591 
L 928.541433 344.705936 
L 957.407732 335.677498 
L 986.274032 326.861613 
L 997.820551 323.395826 
L 997.820551 323.395826 
" clip-path="url(#p63a90625a0)" style="fill: none; stroke: #9467bd; stroke-width: 5; stroke-linecap: round"/>
   </g>
   <g id="line2d_18">
    <path d="M 131.831576 611.949685 
L 137.604836 610.868642 
L 143.378096 609.98819 
L 154.924615 608.631927 
L 166.471135 607.209593 
L 178.017655 605.585325 
L 189.564174 603.769246 
L 201.110694 601.771053 
L 212.657214 599.600172 
L 224.203733 597.265692 
L 241.523513 593.476242 
L 258.843292 589.366496 
L 276.163072 584.963191 
L 293.482851 580.291403 
L 310.802631 575.37495 
L 328.12241 570.236124 
L 345.44219 564.896209 
L 368.535229 557.497439 
L 391.628269 549.819995 
L 414.721308 541.904344 
L 443.587607 531.731083 
L 472.453906 521.309716 
L 507.093465 508.55958 
L 553.279544 491.29162 
L 697.61104 437.104915 
L 738.023859 422.242896 
L 778.436678 407.632636 
L 813.076237 395.345895 
L 847.715796 383.300932 
L 882.355355 371.517137 
L 911.221654 361.908438 
L 940.087953 352.499552 
L 968.954252 343.29621 
L 997.820551 334.302563 
L 997.820551 334.302563 
" clip-path="url(#p63a90625a0)" style="fill: none; stroke: #8c564b; stroke-width: 5; stroke-linecap: round"/>
   </g>
   <g id="line2d_19">
    <path d="M 131.831576 618.057624 
L 137.604836 615.831065 
L 143.378096 614.027749 
L 149.151356 612.564469 
L 154.924615 611.372094 
L 160.697875 610.399497 
L 166.471135 609.604922 
L 183.790915 607.580093 
L 195.337434 606.006203 
L 206.883954 604.237928 
L 218.430474 602.285107 
L 229.976993 600.157255 
L 241.523513 597.863615 
L 258.843292 594.131397 
L 276.163072 590.074413 
L 293.482851 585.719487 
L 310.802631 581.092092 
L 328.12241 576.216141 
L 345.44219 571.114362 
L 362.761969 565.80793 
L 385.855009 558.448947 
L 408.948048 550.805991 
L 432.041087 542.919957 
L 460.907387 532.777445 
L 489.773686 522.380391 
L 524.413245 509.652072 
L 570.599323 492.401896 
L 720.704079 436.070271 
L 761.116898 421.226034 
L 801.529717 406.637851 
L 836.169276 394.371248 
L 870.808835 382.348729 
L 905.448394 370.588503 
L 934.314693 361.00022 
L 963.180992 351.612344 
L 992.047291 342.429908 
L 997.820551 340.619341 
L 997.820551 340.619341 
" clip-path="url(#p63a90625a0)" style="fill: none; stroke: #e377c2; stroke-width: 5; stroke-linecap: round"/>
   </g>
   <g id="line2d_20">
    <path d="M 131.831576 625.169347 
L 137.604836 621.583602 
L 143.378096 618.689932 
L 149.151356 616.350289 
L 154.924615 614.450639 
L 160.697875 612.906624 
L 166.471135 611.649563 
L 172.244395 610.624907 
L 178.017655 609.788689 
L 201.110694 607.015432 
L 212.657214 605.368121 
L 224.203733 603.530041 
L 235.750253 601.510928 
L 247.296773 599.320235 
L 258.843292 596.967009 
L 276.163072 593.151505 
L 293.482851 589.018007 
L 310.802631 584.593112 
L 328.12241 579.901825 
L 345.44219 574.967912 
L 362.761969 569.813484 
L 380.081749 564.459666 
L 403.174788 557.044945 
L 426.267828 549.354118 
L 449.360867 541.427509 
L 478.227166 531.243796 
L 507.093465 520.814787 
L 541.733024 508.059303 
L 587.919103 490.789451 
L 726.477339 438.762998 
L 766.890158 423.879445 
L 807.302977 409.242741 
L 841.942536 396.929107 
L 876.582095 384.854139 
L 911.221654 373.038771 
L 945.861213 361.498207 
L 974.727512 352.100249 
L 997.820551 344.729508 
L 997.820551 344.729508 
" clip-path="url(#p63a90625a0)" style="fill: none; stroke: #7f7f7f; stroke-width: 5; stroke-linecap: round"/>
   </g>
   <g id="line2d_21">
    <path d="M 131.831576 632.845529 
L 137.604836 627.773563 
L 143.378096 623.691269 
L 149.151356 620.399176 
L 154.924615 617.733185 
L 160.697875 615.571908 
L 166.471135 613.81684 
L 172.244395 612.389844 
L 178.017655 611.227826 
L 183.790915 610.282008 
L 189.564174 609.509678 
L 206.883954 607.482392 
L 218.430474 605.895986 
L 229.976993 604.115657 
L 241.523513 602.151357 
L 253.070033 600.012575 
L 264.616552 597.708468 
L 281.936332 593.961697 
L 299.256111 589.891332 
L 316.575891 585.524255 
L 333.89567 580.88582 
L 351.21545 576.000009 
L 368.535229 570.889324 
L 385.855009 565.574974 
L 408.948048 558.206803 
L 432.041087 550.556189 
L 455.134127 542.663883 
L 484.000426 532.515161 
L 512.866725 522.113747 
L 547.506284 509.382236 
L 593.692363 492.130683 
L 743.797119 435.811125 
L 784.209937 420.973259 
L 824.622756 406.391867 
L 859.262315 394.131409 
L 893.901874 382.115453 
L 928.541433 370.363101 
L 957.407732 360.780282 
L 986.274032 351.398353 
L 997.820551 347.703198 
L 997.820551 347.703198 
" clip-path="url(#p63a90625a0)" style="fill: none; stroke: #bcbd22; stroke-width: 5; stroke-linecap: round"/>
   </g>
   <g id="line2d_22">
    <path d="M 131.831576 640.883181 
L 137.604836 634.239867 
L 143.378096 628.903778 
L 149.151356 624.609317 
L 154.924615 621.138678 
L 160.697875 618.330761 
L 166.471135 616.055156 
L 172.244395 614.208586 
L 178.017655 612.70787 
L 183.790915 611.488922 
L 189.564174 610.495744 
L 195.337434 609.68355 
L 212.657214 607.662175 
L 224.203733 606.100271 
L 235.750253 604.343194 
L 247.296773 602.400924 
L 258.843292 600.283028 
L 270.389812 597.998784 
L 281.936332 595.556997 
L 299.256111 591.617681 
L 316.575891 587.370715 
L 333.89567 582.842075 
L 351.21545 578.056317 
L 368.535229 573.036517 
L 385.855009 567.804437 
L 403.174788 562.380604 
L 426.267828 554.883642 
L 449.360867 547.122536 
L 472.453906 539.136594 
L 501.320205 528.892569 
L 530.186505 518.417442 
L 564.826064 505.62288 
L 616.785402 486.152347 
L 732.250599 442.768966 
L 778.436678 425.714023 
L 818.849496 411.045762 
L 853.489055 398.700354 
L 888.128614 386.590698 
L 922.768173 374.737757 
L 957.407732 363.157893 
L 986.274032 353.725702 
L 997.820551 350.009768 
L 997.820551 350.009768 
" clip-path="url(#p63a90625a0)" style="fill: none; stroke: #17becf; stroke-width: 5; stroke-linecap: round"/>
   </g>
   <g id="line2d_23">
    <path d="M 131.831576 649.175563 
L 137.604836 640.89866 
L 143.378096 634.261521 
L 149.151356 628.928819 
L 154.924615 624.626267 
L 160.697875 621.151017 
L 166.471135 618.339188 
L 172.244395 616.061165 
L 178.017655 614.212737 
L 183.790915 612.713937 
L 189.564174 611.495231 
L 195.337434 610.499297 
L 201.110694 609.687144 
L 218.430474 607.665775 
L 229.976993 606.104437 
L 241.523513 604.347958 
L 253.070033 602.40625 
L 264.616552 600.288875 
L 276.163072 598.005141 
L 287.709592 595.563871 
L 305.029371 591.625315 
L 322.349151 587.37907 
L 339.66893 582.851145 
L 356.98871 578.066048 
L 374.308489 573.046876 
L 391.628269 567.815411 
L 408.948048 562.392167 
L 432.041087 554.896023 
L 455.134127 547.135664 
L 478.227166 539.150348 
L 507.093465 528.907098 
L 535.959764 518.432795 
L 570.599323 505.638967 
L 622.558662 486.169431 
L 738.023859 442.787633 
L 784.209937 425.733114 
L 824.622756 411.065053 
L 859.262315 398.719909 
L 893.901874 386.610368 
L 928.541433 374.757463 
L 963.180992 363.177572 
L 992.047291 353.745385 
L 997.820551 351.8838 
L 997.820551 351.8838 
" clip-path="url(#p63a90625a0)" style="fill: none; stroke: #17becf; stroke-width: 5; stroke-linecap: round"/>
   </g>
   <g id="patch_3">
    <path d="M 88.532127 678.237256 
L 88.532127 38.88 
" style="fill: none; stroke: #262626; stroke-width: 0.8; stroke-linejoin: miter; stroke-linecap: square"/>
   </g>
   <g id="patch_4">
    <path d="M 88.532127 678.237256 
L 1041.12 678.237256 
" style="fill: none; stroke: #262626; stroke-width: 0.8; stroke-linejoin: miter; stroke-linecap: square"/>
   </g>
  </g>
 </g>
 <defs>
  <clipPath id="p63a90625a0">
   <rect x="88.532127" y="38.88" width="952.587873" height="639.357256"/>
  </clipPath>
 </defs>
</svg>
