<?xml version="1.0" encoding="utf-8" standalone="no"?>
<!DOCTYPE svg PUBLIC "-//W3C//DTD SVG 1.1//EN"
  "http://www.w3.org/Graphics/SVG/1.1/DTD/svg11.dtd">
<svg xmlns:xlink="http://www.w3.org/1999/xlink" width="1080pt" height="756pt" viewBox="0 0 1080 756" xmlns="http://www.w3.org/2000/svg" version="1.1">
 <metadata>
  <rdf:RDF xmlns:dc="http://purl.org/dc/elements/1.1/" xmlns:cc="http://creativecommons.org/ns#" xmlns:rdf="http://www.w3.org/1999/02/22-rdf-syntax-ns#">
   <cc:Work>
    <dc:type rdf:resource="http://purl.org/dc/dcmitype/StillImage"/>
    <dc:date>2024-07-31T14:20:21.075342</dc:date>
    <dc:format>image/svg+xml</dc:format>
    <dc:creator>
     <cc:Agent>
      <dc:title>Matplotlib v3.9.0, https://matplotlib.org/</dc:title>
     </cc:Agent>
    </dc:creator>
   </cc:Work>
  </rdf:RDF>
 </metadata>
 <defs>
  <style type="text/css">*{stroke-linejoin: round; stroke-linecap: butt}</style>
 </defs>
 <g id="figure_1">
  <g id="patch_1">
   <path d="M 0 756 
L 1080 756 
L 1080 0 
L 0 0 
z
" style="fill: #ffffff"/>
  </g>
  <g id="axes_1">
   <g id="patch_2">
    <path d="M 88.532127 678.237256 
L 1041.12 678.237256 
L 1041.12 38.88 
L 88.532127 38.88 
z
" style="fill: #ffffff"/>
   </g>
   <g id="matplotlib.axis_1">
    <g id="xtick_1">
     <g id="line2d_1">
      <defs>
       <path id="mbe16be01f4" d="M 0 0 
L 0 3.5 
" style="stroke: #262626; stroke-width: 0.8"/>
      </defs>
      <g>
       <use xlink:href="#mbe16be01f4" x="88.532127" y="678.237256" style="fill: #262626; stroke: #262626; stroke-width: 0.8"/>
      </g>
     </g>
     <g id="text_1">
      <!-- $\mathdefault{0.0}$ -->
      <g style="fill: #262626" transform="translate(67.206064 710.143856) scale(0.36 -0.36)">
       <defs>
        <path id="CMR17-30" d="M 2688 2025 
C 2688 2416 2682 3080 2413 3591 
C 2176 4039 1798 4198 1466 4198 
C 1158 4198 768 4058 525 3597 
C 269 3118 243 2524 243 2025 
C 243 1661 250 1106 448 619 
C 723 -39 1216 -128 1466 -128 
C 1760 -128 2208 -7 2470 600 
C 2662 1042 2688 1559 2688 2025 
z
M 1466 -26 
C 1056 -26 813 325 723 812 
C 653 1188 653 1738 653 2096 
C 653 2588 653 2997 736 3387 
C 858 3929 1216 4096 1466 4096 
C 1728 4096 2067 3923 2189 3400 
C 2272 3036 2278 2607 2278 2096 
C 2278 1680 2278 1169 2202 792 
C 2067 95 1690 -26 1466 -26 
z
" transform="scale(0.015625)"/>
        <path id="CMMI12-3a" d="M 1178 307 
C 1178 492 1024 619 870 619 
C 685 619 557 466 557 313 
C 557 128 710 0 864 0 
C 1050 0 1178 153 1178 307 
z
" transform="scale(0.015625)"/>
       </defs>
       <use xlink:href="#CMR17-30" transform="scale(0.996264)"/>
       <use xlink:href="#CMMI12-3a" transform="translate(45.690477 0) scale(0.996264)"/>
       <use xlink:href="#CMR17-30" transform="translate(72.787654 0) scale(0.996264)"/>
      </g>
     </g>
    </g>
    <g id="xtick_2">
     <g id="line2d_2">
      <g>
       <use xlink:href="#mbe16be01f4" x="269.977436" y="678.237256" style="fill: #262626; stroke: #262626; stroke-width: 0.8"/>
      </g>
     </g>
     <g id="text_2">
      <!-- $\mathdefault{0.2}$ -->
      <g style="fill: #262626" transform="translate(248.651373 710.143856) scale(0.36 -0.36)">
       <defs>
        <path id="CMR17-32" d="M 2669 989 
L 2554 989 
C 2490 536 2438 459 2413 420 
C 2381 369 1920 369 1830 369 
L 602 369 
C 832 619 1280 1072 1824 1597 
C 2214 1967 2669 2402 2669 3035 
C 2669 3790 2067 4224 1395 4224 
C 691 4224 262 3604 262 3030 
C 262 2780 448 2748 525 2748 
C 589 2748 781 2787 781 3010 
C 781 3207 614 3264 525 3264 
C 486 3264 448 3258 422 3245 
C 544 3790 915 4058 1306 4058 
C 1862 4058 2227 3617 2227 3035 
C 2227 2479 1901 2000 1536 1584 
L 262 146 
L 262 0 
L 2515 0 
L 2669 989 
z
" transform="scale(0.015625)"/>
       </defs>
       <use xlink:href="#CMR17-30" transform="scale(0.996264)"/>
       <use xlink:href="#CMMI12-3a" transform="translate(45.690477 0) scale(0.996264)"/>
       <use xlink:href="#CMR17-32" transform="translate(72.787654 0) scale(0.996264)"/>
      </g>
     </g>
    </g>
    <g id="xtick_3">
     <g id="line2d_3">
      <g>
       <use xlink:href="#mbe16be01f4" x="451.422745" y="678.237256" style="fill: #262626; stroke: #262626; stroke-width: 0.8"/>
      </g>
     </g>
     <g id="text_3">
      <!-- $\mathdefault{0.4}$ -->
      <g style="fill: #262626" transform="translate(430.096682 710.143856) scale(0.36 -0.36)">
       <defs>
        <path id="CMR17-34" d="M 2150 4122 
C 2150 4256 2144 4256 2029 4256 
L 128 1254 
L 128 1088 
L 1779 1088 
L 1779 457 
C 1779 224 1766 160 1318 160 
L 1197 160 
L 1197 0 
C 1402 0 1747 0 1965 0 
C 2182 0 2528 0 2733 0 
L 2733 160 
L 2611 160 
C 2163 160 2150 224 2150 457 
L 2150 1088 
L 2803 1088 
L 2803 1254 
L 2150 1254 
L 2150 4122 
z
M 1798 3703 
L 1798 1254 
L 256 1254 
L 1798 3703 
z
" transform="scale(0.015625)"/>
       </defs>
       <use xlink:href="#CMR17-30" transform="scale(0.996264)"/>
       <use xlink:href="#CMMI12-3a" transform="translate(45.690477 0) scale(0.996264)"/>
       <use xlink:href="#CMR17-34" transform="translate(72.787654 0) scale(0.996264)"/>
      </g>
     </g>
    </g>
    <g id="xtick_4">
     <g id="line2d_4">
      <g>
       <use xlink:href="#mbe16be01f4" x="632.868055" y="678.237256" style="fill: #262626; stroke: #262626; stroke-width: 0.8"/>
      </g>
     </g>
     <g id="text_4">
      <!-- $\mathdefault{0.6}$ -->
      <g style="fill: #262626" transform="translate(611.541991 710.143856) scale(0.36 -0.36)">
       <defs>
        <path id="CMR17-36" d="M 678 2176 
C 678 3690 1395 4032 1811 4032 
C 1946 4032 2272 4009 2400 3776 
C 2298 3776 2106 3776 2106 3553 
C 2106 3381 2246 3323 2336 3323 
C 2394 3323 2566 3348 2566 3560 
C 2566 3954 2246 4179 1805 4179 
C 1043 4179 243 3390 243 1984 
C 243 253 966 -128 1478 -128 
C 2099 -128 2688 427 2688 1283 
C 2688 2081 2170 2662 1517 2662 
C 1126 2662 838 2407 678 1960 
L 678 2176 
z
M 1478 25 
C 691 25 691 1200 691 1436 
C 691 1896 909 2560 1504 2560 
C 1613 2560 1926 2560 2138 2120 
C 2253 1870 2253 1609 2253 1289 
C 2253 944 2253 690 2118 434 
C 1978 171 1773 25 1478 25 
z
" transform="scale(0.015625)"/>
       </defs>
       <use xlink:href="#CMR17-30" transform="scale(0.996264)"/>
       <use xlink:href="#CMMI12-3a" transform="translate(45.690477 0) scale(0.996264)"/>
       <use xlink:href="#CMR17-36" transform="translate(72.787654 0) scale(0.996264)"/>
      </g>
     </g>
    </g>
    <g id="xtick_5">
     <g id="line2d_5">
      <g>
       <use xlink:href="#mbe16be01f4" x="814.313364" y="678.237256" style="fill: #262626; stroke: #262626; stroke-width: 0.8"/>
      </g>
     </g>
     <g id="text_5">
      <!-- $\mathdefault{0.8}$ -->
      <g style="fill: #262626" transform="translate(792.9873 710.143856) scale(0.36 -0.36)">
       <defs>
        <path id="CMR17-38" d="M 1741 2264 
C 2144 2467 2554 2773 2554 3263 
C 2554 3841 1990 4179 1472 4179 
C 890 4179 378 3759 378 3180 
C 378 3021 416 2747 666 2505 
C 730 2442 998 2251 1171 2130 
C 883 1983 211 1634 211 934 
C 211 279 838 -128 1459 -128 
C 2144 -128 2720 362 2720 1010 
C 2720 1590 2330 1857 2074 2029 
L 1741 2264 
z
M 902 2822 
C 851 2854 595 3051 595 3351 
C 595 3739 998 4032 1459 4032 
C 1965 4032 2336 3676 2336 3262 
C 2336 2669 1670 2331 1638 2331 
C 1632 2331 1626 2331 1574 2370 
L 902 2822 
z
M 2080 1519 
C 2176 1449 2483 1240 2483 851 
C 2483 381 2010 25 1472 25 
C 890 25 448 438 448 940 
C 448 1443 838 1862 1280 2060 
L 2080 1519 
z
" transform="scale(0.015625)"/>
       </defs>
       <use xlink:href="#CMR17-30" transform="scale(0.996264)"/>
       <use xlink:href="#CMMI12-3a" transform="translate(45.690477 0) scale(0.996264)"/>
       <use xlink:href="#CMR17-38" transform="translate(72.787654 0) scale(0.996264)"/>
      </g>
     </g>
    </g>
    <g id="xtick_6">
     <g id="line2d_6">
      <g>
       <use xlink:href="#mbe16be01f4" x="995.758673" y="678.237256" style="fill: #262626; stroke: #262626; stroke-width: 0.8"/>
      </g>
     </g>
     <g id="text_6">
      <!-- $\mathdefault{1.0}$ -->
      <g style="fill: #262626" transform="translate(974.432609 710.143856) scale(0.36 -0.36)">
       <defs>
        <path id="CMR17-31" d="M 1702 4058 
C 1702 4192 1696 4192 1606 4192 
C 1357 3916 979 3827 621 3827 
C 602 3827 570 3827 563 3808 
C 557 3795 557 3782 557 3648 
C 755 3648 1088 3686 1344 3839 
L 1344 461 
C 1344 236 1331 160 781 160 
L 589 160 
L 589 0 
C 896 0 1216 0 1523 0 
C 1830 0 2150 0 2458 0 
L 2458 160 
L 2266 160 
C 1715 160 1702 230 1702 458 
L 1702 4058 
z
" transform="scale(0.015625)"/>
       </defs>
       <use xlink:href="#CMR17-31" transform="scale(0.996264)"/>
       <use xlink:href="#CMMI12-3a" transform="translate(45.690477 0) scale(0.996264)"/>
       <use xlink:href="#CMR17-30" transform="translate(72.787654 0) scale(0.996264)"/>
      </g>
     </g>
    </g>
   </g>
   <g id="matplotlib.axis_2">
    <g id="ytick_1">
     <g id="line2d_7">
      <defs>
       <path id="mf09a9cd615" d="M 0 0 
L -3.5 0 
" style="stroke: #262626; stroke-width: 0.8"/>
      </defs>
      <g>
       <use xlink:href="#mf09a9cd615" x="88.532127" y="678.237256" style="fill: #262626; stroke: #262626; stroke-width: 0.8"/>
      </g>
     </g>
     <g id="text_7">
      <!-- $\mathdefault{0.0}$ -->
      <g style="fill: #262626" transform="translate(38.88 690.690556) scale(0.36 -0.36)">
       <use xlink:href="#CMR17-30" transform="scale(0.996264)"/>
       <use xlink:href="#CMMI12-3a" transform="translate(45.690477 0) scale(0.996264)"/>
       <use xlink:href="#CMR17-30" transform="translate(72.787654 0) scale(0.996264)"/>
      </g>
     </g>
    </g>
    <g id="ytick_2">
     <g id="line2d_8">
      <g>
       <use xlink:href="#mf09a9cd615" x="88.532127" y="576.915578" style="fill: #262626; stroke: #262626; stroke-width: 0.8"/>
      </g>
     </g>
     <g id="text_8">
      <!-- $\mathdefault{0.2}$ -->
      <g style="fill: #262626" transform="translate(38.88 589.368878) scale(0.36 -0.36)">
       <use xlink:href="#CMR17-30" transform="scale(0.996264)"/>
       <use xlink:href="#CMMI12-3a" transform="translate(45.690477 0) scale(0.996264)"/>
       <use xlink:href="#CMR17-32" transform="translate(72.787654 0) scale(0.996264)"/>
      </g>
     </g>
    </g>
    <g id="ytick_3">
     <g id="line2d_9">
      <g>
       <use xlink:href="#mf09a9cd615" x="88.532127" y="475.593899" style="fill: #262626; stroke: #262626; stroke-width: 0.8"/>
      </g>
     </g>
     <g id="text_9">
      <!-- $\mathdefault{0.4}$ -->
      <g style="fill: #262626" transform="translate(38.88 488.0472) scale(0.36 -0.36)">
       <use xlink:href="#CMR17-30" transform="scale(0.996264)"/>
       <use xlink:href="#CMMI12-3a" transform="translate(45.690477 0) scale(0.996264)"/>
       <use xlink:href="#CMR17-34" transform="translate(72.787654 0) scale(0.996264)"/>
      </g>
     </g>
    </g>
    <g id="ytick_4">
     <g id="line2d_10">
      <g>
       <use xlink:href="#mf09a9cd615" x="88.532127" y="374.272221" style="fill: #262626; stroke: #262626; stroke-width: 0.8"/>
      </g>
     </g>
     <g id="text_10">
      <!-- $\mathdefault{0.6}$ -->
      <g style="fill: #262626" transform="translate(38.88 386.725521) scale(0.36 -0.36)">
       <use xlink:href="#CMR17-30" transform="scale(0.996264)"/>
       <use xlink:href="#CMMI12-3a" transform="translate(45.690477 0) scale(0.996264)"/>
       <use xlink:href="#CMR17-36" transform="translate(72.787654 0) scale(0.996264)"/>
      </g>
     </g>
    </g>
    <g id="ytick_5">
     <g id="line2d_11">
      <g>
       <use xlink:href="#mf09a9cd615" x="88.532127" y="272.950543" style="fill: #262626; stroke: #262626; stroke-width: 0.8"/>
      </g>
     </g>
     <g id="text_11">
      <!-- $\mathdefault{0.8}$ -->
      <g style="fill: #262626" transform="translate(38.88 285.403843) scale(0.36 -0.36)">
       <use xlink:href="#CMR17-30" transform="scale(0.996264)"/>
       <use xlink:href="#CMMI12-3a" transform="translate(45.690477 0) scale(0.996264)"/>
       <use xlink:href="#CMR17-38" transform="translate(72.787654 0) scale(0.996264)"/>
      </g>
     </g>
    </g>
    <g id="ytick_6">
     <g id="line2d_12">
      <g>
       <use xlink:href="#mf09a9cd615" x="88.532127" y="171.628864" style="fill: #262626; stroke: #262626; stroke-width: 0.8"/>
      </g>
     </g>
     <g id="text_12">
      <!-- $\mathdefault{1.0}$ -->
      <g style="fill: #262626" transform="translate(38.88 184.082164) scale(0.36 -0.36)">
       <use xlink:href="#CMR17-31" transform="scale(0.996264)"/>
       <use xlink:href="#CMMI12-3a" transform="translate(45.690477 0) scale(0.996264)"/>
       <use xlink:href="#CMR17-30" transform="translate(72.787654 0) scale(0.996264)"/>
      </g>
     </g>
    </g>
    <g id="ytick_7">
     <g id="line2d_13">
      <g>
       <use xlink:href="#mf09a9cd615" x="88.532127" y="70.307186" style="fill: #262626; stroke: #262626; stroke-width: 0.8"/>
      </g>
     </g>
     <g id="text_13">
      <!-- $\mathdefault{1.2}$ -->
      <g style="fill: #262626" transform="translate(38.88 82.760486) scale(0.36 -0.36)">
       <use xlink:href="#CMR17-31" transform="scale(0.996264)"/>
       <use xlink:href="#CMMI12-3a" transform="translate(45.690477 0) scale(0.996264)"/>
       <use xlink:href="#CMR17-32" transform="translate(72.787654 0) scale(0.996264)"/>
      </g>
     </g>
    </g>
   </g>
   <g id="line2d_14">
    <path d="M 88.532127 70.307186 
L 995.758673 70.307186 
L 995.758673 70.307186 
" clip-path="url(#p6ce1b71899)" style="fill: none; stroke: #1f77b4; stroke-width: 5; stroke-linecap: round"/>
   </g>
   <g id="line2d_15">
    <path d="M 88.532127 488.006266 
L 130.869366 471.300856 
L 167.158428 457.195197 
L 203.44749 443.321665 
L 239.736552 429.707958 
L 269.977436 418.578774 
L 300.218321 407.657579 
L 330.459206 396.953357 
L 360.700091 386.474131 
L 390.940976 376.225668 
L 421.181861 366.213017 
L 451.422745 356.439745 
L 481.66363 346.908091 
L 511.904515 337.619168 
L 542.1454 328.574374 
L 572.386285 319.772509 
L 602.62717 311.213236 
L 632.868055 302.894336 
L 663.108939 294.814431 
L 693.349824 286.971 
L 723.590709 279.36017 
L 753.831594 271.978725 
L 784.072479 264.82361 
L 814.313364 257.890665 
L 844.554248 251.175274 
L 874.795133 244.67353 
L 905.036018 238.38101 
L 935.276903 232.292309 
L 965.517788 226.403486 
L 995.758673 220.70947 
L 995.758673 220.70947 
" clip-path="url(#p6ce1b71899)" style="fill: none; stroke: #2ca02c; stroke-width: 5; stroke-linecap: round"/>
   </g>
   <g id="line2d_16">
    <path d="M 88.532127 616.74067 
L 112.724835 608.152649 
L 136.917543 599.3045 
L 161.110251 590.236481 
L 191.351136 578.648699 
L 227.640198 564.459288 
L 269.977436 547.641149 
L 354.651914 513.673932 
L 415.133684 489.537458 
L 457.470922 472.860076 
L 499.808161 456.440216 
L 536.097223 442.612679 
L 572.386285 429.043248 
L 602.62717 417.94932 
L 632.868055 407.0625 
L 663.108939 396.391803 
L 693.349824 385.944987 
L 723.590709 375.72842 
L 753.831594 365.746504 
L 784.072479 356.003038 
L 814.313364 346.500339 
L 844.554248 337.240079 
L 874.795133 328.221979 
L 905.036018 319.446619 
L 935.276903 310.912585 
L 965.517788 302.618672 
L 995.758673 294.562222 
L 995.758673 294.562222 
" clip-path="url(#p6ce1b71899)" style="fill: none; stroke: #9467bd; stroke-width: 5; stroke-linecap: round"/>
   </g>
   <g id="line2d_17">
    <path d="M 88.532127 658.707386 
L 100.628481 655.764955 
L 118.773012 651.066901 
L 136.917543 646.05278 
L 155.062074 640.749691 
L 173.206605 635.183208 
L 191.351136 629.377579 
L 209.495667 623.355592 
L 227.640198 617.138855 
L 251.832905 608.581814 
L 276.025613 599.75927 
L 300.218321 590.712601 
L 330.459206 579.146675 
L 366.748268 564.977918 
L 409.085507 548.177916 
L 487.711807 516.657831 
L 548.193577 492.5027 
L 596.578993 473.42797 
L 632.868055 459.335445 
L 669.157116 445.465918 
L 705.446178 431.848445 
L 735.687063 420.711206 
L 765.927948 409.777852 
L 796.168833 399.058231 
L 826.409718 388.560715 
L 856.650602 378.29178 
L 886.891487 368.256029 
L 917.132372 358.45799 
L 947.373257 348.899491 
L 977.614142 339.583005 
L 995.758673 334.109458 
L 995.758673 334.109458 
" clip-path="url(#p6ce1b71899)" style="fill: none; stroke: #e377c2; stroke-width: 5; stroke-linecap: round"/>
   </g>
   <g id="line2d_18">
    <path d="M 88.532127 676.435769 
L 94.580304 674.23609 
L 100.628481 672.264107 
L 106.676658 670.493818 
L 112.724835 668.90175 
L 118.773012 667.47122 
L 130.869366 664.977277 
L 142.96572 662.441123 
L 155.062074 659.729044 
L 167.158428 656.850562 
L 185.302959 652.24077 
L 203.44749 647.306611 
L 221.592021 642.075917 
L 239.736552 636.574994 
L 257.881082 630.828577 
L 276.025613 624.860053 
L 294.170144 618.691367 
L 318.362852 610.190653 
L 342.55556 601.416373 
L 366.748268 592.410554 
L 396.989153 580.88624 
L 427.230038 569.128871 
L 469.567276 552.393071 
L 530.049046 528.189195 
L 614.723524 494.314596 
L 663.108939 475.218364 
L 705.446178 458.771917 
L 741.73524 444.915516 
L 778.024302 431.312405 
L 814.313364 417.986717 
L 844.554248 407.108603 
L 874.795133 396.446166 
L 905.036018 386.007139 
L 935.276903 375.798197 
L 965.517788 365.823301 
L 995.758673 356.086469 
L 995.758673 356.086469 
" clip-path="url(#p6ce1b71899)" style="fill: none; stroke: #bcbd22; stroke-width: 5; stroke-linecap: round"/>
   </g>
   <g id="line2d_19">
    <path d="M 88.532127 698.850902 
L 94.580304 694.28385 
L 100.628481 690.210142 
L 106.676658 686.571152 
L 112.724835 683.315132 
L 118.773012 680.404438 
L 124.821189 677.796558 
L 130.869366 675.46137 
L 136.917543 673.366828 
L 142.96572 671.48549 
L 149.013897 669.795026 
L 155.062074 668.274632 
L 161.110251 666.906316 
L 185.302959 661.879954 
L 197.399313 659.132697 
L 209.495667 656.220875 
L 227.640198 651.56446 
L 245.784728 646.587569 
L 263.929259 641.317885 
L 282.07379 635.781502 
L 300.218321 630.002998 
L 318.362852 624.005563 
L 336.507383 617.810977 
L 360.700091 609.280108 
L 384.892799 600.48033 
L 409.085507 591.45327 
L 439.326392 579.907914 
L 475.615453 565.758672 
L 517.952692 548.975115 
L 590.530816 519.895999 
L 657.060762 493.31614 
L 705.446178 474.236524 
L 747.783417 457.808637 
L 784.072479 443.970546 
L 820.361541 430.387507 
L 850.602425 419.280502 
L 880.84331 408.378671 
L 911.084195 397.691836 
L 941.32508 387.227509 
L 971.565965 376.992361 
L 995.758673 368.972258 
L 995.758673 368.972258 
" clip-path="url(#p6ce1b71899)" style="fill: none; stroke: #17becf; stroke-width: 5; stroke-linecap: round"/>
   </g>
   <g id="patch_3">
    <path d="M 88.532127 678.237256 
L 88.532127 38.88 
" style="fill: none; stroke: #262626; stroke-width: 0.8; stroke-linejoin: miter; stroke-linecap: square"/>
   </g>
   <g id="patch_4">
    <path d="M 88.532127 678.237256 
L 1041.12 678.237256 
" style="fill: none; stroke: #262626; stroke-width: 0.8; stroke-linejoin: miter; stroke-linecap: square"/>
   </g>
  </g>
 </g>
 <defs>
  <clipPath id="p6ce1b71899">
   <rect x="88.532127" y="38.88" width="952.587873" height="639.357256"/>
  </clipPath>
 </defs>
</svg>
