<?xml version="1.0" encoding="utf-8" standalone="no"?>
<!DOCTYPE svg PUBLIC "-//W3C//DTD SVG 1.1//EN"
  "http://www.w3.org/Graphics/SVG/1.1/DTD/svg11.dtd">
<svg xmlns:xlink="http://www.w3.org/1999/xlink" width="1080pt" height="576pt" viewBox="0 0 1080 576" xmlns="http://www.w3.org/2000/svg" version="1.1">
 <metadata>
  <rdf:RDF xmlns:dc="http://purl.org/dc/elements/1.1/" xmlns:cc="http://creativecommons.org/ns#" xmlns:rdf="http://www.w3.org/1999/02/22-rdf-syntax-ns#">
   <cc:Work>
    <dc:type rdf:resource="http://purl.org/dc/dcmitype/StillImage"/>
    <dc:date>2024-06-28T11:13:04.896476</dc:date>
    <dc:format>image/svg+xml</dc:format>
    <dc:creator>
     <cc:Agent>
      <dc:title>Matplotlib v3.9.0, https://matplotlib.org/</dc:title>
     </cc:Agent>
    </dc:creator>
   </cc:Work>
  </rdf:RDF>
 </metadata>
 <defs>
  <style type="text/css">*{stroke-linejoin: round; stroke-linecap: butt}</style>
 </defs>
 <g id="figure_1">
  <g id="patch_1">
   <path d="M 0 576 
L 1080 576 
L 1080 0 
L 0 0 
z
" style="fill: #ffffff"/>
  </g>
  <g id="axes_1">
   <g id="patch_2">
    <path d="M 41.730582 521.153031 
L 935.517672 521.153031 
L 935.517672 57.130917 
L 41.730582 57.130917 
z
" style="fill: #eaeaf2"/>
   </g>
   <g id="matplotlib.axis_1">
    <g id="xtick_1">
     <g id="line2d_1">
      <path d="M 41.730582 521.153031 
L 41.730582 57.130917 
" clip-path="url(#pe4a30bd5b3)" style="fill: none; stroke: #ffffff; stroke-linecap: round"/>
     </g>
     <g id="line2d_2"/>
     <g id="text_1">
      <!-- $\mathdefault{0.00}$ -->
      <g style="fill: #262626" transform="translate(29.591047 537.838907) scale(0.14 -0.14)">
       <defs>
        <path id="CMR17-30" d="M 2688 2025 
C 2688 2416 2682 3080 2413 3591 
C 2176 4039 1798 4198 1466 4198 
C 1158 4198 768 4058 525 3597 
C 269 3118 243 2524 243 2025 
C 243 1661 250 1106 448 619 
C 723 -39 1216 -128 1466 -128 
C 1760 -128 2208 -7 2470 600 
C 2662 1042 2688 1559 2688 2025 
z
M 1466 -26 
C 1056 -26 813 325 723 812 
C 653 1188 653 1738 653 2096 
C 653 2588 653 2997 736 3387 
C 858 3929 1216 4096 1466 4096 
C 1728 4096 2067 3923 2189 3400 
C 2272 3036 2278 2607 2278 2096 
C 2278 1680 2278 1169 2202 792 
C 2067 95 1690 -26 1466 -26 
z
" transform="scale(0.015625)"/>
        <path id="CMMI12-3a" d="M 1178 307 
C 1178 492 1024 619 870 619 
C 685 619 557 466 557 313 
C 557 128 710 0 864 0 
C 1050 0 1178 153 1178 307 
z
" transform="scale(0.015625)"/>
       </defs>
       <use xlink:href="#CMR17-30" transform="scale(0.996264)"/>
       <use xlink:href="#CMMI12-3a" transform="translate(45.690477 0) scale(0.996264)"/>
       <use xlink:href="#CMR17-30" transform="translate(72.787654 0) scale(0.996264)"/>
       <use xlink:href="#CMR17-30" transform="translate(118.478131 0) scale(0.996264)"/>
      </g>
     </g>
    </g>
    <g id="xtick_2">
     <g id="line2d_3">
      <path d="M 148.133807 521.153031 
L 148.133807 57.130917 
" clip-path="url(#pe4a30bd5b3)" style="fill: none; stroke: #ffffff; stroke-linecap: round"/>
     </g>
     <g id="line2d_4"/>
     <g id="text_2">
      <!-- $\mathdefault{0.25}$ -->
      <g style="fill: #262626" transform="translate(135.994272 537.838907) scale(0.14 -0.14)">
       <defs>
        <path id="CMR17-32" d="M 2669 989 
L 2554 989 
C 2490 536 2438 459 2413 420 
C 2381 369 1920 369 1830 369 
L 602 369 
C 832 619 1280 1072 1824 1597 
C 2214 1967 2669 2402 2669 3035 
C 2669 3790 2067 4224 1395 4224 
C 691 4224 262 3604 262 3030 
C 262 2780 448 2748 525 2748 
C 589 2748 781 2787 781 3010 
C 781 3207 614 3264 525 3264 
C 486 3264 448 3258 422 3245 
C 544 3790 915 4058 1306 4058 
C 1862 4058 2227 3617 2227 3035 
C 2227 2479 1901 2000 1536 1584 
L 262 146 
L 262 0 
L 2515 0 
L 2669 989 
z
" transform="scale(0.015625)"/>
        <path id="CMR17-35" d="M 730 3692 
C 794 3666 1056 3584 1325 3584 
C 1920 3584 2246 3911 2432 4100 
C 2432 4157 2432 4192 2394 4192 
C 2387 4192 2374 4192 2323 4163 
C 2099 4058 1837 3973 1517 3973 
C 1325 3973 1037 3999 723 4139 
C 653 4171 640 4171 634 4171 
C 602 4171 595 4164 595 4037 
L 595 2203 
C 595 2089 595 2057 659 2057 
C 691 2057 704 2070 736 2114 
C 941 2401 1222 2522 1542 2522 
C 1766 2522 2246 2382 2246 1289 
C 2246 1085 2246 715 2054 421 
C 1894 159 1645 25 1370 25 
C 947 25 518 320 403 814 
C 429 807 480 795 506 795 
C 589 795 749 840 749 1038 
C 749 1210 627 1280 506 1280 
C 358 1280 262 1190 262 1011 
C 262 454 704 -128 1382 -128 
C 2042 -128 2669 440 2669 1264 
C 2669 2030 2170 2624 1549 2624 
C 1222 2624 947 2503 730 2274 
L 730 3692 
z
" transform="scale(0.015625)"/>
       </defs>
       <use xlink:href="#CMR17-30" transform="scale(0.996264)"/>
       <use xlink:href="#CMMI12-3a" transform="translate(45.690477 0) scale(0.996264)"/>
       <use xlink:href="#CMR17-32" transform="translate(72.787654 0) scale(0.996264)"/>
       <use xlink:href="#CMR17-35" transform="translate(118.478131 0) scale(0.996264)"/>
      </g>
     </g>
    </g>
    <g id="xtick_3">
     <g id="line2d_5">
      <path d="M 254.537032 521.153031 
L 254.537032 57.130917 
" clip-path="url(#pe4a30bd5b3)" style="fill: none; stroke: #ffffff; stroke-linecap: round"/>
     </g>
     <g id="line2d_6"/>
     <g id="text_3">
      <!-- $\mathdefault{0.50}$ -->
      <g style="fill: #262626" transform="translate(242.397497 537.838907) scale(0.14 -0.14)">
       <use xlink:href="#CMR17-30" transform="scale(0.996264)"/>
       <use xlink:href="#CMMI12-3a" transform="translate(45.690477 0) scale(0.996264)"/>
       <use xlink:href="#CMR17-35" transform="translate(72.787654 0) scale(0.996264)"/>
       <use xlink:href="#CMR17-30" transform="translate(118.478131 0) scale(0.996264)"/>
      </g>
     </g>
    </g>
    <g id="xtick_4">
     <g id="line2d_7">
      <path d="M 360.940257 521.153031 
L 360.940257 57.130917 
" clip-path="url(#pe4a30bd5b3)" style="fill: none; stroke: #ffffff; stroke-linecap: round"/>
     </g>
     <g id="line2d_8"/>
     <g id="text_4">
      <!-- $\mathdefault{0.75}$ -->
      <g style="fill: #262626" transform="translate(348.800722 537.838907) scale(0.14 -0.14)">
       <defs>
        <path id="CMR17-37" d="M 2886 3941 
L 2886 4081 
L 1382 4081 
C 634 4081 621 4165 595 4288 
L 480 4288 
L 294 3094 
L 410 3094 
C 429 3215 474 3540 550 3661 
C 589 3712 1062 3712 1171 3712 
L 2579 3712 
L 1869 2661 
C 1395 1954 1069 999 1069 165 
C 1069 89 1069 -128 1299 -128 
C 1530 -128 1530 89 1530 171 
L 1530 465 
C 1530 1508 1709 2196 2003 2636 
L 2886 3941 
z
" transform="scale(0.015625)"/>
       </defs>
       <use xlink:href="#CMR17-30" transform="scale(0.996264)"/>
       <use xlink:href="#CMMI12-3a" transform="translate(45.690477 0) scale(0.996264)"/>
       <use xlink:href="#CMR17-37" transform="translate(72.787654 0) scale(0.996264)"/>
       <use xlink:href="#CMR17-35" transform="translate(118.478131 0) scale(0.996264)"/>
      </g>
     </g>
    </g>
    <g id="xtick_5">
     <g id="line2d_9">
      <path d="M 467.343482 521.153031 
L 467.343482 57.130917 
" clip-path="url(#pe4a30bd5b3)" style="fill: none; stroke: #ffffff; stroke-linecap: round"/>
     </g>
     <g id="line2d_10"/>
     <g id="text_5">
      <!-- $\mathdefault{1.00}$ -->
      <g style="fill: #262626" transform="translate(455.203947 537.838907) scale(0.14 -0.14)">
       <defs>
        <path id="CMR17-31" d="M 1702 4058 
C 1702 4192 1696 4192 1606 4192 
C 1357 3916 979 3827 621 3827 
C 602 3827 570 3827 563 3808 
C 557 3795 557 3782 557 3648 
C 755 3648 1088 3686 1344 3839 
L 1344 461 
C 1344 236 1331 160 781 160 
L 589 160 
L 589 0 
C 896 0 1216 0 1523 0 
C 1830 0 2150 0 2458 0 
L 2458 160 
L 2266 160 
C 1715 160 1702 230 1702 458 
L 1702 4058 
z
" transform="scale(0.015625)"/>
       </defs>
       <use xlink:href="#CMR17-31" transform="scale(0.996264)"/>
       <use xlink:href="#CMMI12-3a" transform="translate(45.690477 0) scale(0.996264)"/>
       <use xlink:href="#CMR17-30" transform="translate(72.787654 0) scale(0.996264)"/>
       <use xlink:href="#CMR17-30" transform="translate(118.478131 0) scale(0.996264)"/>
      </g>
     </g>
    </g>
    <g id="xtick_6">
     <g id="line2d_11">
      <path d="M 573.746707 521.153031 
L 573.746707 57.130917 
" clip-path="url(#pe4a30bd5b3)" style="fill: none; stroke: #ffffff; stroke-linecap: round"/>
     </g>
     <g id="line2d_12"/>
     <g id="text_6">
      <!-- $\mathdefault{1.25}$ -->
      <g style="fill: #262626" transform="translate(561.607172 537.838907) scale(0.14 -0.14)">
       <use xlink:href="#CMR17-31" transform="scale(0.996264)"/>
       <use xlink:href="#CMMI12-3a" transform="translate(45.690477 0) scale(0.996264)"/>
       <use xlink:href="#CMR17-32" transform="translate(72.787654 0) scale(0.996264)"/>
       <use xlink:href="#CMR17-35" transform="translate(118.478131 0) scale(0.996264)"/>
      </g>
     </g>
    </g>
    <g id="xtick_7">
     <g id="line2d_13">
      <path d="M 680.149932 521.153031 
L 680.149932 57.130917 
" clip-path="url(#pe4a30bd5b3)" style="fill: none; stroke: #ffffff; stroke-linecap: round"/>
     </g>
     <g id="line2d_14"/>
     <g id="text_7">
      <!-- $\mathdefault{1.50}$ -->
      <g style="fill: #262626" transform="translate(668.010397 537.838907) scale(0.14 -0.14)">
       <use xlink:href="#CMR17-31" transform="scale(0.996264)"/>
       <use xlink:href="#CMMI12-3a" transform="translate(45.690477 0) scale(0.996264)"/>
       <use xlink:href="#CMR17-35" transform="translate(72.787654 0) scale(0.996264)"/>
       <use xlink:href="#CMR17-30" transform="translate(118.478131 0) scale(0.996264)"/>
      </g>
     </g>
    </g>
    <g id="xtick_8">
     <g id="line2d_15">
      <path d="M 786.553157 521.153031 
L 786.553157 57.130917 
" clip-path="url(#pe4a30bd5b3)" style="fill: none; stroke: #ffffff; stroke-linecap: round"/>
     </g>
     <g id="line2d_16"/>
     <g id="text_8">
      <!-- $\mathdefault{1.75}$ -->
      <g style="fill: #262626" transform="translate(774.413622 537.838907) scale(0.14 -0.14)">
       <use xlink:href="#CMR17-31" transform="scale(0.996264)"/>
       <use xlink:href="#CMMI12-3a" transform="translate(45.690477 0) scale(0.996264)"/>
       <use xlink:href="#CMR17-37" transform="translate(72.787654 0) scale(0.996264)"/>
       <use xlink:href="#CMR17-35" transform="translate(118.478131 0) scale(0.996264)"/>
      </g>
     </g>
    </g>
    <g id="xtick_9">
     <g id="line2d_17">
      <path d="M 892.956382 521.153031 
L 892.956382 57.130917 
" clip-path="url(#pe4a30bd5b3)" style="fill: none; stroke: #ffffff; stroke-linecap: round"/>
     </g>
     <g id="line2d_18"/>
     <g id="text_9">
      <!-- $\mathdefault{2.00}$ -->
      <g style="fill: #262626" transform="translate(880.816846 537.838907) scale(0.14 -0.14)">
       <use xlink:href="#CMR17-32" transform="scale(0.996264)"/>
       <use xlink:href="#CMMI12-3a" transform="translate(45.690477 0) scale(0.996264)"/>
       <use xlink:href="#CMR17-30" transform="translate(72.787654 0) scale(0.996264)"/>
       <use xlink:href="#CMR17-30" transform="translate(118.478131 0) scale(0.996264)"/>
      </g>
     </g>
    </g>
    <g id="text_10">
     <!-- $x$ -->
     <g style="fill: #262626" transform="translate(484.189402 555.620524) scale(0.16 -0.16)">
      <defs>
       <path id="CMMI12-78" d="M 3034 2606 
C 2829 2567 2752 2414 2752 2293 
C 2752 2139 2874 2088 2963 2088 
C 3155 2088 3290 2254 3290 2427 
C 3290 2695 2982 2816 2714 2816 
C 2323 2816 2106 2433 2048 2312 
C 1901 2816 1504 2816 1389 2816 
C 736 2816 390 1980 390 1839 
C 390 1814 416 1782 461 1782 
C 512 1782 525 1820 538 1846 
C 755 2555 1184 2689 1370 2689 
C 1658 2689 1715 2420 1715 2267 
C 1715 2127 1677 1980 1600 1673 
L 1382 798 
C 1286 415 1101 64 762 64 
C 730 64 570 64 435 147 
C 666 192 717 383 717 460 
C 717 588 621 664 499 664 
C 346 664 179 530 179 326 
C 179 57 480 -64 755 -64 
C 1062 -64 1280 179 1414 441 
C 1517 64 1837 -64 2074 -64 
C 2726 -64 3072 773 3072 913 
C 3072 945 3046 971 3008 971 
C 2950 971 2944 939 2925 888 
C 2752 326 2381 64 2093 64 
C 1869 64 1747 230 1747 492 
C 1747 632 1773 734 1875 1156 
L 2099 2024 
C 2195 2408 2413 2689 2707 2689 
C 2720 2689 2899 2689 3034 2606 
z
" transform="scale(0.015625)"/>
      </defs>
      <use xlink:href="#CMMI12-78" transform="scale(0.996264)"/>
     </g>
    </g>
   </g>
   <g id="matplotlib.axis_2">
    <g id="ytick_1">
     <g id="line2d_19">
      <path d="M 41.730582 521.153031 
L 935.517672 521.153031 
" clip-path="url(#pe4a30bd5b3)" style="fill: none; stroke: #ffffff; stroke-linecap: round"/>
     </g>
     <g id="line2d_20"/>
     <g id="text_11">
      <!-- $\mathdefault{0.0}$ -->
      <g style="fill: #262626" transform="translate(17.28 525.995969) scale(0.14 -0.14)">
       <use xlink:href="#CMR17-30" transform="scale(0.996264)"/>
       <use xlink:href="#CMMI12-3a" transform="translate(45.690477 0) scale(0.996264)"/>
       <use xlink:href="#CMR17-30" transform="translate(72.787654 0) scale(0.996264)"/>
      </g>
     </g>
    </g>
    <g id="ytick_2">
     <g id="line2d_21">
      <path d="M 41.730582 428.787884 
L 935.517672 428.787884 
" clip-path="url(#pe4a30bd5b3)" style="fill: none; stroke: #ffffff; stroke-linecap: round"/>
     </g>
     <g id="line2d_22"/>
     <g id="text_12">
      <!-- $\mathdefault{0.2}$ -->
      <g style="fill: #262626" transform="translate(17.28 433.630823) scale(0.14 -0.14)">
       <use xlink:href="#CMR17-30" transform="scale(0.996264)"/>
       <use xlink:href="#CMMI12-3a" transform="translate(45.690477 0) scale(0.996264)"/>
       <use xlink:href="#CMR17-32" transform="translate(72.787654 0) scale(0.996264)"/>
      </g>
     </g>
    </g>
    <g id="ytick_3">
     <g id="line2d_23">
      <path d="M 41.730582 336.422738 
L 935.517672 336.422738 
" clip-path="url(#pe4a30bd5b3)" style="fill: none; stroke: #ffffff; stroke-linecap: round"/>
     </g>
     <g id="line2d_24"/>
     <g id="text_13">
      <!-- $\mathdefault{0.4}$ -->
      <g style="fill: #262626" transform="translate(17.28 341.265676) scale(0.14 -0.14)">
       <defs>
        <path id="CMR17-34" d="M 2150 4122 
C 2150 4256 2144 4256 2029 4256 
L 128 1254 
L 128 1088 
L 1779 1088 
L 1779 457 
C 1779 224 1766 160 1318 160 
L 1197 160 
L 1197 0 
C 1402 0 1747 0 1965 0 
C 2182 0 2528 0 2733 0 
L 2733 160 
L 2611 160 
C 2163 160 2150 224 2150 457 
L 2150 1088 
L 2803 1088 
L 2803 1254 
L 2150 1254 
L 2150 4122 
z
M 1798 3703 
L 1798 1254 
L 256 1254 
L 1798 3703 
z
" transform="scale(0.015625)"/>
       </defs>
       <use xlink:href="#CMR17-30" transform="scale(0.996264)"/>
       <use xlink:href="#CMMI12-3a" transform="translate(45.690477 0) scale(0.996264)"/>
       <use xlink:href="#CMR17-34" transform="translate(72.787654 0) scale(0.996264)"/>
      </g>
     </g>
    </g>
    <g id="ytick_4">
     <g id="line2d_25">
      <path d="M 41.730582 244.057592 
L 935.517672 244.057592 
" clip-path="url(#pe4a30bd5b3)" style="fill: none; stroke: #ffffff; stroke-linecap: round"/>
     </g>
     <g id="line2d_26"/>
     <g id="text_14">
      <!-- $\mathdefault{0.6}$ -->
      <g style="fill: #262626" transform="translate(17.28 248.90053) scale(0.14 -0.14)">
       <defs>
        <path id="CMR17-36" d="M 678 2176 
C 678 3690 1395 4032 1811 4032 
C 1946 4032 2272 4009 2400 3776 
C 2298 3776 2106 3776 2106 3553 
C 2106 3381 2246 3323 2336 3323 
C 2394 3323 2566 3348 2566 3560 
C 2566 3954 2246 4179 1805 4179 
C 1043 4179 243 3390 243 1984 
C 243 253 966 -128 1478 -128 
C 2099 -128 2688 427 2688 1283 
C 2688 2081 2170 2662 1517 2662 
C 1126 2662 838 2407 678 1960 
L 678 2176 
z
M 1478 25 
C 691 25 691 1200 691 1436 
C 691 1896 909 2560 1504 2560 
C 1613 2560 1926 2560 2138 2120 
C 2253 1870 2253 1609 2253 1289 
C 2253 944 2253 690 2118 434 
C 1978 171 1773 25 1478 25 
z
" transform="scale(0.015625)"/>
       </defs>
       <use xlink:href="#CMR17-30" transform="scale(0.996264)"/>
       <use xlink:href="#CMMI12-3a" transform="translate(45.690477 0) scale(0.996264)"/>
       <use xlink:href="#CMR17-36" transform="translate(72.787654 0) scale(0.996264)"/>
      </g>
     </g>
    </g>
    <g id="ytick_5">
     <g id="line2d_27">
      <path d="M 41.730582 151.692446 
L 935.517672 151.692446 
" clip-path="url(#pe4a30bd5b3)" style="fill: none; stroke: #ffffff; stroke-linecap: round"/>
     </g>
     <g id="line2d_28"/>
     <g id="text_15">
      <!-- $\mathdefault{0.8}$ -->
      <g style="fill: #262626" transform="translate(17.28 156.535384) scale(0.14 -0.14)">
       <defs>
        <path id="CMR17-38" d="M 1741 2264 
C 2144 2467 2554 2773 2554 3263 
C 2554 3841 1990 4179 1472 4179 
C 890 4179 378 3759 378 3180 
C 378 3021 416 2747 666 2505 
C 730 2442 998 2251 1171 2130 
C 883 1983 211 1634 211 934 
C 211 279 838 -128 1459 -128 
C 2144 -128 2720 362 2720 1010 
C 2720 1590 2330 1857 2074 2029 
L 1741 2264 
z
M 902 2822 
C 851 2854 595 3051 595 3351 
C 595 3739 998 4032 1459 4032 
C 1965 4032 2336 3676 2336 3262 
C 2336 2669 1670 2331 1638 2331 
C 1632 2331 1626 2331 1574 2370 
L 902 2822 
z
M 2080 1519 
C 2176 1449 2483 1240 2483 851 
C 2483 381 2010 25 1472 25 
C 890 25 448 438 448 940 
C 448 1443 838 1862 1280 2060 
L 2080 1519 
z
" transform="scale(0.015625)"/>
       </defs>
       <use xlink:href="#CMR17-30" transform="scale(0.996264)"/>
       <use xlink:href="#CMMI12-3a" transform="translate(45.690477 0) scale(0.996264)"/>
       <use xlink:href="#CMR17-38" transform="translate(72.787654 0) scale(0.996264)"/>
      </g>
     </g>
    </g>
    <g id="ytick_6">
     <g id="line2d_29">
      <path d="M 41.730582 59.3273 
L 935.517672 59.3273 
" clip-path="url(#pe4a30bd5b3)" style="fill: none; stroke: #ffffff; stroke-linecap: round"/>
     </g>
     <g id="line2d_30"/>
     <g id="text_16">
      <!-- $\mathdefault{1.0}$ -->
      <g style="fill: #262626" transform="translate(17.28 64.170238) scale(0.14 -0.14)">
       <use xlink:href="#CMR17-31" transform="scale(0.996264)"/>
       <use xlink:href="#CMMI12-3a" transform="translate(45.690477 0) scale(0.996264)"/>
       <use xlink:href="#CMR17-30" transform="translate(72.787654 0) scale(0.996264)"/>
      </g>
     </g>
    </g>
   </g>
   <g id="line2d_31">
    <path d="M 41.730582 59.3273 
L 50.24284 59.788664 
L 58.755098 60.249567 
L 67.267356 60.71001 
L 75.779614 61.169994 
L 84.291872 61.629517 
L 92.80413 62.088581 
L 101.316388 62.547187 
L 109.828646 63.005335 
L 118.340904 63.463025 
L 126.853162 63.920258 
L 135.36542 64.377034 
L 143.877678 64.833353 
L 152.389936 65.289217 
L 160.902194 65.744626 
L 169.414452 66.199579 
L 177.92671 66.654078 
L 186.438968 67.108123 
L 194.951226 67.561714 
L 203.463484 68.014852 
L 211.975742 68.467538 
L 220.488 68.919771 
L 229.000258 69.371553 
L 237.512516 69.822883 
L 246.024774 70.273762 
L 254.537032 70.724191 
L 263.04929 71.17417 
L 271.561548 71.623699 
L 280.073806 72.072779 
L 288.586064 72.521411 
L 297.098322 72.969594 
L 305.61058 73.41733 
L 314.122838 73.864619 
L 322.635096 74.31146 
L 331.147354 74.757855 
L 339.659612 75.203805 
L 348.17187 75.649308 
L 356.684128 76.094367 
L 365.196386 76.538981 
L 373.708644 76.983151 
L 382.220902 77.426877 
L 390.73316 77.87016 
L 399.245418 78.313 
L 407.757676 78.755398 
L 416.269934 79.197353 
L 424.782192 79.638867 
L 433.29445 80.07994 
L 441.806708 80.520573 
L 450.318966 80.960765 
L 458.831224 81.400518 
L 467.343482 81.839831 
L 475.85574 82.278705 
L 484.367998 82.717141 
L 492.880256 83.155139 
L 501.392514 83.592699 
L 509.904772 84.029823 
L 518.41703 84.466509 
L 526.929288 84.902759 
L 535.441546 85.338574 
L 543.953804 85.773953 
L 552.466062 86.208897 
L 560.97832 86.643407 
L 569.490578 87.077482 
L 578.002836 87.511124 
L 586.515094 87.944333 
L 595.027352 88.377109 
L 603.53961 88.809452 
L 612.051868 89.241364 
L 620.564126 89.672844 
L 629.076384 90.103893 
L 637.588642 90.534512 
L 646.1009 90.9647 
L 654.613158 91.394459 
L 663.125416 91.823788 
L 671.637674 92.252688 
L 680.149932 92.68116 
L 688.66219 93.109204 
L 697.174448 93.53682 
L 705.686706 93.964009 
L 714.198964 94.390771 
L 722.711222 94.817107 
L 731.22348 95.243017 
L 739.735738 95.668502 
L 748.247996 96.093561 
L 756.760254 96.518196 
L 765.272512 96.942407 
L 773.78477 97.366194 
L 782.297028 97.789557 
L 790.809286 98.212498 
L 799.321544 98.635016 
L 807.833802 99.057112 
L 816.34606 99.478786 
L 824.858318 99.900039 
L 833.370576 100.320871 
L 841.882834 100.741283 
L 850.395092 101.161275 
L 858.90735 101.580847 
L 867.419608 102 
L 875.931866 102.418734 
L 884.444124 102.83705 
L 892.956382 103.254948 
" clip-path="url(#pe4a30bd5b3)" style="fill: none; stroke: #393b79; stroke-width: 2; stroke-linecap: round"/>
   </g>
   <g id="line2d_32">
    <path d="M 41.730582 59.3273 
L 50.24284 59.788664 
L 58.755098 60.249567 
L 67.267356 60.71001 
L 75.779614 61.169994 
L 84.291872 61.629517 
L 92.80413 62.088581 
L 101.316388 62.547187 
L 109.828646 63.005335 
L 118.340904 63.463025 
L 126.853162 63.920258 
L 135.36542 64.377034 
L 143.877678 64.833353 
L 152.389936 65.289217 
L 160.902194 65.744626 
L 169.414452 66.199579 
L 177.92671 66.654078 
L 186.438968 67.108123 
L 194.951226 67.561714 
L 203.463484 68.014852 
L 211.975742 68.467538 
L 220.488 68.919771 
L 229.000258 69.371553 
L 237.512516 69.822883 
L 246.024774 70.273762 
L 254.537032 70.724191 
L 263.04929 71.17417 
L 271.561548 71.623699 
L 280.073806 72.072779 
L 288.586064 72.521411 
L 297.098322 72.969594 
L 305.61058 73.41733 
L 314.122838 73.864619 
L 322.635096 74.31146 
L 331.147354 74.757855 
L 339.659612 75.203805 
L 348.17187 75.649308 
L 356.684128 76.094367 
L 365.196386 76.538981 
L 373.708644 76.983151 
L 382.220902 77.426877 
L 390.73316 77.87016 
L 399.245418 78.313 
L 407.757676 78.755398 
L 416.269934 79.197353 
L 424.782192 79.638867 
L 433.29445 80.07994 
L 441.806708 80.520573 
L 450.318966 80.960765 
L 458.831224 81.400518 
L 467.343482 81.839831 
L 475.85574 82.278705 
L 484.367998 82.717141 
L 492.880256 83.155139 
L 501.392514 83.592699 
L 509.904772 84.029823 
L 518.41703 84.466509 
L 526.929288 84.902759 
L 535.441546 85.338574 
L 543.953804 85.773953 
L 552.466062 86.208897 
L 560.97832 86.643407 
L 569.490578 87.077482 
L 578.002836 87.511124 
L 586.515094 87.944333 
L 595.027352 88.377109 
L 603.53961 88.809452 
L 612.051868 89.241364 
L 620.564126 89.672844 
L 629.076384 90.103893 
L 637.588642 90.534512 
L 646.1009 90.9647 
L 654.613158 91.394459 
L 663.125416 91.823788 
L 671.637674 92.252688 
L 680.149932 92.68116 
L 688.66219 93.109204 
L 697.174448 93.53682 
L 705.686706 93.964009 
L 714.198964 94.390771 
L 722.711222 94.817107 
L 731.22348 95.243017 
L 739.735738 95.668502 
L 748.247996 96.093561 
L 756.760254 96.518196 
L 765.272512 96.942407 
L 773.78477 97.366194 
L 782.297028 97.789557 
L 790.809286 98.212498 
L 799.321544 98.635016 
L 807.833802 99.057112 
L 816.34606 99.478786 
L 824.858318 99.900039 
L 833.370576 100.320871 
L 841.882834 100.741283 
L 850.395092 101.161275 
L 858.90735 101.580847 
L 867.419608 102 
L 875.931866 102.418734 
L 884.444124 102.83705 
L 892.956382 103.254948 
" clip-path="url(#pe4a30bd5b3)" style="fill: none; stroke: #8ca252; stroke-width: 2; stroke-linecap: round"/>
   </g>
   <g id="line2d_33">
    <path d="M 41.730582 59.3273 
L 50.24284 59.788664 
L 58.755098 60.249567 
L 67.267356 60.71001 
L 75.779614 61.169994 
L 84.291872 61.629517 
L 92.80413 62.088581 
L 101.316388 62.547187 
L 109.828646 63.005335 
L 118.340904 63.463025 
L 126.853162 63.920258 
L 135.36542 64.377034 
L 143.877678 64.833353 
L 152.389936 65.289217 
L 160.902194 65.744626 
L 169.414452 66.199579 
L 177.92671 66.654078 
L 186.438968 67.108123 
L 194.951226 67.561714 
L 203.463484 68.014852 
L 211.975742 68.467538 
L 220.488 68.919771 
L 229.000258 69.371553 
L 237.512516 69.822883 
L 246.024774 70.273762 
L 254.537032 70.724191 
L 263.04929 71.17417 
L 271.561548 71.623699 
L 280.073806 72.072779 
L 288.586064 72.521411 
L 297.098322 72.969594 
L 305.61058 73.41733 
L 314.122838 73.864619 
L 322.635096 74.31146 
L 331.147354 74.757855 
L 339.659612 75.203805 
L 348.17187 75.649308 
L 356.684128 76.094367 
L 365.196386 76.538981 
L 373.708644 76.983151 
L 382.220902 77.426877 
L 390.73316 77.87016 
L 399.245418 78.313 
L 407.757676 78.755398 
L 416.269934 79.197353 
L 424.782192 79.638867 
L 433.29445 80.07994 
L 441.806708 80.520573 
L 450.318966 80.960765 
L 458.831224 81.400518 
L 467.343482 81.839831 
L 475.85574 82.278705 
L 484.367998 82.717141 
L 492.880256 83.155139 
L 501.392514 83.592699 
L 509.904772 84.029823 
L 518.41703 84.466509 
L 526.929288 84.902759 
L 535.441546 85.338574 
L 543.953804 85.773953 
L 552.466062 86.208897 
L 560.97832 86.643407 
L 569.490578 87.077482 
L 578.002836 87.511124 
L 586.515094 87.944333 
L 595.027352 88.377109 
L 603.53961 88.809452 
L 612.051868 89.241364 
L 620.564126 89.672844 
L 629.076384 90.103893 
L 637.588642 90.534512 
L 646.1009 90.9647 
L 654.613158 91.394459 
L 663.125416 91.823788 
L 671.637674 92.252688 
L 680.149932 92.68116 
L 688.66219 93.109204 
L 697.174448 93.53682 
L 705.686706 93.964009 
L 714.198964 94.390771 
L 722.711222 94.817107 
L 731.22348 95.243017 
L 739.735738 95.668502 
L 748.247996 96.093561 
L 756.760254 96.518196 
L 765.272512 96.942407 
L 773.78477 97.366194 
L 782.297028 97.789557 
L 790.809286 98.212498 
L 799.321544 98.635016 
L 807.833802 99.057112 
L 816.34606 99.478786 
L 824.858318 99.900039 
L 833.370576 100.320871 
L 841.882834 100.741283 
L 850.395092 101.161275 
L 858.90735 101.580847 
L 867.419608 102 
L 875.931866 102.418734 
L 884.444124 102.83705 
L 892.956382 103.254948 
" clip-path="url(#pe4a30bd5b3)" style="fill: none; stroke: #e7ba52; stroke-width: 2; stroke-linecap: round"/>
   </g>
   <g id="line2d_34">
    <path d="M 41.730582 59.3273 
L 50.24284 59.788664 
L 58.755098 60.249567 
L 67.267356 60.71001 
L 75.779614 61.169994 
L 84.291872 61.629517 
L 92.80413 62.088581 
L 101.316388 62.547187 
L 109.828646 63.005335 
L 118.340904 63.463025 
L 126.853162 63.920258 
L 135.36542 64.377034 
L 143.877678 64.833353 
L 152.389936 65.289217 
L 160.902194 65.744626 
L 169.414452 66.199579 
L 177.92671 66.654078 
L 186.438968 67.108123 
L 194.951226 67.561714 
L 203.463484 68.014852 
L 211.975742 68.467538 
L 220.488 68.919771 
L 229.000258 69.371553 
L 237.512516 69.822883 
L 246.024774 70.273762 
L 254.537032 70.724191 
L 263.04929 71.17417 
L 271.561548 71.623699 
L 280.073806 72.072779 
L 288.586064 72.521411 
L 297.098322 72.969594 
L 305.61058 73.41733 
L 314.122838 73.864619 
L 322.635096 74.31146 
L 331.147354 74.757855 
L 339.659612 75.203805 
L 348.17187 75.649308 
L 356.684128 76.094367 
L 365.196386 76.538981 
L 373.708644 76.983151 
L 382.220902 77.426877 
L 390.73316 77.87016 
L 399.245418 78.313 
L 407.757676 78.755398 
L 416.269934 79.197353 
L 424.782192 79.638867 
L 433.29445 80.07994 
L 441.806708 80.520573 
L 450.318966 80.960765 
L 458.831224 81.400518 
L 467.343482 81.839831 
L 475.85574 82.278705 
L 484.367998 82.717141 
L 492.880256 83.155139 
L 501.392514 83.592699 
L 509.904772 84.029823 
L 518.41703 84.466509 
L 526.929288 84.902759 
L 535.441546 85.338574 
L 543.953804 85.773953 
L 552.466062 86.208897 
L 560.97832 86.643407 
L 569.490578 87.077482 
L 578.002836 87.511124 
L 586.515094 87.944333 
L 595.027352 88.377109 
L 603.53961 88.809452 
L 612.051868 89.241364 
L 620.564126 89.672844 
L 629.076384 90.103893 
L 637.588642 90.534512 
L 646.1009 90.9647 
L 654.613158 91.394459 
L 663.125416 91.823788 
L 671.637674 92.252688 
L 680.149932 92.68116 
L 688.66219 93.109204 
L 697.174448 93.53682 
L 705.686706 93.964009 
L 714.198964 94.390771 
L 722.711222 94.817107 
L 731.22348 95.243017 
L 739.735738 95.668502 
L 748.247996 96.093561 
L 756.760254 96.518196 
L 765.272512 96.942407 
L 773.78477 97.366194 
L 782.297028 97.789557 
L 790.809286 98.212498 
L 799.321544 98.635016 
L 807.833802 99.057112 
L 816.34606 99.478786 
L 824.858318 99.900039 
L 833.370576 100.320871 
L 841.882834 100.741283 
L 850.395092 101.161275 
L 858.90735 101.580847 
L 867.419608 102 
L 875.931866 102.418734 
L 884.444124 102.83705 
L 892.956382 103.254948 
" clip-path="url(#pe4a30bd5b3)" style="fill: none; stroke: #e7969c; stroke-width: 2; stroke-linecap: round"/>
   </g>
   <g id="line2d_35">
    <path d="M 41.730582 59.3273 
L 50.24284 59.788664 
L 58.755098 60.249567 
L 67.267356 60.71001 
L 75.779614 61.169994 
L 84.291872 61.629517 
L 92.80413 62.088581 
L 101.316388 62.547187 
L 109.828646 63.005335 
L 118.340904 63.463025 
L 126.853162 63.920258 
L 135.36542 64.377034 
L 143.877678 64.833353 
L 152.389936 65.289217 
L 160.902194 65.744626 
L 169.414452 66.199579 
L 177.92671 66.654078 
L 186.438968 67.108123 
L 194.951226 67.561714 
L 203.463484 68.014852 
L 211.975742 68.467538 
L 220.488 68.919771 
L 229.000258 69.371553 
L 237.512516 69.822883 
L 246.024774 70.273762 
L 254.537032 70.724191 
L 263.04929 71.17417 
L 271.561548 71.623699 
L 280.073806 72.072779 
L 288.586064 72.521411 
L 297.098322 72.969594 
L 305.61058 73.41733 
L 314.122838 73.864619 
L 322.635096 74.31146 
L 331.147354 74.757855 
L 339.659612 75.203805 
L 348.17187 75.649308 
L 356.684128 76.094367 
L 365.196386 76.538981 
L 373.708644 76.983151 
L 382.220902 77.426877 
L 390.73316 77.87016 
L 399.245418 78.313 
L 407.757676 78.755398 
L 416.269934 79.197353 
L 424.782192 79.638867 
L 433.29445 80.07994 
L 441.806708 80.520573 
L 450.318966 80.960765 
L 458.831224 81.400518 
L 467.343482 81.839831 
L 475.85574 82.278705 
L 484.367998 82.717141 
L 492.880256 83.155139 
L 501.392514 83.592699 
L 509.904772 84.029823 
L 518.41703 84.466509 
L 526.929288 84.902759 
L 535.441546 85.338574 
L 543.953804 85.773953 
L 552.466062 86.208897 
L 560.97832 86.643407 
L 569.490578 87.077482 
L 578.002836 87.511124 
L 586.515094 87.944333 
L 595.027352 88.377109 
L 603.53961 88.809452 
L 612.051868 89.241364 
L 620.564126 89.672844 
L 629.076384 90.103893 
L 637.588642 90.534512 
L 646.1009 90.9647 
L 654.613158 91.394459 
L 663.125416 91.823788 
L 671.637674 92.252688 
L 680.149932 92.68116 
L 688.66219 93.109204 
L 697.174448 93.53682 
L 705.686706 93.964009 
L 714.198964 94.390771 
L 722.711222 94.817107 
L 731.22348 95.243017 
L 739.735738 95.668502 
L 748.247996 96.093561 
L 756.760254 96.518196 
L 765.272512 96.942407 
L 773.78477 97.366194 
L 782.297028 97.789557 
L 790.809286 98.212498 
L 799.321544 98.635016 
L 807.833802 99.057112 
L 816.34606 99.478786 
L 824.858318 99.900039 
L 833.370576 100.320871 
L 841.882834 100.741283 
L 850.395092 101.161275 
L 858.90735 101.580847 
L 867.419608 102 
L 875.931866 102.418734 
L 884.444124 102.83705 
L 892.956382 103.254948 
" clip-path="url(#pe4a30bd5b3)" style="fill: none; stroke: #de9ed6; stroke-width: 2; stroke-linecap: round"/>
   </g>
   <g id="patch_3">
    <path d="M 41.730582 521.153031 
L 41.730582 57.130917 
" style="fill: none"/>
   </g>
   <g id="patch_4">
    <path d="M 935.517672 521.153031 
L 935.517672 57.130917 
" style="fill: none"/>
   </g>
   <g id="patch_5">
    <path d="M 41.730582 521.153031 
L 935.517672 521.153031 
" style="fill: none"/>
   </g>
   <g id="patch_6">
    <path d="M 41.730582 57.130917 
L 935.517672 57.130917 
" style="fill: none"/>
   </g>
   <g id="patch_7">
    <path d="M 467.343482 89.077844 
Q 467.343482 79.531763 467.343482 71.662732 
" style="fill: none; stroke: #000000; stroke-width: 1.5; stroke-linecap: round"/>
    <path d="M 464.143482 78.062732 
L 467.343482 71.662732 
L 470.543482 78.062732 
" style="fill: none; stroke: #000000; stroke-width: 1.5; stroke-linecap: round"/>
   </g>
   <g id="text_17">
    <!-- Time -->
    <g style="fill: #262626" transform="translate(488.624127 64.496995) scale(0.18 -0.18)">
     <defs>
      <path id="CMR17-54" d="M 3981 4326 
L 288 4326 
L 179 2918 
L 294 2918 
C 378 3976 467 4160 1453 4160 
C 1568 4160 1754 4160 1805 4154 
C 1926 4135 1926 4058 1926 3912 
L 1926 459 
C 1926 230 1907 160 1376 160 
L 1197 160 
L 1197 0 
C 1504 0 1824 0 2138 0 
C 2451 0 2771 0 3078 0 
L 3078 160 
L 2899 160 
C 2368 160 2349 230 2349 459 
L 2349 3912 
C 2349 4052 2349 4129 2464 4154 
C 2515 4160 2701 4160 2816 4160 
C 3795 4160 3891 3976 3974 2918 
L 4090 2918 
L 3981 4326 
z
" transform="scale(0.015625)"/>
      <path id="CMR17-69" d="M 992 3909 
C 992 4049 877 4170 730 4170 
C 589 4170 467 4056 467 3909 
C 467 3769 582 3648 730 3648 
C 870 3648 992 3763 992 3909 
z
M 243 2706 
L 243 2541 
C 602 2541 653 2502 653 2197 
L 653 427 
C 653 184 627 153 218 153 
L 218 -13 
C 371 0 646 0 806 0 
C 960 0 1222 0 1370 -13 
L 1370 153 
C 992 153 979 191 979 420 
L 979 2776 
L 243 2706 
z
" transform="scale(0.015625)"/>
      <path id="CMR17-6d" d="M 4326 1933 
C 4326 2252 4269 2790 3507 2790 
C 3072 2790 2771 2496 2656 2151 
L 2650 2151 
C 2573 2676 2195 2790 1837 2790 
C 1331 2790 1069 2400 973 2144 
L 966 2144 
L 966 2790 
L 211 2720 
L 211 2554 
C 589 2554 646 2515 646 2208 
L 646 428 
C 646 184 621 153 211 153 
L 211 -13 
C 365 0 646 0 813 0 
C 979 0 1267 0 1421 -13 
L 1421 153 
C 1011 153 986 178 986 428 
L 986 1658 
C 986 2247 1344 2688 1792 2688 
C 2266 2688 2317 2266 2317 1958 
L 2317 428 
C 2317 184 2291 153 1882 153 
L 1882 -13 
C 2035 0 2317 0 2483 0 
C 2650 0 2938 0 3091 -13 
L 3091 153 
C 2682 153 2656 178 2656 428 
L 2656 1658 
C 2656 2247 3014 2688 3462 2688 
C 3936 2688 3987 2266 3987 1958 
L 3987 428 
C 3987 184 3962 153 3552 153 
L 3552 -13 
C 3706 0 3987 0 4154 0 
C 4320 0 4608 0 4762 -13 
L 4762 153 
C 4352 153 4326 178 4326 428 
L 4326 1933 
z
" transform="scale(0.015625)"/>
      <path id="CMR17-65" d="M 2438 1472 
C 2464 1498 2464 1511 2464 1576 
C 2464 2238 2118 2816 1389 2816 
C 710 2816 173 2169 173 1383 
C 173 551 781 -64 1459 -64 
C 2176 -64 2458 607 2458 740 
C 2458 784 2419 784 2406 784 
C 2362 784 2355 771 2330 696 
C 2189 265 1837 51 1504 51 
C 1229 51 954 203 781 480 
C 582 803 582 1176 582 1472 
L 2438 1472 
z
M 589 1568 
C 634 2505 1126 2714 1382 2714 
C 1818 2714 2112 2297 2118 1568 
L 589 1568 
z
" transform="scale(0.015625)"/>
     </defs>
     <use xlink:href="#CMR17-54" transform="scale(0.996264)"/>
     <use xlink:href="#CMR17-69" transform="translate(66.509881 0) scale(0.996264)"/>
     <use xlink:href="#CMR17-6d" transform="translate(91.380939 0) scale(0.996264)"/>
     <use xlink:href="#CMR17-65" transform="translate(168.300529 0) scale(0.996264)"/>
    </g>
   </g>
   <g id="legend_1">
    <g id="line2d_36">
     <path d="M 948.117672 248.761903 
L 962.117672 248.761903 
L 976.117672 248.761903 
" style="fill: none; stroke: #393b79; stroke-width: 2; stroke-linecap: round"/>
    </g>
    <g id="text_18">
     <!-- t = 10.00 -->
     <g style="fill: #262626" transform="translate(987.317672 253.661903) scale(0.14 -0.14)">
      <defs>
       <path id="CMR17-74" d="M 966 2560 
L 1862 2560 
L 1862 2725 
L 966 2725 
L 966 3904 
L 851 3904 
C 838 3245 614 2668 70 2668 
L 70 2560 
L 627 2560 
L 627 771 
C 627 650 627 -64 1370 -64 
C 1747 -64 1965 306 1965 777 
L 1965 1140 
L 1850 1140 
L 1850 783 
C 1850 344 1677 51 1408 51 
C 1222 51 966 178 966 758 
L 966 2560 
z
" transform="scale(0.015625)"/>
       <path id="CMR17-3d" d="M 4115 2017 
C 4211 2017 4307 2017 4307 2125 
C 4307 2240 4198 2240 4090 2240 
L 512 2240 
C 403 2240 294 2240 294 2125 
C 294 2017 390 2017 486 2017 
L 4115 2017 
z
M 4090 896 
C 4198 896 4307 896 4307 1011 
C 4307 1119 4211 1119 4115 1119 
L 486 1119 
C 390 1119 294 1119 294 1011 
C 294 896 403 896 512 896 
L 4090 896 
z
" transform="scale(0.015625)"/>
       <path id="CMR17-2e" d="M 1062 261 
C 1062 420 934 522 800 522 
C 672 522 538 420 538 261 
C 538 102 666 0 800 0 
C 928 0 1062 102 1062 261 
z
" transform="scale(0.015625)"/>
      </defs>
      <use xlink:href="#CMR17-74" transform="scale(0.996264)"/>
      <use xlink:href="#CMR17-3d" transform="translate(65.356734 0) scale(0.996264)"/>
      <use xlink:href="#CMR17-31" transform="translate(167.147489 0) scale(0.996264)"/>
      <use xlink:href="#CMR17-30" transform="translate(212.837966 0) scale(0.996264)"/>
      <use xlink:href="#CMR17-2e" transform="translate(258.528443 0) scale(0.996264)"/>
      <use xlink:href="#CMR17-30" transform="translate(283.399502 0) scale(0.996264)"/>
      <use xlink:href="#CMR17-30" transform="translate(329.089979 0) scale(0.996264)"/>
     </g>
    </g>
    <g id="line2d_37">
     <path d="M 948.117672 268.273931 
L 962.117672 268.273931 
L 976.117672 268.273931 
" style="fill: none; stroke: #8ca252; stroke-width: 2; stroke-linecap: round"/>
    </g>
    <g id="text_19">
     <!-- t = 100.00 -->
     <g style="fill: #262626" transform="translate(987.317672 273.173931) scale(0.14 -0.14)">
      <use xlink:href="#CMR17-74" transform="scale(0.996264)"/>
      <use xlink:href="#CMR17-3d" transform="translate(65.356734 0) scale(0.996264)"/>
      <use xlink:href="#CMR17-31" transform="translate(167.147489 0) scale(0.996264)"/>
      <use xlink:href="#CMR17-30" transform="translate(212.837966 0) scale(0.996264)"/>
      <use xlink:href="#CMR17-30" transform="translate(258.528443 0) scale(0.996264)"/>
      <use xlink:href="#CMR17-2e" transform="translate(304.21892 0) scale(0.996264)"/>
      <use xlink:href="#CMR17-30" transform="translate(329.089979 0) scale(0.996264)"/>
      <use xlink:href="#CMR17-30" transform="translate(374.780456 0) scale(0.996264)"/>
     </g>
    </g>
    <g id="line2d_38">
     <path d="M 948.117672 287.78596 
L 962.117672 287.78596 
L 976.117672 287.78596 
" style="fill: none; stroke: #e7ba52; stroke-width: 2; stroke-linecap: round"/>
    </g>
    <g id="text_20">
     <!-- t = 500.00 -->
     <g style="fill: #262626" transform="translate(987.317672 292.68596) scale(0.14 -0.14)">
      <use xlink:href="#CMR17-74" transform="scale(0.996264)"/>
      <use xlink:href="#CMR17-3d" transform="translate(65.356734 0) scale(0.996264)"/>
      <use xlink:href="#CMR17-35" transform="translate(167.147489 0) scale(0.996264)"/>
      <use xlink:href="#CMR17-30" transform="translate(212.837966 0) scale(0.996264)"/>
      <use xlink:href="#CMR17-30" transform="translate(258.528443 0) scale(0.996264)"/>
      <use xlink:href="#CMR17-2e" transform="translate(304.21892 0) scale(0.996264)"/>
      <use xlink:href="#CMR17-30" transform="translate(329.089979 0) scale(0.996264)"/>
      <use xlink:href="#CMR17-30" transform="translate(374.780456 0) scale(0.996264)"/>
     </g>
    </g>
    <g id="line2d_39">
     <path d="M 948.117672 307.297988 
L 962.117672 307.297988 
L 976.117672 307.297988 
" style="fill: none; stroke: #e7969c; stroke-width: 2; stroke-linecap: round"/>
    </g>
    <g id="text_21">
     <!-- t = 1000.00 -->
     <g style="fill: #262626" transform="translate(987.317672 312.197988) scale(0.14 -0.14)">
      <use xlink:href="#CMR17-74" transform="scale(0.996264)"/>
      <use xlink:href="#CMR17-3d" transform="translate(65.356734 0) scale(0.996264)"/>
      <use xlink:href="#CMR17-31" transform="translate(167.147489 0) scale(0.996264)"/>
      <use xlink:href="#CMR17-30" transform="translate(212.837966 0) scale(0.996264)"/>
      <use xlink:href="#CMR17-30" transform="translate(258.528443 0) scale(0.996264)"/>
      <use xlink:href="#CMR17-30" transform="translate(304.21892 0) scale(0.996264)"/>
      <use xlink:href="#CMR17-2e" transform="translate(349.909397 0) scale(0.996264)"/>
      <use xlink:href="#CMR17-30" transform="translate(374.780456 0) scale(0.996264)"/>
      <use xlink:href="#CMR17-30" transform="translate(420.470933 0) scale(0.996264)"/>
     </g>
    </g>
    <g id="line2d_40">
     <path d="M 948.117672 326.810017 
L 962.117672 326.810017 
L 976.117672 326.810017 
" style="fill: none; stroke: #de9ed6; stroke-width: 2; stroke-linecap: round"/>
    </g>
    <g id="text_22">
     <!-- t = 1500.00 -->
     <g style="fill: #262626" transform="translate(987.317672 331.710017) scale(0.14 -0.14)">
      <use xlink:href="#CMR17-74" transform="scale(0.996264)"/>
      <use xlink:href="#CMR17-3d" transform="translate(65.356734 0) scale(0.996264)"/>
      <use xlink:href="#CMR17-31" transform="translate(167.147489 0) scale(0.996264)"/>
      <use xlink:href="#CMR17-35" transform="translate(212.837966 0) scale(0.996264)"/>
      <use xlink:href="#CMR17-30" transform="translate(258.528443 0) scale(0.996264)"/>
      <use xlink:href="#CMR17-30" transform="translate(304.21892 0) scale(0.996264)"/>
      <use xlink:href="#CMR17-2e" transform="translate(349.909397 0) scale(0.996264)"/>
      <use xlink:href="#CMR17-30" transform="translate(374.780456 0) scale(0.996264)"/>
      <use xlink:href="#CMR17-30" transform="translate(420.470933 0) scale(0.996264)"/>
     </g>
    </g>
   </g>
  </g>
  <g id="text_23">
   <!-- concentration -->
   <g style="fill: #262626" transform="translate(488.224819 24.803515) scale(0.192 -0.192)">
    <defs>
     <path id="CMR17-63" d="M 2234 2240 
C 2112 2240 1933 2240 1933 2017 
C 1933 1838 2080 1787 2163 1787 
C 2208 1787 2394 1807 2394 2024 
C 2394 2467 1958 2803 1466 2803 
C 787 2803 211 2178 211 1363 
C 211 516 813 -64 1466 -64 
C 2259 -64 2458 677 2458 748 
C 2458 774 2451 793 2406 793 
C 2362 793 2355 787 2330 703 
C 2163 180 1798 51 1523 51 
C 1114 51 621 427 621 1369 
C 621 2338 1094 2688 1472 2688 
C 1722 2688 2093 2573 2234 2240 
z
" transform="scale(0.015625)"/>
     <path id="CMR17-6f" d="M 2758 1356 
C 2758 2176 2163 2816 1466 2816 
C 768 2816 173 2176 173 1356 
C 173 551 768 -64 1466 -64 
C 2163 -64 2758 551 2758 1356 
z
M 1466 51 
C 1165 51 909 230 762 480 
C 602 767 582 1126 582 1408 
C 582 1677 595 2010 762 2298 
C 890 2509 1139 2714 1466 2714 
C 1754 2714 1997 2554 2150 2330 
C 2349 2029 2349 1607 2349 1408 
C 2349 1158 2336 775 2163 467 
C 1984 173 1709 51 1466 51 
z
" transform="scale(0.015625)"/>
     <path id="CMR17-6e" d="M 2656 1933 
C 2656 2259 2592 2790 1837 2790 
C 1331 2790 1069 2400 973 2144 
L 966 2144 
L 966 2790 
L 211 2720 
L 211 2554 
C 589 2554 646 2515 646 2208 
L 646 428 
C 646 184 621 153 211 153 
L 211 -13 
C 365 0 646 0 813 0 
C 979 0 1267 0 1421 -13 
L 1421 153 
C 1011 153 986 178 986 428 
L 986 1658 
C 986 2247 1344 2688 1792 2688 
C 2266 2688 2317 2266 2317 1958 
L 2317 428 
C 2317 184 2291 153 1882 153 
L 1882 -13 
C 2035 0 2317 0 2483 0 
C 2650 0 2938 0 3091 -13 
L 3091 153 
C 2682 153 2656 178 2656 428 
L 2656 1933 
z
" transform="scale(0.015625)"/>
     <path id="CMR17-72" d="M 960 1497 
C 960 2112 1222 2688 1702 2688 
C 1747 2688 1792 2682 1837 2662 
C 1837 2662 1696 2617 1696 2452 
C 1696 2298 1818 2234 1914 2234 
C 1990 2234 2131 2279 2131 2458 
C 2131 2663 1926 2790 1709 2790 
C 1222 2790 1011 2317 947 2093 
L 941 2093 
L 941 2790 
L 198 2720 
L 198 2554 
C 576 2554 634 2515 634 2208 
L 634 428 
C 634 184 608 153 198 153 
L 198 -13 
C 352 0 646 0 813 0 
C 998 0 1325 0 1498 -13 
L 1498 153 
C 1037 153 960 153 960 440 
L 960 1497 
z
" transform="scale(0.015625)"/>
     <path id="CMR17-61" d="M 2304 1653 
C 2304 2072 2304 2294 2035 2543 
C 1798 2752 1523 2816 1306 2816 
C 800 2816 435 2407 435 1971 
C 435 1728 627 1728 666 1728 
C 749 1728 896 1778 896 1954 
C 896 2112 774 2181 666 2181 
C 640 2181 608 2174 589 2168 
C 723 2592 1069 2714 1293 2714 
C 1613 2714 1965 2429 1965 1885 
L 1965 1600 
C 1587 1600 1133 1549 774 1357 
C 371 1133 256 813 256 570 
C 256 77 832 -64 1171 -64 
C 1523 -64 1850 139 1990 511 
C 2003 233 2182 -18 2464 -18 
C 2598 -18 2938 70 2938 567 
L 2938 920 
L 2822 920 
L 2822 562 
C 2822 178 2650 128 2566 128 
C 2304 128 2304 458 2304 738 
L 2304 1653 
z
M 1965 870 
C 1965 317 1568 38 1216 38 
C 896 38 646 275 646 570 
C 646 761 730 1100 1101 1305 
C 1408 1478 1760 1504 1965 1504 
L 1965 870 
z
" transform="scale(0.015625)"/>
    </defs>
    <use xlink:href="#CMR17-63" transform="scale(0.996264)"/>
    <use xlink:href="#CMR17-6f" transform="translate(40.48566 0) scale(0.996264)"/>
    <use xlink:href="#CMR17-6e" transform="translate(86.176138 0) scale(0.996264)"/>
    <use xlink:href="#CMR17-63" transform="translate(137.071507 0) scale(0.996264)"/>
    <use xlink:href="#CMR17-65" transform="translate(177.557168 0) scale(0.996264)"/>
    <use xlink:href="#CMR17-6e" transform="translate(218.042828 0) scale(0.996264)"/>
    <use xlink:href="#CMR17-74" transform="translate(266.335744 0) scale(0.996264)"/>
    <use xlink:href="#CMR17-72" transform="translate(301.616512 0) scale(0.996264)"/>
    <use xlink:href="#CMR17-61" transform="translate(336.89728 0) scale(0.996264)"/>
    <use xlink:href="#CMR17-74" transform="translate(382.587757 0) scale(0.996264)"/>
    <use xlink:href="#CMR17-69" transform="translate(417.868525 0) scale(0.996264)"/>
    <use xlink:href="#CMR17-6f" transform="translate(442.739583 0) scale(0.996264)"/>
    <use xlink:href="#CMR17-6e" transform="translate(488.43006 0) scale(0.996264)"/>
   </g>
  </g>
 </g>
 <defs>
  <clipPath id="pe4a30bd5b3">
   <rect x="41.730582" y="57.130917" width="893.78709" height="464.022113"/>
  </clipPath>
 </defs>
</svg>
