<?xml version="1.0" encoding="utf-8" standalone="no"?>
<!DOCTYPE svg PUBLIC "-//W3C//DTD SVG 1.1//EN"
  "http://www.w3.org/Graphics/SVG/1.1/DTD/svg11.dtd">
<svg xmlns:xlink="http://www.w3.org/1999/xlink" width="1080pt" height="756pt" viewBox="0 0 1080 756" xmlns="http://www.w3.org/2000/svg" version="1.1">
 <metadata>
  <rdf:RDF xmlns:dc="http://purl.org/dc/elements/1.1/" xmlns:cc="http://creativecommons.org/ns#" xmlns:rdf="http://www.w3.org/1999/02/22-rdf-syntax-ns#">
   <cc:Work>
    <dc:type rdf:resource="http://purl.org/dc/dcmitype/StillImage"/>
    <dc:date>2024-07-30T20:11:23.354203</dc:date>
    <dc:format>image/svg+xml</dc:format>
    <dc:creator>
     <cc:Agent>
      <dc:title>Matplotlib v3.9.0, https://matplotlib.org/</dc:title>
     </cc:Agent>
    </dc:creator>
   </cc:Work>
  </rdf:RDF>
 </metadata>
 <defs>
  <style type="text/css">*{stroke-linejoin: round; stroke-linecap: butt}</style>
 </defs>
 <g id="figure_1">
  <g id="patch_1">
   <path d="M 0 756 
L 1080 756 
L 1080 0 
L 0 0 
z
" style="fill: #ffffff"/>
  </g>
  <g id="axes_1">
   <g id="patch_2">
    <path d="M 88.532127 678.237256 
L 1041.12 678.237256 
L 1041.12 38.88 
L 88.532127 38.88 
z
" style="fill: #ffffff"/>
   </g>
   <g id="matplotlib.axis_1">
    <g id="xtick_1">
     <g id="line2d_1">
      <defs>
       <path id="m34c06eb721" d="M 0 0 
L 0 3.5 
" style="stroke: #262626; stroke-width: 0.8"/>
      </defs>
      <g>
       <use xlink:href="#m34c06eb721" x="88.532127" y="678.237256" style="fill: #262626; stroke: #262626; stroke-width: 0.8"/>
      </g>
     </g>
     <g id="text_1">
      <!-- $\mathdefault{0}$ -->
      <g style="fill: #262626" transform="translate(80.307841 710.143856) scale(0.36 -0.36)">
       <defs>
        <path id="CMR17-30" d="M 2688 2025 
C 2688 2416 2682 3080 2413 3591 
C 2176 4039 1798 4198 1466 4198 
C 1158 4198 768 4058 525 3597 
C 269 3118 243 2524 243 2025 
C 243 1661 250 1106 448 619 
C 723 -39 1216 -128 1466 -128 
C 1760 -128 2208 -7 2470 600 
C 2662 1042 2688 1559 2688 2025 
z
M 1466 -26 
C 1056 -26 813 325 723 812 
C 653 1188 653 1738 653 2096 
C 653 2588 653 2997 736 3387 
C 858 3929 1216 4096 1466 4096 
C 1728 4096 2067 3923 2189 3400 
C 2272 3036 2278 2607 2278 2096 
C 2278 1680 2278 1169 2202 792 
C 2067 95 1690 -26 1466 -26 
z
" transform="scale(0.015625)"/>
       </defs>
       <use xlink:href="#CMR17-30" transform="scale(0.996264)"/>
      </g>
     </g>
    </g>
    <g id="xtick_2">
     <g id="line2d_2">
      <g>
       <use xlink:href="#m34c06eb721" x="283.63461" y="678.237256" style="fill: #262626; stroke: #262626; stroke-width: 0.8"/>
      </g>
     </g>
     <g id="text_2">
      <!-- $\mathdefault{200}$ -->
      <g style="fill: #262626" transform="translate(258.961753 710.143856) scale(0.36 -0.36)">
       <defs>
        <path id="CMR17-32" d="M 2669 989 
L 2554 989 
C 2490 536 2438 459 2413 420 
C 2381 369 1920 369 1830 369 
L 602 369 
C 832 619 1280 1072 1824 1597 
C 2214 1967 2669 2402 2669 3035 
C 2669 3790 2067 4224 1395 4224 
C 691 4224 262 3604 262 3030 
C 262 2780 448 2748 525 2748 
C 589 2748 781 2787 781 3010 
C 781 3207 614 3264 525 3264 
C 486 3264 448 3258 422 3245 
C 544 3790 915 4058 1306 4058 
C 1862 4058 2227 3617 2227 3035 
C 2227 2479 1901 2000 1536 1584 
L 262 146 
L 262 0 
L 2515 0 
L 2669 989 
z
" transform="scale(0.015625)"/>
       </defs>
       <use xlink:href="#CMR17-32" transform="scale(0.996264)"/>
       <use xlink:href="#CMR17-30" transform="translate(45.690477 0) scale(0.996264)"/>
       <use xlink:href="#CMR17-30" transform="translate(91.380954 0) scale(0.996264)"/>
      </g>
     </g>
    </g>
    <g id="xtick_3">
     <g id="line2d_3">
      <g>
       <use xlink:href="#m34c06eb721" x="478.737093" y="678.237256" style="fill: #262626; stroke: #262626; stroke-width: 0.8"/>
      </g>
     </g>
     <g id="text_3">
      <!-- $\mathdefault{400}$ -->
      <g style="fill: #262626" transform="translate(454.064235 710.143856) scale(0.36 -0.36)">
       <defs>
        <path id="CMR17-34" d="M 2150 4122 
C 2150 4256 2144 4256 2029 4256 
L 128 1254 
L 128 1088 
L 1779 1088 
L 1779 457 
C 1779 224 1766 160 1318 160 
L 1197 160 
L 1197 0 
C 1402 0 1747 0 1965 0 
C 2182 0 2528 0 2733 0 
L 2733 160 
L 2611 160 
C 2163 160 2150 224 2150 457 
L 2150 1088 
L 2803 1088 
L 2803 1254 
L 2150 1254 
L 2150 4122 
z
M 1798 3703 
L 1798 1254 
L 256 1254 
L 1798 3703 
z
" transform="scale(0.015625)"/>
       </defs>
       <use xlink:href="#CMR17-34" transform="scale(0.996264)"/>
       <use xlink:href="#CMR17-30" transform="translate(45.690477 0) scale(0.996264)"/>
       <use xlink:href="#CMR17-30" transform="translate(91.380954 0) scale(0.996264)"/>
      </g>
     </g>
    </g>
    <g id="xtick_4">
     <g id="line2d_4">
      <g>
       <use xlink:href="#m34c06eb721" x="673.839576" y="678.237256" style="fill: #262626; stroke: #262626; stroke-width: 0.8"/>
      </g>
     </g>
     <g id="text_4">
      <!-- $\mathdefault{600}$ -->
      <g style="fill: #262626" transform="translate(649.166718 710.143856) scale(0.36 -0.36)">
       <defs>
        <path id="CMR17-36" d="M 678 2176 
C 678 3690 1395 4032 1811 4032 
C 1946 4032 2272 4009 2400 3776 
C 2298 3776 2106 3776 2106 3553 
C 2106 3381 2246 3323 2336 3323 
C 2394 3323 2566 3348 2566 3560 
C 2566 3954 2246 4179 1805 4179 
C 1043 4179 243 3390 243 1984 
C 243 253 966 -128 1478 -128 
C 2099 -128 2688 427 2688 1283 
C 2688 2081 2170 2662 1517 2662 
C 1126 2662 838 2407 678 1960 
L 678 2176 
z
M 1478 25 
C 691 25 691 1200 691 1436 
C 691 1896 909 2560 1504 2560 
C 1613 2560 1926 2560 2138 2120 
C 2253 1870 2253 1609 2253 1289 
C 2253 944 2253 690 2118 434 
C 1978 171 1773 25 1478 25 
z
" transform="scale(0.015625)"/>
       </defs>
       <use xlink:href="#CMR17-36" transform="scale(0.996264)"/>
       <use xlink:href="#CMR17-30" transform="translate(45.690477 0) scale(0.996264)"/>
       <use xlink:href="#CMR17-30" transform="translate(91.380954 0) scale(0.996264)"/>
      </g>
     </g>
    </g>
    <g id="xtick_5">
     <g id="line2d_5">
      <g>
       <use xlink:href="#m34c06eb721" x="868.942059" y="678.237256" style="fill: #262626; stroke: #262626; stroke-width: 0.8"/>
      </g>
     </g>
     <g id="text_5">
      <!-- $\mathdefault{800}$ -->
      <g style="fill: #262626" transform="translate(844.269201 710.143856) scale(0.36 -0.36)">
       <defs>
        <path id="CMR17-38" d="M 1741 2264 
C 2144 2467 2554 2773 2554 3263 
C 2554 3841 1990 4179 1472 4179 
C 890 4179 378 3759 378 3180 
C 378 3021 416 2747 666 2505 
C 730 2442 998 2251 1171 2130 
C 883 1983 211 1634 211 934 
C 211 279 838 -128 1459 -128 
C 2144 -128 2720 362 2720 1010 
C 2720 1590 2330 1857 2074 2029 
L 1741 2264 
z
M 902 2822 
C 851 2854 595 3051 595 3351 
C 595 3739 998 4032 1459 4032 
C 1965 4032 2336 3676 2336 3262 
C 2336 2669 1670 2331 1638 2331 
C 1632 2331 1626 2331 1574 2370 
L 902 2822 
z
M 2080 1519 
C 2176 1449 2483 1240 2483 851 
C 2483 381 2010 25 1472 25 
C 890 25 448 438 448 940 
C 448 1443 838 1862 1280 2060 
L 2080 1519 
z
" transform="scale(0.015625)"/>
       </defs>
       <use xlink:href="#CMR17-38" transform="scale(0.996264)"/>
       <use xlink:href="#CMR17-30" transform="translate(45.690477 0) scale(0.996264)"/>
       <use xlink:href="#CMR17-30" transform="translate(91.380954 0) scale(0.996264)"/>
      </g>
     </g>
    </g>
   </g>
   <g id="matplotlib.axis_2">
    <g id="ytick_1">
     <g id="line2d_6">
      <defs>
       <path id="m8c8d5e7e91" d="M 0 0 
L -3.5 0 
" style="stroke: #262626; stroke-width: 0.8"/>
      </defs>
      <g>
       <use xlink:href="#m8c8d5e7e91" x="88.532127" y="585.566182" style="fill: #262626; stroke: #262626; stroke-width: 0.8"/>
      </g>
     </g>
     <g id="text_6">
      <!-- $\mathdefault{0.2}$ -->
      <g style="fill: #262626" transform="translate(38.88 598.019483) scale(0.36 -0.36)">
       <defs>
        <path id="CMMI12-3a" d="M 1178 307 
C 1178 492 1024 619 870 619 
C 685 619 557 466 557 313 
C 557 128 710 0 864 0 
C 1050 0 1178 153 1178 307 
z
" transform="scale(0.015625)"/>
       </defs>
       <use xlink:href="#CMR17-30" transform="scale(0.996264)"/>
       <use xlink:href="#CMMI12-3a" transform="translate(45.690477 0) scale(0.996264)"/>
       <use xlink:href="#CMR17-32" transform="translate(72.787654 0) scale(0.996264)"/>
      </g>
     </g>
    </g>
    <g id="ytick_2">
     <g id="line2d_7">
      <g>
       <use xlink:href="#m8c8d5e7e91" x="88.532127" y="456.16006" style="fill: #262626; stroke: #262626; stroke-width: 0.8"/>
      </g>
     </g>
     <g id="text_7">
      <!-- $\mathdefault{0.4}$ -->
      <g style="fill: #262626" transform="translate(38.88 468.61336) scale(0.36 -0.36)">
       <use xlink:href="#CMR17-30" transform="scale(0.996264)"/>
       <use xlink:href="#CMMI12-3a" transform="translate(45.690477 0) scale(0.996264)"/>
       <use xlink:href="#CMR17-34" transform="translate(72.787654 0) scale(0.996264)"/>
      </g>
     </g>
    </g>
    <g id="ytick_3">
     <g id="line2d_8">
      <g>
       <use xlink:href="#m8c8d5e7e91" x="88.532127" y="326.753938" style="fill: #262626; stroke: #262626; stroke-width: 0.8"/>
      </g>
     </g>
     <g id="text_8">
      <!-- $\mathdefault{0.6}$ -->
      <g style="fill: #262626" transform="translate(38.88 339.207238) scale(0.36 -0.36)">
       <use xlink:href="#CMR17-30" transform="scale(0.996264)"/>
       <use xlink:href="#CMMI12-3a" transform="translate(45.690477 0) scale(0.996264)"/>
       <use xlink:href="#CMR17-36" transform="translate(72.787654 0) scale(0.996264)"/>
      </g>
     </g>
    </g>
    <g id="ytick_4">
     <g id="line2d_9">
      <g>
       <use xlink:href="#m8c8d5e7e91" x="88.532127" y="197.347816" style="fill: #262626; stroke: #262626; stroke-width: 0.8"/>
      </g>
     </g>
     <g id="text_9">
      <!-- $\mathdefault{0.8}$ -->
      <g style="fill: #262626" transform="translate(38.88 209.801116) scale(0.36 -0.36)">
       <use xlink:href="#CMR17-30" transform="scale(0.996264)"/>
       <use xlink:href="#CMMI12-3a" transform="translate(45.690477 0) scale(0.996264)"/>
       <use xlink:href="#CMR17-38" transform="translate(72.787654 0) scale(0.996264)"/>
      </g>
     </g>
    </g>
    <g id="ytick_5">
     <g id="line2d_10">
      <g>
       <use xlink:href="#m8c8d5e7e91" x="88.532127" y="67.941693" style="fill: #262626; stroke: #262626; stroke-width: 0.8"/>
      </g>
     </g>
     <g id="text_10">
      <!-- $\mathdefault{1.0}$ -->
      <g style="fill: #262626" transform="translate(38.88 80.394994) scale(0.36 -0.36)">
       <defs>
        <path id="CMR17-31" d="M 1702 4058 
C 1702 4192 1696 4192 1606 4192 
C 1357 3916 979 3827 621 3827 
C 602 3827 570 3827 563 3808 
C 557 3795 557 3782 557 3648 
C 755 3648 1088 3686 1344 3839 
L 1344 461 
C 1344 236 1331 160 781 160 
L 589 160 
L 589 0 
C 896 0 1216 0 1523 0 
C 1830 0 2150 0 2458 0 
L 2458 160 
L 2266 160 
C 1715 160 1702 230 1702 458 
L 1702 4058 
z
" transform="scale(0.015625)"/>
       </defs>
       <use xlink:href="#CMR17-31" transform="scale(0.996264)"/>
       <use xlink:href="#CMMI12-3a" transform="translate(45.690477 0) scale(0.996264)"/>
       <use xlink:href="#CMR17-30" transform="translate(72.787654 0) scale(0.996264)"/>
      </g>
     </g>
    </g>
   </g>
   <g id="line2d_11">
    <path d="M 88.532127 67.941694 
L 98.287251 81.400451 
L 108.042376 95.029095 
L 117.7975 108.35857 
L 127.552624 121.397848 
L 137.307748 134.155828 
L 147.062872 146.640746 
L 156.817996 158.860521 
L 166.57312 170.822492 
L 176.328245 182.534469 
L 186.083369 194.00416 
L 195.838493 205.238003 
L 205.593617 216.241974 
L 215.348741 227.022973 
L 225.103865 237.587493 
L 234.858989 247.93985 
L 244.614114 258.087063 
L 254.369238 268.035246 
L 264.124362 277.788733 
L 273.879486 287.351196 
L 283.63461 296.729319 
L 293.389734 305.928497 
L 303.144858 314.950489 
L 312.899983 323.800936 
L 322.655107 332.484876 
L 332.410231 341.006167 
L 342.165355 349.366674 
L 351.920479 357.571841 
L 361.675603 365.625772 
L 371.430727 373.530986 
L 381.185852 381.290516 
L 390.940976 388.90796 
L 400.6961 396.386356 
L 410.451224 403.728602 
L 420.206348 410.937455 
L 429.961472 418.015533 
L 439.716596 424.965804 
L 449.471721 431.791038 
L 459.226845 438.493244 
L 468.981969 445.074659 
L 478.737093 451.537395 
L 488.492217 457.883444 
L 498.247341 464.114739 
L 508.002465 470.234836 
L 517.75759 476.244548 
L 527.512714 482.145623 
L 537.267838 487.939711 
L 547.022962 493.628361 
L 556.778086 499.213025 
L 566.53321 504.696232 
L 576.288335 510.079832 
L 586.043459 515.364599 
L 595.798583 520.551881 
L 605.553707 525.642952 
L 615.308831 530.639009 
L 625.063955 535.541257 
L 634.819079 540.351539 
L 644.574204 545.070464 
L 654.329328 549.699046 
L 664.084452 554.238237 
L 673.839576 558.688922 
L 683.5947 563.051921 
L 693.349824 567.319229 
L 703.104948 571.489097 
L 712.860073 575.56397 
L 722.615197 579.542417 
L 732.370321 583.422773 
L 742.125445 587.188731 
L 751.880569 590.834421 
L 761.635693 594.358084 
L 771.390817 597.752943 
L 781.145942 601.011599 
L 790.901066 604.170675 
L 800.65619 607.224458 
L 810.411314 610.162026 
L 820.166438 612.988171 
L 829.921562 615.715188 
L 839.676686 618.339067 
L 849.431811 620.862094 
L 859.186935 623.29107 
L 868.942059 625.627624 
L 878.697183 627.874719 
L 888.452307 630.036718 
L 898.207431 632.11805 
L 907.962555 634.121645 
L 917.71768 636.050863 
L 927.472804 637.907071 
L 937.227928 639.694381 
L 946.983052 641.415963 
L 956.738176 643.073924 
L 966.4933 644.671087 
L 976.248424 646.210597 
L 986.003549 647.694832 
L 995.758673 649.124938 
" clip-path="url(#pf7bbbd9e27)" style="fill: none; stroke: #1f77b4; stroke-width: 5; stroke-linecap: round"/>
   </g>
   <g id="line2d_12">
    <path d="M 88.532127 67.941696 
L 98.287251 94.632655 
L 108.042376 121.078494 
L 117.7975 146.391091 
L 127.552624 170.636672 
L 137.307748 193.87611 
L 147.062872 216.166939 
L 156.817996 237.560393 
L 166.57312 258.103833 
L 176.328245 277.845382 
L 186.083369 296.821814 
L 195.838493 315.075909 
L 205.593617 332.639561 
L 215.348741 349.54837 
L 225.103865 365.831169 
L 234.858989 381.517751 
L 244.614114 396.632895 
L 254.369238 411.201181 
L 264.124362 425.244524 
L 273.879486 438.785231 
L 283.63461 451.84101 
L 293.389734 464.428465 
L 303.144858 476.566356 
L 312.899983 488.268486 
L 322.655107 499.547514 
L 332.410231 510.418105 
L 342.165355 520.893032 
L 351.920479 530.981927 
L 361.675603 540.694944 
L 371.430727 550.042022 
L 381.185852 559.030563 
L 390.940976 567.66839 
L 400.6961 575.967466 
L 410.451224 583.933346 
L 420.206348 591.57296 
L 429.961472 598.88737 
L 439.716596 605.88173 
L 449.471721 612.558905 
L 459.226845 618.931174 
L 468.981969 625.009456 
L 478.737093 630.803018 
L 488.492217 636.26659 
L 498.247341 641.331587 
L 508.002465 646.016642 
" clip-path="url(#pf7bbbd9e27)" style="fill: none; stroke: #ff7f0e; stroke-width: 5; stroke-linecap: round"/>
   </g>
   <g id="line2d_13">
    <path d="M 88.532127 67.9417 
L 98.287251 107.643287 
L 108.042376 146.143017 
L 117.7975 182.226157 
L 127.552624 216.096842 
L 137.307748 247.933883 
L 147.062872 277.904384 
L 156.817996 306.150279 
L 166.57312 332.789131 
L 176.328245 357.949396 
L 186.083369 381.758943 
L 195.838493 404.233803 
L 205.593617 425.516029 
L 215.348741 445.65801 
L 225.103865 464.760719 
L 234.858989 482.796243 
L 244.614114 499.878627 
L 254.369238 516.050637 
L 264.124362 531.326314 
L 273.879486 545.743064 
L 283.63461 559.370665 
L 293.389734 572.171651 
L 303.144858 584.240456 
L 312.899983 595.563709 
L 322.655107 606.154114 
L 332.410231 616.071032 
L 342.165355 625.300935 
L 351.920479 633.881456 
L 361.675603 641.834095 
L 371.430727 649.175563 
" clip-path="url(#pf7bbbd9e27)" style="fill: none; stroke: #2ca02c; stroke-width: 5; stroke-linecap: round"/>
   </g>
   <g id="line2d_14">
    <path d="M 88.532127 67.941693 
L 98.287251 120.437408 
L 108.042376 170.265729 
L 117.7975 216.020651 
L 127.552624 258.144486 
L 137.307748 297.017338 
L 147.062872 332.960368 
L 156.817996 366.254287 
L 166.57312 397.138063 
L 176.328245 425.816085 
L 186.083369 452.468389 
L 195.838493 477.225789 
L 205.593617 500.218276 
L 215.348741 521.605936 
L 225.103865 541.420849 
L 234.858989 559.733311 
L 244.614114 576.652724 
L 254.369238 592.226215 
L 264.124362 606.510742 
L 273.879486 619.555531 
L 283.63461 631.412902 
L 293.389734 642.138848 
" clip-path="url(#pf7bbbd9e27)" style="fill: none; stroke: #d62728; stroke-width: 5; stroke-linecap: round"/>
   </g>
   <g id="line2d_15">
    <path d="M 88.532127 67.941693 
L 98.287251 133.018998 
L 108.042376 193.497548 
L 117.7975 247.92938 
L 127.552624 297.109693 
L 137.307748 341.692015 
L 147.062872 382.211943 
L 156.817996 419.114169 
L 166.57312 452.76501 
L 176.328245 483.462526 
L 186.083369 511.449209 
L 195.838493 536.945678 
L 205.593617 560.052163 
L 215.348741 581.020076 
L 225.103865 599.840865 
L 234.858989 616.742223 
L 244.614114 631.722543 
L 254.369238 644.939643 
" clip-path="url(#pf7bbbd9e27)" style="fill: none; stroke: #9467bd; stroke-width: 5; stroke-linecap: round"/>
   </g>
   <g id="line2d_16">
    <path d="M 88.532127 67.941693 
L 98.287251 145.387079 
L 108.042376 215.874072 
L 117.7975 278.082433 
L 127.552624 333.272115 
L 137.307748 382.448693 
L 147.062872 426.36249 
L 156.817996 465.71083 
L 166.57312 500.883131 
L 176.328245 532.354268 
L 186.083369 560.399962 
L 195.838493 585.247484 
L 205.593617 607.117638 
L 215.348741 626.179307 
L 225.103865 642.629186 
" clip-path="url(#pf7bbbd9e27)" style="fill: none; stroke: #8c564b; stroke-width: 5; stroke-linecap: round"/>
   </g>
   <g id="line2d_17">
    <path d="M 88.532127 67.941693 
L 98.287251 157.551785 
L 108.042376 237.439321 
L 117.7975 306.603721 
L 127.552624 366.868814 
L 137.307748 419.678608 
L 147.062872 466.038101 
L 156.817996 506.753383 
L 166.57312 542.449751 
L 176.328245 573.58122 
L 186.083369 600.505277 
L 195.838493 623.53336 
L 205.593617 642.961027 
" clip-path="url(#pf7bbbd9e27)" style="fill: none; stroke: #e377c2; stroke-width: 5; stroke-linecap: round"/>
   </g>
   <g id="line2d_18">
    <path d="M 88.532127 67.941693 
L 98.287251 169.515313 
L 108.042376 258.219319 
L 117.7975 333.593026 
L 127.552624 398.138147 
L 137.307748 453.688062 
L 147.062872 501.575001 
L 156.817996 542.771303 
L 166.57312 577.991307 
L 176.328245 607.776683 
L 186.083369 632.545997 
" clip-path="url(#pf7bbbd9e27)" style="fill: none; stroke: #7f7f7f; stroke-width: 5; stroke-linecap: round"/>
   </g>
   <g id="line2d_19">
    <path d="M 88.532127 67.941693 
L 98.287251 181.282805 
L 108.042376 278.272471 
L 117.7975 359.164135 
L 127.552624 427.249561 
L 137.307748 484.793109 
L 147.062872 533.436455 
L 156.817996 574.250122 
L 166.57312 608.092633 
L 176.328245 635.57609 
" clip-path="url(#pf7bbbd9e27)" style="fill: none; stroke: #bcbd22; stroke-width: 5; stroke-linecap: round"/>
   </g>
   <g id="line2d_20">
    <path d="M 88.532127 67.941693 
L 98.287251 192.856827 
L 108.042376 297.609364 
L 117.7975 383.389131 
L 127.552624 454.339181 
L 137.307748 513.187249 
L 147.062872 561.815284 
L 156.817996 601.483119 
L 166.57312 633.139795 
" clip-path="url(#pf7bbbd9e27)" style="fill: none; stroke: #17becf; stroke-width: 5; stroke-linecap: round"/>
   </g>
   <g id="line2d_21">
    <path d="M 88.532127 650.269244 
L 1041.12 650.269244 
" clip-path="url(#pf7bbbd9e27)" style="fill: none; stroke-dasharray: 18.5,8; stroke-dashoffset: 0; stroke: #ffa500; stroke-width: 5"/>
   </g>
   <g id="patch_3">
    <path d="M 88.532127 678.237256 
L 88.532127 38.88 
" style="fill: none; stroke: #262626; stroke-width: 0.8; stroke-linejoin: miter; stroke-linecap: square"/>
   </g>
   <g id="patch_4">
    <path d="M 88.532127 678.237256 
L 1041.12 678.237256 
" style="fill: none; stroke: #262626; stroke-width: 0.8; stroke-linejoin: miter; stroke-linecap: square"/>
   </g>
  </g>
 </g>
 <defs>
  <clipPath id="pf7bbbd9e27">
   <rect x="88.532127" y="38.88" width="952.587873" height="639.357256"/>
  </clipPath>
 </defs>
</svg>
