<?xml version="1.0" encoding="utf-8" standalone="no"?>
<!DOCTYPE svg PUBLIC "-//W3C//DTD SVG 1.1//EN"
  "http://www.w3.org/Graphics/SVG/1.1/DTD/svg11.dtd">
<svg xmlns:xlink="http://www.w3.org/1999/xlink" width="1080pt" height="756pt" viewBox="0 0 1080 756" xmlns="http://www.w3.org/2000/svg" version="1.1">
 <metadata>
  <rdf:RDF xmlns:dc="http://purl.org/dc/elements/1.1/" xmlns:cc="http://creativecommons.org/ns#" xmlns:rdf="http://www.w3.org/1999/02/22-rdf-syntax-ns#">
   <cc:Work>
    <dc:type rdf:resource="http://purl.org/dc/dcmitype/StillImage"/>
    <dc:date>2024-07-30T18:54:59.132933</dc:date>
    <dc:format>image/svg+xml</dc:format>
    <dc:creator>
     <cc:Agent>
      <dc:title>Matplotlib v3.9.0, https://matplotlib.org/</dc:title>
     </cc:Agent>
    </dc:creator>
   </cc:Work>
  </rdf:RDF>
 </metadata>
 <defs>
  <style type="text/css">*{stroke-linejoin: round; stroke-linecap: butt}</style>
 </defs>
 <g id="figure_1">
  <g id="patch_1">
   <path d="M 0 756 
L 1080 756 
L 1080 0 
L 0 0 
z
" style="fill: #ffffff"/>
  </g>
  <g id="axes_1">
   <g id="patch_2">
    <path d="M 88.532127 678.237256 
L 1041.12 678.237256 
L 1041.12 38.88 
L 88.532127 38.88 
z
" style="fill: #ffffff"/>
   </g>
   <g id="matplotlib.axis_1">
    <g id="xtick_1">
     <g id="line2d_1">
      <defs>
       <path id="m799bef26c2" d="M 0 0 
L 0 3.5 
" style="stroke: #262626; stroke-width: 0.8"/>
      </defs>
      <g>
       <use xlink:href="#m799bef26c2" x="88.532127" y="678.237256" style="fill: #262626; stroke: #262626; stroke-width: 0.8"/>
      </g>
     </g>
     <g id="text_1">
      <!-- $\mathdefault{0}$ -->
      <g style="fill: #262626" transform="translate(80.307841 710.143856) scale(0.36 -0.36)">
       <defs>
        <path id="CMR17-30" d="M 2688 2025 
C 2688 2416 2682 3080 2413 3591 
C 2176 4039 1798 4198 1466 4198 
C 1158 4198 768 4058 525 3597 
C 269 3118 243 2524 243 2025 
C 243 1661 250 1106 448 619 
C 723 -39 1216 -128 1466 -128 
C 1760 -128 2208 -7 2470 600 
C 2662 1042 2688 1559 2688 2025 
z
M 1466 -26 
C 1056 -26 813 325 723 812 
C 653 1188 653 1738 653 2096 
C 653 2588 653 2997 736 3387 
C 858 3929 1216 4096 1466 4096 
C 1728 4096 2067 3923 2189 3400 
C 2272 3036 2278 2607 2278 2096 
C 2278 1680 2278 1169 2202 792 
C 2067 95 1690 -26 1466 -26 
z
" transform="scale(0.015625)"/>
       </defs>
       <use xlink:href="#CMR17-30" transform="scale(0.996264)"/>
      </g>
     </g>
    </g>
    <g id="xtick_2">
     <g id="line2d_2">
      <g>
       <use xlink:href="#m799bef26c2" x="219.634229" y="678.237256" style="fill: #262626; stroke: #262626; stroke-width: 0.8"/>
      </g>
     </g>
     <g id="text_2">
      <!-- $\mathdefault{250}$ -->
      <g style="fill: #262626" transform="translate(194.961372 710.143856) scale(0.36 -0.36)">
       <defs>
        <path id="CMR17-32" d="M 2669 989 
L 2554 989 
C 2490 536 2438 459 2413 420 
C 2381 369 1920 369 1830 369 
L 602 369 
C 832 619 1280 1072 1824 1597 
C 2214 1967 2669 2402 2669 3035 
C 2669 3790 2067 4224 1395 4224 
C 691 4224 262 3604 262 3030 
C 262 2780 448 2748 525 2748 
C 589 2748 781 2787 781 3010 
C 781 3207 614 3264 525 3264 
C 486 3264 448 3258 422 3245 
C 544 3790 915 4058 1306 4058 
C 1862 4058 2227 3617 2227 3035 
C 2227 2479 1901 2000 1536 1584 
L 262 146 
L 262 0 
L 2515 0 
L 2669 989 
z
" transform="scale(0.015625)"/>
        <path id="CMR17-35" d="M 730 3692 
C 794 3666 1056 3584 1325 3584 
C 1920 3584 2246 3911 2432 4100 
C 2432 4157 2432 4192 2394 4192 
C 2387 4192 2374 4192 2323 4163 
C 2099 4058 1837 3973 1517 3973 
C 1325 3973 1037 3999 723 4139 
C 653 4171 640 4171 634 4171 
C 602 4171 595 4164 595 4037 
L 595 2203 
C 595 2089 595 2057 659 2057 
C 691 2057 704 2070 736 2114 
C 941 2401 1222 2522 1542 2522 
C 1766 2522 2246 2382 2246 1289 
C 2246 1085 2246 715 2054 421 
C 1894 159 1645 25 1370 25 
C 947 25 518 320 403 814 
C 429 807 480 795 506 795 
C 589 795 749 840 749 1038 
C 749 1210 627 1280 506 1280 
C 358 1280 262 1190 262 1011 
C 262 454 704 -128 1382 -128 
C 2042 -128 2669 440 2669 1264 
C 2669 2030 2170 2624 1549 2624 
C 1222 2624 947 2503 730 2274 
L 730 3692 
z
" transform="scale(0.015625)"/>
       </defs>
       <use xlink:href="#CMR17-32" transform="scale(0.996264)"/>
       <use xlink:href="#CMR17-35" transform="translate(45.690477 0) scale(0.996264)"/>
       <use xlink:href="#CMR17-30" transform="translate(91.380954 0) scale(0.996264)"/>
      </g>
     </g>
    </g>
    <g id="xtick_3">
     <g id="line2d_3">
      <g>
       <use xlink:href="#m799bef26c2" x="350.736331" y="678.237256" style="fill: #262626; stroke: #262626; stroke-width: 0.8"/>
      </g>
     </g>
     <g id="text_3">
      <!-- $\mathdefault{500}$ -->
      <g style="fill: #262626" transform="translate(326.063474 710.143856) scale(0.36 -0.36)">
       <use xlink:href="#CMR17-35" transform="scale(0.996264)"/>
       <use xlink:href="#CMR17-30" transform="translate(45.690477 0) scale(0.996264)"/>
       <use xlink:href="#CMR17-30" transform="translate(91.380954 0) scale(0.996264)"/>
      </g>
     </g>
    </g>
    <g id="xtick_4">
     <g id="line2d_4">
      <g>
       <use xlink:href="#m799bef26c2" x="481.838433" y="678.237256" style="fill: #262626; stroke: #262626; stroke-width: 0.8"/>
      </g>
     </g>
     <g id="text_4">
      <!-- $\mathdefault{750}$ -->
      <g style="fill: #262626" transform="translate(457.165575 710.143856) scale(0.36 -0.36)">
       <defs>
        <path id="CMR17-37" d="M 2886 3941 
L 2886 4081 
L 1382 4081 
C 634 4081 621 4165 595 4288 
L 480 4288 
L 294 3094 
L 410 3094 
C 429 3215 474 3540 550 3661 
C 589 3712 1062 3712 1171 3712 
L 2579 3712 
L 1869 2661 
C 1395 1954 1069 999 1069 165 
C 1069 89 1069 -128 1299 -128 
C 1530 -128 1530 89 1530 171 
L 1530 465 
C 1530 1508 1709 2196 2003 2636 
L 2886 3941 
z
" transform="scale(0.015625)"/>
       </defs>
       <use xlink:href="#CMR17-37" transform="scale(0.996264)"/>
       <use xlink:href="#CMR17-35" transform="translate(45.690477 0) scale(0.996264)"/>
       <use xlink:href="#CMR17-30" transform="translate(91.380954 0) scale(0.996264)"/>
      </g>
     </g>
    </g>
    <g id="xtick_5">
     <g id="line2d_5">
      <g>
       <use xlink:href="#m799bef26c2" x="612.940535" y="678.237256" style="fill: #262626; stroke: #262626; stroke-width: 0.8"/>
      </g>
     </g>
     <g id="text_5">
      <!-- $\mathdefault{1000}$ -->
      <g style="fill: #262626" transform="translate(580.043392 710.143856) scale(0.36 -0.36)">
       <defs>
        <path id="CMR17-31" d="M 1702 4058 
C 1702 4192 1696 4192 1606 4192 
C 1357 3916 979 3827 621 3827 
C 602 3827 570 3827 563 3808 
C 557 3795 557 3782 557 3648 
C 755 3648 1088 3686 1344 3839 
L 1344 461 
C 1344 236 1331 160 781 160 
L 589 160 
L 589 0 
C 896 0 1216 0 1523 0 
C 1830 0 2150 0 2458 0 
L 2458 160 
L 2266 160 
C 1715 160 1702 230 1702 458 
L 1702 4058 
z
" transform="scale(0.015625)"/>
       </defs>
       <use xlink:href="#CMR17-31" transform="scale(0.996264)"/>
       <use xlink:href="#CMR17-30" transform="translate(45.690477 0) scale(0.996264)"/>
       <use xlink:href="#CMR17-30" transform="translate(91.380954 0) scale(0.996264)"/>
       <use xlink:href="#CMR17-30" transform="translate(137.071431 0) scale(0.996264)"/>
      </g>
     </g>
    </g>
    <g id="xtick_6">
     <g id="line2d_6">
      <g>
       <use xlink:href="#m799bef26c2" x="744.042637" y="678.237256" style="fill: #262626; stroke: #262626; stroke-width: 0.8"/>
      </g>
     </g>
     <g id="text_6">
      <!-- $\mathdefault{1250}$ -->
      <g style="fill: #262626" transform="translate(711.145493 710.143856) scale(0.36 -0.36)">
       <use xlink:href="#CMR17-31" transform="scale(0.996264)"/>
       <use xlink:href="#CMR17-32" transform="translate(45.690477 0) scale(0.996264)"/>
       <use xlink:href="#CMR17-35" transform="translate(91.380954 0) scale(0.996264)"/>
       <use xlink:href="#CMR17-30" transform="translate(137.071431 0) scale(0.996264)"/>
      </g>
     </g>
    </g>
    <g id="xtick_7">
     <g id="line2d_7">
      <g>
       <use xlink:href="#m799bef26c2" x="875.144739" y="678.237256" style="fill: #262626; stroke: #262626; stroke-width: 0.8"/>
      </g>
     </g>
     <g id="text_7">
      <!-- $\mathdefault{1500}$ -->
      <g style="fill: #262626" transform="translate(842.247595 710.143856) scale(0.36 -0.36)">
       <use xlink:href="#CMR17-31" transform="scale(0.996264)"/>
       <use xlink:href="#CMR17-35" transform="translate(45.690477 0) scale(0.996264)"/>
       <use xlink:href="#CMR17-30" transform="translate(91.380954 0) scale(0.996264)"/>
       <use xlink:href="#CMR17-30" transform="translate(137.071431 0) scale(0.996264)"/>
      </g>
     </g>
    </g>
    <g id="xtick_8">
     <g id="line2d_8">
      <g>
       <use xlink:href="#m799bef26c2" x="1006.246841" y="678.237256" style="fill: #262626; stroke: #262626; stroke-width: 0.8"/>
      </g>
     </g>
     <g id="text_8">
      <!-- $\mathdefault{1750}$ -->
      <g style="fill: #262626" transform="translate(973.349697 710.143856) scale(0.36 -0.36)">
       <use xlink:href="#CMR17-31" transform="scale(0.996264)"/>
       <use xlink:href="#CMR17-37" transform="translate(45.690477 0) scale(0.996264)"/>
       <use xlink:href="#CMR17-35" transform="translate(91.380954 0) scale(0.996264)"/>
       <use xlink:href="#CMR17-30" transform="translate(137.071431 0) scale(0.996264)"/>
      </g>
     </g>
    </g>
   </g>
   <g id="matplotlib.axis_2">
    <g id="ytick_1">
     <g id="line2d_9">
      <defs>
       <path id="m62076d4471" d="M 0 0 
L -3.5 0 
" style="stroke: #262626; stroke-width: 0.8"/>
      </defs>
      <g>
       <use xlink:href="#m62076d4471" x="88.532127" y="585.034276" style="fill: #262626; stroke: #262626; stroke-width: 0.8"/>
      </g>
     </g>
     <g id="text_9">
      <!-- $\mathdefault{0.2}$ -->
      <g style="fill: #262626" transform="translate(38.88 597.487576) scale(0.36 -0.36)">
       <defs>
        <path id="CMMI12-3a" d="M 1178 307 
C 1178 492 1024 619 870 619 
C 685 619 557 466 557 313 
C 557 128 710 0 864 0 
C 1050 0 1178 153 1178 307 
z
" transform="scale(0.015625)"/>
       </defs>
       <use xlink:href="#CMR17-30" transform="scale(0.996264)"/>
       <use xlink:href="#CMMI12-3a" transform="translate(45.690477 0) scale(0.996264)"/>
       <use xlink:href="#CMR17-32" transform="translate(72.787654 0) scale(0.996264)"/>
      </g>
     </g>
    </g>
    <g id="ytick_2">
     <g id="line2d_10">
      <g>
       <use xlink:href="#m62076d4471" x="88.532127" y="455.76113" style="fill: #262626; stroke: #262626; stroke-width: 0.8"/>
      </g>
     </g>
     <g id="text_10">
      <!-- $\mathdefault{0.4}$ -->
      <g style="fill: #262626" transform="translate(38.88 468.214431) scale(0.36 -0.36)">
       <defs>
        <path id="CMR17-34" d="M 2150 4122 
C 2150 4256 2144 4256 2029 4256 
L 128 1254 
L 128 1088 
L 1779 1088 
L 1779 457 
C 1779 224 1766 160 1318 160 
L 1197 160 
L 1197 0 
C 1402 0 1747 0 1965 0 
C 2182 0 2528 0 2733 0 
L 2733 160 
L 2611 160 
C 2163 160 2150 224 2150 457 
L 2150 1088 
L 2803 1088 
L 2803 1254 
L 2150 1254 
L 2150 4122 
z
M 1798 3703 
L 1798 1254 
L 256 1254 
L 1798 3703 
z
" transform="scale(0.015625)"/>
       </defs>
       <use xlink:href="#CMR17-30" transform="scale(0.996264)"/>
       <use xlink:href="#CMMI12-3a" transform="translate(45.690477 0) scale(0.996264)"/>
       <use xlink:href="#CMR17-34" transform="translate(72.787654 0) scale(0.996264)"/>
      </g>
     </g>
    </g>
    <g id="ytick_3">
     <g id="line2d_11">
      <g>
       <use xlink:href="#m62076d4471" x="88.532127" y="326.487985" style="fill: #262626; stroke: #262626; stroke-width: 0.8"/>
      </g>
     </g>
     <g id="text_11">
      <!-- $\mathdefault{0.6}$ -->
      <g style="fill: #262626" transform="translate(38.88 338.941285) scale(0.36 -0.36)">
       <defs>
        <path id="CMR17-36" d="M 678 2176 
C 678 3690 1395 4032 1811 4032 
C 1946 4032 2272 4009 2400 3776 
C 2298 3776 2106 3776 2106 3553 
C 2106 3381 2246 3323 2336 3323 
C 2394 3323 2566 3348 2566 3560 
C 2566 3954 2246 4179 1805 4179 
C 1043 4179 243 3390 243 1984 
C 243 253 966 -128 1478 -128 
C 2099 -128 2688 427 2688 1283 
C 2688 2081 2170 2662 1517 2662 
C 1126 2662 838 2407 678 1960 
L 678 2176 
z
M 1478 25 
C 691 25 691 1200 691 1436 
C 691 1896 909 2560 1504 2560 
C 1613 2560 1926 2560 2138 2120 
C 2253 1870 2253 1609 2253 1289 
C 2253 944 2253 690 2118 434 
C 1978 171 1773 25 1478 25 
z
" transform="scale(0.015625)"/>
       </defs>
       <use xlink:href="#CMR17-30" transform="scale(0.996264)"/>
       <use xlink:href="#CMMI12-3a" transform="translate(45.690477 0) scale(0.996264)"/>
       <use xlink:href="#CMR17-36" transform="translate(72.787654 0) scale(0.996264)"/>
      </g>
     </g>
    </g>
    <g id="ytick_4">
     <g id="line2d_12">
      <g>
       <use xlink:href="#m62076d4471" x="88.532127" y="197.214839" style="fill: #262626; stroke: #262626; stroke-width: 0.8"/>
      </g>
     </g>
     <g id="text_12">
      <!-- $\mathdefault{0.8}$ -->
      <g style="fill: #262626" transform="translate(38.88 209.668139) scale(0.36 -0.36)">
       <defs>
        <path id="CMR17-38" d="M 1741 2264 
C 2144 2467 2554 2773 2554 3263 
C 2554 3841 1990 4179 1472 4179 
C 890 4179 378 3759 378 3180 
C 378 3021 416 2747 666 2505 
C 730 2442 998 2251 1171 2130 
C 883 1983 211 1634 211 934 
C 211 279 838 -128 1459 -128 
C 2144 -128 2720 362 2720 1010 
C 2720 1590 2330 1857 2074 2029 
L 1741 2264 
z
M 902 2822 
C 851 2854 595 3051 595 3351 
C 595 3739 998 4032 1459 4032 
C 1965 4032 2336 3676 2336 3262 
C 2336 2669 1670 2331 1638 2331 
C 1632 2331 1626 2331 1574 2370 
L 902 2822 
z
M 2080 1519 
C 2176 1449 2483 1240 2483 851 
C 2483 381 2010 25 1472 25 
C 890 25 448 438 448 940 
C 448 1443 838 1862 1280 2060 
L 2080 1519 
z
" transform="scale(0.015625)"/>
       </defs>
       <use xlink:href="#CMR17-30" transform="scale(0.996264)"/>
       <use xlink:href="#CMMI12-3a" transform="translate(45.690477 0) scale(0.996264)"/>
       <use xlink:href="#CMR17-38" transform="translate(72.787654 0) scale(0.996264)"/>
      </g>
     </g>
    </g>
    <g id="ytick_5">
     <g id="line2d_13">
      <g>
       <use xlink:href="#m62076d4471" x="88.532127" y="67.941693" style="fill: #262626; stroke: #262626; stroke-width: 0.8"/>
      </g>
     </g>
     <g id="text_13">
      <!-- $\mathdefault{1.0}$ -->
      <g style="fill: #262626" transform="translate(38.88 80.394994) scale(0.36 -0.36)">
       <use xlink:href="#CMR17-31" transform="scale(0.996264)"/>
       <use xlink:href="#CMMI12-3a" transform="translate(45.690477 0) scale(0.996264)"/>
       <use xlink:href="#CMR17-30" transform="translate(72.787654 0) scale(0.996264)"/>
      </g>
     </g>
    </g>
   </g>
   <g id="line2d_14">
    <path d="M 88.532127 67.941694 
L 109.508464 110.82495 
L 119.996632 131.062609 
L 130.4848 150.422743 
L 140.972968 168.952736 
L 151.461136 186.701273 
L 161.949304 203.711441 
L 172.437473 220.01967 
L 182.925641 235.668887 
L 193.413809 250.700971 
L 203.901977 265.139887 
L 214.390145 279.013802 
L 224.878313 292.354227 
L 235.366481 305.187156 
L 245.85465 317.542802 
L 256.342818 329.442 
L 266.830986 340.906297 
L 277.319154 351.962471 
L 287.807322 362.617542 
L 298.29549 372.896885 
L 308.783659 382.816984 
L 319.271827 392.391331 
L 329.759995 401.639469 
L 340.248163 410.574363 
L 350.736331 419.210928 
L 361.224499 427.563265 
L 371.712667 435.644054 
L 382.200836 443.465675 
L 392.689004 451.038278 
L 403.177172 458.371155 
L 413.66534 465.473206 
L 424.153508 472.352037 
L 434.641676 479.014243 
L 445.129845 485.471603 
L 455.618013 491.735419 
L 466.106181 497.80944 
L 476.594349 503.700378 
L 492.326601 512.210042 
L 508.058853 520.359238 
L 523.791106 528.167466 
L 539.523358 535.654574 
L 555.25561 542.811795 
L 570.987862 549.65617 
L 586.720115 556.19341 
L 602.452367 562.472885 
L 618.184619 568.497461 
L 633.916871 574.284997 
L 649.649124 579.791029 
L 665.381376 585.021418 
L 681.113628 589.970419 
L 696.84588 594.676577 
L 712.578133 599.128805 
L 728.310385 603.343999 
L 744.042637 607.337775 
L 759.774889 611.116864 
L 775.507141 614.694758 
L 791.239394 618.08183 
L 806.971646 621.289116 
L 827.947982 625.304914 
L 848.924319 629.044961 
L 869.900655 632.531667 
L 890.876991 635.785624 
L 911.853327 638.82593 
L 932.829664 641.669891 
L 959.050084 644.971604 
L 985.270505 648.020707 
L 995.758673 649.175563 
L 995.758673 649.175563 
" clip-path="url(#p99ef954def)" style="fill: none; stroke: #1f77b4; stroke-width: 5; stroke-linecap: round"/>
   </g>
   <g id="line2d_15">
    <path d="M 88.532127 67.941695 
L 93.776211 89.24898 
L 99.020295 110.468416 
L 104.26438 130.749374 
L 109.508464 150.146846 
L 114.752548 168.712357 
L 119.996632 186.493706 
L 125.240716 203.534814 
L 130.4848 219.871346 
L 135.728884 235.545527 
L 140.972968 250.599098 
L 146.217052 265.061562 
L 151.461136 278.955887 
L 156.70522 292.31535 
L 161.949304 305.165256 
L 167.193388 317.535628 
L 172.437473 329.450278 
L 177.681557 340.927214 
L 182.925641 351.994632 
L 188.169725 362.662935 
L 193.413809 372.952596 
L 198.657893 382.883342 
L 203.901977 392.466851 
L 209.146061 401.722931 
L 214.390145 410.665942 
L 219.634229 419.309357 
L 224.878313 427.667842 
L 230.122397 435.754051 
L 235.366481 443.580408 
L 240.610566 451.1577 
L 245.85465 458.494911 
L 251.098734 465.60123 
L 256.342818 472.484441 
L 261.586902 479.151329 
L 266.830986 485.610737 
L 272.07507 491.87761 
L 277.319154 497.954527 
L 282.563238 503.848249 
L 287.807322 509.565062 
L 293.051406 515.116213 
L 298.29549 520.510331 
L 303.539574 525.752382 
L 308.783659 530.849247 
L 314.027743 535.807611 
L 319.271827 540.616183 
L 324.515911 545.285015 
L 329.759995 549.816353 
L 335.004079 554.211419 
L 340.248163 558.478375 
L 345.492247 562.63991 
L 350.736331 566.690613 
L 355.980415 570.636558 
L 361.224499 574.483995 
L 366.468583 578.228286 
L 371.712667 581.869895 
L 376.956752 585.415402 
L 382.200836 588.866929 
L 387.44492 592.226301 
L 392.689004 595.49502 
L 397.933088 598.67415 
L 403.177172 601.764447 
L 408.421256 604.769839 
L 413.66534 607.705351 
L 418.909424 610.568795 
L 424.153508 613.364841 
L 429.397592 616.097601 
L 434.641676 618.751415 
L 439.88576 621.335194 
L 445.129845 623.848634 
L 450.373929 626.290944 
L 455.618013 628.668017 
L 460.862097 630.978681 
L 466.106181 633.222353 
L 471.350265 635.39905 
L 476.594349 637.506352 
L 481.838433 639.54256 
L 487.082517 641.50689 
L 492.326601 643.397498 
L 497.570685 645.220998 
L 502.814769 646.988647 
L 508.058853 648.697311 
" clip-path="url(#p99ef954def)" style="fill: none; stroke: #ff7f0e; stroke-width: 5; stroke-linecap: round"/>
   </g>
   <g id="line2d_16">
    <path d="M 88.532127 67.941696 
L 93.776211 99.597364 
L 99.020295 130.434812 
L 104.26438 159.276675 
L 109.508464 186.287415 
L 114.752548 211.623303 
L 119.996632 235.426988 
L 125.240716 257.815252 
L 130.4848 278.896244 
L 135.728884 298.76222 
L 140.972968 317.518766 
L 146.217052 335.254499 
L 151.461136 352.001683 
L 156.70522 367.868735 
L 161.949304 382.962739 
L 167.193388 397.241353 
L 172.437473 410.779363 
L 177.681557 423.638676 
L 182.925641 435.880432 
L 188.169725 447.530087 
L 193.413809 458.622231 
L 198.657893 469.204311 
L 203.901977 479.292572 
L 209.146061 488.918385 
L 214.390145 498.115495 
L 219.634229 506.903668 
L 224.878313 515.303094 
L 230.122397 523.337171 
L 235.366481 531.02405 
L 240.610566 538.383216 
L 245.85465 545.435299 
L 251.098734 552.187175 
L 256.342818 558.659993 
L 261.586902 564.869594 
L 266.830986 570.831144 
L 272.07507 576.561368 
L 277.319154 582.052456 
L 282.563238 587.316451 
L 287.807322 592.370115 
L 293.051406 597.248405 
L 298.29549 601.959864 
L 303.539574 606.48178 
L 308.783659 610.801267 
L 314.027743 614.931573 
L 319.271827 618.928244 
L 324.515911 622.765558 
L 329.759995 626.460826 
L 335.004079 630.016175 
L 340.248163 633.439387 
L 345.492247 636.735146 
L 350.736331 639.907098 
L 355.980415 642.959798 
L 361.224499 645.895875 
L 366.468583 648.720352 
" clip-path="url(#p99ef954def)" style="fill: none; stroke: #2ca02c; stroke-width: 5; stroke-linecap: round"/>
   </g>
   <g id="line2d_17">
    <path d="M 88.532127 67.941698 
L 93.776211 109.749436 
L 99.020295 149.59279 
L 104.26438 186.076707 
L 109.508464 219.572302 
L 114.752548 250.396941 
L 119.996632 278.839622 
L 125.240716 305.121032 
L 130.4848 329.466612 
L 135.728884 352.060799 
L 140.972968 373.064769 
L 146.217052 392.617476 
L 151.461136 410.848277 
L 156.70522 427.876502 
L 161.949304 443.810885 
L 167.193388 458.744182 
L 172.437473 472.750103 
L 177.681557 485.889317 
L 182.925641 498.243862 
L 188.169725 509.863389 
L 193.413809 520.810015 
L 198.657893 531.141369 
L 203.901977 540.894903 
L 209.146061 550.098244 
L 214.390145 558.789206 
L 219.634229 567.009357 
L 224.878313 574.789043 
L 230.122397 582.166454 
L 235.366481 589.167684 
L 240.610566 595.797343 
L 245.85465 602.073371 
L 251.098734 608.026401 
L 256.342818 613.67078 
L 261.586902 619.031277 
L 266.830986 624.126695 
L 272.07507 628.959593 
L 277.319154 633.548016 
L 282.563238 637.908084 
L 287.807322 642.054245 
L 293.051406 645.988668 
" clip-path="url(#p99ef954def)" style="fill: none; stroke: #d62728; stroke-width: 5; stroke-linecap: round"/>
   </g>
   <g id="line2d_18">
    <path d="M 88.532127 67.9417 
L 93.776211 119.709958 
L 99.020295 167.99057 
L 104.26438 211.298663 
L 109.508464 250.297046 
L 114.752548 285.543501 
L 119.996632 317.525442 
L 125.240716 346.5857 
L 130.4848 373.11384 
L 135.728884 397.37323 
L 140.972968 419.597597 
L 146.217052 440.028275 
L 151.461136 458.868881 
L 156.70522 476.246196 
L 161.949304 492.310238 
L 167.193388 507.188839 
L 172.437473 520.988034 
L 177.681557 533.803993 
L 182.925641 545.724642 
L 188.169725 556.831322 
L 193.413809 567.184718 
L 198.657893 576.847076 
L 203.901977 585.876753 
L 209.146061 594.32399 
L 214.390145 602.225676 
L 219.634229 609.626001 
L 224.878313 616.543295 
L 230.122397 623.00477 
L 235.366481 629.101755 
L 240.610566 634.822328 
L 245.85465 640.173569 
L 251.098734 645.160325 
" clip-path="url(#p99ef954def)" style="fill: none; stroke: #9467bd; stroke-width: 5; stroke-linecap: round"/>
   </g>
   <g id="line2d_19">
    <path d="M 88.532127 67.941703 
L 93.776211 129.47815 
L 99.020295 185.664297 
L 104.26438 235.057741 
L 109.508464 278.720588 
L 114.752548 317.488133 
L 119.996632 352.140971 
L 125.240716 383.140686 
L 130.4848 411.027354 
L 135.728884 436.221846 
L 140.972968 458.990668 
L 146.217052 479.715601 
L 151.461136 498.53573 
L 156.70522 515.746365 
L 161.949304 531.475518 
L 167.193388 545.892082 
L 172.437473 559.135325 
L 177.681557 571.315368 
L 182.925641 582.528504 
L 188.169725 592.863968 
L 193.413809 602.402734 
L 198.657893 611.20769 
L 203.901977 619.354238 
L 209.146061 626.893101 
L 214.390145 633.840963 
L 219.634229 640.304717 
L 224.878313 646.301046 
" clip-path="url(#p99ef954def)" style="fill: none; stroke: #8c564b; stroke-width: 5; stroke-linecap: round"/>
   </g>
   <g id="line2d_20">
    <path d="M 88.532127 67.941693 
L 93.776211 139.066426 
L 99.020295 202.64308 
L 104.26438 257.459139 
L 109.508464 305.05165 
L 114.752548 346.644561 
L 119.996632 383.204085 
L 125.240716 415.497047 
L 130.4848 444.162077 
L 135.728884 469.716994 
L 140.972968 492.578315 
L 146.217052 513.099479 
L 151.461136 531.604241 
L 156.70522 548.33853 
L 161.949304 563.439248 
L 167.193388 577.155506 
L 172.437473 589.645165 
L 177.681557 600.991824 
L 182.925641 611.334493 
L 188.169725 620.773103 
L 193.413809 629.395618 
L 198.657893 637.269568 
L 203.901977 644.454572 
" clip-path="url(#p99ef954def)" style="fill: none; stroke: #e377c2; stroke-width: 5; stroke-linecap: round"/>
   </g>
   <g id="line2d_21">
    <path d="M 88.532127 67.941693 
L 93.776211 148.475632 
L 99.020295 218.974696 
L 104.26438 278.608297 
L 109.508464 329.500916 
L 114.752548 373.294303 
L 119.996632 411.220456 
L 125.240716 444.279187 
L 130.4848 473.281725 
L 135.728884 498.82906 
L 140.972968 521.42512 
L 146.217052 541.507901 
L 151.461136 559.439373 
L 156.70522 575.465524 
L 161.949304 589.792694 
L 167.193388 602.678268 
L 172.437473 614.301996 
L 177.681557 624.732005 
L 182.925641 634.090857 
L 188.169725 642.603068 
" clip-path="url(#p99ef954def)" style="fill: none; stroke: #7f7f7f; stroke-width: 5; stroke-linecap: round"/>
   </g>
   <g id="line2d_22">
    <path d="M 88.532127 67.941693 
L 93.776211 157.708576 
L 99.020295 234.682933 
L 104.26438 298.593467 
L 109.508464 352.234703 
L 114.752548 397.703291 
L 119.996632 436.537458 
L 125.240716 469.989713 
L 130.4848 498.977633 
L 135.728884 524.219417 
L 140.972968 546.339632 
L 146.217052 565.821875 
L 151.461136 582.990013 
L 156.70522 598.155866 
L 161.949304 611.646214 
L 167.193388 623.631836 
L 172.437473 634.245395 
L 177.681557 643.736546 
" clip-path="url(#p99ef954def)" style="fill: none; stroke: #bcbd22; stroke-width: 5; stroke-linecap: round"/>
   </g>
   <g id="line2d_23">
    <path d="M 88.532127 67.941693 
L 93.776211 166.7719 
L 99.020295 249.801944 
L 104.26438 317.497591 
L 109.508464 373.406456 
L 114.752548 420.12248 
L 119.996632 459.499765 
L 125.240716 493.034505 
L 130.4848 521.748112 
L 135.728884 546.519458 
L 140.972968 567.995393 
L 146.217052 586.671827 
L 151.461136 603.002039 
L 156.70522 617.302485 
L 161.949304 629.823897 
L 167.193388 640.825502 
" clip-path="url(#p99ef954def)" style="fill: none; stroke: #17becf; stroke-width: 5; stroke-linecap: round"/>
   </g>
   <g id="line2d_24">
    <path d="M 88.532127 649.670849 
L 1041.12 649.670849 
" clip-path="url(#p99ef954def)" style="fill: none; stroke-dasharray: 18.5,8; stroke-dashoffset: 0; stroke: #ffa500; stroke-width: 5"/>
   </g>
   <g id="patch_3">
    <path d="M 88.532127 678.237256 
L 88.532127 38.88 
" style="fill: none; stroke: #262626; stroke-width: 0.8; stroke-linejoin: miter; stroke-linecap: square"/>
   </g>
   <g id="patch_4">
    <path d="M 88.532127 678.237256 
L 1041.12 678.237256 
" style="fill: none; stroke: #262626; stroke-width: 0.8; stroke-linejoin: miter; stroke-linecap: square"/>
   </g>
  </g>
 </g>
 <defs>
  <clipPath id="p99ef954def">
   <rect x="88.532127" y="38.88" width="952.587873" height="639.357256"/>
  </clipPath>
 </defs>
</svg>
