<?xml version="1.0" encoding="utf-8" standalone="no"?>
<!DOCTYPE svg PUBLIC "-//W3C//DTD SVG 1.1//EN"
  "http://www.w3.org/Graphics/SVG/1.1/DTD/svg11.dtd">
<svg xmlns:xlink="http://www.w3.org/1999/xlink" width="1080pt" height="576pt" viewBox="0 0 1080 576" xmlns="http://www.w3.org/2000/svg" version="1.1">
 <metadata>
  <rdf:RDF xmlns:dc="http://purl.org/dc/elements/1.1/" xmlns:cc="http://creativecommons.org/ns#" xmlns:rdf="http://www.w3.org/1999/02/22-rdf-syntax-ns#">
   <cc:Work>
    <dc:type rdf:resource="http://purl.org/dc/dcmitype/StillImage"/>
    <dc:date>2024-07-25T13:33:28.571766</dc:date>
    <dc:format>image/svg+xml</dc:format>
    <dc:creator>
     <cc:Agent>
      <dc:title>Matplotlib v3.9.0, https://matplotlib.org/</dc:title>
     </cc:Agent>
    </dc:creator>
   </cc:Work>
  </rdf:RDF>
 </metadata>
 <defs>
  <style type="text/css">*{stroke-linejoin: round; stroke-linecap: butt}</style>
 </defs>
 <g id="figure_1">
  <g id="patch_1">
   <path d="M 0 576 
L 1080 576 
L 1080 0 
L 0 0 
z
" style="fill: #ffffff"/>
  </g>
  <g id="axes_1">
   <g id="patch_2">
    <path d="M 74.943439 510.031054 
L 1047.6 510.031054 
L 1047.6 32.4 
L 74.943439 32.4 
z
" style="fill: #ffffff"/>
   </g>
   <g id="matplotlib.axis_1">
    <g id="xtick_1">
     <g id="line2d_1">
      <defs>
       <path id="m41d38a08a1" d="M 0 0 
L 0 3.5 
" style="stroke: #262626; stroke-width: 0.8"/>
      </defs>
      <g>
       <use xlink:href="#m41d38a08a1" x="74.943439" y="510.031054" style="fill: #262626; stroke: #262626; stroke-width: 0.8"/>
      </g>
     </g>
     <g id="text_1">
      <!-- $\mathdefault{0}$ -->
      <g style="fill: #262626" transform="translate(68.089868 537.78655) scale(0.3 -0.3)">
       <defs>
        <path id="CMR17-30" d="M 2688 2025 
C 2688 2416 2682 3080 2413 3591 
C 2176 4039 1798 4198 1466 4198 
C 1158 4198 768 4058 525 3597 
C 269 3118 243 2524 243 2025 
C 243 1661 250 1106 448 619 
C 723 -39 1216 -128 1466 -128 
C 1760 -128 2208 -7 2470 600 
C 2662 1042 2688 1559 2688 2025 
z
M 1466 -26 
C 1056 -26 813 325 723 812 
C 653 1188 653 1738 653 2096 
C 653 2588 653 2997 736 3387 
C 858 3929 1216 4096 1466 4096 
C 1728 4096 2067 3923 2189 3400 
C 2272 3036 2278 2607 2278 2096 
C 2278 1680 2278 1169 2202 792 
C 2067 95 1690 -26 1466 -26 
z
" transform="scale(0.015625)"/>
       </defs>
       <use xlink:href="#CMR17-30" transform="scale(0.996264)"/>
      </g>
     </g>
    </g>
    <g id="xtick_2">
     <g id="line2d_2">
      <g>
       <use xlink:href="#m41d38a08a1" x="229.33337" y="510.031054" style="fill: #262626; stroke: #262626; stroke-width: 0.8"/>
      </g>
     </g>
     <g id="text_2">
      <!-- $\mathdefault{500}$ -->
      <g style="fill: #262626" transform="translate(208.772655 537.78655) scale(0.3 -0.3)">
       <defs>
        <path id="CMR17-35" d="M 730 3692 
C 794 3666 1056 3584 1325 3584 
C 1920 3584 2246 3911 2432 4100 
C 2432 4157 2432 4192 2394 4192 
C 2387 4192 2374 4192 2323 4163 
C 2099 4058 1837 3973 1517 3973 
C 1325 3973 1037 3999 723 4139 
C 653 4171 640 4171 634 4171 
C 602 4171 595 4164 595 4037 
L 595 2203 
C 595 2089 595 2057 659 2057 
C 691 2057 704 2070 736 2114 
C 941 2401 1222 2522 1542 2522 
C 1766 2522 2246 2382 2246 1289 
C 2246 1085 2246 715 2054 421 
C 1894 159 1645 25 1370 25 
C 947 25 518 320 403 814 
C 429 807 480 795 506 795 
C 589 795 749 840 749 1038 
C 749 1210 627 1280 506 1280 
C 358 1280 262 1190 262 1011 
C 262 454 704 -128 1382 -128 
C 2042 -128 2669 440 2669 1264 
C 2669 2030 2170 2624 1549 2624 
C 1222 2624 947 2503 730 2274 
L 730 3692 
z
" transform="scale(0.015625)"/>
       </defs>
       <use xlink:href="#CMR17-35" transform="scale(0.996264)"/>
       <use xlink:href="#CMR17-30" transform="translate(45.690477 0) scale(0.996264)"/>
       <use xlink:href="#CMR17-30" transform="translate(91.380954 0) scale(0.996264)"/>
      </g>
     </g>
    </g>
    <g id="xtick_3">
     <g id="line2d_3">
      <g>
       <use xlink:href="#m41d38a08a1" x="383.7233" y="510.031054" style="fill: #262626; stroke: #262626; stroke-width: 0.8"/>
      </g>
     </g>
     <g id="text_3">
      <!-- $\mathdefault{1000}$ -->
      <g style="fill: #262626" transform="translate(356.309014 537.78655) scale(0.3 -0.3)">
       <defs>
        <path id="CMR17-31" d="M 1702 4058 
C 1702 4192 1696 4192 1606 4192 
C 1357 3916 979 3827 621 3827 
C 602 3827 570 3827 563 3808 
C 557 3795 557 3782 557 3648 
C 755 3648 1088 3686 1344 3839 
L 1344 461 
C 1344 236 1331 160 781 160 
L 589 160 
L 589 0 
C 896 0 1216 0 1523 0 
C 1830 0 2150 0 2458 0 
L 2458 160 
L 2266 160 
C 1715 160 1702 230 1702 458 
L 1702 4058 
z
" transform="scale(0.015625)"/>
       </defs>
       <use xlink:href="#CMR17-31" transform="scale(0.996264)"/>
       <use xlink:href="#CMR17-30" transform="translate(45.690477 0) scale(0.996264)"/>
       <use xlink:href="#CMR17-30" transform="translate(91.380954 0) scale(0.996264)"/>
       <use xlink:href="#CMR17-30" transform="translate(137.071431 0) scale(0.996264)"/>
      </g>
     </g>
    </g>
    <g id="xtick_4">
     <g id="line2d_4">
      <g>
       <use xlink:href="#m41d38a08a1" x="538.11323" y="510.031054" style="fill: #262626; stroke: #262626; stroke-width: 0.8"/>
      </g>
     </g>
     <g id="text_4">
      <!-- $\mathdefault{1500}$ -->
      <g style="fill: #262626" transform="translate(510.698944 537.78655) scale(0.3 -0.3)">
       <use xlink:href="#CMR17-31" transform="scale(0.996264)"/>
       <use xlink:href="#CMR17-35" transform="translate(45.690477 0) scale(0.996264)"/>
       <use xlink:href="#CMR17-30" transform="translate(91.380954 0) scale(0.996264)"/>
       <use xlink:href="#CMR17-30" transform="translate(137.071431 0) scale(0.996264)"/>
      </g>
     </g>
    </g>
    <g id="xtick_5">
     <g id="line2d_5">
      <g>
       <use xlink:href="#m41d38a08a1" x="692.50316" y="510.031054" style="fill: #262626; stroke: #262626; stroke-width: 0.8"/>
      </g>
     </g>
     <g id="text_5">
      <!-- $\mathdefault{2000}$ -->
      <g style="fill: #262626" transform="translate(665.088874 537.78655) scale(0.3 -0.3)">
       <defs>
        <path id="CMR17-32" d="M 2669 989 
L 2554 989 
C 2490 536 2438 459 2413 420 
C 2381 369 1920 369 1830 369 
L 602 369 
C 832 619 1280 1072 1824 1597 
C 2214 1967 2669 2402 2669 3035 
C 2669 3790 2067 4224 1395 4224 
C 691 4224 262 3604 262 3030 
C 262 2780 448 2748 525 2748 
C 589 2748 781 2787 781 3010 
C 781 3207 614 3264 525 3264 
C 486 3264 448 3258 422 3245 
C 544 3790 915 4058 1306 4058 
C 1862 4058 2227 3617 2227 3035 
C 2227 2479 1901 2000 1536 1584 
L 262 146 
L 262 0 
L 2515 0 
L 2669 989 
z
" transform="scale(0.015625)"/>
       </defs>
       <use xlink:href="#CMR17-32" transform="scale(0.996264)"/>
       <use xlink:href="#CMR17-30" transform="translate(45.690477 0) scale(0.996264)"/>
       <use xlink:href="#CMR17-30" transform="translate(91.380954 0) scale(0.996264)"/>
       <use xlink:href="#CMR17-30" transform="translate(137.071431 0) scale(0.996264)"/>
      </g>
     </g>
    </g>
    <g id="xtick_6">
     <g id="line2d_6">
      <g>
       <use xlink:href="#m41d38a08a1" x="846.893091" y="510.031054" style="fill: #262626; stroke: #262626; stroke-width: 0.8"/>
      </g>
     </g>
     <g id="text_6">
      <!-- $\mathdefault{2500}$ -->
      <g style="fill: #262626" transform="translate(819.478804 537.78655) scale(0.3 -0.3)">
       <use xlink:href="#CMR17-32" transform="scale(0.996264)"/>
       <use xlink:href="#CMR17-35" transform="translate(45.690477 0) scale(0.996264)"/>
       <use xlink:href="#CMR17-30" transform="translate(91.380954 0) scale(0.996264)"/>
       <use xlink:href="#CMR17-30" transform="translate(137.071431 0) scale(0.996264)"/>
      </g>
     </g>
    </g>
    <g id="xtick_7">
     <g id="line2d_7">
      <g>
       <use xlink:href="#m41d38a08a1" x="1001.283021" y="510.031054" style="fill: #262626; stroke: #262626; stroke-width: 0.8"/>
      </g>
     </g>
     <g id="text_7">
      <!-- $\mathdefault{3000}$ -->
      <g style="fill: #262626" transform="translate(973.868735 537.78655) scale(0.3 -0.3)">
       <defs>
        <path id="CMR17-33" d="M 1414 2157 
C 1984 2157 2234 1662 2234 1090 
C 2234 320 1824 25 1453 25 
C 1114 25 563 194 390 693 
C 422 680 454 680 486 680 
C 640 680 755 782 755 948 
C 755 1133 614 1216 486 1216 
C 378 1216 211 1165 211 926 
C 211 335 787 -128 1466 -128 
C 2176 -128 2720 430 2720 1085 
C 2720 1707 2208 2157 1600 2227 
C 2086 2328 2554 2756 2554 3329 
C 2554 3820 2048 4179 1472 4179 
C 890 4179 378 3829 378 3329 
C 378 3110 544 3072 627 3072 
C 762 3072 877 3155 877 3321 
C 877 3486 762 3569 627 3569 
C 602 3569 570 3569 544 3557 
C 730 3959 1235 4032 1459 4032 
C 1683 4032 2106 3925 2106 3320 
C 2106 3143 2080 2828 1862 2550 
C 1670 2304 1453 2304 1242 2284 
C 1210 2284 1062 2269 1037 2269 
C 992 2263 966 2257 966 2208 
C 966 2163 973 2157 1101 2157 
L 1414 2157 
z
" transform="scale(0.015625)"/>
       </defs>
       <use xlink:href="#CMR17-33" transform="scale(0.996264)"/>
       <use xlink:href="#CMR17-30" transform="translate(45.690477 0) scale(0.996264)"/>
       <use xlink:href="#CMR17-30" transform="translate(91.380954 0) scale(0.996264)"/>
       <use xlink:href="#CMR17-30" transform="translate(137.071431 0) scale(0.996264)"/>
      </g>
     </g>
    </g>
   </g>
   <g id="matplotlib.axis_2">
    <g id="ytick_1">
     <g id="line2d_8">
      <defs>
       <path id="md752216304" d="M 0 0 
L -3.5 0 
" style="stroke: #262626; stroke-width: 0.8"/>
      </defs>
      <g>
       <use xlink:href="#md752216304" x="74.943439" y="488.320552" style="fill: #262626; stroke: #262626; stroke-width: 0.8"/>
      </g>
     </g>
     <g id="text_8">
      <!-- $\mathdefault{0.0}$ -->
      <g style="fill: #262626" transform="translate(32.4 498.6983) scale(0.3 -0.3)">
       <defs>
        <path id="CMMI12-3a" d="M 1178 307 
C 1178 492 1024 619 870 619 
C 685 619 557 466 557 313 
C 557 128 710 0 864 0 
C 1050 0 1178 153 1178 307 
z
" transform="scale(0.015625)"/>
       </defs>
       <use xlink:href="#CMR17-30" transform="scale(0.996264)"/>
       <use xlink:href="#CMMI12-3a" transform="translate(45.690477 0) scale(0.996264)"/>
       <use xlink:href="#CMR17-30" transform="translate(72.787654 0) scale(0.996264)"/>
      </g>
     </g>
    </g>
    <g id="ytick_2">
     <g id="line2d_9">
      <g>
       <use xlink:href="#md752216304" x="74.943439" y="401.478542" style="fill: #262626; stroke: #262626; stroke-width: 0.8"/>
      </g>
     </g>
     <g id="text_9">
      <!-- $\mathdefault{0.2}$ -->
      <g style="fill: #262626" transform="translate(32.4 411.85629) scale(0.3 -0.3)">
       <use xlink:href="#CMR17-30" transform="scale(0.996264)"/>
       <use xlink:href="#CMMI12-3a" transform="translate(45.690477 0) scale(0.996264)"/>
       <use xlink:href="#CMR17-32" transform="translate(72.787654 0) scale(0.996264)"/>
      </g>
     </g>
    </g>
    <g id="ytick_3">
     <g id="line2d_10">
      <g>
       <use xlink:href="#md752216304" x="74.943439" y="314.636532" style="fill: #262626; stroke: #262626; stroke-width: 0.8"/>
      </g>
     </g>
     <g id="text_10">
      <!-- $\mathdefault{0.4}$ -->
      <g style="fill: #262626" transform="translate(32.4 325.01428) scale(0.3 -0.3)">
       <defs>
        <path id="CMR17-34" d="M 2150 4122 
C 2150 4256 2144 4256 2029 4256 
L 128 1254 
L 128 1088 
L 1779 1088 
L 1779 457 
C 1779 224 1766 160 1318 160 
L 1197 160 
L 1197 0 
C 1402 0 1747 0 1965 0 
C 2182 0 2528 0 2733 0 
L 2733 160 
L 2611 160 
C 2163 160 2150 224 2150 457 
L 2150 1088 
L 2803 1088 
L 2803 1254 
L 2150 1254 
L 2150 4122 
z
M 1798 3703 
L 1798 1254 
L 256 1254 
L 1798 3703 
z
" transform="scale(0.015625)"/>
       </defs>
       <use xlink:href="#CMR17-30" transform="scale(0.996264)"/>
       <use xlink:href="#CMMI12-3a" transform="translate(45.690477 0) scale(0.996264)"/>
       <use xlink:href="#CMR17-34" transform="translate(72.787654 0) scale(0.996264)"/>
      </g>
     </g>
    </g>
    <g id="ytick_4">
     <g id="line2d_11">
      <g>
       <use xlink:href="#md752216304" x="74.943439" y="227.794522" style="fill: #262626; stroke: #262626; stroke-width: 0.8"/>
      </g>
     </g>
     <g id="text_11">
      <!-- $\mathdefault{0.6}$ -->
      <g style="fill: #262626" transform="translate(32.4 238.17227) scale(0.3 -0.3)">
       <defs>
        <path id="CMR17-36" d="M 678 2176 
C 678 3690 1395 4032 1811 4032 
C 1946 4032 2272 4009 2400 3776 
C 2298 3776 2106 3776 2106 3553 
C 2106 3381 2246 3323 2336 3323 
C 2394 3323 2566 3348 2566 3560 
C 2566 3954 2246 4179 1805 4179 
C 1043 4179 243 3390 243 1984 
C 243 253 966 -128 1478 -128 
C 2099 -128 2688 427 2688 1283 
C 2688 2081 2170 2662 1517 2662 
C 1126 2662 838 2407 678 1960 
L 678 2176 
z
M 1478 25 
C 691 25 691 1200 691 1436 
C 691 1896 909 2560 1504 2560 
C 1613 2560 1926 2560 2138 2120 
C 2253 1870 2253 1609 2253 1289 
C 2253 944 2253 690 2118 434 
C 1978 171 1773 25 1478 25 
z
" transform="scale(0.015625)"/>
       </defs>
       <use xlink:href="#CMR17-30" transform="scale(0.996264)"/>
       <use xlink:href="#CMMI12-3a" transform="translate(45.690477 0) scale(0.996264)"/>
       <use xlink:href="#CMR17-36" transform="translate(72.787654 0) scale(0.996264)"/>
      </g>
     </g>
    </g>
    <g id="ytick_5">
     <g id="line2d_12">
      <g>
       <use xlink:href="#md752216304" x="74.943439" y="140.952512" style="fill: #262626; stroke: #262626; stroke-width: 0.8"/>
      </g>
     </g>
     <g id="text_12">
      <!-- $\mathdefault{0.8}$ -->
      <g style="fill: #262626" transform="translate(32.4 151.33026) scale(0.3 -0.3)">
       <defs>
        <path id="CMR17-38" d="M 1741 2264 
C 2144 2467 2554 2773 2554 3263 
C 2554 3841 1990 4179 1472 4179 
C 890 4179 378 3759 378 3180 
C 378 3021 416 2747 666 2505 
C 730 2442 998 2251 1171 2130 
C 883 1983 211 1634 211 934 
C 211 279 838 -128 1459 -128 
C 2144 -128 2720 362 2720 1010 
C 2720 1590 2330 1857 2074 2029 
L 1741 2264 
z
M 902 2822 
C 851 2854 595 3051 595 3351 
C 595 3739 998 4032 1459 4032 
C 1965 4032 2336 3676 2336 3262 
C 2336 2669 1670 2331 1638 2331 
C 1632 2331 1626 2331 1574 2370 
L 902 2822 
z
M 2080 1519 
C 2176 1449 2483 1240 2483 851 
C 2483 381 2010 25 1472 25 
C 890 25 448 438 448 940 
C 448 1443 838 1862 1280 2060 
L 2080 1519 
z
" transform="scale(0.015625)"/>
       </defs>
       <use xlink:href="#CMR17-30" transform="scale(0.996264)"/>
       <use xlink:href="#CMMI12-3a" transform="translate(45.690477 0) scale(0.996264)"/>
       <use xlink:href="#CMR17-38" transform="translate(72.787654 0) scale(0.996264)"/>
      </g>
     </g>
    </g>
    <g id="ytick_6">
     <g id="line2d_13">
      <g>
       <use xlink:href="#md752216304" x="74.943439" y="54.110502" style="fill: #262626; stroke: #262626; stroke-width: 0.8"/>
      </g>
     </g>
     <g id="text_13">
      <!-- $\mathdefault{1.0}$ -->
      <g style="fill: #262626" transform="translate(32.4 64.48825) scale(0.3 -0.3)">
       <use xlink:href="#CMR17-31" transform="scale(0.996264)"/>
       <use xlink:href="#CMMI12-3a" transform="translate(45.690477 0) scale(0.996264)"/>
       <use xlink:href="#CMR17-30" transform="translate(72.787654 0) scale(0.996264)"/>
      </g>
     </g>
    </g>
   </g>
   <g id="line2d_14">
    <path d="M 74.943439 54.110502 
L 90.382432 81.95166 
L 96.55803 92.44802 
L 102.733627 102.538629 
L 108.909224 112.256885 
L 115.084821 121.602997 
L 121.260418 130.617678 
L 127.436016 139.295929 
L 133.611613 147.670215 
L 139.78721 155.739516 
L 145.962807 163.530881 
L 152.138405 171.053696 
L 158.314002 178.322278 
L 164.489599 185.338596 
L 170.665196 192.116338 
L 176.840793 198.667996 
L 186.104189 208.099548 
L 195.367585 217.094829 
L 204.630981 225.687267 
L 213.894377 233.84036 
L 223.157772 241.591701 
L 232.421168 249.004559 
L 241.684564 256.131373 
L 250.94796 262.981685 
L 260.211356 269.518332 
L 269.474752 275.775722 
L 278.738147 281.759978 
L 288.001543 287.468183 
L 300.352738 294.723708 
L 309.616133 299.926694 
L 321.967328 306.546179 
L 331.230724 311.286471 
L 343.581918 317.322213 
L 355.933112 323.05893 
L 368.284307 328.508682 
L 380.635501 333.699472 
L 392.986696 338.646125 
L 405.33789 343.365732 
L 417.689085 347.852347 
L 430.040279 352.129869 
L 442.391473 356.21207 
L 457.830466 361.07072 
L 473.269459 365.690958 
L 488.708452 370.100253 
L 501.059647 373.454227 
L 516.49864 377.421062 
L 531.937633 381.165383 
L 550.464425 385.420071 
L 568.991216 389.458006 
L 587.518008 393.287884 
L 606.044799 396.87478 
L 624.571591 400.250315 
L 646.186181 403.980476 
L 667.800772 407.468483 
L 689.415362 410.730756 
L 711.029952 413.765484 
L 735.732341 416.998646 
L 760.43473 419.981311 
L 785.137119 422.759107 
L 809.839507 425.322344 
L 837.629695 427.99748 
L 868.507681 430.728386 
L 899.385667 433.232006 
L 933.351452 435.749196 
L 967.317236 438.048406 
L 1001.283021 440.155933 
L 1001.283021 440.155933 
" clip-path="url(#p80e0dca482)" style="fill: none; stroke: #393b79; stroke-width: 2; stroke-linecap: round"/>
   </g>
   <g id="line2d_15">
    <path d="M 74.943439 54.110503 
L 84.206835 84.227582 
L 90.382432 102.900926 
L 96.55803 120.325938 
L 102.733627 136.611848 
L 108.909224 151.851248 
L 115.084821 166.140673 
L 121.260418 179.550223 
L 127.436016 192.144004 
L 133.611613 204.003765 
L 139.78721 215.203858 
L 145.962807 225.7544 
L 152.138405 235.711121 
L 158.314002 245.115821 
L 164.489599 254.011348 
L 170.665196 262.43713 
L 176.840793 270.435435 
L 183.016391 278.047748 
L 189.191988 285.261924 
L 195.367585 292.114487 
L 201.543182 298.639493 
L 207.718779 304.858947 
L 213.894377 310.776103 
L 220.069974 316.425299 
L 226.245571 321.825509 
L 232.421168 326.974096 
L 238.596765 331.898399 
L 244.772363 336.61387 
L 250.94796 341.118977 
L 257.123557 345.433812 
L 266.386953 351.572446 
L 275.650349 357.333261 
L 284.913745 362.753246 
L 294.17714 367.856496 
L 303.440536 372.673635 
L 312.703932 377.21828 
L 321.967328 381.510831 
L 331.230724 385.570964 
L 340.494119 389.413336 
L 349.757515 393.05771 
L 362.10871 397.632706 
L 374.459904 401.904987 
L 386.811099 405.901223 
L 399.162293 409.641722 
L 411.513487 413.131395 
L 426.95248 417.199308 
L 439.303675 420.252314 
L 454.742668 423.817688 
L 470.181661 427.140931 
L 485.620654 430.219508 
L 501.059647 433.074072 
L 519.586439 436.24878 
L 538.11323 439.181185 
L 556.640022 441.87622 
L 575.166813 444.316125 
L 578.254612 444.701423 
L 581.342411 488.320552 
L 1001.283021 488.320552 
L 1001.283021 488.320552 
" clip-path="url(#p80e0dca482)" style="fill: none; stroke: #6b6ecf; stroke-width: 2; stroke-linecap: round"/>
   </g>
   <g id="line2d_16">
    <path d="M 74.943439 54.110503 
L 81.119037 81.577685 
L 84.206835 94.658512 
L 87.294634 107.142978 
L 90.382432 119.050627 
L 93.470231 130.441768 
L 96.55803 141.313071 
L 99.645828 151.731011 
L 102.733627 161.689852 
L 105.821425 171.238844 
L 108.909224 180.378823 
L 111.997023 189.150975 
L 115.084821 197.570502 
L 118.17262 205.660061 
L 121.260418 213.424103 
L 127.436016 228.065926 
L 133.611613 241.620286 
L 139.78721 254.191735 
L 145.962807 265.868251 
L 152.138405 276.743331 
L 158.314002 286.875329 
L 164.489599 296.344185 
L 170.665196 305.192192 
L 176.840793 313.476815 
L 183.016391 321.264623 
L 189.191988 328.58642 
L 195.367585 335.451419 
L 201.543182 341.904916 
L 207.718779 347.983005 
L 213.894377 353.740711 
L 220.069974 359.215433 
L 226.245571 364.353324 
L 235.508967 371.52294 
L 241.684564 376.047211 
L 247.860161 380.313397 
L 254.035758 384.348531 
L 260.211356 388.195167 
L 266.386953 391.859763 
L 275.650349 397.031432 
L 284.913745 401.83393 
L 294.17714 406.298116 
L 303.440536 410.468476 
L 312.703932 414.393071 
L 321.967328 418.069899 
L 331.230724 421.498423 
L 340.494119 424.707407 
L 352.845314 428.704454 
L 365.196508 432.399391 
L 377.547703 435.805726 
L 389.898897 438.959686 
L 402.250092 441.885773 
L 414.601286 444.592052 
L 417.689085 488.320552 
L 1001.283021 488.320552 
L 1001.283021 488.320552 
" clip-path="url(#p80e0dca482)" style="fill: none; stroke: #637939; stroke-width: 2; stroke-linecap: round"/>
   </g>
   <g id="line2d_17">
    <path d="M 74.943439 54.110503 
L 81.119037 87.39907 
L 84.206835 103.026007 
L 87.294634 117.805148 
L 90.382432 131.798171 
L 93.470231 145.059966 
L 96.55803 157.641497 
L 99.645828 169.581473 
L 102.733627 180.928384 
L 105.821425 191.730398 
L 108.909224 202.0171 
L 111.997023 211.810762 
L 115.084821 221.146152 
L 118.17262 230.051073 
L 121.260418 238.556093 
L 124.348217 246.681299 
L 127.436016 254.455936 
L 130.523814 261.893762 
L 133.611613 269.014112 
L 136.699411 275.834722 
L 139.78721 282.367258 
L 142.875009 288.630507 
L 149.050606 300.40791 
L 155.226203 311.287299 
L 161.4018 321.354457 
L 167.577398 330.681254 
L 173.752995 339.339296 
L 179.928592 347.391489 
L 186.104189 354.894291 
L 192.279786 361.891222 
L 198.455384 368.428696 
L 204.630981 374.545684 
L 210.806578 380.275581 
L 216.982175 385.651057 
L 223.157772 390.701994 
L 229.33337 395.454212 
L 235.508967 399.930504 
L 241.684564 404.150343 
L 247.860161 408.130276 
L 254.035758 411.88672 
L 260.211356 415.437583 
L 266.386953 418.792393 
L 275.650349 423.492754 
L 284.913745 427.846971 
L 294.17714 431.882125 
L 303.440536 435.606068 
L 312.703932 439.045995 
L 321.967328 442.245212 
L 328.142925 444.252554 
L 331.230724 488.320552 
L 1001.283021 488.320552 
L 1001.283021 488.320552 
" clip-path="url(#p80e0dca482)" style="fill: none; stroke: #b5cf6b; stroke-width: 2; stroke-linecap: round"/>
   </g>
   <g id="line2d_18">
    <path d="M 74.943439 54.110504 
L 81.119037 92.158244 
L 84.206835 109.835572 
L 87.294634 126.458405 
L 90.382432 142.103171 
L 93.470231 156.851013 
L 96.55803 170.763093 
L 99.645828 183.901389 
L 102.733627 196.335019 
L 105.821425 208.112322 
L 108.909224 219.264668 
L 111.997023 229.839066 
L 115.084821 239.875992 
L 118.17262 249.413282 
L 121.260418 258.486448 
L 124.348217 267.12396 
L 127.436016 275.35147 
L 130.523814 283.192062 
L 133.611613 290.666419 
L 136.699411 297.797851 
L 139.78721 304.606791 
L 142.875009 311.117548 
L 145.962807 317.354425 
L 149.050606 323.325835 
L 152.138405 329.038405 
L 158.314002 339.763395 
L 164.489599 349.632246 
L 170.665196 358.73523 
L 176.840793 367.143531 
L 183.016391 374.925781 
L 189.191988 382.138103 
L 195.367585 388.841038 
L 201.543182 395.070993 
L 207.718779 400.874994 
L 213.894377 406.283312 
L 220.069974 411.330965 
L 226.245571 416.048221 
L 232.421168 420.458853 
L 238.596765 424.590431 
L 244.772363 428.461136 
L 250.94796 432.090488 
L 257.123557 435.494214 
L 263.299154 438.68985 
L 269.474752 441.693014 
L 275.650349 444.5144 
L 278.738147 488.320552 
L 1001.283021 488.320552 
L 1001.283021 488.320552 
" clip-path="url(#p80e0dca482)" style="fill: none; stroke: #8c6d31; stroke-width: 2; stroke-linecap: round"/>
   </g>
   <g id="line2d_19">
    <path d="M 74.943439 54.110504 
L 81.119037 96.091596 
L 84.206835 115.466737 
L 87.294634 133.611781 
L 90.382432 150.631707 
L 93.470231 166.622343 
L 96.55803 181.66214 
L 99.645828 195.823749 
L 102.733627 209.169145 
L 105.821425 221.769257 
L 108.909224 233.683616 
L 111.997023 244.933897 
L 115.084821 255.592929 
L 118.17262 265.73265 
L 121.260418 275.324616 
L 124.348217 284.419064 
L 127.436016 293.057584 
L 130.523814 301.281246 
L 133.611613 309.107152 
L 136.699411 316.558538 
L 139.78721 323.667277 
L 142.875009 330.444283 
L 145.962807 336.910629 
L 149.050606 343.088985 
L 152.138405 348.992629 
L 155.226203 354.635124 
L 158.314002 360.032188 
L 161.4018 365.196013 
L 167.577398 374.877079 
L 173.752995 383.761051 
L 179.928592 391.937283 
L 186.104189 399.47544 
L 192.279786 406.406549 
L 198.455384 412.848669 
L 204.630981 418.788071 
L 210.806578 424.247542 
L 216.982175 429.307716 
L 223.157772 433.995714 
L 229.33337 438.340538 
L 235.508967 442.363627 
L 238.596765 444.26103 
L 241.684564 488.320552 
L 1001.283021 488.320552 
L 1001.283021 488.320552 
" clip-path="url(#p80e0dca482)" style="fill: none; stroke: #e7cb94; stroke-width: 2; stroke-linecap: round"/>
   </g>
   <g id="line2d_20">
    <path d="M 74.943439 54.110505 
L 81.119037 99.375321 
L 84.206835 120.186715 
L 87.294634 139.64611 
L 90.382432 157.868267 
L 93.470231 174.959172 
L 96.55803 191.006515 
L 99.645828 206.093589 
L 102.733627 220.301423 
L 105.821425 233.691517 
L 108.909224 246.327476 
L 111.997023 258.26229 
L 115.084821 269.544531 
L 118.17262 280.224427 
L 121.260418 290.3414 
L 124.348217 299.934835 
L 127.436016 309.037437 
L 130.523814 317.67981 
L 133.611613 325.891667 
L 136.699411 333.701253 
L 139.78721 341.130078 
L 142.875009 348.201343 
L 145.962807 354.943252 
L 149.050606 361.372359 
L 152.138405 367.506156 
L 155.226203 373.352093 
L 158.314002 378.923802 
L 161.4018 384.229637 
L 164.489599 389.300742 
L 167.577398 394.148931 
L 170.665196 398.786442 
L 173.752995 403.217879 
L 176.840793 407.446792 
L 183.016391 415.337554 
L 189.191988 422.542834 
L 195.367585 429.118911 
L 201.543182 435.11927 
L 207.718779 440.592495 
L 210.806578 443.13856 
L 213.894377 488.320552 
L 1001.283021 488.320552 
L 1001.283021 488.320552 
" clip-path="url(#p80e0dca482)" style="fill: none; stroke: #ad494a; stroke-width: 2; stroke-linecap: round"/>
   </g>
   <g id="line2d_21">
    <path d="M 74.943439 54.110505 
L 81.119037 102.152163 
L 84.206835 124.217432 
L 87.294634 144.846845 
L 90.382432 164.16153 
L 93.470231 182.277445 
L 96.55803 199.285277 
L 99.645828 215.275023 
L 102.733627 230.331564 
L 105.821425 244.518363 
L 108.909224 257.906381 
L 111.997023 270.546925 
L 115.084821 282.494244 
L 118.17262 293.798708 
L 121.260418 304.500545 
L 124.348217 314.642978 
L 127.436016 324.258456 
L 130.523814 333.379235 
L 133.611613 342.034801 
L 136.699411 350.257048 
L 139.78721 358.068234 
L 142.875009 365.490076 
L 145.962807 372.542473 
L 149.050606 379.241446 
L 152.138405 385.603091 
L 155.226203 391.65502 
L 158.314002 397.408425 
L 161.4018 402.877101 
L 164.489599 408.070423 
L 167.577398 412.999548 
L 170.665196 417.676032 
L 173.752995 422.11626 
L 176.840793 426.328149 
L 179.928592 430.319847 
L 183.016391 434.096765 
L 186.104189 437.666194 
L 189.191988 441.040287 
L 192.279786 444.234183 
L 195.367585 488.320552 
L 1001.283021 488.320552 
L 1001.283021 488.320552 
" clip-path="url(#p80e0dca482)" style="fill: none; stroke: #e7969c; stroke-width: 2; stroke-linecap: round"/>
   </g>
   <g id="line2d_22">
    <path d="M 74.943439 54.110506 
L 81.119037 104.529356 
L 84.206835 127.71539 
L 87.294634 149.421541 
L 90.382432 169.773306 
L 93.470231 188.880603 
L 96.55803 206.854457 
L 99.645828 223.746688 
L 102.733627 239.695467 
L 105.821425 254.741748 
L 108.909224 268.924678 
L 111.997023 282.340141 
L 115.084821 295.030067 
L 118.17262 307.048238 
L 121.260418 318.408071 
L 124.348217 329.174074 
L 127.436016 339.376283 
L 130.523814 349.042877 
L 133.611613 358.20161 
L 136.699411 366.877567 
L 139.78721 375.091765 
L 142.875009 382.868956 
L 145.962807 390.233331 
L 149.050606 397.199187 
L 152.138405 403.782482 
L 155.226203 409.994117 
L 158.314002 415.849333 
L 161.4018 421.362449 
L 164.489599 426.548681 
L 167.577398 431.426666 
L 170.665196 436.006072 
L 173.752995 440.286495 
L 176.840793 444.27829 
L 179.928592 488.320552 
L 1001.283021 488.320552 
L 1001.283021 488.320552 
" clip-path="url(#p80e0dca482)" style="fill: none; stroke: #a55194; stroke-width: 2; stroke-linecap: round"/>
   </g>
   <g id="line2d_23">
    <path d="M 74.943439 54.110507 
L 81.119037 106.589937 
L 84.206835 130.804652 
L 87.294634 153.53463 
L 90.382432 174.899869 
L 93.470231 195.012507 
L 96.55803 213.967795 
L 99.645828 231.844626 
L 102.733627 248.729206 
L 105.821425 264.707345 
L 108.909224 279.7898 
L 111.997023 294.0719 
L 115.084821 307.588804 
L 118.17262 320.408272 
L 121.260418 332.511572 
L 124.348217 343.975239 
L 127.436016 354.82797 
L 130.523814 365.079189 
L 133.611613 374.753998 
L 136.699411 383.899224 
L 139.78721 392.489724 
L 142.875009 400.588872 
L 145.962807 408.187694 
L 149.050606 415.294715 
L 152.138405 421.949772 
L 155.226203 428.143785 
L 158.314002 433.902012 
L 161.4018 439.238878 
L 164.489599 444.165598 
L 167.577398 488.320552 
L 1001.283021 488.320552 
L 1001.283021 488.320552 
" clip-path="url(#p80e0dca482)" style="fill: none; stroke: #de9ed6; stroke-width: 2; stroke-linecap: round"/>
   </g>
   <g id="line2d_24">
    <path d="M 74.943439 444.899547 
L 1047.6 444.899547 
" clip-path="url(#p80e0dca482)" style="fill: none; stroke-dasharray: 7.4,3.2; stroke-dashoffset: 0; stroke: #ffa500; stroke-width: 2"/>
   </g>
   <g id="patch_3">
    <path d="M 74.943439 510.031054 
L 74.943439 32.4 
" style="fill: none; stroke: #262626; stroke-width: 0.8; stroke-linejoin: miter; stroke-linecap: square"/>
   </g>
   <g id="patch_4">
    <path d="M 74.943439 510.031054 
L 1047.6 510.031054 
" style="fill: none; stroke: #262626; stroke-width: 0.8; stroke-linejoin: miter; stroke-linecap: square"/>
   </g>
  </g>
 </g>
 <defs>
  <clipPath id="p80e0dca482">
   <rect x="74.943439" y="32.4" width="972.656561" height="477.631054"/>
  </clipPath>
 </defs>
</svg>
