<?xml version="1.0" encoding="utf-8" standalone="no"?>
<!DOCTYPE svg PUBLIC "-//W3C//DTD SVG 1.1//EN"
  "http://www.w3.org/Graphics/SVG/1.1/DTD/svg11.dtd">
<svg xmlns:xlink="http://www.w3.org/1999/xlink" width="1080pt" height="576pt" viewBox="0 0 1080 576" xmlns="http://www.w3.org/2000/svg" version="1.1">
 <metadata>
  <rdf:RDF xmlns:dc="http://purl.org/dc/elements/1.1/" xmlns:cc="http://creativecommons.org/ns#" xmlns:rdf="http://www.w3.org/1999/02/22-rdf-syntax-ns#">
   <cc:Work>
    <dc:type rdf:resource="http://purl.org/dc/dcmitype/StillImage"/>
    <dc:date>2024-07-24T00:25:29.038095</dc:date>
    <dc:format>image/svg+xml</dc:format>
    <dc:creator>
     <cc:Agent>
      <dc:title>Matplotlib v3.9.0, https://matplotlib.org/</dc:title>
     </cc:Agent>
    </dc:creator>
   </cc:Work>
  </rdf:RDF>
 </metadata>
 <defs>
  <style type="text/css">*{stroke-linejoin: round; stroke-linecap: butt}</style>
 </defs>
 <g id="figure_1">
  <g id="patch_1">
   <path d="M 0 576 
L 1080 576 
L 1080 0 
L 0 0 
z
" style="fill: #ffffff"/>
  </g>
  <g id="axes_1">
   <g id="patch_2">
    <path d="M 46.383522 535.390936 
L 1060.56 535.390936 
L 1060.56 19.44 
L 46.383522 19.44 
z
" style="fill: #eaeaf2"/>
   </g>
   <g id="matplotlib.axis_1">
    <g id="xtick_1">
     <g id="line2d_1">
      <path d="M 46.383522 535.390936 
L 46.383522 19.44 
" clip-path="url(#p37ba9f848b)" style="fill: none; stroke: #ffffff; stroke-width: 0.8; stroke-linecap: round"/>
     </g>
     <g id="text_1">
      <!-- $\mathdefault{0}$ -->
      <g style="fill: #262626" transform="translate(42.481529 553.460524) scale(0.16 -0.16)">
       <defs>
        <path id="CMR17-30" d="M 2688 2025 
C 2688 2416 2682 3080 2413 3591 
C 2176 4039 1798 4198 1466 4198 
C 1158 4198 768 4058 525 3597 
C 269 3118 243 2524 243 2025 
C 243 1661 250 1106 448 619 
C 723 -39 1216 -128 1466 -128 
C 1760 -128 2208 -7 2470 600 
C 2662 1042 2688 1559 2688 2025 
z
M 1466 -26 
C 1056 -26 813 325 723 812 
C 653 1188 653 1738 653 2096 
C 653 2588 653 2997 736 3387 
C 858 3929 1216 4096 1466 4096 
C 1728 4096 2067 3923 2189 3400 
C 2272 3036 2278 2607 2278 2096 
C 2278 1680 2278 1169 2202 792 
C 2067 95 1690 -26 1466 -26 
z
" transform="scale(0.015625)"/>
       </defs>
       <use xlink:href="#CMR17-30" transform="scale(0.996264)"/>
      </g>
     </g>
    </g>
    <g id="xtick_2">
     <g id="line2d_2">
      <path d="M 207.363916 535.390936 
L 207.363916 19.44 
" clip-path="url(#p37ba9f848b)" style="fill: none; stroke: #ffffff; stroke-width: 0.8; stroke-linecap: round"/>
     </g>
     <g id="text_2">
      <!-- $\mathdefault{500}$ -->
      <g style="fill: #262626" transform="translate(195.657935 553.460524) scale(0.16 -0.16)">
       <defs>
        <path id="CMR17-35" d="M 730 3692 
C 794 3666 1056 3584 1325 3584 
C 1920 3584 2246 3911 2432 4100 
C 2432 4157 2432 4192 2394 4192 
C 2387 4192 2374 4192 2323 4163 
C 2099 4058 1837 3973 1517 3973 
C 1325 3973 1037 3999 723 4139 
C 653 4171 640 4171 634 4171 
C 602 4171 595 4164 595 4037 
L 595 2203 
C 595 2089 595 2057 659 2057 
C 691 2057 704 2070 736 2114 
C 941 2401 1222 2522 1542 2522 
C 1766 2522 2246 2382 2246 1289 
C 2246 1085 2246 715 2054 421 
C 1894 159 1645 25 1370 25 
C 947 25 518 320 403 814 
C 429 807 480 795 506 795 
C 589 795 749 840 749 1038 
C 749 1210 627 1280 506 1280 
C 358 1280 262 1190 262 1011 
C 262 454 704 -128 1382 -128 
C 2042 -128 2669 440 2669 1264 
C 2669 2030 2170 2624 1549 2624 
C 1222 2624 947 2503 730 2274 
L 730 3692 
z
" transform="scale(0.015625)"/>
       </defs>
       <use xlink:href="#CMR17-35" transform="scale(0.996264)"/>
       <use xlink:href="#CMR17-30" transform="translate(45.690477 0) scale(0.996264)"/>
       <use xlink:href="#CMR17-30" transform="translate(91.380954 0) scale(0.996264)"/>
      </g>
     </g>
    </g>
    <g id="xtick_3">
     <g id="line2d_3">
      <path d="M 368.344309 535.390936 
L 368.344309 19.44 
" clip-path="url(#p37ba9f848b)" style="fill: none; stroke: #ffffff; stroke-width: 0.8; stroke-linecap: round"/>
     </g>
     <g id="text_3">
      <!-- $\mathdefault{1000}$ -->
      <g style="fill: #262626" transform="translate(352.736335 553.460524) scale(0.16 -0.16)">
       <defs>
        <path id="CMR17-31" d="M 1702 4058 
C 1702 4192 1696 4192 1606 4192 
C 1357 3916 979 3827 621 3827 
C 602 3827 570 3827 563 3808 
C 557 3795 557 3782 557 3648 
C 755 3648 1088 3686 1344 3839 
L 1344 461 
C 1344 236 1331 160 781 160 
L 589 160 
L 589 0 
C 896 0 1216 0 1523 0 
C 1830 0 2150 0 2458 0 
L 2458 160 
L 2266 160 
C 1715 160 1702 230 1702 458 
L 1702 4058 
z
" transform="scale(0.015625)"/>
       </defs>
       <use xlink:href="#CMR17-31" transform="scale(0.996264)"/>
       <use xlink:href="#CMR17-30" transform="translate(45.690477 0) scale(0.996264)"/>
       <use xlink:href="#CMR17-30" transform="translate(91.380954 0) scale(0.996264)"/>
       <use xlink:href="#CMR17-30" transform="translate(137.071431 0) scale(0.996264)"/>
      </g>
     </g>
    </g>
    <g id="xtick_4">
     <g id="line2d_4">
      <path d="M 529.324702 535.390936 
L 529.324702 19.44 
" clip-path="url(#p37ba9f848b)" style="fill: none; stroke: #ffffff; stroke-width: 0.8; stroke-linecap: round"/>
     </g>
     <g id="text_4">
      <!-- $\mathdefault{1500}$ -->
      <g style="fill: #262626" transform="translate(513.716728 553.460524) scale(0.16 -0.16)">
       <use xlink:href="#CMR17-31" transform="scale(0.996264)"/>
       <use xlink:href="#CMR17-35" transform="translate(45.690477 0) scale(0.996264)"/>
       <use xlink:href="#CMR17-30" transform="translate(91.380954 0) scale(0.996264)"/>
       <use xlink:href="#CMR17-30" transform="translate(137.071431 0) scale(0.996264)"/>
      </g>
     </g>
    </g>
    <g id="xtick_5">
     <g id="line2d_5">
      <path d="M 690.305095 535.390936 
L 690.305095 19.44 
" clip-path="url(#p37ba9f848b)" style="fill: none; stroke: #ffffff; stroke-width: 0.8; stroke-linecap: round"/>
     </g>
     <g id="text_5">
      <!-- $\mathdefault{2000}$ -->
      <g style="fill: #262626" transform="translate(674.697121 553.460524) scale(0.16 -0.16)">
       <defs>
        <path id="CMR17-32" d="M 2669 989 
L 2554 989 
C 2490 536 2438 459 2413 420 
C 2381 369 1920 369 1830 369 
L 602 369 
C 832 619 1280 1072 1824 1597 
C 2214 1967 2669 2402 2669 3035 
C 2669 3790 2067 4224 1395 4224 
C 691 4224 262 3604 262 3030 
C 262 2780 448 2748 525 2748 
C 589 2748 781 2787 781 3010 
C 781 3207 614 3264 525 3264 
C 486 3264 448 3258 422 3245 
C 544 3790 915 4058 1306 4058 
C 1862 4058 2227 3617 2227 3035 
C 2227 2479 1901 2000 1536 1584 
L 262 146 
L 262 0 
L 2515 0 
L 2669 989 
z
" transform="scale(0.015625)"/>
       </defs>
       <use xlink:href="#CMR17-32" transform="scale(0.996264)"/>
       <use xlink:href="#CMR17-30" transform="translate(45.690477 0) scale(0.996264)"/>
       <use xlink:href="#CMR17-30" transform="translate(91.380954 0) scale(0.996264)"/>
       <use xlink:href="#CMR17-30" transform="translate(137.071431 0) scale(0.996264)"/>
      </g>
     </g>
    </g>
    <g id="xtick_6">
     <g id="line2d_6">
      <path d="M 851.285489 535.390936 
L 851.285489 19.44 
" clip-path="url(#p37ba9f848b)" style="fill: none; stroke: #ffffff; stroke-width: 0.8; stroke-linecap: round"/>
     </g>
     <g id="text_6">
      <!-- $\mathdefault{2500}$ -->
      <g style="fill: #262626" transform="translate(835.677515 553.460524) scale(0.16 -0.16)">
       <use xlink:href="#CMR17-32" transform="scale(0.996264)"/>
       <use xlink:href="#CMR17-35" transform="translate(45.690477 0) scale(0.996264)"/>
       <use xlink:href="#CMR17-30" transform="translate(91.380954 0) scale(0.996264)"/>
       <use xlink:href="#CMR17-30" transform="translate(137.071431 0) scale(0.996264)"/>
      </g>
     </g>
    </g>
    <g id="xtick_7">
     <g id="line2d_7">
      <path d="M 1012.265882 535.390936 
L 1012.265882 19.44 
" clip-path="url(#p37ba9f848b)" style="fill: none; stroke: #ffffff; stroke-width: 0.8; stroke-linecap: round"/>
     </g>
     <g id="text_7">
      <!-- $\mathdefault{3000}$ -->
      <g style="fill: #262626" transform="translate(996.657908 553.460524) scale(0.16 -0.16)">
       <defs>
        <path id="CMR17-33" d="M 1414 2157 
C 1984 2157 2234 1662 2234 1090 
C 2234 320 1824 25 1453 25 
C 1114 25 563 194 390 693 
C 422 680 454 680 486 680 
C 640 680 755 782 755 948 
C 755 1133 614 1216 486 1216 
C 378 1216 211 1165 211 926 
C 211 335 787 -128 1466 -128 
C 2176 -128 2720 430 2720 1085 
C 2720 1707 2208 2157 1600 2227 
C 2086 2328 2554 2756 2554 3329 
C 2554 3820 2048 4179 1472 4179 
C 890 4179 378 3829 378 3329 
C 378 3110 544 3072 627 3072 
C 762 3072 877 3155 877 3321 
C 877 3486 762 3569 627 3569 
C 602 3569 570 3569 544 3557 
C 730 3959 1235 4032 1459 4032 
C 1683 4032 2106 3925 2106 3320 
C 2106 3143 2080 2828 1862 2550 
C 1670 2304 1453 2304 1242 2284 
C 1210 2284 1062 2269 1037 2269 
C 992 2263 966 2257 966 2208 
C 966 2163 973 2157 1101 2157 
L 1414 2157 
z
" transform="scale(0.015625)"/>
       </defs>
       <use xlink:href="#CMR17-33" transform="scale(0.996264)"/>
       <use xlink:href="#CMR17-30" transform="translate(45.690477 0) scale(0.996264)"/>
       <use xlink:href="#CMR17-30" transform="translate(91.380954 0) scale(0.996264)"/>
       <use xlink:href="#CMR17-30" transform="translate(137.071431 0) scale(0.996264)"/>
      </g>
     </g>
    </g>
   </g>
   <g id="matplotlib.axis_2">
    <g id="ytick_1">
     <g id="line2d_8">
      <path d="M 46.383522 512.271164 
L 1060.56 512.271164 
" clip-path="url(#p37ba9f848b)" style="fill: none; stroke: #ffffff; stroke-width: 0.8; stroke-linecap: round"/>
     </g>
     <g id="text_8">
      <!-- $\mathdefault{0.0}$ -->
      <g style="fill: #262626" transform="translate(19.44 517.805958) scale(0.16 -0.16)">
       <defs>
        <path id="CMMI12-3a" d="M 1178 307 
C 1178 492 1024 619 870 619 
C 685 619 557 466 557 313 
C 557 128 710 0 864 0 
C 1050 0 1178 153 1178 307 
z
" transform="scale(0.015625)"/>
       </defs>
       <use xlink:href="#CMR17-30" transform="scale(0.996264)"/>
       <use xlink:href="#CMMI12-3a" transform="translate(45.690477 0) scale(0.996264)"/>
       <use xlink:href="#CMR17-30" transform="translate(72.787654 0) scale(0.996264)"/>
      </g>
     </g>
    </g>
    <g id="ytick_2">
     <g id="line2d_9">
      <path d="M 46.383522 418.395394 
L 1060.56 418.395394 
" clip-path="url(#p37ba9f848b)" style="fill: none; stroke: #ffffff; stroke-width: 0.8; stroke-linecap: round"/>
     </g>
     <g id="text_9">
      <!-- $\mathdefault{0.2}$ -->
      <g style="fill: #262626" transform="translate(19.44 423.930188) scale(0.16 -0.16)">
       <use xlink:href="#CMR17-30" transform="scale(0.996264)"/>
       <use xlink:href="#CMMI12-3a" transform="translate(45.690477 0) scale(0.996264)"/>
       <use xlink:href="#CMR17-32" transform="translate(72.787654 0) scale(0.996264)"/>
      </g>
     </g>
    </g>
    <g id="ytick_3">
     <g id="line2d_10">
      <path d="M 46.383522 324.519624 
L 1060.56 324.519624 
" clip-path="url(#p37ba9f848b)" style="fill: none; stroke: #ffffff; stroke-width: 0.8; stroke-linecap: round"/>
     </g>
     <g id="text_10">
      <!-- $\mathdefault{0.4}$ -->
      <g style="fill: #262626" transform="translate(19.44 330.054418) scale(0.16 -0.16)">
       <defs>
        <path id="CMR17-34" d="M 2150 4122 
C 2150 4256 2144 4256 2029 4256 
L 128 1254 
L 128 1088 
L 1779 1088 
L 1779 457 
C 1779 224 1766 160 1318 160 
L 1197 160 
L 1197 0 
C 1402 0 1747 0 1965 0 
C 2182 0 2528 0 2733 0 
L 2733 160 
L 2611 160 
C 2163 160 2150 224 2150 457 
L 2150 1088 
L 2803 1088 
L 2803 1254 
L 2150 1254 
L 2150 4122 
z
M 1798 3703 
L 1798 1254 
L 256 1254 
L 1798 3703 
z
" transform="scale(0.015625)"/>
       </defs>
       <use xlink:href="#CMR17-30" transform="scale(0.996264)"/>
       <use xlink:href="#CMMI12-3a" transform="translate(45.690477 0) scale(0.996264)"/>
       <use xlink:href="#CMR17-34" transform="translate(72.787654 0) scale(0.996264)"/>
      </g>
     </g>
    </g>
    <g id="ytick_4">
     <g id="line2d_11">
      <path d="M 46.383522 230.643855 
L 1060.56 230.643855 
" clip-path="url(#p37ba9f848b)" style="fill: none; stroke: #ffffff; stroke-width: 0.8; stroke-linecap: round"/>
     </g>
     <g id="text_11">
      <!-- $\mathdefault{0.6}$ -->
      <g style="fill: #262626" transform="translate(19.44 236.178649) scale(0.16 -0.16)">
       <defs>
        <path id="CMR17-36" d="M 678 2176 
C 678 3690 1395 4032 1811 4032 
C 1946 4032 2272 4009 2400 3776 
C 2298 3776 2106 3776 2106 3553 
C 2106 3381 2246 3323 2336 3323 
C 2394 3323 2566 3348 2566 3560 
C 2566 3954 2246 4179 1805 4179 
C 1043 4179 243 3390 243 1984 
C 243 253 966 -128 1478 -128 
C 2099 -128 2688 427 2688 1283 
C 2688 2081 2170 2662 1517 2662 
C 1126 2662 838 2407 678 1960 
L 678 2176 
z
M 1478 25 
C 691 25 691 1200 691 1436 
C 691 1896 909 2560 1504 2560 
C 1613 2560 1926 2560 2138 2120 
C 2253 1870 2253 1609 2253 1289 
C 2253 944 2253 690 2118 434 
C 1978 171 1773 25 1478 25 
z
" transform="scale(0.015625)"/>
       </defs>
       <use xlink:href="#CMR17-30" transform="scale(0.996264)"/>
       <use xlink:href="#CMMI12-3a" transform="translate(45.690477 0) scale(0.996264)"/>
       <use xlink:href="#CMR17-36" transform="translate(72.787654 0) scale(0.996264)"/>
      </g>
     </g>
    </g>
    <g id="ytick_5">
     <g id="line2d_12">
      <path d="M 46.383522 136.768085 
L 1060.56 136.768085 
" clip-path="url(#p37ba9f848b)" style="fill: none; stroke: #ffffff; stroke-width: 0.8; stroke-linecap: round"/>
     </g>
     <g id="text_12">
      <!-- $\mathdefault{0.8}$ -->
      <g style="fill: #262626" transform="translate(19.44 142.302879) scale(0.16 -0.16)">
       <defs>
        <path id="CMR17-38" d="M 1741 2264 
C 2144 2467 2554 2773 2554 3263 
C 2554 3841 1990 4179 1472 4179 
C 890 4179 378 3759 378 3180 
C 378 3021 416 2747 666 2505 
C 730 2442 998 2251 1171 2130 
C 883 1983 211 1634 211 934 
C 211 279 838 -128 1459 -128 
C 2144 -128 2720 362 2720 1010 
C 2720 1590 2330 1857 2074 2029 
L 1741 2264 
z
M 902 2822 
C 851 2854 595 3051 595 3351 
C 595 3739 998 4032 1459 4032 
C 1965 4032 2336 3676 2336 3262 
C 2336 2669 1670 2331 1638 2331 
C 1632 2331 1626 2331 1574 2370 
L 902 2822 
z
M 2080 1519 
C 2176 1449 2483 1240 2483 851 
C 2483 381 2010 25 1472 25 
C 890 25 448 438 448 940 
C 448 1443 838 1862 1280 2060 
L 2080 1519 
z
" transform="scale(0.015625)"/>
       </defs>
       <use xlink:href="#CMR17-30" transform="scale(0.996264)"/>
       <use xlink:href="#CMMI12-3a" transform="translate(45.690477 0) scale(0.996264)"/>
       <use xlink:href="#CMR17-38" transform="translate(72.787654 0) scale(0.996264)"/>
      </g>
     </g>
    </g>
    <g id="ytick_6">
     <g id="line2d_13">
      <path d="M 46.383522 42.892315 
L 1060.56 42.892315 
" clip-path="url(#p37ba9f848b)" style="fill: none; stroke: #ffffff; stroke-width: 0.8; stroke-linecap: round"/>
     </g>
     <g id="text_13">
      <!-- $\mathdefault{1.0}$ -->
      <g style="fill: #262626" transform="translate(19.44 48.427109) scale(0.16 -0.16)">
       <use xlink:href="#CMR17-31" transform="scale(0.996264)"/>
       <use xlink:href="#CMMI12-3a" transform="translate(45.690477 0) scale(0.996264)"/>
       <use xlink:href="#CMR17-30" transform="translate(72.787654 0) scale(0.996264)"/>
      </g>
     </g>
    </g>
   </g>
   <g id="line2d_14">
    <path d="M 46.383522 42.892315 
L 56.042346 72.812905 
L 62.481562 91.497065 
L 68.920777 109.030678 
L 75.359993 125.470588 
L 81.799209 140.958814 
L 88.238425 155.495645 
L 94.67764 169.243311 
L 101.116856 182.179639 
L 107.556072 194.426224 
L 113.995288 205.977475 
L 120.434503 216.930126 
L 126.873719 227.309624 
L 133.312935 237.156479 
L 139.75215 246.501167 
L 146.191366 255.378076 
L 152.630582 263.816015 
L 159.069798 271.847997 
L 165.509013 279.505757 
L 171.948229 286.808538 
L 178.387445 293.768146 
L 184.826661 300.418564 
L 191.265876 306.784771 
L 197.705092 312.852609 
L 204.144308 318.648169 
L 210.583523 324.193128 
L 217.022739 329.504537 
L 223.461955 334.598364 
L 229.901171 339.492407 
L 239.559994 346.491177 
L 249.218818 353.055112 
L 258.877641 359.239077 
L 268.536465 365.073782 
L 278.195289 370.579078 
L 287.854112 375.789352 
L 297.512936 380.724436 
L 307.171759 385.391867 
L 316.830583 389.822253 
L 326.489407 394.027942 
L 336.14823 398.019416 
L 345.807054 401.818687 
L 355.465877 405.432438 
L 368.344309 409.982646 
L 381.22274 414.255683 
L 394.101172 418.268578 
L 406.979603 422.043799 
L 419.858035 425.599627 
L 432.736466 428.951398 
L 448.834506 432.8826 
L 464.932545 436.549716 
L 481.030584 439.969644 
L 497.128624 443.166261 
L 513.226663 446.167361 
L 529.324702 448.973258 
L 548.642349 452.100558 
L 567.959997 455.02848 
L 587.277644 457.746582 
L 609.814899 460.680864 
L 632.352154 463.393311 
L 654.889409 465.854549 
L 677.426664 468.11151 
L 703.183527 470.463083 
L 735.379606 473.148683 
L 757.916861 474.818306 
L 802.991371 477.827215 
L 838.407057 479.865337 
L 877.042352 481.882049 
L 912.458038 483.518007 
L 960.752156 485.485407 
L 1009.046274 487.207562 
L 1012.265882 487.314437 
L 1012.265882 487.314437 
" clip-path="url(#p37ba9f848b)" style="fill: none; stroke: #393b79; stroke-width: 2; stroke-linecap: round"/>
   </g>
   <g id="line2d_15">
    <path d="M 46.383522 42.892316 
L 52.822738 78.620883 
L 56.042346 95.372016 
L 59.261954 111.18251 
L 62.481562 126.122588 
L 65.70117 140.254619 
L 68.920777 153.63951 
L 72.140385 166.319273 
L 75.359993 178.348055 
L 78.579601 189.780391 
L 81.799209 200.653648 
L 85.018817 210.987934 
L 88.238425 220.82399 
L 91.458032 230.192323 
L 94.67764 239.127393 
L 97.897248 247.655035 
L 101.116856 255.791935 
L 104.336464 263.570473 
L 107.556072 271.017677 
L 110.77568 278.13163 
L 113.995288 284.945084 
L 117.214895 291.47946 
L 120.434503 297.742913 
L 123.654111 303.744428 
L 130.093327 315.046512 
L 136.532543 325.468569 
L 142.971758 335.115304 
L 149.410974 344.052941 
L 155.85019 352.358361 
L 162.289405 360.081279 
L 168.728621 367.279998 
L 175.167837 374.000777 
L 181.607053 380.28224 
L 188.046268 386.162015 
L 194.485484 391.677904 
L 200.9247 396.852796 
L 207.363916 401.714272 
L 213.803131 406.293395 
L 220.242347 410.605322 
L 226.681563 414.671082 
L 233.120779 418.516025 
L 239.559994 422.152387 
L 245.99921 425.594895 
L 252.438426 428.857777 
L 262.097249 433.436681 
L 271.756073 437.674904 
L 281.414897 441.602078 
L 291.07372 445.246413 
L 300.732544 448.629764 
L 310.391367 451.786376 
L 320.050191 454.745096 
L 329.709015 457.509757 
L 342.587446 460.921775 
L 355.465877 464.040126 
L 368.344309 466.903247 
L 381.22274 469.553026 
L 394.101172 472.001913 
L 410.199211 474.816329 
L 426.29725 477.377341 
L 442.39529 479.683605 
L 458.493329 481.799499 
L 474.591368 483.705475 
L 493.909016 485.753925 
L 513.226663 487.574842 
L 535.763918 489.44949 
L 558.301173 491.094939 
L 584.058036 492.73649 
L 613.034507 494.332696 
L 642.010977 495.701544 
L 677.426664 497.142192 
L 712.842351 498.37995 
L 757.916861 499.681684 
L 799.771763 500.723378 
L 857.724704 501.902241 
L 918.897254 502.912507 
L 992.948235 503.92476 
L 1012.265882 504.152632 
L 1012.265882 504.152632 
" clip-path="url(#p37ba9f848b)" style="fill: none; stroke: #6b6ecf; stroke-width: 2; stroke-linecap: round"/>
   </g>
   <g id="line2d_16">
    <path d="M 46.383522 42.892316 
L 52.822738 90.945528 
L 56.042346 112.798304 
L 59.261954 133.043595 
L 62.481562 151.83879 
L 65.70117 169.319075 
L 68.920777 185.607854 
L 72.140385 200.78759 
L 75.359993 214.974362 
L 78.579601 228.286209 
L 81.799209 240.777436 
L 85.018817 252.478187 
L 88.238425 263.461983 
L 91.458032 273.788701 
L 94.67764 283.512902 
L 97.897248 292.693022 
L 101.116856 301.386542 
L 104.336464 309.618834 
L 107.556072 317.388532 
L 110.77568 324.758094 
L 113.995288 331.736666 
L 117.214895 338.363373 
L 120.434503 344.652487 
L 123.654111 350.625976 
L 126.873719 356.306901 
L 130.093327 361.713473 
L 133.312935 366.867574 
L 136.532543 371.784537 
L 139.75215 376.485026 
L 142.971758 380.976348 
L 146.191366 385.267691 
L 149.410974 389.367239 
L 155.85019 397.042133 
L 162.289405 404.085908 
L 168.728621 410.568051 
L 175.167837 416.553466 
L 181.607053 422.115105 
L 188.046268 427.278625 
L 194.485484 432.016585 
L 200.9247 436.411844 
L 207.363916 440.513979 
L 213.803131 444.341399 
L 220.242347 447.925152 
L 226.681563 451.276997 
L 233.120779 454.409967 
L 239.559994 457.337205 
L 245.99921 460.081591 
L 255.658034 463.892706 
L 265.316857 467.38228 
L 274.975681 470.576077 
L 284.634504 473.508757 
L 294.293328 476.198209 
L 303.952152 478.673618 
L 313.610975 480.952386 
L 323.269799 483.052859 
L 332.928622 484.969418 
L 345.807054 487.264646 
L 358.685485 489.282347 
L 371.563917 491.059823 
L 384.442348 492.628948 
L 400.540388 494.349905 
L 416.638427 495.827038 
L 432.736466 497.101367 
L 452.054113 498.419652 
L 474.591368 499.72336 
L 500.348231 500.953625 
L 529.324702 502.108243 
L 561.520781 503.154983 
L 600.156075 504.171584 
L 645.230585 505.115009 
L 696.744311 505.966188 
L 757.916861 506.753736 
L 835.187449 507.512644 
L 928.556078 508.196983 
L 1012.265882 508.665311 
L 1012.265882 508.665311 
" clip-path="url(#p37ba9f848b)" style="fill: none; stroke: #8ca252; stroke-width: 2; stroke-linecap: round"/>
   </g>
   <g id="line2d_17">
    <path d="M 46.383522 42.892317 
L 49.60313 72.569752 
L 52.822738 100.821131 
L 56.042346 126.573738 
L 59.261954 150.116326 
L 62.481562 171.694128 
L 65.70117 191.528873 
L 68.920777 209.788574 
L 72.140385 226.639355 
L 75.359993 242.235258 
L 78.579601 256.692796 
L 81.799209 270.110574 
L 85.018817 282.587607 
L 88.238425 294.210798 
L 91.458032 305.058119 
L 94.67764 315.203787 
L 97.897248 324.696555 
L 101.116856 333.5939 
L 104.336464 341.944761 
L 107.556072 349.799447 
L 110.77568 357.194245 
L 113.995288 364.161272 
L 117.214895 370.725672 
L 120.434503 376.918231 
L 123.654111 382.767144 
L 126.873719 388.304126 
L 130.093327 393.558648 
L 133.312935 398.544427 
L 136.532543 403.265381 
L 139.75215 407.749517 
L 142.971758 412.010263 
L 146.191366 416.059266 
L 149.410974 419.915692 
L 152.630582 423.585991 
L 159.069798 430.424011 
L 165.509013 436.646508 
L 171.948229 442.324898 
L 178.387445 447.519248 
L 184.826661 452.281124 
L 191.265876 456.65413 
L 197.705092 460.676038 
L 204.144308 464.381253 
L 210.583523 467.803916 
L 217.022739 470.967416 
L 223.461955 473.893684 
L 229.901171 476.599291 
L 236.340386 479.099284 
L 242.779602 481.419723 
L 249.218818 483.569959 
L 255.658034 485.551538 
L 262.097249 487.358425 
L 268.536465 488.988586 
L 278.195289 491.1725 
L 287.854112 493.060708 
L 297.512936 494.699948 
L 307.171759 496.125687 
L 320.050191 497.747748 
L 332.928622 499.112768 
L 345.807054 500.231408 
L 365.124701 501.670479 
L 381.22274 502.639007 
L 400.540388 503.609051 
L 426.29725 504.651362 
L 455.273721 505.575256 
L 487.4698 506.377271 
L 529.324702 507.170615 
L 574.399212 507.840867 
L 622.69333 508.375201 
L 699.963919 509.025965 
L 796.552155 509.586607 
L 922.116862 510.080962 
L 1012.265882 510.339895 
L 1012.265882 510.339895 
" clip-path="url(#p37ba9f848b)" style="fill: none; stroke: #cedb9c; stroke-width: 2; stroke-linecap: round"/>
   </g>
   <g id="line2d_18">
    <path d="M 46.383522 42.892319 
L 49.60313 76.895641 
L 52.822738 108.873673 
L 56.042346 137.735696 
L 59.261954 163.877058 
L 62.481562 187.628798 
L 65.70117 209.288719 
L 68.920777 229.072672 
L 72.140385 247.201713 
L 75.359993 263.862051 
L 78.579601 279.199092 
L 81.799209 293.340118 
L 85.018817 306.409583 
L 88.238425 318.521308 
L 91.458032 329.774134 
L 94.67764 340.231625 
L 97.897248 349.961752 
L 101.116856 359.027538 
L 104.336464 367.505063 
L 107.556072 375.454665 
L 110.77568 382.904121 
L 113.995288 389.886857 
L 117.214895 396.417766 
L 120.434503 402.542121 
L 123.654111 408.307738 
L 126.873719 413.761019 
L 130.093327 418.927571 
L 133.312935 423.778974 
L 136.532543 428.346732 
L 139.75215 432.656697 
L 142.971758 436.739875 
L 146.191366 440.610277 
L 149.410974 444.266209 
L 152.630582 447.739201 
L 155.85019 451.036096 
L 162.289405 457.070337 
L 168.728621 462.553189 
L 175.167837 467.475939 
L 181.607053 471.919655 
L 188.046268 475.951502 
L 194.485484 479.583187 
L 200.9247 482.864348 
L 207.363916 485.802041 
L 213.803131 488.383911 
L 220.242347 490.638805 
L 226.681563 492.601458 
L 233.120779 494.303354 
L 239.559994 495.785383 
L 245.99921 497.074237 
L 255.658034 498.709226 
L 265.316857 500.086658 
L 278.195289 501.554506 
L 291.07372 502.74435 
L 303.952152 503.710285 
L 320.050191 504.687749 
L 339.367838 505.617911 
L 361.905093 506.464319 
L 390.881564 507.289445 
L 426.29725 508.034929 
L 468.152153 508.677908 
L 519.665879 509.244019 
L 593.716859 509.802513 
L 709.622743 510.375972 
L 848.065881 510.785252 
L 1012.265882 511.089549 
L 1012.265882 511.089549 
" clip-path="url(#p37ba9f848b)" style="fill: none; stroke: #e7ba52; stroke-width: 2; stroke-linecap: round"/>
   </g>
   <g id="line2d_19">
    <path d="M 46.383522 42.89232 
L 49.60313 80.485472 
L 52.822738 115.545961 
L 56.042346 146.995498 
L 59.261954 175.315403 
L 62.481562 200.910727 
L 65.70117 224.135422 
L 68.920777 245.238444 
L 72.140385 264.502689 
L 75.359993 282.11941 
L 78.579601 298.258334 
L 81.799209 313.094715 
L 85.018817 326.776415 
L 88.238425 339.395501 
L 91.458032 351.060911 
L 94.67764 361.865476 
L 97.897248 371.886196 
L 101.116856 381.192909 
L 104.336464 389.849464 
L 107.556072 397.91493 
L 110.77568 405.433375 
L 113.995288 412.450001 
L 117.214895 419.007185 
L 120.434503 425.141413 
L 123.654111 430.87947 
L 126.873719 436.25345 
L 130.093327 441.276661 
L 133.312935 445.968865 
L 136.532543 450.396383 
L 139.75215 454.550557 
L 142.971758 458.43653 
L 146.191366 462.05782 
L 149.410974 465.449696 
L 152.630582 468.658236 
L 155.85019 471.674847 
L 159.069798 474.478538 
L 162.289405 477.110784 
L 165.509013 479.581254 
L 168.728621 481.889829 
L 171.948229 484.039201 
L 175.167837 486.031234 
L 178.387445 487.857092 
L 181.607053 489.517329 
L 184.826661 491.025724 
L 188.046268 492.396552 
L 194.485484 494.769257 
L 200.9247 496.721887 
L 207.363916 498.343651 
L 213.803131 499.685935 
L 220.242347 500.83097 
L 229.901171 502.232406 
L 239.559994 503.354997 
L 249.218818 504.264535 
L 262.097249 505.242187 
L 278.195289 506.182914 
L 294.293328 506.91724 
L 316.830583 507.697833 
L 342.587446 508.358011 
L 378.003132 509.013577 
L 426.29725 509.623021 
L 484.250192 510.113103 
L 564.740389 510.556176 
L 674.207056 510.935691 
L 851.285489 511.286948 
L 1012.265882 511.477919 
L 1012.265882 511.477919 
" clip-path="url(#p37ba9f848b)" style="fill: none; stroke: #843c39; stroke-width: 2; stroke-linecap: round"/>
   </g>
   <g id="line2d_20">
    <path d="M 46.383522 42.892322 
L 49.60313 83.49054 
L 52.822738 121.169987 
L 56.042346 154.867523 
L 59.261954 185.132255 
L 62.481562 212.406889 
L 65.70117 237.084182 
L 68.920777 259.486828 
L 72.140385 279.871436 
L 75.359993 298.471713 
L 78.579601 315.454524 
L 81.799209 331.082084 
L 85.018817 345.405172 
L 88.238425 358.596472 
L 91.458032 370.753952 
L 94.67764 381.970602 
L 97.897248 392.338749 
L 101.116856 401.916844 
L 104.336464 410.779795 
L 107.556072 419.007013 
L 110.77568 426.625856 
L 113.995288 433.665223 
L 117.214895 440.1974 
L 120.434503 446.259048 
L 123.654111 451.87916 
L 126.873719 457.057586 
L 130.093327 461.848278 
L 133.312935 466.295669 
L 136.532543 470.389453 
L 139.75215 474.165565 
L 142.971758 477.647625 
L 146.191366 480.845996 
L 149.410974 483.771996 
L 152.630582 486.424169 
L 155.85019 488.776866 
L 159.069798 490.864824 
L 162.289405 492.70441 
L 165.509013 494.296559 
L 168.728621 495.709832 
L 171.948229 496.958423 
L 175.167837 498.04982 
L 181.607053 499.882008 
L 188.046268 501.341016 
L 194.485484 502.519913 
L 200.9247 503.491025 
L 210.583523 504.650071 
L 220.242347 505.557927 
L 229.901171 506.2836 
L 242.779602 507.043836 
L 258.877641 507.769296 
L 278.195289 508.419141 
L 303.952152 509.047121 
L 336.14823 509.598046 
L 381.22274 510.118156 
L 442.39529 510.571011 
L 526.105094 510.952632 
L 651.669801 511.287008 
L 848.065881 511.567424 
L 1012.265882 511.703149 
L 1012.265882 511.703149 
" clip-path="url(#p37ba9f848b)" style="fill: none; stroke: #e7969c; stroke-width: 2; stroke-linecap: round"/>
   </g>
   <g id="line2d_21">
    <path d="M 46.383522 42.892315 
L 49.60313 86.036484 
L 52.822738 125.995353 
L 56.042346 161.725639 
L 59.261954 193.808089 
L 62.481562 222.725648 
L 65.70117 248.87562 
L 68.920777 272.598657 
L 72.140385 294.178814 
L 75.359993 313.853684 
L 78.579601 331.829429 
L 81.799209 348.283064 
L 85.018817 363.365474 
L 88.238425 377.207415 
L 91.458032 389.918497 
L 94.67764 401.599119 
L 97.897248 412.323522 
L 101.116856 422.157682 
L 104.336464 431.18467 
L 107.556072 439.460868 
L 110.77568 447.033109 
L 113.995288 453.95116 
L 117.214895 460.256542 
L 120.434503 465.994574 
L 123.654111 471.203183 
L 126.873719 475.91895 
L 130.093327 480.177251 
L 133.312935 483.977987 
L 136.532543 487.254717 
L 139.75215 490.169643 
L 142.971758 492.621941 
L 146.191366 494.658602 
L 149.410974 496.396032 
L 152.630582 497.881759 
L 155.85019 499.146671 
L 159.069798 500.22284 
L 165.509013 501.970586 
L 171.948229 503.323048 
L 178.387445 504.386834 
L 184.826661 505.224596 
L 194.485484 506.223418 
L 204.144308 506.980735 
L 217.022739 507.748064 
L 233.120779 508.448783 
L 252.438426 509.055428 
L 278.195289 509.621912 
L 313.610975 510.142665 
L 361.905093 510.595017 
L 429.516858 510.982221 
L 535.763918 511.327232 
L 696.744311 511.600539 
L 973.630588 511.823601 
L 1012.265882 511.843587 
L 1012.265882 511.843587 
" clip-path="url(#p37ba9f848b)" style="fill: none; stroke: #a55194; stroke-width: 2; stroke-linecap: round"/>
   </g>
   <g id="line2d_22">
    <path d="M 46.383522 42.892315 
L 49.60313 88.215321 
L 52.822738 130.215654 
L 56.042346 167.853556 
L 59.261954 201.721999 
L 62.481562 232.305352 
L 65.70117 260.009242 
L 68.920777 285.176493 
L 72.140385 308.087081 
L 75.359993 328.989766 
L 78.579601 348.07416 
L 81.799209 365.493445 
L 85.018817 381.411064 
L 88.238425 395.950029 
L 91.458032 409.215896 
L 94.67764 421.291783 
L 97.897248 432.254495 
L 101.116856 442.174343 
L 104.336464 451.128354 
L 107.556072 459.163936 
L 110.77568 466.346547 
L 113.995288 472.755331 
L 117.214895 478.34634 
L 120.434503 483.297321 
L 123.654111 487.556522 
L 126.873719 491.06072 
L 130.093327 493.895127 
L 133.312935 496.186696 
L 136.532543 498.053098 
L 139.75215 499.580706 
L 142.971758 500.85205 
L 146.191366 501.910291 
L 149.410974 502.806808 
L 155.85019 504.236323 
L 162.289405 505.311528 
L 168.728621 506.146728 
L 178.387445 507.093451 
L 188.046268 507.796888 
L 200.9247 508.493312 
L 217.022739 509.112298 
L 239.559994 509.706881 
L 268.536465 510.208072 
L 307.171759 510.642722 
L 355.465877 510.980879 
L 432.736466 511.305179 
L 558.301173 511.586309 
L 770.795292 511.813035 
L 1012.265882 511.93862 
L 1012.265882 511.93862 
" clip-path="url(#p37ba9f848b)" style="fill: none; stroke: #de9ed6; stroke-width: 2; stroke-linecap: round"/>
   </g>
   <g id="line2d_23">
    <path d="M 46.383522 465.333279 
L 1060.56 465.333279 
" clip-path="url(#p37ba9f848b)" style="fill: none; stroke-dasharray: 7.4,3.2; stroke-dashoffset: 0; stroke: #ffa500; stroke-width: 2"/>
   </g>
   <g id="patch_3">
    <path d="M 46.383522 535.390936 
L 46.383522 19.44 
" style="fill: none; stroke: #ffffff; stroke-width: 0.8; stroke-linejoin: miter; stroke-linecap: square"/>
   </g>
   <g id="patch_4">
    <path d="M 1060.56 535.390936 
L 1060.56 19.44 
" style="fill: none; stroke: #ffffff; stroke-width: 0.8; stroke-linejoin: miter; stroke-linecap: square"/>
   </g>
   <g id="patch_5">
    <path d="M 46.383522 535.390936 
L 1060.56 535.390936 
" style="fill: none; stroke: #ffffff; stroke-width: 0.8; stroke-linejoin: miter; stroke-linecap: square"/>
   </g>
   <g id="patch_6">
    <path d="M 46.383522 19.44 
L 1060.56 19.44 
" style="fill: none; stroke: #ffffff; stroke-width: 0.8; stroke-linejoin: miter; stroke-linecap: square"/>
   </g>
  </g>
 </g>
 <defs>
  <clipPath id="p37ba9f848b">
   <rect x="46.383522" y="19.44" width="1014.176478" height="515.950936"/>
  </clipPath>
 </defs>
</svg>
