<?xml version="1.0" encoding="utf-8" standalone="no"?>
<!DOCTYPE svg PUBLIC "-//W3C//DTD SVG 1.1//EN"
  "http://www.w3.org/Graphics/SVG/1.1/DTD/svg11.dtd">
<svg xmlns:xlink="http://www.w3.org/1999/xlink" width="1080pt" height="576pt" viewBox="0 0 1080 576" xmlns="http://www.w3.org/2000/svg" version="1.1">
 <metadata>
  <rdf:RDF xmlns:dc="http://purl.org/dc/elements/1.1/" xmlns:cc="http://creativecommons.org/ns#" xmlns:rdf="http://www.w3.org/1999/02/22-rdf-syntax-ns#">
   <cc:Work>
    <dc:type rdf:resource="http://purl.org/dc/dcmitype/StillImage"/>
    <dc:date>2024-07-25T13:26:32.712513</dc:date>
    <dc:format>image/svg+xml</dc:format>
    <dc:creator>
     <cc:Agent>
      <dc:title>Matplotlib v3.9.0, https://matplotlib.org/</dc:title>
     </cc:Agent>
    </dc:creator>
   </cc:Work>
  </rdf:RDF>
 </metadata>
 <defs>
  <style type="text/css">*{stroke-linejoin: round; stroke-linecap: butt}</style>
 </defs>
 <g id="figure_1">
  <g id="patch_1">
   <path d="M 0 576 
L 1080 576 
L 1080 0 
L 0 0 
z
" style="fill: #ffffff"/>
  </g>
  <g id="axes_1">
   <g id="patch_2">
    <path d="M 74.943439 510.031054 
L 1047.6 510.031054 
L 1047.6 32.4 
L 74.943439 32.4 
z
" style="fill: #ffffff"/>
   </g>
   <g id="matplotlib.axis_1">
    <g id="xtick_1">
     <g id="line2d_1">
      <defs>
       <path id="m23d1d0c38a" d="M 0 0 
L 0 3.5 
" style="stroke: #262626; stroke-width: 0.8"/>
      </defs>
      <g>
       <use xlink:href="#m23d1d0c38a" x="74.943439" y="510.031054" style="fill: #262626; stroke: #262626; stroke-width: 0.8"/>
      </g>
     </g>
     <g id="text_1">
      <!-- $\mathdefault{0}$ -->
      <g style="fill: #262626" transform="translate(68.089868 537.78655) scale(0.3 -0.3)">
       <defs>
        <path id="CMR17-30" d="M 2688 2025 
C 2688 2416 2682 3080 2413 3591 
C 2176 4039 1798 4198 1466 4198 
C 1158 4198 768 4058 525 3597 
C 269 3118 243 2524 243 2025 
C 243 1661 250 1106 448 619 
C 723 -39 1216 -128 1466 -128 
C 1760 -128 2208 -7 2470 600 
C 2662 1042 2688 1559 2688 2025 
z
M 1466 -26 
C 1056 -26 813 325 723 812 
C 653 1188 653 1738 653 2096 
C 653 2588 653 2997 736 3387 
C 858 3929 1216 4096 1466 4096 
C 1728 4096 2067 3923 2189 3400 
C 2272 3036 2278 2607 2278 2096 
C 2278 1680 2278 1169 2202 792 
C 2067 95 1690 -26 1466 -26 
z
" transform="scale(0.015625)"/>
       </defs>
       <use xlink:href="#CMR17-30" transform="scale(0.996264)"/>
      </g>
     </g>
    </g>
    <g id="xtick_2">
     <g id="line2d_2">
      <g>
       <use xlink:href="#m23d1d0c38a" x="229.33337" y="510.031054" style="fill: #262626; stroke: #262626; stroke-width: 0.8"/>
      </g>
     </g>
     <g id="text_2">
      <!-- $\mathdefault{500}$ -->
      <g style="fill: #262626" transform="translate(208.772655 537.78655) scale(0.3 -0.3)">
       <defs>
        <path id="CMR17-35" d="M 730 3692 
C 794 3666 1056 3584 1325 3584 
C 1920 3584 2246 3911 2432 4100 
C 2432 4157 2432 4192 2394 4192 
C 2387 4192 2374 4192 2323 4163 
C 2099 4058 1837 3973 1517 3973 
C 1325 3973 1037 3999 723 4139 
C 653 4171 640 4171 634 4171 
C 602 4171 595 4164 595 4037 
L 595 2203 
C 595 2089 595 2057 659 2057 
C 691 2057 704 2070 736 2114 
C 941 2401 1222 2522 1542 2522 
C 1766 2522 2246 2382 2246 1289 
C 2246 1085 2246 715 2054 421 
C 1894 159 1645 25 1370 25 
C 947 25 518 320 403 814 
C 429 807 480 795 506 795 
C 589 795 749 840 749 1038 
C 749 1210 627 1280 506 1280 
C 358 1280 262 1190 262 1011 
C 262 454 704 -128 1382 -128 
C 2042 -128 2669 440 2669 1264 
C 2669 2030 2170 2624 1549 2624 
C 1222 2624 947 2503 730 2274 
L 730 3692 
z
" transform="scale(0.015625)"/>
       </defs>
       <use xlink:href="#CMR17-35" transform="scale(0.996264)"/>
       <use xlink:href="#CMR17-30" transform="translate(45.690477 0) scale(0.996264)"/>
       <use xlink:href="#CMR17-30" transform="translate(91.380954 0) scale(0.996264)"/>
      </g>
     </g>
    </g>
    <g id="xtick_3">
     <g id="line2d_3">
      <g>
       <use xlink:href="#m23d1d0c38a" x="383.7233" y="510.031054" style="fill: #262626; stroke: #262626; stroke-width: 0.8"/>
      </g>
     </g>
     <g id="text_3">
      <!-- $\mathdefault{1000}$ -->
      <g style="fill: #262626" transform="translate(356.309014 537.78655) scale(0.3 -0.3)">
       <defs>
        <path id="CMR17-31" d="M 1702 4058 
C 1702 4192 1696 4192 1606 4192 
C 1357 3916 979 3827 621 3827 
C 602 3827 570 3827 563 3808 
C 557 3795 557 3782 557 3648 
C 755 3648 1088 3686 1344 3839 
L 1344 461 
C 1344 236 1331 160 781 160 
L 589 160 
L 589 0 
C 896 0 1216 0 1523 0 
C 1830 0 2150 0 2458 0 
L 2458 160 
L 2266 160 
C 1715 160 1702 230 1702 458 
L 1702 4058 
z
" transform="scale(0.015625)"/>
       </defs>
       <use xlink:href="#CMR17-31" transform="scale(0.996264)"/>
       <use xlink:href="#CMR17-30" transform="translate(45.690477 0) scale(0.996264)"/>
       <use xlink:href="#CMR17-30" transform="translate(91.380954 0) scale(0.996264)"/>
       <use xlink:href="#CMR17-30" transform="translate(137.071431 0) scale(0.996264)"/>
      </g>
     </g>
    </g>
    <g id="xtick_4">
     <g id="line2d_4">
      <g>
       <use xlink:href="#m23d1d0c38a" x="538.11323" y="510.031054" style="fill: #262626; stroke: #262626; stroke-width: 0.8"/>
      </g>
     </g>
     <g id="text_4">
      <!-- $\mathdefault{1500}$ -->
      <g style="fill: #262626" transform="translate(510.698944 537.78655) scale(0.3 -0.3)">
       <use xlink:href="#CMR17-31" transform="scale(0.996264)"/>
       <use xlink:href="#CMR17-35" transform="translate(45.690477 0) scale(0.996264)"/>
       <use xlink:href="#CMR17-30" transform="translate(91.380954 0) scale(0.996264)"/>
       <use xlink:href="#CMR17-30" transform="translate(137.071431 0) scale(0.996264)"/>
      </g>
     </g>
    </g>
    <g id="xtick_5">
     <g id="line2d_5">
      <g>
       <use xlink:href="#m23d1d0c38a" x="692.50316" y="510.031054" style="fill: #262626; stroke: #262626; stroke-width: 0.8"/>
      </g>
     </g>
     <g id="text_5">
      <!-- $\mathdefault{2000}$ -->
      <g style="fill: #262626" transform="translate(665.088874 537.78655) scale(0.3 -0.3)">
       <defs>
        <path id="CMR17-32" d="M 2669 989 
L 2554 989 
C 2490 536 2438 459 2413 420 
C 2381 369 1920 369 1830 369 
L 602 369 
C 832 619 1280 1072 1824 1597 
C 2214 1967 2669 2402 2669 3035 
C 2669 3790 2067 4224 1395 4224 
C 691 4224 262 3604 262 3030 
C 262 2780 448 2748 525 2748 
C 589 2748 781 2787 781 3010 
C 781 3207 614 3264 525 3264 
C 486 3264 448 3258 422 3245 
C 544 3790 915 4058 1306 4058 
C 1862 4058 2227 3617 2227 3035 
C 2227 2479 1901 2000 1536 1584 
L 262 146 
L 262 0 
L 2515 0 
L 2669 989 
z
" transform="scale(0.015625)"/>
       </defs>
       <use xlink:href="#CMR17-32" transform="scale(0.996264)"/>
       <use xlink:href="#CMR17-30" transform="translate(45.690477 0) scale(0.996264)"/>
       <use xlink:href="#CMR17-30" transform="translate(91.380954 0) scale(0.996264)"/>
       <use xlink:href="#CMR17-30" transform="translate(137.071431 0) scale(0.996264)"/>
      </g>
     </g>
    </g>
    <g id="xtick_6">
     <g id="line2d_6">
      <g>
       <use xlink:href="#m23d1d0c38a" x="846.893091" y="510.031054" style="fill: #262626; stroke: #262626; stroke-width: 0.8"/>
      </g>
     </g>
     <g id="text_6">
      <!-- $\mathdefault{2500}$ -->
      <g style="fill: #262626" transform="translate(819.478804 537.78655) scale(0.3 -0.3)">
       <use xlink:href="#CMR17-32" transform="scale(0.996264)"/>
       <use xlink:href="#CMR17-35" transform="translate(45.690477 0) scale(0.996264)"/>
       <use xlink:href="#CMR17-30" transform="translate(91.380954 0) scale(0.996264)"/>
       <use xlink:href="#CMR17-30" transform="translate(137.071431 0) scale(0.996264)"/>
      </g>
     </g>
    </g>
    <g id="xtick_7">
     <g id="line2d_7">
      <g>
       <use xlink:href="#m23d1d0c38a" x="1001.283021" y="510.031054" style="fill: #262626; stroke: #262626; stroke-width: 0.8"/>
      </g>
     </g>
     <g id="text_7">
      <!-- $\mathdefault{3000}$ -->
      <g style="fill: #262626" transform="translate(973.868735 537.78655) scale(0.3 -0.3)">
       <defs>
        <path id="CMR17-33" d="M 1414 2157 
C 1984 2157 2234 1662 2234 1090 
C 2234 320 1824 25 1453 25 
C 1114 25 563 194 390 693 
C 422 680 454 680 486 680 
C 640 680 755 782 755 948 
C 755 1133 614 1216 486 1216 
C 378 1216 211 1165 211 926 
C 211 335 787 -128 1466 -128 
C 2176 -128 2720 430 2720 1085 
C 2720 1707 2208 2157 1600 2227 
C 2086 2328 2554 2756 2554 3329 
C 2554 3820 2048 4179 1472 4179 
C 890 4179 378 3829 378 3329 
C 378 3110 544 3072 627 3072 
C 762 3072 877 3155 877 3321 
C 877 3486 762 3569 627 3569 
C 602 3569 570 3569 544 3557 
C 730 3959 1235 4032 1459 4032 
C 1683 4032 2106 3925 2106 3320 
C 2106 3143 2080 2828 1862 2550 
C 1670 2304 1453 2304 1242 2284 
C 1210 2284 1062 2269 1037 2269 
C 992 2263 966 2257 966 2208 
C 966 2163 973 2157 1101 2157 
L 1414 2157 
z
" transform="scale(0.015625)"/>
       </defs>
       <use xlink:href="#CMR17-33" transform="scale(0.996264)"/>
       <use xlink:href="#CMR17-30" transform="translate(45.690477 0) scale(0.996264)"/>
       <use xlink:href="#CMR17-30" transform="translate(91.380954 0) scale(0.996264)"/>
       <use xlink:href="#CMR17-30" transform="translate(137.071431 0) scale(0.996264)"/>
      </g>
     </g>
    </g>
   </g>
   <g id="matplotlib.axis_2">
    <g id="ytick_1">
     <g id="line2d_8">
      <defs>
       <path id="m49ba313086" d="M 0 0 
L -3.5 0 
" style="stroke: #262626; stroke-width: 0.8"/>
      </defs>
      <g>
       <use xlink:href="#m49ba313086" x="74.943439" y="488.320552" style="fill: #262626; stroke: #262626; stroke-width: 0.8"/>
      </g>
     </g>
     <g id="text_8">
      <!-- $\mathdefault{0.0}$ -->
      <g style="fill: #262626" transform="translate(32.4 498.6983) scale(0.3 -0.3)">
       <defs>
        <path id="CMMI12-3a" d="M 1178 307 
C 1178 492 1024 619 870 619 
C 685 619 557 466 557 313 
C 557 128 710 0 864 0 
C 1050 0 1178 153 1178 307 
z
" transform="scale(0.015625)"/>
       </defs>
       <use xlink:href="#CMR17-30" transform="scale(0.996264)"/>
       <use xlink:href="#CMMI12-3a" transform="translate(45.690477 0) scale(0.996264)"/>
       <use xlink:href="#CMR17-30" transform="translate(72.787654 0) scale(0.996264)"/>
      </g>
     </g>
    </g>
    <g id="ytick_2">
     <g id="line2d_9">
      <g>
       <use xlink:href="#m49ba313086" x="74.943439" y="401.478542" style="fill: #262626; stroke: #262626; stroke-width: 0.8"/>
      </g>
     </g>
     <g id="text_9">
      <!-- $\mathdefault{0.2}$ -->
      <g style="fill: #262626" transform="translate(32.4 411.85629) scale(0.3 -0.3)">
       <use xlink:href="#CMR17-30" transform="scale(0.996264)"/>
       <use xlink:href="#CMMI12-3a" transform="translate(45.690477 0) scale(0.996264)"/>
       <use xlink:href="#CMR17-32" transform="translate(72.787654 0) scale(0.996264)"/>
      </g>
     </g>
    </g>
    <g id="ytick_3">
     <g id="line2d_10">
      <g>
       <use xlink:href="#m49ba313086" x="74.943439" y="314.636532" style="fill: #262626; stroke: #262626; stroke-width: 0.8"/>
      </g>
     </g>
     <g id="text_10">
      <!-- $\mathdefault{0.4}$ -->
      <g style="fill: #262626" transform="translate(32.4 325.01428) scale(0.3 -0.3)">
       <defs>
        <path id="CMR17-34" d="M 2150 4122 
C 2150 4256 2144 4256 2029 4256 
L 128 1254 
L 128 1088 
L 1779 1088 
L 1779 457 
C 1779 224 1766 160 1318 160 
L 1197 160 
L 1197 0 
C 1402 0 1747 0 1965 0 
C 2182 0 2528 0 2733 0 
L 2733 160 
L 2611 160 
C 2163 160 2150 224 2150 457 
L 2150 1088 
L 2803 1088 
L 2803 1254 
L 2150 1254 
L 2150 4122 
z
M 1798 3703 
L 1798 1254 
L 256 1254 
L 1798 3703 
z
" transform="scale(0.015625)"/>
       </defs>
       <use xlink:href="#CMR17-30" transform="scale(0.996264)"/>
       <use xlink:href="#CMMI12-3a" transform="translate(45.690477 0) scale(0.996264)"/>
       <use xlink:href="#CMR17-34" transform="translate(72.787654 0) scale(0.996264)"/>
      </g>
     </g>
    </g>
    <g id="ytick_4">
     <g id="line2d_11">
      <g>
       <use xlink:href="#m49ba313086" x="74.943439" y="227.794522" style="fill: #262626; stroke: #262626; stroke-width: 0.8"/>
      </g>
     </g>
     <g id="text_11">
      <!-- $\mathdefault{0.6}$ -->
      <g style="fill: #262626" transform="translate(32.4 238.17227) scale(0.3 -0.3)">
       <defs>
        <path id="CMR17-36" d="M 678 2176 
C 678 3690 1395 4032 1811 4032 
C 1946 4032 2272 4009 2400 3776 
C 2298 3776 2106 3776 2106 3553 
C 2106 3381 2246 3323 2336 3323 
C 2394 3323 2566 3348 2566 3560 
C 2566 3954 2246 4179 1805 4179 
C 1043 4179 243 3390 243 1984 
C 243 253 966 -128 1478 -128 
C 2099 -128 2688 427 2688 1283 
C 2688 2081 2170 2662 1517 2662 
C 1126 2662 838 2407 678 1960 
L 678 2176 
z
M 1478 25 
C 691 25 691 1200 691 1436 
C 691 1896 909 2560 1504 2560 
C 1613 2560 1926 2560 2138 2120 
C 2253 1870 2253 1609 2253 1289 
C 2253 944 2253 690 2118 434 
C 1978 171 1773 25 1478 25 
z
" transform="scale(0.015625)"/>
       </defs>
       <use xlink:href="#CMR17-30" transform="scale(0.996264)"/>
       <use xlink:href="#CMMI12-3a" transform="translate(45.690477 0) scale(0.996264)"/>
       <use xlink:href="#CMR17-36" transform="translate(72.787654 0) scale(0.996264)"/>
      </g>
     </g>
    </g>
    <g id="ytick_5">
     <g id="line2d_12">
      <g>
       <use xlink:href="#m49ba313086" x="74.943439" y="140.952512" style="fill: #262626; stroke: #262626; stroke-width: 0.8"/>
      </g>
     </g>
     <g id="text_12">
      <!-- $\mathdefault{0.8}$ -->
      <g style="fill: #262626" transform="translate(32.4 151.33026) scale(0.3 -0.3)">
       <defs>
        <path id="CMR17-38" d="M 1741 2264 
C 2144 2467 2554 2773 2554 3263 
C 2554 3841 1990 4179 1472 4179 
C 890 4179 378 3759 378 3180 
C 378 3021 416 2747 666 2505 
C 730 2442 998 2251 1171 2130 
C 883 1983 211 1634 211 934 
C 211 279 838 -128 1459 -128 
C 2144 -128 2720 362 2720 1010 
C 2720 1590 2330 1857 2074 2029 
L 1741 2264 
z
M 902 2822 
C 851 2854 595 3051 595 3351 
C 595 3739 998 4032 1459 4032 
C 1965 4032 2336 3676 2336 3262 
C 2336 2669 1670 2331 1638 2331 
C 1632 2331 1626 2331 1574 2370 
L 902 2822 
z
M 2080 1519 
C 2176 1449 2483 1240 2483 851 
C 2483 381 2010 25 1472 25 
C 890 25 448 438 448 940 
C 448 1443 838 1862 1280 2060 
L 2080 1519 
z
" transform="scale(0.015625)"/>
       </defs>
       <use xlink:href="#CMR17-30" transform="scale(0.996264)"/>
       <use xlink:href="#CMMI12-3a" transform="translate(45.690477 0) scale(0.996264)"/>
       <use xlink:href="#CMR17-38" transform="translate(72.787654 0) scale(0.996264)"/>
      </g>
     </g>
    </g>
    <g id="ytick_6">
     <g id="line2d_13">
      <g>
       <use xlink:href="#m49ba313086" x="74.943439" y="54.110502" style="fill: #262626; stroke: #262626; stroke-width: 0.8"/>
      </g>
     </g>
     <g id="text_13">
      <!-- $\mathdefault{1.0}$ -->
      <g style="fill: #262626" transform="translate(32.4 64.48825) scale(0.3 -0.3)">
       <use xlink:href="#CMR17-31" transform="scale(0.996264)"/>
       <use xlink:href="#CMMI12-3a" transform="translate(45.690477 0) scale(0.996264)"/>
       <use xlink:href="#CMR17-30" transform="translate(72.787654 0) scale(0.996264)"/>
      </g>
     </g>
    </g>
   </g>
   <g id="line2d_14">
    <path d="M 74.943439 54.110502 
L 81.119037 61.693358 
L 90.382432 72.971701 
L 99.645828 83.808822 
L 108.909224 94.228525 
L 118.17262 104.261475 
L 127.436016 113.90813 
L 136.699411 123.19745 
L 145.962807 132.153383 
L 155.226203 140.766464 
L 164.489599 149.0947 
L 173.752995 157.112159 
L 183.016391 164.858117 
L 192.279786 172.336473 
L 201.543182 179.547306 
L 210.806578 186.523315 
L 220.069974 193.266946 
L 229.33337 199.790131 
L 241.684564 208.165415 
L 250.94796 214.199307 
L 263.299154 221.93744 
L 275.650349 229.347152 
L 288.001543 236.449652 
L 300.352738 243.281526 
L 312.703932 249.859147 
L 325.055126 256.205793 
L 337.406321 262.309954 
L 349.757515 268.140043 
L 362.10871 273.732574 
L 374.459904 279.095688 
L 389.898897 285.535781 
L 405.33789 291.698211 
L 420.776883 297.607482 
L 436.215876 303.252172 
L 451.654869 308.664934 
L 467.093862 313.86198 
L 482.532855 318.818924 
L 497.971848 323.55987 
L 513.410841 328.094501 
L 531.937633 333.283772 
L 550.464425 338.215066 
L 568.991216 342.914566 
L 587.518008 347.404948 
L 609.132598 352.408398 
L 630.747188 357.19241 
L 649.27398 361.115696 
L 670.88857 365.419397 
L 692.50316 369.496635 
L 714.117751 373.359922 
L 735.732341 377.014202 
L 760.43473 380.943215 
L 785.137119 384.627908 
L 809.839507 388.085903 
L 834.541896 391.333468 
L 862.332084 394.75478 
L 890.122271 397.950238 
L 921.000257 401.263625 
L 951.878243 404.343099 
L 985.844028 407.489238 
L 1001.283021 408.832525 
L 1001.283021 408.832525 
" clip-path="url(#pb611e1e59e)" style="fill: none; stroke: #393b79; stroke-width: 2; stroke-linecap: round"/>
   </g>
   <g id="line2d_15">
    <path d="M 74.943439 54.110503 
L 87.294634 81.127824 
L 93.470231 93.863002 
L 99.645828 106.008 
L 105.821425 117.621391 
L 111.997023 128.702829 
L 118.17262 139.321129 
L 124.348217 149.468052 
L 130.523814 159.196845 
L 136.699411 168.50599 
L 142.875009 177.43905 
L 149.050606 186.011318 
L 155.226203 194.246023 
L 161.4018 202.148745 
L 167.577398 209.742212 
L 173.752995 217.046946 
L 179.928592 224.077126 
L 186.104189 230.834773 
L 192.279786 237.343257 
L 198.455384 243.617989 
L 204.630981 249.662933 
L 210.806578 255.488415 
L 220.069974 263.849133 
L 229.33337 271.776754 
L 238.596765 279.3004 
L 247.860161 286.453127 
L 257.123557 293.248604 
L 266.386953 299.710823 
L 275.650349 305.867349 
L 284.913745 311.738409 
L 294.17714 317.343441 
L 303.440536 322.698601 
L 312.703932 327.814397 
L 321.967328 332.705395 
L 331.230724 337.382037 
L 340.494119 341.857595 
L 349.757515 346.139804 
L 359.020911 350.235158 
L 371.372105 355.428277 
L 383.7233 360.350841 
L 396.074494 365.020872 
L 408.425689 369.457759 
L 420.776883 373.682232 
L 433.128078 377.710038 
L 445.479272 381.535362 
L 457.830466 385.166522 
L 473.269459 389.448279 
L 488.708452 393.460551 
L 507.235244 397.970413 
L 525.762036 402.227474 
L 541.201029 405.565612 
L 559.72782 409.331683 
L 578.254612 412.839996 
L 596.781404 416.103502 
L 615.308195 419.160646 
L 633.834987 422.021583 
L 655.449577 425.112545 
L 677.064167 427.963261 
L 698.678758 430.596826 
L 723.381146 433.379658 
L 748.083535 435.924932 
L 775.873723 438.553229 
L 803.66391 440.96479 
L 834.541896 443.363121 
L 853.068688 444.726763 
L 856.156486 488.320552 
L 1001.283021 488.320552 
L 1001.283021 488.320552 
" clip-path="url(#pb611e1e59e)" style="fill: none; stroke: #6b6ecf; stroke-width: 2; stroke-linecap: round"/>
   </g>
   <g id="line2d_16">
    <path d="M 74.943439 54.110503 
L 84.206835 81.760894 
L 90.382432 99.045844 
L 96.55803 115.283725 
L 102.733627 130.558225 
L 108.909224 144.94039 
L 115.084821 158.506353 
L 121.260418 171.308673 
L 127.436016 183.40155 
L 133.611613 194.849367 
L 139.78721 205.707048 
L 145.962807 215.988872 
L 152.138405 225.7414 
L 158.314002 234.998164 
L 164.489599 243.796746 
L 170.665196 252.166946 
L 176.840793 260.141011 
L 183.016391 267.742663 
L 189.191988 274.990264 
L 195.367585 281.907915 
L 201.543182 288.506036 
L 207.718779 294.807324 
L 213.894377 300.828537 
L 220.069974 306.587519 
L 226.245571 312.106298 
L 232.421168 317.404071 
L 238.596765 322.484758 
L 244.772363 327.352297 
L 254.035758 334.286371 
L 263.299154 340.819311 
L 272.56255 346.97397 
L 281.825946 352.781763 
L 291.089342 358.270821 
L 300.352738 363.458444 
L 309.616133 368.368577 
L 318.879529 373.020856 
L 328.142925 377.431448 
L 337.406321 381.622503 
L 346.669717 385.602234 
L 355.933112 389.386329 
L 368.284307 394.15224 
L 380.635501 398.614847 
L 392.986696 402.804084 
L 405.33789 406.738962 
L 417.689085 410.442711 
L 430.040279 413.930421 
L 442.391473 417.221091 
L 457.830466 421.072596 
L 473.269459 424.654192 
L 488.708452 427.981093 
L 504.147446 431.063635 
L 519.586439 433.905946 
L 535.025432 436.524092 
L 553.552223 439.424126 
L 572.079015 442.071914 
L 590.605806 444.484736 
L 593.693605 444.865873 
L 596.781404 488.320552 
L 1001.283021 488.320552 
L 1001.283021 488.320552 
" clip-path="url(#pb611e1e59e)" style="fill: none; stroke: #637939; stroke-width: 2; stroke-linecap: round"/>
   </g>
   <g id="line2d_17">
    <path d="M 74.943439 54.110503 
L 84.206835 87.601092 
L 90.382432 108.214198 
L 96.55803 127.362312 
L 102.733627 145.182693 
L 108.909224 161.789994 
L 115.084821 177.297405 
L 121.260418 191.798021 
L 127.436016 205.362956 
L 133.611613 218.089255 
L 139.78721 230.070731 
L 145.962807 241.33076 
L 152.138405 251.918289 
L 158.314002 261.886576 
L 164.489599 271.286001 
L 170.665196 280.16297 
L 176.840793 288.56667 
L 183.016391 296.545574 
L 189.191988 304.10411 
L 195.367585 311.264328 
L 201.543182 318.065887 
L 207.718779 324.522531 
L 213.894377 330.664921 
L 220.069974 336.502529 
L 226.245571 342.060133 
L 232.421168 347.353935 
L 238.596765 352.402981 
L 244.772363 357.223901 
L 250.94796 361.832526 
L 257.123557 366.243643 
L 263.299154 370.461263 
L 269.474752 374.495133 
L 278.738147 380.220799 
L 288.001543 385.593173 
L 297.264939 390.635929 
L 306.528335 395.381578 
L 315.791731 399.856035 
L 325.055126 404.086649 
L 334.318522 408.098219 
L 343.581918 411.87423 
L 352.845314 415.415054 
L 362.10871 418.752946 
L 371.372105 421.902571 
L 383.7233 425.869426 
L 396.074494 429.613402 
L 408.425689 433.043457 
L 420.776883 436.192034 
L 433.128078 439.094153 
L 445.479272 441.762666 
L 457.830466 444.216297 
L 460.918265 444.798419 
L 464.006064 488.320552 
L 1001.283021 488.320552 
L 1001.283021 488.320552 
" clip-path="url(#pb611e1e59e)" style="fill: none; stroke: #b5cf6b; stroke-width: 2; stroke-linecap: round"/>
   </g>
   <g id="line2d_18">
    <path d="M 74.943439 54.110503 
L 81.119037 79.974596 
L 84.206835 92.369255 
L 87.294634 104.254654 
L 90.382432 115.659002 
L 93.470231 126.608025 
L 96.55803 137.125894 
L 99.645828 147.232464 
L 105.821425 166.304401 
L 111.997023 183.977376 
L 118.17262 200.379303 
L 124.348217 215.629178 
L 130.523814 229.842042 
L 136.699411 243.104348 
L 142.875009 255.495465 
L 149.050606 267.091056 
L 155.226203 277.955926 
L 161.4018 288.153535 
L 167.577398 297.738833 
L 173.752995 306.75716 
L 179.928592 315.25172 
L 186.104189 323.25796 
L 192.279786 330.81808 
L 198.455384 337.960972 
L 204.630981 344.712537 
L 210.806578 351.107233 
L 216.982175 357.171735 
L 223.157772 362.926376 
L 229.33337 368.391813 
L 235.508967 373.585539 
L 241.684564 378.522577 
L 247.860161 383.219335 
L 254.035758 387.686321 
L 260.211356 391.934787 
L 266.386953 395.986589 
L 272.56255 399.850169 
L 281.825946 405.320171 
L 291.089342 410.437071 
L 300.352738 415.22169 
L 309.616133 419.676957 
L 318.879529 423.842123 
L 328.142925 427.760684 
L 337.406321 431.417273 
L 346.669717 434.81829 
L 355.933112 437.959791 
L 365.196508 440.845712 
L 374.459904 443.51558 
L 377.547703 444.358986 
L 380.635501 488.320552 
L 1001.283021 488.320552 
L 1001.283021 488.320552 
" clip-path="url(#pb611e1e59e)" style="fill: none; stroke: #8c6d31; stroke-width: 2; stroke-linecap: round"/>
   </g>
   <g id="line2d_19">
    <path d="M 74.943439 54.110503 
L 81.119037 82.678741 
L 84.206835 96.30291 
L 87.294634 109.333578 
L 90.382432 121.805358 
L 93.470231 133.750361 
L 96.55803 145.198091 
L 99.645828 156.172507 
L 102.733627 166.701975 
L 105.821425 176.814534 
L 108.909224 186.530004 
L 111.997023 195.863815 
L 115.084821 204.838322 
L 121.260418 221.780584 
L 127.436016 237.494385 
L 133.611613 252.095821 
L 139.78721 265.679314 
L 145.962807 278.335212 
L 152.138405 290.149271 
L 158.314002 301.196347 
L 164.489599 311.544079 
L 170.665196 321.24683 
L 176.840793 330.3494 
L 183.016391 338.898552 
L 189.191988 346.940086 
L 195.367585 354.509582 
L 201.543182 361.654658 
L 207.718779 368.409474 
L 213.894377 374.776123 
L 220.069974 380.772626 
L 226.245571 386.434646 
L 232.421168 391.806566 
L 238.596765 396.906472 
L 244.772363 401.734571 
L 250.94796 406.309939 
L 257.123557 410.64142 
L 263.299154 414.73633 
L 269.474752 418.631903 
L 275.650349 422.345997 
L 281.825946 425.864463 
L 288.001543 429.193594 
L 294.17714 432.342682 
L 300.352738 435.31216 
L 306.528335 438.095652 
L 312.703932 440.685289 
L 321.967328 444.245552 
L 325.055126 488.320552 
L 1001.283021 488.320552 
L 1001.283021 488.320552 
" clip-path="url(#pb611e1e59e)" style="fill: none; stroke: #e7cb94; stroke-width: 2; stroke-linecap: round"/>
   </g>
   <g id="line2d_20">
    <path d="M 74.943439 54.110503 
L 81.119037 84.927072 
L 84.206835 99.582109 
L 87.294634 113.583314 
L 90.382432 126.966417 
L 93.470231 139.770021 
L 96.55803 152.024852 
L 99.645828 163.762059 
L 102.733627 175.01483 
L 105.821425 185.809004 
L 108.909224 196.164014 
L 111.997023 206.105723 
L 115.084821 215.655005 
L 118.17262 224.835858 
L 124.348217 242.158093 
L 130.523814 258.208155 
L 136.699411 273.100843 
L 142.875009 286.944588 
L 149.050606 299.83517 
L 155.226203 311.858409 
L 161.4018 323.088177 
L 167.577398 333.58985 
L 173.752995 343.419336 
L 179.928592 352.625095 
L 186.104189 361.262076 
L 192.279786 369.365995 
L 198.455384 376.972322 
L 204.630981 384.109064 
L 210.806578 390.813186 
L 216.982175 397.134725 
L 223.157772 403.100876 
L 229.33337 408.703482 
L 235.508967 413.959747 
L 241.684564 418.909818 
L 247.860161 423.570191 
L 254.035758 427.950618 
L 260.211356 432.061165 
L 266.386953 435.892874 
L 272.56255 439.419839 
L 278.738147 442.640248 
L 281.825946 444.144162 
L 284.913745 488.320552 
L 1001.283021 488.320552 
L 1001.283021 488.320552 
" clip-path="url(#pb611e1e59e)" style="fill: none; stroke: #ad494a; stroke-width: 2; stroke-linecap: round"/>
   </g>
   <g id="line2d_21">
    <path d="M 74.943439 54.110504 
L 81.119037 86.812796 
L 84.206835 102.350824 
L 87.294634 117.192037 
L 90.382432 131.37831 
L 93.470231 144.949174 
L 96.55803 157.939236 
L 99.645828 170.379026 
L 102.733627 182.302934 
L 105.821425 193.742591 
L 108.909224 204.711175 
L 111.997023 215.242993 
L 115.084821 225.379654 
L 118.17262 235.112308 
L 124.348217 253.460049 
L 127.436016 262.122608 
L 133.611613 278.484042 
L 139.78721 293.68574 
L 145.962807 307.81799 
L 152.138405 320.957595 
L 158.314002 333.233293 
L 164.489599 344.668947 
L 170.665196 355.339361 
L 176.840793 365.331841 
L 183.016391 374.645428 
L 189.191988 383.344257 
L 195.367585 391.498725 
L 201.543182 399.104582 
L 207.718779 406.200588 
L 213.894377 412.833392 
L 220.069974 419.02473 
L 226.245571 424.792022 
L 232.421168 430.152263 
L 238.596765 435.098543 
L 244.772363 439.585922 
L 250.94796 443.60948 
L 254.035758 488.320552 
L 1001.283021 488.320552 
L 1001.283021 488.320552 
" clip-path="url(#pb611e1e59e)" style="fill: none; stroke: #e7969c; stroke-width: 2; stroke-linecap: round"/>
   </g>
   <g id="line2d_22">
    <path d="M 74.943439 54.110504 
L 81.119037 88.406782 
L 84.206835 104.711525 
L 87.294634 120.30064 
L 90.382432 135.216229 
L 93.470231 149.497068 
L 96.55803 163.180063 
L 99.645828 176.296824 
L 102.733627 188.880306 
L 105.821425 200.957143 
L 108.909224 212.554356 
L 111.997023 223.697895 
L 115.084821 234.409737 
L 118.17262 244.712764 
L 124.348217 264.166959 
L 130.523814 282.205529 
L 136.699411 298.957966 
L 142.875009 314.51825 
L 149.050606 328.979333 
L 155.226203 342.464577 
L 161.4018 355.012244 
L 167.577398 366.658779 
L 173.752995 377.524612 
L 179.928592 387.625326 
L 186.104189 396.99238 
L 192.279786 405.683778 
L 198.455384 413.735178 
L 204.630981 421.176876 
L 210.806578 428.028333 
L 216.982175 434.280279 
L 220.069974 437.154949 
L 223.157772 439.849663 
L 226.245571 442.386729 
L 229.33337 444.759056 
L 232.421168 488.320552 
L 1001.283021 488.320552 
L 1001.283021 488.320552 
" clip-path="url(#pb611e1e59e)" style="fill: none; stroke: #a55194; stroke-width: 2; stroke-linecap: round"/>
   </g>
   <g id="line2d_23">
    <path d="M 74.943439 54.110504 
L 81.119037 89.769608 
L 84.206835 106.756415 
L 87.294634 123.027167 
L 90.382432 138.622716 
L 93.470231 153.581671 
L 96.55803 167.938415 
L 99.645828 181.72473 
L 102.733627 194.972912 
L 105.821425 207.707638 
L 108.909224 219.957617 
L 111.997023 231.744253 
L 118.17262 254.018516 
L 124.348217 274.688973 
L 130.523814 293.889698 
L 136.699411 311.738099 
L 142.875009 328.330813 
L 149.050606 343.753035 
L 155.226203 358.07761 
L 161.4018 371.3663 
L 167.577398 383.670988 
L 173.752995 395.037024 
L 179.928592 405.509577 
L 183.016391 410.41814 
L 186.104189 415.111923 
L 189.191988 419.59285 
L 192.279786 423.869159 
L 195.367585 427.94818 
L 198.455384 431.83613 
L 201.543182 435.50263 
L 204.630981 438.901654 
L 207.718779 442.045706 
L 210.806578 488.320552 
L 1001.283021 488.320552 
L 1001.283021 488.320552 
" clip-path="url(#pb611e1e59e)" style="fill: none; stroke: #de9ed6; stroke-width: 2; stroke-linecap: round"/>
   </g>
   <g id="line2d_24">
    <path d="M 74.943439 444.899547 
L 1047.6 444.899547 
" clip-path="url(#pb611e1e59e)" style="fill: none; stroke-dasharray: 7.4,3.2; stroke-dashoffset: 0; stroke: #ffa500; stroke-width: 2"/>
   </g>
   <g id="patch_3">
    <path d="M 74.943439 510.031054 
L 74.943439 32.4 
" style="fill: none; stroke: #262626; stroke-width: 0.8; stroke-linejoin: miter; stroke-linecap: square"/>
   </g>
   <g id="patch_4">
    <path d="M 74.943439 510.031054 
L 1047.6 510.031054 
" style="fill: none; stroke: #262626; stroke-width: 0.8; stroke-linejoin: miter; stroke-linecap: square"/>
   </g>
  </g>
 </g>
 <defs>
  <clipPath id="pb611e1e59e">
   <rect x="74.943439" y="32.4" width="972.656561" height="477.631054"/>
  </clipPath>
 </defs>
</svg>
