<?xml version="1.0" encoding="utf-8" standalone="no"?>
<!DOCTYPE svg PUBLIC "-//W3C//DTD SVG 1.1//EN"
  "http://www.w3.org/Graphics/SVG/1.1/DTD/svg11.dtd">
<svg xmlns:xlink="http://www.w3.org/1999/xlink" width="1080pt" height="576pt" viewBox="0 0 1080 576" xmlns="http://www.w3.org/2000/svg" version="1.1">
 <metadata>
  <rdf:RDF xmlns:dc="http://purl.org/dc/elements/1.1/" xmlns:cc="http://creativecommons.org/ns#" xmlns:rdf="http://www.w3.org/1999/02/22-rdf-syntax-ns#">
   <cc:Work>
    <dc:type rdf:resource="http://purl.org/dc/dcmitype/StillImage"/>
    <dc:date>2024-07-26T10:46:37.268865</dc:date>
    <dc:format>image/svg+xml</dc:format>
    <dc:creator>
     <cc:Agent>
      <dc:title>Matplotlib v3.9.0, https://matplotlib.org/</dc:title>
     </cc:Agent>
    </dc:creator>
   </cc:Work>
  </rdf:RDF>
 </metadata>
 <defs>
  <style type="text/css">*{stroke-linejoin: round; stroke-linecap: butt}</style>
 </defs>
 <g id="figure_1">
  <g id="patch_1">
   <path d="M 0 576 
L 1080 576 
L 1080 0 
L 0 0 
z
" style="fill: #ffffff"/>
  </g>
  <g id="axes_1">
   <g id="patch_2">
    <path d="M 88.532127 498.237256 
L 1041.12 498.237256 
L 1041.12 38.88 
L 88.532127 38.88 
z
" style="fill: #ffffff"/>
   </g>
   <g id="matplotlib.axis_1">
    <g id="xtick_1">
     <g id="line2d_1">
      <defs>
       <path id="m2176c550e4" d="M 0 0 
L 0 3.5 
" style="stroke: #262626; stroke-width: 0.8"/>
      </defs>
      <g>
       <use xlink:href="#m2176c550e4" x="88.532127" y="498.237256" style="fill: #262626; stroke: #262626; stroke-width: 0.8"/>
      </g>
     </g>
     <g id="text_1">
      <!-- $\mathdefault{0}$ -->
      <g style="fill: #262626" transform="translate(80.307841 530.143856) scale(0.36 -0.36)">
       <defs>
        <path id="CMR17-30" d="M 2688 2025 
C 2688 2416 2682 3080 2413 3591 
C 2176 4039 1798 4198 1466 4198 
C 1158 4198 768 4058 525 3597 
C 269 3118 243 2524 243 2025 
C 243 1661 250 1106 448 619 
C 723 -39 1216 -128 1466 -128 
C 1760 -128 2208 -7 2470 600 
C 2662 1042 2688 1559 2688 2025 
z
M 1466 -26 
C 1056 -26 813 325 723 812 
C 653 1188 653 1738 653 2096 
C 653 2588 653 2997 736 3387 
C 858 3929 1216 4096 1466 4096 
C 1728 4096 2067 3923 2189 3400 
C 2272 3036 2278 2607 2278 2096 
C 2278 1680 2278 1169 2202 792 
C 2067 95 1690 -26 1466 -26 
z
" transform="scale(0.015625)"/>
       </defs>
       <use xlink:href="#CMR17-30" transform="scale(0.996264)"/>
      </g>
     </g>
    </g>
    <g id="xtick_2">
     <g id="line2d_2">
      <g>
       <use xlink:href="#m2176c550e4" x="283.63461" y="498.237256" style="fill: #262626; stroke: #262626; stroke-width: 0.8"/>
      </g>
     </g>
     <g id="text_2">
      <!-- $\mathdefault{200}$ -->
      <g style="fill: #262626" transform="translate(258.961753 530.143856) scale(0.36 -0.36)">
       <defs>
        <path id="CMR17-32" d="M 2669 989 
L 2554 989 
C 2490 536 2438 459 2413 420 
C 2381 369 1920 369 1830 369 
L 602 369 
C 832 619 1280 1072 1824 1597 
C 2214 1967 2669 2402 2669 3035 
C 2669 3790 2067 4224 1395 4224 
C 691 4224 262 3604 262 3030 
C 262 2780 448 2748 525 2748 
C 589 2748 781 2787 781 3010 
C 781 3207 614 3264 525 3264 
C 486 3264 448 3258 422 3245 
C 544 3790 915 4058 1306 4058 
C 1862 4058 2227 3617 2227 3035 
C 2227 2479 1901 2000 1536 1584 
L 262 146 
L 262 0 
L 2515 0 
L 2669 989 
z
" transform="scale(0.015625)"/>
       </defs>
       <use xlink:href="#CMR17-32" transform="scale(0.996264)"/>
       <use xlink:href="#CMR17-30" transform="translate(45.690477 0) scale(0.996264)"/>
       <use xlink:href="#CMR17-30" transform="translate(91.380954 0) scale(0.996264)"/>
      </g>
     </g>
    </g>
    <g id="xtick_3">
     <g id="line2d_3">
      <g>
       <use xlink:href="#m2176c550e4" x="478.737093" y="498.237256" style="fill: #262626; stroke: #262626; stroke-width: 0.8"/>
      </g>
     </g>
     <g id="text_3">
      <!-- $\mathdefault{400}$ -->
      <g style="fill: #262626" transform="translate(454.064235 530.143856) scale(0.36 -0.36)">
       <defs>
        <path id="CMR17-34" d="M 2150 4122 
C 2150 4256 2144 4256 2029 4256 
L 128 1254 
L 128 1088 
L 1779 1088 
L 1779 457 
C 1779 224 1766 160 1318 160 
L 1197 160 
L 1197 0 
C 1402 0 1747 0 1965 0 
C 2182 0 2528 0 2733 0 
L 2733 160 
L 2611 160 
C 2163 160 2150 224 2150 457 
L 2150 1088 
L 2803 1088 
L 2803 1254 
L 2150 1254 
L 2150 4122 
z
M 1798 3703 
L 1798 1254 
L 256 1254 
L 1798 3703 
z
" transform="scale(0.015625)"/>
       </defs>
       <use xlink:href="#CMR17-34" transform="scale(0.996264)"/>
       <use xlink:href="#CMR17-30" transform="translate(45.690477 0) scale(0.996264)"/>
       <use xlink:href="#CMR17-30" transform="translate(91.380954 0) scale(0.996264)"/>
      </g>
     </g>
    </g>
    <g id="xtick_4">
     <g id="line2d_4">
      <g>
       <use xlink:href="#m2176c550e4" x="673.839576" y="498.237256" style="fill: #262626; stroke: #262626; stroke-width: 0.8"/>
      </g>
     </g>
     <g id="text_4">
      <!-- $\mathdefault{600}$ -->
      <g style="fill: #262626" transform="translate(649.166718 530.143856) scale(0.36 -0.36)">
       <defs>
        <path id="CMR17-36" d="M 678 2176 
C 678 3690 1395 4032 1811 4032 
C 1946 4032 2272 4009 2400 3776 
C 2298 3776 2106 3776 2106 3553 
C 2106 3381 2246 3323 2336 3323 
C 2394 3323 2566 3348 2566 3560 
C 2566 3954 2246 4179 1805 4179 
C 1043 4179 243 3390 243 1984 
C 243 253 966 -128 1478 -128 
C 2099 -128 2688 427 2688 1283 
C 2688 2081 2170 2662 1517 2662 
C 1126 2662 838 2407 678 1960 
L 678 2176 
z
M 1478 25 
C 691 25 691 1200 691 1436 
C 691 1896 909 2560 1504 2560 
C 1613 2560 1926 2560 2138 2120 
C 2253 1870 2253 1609 2253 1289 
C 2253 944 2253 690 2118 434 
C 1978 171 1773 25 1478 25 
z
" transform="scale(0.015625)"/>
       </defs>
       <use xlink:href="#CMR17-36" transform="scale(0.996264)"/>
       <use xlink:href="#CMR17-30" transform="translate(45.690477 0) scale(0.996264)"/>
       <use xlink:href="#CMR17-30" transform="translate(91.380954 0) scale(0.996264)"/>
      </g>
     </g>
    </g>
    <g id="xtick_5">
     <g id="line2d_5">
      <g>
       <use xlink:href="#m2176c550e4" x="868.942059" y="498.237256" style="fill: #262626; stroke: #262626; stroke-width: 0.8"/>
      </g>
     </g>
     <g id="text_5">
      <!-- $\mathdefault{800}$ -->
      <g style="fill: #262626" transform="translate(844.269201 530.143856) scale(0.36 -0.36)">
       <defs>
        <path id="CMR17-38" d="M 1741 2264 
C 2144 2467 2554 2773 2554 3263 
C 2554 3841 1990 4179 1472 4179 
C 890 4179 378 3759 378 3180 
C 378 3021 416 2747 666 2505 
C 730 2442 998 2251 1171 2130 
C 883 1983 211 1634 211 934 
C 211 279 838 -128 1459 -128 
C 2144 -128 2720 362 2720 1010 
C 2720 1590 2330 1857 2074 2029 
L 1741 2264 
z
M 902 2822 
C 851 2854 595 3051 595 3351 
C 595 3739 998 4032 1459 4032 
C 1965 4032 2336 3676 2336 3262 
C 2336 2669 1670 2331 1638 2331 
C 1632 2331 1626 2331 1574 2370 
L 902 2822 
z
M 2080 1519 
C 2176 1449 2483 1240 2483 851 
C 2483 381 2010 25 1472 25 
C 890 25 448 438 448 940 
C 448 1443 838 1862 1280 2060 
L 2080 1519 
z
" transform="scale(0.015625)"/>
       </defs>
       <use xlink:href="#CMR17-38" transform="scale(0.996264)"/>
       <use xlink:href="#CMR17-30" transform="translate(45.690477 0) scale(0.996264)"/>
       <use xlink:href="#CMR17-30" transform="translate(91.380954 0) scale(0.996264)"/>
      </g>
     </g>
    </g>
   </g>
   <g id="matplotlib.axis_2">
    <g id="ytick_1">
     <g id="line2d_6">
      <defs>
       <path id="m59df238f6d" d="M 0 0 
L -3.5 0 
" style="stroke: #262626; stroke-width: 0.8"/>
      </defs>
      <g>
       <use xlink:href="#m59df238f6d" x="88.532127" y="431.012091" style="fill: #262626; stroke: #262626; stroke-width: 0.8"/>
      </g>
     </g>
     <g id="text_6">
      <!-- $\mathdefault{0.2}$ -->
      <g style="fill: #262626" transform="translate(38.88 443.465391) scale(0.36 -0.36)">
       <defs>
        <path id="CMMI12-3a" d="M 1178 307 
C 1178 492 1024 619 870 619 
C 685 619 557 466 557 313 
C 557 128 710 0 864 0 
C 1050 0 1178 153 1178 307 
z
" transform="scale(0.015625)"/>
       </defs>
       <use xlink:href="#CMR17-30" transform="scale(0.996264)"/>
       <use xlink:href="#CMMI12-3a" transform="translate(45.690477 0) scale(0.996264)"/>
       <use xlink:href="#CMR17-32" transform="translate(72.787654 0) scale(0.996264)"/>
      </g>
     </g>
    </g>
    <g id="ytick_2">
     <g id="line2d_7">
      <g>
       <use xlink:href="#m59df238f6d" x="88.532127" y="338.199037" style="fill: #262626; stroke: #262626; stroke-width: 0.8"/>
      </g>
     </g>
     <g id="text_7">
      <!-- $\mathdefault{0.4}$ -->
      <g style="fill: #262626" transform="translate(38.88 350.652337) scale(0.36 -0.36)">
       <use xlink:href="#CMR17-30" transform="scale(0.996264)"/>
       <use xlink:href="#CMMI12-3a" transform="translate(45.690477 0) scale(0.996264)"/>
       <use xlink:href="#CMR17-34" transform="translate(72.787654 0) scale(0.996264)"/>
      </g>
     </g>
    </g>
    <g id="ytick_3">
     <g id="line2d_8">
      <g>
       <use xlink:href="#m59df238f6d" x="88.532127" y="245.385983" style="fill: #262626; stroke: #262626; stroke-width: 0.8"/>
      </g>
     </g>
     <g id="text_8">
      <!-- $\mathdefault{0.6}$ -->
      <g style="fill: #262626" transform="translate(38.88 257.839283) scale(0.36 -0.36)">
       <use xlink:href="#CMR17-30" transform="scale(0.996264)"/>
       <use xlink:href="#CMMI12-3a" transform="translate(45.690477 0) scale(0.996264)"/>
       <use xlink:href="#CMR17-36" transform="translate(72.787654 0) scale(0.996264)"/>
      </g>
     </g>
    </g>
    <g id="ytick_4">
     <g id="line2d_9">
      <g>
       <use xlink:href="#m59df238f6d" x="88.532127" y="152.572929" style="fill: #262626; stroke: #262626; stroke-width: 0.8"/>
      </g>
     </g>
     <g id="text_9">
      <!-- $\mathdefault{0.8}$ -->
      <g style="fill: #262626" transform="translate(38.88 165.026229) scale(0.36 -0.36)">
       <use xlink:href="#CMR17-30" transform="scale(0.996264)"/>
       <use xlink:href="#CMMI12-3a" transform="translate(45.690477 0) scale(0.996264)"/>
       <use xlink:href="#CMR17-38" transform="translate(72.787654 0) scale(0.996264)"/>
      </g>
     </g>
    </g>
    <g id="ytick_5">
     <g id="line2d_10">
      <g>
       <use xlink:href="#m59df238f6d" x="88.532127" y="59.759875" style="fill: #262626; stroke: #262626; stroke-width: 0.8"/>
      </g>
     </g>
     <g id="text_10">
      <!-- $\mathdefault{1.0}$ -->
      <g style="fill: #262626" transform="translate(38.88 72.213175) scale(0.36 -0.36)">
       <defs>
        <path id="CMR17-31" d="M 1702 4058 
C 1702 4192 1696 4192 1606 4192 
C 1357 3916 979 3827 621 3827 
C 602 3827 570 3827 563 3808 
C 557 3795 557 3782 557 3648 
C 755 3648 1088 3686 1344 3839 
L 1344 461 
C 1344 236 1331 160 781 160 
L 589 160 
L 589 0 
C 896 0 1216 0 1523 0 
C 1830 0 2150 0 2458 0 
L 2458 160 
L 2266 160 
C 1715 160 1702 230 1702 458 
L 1702 4058 
z
" transform="scale(0.015625)"/>
       </defs>
       <use xlink:href="#CMR17-31" transform="scale(0.996264)"/>
       <use xlink:href="#CMMI12-3a" transform="translate(45.690477 0) scale(0.996264)"/>
       <use xlink:href="#CMR17-30" transform="translate(72.787654 0) scale(0.996264)"/>
      </g>
     </g>
    </g>
   </g>
   <g id="line2d_11">
    <path d="M 88.532127 59.759876 
L 98.287251 79.186498 
L 108.042376 98.315951 
L 117.7975 116.243422 
L 127.552624 133.08239 
L 137.307748 148.874318 
L 147.062872 163.753594 
L 156.817996 177.748062 
L 166.57312 190.952619 
L 176.328245 203.422165 
L 186.083369 215.192386 
L 195.838493 226.332962 
L 205.593617 236.891167 
L 215.348741 246.89832 
L 225.103865 256.396927 
L 234.858989 265.412315 
L 244.614114 273.979864 
L 254.369238 282.127952 
L 264.124362 289.889077 
L 273.879486 297.294568 
L 283.63461 304.347312 
L 293.389734 311.078992 
L 303.144858 317.516314 
L 312.899983 323.673079 
L 322.655107 329.539186 
L 332.410231 335.148309 
L 342.165355 340.517637 
L 351.920479 345.66322 
L 361.675603 350.601805 
L 371.430727 355.350629 
L 381.185852 359.923661 
L 390.940976 364.296537 
L 400.6961 368.497218 
L 410.451224 372.535549 
L 420.206348 376.421372 
L 429.961472 380.157371 
L 439.716596 383.753648 
L 449.471721 387.219989 
L 459.226845 390.565054 
L 468.981969 393.789069 
L 478.737093 396.893922 
L 488.492217 399.89113 
L 498.247341 402.787228 
L 508.002465 405.58609 
L 517.75759 408.285239 
L 527.512714 410.89471 
L 537.267838 413.419562 
L 547.022962 415.864858 
L 556.778086 418.226034 
L 566.53321 420.511677 
L 576.288335 422.725722 
L 586.043459 424.872078 
L 595.798583 426.951312 
L 605.553707 428.965982 
L 615.308831 430.919494 
L 625.063955 432.814229 
L 634.819079 434.652542 
L 644.574204 436.436717 
L 654.329328 438.168588 
L 664.084452 439.849947 
L 673.839576 441.482715 
L 683.5947 443.070346 
L 693.349824 444.61384 
L 703.104948 446.114975 
L 712.860073 447.575446 
L 722.615197 448.995365 
L 732.370321 450.376276 
L 742.125445 451.719267 
L 751.880569 453.025172 
L 761.635693 454.297012 
L 771.390817 455.537025 
L 781.145942 456.745813 
L 790.901066 457.924898 
L 800.65619 459.074264 
L 810.411314 460.191451 
L 820.166438 461.278408 
L 829.921562 462.335073 
L 839.676686 463.361885 
L 849.431811 464.369878 
L 859.186935 465.355174 
L 868.942059 466.31927 
L 878.697183 467.263665 
L 888.452307 468.182931 
L 898.207431 469.078755 
L 907.962555 469.952758 
L 917.71768 470.80535 
L 927.472804 471.639584 
L 937.227928 472.458173 
L 946.983052 473.260562 
L 956.738176 474.047848 
L 966.4933 474.819077 
L 976.248424 475.567824 
L 986.003549 476.298094 
L 995.758673 477.009778 
" clip-path="url(#pe91ea92eae)" style="fill: none; stroke: #1f77b4; stroke-width: 5; stroke-linecap: round"/>
   </g>
   <g id="line2d_12">
    <path d="M 88.532127 59.759877 
L 98.287251 94.355447 
L 108.042376 126.69088 
L 117.7975 155.549074 
L 127.552624 181.415984 
L 137.307748 204.684009 
L 147.062872 225.719063 
L 156.817996 244.762152 
L 166.57312 262.073471 
L 176.328245 277.844911 
L 186.083369 292.275174 
L 195.838493 305.493249 
L 205.593617 317.646143 
L 215.348741 328.835492 
L 225.103865 339.159749 
L 234.858989 348.711864 
L 244.614114 357.558033 
L 254.369238 365.779642 
L 264.124362 373.424024 
L 273.879486 380.547159 
L 283.63461 387.197515 
L 293.389734 393.413559 
L 303.144858 399.229584 
L 312.899983 404.68663 
L 322.655107 409.807344 
L 332.410231 414.615059 
L 342.165355 419.144643 
L 351.920479 423.410676 
L 361.675603 427.430336 
L 371.430727 431.232134 
L 381.185852 434.827588 
L 390.940976 438.230682 
L 400.6961 441.456603 
L 410.451224 444.515331 
L 420.206348 447.415945 
L 429.961472 450.173707 
L 439.716596 452.795161 
L 449.471721 455.28771 
L 459.226845 457.660481 
L 468.981969 459.919235 
L 478.737093 462.06923 
L 488.492217 464.124361 
L 498.247341 466.091458 
L 508.002465 467.977853 
L 517.75759 469.77924 
L 527.512714 471.501768 
L 537.267838 473.151732 
L 547.022962 474.729052 
L 556.778086 476.237184 
" clip-path="url(#pe91ea92eae)" style="fill: none; stroke: #ff7f0e; stroke-width: 5; stroke-linecap: round"/>
   </g>
   <g id="line2d_13">
    <path d="M 88.532127 59.75988 
L 98.287251 106.39903 
L 108.042376 148.268542 
L 117.7975 184.314597 
L 127.552624 215.574645 
L 137.307748 242.858907 
L 147.062872 266.871059 
L 156.817996 288.012352 
L 166.57312 306.75277 
L 176.328245 323.526336 
L 186.083369 338.523322 
L 195.838493 352.000426 
L 205.593617 364.147885 
L 215.348741 375.126946 
L 225.103865 385.094804 
L 234.858989 394.189596 
L 244.614114 402.49455 
L 254.369238 410.087368 
L 264.124362 417.056789 
L 273.879486 423.46748 
L 283.63461 429.382491 
L 293.389734 434.874579 
L 303.144858 439.984355 
L 312.899983 444.683308 
L 322.655107 449.021891 
L 332.410231 453.074163 
L 342.165355 456.852604 
L 351.920479 460.392915 
L 361.675603 463.703603 
L 371.430727 466.798469 
L 381.185852 469.676203 
L 390.940976 472.385646 
L 400.6961 474.953265 
L 410.451224 477.357381 
" clip-path="url(#pe91ea92eae)" style="fill: none; stroke: #2ca02c; stroke-width: 5; stroke-linecap: round"/>
   </g>
   <g id="line2d_14">
    <path d="M 88.532127 59.759875 
L 98.287251 116.106244 
L 108.042376 165.18774 
L 117.7975 206.376273 
L 127.552624 241.268818 
L 137.307748 271.107923 
L 147.062872 296.811812 
L 156.817996 319.097861 
L 166.57312 338.56643 
L 176.328245 355.656685 
L 186.083369 370.75847 
L 195.838493 384.159079 
L 205.593617 396.079175 
L 215.348741 406.751473 
L 225.103865 416.356058 
L 234.858989 425.004496 
L 244.614114 432.818808 
L 254.369238 439.905908 
L 264.124362 446.35192 
L 273.879486 452.224569 
L 283.63461 457.587366 
L 293.389734 462.497113 
L 303.144858 467.002448 
L 312.899983 471.14217 
L 322.655107 474.950804 
" clip-path="url(#pe91ea92eae)" style="fill: none; stroke: #d62728; stroke-width: 5; stroke-linecap: round"/>
   </g>
   <g id="line2d_15">
    <path d="M 88.532127 59.759875 
L 98.287251 124.073168 
L 108.042376 178.889901 
L 117.7975 224.079006 
L 127.552624 261.770378 
L 137.307748 293.545249 
L 147.062872 320.556723 
L 156.817996 343.715587 
L 166.57312 363.735298 
L 176.328245 381.122052 
L 186.083369 396.333144 
L 195.838493 409.704148 
L 205.593617 421.495869 
L 215.348741 431.953911 
L 225.103865 441.26128 
L 234.858989 449.577407 
L 244.614114 456.993342 
L 254.369238 463.642191 
L 264.124362 469.648113 
L 273.879486 475.037485 
" clip-path="url(#pe91ea92eae)" style="fill: none; stroke: #9467bd; stroke-width: 5; stroke-linecap: round"/>
   </g>
   <g id="line2d_16">
    <path d="M 88.532127 59.759875 
L 98.287251 130.716091 
L 108.042376 190.32841 
L 117.7975 238.931232 
L 127.552624 279.071607 
L 137.307748 312.611882 
L 147.062872 340.88323 
L 156.817996 364.95986 
L 166.57312 385.575104 
L 176.328245 403.359961 
L 186.083369 418.77884 
L 195.838493 432.187788 
L 205.593617 443.91224 
L 215.348741 454.179401 
L 225.103865 463.169284 
L 234.858989 471.068005 
" clip-path="url(#pe91ea92eae)" style="fill: none; stroke: #8c564b; stroke-width: 5; stroke-linecap: round"/>
   </g>
   <g id="line2d_17">
    <path d="M 88.532127 59.759875 
L 98.287251 136.351961 
L 108.042376 200.182438 
L 117.7975 251.937082 
L 127.552624 294.45971 
L 137.307748 329.82676 
L 147.062872 359.504118 
L 156.817996 384.603998 
L 166.57312 405.960264 
L 176.328245 424.207342 
L 186.083369 439.826769 
L 195.838493 453.235569 
L 205.593617 464.716685 
L 215.348741 474.566075 
" clip-path="url(#pe91ea92eae)" style="fill: none; stroke: #e377c2; stroke-width: 5; stroke-linecap: round"/>
   </g>
   <g id="line2d_18">
    <path d="M 88.532127 59.759875 
L 98.287251 141.224124 
L 108.042376 208.936689 
L 117.7975 263.797445 
L 127.552624 308.861523 
L 137.307748 346.234092 
L 147.062872 377.472491 
L 156.817996 403.764337 
L 166.57312 425.893827 
L 176.328245 444.482729 
L 186.083369 460.121948 
L 195.838493 473.105792 
" clip-path="url(#pe91ea92eae)" style="fill: none; stroke: #7f7f7f; stroke-width: 5; stroke-linecap: round"/>
   </g>
   <g id="line2d_19">
    <path d="M 88.532127 59.759875 
L 98.287251 145.507753 
L 108.042376 216.940097 
L 117.7975 275.019013 
L 127.552624 322.817972 
L 137.307748 362.475942 
L 147.062872 395.512214 
L 156.817996 422.986868 
L 166.57312 445.691928 
L 176.328245 464.25616 
" clip-path="url(#pe91ea92eae)" style="fill: none; stroke: #bcbd22; stroke-width: 5; stroke-linecap: round"/>
   </g>
   <g id="line2d_20">
    <path d="M 88.532127 59.759875 
L 98.287251 149.351889 
L 108.042376 224.482823 
L 117.7975 286.006049 
L 127.552624 336.89306 
L 137.307748 379.100251 
L 147.062872 413.977399 
L 156.817996 442.428084 
L 166.57312 465.132982 
" clip-path="url(#pe91ea92eae)" style="fill: none; stroke: #17becf; stroke-width: 5; stroke-linecap: round"/>
   </g>
   <g id="line2d_21">
    <path d="M 88.532127 477.418618 
L 1041.12 477.418618 
" clip-path="url(#pe91ea92eae)" style="fill: none; stroke-dasharray: 18.5,8; stroke-dashoffset: 0; stroke: #ffa500; stroke-width: 5"/>
   </g>
   <g id="patch_3">
    <path d="M 88.532127 498.237256 
L 88.532127 38.88 
" style="fill: none; stroke: #262626; stroke-width: 0.8; stroke-linejoin: miter; stroke-linecap: square"/>
   </g>
   <g id="patch_4">
    <path d="M 88.532127 498.237256 
L 1041.12 498.237256 
" style="fill: none; stroke: #262626; stroke-width: 0.8; stroke-linejoin: miter; stroke-linecap: square"/>
   </g>
  </g>
 </g>
 <defs>
  <clipPath id="pe91ea92eae">
   <rect x="88.532127" y="38.88" width="952.587873" height="459.357256"/>
  </clipPath>
 </defs>
</svg>
