<?xml version="1.0" encoding="utf-8" standalone="no"?>
<!DOCTYPE svg PUBLIC "-//W3C//DTD SVG 1.1//EN"
  "http://www.w3.org/Graphics/SVG/1.1/DTD/svg11.dtd">
<svg xmlns:xlink="http://www.w3.org/1999/xlink" width="1080pt" height="756pt" viewBox="0 0 1080 756" xmlns="http://www.w3.org/2000/svg" version="1.1">
 <metadata>
  <rdf:RDF xmlns:dc="http://purl.org/dc/elements/1.1/" xmlns:cc="http://creativecommons.org/ns#" xmlns:rdf="http://www.w3.org/1999/02/22-rdf-syntax-ns#">
   <cc:Work>
    <dc:type rdf:resource="http://purl.org/dc/dcmitype/StillImage"/>
    <dc:date>2024-07-30T18:16:50.924102</dc:date>
    <dc:format>image/svg+xml</dc:format>
    <dc:creator>
     <cc:Agent>
      <dc:title>Matplotlib v3.9.0, https://matplotlib.org/</dc:title>
     </cc:Agent>
    </dc:creator>
   </cc:Work>
  </rdf:RDF>
 </metadata>
 <defs>
  <style type="text/css">*{stroke-linejoin: round; stroke-linecap: butt}</style>
 </defs>
 <g id="figure_1">
  <g id="patch_1">
   <path d="M 0 756 
L 1080 756 
L 1080 0 
L 0 0 
z
" style="fill: #ffffff"/>
  </g>
  <g id="axes_1">
   <g id="patch_2">
    <path d="M 88.532127 678.237256 
L 1041.12 678.237256 
L 1041.12 38.88 
L 88.532127 38.88 
z
" style="fill: #ffffff"/>
   </g>
   <g id="matplotlib.axis_1">
    <g id="xtick_1">
     <g id="line2d_1">
      <defs>
       <path id="mff0b8097a1" d="M 0 0 
L 0 3.5 
" style="stroke: #262626; stroke-width: 0.8"/>
      </defs>
      <g>
       <use xlink:href="#mff0b8097a1" x="88.532127" y="678.237256" style="fill: #262626; stroke: #262626; stroke-width: 0.8"/>
      </g>
     </g>
     <g id="text_1">
      <!-- $\mathdefault{0}$ -->
      <g style="fill: #262626" transform="translate(80.307841 710.143856) scale(0.36 -0.36)">
       <defs>
        <path id="CMR17-30" d="M 2688 2025 
C 2688 2416 2682 3080 2413 3591 
C 2176 4039 1798 4198 1466 4198 
C 1158 4198 768 4058 525 3597 
C 269 3118 243 2524 243 2025 
C 243 1661 250 1106 448 619 
C 723 -39 1216 -128 1466 -128 
C 1760 -128 2208 -7 2470 600 
C 2662 1042 2688 1559 2688 2025 
z
M 1466 -26 
C 1056 -26 813 325 723 812 
C 653 1188 653 1738 653 2096 
C 653 2588 653 2997 736 3387 
C 858 3929 1216 4096 1466 4096 
C 1728 4096 2067 3923 2189 3400 
C 2272 3036 2278 2607 2278 2096 
C 2278 1680 2278 1169 2202 792 
C 2067 95 1690 -26 1466 -26 
z
" transform="scale(0.015625)"/>
       </defs>
       <use xlink:href="#CMR17-30" transform="scale(0.996264)"/>
      </g>
     </g>
    </g>
    <g id="xtick_2">
     <g id="line2d_2">
      <g>
       <use xlink:href="#mff0b8097a1" x="280.741141" y="678.237256" style="fill: #262626; stroke: #262626; stroke-width: 0.8"/>
      </g>
     </g>
     <g id="text_2">
      <!-- $\mathdefault{500}$ -->
      <g style="fill: #262626" transform="translate(256.068284 710.143856) scale(0.36 -0.36)">
       <defs>
        <path id="CMR17-35" d="M 730 3692 
C 794 3666 1056 3584 1325 3584 
C 1920 3584 2246 3911 2432 4100 
C 2432 4157 2432 4192 2394 4192 
C 2387 4192 2374 4192 2323 4163 
C 2099 4058 1837 3973 1517 3973 
C 1325 3973 1037 3999 723 4139 
C 653 4171 640 4171 634 4171 
C 602 4171 595 4164 595 4037 
L 595 2203 
C 595 2089 595 2057 659 2057 
C 691 2057 704 2070 736 2114 
C 941 2401 1222 2522 1542 2522 
C 1766 2522 2246 2382 2246 1289 
C 2246 1085 2246 715 2054 421 
C 1894 159 1645 25 1370 25 
C 947 25 518 320 403 814 
C 429 807 480 795 506 795 
C 589 795 749 840 749 1038 
C 749 1210 627 1280 506 1280 
C 358 1280 262 1190 262 1011 
C 262 454 704 -128 1382 -128 
C 2042 -128 2669 440 2669 1264 
C 2669 2030 2170 2624 1549 2624 
C 1222 2624 947 2503 730 2274 
L 730 3692 
z
" transform="scale(0.015625)"/>
       </defs>
       <use xlink:href="#CMR17-35" transform="scale(0.996264)"/>
       <use xlink:href="#CMR17-30" transform="translate(45.690477 0) scale(0.996264)"/>
       <use xlink:href="#CMR17-30" transform="translate(91.380954 0) scale(0.996264)"/>
      </g>
     </g>
    </g>
    <g id="xtick_3">
     <g id="line2d_3">
      <g>
       <use xlink:href="#mff0b8097a1" x="472.950155" y="678.237256" style="fill: #262626; stroke: #262626; stroke-width: 0.8"/>
      </g>
     </g>
     <g id="text_3">
      <!-- $\mathdefault{1000}$ -->
      <g style="fill: #262626" transform="translate(440.053011 710.143856) scale(0.36 -0.36)">
       <defs>
        <path id="CMR17-31" d="M 1702 4058 
C 1702 4192 1696 4192 1606 4192 
C 1357 3916 979 3827 621 3827 
C 602 3827 570 3827 563 3808 
C 557 3795 557 3782 557 3648 
C 755 3648 1088 3686 1344 3839 
L 1344 461 
C 1344 236 1331 160 781 160 
L 589 160 
L 589 0 
C 896 0 1216 0 1523 0 
C 1830 0 2150 0 2458 0 
L 2458 160 
L 2266 160 
C 1715 160 1702 230 1702 458 
L 1702 4058 
z
" transform="scale(0.015625)"/>
       </defs>
       <use xlink:href="#CMR17-31" transform="scale(0.996264)"/>
       <use xlink:href="#CMR17-30" transform="translate(45.690477 0) scale(0.996264)"/>
       <use xlink:href="#CMR17-30" transform="translate(91.380954 0) scale(0.996264)"/>
       <use xlink:href="#CMR17-30" transform="translate(137.071431 0) scale(0.996264)"/>
      </g>
     </g>
    </g>
    <g id="xtick_4">
     <g id="line2d_4">
      <g>
       <use xlink:href="#mff0b8097a1" x="665.159169" y="678.237256" style="fill: #262626; stroke: #262626; stroke-width: 0.8"/>
      </g>
     </g>
     <g id="text_4">
      <!-- $\mathdefault{1500}$ -->
      <g style="fill: #262626" transform="translate(632.262025 710.143856) scale(0.36 -0.36)">
       <use xlink:href="#CMR17-31" transform="scale(0.996264)"/>
       <use xlink:href="#CMR17-35" transform="translate(45.690477 0) scale(0.996264)"/>
       <use xlink:href="#CMR17-30" transform="translate(91.380954 0) scale(0.996264)"/>
       <use xlink:href="#CMR17-30" transform="translate(137.071431 0) scale(0.996264)"/>
      </g>
     </g>
    </g>
    <g id="xtick_5">
     <g id="line2d_5">
      <g>
       <use xlink:href="#mff0b8097a1" x="857.368183" y="678.237256" style="fill: #262626; stroke: #262626; stroke-width: 0.8"/>
      </g>
     </g>
     <g id="text_5">
      <!-- $\mathdefault{2000}$ -->
      <g style="fill: #262626" transform="translate(824.471039 710.143856) scale(0.36 -0.36)">
       <defs>
        <path id="CMR17-32" d="M 2669 989 
L 2554 989 
C 2490 536 2438 459 2413 420 
C 2381 369 1920 369 1830 369 
L 602 369 
C 832 619 1280 1072 1824 1597 
C 2214 1967 2669 2402 2669 3035 
C 2669 3790 2067 4224 1395 4224 
C 691 4224 262 3604 262 3030 
C 262 2780 448 2748 525 2748 
C 589 2748 781 2787 781 3010 
C 781 3207 614 3264 525 3264 
C 486 3264 448 3258 422 3245 
C 544 3790 915 4058 1306 4058 
C 1862 4058 2227 3617 2227 3035 
C 2227 2479 1901 2000 1536 1584 
L 262 146 
L 262 0 
L 2515 0 
L 2669 989 
z
" transform="scale(0.015625)"/>
       </defs>
       <use xlink:href="#CMR17-32" transform="scale(0.996264)"/>
       <use xlink:href="#CMR17-30" transform="translate(45.690477 0) scale(0.996264)"/>
       <use xlink:href="#CMR17-30" transform="translate(91.380954 0) scale(0.996264)"/>
       <use xlink:href="#CMR17-30" transform="translate(137.071431 0) scale(0.996264)"/>
      </g>
     </g>
    </g>
   </g>
   <g id="matplotlib.axis_2">
    <g id="ytick_1">
     <g id="line2d_6">
      <defs>
       <path id="m731cdb5086" d="M 0 0 
L -3.5 0 
" style="stroke: #262626; stroke-width: 0.8"/>
      </defs>
      <g>
       <use xlink:href="#m731cdb5086" x="88.532127" y="584.765898" style="fill: #262626; stroke: #262626; stroke-width: 0.8"/>
      </g>
     </g>
     <g id="text_6">
      <!-- $\mathdefault{0.2}$ -->
      <g style="fill: #262626" transform="translate(38.88 597.219198) scale(0.36 -0.36)">
       <defs>
        <path id="CMMI12-3a" d="M 1178 307 
C 1178 492 1024 619 870 619 
C 685 619 557 466 557 313 
C 557 128 710 0 864 0 
C 1050 0 1178 153 1178 307 
z
" transform="scale(0.015625)"/>
       </defs>
       <use xlink:href="#CMR17-30" transform="scale(0.996264)"/>
       <use xlink:href="#CMMI12-3a" transform="translate(45.690477 0) scale(0.996264)"/>
       <use xlink:href="#CMR17-32" transform="translate(72.787654 0) scale(0.996264)"/>
      </g>
     </g>
    </g>
    <g id="ytick_2">
     <g id="line2d_7">
      <g>
       <use xlink:href="#m731cdb5086" x="88.532127" y="455.559847" style="fill: #262626; stroke: #262626; stroke-width: 0.8"/>
      </g>
     </g>
     <g id="text_7">
      <!-- $\mathdefault{0.4}$ -->
      <g style="fill: #262626" transform="translate(38.88 468.013147) scale(0.36 -0.36)">
       <defs>
        <path id="CMR17-34" d="M 2150 4122 
C 2150 4256 2144 4256 2029 4256 
L 128 1254 
L 128 1088 
L 1779 1088 
L 1779 457 
C 1779 224 1766 160 1318 160 
L 1197 160 
L 1197 0 
C 1402 0 1747 0 1965 0 
C 2182 0 2528 0 2733 0 
L 2733 160 
L 2611 160 
C 2163 160 2150 224 2150 457 
L 2150 1088 
L 2803 1088 
L 2803 1254 
L 2150 1254 
L 2150 4122 
z
M 1798 3703 
L 1798 1254 
L 256 1254 
L 1798 3703 
z
" transform="scale(0.015625)"/>
       </defs>
       <use xlink:href="#CMR17-30" transform="scale(0.996264)"/>
       <use xlink:href="#CMMI12-3a" transform="translate(45.690477 0) scale(0.996264)"/>
       <use xlink:href="#CMR17-34" transform="translate(72.787654 0) scale(0.996264)"/>
      </g>
     </g>
    </g>
    <g id="ytick_3">
     <g id="line2d_8">
      <g>
       <use xlink:href="#m731cdb5086" x="88.532127" y="326.353796" style="fill: #262626; stroke: #262626; stroke-width: 0.8"/>
      </g>
     </g>
     <g id="text_8">
      <!-- $\mathdefault{0.6}$ -->
      <g style="fill: #262626" transform="translate(38.88 338.807096) scale(0.36 -0.36)">
       <defs>
        <path id="CMR17-36" d="M 678 2176 
C 678 3690 1395 4032 1811 4032 
C 1946 4032 2272 4009 2400 3776 
C 2298 3776 2106 3776 2106 3553 
C 2106 3381 2246 3323 2336 3323 
C 2394 3323 2566 3348 2566 3560 
C 2566 3954 2246 4179 1805 4179 
C 1043 4179 243 3390 243 1984 
C 243 253 966 -128 1478 -128 
C 2099 -128 2688 427 2688 1283 
C 2688 2081 2170 2662 1517 2662 
C 1126 2662 838 2407 678 1960 
L 678 2176 
z
M 1478 25 
C 691 25 691 1200 691 1436 
C 691 1896 909 2560 1504 2560 
C 1613 2560 1926 2560 2138 2120 
C 2253 1870 2253 1609 2253 1289 
C 2253 944 2253 690 2118 434 
C 1978 171 1773 25 1478 25 
z
" transform="scale(0.015625)"/>
       </defs>
       <use xlink:href="#CMR17-30" transform="scale(0.996264)"/>
       <use xlink:href="#CMMI12-3a" transform="translate(45.690477 0) scale(0.996264)"/>
       <use xlink:href="#CMR17-36" transform="translate(72.787654 0) scale(0.996264)"/>
      </g>
     </g>
    </g>
    <g id="ytick_4">
     <g id="line2d_9">
      <g>
       <use xlink:href="#m731cdb5086" x="88.532127" y="197.147745" style="fill: #262626; stroke: #262626; stroke-width: 0.8"/>
      </g>
     </g>
     <g id="text_9">
      <!-- $\mathdefault{0.8}$ -->
      <g style="fill: #262626" transform="translate(38.88 209.601045) scale(0.36 -0.36)">
       <defs>
        <path id="CMR17-38" d="M 1741 2264 
C 2144 2467 2554 2773 2554 3263 
C 2554 3841 1990 4179 1472 4179 
C 890 4179 378 3759 378 3180 
C 378 3021 416 2747 666 2505 
C 730 2442 998 2251 1171 2130 
C 883 1983 211 1634 211 934 
C 211 279 838 -128 1459 -128 
C 2144 -128 2720 362 2720 1010 
C 2720 1590 2330 1857 2074 2029 
L 1741 2264 
z
M 902 2822 
C 851 2854 595 3051 595 3351 
C 595 3739 998 4032 1459 4032 
C 1965 4032 2336 3676 2336 3262 
C 2336 2669 1670 2331 1638 2331 
C 1632 2331 1626 2331 1574 2370 
L 902 2822 
z
M 2080 1519 
C 2176 1449 2483 1240 2483 851 
C 2483 381 2010 25 1472 25 
C 890 25 448 438 448 940 
C 448 1443 838 1862 1280 2060 
L 2080 1519 
z
" transform="scale(0.015625)"/>
       </defs>
       <use xlink:href="#CMR17-30" transform="scale(0.996264)"/>
       <use xlink:href="#CMMI12-3a" transform="translate(45.690477 0) scale(0.996264)"/>
       <use xlink:href="#CMR17-38" transform="translate(72.787654 0) scale(0.996264)"/>
      </g>
     </g>
    </g>
    <g id="ytick_5">
     <g id="line2d_10">
      <g>
       <use xlink:href="#m731cdb5086" x="88.532127" y="67.941693" style="fill: #262626; stroke: #262626; stroke-width: 0.8"/>
      </g>
     </g>
     <g id="text_10">
      <!-- $\mathdefault{1.0}$ -->
      <g style="fill: #262626" transform="translate(38.88 80.394994) scale(0.36 -0.36)">
       <use xlink:href="#CMR17-31" transform="scale(0.996264)"/>
       <use xlink:href="#CMMI12-3a" transform="translate(45.690477 0) scale(0.996264)"/>
       <use xlink:href="#CMR17-30" transform="translate(72.787654 0) scale(0.996264)"/>
      </g>
     </g>
    </g>
   </g>
   <g id="line2d_11">
    <path d="M 88.532127 67.941694 
L 103.908848 111.889485 
L 111.597209 132.450336 
L 119.285569 151.990092 
L 126.97393 170.546653 
L 134.662291 188.214393 
L 142.350651 205.027801 
L 150.039012 221.049987 
L 157.727372 236.339568 
L 165.415733 250.912872 
L 173.104093 264.840399 
L 180.792454 278.153597 
L 188.480814 290.893276 
L 196.169175 303.085486 
L 203.857536 314.733108 
L 211.545896 325.883777 
L 219.234257 336.568203 
L 226.922617 346.834471 
L 234.610978 356.716557 
L 242.299338 366.245503 
L 249.987699 375.438902 
L 257.676059 384.208281 
L 265.36442 392.62105 
L 273.052781 400.689309 
L 280.741141 408.454569 
L 288.429502 415.955315 
L 296.117862 423.19812 
L 303.806223 430.20482 
L 311.494583 436.955297 
L 319.182944 443.479876 
L 326.871304 449.794602 
L 334.559665 455.899894 
L 342.248026 461.775863 
L 349.936386 467.446097 
L 357.624747 472.91726 
L 365.313107 478.200541 
L 376.845648 485.792425 
L 388.378189 493.011262 
L 399.91073 499.898263 
L 411.443271 506.483622 
L 422.975811 512.800762 
L 434.508352 518.883106 
L 446.040893 524.726385 
L 457.573434 530.253218 
L 469.105975 535.539586 
L 480.638516 540.598917 
L 492.171056 545.444643 
L 503.703597 550.090862 
L 519.080318 555.998334 
L 534.457039 561.606579 
L 549.833761 566.913331 
L 565.210482 571.949907 
L 580.587203 576.741539 
L 595.963924 581.311676 
L 611.340645 585.645038 
L 626.717366 589.762148 
L 642.094087 593.68582 
L 661.314989 598.342355 
L 680.53589 602.739919 
L 699.756791 606.91033 
L 722.821873 611.655635 
L 738.198594 614.628711 
L 757.419496 618.13674 
L 776.640397 621.437712 
L 799.705479 625.164802 
L 826.614741 629.276522 
L 853.524002 633.16124 
L 876.589084 636.207726 
L 899.654166 639.030809 
L 934.251788 642.965054 
L 961.16105 645.803557 
L 984.226132 648.043753 
L 995.758673 649.094583 
L 995.758673 649.094583 
" clip-path="url(#p051d2303a1)" style="fill: none; stroke: #1f77b4; stroke-width: 5; stroke-linecap: round"/>
   </g>
   <g id="line2d_12">
    <path d="M 88.532127 67.941694 
L 92.376308 87.823155 
L 96.220488 107.717301 
L 100.064668 126.693344 
L 103.908848 144.806076 
L 107.753029 162.103903 
L 111.597209 178.622632 
L 115.441389 194.44277 
L 119.285569 209.567457 
L 123.12975 224.055972 
L 126.97393 237.932284 
L 130.81811 251.242417 
L 134.662291 264.016117 
L 138.506471 276.274104 
L 142.350651 288.032818 
L 146.194831 299.327077 
L 150.039012 310.186689 
L 153.883192 320.647688 
L 157.727372 330.73581 
L 161.571553 340.477818 
L 165.415733 349.831877 
L 169.259913 358.841431 
L 173.104093 367.521958 
L 176.948274 375.888769 
L 180.792454 383.957313 
L 184.636634 391.743051 
L 188.480814 399.259514 
L 192.324995 406.52029 
L 196.169175 413.540977 
L 200.013355 420.336265 
L 203.857536 426.920845 
L 207.701716 433.309406 
L 211.545896 439.51189 
L 215.390076 445.48198 
L 219.234257 451.267187 
L 223.078437 456.877128 
L 226.922617 462.321417 
L 230.766798 467.595833 
L 234.610978 472.707607 
L 238.455158 477.668793 
L 242.299338 482.486974 
L 246.143519 487.16564 
L 249.987699 491.700848 
L 253.831879 496.10492 
L 257.676059 500.383528 
L 261.52024 504.542344 
L 265.36442 508.581547 
L 269.2086 512.50816 
L 273.052781 516.32755 
L 276.896961 520.044684 
L 280.741141 523.662351 
L 284.585321 527.18352 
L 288.429502 530.614056 
L 292.273682 533.958369 
L 296.117862 537.219966 
L 299.962043 540.393892 
L 303.806223 543.486307 
L 307.650403 546.498909 
L 311.494583 549.433066 
L 315.338764 552.295917 
L 319.182944 555.090334 
L 323.027124 557.817498 
L 326.871304 560.480065 
L 330.715485 563.079617 
L 334.559665 565.615915 
L 338.403845 568.091895 
L 342.248026 570.509006 
L 346.092206 572.868538 
L 349.936386 575.174754 
L 353.780566 577.428264 
L 357.624747 579.630622 
L 361.468927 581.783453 
L 365.313107 583.887947 
L 369.157288 585.945237 
L 373.001468 587.956795 
L 376.845648 589.92381 
L 380.689828 591.847535 
L 384.534009 593.730097 
L 388.378189 595.57225 
L 392.222369 597.375196 
L 396.066549 599.140101 
L 399.91073 600.86809 
L 403.75491 602.560247 
L 407.59909 604.217622 
L 411.443271 605.841222 
L 415.287451 607.431733 
L 419.131631 608.989625 
L 422.975811 610.516072 
L 426.819992 612.011831 
L 430.664172 613.477613 
L 434.508352 614.91408 
L 438.352533 616.321847 
L 442.196713 617.701483 
L 446.040893 619.05351 
L 449.885073 620.380245 
L 453.729254 621.682659 
L 457.573434 622.960346 
L 461.417614 624.213918 
L 465.261794 625.443958 
L 469.105975 626.651023 
L 472.950155 627.835642 
L 476.794335 628.998316 
L 480.638516 630.139519 
L 484.482696 631.26011 
L 488.326876 632.360391 
L 492.171056 633.440706 
L 496.015237 634.50146 
L 499.859417 635.543033 
L 503.703597 636.565778 
L 507.547778 637.570026 
L 511.391958 638.556081 
L 515.236138 639.524262 
L 519.080318 640.477615 
L 522.924499 641.414707 
L 526.768679 642.335946 
L 530.612859 643.241728 
L 534.457039 644.132439 
L 538.30122 645.008452 
L 542.1454 645.870131 
L 545.98958 646.717829 
L 549.833761 647.551545 
L 553.677941 648.370415 
L 557.522121 649.175563 
" clip-path="url(#p051d2303a1)" style="fill: none; stroke: #ff7f0e; stroke-width: 5; stroke-linecap: round"/>
   </g>
   <g id="line2d_13">
    <path d="M 88.532127 67.941695 
L 92.376308 95.015147 
L 96.220488 121.631008 
L 100.064668 146.613886 
L 103.908848 170.094813 
L 107.753029 192.193708 
L 111.597209 213.016193 
L 115.441389 232.665255 
L 119.285569 251.209971 
L 123.12975 268.741302 
L 126.97393 285.3514 
L 130.81811 301.101561 
L 134.662291 316.022656 
L 138.506471 330.18038 
L 142.350651 343.624723 
L 146.194831 356.410323 
L 150.039012 368.576842 
L 153.883192 380.176661 
L 157.727372 391.229663 
L 161.571553 401.776649 
L 165.415733 411.840027 
L 169.259913 421.443437 
L 173.104093 430.617248 
L 176.948274 439.386515 
L 180.792454 447.778688 
L 184.636634 455.825601 
L 188.480814 463.553406 
L 192.324995 470.9584 
L 196.169175 478.053373 
L 200.013355 484.8671 
L 203.857536 491.414855 
L 207.701716 497.707594 
L 211.545896 503.755775 
L 215.390076 509.573279 
L 219.234257 515.175124 
L 223.078437 520.571184 
L 226.922617 525.766652 
L 230.766798 530.77331 
L 234.610978 535.600983 
L 238.455158 540.259495 
L 242.299338 544.751935 
L 246.143519 549.089463 
L 249.987699 553.281201 
L 253.831879 557.33588 
L 257.676059 561.249114 
L 261.52024 565.033414 
L 265.36442 568.696073 
L 269.2086 572.243989 
L 273.052781 575.672205 
L 276.896961 578.991577 
L 280.741141 582.207437 
L 284.585321 585.324899 
L 288.429502 588.343238 
L 292.273682 591.269774 
L 296.117862 594.108984 
L 299.962043 596.864954 
L 303.806223 599.536665 
L 307.650403 602.130403 
L 311.494583 604.649835 
L 315.338764 607.098261 
L 319.182944 609.475581 
L 323.027124 611.785831 
L 326.871304 614.03137 
L 330.715485 616.214385 
L 334.559665 618.336888 
L 338.403845 620.400721 
L 342.248026 622.40755 
L 346.092206 624.359849 
L 349.936386 626.263225 
L 353.780566 628.11676 
L 357.624747 629.922177 
L 361.468927 631.681091 
L 365.313107 633.395019 
L 369.157288 635.065374 
L 373.001468 636.693464 
L 376.845648 638.280605 
L 380.689828 639.82817 
L 384.534009 641.336998 
L 388.378189 642.808028 
L 392.222369 644.242101 
L 396.066549 645.639958 
L 399.91073 647.002242 
L 403.75491 648.329496 
" clip-path="url(#p051d2303a1)" style="fill: none; stroke: #2ca02c; stroke-width: 5; stroke-linecap: round"/>
   </g>
   <g id="line2d_14">
    <path d="M 88.532127 67.941695 
L 92.376308 100.889318 
L 96.220488 132.835192 
L 100.064668 162.479461 
L 103.908848 190.034296 
L 107.753029 215.69342 
L 111.597209 239.618447 
L 115.441389 261.980235 
L 119.285569 282.89295 
L 123.12975 302.472433 
L 126.97393 320.864382 
L 130.81811 338.189063 
L 134.662291 354.458859 
L 138.506471 369.769851 
L 142.350651 384.193084 
L 146.194831 397.800846 
L 150.039012 410.662065 
L 153.883192 422.848668 
L 157.727372 434.431703 
L 161.571553 445.377687 
L 165.415733 455.770312 
L 169.259913 465.638758 
L 173.104093 475.014523 
L 176.948274 483.933689 
L 180.792454 492.414245 
L 184.636634 500.491039 
L 188.480814 508.186687 
L 192.324995 515.530554 
L 196.169175 522.544154 
L 200.013355 529.253009 
L 203.857536 535.673289 
L 207.701716 541.81331 
L 211.545896 547.685873 
L 215.390076 553.304279 
L 219.234257 558.691936 
L 223.078437 563.85528 
L 226.922617 568.80595 
L 230.766798 573.560224 
L 234.610978 578.127967 
L 238.455158 582.520527 
L 242.299338 586.750943 
L 246.143519 590.830153 
L 249.987699 594.769132 
L 253.831879 598.559741 
L 257.676059 602.196075 
L 261.52024 605.679672 
L 265.36442 609.022318 
L 269.2086 612.253972 
L 273.052781 615.372507 
L 276.896961 618.38664 
L 280.741141 621.29284 
L 284.585321 624.103291 
L 288.429502 626.824938 
L 292.273682 629.444995 
L 296.117862 631.973749 
L 299.962043 634.414535 
L 303.806223 636.776093 
L 307.650403 639.063357 
L 311.494583 641.279794 
L 315.338764 643.426662 
L 319.182944 645.504362 
L 323.027124 647.518067 
" clip-path="url(#p051d2303a1)" style="fill: none; stroke: #d62728; stroke-width: 5; stroke-linecap: round"/>
   </g>
   <g id="line2d_15">
    <path d="M 88.532127 67.941696 
L 92.376308 105.721903 
L 96.220488 141.980945 
L 100.064668 175.35185 
L 103.908848 206.136301 
L 107.753029 234.594375 
L 111.597209 260.963082 
L 115.441389 285.428814 
L 119.285569 308.172274 
L 123.12975 329.365935 
L 126.97393 349.136207 
L 130.81811 367.60951 
L 134.662291 384.892683 
L 138.506471 401.083395 
L 142.350651 416.278928 
L 146.194831 430.559147 
L 150.039012 443.993863 
L 153.883192 456.647196 
L 157.727372 468.572765 
L 161.571553 479.830644 
L 165.415733 490.467594 
L 169.259913 500.52152 
L 173.104093 510.040603 
L 176.948274 519.068375 
L 180.792454 527.634204 
L 184.636634 535.768824 
L 188.480814 543.498699 
L 192.324995 550.846248 
L 196.169175 557.835838 
L 200.013355 564.483998 
L 203.857536 570.805966 
L 207.701716 576.83473 
L 211.545896 582.582708 
L 215.390076 588.067911 
L 219.234257 593.311402 
L 223.078437 598.329417 
L 226.922617 603.131513 
L 230.766798 607.710798 
L 234.610978 612.075533 
L 238.455158 616.243945 
L 242.299338 620.246937 
L 246.143519 624.09214 
L 249.987699 627.775777 
L 253.831879 631.299332 
L 257.676059 634.676764 
L 261.52024 637.91349 
L 265.36442 641.016815 
L 269.2086 643.994226 
L 273.052781 646.849494 
" clip-path="url(#p051d2303a1)" style="fill: none; stroke: #9467bd; stroke-width: 5; stroke-linecap: round"/>
   </g>
   <g id="line2d_16">
    <path d="M 88.532127 67.941698 
L 92.376308 109.727737 
L 96.220488 149.550412 
L 100.064668 186.015393 
L 103.908848 219.493604 
L 107.753029 250.302244 
L 111.597209 278.730163 
L 115.441389 304.997932 
L 119.285569 329.330877 
L 123.12975 351.913337 
L 126.97393 372.906406 
L 130.81811 392.448964 
L 134.662291 410.670304 
L 138.506471 427.689691 
L 142.350651 443.615804 
L 146.194831 458.54135 
L 150.039012 472.540002 
L 153.883192 485.672396 
L 157.727372 498.020529 
L 161.571553 509.634026 
L 165.415733 520.574969 
L 169.259913 530.900962 
L 173.104093 540.649434 
L 176.948274 549.847998 
L 180.792454 558.534449 
L 184.636634 566.750334 
L 188.480814 574.525982 
L 192.324995 581.899564 
L 196.169175 588.897161 
L 200.013355 595.523378 
L 203.857536 601.796149 
L 207.701716 607.746089 
L 211.545896 613.387539 
L 215.390076 618.745254 
L 219.234257 623.838027 
L 223.078437 628.668416 
L 226.922617 633.254458 
L 230.766798 637.612263 
L 234.610978 641.756272 
L 238.455158 645.688653 
" clip-path="url(#p051d2303a1)" style="fill: none; stroke: #8c564b; stroke-width: 5; stroke-linecap: round"/>
   </g>
   <g id="line2d_17">
    <path d="M 88.532127 67.941699 
L 92.376308 113.075339 
L 96.220488 155.902784 
L 100.064668 195.023777 
L 103.908848 230.856855 
L 107.753029 263.763448 
L 111.597209 294.047045 
L 115.441389 322.024221 
L 119.285569 347.860772 
L 123.12975 371.778087 
L 126.97393 393.988723 
L 130.81811 414.630883 
L 134.662291 433.849932 
L 138.506471 451.768904 
L 142.350651 468.49948 
L 146.194831 484.125493 
L 150.039012 498.749972 
L 153.883192 512.47112 
L 157.727372 525.325984 
L 161.571553 537.382378 
L 165.415733 548.686545 
L 169.259913 559.319717 
L 173.104093 569.345099 
L 176.948274 578.735995 
L 180.792454 587.554728 
L 184.636634 595.873642 
L 188.480814 603.717456 
L 192.324995 611.099771 
L 196.169175 618.018496 
L 200.013355 624.528671 
L 203.857536 630.655675 
L 207.701716 636.424485 
L 211.545896 641.839879 
L 215.390076 646.924467 
" clip-path="url(#p051d2303a1)" style="fill: none; stroke: #e377c2; stroke-width: 5; stroke-linecap: round"/>
   </g>
   <g id="line2d_18">
    <path d="M 88.532127 67.941701 
L 92.376308 115.894609 
L 96.220488 161.313959 
L 100.064668 202.794107 
L 103.908848 240.783934 
L 107.753029 275.660327 
L 111.597209 307.76762 
L 115.441389 337.386711 
L 119.285569 364.791196 
L 123.12975 390.116337 
L 126.97393 413.63522 
L 130.81811 435.480506 
L 134.662291 455.802266 
L 138.506471 474.729711 
L 142.350651 492.369427 
L 146.194831 508.819095 
L 150.039012 524.187439 
L 153.883192 538.54765 
L 157.727372 551.958486 
L 161.571553 564.469506 
L 165.415733 576.160506 
L 169.259913 587.10715 
L 173.104093 597.317834 
L 176.948274 606.83801 
L 180.792454 615.709232 
L 184.636634 624.003879 
L 188.480814 631.705634 
L 192.324995 638.836911 
L 196.169175 645.479908 
" clip-path="url(#p051d2303a1)" style="fill: none; stroke: #7f7f7f; stroke-width: 5; stroke-linecap: round"/>
   </g>
   <g id="line2d_19">
    <path d="M 88.532127 67.941703 
L 92.376308 118.29458 
L 96.220488 165.994333 
L 100.064668 209.63966 
L 103.908848 249.682337 
L 107.753029 286.506096 
L 111.597209 320.456727 
L 115.441389 351.818324 
L 119.285569 380.820893 
L 123.12975 407.736543 
L 126.97393 432.71347 
L 130.81811 455.903599 
L 134.662291 477.482006 
L 138.506471 497.545838 
L 142.350651 516.177948 
L 146.194831 533.572977 
L 150.039012 549.739649 
L 153.883192 564.718467 
L 157.727372 578.697925 
L 161.571553 591.599584 
L 165.415733 603.545826 
L 169.259913 614.605793 
L 173.104093 624.776728 
L 176.948274 634.131733 
L 180.792454 642.702566 
" clip-path="url(#p051d2303a1)" style="fill: none; stroke: #bcbd22; stroke-width: 5; stroke-linecap: round"/>
   </g>
   <g id="line2d_20">
    <path d="M 88.532127 67.941693 
L 92.376308 120.356246 
L 96.220488 170.107528 
L 100.064668 215.79171 
L 103.908848 257.850418 
L 107.753029 296.663171 
L 111.597209 332.55063 
L 115.441389 365.793075 
L 119.285569 396.629102 
L 123.12975 425.262786 
L 126.97393 451.873883 
L 130.81811 476.593006 
L 134.662291 499.549946 
L 138.506471 520.904539 
L 142.350651 540.688816 
L 146.194831 558.972966 
L 150.039012 575.866221 
L 153.883192 591.415633 
L 157.727372 605.678075 
L 161.571553 618.702696 
L 165.415733 630.541736 
L 169.259913 641.251098 
" clip-path="url(#p051d2303a1)" style="fill: none; stroke: #17becf; stroke-width: 5; stroke-linecap: round"/>
   </g>
   <g id="line2d_21">
    <path d="M 88.532127 649.368923 
L 1041.12 649.368923 
" clip-path="url(#p051d2303a1)" style="fill: none; stroke-dasharray: 18.5,8; stroke-dashoffset: 0; stroke: #ffa500; stroke-width: 5"/>
   </g>
   <g id="patch_3">
    <path d="M 88.532127 678.237256 
L 88.532127 38.88 
" style="fill: none; stroke: #262626; stroke-width: 0.8; stroke-linejoin: miter; stroke-linecap: square"/>
   </g>
   <g id="patch_4">
    <path d="M 88.532127 678.237256 
L 1041.12 678.237256 
" style="fill: none; stroke: #262626; stroke-width: 0.8; stroke-linejoin: miter; stroke-linecap: square"/>
   </g>
  </g>
 </g>
 <defs>
  <clipPath id="p051d2303a1">
   <rect x="88.532127" y="38.88" width="952.587873" height="639.357256"/>
  </clipPath>
 </defs>
</svg>
