<?xml version="1.0" encoding="utf-8" standalone="no"?>
<!DOCTYPE svg PUBLIC "-//W3C//DTD SVG 1.1//EN"
  "http://www.w3.org/Graphics/SVG/1.1/DTD/svg11.dtd">
<svg xmlns:xlink="http://www.w3.org/1999/xlink" width="1080pt" height="576pt" viewBox="0 0 1080 576" xmlns="http://www.w3.org/2000/svg" version="1.1">
 <metadata>
  <rdf:RDF xmlns:dc="http://purl.org/dc/elements/1.1/" xmlns:cc="http://creativecommons.org/ns#" xmlns:rdf="http://www.w3.org/1999/02/22-rdf-syntax-ns#">
   <cc:Work>
    <dc:type rdf:resource="http://purl.org/dc/dcmitype/StillImage"/>
    <dc:date>2024-06-28T14:27:41.853411</dc:date>
    <dc:format>image/svg+xml</dc:format>
    <dc:creator>
     <cc:Agent>
      <dc:title>Matplotlib v3.9.0, https://matplotlib.org/</dc:title>
     </cc:Agent>
    </dc:creator>
   </cc:Work>
  </rdf:RDF>
 </metadata>
 <defs>
  <style type="text/css">*{stroke-linejoin: round; stroke-linecap: butt}</style>
 </defs>
 <g id="figure_1">
  <g id="patch_1">
   <path d="M 0 576 
L 1080 576 
L 1080 0 
L 0 0 
z
" style="fill: #ffffff"/>
  </g>
  <g id="axes_1">
   <g id="patch_2">
    <path d="M 41.730582 521.153031 
L 935.517672 521.153031 
L 935.517672 51.564121 
L 41.730582 51.564121 
z
" style="fill: #eaeaf2"/>
   </g>
   <g id="matplotlib.axis_1">
    <g id="xtick_1">
     <g id="line2d_1">
      <path d="M 41.730582 521.153031 
L 41.730582 51.564121 
" clip-path="url(#p2f906ae937)" style="fill: none; stroke: #ffffff; stroke-linecap: round"/>
     </g>
     <g id="line2d_2"/>
     <g id="text_1">
      <!-- $\mathdefault{0.00}$ -->
      <g style="fill: #262626" transform="translate(29.591047 537.838907) scale(0.14 -0.14)">
       <defs>
        <path id="CMR17-30" d="M 2688 2025 
C 2688 2416 2682 3080 2413 3591 
C 2176 4039 1798 4198 1466 4198 
C 1158 4198 768 4058 525 3597 
C 269 3118 243 2524 243 2025 
C 243 1661 250 1106 448 619 
C 723 -39 1216 -128 1466 -128 
C 1760 -128 2208 -7 2470 600 
C 2662 1042 2688 1559 2688 2025 
z
M 1466 -26 
C 1056 -26 813 325 723 812 
C 653 1188 653 1738 653 2096 
C 653 2588 653 2997 736 3387 
C 858 3929 1216 4096 1466 4096 
C 1728 4096 2067 3923 2189 3400 
C 2272 3036 2278 2607 2278 2096 
C 2278 1680 2278 1169 2202 792 
C 2067 95 1690 -26 1466 -26 
z
" transform="scale(0.015625)"/>
        <path id="CMMI12-3a" d="M 1178 307 
C 1178 492 1024 619 870 619 
C 685 619 557 466 557 313 
C 557 128 710 0 864 0 
C 1050 0 1178 153 1178 307 
z
" transform="scale(0.015625)"/>
       </defs>
       <use xlink:href="#CMR17-30" transform="scale(0.996264)"/>
       <use xlink:href="#CMMI12-3a" transform="translate(45.690477 0) scale(0.996264)"/>
       <use xlink:href="#CMR17-30" transform="translate(72.787654 0) scale(0.996264)"/>
       <use xlink:href="#CMR17-30" transform="translate(118.478131 0) scale(0.996264)"/>
      </g>
     </g>
    </g>
    <g id="xtick_2">
     <g id="line2d_3">
      <path d="M 148.133807 521.153031 
L 148.133807 51.564121 
" clip-path="url(#p2f906ae937)" style="fill: none; stroke: #ffffff; stroke-linecap: round"/>
     </g>
     <g id="line2d_4"/>
     <g id="text_2">
      <!-- $\mathdefault{0.25}$ -->
      <g style="fill: #262626" transform="translate(135.994272 537.838907) scale(0.14 -0.14)">
       <defs>
        <path id="CMR17-32" d="M 2669 989 
L 2554 989 
C 2490 536 2438 459 2413 420 
C 2381 369 1920 369 1830 369 
L 602 369 
C 832 619 1280 1072 1824 1597 
C 2214 1967 2669 2402 2669 3035 
C 2669 3790 2067 4224 1395 4224 
C 691 4224 262 3604 262 3030 
C 262 2780 448 2748 525 2748 
C 589 2748 781 2787 781 3010 
C 781 3207 614 3264 525 3264 
C 486 3264 448 3258 422 3245 
C 544 3790 915 4058 1306 4058 
C 1862 4058 2227 3617 2227 3035 
C 2227 2479 1901 2000 1536 1584 
L 262 146 
L 262 0 
L 2515 0 
L 2669 989 
z
" transform="scale(0.015625)"/>
        <path id="CMR17-35" d="M 730 3692 
C 794 3666 1056 3584 1325 3584 
C 1920 3584 2246 3911 2432 4100 
C 2432 4157 2432 4192 2394 4192 
C 2387 4192 2374 4192 2323 4163 
C 2099 4058 1837 3973 1517 3973 
C 1325 3973 1037 3999 723 4139 
C 653 4171 640 4171 634 4171 
C 602 4171 595 4164 595 4037 
L 595 2203 
C 595 2089 595 2057 659 2057 
C 691 2057 704 2070 736 2114 
C 941 2401 1222 2522 1542 2522 
C 1766 2522 2246 2382 2246 1289 
C 2246 1085 2246 715 2054 421 
C 1894 159 1645 25 1370 25 
C 947 25 518 320 403 814 
C 429 807 480 795 506 795 
C 589 795 749 840 749 1038 
C 749 1210 627 1280 506 1280 
C 358 1280 262 1190 262 1011 
C 262 454 704 -128 1382 -128 
C 2042 -128 2669 440 2669 1264 
C 2669 2030 2170 2624 1549 2624 
C 1222 2624 947 2503 730 2274 
L 730 3692 
z
" transform="scale(0.015625)"/>
       </defs>
       <use xlink:href="#CMR17-30" transform="scale(0.996264)"/>
       <use xlink:href="#CMMI12-3a" transform="translate(45.690477 0) scale(0.996264)"/>
       <use xlink:href="#CMR17-32" transform="translate(72.787654 0) scale(0.996264)"/>
       <use xlink:href="#CMR17-35" transform="translate(118.478131 0) scale(0.996264)"/>
      </g>
     </g>
    </g>
    <g id="xtick_3">
     <g id="line2d_5">
      <path d="M 254.537032 521.153031 
L 254.537032 51.564121 
" clip-path="url(#p2f906ae937)" style="fill: none; stroke: #ffffff; stroke-linecap: round"/>
     </g>
     <g id="line2d_6"/>
     <g id="text_3">
      <!-- $\mathdefault{0.50}$ -->
      <g style="fill: #262626" transform="translate(242.397497 537.838907) scale(0.14 -0.14)">
       <use xlink:href="#CMR17-30" transform="scale(0.996264)"/>
       <use xlink:href="#CMMI12-3a" transform="translate(45.690477 0) scale(0.996264)"/>
       <use xlink:href="#CMR17-35" transform="translate(72.787654 0) scale(0.996264)"/>
       <use xlink:href="#CMR17-30" transform="translate(118.478131 0) scale(0.996264)"/>
      </g>
     </g>
    </g>
    <g id="xtick_4">
     <g id="line2d_7">
      <path d="M 360.940257 521.153031 
L 360.940257 51.564121 
" clip-path="url(#p2f906ae937)" style="fill: none; stroke: #ffffff; stroke-linecap: round"/>
     </g>
     <g id="line2d_8"/>
     <g id="text_4">
      <!-- $\mathdefault{0.75}$ -->
      <g style="fill: #262626" transform="translate(348.800722 537.838907) scale(0.14 -0.14)">
       <defs>
        <path id="CMR17-37" d="M 2886 3941 
L 2886 4081 
L 1382 4081 
C 634 4081 621 4165 595 4288 
L 480 4288 
L 294 3094 
L 410 3094 
C 429 3215 474 3540 550 3661 
C 589 3712 1062 3712 1171 3712 
L 2579 3712 
L 1869 2661 
C 1395 1954 1069 999 1069 165 
C 1069 89 1069 -128 1299 -128 
C 1530 -128 1530 89 1530 171 
L 1530 465 
C 1530 1508 1709 2196 2003 2636 
L 2886 3941 
z
" transform="scale(0.015625)"/>
       </defs>
       <use xlink:href="#CMR17-30" transform="scale(0.996264)"/>
       <use xlink:href="#CMMI12-3a" transform="translate(45.690477 0) scale(0.996264)"/>
       <use xlink:href="#CMR17-37" transform="translate(72.787654 0) scale(0.996264)"/>
       <use xlink:href="#CMR17-35" transform="translate(118.478131 0) scale(0.996264)"/>
      </g>
     </g>
    </g>
    <g id="xtick_5">
     <g id="line2d_9">
      <path d="M 467.343482 521.153031 
L 467.343482 51.564121 
" clip-path="url(#p2f906ae937)" style="fill: none; stroke: #ffffff; stroke-linecap: round"/>
     </g>
     <g id="line2d_10"/>
     <g id="text_5">
      <!-- $\mathdefault{1.00}$ -->
      <g style="fill: #262626" transform="translate(455.203947 537.838907) scale(0.14 -0.14)">
       <defs>
        <path id="CMR17-31" d="M 1702 4058 
C 1702 4192 1696 4192 1606 4192 
C 1357 3916 979 3827 621 3827 
C 602 3827 570 3827 563 3808 
C 557 3795 557 3782 557 3648 
C 755 3648 1088 3686 1344 3839 
L 1344 461 
C 1344 236 1331 160 781 160 
L 589 160 
L 589 0 
C 896 0 1216 0 1523 0 
C 1830 0 2150 0 2458 0 
L 2458 160 
L 2266 160 
C 1715 160 1702 230 1702 458 
L 1702 4058 
z
" transform="scale(0.015625)"/>
       </defs>
       <use xlink:href="#CMR17-31" transform="scale(0.996264)"/>
       <use xlink:href="#CMMI12-3a" transform="translate(45.690477 0) scale(0.996264)"/>
       <use xlink:href="#CMR17-30" transform="translate(72.787654 0) scale(0.996264)"/>
       <use xlink:href="#CMR17-30" transform="translate(118.478131 0) scale(0.996264)"/>
      </g>
     </g>
    </g>
    <g id="xtick_6">
     <g id="line2d_11">
      <path d="M 573.746707 521.153031 
L 573.746707 51.564121 
" clip-path="url(#p2f906ae937)" style="fill: none; stroke: #ffffff; stroke-linecap: round"/>
     </g>
     <g id="line2d_12"/>
     <g id="text_6">
      <!-- $\mathdefault{1.25}$ -->
      <g style="fill: #262626" transform="translate(561.607172 537.838907) scale(0.14 -0.14)">
       <use xlink:href="#CMR17-31" transform="scale(0.996264)"/>
       <use xlink:href="#CMMI12-3a" transform="translate(45.690477 0) scale(0.996264)"/>
       <use xlink:href="#CMR17-32" transform="translate(72.787654 0) scale(0.996264)"/>
       <use xlink:href="#CMR17-35" transform="translate(118.478131 0) scale(0.996264)"/>
      </g>
     </g>
    </g>
    <g id="xtick_7">
     <g id="line2d_13">
      <path d="M 680.149932 521.153031 
L 680.149932 51.564121 
" clip-path="url(#p2f906ae937)" style="fill: none; stroke: #ffffff; stroke-linecap: round"/>
     </g>
     <g id="line2d_14"/>
     <g id="text_7">
      <!-- $\mathdefault{1.50}$ -->
      <g style="fill: #262626" transform="translate(668.010397 537.838907) scale(0.14 -0.14)">
       <use xlink:href="#CMR17-31" transform="scale(0.996264)"/>
       <use xlink:href="#CMMI12-3a" transform="translate(45.690477 0) scale(0.996264)"/>
       <use xlink:href="#CMR17-35" transform="translate(72.787654 0) scale(0.996264)"/>
       <use xlink:href="#CMR17-30" transform="translate(118.478131 0) scale(0.996264)"/>
      </g>
     </g>
    </g>
    <g id="xtick_8">
     <g id="line2d_15">
      <path d="M 786.553157 521.153031 
L 786.553157 51.564121 
" clip-path="url(#p2f906ae937)" style="fill: none; stroke: #ffffff; stroke-linecap: round"/>
     </g>
     <g id="line2d_16"/>
     <g id="text_8">
      <!-- $\mathdefault{1.75}$ -->
      <g style="fill: #262626" transform="translate(774.413622 537.838907) scale(0.14 -0.14)">
       <use xlink:href="#CMR17-31" transform="scale(0.996264)"/>
       <use xlink:href="#CMMI12-3a" transform="translate(45.690477 0) scale(0.996264)"/>
       <use xlink:href="#CMR17-37" transform="translate(72.787654 0) scale(0.996264)"/>
       <use xlink:href="#CMR17-35" transform="translate(118.478131 0) scale(0.996264)"/>
      </g>
     </g>
    </g>
    <g id="xtick_9">
     <g id="line2d_17">
      <path d="M 892.956382 521.153031 
L 892.956382 51.564121 
" clip-path="url(#p2f906ae937)" style="fill: none; stroke: #ffffff; stroke-linecap: round"/>
     </g>
     <g id="line2d_18"/>
     <g id="text_9">
      <!-- $\mathdefault{2.00}$ -->
      <g style="fill: #262626" transform="translate(880.816846 537.838907) scale(0.14 -0.14)">
       <use xlink:href="#CMR17-32" transform="scale(0.996264)"/>
       <use xlink:href="#CMMI12-3a" transform="translate(45.690477 0) scale(0.996264)"/>
       <use xlink:href="#CMR17-30" transform="translate(72.787654 0) scale(0.996264)"/>
       <use xlink:href="#CMR17-30" transform="translate(118.478131 0) scale(0.996264)"/>
      </g>
     </g>
    </g>
    <g id="text_10">
     <!-- $x$ -->
     <g style="fill: #262626" transform="translate(484.189402 555.620524) scale(0.16 -0.16)">
      <defs>
       <path id="CMMI12-78" d="M 3034 2606 
C 2829 2567 2752 2414 2752 2293 
C 2752 2139 2874 2088 2963 2088 
C 3155 2088 3290 2254 3290 2427 
C 3290 2695 2982 2816 2714 2816 
C 2323 2816 2106 2433 2048 2312 
C 1901 2816 1504 2816 1389 2816 
C 736 2816 390 1980 390 1839 
C 390 1814 416 1782 461 1782 
C 512 1782 525 1820 538 1846 
C 755 2555 1184 2689 1370 2689 
C 1658 2689 1715 2420 1715 2267 
C 1715 2127 1677 1980 1600 1673 
L 1382 798 
C 1286 415 1101 64 762 64 
C 730 64 570 64 435 147 
C 666 192 717 383 717 460 
C 717 588 621 664 499 664 
C 346 664 179 530 179 326 
C 179 57 480 -64 755 -64 
C 1062 -64 1280 179 1414 441 
C 1517 64 1837 -64 2074 -64 
C 2726 -64 3072 773 3072 913 
C 3072 945 3046 971 3008 971 
C 2950 971 2944 939 2925 888 
C 2752 326 2381 64 2093 64 
C 1869 64 1747 230 1747 492 
C 1747 632 1773 734 1875 1156 
L 2099 2024 
C 2195 2408 2413 2689 2707 2689 
C 2720 2689 2899 2689 3034 2606 
z
" transform="scale(0.015625)"/>
      </defs>
      <use xlink:href="#CMMI12-78" transform="scale(0.996264)"/>
     </g>
    </g>
   </g>
   <g id="matplotlib.axis_2">
    <g id="ytick_1">
     <g id="line2d_19">
      <path d="M 41.730582 521.153031 
L 935.517672 521.153031 
" clip-path="url(#p2f906ae937)" style="fill: none; stroke: #ffffff; stroke-linecap: round"/>
     </g>
     <g id="line2d_20"/>
     <g id="text_11">
      <!-- $\mathdefault{0.0}$ -->
      <g style="fill: #262626" transform="translate(17.28 525.995969) scale(0.14 -0.14)">
       <use xlink:href="#CMR17-30" transform="scale(0.996264)"/>
       <use xlink:href="#CMMI12-3a" transform="translate(45.690477 0) scale(0.996264)"/>
       <use xlink:href="#CMR17-30" transform="translate(72.787654 0) scale(0.996264)"/>
      </g>
     </g>
    </g>
    <g id="ytick_2">
     <g id="line2d_21">
      <path d="M 41.730582 446.605056 
L 935.517672 446.605056 
" clip-path="url(#p2f906ae937)" style="fill: none; stroke: #ffffff; stroke-linecap: round"/>
     </g>
     <g id="line2d_22"/>
     <g id="text_12">
      <!-- $\mathdefault{0.1}$ -->
      <g style="fill: #262626" transform="translate(17.28 451.447994) scale(0.14 -0.14)">
       <use xlink:href="#CMR17-30" transform="scale(0.996264)"/>
       <use xlink:href="#CMMI12-3a" transform="translate(45.690477 0) scale(0.996264)"/>
       <use xlink:href="#CMR17-31" transform="translate(72.787654 0) scale(0.996264)"/>
      </g>
     </g>
    </g>
    <g id="ytick_3">
     <g id="line2d_23">
      <path d="M 41.730582 372.057081 
L 935.517672 372.057081 
" clip-path="url(#p2f906ae937)" style="fill: none; stroke: #ffffff; stroke-linecap: round"/>
     </g>
     <g id="line2d_24"/>
     <g id="text_13">
      <!-- $\mathdefault{0.2}$ -->
      <g style="fill: #262626" transform="translate(17.28 376.90002) scale(0.14 -0.14)">
       <use xlink:href="#CMR17-30" transform="scale(0.996264)"/>
       <use xlink:href="#CMMI12-3a" transform="translate(45.690477 0) scale(0.996264)"/>
       <use xlink:href="#CMR17-32" transform="translate(72.787654 0) scale(0.996264)"/>
      </g>
     </g>
    </g>
    <g id="ytick_4">
     <g id="line2d_25">
      <path d="M 41.730582 297.509107 
L 935.517672 297.509107 
" clip-path="url(#p2f906ae937)" style="fill: none; stroke: #ffffff; stroke-linecap: round"/>
     </g>
     <g id="line2d_26"/>
     <g id="text_14">
      <!-- $\mathdefault{0.3}$ -->
      <g style="fill: #262626" transform="translate(17.28 302.352045) scale(0.14 -0.14)">
       <defs>
        <path id="CMR17-33" d="M 1414 2157 
C 1984 2157 2234 1662 2234 1090 
C 2234 320 1824 25 1453 25 
C 1114 25 563 194 390 693 
C 422 680 454 680 486 680 
C 640 680 755 782 755 948 
C 755 1133 614 1216 486 1216 
C 378 1216 211 1165 211 926 
C 211 335 787 -128 1466 -128 
C 2176 -128 2720 430 2720 1085 
C 2720 1707 2208 2157 1600 2227 
C 2086 2328 2554 2756 2554 3329 
C 2554 3820 2048 4179 1472 4179 
C 890 4179 378 3829 378 3329 
C 378 3110 544 3072 627 3072 
C 762 3072 877 3155 877 3321 
C 877 3486 762 3569 627 3569 
C 602 3569 570 3569 544 3557 
C 730 3959 1235 4032 1459 4032 
C 1683 4032 2106 3925 2106 3320 
C 2106 3143 2080 2828 1862 2550 
C 1670 2304 1453 2304 1242 2284 
C 1210 2284 1062 2269 1037 2269 
C 992 2263 966 2257 966 2208 
C 966 2163 973 2157 1101 2157 
L 1414 2157 
z
" transform="scale(0.015625)"/>
       </defs>
       <use xlink:href="#CMR17-30" transform="scale(0.996264)"/>
       <use xlink:href="#CMMI12-3a" transform="translate(45.690477 0) scale(0.996264)"/>
       <use xlink:href="#CMR17-33" transform="translate(72.787654 0) scale(0.996264)"/>
      </g>
     </g>
    </g>
    <g id="ytick_5">
     <g id="line2d_27">
      <path d="M 41.730582 222.961132 
L 935.517672 222.961132 
" clip-path="url(#p2f906ae937)" style="fill: none; stroke: #ffffff; stroke-linecap: round"/>
     </g>
     <g id="line2d_28"/>
     <g id="text_15">
      <!-- $\mathdefault{0.4}$ -->
      <g style="fill: #262626" transform="translate(17.28 227.80407) scale(0.14 -0.14)">
       <defs>
        <path id="CMR17-34" d="M 2150 4122 
C 2150 4256 2144 4256 2029 4256 
L 128 1254 
L 128 1088 
L 1779 1088 
L 1779 457 
C 1779 224 1766 160 1318 160 
L 1197 160 
L 1197 0 
C 1402 0 1747 0 1965 0 
C 2182 0 2528 0 2733 0 
L 2733 160 
L 2611 160 
C 2163 160 2150 224 2150 457 
L 2150 1088 
L 2803 1088 
L 2803 1254 
L 2150 1254 
L 2150 4122 
z
M 1798 3703 
L 1798 1254 
L 256 1254 
L 1798 3703 
z
" transform="scale(0.015625)"/>
       </defs>
       <use xlink:href="#CMR17-30" transform="scale(0.996264)"/>
       <use xlink:href="#CMMI12-3a" transform="translate(45.690477 0) scale(0.996264)"/>
       <use xlink:href="#CMR17-34" transform="translate(72.787654 0) scale(0.996264)"/>
      </g>
     </g>
    </g>
    <g id="ytick_6">
     <g id="line2d_29">
      <path d="M 41.730582 148.413158 
L 935.517672 148.413158 
" clip-path="url(#p2f906ae937)" style="fill: none; stroke: #ffffff; stroke-linecap: round"/>
     </g>
     <g id="line2d_30"/>
     <g id="text_16">
      <!-- $\mathdefault{0.5}$ -->
      <g style="fill: #262626" transform="translate(17.28 153.256096) scale(0.14 -0.14)">
       <use xlink:href="#CMR17-30" transform="scale(0.996264)"/>
       <use xlink:href="#CMMI12-3a" transform="translate(45.690477 0) scale(0.996264)"/>
       <use xlink:href="#CMR17-35" transform="translate(72.787654 0) scale(0.996264)"/>
      </g>
     </g>
    </g>
    <g id="ytick_7">
     <g id="line2d_31">
      <path d="M 41.730582 73.865183 
L 935.517672 73.865183 
" clip-path="url(#p2f906ae937)" style="fill: none; stroke: #ffffff; stroke-linecap: round"/>
     </g>
     <g id="line2d_32"/>
     <g id="text_17">
      <!-- $\mathdefault{0.6}$ -->
      <g style="fill: #262626" transform="translate(17.28 78.708121) scale(0.14 -0.14)">
       <defs>
        <path id="CMR17-36" d="M 678 2176 
C 678 3690 1395 4032 1811 4032 
C 1946 4032 2272 4009 2400 3776 
C 2298 3776 2106 3776 2106 3553 
C 2106 3381 2246 3323 2336 3323 
C 2394 3323 2566 3348 2566 3560 
C 2566 3954 2246 4179 1805 4179 
C 1043 4179 243 3390 243 1984 
C 243 253 966 -128 1478 -128 
C 2099 -128 2688 427 2688 1283 
C 2688 2081 2170 2662 1517 2662 
C 1126 2662 838 2407 678 1960 
L 678 2176 
z
M 1478 25 
C 691 25 691 1200 691 1436 
C 691 1896 909 2560 1504 2560 
C 1613 2560 1926 2560 2138 2120 
C 2253 1870 2253 1609 2253 1289 
C 2253 944 2253 690 2118 434 
C 1978 171 1773 25 1478 25 
z
" transform="scale(0.015625)"/>
       </defs>
       <use xlink:href="#CMR17-30" transform="scale(0.996264)"/>
       <use xlink:href="#CMMI12-3a" transform="translate(45.690477 0) scale(0.996264)"/>
       <use xlink:href="#CMR17-36" transform="translate(72.787654 0) scale(0.996264)"/>
      </g>
     </g>
    </g>
   </g>
   <g id="line2d_33">
    <path d="M 41.730582 73.865183 
L 50.24284 73.865183 
L 58.755098 73.865183 
L 67.267356 73.865183 
L 75.779614 73.865183 
L 84.291872 73.865183 
L 92.80413 73.865183 
L 101.316388 73.865183 
L 109.828646 73.865183 
L 118.340904 73.865183 
L 126.853162 73.865183 
L 135.36542 73.865183 
L 143.877678 73.865183 
L 152.389936 73.865183 
L 160.902194 73.865183 
L 169.414452 73.865183 
L 177.92671 73.865183 
L 186.438968 73.865183 
L 194.951226 73.865183 
L 203.463484 73.865183 
L 211.975742 73.865183 
L 220.488 73.865183 
L 229.000258 73.865183 
L 237.512516 73.865183 
L 246.024774 73.865183 
L 254.537032 73.865183 
L 263.04929 73.865183 
L 271.561548 73.865183 
L 280.073806 73.865183 
L 288.586064 73.865183 
L 297.098322 73.865183 
L 305.61058 73.865183 
L 314.122838 73.865183 
L 322.635096 73.865183 
L 331.147354 73.865183 
L 339.659612 73.865183 
L 348.17187 73.865183 
L 356.684128 73.865183 
L 365.196386 73.865183 
L 373.708644 73.865183 
L 382.220902 73.865183 
L 390.73316 73.865183 
L 399.245418 73.865183 
L 407.757676 73.865183 
L 416.269934 73.865183 
L 424.782192 73.865183 
L 433.29445 73.865183 
L 441.806708 73.865183 
L 450.318966 73.865183 
L 458.831224 73.865183 
L 467.343482 73.865183 
L 475.85574 73.865183 
L 484.367998 73.865183 
L 492.880256 73.865183 
L 501.392514 73.865183 
L 509.904772 73.865183 
L 518.41703 73.865183 
L 526.929288 73.865183 
L 535.441546 73.865183 
L 543.953804 73.865183 
L 552.466062 73.865183 
L 560.97832 73.865183 
L 569.490578 73.865183 
L 578.002836 73.865183 
L 586.515094 73.865183 
L 595.027352 73.865183 
L 603.53961 73.865183 
L 612.051868 73.865183 
L 620.564126 73.865183 
L 629.076384 73.865183 
L 637.588642 73.865183 
L 646.1009 73.865183 
L 654.613158 73.865183 
L 663.125416 73.865183 
L 671.637674 73.865183 
L 680.149932 73.865183 
L 688.66219 73.865183 
L 697.174448 73.865183 
L 705.686706 73.865183 
L 714.198964 73.865183 
L 722.711222 73.865183 
L 731.22348 73.865183 
L 739.735738 73.865183 
L 748.247996 73.865183 
L 756.760254 73.865183 
L 765.272512 73.865183 
L 773.78477 73.865183 
L 782.297028 73.865183 
L 790.809286 73.865183 
L 799.321544 73.865183 
L 807.833802 73.865183 
L 816.34606 73.865183 
L 824.858318 73.865183 
L 833.370576 73.865183 
L 841.882834 73.865183 
L 850.395092 73.865183 
L 858.90735 73.865183 
L 867.419608 73.865183 
L 875.931866 73.865183 
L 884.444124 73.865183 
L 892.956382 73.865183 
" clip-path="url(#p2f906ae937)" style="fill: none; stroke: #393b79; stroke-width: 2; stroke-linecap: round"/>
   </g>
   <g id="line2d_34">
    <path d="M 41.730582 120.020067 
L 50.24284 120.020067 
L 58.755098 120.020067 
L 67.267356 120.020067 
L 75.779614 120.020067 
L 84.291872 120.020067 
L 92.80413 120.020067 
L 101.316388 120.020067 
L 109.828646 120.020067 
L 118.340904 120.020067 
L 126.853162 120.020067 
L 135.36542 120.020067 
L 143.877678 120.020067 
L 152.389936 120.020067 
L 160.902194 120.020067 
L 169.414452 120.020067 
L 177.92671 120.020067 
L 186.438968 120.020067 
L 194.951226 120.020067 
L 203.463484 120.020067 
L 211.975742 120.020067 
L 220.488 120.020067 
L 229.000258 120.020067 
L 237.512516 120.020067 
L 246.024774 120.020067 
L 254.537032 120.020067 
L 263.04929 120.020067 
L 271.561548 120.020067 
L 280.073806 120.020067 
L 288.586064 120.020067 
L 297.098322 120.020067 
L 305.61058 120.020067 
L 314.122838 120.020067 
L 322.635096 120.020067 
L 331.147354 120.020067 
L 339.659612 120.020067 
L 348.17187 120.020067 
L 356.684128 120.020067 
L 365.196386 120.020067 
L 373.708644 120.020067 
L 382.220902 120.020067 
L 390.73316 120.020067 
L 399.245418 120.020067 
L 407.757676 120.020067 
L 416.269934 120.020067 
L 424.782192 120.020067 
L 433.29445 120.020067 
L 441.806708 120.020067 
L 450.318966 120.020067 
L 458.831224 120.020067 
L 467.343482 120.020067 
L 475.85574 120.020067 
L 484.367998 120.020067 
L 492.880256 120.020067 
L 501.392514 120.020067 
L 509.904772 120.020067 
L 518.41703 120.020067 
L 526.929288 120.020067 
L 535.441546 120.020067 
L 543.953804 120.020067 
L 552.466062 120.020067 
L 560.97832 120.020067 
L 569.490578 120.020067 
L 578.002836 120.020067 
L 586.515094 120.020067 
L 595.027352 120.020067 
L 603.53961 120.020067 
L 612.051868 120.020067 
L 620.564126 120.020067 
L 629.076384 120.020067 
L 637.588642 120.020067 
L 646.1009 120.020067 
L 654.613158 120.020067 
L 663.125416 120.020067 
L 671.637674 120.020067 
L 680.149932 120.020067 
L 688.66219 120.020067 
L 697.174448 120.020067 
L 705.686706 120.020067 
L 714.198964 120.020067 
L 722.711222 120.020067 
L 731.22348 120.020067 
L 739.735738 120.020067 
L 748.247996 120.020067 
L 756.760254 120.020067 
L 765.272512 120.020067 
L 773.78477 120.020067 
L 782.297028 120.020067 
L 790.809286 120.020067 
L 799.321544 120.020067 
L 807.833802 120.020067 
L 816.34606 120.020067 
L 824.858318 120.020067 
L 833.370576 120.020067 
L 841.882834 120.020067 
L 850.395092 120.020067 
L 858.90735 120.020067 
L 867.419608 120.020067 
L 875.931866 120.020067 
L 884.444124 120.020067 
L 892.956382 120.020067 
" clip-path="url(#p2f906ae937)" style="fill: none; stroke: #6b6ecf; stroke-width: 2; stroke-linecap: round"/>
   </g>
   <g id="line2d_35">
    <path d="M 41.730582 251.488922 
L 50.24284 251.488922 
L 58.755098 251.488922 
L 67.267356 251.488922 
L 75.779614 251.488922 
L 84.291872 251.488922 
L 92.80413 251.488922 
L 101.316388 251.488922 
L 109.828646 251.488922 
L 118.340904 251.488922 
L 126.853162 251.488922 
L 135.36542 251.488922 
L 143.877678 251.488922 
L 152.389936 251.488922 
L 160.902194 251.488922 
L 169.414452 251.488922 
L 177.92671 251.488922 
L 186.438968 251.488922 
L 194.951226 251.488922 
L 203.463484 251.488922 
L 211.975742 251.488922 
L 220.488 251.488922 
L 229.000258 251.488922 
L 237.512516 251.488922 
L 246.024774 251.488922 
L 254.537032 251.488922 
L 263.04929 251.488922 
L 271.561548 251.488922 
L 280.073806 251.488922 
L 288.586064 251.488922 
L 297.098322 251.488922 
L 305.61058 251.488922 
L 314.122838 251.488922 
L 322.635096 251.488922 
L 331.147354 251.488922 
L 339.659612 251.488922 
L 348.17187 251.488922 
L 356.684128 251.488922 
L 365.196386 251.488922 
L 373.708644 251.488922 
L 382.220902 251.488922 
L 390.73316 251.488922 
L 399.245418 251.488922 
L 407.757676 251.488922 
L 416.269934 251.488922 
L 424.782192 251.488922 
L 433.29445 251.488922 
L 441.806708 251.488922 
L 450.318966 251.488922 
L 458.831224 251.488922 
L 467.343482 251.488922 
L 475.85574 251.488922 
L 484.367998 251.488922 
L 492.880256 251.488922 
L 501.392514 251.488922 
L 509.904772 251.488922 
L 518.41703 251.488922 
L 526.929288 251.488922 
L 535.441546 251.488922 
L 543.953804 251.488922 
L 552.466062 251.488922 
L 560.97832 251.488922 
L 569.490578 251.488922 
L 578.002836 251.488922 
L 586.515094 251.488922 
L 595.027352 251.488922 
L 603.53961 251.488922 
L 612.051868 251.488922 
L 620.564126 251.488922 
L 629.076384 251.488922 
L 637.588642 251.488922 
L 646.1009 251.488922 
L 654.613158 251.488922 
L 663.125416 251.488922 
L 671.637674 251.488922 
L 680.149932 251.488922 
L 688.66219 251.488922 
L 697.174448 251.488922 
L 705.686706 251.488922 
L 714.198964 251.488922 
L 722.711222 251.488922 
L 731.22348 251.488922 
L 739.735738 251.488922 
L 748.247996 251.488922 
L 756.760254 251.488922 
L 765.272512 251.488922 
L 773.78477 251.488922 
L 782.297028 251.488922 
L 790.809286 251.488922 
L 799.321544 251.488922 
L 807.833802 251.488922 
L 816.34606 251.488922 
L 824.858318 251.488922 
L 833.370576 251.488922 
L 841.882834 251.488922 
L 850.395092 251.488922 
L 858.90735 251.488922 
L 867.419608 251.488922 
L 875.931866 251.488922 
L 884.444124 251.488922 
L 892.956382 251.488922 
" clip-path="url(#p2f906ae937)" style="fill: none; stroke: #637939; stroke-width: 2; stroke-linecap: round"/>
   </g>
   <g id="line2d_36">
    <path d="M 41.730582 343.377956 
L 50.24284 343.377956 
L 58.755098 343.377956 
L 67.267356 343.377956 
L 75.779614 343.377956 
L 84.291872 343.377956 
L 92.80413 343.377956 
L 101.316388 343.377956 
L 109.828646 343.377956 
L 118.340904 343.377956 
L 126.853162 343.377956 
L 135.36542 343.377956 
L 143.877678 343.377956 
L 152.389936 343.377956 
L 160.902194 343.377956 
L 169.414452 343.377956 
L 177.92671 343.377956 
L 186.438968 343.377956 
L 194.951226 343.377956 
L 203.463484 343.377956 
L 211.975742 343.377956 
L 220.488 343.377956 
L 229.000258 343.377956 
L 237.512516 343.377956 
L 246.024774 343.377956 
L 254.537032 343.377956 
L 263.04929 343.377956 
L 271.561548 343.377956 
L 280.073806 343.377956 
L 288.586064 343.377956 
L 297.098322 343.377956 
L 305.61058 343.377956 
L 314.122838 343.377956 
L 322.635096 343.377956 
L 331.147354 343.377956 
L 339.659612 343.377956 
L 348.17187 343.377956 
L 356.684128 343.377956 
L 365.196386 343.377956 
L 373.708644 343.377956 
L 382.220902 343.377956 
L 390.73316 343.377956 
L 399.245418 343.377956 
L 407.757676 343.377956 
L 416.269934 343.377956 
L 424.782192 343.377956 
L 433.29445 343.377956 
L 441.806708 343.377956 
L 450.318966 343.377956 
L 458.831224 343.377956 
L 467.343482 343.377956 
L 475.85574 343.377956 
L 484.367998 343.377956 
L 492.880256 343.377956 
L 501.392514 343.377956 
L 509.904772 343.377956 
L 518.41703 343.377956 
L 526.929288 343.377956 
L 535.441546 343.377956 
L 543.953804 343.377956 
L 552.466062 343.377956 
L 560.97832 343.377956 
L 569.490578 343.377956 
L 578.002836 343.377956 
L 586.515094 343.377956 
L 595.027352 343.377956 
L 603.53961 343.377956 
L 612.051868 343.377956 
L 620.564126 343.377956 
L 629.076384 343.377956 
L 637.588642 343.377956 
L 646.1009 343.377956 
L 654.613158 343.377956 
L 663.125416 343.377956 
L 671.637674 343.377956 
L 680.149932 343.377956 
L 688.66219 343.377956 
L 697.174448 343.377956 
L 705.686706 343.377956 
L 714.198964 343.377956 
L 722.711222 343.377956 
L 731.22348 343.377956 
L 739.735738 343.377956 
L 748.247996 343.377956 
L 756.760254 343.377956 
L 765.272512 343.377956 
L 773.78477 343.377956 
L 782.297028 343.377956 
L 790.809286 343.377956 
L 799.321544 343.377956 
L 807.833802 343.377956 
L 816.34606 343.377956 
L 824.858318 343.377956 
L 833.370576 343.377956 
L 841.882834 343.377956 
L 850.395092 343.377956 
L 858.90735 343.377956 
L 867.419608 343.377956 
L 875.931866 343.377956 
L 884.444124 343.377956 
L 892.956382 343.377956 
" clip-path="url(#p2f906ae937)" style="fill: none; stroke: #b5cf6b; stroke-width: 2; stroke-linecap: round"/>
   </g>
   <g id="line2d_37">
    <path d="M 41.730582 453.214625 
L 50.24284 453.214625 
L 58.755098 453.214625 
L 67.267356 453.214625 
L 75.779614 453.214625 
L 84.291872 453.214625 
L 92.80413 453.214625 
L 101.316388 453.214625 
L 109.828646 453.214625 
L 118.340904 453.214625 
L 126.853162 453.214625 
L 135.36542 453.214625 
L 143.877678 453.214625 
L 152.389936 453.214625 
L 160.902194 453.214625 
L 169.414452 453.214625 
L 177.92671 453.214625 
L 186.438968 453.214625 
L 194.951226 453.214625 
L 203.463484 453.214625 
L 211.975742 453.214625 
L 220.488 453.214625 
L 229.000258 453.214625 
L 237.512516 453.214625 
L 246.024774 453.214625 
L 254.537032 453.214625 
L 263.04929 453.214625 
L 271.561548 453.214625 
L 280.073806 453.214625 
L 288.586064 453.214625 
L 297.098322 453.214625 
L 305.61058 453.214625 
L 314.122838 453.214625 
L 322.635096 453.214625 
L 331.147354 453.214625 
L 339.659612 453.214625 
L 348.17187 453.214625 
L 356.684128 453.214625 
L 365.196386 453.214625 
L 373.708644 453.214625 
L 382.220902 453.214625 
L 390.73316 453.214625 
L 399.245418 453.214625 
L 407.757676 453.214625 
L 416.269934 453.214625 
L 424.782192 453.214625 
L 433.29445 453.214625 
L 441.806708 453.214625 
L 450.318966 453.214625 
L 458.831224 453.214625 
L 467.343482 453.214625 
L 475.85574 453.214625 
L 484.367998 453.214625 
L 492.880256 453.214625 
L 501.392514 453.214625 
L 509.904772 453.214625 
L 518.41703 453.214625 
L 526.929288 453.214625 
L 535.441546 453.214625 
L 543.953804 453.214625 
L 552.466062 453.214625 
L 560.97832 453.214625 
L 569.490578 453.214625 
L 578.002836 453.214625 
L 586.515094 453.214625 
L 595.027352 453.214625 
L 603.53961 453.214625 
L 612.051868 453.214625 
L 620.564126 453.214625 
L 629.076384 453.214625 
L 637.588642 453.214625 
L 646.1009 453.214625 
L 654.613158 453.214625 
L 663.125416 453.214625 
L 671.637674 453.214625 
L 680.149932 453.214625 
L 688.66219 453.214625 
L 697.174448 453.214625 
L 705.686706 453.214625 
L 714.198964 453.214625 
L 722.711222 453.214625 
L 731.22348 453.214625 
L 739.735738 453.214625 
L 748.247996 453.214625 
L 756.760254 453.214625 
L 765.272512 453.214625 
L 773.78477 453.214625 
L 782.297028 453.214625 
L 790.809286 453.214625 
L 799.321544 453.214625 
L 807.833802 453.214625 
L 816.34606 453.214625 
L 824.858318 453.214625 
L 833.370576 453.214625 
L 841.882834 453.214625 
L 850.395092 453.214625 
L 858.90735 453.214625 
L 867.419608 453.214625 
L 875.931866 453.214625 
L 884.444124 453.214625 
L 892.956382 453.214625 
" clip-path="url(#p2f906ae937)" style="fill: none; stroke: #8c6d31; stroke-width: 2; stroke-linecap: round"/>
   </g>
   <g id="line2d_38">
    <path d="M 41.730582 501.00659 
L 50.24284 501.00659 
L 58.755098 501.00659 
L 67.267356 501.00659 
L 75.779614 501.00659 
L 84.291872 501.00659 
L 92.80413 501.00659 
L 101.316388 501.00659 
L 109.828646 501.00659 
L 118.340904 501.00659 
L 126.853162 501.00659 
L 135.36542 501.00659 
L 143.877678 501.00659 
L 152.389936 501.00659 
L 160.902194 501.00659 
L 169.414452 501.00659 
L 177.92671 501.00659 
L 186.438968 501.00659 
L 194.951226 501.00659 
L 203.463484 501.00659 
L 211.975742 501.00659 
L 220.488 501.00659 
L 229.000258 501.00659 
L 237.512516 501.00659 
L 246.024774 501.00659 
L 254.537032 501.00659 
L 263.04929 501.00659 
L 271.561548 501.00659 
L 280.073806 501.00659 
L 288.586064 501.00659 
L 297.098322 501.00659 
L 305.61058 501.00659 
L 314.122838 501.00659 
L 322.635096 501.00659 
L 331.147354 501.00659 
L 339.659612 501.00659 
L 348.17187 501.00659 
L 356.684128 501.00659 
L 365.196386 501.00659 
L 373.708644 501.00659 
L 382.220902 501.00659 
L 390.73316 501.00659 
L 399.245418 501.00659 
L 407.757676 501.00659 
L 416.269934 501.00659 
L 424.782192 501.00659 
L 433.29445 501.00659 
L 441.806708 501.00659 
L 450.318966 501.00659 
L 458.831224 501.00659 
L 467.343482 501.00659 
L 475.85574 501.00659 
L 484.367998 501.00659 
L 492.880256 501.00659 
L 501.392514 501.00659 
L 509.904772 501.00659 
L 518.41703 501.00659 
L 526.929288 501.00659 
L 535.441546 501.00659 
L 543.953804 501.00659 
L 552.466062 501.00659 
L 560.97832 501.00659 
L 569.490578 501.00659 
L 578.002836 501.00659 
L 586.515094 501.00659 
L 595.027352 501.00659 
L 603.53961 501.00659 
L 612.051868 501.00659 
L 620.564126 501.00659 
L 629.076384 501.00659 
L 637.588642 501.00659 
L 646.1009 501.00659 
L 654.613158 501.00659 
L 663.125416 501.00659 
L 671.637674 501.00659 
L 680.149932 501.00659 
L 688.66219 501.00659 
L 697.174448 501.00659 
L 705.686706 501.00659 
L 714.198964 501.00659 
L 722.711222 501.00659 
L 731.22348 501.00659 
L 739.735738 501.00659 
L 748.247996 501.00659 
L 756.760254 501.00659 
L 765.272512 501.00659 
L 773.78477 501.00659 
L 782.297028 501.00659 
L 790.809286 501.00659 
L 799.321544 501.00659 
L 807.833802 501.00659 
L 816.34606 501.00659 
L 824.858318 501.00659 
L 833.370576 501.00659 
L 841.882834 501.00659 
L 850.395092 501.00659 
L 858.90735 501.00659 
L 867.419608 501.00659 
L 875.931866 501.00659 
L 884.444124 501.00659 
L 892.956382 501.00659 
" clip-path="url(#p2f906ae937)" style="fill: none; stroke: #e7cb94; stroke-width: 2; stroke-linecap: round"/>
   </g>
   <g id="line2d_39">
    <path d="M 41.730582 514.339984 
L 50.24284 514.339984 
L 58.755098 514.339984 
L 67.267356 514.339984 
L 75.779614 514.339984 
L 84.291872 514.339984 
L 92.80413 514.339984 
L 101.316388 514.339984 
L 109.828646 514.339984 
L 118.340904 514.339984 
L 126.853162 514.339984 
L 135.36542 514.339984 
L 143.877678 514.339984 
L 152.389936 514.339984 
L 160.902194 514.339984 
L 169.414452 514.339984 
L 177.92671 514.339984 
L 186.438968 514.339984 
L 194.951226 514.339984 
L 203.463484 514.339984 
L 211.975742 514.339984 
L 220.488 514.339984 
L 229.000258 514.339984 
L 237.512516 514.339984 
L 246.024774 514.339984 
L 254.537032 514.339984 
L 263.04929 514.339984 
L 271.561548 514.339984 
L 280.073806 514.339984 
L 288.586064 514.339984 
L 297.098322 514.339984 
L 305.61058 514.339984 
L 314.122838 514.339984 
L 322.635096 514.339984 
L 331.147354 514.339984 
L 339.659612 514.339984 
L 348.17187 514.339984 
L 356.684128 514.339984 
L 365.196386 514.339984 
L 373.708644 514.339984 
L 382.220902 514.339984 
L 390.73316 514.339984 
L 399.245418 514.339984 
L 407.757676 514.339984 
L 416.269934 514.339984 
L 424.782192 514.339984 
L 433.29445 514.339984 
L 441.806708 514.339984 
L 450.318966 514.339984 
L 458.831224 514.339984 
L 467.343482 514.339984 
L 475.85574 514.339984 
L 484.367998 514.339984 
L 492.880256 514.339984 
L 501.392514 514.339984 
L 509.904772 514.339984 
L 518.41703 514.339984 
L 526.929288 514.339984 
L 535.441546 514.339984 
L 543.953804 514.339984 
L 552.466062 514.339984 
L 560.97832 514.339984 
L 569.490578 514.339984 
L 578.002836 514.339984 
L 586.515094 514.339984 
L 595.027352 514.339984 
L 603.53961 514.339984 
L 612.051868 514.339984 
L 620.564126 514.339984 
L 629.076384 514.339984 
L 637.588642 514.339984 
L 646.1009 514.339984 
L 654.613158 514.339984 
L 663.125416 514.339984 
L 671.637674 514.339984 
L 680.149932 514.339984 
L 688.66219 514.339984 
L 697.174448 514.339984 
L 705.686706 514.339984 
L 714.198964 514.339984 
L 722.711222 514.339984 
L 731.22348 514.339984 
L 739.735738 514.339984 
L 748.247996 514.339984 
L 756.760254 514.339984 
L 765.272512 514.339984 
L 773.78477 514.339984 
L 782.297028 514.339984 
L 790.809286 514.339984 
L 799.321544 514.339984 
L 807.833802 514.339984 
L 816.34606 514.339984 
L 824.858318 514.339984 
L 833.370576 514.339984 
L 841.882834 514.339984 
L 850.395092 514.339984 
L 858.90735 514.339984 
L 867.419608 514.339984 
L 875.931866 514.339984 
L 884.444124 514.339984 
L 892.956382 514.339984 
" clip-path="url(#p2f906ae937)" style="fill: none; stroke: #ad494a; stroke-width: 2; stroke-linecap: round"/>
   </g>
   <g id="line2d_40">
    <path d="M 41.730582 518.166528 
L 50.24284 518.166528 
L 58.755098 518.166528 
L 67.267356 518.166528 
L 75.779614 518.166528 
L 84.291872 518.166528 
L 92.80413 518.166528 
L 101.316388 518.166528 
L 109.828646 518.166528 
L 118.340904 518.166528 
L 126.853162 518.166528 
L 135.36542 518.166528 
L 143.877678 518.166528 
L 152.389936 518.166528 
L 160.902194 518.166528 
L 169.414452 518.166528 
L 177.92671 518.166528 
L 186.438968 518.166528 
L 194.951226 518.166528 
L 203.463484 518.166528 
L 211.975742 518.166528 
L 220.488 518.166528 
L 229.000258 518.166528 
L 237.512516 518.166528 
L 246.024774 518.166528 
L 254.537032 518.166528 
L 263.04929 518.166528 
L 271.561548 518.166528 
L 280.073806 518.166528 
L 288.586064 518.166528 
L 297.098322 518.166528 
L 305.61058 518.166528 
L 314.122838 518.166528 
L 322.635096 518.166528 
L 331.147354 518.166528 
L 339.659612 518.166528 
L 348.17187 518.166528 
L 356.684128 518.166528 
L 365.196386 518.166528 
L 373.708644 518.166528 
L 382.220902 518.166528 
L 390.73316 518.166528 
L 399.245418 518.166528 
L 407.757676 518.166528 
L 416.269934 518.166528 
L 424.782192 518.166528 
L 433.29445 518.166528 
L 441.806708 518.166528 
L 450.318966 518.166528 
L 458.831224 518.166528 
L 467.343482 518.166528 
L 475.85574 518.166528 
L 484.367998 518.166528 
L 492.880256 518.166528 
L 501.392514 518.166528 
L 509.904772 518.166528 
L 518.41703 518.166528 
L 526.929288 518.166528 
L 535.441546 518.166528 
L 543.953804 518.166528 
L 552.466062 518.166528 
L 560.97832 518.166528 
L 569.490578 518.166528 
L 578.002836 518.166528 
L 586.515094 518.166528 
L 595.027352 518.166528 
L 603.53961 518.166528 
L 612.051868 518.166528 
L 620.564126 518.166528 
L 629.076384 518.166528 
L 637.588642 518.166528 
L 646.1009 518.166528 
L 654.613158 518.166528 
L 663.125416 518.166528 
L 671.637674 518.166528 
L 680.149932 518.166528 
L 688.66219 518.166528 
L 697.174448 518.166528 
L 705.686706 518.166528 
L 714.198964 518.166528 
L 722.711222 518.166528 
L 731.22348 518.166528 
L 739.735738 518.166528 
L 748.247996 518.166528 
L 756.760254 518.166528 
L 765.272512 518.166528 
L 773.78477 518.166528 
L 782.297028 518.166528 
L 790.809286 518.166528 
L 799.321544 518.166528 
L 807.833802 518.166528 
L 816.34606 518.166528 
L 824.858318 518.166528 
L 833.370576 518.166528 
L 841.882834 518.166528 
L 850.395092 518.166528 
L 858.90735 518.166528 
L 867.419608 518.166528 
L 875.931866 518.166528 
L 884.444124 518.166528 
L 892.956382 518.166528 
" clip-path="url(#p2f906ae937)" style="fill: none; stroke: #e7969c; stroke-width: 2; stroke-linecap: round"/>
   </g>
   <g id="line2d_41">
    <path d="M 41.730582 519.354917 
L 50.24284 519.354917 
L 58.755098 519.354917 
L 67.267356 519.354917 
L 75.779614 519.354917 
L 84.291872 519.354917 
L 92.80413 519.354917 
L 101.316388 519.354917 
L 109.828646 519.354917 
L 118.340904 519.354917 
L 126.853162 519.354917 
L 135.36542 519.354917 
L 143.877678 519.354917 
L 152.389936 519.354917 
L 160.902194 519.354917 
L 169.414452 519.354917 
L 177.92671 519.354917 
L 186.438968 519.354917 
L 194.951226 519.354917 
L 203.463484 519.354917 
L 211.975742 519.354917 
L 220.488 519.354917 
L 229.000258 519.354917 
L 237.512516 519.354917 
L 246.024774 519.354917 
L 254.537032 519.354917 
L 263.04929 519.354917 
L 271.561548 519.354917 
L 280.073806 519.354917 
L 288.586064 519.354917 
L 297.098322 519.354917 
L 305.61058 519.354917 
L 314.122838 519.354917 
L 322.635096 519.354917 
L 331.147354 519.354917 
L 339.659612 519.354917 
L 348.17187 519.354917 
L 356.684128 519.354917 
L 365.196386 519.354917 
L 373.708644 519.354917 
L 382.220902 519.354917 
L 390.73316 519.354917 
L 399.245418 519.354917 
L 407.757676 519.354917 
L 416.269934 519.354917 
L 424.782192 519.354917 
L 433.29445 519.354917 
L 441.806708 519.354917 
L 450.318966 519.354917 
L 458.831224 519.354917 
L 467.343482 519.354917 
L 475.85574 519.354917 
L 484.367998 519.354917 
L 492.880256 519.354917 
L 501.392514 519.354917 
L 509.904772 519.354917 
L 518.41703 519.354917 
L 526.929288 519.354917 
L 535.441546 519.354917 
L 543.953804 519.354917 
L 552.466062 519.354917 
L 560.97832 519.354917 
L 569.490578 519.354917 
L 578.002836 519.354917 
L 586.515094 519.354917 
L 595.027352 519.354917 
L 603.53961 519.354917 
L 612.051868 519.354917 
L 620.564126 519.354917 
L 629.076384 519.354917 
L 637.588642 519.354917 
L 646.1009 519.354917 
L 654.613158 519.354917 
L 663.125416 519.354917 
L 671.637674 519.354917 
L 680.149932 519.354917 
L 688.66219 519.354917 
L 697.174448 519.354917 
L 705.686706 519.354917 
L 714.198964 519.354917 
L 722.711222 519.354917 
L 731.22348 519.354917 
L 739.735738 519.354917 
L 748.247996 519.354917 
L 756.760254 519.354917 
L 765.272512 519.354917 
L 773.78477 519.354917 
L 782.297028 519.354917 
L 790.809286 519.354917 
L 799.321544 519.354917 
L 807.833802 519.354917 
L 816.34606 519.354917 
L 824.858318 519.354917 
L 833.370576 519.354917 
L 841.882834 519.354917 
L 850.395092 519.354917 
L 858.90735 519.354917 
L 867.419608 519.354917 
L 875.931866 519.354917 
L 884.444124 519.354917 
L 892.956382 519.354917 
" clip-path="url(#p2f906ae937)" style="fill: none; stroke: #a55194; stroke-width: 2; stroke-linecap: round"/>
   </g>
   <g id="line2d_42">
    <path d="M 41.730582 519.886424 
L 50.24284 519.886424 
L 58.755098 519.886424 
L 67.267356 519.886424 
L 75.779614 519.886424 
L 84.291872 519.886424 
L 92.80413 519.886424 
L 101.316388 519.886424 
L 109.828646 519.886424 
L 118.340904 519.886424 
L 126.853162 519.886424 
L 135.36542 519.886424 
L 143.877678 519.886424 
L 152.389936 519.886424 
L 160.902194 519.886424 
L 169.414452 519.886424 
L 177.92671 519.886424 
L 186.438968 519.886424 
L 194.951226 519.886424 
L 203.463484 519.886424 
L 211.975742 519.886424 
L 220.488 519.886424 
L 229.000258 519.886424 
L 237.512516 519.886424 
L 246.024774 519.886424 
L 254.537032 519.886424 
L 263.04929 519.886424 
L 271.561548 519.886424 
L 280.073806 519.886424 
L 288.586064 519.886424 
L 297.098322 519.886424 
L 305.61058 519.886424 
L 314.122838 519.886424 
L 322.635096 519.886424 
L 331.147354 519.886424 
L 339.659612 519.886424 
L 348.17187 519.886424 
L 356.684128 519.886424 
L 365.196386 519.886424 
L 373.708644 519.886424 
L 382.220902 519.886424 
L 390.73316 519.886424 
L 399.245418 519.886424 
L 407.757676 519.886424 
L 416.269934 519.886424 
L 424.782192 519.886424 
L 433.29445 519.886424 
L 441.806708 519.886424 
L 450.318966 519.886424 
L 458.831224 519.886424 
L 467.343482 519.886424 
L 475.85574 519.886424 
L 484.367998 519.886424 
L 492.880256 519.886424 
L 501.392514 519.886424 
L 509.904772 519.886424 
L 518.41703 519.886424 
L 526.929288 519.886424 
L 535.441546 519.886424 
L 543.953804 519.886424 
L 552.466062 519.886424 
L 560.97832 519.886424 
L 569.490578 519.886424 
L 578.002836 519.886424 
L 586.515094 519.886424 
L 595.027352 519.886424 
L 603.53961 519.886424 
L 612.051868 519.886424 
L 620.564126 519.886424 
L 629.076384 519.886424 
L 637.588642 519.886424 
L 646.1009 519.886424 
L 654.613158 519.886424 
L 663.125416 519.886424 
L 671.637674 519.886424 
L 680.149932 519.886424 
L 688.66219 519.886424 
L 697.174448 519.886424 
L 705.686706 519.886424 
L 714.198964 519.886424 
L 722.711222 519.886424 
L 731.22348 519.886424 
L 739.735738 519.886424 
L 748.247996 519.886424 
L 756.760254 519.886424 
L 765.272512 519.886424 
L 773.78477 519.886424 
L 782.297028 519.886424 
L 790.809286 519.886424 
L 799.321544 519.886424 
L 807.833802 519.886424 
L 816.34606 519.886424 
L 824.858318 519.886424 
L 833.370576 519.886424 
L 841.882834 519.886424 
L 850.395092 519.886424 
L 858.90735 519.886424 
L 867.419608 519.886424 
L 875.931866 519.886424 
L 884.444124 519.886424 
L 892.956382 519.886424 
" clip-path="url(#p2f906ae937)" style="fill: none; stroke: #de9ed6; stroke-width: 2; stroke-linecap: round"/>
   </g>
   <g id="patch_3">
    <path d="M 41.730582 521.153031 
L 41.730582 51.564121 
" style="fill: none"/>
   </g>
   <g id="patch_4">
    <path d="M 935.517672 521.153031 
L 935.517672 51.564121 
" style="fill: none"/>
   </g>
   <g id="patch_5">
    <path d="M 41.730582 521.153031 
L 935.517672 521.153031 
" style="fill: none"/>
   </g>
   <g id="patch_6">
    <path d="M 41.730582 51.564121 
L 935.517672 51.564121 
" style="fill: none"/>
   </g>
   <g id="patch_7">
    <path d="M 467.343482 90.773733 
Q 467.343482 293.147086 467.343482 493.843389 
" style="fill: none; stroke: #000000; stroke-width: 1.5; stroke-linecap: round"/>
    <path d="M 470.543482 487.443389 
L 467.343482 493.843389 
L 464.143482 487.443389 
" style="fill: none; stroke: #000000; stroke-width: 1.5; stroke-linecap: round"/>
   </g>
   <g id="text_18">
    <!-- Time -->
    <g style="fill: #262626" transform="translate(488.624127 494.033967) scale(0.18 -0.18)">
     <defs>
      <path id="CMR17-54" d="M 3981 4326 
L 288 4326 
L 179 2918 
L 294 2918 
C 378 3976 467 4160 1453 4160 
C 1568 4160 1754 4160 1805 4154 
C 1926 4135 1926 4058 1926 3912 
L 1926 459 
C 1926 230 1907 160 1376 160 
L 1197 160 
L 1197 0 
C 1504 0 1824 0 2138 0 
C 2451 0 2771 0 3078 0 
L 3078 160 
L 2899 160 
C 2368 160 2349 230 2349 459 
L 2349 3912 
C 2349 4052 2349 4129 2464 4154 
C 2515 4160 2701 4160 2816 4160 
C 3795 4160 3891 3976 3974 2918 
L 4090 2918 
L 3981 4326 
z
" transform="scale(0.015625)"/>
      <path id="CMR17-69" d="M 992 3909 
C 992 4049 877 4170 730 4170 
C 589 4170 467 4056 467 3909 
C 467 3769 582 3648 730 3648 
C 870 3648 992 3763 992 3909 
z
M 243 2706 
L 243 2541 
C 602 2541 653 2502 653 2197 
L 653 427 
C 653 184 627 153 218 153 
L 218 -13 
C 371 0 646 0 806 0 
C 960 0 1222 0 1370 -13 
L 1370 153 
C 992 153 979 191 979 420 
L 979 2776 
L 243 2706 
z
" transform="scale(0.015625)"/>
      <path id="CMR17-6d" d="M 4326 1933 
C 4326 2252 4269 2790 3507 2790 
C 3072 2790 2771 2496 2656 2151 
L 2650 2151 
C 2573 2676 2195 2790 1837 2790 
C 1331 2790 1069 2400 973 2144 
L 966 2144 
L 966 2790 
L 211 2720 
L 211 2554 
C 589 2554 646 2515 646 2208 
L 646 428 
C 646 184 621 153 211 153 
L 211 -13 
C 365 0 646 0 813 0 
C 979 0 1267 0 1421 -13 
L 1421 153 
C 1011 153 986 178 986 428 
L 986 1658 
C 986 2247 1344 2688 1792 2688 
C 2266 2688 2317 2266 2317 1958 
L 2317 428 
C 2317 184 2291 153 1882 153 
L 1882 -13 
C 2035 0 2317 0 2483 0 
C 2650 0 2938 0 3091 -13 
L 3091 153 
C 2682 153 2656 178 2656 428 
L 2656 1658 
C 2656 2247 3014 2688 3462 2688 
C 3936 2688 3987 2266 3987 1958 
L 3987 428 
C 3987 184 3962 153 3552 153 
L 3552 -13 
C 3706 0 3987 0 4154 0 
C 4320 0 4608 0 4762 -13 
L 4762 153 
C 4352 153 4326 178 4326 428 
L 4326 1933 
z
" transform="scale(0.015625)"/>
      <path id="CMR17-65" d="M 2438 1472 
C 2464 1498 2464 1511 2464 1576 
C 2464 2238 2118 2816 1389 2816 
C 710 2816 173 2169 173 1383 
C 173 551 781 -64 1459 -64 
C 2176 -64 2458 607 2458 740 
C 2458 784 2419 784 2406 784 
C 2362 784 2355 771 2330 696 
C 2189 265 1837 51 1504 51 
C 1229 51 954 203 781 480 
C 582 803 582 1176 582 1472 
L 2438 1472 
z
M 589 1568 
C 634 2505 1126 2714 1382 2714 
C 1818 2714 2112 2297 2118 1568 
L 589 1568 
z
" transform="scale(0.015625)"/>
     </defs>
     <use xlink:href="#CMR17-54" transform="scale(0.996264)"/>
     <use xlink:href="#CMR17-69" transform="translate(66.509881 0) scale(0.996264)"/>
     <use xlink:href="#CMR17-6d" transform="translate(91.380939 0) scale(0.996264)"/>
     <use xlink:href="#CMR17-65" transform="translate(168.300529 0) scale(0.996264)"/>
    </g>
   </g>
   <g id="legend_1">
    <g id="line2d_43">
     <path d="M 948.117672 197.198434 
L 962.117672 197.198434 
L 976.117672 197.198434 
" style="fill: none; stroke: #393b79; stroke-width: 2; stroke-linecap: round"/>
    </g>
    <g id="text_19">
     <!-- t = 0.00 -->
     <g style="fill: #262626" transform="translate(987.317672 202.098434) scale(0.14 -0.14)">
      <defs>
       <path id="CMR17-74" d="M 966 2560 
L 1862 2560 
L 1862 2725 
L 966 2725 
L 966 3904 
L 851 3904 
C 838 3245 614 2668 70 2668 
L 70 2560 
L 627 2560 
L 627 771 
C 627 650 627 -64 1370 -64 
C 1747 -64 1965 306 1965 777 
L 1965 1140 
L 1850 1140 
L 1850 783 
C 1850 344 1677 51 1408 51 
C 1222 51 966 178 966 758 
L 966 2560 
z
" transform="scale(0.015625)"/>
       <path id="CMR17-3d" d="M 4115 2017 
C 4211 2017 4307 2017 4307 2125 
C 4307 2240 4198 2240 4090 2240 
L 512 2240 
C 403 2240 294 2240 294 2125 
C 294 2017 390 2017 486 2017 
L 4115 2017 
z
M 4090 896 
C 4198 896 4307 896 4307 1011 
C 4307 1119 4211 1119 4115 1119 
L 486 1119 
C 390 1119 294 1119 294 1011 
C 294 896 403 896 512 896 
L 4090 896 
z
" transform="scale(0.015625)"/>
       <path id="CMR17-2e" d="M 1062 261 
C 1062 420 934 522 800 522 
C 672 522 538 420 538 261 
C 538 102 666 0 800 0 
C 928 0 1062 102 1062 261 
z
" transform="scale(0.015625)"/>
      </defs>
      <use xlink:href="#CMR17-74" transform="scale(0.996264)"/>
      <use xlink:href="#CMR17-3d" transform="translate(65.356734 0) scale(0.996264)"/>
      <use xlink:href="#CMR17-30" transform="translate(167.147489 0) scale(0.996264)"/>
      <use xlink:href="#CMR17-2e" transform="translate(212.837966 0) scale(0.996264)"/>
      <use xlink:href="#CMR17-30" transform="translate(237.709025 0) scale(0.996264)"/>
      <use xlink:href="#CMR17-30" transform="translate(283.399502 0) scale(0.996264)"/>
     </g>
    </g>
    <g id="line2d_44">
     <path d="M 948.117672 216.710462 
L 962.117672 216.710462 
L 976.117672 216.710462 
" style="fill: none; stroke: #6b6ecf; stroke-width: 2; stroke-linecap: round"/>
    </g>
    <g id="text_20">
     <!-- t = 10.00 -->
     <g style="fill: #262626" transform="translate(987.317672 221.610462) scale(0.14 -0.14)">
      <use xlink:href="#CMR17-74" transform="scale(0.996264)"/>
      <use xlink:href="#CMR17-3d" transform="translate(65.356734 0) scale(0.996264)"/>
      <use xlink:href="#CMR17-31" transform="translate(167.147489 0) scale(0.996264)"/>
      <use xlink:href="#CMR17-30" transform="translate(212.837966 0) scale(0.996264)"/>
      <use xlink:href="#CMR17-2e" transform="translate(258.528443 0) scale(0.996264)"/>
      <use xlink:href="#CMR17-30" transform="translate(283.399502 0) scale(0.996264)"/>
      <use xlink:href="#CMR17-30" transform="translate(329.089979 0) scale(0.996264)"/>
     </g>
    </g>
    <g id="line2d_45">
     <path d="M 948.117672 236.222491 
L 962.117672 236.222491 
L 976.117672 236.222491 
" style="fill: none; stroke: #637939; stroke-width: 2; stroke-linecap: round"/>
    </g>
    <g id="text_21">
     <!-- t = 50.00 -->
     <g style="fill: #262626" transform="translate(987.317672 241.122491) scale(0.14 -0.14)">
      <use xlink:href="#CMR17-74" transform="scale(0.996264)"/>
      <use xlink:href="#CMR17-3d" transform="translate(65.356734 0) scale(0.996264)"/>
      <use xlink:href="#CMR17-35" transform="translate(167.147489 0) scale(0.996264)"/>
      <use xlink:href="#CMR17-30" transform="translate(212.837966 0) scale(0.996264)"/>
      <use xlink:href="#CMR17-2e" transform="translate(258.528443 0) scale(0.996264)"/>
      <use xlink:href="#CMR17-30" transform="translate(283.399502 0) scale(0.996264)"/>
      <use xlink:href="#CMR17-30" transform="translate(329.089979 0) scale(0.996264)"/>
     </g>
    </g>
    <g id="line2d_46">
     <path d="M 948.117672 255.734519 
L 962.117672 255.734519 
L 976.117672 255.734519 
" style="fill: none; stroke: #b5cf6b; stroke-width: 2; stroke-linecap: round"/>
    </g>
    <g id="text_22">
     <!-- t = 100.00 -->
     <g style="fill: #262626" transform="translate(987.317672 260.634519) scale(0.14 -0.14)">
      <use xlink:href="#CMR17-74" transform="scale(0.996264)"/>
      <use xlink:href="#CMR17-3d" transform="translate(65.356734 0) scale(0.996264)"/>
      <use xlink:href="#CMR17-31" transform="translate(167.147489 0) scale(0.996264)"/>
      <use xlink:href="#CMR17-30" transform="translate(212.837966 0) scale(0.996264)"/>
      <use xlink:href="#CMR17-30" transform="translate(258.528443 0) scale(0.996264)"/>
      <use xlink:href="#CMR17-2e" transform="translate(304.21892 0) scale(0.996264)"/>
      <use xlink:href="#CMR17-30" transform="translate(329.089979 0) scale(0.996264)"/>
      <use xlink:href="#CMR17-30" transform="translate(374.780456 0) scale(0.996264)"/>
     </g>
    </g>
    <g id="line2d_47">
     <path d="M 948.117672 275.246547 
L 962.117672 275.246547 
L 976.117672 275.246547 
" style="fill: none; stroke: #8c6d31; stroke-width: 2; stroke-linecap: round"/>
    </g>
    <g id="text_23">
     <!-- t = 250.00 -->
     <g style="fill: #262626" transform="translate(987.317672 280.146547) scale(0.14 -0.14)">
      <use xlink:href="#CMR17-74" transform="scale(0.996264)"/>
      <use xlink:href="#CMR17-3d" transform="translate(65.356734 0) scale(0.996264)"/>
      <use xlink:href="#CMR17-32" transform="translate(167.147489 0) scale(0.996264)"/>
      <use xlink:href="#CMR17-35" transform="translate(212.837966 0) scale(0.996264)"/>
      <use xlink:href="#CMR17-30" transform="translate(258.528443 0) scale(0.996264)"/>
      <use xlink:href="#CMR17-2e" transform="translate(304.21892 0) scale(0.996264)"/>
      <use xlink:href="#CMR17-30" transform="translate(329.089979 0) scale(0.996264)"/>
      <use xlink:href="#CMR17-30" transform="translate(374.780456 0) scale(0.996264)"/>
     </g>
    </g>
    <g id="line2d_48">
     <path d="M 948.117672 294.758576 
L 962.117672 294.758576 
L 976.117672 294.758576 
" style="fill: none; stroke: #e7cb94; stroke-width: 2; stroke-linecap: round"/>
    </g>
    <g id="text_24">
     <!-- t = 500.00 -->
     <g style="fill: #262626" transform="translate(987.317672 299.658576) scale(0.14 -0.14)">
      <use xlink:href="#CMR17-74" transform="scale(0.996264)"/>
      <use xlink:href="#CMR17-3d" transform="translate(65.356734 0) scale(0.996264)"/>
      <use xlink:href="#CMR17-35" transform="translate(167.147489 0) scale(0.996264)"/>
      <use xlink:href="#CMR17-30" transform="translate(212.837966 0) scale(0.996264)"/>
      <use xlink:href="#CMR17-30" transform="translate(258.528443 0) scale(0.996264)"/>
      <use xlink:href="#CMR17-2e" transform="translate(304.21892 0) scale(0.996264)"/>
      <use xlink:href="#CMR17-30" transform="translate(329.089979 0) scale(0.996264)"/>
      <use xlink:href="#CMR17-30" transform="translate(374.780456 0) scale(0.996264)"/>
     </g>
    </g>
    <g id="line2d_49">
     <path d="M 948.117672 314.270604 
L 962.117672 314.270604 
L 976.117672 314.270604 
" style="fill: none; stroke: #ad494a; stroke-width: 2; stroke-linecap: round"/>
    </g>
    <g id="text_25">
     <!-- t = 750.00 -->
     <g style="fill: #262626" transform="translate(987.317672 319.170604) scale(0.14 -0.14)">
      <use xlink:href="#CMR17-74" transform="scale(0.996264)"/>
      <use xlink:href="#CMR17-3d" transform="translate(65.356734 0) scale(0.996264)"/>
      <use xlink:href="#CMR17-37" transform="translate(167.147489 0) scale(0.996264)"/>
      <use xlink:href="#CMR17-35" transform="translate(212.837966 0) scale(0.996264)"/>
      <use xlink:href="#CMR17-30" transform="translate(258.528443 0) scale(0.996264)"/>
      <use xlink:href="#CMR17-2e" transform="translate(304.21892 0) scale(0.996264)"/>
      <use xlink:href="#CMR17-30" transform="translate(329.089979 0) scale(0.996264)"/>
      <use xlink:href="#CMR17-30" transform="translate(374.780456 0) scale(0.996264)"/>
     </g>
    </g>
    <g id="line2d_50">
     <path d="M 948.117672 333.782633 
L 962.117672 333.782633 
L 976.117672 333.782633 
" style="fill: none; stroke: #e7969c; stroke-width: 2; stroke-linecap: round"/>
    </g>
    <g id="text_26">
     <!-- t = 1000.00 -->
     <g style="fill: #262626" transform="translate(987.317672 338.682633) scale(0.14 -0.14)">
      <use xlink:href="#CMR17-74" transform="scale(0.996264)"/>
      <use xlink:href="#CMR17-3d" transform="translate(65.356734 0) scale(0.996264)"/>
      <use xlink:href="#CMR17-31" transform="translate(167.147489 0) scale(0.996264)"/>
      <use xlink:href="#CMR17-30" transform="translate(212.837966 0) scale(0.996264)"/>
      <use xlink:href="#CMR17-30" transform="translate(258.528443 0) scale(0.996264)"/>
      <use xlink:href="#CMR17-30" transform="translate(304.21892 0) scale(0.996264)"/>
      <use xlink:href="#CMR17-2e" transform="translate(349.909397 0) scale(0.996264)"/>
      <use xlink:href="#CMR17-30" transform="translate(374.780456 0) scale(0.996264)"/>
      <use xlink:href="#CMR17-30" transform="translate(420.470933 0) scale(0.996264)"/>
     </g>
    </g>
    <g id="line2d_51">
     <path d="M 948.117672 353.294661 
L 962.117672 353.294661 
L 976.117672 353.294661 
" style="fill: none; stroke: #a55194; stroke-width: 2; stroke-linecap: round"/>
    </g>
    <g id="text_27">
     <!-- t = 1250.00 -->
     <g style="fill: #262626" transform="translate(987.317672 358.194661) scale(0.14 -0.14)">
      <use xlink:href="#CMR17-74" transform="scale(0.996264)"/>
      <use xlink:href="#CMR17-3d" transform="translate(65.356734 0) scale(0.996264)"/>
      <use xlink:href="#CMR17-31" transform="translate(167.147489 0) scale(0.996264)"/>
      <use xlink:href="#CMR17-32" transform="translate(212.837966 0) scale(0.996264)"/>
      <use xlink:href="#CMR17-35" transform="translate(258.528443 0) scale(0.996264)"/>
      <use xlink:href="#CMR17-30" transform="translate(304.21892 0) scale(0.996264)"/>
      <use xlink:href="#CMR17-2e" transform="translate(349.909397 0) scale(0.996264)"/>
      <use xlink:href="#CMR17-30" transform="translate(374.780456 0) scale(0.996264)"/>
      <use xlink:href="#CMR17-30" transform="translate(420.470933 0) scale(0.996264)"/>
     </g>
    </g>
    <g id="line2d_52">
     <path d="M 948.117672 372.806689 
L 962.117672 372.806689 
L 976.117672 372.806689 
" style="fill: none; stroke: #de9ed6; stroke-width: 2; stroke-linecap: round"/>
    </g>
    <g id="text_28">
     <!-- t = 1500.00 -->
     <g style="fill: #262626" transform="translate(987.317672 377.706689) scale(0.14 -0.14)">
      <use xlink:href="#CMR17-74" transform="scale(0.996264)"/>
      <use xlink:href="#CMR17-3d" transform="translate(65.356734 0) scale(0.996264)"/>
      <use xlink:href="#CMR17-31" transform="translate(167.147489 0) scale(0.996264)"/>
      <use xlink:href="#CMR17-35" transform="translate(212.837966 0) scale(0.996264)"/>
      <use xlink:href="#CMR17-30" transform="translate(258.528443 0) scale(0.996264)"/>
      <use xlink:href="#CMR17-30" transform="translate(304.21892 0) scale(0.996264)"/>
      <use xlink:href="#CMR17-2e" transform="translate(349.909397 0) scale(0.996264)"/>
      <use xlink:href="#CMR17-30" transform="translate(374.780456 0) scale(0.996264)"/>
      <use xlink:href="#CMR17-30" transform="translate(420.470933 0) scale(0.996264)"/>
     </g>
    </g>
   </g>
  </g>
  <g id="text_29">
   <!-- Reactivity -->
   <g style="fill: #262626" transform="translate(500.761015 24.803515) scale(0.192 -0.192)">
    <defs>
     <path id="CMR17-52" d="M 2509 2146 
C 3117 2268 3629 2676 3629 3186 
C 3629 3785 2950 4326 2054 4326 
L 333 4326 
L 333 4160 
C 774 4160 845 4160 845 3873 
L 845 415 
C 845 128 774 128 333 128 
L 333 -26 
C 518 -26 851 -26 1050 -26 
C 1248 -26 1581 -26 1766 -26 
L 1766 128 
C 1325 128 1254 128 1254 417 
L 1254 2112 
L 2003 2112 
C 2368 2112 2573 1964 2662 1881 
C 2918 1632 2918 1459 2918 1024 
C 2918 595 2918 377 3110 160 
C 3354 -102 3680 -128 3821 -128 
C 4294 -128 4365 396 4365 503 
C 4365 540 4365 585 4307 585 
C 4256 585 4250 547 4250 522 
C 4218 112 4032 -26 3834 -26 
C 3482 -26 3443 375 3405 764 
C 3386 898 3373 993 3360 1133 
C 3322 1452 3270 1917 2509 2146 
z
M 1984 2214 
L 1254 2214 
L 1254 3913 
C 1254 4129 1267 4160 1523 4160 
L 1990 4160 
C 2522 4160 3142 3977 3142 3190 
C 3142 2372 2464 2214 1984 2214 
z
" transform="scale(0.015625)"/>
     <path id="CMR17-61" d="M 2304 1653 
C 2304 2072 2304 2294 2035 2543 
C 1798 2752 1523 2816 1306 2816 
C 800 2816 435 2407 435 1971 
C 435 1728 627 1728 666 1728 
C 749 1728 896 1778 896 1954 
C 896 2112 774 2181 666 2181 
C 640 2181 608 2174 589 2168 
C 723 2592 1069 2714 1293 2714 
C 1613 2714 1965 2429 1965 1885 
L 1965 1600 
C 1587 1600 1133 1549 774 1357 
C 371 1133 256 813 256 570 
C 256 77 832 -64 1171 -64 
C 1523 -64 1850 139 1990 511 
C 2003 233 2182 -18 2464 -18 
C 2598 -18 2938 70 2938 567 
L 2938 920 
L 2822 920 
L 2822 562 
C 2822 178 2650 128 2566 128 
C 2304 128 2304 458 2304 738 
L 2304 1653 
z
M 1965 870 
C 1965 317 1568 38 1216 38 
C 896 38 646 275 646 570 
C 646 761 730 1100 1101 1305 
C 1408 1478 1760 1504 1965 1504 
L 1965 870 
z
" transform="scale(0.015625)"/>
     <path id="CMR17-63" d="M 2234 2240 
C 2112 2240 1933 2240 1933 2017 
C 1933 1838 2080 1787 2163 1787 
C 2208 1787 2394 1807 2394 2024 
C 2394 2467 1958 2803 1466 2803 
C 787 2803 211 2178 211 1363 
C 211 516 813 -64 1466 -64 
C 2259 -64 2458 677 2458 748 
C 2458 774 2451 793 2406 793 
C 2362 793 2355 787 2330 703 
C 2163 180 1798 51 1523 51 
C 1114 51 621 427 621 1369 
C 621 2338 1094 2688 1472 2688 
C 1722 2688 2093 2573 2234 2240 
z
" transform="scale(0.015625)"/>
     <path id="CMR17-76" d="M 2502 2163 
C 2560 2304 2662 2560 3034 2560 
L 3034 2726 
C 2912 2726 2752 2726 2630 2726 
C 2496 2726 2285 2726 2157 2732 
L 2157 2566 
C 2317 2553 2406 2477 2406 2311 
C 2406 2253 2406 2240 2368 2151 
L 1664 377 
L 902 2286 
C 864 2369 864 2381 864 2407 
C 864 2560 1075 2560 1171 2560 
L 1171 2732 
C 1018 2726 736 2726 576 2726 
C 403 2726 205 2726 64 2732 
L 64 2560 
C 307 2560 442 2560 518 2362 
L 1446 44 
C 1485 -51 1491 -64 1549 -64 
C 1606 -64 1613 -51 1651 44 
L 2502 2163 
z
" transform="scale(0.015625)"/>
     <path id="CMR17-79" d="M 2496 2197 
C 2656 2586 2944 2586 3034 2586 
L 3034 2752 
C 2912 2752 2752 2752 2630 2752 
C 2496 2752 2285 2752 2157 2758 
L 2157 2592 
C 2400 2573 2406 2394 2406 2343 
C 2406 2280 2394 2248 2362 2171 
L 1664 449 
L 902 2306 
C 870 2382 870 2426 870 2433 
C 870 2573 1018 2586 1171 2586 
L 1171 2758 
C 1018 2752 742 2752 582 2752 
C 410 2752 205 2752 64 2758 
L 64 2586 
C 410 2586 448 2554 531 2350 
L 1485 15 
C 1197 -738 1030 -1178 627 -1178 
C 557 -1178 397 -1159 282 -1044 
C 429 -1031 493 -942 493 -833 
C 493 -725 416 -629 288 -629 
C 147 -629 77 -725 77 -840 
C 77 -1095 339 -1280 627 -1280 
C 998 -1280 1229 -922 1357 -604 
L 2496 2197 
z
" transform="scale(0.015625)"/>
    </defs>
    <use xlink:href="#CMR17-52" transform="scale(0.996264)"/>
    <use xlink:href="#CMR17-65" transform="translate(67.791102 0) scale(0.996264)"/>
    <use xlink:href="#CMR17-61" transform="translate(108.276762 0) scale(0.996264)"/>
    <use xlink:href="#CMR17-63" transform="translate(153.96724 0) scale(0.996264)"/>
    <use xlink:href="#CMR17-74" transform="translate(194.4529 0) scale(0.996264)"/>
    <use xlink:href="#CMR17-69" transform="translate(229.733668 0) scale(0.996264)"/>
    <use xlink:href="#CMR17-76" transform="translate(254.604726 0) scale(0.996264)"/>
    <use xlink:href="#CMR17-69" transform="translate(302.897642 0) scale(0.996264)"/>
    <use xlink:href="#CMR17-74" transform="translate(327.768701 0) scale(0.996264)"/>
    <use xlink:href="#CMR17-79" transform="translate(360.447014 0) scale(0.996264)"/>
   </g>
  </g>
 </g>
 <defs>
  <clipPath id="p2f906ae937">
   <rect x="41.730582" y="51.564121" width="893.78709" height="469.58891"/>
  </clipPath>
 </defs>
</svg>
