<?xml version="1.0" encoding="utf-8" standalone="no"?>
<!DOCTYPE svg PUBLIC "-//W3C//DTD SVG 1.1//EN"
  "http://www.w3.org/Graphics/SVG/1.1/DTD/svg11.dtd">
<svg xmlns:xlink="http://www.w3.org/1999/xlink" width="1080pt" height="576pt" viewBox="0 0 1080 576" xmlns="http://www.w3.org/2000/svg" version="1.1">
 <metadata>
  <rdf:RDF xmlns:dc="http://purl.org/dc/elements/1.1/" xmlns:cc="http://creativecommons.org/ns#" xmlns:rdf="http://www.w3.org/1999/02/22-rdf-syntax-ns#">
   <cc:Work>
    <dc:type rdf:resource="http://purl.org/dc/dcmitype/StillImage"/>
    <dc:date>2024-06-28T12:21:33.733999</dc:date>
    <dc:format>image/svg+xml</dc:format>
    <dc:creator>
     <cc:Agent>
      <dc:title>Matplotlib v3.9.0, https://matplotlib.org/</dc:title>
     </cc:Agent>
    </dc:creator>
   </cc:Work>
  </rdf:RDF>
 </metadata>
 <defs>
  <style type="text/css">*{stroke-linejoin: round; stroke-linecap: butt}</style>
 </defs>
 <g id="figure_1">
  <g id="patch_1">
   <path d="M 0 576 
L 1080 576 
L 1080 0 
L 0 0 
z
" style="fill: #ffffff"/>
  </g>
  <g id="axes_1">
   <g id="patch_2">
    <path d="M 48.559071 521.153031 
L 935.517672 521.153031 
L 935.517672 51.564121 
L 48.559071 51.564121 
z
" style="fill: #eaeaf2"/>
   </g>
   <g id="matplotlib.axis_1">
    <g id="xtick_1">
     <g id="line2d_1">
      <path d="M 48.559071 521.153031 
L 48.559071 51.564121 
" clip-path="url(#pb86723ea00)" style="fill: none; stroke: #ffffff; stroke-linecap: round"/>
     </g>
     <g id="line2d_2"/>
     <g id="text_1">
      <!-- $\mathdefault{0.00}$ -->
      <g style="fill: #262626" transform="translate(36.419535 537.838907) scale(0.14 -0.14)">
       <defs>
        <path id="CMR17-30" d="M 2688 2025 
C 2688 2416 2682 3080 2413 3591 
C 2176 4039 1798 4198 1466 4198 
C 1158 4198 768 4058 525 3597 
C 269 3118 243 2524 243 2025 
C 243 1661 250 1106 448 619 
C 723 -39 1216 -128 1466 -128 
C 1760 -128 2208 -7 2470 600 
C 2662 1042 2688 1559 2688 2025 
z
M 1466 -26 
C 1056 -26 813 325 723 812 
C 653 1188 653 1738 653 2096 
C 653 2588 653 2997 736 3387 
C 858 3929 1216 4096 1466 4096 
C 1728 4096 2067 3923 2189 3400 
C 2272 3036 2278 2607 2278 2096 
C 2278 1680 2278 1169 2202 792 
C 2067 95 1690 -26 1466 -26 
z
" transform="scale(0.015625)"/>
        <path id="CMMI12-3a" d="M 1178 307 
C 1178 492 1024 619 870 619 
C 685 619 557 466 557 313 
C 557 128 710 0 864 0 
C 1050 0 1178 153 1178 307 
z
" transform="scale(0.015625)"/>
       </defs>
       <use xlink:href="#CMR17-30" transform="scale(0.996264)"/>
       <use xlink:href="#CMMI12-3a" transform="translate(45.690477 0) scale(0.996264)"/>
       <use xlink:href="#CMR17-30" transform="translate(72.787654 0) scale(0.996264)"/>
       <use xlink:href="#CMR17-30" transform="translate(118.478131 0) scale(0.996264)"/>
      </g>
     </g>
    </g>
    <g id="xtick_2">
     <g id="line2d_3">
      <path d="M 154.14938 521.153031 
L 154.14938 51.564121 
" clip-path="url(#pb86723ea00)" style="fill: none; stroke: #ffffff; stroke-linecap: round"/>
     </g>
     <g id="line2d_4"/>
     <g id="text_2">
      <!-- $\mathdefault{0.25}$ -->
      <g style="fill: #262626" transform="translate(142.009845 537.838907) scale(0.14 -0.14)">
       <defs>
        <path id="CMR17-32" d="M 2669 989 
L 2554 989 
C 2490 536 2438 459 2413 420 
C 2381 369 1920 369 1830 369 
L 602 369 
C 832 619 1280 1072 1824 1597 
C 2214 1967 2669 2402 2669 3035 
C 2669 3790 2067 4224 1395 4224 
C 691 4224 262 3604 262 3030 
C 262 2780 448 2748 525 2748 
C 589 2748 781 2787 781 3010 
C 781 3207 614 3264 525 3264 
C 486 3264 448 3258 422 3245 
C 544 3790 915 4058 1306 4058 
C 1862 4058 2227 3617 2227 3035 
C 2227 2479 1901 2000 1536 1584 
L 262 146 
L 262 0 
L 2515 0 
L 2669 989 
z
" transform="scale(0.015625)"/>
        <path id="CMR17-35" d="M 730 3692 
C 794 3666 1056 3584 1325 3584 
C 1920 3584 2246 3911 2432 4100 
C 2432 4157 2432 4192 2394 4192 
C 2387 4192 2374 4192 2323 4163 
C 2099 4058 1837 3973 1517 3973 
C 1325 3973 1037 3999 723 4139 
C 653 4171 640 4171 634 4171 
C 602 4171 595 4164 595 4037 
L 595 2203 
C 595 2089 595 2057 659 2057 
C 691 2057 704 2070 736 2114 
C 941 2401 1222 2522 1542 2522 
C 1766 2522 2246 2382 2246 1289 
C 2246 1085 2246 715 2054 421 
C 1894 159 1645 25 1370 25 
C 947 25 518 320 403 814 
C 429 807 480 795 506 795 
C 589 795 749 840 749 1038 
C 749 1210 627 1280 506 1280 
C 358 1280 262 1190 262 1011 
C 262 454 704 -128 1382 -128 
C 2042 -128 2669 440 2669 1264 
C 2669 2030 2170 2624 1549 2624 
C 1222 2624 947 2503 730 2274 
L 730 3692 
z
" transform="scale(0.015625)"/>
       </defs>
       <use xlink:href="#CMR17-30" transform="scale(0.996264)"/>
       <use xlink:href="#CMMI12-3a" transform="translate(45.690477 0) scale(0.996264)"/>
       <use xlink:href="#CMR17-32" transform="translate(72.787654 0) scale(0.996264)"/>
       <use xlink:href="#CMR17-35" transform="translate(118.478131 0) scale(0.996264)"/>
      </g>
     </g>
    </g>
    <g id="xtick_3">
     <g id="line2d_5">
      <path d="M 259.73969 521.153031 
L 259.73969 51.564121 
" clip-path="url(#pb86723ea00)" style="fill: none; stroke: #ffffff; stroke-linecap: round"/>
     </g>
     <g id="line2d_6"/>
     <g id="text_3">
      <!-- $\mathdefault{0.50}$ -->
      <g style="fill: #262626" transform="translate(247.600155 537.838907) scale(0.14 -0.14)">
       <use xlink:href="#CMR17-30" transform="scale(0.996264)"/>
       <use xlink:href="#CMMI12-3a" transform="translate(45.690477 0) scale(0.996264)"/>
       <use xlink:href="#CMR17-35" transform="translate(72.787654 0) scale(0.996264)"/>
       <use xlink:href="#CMR17-30" transform="translate(118.478131 0) scale(0.996264)"/>
      </g>
     </g>
    </g>
    <g id="xtick_4">
     <g id="line2d_7">
      <path d="M 365.33 521.153031 
L 365.33 51.564121 
" clip-path="url(#pb86723ea00)" style="fill: none; stroke: #ffffff; stroke-linecap: round"/>
     </g>
     <g id="line2d_8"/>
     <g id="text_4">
      <!-- $\mathdefault{0.75}$ -->
      <g style="fill: #262626" transform="translate(353.190464 537.838907) scale(0.14 -0.14)">
       <defs>
        <path id="CMR17-37" d="M 2886 3941 
L 2886 4081 
L 1382 4081 
C 634 4081 621 4165 595 4288 
L 480 4288 
L 294 3094 
L 410 3094 
C 429 3215 474 3540 550 3661 
C 589 3712 1062 3712 1171 3712 
L 2579 3712 
L 1869 2661 
C 1395 1954 1069 999 1069 165 
C 1069 89 1069 -128 1299 -128 
C 1530 -128 1530 89 1530 171 
L 1530 465 
C 1530 1508 1709 2196 2003 2636 
L 2886 3941 
z
" transform="scale(0.015625)"/>
       </defs>
       <use xlink:href="#CMR17-30" transform="scale(0.996264)"/>
       <use xlink:href="#CMMI12-3a" transform="translate(45.690477 0) scale(0.996264)"/>
       <use xlink:href="#CMR17-37" transform="translate(72.787654 0) scale(0.996264)"/>
       <use xlink:href="#CMR17-35" transform="translate(118.478131 0) scale(0.996264)"/>
      </g>
     </g>
    </g>
    <g id="xtick_5">
     <g id="line2d_9">
      <path d="M 470.920309 521.153031 
L 470.920309 51.564121 
" clip-path="url(#pb86723ea00)" style="fill: none; stroke: #ffffff; stroke-linecap: round"/>
     </g>
     <g id="line2d_10"/>
     <g id="text_5">
      <!-- $\mathdefault{1.00}$ -->
      <g style="fill: #262626" transform="translate(458.780774 537.838907) scale(0.14 -0.14)">
       <defs>
        <path id="CMR17-31" d="M 1702 4058 
C 1702 4192 1696 4192 1606 4192 
C 1357 3916 979 3827 621 3827 
C 602 3827 570 3827 563 3808 
C 557 3795 557 3782 557 3648 
C 755 3648 1088 3686 1344 3839 
L 1344 461 
C 1344 236 1331 160 781 160 
L 589 160 
L 589 0 
C 896 0 1216 0 1523 0 
C 1830 0 2150 0 2458 0 
L 2458 160 
L 2266 160 
C 1715 160 1702 230 1702 458 
L 1702 4058 
z
" transform="scale(0.015625)"/>
       </defs>
       <use xlink:href="#CMR17-31" transform="scale(0.996264)"/>
       <use xlink:href="#CMMI12-3a" transform="translate(45.690477 0) scale(0.996264)"/>
       <use xlink:href="#CMR17-30" transform="translate(72.787654 0) scale(0.996264)"/>
       <use xlink:href="#CMR17-30" transform="translate(118.478131 0) scale(0.996264)"/>
      </g>
     </g>
    </g>
    <g id="xtick_6">
     <g id="line2d_11">
      <path d="M 576.510619 521.153031 
L 576.510619 51.564121 
" clip-path="url(#pb86723ea00)" style="fill: none; stroke: #ffffff; stroke-linecap: round"/>
     </g>
     <g id="line2d_12"/>
     <g id="text_6">
      <!-- $\mathdefault{1.25}$ -->
      <g style="fill: #262626" transform="translate(564.371084 537.838907) scale(0.14 -0.14)">
       <use xlink:href="#CMR17-31" transform="scale(0.996264)"/>
       <use xlink:href="#CMMI12-3a" transform="translate(45.690477 0) scale(0.996264)"/>
       <use xlink:href="#CMR17-32" transform="translate(72.787654 0) scale(0.996264)"/>
       <use xlink:href="#CMR17-35" transform="translate(118.478131 0) scale(0.996264)"/>
      </g>
     </g>
    </g>
    <g id="xtick_7">
     <g id="line2d_13">
      <path d="M 682.100929 521.153031 
L 682.100929 51.564121 
" clip-path="url(#pb86723ea00)" style="fill: none; stroke: #ffffff; stroke-linecap: round"/>
     </g>
     <g id="line2d_14"/>
     <g id="text_7">
      <!-- $\mathdefault{1.50}$ -->
      <g style="fill: #262626" transform="translate(669.961393 537.838907) scale(0.14 -0.14)">
       <use xlink:href="#CMR17-31" transform="scale(0.996264)"/>
       <use xlink:href="#CMMI12-3a" transform="translate(45.690477 0) scale(0.996264)"/>
       <use xlink:href="#CMR17-35" transform="translate(72.787654 0) scale(0.996264)"/>
       <use xlink:href="#CMR17-30" transform="translate(118.478131 0) scale(0.996264)"/>
      </g>
     </g>
    </g>
    <g id="xtick_8">
     <g id="line2d_15">
      <path d="M 787.691238 521.153031 
L 787.691238 51.564121 
" clip-path="url(#pb86723ea00)" style="fill: none; stroke: #ffffff; stroke-linecap: round"/>
     </g>
     <g id="line2d_16"/>
     <g id="text_8">
      <!-- $\mathdefault{1.75}$ -->
      <g style="fill: #262626" transform="translate(775.551703 537.838907) scale(0.14 -0.14)">
       <use xlink:href="#CMR17-31" transform="scale(0.996264)"/>
       <use xlink:href="#CMMI12-3a" transform="translate(45.690477 0) scale(0.996264)"/>
       <use xlink:href="#CMR17-37" transform="translate(72.787654 0) scale(0.996264)"/>
       <use xlink:href="#CMR17-35" transform="translate(118.478131 0) scale(0.996264)"/>
      </g>
     </g>
    </g>
    <g id="xtick_9">
     <g id="line2d_17">
      <path d="M 893.281548 521.153031 
L 893.281548 51.564121 
" clip-path="url(#pb86723ea00)" style="fill: none; stroke: #ffffff; stroke-linecap: round"/>
     </g>
     <g id="line2d_18"/>
     <g id="text_9">
      <!-- $\mathdefault{2.00}$ -->
      <g style="fill: #262626" transform="translate(881.142013 537.838907) scale(0.14 -0.14)">
       <use xlink:href="#CMR17-32" transform="scale(0.996264)"/>
       <use xlink:href="#CMMI12-3a" transform="translate(45.690477 0) scale(0.996264)"/>
       <use xlink:href="#CMR17-30" transform="translate(72.787654 0) scale(0.996264)"/>
       <use xlink:href="#CMR17-30" transform="translate(118.478131 0) scale(0.996264)"/>
      </g>
     </g>
    </g>
    <g id="text_10">
     <!-- $x$ -->
     <g style="fill: #262626" transform="translate(487.603646 555.620524) scale(0.16 -0.16)">
      <defs>
       <path id="CMMI12-78" d="M 3034 2606 
C 2829 2567 2752 2414 2752 2293 
C 2752 2139 2874 2088 2963 2088 
C 3155 2088 3290 2254 3290 2427 
C 3290 2695 2982 2816 2714 2816 
C 2323 2816 2106 2433 2048 2312 
C 1901 2816 1504 2816 1389 2816 
C 736 2816 390 1980 390 1839 
C 390 1814 416 1782 461 1782 
C 512 1782 525 1820 538 1846 
C 755 2555 1184 2689 1370 2689 
C 1658 2689 1715 2420 1715 2267 
C 1715 2127 1677 1980 1600 1673 
L 1382 798 
C 1286 415 1101 64 762 64 
C 730 64 570 64 435 147 
C 666 192 717 383 717 460 
C 717 588 621 664 499 664 
C 346 664 179 530 179 326 
C 179 57 480 -64 755 -64 
C 1062 -64 1280 179 1414 441 
C 1517 64 1837 -64 2074 -64 
C 2726 -64 3072 773 3072 913 
C 3072 945 3046 971 3008 971 
C 2950 971 2944 939 2925 888 
C 2752 326 2381 64 2093 64 
C 1869 64 1747 230 1747 492 
C 1747 632 1773 734 1875 1156 
L 2099 2024 
C 2195 2408 2413 2689 2707 2689 
C 2720 2689 2899 2689 3034 2606 
z
" transform="scale(0.015625)"/>
      </defs>
      <use xlink:href="#CMMI12-78" transform="scale(0.996264)"/>
     </g>
    </g>
   </g>
   <g id="matplotlib.axis_2">
    <g id="ytick_1">
     <g id="line2d_19">
      <path d="M 48.559071 521.153031 
L 935.517672 521.153031 
" clip-path="url(#pb86723ea00)" style="fill: none; stroke: #ffffff; stroke-linecap: round"/>
     </g>
     <g id="line2d_20"/>
     <g id="text_11">
      <!-- $\mathdefault{0.00}$ -->
      <g style="fill: #262626" transform="translate(17.28 525.995969) scale(0.14 -0.14)">
       <use xlink:href="#CMR17-30" transform="scale(0.996264)"/>
       <use xlink:href="#CMMI12-3a" transform="translate(45.690477 0) scale(0.996264)"/>
       <use xlink:href="#CMR17-30" transform="translate(72.787654 0) scale(0.996264)"/>
       <use xlink:href="#CMR17-30" transform="translate(118.478131 0) scale(0.996264)"/>
      </g>
     </g>
    </g>
    <g id="ytick_2">
     <g id="line2d_21">
      <path d="M 48.559071 465.152477 
L 935.517672 465.152477 
" clip-path="url(#pb86723ea00)" style="fill: none; stroke: #ffffff; stroke-linecap: round"/>
     </g>
     <g id="line2d_22"/>
     <g id="text_12">
      <!-- $\mathdefault{0.25}$ -->
      <g style="fill: #262626" transform="translate(17.28 469.995415) scale(0.14 -0.14)">
       <use xlink:href="#CMR17-30" transform="scale(0.996264)"/>
       <use xlink:href="#CMMI12-3a" transform="translate(45.690477 0) scale(0.996264)"/>
       <use xlink:href="#CMR17-32" transform="translate(72.787654 0) scale(0.996264)"/>
       <use xlink:href="#CMR17-35" transform="translate(118.478131 0) scale(0.996264)"/>
      </g>
     </g>
    </g>
    <g id="ytick_3">
     <g id="line2d_23">
      <path d="M 48.559071 409.151923 
L 935.517672 409.151923 
" clip-path="url(#pb86723ea00)" style="fill: none; stroke: #ffffff; stroke-linecap: round"/>
     </g>
     <g id="line2d_24"/>
     <g id="text_13">
      <!-- $\mathdefault{0.50}$ -->
      <g style="fill: #262626" transform="translate(17.28 413.994861) scale(0.14 -0.14)">
       <use xlink:href="#CMR17-30" transform="scale(0.996264)"/>
       <use xlink:href="#CMMI12-3a" transform="translate(45.690477 0) scale(0.996264)"/>
       <use xlink:href="#CMR17-35" transform="translate(72.787654 0) scale(0.996264)"/>
       <use xlink:href="#CMR17-30" transform="translate(118.478131 0) scale(0.996264)"/>
      </g>
     </g>
    </g>
    <g id="ytick_4">
     <g id="line2d_25">
      <path d="M 48.559071 353.151369 
L 935.517672 353.151369 
" clip-path="url(#pb86723ea00)" style="fill: none; stroke: #ffffff; stroke-linecap: round"/>
     </g>
     <g id="line2d_26"/>
     <g id="text_14">
      <!-- $\mathdefault{0.75}$ -->
      <g style="fill: #262626" transform="translate(17.28 357.994307) scale(0.14 -0.14)">
       <use xlink:href="#CMR17-30" transform="scale(0.996264)"/>
       <use xlink:href="#CMMI12-3a" transform="translate(45.690477 0) scale(0.996264)"/>
       <use xlink:href="#CMR17-37" transform="translate(72.787654 0) scale(0.996264)"/>
       <use xlink:href="#CMR17-35" transform="translate(118.478131 0) scale(0.996264)"/>
      </g>
     </g>
    </g>
    <g id="ytick_5">
     <g id="line2d_27">
      <path d="M 48.559071 297.150815 
L 935.517672 297.150815 
" clip-path="url(#pb86723ea00)" style="fill: none; stroke: #ffffff; stroke-linecap: round"/>
     </g>
     <g id="line2d_28"/>
     <g id="text_15">
      <!-- $\mathdefault{1.00}$ -->
      <g style="fill: #262626" transform="translate(17.28 301.993753) scale(0.14 -0.14)">
       <use xlink:href="#CMR17-31" transform="scale(0.996264)"/>
       <use xlink:href="#CMMI12-3a" transform="translate(45.690477 0) scale(0.996264)"/>
       <use xlink:href="#CMR17-30" transform="translate(72.787654 0) scale(0.996264)"/>
       <use xlink:href="#CMR17-30" transform="translate(118.478131 0) scale(0.996264)"/>
      </g>
     </g>
    </g>
    <g id="ytick_6">
     <g id="line2d_29">
      <path d="M 48.559071 241.150261 
L 935.517672 241.150261 
" clip-path="url(#pb86723ea00)" style="fill: none; stroke: #ffffff; stroke-linecap: round"/>
     </g>
     <g id="line2d_30"/>
     <g id="text_16">
      <!-- $\mathdefault{1.25}$ -->
      <g style="fill: #262626" transform="translate(17.28 245.993199) scale(0.14 -0.14)">
       <use xlink:href="#CMR17-31" transform="scale(0.996264)"/>
       <use xlink:href="#CMMI12-3a" transform="translate(45.690477 0) scale(0.996264)"/>
       <use xlink:href="#CMR17-32" transform="translate(72.787654 0) scale(0.996264)"/>
       <use xlink:href="#CMR17-35" transform="translate(118.478131 0) scale(0.996264)"/>
      </g>
     </g>
    </g>
    <g id="ytick_7">
     <g id="line2d_31">
      <path d="M 48.559071 185.149707 
L 935.517672 185.149707 
" clip-path="url(#pb86723ea00)" style="fill: none; stroke: #ffffff; stroke-linecap: round"/>
     </g>
     <g id="line2d_32"/>
     <g id="text_17">
      <!-- $\mathdefault{1.50}$ -->
      <g style="fill: #262626" transform="translate(17.28 189.992645) scale(0.14 -0.14)">
       <use xlink:href="#CMR17-31" transform="scale(0.996264)"/>
       <use xlink:href="#CMMI12-3a" transform="translate(45.690477 0) scale(0.996264)"/>
       <use xlink:href="#CMR17-35" transform="translate(72.787654 0) scale(0.996264)"/>
       <use xlink:href="#CMR17-30" transform="translate(118.478131 0) scale(0.996264)"/>
      </g>
     </g>
    </g>
    <g id="ytick_8">
     <g id="line2d_33">
      <path d="M 48.559071 129.149153 
L 935.517672 129.149153 
" clip-path="url(#pb86723ea00)" style="fill: none; stroke: #ffffff; stroke-linecap: round"/>
     </g>
     <g id="line2d_34"/>
     <g id="text_18">
      <!-- $\mathdefault{1.75}$ -->
      <g style="fill: #262626" transform="translate(17.28 133.992091) scale(0.14 -0.14)">
       <use xlink:href="#CMR17-31" transform="scale(0.996264)"/>
       <use xlink:href="#CMMI12-3a" transform="translate(45.690477 0) scale(0.996264)"/>
       <use xlink:href="#CMR17-37" transform="translate(72.787654 0) scale(0.996264)"/>
       <use xlink:href="#CMR17-35" transform="translate(118.478131 0) scale(0.996264)"/>
      </g>
     </g>
    </g>
    <g id="ytick_9">
     <g id="line2d_35">
      <path d="M 48.559071 73.148599 
L 935.517672 73.148599 
" clip-path="url(#pb86723ea00)" style="fill: none; stroke: #ffffff; stroke-linecap: round"/>
     </g>
     <g id="line2d_36"/>
     <g id="text_19">
      <!-- $\mathdefault{2.00}$ -->
      <g style="fill: #262626" transform="translate(17.28 77.991537) scale(0.14 -0.14)">
       <use xlink:href="#CMR17-32" transform="scale(0.996264)"/>
       <use xlink:href="#CMMI12-3a" transform="translate(45.690477 0) scale(0.996264)"/>
       <use xlink:href="#CMR17-30" transform="translate(72.787654 0) scale(0.996264)"/>
       <use xlink:href="#CMR17-30" transform="translate(118.478131 0) scale(0.996264)"/>
      </g>
     </g>
    </g>
   </g>
   <g id="line2d_37">
    <path d="M 48.559071 73.148599 
L 57.006295 73.148599 
L 65.45352 73.148599 
L 73.900745 73.148599 
L 82.34797 73.148599 
L 90.795195 73.148599 
L 99.242419 73.148599 
L 107.689644 73.148599 
L 116.136869 73.148599 
L 124.584094 73.148599 
L 133.031318 73.148599 
L 141.478543 73.148599 
L 149.925768 73.148599 
L 158.372993 73.148599 
L 166.820217 73.148599 
L 175.267442 73.148599 
L 183.714667 73.148599 
L 192.161892 73.148599 
L 200.609117 73.148599 
L 209.056341 73.148599 
L 217.503566 73.148599 
L 225.950791 73.148599 
L 234.398016 73.148599 
L 242.84524 73.148599 
L 251.292465 73.148599 
L 259.73969 73.148599 
L 268.186915 73.148599 
L 276.63414 73.148599 
L 285.081364 73.148599 
L 293.528589 73.148599 
L 301.975814 73.148599 
L 310.423039 73.148599 
L 318.870263 73.148599 
L 327.317488 73.148599 
L 335.764713 73.148599 
L 344.211938 73.148599 
L 352.659162 73.148599 
L 361.106387 73.148599 
L 369.553612 73.148599 
L 378.000837 73.148599 
L 386.448062 73.148599 
L 394.895286 73.148599 
L 403.342511 73.148599 
L 411.789736 73.148599 
L 420.236961 73.148599 
L 428.684185 73.148599 
L 437.13141 73.148599 
L 445.578635 73.148599 
L 454.02586 73.148599 
L 462.473085 73.148599 
L 470.920309 73.148599 
L 479.367534 73.148599 
L 487.814759 73.148599 
L 496.261984 73.148599 
L 504.709208 73.148599 
L 513.156433 73.148599 
L 521.603658 73.148599 
L 530.050883 73.148599 
L 538.498107 73.148599 
L 546.945332 73.148599 
L 555.392557 73.148599 
L 563.839782 73.148599 
L 572.287007 73.148599 
L 580.734231 73.148599 
L 589.181456 73.148599 
L 597.628681 73.148599 
L 606.075906 73.148599 
L 614.52313 73.148599 
L 622.970355 73.148599 
L 631.41758 73.148599 
L 639.864805 73.148599 
L 648.31203 73.148599 
L 656.759254 73.148599 
L 665.206479 73.148599 
L 673.653704 73.148599 
L 682.100929 73.148599 
L 690.548153 73.148599 
L 698.995378 73.148599 
L 707.442603 73.148599 
L 715.889828 73.148599 
L 724.337052 73.148599 
L 732.784277 73.148599 
L 741.231502 73.148599 
L 749.678727 73.148599 
L 758.125952 73.148599 
L 766.573176 73.148599 
L 775.020401 73.148599 
L 783.467626 73.148599 
L 791.914851 73.148599 
L 800.362075 73.148599 
L 808.8093 73.148599 
L 817.256525 73.148599 
L 825.70375 73.148599 
L 834.150975 73.148599 
L 842.598199 73.148599 
L 851.045424 73.148599 
L 859.492649 73.148599 
L 867.939874 73.148599 
L 876.387098 73.148599 
L 884.834323 73.148599 
L 893.281548 73.148599 
" clip-path="url(#pb86723ea00)" style="fill: none; stroke: #393b79; stroke-width: 2; stroke-linecap: round"/>
   </g>
   <g id="line2d_38">
    <path d="M 48.559071 86.375505 
L 57.006295 86.290698 
L 65.45352 86.206211 
L 73.900745 86.122283 
L 82.34797 86.03891 
L 90.795195 85.956089 
L 99.242419 85.873815 
L 107.689644 85.792086 
L 116.136869 85.710897 
L 124.584094 85.630244 
L 133.031318 85.550125 
L 141.478543 85.470536 
L 149.925768 85.391472 
L 158.372993 85.31293 
L 166.820217 85.234908 
L 175.267442 85.1574 
L 183.714667 85.080405 
L 192.161892 85.003801 
L 200.609117 84.92748 
L 209.056341 84.851664 
L 217.503566 84.776348 
L 225.950791 84.701529 
L 234.398016 84.627204 
L 242.84524 84.553369 
L 251.292465 84.480021 
L 259.73969 84.407158 
L 268.186915 84.334774 
L 276.63414 84.262868 
L 285.081364 84.191436 
L 293.528589 84.120475 
L 301.975814 84.049982 
L 310.423039 83.979953 
L 318.870263 83.910386 
L 327.317488 83.841277 
L 335.764713 83.772624 
L 344.211938 83.704293 
L 352.659162 83.636238 
L 361.106387 83.568631 
L 369.553612 83.50147 
L 378.000837 83.434751 
L 386.448062 83.368472 
L 394.895286 83.302629 
L 403.342511 83.237219 
L 411.789736 83.17224 
L 420.236961 83.107688 
L 428.684185 83.043561 
L 437.13141 82.979856 
L 445.578635 82.916571 
L 454.02586 82.853701 
L 462.473085 82.791245 
L 470.920309 82.7292 
L 479.367534 82.667563 
L 487.814759 82.606331 
L 496.261984 82.545502 
L 504.709208 82.485072 
L 513.156433 82.425013 
L 521.603658 82.365109 
L 530.050883 82.305598 
L 538.498107 82.246478 
L 546.945332 82.187747 
L 555.392557 82.129401 
L 563.839782 82.071439 
L 572.287007 82.013858 
L 580.734231 81.956655 
L 589.181456 81.899828 
L 597.628681 81.843373 
L 606.075906 81.78729 
L 614.52313 81.731575 
L 622.970355 81.676226 
L 631.41758 81.621239 
L 639.864805 81.566614 
L 648.31203 81.512348 
L 656.759254 81.458437 
L 665.206479 81.404881 
L 673.653704 81.351675 
L 682.100929 81.298819 
L 690.548153 81.246309 
L 698.995378 81.194144 
L 707.442603 81.142322 
L 715.889828 81.090696 
L 724.337052 81.039321 
L 732.784277 80.988283 
L 741.231502 80.93758 
L 749.678727 80.887209 
L 758.125952 80.837169 
L 766.573176 80.787457 
L 775.020401 80.73807 
L 783.467626 80.689007 
L 791.914851 80.640266 
L 800.362075 80.591845 
L 808.8093 80.543741 
L 817.256525 80.495952 
L 825.70375 80.448476 
L 834.150975 80.401311 
L 842.598199 80.354455 
L 851.045424 80.307907 
L 859.492649 80.261663 
L 867.939874 80.215722 
L 876.387098 80.170082 
L 884.834323 80.124741 
L 893.281548 80.079696 
" clip-path="url(#pb86723ea00)" style="fill: none; stroke: #6b6ecf; stroke-width: 2; stroke-linecap: round"/>
   </g>
   <g id="line2d_39">
    <path d="M 48.559071 134.64606 
L 57.006295 134.28611 
L 65.45352 133.928683 
L 73.900745 133.573643 
L 82.34797 133.219702 
L 90.795195 132.868233 
L 99.242419 132.519205 
L 107.689644 132.171168 
L 116.136869 131.825531 
L 124.584094 131.482297 
L 133.031318 131.140261 
L 141.478543 130.800344 
L 149.925768 130.462776 
L 158.372993 130.126699 
L 166.820217 129.792387 
L 175.267442 129.460388 
L 183.714667 129.130274 
L 192.161892 128.801454 
L 200.609117 128.474901 
L 209.056341 128.150598 
L 217.503566 127.827285 
L 225.950791 127.506082 
L 234.398016 127.187087 
L 242.84524 126.869675 
L 251.292465 126.553708 
L 259.73969 126.239906 
L 268.186915 125.928254 
L 276.63414 125.617542 
L 285.081364 125.308843 
L 293.528589 125.002258 
L 301.975814 124.697409 
L 310.423039 124.39371 
L 318.870263 124.092086 
L 327.317488 123.792517 
L 335.764713 123.494291 
L 344.211938 123.197523 
L 352.659162 122.902776 
L 361.106387 122.610036 
L 369.553612 122.31839 
L 378.000837 122.028387 
L 386.448062 121.740352 
L 394.895286 121.454266 
L 403.342511 121.169147 
L 411.789736 120.885719 
L 420.236961 120.604216 
L 428.684185 120.324615 
L 437.13141 120.045991 
L 445.578635 119.768973 
L 454.02586 119.493821 
L 462.473085 119.220526 
L 470.920309 118.948354 
L 479.367534 118.677578 
L 487.814759 118.408622 
L 496.261984 118.141482 
L 504.709208 117.875738 
L 513.156433 117.611047 
L 521.603658 117.348133 
L 530.050883 117.086981 
L 538.498107 116.82758 
L 546.945332 116.568856 
L 555.392557 116.311821 
L 563.839782 116.056505 
L 572.287007 115.802902 
L 580.734231 115.550525 
L 589.181456 115.299223 
L 597.628681 115.049603 
L 606.075906 114.801648 
L 614.52313 114.555347 
L 622.970355 114.309885 
L 631.41758 114.06581 
L 639.864805 113.823358 
L 648.31203 113.58252 
L 656.759254 113.343286 
L 665.206479 113.104679 
L 673.653704 112.867601 
L 682.100929 112.632096 
L 690.548153 112.398152 
L 698.995378 112.165759 
L 707.442603 111.933943 
L 715.889828 111.70363 
L 724.337052 111.474844 
L 732.784277 111.247574 
L 741.231502 111.021809 
L 749.678727 110.796745 
L 758.125952 110.572991 
L 766.573176 110.350715 
L 775.020401 110.129905 
L 783.467626 109.910552 
L 791.914851 109.692191 
L 800.362075 109.474786 
L 808.8093 109.258814 
L 817.256525 109.044264 
L 825.70375 108.831125 
L 834.150975 108.619391 
L 842.598199 108.408177 
L 851.045424 108.198313 
L 859.492649 107.989826 
L 867.939874 107.782707 
L 876.387098 107.576947 
L 884.834323 107.372343 
L 893.281548 107.16839 
" clip-path="url(#pb86723ea00)" style="fill: none; stroke: #637939; stroke-width: 2; stroke-linecap: round"/>
   </g>
   <g id="line2d_40">
    <path d="M 48.559071 185.988142 
L 57.006295 185.35787 
L 65.45352 184.730663 
L 73.900745 184.106919 
L 82.34797 183.486574 
L 90.795195 182.868773 
L 99.242419 182.254429 
L 107.689644 181.643552 
L 116.136869 181.035279 
L 124.584094 180.430271 
L 133.031318 179.828731 
L 141.478543 179.229846 
L 149.925768 178.634099 
L 158.372993 178.041808 
L 166.820217 177.452104 
L 175.267442 176.865563 
L 183.714667 176.282522 
L 192.161892 175.70175 
L 200.609117 175.124378 
L 209.056341 174.550219 
L 217.503566 173.978478 
L 225.950791 173.41024 
L 234.398016 172.84469 
L 242.84524 172.282035 
L 251.292465 171.722841 
L 259.73969 171.165737 
L 268.186915 170.612135 
L 276.63414 170.061202 
L 285.081364 169.513122 
L 293.528589 168.968334 
L 301.975814 168.425721 
L 310.423039 167.886641 
L 318.870263 167.34981 
L 327.317488 166.816174 
L 335.764713 166.285247 
L 344.211938 165.757016 
L 352.659162 165.231915 
L 361.106387 164.709073 
L 369.553612 164.189713 
L 378.000837 163.672227 
L 386.448062 163.158322 
L 394.895286 162.646373 
L 403.342511 162.137783 
L 411.789736 161.631381 
L 420.236961 161.128119 
L 428.684185 160.627167 
L 437.13141 160.129195 
L 445.578635 159.633615 
L 454.02586 159.140915 
L 462.473085 158.650626 
L 470.920309 158.163174 
L 479.367534 157.678109 
L 487.814759 157.195899 
L 496.261984 156.715981 
L 504.709208 156.238995 
L 513.156433 155.764144 
L 521.603658 155.292363 
L 530.050883 154.822514 
L 538.498107 154.35592 
L 546.945332 153.890982 
L 555.392557 153.429439 
L 563.839782 152.969501 
L 572.287007 152.512765 
L 580.734231 152.057976 
L 589.181456 151.605986 
L 597.628681 151.156339 
L 606.075906 150.709029 
L 614.52313 150.264509 
L 622.970355 149.821808 
L 631.41758 149.382303 
L 639.864805 148.944263 
L 648.31203 148.509263 
L 656.759254 148.076323 
L 665.206479 147.645775 
L 673.653704 147.217931 
L 682.100929 146.791768 
L 690.548153 146.368658 
L 698.995378 145.947178 
L 707.442603 145.528338 
L 715.889828 145.111941 
L 724.337052 144.697345 
L 732.784277 144.285696 
L 741.231502 143.875589 
L 749.678727 143.468081 
L 758.125952 143.063025 
L 766.573176 142.659604 
L 775.020401 142.259035 
L 783.467626 141.860205 
L 791.914851 141.463631 
L 800.362075 141.069842 
L 808.8093 140.677216 
L 817.256525 140.287351 
L 825.70375 139.899736 
L 834.150975 139.513732 
L 842.598199 139.130436 
L 851.045424 138.748957 
L 859.492649 138.369438 
L 867.939874 137.992576 
L 876.387098 137.617192 
L 884.834323 137.244023 
L 893.281548 136.873453 
" clip-path="url(#pb86723ea00)" style="fill: none; stroke: #b5cf6b; stroke-width: 2; stroke-linecap: round"/>
   </g>
   <g id="line2d_41">
    <path d="M 48.559071 296.884073 
L 57.006295 295.772372 
L 65.45352 294.664708 
L 73.900745 293.561094 
L 82.34797 292.461407 
L 90.795195 291.365519 
L 99.242419 290.273667 
L 107.689644 289.185805 
L 116.136869 288.102005 
L 124.584094 287.022214 
L 133.031318 285.946258 
L 141.478543 284.874322 
L 149.925768 283.806385 
L 158.372993 282.742425 
L 166.820217 281.682549 
L 175.267442 280.626663 
L 183.714667 279.574818 
L 192.161892 278.527008 
L 200.609117 277.483209 
L 209.056341 276.443508 
L 217.503566 275.407799 
L 225.950791 274.375986 
L 234.398016 273.348244 
L 242.84524 272.324521 
L 251.292465 271.304934 
L 259.73969 270.289438 
L 268.186915 269.278031 
L 276.63414 268.270358 
L 285.081364 267.26684 
L 293.528589 266.267489 
L 301.975814 265.272237 
L 310.423039 264.280717 
L 318.870263 263.293365 
L 327.317488 262.310352 
L 335.764713 261.33085 
L 344.211938 260.355668 
L 352.659162 259.384583 
L 361.106387 258.417258 
L 369.553612 257.454262 
L 378.000837 256.495012 
L 386.448062 255.539944 
L 394.895286 254.588868 
L 403.342511 253.641719 
L 411.789736 252.698721 
L 420.236961 251.759554 
L 428.684185 250.824559 
L 437.13141 249.893393 
L 445.578635 248.96632 
L 454.02586 248.043227 
L 462.473085 247.123994 
L 470.920309 246.209024 
L 479.367534 245.297613 
L 487.814759 244.390455 
L 496.261984 243.487162 
L 504.709208 242.587712 
L 513.156433 241.692543 
L 521.603658 240.800934 
L 530.050883 239.913363 
L 538.498107 239.029936 
L 546.945332 238.150133 
L 555.392557 237.274262 
L 563.839782 236.402474 
L 572.287007 235.534636 
L 580.734231 234.670309 
L 589.181456 233.810102 
L 597.628681 232.953842 
L 606.075906 232.101545 
L 614.52313 231.252729 
L 622.970355 230.407844 
L 631.41758 229.56696 
L 639.864805 228.729924 
L 648.31203 227.896843 
L 656.759254 227.067217 
L 665.206479 226.241452 
L 673.653704 225.419542 
L 682.100929 224.60145 
L 690.548153 223.787204 
L 698.995378 222.976732 
L 707.442603 222.170046 
L 715.889828 221.367138 
L 724.337052 220.567765 
L 732.784277 219.772138 
L 741.231502 218.980265 
L 749.678727 218.19207 
L 758.125952 217.40766 
L 766.573176 216.6269 
L 775.020401 215.849837 
L 783.467626 215.076482 
L 791.914851 214.306732 
L 800.362075 213.540676 
L 808.8093 212.778263 
L 817.256525 212.019446 
L 825.70375 211.264308 
L 834.150975 210.512741 
L 842.598199 209.764787 
L 851.045424 209.020449 
L 859.492649 208.27969 
L 867.939874 207.542502 
L 876.387098 206.808921 
L 884.834323 206.078808 
L 893.281548 205.352078 
" clip-path="url(#pb86723ea00)" style="fill: none; stroke: #8c6d31; stroke-width: 2; stroke-linecap: round"/>
   </g>
   <g id="line2d_42">
    <path d="M 48.559071 398.672896 
L 57.006295 397.333255 
L 65.45352 395.994432 
L 73.900745 394.656513 
L 82.34797 393.319429 
L 90.795195 391.983483 
L 99.242419 390.648529 
L 107.689644 389.314772 
L 116.136869 387.982311 
L 124.584094 386.651168 
L 133.031318 385.321361 
L 141.478543 383.993049 
L 149.925768 382.666255 
L 158.372993 381.341067 
L 166.820217 380.017547 
L 175.267442 378.695736 
L 183.714667 377.375729 
L 192.161892 376.057623 
L 200.609117 374.741312 
L 209.056341 373.427058 
L 217.503566 372.114817 
L 225.950791 370.80467 
L 234.398016 369.496678 
L 242.84524 368.190841 
L 251.292465 366.887315 
L 259.73969 365.586118 
L 268.186915 364.287211 
L 276.63414 362.990688 
L 285.081364 361.69677 
L 293.528589 360.40517 
L 301.975814 359.116271 
L 310.423039 357.829871 
L 318.870263 356.546107 
L 327.317488 355.265176 
L 335.764713 353.986893 
L 344.211938 352.711349 
L 352.659162 351.438598 
L 361.106387 350.168773 
L 369.553612 348.901821 
L 378.000837 347.637824 
L 386.448062 346.376842 
L 394.895286 345.118756 
L 403.342511 343.863711 
L 411.789736 342.611821 
L 420.236961 341.363125 
L 428.684185 340.117383 
L 437.13141 338.874951 
L 445.578635 337.635685 
L 454.02586 336.39969 
L 462.473085 335.166926 
L 470.920309 333.937574 
L 479.367534 332.711394 
L 487.814759 331.488639 
L 496.261984 330.269411 
L 504.709208 329.053377 
L 513.156433 327.840857 
L 521.603658 326.631823 
L 530.050883 325.426299 
L 538.498107 324.224272 
L 546.945332 323.025784 
L 555.392557 321.830854 
L 563.839782 320.639473 
L 572.287007 319.451699 
L 580.734231 318.267517 
L 589.181456 317.087053 
L 597.628681 315.910214 
L 606.075906 314.737149 
L 614.52313 313.567675 
L 622.970355 312.40182 
L 631.41758 311.239849 
L 639.864805 310.081676 
L 648.31203 308.927049 
L 656.759254 307.776354 
L 665.206479 306.629433 
L 673.653704 305.486262 
L 682.100929 304.347034 
L 690.548153 303.211476 
L 698.995378 302.07991 
L 707.442603 300.952081 
L 715.889828 299.828181 
L 724.337052 298.708254 
L 732.784277 297.592001 
L 741.231502 296.479847 
L 749.678727 295.371569 
L 758.125952 294.267089 
L 766.573176 293.166612 
L 775.020401 292.070176 
L 783.467626 290.977639 
L 791.914851 289.888884 
L 800.362075 288.804186 
L 808.8093 287.723488 
L 817.256525 286.646768 
L 825.70375 285.574085 
L 834.150975 284.505349 
L 842.598199 283.440604 
L 851.045424 282.379858 
L 859.492649 281.323083 
L 867.939874 280.270289 
L 876.387098 279.221511 
L 884.834323 278.176705 
L 893.281548 277.135906 
" clip-path="url(#pb86723ea00)" style="fill: none; stroke: #e7cb94; stroke-width: 2; stroke-linecap: round"/>
   </g>
   <g id="line2d_43">
    <path d="M 48.559071 450.445411 
L 57.006295 449.158199 
L 65.45352 447.867164 
L 73.900745 446.572493 
L 82.34797 445.274302 
L 90.795195 443.972759 
L 99.242419 442.668022 
L 107.689644 441.360206 
L 116.136869 440.049528 
L 124.584094 438.736068 
L 133.031318 437.419993 
L 141.478543 436.101466 
L 149.925768 434.78057 
L 158.372993 433.457481 
L 166.820217 432.132322 
L 175.267442 430.805226 
L 183.714667 429.476336 
L 192.161892 428.145744 
L 200.609117 426.813606 
L 209.056341 425.480031 
L 217.503566 424.145135 
L 225.950791 422.809044 
L 234.398016 421.471858 
L 242.84524 420.133716 
L 251.292465 418.79475 
L 259.73969 417.455013 
L 268.186915 416.114637 
L 276.63414 414.773696 
L 285.081364 413.432397 
L 293.528589 412.090739 
L 301.975814 410.748882 
L 310.423039 409.406911 
L 318.870263 408.064867 
L 327.317488 406.722955 
L 335.764713 405.381169 
L 344.211938 404.039679 
L 352.659162 402.6985 
L 361.106387 401.35778 
L 369.553612 400.017577 
L 378.000837 398.677991 
L 386.448062 397.339111 
L 394.895286 396.001018 
L 403.342511 394.663808 
L 411.789736 393.327457 
L 420.236961 391.992233 
L 428.684185 390.657998 
L 437.13141 389.324967 
L 445.578635 387.99322 
L 454.02586 386.662765 
L 462.473085 385.333698 
L 470.920309 384.00606 
L 479.367534 382.679997 
L 487.814759 381.355529 
L 496.261984 380.032686 
L 504.709208 378.711583 
L 513.156433 377.392272 
L 521.603658 376.074885 
L 530.050883 374.759275 
L 538.498107 373.445666 
L 546.945332 372.13411 
L 555.392557 370.824647 
L 563.839782 369.517311 
L 572.287007 368.212182 
L 580.734231 366.9093 
L 589.181456 365.608814 
L 597.628681 364.310516 
L 606.075906 363.014695 
L 614.52313 361.721395 
L 622.970355 360.430451 
L 631.41758 359.142198 
L 639.864805 357.856458 
L 648.31203 356.573364 
L 656.759254 355.292986 
L 665.206479 354.015388 
L 673.653704 352.740507 
L 682.100929 351.468396 
L 690.548153 350.199172 
L 698.995378 348.932835 
L 707.442603 347.669463 
L 715.889828 346.409025 
L 724.337052 345.151537 
L 732.784277 343.897128 
L 741.231502 342.645864 
L 749.678727 341.397675 
L 758.125952 340.152571 
L 766.573176 338.910764 
L 775.020401 337.672005 
L 783.467626 336.436671 
L 791.914851 335.204397 
L 800.362075 333.975637 
L 808.8093 332.750024 
L 817.256525 331.527808 
L 825.70375 330.309106 
L 834.150975 329.093713 
L 842.598199 327.881686 
L 851.045424 326.673177 
L 859.492649 325.468166 
L 867.939874 324.266664 
L 876.387098 323.068714 
L 884.834323 321.874288 
L 893.281548 320.683429 
" clip-path="url(#pb86723ea00)" style="fill: none; stroke: #ad494a; stroke-width: 2; stroke-linecap: round"/>
   </g>
   <g id="line2d_44">
    <path d="M 48.559071 478.782433 
L 57.006295 477.635558 
L 65.45352 476.480364 
L 73.900745 475.317064 
L 82.34797 474.145882 
L 90.795195 472.967051 
L 99.242419 471.780791 
L 107.689644 470.587289 
L 116.136869 469.3868 
L 124.584094 468.179511 
L 133.031318 466.96562 
L 141.478543 465.745371 
L 149.925768 464.518927 
L 158.372993 463.28647 
L 166.820217 462.048249 
L 175.267442 460.804415 
L 183.714667 459.555164 
L 192.161892 458.300691 
L 200.609117 457.041154 
L 209.056341 455.776781 
L 217.503566 454.507679 
L 225.950791 453.234079 
L 234.398016 451.956129 
L 242.84524 450.67398 
L 251.292465 449.387843 
L 259.73969 448.097858 
L 268.186915 446.804153 
L 276.63414 445.506923 
L 285.081364 444.206332 
L 293.528589 442.902519 
L 301.975814 441.595626 
L 310.423039 440.285791 
L 318.870263 438.973146 
L 327.317488 437.65793 
L 335.764713 436.340154 
L 344.211938 435.020053 
L 352.659162 433.697716 
L 361.106387 432.37328 
L 369.553612 431.046877 
L 378.000837 429.718658 
L 386.448062 428.38873 
L 394.895286 427.057224 
L 403.342511 425.724238 
L 411.789736 424.389938 
L 420.236961 423.05443 
L 428.684185 421.7178 
L 437.13141 420.380192 
L 445.578635 419.041697 
L 454.02586 417.702436 
L 462.473085 416.362542 
L 470.920309 415.022104 
L 479.367534 413.681191 
L 487.814759 412.339975 
L 496.261984 410.998482 
L 504.709208 409.656848 
L 513.156433 408.315214 
L 521.603658 406.973639 
L 530.050883 405.632187 
L 538.498107 404.290953 
L 546.945332 402.95009 
L 555.392557 401.609662 
L 563.839782 400.269688 
L 572.287007 398.930341 
L 580.734231 397.59167 
L 589.181456 396.25383 
L 597.628681 394.916713 
L 606.075906 393.58059 
L 614.52313 392.245481 
L 622.970355 390.911427 
L 631.41758 389.578524 
L 639.864805 388.246849 
L 648.31203 386.916516 
L 656.759254 385.587524 
L 665.206479 384.259989 
L 673.653704 382.933984 
L 682.100929 381.609593 
L 690.548153 380.286744 
L 698.995378 378.965676 
L 707.442603 377.646335 
L 715.889828 376.328931 
L 724.337052 375.013306 
L 732.784277 373.699676 
L 741.231502 372.388086 
L 749.678727 371.078545 
L 758.125952 369.771169 
L 766.573176 368.465939 
L 775.020401 367.162971 
L 783.467626 365.862352 
L 791.914851 364.563977 
L 800.362075 363.268001 
L 808.8093 361.974588 
L 817.256525 360.683476 
L 825.70375 359.395114 
L 834.150975 358.109143 
L 842.598199 356.825882 
L 851.045424 355.545369 
L 859.492649 354.267504 
L 867.939874 352.99236 
L 876.387098 351.720064 
L 884.834323 350.450599 
L 893.281548 349.184025 
" clip-path="url(#pb86723ea00)" style="fill: none; stroke: #e7969c; stroke-width: 2; stroke-linecap: round"/>
   </g>
   <g id="line2d_45">
    <path d="M 48.559071 495.098674 
L 57.006295 494.110744 
L 65.45352 493.1105 
L 73.900745 492.098219 
L 82.34797 491.074187 
L 90.795195 490.038693 
L 99.242419 488.992003 
L 107.689644 487.934382 
L 116.136869 486.86613 
L 124.584094 485.787496 
L 133.031318 484.698721 
L 141.478543 483.60011 
L 149.925768 482.491873 
L 158.372993 481.374256 
L 166.820217 480.247549 
L 175.267442 479.111959 
L 183.714667 477.967734 
L 192.161892 476.815112 
L 200.609117 475.654305 
L 209.056341 474.485585 
L 217.503566 473.309127 
L 225.950791 472.12518 
L 234.398016 470.933958 
L 242.84524 469.735644 
L 251.292465 468.530514 
L 259.73969 467.318723 
L 268.186915 466.100474 
L 276.63414 464.87599 
L 285.081364 463.645473 
L 293.528589 462.409115 
L 301.975814 461.167083 
L 310.423039 459.919599 
L 318.870263 458.666803 
L 327.317488 457.408952 
L 335.764713 456.146148 
L 344.211938 454.878618 
L 352.659162 453.606495 
L 361.106387 452.330015 
L 369.553612 451.049279 
L 378.000837 449.764501 
L 386.448062 448.475814 
L 394.895286 447.183387 
L 403.342511 445.887381 
L 411.789736 444.587964 
L 420.236961 443.285286 
L 428.684185 441.979482 
L 437.13141 440.670699 
L 445.578635 439.359089 
L 454.02586 438.044808 
L 462.473085 436.727979 
L 470.920309 435.408751 
L 479.367534 434.087253 
L 487.814759 432.763636 
L 496.261984 431.438017 
L 504.709208 430.110527 
L 513.156433 428.781282 
L 521.603658 427.450452 
L 530.050883 426.118097 
L 538.498107 424.784374 
L 546.945332 423.449414 
L 555.392557 422.113329 
L 563.839782 420.77618 
L 572.287007 419.438154 
L 580.734231 418.099323 
L 589.181456 416.75983 
L 597.628681 415.419718 
L 606.075906 414.079192 
L 614.52313 412.738234 
L 622.970355 411.39703 
L 631.41758 410.055696 
L 639.864805 408.714239 
L 648.31203 407.372819 
L 656.759254 406.031497 
L 665.206479 404.690451 
L 673.653704 403.34966 
L 682.100929 402.009309 
L 690.548153 400.669422 
L 698.995378 399.330076 
L 707.442603 397.991415 
L 715.889828 396.653517 
L 724.337052 395.316363 
L 732.784277 393.980158 
L 741.231502 392.644964 
L 749.678727 391.310765 
L 758.125952 389.977736 
L 766.573176 388.645914 
L 775.020401 387.315385 
L 783.467626 385.986211 
L 791.914851 384.65841 
L 800.362075 383.332121 
L 808.8093 382.007414 
L 817.256525 380.684364 
L 825.70375 379.36293 
L 834.150975 378.043346 
L 842.598199 376.725452 
L 851.045424 375.409517 
L 859.492649 374.095554 
L 867.939874 372.783559 
L 876.387098 371.473602 
L 884.834323 370.165757 
L 893.281548 368.860101 
" clip-path="url(#pb86723ea00)" style="fill: none; stroke: #a55194; stroke-width: 2; stroke-linecap: round"/>
   </g>
   <g id="line2d_46">
    <path d="M 48.559071 504.838159 
L 57.006295 504.001978 
L 65.45352 503.150084 
L 73.900745 502.28281 
L 82.34797 501.40049 
L 90.795195 500.503455 
L 99.242419 499.592031 
L 107.689644 498.66652 
L 116.136869 497.727269 
L 124.584094 496.774578 
L 133.031318 495.808733 
L 141.478543 494.830072 
L 149.925768 493.838867 
L 158.372993 492.835403 
L 166.820217 491.820002 
L 175.267442 490.792924 
L 183.714667 489.754455 
L 192.161892 488.704876 
L 200.609117 487.644447 
L 209.056341 486.573462 
L 217.503566 485.492148 
L 225.950791 484.400792 
L 234.398016 483.299648 
L 242.84524 482.188943 
L 251.292465 481.068965 
L 259.73969 479.939933 
L 268.186915 478.802094 
L 276.63414 477.655678 
L 285.081364 476.500937 
L 293.528589 475.338091 
L 301.975814 474.167363 
L 310.423039 472.988985 
L 318.870263 471.803141 
L 327.317488 470.610129 
L 335.764713 469.410066 
L 344.211938 468.203244 
L 352.659162 466.989794 
L 361.106387 465.76999 
L 369.553612 464.543977 
L 378.000837 463.311982 
L 386.448062 462.074195 
L 394.895286 460.830802 
L 403.342511 459.581994 
L 411.789736 458.327958 
L 420.236961 457.068859 
L 428.684185 455.804905 
L 437.13141 454.536248 
L 445.578635 453.263078 
L 454.02586 451.985548 
L 462.473085 450.703859 
L 470.920309 449.418134 
L 479.367534 448.128562 
L 487.814759 446.83528 
L 496.261984 445.538487 
L 504.709208 444.23831 
L 513.156433 442.934895 
L 521.603658 441.628411 
L 530.050883 440.318995 
L 538.498107 439.006805 
L 546.945332 437.691939 
L 555.392557 436.374592 
L 563.839782 435.054885 
L 572.287007 433.732938 
L 580.734231 432.408914 
L 589.181456 431.082934 
L 597.628681 429.755078 
L 606.075906 428.425527 
L 614.52313 427.09443 
L 622.970355 425.761835 
L 631.41758 424.427928 
L 639.864805 423.092758 
L 648.31203 421.756508 
L 656.759254 420.419281 
L 665.206479 419.081177 
L 673.653704 417.742296 
L 682.100929 416.402764 
L 690.548153 415.062661 
L 698.995378 413.722106 
L 707.442603 412.381232 
L 715.889828 411.040148 
L 724.337052 409.698867 
L 732.784277 408.357572 
L 741.231502 407.01632 
L 749.678727 405.675166 
L 758.125952 404.334344 
L 766.573176 402.993763 
L 775.020401 401.653667 
L 783.467626 400.3141 
L 791.914851 398.975054 
L 800.362075 397.636721 
L 808.8093 396.299108 
L 817.256525 394.962338 
L 825.70375 393.62659 
L 834.150975 392.291717 
L 842.598199 390.95802 
L 851.045424 389.625418 
L 859.492649 388.294042 
L 867.939874 386.963975 
L 876.387098 385.635305 
L 884.834323 384.308062 
L 893.281548 382.982356 
" clip-path="url(#pb86723ea00)" style="fill: none; stroke: #de9ed6; stroke-width: 2; stroke-linecap: round"/>
   </g>
   <g id="patch_3">
    <path d="M 48.559071 521.153031 
L 48.559071 51.564121 
" style="fill: none"/>
   </g>
   <g id="patch_4">
    <path d="M 935.517672 521.153031 
L 935.517672 51.564121 
" style="fill: none"/>
   </g>
   <g id="patch_5">
    <path d="M 48.559071 521.153031 
L 935.517672 521.153031 
" style="fill: none"/>
   </g>
   <g id="patch_6">
    <path d="M 48.559071 51.564121 
L 935.517672 51.564121 
" style="fill: none"/>
   </g>
   <g id="patch_7">
    <path d="M 470.920309 79.631244 
Q 470.920309 260.163308 470.920309 439.018321 
" style="fill: none; stroke: #000000; stroke-width: 1.5; stroke-linecap: round"/>
    <path d="M 474.120309 432.618321 
L 470.920309 439.018321 
L 467.720309 432.618321 
" style="fill: none; stroke: #000000; stroke-width: 1.5; stroke-linecap: round"/>
   </g>
   <g id="text_20">
    <!-- Time -->
    <g style="fill: #262626" transform="translate(492.038371 439.210003) scale(0.18 -0.18)">
     <defs>
      <path id="CMR17-54" d="M 3981 4326 
L 288 4326 
L 179 2918 
L 294 2918 
C 378 3976 467 4160 1453 4160 
C 1568 4160 1754 4160 1805 4154 
C 1926 4135 1926 4058 1926 3912 
L 1926 459 
C 1926 230 1907 160 1376 160 
L 1197 160 
L 1197 0 
C 1504 0 1824 0 2138 0 
C 2451 0 2771 0 3078 0 
L 3078 160 
L 2899 160 
C 2368 160 2349 230 2349 459 
L 2349 3912 
C 2349 4052 2349 4129 2464 4154 
C 2515 4160 2701 4160 2816 4160 
C 3795 4160 3891 3976 3974 2918 
L 4090 2918 
L 3981 4326 
z
" transform="scale(0.015625)"/>
      <path id="CMR17-69" d="M 992 3909 
C 992 4049 877 4170 730 4170 
C 589 4170 467 4056 467 3909 
C 467 3769 582 3648 730 3648 
C 870 3648 992 3763 992 3909 
z
M 243 2706 
L 243 2541 
C 602 2541 653 2502 653 2197 
L 653 427 
C 653 184 627 153 218 153 
L 218 -13 
C 371 0 646 0 806 0 
C 960 0 1222 0 1370 -13 
L 1370 153 
C 992 153 979 191 979 420 
L 979 2776 
L 243 2706 
z
" transform="scale(0.015625)"/>
      <path id="CMR17-6d" d="M 4326 1933 
C 4326 2252 4269 2790 3507 2790 
C 3072 2790 2771 2496 2656 2151 
L 2650 2151 
C 2573 2676 2195 2790 1837 2790 
C 1331 2790 1069 2400 973 2144 
L 966 2144 
L 966 2790 
L 211 2720 
L 211 2554 
C 589 2554 646 2515 646 2208 
L 646 428 
C 646 184 621 153 211 153 
L 211 -13 
C 365 0 646 0 813 0 
C 979 0 1267 0 1421 -13 
L 1421 153 
C 1011 153 986 178 986 428 
L 986 1658 
C 986 2247 1344 2688 1792 2688 
C 2266 2688 2317 2266 2317 1958 
L 2317 428 
C 2317 184 2291 153 1882 153 
L 1882 -13 
C 2035 0 2317 0 2483 0 
C 2650 0 2938 0 3091 -13 
L 3091 153 
C 2682 153 2656 178 2656 428 
L 2656 1658 
C 2656 2247 3014 2688 3462 2688 
C 3936 2688 3987 2266 3987 1958 
L 3987 428 
C 3987 184 3962 153 3552 153 
L 3552 -13 
C 3706 0 3987 0 4154 0 
C 4320 0 4608 0 4762 -13 
L 4762 153 
C 4352 153 4326 178 4326 428 
L 4326 1933 
z
" transform="scale(0.015625)"/>
      <path id="CMR17-65" d="M 2438 1472 
C 2464 1498 2464 1511 2464 1576 
C 2464 2238 2118 2816 1389 2816 
C 710 2816 173 2169 173 1383 
C 173 551 781 -64 1459 -64 
C 2176 -64 2458 607 2458 740 
C 2458 784 2419 784 2406 784 
C 2362 784 2355 771 2330 696 
C 2189 265 1837 51 1504 51 
C 1229 51 954 203 781 480 
C 582 803 582 1176 582 1472 
L 2438 1472 
z
M 589 1568 
C 634 2505 1126 2714 1382 2714 
C 1818 2714 2112 2297 2118 1568 
L 589 1568 
z
" transform="scale(0.015625)"/>
     </defs>
     <use xlink:href="#CMR17-54" transform="scale(0.996264)"/>
     <use xlink:href="#CMR17-69" transform="translate(66.509881 0) scale(0.996264)"/>
     <use xlink:href="#CMR17-6d" transform="translate(91.380939 0) scale(0.996264)"/>
     <use xlink:href="#CMR17-65" transform="translate(168.300529 0) scale(0.996264)"/>
    </g>
   </g>
   <g id="legend_1">
    <g id="line2d_47">
     <path d="M 948.117672 197.198434 
L 962.117672 197.198434 
L 976.117672 197.198434 
" style="fill: none; stroke: #393b79; stroke-width: 2; stroke-linecap: round"/>
    </g>
    <g id="text_21">
     <!-- t = 0.00 -->
     <g style="fill: #262626" transform="translate(987.317672 202.098434) scale(0.14 -0.14)">
      <defs>
       <path id="CMR17-74" d="M 966 2560 
L 1862 2560 
L 1862 2725 
L 966 2725 
L 966 3904 
L 851 3904 
C 838 3245 614 2668 70 2668 
L 70 2560 
L 627 2560 
L 627 771 
C 627 650 627 -64 1370 -64 
C 1747 -64 1965 306 1965 777 
L 1965 1140 
L 1850 1140 
L 1850 783 
C 1850 344 1677 51 1408 51 
C 1222 51 966 178 966 758 
L 966 2560 
z
" transform="scale(0.015625)"/>
       <path id="CMR17-3d" d="M 4115 2017 
C 4211 2017 4307 2017 4307 2125 
C 4307 2240 4198 2240 4090 2240 
L 512 2240 
C 403 2240 294 2240 294 2125 
C 294 2017 390 2017 486 2017 
L 4115 2017 
z
M 4090 896 
C 4198 896 4307 896 4307 1011 
C 4307 1119 4211 1119 4115 1119 
L 486 1119 
C 390 1119 294 1119 294 1011 
C 294 896 403 896 512 896 
L 4090 896 
z
" transform="scale(0.015625)"/>
       <path id="CMR17-2e" d="M 1062 261 
C 1062 420 934 522 800 522 
C 672 522 538 420 538 261 
C 538 102 666 0 800 0 
C 928 0 1062 102 1062 261 
z
" transform="scale(0.015625)"/>
      </defs>
      <use xlink:href="#CMR17-74" transform="scale(0.996264)"/>
      <use xlink:href="#CMR17-3d" transform="translate(65.356734 0) scale(0.996264)"/>
      <use xlink:href="#CMR17-30" transform="translate(167.147489 0) scale(0.996264)"/>
      <use xlink:href="#CMR17-2e" transform="translate(212.837966 0) scale(0.996264)"/>
      <use xlink:href="#CMR17-30" transform="translate(237.709025 0) scale(0.996264)"/>
      <use xlink:href="#CMR17-30" transform="translate(283.399502 0) scale(0.996264)"/>
     </g>
    </g>
    <g id="line2d_48">
     <path d="M 948.117672 216.710462 
L 962.117672 216.710462 
L 976.117672 216.710462 
" style="fill: none; stroke: #6b6ecf; stroke-width: 2; stroke-linecap: round"/>
    </g>
    <g id="text_22">
     <!-- t = 10.00 -->
     <g style="fill: #262626" transform="translate(987.317672 221.610462) scale(0.14 -0.14)">
      <use xlink:href="#CMR17-74" transform="scale(0.996264)"/>
      <use xlink:href="#CMR17-3d" transform="translate(65.356734 0) scale(0.996264)"/>
      <use xlink:href="#CMR17-31" transform="translate(167.147489 0) scale(0.996264)"/>
      <use xlink:href="#CMR17-30" transform="translate(212.837966 0) scale(0.996264)"/>
      <use xlink:href="#CMR17-2e" transform="translate(258.528443 0) scale(0.996264)"/>
      <use xlink:href="#CMR17-30" transform="translate(283.399502 0) scale(0.996264)"/>
      <use xlink:href="#CMR17-30" transform="translate(329.089979 0) scale(0.996264)"/>
     </g>
    </g>
    <g id="line2d_49">
     <path d="M 948.117672 236.222491 
L 962.117672 236.222491 
L 976.117672 236.222491 
" style="fill: none; stroke: #637939; stroke-width: 2; stroke-linecap: round"/>
    </g>
    <g id="text_23">
     <!-- t = 50.00 -->
     <g style="fill: #262626" transform="translate(987.317672 241.122491) scale(0.14 -0.14)">
      <use xlink:href="#CMR17-74" transform="scale(0.996264)"/>
      <use xlink:href="#CMR17-3d" transform="translate(65.356734 0) scale(0.996264)"/>
      <use xlink:href="#CMR17-35" transform="translate(167.147489 0) scale(0.996264)"/>
      <use xlink:href="#CMR17-30" transform="translate(212.837966 0) scale(0.996264)"/>
      <use xlink:href="#CMR17-2e" transform="translate(258.528443 0) scale(0.996264)"/>
      <use xlink:href="#CMR17-30" transform="translate(283.399502 0) scale(0.996264)"/>
      <use xlink:href="#CMR17-30" transform="translate(329.089979 0) scale(0.996264)"/>
     </g>
    </g>
    <g id="line2d_50">
     <path d="M 948.117672 255.734519 
L 962.117672 255.734519 
L 976.117672 255.734519 
" style="fill: none; stroke: #b5cf6b; stroke-width: 2; stroke-linecap: round"/>
    </g>
    <g id="text_24">
     <!-- t = 100.00 -->
     <g style="fill: #262626" transform="translate(987.317672 260.634519) scale(0.14 -0.14)">
      <use xlink:href="#CMR17-74" transform="scale(0.996264)"/>
      <use xlink:href="#CMR17-3d" transform="translate(65.356734 0) scale(0.996264)"/>
      <use xlink:href="#CMR17-31" transform="translate(167.147489 0) scale(0.996264)"/>
      <use xlink:href="#CMR17-30" transform="translate(212.837966 0) scale(0.996264)"/>
      <use xlink:href="#CMR17-30" transform="translate(258.528443 0) scale(0.996264)"/>
      <use xlink:href="#CMR17-2e" transform="translate(304.21892 0) scale(0.996264)"/>
      <use xlink:href="#CMR17-30" transform="translate(329.089979 0) scale(0.996264)"/>
      <use xlink:href="#CMR17-30" transform="translate(374.780456 0) scale(0.996264)"/>
     </g>
    </g>
    <g id="line2d_51">
     <path d="M 948.117672 275.246547 
L 962.117672 275.246547 
L 976.117672 275.246547 
" style="fill: none; stroke: #8c6d31; stroke-width: 2; stroke-linecap: round"/>
    </g>
    <g id="text_25">
     <!-- t = 250.00 -->
     <g style="fill: #262626" transform="translate(987.317672 280.146547) scale(0.14 -0.14)">
      <use xlink:href="#CMR17-74" transform="scale(0.996264)"/>
      <use xlink:href="#CMR17-3d" transform="translate(65.356734 0) scale(0.996264)"/>
      <use xlink:href="#CMR17-32" transform="translate(167.147489 0) scale(0.996264)"/>
      <use xlink:href="#CMR17-35" transform="translate(212.837966 0) scale(0.996264)"/>
      <use xlink:href="#CMR17-30" transform="translate(258.528443 0) scale(0.996264)"/>
      <use xlink:href="#CMR17-2e" transform="translate(304.21892 0) scale(0.996264)"/>
      <use xlink:href="#CMR17-30" transform="translate(329.089979 0) scale(0.996264)"/>
      <use xlink:href="#CMR17-30" transform="translate(374.780456 0) scale(0.996264)"/>
     </g>
    </g>
    <g id="line2d_52">
     <path d="M 948.117672 294.758576 
L 962.117672 294.758576 
L 976.117672 294.758576 
" style="fill: none; stroke: #e7cb94; stroke-width: 2; stroke-linecap: round"/>
    </g>
    <g id="text_26">
     <!-- t = 500.00 -->
     <g style="fill: #262626" transform="translate(987.317672 299.658576) scale(0.14 -0.14)">
      <use xlink:href="#CMR17-74" transform="scale(0.996264)"/>
      <use xlink:href="#CMR17-3d" transform="translate(65.356734 0) scale(0.996264)"/>
      <use xlink:href="#CMR17-35" transform="translate(167.147489 0) scale(0.996264)"/>
      <use xlink:href="#CMR17-30" transform="translate(212.837966 0) scale(0.996264)"/>
      <use xlink:href="#CMR17-30" transform="translate(258.528443 0) scale(0.996264)"/>
      <use xlink:href="#CMR17-2e" transform="translate(304.21892 0) scale(0.996264)"/>
      <use xlink:href="#CMR17-30" transform="translate(329.089979 0) scale(0.996264)"/>
      <use xlink:href="#CMR17-30" transform="translate(374.780456 0) scale(0.996264)"/>
     </g>
    </g>
    <g id="line2d_53">
     <path d="M 948.117672 314.270604 
L 962.117672 314.270604 
L 976.117672 314.270604 
" style="fill: none; stroke: #ad494a; stroke-width: 2; stroke-linecap: round"/>
    </g>
    <g id="text_27">
     <!-- t = 750.00 -->
     <g style="fill: #262626" transform="translate(987.317672 319.170604) scale(0.14 -0.14)">
      <use xlink:href="#CMR17-74" transform="scale(0.996264)"/>
      <use xlink:href="#CMR17-3d" transform="translate(65.356734 0) scale(0.996264)"/>
      <use xlink:href="#CMR17-37" transform="translate(167.147489 0) scale(0.996264)"/>
      <use xlink:href="#CMR17-35" transform="translate(212.837966 0) scale(0.996264)"/>
      <use xlink:href="#CMR17-30" transform="translate(258.528443 0) scale(0.996264)"/>
      <use xlink:href="#CMR17-2e" transform="translate(304.21892 0) scale(0.996264)"/>
      <use xlink:href="#CMR17-30" transform="translate(329.089979 0) scale(0.996264)"/>
      <use xlink:href="#CMR17-30" transform="translate(374.780456 0) scale(0.996264)"/>
     </g>
    </g>
    <g id="line2d_54">
     <path d="M 948.117672 333.782633 
L 962.117672 333.782633 
L 976.117672 333.782633 
" style="fill: none; stroke: #e7969c; stroke-width: 2; stroke-linecap: round"/>
    </g>
    <g id="text_28">
     <!-- t = 1000.00 -->
     <g style="fill: #262626" transform="translate(987.317672 338.682633) scale(0.14 -0.14)">
      <use xlink:href="#CMR17-74" transform="scale(0.996264)"/>
      <use xlink:href="#CMR17-3d" transform="translate(65.356734 0) scale(0.996264)"/>
      <use xlink:href="#CMR17-31" transform="translate(167.147489 0) scale(0.996264)"/>
      <use xlink:href="#CMR17-30" transform="translate(212.837966 0) scale(0.996264)"/>
      <use xlink:href="#CMR17-30" transform="translate(258.528443 0) scale(0.996264)"/>
      <use xlink:href="#CMR17-30" transform="translate(304.21892 0) scale(0.996264)"/>
      <use xlink:href="#CMR17-2e" transform="translate(349.909397 0) scale(0.996264)"/>
      <use xlink:href="#CMR17-30" transform="translate(374.780456 0) scale(0.996264)"/>
      <use xlink:href="#CMR17-30" transform="translate(420.470933 0) scale(0.996264)"/>
     </g>
    </g>
    <g id="line2d_55">
     <path d="M 948.117672 353.294661 
L 962.117672 353.294661 
L 976.117672 353.294661 
" style="fill: none; stroke: #a55194; stroke-width: 2; stroke-linecap: round"/>
    </g>
    <g id="text_29">
     <!-- t = 1250.00 -->
     <g style="fill: #262626" transform="translate(987.317672 358.194661) scale(0.14 -0.14)">
      <use xlink:href="#CMR17-74" transform="scale(0.996264)"/>
      <use xlink:href="#CMR17-3d" transform="translate(65.356734 0) scale(0.996264)"/>
      <use xlink:href="#CMR17-31" transform="translate(167.147489 0) scale(0.996264)"/>
      <use xlink:href="#CMR17-32" transform="translate(212.837966 0) scale(0.996264)"/>
      <use xlink:href="#CMR17-35" transform="translate(258.528443 0) scale(0.996264)"/>
      <use xlink:href="#CMR17-30" transform="translate(304.21892 0) scale(0.996264)"/>
      <use xlink:href="#CMR17-2e" transform="translate(349.909397 0) scale(0.996264)"/>
      <use xlink:href="#CMR17-30" transform="translate(374.780456 0) scale(0.996264)"/>
      <use xlink:href="#CMR17-30" transform="translate(420.470933 0) scale(0.996264)"/>
     </g>
    </g>
    <g id="line2d_56">
     <path d="M 948.117672 372.806689 
L 962.117672 372.806689 
L 976.117672 372.806689 
" style="fill: none; stroke: #de9ed6; stroke-width: 2; stroke-linecap: round"/>
    </g>
    <g id="text_30">
     <!-- t = 1500.00 -->
     <g style="fill: #262626" transform="translate(987.317672 377.706689) scale(0.14 -0.14)">
      <use xlink:href="#CMR17-74" transform="scale(0.996264)"/>
      <use xlink:href="#CMR17-3d" transform="translate(65.356734 0) scale(0.996264)"/>
      <use xlink:href="#CMR17-31" transform="translate(167.147489 0) scale(0.996264)"/>
      <use xlink:href="#CMR17-35" transform="translate(212.837966 0) scale(0.996264)"/>
      <use xlink:href="#CMR17-30" transform="translate(258.528443 0) scale(0.996264)"/>
      <use xlink:href="#CMR17-30" transform="translate(304.21892 0) scale(0.996264)"/>
      <use xlink:href="#CMR17-2e" transform="translate(349.909397 0) scale(0.996264)"/>
      <use xlink:href="#CMR17-30" transform="translate(374.780456 0) scale(0.996264)"/>
      <use xlink:href="#CMR17-30" transform="translate(420.470933 0) scale(0.996264)"/>
     </g>
    </g>
   </g>
  </g>
  <g id="text_31">
   <!-- permeability -->
   <g style="fill: #262626" transform="translate(492.111452 24.803515) scale(0.192 -0.192)">
    <defs>
     <path id="CMR17-70" d="M 1408 -1063 
C 998 -1063 973 -1037 973 -789 
L 973 402 
C 1158 134 1427 -38 1766 -38 
C 2406 -38 3053 523 3053 1388 
C 3053 2191 2496 2802 1837 2802 
C 1453 2802 1139 2592 960 2338 
L 960 2802 
L 198 2732 
L 198 2567 
C 576 2567 634 2528 634 2223 
L 634 -789 
C 634 -1031 608 -1063 198 -1063 
L 198 -1228 
C 352 -1216 634 -1216 800 -1216 
C 966 -1216 1254 -1216 1408 -1228 
L 1408 -1063 
z
M 973 2012 
C 973 2102 973 2235 1222 2471 
C 1254 2497 1472 2688 1792 2688 
C 2259 2688 2643 2108 2643 1382 
C 2643 656 2234 64 1728 64 
C 1498 64 1248 172 1056 472 
C 973 612 973 650 973 752 
L 973 2012 
z
" transform="scale(0.015625)"/>
     <path id="CMR17-72" d="M 960 1497 
C 960 2112 1222 2688 1702 2688 
C 1747 2688 1792 2682 1837 2662 
C 1837 2662 1696 2617 1696 2452 
C 1696 2298 1818 2234 1914 2234 
C 1990 2234 2131 2279 2131 2458 
C 2131 2663 1926 2790 1709 2790 
C 1222 2790 1011 2317 947 2093 
L 941 2093 
L 941 2790 
L 198 2720 
L 198 2554 
C 576 2554 634 2515 634 2208 
L 634 428 
C 634 184 608 153 198 153 
L 198 -13 
C 352 0 646 0 813 0 
C 998 0 1325 0 1498 -13 
L 1498 153 
C 1037 153 960 153 960 440 
L 960 1497 
z
" transform="scale(0.015625)"/>
     <path id="CMR17-61" d="M 2304 1653 
C 2304 2072 2304 2294 2035 2543 
C 1798 2752 1523 2816 1306 2816 
C 800 2816 435 2407 435 1971 
C 435 1728 627 1728 666 1728 
C 749 1728 896 1778 896 1954 
C 896 2112 774 2181 666 2181 
C 640 2181 608 2174 589 2168 
C 723 2592 1069 2714 1293 2714 
C 1613 2714 1965 2429 1965 1885 
L 1965 1600 
C 1587 1600 1133 1549 774 1357 
C 371 1133 256 813 256 570 
C 256 77 832 -64 1171 -64 
C 1523 -64 1850 139 1990 511 
C 2003 233 2182 -18 2464 -18 
C 2598 -18 2938 70 2938 567 
L 2938 920 
L 2822 920 
L 2822 562 
C 2822 178 2650 128 2566 128 
C 2304 128 2304 458 2304 738 
L 2304 1653 
z
M 1965 870 
C 1965 317 1568 38 1216 38 
C 896 38 646 275 646 570 
C 646 761 730 1100 1101 1305 
C 1408 1478 1760 1504 1965 1504 
L 1965 870 
z
" transform="scale(0.015625)"/>
     <path id="CMR17-62" d="M 960 4396 
L 198 4326 
L 198 4160 
C 576 4160 634 4122 634 3817 
L 634 -13 
L 749 -13 
L 934 441 
C 1120 141 1395 -64 1766 -64 
C 2406 -64 3053 500 3053 1370 
C 3053 2188 2477 2790 1830 2790 
C 1434 2790 1152 2579 960 2330 
L 960 4396 
z
M 973 2004 
C 973 2118 973 2138 1062 2272 
C 1312 2657 1670 2688 1792 2688 
C 1984 2688 2643 2585 2643 1376 
C 2643 108 1888 38 1734 38 
C 1536 38 1248 114 1043 486 
C 973 608 973 621 973 735 
L 973 2004 
z
" transform="scale(0.015625)"/>
     <path id="CMR17-6c" d="M 979 4396 
L 218 4326 
L 218 4160 
C 595 4160 653 4122 653 3817 
L 653 426 
C 653 184 627 153 218 153 
L 218 -13 
C 371 0 653 0 813 0 
C 979 0 1261 0 1414 -13 
L 1414 153 
C 1005 153 979 178 979 426 
L 979 4396 
z
" transform="scale(0.015625)"/>
     <path id="CMR17-79" d="M 2496 2197 
C 2656 2586 2944 2586 3034 2586 
L 3034 2752 
C 2912 2752 2752 2752 2630 2752 
C 2496 2752 2285 2752 2157 2758 
L 2157 2592 
C 2400 2573 2406 2394 2406 2343 
C 2406 2280 2394 2248 2362 2171 
L 1664 449 
L 902 2306 
C 870 2382 870 2426 870 2433 
C 870 2573 1018 2586 1171 2586 
L 1171 2758 
C 1018 2752 742 2752 582 2752 
C 410 2752 205 2752 64 2758 
L 64 2586 
C 410 2586 448 2554 531 2350 
L 1485 15 
C 1197 -738 1030 -1178 627 -1178 
C 557 -1178 397 -1159 282 -1044 
C 429 -1031 493 -942 493 -833 
C 493 -725 416 -629 288 -629 
C 147 -629 77 -725 77 -840 
C 77 -1095 339 -1280 627 -1280 
C 998 -1280 1229 -922 1357 -604 
L 2496 2197 
z
" transform="scale(0.015625)"/>
    </defs>
    <use xlink:href="#CMR17-70" transform="scale(0.996264)"/>
    <use xlink:href="#CMR17-65" transform="translate(53.497809 0) scale(0.996264)"/>
    <use xlink:href="#CMR17-72" transform="translate(93.983469 0) scale(0.996264)"/>
    <use xlink:href="#CMR17-6d" transform="translate(129.264237 0) scale(0.996264)"/>
    <use xlink:href="#CMR17-65" transform="translate(206.183827 0) scale(0.996264)"/>
    <use xlink:href="#CMR17-61" transform="translate(246.669487 0) scale(0.996264)"/>
    <use xlink:href="#CMR17-62" transform="translate(292.359964 0) scale(0.996264)"/>
    <use xlink:href="#CMR17-69" transform="translate(343.255334 0) scale(0.996264)"/>
    <use xlink:href="#CMR17-6c" transform="translate(368.126392 0) scale(0.996264)"/>
    <use xlink:href="#CMR17-69" transform="translate(392.997451 0) scale(0.996264)"/>
    <use xlink:href="#CMR17-74" transform="translate(417.868509 0) scale(0.996264)"/>
    <use xlink:href="#CMR17-79" transform="translate(450.546823 0) scale(0.996264)"/>
   </g>
  </g>
 </g>
 <defs>
  <clipPath id="pb86723ea00">
   <rect x="48.559071" y="51.564121" width="886.958601" height="469.58891"/>
  </clipPath>
 </defs>
</svg>
