<?xml version="1.0" encoding="utf-8" standalone="no"?>
<!DOCTYPE svg PUBLIC "-//W3C//DTD SVG 1.1//EN"
  "http://www.w3.org/Graphics/SVG/1.1/DTD/svg11.dtd">
<svg xmlns:xlink="http://www.w3.org/1999/xlink" width="1080pt" height="576pt" viewBox="0 0 1080 576" xmlns="http://www.w3.org/2000/svg" version="1.1">
 <metadata>
  <rdf:RDF xmlns:dc="http://purl.org/dc/elements/1.1/" xmlns:cc="http://creativecommons.org/ns#" xmlns:rdf="http://www.w3.org/1999/02/22-rdf-syntax-ns#">
   <cc:Work>
    <dc:type rdf:resource="http://purl.org/dc/dcmitype/StillImage"/>
    <dc:date>2024-06-28T12:22:15.599472</dc:date>
    <dc:format>image/svg+xml</dc:format>
    <dc:creator>
     <cc:Agent>
      <dc:title>Matplotlib v3.9.0, https://matplotlib.org/</dc:title>
     </cc:Agent>
    </dc:creator>
   </cc:Work>
  </rdf:RDF>
 </metadata>
 <defs>
  <style type="text/css">*{stroke-linejoin: round; stroke-linecap: butt}</style>
 </defs>
 <g id="figure_1">
  <g id="patch_1">
   <path d="M 0 576 
L 1080 576 
L 1080 0 
L 0 0 
z
" style="fill: #ffffff"/>
  </g>
  <g id="axes_1">
   <g id="patch_2">
    <path d="M 48.559071 521.153031 
L 935.517672 521.153031 
L 935.517672 51.564121 
L 48.559071 51.564121 
z
" style="fill: #eaeaf2"/>
   </g>
   <g id="matplotlib.axis_1">
    <g id="xtick_1">
     <g id="line2d_1">
      <path d="M 48.559071 521.153031 
L 48.559071 51.564121 
" clip-path="url(#p078e2d2250)" style="fill: none; stroke: #ffffff; stroke-linecap: round"/>
     </g>
     <g id="line2d_2"/>
     <g id="text_1">
      <!-- $\mathdefault{0.00}$ -->
      <g style="fill: #262626" transform="translate(36.419535 537.838907) scale(0.14 -0.14)">
       <defs>
        <path id="CMR17-30" d="M 2688 2025 
C 2688 2416 2682 3080 2413 3591 
C 2176 4039 1798 4198 1466 4198 
C 1158 4198 768 4058 525 3597 
C 269 3118 243 2524 243 2025 
C 243 1661 250 1106 448 619 
C 723 -39 1216 -128 1466 -128 
C 1760 -128 2208 -7 2470 600 
C 2662 1042 2688 1559 2688 2025 
z
M 1466 -26 
C 1056 -26 813 325 723 812 
C 653 1188 653 1738 653 2096 
C 653 2588 653 2997 736 3387 
C 858 3929 1216 4096 1466 4096 
C 1728 4096 2067 3923 2189 3400 
C 2272 3036 2278 2607 2278 2096 
C 2278 1680 2278 1169 2202 792 
C 2067 95 1690 -26 1466 -26 
z
" transform="scale(0.015625)"/>
        <path id="CMMI12-3a" d="M 1178 307 
C 1178 492 1024 619 870 619 
C 685 619 557 466 557 313 
C 557 128 710 0 864 0 
C 1050 0 1178 153 1178 307 
z
" transform="scale(0.015625)"/>
       </defs>
       <use xlink:href="#CMR17-30" transform="scale(0.996264)"/>
       <use xlink:href="#CMMI12-3a" transform="translate(45.690477 0) scale(0.996264)"/>
       <use xlink:href="#CMR17-30" transform="translate(72.787654 0) scale(0.996264)"/>
       <use xlink:href="#CMR17-30" transform="translate(118.478131 0) scale(0.996264)"/>
      </g>
     </g>
    </g>
    <g id="xtick_2">
     <g id="line2d_3">
      <path d="M 154.14938 521.153031 
L 154.14938 51.564121 
" clip-path="url(#p078e2d2250)" style="fill: none; stroke: #ffffff; stroke-linecap: round"/>
     </g>
     <g id="line2d_4"/>
     <g id="text_2">
      <!-- $\mathdefault{0.25}$ -->
      <g style="fill: #262626" transform="translate(142.009845 537.838907) scale(0.14 -0.14)">
       <defs>
        <path id="CMR17-32" d="M 2669 989 
L 2554 989 
C 2490 536 2438 459 2413 420 
C 2381 369 1920 369 1830 369 
L 602 369 
C 832 619 1280 1072 1824 1597 
C 2214 1967 2669 2402 2669 3035 
C 2669 3790 2067 4224 1395 4224 
C 691 4224 262 3604 262 3030 
C 262 2780 448 2748 525 2748 
C 589 2748 781 2787 781 3010 
C 781 3207 614 3264 525 3264 
C 486 3264 448 3258 422 3245 
C 544 3790 915 4058 1306 4058 
C 1862 4058 2227 3617 2227 3035 
C 2227 2479 1901 2000 1536 1584 
L 262 146 
L 262 0 
L 2515 0 
L 2669 989 
z
" transform="scale(0.015625)"/>
        <path id="CMR17-35" d="M 730 3692 
C 794 3666 1056 3584 1325 3584 
C 1920 3584 2246 3911 2432 4100 
C 2432 4157 2432 4192 2394 4192 
C 2387 4192 2374 4192 2323 4163 
C 2099 4058 1837 3973 1517 3973 
C 1325 3973 1037 3999 723 4139 
C 653 4171 640 4171 634 4171 
C 602 4171 595 4164 595 4037 
L 595 2203 
C 595 2089 595 2057 659 2057 
C 691 2057 704 2070 736 2114 
C 941 2401 1222 2522 1542 2522 
C 1766 2522 2246 2382 2246 1289 
C 2246 1085 2246 715 2054 421 
C 1894 159 1645 25 1370 25 
C 947 25 518 320 403 814 
C 429 807 480 795 506 795 
C 589 795 749 840 749 1038 
C 749 1210 627 1280 506 1280 
C 358 1280 262 1190 262 1011 
C 262 454 704 -128 1382 -128 
C 2042 -128 2669 440 2669 1264 
C 2669 2030 2170 2624 1549 2624 
C 1222 2624 947 2503 730 2274 
L 730 3692 
z
" transform="scale(0.015625)"/>
       </defs>
       <use xlink:href="#CMR17-30" transform="scale(0.996264)"/>
       <use xlink:href="#CMMI12-3a" transform="translate(45.690477 0) scale(0.996264)"/>
       <use xlink:href="#CMR17-32" transform="translate(72.787654 0) scale(0.996264)"/>
       <use xlink:href="#CMR17-35" transform="translate(118.478131 0) scale(0.996264)"/>
      </g>
     </g>
    </g>
    <g id="xtick_3">
     <g id="line2d_5">
      <path d="M 259.73969 521.153031 
L 259.73969 51.564121 
" clip-path="url(#p078e2d2250)" style="fill: none; stroke: #ffffff; stroke-linecap: round"/>
     </g>
     <g id="line2d_6"/>
     <g id="text_3">
      <!-- $\mathdefault{0.50}$ -->
      <g style="fill: #262626" transform="translate(247.600155 537.838907) scale(0.14 -0.14)">
       <use xlink:href="#CMR17-30" transform="scale(0.996264)"/>
       <use xlink:href="#CMMI12-3a" transform="translate(45.690477 0) scale(0.996264)"/>
       <use xlink:href="#CMR17-35" transform="translate(72.787654 0) scale(0.996264)"/>
       <use xlink:href="#CMR17-30" transform="translate(118.478131 0) scale(0.996264)"/>
      </g>
     </g>
    </g>
    <g id="xtick_4">
     <g id="line2d_7">
      <path d="M 365.33 521.153031 
L 365.33 51.564121 
" clip-path="url(#p078e2d2250)" style="fill: none; stroke: #ffffff; stroke-linecap: round"/>
     </g>
     <g id="line2d_8"/>
     <g id="text_4">
      <!-- $\mathdefault{0.75}$ -->
      <g style="fill: #262626" transform="translate(353.190464 537.838907) scale(0.14 -0.14)">
       <defs>
        <path id="CMR17-37" d="M 2886 3941 
L 2886 4081 
L 1382 4081 
C 634 4081 621 4165 595 4288 
L 480 4288 
L 294 3094 
L 410 3094 
C 429 3215 474 3540 550 3661 
C 589 3712 1062 3712 1171 3712 
L 2579 3712 
L 1869 2661 
C 1395 1954 1069 999 1069 165 
C 1069 89 1069 -128 1299 -128 
C 1530 -128 1530 89 1530 171 
L 1530 465 
C 1530 1508 1709 2196 2003 2636 
L 2886 3941 
z
" transform="scale(0.015625)"/>
       </defs>
       <use xlink:href="#CMR17-30" transform="scale(0.996264)"/>
       <use xlink:href="#CMMI12-3a" transform="translate(45.690477 0) scale(0.996264)"/>
       <use xlink:href="#CMR17-37" transform="translate(72.787654 0) scale(0.996264)"/>
       <use xlink:href="#CMR17-35" transform="translate(118.478131 0) scale(0.996264)"/>
      </g>
     </g>
    </g>
    <g id="xtick_5">
     <g id="line2d_9">
      <path d="M 470.920309 521.153031 
L 470.920309 51.564121 
" clip-path="url(#p078e2d2250)" style="fill: none; stroke: #ffffff; stroke-linecap: round"/>
     </g>
     <g id="line2d_10"/>
     <g id="text_5">
      <!-- $\mathdefault{1.00}$ -->
      <g style="fill: #262626" transform="translate(458.780774 537.838907) scale(0.14 -0.14)">
       <defs>
        <path id="CMR17-31" d="M 1702 4058 
C 1702 4192 1696 4192 1606 4192 
C 1357 3916 979 3827 621 3827 
C 602 3827 570 3827 563 3808 
C 557 3795 557 3782 557 3648 
C 755 3648 1088 3686 1344 3839 
L 1344 461 
C 1344 236 1331 160 781 160 
L 589 160 
L 589 0 
C 896 0 1216 0 1523 0 
C 1830 0 2150 0 2458 0 
L 2458 160 
L 2266 160 
C 1715 160 1702 230 1702 458 
L 1702 4058 
z
" transform="scale(0.015625)"/>
       </defs>
       <use xlink:href="#CMR17-31" transform="scale(0.996264)"/>
       <use xlink:href="#CMMI12-3a" transform="translate(45.690477 0) scale(0.996264)"/>
       <use xlink:href="#CMR17-30" transform="translate(72.787654 0) scale(0.996264)"/>
       <use xlink:href="#CMR17-30" transform="translate(118.478131 0) scale(0.996264)"/>
      </g>
     </g>
    </g>
    <g id="xtick_6">
     <g id="line2d_11">
      <path d="M 576.510619 521.153031 
L 576.510619 51.564121 
" clip-path="url(#p078e2d2250)" style="fill: none; stroke: #ffffff; stroke-linecap: round"/>
     </g>
     <g id="line2d_12"/>
     <g id="text_6">
      <!-- $\mathdefault{1.25}$ -->
      <g style="fill: #262626" transform="translate(564.371084 537.838907) scale(0.14 -0.14)">
       <use xlink:href="#CMR17-31" transform="scale(0.996264)"/>
       <use xlink:href="#CMMI12-3a" transform="translate(45.690477 0) scale(0.996264)"/>
       <use xlink:href="#CMR17-32" transform="translate(72.787654 0) scale(0.996264)"/>
       <use xlink:href="#CMR17-35" transform="translate(118.478131 0) scale(0.996264)"/>
      </g>
     </g>
    </g>
    <g id="xtick_7">
     <g id="line2d_13">
      <path d="M 682.100929 521.153031 
L 682.100929 51.564121 
" clip-path="url(#p078e2d2250)" style="fill: none; stroke: #ffffff; stroke-linecap: round"/>
     </g>
     <g id="line2d_14"/>
     <g id="text_7">
      <!-- $\mathdefault{1.50}$ -->
      <g style="fill: #262626" transform="translate(669.961393 537.838907) scale(0.14 -0.14)">
       <use xlink:href="#CMR17-31" transform="scale(0.996264)"/>
       <use xlink:href="#CMMI12-3a" transform="translate(45.690477 0) scale(0.996264)"/>
       <use xlink:href="#CMR17-35" transform="translate(72.787654 0) scale(0.996264)"/>
       <use xlink:href="#CMR17-30" transform="translate(118.478131 0) scale(0.996264)"/>
      </g>
     </g>
    </g>
    <g id="xtick_8">
     <g id="line2d_15">
      <path d="M 787.691238 521.153031 
L 787.691238 51.564121 
" clip-path="url(#p078e2d2250)" style="fill: none; stroke: #ffffff; stroke-linecap: round"/>
     </g>
     <g id="line2d_16"/>
     <g id="text_8">
      <!-- $\mathdefault{1.75}$ -->
      <g style="fill: #262626" transform="translate(775.551703 537.838907) scale(0.14 -0.14)">
       <use xlink:href="#CMR17-31" transform="scale(0.996264)"/>
       <use xlink:href="#CMMI12-3a" transform="translate(45.690477 0) scale(0.996264)"/>
       <use xlink:href="#CMR17-37" transform="translate(72.787654 0) scale(0.996264)"/>
       <use xlink:href="#CMR17-35" transform="translate(118.478131 0) scale(0.996264)"/>
      </g>
     </g>
    </g>
    <g id="xtick_9">
     <g id="line2d_17">
      <path d="M 893.281548 521.153031 
L 893.281548 51.564121 
" clip-path="url(#p078e2d2250)" style="fill: none; stroke: #ffffff; stroke-linecap: round"/>
     </g>
     <g id="line2d_18"/>
     <g id="text_9">
      <!-- $\mathdefault{2.00}$ -->
      <g style="fill: #262626" transform="translate(881.142013 537.838907) scale(0.14 -0.14)">
       <use xlink:href="#CMR17-32" transform="scale(0.996264)"/>
       <use xlink:href="#CMMI12-3a" transform="translate(45.690477 0) scale(0.996264)"/>
       <use xlink:href="#CMR17-30" transform="translate(72.787654 0) scale(0.996264)"/>
       <use xlink:href="#CMR17-30" transform="translate(118.478131 0) scale(0.996264)"/>
      </g>
     </g>
    </g>
    <g id="text_10">
     <!-- $x$ -->
     <g style="fill: #262626" transform="translate(487.603646 555.620524) scale(0.16 -0.16)">
      <defs>
       <path id="CMMI12-78" d="M 3034 2606 
C 2829 2567 2752 2414 2752 2293 
C 2752 2139 2874 2088 2963 2088 
C 3155 2088 3290 2254 3290 2427 
C 3290 2695 2982 2816 2714 2816 
C 2323 2816 2106 2433 2048 2312 
C 1901 2816 1504 2816 1389 2816 
C 736 2816 390 1980 390 1839 
C 390 1814 416 1782 461 1782 
C 512 1782 525 1820 538 1846 
C 755 2555 1184 2689 1370 2689 
C 1658 2689 1715 2420 1715 2267 
C 1715 2127 1677 1980 1600 1673 
L 1382 798 
C 1286 415 1101 64 762 64 
C 730 64 570 64 435 147 
C 666 192 717 383 717 460 
C 717 588 621 664 499 664 
C 346 664 179 530 179 326 
C 179 57 480 -64 755 -64 
C 1062 -64 1280 179 1414 441 
C 1517 64 1837 -64 2074 -64 
C 2726 -64 3072 773 3072 913 
C 3072 945 3046 971 3008 971 
C 2950 971 2944 939 2925 888 
C 2752 326 2381 64 2093 64 
C 1869 64 1747 230 1747 492 
C 1747 632 1773 734 1875 1156 
L 2099 2024 
C 2195 2408 2413 2689 2707 2689 
C 2720 2689 2899 2689 3034 2606 
z
" transform="scale(0.015625)"/>
      </defs>
      <use xlink:href="#CMMI12-78" transform="scale(0.996264)"/>
     </g>
    </g>
   </g>
   <g id="matplotlib.axis_2">
    <g id="ytick_1">
     <g id="line2d_19">
      <path d="M 48.559071 521.153031 
L 935.517672 521.153031 
" clip-path="url(#p078e2d2250)" style="fill: none; stroke: #ffffff; stroke-linecap: round"/>
     </g>
     <g id="line2d_20"/>
     <g id="text_11">
      <!-- $\mathdefault{0.00}$ -->
      <g style="fill: #262626" transform="translate(17.28 525.995969) scale(0.14 -0.14)">
       <use xlink:href="#CMR17-30" transform="scale(0.996264)"/>
       <use xlink:href="#CMMI12-3a" transform="translate(45.690477 0) scale(0.996264)"/>
       <use xlink:href="#CMR17-30" transform="translate(72.787654 0) scale(0.996264)"/>
       <use xlink:href="#CMR17-30" transform="translate(118.478131 0) scale(0.996264)"/>
      </g>
     </g>
    </g>
    <g id="ytick_2">
     <g id="line2d_21">
      <path d="M 48.559071 465.249285 
L 935.517672 465.249285 
" clip-path="url(#p078e2d2250)" style="fill: none; stroke: #ffffff; stroke-linecap: round"/>
     </g>
     <g id="line2d_22"/>
     <g id="text_12">
      <!-- $\mathdefault{0.25}$ -->
      <g style="fill: #262626" transform="translate(17.28 470.092223) scale(0.14 -0.14)">
       <use xlink:href="#CMR17-30" transform="scale(0.996264)"/>
       <use xlink:href="#CMMI12-3a" transform="translate(45.690477 0) scale(0.996264)"/>
       <use xlink:href="#CMR17-32" transform="translate(72.787654 0) scale(0.996264)"/>
       <use xlink:href="#CMR17-35" transform="translate(118.478131 0) scale(0.996264)"/>
      </g>
     </g>
    </g>
    <g id="ytick_3">
     <g id="line2d_23">
      <path d="M 48.559071 409.345539 
L 935.517672 409.345539 
" clip-path="url(#p078e2d2250)" style="fill: none; stroke: #ffffff; stroke-linecap: round"/>
     </g>
     <g id="line2d_24"/>
     <g id="text_13">
      <!-- $\mathdefault{0.50}$ -->
      <g style="fill: #262626" transform="translate(17.28 414.188477) scale(0.14 -0.14)">
       <use xlink:href="#CMR17-30" transform="scale(0.996264)"/>
       <use xlink:href="#CMMI12-3a" transform="translate(45.690477 0) scale(0.996264)"/>
       <use xlink:href="#CMR17-35" transform="translate(72.787654 0) scale(0.996264)"/>
       <use xlink:href="#CMR17-30" transform="translate(118.478131 0) scale(0.996264)"/>
      </g>
     </g>
    </g>
    <g id="ytick_4">
     <g id="line2d_25">
      <path d="M 48.559071 353.441793 
L 935.517672 353.441793 
" clip-path="url(#p078e2d2250)" style="fill: none; stroke: #ffffff; stroke-linecap: round"/>
     </g>
     <g id="line2d_26"/>
     <g id="text_14">
      <!-- $\mathdefault{0.75}$ -->
      <g style="fill: #262626" transform="translate(17.28 358.284731) scale(0.14 -0.14)">
       <use xlink:href="#CMR17-30" transform="scale(0.996264)"/>
       <use xlink:href="#CMMI12-3a" transform="translate(45.690477 0) scale(0.996264)"/>
       <use xlink:href="#CMR17-37" transform="translate(72.787654 0) scale(0.996264)"/>
       <use xlink:href="#CMR17-35" transform="translate(118.478131 0) scale(0.996264)"/>
      </g>
     </g>
    </g>
    <g id="ytick_5">
     <g id="line2d_27">
      <path d="M 48.559071 297.538047 
L 935.517672 297.538047 
" clip-path="url(#p078e2d2250)" style="fill: none; stroke: #ffffff; stroke-linecap: round"/>
     </g>
     <g id="line2d_28"/>
     <g id="text_15">
      <!-- $\mathdefault{1.00}$ -->
      <g style="fill: #262626" transform="translate(17.28 302.380986) scale(0.14 -0.14)">
       <use xlink:href="#CMR17-31" transform="scale(0.996264)"/>
       <use xlink:href="#CMMI12-3a" transform="translate(45.690477 0) scale(0.996264)"/>
       <use xlink:href="#CMR17-30" transform="translate(72.787654 0) scale(0.996264)"/>
       <use xlink:href="#CMR17-30" transform="translate(118.478131 0) scale(0.996264)"/>
      </g>
     </g>
    </g>
    <g id="ytick_6">
     <g id="line2d_29">
      <path d="M 48.559071 241.634301 
L 935.517672 241.634301 
" clip-path="url(#p078e2d2250)" style="fill: none; stroke: #ffffff; stroke-linecap: round"/>
     </g>
     <g id="line2d_30"/>
     <g id="text_16">
      <!-- $\mathdefault{1.25}$ -->
      <g style="fill: #262626" transform="translate(17.28 246.47724) scale(0.14 -0.14)">
       <use xlink:href="#CMR17-31" transform="scale(0.996264)"/>
       <use xlink:href="#CMMI12-3a" transform="translate(45.690477 0) scale(0.996264)"/>
       <use xlink:href="#CMR17-32" transform="translate(72.787654 0) scale(0.996264)"/>
       <use xlink:href="#CMR17-35" transform="translate(118.478131 0) scale(0.996264)"/>
      </g>
     </g>
    </g>
    <g id="ytick_7">
     <g id="line2d_31">
      <path d="M 48.559071 185.730556 
L 935.517672 185.730556 
" clip-path="url(#p078e2d2250)" style="fill: none; stroke: #ffffff; stroke-linecap: round"/>
     </g>
     <g id="line2d_32"/>
     <g id="text_17">
      <!-- $\mathdefault{1.50}$ -->
      <g style="fill: #262626" transform="translate(17.28 190.573494) scale(0.14 -0.14)">
       <use xlink:href="#CMR17-31" transform="scale(0.996264)"/>
       <use xlink:href="#CMMI12-3a" transform="translate(45.690477 0) scale(0.996264)"/>
       <use xlink:href="#CMR17-35" transform="translate(72.787654 0) scale(0.996264)"/>
       <use xlink:href="#CMR17-30" transform="translate(118.478131 0) scale(0.996264)"/>
      </g>
     </g>
    </g>
    <g id="ytick_8">
     <g id="line2d_33">
      <path d="M 48.559071 129.82681 
L 935.517672 129.82681 
" clip-path="url(#p078e2d2250)" style="fill: none; stroke: #ffffff; stroke-linecap: round"/>
     </g>
     <g id="line2d_34"/>
     <g id="text_18">
      <!-- $\mathdefault{1.75}$ -->
      <g style="fill: #262626" transform="translate(17.28 134.669748) scale(0.14 -0.14)">
       <use xlink:href="#CMR17-31" transform="scale(0.996264)"/>
       <use xlink:href="#CMMI12-3a" transform="translate(45.690477 0) scale(0.996264)"/>
       <use xlink:href="#CMR17-37" transform="translate(72.787654 0) scale(0.996264)"/>
       <use xlink:href="#CMR17-35" transform="translate(118.478131 0) scale(0.996264)"/>
      </g>
     </g>
    </g>
    <g id="ytick_9">
     <g id="line2d_35">
      <path d="M 48.559071 73.923064 
L 935.517672 73.923064 
" clip-path="url(#p078e2d2250)" style="fill: none; stroke: #ffffff; stroke-linecap: round"/>
     </g>
     <g id="line2d_36"/>
     <g id="text_19">
      <!-- $\mathdefault{2.00}$ -->
      <g style="fill: #262626" transform="translate(17.28 78.766002) scale(0.14 -0.14)">
       <use xlink:href="#CMR17-32" transform="scale(0.996264)"/>
       <use xlink:href="#CMMI12-3a" transform="translate(45.690477 0) scale(0.996264)"/>
       <use xlink:href="#CMR17-30" transform="translate(72.787654 0) scale(0.996264)"/>
       <use xlink:href="#CMR17-30" transform="translate(118.478131 0) scale(0.996264)"/>
      </g>
     </g>
    </g>
   </g>
   <g id="line2d_37">
    <path d="M 48.559071 73.923064 
L 57.006295 73.923064 
L 65.45352 73.923064 
L 73.900745 73.923064 
L 82.34797 73.923064 
L 90.795195 73.923064 
L 99.242419 73.923064 
L 107.689644 73.923064 
L 116.136869 73.923064 
L 124.584094 73.923064 
L 133.031318 73.923064 
L 141.478543 73.923064 
L 149.925768 73.923064 
L 158.372993 73.923064 
L 166.820217 73.923064 
L 175.267442 73.923064 
L 183.714667 73.923064 
L 192.161892 73.923064 
L 200.609117 73.923064 
L 209.056341 73.923064 
L 217.503566 73.923064 
L 225.950791 73.923064 
L 234.398016 73.923064 
L 242.84524 73.923064 
L 251.292465 73.923064 
L 259.73969 73.923064 
L 268.186915 73.923064 
L 276.63414 73.923064 
L 285.081364 73.923064 
L 293.528589 73.923064 
L 301.975814 73.923064 
L 310.423039 73.923064 
L 318.870263 73.923064 
L 327.317488 73.923064 
L 335.764713 73.923064 
L 344.211938 73.923064 
L 352.659162 73.923064 
L 361.106387 73.923064 
L 369.553612 73.923064 
L 378.000837 73.923064 
L 386.448062 73.923064 
L 394.895286 73.923064 
L 403.342511 73.923064 
L 411.789736 73.923064 
L 420.236961 73.923064 
L 428.684185 73.923064 
L 437.13141 73.923064 
L 445.578635 73.923064 
L 454.02586 73.923064 
L 462.473085 73.923064 
L 470.920309 73.923064 
L 479.367534 73.923064 
L 487.814759 73.923064 
L 496.261984 73.923064 
L 504.709208 73.923064 
L 513.156433 73.923064 
L 521.603658 73.923064 
L 530.050883 73.923064 
L 538.498107 73.923064 
L 546.945332 73.923064 
L 555.392557 73.923064 
L 563.839782 73.923064 
L 572.287007 73.923064 
L 580.734231 73.923064 
L 589.181456 73.923064 
L 597.628681 73.923064 
L 606.075906 73.923064 
L 614.52313 73.923064 
L 622.970355 73.923064 
L 631.41758 73.923064 
L 639.864805 73.923064 
L 648.31203 73.923064 
L 656.759254 73.923064 
L 665.206479 73.923064 
L 673.653704 73.923064 
L 682.100929 73.923064 
L 690.548153 73.923064 
L 698.995378 73.923064 
L 707.442603 73.923064 
L 715.889828 73.923064 
L 724.337052 73.923064 
L 732.784277 73.923064 
L 741.231502 73.923064 
L 749.678727 73.923064 
L 758.125952 73.923064 
L 766.573176 73.923064 
L 775.020401 73.923064 
L 783.467626 73.923064 
L 791.914851 73.923064 
L 800.362075 73.923064 
L 808.8093 73.923064 
L 817.256525 73.923064 
L 825.70375 73.923064 
L 834.150975 73.923064 
L 842.598199 73.923064 
L 851.045424 73.923064 
L 859.492649 73.923064 
L 867.939874 73.923064 
L 876.387098 73.923064 
L 884.834323 73.923064 
L 893.281548 73.923064 
" clip-path="url(#p078e2d2250)" style="fill: none; stroke: #393b79; stroke-width: 2; stroke-linecap: round"/>
   </g>
   <g id="line2d_38">
    <path d="M 48.559071 99.914613 
L 57.006295 99.749628 
L 65.45352 99.584712 
L 73.900745 99.420532 
L 82.34797 99.257471 
L 90.795195 99.09552 
L 99.242419 98.934672 
L 107.689644 98.774921 
L 116.136869 98.616259 
L 124.584094 98.458676 
L 133.031318 98.302164 
L 141.478543 98.146715 
L 149.925768 97.992322 
L 158.372993 97.838978 
L 166.820217 97.686674 
L 175.267442 97.535405 
L 183.714667 97.385162 
L 192.161892 97.23594 
L 200.609117 97.08648 
L 209.056341 96.937973 
L 217.503566 96.790471 
L 225.950791 96.643969 
L 234.398016 96.49846 
L 242.84524 96.353936 
L 251.292465 96.21039 
L 259.73969 96.067817 
L 268.186915 95.926209 
L 276.63414 95.785559 
L 285.081364 95.64586 
L 293.528589 95.507104 
L 301.975814 95.369287 
L 310.423039 95.2324 
L 318.870263 95.096439 
L 327.317488 94.961397 
L 335.764713 94.827267 
L 344.211938 94.693716 
L 352.659162 94.560215 
L 361.106387 94.427614 
L 369.553612 94.295907 
L 378.000837 94.165088 
L 386.448062 94.035152 
L 394.895286 93.906092 
L 403.342511 93.777901 
L 411.789736 93.650573 
L 420.236961 93.524102 
L 428.684185 93.398484 
L 437.13141 93.273711 
L 445.578635 93.149778 
L 454.02586 93.026678 
L 462.473085 92.904407 
L 470.920309 92.782957 
L 479.367534 92.662323 
L 487.814759 92.5425 
L 496.261984 92.423481 
L 504.709208 92.305262 
L 513.156433 92.187637 
L 521.603658 92.069961 
L 530.050883 91.953075 
L 538.498107 91.836974 
L 546.945332 91.72165 
L 555.392557 91.607101 
L 563.839782 91.493319 
L 572.287007 91.380301 
L 580.734231 91.26804 
L 589.181456 91.156531 
L 597.628681 91.04577 
L 606.075906 90.935751 
L 614.52313 90.82647 
L 622.970355 90.717922 
L 631.41758 90.610101 
L 639.864805 90.503002 
L 648.31203 90.396619 
L 656.759254 90.290948 
L 665.206479 90.185984 
L 673.653704 90.081721 
L 682.100929 89.978156 
L 690.548153 89.875282 
L 698.995378 89.773096 
L 707.442603 89.671593 
L 715.889828 89.569905 
L 724.337052 89.468858 
L 732.784277 89.368486 
L 741.231502 89.268784 
L 749.678727 89.169747 
L 758.125952 89.071372 
L 766.573176 88.973652 
L 775.020401 88.876585 
L 783.467626 88.780165 
L 791.914851 88.684388 
L 800.362075 88.58925 
L 808.8093 88.494746 
L 817.256525 88.400872 
L 825.70375 88.307624 
L 834.150975 88.214997 
L 842.598199 88.122987 
L 851.045424 88.03159 
L 859.492649 87.940803 
L 867.939874 87.85062 
L 876.387098 87.761038 
L 884.834323 87.672051 
L 893.281548 87.583658 
" clip-path="url(#p078e2d2250)" style="fill: none; stroke: #6b6ecf; stroke-width: 2; stroke-linecap: round"/>
   </g>
   <g id="line2d_39">
    <path d="M 48.559071 186.814394 
L 57.006295 186.176878 
L 65.45352 185.544429 
L 73.900745 184.915455 
L 82.34797 184.288105 
L 90.795195 183.665762 
L 99.242419 183.045897 
L 107.689644 182.42848 
L 116.136869 181.815952 
L 124.584094 181.205296 
L 133.031318 180.597572 
L 141.478543 179.99461 
L 149.925768 179.393224 
L 158.372993 178.794879 
L 166.820217 178.201278 
L 175.267442 177.609374 
L 183.714667 177.020321 
L 192.161892 176.435799 
L 200.609117 175.853347 
L 209.056341 175.2733 
L 217.503566 174.697722 
L 225.950791 174.124907 
L 234.398016 173.553639 
L 242.84524 172.986755 
L 251.292465 172.423729 
L 259.73969 171.861066 
L 268.186915 171.302705 
L 276.63414 170.748661 
L 285.081364 170.195379 
L 293.528589 169.645364 
L 301.975814 169.099523 
L 310.423039 168.556287 
L 318.870263 168.014359 
L 327.317488 167.476556 
L 335.764713 166.942826 
L 344.211938 166.409551 
L 352.659162 165.879634 
L 361.106387 165.353716 
L 369.553612 164.830773 
L 378.000837 164.308494 
L 386.448062 163.790179 
L 394.895286 163.275811 
L 403.342511 162.763139 
L 411.789736 162.252277 
L 420.236961 161.745219 
L 428.684185 161.241972 
L 437.13141 160.739675 
L 445.578635 160.239876 
L 454.02586 159.7438 
L 462.473085 159.251404 
L 470.920309 158.759612 
L 479.367534 158.270518 
L 487.814759 157.785041 
L 496.261984 157.303159 
L 504.709208 156.822048 
L 513.156433 156.34336 
L 521.603658 155.868225 
L 530.050883 155.396568 
L 538.498107 154.926331 
L 546.945332 154.457777 
L 555.392557 153.992653 
L 563.839782 153.530937 
L 572.287007 153.071743 
L 580.734231 152.613002 
L 589.181456 152.157619 
L 597.628681 151.705543 
L 606.075906 151.256763 
L 614.52313 150.808404 
L 622.970355 150.362493 
L 631.41758 149.919808 
L 639.864805 149.480314 
L 648.31203 149.04337 
L 656.759254 148.606627 
L 665.206479 148.173109 
L 673.653704 147.742707 
L 682.100929 147.315396 
L 690.548153 146.889683 
L 698.995378 146.46498 
L 707.442603 146.043336 
L 715.889828 145.624729 
L 724.337052 145.209127 
L 732.784277 144.794822 
L 741.231502 144.381743 
L 749.678727 143.971614 
L 758.125952 143.56442 
L 766.573176 143.160129 
L 775.020401 142.75746 
L 783.467626 142.355588 
L 791.914851 141.956579 
L 800.362075 141.560421 
L 808.8093 141.167076 
L 817.256525 140.776264 
L 825.70375 140.385234 
L 834.150975 139.996972 
L 842.598199 139.611448 
L 851.045424 139.22865 
L 859.492649 138.848564 
L 867.939874 138.469376 
L 876.387098 138.091486 
L 884.834323 137.716255 
L 893.281548 137.343668 
" clip-path="url(#p078e2d2250)" style="fill: none; stroke: #637939; stroke-width: 2; stroke-linecap: round"/>
   </g>
   <g id="line2d_40">
    <path d="M 48.559071 266.514857 
L 57.006295 265.515963 
L 65.45352 264.521194 
L 73.900745 263.530678 
L 82.34797 262.54449 
L 90.795195 261.562584 
L 99.242419 260.585033 
L 107.689644 259.610611 
L 116.136869 258.64021 
L 124.584094 257.674239 
L 133.031318 256.712618 
L 141.478543 255.755529 
L 149.925768 254.801095 
L 158.372993 253.850998 
L 166.820217 252.905432 
L 175.267442 251.964531 
L 183.714667 251.026525 
L 192.161892 250.092444 
L 200.609117 249.163136 
L 209.056341 248.238453 
L 217.503566 247.316017 
L 225.950791 246.398269 
L 234.398016 245.485382 
L 242.84524 244.575625 
L 251.292465 243.669624 
L 259.73969 242.768477 
L 268.186915 241.871129 
L 276.63414 240.97686 
L 285.081364 240.087662 
L 293.528589 239.202189 
L 301.975814 238.319822 
L 310.423039 237.442573 
L 318.870263 236.568599 
L 327.317488 235.698209 
L 335.764713 234.833098 
L 344.211938 233.970259 
L 352.659162 233.112052 
L 361.106387 232.258488 
L 369.553612 231.407149 
L 378.000837 230.561294 
L 386.448062 229.718128 
L 394.895286 228.879344 
L 403.342511 228.045067 
L 411.789736 227.213106 
L 420.236961 226.386855 
L 428.684185 225.562474 
L 437.13141 224.743289 
L 445.578635 223.927318 
L 454.02586 223.115195 
L 462.473085 222.307489 
L 470.920309 221.50238 
L 479.367534 220.702766 
L 487.814759 219.904731 
L 496.261984 219.1129 
L 504.709208 218.322178 
L 513.156433 217.53751 
L 521.603658 216.754572 
L 530.050883 215.977175 
L 538.498107 215.201772 
L 546.945332 214.431728 
L 555.392557 213.663727 
L 563.839782 212.901067 
L 572.287007 212.140365 
L 580.734231 211.385074 
L 589.181456 210.631555 
L 597.628681 209.883758 
L 606.075906 209.137233 
L 614.52313 208.396997 
L 622.970355 207.657347 
L 631.41758 206.92395 
L 639.864805 206.191913 
L 648.31203 205.465079 
L 656.759254 204.740716 
L 665.206479 204.020563 
L 673.653704 203.303961 
L 682.100929 202.590205 
L 690.548153 201.881441 
L 698.995378 201.173958 
L 707.442603 200.472332 
L 715.889828 199.771898 
L 724.337052 199.076353 
L 732.784277 198.383941 
L 741.231502 197.694461 
L 749.678727 197.010114 
L 758.125952 196.326555 
L 766.573176 195.648517 
L 775.020401 194.972679 
L 783.467626 194.300381 
L 791.914851 193.632868 
L 800.362075 192.966247 
L 808.8093 192.304937 
L 817.256525 191.646034 
L 825.70375 190.990262 
L 834.150975 190.339685 
L 842.598199 189.689443 
L 851.045424 189.044217 
L 859.492649 188.402588 
L 867.939874 187.762578 
L 876.387098 187.127671 
L 884.834323 186.494897 
L 893.281548 185.865059 
" clip-path="url(#p078e2d2250)" style="fill: none; stroke: #b5cf6b; stroke-width: 2; stroke-linecap: round"/>
   </g>
   <g id="line2d_41">
    <path d="M 48.559071 399.192874 
L 57.006295 397.852447 
L 65.45352 396.513048 
L 73.900745 395.174329 
L 82.34797 393.836587 
L 90.795195 392.499943 
L 99.242419 391.164464 
L 107.689644 389.829917 
L 116.136869 388.496596 
L 124.584094 387.164666 
L 133.031318 385.834085 
L 141.478543 384.505013 
L 149.925768 383.177484 
L 158.372993 381.851489 
L 166.820217 380.526942 
L 175.267442 379.204252 
L 183.714667 377.883466 
L 192.161892 376.564559 
L 200.609117 375.247193 
L 209.056341 373.932139 
L 217.503566 372.61894 
L 225.950791 371.307798 
L 234.398016 369.998945 
L 242.84524 368.692168 
L 251.292465 367.387622 
L 259.73969 366.085647 
L 268.186915 364.785544 
L 276.63414 363.488129 
L 285.081364 362.193484 
L 293.528589 360.900693 
L 301.975814 359.610669 
L 310.423039 358.323374 
L 318.870263 357.038772 
L 327.317488 355.756911 
L 335.764713 354.477578 
L 344.211938 353.200973 
L 352.659162 351.927193 
L 361.106387 350.656335 
L 369.553612 349.388372 
L 378.000837 348.123372 
L 386.448062 346.861364 
L 394.895286 345.602533 
L 403.342511 344.346338 
L 411.789736 343.093243 
L 420.236961 341.843325 
L 428.684185 340.596659 
L 437.13141 339.353365 
L 445.578635 338.11334 
L 454.02586 336.876005 
L 462.473085 335.642177 
L 470.920309 334.411982 
L 479.367534 333.184839 
L 487.814759 331.960836 
L 496.261984 330.740818 
L 504.709208 329.523703 
L 513.156433 328.31009 
L 521.603658 327.100466 
L 530.050883 325.893503 
L 538.498107 324.691018 
L 546.945332 323.491037 
L 555.392557 322.29558 
L 563.839782 321.102787 
L 572.287007 319.914637 
L 580.734231 318.728935 
L 589.181456 317.547912 
L 597.628681 316.369828 
L 606.075906 315.195708 
L 614.52313 314.025648 
L 622.970355 312.858509 
L 631.41758 311.695912 
L 639.864805 310.536716 
L 648.31203 309.380951 
L 656.759254 308.229537 
L 665.206479 307.082004 
L 673.653704 305.937573 
L 682.100929 304.797393 
L 690.548153 303.661395 
L 698.995378 302.528902 
L 707.442603 301.399959 
L 715.889828 300.275122 
L 724.337052 299.154392 
L 732.784277 298.037833 
L 741.231502 296.924732 
L 749.678727 295.815271 
L 758.125952 294.709913 
L 766.573176 293.608603 
L 775.020401 292.511338 
L 783.467626 291.418094 
L 791.914851 290.328901 
L 800.362075 289.243691 
L 808.8093 288.162439 
L 817.256525 287.084777 
L 825.70375 286.011162 
L 834.150975 284.941578 
L 842.598199 283.876022 
L 851.045424 282.814482 
L 859.492649 281.757007 
L 867.939874 280.703494 
L 876.387098 279.654128 
L 884.834323 278.608717 
L 893.281548 277.567432 
" clip-path="url(#p078e2d2250)" style="fill: none; stroke: #8c6d31; stroke-width: 2; stroke-linecap: round"/>
   </g>
   <g id="line2d_42">
    <path d="M 48.559071 479.009675 
L 57.006295 477.864778 
L 65.45352 476.711467 
L 73.900745 475.550049 
L 82.34797 474.380721 
L 90.795195 473.203713 
L 99.242419 472.019178 
L 107.689644 470.827427 
L 116.136869 469.62864 
L 124.584094 468.423035 
L 133.031318 467.210762 
L 141.478543 465.992104 
L 149.925768 464.767213 
L 158.372993 463.536308 
L 166.820217 462.299595 
L 175.267442 461.0572 
L 183.714667 459.80942 
L 192.161892 458.556344 
L 200.609117 457.298177 
L 209.056341 456.035156 
L 217.503566 454.767373 
L 225.950791 453.495036 
L 234.398016 452.218382 
L 242.84524 450.937459 
L 251.292465 449.652597 
L 259.73969 448.363705 
L 268.186915 447.07122 
L 276.63414 445.775147 
L 285.081364 444.475676 
L 293.528589 443.172943 
L 301.975814 441.867212 
L 310.423039 440.558354 
L 318.870263 439.246783 
L 327.317488 437.932571 
L 335.764713 436.61581 
L 344.211938 435.296643 
L 352.659162 433.975191 
L 361.106387 432.651748 
L 369.553612 431.32626 
L 378.000837 429.998917 
L 386.448062 428.669788 
L 394.895286 427.339231 
L 403.342511 426.007126 
L 411.789736 424.673643 
L 420.236961 423.338891 
L 428.684185 422.003023 
L 437.13141 420.666219 
L 445.578635 419.32855 
L 454.02586 417.990003 
L 462.473085 416.650901 
L 470.920309 415.311131 
L 479.367534 413.970915 
L 487.814759 412.630373 
L 496.261984 411.28966 
L 504.709208 409.948763 
L 513.156433 408.607714 
L 521.603658 407.266767 
L 530.050883 405.925866 
L 538.498107 404.585287 
L 546.945332 403.245155 
L 555.392557 401.905245 
L 563.839782 400.565841 
L 572.287007 399.227229 
L 580.734231 397.88897 
L 589.181456 396.551731 
L 597.628681 395.215301 
L 606.075906 393.879523 
L 614.52313 392.545044 
L 622.970355 391.211574 
L 631.41758 389.879398 
L 639.864805 388.54815 
L 648.31203 387.218255 
L 656.759254 385.889761 
L 665.206479 384.562834 
L 673.653704 383.237353 
L 682.100929 381.913282 
L 690.548153 380.590831 
L 698.995378 379.270251 
L 707.442603 377.951601 
L 715.889828 376.634488 
L 724.337052 375.319255 
L 732.784277 374.006401 
L 741.231502 372.694974 
L 749.678727 371.386061 
L 758.125952 370.07895 
L 766.573176 368.774394 
L 775.020401 367.471606 
L 783.467626 366.171578 
L 791.914851 364.87357 
L 800.362075 363.577947 
L 808.8093 362.285024 
L 817.256525 360.994541 
L 825.70375 359.7063 
L 834.150975 358.420777 
L 842.598199 357.137971 
L 851.045424 355.857891 
L 859.492649 354.580566 
L 867.939874 353.305948 
L 876.387098 352.034182 
L 884.834323 350.765097 
L 893.281548 349.498982 
" clip-path="url(#p078e2d2250)" style="fill: none; stroke: #e7cb94; stroke-width: 2; stroke-linecap: round"/>
   </g>
   <g id="line2d_43">
    <path d="M 48.559071 504.936905 
L 57.006295 504.102999 
L 65.45352 503.253319 
L 73.900745 502.388251 
L 82.34797 501.508128 
L 90.795195 500.61325 
L 99.242419 499.703954 
L 107.689644 498.780575 
L 116.136869 497.843403 
L 124.584094 496.892792 
L 133.031318 495.928988 
L 141.478543 494.952347 
L 149.925768 493.963123 
L 158.372993 492.961654 
L 166.820217 491.948202 
L 175.267442 490.923058 
L 183.714667 489.886506 
L 192.161892 488.838802 
L 200.609117 487.780253 
L 209.056341 486.711102 
L 217.503566 485.631601 
L 225.950791 484.54202 
L 234.398016 483.442674 
L 242.84524 482.333724 
L 251.292465 481.215476 
L 259.73969 480.08816 
L 268.186915 478.952046 
L 276.63414 477.807292 
L 285.081364 476.654221 
L 293.528589 475.493022 
L 301.975814 474.32394 
L 310.423039 473.147137 
L 318.870263 471.962924 
L 327.317488 470.77144 
L 335.764713 469.572922 
L 344.211938 468.367623 
L 352.659162 467.155683 
L 361.106387 465.937393 
L 369.553612 464.712856 
L 378.000837 463.482314 
L 386.448062 462.245954 
L 394.895286 461.004085 
L 403.342511 459.756676 
L 411.789736 458.504035 
L 420.236961 457.246363 
L 428.684185 455.983708 
L 437.13141 454.71645 
L 445.578635 453.444644 
L 454.02586 452.16849 
L 462.473085 450.888048 
L 470.920309 449.603614 
L 479.367534 448.315359 
L 487.814759 447.023393 
L 496.261984 445.727896 
L 504.709208 444.428944 
L 513.156433 443.126689 
L 521.603658 441.821511 
L 530.050883 440.513248 
L 538.498107 439.202331 
L 546.945332 437.888719 
L 555.392557 436.572524 
L 563.839782 435.254017 
L 572.287007 433.933179 
L 580.734231 432.61024 
L 589.181456 431.285503 
L 597.628681 429.958725 
L 606.075906 428.630253 
L 614.52313 427.300368 
L 622.970355 425.968883 
L 631.41758 424.636107 
L 639.864805 423.30198 
L 648.31203 421.966737 
L 656.759254 420.630541 
L 665.206479 419.293674 
L 673.653704 417.955715 
L 682.100929 416.617376 
L 690.548153 415.278179 
L 698.995378 413.938682 
L 707.442603 412.598907 
L 715.889828 411.258846 
L 724.337052 409.918627 
L 732.784277 408.578346 
L 741.231502 407.238015 
L 749.678727 405.897826 
L 758.125952 404.557898 
L 766.573176 403.218401 
L 775.020401 401.879293 
L 783.467626 400.540541 
L 791.914851 399.202697 
L 800.362075 397.86511 
L 808.8093 396.528573 
L 817.256525 395.192781 
L 825.70375 393.857825 
L 834.150975 392.523995 
L 842.598199 391.191311 
L 851.045424 389.859691 
L 859.492649 388.52919 
L 867.939874 387.2 
L 876.387098 385.872282 
L 884.834323 384.545991 
L 893.281548 383.221291 
" clip-path="url(#p078e2d2250)" style="fill: none; stroke: #ad494a; stroke-width: 2; stroke-linecap: round"/>
   </g>
   <g id="line2d_44">
    <path d="M 48.559071 514.574614 
L 57.006295 513.99326 
L 65.45352 513.390956 
L 73.900745 512.768163 
L 82.34797 512.125272 
L 90.795195 511.462674 
L 99.242419 510.780779 
L 107.689644 510.079977 
L 116.136869 509.360646 
L 124.584094 508.623182 
L 133.031318 507.867926 
L 141.478543 507.095288 
L 149.925768 506.305595 
L 158.372993 505.499242 
L 166.820217 504.676547 
L 175.267442 503.837887 
L 183.714667 502.983608 
L 192.161892 502.113999 
L 200.609117 501.229447 
L 209.056341 500.330272 
L 217.503566 499.41676 
L 225.950791 498.489252 
L 234.398016 497.548111 
L 242.84524 496.593575 
L 251.292465 495.625983 
L 259.73969 494.645619 
L 268.186915 493.652827 
L 276.63414 492.647842 
L 285.081364 491.63098 
L 293.528589 490.602521 
L 301.975814 489.562737 
L 310.423039 488.511893 
L 318.870263 487.450294 
L 327.317488 486.378162 
L 335.764713 485.295795 
L 344.211938 484.203427 
L 352.659162 483.10133 
L 361.106387 481.989786 
L 369.553612 480.868982 
L 378.000837 479.739186 
L 386.448062 478.600631 
L 394.895286 477.453628 
L 403.342511 476.298297 
L 411.789736 475.134934 
L 420.236961 473.963715 
L 428.684185 472.784888 
L 437.13141 471.59869 
L 445.578635 470.405347 
L 454.02586 469.20507 
L 462.473085 467.998016 
L 470.920309 466.784399 
L 479.367534 465.564452 
L 487.814759 464.338356 
L 496.261984 463.106349 
L 504.709208 461.868586 
L 513.156433 460.625228 
L 521.603658 459.376599 
L 530.050883 458.12266 
L 538.498107 456.863747 
L 546.945332 455.600085 
L 555.392557 454.331643 
L 563.839782 453.058783 
L 572.287007 451.781623 
L 580.734231 450.50034 
L 589.181456 449.215023 
L 597.628681 447.925971 
L 606.075906 446.633162 
L 614.52313 445.336963 
L 622.970355 444.037315 
L 631.41758 442.734499 
L 639.864805 441.428684 
L 648.31203 440.119879 
L 656.759254 438.808395 
L 665.206479 437.494374 
L 673.653704 436.177807 
L 682.100929 434.85888 
L 690.548153 433.537732 
L 698.995378 432.214671 
L 707.442603 430.889497 
L 715.889828 429.562667 
L 724.337052 428.234017 
L 732.784277 426.90387 
L 741.231502 425.572272 
L 749.678727 424.239402 
L 758.125952 422.905351 
L 766.573176 421.570272 
L 775.020401 420.234068 
L 783.467626 418.897087 
L 791.914851 417.55945 
L 800.362075 416.221062 
L 808.8093 414.882143 
L 817.256525 413.542955 
L 825.70375 412.20341 
L 834.150975 410.86352 
L 842.598199 409.523544 
L 851.045424 408.183587 
L 859.492649 406.843766 
L 867.939874 405.503938 
L 876.387098 404.164401 
L 884.834323 402.825289 
L 893.281548 401.486747 
" clip-path="url(#p078e2d2250)" style="fill: none; stroke: #e7969c; stroke-width: 2; stroke-linecap: round"/>
   </g>
   <g id="line2d_45">
    <path d="M 48.559071 518.416377 
L 57.006295 518.017894 
L 65.45352 517.594946 
L 73.900745 517.148024 
L 82.34797 516.677577 
L 90.795195 516.184047 
L 99.242419 515.667887 
L 107.689644 515.129536 
L 116.136869 514.569419 
L 124.584094 513.987978 
L 133.031318 513.385601 
L 141.478543 512.762739 
L 149.925768 512.119771 
L 158.372993 511.457123 
L 166.820217 510.775171 
L 175.267442 510.074323 
L 183.714667 509.354966 
L 192.161892 508.617449 
L 200.609117 507.862179 
L 209.056341 507.089523 
L 217.503566 506.299817 
L 225.950791 505.493426 
L 234.398016 504.670759 
L 242.84524 503.832094 
L 251.292465 502.977806 
L 259.73969 502.108219 
L 268.186915 501.223704 
L 276.63414 500.324546 
L 285.081364 499.411084 
L 293.528589 498.483649 
L 301.975814 497.542537 
L 310.423039 496.58806 
L 318.870263 495.620522 
L 327.317488 494.640229 
L 335.764713 493.647474 
L 344.211938 492.642566 
L 352.659162 491.625764 
L 361.106387 490.597389 
L 369.553612 489.557675 
L 378.000837 488.506909 
L 386.448062 487.445386 
L 394.895286 486.373401 
L 403.342511 485.291134 
L 411.789736 484.19887 
L 420.236961 483.09688 
L 428.684185 481.985429 
L 437.13141 480.86473 
L 445.578635 479.735082 
L 454.02586 478.596669 
L 462.473085 477.44975 
L 470.920309 476.294534 
L 479.367534 475.131326 
L 487.814759 473.960232 
L 496.261984 472.781558 
L 504.709208 471.595514 
L 513.156433 470.402264 
L 521.603658 469.202165 
L 530.050883 467.995215 
L 538.498107 466.781779 
L 546.945332 465.561987 
L 555.392557 464.336043 
L 563.839782 463.104174 
L 572.287007 461.866565 
L 580.734231 460.62338 
L 589.181456 459.374891 
L 597.628681 458.121151 
L 606.075906 456.862332 
L 614.52313 455.598856 
L 622.970355 454.330565 
L 631.41758 453.057908 
L 639.864805 451.780893 
L 648.31203 450.499786 
L 656.759254 449.214591 
L 665.206479 447.925757 
L 673.653704 446.633178 
L 682.100929 445.337106 
L 690.548153 444.037652 
L 698.995378 442.734985 
L 707.442603 441.429381 
L 715.889828 440.120744 
L 724.337052 438.809452 
L 732.784277 437.495585 
L 741.231502 436.179168 
L 749.678727 434.860415 
L 758.125952 433.539474 
L 766.573176 432.216568 
L 775.020401 430.89155 
L 783.467626 429.564928 
L 791.914851 428.236489 
L 800.362075 426.906489 
L 808.8093 425.575079 
L 817.256525 424.2424 
L 825.70375 422.908538 
L 834.150975 421.57366 
L 842.598199 420.237623 
L 851.045424 418.900814 
L 859.492649 417.563336 
L 867.939874 416.225129 
L 876.387098 414.886426 
L 884.834323 413.547376 
L 893.281548 412.208043 
" clip-path="url(#p078e2d2250)" style="fill: none; stroke: #a55194; stroke-width: 2; stroke-linecap: round"/>
   </g>
   <g id="line2d_46">
    <path d="M 48.559071 521.101924 
L 57.006295 520.384526 
L 65.45352 519.768877 
L 73.900745 519.240102 
L 82.34797 518.785601 
L 90.795195 518.390592 
L 99.242419 517.990522 
L 107.689644 517.566037 
L 116.136869 517.117597 
L 124.584094 516.645669 
L 133.031318 516.15068 
L 141.478543 515.633104 
L 149.925768 515.093353 
L 158.372993 514.531882 
L 166.820217 513.949095 
L 175.267442 513.345429 
L 183.714667 512.721299 
L 192.161892 512.077083 
L 200.609117 511.413219 
L 209.056341 510.730091 
L 217.503566 510.028072 
L 225.950791 509.307555 
L 234.398016 508.56896 
L 242.84524 507.812603 
L 251.292465 507.038884 
L 259.73969 506.248153 
L 268.186915 505.440795 
L 276.63414 504.617128 
L 285.081364 503.77752 
L 293.528589 502.922315 
L 301.975814 502.051846 
L 310.423039 501.166438 
L 318.870263 500.26642 
L 327.317488 499.352121 
L 335.764713 498.423858 
L 344.211938 497.481948 
L 352.659162 496.526699 
L 361.106387 495.558429 
L 369.553612 494.577416 
L 378.000837 493.583948 
L 386.448062 492.578332 
L 394.895286 491.560905 
L 403.342511 490.531872 
L 411.789736 489.491536 
L 420.236961 488.440175 
L 428.684185 487.378058 
L 437.13141 486.305465 
L 445.578635 485.222654 
L 454.02586 484.129876 
L 462.473085 483.027379 
L 470.920309 481.915426 
L 479.367534 480.794269 
L 487.814759 479.664121 
L 496.261984 478.525268 
L 504.709208 477.377916 
L 513.156433 476.222267 
L 521.603658 475.058662 
L 530.050883 473.887167 
L 538.498107 472.708149 
L 546.945332 471.521758 
L 555.392557 470.32819 
L 563.839782 469.127679 
L 572.287007 467.920463 
L 580.734231 466.706678 
L 589.181456 465.486655 
L 597.628681 464.260426 
L 606.075906 463.028257 
L 614.52313 461.790469 
L 622.970355 460.546987 
L 631.41758 459.298248 
L 639.864805 458.044288 
L 648.31203 456.785367 
L 656.759254 455.521566 
L 665.206479 454.253257 
L 673.653704 452.980424 
L 682.100929 451.70325 
L 690.548153 450.421904 
L 698.995378 449.136732 
L 707.442603 447.847626 
L 715.889828 446.554895 
L 724.337052 445.258697 
L 732.784277 443.959206 
L 741.231502 442.656559 
L 749.678727 441.350734 
L 758.125952 440.042171 
L 766.573176 438.730778 
L 775.020401 437.416776 
L 783.467626 436.100358 
L 791.914851 434.781669 
L 800.362075 433.460669 
L 808.8093 432.137623 
L 817.256525 430.812781 
L 825.70375 429.486026 
L 834.150975 428.157603 
L 842.598199 426.827671 
L 851.045424 425.496313 
L 859.492649 424.163638 
L 867.939874 422.829745 
L 876.387098 421.494858 
L 884.834323 420.159094 
L 893.281548 418.822237 
" clip-path="url(#p078e2d2250)" style="fill: none; stroke: #de9ed6; stroke-width: 2; stroke-linecap: round"/>
   </g>
   <g id="patch_3">
    <path d="M 48.559071 521.153031 
L 48.559071 51.564121 
" style="fill: none"/>
   </g>
   <g id="patch_4">
    <path d="M 935.517672 521.153031 
L 935.517672 51.564121 
" style="fill: none"/>
   </g>
   <g id="patch_5">
    <path d="M 48.559071 521.153031 
L 935.517672 521.153031 
" style="fill: none"/>
   </g>
   <g id="patch_6">
    <path d="M 48.559071 51.564121 
L 935.517672 51.564121 
" style="fill: none"/>
   </g>
   <g id="patch_7">
    <path d="M 470.920309 80.396496 
Q 470.920309 276.803204 470.920309 471.53286 
" style="fill: none; stroke: #000000; stroke-width: 1.5; stroke-linecap: round"/>
    <path d="M 474.120309 465.13286 
L 470.920309 471.53286 
L 467.720309 465.13286 
" style="fill: none; stroke: #000000; stroke-width: 1.5; stroke-linecap: round"/>
   </g>
   <g id="text_20">
    <!-- Time -->
    <g style="fill: #262626" transform="translate(492.038371 471.718912) scale(0.18 -0.18)">
     <defs>
      <path id="CMR17-54" d="M 3981 4326 
L 288 4326 
L 179 2918 
L 294 2918 
C 378 3976 467 4160 1453 4160 
C 1568 4160 1754 4160 1805 4154 
C 1926 4135 1926 4058 1926 3912 
L 1926 459 
C 1926 230 1907 160 1376 160 
L 1197 160 
L 1197 0 
C 1504 0 1824 0 2138 0 
C 2451 0 2771 0 3078 0 
L 3078 160 
L 2899 160 
C 2368 160 2349 230 2349 459 
L 2349 3912 
C 2349 4052 2349 4129 2464 4154 
C 2515 4160 2701 4160 2816 4160 
C 3795 4160 3891 3976 3974 2918 
L 4090 2918 
L 3981 4326 
z
" transform="scale(0.015625)"/>
      <path id="CMR17-69" d="M 992 3909 
C 992 4049 877 4170 730 4170 
C 589 4170 467 4056 467 3909 
C 467 3769 582 3648 730 3648 
C 870 3648 992 3763 992 3909 
z
M 243 2706 
L 243 2541 
C 602 2541 653 2502 653 2197 
L 653 427 
C 653 184 627 153 218 153 
L 218 -13 
C 371 0 646 0 806 0 
C 960 0 1222 0 1370 -13 
L 1370 153 
C 992 153 979 191 979 420 
L 979 2776 
L 243 2706 
z
" transform="scale(0.015625)"/>
      <path id="CMR17-6d" d="M 4326 1933 
C 4326 2252 4269 2790 3507 2790 
C 3072 2790 2771 2496 2656 2151 
L 2650 2151 
C 2573 2676 2195 2790 1837 2790 
C 1331 2790 1069 2400 973 2144 
L 966 2144 
L 966 2790 
L 211 2720 
L 211 2554 
C 589 2554 646 2515 646 2208 
L 646 428 
C 646 184 621 153 211 153 
L 211 -13 
C 365 0 646 0 813 0 
C 979 0 1267 0 1421 -13 
L 1421 153 
C 1011 153 986 178 986 428 
L 986 1658 
C 986 2247 1344 2688 1792 2688 
C 2266 2688 2317 2266 2317 1958 
L 2317 428 
C 2317 184 2291 153 1882 153 
L 1882 -13 
C 2035 0 2317 0 2483 0 
C 2650 0 2938 0 3091 -13 
L 3091 153 
C 2682 153 2656 178 2656 428 
L 2656 1658 
C 2656 2247 3014 2688 3462 2688 
C 3936 2688 3987 2266 3987 1958 
L 3987 428 
C 3987 184 3962 153 3552 153 
L 3552 -13 
C 3706 0 3987 0 4154 0 
C 4320 0 4608 0 4762 -13 
L 4762 153 
C 4352 153 4326 178 4326 428 
L 4326 1933 
z
" transform="scale(0.015625)"/>
      <path id="CMR17-65" d="M 2438 1472 
C 2464 1498 2464 1511 2464 1576 
C 2464 2238 2118 2816 1389 2816 
C 710 2816 173 2169 173 1383 
C 173 551 781 -64 1459 -64 
C 2176 -64 2458 607 2458 740 
C 2458 784 2419 784 2406 784 
C 2362 784 2355 771 2330 696 
C 2189 265 1837 51 1504 51 
C 1229 51 954 203 781 480 
C 582 803 582 1176 582 1472 
L 2438 1472 
z
M 589 1568 
C 634 2505 1126 2714 1382 2714 
C 1818 2714 2112 2297 2118 1568 
L 589 1568 
z
" transform="scale(0.015625)"/>
     </defs>
     <use xlink:href="#CMR17-54" transform="scale(0.996264)"/>
     <use xlink:href="#CMR17-69" transform="translate(66.509881 0) scale(0.996264)"/>
     <use xlink:href="#CMR17-6d" transform="translate(91.380939 0) scale(0.996264)"/>
     <use xlink:href="#CMR17-65" transform="translate(168.300529 0) scale(0.996264)"/>
    </g>
   </g>
   <g id="legend_1">
    <g id="line2d_47">
     <path d="M 948.117672 197.198434 
L 962.117672 197.198434 
L 976.117672 197.198434 
" style="fill: none; stroke: #393b79; stroke-width: 2; stroke-linecap: round"/>
    </g>
    <g id="text_21">
     <!-- t = 0.00 -->
     <g style="fill: #262626" transform="translate(987.317672 202.098434) scale(0.14 -0.14)">
      <defs>
       <path id="CMR17-74" d="M 966 2560 
L 1862 2560 
L 1862 2725 
L 966 2725 
L 966 3904 
L 851 3904 
C 838 3245 614 2668 70 2668 
L 70 2560 
L 627 2560 
L 627 771 
C 627 650 627 -64 1370 -64 
C 1747 -64 1965 306 1965 777 
L 1965 1140 
L 1850 1140 
L 1850 783 
C 1850 344 1677 51 1408 51 
C 1222 51 966 178 966 758 
L 966 2560 
z
" transform="scale(0.015625)"/>
       <path id="CMR17-3d" d="M 4115 2017 
C 4211 2017 4307 2017 4307 2125 
C 4307 2240 4198 2240 4090 2240 
L 512 2240 
C 403 2240 294 2240 294 2125 
C 294 2017 390 2017 486 2017 
L 4115 2017 
z
M 4090 896 
C 4198 896 4307 896 4307 1011 
C 4307 1119 4211 1119 4115 1119 
L 486 1119 
C 390 1119 294 1119 294 1011 
C 294 896 403 896 512 896 
L 4090 896 
z
" transform="scale(0.015625)"/>
       <path id="CMR17-2e" d="M 1062 261 
C 1062 420 934 522 800 522 
C 672 522 538 420 538 261 
C 538 102 666 0 800 0 
C 928 0 1062 102 1062 261 
z
" transform="scale(0.015625)"/>
      </defs>
      <use xlink:href="#CMR17-74" transform="scale(0.996264)"/>
      <use xlink:href="#CMR17-3d" transform="translate(65.356734 0) scale(0.996264)"/>
      <use xlink:href="#CMR17-30" transform="translate(167.147489 0) scale(0.996264)"/>
      <use xlink:href="#CMR17-2e" transform="translate(212.837966 0) scale(0.996264)"/>
      <use xlink:href="#CMR17-30" transform="translate(237.709025 0) scale(0.996264)"/>
      <use xlink:href="#CMR17-30" transform="translate(283.399502 0) scale(0.996264)"/>
     </g>
    </g>
    <g id="line2d_48">
     <path d="M 948.117672 216.710462 
L 962.117672 216.710462 
L 976.117672 216.710462 
" style="fill: none; stroke: #6b6ecf; stroke-width: 2; stroke-linecap: round"/>
    </g>
    <g id="text_22">
     <!-- t = 10.00 -->
     <g style="fill: #262626" transform="translate(987.317672 221.610462) scale(0.14 -0.14)">
      <use xlink:href="#CMR17-74" transform="scale(0.996264)"/>
      <use xlink:href="#CMR17-3d" transform="translate(65.356734 0) scale(0.996264)"/>
      <use xlink:href="#CMR17-31" transform="translate(167.147489 0) scale(0.996264)"/>
      <use xlink:href="#CMR17-30" transform="translate(212.837966 0) scale(0.996264)"/>
      <use xlink:href="#CMR17-2e" transform="translate(258.528443 0) scale(0.996264)"/>
      <use xlink:href="#CMR17-30" transform="translate(283.399502 0) scale(0.996264)"/>
      <use xlink:href="#CMR17-30" transform="translate(329.089979 0) scale(0.996264)"/>
     </g>
    </g>
    <g id="line2d_49">
     <path d="M 948.117672 236.222491 
L 962.117672 236.222491 
L 976.117672 236.222491 
" style="fill: none; stroke: #637939; stroke-width: 2; stroke-linecap: round"/>
    </g>
    <g id="text_23">
     <!-- t = 50.00 -->
     <g style="fill: #262626" transform="translate(987.317672 241.122491) scale(0.14 -0.14)">
      <use xlink:href="#CMR17-74" transform="scale(0.996264)"/>
      <use xlink:href="#CMR17-3d" transform="translate(65.356734 0) scale(0.996264)"/>
      <use xlink:href="#CMR17-35" transform="translate(167.147489 0) scale(0.996264)"/>
      <use xlink:href="#CMR17-30" transform="translate(212.837966 0) scale(0.996264)"/>
      <use xlink:href="#CMR17-2e" transform="translate(258.528443 0) scale(0.996264)"/>
      <use xlink:href="#CMR17-30" transform="translate(283.399502 0) scale(0.996264)"/>
      <use xlink:href="#CMR17-30" transform="translate(329.089979 0) scale(0.996264)"/>
     </g>
    </g>
    <g id="line2d_50">
     <path d="M 948.117672 255.734519 
L 962.117672 255.734519 
L 976.117672 255.734519 
" style="fill: none; stroke: #b5cf6b; stroke-width: 2; stroke-linecap: round"/>
    </g>
    <g id="text_24">
     <!-- t = 100.00 -->
     <g style="fill: #262626" transform="translate(987.317672 260.634519) scale(0.14 -0.14)">
      <use xlink:href="#CMR17-74" transform="scale(0.996264)"/>
      <use xlink:href="#CMR17-3d" transform="translate(65.356734 0) scale(0.996264)"/>
      <use xlink:href="#CMR17-31" transform="translate(167.147489 0) scale(0.996264)"/>
      <use xlink:href="#CMR17-30" transform="translate(212.837966 0) scale(0.996264)"/>
      <use xlink:href="#CMR17-30" transform="translate(258.528443 0) scale(0.996264)"/>
      <use xlink:href="#CMR17-2e" transform="translate(304.21892 0) scale(0.996264)"/>
      <use xlink:href="#CMR17-30" transform="translate(329.089979 0) scale(0.996264)"/>
      <use xlink:href="#CMR17-30" transform="translate(374.780456 0) scale(0.996264)"/>
     </g>
    </g>
    <g id="line2d_51">
     <path d="M 948.117672 275.246547 
L 962.117672 275.246547 
L 976.117672 275.246547 
" style="fill: none; stroke: #8c6d31; stroke-width: 2; stroke-linecap: round"/>
    </g>
    <g id="text_25">
     <!-- t = 250.00 -->
     <g style="fill: #262626" transform="translate(987.317672 280.146547) scale(0.14 -0.14)">
      <use xlink:href="#CMR17-74" transform="scale(0.996264)"/>
      <use xlink:href="#CMR17-3d" transform="translate(65.356734 0) scale(0.996264)"/>
      <use xlink:href="#CMR17-32" transform="translate(167.147489 0) scale(0.996264)"/>
      <use xlink:href="#CMR17-35" transform="translate(212.837966 0) scale(0.996264)"/>
      <use xlink:href="#CMR17-30" transform="translate(258.528443 0) scale(0.996264)"/>
      <use xlink:href="#CMR17-2e" transform="translate(304.21892 0) scale(0.996264)"/>
      <use xlink:href="#CMR17-30" transform="translate(329.089979 0) scale(0.996264)"/>
      <use xlink:href="#CMR17-30" transform="translate(374.780456 0) scale(0.996264)"/>
     </g>
    </g>
    <g id="line2d_52">
     <path d="M 948.117672 294.758576 
L 962.117672 294.758576 
L 976.117672 294.758576 
" style="fill: none; stroke: #e7cb94; stroke-width: 2; stroke-linecap: round"/>
    </g>
    <g id="text_26">
     <!-- t = 500.00 -->
     <g style="fill: #262626" transform="translate(987.317672 299.658576) scale(0.14 -0.14)">
      <use xlink:href="#CMR17-74" transform="scale(0.996264)"/>
      <use xlink:href="#CMR17-3d" transform="translate(65.356734 0) scale(0.996264)"/>
      <use xlink:href="#CMR17-35" transform="translate(167.147489 0) scale(0.996264)"/>
      <use xlink:href="#CMR17-30" transform="translate(212.837966 0) scale(0.996264)"/>
      <use xlink:href="#CMR17-30" transform="translate(258.528443 0) scale(0.996264)"/>
      <use xlink:href="#CMR17-2e" transform="translate(304.21892 0) scale(0.996264)"/>
      <use xlink:href="#CMR17-30" transform="translate(329.089979 0) scale(0.996264)"/>
      <use xlink:href="#CMR17-30" transform="translate(374.780456 0) scale(0.996264)"/>
     </g>
    </g>
    <g id="line2d_53">
     <path d="M 948.117672 314.270604 
L 962.117672 314.270604 
L 976.117672 314.270604 
" style="fill: none; stroke: #ad494a; stroke-width: 2; stroke-linecap: round"/>
    </g>
    <g id="text_27">
     <!-- t = 750.00 -->
     <g style="fill: #262626" transform="translate(987.317672 319.170604) scale(0.14 -0.14)">
      <use xlink:href="#CMR17-74" transform="scale(0.996264)"/>
      <use xlink:href="#CMR17-3d" transform="translate(65.356734 0) scale(0.996264)"/>
      <use xlink:href="#CMR17-37" transform="translate(167.147489 0) scale(0.996264)"/>
      <use xlink:href="#CMR17-35" transform="translate(212.837966 0) scale(0.996264)"/>
      <use xlink:href="#CMR17-30" transform="translate(258.528443 0) scale(0.996264)"/>
      <use xlink:href="#CMR17-2e" transform="translate(304.21892 0) scale(0.996264)"/>
      <use xlink:href="#CMR17-30" transform="translate(329.089979 0) scale(0.996264)"/>
      <use xlink:href="#CMR17-30" transform="translate(374.780456 0) scale(0.996264)"/>
     </g>
    </g>
    <g id="line2d_54">
     <path d="M 948.117672 333.782633 
L 962.117672 333.782633 
L 976.117672 333.782633 
" style="fill: none; stroke: #e7969c; stroke-width: 2; stroke-linecap: round"/>
    </g>
    <g id="text_28">
     <!-- t = 1000.00 -->
     <g style="fill: #262626" transform="translate(987.317672 338.682633) scale(0.14 -0.14)">
      <use xlink:href="#CMR17-74" transform="scale(0.996264)"/>
      <use xlink:href="#CMR17-3d" transform="translate(65.356734 0) scale(0.996264)"/>
      <use xlink:href="#CMR17-31" transform="translate(167.147489 0) scale(0.996264)"/>
      <use xlink:href="#CMR17-30" transform="translate(212.837966 0) scale(0.996264)"/>
      <use xlink:href="#CMR17-30" transform="translate(258.528443 0) scale(0.996264)"/>
      <use xlink:href="#CMR17-30" transform="translate(304.21892 0) scale(0.996264)"/>
      <use xlink:href="#CMR17-2e" transform="translate(349.909397 0) scale(0.996264)"/>
      <use xlink:href="#CMR17-30" transform="translate(374.780456 0) scale(0.996264)"/>
      <use xlink:href="#CMR17-30" transform="translate(420.470933 0) scale(0.996264)"/>
     </g>
    </g>
    <g id="line2d_55">
     <path d="M 948.117672 353.294661 
L 962.117672 353.294661 
L 976.117672 353.294661 
" style="fill: none; stroke: #a55194; stroke-width: 2; stroke-linecap: round"/>
    </g>
    <g id="text_29">
     <!-- t = 1250.00 -->
     <g style="fill: #262626" transform="translate(987.317672 358.194661) scale(0.14 -0.14)">
      <use xlink:href="#CMR17-74" transform="scale(0.996264)"/>
      <use xlink:href="#CMR17-3d" transform="translate(65.356734 0) scale(0.996264)"/>
      <use xlink:href="#CMR17-31" transform="translate(167.147489 0) scale(0.996264)"/>
      <use xlink:href="#CMR17-32" transform="translate(212.837966 0) scale(0.996264)"/>
      <use xlink:href="#CMR17-35" transform="translate(258.528443 0) scale(0.996264)"/>
      <use xlink:href="#CMR17-30" transform="translate(304.21892 0) scale(0.996264)"/>
      <use xlink:href="#CMR17-2e" transform="translate(349.909397 0) scale(0.996264)"/>
      <use xlink:href="#CMR17-30" transform="translate(374.780456 0) scale(0.996264)"/>
      <use xlink:href="#CMR17-30" transform="translate(420.470933 0) scale(0.996264)"/>
     </g>
    </g>
    <g id="line2d_56">
     <path d="M 948.117672 372.806689 
L 962.117672 372.806689 
L 976.117672 372.806689 
" style="fill: none; stroke: #de9ed6; stroke-width: 2; stroke-linecap: round"/>
    </g>
    <g id="text_30">
     <!-- t = 1500.00 -->
     <g style="fill: #262626" transform="translate(987.317672 377.706689) scale(0.14 -0.14)">
      <use xlink:href="#CMR17-74" transform="scale(0.996264)"/>
      <use xlink:href="#CMR17-3d" transform="translate(65.356734 0) scale(0.996264)"/>
      <use xlink:href="#CMR17-31" transform="translate(167.147489 0) scale(0.996264)"/>
      <use xlink:href="#CMR17-35" transform="translate(212.837966 0) scale(0.996264)"/>
      <use xlink:href="#CMR17-30" transform="translate(258.528443 0) scale(0.996264)"/>
      <use xlink:href="#CMR17-30" transform="translate(304.21892 0) scale(0.996264)"/>
      <use xlink:href="#CMR17-2e" transform="translate(349.909397 0) scale(0.996264)"/>
      <use xlink:href="#CMR17-30" transform="translate(374.780456 0) scale(0.996264)"/>
      <use xlink:href="#CMR17-30" transform="translate(420.470933 0) scale(0.996264)"/>
     </g>
    </g>
   </g>
  </g>
  <g id="text_31">
   <!-- permeability -->
   <g style="fill: #262626" transform="translate(492.111452 24.803515) scale(0.192 -0.192)">
    <defs>
     <path id="CMR17-70" d="M 1408 -1063 
C 998 -1063 973 -1037 973 -789 
L 973 402 
C 1158 134 1427 -38 1766 -38 
C 2406 -38 3053 523 3053 1388 
C 3053 2191 2496 2802 1837 2802 
C 1453 2802 1139 2592 960 2338 
L 960 2802 
L 198 2732 
L 198 2567 
C 576 2567 634 2528 634 2223 
L 634 -789 
C 634 -1031 608 -1063 198 -1063 
L 198 -1228 
C 352 -1216 634 -1216 800 -1216 
C 966 -1216 1254 -1216 1408 -1228 
L 1408 -1063 
z
M 973 2012 
C 973 2102 973 2235 1222 2471 
C 1254 2497 1472 2688 1792 2688 
C 2259 2688 2643 2108 2643 1382 
C 2643 656 2234 64 1728 64 
C 1498 64 1248 172 1056 472 
C 973 612 973 650 973 752 
L 973 2012 
z
" transform="scale(0.015625)"/>
     <path id="CMR17-72" d="M 960 1497 
C 960 2112 1222 2688 1702 2688 
C 1747 2688 1792 2682 1837 2662 
C 1837 2662 1696 2617 1696 2452 
C 1696 2298 1818 2234 1914 2234 
C 1990 2234 2131 2279 2131 2458 
C 2131 2663 1926 2790 1709 2790 
C 1222 2790 1011 2317 947 2093 
L 941 2093 
L 941 2790 
L 198 2720 
L 198 2554 
C 576 2554 634 2515 634 2208 
L 634 428 
C 634 184 608 153 198 153 
L 198 -13 
C 352 0 646 0 813 0 
C 998 0 1325 0 1498 -13 
L 1498 153 
C 1037 153 960 153 960 440 
L 960 1497 
z
" transform="scale(0.015625)"/>
     <path id="CMR17-61" d="M 2304 1653 
C 2304 2072 2304 2294 2035 2543 
C 1798 2752 1523 2816 1306 2816 
C 800 2816 435 2407 435 1971 
C 435 1728 627 1728 666 1728 
C 749 1728 896 1778 896 1954 
C 896 2112 774 2181 666 2181 
C 640 2181 608 2174 589 2168 
C 723 2592 1069 2714 1293 2714 
C 1613 2714 1965 2429 1965 1885 
L 1965 1600 
C 1587 1600 1133 1549 774 1357 
C 371 1133 256 813 256 570 
C 256 77 832 -64 1171 -64 
C 1523 -64 1850 139 1990 511 
C 2003 233 2182 -18 2464 -18 
C 2598 -18 2938 70 2938 567 
L 2938 920 
L 2822 920 
L 2822 562 
C 2822 178 2650 128 2566 128 
C 2304 128 2304 458 2304 738 
L 2304 1653 
z
M 1965 870 
C 1965 317 1568 38 1216 38 
C 896 38 646 275 646 570 
C 646 761 730 1100 1101 1305 
C 1408 1478 1760 1504 1965 1504 
L 1965 870 
z
" transform="scale(0.015625)"/>
     <path id="CMR17-62" d="M 960 4396 
L 198 4326 
L 198 4160 
C 576 4160 634 4122 634 3817 
L 634 -13 
L 749 -13 
L 934 441 
C 1120 141 1395 -64 1766 -64 
C 2406 -64 3053 500 3053 1370 
C 3053 2188 2477 2790 1830 2790 
C 1434 2790 1152 2579 960 2330 
L 960 4396 
z
M 973 2004 
C 973 2118 973 2138 1062 2272 
C 1312 2657 1670 2688 1792 2688 
C 1984 2688 2643 2585 2643 1376 
C 2643 108 1888 38 1734 38 
C 1536 38 1248 114 1043 486 
C 973 608 973 621 973 735 
L 973 2004 
z
" transform="scale(0.015625)"/>
     <path id="CMR17-6c" d="M 979 4396 
L 218 4326 
L 218 4160 
C 595 4160 653 4122 653 3817 
L 653 426 
C 653 184 627 153 218 153 
L 218 -13 
C 371 0 653 0 813 0 
C 979 0 1261 0 1414 -13 
L 1414 153 
C 1005 153 979 178 979 426 
L 979 4396 
z
" transform="scale(0.015625)"/>
     <path id="CMR17-79" d="M 2496 2197 
C 2656 2586 2944 2586 3034 2586 
L 3034 2752 
C 2912 2752 2752 2752 2630 2752 
C 2496 2752 2285 2752 2157 2758 
L 2157 2592 
C 2400 2573 2406 2394 2406 2343 
C 2406 2280 2394 2248 2362 2171 
L 1664 449 
L 902 2306 
C 870 2382 870 2426 870 2433 
C 870 2573 1018 2586 1171 2586 
L 1171 2758 
C 1018 2752 742 2752 582 2752 
C 410 2752 205 2752 64 2758 
L 64 2586 
C 410 2586 448 2554 531 2350 
L 1485 15 
C 1197 -738 1030 -1178 627 -1178 
C 557 -1178 397 -1159 282 -1044 
C 429 -1031 493 -942 493 -833 
C 493 -725 416 -629 288 -629 
C 147 -629 77 -725 77 -840 
C 77 -1095 339 -1280 627 -1280 
C 998 -1280 1229 -922 1357 -604 
L 2496 2197 
z
" transform="scale(0.015625)"/>
    </defs>
    <use xlink:href="#CMR17-70" transform="scale(0.996264)"/>
    <use xlink:href="#CMR17-65" transform="translate(53.497809 0) scale(0.996264)"/>
    <use xlink:href="#CMR17-72" transform="translate(93.983469 0) scale(0.996264)"/>
    <use xlink:href="#CMR17-6d" transform="translate(129.264237 0) scale(0.996264)"/>
    <use xlink:href="#CMR17-65" transform="translate(206.183827 0) scale(0.996264)"/>
    <use xlink:href="#CMR17-61" transform="translate(246.669487 0) scale(0.996264)"/>
    <use xlink:href="#CMR17-62" transform="translate(292.359964 0) scale(0.996264)"/>
    <use xlink:href="#CMR17-69" transform="translate(343.255334 0) scale(0.996264)"/>
    <use xlink:href="#CMR17-6c" transform="translate(368.126392 0) scale(0.996264)"/>
    <use xlink:href="#CMR17-69" transform="translate(392.997451 0) scale(0.996264)"/>
    <use xlink:href="#CMR17-74" transform="translate(417.868509 0) scale(0.996264)"/>
    <use xlink:href="#CMR17-79" transform="translate(450.546823 0) scale(0.996264)"/>
   </g>
  </g>
 </g>
 <defs>
  <clipPath id="p078e2d2250">
   <rect x="48.559071" y="51.564121" width="886.958601" height="469.58891"/>
  </clipPath>
 </defs>
</svg>
