<?xml version="1.0" encoding="utf-8" standalone="no"?>
<!DOCTYPE svg PUBLIC "-//W3C//DTD SVG 1.1//EN"
  "http://www.w3.org/Graphics/SVG/1.1/DTD/svg11.dtd">
<svg xmlns:xlink="http://www.w3.org/1999/xlink" width="1080pt" height="756pt" viewBox="0 0 1080 756" xmlns="http://www.w3.org/2000/svg" version="1.1">
 <metadata>
  <rdf:RDF xmlns:dc="http://purl.org/dc/elements/1.1/" xmlns:cc="http://creativecommons.org/ns#" xmlns:rdf="http://www.w3.org/1999/02/22-rdf-syntax-ns#">
   <cc:Work>
    <dc:type rdf:resource="http://purl.org/dc/dcmitype/StillImage"/>
    <dc:date>2024-07-30T20:14:58.509188</dc:date>
    <dc:format>image/svg+xml</dc:format>
    <dc:creator>
     <cc:Agent>
      <dc:title>Matplotlib v3.9.0, https://matplotlib.org/</dc:title>
     </cc:Agent>
    </dc:creator>
   </cc:Work>
  </rdf:RDF>
 </metadata>
 <defs>
  <style type="text/css">*{stroke-linejoin: round; stroke-linecap: butt}</style>
 </defs>
 <g id="figure_1">
  <g id="patch_1">
   <path d="M 0 756 
L 1080 756 
L 1080 0 
L 0 0 
z
" style="fill: #ffffff"/>
  </g>
  <g id="axes_1">
   <g id="patch_2">
    <path d="M 88.532127 678.237256 
L 1041.12 678.237256 
L 1041.12 38.88 
L 88.532127 38.88 
z
" style="fill: #ffffff"/>
   </g>
   <g id="matplotlib.axis_1">
    <g id="xtick_1">
     <g id="line2d_1">
      <defs>
       <path id="m3bf5ac7c50" d="M 0 0 
L 0 3.5 
" style="stroke: #262626; stroke-width: 0.8"/>
      </defs>
      <g>
       <use xlink:href="#m3bf5ac7c50" x="131.831576" y="678.237256" style="fill: #262626; stroke: #262626; stroke-width: 0.8"/>
      </g>
     </g>
     <g id="text_1">
      <!-- $\mathdefault{0.0}$ -->
      <g style="fill: #262626" transform="translate(110.505512 710.143856) scale(0.36 -0.36)">
       <defs>
        <path id="CMR17-30" d="M 2688 2025 
C 2688 2416 2682 3080 2413 3591 
C 2176 4039 1798 4198 1466 4198 
C 1158 4198 768 4058 525 3597 
C 269 3118 243 2524 243 2025 
C 243 1661 250 1106 448 619 
C 723 -39 1216 -128 1466 -128 
C 1760 -128 2208 -7 2470 600 
C 2662 1042 2688 1559 2688 2025 
z
M 1466 -26 
C 1056 -26 813 325 723 812 
C 653 1188 653 1738 653 2096 
C 653 2588 653 2997 736 3387 
C 858 3929 1216 4096 1466 4096 
C 1728 4096 2067 3923 2189 3400 
C 2272 3036 2278 2607 2278 2096 
C 2278 1680 2278 1169 2202 792 
C 2067 95 1690 -26 1466 -26 
z
" transform="scale(0.015625)"/>
        <path id="CMMI12-3a" d="M 1178 307 
C 1178 492 1024 619 870 619 
C 685 619 557 466 557 313 
C 557 128 710 0 864 0 
C 1050 0 1178 153 1178 307 
z
" transform="scale(0.015625)"/>
       </defs>
       <use xlink:href="#CMR17-30" transform="scale(0.996264)"/>
       <use xlink:href="#CMMI12-3a" transform="translate(45.690477 0) scale(0.996264)"/>
       <use xlink:href="#CMR17-30" transform="translate(72.787654 0) scale(0.996264)"/>
      </g>
     </g>
    </g>
    <g id="xtick_2">
     <g id="line2d_2">
      <g>
       <use xlink:href="#m3bf5ac7c50" x="305.029371" y="678.237256" style="fill: #262626; stroke: #262626; stroke-width: 0.8"/>
      </g>
     </g>
     <g id="text_2">
      <!-- $\mathdefault{0.2}$ -->
      <g style="fill: #262626" transform="translate(283.703307 710.143856) scale(0.36 -0.36)">
       <defs>
        <path id="CMR17-32" d="M 2669 989 
L 2554 989 
C 2490 536 2438 459 2413 420 
C 2381 369 1920 369 1830 369 
L 602 369 
C 832 619 1280 1072 1824 1597 
C 2214 1967 2669 2402 2669 3035 
C 2669 3790 2067 4224 1395 4224 
C 691 4224 262 3604 262 3030 
C 262 2780 448 2748 525 2748 
C 589 2748 781 2787 781 3010 
C 781 3207 614 3264 525 3264 
C 486 3264 448 3258 422 3245 
C 544 3790 915 4058 1306 4058 
C 1862 4058 2227 3617 2227 3035 
C 2227 2479 1901 2000 1536 1584 
L 262 146 
L 262 0 
L 2515 0 
L 2669 989 
z
" transform="scale(0.015625)"/>
       </defs>
       <use xlink:href="#CMR17-30" transform="scale(0.996264)"/>
       <use xlink:href="#CMMI12-3a" transform="translate(45.690477 0) scale(0.996264)"/>
       <use xlink:href="#CMR17-32" transform="translate(72.787654 0) scale(0.996264)"/>
      </g>
     </g>
    </g>
    <g id="xtick_3">
     <g id="line2d_3">
      <g>
       <use xlink:href="#m3bf5ac7c50" x="478.227166" y="678.237256" style="fill: #262626; stroke: #262626; stroke-width: 0.8"/>
      </g>
     </g>
     <g id="text_3">
      <!-- $\mathdefault{0.4}$ -->
      <g style="fill: #262626" transform="translate(456.901102 710.143856) scale(0.36 -0.36)">
       <defs>
        <path id="CMR17-34" d="M 2150 4122 
C 2150 4256 2144 4256 2029 4256 
L 128 1254 
L 128 1088 
L 1779 1088 
L 1779 457 
C 1779 224 1766 160 1318 160 
L 1197 160 
L 1197 0 
C 1402 0 1747 0 1965 0 
C 2182 0 2528 0 2733 0 
L 2733 160 
L 2611 160 
C 2163 160 2150 224 2150 457 
L 2150 1088 
L 2803 1088 
L 2803 1254 
L 2150 1254 
L 2150 4122 
z
M 1798 3703 
L 1798 1254 
L 256 1254 
L 1798 3703 
z
" transform="scale(0.015625)"/>
       </defs>
       <use xlink:href="#CMR17-30" transform="scale(0.996264)"/>
       <use xlink:href="#CMMI12-3a" transform="translate(45.690477 0) scale(0.996264)"/>
       <use xlink:href="#CMR17-34" transform="translate(72.787654 0) scale(0.996264)"/>
      </g>
     </g>
    </g>
    <g id="xtick_4">
     <g id="line2d_4">
      <g>
       <use xlink:href="#m3bf5ac7c50" x="651.424961" y="678.237256" style="fill: #262626; stroke: #262626; stroke-width: 0.8"/>
      </g>
     </g>
     <g id="text_4">
      <!-- $\mathdefault{0.6}$ -->
      <g style="fill: #262626" transform="translate(630.098898 710.143856) scale(0.36 -0.36)">
       <defs>
        <path id="CMR17-36" d="M 678 2176 
C 678 3690 1395 4032 1811 4032 
C 1946 4032 2272 4009 2400 3776 
C 2298 3776 2106 3776 2106 3553 
C 2106 3381 2246 3323 2336 3323 
C 2394 3323 2566 3348 2566 3560 
C 2566 3954 2246 4179 1805 4179 
C 1043 4179 243 3390 243 1984 
C 243 253 966 -128 1478 -128 
C 2099 -128 2688 427 2688 1283 
C 2688 2081 2170 2662 1517 2662 
C 1126 2662 838 2407 678 1960 
L 678 2176 
z
M 1478 25 
C 691 25 691 1200 691 1436 
C 691 1896 909 2560 1504 2560 
C 1613 2560 1926 2560 2138 2120 
C 2253 1870 2253 1609 2253 1289 
C 2253 944 2253 690 2118 434 
C 1978 171 1773 25 1478 25 
z
" transform="scale(0.015625)"/>
       </defs>
       <use xlink:href="#CMR17-30" transform="scale(0.996264)"/>
       <use xlink:href="#CMMI12-3a" transform="translate(45.690477 0) scale(0.996264)"/>
       <use xlink:href="#CMR17-36" transform="translate(72.787654 0) scale(0.996264)"/>
      </g>
     </g>
    </g>
    <g id="xtick_5">
     <g id="line2d_5">
      <g>
       <use xlink:href="#m3bf5ac7c50" x="824.622756" y="678.237256" style="fill: #262626; stroke: #262626; stroke-width: 0.8"/>
      </g>
     </g>
     <g id="text_5">
      <!-- $\mathdefault{0.8}$ -->
      <g style="fill: #262626" transform="translate(803.296693 710.143856) scale(0.36 -0.36)">
       <defs>
        <path id="CMR17-38" d="M 1741 2264 
C 2144 2467 2554 2773 2554 3263 
C 2554 3841 1990 4179 1472 4179 
C 890 4179 378 3759 378 3180 
C 378 3021 416 2747 666 2505 
C 730 2442 998 2251 1171 2130 
C 883 1983 211 1634 211 934 
C 211 279 838 -128 1459 -128 
C 2144 -128 2720 362 2720 1010 
C 2720 1590 2330 1857 2074 2029 
L 1741 2264 
z
M 902 2822 
C 851 2854 595 3051 595 3351 
C 595 3739 998 4032 1459 4032 
C 1965 4032 2336 3676 2336 3262 
C 2336 2669 1670 2331 1638 2331 
C 1632 2331 1626 2331 1574 2370 
L 902 2822 
z
M 2080 1519 
C 2176 1449 2483 1240 2483 851 
C 2483 381 2010 25 1472 25 
C 890 25 448 438 448 940 
C 448 1443 838 1862 1280 2060 
L 2080 1519 
z
" transform="scale(0.015625)"/>
       </defs>
       <use xlink:href="#CMR17-30" transform="scale(0.996264)"/>
       <use xlink:href="#CMMI12-3a" transform="translate(45.690477 0) scale(0.996264)"/>
       <use xlink:href="#CMR17-38" transform="translate(72.787654 0) scale(0.996264)"/>
      </g>
     </g>
    </g>
    <g id="xtick_6">
     <g id="line2d_6">
      <g>
       <use xlink:href="#m3bf5ac7c50" x="997.820551" y="678.237256" style="fill: #262626; stroke: #262626; stroke-width: 0.8"/>
      </g>
     </g>
     <g id="text_6">
      <!-- $\mathdefault{1.0}$ -->
      <g style="fill: #262626" transform="translate(976.494488 710.143856) scale(0.36 -0.36)">
       <defs>
        <path id="CMR17-31" d="M 1702 4058 
C 1702 4192 1696 4192 1606 4192 
C 1357 3916 979 3827 621 3827 
C 602 3827 570 3827 563 3808 
C 557 3795 557 3782 557 3648 
C 755 3648 1088 3686 1344 3839 
L 1344 461 
C 1344 236 1331 160 781 160 
L 589 160 
L 589 0 
C 896 0 1216 0 1523 0 
C 1830 0 2150 0 2458 0 
L 2458 160 
L 2266 160 
C 1715 160 1702 230 1702 458 
L 1702 4058 
z
" transform="scale(0.015625)"/>
       </defs>
       <use xlink:href="#CMR17-31" transform="scale(0.996264)"/>
       <use xlink:href="#CMMI12-3a" transform="translate(45.690477 0) scale(0.996264)"/>
       <use xlink:href="#CMR17-30" transform="translate(72.787654 0) scale(0.996264)"/>
      </g>
     </g>
    </g>
   </g>
   <g id="matplotlib.axis_2">
    <g id="ytick_1">
     <g id="line2d_7">
      <defs>
       <path id="m3aa8bd9dca" d="M 0 0 
L -3.5 0 
" style="stroke: #262626; stroke-width: 0.8"/>
      </defs>
      <g>
       <use xlink:href="#m3aa8bd9dca" x="88.532127" y="617.414374" style="fill: #262626; stroke: #262626; stroke-width: 0.8"/>
      </g>
     </g>
     <g id="text_7">
      <!-- $\mathdefault{0.0}$ -->
      <g style="fill: #262626" transform="translate(38.88 629.867674) scale(0.36 -0.36)">
       <use xlink:href="#CMR17-30" transform="scale(0.996264)"/>
       <use xlink:href="#CMMI12-3a" transform="translate(45.690477 0) scale(0.996264)"/>
       <use xlink:href="#CMR17-30" transform="translate(72.787654 0) scale(0.996264)"/>
      </g>
     </g>
    </g>
    <g id="ytick_2">
     <g id="line2d_8">
      <g>
       <use xlink:href="#m3aa8bd9dca" x="88.532127" y="507.519838" style="fill: #262626; stroke: #262626; stroke-width: 0.8"/>
      </g>
     </g>
     <g id="text_8">
      <!-- $\mathdefault{0.2}$ -->
      <g style="fill: #262626" transform="translate(38.88 519.973138) scale(0.36 -0.36)">
       <use xlink:href="#CMR17-30" transform="scale(0.996264)"/>
       <use xlink:href="#CMMI12-3a" transform="translate(45.690477 0) scale(0.996264)"/>
       <use xlink:href="#CMR17-32" transform="translate(72.787654 0) scale(0.996264)"/>
      </g>
     </g>
    </g>
    <g id="ytick_3">
     <g id="line2d_9">
      <g>
       <use xlink:href="#m3aa8bd9dca" x="88.532127" y="397.625302" style="fill: #262626; stroke: #262626; stroke-width: 0.8"/>
      </g>
     </g>
     <g id="text_9">
      <!-- $\mathdefault{0.4}$ -->
      <g style="fill: #262626" transform="translate(38.88 410.078602) scale(0.36 -0.36)">
       <use xlink:href="#CMR17-30" transform="scale(0.996264)"/>
       <use xlink:href="#CMMI12-3a" transform="translate(45.690477 0) scale(0.996264)"/>
       <use xlink:href="#CMR17-34" transform="translate(72.787654 0) scale(0.996264)"/>
      </g>
     </g>
    </g>
    <g id="ytick_4">
     <g id="line2d_10">
      <g>
       <use xlink:href="#m3aa8bd9dca" x="88.532127" y="287.730766" style="fill: #262626; stroke: #262626; stroke-width: 0.8"/>
      </g>
     </g>
     <g id="text_10">
      <!-- $\mathdefault{0.6}$ -->
      <g style="fill: #262626" transform="translate(38.88 300.184066) scale(0.36 -0.36)">
       <use xlink:href="#CMR17-30" transform="scale(0.996264)"/>
       <use xlink:href="#CMMI12-3a" transform="translate(45.690477 0) scale(0.996264)"/>
       <use xlink:href="#CMR17-36" transform="translate(72.787654 0) scale(0.996264)"/>
      </g>
     </g>
    </g>
    <g id="ytick_5">
     <g id="line2d_11">
      <g>
       <use xlink:href="#m3aa8bd9dca" x="88.532127" y="177.83623" style="fill: #262626; stroke: #262626; stroke-width: 0.8"/>
      </g>
     </g>
     <g id="text_11">
      <!-- $\mathdefault{0.8}$ -->
      <g style="fill: #262626" transform="translate(38.88 190.28953) scale(0.36 -0.36)">
       <use xlink:href="#CMR17-30" transform="scale(0.996264)"/>
       <use xlink:href="#CMMI12-3a" transform="translate(45.690477 0) scale(0.996264)"/>
       <use xlink:href="#CMR17-38" transform="translate(72.787654 0) scale(0.996264)"/>
      </g>
     </g>
    </g>
    <g id="ytick_6">
     <g id="line2d_12">
      <g>
       <use xlink:href="#m3aa8bd9dca" x="88.532127" y="67.941693" style="fill: #262626; stroke: #262626; stroke-width: 0.8"/>
      </g>
     </g>
     <g id="text_12">
      <!-- $\mathdefault{1.0}$ -->
      <g style="fill: #262626" transform="translate(38.88 80.394994) scale(0.36 -0.36)">
       <use xlink:href="#CMR17-31" transform="scale(0.996264)"/>
       <use xlink:href="#CMMI12-3a" transform="translate(45.690477 0) scale(0.996264)"/>
       <use xlink:href="#CMR17-30" transform="translate(72.787654 0) scale(0.996264)"/>
      </g>
     </g>
    </g>
   </g>
   <g id="line2d_13">
    <path d="M 131.831576 67.941693 
L 997.820551 67.941693 
L 997.820551 67.941693 
" clip-path="url(#p822064b18c)" style="fill: none; stroke: #1f77b4; stroke-width: 5; stroke-linecap: round"/>
   </g>
   <g id="line2d_14">
    <path d="M 131.831576 602.481605 
L 143.378096 599.50962 
L 154.924615 596.340339 
L 166.471135 592.985452 
L 178.017655 589.457986 
L 195.337434 583.866419 
L 212.657214 577.946621 
L 229.976993 571.733338 
L 247.296773 565.259079 
L 264.616552 558.553608 
L 281.936332 551.64539 
L 305.029371 542.164804 
L 328.12241 532.428856 
L 356.98871 519.977926 
L 391.628269 504.74779 
L 443.587607 481.587966 
L 512.866725 450.703257 
L 553.279544 432.934144 
L 587.919103 417.94557 
L 616.785402 405.672239 
L 645.651701 393.616782 
L 674.518 381.799348 
L 703.3843 370.242 
L 732.250599 358.960525 
L 761.116898 347.956999 
L 789.983197 337.247613 
L 813.076237 328.897575 
L 836.169276 320.729859 
L 859.262315 312.760322 
L 882.355355 304.987574 
L 905.448394 297.40991 
L 928.541433 290.014518 
L 957.407732 281.051761 
L 986.274032 272.388062 
L 997.820551 269.012987 
L 997.820551 269.012987 
" clip-path="url(#p822064b18c)" style="fill: none; stroke: #ff7f0e; stroke-width: 5; stroke-linecap: round"/>
   </g>
   <g id="line2d_15">
    <path d="M 131.831576 617.325028 
L 149.151356 616.197991 
L 160.697875 615.10799 
L 172.244395 613.704678 
L 183.790915 612.006678 
L 195.337434 610.031378 
L 206.883954 607.795088 
L 218.430474 605.314012 
L 229.976993 602.602514 
L 241.523513 599.675316 
L 253.070033 596.546036 
L 264.616552 593.227473 
L 276.163072 589.732058 
L 287.709592 586.072129 
L 305.029371 580.297513 
L 322.349151 574.214015 
L 339.66893 567.855516 
L 356.98871 561.253366 
L 374.308489 554.43704 
L 397.401528 545.063468 
L 420.494568 535.417135 
L 449.360867 523.058193 
L 478.227166 510.453076 
L 518.639985 492.550695 
L 634.105182 441.253362 
L 668.744741 426.16386 
L 703.3843 411.328697 
L 732.250599 399.194799 
L 761.116898 387.291552 
L 789.983197 375.637637 
L 818.849496 364.248771 
L 847.715796 353.142935 
L 870.808835 344.453978 
L 899.675134 333.861919 
L 928.541433 323.565754 
L 957.407732 313.579931 
L 980.500772 305.802217 
L 997.820551 300.088482 
L 997.820551 300.088482 
" clip-path="url(#p822064b18c)" style="fill: none; stroke: #2ca02c; stroke-width: 5; stroke-linecap: round"/>
   </g>
   <g id="line2d_16">
    <path d="M 131.831576 620.63116 
L 137.604836 618.623457 
L 143.378096 617.617398 
L 149.151356 617.108224 
L 160.697875 616.421508 
L 172.244395 615.417099 
L 183.790915 614.094923 
L 195.337434 612.473528 
L 206.883954 610.570301 
L 218.430474 608.402329 
L 229.976993 605.984975 
L 241.523513 603.333774 
L 253.070033 600.46314 
L 264.616552 597.386654 
L 276.163072 594.117548 
L 287.709592 590.668707 
L 299.256111 587.051845 
L 316.575891 581.336872 
L 333.89567 575.307211 
L 351.21545 568.996177 
L 368.535229 562.436403 
L 385.855009 555.65812 
L 408.948048 546.32613 
L 432.041087 536.715317 
L 455.134127 526.880221 
L 484.000426 514.344785 
L 518.639985 499.062813 
L 599.465623 463.052356 
L 645.651701 442.629242 
L 686.06452 425.032702 
L 720.704079 410.223511 
L 749.570378 398.113285 
L 778.436678 386.232195 
L 807.302977 374.610434 
L 830.396016 365.498414 
L 859.262315 354.354844 
L 882.355355 345.64831 
L 911.221654 335.026552 
L 940.087953 324.704303 
L 963.180992 316.659174 
L 992.047291 306.874725 
L 997.820551 304.957402 
L 997.820551 304.957402 
" clip-path="url(#p822064b18c)" style="fill: none; stroke: #d62728; stroke-width: 5; stroke-linecap: round"/>
   </g>
   <g id="line2d_17">
    <path d="M 131.831576 624.473257 
L 137.604836 620.542348 
L 143.378096 618.584546 
L 149.151356 617.599665 
L 154.924615 617.099381 
L 166.471135 616.411823 
L 178.017655 615.404418 
L 189.564174 614.079396 
L 201.110694 612.455525 
L 212.657214 610.550143 
L 224.203733 608.379815 
L 235.750253 605.960751 
L 247.296773 603.307745 
L 258.843292 600.435642 
L 270.389812 597.357383 
L 281.936332 594.087101 
L 293.482851 590.636674 
L 305.029371 587.018735 
L 322.349151 581.302316 
L 339.66893 575.271154 
L 356.98871 568.959345 
L 374.308489 562.398813 
L 391.628269 555.619815 
L 414.721308 546.287806 
L 437.814347 536.676734 
L 460.907387 526.841728 
L 489.773686 514.306799 
L 524.413245 499.026017 
L 599.465623 465.588444 
L 645.651701 445.138554 
L 680.29126 429.997342 
L 714.930819 415.099144 
L 743.797119 402.905294 
L 772.663418 390.934432 
L 801.529717 379.203954 
L 830.396016 367.736482 
L 859.262315 356.548544 
L 882.355355 347.791246 
L 905.448394 339.227677 
L 928.541433 330.846053 
L 957.407732 320.645135 
L 980.500772 312.698469 
L 997.820551 306.864542 
L 997.820551 306.864542 
" clip-path="url(#p822064b18c)" style="fill: none; stroke: #9467bd; stroke-width: 5; stroke-linecap: round"/>
   </g>
   <g id="line2d_18">
    <path d="M 131.831576 628.467005 
L 137.604836 622.527517 
L 143.378096 619.580394 
L 149.151356 618.10333 
L 154.924615 617.355739 
L 178.017655 615.739336 
L 189.564174 614.507542 
L 201.110694 612.971527 
L 212.657214 611.148887 
L 224.203733 609.056433 
L 235.750253 606.710577 
L 247.296773 604.126333 
L 258.843292 601.31873 
L 270.389812 598.300948 
L 281.936332 595.087148 
L 293.482851 591.689579 
L 305.029371 588.120974 
L 322.349151 582.472257 
L 339.66893 576.50156 
L 356.98871 570.24374 
L 374.308489 563.730649 
L 391.628269 556.993547 
L 408.948048 550.059116 
L 432.041087 540.554232 
L 455.134127 530.802971 
L 484.000426 518.346532 
L 518.639985 503.125166 
L 576.372583 477.432812 
L 639.878441 449.21509 
L 680.29126 431.511464 
L 714.930819 416.591241 
L 743.797119 404.365599 
L 772.663418 392.366713 
L 801.529717 380.612506 
L 830.396016 369.114534 
L 853.489055 360.11036 
L 876.582095 351.283344 
L 905.448394 340.51471 
L 928.541433 332.108776 
L 951.634473 323.890357 
L 980.500772 313.899361 
L 997.820551 308.036401 
L 997.820551 308.036401 
" clip-path="url(#p822064b18c)" style="fill: none; stroke: #8c564b; stroke-width: 5; stroke-linecap: round"/>
   </g>
   <g id="line2d_19">
    <path d="M 131.831576 632.540353 
L 137.604836 624.545801 
L 143.378096 620.589658 
L 149.151356 618.612184 
L 154.924615 617.613962 
L 160.697875 617.107408 
L 172.244395 616.422184 
L 183.790915 615.419558 
L 195.337434 614.099386 
L 206.883954 612.479953 
L 218.430474 610.579079 
L 229.976993 608.412967 
L 241.523513 605.997801 
L 253.070033 603.348698 
L 264.616552 600.479891 
L 276.163072 597.405233 
L 287.709592 594.138129 
L 299.256111 590.690922 
L 310.802631 587.076183 
L 328.12241 581.363908 
L 345.44219 575.336144 
L 362.761969 569.028167 
L 380.081749 562.470376 
L 397.401528 555.694381 
L 420.494568 546.366287 
L 443.587607 536.757405 
L 466.680646 526.925587 
L 495.546946 514.392881 
L 530.186505 499.116114 
L 674.518 435.115563 
L 709.15756 420.130181 
L 738.023859 407.854031 
L 766.890158 395.790616 
L 795.756457 383.958085 
L 824.622756 372.385842 
L 853.489055 361.078501 
L 882.355355 350.059901 
L 905.448394 341.439047 
L 934.314693 330.935402 
L 963.180992 320.734044 
L 986.274032 312.785801 
L 997.820551 308.885154 
L 997.820551 308.885154 
" clip-path="url(#p822064b18c)" style="fill: none; stroke: #e377c2; stroke-width: 5; stroke-linecap: round"/>
   </g>
   <g id="line2d_20">
    <path d="M 131.831576 636.662269 
L 137.604836 626.583241 
L 143.378096 621.606073 
L 149.151356 619.123434 
L 154.924615 617.8728 
L 160.697875 617.23956 
L 178.017655 616.12404 
L 189.564174 615.013425 
L 201.110694 613.591672 
L 212.657214 611.876705 
L 224.203733 609.885628 
L 235.750253 607.635116 
L 247.296773 605.140456 
L 258.843292 602.416939 
L 270.389812 599.477973 
L 281.936332 596.338006 
L 293.482851 593.009439 
L 305.029371 589.505235 
L 316.575891 585.836974 
L 333.89567 580.052281 
L 351.21545 573.959414 
L 368.535229 567.593257 
L 385.855009 560.985233 
L 403.174788 554.164431 
L 426.267828 544.785541 
L 449.360867 535.136628 
L 478.227166 522.777719 
L 507.093465 510.175695 
L 547.506284 492.279575 
L 651.424961 446.084417 
L 691.83778 428.433436 
L 726.477339 413.56378 
L 755.343638 401.397033 
L 784.209937 389.455501 
L 813.076237 377.764817 
L 841.942536 366.332069 
L 865.035575 357.382663 
L 888.128614 348.613556 
L 916.994914 337.914772 
L 945.861213 327.510877 
L 974.727512 317.413001 
L 997.820551 309.546946 
L 997.820551 309.546946 
" clip-path="url(#p822064b18c)" style="fill: none; stroke: #7f7f7f; stroke-width: 5; stroke-linecap: round"/>
   </g>
   <g id="line2d_21">
    <path d="M 131.831576 640.810848 
L 137.604836 628.629953 
L 143.378096 622.625186 
L 149.151356 619.635082 
L 154.924615 618.131366 
L 160.697875 617.371258 
L 183.790915 615.756638 
L 195.337434 614.53072 
L 206.883954 613.000149 
L 218.430474 611.182968 
L 229.976993 609.09564 
L 241.523513 606.754546 
L 253.070033 604.175015 
L 264.616552 601.371477 
L 276.163072 598.357986 
L 287.709592 595.148164 
L 299.256111 591.754408 
L 310.802631 588.189558 
L 328.12241 582.545695 
L 345.44219 576.579359 
L 362.761969 570.325631 
L 380.081749 563.81647 
L 397.401528 557.082758 
L 414.721308 550.151531 
L 437.814347 540.650303 
L 460.907387 530.901759 
L 489.773686 518.448902 
L 524.413245 503.230609 
L 576.372583 480.116541 
L 645.651701 449.326651 
L 686.06452 431.623232 
L 720.704079 416.702425 
L 749.570378 404.477481 
L 778.436678 392.477238 
L 807.302977 380.721362 
L 836.169276 369.221803 
L 859.262315 360.217283 
L 882.355355 351.389359 
L 911.221654 340.618887 
L 934.314693 332.212815 
L 957.407732 323.992728 
L 986.274032 313.998683 
L 997.820551 310.081873 
L 997.820551 310.081873 
" clip-path="url(#p822064b18c)" style="fill: none; stroke: #bcbd22; stroke-width: 5; stroke-linecap: round"/>
   </g>
   <g id="line2d_22">
    <path d="M 131.831576 644.979907 
L 137.604836 630.683501 
L 143.378096 623.646095 
L 149.151356 620.146831 
L 154.924615 618.389583 
L 160.697875 617.502572 
L 166.471135 617.050636 
L 178.017655 616.35076 
L 189.564174 615.321192 
L 201.110694 613.975866 
L 212.657214 612.332932 
L 224.203733 610.409689 
L 235.750253 608.222997 
L 247.296773 605.788324 
L 258.843292 603.121115 
L 270.389812 600.234976 
L 281.936332 597.144476 
L 293.482851 593.862189 
L 305.029371 590.401241 
L 316.575891 586.773208 
L 333.89567 581.043714 
L 351.21545 575.000296 
L 368.535229 568.678022 
L 385.855009 562.108856 
L 403.174788 555.322026 
L 426.267828 545.981939 
L 449.360867 536.364448 
L 472.453906 526.524197 
L 501.320205 513.987243 
L 541.733024 496.141852 
L 668.744741 439.762673 
L 703.3843 424.706761 
L 732.250599 412.356181 
L 761.116898 400.2087 
L 789.983197 388.295509 
L 818.849496 376.624227 
L 847.715796 365.220797 
L 876.582095 354.090669 
L 899.675134 345.390397 
L 928.541433 334.77916 
L 957.407732 324.467313 
L 980.500772 316.430297 
L 997.820551 310.53218 
L 997.820551 310.53218 
" clip-path="url(#p822064b18c)" style="fill: none; stroke: #17becf; stroke-width: 5; stroke-linecap: round"/>
   </g>
   <g id="line2d_23">
    <path d="M 131.831576 649.175563 
L 137.604836 632.747302 
L 143.378096 624.670698 
L 149.151356 620.659738 
L 154.924615 618.648036 
L 160.697875 617.633834 
L 166.471135 617.117719 
L 178.017655 616.434774 
L 189.564174 615.4376 
L 201.110694 614.122824 
L 212.657214 612.508686 
L 224.203733 610.612566 
L 235.750253 608.451392 
L 247.296773 606.04072 
L 258.843292 603.396033 
L 270.389812 600.531052 
L 281.936332 597.460353 
L 293.482851 594.19657 
L 305.029371 590.752892 
L 316.575891 587.141028 
L 333.89567 581.433609 
L 351.21545 575.410041 
L 368.535229 569.105391 
L 385.855009 562.551715 
L 403.174788 555.778365 
L 426.267828 546.453988 
L 449.360867 536.849047 
L 472.453906 527.019465 
L 501.320205 514.490772 
L 535.959764 499.217191 
L 680.29126 435.220879 
L 720.704079 417.764255 
L 749.570378 405.529209 
L 778.436678 393.50895 
L 807.302977 381.726791 
L 836.169276 370.203771 
L 865.035575 358.955161 
L 893.901874 347.982539 
L 922.768173 337.303075 
L 945.861213 328.976622 
L 968.954252 320.83118 
L 992.047291 312.881716 
L 997.820551 310.922844 
L 997.820551 310.922844 
" clip-path="url(#p822064b18c)" style="fill: none; stroke: #17becf; stroke-width: 5; stroke-linecap: round"/>
   </g>
   <g id="patch_3">
    <path d="M 88.532127 678.237256 
L 88.532127 38.88 
" style="fill: none; stroke: #262626; stroke-width: 0.8; stroke-linejoin: miter; stroke-linecap: square"/>
   </g>
   <g id="patch_4">
    <path d="M 88.532127 678.237256 
L 1041.12 678.237256 
" style="fill: none; stroke: #262626; stroke-width: 0.8; stroke-linejoin: miter; stroke-linecap: square"/>
   </g>
  </g>
 </g>
 <defs>
  <clipPath id="p822064b18c">
   <rect x="88.532127" y="38.88" width="952.587873" height="639.357256"/>
  </clipPath>
 </defs>
</svg>
