<?xml version="1.0" encoding="utf-8" standalone="no"?>
<!DOCTYPE svg PUBLIC "-//W3C//DTD SVG 1.1//EN"
  "http://www.w3.org/Graphics/SVG/1.1/DTD/svg11.dtd">
<svg xmlns:xlink="http://www.w3.org/1999/xlink" width="1080pt" height="756pt" viewBox="0 0 1080 756" xmlns="http://www.w3.org/2000/svg" version="1.1">
 <metadata>
  <rdf:RDF xmlns:dc="http://purl.org/dc/elements/1.1/" xmlns:cc="http://creativecommons.org/ns#" xmlns:rdf="http://www.w3.org/1999/02/22-rdf-syntax-ns#">
   <cc:Work>
    <dc:type rdf:resource="http://purl.org/dc/dcmitype/StillImage"/>
    <dc:date>2024-07-30T20:14:54.362133</dc:date>
    <dc:format>image/svg+xml</dc:format>
    <dc:creator>
     <cc:Agent>
      <dc:title>Matplotlib v3.9.0, https://matplotlib.org/</dc:title>
     </cc:Agent>
    </dc:creator>
   </cc:Work>
  </rdf:RDF>
 </metadata>
 <defs>
  <style type="text/css">*{stroke-linejoin: round; stroke-linecap: butt}</style>
 </defs>
 <g id="figure_1">
  <g id="patch_1">
   <path d="M 0 756 
L 1080 756 
L 1080 0 
L 0 0 
z
" style="fill: #ffffff"/>
  </g>
  <g id="axes_1">
   <g id="patch_2">
    <path d="M 88.532127 678.237256 
L 1041.12 678.237256 
L 1041.12 38.88 
L 88.532127 38.88 
z
" style="fill: #ffffff"/>
   </g>
   <g id="matplotlib.axis_1">
    <g id="xtick_1">
     <g id="line2d_1">
      <defs>
       <path id="m0f0de344bd" d="M 0 0 
L 0 3.5 
" style="stroke: #262626; stroke-width: 0.8"/>
      </defs>
      <g>
       <use xlink:href="#m0f0de344bd" x="131.831576" y="678.237256" style="fill: #262626; stroke: #262626; stroke-width: 0.8"/>
      </g>
     </g>
     <g id="text_1">
      <!-- $\mathdefault{0.0}$ -->
      <g style="fill: #262626" transform="translate(110.505512 710.143856) scale(0.36 -0.36)">
       <defs>
        <path id="CMR17-30" d="M 2688 2025 
C 2688 2416 2682 3080 2413 3591 
C 2176 4039 1798 4198 1466 4198 
C 1158 4198 768 4058 525 3597 
C 269 3118 243 2524 243 2025 
C 243 1661 250 1106 448 619 
C 723 -39 1216 -128 1466 -128 
C 1760 -128 2208 -7 2470 600 
C 2662 1042 2688 1559 2688 2025 
z
M 1466 -26 
C 1056 -26 813 325 723 812 
C 653 1188 653 1738 653 2096 
C 653 2588 653 2997 736 3387 
C 858 3929 1216 4096 1466 4096 
C 1728 4096 2067 3923 2189 3400 
C 2272 3036 2278 2607 2278 2096 
C 2278 1680 2278 1169 2202 792 
C 2067 95 1690 -26 1466 -26 
z
" transform="scale(0.015625)"/>
        <path id="CMMI12-3a" d="M 1178 307 
C 1178 492 1024 619 870 619 
C 685 619 557 466 557 313 
C 557 128 710 0 864 0 
C 1050 0 1178 153 1178 307 
z
" transform="scale(0.015625)"/>
       </defs>
       <use xlink:href="#CMR17-30" transform="scale(0.996264)"/>
       <use xlink:href="#CMMI12-3a" transform="translate(45.690477 0) scale(0.996264)"/>
       <use xlink:href="#CMR17-30" transform="translate(72.787654 0) scale(0.996264)"/>
      </g>
     </g>
    </g>
    <g id="xtick_2">
     <g id="line2d_2">
      <g>
       <use xlink:href="#m0f0de344bd" x="305.029371" y="678.237256" style="fill: #262626; stroke: #262626; stroke-width: 0.8"/>
      </g>
     </g>
     <g id="text_2">
      <!-- $\mathdefault{0.2}$ -->
      <g style="fill: #262626" transform="translate(283.703307 710.143856) scale(0.36 -0.36)">
       <defs>
        <path id="CMR17-32" d="M 2669 989 
L 2554 989 
C 2490 536 2438 459 2413 420 
C 2381 369 1920 369 1830 369 
L 602 369 
C 832 619 1280 1072 1824 1597 
C 2214 1967 2669 2402 2669 3035 
C 2669 3790 2067 4224 1395 4224 
C 691 4224 262 3604 262 3030 
C 262 2780 448 2748 525 2748 
C 589 2748 781 2787 781 3010 
C 781 3207 614 3264 525 3264 
C 486 3264 448 3258 422 3245 
C 544 3790 915 4058 1306 4058 
C 1862 4058 2227 3617 2227 3035 
C 2227 2479 1901 2000 1536 1584 
L 262 146 
L 262 0 
L 2515 0 
L 2669 989 
z
" transform="scale(0.015625)"/>
       </defs>
       <use xlink:href="#CMR17-30" transform="scale(0.996264)"/>
       <use xlink:href="#CMMI12-3a" transform="translate(45.690477 0) scale(0.996264)"/>
       <use xlink:href="#CMR17-32" transform="translate(72.787654 0) scale(0.996264)"/>
      </g>
     </g>
    </g>
    <g id="xtick_3">
     <g id="line2d_3">
      <g>
       <use xlink:href="#m0f0de344bd" x="478.227166" y="678.237256" style="fill: #262626; stroke: #262626; stroke-width: 0.8"/>
      </g>
     </g>
     <g id="text_3">
      <!-- $\mathdefault{0.4}$ -->
      <g style="fill: #262626" transform="translate(456.901102 710.143856) scale(0.36 -0.36)">
       <defs>
        <path id="CMR17-34" d="M 2150 4122 
C 2150 4256 2144 4256 2029 4256 
L 128 1254 
L 128 1088 
L 1779 1088 
L 1779 457 
C 1779 224 1766 160 1318 160 
L 1197 160 
L 1197 0 
C 1402 0 1747 0 1965 0 
C 2182 0 2528 0 2733 0 
L 2733 160 
L 2611 160 
C 2163 160 2150 224 2150 457 
L 2150 1088 
L 2803 1088 
L 2803 1254 
L 2150 1254 
L 2150 4122 
z
M 1798 3703 
L 1798 1254 
L 256 1254 
L 1798 3703 
z
" transform="scale(0.015625)"/>
       </defs>
       <use xlink:href="#CMR17-30" transform="scale(0.996264)"/>
       <use xlink:href="#CMMI12-3a" transform="translate(45.690477 0) scale(0.996264)"/>
       <use xlink:href="#CMR17-34" transform="translate(72.787654 0) scale(0.996264)"/>
      </g>
     </g>
    </g>
    <g id="xtick_4">
     <g id="line2d_4">
      <g>
       <use xlink:href="#m0f0de344bd" x="651.424961" y="678.237256" style="fill: #262626; stroke: #262626; stroke-width: 0.8"/>
      </g>
     </g>
     <g id="text_4">
      <!-- $\mathdefault{0.6}$ -->
      <g style="fill: #262626" transform="translate(630.098898 710.143856) scale(0.36 -0.36)">
       <defs>
        <path id="CMR17-36" d="M 678 2176 
C 678 3690 1395 4032 1811 4032 
C 1946 4032 2272 4009 2400 3776 
C 2298 3776 2106 3776 2106 3553 
C 2106 3381 2246 3323 2336 3323 
C 2394 3323 2566 3348 2566 3560 
C 2566 3954 2246 4179 1805 4179 
C 1043 4179 243 3390 243 1984 
C 243 253 966 -128 1478 -128 
C 2099 -128 2688 427 2688 1283 
C 2688 2081 2170 2662 1517 2662 
C 1126 2662 838 2407 678 1960 
L 678 2176 
z
M 1478 25 
C 691 25 691 1200 691 1436 
C 691 1896 909 2560 1504 2560 
C 1613 2560 1926 2560 2138 2120 
C 2253 1870 2253 1609 2253 1289 
C 2253 944 2253 690 2118 434 
C 1978 171 1773 25 1478 25 
z
" transform="scale(0.015625)"/>
       </defs>
       <use xlink:href="#CMR17-30" transform="scale(0.996264)"/>
       <use xlink:href="#CMMI12-3a" transform="translate(45.690477 0) scale(0.996264)"/>
       <use xlink:href="#CMR17-36" transform="translate(72.787654 0) scale(0.996264)"/>
      </g>
     </g>
    </g>
    <g id="xtick_5">
     <g id="line2d_5">
      <g>
       <use xlink:href="#m0f0de344bd" x="824.622756" y="678.237256" style="fill: #262626; stroke: #262626; stroke-width: 0.8"/>
      </g>
     </g>
     <g id="text_5">
      <!-- $\mathdefault{0.8}$ -->
      <g style="fill: #262626" transform="translate(803.296693 710.143856) scale(0.36 -0.36)">
       <defs>
        <path id="CMR17-38" d="M 1741 2264 
C 2144 2467 2554 2773 2554 3263 
C 2554 3841 1990 4179 1472 4179 
C 890 4179 378 3759 378 3180 
C 378 3021 416 2747 666 2505 
C 730 2442 998 2251 1171 2130 
C 883 1983 211 1634 211 934 
C 211 279 838 -128 1459 -128 
C 2144 -128 2720 362 2720 1010 
C 2720 1590 2330 1857 2074 2029 
L 1741 2264 
z
M 902 2822 
C 851 2854 595 3051 595 3351 
C 595 3739 998 4032 1459 4032 
C 1965 4032 2336 3676 2336 3262 
C 2336 2669 1670 2331 1638 2331 
C 1632 2331 1626 2331 1574 2370 
L 902 2822 
z
M 2080 1519 
C 2176 1449 2483 1240 2483 851 
C 2483 381 2010 25 1472 25 
C 890 25 448 438 448 940 
C 448 1443 838 1862 1280 2060 
L 2080 1519 
z
" transform="scale(0.015625)"/>
       </defs>
       <use xlink:href="#CMR17-30" transform="scale(0.996264)"/>
       <use xlink:href="#CMMI12-3a" transform="translate(45.690477 0) scale(0.996264)"/>
       <use xlink:href="#CMR17-38" transform="translate(72.787654 0) scale(0.996264)"/>
      </g>
     </g>
    </g>
    <g id="xtick_6">
     <g id="line2d_6">
      <g>
       <use xlink:href="#m0f0de344bd" x="997.820551" y="678.237256" style="fill: #262626; stroke: #262626; stroke-width: 0.8"/>
      </g>
     </g>
     <g id="text_6">
      <!-- $\mathdefault{1.0}$ -->
      <g style="fill: #262626" transform="translate(976.494488 710.143856) scale(0.36 -0.36)">
       <defs>
        <path id="CMR17-31" d="M 1702 4058 
C 1702 4192 1696 4192 1606 4192 
C 1357 3916 979 3827 621 3827 
C 602 3827 570 3827 563 3808 
C 557 3795 557 3782 557 3648 
C 755 3648 1088 3686 1344 3839 
L 1344 461 
C 1344 236 1331 160 781 160 
L 589 160 
L 589 0 
C 896 0 1216 0 1523 0 
C 1830 0 2150 0 2458 0 
L 2458 160 
L 2266 160 
C 1715 160 1702 230 1702 458 
L 1702 4058 
z
" transform="scale(0.015625)"/>
       </defs>
       <use xlink:href="#CMR17-31" transform="scale(0.996264)"/>
       <use xlink:href="#CMMI12-3a" transform="translate(45.690477 0) scale(0.996264)"/>
       <use xlink:href="#CMR17-30" transform="translate(72.787654 0) scale(0.996264)"/>
      </g>
     </g>
    </g>
   </g>
   <g id="matplotlib.axis_2">
    <g id="ytick_1">
     <g id="line2d_7">
      <defs>
       <path id="m3847074541" d="M 0 0 
L -3.5 0 
" style="stroke: #262626; stroke-width: 0.8"/>
      </defs>
      <g>
       <use xlink:href="#m3847074541" x="88.532127" y="613.064943" style="fill: #262626; stroke: #262626; stroke-width: 0.8"/>
      </g>
     </g>
     <g id="text_7">
      <!-- $\mathdefault{0.0}$ -->
      <g style="fill: #262626" transform="translate(38.88 625.518243) scale(0.36 -0.36)">
       <use xlink:href="#CMR17-30" transform="scale(0.996264)"/>
       <use xlink:href="#CMMI12-3a" transform="translate(45.690477 0) scale(0.996264)"/>
       <use xlink:href="#CMR17-30" transform="translate(72.787654 0) scale(0.996264)"/>
      </g>
     </g>
    </g>
    <g id="ytick_2">
     <g id="line2d_8">
      <g>
       <use xlink:href="#m3847074541" x="88.532127" y="504.040293" style="fill: #262626; stroke: #262626; stroke-width: 0.8"/>
      </g>
     </g>
     <g id="text_8">
      <!-- $\mathdefault{0.2}$ -->
      <g style="fill: #262626" transform="translate(38.88 516.493593) scale(0.36 -0.36)">
       <use xlink:href="#CMR17-30" transform="scale(0.996264)"/>
       <use xlink:href="#CMMI12-3a" transform="translate(45.690477 0) scale(0.996264)"/>
       <use xlink:href="#CMR17-32" transform="translate(72.787654 0) scale(0.996264)"/>
      </g>
     </g>
    </g>
    <g id="ytick_3">
     <g id="line2d_9">
      <g>
       <use xlink:href="#m3847074541" x="88.532127" y="395.015643" style="fill: #262626; stroke: #262626; stroke-width: 0.8"/>
      </g>
     </g>
     <g id="text_9">
      <!-- $\mathdefault{0.4}$ -->
      <g style="fill: #262626" transform="translate(38.88 407.468944) scale(0.36 -0.36)">
       <use xlink:href="#CMR17-30" transform="scale(0.996264)"/>
       <use xlink:href="#CMMI12-3a" transform="translate(45.690477 0) scale(0.996264)"/>
       <use xlink:href="#CMR17-34" transform="translate(72.787654 0) scale(0.996264)"/>
      </g>
     </g>
    </g>
    <g id="ytick_4">
     <g id="line2d_10">
      <g>
       <use xlink:href="#m3847074541" x="88.532127" y="285.990993" style="fill: #262626; stroke: #262626; stroke-width: 0.8"/>
      </g>
     </g>
     <g id="text_10">
      <!-- $\mathdefault{0.6}$ -->
      <g style="fill: #262626" transform="translate(38.88 298.444294) scale(0.36 -0.36)">
       <use xlink:href="#CMR17-30" transform="scale(0.996264)"/>
       <use xlink:href="#CMMI12-3a" transform="translate(45.690477 0) scale(0.996264)"/>
       <use xlink:href="#CMR17-36" transform="translate(72.787654 0) scale(0.996264)"/>
      </g>
     </g>
    </g>
    <g id="ytick_5">
     <g id="line2d_11">
      <g>
       <use xlink:href="#m3847074541" x="88.532127" y="176.966343" style="fill: #262626; stroke: #262626; stroke-width: 0.8"/>
      </g>
     </g>
     <g id="text_11">
      <!-- $\mathdefault{0.8}$ -->
      <g style="fill: #262626" transform="translate(38.88 189.419644) scale(0.36 -0.36)">
       <use xlink:href="#CMR17-30" transform="scale(0.996264)"/>
       <use xlink:href="#CMMI12-3a" transform="translate(45.690477 0) scale(0.996264)"/>
       <use xlink:href="#CMR17-38" transform="translate(72.787654 0) scale(0.996264)"/>
      </g>
     </g>
    </g>
    <g id="ytick_6">
     <g id="line2d_12">
      <g>
       <use xlink:href="#m3847074541" x="88.532127" y="67.941693" style="fill: #262626; stroke: #262626; stroke-width: 0.8"/>
      </g>
     </g>
     <g id="text_12">
      <!-- $\mathdefault{1.0}$ -->
      <g style="fill: #262626" transform="translate(38.88 80.394994) scale(0.36 -0.36)">
       <use xlink:href="#CMR17-31" transform="scale(0.996264)"/>
       <use xlink:href="#CMMI12-3a" transform="translate(45.690477 0) scale(0.996264)"/>
       <use xlink:href="#CMR17-30" transform="translate(72.787654 0) scale(0.996264)"/>
      </g>
     </g>
    </g>
   </g>
   <g id="line2d_13">
    <path d="M 131.831576 67.941693 
L 997.820551 67.941693 
L 997.820551 67.941693 
" clip-path="url(#p2d1cd0e5c0)" style="fill: none; stroke: #1f77b4; stroke-width: 5; stroke-linecap: round"/>
   </g>
   <g id="line2d_14">
    <path d="M 131.831576 581.220853 
L 149.151356 575.408731 
L 166.471135 569.301735 
L 183.790915 562.93224 
L 201.110694 556.329569 
L 218.430474 549.521299 
L 241.523513 540.169567 
L 264.616552 530.557263 
L 293.482851 518.253578 
L 322.349151 505.71689 
L 368.535229 485.370001 
L 460.907387 444.570996 
L 495.546946 429.500953 
L 530.186505 414.66269 
L 559.052804 402.508645 
L 587.919103 390.576421 
L 616.785402 378.878922 
L 645.651701 367.440538 
L 674.518 356.273127 
L 703.3843 345.383154 
L 732.250599 334.782887 
L 761.116898 324.481108 
L 784.209937 316.445567 
L 807.302977 308.608989 
L 830.396016 300.958054 
L 859.262315 291.672493 
L 882.355355 284.456039 
L 905.448394 277.432375 
L 928.541433 270.599328 
L 951.634473 263.944089 
L 980.500772 255.891616 
L 997.820551 251.199291 
L 997.820551 251.199291 
" clip-path="url(#p2d1cd0e5c0)" style="fill: none; stroke: #ff7f0e; stroke-width: 5; stroke-linecap: round"/>
   </g>
   <g id="line2d_15">
    <path d="M 131.831576 611.773781 
L 143.378096 610.65807 
L 154.924615 609.236329 
L 166.471135 607.525718 
L 178.017655 605.54284 
L 189.564174 603.303173 
L 201.110694 600.822357 
L 212.657214 598.114585 
L 224.203733 595.194354 
L 235.750253 592.074653 
L 247.296773 588.768847 
L 258.843292 585.288868 
L 270.389812 581.64708 
L 287.709592 575.903961 
L 305.029371 569.857205 
L 322.349151 563.540373 
L 339.66893 556.984241 
L 356.98871 550.218169 
L 380.081749 540.91615 
L 403.174788 531.34794 
L 432.041087 519.094444 
L 466.680646 504.080352 
L 512.866725 483.764423 
L 599.465623 445.604659 
L 639.878441 428.070559 
L 674.518 413.293644 
L 709.15756 398.80018 
L 738.023859 386.968974 
L 766.890158 375.382269 
L 795.756457 364.055303 
L 824.622756 352.995716 
L 853.489055 342.221643 
L 876.582095 333.809315 
L 899.675134 325.583706 
L 922.768173 317.548632 
L 951.634473 307.77196 
L 980.500772 298.295569 
L 997.820551 292.75523 
L 997.820551 292.75523 
" clip-path="url(#p2d1cd0e5c0)" style="fill: none; stroke: #2ca02c; stroke-width: 5; stroke-linecap: round"/>
   </g>
   <g id="line2d_16">
    <path d="M 131.831576 615.161251 
L 137.604836 613.74668 
L 143.378096 612.929423 
L 154.924615 612.078935 
L 166.471135 611.084996 
L 178.017655 609.777394 
L 189.564174 608.173647 
L 201.110694 606.291036 
L 212.657214 604.145543 
L 224.203733 601.753166 
L 235.750253 599.128473 
L 247.296773 596.286213 
L 258.843292 593.239752 
L 270.389812 590.002695 
L 281.936332 586.586767 
L 293.482851 583.004743 
L 310.802631 577.34446 
L 328.12241 571.372025 
L 345.44219 565.121662 
L 362.761969 558.624285 
L 380.081749 551.910783 
L 403.174788 542.668919 
L 426.267828 533.150425 
L 449.360867 523.410191 
L 478.227166 510.996522 
L 518.639985 493.322971 
L 651.424961 434.959417 
L 686.06452 420.073566 
L 720.704079 405.4522 
L 749.570378 393.496981 
L 778.436678 381.778587 
L 807.302977 370.308819 
L 836.169276 359.107229 
L 865.035575 348.177481 
L 893.901874 337.534965 
L 922.768173 327.186586 
L 945.861213 319.115648 
L 968.954252 311.235632 
L 997.820551 301.656021 
L 997.820551 301.656021 
" clip-path="url(#p2d1cd0e5c0)" style="fill: none; stroke: #d62728; stroke-width: 5; stroke-linecap: round"/>
   </g>
   <g id="line2d_17">
    <path d="M 131.831576 619.56493 
L 137.604836 616.277869 
L 143.378096 614.393255 
L 149.151356 613.30473 
L 154.924615 612.673319 
L 166.471135 611.875653 
L 178.017655 610.807717 
L 189.564174 609.429939 
L 201.110694 607.760215 
L 212.657214 605.815154 
L 224.203733 603.611271 
L 235.750253 601.163693 
L 247.296773 598.487634 
L 258.843292 595.596938 
L 270.389812 592.505676 
L 281.936332 589.226028 
L 293.482851 585.77117 
L 305.029371 582.152552 
L 322.349151 576.44265 
L 339.66893 570.425951 
L 356.98871 564.136227 
L 374.308489 557.604709 
L 391.628269 550.860975 
L 414.721308 541.58574 
L 437.814347 532.040164 
L 460.907387 522.278636 
L 489.773686 509.84598 
L 530.186505 492.158487 
L 657.198221 436.32276 
L 691.83778 421.418376 
L 726.477339 406.771031 
L 755.343638 394.795817 
L 784.209937 383.050275 
L 813.076237 371.556525 
L 841.942536 360.323261 
L 870.808835 349.370976 
L 893.901874 340.806622 
L 922.768173 330.368541 
L 945.861213 322.223996 
L 968.954252 314.271264 
L 997.820551 304.599586 
L 997.820551 304.599586 
" clip-path="url(#p2d1cd0e5c0)" style="fill: none; stroke: #9467bd; stroke-width: 5; stroke-linecap: round"/>
   </g>
   <g id="line2d_18">
    <path d="M 131.831576 624.281776 
L 137.604836 618.973755 
L 143.378096 615.943608 
L 149.151356 614.20097 
L 154.924615 613.194438 
L 160.697875 612.609883 
L 172.244395 611.813035 
L 183.790915 610.723865 
L 195.337434 609.326311 
L 206.883954 607.637771 
L 218.430474 605.675133 
L 229.976993 603.454681 
L 241.523513 600.991794 
L 253.070033 598.301221 
L 264.616552 595.397112 
L 276.163072 592.292879 
L 287.709592 589.001713 
L 299.256111 585.536056 
L 316.575891 580.035465 
L 333.89567 574.205751 
L 351.21545 568.082909 
L 368.535229 561.698913 
L 385.855009 555.084614 
L 403.174788 548.268497 
L 426.267828 538.911953 
L 449.360867 529.301083 
L 478.227166 517.00914 
L 512.866725 501.968723 
L 559.052804 481.645246 
L 639.878441 446.05321 
L 680.29126 428.526565 
L 714.930819 413.750108 
L 743.797119 401.65236 
L 772.663418 389.771707 
L 801.529717 378.134408 
L 830.396016 366.751154 
L 859.262315 355.633447 
L 888.128614 344.79827 
L 911.221654 336.33704 
L 934.314693 328.059322 
L 957.407732 319.970297 
L 986.274032 310.128781 
L 997.820551 306.277981 
L 997.820551 306.277981 
" clip-path="url(#p2d1cd0e5c0)" style="fill: none; stroke: #8c564b; stroke-width: 5; stroke-linecap: round"/>
   </g>
   <g id="line2d_19">
    <path d="M 131.831576 629.14386 
L 137.604836 621.742625 
L 143.378096 617.530242 
L 149.151356 615.114933 
L 154.924615 613.723992 
L 160.697875 612.91855 
L 189.564174 610.46579 
L 201.110694 609.008324 
L 212.657214 607.263308 
L 224.203733 605.247734 
L 235.750253 602.977259 
L 247.296773 600.467552 
L 258.843292 597.73295 
L 270.389812 594.787924 
L 281.936332 591.645114 
L 293.482851 588.318142 
L 305.029371 584.81876 
L 322.349151 579.272538 
L 339.66893 573.402134 
L 356.98871 567.242841 
L 374.308489 560.826616 
L 391.628269 554.184236 
L 408.948048 547.343632 
L 432.041087 537.958982 
L 455.134127 528.326777 
L 484.000426 516.013721 
L 518.639985 500.958403 
L 570.599323 478.07595 
L 639.878441 447.57004 
L 680.29126 430.021589 
L 714.930819 415.220085 
L 749.570378 400.698048 
L 778.436678 388.838534 
L 807.302977 377.219032 
L 836.169276 365.856457 
L 865.035575 354.765939 
L 888.128614 346.091169 
L 916.994914 335.508369 
L 945.861213 325.215579 
L 968.954252 317.19331 
L 997.820551 307.434519 
L 997.820551 307.434519 
" clip-path="url(#p2d1cd0e5c0)" style="fill: none; stroke: #e377c2; stroke-width: 5; stroke-linecap: round"/>
   </g>
   <g id="line2d_20">
    <path d="M 131.831576 634.076945 
L 137.604836 624.544516 
L 143.378096 619.131597 
L 149.151356 616.034985 
L 154.924615 614.255704 
L 160.697875 613.227682 
L 166.471135 612.629833 
L 178.017655 611.834224 
L 189.564174 610.752705 
L 201.110694 609.362399 
L 212.657214 607.680682 
L 224.203733 605.724703 
L 235.750253 603.510299 
L 247.296773 601.053268 
L 258.843292 598.368128 
L 270.389812 595.469465 
L 281.936332 592.370089 
L 293.482851 589.083706 
L 305.029371 585.622197 
L 316.575891 581.997864 
L 333.89567 576.279602 
L 351.21545 570.256266 
L 368.535229 563.960415 
L 385.855009 557.424022 
L 403.174788 550.676004 
L 426.267828 541.396238 
L 449.360867 531.848111 
L 478.227166 519.61586 
L 512.866725 504.623437 
L 559.052804 484.329062 
L 645.651701 446.18958 
L 686.06452 428.663568 
L 720.704079 413.885951 
L 749.570378 401.787439 
L 778.436678 389.905678 
L 807.302977 378.265262 
L 836.169276 366.880092 
L 865.035575 355.76055 
L 893.901874 344.92312 
L 916.994914 336.459353 
L 940.087953 328.180105 
L 963.180992 320.089675 
L 992.047291 310.245215 
L 997.820551 308.313275 
L 997.820551 308.313275 
" clip-path="url(#p2d1cd0e5c0)" style="fill: none; stroke: #7f7f7f; stroke-width: 5; stroke-linecap: round"/>
   </g>
   <g id="line2d_21">
    <path d="M 131.831576 639.064625 
L 137.604836 627.371554 
L 143.378096 620.744013 
L 149.151356 616.95951 
L 154.924615 614.788927 
L 160.697875 613.537076 
L 166.471135 612.810389 
L 183.790915 611.524121 
L 195.337434 610.342366 
L 206.883954 608.857337 
L 218.430474 607.08644 
L 229.976993 605.046452 
L 241.523513 602.753254 
L 253.070033 600.222064 
L 264.616552 597.467456 
L 276.163072 594.503309 
L 287.709592 591.343179 
L 299.256111 587.999978 
L 310.802631 584.485231 
L 328.12241 578.918048 
L 345.44219 573.029257 
L 362.761969 566.853259 
L 380.081749 560.42281 
L 397.401528 553.767634 
L 414.721308 546.91632 
L 437.814347 537.520071 
L 460.907387 527.877951 
L 489.773686 515.556383 
L 524.413245 500.493847 
L 576.372583 477.60905 
L 651.424961 444.58967 
L 691.83778 427.088403 
L 726.477339 412.339584 
L 755.343638 400.267765 
L 784.209937 388.418041 
L 813.076237 376.805161 
L 841.942536 365.453136 
L 870.808835 354.374986 
L 899.675134 343.570763 
L 928.541433 333.058868 
L 951.634473 324.856375 
L 974.727512 316.841104 
L 997.820551 309.025676 
L 997.820551 309.025676 
" clip-path="url(#p2d1cd0e5c0)" style="fill: none; stroke: #bcbd22; stroke-width: 5; stroke-linecap: round"/>
   </g>
   <g id="line2d_22">
    <path d="M 131.831576 644.106551 
L 137.604836 630.224436 
L 143.378096 622.368403 
L 149.151356 617.889332 
L 154.924615 615.324309 
L 160.697875 613.847208 
L 166.471135 612.991048 
L 172.244395 612.491621 
L 183.790915 611.675846 
L 195.337434 610.541706 
L 206.883954 609.101598 
L 218.430474 607.373043 
L 229.976993 605.372923 
L 241.523513 603.11723 
L 253.070033 600.621281 
L 264.616552 597.899755 
L 276.163072 594.966616 
L 287.709592 591.835523 
L 299.256111 588.519457 
L 310.802631 585.030044 
L 328.12241 579.497613 
L 345.44219 573.639976 
L 362.761969 567.49164 
L 380.081749 561.085934 
L 397.401528 554.452461 
L 414.721308 547.620045 
L 437.814347 538.245026 
L 460.907387 528.61977 
L 489.773686 516.315073 
L 524.413245 501.264742 
L 576.372583 478.387352 
L 651.424961 445.359968 
L 691.83778 427.845369 
L 726.477339 413.084723 
L 761.116898 398.608046 
L 789.983197 386.790273 
L 818.849496 375.215936 
L 847.715796 363.902066 
L 876.582095 352.856362 
L 905.448394 342.095399 
L 928.541433 333.693284 
L 951.634473 325.476737 
L 974.727512 317.450354 
L 997.820551 309.616356 
L 997.820551 309.616356 
" clip-path="url(#p2d1cd0e5c0)" style="fill: none; stroke: #17becf; stroke-width: 5; stroke-linecap: round"/>
   </g>
   <g id="line2d_23">
    <path d="M 131.831576 649.175563 
L 137.604836 633.088533 
L 143.378096 623.996864 
L 149.151356 618.820174 
L 154.924615 615.859531 
L 160.697875 614.156821 
L 166.471135 613.171162 
L 172.244395 612.59692 
L 183.790915 611.800048 
L 195.337434 610.70715 
L 206.883954 609.305967 
L 218.430474 607.614113 
L 229.976993 605.648561 
L 241.523513 603.42539 
L 253.070033 600.960015 
L 264.616552 598.267171 
L 276.163072 595.360957 
L 287.709592 592.255069 
L 299.256111 588.962527 
L 310.802631 585.495129 
L 322.349151 581.865456 
L 339.66893 576.14026 
L 356.98871 570.110354 
L 374.308489 563.809039 
L 391.628269 557.268132 
L 408.948048 550.515938 
L 432.041087 541.231698 
L 455.134127 531.679986 
L 484.000426 519.44447 
L 512.866725 506.967372 
L 553.279544 489.247225 
L 662.971481 440.987801 
L 703.3843 423.545288 
L 738.023859 408.863508 
L 766.890158 396.851393 
L 795.756457 385.06828 
L 824.622756 373.534594 
L 853.489055 362.257799 
L 882.355355 351.2546 
L 911.221654 340.53419 
L 940.087953 330.10645 
L 963.180992 321.972012 
L 986.274032 314.025782 
L 997.820551 310.125863 
L 997.820551 310.125863 
" clip-path="url(#p2d1cd0e5c0)" style="fill: none; stroke: #17becf; stroke-width: 5; stroke-linecap: round"/>
   </g>
   <g id="patch_3">
    <path d="M 88.532127 678.237256 
L 88.532127 38.88 
" style="fill: none; stroke: #262626; stroke-width: 0.8; stroke-linejoin: miter; stroke-linecap: square"/>
   </g>
   <g id="patch_4">
    <path d="M 88.532127 678.237256 
L 1041.12 678.237256 
" style="fill: none; stroke: #262626; stroke-width: 0.8; stroke-linejoin: miter; stroke-linecap: square"/>
   </g>
  </g>
 </g>
 <defs>
  <clipPath id="p2d1cd0e5c0">
   <rect x="88.532127" y="38.88" width="952.587873" height="639.357256"/>
  </clipPath>
 </defs>
</svg>
