<?xml version="1.0" encoding="utf-8" standalone="no"?>
<!DOCTYPE svg PUBLIC "-//W3C//DTD SVG 1.1//EN"
  "http://www.w3.org/Graphics/SVG/1.1/DTD/svg11.dtd">
<svg xmlns:xlink="http://www.w3.org/1999/xlink" width="1080pt" height="756pt" viewBox="0 0 1080 756" xmlns="http://www.w3.org/2000/svg" version="1.1">
 <metadata>
  <rdf:RDF xmlns:dc="http://purl.org/dc/elements/1.1/" xmlns:cc="http://creativecommons.org/ns#" xmlns:rdf="http://www.w3.org/1999/02/22-rdf-syntax-ns#">
   <cc:Work>
    <dc:type rdf:resource="http://purl.org/dc/dcmitype/StillImage"/>
    <dc:date>2024-07-30T20:14:44.016637</dc:date>
    <dc:format>image/svg+xml</dc:format>
    <dc:creator>
     <cc:Agent>
      <dc:title>Matplotlib v3.9.0, https://matplotlib.org/</dc:title>
     </cc:Agent>
    </dc:creator>
   </cc:Work>
  </rdf:RDF>
 </metadata>
 <defs>
  <style type="text/css">*{stroke-linejoin: round; stroke-linecap: butt}</style>
 </defs>
 <g id="figure_1">
  <g id="patch_1">
   <path d="M 0 756 
L 1080 756 
L 1080 0 
L 0 0 
z
" style="fill: #ffffff"/>
  </g>
  <g id="axes_1">
   <g id="patch_2">
    <path d="M 88.532127 678.237256 
L 1041.12 678.237256 
L 1041.12 38.88 
L 88.532127 38.88 
z
" style="fill: #ffffff"/>
   </g>
   <g id="matplotlib.axis_1">
    <g id="xtick_1">
     <g id="line2d_1">
      <defs>
       <path id="m664ee8ba32" d="M 0 0 
L 0 3.5 
" style="stroke: #262626; stroke-width: 0.8"/>
      </defs>
      <g>
       <use xlink:href="#m664ee8ba32" x="131.831576" y="678.237256" style="fill: #262626; stroke: #262626; stroke-width: 0.8"/>
      </g>
     </g>
     <g id="text_1">
      <!-- $\mathdefault{0.0}$ -->
      <g style="fill: #262626" transform="translate(110.505512 710.143856) scale(0.36 -0.36)">
       <defs>
        <path id="CMR17-30" d="M 2688 2025 
C 2688 2416 2682 3080 2413 3591 
C 2176 4039 1798 4198 1466 4198 
C 1158 4198 768 4058 525 3597 
C 269 3118 243 2524 243 2025 
C 243 1661 250 1106 448 619 
C 723 -39 1216 -128 1466 -128 
C 1760 -128 2208 -7 2470 600 
C 2662 1042 2688 1559 2688 2025 
z
M 1466 -26 
C 1056 -26 813 325 723 812 
C 653 1188 653 1738 653 2096 
C 653 2588 653 2997 736 3387 
C 858 3929 1216 4096 1466 4096 
C 1728 4096 2067 3923 2189 3400 
C 2272 3036 2278 2607 2278 2096 
C 2278 1680 2278 1169 2202 792 
C 2067 95 1690 -26 1466 -26 
z
" transform="scale(0.015625)"/>
        <path id="CMMI12-3a" d="M 1178 307 
C 1178 492 1024 619 870 619 
C 685 619 557 466 557 313 
C 557 128 710 0 864 0 
C 1050 0 1178 153 1178 307 
z
" transform="scale(0.015625)"/>
       </defs>
       <use xlink:href="#CMR17-30" transform="scale(0.996264)"/>
       <use xlink:href="#CMMI12-3a" transform="translate(45.690477 0) scale(0.996264)"/>
       <use xlink:href="#CMR17-30" transform="translate(72.787654 0) scale(0.996264)"/>
      </g>
     </g>
    </g>
    <g id="xtick_2">
     <g id="line2d_2">
      <g>
       <use xlink:href="#m664ee8ba32" x="305.029371" y="678.237256" style="fill: #262626; stroke: #262626; stroke-width: 0.8"/>
      </g>
     </g>
     <g id="text_2">
      <!-- $\mathdefault{0.2}$ -->
      <g style="fill: #262626" transform="translate(283.703307 710.143856) scale(0.36 -0.36)">
       <defs>
        <path id="CMR17-32" d="M 2669 989 
L 2554 989 
C 2490 536 2438 459 2413 420 
C 2381 369 1920 369 1830 369 
L 602 369 
C 832 619 1280 1072 1824 1597 
C 2214 1967 2669 2402 2669 3035 
C 2669 3790 2067 4224 1395 4224 
C 691 4224 262 3604 262 3030 
C 262 2780 448 2748 525 2748 
C 589 2748 781 2787 781 3010 
C 781 3207 614 3264 525 3264 
C 486 3264 448 3258 422 3245 
C 544 3790 915 4058 1306 4058 
C 1862 4058 2227 3617 2227 3035 
C 2227 2479 1901 2000 1536 1584 
L 262 146 
L 262 0 
L 2515 0 
L 2669 989 
z
" transform="scale(0.015625)"/>
       </defs>
       <use xlink:href="#CMR17-30" transform="scale(0.996264)"/>
       <use xlink:href="#CMMI12-3a" transform="translate(45.690477 0) scale(0.996264)"/>
       <use xlink:href="#CMR17-32" transform="translate(72.787654 0) scale(0.996264)"/>
      </g>
     </g>
    </g>
    <g id="xtick_3">
     <g id="line2d_3">
      <g>
       <use xlink:href="#m664ee8ba32" x="478.227166" y="678.237256" style="fill: #262626; stroke: #262626; stroke-width: 0.8"/>
      </g>
     </g>
     <g id="text_3">
      <!-- $\mathdefault{0.4}$ -->
      <g style="fill: #262626" transform="translate(456.901102 710.143856) scale(0.36 -0.36)">
       <defs>
        <path id="CMR17-34" d="M 2150 4122 
C 2150 4256 2144 4256 2029 4256 
L 128 1254 
L 128 1088 
L 1779 1088 
L 1779 457 
C 1779 224 1766 160 1318 160 
L 1197 160 
L 1197 0 
C 1402 0 1747 0 1965 0 
C 2182 0 2528 0 2733 0 
L 2733 160 
L 2611 160 
C 2163 160 2150 224 2150 457 
L 2150 1088 
L 2803 1088 
L 2803 1254 
L 2150 1254 
L 2150 4122 
z
M 1798 3703 
L 1798 1254 
L 256 1254 
L 1798 3703 
z
" transform="scale(0.015625)"/>
       </defs>
       <use xlink:href="#CMR17-30" transform="scale(0.996264)"/>
       <use xlink:href="#CMMI12-3a" transform="translate(45.690477 0) scale(0.996264)"/>
       <use xlink:href="#CMR17-34" transform="translate(72.787654 0) scale(0.996264)"/>
      </g>
     </g>
    </g>
    <g id="xtick_4">
     <g id="line2d_4">
      <g>
       <use xlink:href="#m664ee8ba32" x="651.424961" y="678.237256" style="fill: #262626; stroke: #262626; stroke-width: 0.8"/>
      </g>
     </g>
     <g id="text_4">
      <!-- $\mathdefault{0.6}$ -->
      <g style="fill: #262626" transform="translate(630.098898 710.143856) scale(0.36 -0.36)">
       <defs>
        <path id="CMR17-36" d="M 678 2176 
C 678 3690 1395 4032 1811 4032 
C 1946 4032 2272 4009 2400 3776 
C 2298 3776 2106 3776 2106 3553 
C 2106 3381 2246 3323 2336 3323 
C 2394 3323 2566 3348 2566 3560 
C 2566 3954 2246 4179 1805 4179 
C 1043 4179 243 3390 243 1984 
C 243 253 966 -128 1478 -128 
C 2099 -128 2688 427 2688 1283 
C 2688 2081 2170 2662 1517 2662 
C 1126 2662 838 2407 678 1960 
L 678 2176 
z
M 1478 25 
C 691 25 691 1200 691 1436 
C 691 1896 909 2560 1504 2560 
C 1613 2560 1926 2560 2138 2120 
C 2253 1870 2253 1609 2253 1289 
C 2253 944 2253 690 2118 434 
C 1978 171 1773 25 1478 25 
z
" transform="scale(0.015625)"/>
       </defs>
       <use xlink:href="#CMR17-30" transform="scale(0.996264)"/>
       <use xlink:href="#CMMI12-3a" transform="translate(45.690477 0) scale(0.996264)"/>
       <use xlink:href="#CMR17-36" transform="translate(72.787654 0) scale(0.996264)"/>
      </g>
     </g>
    </g>
    <g id="xtick_5">
     <g id="line2d_5">
      <g>
       <use xlink:href="#m664ee8ba32" x="824.622756" y="678.237256" style="fill: #262626; stroke: #262626; stroke-width: 0.8"/>
      </g>
     </g>
     <g id="text_5">
      <!-- $\mathdefault{0.8}$ -->
      <g style="fill: #262626" transform="translate(803.296693 710.143856) scale(0.36 -0.36)">
       <defs>
        <path id="CMR17-38" d="M 1741 2264 
C 2144 2467 2554 2773 2554 3263 
C 2554 3841 1990 4179 1472 4179 
C 890 4179 378 3759 378 3180 
C 378 3021 416 2747 666 2505 
C 730 2442 998 2251 1171 2130 
C 883 1983 211 1634 211 934 
C 211 279 838 -128 1459 -128 
C 2144 -128 2720 362 2720 1010 
C 2720 1590 2330 1857 2074 2029 
L 1741 2264 
z
M 902 2822 
C 851 2854 595 3051 595 3351 
C 595 3739 998 4032 1459 4032 
C 1965 4032 2336 3676 2336 3262 
C 2336 2669 1670 2331 1638 2331 
C 1632 2331 1626 2331 1574 2370 
L 902 2822 
z
M 2080 1519 
C 2176 1449 2483 1240 2483 851 
C 2483 381 2010 25 1472 25 
C 890 25 448 438 448 940 
C 448 1443 838 1862 1280 2060 
L 2080 1519 
z
" transform="scale(0.015625)"/>
       </defs>
       <use xlink:href="#CMR17-30" transform="scale(0.996264)"/>
       <use xlink:href="#CMMI12-3a" transform="translate(45.690477 0) scale(0.996264)"/>
       <use xlink:href="#CMR17-38" transform="translate(72.787654 0) scale(0.996264)"/>
      </g>
     </g>
    </g>
    <g id="xtick_6">
     <g id="line2d_6">
      <g>
       <use xlink:href="#m664ee8ba32" x="997.820551" y="678.237256" style="fill: #262626; stroke: #262626; stroke-width: 0.8"/>
      </g>
     </g>
     <g id="text_6">
      <!-- $\mathdefault{1.0}$ -->
      <g style="fill: #262626" transform="translate(976.494488 710.143856) scale(0.36 -0.36)">
       <defs>
        <path id="CMR17-31" d="M 1702 4058 
C 1702 4192 1696 4192 1606 4192 
C 1357 3916 979 3827 621 3827 
C 602 3827 570 3827 563 3808 
C 557 3795 557 3782 557 3648 
C 755 3648 1088 3686 1344 3839 
L 1344 461 
C 1344 236 1331 160 781 160 
L 589 160 
L 589 0 
C 896 0 1216 0 1523 0 
C 1830 0 2150 0 2458 0 
L 2458 160 
L 2266 160 
C 1715 160 1702 230 1702 458 
L 1702 4058 
z
" transform="scale(0.015625)"/>
       </defs>
       <use xlink:href="#CMR17-31" transform="scale(0.996264)"/>
       <use xlink:href="#CMMI12-3a" transform="translate(45.690477 0) scale(0.996264)"/>
       <use xlink:href="#CMR17-30" transform="translate(72.787654 0) scale(0.996264)"/>
      </g>
     </g>
    </g>
   </g>
   <g id="matplotlib.axis_2">
    <g id="ytick_1">
     <g id="line2d_7">
      <defs>
       <path id="mc0e7f70600" d="M 0 0 
L -3.5 0 
" style="stroke: #262626; stroke-width: 0.8"/>
      </defs>
      <g>
       <use xlink:href="#mc0e7f70600" x="88.532127" y="603.155913" style="fill: #262626; stroke: #262626; stroke-width: 0.8"/>
      </g>
     </g>
     <g id="text_7">
      <!-- $\mathdefault{0.0}$ -->
      <g style="fill: #262626" transform="translate(38.88 615.609213) scale(0.36 -0.36)">
       <use xlink:href="#CMR17-30" transform="scale(0.996264)"/>
       <use xlink:href="#CMMI12-3a" transform="translate(45.690477 0) scale(0.996264)"/>
       <use xlink:href="#CMR17-30" transform="translate(72.787654 0) scale(0.996264)"/>
      </g>
     </g>
    </g>
    <g id="ytick_2">
     <g id="line2d_8">
      <g>
       <use xlink:href="#mc0e7f70600" x="88.532127" y="496.113069" style="fill: #262626; stroke: #262626; stroke-width: 0.8"/>
      </g>
     </g>
     <g id="text_8">
      <!-- $\mathdefault{0.2}$ -->
      <g style="fill: #262626" transform="translate(38.88 508.566369) scale(0.36 -0.36)">
       <use xlink:href="#CMR17-30" transform="scale(0.996264)"/>
       <use xlink:href="#CMMI12-3a" transform="translate(45.690477 0) scale(0.996264)"/>
       <use xlink:href="#CMR17-32" transform="translate(72.787654 0) scale(0.996264)"/>
      </g>
     </g>
    </g>
    <g id="ytick_3">
     <g id="line2d_9">
      <g>
       <use xlink:href="#mc0e7f70600" x="88.532127" y="389.070225" style="fill: #262626; stroke: #262626; stroke-width: 0.8"/>
      </g>
     </g>
     <g id="text_9">
      <!-- $\mathdefault{0.4}$ -->
      <g style="fill: #262626" transform="translate(38.88 401.523525) scale(0.36 -0.36)">
       <use xlink:href="#CMR17-30" transform="scale(0.996264)"/>
       <use xlink:href="#CMMI12-3a" transform="translate(45.690477 0) scale(0.996264)"/>
       <use xlink:href="#CMR17-34" transform="translate(72.787654 0) scale(0.996264)"/>
      </g>
     </g>
    </g>
    <g id="ytick_4">
     <g id="line2d_10">
      <g>
       <use xlink:href="#mc0e7f70600" x="88.532127" y="282.027381" style="fill: #262626; stroke: #262626; stroke-width: 0.8"/>
      </g>
     </g>
     <g id="text_10">
      <!-- $\mathdefault{0.6}$ -->
      <g style="fill: #262626" transform="translate(38.88 294.480681) scale(0.36 -0.36)">
       <use xlink:href="#CMR17-30" transform="scale(0.996264)"/>
       <use xlink:href="#CMMI12-3a" transform="translate(45.690477 0) scale(0.996264)"/>
       <use xlink:href="#CMR17-36" transform="translate(72.787654 0) scale(0.996264)"/>
      </g>
     </g>
    </g>
    <g id="ytick_5">
     <g id="line2d_11">
      <g>
       <use xlink:href="#mc0e7f70600" x="88.532127" y="174.984537" style="fill: #262626; stroke: #262626; stroke-width: 0.8"/>
      </g>
     </g>
     <g id="text_11">
      <!-- $\mathdefault{0.8}$ -->
      <g style="fill: #262626" transform="translate(38.88 187.437838) scale(0.36 -0.36)">
       <use xlink:href="#CMR17-30" transform="scale(0.996264)"/>
       <use xlink:href="#CMMI12-3a" transform="translate(45.690477 0) scale(0.996264)"/>
       <use xlink:href="#CMR17-38" transform="translate(72.787654 0) scale(0.996264)"/>
      </g>
     </g>
    </g>
    <g id="ytick_6">
     <g id="line2d_12">
      <g>
       <use xlink:href="#mc0e7f70600" x="88.532127" y="67.941693" style="fill: #262626; stroke: #262626; stroke-width: 0.8"/>
      </g>
     </g>
     <g id="text_12">
      <!-- $\mathdefault{1.0}$ -->
      <g style="fill: #262626" transform="translate(38.88 80.394994) scale(0.36 -0.36)">
       <use xlink:href="#CMR17-31" transform="scale(0.996264)"/>
       <use xlink:href="#CMMI12-3a" transform="translate(45.690477 0) scale(0.996264)"/>
       <use xlink:href="#CMR17-30" transform="translate(72.787654 0) scale(0.996264)"/>
      </g>
     </g>
    </g>
   </g>
   <g id="line2d_13">
    <path d="M 131.831576 67.941693 
L 997.820551 67.941693 
L 997.820551 67.941693 
" clip-path="url(#p36e38903bc)" style="fill: none; stroke: #1f77b4; stroke-width: 5; stroke-linecap: round"/>
   </g>
   <g id="line2d_14">
    <path d="M 131.831576 414.720417 
L 166.471135 400.323919 
L 195.337434 388.558471 
L 224.203733 377.024089 
L 253.070033 365.73844 
L 281.936332 354.714117 
L 310.802631 343.962125 
L 339.66893 333.489577 
L 368.535229 323.303253 
L 397.401528 313.407173 
L 420.494568 305.700803 
L 449.360867 296.332181 
L 472.453906 289.04872 
L 495.546946 281.951226 
L 524.413245 273.342373 
L 547.506284 266.66147 
L 576.372583 258.566421 
L 605.238882 250.752963 
L 634.105182 243.2147 
L 662.971481 235.947067 
L 691.83778 228.944202 
L 720.704079 222.200261 
L 749.570378 215.70859 
L 778.436678 209.464395 
L 807.302977 203.456713 
L 836.169276 197.682648 
L 865.035575 192.134485 
L 893.901874 186.805546 
L 922.768173 181.688342 
L 951.634473 176.775446 
L 980.500772 172.061267 
L 997.820551 169.326749 
L 997.820551 169.326749 
" clip-path="url(#p36e38903bc)" style="fill: none; stroke: #ff7f0e; stroke-width: 5; stroke-linecap: round"/>
   </g>
   <g id="line2d_15">
    <path d="M 131.831576 537.285469 
L 154.924615 528.028198 
L 178.017655 518.543582 
L 206.883954 506.440373 
L 241.523513 491.66291 
L 299.256111 466.73913 
L 362.761969 439.380522 
L 403.174788 422.218229 
L 437.814347 407.75056 
L 472.453906 393.558483 
L 501.320205 381.970584 
L 530.186505 370.619243 
L 559.052804 359.520843 
L 587.919103 348.68665 
L 616.785402 338.125968 
L 645.651701 327.8463 
L 674.518 317.852872 
L 703.3843 308.149002 
L 732.250599 298.736044 
L 761.116898 289.614152 
L 789.983197 280.782706 
L 818.849496 272.240061 
L 847.715796 263.982125 
L 876.582095 256.00606 
L 905.448394 248.307141 
L 934.314693 240.881095 
L 963.180992 233.721513 
L 992.047291 226.824152 
L 997.820551 225.474648 
L 997.820551 225.474648 
" clip-path="url(#p36e38903bc)" style="fill: none; stroke: #2ca02c; stroke-width: 5; stroke-linecap: round"/>
   </g>
   <g id="line2d_16">
    <path d="M 131.831576 581.07835 
L 143.378096 577.748922 
L 160.697875 572.456434 
L 178.017655 566.837039 
L 195.337434 560.924273 
L 212.657214 554.74965 
L 229.976993 548.34281 
L 247.296773 541.731698 
L 270.389812 532.643799 
L 293.482851 523.295523 
L 322.349151 511.3226 
L 356.98871 496.651439 
L 403.174788 476.794744 
L 489.773686 439.483728 
L 530.186505 422.335375 
L 564.826064 407.878906 
L 593.692363 396.039384 
L 622.558662 384.414087 
L 651.424961 373.02185 
L 680.29126 361.8789 
L 709.15756 350.997207 
L 738.023859 340.387646 
L 766.890158 330.057233 
L 795.756457 320.011277 
L 824.622756 310.253738 
L 853.489055 300.786609 
L 882.355355 291.611023 
L 905.448394 284.478294 
L 934.314693 275.8231 
L 963.180992 267.453678 
L 992.047291 259.368035 
L 997.820551 257.784261 
L 997.820551 257.784261 
" clip-path="url(#p36e38903bc)" style="fill: none; stroke: #d62728; stroke-width: 5; stroke-linecap: round"/>
   </g>
   <g id="line2d_17">
    <path d="M 131.831576 596.2135 
L 143.378096 594.06366 
L 154.924615 591.678359 
L 166.471135 589.071236 
L 178.017655 586.255473 
L 189.564174 583.243957 
L 201.110694 580.048952 
L 212.657214 576.682425 
L 229.976993 571.335757 
L 247.296773 565.66524 
L 264.616552 559.705152 
L 281.936332 553.48746 
L 299.256111 547.042107 
L 316.575891 540.396886 
L 339.66893 531.270485 
L 362.761969 521.891392 
L 391.628269 509.889873 
L 426.267828 495.197828 
L 472.453906 475.332342 
L 559.052804 438.051708 
L 599.465623 420.932876 
L 634.105182 406.506838 
L 662.971481 394.696326 
L 691.83778 383.101935 
L 720.704079 371.742827 
L 749.570378 360.633897 
L 778.436678 349.788046 
L 807.302977 339.214806 
L 836.169276 328.920387 
L 865.035575 318.911417 
L 893.901874 309.190771 
L 922.768173 299.760359 
L 951.634473 290.620896 
L 980.500772 281.770429 
L 997.820551 276.598424 
L 997.820551 276.598424 
" clip-path="url(#p36e38903bc)" style="fill: none; stroke: #9467bd; stroke-width: 5; stroke-linecap: round"/>
   </g>
   <g id="line2d_18">
    <path d="M 131.831576 602.296208 
L 137.604836 600.985422 
L 143.378096 599.922723 
L 166.471135 596.357982 
L 178.017655 594.238634 
L 189.564174 591.880134 
L 201.110694 589.296697 
L 212.657214 586.502155 
L 224.203733 583.509652 
L 235.750253 580.331969 
L 247.296773 576.981133 
L 264.616552 571.655679 
L 281.936332 566.00387 
L 299.256111 560.060336 
L 316.575891 553.857337 
L 333.89567 547.425063 
L 351.21545 540.79161 
L 374.308489 531.678652 
L 397.401528 522.310914 
L 426.267828 510.32098 
L 460.907387 495.639168 
L 507.093465 475.7825 
L 593.692363 438.505192 
L 634.105182 421.383334 
L 668.744741 406.952776 
L 697.61104 395.137462 
L 726.477339 383.537847 
L 755.343638 372.171901 
L 784.209937 361.056249 
L 813.076237 350.202286 
L 841.942536 339.620523 
L 870.808835 329.31855 
L 899.675134 319.300547 
L 928.541433 309.571552 
L 951.634473 301.996005 
L 980.500772 292.789284 
L 997.820551 287.403565 
L 997.820551 287.403565 
" clip-path="url(#p36e38903bc)" style="fill: none; stroke: #8c564b; stroke-width: 5; stroke-linecap: round"/>
   </g>
   <g id="line2d_19">
    <path d="M 131.831576 609.851973 
L 137.604836 607.093481 
L 143.378096 604.866149 
L 149.151356 603.058845 
L 154.924615 601.601173 
L 160.697875 600.420661 
L 166.471135 599.462998 
L 178.017655 597.780468 
L 189.564174 595.852174 
L 201.110694 593.672888 
L 212.657214 591.257632 
L 224.203733 588.620694 
L 235.750253 585.775905 
L 247.296773 582.736323 
L 258.843292 579.514605 
L 270.389812 576.122814 
L 287.709592 570.741095 
L 305.029371 565.03905 
L 322.349151 559.05099 
L 339.66893 552.808689 
L 356.98871 546.341965 
L 374.308489 539.678527 
L 397.401528 530.5322 
L 420.494568 521.137843 
L 449.360867 509.123089 
L 484.000426 494.422641 
L 535.959764 472.063729 
L 611.012142 439.762173 
L 651.424961 422.623389 
L 686.06452 408.173284 
L 714.930819 396.338885 
L 743.797119 384.717353 
L 772.663418 373.328548 
L 801.529717 362.187876 
L 830.396016 351.308219 
L 859.262315 340.699233 
L 888.128614 330.369446 
L 916.994914 320.323132 
L 945.861213 310.565287 
L 974.727512 301.096628 
L 997.820551 293.730801 
L 997.820551 293.730801 
" clip-path="url(#p36e38903bc)" style="fill: none; stroke: #e377c2; stroke-width: 5; stroke-linecap: round"/>
   </g>
   <g id="line2d_20">
    <path d="M 131.831576 618.757584 
L 137.604836 614.252875 
L 143.378096 610.632377 
L 149.151356 607.708325 
L 154.924615 605.35943 
L 160.697875 603.463687 
L 166.471135 601.930966 
L 172.244395 600.689167 
L 178.017655 599.681149 
L 195.337434 597.085606 
L 206.883954 595.06157 
L 218.430474 592.792195 
L 229.976993 590.292245 
L 241.523513 587.575892 
L 253.070033 584.656684 
L 264.616552 581.547516 
L 276.163072 578.260791 
L 287.709592 574.8084 
L 305.029371 569.343654 
L 322.349151 563.567504 
L 339.66893 557.513447 
L 356.98871 551.212916 
L 374.308489 544.69513 
L 397.401528 535.71345 
L 420.494568 526.452938 
L 443.587607 516.967358 
L 472.453906 504.86732 
L 507.093465 490.101726 
L 570.599323 462.724695 
L 628.331922 437.925278 
L 668.744741 420.816471 
L 703.3843 406.398969 
L 732.250599 394.595756 
L 761.116898 383.00878 
L 789.983197 371.656798 
L 818.849496 360.555102 
L 847.715796 349.716246 
L 876.582095 339.149389 
L 905.448394 328.861651 
L 934.314693 318.858959 
L 963.180992 309.144237 
L 992.047291 299.719568 
L 997.820551 297.870219 
L 997.820551 297.870219 
" clip-path="url(#p36e38903bc)" style="fill: none; stroke: #7f7f7f; stroke-width: 5; stroke-linecap: round"/>
   </g>
   <g id="line2d_21">
    <path d="M 131.831576 628.448257 
L 137.604836 622.014761 
L 143.378096 616.860352 
L 149.151356 612.710667 
L 154.924615 609.387514 
L 160.697875 606.713887 
L 166.471135 604.558866 
L 172.244395 602.817966 
L 178.017655 601.408405 
L 183.790915 600.26563 
L 189.564174 599.337224 
L 201.110694 597.647525 
L 212.657214 595.700929 
L 224.203733 593.504316 
L 235.750253 591.072754 
L 247.296773 588.420508 
L 258.843292 585.561373 
L 270.389812 582.508499 
L 281.936332 579.274362 
L 293.482851 575.871013 
L 310.802631 570.473635 
L 328.12241 564.75776 
L 345.44219 558.757481 
L 362.761969 552.504591 
L 380.081749 546.028686 
L 397.401528 539.357421 
L 420.494568 530.20253 
L 443.587607 520.80169 
L 472.453906 508.78128 
L 507.093465 494.076929 
L 559.052804 471.717953 
L 634.105182 439.42479 
L 674.518 422.293239 
L 709.15756 407.851198 
L 738.023859 396.023523 
L 766.890158 384.409774 
L 795.756457 373.028825 
L 824.622756 361.896652 
L 853.489055 351.025183 
L 882.355355 340.425288 
L 911.221654 330.104296 
L 940.087953 320.066697 
L 968.954252 310.317261 
L 997.820551 300.857541 
L 997.820551 300.857541 
" clip-path="url(#p36e38903bc)" style="fill: none; stroke: #bcbd22; stroke-width: 5; stroke-linecap: round"/>
   </g>
   <g id="line2d_22">
    <path d="M 131.831576 638.637482 
L 137.604836 630.153314 
L 143.378096 623.372674 
L 149.151356 617.927272 
L 154.924615 613.576813 
L 160.697875 610.084964 
L 166.471135 607.277054 
L 172.244395 605.014069 
L 178.017655 603.186124 
L 183.790915 601.707393 
L 189.564174 600.507778 
L 195.337434 599.534372 
L 206.883954 597.855162 
L 218.430474 595.938417 
L 229.976993 593.769871 
L 241.523513 591.364629 
L 253.070033 588.737137 
L 264.616552 585.901156 
L 276.163072 582.869902 
L 287.709592 579.656061 
L 299.256111 576.271662 
L 316.575891 570.90026 
L 333.89567 565.207658 
L 351.21545 559.228253 
L 368.535229 552.993796 
L 385.855009 546.53419 
L 403.174788 539.877181 
L 426.267828 530.738422 
L 449.360867 521.350557 
L 478.227166 509.342561 
L 512.866725 494.648264 
L 564.826064 472.295582 
L 639.878441 439.997333 
L 680.29126 422.857708 
L 714.930819 408.406385 
L 749.570378 394.22772 
L 778.436678 382.648917 
L 807.302977 371.305504 
L 836.169276 360.212999 
L 865.035575 349.383012 
L 893.901874 338.825537 
L 922.768173 328.547881 
L 951.634473 318.555759 
L 980.500772 308.850323 
L 997.820551 303.166455 
L 997.820551 303.166455 
" clip-path="url(#p36e38903bc)" style="fill: none; stroke: #17becf; stroke-width: 5; stroke-linecap: round"/>
   </g>
   <g id="line2d_23">
    <path d="M 131.831576 649.175563 
L 137.604836 638.551903 
L 143.378096 630.078345 
L 149.151356 623.287091 
L 154.924615 617.871874 
L 160.697875 613.533807 
L 166.471135 610.052104 
L 172.244395 607.251423 
L 178.017655 604.993435 
L 183.790915 603.170205 
L 189.564174 601.693602 
L 195.337434 600.497411 
L 201.110694 599.52604 
L 212.657214 597.84664 
L 224.203733 595.928687 
L 235.750253 593.759036 
L 247.296773 591.3527 
L 258.843292 588.724176 
L 270.389812 585.88729 
L 281.936332 582.855176 
L 293.482851 579.640506 
L 305.029371 576.255311 
L 322.349151 570.882969 
L 339.66893 565.189507 
L 356.98871 559.209259 
L 374.308489 552.974197 
L 391.628269 546.5141 
L 408.948048 539.856681 
L 432.041087 530.717558 
L 455.134127 521.329411 
L 484.000426 509.321233 
L 518.639985 494.626963 
L 570.599323 472.274742 
L 645.651701 439.977651 
L 686.06452 422.838862 
L 720.704079 408.388243 
L 755.343638 394.210436 
L 784.209937 382.632283 
L 813.076237 371.289617 
L 841.942536 360.197773 
L 870.808835 349.368496 
L 899.675134 338.811772 
L 928.541433 328.534794 
L 957.407732 318.543349 
L 986.274032 308.838652 
L 997.820551 305.038719 
L 997.820551 305.038719 
" clip-path="url(#p36e38903bc)" style="fill: none; stroke: #17becf; stroke-width: 5; stroke-linecap: round"/>
   </g>
   <g id="patch_3">
    <path d="M 88.532127 678.237256 
L 88.532127 38.88 
" style="fill: none; stroke: #262626; stroke-width: 0.8; stroke-linejoin: miter; stroke-linecap: square"/>
   </g>
   <g id="patch_4">
    <path d="M 88.532127 678.237256 
L 1041.12 678.237256 
" style="fill: none; stroke: #262626; stroke-width: 0.8; stroke-linejoin: miter; stroke-linecap: square"/>
   </g>
  </g>
 </g>
 <defs>
  <clipPath id="p36e38903bc">
   <rect x="88.532127" y="38.88" width="952.587873" height="639.357256"/>
  </clipPath>
 </defs>
</svg>
