<?xml version="1.0" encoding="utf-8" standalone="no"?>
<!DOCTYPE svg PUBLIC "-//W3C//DTD SVG 1.1//EN"
  "http://www.w3.org/Graphics/SVG/1.1/DTD/svg11.dtd">
<svg xmlns:xlink="http://www.w3.org/1999/xlink" width="1080pt" height="756pt" viewBox="0 0 1080 756" xmlns="http://www.w3.org/2000/svg" version="1.1">
 <metadata>
  <rdf:RDF xmlns:dc="http://purl.org/dc/elements/1.1/" xmlns:cc="http://creativecommons.org/ns#" xmlns:rdf="http://www.w3.org/1999/02/22-rdf-syntax-ns#">
   <cc:Work>
    <dc:type rdf:resource="http://purl.org/dc/dcmitype/StillImage"/>
    <dc:date>2024-07-31T14:16:14.352071</dc:date>
    <dc:format>image/svg+xml</dc:format>
    <dc:creator>
     <cc:Agent>
      <dc:title>Matplotlib v3.9.0, https://matplotlib.org/</dc:title>
     </cc:Agent>
    </dc:creator>
   </cc:Work>
  </rdf:RDF>
 </metadata>
 <defs>
  <style type="text/css">*{stroke-linejoin: round; stroke-linecap: butt}</style>
 </defs>
 <g id="figure_1">
  <g id="patch_1">
   <path d="M 0 756 
L 1080 756 
L 1080 0 
L 0 0 
z
" style="fill: #ffffff"/>
  </g>
  <g id="axes_1">
   <g id="patch_2">
    <path d="M 88.532127 678.237256 
L 1041.12 678.237256 
L 1041.12 38.88 
L 88.532127 38.88 
z
" style="fill: #ffffff"/>
   </g>
   <g id="matplotlib.axis_1">
    <g id="xtick_1">
     <g id="line2d_1">
      <defs>
       <path id="m539383937e" d="M 0 0 
L 0 3.5 
" style="stroke: #262626; stroke-width: 0.8"/>
      </defs>
      <g>
       <use xlink:href="#m539383937e" x="88.532127" y="678.237256" style="fill: #262626; stroke: #262626; stroke-width: 0.8"/>
      </g>
     </g>
     <g id="text_1">
      <!-- $\mathdefault{0.0}$ -->
      <g style="fill: #262626" transform="translate(67.206064 710.143856) scale(0.36 -0.36)">
       <defs>
        <path id="CMR17-30" d="M 2688 2025 
C 2688 2416 2682 3080 2413 3591 
C 2176 4039 1798 4198 1466 4198 
C 1158 4198 768 4058 525 3597 
C 269 3118 243 2524 243 2025 
C 243 1661 250 1106 448 619 
C 723 -39 1216 -128 1466 -128 
C 1760 -128 2208 -7 2470 600 
C 2662 1042 2688 1559 2688 2025 
z
M 1466 -26 
C 1056 -26 813 325 723 812 
C 653 1188 653 1738 653 2096 
C 653 2588 653 2997 736 3387 
C 858 3929 1216 4096 1466 4096 
C 1728 4096 2067 3923 2189 3400 
C 2272 3036 2278 2607 2278 2096 
C 2278 1680 2278 1169 2202 792 
C 2067 95 1690 -26 1466 -26 
z
" transform="scale(0.015625)"/>
        <path id="CMMI12-3a" d="M 1178 307 
C 1178 492 1024 619 870 619 
C 685 619 557 466 557 313 
C 557 128 710 0 864 0 
C 1050 0 1178 153 1178 307 
z
" transform="scale(0.015625)"/>
       </defs>
       <use xlink:href="#CMR17-30" transform="scale(0.996264)"/>
       <use xlink:href="#CMMI12-3a" transform="translate(45.690477 0) scale(0.996264)"/>
       <use xlink:href="#CMR17-30" transform="translate(72.787654 0) scale(0.996264)"/>
      </g>
     </g>
    </g>
    <g id="xtick_2">
     <g id="line2d_2">
      <g>
       <use xlink:href="#m539383937e" x="269.977436" y="678.237256" style="fill: #262626; stroke: #262626; stroke-width: 0.8"/>
      </g>
     </g>
     <g id="text_2">
      <!-- $\mathdefault{0.2}$ -->
      <g style="fill: #262626" transform="translate(248.651373 710.143856) scale(0.36 -0.36)">
       <defs>
        <path id="CMR17-32" d="M 2669 989 
L 2554 989 
C 2490 536 2438 459 2413 420 
C 2381 369 1920 369 1830 369 
L 602 369 
C 832 619 1280 1072 1824 1597 
C 2214 1967 2669 2402 2669 3035 
C 2669 3790 2067 4224 1395 4224 
C 691 4224 262 3604 262 3030 
C 262 2780 448 2748 525 2748 
C 589 2748 781 2787 781 3010 
C 781 3207 614 3264 525 3264 
C 486 3264 448 3258 422 3245 
C 544 3790 915 4058 1306 4058 
C 1862 4058 2227 3617 2227 3035 
C 2227 2479 1901 2000 1536 1584 
L 262 146 
L 262 0 
L 2515 0 
L 2669 989 
z
" transform="scale(0.015625)"/>
       </defs>
       <use xlink:href="#CMR17-30" transform="scale(0.996264)"/>
       <use xlink:href="#CMMI12-3a" transform="translate(45.690477 0) scale(0.996264)"/>
       <use xlink:href="#CMR17-32" transform="translate(72.787654 0) scale(0.996264)"/>
      </g>
     </g>
    </g>
    <g id="xtick_3">
     <g id="line2d_3">
      <g>
       <use xlink:href="#m539383937e" x="451.422745" y="678.237256" style="fill: #262626; stroke: #262626; stroke-width: 0.8"/>
      </g>
     </g>
     <g id="text_3">
      <!-- $\mathdefault{0.4}$ -->
      <g style="fill: #262626" transform="translate(430.096682 710.143856) scale(0.36 -0.36)">
       <defs>
        <path id="CMR17-34" d="M 2150 4122 
C 2150 4256 2144 4256 2029 4256 
L 128 1254 
L 128 1088 
L 1779 1088 
L 1779 457 
C 1779 224 1766 160 1318 160 
L 1197 160 
L 1197 0 
C 1402 0 1747 0 1965 0 
C 2182 0 2528 0 2733 0 
L 2733 160 
L 2611 160 
C 2163 160 2150 224 2150 457 
L 2150 1088 
L 2803 1088 
L 2803 1254 
L 2150 1254 
L 2150 4122 
z
M 1798 3703 
L 1798 1254 
L 256 1254 
L 1798 3703 
z
" transform="scale(0.015625)"/>
       </defs>
       <use xlink:href="#CMR17-30" transform="scale(0.996264)"/>
       <use xlink:href="#CMMI12-3a" transform="translate(45.690477 0) scale(0.996264)"/>
       <use xlink:href="#CMR17-34" transform="translate(72.787654 0) scale(0.996264)"/>
      </g>
     </g>
    </g>
    <g id="xtick_4">
     <g id="line2d_4">
      <g>
       <use xlink:href="#m539383937e" x="632.868055" y="678.237256" style="fill: #262626; stroke: #262626; stroke-width: 0.8"/>
      </g>
     </g>
     <g id="text_4">
      <!-- $\mathdefault{0.6}$ -->
      <g style="fill: #262626" transform="translate(611.541991 710.143856) scale(0.36 -0.36)">
       <defs>
        <path id="CMR17-36" d="M 678 2176 
C 678 3690 1395 4032 1811 4032 
C 1946 4032 2272 4009 2400 3776 
C 2298 3776 2106 3776 2106 3553 
C 2106 3381 2246 3323 2336 3323 
C 2394 3323 2566 3348 2566 3560 
C 2566 3954 2246 4179 1805 4179 
C 1043 4179 243 3390 243 1984 
C 243 253 966 -128 1478 -128 
C 2099 -128 2688 427 2688 1283 
C 2688 2081 2170 2662 1517 2662 
C 1126 2662 838 2407 678 1960 
L 678 2176 
z
M 1478 25 
C 691 25 691 1200 691 1436 
C 691 1896 909 2560 1504 2560 
C 1613 2560 1926 2560 2138 2120 
C 2253 1870 2253 1609 2253 1289 
C 2253 944 2253 690 2118 434 
C 1978 171 1773 25 1478 25 
z
" transform="scale(0.015625)"/>
       </defs>
       <use xlink:href="#CMR17-30" transform="scale(0.996264)"/>
       <use xlink:href="#CMMI12-3a" transform="translate(45.690477 0) scale(0.996264)"/>
       <use xlink:href="#CMR17-36" transform="translate(72.787654 0) scale(0.996264)"/>
      </g>
     </g>
    </g>
    <g id="xtick_5">
     <g id="line2d_5">
      <g>
       <use xlink:href="#m539383937e" x="814.313364" y="678.237256" style="fill: #262626; stroke: #262626; stroke-width: 0.8"/>
      </g>
     </g>
     <g id="text_5">
      <!-- $\mathdefault{0.8}$ -->
      <g style="fill: #262626" transform="translate(792.9873 710.143856) scale(0.36 -0.36)">
       <defs>
        <path id="CMR17-38" d="M 1741 2264 
C 2144 2467 2554 2773 2554 3263 
C 2554 3841 1990 4179 1472 4179 
C 890 4179 378 3759 378 3180 
C 378 3021 416 2747 666 2505 
C 730 2442 998 2251 1171 2130 
C 883 1983 211 1634 211 934 
C 211 279 838 -128 1459 -128 
C 2144 -128 2720 362 2720 1010 
C 2720 1590 2330 1857 2074 2029 
L 1741 2264 
z
M 902 2822 
C 851 2854 595 3051 595 3351 
C 595 3739 998 4032 1459 4032 
C 1965 4032 2336 3676 2336 3262 
C 2336 2669 1670 2331 1638 2331 
C 1632 2331 1626 2331 1574 2370 
L 902 2822 
z
M 2080 1519 
C 2176 1449 2483 1240 2483 851 
C 2483 381 2010 25 1472 25 
C 890 25 448 438 448 940 
C 448 1443 838 1862 1280 2060 
L 2080 1519 
z
" transform="scale(0.015625)"/>
       </defs>
       <use xlink:href="#CMR17-30" transform="scale(0.996264)"/>
       <use xlink:href="#CMMI12-3a" transform="translate(45.690477 0) scale(0.996264)"/>
       <use xlink:href="#CMR17-38" transform="translate(72.787654 0) scale(0.996264)"/>
      </g>
     </g>
    </g>
    <g id="xtick_6">
     <g id="line2d_6">
      <g>
       <use xlink:href="#m539383937e" x="995.758673" y="678.237256" style="fill: #262626; stroke: #262626; stroke-width: 0.8"/>
      </g>
     </g>
     <g id="text_6">
      <!-- $\mathdefault{1.0}$ -->
      <g style="fill: #262626" transform="translate(974.432609 710.143856) scale(0.36 -0.36)">
       <defs>
        <path id="CMR17-31" d="M 1702 4058 
C 1702 4192 1696 4192 1606 4192 
C 1357 3916 979 3827 621 3827 
C 602 3827 570 3827 563 3808 
C 557 3795 557 3782 557 3648 
C 755 3648 1088 3686 1344 3839 
L 1344 461 
C 1344 236 1331 160 781 160 
L 589 160 
L 589 0 
C 896 0 1216 0 1523 0 
C 1830 0 2150 0 2458 0 
L 2458 160 
L 2266 160 
C 1715 160 1702 230 1702 458 
L 1702 4058 
z
" transform="scale(0.015625)"/>
       </defs>
       <use xlink:href="#CMR17-31" transform="scale(0.996264)"/>
       <use xlink:href="#CMMI12-3a" transform="translate(45.690477 0) scale(0.996264)"/>
       <use xlink:href="#CMR17-30" transform="translate(72.787654 0) scale(0.996264)"/>
      </g>
     </g>
    </g>
   </g>
   <g id="matplotlib.axis_2">
    <g id="ytick_1">
     <g id="line2d_7">
      <defs>
       <path id="mc6d73aa51b" d="M 0 0 
L -3.5 0 
" style="stroke: #262626; stroke-width: 0.8"/>
      </defs>
      <g>
       <use xlink:href="#mc6d73aa51b" x="88.532127" y="678.237256" style="fill: #262626; stroke: #262626; stroke-width: 0.8"/>
      </g>
     </g>
     <g id="text_7">
      <!-- $\mathdefault{0.0}$ -->
      <g style="fill: #262626" transform="translate(38.88 690.690556) scale(0.36 -0.36)">
       <use xlink:href="#CMR17-30" transform="scale(0.996264)"/>
       <use xlink:href="#CMMI12-3a" transform="translate(45.690477 0) scale(0.996264)"/>
       <use xlink:href="#CMR17-30" transform="translate(72.787654 0) scale(0.996264)"/>
      </g>
     </g>
    </g>
    <g id="ytick_2">
     <g id="line2d_8">
      <g>
       <use xlink:href="#mc6d73aa51b" x="88.532127" y="556.810661" style="fill: #262626; stroke: #262626; stroke-width: 0.8"/>
      </g>
     </g>
     <g id="text_8">
      <!-- $\mathdefault{0.2}$ -->
      <g style="fill: #262626" transform="translate(38.88 569.263961) scale(0.36 -0.36)">
       <use xlink:href="#CMR17-30" transform="scale(0.996264)"/>
       <use xlink:href="#CMMI12-3a" transform="translate(45.690477 0) scale(0.996264)"/>
       <use xlink:href="#CMR17-32" transform="translate(72.787654 0) scale(0.996264)"/>
      </g>
     </g>
    </g>
    <g id="ytick_3">
     <g id="line2d_9">
      <g>
       <use xlink:href="#mc6d73aa51b" x="88.532127" y="435.384065" style="fill: #262626; stroke: #262626; stroke-width: 0.8"/>
      </g>
     </g>
     <g id="text_9">
      <!-- $\mathdefault{0.4}$ -->
      <g style="fill: #262626" transform="translate(38.88 447.837365) scale(0.36 -0.36)">
       <use xlink:href="#CMR17-30" transform="scale(0.996264)"/>
       <use xlink:href="#CMMI12-3a" transform="translate(45.690477 0) scale(0.996264)"/>
       <use xlink:href="#CMR17-34" transform="translate(72.787654 0) scale(0.996264)"/>
      </g>
     </g>
    </g>
    <g id="ytick_4">
     <g id="line2d_10">
      <g>
       <use xlink:href="#mc6d73aa51b" x="88.532127" y="313.957469" style="fill: #262626; stroke: #262626; stroke-width: 0.8"/>
      </g>
     </g>
     <g id="text_10">
      <!-- $\mathdefault{0.6}$ -->
      <g style="fill: #262626" transform="translate(38.88 326.410769) scale(0.36 -0.36)">
       <use xlink:href="#CMR17-30" transform="scale(0.996264)"/>
       <use xlink:href="#CMMI12-3a" transform="translate(45.690477 0) scale(0.996264)"/>
       <use xlink:href="#CMR17-36" transform="translate(72.787654 0) scale(0.996264)"/>
      </g>
     </g>
    </g>
    <g id="ytick_5">
     <g id="line2d_11">
      <g>
       <use xlink:href="#mc6d73aa51b" x="88.532127" y="192.530874" style="fill: #262626; stroke: #262626; stroke-width: 0.8"/>
      </g>
     </g>
     <g id="text_11">
      <!-- $\mathdefault{0.8}$ -->
      <g style="fill: #262626" transform="translate(38.88 204.984174) scale(0.36 -0.36)">
       <use xlink:href="#CMR17-30" transform="scale(0.996264)"/>
       <use xlink:href="#CMMI12-3a" transform="translate(45.690477 0) scale(0.996264)"/>
       <use xlink:href="#CMR17-38" transform="translate(72.787654 0) scale(0.996264)"/>
      </g>
     </g>
    </g>
    <g id="ytick_6">
     <g id="line2d_12">
      <g>
       <use xlink:href="#mc6d73aa51b" x="88.532127" y="71.104278" style="fill: #262626; stroke: #262626; stroke-width: 0.8"/>
      </g>
     </g>
     <g id="text_12">
      <!-- $\mathdefault{1.0}$ -->
      <g style="fill: #262626" transform="translate(38.88 83.557578) scale(0.36 -0.36)">
       <use xlink:href="#CMR17-31" transform="scale(0.996264)"/>
       <use xlink:href="#CMMI12-3a" transform="translate(45.690477 0) scale(0.996264)"/>
       <use xlink:href="#CMR17-30" transform="translate(72.787654 0) scale(0.996264)"/>
      </g>
     </g>
    </g>
   </g>
   <g id="line2d_13">
    <path d="M 88.532127 71.104278 
L 995.758673 71.104278 
L 995.758673 71.104278 
" clip-path="url(#pd6a20084c4)" style="fill: none; stroke: #1f77b4; stroke-width: 5; stroke-linecap: round"/>
   </g>
   <g id="line2d_14">
    <path d="M 88.532127 677.642294 
L 100.628481 676.758816 
L 112.724835 675.51151 
L 124.821189 673.921338 
L 136.917543 672.008377 
L 149.013897 669.791516 
L 161.110251 667.2886 
L 173.206605 664.517095 
L 185.302959 661.493009 
L 197.399313 658.232446 
L 209.495667 654.750316 
L 221.592021 651.060722 
L 233.688375 647.177619 
L 245.784728 643.114213 
L 257.881082 638.882593 
L 276.025613 632.24656 
L 294.170144 625.297876 
L 312.314675 618.071378 
L 330.459206 610.600951 
L 348.603737 602.917735 
L 372.796445 592.389785 
L 396.989153 581.597123 
L 427.230038 567.817011 
L 463.519099 550.988586 
L 517.952692 525.447186 
L 584.482639 494.261502 
L 626.819878 474.680366 
L 663.108939 458.167737 
L 693.349824 444.641365 
L 723.590709 431.351814 
L 753.831594 418.330547 
L 778.024302 408.118213 
L 808.265187 395.616212 
L 838.506072 383.424483 
L 868.746956 371.55227 
L 892.939664 362.282169 
L 923.180549 350.995644 
L 953.421434 340.042547 
L 977.614142 331.517409 
L 995.758673 325.268393 
L 995.758673 325.268393 
" clip-path="url(#pd6a20084c4)" style="fill: none; stroke: #2ca02c; stroke-width: 5; stroke-linecap: round"/>
   </g>
   <g id="line2d_15">
    <path d="M 88.532127 685.829871 
L 94.580304 681.81849 
L 100.628481 679.661376 
L 106.676658 678.497782 
L 112.724835 677.865511 
L 124.821189 677.053838 
L 136.917543 675.914475 
L 149.013897 674.426688 
L 161.110251 672.610387 
L 173.206605 670.484843 
L 185.302959 668.067969 
L 197.399313 665.377461 
L 209.495667 662.429924 
L 221.592021 659.241009 
L 233.688375 655.826164 
L 245.784728 652.200012 
L 257.881082 648.376059 
L 269.977436 644.368159 
L 282.07379 640.188329 
L 300.218321 633.623695 
L 318.362852 626.738607 
L 336.507383 619.56958 
L 354.651914 612.150214 
L 372.796445 604.511299 
L 396.989153 594.03524 
L 421.181861 583.284321 
L 451.422745 569.546561 
L 487.711807 552.753042 
L 536.097223 530.081914 
L 608.675347 496.052347 
L 651.012585 476.453129 
L 687.301647 459.92095 
L 717.542532 446.368128 
L 747.783417 433.057019 
L 778.024302 420.008073 
L 808.265187 407.235155 
L 832.457895 397.236068 
L 856.650602 387.430524 
L 880.84331 377.826592 
L 905.036018 368.421351 
L 929.228726 359.229532 
L 959.469611 348.037691 
L 983.662319 339.320496 
L 995.758673 335.042689 
L 995.758673 335.042689 
" clip-path="url(#pd6a20084c4)" style="fill: none; stroke: #9467bd; stroke-width: 5; stroke-linecap: round"/>
   </g>
   <g id="line2d_16">
    <path d="M 88.532127 695.513483 
L 94.580304 686.988962 
L 100.628481 682.436331 
L 106.676658 679.997146 
L 112.724835 678.68061 
L 118.773012 677.96582 
L 130.869366 677.150854 
L 142.96572 676.049269 
L 155.062074 674.597258 
L 167.158428 672.81475 
L 179.254782 670.720941 
L 191.351136 668.334346 
L 203.44749 665.672096 
L 215.543844 662.751355 
L 227.640198 659.587367 
L 239.736552 656.19613 
L 251.832905 652.591758 
L 263.929259 648.788578 
L 276.025613 644.799926 
L 288.121967 640.638378 
L 306.266498 634.098431 
L 324.411029 627.235771 
L 342.55556 620.086179 
L 360.700091 612.684498 
L 378.844622 605.060763 
L 403.03733 594.602747 
L 427.230038 583.866145 
L 457.470922 570.142622 
L 493.759984 553.360457 
L 542.1454 530.69575 
L 626.819878 491.037739 
L 663.108939 474.286519 
L 699.398001 457.791651 
L 729.638886 444.27696 
L 759.879771 431.004151 
L 790.120656 417.998744 
L 820.361541 405.277286 
L 850.602425 392.851502 
L 880.84331 380.740474 
L 905.036018 371.279303 
L 929.228726 362.019713 
L 959.469611 350.747768 
L 989.710496 339.807775 
L 995.758673 337.663601 
L 995.758673 337.663601 
" clip-path="url(#pd6a20084c4)" style="fill: none; stroke: #e377c2; stroke-width: 5; stroke-linecap: round"/>
   </g>
   <g id="line2d_17">
    <path d="M 88.532127 705.495517 
L 94.580304 692.291343 
L 100.628481 685.267563 
L 106.676658 681.519183 
L 112.724835 679.503902 
L 118.773012 678.413962 
L 124.821189 677.820949 
L 136.917543 677.006563 
L 149.013897 675.850702 
L 161.110251 674.347499 
L 173.206605 672.516996 
L 185.302959 670.37793 
L 197.399313 667.948713 
L 209.495667 665.246672 
L 221.592021 662.288172 
L 233.688375 659.089294 
L 245.784728 655.665295 
L 257.881082 652.030332 
L 269.977436 648.198757 
L 282.07379 644.183264 
L 294.170144 639.997205 
L 312.314675 633.423335 
L 330.459206 626.530688 
L 348.603737 619.355549 
L 366.748268 611.930121 
L 384.892799 604.28701 
L 409.085507 593.806491 
L 433.278215 583.05215 
L 463.519099 569.3118 
L 499.808161 552.518405 
L 554.241754 527.00479 
L 626.819878 493.014021 
L 663.108939 476.237016 
L 699.398001 459.709586 
L 729.638886 446.163383 
L 759.879771 432.860401 
L 790.120656 419.81901 
L 820.361541 407.051288 
L 844.554248 397.058991 
L 868.746956 387.256467 
L 892.939664 377.657838 
L 917.132372 368.259942 
L 941.32508 359.072457 
L 971.565965 347.887553 
L 995.758673 339.175964 
L 995.758673 339.175964 
" clip-path="url(#pd6a20084c4)" style="fill: none; stroke: #bcbd22; stroke-width: 5; stroke-linecap: round"/>
   </g>
   <g id="line2d_18">
    <path d="M 88.532127 715.58984 
L 94.580304 697.635525 
L 100.628481 688.111702 
L 106.676658 683.04316 
L 112.724835 680.325571 
L 118.773012 678.859787 
L 124.821189 678.064329 
L 142.96572 676.743444 
L 155.062074 675.496435 
L 167.158428 673.907289 
L 179.254782 671.995694 
L 191.351136 669.780631 
L 203.44749 667.279724 
L 215.543844 664.510549 
L 227.640198 661.488809 
L 239.736552 658.230889 
L 251.832905 654.751324 
L 263.929259 651.064785 
L 276.025613 647.184873 
L 288.121967 643.124764 
L 300.218321 638.896721 
L 318.362852 632.265867 
L 336.507383 625.322769 
L 354.651914 618.102762 
L 372.796445 610.638563 
L 390.940976 602.961449 
L 415.133684 592.442405 
L 439.326392 581.65884 
L 469.567276 567.889875 
L 505.856338 551.074845 
L 560.289931 525.552157 
L 626.819878 494.389784 
L 669.157116 474.820167 
L 705.446178 458.316336 
L 735.687063 444.797866 
L 765.927948 431.515378 
L 796.168833 418.500544 
L 826.409718 405.772792 
L 850.602425 395.796056 
L 880.84331 383.609455 
L 911.084195 371.73912 
L 935.276903 362.473083 
L 965.517788 351.189413 
L 995.758673 340.238937 
L 995.758673 340.238937 
" clip-path="url(#pd6a20084c4)" style="fill: none; stroke: #17becf; stroke-width: 5; stroke-linecap: round"/>
   </g>
   <g id="patch_3">
    <path d="M 88.532127 678.237256 
L 88.532127 38.88 
" style="fill: none; stroke: #262626; stroke-width: 0.8; stroke-linejoin: miter; stroke-linecap: square"/>
   </g>
   <g id="patch_4">
    <path d="M 88.532127 678.237256 
L 1041.12 678.237256 
" style="fill: none; stroke: #262626; stroke-width: 0.8; stroke-linejoin: miter; stroke-linecap: square"/>
   </g>
  </g>
 </g>
 <defs>
  <clipPath id="pd6a20084c4">
   <rect x="88.532127" y="38.88" width="952.587873" height="639.357256"/>
  </clipPath>
 </defs>
</svg>
