<?xml version="1.0" encoding="utf-8" standalone="no"?>
<!DOCTYPE svg PUBLIC "-//W3C//DTD SVG 1.1//EN"
  "http://www.w3.org/Graphics/SVG/1.1/DTD/svg11.dtd">
<svg xmlns:xlink="http://www.w3.org/1999/xlink" width="1080pt" height="576pt" viewBox="0 0 1080 576" xmlns="http://www.w3.org/2000/svg" version="1.1">
 <metadata>
  <rdf:RDF xmlns:dc="http://purl.org/dc/elements/1.1/" xmlns:cc="http://creativecommons.org/ns#" xmlns:rdf="http://www.w3.org/1999/02/22-rdf-syntax-ns#">
   <cc:Work>
    <dc:type rdf:resource="http://purl.org/dc/dcmitype/StillImage"/>
    <dc:date>2024-06-28T11:19:16.859318</dc:date>
    <dc:format>image/svg+xml</dc:format>
    <dc:creator>
     <cc:Agent>
      <dc:title>Matplotlib v3.9.0, https://matplotlib.org/</dc:title>
     </cc:Agent>
    </dc:creator>
   </cc:Work>
  </rdf:RDF>
 </metadata>
 <defs>
  <style type="text/css">*{stroke-linejoin: round; stroke-linecap: butt}</style>
 </defs>
 <g id="figure_1">
  <g id="patch_1">
   <path d="M 0 576 
L 1080 576 
L 1080 0 
L 0 0 
z
" style="fill: #ffffff"/>
  </g>
  <g id="axes_1">
   <g id="patch_2">
    <path d="M 51.593955 521.153031 
L 935.517672 521.153031 
L 935.517672 51.564121 
L 51.593955 51.564121 
z
" style="fill: #eaeaf2"/>
   </g>
   <g id="matplotlib.axis_1">
    <g id="xtick_1">
     <g id="line2d_1">
      <path d="M 51.593955 521.153031 
L 51.593955 51.564121 
" clip-path="url(#pd562a40c28)" style="fill: none; stroke: #ffffff; stroke-linecap: round"/>
     </g>
     <g id="line2d_2"/>
     <g id="text_1">
      <!-- $\mathdefault{0.00}$ -->
      <g style="fill: #262626" transform="translate(39.454419 537.838907) scale(0.14 -0.14)">
       <defs>
        <path id="CMR17-30" d="M 2688 2025 
C 2688 2416 2682 3080 2413 3591 
C 2176 4039 1798 4198 1466 4198 
C 1158 4198 768 4058 525 3597 
C 269 3118 243 2524 243 2025 
C 243 1661 250 1106 448 619 
C 723 -39 1216 -128 1466 -128 
C 1760 -128 2208 -7 2470 600 
C 2662 1042 2688 1559 2688 2025 
z
M 1466 -26 
C 1056 -26 813 325 723 812 
C 653 1188 653 1738 653 2096 
C 653 2588 653 2997 736 3387 
C 858 3929 1216 4096 1466 4096 
C 1728 4096 2067 3923 2189 3400 
C 2272 3036 2278 2607 2278 2096 
C 2278 1680 2278 1169 2202 792 
C 2067 95 1690 -26 1466 -26 
z
" transform="scale(0.015625)"/>
        <path id="CMMI12-3a" d="M 1178 307 
C 1178 492 1024 619 870 619 
C 685 619 557 466 557 313 
C 557 128 710 0 864 0 
C 1050 0 1178 153 1178 307 
z
" transform="scale(0.015625)"/>
       </defs>
       <use xlink:href="#CMR17-30" transform="scale(0.996264)"/>
       <use xlink:href="#CMMI12-3a" transform="translate(45.690477 0) scale(0.996264)"/>
       <use xlink:href="#CMR17-30" transform="translate(72.787654 0) scale(0.996264)"/>
       <use xlink:href="#CMR17-30" transform="translate(118.478131 0) scale(0.996264)"/>
      </g>
     </g>
    </g>
    <g id="xtick_2">
     <g id="line2d_3">
      <path d="M 156.822968 521.153031 
L 156.822968 51.564121 
" clip-path="url(#pd562a40c28)" style="fill: none; stroke: #ffffff; stroke-linecap: round"/>
     </g>
     <g id="line2d_4"/>
     <g id="text_2">
      <!-- $\mathdefault{0.25}$ -->
      <g style="fill: #262626" transform="translate(144.683433 537.838907) scale(0.14 -0.14)">
       <defs>
        <path id="CMR17-32" d="M 2669 989 
L 2554 989 
C 2490 536 2438 459 2413 420 
C 2381 369 1920 369 1830 369 
L 602 369 
C 832 619 1280 1072 1824 1597 
C 2214 1967 2669 2402 2669 3035 
C 2669 3790 2067 4224 1395 4224 
C 691 4224 262 3604 262 3030 
C 262 2780 448 2748 525 2748 
C 589 2748 781 2787 781 3010 
C 781 3207 614 3264 525 3264 
C 486 3264 448 3258 422 3245 
C 544 3790 915 4058 1306 4058 
C 1862 4058 2227 3617 2227 3035 
C 2227 2479 1901 2000 1536 1584 
L 262 146 
L 262 0 
L 2515 0 
L 2669 989 
z
" transform="scale(0.015625)"/>
        <path id="CMR17-35" d="M 730 3692 
C 794 3666 1056 3584 1325 3584 
C 1920 3584 2246 3911 2432 4100 
C 2432 4157 2432 4192 2394 4192 
C 2387 4192 2374 4192 2323 4163 
C 2099 4058 1837 3973 1517 3973 
C 1325 3973 1037 3999 723 4139 
C 653 4171 640 4171 634 4171 
C 602 4171 595 4164 595 4037 
L 595 2203 
C 595 2089 595 2057 659 2057 
C 691 2057 704 2070 736 2114 
C 941 2401 1222 2522 1542 2522 
C 1766 2522 2246 2382 2246 1289 
C 2246 1085 2246 715 2054 421 
C 1894 159 1645 25 1370 25 
C 947 25 518 320 403 814 
C 429 807 480 795 506 795 
C 589 795 749 840 749 1038 
C 749 1210 627 1280 506 1280 
C 358 1280 262 1190 262 1011 
C 262 454 704 -128 1382 -128 
C 2042 -128 2669 440 2669 1264 
C 2669 2030 2170 2624 1549 2624 
C 1222 2624 947 2503 730 2274 
L 730 3692 
z
" transform="scale(0.015625)"/>
       </defs>
       <use xlink:href="#CMR17-30" transform="scale(0.996264)"/>
       <use xlink:href="#CMMI12-3a" transform="translate(45.690477 0) scale(0.996264)"/>
       <use xlink:href="#CMR17-32" transform="translate(72.787654 0) scale(0.996264)"/>
       <use xlink:href="#CMR17-35" transform="translate(118.478131 0) scale(0.996264)"/>
      </g>
     </g>
    </g>
    <g id="xtick_3">
     <g id="line2d_5">
      <path d="M 262.051982 521.153031 
L 262.051982 51.564121 
" clip-path="url(#pd562a40c28)" style="fill: none; stroke: #ffffff; stroke-linecap: round"/>
     </g>
     <g id="line2d_6"/>
     <g id="text_3">
      <!-- $\mathdefault{0.50}$ -->
      <g style="fill: #262626" transform="translate(249.912447 537.838907) scale(0.14 -0.14)">
       <use xlink:href="#CMR17-30" transform="scale(0.996264)"/>
       <use xlink:href="#CMMI12-3a" transform="translate(45.690477 0) scale(0.996264)"/>
       <use xlink:href="#CMR17-35" transform="translate(72.787654 0) scale(0.996264)"/>
       <use xlink:href="#CMR17-30" transform="translate(118.478131 0) scale(0.996264)"/>
      </g>
     </g>
    </g>
    <g id="xtick_4">
     <g id="line2d_7">
      <path d="M 367.280996 521.153031 
L 367.280996 51.564121 
" clip-path="url(#pd562a40c28)" style="fill: none; stroke: #ffffff; stroke-linecap: round"/>
     </g>
     <g id="line2d_8"/>
     <g id="text_4">
      <!-- $\mathdefault{0.75}$ -->
      <g style="fill: #262626" transform="translate(355.141461 537.838907) scale(0.14 -0.14)">
       <defs>
        <path id="CMR17-37" d="M 2886 3941 
L 2886 4081 
L 1382 4081 
C 634 4081 621 4165 595 4288 
L 480 4288 
L 294 3094 
L 410 3094 
C 429 3215 474 3540 550 3661 
C 589 3712 1062 3712 1171 3712 
L 2579 3712 
L 1869 2661 
C 1395 1954 1069 999 1069 165 
C 1069 89 1069 -128 1299 -128 
C 1530 -128 1530 89 1530 171 
L 1530 465 
C 1530 1508 1709 2196 2003 2636 
L 2886 3941 
z
" transform="scale(0.015625)"/>
       </defs>
       <use xlink:href="#CMR17-30" transform="scale(0.996264)"/>
       <use xlink:href="#CMMI12-3a" transform="translate(45.690477 0) scale(0.996264)"/>
       <use xlink:href="#CMR17-37" transform="translate(72.787654 0) scale(0.996264)"/>
       <use xlink:href="#CMR17-35" transform="translate(118.478131 0) scale(0.996264)"/>
      </g>
     </g>
    </g>
    <g id="xtick_5">
     <g id="line2d_9">
      <path d="M 472.51001 521.153031 
L 472.51001 51.564121 
" clip-path="url(#pd562a40c28)" style="fill: none; stroke: #ffffff; stroke-linecap: round"/>
     </g>
     <g id="line2d_10"/>
     <g id="text_5">
      <!-- $\mathdefault{1.00}$ -->
      <g style="fill: #262626" transform="translate(460.370475 537.838907) scale(0.14 -0.14)">
       <defs>
        <path id="CMR17-31" d="M 1702 4058 
C 1702 4192 1696 4192 1606 4192 
C 1357 3916 979 3827 621 3827 
C 602 3827 570 3827 563 3808 
C 557 3795 557 3782 557 3648 
C 755 3648 1088 3686 1344 3839 
L 1344 461 
C 1344 236 1331 160 781 160 
L 589 160 
L 589 0 
C 896 0 1216 0 1523 0 
C 1830 0 2150 0 2458 0 
L 2458 160 
L 2266 160 
C 1715 160 1702 230 1702 458 
L 1702 4058 
z
" transform="scale(0.015625)"/>
       </defs>
       <use xlink:href="#CMR17-31" transform="scale(0.996264)"/>
       <use xlink:href="#CMMI12-3a" transform="translate(45.690477 0) scale(0.996264)"/>
       <use xlink:href="#CMR17-30" transform="translate(72.787654 0) scale(0.996264)"/>
       <use xlink:href="#CMR17-30" transform="translate(118.478131 0) scale(0.996264)"/>
      </g>
     </g>
    </g>
    <g id="xtick_6">
     <g id="line2d_11">
      <path d="M 577.739024 521.153031 
L 577.739024 51.564121 
" clip-path="url(#pd562a40c28)" style="fill: none; stroke: #ffffff; stroke-linecap: round"/>
     </g>
     <g id="line2d_12"/>
     <g id="text_6">
      <!-- $\mathdefault{1.25}$ -->
      <g style="fill: #262626" transform="translate(565.599489 537.838907) scale(0.14 -0.14)">
       <use xlink:href="#CMR17-31" transform="scale(0.996264)"/>
       <use xlink:href="#CMMI12-3a" transform="translate(45.690477 0) scale(0.996264)"/>
       <use xlink:href="#CMR17-32" transform="translate(72.787654 0) scale(0.996264)"/>
       <use xlink:href="#CMR17-35" transform="translate(118.478131 0) scale(0.996264)"/>
      </g>
     </g>
    </g>
    <g id="xtick_7">
     <g id="line2d_13">
      <path d="M 682.968038 521.153031 
L 682.968038 51.564121 
" clip-path="url(#pd562a40c28)" style="fill: none; stroke: #ffffff; stroke-linecap: round"/>
     </g>
     <g id="line2d_14"/>
     <g id="text_7">
      <!-- $\mathdefault{1.50}$ -->
      <g style="fill: #262626" transform="translate(670.828503 537.838907) scale(0.14 -0.14)">
       <use xlink:href="#CMR17-31" transform="scale(0.996264)"/>
       <use xlink:href="#CMMI12-3a" transform="translate(45.690477 0) scale(0.996264)"/>
       <use xlink:href="#CMR17-35" transform="translate(72.787654 0) scale(0.996264)"/>
       <use xlink:href="#CMR17-30" transform="translate(118.478131 0) scale(0.996264)"/>
      </g>
     </g>
    </g>
    <g id="xtick_8">
     <g id="line2d_15">
      <path d="M 788.197052 521.153031 
L 788.197052 51.564121 
" clip-path="url(#pd562a40c28)" style="fill: none; stroke: #ffffff; stroke-linecap: round"/>
     </g>
     <g id="line2d_16"/>
     <g id="text_8">
      <!-- $\mathdefault{1.75}$ -->
      <g style="fill: #262626" transform="translate(776.057517 537.838907) scale(0.14 -0.14)">
       <use xlink:href="#CMR17-31" transform="scale(0.996264)"/>
       <use xlink:href="#CMMI12-3a" transform="translate(45.690477 0) scale(0.996264)"/>
       <use xlink:href="#CMR17-37" transform="translate(72.787654 0) scale(0.996264)"/>
       <use xlink:href="#CMR17-35" transform="translate(118.478131 0) scale(0.996264)"/>
      </g>
     </g>
    </g>
    <g id="xtick_9">
     <g id="line2d_17">
      <path d="M 893.426066 521.153031 
L 893.426066 51.564121 
" clip-path="url(#pd562a40c28)" style="fill: none; stroke: #ffffff; stroke-linecap: round"/>
     </g>
     <g id="line2d_18"/>
     <g id="text_9">
      <!-- $\mathdefault{2.00}$ -->
      <g style="fill: #262626" transform="translate(881.286531 537.838907) scale(0.14 -0.14)">
       <use xlink:href="#CMR17-32" transform="scale(0.996264)"/>
       <use xlink:href="#CMMI12-3a" transform="translate(45.690477 0) scale(0.996264)"/>
       <use xlink:href="#CMR17-30" transform="translate(72.787654 0) scale(0.996264)"/>
       <use xlink:href="#CMR17-30" transform="translate(118.478131 0) scale(0.996264)"/>
      </g>
     </g>
    </g>
    <g id="text_10">
     <!-- $x$ -->
     <g style="fill: #262626" transform="translate(489.121088 555.620524) scale(0.16 -0.16)">
      <defs>
       <path id="CMMI12-78" d="M 3034 2606 
C 2829 2567 2752 2414 2752 2293 
C 2752 2139 2874 2088 2963 2088 
C 3155 2088 3290 2254 3290 2427 
C 3290 2695 2982 2816 2714 2816 
C 2323 2816 2106 2433 2048 2312 
C 1901 2816 1504 2816 1389 2816 
C 736 2816 390 1980 390 1839 
C 390 1814 416 1782 461 1782 
C 512 1782 525 1820 538 1846 
C 755 2555 1184 2689 1370 2689 
C 1658 2689 1715 2420 1715 2267 
C 1715 2127 1677 1980 1600 1673 
L 1382 798 
C 1286 415 1101 64 762 64 
C 730 64 570 64 435 147 
C 666 192 717 383 717 460 
C 717 588 621 664 499 664 
C 346 664 179 530 179 326 
C 179 57 480 -64 755 -64 
C 1062 -64 1280 179 1414 441 
C 1517 64 1837 -64 2074 -64 
C 2726 -64 3072 773 3072 913 
C 3072 945 3046 971 3008 971 
C 2950 971 2944 939 2925 888 
C 2752 326 2381 64 2093 64 
C 1869 64 1747 230 1747 492 
C 1747 632 1773 734 1875 1156 
L 2099 2024 
C 2195 2408 2413 2689 2707 2689 
C 2720 2689 2899 2689 3034 2606 
z
" transform="scale(0.015625)"/>
      </defs>
      <use xlink:href="#CMMI12-78" transform="scale(0.996264)"/>
     </g>
    </g>
   </g>
   <g id="matplotlib.axis_2">
    <g id="ytick_1">
     <g id="line2d_19">
      <path d="M 51.593955 521.153031 
L 935.517672 521.153031 
" clip-path="url(#pd562a40c28)" style="fill: none; stroke: #ffffff; stroke-linecap: round"/>
     </g>
     <g id="line2d_20"/>
     <g id="text_11">
      <!-- $\mathdefault{0}$ -->
      <g style="fill: #262626" transform="translate(37.765466 525.995969) scale(0.14 -0.14)">
       <use xlink:href="#CMR17-30" transform="scale(0.996264)"/>
      </g>
     </g>
    </g>
    <g id="ytick_2">
     <g id="line2d_21">
      <path d="M 51.593955 459.046493 
L 935.517672 459.046493 
" clip-path="url(#pd562a40c28)" style="fill: none; stroke: #ffffff; stroke-linecap: round"/>
     </g>
     <g id="line2d_22"/>
     <g id="text_12">
      <!-- $\mathdefault{250}$ -->
      <g style="fill: #262626" transform="translate(24.108489 463.889431) scale(0.14 -0.14)">
       <use xlink:href="#CMR17-32" transform="scale(0.996264)"/>
       <use xlink:href="#CMR17-35" transform="translate(45.690477 0) scale(0.996264)"/>
       <use xlink:href="#CMR17-30" transform="translate(91.380954 0) scale(0.996264)"/>
      </g>
     </g>
    </g>
    <g id="ytick_3">
     <g id="line2d_23">
      <path d="M 51.593955 396.939956 
L 935.517672 396.939956 
" clip-path="url(#pd562a40c28)" style="fill: none; stroke: #ffffff; stroke-linecap: round"/>
     </g>
     <g id="line2d_24"/>
     <g id="text_13">
      <!-- $\mathdefault{500}$ -->
      <g style="fill: #262626" transform="translate(24.108489 401.782894) scale(0.14 -0.14)">
       <use xlink:href="#CMR17-35" transform="scale(0.996264)"/>
       <use xlink:href="#CMR17-30" transform="translate(45.690477 0) scale(0.996264)"/>
       <use xlink:href="#CMR17-30" transform="translate(91.380954 0) scale(0.996264)"/>
      </g>
     </g>
    </g>
    <g id="ytick_4">
     <g id="line2d_25">
      <path d="M 51.593955 334.833418 
L 935.517672 334.833418 
" clip-path="url(#pd562a40c28)" style="fill: none; stroke: #ffffff; stroke-linecap: round"/>
     </g>
     <g id="line2d_26"/>
     <g id="text_14">
      <!-- $\mathdefault{750}$ -->
      <g style="fill: #262626" transform="translate(24.108489 339.676356) scale(0.14 -0.14)">
       <use xlink:href="#CMR17-37" transform="scale(0.996264)"/>
       <use xlink:href="#CMR17-35" transform="translate(45.690477 0) scale(0.996264)"/>
       <use xlink:href="#CMR17-30" transform="translate(91.380954 0) scale(0.996264)"/>
      </g>
     </g>
    </g>
    <g id="ytick_5">
     <g id="line2d_27">
      <path d="M 51.593955 272.726881 
L 935.517672 272.726881 
" clip-path="url(#pd562a40c28)" style="fill: none; stroke: #ffffff; stroke-linecap: round"/>
     </g>
     <g id="line2d_28"/>
     <g id="text_15">
      <!-- $\mathdefault{1000}$ -->
      <g style="fill: #262626" transform="translate(17.28 277.569819) scale(0.14 -0.14)">
       <use xlink:href="#CMR17-31" transform="scale(0.996264)"/>
       <use xlink:href="#CMR17-30" transform="translate(45.690477 0) scale(0.996264)"/>
       <use xlink:href="#CMR17-30" transform="translate(91.380954 0) scale(0.996264)"/>
       <use xlink:href="#CMR17-30" transform="translate(137.071431 0) scale(0.996264)"/>
      </g>
     </g>
    </g>
    <g id="ytick_6">
     <g id="line2d_29">
      <path d="M 51.593955 210.620343 
L 935.517672 210.620343 
" clip-path="url(#pd562a40c28)" style="fill: none; stroke: #ffffff; stroke-linecap: round"/>
     </g>
     <g id="line2d_30"/>
     <g id="text_16">
      <!-- $\mathdefault{1250}$ -->
      <g style="fill: #262626" transform="translate(17.28 215.463281) scale(0.14 -0.14)">
       <use xlink:href="#CMR17-31" transform="scale(0.996264)"/>
       <use xlink:href="#CMR17-32" transform="translate(45.690477 0) scale(0.996264)"/>
       <use xlink:href="#CMR17-35" transform="translate(91.380954 0) scale(0.996264)"/>
       <use xlink:href="#CMR17-30" transform="translate(137.071431 0) scale(0.996264)"/>
      </g>
     </g>
    </g>
    <g id="ytick_7">
     <g id="line2d_31">
      <path d="M 51.593955 148.513806 
L 935.517672 148.513806 
" clip-path="url(#pd562a40c28)" style="fill: none; stroke: #ffffff; stroke-linecap: round"/>
     </g>
     <g id="line2d_32"/>
     <g id="text_17">
      <!-- $\mathdefault{1500}$ -->
      <g style="fill: #262626" transform="translate(17.28 153.356744) scale(0.14 -0.14)">
       <use xlink:href="#CMR17-31" transform="scale(0.996264)"/>
       <use xlink:href="#CMR17-35" transform="translate(45.690477 0) scale(0.996264)"/>
       <use xlink:href="#CMR17-30" transform="translate(91.380954 0) scale(0.996264)"/>
       <use xlink:href="#CMR17-30" transform="translate(137.071431 0) scale(0.996264)"/>
      </g>
     </g>
    </g>
    <g id="ytick_8">
     <g id="line2d_33">
      <path d="M 51.593955 86.407268 
L 935.517672 86.407268 
" clip-path="url(#pd562a40c28)" style="fill: none; stroke: #ffffff; stroke-linecap: round"/>
     </g>
     <g id="line2d_34"/>
     <g id="text_18">
      <!-- $\mathdefault{1750}$ -->
      <g style="fill: #262626" transform="translate(17.28 91.250206) scale(0.14 -0.14)">
       <use xlink:href="#CMR17-31" transform="scale(0.996264)"/>
       <use xlink:href="#CMR17-37" transform="translate(45.690477 0) scale(0.996264)"/>
       <use xlink:href="#CMR17-35" transform="translate(91.380954 0) scale(0.996264)"/>
       <use xlink:href="#CMR17-30" transform="translate(137.071431 0) scale(0.996264)"/>
      </g>
     </g>
    </g>
   </g>
   <g id="line2d_35">
    <path d="M 51.593955 519.904082 
L 60.012276 519.91355 
L 68.430597 519.922945 
L 76.848918 519.932269 
L 85.267239 519.941521 
L 93.68556 519.950701 
L 102.103881 519.959812 
L 110.522202 519.968852 
L 118.940523 519.977824 
L 127.358845 519.986726 
L 135.777166 519.995561 
L 144.195487 520.004327 
L 152.613808 520.013027 
L 161.032129 520.02166 
L 169.45045 520.030226 
L 177.868771 520.038727 
L 186.287092 520.047163 
L 194.705413 520.055535 
L 203.123735 520.063842 
L 211.542056 520.072086 
L 219.960377 520.080267 
L 228.378698 520.088385 
L 236.797019 520.096441 
L 245.21534 520.104436 
L 253.633661 520.11237 
L 262.051982 520.120243 
L 270.470304 520.128055 
L 278.888625 520.135808 
L 287.306946 520.143502 
L 295.725267 520.151138 
L 304.143588 520.158714 
L 312.561909 520.166234 
L 320.98023 520.173695 
L 329.398551 520.1811 
L 337.816872 520.188448 
L 346.235194 520.19574 
L 354.653515 520.202977 
L 363.071836 520.210158 
L 371.490157 520.217285 
L 379.908478 520.224358 
L 388.326799 520.231376 
L 396.74512 520.238341 
L 405.163441 520.245253 
L 413.581763 520.252112 
L 422.000084 520.258919 
L 430.418405 520.265675 
L 438.836726 520.272378 
L 447.255047 520.279031 
L 455.673368 520.285633 
L 464.091689 520.292185 
L 472.51001 520.298687 
L 480.928331 520.30514 
L 489.346653 520.311543 
L 497.764974 520.317898 
L 506.183295 520.324204 
L 514.601616 520.330463 
L 523.019937 520.336674 
L 531.438258 520.342838 
L 539.856579 520.348954 
L 548.2749 520.355025 
L 556.693222 520.361049 
L 565.111543 520.367028 
L 573.529864 520.372961 
L 581.948185 520.378849 
L 590.366506 520.384692 
L 598.784827 520.390491 
L 607.203148 520.396246 
L 615.621469 520.401958 
L 624.03979 520.407625 
L 632.458112 520.41325 
L 640.876433 520.418833 
L 649.294754 520.424372 
L 657.713075 520.42987 
L 666.131396 520.435326 
L 674.549717 520.440741 
L 682.968038 520.446115 
L 691.386359 520.451448 
L 699.804681 520.45674 
L 708.223002 520.461993 
L 716.641323 520.467205 
L 725.059644 520.472378 
L 733.477965 520.477512 
L 741.896286 520.482607 
L 750.314607 520.487664 
L 758.732928 520.492682 
L 767.151249 520.497662 
L 775.569571 520.502604 
L 783.987892 520.507509 
L 792.406213 520.512377 
L 800.824534 520.517208 
L 809.242855 520.522002 
L 817.661176 520.52676 
L 826.079497 520.531482 
L 834.497818 520.536168 
L 842.91614 520.540819 
L 851.334461 520.545435 
L 859.752782 520.550016 
L 868.171103 520.554562 
L 876.589424 520.559073 
L 885.007745 520.563551 
L 893.426066 520.567994 
" clip-path="url(#pd562a40c28)" style="fill: none; stroke: #393b79; stroke-width: 2; stroke-linecap: round"/>
   </g>
   <g id="line2d_36">
    <path d="M 51.593955 508.090875 
L 60.012276 508.199142 
L 68.430597 508.306374 
L 76.848918 508.412585 
L 85.267239 508.517788 
L 93.68556 508.621988 
L 102.103881 508.725203 
L 110.522202 508.827439 
L 118.940523 508.928714 
L 127.358845 509.029036 
L 135.777166 509.128414 
L 144.195487 509.22686 
L 152.613808 509.324385 
L 161.032129 509.420999 
L 169.45045 509.516712 
L 177.868771 509.611539 
L 186.287092 509.705481 
L 194.705413 509.79856 
L 203.123735 509.890772 
L 211.542056 509.982135 
L 219.960377 510.072656 
L 228.378698 510.162347 
L 236.797019 510.251214 
L 245.21534 510.339269 
L 253.633661 510.426519 
L 262.051982 510.512973 
L 270.470304 510.598639 
L 278.888625 510.68353 
L 287.306946 510.767648 
L 295.725267 510.851007 
L 304.143588 510.93361 
L 312.561909 511.015468 
L 320.98023 511.096589 
L 329.398551 511.176983 
L 337.816872 511.256656 
L 346.235194 511.335614 
L 354.653515 511.413866 
L 363.071836 511.49142 
L 371.490157 511.568283 
L 379.908478 511.644461 
L 388.326799 511.719963 
L 396.74512 511.794797 
L 405.163441 511.868967 
L 413.581763 511.942483 
L 422.000084 512.015352 
L 430.418405 512.087577 
L 438.836726 512.159167 
L 447.255047 512.230129 
L 455.673368 512.300468 
L 464.091689 512.370193 
L 472.51001 512.439308 
L 480.928331 512.50782 
L 489.346653 512.575735 
L 497.764974 512.643061 
L 506.183295 512.7098 
L 514.601616 512.77596 
L 523.019937 512.84155 
L 531.438258 512.906572 
L 539.856579 512.971033 
L 548.2749 513.034938 
L 556.693222 513.098293 
L 565.111543 513.161103 
L 573.529864 513.223375 
L 581.948185 513.285113 
L 590.366506 513.346323 
L 598.784827 513.407009 
L 607.203148 513.467179 
L 615.621469 513.526834 
L 624.03979 513.585983 
L 632.458112 513.644628 
L 640.876433 513.702776 
L 649.294754 513.760431 
L 657.713075 513.817597 
L 666.131396 513.874282 
L 674.549717 513.930488 
L 682.968038 513.986221 
L 691.386359 514.041483 
L 699.804681 514.096281 
L 708.223002 514.150619 
L 716.641323 514.204501 
L 725.059644 514.257932 
L 733.477965 514.310915 
L 741.896286 514.363456 
L 750.314607 514.415558 
L 758.732928 514.467227 
L 767.151249 514.518465 
L 775.569571 514.569277 
L 783.987892 514.619668 
L 792.406213 514.66964 
L 800.824534 514.719199 
L 809.242855 514.768348 
L 817.661176 514.81709 
L 826.079497 514.865428 
L 834.497818 514.91337 
L 842.91614 514.960916 
L 851.334461 515.008071 
L 859.752782 515.054839 
L 868.171103 515.101222 
L 876.589424 515.147226 
L 885.007745 515.192852 
L 893.426066 515.238105 
" clip-path="url(#pd562a40c28)" style="fill: none; stroke: #8ca252; stroke-width: 2; stroke-linecap: round"/>
   </g>
   <g id="line2d_37">
    <path d="M 51.593955 440.531061 
L 60.012276 441.722332 
L 68.430597 442.886909 
L 76.848918 444.025672 
L 85.267239 445.13942 
L 93.68556 446.228947 
L 102.103881 447.295025 
L 110.522202 448.338338 
L 118.940523 449.359623 
L 127.358845 450.359545 
L 135.777166 451.338711 
L 144.195487 452.297758 
L 152.613808 453.23728 
L 161.032129 454.157828 
L 169.45045 455.05997 
L 177.868771 455.944229 
L 186.287092 456.81109 
L 194.705413 457.661065 
L 203.123735 458.494599 
L 211.542056 459.312159 
L 219.960377 460.114183 
L 228.378698 460.901084 
L 236.797019 461.673278 
L 245.21534 462.431136 
L 253.633661 463.175056 
L 262.051982 463.905381 
L 270.470304 464.62247 
L 278.888625 465.326672 
L 287.306946 466.018304 
L 295.725267 466.697698 
L 304.143588 467.365134 
L 312.561909 468.020923 
L 320.98023 468.665353 
L 329.398551 469.298706 
L 337.816872 469.921243 
L 346.235194 470.533231 
L 354.653515 471.134901 
L 363.071836 471.726521 
L 371.490157 472.308315 
L 379.908478 472.880513 
L 388.326799 473.443333 
L 396.74512 473.997004 
L 405.163441 474.541721 
L 413.581763 475.077693 
L 422.000084 475.605112 
L 430.418405 476.124175 
L 438.836726 476.635056 
L 447.255047 477.137941 
L 455.673368 477.632998 
L 464.091689 478.120414 
L 472.51001 478.600329 
L 480.928331 479.072921 
L 489.346653 479.538346 
L 497.764974 479.996738 
L 506.183295 480.448256 
L 514.601616 480.893041 
L 523.019937 481.331235 
L 531.438258 481.762971 
L 539.856579 482.188376 
L 548.2749 482.607578 
L 556.693222 483.020714 
L 565.111543 483.427888 
L 573.529864 483.829225 
L 581.948185 484.224852 
L 590.366506 484.614854 
L 598.784827 484.999366 
L 607.203148 485.378482 
L 615.621469 485.752307 
L 624.03979 486.120948 
L 632.458112 486.484488 
L 640.876433 486.843042 
L 649.294754 487.196692 
L 657.713075 487.545531 
L 666.131396 487.889652 
L 674.549717 488.229137 
L 682.968038 488.564075 
L 691.386359 488.894547 
L 699.804681 489.220632 
L 708.223002 489.542413 
L 716.641323 489.859963 
L 725.059644 490.173357 
L 733.477965 490.482674 
L 741.896286 490.787978 
L 750.314607 491.089343 
L 758.732928 491.386841 
L 767.151249 491.680535 
L 775.569571 491.970487 
L 783.987892 492.256772 
L 792.406213 492.539443 
L 800.824534 492.818561 
L 809.242855 493.094193 
L 817.661176 493.366389 
L 826.079497 493.63521 
L 834.497818 493.900713 
L 842.91614 494.162951 
L 851.334461 494.421977 
L 859.752782 494.677849 
L 868.171103 494.93061 
L 876.589424 495.180315 
L 885.007745 495.427012 
L 893.426066 495.670749 
" clip-path="url(#pd562a40c28)" style="fill: none; stroke: #e7ba52; stroke-width: 2; stroke-linecap: round"/>
   </g>
   <g id="line2d_38">
    <path d="M 51.593955 305.438503 
L 60.012276 311.382356 
L 68.430597 317.045876 
L 76.848918 322.448383 
L 85.267239 327.607306 
L 93.68556 332.538665 
L 102.103881 337.25712 
L 110.522202 341.775935 
L 118.940523 346.107541 
L 127.358845 350.263227 
L 135.777166 354.253314 
L 144.195487 358.087462 
L 152.613808 361.774562 
L 161.032129 365.322778 
L 169.45045 368.73979 
L 177.868771 372.032658 
L 186.287092 375.207895 
L 194.705413 378.271674 
L 203.123735 381.229643 
L 211.542056 384.087149 
L 219.960377 386.849169 
L 228.378698 389.520325 
L 236.797019 392.104998 
L 245.21534 394.60721 
L 253.633661 397.03084 
L 262.051982 399.379418 
L 270.470304 401.656346 
L 278.888625 403.864824 
L 287.306946 406.007808 
L 295.725267 408.088159 
L 304.143588 410.108476 
L 312.561909 412.071305 
L 320.98023 413.979017 
L 329.398551 415.833871 
L 337.816872 417.637971 
L 346.235194 419.393352 
L 354.653515 421.101871 
L 363.071836 422.76539 
L 371.490157 424.385598 
L 379.908478 425.964131 
L 388.326799 427.502534 
L 396.74512 429.002308 
L 405.163441 430.464826 
L 413.581763 431.891438 
L 422.000084 433.28341 
L 430.418405 434.641967 
L 438.836726 435.968246 
L 447.255047 437.263364 
L 455.673368 438.528364 
L 464.091689 439.764289 
L 472.51001 440.972052 
L 480.928331 442.152614 
L 489.346653 443.306852 
L 497.764974 444.435584 
L 506.183295 445.539638 
L 514.601616 446.619783 
L 523.019937 447.676772 
L 531.438258 448.711311 
L 539.856579 449.724077 
L 548.2749 450.715722 
L 556.693222 451.686902 
L 565.111543 452.638192 
L 573.529864 453.570181 
L 581.948185 454.483452 
L 590.366506 455.378497 
L 598.784827 456.255878 
L 607.203148 457.116068 
L 615.621469 457.959553 
L 624.03979 458.786804 
L 632.458112 459.598239 
L 640.876433 460.39432 
L 649.294754 461.17544 
L 657.713075 461.941999 
L 666.131396 462.694394 
L 674.549717 463.432985 
L 682.968038 464.158136 
L 691.386359 464.870192 
L 699.804681 465.569484 
L 708.223002 466.256343 
L 716.641323 466.931075 
L 725.059644 467.593979 
L 733.477965 468.245361 
L 741.896286 468.885488 
L 750.314607 469.51464 
L 758.732928 470.133087 
L 767.151249 470.741082 
L 775.569571 471.338865 
L 783.987892 471.926695 
L 792.406213 472.504787 
L 800.824534 473.073373 
L 809.242855 473.632677 
L 817.661176 474.182904 
L 826.079497 474.72426 
L 834.497818 475.256949 
L 842.91614 475.781165 
L 851.334461 476.297091 
L 859.752782 476.804919 
L 868.171103 477.304815 
L 876.589424 477.796958 
L 885.007745 478.281514 
L 893.426066 478.758646 
" clip-path="url(#pd562a40c28)" style="fill: none; stroke: #e7969c; stroke-width: 2; stroke-linecap: round"/>
   </g>
   <g id="line2d_39">
    <path d="M 51.593955 73.897639 
L 60.012276 95.676924 
L 68.430597 115.565956 
L 76.848918 133.800461 
L 85.267239 150.577935 
L 93.68556 166.066071 
L 102.103881 180.407795 
L 110.522202 193.725154 
L 118.940523 206.124211 
L 127.358845 217.696405 
L 135.777166 228.521343 
L 144.195487 238.66904 
L 152.613808 248.200844 
L 161.032129 257.170965 
L 169.45045 265.627434 
L 177.868771 273.612991 
L 186.287092 281.165641 
L 194.705413 288.319539 
L 203.123735 295.105248 
L 211.542056 301.550325 
L 219.960377 307.679666 
L 228.378698 313.515772 
L 236.797019 319.079103 
L 245.21534 324.388141 
L 253.633661 329.459847 
L 262.051982 334.309641 
L 270.470304 338.951659 
L 278.888625 343.398915 
L 287.306946 347.663257 
L 295.725267 351.755719 
L 304.143588 355.686291 
L 312.561909 359.464359 
L 320.98023 363.098516 
L 329.398551 366.596784 
L 337.816872 369.966545 
L 346.235194 373.214685 
L 354.653515 376.347543 
L 363.071836 379.371128 
L 371.490157 382.290973 
L 379.908478 385.11225 
L 388.326799 387.83979 
L 396.74512 390.478187 
L 405.163441 393.031618 
L 413.581763 395.504078 
L 422.000084 397.899296 
L 430.418405 400.220797 
L 438.836726 402.47185 
L 447.255047 404.655584 
L 455.673368 406.774893 
L 464.091689 408.832593 
L 472.51001 410.831217 
L 480.928331 412.773274 
L 489.346653 414.661084 
L 497.764974 416.496797 
L 506.183295 418.282551 
L 514.601616 420.020281 
L 523.019937 421.711876 
L 531.438258 423.35912 
L 539.856579 424.963666 
L 548.2749 426.527121 
L 556.693222 428.051034 
L 565.111543 429.536814 
L 573.529864 430.985852 
L 581.948185 432.399491 
L 590.366506 433.778919 
L 598.784827 435.125382 
L 607.203148 436.439993 
L 615.621469 437.723838 
L 624.03979 438.977972 
L 632.458112 440.203346 
L 640.876433 441.400955 
L 649.294754 442.571669 
L 657.713075 443.716368 
L 666.131396 444.835898 
L 674.549717 445.931031 
L 682.968038 447.002542 
L 691.386359 448.051154 
L 699.804681 449.077571 
L 708.223002 450.082473 
L 716.641323 451.066495 
L 725.059644 452.030259 
L 733.477965 452.974374 
L 741.896286 453.899396 
L 750.314607 454.805882 
L 758.732928 455.694366 
L 767.151249 456.565356 
L 775.569571 457.419335 
L 783.987892 458.256798 
L 792.406213 459.078179 
L 800.824534 459.883917 
L 809.242855 460.674454 
L 817.661176 461.450178 
L 826.079497 462.211486 
L 834.497818 462.958768 
L 842.91614 463.692386 
L 851.334461 464.412685 
L 859.752782 465.120021 
L 868.171103 465.814711 
L 876.589424 466.497086 
L 885.007745 467.167448 
L 893.426066 467.826098 
" clip-path="url(#pd562a40c28)" style="fill: none; stroke: #de9ed6; stroke-width: 2; stroke-linecap: round"/>
   </g>
   <g id="patch_3">
    <path d="M 51.593955 521.153031 
L 51.593955 51.564121 
" style="fill: none"/>
   </g>
   <g id="patch_4">
    <path d="M 935.517672 521.153031 
L 935.517672 51.564121 
" style="fill: none"/>
   </g>
   <g id="patch_5">
    <path d="M 51.593955 521.153031 
L 935.517672 521.153031 
" style="fill: none"/>
   </g>
   <g id="patch_6">
    <path d="M 51.593955 51.564121 
L 935.517672 51.564121 
" style="fill: none"/>
   </g>
   <g id="patch_7">
    <path d="M 472.51001 518.30236 
Q 472.51001 465.561818 472.51001 414.498327 
" style="fill: none; stroke: #000000; stroke-width: 1.5; stroke-linecap: round"/>
    <path d="M 469.31001 420.898327 
L 472.51001 414.498327 
L 475.71001 420.898327 
" style="fill: none; stroke: #000000; stroke-width: 1.5; stroke-linecap: round"/>
   </g>
   <g id="text_19">
    <!-- Time -->
    <g style="fill: #262626" transform="translate(493.555813 407.3357) scale(0.18 -0.18)">
     <defs>
      <path id="CMR17-54" d="M 3981 4326 
L 288 4326 
L 179 2918 
L 294 2918 
C 378 3976 467 4160 1453 4160 
C 1568 4160 1754 4160 1805 4154 
C 1926 4135 1926 4058 1926 3912 
L 1926 459 
C 1926 230 1907 160 1376 160 
L 1197 160 
L 1197 0 
C 1504 0 1824 0 2138 0 
C 2451 0 2771 0 3078 0 
L 3078 160 
L 2899 160 
C 2368 160 2349 230 2349 459 
L 2349 3912 
C 2349 4052 2349 4129 2464 4154 
C 2515 4160 2701 4160 2816 4160 
C 3795 4160 3891 3976 3974 2918 
L 4090 2918 
L 3981 4326 
z
" transform="scale(0.015625)"/>
      <path id="CMR17-69" d="M 992 3909 
C 992 4049 877 4170 730 4170 
C 589 4170 467 4056 467 3909 
C 467 3769 582 3648 730 3648 
C 870 3648 992 3763 992 3909 
z
M 243 2706 
L 243 2541 
C 602 2541 653 2502 653 2197 
L 653 427 
C 653 184 627 153 218 153 
L 218 -13 
C 371 0 646 0 806 0 
C 960 0 1222 0 1370 -13 
L 1370 153 
C 992 153 979 191 979 420 
L 979 2776 
L 243 2706 
z
" transform="scale(0.015625)"/>
      <path id="CMR17-6d" d="M 4326 1933 
C 4326 2252 4269 2790 3507 2790 
C 3072 2790 2771 2496 2656 2151 
L 2650 2151 
C 2573 2676 2195 2790 1837 2790 
C 1331 2790 1069 2400 973 2144 
L 966 2144 
L 966 2790 
L 211 2720 
L 211 2554 
C 589 2554 646 2515 646 2208 
L 646 428 
C 646 184 621 153 211 153 
L 211 -13 
C 365 0 646 0 813 0 
C 979 0 1267 0 1421 -13 
L 1421 153 
C 1011 153 986 178 986 428 
L 986 1658 
C 986 2247 1344 2688 1792 2688 
C 2266 2688 2317 2266 2317 1958 
L 2317 428 
C 2317 184 2291 153 1882 153 
L 1882 -13 
C 2035 0 2317 0 2483 0 
C 2650 0 2938 0 3091 -13 
L 3091 153 
C 2682 153 2656 178 2656 428 
L 2656 1658 
C 2656 2247 3014 2688 3462 2688 
C 3936 2688 3987 2266 3987 1958 
L 3987 428 
C 3987 184 3962 153 3552 153 
L 3552 -13 
C 3706 0 3987 0 4154 0 
C 4320 0 4608 0 4762 -13 
L 4762 153 
C 4352 153 4326 178 4326 428 
L 4326 1933 
z
" transform="scale(0.015625)"/>
      <path id="CMR17-65" d="M 2438 1472 
C 2464 1498 2464 1511 2464 1576 
C 2464 2238 2118 2816 1389 2816 
C 710 2816 173 2169 173 1383 
C 173 551 781 -64 1459 -64 
C 2176 -64 2458 607 2458 740 
C 2458 784 2419 784 2406 784 
C 2362 784 2355 771 2330 696 
C 2189 265 1837 51 1504 51 
C 1229 51 954 203 781 480 
C 582 803 582 1176 582 1472 
L 2438 1472 
z
M 589 1568 
C 634 2505 1126 2714 1382 2714 
C 1818 2714 2112 2297 2118 1568 
L 589 1568 
z
" transform="scale(0.015625)"/>
     </defs>
     <use xlink:href="#CMR17-54" transform="scale(0.996264)"/>
     <use xlink:href="#CMR17-69" transform="translate(66.509881 0) scale(0.996264)"/>
     <use xlink:href="#CMR17-6d" transform="translate(91.380939 0) scale(0.996264)"/>
     <use xlink:href="#CMR17-65" transform="translate(168.300529 0) scale(0.996264)"/>
    </g>
   </g>
   <g id="legend_1">
    <g id="line2d_40">
     <path d="M 948.117672 245.978505 
L 962.117672 245.978505 
L 976.117672 245.978505 
" style="fill: none; stroke: #393b79; stroke-width: 2; stroke-linecap: round"/>
    </g>
    <g id="text_20">
     <!-- t = 10.00 -->
     <g style="fill: #262626" transform="translate(987.317672 250.878505) scale(0.14 -0.14)">
      <defs>
       <path id="CMR17-74" d="M 966 2560 
L 1862 2560 
L 1862 2725 
L 966 2725 
L 966 3904 
L 851 3904 
C 838 3245 614 2668 70 2668 
L 70 2560 
L 627 2560 
L 627 771 
C 627 650 627 -64 1370 -64 
C 1747 -64 1965 306 1965 777 
L 1965 1140 
L 1850 1140 
L 1850 783 
C 1850 344 1677 51 1408 51 
C 1222 51 966 178 966 758 
L 966 2560 
z
" transform="scale(0.015625)"/>
       <path id="CMR17-3d" d="M 4115 2017 
C 4211 2017 4307 2017 4307 2125 
C 4307 2240 4198 2240 4090 2240 
L 512 2240 
C 403 2240 294 2240 294 2125 
C 294 2017 390 2017 486 2017 
L 4115 2017 
z
M 4090 896 
C 4198 896 4307 896 4307 1011 
C 4307 1119 4211 1119 4115 1119 
L 486 1119 
C 390 1119 294 1119 294 1011 
C 294 896 403 896 512 896 
L 4090 896 
z
" transform="scale(0.015625)"/>
       <path id="CMR17-2e" d="M 1062 261 
C 1062 420 934 522 800 522 
C 672 522 538 420 538 261 
C 538 102 666 0 800 0 
C 928 0 1062 102 1062 261 
z
" transform="scale(0.015625)"/>
      </defs>
      <use xlink:href="#CMR17-74" transform="scale(0.996264)"/>
      <use xlink:href="#CMR17-3d" transform="translate(65.356734 0) scale(0.996264)"/>
      <use xlink:href="#CMR17-31" transform="translate(167.147489 0) scale(0.996264)"/>
      <use xlink:href="#CMR17-30" transform="translate(212.837966 0) scale(0.996264)"/>
      <use xlink:href="#CMR17-2e" transform="translate(258.528443 0) scale(0.996264)"/>
      <use xlink:href="#CMR17-30" transform="translate(283.399502 0) scale(0.996264)"/>
      <use xlink:href="#CMR17-30" transform="translate(329.089979 0) scale(0.996264)"/>
     </g>
    </g>
    <g id="line2d_41">
     <path d="M 948.117672 265.490533 
L 962.117672 265.490533 
L 976.117672 265.490533 
" style="fill: none; stroke: #8ca252; stroke-width: 2; stroke-linecap: round"/>
    </g>
    <g id="text_21">
     <!-- t = 100.00 -->
     <g style="fill: #262626" transform="translate(987.317672 270.390533) scale(0.14 -0.14)">
      <use xlink:href="#CMR17-74" transform="scale(0.996264)"/>
      <use xlink:href="#CMR17-3d" transform="translate(65.356734 0) scale(0.996264)"/>
      <use xlink:href="#CMR17-31" transform="translate(167.147489 0) scale(0.996264)"/>
      <use xlink:href="#CMR17-30" transform="translate(212.837966 0) scale(0.996264)"/>
      <use xlink:href="#CMR17-30" transform="translate(258.528443 0) scale(0.996264)"/>
      <use xlink:href="#CMR17-2e" transform="translate(304.21892 0) scale(0.996264)"/>
      <use xlink:href="#CMR17-30" transform="translate(329.089979 0) scale(0.996264)"/>
      <use xlink:href="#CMR17-30" transform="translate(374.780456 0) scale(0.996264)"/>
     </g>
    </g>
    <g id="line2d_42">
     <path d="M 948.117672 285.002562 
L 962.117672 285.002562 
L 976.117672 285.002562 
" style="fill: none; stroke: #e7ba52; stroke-width: 2; stroke-linecap: round"/>
    </g>
    <g id="text_22">
     <!-- t = 500.00 -->
     <g style="fill: #262626" transform="translate(987.317672 289.902562) scale(0.14 -0.14)">
      <use xlink:href="#CMR17-74" transform="scale(0.996264)"/>
      <use xlink:href="#CMR17-3d" transform="translate(65.356734 0) scale(0.996264)"/>
      <use xlink:href="#CMR17-35" transform="translate(167.147489 0) scale(0.996264)"/>
      <use xlink:href="#CMR17-30" transform="translate(212.837966 0) scale(0.996264)"/>
      <use xlink:href="#CMR17-30" transform="translate(258.528443 0) scale(0.996264)"/>
      <use xlink:href="#CMR17-2e" transform="translate(304.21892 0) scale(0.996264)"/>
      <use xlink:href="#CMR17-30" transform="translate(329.089979 0) scale(0.996264)"/>
      <use xlink:href="#CMR17-30" transform="translate(374.780456 0) scale(0.996264)"/>
     </g>
    </g>
    <g id="line2d_43">
     <path d="M 948.117672 304.51459 
L 962.117672 304.51459 
L 976.117672 304.51459 
" style="fill: none; stroke: #e7969c; stroke-width: 2; stroke-linecap: round"/>
    </g>
    <g id="text_23">
     <!-- t = 1000.00 -->
     <g style="fill: #262626" transform="translate(987.317672 309.41459) scale(0.14 -0.14)">
      <use xlink:href="#CMR17-74" transform="scale(0.996264)"/>
      <use xlink:href="#CMR17-3d" transform="translate(65.356734 0) scale(0.996264)"/>
      <use xlink:href="#CMR17-31" transform="translate(167.147489 0) scale(0.996264)"/>
      <use xlink:href="#CMR17-30" transform="translate(212.837966 0) scale(0.996264)"/>
      <use xlink:href="#CMR17-30" transform="translate(258.528443 0) scale(0.996264)"/>
      <use xlink:href="#CMR17-30" transform="translate(304.21892 0) scale(0.996264)"/>
      <use xlink:href="#CMR17-2e" transform="translate(349.909397 0) scale(0.996264)"/>
      <use xlink:href="#CMR17-30" transform="translate(374.780456 0) scale(0.996264)"/>
      <use xlink:href="#CMR17-30" transform="translate(420.470933 0) scale(0.996264)"/>
     </g>
    </g>
    <g id="line2d_44">
     <path d="M 948.117672 324.026618 
L 962.117672 324.026618 
L 976.117672 324.026618 
" style="fill: none; stroke: #de9ed6; stroke-width: 2; stroke-linecap: round"/>
    </g>
    <g id="text_24">
     <!-- t = 1500.00 -->
     <g style="fill: #262626" transform="translate(987.317672 328.926618) scale(0.14 -0.14)">
      <use xlink:href="#CMR17-74" transform="scale(0.996264)"/>
      <use xlink:href="#CMR17-3d" transform="translate(65.356734 0) scale(0.996264)"/>
      <use xlink:href="#CMR17-31" transform="translate(167.147489 0) scale(0.996264)"/>
      <use xlink:href="#CMR17-35" transform="translate(212.837966 0) scale(0.996264)"/>
      <use xlink:href="#CMR17-30" transform="translate(258.528443 0) scale(0.996264)"/>
      <use xlink:href="#CMR17-30" transform="translate(304.21892 0) scale(0.996264)"/>
      <use xlink:href="#CMR17-2e" transform="translate(349.909397 0) scale(0.996264)"/>
      <use xlink:href="#CMR17-30" transform="translate(374.780456 0) scale(0.996264)"/>
      <use xlink:href="#CMR17-30" transform="translate(420.470933 0) scale(0.996264)"/>
     </g>
    </g>
   </g>
  </g>
  <g id="text_25">
   <!-- auxiliar_variable -->
   <g style="fill: #262626" transform="translate(478.153677 24.803515) scale(0.192 -0.192)">
    <defs>
     <path id="CMR17-61" d="M 2304 1653 
C 2304 2072 2304 2294 2035 2543 
C 1798 2752 1523 2816 1306 2816 
C 800 2816 435 2407 435 1971 
C 435 1728 627 1728 666 1728 
C 749 1728 896 1778 896 1954 
C 896 2112 774 2181 666 2181 
C 640 2181 608 2174 589 2168 
C 723 2592 1069 2714 1293 2714 
C 1613 2714 1965 2429 1965 1885 
L 1965 1600 
C 1587 1600 1133 1549 774 1357 
C 371 1133 256 813 256 570 
C 256 77 832 -64 1171 -64 
C 1523 -64 1850 139 1990 511 
C 2003 233 2182 -18 2464 -18 
C 2598 -18 2938 70 2938 567 
L 2938 920 
L 2822 920 
L 2822 562 
C 2822 178 2650 128 2566 128 
C 2304 128 2304 458 2304 738 
L 2304 1653 
z
M 1965 870 
C 1965 317 1568 38 1216 38 
C 896 38 646 275 646 570 
C 646 761 730 1100 1101 1305 
C 1408 1478 1760 1504 1965 1504 
L 1965 870 
z
" transform="scale(0.015625)"/>
     <path id="CMR17-75" d="M 1882 2693 
L 1882 2528 
C 2259 2528 2317 2489 2317 2186 
L 2317 1032 
C 2317 500 2029 38 1555 38 
C 1030 38 986 348 986 678 
L 986 2763 
L 211 2693 
L 211 2528 
C 467 2528 640 2528 646 2274 
L 646 1058 
C 646 633 646 361 813 183 
C 896 101 1056 -64 1517 -64 
C 2061 -64 2272 377 2323 506 
L 2330 506 
L 2330 -63 
L 3091 -63 
L 3091 128 
C 2714 128 2656 166 2656 473 
L 2656 2763 
L 1882 2693 
z
" transform="scale(0.015625)"/>
     <path id="CMR17-78" d="M 1664 1477 
C 1856 1726 2074 2006 2253 2216 
C 2464 2458 2707 2560 2989 2560 
L 2989 2726 
C 2880 2726 2656 2726 2541 2726 
C 2368 2726 2170 2726 2022 2732 
L 2022 2566 
C 2112 2553 2163 2489 2163 2400 
C 2163 2285 2099 2215 2067 2171 
L 1594 1573 
L 1030 2306 
C 973 2376 973 2388 973 2420 
C 973 2497 1037 2560 1146 2560 
L 1146 2732 
C 992 2726 717 2726 557 2726 
C 384 2726 179 2726 38 2732 
L 38 2560 
C 384 2560 461 2534 614 2343 
L 1350 1395 
C 1363 1382 1395 1344 1395 1325 
C 1395 1299 838 619 768 530 
C 480 185 179 160 6 160 
L 6 0 
C 115 0 339 0 454 0 
C 582 0 864 0 979 -6 
L 979 160 
C 941 166 838 179 838 325 
C 838 440 890 510 947 586 
L 1478 1236 
L 2035 512 
C 2086 442 2163 346 2163 301 
C 2163 211 2086 160 1984 160 
L 1984 -6 
C 2138 0 2413 0 2573 0 
C 2746 0 2950 0 3091 -6 
L 3091 160 
C 2771 160 2675 172 2522 370 
L 1664 1477 
z
" transform="scale(0.015625)"/>
     <path id="CMR17-6c" d="M 979 4396 
L 218 4326 
L 218 4160 
C 595 4160 653 4122 653 3817 
L 653 426 
C 653 184 627 153 218 153 
L 218 -13 
C 371 0 653 0 813 0 
C 979 0 1261 0 1414 -13 
L 1414 153 
C 1005 153 979 178 979 426 
L 979 4396 
z
" transform="scale(0.015625)"/>
     <path id="CMR17-72" d="M 960 1497 
C 960 2112 1222 2688 1702 2688 
C 1747 2688 1792 2682 1837 2662 
C 1837 2662 1696 2617 1696 2452 
C 1696 2298 1818 2234 1914 2234 
C 1990 2234 2131 2279 2131 2458 
C 2131 2663 1926 2790 1709 2790 
C 1222 2790 1011 2317 947 2093 
L 941 2093 
L 941 2790 
L 198 2720 
L 198 2554 
C 576 2554 634 2515 634 2208 
L 634 428 
C 634 184 608 153 198 153 
L 198 -13 
C 352 0 646 0 813 0 
C 998 0 1325 0 1498 -13 
L 1498 153 
C 1037 153 960 153 960 440 
L 960 1497 
z
" transform="scale(0.015625)"/>
     <path id="CMR17-76" d="M 2502 2163 
C 2560 2304 2662 2560 3034 2560 
L 3034 2726 
C 2912 2726 2752 2726 2630 2726 
C 2496 2726 2285 2726 2157 2732 
L 2157 2566 
C 2317 2553 2406 2477 2406 2311 
C 2406 2253 2406 2240 2368 2151 
L 1664 377 
L 902 2286 
C 864 2369 864 2381 864 2407 
C 864 2560 1075 2560 1171 2560 
L 1171 2732 
C 1018 2726 736 2726 576 2726 
C 403 2726 205 2726 64 2732 
L 64 2560 
C 307 2560 442 2560 518 2362 
L 1446 44 
C 1485 -51 1491 -64 1549 -64 
C 1606 -64 1613 -51 1651 44 
L 2502 2163 
z
" transform="scale(0.015625)"/>
     <path id="CMR17-62" d="M 960 4396 
L 198 4326 
L 198 4160 
C 576 4160 634 4122 634 3817 
L 634 -13 
L 749 -13 
L 934 441 
C 1120 141 1395 -64 1766 -64 
C 2406 -64 3053 500 3053 1370 
C 3053 2188 2477 2790 1830 2790 
C 1434 2790 1152 2579 960 2330 
L 960 4396 
z
M 973 2004 
C 973 2118 973 2138 1062 2272 
C 1312 2657 1670 2688 1792 2688 
C 1984 2688 2643 2585 2643 1376 
C 2643 108 1888 38 1734 38 
C 1536 38 1248 114 1043 486 
C 973 608 973 621 973 735 
L 973 2004 
z
" transform="scale(0.015625)"/>
    </defs>
    <use xlink:href="#CMR17-61" transform="scale(0.996264)"/>
    <use xlink:href="#CMR17-75" transform="translate(45.690477 0) scale(0.996264)"/>
    <use xlink:href="#CMR17-78" transform="translate(96.585847 0) scale(0.996264)"/>
    <use xlink:href="#CMR17-69" transform="translate(144.878763 0) scale(0.996264)"/>
    <use xlink:href="#CMR17-6c" transform="translate(169.749821 0) scale(0.996264)"/>
    <use xlink:href="#CMR17-69" transform="translate(194.62088 0) scale(0.996264)"/>
    <use xlink:href="#CMR17-61" transform="translate(219.491938 0) scale(0.996264)"/>
    <use xlink:href="#CMR17-72" transform="translate(265.182415 0) scale(0.996264)"/>
    <use xlink:href="#CMR17-76" transform="translate(333.360403 0) scale(0.996264)"/>
    <use xlink:href="#CMR17-61" transform="translate(376.448502 0) scale(0.996264)"/>
    <use xlink:href="#CMR17-72" transform="translate(422.138979 0) scale(0.996264)"/>
    <use xlink:href="#CMR17-69" transform="translate(457.419747 0) scale(0.996264)"/>
    <use xlink:href="#CMR17-61" transform="translate(482.290805 0) scale(0.996264)"/>
    <use xlink:href="#CMR17-62" transform="translate(527.981282 0) scale(0.996264)"/>
    <use xlink:href="#CMR17-6c" transform="translate(578.876652 0) scale(0.996264)"/>
    <use xlink:href="#CMR17-65" transform="translate(603.747711 0) scale(0.996264)"/>
    <path d="M 305.945812 0 
L 333.360403 0 
L 333.360403 0.3985 
L 305.945812 0.3985 
L 305.945812 0 
z
"/>
   </g>
  </g>
 </g>
 <defs>
  <clipPath id="pd562a40c28">
   <rect x="51.593955" y="51.564121" width="883.923717" height="469.58891"/>
  </clipPath>
 </defs>
</svg>
