<?xml version="1.0" encoding="utf-8" standalone="no"?>
<!DOCTYPE svg PUBLIC "-//W3C//DTD SVG 1.1//EN"
  "http://www.w3.org/Graphics/SVG/1.1/DTD/svg11.dtd">
<svg xmlns:xlink="http://www.w3.org/1999/xlink" width="1080pt" height="576pt" viewBox="0 0 1080 576" xmlns="http://www.w3.org/2000/svg" version="1.1">
 <metadata>
  <rdf:RDF xmlns:dc="http://purl.org/dc/elements/1.1/" xmlns:cc="http://creativecommons.org/ns#" xmlns:rdf="http://www.w3.org/1999/02/22-rdf-syntax-ns#">
   <cc:Work>
    <dc:type rdf:resource="http://purl.org/dc/dcmitype/StillImage"/>
    <dc:date>2024-06-28T12:05:18.856896</dc:date>
    <dc:format>image/svg+xml</dc:format>
    <dc:creator>
     <cc:Agent>
      <dc:title>Matplotlib v3.9.0, https://matplotlib.org/</dc:title>
     </cc:Agent>
    </dc:creator>
   </cc:Work>
  </rdf:RDF>
 </metadata>
 <defs>
  <style type="text/css">*{stroke-linejoin: round; stroke-linecap: butt}</style>
 </defs>
 <g id="figure_1">
  <g id="patch_1">
   <path d="M 0 576 
L 1080 576 
L 1080 0 
L 0 0 
z
" style="fill: #ffffff"/>
  </g>
  <g id="axes_1">
   <g id="patch_2">
    <path d="M 48.559071 521.153031 
L 935.517672 521.153031 
L 935.517672 51.564121 
L 48.559071 51.564121 
z
" style="fill: #eaeaf2"/>
   </g>
   <g id="matplotlib.axis_1">
    <g id="xtick_1">
     <g id="line2d_1">
      <path d="M 48.559071 521.153031 
L 48.559071 51.564121 
" clip-path="url(#p90e9e07d76)" style="fill: none; stroke: #ffffff; stroke-linecap: round"/>
     </g>
     <g id="line2d_2"/>
     <g id="text_1">
      <!-- $\mathdefault{0.00}$ -->
      <g style="fill: #262626" transform="translate(36.419535 537.838907) scale(0.14 -0.14)">
       <defs>
        <path id="CMR17-30" d="M 2688 2025 
C 2688 2416 2682 3080 2413 3591 
C 2176 4039 1798 4198 1466 4198 
C 1158 4198 768 4058 525 3597 
C 269 3118 243 2524 243 2025 
C 243 1661 250 1106 448 619 
C 723 -39 1216 -128 1466 -128 
C 1760 -128 2208 -7 2470 600 
C 2662 1042 2688 1559 2688 2025 
z
M 1466 -26 
C 1056 -26 813 325 723 812 
C 653 1188 653 1738 653 2096 
C 653 2588 653 2997 736 3387 
C 858 3929 1216 4096 1466 4096 
C 1728 4096 2067 3923 2189 3400 
C 2272 3036 2278 2607 2278 2096 
C 2278 1680 2278 1169 2202 792 
C 2067 95 1690 -26 1466 -26 
z
" transform="scale(0.015625)"/>
        <path id="CMMI12-3a" d="M 1178 307 
C 1178 492 1024 619 870 619 
C 685 619 557 466 557 313 
C 557 128 710 0 864 0 
C 1050 0 1178 153 1178 307 
z
" transform="scale(0.015625)"/>
       </defs>
       <use xlink:href="#CMR17-30" transform="scale(0.996264)"/>
       <use xlink:href="#CMMI12-3a" transform="translate(45.690477 0) scale(0.996264)"/>
       <use xlink:href="#CMR17-30" transform="translate(72.787654 0) scale(0.996264)"/>
       <use xlink:href="#CMR17-30" transform="translate(118.478131 0) scale(0.996264)"/>
      </g>
     </g>
    </g>
    <g id="xtick_2">
     <g id="line2d_3">
      <path d="M 154.14938 521.153031 
L 154.14938 51.564121 
" clip-path="url(#p90e9e07d76)" style="fill: none; stroke: #ffffff; stroke-linecap: round"/>
     </g>
     <g id="line2d_4"/>
     <g id="text_2">
      <!-- $\mathdefault{0.25}$ -->
      <g style="fill: #262626" transform="translate(142.009845 537.838907) scale(0.14 -0.14)">
       <defs>
        <path id="CMR17-32" d="M 2669 989 
L 2554 989 
C 2490 536 2438 459 2413 420 
C 2381 369 1920 369 1830 369 
L 602 369 
C 832 619 1280 1072 1824 1597 
C 2214 1967 2669 2402 2669 3035 
C 2669 3790 2067 4224 1395 4224 
C 691 4224 262 3604 262 3030 
C 262 2780 448 2748 525 2748 
C 589 2748 781 2787 781 3010 
C 781 3207 614 3264 525 3264 
C 486 3264 448 3258 422 3245 
C 544 3790 915 4058 1306 4058 
C 1862 4058 2227 3617 2227 3035 
C 2227 2479 1901 2000 1536 1584 
L 262 146 
L 262 0 
L 2515 0 
L 2669 989 
z
" transform="scale(0.015625)"/>
        <path id="CMR17-35" d="M 730 3692 
C 794 3666 1056 3584 1325 3584 
C 1920 3584 2246 3911 2432 4100 
C 2432 4157 2432 4192 2394 4192 
C 2387 4192 2374 4192 2323 4163 
C 2099 4058 1837 3973 1517 3973 
C 1325 3973 1037 3999 723 4139 
C 653 4171 640 4171 634 4171 
C 602 4171 595 4164 595 4037 
L 595 2203 
C 595 2089 595 2057 659 2057 
C 691 2057 704 2070 736 2114 
C 941 2401 1222 2522 1542 2522 
C 1766 2522 2246 2382 2246 1289 
C 2246 1085 2246 715 2054 421 
C 1894 159 1645 25 1370 25 
C 947 25 518 320 403 814 
C 429 807 480 795 506 795 
C 589 795 749 840 749 1038 
C 749 1210 627 1280 506 1280 
C 358 1280 262 1190 262 1011 
C 262 454 704 -128 1382 -128 
C 2042 -128 2669 440 2669 1264 
C 2669 2030 2170 2624 1549 2624 
C 1222 2624 947 2503 730 2274 
L 730 3692 
z
" transform="scale(0.015625)"/>
       </defs>
       <use xlink:href="#CMR17-30" transform="scale(0.996264)"/>
       <use xlink:href="#CMMI12-3a" transform="translate(45.690477 0) scale(0.996264)"/>
       <use xlink:href="#CMR17-32" transform="translate(72.787654 0) scale(0.996264)"/>
       <use xlink:href="#CMR17-35" transform="translate(118.478131 0) scale(0.996264)"/>
      </g>
     </g>
    </g>
    <g id="xtick_3">
     <g id="line2d_5">
      <path d="M 259.73969 521.153031 
L 259.73969 51.564121 
" clip-path="url(#p90e9e07d76)" style="fill: none; stroke: #ffffff; stroke-linecap: round"/>
     </g>
     <g id="line2d_6"/>
     <g id="text_3">
      <!-- $\mathdefault{0.50}$ -->
      <g style="fill: #262626" transform="translate(247.600155 537.838907) scale(0.14 -0.14)">
       <use xlink:href="#CMR17-30" transform="scale(0.996264)"/>
       <use xlink:href="#CMMI12-3a" transform="translate(45.690477 0) scale(0.996264)"/>
       <use xlink:href="#CMR17-35" transform="translate(72.787654 0) scale(0.996264)"/>
       <use xlink:href="#CMR17-30" transform="translate(118.478131 0) scale(0.996264)"/>
      </g>
     </g>
    </g>
    <g id="xtick_4">
     <g id="line2d_7">
      <path d="M 365.33 521.153031 
L 365.33 51.564121 
" clip-path="url(#p90e9e07d76)" style="fill: none; stroke: #ffffff; stroke-linecap: round"/>
     </g>
     <g id="line2d_8"/>
     <g id="text_4">
      <!-- $\mathdefault{0.75}$ -->
      <g style="fill: #262626" transform="translate(353.190464 537.838907) scale(0.14 -0.14)">
       <defs>
        <path id="CMR17-37" d="M 2886 3941 
L 2886 4081 
L 1382 4081 
C 634 4081 621 4165 595 4288 
L 480 4288 
L 294 3094 
L 410 3094 
C 429 3215 474 3540 550 3661 
C 589 3712 1062 3712 1171 3712 
L 2579 3712 
L 1869 2661 
C 1395 1954 1069 999 1069 165 
C 1069 89 1069 -128 1299 -128 
C 1530 -128 1530 89 1530 171 
L 1530 465 
C 1530 1508 1709 2196 2003 2636 
L 2886 3941 
z
" transform="scale(0.015625)"/>
       </defs>
       <use xlink:href="#CMR17-30" transform="scale(0.996264)"/>
       <use xlink:href="#CMMI12-3a" transform="translate(45.690477 0) scale(0.996264)"/>
       <use xlink:href="#CMR17-37" transform="translate(72.787654 0) scale(0.996264)"/>
       <use xlink:href="#CMR17-35" transform="translate(118.478131 0) scale(0.996264)"/>
      </g>
     </g>
    </g>
    <g id="xtick_5">
     <g id="line2d_9">
      <path d="M 470.920309 521.153031 
L 470.920309 51.564121 
" clip-path="url(#p90e9e07d76)" style="fill: none; stroke: #ffffff; stroke-linecap: round"/>
     </g>
     <g id="line2d_10"/>
     <g id="text_5">
      <!-- $\mathdefault{1.00}$ -->
      <g style="fill: #262626" transform="translate(458.780774 537.838907) scale(0.14 -0.14)">
       <defs>
        <path id="CMR17-31" d="M 1702 4058 
C 1702 4192 1696 4192 1606 4192 
C 1357 3916 979 3827 621 3827 
C 602 3827 570 3827 563 3808 
C 557 3795 557 3782 557 3648 
C 755 3648 1088 3686 1344 3839 
L 1344 461 
C 1344 236 1331 160 781 160 
L 589 160 
L 589 0 
C 896 0 1216 0 1523 0 
C 1830 0 2150 0 2458 0 
L 2458 160 
L 2266 160 
C 1715 160 1702 230 1702 458 
L 1702 4058 
z
" transform="scale(0.015625)"/>
       </defs>
       <use xlink:href="#CMR17-31" transform="scale(0.996264)"/>
       <use xlink:href="#CMMI12-3a" transform="translate(45.690477 0) scale(0.996264)"/>
       <use xlink:href="#CMR17-30" transform="translate(72.787654 0) scale(0.996264)"/>
       <use xlink:href="#CMR17-30" transform="translate(118.478131 0) scale(0.996264)"/>
      </g>
     </g>
    </g>
    <g id="xtick_6">
     <g id="line2d_11">
      <path d="M 576.510619 521.153031 
L 576.510619 51.564121 
" clip-path="url(#p90e9e07d76)" style="fill: none; stroke: #ffffff; stroke-linecap: round"/>
     </g>
     <g id="line2d_12"/>
     <g id="text_6">
      <!-- $\mathdefault{1.25}$ -->
      <g style="fill: #262626" transform="translate(564.371084 537.838907) scale(0.14 -0.14)">
       <use xlink:href="#CMR17-31" transform="scale(0.996264)"/>
       <use xlink:href="#CMMI12-3a" transform="translate(45.690477 0) scale(0.996264)"/>
       <use xlink:href="#CMR17-32" transform="translate(72.787654 0) scale(0.996264)"/>
       <use xlink:href="#CMR17-35" transform="translate(118.478131 0) scale(0.996264)"/>
      </g>
     </g>
    </g>
    <g id="xtick_7">
     <g id="line2d_13">
      <path d="M 682.100929 521.153031 
L 682.100929 51.564121 
" clip-path="url(#p90e9e07d76)" style="fill: none; stroke: #ffffff; stroke-linecap: round"/>
     </g>
     <g id="line2d_14"/>
     <g id="text_7">
      <!-- $\mathdefault{1.50}$ -->
      <g style="fill: #262626" transform="translate(669.961393 537.838907) scale(0.14 -0.14)">
       <use xlink:href="#CMR17-31" transform="scale(0.996264)"/>
       <use xlink:href="#CMMI12-3a" transform="translate(45.690477 0) scale(0.996264)"/>
       <use xlink:href="#CMR17-35" transform="translate(72.787654 0) scale(0.996264)"/>
       <use xlink:href="#CMR17-30" transform="translate(118.478131 0) scale(0.996264)"/>
      </g>
     </g>
    </g>
    <g id="xtick_8">
     <g id="line2d_15">
      <path d="M 787.691238 521.153031 
L 787.691238 51.564121 
" clip-path="url(#p90e9e07d76)" style="fill: none; stroke: #ffffff; stroke-linecap: round"/>
     </g>
     <g id="line2d_16"/>
     <g id="text_8">
      <!-- $\mathdefault{1.75}$ -->
      <g style="fill: #262626" transform="translate(775.551703 537.838907) scale(0.14 -0.14)">
       <use xlink:href="#CMR17-31" transform="scale(0.996264)"/>
       <use xlink:href="#CMMI12-3a" transform="translate(45.690477 0) scale(0.996264)"/>
       <use xlink:href="#CMR17-37" transform="translate(72.787654 0) scale(0.996264)"/>
       <use xlink:href="#CMR17-35" transform="translate(118.478131 0) scale(0.996264)"/>
      </g>
     </g>
    </g>
    <g id="xtick_9">
     <g id="line2d_17">
      <path d="M 893.281548 521.153031 
L 893.281548 51.564121 
" clip-path="url(#p90e9e07d76)" style="fill: none; stroke: #ffffff; stroke-linecap: round"/>
     </g>
     <g id="line2d_18"/>
     <g id="text_9">
      <!-- $\mathdefault{2.00}$ -->
      <g style="fill: #262626" transform="translate(881.142013 537.838907) scale(0.14 -0.14)">
       <use xlink:href="#CMR17-32" transform="scale(0.996264)"/>
       <use xlink:href="#CMMI12-3a" transform="translate(45.690477 0) scale(0.996264)"/>
       <use xlink:href="#CMR17-30" transform="translate(72.787654 0) scale(0.996264)"/>
       <use xlink:href="#CMR17-30" transform="translate(118.478131 0) scale(0.996264)"/>
      </g>
     </g>
    </g>
    <g id="text_10">
     <!-- $x$ -->
     <g style="fill: #262626" transform="translate(487.603646 555.620524) scale(0.16 -0.16)">
      <defs>
       <path id="CMMI12-78" d="M 3034 2606 
C 2829 2567 2752 2414 2752 2293 
C 2752 2139 2874 2088 2963 2088 
C 3155 2088 3290 2254 3290 2427 
C 3290 2695 2982 2816 2714 2816 
C 2323 2816 2106 2433 2048 2312 
C 1901 2816 1504 2816 1389 2816 
C 736 2816 390 1980 390 1839 
C 390 1814 416 1782 461 1782 
C 512 1782 525 1820 538 1846 
C 755 2555 1184 2689 1370 2689 
C 1658 2689 1715 2420 1715 2267 
C 1715 2127 1677 1980 1600 1673 
L 1382 798 
C 1286 415 1101 64 762 64 
C 730 64 570 64 435 147 
C 666 192 717 383 717 460 
C 717 588 621 664 499 664 
C 346 664 179 530 179 326 
C 179 57 480 -64 755 -64 
C 1062 -64 1280 179 1414 441 
C 1517 64 1837 -64 2074 -64 
C 2726 -64 3072 773 3072 913 
C 3072 945 3046 971 3008 971 
C 2950 971 2944 939 2925 888 
C 2752 326 2381 64 2093 64 
C 1869 64 1747 230 1747 492 
C 1747 632 1773 734 1875 1156 
L 2099 2024 
C 2195 2408 2413 2689 2707 2689 
C 2720 2689 2899 2689 3034 2606 
z
" transform="scale(0.015625)"/>
      </defs>
      <use xlink:href="#CMMI12-78" transform="scale(0.996264)"/>
     </g>
    </g>
   </g>
   <g id="matplotlib.axis_2">
    <g id="ytick_1">
     <g id="line2d_19">
      <path d="M 48.559071 521.153031 
L 935.517672 521.153031 
" clip-path="url(#p90e9e07d76)" style="fill: none; stroke: #ffffff; stroke-linecap: round"/>
     </g>
     <g id="line2d_20"/>
     <g id="text_11">
      <!-- $\mathdefault{0.00}$ -->
      <g style="fill: #262626" transform="translate(17.28 525.995969) scale(0.14 -0.14)">
       <use xlink:href="#CMR17-30" transform="scale(0.996264)"/>
       <use xlink:href="#CMMI12-3a" transform="translate(45.690477 0) scale(0.996264)"/>
       <use xlink:href="#CMR17-30" transform="translate(72.787654 0) scale(0.996264)"/>
       <use xlink:href="#CMR17-30" transform="translate(118.478131 0) scale(0.996264)"/>
      </g>
     </g>
    </g>
    <g id="ytick_2">
     <g id="line2d_21">
      <path d="M 48.559071 465.251013 
L 935.517672 465.251013 
" clip-path="url(#p90e9e07d76)" style="fill: none; stroke: #ffffff; stroke-linecap: round"/>
     </g>
     <g id="line2d_22"/>
     <g id="text_12">
      <!-- $\mathdefault{0.25}$ -->
      <g style="fill: #262626" transform="translate(17.28 470.093951) scale(0.14 -0.14)">
       <use xlink:href="#CMR17-30" transform="scale(0.996264)"/>
       <use xlink:href="#CMMI12-3a" transform="translate(45.690477 0) scale(0.996264)"/>
       <use xlink:href="#CMR17-32" transform="translate(72.787654 0) scale(0.996264)"/>
       <use xlink:href="#CMR17-35" transform="translate(118.478131 0) scale(0.996264)"/>
      </g>
     </g>
    </g>
    <g id="ytick_3">
     <g id="line2d_23">
      <path d="M 48.559071 409.348995 
L 935.517672 409.348995 
" clip-path="url(#p90e9e07d76)" style="fill: none; stroke: #ffffff; stroke-linecap: round"/>
     </g>
     <g id="line2d_24"/>
     <g id="text_13">
      <!-- $\mathdefault{0.50}$ -->
      <g style="fill: #262626" transform="translate(17.28 414.191934) scale(0.14 -0.14)">
       <use xlink:href="#CMR17-30" transform="scale(0.996264)"/>
       <use xlink:href="#CMMI12-3a" transform="translate(45.690477 0) scale(0.996264)"/>
       <use xlink:href="#CMR17-35" transform="translate(72.787654 0) scale(0.996264)"/>
       <use xlink:href="#CMR17-30" transform="translate(118.478131 0) scale(0.996264)"/>
      </g>
     </g>
    </g>
    <g id="ytick_4">
     <g id="line2d_25">
      <path d="M 48.559071 353.446978 
L 935.517672 353.446978 
" clip-path="url(#p90e9e07d76)" style="fill: none; stroke: #ffffff; stroke-linecap: round"/>
     </g>
     <g id="line2d_26"/>
     <g id="text_14">
      <!-- $\mathdefault{0.75}$ -->
      <g style="fill: #262626" transform="translate(17.28 358.289916) scale(0.14 -0.14)">
       <use xlink:href="#CMR17-30" transform="scale(0.996264)"/>
       <use xlink:href="#CMMI12-3a" transform="translate(45.690477 0) scale(0.996264)"/>
       <use xlink:href="#CMR17-37" transform="translate(72.787654 0) scale(0.996264)"/>
       <use xlink:href="#CMR17-35" transform="translate(118.478131 0) scale(0.996264)"/>
      </g>
     </g>
    </g>
    <g id="ytick_5">
     <g id="line2d_27">
      <path d="M 48.559071 297.54496 
L 935.517672 297.54496 
" clip-path="url(#p90e9e07d76)" style="fill: none; stroke: #ffffff; stroke-linecap: round"/>
     </g>
     <g id="line2d_28"/>
     <g id="text_15">
      <!-- $\mathdefault{1.00}$ -->
      <g style="fill: #262626" transform="translate(17.28 302.387898) scale(0.14 -0.14)">
       <use xlink:href="#CMR17-31" transform="scale(0.996264)"/>
       <use xlink:href="#CMMI12-3a" transform="translate(45.690477 0) scale(0.996264)"/>
       <use xlink:href="#CMR17-30" transform="translate(72.787654 0) scale(0.996264)"/>
       <use xlink:href="#CMR17-30" transform="translate(118.478131 0) scale(0.996264)"/>
      </g>
     </g>
    </g>
    <g id="ytick_6">
     <g id="line2d_29">
      <path d="M 48.559071 241.642942 
L 935.517672 241.642942 
" clip-path="url(#p90e9e07d76)" style="fill: none; stroke: #ffffff; stroke-linecap: round"/>
     </g>
     <g id="line2d_30"/>
     <g id="text_16">
      <!-- $\mathdefault{1.25}$ -->
      <g style="fill: #262626" transform="translate(17.28 246.48588) scale(0.14 -0.14)">
       <use xlink:href="#CMR17-31" transform="scale(0.996264)"/>
       <use xlink:href="#CMMI12-3a" transform="translate(45.690477 0) scale(0.996264)"/>
       <use xlink:href="#CMR17-32" transform="translate(72.787654 0) scale(0.996264)"/>
       <use xlink:href="#CMR17-35" transform="translate(118.478131 0) scale(0.996264)"/>
      </g>
     </g>
    </g>
    <g id="ytick_7">
     <g id="line2d_31">
      <path d="M 48.559071 185.740925 
L 935.517672 185.740925 
" clip-path="url(#p90e9e07d76)" style="fill: none; stroke: #ffffff; stroke-linecap: round"/>
     </g>
     <g id="line2d_32"/>
     <g id="text_17">
      <!-- $\mathdefault{1.50}$ -->
      <g style="fill: #262626" transform="translate(17.28 190.583863) scale(0.14 -0.14)">
       <use xlink:href="#CMR17-31" transform="scale(0.996264)"/>
       <use xlink:href="#CMMI12-3a" transform="translate(45.690477 0) scale(0.996264)"/>
       <use xlink:href="#CMR17-35" transform="translate(72.787654 0) scale(0.996264)"/>
       <use xlink:href="#CMR17-30" transform="translate(118.478131 0) scale(0.996264)"/>
      </g>
     </g>
    </g>
    <g id="ytick_8">
     <g id="line2d_33">
      <path d="M 48.559071 129.838907 
L 935.517672 129.838907 
" clip-path="url(#p90e9e07d76)" style="fill: none; stroke: #ffffff; stroke-linecap: round"/>
     </g>
     <g id="line2d_34"/>
     <g id="text_18">
      <!-- $\mathdefault{1.75}$ -->
      <g style="fill: #262626" transform="translate(17.28 134.681845) scale(0.14 -0.14)">
       <use xlink:href="#CMR17-31" transform="scale(0.996264)"/>
       <use xlink:href="#CMMI12-3a" transform="translate(45.690477 0) scale(0.996264)"/>
       <use xlink:href="#CMR17-37" transform="translate(72.787654 0) scale(0.996264)"/>
       <use xlink:href="#CMR17-35" transform="translate(118.478131 0) scale(0.996264)"/>
      </g>
     </g>
    </g>
    <g id="ytick_9">
     <g id="line2d_35">
      <path d="M 48.559071 73.936889 
L 935.517672 73.936889 
" clip-path="url(#p90e9e07d76)" style="fill: none; stroke: #ffffff; stroke-linecap: round"/>
     </g>
     <g id="line2d_36"/>
     <g id="text_19">
      <!-- $\mathdefault{2.00}$ -->
      <g style="fill: #262626" transform="translate(17.28 78.779827) scale(0.14 -0.14)">
       <use xlink:href="#CMR17-32" transform="scale(0.996264)"/>
       <use xlink:href="#CMMI12-3a" transform="translate(45.690477 0) scale(0.996264)"/>
       <use xlink:href="#CMR17-30" transform="translate(72.787654 0) scale(0.996264)"/>
       <use xlink:href="#CMR17-30" transform="translate(118.478131 0) scale(0.996264)"/>
      </g>
     </g>
    </g>
   </g>
   <g id="line2d_37">
    <path d="M 48.559071 73.936889 
L 57.006295 73.936889 
L 65.45352 73.936889 
L 73.900745 73.936889 
L 82.34797 73.936889 
L 90.795195 73.936889 
L 99.242419 73.936889 
L 107.689644 73.936889 
L 116.136869 73.936889 
L 124.584094 73.936889 
L 133.031318 73.936889 
L 141.478543 73.936889 
L 149.925768 73.936889 
L 158.372993 73.936889 
L 166.820217 73.936889 
L 175.267442 73.936889 
L 183.714667 73.936889 
L 192.161892 73.936889 
L 200.609117 73.936889 
L 209.056341 73.936889 
L 217.503566 73.936889 
L 225.950791 73.936889 
L 234.398016 73.936889 
L 242.84524 73.936889 
L 251.292465 73.936889 
L 259.73969 73.936889 
L 268.186915 73.936889 
L 276.63414 73.936889 
L 285.081364 73.936889 
L 293.528589 73.936889 
L 301.975814 73.936889 
L 310.423039 73.936889 
L 318.870263 73.936889 
L 327.317488 73.936889 
L 335.764713 73.936889 
L 344.211938 73.936889 
L 352.659162 73.936889 
L 361.106387 73.936889 
L 369.553612 73.936889 
L 378.000837 73.936889 
L 386.448062 73.936889 
L 394.895286 73.936889 
L 403.342511 73.936889 
L 411.789736 73.936889 
L 420.236961 73.936889 
L 428.684185 73.936889 
L 437.13141 73.936889 
L 445.578635 73.936889 
L 454.02586 73.936889 
L 462.473085 73.936889 
L 470.920309 73.936889 
L 479.367534 73.936889 
L 487.814759 73.936889 
L 496.261984 73.936889 
L 504.709208 73.936889 
L 513.156433 73.936889 
L 521.603658 73.936889 
L 530.050883 73.936889 
L 538.498107 73.936889 
L 546.945332 73.936889 
L 555.392557 73.936889 
L 563.839782 73.936889 
L 572.287007 73.936889 
L 580.734231 73.936889 
L 589.181456 73.936889 
L 597.628681 73.936889 
L 606.075906 73.936889 
L 614.52313 73.936889 
L 622.970355 73.936889 
L 631.41758 73.936889 
L 639.864805 73.936889 
L 648.31203 73.936889 
L 656.759254 73.936889 
L 665.206479 73.936889 
L 673.653704 73.936889 
L 682.100929 73.936889 
L 690.548153 73.936889 
L 698.995378 73.936889 
L 707.442603 73.936889 
L 715.889828 73.936889 
L 724.337052 73.936889 
L 732.784277 73.936889 
L 741.231502 73.936889 
L 749.678727 73.936889 
L 758.125952 73.936889 
L 766.573176 73.936889 
L 775.020401 73.936889 
L 783.467626 73.936889 
L 791.914851 73.936889 
L 800.362075 73.936889 
L 808.8093 73.936889 
L 817.256525 73.936889 
L 825.70375 73.936889 
L 834.150975 73.936889 
L 842.598199 73.936889 
L 851.045424 73.936889 
L 859.492649 73.936889 
L 867.939874 73.936889 
L 876.387098 73.936889 
L 884.834323 73.936889 
L 893.281548 73.936889 
" clip-path="url(#p90e9e07d76)" style="fill: none; stroke: #393b79; stroke-width: 2; stroke-linecap: round"/>
   </g>
   <g id="line2d_38">
    <path d="M 48.559071 124.016997 
L 57.006295 123.847498 
L 65.45352 123.678655 
L 73.900745 123.510118 
L 82.34797 123.339681 
L 90.795195 123.169901 
L 99.242419 123.000773 
L 107.689644 122.832298 
L 116.136869 122.664472 
L 124.584094 122.497293 
L 133.031318 122.330761 
L 141.478543 122.16487 
L 149.925768 121.999616 
L 158.372993 121.834997 
L 166.820217 121.671011 
L 175.267442 121.507654 
L 183.714667 121.344925 
L 192.161892 121.182821 
L 200.609117 121.021344 
L 209.056341 120.860486 
L 217.503566 120.700243 
L 225.950791 120.540615 
L 234.398016 120.381605 
L 242.84524 120.223203 
L 251.292465 120.06541 
L 259.73969 119.908221 
L 268.186915 119.751635 
L 276.63414 119.595646 
L 285.081364 119.440254 
L 293.528589 119.28546 
L 301.975814 119.131259 
L 310.423039 118.977647 
L 318.870263 118.822375 
L 327.317488 118.667281 
L 335.764713 118.512779 
L 344.211938 118.358865 
L 352.659162 118.205539 
L 361.106387 118.052798 
L 369.553612 117.900644 
L 378.000837 117.74907 
L 386.448062 117.598074 
L 394.895286 117.447653 
L 403.342511 117.297803 
L 411.789736 117.148525 
L 420.236961 116.999814 
L 428.684185 116.851671 
L 437.13141 116.70409 
L 445.578635 116.557071 
L 454.02586 116.41061 
L 462.473085 116.264708 
L 470.920309 116.119362 
L 479.367534 115.974569 
L 487.814759 115.830324 
L 496.261984 115.68663 
L 504.709208 115.543484 
L 513.156433 115.40088 
L 521.603658 115.25882 
L 530.050883 115.117298 
L 538.498107 114.976313 
L 546.945332 114.835861 
L 555.392557 114.695942 
L 563.839782 114.556552 
L 572.287007 114.41769 
L 580.734231 114.279047 
L 589.181456 114.138827 
L 597.628681 113.999142 
L 606.075906 113.859985 
L 614.52313 113.721355 
L 622.970355 113.583248 
L 631.41758 113.445663 
L 639.864805 113.308597 
L 648.31203 113.17205 
L 656.759254 113.036018 
L 665.206479 112.900502 
L 673.653704 112.765496 
L 682.100929 112.631 
L 690.548153 112.497012 
L 698.995378 112.363528 
L 707.442603 112.23055 
L 715.889828 112.098077 
L 724.337052 111.966104 
L 732.784277 111.834628 
L 741.231502 111.703646 
L 749.678727 111.573158 
L 758.125952 111.443161 
L 766.573176 111.313654 
L 775.020401 111.184633 
L 783.467626 111.056098 
L 791.914851 110.928046 
L 800.362075 110.800479 
L 808.8093 110.673392 
L 817.256525 110.546784 
L 825.70375 110.420651 
L 834.150975 110.294991 
L 842.598199 110.169804 
L 851.045424 110.045087 
L 859.492649 109.92084 
L 867.939874 109.797061 
L 876.387098 109.673748 
L 884.834323 109.550764 
L 893.281548 109.426219 
" clip-path="url(#p90e9e07d76)" style="fill: none; stroke: #6b6ecf; stroke-width: 2; stroke-linecap: round"/>
   </g>
   <g id="line2d_39">
    <path d="M 48.559071 262.943183 
L 57.006295 262.437289 
L 65.45352 261.928495 
L 73.900745 261.420676 
L 82.34797 260.915455 
L 90.795195 260.412775 
L 99.242419 259.912463 
L 107.689644 259.407908 
L 116.136869 258.905865 
L 124.584094 258.406379 
L 133.031318 257.909362 
L 141.478543 257.413668 
L 149.925768 256.914699 
L 158.372993 256.418195 
L 166.820217 255.924124 
L 175.267442 255.432529 
L 183.714667 254.942052 
L 192.161892 254.448454 
L 200.609117 253.957378 
L 209.056341 253.468672 
L 217.503566 252.982368 
L 225.950791 252.497933 
L 234.398016 252.009545 
L 242.84524 251.523592 
L 251.292465 251.039991 
L 259.73969 250.558747 
L 268.186915 250.079835 
L 276.63414 249.597609 
L 285.081364 249.116607 
L 293.528589 248.63802 
L 301.975814 248.161739 
L 310.423039 247.687747 
L 318.870263 247.212915 
L 327.317488 246.736777 
L 335.764713 246.262908 
L 344.211938 245.791332 
L 352.659162 245.322004 
L 361.106387 244.855013 
L 369.553612 244.383997 
L 378.000837 243.914765 
L 386.448062 243.447751 
L 394.895286 242.983029 
L 403.342511 242.520558 
L 411.789736 242.058538 
L 420.236961 241.593824 
L 428.684185 241.131278 
L 437.13141 240.670918 
L 445.578635 240.212728 
L 454.02586 239.756737 
L 462.473085 239.300118 
L 470.920309 238.841911 
L 479.367534 238.385819 
L 487.814759 237.931897 
L 496.261984 237.48006 
L 504.709208 237.030374 
L 513.156433 236.580038 
L 521.603658 236.128121 
L 530.050883 235.678287 
L 538.498107 235.230536 
L 546.945332 234.784856 
L 555.392557 234.341264 
L 563.839782 233.897983 
L 572.287007 233.452142 
L 580.734231 233.00833 
L 589.181456 232.566574 
L 597.628681 232.126853 
L 606.075906 231.68915 
L 614.52313 231.253464 
L 622.970355 230.813982 
L 631.41758 230.37602 
L 639.864805 229.940044 
L 648.31203 229.506074 
L 656.759254 229.074059 
L 665.206479 228.644015 
L 673.653704 228.213602 
L 682.100929 227.781194 
L 690.548153 227.350807 
L 698.995378 226.922404 
L 707.442603 226.495939 
L 715.889828 226.071383 
L 724.337052 225.648738 
L 732.784277 225.224122 
L 741.231502 224.799049 
L 749.678727 224.375914 
L 758.125952 223.95475 
L 766.573176 223.535551 
L 775.020401 223.118232 
L 783.467626 222.702753 
L 791.914851 222.285056 
L 800.362075 221.867088 
L 808.8093 221.450987 
L 817.256525 221.036721 
L 825.70375 220.624314 
L 834.150975 220.213717 
L 842.598199 219.804973 
L 851.045424 219.395236 
L 859.492649 218.984142 
L 867.939874 218.574942 
L 876.387098 218.16759 
L 884.834323 217.762016 
L 893.281548 217.358237 
" clip-path="url(#p90e9e07d76)" style="fill: none; stroke: #637939; stroke-width: 2; stroke-linecap: round"/>
   </g>
   <g id="line2d_40">
    <path d="M 48.559071 358.64024 
L 57.006295 357.982735 
L 65.45352 357.328475 
L 73.900745 356.672323 
L 82.34797 356.018971 
L 90.795195 355.364857 
L 99.242419 354.712486 
L 107.689644 354.060322 
L 116.136869 353.408982 
L 124.584094 352.758675 
L 133.031318 352.108514 
L 141.478543 351.459921 
L 149.925768 350.811022 
L 158.372993 350.16412 
L 166.820217 349.516503 
L 175.267442 348.871216 
L 183.714667 348.225032 
L 192.161892 347.581272 
L 200.609117 346.936813 
L 209.056341 346.294499 
L 217.503566 345.651717 
L 225.950791 345.010742 
L 234.398016 344.36982 
L 242.84524 343.730112 
L 251.292465 343.091195 
L 259.73969 342.452695 
L 268.186915 341.815857 
L 276.63414 341.178507 
L 285.081364 340.544 
L 293.528589 339.907723 
L 301.975814 339.275629 
L 310.423039 338.640459 
L 318.870263 338.009171 
L 327.317488 337.376601 
L 335.764713 336.746329 
L 344.211938 336.116298 
L 352.659162 335.486919 
L 361.106387 334.859931 
L 369.553612 334.231237 
L 378.000837 333.606589 
L 386.448062 332.979327 
L 394.895286 332.355323 
L 403.342511 331.731412 
L 411.789736 331.108029 
L 420.236961 330.487566 
L 428.684185 329.864631 
L 437.13141 329.245651 
L 445.578635 328.625385 
L 454.02586 328.006792 
L 462.473085 327.39046 
L 470.920309 326.772296 
L 479.367534 326.157924 
L 487.814759 325.542116 
L 496.261984 324.92803 
L 504.709208 324.316547 
L 513.156433 323.702676 
L 521.603658 323.092552 
L 530.050883 322.482057 
L 538.498107 321.872163 
L 546.945332 321.265891 
L 555.392557 320.656344 
L 563.839782 320.049988 
L 572.287007 319.445726 
L 580.734231 318.839581 
L 589.181456 318.237025 
L 597.628681 317.634045 
L 606.075906 317.031347 
L 614.52313 316.432319 
L 622.970355 315.831232 
L 631.41758 315.232059 
L 639.864805 314.636416 
L 648.31203 314.037269 
L 656.759254 313.441359 
L 665.206479 312.848231 
L 673.653704 312.251998 
L 682.100929 311.659323 
L 690.548153 311.068762 
L 698.995378 310.475722 
L 707.442603 309.886144 
L 715.889828 309.298309 
L 724.337052 308.708239 
L 732.784277 308.121605 
L 741.231502 307.536761 
L 749.678727 306.949599 
L 758.125952 306.365853 
L 766.573176 305.784451 
L 775.020401 305.200152 
L 783.467626 304.619172 
L 791.914851 304.04132 
L 800.362075 303.459633 
L 808.8093 302.881241 
L 817.256525 302.306123 
L 825.70375 301.728096 
L 834.150975 301.152197 
L 842.598199 300.579573 
L 851.045424 300.005805 
L 859.492649 299.432444 
L 867.939874 298.862387 
L 876.387098 298.293277 
L 884.834323 297.722325 
L 893.281548 297.154536 
" clip-path="url(#p90e9e07d76)" style="fill: none; stroke: #b5cf6b; stroke-width: 2; stroke-linecap: round"/>
   </g>
   <g id="line2d_41">
    <path d="M 48.559071 467.016476 
L 57.006295 466.400332 
L 65.45352 465.782339 
L 73.900745 465.16296 
L 82.34797 464.541965 
L 90.795195 463.919389 
L 99.242419 463.295437 
L 107.689644 462.669877 
L 116.136869 462.042925 
L 124.584094 461.414574 
L 133.031318 460.784681 
L 141.478543 460.153586 
L 149.925768 459.521002 
L 158.372993 458.88701 
L 166.820217 458.25183 
L 175.267442 457.615491 
L 183.714667 456.977567 
L 192.161892 456.338474 
L 200.609117 455.698232 
L 209.056341 455.056819 
L 217.503566 454.414222 
L 225.950791 453.770485 
L 234.398016 453.1256 
L 242.84524 452.479593 
L 251.292465 451.83249 
L 259.73969 451.1843 
L 268.186915 450.535048 
L 276.63414 449.884806 
L 285.081364 449.233563 
L 293.528589 448.581393 
L 301.975814 447.928356 
L 310.423039 447.274386 
L 318.870263 446.619088 
L 327.317488 445.963099 
L 335.764713 445.306378 
L 344.211938 444.648839 
L 352.659162 443.990161 
L 361.106387 443.330752 
L 369.553612 442.670821 
L 378.000837 442.009815 
L 386.448062 441.348004 
L 394.895286 440.685901 
L 403.342511 440.022479 
L 411.789736 439.358732 
L 420.236961 438.694199 
L 428.684185 438.028899 
L 437.13141 437.363253 
L 445.578635 436.696505 
L 454.02586 436.029631 
L 462.473085 435.361686 
L 470.920309 434.69363 
L 479.367534 434.024634 
L 487.814759 433.355266 
L 496.261984 432.685453 
L 504.709208 432.014813 
L 513.156433 431.344294 
L 521.603658 430.67253 
L 530.050883 430.00073 
L 538.498107 429.328824 
L 546.945332 428.655675 
L 555.392557 427.982517 
L 563.839782 427.309321 
L 572.287007 426.635076 
L 580.734231 425.960774 
L 589.181456 425.286408 
L 597.628681 424.611477 
L 606.075906 423.935855 
L 614.52313 423.260234 
L 622.970355 422.584592 
L 631.41758 421.90886 
L 639.864805 421.232106 
L 648.31203 420.555304 
L 656.759254 419.878384 
L 665.206479 419.201346 
L 673.653704 418.524295 
L 682.100929 417.847153 
L 690.548153 417.169258 
L 698.995378 416.491309 
L 707.442603 415.813259 
L 715.889828 415.135122 
L 724.337052 414.456943 
L 732.784277 413.778676 
L 741.231502 413.100311 
L 749.678727 412.421923 
L 758.125952 411.743486 
L 766.573176 411.065033 
L 775.020401 410.386534 
L 783.467626 409.707956 
L 791.914851 409.02935 
L 800.362075 408.350705 
L 808.8093 407.672037 
L 817.256525 406.993362 
L 825.70375 406.314702 
L 834.150975 405.636064 
L 842.598199 404.957484 
L 851.045424 404.279032 
L 859.492649 403.600695 
L 867.939874 402.922505 
L 876.387098 402.244492 
L 884.834323 401.566624 
L 893.281548 400.888969 
" clip-path="url(#p90e9e07d76)" style="fill: none; stroke: #8c6d31; stroke-width: 2; stroke-linecap: round"/>
   </g>
   <g id="line2d_42">
    <path d="M 48.559071 507.469181 
L 57.006295 507.077057 
L 65.45352 506.680569 
L 73.900745 506.279799 
L 82.34797 505.874793 
L 90.795195 505.465583 
L 99.242419 505.052237 
L 107.689644 504.634787 
L 116.136869 504.213255 
L 124.584094 503.787714 
L 133.031318 503.358201 
L 141.478543 502.924736 
L 149.925768 502.487417 
L 158.372993 502.046225 
L 166.820217 501.601239 
L 175.267442 501.152495 
L 183.714667 500.699977 
L 192.161892 500.243845 
L 200.609117 499.78407 
L 209.056341 499.320705 
L 217.503566 498.853767 
L 225.950791 498.38333 
L 234.398016 497.909414 
L 242.84524 497.432056 
L 251.292465 496.951296 
L 259.73969 496.467187 
L 268.186915 495.979758 
L 276.63414 495.489089 
L 285.081364 494.995118 
L 293.528589 494.498002 
L 301.975814 493.997686 
L 310.423039 493.494276 
L 318.870263 492.987713 
L 327.317488 492.478163 
L 335.764713 491.965605 
L 344.211938 491.450013 
L 352.659162 490.93149 
L 361.106387 490.410136 
L 369.553612 489.885796 
L 378.000837 489.35867 
L 386.448062 488.828743 
L 394.895286 488.296052 
L 403.342511 487.760643 
L 411.789736 487.222515 
L 420.236961 486.681734 
L 428.684185 486.138384 
L 437.13141 485.592317 
L 445.578635 485.043803 
L 454.02586 484.492609 
L 462.473085 483.93904 
L 470.920309 483.38305 
L 479.367534 482.824505 
L 487.814759 482.263583 
L 496.261984 481.700304 
L 504.709208 481.134704 
L 513.156433 480.566816 
L 521.603658 479.99667 
L 530.050883 479.424235 
L 538.498107 478.849579 
L 546.945332 478.272786 
L 555.392557 477.693752 
L 563.839782 477.112566 
L 572.287007 476.529456 
L 580.734231 475.944249 
L 589.181456 475.356904 
L 597.628681 474.767643 
L 606.075906 474.176341 
L 614.52313 473.58305 
L 622.970355 472.987914 
L 631.41758 472.390892 
L 639.864805 471.792008 
L 648.31203 471.191289 
L 656.759254 470.588712 
L 665.206479 469.984328 
L 673.653704 469.378246 
L 682.100929 468.770467 
L 690.548153 468.161037 
L 698.995378 467.549839 
L 707.442603 466.936919 
L 715.889828 466.322478 
L 724.337052 465.706497 
L 732.784277 465.088738 
L 741.231502 464.46967 
L 749.678727 463.848826 
L 758.125952 463.226753 
L 766.573176 462.602992 
L 775.020401 461.978114 
L 783.467626 461.351365 
L 791.914851 460.723499 
L 800.362075 460.09425 
L 808.8093 459.463419 
L 817.256525 458.831409 
L 825.70375 458.198216 
L 834.150975 457.563542 
L 842.598199 456.927559 
L 851.045424 456.290444 
L 859.492649 455.652171 
L 867.939874 455.012751 
L 876.387098 454.372195 
L 884.834323 453.730469 
L 893.281548 453.087611 
" clip-path="url(#p90e9e07d76)" style="fill: none; stroke: #e7cb94; stroke-width: 2; stroke-linecap: round"/>
   </g>
   <g id="line2d_43">
    <path d="M 48.559071 516.736996 
L 57.006295 516.49257 
L 65.45352 516.242315 
L 73.900745 515.986304 
L 82.34797 515.724594 
L 90.795195 515.457229 
L 99.242419 515.184279 
L 107.689644 514.905792 
L 116.136869 514.621819 
L 124.584094 514.33242 
L 133.031318 514.037647 
L 141.478543 513.737539 
L 149.925768 513.432181 
L 158.372993 513.121597 
L 166.820217 512.805839 
L 175.267442 512.484983 
L 183.714667 512.159039 
L 192.161892 511.828114 
L 200.609117 511.492239 
L 209.056341 511.151457 
L 217.503566 510.805799 
L 225.950791 510.455343 
L 234.398016 510.100121 
L 242.84524 509.740196 
L 251.292465 509.375605 
L 259.73969 509.006409 
L 268.186915 508.632634 
L 276.63414 508.254365 
L 285.081364 507.871607 
L 293.528589 507.484443 
L 301.975814 507.0929 
L 310.423039 506.697043 
L 318.870263 506.296854 
L 327.317488 505.892485 
L 335.764713 505.483907 
L 344.211938 505.071119 
L 352.659162 504.65431 
L 361.106387 504.233424 
L 369.553612 503.808519 
L 378.000837 503.37965 
L 386.448062 502.94684 
L 394.895286 502.510138 
L 403.342511 502.069626 
L 411.789736 501.625294 
L 420.236961 501.177203 
L 428.684185 500.72543 
L 437.13141 500.269953 
L 445.578635 499.81086 
L 454.02586 499.348141 
L 462.473085 498.881911 
L 470.920309 498.412164 
L 479.367534 497.938931 
L 487.814759 497.462278 
L 496.261984 496.982248 
L 504.709208 496.49886 
L 513.156433 496.01214 
L 521.603658 495.522127 
L 530.050883 495.028939 
L 538.498107 494.532539 
L 546.945332 494.032988 
L 555.392557 493.530234 
L 563.839782 493.02439 
L 572.287007 492.515623 
L 580.734231 492.003809 
L 589.181456 491.488952 
L 597.628681 490.971195 
L 606.075906 490.450471 
L 614.52313 489.926977 
L 622.970355 489.400611 
L 631.41758 488.871439 
L 639.864805 488.339514 
L 648.31203 487.804874 
L 656.759254 487.267528 
L 665.206479 486.727481 
L 673.653704 486.184802 
L 682.100929 485.639615 
L 690.548153 485.091782 
L 698.995378 484.541536 
L 707.442603 483.988659 
L 715.889828 483.433363 
L 724.337052 482.875686 
L 732.784277 482.315604 
L 741.231502 481.753117 
L 749.678727 481.188288 
L 758.125952 480.621147 
L 766.573176 480.051745 
L 775.020401 479.480126 
L 783.467626 478.90632 
L 791.914851 478.330308 
L 800.362075 477.75207 
L 808.8093 477.171835 
L 817.256525 476.589317 
L 825.70375 476.004879 
L 834.150975 475.418335 
L 842.598199 474.829745 
L 851.045424 474.239303 
L 859.492649 473.64697 
L 867.939874 473.052581 
L 876.387098 472.456346 
L 884.834323 471.858248 
L 893.281548 471.258342 
" clip-path="url(#p90e9e07d76)" style="fill: none; stroke: #ad494a; stroke-width: 2; stroke-linecap: round"/>
   </g>
   <g id="line2d_44">
    <path d="M 48.559071 519.559471 
L 57.006295 519.404743 
L 65.45352 519.24334 
L 73.900745 519.075335 
L 82.34797 518.900791 
L 90.795195 518.719761 
L 99.242419 518.532317 
L 107.689644 518.338516 
L 116.136869 518.138413 
L 124.584094 517.932074 
L 133.031318 517.719558 
L 141.478543 517.500912 
L 149.925768 517.276217 
L 158.372993 517.045511 
L 166.820217 516.808857 
L 175.267442 516.566323 
L 183.714667 516.317938 
L 192.161892 516.063799 
L 200.609117 515.803951 
L 209.056341 515.538435 
L 217.503566 515.267308 
L 225.950791 514.990633 
L 234.398016 514.708458 
L 242.84524 514.420842 
L 251.292465 514.127842 
L 259.73969 513.829501 
L 268.186915 513.525877 
L 276.63414 513.217034 
L 285.081364 512.903008 
L 293.528589 512.583864 
L 301.975814 512.259656 
L 310.423039 511.930434 
L 318.870263 511.596195 
L 327.317488 511.257086 
L 335.764713 510.913105 
L 344.211938 510.564242 
L 352.659162 510.210688 
L 361.106387 509.852388 
L 369.553612 509.489405 
L 378.000837 509.121809 
L 386.448062 508.749626 
L 394.895286 508.372923 
L 403.342511 507.991758 
L 411.789736 507.606145 
L 420.236961 507.216143 
L 428.684185 506.821815 
L 437.13141 506.423187 
L 445.578635 506.020296 
L 454.02586 505.613204 
L 462.473085 505.201963 
L 470.920309 504.786635 
L 479.367534 504.367212 
L 487.814759 503.943755 
L 496.261984 503.516333 
L 504.709208 503.084976 
L 513.156433 502.649714 
L 521.603658 502.210604 
L 530.050883 501.7677 
L 538.498107 501.321041 
L 546.945332 500.870631 
L 555.392557 500.416532 
L 563.839782 499.958735 
L 572.287007 499.497451 
L 580.734231 499.032588 
L 589.181456 498.56418 
L 597.628681 498.092292 
L 606.075906 497.616915 
L 614.52313 497.138185 
L 622.970355 496.656117 
L 631.41758 496.170711 
L 639.864805 495.68202 
L 648.31203 495.190118 
L 656.759254 494.694926 
L 665.206479 494.196609 
L 673.653704 493.695155 
L 682.100929 493.190609 
L 690.548153 492.683014 
L 698.995378 492.172434 
L 707.442603 491.65879 
L 715.889828 491.142217 
L 724.337052 490.622762 
L 732.784277 490.100418 
L 741.231502 489.575182 
L 749.678727 489.04718 
L 758.125952 488.516421 
L 766.573176 487.982933 
L 775.020401 487.446742 
L 783.467626 486.907867 
L 791.914851 486.366424 
L 800.362075 485.822223 
L 808.8093 485.275552 
L 817.256525 484.726254 
L 825.70375 484.174554 
L 834.150975 483.620281 
L 842.598199 483.06357 
L 851.045424 482.504514 
L 859.492649 481.943096 
L 867.939874 481.379337 
L 876.387098 480.813283 
L 884.834323 480.244937 
L 893.281548 479.67439 
" clip-path="url(#p90e9e07d76)" style="fill: none; stroke: #e7969c; stroke-width: 2; stroke-linecap: round"/>
   </g>
   <g id="line2d_45">
    <path d="M 48.559071 520.557093 
L 57.006295 520.444749 
L 65.45352 520.338111 
L 73.900745 520.224396 
L 82.34797 520.103637 
L 90.795195 519.975895 
L 99.242419 519.841239 
L 107.689644 519.699731 
L 116.136869 519.551432 
L 124.584094 519.396411 
L 133.031318 519.234727 
L 141.478543 519.066438 
L 149.925768 518.891619 
L 158.372993 518.710319 
L 166.820217 518.522601 
L 175.267442 518.328537 
L 183.714667 518.128163 
L 192.161892 517.921571 
L 200.609117 517.708809 
L 209.056341 517.489932 
L 217.503566 517.264992 
L 225.950791 517.034057 
L 234.398016 516.797178 
L 242.84524 516.55442 
L 251.292465 516.305836 
L 259.73969 516.051482 
L 268.186915 515.791414 
L 276.63414 515.525696 
L 285.081364 515.254371 
L 293.528589 514.977504 
L 301.975814 514.695154 
L 310.423039 514.407368 
L 318.870263 514.114168 
L 327.317488 513.815672 
L 335.764713 513.511902 
L 344.211938 513.202856 
L 352.659162 512.888699 
L 361.106387 512.569405 
L 369.553612 512.245043 
L 378.000837 511.915666 
L 386.448062 511.581315 
L 394.895286 511.242059 
L 403.342511 510.897944 
L 411.789736 510.549008 
L 420.236961 510.195296 
L 428.684185 509.836889 
L 437.13141 509.47381 
L 445.578635 509.106096 
L 454.02586 508.733808 
L 462.473085 508.357021 
L 470.920309 507.975754 
L 479.367534 507.590054 
L 487.814759 507.199968 
L 496.261984 506.805545 
L 504.709208 506.406834 
L 513.156433 506.003885 
L 521.603658 505.596728 
L 530.050883 505.185447 
L 538.498107 504.770048 
L 546.945332 504.350569 
L 555.392557 503.927049 
L 563.839782 503.499528 
L 572.287007 503.068165 
L 580.734231 502.632904 
L 589.181456 502.193742 
L 597.628681 501.750787 
L 606.075906 501.304055 
L 614.52313 500.853612 
L 622.970355 500.399515 
L 631.41758 499.941773 
L 639.864805 499.480444 
L 648.31203 499.015551 
L 656.759254 498.547104 
L 665.206479 498.07519 
L 673.653704 497.599852 
L 682.100929 497.121148 
L 690.548153 496.639074 
L 698.995378 496.153675 
L 707.442603 495.66497 
L 715.889828 495.173029 
L 724.337052 494.677908 
L 732.784277 494.179613 
L 741.231502 493.678148 
L 749.678727 493.173615 
L 758.125952 492.666046 
L 766.573176 492.155485 
L 775.020401 491.641949 
L 783.467626 491.125387 
L 791.914851 490.606015 
L 800.362075 490.083651 
L 808.8093 489.558478 
L 817.256525 489.030515 
L 825.70375 488.499769 
L 834.150975 487.966272 
L 842.598199 487.430051 
L 851.045424 486.891212 
L 859.492649 486.349786 
L 867.939874 485.80571 
L 876.387098 485.25911 
L 884.834323 484.709954 
L 893.281548 484.158362 
" clip-path="url(#p90e9e07d76)" style="fill: none; stroke: #a55194; stroke-width: 2; stroke-linecap: round"/>
   </g>
   <g id="line2d_46">
    <path d="M 48.559071 521.392256 
L 57.006295 521.164116 
L 65.45352 520.967728 
L 73.900745 520.798639 
L 82.34797 520.652971 
L 90.795195 520.527398 
L 99.242419 520.418711 
L 107.689644 520.310356 
L 116.136869 520.194903 
L 124.584094 520.072424 
L 133.031318 519.942979 
L 141.478543 519.806631 
L 149.925768 519.663454 
L 158.372993 519.513503 
L 166.820217 519.35684 
L 175.267442 519.193538 
L 183.714667 519.023639 
L 192.161892 518.847234 
L 200.609117 518.664372 
L 209.056341 518.475111 
L 217.503566 518.279508 
L 225.950791 518.077631 
L 234.398016 517.869533 
L 242.84524 517.655279 
L 251.292465 517.434926 
L 259.73969 517.208533 
L 268.186915 516.976155 
L 276.63414 516.737861 
L 285.081364 516.493694 
L 293.528589 516.24372 
L 301.975814 515.988 
L 310.423039 515.726587 
L 318.870263 515.459502 
L 327.317488 515.186863 
L 335.764713 514.908691 
L 344.211938 514.624998 
L 352.659162 514.33594 
L 361.106387 514.041495 
L 369.553612 513.741734 
L 378.000837 513.43671 
L 386.448062 513.126472 
L 394.895286 512.811082 
L 403.342511 512.4906 
L 411.789736 512.165055 
L 420.236961 511.8345 
L 428.684185 511.499009 
L 437.13141 511.158607 
L 445.578635 510.813347 
L 454.02586 510.463284 
L 462.473085 510.108489 
L 470.920309 509.748992 
L 479.367534 509.384837 
L 487.814759 509.016064 
L 496.261984 508.642738 
L 504.709208 508.2649 
L 513.156433 507.882609 
L 521.603658 507.495888 
L 530.050883 507.104828 
L 538.498107 506.709442 
L 546.945332 506.309751 
L 555.392557 505.905808 
L 563.839782 505.497671 
L 572.287007 505.08548 
L 580.734231 504.669171 
L 589.181456 504.248775 
L 597.628681 503.824351 
L 606.075906 503.395968 
L 614.52313 502.963683 
L 622.970355 502.527533 
L 631.41758 502.087552 
L 639.864805 501.643775 
L 648.31203 501.196245 
L 656.759254 500.744964 
L 665.206479 500.290011 
L 673.653704 499.831464 
L 682.100929 499.369341 
L 690.548153 498.903657 
L 698.995378 498.434481 
L 707.442603 497.961863 
L 715.889828 497.485743 
L 724.337052 497.00628 
L 732.784277 496.523467 
L 741.231502 496.037326 
L 749.678727 495.547934 
L 758.125952 495.055329 
L 766.573176 494.559512 
L 775.020401 494.060558 
L 783.467626 493.558473 
L 791.914851 493.053313 
L 800.362075 492.545072 
L 808.8093 492.033807 
L 817.256525 491.519592 
L 825.70375 491.002425 
L 834.150975 490.482343 
L 842.598199 489.959382 
L 851.045424 489.433665 
L 859.492649 488.905158 
L 867.939874 488.37387 
L 876.387098 487.839873 
L 884.834323 487.303139 
L 893.281548 486.763761 
" clip-path="url(#p90e9e07d76)" style="fill: none; stroke: #de9ed6; stroke-width: 2; stroke-linecap: round"/>
   </g>
   <g id="patch_3">
    <path d="M 48.559071 521.153031 
L 48.559071 51.564121 
" style="fill: none"/>
   </g>
   <g id="patch_4">
    <path d="M 935.517672 521.153031 
L 935.517672 51.564121 
" style="fill: none"/>
   </g>
   <g id="patch_5">
    <path d="M 48.559071 521.153031 
L 935.517672 521.153031 
" style="fill: none"/>
   </g>
   <g id="patch_6">
    <path d="M 48.559071 51.564121 
L 935.517672 51.564121 
" style="fill: none"/>
   </g>
   <g id="patch_7">
    <path d="M 470.920309 80.407935 
Q 470.920309 290.723156 470.920309 499.361326 
" style="fill: none; stroke: #000000; stroke-width: 1.5; stroke-linecap: round"/>
    <path d="M 474.120309 492.961326 
L 470.920309 499.361326 
L 467.720309 492.961326 
" style="fill: none; stroke: #000000; stroke-width: 1.5; stroke-linecap: round"/>
   </g>
   <g id="text_20">
    <!-- Time -->
    <g style="fill: #262626" transform="translate(492.038371 499.552686) scale(0.18 -0.18)">
     <defs>
      <path id="CMR17-54" d="M 3981 4326 
L 288 4326 
L 179 2918 
L 294 2918 
C 378 3976 467 4160 1453 4160 
C 1568 4160 1754 4160 1805 4154 
C 1926 4135 1926 4058 1926 3912 
L 1926 459 
C 1926 230 1907 160 1376 160 
L 1197 160 
L 1197 0 
C 1504 0 1824 0 2138 0 
C 2451 0 2771 0 3078 0 
L 3078 160 
L 2899 160 
C 2368 160 2349 230 2349 459 
L 2349 3912 
C 2349 4052 2349 4129 2464 4154 
C 2515 4160 2701 4160 2816 4160 
C 3795 4160 3891 3976 3974 2918 
L 4090 2918 
L 3981 4326 
z
" transform="scale(0.015625)"/>
      <path id="CMR17-69" d="M 992 3909 
C 992 4049 877 4170 730 4170 
C 589 4170 467 4056 467 3909 
C 467 3769 582 3648 730 3648 
C 870 3648 992 3763 992 3909 
z
M 243 2706 
L 243 2541 
C 602 2541 653 2502 653 2197 
L 653 427 
C 653 184 627 153 218 153 
L 218 -13 
C 371 0 646 0 806 0 
C 960 0 1222 0 1370 -13 
L 1370 153 
C 992 153 979 191 979 420 
L 979 2776 
L 243 2706 
z
" transform="scale(0.015625)"/>
      <path id="CMR17-6d" d="M 4326 1933 
C 4326 2252 4269 2790 3507 2790 
C 3072 2790 2771 2496 2656 2151 
L 2650 2151 
C 2573 2676 2195 2790 1837 2790 
C 1331 2790 1069 2400 973 2144 
L 966 2144 
L 966 2790 
L 211 2720 
L 211 2554 
C 589 2554 646 2515 646 2208 
L 646 428 
C 646 184 621 153 211 153 
L 211 -13 
C 365 0 646 0 813 0 
C 979 0 1267 0 1421 -13 
L 1421 153 
C 1011 153 986 178 986 428 
L 986 1658 
C 986 2247 1344 2688 1792 2688 
C 2266 2688 2317 2266 2317 1958 
L 2317 428 
C 2317 184 2291 153 1882 153 
L 1882 -13 
C 2035 0 2317 0 2483 0 
C 2650 0 2938 0 3091 -13 
L 3091 153 
C 2682 153 2656 178 2656 428 
L 2656 1658 
C 2656 2247 3014 2688 3462 2688 
C 3936 2688 3987 2266 3987 1958 
L 3987 428 
C 3987 184 3962 153 3552 153 
L 3552 -13 
C 3706 0 3987 0 4154 0 
C 4320 0 4608 0 4762 -13 
L 4762 153 
C 4352 153 4326 178 4326 428 
L 4326 1933 
z
" transform="scale(0.015625)"/>
      <path id="CMR17-65" d="M 2438 1472 
C 2464 1498 2464 1511 2464 1576 
C 2464 2238 2118 2816 1389 2816 
C 710 2816 173 2169 173 1383 
C 173 551 781 -64 1459 -64 
C 2176 -64 2458 607 2458 740 
C 2458 784 2419 784 2406 784 
C 2362 784 2355 771 2330 696 
C 2189 265 1837 51 1504 51 
C 1229 51 954 203 781 480 
C 582 803 582 1176 582 1472 
L 2438 1472 
z
M 589 1568 
C 634 2505 1126 2714 1382 2714 
C 1818 2714 2112 2297 2118 1568 
L 589 1568 
z
" transform="scale(0.015625)"/>
     </defs>
     <use xlink:href="#CMR17-54" transform="scale(0.996264)"/>
     <use xlink:href="#CMR17-69" transform="translate(66.509881 0) scale(0.996264)"/>
     <use xlink:href="#CMR17-6d" transform="translate(91.380939 0) scale(0.996264)"/>
     <use xlink:href="#CMR17-65" transform="translate(168.300529 0) scale(0.996264)"/>
    </g>
   </g>
   <g id="legend_1">
    <g id="line2d_47">
     <path d="M 948.117672 197.198434 
L 962.117672 197.198434 
L 976.117672 197.198434 
" style="fill: none; stroke: #393b79; stroke-width: 2; stroke-linecap: round"/>
    </g>
    <g id="text_21">
     <!-- t = 0.00 -->
     <g style="fill: #262626" transform="translate(987.317672 202.098434) scale(0.14 -0.14)">
      <defs>
       <path id="CMR17-74" d="M 966 2560 
L 1862 2560 
L 1862 2725 
L 966 2725 
L 966 3904 
L 851 3904 
C 838 3245 614 2668 70 2668 
L 70 2560 
L 627 2560 
L 627 771 
C 627 650 627 -64 1370 -64 
C 1747 -64 1965 306 1965 777 
L 1965 1140 
L 1850 1140 
L 1850 783 
C 1850 344 1677 51 1408 51 
C 1222 51 966 178 966 758 
L 966 2560 
z
" transform="scale(0.015625)"/>
       <path id="CMR17-3d" d="M 4115 2017 
C 4211 2017 4307 2017 4307 2125 
C 4307 2240 4198 2240 4090 2240 
L 512 2240 
C 403 2240 294 2240 294 2125 
C 294 2017 390 2017 486 2017 
L 4115 2017 
z
M 4090 896 
C 4198 896 4307 896 4307 1011 
C 4307 1119 4211 1119 4115 1119 
L 486 1119 
C 390 1119 294 1119 294 1011 
C 294 896 403 896 512 896 
L 4090 896 
z
" transform="scale(0.015625)"/>
       <path id="CMR17-2e" d="M 1062 261 
C 1062 420 934 522 800 522 
C 672 522 538 420 538 261 
C 538 102 666 0 800 0 
C 928 0 1062 102 1062 261 
z
" transform="scale(0.015625)"/>
      </defs>
      <use xlink:href="#CMR17-74" transform="scale(0.996264)"/>
      <use xlink:href="#CMR17-3d" transform="translate(65.356734 0) scale(0.996264)"/>
      <use xlink:href="#CMR17-30" transform="translate(167.147489 0) scale(0.996264)"/>
      <use xlink:href="#CMR17-2e" transform="translate(212.837966 0) scale(0.996264)"/>
      <use xlink:href="#CMR17-30" transform="translate(237.709025 0) scale(0.996264)"/>
      <use xlink:href="#CMR17-30" transform="translate(283.399502 0) scale(0.996264)"/>
     </g>
    </g>
    <g id="line2d_48">
     <path d="M 948.117672 216.710462 
L 962.117672 216.710462 
L 976.117672 216.710462 
" style="fill: none; stroke: #6b6ecf; stroke-width: 2; stroke-linecap: round"/>
    </g>
    <g id="text_22">
     <!-- t = 10.00 -->
     <g style="fill: #262626" transform="translate(987.317672 221.610462) scale(0.14 -0.14)">
      <use xlink:href="#CMR17-74" transform="scale(0.996264)"/>
      <use xlink:href="#CMR17-3d" transform="translate(65.356734 0) scale(0.996264)"/>
      <use xlink:href="#CMR17-31" transform="translate(167.147489 0) scale(0.996264)"/>
      <use xlink:href="#CMR17-30" transform="translate(212.837966 0) scale(0.996264)"/>
      <use xlink:href="#CMR17-2e" transform="translate(258.528443 0) scale(0.996264)"/>
      <use xlink:href="#CMR17-30" transform="translate(283.399502 0) scale(0.996264)"/>
      <use xlink:href="#CMR17-30" transform="translate(329.089979 0) scale(0.996264)"/>
     </g>
    </g>
    <g id="line2d_49">
     <path d="M 948.117672 236.222491 
L 962.117672 236.222491 
L 976.117672 236.222491 
" style="fill: none; stroke: #637939; stroke-width: 2; stroke-linecap: round"/>
    </g>
    <g id="text_23">
     <!-- t = 50.00 -->
     <g style="fill: #262626" transform="translate(987.317672 241.122491) scale(0.14 -0.14)">
      <use xlink:href="#CMR17-74" transform="scale(0.996264)"/>
      <use xlink:href="#CMR17-3d" transform="translate(65.356734 0) scale(0.996264)"/>
      <use xlink:href="#CMR17-35" transform="translate(167.147489 0) scale(0.996264)"/>
      <use xlink:href="#CMR17-30" transform="translate(212.837966 0) scale(0.996264)"/>
      <use xlink:href="#CMR17-2e" transform="translate(258.528443 0) scale(0.996264)"/>
      <use xlink:href="#CMR17-30" transform="translate(283.399502 0) scale(0.996264)"/>
      <use xlink:href="#CMR17-30" transform="translate(329.089979 0) scale(0.996264)"/>
     </g>
    </g>
    <g id="line2d_50">
     <path d="M 948.117672 255.734519 
L 962.117672 255.734519 
L 976.117672 255.734519 
" style="fill: none; stroke: #b5cf6b; stroke-width: 2; stroke-linecap: round"/>
    </g>
    <g id="text_24">
     <!-- t = 100.00 -->
     <g style="fill: #262626" transform="translate(987.317672 260.634519) scale(0.14 -0.14)">
      <use xlink:href="#CMR17-74" transform="scale(0.996264)"/>
      <use xlink:href="#CMR17-3d" transform="translate(65.356734 0) scale(0.996264)"/>
      <use xlink:href="#CMR17-31" transform="translate(167.147489 0) scale(0.996264)"/>
      <use xlink:href="#CMR17-30" transform="translate(212.837966 0) scale(0.996264)"/>
      <use xlink:href="#CMR17-30" transform="translate(258.528443 0) scale(0.996264)"/>
      <use xlink:href="#CMR17-2e" transform="translate(304.21892 0) scale(0.996264)"/>
      <use xlink:href="#CMR17-30" transform="translate(329.089979 0) scale(0.996264)"/>
      <use xlink:href="#CMR17-30" transform="translate(374.780456 0) scale(0.996264)"/>
     </g>
    </g>
    <g id="line2d_51">
     <path d="M 948.117672 275.246547 
L 962.117672 275.246547 
L 976.117672 275.246547 
" style="fill: none; stroke: #8c6d31; stroke-width: 2; stroke-linecap: round"/>
    </g>
    <g id="text_25">
     <!-- t = 250.00 -->
     <g style="fill: #262626" transform="translate(987.317672 280.146547) scale(0.14 -0.14)">
      <use xlink:href="#CMR17-74" transform="scale(0.996264)"/>
      <use xlink:href="#CMR17-3d" transform="translate(65.356734 0) scale(0.996264)"/>
      <use xlink:href="#CMR17-32" transform="translate(167.147489 0) scale(0.996264)"/>
      <use xlink:href="#CMR17-35" transform="translate(212.837966 0) scale(0.996264)"/>
      <use xlink:href="#CMR17-30" transform="translate(258.528443 0) scale(0.996264)"/>
      <use xlink:href="#CMR17-2e" transform="translate(304.21892 0) scale(0.996264)"/>
      <use xlink:href="#CMR17-30" transform="translate(329.089979 0) scale(0.996264)"/>
      <use xlink:href="#CMR17-30" transform="translate(374.780456 0) scale(0.996264)"/>
     </g>
    </g>
    <g id="line2d_52">
     <path d="M 948.117672 294.758576 
L 962.117672 294.758576 
L 976.117672 294.758576 
" style="fill: none; stroke: #e7cb94; stroke-width: 2; stroke-linecap: round"/>
    </g>
    <g id="text_26">
     <!-- t = 500.00 -->
     <g style="fill: #262626" transform="translate(987.317672 299.658576) scale(0.14 -0.14)">
      <use xlink:href="#CMR17-74" transform="scale(0.996264)"/>
      <use xlink:href="#CMR17-3d" transform="translate(65.356734 0) scale(0.996264)"/>
      <use xlink:href="#CMR17-35" transform="translate(167.147489 0) scale(0.996264)"/>
      <use xlink:href="#CMR17-30" transform="translate(212.837966 0) scale(0.996264)"/>
      <use xlink:href="#CMR17-30" transform="translate(258.528443 0) scale(0.996264)"/>
      <use xlink:href="#CMR17-2e" transform="translate(304.21892 0) scale(0.996264)"/>
      <use xlink:href="#CMR17-30" transform="translate(329.089979 0) scale(0.996264)"/>
      <use xlink:href="#CMR17-30" transform="translate(374.780456 0) scale(0.996264)"/>
     </g>
    </g>
    <g id="line2d_53">
     <path d="M 948.117672 314.270604 
L 962.117672 314.270604 
L 976.117672 314.270604 
" style="fill: none; stroke: #ad494a; stroke-width: 2; stroke-linecap: round"/>
    </g>
    <g id="text_27">
     <!-- t = 750.00 -->
     <g style="fill: #262626" transform="translate(987.317672 319.170604) scale(0.14 -0.14)">
      <use xlink:href="#CMR17-74" transform="scale(0.996264)"/>
      <use xlink:href="#CMR17-3d" transform="translate(65.356734 0) scale(0.996264)"/>
      <use xlink:href="#CMR17-37" transform="translate(167.147489 0) scale(0.996264)"/>
      <use xlink:href="#CMR17-35" transform="translate(212.837966 0) scale(0.996264)"/>
      <use xlink:href="#CMR17-30" transform="translate(258.528443 0) scale(0.996264)"/>
      <use xlink:href="#CMR17-2e" transform="translate(304.21892 0) scale(0.996264)"/>
      <use xlink:href="#CMR17-30" transform="translate(329.089979 0) scale(0.996264)"/>
      <use xlink:href="#CMR17-30" transform="translate(374.780456 0) scale(0.996264)"/>
     </g>
    </g>
    <g id="line2d_54">
     <path d="M 948.117672 333.782633 
L 962.117672 333.782633 
L 976.117672 333.782633 
" style="fill: none; stroke: #e7969c; stroke-width: 2; stroke-linecap: round"/>
    </g>
    <g id="text_28">
     <!-- t = 1000.00 -->
     <g style="fill: #262626" transform="translate(987.317672 338.682633) scale(0.14 -0.14)">
      <use xlink:href="#CMR17-74" transform="scale(0.996264)"/>
      <use xlink:href="#CMR17-3d" transform="translate(65.356734 0) scale(0.996264)"/>
      <use xlink:href="#CMR17-31" transform="translate(167.147489 0) scale(0.996264)"/>
      <use xlink:href="#CMR17-30" transform="translate(212.837966 0) scale(0.996264)"/>
      <use xlink:href="#CMR17-30" transform="translate(258.528443 0) scale(0.996264)"/>
      <use xlink:href="#CMR17-30" transform="translate(304.21892 0) scale(0.996264)"/>
      <use xlink:href="#CMR17-2e" transform="translate(349.909397 0) scale(0.996264)"/>
      <use xlink:href="#CMR17-30" transform="translate(374.780456 0) scale(0.996264)"/>
      <use xlink:href="#CMR17-30" transform="translate(420.470933 0) scale(0.996264)"/>
     </g>
    </g>
    <g id="line2d_55">
     <path d="M 948.117672 353.294661 
L 962.117672 353.294661 
L 976.117672 353.294661 
" style="fill: none; stroke: #a55194; stroke-width: 2; stroke-linecap: round"/>
    </g>
    <g id="text_29">
     <!-- t = 1250.00 -->
     <g style="fill: #262626" transform="translate(987.317672 358.194661) scale(0.14 -0.14)">
      <use xlink:href="#CMR17-74" transform="scale(0.996264)"/>
      <use xlink:href="#CMR17-3d" transform="translate(65.356734 0) scale(0.996264)"/>
      <use xlink:href="#CMR17-31" transform="translate(167.147489 0) scale(0.996264)"/>
      <use xlink:href="#CMR17-32" transform="translate(212.837966 0) scale(0.996264)"/>
      <use xlink:href="#CMR17-35" transform="translate(258.528443 0) scale(0.996264)"/>
      <use xlink:href="#CMR17-30" transform="translate(304.21892 0) scale(0.996264)"/>
      <use xlink:href="#CMR17-2e" transform="translate(349.909397 0) scale(0.996264)"/>
      <use xlink:href="#CMR17-30" transform="translate(374.780456 0) scale(0.996264)"/>
      <use xlink:href="#CMR17-30" transform="translate(420.470933 0) scale(0.996264)"/>
     </g>
    </g>
    <g id="line2d_56">
     <path d="M 948.117672 372.806689 
L 962.117672 372.806689 
L 976.117672 372.806689 
" style="fill: none; stroke: #de9ed6; stroke-width: 2; stroke-linecap: round"/>
    </g>
    <g id="text_30">
     <!-- t = 1500.00 -->
     <g style="fill: #262626" transform="translate(987.317672 377.706689) scale(0.14 -0.14)">
      <use xlink:href="#CMR17-74" transform="scale(0.996264)"/>
      <use xlink:href="#CMR17-3d" transform="translate(65.356734 0) scale(0.996264)"/>
      <use xlink:href="#CMR17-31" transform="translate(167.147489 0) scale(0.996264)"/>
      <use xlink:href="#CMR17-35" transform="translate(212.837966 0) scale(0.996264)"/>
      <use xlink:href="#CMR17-30" transform="translate(258.528443 0) scale(0.996264)"/>
      <use xlink:href="#CMR17-30" transform="translate(304.21892 0) scale(0.996264)"/>
      <use xlink:href="#CMR17-2e" transform="translate(349.909397 0) scale(0.996264)"/>
      <use xlink:href="#CMR17-30" transform="translate(374.780456 0) scale(0.996264)"/>
      <use xlink:href="#CMR17-30" transform="translate(420.470933 0) scale(0.996264)"/>
     </g>
    </g>
   </g>
  </g>
  <g id="text_31">
   <!-- permeability -->
   <g style="fill: #262626" transform="translate(492.111452 24.803515) scale(0.192 -0.192)">
    <defs>
     <path id="CMR17-70" d="M 1408 -1063 
C 998 -1063 973 -1037 973 -789 
L 973 402 
C 1158 134 1427 -38 1766 -38 
C 2406 -38 3053 523 3053 1388 
C 3053 2191 2496 2802 1837 2802 
C 1453 2802 1139 2592 960 2338 
L 960 2802 
L 198 2732 
L 198 2567 
C 576 2567 634 2528 634 2223 
L 634 -789 
C 634 -1031 608 -1063 198 -1063 
L 198 -1228 
C 352 -1216 634 -1216 800 -1216 
C 966 -1216 1254 -1216 1408 -1228 
L 1408 -1063 
z
M 973 2012 
C 973 2102 973 2235 1222 2471 
C 1254 2497 1472 2688 1792 2688 
C 2259 2688 2643 2108 2643 1382 
C 2643 656 2234 64 1728 64 
C 1498 64 1248 172 1056 472 
C 973 612 973 650 973 752 
L 973 2012 
z
" transform="scale(0.015625)"/>
     <path id="CMR17-72" d="M 960 1497 
C 960 2112 1222 2688 1702 2688 
C 1747 2688 1792 2682 1837 2662 
C 1837 2662 1696 2617 1696 2452 
C 1696 2298 1818 2234 1914 2234 
C 1990 2234 2131 2279 2131 2458 
C 2131 2663 1926 2790 1709 2790 
C 1222 2790 1011 2317 947 2093 
L 941 2093 
L 941 2790 
L 198 2720 
L 198 2554 
C 576 2554 634 2515 634 2208 
L 634 428 
C 634 184 608 153 198 153 
L 198 -13 
C 352 0 646 0 813 0 
C 998 0 1325 0 1498 -13 
L 1498 153 
C 1037 153 960 153 960 440 
L 960 1497 
z
" transform="scale(0.015625)"/>
     <path id="CMR17-61" d="M 2304 1653 
C 2304 2072 2304 2294 2035 2543 
C 1798 2752 1523 2816 1306 2816 
C 800 2816 435 2407 435 1971 
C 435 1728 627 1728 666 1728 
C 749 1728 896 1778 896 1954 
C 896 2112 774 2181 666 2181 
C 640 2181 608 2174 589 2168 
C 723 2592 1069 2714 1293 2714 
C 1613 2714 1965 2429 1965 1885 
L 1965 1600 
C 1587 1600 1133 1549 774 1357 
C 371 1133 256 813 256 570 
C 256 77 832 -64 1171 -64 
C 1523 -64 1850 139 1990 511 
C 2003 233 2182 -18 2464 -18 
C 2598 -18 2938 70 2938 567 
L 2938 920 
L 2822 920 
L 2822 562 
C 2822 178 2650 128 2566 128 
C 2304 128 2304 458 2304 738 
L 2304 1653 
z
M 1965 870 
C 1965 317 1568 38 1216 38 
C 896 38 646 275 646 570 
C 646 761 730 1100 1101 1305 
C 1408 1478 1760 1504 1965 1504 
L 1965 870 
z
" transform="scale(0.015625)"/>
     <path id="CMR17-62" d="M 960 4396 
L 198 4326 
L 198 4160 
C 576 4160 634 4122 634 3817 
L 634 -13 
L 749 -13 
L 934 441 
C 1120 141 1395 -64 1766 -64 
C 2406 -64 3053 500 3053 1370 
C 3053 2188 2477 2790 1830 2790 
C 1434 2790 1152 2579 960 2330 
L 960 4396 
z
M 973 2004 
C 973 2118 973 2138 1062 2272 
C 1312 2657 1670 2688 1792 2688 
C 1984 2688 2643 2585 2643 1376 
C 2643 108 1888 38 1734 38 
C 1536 38 1248 114 1043 486 
C 973 608 973 621 973 735 
L 973 2004 
z
" transform="scale(0.015625)"/>
     <path id="CMR17-6c" d="M 979 4396 
L 218 4326 
L 218 4160 
C 595 4160 653 4122 653 3817 
L 653 426 
C 653 184 627 153 218 153 
L 218 -13 
C 371 0 653 0 813 0 
C 979 0 1261 0 1414 -13 
L 1414 153 
C 1005 153 979 178 979 426 
L 979 4396 
z
" transform="scale(0.015625)"/>
     <path id="CMR17-79" d="M 2496 2197 
C 2656 2586 2944 2586 3034 2586 
L 3034 2752 
C 2912 2752 2752 2752 2630 2752 
C 2496 2752 2285 2752 2157 2758 
L 2157 2592 
C 2400 2573 2406 2394 2406 2343 
C 2406 2280 2394 2248 2362 2171 
L 1664 449 
L 902 2306 
C 870 2382 870 2426 870 2433 
C 870 2573 1018 2586 1171 2586 
L 1171 2758 
C 1018 2752 742 2752 582 2752 
C 410 2752 205 2752 64 2758 
L 64 2586 
C 410 2586 448 2554 531 2350 
L 1485 15 
C 1197 -738 1030 -1178 627 -1178 
C 557 -1178 397 -1159 282 -1044 
C 429 -1031 493 -942 493 -833 
C 493 -725 416 -629 288 -629 
C 147 -629 77 -725 77 -840 
C 77 -1095 339 -1280 627 -1280 
C 998 -1280 1229 -922 1357 -604 
L 2496 2197 
z
" transform="scale(0.015625)"/>
    </defs>
    <use xlink:href="#CMR17-70" transform="scale(0.996264)"/>
    <use xlink:href="#CMR17-65" transform="translate(53.497809 0) scale(0.996264)"/>
    <use xlink:href="#CMR17-72" transform="translate(93.983469 0) scale(0.996264)"/>
    <use xlink:href="#CMR17-6d" transform="translate(129.264237 0) scale(0.996264)"/>
    <use xlink:href="#CMR17-65" transform="translate(206.183827 0) scale(0.996264)"/>
    <use xlink:href="#CMR17-61" transform="translate(246.669487 0) scale(0.996264)"/>
    <use xlink:href="#CMR17-62" transform="translate(292.359964 0) scale(0.996264)"/>
    <use xlink:href="#CMR17-69" transform="translate(343.255334 0) scale(0.996264)"/>
    <use xlink:href="#CMR17-6c" transform="translate(368.126392 0) scale(0.996264)"/>
    <use xlink:href="#CMR17-69" transform="translate(392.997451 0) scale(0.996264)"/>
    <use xlink:href="#CMR17-74" transform="translate(417.868509 0) scale(0.996264)"/>
    <use xlink:href="#CMR17-79" transform="translate(450.546823 0) scale(0.996264)"/>
   </g>
  </g>
 </g>
 <defs>
  <clipPath id="p90e9e07d76">
   <rect x="48.559071" y="51.564121" width="886.958601" height="469.58891"/>
  </clipPath>
 </defs>
</svg>
