<?xml version="1.0" encoding="utf-8" standalone="no"?>
<!DOCTYPE svg PUBLIC "-//W3C//DTD SVG 1.1//EN"
  "http://www.w3.org/Graphics/SVG/1.1/DTD/svg11.dtd">
<svg xmlns:xlink="http://www.w3.org/1999/xlink" width="1080pt" height="576pt" viewBox="0 0 1080 576" xmlns="http://www.w3.org/2000/svg" version="1.1">
 <metadata>
  <rdf:RDF xmlns:dc="http://purl.org/dc/elements/1.1/" xmlns:cc="http://creativecommons.org/ns#" xmlns:rdf="http://www.w3.org/1999/02/22-rdf-syntax-ns#">
   <cc:Work>
    <dc:type rdf:resource="http://purl.org/dc/dcmitype/StillImage"/>
    <dc:date>2024-06-28T12:14:08.499849</dc:date>
    <dc:format>image/svg+xml</dc:format>
    <dc:creator>
     <cc:Agent>
      <dc:title>Matplotlib v3.9.0, https://matplotlib.org/</dc:title>
     </cc:Agent>
    </dc:creator>
   </cc:Work>
  </rdf:RDF>
 </metadata>
 <defs>
  <style type="text/css">*{stroke-linejoin: round; stroke-linecap: butt}</style>
 </defs>
 <g id="figure_1">
  <g id="patch_1">
   <path d="M 0 576 
L 1080 576 
L 1080 0 
L 0 0 
z
" style="fill: #ffffff"/>
  </g>
  <g id="axes_1">
   <g id="patch_2">
    <path d="M 41.730582 521.153031 
L 935.517672 521.153031 
L 935.517672 51.564121 
L 41.730582 51.564121 
z
" style="fill: #eaeaf2"/>
   </g>
   <g id="matplotlib.axis_1">
    <g id="xtick_1">
     <g id="line2d_1">
      <path d="M 41.730582 521.153031 
L 41.730582 51.564121 
" clip-path="url(#p1ab26a7a44)" style="fill: none; stroke: #ffffff; stroke-linecap: round"/>
     </g>
     <g id="line2d_2"/>
     <g id="text_1">
      <!-- $\mathdefault{0.00}$ -->
      <g style="fill: #262626" transform="translate(29.591047 537.838907) scale(0.14 -0.14)">
       <defs>
        <path id="CMR17-30" d="M 2688 2025 
C 2688 2416 2682 3080 2413 3591 
C 2176 4039 1798 4198 1466 4198 
C 1158 4198 768 4058 525 3597 
C 269 3118 243 2524 243 2025 
C 243 1661 250 1106 448 619 
C 723 -39 1216 -128 1466 -128 
C 1760 -128 2208 -7 2470 600 
C 2662 1042 2688 1559 2688 2025 
z
M 1466 -26 
C 1056 -26 813 325 723 812 
C 653 1188 653 1738 653 2096 
C 653 2588 653 2997 736 3387 
C 858 3929 1216 4096 1466 4096 
C 1728 4096 2067 3923 2189 3400 
C 2272 3036 2278 2607 2278 2096 
C 2278 1680 2278 1169 2202 792 
C 2067 95 1690 -26 1466 -26 
z
" transform="scale(0.015625)"/>
        <path id="CMMI12-3a" d="M 1178 307 
C 1178 492 1024 619 870 619 
C 685 619 557 466 557 313 
C 557 128 710 0 864 0 
C 1050 0 1178 153 1178 307 
z
" transform="scale(0.015625)"/>
       </defs>
       <use xlink:href="#CMR17-30" transform="scale(0.996264)"/>
       <use xlink:href="#CMMI12-3a" transform="translate(45.690477 0) scale(0.996264)"/>
       <use xlink:href="#CMR17-30" transform="translate(72.787654 0) scale(0.996264)"/>
       <use xlink:href="#CMR17-30" transform="translate(118.478131 0) scale(0.996264)"/>
      </g>
     </g>
    </g>
    <g id="xtick_2">
     <g id="line2d_3">
      <path d="M 148.133807 521.153031 
L 148.133807 51.564121 
" clip-path="url(#p1ab26a7a44)" style="fill: none; stroke: #ffffff; stroke-linecap: round"/>
     </g>
     <g id="line2d_4"/>
     <g id="text_2">
      <!-- $\mathdefault{0.25}$ -->
      <g style="fill: #262626" transform="translate(135.994272 537.838907) scale(0.14 -0.14)">
       <defs>
        <path id="CMR17-32" d="M 2669 989 
L 2554 989 
C 2490 536 2438 459 2413 420 
C 2381 369 1920 369 1830 369 
L 602 369 
C 832 619 1280 1072 1824 1597 
C 2214 1967 2669 2402 2669 3035 
C 2669 3790 2067 4224 1395 4224 
C 691 4224 262 3604 262 3030 
C 262 2780 448 2748 525 2748 
C 589 2748 781 2787 781 3010 
C 781 3207 614 3264 525 3264 
C 486 3264 448 3258 422 3245 
C 544 3790 915 4058 1306 4058 
C 1862 4058 2227 3617 2227 3035 
C 2227 2479 1901 2000 1536 1584 
L 262 146 
L 262 0 
L 2515 0 
L 2669 989 
z
" transform="scale(0.015625)"/>
        <path id="CMR17-35" d="M 730 3692 
C 794 3666 1056 3584 1325 3584 
C 1920 3584 2246 3911 2432 4100 
C 2432 4157 2432 4192 2394 4192 
C 2387 4192 2374 4192 2323 4163 
C 2099 4058 1837 3973 1517 3973 
C 1325 3973 1037 3999 723 4139 
C 653 4171 640 4171 634 4171 
C 602 4171 595 4164 595 4037 
L 595 2203 
C 595 2089 595 2057 659 2057 
C 691 2057 704 2070 736 2114 
C 941 2401 1222 2522 1542 2522 
C 1766 2522 2246 2382 2246 1289 
C 2246 1085 2246 715 2054 421 
C 1894 159 1645 25 1370 25 
C 947 25 518 320 403 814 
C 429 807 480 795 506 795 
C 589 795 749 840 749 1038 
C 749 1210 627 1280 506 1280 
C 358 1280 262 1190 262 1011 
C 262 454 704 -128 1382 -128 
C 2042 -128 2669 440 2669 1264 
C 2669 2030 2170 2624 1549 2624 
C 1222 2624 947 2503 730 2274 
L 730 3692 
z
" transform="scale(0.015625)"/>
       </defs>
       <use xlink:href="#CMR17-30" transform="scale(0.996264)"/>
       <use xlink:href="#CMMI12-3a" transform="translate(45.690477 0) scale(0.996264)"/>
       <use xlink:href="#CMR17-32" transform="translate(72.787654 0) scale(0.996264)"/>
       <use xlink:href="#CMR17-35" transform="translate(118.478131 0) scale(0.996264)"/>
      </g>
     </g>
    </g>
    <g id="xtick_3">
     <g id="line2d_5">
      <path d="M 254.537032 521.153031 
L 254.537032 51.564121 
" clip-path="url(#p1ab26a7a44)" style="fill: none; stroke: #ffffff; stroke-linecap: round"/>
     </g>
     <g id="line2d_6"/>
     <g id="text_3">
      <!-- $\mathdefault{0.50}$ -->
      <g style="fill: #262626" transform="translate(242.397497 537.838907) scale(0.14 -0.14)">
       <use xlink:href="#CMR17-30" transform="scale(0.996264)"/>
       <use xlink:href="#CMMI12-3a" transform="translate(45.690477 0) scale(0.996264)"/>
       <use xlink:href="#CMR17-35" transform="translate(72.787654 0) scale(0.996264)"/>
       <use xlink:href="#CMR17-30" transform="translate(118.478131 0) scale(0.996264)"/>
      </g>
     </g>
    </g>
    <g id="xtick_4">
     <g id="line2d_7">
      <path d="M 360.940257 521.153031 
L 360.940257 51.564121 
" clip-path="url(#p1ab26a7a44)" style="fill: none; stroke: #ffffff; stroke-linecap: round"/>
     </g>
     <g id="line2d_8"/>
     <g id="text_4">
      <!-- $\mathdefault{0.75}$ -->
      <g style="fill: #262626" transform="translate(348.800722 537.838907) scale(0.14 -0.14)">
       <defs>
        <path id="CMR17-37" d="M 2886 3941 
L 2886 4081 
L 1382 4081 
C 634 4081 621 4165 595 4288 
L 480 4288 
L 294 3094 
L 410 3094 
C 429 3215 474 3540 550 3661 
C 589 3712 1062 3712 1171 3712 
L 2579 3712 
L 1869 2661 
C 1395 1954 1069 999 1069 165 
C 1069 89 1069 -128 1299 -128 
C 1530 -128 1530 89 1530 171 
L 1530 465 
C 1530 1508 1709 2196 2003 2636 
L 2886 3941 
z
" transform="scale(0.015625)"/>
       </defs>
       <use xlink:href="#CMR17-30" transform="scale(0.996264)"/>
       <use xlink:href="#CMMI12-3a" transform="translate(45.690477 0) scale(0.996264)"/>
       <use xlink:href="#CMR17-37" transform="translate(72.787654 0) scale(0.996264)"/>
       <use xlink:href="#CMR17-35" transform="translate(118.478131 0) scale(0.996264)"/>
      </g>
     </g>
    </g>
    <g id="xtick_5">
     <g id="line2d_9">
      <path d="M 467.343482 521.153031 
L 467.343482 51.564121 
" clip-path="url(#p1ab26a7a44)" style="fill: none; stroke: #ffffff; stroke-linecap: round"/>
     </g>
     <g id="line2d_10"/>
     <g id="text_5">
      <!-- $\mathdefault{1.00}$ -->
      <g style="fill: #262626" transform="translate(455.203947 537.838907) scale(0.14 -0.14)">
       <defs>
        <path id="CMR17-31" d="M 1702 4058 
C 1702 4192 1696 4192 1606 4192 
C 1357 3916 979 3827 621 3827 
C 602 3827 570 3827 563 3808 
C 557 3795 557 3782 557 3648 
C 755 3648 1088 3686 1344 3839 
L 1344 461 
C 1344 236 1331 160 781 160 
L 589 160 
L 589 0 
C 896 0 1216 0 1523 0 
C 1830 0 2150 0 2458 0 
L 2458 160 
L 2266 160 
C 1715 160 1702 230 1702 458 
L 1702 4058 
z
" transform="scale(0.015625)"/>
       </defs>
       <use xlink:href="#CMR17-31" transform="scale(0.996264)"/>
       <use xlink:href="#CMMI12-3a" transform="translate(45.690477 0) scale(0.996264)"/>
       <use xlink:href="#CMR17-30" transform="translate(72.787654 0) scale(0.996264)"/>
       <use xlink:href="#CMR17-30" transform="translate(118.478131 0) scale(0.996264)"/>
      </g>
     </g>
    </g>
    <g id="xtick_6">
     <g id="line2d_11">
      <path d="M 573.746707 521.153031 
L 573.746707 51.564121 
" clip-path="url(#p1ab26a7a44)" style="fill: none; stroke: #ffffff; stroke-linecap: round"/>
     </g>
     <g id="line2d_12"/>
     <g id="text_6">
      <!-- $\mathdefault{1.25}$ -->
      <g style="fill: #262626" transform="translate(561.607172 537.838907) scale(0.14 -0.14)">
       <use xlink:href="#CMR17-31" transform="scale(0.996264)"/>
       <use xlink:href="#CMMI12-3a" transform="translate(45.690477 0) scale(0.996264)"/>
       <use xlink:href="#CMR17-32" transform="translate(72.787654 0) scale(0.996264)"/>
       <use xlink:href="#CMR17-35" transform="translate(118.478131 0) scale(0.996264)"/>
      </g>
     </g>
    </g>
    <g id="xtick_7">
     <g id="line2d_13">
      <path d="M 680.149932 521.153031 
L 680.149932 51.564121 
" clip-path="url(#p1ab26a7a44)" style="fill: none; stroke: #ffffff; stroke-linecap: round"/>
     </g>
     <g id="line2d_14"/>
     <g id="text_7">
      <!-- $\mathdefault{1.50}$ -->
      <g style="fill: #262626" transform="translate(668.010397 537.838907) scale(0.14 -0.14)">
       <use xlink:href="#CMR17-31" transform="scale(0.996264)"/>
       <use xlink:href="#CMMI12-3a" transform="translate(45.690477 0) scale(0.996264)"/>
       <use xlink:href="#CMR17-35" transform="translate(72.787654 0) scale(0.996264)"/>
       <use xlink:href="#CMR17-30" transform="translate(118.478131 0) scale(0.996264)"/>
      </g>
     </g>
    </g>
    <g id="xtick_8">
     <g id="line2d_15">
      <path d="M 786.553157 521.153031 
L 786.553157 51.564121 
" clip-path="url(#p1ab26a7a44)" style="fill: none; stroke: #ffffff; stroke-linecap: round"/>
     </g>
     <g id="line2d_16"/>
     <g id="text_8">
      <!-- $\mathdefault{1.75}$ -->
      <g style="fill: #262626" transform="translate(774.413622 537.838907) scale(0.14 -0.14)">
       <use xlink:href="#CMR17-31" transform="scale(0.996264)"/>
       <use xlink:href="#CMMI12-3a" transform="translate(45.690477 0) scale(0.996264)"/>
       <use xlink:href="#CMR17-37" transform="translate(72.787654 0) scale(0.996264)"/>
       <use xlink:href="#CMR17-35" transform="translate(118.478131 0) scale(0.996264)"/>
      </g>
     </g>
    </g>
    <g id="xtick_9">
     <g id="line2d_17">
      <path d="M 892.956382 521.153031 
L 892.956382 51.564121 
" clip-path="url(#p1ab26a7a44)" style="fill: none; stroke: #ffffff; stroke-linecap: round"/>
     </g>
     <g id="line2d_18"/>
     <g id="text_9">
      <!-- $\mathdefault{2.00}$ -->
      <g style="fill: #262626" transform="translate(880.816846 537.838907) scale(0.14 -0.14)">
       <use xlink:href="#CMR17-32" transform="scale(0.996264)"/>
       <use xlink:href="#CMMI12-3a" transform="translate(45.690477 0) scale(0.996264)"/>
       <use xlink:href="#CMR17-30" transform="translate(72.787654 0) scale(0.996264)"/>
       <use xlink:href="#CMR17-30" transform="translate(118.478131 0) scale(0.996264)"/>
      </g>
     </g>
    </g>
    <g id="text_10">
     <!-- $x$ -->
     <g style="fill: #262626" transform="translate(484.189402 555.620524) scale(0.16 -0.16)">
      <defs>
       <path id="CMMI12-78" d="M 3034 2606 
C 2829 2567 2752 2414 2752 2293 
C 2752 2139 2874 2088 2963 2088 
C 3155 2088 3290 2254 3290 2427 
C 3290 2695 2982 2816 2714 2816 
C 2323 2816 2106 2433 2048 2312 
C 1901 2816 1504 2816 1389 2816 
C 736 2816 390 1980 390 1839 
C 390 1814 416 1782 461 1782 
C 512 1782 525 1820 538 1846 
C 755 2555 1184 2689 1370 2689 
C 1658 2689 1715 2420 1715 2267 
C 1715 2127 1677 1980 1600 1673 
L 1382 798 
C 1286 415 1101 64 762 64 
C 730 64 570 64 435 147 
C 666 192 717 383 717 460 
C 717 588 621 664 499 664 
C 346 664 179 530 179 326 
C 179 57 480 -64 755 -64 
C 1062 -64 1280 179 1414 441 
C 1517 64 1837 -64 2074 -64 
C 2726 -64 3072 773 3072 913 
C 3072 945 3046 971 3008 971 
C 2950 971 2944 939 2925 888 
C 2752 326 2381 64 2093 64 
C 1869 64 1747 230 1747 492 
C 1747 632 1773 734 1875 1156 
L 2099 2024 
C 2195 2408 2413 2689 2707 2689 
C 2720 2689 2899 2689 3034 2606 
z
" transform="scale(0.015625)"/>
      </defs>
      <use xlink:href="#CMMI12-78" transform="scale(0.996264)"/>
     </g>
    </g>
   </g>
   <g id="matplotlib.axis_2">
    <g id="ytick_1">
     <g id="line2d_19">
      <path d="M 41.730582 521.153031 
L 935.517672 521.153031 
" clip-path="url(#p1ab26a7a44)" style="fill: none; stroke: #ffffff; stroke-linecap: round"/>
     </g>
     <g id="line2d_20"/>
     <g id="text_11">
      <!-- $\mathdefault{0.0}$ -->
      <g style="fill: #262626" transform="translate(17.28 525.995969) scale(0.14 -0.14)">
       <use xlink:href="#CMR17-30" transform="scale(0.996264)"/>
       <use xlink:href="#CMMI12-3a" transform="translate(45.690477 0) scale(0.996264)"/>
       <use xlink:href="#CMR17-30" transform="translate(72.787654 0) scale(0.996264)"/>
      </g>
     </g>
    </g>
    <g id="ytick_2">
     <g id="line2d_21">
      <path d="M 41.730582 465.263416 
L 935.517672 465.263416 
" clip-path="url(#p1ab26a7a44)" style="fill: none; stroke: #ffffff; stroke-linecap: round"/>
     </g>
     <g id="line2d_22"/>
     <g id="text_12">
      <!-- $\mathdefault{0.1}$ -->
      <g style="fill: #262626" transform="translate(17.28 470.106354) scale(0.14 -0.14)">
       <use xlink:href="#CMR17-30" transform="scale(0.996264)"/>
       <use xlink:href="#CMMI12-3a" transform="translate(45.690477 0) scale(0.996264)"/>
       <use xlink:href="#CMR17-31" transform="translate(72.787654 0) scale(0.996264)"/>
      </g>
     </g>
    </g>
    <g id="ytick_3">
     <g id="line2d_23">
      <path d="M 41.730582 409.373801 
L 935.517672 409.373801 
" clip-path="url(#p1ab26a7a44)" style="fill: none; stroke: #ffffff; stroke-linecap: round"/>
     </g>
     <g id="line2d_24"/>
     <g id="text_13">
      <!-- $\mathdefault{0.2}$ -->
      <g style="fill: #262626" transform="translate(17.28 414.216739) scale(0.14 -0.14)">
       <use xlink:href="#CMR17-30" transform="scale(0.996264)"/>
       <use xlink:href="#CMMI12-3a" transform="translate(45.690477 0) scale(0.996264)"/>
       <use xlink:href="#CMR17-32" transform="translate(72.787654 0) scale(0.996264)"/>
      </g>
     </g>
    </g>
    <g id="ytick_4">
     <g id="line2d_25">
      <path d="M 41.730582 353.484186 
L 935.517672 353.484186 
" clip-path="url(#p1ab26a7a44)" style="fill: none; stroke: #ffffff; stroke-linecap: round"/>
     </g>
     <g id="line2d_26"/>
     <g id="text_14">
      <!-- $\mathdefault{0.3}$ -->
      <g style="fill: #262626" transform="translate(17.28 358.327124) scale(0.14 -0.14)">
       <defs>
        <path id="CMR17-33" d="M 1414 2157 
C 1984 2157 2234 1662 2234 1090 
C 2234 320 1824 25 1453 25 
C 1114 25 563 194 390 693 
C 422 680 454 680 486 680 
C 640 680 755 782 755 948 
C 755 1133 614 1216 486 1216 
C 378 1216 211 1165 211 926 
C 211 335 787 -128 1466 -128 
C 2176 -128 2720 430 2720 1085 
C 2720 1707 2208 2157 1600 2227 
C 2086 2328 2554 2756 2554 3329 
C 2554 3820 2048 4179 1472 4179 
C 890 4179 378 3829 378 3329 
C 378 3110 544 3072 627 3072 
C 762 3072 877 3155 877 3321 
C 877 3486 762 3569 627 3569 
C 602 3569 570 3569 544 3557 
C 730 3959 1235 4032 1459 4032 
C 1683 4032 2106 3925 2106 3320 
C 2106 3143 2080 2828 1862 2550 
C 1670 2304 1453 2304 1242 2284 
C 1210 2284 1062 2269 1037 2269 
C 992 2263 966 2257 966 2208 
C 966 2163 973 2157 1101 2157 
L 1414 2157 
z
" transform="scale(0.015625)"/>
       </defs>
       <use xlink:href="#CMR17-30" transform="scale(0.996264)"/>
       <use xlink:href="#CMMI12-3a" transform="translate(45.690477 0) scale(0.996264)"/>
       <use xlink:href="#CMR17-33" transform="translate(72.787654 0) scale(0.996264)"/>
      </g>
     </g>
    </g>
    <g id="ytick_5">
     <g id="line2d_27">
      <path d="M 41.730582 297.594571 
L 935.517672 297.594571 
" clip-path="url(#p1ab26a7a44)" style="fill: none; stroke: #ffffff; stroke-linecap: round"/>
     </g>
     <g id="line2d_28"/>
     <g id="text_15">
      <!-- $\mathdefault{0.4}$ -->
      <g style="fill: #262626" transform="translate(17.28 302.437509) scale(0.14 -0.14)">
       <defs>
        <path id="CMR17-34" d="M 2150 4122 
C 2150 4256 2144 4256 2029 4256 
L 128 1254 
L 128 1088 
L 1779 1088 
L 1779 457 
C 1779 224 1766 160 1318 160 
L 1197 160 
L 1197 0 
C 1402 0 1747 0 1965 0 
C 2182 0 2528 0 2733 0 
L 2733 160 
L 2611 160 
C 2163 160 2150 224 2150 457 
L 2150 1088 
L 2803 1088 
L 2803 1254 
L 2150 1254 
L 2150 4122 
z
M 1798 3703 
L 1798 1254 
L 256 1254 
L 1798 3703 
z
" transform="scale(0.015625)"/>
       </defs>
       <use xlink:href="#CMR17-30" transform="scale(0.996264)"/>
       <use xlink:href="#CMMI12-3a" transform="translate(45.690477 0) scale(0.996264)"/>
       <use xlink:href="#CMR17-34" transform="translate(72.787654 0) scale(0.996264)"/>
      </g>
     </g>
    </g>
    <g id="ytick_6">
     <g id="line2d_29">
      <path d="M 41.730582 241.704956 
L 935.517672 241.704956 
" clip-path="url(#p1ab26a7a44)" style="fill: none; stroke: #ffffff; stroke-linecap: round"/>
     </g>
     <g id="line2d_30"/>
     <g id="text_16">
      <!-- $\mathdefault{0.5}$ -->
      <g style="fill: #262626" transform="translate(17.28 246.547894) scale(0.14 -0.14)">
       <use xlink:href="#CMR17-30" transform="scale(0.996264)"/>
       <use xlink:href="#CMMI12-3a" transform="translate(45.690477 0) scale(0.996264)"/>
       <use xlink:href="#CMR17-35" transform="translate(72.787654 0) scale(0.996264)"/>
      </g>
     </g>
    </g>
    <g id="ytick_7">
     <g id="line2d_31">
      <path d="M 41.730582 185.815341 
L 935.517672 185.815341 
" clip-path="url(#p1ab26a7a44)" style="fill: none; stroke: #ffffff; stroke-linecap: round"/>
     </g>
     <g id="line2d_32"/>
     <g id="text_17">
      <!-- $\mathdefault{0.6}$ -->
      <g style="fill: #262626" transform="translate(17.28 190.658279) scale(0.14 -0.14)">
       <defs>
        <path id="CMR17-36" d="M 678 2176 
C 678 3690 1395 4032 1811 4032 
C 1946 4032 2272 4009 2400 3776 
C 2298 3776 2106 3776 2106 3553 
C 2106 3381 2246 3323 2336 3323 
C 2394 3323 2566 3348 2566 3560 
C 2566 3954 2246 4179 1805 4179 
C 1043 4179 243 3390 243 1984 
C 243 253 966 -128 1478 -128 
C 2099 -128 2688 427 2688 1283 
C 2688 2081 2170 2662 1517 2662 
C 1126 2662 838 2407 678 1960 
L 678 2176 
z
M 1478 25 
C 691 25 691 1200 691 1436 
C 691 1896 909 2560 1504 2560 
C 1613 2560 1926 2560 2138 2120 
C 2253 1870 2253 1609 2253 1289 
C 2253 944 2253 690 2118 434 
C 1978 171 1773 25 1478 25 
z
" transform="scale(0.015625)"/>
       </defs>
       <use xlink:href="#CMR17-30" transform="scale(0.996264)"/>
       <use xlink:href="#CMMI12-3a" transform="translate(45.690477 0) scale(0.996264)"/>
       <use xlink:href="#CMR17-36" transform="translate(72.787654 0) scale(0.996264)"/>
      </g>
     </g>
    </g>
    <g id="ytick_8">
     <g id="line2d_33">
      <path d="M 41.730582 129.925726 
L 935.517672 129.925726 
" clip-path="url(#p1ab26a7a44)" style="fill: none; stroke: #ffffff; stroke-linecap: round"/>
     </g>
     <g id="line2d_34"/>
     <g id="text_18">
      <!-- $\mathdefault{0.7}$ -->
      <g style="fill: #262626" transform="translate(17.28 134.768664) scale(0.14 -0.14)">
       <use xlink:href="#CMR17-30" transform="scale(0.996264)"/>
       <use xlink:href="#CMMI12-3a" transform="translate(45.690477 0) scale(0.996264)"/>
       <use xlink:href="#CMR17-37" transform="translate(72.787654 0) scale(0.996264)"/>
      </g>
     </g>
    </g>
    <g id="ytick_9">
     <g id="line2d_35">
      <path d="M 41.730582 74.036111 
L 935.517672 74.036111 
" clip-path="url(#p1ab26a7a44)" style="fill: none; stroke: #ffffff; stroke-linecap: round"/>
     </g>
     <g id="line2d_36"/>
     <g id="text_19">
      <!-- $\mathdefault{0.8}$ -->
      <g style="fill: #262626" transform="translate(17.28 78.879049) scale(0.14 -0.14)">
       <defs>
        <path id="CMR17-38" d="M 1741 2264 
C 2144 2467 2554 2773 2554 3263 
C 2554 3841 1990 4179 1472 4179 
C 890 4179 378 3759 378 3180 
C 378 3021 416 2747 666 2505 
C 730 2442 998 2251 1171 2130 
C 883 1983 211 1634 211 934 
C 211 279 838 -128 1459 -128 
C 2144 -128 2720 362 2720 1010 
C 2720 1590 2330 1857 2074 2029 
L 1741 2264 
z
M 902 2822 
C 851 2854 595 3051 595 3351 
C 595 3739 998 4032 1459 4032 
C 1965 4032 2336 3676 2336 3262 
C 2336 2669 1670 2331 1638 2331 
C 1632 2331 1626 2331 1574 2370 
L 902 2822 
z
M 2080 1519 
C 2176 1449 2483 1240 2483 851 
C 2483 381 2010 25 1472 25 
C 890 25 448 438 448 940 
C 448 1443 838 1862 1280 2060 
L 2080 1519 
z
" transform="scale(0.015625)"/>
       </defs>
       <use xlink:href="#CMR17-30" transform="scale(0.996264)"/>
       <use xlink:href="#CMMI12-3a" transform="translate(45.690477 0) scale(0.996264)"/>
       <use xlink:href="#CMR17-38" transform="translate(72.787654 0) scale(0.996264)"/>
      </g>
     </g>
    </g>
   </g>
   <g id="line2d_37">
    <path d="M 41.730582 74.036111 
L 50.24284 74.036111 
L 58.755098 74.036111 
L 67.267356 74.036111 
L 75.779614 74.036111 
L 84.291872 74.036111 
L 92.80413 74.036111 
L 101.316388 74.036111 
L 109.828646 74.036111 
L 118.340904 74.036111 
L 126.853162 74.036111 
L 135.36542 74.036111 
L 143.877678 74.036111 
L 152.389936 74.036111 
L 160.902194 74.036111 
L 169.414452 74.036111 
L 177.92671 74.036111 
L 186.438968 74.036111 
L 194.951226 74.036111 
L 203.463484 74.036111 
L 211.975742 74.036111 
L 220.488 74.036111 
L 229.000258 74.036111 
L 237.512516 74.036111 
L 246.024774 74.036111 
L 254.537032 74.036111 
L 263.04929 74.036111 
L 271.561548 74.036111 
L 280.073806 74.036111 
L 288.586064 74.036111 
L 297.098322 74.036111 
L 305.61058 74.036111 
L 314.122838 74.036111 
L 322.635096 74.036111 
L 331.147354 74.036111 
L 339.659612 74.036111 
L 348.17187 74.036111 
L 356.684128 74.036111 
L 365.196386 74.036111 
L 373.708644 74.036111 
L 382.220902 74.036111 
L 390.73316 74.036111 
L 399.245418 74.036111 
L 407.757676 74.036111 
L 416.269934 74.036111 
L 424.782192 74.036111 
L 433.29445 74.036111 
L 441.806708 74.036111 
L 450.318966 74.036111 
L 458.831224 74.036111 
L 467.343482 74.036111 
L 475.85574 74.036111 
L 484.367998 74.036111 
L 492.880256 74.036111 
L 501.392514 74.036111 
L 509.904772 74.036111 
L 518.41703 74.036111 
L 526.929288 74.036111 
L 535.441546 74.036111 
L 543.953804 74.036111 
L 552.466062 74.036111 
L 560.97832 74.036111 
L 569.490578 74.036111 
L 578.002836 74.036111 
L 586.515094 74.036111 
L 595.027352 74.036111 
L 603.53961 74.036111 
L 612.051868 74.036111 
L 620.564126 74.036111 
L 629.076384 74.036111 
L 637.588642 74.036111 
L 646.1009 74.036111 
L 654.613158 74.036111 
L 663.125416 74.036111 
L 671.637674 74.036111 
L 680.149932 74.036111 
L 688.66219 74.036111 
L 697.174448 74.036111 
L 705.686706 74.036111 
L 714.198964 74.036111 
L 722.711222 74.036111 
L 731.22348 74.036111 
L 739.735738 74.036111 
L 748.247996 74.036111 
L 756.760254 74.036111 
L 765.272512 74.036111 
L 773.78477 74.036111 
L 782.297028 74.036111 
L 790.809286 74.036111 
L 799.321544 74.036111 
L 807.833802 74.036111 
L 816.34606 74.036111 
L 824.858318 74.036111 
L 833.370576 74.036111 
L 841.882834 74.036111 
L 850.395092 74.036111 
L 858.90735 74.036111 
L 867.419608 74.036111 
L 875.931866 74.036111 
L 884.444124 74.036111 
L 892.956382 74.036111 
" clip-path="url(#p1ab26a7a44)" style="fill: none; stroke: #393b79; stroke-width: 2; stroke-linecap: round"/>
   </g>
   <g id="line2d_38">
    <path d="M 41.730582 154.094425 
L 50.24284 153.7534 
L 58.755098 153.414201 
L 67.267356 153.076827 
L 75.779614 152.741273 
L 84.291872 152.401729 
L 92.80413 152.06042 
L 101.316388 151.720939 
L 109.828646 151.383285 
L 118.340904 151.04744 
L 126.853162 150.713381 
L 135.36542 150.381105 
L 143.877678 150.050598 
L 152.389936 149.721853 
L 160.902194 149.394863 
L 169.414452 149.069616 
L 177.92671 148.746109 
L 186.438968 148.424351 
L 194.951226 148.104296 
L 203.463484 147.785938 
L 211.975742 147.469266 
L 220.488 147.154274 
L 229.000258 146.840957 
L 237.512516 146.529319 
L 246.024774 146.219344 
L 254.537032 145.911005 
L 263.04929 145.600632 
L 271.561548 145.286862 
L 280.073806 144.97474 
L 288.586064 144.664262 
L 297.098322 144.355422 
L 305.61058 144.048201 
L 314.122838 143.74259 
L 322.635096 143.438597 
L 331.147354 143.136211 
L 339.659612 142.835414 
L 348.17187 142.536198 
L 356.684128 142.238547 
L 365.196386 141.942456 
L 373.708644 141.647912 
L 382.220902 141.354909 
L 390.73316 141.063453 
L 399.245418 140.773527 
L 407.757676 140.485114 
L 416.269934 140.19821 
L 424.782192 139.912803 
L 433.29445 139.628878 
L 441.806708 139.346434 
L 450.318966 139.065455 
L 458.831224 138.785933 
L 467.343482 138.503571 
L 475.85574 138.219023 
L 484.367998 137.93595 
L 492.880256 137.654347 
L 501.392514 137.374213 
L 509.904772 137.095532 
L 518.41703 136.818294 
L 526.929288 136.542489 
L 535.441546 136.268112 
L 543.953804 135.99516 
L 552.466062 135.723617 
L 560.97832 135.453476 
L 569.490578 135.184724 
L 578.002836 134.917355 
L 586.515094 134.651371 
L 595.027352 134.386763 
L 603.53961 134.123514 
L 612.051868 133.861616 
L 620.564126 133.601082 
L 629.076384 133.341883 
L 637.588642 133.08402 
L 646.1009 132.827477 
L 654.613158 132.572246 
L 663.125416 132.31833 
L 671.637674 132.065722 
L 680.149932 131.814404 
L 688.66219 131.56437 
L 697.174448 131.313774 
L 705.686706 131.059124 
L 714.198964 130.805773 
L 722.711222 130.553716 
L 731.22348 130.302958 
L 739.735738 130.05348 
L 748.247996 129.805276 
L 756.760254 129.558335 
L 765.272512 129.31265 
L 773.78477 129.068218 
L 782.297028 128.825027 
L 790.809286 128.58307 
L 799.321544 128.34234 
L 807.833802 128.102837 
L 816.34606 127.864562 
L 824.858318 127.627493 
L 833.370576 127.391625 
L 841.882834 127.15695 
L 850.395092 126.923461 
L 858.90735 126.691152 
L 867.419608 126.460018 
L 875.931866 126.23005 
L 884.444124 126.001251 
L 892.956382 125.773614 
" clip-path="url(#p1ab26a7a44)" style="fill: none; stroke: #6b6ecf; stroke-width: 2; stroke-linecap: round"/>
   </g>
   <g id="line2d_39">
    <path d="M 41.730582 336.643138 
L 50.24284 335.791854 
L 58.755098 334.947867 
L 67.267356 334.108848 
L 75.779614 333.2629 
L 84.291872 332.424139 
L 92.80413 331.589239 
L 101.316388 330.748216 
L 109.828646 329.914284 
L 118.340904 329.084354 
L 126.853162 328.248097 
L 135.36542 327.418795 
L 143.877678 326.594745 
L 152.389936 325.762693 
L 160.902194 324.93755 
L 169.414452 324.119293 
L 177.92671 323.292458 
L 186.438968 322.471261 
L 194.951226 321.656756 
L 203.463484 320.837886 
L 211.975742 320.020299 
L 220.488 319.20933 
L 229.000258 318.399562 
L 237.512516 317.585193 
L 246.024774 316.777381 
L 254.537032 315.97611 
L 263.04929 315.166726 
L 271.561548 314.361798 
L 280.073806 313.563085 
L 288.586064 312.765145 
L 297.098322 311.963105 
L 305.61058 311.167203 
L 314.122838 310.377315 
L 322.635096 309.581784 
L 331.147354 308.788192 
L 339.659612 308.000829 
L 348.17187 307.219402 
L 356.684128 306.428086 
L 365.196386 305.642269 
L 373.708644 304.862684 
L 382.220902 304.08761 
L 390.73316 303.303406 
L 399.245418 302.525263 
L 407.757676 301.75313 
L 416.269934 300.984973 
L 424.782192 300.208086 
L 433.29445 299.437297 
L 441.806708 298.672236 
L 450.318966 297.912661 
L 458.831224 297.142424 
L 467.343482 296.378149 
L 475.85574 295.61968 
L 484.367998 294.866868 
L 492.880256 294.107073 
L 501.392514 293.349158 
L 509.904772 292.596839 
L 518.41703 291.850042 
L 526.929288 291.10229 
L 535.441546 290.350229 
L 543.953804 289.603717 
L 552.466062 288.862699 
L 560.97832 288.127058 
L 569.490578 287.382533 
L 578.002836 286.641375 
L 586.515094 285.905622 
L 595.027352 285.175216 
L 603.53961 284.446899 
L 612.051868 283.710875 
L 620.564126 282.980144 
L 629.076384 282.254607 
L 637.588642 281.534243 
L 646.1009 280.813201 
L 654.613158 280.087005 
L 663.125416 279.36597 
L 671.637674 278.650055 
L 680.149932 277.939225 
L 688.66219 277.227824 
L 697.174448 276.510968 
L 705.686706 275.79917 
L 714.198964 275.092336 
L 722.711222 274.39046 
L 731.22348 273.691077 
L 739.735738 272.983051 
L 748.247996 272.279913 
L 756.760254 271.581654 
L 765.272512 270.888195 
L 773.78477 270.199527 
L 782.297028 269.503639 
L 790.809286 268.808681 
L 799.321544 268.118466 
L 807.833802 267.433012 
L 816.34606 266.75218 
L 824.858318 266.073524 
L 833.370576 265.386282 
L 841.882834 264.703783 
L 850.395092 264.025798 
L 858.90735 263.352424 
L 867.419608 262.683547 
L 875.931866 262.013927 
L 884.444124 261.338533 
L 892.956382 260.667598 
" clip-path="url(#p1ab26a7a44)" style="fill: none; stroke: #637939; stroke-width: 2; stroke-linecap: round"/>
   </g>
   <g id="line2d_40">
    <path d="M 41.730582 430.506961 
L 50.24284 429.606052 
L 58.755098 428.704511 
L 67.267356 427.802271 
L 75.779614 426.89938 
L 84.291872 425.99591 
L 92.80413 425.091762 
L 101.316388 424.187034 
L 109.828646 423.281801 
L 118.340904 422.375968 
L 126.853162 421.469906 
L 135.36542 420.563261 
L 143.877678 419.656323 
L 152.389936 418.74917 
L 160.902194 417.841762 
L 169.414452 416.933787 
L 177.92671 416.024827 
L 186.438968 415.115508 
L 194.951226 414.206257 
L 203.463484 413.296992 
L 211.975742 412.388136 
L 220.488 411.479484 
L 229.000258 410.57093 
L 237.512516 409.660205 
L 246.024774 408.750057 
L 254.537032 407.840603 
L 263.04929 406.931991 
L 271.561548 406.023438 
L 280.073806 405.112672 
L 288.586064 404.202886 
L 297.098322 403.294691 
L 305.61058 402.387422 
L 314.122838 401.476955 
L 322.635096 400.567646 
L 331.147354 399.661035 
L 339.659612 398.753268 
L 348.17187 397.844361 
L 356.684128 396.937702 
L 365.196386 396.032018 
L 373.708644 395.123739 
L 382.220902 394.218137 
L 390.73316 393.313993 
L 399.245418 392.406834 
L 407.757676 391.502869 
L 416.269934 390.599434 
L 424.782192 389.694203 
L 433.29445 388.792969 
L 441.806708 387.889499 
L 450.318966 386.987084 
L 458.831224 386.088037 
L 467.343482 385.18478 
L 475.85574 384.286427 
L 484.367998 383.386254 
L 492.880256 382.48765 
L 501.392514 381.591028 
L 509.904772 380.692433 
L 518.41703 379.79905 
L 526.929288 378.900365 
L 535.441546 378.007734 
L 543.953804 377.112263 
L 552.466062 376.219992 
L 560.97832 375.327618 
L 569.490578 374.436267 
L 578.002836 373.546338 
L 586.515094 372.656149 
L 595.027352 371.768815 
L 603.53961 370.880203 
L 612.051868 369.99489 
L 620.564126 369.108234 
L 629.076384 368.224904 
L 637.588642 367.34034 
L 646.1009 366.458673 
L 654.613158 365.576777 
L 663.125416 364.69661 
L 671.637674 363.817851 
L 680.149932 362.93887 
L 688.66219 362.063727 
L 697.174448 361.185739 
L 705.686706 360.314748 
L 714.198964 359.437401 
L 722.711222 358.568481 
L 731.22348 357.694461 
L 739.735738 356.825905 
L 748.247996 355.956849 
L 756.760254 355.088599 
L 765.272512 354.225345 
L 773.78477 353.357084 
L 782.297028 352.496783 
L 790.809286 351.631756 
L 799.321544 350.7712 
L 807.833802 349.91306 
L 816.34606 349.052076 
L 824.858318 348.198878 
L 833.370576 347.34 
L 841.882834 346.486064 
L 850.395092 345.635609 
L 858.90735 344.780752 
L 867.419608 343.933291 
L 875.931866 343.08335 
L 884.444124 342.234867 
L 892.956382 341.393697 
" clip-path="url(#p1ab26a7a44)" style="fill: none; stroke: #b5cf6b; stroke-width: 2; stroke-linecap: round"/>
   </g>
   <g id="line2d_41">
    <path d="M 41.730582 504.058668 
L 50.24284 503.488217 
L 58.755098 502.910794 
L 67.267356 502.326499 
L 75.779614 501.735274 
L 84.291872 501.13741 
L 92.80413 500.532877 
L 101.316388 499.921836 
L 109.828646 499.304427 
L 118.340904 498.680592 
L 126.853162 498.050619 
L 135.36542 497.414437 
L 143.877678 496.772289 
L 152.389936 496.12409 
L 160.902194 495.470111 
L 169.414452 494.810304 
L 177.92671 494.144893 
L 186.438968 493.47384 
L 194.951226 492.797387 
L 203.463484 492.11526 
L 211.975742 491.428072 
L 220.488 490.735476 
L 229.000258 490.03794 
L 237.512516 489.335137 
L 246.024774 488.627376 
L 254.537032 487.914761 
L 263.04929 487.19735 
L 271.561548 486.475086 
L 280.073806 485.748083 
L 288.586064 485.016654 
L 297.098322 484.28071 
L 305.61058 483.540561 
L 314.122838 482.795611 
L 322.635096 482.046303 
L 331.147354 481.293429 
L 339.659612 480.536215 
L 348.17187 479.774718 
L 356.684128 479.009291 
L 365.196386 478.24006 
L 373.708644 477.466808 
L 382.220902 476.689763 
L 390.73316 475.909205 
L 399.245418 475.125299 
L 407.757676 474.33718 
L 416.269934 473.54597 
L 424.782192 472.751241 
L 433.29445 471.953364 
L 441.806708 471.151943 
L 450.318966 470.3477 
L 458.831224 469.539535 
L 467.343482 468.72868 
L 475.85574 467.915034 
L 484.367998 467.098409 
L 492.880256 466.278677 
L 501.392514 465.455699 
L 509.904772 464.630541 
L 518.41703 463.802291 
L 526.929288 462.971479 
L 535.441546 462.138269 
L 543.953804 461.302401 
L 552.466062 460.464127 
L 560.97832 459.623387 
L 569.490578 458.779836 
L 578.002836 457.933997 
L 586.515094 457.086248 
L 595.027352 456.23689 
L 603.53961 455.384135 
L 612.051868 454.529635 
L 620.564126 453.674045 
L 629.076384 452.815027 
L 637.588642 451.954796 
L 646.1009 451.09262 
L 654.613158 450.228299 
L 663.125416 449.362714 
L 671.637674 448.494827 
L 680.149932 447.625603 
L 688.66219 446.754725 
L 697.174448 445.881888 
L 705.686706 445.008656 
L 714.198964 444.131973 
L 722.711222 443.255102 
L 731.22348 442.37716 
L 739.735738 441.496488 
L 748.247996 440.615261 
L 756.760254 439.733488 
L 765.272512 438.849212 
L 773.78477 437.96387 
L 782.297028 437.07777 
L 790.809286 436.191099 
L 799.321544 435.303255 
L 807.833802 434.413228 
L 816.34606 433.522556 
L 824.858318 432.631177 
L 833.370576 431.739071 
L 841.882834 430.84609 
L 850.395092 429.952555 
L 858.90735 429.058201 
L 867.419608 428.162869 
L 875.931866 427.267087 
L 884.444124 426.370453 
L 892.956382 425.473084 
" clip-path="url(#p1ab26a7a44)" style="fill: none; stroke: #8c6d31; stroke-width: 2; stroke-linecap: round"/>
   </g>
   <g id="line2d_42">
    <path d="M 41.730582 519.298694 
L 50.24284 519.076352 
L 58.755098 518.8424 
L 67.267356 518.596979 
L 75.779614 518.340225 
L 84.291872 518.072294 
L 92.80413 517.793306 
L 101.316388 517.503418 
L 109.828646 517.202768 
L 118.340904 516.891477 
L 126.853162 516.569734 
L 135.36542 516.237588 
L 143.877678 515.89524 
L 152.389936 515.542814 
L 160.902194 515.180397 
L 169.414452 514.808157 
L 177.92671 514.426263 
L 186.438968 514.034743 
L 194.951226 513.63381 
L 203.463484 513.223507 
L 211.975742 512.804066 
L 220.488 512.375507 
L 229.000258 511.938024 
L 237.512516 511.491683 
L 246.024774 511.036661 
L 254.537032 510.573023 
L 263.04929 510.1009 
L 271.561548 509.620432 
L 280.073806 509.131692 
L 288.586064 508.634798 
L 297.098322 508.129976 
L 305.61058 507.617267 
L 314.122838 507.096644 
L 322.635096 506.568199 
L 331.147354 506.032469 
L 339.659612 505.489181 
L 348.17187 504.938455 
L 356.684128 504.38048 
L 365.196386 503.815363 
L 373.708644 503.243222 
L 382.220902 502.664081 
L 390.73316 502.078154 
L 399.245418 501.485442 
L 407.757676 500.886039 
L 416.269934 500.280107 
L 424.782192 499.667777 
L 433.29445 499.049075 
L 441.806708 498.424132 
L 450.318966 497.792934 
L 458.831224 497.155607 
L 467.343482 496.51245 
L 475.85574 495.863359 
L 484.367998 495.208494 
L 492.880256 494.547963 
L 501.392514 493.881544 
L 509.904772 493.21003 
L 518.41703 492.532699 
L 526.929288 491.850048 
L 535.441546 491.162418 
L 543.953804 490.469284 
L 552.466062 489.771094 
L 560.97832 489.068059 
L 569.490578 488.359991 
L 578.002836 487.64697 
L 586.515094 486.92923 
L 595.027352 486.206998 
L 603.53961 485.48006 
L 612.051868 484.748328 
L 620.564126 484.012552 
L 629.076384 483.272073 
L 637.588642 482.527267 
L 646.1009 481.778532 
L 654.613158 481.025482 
L 663.125416 480.268301 
L 671.637674 479.507081 
L 680.149932 478.742022 
L 688.66219 477.973138 
L 697.174448 477.200233 
L 705.686706 476.42366 
L 714.198964 475.643465 
L 722.711222 474.859976 
L 731.22348 474.072483 
L 739.735738 473.282055 
L 748.247996 472.487645 
L 756.760254 471.690635 
L 765.272512 470.889534 
L 773.78477 470.08579 
L 782.297028 469.279046 
L 790.809286 468.46876 
L 799.321544 467.655574 
L 807.833802 466.839593 
L 816.34606 466.020872 
L 824.858318 465.199339 
L 833.370576 464.375009 
L 841.882834 463.547818 
L 850.395092 462.718097 
L 858.90735 461.885684 
L 867.419608 461.050523 
L 875.931866 460.213154 
L 884.444124 459.373347 
L 892.956382 458.531347 
" clip-path="url(#p1ab26a7a44)" style="fill: none; stroke: #e7cb94; stroke-width: 2; stroke-linecap: round"/>
   </g>
   <g id="line2d_43">
    <path d="M 41.730582 520.910511 
L 50.24284 520.820572 
L 58.755098 520.718757 
L 67.267356 520.603853 
L 75.779614 520.476014 
L 84.291872 520.335406 
L 92.80413 520.182174 
L 101.316388 520.016482 
L 109.828646 519.838482 
L 118.340904 519.648317 
L 126.853162 519.44617 
L 135.36542 519.232137 
L 143.877678 519.006407 
L 152.389936 518.769123 
L 160.902194 518.520396 
L 169.414452 518.260406 
L 177.92671 517.989308 
L 186.438968 517.707187 
L 194.951226 517.414233 
L 203.463484 517.110534 
L 211.975742 516.796301 
L 220.488 516.471599 
L 229.000258 516.13661 
L 237.512516 515.79143 
L 246.024774 515.436222 
L 254.537032 515.071101 
L 263.04929 514.696193 
L 271.561548 514.311632 
L 280.073806 513.917545 
L 288.586064 513.514027 
L 297.098322 513.101318 
L 305.61058 512.679456 
L 314.122838 512.248502 
L 322.635096 511.808507 
L 331.147354 511.35998 
L 339.659612 510.9027 
L 348.17187 510.436834 
L 356.684128 509.962504 
L 365.196386 509.479913 
L 373.708644 508.989097 
L 382.220902 508.49018 
L 390.73316 507.98334 
L 399.245418 507.468608 
L 407.757676 506.946031 
L 416.269934 506.415873 
L 424.782192 505.878151 
L 433.29445 505.333107 
L 441.806708 504.780676 
L 450.318966 504.220923 
L 458.831224 503.654093 
L 467.343482 503.080296 
L 475.85574 502.499558 
L 484.367998 501.911943 
L 492.880256 501.317786 
L 501.392514 500.716745 
L 509.904772 500.109522 
L 518.41703 499.495674 
L 526.929288 498.875466 
L 535.441546 498.249161 
L 543.953804 497.616626 
L 552.466062 496.978085 
L 560.97832 496.333633 
L 569.490578 495.6833 
L 578.002836 495.027067 
L 586.515094 494.36525 
L 595.027352 493.697958 
L 603.53961 493.025094 
L 612.051868 492.346827 
L 620.564126 491.663195 
L 629.076384 490.974426 
L 637.588642 490.280241 
L 646.1009 489.581226 
L 654.613158 488.877091 
L 663.125416 488.168157 
L 671.637674 487.454277 
L 680.149932 486.735685 
L 688.66219 486.012541 
L 697.174448 485.284773 
L 705.686706 484.552392 
L 714.198964 483.815614 
L 722.711222 483.07453 
L 731.22348 482.329061 
L 739.735738 481.579487 
L 748.247996 480.825799 
L 756.760254 480.068062 
L 765.272512 479.30625 
L 773.78477 478.540529 
L 782.297028 477.770849 
L 790.809286 476.997542 
L 799.321544 476.220532 
L 807.833802 475.440084 
L 816.34606 474.655584 
L 824.858318 473.868011 
L 833.370576 473.076801 
L 841.882834 472.282287 
L 850.395092 471.484429 
L 858.90735 470.683826 
L 867.419608 469.879095 
L 875.931866 469.07184 
L 884.444124 468.261681 
L 892.956382 467.448451 
" clip-path="url(#p1ab26a7a44)" style="fill: none; stroke: #ad494a; stroke-width: 2; stroke-linecap: round"/>
   </g>
   <g id="line2d_44">
    <path d="M 41.730582 521.634084 
L 50.24284 521.352447 
L 58.755098 521.149922 
L 67.267356 521.004086 
L 75.779614 520.898925 
L 84.291872 520.808349 
L 92.80413 520.704886 
L 101.316388 520.58836 
L 109.828646 520.458927 
L 118.340904 520.31674 
L 126.853162 520.161977 
L 135.36542 519.994755 
L 143.877678 519.815257 
L 152.389936 519.623632 
L 160.902194 519.420006 
L 169.414452 519.204553 
L 177.92671 518.977433 
L 186.438968 518.738748 
L 194.951226 518.488679 
L 203.463484 518.227334 
L 211.975742 517.954914 
L 220.488 517.671498 
L 229.000258 517.37727 
L 237.512516 517.072332 
L 246.024774 516.756853 
L 254.537032 516.430948 
L 263.04929 516.094751 
L 271.561548 515.748407 
L 280.073806 515.39203 
L 288.586064 515.025746 
L 297.098322 514.649777 
L 305.61058 514.264164 
L 314.122838 513.868992 
L 322.635096 513.464314 
L 331.147354 513.050621 
L 339.659612 512.627718 
L 348.17187 512.195756 
L 356.684128 511.754904 
L 365.196386 511.30532 
L 373.708644 510.847071 
L 382.220902 510.380269 
L 390.73316 509.905086 
L 399.245418 509.421596 
L 407.757676 508.929883 
L 416.269934 508.430108 
L 424.782192 507.922357 
L 433.29445 507.406838 
L 441.806708 506.883548 
L 450.318966 506.352568 
L 458.831224 505.813999 
L 467.343482 505.26815 
L 475.85574 504.714961 
L 484.367998 504.154456 
L 492.880256 503.587072 
L 501.392514 503.0124 
L 509.904772 502.431094 
L 518.41703 501.842811 
L 526.929288 501.247827 
L 535.441546 500.646377 
L 543.953804 500.038349 
L 552.466062 499.423839 
L 560.97832 498.803228 
L 569.490578 498.176237 
L 578.002836 497.543111 
L 586.515094 496.903931 
L 595.027352 496.258944 
L 603.53961 495.608094 
L 612.051868 494.951452 
L 620.564126 494.289172 
L 629.076384 493.621324 
L 637.588642 492.9479 
L 646.1009 492.269092 
L 654.613158 491.584973 
L 663.125416 490.895653 
L 671.637674 490.201278 
L 680.149932 489.501719 
L 688.66219 488.797195 
L 697.174448 488.087822 
L 705.686706 487.373693 
L 714.198964 486.654684 
L 722.711222 485.930982 
L 731.22348 485.202872 
L 739.735738 484.470178 
L 748.247996 483.733063 
L 756.760254 482.991523 
L 765.272512 482.245876 
L 773.78477 481.496081 
L 782.297028 480.74188 
L 790.809286 479.983814 
L 799.321544 479.221693 
L 807.833802 478.455729 
L 816.34606 477.686078 
L 824.858318 476.912384 
L 833.370576 476.134985 
L 841.882834 475.354086 
L 850.395092 474.56986 
L 858.90735 473.781732 
L 867.419608 472.990613 
L 875.931866 472.195611 
L 884.444124 471.397831 
L 892.956382 470.596433 
" clip-path="url(#p1ab26a7a44)" style="fill: none; stroke: #e7969c; stroke-width: 2; stroke-linecap: round"/>
   </g>
   <g id="line2d_45">
    <path d="M 41.730582 522.523716 
L 50.24284 521.990978 
L 58.755098 521.608848 
L 67.267356 521.334366 
L 75.779614 521.136932 
L 84.291872 520.99474 
L 92.80413 520.892191 
L 101.316388 520.800893 
L 109.828646 520.696439 
L 118.340904 520.578931 
L 126.853162 520.448544 
L 135.36542 520.305406 
L 143.877678 520.149696 
L 152.389936 519.981569 
L 160.902194 519.801153 
L 169.414452 519.608625 
L 177.92671 519.404145 
L 186.438968 519.187821 
L 194.951226 518.959836 
L 203.463484 518.720302 
L 211.975742 518.469417 
L 220.488 518.207267 
L 229.000258 517.934038 
L 237.512516 517.649834 
L 246.024774 517.354823 
L 254.537032 517.049132 
L 263.04929 516.732887 
L 271.561548 516.406244 
L 280.073806 516.069311 
L 288.586064 515.722223 
L 297.098322 515.365194 
L 305.61058 514.99829 
L 314.122838 514.621575 
L 322.635096 514.235121 
L 331.147354 513.839395 
L 339.659612 513.434239 
L 348.17187 513.019779 
L 356.684128 512.596203 
L 365.196386 512.16365 
L 373.708644 511.722221 
L 382.220902 511.272023 
L 390.73316 510.8132 
L 399.245418 510.345852 
L 407.757676 509.870056 
L 416.269934 509.385989 
L 424.782192 508.893746 
L 433.29445 508.3935 
L 441.806708 507.885279 
L 450.318966 507.369154 
L 458.831224 506.845241 
L 467.343482 506.313805 
L 475.85574 505.774861 
L 484.367998 505.228432 
L 492.880256 504.674851 
L 501.392514 504.113837 
L 509.904772 503.545994 
L 518.41703 502.970951 
L 526.929288 502.389071 
L 535.441546 501.800486 
L 543.953804 501.205141 
L 552.466062 500.603159 
L 560.97832 499.994755 
L 569.490578 499.379963 
L 578.002836 498.75872 
L 586.515094 498.131357 
L 595.027352 497.497989 
L 603.53961 496.858565 
L 612.051868 496.213099 
L 620.564126 495.561947 
L 629.076384 494.904935 
L 637.588642 494.24222 
L 646.1009 493.574068 
L 654.613158 492.900325 
L 663.125416 492.221372 
L 671.637674 491.536845 
L 680.149932 490.847344 
L 688.66219 490.152546 
L 697.174448 489.452719 
L 705.686706 488.747968 
L 714.198964 488.03821 
L 722.711222 487.323776 
L 731.22348 486.604668 
L 739.735738 485.880841 
L 748.247996 485.152263 
L 756.760254 484.419565 
L 765.272512 483.681966 
L 773.78477 482.940392 
L 782.297028 482.194512 
L 790.809286 481.444303 
L 799.321544 480.68995 
L 807.833802 479.931601 
L 816.34606 479.16935 
L 824.858318 478.403213 
L 833.370576 477.633302 
L 841.882834 476.859678 
L 850.395092 476.082104 
L 858.90735 475.300988 
L 867.419608 474.516514 
L 875.931866 473.728261 
L 884.444124 472.936889 
L 892.956382 472.141842 
" clip-path="url(#p1ab26a7a44)" style="fill: none; stroke: #a55194; stroke-width: 2; stroke-linecap: round"/>
   </g>
   <g id="line2d_46">
    <path d="M 41.730582 523.475913 
L 50.24284 522.673058 
L 58.755098 522.098103 
L 67.267356 521.68578 
L 75.779614 521.389671 
L 84.291872 521.176754 
L 92.80413 521.023441 
L 101.316388 520.912908 
L 109.828646 520.823062 
L 118.340904 520.721637 
L 126.853162 520.60714 
L 135.36542 520.4797 
L 143.877678 520.339497 
L 152.389936 520.186687 
L 160.902194 520.021404 
L 169.414452 519.843822 
L 177.92671 519.654104 
L 186.438968 519.452362 
L 194.951226 519.238777 
L 203.463484 519.013466 
L 211.975742 518.776626 
L 220.488 518.528347 
L 229.000258 518.268814 
L 237.512516 517.998135 
L 246.024774 517.716481 
L 254.537032 517.423973 
L 263.04929 517.120748 
L 271.561548 516.806957 
L 280.073806 516.482718 
L 288.586064 516.148152 
L 297.098322 515.803491 
L 305.61058 515.44879 
L 314.122838 515.084124 
L 322.635096 514.709565 
L 331.147354 514.325574 
L 339.659612 513.931992 
L 348.17187 513.528971 
L 356.684128 513.116672 
L 365.196386 512.695256 
L 373.708644 512.264805 
L 382.220902 511.825435 
L 390.73316 511.377305 
L 399.245418 510.920515 
L 407.757676 510.455115 
L 416.269934 509.981321 
L 424.782192 509.499189 
L 433.29445 509.008946 
L 441.806708 508.510569 
L 450.318966 508.004124 
L 458.831224 507.489814 
L 467.343482 506.967834 
L 475.85574 506.43819 
L 484.367998 505.900966 
L 492.880256 505.356412 
L 501.392514 504.804309 
L 509.904772 504.245293 
L 518.41703 503.67891 
L 526.929288 503.105567 
L 535.441546 502.525403 
L 543.953804 501.938384 
L 552.466062 501.344548 
L 560.97832 500.744238 
L 569.490578 500.137388 
L 578.002836 499.523959 
L 586.515094 498.904376 
L 595.027352 498.278576 
L 603.53961 497.646606 
L 612.051868 497.008505 
L 620.564126 496.364531 
L 629.076384 495.714783 
L 637.588642 495.059073 
L 646.1009 494.397816 
L 654.613158 493.730866 
L 663.125416 493.058589 
L 671.637674 492.380783 
L 680.149932 491.697602 
L 688.66219 491.009359 
L 697.174448 490.315819 
L 705.686706 489.617218 
L 714.198964 488.913556 
L 722.711222 488.205107 
L 731.22348 487.491814 
L 739.735738 486.773779 
L 748.247996 486.051183 
L 756.760254 485.323685 
L 765.272512 484.591895 
L 773.78477 483.855584 
L 782.297028 483.115136 
L 790.809286 482.370097 
L 799.321544 481.620891 
L 807.833802 480.867632 
L 816.34606 480.110376 
L 824.858318 479.3491 
L 833.370576 478.583871 
L 841.882834 477.814706 
L 850.395092 477.041971 
L 858.90735 476.265646 
L 867.419608 475.485298 
L 875.931866 474.701512 
L 884.444124 473.914586 
L 892.956382 473.123582 
" clip-path="url(#p1ab26a7a44)" style="fill: none; stroke: #de9ed6; stroke-width: 2; stroke-linecap: round"/>
   </g>
   <g id="patch_3">
    <path d="M 41.730582 521.153031 
L 41.730582 51.564121 
" style="fill: none"/>
   </g>
   <g id="patch_4">
    <path d="M 935.517672 521.153031 
L 935.517672 51.564121 
" style="fill: none"/>
   </g>
   <g id="patch_5">
    <path d="M 41.730582 521.153031 
L 935.517672 521.153031 
" style="fill: none"/>
   </g>
   <g id="patch_6">
    <path d="M 41.730582 51.564121 
L 935.517672 51.564121 
" style="fill: none"/>
   </g>
   <g id="patch_7">
    <path d="M 467.343482 87.213138 
Q 467.343482 287.706277 467.343482 486.522365 
" style="fill: none; stroke: #000000; stroke-width: 1.5; stroke-linecap: round"/>
    <path d="M 470.543482 480.122365 
L 467.343482 486.522365 
L 464.143482 480.122365 
" style="fill: none; stroke: #000000; stroke-width: 1.5; stroke-linecap: round"/>
   </g>
   <g id="text_20">
    <!-- Time -->
    <g style="fill: #262626" transform="translate(488.624127 486.712885) scale(0.18 -0.18)">
     <defs>
      <path id="CMR17-54" d="M 3981 4326 
L 288 4326 
L 179 2918 
L 294 2918 
C 378 3976 467 4160 1453 4160 
C 1568 4160 1754 4160 1805 4154 
C 1926 4135 1926 4058 1926 3912 
L 1926 459 
C 1926 230 1907 160 1376 160 
L 1197 160 
L 1197 0 
C 1504 0 1824 0 2138 0 
C 2451 0 2771 0 3078 0 
L 3078 160 
L 2899 160 
C 2368 160 2349 230 2349 459 
L 2349 3912 
C 2349 4052 2349 4129 2464 4154 
C 2515 4160 2701 4160 2816 4160 
C 3795 4160 3891 3976 3974 2918 
L 4090 2918 
L 3981 4326 
z
" transform="scale(0.015625)"/>
      <path id="CMR17-69" d="M 992 3909 
C 992 4049 877 4170 730 4170 
C 589 4170 467 4056 467 3909 
C 467 3769 582 3648 730 3648 
C 870 3648 992 3763 992 3909 
z
M 243 2706 
L 243 2541 
C 602 2541 653 2502 653 2197 
L 653 427 
C 653 184 627 153 218 153 
L 218 -13 
C 371 0 646 0 806 0 
C 960 0 1222 0 1370 -13 
L 1370 153 
C 992 153 979 191 979 420 
L 979 2776 
L 243 2706 
z
" transform="scale(0.015625)"/>
      <path id="CMR17-6d" d="M 4326 1933 
C 4326 2252 4269 2790 3507 2790 
C 3072 2790 2771 2496 2656 2151 
L 2650 2151 
C 2573 2676 2195 2790 1837 2790 
C 1331 2790 1069 2400 973 2144 
L 966 2144 
L 966 2790 
L 211 2720 
L 211 2554 
C 589 2554 646 2515 646 2208 
L 646 428 
C 646 184 621 153 211 153 
L 211 -13 
C 365 0 646 0 813 0 
C 979 0 1267 0 1421 -13 
L 1421 153 
C 1011 153 986 178 986 428 
L 986 1658 
C 986 2247 1344 2688 1792 2688 
C 2266 2688 2317 2266 2317 1958 
L 2317 428 
C 2317 184 2291 153 1882 153 
L 1882 -13 
C 2035 0 2317 0 2483 0 
C 2650 0 2938 0 3091 -13 
L 3091 153 
C 2682 153 2656 178 2656 428 
L 2656 1658 
C 2656 2247 3014 2688 3462 2688 
C 3936 2688 3987 2266 3987 1958 
L 3987 428 
C 3987 184 3962 153 3552 153 
L 3552 -13 
C 3706 0 3987 0 4154 0 
C 4320 0 4608 0 4762 -13 
L 4762 153 
C 4352 153 4326 178 4326 428 
L 4326 1933 
z
" transform="scale(0.015625)"/>
      <path id="CMR17-65" d="M 2438 1472 
C 2464 1498 2464 1511 2464 1576 
C 2464 2238 2118 2816 1389 2816 
C 710 2816 173 2169 173 1383 
C 173 551 781 -64 1459 -64 
C 2176 -64 2458 607 2458 740 
C 2458 784 2419 784 2406 784 
C 2362 784 2355 771 2330 696 
C 2189 265 1837 51 1504 51 
C 1229 51 954 203 781 480 
C 582 803 582 1176 582 1472 
L 2438 1472 
z
M 589 1568 
C 634 2505 1126 2714 1382 2714 
C 1818 2714 2112 2297 2118 1568 
L 589 1568 
z
" transform="scale(0.015625)"/>
     </defs>
     <use xlink:href="#CMR17-54" transform="scale(0.996264)"/>
     <use xlink:href="#CMR17-69" transform="translate(66.509881 0) scale(0.996264)"/>
     <use xlink:href="#CMR17-6d" transform="translate(91.380939 0) scale(0.996264)"/>
     <use xlink:href="#CMR17-65" transform="translate(168.300529 0) scale(0.996264)"/>
    </g>
   </g>
   <g id="legend_1">
    <g id="line2d_47">
     <path d="M 948.117672 197.198434 
L 962.117672 197.198434 
L 976.117672 197.198434 
" style="fill: none; stroke: #393b79; stroke-width: 2; stroke-linecap: round"/>
    </g>
    <g id="text_21">
     <!-- t = 0.00 -->
     <g style="fill: #262626" transform="translate(987.317672 202.098434) scale(0.14 -0.14)">
      <defs>
       <path id="CMR17-74" d="M 966 2560 
L 1862 2560 
L 1862 2725 
L 966 2725 
L 966 3904 
L 851 3904 
C 838 3245 614 2668 70 2668 
L 70 2560 
L 627 2560 
L 627 771 
C 627 650 627 -64 1370 -64 
C 1747 -64 1965 306 1965 777 
L 1965 1140 
L 1850 1140 
L 1850 783 
C 1850 344 1677 51 1408 51 
C 1222 51 966 178 966 758 
L 966 2560 
z
" transform="scale(0.015625)"/>
       <path id="CMR17-3d" d="M 4115 2017 
C 4211 2017 4307 2017 4307 2125 
C 4307 2240 4198 2240 4090 2240 
L 512 2240 
C 403 2240 294 2240 294 2125 
C 294 2017 390 2017 486 2017 
L 4115 2017 
z
M 4090 896 
C 4198 896 4307 896 4307 1011 
C 4307 1119 4211 1119 4115 1119 
L 486 1119 
C 390 1119 294 1119 294 1011 
C 294 896 403 896 512 896 
L 4090 896 
z
" transform="scale(0.015625)"/>
       <path id="CMR17-2e" d="M 1062 261 
C 1062 420 934 522 800 522 
C 672 522 538 420 538 261 
C 538 102 666 0 800 0 
C 928 0 1062 102 1062 261 
z
" transform="scale(0.015625)"/>
      </defs>
      <use xlink:href="#CMR17-74" transform="scale(0.996264)"/>
      <use xlink:href="#CMR17-3d" transform="translate(65.356734 0) scale(0.996264)"/>
      <use xlink:href="#CMR17-30" transform="translate(167.147489 0) scale(0.996264)"/>
      <use xlink:href="#CMR17-2e" transform="translate(212.837966 0) scale(0.996264)"/>
      <use xlink:href="#CMR17-30" transform="translate(237.709025 0) scale(0.996264)"/>
      <use xlink:href="#CMR17-30" transform="translate(283.399502 0) scale(0.996264)"/>
     </g>
    </g>
    <g id="line2d_48">
     <path d="M 948.117672 216.710462 
L 962.117672 216.710462 
L 976.117672 216.710462 
" style="fill: none; stroke: #6b6ecf; stroke-width: 2; stroke-linecap: round"/>
    </g>
    <g id="text_22">
     <!-- t = 10.00 -->
     <g style="fill: #262626" transform="translate(987.317672 221.610462) scale(0.14 -0.14)">
      <use xlink:href="#CMR17-74" transform="scale(0.996264)"/>
      <use xlink:href="#CMR17-3d" transform="translate(65.356734 0) scale(0.996264)"/>
      <use xlink:href="#CMR17-31" transform="translate(167.147489 0) scale(0.996264)"/>
      <use xlink:href="#CMR17-30" transform="translate(212.837966 0) scale(0.996264)"/>
      <use xlink:href="#CMR17-2e" transform="translate(258.528443 0) scale(0.996264)"/>
      <use xlink:href="#CMR17-30" transform="translate(283.399502 0) scale(0.996264)"/>
      <use xlink:href="#CMR17-30" transform="translate(329.089979 0) scale(0.996264)"/>
     </g>
    </g>
    <g id="line2d_49">
     <path d="M 948.117672 236.222491 
L 962.117672 236.222491 
L 976.117672 236.222491 
" style="fill: none; stroke: #637939; stroke-width: 2; stroke-linecap: round"/>
    </g>
    <g id="text_23">
     <!-- t = 50.00 -->
     <g style="fill: #262626" transform="translate(987.317672 241.122491) scale(0.14 -0.14)">
      <use xlink:href="#CMR17-74" transform="scale(0.996264)"/>
      <use xlink:href="#CMR17-3d" transform="translate(65.356734 0) scale(0.996264)"/>
      <use xlink:href="#CMR17-35" transform="translate(167.147489 0) scale(0.996264)"/>
      <use xlink:href="#CMR17-30" transform="translate(212.837966 0) scale(0.996264)"/>
      <use xlink:href="#CMR17-2e" transform="translate(258.528443 0) scale(0.996264)"/>
      <use xlink:href="#CMR17-30" transform="translate(283.399502 0) scale(0.996264)"/>
      <use xlink:href="#CMR17-30" transform="translate(329.089979 0) scale(0.996264)"/>
     </g>
    </g>
    <g id="line2d_50">
     <path d="M 948.117672 255.734519 
L 962.117672 255.734519 
L 976.117672 255.734519 
" style="fill: none; stroke: #b5cf6b; stroke-width: 2; stroke-linecap: round"/>
    </g>
    <g id="text_24">
     <!-- t = 100.00 -->
     <g style="fill: #262626" transform="translate(987.317672 260.634519) scale(0.14 -0.14)">
      <use xlink:href="#CMR17-74" transform="scale(0.996264)"/>
      <use xlink:href="#CMR17-3d" transform="translate(65.356734 0) scale(0.996264)"/>
      <use xlink:href="#CMR17-31" transform="translate(167.147489 0) scale(0.996264)"/>
      <use xlink:href="#CMR17-30" transform="translate(212.837966 0) scale(0.996264)"/>
      <use xlink:href="#CMR17-30" transform="translate(258.528443 0) scale(0.996264)"/>
      <use xlink:href="#CMR17-2e" transform="translate(304.21892 0) scale(0.996264)"/>
      <use xlink:href="#CMR17-30" transform="translate(329.089979 0) scale(0.996264)"/>
      <use xlink:href="#CMR17-30" transform="translate(374.780456 0) scale(0.996264)"/>
     </g>
    </g>
    <g id="line2d_51">
     <path d="M 948.117672 275.246547 
L 962.117672 275.246547 
L 976.117672 275.246547 
" style="fill: none; stroke: #8c6d31; stroke-width: 2; stroke-linecap: round"/>
    </g>
    <g id="text_25">
     <!-- t = 250.00 -->
     <g style="fill: #262626" transform="translate(987.317672 280.146547) scale(0.14 -0.14)">
      <use xlink:href="#CMR17-74" transform="scale(0.996264)"/>
      <use xlink:href="#CMR17-3d" transform="translate(65.356734 0) scale(0.996264)"/>
      <use xlink:href="#CMR17-32" transform="translate(167.147489 0) scale(0.996264)"/>
      <use xlink:href="#CMR17-35" transform="translate(212.837966 0) scale(0.996264)"/>
      <use xlink:href="#CMR17-30" transform="translate(258.528443 0) scale(0.996264)"/>
      <use xlink:href="#CMR17-2e" transform="translate(304.21892 0) scale(0.996264)"/>
      <use xlink:href="#CMR17-30" transform="translate(329.089979 0) scale(0.996264)"/>
      <use xlink:href="#CMR17-30" transform="translate(374.780456 0) scale(0.996264)"/>
     </g>
    </g>
    <g id="line2d_52">
     <path d="M 948.117672 294.758576 
L 962.117672 294.758576 
L 976.117672 294.758576 
" style="fill: none; stroke: #e7cb94; stroke-width: 2; stroke-linecap: round"/>
    </g>
    <g id="text_26">
     <!-- t = 500.00 -->
     <g style="fill: #262626" transform="translate(987.317672 299.658576) scale(0.14 -0.14)">
      <use xlink:href="#CMR17-74" transform="scale(0.996264)"/>
      <use xlink:href="#CMR17-3d" transform="translate(65.356734 0) scale(0.996264)"/>
      <use xlink:href="#CMR17-35" transform="translate(167.147489 0) scale(0.996264)"/>
      <use xlink:href="#CMR17-30" transform="translate(212.837966 0) scale(0.996264)"/>
      <use xlink:href="#CMR17-30" transform="translate(258.528443 0) scale(0.996264)"/>
      <use xlink:href="#CMR17-2e" transform="translate(304.21892 0) scale(0.996264)"/>
      <use xlink:href="#CMR17-30" transform="translate(329.089979 0) scale(0.996264)"/>
      <use xlink:href="#CMR17-30" transform="translate(374.780456 0) scale(0.996264)"/>
     </g>
    </g>
    <g id="line2d_53">
     <path d="M 948.117672 314.270604 
L 962.117672 314.270604 
L 976.117672 314.270604 
" style="fill: none; stroke: #ad494a; stroke-width: 2; stroke-linecap: round"/>
    </g>
    <g id="text_27">
     <!-- t = 750.00 -->
     <g style="fill: #262626" transform="translate(987.317672 319.170604) scale(0.14 -0.14)">
      <use xlink:href="#CMR17-74" transform="scale(0.996264)"/>
      <use xlink:href="#CMR17-3d" transform="translate(65.356734 0) scale(0.996264)"/>
      <use xlink:href="#CMR17-37" transform="translate(167.147489 0) scale(0.996264)"/>
      <use xlink:href="#CMR17-35" transform="translate(212.837966 0) scale(0.996264)"/>
      <use xlink:href="#CMR17-30" transform="translate(258.528443 0) scale(0.996264)"/>
      <use xlink:href="#CMR17-2e" transform="translate(304.21892 0) scale(0.996264)"/>
      <use xlink:href="#CMR17-30" transform="translate(329.089979 0) scale(0.996264)"/>
      <use xlink:href="#CMR17-30" transform="translate(374.780456 0) scale(0.996264)"/>
     </g>
    </g>
    <g id="line2d_54">
     <path d="M 948.117672 333.782633 
L 962.117672 333.782633 
L 976.117672 333.782633 
" style="fill: none; stroke: #e7969c; stroke-width: 2; stroke-linecap: round"/>
    </g>
    <g id="text_28">
     <!-- t = 1000.00 -->
     <g style="fill: #262626" transform="translate(987.317672 338.682633) scale(0.14 -0.14)">
      <use xlink:href="#CMR17-74" transform="scale(0.996264)"/>
      <use xlink:href="#CMR17-3d" transform="translate(65.356734 0) scale(0.996264)"/>
      <use xlink:href="#CMR17-31" transform="translate(167.147489 0) scale(0.996264)"/>
      <use xlink:href="#CMR17-30" transform="translate(212.837966 0) scale(0.996264)"/>
      <use xlink:href="#CMR17-30" transform="translate(258.528443 0) scale(0.996264)"/>
      <use xlink:href="#CMR17-30" transform="translate(304.21892 0) scale(0.996264)"/>
      <use xlink:href="#CMR17-2e" transform="translate(349.909397 0) scale(0.996264)"/>
      <use xlink:href="#CMR17-30" transform="translate(374.780456 0) scale(0.996264)"/>
      <use xlink:href="#CMR17-30" transform="translate(420.470933 0) scale(0.996264)"/>
     </g>
    </g>
    <g id="line2d_55">
     <path d="M 948.117672 353.294661 
L 962.117672 353.294661 
L 976.117672 353.294661 
" style="fill: none; stroke: #a55194; stroke-width: 2; stroke-linecap: round"/>
    </g>
    <g id="text_29">
     <!-- t = 1250.00 -->
     <g style="fill: #262626" transform="translate(987.317672 358.194661) scale(0.14 -0.14)">
      <use xlink:href="#CMR17-74" transform="scale(0.996264)"/>
      <use xlink:href="#CMR17-3d" transform="translate(65.356734 0) scale(0.996264)"/>
      <use xlink:href="#CMR17-31" transform="translate(167.147489 0) scale(0.996264)"/>
      <use xlink:href="#CMR17-32" transform="translate(212.837966 0) scale(0.996264)"/>
      <use xlink:href="#CMR17-35" transform="translate(258.528443 0) scale(0.996264)"/>
      <use xlink:href="#CMR17-30" transform="translate(304.21892 0) scale(0.996264)"/>
      <use xlink:href="#CMR17-2e" transform="translate(349.909397 0) scale(0.996264)"/>
      <use xlink:href="#CMR17-30" transform="translate(374.780456 0) scale(0.996264)"/>
      <use xlink:href="#CMR17-30" transform="translate(420.470933 0) scale(0.996264)"/>
     </g>
    </g>
    <g id="line2d_56">
     <path d="M 948.117672 372.806689 
L 962.117672 372.806689 
L 976.117672 372.806689 
" style="fill: none; stroke: #de9ed6; stroke-width: 2; stroke-linecap: round"/>
    </g>
    <g id="text_30">
     <!-- t = 1500.00 -->
     <g style="fill: #262626" transform="translate(987.317672 377.706689) scale(0.14 -0.14)">
      <use xlink:href="#CMR17-74" transform="scale(0.996264)"/>
      <use xlink:href="#CMR17-3d" transform="translate(65.356734 0) scale(0.996264)"/>
      <use xlink:href="#CMR17-31" transform="translate(167.147489 0) scale(0.996264)"/>
      <use xlink:href="#CMR17-35" transform="translate(212.837966 0) scale(0.996264)"/>
      <use xlink:href="#CMR17-30" transform="translate(258.528443 0) scale(0.996264)"/>
      <use xlink:href="#CMR17-30" transform="translate(304.21892 0) scale(0.996264)"/>
      <use xlink:href="#CMR17-2e" transform="translate(349.909397 0) scale(0.996264)"/>
      <use xlink:href="#CMR17-30" transform="translate(374.780456 0) scale(0.996264)"/>
      <use xlink:href="#CMR17-30" transform="translate(420.470933 0) scale(0.996264)"/>
     </g>
    </g>
   </g>
  </g>
  <g id="text_31">
   <!-- adhesivity -->
   <g style="fill: #262626" transform="translate(501.333696 24.803515) scale(0.192 -0.192)">
    <defs>
     <path id="CMR17-61" d="M 2304 1653 
C 2304 2072 2304 2294 2035 2543 
C 1798 2752 1523 2816 1306 2816 
C 800 2816 435 2407 435 1971 
C 435 1728 627 1728 666 1728 
C 749 1728 896 1778 896 1954 
C 896 2112 774 2181 666 2181 
C 640 2181 608 2174 589 2168 
C 723 2592 1069 2714 1293 2714 
C 1613 2714 1965 2429 1965 1885 
L 1965 1600 
C 1587 1600 1133 1549 774 1357 
C 371 1133 256 813 256 570 
C 256 77 832 -64 1171 -64 
C 1523 -64 1850 139 1990 511 
C 2003 233 2182 -18 2464 -18 
C 2598 -18 2938 70 2938 567 
L 2938 920 
L 2822 920 
L 2822 562 
C 2822 178 2650 128 2566 128 
C 2304 128 2304 458 2304 738 
L 2304 1653 
z
M 1965 870 
C 1965 317 1568 38 1216 38 
C 896 38 646 275 646 570 
C 646 761 730 1100 1101 1305 
C 1408 1478 1760 1504 1965 1504 
L 1965 870 
z
" transform="scale(0.015625)"/>
     <path id="CMR17-64" d="M 1869 4326 
L 1869 4160 
C 2246 4160 2304 4122 2304 3820 
L 2304 2345 
C 2278 2377 2016 2790 1498 2790 
C 845 2790 211 2208 211 1364 
C 211 525 806 -64 1434 -64 
C 1978 -64 2259 337 2291 380 
L 2291 -63 
L 3066 -63 
L 3066 128 
C 2688 128 2630 166 2630 473 
L 2630 4396 
L 1869 4326 
z
M 2291 755 
C 2291 563 2176 390 2029 262 
C 1811 70 1594 38 1472 38 
C 1286 38 621 134 621 1356 
C 621 2612 1363 2688 1530 2688 
C 1824 2688 2061 2522 2208 2291 
C 2291 2157 2291 2138 2291 2023 
L 2291 755 
z
" transform="scale(0.015625)"/>
     <path id="CMR17-68" d="M 2656 1933 
C 2656 2259 2592 2790 1837 2790 
C 1312 2790 1056 2368 979 2157 
L 973 2157 
L 973 4396 
L 211 4326 
L 211 4160 
C 589 4160 646 4122 646 3817 
L 646 426 
C 646 184 621 153 211 153 
L 211 -13 
C 365 0 646 0 813 0 
C 979 0 1267 0 1421 -13 
L 1421 153 
C 1011 153 986 178 986 428 
L 986 1658 
C 986 2247 1344 2688 1792 2688 
C 2266 2688 2317 2266 2317 1958 
L 2317 428 
C 2317 184 2291 153 1882 153 
L 1882 -13 
C 2035 0 2317 0 2483 0 
C 2650 0 2938 0 3091 -13 
L 3091 153 
C 2682 153 2656 178 2656 428 
L 2656 1933 
z
" transform="scale(0.015625)"/>
     <path id="CMR17-73" d="M 1978 2697 
C 1978 2813 1971 2819 1933 2819 
C 1907 2819 1901 2813 1824 2717 
C 1805 2691 1747 2626 1728 2601 
C 1523 2819 1235 2819 1126 2819 
C 416 2819 160 2447 160 2076 
C 160 1498 813 1365 998 1325 
C 1402 1243 1542 1217 1677 1101 
C 1760 1025 1901 884 1901 654 
C 1901 384 1747 38 1158 38 
C 602 38 403 460 288 1021 
C 269 1110 269 1117 218 1117 
C 166 1117 160 1110 160 983 
L 160 63 
C 160 -51 166 -58 205 -58 
C 237 -58 243 -51 275 0 
C 314 57 410 211 448 276 
C 576 103 800 -64 1158 -64 
C 1792 -64 2131 283 2131 784 
C 2131 1112 1958 1285 1875 1362 
C 1683 1561 1459 1606 1190 1657 
C 838 1735 390 1825 390 2217 
C 390 2383 480 2737 1126 2737 
C 1811 2737 1850 2094 1862 1888 
C 1869 1856 1901 1849 1920 1849 
C 1978 1849 1978 1869 1978 1978 
L 1978 2697 
z
" transform="scale(0.015625)"/>
     <path id="CMR17-76" d="M 2502 2163 
C 2560 2304 2662 2560 3034 2560 
L 3034 2726 
C 2912 2726 2752 2726 2630 2726 
C 2496 2726 2285 2726 2157 2732 
L 2157 2566 
C 2317 2553 2406 2477 2406 2311 
C 2406 2253 2406 2240 2368 2151 
L 1664 377 
L 902 2286 
C 864 2369 864 2381 864 2407 
C 864 2560 1075 2560 1171 2560 
L 1171 2732 
C 1018 2726 736 2726 576 2726 
C 403 2726 205 2726 64 2732 
L 64 2560 
C 307 2560 442 2560 518 2362 
L 1446 44 
C 1485 -51 1491 -64 1549 -64 
C 1606 -64 1613 -51 1651 44 
L 2502 2163 
z
" transform="scale(0.015625)"/>
     <path id="CMR17-79" d="M 2496 2197 
C 2656 2586 2944 2586 3034 2586 
L 3034 2752 
C 2912 2752 2752 2752 2630 2752 
C 2496 2752 2285 2752 2157 2758 
L 2157 2592 
C 2400 2573 2406 2394 2406 2343 
C 2406 2280 2394 2248 2362 2171 
L 1664 449 
L 902 2306 
C 870 2382 870 2426 870 2433 
C 870 2573 1018 2586 1171 2586 
L 1171 2758 
C 1018 2752 742 2752 582 2752 
C 410 2752 205 2752 64 2758 
L 64 2586 
C 410 2586 448 2554 531 2350 
L 1485 15 
C 1197 -738 1030 -1178 627 -1178 
C 557 -1178 397 -1159 282 -1044 
C 429 -1031 493 -942 493 -833 
C 493 -725 416 -629 288 -629 
C 147 -629 77 -725 77 -840 
C 77 -1095 339 -1280 627 -1280 
C 998 -1280 1229 -922 1357 -604 
L 2496 2197 
z
" transform="scale(0.015625)"/>
    </defs>
    <use xlink:href="#CMR17-61" transform="scale(0.996264)"/>
    <use xlink:href="#CMR17-64" transform="translate(45.690477 0) scale(0.996264)"/>
    <use xlink:href="#CMR17-68" transform="translate(96.585847 0) scale(0.996264)"/>
    <use xlink:href="#CMR17-65" transform="translate(147.481217 0) scale(0.996264)"/>
    <use xlink:href="#CMR17-73" transform="translate(187.966877 0) scale(0.996264)"/>
    <use xlink:href="#CMR17-69" transform="translate(223.768215 0) scale(0.996264)"/>
    <use xlink:href="#CMR17-76" transform="translate(248.639273 0) scale(0.996264)"/>
    <use xlink:href="#CMR17-69" transform="translate(296.932189 0) scale(0.996264)"/>
    <use xlink:href="#CMR17-74" transform="translate(321.803248 0) scale(0.996264)"/>
    <use xlink:href="#CMR17-79" transform="translate(354.481561 0) scale(0.996264)"/>
   </g>
  </g>
 </g>
 <defs>
  <clipPath id="p1ab26a7a44">
   <rect x="41.730582" y="51.564121" width="893.78709" height="469.58891"/>
  </clipPath>
 </defs>
</svg>
