<?xml version="1.0" encoding="utf-8" standalone="no"?>
<!DOCTYPE svg PUBLIC "-//W3C//DTD SVG 1.1//EN"
  "http://www.w3.org/Graphics/SVG/1.1/DTD/svg11.dtd">
<svg xmlns:xlink="http://www.w3.org/1999/xlink" width="1080pt" height="576pt" viewBox="0 0 1080 576" xmlns="http://www.w3.org/2000/svg" version="1.1">
 <metadata>
  <rdf:RDF xmlns:dc="http://purl.org/dc/elements/1.1/" xmlns:cc="http://creativecommons.org/ns#" xmlns:rdf="http://www.w3.org/1999/02/22-rdf-syntax-ns#">
   <cc:Work>
    <dc:type rdf:resource="http://purl.org/dc/dcmitype/StillImage"/>
    <dc:date>2024-06-28T12:12:01.407627</dc:date>
    <dc:format>image/svg+xml</dc:format>
    <dc:creator>
     <cc:Agent>
      <dc:title>Matplotlib v3.9.0, https://matplotlib.org/</dc:title>
     </cc:Agent>
    </dc:creator>
   </cc:Work>
  </rdf:RDF>
 </metadata>
 <defs>
  <style type="text/css">*{stroke-linejoin: round; stroke-linecap: butt}</style>
 </defs>
 <g id="figure_1">
  <g id="patch_1">
   <path d="M 0 576 
L 1080 576 
L 1080 0 
L 0 0 
z
" style="fill: #ffffff"/>
  </g>
  <g id="axes_1">
   <g id="patch_2">
    <path d="M 41.730582 521.153031 
L 935.517672 521.153031 
L 935.517672 51.564121 
L 41.730582 51.564121 
z
" style="fill: #eaeaf2"/>
   </g>
   <g id="matplotlib.axis_1">
    <g id="xtick_1">
     <g id="line2d_1">
      <path d="M 41.730582 521.153031 
L 41.730582 51.564121 
" clip-path="url(#peffb9acfd7)" style="fill: none; stroke: #ffffff; stroke-linecap: round"/>
     </g>
     <g id="line2d_2"/>
     <g id="text_1">
      <!-- $\mathdefault{0.00}$ -->
      <g style="fill: #262626" transform="translate(29.591047 537.838907) scale(0.14 -0.14)">
       <defs>
        <path id="CMR17-30" d="M 2688 2025 
C 2688 2416 2682 3080 2413 3591 
C 2176 4039 1798 4198 1466 4198 
C 1158 4198 768 4058 525 3597 
C 269 3118 243 2524 243 2025 
C 243 1661 250 1106 448 619 
C 723 -39 1216 -128 1466 -128 
C 1760 -128 2208 -7 2470 600 
C 2662 1042 2688 1559 2688 2025 
z
M 1466 -26 
C 1056 -26 813 325 723 812 
C 653 1188 653 1738 653 2096 
C 653 2588 653 2997 736 3387 
C 858 3929 1216 4096 1466 4096 
C 1728 4096 2067 3923 2189 3400 
C 2272 3036 2278 2607 2278 2096 
C 2278 1680 2278 1169 2202 792 
C 2067 95 1690 -26 1466 -26 
z
" transform="scale(0.015625)"/>
        <path id="CMMI12-3a" d="M 1178 307 
C 1178 492 1024 619 870 619 
C 685 619 557 466 557 313 
C 557 128 710 0 864 0 
C 1050 0 1178 153 1178 307 
z
" transform="scale(0.015625)"/>
       </defs>
       <use xlink:href="#CMR17-30" transform="scale(0.996264)"/>
       <use xlink:href="#CMMI12-3a" transform="translate(45.690477 0) scale(0.996264)"/>
       <use xlink:href="#CMR17-30" transform="translate(72.787654 0) scale(0.996264)"/>
       <use xlink:href="#CMR17-30" transform="translate(118.478131 0) scale(0.996264)"/>
      </g>
     </g>
    </g>
    <g id="xtick_2">
     <g id="line2d_3">
      <path d="M 148.133807 521.153031 
L 148.133807 51.564121 
" clip-path="url(#peffb9acfd7)" style="fill: none; stroke: #ffffff; stroke-linecap: round"/>
     </g>
     <g id="line2d_4"/>
     <g id="text_2">
      <!-- $\mathdefault{0.25}$ -->
      <g style="fill: #262626" transform="translate(135.994272 537.838907) scale(0.14 -0.14)">
       <defs>
        <path id="CMR17-32" d="M 2669 989 
L 2554 989 
C 2490 536 2438 459 2413 420 
C 2381 369 1920 369 1830 369 
L 602 369 
C 832 619 1280 1072 1824 1597 
C 2214 1967 2669 2402 2669 3035 
C 2669 3790 2067 4224 1395 4224 
C 691 4224 262 3604 262 3030 
C 262 2780 448 2748 525 2748 
C 589 2748 781 2787 781 3010 
C 781 3207 614 3264 525 3264 
C 486 3264 448 3258 422 3245 
C 544 3790 915 4058 1306 4058 
C 1862 4058 2227 3617 2227 3035 
C 2227 2479 1901 2000 1536 1584 
L 262 146 
L 262 0 
L 2515 0 
L 2669 989 
z
" transform="scale(0.015625)"/>
        <path id="CMR17-35" d="M 730 3692 
C 794 3666 1056 3584 1325 3584 
C 1920 3584 2246 3911 2432 4100 
C 2432 4157 2432 4192 2394 4192 
C 2387 4192 2374 4192 2323 4163 
C 2099 4058 1837 3973 1517 3973 
C 1325 3973 1037 3999 723 4139 
C 653 4171 640 4171 634 4171 
C 602 4171 595 4164 595 4037 
L 595 2203 
C 595 2089 595 2057 659 2057 
C 691 2057 704 2070 736 2114 
C 941 2401 1222 2522 1542 2522 
C 1766 2522 2246 2382 2246 1289 
C 2246 1085 2246 715 2054 421 
C 1894 159 1645 25 1370 25 
C 947 25 518 320 403 814 
C 429 807 480 795 506 795 
C 589 795 749 840 749 1038 
C 749 1210 627 1280 506 1280 
C 358 1280 262 1190 262 1011 
C 262 454 704 -128 1382 -128 
C 2042 -128 2669 440 2669 1264 
C 2669 2030 2170 2624 1549 2624 
C 1222 2624 947 2503 730 2274 
L 730 3692 
z
" transform="scale(0.015625)"/>
       </defs>
       <use xlink:href="#CMR17-30" transform="scale(0.996264)"/>
       <use xlink:href="#CMMI12-3a" transform="translate(45.690477 0) scale(0.996264)"/>
       <use xlink:href="#CMR17-32" transform="translate(72.787654 0) scale(0.996264)"/>
       <use xlink:href="#CMR17-35" transform="translate(118.478131 0) scale(0.996264)"/>
      </g>
     </g>
    </g>
    <g id="xtick_3">
     <g id="line2d_5">
      <path d="M 254.537032 521.153031 
L 254.537032 51.564121 
" clip-path="url(#peffb9acfd7)" style="fill: none; stroke: #ffffff; stroke-linecap: round"/>
     </g>
     <g id="line2d_6"/>
     <g id="text_3">
      <!-- $\mathdefault{0.50}$ -->
      <g style="fill: #262626" transform="translate(242.397497 537.838907) scale(0.14 -0.14)">
       <use xlink:href="#CMR17-30" transform="scale(0.996264)"/>
       <use xlink:href="#CMMI12-3a" transform="translate(45.690477 0) scale(0.996264)"/>
       <use xlink:href="#CMR17-35" transform="translate(72.787654 0) scale(0.996264)"/>
       <use xlink:href="#CMR17-30" transform="translate(118.478131 0) scale(0.996264)"/>
      </g>
     </g>
    </g>
    <g id="xtick_4">
     <g id="line2d_7">
      <path d="M 360.940257 521.153031 
L 360.940257 51.564121 
" clip-path="url(#peffb9acfd7)" style="fill: none; stroke: #ffffff; stroke-linecap: round"/>
     </g>
     <g id="line2d_8"/>
     <g id="text_4">
      <!-- $\mathdefault{0.75}$ -->
      <g style="fill: #262626" transform="translate(348.800722 537.838907) scale(0.14 -0.14)">
       <defs>
        <path id="CMR17-37" d="M 2886 3941 
L 2886 4081 
L 1382 4081 
C 634 4081 621 4165 595 4288 
L 480 4288 
L 294 3094 
L 410 3094 
C 429 3215 474 3540 550 3661 
C 589 3712 1062 3712 1171 3712 
L 2579 3712 
L 1869 2661 
C 1395 1954 1069 999 1069 165 
C 1069 89 1069 -128 1299 -128 
C 1530 -128 1530 89 1530 171 
L 1530 465 
C 1530 1508 1709 2196 2003 2636 
L 2886 3941 
z
" transform="scale(0.015625)"/>
       </defs>
       <use xlink:href="#CMR17-30" transform="scale(0.996264)"/>
       <use xlink:href="#CMMI12-3a" transform="translate(45.690477 0) scale(0.996264)"/>
       <use xlink:href="#CMR17-37" transform="translate(72.787654 0) scale(0.996264)"/>
       <use xlink:href="#CMR17-35" transform="translate(118.478131 0) scale(0.996264)"/>
      </g>
     </g>
    </g>
    <g id="xtick_5">
     <g id="line2d_9">
      <path d="M 467.343482 521.153031 
L 467.343482 51.564121 
" clip-path="url(#peffb9acfd7)" style="fill: none; stroke: #ffffff; stroke-linecap: round"/>
     </g>
     <g id="line2d_10"/>
     <g id="text_5">
      <!-- $\mathdefault{1.00}$ -->
      <g style="fill: #262626" transform="translate(455.203947 537.838907) scale(0.14 -0.14)">
       <defs>
        <path id="CMR17-31" d="M 1702 4058 
C 1702 4192 1696 4192 1606 4192 
C 1357 3916 979 3827 621 3827 
C 602 3827 570 3827 563 3808 
C 557 3795 557 3782 557 3648 
C 755 3648 1088 3686 1344 3839 
L 1344 461 
C 1344 236 1331 160 781 160 
L 589 160 
L 589 0 
C 896 0 1216 0 1523 0 
C 1830 0 2150 0 2458 0 
L 2458 160 
L 2266 160 
C 1715 160 1702 230 1702 458 
L 1702 4058 
z
" transform="scale(0.015625)"/>
       </defs>
       <use xlink:href="#CMR17-31" transform="scale(0.996264)"/>
       <use xlink:href="#CMMI12-3a" transform="translate(45.690477 0) scale(0.996264)"/>
       <use xlink:href="#CMR17-30" transform="translate(72.787654 0) scale(0.996264)"/>
       <use xlink:href="#CMR17-30" transform="translate(118.478131 0) scale(0.996264)"/>
      </g>
     </g>
    </g>
    <g id="xtick_6">
     <g id="line2d_11">
      <path d="M 573.746707 521.153031 
L 573.746707 51.564121 
" clip-path="url(#peffb9acfd7)" style="fill: none; stroke: #ffffff; stroke-linecap: round"/>
     </g>
     <g id="line2d_12"/>
     <g id="text_6">
      <!-- $\mathdefault{1.25}$ -->
      <g style="fill: #262626" transform="translate(561.607172 537.838907) scale(0.14 -0.14)">
       <use xlink:href="#CMR17-31" transform="scale(0.996264)"/>
       <use xlink:href="#CMMI12-3a" transform="translate(45.690477 0) scale(0.996264)"/>
       <use xlink:href="#CMR17-32" transform="translate(72.787654 0) scale(0.996264)"/>
       <use xlink:href="#CMR17-35" transform="translate(118.478131 0) scale(0.996264)"/>
      </g>
     </g>
    </g>
    <g id="xtick_7">
     <g id="line2d_13">
      <path d="M 680.149932 521.153031 
L 680.149932 51.564121 
" clip-path="url(#peffb9acfd7)" style="fill: none; stroke: #ffffff; stroke-linecap: round"/>
     </g>
     <g id="line2d_14"/>
     <g id="text_7">
      <!-- $\mathdefault{1.50}$ -->
      <g style="fill: #262626" transform="translate(668.010397 537.838907) scale(0.14 -0.14)">
       <use xlink:href="#CMR17-31" transform="scale(0.996264)"/>
       <use xlink:href="#CMMI12-3a" transform="translate(45.690477 0) scale(0.996264)"/>
       <use xlink:href="#CMR17-35" transform="translate(72.787654 0) scale(0.996264)"/>
       <use xlink:href="#CMR17-30" transform="translate(118.478131 0) scale(0.996264)"/>
      </g>
     </g>
    </g>
    <g id="xtick_8">
     <g id="line2d_15">
      <path d="M 786.553157 521.153031 
L 786.553157 51.564121 
" clip-path="url(#peffb9acfd7)" style="fill: none; stroke: #ffffff; stroke-linecap: round"/>
     </g>
     <g id="line2d_16"/>
     <g id="text_8">
      <!-- $\mathdefault{1.75}$ -->
      <g style="fill: #262626" transform="translate(774.413622 537.838907) scale(0.14 -0.14)">
       <use xlink:href="#CMR17-31" transform="scale(0.996264)"/>
       <use xlink:href="#CMMI12-3a" transform="translate(45.690477 0) scale(0.996264)"/>
       <use xlink:href="#CMR17-37" transform="translate(72.787654 0) scale(0.996264)"/>
       <use xlink:href="#CMR17-35" transform="translate(118.478131 0) scale(0.996264)"/>
      </g>
     </g>
    </g>
    <g id="xtick_9">
     <g id="line2d_17">
      <path d="M 892.956382 521.153031 
L 892.956382 51.564121 
" clip-path="url(#peffb9acfd7)" style="fill: none; stroke: #ffffff; stroke-linecap: round"/>
     </g>
     <g id="line2d_18"/>
     <g id="text_9">
      <!-- $\mathdefault{2.00}$ -->
      <g style="fill: #262626" transform="translate(880.816846 537.838907) scale(0.14 -0.14)">
       <use xlink:href="#CMR17-32" transform="scale(0.996264)"/>
       <use xlink:href="#CMMI12-3a" transform="translate(45.690477 0) scale(0.996264)"/>
       <use xlink:href="#CMR17-30" transform="translate(72.787654 0) scale(0.996264)"/>
       <use xlink:href="#CMR17-30" transform="translate(118.478131 0) scale(0.996264)"/>
      </g>
     </g>
    </g>
    <g id="text_10">
     <!-- $x$ -->
     <g style="fill: #262626" transform="translate(484.189402 555.620524) scale(0.16 -0.16)">
      <defs>
       <path id="CMMI12-78" d="M 3034 2606 
C 2829 2567 2752 2414 2752 2293 
C 2752 2139 2874 2088 2963 2088 
C 3155 2088 3290 2254 3290 2427 
C 3290 2695 2982 2816 2714 2816 
C 2323 2816 2106 2433 2048 2312 
C 1901 2816 1504 2816 1389 2816 
C 736 2816 390 1980 390 1839 
C 390 1814 416 1782 461 1782 
C 512 1782 525 1820 538 1846 
C 755 2555 1184 2689 1370 2689 
C 1658 2689 1715 2420 1715 2267 
C 1715 2127 1677 1980 1600 1673 
L 1382 798 
C 1286 415 1101 64 762 64 
C 730 64 570 64 435 147 
C 666 192 717 383 717 460 
C 717 588 621 664 499 664 
C 346 664 179 530 179 326 
C 179 57 480 -64 755 -64 
C 1062 -64 1280 179 1414 441 
C 1517 64 1837 -64 2074 -64 
C 2726 -64 3072 773 3072 913 
C 3072 945 3046 971 3008 971 
C 2950 971 2944 939 2925 888 
C 2752 326 2381 64 2093 64 
C 1869 64 1747 230 1747 492 
C 1747 632 1773 734 1875 1156 
L 2099 2024 
C 2195 2408 2413 2689 2707 2689 
C 2720 2689 2899 2689 3034 2606 
z
" transform="scale(0.015625)"/>
      </defs>
      <use xlink:href="#CMMI12-78" transform="scale(0.996264)"/>
     </g>
    </g>
   </g>
   <g id="matplotlib.axis_2">
    <g id="ytick_1">
     <g id="line2d_19">
      <path d="M 41.730582 521.153031 
L 935.517672 521.153031 
" clip-path="url(#peffb9acfd7)" style="fill: none; stroke: #ffffff; stroke-linecap: round"/>
     </g>
     <g id="line2d_20"/>
     <g id="text_11">
      <!-- $\mathdefault{0.0}$ -->
      <g style="fill: #262626" transform="translate(17.28 525.995969) scale(0.14 -0.14)">
       <use xlink:href="#CMR17-30" transform="scale(0.996264)"/>
       <use xlink:href="#CMMI12-3a" transform="translate(45.690477 0) scale(0.996264)"/>
       <use xlink:href="#CMR17-30" transform="translate(72.787654 0) scale(0.996264)"/>
      </g>
     </g>
    </g>
    <g id="ytick_2">
     <g id="line2d_21">
      <path d="M 41.730582 465.260898 
L 935.517672 465.260898 
" clip-path="url(#peffb9acfd7)" style="fill: none; stroke: #ffffff; stroke-linecap: round"/>
     </g>
     <g id="line2d_22"/>
     <g id="text_12">
      <!-- $\mathdefault{0.1}$ -->
      <g style="fill: #262626" transform="translate(17.28 470.103836) scale(0.14 -0.14)">
       <use xlink:href="#CMR17-30" transform="scale(0.996264)"/>
       <use xlink:href="#CMMI12-3a" transform="translate(45.690477 0) scale(0.996264)"/>
       <use xlink:href="#CMR17-31" transform="translate(72.787654 0) scale(0.996264)"/>
      </g>
     </g>
    </g>
    <g id="ytick_3">
     <g id="line2d_23">
      <path d="M 41.730582 409.368765 
L 935.517672 409.368765 
" clip-path="url(#peffb9acfd7)" style="fill: none; stroke: #ffffff; stroke-linecap: round"/>
     </g>
     <g id="line2d_24"/>
     <g id="text_13">
      <!-- $\mathdefault{0.2}$ -->
      <g style="fill: #262626" transform="translate(17.28 414.211703) scale(0.14 -0.14)">
       <use xlink:href="#CMR17-30" transform="scale(0.996264)"/>
       <use xlink:href="#CMMI12-3a" transform="translate(45.690477 0) scale(0.996264)"/>
       <use xlink:href="#CMR17-32" transform="translate(72.787654 0) scale(0.996264)"/>
      </g>
     </g>
    </g>
    <g id="ytick_4">
     <g id="line2d_25">
      <path d="M 41.730582 353.476632 
L 935.517672 353.476632 
" clip-path="url(#peffb9acfd7)" style="fill: none; stroke: #ffffff; stroke-linecap: round"/>
     </g>
     <g id="line2d_26"/>
     <g id="text_14">
      <!-- $\mathdefault{0.3}$ -->
      <g style="fill: #262626" transform="translate(17.28 358.319571) scale(0.14 -0.14)">
       <defs>
        <path id="CMR17-33" d="M 1414 2157 
C 1984 2157 2234 1662 2234 1090 
C 2234 320 1824 25 1453 25 
C 1114 25 563 194 390 693 
C 422 680 454 680 486 680 
C 640 680 755 782 755 948 
C 755 1133 614 1216 486 1216 
C 378 1216 211 1165 211 926 
C 211 335 787 -128 1466 -128 
C 2176 -128 2720 430 2720 1085 
C 2720 1707 2208 2157 1600 2227 
C 2086 2328 2554 2756 2554 3329 
C 2554 3820 2048 4179 1472 4179 
C 890 4179 378 3829 378 3329 
C 378 3110 544 3072 627 3072 
C 762 3072 877 3155 877 3321 
C 877 3486 762 3569 627 3569 
C 602 3569 570 3569 544 3557 
C 730 3959 1235 4032 1459 4032 
C 1683 4032 2106 3925 2106 3320 
C 2106 3143 2080 2828 1862 2550 
C 1670 2304 1453 2304 1242 2284 
C 1210 2284 1062 2269 1037 2269 
C 992 2263 966 2257 966 2208 
C 966 2163 973 2157 1101 2157 
L 1414 2157 
z
" transform="scale(0.015625)"/>
       </defs>
       <use xlink:href="#CMR17-30" transform="scale(0.996264)"/>
       <use xlink:href="#CMMI12-3a" transform="translate(45.690477 0) scale(0.996264)"/>
       <use xlink:href="#CMR17-33" transform="translate(72.787654 0) scale(0.996264)"/>
      </g>
     </g>
    </g>
    <g id="ytick_5">
     <g id="line2d_27">
      <path d="M 41.730582 297.5845 
L 935.517672 297.5845 
" clip-path="url(#peffb9acfd7)" style="fill: none; stroke: #ffffff; stroke-linecap: round"/>
     </g>
     <g id="line2d_28"/>
     <g id="text_15">
      <!-- $\mathdefault{0.4}$ -->
      <g style="fill: #262626" transform="translate(17.28 302.427438) scale(0.14 -0.14)">
       <defs>
        <path id="CMR17-34" d="M 2150 4122 
C 2150 4256 2144 4256 2029 4256 
L 128 1254 
L 128 1088 
L 1779 1088 
L 1779 457 
C 1779 224 1766 160 1318 160 
L 1197 160 
L 1197 0 
C 1402 0 1747 0 1965 0 
C 2182 0 2528 0 2733 0 
L 2733 160 
L 2611 160 
C 2163 160 2150 224 2150 457 
L 2150 1088 
L 2803 1088 
L 2803 1254 
L 2150 1254 
L 2150 4122 
z
M 1798 3703 
L 1798 1254 
L 256 1254 
L 1798 3703 
z
" transform="scale(0.015625)"/>
       </defs>
       <use xlink:href="#CMR17-30" transform="scale(0.996264)"/>
       <use xlink:href="#CMMI12-3a" transform="translate(45.690477 0) scale(0.996264)"/>
       <use xlink:href="#CMR17-34" transform="translate(72.787654 0) scale(0.996264)"/>
      </g>
     </g>
    </g>
    <g id="ytick_6">
     <g id="line2d_29">
      <path d="M 41.730582 241.692367 
L 935.517672 241.692367 
" clip-path="url(#peffb9acfd7)" style="fill: none; stroke: #ffffff; stroke-linecap: round"/>
     </g>
     <g id="line2d_30"/>
     <g id="text_16">
      <!-- $\mathdefault{0.5}$ -->
      <g style="fill: #262626" transform="translate(17.28 246.535305) scale(0.14 -0.14)">
       <use xlink:href="#CMR17-30" transform="scale(0.996264)"/>
       <use xlink:href="#CMMI12-3a" transform="translate(45.690477 0) scale(0.996264)"/>
       <use xlink:href="#CMR17-35" transform="translate(72.787654 0) scale(0.996264)"/>
      </g>
     </g>
    </g>
    <g id="ytick_7">
     <g id="line2d_31">
      <path d="M 41.730582 185.800234 
L 935.517672 185.800234 
" clip-path="url(#peffb9acfd7)" style="fill: none; stroke: #ffffff; stroke-linecap: round"/>
     </g>
     <g id="line2d_32"/>
     <g id="text_17">
      <!-- $\mathdefault{0.6}$ -->
      <g style="fill: #262626" transform="translate(17.28 190.643172) scale(0.14 -0.14)">
       <defs>
        <path id="CMR17-36" d="M 678 2176 
C 678 3690 1395 4032 1811 4032 
C 1946 4032 2272 4009 2400 3776 
C 2298 3776 2106 3776 2106 3553 
C 2106 3381 2246 3323 2336 3323 
C 2394 3323 2566 3348 2566 3560 
C 2566 3954 2246 4179 1805 4179 
C 1043 4179 243 3390 243 1984 
C 243 253 966 -128 1478 -128 
C 2099 -128 2688 427 2688 1283 
C 2688 2081 2170 2662 1517 2662 
C 1126 2662 838 2407 678 1960 
L 678 2176 
z
M 1478 25 
C 691 25 691 1200 691 1436 
C 691 1896 909 2560 1504 2560 
C 1613 2560 1926 2560 2138 2120 
C 2253 1870 2253 1609 2253 1289 
C 2253 944 2253 690 2118 434 
C 1978 171 1773 25 1478 25 
z
" transform="scale(0.015625)"/>
       </defs>
       <use xlink:href="#CMR17-30" transform="scale(0.996264)"/>
       <use xlink:href="#CMMI12-3a" transform="translate(45.690477 0) scale(0.996264)"/>
       <use xlink:href="#CMR17-36" transform="translate(72.787654 0) scale(0.996264)"/>
      </g>
     </g>
    </g>
    <g id="ytick_8">
     <g id="line2d_33">
      <path d="M 41.730582 129.908102 
L 935.517672 129.908102 
" clip-path="url(#peffb9acfd7)" style="fill: none; stroke: #ffffff; stroke-linecap: round"/>
     </g>
     <g id="line2d_34"/>
     <g id="text_18">
      <!-- $\mathdefault{0.7}$ -->
      <g style="fill: #262626" transform="translate(17.28 134.75104) scale(0.14 -0.14)">
       <use xlink:href="#CMR17-30" transform="scale(0.996264)"/>
       <use xlink:href="#CMMI12-3a" transform="translate(45.690477 0) scale(0.996264)"/>
       <use xlink:href="#CMR17-37" transform="translate(72.787654 0) scale(0.996264)"/>
      </g>
     </g>
    </g>
    <g id="ytick_9">
     <g id="line2d_35">
      <path d="M 41.730582 74.015969 
L 935.517672 74.015969 
" clip-path="url(#peffb9acfd7)" style="fill: none; stroke: #ffffff; stroke-linecap: round"/>
     </g>
     <g id="line2d_36"/>
     <g id="text_19">
      <!-- $\mathdefault{0.8}$ -->
      <g style="fill: #262626" transform="translate(17.28 78.858907) scale(0.14 -0.14)">
       <defs>
        <path id="CMR17-38" d="M 1741 2264 
C 2144 2467 2554 2773 2554 3263 
C 2554 3841 1990 4179 1472 4179 
C 890 4179 378 3759 378 3180 
C 378 3021 416 2747 666 2505 
C 730 2442 998 2251 1171 2130 
C 883 1983 211 1634 211 934 
C 211 279 838 -128 1459 -128 
C 2144 -128 2720 362 2720 1010 
C 2720 1590 2330 1857 2074 2029 
L 1741 2264 
z
M 902 2822 
C 851 2854 595 3051 595 3351 
C 595 3739 998 4032 1459 4032 
C 1965 4032 2336 3676 2336 3262 
C 2336 2669 1670 2331 1638 2331 
C 1632 2331 1626 2331 1574 2370 
L 902 2822 
z
M 2080 1519 
C 2176 1449 2483 1240 2483 851 
C 2483 381 2010 25 1472 25 
C 890 25 448 438 448 940 
C 448 1443 838 1862 1280 2060 
L 2080 1519 
z
" transform="scale(0.015625)"/>
       </defs>
       <use xlink:href="#CMR17-30" transform="scale(0.996264)"/>
       <use xlink:href="#CMMI12-3a" transform="translate(45.690477 0) scale(0.996264)"/>
       <use xlink:href="#CMR17-38" transform="translate(72.787654 0) scale(0.996264)"/>
      </g>
     </g>
    </g>
   </g>
   <g id="line2d_37">
    <path d="M 41.730582 74.015969 
L 50.24284 74.015969 
L 58.755098 74.015969 
L 67.267356 74.015969 
L 75.779614 74.015969 
L 84.291872 74.015969 
L 92.80413 74.015969 
L 101.316388 74.015969 
L 109.828646 74.015969 
L 118.340904 74.015969 
L 126.853162 74.015969 
L 135.36542 74.015969 
L 143.877678 74.015969 
L 152.389936 74.015969 
L 160.902194 74.015969 
L 169.414452 74.015969 
L 177.92671 74.015969 
L 186.438968 74.015969 
L 194.951226 74.015969 
L 203.463484 74.015969 
L 211.975742 74.015969 
L 220.488 74.015969 
L 229.000258 74.015969 
L 237.512516 74.015969 
L 246.024774 74.015969 
L 254.537032 74.015969 
L 263.04929 74.015969 
L 271.561548 74.015969 
L 280.073806 74.015969 
L 288.586064 74.015969 
L 297.098322 74.015969 
L 305.61058 74.015969 
L 314.122838 74.015969 
L 322.635096 74.015969 
L 331.147354 74.015969 
L 339.659612 74.015969 
L 348.17187 74.015969 
L 356.684128 74.015969 
L 365.196386 74.015969 
L 373.708644 74.015969 
L 382.220902 74.015969 
L 390.73316 74.015969 
L 399.245418 74.015969 
L 407.757676 74.015969 
L 416.269934 74.015969 
L 424.782192 74.015969 
L 433.29445 74.015969 
L 441.806708 74.015969 
L 450.318966 74.015969 
L 458.831224 74.015969 
L 467.343482 74.015969 
L 475.85574 74.015969 
L 484.367998 74.015969 
L 492.880256 74.015969 
L 501.392514 74.015969 
L 509.904772 74.015969 
L 518.41703 74.015969 
L 526.929288 74.015969 
L 535.441546 74.015969 
L 543.953804 74.015969 
L 552.466062 74.015969 
L 560.97832 74.015969 
L 569.490578 74.015969 
L 578.002836 74.015969 
L 586.515094 74.015969 
L 595.027352 74.015969 
L 603.53961 74.015969 
L 612.051868 74.015969 
L 620.564126 74.015969 
L 629.076384 74.015969 
L 637.588642 74.015969 
L 646.1009 74.015969 
L 654.613158 74.015969 
L 663.125416 74.015969 
L 671.637674 74.015969 
L 680.149932 74.015969 
L 688.66219 74.015969 
L 697.174448 74.015969 
L 705.686706 74.015969 
L 714.198964 74.015969 
L 722.711222 74.015969 
L 731.22348 74.015969 
L 739.735738 74.015969 
L 748.247996 74.015969 
L 756.760254 74.015969 
L 765.272512 74.015969 
L 773.78477 74.015969 
L 782.297028 74.015969 
L 790.809286 74.015969 
L 799.321544 74.015969 
L 807.833802 74.015969 
L 816.34606 74.015969 
L 824.858318 74.015969 
L 833.370576 74.015969 
L 841.882834 74.015969 
L 850.395092 74.015969 
L 858.90735 74.015969 
L 867.419608 74.015969 
L 875.931866 74.015969 
L 884.444124 74.015969 
L 892.956382 74.015969 
" clip-path="url(#peffb9acfd7)" style="fill: none; stroke: #393b79; stroke-width: 2; stroke-linecap: round"/>
   </g>
   <g id="line2d_38">
    <path d="M 41.730582 131.913189 
L 50.24284 131.663122 
L 58.755098 131.414322 
L 67.267356 131.166785 
L 75.779614 130.91626 
L 84.291872 130.666319 
L 92.80413 130.417643 
L 101.316388 130.170226 
L 109.828646 129.92406 
L 118.340904 129.679138 
L 126.853162 129.435474 
L 135.36542 129.193043 
L 143.877678 128.951836 
L 152.389936 128.711846 
L 160.902194 128.473067 
L 169.414452 128.235492 
L 177.92671 127.999119 
L 186.438968 127.763942 
L 194.951226 127.529949 
L 203.463484 127.297143 
L 211.975742 127.065512 
L 220.488 126.835045 
L 229.000258 126.605734 
L 237.512516 126.377575 
L 246.024774 126.150561 
L 254.537032 125.924601 
L 263.04929 125.695339 
L 271.561548 125.467226 
L 280.073806 125.240255 
L 288.586064 125.014421 
L 297.098322 124.789715 
L 305.61058 124.566134 
L 314.122838 124.343679 
L 322.635096 124.12234 
L 331.147354 123.902107 
L 339.659612 123.682974 
L 348.17187 123.464936 
L 356.684128 123.24799 
L 365.196386 123.032125 
L 373.708644 122.817335 
L 382.220902 122.603615 
L 390.73316 122.390967 
L 399.245418 122.179379 
L 407.757676 121.968845 
L 416.269934 121.759365 
L 424.782192 121.550926 
L 433.29445 121.343522 
L 441.806708 121.137148 
L 450.318966 120.931798 
L 458.831224 120.727467 
L 467.343482 120.522144 
L 475.85574 120.315718 
L 484.367998 120.110318 
L 492.880256 119.905958 
L 501.392514 119.702615 
L 509.904772 119.500279 
L 518.41703 119.298943 
L 526.929288 119.098603 
L 535.441546 118.899253 
L 543.953804 118.700888 
L 552.466062 118.503502 
L 560.97832 118.307092 
L 569.490578 118.111651 
L 578.002836 117.917175 
L 586.515094 117.723665 
L 595.027352 117.531109 
L 603.53961 117.339501 
L 612.051868 117.148837 
L 620.564126 116.959112 
L 629.076384 116.770324 
L 637.588642 116.582464 
L 646.1009 116.39553 
L 654.613158 116.20952 
L 663.125416 116.024426 
L 671.637674 115.840241 
L 680.149932 115.656961 
L 688.66219 115.47458 
L 697.174448 115.293094 
L 705.686706 115.110555 
L 714.198964 114.92717 
L 722.711222 114.744685 
L 731.22348 114.563094 
L 739.735738 114.382393 
L 748.247996 114.202576 
L 756.760254 114.023642 
L 765.272512 113.845591 
L 773.78477 113.66841 
L 782.297028 113.492095 
L 790.809286 113.316642 
L 799.321544 113.142047 
L 807.833802 112.968305 
L 816.34606 112.795412 
L 824.858318 112.623365 
L 833.370576 112.452156 
L 841.882834 112.281784 
L 850.395092 112.112242 
L 858.90735 111.943527 
L 867.419608 111.775636 
L 875.931866 111.608565 
L 884.444124 111.442309 
L 892.956382 111.276861 
" clip-path="url(#peffb9acfd7)" style="fill: none; stroke: #6b6ecf; stroke-width: 2; stroke-linecap: round"/>
   </g>
   <g id="line2d_39">
    <path d="M 41.730582 285.415168 
L 50.24284 284.686992 
L 58.755098 283.956856 
L 67.267356 283.227909 
L 75.779614 282.504307 
L 84.291872 281.782735 
L 92.80413 281.058076 
L 101.316388 280.338642 
L 109.828646 279.624366 
L 118.340904 278.905945 
L 126.853162 278.190424 
L 135.36542 277.480078 
L 143.877678 276.771751 
L 152.389936 276.060273 
L 160.902194 275.353666 
L 169.414452 274.65199 
L 177.92671 273.94822 
L 186.438968 273.24527 
L 194.951226 272.547196 
L 203.463484 271.853936 
L 211.975742 271.155425 
L 220.488 270.46079 
L 229.000258 269.770921 
L 237.512516 269.084811 
L 246.024774 268.393304 
L 254.537032 267.70654 
L 263.04929 267.024499 
L 271.561548 266.345378 
L 280.073806 265.661573 
L 288.586064 264.982526 
L 297.098322 264.308056 
L 305.61058 263.636716 
L 314.122838 262.960461 
L 322.635096 262.288662 
L 331.147354 261.621328 
L 339.659612 260.958484 
L 348.17187 260.28962 
L 356.684128 259.624896 
L 365.196386 258.964565 
L 373.708644 258.308638 
L 382.220902 257.649507 
L 390.73316 256.99156 
L 399.245418 256.337864 
L 407.757676 255.688456 
L 416.269934 255.040062 
L 424.782192 254.388601 
L 433.29445 253.74141 
L 441.806708 253.098417 
L 450.318966 252.459562 
L 458.831224 251.816582 
L 467.343482 251.175555 
L 475.85574 250.538624 
L 484.367998 249.905841 
L 492.880256 249.27572 
L 501.392514 248.640513 
L 509.904772 248.009456 
L 518.41703 247.382521 
L 526.929288 246.7596 
L 535.441546 246.137225 
L 543.953804 245.511762 
L 552.466062 244.890252 
L 560.97832 244.272734 
L 569.490578 243.659182 
L 578.002836 243.045663 
L 586.515094 242.429534 
L 595.027352 241.817234 
L 603.53961 241.208784 
L 612.051868 240.604273 
L 620.564126 240.000913 
L 629.076384 239.393792 
L 637.588642 238.790411 
L 646.1009 238.190729 
L 654.613158 237.594792 
L 663.125416 237.002615 
L 671.637674 236.404296 
L 680.149932 235.809368 
L 688.66219 235.218138 
L 697.174448 234.630541 
L 705.686706 234.046614 
L 714.198964 233.461295 
L 722.711222 232.874608 
L 731.22348 232.291462 
L 739.735738 231.711842 
L 748.247996 231.135778 
L 756.760254 230.563234 
L 765.272512 229.98585 
L 773.78477 229.410501 
L 782.297028 228.838599 
L 790.809286 228.27014 
L 799.321544 227.70513 
L 807.833802 227.143558 
L 816.34606 226.575796 
L 824.858318 226.011399 
L 833.370576 225.45035 
L 841.882834 224.892601 
L 850.395092 224.338157 
L 858.90735 223.786975 
L 867.419608 223.230274 
L 875.931866 222.676183 
L 884.444124 222.125524 
L 892.956382 221.578115 
" clip-path="url(#peffb9acfd7)" style="fill: none; stroke: #637939; stroke-width: 2; stroke-linecap: round"/>
   </g>
   <g id="line2d_40">
    <path d="M 41.730582 383.750886 
L 50.24284 382.85352 
L 58.755098 381.956684 
L 67.267356 381.060966 
L 75.779614 380.166556 
L 84.291872 379.273483 
L 92.80413 378.380451 
L 101.316388 377.487259 
L 109.828646 376.595759 
L 118.340904 375.705759 
L 126.853162 374.816934 
L 135.36542 373.927111 
L 143.877678 373.038881 
L 152.389936 372.152573 
L 160.902194 371.267499 
L 169.414452 370.381184 
L 177.92671 369.497143 
L 186.438968 368.615418 
L 194.951226 367.732662 
L 203.463484 366.851136 
L 211.975742 365.972177 
L 220.488 365.093409 
L 229.000258 364.214773 
L 237.512516 363.339087 
L 246.024774 362.463574 
L 254.537032 361.588282 
L 263.04929 360.71623 
L 271.561548 359.843757 
L 280.073806 358.972185 
L 288.586064 358.104331 
L 297.098322 357.234375 
L 305.61058 356.367156 
L 314.122838 355.502256 
L 322.635096 354.636037 
L 331.147354 353.773918 
L 339.659612 352.910624 
L 348.17187 352.049692 
L 356.684128 351.190987 
L 365.196386 350.331293 
L 373.708644 349.476515 
L 382.220902 348.618641 
L 390.73316 347.765523 
L 399.245418 346.91173 
L 407.757676 346.06015 
L 416.269934 345.210452 
L 424.782192 344.360712 
L 433.29445 343.514868 
L 441.806708 342.667169 
L 450.318966 341.82484 
L 458.831224 340.979404 
L 467.343482 340.140257 
L 475.85574 339.2974 
L 484.367998 338.461007 
L 492.880256 337.621301 
L 501.392514 336.787667 
L 509.904772 335.951074 
L 518.41703 335.120696 
L 526.929288 334.28698 
L 535.441546 333.459954 
L 543.953804 332.628955 
L 552.466062 331.804849 
L 560.97832 330.977021 
L 569.490578 330.155513 
L 578.002836 329.331436 
L 586.515094 328.512363 
L 595.027352 327.692449 
L 603.53961 326.875288 
L 612.051868 326.059796 
L 620.564126 325.245116 
L 629.076384 324.434427 
L 637.588642 323.621316 
L 646.1009 322.814884 
L 654.613158 322.004543 
L 663.125416 321.199895 
L 671.637674 320.394785 
L 680.149932 319.591728 
L 688.66219 318.792271 
L 697.174448 317.990802 
L 705.686706 317.195644 
L 714.198964 316.397436 
L 722.711222 315.603639 
L 731.22348 314.811832 
L 739.735738 314.019006 
L 748.247996 313.232565 
L 756.760254 312.44252 
L 765.272512 311.656924 
L 773.78477 310.874388 
L 782.297028 310.089638 
L 790.809286 309.310929 
L 799.321544 308.530755 
L 807.833802 307.752836 
L 816.34606 306.980909 
L 824.858318 306.203643 
L 833.370576 305.432238 
L 841.882834 304.663661 
L 850.395092 303.89251 
L 858.90735 303.127202 
L 867.419608 302.362311 
L 875.931866 301.5973 
L 884.444124 300.83812 
L 892.956382 300.077447 
" clip-path="url(#peffb9acfd7)" style="fill: none; stroke: #b5cf6b; stroke-width: 2; stroke-linecap: round"/>
   </g>
   <g id="line2d_41">
    <path d="M 41.730582 483.749308 
L 50.24284 483.00692 
L 58.755098 482.260293 
L 67.267356 481.509511 
L 75.779614 480.75448 
L 84.291872 479.995501 
L 92.80413 479.232499 
L 101.316388 478.465501 
L 109.828646 477.694814 
L 118.340904 476.92028 
L 126.853162 476.141927 
L 135.36542 475.360237 
L 143.877678 474.574889 
L 152.389936 473.785868 
L 160.902194 472.993607 
L 169.414452 472.197865 
L 177.92671 471.398907 
L 186.438968 470.596667 
L 194.951226 469.79144 
L 203.463484 468.982797 
L 211.975742 468.171265 
L 220.488 467.356825 
L 229.000258 466.539434 
L 237.512516 465.71919 
L 246.024774 464.896107 
L 254.537032 464.070295 
L 263.04929 463.241863 
L 271.561548 462.410904 
L 280.073806 461.577435 
L 288.586064 460.741104 
L 297.098322 459.902578 
L 305.61058 459.061817 
L 314.122838 458.218308 
L 322.635096 457.372997 
L 331.147354 456.524954 
L 339.659612 455.675365 
L 348.17187 454.822972 
L 356.684128 453.968928 
L 365.196386 453.113014 
L 373.708644 452.254694 
L 382.220902 451.394649 
L 390.73316 450.532964 
L 399.245418 449.669419 
L 407.757676 448.804037 
L 416.269934 447.936781 
L 424.782192 447.067907 
L 433.29445 446.197563 
L 441.806708 445.325596 
L 450.318966 444.452144 
L 458.831224 443.577285 
L 467.343482 442.701014 
L 475.85574 441.823488 
L 484.367998 440.944198 
L 492.880256 440.063566 
L 501.392514 439.181862 
L 509.904772 438.299151 
L 518.41703 437.415663 
L 526.929288 436.530079 
L 535.441546 435.643843 
L 543.953804 434.757 
L 552.466062 433.868516 
L 560.97832 432.979213 
L 569.490578 432.089746 
L 578.002836 431.198133 
L 586.515094 430.306801 
L 595.027352 429.413875 
L 603.53961 428.52061 
L 612.051868 427.62636 
L 620.564126 426.732041 
L 629.076384 425.836333 
L 637.588642 424.94077 
L 646.1009 424.043579 
L 654.613158 423.14688 
L 663.125416 422.249109 
L 671.637674 421.350758 
L 680.149932 420.452891 
L 688.66219 419.553328 
L 697.174448 418.65403 
L 705.686706 417.754891 
L 714.198964 416.854904 
L 722.711222 415.954377 
L 731.22348 415.053964 
L 739.735738 414.153812 
L 748.247996 413.253031 
L 756.760254 412.351594 
L 765.272512 411.450384 
L 773.78477 410.54945 
L 782.297028 409.648591 
L 790.809286 408.747819 
L 799.321544 407.846356 
L 807.833802 406.9449 
L 816.34606 406.043657 
L 824.858318 405.142607 
L 833.370576 404.241759 
L 841.882834 403.341055 
L 850.395092 402.440501 
L 858.90735 401.540108 
L 867.419608 400.64009 
L 875.931866 399.740257 
L 884.444124 398.84071 
L 892.956382 397.941492 
" clip-path="url(#peffb9acfd7)" style="fill: none; stroke: #8c6d31; stroke-width: 2; stroke-linecap: round"/>
   </g>
   <g id="line2d_42">
    <path d="M 41.730582 514.361392 
L 50.24284 513.968817 
L 58.755098 513.566846 
L 67.267356 513.155595 
L 75.779614 512.735211 
L 84.291872 512.3058 
L 92.80413 511.867455 
L 101.316388 511.420347 
L 109.828646 510.964625 
L 118.340904 510.500309 
L 126.853162 510.027494 
L 135.36542 509.546483 
L 143.877678 509.057227 
L 152.389936 508.55987 
L 160.902194 508.054565 
L 169.414452 507.541339 
L 177.92671 507.02042 
L 186.438968 506.49182 
L 194.951226 505.955673 
L 203.463484 505.41212 
L 211.975742 504.861256 
L 220.488 504.303157 
L 229.000258 503.737934 
L 237.512516 503.165726 
L 246.024774 502.586551 
L 254.537032 502.000606 
L 263.04929 501.407929 
L 271.561548 500.808673 
L 280.073806 500.202855 
L 288.586064 499.590647 
L 297.098322 498.972164 
L 305.61058 498.347352 
L 314.122838 497.716532 
L 322.635096 497.07958 
L 331.147354 496.436686 
L 339.659612 495.787989 
L 348.17187 495.133491 
L 356.684128 494.473341 
L 365.196386 493.807569 
L 373.708644 493.136344 
L 382.220902 492.459716 
L 390.73316 491.777692 
L 399.245418 491.090464 
L 407.757676 490.398102 
L 416.269934 489.700629 
L 424.782192 488.998197 
L 433.29445 488.290894 
L 441.806708 487.578671 
L 450.318966 486.861816 
L 458.831224 486.140202 
L 467.343482 485.413983 
L 475.85574 484.68331 
L 484.367998 483.94823 
L 492.880256 483.208741 
L 501.392514 482.465075 
L 509.904772 481.71701 
L 518.41703 480.965021 
L 526.929288 480.208807 
L 535.441546 479.448797 
L 543.953804 478.684777 
L 552.466062 477.916824 
L 560.97832 477.145156 
L 569.490578 476.369853 
L 578.002836 475.590898 
L 586.515094 474.808343 
L 595.027352 474.022203 
L 603.53961 473.232713 
L 612.051868 472.43983 
L 620.564126 471.643828 
L 629.076384 470.84441 
L 637.588642 470.041912 
L 646.1009 469.236177 
L 654.613158 468.42742 
L 663.125416 467.615787 
L 671.637674 466.801156 
L 680.149932 465.983726 
L 688.66219 465.163371 
L 697.174448 464.340437 
L 705.686706 463.514745 
L 714.198964 462.686516 
L 722.711222 461.855855 
L 731.22348 461.022341 
L 739.735738 460.186409 
L 748.247996 459.348431 
L 756.760254 458.507675 
L 765.272512 457.664894 
L 773.78477 456.819812 
L 782.297028 455.972706 
L 790.809286 455.12311 
L 799.321544 454.271911 
L 807.833802 453.418346 
L 816.34606 452.562848 
L 824.858318 451.705666 
L 833.370576 450.846761 
L 841.882834 449.985554 
L 850.395092 449.122604 
L 858.90735 448.257978 
L 867.419608 447.391827 
L 875.931866 446.524008 
L 884.444124 445.654649 
L 892.956382 444.783789 
" clip-path="url(#peffb9acfd7)" style="fill: none; stroke: #e7cb94; stroke-width: 2; stroke-linecap: round"/>
   </g>
   <g id="line2d_43">
    <path d="M 41.730582 519.627097 
L 50.24284 519.42391 
L 58.755098 519.208916 
L 67.267356 518.982257 
L 75.779614 518.744093 
L 84.291872 518.494559 
L 92.80413 518.233781 
L 101.316388 517.96193 
L 109.828646 517.679164 
L 118.340904 517.385564 
L 126.853162 517.081257 
L 135.36542 516.766494 
L 143.877678 516.441304 
L 152.389936 516.105855 
L 160.902194 515.760285 
L 169.414452 515.404688 
L 177.92671 515.039255 
L 186.438968 514.664075 
L 194.951226 514.279272 
L 203.463484 513.884985 
L 211.975742 513.481367 
L 220.488 513.068514 
L 229.000258 512.646537 
L 237.512516 512.215567 
L 246.024774 511.77572 
L 254.537032 511.327138 
L 263.04929 510.869928 
L 271.561548 510.404219 
L 280.073806 509.930071 
L 288.586064 509.447669 
L 297.098322 508.957126 
L 305.61058 508.458464 
L 314.122838 507.951928 
L 322.635096 507.437521 
L 331.147354 506.915384 
L 339.659612 506.385644 
L 348.17187 505.848398 
L 356.684128 505.303749 
L 365.196386 504.751806 
L 373.708644 504.192698 
L 382.220902 503.626463 
L 390.73316 503.053283 
L 399.245418 502.473146 
L 407.757676 501.886336 
L 416.269934 501.292753 
L 424.782192 500.692606 
L 433.29445 500.086053 
L 441.806708 499.473009 
L 450.318966 498.853698 
L 458.831224 498.228224 
L 467.343482 497.596581 
L 475.85574 496.958988 
L 484.367998 496.315473 
L 492.880256 495.666042 
L 501.392514 495.010939 
L 509.904772 494.350137 
L 518.41703 493.683853 
L 526.929288 493.01204 
L 535.441546 492.334911 
L 543.953804 491.65241 
L 552.466062 490.964723 
L 560.97832 490.271845 
L 569.490578 489.573979 
L 578.002836 488.871117 
L 586.515094 488.163442 
L 595.027352 487.45084 
L 603.53961 486.733546 
L 612.051868 486.011623 
L 620.564126 485.2852 
L 629.076384 484.554247 
L 637.588642 483.818774 
L 646.1009 483.079129 
L 654.613158 482.335151 
L 663.125416 481.58696 
L 671.637674 480.834722 
L 680.149932 480.078339 
L 688.66219 479.31796 
L 697.174448 478.553897 
L 705.686706 477.785942 
L 714.198964 477.014216 
L 722.711222 476.238771 
L 731.22348 475.459597 
L 739.735738 474.67696 
L 748.247996 473.890983 
L 756.760254 473.101392 
L 765.272512 472.308499 
L 773.78477 471.512415 
L 782.297028 470.7131 
L 790.809286 469.910437 
L 799.321544 469.104879 
L 807.833802 468.296399 
L 816.34606 467.484774 
L 824.858318 466.670243 
L 833.370576 465.8529 
L 841.882834 465.032773 
L 850.395092 464.209943 
L 858.90735 463.384388 
L 867.419608 462.556127 
L 875.931866 461.725332 
L 884.444124 460.892242 
L 892.956382 460.056741 
" clip-path="url(#peffb9acfd7)" style="fill: none; stroke: #ad494a; stroke-width: 2; stroke-linecap: round"/>
   </g>
   <g id="line2d_44">
    <path d="M 41.730582 520.831055 
L 50.24284 520.681806 
L 58.755098 520.557667 
L 67.267356 520.425259 
L 75.779614 520.280183 
L 84.291872 520.122588 
L 92.80413 519.952619 
L 101.316388 519.770444 
L 109.828646 519.576227 
L 118.340904 519.370079 
L 126.853162 519.15214 
L 135.36542 518.922635 
L 143.877678 518.681638 
L 152.389936 518.429314 
L 160.902194 518.165811 
L 169.414452 517.891242 
L 177.92671 517.605794 
L 186.438968 517.309573 
L 194.951226 517.002715 
L 203.463484 516.685368 
L 211.975742 516.357683 
L 220.488 516.019777 
L 229.000258 515.671767 
L 237.512516 515.313801 
L 246.024774 514.945991 
L 254.537032 514.568492 
L 263.04929 514.18143 
L 271.561548 513.784927 
L 280.073806 513.37906 
L 288.586064 512.964032 
L 297.098322 512.539943 
L 305.61058 512.106846 
L 314.122838 511.664975 
L 322.635096 511.214355 
L 331.147354 510.755137 
L 339.659612 510.28745 
L 348.17187 509.811392 
L 356.684128 509.327096 
L 365.196386 508.834658 
L 373.708644 508.334208 
L 382.220902 507.825833 
L 390.73316 507.309664 
L 399.245418 506.785757 
L 407.757676 506.254345 
L 416.269934 505.715408 
L 424.782192 505.169108 
L 433.29445 504.615575 
L 441.806708 504.054861 
L 450.318966 503.487074 
L 458.831224 502.912377 
L 467.343482 502.330774 
L 475.85574 501.742413 
L 484.367998 501.147456 
L 492.880256 500.545871 
L 501.392514 499.937851 
L 509.904772 499.323458 
L 518.41703 498.702852 
L 526.929288 498.076037 
L 535.441546 497.443168 
L 543.953804 496.804302 
L 552.466062 496.159501 
L 560.97832 495.508898 
L 569.490578 494.85267 
L 578.002836 494.190693 
L 586.515094 493.523274 
L 595.027352 492.850385 
L 603.53961 492.172016 
L 612.051868 491.488468 
L 620.564126 490.79979 
L 629.076384 490.105969 
L 637.588642 489.406993 
L 646.1009 488.703178 
L 654.613158 487.994517 
L 663.125416 487.28107 
L 671.637674 486.562866 
L 680.149932 485.840033 
L 688.66219 485.112615 
L 697.174448 484.380868 
L 705.686706 483.644662 
L 714.198964 482.90419 
L 722.711222 482.159526 
L 731.22348 481.410448 
L 739.735738 480.65754 
L 748.247996 479.900418 
L 756.760254 479.139379 
L 765.272512 478.374528 
L 773.78477 477.605919 
L 782.297028 476.833509 
L 790.809286 476.057347 
L 799.321544 475.277623 
L 807.833802 474.49445 
L 816.34606 473.707957 
L 824.858318 472.917744 
L 833.370576 472.124485 
L 841.882834 471.327681 
L 850.395092 470.527936 
L 858.90735 469.724753 
L 867.419608 468.918641 
L 875.931866 468.109553 
L 884.444124 467.297573 
L 892.956382 466.48271 
" clip-path="url(#peffb9acfd7)" style="fill: none; stroke: #e7969c; stroke-width: 2; stroke-linecap: round"/>
   </g>
   <g id="line2d_45">
    <path d="M 41.730582 521.851709 
L 50.24284 521.491492 
L 58.755098 521.206056 
L 67.267356 520.979635 
L 75.779614 520.799893 
L 84.291872 520.657064 
L 92.80413 520.533451 
L 101.316388 520.398648 
L 109.828646 520.251218 
L 118.340904 520.091288 
L 126.853162 519.919003 
L 135.36542 519.734578 
L 143.877678 519.538107 
L 152.389936 519.329755 
L 160.902194 519.109675 
L 169.414452 518.87799 
L 177.92671 518.634884 
L 186.438968 518.380473 
L 194.951226 518.114898 
L 203.463484 517.838311 
L 211.975742 517.550867 
L 220.488 517.252686 
L 229.000258 516.943896 
L 237.512516 516.624643 
L 246.024774 516.295053 
L 254.537032 515.955276 
L 263.04929 515.605444 
L 271.561548 515.245687 
L 280.073806 514.876092 
L 288.586064 514.496853 
L 297.098322 514.108084 
L 305.61058 513.70984 
L 314.122838 513.302351 
L 322.635096 512.885669 
L 331.147354 512.459924 
L 339.659612 512.02527 
L 348.17187 511.581792 
L 356.684128 511.129632 
L 365.196386 510.668899 
L 373.708644 510.199726 
L 382.220902 509.722186 
L 390.73316 509.236442 
L 399.245418 508.742545 
L 407.757676 508.240703 
L 416.269934 507.730946 
L 424.782192 507.213391 
L 433.29445 506.688224 
L 441.806708 506.155451 
L 450.318966 505.615245 
L 458.831224 505.067682 
L 467.343482 504.512853 
L 475.85574 503.950919 
L 484.367998 503.381939 
L 492.880256 502.806014 
L 501.392514 502.223247 
L 509.904772 501.633723 
L 518.41703 501.037635 
L 526.929288 500.434961 
L 535.441546 499.825923 
L 543.953804 499.210452 
L 552.466062 498.588751 
L 560.97832 497.960899 
L 569.490578 497.327011 
L 578.002836 496.687095 
L 586.515094 496.041397 
L 595.027352 495.389862 
L 603.53961 494.732532 
L 612.051868 494.069686 
L 620.564126 493.401399 
L 629.076384 492.727626 
L 637.588642 492.048448 
L 646.1009 491.364004 
L 654.613158 490.674431 
L 663.125416 489.979803 
L 671.637674 489.28006 
L 680.149932 488.57543 
L 688.66219 487.865922 
L 697.174448 487.151749 
L 705.686706 486.432871 
L 714.198964 485.709316 
L 722.711222 484.98128 
L 731.22348 484.248718 
L 739.735738 483.511838 
L 748.247996 482.770733 
L 756.760254 482.025245 
L 765.272512 481.275641 
L 773.78477 480.522042 
L 782.297028 479.764447 
L 790.809286 479.002733 
L 799.321544 478.237258 
L 807.833802 477.468031 
L 816.34606 476.695088 
L 824.858318 475.918497 
L 833.370576 475.138353 
L 841.882834 474.354737 
L 850.395092 473.567377 
L 858.90735 472.776803 
L 867.419608 471.982924 
L 875.931866 471.185824 
L 884.444124 470.385409 
L 892.956382 469.582081 
" clip-path="url(#peffb9acfd7)" style="fill: none; stroke: #a55194; stroke-width: 2; stroke-linecap: round"/>
   </g>
   <g id="line2d_46">
    <path d="M 41.730582 523.052927 
L 50.24284 522.441937 
L 58.755098 521.958791 
L 67.267356 521.576325 
L 75.779614 521.273332 
L 84.291872 521.033054 
L 92.80413 520.842328 
L 101.316388 520.690806 
L 109.828646 520.566156 
L 118.340904 520.434652 
L 126.853162 520.29045 
L 135.36542 520.133757 
L 143.877678 519.96468 
L 152.389936 519.783386 
L 160.902194 519.590029 
L 169.414452 519.384738 
L 177.92671 519.167696 
L 186.438968 518.939025 
L 194.951226 518.698869 
L 203.463484 518.447382 
L 211.975742 518.18472 
L 220.488 517.911009 
L 229.000258 517.626379 
L 237.512516 517.33098 
L 246.024774 517.02494 
L 254.537032 516.70841 
L 263.04929 516.381527 
L 271.561548 516.044422 
L 280.073806 515.69719 
L 288.586064 515.34002 
L 297.098322 514.973032 
L 305.61058 514.596288 
L 314.122838 514.210012 
L 322.635096 513.814268 
L 331.147354 513.409181 
L 339.659612 512.994911 
L 348.17187 512.571549 
L 356.684128 512.139235 
L 365.196386 511.698079 
L 373.708644 511.248219 
L 382.220902 510.789729 
L 390.73316 510.322784 
L 399.245418 509.847419 
L 407.757676 509.363861 
L 416.269934 508.872128 
L 424.782192 508.372366 
L 433.29445 507.864733 
L 441.806708 507.349252 
L 450.318966 506.826079 
L 458.831224 506.295335 
L 467.343482 505.757076 
L 475.85574 505.211472 
L 484.367998 504.658605 
L 492.880256 504.098542 
L 501.392514 503.531416 
L 509.904772 502.957346 
L 518.41703 502.376448 
L 526.929288 501.788739 
L 535.441546 501.19444 
L 543.953804 500.593526 
L 552.466062 499.986108 
L 560.97832 499.372381 
L 569.490578 498.752388 
L 578.002836 498.126148 
L 586.515094 497.493956 
L 595.027352 496.855656 
L 603.53961 496.211422 
L 612.051868 495.56146 
L 620.564126 494.905813 
L 629.076384 494.244503 
L 637.588642 493.577553 
L 646.1009 492.905242 
L 654.613158 492.227566 
L 663.125416 491.544617 
L 671.637674 490.856434 
L 680.149932 490.163122 
L 688.66219 489.464734 
L 697.174448 488.761567 
L 705.686706 488.053387 
L 714.198964 487.340476 
L 722.711222 486.622874 
L 731.22348 485.900643 
L 739.735738 485.173786 
L 748.247996 484.442515 
L 756.760254 483.706835 
L 765.272512 482.966794 
L 773.78477 482.222514 
L 782.297028 481.474171 
L 790.809286 480.721536 
L 799.321544 479.965098 
L 807.833802 479.204542 
L 816.34606 478.440154 
L 824.858318 477.671989 
L 833.370576 476.900082 
L 841.882834 476.124478 
L 850.395092 475.345284 
L 858.90735 474.562615 
L 867.419608 473.77628 
L 875.931866 472.986668 
L 884.444124 472.19376 
L 892.956382 471.397549 
" clip-path="url(#peffb9acfd7)" style="fill: none; stroke: #de9ed6; stroke-width: 2; stroke-linecap: round"/>
   </g>
   <g id="patch_3">
    <path d="M 41.730582 521.153031 
L 41.730582 51.564121 
" style="fill: none"/>
   </g>
   <g id="patch_4">
    <path d="M 935.517672 521.153031 
L 935.517672 51.564121 
" style="fill: none"/>
   </g>
   <g id="patch_5">
    <path d="M 41.730582 521.153031 
L 935.517672 521.153031 
" style="fill: none"/>
   </g>
   <g id="patch_6">
    <path d="M 41.730582 51.564121 
L 935.517672 51.564121 
" style="fill: none"/>
   </g>
   <g id="patch_7">
    <path d="M 467.343482 87.193777 
Q 467.343482 287.090735 467.343482 485.310642 
" style="fill: none; stroke: #000000; stroke-width: 1.5; stroke-linecap: round"/>
    <path d="M 470.543482 478.910642 
L 467.343482 485.310642 
L 464.143482 478.910642 
" style="fill: none; stroke: #000000; stroke-width: 1.5; stroke-linecap: round"/>
   </g>
   <g id="text_20">
    <!-- Time -->
    <g style="fill: #262626" transform="translate(488.624127 485.501372) scale(0.18 -0.18)">
     <defs>
      <path id="CMR17-54" d="M 3981 4326 
L 288 4326 
L 179 2918 
L 294 2918 
C 378 3976 467 4160 1453 4160 
C 1568 4160 1754 4160 1805 4154 
C 1926 4135 1926 4058 1926 3912 
L 1926 459 
C 1926 230 1907 160 1376 160 
L 1197 160 
L 1197 0 
C 1504 0 1824 0 2138 0 
C 2451 0 2771 0 3078 0 
L 3078 160 
L 2899 160 
C 2368 160 2349 230 2349 459 
L 2349 3912 
C 2349 4052 2349 4129 2464 4154 
C 2515 4160 2701 4160 2816 4160 
C 3795 4160 3891 3976 3974 2918 
L 4090 2918 
L 3981 4326 
z
" transform="scale(0.015625)"/>
      <path id="CMR17-69" d="M 992 3909 
C 992 4049 877 4170 730 4170 
C 589 4170 467 4056 467 3909 
C 467 3769 582 3648 730 3648 
C 870 3648 992 3763 992 3909 
z
M 243 2706 
L 243 2541 
C 602 2541 653 2502 653 2197 
L 653 427 
C 653 184 627 153 218 153 
L 218 -13 
C 371 0 646 0 806 0 
C 960 0 1222 0 1370 -13 
L 1370 153 
C 992 153 979 191 979 420 
L 979 2776 
L 243 2706 
z
" transform="scale(0.015625)"/>
      <path id="CMR17-6d" d="M 4326 1933 
C 4326 2252 4269 2790 3507 2790 
C 3072 2790 2771 2496 2656 2151 
L 2650 2151 
C 2573 2676 2195 2790 1837 2790 
C 1331 2790 1069 2400 973 2144 
L 966 2144 
L 966 2790 
L 211 2720 
L 211 2554 
C 589 2554 646 2515 646 2208 
L 646 428 
C 646 184 621 153 211 153 
L 211 -13 
C 365 0 646 0 813 0 
C 979 0 1267 0 1421 -13 
L 1421 153 
C 1011 153 986 178 986 428 
L 986 1658 
C 986 2247 1344 2688 1792 2688 
C 2266 2688 2317 2266 2317 1958 
L 2317 428 
C 2317 184 2291 153 1882 153 
L 1882 -13 
C 2035 0 2317 0 2483 0 
C 2650 0 2938 0 3091 -13 
L 3091 153 
C 2682 153 2656 178 2656 428 
L 2656 1658 
C 2656 2247 3014 2688 3462 2688 
C 3936 2688 3987 2266 3987 1958 
L 3987 428 
C 3987 184 3962 153 3552 153 
L 3552 -13 
C 3706 0 3987 0 4154 0 
C 4320 0 4608 0 4762 -13 
L 4762 153 
C 4352 153 4326 178 4326 428 
L 4326 1933 
z
" transform="scale(0.015625)"/>
      <path id="CMR17-65" d="M 2438 1472 
C 2464 1498 2464 1511 2464 1576 
C 2464 2238 2118 2816 1389 2816 
C 710 2816 173 2169 173 1383 
C 173 551 781 -64 1459 -64 
C 2176 -64 2458 607 2458 740 
C 2458 784 2419 784 2406 784 
C 2362 784 2355 771 2330 696 
C 2189 265 1837 51 1504 51 
C 1229 51 954 203 781 480 
C 582 803 582 1176 582 1472 
L 2438 1472 
z
M 589 1568 
C 634 2505 1126 2714 1382 2714 
C 1818 2714 2112 2297 2118 1568 
L 589 1568 
z
" transform="scale(0.015625)"/>
     </defs>
     <use xlink:href="#CMR17-54" transform="scale(0.996264)"/>
     <use xlink:href="#CMR17-69" transform="translate(66.509881 0) scale(0.996264)"/>
     <use xlink:href="#CMR17-6d" transform="translate(91.380939 0) scale(0.996264)"/>
     <use xlink:href="#CMR17-65" transform="translate(168.300529 0) scale(0.996264)"/>
    </g>
   </g>
   <g id="legend_1">
    <g id="line2d_47">
     <path d="M 948.117672 197.198434 
L 962.117672 197.198434 
L 976.117672 197.198434 
" style="fill: none; stroke: #393b79; stroke-width: 2; stroke-linecap: round"/>
    </g>
    <g id="text_21">
     <!-- t = 0.00 -->
     <g style="fill: #262626" transform="translate(987.317672 202.098434) scale(0.14 -0.14)">
      <defs>
       <path id="CMR17-74" d="M 966 2560 
L 1862 2560 
L 1862 2725 
L 966 2725 
L 966 3904 
L 851 3904 
C 838 3245 614 2668 70 2668 
L 70 2560 
L 627 2560 
L 627 771 
C 627 650 627 -64 1370 -64 
C 1747 -64 1965 306 1965 777 
L 1965 1140 
L 1850 1140 
L 1850 783 
C 1850 344 1677 51 1408 51 
C 1222 51 966 178 966 758 
L 966 2560 
z
" transform="scale(0.015625)"/>
       <path id="CMR17-3d" d="M 4115 2017 
C 4211 2017 4307 2017 4307 2125 
C 4307 2240 4198 2240 4090 2240 
L 512 2240 
C 403 2240 294 2240 294 2125 
C 294 2017 390 2017 486 2017 
L 4115 2017 
z
M 4090 896 
C 4198 896 4307 896 4307 1011 
C 4307 1119 4211 1119 4115 1119 
L 486 1119 
C 390 1119 294 1119 294 1011 
C 294 896 403 896 512 896 
L 4090 896 
z
" transform="scale(0.015625)"/>
       <path id="CMR17-2e" d="M 1062 261 
C 1062 420 934 522 800 522 
C 672 522 538 420 538 261 
C 538 102 666 0 800 0 
C 928 0 1062 102 1062 261 
z
" transform="scale(0.015625)"/>
      </defs>
      <use xlink:href="#CMR17-74" transform="scale(0.996264)"/>
      <use xlink:href="#CMR17-3d" transform="translate(65.356734 0) scale(0.996264)"/>
      <use xlink:href="#CMR17-30" transform="translate(167.147489 0) scale(0.996264)"/>
      <use xlink:href="#CMR17-2e" transform="translate(212.837966 0) scale(0.996264)"/>
      <use xlink:href="#CMR17-30" transform="translate(237.709025 0) scale(0.996264)"/>
      <use xlink:href="#CMR17-30" transform="translate(283.399502 0) scale(0.996264)"/>
     </g>
    </g>
    <g id="line2d_48">
     <path d="M 948.117672 216.710462 
L 962.117672 216.710462 
L 976.117672 216.710462 
" style="fill: none; stroke: #6b6ecf; stroke-width: 2; stroke-linecap: round"/>
    </g>
    <g id="text_22">
     <!-- t = 10.00 -->
     <g style="fill: #262626" transform="translate(987.317672 221.610462) scale(0.14 -0.14)">
      <use xlink:href="#CMR17-74" transform="scale(0.996264)"/>
      <use xlink:href="#CMR17-3d" transform="translate(65.356734 0) scale(0.996264)"/>
      <use xlink:href="#CMR17-31" transform="translate(167.147489 0) scale(0.996264)"/>
      <use xlink:href="#CMR17-30" transform="translate(212.837966 0) scale(0.996264)"/>
      <use xlink:href="#CMR17-2e" transform="translate(258.528443 0) scale(0.996264)"/>
      <use xlink:href="#CMR17-30" transform="translate(283.399502 0) scale(0.996264)"/>
      <use xlink:href="#CMR17-30" transform="translate(329.089979 0) scale(0.996264)"/>
     </g>
    </g>
    <g id="line2d_49">
     <path d="M 948.117672 236.222491 
L 962.117672 236.222491 
L 976.117672 236.222491 
" style="fill: none; stroke: #637939; stroke-width: 2; stroke-linecap: round"/>
    </g>
    <g id="text_23">
     <!-- t = 50.00 -->
     <g style="fill: #262626" transform="translate(987.317672 241.122491) scale(0.14 -0.14)">
      <use xlink:href="#CMR17-74" transform="scale(0.996264)"/>
      <use xlink:href="#CMR17-3d" transform="translate(65.356734 0) scale(0.996264)"/>
      <use xlink:href="#CMR17-35" transform="translate(167.147489 0) scale(0.996264)"/>
      <use xlink:href="#CMR17-30" transform="translate(212.837966 0) scale(0.996264)"/>
      <use xlink:href="#CMR17-2e" transform="translate(258.528443 0) scale(0.996264)"/>
      <use xlink:href="#CMR17-30" transform="translate(283.399502 0) scale(0.996264)"/>
      <use xlink:href="#CMR17-30" transform="translate(329.089979 0) scale(0.996264)"/>
     </g>
    </g>
    <g id="line2d_50">
     <path d="M 948.117672 255.734519 
L 962.117672 255.734519 
L 976.117672 255.734519 
" style="fill: none; stroke: #b5cf6b; stroke-width: 2; stroke-linecap: round"/>
    </g>
    <g id="text_24">
     <!-- t = 100.00 -->
     <g style="fill: #262626" transform="translate(987.317672 260.634519) scale(0.14 -0.14)">
      <use xlink:href="#CMR17-74" transform="scale(0.996264)"/>
      <use xlink:href="#CMR17-3d" transform="translate(65.356734 0) scale(0.996264)"/>
      <use xlink:href="#CMR17-31" transform="translate(167.147489 0) scale(0.996264)"/>
      <use xlink:href="#CMR17-30" transform="translate(212.837966 0) scale(0.996264)"/>
      <use xlink:href="#CMR17-30" transform="translate(258.528443 0) scale(0.996264)"/>
      <use xlink:href="#CMR17-2e" transform="translate(304.21892 0) scale(0.996264)"/>
      <use xlink:href="#CMR17-30" transform="translate(329.089979 0) scale(0.996264)"/>
      <use xlink:href="#CMR17-30" transform="translate(374.780456 0) scale(0.996264)"/>
     </g>
    </g>
    <g id="line2d_51">
     <path d="M 948.117672 275.246547 
L 962.117672 275.246547 
L 976.117672 275.246547 
" style="fill: none; stroke: #8c6d31; stroke-width: 2; stroke-linecap: round"/>
    </g>
    <g id="text_25">
     <!-- t = 250.00 -->
     <g style="fill: #262626" transform="translate(987.317672 280.146547) scale(0.14 -0.14)">
      <use xlink:href="#CMR17-74" transform="scale(0.996264)"/>
      <use xlink:href="#CMR17-3d" transform="translate(65.356734 0) scale(0.996264)"/>
      <use xlink:href="#CMR17-32" transform="translate(167.147489 0) scale(0.996264)"/>
      <use xlink:href="#CMR17-35" transform="translate(212.837966 0) scale(0.996264)"/>
      <use xlink:href="#CMR17-30" transform="translate(258.528443 0) scale(0.996264)"/>
      <use xlink:href="#CMR17-2e" transform="translate(304.21892 0) scale(0.996264)"/>
      <use xlink:href="#CMR17-30" transform="translate(329.089979 0) scale(0.996264)"/>
      <use xlink:href="#CMR17-30" transform="translate(374.780456 0) scale(0.996264)"/>
     </g>
    </g>
    <g id="line2d_52">
     <path d="M 948.117672 294.758576 
L 962.117672 294.758576 
L 976.117672 294.758576 
" style="fill: none; stroke: #e7cb94; stroke-width: 2; stroke-linecap: round"/>
    </g>
    <g id="text_26">
     <!-- t = 500.00 -->
     <g style="fill: #262626" transform="translate(987.317672 299.658576) scale(0.14 -0.14)">
      <use xlink:href="#CMR17-74" transform="scale(0.996264)"/>
      <use xlink:href="#CMR17-3d" transform="translate(65.356734 0) scale(0.996264)"/>
      <use xlink:href="#CMR17-35" transform="translate(167.147489 0) scale(0.996264)"/>
      <use xlink:href="#CMR17-30" transform="translate(212.837966 0) scale(0.996264)"/>
      <use xlink:href="#CMR17-30" transform="translate(258.528443 0) scale(0.996264)"/>
      <use xlink:href="#CMR17-2e" transform="translate(304.21892 0) scale(0.996264)"/>
      <use xlink:href="#CMR17-30" transform="translate(329.089979 0) scale(0.996264)"/>
      <use xlink:href="#CMR17-30" transform="translate(374.780456 0) scale(0.996264)"/>
     </g>
    </g>
    <g id="line2d_53">
     <path d="M 948.117672 314.270604 
L 962.117672 314.270604 
L 976.117672 314.270604 
" style="fill: none; stroke: #ad494a; stroke-width: 2; stroke-linecap: round"/>
    </g>
    <g id="text_27">
     <!-- t = 750.00 -->
     <g style="fill: #262626" transform="translate(987.317672 319.170604) scale(0.14 -0.14)">
      <use xlink:href="#CMR17-74" transform="scale(0.996264)"/>
      <use xlink:href="#CMR17-3d" transform="translate(65.356734 0) scale(0.996264)"/>
      <use xlink:href="#CMR17-37" transform="translate(167.147489 0) scale(0.996264)"/>
      <use xlink:href="#CMR17-35" transform="translate(212.837966 0) scale(0.996264)"/>
      <use xlink:href="#CMR17-30" transform="translate(258.528443 0) scale(0.996264)"/>
      <use xlink:href="#CMR17-2e" transform="translate(304.21892 0) scale(0.996264)"/>
      <use xlink:href="#CMR17-30" transform="translate(329.089979 0) scale(0.996264)"/>
      <use xlink:href="#CMR17-30" transform="translate(374.780456 0) scale(0.996264)"/>
     </g>
    </g>
    <g id="line2d_54">
     <path d="M 948.117672 333.782633 
L 962.117672 333.782633 
L 976.117672 333.782633 
" style="fill: none; stroke: #e7969c; stroke-width: 2; stroke-linecap: round"/>
    </g>
    <g id="text_28">
     <!-- t = 1000.00 -->
     <g style="fill: #262626" transform="translate(987.317672 338.682633) scale(0.14 -0.14)">
      <use xlink:href="#CMR17-74" transform="scale(0.996264)"/>
      <use xlink:href="#CMR17-3d" transform="translate(65.356734 0) scale(0.996264)"/>
      <use xlink:href="#CMR17-31" transform="translate(167.147489 0) scale(0.996264)"/>
      <use xlink:href="#CMR17-30" transform="translate(212.837966 0) scale(0.996264)"/>
      <use xlink:href="#CMR17-30" transform="translate(258.528443 0) scale(0.996264)"/>
      <use xlink:href="#CMR17-30" transform="translate(304.21892 0) scale(0.996264)"/>
      <use xlink:href="#CMR17-2e" transform="translate(349.909397 0) scale(0.996264)"/>
      <use xlink:href="#CMR17-30" transform="translate(374.780456 0) scale(0.996264)"/>
      <use xlink:href="#CMR17-30" transform="translate(420.470933 0) scale(0.996264)"/>
     </g>
    </g>
    <g id="line2d_55">
     <path d="M 948.117672 353.294661 
L 962.117672 353.294661 
L 976.117672 353.294661 
" style="fill: none; stroke: #a55194; stroke-width: 2; stroke-linecap: round"/>
    </g>
    <g id="text_29">
     <!-- t = 1250.00 -->
     <g style="fill: #262626" transform="translate(987.317672 358.194661) scale(0.14 -0.14)">
      <use xlink:href="#CMR17-74" transform="scale(0.996264)"/>
      <use xlink:href="#CMR17-3d" transform="translate(65.356734 0) scale(0.996264)"/>
      <use xlink:href="#CMR17-31" transform="translate(167.147489 0) scale(0.996264)"/>
      <use xlink:href="#CMR17-32" transform="translate(212.837966 0) scale(0.996264)"/>
      <use xlink:href="#CMR17-35" transform="translate(258.528443 0) scale(0.996264)"/>
      <use xlink:href="#CMR17-30" transform="translate(304.21892 0) scale(0.996264)"/>
      <use xlink:href="#CMR17-2e" transform="translate(349.909397 0) scale(0.996264)"/>
      <use xlink:href="#CMR17-30" transform="translate(374.780456 0) scale(0.996264)"/>
      <use xlink:href="#CMR17-30" transform="translate(420.470933 0) scale(0.996264)"/>
     </g>
    </g>
    <g id="line2d_56">
     <path d="M 948.117672 372.806689 
L 962.117672 372.806689 
L 976.117672 372.806689 
" style="fill: none; stroke: #de9ed6; stroke-width: 2; stroke-linecap: round"/>
    </g>
    <g id="text_30">
     <!-- t = 1500.00 -->
     <g style="fill: #262626" transform="translate(987.317672 377.706689) scale(0.14 -0.14)">
      <use xlink:href="#CMR17-74" transform="scale(0.996264)"/>
      <use xlink:href="#CMR17-3d" transform="translate(65.356734 0) scale(0.996264)"/>
      <use xlink:href="#CMR17-31" transform="translate(167.147489 0) scale(0.996264)"/>
      <use xlink:href="#CMR17-35" transform="translate(212.837966 0) scale(0.996264)"/>
      <use xlink:href="#CMR17-30" transform="translate(258.528443 0) scale(0.996264)"/>
      <use xlink:href="#CMR17-30" transform="translate(304.21892 0) scale(0.996264)"/>
      <use xlink:href="#CMR17-2e" transform="translate(349.909397 0) scale(0.996264)"/>
      <use xlink:href="#CMR17-30" transform="translate(374.780456 0) scale(0.996264)"/>
      <use xlink:href="#CMR17-30" transform="translate(420.470933 0) scale(0.996264)"/>
     </g>
    </g>
   </g>
  </g>
  <g id="text_31">
   <!-- adhesivity -->
   <g style="fill: #262626" transform="translate(501.333696 24.803515) scale(0.192 -0.192)">
    <defs>
     <path id="CMR17-61" d="M 2304 1653 
C 2304 2072 2304 2294 2035 2543 
C 1798 2752 1523 2816 1306 2816 
C 800 2816 435 2407 435 1971 
C 435 1728 627 1728 666 1728 
C 749 1728 896 1778 896 1954 
C 896 2112 774 2181 666 2181 
C 640 2181 608 2174 589 2168 
C 723 2592 1069 2714 1293 2714 
C 1613 2714 1965 2429 1965 1885 
L 1965 1600 
C 1587 1600 1133 1549 774 1357 
C 371 1133 256 813 256 570 
C 256 77 832 -64 1171 -64 
C 1523 -64 1850 139 1990 511 
C 2003 233 2182 -18 2464 -18 
C 2598 -18 2938 70 2938 567 
L 2938 920 
L 2822 920 
L 2822 562 
C 2822 178 2650 128 2566 128 
C 2304 128 2304 458 2304 738 
L 2304 1653 
z
M 1965 870 
C 1965 317 1568 38 1216 38 
C 896 38 646 275 646 570 
C 646 761 730 1100 1101 1305 
C 1408 1478 1760 1504 1965 1504 
L 1965 870 
z
" transform="scale(0.015625)"/>
     <path id="CMR17-64" d="M 1869 4326 
L 1869 4160 
C 2246 4160 2304 4122 2304 3820 
L 2304 2345 
C 2278 2377 2016 2790 1498 2790 
C 845 2790 211 2208 211 1364 
C 211 525 806 -64 1434 -64 
C 1978 -64 2259 337 2291 380 
L 2291 -63 
L 3066 -63 
L 3066 128 
C 2688 128 2630 166 2630 473 
L 2630 4396 
L 1869 4326 
z
M 2291 755 
C 2291 563 2176 390 2029 262 
C 1811 70 1594 38 1472 38 
C 1286 38 621 134 621 1356 
C 621 2612 1363 2688 1530 2688 
C 1824 2688 2061 2522 2208 2291 
C 2291 2157 2291 2138 2291 2023 
L 2291 755 
z
" transform="scale(0.015625)"/>
     <path id="CMR17-68" d="M 2656 1933 
C 2656 2259 2592 2790 1837 2790 
C 1312 2790 1056 2368 979 2157 
L 973 2157 
L 973 4396 
L 211 4326 
L 211 4160 
C 589 4160 646 4122 646 3817 
L 646 426 
C 646 184 621 153 211 153 
L 211 -13 
C 365 0 646 0 813 0 
C 979 0 1267 0 1421 -13 
L 1421 153 
C 1011 153 986 178 986 428 
L 986 1658 
C 986 2247 1344 2688 1792 2688 
C 2266 2688 2317 2266 2317 1958 
L 2317 428 
C 2317 184 2291 153 1882 153 
L 1882 -13 
C 2035 0 2317 0 2483 0 
C 2650 0 2938 0 3091 -13 
L 3091 153 
C 2682 153 2656 178 2656 428 
L 2656 1933 
z
" transform="scale(0.015625)"/>
     <path id="CMR17-73" d="M 1978 2697 
C 1978 2813 1971 2819 1933 2819 
C 1907 2819 1901 2813 1824 2717 
C 1805 2691 1747 2626 1728 2601 
C 1523 2819 1235 2819 1126 2819 
C 416 2819 160 2447 160 2076 
C 160 1498 813 1365 998 1325 
C 1402 1243 1542 1217 1677 1101 
C 1760 1025 1901 884 1901 654 
C 1901 384 1747 38 1158 38 
C 602 38 403 460 288 1021 
C 269 1110 269 1117 218 1117 
C 166 1117 160 1110 160 983 
L 160 63 
C 160 -51 166 -58 205 -58 
C 237 -58 243 -51 275 0 
C 314 57 410 211 448 276 
C 576 103 800 -64 1158 -64 
C 1792 -64 2131 283 2131 784 
C 2131 1112 1958 1285 1875 1362 
C 1683 1561 1459 1606 1190 1657 
C 838 1735 390 1825 390 2217 
C 390 2383 480 2737 1126 2737 
C 1811 2737 1850 2094 1862 1888 
C 1869 1856 1901 1849 1920 1849 
C 1978 1849 1978 1869 1978 1978 
L 1978 2697 
z
" transform="scale(0.015625)"/>
     <path id="CMR17-76" d="M 2502 2163 
C 2560 2304 2662 2560 3034 2560 
L 3034 2726 
C 2912 2726 2752 2726 2630 2726 
C 2496 2726 2285 2726 2157 2732 
L 2157 2566 
C 2317 2553 2406 2477 2406 2311 
C 2406 2253 2406 2240 2368 2151 
L 1664 377 
L 902 2286 
C 864 2369 864 2381 864 2407 
C 864 2560 1075 2560 1171 2560 
L 1171 2732 
C 1018 2726 736 2726 576 2726 
C 403 2726 205 2726 64 2732 
L 64 2560 
C 307 2560 442 2560 518 2362 
L 1446 44 
C 1485 -51 1491 -64 1549 -64 
C 1606 -64 1613 -51 1651 44 
L 2502 2163 
z
" transform="scale(0.015625)"/>
     <path id="CMR17-79" d="M 2496 2197 
C 2656 2586 2944 2586 3034 2586 
L 3034 2752 
C 2912 2752 2752 2752 2630 2752 
C 2496 2752 2285 2752 2157 2758 
L 2157 2592 
C 2400 2573 2406 2394 2406 2343 
C 2406 2280 2394 2248 2362 2171 
L 1664 449 
L 902 2306 
C 870 2382 870 2426 870 2433 
C 870 2573 1018 2586 1171 2586 
L 1171 2758 
C 1018 2752 742 2752 582 2752 
C 410 2752 205 2752 64 2758 
L 64 2586 
C 410 2586 448 2554 531 2350 
L 1485 15 
C 1197 -738 1030 -1178 627 -1178 
C 557 -1178 397 -1159 282 -1044 
C 429 -1031 493 -942 493 -833 
C 493 -725 416 -629 288 -629 
C 147 -629 77 -725 77 -840 
C 77 -1095 339 -1280 627 -1280 
C 998 -1280 1229 -922 1357 -604 
L 2496 2197 
z
" transform="scale(0.015625)"/>
    </defs>
    <use xlink:href="#CMR17-61" transform="scale(0.996264)"/>
    <use xlink:href="#CMR17-64" transform="translate(45.690477 0) scale(0.996264)"/>
    <use xlink:href="#CMR17-68" transform="translate(96.585847 0) scale(0.996264)"/>
    <use xlink:href="#CMR17-65" transform="translate(147.481217 0) scale(0.996264)"/>
    <use xlink:href="#CMR17-73" transform="translate(187.966877 0) scale(0.996264)"/>
    <use xlink:href="#CMR17-69" transform="translate(223.768215 0) scale(0.996264)"/>
    <use xlink:href="#CMR17-76" transform="translate(248.639273 0) scale(0.996264)"/>
    <use xlink:href="#CMR17-69" transform="translate(296.932189 0) scale(0.996264)"/>
    <use xlink:href="#CMR17-74" transform="translate(321.803248 0) scale(0.996264)"/>
    <use xlink:href="#CMR17-79" transform="translate(354.481561 0) scale(0.996264)"/>
   </g>
  </g>
 </g>
 <defs>
  <clipPath id="peffb9acfd7">
   <rect x="41.730582" y="51.564121" width="893.78709" height="469.58891"/>
  </clipPath>
 </defs>
</svg>
