<?xml version="1.0" encoding="utf-8" standalone="no"?>
<!DOCTYPE svg PUBLIC "-//W3C//DTD SVG 1.1//EN"
  "http://www.w3.org/Graphics/SVG/1.1/DTD/svg11.dtd">
<svg xmlns:xlink="http://www.w3.org/1999/xlink" width="1080pt" height="576pt" viewBox="0 0 1080 576" xmlns="http://www.w3.org/2000/svg" version="1.1">
 <metadata>
  <rdf:RDF xmlns:dc="http://purl.org/dc/elements/1.1/" xmlns:cc="http://creativecommons.org/ns#" xmlns:rdf="http://www.w3.org/1999/02/22-rdf-syntax-ns#">
   <cc:Work>
    <dc:type rdf:resource="http://purl.org/dc/dcmitype/StillImage"/>
    <dc:date>2024-06-28T12:09:11.611217</dc:date>
    <dc:format>image/svg+xml</dc:format>
    <dc:creator>
     <cc:Agent>
      <dc:title>Matplotlib v3.9.0, https://matplotlib.org/</dc:title>
     </cc:Agent>
    </dc:creator>
   </cc:Work>
  </rdf:RDF>
 </metadata>
 <defs>
  <style type="text/css">*{stroke-linejoin: round; stroke-linecap: butt}</style>
 </defs>
 <g id="figure_1">
  <g id="patch_1">
   <path d="M 0 576 
L 1080 576 
L 1080 0 
L 0 0 
z
" style="fill: #ffffff"/>
  </g>
  <g id="axes_1">
   <g id="patch_2">
    <path d="M 41.730582 521.153031 
L 935.517672 521.153031 
L 935.517672 51.564121 
L 41.730582 51.564121 
z
" style="fill: #eaeaf2"/>
   </g>
   <g id="matplotlib.axis_1">
    <g id="xtick_1">
     <g id="line2d_1">
      <path d="M 41.730582 521.153031 
L 41.730582 51.564121 
" clip-path="url(#pd97855836b)" style="fill: none; stroke: #ffffff; stroke-linecap: round"/>
     </g>
     <g id="line2d_2"/>
     <g id="text_1">
      <!-- $\mathdefault{0.00}$ -->
      <g style="fill: #262626" transform="translate(29.591047 537.838907) scale(0.14 -0.14)">
       <defs>
        <path id="CMR17-30" d="M 2688 2025 
C 2688 2416 2682 3080 2413 3591 
C 2176 4039 1798 4198 1466 4198 
C 1158 4198 768 4058 525 3597 
C 269 3118 243 2524 243 2025 
C 243 1661 250 1106 448 619 
C 723 -39 1216 -128 1466 -128 
C 1760 -128 2208 -7 2470 600 
C 2662 1042 2688 1559 2688 2025 
z
M 1466 -26 
C 1056 -26 813 325 723 812 
C 653 1188 653 1738 653 2096 
C 653 2588 653 2997 736 3387 
C 858 3929 1216 4096 1466 4096 
C 1728 4096 2067 3923 2189 3400 
C 2272 3036 2278 2607 2278 2096 
C 2278 1680 2278 1169 2202 792 
C 2067 95 1690 -26 1466 -26 
z
" transform="scale(0.015625)"/>
        <path id="CMMI12-3a" d="M 1178 307 
C 1178 492 1024 619 870 619 
C 685 619 557 466 557 313 
C 557 128 710 0 864 0 
C 1050 0 1178 153 1178 307 
z
" transform="scale(0.015625)"/>
       </defs>
       <use xlink:href="#CMR17-30" transform="scale(0.996264)"/>
       <use xlink:href="#CMMI12-3a" transform="translate(45.690477 0) scale(0.996264)"/>
       <use xlink:href="#CMR17-30" transform="translate(72.787654 0) scale(0.996264)"/>
       <use xlink:href="#CMR17-30" transform="translate(118.478131 0) scale(0.996264)"/>
      </g>
     </g>
    </g>
    <g id="xtick_2">
     <g id="line2d_3">
      <path d="M 148.133807 521.153031 
L 148.133807 51.564121 
" clip-path="url(#pd97855836b)" style="fill: none; stroke: #ffffff; stroke-linecap: round"/>
     </g>
     <g id="line2d_4"/>
     <g id="text_2">
      <!-- $\mathdefault{0.25}$ -->
      <g style="fill: #262626" transform="translate(135.994272 537.838907) scale(0.14 -0.14)">
       <defs>
        <path id="CMR17-32" d="M 2669 989 
L 2554 989 
C 2490 536 2438 459 2413 420 
C 2381 369 1920 369 1830 369 
L 602 369 
C 832 619 1280 1072 1824 1597 
C 2214 1967 2669 2402 2669 3035 
C 2669 3790 2067 4224 1395 4224 
C 691 4224 262 3604 262 3030 
C 262 2780 448 2748 525 2748 
C 589 2748 781 2787 781 3010 
C 781 3207 614 3264 525 3264 
C 486 3264 448 3258 422 3245 
C 544 3790 915 4058 1306 4058 
C 1862 4058 2227 3617 2227 3035 
C 2227 2479 1901 2000 1536 1584 
L 262 146 
L 262 0 
L 2515 0 
L 2669 989 
z
" transform="scale(0.015625)"/>
        <path id="CMR17-35" d="M 730 3692 
C 794 3666 1056 3584 1325 3584 
C 1920 3584 2246 3911 2432 4100 
C 2432 4157 2432 4192 2394 4192 
C 2387 4192 2374 4192 2323 4163 
C 2099 4058 1837 3973 1517 3973 
C 1325 3973 1037 3999 723 4139 
C 653 4171 640 4171 634 4171 
C 602 4171 595 4164 595 4037 
L 595 2203 
C 595 2089 595 2057 659 2057 
C 691 2057 704 2070 736 2114 
C 941 2401 1222 2522 1542 2522 
C 1766 2522 2246 2382 2246 1289 
C 2246 1085 2246 715 2054 421 
C 1894 159 1645 25 1370 25 
C 947 25 518 320 403 814 
C 429 807 480 795 506 795 
C 589 795 749 840 749 1038 
C 749 1210 627 1280 506 1280 
C 358 1280 262 1190 262 1011 
C 262 454 704 -128 1382 -128 
C 2042 -128 2669 440 2669 1264 
C 2669 2030 2170 2624 1549 2624 
C 1222 2624 947 2503 730 2274 
L 730 3692 
z
" transform="scale(0.015625)"/>
       </defs>
       <use xlink:href="#CMR17-30" transform="scale(0.996264)"/>
       <use xlink:href="#CMMI12-3a" transform="translate(45.690477 0) scale(0.996264)"/>
       <use xlink:href="#CMR17-32" transform="translate(72.787654 0) scale(0.996264)"/>
       <use xlink:href="#CMR17-35" transform="translate(118.478131 0) scale(0.996264)"/>
      </g>
     </g>
    </g>
    <g id="xtick_3">
     <g id="line2d_5">
      <path d="M 254.537032 521.153031 
L 254.537032 51.564121 
" clip-path="url(#pd97855836b)" style="fill: none; stroke: #ffffff; stroke-linecap: round"/>
     </g>
     <g id="line2d_6"/>
     <g id="text_3">
      <!-- $\mathdefault{0.50}$ -->
      <g style="fill: #262626" transform="translate(242.397497 537.838907) scale(0.14 -0.14)">
       <use xlink:href="#CMR17-30" transform="scale(0.996264)"/>
       <use xlink:href="#CMMI12-3a" transform="translate(45.690477 0) scale(0.996264)"/>
       <use xlink:href="#CMR17-35" transform="translate(72.787654 0) scale(0.996264)"/>
       <use xlink:href="#CMR17-30" transform="translate(118.478131 0) scale(0.996264)"/>
      </g>
     </g>
    </g>
    <g id="xtick_4">
     <g id="line2d_7">
      <path d="M 360.940257 521.153031 
L 360.940257 51.564121 
" clip-path="url(#pd97855836b)" style="fill: none; stroke: #ffffff; stroke-linecap: round"/>
     </g>
     <g id="line2d_8"/>
     <g id="text_4">
      <!-- $\mathdefault{0.75}$ -->
      <g style="fill: #262626" transform="translate(348.800722 537.838907) scale(0.14 -0.14)">
       <defs>
        <path id="CMR17-37" d="M 2886 3941 
L 2886 4081 
L 1382 4081 
C 634 4081 621 4165 595 4288 
L 480 4288 
L 294 3094 
L 410 3094 
C 429 3215 474 3540 550 3661 
C 589 3712 1062 3712 1171 3712 
L 2579 3712 
L 1869 2661 
C 1395 1954 1069 999 1069 165 
C 1069 89 1069 -128 1299 -128 
C 1530 -128 1530 89 1530 171 
L 1530 465 
C 1530 1508 1709 2196 2003 2636 
L 2886 3941 
z
" transform="scale(0.015625)"/>
       </defs>
       <use xlink:href="#CMR17-30" transform="scale(0.996264)"/>
       <use xlink:href="#CMMI12-3a" transform="translate(45.690477 0) scale(0.996264)"/>
       <use xlink:href="#CMR17-37" transform="translate(72.787654 0) scale(0.996264)"/>
       <use xlink:href="#CMR17-35" transform="translate(118.478131 0) scale(0.996264)"/>
      </g>
     </g>
    </g>
    <g id="xtick_5">
     <g id="line2d_9">
      <path d="M 467.343482 521.153031 
L 467.343482 51.564121 
" clip-path="url(#pd97855836b)" style="fill: none; stroke: #ffffff; stroke-linecap: round"/>
     </g>
     <g id="line2d_10"/>
     <g id="text_5">
      <!-- $\mathdefault{1.00}$ -->
      <g style="fill: #262626" transform="translate(455.203947 537.838907) scale(0.14 -0.14)">
       <defs>
        <path id="CMR17-31" d="M 1702 4058 
C 1702 4192 1696 4192 1606 4192 
C 1357 3916 979 3827 621 3827 
C 602 3827 570 3827 563 3808 
C 557 3795 557 3782 557 3648 
C 755 3648 1088 3686 1344 3839 
L 1344 461 
C 1344 236 1331 160 781 160 
L 589 160 
L 589 0 
C 896 0 1216 0 1523 0 
C 1830 0 2150 0 2458 0 
L 2458 160 
L 2266 160 
C 1715 160 1702 230 1702 458 
L 1702 4058 
z
" transform="scale(0.015625)"/>
       </defs>
       <use xlink:href="#CMR17-31" transform="scale(0.996264)"/>
       <use xlink:href="#CMMI12-3a" transform="translate(45.690477 0) scale(0.996264)"/>
       <use xlink:href="#CMR17-30" transform="translate(72.787654 0) scale(0.996264)"/>
       <use xlink:href="#CMR17-30" transform="translate(118.478131 0) scale(0.996264)"/>
      </g>
     </g>
    </g>
    <g id="xtick_6">
     <g id="line2d_11">
      <path d="M 573.746707 521.153031 
L 573.746707 51.564121 
" clip-path="url(#pd97855836b)" style="fill: none; stroke: #ffffff; stroke-linecap: round"/>
     </g>
     <g id="line2d_12"/>
     <g id="text_6">
      <!-- $\mathdefault{1.25}$ -->
      <g style="fill: #262626" transform="translate(561.607172 537.838907) scale(0.14 -0.14)">
       <use xlink:href="#CMR17-31" transform="scale(0.996264)"/>
       <use xlink:href="#CMMI12-3a" transform="translate(45.690477 0) scale(0.996264)"/>
       <use xlink:href="#CMR17-32" transform="translate(72.787654 0) scale(0.996264)"/>
       <use xlink:href="#CMR17-35" transform="translate(118.478131 0) scale(0.996264)"/>
      </g>
     </g>
    </g>
    <g id="xtick_7">
     <g id="line2d_13">
      <path d="M 680.149932 521.153031 
L 680.149932 51.564121 
" clip-path="url(#pd97855836b)" style="fill: none; stroke: #ffffff; stroke-linecap: round"/>
     </g>
     <g id="line2d_14"/>
     <g id="text_7">
      <!-- $\mathdefault{1.50}$ -->
      <g style="fill: #262626" transform="translate(668.010397 537.838907) scale(0.14 -0.14)">
       <use xlink:href="#CMR17-31" transform="scale(0.996264)"/>
       <use xlink:href="#CMMI12-3a" transform="translate(45.690477 0) scale(0.996264)"/>
       <use xlink:href="#CMR17-35" transform="translate(72.787654 0) scale(0.996264)"/>
       <use xlink:href="#CMR17-30" transform="translate(118.478131 0) scale(0.996264)"/>
      </g>
     </g>
    </g>
    <g id="xtick_8">
     <g id="line2d_15">
      <path d="M 786.553157 521.153031 
L 786.553157 51.564121 
" clip-path="url(#pd97855836b)" style="fill: none; stroke: #ffffff; stroke-linecap: round"/>
     </g>
     <g id="line2d_16"/>
     <g id="text_8">
      <!-- $\mathdefault{1.75}$ -->
      <g style="fill: #262626" transform="translate(774.413622 537.838907) scale(0.14 -0.14)">
       <use xlink:href="#CMR17-31" transform="scale(0.996264)"/>
       <use xlink:href="#CMMI12-3a" transform="translate(45.690477 0) scale(0.996264)"/>
       <use xlink:href="#CMR17-37" transform="translate(72.787654 0) scale(0.996264)"/>
       <use xlink:href="#CMR17-35" transform="translate(118.478131 0) scale(0.996264)"/>
      </g>
     </g>
    </g>
    <g id="xtick_9">
     <g id="line2d_17">
      <path d="M 892.956382 521.153031 
L 892.956382 51.564121 
" clip-path="url(#pd97855836b)" style="fill: none; stroke: #ffffff; stroke-linecap: round"/>
     </g>
     <g id="line2d_18"/>
     <g id="text_9">
      <!-- $\mathdefault{2.00}$ -->
      <g style="fill: #262626" transform="translate(880.816846 537.838907) scale(0.14 -0.14)">
       <use xlink:href="#CMR17-32" transform="scale(0.996264)"/>
       <use xlink:href="#CMMI12-3a" transform="translate(45.690477 0) scale(0.996264)"/>
       <use xlink:href="#CMR17-30" transform="translate(72.787654 0) scale(0.996264)"/>
       <use xlink:href="#CMR17-30" transform="translate(118.478131 0) scale(0.996264)"/>
      </g>
     </g>
    </g>
    <g id="text_10">
     <!-- $x$ -->
     <g style="fill: #262626" transform="translate(484.189402 555.620524) scale(0.16 -0.16)">
      <defs>
       <path id="CMMI12-78" d="M 3034 2606 
C 2829 2567 2752 2414 2752 2293 
C 2752 2139 2874 2088 2963 2088 
C 3155 2088 3290 2254 3290 2427 
C 3290 2695 2982 2816 2714 2816 
C 2323 2816 2106 2433 2048 2312 
C 1901 2816 1504 2816 1389 2816 
C 736 2816 390 1980 390 1839 
C 390 1814 416 1782 461 1782 
C 512 1782 525 1820 538 1846 
C 755 2555 1184 2689 1370 2689 
C 1658 2689 1715 2420 1715 2267 
C 1715 2127 1677 1980 1600 1673 
L 1382 798 
C 1286 415 1101 64 762 64 
C 730 64 570 64 435 147 
C 666 192 717 383 717 460 
C 717 588 621 664 499 664 
C 346 664 179 530 179 326 
C 179 57 480 -64 755 -64 
C 1062 -64 1280 179 1414 441 
C 1517 64 1837 -64 2074 -64 
C 2726 -64 3072 773 3072 913 
C 3072 945 3046 971 3008 971 
C 2950 971 2944 939 2925 888 
C 2752 326 2381 64 2093 64 
C 1869 64 1747 230 1747 492 
C 1747 632 1773 734 1875 1156 
L 2099 2024 
C 2195 2408 2413 2689 2707 2689 
C 2720 2689 2899 2689 3034 2606 
z
" transform="scale(0.015625)"/>
      </defs>
      <use xlink:href="#CMMI12-78" transform="scale(0.996264)"/>
     </g>
    </g>
   </g>
   <g id="matplotlib.axis_2">
    <g id="ytick_1">
     <g id="line2d_19">
      <path d="M 41.730582 521.153031 
L 935.517672 521.153031 
" clip-path="url(#pd97855836b)" style="fill: none; stroke: #ffffff; stroke-linecap: round"/>
     </g>
     <g id="line2d_20"/>
     <g id="text_11">
      <!-- $\mathdefault{0.0}$ -->
      <g style="fill: #262626" transform="translate(17.28 525.995969) scale(0.14 -0.14)">
       <use xlink:href="#CMR17-30" transform="scale(0.996264)"/>
       <use xlink:href="#CMMI12-3a" transform="translate(45.690477 0) scale(0.996264)"/>
       <use xlink:href="#CMR17-30" transform="translate(72.787654 0) scale(0.996264)"/>
      </g>
     </g>
    </g>
    <g id="ytick_2">
     <g id="line2d_21">
      <path d="M 41.730582 465.232337 
L 935.517672 465.232337 
" clip-path="url(#pd97855836b)" style="fill: none; stroke: #ffffff; stroke-linecap: round"/>
     </g>
     <g id="line2d_22"/>
     <g id="text_12">
      <!-- $\mathdefault{0.1}$ -->
      <g style="fill: #262626" transform="translate(17.28 470.075276) scale(0.14 -0.14)">
       <use xlink:href="#CMR17-30" transform="scale(0.996264)"/>
       <use xlink:href="#CMMI12-3a" transform="translate(45.690477 0) scale(0.996264)"/>
       <use xlink:href="#CMR17-31" transform="translate(72.787654 0) scale(0.996264)"/>
      </g>
     </g>
    </g>
    <g id="ytick_3">
     <g id="line2d_23">
      <path d="M 41.730582 409.311644 
L 935.517672 409.311644 
" clip-path="url(#pd97855836b)" style="fill: none; stroke: #ffffff; stroke-linecap: round"/>
     </g>
     <g id="line2d_24"/>
     <g id="text_13">
      <!-- $\mathdefault{0.2}$ -->
      <g style="fill: #262626" transform="translate(17.28 414.154582) scale(0.14 -0.14)">
       <use xlink:href="#CMR17-30" transform="scale(0.996264)"/>
       <use xlink:href="#CMMI12-3a" transform="translate(45.690477 0) scale(0.996264)"/>
       <use xlink:href="#CMR17-32" transform="translate(72.787654 0) scale(0.996264)"/>
      </g>
     </g>
    </g>
    <g id="ytick_4">
     <g id="line2d_25">
      <path d="M 41.730582 353.390951 
L 935.517672 353.390951 
" clip-path="url(#pd97855836b)" style="fill: none; stroke: #ffffff; stroke-linecap: round"/>
     </g>
     <g id="line2d_26"/>
     <g id="text_14">
      <!-- $\mathdefault{0.3}$ -->
      <g style="fill: #262626" transform="translate(17.28 358.233889) scale(0.14 -0.14)">
       <defs>
        <path id="CMR17-33" d="M 1414 2157 
C 1984 2157 2234 1662 2234 1090 
C 2234 320 1824 25 1453 25 
C 1114 25 563 194 390 693 
C 422 680 454 680 486 680 
C 640 680 755 782 755 948 
C 755 1133 614 1216 486 1216 
C 378 1216 211 1165 211 926 
C 211 335 787 -128 1466 -128 
C 2176 -128 2720 430 2720 1085 
C 2720 1707 2208 2157 1600 2227 
C 2086 2328 2554 2756 2554 3329 
C 2554 3820 2048 4179 1472 4179 
C 890 4179 378 3829 378 3329 
C 378 3110 544 3072 627 3072 
C 762 3072 877 3155 877 3321 
C 877 3486 762 3569 627 3569 
C 602 3569 570 3569 544 3557 
C 730 3959 1235 4032 1459 4032 
C 1683 4032 2106 3925 2106 3320 
C 2106 3143 2080 2828 1862 2550 
C 1670 2304 1453 2304 1242 2284 
C 1210 2284 1062 2269 1037 2269 
C 992 2263 966 2257 966 2208 
C 966 2163 973 2157 1101 2157 
L 1414 2157 
z
" transform="scale(0.015625)"/>
       </defs>
       <use xlink:href="#CMR17-30" transform="scale(0.996264)"/>
       <use xlink:href="#CMMI12-3a" transform="translate(45.690477 0) scale(0.996264)"/>
       <use xlink:href="#CMR17-33" transform="translate(72.787654 0) scale(0.996264)"/>
      </g>
     </g>
    </g>
    <g id="ytick_5">
     <g id="line2d_27">
      <path d="M 41.730582 297.470258 
L 935.517672 297.470258 
" clip-path="url(#pd97855836b)" style="fill: none; stroke: #ffffff; stroke-linecap: round"/>
     </g>
     <g id="line2d_28"/>
     <g id="text_15">
      <!-- $\mathdefault{0.4}$ -->
      <g style="fill: #262626" transform="translate(17.28 302.313196) scale(0.14 -0.14)">
       <defs>
        <path id="CMR17-34" d="M 2150 4122 
C 2150 4256 2144 4256 2029 4256 
L 128 1254 
L 128 1088 
L 1779 1088 
L 1779 457 
C 1779 224 1766 160 1318 160 
L 1197 160 
L 1197 0 
C 1402 0 1747 0 1965 0 
C 2182 0 2528 0 2733 0 
L 2733 160 
L 2611 160 
C 2163 160 2150 224 2150 457 
L 2150 1088 
L 2803 1088 
L 2803 1254 
L 2150 1254 
L 2150 4122 
z
M 1798 3703 
L 1798 1254 
L 256 1254 
L 1798 3703 
z
" transform="scale(0.015625)"/>
       </defs>
       <use xlink:href="#CMR17-30" transform="scale(0.996264)"/>
       <use xlink:href="#CMMI12-3a" transform="translate(45.690477 0) scale(0.996264)"/>
       <use xlink:href="#CMR17-34" transform="translate(72.787654 0) scale(0.996264)"/>
      </g>
     </g>
    </g>
    <g id="ytick_6">
     <g id="line2d_29">
      <path d="M 41.730582 241.549564 
L 935.517672 241.549564 
" clip-path="url(#pd97855836b)" style="fill: none; stroke: #ffffff; stroke-linecap: round"/>
     </g>
     <g id="line2d_30"/>
     <g id="text_16">
      <!-- $\mathdefault{0.5}$ -->
      <g style="fill: #262626" transform="translate(17.28 246.392503) scale(0.14 -0.14)">
       <use xlink:href="#CMR17-30" transform="scale(0.996264)"/>
       <use xlink:href="#CMMI12-3a" transform="translate(45.690477 0) scale(0.996264)"/>
       <use xlink:href="#CMR17-35" transform="translate(72.787654 0) scale(0.996264)"/>
      </g>
     </g>
    </g>
    <g id="ytick_7">
     <g id="line2d_31">
      <path d="M 41.730582 185.628871 
L 935.517672 185.628871 
" clip-path="url(#pd97855836b)" style="fill: none; stroke: #ffffff; stroke-linecap: round"/>
     </g>
     <g id="line2d_32"/>
     <g id="text_17">
      <!-- $\mathdefault{0.6}$ -->
      <g style="fill: #262626" transform="translate(17.28 190.471809) scale(0.14 -0.14)">
       <defs>
        <path id="CMR17-36" d="M 678 2176 
C 678 3690 1395 4032 1811 4032 
C 1946 4032 2272 4009 2400 3776 
C 2298 3776 2106 3776 2106 3553 
C 2106 3381 2246 3323 2336 3323 
C 2394 3323 2566 3348 2566 3560 
C 2566 3954 2246 4179 1805 4179 
C 1043 4179 243 3390 243 1984 
C 243 253 966 -128 1478 -128 
C 2099 -128 2688 427 2688 1283 
C 2688 2081 2170 2662 1517 2662 
C 1126 2662 838 2407 678 1960 
L 678 2176 
z
M 1478 25 
C 691 25 691 1200 691 1436 
C 691 1896 909 2560 1504 2560 
C 1613 2560 1926 2560 2138 2120 
C 2253 1870 2253 1609 2253 1289 
C 2253 944 2253 690 2118 434 
C 1978 171 1773 25 1478 25 
z
" transform="scale(0.015625)"/>
       </defs>
       <use xlink:href="#CMR17-30" transform="scale(0.996264)"/>
       <use xlink:href="#CMMI12-3a" transform="translate(45.690477 0) scale(0.996264)"/>
       <use xlink:href="#CMR17-36" transform="translate(72.787654 0) scale(0.996264)"/>
      </g>
     </g>
    </g>
    <g id="ytick_8">
     <g id="line2d_33">
      <path d="M 41.730582 129.708178 
L 935.517672 129.708178 
" clip-path="url(#pd97855836b)" style="fill: none; stroke: #ffffff; stroke-linecap: round"/>
     </g>
     <g id="line2d_34"/>
     <g id="text_18">
      <!-- $\mathdefault{0.7}$ -->
      <g style="fill: #262626" transform="translate(17.28 134.551116) scale(0.14 -0.14)">
       <use xlink:href="#CMR17-30" transform="scale(0.996264)"/>
       <use xlink:href="#CMMI12-3a" transform="translate(45.690477 0) scale(0.996264)"/>
       <use xlink:href="#CMR17-37" transform="translate(72.787654 0) scale(0.996264)"/>
      </g>
     </g>
    </g>
    <g id="ytick_9">
     <g id="line2d_35">
      <path d="M 41.730582 73.787485 
L 935.517672 73.787485 
" clip-path="url(#pd97855836b)" style="fill: none; stroke: #ffffff; stroke-linecap: round"/>
     </g>
     <g id="line2d_36"/>
     <g id="text_19">
      <!-- $\mathdefault{0.8}$ -->
      <g style="fill: #262626" transform="translate(17.28 78.630423) scale(0.14 -0.14)">
       <defs>
        <path id="CMR17-38" d="M 1741 2264 
C 2144 2467 2554 2773 2554 3263 
C 2554 3841 1990 4179 1472 4179 
C 890 4179 378 3759 378 3180 
C 378 3021 416 2747 666 2505 
C 730 2442 998 2251 1171 2130 
C 883 1983 211 1634 211 934 
C 211 279 838 -128 1459 -128 
C 2144 -128 2720 362 2720 1010 
C 2720 1590 2330 1857 2074 2029 
L 1741 2264 
z
M 902 2822 
C 851 2854 595 3051 595 3351 
C 595 3739 998 4032 1459 4032 
C 1965 4032 2336 3676 2336 3262 
C 2336 2669 1670 2331 1638 2331 
C 1632 2331 1626 2331 1574 2370 
L 902 2822 
z
M 2080 1519 
C 2176 1449 2483 1240 2483 851 
C 2483 381 2010 25 1472 25 
C 890 25 448 438 448 940 
C 448 1443 838 1862 1280 2060 
L 2080 1519 
z
" transform="scale(0.015625)"/>
       </defs>
       <use xlink:href="#CMR17-30" transform="scale(0.996264)"/>
       <use xlink:href="#CMMI12-3a" transform="translate(45.690477 0) scale(0.996264)"/>
       <use xlink:href="#CMR17-38" transform="translate(72.787654 0) scale(0.996264)"/>
      </g>
     </g>
    </g>
   </g>
   <g id="line2d_37">
    <path d="M 41.730582 73.787485 
L 50.24284 73.787485 
L 58.755098 73.787485 
L 67.267356 73.787485 
L 75.779614 73.787485 
L 84.291872 73.787485 
L 92.80413 73.787485 
L 101.316388 73.787485 
L 109.828646 73.787485 
L 118.340904 73.787485 
L 126.853162 73.787485 
L 135.36542 73.787485 
L 143.877678 73.787485 
L 152.389936 73.787485 
L 160.902194 73.787485 
L 169.414452 73.787485 
L 177.92671 73.787485 
L 186.438968 73.787485 
L 194.951226 73.787485 
L 203.463484 73.787485 
L 211.975742 73.787485 
L 220.488 73.787485 
L 229.000258 73.787485 
L 237.512516 73.787485 
L 246.024774 73.787485 
L 254.537032 73.787485 
L 263.04929 73.787485 
L 271.561548 73.787485 
L 280.073806 73.787485 
L 288.586064 73.787485 
L 297.098322 73.787485 
L 305.61058 73.787485 
L 314.122838 73.787485 
L 322.635096 73.787485 
L 331.147354 73.787485 
L 339.659612 73.787485 
L 348.17187 73.787485 
L 356.684128 73.787485 
L 365.196386 73.787485 
L 373.708644 73.787485 
L 382.220902 73.787485 
L 390.73316 73.787485 
L 399.245418 73.787485 
L 407.757676 73.787485 
L 416.269934 73.787485 
L 424.782192 73.787485 
L 433.29445 73.787485 
L 441.806708 73.787485 
L 450.318966 73.787485 
L 458.831224 73.787485 
L 467.343482 73.787485 
L 475.85574 73.787485 
L 484.367998 73.787485 
L 492.880256 73.787485 
L 501.392514 73.787485 
L 509.904772 73.787485 
L 518.41703 73.787485 
L 526.929288 73.787485 
L 535.441546 73.787485 
L 543.953804 73.787485 
L 552.466062 73.787485 
L 560.97832 73.787485 
L 569.490578 73.787485 
L 578.002836 73.787485 
L 586.515094 73.787485 
L 595.027352 73.787485 
L 603.53961 73.787485 
L 612.051868 73.787485 
L 620.564126 73.787485 
L 629.076384 73.787485 
L 637.588642 73.787485 
L 646.1009 73.787485 
L 654.613158 73.787485 
L 663.125416 73.787485 
L 671.637674 73.787485 
L 680.149932 73.787485 
L 688.66219 73.787485 
L 697.174448 73.787485 
L 705.686706 73.787485 
L 714.198964 73.787485 
L 722.711222 73.787485 
L 731.22348 73.787485 
L 739.735738 73.787485 
L 748.247996 73.787485 
L 756.760254 73.787485 
L 765.272512 73.787485 
L 773.78477 73.787485 
L 782.297028 73.787485 
L 790.809286 73.787485 
L 799.321544 73.787485 
L 807.833802 73.787485 
L 816.34606 73.787485 
L 824.858318 73.787485 
L 833.370576 73.787485 
L 841.882834 73.787485 
L 850.395092 73.787485 
L 858.90735 73.787485 
L 867.419608 73.787485 
L 875.931866 73.787485 
L 884.444124 73.787485 
L 892.956382 73.787485 
" clip-path="url(#pd97855836b)" style="fill: none; stroke: #393b79; stroke-width: 2; stroke-linecap: round"/>
   </g>
   <g id="line2d_38">
    <path d="M 41.730582 99.736551 
L 50.24284 99.62219 
L 58.755098 99.507755 
L 67.267356 99.393467 
L 75.779614 99.279717 
L 84.291872 99.166501 
L 92.80413 99.053817 
L 101.316388 98.941664 
L 109.828646 98.830037 
L 118.340904 98.718935 
L 126.853162 98.608354 
L 135.36542 98.498292 
L 143.877678 98.388748 
L 152.389936 98.279718 
L 160.902194 98.1712 
L 169.414452 98.06319 
L 177.92671 97.955689 
L 186.438968 97.848692 
L 194.951226 97.742197 
L 203.463484 97.6362 
L 211.975742 97.530701 
L 220.488 97.425695 
L 229.000258 97.321181 
L 237.512516 97.217157 
L 246.024774 97.11362 
L 254.537032 97.00977 
L 263.04929 96.906292 
L 271.561548 96.803297 
L 280.073806 96.700785 
L 288.586064 96.598752 
L 297.098322 96.497198 
L 305.61058 96.396119 
L 314.122838 96.295513 
L 322.635096 96.195378 
L 331.147354 96.09571 
L 339.659612 95.996508 
L 348.17187 95.89777 
L 356.684128 95.799493 
L 365.196386 95.701675 
L 373.708644 95.604314 
L 382.220902 95.507407 
L 390.73316 95.410952 
L 399.245418 95.314948 
L 407.757676 95.219391 
L 416.269934 95.124281 
L 424.782192 95.029615 
L 433.29445 94.935392 
L 441.806708 94.841607 
L 450.318966 94.748259 
L 458.831224 94.655347 
L 467.343482 94.562524 
L 475.85574 94.469659 
L 484.367998 94.377225 
L 492.880256 94.285222 
L 501.392514 94.193648 
L 509.904772 94.102502 
L 518.41703 94.011779 
L 526.929288 93.92148 
L 535.441546 93.831601 
L 543.953804 93.742141 
L 552.466062 93.653097 
L 560.97832 93.564467 
L 569.490578 93.47625 
L 578.002836 93.388443 
L 586.515094 93.301044 
L 595.027352 93.214051 
L 603.53961 93.127463 
L 612.051868 93.041277 
L 620.564126 92.955492 
L 629.076384 92.870107 
L 637.588642 92.785118 
L 646.1009 92.700524 
L 654.613158 92.616323 
L 663.125416 92.532513 
L 671.637674 92.449092 
L 680.149932 92.366058 
L 688.66219 92.28341 
L 697.174448 92.201146 
L 705.686706 92.119264 
L 714.198964 92.037384 
L 722.711222 91.955538 
L 731.22348 91.874071 
L 739.735738 91.792983 
L 748.247996 91.71227 
L 756.760254 91.631933 
L 765.272512 91.551968 
L 773.78477 91.472373 
L 782.297028 91.393148 
L 790.809286 91.314289 
L 799.321544 91.235796 
L 807.833802 91.157667 
L 816.34606 91.079899 
L 824.858318 91.002492 
L 833.370576 90.925443 
L 841.882834 90.848751 
L 850.395092 90.772414 
L 858.90735 90.696431 
L 867.419608 90.620799 
L 875.931866 90.545517 
L 884.444124 90.470583 
L 892.956382 90.395997 
" clip-path="url(#pd97855836b)" style="fill: none; stroke: #6b6ecf; stroke-width: 2; stroke-linecap: round"/>
   </g>
   <g id="line2d_39">
    <path d="M 41.730582 185.731967 
L 50.24284 185.307144 
L 58.755098 184.883597 
L 67.267356 184.459997 
L 75.779614 184.038642 
L 84.291872 183.619514 
L 92.80413 183.202244 
L 101.316388 182.784331 
L 109.828646 182.368659 
L 118.340904 181.955173 
L 126.853162 181.54388 
L 135.36542 181.132072 
L 143.877678 180.721907 
L 152.389936 180.313915 
L 160.902194 179.908058 
L 169.414452 179.502916 
L 177.92671 179.098157 
L 186.438968 178.695527 
L 194.951226 178.294991 
L 203.463484 177.896567 
L 211.975742 177.497204 
L 220.488 177.099822 
L 229.000258 176.70454 
L 237.512516 176.31133 
L 246.024774 175.919025 
L 254.537032 175.526801 
L 263.04929 175.136617 
L 271.561548 174.748459 
L 280.073806 174.362316 
L 288.586064 173.976164 
L 297.098322 173.590969 
L 305.61058 173.207773 
L 314.122838 172.826575 
L 322.635096 172.447365 
L 331.147354 172.067624 
L 339.659612 171.689321 
L 348.17187 171.312963 
L 356.684128 170.938532 
L 365.196386 170.566028 
L 373.708644 170.192878 
L 382.220902 169.821269 
L 390.73316 169.451555 
L 399.245418 169.083728 
L 407.757676 168.717773 
L 416.269934 168.351362 
L 424.782192 167.986257 
L 433.29445 167.623022 
L 441.806708 167.261651 
L 450.318966 166.902118 
L 458.831224 166.542752 
L 467.343482 166.183996 
L 475.85574 165.82707 
L 484.367998 165.47195 
L 492.880256 165.118644 
L 501.392514 164.766519 
L 509.904772 164.413961 
L 518.41703 164.063198 
L 526.929288 163.714213 
L 535.441546 163.367002 
L 543.953804 163.021535 
L 552.466062 162.675849 
L 560.97832 162.331092 
L 569.490578 161.988058 
L 578.002836 161.646741 
L 586.515094 161.30716 
L 595.027352 160.969211 
L 603.53961 160.6303 
L 612.051868 160.293091 
L 620.564126 159.957573 
L 629.076384 159.623735 
L 637.588642 159.291561 
L 646.1009 158.96054 
L 654.613158 158.629003 
L 663.125416 158.299129 
L 671.637674 157.970905 
L 680.149932 157.644317 
L 688.66219 157.319354 
L 697.174448 156.995535 
L 705.686706 156.671173 
L 714.198964 156.348428 
L 722.711222 156.027282 
L 731.22348 155.707726 
L 739.735738 155.389747 
L 748.247996 155.073337 
L 756.760254 154.755959 
L 765.272512 154.440138 
L 773.78477 154.125888 
L 782.297028 153.813181 
L 790.809286 153.502008 
L 799.321544 153.192361 
L 807.833802 152.882752 
L 816.34606 152.57361 
L 824.858318 152.265996 
L 833.370576 151.959902 
L 841.882834 151.655319 
L 850.395092 151.352242 
L 858.90735 151.050645 
L 867.419608 150.748094 
L 875.931866 150.44697 
L 884.444124 150.147328 
L 892.956382 149.84915 
" clip-path="url(#pd97855836b)" style="fill: none; stroke: #637939; stroke-width: 2; stroke-linecap: round"/>
   </g>
   <g id="line2d_40">
    <path d="M 41.730582 263.672037 
L 50.24284 263.009854 
L 58.755098 262.348029 
L 67.267356 261.689642 
L 75.779614 261.031425 
L 84.291872 260.376258 
L 92.80413 259.722139 
L 101.316388 259.0704 
L 109.828646 258.420267 
L 118.340904 257.771889 
L 126.853162 257.125754 
L 135.36542 256.480725 
L 143.877678 255.838494 
L 152.389936 255.196937 
L 160.902194 254.558482 
L 169.414452 253.920424 
L 177.92671 253.285744 
L 186.438968 252.65119 
L 194.951226 252.020219 
L 203.463484 251.389212 
L 211.975742 250.761852 
L 220.488 250.134545 
L 229.000258 249.510744 
L 237.512516 248.887099 
L 246.024774 248.266843 
L 254.537032 247.64696 
L 263.04929 247.030095 
L 271.561548 246.413995 
L 280.073806 245.800565 
L 288.586064 245.188255 
L 297.098322 244.578174 
L 305.61058 243.969833 
L 314.122838 243.362987 
L 322.635096 242.75866 
L 331.147354 242.155074 
L 339.659612 241.554793 
L 348.17187 240.954371 
L 356.684128 240.357644 
L 365.196386 239.760854 
L 373.708644 239.167207 
L 382.220902 238.574709 
L 390.73316 237.984091 
L 399.245418 237.395706 
L 407.757676 236.80809 
L 416.269934 236.224021 
L 424.782192 235.639379 
L 433.29445 235.058238 
L 441.806708 234.477999 
L 450.318966 233.899722 
L 458.831224 233.323936 
L 467.343482 232.748475 
L 475.85574 232.176449 
L 484.367998 231.604533 
L 492.880256 231.035245 
L 501.392514 230.468005 
L 509.904772 229.90138 
L 518.41703 229.338151 
L 526.929288 228.774927 
L 535.441546 228.214333 
L 543.953804 227.655876 
L 552.466062 227.097814 
L 560.97832 226.543119 
L 569.490578 225.988819 
L 578.002836 225.436571 
L 586.515094 224.887207 
L 595.027352 224.337485 
L 603.53961 223.790976 
L 612.051868 223.245917 
L 620.564126 222.701785 
L 629.076384 222.160843 
L 637.588642 221.620164 
L 646.1009 221.081548 
L 654.613158 220.546062 
L 663.125416 220.009847 
L 671.637674 219.476644 
L 680.149932 218.945806 
L 688.66219 218.414825 
L 697.174448 217.886939 
L 705.686706 217.360745 
L 714.198964 216.835005 
L 722.711222 216.312293 
L 731.22348 215.790858 
L 739.735738 215.270276 
L 748.247996 214.752623 
L 756.760254 214.23592 
L 765.272512 213.720443 
L 773.78477 213.207881 
L 782.297028 212.696147 
L 790.809286 212.185551 
L 799.321544 211.677864 
L 807.833802 211.171126 
L 816.34606 210.665395 
L 824.858318 210.162504 
L 833.370576 209.6609 
L 841.882834 209.159948 
L 850.395092 208.661811 
L 858.90735 208.165454 
L 867.419608 207.669135 
L 875.931866 207.175648 
L 884.444124 206.684666 
L 892.956382 206.19294 
" clip-path="url(#pd97855836b)" style="fill: none; stroke: #b5cf6b; stroke-width: 2; stroke-linecap: round"/>
   </g>
   <g id="line2d_41">
    <path d="M 41.730582 392.283715 
L 50.24284 391.38952 
L 58.755098 390.495887 
L 67.267356 389.602795 
L 75.779614 388.71026 
L 84.291872 387.818231 
L 92.80413 386.926897 
L 101.316388 386.03617 
L 109.828646 385.146028 
L 118.340904 384.256587 
L 126.853162 383.3678 
L 135.36542 382.479754 
L 143.877678 381.592419 
L 152.389936 380.705872 
L 160.902194 379.82012 
L 169.414452 378.935253 
L 177.92671 378.050812 
L 186.438968 377.167294 
L 194.951226 376.284701 
L 203.463484 375.403069 
L 211.975742 374.522323 
L 220.488 373.642169 
L 229.000258 372.763086 
L 237.512516 371.885192 
L 246.024774 371.007872 
L 254.537032 370.131617 
L 263.04929 369.256554 
L 271.561548 368.38215 
L 280.073806 367.508893 
L 288.586064 366.636917 
L 297.098322 365.765468 
L 305.61058 364.895599 
L 314.122838 364.026363 
L 322.635096 363.158518 
L 331.147354 362.291656 
L 339.659612 361.425937 
L 348.17187 360.561368 
L 356.684128 359.697923 
L 365.196386 358.835577 
L 373.708644 357.974583 
L 382.220902 357.114556 
L 390.73316 356.256156 
L 399.245418 355.398276 
L 407.757676 354.542214 
L 416.269934 353.687038 
L 424.782192 352.833173 
L 433.29445 351.981036 
L 441.806708 351.129424 
L 450.318966 350.2795 
L 458.831224 349.431155 
L 467.343482 348.583476 
L 475.85574 347.737457 
L 484.367998 346.89311 
L 492.880256 346.049523 
L 501.392514 345.207415 
L 509.904772 344.366941 
L 518.41703 343.528001 
L 526.929288 342.689852 
L 535.441546 341.853326 
L 543.953804 341.018352 
L 552.466062 340.185017 
L 560.97832 339.352779 
L 569.490578 338.521849 
L 578.002836 337.692448 
L 586.515094 336.864639 
L 595.027352 336.038443 
L 603.53961 335.213786 
L 612.051868 334.390309 
L 620.564126 333.5682 
L 629.076384 332.747667 
L 637.588642 331.928711 
L 646.1009 331.111334 
L 654.613158 330.29549 
L 663.125416 329.481242 
L 671.637674 328.668554 
L 680.149932 327.857404 
L 688.66219 327.047834 
L 697.174448 326.239829 
L 705.686706 325.433387 
L 714.198964 324.628372 
L 722.711222 323.824957 
L 731.22348 323.023181 
L 739.735738 322.22298 
L 748.247996 321.424365 
L 756.760254 320.627419 
L 765.272512 319.832145 
L 773.78477 319.038529 
L 782.297028 318.246429 
L 790.809286 317.45588 
L 799.321544 316.666959 
L 807.833802 315.879698 
L 816.34606 315.094099 
L 824.858318 314.310135 
L 833.370576 313.527896 
L 841.882834 312.747341 
L 850.395092 311.96852 
L 858.90735 311.191418 
L 867.419608 310.416053 
L 875.931866 309.642488 
L 884.444124 308.87066 
L 892.956382 308.09997 
" clip-path="url(#pd97855836b)" style="fill: none; stroke: #8c6d31; stroke-width: 2; stroke-linecap: round"/>
   </g>
   <g id="line2d_42">
    <path d="M 41.730582 471.148013 
L 50.24284 470.348234 
L 58.755098 469.54535 
L 67.267356 468.739449 
L 75.779614 467.930504 
L 84.291872 467.11862 
L 92.80413 466.303945 
L 101.316388 465.486438 
L 109.828646 464.66614 
L 118.340904 463.843184 
L 126.853162 463.017618 
L 135.36542 462.18947 
L 143.877678 461.358826 
L 152.389936 460.525676 
L 160.902194 459.690142 
L 169.414452 458.852289 
L 177.92671 458.012113 
L 186.438968 457.169733 
L 194.951226 456.325182 
L 203.463484 455.478446 
L 211.975742 454.629635 
L 220.488 453.778855 
L 229.000258 452.926056 
L 237.512516 452.071336 
L 246.024774 451.214743 
L 254.537032 450.356395 
L 263.04929 449.496177 
L 271.561548 448.634262 
L 280.073806 447.770665 
L 288.586064 446.905418 
L 297.098322 446.03865 
L 305.61058 445.170327 
L 314.122838 444.300446 
L 322.635096 443.429251 
L 331.147354 442.556522 
L 339.659612 441.682509 
L 348.17187 440.807225 
L 356.684128 439.930548 
L 365.196386 439.052683 
L 373.708644 438.17368 
L 382.220902 437.293567 
L 390.73316 436.412312 
L 399.245418 435.52997 
L 407.757676 434.646635 
L 416.269934 433.762323 
L 424.782192 432.877123 
L 433.29445 431.991001 
L 441.806708 431.10395 
L 450.318966 430.216175 
L 458.831224 429.327568 
L 467.343482 428.438221 
L 475.85574 427.548194 
L 484.367998 426.65748 
L 492.880256 425.766103 
L 501.392514 424.874263 
L 509.904772 423.981665 
L 518.41703 423.088602 
L 526.929288 422.195135 
L 535.441546 421.301237 
L 543.953804 420.406843 
L 552.466062 419.512023 
L 560.97832 418.616856 
L 569.490578 417.721405 
L 578.002836 416.825633 
L 586.515094 415.929634 
L 595.027352 415.033467 
L 603.53961 414.136963 
L 612.051868 413.24029 
L 620.564126 412.343516 
L 629.076384 411.446706 
L 637.588642 410.549935 
L 646.1009 409.652826 
L 654.613158 408.755819 
L 663.125416 407.859031 
L 671.637674 406.961947 
L 680.149932 406.065168 
L 688.66219 405.168353 
L 697.174448 404.271766 
L 705.686706 403.375261 
L 714.198964 402.479046 
L 722.711222 401.582845 
L 731.22348 400.687196 
L 739.735738 399.791429 
L 748.247996 398.896077 
L 756.760254 398.001249 
L 765.272512 397.106424 
L 773.78477 396.212099 
L 782.297028 395.318249 
L 790.809286 394.424877 
L 799.321544 393.531633 
L 807.833802 392.638916 
L 816.34606 391.746723 
L 824.858318 390.855048 
L 833.370576 389.963946 
L 841.882834 389.073376 
L 850.395092 388.183384 
L 858.90735 387.293959 
L 867.419608 386.405118 
L 875.931866 385.516917 
L 884.444124 384.629328 
L 892.956382 383.742406 
" clip-path="url(#pd97855836b)" style="fill: none; stroke: #e7cb94; stroke-width: 2; stroke-linecap: round"/>
   </g>
   <g id="line2d_43">
    <path d="M 41.730582 498.776435 
L 50.24284 498.15129 
L 58.755098 497.52009 
L 67.267356 496.882906 
L 75.779614 496.239847 
L 84.291872 495.59095 
L 92.80413 494.936389 
L 101.316388 494.276218 
L 109.828646 493.610513 
L 118.340904 492.939376 
L 126.853162 492.26287 
L 135.36542 491.581121 
L 143.877678 490.894162 
L 152.389936 490.20213 
L 160.902194 489.505062 
L 169.414452 488.803069 
L 177.92671 488.09622 
L 186.438968 487.38461 
L 194.951226 486.668277 
L 203.463484 485.947352 
L 211.975742 485.221879 
L 220.488 484.491953 
L 229.000258 483.757635 
L 237.512516 483.019027 
L 246.024774 482.276166 
L 254.537032 481.529206 
L 263.04929 480.77807 
L 271.561548 480.022976 
L 280.073806 479.263937 
L 288.586064 478.500999 
L 297.098322 477.734304 
L 305.61058 476.96385 
L 314.122838 476.189741 
L 322.635096 475.412053 
L 331.147354 474.630844 
L 339.659612 473.846192 
L 348.17187 473.058106 
L 356.684128 472.266708 
L 365.196386 471.472044 
L 373.708644 470.674195 
L 382.220902 469.873236 
L 390.73316 469.069216 
L 399.245418 468.262099 
L 407.757676 467.452111 
L 416.269934 466.639228 
L 424.782192 465.823495 
L 433.29445 465.005019 
L 441.806708 464.183809 
L 450.318966 463.359948 
L 458.831224 462.533562 
L 467.343482 461.704561 
L 475.85574 460.873128 
L 484.367998 460.039302 
L 492.880256 459.203076 
L 501.392514 458.364537 
L 509.904772 457.523737 
L 518.41703 456.68071 
L 526.929288 455.835573 
L 535.441546 454.988407 
L 543.953804 454.139037 
L 552.466062 453.287822 
L 560.97832 452.434572 
L 569.490578 451.579461 
L 578.002836 450.722492 
L 586.515094 449.863742 
L 595.027352 449.003266 
L 603.53961 448.141074 
L 612.051868 447.27724 
L 620.564126 446.411837 
L 629.076384 445.544846 
L 637.588642 444.676313 
L 646.1009 443.806445 
L 654.613158 442.934964 
L 663.125416 442.062269 
L 671.637674 441.188189 
L 680.149932 440.312778 
L 688.66219 439.436185 
L 697.174448 438.558416 
L 705.686706 437.679494 
L 714.198964 436.799433 
L 722.711222 435.918272 
L 731.22348 435.036087 
L 739.735738 434.152875 
L 748.247996 433.268705 
L 756.760254 432.383689 
L 765.272512 431.497861 
L 773.78477 430.611054 
L 782.297028 429.723569 
L 790.809286 428.835243 
L 799.321544 427.94622 
L 807.833802 427.056497 
L 816.34606 426.166212 
L 824.858318 425.27514 
L 833.370576 424.383653 
L 841.882834 423.491636 
L 850.395092 422.598968 
L 858.90735 421.70588 
L 867.419608 420.812381 
L 875.931866 419.918517 
L 884.444124 419.024262 
L 892.956382 418.129664 
" clip-path="url(#pd97855836b)" style="fill: none; stroke: #ad494a; stroke-width: 2; stroke-linecap: round"/>
   </g>
   <g id="line2d_44">
    <path d="M 41.730582 510.304997 
L 50.24284 509.830063 
L 58.755098 509.346912 
L 67.267356 508.855652 
L 75.779614 508.356398 
L 84.291872 507.849234 
L 92.80413 507.334329 
L 101.316388 506.811759 
L 109.828646 506.281618 
L 118.340904 505.744044 
L 126.853162 505.199116 
L 135.36542 504.646959 
L 143.877678 504.087658 
L 152.389936 503.521328 
L 160.902194 502.948062 
L 169.414452 502.367983 
L 177.92671 501.781151 
L 186.438968 501.187706 
L 194.951226 500.587722 
L 203.463484 499.981286 
L 211.975742 499.368526 
L 220.488 498.749525 
L 229.000258 498.124355 
L 237.512516 497.493152 
L 246.024774 496.855956 
L 254.537032 496.212923 
L 263.04929 495.564056 
L 271.561548 494.909522 
L 280.073806 494.249385 
L 288.586064 493.583707 
L 297.098322 492.912616 
L 305.61058 492.236182 
L 314.122838 491.554475 
L 322.635096 490.867611 
L 331.147354 490.175648 
L 339.659612 489.478671 
L 348.17187 488.776778 
L 356.684128 488.070019 
L 365.196386 487.358491 
L 373.708644 486.642303 
L 382.220902 485.921503 
L 390.73316 485.196159 
L 399.245418 484.466357 
L 407.757676 483.732179 
L 416.269934 482.993705 
L 424.782192 482.250994 
L 433.29445 481.50413 
L 441.806708 480.753221 
L 450.318966 479.998275 
L 458.831224 479.239396 
L 467.343482 478.476664 
L 475.85574 477.710108 
L 484.367998 476.939856 
L 492.880256 476.165957 
L 501.392514 475.388446 
L 509.904772 474.607402 
L 518.41703 473.822937 
L 526.929288 473.035082 
L 535.441546 472.243928 
L 543.953804 471.449477 
L 552.466062 470.651846 
L 560.97832 469.851068 
L 569.490578 469.047265 
L 578.002836 468.240412 
L 586.515094 467.430664 
L 595.027352 466.617996 
L 603.53961 465.802515 
L 612.051868 464.984284 
L 620.564126 464.163358 
L 629.076384 463.339728 
L 637.588642 462.513579 
L 646.1009 461.684856 
L 654.613158 460.853698 
L 663.125416 460.020107 
L 671.637674 459.184149 
L 680.149932 458.345874 
L 688.66219 457.505377 
L 697.174448 456.662648 
L 705.686706 455.817765 
L 714.198964 454.970845 
L 722.711222 454.12181 
L 731.22348 453.270898 
L 739.735738 452.417907 
L 748.247996 451.563056 
L 756.760254 450.706403 
L 765.272512 449.847981 
L 773.78477 448.987814 
L 782.297028 448.125926 
L 790.809286 447.262383 
L 799.321544 446.397266 
L 807.833802 445.530625 
L 816.34606 444.662376 
L 824.858318 443.792782 
L 833.370576 442.921658 
L 841.882834 442.049289 
L 850.395092 441.175487 
L 858.90735 440.300421 
L 867.419608 439.424149 
L 875.931866 438.546719 
L 884.444124 437.668106 
L 892.956382 436.78837 
" clip-path="url(#pd97855836b)" style="fill: none; stroke: #e7969c; stroke-width: 2; stroke-linecap: round"/>
   </g>
   <g id="line2d_45">
    <path d="M 41.730582 515.63161 
L 50.24284 515.27316 
L 58.755098 514.90494 
L 67.267356 514.527071 
L 75.779614 514.139685 
L 84.291872 513.742884 
L 92.80413 513.33684 
L 101.316388 512.921649 
L 109.828646 512.497422 
L 118.340904 512.064302 
L 126.853162 511.622393 
L 135.36542 511.171826 
L 143.877678 510.712703 
L 152.389936 510.245153 
L 160.902194 509.769281 
L 169.414452 509.285218 
L 177.92671 508.793052 
L 186.438968 508.292925 
L 194.951226 507.784918 
L 203.463484 507.269153 
L 211.975742 506.745743 
L 220.488 506.214802 
L 229.000258 505.676417 
L 237.512516 505.130717 
L 246.024774 504.577781 
L 254.537032 504.017748 
L 263.04929 503.450664 
L 271.561548 502.876679 
L 280.073806 502.295888 
L 288.586064 501.708364 
L 297.098322 501.114234 
L 305.61058 500.51359 
L 314.122838 499.906517 
L 322.635096 499.293121 
L 331.147354 498.673498 
L 339.659612 498.047735 
L 348.17187 497.415927 
L 356.684128 496.778161 
L 365.196386 496.134535 
L 373.708644 495.485142 
L 382.220902 494.830081 
L 390.73316 494.169413 
L 399.245418 493.503223 
L 407.757676 492.831629 
L 416.269934 492.154703 
L 424.782192 491.47252 
L 433.29445 490.78519 
L 441.806708 490.092771 
L 450.318966 489.395355 
L 458.831224 488.693022 
L 467.343482 487.985872 
L 475.85574 487.273949 
L 484.367998 486.557337 
L 492.880256 485.836158 
L 501.392514 485.11044 
L 509.904772 484.380268 
L 518.41703 483.645767 
L 526.929288 482.906959 
L 535.441546 482.163949 
L 543.953804 481.416745 
L 552.466062 480.665525 
L 560.97832 479.910278 
L 569.490578 479.151132 
L 578.002836 478.388119 
L 586.515094 477.621286 
L 595.027352 476.850796 
L 603.53961 476.076647 
L 612.051868 475.298901 
L 620.564126 474.517634 
L 629.076384 473.732948 
L 637.588642 472.94487 
L 646.1009 472.153501 
L 654.613158 471.358862 
L 663.125416 470.561043 
L 671.637674 469.760109 
L 680.149932 468.956132 
L 688.66219 468.149114 
L 697.174448 467.339212 
L 705.686706 466.52645 
L 714.198964 465.710836 
L 722.711222 464.892462 
L 731.22348 464.071394 
L 739.735738 463.247687 
L 748.247996 462.421413 
L 756.760254 461.592584 
L 765.272512 460.76133 
L 773.78477 459.927697 
L 782.297028 459.091687 
L 790.809286 458.253353 
L 799.321544 457.412751 
L 807.833802 456.569974 
L 816.34606 455.725098 
L 824.858318 454.878074 
L 833.370576 454.029059 
L 841.882834 453.178024 
L 850.395092 452.32513 
L 858.90735 451.470288 
L 867.419608 450.613593 
L 875.931866 449.755151 
L 884.444124 448.894965 
L 892.956382 448.033113 
" clip-path="url(#pd97855836b)" style="fill: none; stroke: #a55194; stroke-width: 2; stroke-linecap: round"/>
   </g>
   <g id="line2d_46">
    <path d="M 41.730582 518.254761 
L 50.24284 517.984367 
L 58.755098 517.703072 
L 67.267356 517.411009 
L 75.779614 517.108317 
L 84.291872 516.795117 
L 92.80413 516.471578 
L 101.316388 516.137812 
L 109.828646 515.793947 
L 118.340904 515.440128 
L 126.853162 515.076471 
L 135.36542 514.703117 
L 143.877678 514.320179 
L 152.389936 513.927796 
L 160.902194 513.526084 
L 169.414452 513.115178 
L 177.92671 512.695183 
L 186.438968 512.26624 
L 194.951226 511.828454 
L 203.463484 511.381945 
L 211.975742 510.92684 
L 220.488 510.463258 
L 229.000258 509.991301 
L 237.512516 509.511101 
L 246.024774 509.022748 
L 254.537032 508.526394 
L 263.04929 508.022086 
L 271.561548 507.509994 
L 280.073806 506.990206 
L 288.586064 506.462818 
L 297.098322 505.927963 
L 305.61058 505.385729 
L 314.122838 504.83622 
L 322.635096 504.279554 
L 331.147354 503.715827 
L 339.659612 503.145134 
L 348.17187 502.567586 
L 356.684128 501.98327 
L 365.196386 501.392289 
L 373.708644 500.79476 
L 382.220902 500.190774 
L 390.73316 499.580403 
L 399.245418 498.963752 
L 407.757676 498.340924 
L 416.269934 497.71201 
L 424.782192 497.077102 
L 433.29445 496.436296 
L 441.806708 495.789686 
L 450.318966 495.137349 
L 458.831224 494.479371 
L 467.343482 493.815874 
L 475.85574 493.146889 
L 484.367998 492.472548 
L 492.880256 491.792917 
L 501.392514 491.108084 
L 509.904772 490.418121 
L 518.41703 489.723139 
L 526.929288 489.023212 
L 535.441546 488.318424 
L 543.953804 487.608812 
L 552.466062 486.894498 
L 560.97832 486.175561 
L 569.490578 485.452072 
L 578.002836 484.724092 
L 586.515094 483.991698 
L 595.027352 483.255024 
L 603.53961 482.514076 
L 612.051868 481.768934 
L 620.564126 481.019706 
L 629.076384 480.266437 
L 637.588642 479.509226 
L 646.1009 478.748126 
L 654.613158 477.983217 
L 663.125416 477.214533 
L 671.637674 476.442204 
L 680.149932 475.666242 
L 688.66219 474.886745 
L 697.174448 474.103795 
L 705.686706 473.317418 
L 714.198964 472.527726 
L 722.711222 471.734729 
L 731.22348 470.938545 
L 739.735738 470.13917 
L 748.247996 469.336684 
L 756.760254 468.531248 
L 765.272512 467.722798 
L 773.78477 466.911492 
L 782.297028 466.097332 
L 790.809286 465.280375 
L 799.321544 464.460684 
L 807.833802 463.638362 
L 816.34606 462.813421 
L 824.858318 461.985907 
L 833.370576 461.15592 
L 841.882834 460.323523 
L 850.395092 459.488754 
L 858.90735 458.651626 
L 867.419608 457.812212 
L 875.931866 456.970578 
L 884.444124 456.126777 
L 892.956382 455.280932 
" clip-path="url(#pd97855836b)" style="fill: none; stroke: #de9ed6; stroke-width: 2; stroke-linecap: round"/>
   </g>
   <g id="patch_3">
    <path d="M 41.730582 521.153031 
L 41.730582 51.564121 
" style="fill: none"/>
   </g>
   <g id="patch_4">
    <path d="M 935.517672 521.153031 
L 935.517672 51.564121 
" style="fill: none"/>
   </g>
   <g id="patch_5">
    <path d="M 41.730582 521.153031 
L 935.517672 521.153031 
" style="fill: none"/>
   </g>
   <g id="patch_6">
    <path d="M 41.730582 51.564121 
L 935.517672 51.564121 
" style="fill: none"/>
   </g>
   <g id="patch_7">
    <path d="M 467.343482 86.972764 
Q 467.343482 281.0048 467.343482 473.359784 
" style="fill: none; stroke: #000000; stroke-width: 1.5; stroke-linecap: round"/>
    <path d="M 470.543482 466.959784 
L 467.343482 473.359784 
L 464.143482 466.959784 
" style="fill: none; stroke: #000000; stroke-width: 1.5; stroke-linecap: round"/>
   </g>
   <g id="text_20">
    <!-- Time -->
    <g style="fill: #262626" transform="translate(488.624127 473.551602) scale(0.18 -0.18)">
     <defs>
      <path id="CMR17-54" d="M 3981 4326 
L 288 4326 
L 179 2918 
L 294 2918 
C 378 3976 467 4160 1453 4160 
C 1568 4160 1754 4160 1805 4154 
C 1926 4135 1926 4058 1926 3912 
L 1926 459 
C 1926 230 1907 160 1376 160 
L 1197 160 
L 1197 0 
C 1504 0 1824 0 2138 0 
C 2451 0 2771 0 3078 0 
L 3078 160 
L 2899 160 
C 2368 160 2349 230 2349 459 
L 2349 3912 
C 2349 4052 2349 4129 2464 4154 
C 2515 4160 2701 4160 2816 4160 
C 3795 4160 3891 3976 3974 2918 
L 4090 2918 
L 3981 4326 
z
" transform="scale(0.015625)"/>
      <path id="CMR17-69" d="M 992 3909 
C 992 4049 877 4170 730 4170 
C 589 4170 467 4056 467 3909 
C 467 3769 582 3648 730 3648 
C 870 3648 992 3763 992 3909 
z
M 243 2706 
L 243 2541 
C 602 2541 653 2502 653 2197 
L 653 427 
C 653 184 627 153 218 153 
L 218 -13 
C 371 0 646 0 806 0 
C 960 0 1222 0 1370 -13 
L 1370 153 
C 992 153 979 191 979 420 
L 979 2776 
L 243 2706 
z
" transform="scale(0.015625)"/>
      <path id="CMR17-6d" d="M 4326 1933 
C 4326 2252 4269 2790 3507 2790 
C 3072 2790 2771 2496 2656 2151 
L 2650 2151 
C 2573 2676 2195 2790 1837 2790 
C 1331 2790 1069 2400 973 2144 
L 966 2144 
L 966 2790 
L 211 2720 
L 211 2554 
C 589 2554 646 2515 646 2208 
L 646 428 
C 646 184 621 153 211 153 
L 211 -13 
C 365 0 646 0 813 0 
C 979 0 1267 0 1421 -13 
L 1421 153 
C 1011 153 986 178 986 428 
L 986 1658 
C 986 2247 1344 2688 1792 2688 
C 2266 2688 2317 2266 2317 1958 
L 2317 428 
C 2317 184 2291 153 1882 153 
L 1882 -13 
C 2035 0 2317 0 2483 0 
C 2650 0 2938 0 3091 -13 
L 3091 153 
C 2682 153 2656 178 2656 428 
L 2656 1658 
C 2656 2247 3014 2688 3462 2688 
C 3936 2688 3987 2266 3987 1958 
L 3987 428 
C 3987 184 3962 153 3552 153 
L 3552 -13 
C 3706 0 3987 0 4154 0 
C 4320 0 4608 0 4762 -13 
L 4762 153 
C 4352 153 4326 178 4326 428 
L 4326 1933 
z
" transform="scale(0.015625)"/>
      <path id="CMR17-65" d="M 2438 1472 
C 2464 1498 2464 1511 2464 1576 
C 2464 2238 2118 2816 1389 2816 
C 710 2816 173 2169 173 1383 
C 173 551 781 -64 1459 -64 
C 2176 -64 2458 607 2458 740 
C 2458 784 2419 784 2406 784 
C 2362 784 2355 771 2330 696 
C 2189 265 1837 51 1504 51 
C 1229 51 954 203 781 480 
C 582 803 582 1176 582 1472 
L 2438 1472 
z
M 589 1568 
C 634 2505 1126 2714 1382 2714 
C 1818 2714 2112 2297 2118 1568 
L 589 1568 
z
" transform="scale(0.015625)"/>
     </defs>
     <use xlink:href="#CMR17-54" transform="scale(0.996264)"/>
     <use xlink:href="#CMR17-69" transform="translate(66.509881 0) scale(0.996264)"/>
     <use xlink:href="#CMR17-6d" transform="translate(91.380939 0) scale(0.996264)"/>
     <use xlink:href="#CMR17-65" transform="translate(168.300529 0) scale(0.996264)"/>
    </g>
   </g>
   <g id="legend_1">
    <g id="line2d_47">
     <path d="M 948.117672 197.198434 
L 962.117672 197.198434 
L 976.117672 197.198434 
" style="fill: none; stroke: #393b79; stroke-width: 2; stroke-linecap: round"/>
    </g>
    <g id="text_21">
     <!-- t = 0.00 -->
     <g style="fill: #262626" transform="translate(987.317672 202.098434) scale(0.14 -0.14)">
      <defs>
       <path id="CMR17-74" d="M 966 2560 
L 1862 2560 
L 1862 2725 
L 966 2725 
L 966 3904 
L 851 3904 
C 838 3245 614 2668 70 2668 
L 70 2560 
L 627 2560 
L 627 771 
C 627 650 627 -64 1370 -64 
C 1747 -64 1965 306 1965 777 
L 1965 1140 
L 1850 1140 
L 1850 783 
C 1850 344 1677 51 1408 51 
C 1222 51 966 178 966 758 
L 966 2560 
z
" transform="scale(0.015625)"/>
       <path id="CMR17-3d" d="M 4115 2017 
C 4211 2017 4307 2017 4307 2125 
C 4307 2240 4198 2240 4090 2240 
L 512 2240 
C 403 2240 294 2240 294 2125 
C 294 2017 390 2017 486 2017 
L 4115 2017 
z
M 4090 896 
C 4198 896 4307 896 4307 1011 
C 4307 1119 4211 1119 4115 1119 
L 486 1119 
C 390 1119 294 1119 294 1011 
C 294 896 403 896 512 896 
L 4090 896 
z
" transform="scale(0.015625)"/>
       <path id="CMR17-2e" d="M 1062 261 
C 1062 420 934 522 800 522 
C 672 522 538 420 538 261 
C 538 102 666 0 800 0 
C 928 0 1062 102 1062 261 
z
" transform="scale(0.015625)"/>
      </defs>
      <use xlink:href="#CMR17-74" transform="scale(0.996264)"/>
      <use xlink:href="#CMR17-3d" transform="translate(65.356734 0) scale(0.996264)"/>
      <use xlink:href="#CMR17-30" transform="translate(167.147489 0) scale(0.996264)"/>
      <use xlink:href="#CMR17-2e" transform="translate(212.837966 0) scale(0.996264)"/>
      <use xlink:href="#CMR17-30" transform="translate(237.709025 0) scale(0.996264)"/>
      <use xlink:href="#CMR17-30" transform="translate(283.399502 0) scale(0.996264)"/>
     </g>
    </g>
    <g id="line2d_48">
     <path d="M 948.117672 216.710462 
L 962.117672 216.710462 
L 976.117672 216.710462 
" style="fill: none; stroke: #6b6ecf; stroke-width: 2; stroke-linecap: round"/>
    </g>
    <g id="text_22">
     <!-- t = 10.00 -->
     <g style="fill: #262626" transform="translate(987.317672 221.610462) scale(0.14 -0.14)">
      <use xlink:href="#CMR17-74" transform="scale(0.996264)"/>
      <use xlink:href="#CMR17-3d" transform="translate(65.356734 0) scale(0.996264)"/>
      <use xlink:href="#CMR17-31" transform="translate(167.147489 0) scale(0.996264)"/>
      <use xlink:href="#CMR17-30" transform="translate(212.837966 0) scale(0.996264)"/>
      <use xlink:href="#CMR17-2e" transform="translate(258.528443 0) scale(0.996264)"/>
      <use xlink:href="#CMR17-30" transform="translate(283.399502 0) scale(0.996264)"/>
      <use xlink:href="#CMR17-30" transform="translate(329.089979 0) scale(0.996264)"/>
     </g>
    </g>
    <g id="line2d_49">
     <path d="M 948.117672 236.222491 
L 962.117672 236.222491 
L 976.117672 236.222491 
" style="fill: none; stroke: #637939; stroke-width: 2; stroke-linecap: round"/>
    </g>
    <g id="text_23">
     <!-- t = 50.00 -->
     <g style="fill: #262626" transform="translate(987.317672 241.122491) scale(0.14 -0.14)">
      <use xlink:href="#CMR17-74" transform="scale(0.996264)"/>
      <use xlink:href="#CMR17-3d" transform="translate(65.356734 0) scale(0.996264)"/>
      <use xlink:href="#CMR17-35" transform="translate(167.147489 0) scale(0.996264)"/>
      <use xlink:href="#CMR17-30" transform="translate(212.837966 0) scale(0.996264)"/>
      <use xlink:href="#CMR17-2e" transform="translate(258.528443 0) scale(0.996264)"/>
      <use xlink:href="#CMR17-30" transform="translate(283.399502 0) scale(0.996264)"/>
      <use xlink:href="#CMR17-30" transform="translate(329.089979 0) scale(0.996264)"/>
     </g>
    </g>
    <g id="line2d_50">
     <path d="M 948.117672 255.734519 
L 962.117672 255.734519 
L 976.117672 255.734519 
" style="fill: none; stroke: #b5cf6b; stroke-width: 2; stroke-linecap: round"/>
    </g>
    <g id="text_24">
     <!-- t = 100.00 -->
     <g style="fill: #262626" transform="translate(987.317672 260.634519) scale(0.14 -0.14)">
      <use xlink:href="#CMR17-74" transform="scale(0.996264)"/>
      <use xlink:href="#CMR17-3d" transform="translate(65.356734 0) scale(0.996264)"/>
      <use xlink:href="#CMR17-31" transform="translate(167.147489 0) scale(0.996264)"/>
      <use xlink:href="#CMR17-30" transform="translate(212.837966 0) scale(0.996264)"/>
      <use xlink:href="#CMR17-30" transform="translate(258.528443 0) scale(0.996264)"/>
      <use xlink:href="#CMR17-2e" transform="translate(304.21892 0) scale(0.996264)"/>
      <use xlink:href="#CMR17-30" transform="translate(329.089979 0) scale(0.996264)"/>
      <use xlink:href="#CMR17-30" transform="translate(374.780456 0) scale(0.996264)"/>
     </g>
    </g>
    <g id="line2d_51">
     <path d="M 948.117672 275.246547 
L 962.117672 275.246547 
L 976.117672 275.246547 
" style="fill: none; stroke: #8c6d31; stroke-width: 2; stroke-linecap: round"/>
    </g>
    <g id="text_25">
     <!-- t = 250.00 -->
     <g style="fill: #262626" transform="translate(987.317672 280.146547) scale(0.14 -0.14)">
      <use xlink:href="#CMR17-74" transform="scale(0.996264)"/>
      <use xlink:href="#CMR17-3d" transform="translate(65.356734 0) scale(0.996264)"/>
      <use xlink:href="#CMR17-32" transform="translate(167.147489 0) scale(0.996264)"/>
      <use xlink:href="#CMR17-35" transform="translate(212.837966 0) scale(0.996264)"/>
      <use xlink:href="#CMR17-30" transform="translate(258.528443 0) scale(0.996264)"/>
      <use xlink:href="#CMR17-2e" transform="translate(304.21892 0) scale(0.996264)"/>
      <use xlink:href="#CMR17-30" transform="translate(329.089979 0) scale(0.996264)"/>
      <use xlink:href="#CMR17-30" transform="translate(374.780456 0) scale(0.996264)"/>
     </g>
    </g>
    <g id="line2d_52">
     <path d="M 948.117672 294.758576 
L 962.117672 294.758576 
L 976.117672 294.758576 
" style="fill: none; stroke: #e7cb94; stroke-width: 2; stroke-linecap: round"/>
    </g>
    <g id="text_26">
     <!-- t = 500.00 -->
     <g style="fill: #262626" transform="translate(987.317672 299.658576) scale(0.14 -0.14)">
      <use xlink:href="#CMR17-74" transform="scale(0.996264)"/>
      <use xlink:href="#CMR17-3d" transform="translate(65.356734 0) scale(0.996264)"/>
      <use xlink:href="#CMR17-35" transform="translate(167.147489 0) scale(0.996264)"/>
      <use xlink:href="#CMR17-30" transform="translate(212.837966 0) scale(0.996264)"/>
      <use xlink:href="#CMR17-30" transform="translate(258.528443 0) scale(0.996264)"/>
      <use xlink:href="#CMR17-2e" transform="translate(304.21892 0) scale(0.996264)"/>
      <use xlink:href="#CMR17-30" transform="translate(329.089979 0) scale(0.996264)"/>
      <use xlink:href="#CMR17-30" transform="translate(374.780456 0) scale(0.996264)"/>
     </g>
    </g>
    <g id="line2d_53">
     <path d="M 948.117672 314.270604 
L 962.117672 314.270604 
L 976.117672 314.270604 
" style="fill: none; stroke: #ad494a; stroke-width: 2; stroke-linecap: round"/>
    </g>
    <g id="text_27">
     <!-- t = 750.00 -->
     <g style="fill: #262626" transform="translate(987.317672 319.170604) scale(0.14 -0.14)">
      <use xlink:href="#CMR17-74" transform="scale(0.996264)"/>
      <use xlink:href="#CMR17-3d" transform="translate(65.356734 0) scale(0.996264)"/>
      <use xlink:href="#CMR17-37" transform="translate(167.147489 0) scale(0.996264)"/>
      <use xlink:href="#CMR17-35" transform="translate(212.837966 0) scale(0.996264)"/>
      <use xlink:href="#CMR17-30" transform="translate(258.528443 0) scale(0.996264)"/>
      <use xlink:href="#CMR17-2e" transform="translate(304.21892 0) scale(0.996264)"/>
      <use xlink:href="#CMR17-30" transform="translate(329.089979 0) scale(0.996264)"/>
      <use xlink:href="#CMR17-30" transform="translate(374.780456 0) scale(0.996264)"/>
     </g>
    </g>
    <g id="line2d_54">
     <path d="M 948.117672 333.782633 
L 962.117672 333.782633 
L 976.117672 333.782633 
" style="fill: none; stroke: #e7969c; stroke-width: 2; stroke-linecap: round"/>
    </g>
    <g id="text_28">
     <!-- t = 1000.00 -->
     <g style="fill: #262626" transform="translate(987.317672 338.682633) scale(0.14 -0.14)">
      <use xlink:href="#CMR17-74" transform="scale(0.996264)"/>
      <use xlink:href="#CMR17-3d" transform="translate(65.356734 0) scale(0.996264)"/>
      <use xlink:href="#CMR17-31" transform="translate(167.147489 0) scale(0.996264)"/>
      <use xlink:href="#CMR17-30" transform="translate(212.837966 0) scale(0.996264)"/>
      <use xlink:href="#CMR17-30" transform="translate(258.528443 0) scale(0.996264)"/>
      <use xlink:href="#CMR17-30" transform="translate(304.21892 0) scale(0.996264)"/>
      <use xlink:href="#CMR17-2e" transform="translate(349.909397 0) scale(0.996264)"/>
      <use xlink:href="#CMR17-30" transform="translate(374.780456 0) scale(0.996264)"/>
      <use xlink:href="#CMR17-30" transform="translate(420.470933 0) scale(0.996264)"/>
     </g>
    </g>
    <g id="line2d_55">
     <path d="M 948.117672 353.294661 
L 962.117672 353.294661 
L 976.117672 353.294661 
" style="fill: none; stroke: #a55194; stroke-width: 2; stroke-linecap: round"/>
    </g>
    <g id="text_29">
     <!-- t = 1250.00 -->
     <g style="fill: #262626" transform="translate(987.317672 358.194661) scale(0.14 -0.14)">
      <use xlink:href="#CMR17-74" transform="scale(0.996264)"/>
      <use xlink:href="#CMR17-3d" transform="translate(65.356734 0) scale(0.996264)"/>
      <use xlink:href="#CMR17-31" transform="translate(167.147489 0) scale(0.996264)"/>
      <use xlink:href="#CMR17-32" transform="translate(212.837966 0) scale(0.996264)"/>
      <use xlink:href="#CMR17-35" transform="translate(258.528443 0) scale(0.996264)"/>
      <use xlink:href="#CMR17-30" transform="translate(304.21892 0) scale(0.996264)"/>
      <use xlink:href="#CMR17-2e" transform="translate(349.909397 0) scale(0.996264)"/>
      <use xlink:href="#CMR17-30" transform="translate(374.780456 0) scale(0.996264)"/>
      <use xlink:href="#CMR17-30" transform="translate(420.470933 0) scale(0.996264)"/>
     </g>
    </g>
    <g id="line2d_56">
     <path d="M 948.117672 372.806689 
L 962.117672 372.806689 
L 976.117672 372.806689 
" style="fill: none; stroke: #de9ed6; stroke-width: 2; stroke-linecap: round"/>
    </g>
    <g id="text_30">
     <!-- t = 1500.00 -->
     <g style="fill: #262626" transform="translate(987.317672 377.706689) scale(0.14 -0.14)">
      <use xlink:href="#CMR17-74" transform="scale(0.996264)"/>
      <use xlink:href="#CMR17-3d" transform="translate(65.356734 0) scale(0.996264)"/>
      <use xlink:href="#CMR17-31" transform="translate(167.147489 0) scale(0.996264)"/>
      <use xlink:href="#CMR17-35" transform="translate(212.837966 0) scale(0.996264)"/>
      <use xlink:href="#CMR17-30" transform="translate(258.528443 0) scale(0.996264)"/>
      <use xlink:href="#CMR17-30" transform="translate(304.21892 0) scale(0.996264)"/>
      <use xlink:href="#CMR17-2e" transform="translate(349.909397 0) scale(0.996264)"/>
      <use xlink:href="#CMR17-30" transform="translate(374.780456 0) scale(0.996264)"/>
      <use xlink:href="#CMR17-30" transform="translate(420.470933 0) scale(0.996264)"/>
     </g>
    </g>
   </g>
  </g>
  <g id="text_31">
   <!-- adhesivity -->
   <g style="fill: #262626" transform="translate(501.333696 24.803515) scale(0.192 -0.192)">
    <defs>
     <path id="CMR17-61" d="M 2304 1653 
C 2304 2072 2304 2294 2035 2543 
C 1798 2752 1523 2816 1306 2816 
C 800 2816 435 2407 435 1971 
C 435 1728 627 1728 666 1728 
C 749 1728 896 1778 896 1954 
C 896 2112 774 2181 666 2181 
C 640 2181 608 2174 589 2168 
C 723 2592 1069 2714 1293 2714 
C 1613 2714 1965 2429 1965 1885 
L 1965 1600 
C 1587 1600 1133 1549 774 1357 
C 371 1133 256 813 256 570 
C 256 77 832 -64 1171 -64 
C 1523 -64 1850 139 1990 511 
C 2003 233 2182 -18 2464 -18 
C 2598 -18 2938 70 2938 567 
L 2938 920 
L 2822 920 
L 2822 562 
C 2822 178 2650 128 2566 128 
C 2304 128 2304 458 2304 738 
L 2304 1653 
z
M 1965 870 
C 1965 317 1568 38 1216 38 
C 896 38 646 275 646 570 
C 646 761 730 1100 1101 1305 
C 1408 1478 1760 1504 1965 1504 
L 1965 870 
z
" transform="scale(0.015625)"/>
     <path id="CMR17-64" d="M 1869 4326 
L 1869 4160 
C 2246 4160 2304 4122 2304 3820 
L 2304 2345 
C 2278 2377 2016 2790 1498 2790 
C 845 2790 211 2208 211 1364 
C 211 525 806 -64 1434 -64 
C 1978 -64 2259 337 2291 380 
L 2291 -63 
L 3066 -63 
L 3066 128 
C 2688 128 2630 166 2630 473 
L 2630 4396 
L 1869 4326 
z
M 2291 755 
C 2291 563 2176 390 2029 262 
C 1811 70 1594 38 1472 38 
C 1286 38 621 134 621 1356 
C 621 2612 1363 2688 1530 2688 
C 1824 2688 2061 2522 2208 2291 
C 2291 2157 2291 2138 2291 2023 
L 2291 755 
z
" transform="scale(0.015625)"/>
     <path id="CMR17-68" d="M 2656 1933 
C 2656 2259 2592 2790 1837 2790 
C 1312 2790 1056 2368 979 2157 
L 973 2157 
L 973 4396 
L 211 4326 
L 211 4160 
C 589 4160 646 4122 646 3817 
L 646 426 
C 646 184 621 153 211 153 
L 211 -13 
C 365 0 646 0 813 0 
C 979 0 1267 0 1421 -13 
L 1421 153 
C 1011 153 986 178 986 428 
L 986 1658 
C 986 2247 1344 2688 1792 2688 
C 2266 2688 2317 2266 2317 1958 
L 2317 428 
C 2317 184 2291 153 1882 153 
L 1882 -13 
C 2035 0 2317 0 2483 0 
C 2650 0 2938 0 3091 -13 
L 3091 153 
C 2682 153 2656 178 2656 428 
L 2656 1933 
z
" transform="scale(0.015625)"/>
     <path id="CMR17-73" d="M 1978 2697 
C 1978 2813 1971 2819 1933 2819 
C 1907 2819 1901 2813 1824 2717 
C 1805 2691 1747 2626 1728 2601 
C 1523 2819 1235 2819 1126 2819 
C 416 2819 160 2447 160 2076 
C 160 1498 813 1365 998 1325 
C 1402 1243 1542 1217 1677 1101 
C 1760 1025 1901 884 1901 654 
C 1901 384 1747 38 1158 38 
C 602 38 403 460 288 1021 
C 269 1110 269 1117 218 1117 
C 166 1117 160 1110 160 983 
L 160 63 
C 160 -51 166 -58 205 -58 
C 237 -58 243 -51 275 0 
C 314 57 410 211 448 276 
C 576 103 800 -64 1158 -64 
C 1792 -64 2131 283 2131 784 
C 2131 1112 1958 1285 1875 1362 
C 1683 1561 1459 1606 1190 1657 
C 838 1735 390 1825 390 2217 
C 390 2383 480 2737 1126 2737 
C 1811 2737 1850 2094 1862 1888 
C 1869 1856 1901 1849 1920 1849 
C 1978 1849 1978 1869 1978 1978 
L 1978 2697 
z
" transform="scale(0.015625)"/>
     <path id="CMR17-76" d="M 2502 2163 
C 2560 2304 2662 2560 3034 2560 
L 3034 2726 
C 2912 2726 2752 2726 2630 2726 
C 2496 2726 2285 2726 2157 2732 
L 2157 2566 
C 2317 2553 2406 2477 2406 2311 
C 2406 2253 2406 2240 2368 2151 
L 1664 377 
L 902 2286 
C 864 2369 864 2381 864 2407 
C 864 2560 1075 2560 1171 2560 
L 1171 2732 
C 1018 2726 736 2726 576 2726 
C 403 2726 205 2726 64 2732 
L 64 2560 
C 307 2560 442 2560 518 2362 
L 1446 44 
C 1485 -51 1491 -64 1549 -64 
C 1606 -64 1613 -51 1651 44 
L 2502 2163 
z
" transform="scale(0.015625)"/>
     <path id="CMR17-79" d="M 2496 2197 
C 2656 2586 2944 2586 3034 2586 
L 3034 2752 
C 2912 2752 2752 2752 2630 2752 
C 2496 2752 2285 2752 2157 2758 
L 2157 2592 
C 2400 2573 2406 2394 2406 2343 
C 2406 2280 2394 2248 2362 2171 
L 1664 449 
L 902 2306 
C 870 2382 870 2426 870 2433 
C 870 2573 1018 2586 1171 2586 
L 1171 2758 
C 1018 2752 742 2752 582 2752 
C 410 2752 205 2752 64 2758 
L 64 2586 
C 410 2586 448 2554 531 2350 
L 1485 15 
C 1197 -738 1030 -1178 627 -1178 
C 557 -1178 397 -1159 282 -1044 
C 429 -1031 493 -942 493 -833 
C 493 -725 416 -629 288 -629 
C 147 -629 77 -725 77 -840 
C 77 -1095 339 -1280 627 -1280 
C 998 -1280 1229 -922 1357 -604 
L 2496 2197 
z
" transform="scale(0.015625)"/>
    </defs>
    <use xlink:href="#CMR17-61" transform="scale(0.996264)"/>
    <use xlink:href="#CMR17-64" transform="translate(45.690477 0) scale(0.996264)"/>
    <use xlink:href="#CMR17-68" transform="translate(96.585847 0) scale(0.996264)"/>
    <use xlink:href="#CMR17-65" transform="translate(147.481217 0) scale(0.996264)"/>
    <use xlink:href="#CMR17-73" transform="translate(187.966877 0) scale(0.996264)"/>
    <use xlink:href="#CMR17-69" transform="translate(223.768215 0) scale(0.996264)"/>
    <use xlink:href="#CMR17-76" transform="translate(248.639273 0) scale(0.996264)"/>
    <use xlink:href="#CMR17-69" transform="translate(296.932189 0) scale(0.996264)"/>
    <use xlink:href="#CMR17-74" transform="translate(321.803248 0) scale(0.996264)"/>
    <use xlink:href="#CMR17-79" transform="translate(354.481561 0) scale(0.996264)"/>
   </g>
  </g>
 </g>
 <defs>
  <clipPath id="pd97855836b">
   <rect x="41.730582" y="51.564121" width="893.78709" height="469.58891"/>
  </clipPath>
 </defs>
</svg>
