<?xml version="1.0" encoding="utf-8" standalone="no"?>
<!DOCTYPE svg PUBLIC "-//W3C//DTD SVG 1.1//EN"
  "http://www.w3.org/Graphics/SVG/1.1/DTD/svg11.dtd">
<svg xmlns:xlink="http://www.w3.org/1999/xlink" width="1080pt" height="576pt" viewBox="0 0 1080 576" xmlns="http://www.w3.org/2000/svg" version="1.1">
 <metadata>
  <rdf:RDF xmlns:dc="http://purl.org/dc/elements/1.1/" xmlns:cc="http://creativecommons.org/ns#" xmlns:rdf="http://www.w3.org/1999/02/22-rdf-syntax-ns#">
   <cc:Work>
    <dc:type rdf:resource="http://purl.org/dc/dcmitype/StillImage"/>
    <dc:date>2024-06-28T12:12:43.598066</dc:date>
    <dc:format>image/svg+xml</dc:format>
    <dc:creator>
     <cc:Agent>
      <dc:title>Matplotlib v3.9.0, https://matplotlib.org/</dc:title>
     </cc:Agent>
    </dc:creator>
   </cc:Work>
  </rdf:RDF>
 </metadata>
 <defs>
  <style type="text/css">*{stroke-linejoin: round; stroke-linecap: butt}</style>
 </defs>
 <g id="figure_1">
  <g id="patch_1">
   <path d="M 0 576 
L 1080 576 
L 1080 0 
L 0 0 
z
" style="fill: #ffffff"/>
  </g>
  <g id="axes_1">
   <g id="patch_2">
    <path d="M 41.730582 521.153031 
L 935.517672 521.153031 
L 935.517672 51.564121 
L 41.730582 51.564121 
z
" style="fill: #eaeaf2"/>
   </g>
   <g id="matplotlib.axis_1">
    <g id="xtick_1">
     <g id="line2d_1">
      <path d="M 41.730582 521.153031 
L 41.730582 51.564121 
" clip-path="url(#p05df66428e)" style="fill: none; stroke: #ffffff; stroke-linecap: round"/>
     </g>
     <g id="line2d_2"/>
     <g id="text_1">
      <!-- $\mathdefault{0.00}$ -->
      <g style="fill: #262626" transform="translate(29.591047 537.838907) scale(0.14 -0.14)">
       <defs>
        <path id="CMR17-30" d="M 2688 2025 
C 2688 2416 2682 3080 2413 3591 
C 2176 4039 1798 4198 1466 4198 
C 1158 4198 768 4058 525 3597 
C 269 3118 243 2524 243 2025 
C 243 1661 250 1106 448 619 
C 723 -39 1216 -128 1466 -128 
C 1760 -128 2208 -7 2470 600 
C 2662 1042 2688 1559 2688 2025 
z
M 1466 -26 
C 1056 -26 813 325 723 812 
C 653 1188 653 1738 653 2096 
C 653 2588 653 2997 736 3387 
C 858 3929 1216 4096 1466 4096 
C 1728 4096 2067 3923 2189 3400 
C 2272 3036 2278 2607 2278 2096 
C 2278 1680 2278 1169 2202 792 
C 2067 95 1690 -26 1466 -26 
z
" transform="scale(0.015625)"/>
        <path id="CMMI12-3a" d="M 1178 307 
C 1178 492 1024 619 870 619 
C 685 619 557 466 557 313 
C 557 128 710 0 864 0 
C 1050 0 1178 153 1178 307 
z
" transform="scale(0.015625)"/>
       </defs>
       <use xlink:href="#CMR17-30" transform="scale(0.996264)"/>
       <use xlink:href="#CMMI12-3a" transform="translate(45.690477 0) scale(0.996264)"/>
       <use xlink:href="#CMR17-30" transform="translate(72.787654 0) scale(0.996264)"/>
       <use xlink:href="#CMR17-30" transform="translate(118.478131 0) scale(0.996264)"/>
      </g>
     </g>
    </g>
    <g id="xtick_2">
     <g id="line2d_3">
      <path d="M 148.133807 521.153031 
L 148.133807 51.564121 
" clip-path="url(#p05df66428e)" style="fill: none; stroke: #ffffff; stroke-linecap: round"/>
     </g>
     <g id="line2d_4"/>
     <g id="text_2">
      <!-- $\mathdefault{0.25}$ -->
      <g style="fill: #262626" transform="translate(135.994272 537.838907) scale(0.14 -0.14)">
       <defs>
        <path id="CMR17-32" d="M 2669 989 
L 2554 989 
C 2490 536 2438 459 2413 420 
C 2381 369 1920 369 1830 369 
L 602 369 
C 832 619 1280 1072 1824 1597 
C 2214 1967 2669 2402 2669 3035 
C 2669 3790 2067 4224 1395 4224 
C 691 4224 262 3604 262 3030 
C 262 2780 448 2748 525 2748 
C 589 2748 781 2787 781 3010 
C 781 3207 614 3264 525 3264 
C 486 3264 448 3258 422 3245 
C 544 3790 915 4058 1306 4058 
C 1862 4058 2227 3617 2227 3035 
C 2227 2479 1901 2000 1536 1584 
L 262 146 
L 262 0 
L 2515 0 
L 2669 989 
z
" transform="scale(0.015625)"/>
        <path id="CMR17-35" d="M 730 3692 
C 794 3666 1056 3584 1325 3584 
C 1920 3584 2246 3911 2432 4100 
C 2432 4157 2432 4192 2394 4192 
C 2387 4192 2374 4192 2323 4163 
C 2099 4058 1837 3973 1517 3973 
C 1325 3973 1037 3999 723 4139 
C 653 4171 640 4171 634 4171 
C 602 4171 595 4164 595 4037 
L 595 2203 
C 595 2089 595 2057 659 2057 
C 691 2057 704 2070 736 2114 
C 941 2401 1222 2522 1542 2522 
C 1766 2522 2246 2382 2246 1289 
C 2246 1085 2246 715 2054 421 
C 1894 159 1645 25 1370 25 
C 947 25 518 320 403 814 
C 429 807 480 795 506 795 
C 589 795 749 840 749 1038 
C 749 1210 627 1280 506 1280 
C 358 1280 262 1190 262 1011 
C 262 454 704 -128 1382 -128 
C 2042 -128 2669 440 2669 1264 
C 2669 2030 2170 2624 1549 2624 
C 1222 2624 947 2503 730 2274 
L 730 3692 
z
" transform="scale(0.015625)"/>
       </defs>
       <use xlink:href="#CMR17-30" transform="scale(0.996264)"/>
       <use xlink:href="#CMMI12-3a" transform="translate(45.690477 0) scale(0.996264)"/>
       <use xlink:href="#CMR17-32" transform="translate(72.787654 0) scale(0.996264)"/>
       <use xlink:href="#CMR17-35" transform="translate(118.478131 0) scale(0.996264)"/>
      </g>
     </g>
    </g>
    <g id="xtick_3">
     <g id="line2d_5">
      <path d="M 254.537032 521.153031 
L 254.537032 51.564121 
" clip-path="url(#p05df66428e)" style="fill: none; stroke: #ffffff; stroke-linecap: round"/>
     </g>
     <g id="line2d_6"/>
     <g id="text_3">
      <!-- $\mathdefault{0.50}$ -->
      <g style="fill: #262626" transform="translate(242.397497 537.838907) scale(0.14 -0.14)">
       <use xlink:href="#CMR17-30" transform="scale(0.996264)"/>
       <use xlink:href="#CMMI12-3a" transform="translate(45.690477 0) scale(0.996264)"/>
       <use xlink:href="#CMR17-35" transform="translate(72.787654 0) scale(0.996264)"/>
       <use xlink:href="#CMR17-30" transform="translate(118.478131 0) scale(0.996264)"/>
      </g>
     </g>
    </g>
    <g id="xtick_4">
     <g id="line2d_7">
      <path d="M 360.940257 521.153031 
L 360.940257 51.564121 
" clip-path="url(#p05df66428e)" style="fill: none; stroke: #ffffff; stroke-linecap: round"/>
     </g>
     <g id="line2d_8"/>
     <g id="text_4">
      <!-- $\mathdefault{0.75}$ -->
      <g style="fill: #262626" transform="translate(348.800722 537.838907) scale(0.14 -0.14)">
       <defs>
        <path id="CMR17-37" d="M 2886 3941 
L 2886 4081 
L 1382 4081 
C 634 4081 621 4165 595 4288 
L 480 4288 
L 294 3094 
L 410 3094 
C 429 3215 474 3540 550 3661 
C 589 3712 1062 3712 1171 3712 
L 2579 3712 
L 1869 2661 
C 1395 1954 1069 999 1069 165 
C 1069 89 1069 -128 1299 -128 
C 1530 -128 1530 89 1530 171 
L 1530 465 
C 1530 1508 1709 2196 2003 2636 
L 2886 3941 
z
" transform="scale(0.015625)"/>
       </defs>
       <use xlink:href="#CMR17-30" transform="scale(0.996264)"/>
       <use xlink:href="#CMMI12-3a" transform="translate(45.690477 0) scale(0.996264)"/>
       <use xlink:href="#CMR17-37" transform="translate(72.787654 0) scale(0.996264)"/>
       <use xlink:href="#CMR17-35" transform="translate(118.478131 0) scale(0.996264)"/>
      </g>
     </g>
    </g>
    <g id="xtick_5">
     <g id="line2d_9">
      <path d="M 467.343482 521.153031 
L 467.343482 51.564121 
" clip-path="url(#p05df66428e)" style="fill: none; stroke: #ffffff; stroke-linecap: round"/>
     </g>
     <g id="line2d_10"/>
     <g id="text_5">
      <!-- $\mathdefault{1.00}$ -->
      <g style="fill: #262626" transform="translate(455.203947 537.838907) scale(0.14 -0.14)">
       <defs>
        <path id="CMR17-31" d="M 1702 4058 
C 1702 4192 1696 4192 1606 4192 
C 1357 3916 979 3827 621 3827 
C 602 3827 570 3827 563 3808 
C 557 3795 557 3782 557 3648 
C 755 3648 1088 3686 1344 3839 
L 1344 461 
C 1344 236 1331 160 781 160 
L 589 160 
L 589 0 
C 896 0 1216 0 1523 0 
C 1830 0 2150 0 2458 0 
L 2458 160 
L 2266 160 
C 1715 160 1702 230 1702 458 
L 1702 4058 
z
" transform="scale(0.015625)"/>
       </defs>
       <use xlink:href="#CMR17-31" transform="scale(0.996264)"/>
       <use xlink:href="#CMMI12-3a" transform="translate(45.690477 0) scale(0.996264)"/>
       <use xlink:href="#CMR17-30" transform="translate(72.787654 0) scale(0.996264)"/>
       <use xlink:href="#CMR17-30" transform="translate(118.478131 0) scale(0.996264)"/>
      </g>
     </g>
    </g>
    <g id="xtick_6">
     <g id="line2d_11">
      <path d="M 573.746707 521.153031 
L 573.746707 51.564121 
" clip-path="url(#p05df66428e)" style="fill: none; stroke: #ffffff; stroke-linecap: round"/>
     </g>
     <g id="line2d_12"/>
     <g id="text_6">
      <!-- $\mathdefault{1.25}$ -->
      <g style="fill: #262626" transform="translate(561.607172 537.838907) scale(0.14 -0.14)">
       <use xlink:href="#CMR17-31" transform="scale(0.996264)"/>
       <use xlink:href="#CMMI12-3a" transform="translate(45.690477 0) scale(0.996264)"/>
       <use xlink:href="#CMR17-32" transform="translate(72.787654 0) scale(0.996264)"/>
       <use xlink:href="#CMR17-35" transform="translate(118.478131 0) scale(0.996264)"/>
      </g>
     </g>
    </g>
    <g id="xtick_7">
     <g id="line2d_13">
      <path d="M 680.149932 521.153031 
L 680.149932 51.564121 
" clip-path="url(#p05df66428e)" style="fill: none; stroke: #ffffff; stroke-linecap: round"/>
     </g>
     <g id="line2d_14"/>
     <g id="text_7">
      <!-- $\mathdefault{1.50}$ -->
      <g style="fill: #262626" transform="translate(668.010397 537.838907) scale(0.14 -0.14)">
       <use xlink:href="#CMR17-31" transform="scale(0.996264)"/>
       <use xlink:href="#CMMI12-3a" transform="translate(45.690477 0) scale(0.996264)"/>
       <use xlink:href="#CMR17-35" transform="translate(72.787654 0) scale(0.996264)"/>
       <use xlink:href="#CMR17-30" transform="translate(118.478131 0) scale(0.996264)"/>
      </g>
     </g>
    </g>
    <g id="xtick_8">
     <g id="line2d_15">
      <path d="M 786.553157 521.153031 
L 786.553157 51.564121 
" clip-path="url(#p05df66428e)" style="fill: none; stroke: #ffffff; stroke-linecap: round"/>
     </g>
     <g id="line2d_16"/>
     <g id="text_8">
      <!-- $\mathdefault{1.75}$ -->
      <g style="fill: #262626" transform="translate(774.413622 537.838907) scale(0.14 -0.14)">
       <use xlink:href="#CMR17-31" transform="scale(0.996264)"/>
       <use xlink:href="#CMMI12-3a" transform="translate(45.690477 0) scale(0.996264)"/>
       <use xlink:href="#CMR17-37" transform="translate(72.787654 0) scale(0.996264)"/>
       <use xlink:href="#CMR17-35" transform="translate(118.478131 0) scale(0.996264)"/>
      </g>
     </g>
    </g>
    <g id="xtick_9">
     <g id="line2d_17">
      <path d="M 892.956382 521.153031 
L 892.956382 51.564121 
" clip-path="url(#p05df66428e)" style="fill: none; stroke: #ffffff; stroke-linecap: round"/>
     </g>
     <g id="line2d_18"/>
     <g id="text_9">
      <!-- $\mathdefault{2.00}$ -->
      <g style="fill: #262626" transform="translate(880.816846 537.838907) scale(0.14 -0.14)">
       <use xlink:href="#CMR17-32" transform="scale(0.996264)"/>
       <use xlink:href="#CMMI12-3a" transform="translate(45.690477 0) scale(0.996264)"/>
       <use xlink:href="#CMR17-30" transform="translate(72.787654 0) scale(0.996264)"/>
       <use xlink:href="#CMR17-30" transform="translate(118.478131 0) scale(0.996264)"/>
      </g>
     </g>
    </g>
    <g id="text_10">
     <!-- $x$ -->
     <g style="fill: #262626" transform="translate(484.189402 555.620524) scale(0.16 -0.16)">
      <defs>
       <path id="CMMI12-78" d="M 3034 2606 
C 2829 2567 2752 2414 2752 2293 
C 2752 2139 2874 2088 2963 2088 
C 3155 2088 3290 2254 3290 2427 
C 3290 2695 2982 2816 2714 2816 
C 2323 2816 2106 2433 2048 2312 
C 1901 2816 1504 2816 1389 2816 
C 736 2816 390 1980 390 1839 
C 390 1814 416 1782 461 1782 
C 512 1782 525 1820 538 1846 
C 755 2555 1184 2689 1370 2689 
C 1658 2689 1715 2420 1715 2267 
C 1715 2127 1677 1980 1600 1673 
L 1382 798 
C 1286 415 1101 64 762 64 
C 730 64 570 64 435 147 
C 666 192 717 383 717 460 
C 717 588 621 664 499 664 
C 346 664 179 530 179 326 
C 179 57 480 -64 755 -64 
C 1062 -64 1280 179 1414 441 
C 1517 64 1837 -64 2074 -64 
C 2726 -64 3072 773 3072 913 
C 3072 945 3046 971 3008 971 
C 2950 971 2944 939 2925 888 
C 2752 326 2381 64 2093 64 
C 1869 64 1747 230 1747 492 
C 1747 632 1773 734 1875 1156 
L 2099 2024 
C 2195 2408 2413 2689 2707 2689 
C 2720 2689 2899 2689 3034 2606 
z
" transform="scale(0.015625)"/>
      </defs>
      <use xlink:href="#CMMI12-78" transform="scale(0.996264)"/>
     </g>
    </g>
   </g>
   <g id="matplotlib.axis_2">
    <g id="ytick_1">
     <g id="line2d_19">
      <path d="M 41.730582 521.153031 
L 935.517672 521.153031 
" clip-path="url(#p05df66428e)" style="fill: none; stroke: #ffffff; stroke-linecap: round"/>
     </g>
     <g id="line2d_20"/>
     <g id="text_11">
      <!-- $\mathdefault{0.0}$ -->
      <g style="fill: #262626" transform="translate(17.28 525.995969) scale(0.14 -0.14)">
       <use xlink:href="#CMR17-30" transform="scale(0.996264)"/>
       <use xlink:href="#CMMI12-3a" transform="translate(45.690477 0) scale(0.996264)"/>
       <use xlink:href="#CMR17-30" transform="translate(72.787654 0) scale(0.996264)"/>
      </g>
     </g>
    </g>
    <g id="ytick_2">
     <g id="line2d_21">
      <path d="M 41.730582 465.262288 
L 935.517672 465.262288 
" clip-path="url(#p05df66428e)" style="fill: none; stroke: #ffffff; stroke-linecap: round"/>
     </g>
     <g id="line2d_22"/>
     <g id="text_12">
      <!-- $\mathdefault{0.1}$ -->
      <g style="fill: #262626" transform="translate(17.28 470.105227) scale(0.14 -0.14)">
       <use xlink:href="#CMR17-30" transform="scale(0.996264)"/>
       <use xlink:href="#CMMI12-3a" transform="translate(45.690477 0) scale(0.996264)"/>
       <use xlink:href="#CMR17-31" transform="translate(72.787654 0) scale(0.996264)"/>
      </g>
     </g>
    </g>
    <g id="ytick_3">
     <g id="line2d_23">
      <path d="M 41.730582 409.371546 
L 935.517672 409.371546 
" clip-path="url(#p05df66428e)" style="fill: none; stroke: #ffffff; stroke-linecap: round"/>
     </g>
     <g id="line2d_24"/>
     <g id="text_13">
      <!-- $\mathdefault{0.2}$ -->
      <g style="fill: #262626" transform="translate(17.28 414.214484) scale(0.14 -0.14)">
       <use xlink:href="#CMR17-30" transform="scale(0.996264)"/>
       <use xlink:href="#CMMI12-3a" transform="translate(45.690477 0) scale(0.996264)"/>
       <use xlink:href="#CMR17-32" transform="translate(72.787654 0) scale(0.996264)"/>
      </g>
     </g>
    </g>
    <g id="ytick_4">
     <g id="line2d_25">
      <path d="M 41.730582 353.480804 
L 935.517672 353.480804 
" clip-path="url(#p05df66428e)" style="fill: none; stroke: #ffffff; stroke-linecap: round"/>
     </g>
     <g id="line2d_26"/>
     <g id="text_14">
      <!-- $\mathdefault{0.3}$ -->
      <g style="fill: #262626" transform="translate(17.28 358.323742) scale(0.14 -0.14)">
       <defs>
        <path id="CMR17-33" d="M 1414 2157 
C 1984 2157 2234 1662 2234 1090 
C 2234 320 1824 25 1453 25 
C 1114 25 563 194 390 693 
C 422 680 454 680 486 680 
C 640 680 755 782 755 948 
C 755 1133 614 1216 486 1216 
C 378 1216 211 1165 211 926 
C 211 335 787 -128 1466 -128 
C 2176 -128 2720 430 2720 1085 
C 2720 1707 2208 2157 1600 2227 
C 2086 2328 2554 2756 2554 3329 
C 2554 3820 2048 4179 1472 4179 
C 890 4179 378 3829 378 3329 
C 378 3110 544 3072 627 3072 
C 762 3072 877 3155 877 3321 
C 877 3486 762 3569 627 3569 
C 602 3569 570 3569 544 3557 
C 730 3959 1235 4032 1459 4032 
C 1683 4032 2106 3925 2106 3320 
C 2106 3143 2080 2828 1862 2550 
C 1670 2304 1453 2304 1242 2284 
C 1210 2284 1062 2269 1037 2269 
C 992 2263 966 2257 966 2208 
C 966 2163 973 2157 1101 2157 
L 1414 2157 
z
" transform="scale(0.015625)"/>
       </defs>
       <use xlink:href="#CMR17-30" transform="scale(0.996264)"/>
       <use xlink:href="#CMMI12-3a" transform="translate(45.690477 0) scale(0.996264)"/>
       <use xlink:href="#CMR17-33" transform="translate(72.787654 0) scale(0.996264)"/>
      </g>
     </g>
    </g>
    <g id="ytick_5">
     <g id="line2d_27">
      <path d="M 41.730582 297.590061 
L 935.517672 297.590061 
" clip-path="url(#p05df66428e)" style="fill: none; stroke: #ffffff; stroke-linecap: round"/>
     </g>
     <g id="line2d_28"/>
     <g id="text_15">
      <!-- $\mathdefault{0.4}$ -->
      <g style="fill: #262626" transform="translate(17.28 302.432999) scale(0.14 -0.14)">
       <defs>
        <path id="CMR17-34" d="M 2150 4122 
C 2150 4256 2144 4256 2029 4256 
L 128 1254 
L 128 1088 
L 1779 1088 
L 1779 457 
C 1779 224 1766 160 1318 160 
L 1197 160 
L 1197 0 
C 1402 0 1747 0 1965 0 
C 2182 0 2528 0 2733 0 
L 2733 160 
L 2611 160 
C 2163 160 2150 224 2150 457 
L 2150 1088 
L 2803 1088 
L 2803 1254 
L 2150 1254 
L 2150 4122 
z
M 1798 3703 
L 1798 1254 
L 256 1254 
L 1798 3703 
z
" transform="scale(0.015625)"/>
       </defs>
       <use xlink:href="#CMR17-30" transform="scale(0.996264)"/>
       <use xlink:href="#CMMI12-3a" transform="translate(45.690477 0) scale(0.996264)"/>
       <use xlink:href="#CMR17-34" transform="translate(72.787654 0) scale(0.996264)"/>
      </g>
     </g>
    </g>
    <g id="ytick_6">
     <g id="line2d_29">
      <path d="M 41.730582 241.699319 
L 935.517672 241.699319 
" clip-path="url(#p05df66428e)" style="fill: none; stroke: #ffffff; stroke-linecap: round"/>
     </g>
     <g id="line2d_30"/>
     <g id="text_16">
      <!-- $\mathdefault{0.5}$ -->
      <g style="fill: #262626" transform="translate(17.28 246.542257) scale(0.14 -0.14)">
       <use xlink:href="#CMR17-30" transform="scale(0.996264)"/>
       <use xlink:href="#CMMI12-3a" transform="translate(45.690477 0) scale(0.996264)"/>
       <use xlink:href="#CMR17-35" transform="translate(72.787654 0) scale(0.996264)"/>
      </g>
     </g>
    </g>
    <g id="ytick_7">
     <g id="line2d_31">
      <path d="M 41.730582 185.808576 
L 935.517672 185.808576 
" clip-path="url(#p05df66428e)" style="fill: none; stroke: #ffffff; stroke-linecap: round"/>
     </g>
     <g id="line2d_32"/>
     <g id="text_17">
      <!-- $\mathdefault{0.6}$ -->
      <g style="fill: #262626" transform="translate(17.28 190.651515) scale(0.14 -0.14)">
       <defs>
        <path id="CMR17-36" d="M 678 2176 
C 678 3690 1395 4032 1811 4032 
C 1946 4032 2272 4009 2400 3776 
C 2298 3776 2106 3776 2106 3553 
C 2106 3381 2246 3323 2336 3323 
C 2394 3323 2566 3348 2566 3560 
C 2566 3954 2246 4179 1805 4179 
C 1043 4179 243 3390 243 1984 
C 243 253 966 -128 1478 -128 
C 2099 -128 2688 427 2688 1283 
C 2688 2081 2170 2662 1517 2662 
C 1126 2662 838 2407 678 1960 
L 678 2176 
z
M 1478 25 
C 691 25 691 1200 691 1436 
C 691 1896 909 2560 1504 2560 
C 1613 2560 1926 2560 2138 2120 
C 2253 1870 2253 1609 2253 1289 
C 2253 944 2253 690 2118 434 
C 1978 171 1773 25 1478 25 
z
" transform="scale(0.015625)"/>
       </defs>
       <use xlink:href="#CMR17-30" transform="scale(0.996264)"/>
       <use xlink:href="#CMMI12-3a" transform="translate(45.690477 0) scale(0.996264)"/>
       <use xlink:href="#CMR17-36" transform="translate(72.787654 0) scale(0.996264)"/>
      </g>
     </g>
    </g>
    <g id="ytick_8">
     <g id="line2d_33">
      <path d="M 41.730582 129.917834 
L 935.517672 129.917834 
" clip-path="url(#p05df66428e)" style="fill: none; stroke: #ffffff; stroke-linecap: round"/>
     </g>
     <g id="line2d_34"/>
     <g id="text_18">
      <!-- $\mathdefault{0.7}$ -->
      <g style="fill: #262626" transform="translate(17.28 134.760772) scale(0.14 -0.14)">
       <use xlink:href="#CMR17-30" transform="scale(0.996264)"/>
       <use xlink:href="#CMMI12-3a" transform="translate(45.690477 0) scale(0.996264)"/>
       <use xlink:href="#CMR17-37" transform="translate(72.787654 0) scale(0.996264)"/>
      </g>
     </g>
    </g>
    <g id="ytick_9">
     <g id="line2d_35">
      <path d="M 41.730582 74.027092 
L 935.517672 74.027092 
" clip-path="url(#p05df66428e)" style="fill: none; stroke: #ffffff; stroke-linecap: round"/>
     </g>
     <g id="line2d_36"/>
     <g id="text_19">
      <!-- $\mathdefault{0.8}$ -->
      <g style="fill: #262626" transform="translate(17.28 78.87003) scale(0.14 -0.14)">
       <defs>
        <path id="CMR17-38" d="M 1741 2264 
C 2144 2467 2554 2773 2554 3263 
C 2554 3841 1990 4179 1472 4179 
C 890 4179 378 3759 378 3180 
C 378 3021 416 2747 666 2505 
C 730 2442 998 2251 1171 2130 
C 883 1983 211 1634 211 934 
C 211 279 838 -128 1459 -128 
C 2144 -128 2720 362 2720 1010 
C 2720 1590 2330 1857 2074 2029 
L 1741 2264 
z
M 902 2822 
C 851 2854 595 3051 595 3351 
C 595 3739 998 4032 1459 4032 
C 1965 4032 2336 3676 2336 3262 
C 2336 2669 1670 2331 1638 2331 
C 1632 2331 1626 2331 1574 2370 
L 902 2822 
z
M 2080 1519 
C 2176 1449 2483 1240 2483 851 
C 2483 381 2010 25 1472 25 
C 890 25 448 438 448 940 
C 448 1443 838 1862 1280 2060 
L 2080 1519 
z
" transform="scale(0.015625)"/>
       </defs>
       <use xlink:href="#CMR17-30" transform="scale(0.996264)"/>
       <use xlink:href="#CMMI12-3a" transform="translate(45.690477 0) scale(0.996264)"/>
       <use xlink:href="#CMR17-38" transform="translate(72.787654 0) scale(0.996264)"/>
      </g>
     </g>
    </g>
   </g>
   <g id="line2d_37">
    <path d="M 41.730582 74.027092 
L 50.24284 74.027092 
L 58.755098 74.027092 
L 67.267356 74.027092 
L 75.779614 74.027092 
L 84.291872 74.027092 
L 92.80413 74.027092 
L 101.316388 74.027092 
L 109.828646 74.027092 
L 118.340904 74.027092 
L 126.853162 74.027092 
L 135.36542 74.027092 
L 143.877678 74.027092 
L 152.389936 74.027092 
L 160.902194 74.027092 
L 169.414452 74.027092 
L 177.92671 74.027092 
L 186.438968 74.027092 
L 194.951226 74.027092 
L 203.463484 74.027092 
L 211.975742 74.027092 
L 220.488 74.027092 
L 229.000258 74.027092 
L 237.512516 74.027092 
L 246.024774 74.027092 
L 254.537032 74.027092 
L 263.04929 74.027092 
L 271.561548 74.027092 
L 280.073806 74.027092 
L 288.586064 74.027092 
L 297.098322 74.027092 
L 305.61058 74.027092 
L 314.122838 74.027092 
L 322.635096 74.027092 
L 331.147354 74.027092 
L 339.659612 74.027092 
L 348.17187 74.027092 
L 356.684128 74.027092 
L 365.196386 74.027092 
L 373.708644 74.027092 
L 382.220902 74.027092 
L 390.73316 74.027092 
L 399.245418 74.027092 
L 407.757676 74.027092 
L 416.269934 74.027092 
L 424.782192 74.027092 
L 433.29445 74.027092 
L 441.806708 74.027092 
L 450.318966 74.027092 
L 458.831224 74.027092 
L 467.343482 74.027092 
L 475.85574 74.027092 
L 484.367998 74.027092 
L 492.880256 74.027092 
L 501.392514 74.027092 
L 509.904772 74.027092 
L 518.41703 74.027092 
L 526.929288 74.027092 
L 535.441546 74.027092 
L 543.953804 74.027092 
L 552.466062 74.027092 
L 560.97832 74.027092 
L 569.490578 74.027092 
L 578.002836 74.027092 
L 586.515094 74.027092 
L 595.027352 74.027092 
L 603.53961 74.027092 
L 612.051868 74.027092 
L 620.564126 74.027092 
L 629.076384 74.027092 
L 637.588642 74.027092 
L 646.1009 74.027092 
L 654.613158 74.027092 
L 663.125416 74.027092 
L 671.637674 74.027092 
L 680.149932 74.027092 
L 688.66219 74.027092 
L 697.174448 74.027092 
L 705.686706 74.027092 
L 714.198964 74.027092 
L 722.711222 74.027092 
L 731.22348 74.027092 
L 739.735738 74.027092 
L 748.247996 74.027092 
L 756.760254 74.027092 
L 765.272512 74.027092 
L 773.78477 74.027092 
L 782.297028 74.027092 
L 790.809286 74.027092 
L 799.321544 74.027092 
L 807.833802 74.027092 
L 816.34606 74.027092 
L 824.858318 74.027092 
L 833.370576 74.027092 
L 841.882834 74.027092 
L 850.395092 74.027092 
L 858.90735 74.027092 
L 867.419608 74.027092 
L 875.931866 74.027092 
L 884.444124 74.027092 
L 892.956382 74.027092 
" clip-path="url(#p05df66428e)" style="fill: none; stroke: #393b79; stroke-width: 2; stroke-linecap: round"/>
   </g>
   <g id="line2d_38">
    <path d="M 41.730582 139.475806 
L 50.24284 139.194451 
L 58.755098 138.914558 
L 67.267356 138.636109 
L 75.779614 138.356346 
L 84.291872 138.074491 
L 92.80413 137.794089 
L 101.316388 137.515131 
L 109.828646 137.237609 
L 118.340904 136.961517 
L 126.853162 136.686877 
L 135.36542 136.413656 
L 143.877678 136.141838 
L 152.389936 135.871416 
L 160.902194 135.602383 
L 169.414452 135.33475 
L 177.92671 135.068494 
L 186.438968 134.803606 
L 194.951226 134.540076 
L 203.463484 134.277894 
L 211.975742 134.017061 
L 220.488 133.757565 
L 229.000258 133.499397 
L 237.512516 133.242553 
L 246.024774 132.987018 
L 254.537032 132.732786 
L 263.04929 132.4751 
L 271.561548 132.217683 
L 280.073806 131.96158 
L 288.586064 131.706781 
L 297.098322 131.453276 
L 305.61058 131.201061 
L 314.122838 130.950138 
L 322.635096 130.700492 
L 331.147354 130.452113 
L 339.659612 130.205001 
L 348.17187 129.959142 
L 356.684128 129.714536 
L 365.196386 129.471172 
L 373.708644 129.229057 
L 382.220902 128.988168 
L 390.73316 128.748498 
L 399.245418 128.51004 
L 407.757676 128.272791 
L 416.269934 128.036742 
L 424.782192 127.801888 
L 433.29445 127.568226 
L 441.806708 127.335751 
L 450.318966 127.104451 
L 458.831224 126.874316 
L 467.343482 126.642678 
L 475.85574 126.409578 
L 484.367998 126.17765 
L 492.880256 125.946888 
L 501.392514 125.717287 
L 509.904772 125.488839 
L 518.41703 125.261539 
L 526.929288 125.035384 
L 535.441546 124.81037 
L 543.953804 124.586489 
L 552.466062 124.363732 
L 560.97832 124.142094 
L 569.490578 123.921566 
L 578.002836 123.702143 
L 586.515094 123.483818 
L 595.027352 123.266584 
L 603.53961 123.050443 
L 612.051868 122.835389 
L 620.564126 122.621411 
L 629.076384 122.408506 
L 637.588642 122.196664 
L 646.1009 121.985879 
L 654.613158 121.776148 
L 663.125416 121.567461 
L 671.637674 121.359815 
L 680.149932 121.153203 
L 688.66219 120.947621 
L 697.174448 120.743062 
L 705.686706 120.535855 
L 714.198964 120.328603 
L 722.711222 120.12238 
L 731.22348 119.917183 
L 739.735738 119.713007 
L 748.247996 119.509844 
L 756.760254 119.307696 
L 765.272512 119.106551 
L 773.78477 118.906403 
L 782.297028 118.707246 
L 790.809286 118.509074 
L 799.321544 118.311882 
L 807.833802 118.115671 
L 816.34606 117.92043 
L 824.858318 117.726155 
L 833.370576 117.53284 
L 841.882834 117.34048 
L 850.395092 117.149073 
L 858.90735 116.958612 
L 867.419608 116.76909 
L 875.931866 116.580506 
L 884.444124 116.39286 
L 892.956382 116.20614 
" clip-path="url(#p05df66428e)" style="fill: none; stroke: #6b6ecf; stroke-width: 2; stroke-linecap: round"/>
   </g>
   <g id="line2d_39">
    <path d="M 41.730582 304.262966 
L 50.24284 303.481964 
L 58.755098 302.706938 
L 67.267356 301.937151 
L 75.779614 301.160843 
L 84.291872 300.390462 
L 92.80413 299.625858 
L 101.316388 298.85646 
L 109.828646 298.090365 
L 118.340904 297.330029 
L 126.853162 296.569127 
L 135.36542 295.807223 
L 143.877678 295.05094 
L 152.389936 294.299284 
L 160.902194 293.541221 
L 169.414452 292.788763 
L 177.92671 292.041876 
L 186.438968 291.293032 
L 194.951226 290.544155 
L 203.463484 289.800717 
L 211.975742 289.062753 
L 220.488 288.317465 
L 229.000258 287.577405 
L 237.512516 286.842741 
L 246.024774 286.109551 
L 254.537032 285.372505 
L 263.04929 284.640786 
L 271.561548 283.914394 
L 280.073806 283.186679 
L 288.586064 282.457875 
L 297.098322 281.734203 
L 305.61058 281.015673 
L 314.122838 280.294473 
L 322.635096 279.573307 
L 331.147354 278.857364 
L 339.659612 278.14644 
L 348.17187 277.432848 
L 356.684128 276.719202 
L 365.196386 276.010509 
L 373.708644 275.306746 
L 382.220902 274.601863 
L 390.73316 273.895328 
L 399.245418 273.193679 
L 407.757676 272.496873 
L 416.269934 271.801975 
L 424.782192 271.102172 
L 433.29445 270.407111 
L 441.806708 269.716841 
L 450.318966 269.031378 
L 458.831224 268.339849 
L 467.343482 267.651295 
L 475.85574 266.967344 
L 484.367998 266.287997 
L 492.880256 265.608924 
L 501.392514 264.926331 
L 509.904772 264.248353 
L 518.41703 263.574951 
L 526.929288 262.906089 
L 535.441546 262.233146 
L 543.953804 261.560915 
L 552.466062 260.893099 
L 560.97832 260.229699 
L 569.490578 259.570737 
L 578.002836 258.905254 
L 586.515094 258.242907 
L 595.027352 257.584883 
L 603.53961 256.931183 
L 612.051868 256.281775 
L 620.564126 255.625314 
L 629.076384 254.972267 
L 637.588642 254.323515 
L 646.1009 253.678983 
L 654.613158 253.038663 
L 663.125416 252.392908 
L 671.637674 251.748923 
L 680.149932 251.109068 
L 688.66219 250.473336 
L 697.174448 249.841667 
L 705.686706 249.208131 
L 714.198964 248.572702 
L 722.711222 247.941333 
L 731.22348 247.314003 
L 739.735738 246.690692 
L 748.247996 246.071313 
L 756.760254 245.44415 
L 765.272512 244.82094 
L 773.78477 244.201581 
L 782.297028 243.586121 
L 790.809286 242.974549 
L 799.321544 242.363238 
L 807.833802 241.747857 
L 816.34606 241.136359 
L 824.858318 240.528612 
L 833.370576 239.924599 
L 841.882834 239.324292 
L 850.395092 238.722998 
L 858.90735 238.118611 
L 867.419608 237.518225 
L 875.931866 236.921494 
L 884.444124 236.328403 
L 892.956382 235.73896 
" clip-path="url(#p05df66428e)" style="fill: none; stroke: #637939; stroke-width: 2; stroke-linecap: round"/>
   </g>
   <g id="line2d_40">
    <path d="M 41.730582 402.054485 
L 50.24284 401.146838 
L 58.755098 400.239557 
L 67.267356 399.332677 
L 75.779614 398.426166 
L 84.291872 397.520357 
L 92.80413 396.615132 
L 101.316388 395.710003 
L 109.828646 394.804145 
L 118.340904 393.898991 
L 126.853162 392.994603 
L 135.36542 392.091303 
L 143.877678 391.189102 
L 152.389936 390.28597 
L 160.902194 389.382991 
L 169.414452 388.481296 
L 177.92671 387.58085 
L 186.438968 386.681595 
L 194.951226 385.780532 
L 203.463484 384.880913 
L 211.975742 383.983276 
L 220.488 383.086218 
L 229.000258 382.188112 
L 237.512516 381.291652 
L 246.024774 380.397549 
L 254.537032 379.50202 
L 263.04929 378.607353 
L 271.561548 377.715224 
L 280.073806 376.82307 
L 288.586064 375.930623 
L 297.098322 375.041033 
L 305.61058 374.151456 
L 314.122838 373.261735 
L 322.635096 372.375189 
L 331.147354 371.487704 
L 339.659612 370.601302 
L 348.17187 369.718578 
L 356.684128 368.832629 
L 365.196386 367.950104 
L 373.708644 367.069118 
L 382.220902 366.186913 
L 390.73316 365.309198 
L 399.245418 364.428837 
L 407.757676 363.551812 
L 416.269934 362.675837 
L 424.782192 361.799534 
L 433.29445 360.927579 
L 441.806708 360.052263 
L 450.318966 359.182505 
L 458.831224 358.310053 
L 467.343482 357.441712 
L 475.85574 356.57294 
L 484.367998 355.706089 
L 492.880256 354.840575 
L 501.392514 353.975564 
L 509.904772 353.113286 
L 518.41703 352.25033 
L 526.929288 351.391045 
L 535.441546 350.530384 
L 543.953804 349.673976 
L 552.466062 348.815783 
L 560.97832 347.961953 
L 569.490578 347.10644 
L 578.002836 346.255229 
L 586.515094 345.402867 
L 595.027352 344.553978 
L 603.53961 343.705024 
L 612.051868 342.858095 
L 620.564126 342.012995 
L 629.076384 341.167954 
L 637.588642 340.326883 
L 646.1009 339.483859 
L 654.613158 338.64724 
L 663.125416 337.805432 
L 671.637674 336.971404 
L 680.149932 336.134072 
L 688.66219 335.300909 
L 697.174448 334.46859 
L 705.686706 333.636872 
L 714.198964 332.810526 
L 722.711222 331.979722 
L 731.22348 331.155862 
L 739.735738 330.329468 
L 748.247996 329.506501 
L 756.760254 328.686927 
L 765.272512 327.864604 
L 773.78477 327.049001 
L 782.297028 326.230058 
L 790.809286 325.414898 
L 799.321544 324.603647 
L 807.833802 323.788982 
L 816.34606 322.98096 
L 824.858318 322.17149 
L 833.370576 321.363415 
L 841.882834 320.561799 
L 850.395092 319.75441 
L 858.90735 318.952747 
L 867.419608 318.154837 
L 875.931866 317.353096 
L 884.444124 316.557644 
L 892.956382 315.762891 
" clip-path="url(#p05df66428e)" style="fill: none; stroke: #b5cf6b; stroke-width: 2; stroke-linecap: round"/>
   </g>
   <g id="line2d_41">
    <path d="M 41.730582 492.617132 
L 50.24284 491.934454 
L 58.755098 491.246395 
L 67.267356 490.553254 
L 75.779614 489.854864 
L 84.291872 489.151572 
L 92.80413 488.443295 
L 101.316388 487.730071 
L 109.828646 487.012099 
L 118.340904 486.289448 
L 126.853162 485.562141 
L 135.36542 484.830266 
L 143.877678 484.09399 
L 152.389936 483.353292 
L 160.902194 482.60824 
L 169.414452 481.85896 
L 177.92671 481.10548 
L 186.438968 480.348016 
L 194.951226 479.586392 
L 203.463484 478.820724 
L 211.975742 478.051474 
L 220.488 477.278077 
L 229.000258 476.501342 
L 237.512516 475.720583 
L 246.024774 474.936537 
L 254.537032 474.148757 
L 263.04929 473.357436 
L 271.561548 472.562799 
L 280.073806 471.764935 
L 288.586064 470.963754 
L 297.098322 470.159339 
L 305.61058 469.351821 
L 314.122838 468.54134 
L 322.635096 467.727893 
L 331.147354 466.911098 
L 339.659612 466.091708 
L 348.17187 465.269751 
L 356.684128 464.444354 
L 365.196386 463.616861 
L 373.708644 462.786253 
L 382.220902 461.95366 
L 390.73316 461.117821 
L 399.245418 460.279901 
L 407.757676 459.439885 
L 416.269934 458.596863 
L 424.782192 457.751728 
L 433.29445 456.904508 
L 441.806708 456.055154 
L 450.318966 455.203751 
L 458.831224 454.350032 
L 467.343482 453.494259 
L 475.85574 452.636572 
L 484.367998 451.776943 
L 492.880256 450.915452 
L 501.392514 450.051956 
L 509.904772 449.186588 
L 518.41703 448.319594 
L 526.929288 447.450921 
L 535.441546 446.580905 
L 543.953804 445.709492 
L 552.466062 444.83581 
L 560.97832 443.960748 
L 569.490578 443.084711 
L 578.002836 442.207043 
L 586.515094 441.327723 
L 595.027352 440.447952 
L 603.53961 439.565848 
L 612.051868 438.683121 
L 620.564126 437.7991 
L 629.076384 436.913798 
L 637.588642 436.027591 
L 646.1009 435.140371 
L 654.613158 434.251849 
L 663.125416 433.362721 
L 671.637674 432.472231 
L 680.149932 431.581769 
L 688.66219 430.689154 
L 697.174448 429.796148 
L 705.686706 428.90343 
L 714.198964 428.008402 
L 722.711222 427.113266 
L 731.22348 426.218072 
L 739.735738 425.321582 
L 748.247996 424.424224 
L 756.760254 423.52689 
L 765.272512 422.629331 
L 773.78477 421.73117 
L 782.297028 420.831623 
L 790.809286 419.93195 
L 799.321544 419.032166 
L 807.833802 418.132318 
L 816.34606 417.232313 
L 824.858318 416.332078 
L 833.370576 415.431374 
L 841.882834 414.52978 
L 850.395092 413.628229 
L 858.90735 412.726506 
L 867.419608 411.824874 
L 875.931866 410.923222 
L 884.444124 410.021333 
L 892.956382 409.119638 
" clip-path="url(#p05df66428e)" style="fill: none; stroke: #8c6d31; stroke-width: 2; stroke-linecap: round"/>
   </g>
   <g id="line2d_42">
    <path d="M 41.730582 516.79227 
L 50.24284 516.467525 
L 58.755098 516.132491 
L 67.267356 515.787313 
L 75.779614 515.432077 
L 84.291872 515.066972 
L 92.80413 514.692079 
L 101.316388 514.307534 
L 109.828646 513.913491 
L 118.340904 513.510055 
L 126.853162 513.09733 
L 135.36542 512.675503 
L 143.877678 512.244661 
L 152.389936 511.804865 
L 160.902194 511.356334 
L 169.414452 510.899156 
L 177.92671 510.433401 
L 186.438968 509.959243 
L 194.951226 509.476802 
L 203.463484 508.98611 
L 211.975742 508.487399 
L 220.488 507.9806 
L 229.000258 507.466119 
L 237.512516 506.943763 
L 246.024774 506.413825 
L 254.537032 505.876325 
L 263.04929 505.33142 
L 271.561548 504.779152 
L 280.073806 504.219754 
L 288.586064 503.653193 
L 297.098322 503.079625 
L 305.61058 502.499153 
L 314.122838 501.911909 
L 322.635096 501.317935 
L 331.147354 500.717338 
L 339.659612 500.110321 
L 348.17187 499.496809 
L 356.684128 498.876966 
L 365.196386 498.250962 
L 373.708644 497.618769 
L 382.220902 496.980593 
L 390.73316 496.336462 
L 399.245418 495.686482 
L 407.757676 495.030866 
L 416.269934 494.369414 
L 424.782192 493.702415 
L 433.29445 493.029946 
L 441.806708 492.352051 
L 450.318966 491.668905 
L 458.831224 490.980502 
L 467.343482 490.28693 
L 475.85574 489.588304 
L 484.367998 488.884697 
L 492.880256 488.176143 
L 501.392514 487.462787 
L 509.904772 486.744703 
L 518.41703 486.022109 
L 526.929288 485.294655 
L 535.441546 484.562985 
L 543.953804 483.826667 
L 552.466062 483.086051 
L 560.97832 482.341147 
L 569.490578 481.592059 
L 578.002836 480.838881 
L 586.515094 480.081647 
L 595.027352 479.320578 
L 603.53961 478.55541 
L 612.051868 477.786361 
L 620.564126 477.013798 
L 629.076384 476.237194 
L 637.588642 475.457167 
L 646.1009 474.673827 
L 654.613158 473.886505 
L 663.125416 473.095823 
L 671.637674 472.302091 
L 680.149932 471.50495 
L 688.66219 470.704474 
L 697.174448 469.900778 
L 705.686706 469.094235 
L 714.198964 468.284724 
L 722.711222 467.47199 
L 731.22348 466.656206 
L 739.735738 465.837849 
L 748.247996 465.016611 
L 756.760254 464.192629 
L 765.272512 463.366122 
L 773.78477 462.536734 
L 782.297028 461.704855 
L 790.809286 460.87071 
L 799.321544 460.033636 
L 807.833802 459.194597 
L 816.34606 458.353435 
L 824.858318 457.509611 
L 833.370576 456.663435 
L 841.882834 455.815108 
L 850.395092 454.964844 
L 858.90735 454.11247 
L 867.419608 453.258207 
L 875.931866 452.401951 
L 884.444124 451.543634 
L 892.956382 450.683643 
" clip-path="url(#p05df66428e)" style="fill: none; stroke: #e7cb94; stroke-width: 2; stroke-linecap: round"/>
   </g>
   <g id="line2d_43">
    <path d="M 41.730582 520.330193 
L 50.24284 520.176652 
L 58.755098 520.01068 
L 67.267356 519.832437 
L 75.779614 519.642051 
L 84.291872 519.4397 
L 92.80413 519.225511 
L 101.316388 518.999631 
L 109.828646 518.762225 
L 118.340904 518.513422 
L 126.853162 518.253359 
L 135.36542 517.982209 
L 143.877678 517.700099 
L 152.389936 517.407125 
L 160.902194 517.103489 
L 169.414452 516.789307 
L 177.92671 516.464686 
L 186.438968 516.129797 
L 194.951226 515.784774 
L 203.463484 515.429693 
L 211.975742 515.064775 
L 220.488 514.690021 
L 229.000258 514.305754 
L 237.512516 513.9119 
L 246.024774 513.508697 
L 254.537032 513.096233 
L 263.04929 512.674633 
L 271.561548 512.244021 
L 280.073806 511.804564 
L 288.586064 511.35632 
L 297.098322 510.899415 
L 305.61058 510.433984 
L 314.122838 509.960155 
L 322.635096 509.478011 
L 331.147354 508.987692 
L 339.659612 508.489331 
L 348.17187 507.982971 
L 356.684128 507.468749 
L 365.196386 506.946799 
L 373.708644 506.417245 
L 382.220902 505.88015 
L 390.73316 505.335649 
L 399.245418 504.783816 
L 407.757676 504.22485 
L 416.269934 503.658711 
L 424.782192 503.085574 
L 433.29445 502.505558 
L 441.806708 501.918733 
L 450.318966 501.325249 
L 458.831224 500.725129 
L 467.343482 500.118582 
L 475.85574 499.505577 
L 484.367998 498.886271 
L 492.880256 498.260698 
L 501.392514 497.629041 
L 509.904772 496.991337 
L 518.41703 496.347763 
L 526.929288 495.698313 
L 535.441546 495.043176 
L 543.953804 494.382282 
L 552.466062 493.715846 
L 560.97832 493.043893 
L 569.490578 492.366552 
L 578.002836 491.683979 
L 586.515094 490.996084 
L 595.027352 490.303165 
L 603.53961 489.605053 
L 612.051868 488.90198 
L 620.564126 488.194081 
L 629.076384 487.481271 
L 637.588642 486.763833 
L 646.1009 486.041778 
L 654.613158 485.314952 
L 663.125416 484.58369 
L 671.637674 483.84823 
L 680.149932 483.108202 
L 688.66219 482.363868 
L 697.174448 481.615295 
L 705.686706 480.862796 
L 714.198964 480.106255 
L 722.711222 479.345801 
L 731.22348 478.581091 
L 739.735738 477.812744 
L 748.247996 477.040684 
L 756.760254 476.264948 
L 765.272512 475.485483 
L 773.78477 474.702617 
L 782.297028 473.9161 
L 790.809286 473.126085 
L 799.321544 472.332769 
L 807.833802 471.536287 
L 816.34606 470.736588 
L 824.858318 469.933736 
L 833.370576 469.127775 
L 841.882834 468.318753 
L 850.395092 467.506526 
L 858.90735 466.691472 
L 867.419608 465.873988 
L 875.931866 465.053245 
L 884.444124 464.229928 
L 892.956382 463.403993 
" clip-path="url(#p05df66428e)" style="fill: none; stroke: #ad494a; stroke-width: 2; stroke-linecap: round"/>
   </g>
   <g id="line2d_44">
    <path d="M 41.730582 521.186513 
L 50.24284 520.991678 
L 58.755098 520.841888 
L 67.267356 520.726106 
L 75.779614 520.612223 
L 84.291872 520.485437 
L 92.80413 520.34589 
L 101.316388 520.193739 
L 109.828646 520.02915 
L 118.340904 519.852265 
L 126.853162 519.663233 
L 135.36542 519.462224 
L 143.877678 519.249379 
L 152.389936 519.024813 
L 160.902194 518.788719 
L 169.414452 518.541227 
L 177.92671 518.282459 
L 186.438968 518.012583 
L 194.951226 517.731745 
L 203.463484 517.440037 
L 211.975742 517.137666 
L 220.488 516.824678 
L 229.000258 516.501351 
L 237.512516 516.167666 
L 246.024774 515.823844 
L 254.537032 515.46999 
L 263.04929 515.106234 
L 271.561548 514.732711 
L 280.073806 514.349578 
L 288.586064 513.956916 
L 297.098322 513.554857 
L 305.61058 513.143542 
L 314.122838 512.723093 
L 322.635096 512.293623 
L 331.147354 511.855259 
L 339.659612 511.408145 
L 348.17187 510.95235 
L 356.684128 510.487984 
L 365.196386 510.01523 
L 373.708644 509.534159 
L 382.220902 509.044916 
L 390.73316 508.547568 
L 399.245418 508.042249 
L 407.757676 507.529119 
L 416.269934 507.008224 
L 424.782192 506.47965 
L 433.29445 505.943574 
L 441.806708 505.400052 
L 450.318966 504.849264 
L 458.831224 504.29122 
L 467.343482 503.726085 
L 475.85574 503.153955 
L 484.367998 502.574914 
L 492.880256 501.989007 
L 501.392514 501.396442 
L 509.904772 500.797249 
L 518.41703 500.191642 
L 526.929288 499.579507 
L 535.441546 498.961143 
L 543.953804 498.336515 
L 552.466062 497.705747 
L 560.97832 497.068927 
L 569.490578 496.426178 
L 578.002836 495.777608 
L 586.515094 495.123321 
L 595.027352 494.4633 
L 603.53961 493.797733 
L 612.051868 493.126637 
L 620.564126 492.450164 
L 629.076384 491.768285 
L 637.588642 491.081328 
L 646.1009 490.389108 
L 654.613158 489.691823 
L 663.125416 488.989539 
L 671.637674 488.282528 
L 680.149932 487.570545 
L 688.66219 486.853717 
L 697.174448 486.132243 
L 705.686706 485.406366 
L 714.198964 484.675912 
L 722.711222 483.940986 
L 731.22348 483.201741 
L 739.735738 482.458237 
L 748.247996 481.710544 
L 756.760254 480.958697 
L 765.272512 480.202724 
L 773.78477 479.44275 
L 782.297028 478.678944 
L 790.809286 477.911263 
L 799.321544 477.139746 
L 807.833802 476.364718 
L 816.34606 475.586048 
L 824.858318 474.80366 
L 833.370576 474.017851 
L 841.882834 473.228603 
L 850.395092 472.436098 
L 858.90735 471.640144 
L 867.419608 470.841097 
L 875.931866 470.038772 
L 884.444124 469.233182 
L 892.956382 468.424727 
" clip-path="url(#p05df66428e)" style="fill: none; stroke: #e7969c; stroke-width: 2; stroke-linecap: round"/>
   </g>
   <g id="line2d_45">
    <path d="M 41.730582 522.175141 
L 50.24284 521.750078 
L 58.755098 521.424288 
L 67.267356 521.174372 
L 75.779614 520.982393 
L 84.291872 520.83479 
L 92.80413 520.720231 
L 101.316388 520.605657 
L 109.828646 520.478187 
L 118.340904 520.33797 
L 126.853162 520.185158 
L 135.36542 520.019924 
L 143.877678 519.842412 
L 152.389936 519.652747 
L 160.902194 519.45112 
L 169.414452 519.237667 
L 177.92671 519.012516 
L 186.438968 518.775835 
L 194.951226 518.527776 
L 203.463484 518.268437 
L 211.975742 517.998023 
L 220.488 517.716593 
L 229.000258 517.424415 
L 237.512516 517.121491 
L 246.024774 516.808031 
L 254.537032 516.484153 
L 263.04929 516.149984 
L 271.561548 515.805665 
L 280.073806 515.451358 
L 288.586064 515.08715 
L 297.098322 514.713168 
L 305.61058 514.329563 
L 314.122838 513.936466 
L 322.635096 513.533974 
L 331.147354 513.122239 
L 339.659612 512.7014 
L 348.17187 512.271534 
L 356.684128 511.832745 
L 365.196386 511.385216 
L 373.708644 510.929035 
L 382.220902 510.464332 
L 390.73316 509.991204 
L 399.245418 509.509781 
L 407.757676 509.020207 
L 416.269934 508.522539 
L 424.782192 508.016868 
L 433.29445 507.50338 
L 441.806708 506.982132 
L 450.318966 506.453297 
L 458.831224 505.916901 
L 467.343482 505.373125 
L 475.85574 504.822023 
L 484.367998 504.263708 
L 492.880256 503.698263 
L 501.392514 503.125848 
L 509.904772 502.546494 
L 518.41703 501.960435 
L 526.929288 501.367592 
L 535.441546 500.768215 
L 543.953804 500.16226 
L 552.466062 499.549949 
L 560.97832 498.931285 
L 569.490578 498.306429 
L 578.002836 497.67547 
L 586.515094 497.038509 
L 595.027352 496.395624 
L 603.53961 495.746818 
L 612.051868 495.092247 
L 620.564126 494.432108 
L 629.076384 493.766332 
L 637.588642 493.095064 
L 646.1009 492.418489 
L 654.613158 491.736402 
L 663.125416 491.049118 
L 671.637674 490.356894 
L 680.149932 489.659594 
L 688.66219 488.957089 
L 697.174448 488.249682 
L 705.686706 487.537675 
L 714.198964 486.820822 
L 722.711222 486.099269 
L 731.22348 485.373269 
L 739.735738 484.642521 
L 748.247996 483.907568 
L 756.760254 483.168358 
L 765.272512 482.424684 
L 773.78477 481.676818 
L 782.297028 480.92484 
L 790.809286 480.168804 
L 799.321544 479.408672 
L 807.833802 478.644815 
L 816.34606 477.877293 
L 824.858318 477.105657 
L 833.370576 476.330594 
L 841.882834 475.551547 
L 850.395092 474.769148 
L 858.90735 473.98332 
L 867.419608 473.194214 
L 875.931866 472.401514 
L 884.444124 471.605465 
L 892.956382 470.80639 
" clip-path="url(#p05df66428e)" style="fill: none; stroke: #a55194; stroke-width: 2; stroke-linecap: round"/>
   </g>
   <g id="line2d_46">
    <path d="M 41.730582 523.286508 
L 50.24284 522.60063 
L 58.755098 522.075925 
L 67.267356 521.67417 
L 75.779614 521.366127 
L 84.291872 521.129728 
L 92.80413 520.948098 
L 101.316388 520.808403 
L 109.828646 520.697255 
L 118.340904 520.579971 
L 126.853162 520.449816 
L 135.36542 520.306961 
L 143.877678 520.151554 
L 152.389936 519.983728 
L 160.902194 519.803667 
L 169.414452 519.611515 
L 177.92671 519.407404 
L 186.438968 519.191501 
L 194.951226 518.963959 
L 203.463484 518.724885 
L 211.975742 518.474481 
L 220.488 518.212811 
L 229.000258 517.94014 
L 237.512516 517.656479 
L 246.024774 517.362039 
L 254.537032 517.056935 
L 263.04929 516.741306 
L 271.561548 516.415286 
L 280.073806 516.079043 
L 288.586064 515.732663 
L 297.098322 515.376281 
L 305.61058 515.010048 
L 314.122838 514.634096 
L 322.635096 514.248525 
L 331.147354 513.853486 
L 339.659612 513.449121 
L 348.17187 513.035509 
L 356.684128 512.612765 
L 365.196386 512.181065 
L 373.708644 511.740503 
L 382.220902 511.291212 
L 390.73316 510.833289 
L 399.245418 510.366853 
L 407.757676 509.892062 
L 416.269934 509.408966 
L 424.782192 508.917708 
L 433.29445 508.418406 
L 441.806708 507.911143 
L 450.318966 507.396109 
L 458.831224 506.873319 
L 467.343482 506.342935 
L 475.85574 505.805077 
L 484.367998 505.259782 
L 492.880256 504.707188 
L 501.392514 504.147425 
L 509.904772 503.580597 
L 518.41703 503.006815 
L 526.929288 502.426085 
L 535.441546 501.838682 
L 543.953804 501.244533 
L 552.466062 500.643795 
L 560.97832 500.036589 
L 569.490578 499.422961 
L 578.002836 498.803111 
L 586.515094 498.177033 
L 595.027352 497.544899 
L 603.53961 496.906708 
L 612.051868 496.26259 
L 620.564126 495.612736 
L 629.076384 494.957008 
L 637.588642 494.295753 
L 646.1009 493.628919 
L 654.613158 492.956545 
L 663.125416 492.278786 
L 671.637674 491.595915 
L 680.149932 490.907675 
L 688.66219 490.214309 
L 697.174448 489.51585 
L 705.686706 488.812517 
L 714.198964 488.10432 
L 722.711222 487.391346 
L 731.22348 486.673491 
L 739.735738 485.95102 
L 748.247996 485.224178 
L 756.760254 484.492687 
L 765.272512 483.756842 
L 773.78477 483.016693 
L 782.297028 482.272247 
L 790.809286 481.523598 
L 799.321544 480.770781 
L 807.833802 480.013991 
L 816.34606 479.253276 
L 824.858318 478.488804 
L 833.370576 477.720231 
L 841.882834 476.947985 
L 850.395092 476.172042 
L 858.90735 475.392689 
L 867.419608 474.609549 
L 875.931866 473.823024 
L 884.444124 473.033045 
L 892.956382 472.239891 
" clip-path="url(#p05df66428e)" style="fill: none; stroke: #de9ed6; stroke-width: 2; stroke-linecap: round"/>
   </g>
   <g id="patch_3">
    <path d="M 41.730582 521.153031 
L 41.730582 51.564121 
" style="fill: none"/>
   </g>
   <g id="patch_4">
    <path d="M 935.517672 521.153031 
L 935.517672 51.564121 
" style="fill: none"/>
   </g>
   <g id="patch_5">
    <path d="M 41.730582 521.153031 
L 935.517672 521.153031 
" style="fill: none"/>
   </g>
   <g id="patch_6">
    <path d="M 41.730582 51.564121 
L 935.517672 51.564121 
" style="fill: none"/>
   </g>
   <g id="patch_7">
    <path d="M 467.343482 87.207471 
Q 467.343482 287.392363 467.343482 485.900204 
" style="fill: none; stroke: #000000; stroke-width: 1.5; stroke-linecap: round"/>
    <path d="M 470.543482 479.500204 
L 467.343482 485.900204 
L 464.143482 479.500204 
" style="fill: none; stroke: #000000; stroke-width: 1.5; stroke-linecap: round"/>
   </g>
   <g id="text_20">
    <!-- Time -->
    <g style="fill: #262626" transform="translate(488.624127 486.087648) scale(0.18 -0.18)">
     <defs>
      <path id="CMR17-54" d="M 3981 4326 
L 288 4326 
L 179 2918 
L 294 2918 
C 378 3976 467 4160 1453 4160 
C 1568 4160 1754 4160 1805 4154 
C 1926 4135 1926 4058 1926 3912 
L 1926 459 
C 1926 230 1907 160 1376 160 
L 1197 160 
L 1197 0 
C 1504 0 1824 0 2138 0 
C 2451 0 2771 0 3078 0 
L 3078 160 
L 2899 160 
C 2368 160 2349 230 2349 459 
L 2349 3912 
C 2349 4052 2349 4129 2464 4154 
C 2515 4160 2701 4160 2816 4160 
C 3795 4160 3891 3976 3974 2918 
L 4090 2918 
L 3981 4326 
z
" transform="scale(0.015625)"/>
      <path id="CMR17-69" d="M 992 3909 
C 992 4049 877 4170 730 4170 
C 589 4170 467 4056 467 3909 
C 467 3769 582 3648 730 3648 
C 870 3648 992 3763 992 3909 
z
M 243 2706 
L 243 2541 
C 602 2541 653 2502 653 2197 
L 653 427 
C 653 184 627 153 218 153 
L 218 -13 
C 371 0 646 0 806 0 
C 960 0 1222 0 1370 -13 
L 1370 153 
C 992 153 979 191 979 420 
L 979 2776 
L 243 2706 
z
" transform="scale(0.015625)"/>
      <path id="CMR17-6d" d="M 4326 1933 
C 4326 2252 4269 2790 3507 2790 
C 3072 2790 2771 2496 2656 2151 
L 2650 2151 
C 2573 2676 2195 2790 1837 2790 
C 1331 2790 1069 2400 973 2144 
L 966 2144 
L 966 2790 
L 211 2720 
L 211 2554 
C 589 2554 646 2515 646 2208 
L 646 428 
C 646 184 621 153 211 153 
L 211 -13 
C 365 0 646 0 813 0 
C 979 0 1267 0 1421 -13 
L 1421 153 
C 1011 153 986 178 986 428 
L 986 1658 
C 986 2247 1344 2688 1792 2688 
C 2266 2688 2317 2266 2317 1958 
L 2317 428 
C 2317 184 2291 153 1882 153 
L 1882 -13 
C 2035 0 2317 0 2483 0 
C 2650 0 2938 0 3091 -13 
L 3091 153 
C 2682 153 2656 178 2656 428 
L 2656 1658 
C 2656 2247 3014 2688 3462 2688 
C 3936 2688 3987 2266 3987 1958 
L 3987 428 
C 3987 184 3962 153 3552 153 
L 3552 -13 
C 3706 0 3987 0 4154 0 
C 4320 0 4608 0 4762 -13 
L 4762 153 
C 4352 153 4326 178 4326 428 
L 4326 1933 
z
" transform="scale(0.015625)"/>
      <path id="CMR17-65" d="M 2438 1472 
C 2464 1498 2464 1511 2464 1576 
C 2464 2238 2118 2816 1389 2816 
C 710 2816 173 2169 173 1383 
C 173 551 781 -64 1459 -64 
C 2176 -64 2458 607 2458 740 
C 2458 784 2419 784 2406 784 
C 2362 784 2355 771 2330 696 
C 2189 265 1837 51 1504 51 
C 1229 51 954 203 781 480 
C 582 803 582 1176 582 1472 
L 2438 1472 
z
M 589 1568 
C 634 2505 1126 2714 1382 2714 
C 1818 2714 2112 2297 2118 1568 
L 589 1568 
z
" transform="scale(0.015625)"/>
     </defs>
     <use xlink:href="#CMR17-54" transform="scale(0.996264)"/>
     <use xlink:href="#CMR17-69" transform="translate(66.509881 0) scale(0.996264)"/>
     <use xlink:href="#CMR17-6d" transform="translate(91.380939 0) scale(0.996264)"/>
     <use xlink:href="#CMR17-65" transform="translate(168.300529 0) scale(0.996264)"/>
    </g>
   </g>
   <g id="legend_1">
    <g id="line2d_47">
     <path d="M 948.117672 197.198434 
L 962.117672 197.198434 
L 976.117672 197.198434 
" style="fill: none; stroke: #393b79; stroke-width: 2; stroke-linecap: round"/>
    </g>
    <g id="text_21">
     <!-- t = 0.00 -->
     <g style="fill: #262626" transform="translate(987.317672 202.098434) scale(0.14 -0.14)">
      <defs>
       <path id="CMR17-74" d="M 966 2560 
L 1862 2560 
L 1862 2725 
L 966 2725 
L 966 3904 
L 851 3904 
C 838 3245 614 2668 70 2668 
L 70 2560 
L 627 2560 
L 627 771 
C 627 650 627 -64 1370 -64 
C 1747 -64 1965 306 1965 777 
L 1965 1140 
L 1850 1140 
L 1850 783 
C 1850 344 1677 51 1408 51 
C 1222 51 966 178 966 758 
L 966 2560 
z
" transform="scale(0.015625)"/>
       <path id="CMR17-3d" d="M 4115 2017 
C 4211 2017 4307 2017 4307 2125 
C 4307 2240 4198 2240 4090 2240 
L 512 2240 
C 403 2240 294 2240 294 2125 
C 294 2017 390 2017 486 2017 
L 4115 2017 
z
M 4090 896 
C 4198 896 4307 896 4307 1011 
C 4307 1119 4211 1119 4115 1119 
L 486 1119 
C 390 1119 294 1119 294 1011 
C 294 896 403 896 512 896 
L 4090 896 
z
" transform="scale(0.015625)"/>
       <path id="CMR17-2e" d="M 1062 261 
C 1062 420 934 522 800 522 
C 672 522 538 420 538 261 
C 538 102 666 0 800 0 
C 928 0 1062 102 1062 261 
z
" transform="scale(0.015625)"/>
      </defs>
      <use xlink:href="#CMR17-74" transform="scale(0.996264)"/>
      <use xlink:href="#CMR17-3d" transform="translate(65.356734 0) scale(0.996264)"/>
      <use xlink:href="#CMR17-30" transform="translate(167.147489 0) scale(0.996264)"/>
      <use xlink:href="#CMR17-2e" transform="translate(212.837966 0) scale(0.996264)"/>
      <use xlink:href="#CMR17-30" transform="translate(237.709025 0) scale(0.996264)"/>
      <use xlink:href="#CMR17-30" transform="translate(283.399502 0) scale(0.996264)"/>
     </g>
    </g>
    <g id="line2d_48">
     <path d="M 948.117672 216.710462 
L 962.117672 216.710462 
L 976.117672 216.710462 
" style="fill: none; stroke: #6b6ecf; stroke-width: 2; stroke-linecap: round"/>
    </g>
    <g id="text_22">
     <!-- t = 10.00 -->
     <g style="fill: #262626" transform="translate(987.317672 221.610462) scale(0.14 -0.14)">
      <use xlink:href="#CMR17-74" transform="scale(0.996264)"/>
      <use xlink:href="#CMR17-3d" transform="translate(65.356734 0) scale(0.996264)"/>
      <use xlink:href="#CMR17-31" transform="translate(167.147489 0) scale(0.996264)"/>
      <use xlink:href="#CMR17-30" transform="translate(212.837966 0) scale(0.996264)"/>
      <use xlink:href="#CMR17-2e" transform="translate(258.528443 0) scale(0.996264)"/>
      <use xlink:href="#CMR17-30" transform="translate(283.399502 0) scale(0.996264)"/>
      <use xlink:href="#CMR17-30" transform="translate(329.089979 0) scale(0.996264)"/>
     </g>
    </g>
    <g id="line2d_49">
     <path d="M 948.117672 236.222491 
L 962.117672 236.222491 
L 976.117672 236.222491 
" style="fill: none; stroke: #637939; stroke-width: 2; stroke-linecap: round"/>
    </g>
    <g id="text_23">
     <!-- t = 50.00 -->
     <g style="fill: #262626" transform="translate(987.317672 241.122491) scale(0.14 -0.14)">
      <use xlink:href="#CMR17-74" transform="scale(0.996264)"/>
      <use xlink:href="#CMR17-3d" transform="translate(65.356734 0) scale(0.996264)"/>
      <use xlink:href="#CMR17-35" transform="translate(167.147489 0) scale(0.996264)"/>
      <use xlink:href="#CMR17-30" transform="translate(212.837966 0) scale(0.996264)"/>
      <use xlink:href="#CMR17-2e" transform="translate(258.528443 0) scale(0.996264)"/>
      <use xlink:href="#CMR17-30" transform="translate(283.399502 0) scale(0.996264)"/>
      <use xlink:href="#CMR17-30" transform="translate(329.089979 0) scale(0.996264)"/>
     </g>
    </g>
    <g id="line2d_50">
     <path d="M 948.117672 255.734519 
L 962.117672 255.734519 
L 976.117672 255.734519 
" style="fill: none; stroke: #b5cf6b; stroke-width: 2; stroke-linecap: round"/>
    </g>
    <g id="text_24">
     <!-- t = 100.00 -->
     <g style="fill: #262626" transform="translate(987.317672 260.634519) scale(0.14 -0.14)">
      <use xlink:href="#CMR17-74" transform="scale(0.996264)"/>
      <use xlink:href="#CMR17-3d" transform="translate(65.356734 0) scale(0.996264)"/>
      <use xlink:href="#CMR17-31" transform="translate(167.147489 0) scale(0.996264)"/>
      <use xlink:href="#CMR17-30" transform="translate(212.837966 0) scale(0.996264)"/>
      <use xlink:href="#CMR17-30" transform="translate(258.528443 0) scale(0.996264)"/>
      <use xlink:href="#CMR17-2e" transform="translate(304.21892 0) scale(0.996264)"/>
      <use xlink:href="#CMR17-30" transform="translate(329.089979 0) scale(0.996264)"/>
      <use xlink:href="#CMR17-30" transform="translate(374.780456 0) scale(0.996264)"/>
     </g>
    </g>
    <g id="line2d_51">
     <path d="M 948.117672 275.246547 
L 962.117672 275.246547 
L 976.117672 275.246547 
" style="fill: none; stroke: #8c6d31; stroke-width: 2; stroke-linecap: round"/>
    </g>
    <g id="text_25">
     <!-- t = 250.00 -->
     <g style="fill: #262626" transform="translate(987.317672 280.146547) scale(0.14 -0.14)">
      <use xlink:href="#CMR17-74" transform="scale(0.996264)"/>
      <use xlink:href="#CMR17-3d" transform="translate(65.356734 0) scale(0.996264)"/>
      <use xlink:href="#CMR17-32" transform="translate(167.147489 0) scale(0.996264)"/>
      <use xlink:href="#CMR17-35" transform="translate(212.837966 0) scale(0.996264)"/>
      <use xlink:href="#CMR17-30" transform="translate(258.528443 0) scale(0.996264)"/>
      <use xlink:href="#CMR17-2e" transform="translate(304.21892 0) scale(0.996264)"/>
      <use xlink:href="#CMR17-30" transform="translate(329.089979 0) scale(0.996264)"/>
      <use xlink:href="#CMR17-30" transform="translate(374.780456 0) scale(0.996264)"/>
     </g>
    </g>
    <g id="line2d_52">
     <path d="M 948.117672 294.758576 
L 962.117672 294.758576 
L 976.117672 294.758576 
" style="fill: none; stroke: #e7cb94; stroke-width: 2; stroke-linecap: round"/>
    </g>
    <g id="text_26">
     <!-- t = 500.00 -->
     <g style="fill: #262626" transform="translate(987.317672 299.658576) scale(0.14 -0.14)">
      <use xlink:href="#CMR17-74" transform="scale(0.996264)"/>
      <use xlink:href="#CMR17-3d" transform="translate(65.356734 0) scale(0.996264)"/>
      <use xlink:href="#CMR17-35" transform="translate(167.147489 0) scale(0.996264)"/>
      <use xlink:href="#CMR17-30" transform="translate(212.837966 0) scale(0.996264)"/>
      <use xlink:href="#CMR17-30" transform="translate(258.528443 0) scale(0.996264)"/>
      <use xlink:href="#CMR17-2e" transform="translate(304.21892 0) scale(0.996264)"/>
      <use xlink:href="#CMR17-30" transform="translate(329.089979 0) scale(0.996264)"/>
      <use xlink:href="#CMR17-30" transform="translate(374.780456 0) scale(0.996264)"/>
     </g>
    </g>
    <g id="line2d_53">
     <path d="M 948.117672 314.270604 
L 962.117672 314.270604 
L 976.117672 314.270604 
" style="fill: none; stroke: #ad494a; stroke-width: 2; stroke-linecap: round"/>
    </g>
    <g id="text_27">
     <!-- t = 750.00 -->
     <g style="fill: #262626" transform="translate(987.317672 319.170604) scale(0.14 -0.14)">
      <use xlink:href="#CMR17-74" transform="scale(0.996264)"/>
      <use xlink:href="#CMR17-3d" transform="translate(65.356734 0) scale(0.996264)"/>
      <use xlink:href="#CMR17-37" transform="translate(167.147489 0) scale(0.996264)"/>
      <use xlink:href="#CMR17-35" transform="translate(212.837966 0) scale(0.996264)"/>
      <use xlink:href="#CMR17-30" transform="translate(258.528443 0) scale(0.996264)"/>
      <use xlink:href="#CMR17-2e" transform="translate(304.21892 0) scale(0.996264)"/>
      <use xlink:href="#CMR17-30" transform="translate(329.089979 0) scale(0.996264)"/>
      <use xlink:href="#CMR17-30" transform="translate(374.780456 0) scale(0.996264)"/>
     </g>
    </g>
    <g id="line2d_54">
     <path d="M 948.117672 333.782633 
L 962.117672 333.782633 
L 976.117672 333.782633 
" style="fill: none; stroke: #e7969c; stroke-width: 2; stroke-linecap: round"/>
    </g>
    <g id="text_28">
     <!-- t = 1000.00 -->
     <g style="fill: #262626" transform="translate(987.317672 338.682633) scale(0.14 -0.14)">
      <use xlink:href="#CMR17-74" transform="scale(0.996264)"/>
      <use xlink:href="#CMR17-3d" transform="translate(65.356734 0) scale(0.996264)"/>
      <use xlink:href="#CMR17-31" transform="translate(167.147489 0) scale(0.996264)"/>
      <use xlink:href="#CMR17-30" transform="translate(212.837966 0) scale(0.996264)"/>
      <use xlink:href="#CMR17-30" transform="translate(258.528443 0) scale(0.996264)"/>
      <use xlink:href="#CMR17-30" transform="translate(304.21892 0) scale(0.996264)"/>
      <use xlink:href="#CMR17-2e" transform="translate(349.909397 0) scale(0.996264)"/>
      <use xlink:href="#CMR17-30" transform="translate(374.780456 0) scale(0.996264)"/>
      <use xlink:href="#CMR17-30" transform="translate(420.470933 0) scale(0.996264)"/>
     </g>
    </g>
    <g id="line2d_55">
     <path d="M 948.117672 353.294661 
L 962.117672 353.294661 
L 976.117672 353.294661 
" style="fill: none; stroke: #a55194; stroke-width: 2; stroke-linecap: round"/>
    </g>
    <g id="text_29">
     <!-- t = 1250.00 -->
     <g style="fill: #262626" transform="translate(987.317672 358.194661) scale(0.14 -0.14)">
      <use xlink:href="#CMR17-74" transform="scale(0.996264)"/>
      <use xlink:href="#CMR17-3d" transform="translate(65.356734 0) scale(0.996264)"/>
      <use xlink:href="#CMR17-31" transform="translate(167.147489 0) scale(0.996264)"/>
      <use xlink:href="#CMR17-32" transform="translate(212.837966 0) scale(0.996264)"/>
      <use xlink:href="#CMR17-35" transform="translate(258.528443 0) scale(0.996264)"/>
      <use xlink:href="#CMR17-30" transform="translate(304.21892 0) scale(0.996264)"/>
      <use xlink:href="#CMR17-2e" transform="translate(349.909397 0) scale(0.996264)"/>
      <use xlink:href="#CMR17-30" transform="translate(374.780456 0) scale(0.996264)"/>
      <use xlink:href="#CMR17-30" transform="translate(420.470933 0) scale(0.996264)"/>
     </g>
    </g>
    <g id="line2d_56">
     <path d="M 948.117672 372.806689 
L 962.117672 372.806689 
L 976.117672 372.806689 
" style="fill: none; stroke: #de9ed6; stroke-width: 2; stroke-linecap: round"/>
    </g>
    <g id="text_30">
     <!-- t = 1500.00 -->
     <g style="fill: #262626" transform="translate(987.317672 377.706689) scale(0.14 -0.14)">
      <use xlink:href="#CMR17-74" transform="scale(0.996264)"/>
      <use xlink:href="#CMR17-3d" transform="translate(65.356734 0) scale(0.996264)"/>
      <use xlink:href="#CMR17-31" transform="translate(167.147489 0) scale(0.996264)"/>
      <use xlink:href="#CMR17-35" transform="translate(212.837966 0) scale(0.996264)"/>
      <use xlink:href="#CMR17-30" transform="translate(258.528443 0) scale(0.996264)"/>
      <use xlink:href="#CMR17-30" transform="translate(304.21892 0) scale(0.996264)"/>
      <use xlink:href="#CMR17-2e" transform="translate(349.909397 0) scale(0.996264)"/>
      <use xlink:href="#CMR17-30" transform="translate(374.780456 0) scale(0.996264)"/>
      <use xlink:href="#CMR17-30" transform="translate(420.470933 0) scale(0.996264)"/>
     </g>
    </g>
   </g>
  </g>
  <g id="text_31">
   <!-- adhesivity -->
   <g style="fill: #262626" transform="translate(501.333696 24.803515) scale(0.192 -0.192)">
    <defs>
     <path id="CMR17-61" d="M 2304 1653 
C 2304 2072 2304 2294 2035 2543 
C 1798 2752 1523 2816 1306 2816 
C 800 2816 435 2407 435 1971 
C 435 1728 627 1728 666 1728 
C 749 1728 896 1778 896 1954 
C 896 2112 774 2181 666 2181 
C 640 2181 608 2174 589 2168 
C 723 2592 1069 2714 1293 2714 
C 1613 2714 1965 2429 1965 1885 
L 1965 1600 
C 1587 1600 1133 1549 774 1357 
C 371 1133 256 813 256 570 
C 256 77 832 -64 1171 -64 
C 1523 -64 1850 139 1990 511 
C 2003 233 2182 -18 2464 -18 
C 2598 -18 2938 70 2938 567 
L 2938 920 
L 2822 920 
L 2822 562 
C 2822 178 2650 128 2566 128 
C 2304 128 2304 458 2304 738 
L 2304 1653 
z
M 1965 870 
C 1965 317 1568 38 1216 38 
C 896 38 646 275 646 570 
C 646 761 730 1100 1101 1305 
C 1408 1478 1760 1504 1965 1504 
L 1965 870 
z
" transform="scale(0.015625)"/>
     <path id="CMR17-64" d="M 1869 4326 
L 1869 4160 
C 2246 4160 2304 4122 2304 3820 
L 2304 2345 
C 2278 2377 2016 2790 1498 2790 
C 845 2790 211 2208 211 1364 
C 211 525 806 -64 1434 -64 
C 1978 -64 2259 337 2291 380 
L 2291 -63 
L 3066 -63 
L 3066 128 
C 2688 128 2630 166 2630 473 
L 2630 4396 
L 1869 4326 
z
M 2291 755 
C 2291 563 2176 390 2029 262 
C 1811 70 1594 38 1472 38 
C 1286 38 621 134 621 1356 
C 621 2612 1363 2688 1530 2688 
C 1824 2688 2061 2522 2208 2291 
C 2291 2157 2291 2138 2291 2023 
L 2291 755 
z
" transform="scale(0.015625)"/>
     <path id="CMR17-68" d="M 2656 1933 
C 2656 2259 2592 2790 1837 2790 
C 1312 2790 1056 2368 979 2157 
L 973 2157 
L 973 4396 
L 211 4326 
L 211 4160 
C 589 4160 646 4122 646 3817 
L 646 426 
C 646 184 621 153 211 153 
L 211 -13 
C 365 0 646 0 813 0 
C 979 0 1267 0 1421 -13 
L 1421 153 
C 1011 153 986 178 986 428 
L 986 1658 
C 986 2247 1344 2688 1792 2688 
C 2266 2688 2317 2266 2317 1958 
L 2317 428 
C 2317 184 2291 153 1882 153 
L 1882 -13 
C 2035 0 2317 0 2483 0 
C 2650 0 2938 0 3091 -13 
L 3091 153 
C 2682 153 2656 178 2656 428 
L 2656 1933 
z
" transform="scale(0.015625)"/>
     <path id="CMR17-73" d="M 1978 2697 
C 1978 2813 1971 2819 1933 2819 
C 1907 2819 1901 2813 1824 2717 
C 1805 2691 1747 2626 1728 2601 
C 1523 2819 1235 2819 1126 2819 
C 416 2819 160 2447 160 2076 
C 160 1498 813 1365 998 1325 
C 1402 1243 1542 1217 1677 1101 
C 1760 1025 1901 884 1901 654 
C 1901 384 1747 38 1158 38 
C 602 38 403 460 288 1021 
C 269 1110 269 1117 218 1117 
C 166 1117 160 1110 160 983 
L 160 63 
C 160 -51 166 -58 205 -58 
C 237 -58 243 -51 275 0 
C 314 57 410 211 448 276 
C 576 103 800 -64 1158 -64 
C 1792 -64 2131 283 2131 784 
C 2131 1112 1958 1285 1875 1362 
C 1683 1561 1459 1606 1190 1657 
C 838 1735 390 1825 390 2217 
C 390 2383 480 2737 1126 2737 
C 1811 2737 1850 2094 1862 1888 
C 1869 1856 1901 1849 1920 1849 
C 1978 1849 1978 1869 1978 1978 
L 1978 2697 
z
" transform="scale(0.015625)"/>
     <path id="CMR17-76" d="M 2502 2163 
C 2560 2304 2662 2560 3034 2560 
L 3034 2726 
C 2912 2726 2752 2726 2630 2726 
C 2496 2726 2285 2726 2157 2732 
L 2157 2566 
C 2317 2553 2406 2477 2406 2311 
C 2406 2253 2406 2240 2368 2151 
L 1664 377 
L 902 2286 
C 864 2369 864 2381 864 2407 
C 864 2560 1075 2560 1171 2560 
L 1171 2732 
C 1018 2726 736 2726 576 2726 
C 403 2726 205 2726 64 2732 
L 64 2560 
C 307 2560 442 2560 518 2362 
L 1446 44 
C 1485 -51 1491 -64 1549 -64 
C 1606 -64 1613 -51 1651 44 
L 2502 2163 
z
" transform="scale(0.015625)"/>
     <path id="CMR17-79" d="M 2496 2197 
C 2656 2586 2944 2586 3034 2586 
L 3034 2752 
C 2912 2752 2752 2752 2630 2752 
C 2496 2752 2285 2752 2157 2758 
L 2157 2592 
C 2400 2573 2406 2394 2406 2343 
C 2406 2280 2394 2248 2362 2171 
L 1664 449 
L 902 2306 
C 870 2382 870 2426 870 2433 
C 870 2573 1018 2586 1171 2586 
L 1171 2758 
C 1018 2752 742 2752 582 2752 
C 410 2752 205 2752 64 2758 
L 64 2586 
C 410 2586 448 2554 531 2350 
L 1485 15 
C 1197 -738 1030 -1178 627 -1178 
C 557 -1178 397 -1159 282 -1044 
C 429 -1031 493 -942 493 -833 
C 493 -725 416 -629 288 -629 
C 147 -629 77 -725 77 -840 
C 77 -1095 339 -1280 627 -1280 
C 998 -1280 1229 -922 1357 -604 
L 2496 2197 
z
" transform="scale(0.015625)"/>
    </defs>
    <use xlink:href="#CMR17-61" transform="scale(0.996264)"/>
    <use xlink:href="#CMR17-64" transform="translate(45.690477 0) scale(0.996264)"/>
    <use xlink:href="#CMR17-68" transform="translate(96.585847 0) scale(0.996264)"/>
    <use xlink:href="#CMR17-65" transform="translate(147.481217 0) scale(0.996264)"/>
    <use xlink:href="#CMR17-73" transform="translate(187.966877 0) scale(0.996264)"/>
    <use xlink:href="#CMR17-69" transform="translate(223.768215 0) scale(0.996264)"/>
    <use xlink:href="#CMR17-76" transform="translate(248.639273 0) scale(0.996264)"/>
    <use xlink:href="#CMR17-69" transform="translate(296.932189 0) scale(0.996264)"/>
    <use xlink:href="#CMR17-74" transform="translate(321.803248 0) scale(0.996264)"/>
    <use xlink:href="#CMR17-79" transform="translate(354.481561 0) scale(0.996264)"/>
   </g>
  </g>
 </g>
 <defs>
  <clipPath id="p05df66428e">
   <rect x="41.730582" y="51.564121" width="893.78709" height="469.58891"/>
  </clipPath>
 </defs>
</svg>
