<?xml version="1.0" encoding="utf-8" standalone="no"?>
<!DOCTYPE svg PUBLIC "-//W3C//DTD SVG 1.1//EN"
  "http://www.w3.org/Graphics/SVG/1.1/DTD/svg11.dtd">
<svg xmlns:xlink="http://www.w3.org/1999/xlink" width="1080pt" height="756pt" viewBox="0 0 1080 756" xmlns="http://www.w3.org/2000/svg" version="1.1">
 <metadata>
  <rdf:RDF xmlns:dc="http://purl.org/dc/elements/1.1/" xmlns:cc="http://creativecommons.org/ns#" xmlns:rdf="http://www.w3.org/1999/02/22-rdf-syntax-ns#">
   <cc:Work>
    <dc:type rdf:resource="http://purl.org/dc/dcmitype/StillImage"/>
    <dc:date>2024-07-31T08:52:12.064280</dc:date>
    <dc:format>image/svg+xml</dc:format>
    <dc:creator>
     <cc:Agent>
      <dc:title>Matplotlib v3.9.0, https://matplotlib.org/</dc:title>
     </cc:Agent>
    </dc:creator>
   </cc:Work>
  </rdf:RDF>
 </metadata>
 <defs>
  <style type="text/css">*{stroke-linejoin: round; stroke-linecap: butt}</style>
 </defs>
 <g id="figure_1">
  <g id="patch_1">
   <path d="M 0 756 
L 1080 756 
L 1080 0 
L 0 0 
z
" style="fill: #ffffff"/>
  </g>
  <g id="axes_1">
   <g id="patch_2">
    <path d="M 88.532127 678.237256 
L 1041.12 678.237256 
L 1041.12 38.88 
L 88.532127 38.88 
z
" style="fill: #ffffff"/>
   </g>
   <g id="matplotlib.axis_1">
    <g id="xtick_1">
     <g id="line2d_1">
      <defs>
       <path id="mbab75d9a4c" d="M 0 0 
L 0 3.5 
" style="stroke: #262626; stroke-width: 0.8"/>
      </defs>
      <g>
       <use xlink:href="#mbab75d9a4c" x="88.532127" y="678.237256" style="fill: #262626; stroke: #262626; stroke-width: 0.8"/>
      </g>
     </g>
     <g id="text_1">
      <!-- $\mathdefault{0.0}$ -->
      <g style="fill: #262626" transform="translate(67.206064 710.143856) scale(0.36 -0.36)">
       <defs>
        <path id="CMR17-30" d="M 2688 2025 
C 2688 2416 2682 3080 2413 3591 
C 2176 4039 1798 4198 1466 4198 
C 1158 4198 768 4058 525 3597 
C 269 3118 243 2524 243 2025 
C 243 1661 250 1106 448 619 
C 723 -39 1216 -128 1466 -128 
C 1760 -128 2208 -7 2470 600 
C 2662 1042 2688 1559 2688 2025 
z
M 1466 -26 
C 1056 -26 813 325 723 812 
C 653 1188 653 1738 653 2096 
C 653 2588 653 2997 736 3387 
C 858 3929 1216 4096 1466 4096 
C 1728 4096 2067 3923 2189 3400 
C 2272 3036 2278 2607 2278 2096 
C 2278 1680 2278 1169 2202 792 
C 2067 95 1690 -26 1466 -26 
z
" transform="scale(0.015625)"/>
        <path id="CMMI12-3a" d="M 1178 307 
C 1178 492 1024 619 870 619 
C 685 619 557 466 557 313 
C 557 128 710 0 864 0 
C 1050 0 1178 153 1178 307 
z
" transform="scale(0.015625)"/>
       </defs>
       <use xlink:href="#CMR17-30" transform="scale(0.996264)"/>
       <use xlink:href="#CMMI12-3a" transform="translate(45.690477 0) scale(0.996264)"/>
       <use xlink:href="#CMR17-30" transform="translate(72.787654 0) scale(0.996264)"/>
      </g>
     </g>
    </g>
    <g id="xtick_2">
     <g id="line2d_2">
      <g>
       <use xlink:href="#mbab75d9a4c" x="269.977436" y="678.237256" style="fill: #262626; stroke: #262626; stroke-width: 0.8"/>
      </g>
     </g>
     <g id="text_2">
      <!-- $\mathdefault{0.2}$ -->
      <g style="fill: #262626" transform="translate(248.651373 710.143856) scale(0.36 -0.36)">
       <defs>
        <path id="CMR17-32" d="M 2669 989 
L 2554 989 
C 2490 536 2438 459 2413 420 
C 2381 369 1920 369 1830 369 
L 602 369 
C 832 619 1280 1072 1824 1597 
C 2214 1967 2669 2402 2669 3035 
C 2669 3790 2067 4224 1395 4224 
C 691 4224 262 3604 262 3030 
C 262 2780 448 2748 525 2748 
C 589 2748 781 2787 781 3010 
C 781 3207 614 3264 525 3264 
C 486 3264 448 3258 422 3245 
C 544 3790 915 4058 1306 4058 
C 1862 4058 2227 3617 2227 3035 
C 2227 2479 1901 2000 1536 1584 
L 262 146 
L 262 0 
L 2515 0 
L 2669 989 
z
" transform="scale(0.015625)"/>
       </defs>
       <use xlink:href="#CMR17-30" transform="scale(0.996264)"/>
       <use xlink:href="#CMMI12-3a" transform="translate(45.690477 0) scale(0.996264)"/>
       <use xlink:href="#CMR17-32" transform="translate(72.787654 0) scale(0.996264)"/>
      </g>
     </g>
    </g>
    <g id="xtick_3">
     <g id="line2d_3">
      <g>
       <use xlink:href="#mbab75d9a4c" x="451.422745" y="678.237256" style="fill: #262626; stroke: #262626; stroke-width: 0.8"/>
      </g>
     </g>
     <g id="text_3">
      <!-- $\mathdefault{0.4}$ -->
      <g style="fill: #262626" transform="translate(430.096682 710.143856) scale(0.36 -0.36)">
       <defs>
        <path id="CMR17-34" d="M 2150 4122 
C 2150 4256 2144 4256 2029 4256 
L 128 1254 
L 128 1088 
L 1779 1088 
L 1779 457 
C 1779 224 1766 160 1318 160 
L 1197 160 
L 1197 0 
C 1402 0 1747 0 1965 0 
C 2182 0 2528 0 2733 0 
L 2733 160 
L 2611 160 
C 2163 160 2150 224 2150 457 
L 2150 1088 
L 2803 1088 
L 2803 1254 
L 2150 1254 
L 2150 4122 
z
M 1798 3703 
L 1798 1254 
L 256 1254 
L 1798 3703 
z
" transform="scale(0.015625)"/>
       </defs>
       <use xlink:href="#CMR17-30" transform="scale(0.996264)"/>
       <use xlink:href="#CMMI12-3a" transform="translate(45.690477 0) scale(0.996264)"/>
       <use xlink:href="#CMR17-34" transform="translate(72.787654 0) scale(0.996264)"/>
      </g>
     </g>
    </g>
    <g id="xtick_4">
     <g id="line2d_4">
      <g>
       <use xlink:href="#mbab75d9a4c" x="632.868055" y="678.237256" style="fill: #262626; stroke: #262626; stroke-width: 0.8"/>
      </g>
     </g>
     <g id="text_4">
      <!-- $\mathdefault{0.6}$ -->
      <g style="fill: #262626" transform="translate(611.541991 710.143856) scale(0.36 -0.36)">
       <defs>
        <path id="CMR17-36" d="M 678 2176 
C 678 3690 1395 4032 1811 4032 
C 1946 4032 2272 4009 2400 3776 
C 2298 3776 2106 3776 2106 3553 
C 2106 3381 2246 3323 2336 3323 
C 2394 3323 2566 3348 2566 3560 
C 2566 3954 2246 4179 1805 4179 
C 1043 4179 243 3390 243 1984 
C 243 253 966 -128 1478 -128 
C 2099 -128 2688 427 2688 1283 
C 2688 2081 2170 2662 1517 2662 
C 1126 2662 838 2407 678 1960 
L 678 2176 
z
M 1478 25 
C 691 25 691 1200 691 1436 
C 691 1896 909 2560 1504 2560 
C 1613 2560 1926 2560 2138 2120 
C 2253 1870 2253 1609 2253 1289 
C 2253 944 2253 690 2118 434 
C 1978 171 1773 25 1478 25 
z
" transform="scale(0.015625)"/>
       </defs>
       <use xlink:href="#CMR17-30" transform="scale(0.996264)"/>
       <use xlink:href="#CMMI12-3a" transform="translate(45.690477 0) scale(0.996264)"/>
       <use xlink:href="#CMR17-36" transform="translate(72.787654 0) scale(0.996264)"/>
      </g>
     </g>
    </g>
    <g id="xtick_5">
     <g id="line2d_5">
      <g>
       <use xlink:href="#mbab75d9a4c" x="814.313364" y="678.237256" style="fill: #262626; stroke: #262626; stroke-width: 0.8"/>
      </g>
     </g>
     <g id="text_5">
      <!-- $\mathdefault{0.8}$ -->
      <g style="fill: #262626" transform="translate(792.9873 710.143856) scale(0.36 -0.36)">
       <defs>
        <path id="CMR17-38" d="M 1741 2264 
C 2144 2467 2554 2773 2554 3263 
C 2554 3841 1990 4179 1472 4179 
C 890 4179 378 3759 378 3180 
C 378 3021 416 2747 666 2505 
C 730 2442 998 2251 1171 2130 
C 883 1983 211 1634 211 934 
C 211 279 838 -128 1459 -128 
C 2144 -128 2720 362 2720 1010 
C 2720 1590 2330 1857 2074 2029 
L 1741 2264 
z
M 902 2822 
C 851 2854 595 3051 595 3351 
C 595 3739 998 4032 1459 4032 
C 1965 4032 2336 3676 2336 3262 
C 2336 2669 1670 2331 1638 2331 
C 1632 2331 1626 2331 1574 2370 
L 902 2822 
z
M 2080 1519 
C 2176 1449 2483 1240 2483 851 
C 2483 381 2010 25 1472 25 
C 890 25 448 438 448 940 
C 448 1443 838 1862 1280 2060 
L 2080 1519 
z
" transform="scale(0.015625)"/>
       </defs>
       <use xlink:href="#CMR17-30" transform="scale(0.996264)"/>
       <use xlink:href="#CMMI12-3a" transform="translate(45.690477 0) scale(0.996264)"/>
       <use xlink:href="#CMR17-38" transform="translate(72.787654 0) scale(0.996264)"/>
      </g>
     </g>
    </g>
    <g id="xtick_6">
     <g id="line2d_6">
      <g>
       <use xlink:href="#mbab75d9a4c" x="995.758673" y="678.237256" style="fill: #262626; stroke: #262626; stroke-width: 0.8"/>
      </g>
     </g>
     <g id="text_6">
      <!-- $\mathdefault{1.0}$ -->
      <g style="fill: #262626" transform="translate(974.432609 710.143856) scale(0.36 -0.36)">
       <defs>
        <path id="CMR17-31" d="M 1702 4058 
C 1702 4192 1696 4192 1606 4192 
C 1357 3916 979 3827 621 3827 
C 602 3827 570 3827 563 3808 
C 557 3795 557 3782 557 3648 
C 755 3648 1088 3686 1344 3839 
L 1344 461 
C 1344 236 1331 160 781 160 
L 589 160 
L 589 0 
C 896 0 1216 0 1523 0 
C 1830 0 2150 0 2458 0 
L 2458 160 
L 2266 160 
C 1715 160 1702 230 1702 458 
L 1702 4058 
z
" transform="scale(0.015625)"/>
       </defs>
       <use xlink:href="#CMR17-31" transform="scale(0.996264)"/>
       <use xlink:href="#CMMI12-3a" transform="translate(45.690477 0) scale(0.996264)"/>
       <use xlink:href="#CMR17-30" transform="translate(72.787654 0) scale(0.996264)"/>
      </g>
     </g>
    </g>
   </g>
   <g id="matplotlib.axis_2">
    <g id="ytick_1">
     <g id="line2d_7">
      <defs>
       <path id="mb32557f2a0" d="M 0 0 
L -3.5 0 
" style="stroke: #262626; stroke-width: 0.8"/>
      </defs>
      <g>
       <use xlink:href="#mb32557f2a0" x="88.532127" y="678.237256" style="fill: #262626; stroke: #262626; stroke-width: 0.8"/>
      </g>
     </g>
     <g id="text_7">
      <!-- $\mathdefault{0.0}$ -->
      <g style="fill: #262626" transform="translate(38.88 690.690556) scale(0.36 -0.36)">
       <use xlink:href="#CMR17-30" transform="scale(0.996264)"/>
       <use xlink:href="#CMMI12-3a" transform="translate(45.690477 0) scale(0.996264)"/>
       <use xlink:href="#CMR17-30" transform="translate(72.787654 0) scale(0.996264)"/>
      </g>
     </g>
    </g>
    <g id="ytick_2">
     <g id="line2d_8">
      <g>
       <use xlink:href="#mb32557f2a0" x="88.532127" y="678.223507" style="fill: #262626; stroke: #262626; stroke-width: 0.8"/>
      </g>
     </g>
     <g id="text_8">
      <!-- $\mathdefault{0.2}$ -->
      <g style="fill: #262626" transform="translate(38.88 690.676808) scale(0.36 -0.36)">
       <use xlink:href="#CMR17-30" transform="scale(0.996264)"/>
       <use xlink:href="#CMMI12-3a" transform="translate(45.690477 0) scale(0.996264)"/>
       <use xlink:href="#CMR17-32" transform="translate(72.787654 0) scale(0.996264)"/>
      </g>
     </g>
    </g>
    <g id="ytick_3">
     <g id="line2d_9">
      <g>
       <use xlink:href="#mb32557f2a0" x="88.532127" y="678.209759" style="fill: #262626; stroke: #262626; stroke-width: 0.8"/>
      </g>
     </g>
     <g id="text_9">
      <!-- $\mathdefault{0.4}$ -->
      <g style="fill: #262626" transform="translate(38.88 690.663059) scale(0.36 -0.36)">
       <use xlink:href="#CMR17-30" transform="scale(0.996264)"/>
       <use xlink:href="#CMMI12-3a" transform="translate(45.690477 0) scale(0.996264)"/>
       <use xlink:href="#CMR17-34" transform="translate(72.787654 0) scale(0.996264)"/>
      </g>
     </g>
    </g>
    <g id="ytick_4">
     <g id="line2d_10">
      <g>
       <use xlink:href="#mb32557f2a0" x="88.532127" y="678.19601" style="fill: #262626; stroke: #262626; stroke-width: 0.8"/>
      </g>
     </g>
     <g id="text_10">
      <!-- $\mathdefault{0.6}$ -->
      <g style="fill: #262626" transform="translate(38.88 690.64931) scale(0.36 -0.36)">
       <use xlink:href="#CMR17-30" transform="scale(0.996264)"/>
       <use xlink:href="#CMMI12-3a" transform="translate(45.690477 0) scale(0.996264)"/>
       <use xlink:href="#CMR17-36" transform="translate(72.787654 0) scale(0.996264)"/>
      </g>
     </g>
    </g>
    <g id="ytick_5">
     <g id="line2d_11">
      <g>
       <use xlink:href="#mb32557f2a0" x="88.532127" y="678.182261" style="fill: #262626; stroke: #262626; stroke-width: 0.8"/>
      </g>
     </g>
     <g id="text_11">
      <!-- $\mathdefault{0.8}$ -->
      <g style="fill: #262626" transform="translate(38.88 690.635561) scale(0.36 -0.36)">
       <use xlink:href="#CMR17-30" transform="scale(0.996264)"/>
       <use xlink:href="#CMMI12-3a" transform="translate(45.690477 0) scale(0.996264)"/>
       <use xlink:href="#CMR17-38" transform="translate(72.787654 0) scale(0.996264)"/>
      </g>
     </g>
    </g>
    <g id="ytick_6">
     <g id="line2d_12">
      <g>
       <use xlink:href="#mb32557f2a0" x="88.532127" y="678.168513" style="fill: #262626; stroke: #262626; stroke-width: 0.8"/>
      </g>
     </g>
     <g id="text_12">
      <!-- $\mathdefault{1.0}$ -->
      <g style="fill: #262626" transform="translate(38.88 690.621813) scale(0.36 -0.36)">
       <use xlink:href="#CMR17-31" transform="scale(0.996264)"/>
       <use xlink:href="#CMMI12-3a" transform="translate(45.690477 0) scale(0.996264)"/>
       <use xlink:href="#CMR17-30" transform="translate(72.787654 0) scale(0.996264)"/>
      </g>
     </g>
    </g>
    <g id="ytick_7">
     <g id="line2d_13">
      <g>
       <use xlink:href="#mb32557f2a0" x="88.532127" y="678.154764" style="fill: #262626; stroke: #262626; stroke-width: 0.8"/>
      </g>
     </g>
     <g id="text_13">
      <!-- $\mathdefault{1.2}$ -->
      <g style="fill: #262626" transform="translate(38.88 690.608064) scale(0.36 -0.36)">
       <use xlink:href="#CMR17-31" transform="scale(0.996264)"/>
       <use xlink:href="#CMMI12-3a" transform="translate(45.690477 0) scale(0.996264)"/>
       <use xlink:href="#CMR17-32" transform="translate(72.787654 0) scale(0.996264)"/>
      </g>
     </g>
    </g>
   </g>
   <g id="line2d_14">
    <path d="M 88.532127 678.237256 
L 995.758673 678.237256 
L 995.758673 678.237256 
" clip-path="url(#p0b3cbdbc52)" style="fill: none; stroke: #1f77b4; stroke-width: 5; stroke-linecap: round"/>
   </g>
   <g id="line2d_15">
    <path d="M 88.532127 669.833076 
L 179.254782 670.909405 
L 288.121967 671.963653 
L 409.085507 672.907929 
L 554.241754 673.80912 
L 723.590709 674.628872 
L 923.180549 675.36772 
L 995.758673 675.590114 
L 995.758673 675.590114 
" clip-path="url(#p0b3cbdbc52)" style="fill: none; stroke: #ff7f0e; stroke-width: 5; stroke-linecap: round"/>
   </g>
   <g id="line2d_16">
    <path d="M 88.532127 657.382124 
L 124.821189 659.151897 
L 161.110251 660.689525 
L 203.44749 662.24593 
L 251.832905 663.772451 
L 306.266498 665.234225 
L 366.748268 666.608497 
L 433.278215 667.882407 
L 505.856338 669.050496 
L 590.530816 670.186921 
L 687.301647 671.256904 
L 796.168833 672.239774 
L 923.180549 673.165361 
L 995.758673 673.611088 
L 995.758673 673.611088 
" clip-path="url(#p0b3cbdbc52)" style="fill: none; stroke: #2ca02c; stroke-width: 5; stroke-linecap: round"/>
   </g>
   <g id="line2d_17">
    <path d="M 88.532127 638.649468 
L 106.676658 641.32611 
L 124.821189 643.698655 
L 142.96572 645.815998 
L 161.110251 647.717134 
L 179.254782 649.433431 
L 203.44749 651.477798 
L 227.640198 653.28704 
L 251.832905 654.899194 
L 282.07379 656.682772 
L 312.314675 658.251738 
L 348.603737 659.901486 
L 384.892799 661.341919 
L 427.230038 662.806538 
L 475.615453 664.249446 
L 530.049046 665.637032 
L 590.530816 666.946798 
L 657.060762 668.165396 
L 735.687063 669.371719 
L 826.409718 670.521494 
L 929.228726 671.586882 
L 995.758673 672.171112 
L 995.758673 672.171112 
" clip-path="url(#p0b3cbdbc52)" style="fill: none; stroke: #d62728; stroke-width: 5; stroke-linecap: round"/>
   </g>
   <g id="line2d_18">
    <path d="M 88.532127 610.041668 
L 94.580304 612.505492 
L 100.628481 614.80894 
L 106.676658 616.967179 
L 112.724835 618.993588 
L 124.821189 622.696346 
L 136.917543 625.99604 
L 149.013897 628.95515 
L 161.110251 631.623712 
L 173.206605 634.042512 
L 185.302959 636.244978 
L 197.399313 638.258782 
L 209.495667 640.107107 
L 227.640198 642.6112 
L 245.784728 644.840114 
L 263.929259 646.83661 
L 282.07379 648.635075 
L 306.266498 650.772359 
L 330.459206 652.659282 
L 354.651914 654.337045 
L 384.892799 656.189166 
L 415.133684 657.814936 
L 451.422745 659.520834 
L 487.711807 661.007273 
L 530.049046 662.515824 
L 578.434462 663.999172 
L 632.868055 665.422991 
L 693.349824 666.764573 
L 759.879771 668.010702 
L 838.506072 669.242317 
L 923.180549 670.343212 
L 995.758673 671.141395 
L 995.758673 671.141395 
" clip-path="url(#p0b3cbdbc52)" style="fill: none; stroke: #9467bd; stroke-width: 5; stroke-linecap: round"/>
   </g>
   <g id="line2d_19">
    <path d="M 88.532127 565.758979 
L 94.580304 571.960677 
L 100.628481 577.539385 
L 106.676658 582.584914 
L 112.724835 587.170671 
L 118.773012 591.356785 
L 124.821189 595.193798 
L 130.869366 598.723612 
L 136.917543 601.98172 
L 142.96572 604.998525 
L 149.013897 607.799938 
L 155.062074 610.408177 
L 161.110251 612.842489 
L 167.158428 615.119906 
L 173.206605 617.254939 
L 179.254782 619.260681 
L 191.351136 622.928304 
L 203.44749 626.199349 
L 215.543844 629.13476 
L 227.640198 631.783533 
L 239.736552 634.185582 
L 251.832905 636.373738 
L 263.929259 638.375258 
L 276.025613 640.212959 
L 294.170144 642.703515 
L 312.314675 644.92126 
L 330.459206 646.908475 
L 348.603737 648.699041 
L 372.796445 650.827598 
L 396.989153 652.707376 
L 421.181861 654.379211 
L 451.422745 656.225251 
L 481.66363 657.846054 
L 517.952692 659.547117 
L 554.241754 661.029689 
L 596.578993 662.534585 
L 644.964408 664.014639 
L 699.398001 665.435572 
L 759.879771 666.774663 
L 826.409718 668.018693 
L 905.036018 669.248441 
L 989.710496 670.347828 
L 995.758673 670.418923 
L 995.758673 670.418923 
" clip-path="url(#p0b3cbdbc52)" style="fill: none; stroke: #8c564b; stroke-width: 5; stroke-linecap: round"/>
   </g>
   <g id="line2d_20">
    <path d="M 88.532127 497.591066 
L 94.580304 511.990547 
L 100.628481 524.577256 
L 106.676658 535.558718 
L 112.724835 545.183303 
L 118.773012 553.63883 
L 124.821189 561.120322 
L 130.869366 567.786102 
L 136.917543 573.762876 
L 142.96572 579.152661 
L 149.013897 584.038056 
L 155.062074 588.486658 
L 161.110251 592.55446 
L 167.158428 596.288679 
L 173.206605 599.728462 
L 179.254782 602.907537 
L 185.302959 605.854286 
L 191.351136 608.593369 
L 197.399313 611.145842 
L 203.44749 613.530274 
L 209.495667 615.76257 
L 215.543844 617.856959 
L 227.640198 621.679771 
L 239.736552 625.081711 
L 251.832905 628.128503 
L 263.929259 630.872862 
L 276.025613 633.35757 
L 288.121967 635.61759 
L 300.218321 637.682044 
L 312.314675 639.575122 
L 330.459206 642.137177 
L 348.603737 644.415029 
L 366.748268 646.453255 
L 384.892799 648.287559 
L 409.085507 650.465252 
L 433.278215 652.385879 
L 457.470922 654.09204 
L 487.711807 655.973799 
L 517.952692 657.62409 
L 554.241754 659.354208 
L 590.530816 660.86051 
L 632.868055 662.387981 
L 681.25347 663.888768 
L 735.687063 665.328206 
L 796.168833 666.683523 
L 862.698779 667.941563 
L 935.276903 669.096525 
L 995.758673 669.921177 
L 995.758673 669.921177 
" clip-path="url(#p0b3cbdbc52)" style="fill: none; stroke: #e377c2; stroke-width: 5; stroke-linecap: round"/>
   </g>
   <g id="line2d_21">
    <path d="M 88.532127 406.878909 
L 94.580304 432.933697 
L 100.628481 455.632334 
L 106.676658 475.354989 
L 112.724835 492.560472 
L 118.773012 507.58307 
L 124.821189 520.709135 
L 130.869366 532.182456 
L 136.917543 542.220803 
L 142.96572 551.024447 
L 149.013897 558.794646 
L 155.062074 565.70356 
L 161.110251 571.886981 
L 167.158428 577.454114 
L 173.206605 582.492442 
L 179.254782 587.074281 
L 185.302959 591.258793 
L 191.351136 595.09567 
L 197.399313 598.62633 
L 203.44749 601.886212 
L 209.495667 604.905118 
L 215.543844 607.70898 
L 221.592021 610.319795 
L 227.640198 612.756892 
L 233.688375 615.037 
L 239.736552 617.174776 
L 245.784728 619.183178 
L 257.881082 622.855849 
L 269.977436 626.131694 
L 282.07379 629.071505 
L 294.170144 631.724269 
L 306.266498 634.130004 
L 318.362852 636.321461 
L 330.459206 638.32603 
L 342.55556 640.166456 
L 360.700091 642.660706 
L 378.844622 644.88172 
L 396.989153 646.871761 
L 415.133684 648.664876 
L 439.326392 650.796353 
L 463.519099 652.678679 
L 487.711807 654.352697 
L 517.952692 656.201097 
L 548.193577 657.823949 
L 584.482639 659.527095 
L 620.771701 661.011418 
L 663.108939 662.518052 
L 711.494355 663.999759 
L 765.927948 665.422239 
L 826.409718 666.762755 
L 892.939664 668.008071 
L 971.565965 669.239063 
L 995.758673 669.57473 
L 995.758673 669.57473 
" clip-path="url(#p0b3cbdbc52)" style="fill: none; stroke: #7f7f7f; stroke-width: 5; stroke-linecap: round"/>
   </g>
   <g id="line2d_22">
    <path d="M 88.532127 302.046793 
L 94.580304 341.800889 
L 100.628481 376.359198 
L 106.676658 406.323505 
L 112.724835 432.40753 
L 118.773012 455.133535 
L 124.821189 474.947825 
L 130.869366 492.229269 
L 136.917543 507.31311 
L 142.96572 520.490631 
L 149.013897 531.999267 
L 155.062074 542.056161 
L 161.110251 550.871951 
L 167.158428 558.654137 
L 173.206605 565.574104 
L 179.254782 571.768167 
L 185.302959 577.344627 
L 191.351136 582.391685 
L 197.399313 586.9811 
L 203.44749 591.172657 
L 209.495667 595.015703 
L 215.543844 598.552168 
L 221.592021 601.817106 
L 227.640198 604.840696 
L 233.688375 607.648686 
L 239.736552 610.263295 
L 245.784728 612.703874 
L 251.832905 614.987087 
L 257.881082 617.127749 
L 263.929259 619.138782 
L 276.025613 622.816202 
L 288.121967 626.095912 
L 300.218321 629.039063 
L 312.314675 631.694736 
L 324.411029 634.102982 
L 336.507383 636.296629 
L 348.603737 638.303114 
L 360.700091 640.145227 
L 378.844622 642.641697 
L 396.989153 644.864534 
L 415.133684 646.856163 
L 433.278215 648.650598 
L 457.470922 650.783607 
L 481.66363 652.667205 
L 505.856338 654.342303 
L 536.097223 656.191827 
L 566.338108 657.815608 
L 602.62717 659.519678 
L 638.916232 661.004773 
L 681.25347 662.512161 
L 729.638886 663.994561 
L 784.072479 665.417664 
L 844.554248 666.758733 
L 911.084195 668.004546 
L 989.710496 669.236 
L 995.758673 669.32168 
L 995.758673 669.32168 
" clip-path="url(#p0b3cbdbc52)" style="fill: none; stroke: #bcbd22; stroke-width: 5; stroke-linecap: round"/>
   </g>
   <g id="line2d_23">
    <path d="M 88.532127 188.574121 
L 94.580304 243.340832 
L 100.628481 290.871392 
L 106.676658 332.017804 
L 112.724835 367.777807 
L 118.773012 398.883795 
L 124.821189 425.960845 
L 130.869366 449.539115 
L 136.917543 470.086778 
L 142.96572 488.010534 
L 149.013897 503.641567 
L 155.062074 517.278408 
L 161.110251 529.186268 
L 167.158428 539.591429 
L 173.206605 548.70294 
L 179.254782 556.731011 
L 185.302959 563.857592 
L 191.351136 570.226732 
L 197.399313 575.952832 
L 203.44749 581.12889 
L 209.495667 585.830238 
L 215.543844 590.119555 
L 221.592021 594.048466 
L 227.640198 597.660639 
L 233.688375 600.99282 
L 239.736552 604.076294 
L 245.784728 606.937948 
L 251.832905 609.600712 
L 257.881082 612.084703 
L 263.929259 614.407314 
L 269.977436 616.583707 
L 276.025613 618.627268 
L 288.121967 622.361444 
L 300.218321 625.689089 
L 312.314675 628.672943 
L 324.411029 631.363545 
L 336.507383 633.801867 
L 348.603737 636.021774 
L 360.700091 638.051155 
L 372.796445 639.913473 
L 390.940976 642.43595 
L 409.085507 644.680663 
L 427.230038 646.690842 
L 445.374568 648.501196 
L 469.567276 650.652053 
L 493.759984 652.550491 
L 517.952692 654.23807 
L 548.193577 656.100591 
L 578.434462 657.735071 
L 614.723524 659.449704 
L 651.012585 660.943415 
L 693.349824 662.458996 
L 741.73524 663.948928 
L 796.168833 665.378751 
L 856.650602 666.725718 
L 923.180549 667.976622 
L 995.758673 669.125549 
L 995.758673 669.125549 
" clip-path="url(#p0b3cbdbc52)" style="fill: none; stroke: #17becf; stroke-width: 5; stroke-linecap: round"/>
   </g>
   <g id="line2d_24">
    <path d="M 88.532127 69.325584 
L 94.580304 140.018867 
L 100.628481 201.291421 
L 106.676658 254.266722 
L 112.724835 300.24768 
L 118.773012 340.192967 
L 124.821189 374.919916 
L 130.869366 405.121178 
L 136.917543 431.407261 
L 142.96572 454.307727 
L 149.013897 474.254041 
L 155.062074 491.634304 
L 161.110251 506.792305 
L 167.158428 520.018713 
L 173.206605 531.566138 
L 179.254782 541.667786 
L 185.302959 550.52498 
L 191.351136 558.342388 
L 197.399313 565.292709 
L 203.44749 571.513008 
L 209.495667 577.112248 
L 215.543844 582.179311 
L 221.592021 586.786326 
L 227.640198 590.993318 
L 233.688375 594.850143 
L 239.736552 598.398712 
L 245.784728 601.674614 
L 251.832905 604.707914 
L 257.881082 607.524691 
L 263.929259 610.147299 
L 269.977436 612.595069 
L 276.025613 614.884919 
L 282.07379 617.031551 
L 288.121967 619.047961 
L 300.218321 622.734898 
L 312.314675 626.022744 
L 324.411029 628.972839 
L 336.507383 631.634426 
L 348.603737 634.047825 
L 360.700091 636.245987 
L 372.796445 638.256414 
L 384.892799 640.102047 
L 403.03733 642.602982 
L 421.181861 644.829647 
L 439.326392 646.824498 
L 457.470922 648.621739 
L 481.66363 650.757929 
L 505.856338 652.644143 
L 530.049046 654.321482 
L 560.289931 656.173348 
L 590.530816 657.799077 
L 626.819878 659.505077 
L 663.108939 660.991764 
L 705.446178 662.500669 
L 753.831594 663.984501 
L 808.265187 665.408891 
L 868.746956 666.751112 
L 935.276903 667.997934 
L 995.758673 668.965862 
L 995.758673 668.965862 
" clip-path="url(#p0b3cbdbc52)" style="fill: none; stroke: #17becf; stroke-width: 5; stroke-linecap: round"/>
   </g>
   <g id="patch_3">
    <path d="M 88.532127 678.237256 
L 88.532127 38.88 
" style="fill: none; stroke: #262626; stroke-width: 0.8; stroke-linejoin: miter; stroke-linecap: square"/>
   </g>
   <g id="patch_4">
    <path d="M 88.532127 678.237256 
L 1041.12 678.237256 
" style="fill: none; stroke: #262626; stroke-width: 0.8; stroke-linejoin: miter; stroke-linecap: square"/>
   </g>
  </g>
 </g>
 <defs>
  <clipPath id="p0b3cbdbc52">
   <rect x="88.532127" y="38.88" width="952.587873" height="639.357256"/>
  </clipPath>
 </defs>
</svg>
