<?xml version="1.0" encoding="utf-8" standalone="no"?>
<!DOCTYPE svg PUBLIC "-//W3C//DTD SVG 1.1//EN"
  "http://www.w3.org/Graphics/SVG/1.1/DTD/svg11.dtd">
<svg xmlns:xlink="http://www.w3.org/1999/xlink" width="1080pt" height="576pt" viewBox="0 0 1080 576" xmlns="http://www.w3.org/2000/svg" version="1.1">
 <metadata>
  <rdf:RDF xmlns:dc="http://purl.org/dc/elements/1.1/" xmlns:cc="http://creativecommons.org/ns#" xmlns:rdf="http://www.w3.org/1999/02/22-rdf-syntax-ns#">
   <cc:Work>
    <dc:type rdf:resource="http://purl.org/dc/dcmitype/StillImage"/>
    <dc:date>2024-07-30T14:01:08.587744</dc:date>
    <dc:format>image/svg+xml</dc:format>
    <dc:creator>
     <cc:Agent>
      <dc:title>Matplotlib v3.9.0, https://matplotlib.org/</dc:title>
     </cc:Agent>
    </dc:creator>
   </cc:Work>
  </rdf:RDF>
 </metadata>
 <defs>
  <style type="text/css">*{stroke-linejoin: round; stroke-linecap: butt}</style>
 </defs>
 <g id="figure_1">
  <g id="patch_1">
   <path d="M 0 576 
L 1080 576 
L 1080 0 
L 0 0 
z
" style="fill: #ffffff"/>
  </g>
  <g id="axes_1">
   <g id="patch_2">
    <path d="M 95.225715 462.354512 
L 738.936009 462.354512 
L 738.936009 73.400718 
L 95.225715 73.400718 
z
" style="fill: #ffffff"/>
   </g>
   <g id="matplotlib.axis_1">
    <g id="xtick_1">
     <g id="line2d_1">
      <defs>
       <path id="mdeaae57ff7" d="M 0 0 
L 0 3.5 
" style="stroke: #262626; stroke-width: 0.8"/>
      </defs>
      <g>
       <use xlink:href="#mdeaae57ff7" x="95.225715" y="462.354512" style="fill: #262626; stroke: #262626; stroke-width: 0.8"/>
      </g>
     </g>
     <g id="text_1">
      <!-- $\mathdefault{0.00}$ -->
      <g style="fill: #262626" transform="translate(65.675366 494.261113) scale(0.36 -0.36)">
       <defs>
        <path id="CMR17-30" d="M 2688 2025 
C 2688 2416 2682 3080 2413 3591 
C 2176 4039 1798 4198 1466 4198 
C 1158 4198 768 4058 525 3597 
C 269 3118 243 2524 243 2025 
C 243 1661 250 1106 448 619 
C 723 -39 1216 -128 1466 -128 
C 1760 -128 2208 -7 2470 600 
C 2662 1042 2688 1559 2688 2025 
z
M 1466 -26 
C 1056 -26 813 325 723 812 
C 653 1188 653 1738 653 2096 
C 653 2588 653 2997 736 3387 
C 858 3929 1216 4096 1466 4096 
C 1728 4096 2067 3923 2189 3400 
C 2272 3036 2278 2607 2278 2096 
C 2278 1680 2278 1169 2202 792 
C 2067 95 1690 -26 1466 -26 
z
" transform="scale(0.015625)"/>
        <path id="CMMI12-3a" d="M 1178 307 
C 1178 492 1024 619 870 619 
C 685 619 557 466 557 313 
C 557 128 710 0 864 0 
C 1050 0 1178 153 1178 307 
z
" transform="scale(0.015625)"/>
       </defs>
       <use xlink:href="#CMR17-30" transform="scale(0.996264)"/>
       <use xlink:href="#CMMI12-3a" transform="translate(45.690477 0) scale(0.996264)"/>
       <use xlink:href="#CMR17-30" transform="translate(72.787654 0) scale(0.996264)"/>
       <use xlink:href="#CMR17-30" transform="translate(118.478131 0) scale(0.996264)"/>
      </g>
     </g>
    </g>
    <g id="xtick_2">
     <g id="line2d_2">
      <g>
       <use xlink:href="#mdeaae57ff7" x="248.490071" y="462.354512" style="fill: #262626; stroke: #262626; stroke-width: 0.8"/>
      </g>
     </g>
     <g id="text_2">
      <!-- $\mathdefault{0.25}$ -->
      <g style="fill: #262626" transform="translate(218.939721 494.261113) scale(0.36 -0.36)">
       <defs>
        <path id="CMR17-32" d="M 2669 989 
L 2554 989 
C 2490 536 2438 459 2413 420 
C 2381 369 1920 369 1830 369 
L 602 369 
C 832 619 1280 1072 1824 1597 
C 2214 1967 2669 2402 2669 3035 
C 2669 3790 2067 4224 1395 4224 
C 691 4224 262 3604 262 3030 
C 262 2780 448 2748 525 2748 
C 589 2748 781 2787 781 3010 
C 781 3207 614 3264 525 3264 
C 486 3264 448 3258 422 3245 
C 544 3790 915 4058 1306 4058 
C 1862 4058 2227 3617 2227 3035 
C 2227 2479 1901 2000 1536 1584 
L 262 146 
L 262 0 
L 2515 0 
L 2669 989 
z
" transform="scale(0.015625)"/>
        <path id="CMR17-35" d="M 730 3692 
C 794 3666 1056 3584 1325 3584 
C 1920 3584 2246 3911 2432 4100 
C 2432 4157 2432 4192 2394 4192 
C 2387 4192 2374 4192 2323 4163 
C 2099 4058 1837 3973 1517 3973 
C 1325 3973 1037 3999 723 4139 
C 653 4171 640 4171 634 4171 
C 602 4171 595 4164 595 4037 
L 595 2203 
C 595 2089 595 2057 659 2057 
C 691 2057 704 2070 736 2114 
C 941 2401 1222 2522 1542 2522 
C 1766 2522 2246 2382 2246 1289 
C 2246 1085 2246 715 2054 421 
C 1894 159 1645 25 1370 25 
C 947 25 518 320 403 814 
C 429 807 480 795 506 795 
C 589 795 749 840 749 1038 
C 749 1210 627 1280 506 1280 
C 358 1280 262 1190 262 1011 
C 262 454 704 -128 1382 -128 
C 2042 -128 2669 440 2669 1264 
C 2669 2030 2170 2624 1549 2624 
C 1222 2624 947 2503 730 2274 
L 730 3692 
z
" transform="scale(0.015625)"/>
       </defs>
       <use xlink:href="#CMR17-30" transform="scale(0.996264)"/>
       <use xlink:href="#CMMI12-3a" transform="translate(45.690477 0) scale(0.996264)"/>
       <use xlink:href="#CMR17-32" transform="translate(72.787654 0) scale(0.996264)"/>
       <use xlink:href="#CMR17-35" transform="translate(118.478131 0) scale(0.996264)"/>
      </g>
     </g>
    </g>
    <g id="xtick_3">
     <g id="line2d_3">
      <g>
       <use xlink:href="#mdeaae57ff7" x="401.754427" y="462.354512" style="fill: #262626; stroke: #262626; stroke-width: 0.8"/>
      </g>
     </g>
     <g id="text_3">
      <!-- $\mathdefault{0.50}$ -->
      <g style="fill: #262626" transform="translate(372.204077 494.261113) scale(0.36 -0.36)">
       <use xlink:href="#CMR17-30" transform="scale(0.996264)"/>
       <use xlink:href="#CMMI12-3a" transform="translate(45.690477 0) scale(0.996264)"/>
       <use xlink:href="#CMR17-35" transform="translate(72.787654 0) scale(0.996264)"/>
       <use xlink:href="#CMR17-30" transform="translate(118.478131 0) scale(0.996264)"/>
      </g>
     </g>
    </g>
    <g id="xtick_4">
     <g id="line2d_4">
      <g>
       <use xlink:href="#mdeaae57ff7" x="555.018782" y="462.354512" style="fill: #262626; stroke: #262626; stroke-width: 0.8"/>
      </g>
     </g>
     <g id="text_4">
      <!-- $\mathdefault{0.75}$ -->
      <g style="fill: #262626" transform="translate(525.468433 494.261113) scale(0.36 -0.36)">
       <defs>
        <path id="CMR17-37" d="M 2886 3941 
L 2886 4081 
L 1382 4081 
C 634 4081 621 4165 595 4288 
L 480 4288 
L 294 3094 
L 410 3094 
C 429 3215 474 3540 550 3661 
C 589 3712 1062 3712 1171 3712 
L 2579 3712 
L 1869 2661 
C 1395 1954 1069 999 1069 165 
C 1069 89 1069 -128 1299 -128 
C 1530 -128 1530 89 1530 171 
L 1530 465 
C 1530 1508 1709 2196 2003 2636 
L 2886 3941 
z
" transform="scale(0.015625)"/>
       </defs>
       <use xlink:href="#CMR17-30" transform="scale(0.996264)"/>
       <use xlink:href="#CMMI12-3a" transform="translate(45.690477 0) scale(0.996264)"/>
       <use xlink:href="#CMR17-37" transform="translate(72.787654 0) scale(0.996264)"/>
       <use xlink:href="#CMR17-35" transform="translate(118.478131 0) scale(0.996264)"/>
      </g>
     </g>
    </g>
    <g id="xtick_5">
     <g id="line2d_5">
      <g>
       <use xlink:href="#mdeaae57ff7" x="708.283138" y="462.354512" style="fill: #262626; stroke: #262626; stroke-width: 0.8"/>
      </g>
     </g>
     <g id="text_5">
      <!-- $\mathdefault{1.00}$ -->
      <g style="fill: #262626" transform="translate(678.732788 494.261113) scale(0.36 -0.36)">
       <defs>
        <path id="CMR17-31" d="M 1702 4058 
C 1702 4192 1696 4192 1606 4192 
C 1357 3916 979 3827 621 3827 
C 602 3827 570 3827 563 3808 
C 557 3795 557 3782 557 3648 
C 755 3648 1088 3686 1344 3839 
L 1344 461 
C 1344 236 1331 160 781 160 
L 589 160 
L 589 0 
C 896 0 1216 0 1523 0 
C 1830 0 2150 0 2458 0 
L 2458 160 
L 2266 160 
C 1715 160 1702 230 1702 458 
L 1702 4058 
z
" transform="scale(0.015625)"/>
       </defs>
       <use xlink:href="#CMR17-31" transform="scale(0.996264)"/>
       <use xlink:href="#CMMI12-3a" transform="translate(45.690477 0) scale(0.996264)"/>
       <use xlink:href="#CMR17-30" transform="translate(72.787654 0) scale(0.996264)"/>
       <use xlink:href="#CMR17-30" transform="translate(118.478131 0) scale(0.996264)"/>
      </g>
     </g>
    </g>
    <g id="text_6">
     <!-- $x$ -->
     <g style="fill: #262626" transform="translate(407.102731 530.143856) scale(0.36 -0.36)">
      <defs>
       <path id="CMMI12-78" d="M 3034 2606 
C 2829 2567 2752 2414 2752 2293 
C 2752 2139 2874 2088 2963 2088 
C 3155 2088 3290 2254 3290 2427 
C 3290 2695 2982 2816 2714 2816 
C 2323 2816 2106 2433 2048 2312 
C 1901 2816 1504 2816 1389 2816 
C 736 2816 390 1980 390 1839 
C 390 1814 416 1782 461 1782 
C 512 1782 525 1820 538 1846 
C 755 2555 1184 2689 1370 2689 
C 1658 2689 1715 2420 1715 2267 
C 1715 2127 1677 1980 1600 1673 
L 1382 798 
C 1286 415 1101 64 762 64 
C 730 64 570 64 435 147 
C 666 192 717 383 717 460 
C 717 588 621 664 499 664 
C 346 664 179 530 179 326 
C 179 57 480 -64 755 -64 
C 1062 -64 1280 179 1414 441 
C 1517 64 1837 -64 2074 -64 
C 2726 -64 3072 773 3072 913 
C 3072 945 3046 971 3008 971 
C 2950 971 2944 939 2925 888 
C 2752 326 2381 64 2093 64 
C 1869 64 1747 230 1747 492 
C 1747 632 1773 734 1875 1156 
L 2099 2024 
C 2195 2408 2413 2689 2707 2689 
C 2720 2689 2899 2689 3034 2606 
z
" transform="scale(0.015625)"/>
      </defs>
      <use xlink:href="#CMMI12-78" transform="scale(0.996264)"/>
     </g>
    </g>
   </g>
   <g id="matplotlib.axis_2">
    <g id="ytick_1">
     <g id="line2d_6">
      <defs>
       <path id="m738abf6168" d="M 0 0 
L -3.5 0 
" style="stroke: #262626; stroke-width: 0.8"/>
      </defs>
      <g>
       <use xlink:href="#m738abf6168" x="95.225715" y="462.354512" style="fill: #262626; stroke: #262626; stroke-width: 0.8"/>
      </g>
     </g>
     <g id="text_7">
      <!-- $\mathdefault{0}$ -->
      <g style="fill: #262626" transform="translate(71.777144 474.807813) scale(0.36 -0.36)">
       <use xlink:href="#CMR17-30" transform="scale(0.996264)"/>
      </g>
     </g>
    </g>
    <g id="ytick_2">
     <g id="line2d_7">
      <g>
       <use xlink:href="#m738abf6168" x="95.225715" y="359.411502" style="fill: #262626; stroke: #262626; stroke-width: 0.8"/>
      </g>
     </g>
     <g id="text_8">
      <!-- $\mathdefault{200}$ -->
      <g style="fill: #262626" transform="translate(38.88 371.864802) scale(0.36 -0.36)">
       <use xlink:href="#CMR17-32" transform="scale(0.996264)"/>
       <use xlink:href="#CMR17-30" transform="translate(45.690477 0) scale(0.996264)"/>
       <use xlink:href="#CMR17-30" transform="translate(91.380954 0) scale(0.996264)"/>
      </g>
     </g>
    </g>
    <g id="ytick_3">
     <g id="line2d_8">
      <g>
       <use xlink:href="#m738abf6168" x="95.225715" y="256.468492" style="fill: #262626; stroke: #262626; stroke-width: 0.8"/>
      </g>
     </g>
     <g id="text_9">
      <!-- $\mathdefault{400}$ -->
      <g style="fill: #262626" transform="translate(38.88 268.921792) scale(0.36 -0.36)">
       <defs>
        <path id="CMR17-34" d="M 2150 4122 
C 2150 4256 2144 4256 2029 4256 
L 128 1254 
L 128 1088 
L 1779 1088 
L 1779 457 
C 1779 224 1766 160 1318 160 
L 1197 160 
L 1197 0 
C 1402 0 1747 0 1965 0 
C 2182 0 2528 0 2733 0 
L 2733 160 
L 2611 160 
C 2163 160 2150 224 2150 457 
L 2150 1088 
L 2803 1088 
L 2803 1254 
L 2150 1254 
L 2150 4122 
z
M 1798 3703 
L 1798 1254 
L 256 1254 
L 1798 3703 
z
" transform="scale(0.015625)"/>
       </defs>
       <use xlink:href="#CMR17-34" transform="scale(0.996264)"/>
       <use xlink:href="#CMR17-30" transform="translate(45.690477 0) scale(0.996264)"/>
       <use xlink:href="#CMR17-30" transform="translate(91.380954 0) scale(0.996264)"/>
      </g>
     </g>
    </g>
    <g id="ytick_4">
     <g id="line2d_9">
      <g>
       <use xlink:href="#m738abf6168" x="95.225715" y="153.525481" style="fill: #262626; stroke: #262626; stroke-width: 0.8"/>
      </g>
     </g>
     <g id="text_10">
      <!-- $\mathdefault{600}$ -->
      <g style="fill: #262626" transform="translate(38.88 165.978781) scale(0.36 -0.36)">
       <defs>
        <path id="CMR17-36" d="M 678 2176 
C 678 3690 1395 4032 1811 4032 
C 1946 4032 2272 4009 2400 3776 
C 2298 3776 2106 3776 2106 3553 
C 2106 3381 2246 3323 2336 3323 
C 2394 3323 2566 3348 2566 3560 
C 2566 3954 2246 4179 1805 4179 
C 1043 4179 243 3390 243 1984 
C 243 253 966 -128 1478 -128 
C 2099 -128 2688 427 2688 1283 
C 2688 2081 2170 2662 1517 2662 
C 1126 2662 838 2407 678 1960 
L 678 2176 
z
M 1478 25 
C 691 25 691 1200 691 1436 
C 691 1896 909 2560 1504 2560 
C 1613 2560 1926 2560 2138 2120 
C 2253 1870 2253 1609 2253 1289 
C 2253 944 2253 690 2118 434 
C 1978 171 1773 25 1478 25 
z
" transform="scale(0.015625)"/>
       </defs>
       <use xlink:href="#CMR17-36" transform="scale(0.996264)"/>
       <use xlink:href="#CMR17-30" transform="translate(45.690477 0) scale(0.996264)"/>
       <use xlink:href="#CMR17-30" transform="translate(91.380954 0) scale(0.996264)"/>
      </g>
     </g>
    </g>
   </g>
   <g id="line2d_10">
    <path d="M 95.225715 462.354512 
L 708.283138 462.354512 
L 708.283138 462.354512 
" clip-path="url(#pf0ee5d1da4)" style="fill: none; stroke: #1f77b4; stroke-width: 5; stroke-linecap: round"/>
   </g>
   <g id="line2d_11">
    <path d="M 95.225715 435.317467 
L 152.444408 437.59834 
L 213.75015 439.804581 
L 279.142942 441.918912 
L 348.622783 443.927896 
L 422.189674 445.821627 
L 499.843614 447.593438 
L 581.584604 449.239493 
L 671.499692 450.825928 
L 708.283138 451.414883 
L 708.283138 451.414883 
" clip-path="url(#pf0ee5d1da4)" style="fill: none; stroke: #ff7f0e; stroke-width: 5; stroke-linecap: round"/>
   </g>
   <g id="line2d_12">
    <path d="M 95.225715 405.594532 
L 127.922111 408.746338 
L 160.618507 411.684073 
L 197.401952 414.756273 
L 234.185398 417.604524 
L 275.055893 420.531596 
L 315.926387 423.232462 
L 360.883932 425.968019 
L 405.841476 428.481451 
L 454.88607 430.995928 
L 508.017713 433.480157 
L 561.149356 435.741727 
L 618.368049 437.955479 
L 679.673791 440.100501 
L 708.283138 441.028775 
L 708.283138 441.028775 
" clip-path="url(#pf0ee5d1da4)" style="fill: none; stroke: #2ca02c; stroke-width: 5; stroke-linecap: round"/>
   </g>
   <g id="line2d_13">
    <path d="M 95.225715 372.885089 
L 115.660963 376.450088 
L 140.18326 380.482194 
L 164.705557 384.267428 
L 189.227853 387.826008 
L 213.75015 391.176037 
L 242.359497 394.842389 
L 270.968843 398.269894 
L 299.578189 401.478986 
L 332.274585 404.902299 
L 364.970981 408.088088 
L 397.667377 411.05759 
L 434.450822 414.163102 
L 471.234268 417.042336 
L 512.104763 420.001358 
L 552.975257 422.731806 
L 597.932802 425.49746 
L 642.890346 428.038677 
L 691.93494 430.581089 
L 708.283138 431.379568 
L 708.283138 431.379568 
" clip-path="url(#pf0ee5d1da4)" style="fill: none; stroke: #d62728; stroke-width: 5; stroke-linecap: round"/>
   </g>
   <g id="line2d_14">
    <path d="M 95.225715 336.853002 
L 111.573913 341.402075 
L 127.922111 345.721119 
L 144.270309 349.826287 
L 160.618507 353.732271 
L 181.053754 358.354832 
L 201.489002 362.71047 
L 221.924249 366.820244 
L 242.359497 370.703074 
L 262.794744 374.375992 
L 287.317041 378.527947 
L 311.839338 382.423517 
L 336.361635 386.083934 
L 360.883932 389.528116 
L 389.493278 393.295598 
L 418.102624 396.815878 
L 446.711971 400.110275 
L 475.321317 403.19772 
L 508.017713 406.494484 
L 540.714109 409.565459 
L 577.497554 412.775089 
L 614.281 415.749015 
L 651.064445 418.50918 
L 691.93494 421.348775 
L 708.283138 422.422742 
L 708.283138 422.422742 
" clip-path="url(#pf0ee5d1da4)" style="fill: none; stroke: #9467bd; stroke-width: 5; stroke-linecap: round"/>
   </g>
   <g id="line2d_15">
    <path d="M 95.225715 297.122611 
L 107.486864 302.223999 
L 119.748012 307.094872 
L 132.009161 311.750022 
L 144.270309 316.202832 
L 156.531458 320.465835 
L 172.879655 325.874002 
L 189.227853 330.989386 
L 205.576051 335.834064 
L 221.924249 340.428004 
L 238.272447 344.789189 
L 254.620645 348.933972 
L 270.968843 352.877227 
L 291.40409 357.543372 
L 311.839338 361.93945 
L 332.274585 366.086879 
L 352.709833 370.004797 
L 373.14508 373.710462 
L 393.580328 377.219433 
L 418.102624 381.190306 
L 442.624921 384.920094 
L 467.147218 388.428335 
L 491.669515 391.732541 
L 520.278862 395.350464 
L 548.888208 398.73434 
L 577.497554 401.904018 
L 610.19395 405.286805 
L 642.890346 408.436299 
L 675.586742 411.3732 
L 708.283138 414.115898 
L 708.283138 414.115898 
" clip-path="url(#pf0ee5d1da4)" style="fill: none; stroke: #8c564b; stroke-width: 5; stroke-linecap: round"/>
   </g>
   <g id="line2d_16">
    <path d="M 95.225715 253.26896 
L 103.399814 258.153605 
L 115.660963 265.15678 
L 127.922111 271.797415 
L 140.18326 278.102279 
L 152.444408 284.095472 
L 164.705557 289.798915 
L 176.966705 295.232434 
L 189.227853 300.414149 
L 201.489002 305.360576 
L 213.75015 310.086768 
L 226.011299 314.606612 
L 238.272447 318.932773 
L 254.620645 324.419738 
L 270.968843 329.608229 
L 287.317041 334.52086 
L 303.665239 339.178039 
L 320.013437 343.598182 
L 336.361635 347.79805 
L 352.709833 351.792763 
L 369.058031 355.596197 
L 389.493278 360.100577 
L 409.928526 364.347978 
L 430.363773 368.358353 
L 450.79902 372.149727 
L 471.234268 375.738269 
L 495.756565 379.797358 
L 520.278862 383.608203 
L 544.801158 387.19109 
L 569.323455 390.56421 
L 597.932802 394.256028 
L 626.542148 397.70755 
L 655.151495 400.939291 
L 687.84789 404.386948 
L 708.283138 406.418939 
L 708.283138 406.418939 
" clip-path="url(#pf0ee5d1da4)" style="fill: none; stroke: #e377c2; stroke-width: 5; stroke-linecap: round"/>
   </g>
   <g id="line2d_17">
    <path d="M 95.225715 204.816174 
L 103.399814 211.575748 
L 111.573913 218.056333 
L 119.748012 224.27451 
L 127.922111 230.245675 
L 136.09621 235.983914 
L 144.270309 241.502386 
L 152.444408 246.813209 
L 160.618507 251.927589 
L 168.792606 256.855968 
L 181.053754 263.920974 
L 193.314903 270.619258 
L 205.576051 276.977862 
L 217.8372 283.021358 
L 230.098348 288.771855 
L 242.359497 294.249495 
L 254.620645 299.472598 
L 266.881794 304.45794 
L 279.142942 309.220754 
L 291.40409 313.775094 
L 303.665239 318.133758 
L 315.926387 322.308617 
L 332.274585 327.607813 
L 348.622783 332.623043 
L 364.970981 337.375399 
L 381.319179 341.884071 
L 397.667377 346.166357 
L 414.015575 350.237986 
L 430.363773 354.113246 
L 450.79902 358.700997 
L 471.234268 363.025255 
L 491.669515 367.106692 
L 512.104763 370.963841 
L 532.54001 374.613431 
L 557.062307 378.740129 
L 581.584604 382.613046 
L 606.106901 386.253088 
L 630.629198 389.6789 
L 659.238544 393.427192 
L 687.84789 396.930355 
L 708.283138 399.294313 
L 708.283138 399.294313 
" clip-path="url(#pf0ee5d1da4)" style="fill: none; stroke: #7f7f7f; stroke-width: 5; stroke-linecap: round"/>
   </g>
   <g id="line2d_18">
    <path d="M 95.225715 151.234354 
L 103.399814 160.387562 
L 111.573913 169.10682 
L 119.748012 177.421868 
L 127.922111 185.359907 
L 136.09621 192.945591 
L 144.270309 200.201614 
L 152.444408 207.148679 
L 160.618507 213.80574 
L 168.792606 220.190267 
L 176.966705 226.31844 
L 185.140804 232.205019 
L 193.314903 237.863757 
L 201.489002 243.307302 
L 209.663101 248.547473 
L 217.8372 253.595179 
L 226.011299 258.460568 
L 238.272447 265.437332 
L 250.533596 272.054271 
L 262.794744 278.33769 
L 275.055893 284.311501 
L 287.317041 289.997351 
L 299.578189 295.414877 
L 311.839338 300.582017 
L 324.100486 305.515133 
L 336.361635 310.229158 
L 348.622783 314.737801 
L 360.883932 319.05367 
L 377.23213 324.52817 
L 393.580328 329.705456 
L 409.928526 334.607973 
L 426.276723 339.25601 
L 442.624921 343.667881 
L 458.973119 347.860216 
L 475.321317 351.848099 
L 491.669515 355.645303 
L 512.104763 360.142625 
L 532.54001 364.383692 
L 552.975257 368.388412 
L 573.410505 372.174656 
L 593.845752 375.758591 
L 618.368049 379.812744 
L 642.890346 383.619211 
L 667.412643 387.198203 
L 691.93494 390.567844 
L 708.283138 392.706078 
L 708.283138 392.706078 
" clip-path="url(#pf0ee5d1da4)" style="fill: none; stroke: #bcbd22; stroke-width: 5; stroke-linecap: round"/>
   </g>
   <g id="line2d_19">
    <path d="M 95.225715 91.922327 
L 103.399814 104.112221 
L 111.573913 115.642784 
L 119.748012 126.565612 
L 127.922111 136.927183 
L 136.09621 146.769165 
L 144.270309 156.129363 
L 152.444408 165.041901 
L 160.618507 173.537688 
L 168.792606 181.644898 
L 176.966705 189.389316 
L 185.140804 196.794302 
L 193.314903 203.881371 
L 201.489002 210.670167 
L 209.663101 217.178851 
L 217.8372 223.424064 
L 226.011299 229.421166 
L 234.185398 235.184376 
L 242.359497 240.726787 
L 250.533596 246.060603 
L 258.707695 251.197006 
L 266.881794 256.146599 
L 279.142942 263.241757 
L 291.40409 269.968469 
L 303.665239 276.353848 
L 315.926387 282.422535 
L 328.187536 288.19677 
L 340.448684 293.696804 
L 352.709833 298.941066 
L 364.970981 303.94638 
L 377.23213 308.728087 
L 389.493278 313.30026 
L 401.754427 317.675851 
L 414.015575 321.866752 
L 430.363773 327.18605 
L 446.711971 332.22001 
L 463.060169 336.989888 
L 479.408367 341.514958 
L 495.756565 345.812594 
L 512.104763 349.898627 
L 528.452961 353.787425 
L 548.888208 358.390966 
L 569.323455 362.729885 
L 589.758703 366.824945 
L 610.19395 370.694806 
L 630.629198 374.356252 
L 655.151495 378.49615 
L 679.673791 382.381283 
L 704.196088 386.032638 
L 708.283138 386.619812 
L 708.283138 386.619812 
" clip-path="url(#pf0ee5d1da4)" style="fill: none; stroke: #17becf; stroke-width: 5; stroke-linecap: round"/>
   </g>
   <g id="patch_3">
    <path d="M 95.225715 462.354512 
L 95.225715 73.400718 
" style="fill: none; stroke: #262626; stroke-width: 0.8; stroke-linejoin: miter; stroke-linecap: square"/>
   </g>
   <g id="patch_4">
    <path d="M 95.225715 462.354512 
L 738.936009 462.354512 
" style="fill: none; stroke: #262626; stroke-width: 0.8; stroke-linejoin: miter; stroke-linecap: square"/>
   </g>
   <g id="patch_5">
    <path d="M 401.754427 460.364346 
Q 401.754427 390.011845 401.754427 321.336396 
" style="fill: none; stroke: #ffffff; stroke-width: 1.5; stroke-linecap: round"/>
    <path d="M 394.554427 335.736396 
L 401.754427 321.336396 
L 408.954427 335.736396 
" style="fill: none; stroke: #ffffff; stroke-width: 1.5; stroke-linecap: round"/>
   </g>
   <g id="text_11">
    <!-- Time -->
    <g style="fill: #262626" transform="translate(432.407298 314.172345) scale(0.18 -0.18)">
     <defs>
      <path id="CMSS17-54" d="M 2317 3968 
L 2848 3968 
C 2925 3968 3002 3968 3078 3968 
L 3878 3968 
L 3878 4376 
L 218 4376 
L 218 3968 
L 1018 3968 
C 1094 3968 1171 3968 1248 3968 
L 1779 3968 
L 1779 -32 
L 2317 -32 
L 2317 3968 
z
" transform="scale(0.015625)"/>
      <path id="CMSS17-69" d="M 979 4183 
L 442 4183 
L 442 3648 
L 979 3648 
L 979 4183 
z
M 947 2739 
L 474 2739 
L 474 0 
L 947 0 
L 947 2739 
z
" transform="scale(0.015625)"/>
      <path id="CMSS17-6d" d="M 4288 1877 
C 4288 2308 4179 2816 3462 2816 
C 2982 2816 2694 2516 2566 2331 
C 2451 2670 2182 2816 1798 2816 
C 1363 2816 1088 2568 941 2389 
L 941 2758 
L 474 2758 
L 474 0 
L 960 0 
L 960 1559 
C 960 1939 1101 2428 1555 2428 
C 2138 2428 2138 2016 2138 1829 
L 2138 0 
L 2624 0 
L 2624 1559 
C 2624 1939 2765 2428 3219 2428 
C 3802 2428 3802 2016 3802 1829 
L 3802 0 
L 4288 0 
L 4288 1877 
z
" transform="scale(0.015625)"/>
      <path id="CMSS17-65" d="M 2502 1377 
C 2502 1590 2490 2003 2285 2345 
C 2061 2713 1696 2816 1421 2816 
C 755 2816 192 2188 192 1375 
C 192 582 774 -64 1510 -64 
C 1798 -64 2150 19 2470 248 
C 2470 274 2458 414 2451 420 
C 2451 433 2432 630 2432 656 
C 2125 407 1773 325 1517 325 
C 1107 325 666 667 646 1377 
L 2502 1377 
z
M 698 1728 
C 781 2084 1062 2421 1421 2421 
C 1517 2421 1965 2421 2080 1728 
L 698 1728 
z
" transform="scale(0.015625)"/>
     </defs>
     <use xlink:href="#CMSS17-54" transform="scale(0.996264)"/>
     <use xlink:href="#CMSS17-69" transform="translate(63.819454 0) scale(0.996264)"/>
     <use xlink:href="#CMSS17-6d" transform="translate(86.000177 0) scale(0.996264)"/>
     <use xlink:href="#CMSS17-65" transform="translate(160.229431 0) scale(0.996264)"/>
    </g>
   </g>
   <g id="legend_1">
    <g id="patch_6">
     <path d="M 764.136009 524.158333 
L 1033.92 524.158333 
Q 1041.12 524.158333 1041.12 516.958333 
L 1041.12 18.796897 
Q 1041.12 11.596897 1033.92 11.596897 
L 764.136009 11.596897 
Q 756.936009 11.596897 756.936009 18.796897 
L 756.936009 516.958333 
Q 756.936009 524.158333 764.136009 524.158333 
z
" style="fill: #ffffff; opacity: 0.8; stroke: #cccccc; stroke-linejoin: miter"/>
    </g>
    <g id="line2d_20">
     <path d="M 771.336009 38.596897 
L 807.336009 38.596897 
L 843.336009 38.596897 
" style="fill: none; stroke: #1f77b4; stroke-width: 5; stroke-linecap: round"/>
    </g>
    <g id="text_12">
     <!-- t = 0.00 -->
     <g style="fill: #262626" transform="translate(872.136009 51.196897) scale(0.36 -0.36)">
      <defs>
       <path id="CMSS17-74" d="M 1069 2368 
L 1901 2368 
L 1901 2737 
L 1069 2737 
L 1069 3520 
L 614 3520 
L 614 2737 
L 109 2737 
L 109 2368 
L 602 2368 
L 602 749 
C 602 384 685 -64 1107 -64 
C 1427 -64 1722 25 2003 172 
L 1901 548 
C 1747 414 1562 337 1363 337 
C 1082 337 1069 696 1069 856 
L 1069 2368 
z
" transform="scale(0.015625)"/>
       <path id="CMSS17-3d" d="M 4147 2017 
C 4243 2017 4339 2017 4339 2125 
C 4339 2240 4230 2240 4122 2240 
L 550 2240 
C 442 2240 333 2240 333 2125 
C 333 2017 429 2017 525 2017 
L 4147 2017 
z
M 4122 896 
C 4230 896 4339 896 4339 1011 
C 4339 1119 4243 1119 4147 1119 
L 525 1119 
C 429 1119 333 1119 333 1011 
C 333 896 442 896 550 896 
L 4122 896 
z
" transform="scale(0.015625)"/>
       <path id="CMSS17-30" d="M 2758 2044 
C 2758 2405 2752 3077 2490 3596 
C 2227 4096 1805 4229 1504 4229 
C 1069 4229 698 3975 506 3570 
C 301 3146 243 2709 243 2044 
C 243 1589 262 1031 493 543 
C 755 5 1197 -128 1498 -128 
C 1894 -128 2278 81 2496 518 
C 2720 974 2758 1474 2758 2044 
z
M 1498 261 
C 1011 261 864 811 819 995 
C 742 1310 730 1614 730 2114 
C 730 2506 730 2948 851 3297 
C 998 3701 1254 3840 1498 3840 
C 1971 3840 2125 3372 2176 3208 
C 2272 2873 2272 2481 2272 2114 
C 2272 1526 2272 261 1498 261 
z
" transform="scale(0.015625)"/>
       <path id="CMSS17-2e" d="M 1088 510 
L 576 510 
L 576 0 
L 1088 0 
L 1088 510 
z
" transform="scale(0.015625)"/>
      </defs>
      <use xlink:href="#CMSS17-74" transform="scale(0.996264)"/>
      <use xlink:href="#CMSS17-3d" transform="translate(65.060679 0) scale(0.996264)"/>
      <use xlink:href="#CMSS17-30" transform="translate(169.157727 0) scale(0.996264)"/>
      <use xlink:href="#CMSS17-2e" transform="translate(216.001351 0) scale(0.996264)"/>
      <use xlink:href="#CMSS17-30" transform="translate(242.025555 0) scale(0.996264)"/>
      <use xlink:href="#CMSS17-30" transform="translate(288.869179 0) scale(0.996264)"/>
     </g>
    </g>
    <g id="line2d_21">
     <path d="M 771.336009 88.773041 
L 807.336009 88.773041 
L 843.336009 88.773041 
" style="fill: none; stroke: #ff7f0e; stroke-width: 5; stroke-linecap: round"/>
    </g>
    <g id="text_13">
     <!-- t = 50.00 -->
     <g style="fill: #262626" transform="translate(872.136009 101.373041) scale(0.36 -0.36)">
      <defs>
       <path id="CMSS17-35" d="M 934 3752 
L 2502 3752 
L 2502 4160 
L 467 4160 
L 467 1781 
L 896 1781 
C 1011 2046 1248 2240 1555 2240 
C 1843 2240 2163 1989 2163 1266 
C 2163 493 1709 267 1376 267 
C 966 267 589 512 422 851 
L 218 499 
C 512 49 992 -128 1376 -128 
C 2118 -128 2701 497 2701 1253 
C 2701 2030 2182 2629 1562 2629 
C 1338 2629 1120 2553 934 2399 
L 934 3752 
z
" transform="scale(0.015625)"/>
      </defs>
      <use xlink:href="#CMSS17-74" transform="scale(0.996264)"/>
      <use xlink:href="#CMSS17-3d" transform="translate(65.060679 0) scale(0.996264)"/>
      <use xlink:href="#CMSS17-35" transform="translate(169.157727 0) scale(0.996264)"/>
      <use xlink:href="#CMSS17-30" transform="translate(216.001351 0) scale(0.996264)"/>
      <use xlink:href="#CMSS17-2e" transform="translate(262.844974 0) scale(0.996264)"/>
      <use xlink:href="#CMSS17-30" transform="translate(288.869179 0) scale(0.996264)"/>
      <use xlink:href="#CMSS17-30" transform="translate(335.712802 0) scale(0.996264)"/>
     </g>
    </g>
    <g id="line2d_22">
     <path d="M 771.336009 138.949184 
L 807.336009 138.949184 
L 843.336009 138.949184 
" style="fill: none; stroke: #2ca02c; stroke-width: 5; stroke-linecap: round"/>
    </g>
    <g id="text_14">
     <!-- t = 100.00 -->
     <g style="fill: #262626" transform="translate(872.136009 151.549184) scale(0.36 -0.36)">
      <defs>
       <path id="CMSS17-31" d="M 1818 4288 
L 1696 4288 
C 1350 3940 947 3890 538 3890 
L 538 3520 
C 723 3520 1024 3520 1325 3667 
L 1325 369 
L 570 369 
L 570 0 
L 2573 0 
L 2573 369 
L 1818 369 
L 1818 4288 
z
" transform="scale(0.015625)"/>
      </defs>
      <use xlink:href="#CMSS17-74" transform="scale(0.996264)"/>
      <use xlink:href="#CMSS17-3d" transform="translate(65.060679 0) scale(0.996264)"/>
      <use xlink:href="#CMSS17-31" transform="translate(169.157727 0) scale(0.996264)"/>
      <use xlink:href="#CMSS17-30" transform="translate(216.001351 0) scale(0.996264)"/>
      <use xlink:href="#CMSS17-30" transform="translate(262.844974 0) scale(0.996264)"/>
      <use xlink:href="#CMSS17-2e" transform="translate(309.688598 0) scale(0.996264)"/>
      <use xlink:href="#CMSS17-30" transform="translate(335.712802 0) scale(0.996264)"/>
      <use xlink:href="#CMSS17-30" transform="translate(382.556426 0) scale(0.996264)"/>
     </g>
    </g>
    <g id="line2d_23">
     <path d="M 771.336009 189.125328 
L 807.336009 189.125328 
L 843.336009 189.125328 
" style="fill: none; stroke: #d62728; stroke-width: 5; stroke-linecap: round"/>
    </g>
    <g id="text_15">
     <!-- t = 150.00 -->
     <g style="fill: #262626" transform="translate(872.136009 201.725328) scale(0.36 -0.36)">
      <use xlink:href="#CMSS17-74" transform="scale(0.996264)"/>
      <use xlink:href="#CMSS17-3d" transform="translate(65.060679 0) scale(0.996264)"/>
      <use xlink:href="#CMSS17-31" transform="translate(169.157727 0) scale(0.996264)"/>
      <use xlink:href="#CMSS17-35" transform="translate(216.001351 0) scale(0.996264)"/>
      <use xlink:href="#CMSS17-30" transform="translate(262.844974 0) scale(0.996264)"/>
      <use xlink:href="#CMSS17-2e" transform="translate(309.688598 0) scale(0.996264)"/>
      <use xlink:href="#CMSS17-30" transform="translate(335.712802 0) scale(0.996264)"/>
      <use xlink:href="#CMSS17-30" transform="translate(382.556426 0) scale(0.996264)"/>
     </g>
    </g>
    <g id="line2d_24">
     <path d="M 771.336009 239.301472 
L 807.336009 239.301472 
L 843.336009 239.301472 
" style="fill: none; stroke: #9467bd; stroke-width: 5; stroke-linecap: round"/>
    </g>
    <g id="text_16">
     <!-- t = 200.00 -->
     <g style="fill: #262626" transform="translate(872.136009 251.901472) scale(0.36 -0.36)">
      <defs>
       <path id="CMSS17-32" d="M 1651 1357 
C 1830 1541 2099 1764 2285 1987 
C 2464 2204 2701 2511 2701 2957 
C 2701 3657 2227 4288 1421 4288 
C 787 4288 422 3893 250 3274 
L 499 2929 
C 640 3510 838 3880 1338 3880 
C 1888 3880 2195 3433 2195 2942 
C 2195 2355 1747 1901 1408 1563 
C 1030 1187 659 804 301 408 
L 301 0 
L 2701 0 
L 2701 433 
L 1613 433 
C 1536 433 1459 433 1382 433 
L 742 433 
L 742 439 
L 1651 1357 
z
" transform="scale(0.015625)"/>
      </defs>
      <use xlink:href="#CMSS17-74" transform="scale(0.996264)"/>
      <use xlink:href="#CMSS17-3d" transform="translate(65.060679 0) scale(0.996264)"/>
      <use xlink:href="#CMSS17-32" transform="translate(169.157727 0) scale(0.996264)"/>
      <use xlink:href="#CMSS17-30" transform="translate(216.001351 0) scale(0.996264)"/>
      <use xlink:href="#CMSS17-30" transform="translate(262.844974 0) scale(0.996264)"/>
      <use xlink:href="#CMSS17-2e" transform="translate(309.688598 0) scale(0.996264)"/>
      <use xlink:href="#CMSS17-30" transform="translate(335.712802 0) scale(0.996264)"/>
      <use xlink:href="#CMSS17-30" transform="translate(382.556426 0) scale(0.996264)"/>
     </g>
    </g>
    <g id="line2d_25">
     <path d="M 771.336009 289.477615 
L 807.336009 289.477615 
L 843.336009 289.477615 
" style="fill: none; stroke: #8c564b; stroke-width: 5; stroke-linecap: round"/>
    </g>
    <g id="text_17">
     <!-- t = 250.00 -->
     <g style="fill: #262626" transform="translate(872.136009 302.077615) scale(0.36 -0.36)">
      <use xlink:href="#CMSS17-74" transform="scale(0.996264)"/>
      <use xlink:href="#CMSS17-3d" transform="translate(65.060679 0) scale(0.996264)"/>
      <use xlink:href="#CMSS17-32" transform="translate(169.157727 0) scale(0.996264)"/>
      <use xlink:href="#CMSS17-35" transform="translate(216.001351 0) scale(0.996264)"/>
      <use xlink:href="#CMSS17-30" transform="translate(262.844974 0) scale(0.996264)"/>
      <use xlink:href="#CMSS17-2e" transform="translate(309.688598 0) scale(0.996264)"/>
      <use xlink:href="#CMSS17-30" transform="translate(335.712802 0) scale(0.996264)"/>
      <use xlink:href="#CMSS17-30" transform="translate(382.556426 0) scale(0.996264)"/>
     </g>
    </g>
    <g id="line2d_26">
     <path d="M 771.336009 339.653759 
L 807.336009 339.653759 
L 843.336009 339.653759 
" style="fill: none; stroke: #e377c2; stroke-width: 5; stroke-linecap: round"/>
    </g>
    <g id="text_18">
     <!-- t = 300.00 -->
     <g style="fill: #262626" transform="translate(872.136009 352.253759) scale(0.36 -0.36)">
      <defs>
       <path id="CMSS17-33" d="M 1005 2025 
L 1440 2025 
C 2042 2025 2214 1507 2214 1146 
C 2214 653 1933 267 1472 267 
C 1114 267 608 444 320 912 
C 275 691 275 678 250 526 
C 550 88 1037 -128 1485 -128 
C 2214 -128 2752 473 2752 1138 
C 2752 1638 2400 2057 1920 2215 
C 2304 2424 2586 2816 2586 3273 
C 2586 3805 2093 4229 1491 4229 
C 941 4229 512 3892 333 3530 
C 378 3468 493 3284 550 3189 
C 691 3562 1056 3840 1485 3840 
C 1843 3840 2080 3607 2080 3271 
C 2080 2923 1856 2543 1478 2455 
C 1453 2455 1056 2417 1005 2411 
L 1005 2025 
z
" transform="scale(0.015625)"/>
      </defs>
      <use xlink:href="#CMSS17-74" transform="scale(0.996264)"/>
      <use xlink:href="#CMSS17-3d" transform="translate(65.060679 0) scale(0.996264)"/>
      <use xlink:href="#CMSS17-33" transform="translate(169.157727 0) scale(0.996264)"/>
      <use xlink:href="#CMSS17-30" transform="translate(216.001351 0) scale(0.996264)"/>
      <use xlink:href="#CMSS17-30" transform="translate(262.844974 0) scale(0.996264)"/>
      <use xlink:href="#CMSS17-2e" transform="translate(309.688598 0) scale(0.996264)"/>
      <use xlink:href="#CMSS17-30" transform="translate(335.712802 0) scale(0.996264)"/>
      <use xlink:href="#CMSS17-30" transform="translate(382.556426 0) scale(0.996264)"/>
     </g>
    </g>
    <g id="line2d_27">
     <path d="M 771.336009 389.829902 
L 807.336009 389.829902 
L 843.336009 389.829902 
" style="fill: none; stroke: #7f7f7f; stroke-width: 5; stroke-linecap: round"/>
    </g>
    <g id="text_19">
     <!-- t = 350.00 -->
     <g style="fill: #262626" transform="translate(872.136009 402.429902) scale(0.36 -0.36)">
      <use xlink:href="#CMSS17-74" transform="scale(0.996264)"/>
      <use xlink:href="#CMSS17-3d" transform="translate(65.060679 0) scale(0.996264)"/>
      <use xlink:href="#CMSS17-33" transform="translate(169.157727 0) scale(0.996264)"/>
      <use xlink:href="#CMSS17-35" transform="translate(216.001351 0) scale(0.996264)"/>
      <use xlink:href="#CMSS17-30" transform="translate(262.844974 0) scale(0.996264)"/>
      <use xlink:href="#CMSS17-2e" transform="translate(309.688598 0) scale(0.996264)"/>
      <use xlink:href="#CMSS17-30" transform="translate(335.712802 0) scale(0.996264)"/>
      <use xlink:href="#CMSS17-30" transform="translate(382.556426 0) scale(0.996264)"/>
     </g>
    </g>
    <g id="line2d_28">
     <path d="M 771.336009 440.006046 
L 807.336009 440.006046 
L 843.336009 440.006046 
" style="fill: none; stroke: #bcbd22; stroke-width: 5; stroke-linecap: round"/>
    </g>
    <g id="text_20">
     <!-- t = 400.00 -->
     <g style="fill: #262626" transform="translate(872.136009 452.606046) scale(0.36 -0.36)">
      <defs>
       <path id="CMSS17-34" d="M 2253 1088 
L 2835 1088 
L 2835 1477 
L 2253 1477 
L 2253 4192 
L 1690 4192 
L 166 1477 
L 166 1088 
L 1747 1088 
L 1747 0 
L 2253 0 
L 2253 1088 
z
M 659 1477 
C 1030 2127 1766 3439 1766 3885 
L 1766 1477 
L 659 1477 
z
" transform="scale(0.015625)"/>
      </defs>
      <use xlink:href="#CMSS17-74" transform="scale(0.996264)"/>
      <use xlink:href="#CMSS17-3d" transform="translate(65.060679 0) scale(0.996264)"/>
      <use xlink:href="#CMSS17-34" transform="translate(169.157727 0) scale(0.996264)"/>
      <use xlink:href="#CMSS17-30" transform="translate(216.001351 0) scale(0.996264)"/>
      <use xlink:href="#CMSS17-30" transform="translate(262.844974 0) scale(0.996264)"/>
      <use xlink:href="#CMSS17-2e" transform="translate(309.688598 0) scale(0.996264)"/>
      <use xlink:href="#CMSS17-30" transform="translate(335.712802 0) scale(0.996264)"/>
      <use xlink:href="#CMSS17-30" transform="translate(382.556426 0) scale(0.996264)"/>
     </g>
    </g>
    <g id="line2d_29">
     <path d="M 771.336009 490.182189 
L 807.336009 490.182189 
L 843.336009 490.182189 
" style="fill: none; stroke: #17becf; stroke-width: 5; stroke-linecap: round"/>
    </g>
    <g id="text_21">
     <!-- t = 450.00 -->
     <g style="fill: #262626" transform="translate(872.136009 502.782189) scale(0.36 -0.36)">
      <use xlink:href="#CMSS17-74" transform="scale(0.996264)"/>
      <use xlink:href="#CMSS17-3d" transform="translate(65.060679 0) scale(0.996264)"/>
      <use xlink:href="#CMSS17-34" transform="translate(169.157727 0) scale(0.996264)"/>
      <use xlink:href="#CMSS17-35" transform="translate(216.001351 0) scale(0.996264)"/>
      <use xlink:href="#CMSS17-30" transform="translate(262.844974 0) scale(0.996264)"/>
      <use xlink:href="#CMSS17-2e" transform="translate(309.688598 0) scale(0.996264)"/>
      <use xlink:href="#CMSS17-30" transform="translate(335.712802 0) scale(0.996264)"/>
      <use xlink:href="#CMSS17-30" transform="translate(382.556426 0) scale(0.996264)"/>
     </g>
    </g>
   </g>
  </g>
 </g>
 <defs>
  <clipPath id="pf0ee5d1da4">
   <rect x="95.225715" y="73.400718" width="643.710294" height="388.953795"/>
  </clipPath>
 </defs>
</svg>
