<?xml version="1.0" encoding="utf-8" standalone="no"?>
<!DOCTYPE svg PUBLIC "-//W3C//DTD SVG 1.1//EN"
  "http://www.w3.org/Graphics/SVG/1.1/DTD/svg11.dtd">
<svg xmlns:xlink="http://www.w3.org/1999/xlink" width="1080pt" height="576pt" viewBox="0 0 1080 576" xmlns="http://www.w3.org/2000/svg" version="1.1">
 <metadata>
  <rdf:RDF xmlns:dc="http://purl.org/dc/elements/1.1/" xmlns:cc="http://creativecommons.org/ns#" xmlns:rdf="http://www.w3.org/1999/02/22-rdf-syntax-ns#">
   <cc:Work>
    <dc:type rdf:resource="http://purl.org/dc/dcmitype/StillImage"/>
    <dc:date>2024-06-28T12:50:54.217605</dc:date>
    <dc:format>image/svg+xml</dc:format>
    <dc:creator>
     <cc:Agent>
      <dc:title>Matplotlib v3.9.0, https://matplotlib.org/</dc:title>
     </cc:Agent>
    </dc:creator>
   </cc:Work>
  </rdf:RDF>
 </metadata>
 <defs>
  <style type="text/css">*{stroke-linejoin: round; stroke-linecap: butt}</style>
 </defs>
 <g id="figure_1">
  <g id="patch_1">
   <path d="M 0 576 
L 1080 576 
L 1080 0 
L 0 0 
z
" style="fill: #ffffff"/>
  </g>
  <g id="axes_1">
   <g id="patch_2">
    <path d="M 48.559071 521.153031 
L 935.517672 521.153031 
L 935.517672 51.564121 
L 48.559071 51.564121 
z
" style="fill: #eaeaf2"/>
   </g>
   <g id="matplotlib.axis_1">
    <g id="xtick_1">
     <g id="line2d_1">
      <path d="M 48.559071 521.153031 
L 48.559071 51.564121 
" clip-path="url(#p7890e1e70b)" style="fill: none; stroke: #ffffff; stroke-linecap: round"/>
     </g>
     <g id="line2d_2"/>
     <g id="text_1">
      <!-- $\mathdefault{0.00}$ -->
      <g style="fill: #262626" transform="translate(36.419535 537.838907) scale(0.14 -0.14)">
       <defs>
        <path id="CMR17-30" d="M 2688 2025 
C 2688 2416 2682 3080 2413 3591 
C 2176 4039 1798 4198 1466 4198 
C 1158 4198 768 4058 525 3597 
C 269 3118 243 2524 243 2025 
C 243 1661 250 1106 448 619 
C 723 -39 1216 -128 1466 -128 
C 1760 -128 2208 -7 2470 600 
C 2662 1042 2688 1559 2688 2025 
z
M 1466 -26 
C 1056 -26 813 325 723 812 
C 653 1188 653 1738 653 2096 
C 653 2588 653 2997 736 3387 
C 858 3929 1216 4096 1466 4096 
C 1728 4096 2067 3923 2189 3400 
C 2272 3036 2278 2607 2278 2096 
C 2278 1680 2278 1169 2202 792 
C 2067 95 1690 -26 1466 -26 
z
" transform="scale(0.015625)"/>
        <path id="CMMI12-3a" d="M 1178 307 
C 1178 492 1024 619 870 619 
C 685 619 557 466 557 313 
C 557 128 710 0 864 0 
C 1050 0 1178 153 1178 307 
z
" transform="scale(0.015625)"/>
       </defs>
       <use xlink:href="#CMR17-30" transform="scale(0.996264)"/>
       <use xlink:href="#CMMI12-3a" transform="translate(45.690477 0) scale(0.996264)"/>
       <use xlink:href="#CMR17-30" transform="translate(72.787654 0) scale(0.996264)"/>
       <use xlink:href="#CMR17-30" transform="translate(118.478131 0) scale(0.996264)"/>
      </g>
     </g>
    </g>
    <g id="xtick_2">
     <g id="line2d_3">
      <path d="M 154.14938 521.153031 
L 154.14938 51.564121 
" clip-path="url(#p7890e1e70b)" style="fill: none; stroke: #ffffff; stroke-linecap: round"/>
     </g>
     <g id="line2d_4"/>
     <g id="text_2">
      <!-- $\mathdefault{0.25}$ -->
      <g style="fill: #262626" transform="translate(142.009845 537.838907) scale(0.14 -0.14)">
       <defs>
        <path id="CMR17-32" d="M 2669 989 
L 2554 989 
C 2490 536 2438 459 2413 420 
C 2381 369 1920 369 1830 369 
L 602 369 
C 832 619 1280 1072 1824 1597 
C 2214 1967 2669 2402 2669 3035 
C 2669 3790 2067 4224 1395 4224 
C 691 4224 262 3604 262 3030 
C 262 2780 448 2748 525 2748 
C 589 2748 781 2787 781 3010 
C 781 3207 614 3264 525 3264 
C 486 3264 448 3258 422 3245 
C 544 3790 915 4058 1306 4058 
C 1862 4058 2227 3617 2227 3035 
C 2227 2479 1901 2000 1536 1584 
L 262 146 
L 262 0 
L 2515 0 
L 2669 989 
z
" transform="scale(0.015625)"/>
        <path id="CMR17-35" d="M 730 3692 
C 794 3666 1056 3584 1325 3584 
C 1920 3584 2246 3911 2432 4100 
C 2432 4157 2432 4192 2394 4192 
C 2387 4192 2374 4192 2323 4163 
C 2099 4058 1837 3973 1517 3973 
C 1325 3973 1037 3999 723 4139 
C 653 4171 640 4171 634 4171 
C 602 4171 595 4164 595 4037 
L 595 2203 
C 595 2089 595 2057 659 2057 
C 691 2057 704 2070 736 2114 
C 941 2401 1222 2522 1542 2522 
C 1766 2522 2246 2382 2246 1289 
C 2246 1085 2246 715 2054 421 
C 1894 159 1645 25 1370 25 
C 947 25 518 320 403 814 
C 429 807 480 795 506 795 
C 589 795 749 840 749 1038 
C 749 1210 627 1280 506 1280 
C 358 1280 262 1190 262 1011 
C 262 454 704 -128 1382 -128 
C 2042 -128 2669 440 2669 1264 
C 2669 2030 2170 2624 1549 2624 
C 1222 2624 947 2503 730 2274 
L 730 3692 
z
" transform="scale(0.015625)"/>
       </defs>
       <use xlink:href="#CMR17-30" transform="scale(0.996264)"/>
       <use xlink:href="#CMMI12-3a" transform="translate(45.690477 0) scale(0.996264)"/>
       <use xlink:href="#CMR17-32" transform="translate(72.787654 0) scale(0.996264)"/>
       <use xlink:href="#CMR17-35" transform="translate(118.478131 0) scale(0.996264)"/>
      </g>
     </g>
    </g>
    <g id="xtick_3">
     <g id="line2d_5">
      <path d="M 259.73969 521.153031 
L 259.73969 51.564121 
" clip-path="url(#p7890e1e70b)" style="fill: none; stroke: #ffffff; stroke-linecap: round"/>
     </g>
     <g id="line2d_6"/>
     <g id="text_3">
      <!-- $\mathdefault{0.50}$ -->
      <g style="fill: #262626" transform="translate(247.600155 537.838907) scale(0.14 -0.14)">
       <use xlink:href="#CMR17-30" transform="scale(0.996264)"/>
       <use xlink:href="#CMMI12-3a" transform="translate(45.690477 0) scale(0.996264)"/>
       <use xlink:href="#CMR17-35" transform="translate(72.787654 0) scale(0.996264)"/>
       <use xlink:href="#CMR17-30" transform="translate(118.478131 0) scale(0.996264)"/>
      </g>
     </g>
    </g>
    <g id="xtick_4">
     <g id="line2d_7">
      <path d="M 365.33 521.153031 
L 365.33 51.564121 
" clip-path="url(#p7890e1e70b)" style="fill: none; stroke: #ffffff; stroke-linecap: round"/>
     </g>
     <g id="line2d_8"/>
     <g id="text_4">
      <!-- $\mathdefault{0.75}$ -->
      <g style="fill: #262626" transform="translate(353.190464 537.838907) scale(0.14 -0.14)">
       <defs>
        <path id="CMR17-37" d="M 2886 3941 
L 2886 4081 
L 1382 4081 
C 634 4081 621 4165 595 4288 
L 480 4288 
L 294 3094 
L 410 3094 
C 429 3215 474 3540 550 3661 
C 589 3712 1062 3712 1171 3712 
L 2579 3712 
L 1869 2661 
C 1395 1954 1069 999 1069 165 
C 1069 89 1069 -128 1299 -128 
C 1530 -128 1530 89 1530 171 
L 1530 465 
C 1530 1508 1709 2196 2003 2636 
L 2886 3941 
z
" transform="scale(0.015625)"/>
       </defs>
       <use xlink:href="#CMR17-30" transform="scale(0.996264)"/>
       <use xlink:href="#CMMI12-3a" transform="translate(45.690477 0) scale(0.996264)"/>
       <use xlink:href="#CMR17-37" transform="translate(72.787654 0) scale(0.996264)"/>
       <use xlink:href="#CMR17-35" transform="translate(118.478131 0) scale(0.996264)"/>
      </g>
     </g>
    </g>
    <g id="xtick_5">
     <g id="line2d_9">
      <path d="M 470.920309 521.153031 
L 470.920309 51.564121 
" clip-path="url(#p7890e1e70b)" style="fill: none; stroke: #ffffff; stroke-linecap: round"/>
     </g>
     <g id="line2d_10"/>
     <g id="text_5">
      <!-- $\mathdefault{1.00}$ -->
      <g style="fill: #262626" transform="translate(458.780774 537.838907) scale(0.14 -0.14)">
       <defs>
        <path id="CMR17-31" d="M 1702 4058 
C 1702 4192 1696 4192 1606 4192 
C 1357 3916 979 3827 621 3827 
C 602 3827 570 3827 563 3808 
C 557 3795 557 3782 557 3648 
C 755 3648 1088 3686 1344 3839 
L 1344 461 
C 1344 236 1331 160 781 160 
L 589 160 
L 589 0 
C 896 0 1216 0 1523 0 
C 1830 0 2150 0 2458 0 
L 2458 160 
L 2266 160 
C 1715 160 1702 230 1702 458 
L 1702 4058 
z
" transform="scale(0.015625)"/>
       </defs>
       <use xlink:href="#CMR17-31" transform="scale(0.996264)"/>
       <use xlink:href="#CMMI12-3a" transform="translate(45.690477 0) scale(0.996264)"/>
       <use xlink:href="#CMR17-30" transform="translate(72.787654 0) scale(0.996264)"/>
       <use xlink:href="#CMR17-30" transform="translate(118.478131 0) scale(0.996264)"/>
      </g>
     </g>
    </g>
    <g id="xtick_6">
     <g id="line2d_11">
      <path d="M 576.510619 521.153031 
L 576.510619 51.564121 
" clip-path="url(#p7890e1e70b)" style="fill: none; stroke: #ffffff; stroke-linecap: round"/>
     </g>
     <g id="line2d_12"/>
     <g id="text_6">
      <!-- $\mathdefault{1.25}$ -->
      <g style="fill: #262626" transform="translate(564.371084 537.838907) scale(0.14 -0.14)">
       <use xlink:href="#CMR17-31" transform="scale(0.996264)"/>
       <use xlink:href="#CMMI12-3a" transform="translate(45.690477 0) scale(0.996264)"/>
       <use xlink:href="#CMR17-32" transform="translate(72.787654 0) scale(0.996264)"/>
       <use xlink:href="#CMR17-35" transform="translate(118.478131 0) scale(0.996264)"/>
      </g>
     </g>
    </g>
    <g id="xtick_7">
     <g id="line2d_13">
      <path d="M 682.100929 521.153031 
L 682.100929 51.564121 
" clip-path="url(#p7890e1e70b)" style="fill: none; stroke: #ffffff; stroke-linecap: round"/>
     </g>
     <g id="line2d_14"/>
     <g id="text_7">
      <!-- $\mathdefault{1.50}$ -->
      <g style="fill: #262626" transform="translate(669.961393 537.838907) scale(0.14 -0.14)">
       <use xlink:href="#CMR17-31" transform="scale(0.996264)"/>
       <use xlink:href="#CMMI12-3a" transform="translate(45.690477 0) scale(0.996264)"/>
       <use xlink:href="#CMR17-35" transform="translate(72.787654 0) scale(0.996264)"/>
       <use xlink:href="#CMR17-30" transform="translate(118.478131 0) scale(0.996264)"/>
      </g>
     </g>
    </g>
    <g id="xtick_8">
     <g id="line2d_15">
      <path d="M 787.691238 521.153031 
L 787.691238 51.564121 
" clip-path="url(#p7890e1e70b)" style="fill: none; stroke: #ffffff; stroke-linecap: round"/>
     </g>
     <g id="line2d_16"/>
     <g id="text_8">
      <!-- $\mathdefault{1.75}$ -->
      <g style="fill: #262626" transform="translate(775.551703 537.838907) scale(0.14 -0.14)">
       <use xlink:href="#CMR17-31" transform="scale(0.996264)"/>
       <use xlink:href="#CMMI12-3a" transform="translate(45.690477 0) scale(0.996264)"/>
       <use xlink:href="#CMR17-37" transform="translate(72.787654 0) scale(0.996264)"/>
       <use xlink:href="#CMR17-35" transform="translate(118.478131 0) scale(0.996264)"/>
      </g>
     </g>
    </g>
    <g id="xtick_9">
     <g id="line2d_17">
      <path d="M 893.281548 521.153031 
L 893.281548 51.564121 
" clip-path="url(#p7890e1e70b)" style="fill: none; stroke: #ffffff; stroke-linecap: round"/>
     </g>
     <g id="line2d_18"/>
     <g id="text_9">
      <!-- $\mathdefault{2.00}$ -->
      <g style="fill: #262626" transform="translate(881.142013 537.838907) scale(0.14 -0.14)">
       <use xlink:href="#CMR17-32" transform="scale(0.996264)"/>
       <use xlink:href="#CMMI12-3a" transform="translate(45.690477 0) scale(0.996264)"/>
       <use xlink:href="#CMR17-30" transform="translate(72.787654 0) scale(0.996264)"/>
       <use xlink:href="#CMR17-30" transform="translate(118.478131 0) scale(0.996264)"/>
      </g>
     </g>
    </g>
    <g id="text_10">
     <!-- $x$ -->
     <g style="fill: #262626" transform="translate(487.603646 555.620524) scale(0.16 -0.16)">
      <defs>
       <path id="CMMI12-78" d="M 3034 2606 
C 2829 2567 2752 2414 2752 2293 
C 2752 2139 2874 2088 2963 2088 
C 3155 2088 3290 2254 3290 2427 
C 3290 2695 2982 2816 2714 2816 
C 2323 2816 2106 2433 2048 2312 
C 1901 2816 1504 2816 1389 2816 
C 736 2816 390 1980 390 1839 
C 390 1814 416 1782 461 1782 
C 512 1782 525 1820 538 1846 
C 755 2555 1184 2689 1370 2689 
C 1658 2689 1715 2420 1715 2267 
C 1715 2127 1677 1980 1600 1673 
L 1382 798 
C 1286 415 1101 64 762 64 
C 730 64 570 64 435 147 
C 666 192 717 383 717 460 
C 717 588 621 664 499 664 
C 346 664 179 530 179 326 
C 179 57 480 -64 755 -64 
C 1062 -64 1280 179 1414 441 
C 1517 64 1837 -64 2074 -64 
C 2726 -64 3072 773 3072 913 
C 3072 945 3046 971 3008 971 
C 2950 971 2944 939 2925 888 
C 2752 326 2381 64 2093 64 
C 1869 64 1747 230 1747 492 
C 1747 632 1773 734 1875 1156 
L 2099 2024 
C 2195 2408 2413 2689 2707 2689 
C 2720 2689 2899 2689 3034 2606 
z
" transform="scale(0.015625)"/>
      </defs>
      <use xlink:href="#CMMI12-78" transform="scale(0.996264)"/>
     </g>
    </g>
   </g>
   <g id="matplotlib.axis_2">
    <g id="ytick_1">
     <g id="line2d_19">
      <path d="M 48.559071 521.153031 
L 935.517672 521.153031 
" clip-path="url(#p7890e1e70b)" style="fill: none; stroke: #ffffff; stroke-linecap: round"/>
     </g>
     <g id="line2d_20"/>
     <g id="text_11">
      <!-- $\mathdefault{0.00}$ -->
      <g style="fill: #262626" transform="translate(17.28 525.995969) scale(0.14 -0.14)">
       <use xlink:href="#CMR17-30" transform="scale(0.996264)"/>
       <use xlink:href="#CMMI12-3a" transform="translate(45.690477 0) scale(0.996264)"/>
       <use xlink:href="#CMR17-30" transform="translate(72.787654 0) scale(0.996264)"/>
       <use xlink:href="#CMR17-30" transform="translate(118.478131 0) scale(0.996264)"/>
      </g>
     </g>
    </g>
    <g id="ytick_2">
     <g id="line2d_21">
      <path d="M 48.559071 465.320836 
L 935.517672 465.320836 
" clip-path="url(#p7890e1e70b)" style="fill: none; stroke: #ffffff; stroke-linecap: round"/>
     </g>
     <g id="line2d_22"/>
     <g id="text_12">
      <!-- $\mathdefault{0.25}$ -->
      <g style="fill: #262626" transform="translate(17.28 470.163774) scale(0.14 -0.14)">
       <use xlink:href="#CMR17-30" transform="scale(0.996264)"/>
       <use xlink:href="#CMMI12-3a" transform="translate(45.690477 0) scale(0.996264)"/>
       <use xlink:href="#CMR17-32" transform="translate(72.787654 0) scale(0.996264)"/>
       <use xlink:href="#CMR17-35" transform="translate(118.478131 0) scale(0.996264)"/>
      </g>
     </g>
    </g>
    <g id="ytick_3">
     <g id="line2d_23">
      <path d="M 48.559071 409.488642 
L 935.517672 409.488642 
" clip-path="url(#p7890e1e70b)" style="fill: none; stroke: #ffffff; stroke-linecap: round"/>
     </g>
     <g id="line2d_24"/>
     <g id="text_13">
      <!-- $\mathdefault{0.50}$ -->
      <g style="fill: #262626" transform="translate(17.28 414.33158) scale(0.14 -0.14)">
       <use xlink:href="#CMR17-30" transform="scale(0.996264)"/>
       <use xlink:href="#CMMI12-3a" transform="translate(45.690477 0) scale(0.996264)"/>
       <use xlink:href="#CMR17-35" transform="translate(72.787654 0) scale(0.996264)"/>
       <use xlink:href="#CMR17-30" transform="translate(118.478131 0) scale(0.996264)"/>
      </g>
     </g>
    </g>
    <g id="ytick_4">
     <g id="line2d_25">
      <path d="M 48.559071 353.656447 
L 935.517672 353.656447 
" clip-path="url(#p7890e1e70b)" style="fill: none; stroke: #ffffff; stroke-linecap: round"/>
     </g>
     <g id="line2d_26"/>
     <g id="text_14">
      <!-- $\mathdefault{0.75}$ -->
      <g style="fill: #262626" transform="translate(17.28 358.499386) scale(0.14 -0.14)">
       <use xlink:href="#CMR17-30" transform="scale(0.996264)"/>
       <use xlink:href="#CMMI12-3a" transform="translate(45.690477 0) scale(0.996264)"/>
       <use xlink:href="#CMR17-37" transform="translate(72.787654 0) scale(0.996264)"/>
       <use xlink:href="#CMR17-35" transform="translate(118.478131 0) scale(0.996264)"/>
      </g>
     </g>
    </g>
    <g id="ytick_5">
     <g id="line2d_27">
      <path d="M 48.559071 297.824253 
L 935.517672 297.824253 
" clip-path="url(#p7890e1e70b)" style="fill: none; stroke: #ffffff; stroke-linecap: round"/>
     </g>
     <g id="line2d_28"/>
     <g id="text_15">
      <!-- $\mathdefault{1.00}$ -->
      <g style="fill: #262626" transform="translate(17.28 302.667191) scale(0.14 -0.14)">
       <use xlink:href="#CMR17-31" transform="scale(0.996264)"/>
       <use xlink:href="#CMMI12-3a" transform="translate(45.690477 0) scale(0.996264)"/>
       <use xlink:href="#CMR17-30" transform="translate(72.787654 0) scale(0.996264)"/>
       <use xlink:href="#CMR17-30" transform="translate(118.478131 0) scale(0.996264)"/>
      </g>
     </g>
    </g>
    <g id="ytick_6">
     <g id="line2d_29">
      <path d="M 48.559071 241.992058 
L 935.517672 241.992058 
" clip-path="url(#p7890e1e70b)" style="fill: none; stroke: #ffffff; stroke-linecap: round"/>
     </g>
     <g id="line2d_30"/>
     <g id="text_16">
      <!-- $\mathdefault{1.25}$ -->
      <g style="fill: #262626" transform="translate(17.28 246.834997) scale(0.14 -0.14)">
       <use xlink:href="#CMR17-31" transform="scale(0.996264)"/>
       <use xlink:href="#CMMI12-3a" transform="translate(45.690477 0) scale(0.996264)"/>
       <use xlink:href="#CMR17-32" transform="translate(72.787654 0) scale(0.996264)"/>
       <use xlink:href="#CMR17-35" transform="translate(118.478131 0) scale(0.996264)"/>
      </g>
     </g>
    </g>
    <g id="ytick_7">
     <g id="line2d_31">
      <path d="M 48.559071 186.159864 
L 935.517672 186.159864 
" clip-path="url(#p7890e1e70b)" style="fill: none; stroke: #ffffff; stroke-linecap: round"/>
     </g>
     <g id="line2d_32"/>
     <g id="text_17">
      <!-- $\mathdefault{1.50}$ -->
      <g style="fill: #262626" transform="translate(17.28 191.002802) scale(0.14 -0.14)">
       <use xlink:href="#CMR17-31" transform="scale(0.996264)"/>
       <use xlink:href="#CMMI12-3a" transform="translate(45.690477 0) scale(0.996264)"/>
       <use xlink:href="#CMR17-35" transform="translate(72.787654 0) scale(0.996264)"/>
       <use xlink:href="#CMR17-30" transform="translate(118.478131 0) scale(0.996264)"/>
      </g>
     </g>
    </g>
    <g id="ytick_8">
     <g id="line2d_33">
      <path d="M 48.559071 130.32767 
L 935.517672 130.32767 
" clip-path="url(#p7890e1e70b)" style="fill: none; stroke: #ffffff; stroke-linecap: round"/>
     </g>
     <g id="line2d_34"/>
     <g id="text_18">
      <!-- $\mathdefault{1.75}$ -->
      <g style="fill: #262626" transform="translate(17.28 135.170608) scale(0.14 -0.14)">
       <use xlink:href="#CMR17-31" transform="scale(0.996264)"/>
       <use xlink:href="#CMMI12-3a" transform="translate(45.690477 0) scale(0.996264)"/>
       <use xlink:href="#CMR17-37" transform="translate(72.787654 0) scale(0.996264)"/>
       <use xlink:href="#CMR17-35" transform="translate(118.478131 0) scale(0.996264)"/>
      </g>
     </g>
    </g>
    <g id="ytick_9">
     <g id="line2d_35">
      <path d="M 48.559071 74.495475 
L 935.517672 74.495475 
" clip-path="url(#p7890e1e70b)" style="fill: none; stroke: #ffffff; stroke-linecap: round"/>
     </g>
     <g id="line2d_36"/>
     <g id="text_19">
      <!-- $\mathdefault{2.00}$ -->
      <g style="fill: #262626" transform="translate(17.28 79.338413) scale(0.14 -0.14)">
       <use xlink:href="#CMR17-32" transform="scale(0.996264)"/>
       <use xlink:href="#CMMI12-3a" transform="translate(45.690477 0) scale(0.996264)"/>
       <use xlink:href="#CMR17-30" transform="translate(72.787654 0) scale(0.996264)"/>
       <use xlink:href="#CMR17-30" transform="translate(118.478131 0) scale(0.996264)"/>
      </g>
     </g>
    </g>
   </g>
   <g id="line2d_37">
    <path d="M 48.559071 74.495475 
L 57.006295 74.495475 
L 65.45352 74.495475 
L 73.900745 74.495475 
L 82.34797 74.495475 
L 90.795195 74.495475 
L 99.242419 74.495475 
L 107.689644 74.495475 
L 116.136869 74.495475 
L 124.584094 74.495475 
L 133.031318 74.495475 
L 141.478543 74.495475 
L 149.925768 74.495475 
L 158.372993 74.495475 
L 166.820217 74.495475 
L 175.267442 74.495475 
L 183.714667 74.495475 
L 192.161892 74.495475 
L 200.609117 74.495475 
L 209.056341 74.495475 
L 217.503566 74.495475 
L 225.950791 74.495475 
L 234.398016 74.495475 
L 242.84524 74.495475 
L 251.292465 74.495475 
L 259.73969 74.495475 
L 268.186915 74.495475 
L 276.63414 74.495475 
L 285.081364 74.495475 
L 293.528589 74.495475 
L 301.975814 74.495475 
L 310.423039 74.495475 
L 318.870263 74.495475 
L 327.317488 74.495475 
L 335.764713 74.495475 
L 344.211938 74.495475 
L 352.659162 74.495475 
L 361.106387 74.495475 
L 369.553612 74.495475 
L 378.000837 74.495475 
L 386.448062 74.495475 
L 394.895286 74.495475 
L 403.342511 74.495475 
L 411.789736 74.495475 
L 420.236961 74.495475 
L 428.684185 74.495475 
L 437.13141 74.495475 
L 445.578635 74.495475 
L 454.02586 74.495475 
L 462.473085 74.495475 
L 470.920309 74.495475 
L 479.367534 74.495475 
L 487.814759 74.495475 
L 496.261984 74.495475 
L 504.709208 74.495475 
L 513.156433 74.495475 
L 521.603658 74.495475 
L 530.050883 74.495475 
L 538.498107 74.495475 
L 546.945332 74.495475 
L 555.392557 74.495475 
L 563.839782 74.495475 
L 572.287007 74.495475 
L 580.734231 74.495475 
L 589.181456 74.495475 
L 597.628681 74.495475 
L 606.075906 74.495475 
L 614.52313 74.495475 
L 622.970355 74.495475 
L 631.41758 74.495475 
L 639.864805 74.495475 
L 648.31203 74.495475 
L 656.759254 74.495475 
L 665.206479 74.495475 
L 673.653704 74.495475 
L 682.100929 74.495475 
L 690.548153 74.495475 
L 698.995378 74.495475 
L 707.442603 74.495475 
L 715.889828 74.495475 
L 724.337052 74.495475 
L 732.784277 74.495475 
L 741.231502 74.495475 
L 749.678727 74.495475 
L 758.125952 74.495475 
L 766.573176 74.495475 
L 775.020401 74.495475 
L 783.467626 74.495475 
L 791.914851 74.495475 
L 800.362075 74.495475 
L 808.8093 74.495475 
L 817.256525 74.495475 
L 825.70375 74.495475 
L 834.150975 74.495475 
L 842.598199 74.495475 
L 851.045424 74.495475 
L 859.492649 74.495475 
L 867.939874 74.495475 
L 876.387098 74.495475 
L 884.834323 74.495475 
L 893.281548 74.495475 
" clip-path="url(#p7890e1e70b)" style="fill: none; stroke: #393b79; stroke-width: 2; stroke-linecap: round"/>
   </g>
   <g id="line2d_38">
    <path d="M 48.559071 117.081059 
L 57.006295 116.651135 
L 65.45352 116.224954 
L 73.900745 115.798691 
L 82.34797 115.377285 
L 90.795195 114.960679 
L 99.242419 114.548811 
L 107.689644 114.141626 
L 116.136869 113.739073 
L 124.584094 113.341092 
L 133.031318 112.947637 
L 141.478543 112.558638 
L 149.925768 112.170804 
L 158.372993 111.785014 
L 166.820217 111.403592 
L 175.267442 111.026479 
L 183.714667 110.653617 
L 192.161892 110.284959 
L 200.609117 109.920458 
L 209.056341 109.560065 
L 217.503566 109.203726 
L 225.950791 108.851388 
L 234.398016 108.503016 
L 242.84524 108.154587 
L 251.292465 107.808988 
L 259.73969 107.467259 
L 268.186915 107.129359 
L 276.63414 106.795237 
L 285.081364 106.464848 
L 293.528589 106.138149 
L 301.975814 105.815096 
L 310.423039 105.495655 
L 318.870263 105.179775 
L 327.317488 104.86741 
L 335.764713 104.55852 
L 344.211938 104.250847 
L 352.659162 103.944339 
L 361.106387 103.641236 
L 369.553612 103.341501 
L 378.000837 103.04509 
L 386.448062 102.751967 
L 394.895286 102.462089 
L 403.342511 102.175422 
L 411.789736 101.891928 
L 420.236961 101.611568 
L 428.684185 101.334305 
L 437.13141 101.060106 
L 445.578635 100.788932 
L 454.02586 100.520748 
L 462.473085 100.254586 
L 470.920309 99.988394 
L 479.367534 99.725134 
L 487.814759 99.464771 
L 496.261984 99.207277 
L 504.709208 98.952613 
L 513.156433 98.700747 
L 521.603658 98.451646 
L 530.050883 98.205276 
L 538.498107 97.961608 
L 546.945332 97.720609 
L 555.392557 97.48225 
L 563.839782 97.2465 
L 572.287007 97.013331 
L 580.734231 96.782716 
L 589.181456 96.554626 
L 597.628681 96.329028 
L 606.075906 96.104892 
L 614.52313 95.880908 
L 622.970355 95.659367 
L 631.41758 95.440241 
L 639.864805 95.223504 
L 648.31203 95.009129 
L 656.759254 94.797087 
L 665.206479 94.587355 
L 673.653704 94.379908 
L 682.100929 94.174716 
L 690.548153 93.971756 
L 698.995378 93.771002 
L 707.442603 93.57243 
L 715.889828 93.376013 
L 724.337052 93.181727 
L 732.784277 92.989548 
L 741.231502 92.799453 
L 749.678727 92.611419 
L 758.125952 92.425423 
L 766.573176 92.241442 
L 775.020401 92.059453 
L 783.467626 91.878136 
L 791.914851 91.697399 
L 800.362075 91.518616 
L 808.8093 91.341767 
L 817.256525 91.166829 
L 825.70375 90.993781 
L 834.150975 90.8226 
L 842.598199 90.653267 
L 851.045424 90.485761 
L 859.492649 90.320061 
L 867.939874 90.156147 
L 876.387098 89.994 
L 884.834323 89.8336 
L 893.281548 89.674928 
" clip-path="url(#p7890e1e70b)" style="fill: none; stroke: #6b6ecf; stroke-width: 2; stroke-linecap: round"/>
   </g>
   <g id="line2d_39">
    <path d="M 48.559071 247.265267 
L 57.006295 245.742242 
L 65.45352 244.232524 
L 73.900745 242.736533 
L 82.34797 241.246665 
L 90.795195 239.769656 
L 99.242419 238.307002 
L 107.689644 236.849324 
L 116.136869 235.405717 
L 124.584094 233.974358 
L 133.031318 232.549688 
L 141.478543 231.140304 
L 149.925768 229.738135 
L 158.372993 228.347886 
L 166.820217 226.969948 
L 175.267442 225.598999 
L 183.714667 224.244479 
L 192.161892 222.892879 
L 200.609117 221.558125 
L 209.056341 220.228986 
L 217.503566 218.913963 
L 225.950791 217.606575 
L 234.398016 216.311664 
L 242.84524 215.025148 
L 251.292465 213.750528 
L 259.73969 212.484382 
L 268.186915 211.230311 
L 276.63414 209.983774 
L 285.081364 208.750609 
L 293.528589 207.523156 
L 301.975814 206.311149 
L 310.423039 205.102179 
L 318.870263 203.909891 
L 327.317488 202.720748 
L 335.764713 201.54599 
L 344.211938 200.378728 
L 352.659162 199.22102 
L 361.106387 198.076046 
L 369.553612 196.93487 
L 378.000837 195.80907 
L 386.448062 194.687612 
L 394.895286 193.577515 
L 403.342511 192.479326 
L 411.789736 191.384538 
L 420.236961 190.304278 
L 428.684185 189.230358 
L 437.13141 188.164671 
L 445.578635 187.112847 
L 454.02586 186.06322 
L 462.473085 185.025528 
L 470.920309 184.000849 
L 479.367534 182.97659 
L 487.814759 181.965647 
L 496.261984 180.966396 
L 504.709208 179.968305 
L 513.156433 178.983083 
L 521.603658 178.009822 
L 530.050883 177.036926 
L 538.498107 176.076419 
L 546.945332 175.128187 
L 555.392557 174.180985 
L 563.839782 173.244305 
L 572.287007 172.319499 
L 580.734231 171.399335 
L 589.181456 170.485556 
L 597.628681 169.583284 
L 606.075906 168.690884 
L 614.52313 167.799185 
L 622.970355 166.918584 
L 631.41758 166.048942 
L 639.864805 165.184205 
L 648.31203 164.324522 
L 656.759254 163.475503 
L 665.206479 162.636935 
L 673.653704 161.800522 
L 682.100929 160.9713 
L 690.548153 160.15227 
L 698.995378 159.343295 
L 707.442603 158.535881 
L 715.889828 157.735709 
L 724.337052 156.945268 
L 732.784277 156.164436 
L 741.231502 155.386767 
L 749.678727 154.614235 
L 758.125952 153.85107 
L 766.573176 153.0971 
L 775.020401 152.350162 
L 783.467626 151.604007 
L 791.914851 150.866781 
L 800.362075 150.138391 
L 808.8093 149.4187 
L 817.256525 148.702119 
L 825.70375 147.989742 
L 834.150975 147.285835 
L 842.598199 146.590264 
L 851.045424 145.902904 
L 859.492649 145.217551 
L 867.939874 144.536955 
L 876.387098 143.864426 
L 884.834323 143.199837 
L 893.281548 142.543032 
" clip-path="url(#p7890e1e70b)" style="fill: none; stroke: #637939; stroke-width: 2; stroke-linecap: round"/>
   </g>
   <g id="line2d_40">
    <path d="M 48.559071 349.124885 
L 57.006295 347.025281 
L 65.45352 344.934133 
L 73.900745 342.851772 
L 82.34797 340.778019 
L 90.795195 338.71168 
L 99.242419 336.655011 
L 107.689644 334.608157 
L 116.136869 332.570178 
L 124.584094 330.540641 
L 133.031318 328.522312 
L 141.478543 326.51172 
L 149.925768 324.512156 
L 158.372993 322.521529 
L 166.820217 320.541688 
L 175.267442 318.570706 
L 183.714667 316.612028 
L 192.161892 314.660362 
L 200.609117 312.721415 
L 209.056341 310.792375 
L 217.503566 308.872385 
L 225.950791 306.964382 
L 234.398016 305.067987 
L 242.84524 303.179233 
L 251.292465 301.302117 
L 259.73969 299.436473 
L 268.186915 297.58211 
L 276.63414 295.738946 
L 285.081364 293.904898 
L 293.528589 292.081806 
L 301.975814 290.26993 
L 310.423039 288.469208 
L 318.870263 286.679663 
L 327.317488 284.901176 
L 335.764713 283.133795 
L 344.211938 281.377517 
L 352.659162 279.632342 
L 361.106387 277.898285 
L 369.553612 276.175459 
L 378.000837 274.463886 
L 386.448062 272.763616 
L 394.895286 271.074779 
L 403.342511 269.397496 
L 411.789736 267.729876 
L 420.236961 266.072921 
L 428.684185 264.427501 
L 437.13141 262.793792 
L 445.578635 261.171746 
L 454.02586 259.56194 
L 462.473085 257.960968 
L 470.920309 256.370609 
L 479.367534 254.792505 
L 487.814759 253.226903 
L 496.261984 251.671461 
L 504.709208 250.124885 
L 513.156433 248.59115 
L 521.603658 247.070589 
L 530.050883 245.557 
L 538.498107 244.055293 
L 546.945332 242.567247 
L 555.392557 241.087187 
L 563.839782 239.617957 
L 572.287007 238.162923 
L 580.734231 236.714517 
L 589.181456 235.278363 
L 597.628681 233.855837 
L 606.075906 232.43852 
L 614.52313 231.036281 
L 622.970355 229.642428 
L 631.41758 228.259265 
L 639.864805 226.889268 
L 648.31203 225.525247 
L 656.759254 224.177458 
L 665.206479 222.833526 
L 673.653704 221.505341 
L 682.100929 220.183454 
L 690.548153 218.874961 
L 698.995378 217.574477 
L 707.442603 216.285968 
L 715.889828 215.006134 
L 724.337052 213.737761 
L 732.784277 212.477932 
L 741.231502 211.229989 
L 749.678727 209.989563 
L 758.125952 208.76241 
L 766.573176 207.540797 
L 775.020401 206.33478 
L 783.467626 205.13136 
L 791.914851 203.944449 
L 800.362075 202.761052 
L 808.8093 201.591484 
L 817.256525 200.429907 
L 825.70375 199.277117 
L 834.150975 198.137831 
L 842.598199 197.001355 
L 851.045424 195.880072 
L 859.492649 194.76416 
L 867.939874 193.658427 
L 876.387098 192.565494 
L 884.834323 191.475049 
L 893.281548 190.398924 
" clip-path="url(#p7890e1e70b)" style="fill: none; stroke: #b5cf6b; stroke-width: 2; stroke-linecap: round"/>
   </g>
   <g id="line2d_41">
    <path d="M 48.559071 475.121332 
L 57.006295 473.170998 
L 65.45352 471.200095 
L 73.900745 469.209698 
L 82.34797 467.200577 
L 90.795195 465.173669 
L 99.242419 463.130163 
L 107.689644 461.070713 
L 116.136869 458.996248 
L 124.584094 456.907689 
L 133.031318 454.805609 
L 141.478543 452.691142 
L 149.925768 450.564901 
L 158.372993 448.427603 
L 166.820217 446.280166 
L 175.267442 444.123018 
L 183.714667 441.957172 
L 192.161892 439.783031 
L 200.609117 437.601672 
L 209.056341 435.413243 
L 217.503566 433.218534 
L 225.950791 431.018665 
L 234.398016 428.813166 
L 242.84524 426.603448 
L 251.292465 424.389915 
L 259.73969 422.173171 
L 268.186915 419.95379 
L 276.63414 417.731522 
L 285.081364 415.50804 
L 293.528589 413.283202 
L 301.975814 411.057231 
L 310.423039 408.831095 
L 318.870263 406.605185 
L 327.317488 404.379553 
L 335.764713 402.154669 
L 344.211938 399.931887 
L 352.659162 397.709905 
L 361.106387 395.490903 
L 369.553612 393.273922 
L 378.000837 391.059625 
L 386.448062 388.848705 
L 394.895286 386.6414 
L 403.342511 384.43799 
L 411.789736 382.238924 
L 420.236961 380.04473 
L 428.684185 377.854291 
L 437.13141 375.669252 
L 445.578635 373.490474 
L 454.02586 371.31568 
L 462.473085 369.148542 
L 470.920309 366.985858 
L 479.367534 364.830525 
L 487.814759 362.682431 
L 496.261984 360.539648 
L 504.709208 358.404353 
L 513.156433 356.276619 
L 521.603658 354.156425 
L 530.050883 352.043933 
L 538.498107 349.939154 
L 546.945332 347.842311 
L 555.392557 345.753748 
L 563.839782 343.673618 
L 572.287007 341.602312 
L 580.734231 339.540242 
L 589.181456 337.485366 
L 597.628681 335.439822 
L 606.075906 333.404487 
L 614.52313 331.377671 
L 622.970355 329.359677 
L 631.41758 327.353292 
L 639.864805 325.35341 
L 648.31203 323.366096 
L 656.759254 321.385982 
L 665.206479 319.4189 
L 673.653704 317.458365 
L 682.100929 315.510248 
L 690.548153 313.571552 
L 698.995378 311.642555 
L 707.442603 309.725613 
L 715.889828 307.817862 
L 724.337052 305.919897 
L 732.784277 304.033534 
L 741.231502 302.15861 
L 749.678727 300.293144 
L 758.125952 298.437616 
L 766.573176 296.593348 
L 775.020401 294.760336 
L 783.467626 292.93836 
L 791.914851 291.127422 
L 800.362075 289.327381 
L 808.8093 287.538313 
L 817.256525 285.760153 
L 825.70375 283.992679 
L 834.150975 282.236168 
L 842.598199 280.490714 
L 851.045424 278.755927 
L 859.492649 277.032186 
L 867.939874 275.319282 
L 876.387098 273.61747 
L 884.834323 271.927001 
L 893.281548 270.247621 
" clip-path="url(#p7890e1e70b)" style="fill: none; stroke: #8c6d31; stroke-width: 2; stroke-linecap: round"/>
   </g>
   <g id="line2d_42">
    <path d="M 48.559071 515.767288 
L 57.006295 514.868425 
L 65.45352 513.910139 
L 73.900745 512.89438 
L 82.34797 511.822994 
L 90.795195 510.697806 
L 99.242419 509.520686 
L 107.689644 508.293288 
L 116.136869 507.017402 
L 124.584094 505.694631 
L 133.031318 504.326662 
L 141.478543 502.915052 
L 149.925768 501.461358 
L 158.372993 499.967089 
L 166.820217 498.433739 
L 175.267442 496.862753 
L 183.714667 495.255579 
L 192.161892 493.613457 
L 200.609117 491.937946 
L 209.056341 490.230153 
L 217.503566 488.491405 
L 225.950791 486.72301 
L 234.398016 484.926121 
L 242.84524 483.101963 
L 251.292465 481.251672 
L 259.73969 479.376408 
L 268.186915 477.477212 
L 276.63414 475.555184 
L 285.081364 473.611346 
L 293.528589 471.646863 
L 301.975814 469.662396 
L 310.423039 467.659254 
L 318.870263 465.638199 
L 327.317488 463.600178 
L 335.764713 461.546293 
L 344.211938 459.476984 
L 352.659162 457.393461 
L 361.106387 455.296283 
L 369.553612 453.186521 
L 378.000837 451.064757 
L 386.448062 448.932097 
L 394.895286 446.788719 
L 403.342511 444.635765 
L 411.789736 442.473779 
L 420.236961 440.303554 
L 428.684185 438.125588 
L 437.13141 435.940751 
L 445.578635 433.749601 
L 454.02586 431.552445 
L 462.473085 429.350632 
L 470.920309 427.143737 
L 479.367534 424.933048 
L 487.814759 422.719074 
L 496.261984 420.501929 
L 504.709208 418.282306 
L 513.156433 416.061105 
L 521.603658 413.838624 
L 530.050883 411.614722 
L 538.498107 409.390551 
L 546.945332 407.16649 
L 555.392557 404.9428 
L 563.839782 402.719492 
L 572.287007 400.497998 
L 580.734231 398.277705 
L 589.181456 396.060219 
L 597.628681 393.844109 
L 606.075906 391.631199 
L 614.52313 389.421431 
L 622.970355 387.215151 
L 631.41758 385.012505 
L 639.864805 382.814009 
L 648.31203 380.620137 
L 656.759254 378.431339 
L 665.206479 376.246507 
L 673.653704 374.067445 
L 682.100929 371.894171 
L 690.548153 369.726149 
L 698.995378 367.564585 
L 707.442603 365.409757 
L 715.889828 363.260248 
L 724.337052 361.118274 
L 732.784277 358.983624 
L 741.231502 356.856353 
L 749.678727 354.73556 
L 758.125952 352.622507 
L 766.573176 350.517405 
L 775.020401 348.420509 
L 783.467626 346.331901 
L 791.914851 344.250885 
L 800.362075 342.178113 
L 808.8093 340.11427 
L 817.256525 338.059757 
L 825.70375 336.014984 
L 834.150975 333.977093 
L 842.598199 331.949319 
L 851.045424 329.932244 
L 859.492649 327.9221 
L 867.939874 325.92368 
L 876.387098 323.933113 
L 884.834323 321.954231 
L 893.281548 319.983331 
" clip-path="url(#p7890e1e70b)" style="fill: none; stroke: #e7cb94; stroke-width: 2; stroke-linecap: round"/>
   </g>
   <g id="line2d_43">
    <path d="M 48.559071 520.78087 
L 57.006295 520.236006 
L 65.45352 519.80663 
L 73.900745 519.309073 
L 82.34797 518.7395 
L 90.795195 518.100122 
L 99.242419 517.393146 
L 107.689644 516.620634 
L 116.136869 515.784708 
L 124.584094 514.887339 
L 133.031318 513.930533 
L 141.478543 512.916214 
L 149.925768 511.846243 
L 158.372993 510.722465 
L 166.820217 509.546698 
L 175.267442 508.320663 
L 183.714667 507.046123 
L 192.161892 505.724634 
L 200.609117 504.357988 
L 209.056341 502.947646 
L 217.503566 501.495216 
L 225.950791 500.002195 
L 234.398016 498.470057 
L 242.84524 496.900286 
L 251.292465 495.294255 
L 259.73969 493.653358 
L 268.186915 491.97889 
L 276.63414 490.272242 
L 285.081364 488.53465 
L 293.528589 486.767383 
L 301.975814 484.971551 
L 310.423039 483.148471 
L 318.870263 481.299203 
L 327.317488 479.424925 
L 335.764713 477.526809 
L 344.211938 475.605774 
L 352.659162 473.662932 
L 361.106387 471.699303 
L 369.553612 469.715905 
L 378.000837 467.713619 
L 386.448062 465.693595 
L 394.895286 463.65648 
L 403.342511 461.603223 
L 411.789736 459.534981 
L 420.236961 457.452208 
L 428.684185 455.355883 
L 437.13141 453.246909 
L 445.578635 451.125952 
L 454.02586 448.993872 
L 462.473085 446.851527 
L 470.920309 444.699235 
L 479.367534 442.537839 
L 487.814759 440.368547 
L 496.261984 438.191187 
L 504.709208 436.006965 
L 513.156433 433.816543 
L 521.603658 431.619971 
L 530.050883 429.418671 
L 538.498107 427.21269 
L 546.945332 425.002561 
L 555.392557 422.789083 
L 563.839782 420.572302 
L 572.287007 418.353471 
L 580.734231 416.132514 
L 589.181456 413.910601 
L 597.628681 411.687506 
L 606.075906 409.463847 
L 614.52313 407.240257 
L 622.970355 405.016604 
L 631.41758 402.793858 
L 639.864805 400.573079 
L 648.31203 398.352996 
L 656.759254 396.135774 
L 665.206479 393.920332 
L 673.653704 391.707652 
L 682.100929 389.498158 
L 690.548153 387.292227 
L 698.995378 385.090001 
L 707.442603 382.89197 
L 715.889828 380.69844 
L 724.337052 378.509852 
L 732.784277 376.325144 
L 741.231502 374.146627 
L 749.678727 371.973291 
L 758.125952 369.80585 
L 766.573176 367.644232 
L 775.020401 365.490072 
L 783.467626 363.340602 
L 791.914851 361.198611 
L 800.362075 359.063984 
L 808.8093 356.936768 
L 817.256525 354.816882 
L 825.70375 352.703925 
L 834.150975 350.599022 
L 842.598199 348.502181 
L 851.045424 346.41323 
L 859.492649 344.332268 
L 867.939874 342.259685 
L 876.387098 340.196042 
L 884.834323 338.14192 
L 893.281548 336.096874 
" clip-path="url(#p7890e1e70b)" style="fill: none; stroke: #ad494a; stroke-width: 2; stroke-linecap: round"/>
   </g>
   <g id="line2d_44">
    <path d="M 48.559071 524.347643 
L 57.006295 522.585068 
L 65.45352 521.42738 
L 73.900745 520.664028 
L 82.34797 520.158568 
L 90.795195 519.721425 
L 99.242419 519.210638 
L 107.689644 518.628235 
L 116.136869 517.976465 
L 124.584094 517.25745 
L 133.031318 516.47332 
L 141.478543 515.626135 
L 149.925768 514.717891 
L 158.372993 513.750549 
L 166.820217 512.726059 
L 175.267442 511.646267 
L 183.714667 510.513038 
L 192.161892 509.328064 
L 200.609117 508.093233 
L 209.056341 506.810131 
L 217.503566 505.480463 
L 225.950791 504.105857 
L 234.398016 502.687871 
L 242.84524 501.228077 
L 251.292465 499.727987 
L 259.73969 498.189058 
L 268.186915 496.612737 
L 276.63414 495.000411 
L 285.081364 493.353462 
L 293.528589 491.673264 
L 301.975814 489.961039 
L 310.423039 488.218107 
L 318.870263 486.445683 
L 327.317488 484.645013 
L 335.764713 482.81731 
L 344.211938 480.96366 
L 352.659162 479.085134 
L 361.106387 477.182864 
L 369.553612 475.257988 
L 378.000837 473.311437 
L 386.448062 471.34434 
L 394.895286 469.357627 
L 403.342511 467.352205 
L 411.789736 465.329178 
L 420.236961 463.289306 
L 428.684185 461.233421 
L 437.13141 459.162589 
L 445.578635 457.077442 
L 454.02586 454.979054 
L 462.473085 452.868105 
L 470.920309 450.745164 
L 479.367534 448.611435 
L 487.814759 446.46719 
L 496.261984 444.313537 
L 504.709208 442.150804 
L 513.156433 439.980118 
L 521.603658 437.801682 
L 530.050883 435.616494 
L 538.498107 433.425164 
L 546.945332 431.227752 
L 555.392557 429.0257 
L 563.839782 426.819226 
L 572.287007 424.608615 
L 580.734231 422.394436 
L 589.181456 420.177519 
L 597.628681 417.958854 
L 606.075906 415.737536 
L 614.52313 413.515229 
L 622.970355 411.292207 
L 631.41758 409.068612 
L 639.864805 406.844996 
L 648.31203 404.621931 
L 656.759254 402.400072 
L 665.206479 400.179008 
L 673.653704 397.960127 
L 682.100929 395.742653 
L 690.548153 393.528278 
L 698.995378 391.316863 
L 707.442603 389.108141 
L 715.889828 386.902887 
L 724.337052 384.701737 
L 732.784277 382.504401 
L 741.231502 380.311263 
L 749.678727 378.123095 
L 758.125952 375.94071 
L 766.573176 373.762501 
L 775.020401 371.590701 
L 783.467626 369.424174 
L 791.914851 367.264639 
L 800.362075 365.11004 
L 808.8093 362.962943 
L 817.256525 360.823194 
L 825.70375 358.689369 
L 834.150975 356.562803 
L 842.598199 354.443775 
L 851.045424 352.332507 
L 859.492649 350.229166 
L 867.939874 348.133721 
L 876.387098 346.046589 
L 884.834323 343.968202 
L 893.281548 341.898403 
" clip-path="url(#p7890e1e70b)" style="fill: none; stroke: #e7969c; stroke-width: 2; stroke-linecap: round"/>
   </g>
   <g id="line2d_45">
    <path d="M 48.559071 528.596791 
L 57.006295 525.361589 
L 65.45352 523.2491 
L 73.900745 521.864252 
L 82.34797 520.95253 
L 90.795195 520.349848 
L 99.242419 519.917625 
L 107.689644 519.438173 
L 116.136869 518.886184 
L 124.584094 518.263861 
L 133.031318 517.573401 
L 141.478543 516.816933 
L 149.925768 515.996525 
L 158.372993 515.114205 
L 166.820217 514.171982 
L 175.267442 513.171775 
L 183.714667 512.115506 
L 192.161892 511.004942 
L 200.609117 509.842003 
L 209.056341 508.628361 
L 217.503566 507.365766 
L 225.950791 506.055908 
L 234.398016 504.700397 
L 242.84524 503.300876 
L 251.292465 501.858868 
L 259.73969 500.37593 
L 268.186915 498.853512 
L 276.63414 497.293114 
L 285.081364 495.696099 
L 293.528589 494.063957 
L 301.975814 492.397861 
L 310.423039 490.699298 
L 318.870263 488.969432 
L 327.317488 487.209554 
L 335.764713 485.420977 
L 344.211938 483.60481 
L 352.659162 481.762117 
L 361.106387 479.8942 
L 369.553612 478.002079 
L 378.000837 476.086881 
L 386.448062 474.149574 
L 394.895286 472.191236 
L 403.342511 470.212848 
L 411.789736 468.215465 
L 420.236961 466.199941 
L 428.684185 464.167224 
L 437.13141 462.118226 
L 445.578635 460.053751 
L 454.02586 457.974727 
L 462.473085 455.882049 
L 470.920309 453.776355 
L 479.367534 451.658598 
L 487.814759 449.52961 
L 496.261984 447.389791 
L 504.709208 445.240124 
L 513.156433 443.081463 
L 521.603658 440.913987 
L 530.050883 438.738901 
L 538.498107 436.55665 
L 546.945332 434.367788 
L 555.392557 432.173284 
L 563.839782 429.973072 
L 572.287007 427.768415 
L 580.734231 425.559565 
L 589.181456 423.347013 
L 597.628681 421.13138 
L 606.075906 418.913632 
L 614.52313 416.693123 
L 622.970355 414.471666 
L 631.41758 412.24909 
L 639.864805 410.025653 
L 648.31203 407.802326 
L 656.759254 405.578812 
L 665.206479 403.356106 
L 673.653704 401.135033 
L 682.100929 398.914898 
L 690.548153 396.697392 
L 698.995378 394.481289 
L 707.442603 392.268359 
L 715.889828 390.058473 
L 724.337052 387.85196 
L 732.784277 385.648962 
L 741.231502 383.449896 
L 749.678727 381.255122 
L 758.125952 379.065289 
L 766.573176 376.880671 
L 775.020401 374.700124 
L 783.467626 372.526187 
L 791.914851 370.356937 
L 800.362075 368.194954 
L 808.8093 366.03763 
L 817.256525 363.887797 
L 825.70375 361.745224 
L 834.150975 359.608161 
L 842.598199 357.478487 
L 851.045424 355.356413 
L 859.492649 353.242034 
L 867.939874 351.135246 
L 876.387098 349.036385 
L 884.834323 346.945804 
L 893.281548 344.863473 
" clip-path="url(#p7890e1e70b)" style="fill: none; stroke: #a55194; stroke-width: 2; stroke-linecap: round"/>
   </g>
   <g id="line2d_46">
    <path d="M 48.559071 533.122558 
L 57.006295 528.304937 
L 65.45352 525.171272 
L 73.900745 523.124807 
L 82.34797 521.782586 
L 90.795195 520.898639 
L 99.242419 520.314172 
L 107.689644 519.884523 
L 116.136869 519.399628 
L 124.584094 518.842339 
L 133.031318 518.2149 
L 141.478543 517.519487 
L 149.925768 516.758212 
L 158.372993 515.93315 
L 166.820217 515.046353 
L 175.267442 514.09978 
L 183.714667 513.095398 
L 192.161892 512.035013 
L 200.609117 510.920584 
L 209.056341 509.753834 
L 217.503566 508.536532 
L 225.950791 507.270422 
L 234.398016 505.957142 
L 242.84524 504.598358 
L 251.292465 503.195669 
L 259.73969 501.750617 
L 268.186915 500.264727 
L 276.63414 498.739508 
L 285.081364 497.176397 
L 293.528589 495.576802 
L 301.975814 493.942078 
L 310.423039 492.273619 
L 318.870263 490.572702 
L 327.317488 488.840634 
L 335.764713 487.078715 
L 344.211938 485.288089 
L 352.659162 483.469891 
L 361.106387 481.625386 
L 369.553612 479.755711 
L 378.000837 477.861859 
L 386.448062 475.945068 
L 394.895286 474.006262 
L 403.342511 472.046388 
L 411.789736 470.066699 
L 420.236961 468.06795 
L 428.684185 466.051238 
L 437.13141 464.017303 
L 445.578635 461.967184 
L 454.02586 459.901591 
L 462.473085 457.82165 
L 470.920309 455.72807 
L 479.367534 453.621606 
L 487.814759 451.503025 
L 496.261984 449.372998 
L 504.709208 447.232556 
L 513.156433 445.08231 
L 521.603658 442.922879 
L 530.050883 440.755192 
L 538.498107 438.579606 
L 546.945332 436.396866 
L 555.392557 434.207725 
L 563.839782 432.012432 
L 572.287007 429.812329 
L 580.734231 427.607218 
L 589.181456 425.398078 
L 597.628681 423.185547 
L 606.075906 420.969785 
L 614.52313 418.751347 
L 622.970355 416.531342 
L 631.41758 414.30957 
L 639.864805 412.08664 
L 648.31203 409.863322 
L 656.759254 407.639874 
L 665.206479 405.41705 
L 673.653704 403.194596 
L 682.100929 400.973075 
L 690.548153 398.753848 
L 698.995378 396.535752 
L 707.442603 394.320351 
L 715.889828 392.107858 
L 724.337052 389.898506 
L 732.784277 387.692179 
L 741.231502 385.489676 
L 749.678727 383.290769 
L 758.125952 381.096155 
L 766.573176 378.906383 
L 775.020401 376.722207 
L 783.467626 374.542464 
L 791.914851 372.368377 
L 800.362075 370.200247 
L 808.8093 368.038019 
L 817.256525 365.881737 
L 825.70375 363.7328 
L 834.150975 361.58988 
L 842.598199 359.453506 
L 851.045424 357.324667 
L 859.492649 355.203408 
L 867.939874 353.089579 
L 876.387098 350.983466 
L 884.834323 348.88537 
L 893.281548 346.795209 
" clip-path="url(#p7890e1e70b)" style="fill: none; stroke: #de9ed6; stroke-width: 2; stroke-linecap: round"/>
   </g>
   <g id="patch_3">
    <path d="M 48.559071 521.153031 
L 48.559071 51.564121 
" style="fill: none"/>
   </g>
   <g id="patch_4">
    <path d="M 935.517672 521.153031 
L 935.517672 51.564121 
" style="fill: none"/>
   </g>
   <g id="patch_5">
    <path d="M 48.559071 521.153031 
L 935.517672 521.153031 
" style="fill: none"/>
   </g>
   <g id="patch_6">
    <path d="M 48.559071 51.564121 
L 935.517672 51.564121 
" style="fill: none"/>
   </g>
   <g id="patch_7">
    <path d="M 470.920309 80.963828 
Q 470.920309 263.994926 470.920309 445.348974 
" style="fill: none; stroke: #000000; stroke-width: 1.5; stroke-linecap: round"/>
    <path d="M 474.120309 438.948974 
L 470.920309 445.348974 
L 467.720309 438.948974 
" style="fill: none; stroke: #000000; stroke-width: 1.5; stroke-linecap: round"/>
   </g>
   <g id="text_20">
    <!-- Time -->
    <g style="fill: #262626" transform="translate(492.038371 445.540142) scale(0.18 -0.18)">
     <defs>
      <path id="CMR17-54" d="M 3981 4326 
L 288 4326 
L 179 2918 
L 294 2918 
C 378 3976 467 4160 1453 4160 
C 1568 4160 1754 4160 1805 4154 
C 1926 4135 1926 4058 1926 3912 
L 1926 459 
C 1926 230 1907 160 1376 160 
L 1197 160 
L 1197 0 
C 1504 0 1824 0 2138 0 
C 2451 0 2771 0 3078 0 
L 3078 160 
L 2899 160 
C 2368 160 2349 230 2349 459 
L 2349 3912 
C 2349 4052 2349 4129 2464 4154 
C 2515 4160 2701 4160 2816 4160 
C 3795 4160 3891 3976 3974 2918 
L 4090 2918 
L 3981 4326 
z
" transform="scale(0.015625)"/>
      <path id="CMR17-69" d="M 992 3909 
C 992 4049 877 4170 730 4170 
C 589 4170 467 4056 467 3909 
C 467 3769 582 3648 730 3648 
C 870 3648 992 3763 992 3909 
z
M 243 2706 
L 243 2541 
C 602 2541 653 2502 653 2197 
L 653 427 
C 653 184 627 153 218 153 
L 218 -13 
C 371 0 646 0 806 0 
C 960 0 1222 0 1370 -13 
L 1370 153 
C 992 153 979 191 979 420 
L 979 2776 
L 243 2706 
z
" transform="scale(0.015625)"/>
      <path id="CMR17-6d" d="M 4326 1933 
C 4326 2252 4269 2790 3507 2790 
C 3072 2790 2771 2496 2656 2151 
L 2650 2151 
C 2573 2676 2195 2790 1837 2790 
C 1331 2790 1069 2400 973 2144 
L 966 2144 
L 966 2790 
L 211 2720 
L 211 2554 
C 589 2554 646 2515 646 2208 
L 646 428 
C 646 184 621 153 211 153 
L 211 -13 
C 365 0 646 0 813 0 
C 979 0 1267 0 1421 -13 
L 1421 153 
C 1011 153 986 178 986 428 
L 986 1658 
C 986 2247 1344 2688 1792 2688 
C 2266 2688 2317 2266 2317 1958 
L 2317 428 
C 2317 184 2291 153 1882 153 
L 1882 -13 
C 2035 0 2317 0 2483 0 
C 2650 0 2938 0 3091 -13 
L 3091 153 
C 2682 153 2656 178 2656 428 
L 2656 1658 
C 2656 2247 3014 2688 3462 2688 
C 3936 2688 3987 2266 3987 1958 
L 3987 428 
C 3987 184 3962 153 3552 153 
L 3552 -13 
C 3706 0 3987 0 4154 0 
C 4320 0 4608 0 4762 -13 
L 4762 153 
C 4352 153 4326 178 4326 428 
L 4326 1933 
z
" transform="scale(0.015625)"/>
      <path id="CMR17-65" d="M 2438 1472 
C 2464 1498 2464 1511 2464 1576 
C 2464 2238 2118 2816 1389 2816 
C 710 2816 173 2169 173 1383 
C 173 551 781 -64 1459 -64 
C 2176 -64 2458 607 2458 740 
C 2458 784 2419 784 2406 784 
C 2362 784 2355 771 2330 696 
C 2189 265 1837 51 1504 51 
C 1229 51 954 203 781 480 
C 582 803 582 1176 582 1472 
L 2438 1472 
z
M 589 1568 
C 634 2505 1126 2714 1382 2714 
C 1818 2714 2112 2297 2118 1568 
L 589 1568 
z
" transform="scale(0.015625)"/>
     </defs>
     <use xlink:href="#CMR17-54" transform="scale(0.996264)"/>
     <use xlink:href="#CMR17-69" transform="translate(66.509881 0) scale(0.996264)"/>
     <use xlink:href="#CMR17-6d" transform="translate(91.380939 0) scale(0.996264)"/>
     <use xlink:href="#CMR17-65" transform="translate(168.300529 0) scale(0.996264)"/>
    </g>
   </g>
   <g id="legend_1">
    <g id="line2d_47">
     <path d="M 948.117672 197.198434 
L 962.117672 197.198434 
L 976.117672 197.198434 
" style="fill: none; stroke: #393b79; stroke-width: 2; stroke-linecap: round"/>
    </g>
    <g id="text_21">
     <!-- t = 0.00 -->
     <g style="fill: #262626" transform="translate(987.317672 202.098434) scale(0.14 -0.14)">
      <defs>
       <path id="CMR17-74" d="M 966 2560 
L 1862 2560 
L 1862 2725 
L 966 2725 
L 966 3904 
L 851 3904 
C 838 3245 614 2668 70 2668 
L 70 2560 
L 627 2560 
L 627 771 
C 627 650 627 -64 1370 -64 
C 1747 -64 1965 306 1965 777 
L 1965 1140 
L 1850 1140 
L 1850 783 
C 1850 344 1677 51 1408 51 
C 1222 51 966 178 966 758 
L 966 2560 
z
" transform="scale(0.015625)"/>
       <path id="CMR17-3d" d="M 4115 2017 
C 4211 2017 4307 2017 4307 2125 
C 4307 2240 4198 2240 4090 2240 
L 512 2240 
C 403 2240 294 2240 294 2125 
C 294 2017 390 2017 486 2017 
L 4115 2017 
z
M 4090 896 
C 4198 896 4307 896 4307 1011 
C 4307 1119 4211 1119 4115 1119 
L 486 1119 
C 390 1119 294 1119 294 1011 
C 294 896 403 896 512 896 
L 4090 896 
z
" transform="scale(0.015625)"/>
       <path id="CMR17-2e" d="M 1062 261 
C 1062 420 934 522 800 522 
C 672 522 538 420 538 261 
C 538 102 666 0 800 0 
C 928 0 1062 102 1062 261 
z
" transform="scale(0.015625)"/>
      </defs>
      <use xlink:href="#CMR17-74" transform="scale(0.996264)"/>
      <use xlink:href="#CMR17-3d" transform="translate(65.356734 0) scale(0.996264)"/>
      <use xlink:href="#CMR17-30" transform="translate(167.147489 0) scale(0.996264)"/>
      <use xlink:href="#CMR17-2e" transform="translate(212.837966 0) scale(0.996264)"/>
      <use xlink:href="#CMR17-30" transform="translate(237.709025 0) scale(0.996264)"/>
      <use xlink:href="#CMR17-30" transform="translate(283.399502 0) scale(0.996264)"/>
     </g>
    </g>
    <g id="line2d_48">
     <path d="M 948.117672 216.710462 
L 962.117672 216.710462 
L 976.117672 216.710462 
" style="fill: none; stroke: #6b6ecf; stroke-width: 2; stroke-linecap: round"/>
    </g>
    <g id="text_22">
     <!-- t = 10.00 -->
     <g style="fill: #262626" transform="translate(987.317672 221.610462) scale(0.14 -0.14)">
      <use xlink:href="#CMR17-74" transform="scale(0.996264)"/>
      <use xlink:href="#CMR17-3d" transform="translate(65.356734 0) scale(0.996264)"/>
      <use xlink:href="#CMR17-31" transform="translate(167.147489 0) scale(0.996264)"/>
      <use xlink:href="#CMR17-30" transform="translate(212.837966 0) scale(0.996264)"/>
      <use xlink:href="#CMR17-2e" transform="translate(258.528443 0) scale(0.996264)"/>
      <use xlink:href="#CMR17-30" transform="translate(283.399502 0) scale(0.996264)"/>
      <use xlink:href="#CMR17-30" transform="translate(329.089979 0) scale(0.996264)"/>
     </g>
    </g>
    <g id="line2d_49">
     <path d="M 948.117672 236.222491 
L 962.117672 236.222491 
L 976.117672 236.222491 
" style="fill: none; stroke: #637939; stroke-width: 2; stroke-linecap: round"/>
    </g>
    <g id="text_23">
     <!-- t = 50.00 -->
     <g style="fill: #262626" transform="translate(987.317672 241.122491) scale(0.14 -0.14)">
      <use xlink:href="#CMR17-74" transform="scale(0.996264)"/>
      <use xlink:href="#CMR17-3d" transform="translate(65.356734 0) scale(0.996264)"/>
      <use xlink:href="#CMR17-35" transform="translate(167.147489 0) scale(0.996264)"/>
      <use xlink:href="#CMR17-30" transform="translate(212.837966 0) scale(0.996264)"/>
      <use xlink:href="#CMR17-2e" transform="translate(258.528443 0) scale(0.996264)"/>
      <use xlink:href="#CMR17-30" transform="translate(283.399502 0) scale(0.996264)"/>
      <use xlink:href="#CMR17-30" transform="translate(329.089979 0) scale(0.996264)"/>
     </g>
    </g>
    <g id="line2d_50">
     <path d="M 948.117672 255.734519 
L 962.117672 255.734519 
L 976.117672 255.734519 
" style="fill: none; stroke: #b5cf6b; stroke-width: 2; stroke-linecap: round"/>
    </g>
    <g id="text_24">
     <!-- t = 100.00 -->
     <g style="fill: #262626" transform="translate(987.317672 260.634519) scale(0.14 -0.14)">
      <use xlink:href="#CMR17-74" transform="scale(0.996264)"/>
      <use xlink:href="#CMR17-3d" transform="translate(65.356734 0) scale(0.996264)"/>
      <use xlink:href="#CMR17-31" transform="translate(167.147489 0) scale(0.996264)"/>
      <use xlink:href="#CMR17-30" transform="translate(212.837966 0) scale(0.996264)"/>
      <use xlink:href="#CMR17-30" transform="translate(258.528443 0) scale(0.996264)"/>
      <use xlink:href="#CMR17-2e" transform="translate(304.21892 0) scale(0.996264)"/>
      <use xlink:href="#CMR17-30" transform="translate(329.089979 0) scale(0.996264)"/>
      <use xlink:href="#CMR17-30" transform="translate(374.780456 0) scale(0.996264)"/>
     </g>
    </g>
    <g id="line2d_51">
     <path d="M 948.117672 275.246547 
L 962.117672 275.246547 
L 976.117672 275.246547 
" style="fill: none; stroke: #8c6d31; stroke-width: 2; stroke-linecap: round"/>
    </g>
    <g id="text_25">
     <!-- t = 250.00 -->
     <g style="fill: #262626" transform="translate(987.317672 280.146547) scale(0.14 -0.14)">
      <use xlink:href="#CMR17-74" transform="scale(0.996264)"/>
      <use xlink:href="#CMR17-3d" transform="translate(65.356734 0) scale(0.996264)"/>
      <use xlink:href="#CMR17-32" transform="translate(167.147489 0) scale(0.996264)"/>
      <use xlink:href="#CMR17-35" transform="translate(212.837966 0) scale(0.996264)"/>
      <use xlink:href="#CMR17-30" transform="translate(258.528443 0) scale(0.996264)"/>
      <use xlink:href="#CMR17-2e" transform="translate(304.21892 0) scale(0.996264)"/>
      <use xlink:href="#CMR17-30" transform="translate(329.089979 0) scale(0.996264)"/>
      <use xlink:href="#CMR17-30" transform="translate(374.780456 0) scale(0.996264)"/>
     </g>
    </g>
    <g id="line2d_52">
     <path d="M 948.117672 294.758576 
L 962.117672 294.758576 
L 976.117672 294.758576 
" style="fill: none; stroke: #e7cb94; stroke-width: 2; stroke-linecap: round"/>
    </g>
    <g id="text_26">
     <!-- t = 500.00 -->
     <g style="fill: #262626" transform="translate(987.317672 299.658576) scale(0.14 -0.14)">
      <use xlink:href="#CMR17-74" transform="scale(0.996264)"/>
      <use xlink:href="#CMR17-3d" transform="translate(65.356734 0) scale(0.996264)"/>
      <use xlink:href="#CMR17-35" transform="translate(167.147489 0) scale(0.996264)"/>
      <use xlink:href="#CMR17-30" transform="translate(212.837966 0) scale(0.996264)"/>
      <use xlink:href="#CMR17-30" transform="translate(258.528443 0) scale(0.996264)"/>
      <use xlink:href="#CMR17-2e" transform="translate(304.21892 0) scale(0.996264)"/>
      <use xlink:href="#CMR17-30" transform="translate(329.089979 0) scale(0.996264)"/>
      <use xlink:href="#CMR17-30" transform="translate(374.780456 0) scale(0.996264)"/>
     </g>
    </g>
    <g id="line2d_53">
     <path d="M 948.117672 314.270604 
L 962.117672 314.270604 
L 976.117672 314.270604 
" style="fill: none; stroke: #ad494a; stroke-width: 2; stroke-linecap: round"/>
    </g>
    <g id="text_27">
     <!-- t = 750.00 -->
     <g style="fill: #262626" transform="translate(987.317672 319.170604) scale(0.14 -0.14)">
      <use xlink:href="#CMR17-74" transform="scale(0.996264)"/>
      <use xlink:href="#CMR17-3d" transform="translate(65.356734 0) scale(0.996264)"/>
      <use xlink:href="#CMR17-37" transform="translate(167.147489 0) scale(0.996264)"/>
      <use xlink:href="#CMR17-35" transform="translate(212.837966 0) scale(0.996264)"/>
      <use xlink:href="#CMR17-30" transform="translate(258.528443 0) scale(0.996264)"/>
      <use xlink:href="#CMR17-2e" transform="translate(304.21892 0) scale(0.996264)"/>
      <use xlink:href="#CMR17-30" transform="translate(329.089979 0) scale(0.996264)"/>
      <use xlink:href="#CMR17-30" transform="translate(374.780456 0) scale(0.996264)"/>
     </g>
    </g>
    <g id="line2d_54">
     <path d="M 948.117672 333.782633 
L 962.117672 333.782633 
L 976.117672 333.782633 
" style="fill: none; stroke: #e7969c; stroke-width: 2; stroke-linecap: round"/>
    </g>
    <g id="text_28">
     <!-- t = 1000.00 -->
     <g style="fill: #262626" transform="translate(987.317672 338.682633) scale(0.14 -0.14)">
      <use xlink:href="#CMR17-74" transform="scale(0.996264)"/>
      <use xlink:href="#CMR17-3d" transform="translate(65.356734 0) scale(0.996264)"/>
      <use xlink:href="#CMR17-31" transform="translate(167.147489 0) scale(0.996264)"/>
      <use xlink:href="#CMR17-30" transform="translate(212.837966 0) scale(0.996264)"/>
      <use xlink:href="#CMR17-30" transform="translate(258.528443 0) scale(0.996264)"/>
      <use xlink:href="#CMR17-30" transform="translate(304.21892 0) scale(0.996264)"/>
      <use xlink:href="#CMR17-2e" transform="translate(349.909397 0) scale(0.996264)"/>
      <use xlink:href="#CMR17-30" transform="translate(374.780456 0) scale(0.996264)"/>
      <use xlink:href="#CMR17-30" transform="translate(420.470933 0) scale(0.996264)"/>
     </g>
    </g>
    <g id="line2d_55">
     <path d="M 948.117672 353.294661 
L 962.117672 353.294661 
L 976.117672 353.294661 
" style="fill: none; stroke: #a55194; stroke-width: 2; stroke-linecap: round"/>
    </g>
    <g id="text_29">
     <!-- t = 1250.00 -->
     <g style="fill: #262626" transform="translate(987.317672 358.194661) scale(0.14 -0.14)">
      <use xlink:href="#CMR17-74" transform="scale(0.996264)"/>
      <use xlink:href="#CMR17-3d" transform="translate(65.356734 0) scale(0.996264)"/>
      <use xlink:href="#CMR17-31" transform="translate(167.147489 0) scale(0.996264)"/>
      <use xlink:href="#CMR17-32" transform="translate(212.837966 0) scale(0.996264)"/>
      <use xlink:href="#CMR17-35" transform="translate(258.528443 0) scale(0.996264)"/>
      <use xlink:href="#CMR17-30" transform="translate(304.21892 0) scale(0.996264)"/>
      <use xlink:href="#CMR17-2e" transform="translate(349.909397 0) scale(0.996264)"/>
      <use xlink:href="#CMR17-30" transform="translate(374.780456 0) scale(0.996264)"/>
      <use xlink:href="#CMR17-30" transform="translate(420.470933 0) scale(0.996264)"/>
     </g>
    </g>
    <g id="line2d_56">
     <path d="M 948.117672 372.806689 
L 962.117672 372.806689 
L 976.117672 372.806689 
" style="fill: none; stroke: #de9ed6; stroke-width: 2; stroke-linecap: round"/>
    </g>
    <g id="text_30">
     <!-- t = 1500.00 -->
     <g style="fill: #262626" transform="translate(987.317672 377.706689) scale(0.14 -0.14)">
      <use xlink:href="#CMR17-74" transform="scale(0.996264)"/>
      <use xlink:href="#CMR17-3d" transform="translate(65.356734 0) scale(0.996264)"/>
      <use xlink:href="#CMR17-31" transform="translate(167.147489 0) scale(0.996264)"/>
      <use xlink:href="#CMR17-35" transform="translate(212.837966 0) scale(0.996264)"/>
      <use xlink:href="#CMR17-30" transform="translate(258.528443 0) scale(0.996264)"/>
      <use xlink:href="#CMR17-30" transform="translate(304.21892 0) scale(0.996264)"/>
      <use xlink:href="#CMR17-2e" transform="translate(349.909397 0) scale(0.996264)"/>
      <use xlink:href="#CMR17-30" transform="translate(374.780456 0) scale(0.996264)"/>
      <use xlink:href="#CMR17-30" transform="translate(420.470933 0) scale(0.996264)"/>
     </g>
    </g>
   </g>
  </g>
  <g id="text_31">
   <!-- adhesivity -->
   <g style="fill: #262626" transform="translate(501.333696 24.803515) scale(0.192 -0.192)">
    <defs>
     <path id="CMR17-61" d="M 2304 1653 
C 2304 2072 2304 2294 2035 2543 
C 1798 2752 1523 2816 1306 2816 
C 800 2816 435 2407 435 1971 
C 435 1728 627 1728 666 1728 
C 749 1728 896 1778 896 1954 
C 896 2112 774 2181 666 2181 
C 640 2181 608 2174 589 2168 
C 723 2592 1069 2714 1293 2714 
C 1613 2714 1965 2429 1965 1885 
L 1965 1600 
C 1587 1600 1133 1549 774 1357 
C 371 1133 256 813 256 570 
C 256 77 832 -64 1171 -64 
C 1523 -64 1850 139 1990 511 
C 2003 233 2182 -18 2464 -18 
C 2598 -18 2938 70 2938 567 
L 2938 920 
L 2822 920 
L 2822 562 
C 2822 178 2650 128 2566 128 
C 2304 128 2304 458 2304 738 
L 2304 1653 
z
M 1965 870 
C 1965 317 1568 38 1216 38 
C 896 38 646 275 646 570 
C 646 761 730 1100 1101 1305 
C 1408 1478 1760 1504 1965 1504 
L 1965 870 
z
" transform="scale(0.015625)"/>
     <path id="CMR17-64" d="M 1869 4326 
L 1869 4160 
C 2246 4160 2304 4122 2304 3820 
L 2304 2345 
C 2278 2377 2016 2790 1498 2790 
C 845 2790 211 2208 211 1364 
C 211 525 806 -64 1434 -64 
C 1978 -64 2259 337 2291 380 
L 2291 -63 
L 3066 -63 
L 3066 128 
C 2688 128 2630 166 2630 473 
L 2630 4396 
L 1869 4326 
z
M 2291 755 
C 2291 563 2176 390 2029 262 
C 1811 70 1594 38 1472 38 
C 1286 38 621 134 621 1356 
C 621 2612 1363 2688 1530 2688 
C 1824 2688 2061 2522 2208 2291 
C 2291 2157 2291 2138 2291 2023 
L 2291 755 
z
" transform="scale(0.015625)"/>
     <path id="CMR17-68" d="M 2656 1933 
C 2656 2259 2592 2790 1837 2790 
C 1312 2790 1056 2368 979 2157 
L 973 2157 
L 973 4396 
L 211 4326 
L 211 4160 
C 589 4160 646 4122 646 3817 
L 646 426 
C 646 184 621 153 211 153 
L 211 -13 
C 365 0 646 0 813 0 
C 979 0 1267 0 1421 -13 
L 1421 153 
C 1011 153 986 178 986 428 
L 986 1658 
C 986 2247 1344 2688 1792 2688 
C 2266 2688 2317 2266 2317 1958 
L 2317 428 
C 2317 184 2291 153 1882 153 
L 1882 -13 
C 2035 0 2317 0 2483 0 
C 2650 0 2938 0 3091 -13 
L 3091 153 
C 2682 153 2656 178 2656 428 
L 2656 1933 
z
" transform="scale(0.015625)"/>
     <path id="CMR17-73" d="M 1978 2697 
C 1978 2813 1971 2819 1933 2819 
C 1907 2819 1901 2813 1824 2717 
C 1805 2691 1747 2626 1728 2601 
C 1523 2819 1235 2819 1126 2819 
C 416 2819 160 2447 160 2076 
C 160 1498 813 1365 998 1325 
C 1402 1243 1542 1217 1677 1101 
C 1760 1025 1901 884 1901 654 
C 1901 384 1747 38 1158 38 
C 602 38 403 460 288 1021 
C 269 1110 269 1117 218 1117 
C 166 1117 160 1110 160 983 
L 160 63 
C 160 -51 166 -58 205 -58 
C 237 -58 243 -51 275 0 
C 314 57 410 211 448 276 
C 576 103 800 -64 1158 -64 
C 1792 -64 2131 283 2131 784 
C 2131 1112 1958 1285 1875 1362 
C 1683 1561 1459 1606 1190 1657 
C 838 1735 390 1825 390 2217 
C 390 2383 480 2737 1126 2737 
C 1811 2737 1850 2094 1862 1888 
C 1869 1856 1901 1849 1920 1849 
C 1978 1849 1978 1869 1978 1978 
L 1978 2697 
z
" transform="scale(0.015625)"/>
     <path id="CMR17-76" d="M 2502 2163 
C 2560 2304 2662 2560 3034 2560 
L 3034 2726 
C 2912 2726 2752 2726 2630 2726 
C 2496 2726 2285 2726 2157 2732 
L 2157 2566 
C 2317 2553 2406 2477 2406 2311 
C 2406 2253 2406 2240 2368 2151 
L 1664 377 
L 902 2286 
C 864 2369 864 2381 864 2407 
C 864 2560 1075 2560 1171 2560 
L 1171 2732 
C 1018 2726 736 2726 576 2726 
C 403 2726 205 2726 64 2732 
L 64 2560 
C 307 2560 442 2560 518 2362 
L 1446 44 
C 1485 -51 1491 -64 1549 -64 
C 1606 -64 1613 -51 1651 44 
L 2502 2163 
z
" transform="scale(0.015625)"/>
     <path id="CMR17-79" d="M 2496 2197 
C 2656 2586 2944 2586 3034 2586 
L 3034 2752 
C 2912 2752 2752 2752 2630 2752 
C 2496 2752 2285 2752 2157 2758 
L 2157 2592 
C 2400 2573 2406 2394 2406 2343 
C 2406 2280 2394 2248 2362 2171 
L 1664 449 
L 902 2306 
C 870 2382 870 2426 870 2433 
C 870 2573 1018 2586 1171 2586 
L 1171 2758 
C 1018 2752 742 2752 582 2752 
C 410 2752 205 2752 64 2758 
L 64 2586 
C 410 2586 448 2554 531 2350 
L 1485 15 
C 1197 -738 1030 -1178 627 -1178 
C 557 -1178 397 -1159 282 -1044 
C 429 -1031 493 -942 493 -833 
C 493 -725 416 -629 288 -629 
C 147 -629 77 -725 77 -840 
C 77 -1095 339 -1280 627 -1280 
C 998 -1280 1229 -922 1357 -604 
L 2496 2197 
z
" transform="scale(0.015625)"/>
    </defs>
    <use xlink:href="#CMR17-61" transform="scale(0.996264)"/>
    <use xlink:href="#CMR17-64" transform="translate(45.690477 0) scale(0.996264)"/>
    <use xlink:href="#CMR17-68" transform="translate(96.585847 0) scale(0.996264)"/>
    <use xlink:href="#CMR17-65" transform="translate(147.481217 0) scale(0.996264)"/>
    <use xlink:href="#CMR17-73" transform="translate(187.966877 0) scale(0.996264)"/>
    <use xlink:href="#CMR17-69" transform="translate(223.768215 0) scale(0.996264)"/>
    <use xlink:href="#CMR17-76" transform="translate(248.639273 0) scale(0.996264)"/>
    <use xlink:href="#CMR17-69" transform="translate(296.932189 0) scale(0.996264)"/>
    <use xlink:href="#CMR17-74" transform="translate(321.803248 0) scale(0.996264)"/>
    <use xlink:href="#CMR17-79" transform="translate(354.481561 0) scale(0.996264)"/>
   </g>
  </g>
 </g>
 <defs>
  <clipPath id="p7890e1e70b">
   <rect x="48.559071" y="51.564121" width="886.958601" height="469.58891"/>
  </clipPath>
 </defs>
</svg>
