<?xml version="1.0" encoding="utf-8" standalone="no"?>
<!DOCTYPE svg PUBLIC "-//W3C//DTD SVG 1.1//EN"
  "http://www.w3.org/Graphics/SVG/1.1/DTD/svg11.dtd">
<svg xmlns:xlink="http://www.w3.org/1999/xlink" width="1080pt" height="576pt" viewBox="0 0 1080 576" xmlns="http://www.w3.org/2000/svg" version="1.1">
 <metadata>
  <rdf:RDF xmlns:dc="http://purl.org/dc/elements/1.1/" xmlns:cc="http://creativecommons.org/ns#" xmlns:rdf="http://www.w3.org/1999/02/22-rdf-syntax-ns#">
   <cc:Work>
    <dc:type rdf:resource="http://purl.org/dc/dcmitype/StillImage"/>
    <dc:date>2024-06-28T11:50:48.559875</dc:date>
    <dc:format>image/svg+xml</dc:format>
    <dc:creator>
     <cc:Agent>
      <dc:title>Matplotlib v3.9.0, https://matplotlib.org/</dc:title>
     </cc:Agent>
    </dc:creator>
   </cc:Work>
  </rdf:RDF>
 </metadata>
 <defs>
  <style type="text/css">*{stroke-linejoin: round; stroke-linecap: butt}</style>
 </defs>
 <g id="figure_1">
  <g id="patch_1">
   <path d="M 0 576 
L 1080 576 
L 1080 0 
L 0 0 
z
" style="fill: #ffffff"/>
  </g>
  <g id="axes_1">
   <g id="patch_2">
    <path d="M 55.387559 521.153031 
L 935.517672 521.153031 
L 935.517672 51.564121 
L 55.387559 51.564121 
z
" style="fill: #eaeaf2"/>
   </g>
   <g id="matplotlib.axis_1">
    <g id="xtick_1">
     <g id="line2d_1">
      <path d="M 55.387559 521.153031 
L 55.387559 51.564121 
" clip-path="url(#pe403648141)" style="fill: none; stroke: #ffffff; stroke-linecap: round"/>
     </g>
     <g id="line2d_2"/>
     <g id="text_1">
      <!-- $\mathdefault{0.00}$ -->
      <g style="fill: #262626" transform="translate(43.248024 537.838907) scale(0.14 -0.14)">
       <defs>
        <path id="CMR17-30" d="M 2688 2025 
C 2688 2416 2682 3080 2413 3591 
C 2176 4039 1798 4198 1466 4198 
C 1158 4198 768 4058 525 3597 
C 269 3118 243 2524 243 2025 
C 243 1661 250 1106 448 619 
C 723 -39 1216 -128 1466 -128 
C 1760 -128 2208 -7 2470 600 
C 2662 1042 2688 1559 2688 2025 
z
M 1466 -26 
C 1056 -26 813 325 723 812 
C 653 1188 653 1738 653 2096 
C 653 2588 653 2997 736 3387 
C 858 3929 1216 4096 1466 4096 
C 1728 4096 2067 3923 2189 3400 
C 2272 3036 2278 2607 2278 2096 
C 2278 1680 2278 1169 2202 792 
C 2067 95 1690 -26 1466 -26 
z
" transform="scale(0.015625)"/>
        <path id="CMMI12-3a" d="M 1178 307 
C 1178 492 1024 619 870 619 
C 685 619 557 466 557 313 
C 557 128 710 0 864 0 
C 1050 0 1178 153 1178 307 
z
" transform="scale(0.015625)"/>
       </defs>
       <use xlink:href="#CMR17-30" transform="scale(0.996264)"/>
       <use xlink:href="#CMMI12-3a" transform="translate(45.690477 0) scale(0.996264)"/>
       <use xlink:href="#CMR17-30" transform="translate(72.787654 0) scale(0.996264)"/>
       <use xlink:href="#CMR17-30" transform="translate(118.478131 0) scale(0.996264)"/>
      </g>
     </g>
    </g>
    <g id="xtick_2">
     <g id="line2d_3">
      <path d="M 160.164954 521.153031 
L 160.164954 51.564121 
" clip-path="url(#pe403648141)" style="fill: none; stroke: #ffffff; stroke-linecap: round"/>
     </g>
     <g id="line2d_4"/>
     <g id="text_2">
      <!-- $\mathdefault{0.25}$ -->
      <g style="fill: #262626" transform="translate(148.025418 537.838907) scale(0.14 -0.14)">
       <defs>
        <path id="CMR17-32" d="M 2669 989 
L 2554 989 
C 2490 536 2438 459 2413 420 
C 2381 369 1920 369 1830 369 
L 602 369 
C 832 619 1280 1072 1824 1597 
C 2214 1967 2669 2402 2669 3035 
C 2669 3790 2067 4224 1395 4224 
C 691 4224 262 3604 262 3030 
C 262 2780 448 2748 525 2748 
C 589 2748 781 2787 781 3010 
C 781 3207 614 3264 525 3264 
C 486 3264 448 3258 422 3245 
C 544 3790 915 4058 1306 4058 
C 1862 4058 2227 3617 2227 3035 
C 2227 2479 1901 2000 1536 1584 
L 262 146 
L 262 0 
L 2515 0 
L 2669 989 
z
" transform="scale(0.015625)"/>
        <path id="CMR17-35" d="M 730 3692 
C 794 3666 1056 3584 1325 3584 
C 1920 3584 2246 3911 2432 4100 
C 2432 4157 2432 4192 2394 4192 
C 2387 4192 2374 4192 2323 4163 
C 2099 4058 1837 3973 1517 3973 
C 1325 3973 1037 3999 723 4139 
C 653 4171 640 4171 634 4171 
C 602 4171 595 4164 595 4037 
L 595 2203 
C 595 2089 595 2057 659 2057 
C 691 2057 704 2070 736 2114 
C 941 2401 1222 2522 1542 2522 
C 1766 2522 2246 2382 2246 1289 
C 2246 1085 2246 715 2054 421 
C 1894 159 1645 25 1370 25 
C 947 25 518 320 403 814 
C 429 807 480 795 506 795 
C 589 795 749 840 749 1038 
C 749 1210 627 1280 506 1280 
C 358 1280 262 1190 262 1011 
C 262 454 704 -128 1382 -128 
C 2042 -128 2669 440 2669 1264 
C 2669 2030 2170 2624 1549 2624 
C 1222 2624 947 2503 730 2274 
L 730 3692 
z
" transform="scale(0.015625)"/>
       </defs>
       <use xlink:href="#CMR17-30" transform="scale(0.996264)"/>
       <use xlink:href="#CMMI12-3a" transform="translate(45.690477 0) scale(0.996264)"/>
       <use xlink:href="#CMR17-32" transform="translate(72.787654 0) scale(0.996264)"/>
       <use xlink:href="#CMR17-35" transform="translate(118.478131 0) scale(0.996264)"/>
      </g>
     </g>
    </g>
    <g id="xtick_3">
     <g id="line2d_5">
      <path d="M 264.942348 521.153031 
L 264.942348 51.564121 
" clip-path="url(#pe403648141)" style="fill: none; stroke: #ffffff; stroke-linecap: round"/>
     </g>
     <g id="line2d_6"/>
     <g id="text_3">
      <!-- $\mathdefault{0.50}$ -->
      <g style="fill: #262626" transform="translate(252.802813 537.838907) scale(0.14 -0.14)">
       <use xlink:href="#CMR17-30" transform="scale(0.996264)"/>
       <use xlink:href="#CMMI12-3a" transform="translate(45.690477 0) scale(0.996264)"/>
       <use xlink:href="#CMR17-35" transform="translate(72.787654 0) scale(0.996264)"/>
       <use xlink:href="#CMR17-30" transform="translate(118.478131 0) scale(0.996264)"/>
      </g>
     </g>
    </g>
    <g id="xtick_4">
     <g id="line2d_7">
      <path d="M 369.719742 521.153031 
L 369.719742 51.564121 
" clip-path="url(#pe403648141)" style="fill: none; stroke: #ffffff; stroke-linecap: round"/>
     </g>
     <g id="line2d_8"/>
     <g id="text_4">
      <!-- $\mathdefault{0.75}$ -->
      <g style="fill: #262626" transform="translate(357.580207 537.838907) scale(0.14 -0.14)">
       <defs>
        <path id="CMR17-37" d="M 2886 3941 
L 2886 4081 
L 1382 4081 
C 634 4081 621 4165 595 4288 
L 480 4288 
L 294 3094 
L 410 3094 
C 429 3215 474 3540 550 3661 
C 589 3712 1062 3712 1171 3712 
L 2579 3712 
L 1869 2661 
C 1395 1954 1069 999 1069 165 
C 1069 89 1069 -128 1299 -128 
C 1530 -128 1530 89 1530 171 
L 1530 465 
C 1530 1508 1709 2196 2003 2636 
L 2886 3941 
z
" transform="scale(0.015625)"/>
       </defs>
       <use xlink:href="#CMR17-30" transform="scale(0.996264)"/>
       <use xlink:href="#CMMI12-3a" transform="translate(45.690477 0) scale(0.996264)"/>
       <use xlink:href="#CMR17-37" transform="translate(72.787654 0) scale(0.996264)"/>
       <use xlink:href="#CMR17-35" transform="translate(118.478131 0) scale(0.996264)"/>
      </g>
     </g>
    </g>
    <g id="xtick_5">
     <g id="line2d_9">
      <path d="M 474.497137 521.153031 
L 474.497137 51.564121 
" clip-path="url(#pe403648141)" style="fill: none; stroke: #ffffff; stroke-linecap: round"/>
     </g>
     <g id="line2d_10"/>
     <g id="text_5">
      <!-- $\mathdefault{1.00}$ -->
      <g style="fill: #262626" transform="translate(462.357601 537.838907) scale(0.14 -0.14)">
       <defs>
        <path id="CMR17-31" d="M 1702 4058 
C 1702 4192 1696 4192 1606 4192 
C 1357 3916 979 3827 621 3827 
C 602 3827 570 3827 563 3808 
C 557 3795 557 3782 557 3648 
C 755 3648 1088 3686 1344 3839 
L 1344 461 
C 1344 236 1331 160 781 160 
L 589 160 
L 589 0 
C 896 0 1216 0 1523 0 
C 1830 0 2150 0 2458 0 
L 2458 160 
L 2266 160 
C 1715 160 1702 230 1702 458 
L 1702 4058 
z
" transform="scale(0.015625)"/>
       </defs>
       <use xlink:href="#CMR17-31" transform="scale(0.996264)"/>
       <use xlink:href="#CMMI12-3a" transform="translate(45.690477 0) scale(0.996264)"/>
       <use xlink:href="#CMR17-30" transform="translate(72.787654 0) scale(0.996264)"/>
       <use xlink:href="#CMR17-30" transform="translate(118.478131 0) scale(0.996264)"/>
      </g>
     </g>
    </g>
    <g id="xtick_6">
     <g id="line2d_11">
      <path d="M 579.274531 521.153031 
L 579.274531 51.564121 
" clip-path="url(#pe403648141)" style="fill: none; stroke: #ffffff; stroke-linecap: round"/>
     </g>
     <g id="line2d_12"/>
     <g id="text_6">
      <!-- $\mathdefault{1.25}$ -->
      <g style="fill: #262626" transform="translate(567.134996 537.838907) scale(0.14 -0.14)">
       <use xlink:href="#CMR17-31" transform="scale(0.996264)"/>
       <use xlink:href="#CMMI12-3a" transform="translate(45.690477 0) scale(0.996264)"/>
       <use xlink:href="#CMR17-32" transform="translate(72.787654 0) scale(0.996264)"/>
       <use xlink:href="#CMR17-35" transform="translate(118.478131 0) scale(0.996264)"/>
      </g>
     </g>
    </g>
    <g id="xtick_7">
     <g id="line2d_13">
      <path d="M 684.051925 521.153031 
L 684.051925 51.564121 
" clip-path="url(#pe403648141)" style="fill: none; stroke: #ffffff; stroke-linecap: round"/>
     </g>
     <g id="line2d_14"/>
     <g id="text_7">
      <!-- $\mathdefault{1.50}$ -->
      <g style="fill: #262626" transform="translate(671.91239 537.838907) scale(0.14 -0.14)">
       <use xlink:href="#CMR17-31" transform="scale(0.996264)"/>
       <use xlink:href="#CMMI12-3a" transform="translate(45.690477 0) scale(0.996264)"/>
       <use xlink:href="#CMR17-35" transform="translate(72.787654 0) scale(0.996264)"/>
       <use xlink:href="#CMR17-30" transform="translate(118.478131 0) scale(0.996264)"/>
      </g>
     </g>
    </g>
    <g id="xtick_8">
     <g id="line2d_15">
      <path d="M 788.82932 521.153031 
L 788.82932 51.564121 
" clip-path="url(#pe403648141)" style="fill: none; stroke: #ffffff; stroke-linecap: round"/>
     </g>
     <g id="line2d_16"/>
     <g id="text_8">
      <!-- $\mathdefault{1.75}$ -->
      <g style="fill: #262626" transform="translate(776.689784 537.838907) scale(0.14 -0.14)">
       <use xlink:href="#CMR17-31" transform="scale(0.996264)"/>
       <use xlink:href="#CMMI12-3a" transform="translate(45.690477 0) scale(0.996264)"/>
       <use xlink:href="#CMR17-37" transform="translate(72.787654 0) scale(0.996264)"/>
       <use xlink:href="#CMR17-35" transform="translate(118.478131 0) scale(0.996264)"/>
      </g>
     </g>
    </g>
    <g id="xtick_9">
     <g id="line2d_17">
      <path d="M 893.606714 521.153031 
L 893.606714 51.564121 
" clip-path="url(#pe403648141)" style="fill: none; stroke: #ffffff; stroke-linecap: round"/>
     </g>
     <g id="line2d_18"/>
     <g id="text_9">
      <!-- $\mathdefault{2.00}$ -->
      <g style="fill: #262626" transform="translate(881.467179 537.838907) scale(0.14 -0.14)">
       <use xlink:href="#CMR17-32" transform="scale(0.996264)"/>
       <use xlink:href="#CMMI12-3a" transform="translate(45.690477 0) scale(0.996264)"/>
       <use xlink:href="#CMR17-30" transform="translate(72.787654 0) scale(0.996264)"/>
       <use xlink:href="#CMR17-30" transform="translate(118.478131 0) scale(0.996264)"/>
      </g>
     </g>
    </g>
    <g id="text_10">
     <!-- $x$ -->
     <g style="fill: #262626" transform="translate(491.017891 555.620524) scale(0.16 -0.16)">
      <defs>
       <path id="CMMI12-78" d="M 3034 2606 
C 2829 2567 2752 2414 2752 2293 
C 2752 2139 2874 2088 2963 2088 
C 3155 2088 3290 2254 3290 2427 
C 3290 2695 2982 2816 2714 2816 
C 2323 2816 2106 2433 2048 2312 
C 1901 2816 1504 2816 1389 2816 
C 736 2816 390 1980 390 1839 
C 390 1814 416 1782 461 1782 
C 512 1782 525 1820 538 1846 
C 755 2555 1184 2689 1370 2689 
C 1658 2689 1715 2420 1715 2267 
C 1715 2127 1677 1980 1600 1673 
L 1382 798 
C 1286 415 1101 64 762 64 
C 730 64 570 64 435 147 
C 666 192 717 383 717 460 
C 717 588 621 664 499 664 
C 346 664 179 530 179 326 
C 179 57 480 -64 755 -64 
C 1062 -64 1280 179 1414 441 
C 1517 64 1837 -64 2074 -64 
C 2726 -64 3072 773 3072 913 
C 3072 945 3046 971 3008 971 
C 2950 971 2944 939 2925 888 
C 2752 326 2381 64 2093 64 
C 1869 64 1747 230 1747 492 
C 1747 632 1773 734 1875 1156 
L 2099 2024 
C 2195 2408 2413 2689 2707 2689 
C 2720 2689 2899 2689 3034 2606 
z
" transform="scale(0.015625)"/>
      </defs>
      <use xlink:href="#CMMI12-78" transform="scale(0.996264)"/>
     </g>
    </g>
   </g>
   <g id="matplotlib.axis_2">
    <g id="ytick_1">
     <g id="line2d_19">
      <path d="M 55.387559 521.153031 
L 935.517672 521.153031 
" clip-path="url(#pe403648141)" style="fill: none; stroke: #ffffff; stroke-linecap: round"/>
     </g>
     <g id="line2d_20"/>
     <g id="text_11">
      <!-- $\mathdefault{0.000}$ -->
      <g style="fill: #262626" transform="translate(17.28 525.995969) scale(0.14 -0.14)">
       <use xlink:href="#CMR17-30" transform="scale(0.996264)"/>
       <use xlink:href="#CMMI12-3a" transform="translate(45.690477 0) scale(0.996264)"/>
       <use xlink:href="#CMR17-30" transform="translate(72.787654 0) scale(0.996264)"/>
       <use xlink:href="#CMR17-30" transform="translate(118.478131 0) scale(0.996264)"/>
       <use xlink:href="#CMR17-30" transform="translate(164.168608 0) scale(0.996264)"/>
      </g>
     </g>
    </g>
    <g id="ytick_2">
     <g id="line2d_21">
      <path d="M 55.387559 465.082591 
L 935.517672 465.082591 
" clip-path="url(#pe403648141)" style="fill: none; stroke: #ffffff; stroke-linecap: round"/>
     </g>
     <g id="line2d_22"/>
     <g id="text_12">
      <!-- $\mathdefault{0.025}$ -->
      <g style="fill: #262626" transform="translate(17.28 469.92553) scale(0.14 -0.14)">
       <use xlink:href="#CMR17-30" transform="scale(0.996264)"/>
       <use xlink:href="#CMMI12-3a" transform="translate(45.690477 0) scale(0.996264)"/>
       <use xlink:href="#CMR17-30" transform="translate(72.787654 0) scale(0.996264)"/>
       <use xlink:href="#CMR17-32" transform="translate(118.478131 0) scale(0.996264)"/>
       <use xlink:href="#CMR17-35" transform="translate(164.168608 0) scale(0.996264)"/>
      </g>
     </g>
    </g>
    <g id="ytick_3">
     <g id="line2d_23">
      <path d="M 55.387559 409.012152 
L 935.517672 409.012152 
" clip-path="url(#pe403648141)" style="fill: none; stroke: #ffffff; stroke-linecap: round"/>
     </g>
     <g id="line2d_24"/>
     <g id="text_13">
      <!-- $\mathdefault{0.050}$ -->
      <g style="fill: #262626" transform="translate(17.28 413.85509) scale(0.14 -0.14)">
       <use xlink:href="#CMR17-30" transform="scale(0.996264)"/>
       <use xlink:href="#CMMI12-3a" transform="translate(45.690477 0) scale(0.996264)"/>
       <use xlink:href="#CMR17-30" transform="translate(72.787654 0) scale(0.996264)"/>
       <use xlink:href="#CMR17-35" transform="translate(118.478131 0) scale(0.996264)"/>
       <use xlink:href="#CMR17-30" transform="translate(164.168608 0) scale(0.996264)"/>
      </g>
     </g>
    </g>
    <g id="ytick_4">
     <g id="line2d_25">
      <path d="M 55.387559 352.941713 
L 935.517672 352.941713 
" clip-path="url(#pe403648141)" style="fill: none; stroke: #ffffff; stroke-linecap: round"/>
     </g>
     <g id="line2d_26"/>
     <g id="text_14">
      <!-- $\mathdefault{0.075}$ -->
      <g style="fill: #262626" transform="translate(17.28 357.784651) scale(0.14 -0.14)">
       <use xlink:href="#CMR17-30" transform="scale(0.996264)"/>
       <use xlink:href="#CMMI12-3a" transform="translate(45.690477 0) scale(0.996264)"/>
       <use xlink:href="#CMR17-30" transform="translate(72.787654 0) scale(0.996264)"/>
       <use xlink:href="#CMR17-37" transform="translate(118.478131 0) scale(0.996264)"/>
       <use xlink:href="#CMR17-35" transform="translate(164.168608 0) scale(0.996264)"/>
      </g>
     </g>
    </g>
    <g id="ytick_5">
     <g id="line2d_27">
      <path d="M 55.387559 296.871273 
L 935.517672 296.871273 
" clip-path="url(#pe403648141)" style="fill: none; stroke: #ffffff; stroke-linecap: round"/>
     </g>
     <g id="line2d_28"/>
     <g id="text_15">
      <!-- $\mathdefault{0.100}$ -->
      <g style="fill: #262626" transform="translate(17.28 301.714211) scale(0.14 -0.14)">
       <use xlink:href="#CMR17-30" transform="scale(0.996264)"/>
       <use xlink:href="#CMMI12-3a" transform="translate(45.690477 0) scale(0.996264)"/>
       <use xlink:href="#CMR17-31" transform="translate(72.787654 0) scale(0.996264)"/>
       <use xlink:href="#CMR17-30" transform="translate(118.478131 0) scale(0.996264)"/>
       <use xlink:href="#CMR17-30" transform="translate(164.168608 0) scale(0.996264)"/>
      </g>
     </g>
    </g>
    <g id="ytick_6">
     <g id="line2d_29">
      <path d="M 55.387559 240.800834 
L 935.517672 240.800834 
" clip-path="url(#pe403648141)" style="fill: none; stroke: #ffffff; stroke-linecap: round"/>
     </g>
     <g id="line2d_30"/>
     <g id="text_16">
      <!-- $\mathdefault{0.125}$ -->
      <g style="fill: #262626" transform="translate(17.28 245.643772) scale(0.14 -0.14)">
       <use xlink:href="#CMR17-30" transform="scale(0.996264)"/>
       <use xlink:href="#CMMI12-3a" transform="translate(45.690477 0) scale(0.996264)"/>
       <use xlink:href="#CMR17-31" transform="translate(72.787654 0) scale(0.996264)"/>
       <use xlink:href="#CMR17-32" transform="translate(118.478131 0) scale(0.996264)"/>
       <use xlink:href="#CMR17-35" transform="translate(164.168608 0) scale(0.996264)"/>
      </g>
     </g>
    </g>
    <g id="ytick_7">
     <g id="line2d_31">
      <path d="M 55.387559 184.730395 
L 935.517672 184.730395 
" clip-path="url(#pe403648141)" style="fill: none; stroke: #ffffff; stroke-linecap: round"/>
     </g>
     <g id="line2d_32"/>
     <g id="text_17">
      <!-- $\mathdefault{0.150}$ -->
      <g style="fill: #262626" transform="translate(17.28 189.573333) scale(0.14 -0.14)">
       <use xlink:href="#CMR17-30" transform="scale(0.996264)"/>
       <use xlink:href="#CMMI12-3a" transform="translate(45.690477 0) scale(0.996264)"/>
       <use xlink:href="#CMR17-31" transform="translate(72.787654 0) scale(0.996264)"/>
       <use xlink:href="#CMR17-35" transform="translate(118.478131 0) scale(0.996264)"/>
       <use xlink:href="#CMR17-30" transform="translate(164.168608 0) scale(0.996264)"/>
      </g>
     </g>
    </g>
    <g id="ytick_8">
     <g id="line2d_33">
      <path d="M 55.387559 128.659955 
L 935.517672 128.659955 
" clip-path="url(#pe403648141)" style="fill: none; stroke: #ffffff; stroke-linecap: round"/>
     </g>
     <g id="line2d_34"/>
     <g id="text_18">
      <!-- $\mathdefault{0.175}$ -->
      <g style="fill: #262626" transform="translate(17.28 133.502893) scale(0.14 -0.14)">
       <use xlink:href="#CMR17-30" transform="scale(0.996264)"/>
       <use xlink:href="#CMMI12-3a" transform="translate(45.690477 0) scale(0.996264)"/>
       <use xlink:href="#CMR17-31" transform="translate(72.787654 0) scale(0.996264)"/>
       <use xlink:href="#CMR17-37" transform="translate(118.478131 0) scale(0.996264)"/>
       <use xlink:href="#CMR17-35" transform="translate(164.168608 0) scale(0.996264)"/>
      </g>
     </g>
    </g>
    <g id="ytick_9">
     <g id="line2d_35">
      <path d="M 55.387559 72.589516 
L 935.517672 72.589516 
" clip-path="url(#pe403648141)" style="fill: none; stroke: #ffffff; stroke-linecap: round"/>
     </g>
     <g id="line2d_36"/>
     <g id="text_19">
      <!-- $\mathdefault{0.200}$ -->
      <g style="fill: #262626" transform="translate(17.28 77.432454) scale(0.14 -0.14)">
       <use xlink:href="#CMR17-30" transform="scale(0.996264)"/>
       <use xlink:href="#CMMI12-3a" transform="translate(45.690477 0) scale(0.996264)"/>
       <use xlink:href="#CMR17-32" transform="translate(72.787654 0) scale(0.996264)"/>
       <use xlink:href="#CMR17-30" transform="translate(118.478131 0) scale(0.996264)"/>
       <use xlink:href="#CMR17-30" transform="translate(164.168608 0) scale(0.996264)"/>
      </g>
     </g>
    </g>
   </g>
   <g id="line2d_37">
    <path d="M 55.387559 72.589516 
L 63.769751 72.589516 
L 72.151942 72.589516 
L 80.534134 72.589516 
L 88.916325 72.589516 
L 97.298517 72.589516 
L 105.680709 72.589516 
L 114.0629 72.589516 
L 122.445092 72.589516 
L 130.827283 72.589516 
L 139.209475 72.589516 
L 147.591666 72.589516 
L 155.973858 72.589516 
L 164.356049 72.589516 
L 172.738241 72.589516 
L 181.120433 72.589516 
L 189.502624 72.589516 
L 197.884816 72.589516 
L 206.267007 72.589516 
L 214.649199 72.589516 
L 223.03139 72.589516 
L 231.413582 72.589516 
L 239.795773 72.589516 
L 248.177965 72.589516 
L 256.560156 72.589516 
L 264.942348 72.589516 
L 273.32454 72.589516 
L 281.706731 72.589516 
L 290.088923 72.589516 
L 298.471114 72.589516 
L 306.853306 72.589516 
L 315.235497 72.589516 
L 323.617689 72.589516 
L 331.99988 72.589516 
L 340.382072 72.589516 
L 348.764263 72.589516 
L 357.146455 72.589516 
L 365.528647 72.589516 
L 373.910838 72.589516 
L 382.29303 72.589516 
L 390.675221 72.589516 
L 399.057413 72.589516 
L 407.439604 72.589516 
L 415.821796 72.589516 
L 424.203987 72.589516 
L 432.586179 72.589516 
L 440.96837 72.589516 
L 449.350562 72.589516 
L 457.732754 72.589516 
L 466.114945 72.589516 
L 474.497137 72.589516 
L 482.879328 72.589516 
L 491.26152 72.589516 
L 499.643711 72.589516 
L 508.025903 72.589516 
L 516.408094 72.589516 
L 524.790286 72.589516 
L 533.172478 72.589516 
L 541.554669 72.589516 
L 549.936861 72.589516 
L 558.319052 72.589516 
L 566.701244 72.589516 
L 575.083435 72.589516 
L 583.465627 72.589516 
L 591.847818 72.589516 
L 600.23001 72.589516 
L 608.612201 72.589516 
L 616.994393 72.589516 
L 625.376585 72.589516 
L 633.758776 72.589516 
L 642.140968 72.589516 
L 650.523159 72.589516 
L 658.905351 72.589516 
L 667.287542 72.589516 
L 675.669734 72.589516 
L 684.051925 72.589516 
L 692.434117 72.589516 
L 700.816308 72.589516 
L 709.1985 72.589516 
L 717.580692 72.589516 
L 725.962883 72.589516 
L 734.345075 72.589516 
L 742.727266 72.589516 
L 751.109458 72.589516 
L 759.491649 72.589516 
L 767.873841 72.589516 
L 776.256032 72.589516 
L 784.638224 72.589516 
L 793.020416 72.589516 
L 801.402607 72.589516 
L 809.784799 72.589516 
L 818.16699 72.589516 
L 826.549182 72.589516 
L 834.931373 72.589516 
L 843.313565 72.589516 
L 851.695756 72.589516 
L 860.077948 72.589516 
L 868.460139 72.589516 
L 876.842331 72.589516 
L 885.224523 72.589516 
L 893.606714 72.589516 
" clip-path="url(#pe403648141)" style="fill: none; stroke: #393b79; stroke-width: 2; stroke-linecap: round"/>
   </g>
   <g id="line2d_38">
    <path d="M 55.387559 87.95025 
L 63.769751 87.927377 
L 72.151942 87.904428 
L 80.534134 87.881501 
L 88.916325 87.858605 
L 97.298517 87.835741 
L 105.680709 87.812909 
L 114.0629 87.790109 
L 122.445092 87.76734 
L 130.827283 87.744603 
L 139.209475 87.721897 
L 147.591666 87.699223 
L 155.973858 87.67658 
L 164.356049 87.653969 
L 172.738241 87.631389 
L 181.120433 87.608841 
L 189.502624 87.586324 
L 197.884816 87.563838 
L 206.267007 87.541383 
L 214.649199 87.51896 
L 223.03139 87.496567 
L 231.413582 87.474206 
L 239.795773 87.451876 
L 248.177965 87.429577 
L 256.560156 87.407309 
L 264.942348 87.385072 
L 273.32454 87.362865 
L 281.706731 87.34069 
L 290.088923 87.318545 
L 298.471114 87.296431 
L 306.853306 87.274348 
L 315.235497 87.252295 
L 323.617689 87.230273 
L 331.99988 87.208282 
L 340.382072 87.186321 
L 348.764263 87.164391 
L 357.146455 87.142492 
L 365.528647 87.120622 
L 373.910838 87.098784 
L 382.29303 87.076975 
L 390.675221 87.055197 
L 399.057413 87.033449 
L 407.439604 87.011731 
L 415.821796 86.990044 
L 424.203987 86.968387 
L 432.586179 86.946759 
L 440.96837 86.925162 
L 449.350562 86.903595 
L 457.732754 86.882058 
L 466.114945 86.86055 
L 474.497137 86.839073 
L 482.879328 86.817626 
L 491.26152 86.796208 
L 499.643711 86.77482 
L 508.025903 86.753462 
L 516.408094 86.732133 
L 524.790286 86.710834 
L 533.172478 86.689565 
L 541.554669 86.668325 
L 549.936861 86.647115 
L 558.319052 86.625934 
L 566.701244 86.604783 
L 575.083435 86.583661 
L 583.465627 86.562569 
L 591.847818 86.541506 
L 600.23001 86.520472 
L 608.612201 86.499468 
L 616.994393 86.478493 
L 625.376585 86.457547 
L 633.758776 86.43663 
L 642.140968 86.41568 
L 650.523159 86.394713 
L 658.905351 86.373775 
L 667.287542 86.352867 
L 675.669734 86.331987 
L 684.051925 86.311137 
L 692.434117 86.290315 
L 700.816308 86.269523 
L 709.1985 86.248759 
L 717.580692 86.228024 
L 725.962883 86.207319 
L 734.345075 86.186642 
L 742.727266 86.165993 
L 751.109458 86.145374 
L 759.491649 86.124783 
L 767.873841 86.104221 
L 776.256032 86.083687 
L 784.638224 86.063183 
L 793.020416 86.042706 
L 801.402607 86.022258 
L 809.784799 86.001839 
L 818.16699 85.981448 
L 826.549182 85.961085 
L 834.931373 85.940751 
L 843.313565 85.920445 
L 851.695756 85.900168 
L 860.077948 85.879918 
L 868.460139 85.859697 
L 876.842331 85.839504 
L 885.224523 85.819339 
L 893.606714 85.799202 
" clip-path="url(#pe403648141)" style="fill: none; stroke: #6b6ecf; stroke-width: 2; stroke-linecap: round"/>
   </g>
   <g id="line2d_39">
    <path d="M 55.387559 142.334083 
L 63.769751 142.260233 
L 72.151942 142.186478 
L 80.534134 142.112817 
L 88.916325 142.039251 
L 97.298517 141.965505 
L 105.680709 141.891772 
L 114.0629 141.818135 
L 122.445092 141.744595 
L 130.827283 141.67115 
L 139.209475 141.597799 
L 147.591666 141.524543 
L 155.973858 141.45138 
L 164.356049 141.378314 
L 172.738241 141.305344 
L 181.120433 141.232468 
L 189.502624 141.159685 
L 197.884816 141.086996 
L 206.267007 141.014401 
L 214.649199 140.9419 
L 223.03139 140.869491 
L 231.413582 140.797176 
L 239.795773 140.724605 
L 248.177965 140.652124 
L 256.560156 140.579737 
L 264.942348 140.507443 
L 273.32454 140.435241 
L 281.706731 140.363131 
L 290.088923 140.291114 
L 298.471114 140.219189 
L 306.853306 140.147356 
L 315.235497 140.075615 
L 323.617689 140.003966 
L 331.99988 139.932409 
L 340.382072 139.860943 
L 348.764263 139.789568 
L 357.146455 139.718285 
L 365.528647 139.647093 
L 373.910838 139.575995 
L 382.29303 139.504702 
L 390.675221 139.433445 
L 399.057413 139.362279 
L 407.439604 139.291203 
L 415.821796 139.220219 
L 424.203987 139.149325 
L 432.586179 139.078522 
L 440.96837 139.007809 
L 449.350562 138.937186 
L 457.732754 138.866653 
L 466.114945 138.796211 
L 474.497137 138.725858 
L 482.879328 138.655595 
L 491.26152 138.585421 
L 499.643711 138.515337 
L 508.025903 138.445343 
L 516.408094 138.375438 
L 524.790286 138.30552 
L 533.172478 138.235453 
L 541.554669 138.165476 
L 549.936861 138.095588 
L 558.319052 138.025792 
L 566.701244 137.956085 
L 575.083435 137.886467 
L 583.465627 137.816939 
L 591.847818 137.747502 
L 600.23001 137.678152 
L 608.612201 137.608891 
L 616.994393 137.539718 
L 625.376585 137.470633 
L 633.758776 137.401638 
L 642.140968 137.332731 
L 650.523159 137.263914 
L 658.905351 137.195184 
L 667.287542 137.126541 
L 675.669734 137.057864 
L 684.051925 136.989061 
L 692.434117 136.920345 
L 700.816308 136.851717 
L 709.1985 136.783176 
L 717.580692 136.714721 
L 725.962883 136.646352 
L 734.345075 136.578072 
L 742.727266 136.509879 
L 751.109458 136.441772 
L 759.491649 136.373752 
L 767.873841 136.305818 
L 776.256032 136.237971 
L 784.638224 136.17021 
L 793.020416 136.102535 
L 801.402607 136.034947 
L 809.784799 135.967446 
L 818.16699 135.900031 
L 826.549182 135.8327 
L 834.931373 135.765127 
L 843.313565 135.697639 
L 851.695756 135.630237 
L 860.077948 135.562921 
L 868.460139 135.495689 
L 876.842331 135.428543 
L 885.224523 135.361482 
L 893.606714 135.294506 
" clip-path="url(#pe403648141)" style="fill: none; stroke: #637939; stroke-width: 2; stroke-linecap: round"/>
   </g>
   <g id="line2d_40">
    <path d="M 55.387559 197.400411 
L 63.769751 197.279002 
L 72.151942 197.157765 
L 80.534134 197.036698 
L 88.916325 196.915801 
L 97.298517 196.795074 
L 105.680709 196.674517 
L 114.0629 196.55413 
L 122.445092 196.433672 
L 130.827283 196.31311 
L 139.209475 196.192717 
L 147.591666 196.072494 
L 155.973858 195.952439 
L 164.356049 195.832554 
L 172.738241 195.712842 
L 181.120433 195.593297 
L 189.502624 195.473722 
L 197.884816 195.353979 
L 206.267007 195.234408 
L 214.649199 195.11501 
L 223.03139 194.995779 
L 231.413582 194.876719 
L 239.795773 194.757826 
L 248.177965 194.639098 
L 256.560156 194.520445 
L 264.942348 194.401523 
L 273.32454 194.282771 
L 281.706731 194.164187 
L 290.088923 194.045768 
L 298.471114 193.927519 
L 306.853306 193.809435 
L 315.235497 193.691517 
L 323.617689 193.573763 
L 331.99988 193.455699 
L 340.382072 193.337749 
L 348.764263 193.219969 
L 357.146455 193.102352 
L 365.528647 192.984898 
L 373.910838 192.867613 
L 382.29303 192.750501 
L 390.675221 192.633556 
L 399.057413 192.516496 
L 407.439604 192.399349 
L 415.821796 192.282366 
L 424.203987 192.16555 
L 432.586179 192.048898 
L 440.96837 191.932411 
L 449.350562 191.816086 
L 457.732754 191.699923 
L 466.114945 191.583897 
L 474.497137 191.467537 
L 482.879328 191.351339 
L 491.26152 191.235303 
L 499.643711 191.119432 
L 508.025903 191.003721 
L 516.408094 190.888177 
L 524.790286 190.772793 
L 533.172478 190.657568 
L 541.554669 190.542263 
L 549.936861 190.426842 
L 558.319052 190.311585 
L 566.701244 190.196492 
L 575.083435 190.081562 
L 583.465627 189.966792 
L 591.847818 189.852184 
L 600.23001 189.737733 
L 608.612201 189.623441 
L 616.994393 189.508901 
L 625.376585 189.394407 
L 633.758776 189.280074 
L 642.140968 189.1659 
L 650.523159 189.051902 
L 658.905351 188.938063 
L 667.287542 188.824382 
L 675.669734 188.710857 
L 684.051925 188.597488 
L 692.434117 188.483765 
L 700.816308 188.370195 
L 709.1985 188.25678 
L 717.580692 188.14352 
L 725.962883 188.03042 
L 734.345075 187.917477 
L 742.727266 187.804694 
L 751.109458 187.692067 
L 759.491649 187.579552 
L 767.873841 187.466728 
L 776.256032 187.354059 
L 784.638224 187.241549 
L 793.020416 187.129195 
L 801.402607 187.016997 
L 809.784799 186.904959 
L 818.16699 186.793074 
L 826.549182 186.681343 
L 834.931373 186.56973 
L 843.313565 186.457802 
L 851.695756 186.346028 
L 860.077948 186.234408 
L 868.460139 186.122942 
L 876.842331 186.011632 
L 885.224523 185.900476 
L 893.606714 185.789475 
" clip-path="url(#pe403648141)" style="fill: none; stroke: #b5cf6b; stroke-width: 2; stroke-linecap: round"/>
   </g>
   <g id="line2d_41">
    <path d="M 55.387559 307.312438 
L 63.769751 307.115548 
L 72.151942 306.9188 
L 80.534134 306.721947 
L 88.916325 306.525476 
L 97.298517 306.328904 
L 105.680709 306.132481 
L 114.0629 305.936404 
L 122.445092 305.740032 
L 130.827283 305.544045 
L 139.209475 305.348181 
L 147.591666 305.152246 
L 155.973858 304.95669 
L 164.356049 304.761014 
L 172.738241 304.565477 
L 181.120433 304.370319 
L 189.502624 304.174858 
L 197.884816 303.979752 
L 206.267007 303.784825 
L 214.649199 303.589746 
L 223.03139 303.395045 
L 231.413582 303.200339 
L 239.795773 303.005676 
L 248.177965 302.811384 
L 256.560156 302.616891 
L 264.942348 302.422625 
L 273.32454 302.228714 
L 281.706731 302.034482 
L 290.088923 301.840615 
L 298.471114 301.646937 
L 306.853306 301.453099 
L 315.235497 301.259621 
L 323.617689 301.066192 
L 331.99988 300.872755 
L 340.382072 300.679669 
L 348.764263 300.486463 
L 357.146455 300.293417 
L 365.528647 300.100738 
L 373.910838 299.907796 
L 382.29303 299.715134 
L 390.675221 299.522811 
L 399.057413 299.330162 
L 407.439604 299.137877 
L 415.821796 298.945825 
L 424.203987 298.75357 
L 432.586179 298.561672 
L 440.96837 298.369887 
L 449.350562 298.177988 
L 457.732754 297.986467 
L 466.114945 297.794973 
L 474.497137 297.603461 
L 482.879328 297.412303 
L 491.26152 297.221093 
L 499.643711 297.029941 
L 508.025903 296.839157 
L 516.408094 296.648259 
L 524.790286 296.457468 
L 533.172478 296.267042 
L 541.554669 296.076447 
L 549.936861 295.886026 
L 558.319052 295.695953 
L 566.701244 295.50569 
L 575.083435 295.315627 
L 583.465627 295.125909 
L 591.847818 294.935957 
L 600.23001 294.746266 
L 608.612201 294.556914 
L 616.994393 294.367289 
L 625.376585 294.177917 
L 633.758776 293.988896 
L 642.140968 293.799616 
L 650.523159 293.610625 
L 658.905351 293.421977 
L 667.287542 293.233051 
L 675.669734 293.044388 
L 684.051925 292.856065 
L 692.434117 292.667501 
L 700.816308 292.47917 
L 709.1985 292.291193 
L 717.580692 292.102981 
L 725.962883 291.914982 
L 734.345075 291.727333 
L 742.727266 291.539506 
L 751.109458 291.351845 
L 759.491649 291.16453 
L 767.873841 290.97708 
L 776.256032 290.789738 
L 784.638224 290.602751 
L 793.020416 290.415709 
L 801.402607 290.228706 
L 809.784799 290.042035 
L 818.16699 289.855374 
L 826.549182 289.668697 
L 834.931373 289.48236 
L 843.313565 289.296112 
L 851.695756 289.109751 
L 860.077948 288.923734 
L 868.460139 288.737898 
L 876.842331 288.551839 
L 885.224523 288.366129 
L 893.606714 288.180737 
" clip-path="url(#pe403648141)" style="fill: none; stroke: #8c6d31; stroke-width: 2; stroke-linecap: round"/>
   </g>
   <g id="line2d_42">
    <path d="M 55.387559 398.958452 
L 63.769751 398.730765 
L 72.151942 398.503107 
L 80.534134 398.275453 
L 88.916325 398.047817 
L 97.298517 397.820219 
L 105.680709 397.592622 
L 114.0629 397.365053 
L 122.445092 397.137506 
L 130.827283 396.909989 
L 139.209475 396.682497 
L 147.591666 396.455034 
L 155.973858 396.227587 
L 164.356049 396.000168 
L 172.738241 395.772757 
L 181.120433 395.545372 
L 189.502624 395.318031 
L 197.884816 395.090714 
L 206.267007 394.863419 
L 214.649199 394.636146 
L 223.03139 394.408902 
L 231.413582 394.181695 
L 239.795773 393.954511 
L 248.177965 393.727354 
L 256.560156 393.500232 
L 264.942348 393.273133 
L 273.32454 393.04608 
L 281.706731 392.819051 
L 290.088923 392.592038 
L 298.471114 392.36504 
L 306.853306 392.138069 
L 315.235497 391.911112 
L 323.617689 391.68423 
L 331.99988 391.457348 
L 340.382072 391.230513 
L 348.764263 391.003706 
L 357.146455 390.776944 
L 365.528647 390.550222 
L 373.910838 390.323537 
L 382.29303 390.09689 
L 390.675221 389.870291 
L 399.057413 389.643725 
L 407.439604 389.417135 
L 415.821796 389.190592 
L 424.203987 388.964094 
L 432.586179 388.737634 
L 440.96837 388.511212 
L 449.350562 388.284831 
L 457.732754 388.058503 
L 466.114945 387.832225 
L 474.497137 387.605994 
L 482.879328 387.379775 
L 491.26152 387.153547 
L 499.643711 386.927373 
L 508.025903 386.70125 
L 516.408094 386.475174 
L 524.790286 386.249155 
L 533.172478 386.023179 
L 541.554669 385.797269 
L 549.936861 385.571366 
L 558.319052 385.345458 
L 566.701244 385.119617 
L 575.083435 384.893823 
L 583.465627 384.66808 
L 591.847818 384.442405 
L 600.23001 384.2168 
L 608.612201 383.991207 
L 616.994393 383.765592 
L 625.376585 383.540032 
L 633.758776 383.314534 
L 642.140968 383.089113 
L 650.523159 382.863775 
L 658.905351 382.638493 
L 667.287542 382.413143 
L 675.669734 382.187863 
L 684.051925 381.962645 
L 692.434117 381.737509 
L 700.816308 381.512433 
L 709.1985 381.287403 
L 717.580692 381.062336 
L 725.962883 380.837329 
L 734.345075 380.612406 
L 742.727266 380.387561 
L 751.109458 380.162799 
L 759.491649 379.937985 
L 767.873841 379.71323 
L 776.256032 379.488533 
L 784.638224 379.263925 
L 793.020416 379.039421 
L 801.402607 378.814885 
L 809.784799 378.590358 
L 818.16699 378.365925 
L 826.549182 378.141583 
L 834.931373 377.917325 
L 843.313565 377.693034 
L 851.695756 377.468779 
L 860.077948 377.244619 
L 868.460139 377.020543 
L 876.842331 376.796548 
L 885.224523 376.57248 
L 893.606714 376.348511 
" clip-path="url(#pe403648141)" style="fill: none; stroke: #e7cb94; stroke-width: 2; stroke-linecap: round"/>
   </g>
   <g id="line2d_43">
    <path d="M 55.387559 443.525994 
L 63.769751 443.305012 
L 72.151942 443.083948 
L 80.534134 442.862773 
L 88.916325 442.641502 
L 97.298517 442.420159 
L 105.680709 442.198712 
L 114.0629 441.977189 
L 122.445092 441.755582 
L 130.827283 441.533897 
L 139.209475 441.312136 
L 147.591666 441.0903 
L 155.973858 440.868378 
L 164.356049 440.646354 
L 172.738241 440.424234 
L 181.120433 440.202039 
L 189.502624 439.979785 
L 197.884816 439.757457 
L 206.267007 439.535056 
L 214.649199 439.312557 
L 223.03139 439.089965 
L 231.413582 438.867313 
L 239.795773 438.644594 
L 248.177965 438.421806 
L 256.560156 438.198936 
L 264.942348 437.975964 
L 273.32454 437.752946 
L 281.706731 437.529862 
L 290.088923 437.306714 
L 298.471114 437.083456 
L 306.853306 436.86014 
L 315.235497 436.636758 
L 323.617689 436.413352 
L 331.99988 436.189802 
L 340.382072 435.966214 
L 348.764263 435.742577 
L 357.146455 435.51886 
L 365.528647 435.295064 
L 373.910838 435.071225 
L 382.29303 434.847332 
L 390.675221 434.623335 
L 399.057413 434.3993 
L 407.439604 434.175227 
L 415.821796 433.951036 
L 424.203987 433.726823 
L 432.586179 433.502567 
L 440.96837 433.278191 
L 449.350562 433.053791 
L 457.732754 432.829344 
L 466.114945 432.604804 
L 474.497137 432.380251 
L 482.879328 432.155606 
L 491.26152 431.930904 
L 499.643711 431.706192 
L 508.025903 431.481359 
L 516.408094 431.256517 
L 524.790286 431.031609 
L 533.172478 430.806634 
L 541.554669 430.581655 
L 549.936861 430.356552 
L 558.319052 430.131465 
L 566.701244 429.906283 
L 575.083435 429.681076 
L 583.465627 429.455806 
L 591.847818 429.230487 
L 600.23001 429.005151 
L 608.612201 428.779728 
L 616.994393 428.5543 
L 625.376585 428.328758 
L 633.758776 428.10324 
L 642.140968 427.87761 
L 650.523159 427.65203 
L 658.905351 427.426314 
L 667.287542 427.200636 
L 675.669734 426.974832 
L 684.051925 426.749068 
L 692.434117 426.523183 
L 700.816308 426.297331 
L 709.1985 426.07136 
L 717.580692 425.845423 
L 725.962883 425.619379 
L 734.345075 425.393351 
L 742.727266 425.167253 
L 751.109458 424.941138 
L 759.491649 424.714978 
L 767.873841 424.488777 
L 776.256032 424.262569 
L 784.638224 424.036264 
L 793.020416 423.810013 
L 801.402607 423.58365 
L 809.784799 423.357283 
L 818.16699 423.130891 
L 826.549182 422.904441 
L 834.931373 422.678023 
L 843.313565 422.451487 
L 851.695756 422.224975 
L 860.077948 421.998428 
L 868.460139 421.771815 
L 876.842331 421.545234 
L 885.224523 421.318563 
L 893.606714 421.091896 
" clip-path="url(#pe403648141)" style="fill: none; stroke: #ad494a; stroke-width: 2; stroke-linecap: round"/>
   </g>
   <g id="line2d_44">
    <path d="M 55.387559 468.287926 
L 63.769751 468.083164 
L 72.151942 467.878222 
L 80.534134 467.673076 
L 88.916325 467.467735 
L 97.298517 467.262223 
L 105.680709 467.056516 
L 114.0629 466.850633 
L 122.445092 466.644569 
L 130.827283 466.438328 
L 139.209475 466.231909 
L 147.591666 466.025315 
L 155.973858 465.81853 
L 164.356049 465.611572 
L 172.738241 465.404427 
L 181.120433 465.197107 
L 189.502624 464.989626 
L 197.884816 464.78197 
L 206.267007 464.57414 
L 214.649199 464.36613 
L 223.03139 464.157948 
L 231.413582 463.949602 
L 239.795773 463.741084 
L 248.177965 463.532396 
L 256.560156 463.323545 
L 264.942348 463.114525 
L 273.32454 462.905354 
L 281.706731 462.696015 
L 290.088923 462.486495 
L 298.471114 462.27682 
L 306.853306 462.066983 
L 315.235497 461.856979 
L 323.617689 461.646851 
L 331.99988 461.436522 
L 340.382072 461.226043 
L 348.764263 461.015411 
L 357.146455 460.80464 
L 365.528647 460.593691 
L 373.910838 460.38259 
L 382.29303 460.171352 
L 390.675221 459.959953 
L 399.057413 459.748392 
L 407.439604 459.536699 
L 415.821796 459.324844 
L 424.203987 459.112843 
L 432.586179 458.900713 
L 440.96837 458.688397 
L 449.350562 458.475955 
L 457.732754 458.263367 
L 466.114945 458.05063 
L 474.497137 457.837771 
L 482.879328 457.624734 
L 491.26152 457.411588 
L 499.643711 457.198263 
L 508.025903 456.984839 
L 516.408094 456.771239 
L 524.790286 456.557536 
L 533.172478 456.343656 
L 541.554669 456.129684 
L 549.936861 455.915528 
L 558.319052 455.701277 
L 566.701244 455.486869 
L 575.083435 455.27234 
L 583.465627 455.057668 
L 591.847818 454.842866 
L 600.23001 454.627961 
L 608.612201 454.412888 
L 616.994393 454.197705 
L 625.376585 453.982381 
L 633.758776 453.766918 
L 642.140968 453.551364 
L 650.523159 453.33567 
L 658.905351 453.119848 
L 667.287542 452.903916 
L 675.669734 452.687846 
L 684.051925 452.471643 
L 692.434117 452.255344 
L 700.816308 452.038919 
L 709.1985 451.822346 
L 717.580692 451.60567 
L 725.962883 451.388884 
L 734.345075 451.171975 
L 742.727266 450.954934 
L 751.109458 450.737792 
L 759.491649 450.520533 
L 767.873841 450.303183 
L 776.256032 450.085671 
L 784.638224 449.868058 
L 793.020416 449.650355 
L 801.402607 449.432537 
L 809.784799 449.214606 
L 818.16699 448.996565 
L 826.549182 448.7784 
L 834.931373 448.56013 
L 843.313565 448.34176 
L 851.695756 448.123284 
L 860.077948 447.904706 
L 868.460139 447.686018 
L 876.842331 447.467228 
L 885.224523 447.248341 
L 893.606714 447.029338 
" clip-path="url(#pe403648141)" style="fill: none; stroke: #e7969c; stroke-width: 2; stroke-linecap: round"/>
   </g>
   <g id="line2d_45">
    <path d="M 55.387559 483.338409 
L 63.769751 483.151414 
L 72.151942 482.964144 
L 80.534134 482.776596 
L 88.916325 482.588779 
L 97.298517 482.400707 
L 105.680709 482.212352 
L 114.0629 482.023734 
L 122.445092 481.834858 
L 130.827283 481.645717 
L 139.209475 481.456315 
L 147.591666 481.266664 
L 155.973858 481.076734 
L 164.356049 480.886564 
L 172.738241 480.69611 
L 181.120433 480.505417 
L 189.502624 480.314463 
L 197.884816 480.123265 
L 206.267007 479.931808 
L 214.649199 479.740093 
L 223.03139 479.548137 
L 231.413582 479.355928 
L 239.795773 479.163469 
L 248.177965 478.970764 
L 256.560156 478.777819 
L 264.942348 478.584614 
L 273.32454 478.391178 
L 281.706731 478.197496 
L 290.088923 478.00357 
L 298.471114 477.809414 
L 306.853306 477.615014 
L 315.235497 477.420358 
L 323.617689 477.225491 
L 331.99988 477.030369 
L 340.382072 476.835019 
L 348.764263 476.639432 
L 357.146455 476.443617 
L 365.528647 476.247575 
L 373.910838 476.051297 
L 382.29303 475.854792 
L 390.675221 475.658057 
L 399.057413 475.461091 
L 407.439604 475.263899 
L 415.821796 475.066489 
L 424.203987 474.868861 
L 432.586179 474.67101 
L 440.96837 474.47292 
L 449.350562 474.274611 
L 457.732754 474.076093 
L 466.114945 473.877362 
L 474.497137 473.678399 
L 482.879328 473.479225 
L 491.26152 473.279842 
L 499.643711 473.080227 
L 508.025903 472.880418 
L 516.408094 472.680388 
L 524.790286 472.480147 
L 533.172478 472.279702 
L 541.554669 472.079038 
L 549.936861 471.878179 
L 558.319052 471.677094 
L 566.701244 471.475833 
L 575.083435 471.274337 
L 583.465627 471.072655 
L 591.847818 470.870759 
L 600.23001 470.668675 
L 608.612201 470.46639 
L 616.994393 470.263889 
L 625.376585 470.0612 
L 633.758776 469.858299 
L 642.140968 469.655213 
L 650.523159 469.451949 
L 658.905351 469.248476 
L 667.287542 469.044803 
L 675.669734 468.840949 
L 684.051925 468.636905 
L 692.434117 468.432658 
L 700.816308 468.22822 
L 709.1985 468.023598 
L 717.580692 467.818794 
L 725.962883 467.6138 
L 734.345075 467.40861 
L 742.727266 467.20324 
L 751.109458 466.997691 
L 759.491649 466.791951 
L 767.873841 466.586045 
L 776.256032 466.379943 
L 784.638224 466.173666 
L 793.020416 465.967225 
L 801.402607 465.760595 
L 809.784799 465.55378 
L 818.16699 465.346796 
L 826.549182 465.139637 
L 834.931373 464.932301 
L 843.313565 464.724794 
L 851.695756 464.517112 
L 860.077948 464.309261 
L 868.460139 464.101232 
L 876.842331 463.893035 
L 885.224523 463.684675 
L 893.606714 463.476152 
" clip-path="url(#pe403648141)" style="fill: none; stroke: #a55194; stroke-width: 2; stroke-linecap: round"/>
   </g>
   <g id="line2d_46">
    <path d="M 55.387559 493.097415 
L 63.769751 492.927279 
L 72.151942 492.756804 
L 80.534134 492.585985 
L 88.916325 492.414823 
L 97.298517 492.243328 
L 105.680709 492.07149 
L 114.0629 491.899322 
L 122.445092 491.726816 
L 130.827283 491.553986 
L 139.209475 491.380821 
L 147.591666 491.207335 
L 155.973858 491.033512 
L 164.356049 490.859365 
L 172.738241 490.684888 
L 181.120433 490.510084 
L 189.502624 490.334965 
L 197.884816 490.159524 
L 206.267007 489.983763 
L 214.649199 489.807679 
L 223.03139 489.631279 
L 231.413582 489.454566 
L 239.795773 489.277536 
L 248.177965 489.100188 
L 256.560156 488.922531 
L 264.942348 488.74456 
L 273.32454 488.566288 
L 281.706731 488.387704 
L 290.088923 488.208806 
L 298.471114 488.029607 
L 306.853306 487.850105 
L 315.235497 487.670289 
L 323.617689 487.490189 
L 331.99988 487.309778 
L 340.382072 487.129063 
L 348.764263 486.948056 
L 357.146455 486.766747 
L 365.528647 486.585153 
L 373.910838 486.403253 
L 382.29303 486.221065 
L 390.675221 486.038593 
L 399.057413 485.855817 
L 407.439604 485.672755 
L 415.821796 485.489411 
L 424.203987 485.305784 
L 432.586179 485.121863 
L 440.96837 484.937655 
L 449.350562 484.753163 
L 457.732754 484.568392 
L 466.114945 484.383344 
L 474.497137 484.198016 
L 482.879328 484.012406 
L 491.26152 483.826519 
L 499.643711 483.640355 
L 508.025903 483.453924 
L 516.408094 483.267217 
L 524.790286 483.080234 
L 533.172478 482.892975 
L 541.554669 482.705454 
L 549.936861 482.517662 
L 558.319052 482.329606 
L 566.701244 482.141282 
L 575.083435 481.952693 
L 583.465627 481.76384 
L 591.847818 481.574719 
L 600.23001 481.385353 
L 608.612201 481.195714 
L 616.994393 481.005818 
L 625.376585 480.815655 
L 633.758776 480.625239 
L 642.140968 480.43457 
L 650.523159 480.243662 
L 658.905351 480.052486 
L 667.287542 479.861063 
L 675.669734 479.669389 
L 684.051925 479.477456 
L 692.434117 479.285289 
L 700.816308 479.092866 
L 709.1985 478.900189 
L 717.580692 478.707273 
L 725.962883 478.514111 
L 734.345075 478.320713 
L 742.727266 478.127065 
L 751.109458 477.933179 
L 759.491649 477.739047 
L 767.873841 477.544689 
L 776.256032 477.35008 
L 784.638224 477.15524 
L 793.020416 476.960177 
L 801.402607 476.764871 
L 809.784799 476.569325 
L 818.16699 476.373553 
L 826.549182 476.177552 
L 834.931373 475.981319 
L 843.313565 475.784861 
L 851.695756 475.588175 
L 860.077948 475.391266 
L 868.460139 475.194121 
L 876.842331 474.996748 
L 885.224523 474.799159 
L 893.606714 474.601353 
" clip-path="url(#pe403648141)" style="fill: none; stroke: #de9ed6; stroke-width: 2; stroke-linecap: round"/>
   </g>
   <g id="patch_3">
    <path d="M 55.387559 521.153031 
L 55.387559 51.564121 
" style="fill: none"/>
   </g>
   <g id="patch_4">
    <path d="M 935.517672 521.153031 
L 935.517672 51.564121 
" style="fill: none"/>
   </g>
   <g id="patch_5">
    <path d="M 55.387559 521.153031 
L 935.517672 521.153031 
" style="fill: none"/>
   </g>
   <g id="patch_6">
    <path d="M 55.387559 51.564121 
L 935.517672 51.564121 
" style="fill: none"/>
   </g>
   <g id="patch_7">
    <path d="M 474.497137 119.442745 
Q 474.497137 267.177258 474.497137 413.23472 
" style="fill: none; stroke: #000000; stroke-width: 1.5; stroke-linecap: round"/>
    <path d="M 477.697137 406.83472 
L 474.497137 413.23472 
L 471.297137 406.83472 
" style="fill: none; stroke: #000000; stroke-width: 1.5; stroke-linecap: round"/>
   </g>
   <g id="text_20">
    <!-- Time -->
    <g style="fill: #262626" transform="translate(495.452616 413.425424) scale(0.18 -0.18)">
     <defs>
      <path id="CMR17-54" d="M 3981 4326 
L 288 4326 
L 179 2918 
L 294 2918 
C 378 3976 467 4160 1453 4160 
C 1568 4160 1754 4160 1805 4154 
C 1926 4135 1926 4058 1926 3912 
L 1926 459 
C 1926 230 1907 160 1376 160 
L 1197 160 
L 1197 0 
C 1504 0 1824 0 2138 0 
C 2451 0 2771 0 3078 0 
L 3078 160 
L 2899 160 
C 2368 160 2349 230 2349 459 
L 2349 3912 
C 2349 4052 2349 4129 2464 4154 
C 2515 4160 2701 4160 2816 4160 
C 3795 4160 3891 3976 3974 2918 
L 4090 2918 
L 3981 4326 
z
" transform="scale(0.015625)"/>
      <path id="CMR17-69" d="M 992 3909 
C 992 4049 877 4170 730 4170 
C 589 4170 467 4056 467 3909 
C 467 3769 582 3648 730 3648 
C 870 3648 992 3763 992 3909 
z
M 243 2706 
L 243 2541 
C 602 2541 653 2502 653 2197 
L 653 427 
C 653 184 627 153 218 153 
L 218 -13 
C 371 0 646 0 806 0 
C 960 0 1222 0 1370 -13 
L 1370 153 
C 992 153 979 191 979 420 
L 979 2776 
L 243 2706 
z
" transform="scale(0.015625)"/>
      <path id="CMR17-6d" d="M 4326 1933 
C 4326 2252 4269 2790 3507 2790 
C 3072 2790 2771 2496 2656 2151 
L 2650 2151 
C 2573 2676 2195 2790 1837 2790 
C 1331 2790 1069 2400 973 2144 
L 966 2144 
L 966 2790 
L 211 2720 
L 211 2554 
C 589 2554 646 2515 646 2208 
L 646 428 
C 646 184 621 153 211 153 
L 211 -13 
C 365 0 646 0 813 0 
C 979 0 1267 0 1421 -13 
L 1421 153 
C 1011 153 986 178 986 428 
L 986 1658 
C 986 2247 1344 2688 1792 2688 
C 2266 2688 2317 2266 2317 1958 
L 2317 428 
C 2317 184 2291 153 1882 153 
L 1882 -13 
C 2035 0 2317 0 2483 0 
C 2650 0 2938 0 3091 -13 
L 3091 153 
C 2682 153 2656 178 2656 428 
L 2656 1658 
C 2656 2247 3014 2688 3462 2688 
C 3936 2688 3987 2266 3987 1958 
L 3987 428 
C 3987 184 3962 153 3552 153 
L 3552 -13 
C 3706 0 3987 0 4154 0 
C 4320 0 4608 0 4762 -13 
L 4762 153 
C 4352 153 4326 178 4326 428 
L 4326 1933 
z
" transform="scale(0.015625)"/>
      <path id="CMR17-65" d="M 2438 1472 
C 2464 1498 2464 1511 2464 1576 
C 2464 2238 2118 2816 1389 2816 
C 710 2816 173 2169 173 1383 
C 173 551 781 -64 1459 -64 
C 2176 -64 2458 607 2458 740 
C 2458 784 2419 784 2406 784 
C 2362 784 2355 771 2330 696 
C 2189 265 1837 51 1504 51 
C 1229 51 954 203 781 480 
C 582 803 582 1176 582 1472 
L 2438 1472 
z
M 589 1568 
C 634 2505 1126 2714 1382 2714 
C 1818 2714 2112 2297 2118 1568 
L 589 1568 
z
" transform="scale(0.015625)"/>
     </defs>
     <use xlink:href="#CMR17-54" transform="scale(0.996264)"/>
     <use xlink:href="#CMR17-69" transform="translate(66.509881 0) scale(0.996264)"/>
     <use xlink:href="#CMR17-6d" transform="translate(91.380939 0) scale(0.996264)"/>
     <use xlink:href="#CMR17-65" transform="translate(168.300529 0) scale(0.996264)"/>
    </g>
   </g>
   <g id="legend_1">
    <g id="line2d_47">
     <path d="M 948.117672 197.198434 
L 962.117672 197.198434 
L 976.117672 197.198434 
" style="fill: none; stroke: #393b79; stroke-width: 2; stroke-linecap: round"/>
    </g>
    <g id="text_21">
     <!-- t = 0.00 -->
     <g style="fill: #262626" transform="translate(987.317672 202.098434) scale(0.14 -0.14)">
      <defs>
       <path id="CMR17-74" d="M 966 2560 
L 1862 2560 
L 1862 2725 
L 966 2725 
L 966 3904 
L 851 3904 
C 838 3245 614 2668 70 2668 
L 70 2560 
L 627 2560 
L 627 771 
C 627 650 627 -64 1370 -64 
C 1747 -64 1965 306 1965 777 
L 1965 1140 
L 1850 1140 
L 1850 783 
C 1850 344 1677 51 1408 51 
C 1222 51 966 178 966 758 
L 966 2560 
z
" transform="scale(0.015625)"/>
       <path id="CMR17-3d" d="M 4115 2017 
C 4211 2017 4307 2017 4307 2125 
C 4307 2240 4198 2240 4090 2240 
L 512 2240 
C 403 2240 294 2240 294 2125 
C 294 2017 390 2017 486 2017 
L 4115 2017 
z
M 4090 896 
C 4198 896 4307 896 4307 1011 
C 4307 1119 4211 1119 4115 1119 
L 486 1119 
C 390 1119 294 1119 294 1011 
C 294 896 403 896 512 896 
L 4090 896 
z
" transform="scale(0.015625)"/>
       <path id="CMR17-2e" d="M 1062 261 
C 1062 420 934 522 800 522 
C 672 522 538 420 538 261 
C 538 102 666 0 800 0 
C 928 0 1062 102 1062 261 
z
" transform="scale(0.015625)"/>
      </defs>
      <use xlink:href="#CMR17-74" transform="scale(0.996264)"/>
      <use xlink:href="#CMR17-3d" transform="translate(65.356734 0) scale(0.996264)"/>
      <use xlink:href="#CMR17-30" transform="translate(167.147489 0) scale(0.996264)"/>
      <use xlink:href="#CMR17-2e" transform="translate(212.837966 0) scale(0.996264)"/>
      <use xlink:href="#CMR17-30" transform="translate(237.709025 0) scale(0.996264)"/>
      <use xlink:href="#CMR17-30" transform="translate(283.399502 0) scale(0.996264)"/>
     </g>
    </g>
    <g id="line2d_48">
     <path d="M 948.117672 216.710462 
L 962.117672 216.710462 
L 976.117672 216.710462 
" style="fill: none; stroke: #6b6ecf; stroke-width: 2; stroke-linecap: round"/>
    </g>
    <g id="text_22">
     <!-- t = 10.00 -->
     <g style="fill: #262626" transform="translate(987.317672 221.610462) scale(0.14 -0.14)">
      <use xlink:href="#CMR17-74" transform="scale(0.996264)"/>
      <use xlink:href="#CMR17-3d" transform="translate(65.356734 0) scale(0.996264)"/>
      <use xlink:href="#CMR17-31" transform="translate(167.147489 0) scale(0.996264)"/>
      <use xlink:href="#CMR17-30" transform="translate(212.837966 0) scale(0.996264)"/>
      <use xlink:href="#CMR17-2e" transform="translate(258.528443 0) scale(0.996264)"/>
      <use xlink:href="#CMR17-30" transform="translate(283.399502 0) scale(0.996264)"/>
      <use xlink:href="#CMR17-30" transform="translate(329.089979 0) scale(0.996264)"/>
     </g>
    </g>
    <g id="line2d_49">
     <path d="M 948.117672 236.222491 
L 962.117672 236.222491 
L 976.117672 236.222491 
" style="fill: none; stroke: #637939; stroke-width: 2; stroke-linecap: round"/>
    </g>
    <g id="text_23">
     <!-- t = 50.00 -->
     <g style="fill: #262626" transform="translate(987.317672 241.122491) scale(0.14 -0.14)">
      <use xlink:href="#CMR17-74" transform="scale(0.996264)"/>
      <use xlink:href="#CMR17-3d" transform="translate(65.356734 0) scale(0.996264)"/>
      <use xlink:href="#CMR17-35" transform="translate(167.147489 0) scale(0.996264)"/>
      <use xlink:href="#CMR17-30" transform="translate(212.837966 0) scale(0.996264)"/>
      <use xlink:href="#CMR17-2e" transform="translate(258.528443 0) scale(0.996264)"/>
      <use xlink:href="#CMR17-30" transform="translate(283.399502 0) scale(0.996264)"/>
      <use xlink:href="#CMR17-30" transform="translate(329.089979 0) scale(0.996264)"/>
     </g>
    </g>
    <g id="line2d_50">
     <path d="M 948.117672 255.734519 
L 962.117672 255.734519 
L 976.117672 255.734519 
" style="fill: none; stroke: #b5cf6b; stroke-width: 2; stroke-linecap: round"/>
    </g>
    <g id="text_24">
     <!-- t = 100.00 -->
     <g style="fill: #262626" transform="translate(987.317672 260.634519) scale(0.14 -0.14)">
      <use xlink:href="#CMR17-74" transform="scale(0.996264)"/>
      <use xlink:href="#CMR17-3d" transform="translate(65.356734 0) scale(0.996264)"/>
      <use xlink:href="#CMR17-31" transform="translate(167.147489 0) scale(0.996264)"/>
      <use xlink:href="#CMR17-30" transform="translate(212.837966 0) scale(0.996264)"/>
      <use xlink:href="#CMR17-30" transform="translate(258.528443 0) scale(0.996264)"/>
      <use xlink:href="#CMR17-2e" transform="translate(304.21892 0) scale(0.996264)"/>
      <use xlink:href="#CMR17-30" transform="translate(329.089979 0) scale(0.996264)"/>
      <use xlink:href="#CMR17-30" transform="translate(374.780456 0) scale(0.996264)"/>
     </g>
    </g>
    <g id="line2d_51">
     <path d="M 948.117672 275.246547 
L 962.117672 275.246547 
L 976.117672 275.246547 
" style="fill: none; stroke: #8c6d31; stroke-width: 2; stroke-linecap: round"/>
    </g>
    <g id="text_25">
     <!-- t = 250.00 -->
     <g style="fill: #262626" transform="translate(987.317672 280.146547) scale(0.14 -0.14)">
      <use xlink:href="#CMR17-74" transform="scale(0.996264)"/>
      <use xlink:href="#CMR17-3d" transform="translate(65.356734 0) scale(0.996264)"/>
      <use xlink:href="#CMR17-32" transform="translate(167.147489 0) scale(0.996264)"/>
      <use xlink:href="#CMR17-35" transform="translate(212.837966 0) scale(0.996264)"/>
      <use xlink:href="#CMR17-30" transform="translate(258.528443 0) scale(0.996264)"/>
      <use xlink:href="#CMR17-2e" transform="translate(304.21892 0) scale(0.996264)"/>
      <use xlink:href="#CMR17-30" transform="translate(329.089979 0) scale(0.996264)"/>
      <use xlink:href="#CMR17-30" transform="translate(374.780456 0) scale(0.996264)"/>
     </g>
    </g>
    <g id="line2d_52">
     <path d="M 948.117672 294.758576 
L 962.117672 294.758576 
L 976.117672 294.758576 
" style="fill: none; stroke: #e7cb94; stroke-width: 2; stroke-linecap: round"/>
    </g>
    <g id="text_26">
     <!-- t = 500.00 -->
     <g style="fill: #262626" transform="translate(987.317672 299.658576) scale(0.14 -0.14)">
      <use xlink:href="#CMR17-74" transform="scale(0.996264)"/>
      <use xlink:href="#CMR17-3d" transform="translate(65.356734 0) scale(0.996264)"/>
      <use xlink:href="#CMR17-35" transform="translate(167.147489 0) scale(0.996264)"/>
      <use xlink:href="#CMR17-30" transform="translate(212.837966 0) scale(0.996264)"/>
      <use xlink:href="#CMR17-30" transform="translate(258.528443 0) scale(0.996264)"/>
      <use xlink:href="#CMR17-2e" transform="translate(304.21892 0) scale(0.996264)"/>
      <use xlink:href="#CMR17-30" transform="translate(329.089979 0) scale(0.996264)"/>
      <use xlink:href="#CMR17-30" transform="translate(374.780456 0) scale(0.996264)"/>
     </g>
    </g>
    <g id="line2d_53">
     <path d="M 948.117672 314.270604 
L 962.117672 314.270604 
L 976.117672 314.270604 
" style="fill: none; stroke: #ad494a; stroke-width: 2; stroke-linecap: round"/>
    </g>
    <g id="text_27">
     <!-- t = 750.00 -->
     <g style="fill: #262626" transform="translate(987.317672 319.170604) scale(0.14 -0.14)">
      <use xlink:href="#CMR17-74" transform="scale(0.996264)"/>
      <use xlink:href="#CMR17-3d" transform="translate(65.356734 0) scale(0.996264)"/>
      <use xlink:href="#CMR17-37" transform="translate(167.147489 0) scale(0.996264)"/>
      <use xlink:href="#CMR17-35" transform="translate(212.837966 0) scale(0.996264)"/>
      <use xlink:href="#CMR17-30" transform="translate(258.528443 0) scale(0.996264)"/>
      <use xlink:href="#CMR17-2e" transform="translate(304.21892 0) scale(0.996264)"/>
      <use xlink:href="#CMR17-30" transform="translate(329.089979 0) scale(0.996264)"/>
      <use xlink:href="#CMR17-30" transform="translate(374.780456 0) scale(0.996264)"/>
     </g>
    </g>
    <g id="line2d_54">
     <path d="M 948.117672 333.782633 
L 962.117672 333.782633 
L 976.117672 333.782633 
" style="fill: none; stroke: #e7969c; stroke-width: 2; stroke-linecap: round"/>
    </g>
    <g id="text_28">
     <!-- t = 1000.00 -->
     <g style="fill: #262626" transform="translate(987.317672 338.682633) scale(0.14 -0.14)">
      <use xlink:href="#CMR17-74" transform="scale(0.996264)"/>
      <use xlink:href="#CMR17-3d" transform="translate(65.356734 0) scale(0.996264)"/>
      <use xlink:href="#CMR17-31" transform="translate(167.147489 0) scale(0.996264)"/>
      <use xlink:href="#CMR17-30" transform="translate(212.837966 0) scale(0.996264)"/>
      <use xlink:href="#CMR17-30" transform="translate(258.528443 0) scale(0.996264)"/>
      <use xlink:href="#CMR17-30" transform="translate(304.21892 0) scale(0.996264)"/>
      <use xlink:href="#CMR17-2e" transform="translate(349.909397 0) scale(0.996264)"/>
      <use xlink:href="#CMR17-30" transform="translate(374.780456 0) scale(0.996264)"/>
      <use xlink:href="#CMR17-30" transform="translate(420.470933 0) scale(0.996264)"/>
     </g>
    </g>
    <g id="line2d_55">
     <path d="M 948.117672 353.294661 
L 962.117672 353.294661 
L 976.117672 353.294661 
" style="fill: none; stroke: #a55194; stroke-width: 2; stroke-linecap: round"/>
    </g>
    <g id="text_29">
     <!-- t = 1250.00 -->
     <g style="fill: #262626" transform="translate(987.317672 358.194661) scale(0.14 -0.14)">
      <use xlink:href="#CMR17-74" transform="scale(0.996264)"/>
      <use xlink:href="#CMR17-3d" transform="translate(65.356734 0) scale(0.996264)"/>
      <use xlink:href="#CMR17-31" transform="translate(167.147489 0) scale(0.996264)"/>
      <use xlink:href="#CMR17-32" transform="translate(212.837966 0) scale(0.996264)"/>
      <use xlink:href="#CMR17-35" transform="translate(258.528443 0) scale(0.996264)"/>
      <use xlink:href="#CMR17-30" transform="translate(304.21892 0) scale(0.996264)"/>
      <use xlink:href="#CMR17-2e" transform="translate(349.909397 0) scale(0.996264)"/>
      <use xlink:href="#CMR17-30" transform="translate(374.780456 0) scale(0.996264)"/>
      <use xlink:href="#CMR17-30" transform="translate(420.470933 0) scale(0.996264)"/>
     </g>
    </g>
    <g id="line2d_56">
     <path d="M 948.117672 372.806689 
L 962.117672 372.806689 
L 976.117672 372.806689 
" style="fill: none; stroke: #de9ed6; stroke-width: 2; stroke-linecap: round"/>
    </g>
    <g id="text_30">
     <!-- t = 1500.00 -->
     <g style="fill: #262626" transform="translate(987.317672 377.706689) scale(0.14 -0.14)">
      <use xlink:href="#CMR17-74" transform="scale(0.996264)"/>
      <use xlink:href="#CMR17-3d" transform="translate(65.356734 0) scale(0.996264)"/>
      <use xlink:href="#CMR17-31" transform="translate(167.147489 0) scale(0.996264)"/>
      <use xlink:href="#CMR17-35" transform="translate(212.837966 0) scale(0.996264)"/>
      <use xlink:href="#CMR17-30" transform="translate(258.528443 0) scale(0.996264)"/>
      <use xlink:href="#CMR17-30" transform="translate(304.21892 0) scale(0.996264)"/>
      <use xlink:href="#CMR17-2e" transform="translate(349.909397 0) scale(0.996264)"/>
      <use xlink:href="#CMR17-30" transform="translate(374.780456 0) scale(0.996264)"/>
      <use xlink:href="#CMR17-30" transform="translate(420.470933 0) scale(0.996264)"/>
     </g>
    </g>
   </g>
  </g>
  <g id="text_31">
   <!-- adhesivity -->
   <g style="fill: #262626" transform="translate(501.333696 24.803515) scale(0.192 -0.192)">
    <defs>
     <path id="CMR17-61" d="M 2304 1653 
C 2304 2072 2304 2294 2035 2543 
C 1798 2752 1523 2816 1306 2816 
C 800 2816 435 2407 435 1971 
C 435 1728 627 1728 666 1728 
C 749 1728 896 1778 896 1954 
C 896 2112 774 2181 666 2181 
C 640 2181 608 2174 589 2168 
C 723 2592 1069 2714 1293 2714 
C 1613 2714 1965 2429 1965 1885 
L 1965 1600 
C 1587 1600 1133 1549 774 1357 
C 371 1133 256 813 256 570 
C 256 77 832 -64 1171 -64 
C 1523 -64 1850 139 1990 511 
C 2003 233 2182 -18 2464 -18 
C 2598 -18 2938 70 2938 567 
L 2938 920 
L 2822 920 
L 2822 562 
C 2822 178 2650 128 2566 128 
C 2304 128 2304 458 2304 738 
L 2304 1653 
z
M 1965 870 
C 1965 317 1568 38 1216 38 
C 896 38 646 275 646 570 
C 646 761 730 1100 1101 1305 
C 1408 1478 1760 1504 1965 1504 
L 1965 870 
z
" transform="scale(0.015625)"/>
     <path id="CMR17-64" d="M 1869 4326 
L 1869 4160 
C 2246 4160 2304 4122 2304 3820 
L 2304 2345 
C 2278 2377 2016 2790 1498 2790 
C 845 2790 211 2208 211 1364 
C 211 525 806 -64 1434 -64 
C 1978 -64 2259 337 2291 380 
L 2291 -63 
L 3066 -63 
L 3066 128 
C 2688 128 2630 166 2630 473 
L 2630 4396 
L 1869 4326 
z
M 2291 755 
C 2291 563 2176 390 2029 262 
C 1811 70 1594 38 1472 38 
C 1286 38 621 134 621 1356 
C 621 2612 1363 2688 1530 2688 
C 1824 2688 2061 2522 2208 2291 
C 2291 2157 2291 2138 2291 2023 
L 2291 755 
z
" transform="scale(0.015625)"/>
     <path id="CMR17-68" d="M 2656 1933 
C 2656 2259 2592 2790 1837 2790 
C 1312 2790 1056 2368 979 2157 
L 973 2157 
L 973 4396 
L 211 4326 
L 211 4160 
C 589 4160 646 4122 646 3817 
L 646 426 
C 646 184 621 153 211 153 
L 211 -13 
C 365 0 646 0 813 0 
C 979 0 1267 0 1421 -13 
L 1421 153 
C 1011 153 986 178 986 428 
L 986 1658 
C 986 2247 1344 2688 1792 2688 
C 2266 2688 2317 2266 2317 1958 
L 2317 428 
C 2317 184 2291 153 1882 153 
L 1882 -13 
C 2035 0 2317 0 2483 0 
C 2650 0 2938 0 3091 -13 
L 3091 153 
C 2682 153 2656 178 2656 428 
L 2656 1933 
z
" transform="scale(0.015625)"/>
     <path id="CMR17-73" d="M 1978 2697 
C 1978 2813 1971 2819 1933 2819 
C 1907 2819 1901 2813 1824 2717 
C 1805 2691 1747 2626 1728 2601 
C 1523 2819 1235 2819 1126 2819 
C 416 2819 160 2447 160 2076 
C 160 1498 813 1365 998 1325 
C 1402 1243 1542 1217 1677 1101 
C 1760 1025 1901 884 1901 654 
C 1901 384 1747 38 1158 38 
C 602 38 403 460 288 1021 
C 269 1110 269 1117 218 1117 
C 166 1117 160 1110 160 983 
L 160 63 
C 160 -51 166 -58 205 -58 
C 237 -58 243 -51 275 0 
C 314 57 410 211 448 276 
C 576 103 800 -64 1158 -64 
C 1792 -64 2131 283 2131 784 
C 2131 1112 1958 1285 1875 1362 
C 1683 1561 1459 1606 1190 1657 
C 838 1735 390 1825 390 2217 
C 390 2383 480 2737 1126 2737 
C 1811 2737 1850 2094 1862 1888 
C 1869 1856 1901 1849 1920 1849 
C 1978 1849 1978 1869 1978 1978 
L 1978 2697 
z
" transform="scale(0.015625)"/>
     <path id="CMR17-76" d="M 2502 2163 
C 2560 2304 2662 2560 3034 2560 
L 3034 2726 
C 2912 2726 2752 2726 2630 2726 
C 2496 2726 2285 2726 2157 2732 
L 2157 2566 
C 2317 2553 2406 2477 2406 2311 
C 2406 2253 2406 2240 2368 2151 
L 1664 377 
L 902 2286 
C 864 2369 864 2381 864 2407 
C 864 2560 1075 2560 1171 2560 
L 1171 2732 
C 1018 2726 736 2726 576 2726 
C 403 2726 205 2726 64 2732 
L 64 2560 
C 307 2560 442 2560 518 2362 
L 1446 44 
C 1485 -51 1491 -64 1549 -64 
C 1606 -64 1613 -51 1651 44 
L 2502 2163 
z
" transform="scale(0.015625)"/>
     <path id="CMR17-79" d="M 2496 2197 
C 2656 2586 2944 2586 3034 2586 
L 3034 2752 
C 2912 2752 2752 2752 2630 2752 
C 2496 2752 2285 2752 2157 2758 
L 2157 2592 
C 2400 2573 2406 2394 2406 2343 
C 2406 2280 2394 2248 2362 2171 
L 1664 449 
L 902 2306 
C 870 2382 870 2426 870 2433 
C 870 2573 1018 2586 1171 2586 
L 1171 2758 
C 1018 2752 742 2752 582 2752 
C 410 2752 205 2752 64 2758 
L 64 2586 
C 410 2586 448 2554 531 2350 
L 1485 15 
C 1197 -738 1030 -1178 627 -1178 
C 557 -1178 397 -1159 282 -1044 
C 429 -1031 493 -942 493 -833 
C 493 -725 416 -629 288 -629 
C 147 -629 77 -725 77 -840 
C 77 -1095 339 -1280 627 -1280 
C 998 -1280 1229 -922 1357 -604 
L 2496 2197 
z
" transform="scale(0.015625)"/>
    </defs>
    <use xlink:href="#CMR17-61" transform="scale(0.996264)"/>
    <use xlink:href="#CMR17-64" transform="translate(45.690477 0) scale(0.996264)"/>
    <use xlink:href="#CMR17-68" transform="translate(96.585847 0) scale(0.996264)"/>
    <use xlink:href="#CMR17-65" transform="translate(147.481217 0) scale(0.996264)"/>
    <use xlink:href="#CMR17-73" transform="translate(187.966877 0) scale(0.996264)"/>
    <use xlink:href="#CMR17-69" transform="translate(223.768215 0) scale(0.996264)"/>
    <use xlink:href="#CMR17-76" transform="translate(248.639273 0) scale(0.996264)"/>
    <use xlink:href="#CMR17-69" transform="translate(296.932189 0) scale(0.996264)"/>
    <use xlink:href="#CMR17-74" transform="translate(321.803248 0) scale(0.996264)"/>
    <use xlink:href="#CMR17-79" transform="translate(354.481561 0) scale(0.996264)"/>
   </g>
  </g>
 </g>
 <defs>
  <clipPath id="pe403648141">
   <rect x="55.387559" y="51.564121" width="880.130113" height="469.58891"/>
  </clipPath>
 </defs>
</svg>
