<?xml version="1.0" encoding="utf-8" standalone="no"?>
<!DOCTYPE svg PUBLIC "-//W3C//DTD SVG 1.1//EN"
  "http://www.w3.org/Graphics/SVG/1.1/DTD/svg11.dtd">
<svg xmlns:xlink="http://www.w3.org/1999/xlink" width="1080pt" height="756pt" viewBox="0 0 1080 756" xmlns="http://www.w3.org/2000/svg" version="1.1">
 <metadata>
  <rdf:RDF xmlns:dc="http://purl.org/dc/elements/1.1/" xmlns:cc="http://creativecommons.org/ns#" xmlns:rdf="http://www.w3.org/1999/02/22-rdf-syntax-ns#">
   <cc:Work>
    <dc:type rdf:resource="http://purl.org/dc/dcmitype/StillImage"/>
    <dc:date>2024-07-31T14:21:21.020001</dc:date>
    <dc:format>image/svg+xml</dc:format>
    <dc:creator>
     <cc:Agent>
      <dc:title>Matplotlib v3.9.0, https://matplotlib.org/</dc:title>
     </cc:Agent>
    </dc:creator>
   </cc:Work>
  </rdf:RDF>
 </metadata>
 <defs>
  <style type="text/css">*{stroke-linejoin: round; stroke-linecap: butt}</style>
 </defs>
 <g id="figure_1">
  <g id="patch_1">
   <path d="M 0 756 
L 1080 756 
L 1080 0 
L 0 0 
z
" style="fill: #ffffff"/>
  </g>
  <g id="axes_1">
   <g id="patch_2">
    <path d="M 88.532127 678.237256 
L 1041.12 678.237256 
L 1041.12 38.88 
L 88.532127 38.88 
z
" style="fill: #ffffff"/>
   </g>
   <g id="matplotlib.axis_1">
    <g id="xtick_1">
     <g id="line2d_1">
      <defs>
       <path id="m04075912ad" d="M 0 0 
L 0 3.5 
" style="stroke: #262626; stroke-width: 0.8"/>
      </defs>
      <g>
       <use xlink:href="#m04075912ad" x="88.532127" y="678.237256" style="fill: #262626; stroke: #262626; stroke-width: 0.8"/>
      </g>
     </g>
     <g id="text_1">
      <!-- $\mathdefault{0.0}$ -->
      <g style="fill: #262626" transform="translate(67.206064 710.143856) scale(0.36 -0.36)">
       <defs>
        <path id="CMR17-30" d="M 2688 2025 
C 2688 2416 2682 3080 2413 3591 
C 2176 4039 1798 4198 1466 4198 
C 1158 4198 768 4058 525 3597 
C 269 3118 243 2524 243 2025 
C 243 1661 250 1106 448 619 
C 723 -39 1216 -128 1466 -128 
C 1760 -128 2208 -7 2470 600 
C 2662 1042 2688 1559 2688 2025 
z
M 1466 -26 
C 1056 -26 813 325 723 812 
C 653 1188 653 1738 653 2096 
C 653 2588 653 2997 736 3387 
C 858 3929 1216 4096 1466 4096 
C 1728 4096 2067 3923 2189 3400 
C 2272 3036 2278 2607 2278 2096 
C 2278 1680 2278 1169 2202 792 
C 2067 95 1690 -26 1466 -26 
z
" transform="scale(0.015625)"/>
        <path id="CMMI12-3a" d="M 1178 307 
C 1178 492 1024 619 870 619 
C 685 619 557 466 557 313 
C 557 128 710 0 864 0 
C 1050 0 1178 153 1178 307 
z
" transform="scale(0.015625)"/>
       </defs>
       <use xlink:href="#CMR17-30" transform="scale(0.996264)"/>
       <use xlink:href="#CMMI12-3a" transform="translate(45.690477 0) scale(0.996264)"/>
       <use xlink:href="#CMR17-30" transform="translate(72.787654 0) scale(0.996264)"/>
      </g>
     </g>
    </g>
    <g id="xtick_2">
     <g id="line2d_2">
      <g>
       <use xlink:href="#m04075912ad" x="269.977436" y="678.237256" style="fill: #262626; stroke: #262626; stroke-width: 0.8"/>
      </g>
     </g>
     <g id="text_2">
      <!-- $\mathdefault{0.2}$ -->
      <g style="fill: #262626" transform="translate(248.651373 710.143856) scale(0.36 -0.36)">
       <defs>
        <path id="CMR17-32" d="M 2669 989 
L 2554 989 
C 2490 536 2438 459 2413 420 
C 2381 369 1920 369 1830 369 
L 602 369 
C 832 619 1280 1072 1824 1597 
C 2214 1967 2669 2402 2669 3035 
C 2669 3790 2067 4224 1395 4224 
C 691 4224 262 3604 262 3030 
C 262 2780 448 2748 525 2748 
C 589 2748 781 2787 781 3010 
C 781 3207 614 3264 525 3264 
C 486 3264 448 3258 422 3245 
C 544 3790 915 4058 1306 4058 
C 1862 4058 2227 3617 2227 3035 
C 2227 2479 1901 2000 1536 1584 
L 262 146 
L 262 0 
L 2515 0 
L 2669 989 
z
" transform="scale(0.015625)"/>
       </defs>
       <use xlink:href="#CMR17-30" transform="scale(0.996264)"/>
       <use xlink:href="#CMMI12-3a" transform="translate(45.690477 0) scale(0.996264)"/>
       <use xlink:href="#CMR17-32" transform="translate(72.787654 0) scale(0.996264)"/>
      </g>
     </g>
    </g>
    <g id="xtick_3">
     <g id="line2d_3">
      <g>
       <use xlink:href="#m04075912ad" x="451.422745" y="678.237256" style="fill: #262626; stroke: #262626; stroke-width: 0.8"/>
      </g>
     </g>
     <g id="text_3">
      <!-- $\mathdefault{0.4}$ -->
      <g style="fill: #262626" transform="translate(430.096682 710.143856) scale(0.36 -0.36)">
       <defs>
        <path id="CMR17-34" d="M 2150 4122 
C 2150 4256 2144 4256 2029 4256 
L 128 1254 
L 128 1088 
L 1779 1088 
L 1779 457 
C 1779 224 1766 160 1318 160 
L 1197 160 
L 1197 0 
C 1402 0 1747 0 1965 0 
C 2182 0 2528 0 2733 0 
L 2733 160 
L 2611 160 
C 2163 160 2150 224 2150 457 
L 2150 1088 
L 2803 1088 
L 2803 1254 
L 2150 1254 
L 2150 4122 
z
M 1798 3703 
L 1798 1254 
L 256 1254 
L 1798 3703 
z
" transform="scale(0.015625)"/>
       </defs>
       <use xlink:href="#CMR17-30" transform="scale(0.996264)"/>
       <use xlink:href="#CMMI12-3a" transform="translate(45.690477 0) scale(0.996264)"/>
       <use xlink:href="#CMR17-34" transform="translate(72.787654 0) scale(0.996264)"/>
      </g>
     </g>
    </g>
    <g id="xtick_4">
     <g id="line2d_4">
      <g>
       <use xlink:href="#m04075912ad" x="632.868055" y="678.237256" style="fill: #262626; stroke: #262626; stroke-width: 0.8"/>
      </g>
     </g>
     <g id="text_4">
      <!-- $\mathdefault{0.6}$ -->
      <g style="fill: #262626" transform="translate(611.541991 710.143856) scale(0.36 -0.36)">
       <defs>
        <path id="CMR17-36" d="M 678 2176 
C 678 3690 1395 4032 1811 4032 
C 1946 4032 2272 4009 2400 3776 
C 2298 3776 2106 3776 2106 3553 
C 2106 3381 2246 3323 2336 3323 
C 2394 3323 2566 3348 2566 3560 
C 2566 3954 2246 4179 1805 4179 
C 1043 4179 243 3390 243 1984 
C 243 253 966 -128 1478 -128 
C 2099 -128 2688 427 2688 1283 
C 2688 2081 2170 2662 1517 2662 
C 1126 2662 838 2407 678 1960 
L 678 2176 
z
M 1478 25 
C 691 25 691 1200 691 1436 
C 691 1896 909 2560 1504 2560 
C 1613 2560 1926 2560 2138 2120 
C 2253 1870 2253 1609 2253 1289 
C 2253 944 2253 690 2118 434 
C 1978 171 1773 25 1478 25 
z
" transform="scale(0.015625)"/>
       </defs>
       <use xlink:href="#CMR17-30" transform="scale(0.996264)"/>
       <use xlink:href="#CMMI12-3a" transform="translate(45.690477 0) scale(0.996264)"/>
       <use xlink:href="#CMR17-36" transform="translate(72.787654 0) scale(0.996264)"/>
      </g>
     </g>
    </g>
    <g id="xtick_5">
     <g id="line2d_5">
      <g>
       <use xlink:href="#m04075912ad" x="814.313364" y="678.237256" style="fill: #262626; stroke: #262626; stroke-width: 0.8"/>
      </g>
     </g>
     <g id="text_5">
      <!-- $\mathdefault{0.8}$ -->
      <g style="fill: #262626" transform="translate(792.9873 710.143856) scale(0.36 -0.36)">
       <defs>
        <path id="CMR17-38" d="M 1741 2264 
C 2144 2467 2554 2773 2554 3263 
C 2554 3841 1990 4179 1472 4179 
C 890 4179 378 3759 378 3180 
C 378 3021 416 2747 666 2505 
C 730 2442 998 2251 1171 2130 
C 883 1983 211 1634 211 934 
C 211 279 838 -128 1459 -128 
C 2144 -128 2720 362 2720 1010 
C 2720 1590 2330 1857 2074 2029 
L 1741 2264 
z
M 902 2822 
C 851 2854 595 3051 595 3351 
C 595 3739 998 4032 1459 4032 
C 1965 4032 2336 3676 2336 3262 
C 2336 2669 1670 2331 1638 2331 
C 1632 2331 1626 2331 1574 2370 
L 902 2822 
z
M 2080 1519 
C 2176 1449 2483 1240 2483 851 
C 2483 381 2010 25 1472 25 
C 890 25 448 438 448 940 
C 448 1443 838 1862 1280 2060 
L 2080 1519 
z
" transform="scale(0.015625)"/>
       </defs>
       <use xlink:href="#CMR17-30" transform="scale(0.996264)"/>
       <use xlink:href="#CMMI12-3a" transform="translate(45.690477 0) scale(0.996264)"/>
       <use xlink:href="#CMR17-38" transform="translate(72.787654 0) scale(0.996264)"/>
      </g>
     </g>
    </g>
    <g id="xtick_6">
     <g id="line2d_6">
      <g>
       <use xlink:href="#m04075912ad" x="995.758673" y="678.237256" style="fill: #262626; stroke: #262626; stroke-width: 0.8"/>
      </g>
     </g>
     <g id="text_6">
      <!-- $\mathdefault{1.0}$ -->
      <g style="fill: #262626" transform="translate(974.432609 710.143856) scale(0.36 -0.36)">
       <defs>
        <path id="CMR17-31" d="M 1702 4058 
C 1702 4192 1696 4192 1606 4192 
C 1357 3916 979 3827 621 3827 
C 602 3827 570 3827 563 3808 
C 557 3795 557 3782 557 3648 
C 755 3648 1088 3686 1344 3839 
L 1344 461 
C 1344 236 1331 160 781 160 
L 589 160 
L 589 0 
C 896 0 1216 0 1523 0 
C 1830 0 2150 0 2458 0 
L 2458 160 
L 2266 160 
C 1715 160 1702 230 1702 458 
L 1702 4058 
z
" transform="scale(0.015625)"/>
       </defs>
       <use xlink:href="#CMR17-31" transform="scale(0.996264)"/>
       <use xlink:href="#CMMI12-3a" transform="translate(45.690477 0) scale(0.996264)"/>
       <use xlink:href="#CMR17-30" transform="translate(72.787654 0) scale(0.996264)"/>
      </g>
     </g>
    </g>
   </g>
   <g id="matplotlib.axis_2">
    <g id="ytick_1">
     <g id="line2d_7">
      <defs>
       <path id="m8304fc01d5" d="M 0 0 
L -3.5 0 
" style="stroke: #262626; stroke-width: 0.8"/>
      </defs>
      <g>
       <use xlink:href="#m8304fc01d5" x="88.532127" y="678.237256" style="fill: #262626; stroke: #262626; stroke-width: 0.8"/>
      </g>
     </g>
     <g id="text_7">
      <!-- $\mathdefault{0.0}$ -->
      <g style="fill: #262626" transform="translate(38.88 690.690556) scale(0.36 -0.36)">
       <use xlink:href="#CMR17-30" transform="scale(0.996264)"/>
       <use xlink:href="#CMMI12-3a" transform="translate(45.690477 0) scale(0.996264)"/>
       <use xlink:href="#CMR17-30" transform="translate(72.787654 0) scale(0.996264)"/>
      </g>
     </g>
    </g>
    <g id="ytick_2">
     <g id="line2d_8">
      <g>
       <use xlink:href="#m8304fc01d5" x="88.532127" y="610.984388" style="fill: #262626; stroke: #262626; stroke-width: 0.8"/>
      </g>
     </g>
     <g id="text_8">
      <!-- $\mathdefault{0.2}$ -->
      <g style="fill: #262626" transform="translate(38.88 623.437688) scale(0.36 -0.36)">
       <use xlink:href="#CMR17-30" transform="scale(0.996264)"/>
       <use xlink:href="#CMMI12-3a" transform="translate(45.690477 0) scale(0.996264)"/>
       <use xlink:href="#CMR17-32" transform="translate(72.787654 0) scale(0.996264)"/>
      </g>
     </g>
    </g>
    <g id="ytick_3">
     <g id="line2d_9">
      <g>
       <use xlink:href="#m8304fc01d5" x="88.532127" y="543.731519" style="fill: #262626; stroke: #262626; stroke-width: 0.8"/>
      </g>
     </g>
     <g id="text_9">
      <!-- $\mathdefault{0.4}$ -->
      <g style="fill: #262626" transform="translate(38.88 556.184819) scale(0.36 -0.36)">
       <use xlink:href="#CMR17-30" transform="scale(0.996264)"/>
       <use xlink:href="#CMMI12-3a" transform="translate(45.690477 0) scale(0.996264)"/>
       <use xlink:href="#CMR17-34" transform="translate(72.787654 0) scale(0.996264)"/>
      </g>
     </g>
    </g>
    <g id="ytick_4">
     <g id="line2d_10">
      <g>
       <use xlink:href="#m8304fc01d5" x="88.532127" y="476.478651" style="fill: #262626; stroke: #262626; stroke-width: 0.8"/>
      </g>
     </g>
     <g id="text_10">
      <!-- $\mathdefault{0.6}$ -->
      <g style="fill: #262626" transform="translate(38.88 488.931951) scale(0.36 -0.36)">
       <use xlink:href="#CMR17-30" transform="scale(0.996264)"/>
       <use xlink:href="#CMMI12-3a" transform="translate(45.690477 0) scale(0.996264)"/>
       <use xlink:href="#CMR17-36" transform="translate(72.787654 0) scale(0.996264)"/>
      </g>
     </g>
    </g>
    <g id="ytick_5">
     <g id="line2d_11">
      <g>
       <use xlink:href="#m8304fc01d5" x="88.532127" y="409.225782" style="fill: #262626; stroke: #262626; stroke-width: 0.8"/>
      </g>
     </g>
     <g id="text_11">
      <!-- $\mathdefault{0.8}$ -->
      <g style="fill: #262626" transform="translate(38.88 421.679082) scale(0.36 -0.36)">
       <use xlink:href="#CMR17-30" transform="scale(0.996264)"/>
       <use xlink:href="#CMMI12-3a" transform="translate(45.690477 0) scale(0.996264)"/>
       <use xlink:href="#CMR17-38" transform="translate(72.787654 0) scale(0.996264)"/>
      </g>
     </g>
    </g>
    <g id="ytick_6">
     <g id="line2d_12">
      <g>
       <use xlink:href="#m8304fc01d5" x="88.532127" y="341.972914" style="fill: #262626; stroke: #262626; stroke-width: 0.8"/>
      </g>
     </g>
     <g id="text_12">
      <!-- $\mathdefault{1.0}$ -->
      <g style="fill: #262626" transform="translate(38.88 354.426214) scale(0.36 -0.36)">
       <use xlink:href="#CMR17-31" transform="scale(0.996264)"/>
       <use xlink:href="#CMMI12-3a" transform="translate(45.690477 0) scale(0.996264)"/>
       <use xlink:href="#CMR17-30" transform="translate(72.787654 0) scale(0.996264)"/>
      </g>
     </g>
    </g>
    <g id="ytick_7">
     <g id="line2d_13">
      <g>
       <use xlink:href="#m8304fc01d5" x="88.532127" y="274.720045" style="fill: #262626; stroke: #262626; stroke-width: 0.8"/>
      </g>
     </g>
     <g id="text_13">
      <!-- $\mathdefault{1.2}$ -->
      <g style="fill: #262626" transform="translate(38.88 287.173345) scale(0.36 -0.36)">
       <use xlink:href="#CMR17-31" transform="scale(0.996264)"/>
       <use xlink:href="#CMMI12-3a" transform="translate(45.690477 0) scale(0.996264)"/>
       <use xlink:href="#CMR17-32" transform="translate(72.787654 0) scale(0.996264)"/>
      </g>
     </g>
    </g>
   </g>
   <g id="line2d_14">
    <path d="M 88.532127 72.96144 
L 995.758673 72.96144 
L 995.758673 72.96144 
" clip-path="url(#p5f389af104)" style="fill: none; stroke: #1f77b4; stroke-width: 5; stroke-linecap: round"/>
   </g>
   <g id="line2d_15">
    <path d="M 88.532127 647.346637 
L 100.628481 642.113563 
L 112.724835 636.61632 
L 124.821189 630.878797 
L 136.917543 624.923574 
L 149.013897 618.771935 
L 167.158428 609.219996 
L 185.302959 599.334639 
L 203.44749 589.173282 
L 221.592021 578.788937 
L 245.784728 564.677734 
L 276.025613 546.753148 
L 384.892799 481.875016 
L 415.133684 464.252 
L 439.326392 450.389131 
L 463.519099 436.76863 
L 487.711807 423.416086 
L 511.904515 410.353012 
L 536.097223 397.596901 
L 560.289931 385.161172 
L 578.434462 376.049056 
L 596.578993 367.127094 
L 614.723524 358.39722 
L 632.868055 349.859645 
L 651.012585 341.51714 
L 669.157116 333.370304 
L 687.301647 325.417367 
L 705.446178 317.66009 
L 723.590709 310.095807 
L 741.73524 302.72366 
L 759.879771 295.544659 
L 778.024302 288.550789 
L 796.168833 281.745272 
L 814.313364 275.124082 
L 832.457895 268.684705 
L 850.602425 262.425568 
L 874.795133 254.349519 
L 898.987841 246.580809 
L 923.180549 239.109318 
L 947.373257 231.92733 
L 971.565965 225.029301 
L 995.758673 218.400926 
L 995.758673 218.400926 
" clip-path="url(#p5f389af104)" style="fill: none; stroke: #2ca02c; stroke-width: 5; stroke-linecap: round"/>
   </g>
   <g id="line2d_16">
    <path d="M 88.532127 680.727356 
L 94.580304 678.387626 
L 100.628481 676.727886 
L 106.676658 675.548941 
L 112.724835 674.568522 
L 118.773012 673.461723 
L 124.821189 672.225259 
L 130.869366 670.86409 
L 136.917543 669.383024 
L 149.013897 666.079561 
L 161.110251 662.350516 
L 173.206605 658.22955 
L 185.302959 653.748285 
L 197.399313 648.936615 
L 209.495667 643.822666 
L 221.592021 638.433037 
L 233.688375 632.79256 
L 245.784728 626.924884 
L 257.881082 620.852183 
L 269.977436 614.595258 
L 288.121967 604.90715 
L 306.266498 594.909755 
L 324.411029 584.658993 
L 348.603737 570.684015 
L 378.844622 552.870673 
L 421.181861 527.605556 
L 475.615453 495.139536 
L 505.856338 477.334131 
L 536.097223 459.805612 
L 560.289931 446.028808 
L 584.482639 432.503889 
L 608.675347 419.253361 
L 632.868055 406.297062 
L 657.060762 393.651255 
L 681.25347 381.328847 
L 699.398001 372.305248 
L 717.542532 363.470763 
L 735.687063 354.827419 
L 753.831594 346.378768 
L 771.976125 338.124449 
L 790.120656 330.066376 
L 808.265187 322.200163 
L 826.409718 314.52896 
L 844.554248 307.051162 
L 862.698779 299.765841 
L 880.84331 292.667218 
L 898.987841 285.758041 
L 917.132372 279.034505 
L 935.276903 272.493176 
L 953.421434 266.131923 
L 971.565965 259.949689 
L 995.758673 251.974398 
L 995.758673 251.974398 
" clip-path="url(#p5f389af104)" style="fill: none; stroke: #9467bd; stroke-width: 5; stroke-linecap: round"/>
   </g>
   <g id="line2d_17">
    <path d="M 88.532127 702.770612 
L 94.580304 693.839434 
L 100.628481 687.601 
L 106.676658 683.230413 
L 112.724835 680.155562 
L 118.773012 677.983706 
L 124.821189 676.443715 
L 149.013897 671.952561 
L 155.062074 670.567272 
L 167.158428 667.444783 
L 179.254782 663.883097 
L 191.351136 659.916462 
L 203.44749 655.577209 
L 215.543844 650.896011 
L 227.640198 645.901469 
L 239.736552 640.620847 
L 251.832905 635.079725 
L 263.929259 629.302114 
L 276.025613 623.31073 
L 288.121967 617.12699 
L 306.266498 607.534298 
L 324.411029 597.616491 
L 342.55556 587.430747 
L 366.748268 573.522474 
L 390.940976 559.340537 
L 427.230038 537.762464 
L 505.856338 490.881713 
L 536.097223 473.138549 
L 560.289931 459.152085 
L 584.482639 445.38942 
L 608.675347 431.878463 
L 632.868055 418.643466 
L 657.060762 405.703877 
L 681.25347 393.075695 
L 705.446178 380.770394 
L 723.590709 371.758772 
L 741.73524 362.937882 
L 759.879771 354.30875 
L 778.024302 345.873942 
L 796.168833 337.632339 
L 814.313364 329.585749 
L 832.457895 321.7337 
L 850.602425 314.075793 
L 868.746956 306.610221 
L 886.891487 299.337035 
L 905.036018 292.251617 
L 923.180549 285.355522 
L 941.32508 278.644308 
L 959.469611 272.114581 
L 977.614142 265.764223 
L 995.758673 259.592211 
L 995.758673 259.592211 
" clip-path="url(#p5f389af104)" style="fill: none; stroke: #e377c2; stroke-width: 5; stroke-linecap: round"/>
   </g>
   <g id="line2d_18">
    <path d="M 88.532127 728.063446 
L 94.580304 711.39148 
L 100.628481 699.829348 
L 106.676658 691.786082 
L 112.724835 686.16677 
L 118.773012 682.224971 
L 124.821189 679.448947 
L 130.869366 677.4858 
L 136.917543 676.08973 
L 149.013897 674.035216 
L 155.062074 672.865017 
L 161.110251 671.567814 
L 167.158428 670.148398 
L 179.254782 666.961667 
L 191.351136 663.340796 
L 203.44749 659.31975 
L 215.543844 654.930728 
L 227.640198 650.203824 
L 239.736552 645.167683 
L 251.832905 639.849228 
L 263.929259 634.273705 
L 276.025613 628.465078 
L 288.121967 622.445826 
L 300.218321 616.237018 
L 318.362852 606.611965 
L 336.507383 596.667456 
L 354.651914 586.460316 
L 378.844622 572.530449 
L 403.03733 558.334156 
L 439.326392 536.746435 
L 511.904515 493.456211 
L 542.1454 475.678009 
L 572.386285 458.183237 
L 596.578993 444.43828 
L 620.771701 430.946747 
L 644.964408 417.732942 
L 669.157116 404.816131 
L 693.349824 392.21031 
L 717.542532 379.928616 
L 735.687063 370.93627 
L 753.831594 362.132711 
L 771.976125 353.522072 
L 790.120656 345.104827 
L 808.265187 336.882898 
L 826.409718 328.854624 
L 844.554248 321.022712 
L 862.698779 313.38279 
L 880.84331 305.935049 
L 898.987841 298.677915 
L 917.132372 291.61255 
L 935.276903 284.73274 
L 953.421434 278.037774 
L 971.565965 271.5262 
L 995.758673 263.121884 
L 995.758673 263.121884 
" clip-path="url(#p5f389af104)" style="fill: none; stroke: #bcbd22; stroke-width: 5; stroke-linecap: round"/>
   </g>
   <g id="line2d_19">
    <path d="M 88.532127 754.590235 
L 94.580304 729.695131 
L 100.628481 712.509628 
L 106.676658 700.608632 
L 112.724835 692.331421 
L 118.773012 686.550867 
L 124.821189 682.497678 
L 130.869366 679.643726 
L 136.917543 677.622952 
L 142.96572 676.187161 
L 155.062074 674.125851 
L 161.110251 672.966565 
L 167.158428 671.679837 
L 173.206605 670.270548 
L 185.302959 667.102888 
L 197.399313 663.499691 
L 209.495667 659.495016 
L 221.592021 655.121046 
L 233.688375 650.408006 
L 245.784728 645.384583 
L 257.881082 640.077717 
L 269.977436 634.512826 
L 282.07379 628.713816 
L 294.170144 622.703364 
L 306.266498 616.502557 
L 324.411029 606.887917 
L 342.55556 596.95209 
L 360.700091 586.752039 
L 384.892799 572.829654 
L 409.085507 558.638817 
L 445.374568 537.055637 
L 517.952692 493.763888 
L 548.193577 475.982202 
L 578.434462 458.483183 
L 602.62717 444.73411 
L 626.819878 431.237441 
L 651.012585 418.018153 
L 675.205293 405.094287 
L 699.398001 392.481976 
L 723.590709 380.19372 
L 741.73524 371.196007 
L 759.879771 362.387455 
L 778.024302 353.772611 
L 796.168833 345.349854 
L 814.313364 337.122801 
L 832.457895 329.088231 
L 850.602425 321.250446 
L 868.746956 313.605739 
L 886.891487 306.152299 
L 905.036018 298.89055 
L 923.180549 291.819158 
L 941.32508 284.935436 
L 959.469611 278.235147 
L 977.614142 271.718508 
L 995.758673 265.380106 
L 995.758673 265.380106 
" clip-path="url(#p5f389af104)" style="fill: none; stroke: #17becf; stroke-width: 5; stroke-linecap: round"/>
   </g>
   <g id="patch_3">
    <path d="M 88.532127 678.237256 
L 88.532127 38.88 
" style="fill: none; stroke: #262626; stroke-width: 0.8; stroke-linejoin: miter; stroke-linecap: square"/>
   </g>
   <g id="patch_4">
    <path d="M 88.532127 678.237256 
L 1041.12 678.237256 
" style="fill: none; stroke: #262626; stroke-width: 0.8; stroke-linejoin: miter; stroke-linecap: square"/>
   </g>
  </g>
 </g>
 <defs>
  <clipPath id="p5f389af104">
   <rect x="88.532127" y="38.88" width="952.587873" height="639.357256"/>
  </clipPath>
 </defs>
</svg>
