<?xml version="1.0" encoding="utf-8" standalone="no"?>
<!DOCTYPE svg PUBLIC "-//W3C//DTD SVG 1.1//EN"
  "http://www.w3.org/Graphics/SVG/1.1/DTD/svg11.dtd">
<svg xmlns:xlink="http://www.w3.org/1999/xlink" width="1080pt" height="576pt" viewBox="0 0 1080 576" xmlns="http://www.w3.org/2000/svg" version="1.1">
 <metadata>
  <rdf:RDF xmlns:dc="http://purl.org/dc/elements/1.1/" xmlns:cc="http://creativecommons.org/ns#" xmlns:rdf="http://www.w3.org/1999/02/22-rdf-syntax-ns#">
   <cc:Work>
    <dc:type rdf:resource="http://purl.org/dc/dcmitype/StillImage"/>
    <dc:date>2024-06-28T14:46:03.753536</dc:date>
    <dc:format>image/svg+xml</dc:format>
    <dc:creator>
     <cc:Agent>
      <dc:title>Matplotlib v3.9.0, https://matplotlib.org/</dc:title>
     </cc:Agent>
    </dc:creator>
   </cc:Work>
  </rdf:RDF>
 </metadata>
 <defs>
  <style type="text/css">*{stroke-linejoin: round; stroke-linecap: butt}</style>
 </defs>
 <g id="figure_1">
  <g id="patch_1">
   <path d="M 0 576 
L 1080 576 
L 1080 0 
L 0 0 
z
" style="fill: #ffffff"/>
  </g>
  <g id="axes_1">
   <g id="patch_2">
    <path d="M 41.730582 521.153031 
L 935.517672 521.153031 
L 935.517672 51.564121 
L 41.730582 51.564121 
z
" style="fill: #eaeaf2"/>
   </g>
   <g id="matplotlib.axis_1">
    <g id="xtick_1">
     <g id="line2d_1">
      <path d="M 41.730582 521.153031 
L 41.730582 51.564121 
" clip-path="url(#p6839a3db49)" style="fill: none; stroke: #ffffff; stroke-linecap: round"/>
     </g>
     <g id="line2d_2"/>
     <g id="text_1">
      <!-- $\mathdefault{0.00}$ -->
      <g style="fill: #262626" transform="translate(29.591047 537.838907) scale(0.14 -0.14)">
       <defs>
        <path id="CMR17-30" d="M 2688 2025 
C 2688 2416 2682 3080 2413 3591 
C 2176 4039 1798 4198 1466 4198 
C 1158 4198 768 4058 525 3597 
C 269 3118 243 2524 243 2025 
C 243 1661 250 1106 448 619 
C 723 -39 1216 -128 1466 -128 
C 1760 -128 2208 -7 2470 600 
C 2662 1042 2688 1559 2688 2025 
z
M 1466 -26 
C 1056 -26 813 325 723 812 
C 653 1188 653 1738 653 2096 
C 653 2588 653 2997 736 3387 
C 858 3929 1216 4096 1466 4096 
C 1728 4096 2067 3923 2189 3400 
C 2272 3036 2278 2607 2278 2096 
C 2278 1680 2278 1169 2202 792 
C 2067 95 1690 -26 1466 -26 
z
" transform="scale(0.015625)"/>
        <path id="CMMI12-3a" d="M 1178 307 
C 1178 492 1024 619 870 619 
C 685 619 557 466 557 313 
C 557 128 710 0 864 0 
C 1050 0 1178 153 1178 307 
z
" transform="scale(0.015625)"/>
       </defs>
       <use xlink:href="#CMR17-30" transform="scale(0.996264)"/>
       <use xlink:href="#CMMI12-3a" transform="translate(45.690477 0) scale(0.996264)"/>
       <use xlink:href="#CMR17-30" transform="translate(72.787654 0) scale(0.996264)"/>
       <use xlink:href="#CMR17-30" transform="translate(118.478131 0) scale(0.996264)"/>
      </g>
     </g>
    </g>
    <g id="xtick_2">
     <g id="line2d_3">
      <path d="M 148.133807 521.153031 
L 148.133807 51.564121 
" clip-path="url(#p6839a3db49)" style="fill: none; stroke: #ffffff; stroke-linecap: round"/>
     </g>
     <g id="line2d_4"/>
     <g id="text_2">
      <!-- $\mathdefault{0.25}$ -->
      <g style="fill: #262626" transform="translate(135.994272 537.838907) scale(0.14 -0.14)">
       <defs>
        <path id="CMR17-32" d="M 2669 989 
L 2554 989 
C 2490 536 2438 459 2413 420 
C 2381 369 1920 369 1830 369 
L 602 369 
C 832 619 1280 1072 1824 1597 
C 2214 1967 2669 2402 2669 3035 
C 2669 3790 2067 4224 1395 4224 
C 691 4224 262 3604 262 3030 
C 262 2780 448 2748 525 2748 
C 589 2748 781 2787 781 3010 
C 781 3207 614 3264 525 3264 
C 486 3264 448 3258 422 3245 
C 544 3790 915 4058 1306 4058 
C 1862 4058 2227 3617 2227 3035 
C 2227 2479 1901 2000 1536 1584 
L 262 146 
L 262 0 
L 2515 0 
L 2669 989 
z
" transform="scale(0.015625)"/>
        <path id="CMR17-35" d="M 730 3692 
C 794 3666 1056 3584 1325 3584 
C 1920 3584 2246 3911 2432 4100 
C 2432 4157 2432 4192 2394 4192 
C 2387 4192 2374 4192 2323 4163 
C 2099 4058 1837 3973 1517 3973 
C 1325 3973 1037 3999 723 4139 
C 653 4171 640 4171 634 4171 
C 602 4171 595 4164 595 4037 
L 595 2203 
C 595 2089 595 2057 659 2057 
C 691 2057 704 2070 736 2114 
C 941 2401 1222 2522 1542 2522 
C 1766 2522 2246 2382 2246 1289 
C 2246 1085 2246 715 2054 421 
C 1894 159 1645 25 1370 25 
C 947 25 518 320 403 814 
C 429 807 480 795 506 795 
C 589 795 749 840 749 1038 
C 749 1210 627 1280 506 1280 
C 358 1280 262 1190 262 1011 
C 262 454 704 -128 1382 -128 
C 2042 -128 2669 440 2669 1264 
C 2669 2030 2170 2624 1549 2624 
C 1222 2624 947 2503 730 2274 
L 730 3692 
z
" transform="scale(0.015625)"/>
       </defs>
       <use xlink:href="#CMR17-30" transform="scale(0.996264)"/>
       <use xlink:href="#CMMI12-3a" transform="translate(45.690477 0) scale(0.996264)"/>
       <use xlink:href="#CMR17-32" transform="translate(72.787654 0) scale(0.996264)"/>
       <use xlink:href="#CMR17-35" transform="translate(118.478131 0) scale(0.996264)"/>
      </g>
     </g>
    </g>
    <g id="xtick_3">
     <g id="line2d_5">
      <path d="M 254.537032 521.153031 
L 254.537032 51.564121 
" clip-path="url(#p6839a3db49)" style="fill: none; stroke: #ffffff; stroke-linecap: round"/>
     </g>
     <g id="line2d_6"/>
     <g id="text_3">
      <!-- $\mathdefault{0.50}$ -->
      <g style="fill: #262626" transform="translate(242.397497 537.838907) scale(0.14 -0.14)">
       <use xlink:href="#CMR17-30" transform="scale(0.996264)"/>
       <use xlink:href="#CMMI12-3a" transform="translate(45.690477 0) scale(0.996264)"/>
       <use xlink:href="#CMR17-35" transform="translate(72.787654 0) scale(0.996264)"/>
       <use xlink:href="#CMR17-30" transform="translate(118.478131 0) scale(0.996264)"/>
      </g>
     </g>
    </g>
    <g id="xtick_4">
     <g id="line2d_7">
      <path d="M 360.940257 521.153031 
L 360.940257 51.564121 
" clip-path="url(#p6839a3db49)" style="fill: none; stroke: #ffffff; stroke-linecap: round"/>
     </g>
     <g id="line2d_8"/>
     <g id="text_4">
      <!-- $\mathdefault{0.75}$ -->
      <g style="fill: #262626" transform="translate(348.800722 537.838907) scale(0.14 -0.14)">
       <defs>
        <path id="CMR17-37" d="M 2886 3941 
L 2886 4081 
L 1382 4081 
C 634 4081 621 4165 595 4288 
L 480 4288 
L 294 3094 
L 410 3094 
C 429 3215 474 3540 550 3661 
C 589 3712 1062 3712 1171 3712 
L 2579 3712 
L 1869 2661 
C 1395 1954 1069 999 1069 165 
C 1069 89 1069 -128 1299 -128 
C 1530 -128 1530 89 1530 171 
L 1530 465 
C 1530 1508 1709 2196 2003 2636 
L 2886 3941 
z
" transform="scale(0.015625)"/>
       </defs>
       <use xlink:href="#CMR17-30" transform="scale(0.996264)"/>
       <use xlink:href="#CMMI12-3a" transform="translate(45.690477 0) scale(0.996264)"/>
       <use xlink:href="#CMR17-37" transform="translate(72.787654 0) scale(0.996264)"/>
       <use xlink:href="#CMR17-35" transform="translate(118.478131 0) scale(0.996264)"/>
      </g>
     </g>
    </g>
    <g id="xtick_5">
     <g id="line2d_9">
      <path d="M 467.343482 521.153031 
L 467.343482 51.564121 
" clip-path="url(#p6839a3db49)" style="fill: none; stroke: #ffffff; stroke-linecap: round"/>
     </g>
     <g id="line2d_10"/>
     <g id="text_5">
      <!-- $\mathdefault{1.00}$ -->
      <g style="fill: #262626" transform="translate(455.203947 537.838907) scale(0.14 -0.14)">
       <defs>
        <path id="CMR17-31" d="M 1702 4058 
C 1702 4192 1696 4192 1606 4192 
C 1357 3916 979 3827 621 3827 
C 602 3827 570 3827 563 3808 
C 557 3795 557 3782 557 3648 
C 755 3648 1088 3686 1344 3839 
L 1344 461 
C 1344 236 1331 160 781 160 
L 589 160 
L 589 0 
C 896 0 1216 0 1523 0 
C 1830 0 2150 0 2458 0 
L 2458 160 
L 2266 160 
C 1715 160 1702 230 1702 458 
L 1702 4058 
z
" transform="scale(0.015625)"/>
       </defs>
       <use xlink:href="#CMR17-31" transform="scale(0.996264)"/>
       <use xlink:href="#CMMI12-3a" transform="translate(45.690477 0) scale(0.996264)"/>
       <use xlink:href="#CMR17-30" transform="translate(72.787654 0) scale(0.996264)"/>
       <use xlink:href="#CMR17-30" transform="translate(118.478131 0) scale(0.996264)"/>
      </g>
     </g>
    </g>
    <g id="xtick_6">
     <g id="line2d_11">
      <path d="M 573.746707 521.153031 
L 573.746707 51.564121 
" clip-path="url(#p6839a3db49)" style="fill: none; stroke: #ffffff; stroke-linecap: round"/>
     </g>
     <g id="line2d_12"/>
     <g id="text_6">
      <!-- $\mathdefault{1.25}$ -->
      <g style="fill: #262626" transform="translate(561.607172 537.838907) scale(0.14 -0.14)">
       <use xlink:href="#CMR17-31" transform="scale(0.996264)"/>
       <use xlink:href="#CMMI12-3a" transform="translate(45.690477 0) scale(0.996264)"/>
       <use xlink:href="#CMR17-32" transform="translate(72.787654 0) scale(0.996264)"/>
       <use xlink:href="#CMR17-35" transform="translate(118.478131 0) scale(0.996264)"/>
      </g>
     </g>
    </g>
    <g id="xtick_7">
     <g id="line2d_13">
      <path d="M 680.149932 521.153031 
L 680.149932 51.564121 
" clip-path="url(#p6839a3db49)" style="fill: none; stroke: #ffffff; stroke-linecap: round"/>
     </g>
     <g id="line2d_14"/>
     <g id="text_7">
      <!-- $\mathdefault{1.50}$ -->
      <g style="fill: #262626" transform="translate(668.010397 537.838907) scale(0.14 -0.14)">
       <use xlink:href="#CMR17-31" transform="scale(0.996264)"/>
       <use xlink:href="#CMMI12-3a" transform="translate(45.690477 0) scale(0.996264)"/>
       <use xlink:href="#CMR17-35" transform="translate(72.787654 0) scale(0.996264)"/>
       <use xlink:href="#CMR17-30" transform="translate(118.478131 0) scale(0.996264)"/>
      </g>
     </g>
    </g>
    <g id="xtick_8">
     <g id="line2d_15">
      <path d="M 786.553157 521.153031 
L 786.553157 51.564121 
" clip-path="url(#p6839a3db49)" style="fill: none; stroke: #ffffff; stroke-linecap: round"/>
     </g>
     <g id="line2d_16"/>
     <g id="text_8">
      <!-- $\mathdefault{1.75}$ -->
      <g style="fill: #262626" transform="translate(774.413622 537.838907) scale(0.14 -0.14)">
       <use xlink:href="#CMR17-31" transform="scale(0.996264)"/>
       <use xlink:href="#CMMI12-3a" transform="translate(45.690477 0) scale(0.996264)"/>
       <use xlink:href="#CMR17-37" transform="translate(72.787654 0) scale(0.996264)"/>
       <use xlink:href="#CMR17-35" transform="translate(118.478131 0) scale(0.996264)"/>
      </g>
     </g>
    </g>
    <g id="xtick_9">
     <g id="line2d_17">
      <path d="M 892.956382 521.153031 
L 892.956382 51.564121 
" clip-path="url(#p6839a3db49)" style="fill: none; stroke: #ffffff; stroke-linecap: round"/>
     </g>
     <g id="line2d_18"/>
     <g id="text_9">
      <!-- $\mathdefault{2.00}$ -->
      <g style="fill: #262626" transform="translate(880.816846 537.838907) scale(0.14 -0.14)">
       <use xlink:href="#CMR17-32" transform="scale(0.996264)"/>
       <use xlink:href="#CMMI12-3a" transform="translate(45.690477 0) scale(0.996264)"/>
       <use xlink:href="#CMR17-30" transform="translate(72.787654 0) scale(0.996264)"/>
       <use xlink:href="#CMR17-30" transform="translate(118.478131 0) scale(0.996264)"/>
      </g>
     </g>
    </g>
    <g id="text_10">
     <!-- $x$ -->
     <g style="fill: #262626" transform="translate(484.189402 555.620524) scale(0.16 -0.16)">
      <defs>
       <path id="CMMI12-78" d="M 3034 2606 
C 2829 2567 2752 2414 2752 2293 
C 2752 2139 2874 2088 2963 2088 
C 3155 2088 3290 2254 3290 2427 
C 3290 2695 2982 2816 2714 2816 
C 2323 2816 2106 2433 2048 2312 
C 1901 2816 1504 2816 1389 2816 
C 736 2816 390 1980 390 1839 
C 390 1814 416 1782 461 1782 
C 512 1782 525 1820 538 1846 
C 755 2555 1184 2689 1370 2689 
C 1658 2689 1715 2420 1715 2267 
C 1715 2127 1677 1980 1600 1673 
L 1382 798 
C 1286 415 1101 64 762 64 
C 730 64 570 64 435 147 
C 666 192 717 383 717 460 
C 717 588 621 664 499 664 
C 346 664 179 530 179 326 
C 179 57 480 -64 755 -64 
C 1062 -64 1280 179 1414 441 
C 1517 64 1837 -64 2074 -64 
C 2726 -64 3072 773 3072 913 
C 3072 945 3046 971 3008 971 
C 2950 971 2944 939 2925 888 
C 2752 326 2381 64 2093 64 
C 1869 64 1747 230 1747 492 
C 1747 632 1773 734 1875 1156 
L 2099 2024 
C 2195 2408 2413 2689 2707 2689 
C 2720 2689 2899 2689 3034 2606 
z
" transform="scale(0.015625)"/>
      </defs>
      <use xlink:href="#CMMI12-78" transform="scale(0.996264)"/>
     </g>
    </g>
   </g>
   <g id="matplotlib.axis_2">
    <g id="ytick_1">
     <g id="line2d_19">
      <path d="M 41.730582 521.153031 
L 935.517672 521.153031 
" clip-path="url(#p6839a3db49)" style="fill: none; stroke: #ffffff; stroke-linecap: round"/>
     </g>
     <g id="line2d_20"/>
     <g id="text_11">
      <!-- $\mathdefault{0.0}$ -->
      <g style="fill: #262626" transform="translate(17.28 525.995969) scale(0.14 -0.14)">
       <use xlink:href="#CMR17-30" transform="scale(0.996264)"/>
       <use xlink:href="#CMMI12-3a" transform="translate(45.690477 0) scale(0.996264)"/>
       <use xlink:href="#CMR17-30" transform="translate(72.787654 0) scale(0.996264)"/>
      </g>
     </g>
    </g>
    <g id="ytick_2">
     <g id="line2d_21">
      <path d="M 41.730582 421.529119 
L 935.517672 421.529119 
" clip-path="url(#p6839a3db49)" style="fill: none; stroke: #ffffff; stroke-linecap: round"/>
     </g>
     <g id="line2d_22"/>
     <g id="text_12">
      <!-- $\mathdefault{0.2}$ -->
      <g style="fill: #262626" transform="translate(17.28 426.372057) scale(0.14 -0.14)">
       <use xlink:href="#CMR17-30" transform="scale(0.996264)"/>
       <use xlink:href="#CMMI12-3a" transform="translate(45.690477 0) scale(0.996264)"/>
       <use xlink:href="#CMR17-32" transform="translate(72.787654 0) scale(0.996264)"/>
      </g>
     </g>
    </g>
    <g id="ytick_3">
     <g id="line2d_23">
      <path d="M 41.730582 321.905207 
L 935.517672 321.905207 
" clip-path="url(#p6839a3db49)" style="fill: none; stroke: #ffffff; stroke-linecap: round"/>
     </g>
     <g id="line2d_24"/>
     <g id="text_13">
      <!-- $\mathdefault{0.4}$ -->
      <g style="fill: #262626" transform="translate(17.28 326.748146) scale(0.14 -0.14)">
       <defs>
        <path id="CMR17-34" d="M 2150 4122 
C 2150 4256 2144 4256 2029 4256 
L 128 1254 
L 128 1088 
L 1779 1088 
L 1779 457 
C 1779 224 1766 160 1318 160 
L 1197 160 
L 1197 0 
C 1402 0 1747 0 1965 0 
C 2182 0 2528 0 2733 0 
L 2733 160 
L 2611 160 
C 2163 160 2150 224 2150 457 
L 2150 1088 
L 2803 1088 
L 2803 1254 
L 2150 1254 
L 2150 4122 
z
M 1798 3703 
L 1798 1254 
L 256 1254 
L 1798 3703 
z
" transform="scale(0.015625)"/>
       </defs>
       <use xlink:href="#CMR17-30" transform="scale(0.996264)"/>
       <use xlink:href="#CMMI12-3a" transform="translate(45.690477 0) scale(0.996264)"/>
       <use xlink:href="#CMR17-34" transform="translate(72.787654 0) scale(0.996264)"/>
      </g>
     </g>
    </g>
    <g id="ytick_4">
     <g id="line2d_25">
      <path d="M 41.730582 222.281296 
L 935.517672 222.281296 
" clip-path="url(#p6839a3db49)" style="fill: none; stroke: #ffffff; stroke-linecap: round"/>
     </g>
     <g id="line2d_26"/>
     <g id="text_14">
      <!-- $\mathdefault{0.6}$ -->
      <g style="fill: #262626" transform="translate(17.28 227.124234) scale(0.14 -0.14)">
       <defs>
        <path id="CMR17-36" d="M 678 2176 
C 678 3690 1395 4032 1811 4032 
C 1946 4032 2272 4009 2400 3776 
C 2298 3776 2106 3776 2106 3553 
C 2106 3381 2246 3323 2336 3323 
C 2394 3323 2566 3348 2566 3560 
C 2566 3954 2246 4179 1805 4179 
C 1043 4179 243 3390 243 1984 
C 243 253 966 -128 1478 -128 
C 2099 -128 2688 427 2688 1283 
C 2688 2081 2170 2662 1517 2662 
C 1126 2662 838 2407 678 1960 
L 678 2176 
z
M 1478 25 
C 691 25 691 1200 691 1436 
C 691 1896 909 2560 1504 2560 
C 1613 2560 1926 2560 2138 2120 
C 2253 1870 2253 1609 2253 1289 
C 2253 944 2253 690 2118 434 
C 1978 171 1773 25 1478 25 
z
" transform="scale(0.015625)"/>
       </defs>
       <use xlink:href="#CMR17-30" transform="scale(0.996264)"/>
       <use xlink:href="#CMMI12-3a" transform="translate(45.690477 0) scale(0.996264)"/>
       <use xlink:href="#CMR17-36" transform="translate(72.787654 0) scale(0.996264)"/>
      </g>
     </g>
    </g>
    <g id="ytick_5">
     <g id="line2d_27">
      <path d="M 41.730582 122.657384 
L 935.517672 122.657384 
" clip-path="url(#p6839a3db49)" style="fill: none; stroke: #ffffff; stroke-linecap: round"/>
     </g>
     <g id="line2d_28"/>
     <g id="text_15">
      <!-- $\mathdefault{0.8}$ -->
      <g style="fill: #262626" transform="translate(17.28 127.500322) scale(0.14 -0.14)">
       <defs>
        <path id="CMR17-38" d="M 1741 2264 
C 2144 2467 2554 2773 2554 3263 
C 2554 3841 1990 4179 1472 4179 
C 890 4179 378 3759 378 3180 
C 378 3021 416 2747 666 2505 
C 730 2442 998 2251 1171 2130 
C 883 1983 211 1634 211 934 
C 211 279 838 -128 1459 -128 
C 2144 -128 2720 362 2720 1010 
C 2720 1590 2330 1857 2074 2029 
L 1741 2264 
z
M 902 2822 
C 851 2854 595 3051 595 3351 
C 595 3739 998 4032 1459 4032 
C 1965 4032 2336 3676 2336 3262 
C 2336 2669 1670 2331 1638 2331 
C 1632 2331 1626 2331 1574 2370 
L 902 2822 
z
M 2080 1519 
C 2176 1449 2483 1240 2483 851 
C 2483 381 2010 25 1472 25 
C 890 25 448 438 448 940 
C 448 1443 838 1862 1280 2060 
L 2080 1519 
z
" transform="scale(0.015625)"/>
       </defs>
       <use xlink:href="#CMR17-30" transform="scale(0.996264)"/>
       <use xlink:href="#CMMI12-3a" transform="translate(45.690477 0) scale(0.996264)"/>
       <use xlink:href="#CMR17-38" transform="translate(72.787654 0) scale(0.996264)"/>
      </g>
     </g>
    </g>
   </g>
   <g id="line2d_29">
    <path d="M 41.730582 72.845428 
L 50.24284 72.845428 
L 58.755098 72.845428 
L 67.267356 72.845428 
L 75.779614 72.845428 
L 84.291872 72.845428 
L 92.80413 72.845428 
L 101.316388 72.845428 
L 109.828646 72.845428 
L 118.340904 72.845428 
L 126.853162 72.845428 
L 135.36542 72.845428 
L 143.877678 72.845428 
L 152.389936 72.845428 
L 160.902194 72.845428 
L 169.414452 72.845428 
L 177.92671 72.845428 
L 186.438968 72.845428 
L 194.951226 72.845428 
L 203.463484 72.845428 
L 211.975742 72.845428 
L 220.488 72.845428 
L 229.000258 72.845428 
L 237.512516 72.845428 
L 246.024774 72.845428 
L 254.537032 72.845428 
L 263.04929 72.845428 
L 271.561548 72.845428 
L 280.073806 72.845428 
L 288.586064 72.845428 
L 297.098322 72.845428 
L 305.61058 72.845428 
L 314.122838 72.845428 
L 322.635096 72.845428 
L 331.147354 72.845428 
L 339.659612 72.845428 
L 348.17187 72.845428 
L 356.684128 72.845428 
L 365.196386 72.845428 
L 373.708644 72.845428 
L 382.220902 72.845428 
L 390.73316 72.845428 
L 399.245418 72.845428 
L 407.757676 72.845428 
L 416.269934 72.845428 
L 424.782192 72.845428 
L 433.29445 72.845428 
L 441.806708 72.845428 
L 450.318966 72.845428 
L 458.831224 72.845428 
L 467.343482 72.845428 
L 475.85574 72.845428 
L 484.367998 72.845428 
L 492.880256 72.845428 
L 501.392514 72.845428 
L 509.904772 72.845428 
L 518.41703 72.845428 
L 526.929288 72.845428 
L 535.441546 72.845428 
L 543.953804 72.845428 
L 552.466062 72.845428 
L 560.97832 72.845428 
L 569.490578 72.845428 
L 578.002836 72.845428 
L 586.515094 72.845428 
L 595.027352 72.845428 
L 603.53961 72.845428 
L 612.051868 72.845428 
L 620.564126 72.845428 
L 629.076384 72.845428 
L 637.588642 72.845428 
L 646.1009 72.845428 
L 654.613158 72.845428 
L 663.125416 72.845428 
L 671.637674 72.845428 
L 680.149932 72.845428 
L 688.66219 72.845428 
L 697.174448 72.845428 
L 705.686706 72.845428 
L 714.198964 72.845428 
L 722.711222 72.845428 
L 731.22348 72.845428 
L 739.735738 72.845428 
L 748.247996 72.845428 
L 756.760254 72.845428 
L 765.272512 72.845428 
L 773.78477 72.845428 
L 782.297028 72.845428 
L 790.809286 72.845428 
L 799.321544 72.845428 
L 807.833802 72.845428 
L 816.34606 72.845428 
L 824.858318 72.845428 
L 833.370576 72.845428 
L 841.882834 72.845428 
L 850.395092 72.845428 
L 858.90735 72.845428 
L 867.419608 72.845428 
L 875.931866 72.845428 
L 884.444124 72.845428 
L 892.956382 72.845428 
" clip-path="url(#p6839a3db49)" style="fill: none; stroke: #393b79; stroke-width: 2; stroke-linecap: round"/>
   </g>
   <g id="line2d_30">
    <path d="M 41.730582 85.672247 
L 50.24284 85.672247 
L 58.755098 85.672247 
L 67.267356 85.672247 
L 75.779614 85.672247 
L 84.291872 85.672247 
L 92.80413 85.672247 
L 101.316388 85.672247 
L 109.828646 85.672247 
L 118.340904 85.672247 
L 126.853162 85.672247 
L 135.36542 85.672247 
L 143.877678 85.672247 
L 152.389936 85.672247 
L 160.902194 85.672247 
L 169.414452 85.672247 
L 177.92671 85.672247 
L 186.438968 85.672247 
L 194.951226 85.672247 
L 203.463484 85.672247 
L 211.975742 85.672247 
L 220.488 85.672247 
L 229.000258 85.672247 
L 237.512516 85.672247 
L 246.024774 85.672247 
L 254.537032 85.672247 
L 263.04929 85.672247 
L 271.561548 85.672247 
L 280.073806 85.672247 
L 288.586064 85.672247 
L 297.098322 85.672247 
L 305.61058 85.672247 
L 314.122838 85.672247 
L 322.635096 85.672247 
L 331.147354 85.672247 
L 339.659612 85.672247 
L 348.17187 85.672247 
L 356.684128 85.672247 
L 365.196386 85.672247 
L 373.708644 85.672247 
L 382.220902 85.672247 
L 390.73316 85.672247 
L 399.245418 85.672247 
L 407.757676 85.672247 
L 416.269934 85.672247 
L 424.782192 85.672247 
L 433.29445 85.672247 
L 441.806708 85.672247 
L 450.318966 85.672247 
L 458.831224 85.672247 
L 467.343482 85.672247 
L 475.85574 85.672247 
L 484.367998 85.672247 
L 492.880256 85.672247 
L 501.392514 85.672247 
L 509.904772 85.672247 
L 518.41703 85.672247 
L 526.929288 85.672247 
L 535.441546 85.672247 
L 543.953804 85.672247 
L 552.466062 85.672247 
L 560.97832 85.672247 
L 569.490578 85.672247 
L 578.002836 85.672247 
L 586.515094 85.672247 
L 595.027352 85.672247 
L 603.53961 85.672247 
L 612.051868 85.672247 
L 620.564126 85.672247 
L 629.076384 85.672247 
L 637.588642 85.672247 
L 646.1009 85.672247 
L 654.613158 85.672247 
L 663.125416 85.672247 
L 671.637674 85.672247 
L 680.149932 85.672247 
L 688.66219 85.672247 
L 697.174448 85.672247 
L 705.686706 85.672247 
L 714.198964 85.672247 
L 722.711222 85.672247 
L 731.22348 85.672247 
L 739.735738 85.672247 
L 748.247996 85.672247 
L 756.760254 85.672247 
L 765.272512 85.672247 
L 773.78477 85.672247 
L 782.297028 85.672247 
L 790.809286 85.672247 
L 799.321544 85.672247 
L 807.833802 85.672247 
L 816.34606 85.672247 
L 824.858318 85.672247 
L 833.370576 85.672247 
L 841.882834 85.672247 
L 850.395092 85.672247 
L 858.90735 85.672247 
L 867.419608 85.672247 
L 875.931866 85.672247 
L 884.444124 85.672247 
L 892.956382 85.672247 
" clip-path="url(#p6839a3db49)" style="fill: none; stroke: #6b6ecf; stroke-width: 2; stroke-linecap: round"/>
   </g>
   <g id="line2d_31">
    <path d="M 41.730582 133.081287 
L 50.24284 133.081287 
L 58.755098 133.081287 
L 67.267356 133.081287 
L 75.779614 133.081287 
L 84.291872 133.081287 
L 92.80413 133.081287 
L 101.316388 133.081287 
L 109.828646 133.081287 
L 118.340904 133.081287 
L 126.853162 133.081287 
L 135.36542 133.081287 
L 143.877678 133.081287 
L 152.389936 133.081287 
L 160.902194 133.081287 
L 169.414452 133.081287 
L 177.92671 133.081287 
L 186.438968 133.081287 
L 194.951226 133.081287 
L 203.463484 133.081287 
L 211.975742 133.081287 
L 220.488 133.081287 
L 229.000258 133.081287 
L 237.512516 133.081287 
L 246.024774 133.081287 
L 254.537032 133.081287 
L 263.04929 133.081287 
L 271.561548 133.081287 
L 280.073806 133.081287 
L 288.586064 133.081287 
L 297.098322 133.081287 
L 305.61058 133.081287 
L 314.122838 133.081287 
L 322.635096 133.081287 
L 331.147354 133.081287 
L 339.659612 133.081287 
L 348.17187 133.081287 
L 356.684128 133.081287 
L 365.196386 133.081287 
L 373.708644 133.081287 
L 382.220902 133.081287 
L 390.73316 133.081287 
L 399.245418 133.081287 
L 407.757676 133.081287 
L 416.269934 133.081287 
L 424.782192 133.081287 
L 433.29445 133.081287 
L 441.806708 133.081287 
L 450.318966 133.081287 
L 458.831224 133.081287 
L 467.343482 133.081287 
L 475.85574 133.081287 
L 484.367998 133.081287 
L 492.880256 133.081287 
L 501.392514 133.081287 
L 509.904772 133.081287 
L 518.41703 133.081287 
L 526.929288 133.081287 
L 535.441546 133.081287 
L 543.953804 133.081287 
L 552.466062 133.081287 
L 560.97832 133.081287 
L 569.490578 133.081287 
L 578.002836 133.081287 
L 586.515094 133.081287 
L 595.027352 133.081287 
L 603.53961 133.081287 
L 612.051868 133.081287 
L 620.564126 133.081287 
L 629.076384 133.081287 
L 637.588642 133.081287 
L 646.1009 133.081287 
L 654.613158 133.081287 
L 663.125416 133.081287 
L 671.637674 133.081287 
L 680.149932 133.081287 
L 688.66219 133.081287 
L 697.174448 133.081287 
L 705.686706 133.081287 
L 714.198964 133.081287 
L 722.711222 133.081287 
L 731.22348 133.081287 
L 739.735738 133.081287 
L 748.247996 133.081287 
L 756.760254 133.081287 
L 765.272512 133.081287 
L 773.78477 133.081287 
L 782.297028 133.081287 
L 790.809286 133.081287 
L 799.321544 133.081287 
L 807.833802 133.081287 
L 816.34606 133.081287 
L 824.858318 133.081287 
L 833.370576 133.081287 
L 841.882834 133.081287 
L 850.395092 133.081287 
L 858.90735 133.081287 
L 867.419608 133.081287 
L 875.931866 133.081287 
L 884.444124 133.081287 
L 892.956382 133.081287 
" clip-path="url(#p6839a3db49)" style="fill: none; stroke: #637939; stroke-width: 2; stroke-linecap: round"/>
   </g>
   <g id="line2d_32">
    <path d="M 41.730582 182.834317 
L 50.24284 182.834317 
L 58.755098 182.834317 
L 67.267356 182.834317 
L 75.779614 182.834317 
L 84.291872 182.834317 
L 92.80413 182.834317 
L 101.316388 182.834317 
L 109.828646 182.834317 
L 118.340904 182.834317 
L 126.853162 182.834317 
L 135.36542 182.834317 
L 143.877678 182.834317 
L 152.389936 182.834317 
L 160.902194 182.834317 
L 169.414452 182.834317 
L 177.92671 182.834317 
L 186.438968 182.834317 
L 194.951226 182.834317 
L 203.463484 182.834317 
L 211.975742 182.834317 
L 220.488 182.834317 
L 229.000258 182.834317 
L 237.512516 182.834317 
L 246.024774 182.834317 
L 254.537032 182.834317 
L 263.04929 182.834317 
L 271.561548 182.834317 
L 280.073806 182.834317 
L 288.586064 182.834317 
L 297.098322 182.834317 
L 305.61058 182.834317 
L 314.122838 182.834317 
L 322.635096 182.834317 
L 331.147354 182.834317 
L 339.659612 182.834317 
L 348.17187 182.834317 
L 356.684128 182.834317 
L 365.196386 182.834317 
L 373.708644 182.834317 
L 382.220902 182.834317 
L 390.73316 182.834317 
L 399.245418 182.834317 
L 407.757676 182.834317 
L 416.269934 182.834317 
L 424.782192 182.834317 
L 433.29445 182.834317 
L 441.806708 182.834317 
L 450.318966 182.834317 
L 458.831224 182.834317 
L 467.343482 182.834317 
L 475.85574 182.834317 
L 484.367998 182.834317 
L 492.880256 182.834317 
L 501.392514 182.834317 
L 509.904772 182.834317 
L 518.41703 182.834317 
L 526.929288 182.834317 
L 535.441546 182.834317 
L 543.953804 182.834317 
L 552.466062 182.834317 
L 560.97832 182.834317 
L 569.490578 182.834317 
L 578.002836 182.834317 
L 586.515094 182.834317 
L 595.027352 182.834317 
L 603.53961 182.834317 
L 612.051868 182.834317 
L 620.564126 182.834317 
L 629.076384 182.834317 
L 637.588642 182.834317 
L 646.1009 182.834317 
L 654.613158 182.834317 
L 663.125416 182.834317 
L 671.637674 182.834317 
L 680.149932 182.834317 
L 688.66219 182.834317 
L 697.174448 182.834317 
L 705.686706 182.834317 
L 714.198964 182.834317 
L 722.711222 182.834317 
L 731.22348 182.834317 
L 739.735738 182.834317 
L 748.247996 182.834317 
L 756.760254 182.834317 
L 765.272512 182.834317 
L 773.78477 182.834317 
L 782.297028 182.834317 
L 790.809286 182.834317 
L 799.321544 182.834317 
L 807.833802 182.834317 
L 816.34606 182.834317 
L 824.858318 182.834317 
L 833.370576 182.834317 
L 841.882834 182.834317 
L 850.395092 182.834317 
L 858.90735 182.834317 
L 867.419608 182.834317 
L 875.931866 182.834317 
L 884.444124 182.834317 
L 892.956382 182.834317 
" clip-path="url(#p6839a3db49)" style="fill: none; stroke: #b5cf6b; stroke-width: 2; stroke-linecap: round"/>
   </g>
   <g id="line2d_33">
    <path d="M 41.730582 288.614748 
L 50.24284 288.614748 
L 58.755098 288.614748 
L 67.267356 288.614748 
L 75.779614 288.614748 
L 84.291872 288.614748 
L 92.80413 288.614748 
L 101.316388 288.614748 
L 109.828646 288.614748 
L 118.340904 288.614748 
L 126.853162 288.614748 
L 135.36542 288.614748 
L 143.877678 288.614748 
L 152.389936 288.614748 
L 160.902194 288.614748 
L 169.414452 288.614748 
L 177.92671 288.614748 
L 186.438968 288.614748 
L 194.951226 288.614748 
L 203.463484 288.614748 
L 211.975742 288.614748 
L 220.488 288.614748 
L 229.000258 288.614748 
L 237.512516 288.614748 
L 246.024774 288.614748 
L 254.537032 288.614748 
L 263.04929 288.614748 
L 271.561548 288.614748 
L 280.073806 288.614748 
L 288.586064 288.614748 
L 297.098322 288.614748 
L 305.61058 288.614748 
L 314.122838 288.614748 
L 322.635096 288.614748 
L 331.147354 288.614748 
L 339.659612 288.614748 
L 348.17187 288.614748 
L 356.684128 288.614748 
L 365.196386 288.614748 
L 373.708644 288.614748 
L 382.220902 288.614748 
L 390.73316 288.614748 
L 399.245418 288.614748 
L 407.757676 288.614748 
L 416.269934 288.614748 
L 424.782192 288.614748 
L 433.29445 288.614748 
L 441.806708 288.614748 
L 450.318966 288.614748 
L 458.831224 288.614748 
L 467.343482 288.614748 
L 475.85574 288.614748 
L 484.367998 288.614748 
L 492.880256 288.614748 
L 501.392514 288.614748 
L 509.904772 288.614748 
L 518.41703 288.614748 
L 526.929288 288.614748 
L 535.441546 288.614748 
L 543.953804 288.614748 
L 552.466062 288.614748 
L 560.97832 288.614748 
L 569.490578 288.614748 
L 578.002836 288.614748 
L 586.515094 288.614748 
L 595.027352 288.614748 
L 603.53961 288.614748 
L 612.051868 288.614748 
L 620.564126 288.614748 
L 629.076384 288.614748 
L 637.588642 288.614748 
L 646.1009 288.614748 
L 654.613158 288.614748 
L 663.125416 288.614748 
L 671.637674 288.614748 
L 680.149932 288.614748 
L 688.66219 288.614748 
L 697.174448 288.614748 
L 705.686706 288.614748 
L 714.198964 288.614748 
L 722.711222 288.614748 
L 731.22348 288.614748 
L 739.735738 288.614748 
L 748.247996 288.614748 
L 756.760254 288.614748 
L 765.272512 288.614748 
L 773.78477 288.614748 
L 782.297028 288.614748 
L 790.809286 288.614748 
L 799.321544 288.614748 
L 807.833802 288.614748 
L 816.34606 288.614748 
L 824.858318 288.614748 
L 833.370576 288.614748 
L 841.882834 288.614748 
L 850.395092 288.614748 
L 858.90735 288.614748 
L 867.419608 288.614748 
L 875.931866 288.614748 
L 884.444124 288.614748 
L 892.956382 288.614748 
" clip-path="url(#p6839a3db49)" style="fill: none; stroke: #8c6d31; stroke-width: 2; stroke-linecap: round"/>
   </g>
   <g id="line2d_34">
    <path d="M 41.730582 385.872834 
L 50.24284 385.872834 
L 58.755098 385.872834 
L 67.267356 385.872834 
L 75.779614 385.872834 
L 84.291872 385.872834 
L 92.80413 385.872834 
L 101.316388 385.872834 
L 109.828646 385.872834 
L 118.340904 385.872834 
L 126.853162 385.872834 
L 135.36542 385.872834 
L 143.877678 385.872834 
L 152.389936 385.872834 
L 160.902194 385.872834 
L 169.414452 385.872834 
L 177.92671 385.872834 
L 186.438968 385.872834 
L 194.951226 385.872834 
L 203.463484 385.872834 
L 211.975742 385.872834 
L 220.488 385.872834 
L 229.000258 385.872834 
L 237.512516 385.872834 
L 246.024774 385.872834 
L 254.537032 385.872834 
L 263.04929 385.872834 
L 271.561548 385.872834 
L 280.073806 385.872834 
L 288.586064 385.872834 
L 297.098322 385.872834 
L 305.61058 385.872834 
L 314.122838 385.872834 
L 322.635096 385.872834 
L 331.147354 385.872834 
L 339.659612 385.872834 
L 348.17187 385.872834 
L 356.684128 385.872834 
L 365.196386 385.872834 
L 373.708644 385.872834 
L 382.220902 385.872834 
L 390.73316 385.872834 
L 399.245418 385.872834 
L 407.757676 385.872834 
L 416.269934 385.872834 
L 424.782192 385.872834 
L 433.29445 385.872834 
L 441.806708 385.872834 
L 450.318966 385.872834 
L 458.831224 385.872834 
L 467.343482 385.872834 
L 475.85574 385.872834 
L 484.367998 385.872834 
L 492.880256 385.872834 
L 501.392514 385.872834 
L 509.904772 385.872834 
L 518.41703 385.872834 
L 526.929288 385.872834 
L 535.441546 385.872834 
L 543.953804 385.872834 
L 552.466062 385.872834 
L 560.97832 385.872834 
L 569.490578 385.872834 
L 578.002836 385.872834 
L 586.515094 385.872834 
L 595.027352 385.872834 
L 603.53961 385.872834 
L 612.051868 385.872834 
L 620.564126 385.872834 
L 629.076384 385.872834 
L 637.588642 385.872834 
L 646.1009 385.872834 
L 654.613158 385.872834 
L 663.125416 385.872834 
L 671.637674 385.872834 
L 680.149932 385.872834 
L 688.66219 385.872834 
L 697.174448 385.872834 
L 705.686706 385.872834 
L 714.198964 385.872834 
L 722.711222 385.872834 
L 731.22348 385.872834 
L 739.735738 385.872834 
L 748.247996 385.872834 
L 756.760254 385.872834 
L 765.272512 385.872834 
L 773.78477 385.872834 
L 782.297028 385.872834 
L 790.809286 385.872834 
L 799.321544 385.872834 
L 807.833802 385.872834 
L 816.34606 385.872834 
L 824.858318 385.872834 
L 833.370576 385.872834 
L 841.882834 385.872834 
L 850.395092 385.872834 
L 858.90735 385.872834 
L 867.419608 385.872834 
L 875.931866 385.872834 
L 884.444124 385.872834 
L 892.956382 385.872834 
" clip-path="url(#p6839a3db49)" style="fill: none; stroke: #e7cb94; stroke-width: 2; stroke-linecap: round"/>
   </g>
   <g id="line2d_35">
    <path d="M 41.730582 437.592552 
L 50.24284 437.592552 
L 58.755098 437.592552 
L 67.267356 437.592552 
L 75.779614 437.592552 
L 84.291872 437.592552 
L 92.80413 437.592552 
L 101.316388 437.592552 
L 109.828646 437.592552 
L 118.340904 437.592552 
L 126.853162 437.592552 
L 135.36542 437.592552 
L 143.877678 437.592552 
L 152.389936 437.592552 
L 160.902194 437.592552 
L 169.414452 437.592552 
L 177.92671 437.592552 
L 186.438968 437.592552 
L 194.951226 437.592552 
L 203.463484 437.592552 
L 211.975742 437.592552 
L 220.488 437.592552 
L 229.000258 437.592552 
L 237.512516 437.592552 
L 246.024774 437.592552 
L 254.537032 437.592552 
L 263.04929 437.592552 
L 271.561548 437.592552 
L 280.073806 437.592552 
L 288.586064 437.592552 
L 297.098322 437.592552 
L 305.61058 437.592552 
L 314.122838 437.592552 
L 322.635096 437.592552 
L 331.147354 437.592552 
L 339.659612 437.592552 
L 348.17187 437.592552 
L 356.684128 437.592552 
L 365.196386 437.592552 
L 373.708644 437.592552 
L 382.220902 437.592552 
L 390.73316 437.592552 
L 399.245418 437.592552 
L 407.757676 437.592552 
L 416.269934 437.592552 
L 424.782192 437.592552 
L 433.29445 437.592552 
L 441.806708 437.592552 
L 450.318966 437.592552 
L 458.831224 437.592552 
L 467.343482 437.592552 
L 475.85574 437.592552 
L 484.367998 437.592552 
L 492.880256 437.592552 
L 501.392514 437.592552 
L 509.904772 437.592552 
L 518.41703 437.592552 
L 526.929288 437.592552 
L 535.441546 437.592552 
L 543.953804 437.592552 
L 552.466062 437.592552 
L 560.97832 437.592552 
L 569.490578 437.592552 
L 578.002836 437.592552 
L 586.515094 437.592552 
L 595.027352 437.592552 
L 603.53961 437.592552 
L 612.051868 437.592552 
L 620.564126 437.592552 
L 629.076384 437.592552 
L 637.588642 437.592552 
L 646.1009 437.592552 
L 654.613158 437.592552 
L 663.125416 437.592552 
L 671.637674 437.592552 
L 680.149932 437.592552 
L 688.66219 437.592552 
L 697.174448 437.592552 
L 705.686706 437.592552 
L 714.198964 437.592552 
L 722.711222 437.592552 
L 731.22348 437.592552 
L 739.735738 437.592552 
L 748.247996 437.592552 
L 756.760254 437.592552 
L 765.272512 437.592552 
L 773.78477 437.592552 
L 782.297028 437.592552 
L 790.809286 437.592552 
L 799.321544 437.592552 
L 807.833802 437.592552 
L 816.34606 437.592552 
L 824.858318 437.592552 
L 833.370576 437.592552 
L 841.882834 437.592552 
L 850.395092 437.592552 
L 858.90735 437.592552 
L 867.419608 437.592552 
L 875.931866 437.592552 
L 884.444124 437.592552 
L 892.956382 437.592552 
" clip-path="url(#p6839a3db49)" style="fill: none; stroke: #ad494a; stroke-width: 2; stroke-linecap: round"/>
   </g>
   <g id="line2d_36">
    <path d="M 41.730582 467.976595 
L 50.24284 467.976595 
L 58.755098 467.976595 
L 67.267356 467.976595 
L 75.779614 467.976595 
L 84.291872 467.976595 
L 92.80413 467.976595 
L 101.316388 467.976595 
L 109.828646 467.976595 
L 118.340904 467.976595 
L 126.853162 467.976595 
L 135.36542 467.976595 
L 143.877678 467.976595 
L 152.389936 467.976595 
L 160.902194 467.976595 
L 169.414452 467.976595 
L 177.92671 467.976595 
L 186.438968 467.976595 
L 194.951226 467.976595 
L 203.463484 467.976595 
L 211.975742 467.976595 
L 220.488 467.976595 
L 229.000258 467.976595 
L 237.512516 467.976595 
L 246.024774 467.976595 
L 254.537032 467.976595 
L 263.04929 467.976595 
L 271.561548 467.976595 
L 280.073806 467.976595 
L 288.586064 467.976595 
L 297.098322 467.976595 
L 305.61058 467.976595 
L 314.122838 467.976595 
L 322.635096 467.976595 
L 331.147354 467.976595 
L 339.659612 467.976595 
L 348.17187 467.976595 
L 356.684128 467.976595 
L 365.196386 467.976595 
L 373.708644 467.976595 
L 382.220902 467.976595 
L 390.73316 467.976595 
L 399.245418 467.976595 
L 407.757676 467.976595 
L 416.269934 467.976595 
L 424.782192 467.976595 
L 433.29445 467.976595 
L 441.806708 467.976595 
L 450.318966 467.976595 
L 458.831224 467.976595 
L 467.343482 467.976595 
L 475.85574 467.976595 
L 484.367998 467.976595 
L 492.880256 467.976595 
L 501.392514 467.976595 
L 509.904772 467.976595 
L 518.41703 467.976595 
L 526.929288 467.976595 
L 535.441546 467.976595 
L 543.953804 467.976595 
L 552.466062 467.976595 
L 560.97832 467.976595 
L 569.490578 467.976595 
L 578.002836 467.976595 
L 586.515094 467.976595 
L 595.027352 467.976595 
L 603.53961 467.976595 
L 612.051868 467.976595 
L 620.564126 467.976595 
L 629.076384 467.976595 
L 637.588642 467.976595 
L 646.1009 467.976595 
L 654.613158 467.976595 
L 663.125416 467.976595 
L 671.637674 467.976595 
L 680.149932 467.976595 
L 688.66219 467.976595 
L 697.174448 467.976595 
L 705.686706 467.976595 
L 714.198964 467.976595 
L 722.711222 467.976595 
L 731.22348 467.976595 
L 739.735738 467.976595 
L 748.247996 467.976595 
L 756.760254 467.976595 
L 765.272512 467.976595 
L 773.78477 467.976595 
L 782.297028 467.976595 
L 790.809286 467.976595 
L 799.321544 467.976595 
L 807.833802 467.976595 
L 816.34606 467.976595 
L 824.858318 467.976595 
L 833.370576 467.976595 
L 841.882834 467.976595 
L 850.395092 467.976595 
L 858.90735 467.976595 
L 867.419608 467.976595 
L 875.931866 467.976595 
L 884.444124 467.976595 
L 892.956382 467.976595 
" clip-path="url(#p6839a3db49)" style="fill: none; stroke: #e7969c; stroke-width: 2; stroke-linecap: round"/>
   </g>
   <g id="line2d_37">
    <path d="M 41.730582 486.912764 
L 50.24284 486.912764 
L 58.755098 486.912764 
L 67.267356 486.912764 
L 75.779614 486.912764 
L 84.291872 486.912764 
L 92.80413 486.912764 
L 101.316388 486.912764 
L 109.828646 486.912764 
L 118.340904 486.912764 
L 126.853162 486.912764 
L 135.36542 486.912764 
L 143.877678 486.912764 
L 152.389936 486.912764 
L 160.902194 486.912764 
L 169.414452 486.912764 
L 177.92671 486.912764 
L 186.438968 486.912764 
L 194.951226 486.912764 
L 203.463484 486.912764 
L 211.975742 486.912764 
L 220.488 486.912764 
L 229.000258 486.912764 
L 237.512516 486.912764 
L 246.024774 486.912764 
L 254.537032 486.912764 
L 263.04929 486.912764 
L 271.561548 486.912764 
L 280.073806 486.912764 
L 288.586064 486.912764 
L 297.098322 486.912764 
L 305.61058 486.912764 
L 314.122838 486.912764 
L 322.635096 486.912764 
L 331.147354 486.912764 
L 339.659612 486.912764 
L 348.17187 486.912764 
L 356.684128 486.912764 
L 365.196386 486.912764 
L 373.708644 486.912764 
L 382.220902 486.912764 
L 390.73316 486.912764 
L 399.245418 486.912764 
L 407.757676 486.912764 
L 416.269934 486.912764 
L 424.782192 486.912764 
L 433.29445 486.912764 
L 441.806708 486.912764 
L 450.318966 486.912764 
L 458.831224 486.912764 
L 467.343482 486.912764 
L 475.85574 486.912764 
L 484.367998 486.912764 
L 492.880256 486.912764 
L 501.392514 486.912764 
L 509.904772 486.912764 
L 518.41703 486.912764 
L 526.929288 486.912764 
L 535.441546 486.912764 
L 543.953804 486.912764 
L 552.466062 486.912764 
L 560.97832 486.912764 
L 569.490578 486.912764 
L 578.002836 486.912764 
L 586.515094 486.912764 
L 595.027352 486.912764 
L 603.53961 486.912764 
L 612.051868 486.912764 
L 620.564126 486.912764 
L 629.076384 486.912764 
L 637.588642 486.912764 
L 646.1009 486.912764 
L 654.613158 486.912764 
L 663.125416 486.912764 
L 671.637674 486.912764 
L 680.149932 486.912764 
L 688.66219 486.912764 
L 697.174448 486.912764 
L 705.686706 486.912764 
L 714.198964 486.912764 
L 722.711222 486.912764 
L 731.22348 486.912764 
L 739.735738 486.912764 
L 748.247996 486.912764 
L 756.760254 486.912764 
L 765.272512 486.912764 
L 773.78477 486.912764 
L 782.297028 486.912764 
L 790.809286 486.912764 
L 799.321544 486.912764 
L 807.833802 486.912764 
L 816.34606 486.912764 
L 824.858318 486.912764 
L 833.370576 486.912764 
L 841.882834 486.912764 
L 850.395092 486.912764 
L 858.90735 486.912764 
L 867.419608 486.912764 
L 875.931866 486.912764 
L 884.444124 486.912764 
L 892.956382 486.912764 
" clip-path="url(#p6839a3db49)" style="fill: none; stroke: #a55194; stroke-width: 2; stroke-linecap: round"/>
   </g>
   <g id="line2d_38">
    <path d="M 41.730582 498.471574 
L 50.24284 498.471574 
L 58.755098 498.471574 
L 67.267356 498.471574 
L 75.779614 498.471574 
L 84.291872 498.471574 
L 92.80413 498.471574 
L 101.316388 498.471574 
L 109.828646 498.471574 
L 118.340904 498.471574 
L 126.853162 498.471574 
L 135.36542 498.471574 
L 143.877678 498.471574 
L 152.389936 498.471574 
L 160.902194 498.471574 
L 169.414452 498.471574 
L 177.92671 498.471574 
L 186.438968 498.471574 
L 194.951226 498.471574 
L 203.463484 498.471574 
L 211.975742 498.471574 
L 220.488 498.471574 
L 229.000258 498.471574 
L 237.512516 498.471574 
L 246.024774 498.471574 
L 254.537032 498.471574 
L 263.04929 498.471574 
L 271.561548 498.471574 
L 280.073806 498.471574 
L 288.586064 498.471574 
L 297.098322 498.471574 
L 305.61058 498.471574 
L 314.122838 498.471574 
L 322.635096 498.471574 
L 331.147354 498.471574 
L 339.659612 498.471574 
L 348.17187 498.471574 
L 356.684128 498.471574 
L 365.196386 498.471574 
L 373.708644 498.471574 
L 382.220902 498.471574 
L 390.73316 498.471574 
L 399.245418 498.471574 
L 407.757676 498.471574 
L 416.269934 498.471574 
L 424.782192 498.471574 
L 433.29445 498.471574 
L 441.806708 498.471574 
L 450.318966 498.471574 
L 458.831224 498.471574 
L 467.343482 498.471574 
L 475.85574 498.471574 
L 484.367998 498.471574 
L 492.880256 498.471574 
L 501.392514 498.471574 
L 509.904772 498.471574 
L 518.41703 498.471574 
L 526.929288 498.471574 
L 535.441546 498.471574 
L 543.953804 498.471574 
L 552.466062 498.471574 
L 560.97832 498.471574 
L 569.490578 498.471574 
L 578.002836 498.471574 
L 586.515094 498.471574 
L 595.027352 498.471574 
L 603.53961 498.471574 
L 612.051868 498.471574 
L 620.564126 498.471574 
L 629.076384 498.471574 
L 637.588642 498.471574 
L 646.1009 498.471574 
L 654.613158 498.471574 
L 663.125416 498.471574 
L 671.637674 498.471574 
L 680.149932 498.471574 
L 688.66219 498.471574 
L 697.174448 498.471574 
L 705.686706 498.471574 
L 714.198964 498.471574 
L 722.711222 498.471574 
L 731.22348 498.471574 
L 739.735738 498.471574 
L 748.247996 498.471574 
L 756.760254 498.471574 
L 765.272512 498.471574 
L 773.78477 498.471574 
L 782.297028 498.471574 
L 790.809286 498.471574 
L 799.321544 498.471574 
L 807.833802 498.471574 
L 816.34606 498.471574 
L 824.858318 498.471574 
L 833.370576 498.471574 
L 841.882834 498.471574 
L 850.395092 498.471574 
L 858.90735 498.471574 
L 867.419608 498.471574 
L 875.931866 498.471574 
L 884.444124 498.471574 
L 892.956382 498.471574 
" clip-path="url(#p6839a3db49)" style="fill: none; stroke: #de9ed6; stroke-width: 2; stroke-linecap: round"/>
   </g>
   <g id="patch_3">
    <path d="M 41.730582 521.153031 
L 41.730582 51.564121 
" style="fill: none"/>
   </g>
   <g id="patch_4">
    <path d="M 935.517672 521.153031 
L 935.517672 51.564121 
" style="fill: none"/>
   </g>
   <g id="patch_5">
    <path d="M 41.730582 521.153031 
L 935.517672 521.153031 
" style="fill: none"/>
   </g>
   <g id="patch_6">
    <path d="M 41.730582 51.564121 
L 935.517672 51.564121 
" style="fill: none"/>
   </g>
   <g id="patch_7">
    <path d="M 467.343482 84.81032 
Q 467.343482 283.169865 467.343482 479.85236 
" style="fill: none; stroke: #000000; stroke-width: 1.5; stroke-linecap: round"/>
    <path d="M 470.543482 473.45236 
L 467.343482 479.85236 
L 464.143482 473.45236 
" style="fill: none; stroke: #000000; stroke-width: 1.5; stroke-linecap: round"/>
   </g>
   <g id="text_16">
    <!-- Time -->
    <g style="fill: #262626" transform="translate(488.624127 480.039924) scale(0.18 -0.18)">
     <defs>
      <path id="CMR17-54" d="M 3981 4326 
L 288 4326 
L 179 2918 
L 294 2918 
C 378 3976 467 4160 1453 4160 
C 1568 4160 1754 4160 1805 4154 
C 1926 4135 1926 4058 1926 3912 
L 1926 459 
C 1926 230 1907 160 1376 160 
L 1197 160 
L 1197 0 
C 1504 0 1824 0 2138 0 
C 2451 0 2771 0 3078 0 
L 3078 160 
L 2899 160 
C 2368 160 2349 230 2349 459 
L 2349 3912 
C 2349 4052 2349 4129 2464 4154 
C 2515 4160 2701 4160 2816 4160 
C 3795 4160 3891 3976 3974 2918 
L 4090 2918 
L 3981 4326 
z
" transform="scale(0.015625)"/>
      <path id="CMR17-69" d="M 992 3909 
C 992 4049 877 4170 730 4170 
C 589 4170 467 4056 467 3909 
C 467 3769 582 3648 730 3648 
C 870 3648 992 3763 992 3909 
z
M 243 2706 
L 243 2541 
C 602 2541 653 2502 653 2197 
L 653 427 
C 653 184 627 153 218 153 
L 218 -13 
C 371 0 646 0 806 0 
C 960 0 1222 0 1370 -13 
L 1370 153 
C 992 153 979 191 979 420 
L 979 2776 
L 243 2706 
z
" transform="scale(0.015625)"/>
      <path id="CMR17-6d" d="M 4326 1933 
C 4326 2252 4269 2790 3507 2790 
C 3072 2790 2771 2496 2656 2151 
L 2650 2151 
C 2573 2676 2195 2790 1837 2790 
C 1331 2790 1069 2400 973 2144 
L 966 2144 
L 966 2790 
L 211 2720 
L 211 2554 
C 589 2554 646 2515 646 2208 
L 646 428 
C 646 184 621 153 211 153 
L 211 -13 
C 365 0 646 0 813 0 
C 979 0 1267 0 1421 -13 
L 1421 153 
C 1011 153 986 178 986 428 
L 986 1658 
C 986 2247 1344 2688 1792 2688 
C 2266 2688 2317 2266 2317 1958 
L 2317 428 
C 2317 184 2291 153 1882 153 
L 1882 -13 
C 2035 0 2317 0 2483 0 
C 2650 0 2938 0 3091 -13 
L 3091 153 
C 2682 153 2656 178 2656 428 
L 2656 1658 
C 2656 2247 3014 2688 3462 2688 
C 3936 2688 3987 2266 3987 1958 
L 3987 428 
C 3987 184 3962 153 3552 153 
L 3552 -13 
C 3706 0 3987 0 4154 0 
C 4320 0 4608 0 4762 -13 
L 4762 153 
C 4352 153 4326 178 4326 428 
L 4326 1933 
z
" transform="scale(0.015625)"/>
      <path id="CMR17-65" d="M 2438 1472 
C 2464 1498 2464 1511 2464 1576 
C 2464 2238 2118 2816 1389 2816 
C 710 2816 173 2169 173 1383 
C 173 551 781 -64 1459 -64 
C 2176 -64 2458 607 2458 740 
C 2458 784 2419 784 2406 784 
C 2362 784 2355 771 2330 696 
C 2189 265 1837 51 1504 51 
C 1229 51 954 203 781 480 
C 582 803 582 1176 582 1472 
L 2438 1472 
z
M 589 1568 
C 634 2505 1126 2714 1382 2714 
C 1818 2714 2112 2297 2118 1568 
L 589 1568 
z
" transform="scale(0.015625)"/>
     </defs>
     <use xlink:href="#CMR17-54" transform="scale(0.996264)"/>
     <use xlink:href="#CMR17-69" transform="translate(66.509881 0) scale(0.996264)"/>
     <use xlink:href="#CMR17-6d" transform="translate(91.380939 0) scale(0.996264)"/>
     <use xlink:href="#CMR17-65" transform="translate(168.300529 0) scale(0.996264)"/>
    </g>
   </g>
   <g id="legend_1">
    <g id="line2d_39">
     <path d="M 948.117672 197.198434 
L 962.117672 197.198434 
L 976.117672 197.198434 
" style="fill: none; stroke: #393b79; stroke-width: 2; stroke-linecap: round"/>
    </g>
    <g id="text_17">
     <!-- t = 0.00 -->
     <g style="fill: #262626" transform="translate(987.317672 202.098434) scale(0.14 -0.14)">
      <defs>
       <path id="CMR17-74" d="M 966 2560 
L 1862 2560 
L 1862 2725 
L 966 2725 
L 966 3904 
L 851 3904 
C 838 3245 614 2668 70 2668 
L 70 2560 
L 627 2560 
L 627 771 
C 627 650 627 -64 1370 -64 
C 1747 -64 1965 306 1965 777 
L 1965 1140 
L 1850 1140 
L 1850 783 
C 1850 344 1677 51 1408 51 
C 1222 51 966 178 966 758 
L 966 2560 
z
" transform="scale(0.015625)"/>
       <path id="CMR17-3d" d="M 4115 2017 
C 4211 2017 4307 2017 4307 2125 
C 4307 2240 4198 2240 4090 2240 
L 512 2240 
C 403 2240 294 2240 294 2125 
C 294 2017 390 2017 486 2017 
L 4115 2017 
z
M 4090 896 
C 4198 896 4307 896 4307 1011 
C 4307 1119 4211 1119 4115 1119 
L 486 1119 
C 390 1119 294 1119 294 1011 
C 294 896 403 896 512 896 
L 4090 896 
z
" transform="scale(0.015625)"/>
       <path id="CMR17-2e" d="M 1062 261 
C 1062 420 934 522 800 522 
C 672 522 538 420 538 261 
C 538 102 666 0 800 0 
C 928 0 1062 102 1062 261 
z
" transform="scale(0.015625)"/>
      </defs>
      <use xlink:href="#CMR17-74" transform="scale(0.996264)"/>
      <use xlink:href="#CMR17-3d" transform="translate(65.356734 0) scale(0.996264)"/>
      <use xlink:href="#CMR17-30" transform="translate(167.147489 0) scale(0.996264)"/>
      <use xlink:href="#CMR17-2e" transform="translate(212.837966 0) scale(0.996264)"/>
      <use xlink:href="#CMR17-30" transform="translate(237.709025 0) scale(0.996264)"/>
      <use xlink:href="#CMR17-30" transform="translate(283.399502 0) scale(0.996264)"/>
     </g>
    </g>
    <g id="line2d_40">
     <path d="M 948.117672 216.710462 
L 962.117672 216.710462 
L 976.117672 216.710462 
" style="fill: none; stroke: #6b6ecf; stroke-width: 2; stroke-linecap: round"/>
    </g>
    <g id="text_18">
     <!-- t = 10.00 -->
     <g style="fill: #262626" transform="translate(987.317672 221.610462) scale(0.14 -0.14)">
      <use xlink:href="#CMR17-74" transform="scale(0.996264)"/>
      <use xlink:href="#CMR17-3d" transform="translate(65.356734 0) scale(0.996264)"/>
      <use xlink:href="#CMR17-31" transform="translate(167.147489 0) scale(0.996264)"/>
      <use xlink:href="#CMR17-30" transform="translate(212.837966 0) scale(0.996264)"/>
      <use xlink:href="#CMR17-2e" transform="translate(258.528443 0) scale(0.996264)"/>
      <use xlink:href="#CMR17-30" transform="translate(283.399502 0) scale(0.996264)"/>
      <use xlink:href="#CMR17-30" transform="translate(329.089979 0) scale(0.996264)"/>
     </g>
    </g>
    <g id="line2d_41">
     <path d="M 948.117672 236.222491 
L 962.117672 236.222491 
L 976.117672 236.222491 
" style="fill: none; stroke: #637939; stroke-width: 2; stroke-linecap: round"/>
    </g>
    <g id="text_19">
     <!-- t = 50.00 -->
     <g style="fill: #262626" transform="translate(987.317672 241.122491) scale(0.14 -0.14)">
      <use xlink:href="#CMR17-74" transform="scale(0.996264)"/>
      <use xlink:href="#CMR17-3d" transform="translate(65.356734 0) scale(0.996264)"/>
      <use xlink:href="#CMR17-35" transform="translate(167.147489 0) scale(0.996264)"/>
      <use xlink:href="#CMR17-30" transform="translate(212.837966 0) scale(0.996264)"/>
      <use xlink:href="#CMR17-2e" transform="translate(258.528443 0) scale(0.996264)"/>
      <use xlink:href="#CMR17-30" transform="translate(283.399502 0) scale(0.996264)"/>
      <use xlink:href="#CMR17-30" transform="translate(329.089979 0) scale(0.996264)"/>
     </g>
    </g>
    <g id="line2d_42">
     <path d="M 948.117672 255.734519 
L 962.117672 255.734519 
L 976.117672 255.734519 
" style="fill: none; stroke: #b5cf6b; stroke-width: 2; stroke-linecap: round"/>
    </g>
    <g id="text_20">
     <!-- t = 100.00 -->
     <g style="fill: #262626" transform="translate(987.317672 260.634519) scale(0.14 -0.14)">
      <use xlink:href="#CMR17-74" transform="scale(0.996264)"/>
      <use xlink:href="#CMR17-3d" transform="translate(65.356734 0) scale(0.996264)"/>
      <use xlink:href="#CMR17-31" transform="translate(167.147489 0) scale(0.996264)"/>
      <use xlink:href="#CMR17-30" transform="translate(212.837966 0) scale(0.996264)"/>
      <use xlink:href="#CMR17-30" transform="translate(258.528443 0) scale(0.996264)"/>
      <use xlink:href="#CMR17-2e" transform="translate(304.21892 0) scale(0.996264)"/>
      <use xlink:href="#CMR17-30" transform="translate(329.089979 0) scale(0.996264)"/>
      <use xlink:href="#CMR17-30" transform="translate(374.780456 0) scale(0.996264)"/>
     </g>
    </g>
    <g id="line2d_43">
     <path d="M 948.117672 275.246547 
L 962.117672 275.246547 
L 976.117672 275.246547 
" style="fill: none; stroke: #8c6d31; stroke-width: 2; stroke-linecap: round"/>
    </g>
    <g id="text_21">
     <!-- t = 250.00 -->
     <g style="fill: #262626" transform="translate(987.317672 280.146547) scale(0.14 -0.14)">
      <use xlink:href="#CMR17-74" transform="scale(0.996264)"/>
      <use xlink:href="#CMR17-3d" transform="translate(65.356734 0) scale(0.996264)"/>
      <use xlink:href="#CMR17-32" transform="translate(167.147489 0) scale(0.996264)"/>
      <use xlink:href="#CMR17-35" transform="translate(212.837966 0) scale(0.996264)"/>
      <use xlink:href="#CMR17-30" transform="translate(258.528443 0) scale(0.996264)"/>
      <use xlink:href="#CMR17-2e" transform="translate(304.21892 0) scale(0.996264)"/>
      <use xlink:href="#CMR17-30" transform="translate(329.089979 0) scale(0.996264)"/>
      <use xlink:href="#CMR17-30" transform="translate(374.780456 0) scale(0.996264)"/>
     </g>
    </g>
    <g id="line2d_44">
     <path d="M 948.117672 294.758576 
L 962.117672 294.758576 
L 976.117672 294.758576 
" style="fill: none; stroke: #e7cb94; stroke-width: 2; stroke-linecap: round"/>
    </g>
    <g id="text_22">
     <!-- t = 500.00 -->
     <g style="fill: #262626" transform="translate(987.317672 299.658576) scale(0.14 -0.14)">
      <use xlink:href="#CMR17-74" transform="scale(0.996264)"/>
      <use xlink:href="#CMR17-3d" transform="translate(65.356734 0) scale(0.996264)"/>
      <use xlink:href="#CMR17-35" transform="translate(167.147489 0) scale(0.996264)"/>
      <use xlink:href="#CMR17-30" transform="translate(212.837966 0) scale(0.996264)"/>
      <use xlink:href="#CMR17-30" transform="translate(258.528443 0) scale(0.996264)"/>
      <use xlink:href="#CMR17-2e" transform="translate(304.21892 0) scale(0.996264)"/>
      <use xlink:href="#CMR17-30" transform="translate(329.089979 0) scale(0.996264)"/>
      <use xlink:href="#CMR17-30" transform="translate(374.780456 0) scale(0.996264)"/>
     </g>
    </g>
    <g id="line2d_45">
     <path d="M 948.117672 314.270604 
L 962.117672 314.270604 
L 976.117672 314.270604 
" style="fill: none; stroke: #ad494a; stroke-width: 2; stroke-linecap: round"/>
    </g>
    <g id="text_23">
     <!-- t = 750.00 -->
     <g style="fill: #262626" transform="translate(987.317672 319.170604) scale(0.14 -0.14)">
      <use xlink:href="#CMR17-74" transform="scale(0.996264)"/>
      <use xlink:href="#CMR17-3d" transform="translate(65.356734 0) scale(0.996264)"/>
      <use xlink:href="#CMR17-37" transform="translate(167.147489 0) scale(0.996264)"/>
      <use xlink:href="#CMR17-35" transform="translate(212.837966 0) scale(0.996264)"/>
      <use xlink:href="#CMR17-30" transform="translate(258.528443 0) scale(0.996264)"/>
      <use xlink:href="#CMR17-2e" transform="translate(304.21892 0) scale(0.996264)"/>
      <use xlink:href="#CMR17-30" transform="translate(329.089979 0) scale(0.996264)"/>
      <use xlink:href="#CMR17-30" transform="translate(374.780456 0) scale(0.996264)"/>
     </g>
    </g>
    <g id="line2d_46">
     <path d="M 948.117672 333.782633 
L 962.117672 333.782633 
L 976.117672 333.782633 
" style="fill: none; stroke: #e7969c; stroke-width: 2; stroke-linecap: round"/>
    </g>
    <g id="text_24">
     <!-- t = 1000.00 -->
     <g style="fill: #262626" transform="translate(987.317672 338.682633) scale(0.14 -0.14)">
      <use xlink:href="#CMR17-74" transform="scale(0.996264)"/>
      <use xlink:href="#CMR17-3d" transform="translate(65.356734 0) scale(0.996264)"/>
      <use xlink:href="#CMR17-31" transform="translate(167.147489 0) scale(0.996264)"/>
      <use xlink:href="#CMR17-30" transform="translate(212.837966 0) scale(0.996264)"/>
      <use xlink:href="#CMR17-30" transform="translate(258.528443 0) scale(0.996264)"/>
      <use xlink:href="#CMR17-30" transform="translate(304.21892 0) scale(0.996264)"/>
      <use xlink:href="#CMR17-2e" transform="translate(349.909397 0) scale(0.996264)"/>
      <use xlink:href="#CMR17-30" transform="translate(374.780456 0) scale(0.996264)"/>
      <use xlink:href="#CMR17-30" transform="translate(420.470933 0) scale(0.996264)"/>
     </g>
    </g>
    <g id="line2d_47">
     <path d="M 948.117672 353.294661 
L 962.117672 353.294661 
L 976.117672 353.294661 
" style="fill: none; stroke: #a55194; stroke-width: 2; stroke-linecap: round"/>
    </g>
    <g id="text_25">
     <!-- t = 1250.00 -->
     <g style="fill: #262626" transform="translate(987.317672 358.194661) scale(0.14 -0.14)">
      <use xlink:href="#CMR17-74" transform="scale(0.996264)"/>
      <use xlink:href="#CMR17-3d" transform="translate(65.356734 0) scale(0.996264)"/>
      <use xlink:href="#CMR17-31" transform="translate(167.147489 0) scale(0.996264)"/>
      <use xlink:href="#CMR17-32" transform="translate(212.837966 0) scale(0.996264)"/>
      <use xlink:href="#CMR17-35" transform="translate(258.528443 0) scale(0.996264)"/>
      <use xlink:href="#CMR17-30" transform="translate(304.21892 0) scale(0.996264)"/>
      <use xlink:href="#CMR17-2e" transform="translate(349.909397 0) scale(0.996264)"/>
      <use xlink:href="#CMR17-30" transform="translate(374.780456 0) scale(0.996264)"/>
      <use xlink:href="#CMR17-30" transform="translate(420.470933 0) scale(0.996264)"/>
     </g>
    </g>
    <g id="line2d_48">
     <path d="M 948.117672 372.806689 
L 962.117672 372.806689 
L 976.117672 372.806689 
" style="fill: none; stroke: #de9ed6; stroke-width: 2; stroke-linecap: round"/>
    </g>
    <g id="text_26">
     <!-- t = 1500.00 -->
     <g style="fill: #262626" transform="translate(987.317672 377.706689) scale(0.14 -0.14)">
      <use xlink:href="#CMR17-74" transform="scale(0.996264)"/>
      <use xlink:href="#CMR17-3d" transform="translate(65.356734 0) scale(0.996264)"/>
      <use xlink:href="#CMR17-31" transform="translate(167.147489 0) scale(0.996264)"/>
      <use xlink:href="#CMR17-35" transform="translate(212.837966 0) scale(0.996264)"/>
      <use xlink:href="#CMR17-30" transform="translate(258.528443 0) scale(0.996264)"/>
      <use xlink:href="#CMR17-30" transform="translate(304.21892 0) scale(0.996264)"/>
      <use xlink:href="#CMR17-2e" transform="translate(349.909397 0) scale(0.996264)"/>
      <use xlink:href="#CMR17-30" transform="translate(374.780456 0) scale(0.996264)"/>
      <use xlink:href="#CMR17-30" transform="translate(420.470933 0) scale(0.996264)"/>
     </g>
    </g>
   </g>
  </g>
  <g id="text_27">
   <!-- Reactivity -->
   <g style="fill: #262626" transform="translate(500.761015 24.803515) scale(0.192 -0.192)">
    <defs>
     <path id="CMR17-52" d="M 2509 2146 
C 3117 2268 3629 2676 3629 3186 
C 3629 3785 2950 4326 2054 4326 
L 333 4326 
L 333 4160 
C 774 4160 845 4160 845 3873 
L 845 415 
C 845 128 774 128 333 128 
L 333 -26 
C 518 -26 851 -26 1050 -26 
C 1248 -26 1581 -26 1766 -26 
L 1766 128 
C 1325 128 1254 128 1254 417 
L 1254 2112 
L 2003 2112 
C 2368 2112 2573 1964 2662 1881 
C 2918 1632 2918 1459 2918 1024 
C 2918 595 2918 377 3110 160 
C 3354 -102 3680 -128 3821 -128 
C 4294 -128 4365 396 4365 503 
C 4365 540 4365 585 4307 585 
C 4256 585 4250 547 4250 522 
C 4218 112 4032 -26 3834 -26 
C 3482 -26 3443 375 3405 764 
C 3386 898 3373 993 3360 1133 
C 3322 1452 3270 1917 2509 2146 
z
M 1984 2214 
L 1254 2214 
L 1254 3913 
C 1254 4129 1267 4160 1523 4160 
L 1990 4160 
C 2522 4160 3142 3977 3142 3190 
C 3142 2372 2464 2214 1984 2214 
z
" transform="scale(0.015625)"/>
     <path id="CMR17-61" d="M 2304 1653 
C 2304 2072 2304 2294 2035 2543 
C 1798 2752 1523 2816 1306 2816 
C 800 2816 435 2407 435 1971 
C 435 1728 627 1728 666 1728 
C 749 1728 896 1778 896 1954 
C 896 2112 774 2181 666 2181 
C 640 2181 608 2174 589 2168 
C 723 2592 1069 2714 1293 2714 
C 1613 2714 1965 2429 1965 1885 
L 1965 1600 
C 1587 1600 1133 1549 774 1357 
C 371 1133 256 813 256 570 
C 256 77 832 -64 1171 -64 
C 1523 -64 1850 139 1990 511 
C 2003 233 2182 -18 2464 -18 
C 2598 -18 2938 70 2938 567 
L 2938 920 
L 2822 920 
L 2822 562 
C 2822 178 2650 128 2566 128 
C 2304 128 2304 458 2304 738 
L 2304 1653 
z
M 1965 870 
C 1965 317 1568 38 1216 38 
C 896 38 646 275 646 570 
C 646 761 730 1100 1101 1305 
C 1408 1478 1760 1504 1965 1504 
L 1965 870 
z
" transform="scale(0.015625)"/>
     <path id="CMR17-63" d="M 2234 2240 
C 2112 2240 1933 2240 1933 2017 
C 1933 1838 2080 1787 2163 1787 
C 2208 1787 2394 1807 2394 2024 
C 2394 2467 1958 2803 1466 2803 
C 787 2803 211 2178 211 1363 
C 211 516 813 -64 1466 -64 
C 2259 -64 2458 677 2458 748 
C 2458 774 2451 793 2406 793 
C 2362 793 2355 787 2330 703 
C 2163 180 1798 51 1523 51 
C 1114 51 621 427 621 1369 
C 621 2338 1094 2688 1472 2688 
C 1722 2688 2093 2573 2234 2240 
z
" transform="scale(0.015625)"/>
     <path id="CMR17-76" d="M 2502 2163 
C 2560 2304 2662 2560 3034 2560 
L 3034 2726 
C 2912 2726 2752 2726 2630 2726 
C 2496 2726 2285 2726 2157 2732 
L 2157 2566 
C 2317 2553 2406 2477 2406 2311 
C 2406 2253 2406 2240 2368 2151 
L 1664 377 
L 902 2286 
C 864 2369 864 2381 864 2407 
C 864 2560 1075 2560 1171 2560 
L 1171 2732 
C 1018 2726 736 2726 576 2726 
C 403 2726 205 2726 64 2732 
L 64 2560 
C 307 2560 442 2560 518 2362 
L 1446 44 
C 1485 -51 1491 -64 1549 -64 
C 1606 -64 1613 -51 1651 44 
L 2502 2163 
z
" transform="scale(0.015625)"/>
     <path id="CMR17-79" d="M 2496 2197 
C 2656 2586 2944 2586 3034 2586 
L 3034 2752 
C 2912 2752 2752 2752 2630 2752 
C 2496 2752 2285 2752 2157 2758 
L 2157 2592 
C 2400 2573 2406 2394 2406 2343 
C 2406 2280 2394 2248 2362 2171 
L 1664 449 
L 902 2306 
C 870 2382 870 2426 870 2433 
C 870 2573 1018 2586 1171 2586 
L 1171 2758 
C 1018 2752 742 2752 582 2752 
C 410 2752 205 2752 64 2758 
L 64 2586 
C 410 2586 448 2554 531 2350 
L 1485 15 
C 1197 -738 1030 -1178 627 -1178 
C 557 -1178 397 -1159 282 -1044 
C 429 -1031 493 -942 493 -833 
C 493 -725 416 -629 288 -629 
C 147 -629 77 -725 77 -840 
C 77 -1095 339 -1280 627 -1280 
C 998 -1280 1229 -922 1357 -604 
L 2496 2197 
z
" transform="scale(0.015625)"/>
    </defs>
    <use xlink:href="#CMR17-52" transform="scale(0.996264)"/>
    <use xlink:href="#CMR17-65" transform="translate(67.791102 0) scale(0.996264)"/>
    <use xlink:href="#CMR17-61" transform="translate(108.276762 0) scale(0.996264)"/>
    <use xlink:href="#CMR17-63" transform="translate(153.96724 0) scale(0.996264)"/>
    <use xlink:href="#CMR17-74" transform="translate(194.4529 0) scale(0.996264)"/>
    <use xlink:href="#CMR17-69" transform="translate(229.733668 0) scale(0.996264)"/>
    <use xlink:href="#CMR17-76" transform="translate(254.604726 0) scale(0.996264)"/>
    <use xlink:href="#CMR17-69" transform="translate(302.897642 0) scale(0.996264)"/>
    <use xlink:href="#CMR17-74" transform="translate(327.768701 0) scale(0.996264)"/>
    <use xlink:href="#CMR17-79" transform="translate(360.447014 0) scale(0.996264)"/>
   </g>
  </g>
 </g>
 <defs>
  <clipPath id="p6839a3db49">
   <rect x="41.730582" y="51.564121" width="893.78709" height="469.58891"/>
  </clipPath>
 </defs>
</svg>
