<?xml version="1.0" encoding="utf-8" standalone="no"?>
<!DOCTYPE svg PUBLIC "-//W3C//DTD SVG 1.1//EN"
  "http://www.w3.org/Graphics/SVG/1.1/DTD/svg11.dtd">
<svg xmlns:xlink="http://www.w3.org/1999/xlink" width="1080pt" height="576pt" viewBox="0 0 1080 576" xmlns="http://www.w3.org/2000/svg" version="1.1">
 <metadata>
  <rdf:RDF xmlns:dc="http://purl.org/dc/elements/1.1/" xmlns:cc="http://creativecommons.org/ns#" xmlns:rdf="http://www.w3.org/1999/02/22-rdf-syntax-ns#">
   <cc:Work>
    <dc:type rdf:resource="http://purl.org/dc/dcmitype/StillImage"/>
    <dc:date>2024-06-28T14:16:22.429975</dc:date>
    <dc:format>image/svg+xml</dc:format>
    <dc:creator>
     <cc:Agent>
      <dc:title>Matplotlib v3.9.0, https://matplotlib.org/</dc:title>
     </cc:Agent>
    </dc:creator>
   </cc:Work>
  </rdf:RDF>
 </metadata>
 <defs>
  <style type="text/css">*{stroke-linejoin: round; stroke-linecap: butt}</style>
 </defs>
 <g id="figure_1">
  <g id="patch_1">
   <path d="M 0 576 
L 1080 576 
L 1080 0 
L 0 0 
z
" style="fill: #ffffff"/>
  </g>
  <g id="axes_1">
   <g id="patch_2">
    <path d="M 48.559071 521.153031 
L 935.517672 521.153031 
L 935.517672 51.564121 
L 48.559071 51.564121 
z
" style="fill: #eaeaf2"/>
   </g>
   <g id="matplotlib.axis_1">
    <g id="xtick_1">
     <g id="line2d_1">
      <path d="M 48.559071 521.153031 
L 48.559071 51.564121 
" clip-path="url(#p73df73b50c)" style="fill: none; stroke: #ffffff; stroke-linecap: round"/>
     </g>
     <g id="line2d_2"/>
     <g id="text_1">
      <!-- $\mathdefault{0.00}$ -->
      <g style="fill: #262626" transform="translate(36.419535 537.838907) scale(0.14 -0.14)">
       <defs>
        <path id="CMR17-30" d="M 2688 2025 
C 2688 2416 2682 3080 2413 3591 
C 2176 4039 1798 4198 1466 4198 
C 1158 4198 768 4058 525 3597 
C 269 3118 243 2524 243 2025 
C 243 1661 250 1106 448 619 
C 723 -39 1216 -128 1466 -128 
C 1760 -128 2208 -7 2470 600 
C 2662 1042 2688 1559 2688 2025 
z
M 1466 -26 
C 1056 -26 813 325 723 812 
C 653 1188 653 1738 653 2096 
C 653 2588 653 2997 736 3387 
C 858 3929 1216 4096 1466 4096 
C 1728 4096 2067 3923 2189 3400 
C 2272 3036 2278 2607 2278 2096 
C 2278 1680 2278 1169 2202 792 
C 2067 95 1690 -26 1466 -26 
z
" transform="scale(0.015625)"/>
        <path id="CMMI12-3a" d="M 1178 307 
C 1178 492 1024 619 870 619 
C 685 619 557 466 557 313 
C 557 128 710 0 864 0 
C 1050 0 1178 153 1178 307 
z
" transform="scale(0.015625)"/>
       </defs>
       <use xlink:href="#CMR17-30" transform="scale(0.996264)"/>
       <use xlink:href="#CMMI12-3a" transform="translate(45.690477 0) scale(0.996264)"/>
       <use xlink:href="#CMR17-30" transform="translate(72.787654 0) scale(0.996264)"/>
       <use xlink:href="#CMR17-30" transform="translate(118.478131 0) scale(0.996264)"/>
      </g>
     </g>
    </g>
    <g id="xtick_2">
     <g id="line2d_3">
      <path d="M 154.14938 521.153031 
L 154.14938 51.564121 
" clip-path="url(#p73df73b50c)" style="fill: none; stroke: #ffffff; stroke-linecap: round"/>
     </g>
     <g id="line2d_4"/>
     <g id="text_2">
      <!-- $\mathdefault{0.25}$ -->
      <g style="fill: #262626" transform="translate(142.009845 537.838907) scale(0.14 -0.14)">
       <defs>
        <path id="CMR17-32" d="M 2669 989 
L 2554 989 
C 2490 536 2438 459 2413 420 
C 2381 369 1920 369 1830 369 
L 602 369 
C 832 619 1280 1072 1824 1597 
C 2214 1967 2669 2402 2669 3035 
C 2669 3790 2067 4224 1395 4224 
C 691 4224 262 3604 262 3030 
C 262 2780 448 2748 525 2748 
C 589 2748 781 2787 781 3010 
C 781 3207 614 3264 525 3264 
C 486 3264 448 3258 422 3245 
C 544 3790 915 4058 1306 4058 
C 1862 4058 2227 3617 2227 3035 
C 2227 2479 1901 2000 1536 1584 
L 262 146 
L 262 0 
L 2515 0 
L 2669 989 
z
" transform="scale(0.015625)"/>
        <path id="CMR17-35" d="M 730 3692 
C 794 3666 1056 3584 1325 3584 
C 1920 3584 2246 3911 2432 4100 
C 2432 4157 2432 4192 2394 4192 
C 2387 4192 2374 4192 2323 4163 
C 2099 4058 1837 3973 1517 3973 
C 1325 3973 1037 3999 723 4139 
C 653 4171 640 4171 634 4171 
C 602 4171 595 4164 595 4037 
L 595 2203 
C 595 2089 595 2057 659 2057 
C 691 2057 704 2070 736 2114 
C 941 2401 1222 2522 1542 2522 
C 1766 2522 2246 2382 2246 1289 
C 2246 1085 2246 715 2054 421 
C 1894 159 1645 25 1370 25 
C 947 25 518 320 403 814 
C 429 807 480 795 506 795 
C 589 795 749 840 749 1038 
C 749 1210 627 1280 506 1280 
C 358 1280 262 1190 262 1011 
C 262 454 704 -128 1382 -128 
C 2042 -128 2669 440 2669 1264 
C 2669 2030 2170 2624 1549 2624 
C 1222 2624 947 2503 730 2274 
L 730 3692 
z
" transform="scale(0.015625)"/>
       </defs>
       <use xlink:href="#CMR17-30" transform="scale(0.996264)"/>
       <use xlink:href="#CMMI12-3a" transform="translate(45.690477 0) scale(0.996264)"/>
       <use xlink:href="#CMR17-32" transform="translate(72.787654 0) scale(0.996264)"/>
       <use xlink:href="#CMR17-35" transform="translate(118.478131 0) scale(0.996264)"/>
      </g>
     </g>
    </g>
    <g id="xtick_3">
     <g id="line2d_5">
      <path d="M 259.73969 521.153031 
L 259.73969 51.564121 
" clip-path="url(#p73df73b50c)" style="fill: none; stroke: #ffffff; stroke-linecap: round"/>
     </g>
     <g id="line2d_6"/>
     <g id="text_3">
      <!-- $\mathdefault{0.50}$ -->
      <g style="fill: #262626" transform="translate(247.600155 537.838907) scale(0.14 -0.14)">
       <use xlink:href="#CMR17-30" transform="scale(0.996264)"/>
       <use xlink:href="#CMMI12-3a" transform="translate(45.690477 0) scale(0.996264)"/>
       <use xlink:href="#CMR17-35" transform="translate(72.787654 0) scale(0.996264)"/>
       <use xlink:href="#CMR17-30" transform="translate(118.478131 0) scale(0.996264)"/>
      </g>
     </g>
    </g>
    <g id="xtick_4">
     <g id="line2d_7">
      <path d="M 365.33 521.153031 
L 365.33 51.564121 
" clip-path="url(#p73df73b50c)" style="fill: none; stroke: #ffffff; stroke-linecap: round"/>
     </g>
     <g id="line2d_8"/>
     <g id="text_4">
      <!-- $\mathdefault{0.75}$ -->
      <g style="fill: #262626" transform="translate(353.190464 537.838907) scale(0.14 -0.14)">
       <defs>
        <path id="CMR17-37" d="M 2886 3941 
L 2886 4081 
L 1382 4081 
C 634 4081 621 4165 595 4288 
L 480 4288 
L 294 3094 
L 410 3094 
C 429 3215 474 3540 550 3661 
C 589 3712 1062 3712 1171 3712 
L 2579 3712 
L 1869 2661 
C 1395 1954 1069 999 1069 165 
C 1069 89 1069 -128 1299 -128 
C 1530 -128 1530 89 1530 171 
L 1530 465 
C 1530 1508 1709 2196 2003 2636 
L 2886 3941 
z
" transform="scale(0.015625)"/>
       </defs>
       <use xlink:href="#CMR17-30" transform="scale(0.996264)"/>
       <use xlink:href="#CMMI12-3a" transform="translate(45.690477 0) scale(0.996264)"/>
       <use xlink:href="#CMR17-37" transform="translate(72.787654 0) scale(0.996264)"/>
       <use xlink:href="#CMR17-35" transform="translate(118.478131 0) scale(0.996264)"/>
      </g>
     </g>
    </g>
    <g id="xtick_5">
     <g id="line2d_9">
      <path d="M 470.920309 521.153031 
L 470.920309 51.564121 
" clip-path="url(#p73df73b50c)" style="fill: none; stroke: #ffffff; stroke-linecap: round"/>
     </g>
     <g id="line2d_10"/>
     <g id="text_5">
      <!-- $\mathdefault{1.00}$ -->
      <g style="fill: #262626" transform="translate(458.780774 537.838907) scale(0.14 -0.14)">
       <defs>
        <path id="CMR17-31" d="M 1702 4058 
C 1702 4192 1696 4192 1606 4192 
C 1357 3916 979 3827 621 3827 
C 602 3827 570 3827 563 3808 
C 557 3795 557 3782 557 3648 
C 755 3648 1088 3686 1344 3839 
L 1344 461 
C 1344 236 1331 160 781 160 
L 589 160 
L 589 0 
C 896 0 1216 0 1523 0 
C 1830 0 2150 0 2458 0 
L 2458 160 
L 2266 160 
C 1715 160 1702 230 1702 458 
L 1702 4058 
z
" transform="scale(0.015625)"/>
       </defs>
       <use xlink:href="#CMR17-31" transform="scale(0.996264)"/>
       <use xlink:href="#CMMI12-3a" transform="translate(45.690477 0) scale(0.996264)"/>
       <use xlink:href="#CMR17-30" transform="translate(72.787654 0) scale(0.996264)"/>
       <use xlink:href="#CMR17-30" transform="translate(118.478131 0) scale(0.996264)"/>
      </g>
     </g>
    </g>
    <g id="xtick_6">
     <g id="line2d_11">
      <path d="M 576.510619 521.153031 
L 576.510619 51.564121 
" clip-path="url(#p73df73b50c)" style="fill: none; stroke: #ffffff; stroke-linecap: round"/>
     </g>
     <g id="line2d_12"/>
     <g id="text_6">
      <!-- $\mathdefault{1.25}$ -->
      <g style="fill: #262626" transform="translate(564.371084 537.838907) scale(0.14 -0.14)">
       <use xlink:href="#CMR17-31" transform="scale(0.996264)"/>
       <use xlink:href="#CMMI12-3a" transform="translate(45.690477 0) scale(0.996264)"/>
       <use xlink:href="#CMR17-32" transform="translate(72.787654 0) scale(0.996264)"/>
       <use xlink:href="#CMR17-35" transform="translate(118.478131 0) scale(0.996264)"/>
      </g>
     </g>
    </g>
    <g id="xtick_7">
     <g id="line2d_13">
      <path d="M 682.100929 521.153031 
L 682.100929 51.564121 
" clip-path="url(#p73df73b50c)" style="fill: none; stroke: #ffffff; stroke-linecap: round"/>
     </g>
     <g id="line2d_14"/>
     <g id="text_7">
      <!-- $\mathdefault{1.50}$ -->
      <g style="fill: #262626" transform="translate(669.961393 537.838907) scale(0.14 -0.14)">
       <use xlink:href="#CMR17-31" transform="scale(0.996264)"/>
       <use xlink:href="#CMMI12-3a" transform="translate(45.690477 0) scale(0.996264)"/>
       <use xlink:href="#CMR17-35" transform="translate(72.787654 0) scale(0.996264)"/>
       <use xlink:href="#CMR17-30" transform="translate(118.478131 0) scale(0.996264)"/>
      </g>
     </g>
    </g>
    <g id="xtick_8">
     <g id="line2d_15">
      <path d="M 787.691238 521.153031 
L 787.691238 51.564121 
" clip-path="url(#p73df73b50c)" style="fill: none; stroke: #ffffff; stroke-linecap: round"/>
     </g>
     <g id="line2d_16"/>
     <g id="text_8">
      <!-- $\mathdefault{1.75}$ -->
      <g style="fill: #262626" transform="translate(775.551703 537.838907) scale(0.14 -0.14)">
       <use xlink:href="#CMR17-31" transform="scale(0.996264)"/>
       <use xlink:href="#CMMI12-3a" transform="translate(45.690477 0) scale(0.996264)"/>
       <use xlink:href="#CMR17-37" transform="translate(72.787654 0) scale(0.996264)"/>
       <use xlink:href="#CMR17-35" transform="translate(118.478131 0) scale(0.996264)"/>
      </g>
     </g>
    </g>
    <g id="xtick_9">
     <g id="line2d_17">
      <path d="M 893.281548 521.153031 
L 893.281548 51.564121 
" clip-path="url(#p73df73b50c)" style="fill: none; stroke: #ffffff; stroke-linecap: round"/>
     </g>
     <g id="line2d_18"/>
     <g id="text_9">
      <!-- $\mathdefault{2.00}$ -->
      <g style="fill: #262626" transform="translate(881.142013 537.838907) scale(0.14 -0.14)">
       <use xlink:href="#CMR17-32" transform="scale(0.996264)"/>
       <use xlink:href="#CMMI12-3a" transform="translate(45.690477 0) scale(0.996264)"/>
       <use xlink:href="#CMR17-30" transform="translate(72.787654 0) scale(0.996264)"/>
       <use xlink:href="#CMR17-30" transform="translate(118.478131 0) scale(0.996264)"/>
      </g>
     </g>
    </g>
    <g id="text_10">
     <!-- $x$ -->
     <g style="fill: #262626" transform="translate(487.603646 555.620524) scale(0.16 -0.16)">
      <defs>
       <path id="CMMI12-78" d="M 3034 2606 
C 2829 2567 2752 2414 2752 2293 
C 2752 2139 2874 2088 2963 2088 
C 3155 2088 3290 2254 3290 2427 
C 3290 2695 2982 2816 2714 2816 
C 2323 2816 2106 2433 2048 2312 
C 1901 2816 1504 2816 1389 2816 
C 736 2816 390 1980 390 1839 
C 390 1814 416 1782 461 1782 
C 512 1782 525 1820 538 1846 
C 755 2555 1184 2689 1370 2689 
C 1658 2689 1715 2420 1715 2267 
C 1715 2127 1677 1980 1600 1673 
L 1382 798 
C 1286 415 1101 64 762 64 
C 730 64 570 64 435 147 
C 666 192 717 383 717 460 
C 717 588 621 664 499 664 
C 346 664 179 530 179 326 
C 179 57 480 -64 755 -64 
C 1062 -64 1280 179 1414 441 
C 1517 64 1837 -64 2074 -64 
C 2726 -64 3072 773 3072 913 
C 3072 945 3046 971 3008 971 
C 2950 971 2944 939 2925 888 
C 2752 326 2381 64 2093 64 
C 1869 64 1747 230 1747 492 
C 1747 632 1773 734 1875 1156 
L 2099 2024 
C 2195 2408 2413 2689 2707 2689 
C 2720 2689 2899 2689 3034 2606 
z
" transform="scale(0.015625)"/>
      </defs>
      <use xlink:href="#CMMI12-78" transform="scale(0.996264)"/>
     </g>
    </g>
   </g>
   <g id="matplotlib.axis_2">
    <g id="ytick_1">
     <g id="line2d_19">
      <path d="M 48.559071 521.153031 
L 935.517672 521.153031 
" clip-path="url(#p73df73b50c)" style="fill: none; stroke: #ffffff; stroke-linecap: round"/>
     </g>
     <g id="line2d_20"/>
     <g id="text_11">
      <!-- $\mathdefault{0.00}$ -->
      <g style="fill: #262626" transform="translate(17.28 525.995969) scale(0.14 -0.14)">
       <use xlink:href="#CMR17-30" transform="scale(0.996264)"/>
       <use xlink:href="#CMMI12-3a" transform="translate(45.690477 0) scale(0.996264)"/>
       <use xlink:href="#CMR17-30" transform="translate(72.787654 0) scale(0.996264)"/>
       <use xlink:href="#CMR17-30" transform="translate(118.478131 0) scale(0.996264)"/>
      </g>
     </g>
    </g>
    <g id="ytick_2">
     <g id="line2d_21">
      <path d="M 48.559071 465.243817 
L 935.517672 465.243817 
" clip-path="url(#p73df73b50c)" style="fill: none; stroke: #ffffff; stroke-linecap: round"/>
     </g>
     <g id="line2d_22"/>
     <g id="text_12">
      <!-- $\mathdefault{0.05}$ -->
      <g style="fill: #262626" transform="translate(17.28 470.086755) scale(0.14 -0.14)">
       <use xlink:href="#CMR17-30" transform="scale(0.996264)"/>
       <use xlink:href="#CMMI12-3a" transform="translate(45.690477 0) scale(0.996264)"/>
       <use xlink:href="#CMR17-30" transform="translate(72.787654 0) scale(0.996264)"/>
       <use xlink:href="#CMR17-35" transform="translate(118.478131 0) scale(0.996264)"/>
      </g>
     </g>
    </g>
    <g id="ytick_3">
     <g id="line2d_23">
      <path d="M 48.559071 409.334603 
L 935.517672 409.334603 
" clip-path="url(#p73df73b50c)" style="fill: none; stroke: #ffffff; stroke-linecap: round"/>
     </g>
     <g id="line2d_24"/>
     <g id="text_13">
      <!-- $\mathdefault{0.10}$ -->
      <g style="fill: #262626" transform="translate(17.28 414.177542) scale(0.14 -0.14)">
       <use xlink:href="#CMR17-30" transform="scale(0.996264)"/>
       <use xlink:href="#CMMI12-3a" transform="translate(45.690477 0) scale(0.996264)"/>
       <use xlink:href="#CMR17-31" transform="translate(72.787654 0) scale(0.996264)"/>
       <use xlink:href="#CMR17-30" transform="translate(118.478131 0) scale(0.996264)"/>
      </g>
     </g>
    </g>
    <g id="ytick_4">
     <g id="line2d_25">
      <path d="M 48.559071 353.42539 
L 935.517672 353.42539 
" clip-path="url(#p73df73b50c)" style="fill: none; stroke: #ffffff; stroke-linecap: round"/>
     </g>
     <g id="line2d_26"/>
     <g id="text_14">
      <!-- $\mathdefault{0.15}$ -->
      <g style="fill: #262626" transform="translate(17.28 358.268328) scale(0.14 -0.14)">
       <use xlink:href="#CMR17-30" transform="scale(0.996264)"/>
       <use xlink:href="#CMMI12-3a" transform="translate(45.690477 0) scale(0.996264)"/>
       <use xlink:href="#CMR17-31" transform="translate(72.787654 0) scale(0.996264)"/>
       <use xlink:href="#CMR17-35" transform="translate(118.478131 0) scale(0.996264)"/>
      </g>
     </g>
    </g>
    <g id="ytick_5">
     <g id="line2d_27">
      <path d="M 48.559071 297.516176 
L 935.517672 297.516176 
" clip-path="url(#p73df73b50c)" style="fill: none; stroke: #ffffff; stroke-linecap: round"/>
     </g>
     <g id="line2d_28"/>
     <g id="text_15">
      <!-- $\mathdefault{0.20}$ -->
      <g style="fill: #262626" transform="translate(17.28 302.359114) scale(0.14 -0.14)">
       <use xlink:href="#CMR17-30" transform="scale(0.996264)"/>
       <use xlink:href="#CMMI12-3a" transform="translate(45.690477 0) scale(0.996264)"/>
       <use xlink:href="#CMR17-32" transform="translate(72.787654 0) scale(0.996264)"/>
       <use xlink:href="#CMR17-30" transform="translate(118.478131 0) scale(0.996264)"/>
      </g>
     </g>
    </g>
    <g id="ytick_6">
     <g id="line2d_29">
      <path d="M 48.559071 241.606963 
L 935.517672 241.606963 
" clip-path="url(#p73df73b50c)" style="fill: none; stroke: #ffffff; stroke-linecap: round"/>
     </g>
     <g id="line2d_30"/>
     <g id="text_16">
      <!-- $\mathdefault{0.25}$ -->
      <g style="fill: #262626" transform="translate(17.28 246.449901) scale(0.14 -0.14)">
       <use xlink:href="#CMR17-30" transform="scale(0.996264)"/>
       <use xlink:href="#CMMI12-3a" transform="translate(45.690477 0) scale(0.996264)"/>
       <use xlink:href="#CMR17-32" transform="translate(72.787654 0) scale(0.996264)"/>
       <use xlink:href="#CMR17-35" transform="translate(118.478131 0) scale(0.996264)"/>
      </g>
     </g>
    </g>
    <g id="ytick_7">
     <g id="line2d_31">
      <path d="M 48.559071 185.697749 
L 935.517672 185.697749 
" clip-path="url(#p73df73b50c)" style="fill: none; stroke: #ffffff; stroke-linecap: round"/>
     </g>
     <g id="line2d_32"/>
     <g id="text_17">
      <!-- $\mathdefault{0.30}$ -->
      <g style="fill: #262626" transform="translate(17.28 190.540687) scale(0.14 -0.14)">
       <defs>
        <path id="CMR17-33" d="M 1414 2157 
C 1984 2157 2234 1662 2234 1090 
C 2234 320 1824 25 1453 25 
C 1114 25 563 194 390 693 
C 422 680 454 680 486 680 
C 640 680 755 782 755 948 
C 755 1133 614 1216 486 1216 
C 378 1216 211 1165 211 926 
C 211 335 787 -128 1466 -128 
C 2176 -128 2720 430 2720 1085 
C 2720 1707 2208 2157 1600 2227 
C 2086 2328 2554 2756 2554 3329 
C 2554 3820 2048 4179 1472 4179 
C 890 4179 378 3829 378 3329 
C 378 3110 544 3072 627 3072 
C 762 3072 877 3155 877 3321 
C 877 3486 762 3569 627 3569 
C 602 3569 570 3569 544 3557 
C 730 3959 1235 4032 1459 4032 
C 1683 4032 2106 3925 2106 3320 
C 2106 3143 2080 2828 1862 2550 
C 1670 2304 1453 2304 1242 2284 
C 1210 2284 1062 2269 1037 2269 
C 992 2263 966 2257 966 2208 
C 966 2163 973 2157 1101 2157 
L 1414 2157 
z
" transform="scale(0.015625)"/>
       </defs>
       <use xlink:href="#CMR17-30" transform="scale(0.996264)"/>
       <use xlink:href="#CMMI12-3a" transform="translate(45.690477 0) scale(0.996264)"/>
       <use xlink:href="#CMR17-33" transform="translate(72.787654 0) scale(0.996264)"/>
       <use xlink:href="#CMR17-30" transform="translate(118.478131 0) scale(0.996264)"/>
      </g>
     </g>
    </g>
    <g id="ytick_8">
     <g id="line2d_33">
      <path d="M 48.559071 129.788535 
L 935.517672 129.788535 
" clip-path="url(#p73df73b50c)" style="fill: none; stroke: #ffffff; stroke-linecap: round"/>
     </g>
     <g id="line2d_34"/>
     <g id="text_18">
      <!-- $\mathdefault{0.35}$ -->
      <g style="fill: #262626" transform="translate(17.28 134.631474) scale(0.14 -0.14)">
       <use xlink:href="#CMR17-30" transform="scale(0.996264)"/>
       <use xlink:href="#CMMI12-3a" transform="translate(45.690477 0) scale(0.996264)"/>
       <use xlink:href="#CMR17-33" transform="translate(72.787654 0) scale(0.996264)"/>
       <use xlink:href="#CMR17-35" transform="translate(118.478131 0) scale(0.996264)"/>
      </g>
     </g>
    </g>
    <g id="ytick_9">
     <g id="line2d_35">
      <path d="M 48.559071 73.879322 
L 935.517672 73.879322 
" clip-path="url(#p73df73b50c)" style="fill: none; stroke: #ffffff; stroke-linecap: round"/>
     </g>
     <g id="line2d_36"/>
     <g id="text_19">
      <!-- $\mathdefault{0.40}$ -->
      <g style="fill: #262626" transform="translate(17.28 78.72226) scale(0.14 -0.14)">
       <defs>
        <path id="CMR17-34" d="M 2150 4122 
C 2150 4256 2144 4256 2029 4256 
L 128 1254 
L 128 1088 
L 1779 1088 
L 1779 457 
C 1779 224 1766 160 1318 160 
L 1197 160 
L 1197 0 
C 1402 0 1747 0 1965 0 
C 2182 0 2528 0 2733 0 
L 2733 160 
L 2611 160 
C 2163 160 2150 224 2150 457 
L 2150 1088 
L 2803 1088 
L 2803 1254 
L 2150 1254 
L 2150 4122 
z
M 1798 3703 
L 1798 1254 
L 256 1254 
L 1798 3703 
z
" transform="scale(0.015625)"/>
       </defs>
       <use xlink:href="#CMR17-30" transform="scale(0.996264)"/>
       <use xlink:href="#CMMI12-3a" transform="translate(45.690477 0) scale(0.996264)"/>
       <use xlink:href="#CMR17-34" transform="translate(72.787654 0) scale(0.996264)"/>
       <use xlink:href="#CMR17-30" transform="translate(118.478131 0) scale(0.996264)"/>
      </g>
     </g>
    </g>
   </g>
   <g id="line2d_37">
    <path d="M 48.559071 73.879322 
L 57.006295 73.879322 
L 65.45352 73.879322 
L 73.900745 73.879322 
L 82.34797 73.879322 
L 90.795195 73.879322 
L 99.242419 73.879322 
L 107.689644 73.879322 
L 116.136869 73.879322 
L 124.584094 73.879322 
L 133.031318 73.879322 
L 141.478543 73.879322 
L 149.925768 73.879322 
L 158.372993 73.879322 
L 166.820217 73.879322 
L 175.267442 73.879322 
L 183.714667 73.879322 
L 192.161892 73.879322 
L 200.609117 73.879322 
L 209.056341 73.879322 
L 217.503566 73.879322 
L 225.950791 73.879322 
L 234.398016 73.879322 
L 242.84524 73.879322 
L 251.292465 73.879322 
L 259.73969 73.879322 
L 268.186915 73.879322 
L 276.63414 73.879322 
L 285.081364 73.879322 
L 293.528589 73.879322 
L 301.975814 73.879322 
L 310.423039 73.879322 
L 318.870263 73.879322 
L 327.317488 73.879322 
L 335.764713 73.879322 
L 344.211938 73.879322 
L 352.659162 73.879322 
L 361.106387 73.879322 
L 369.553612 73.879322 
L 378.000837 73.879322 
L 386.448062 73.879322 
L 394.895286 73.879322 
L 403.342511 73.879322 
L 411.789736 73.879322 
L 420.236961 73.879322 
L 428.684185 73.879322 
L 437.13141 73.879322 
L 445.578635 73.879322 
L 454.02586 73.879322 
L 462.473085 73.879322 
L 470.920309 73.879322 
L 479.367534 73.879322 
L 487.814759 73.879322 
L 496.261984 73.879322 
L 504.709208 73.879322 
L 513.156433 73.879322 
L 521.603658 73.879322 
L 530.050883 73.879322 
L 538.498107 73.879322 
L 546.945332 73.879322 
L 555.392557 73.879322 
L 563.839782 73.879322 
L 572.287007 73.879322 
L 580.734231 73.879322 
L 589.181456 73.879322 
L 597.628681 73.879322 
L 606.075906 73.879322 
L 614.52313 73.879322 
L 622.970355 73.879322 
L 631.41758 73.879322 
L 639.864805 73.879322 
L 648.31203 73.879322 
L 656.759254 73.879322 
L 665.206479 73.879322 
L 673.653704 73.879322 
L 682.100929 73.879322 
L 690.548153 73.879322 
L 698.995378 73.879322 
L 707.442603 73.879322 
L 715.889828 73.879322 
L 724.337052 73.879322 
L 732.784277 73.879322 
L 741.231502 73.879322 
L 749.678727 73.879322 
L 758.125952 73.879322 
L 766.573176 73.879322 
L 775.020401 73.879322 
L 783.467626 73.879322 
L 791.914851 73.879322 
L 800.362075 73.879322 
L 808.8093 73.879322 
L 817.256525 73.879322 
L 825.70375 73.879322 
L 834.150975 73.879322 
L 842.598199 73.879322 
L 851.045424 73.879322 
L 859.492649 73.879322 
L 867.939874 73.879322 
L 876.387098 73.879322 
L 884.834323 73.879322 
L 893.281548 73.879322 
" clip-path="url(#p73df73b50c)" style="fill: none; stroke: #393b79; stroke-width: 2; stroke-linecap: round"/>
   </g>
   <g id="line2d_38">
    <path d="M 48.559071 133.094289 
L 57.006295 133.094289 
L 65.45352 133.094289 
L 73.900745 133.094289 
L 82.34797 133.094289 
L 90.795195 133.094289 
L 99.242419 133.094289 
L 107.689644 133.094289 
L 116.136869 133.094289 
L 124.584094 133.094289 
L 133.031318 133.094289 
L 141.478543 133.094289 
L 149.925768 133.094289 
L 158.372993 133.094289 
L 166.820217 133.094289 
L 175.267442 133.094289 
L 183.714667 133.094289 
L 192.161892 133.094289 
L 200.609117 133.094289 
L 209.056341 133.094289 
L 217.503566 133.094289 
L 225.950791 133.094289 
L 234.398016 133.094289 
L 242.84524 133.094289 
L 251.292465 133.094289 
L 259.73969 133.094289 
L 268.186915 133.094289 
L 276.63414 133.094289 
L 285.081364 133.094289 
L 293.528589 133.094289 
L 301.975814 133.094289 
L 310.423039 133.094289 
L 318.870263 133.094289 
L 327.317488 133.094289 
L 335.764713 133.094289 
L 344.211938 133.094289 
L 352.659162 133.094289 
L 361.106387 133.094289 
L 369.553612 133.094289 
L 378.000837 133.094289 
L 386.448062 133.094289 
L 394.895286 133.094289 
L 403.342511 133.094289 
L 411.789736 133.094289 
L 420.236961 133.094289 
L 428.684185 133.094289 
L 437.13141 133.094289 
L 445.578635 133.094289 
L 454.02586 133.094289 
L 462.473085 133.094289 
L 470.920309 133.094289 
L 479.367534 133.094289 
L 487.814759 133.094289 
L 496.261984 133.094289 
L 504.709208 133.094289 
L 513.156433 133.094289 
L 521.603658 133.094289 
L 530.050883 133.094289 
L 538.498107 133.094289 
L 546.945332 133.094289 
L 555.392557 133.094289 
L 563.839782 133.094289 
L 572.287007 133.094289 
L 580.734231 133.094289 
L 589.181456 133.094289 
L 597.628681 133.094289 
L 606.075906 133.094289 
L 614.52313 133.094289 
L 622.970355 133.094289 
L 631.41758 133.094289 
L 639.864805 133.094289 
L 648.31203 133.094289 
L 656.759254 133.094289 
L 665.206479 133.094289 
L 673.653704 133.094289 
L 682.100929 133.094289 
L 690.548153 133.094289 
L 698.995378 133.094289 
L 707.442603 133.094289 
L 715.889828 133.094289 
L 724.337052 133.094289 
L 732.784277 133.094289 
L 741.231502 133.094289 
L 749.678727 133.094289 
L 758.125952 133.094289 
L 766.573176 133.094289 
L 775.020401 133.094289 
L 783.467626 133.094289 
L 791.914851 133.094289 
L 800.362075 133.094289 
L 808.8093 133.094289 
L 817.256525 133.094289 
L 825.70375 133.094289 
L 834.150975 133.094289 
L 842.598199 133.094289 
L 851.045424 133.094289 
L 859.492649 133.094289 
L 867.939874 133.094289 
L 876.387098 133.094289 
L 884.834323 133.094289 
L 893.281548 133.094289 
" clip-path="url(#p73df73b50c)" style="fill: none; stroke: #6b6ecf; stroke-width: 2; stroke-linecap: round"/>
   </g>
   <g id="line2d_39">
    <path d="M 48.559071 285.244809 
L 57.006295 285.244809 
L 65.45352 285.244809 
L 73.900745 285.244809 
L 82.34797 285.244809 
L 90.795195 285.244809 
L 99.242419 285.244809 
L 107.689644 285.244809 
L 116.136869 285.244809 
L 124.584094 285.244809 
L 133.031318 285.244809 
L 141.478543 285.244809 
L 149.925768 285.244809 
L 158.372993 285.244809 
L 166.820217 285.244809 
L 175.267442 285.244809 
L 183.714667 285.244809 
L 192.161892 285.244809 
L 200.609117 285.244809 
L 209.056341 285.244809 
L 217.503566 285.244809 
L 225.950791 285.244809 
L 234.398016 285.244809 
L 242.84524 285.244809 
L 251.292465 285.244809 
L 259.73969 285.244809 
L 268.186915 285.244809 
L 276.63414 285.244809 
L 285.081364 285.244809 
L 293.528589 285.244809 
L 301.975814 285.244809 
L 310.423039 285.244809 
L 318.870263 285.244809 
L 327.317488 285.244809 
L 335.764713 285.244809 
L 344.211938 285.244809 
L 352.659162 285.244809 
L 361.106387 285.244809 
L 369.553612 285.244809 
L 378.000837 285.244809 
L 386.448062 285.244809 
L 394.895286 285.244809 
L 403.342511 285.244809 
L 411.789736 285.244809 
L 420.236961 285.244809 
L 428.684185 285.244809 
L 437.13141 285.244809 
L 445.578635 285.244809 
L 454.02586 285.244809 
L 462.473085 285.244809 
L 470.920309 285.244809 
L 479.367534 285.244809 
L 487.814759 285.244809 
L 496.261984 285.244809 
L 504.709208 285.244809 
L 513.156433 285.244809 
L 521.603658 285.244809 
L 530.050883 285.244809 
L 538.498107 285.244809 
L 546.945332 285.244809 
L 555.392557 285.244809 
L 563.839782 285.244809 
L 572.287007 285.244809 
L 580.734231 285.244809 
L 589.181456 285.244809 
L 597.628681 285.244809 
L 606.075906 285.244809 
L 614.52313 285.244809 
L 622.970355 285.244809 
L 631.41758 285.244809 
L 639.864805 285.244809 
L 648.31203 285.244809 
L 656.759254 285.244809 
L 665.206479 285.244809 
L 673.653704 285.244809 
L 682.100929 285.244809 
L 690.548153 285.244809 
L 698.995378 285.244809 
L 707.442603 285.244809 
L 715.889828 285.244809 
L 724.337052 285.244809 
L 732.784277 285.244809 
L 741.231502 285.244809 
L 749.678727 285.244809 
L 758.125952 285.244809 
L 766.573176 285.244809 
L 775.020401 285.244809 
L 783.467626 285.244809 
L 791.914851 285.244809 
L 800.362075 285.244809 
L 808.8093 285.244809 
L 817.256525 285.244809 
L 825.70375 285.244809 
L 834.150975 285.244809 
L 842.598199 285.244809 
L 851.045424 285.244809 
L 859.492649 285.244809 
L 867.939874 285.244809 
L 876.387098 285.244809 
L 884.834323 285.244809 
L 893.281548 285.244809 
" clip-path="url(#p73df73b50c)" style="fill: none; stroke: #637939; stroke-width: 2; stroke-linecap: round"/>
   </g>
   <g id="line2d_40">
    <path d="M 48.559071 377.168914 
L 57.006295 377.168914 
L 65.45352 377.168914 
L 73.900745 377.168914 
L 82.34797 377.168914 
L 90.795195 377.168914 
L 99.242419 377.168914 
L 107.689644 377.168914 
L 116.136869 377.168914 
L 124.584094 377.168914 
L 133.031318 377.168914 
L 141.478543 377.168914 
L 149.925768 377.168914 
L 158.372993 377.168914 
L 166.820217 377.168914 
L 175.267442 377.168914 
L 183.714667 377.168914 
L 192.161892 377.168914 
L 200.609117 377.168914 
L 209.056341 377.168914 
L 217.503566 377.168914 
L 225.950791 377.168914 
L 234.398016 377.168914 
L 242.84524 377.168914 
L 251.292465 377.168914 
L 259.73969 377.168914 
L 268.186915 377.168914 
L 276.63414 377.168914 
L 285.081364 377.168914 
L 293.528589 377.168914 
L 301.975814 377.168914 
L 310.423039 377.168914 
L 318.870263 377.168914 
L 327.317488 377.168914 
L 335.764713 377.168914 
L 344.211938 377.168914 
L 352.659162 377.168914 
L 361.106387 377.168914 
L 369.553612 377.168914 
L 378.000837 377.168914 
L 386.448062 377.168914 
L 394.895286 377.168914 
L 403.342511 377.168914 
L 411.789736 377.168914 
L 420.236961 377.168914 
L 428.684185 377.168914 
L 437.13141 377.168914 
L 445.578635 377.168914 
L 454.02586 377.168914 
L 462.473085 377.168914 
L 470.920309 377.168914 
L 479.367534 377.168914 
L 487.814759 377.168914 
L 496.261984 377.168914 
L 504.709208 377.168914 
L 513.156433 377.168914 
L 521.603658 377.168914 
L 530.050883 377.168914 
L 538.498107 377.168914 
L 546.945332 377.168914 
L 555.392557 377.168914 
L 563.839782 377.168914 
L 572.287007 377.168914 
L 580.734231 377.168914 
L 589.181456 377.168914 
L 597.628681 377.168914 
L 606.075906 377.168914 
L 614.52313 377.168914 
L 622.970355 377.168914 
L 631.41758 377.168914 
L 639.864805 377.168914 
L 648.31203 377.168914 
L 656.759254 377.168914 
L 665.206479 377.168914 
L 673.653704 377.168914 
L 682.100929 377.168914 
L 690.548153 377.168914 
L 698.995378 377.168914 
L 707.442603 377.168914 
L 715.889828 377.168914 
L 724.337052 377.168914 
L 732.784277 377.168914 
L 741.231502 377.168914 
L 749.678727 377.168914 
L 758.125952 377.168914 
L 766.573176 377.168914 
L 775.020401 377.168914 
L 783.467626 377.168914 
L 791.914851 377.168914 
L 800.362075 377.168914 
L 808.8093 377.168914 
L 817.256525 377.168914 
L 825.70375 377.168914 
L 834.150975 377.168914 
L 842.598199 377.168914 
L 851.045424 377.168914 
L 859.492649 377.168914 
L 867.939874 377.168914 
L 876.387098 377.168914 
L 884.834323 377.168914 
L 893.281548 377.168914 
" clip-path="url(#p73df73b50c)" style="fill: none; stroke: #b5cf6b; stroke-width: 2; stroke-linecap: round"/>
   </g>
   <g id="line2d_41">
    <path d="M 48.559071 471.079517 
L 57.006295 471.079517 
L 65.45352 471.079517 
L 73.900745 471.079517 
L 82.34797 471.079517 
L 90.795195 471.079517 
L 99.242419 471.079517 
L 107.689644 471.079517 
L 116.136869 471.079517 
L 124.584094 471.079517 
L 133.031318 471.079517 
L 141.478543 471.079517 
L 149.925768 471.079517 
L 158.372993 471.079517 
L 166.820217 471.079517 
L 175.267442 471.079517 
L 183.714667 471.079517 
L 192.161892 471.079517 
L 200.609117 471.079517 
L 209.056341 471.079517 
L 217.503566 471.079517 
L 225.950791 471.079517 
L 234.398016 471.079517 
L 242.84524 471.079517 
L 251.292465 471.079517 
L 259.73969 471.079517 
L 268.186915 471.079517 
L 276.63414 471.079517 
L 285.081364 471.079517 
L 293.528589 471.079517 
L 301.975814 471.079517 
L 310.423039 471.079517 
L 318.870263 471.079517 
L 327.317488 471.079517 
L 335.764713 471.079517 
L 344.211938 471.079517 
L 352.659162 471.079517 
L 361.106387 471.079517 
L 369.553612 471.079517 
L 378.000837 471.079517 
L 386.448062 471.079517 
L 394.895286 471.079517 
L 403.342511 471.079517 
L 411.789736 471.079517 
L 420.236961 471.079517 
L 428.684185 471.079517 
L 437.13141 471.079517 
L 445.578635 471.079517 
L 454.02586 471.079517 
L 462.473085 471.079517 
L 470.920309 471.079517 
L 479.367534 471.079517 
L 487.814759 471.079517 
L 496.261984 471.079517 
L 504.709208 471.079517 
L 513.156433 471.079517 
L 521.603658 471.079517 
L 530.050883 471.079517 
L 538.498107 471.079517 
L 546.945332 471.079517 
L 555.392557 471.079517 
L 563.839782 471.079517 
L 572.287007 471.079517 
L 580.734231 471.079517 
L 589.181456 471.079517 
L 597.628681 471.079517 
L 606.075906 471.079517 
L 614.52313 471.079517 
L 622.970355 471.079517 
L 631.41758 471.079517 
L 639.864805 471.079517 
L 648.31203 471.079517 
L 656.759254 471.079517 
L 665.206479 471.079517 
L 673.653704 471.079517 
L 682.100929 471.079517 
L 690.548153 471.079517 
L 698.995378 471.079517 
L 707.442603 471.079517 
L 715.889828 471.079517 
L 724.337052 471.079517 
L 732.784277 471.079517 
L 741.231502 471.079517 
L 749.678727 471.079517 
L 758.125952 471.079517 
L 766.573176 471.079517 
L 775.020401 471.079517 
L 783.467626 471.079517 
L 791.914851 471.079517 
L 800.362075 471.079517 
L 808.8093 471.079517 
L 817.256525 471.079517 
L 825.70375 471.079517 
L 834.150975 471.079517 
L 842.598199 471.079517 
L 851.045424 471.079517 
L 859.492649 471.079517 
L 867.939874 471.079517 
L 876.387098 471.079517 
L 884.834323 471.079517 
L 893.281548 471.079517 
" clip-path="url(#p73df73b50c)" style="fill: none; stroke: #8c6d31; stroke-width: 2; stroke-linecap: round"/>
   </g>
   <g id="line2d_42">
    <path d="M 48.559071 506.10051 
L 57.006295 506.10051 
L 65.45352 506.10051 
L 73.900745 506.10051 
L 82.34797 506.10051 
L 90.795195 506.10051 
L 99.242419 506.10051 
L 107.689644 506.10051 
L 116.136869 506.10051 
L 124.584094 506.10051 
L 133.031318 506.10051 
L 141.478543 506.10051 
L 149.925768 506.10051 
L 158.372993 506.10051 
L 166.820217 506.10051 
L 175.267442 506.10051 
L 183.714667 506.10051 
L 192.161892 506.10051 
L 200.609117 506.10051 
L 209.056341 506.10051 
L 217.503566 506.10051 
L 225.950791 506.10051 
L 234.398016 506.10051 
L 242.84524 506.10051 
L 251.292465 506.10051 
L 259.73969 506.10051 
L 268.186915 506.10051 
L 276.63414 506.10051 
L 285.081364 506.10051 
L 293.528589 506.10051 
L 301.975814 506.10051 
L 310.423039 506.10051 
L 318.870263 506.10051 
L 327.317488 506.10051 
L 335.764713 506.10051 
L 344.211938 506.10051 
L 352.659162 506.10051 
L 361.106387 506.10051 
L 369.553612 506.10051 
L 378.000837 506.10051 
L 386.448062 506.10051 
L 394.895286 506.10051 
L 403.342511 506.10051 
L 411.789736 506.10051 
L 420.236961 506.10051 
L 428.684185 506.10051 
L 437.13141 506.10051 
L 445.578635 506.10051 
L 454.02586 506.10051 
L 462.473085 506.10051 
L 470.920309 506.10051 
L 479.367534 506.10051 
L 487.814759 506.10051 
L 496.261984 506.10051 
L 504.709208 506.10051 
L 513.156433 506.10051 
L 521.603658 506.10051 
L 530.050883 506.10051 
L 538.498107 506.10051 
L 546.945332 506.10051 
L 555.392557 506.10051 
L 563.839782 506.10051 
L 572.287007 506.10051 
L 580.734231 506.10051 
L 589.181456 506.10051 
L 597.628681 506.10051 
L 606.075906 506.10051 
L 614.52313 506.10051 
L 622.970355 506.10051 
L 631.41758 506.10051 
L 639.864805 506.10051 
L 648.31203 506.10051 
L 656.759254 506.10051 
L 665.206479 506.10051 
L 673.653704 506.10051 
L 682.100929 506.10051 
L 690.548153 506.10051 
L 698.995378 506.10051 
L 707.442603 506.10051 
L 715.889828 506.10051 
L 724.337052 506.10051 
L 732.784277 506.10051 
L 741.231502 506.10051 
L 749.678727 506.10051 
L 758.125952 506.10051 
L 766.573176 506.10051 
L 775.020401 506.10051 
L 783.467626 506.10051 
L 791.914851 506.10051 
L 800.362075 506.10051 
L 808.8093 506.10051 
L 817.256525 506.10051 
L 825.70375 506.10051 
L 834.150975 506.10051 
L 842.598199 506.10051 
L 851.045424 506.10051 
L 859.492649 506.10051 
L 867.939874 506.10051 
L 876.387098 506.10051 
L 884.834323 506.10051 
L 893.281548 506.10051 
" clip-path="url(#p73df73b50c)" style="fill: none; stroke: #e7cb94; stroke-width: 2; stroke-linecap: round"/>
   </g>
   <g id="line2d_43">
    <path d="M 48.559071 515.471369 
L 57.006295 515.471369 
L 65.45352 515.471369 
L 73.900745 515.471369 
L 82.34797 515.471369 
L 90.795195 515.471369 
L 99.242419 515.471369 
L 107.689644 515.471369 
L 116.136869 515.471369 
L 124.584094 515.471369 
L 133.031318 515.471369 
L 141.478543 515.471369 
L 149.925768 515.471369 
L 158.372993 515.471369 
L 166.820217 515.471369 
L 175.267442 515.471369 
L 183.714667 515.471369 
L 192.161892 515.471369 
L 200.609117 515.471369 
L 209.056341 515.471369 
L 217.503566 515.471369 
L 225.950791 515.471369 
L 234.398016 515.471369 
L 242.84524 515.471369 
L 251.292465 515.471369 
L 259.73969 515.471369 
L 268.186915 515.471369 
L 276.63414 515.471369 
L 285.081364 515.471369 
L 293.528589 515.471369 
L 301.975814 515.471369 
L 310.423039 515.471369 
L 318.870263 515.471369 
L 327.317488 515.471369 
L 335.764713 515.471369 
L 344.211938 515.471369 
L 352.659162 515.471369 
L 361.106387 515.471369 
L 369.553612 515.471369 
L 378.000837 515.471369 
L 386.448062 515.471369 
L 394.895286 515.471369 
L 403.342511 515.471369 
L 411.789736 515.471369 
L 420.236961 515.471369 
L 428.684185 515.471369 
L 437.13141 515.471369 
L 445.578635 515.471369 
L 454.02586 515.471369 
L 462.473085 515.471369 
L 470.920309 515.471369 
L 479.367534 515.471369 
L 487.814759 515.471369 
L 496.261984 515.471369 
L 504.709208 515.471369 
L 513.156433 515.471369 
L 521.603658 515.471369 
L 530.050883 515.471369 
L 538.498107 515.471369 
L 546.945332 515.471369 
L 555.392557 515.471369 
L 563.839782 515.471369 
L 572.287007 515.471369 
L 580.734231 515.471369 
L 589.181456 515.471369 
L 597.628681 515.471369 
L 606.075906 515.471369 
L 614.52313 515.471369 
L 622.970355 515.471369 
L 631.41758 515.471369 
L 639.864805 515.471369 
L 648.31203 515.471369 
L 656.759254 515.471369 
L 665.206479 515.471369 
L 673.653704 515.471369 
L 682.100929 515.471369 
L 690.548153 515.471369 
L 698.995378 515.471369 
L 707.442603 515.471369 
L 715.889828 515.471369 
L 724.337052 515.471369 
L 732.784277 515.471369 
L 741.231502 515.471369 
L 749.678727 515.471369 
L 758.125952 515.471369 
L 766.573176 515.471369 
L 775.020401 515.471369 
L 783.467626 515.471369 
L 791.914851 515.471369 
L 800.362075 515.471369 
L 808.8093 515.471369 
L 817.256525 515.471369 
L 825.70375 515.471369 
L 834.150975 515.471369 
L 842.598199 515.471369 
L 851.045424 515.471369 
L 859.492649 515.471369 
L 867.939874 515.471369 
L 876.387098 515.471369 
L 884.834323 515.471369 
L 893.281548 515.471369 
" clip-path="url(#p73df73b50c)" style="fill: none; stroke: #ad494a; stroke-width: 2; stroke-linecap: round"/>
   </g>
   <g id="line2d_44">
    <path d="M 48.559071 518.68831 
L 57.006295 518.68831 
L 65.45352 518.68831 
L 73.900745 518.68831 
L 82.34797 518.68831 
L 90.795195 518.68831 
L 99.242419 518.68831 
L 107.689644 518.68831 
L 116.136869 518.68831 
L 124.584094 518.68831 
L 133.031318 518.68831 
L 141.478543 518.68831 
L 149.925768 518.68831 
L 158.372993 518.68831 
L 166.820217 518.68831 
L 175.267442 518.68831 
L 183.714667 518.68831 
L 192.161892 518.68831 
L 200.609117 518.68831 
L 209.056341 518.68831 
L 217.503566 518.68831 
L 225.950791 518.68831 
L 234.398016 518.68831 
L 242.84524 518.68831 
L 251.292465 518.68831 
L 259.73969 518.68831 
L 268.186915 518.68831 
L 276.63414 518.68831 
L 285.081364 518.68831 
L 293.528589 518.68831 
L 301.975814 518.68831 
L 310.423039 518.68831 
L 318.870263 518.68831 
L 327.317488 518.68831 
L 335.764713 518.68831 
L 344.211938 518.68831 
L 352.659162 518.68831 
L 361.106387 518.68831 
L 369.553612 518.68831 
L 378.000837 518.68831 
L 386.448062 518.68831 
L 394.895286 518.68831 
L 403.342511 518.68831 
L 411.789736 518.68831 
L 420.236961 518.68831 
L 428.684185 518.68831 
L 437.13141 518.68831 
L 445.578635 518.68831 
L 454.02586 518.68831 
L 462.473085 518.68831 
L 470.920309 518.68831 
L 479.367534 518.68831 
L 487.814759 518.68831 
L 496.261984 518.68831 
L 504.709208 518.68831 
L 513.156433 518.68831 
L 521.603658 518.68831 
L 530.050883 518.68831 
L 538.498107 518.68831 
L 546.945332 518.68831 
L 555.392557 518.68831 
L 563.839782 518.68831 
L 572.287007 518.68831 
L 580.734231 518.68831 
L 589.181456 518.68831 
L 597.628681 518.68831 
L 606.075906 518.68831 
L 614.52313 518.68831 
L 622.970355 518.68831 
L 631.41758 518.68831 
L 639.864805 518.68831 
L 648.31203 518.68831 
L 656.759254 518.68831 
L 665.206479 518.68831 
L 673.653704 518.68831 
L 682.100929 518.68831 
L 690.548153 518.68831 
L 698.995378 518.68831 
L 707.442603 518.68831 
L 715.889828 518.68831 
L 724.337052 518.68831 
L 732.784277 518.68831 
L 741.231502 518.68831 
L 749.678727 518.68831 
L 758.125952 518.68831 
L 766.573176 518.68831 
L 775.020401 518.68831 
L 783.467626 518.68831 
L 791.914851 518.68831 
L 800.362075 518.68831 
L 808.8093 518.68831 
L 817.256525 518.68831 
L 825.70375 518.68831 
L 834.150975 518.68831 
L 842.598199 518.68831 
L 851.045424 518.68831 
L 859.492649 518.68831 
L 867.939874 518.68831 
L 876.387098 518.68831 
L 884.834323 518.68831 
L 893.281548 518.68831 
" clip-path="url(#p73df73b50c)" style="fill: none; stroke: #e7969c; stroke-width: 2; stroke-linecap: round"/>
   </g>
   <g id="line2d_45">
    <path d="M 48.559071 519.73626 
L 57.006295 519.73626 
L 65.45352 519.73626 
L 73.900745 519.73626 
L 82.34797 519.73626 
L 90.795195 519.73626 
L 99.242419 519.73626 
L 107.689644 519.73626 
L 116.136869 519.73626 
L 124.584094 519.73626 
L 133.031318 519.73626 
L 141.478543 519.73626 
L 149.925768 519.73626 
L 158.372993 519.73626 
L 166.820217 519.73626 
L 175.267442 519.73626 
L 183.714667 519.73626 
L 192.161892 519.73626 
L 200.609117 519.73626 
L 209.056341 519.73626 
L 217.503566 519.73626 
L 225.950791 519.73626 
L 234.398016 519.73626 
L 242.84524 519.73626 
L 251.292465 519.73626 
L 259.73969 519.73626 
L 268.186915 519.73626 
L 276.63414 519.73626 
L 285.081364 519.73626 
L 293.528589 519.73626 
L 301.975814 519.73626 
L 310.423039 519.73626 
L 318.870263 519.73626 
L 327.317488 519.73626 
L 335.764713 519.73626 
L 344.211938 519.73626 
L 352.659162 519.73626 
L 361.106387 519.73626 
L 369.553612 519.73626 
L 378.000837 519.73626 
L 386.448062 519.73626 
L 394.895286 519.73626 
L 403.342511 519.73626 
L 411.789736 519.73626 
L 420.236961 519.73626 
L 428.684185 519.73626 
L 437.13141 519.73626 
L 445.578635 519.73626 
L 454.02586 519.73626 
L 462.473085 519.73626 
L 470.920309 519.73626 
L 479.367534 519.73626 
L 487.814759 519.73626 
L 496.261984 519.73626 
L 504.709208 519.73626 
L 513.156433 519.73626 
L 521.603658 519.73626 
L 530.050883 519.73626 
L 538.498107 519.73626 
L 546.945332 519.73626 
L 555.392557 519.73626 
L 563.839782 519.73626 
L 572.287007 519.73626 
L 580.734231 519.73626 
L 589.181456 519.73626 
L 597.628681 519.73626 
L 606.075906 519.73626 
L 614.52313 519.73626 
L 622.970355 519.73626 
L 631.41758 519.73626 
L 639.864805 519.73626 
L 648.31203 519.73626 
L 656.759254 519.73626 
L 665.206479 519.73626 
L 673.653704 519.73626 
L 682.100929 519.73626 
L 690.548153 519.73626 
L 698.995378 519.73626 
L 707.442603 519.73626 
L 715.889828 519.73626 
L 724.337052 519.73626 
L 732.784277 519.73626 
L 741.231502 519.73626 
L 749.678727 519.73626 
L 758.125952 519.73626 
L 766.573176 519.73626 
L 775.020401 519.73626 
L 783.467626 519.73626 
L 791.914851 519.73626 
L 800.362075 519.73626 
L 808.8093 519.73626 
L 817.256525 519.73626 
L 825.70375 519.73626 
L 834.150975 519.73626 
L 842.598199 519.73626 
L 851.045424 519.73626 
L 859.492649 519.73626 
L 867.939874 519.73626 
L 876.387098 519.73626 
L 884.834323 519.73626 
L 893.281548 519.73626 
" clip-path="url(#p73df73b50c)" style="fill: none; stroke: #a55194; stroke-width: 2; stroke-linecap: round"/>
   </g>
   <g id="line2d_46">
    <path d="M 48.559071 520.183337 
L 57.006295 520.183337 
L 65.45352 520.183337 
L 73.900745 520.183337 
L 82.34797 520.183337 
L 90.795195 520.183337 
L 99.242419 520.183337 
L 107.689644 520.183337 
L 116.136869 520.183337 
L 124.584094 520.183337 
L 133.031318 520.183337 
L 141.478543 520.183337 
L 149.925768 520.183337 
L 158.372993 520.183337 
L 166.820217 520.183337 
L 175.267442 520.183337 
L 183.714667 520.183337 
L 192.161892 520.183337 
L 200.609117 520.183337 
L 209.056341 520.183337 
L 217.503566 520.183337 
L 225.950791 520.183337 
L 234.398016 520.183337 
L 242.84524 520.183337 
L 251.292465 520.183337 
L 259.73969 520.183337 
L 268.186915 520.183337 
L 276.63414 520.183337 
L 285.081364 520.183337 
L 293.528589 520.183337 
L 301.975814 520.183337 
L 310.423039 520.183337 
L 318.870263 520.183337 
L 327.317488 520.183337 
L 335.764713 520.183337 
L 344.211938 520.183337 
L 352.659162 520.183337 
L 361.106387 520.183337 
L 369.553612 520.183337 
L 378.000837 520.183337 
L 386.448062 520.183337 
L 394.895286 520.183337 
L 403.342511 520.183337 
L 411.789736 520.183337 
L 420.236961 520.183337 
L 428.684185 520.183337 
L 437.13141 520.183337 
L 445.578635 520.183337 
L 454.02586 520.183337 
L 462.473085 520.183337 
L 470.920309 520.183337 
L 479.367534 520.183337 
L 487.814759 520.183337 
L 496.261984 520.183337 
L 504.709208 520.183337 
L 513.156433 520.183337 
L 521.603658 520.183337 
L 530.050883 520.183337 
L 538.498107 520.183337 
L 546.945332 520.183337 
L 555.392557 520.183337 
L 563.839782 520.183337 
L 572.287007 520.183337 
L 580.734231 520.183337 
L 589.181456 520.183337 
L 597.628681 520.183337 
L 606.075906 520.183337 
L 614.52313 520.183337 
L 622.970355 520.183337 
L 631.41758 520.183337 
L 639.864805 520.183337 
L 648.31203 520.183337 
L 656.759254 520.183337 
L 665.206479 520.183337 
L 673.653704 520.183337 
L 682.100929 520.183337 
L 690.548153 520.183337 
L 698.995378 520.183337 
L 707.442603 520.183337 
L 715.889828 520.183337 
L 724.337052 520.183337 
L 732.784277 520.183337 
L 741.231502 520.183337 
L 749.678727 520.183337 
L 758.125952 520.183337 
L 766.573176 520.183337 
L 775.020401 520.183337 
L 783.467626 520.183337 
L 791.914851 520.183337 
L 800.362075 520.183337 
L 808.8093 520.183337 
L 817.256525 520.183337 
L 825.70375 520.183337 
L 834.150975 520.183337 
L 842.598199 520.183337 
L 851.045424 520.183337 
L 859.492649 520.183337 
L 867.939874 520.183337 
L 876.387098 520.183337 
L 884.834323 520.183337 
L 893.281548 520.183337 
" clip-path="url(#p73df73b50c)" style="fill: none; stroke: #de9ed6; stroke-width: 2; stroke-linecap: round"/>
   </g>
   <g id="patch_3">
    <path d="M 48.559071 521.153031 
L 48.559071 51.564121 
" style="fill: none"/>
   </g>
   <g id="patch_4">
    <path d="M 935.517672 521.153031 
L 935.517672 51.564121 
" style="fill: none"/>
   </g>
   <g id="patch_5">
    <path d="M 48.559071 521.153031 
L 935.517672 521.153031 
" style="fill: none"/>
   </g>
   <g id="patch_6">
    <path d="M 48.559071 51.564121 
L 935.517672 51.564121 
" style="fill: none"/>
   </g>
   <g id="patch_7">
    <path d="M 470.920309 98.241564 
Q 470.920309 291.439597 470.920309 482.960579 
" style="fill: none; stroke: #000000; stroke-width: 1.5; stroke-linecap: round"/>
    <path d="M 474.120309 476.560579 
L 470.920309 482.960579 
L 467.720309 476.560579 
" style="fill: none; stroke: #000000; stroke-width: 1.5; stroke-linecap: round"/>
   </g>
   <g id="text_20">
    <!-- Time -->
    <g style="fill: #262626" transform="translate(492.038371 483.149745) scale(0.18 -0.18)">
     <defs>
      <path id="CMR17-54" d="M 3981 4326 
L 288 4326 
L 179 2918 
L 294 2918 
C 378 3976 467 4160 1453 4160 
C 1568 4160 1754 4160 1805 4154 
C 1926 4135 1926 4058 1926 3912 
L 1926 459 
C 1926 230 1907 160 1376 160 
L 1197 160 
L 1197 0 
C 1504 0 1824 0 2138 0 
C 2451 0 2771 0 3078 0 
L 3078 160 
L 2899 160 
C 2368 160 2349 230 2349 459 
L 2349 3912 
C 2349 4052 2349 4129 2464 4154 
C 2515 4160 2701 4160 2816 4160 
C 3795 4160 3891 3976 3974 2918 
L 4090 2918 
L 3981 4326 
z
" transform="scale(0.015625)"/>
      <path id="CMR17-69" d="M 992 3909 
C 992 4049 877 4170 730 4170 
C 589 4170 467 4056 467 3909 
C 467 3769 582 3648 730 3648 
C 870 3648 992 3763 992 3909 
z
M 243 2706 
L 243 2541 
C 602 2541 653 2502 653 2197 
L 653 427 
C 653 184 627 153 218 153 
L 218 -13 
C 371 0 646 0 806 0 
C 960 0 1222 0 1370 -13 
L 1370 153 
C 992 153 979 191 979 420 
L 979 2776 
L 243 2706 
z
" transform="scale(0.015625)"/>
      <path id="CMR17-6d" d="M 4326 1933 
C 4326 2252 4269 2790 3507 2790 
C 3072 2790 2771 2496 2656 2151 
L 2650 2151 
C 2573 2676 2195 2790 1837 2790 
C 1331 2790 1069 2400 973 2144 
L 966 2144 
L 966 2790 
L 211 2720 
L 211 2554 
C 589 2554 646 2515 646 2208 
L 646 428 
C 646 184 621 153 211 153 
L 211 -13 
C 365 0 646 0 813 0 
C 979 0 1267 0 1421 -13 
L 1421 153 
C 1011 153 986 178 986 428 
L 986 1658 
C 986 2247 1344 2688 1792 2688 
C 2266 2688 2317 2266 2317 1958 
L 2317 428 
C 2317 184 2291 153 1882 153 
L 1882 -13 
C 2035 0 2317 0 2483 0 
C 2650 0 2938 0 3091 -13 
L 3091 153 
C 2682 153 2656 178 2656 428 
L 2656 1658 
C 2656 2247 3014 2688 3462 2688 
C 3936 2688 3987 2266 3987 1958 
L 3987 428 
C 3987 184 3962 153 3552 153 
L 3552 -13 
C 3706 0 3987 0 4154 0 
C 4320 0 4608 0 4762 -13 
L 4762 153 
C 4352 153 4326 178 4326 428 
L 4326 1933 
z
" transform="scale(0.015625)"/>
      <path id="CMR17-65" d="M 2438 1472 
C 2464 1498 2464 1511 2464 1576 
C 2464 2238 2118 2816 1389 2816 
C 710 2816 173 2169 173 1383 
C 173 551 781 -64 1459 -64 
C 2176 -64 2458 607 2458 740 
C 2458 784 2419 784 2406 784 
C 2362 784 2355 771 2330 696 
C 2189 265 1837 51 1504 51 
C 1229 51 954 203 781 480 
C 582 803 582 1176 582 1472 
L 2438 1472 
z
M 589 1568 
C 634 2505 1126 2714 1382 2714 
C 1818 2714 2112 2297 2118 1568 
L 589 1568 
z
" transform="scale(0.015625)"/>
     </defs>
     <use xlink:href="#CMR17-54" transform="scale(0.996264)"/>
     <use xlink:href="#CMR17-69" transform="translate(66.509881 0) scale(0.996264)"/>
     <use xlink:href="#CMR17-6d" transform="translate(91.380939 0) scale(0.996264)"/>
     <use xlink:href="#CMR17-65" transform="translate(168.300529 0) scale(0.996264)"/>
    </g>
   </g>
   <g id="legend_1">
    <g id="line2d_47">
     <path d="M 948.117672 197.198434 
L 962.117672 197.198434 
L 976.117672 197.198434 
" style="fill: none; stroke: #393b79; stroke-width: 2; stroke-linecap: round"/>
    </g>
    <g id="text_21">
     <!-- t = 0.00 -->
     <g style="fill: #262626" transform="translate(987.317672 202.098434) scale(0.14 -0.14)">
      <defs>
       <path id="CMR17-74" d="M 966 2560 
L 1862 2560 
L 1862 2725 
L 966 2725 
L 966 3904 
L 851 3904 
C 838 3245 614 2668 70 2668 
L 70 2560 
L 627 2560 
L 627 771 
C 627 650 627 -64 1370 -64 
C 1747 -64 1965 306 1965 777 
L 1965 1140 
L 1850 1140 
L 1850 783 
C 1850 344 1677 51 1408 51 
C 1222 51 966 178 966 758 
L 966 2560 
z
" transform="scale(0.015625)"/>
       <path id="CMR17-3d" d="M 4115 2017 
C 4211 2017 4307 2017 4307 2125 
C 4307 2240 4198 2240 4090 2240 
L 512 2240 
C 403 2240 294 2240 294 2125 
C 294 2017 390 2017 486 2017 
L 4115 2017 
z
M 4090 896 
C 4198 896 4307 896 4307 1011 
C 4307 1119 4211 1119 4115 1119 
L 486 1119 
C 390 1119 294 1119 294 1011 
C 294 896 403 896 512 896 
L 4090 896 
z
" transform="scale(0.015625)"/>
       <path id="CMR17-2e" d="M 1062 261 
C 1062 420 934 522 800 522 
C 672 522 538 420 538 261 
C 538 102 666 0 800 0 
C 928 0 1062 102 1062 261 
z
" transform="scale(0.015625)"/>
      </defs>
      <use xlink:href="#CMR17-74" transform="scale(0.996264)"/>
      <use xlink:href="#CMR17-3d" transform="translate(65.356734 0) scale(0.996264)"/>
      <use xlink:href="#CMR17-30" transform="translate(167.147489 0) scale(0.996264)"/>
      <use xlink:href="#CMR17-2e" transform="translate(212.837966 0) scale(0.996264)"/>
      <use xlink:href="#CMR17-30" transform="translate(237.709025 0) scale(0.996264)"/>
      <use xlink:href="#CMR17-30" transform="translate(283.399502 0) scale(0.996264)"/>
     </g>
    </g>
    <g id="line2d_48">
     <path d="M 948.117672 216.710462 
L 962.117672 216.710462 
L 976.117672 216.710462 
" style="fill: none; stroke: #6b6ecf; stroke-width: 2; stroke-linecap: round"/>
    </g>
    <g id="text_22">
     <!-- t = 10.00 -->
     <g style="fill: #262626" transform="translate(987.317672 221.610462) scale(0.14 -0.14)">
      <use xlink:href="#CMR17-74" transform="scale(0.996264)"/>
      <use xlink:href="#CMR17-3d" transform="translate(65.356734 0) scale(0.996264)"/>
      <use xlink:href="#CMR17-31" transform="translate(167.147489 0) scale(0.996264)"/>
      <use xlink:href="#CMR17-30" transform="translate(212.837966 0) scale(0.996264)"/>
      <use xlink:href="#CMR17-2e" transform="translate(258.528443 0) scale(0.996264)"/>
      <use xlink:href="#CMR17-30" transform="translate(283.399502 0) scale(0.996264)"/>
      <use xlink:href="#CMR17-30" transform="translate(329.089979 0) scale(0.996264)"/>
     </g>
    </g>
    <g id="line2d_49">
     <path d="M 948.117672 236.222491 
L 962.117672 236.222491 
L 976.117672 236.222491 
" style="fill: none; stroke: #637939; stroke-width: 2; stroke-linecap: round"/>
    </g>
    <g id="text_23">
     <!-- t = 50.00 -->
     <g style="fill: #262626" transform="translate(987.317672 241.122491) scale(0.14 -0.14)">
      <use xlink:href="#CMR17-74" transform="scale(0.996264)"/>
      <use xlink:href="#CMR17-3d" transform="translate(65.356734 0) scale(0.996264)"/>
      <use xlink:href="#CMR17-35" transform="translate(167.147489 0) scale(0.996264)"/>
      <use xlink:href="#CMR17-30" transform="translate(212.837966 0) scale(0.996264)"/>
      <use xlink:href="#CMR17-2e" transform="translate(258.528443 0) scale(0.996264)"/>
      <use xlink:href="#CMR17-30" transform="translate(283.399502 0) scale(0.996264)"/>
      <use xlink:href="#CMR17-30" transform="translate(329.089979 0) scale(0.996264)"/>
     </g>
    </g>
    <g id="line2d_50">
     <path d="M 948.117672 255.734519 
L 962.117672 255.734519 
L 976.117672 255.734519 
" style="fill: none; stroke: #b5cf6b; stroke-width: 2; stroke-linecap: round"/>
    </g>
    <g id="text_24">
     <!-- t = 100.00 -->
     <g style="fill: #262626" transform="translate(987.317672 260.634519) scale(0.14 -0.14)">
      <use xlink:href="#CMR17-74" transform="scale(0.996264)"/>
      <use xlink:href="#CMR17-3d" transform="translate(65.356734 0) scale(0.996264)"/>
      <use xlink:href="#CMR17-31" transform="translate(167.147489 0) scale(0.996264)"/>
      <use xlink:href="#CMR17-30" transform="translate(212.837966 0) scale(0.996264)"/>
      <use xlink:href="#CMR17-30" transform="translate(258.528443 0) scale(0.996264)"/>
      <use xlink:href="#CMR17-2e" transform="translate(304.21892 0) scale(0.996264)"/>
      <use xlink:href="#CMR17-30" transform="translate(329.089979 0) scale(0.996264)"/>
      <use xlink:href="#CMR17-30" transform="translate(374.780456 0) scale(0.996264)"/>
     </g>
    </g>
    <g id="line2d_51">
     <path d="M 948.117672 275.246547 
L 962.117672 275.246547 
L 976.117672 275.246547 
" style="fill: none; stroke: #8c6d31; stroke-width: 2; stroke-linecap: round"/>
    </g>
    <g id="text_25">
     <!-- t = 250.00 -->
     <g style="fill: #262626" transform="translate(987.317672 280.146547) scale(0.14 -0.14)">
      <use xlink:href="#CMR17-74" transform="scale(0.996264)"/>
      <use xlink:href="#CMR17-3d" transform="translate(65.356734 0) scale(0.996264)"/>
      <use xlink:href="#CMR17-32" transform="translate(167.147489 0) scale(0.996264)"/>
      <use xlink:href="#CMR17-35" transform="translate(212.837966 0) scale(0.996264)"/>
      <use xlink:href="#CMR17-30" transform="translate(258.528443 0) scale(0.996264)"/>
      <use xlink:href="#CMR17-2e" transform="translate(304.21892 0) scale(0.996264)"/>
      <use xlink:href="#CMR17-30" transform="translate(329.089979 0) scale(0.996264)"/>
      <use xlink:href="#CMR17-30" transform="translate(374.780456 0) scale(0.996264)"/>
     </g>
    </g>
    <g id="line2d_52">
     <path d="M 948.117672 294.758576 
L 962.117672 294.758576 
L 976.117672 294.758576 
" style="fill: none; stroke: #e7cb94; stroke-width: 2; stroke-linecap: round"/>
    </g>
    <g id="text_26">
     <!-- t = 500.00 -->
     <g style="fill: #262626" transform="translate(987.317672 299.658576) scale(0.14 -0.14)">
      <use xlink:href="#CMR17-74" transform="scale(0.996264)"/>
      <use xlink:href="#CMR17-3d" transform="translate(65.356734 0) scale(0.996264)"/>
      <use xlink:href="#CMR17-35" transform="translate(167.147489 0) scale(0.996264)"/>
      <use xlink:href="#CMR17-30" transform="translate(212.837966 0) scale(0.996264)"/>
      <use xlink:href="#CMR17-30" transform="translate(258.528443 0) scale(0.996264)"/>
      <use xlink:href="#CMR17-2e" transform="translate(304.21892 0) scale(0.996264)"/>
      <use xlink:href="#CMR17-30" transform="translate(329.089979 0) scale(0.996264)"/>
      <use xlink:href="#CMR17-30" transform="translate(374.780456 0) scale(0.996264)"/>
     </g>
    </g>
    <g id="line2d_53">
     <path d="M 948.117672 314.270604 
L 962.117672 314.270604 
L 976.117672 314.270604 
" style="fill: none; stroke: #ad494a; stroke-width: 2; stroke-linecap: round"/>
    </g>
    <g id="text_27">
     <!-- t = 750.00 -->
     <g style="fill: #262626" transform="translate(987.317672 319.170604) scale(0.14 -0.14)">
      <use xlink:href="#CMR17-74" transform="scale(0.996264)"/>
      <use xlink:href="#CMR17-3d" transform="translate(65.356734 0) scale(0.996264)"/>
      <use xlink:href="#CMR17-37" transform="translate(167.147489 0) scale(0.996264)"/>
      <use xlink:href="#CMR17-35" transform="translate(212.837966 0) scale(0.996264)"/>
      <use xlink:href="#CMR17-30" transform="translate(258.528443 0) scale(0.996264)"/>
      <use xlink:href="#CMR17-2e" transform="translate(304.21892 0) scale(0.996264)"/>
      <use xlink:href="#CMR17-30" transform="translate(329.089979 0) scale(0.996264)"/>
      <use xlink:href="#CMR17-30" transform="translate(374.780456 0) scale(0.996264)"/>
     </g>
    </g>
    <g id="line2d_54">
     <path d="M 948.117672 333.782633 
L 962.117672 333.782633 
L 976.117672 333.782633 
" style="fill: none; stroke: #e7969c; stroke-width: 2; stroke-linecap: round"/>
    </g>
    <g id="text_28">
     <!-- t = 1000.00 -->
     <g style="fill: #262626" transform="translate(987.317672 338.682633) scale(0.14 -0.14)">
      <use xlink:href="#CMR17-74" transform="scale(0.996264)"/>
      <use xlink:href="#CMR17-3d" transform="translate(65.356734 0) scale(0.996264)"/>
      <use xlink:href="#CMR17-31" transform="translate(167.147489 0) scale(0.996264)"/>
      <use xlink:href="#CMR17-30" transform="translate(212.837966 0) scale(0.996264)"/>
      <use xlink:href="#CMR17-30" transform="translate(258.528443 0) scale(0.996264)"/>
      <use xlink:href="#CMR17-30" transform="translate(304.21892 0) scale(0.996264)"/>
      <use xlink:href="#CMR17-2e" transform="translate(349.909397 0) scale(0.996264)"/>
      <use xlink:href="#CMR17-30" transform="translate(374.780456 0) scale(0.996264)"/>
      <use xlink:href="#CMR17-30" transform="translate(420.470933 0) scale(0.996264)"/>
     </g>
    </g>
    <g id="line2d_55">
     <path d="M 948.117672 353.294661 
L 962.117672 353.294661 
L 976.117672 353.294661 
" style="fill: none; stroke: #a55194; stroke-width: 2; stroke-linecap: round"/>
    </g>
    <g id="text_29">
     <!-- t = 1250.00 -->
     <g style="fill: #262626" transform="translate(987.317672 358.194661) scale(0.14 -0.14)">
      <use xlink:href="#CMR17-74" transform="scale(0.996264)"/>
      <use xlink:href="#CMR17-3d" transform="translate(65.356734 0) scale(0.996264)"/>
      <use xlink:href="#CMR17-31" transform="translate(167.147489 0) scale(0.996264)"/>
      <use xlink:href="#CMR17-32" transform="translate(212.837966 0) scale(0.996264)"/>
      <use xlink:href="#CMR17-35" transform="translate(258.528443 0) scale(0.996264)"/>
      <use xlink:href="#CMR17-30" transform="translate(304.21892 0) scale(0.996264)"/>
      <use xlink:href="#CMR17-2e" transform="translate(349.909397 0) scale(0.996264)"/>
      <use xlink:href="#CMR17-30" transform="translate(374.780456 0) scale(0.996264)"/>
      <use xlink:href="#CMR17-30" transform="translate(420.470933 0) scale(0.996264)"/>
     </g>
    </g>
    <g id="line2d_56">
     <path d="M 948.117672 372.806689 
L 962.117672 372.806689 
L 976.117672 372.806689 
" style="fill: none; stroke: #de9ed6; stroke-width: 2; stroke-linecap: round"/>
    </g>
    <g id="text_30">
     <!-- t = 1500.00 -->
     <g style="fill: #262626" transform="translate(987.317672 377.706689) scale(0.14 -0.14)">
      <use xlink:href="#CMR17-74" transform="scale(0.996264)"/>
      <use xlink:href="#CMR17-3d" transform="translate(65.356734 0) scale(0.996264)"/>
      <use xlink:href="#CMR17-31" transform="translate(167.147489 0) scale(0.996264)"/>
      <use xlink:href="#CMR17-35" transform="translate(212.837966 0) scale(0.996264)"/>
      <use xlink:href="#CMR17-30" transform="translate(258.528443 0) scale(0.996264)"/>
      <use xlink:href="#CMR17-30" transform="translate(304.21892 0) scale(0.996264)"/>
      <use xlink:href="#CMR17-2e" transform="translate(349.909397 0) scale(0.996264)"/>
      <use xlink:href="#CMR17-30" transform="translate(374.780456 0) scale(0.996264)"/>
      <use xlink:href="#CMR17-30" transform="translate(420.470933 0) scale(0.996264)"/>
     </g>
    </g>
   </g>
  </g>
  <g id="text_31">
   <!-- Reactivity -->
   <g style="fill: #262626" transform="translate(500.761015 24.803515) scale(0.192 -0.192)">
    <defs>
     <path id="CMR17-52" d="M 2509 2146 
C 3117 2268 3629 2676 3629 3186 
C 3629 3785 2950 4326 2054 4326 
L 333 4326 
L 333 4160 
C 774 4160 845 4160 845 3873 
L 845 415 
C 845 128 774 128 333 128 
L 333 -26 
C 518 -26 851 -26 1050 -26 
C 1248 -26 1581 -26 1766 -26 
L 1766 128 
C 1325 128 1254 128 1254 417 
L 1254 2112 
L 2003 2112 
C 2368 2112 2573 1964 2662 1881 
C 2918 1632 2918 1459 2918 1024 
C 2918 595 2918 377 3110 160 
C 3354 -102 3680 -128 3821 -128 
C 4294 -128 4365 396 4365 503 
C 4365 540 4365 585 4307 585 
C 4256 585 4250 547 4250 522 
C 4218 112 4032 -26 3834 -26 
C 3482 -26 3443 375 3405 764 
C 3386 898 3373 993 3360 1133 
C 3322 1452 3270 1917 2509 2146 
z
M 1984 2214 
L 1254 2214 
L 1254 3913 
C 1254 4129 1267 4160 1523 4160 
L 1990 4160 
C 2522 4160 3142 3977 3142 3190 
C 3142 2372 2464 2214 1984 2214 
z
" transform="scale(0.015625)"/>
     <path id="CMR17-61" d="M 2304 1653 
C 2304 2072 2304 2294 2035 2543 
C 1798 2752 1523 2816 1306 2816 
C 800 2816 435 2407 435 1971 
C 435 1728 627 1728 666 1728 
C 749 1728 896 1778 896 1954 
C 896 2112 774 2181 666 2181 
C 640 2181 608 2174 589 2168 
C 723 2592 1069 2714 1293 2714 
C 1613 2714 1965 2429 1965 1885 
L 1965 1600 
C 1587 1600 1133 1549 774 1357 
C 371 1133 256 813 256 570 
C 256 77 832 -64 1171 -64 
C 1523 -64 1850 139 1990 511 
C 2003 233 2182 -18 2464 -18 
C 2598 -18 2938 70 2938 567 
L 2938 920 
L 2822 920 
L 2822 562 
C 2822 178 2650 128 2566 128 
C 2304 128 2304 458 2304 738 
L 2304 1653 
z
M 1965 870 
C 1965 317 1568 38 1216 38 
C 896 38 646 275 646 570 
C 646 761 730 1100 1101 1305 
C 1408 1478 1760 1504 1965 1504 
L 1965 870 
z
" transform="scale(0.015625)"/>
     <path id="CMR17-63" d="M 2234 2240 
C 2112 2240 1933 2240 1933 2017 
C 1933 1838 2080 1787 2163 1787 
C 2208 1787 2394 1807 2394 2024 
C 2394 2467 1958 2803 1466 2803 
C 787 2803 211 2178 211 1363 
C 211 516 813 -64 1466 -64 
C 2259 -64 2458 677 2458 748 
C 2458 774 2451 793 2406 793 
C 2362 793 2355 787 2330 703 
C 2163 180 1798 51 1523 51 
C 1114 51 621 427 621 1369 
C 621 2338 1094 2688 1472 2688 
C 1722 2688 2093 2573 2234 2240 
z
" transform="scale(0.015625)"/>
     <path id="CMR17-76" d="M 2502 2163 
C 2560 2304 2662 2560 3034 2560 
L 3034 2726 
C 2912 2726 2752 2726 2630 2726 
C 2496 2726 2285 2726 2157 2732 
L 2157 2566 
C 2317 2553 2406 2477 2406 2311 
C 2406 2253 2406 2240 2368 2151 
L 1664 377 
L 902 2286 
C 864 2369 864 2381 864 2407 
C 864 2560 1075 2560 1171 2560 
L 1171 2732 
C 1018 2726 736 2726 576 2726 
C 403 2726 205 2726 64 2732 
L 64 2560 
C 307 2560 442 2560 518 2362 
L 1446 44 
C 1485 -51 1491 -64 1549 -64 
C 1606 -64 1613 -51 1651 44 
L 2502 2163 
z
" transform="scale(0.015625)"/>
     <path id="CMR17-79" d="M 2496 2197 
C 2656 2586 2944 2586 3034 2586 
L 3034 2752 
C 2912 2752 2752 2752 2630 2752 
C 2496 2752 2285 2752 2157 2758 
L 2157 2592 
C 2400 2573 2406 2394 2406 2343 
C 2406 2280 2394 2248 2362 2171 
L 1664 449 
L 902 2306 
C 870 2382 870 2426 870 2433 
C 870 2573 1018 2586 1171 2586 
L 1171 2758 
C 1018 2752 742 2752 582 2752 
C 410 2752 205 2752 64 2758 
L 64 2586 
C 410 2586 448 2554 531 2350 
L 1485 15 
C 1197 -738 1030 -1178 627 -1178 
C 557 -1178 397 -1159 282 -1044 
C 429 -1031 493 -942 493 -833 
C 493 -725 416 -629 288 -629 
C 147 -629 77 -725 77 -840 
C 77 -1095 339 -1280 627 -1280 
C 998 -1280 1229 -922 1357 -604 
L 2496 2197 
z
" transform="scale(0.015625)"/>
    </defs>
    <use xlink:href="#CMR17-52" transform="scale(0.996264)"/>
    <use xlink:href="#CMR17-65" transform="translate(67.791102 0) scale(0.996264)"/>
    <use xlink:href="#CMR17-61" transform="translate(108.276762 0) scale(0.996264)"/>
    <use xlink:href="#CMR17-63" transform="translate(153.96724 0) scale(0.996264)"/>
    <use xlink:href="#CMR17-74" transform="translate(194.4529 0) scale(0.996264)"/>
    <use xlink:href="#CMR17-69" transform="translate(229.733668 0) scale(0.996264)"/>
    <use xlink:href="#CMR17-76" transform="translate(254.604726 0) scale(0.996264)"/>
    <use xlink:href="#CMR17-69" transform="translate(302.897642 0) scale(0.996264)"/>
    <use xlink:href="#CMR17-74" transform="translate(327.768701 0) scale(0.996264)"/>
    <use xlink:href="#CMR17-79" transform="translate(360.447014 0) scale(0.996264)"/>
   </g>
  </g>
 </g>
 <defs>
  <clipPath id="p73df73b50c">
   <rect x="48.559071" y="51.564121" width="886.958601" height="469.58891"/>
  </clipPath>
 </defs>
</svg>
