<?xml version="1.0" encoding="utf-8" standalone="no"?>
<!DOCTYPE svg PUBLIC "-//W3C//DTD SVG 1.1//EN"
  "http://www.w3.org/Graphics/SVG/1.1/DTD/svg11.dtd">
<svg xmlns:xlink="http://www.w3.org/1999/xlink" width="1080pt" height="576pt" viewBox="0 0 1080 576" xmlns="http://www.w3.org/2000/svg" version="1.1">
 <metadata>
  <rdf:RDF xmlns:dc="http://purl.org/dc/elements/1.1/" xmlns:cc="http://creativecommons.org/ns#" xmlns:rdf="http://www.w3.org/1999/02/22-rdf-syntax-ns#">
   <cc:Work>
    <dc:type rdf:resource="http://purl.org/dc/dcmitype/StillImage"/>
    <dc:date>2024-08-15T10:56:18.189267</dc:date>
    <dc:format>image/svg+xml</dc:format>
    <dc:creator>
     <cc:Agent>
      <dc:title>Matplotlib v3.9.0, https://matplotlib.org/</dc:title>
     </cc:Agent>
    </dc:creator>
   </cc:Work>
  </rdf:RDF>
 </metadata>
 <defs>
  <style type="text/css">*{stroke-linejoin: round; stroke-linecap: butt}</style>
 </defs>
 <g id="figure_1">
  <g id="patch_1">
   <path d="M 0 576 
L 1080 576 
L 1080 0 
L 0 0 
z
" style="fill: #ffffff"/>
  </g>
  <g id="axes_1">
   <g id="patch_2">
    <path d="M 120.239066 470.718409 
L 1020.166666 470.718409 
L 1020.166666 54 
L 120.239066 54 
z
" style="fill: #ffffff"/>
   </g>
   <g id="matplotlib.axis_1">
    <g id="xtick_1">
     <g id="line2d_1">
      <defs>
       <path id="m6eb2075831" d="M 0 0 
L 0 3.5 
" style="stroke: #262626; stroke-width: 0.8"/>
      </defs>
      <g>
       <use xlink:href="#m6eb2075831" x="120.239066" y="470.718409" style="fill: #262626; stroke: #262626; stroke-width: 0.8"/>
      </g>
     </g>
     <g id="text_1">
      <!-- $\mathdefault{0}$ -->
      <g style="fill: #262626" transform="translate(108.816446 512.310916) scale(0.5 -0.5)">
       <defs>
        <path id="CMR17-30" d="M 2688 2025 
C 2688 2416 2682 3080 2413 3591 
C 2176 4039 1798 4198 1466 4198 
C 1158 4198 768 4058 525 3597 
C 269 3118 243 2524 243 2025 
C 243 1661 250 1106 448 619 
C 723 -39 1216 -128 1466 -128 
C 1760 -128 2208 -7 2470 600 
C 2662 1042 2688 1559 2688 2025 
z
M 1466 -26 
C 1056 -26 813 325 723 812 
C 653 1188 653 1738 653 2096 
C 653 2588 653 2997 736 3387 
C 858 3929 1216 4096 1466 4096 
C 1728 4096 2067 3923 2189 3400 
C 2272 3036 2278 2607 2278 2096 
C 2278 1680 2278 1169 2202 792 
C 2067 95 1690 -26 1466 -26 
z
" transform="scale(0.015625)"/>
       </defs>
       <use xlink:href="#CMR17-30" transform="scale(0.996264)"/>
      </g>
     </g>
    </g>
    <g id="xtick_2">
     <g id="line2d_2">
      <g>
       <use xlink:href="#m6eb2075831" x="334.507542" y="470.718409" style="fill: #262626; stroke: #262626; stroke-width: 0.8"/>
      </g>
     </g>
     <g id="text_2">
      <!-- $\mathdefault{250}$ -->
      <g style="fill: #262626" transform="translate(300.239684 512.310916) scale(0.5 -0.5)">
       <defs>
        <path id="CMR17-32" d="M 2669 989 
L 2554 989 
C 2490 536 2438 459 2413 420 
C 2381 369 1920 369 1830 369 
L 602 369 
C 832 619 1280 1072 1824 1597 
C 2214 1967 2669 2402 2669 3035 
C 2669 3790 2067 4224 1395 4224 
C 691 4224 262 3604 262 3030 
C 262 2780 448 2748 525 2748 
C 589 2748 781 2787 781 3010 
C 781 3207 614 3264 525 3264 
C 486 3264 448 3258 422 3245 
C 544 3790 915 4058 1306 4058 
C 1862 4058 2227 3617 2227 3035 
C 2227 2479 1901 2000 1536 1584 
L 262 146 
L 262 0 
L 2515 0 
L 2669 989 
z
" transform="scale(0.015625)"/>
        <path id="CMR17-35" d="M 730 3692 
C 794 3666 1056 3584 1325 3584 
C 1920 3584 2246 3911 2432 4100 
C 2432 4157 2432 4192 2394 4192 
C 2387 4192 2374 4192 2323 4163 
C 2099 4058 1837 3973 1517 3973 
C 1325 3973 1037 3999 723 4139 
C 653 4171 640 4171 634 4171 
C 602 4171 595 4164 595 4037 
L 595 2203 
C 595 2089 595 2057 659 2057 
C 691 2057 704 2070 736 2114 
C 941 2401 1222 2522 1542 2522 
C 1766 2522 2246 2382 2246 1289 
C 2246 1085 2246 715 2054 421 
C 1894 159 1645 25 1370 25 
C 947 25 518 320 403 814 
C 429 807 480 795 506 795 
C 589 795 749 840 749 1038 
C 749 1210 627 1280 506 1280 
C 358 1280 262 1190 262 1011 
C 262 454 704 -128 1382 -128 
C 2042 -128 2669 440 2669 1264 
C 2669 2030 2170 2624 1549 2624 
C 1222 2624 947 2503 730 2274 
L 730 3692 
z
" transform="scale(0.015625)"/>
       </defs>
       <use xlink:href="#CMR17-32" transform="scale(0.996264)"/>
       <use xlink:href="#CMR17-35" transform="translate(45.690477 0) scale(0.996264)"/>
       <use xlink:href="#CMR17-30" transform="translate(91.380954 0) scale(0.996264)"/>
      </g>
     </g>
    </g>
    <g id="xtick_3">
     <g id="line2d_3">
      <g>
       <use xlink:href="#m6eb2075831" x="548.776018" y="470.718409" style="fill: #262626; stroke: #262626; stroke-width: 0.8"/>
      </g>
     </g>
     <g id="text_3">
      <!-- $\mathdefault{500}$ -->
      <g style="fill: #262626" transform="translate(514.50816 512.310916) scale(0.5 -0.5)">
       <use xlink:href="#CMR17-35" transform="scale(0.996264)"/>
       <use xlink:href="#CMR17-30" transform="translate(45.690477 0) scale(0.996264)"/>
       <use xlink:href="#CMR17-30" transform="translate(91.380954 0) scale(0.996264)"/>
      </g>
     </g>
    </g>
    <g id="xtick_4">
     <g id="line2d_4">
      <g>
       <use xlink:href="#m6eb2075831" x="763.044494" y="470.718409" style="fill: #262626; stroke: #262626; stroke-width: 0.8"/>
      </g>
     </g>
     <g id="text_4">
      <!-- $\mathdefault{750}$ -->
      <g style="fill: #262626" transform="translate(728.776636 512.310916) scale(0.5 -0.5)">
       <defs>
        <path id="CMR17-37" d="M 2886 3941 
L 2886 4081 
L 1382 4081 
C 634 4081 621 4165 595 4288 
L 480 4288 
L 294 3094 
L 410 3094 
C 429 3215 474 3540 550 3661 
C 589 3712 1062 3712 1171 3712 
L 2579 3712 
L 1869 2661 
C 1395 1954 1069 999 1069 165 
C 1069 89 1069 -128 1299 -128 
C 1530 -128 1530 89 1530 171 
L 1530 465 
C 1530 1508 1709 2196 2003 2636 
L 2886 3941 
z
" transform="scale(0.015625)"/>
       </defs>
       <use xlink:href="#CMR17-37" transform="scale(0.996264)"/>
       <use xlink:href="#CMR17-35" transform="translate(45.690477 0) scale(0.996264)"/>
       <use xlink:href="#CMR17-30" transform="translate(91.380954 0) scale(0.996264)"/>
      </g>
     </g>
    </g>
    <g id="xtick_5">
     <g id="line2d_5">
      <g>
       <use xlink:href="#m6eb2075831" x="977.31297" y="470.718409" style="fill: #262626; stroke: #262626; stroke-width: 0.8"/>
      </g>
     </g>
     <g id="text_5">
      <!-- $\mathdefault{1000}$ -->
      <g style="fill: #262626" transform="translate(931.622493 512.310916) scale(0.5 -0.5)">
       <defs>
        <path id="CMR17-31" d="M 1702 4058 
C 1702 4192 1696 4192 1606 4192 
C 1357 3916 979 3827 621 3827 
C 602 3827 570 3827 563 3808 
C 557 3795 557 3782 557 3648 
C 755 3648 1088 3686 1344 3839 
L 1344 461 
C 1344 236 1331 160 781 160 
L 589 160 
L 589 0 
C 896 0 1216 0 1523 0 
C 1830 0 2150 0 2458 0 
L 2458 160 
L 2266 160 
C 1715 160 1702 230 1702 458 
L 1702 4058 
z
" transform="scale(0.015625)"/>
       </defs>
       <use xlink:href="#CMR17-31" transform="scale(0.996264)"/>
       <use xlink:href="#CMR17-30" transform="translate(45.690477 0) scale(0.996264)"/>
       <use xlink:href="#CMR17-30" transform="translate(91.380954 0) scale(0.996264)"/>
       <use xlink:href="#CMR17-30" transform="translate(137.071431 0) scale(0.996264)"/>
      </g>
     </g>
    </g>
    <g id="text_6">
     <!-- $s$ -->
     <g style="fill: #262626" transform="translate(558.715358 560.592507) scale(0.5 -0.5)">
      <defs>
       <path id="CMMI12-73" d="M 1459 1280 
C 1568 1261 1741 1223 1779 1216 
C 1862 1192 2150 1090 2150 783 
C 2150 586 1971 70 1229 70 
C 1094 70 614 70 486 436 
C 742 404 870 603 870 745 
C 870 880 781 950 653 950 
C 512 950 326 841 326 552 
C 326 173 710 -64 1222 -64 
C 2195 -64 2483 651 2483 984 
C 2483 1079 2483 1258 2278 1462 
C 2118 1616 1965 1648 1619 1718 
C 1446 1756 1171 1814 1171 2101 
C 1171 2229 1286 2689 1894 2689 
C 2163 2689 2426 2589 2490 2368 
C 2208 2368 2195 2125 2195 2119 
C 2195 1984 2317 1946 2374 1946 
C 2464 1946 2643 2015 2643 2281 
C 2643 2545 2400 2816 1901 2816 
C 1062 2816 838 2160 838 1899 
C 838 1414 1312 1312 1459 1280 
z
" transform="scale(0.015625)"/>
      </defs>
      <use xlink:href="#CMMI12-73" transform="scale(0.996264)"/>
     </g>
    </g>
   </g>
   <g id="matplotlib.axis_2">
    <g id="ytick_1">
     <g id="line2d_6">
      <defs>
       <path id="mc25efc13a9" d="M 0 0 
L -3.5 0 
" style="stroke: #262626; stroke-width: 0.8"/>
      </defs>
      <g>
       <use xlink:href="#mc25efc13a9" x="120.239066" y="453.256478" style="fill: #262626; stroke: #262626; stroke-width: 0.8"/>
      </g>
     </g>
     <g id="text_7">
      <!-- $\mathdefault{0.0}$ -->
      <g style="fill: #262626" transform="translate(54 470.552732) scale(0.5 -0.5)">
       <defs>
        <path id="CMMI12-3a" d="M 1178 307 
C 1178 492 1024 619 870 619 
C 685 619 557 466 557 313 
C 557 128 710 0 864 0 
C 1050 0 1178 153 1178 307 
z
" transform="scale(0.015625)"/>
       </defs>
       <use xlink:href="#CMR17-30" transform="scale(0.996264)"/>
       <use xlink:href="#CMMI12-3a" transform="translate(45.690477 0) scale(0.996264)"/>
       <use xlink:href="#CMR17-30" transform="translate(72.787654 0) scale(0.996264)"/>
      </g>
     </g>
    </g>
    <g id="ytick_2">
     <g id="line2d_7">
      <g>
       <use xlink:href="#mc25efc13a9" x="120.239066" y="294.792006" style="fill: #262626; stroke: #262626; stroke-width: 0.8"/>
      </g>
     </g>
     <g id="text_8">
      <!-- $\mathdefault{0.5}$ -->
      <g style="fill: #262626" transform="translate(54 312.08826) scale(0.5 -0.5)">
       <use xlink:href="#CMR17-30" transform="scale(0.996264)"/>
       <use xlink:href="#CMMI12-3a" transform="translate(45.690477 0) scale(0.996264)"/>
       <use xlink:href="#CMR17-35" transform="translate(72.787654 0) scale(0.996264)"/>
      </g>
     </g>
    </g>
    <g id="ytick_3">
     <g id="line2d_8">
      <g>
       <use xlink:href="#mc25efc13a9" x="120.239066" y="136.327535" style="fill: #262626; stroke: #262626; stroke-width: 0.8"/>
      </g>
     </g>
     <g id="text_9">
      <!-- $\mathdefault{1.0}$ -->
      <g style="fill: #262626" transform="translate(54 153.623788) scale(0.5 -0.5)">
       <use xlink:href="#CMR17-31" transform="scale(0.996264)"/>
       <use xlink:href="#CMMI12-3a" transform="translate(45.690477 0) scale(0.996264)"/>
       <use xlink:href="#CMR17-30" transform="translate(72.787654 0) scale(0.996264)"/>
      </g>
     </g>
    </g>
    <g id="text_10">
     <!-- $j$ -->
     <g style="fill: #262626" transform="translate(40.310916 272.448627) rotate(-90) scale(0.5 -0.5)">
      <defs>
       <path id="CMMI12-6a" d="M 2240 2028 
C 2266 2131 2266 2219 2266 2245 
C 2266 2613 1990 2816 1702 2816 
C 1056 2816 710 1889 710 1845 
C 710 1813 736 1788 774 1788 
C 826 1788 832 1813 864 1876 
C 1120 2492 1440 2689 1683 2689 
C 1818 2689 1888 2618 1888 2397 
C 1888 2245 1869 2181 1843 2067 
L 1235 -327 
C 1114 -796 813 -1152 461 -1152 
C 435 -1152 301 -1152 179 -1088 
C 333 -1056 454 -936 454 -784 
C 454 -682 378 -580 237 -580 
C 70 -580 -83 -720 -83 -911 
C -83 -1171 198 -1280 461 -1280 
C 902 -1280 1485 -956 1645 -320 
L 2240 2028 
z
M 2502 4013 
C 2502 4173 2368 4224 2291 4224 
C 2118 4224 1971 4058 1971 3917 
C 1971 3822 2048 3707 2189 3707 
C 2336 3707 2502 3847 2502 4013 
z
" transform="scale(0.015625)"/>
      </defs>
      <use xlink:href="#CMMI12-6a" transform="scale(0.996264)"/>
     </g>
    </g>
   </g>
   <g id="line2d_9">
    <path d="M 120.239066 72.941746 
L 124.952972 85.214956 
L 129.666879 96.903093 
L 134.380785 108.042781 
L 139.523229 119.609315 
L 144.665672 130.603743 
L 149.808115 141.063202 
L 154.950559 151.021861 
L 160.093002 160.511203 
L 165.235446 169.560275 
L 170.806426 178.897676 
L 176.377406 187.781286 
L 181.948387 196.240054 
L 187.519367 204.300656 
L 193.090348 211.987706 
L 199.089865 219.874353 
L 205.089382 227.380312 
L 211.0889 234.529707 
L 217.088417 241.344777 
L 223.516471 248.298937 
L 229.944525 254.916138 
L 236.37258 261.217812 
L 242.800634 267.223713 
L 249.657225 273.324513 
L 256.513817 279.12991 
L 263.798945 284.995442 
L 271.084073 290.569378 
L 278.369201 295.870735 
L 286.082866 301.206255 
L 293.796531 306.274864 
L 301.938733 311.35483 
L 310.080936 316.175804 
L 318.651675 320.989729 
L 327.222414 325.554353 
L 336.22169 330.097397 
L 345.649503 334.601488 
L 355.077316 338.862844 
L 364.933665 343.076948 
L 375.218552 347.230665 
L 385.931976 351.312468 
L 397.073937 355.312387 
L 408.644435 359.221935 
L 420.643469 363.034031 
L 433.071041 366.742906 
L 445.927149 370.344006 
L 459.211795 373.833891 
L 472.924978 377.210138 
L 487.495234 380.566758 
L 502.494027 383.795109 
L 518.349894 386.979483 
L 535.062836 390.104564 
L 552.632851 393.157385 
L 571.05994 396.127216 
L 590.344102 399.005427 
L 610.485339 401.785324 
L 631.912187 404.514401 
L 654.196108 407.128609 
L 677.765641 409.671159 
L 703.049321 412.171739 
L 729.618612 414.574439 
L 757.902051 416.907645 
L 787.899638 419.158833 
L 820.039909 421.346335 
L 854.322865 423.455456 
L 891.177043 425.497706 
L 930.602443 427.458403 
L 973.456138 429.362901 
L 977.31297 429.523876 
L 977.31297 429.523876 
" clip-path="url(#p4fc930bee6)" style="fill: none; stroke: #1f77b4; stroke-width: 5; stroke-linecap: round"/>
   </g>
   <g id="line2d_10">
    <path d="M 120.239066 72.941746 
L 123.667361 90.636162 
L 127.095657 107.122174 
L 130.523953 122.507471 
L 133.952248 136.887996 
L 137.380544 150.349457 
L 140.808839 162.968606 
L 144.237135 174.814342 
L 148.093968 187.293268 
L 151.9508 198.950744 
L 155.807633 209.857377 
L 159.664465 220.076345 
L 163.521298 229.664311 
L 167.37813 238.672218 
L 171.234963 247.145967 
L 175.091796 255.127003 
L 179.377165 263.462437 
L 183.662535 271.282196 
L 187.947904 278.627985 
L 192.233274 285.537375 
L 196.518643 292.044286 
L 200.804013 298.179403 
L 205.517919 304.531725 
L 210.231826 310.501246 
L 214.945732 316.118135 
L 219.659639 321.409647 
L 224.802082 326.840041 
L 229.944525 331.941454 
L 235.086969 336.739947 
L 240.657949 341.623715 
L 246.22893 346.206513 
L 251.79991 350.512586 
L 257.799427 354.865437 
L 263.798945 358.947222 
L 270.226999 363.04478 
L 276.655053 366.880799 
L 283.511645 370.708804 
L 290.368236 374.287697 
L 297.653364 377.840953 
L 305.367029 381.347872 
L 313.080694 384.6156 
L 321.222896 387.828848 
L 329.793635 390.973291 
L 338.792911 394.036964 
L 348.220724 397.010138 
L 358.077074 399.885149 
L 368.361961 402.656226 
L 379.503922 405.421411 
L 391.07442 408.059639 
L 403.501991 410.657239 
L 416.3581 413.115547 
L 430.071282 415.510256 
L 444.641539 417.827104 
L 460.068869 420.055111 
L 476.78181 422.239558 
L 494.351825 424.311405 
L 513.207451 426.312027 
L 533.777225 428.266737 
L 555.632609 430.119313 
L 579.630679 431.925728 
L 605.342896 433.636003 
L 633.626335 435.290029 
L 664.480995 436.866624 
L 698.335414 438.368991 
L 735.618129 439.796301 
L 776.757677 441.145377 
L 822.611131 442.423087 
L 874.035565 443.629412 
L 931.888054 444.760408 
L 977.31297 445.514365 
L 977.31297 445.514365 
" clip-path="url(#p4fc930bee6)" style="fill: none; stroke: #2ca02c; stroke-width: 5; stroke-linecap: round"/>
   </g>
   <g id="line2d_11">
    <path d="M 120.239066 72.941746 
L 122.810287 92.80342 
L 125.381509 111.145769 
L 128.381268 130.825755 
L 131.381026 148.852012 
L 134.380785 165.405016 
L 137.380544 180.641254 
L 140.380302 194.696951 
L 143.380061 207.691144 
L 146.37982 219.728223 
L 149.379578 230.90004 
L 152.379337 241.287679 
L 155.379096 250.962933 
L 158.807391 261.229517 
L 162.235687 270.732784 
L 165.663983 279.546652 
L 169.092278 287.736293 
L 172.520574 295.35935 
L 175.948869 302.46696 
L 179.377165 309.104612 
L 183.233998 316.060574 
L 187.09083 322.524315 
L 190.947663 328.541244 
L 194.804495 334.151651 
L 198.661328 339.391379 
L 202.946697 344.81733 
L 207.232067 349.864058 
L 211.517437 354.566123 
L 215.802806 358.954235 
L 220.516713 363.45111 
L 225.230619 367.633513 
L 229.944525 371.530117 
L 235.086969 375.484868 
L 240.229412 379.15909 
L 245.800393 382.852936 
L 251.371373 386.277056 
L 257.37089 389.692279 
L 263.370408 392.852582 
L 269.798462 395.983817 
L 276.655053 399.062608 
L 283.511645 401.899462 
L 290.796773 404.676117 
L 298.510438 407.377457 
L 306.65264 409.991367 
L 315.223379 412.508514 
L 324.222655 414.922077 
L 334.079005 417.327274 
L 344.363892 419.603332 
L 355.505853 421.833178 
L 367.07635 423.921999 
L 379.503922 425.94163 
L 392.788567 427.878162 
L 407.358824 429.774327 
L 423.214691 431.605933 
L 440.356169 433.354895 
L 458.783258 435.008656 
L 478.924495 436.590931 
L 501.208416 438.112994 
L 525.635023 439.553555 
L 552.632851 440.918882 
L 582.630437 442.209518 
L 616.05632 443.422652 
L 653.767571 444.565915 
L 696.621267 445.638655 
L 745.903016 446.643735 
L 802.898431 447.576467 
L 869.321658 448.434303 
L 947.743921 449.218493 
L 977.31297 449.465147 
L 977.31297 449.465147 
" clip-path="url(#p4fc930bee6)" style="fill: none; stroke: #8c564b; stroke-width: 5; stroke-linecap: round"/>
   </g>
   <g id="line2d_12">
    <path d="M 120.239066 72.941746 
L 122.38175 94.960856 
L 124.952972 118.942668 
L 127.524194 140.588879 
L 130.095416 160.193756 
L 132.666637 178.00658 
L 135.237859 194.23966 
L 137.809081 209.074728 
L 140.380302 222.668083 
L 142.951524 235.15475 
L 145.522746 246.651864 
L 148.093968 257.261446 
L 151.093726 268.635913 
L 154.093485 279.046335 
L 157.093244 288.598804 
L 160.093002 297.385194 
L 163.092761 305.485389 
L 166.09252 312.969116 
L 169.092278 319.897457 
L 172.092037 326.324104 
L 175.520333 333.115011 
L 178.948628 339.37434 
L 182.376924 345.156221 
L 185.805219 350.508058 
L 189.233515 355.471509 
L 193.090348 360.636714 
L 196.94718 365.402666 
L 200.804013 369.809519 
L 204.660845 373.892496 
L 208.946215 378.08687 
L 213.231584 381.956913 
L 217.516954 385.53525 
L 222.23086 389.168555 
L 226.944767 392.516795 
L 232.08721 395.878379 
L 237.229654 398.968136 
L 242.800634 402.041654 
L 248.371614 404.861106 
L 254.371132 407.644503 
L 260.799186 410.368161 
L 267.22724 412.85473 
L 274.083832 415.275822 
L 281.36896 417.617094 
L 289.082625 419.867545 
L 297.653364 422.126626 
L 306.65264 424.260341 
L 316.080453 426.268498 
L 326.36534 428.230047 
L 337.507301 430.122968 
L 349.506335 431.930816 
L 362.362444 433.642173 
L 376.504163 435.296987 
L 391.931493 436.874096 
L 408.644435 438.359029 
L 427.071524 439.773646 
L 447.641297 441.127076 
L 470.782293 442.41953 
L 496.49451 443.627248 
L 525.635023 444.766956 
L 558.632368 445.829131 
L 596.34362 446.815898 
L 640.054389 447.731976 
L 691.478823 448.579778 
L 752.33107 449.352992 
L 825.610889 450.053994 
L 915.603649 450.68382 
L 977.31297 451.014083 
L 977.31297 451.014083 
" clip-path="url(#p4fc930bee6)" style="fill: none; stroke: #7f7f7f; stroke-width: 5; stroke-linecap: round"/>
   </g>
   <g id="line2d_13">
    <path d="M 120.239066 72.941746 
L 122.38175 100.223956 
L 124.524435 124.663061 
L 126.66712 146.641708 
L 128.809805 166.480157 
L 130.952489 184.44812 
L 133.095174 200.774054 
L 135.237859 215.652514 
L 137.809081 231.828787 
L 140.380302 246.403456 
L 142.951524 259.581565 
L 145.522746 271.536319 
L 148.093968 282.414844 
L 150.665189 292.342767 
L 153.236411 301.427881 
L 155.807633 309.763105 
L 158.378854 317.428881 
L 161.378613 325.618955 
L 164.378372 333.088554 
L 167.37813 339.919891 
L 170.377889 346.183763 
L 173.377648 351.941409 
L 176.377406 357.246013 
L 179.377165 362.14395 
L 182.805461 367.295457 
L 186.233756 372.021401 
L 189.662052 376.367451 
L 193.090348 380.373305 
L 196.94718 384.51621 
L 200.804013 388.315149 
L 204.660845 391.807211 
L 208.946215 395.366404 
L 213.231584 398.624688 
L 217.516954 401.615081 
L 222.23086 404.629133 
L 226.944767 407.386494 
L 232.08721 410.134997 
L 237.658191 412.842468 
L 243.229171 415.302451 
L 249.228688 417.708391 
L 255.656743 420.040604 
L 262.513334 422.283826 
L 269.798462 424.42684 
L 277.512127 426.462019 
L 285.654329 428.384832 
L 294.653605 430.278544 
L 304.509955 432.114504 
L 315.223379 433.871042 
L 326.793877 435.532899 
L 339.221448 437.090414 
L 352.934631 438.582029 
L 367.933424 439.988672 
L 384.646365 441.33022 
L 403.501991 442.613079 
L 424.500302 443.812271 
L 448.069834 444.931706 
L 475.067662 445.985558 
L 505.922323 446.962105 
L 541.919427 447.871657 
L 583.916048 448.703913 
L 634.054872 449.467345 
L 694.478582 450.156986 
L 769.044012 450.776396 
L 862.893604 451.323632 
L 977.31297 451.776663 
L 977.31297 451.776663 
" clip-path="url(#p4fc930bee6)" style="fill: none; stroke: #17becf; stroke-width: 5; stroke-linecap: round"/>
   </g>
   <g id="patch_3">
    <path d="M 120.239066 470.718409 
L 120.239066 54 
" style="fill: none; stroke: #262626; stroke-width: 0.8; stroke-linejoin: miter; stroke-linecap: square"/>
   </g>
   <g id="patch_4">
    <path d="M 120.239066 470.718409 
L 1020.166666 470.718409 
" style="fill: none; stroke: #262626; stroke-width: 0.8; stroke-linejoin: miter; stroke-linecap: square"/>
   </g>
  </g>
 </g>
 <defs>
  <clipPath id="p4fc930bee6">
   <rect x="120.239066" y="54" width="899.9276" height="416.718409"/>
  </clipPath>
 </defs>
</svg>
