<?xml version="1.0" encoding="utf-8" standalone="no"?>
<!DOCTYPE svg PUBLIC "-//W3C//DTD SVG 1.1//EN"
  "http://www.w3.org/Graphics/SVG/1.1/DTD/svg11.dtd">
<svg xmlns:xlink="http://www.w3.org/1999/xlink" width="1080pt" height="756pt" viewBox="0 0 1080 756" xmlns="http://www.w3.org/2000/svg" version="1.1">
 <metadata>
  <rdf:RDF xmlns:dc="http://purl.org/dc/elements/1.1/" xmlns:cc="http://creativecommons.org/ns#" xmlns:rdf="http://www.w3.org/1999/02/22-rdf-syntax-ns#">
   <cc:Work>
    <dc:type rdf:resource="http://purl.org/dc/dcmitype/StillImage"/>
    <dc:date>2024-07-31T10:19:28.834066</dc:date>
    <dc:format>image/svg+xml</dc:format>
    <dc:creator>
     <cc:Agent>
      <dc:title>Matplotlib v3.9.0, https://matplotlib.org/</dc:title>
     </cc:Agent>
    </dc:creator>
   </cc:Work>
  </rdf:RDF>
 </metadata>
 <defs>
  <style type="text/css">*{stroke-linejoin: round; stroke-linecap: butt}</style>
 </defs>
 <g id="figure_1">
  <g id="patch_1">
   <path d="M 0 756 
L 1080 756 
L 1080 0 
L 0 0 
z
" style="fill: #ffffff"/>
  </g>
  <g id="axes_1">
   <g id="patch_2">
    <path d="M 88.532127 678.237256 
L 1041.12 678.237256 
L 1041.12 38.88 
L 88.532127 38.88 
z
" style="fill: #ffffff"/>
   </g>
   <g id="matplotlib.axis_1">
    <g id="xtick_1">
     <g id="line2d_1">
      <defs>
       <path id="m3ebb1eaf69" d="M 0 0 
L 0 3.5 
" style="stroke: #262626; stroke-width: 0.8"/>
      </defs>
      <g>
       <use xlink:href="#m3ebb1eaf69" x="88.532127" y="678.237256" style="fill: #262626; stroke: #262626; stroke-width: 0.8"/>
      </g>
     </g>
     <g id="text_1">
      <!-- $\mathdefault{0}$ -->
      <g style="fill: #262626" transform="translate(80.307841 710.143856) scale(0.36 -0.36)">
       <defs>
        <path id="CMR17-30" d="M 2688 2025 
C 2688 2416 2682 3080 2413 3591 
C 2176 4039 1798 4198 1466 4198 
C 1158 4198 768 4058 525 3597 
C 269 3118 243 2524 243 2025 
C 243 1661 250 1106 448 619 
C 723 -39 1216 -128 1466 -128 
C 1760 -128 2208 -7 2470 600 
C 2662 1042 2688 1559 2688 2025 
z
M 1466 -26 
C 1056 -26 813 325 723 812 
C 653 1188 653 1738 653 2096 
C 653 2588 653 2997 736 3387 
C 858 3929 1216 4096 1466 4096 
C 1728 4096 2067 3923 2189 3400 
C 2272 3036 2278 2607 2278 2096 
C 2278 1680 2278 1169 2202 792 
C 2067 95 1690 -26 1466 -26 
z
" transform="scale(0.015625)"/>
       </defs>
       <use xlink:href="#CMR17-30" transform="scale(0.996264)"/>
      </g>
     </g>
    </g>
    <g id="xtick_2">
     <g id="line2d_2">
      <g>
       <use xlink:href="#m3ebb1eaf69" x="269.977436" y="678.237256" style="fill: #262626; stroke: #262626; stroke-width: 0.8"/>
      </g>
     </g>
     <g id="text_2">
      <!-- $\mathdefault{200}$ -->
      <g style="fill: #262626" transform="translate(245.304579 710.143856) scale(0.36 -0.36)">
       <defs>
        <path id="CMR17-32" d="M 2669 989 
L 2554 989 
C 2490 536 2438 459 2413 420 
C 2381 369 1920 369 1830 369 
L 602 369 
C 832 619 1280 1072 1824 1597 
C 2214 1967 2669 2402 2669 3035 
C 2669 3790 2067 4224 1395 4224 
C 691 4224 262 3604 262 3030 
C 262 2780 448 2748 525 2748 
C 589 2748 781 2787 781 3010 
C 781 3207 614 3264 525 3264 
C 486 3264 448 3258 422 3245 
C 544 3790 915 4058 1306 4058 
C 1862 4058 2227 3617 2227 3035 
C 2227 2479 1901 2000 1536 1584 
L 262 146 
L 262 0 
L 2515 0 
L 2669 989 
z
" transform="scale(0.015625)"/>
       </defs>
       <use xlink:href="#CMR17-32" transform="scale(0.996264)"/>
       <use xlink:href="#CMR17-30" transform="translate(45.690477 0) scale(0.996264)"/>
       <use xlink:href="#CMR17-30" transform="translate(91.380954 0) scale(0.996264)"/>
      </g>
     </g>
    </g>
    <g id="xtick_3">
     <g id="line2d_3">
      <g>
       <use xlink:href="#m3ebb1eaf69" x="451.422745" y="678.237256" style="fill: #262626; stroke: #262626; stroke-width: 0.8"/>
      </g>
     </g>
     <g id="text_3">
      <!-- $\mathdefault{400}$ -->
      <g style="fill: #262626" transform="translate(426.749888 710.143856) scale(0.36 -0.36)">
       <defs>
        <path id="CMR17-34" d="M 2150 4122 
C 2150 4256 2144 4256 2029 4256 
L 128 1254 
L 128 1088 
L 1779 1088 
L 1779 457 
C 1779 224 1766 160 1318 160 
L 1197 160 
L 1197 0 
C 1402 0 1747 0 1965 0 
C 2182 0 2528 0 2733 0 
L 2733 160 
L 2611 160 
C 2163 160 2150 224 2150 457 
L 2150 1088 
L 2803 1088 
L 2803 1254 
L 2150 1254 
L 2150 4122 
z
M 1798 3703 
L 1798 1254 
L 256 1254 
L 1798 3703 
z
" transform="scale(0.015625)"/>
       </defs>
       <use xlink:href="#CMR17-34" transform="scale(0.996264)"/>
       <use xlink:href="#CMR17-30" transform="translate(45.690477 0) scale(0.996264)"/>
       <use xlink:href="#CMR17-30" transform="translate(91.380954 0) scale(0.996264)"/>
      </g>
     </g>
    </g>
    <g id="xtick_4">
     <g id="line2d_4">
      <g>
       <use xlink:href="#m3ebb1eaf69" x="632.868055" y="678.237256" style="fill: #262626; stroke: #262626; stroke-width: 0.8"/>
      </g>
     </g>
     <g id="text_4">
      <!-- $\mathdefault{600}$ -->
      <g style="fill: #262626" transform="translate(608.195197 710.143856) scale(0.36 -0.36)">
       <defs>
        <path id="CMR17-36" d="M 678 2176 
C 678 3690 1395 4032 1811 4032 
C 1946 4032 2272 4009 2400 3776 
C 2298 3776 2106 3776 2106 3553 
C 2106 3381 2246 3323 2336 3323 
C 2394 3323 2566 3348 2566 3560 
C 2566 3954 2246 4179 1805 4179 
C 1043 4179 243 3390 243 1984 
C 243 253 966 -128 1478 -128 
C 2099 -128 2688 427 2688 1283 
C 2688 2081 2170 2662 1517 2662 
C 1126 2662 838 2407 678 1960 
L 678 2176 
z
M 1478 25 
C 691 25 691 1200 691 1436 
C 691 1896 909 2560 1504 2560 
C 1613 2560 1926 2560 2138 2120 
C 2253 1870 2253 1609 2253 1289 
C 2253 944 2253 690 2118 434 
C 1978 171 1773 25 1478 25 
z
" transform="scale(0.015625)"/>
       </defs>
       <use xlink:href="#CMR17-36" transform="scale(0.996264)"/>
       <use xlink:href="#CMR17-30" transform="translate(45.690477 0) scale(0.996264)"/>
       <use xlink:href="#CMR17-30" transform="translate(91.380954 0) scale(0.996264)"/>
      </g>
     </g>
    </g>
    <g id="xtick_5">
     <g id="line2d_5">
      <g>
       <use xlink:href="#m3ebb1eaf69" x="814.313364" y="678.237256" style="fill: #262626; stroke: #262626; stroke-width: 0.8"/>
      </g>
     </g>
     <g id="text_5">
      <!-- $\mathdefault{800}$ -->
      <g style="fill: #262626" transform="translate(789.640506 710.143856) scale(0.36 -0.36)">
       <defs>
        <path id="CMR17-38" d="M 1741 2264 
C 2144 2467 2554 2773 2554 3263 
C 2554 3841 1990 4179 1472 4179 
C 890 4179 378 3759 378 3180 
C 378 3021 416 2747 666 2505 
C 730 2442 998 2251 1171 2130 
C 883 1983 211 1634 211 934 
C 211 279 838 -128 1459 -128 
C 2144 -128 2720 362 2720 1010 
C 2720 1590 2330 1857 2074 2029 
L 1741 2264 
z
M 902 2822 
C 851 2854 595 3051 595 3351 
C 595 3739 998 4032 1459 4032 
C 1965 4032 2336 3676 2336 3262 
C 2336 2669 1670 2331 1638 2331 
C 1632 2331 1626 2331 1574 2370 
L 902 2822 
z
M 2080 1519 
C 2176 1449 2483 1240 2483 851 
C 2483 381 2010 25 1472 25 
C 890 25 448 438 448 940 
C 448 1443 838 1862 1280 2060 
L 2080 1519 
z
" transform="scale(0.015625)"/>
       </defs>
       <use xlink:href="#CMR17-38" transform="scale(0.996264)"/>
       <use xlink:href="#CMR17-30" transform="translate(45.690477 0) scale(0.996264)"/>
       <use xlink:href="#CMR17-30" transform="translate(91.380954 0) scale(0.996264)"/>
      </g>
     </g>
    </g>
    <g id="xtick_6">
     <g id="line2d_6">
      <g>
       <use xlink:href="#m3ebb1eaf69" x="995.758673" y="678.237256" style="fill: #262626; stroke: #262626; stroke-width: 0.8"/>
      </g>
     </g>
     <g id="text_6">
      <!-- $\mathdefault{1000}$ -->
      <g style="fill: #262626" transform="translate(962.861529 710.143856) scale(0.36 -0.36)">
       <defs>
        <path id="CMR17-31" d="M 1702 4058 
C 1702 4192 1696 4192 1606 4192 
C 1357 3916 979 3827 621 3827 
C 602 3827 570 3827 563 3808 
C 557 3795 557 3782 557 3648 
C 755 3648 1088 3686 1344 3839 
L 1344 461 
C 1344 236 1331 160 781 160 
L 589 160 
L 589 0 
C 896 0 1216 0 1523 0 
C 1830 0 2150 0 2458 0 
L 2458 160 
L 2266 160 
C 1715 160 1702 230 1702 458 
L 1702 4058 
z
" transform="scale(0.015625)"/>
       </defs>
       <use xlink:href="#CMR17-31" transform="scale(0.996264)"/>
       <use xlink:href="#CMR17-30" transform="translate(45.690477 0) scale(0.996264)"/>
       <use xlink:href="#CMR17-30" transform="translate(91.380954 0) scale(0.996264)"/>
       <use xlink:href="#CMR17-30" transform="translate(137.071431 0) scale(0.996264)"/>
      </g>
     </g>
    </g>
   </g>
   <g id="matplotlib.axis_2">
    <g id="ytick_1">
     <g id="line2d_7">
      <defs>
       <path id="m02fc72fc3a" d="M 0 0 
L -3.5 0 
" style="stroke: #262626; stroke-width: 0.8"/>
      </defs>
      <g>
       <use xlink:href="#m02fc72fc3a" x="88.532127" y="654.003217" style="fill: #262626; stroke: #262626; stroke-width: 0.8"/>
      </g>
     </g>
     <g id="text_7">
      <!-- $\mathdefault{0.0}$ -->
      <g style="fill: #262626" transform="translate(38.88 666.456517) scale(0.36 -0.36)">
       <defs>
        <path id="CMMI12-3a" d="M 1178 307 
C 1178 492 1024 619 870 619 
C 685 619 557 466 557 313 
C 557 128 710 0 864 0 
C 1050 0 1178 153 1178 307 
z
" transform="scale(0.015625)"/>
       </defs>
       <use xlink:href="#CMR17-30" transform="scale(0.996264)"/>
       <use xlink:href="#CMMI12-3a" transform="translate(45.690477 0) scale(0.996264)"/>
       <use xlink:href="#CMR17-30" transform="translate(72.787654 0) scale(0.996264)"/>
      </g>
     </g>
    </g>
    <g id="ytick_2">
     <g id="line2d_8">
      <g>
       <use xlink:href="#m02fc72fc3a" x="88.532127" y="507.487836" style="fill: #262626; stroke: #262626; stroke-width: 0.8"/>
      </g>
     </g>
     <g id="text_8">
      <!-- $\mathdefault{0.2}$ -->
      <g style="fill: #262626" transform="translate(38.88 519.941136) scale(0.36 -0.36)">
       <use xlink:href="#CMR17-30" transform="scale(0.996264)"/>
       <use xlink:href="#CMMI12-3a" transform="translate(45.690477 0) scale(0.996264)"/>
       <use xlink:href="#CMR17-32" transform="translate(72.787654 0) scale(0.996264)"/>
      </g>
     </g>
    </g>
    <g id="ytick_3">
     <g id="line2d_9">
      <g>
       <use xlink:href="#m02fc72fc3a" x="88.532127" y="360.972455" style="fill: #262626; stroke: #262626; stroke-width: 0.8"/>
      </g>
     </g>
     <g id="text_9">
      <!-- $\mathdefault{0.4}$ -->
      <g style="fill: #262626" transform="translate(38.88 373.425755) scale(0.36 -0.36)">
       <use xlink:href="#CMR17-30" transform="scale(0.996264)"/>
       <use xlink:href="#CMMI12-3a" transform="translate(45.690477 0) scale(0.996264)"/>
       <use xlink:href="#CMR17-34" transform="translate(72.787654 0) scale(0.996264)"/>
      </g>
     </g>
    </g>
    <g id="ytick_4">
     <g id="line2d_10">
      <g>
       <use xlink:href="#m02fc72fc3a" x="88.532127" y="214.457074" style="fill: #262626; stroke: #262626; stroke-width: 0.8"/>
      </g>
     </g>
     <g id="text_10">
      <!-- $\mathdefault{0.6}$ -->
      <g style="fill: #262626" transform="translate(38.88 226.910374) scale(0.36 -0.36)">
       <use xlink:href="#CMR17-30" transform="scale(0.996264)"/>
       <use xlink:href="#CMMI12-3a" transform="translate(45.690477 0) scale(0.996264)"/>
       <use xlink:href="#CMR17-36" transform="translate(72.787654 0) scale(0.996264)"/>
      </g>
     </g>
    </g>
    <g id="ytick_5">
     <g id="line2d_11">
      <g>
       <use xlink:href="#m02fc72fc3a" x="88.532127" y="67.941693" style="fill: #262626; stroke: #262626; stroke-width: 0.8"/>
      </g>
     </g>
     <g id="text_11">
      <!-- $\mathdefault{0.8}$ -->
      <g style="fill: #262626" transform="translate(38.88 80.394994) scale(0.36 -0.36)">
       <use xlink:href="#CMR17-30" transform="scale(0.996264)"/>
       <use xlink:href="#CMMI12-3a" transform="translate(45.690477 0) scale(0.996264)"/>
       <use xlink:href="#CMR17-38" transform="translate(72.787654 0) scale(0.996264)"/>
      </g>
     </g>
    </g>
   </g>
   <g id="line2d_12">
    <path d="M 88.532127 67.941693 
L 97.604393 79.49792 
L 107.130271 91.267833 
L 116.65615 102.679635 
L 126.182029 113.747711 
L 135.707908 124.48573 
L 145.6874 135.395229 
L 155.666892 145.970944 
L 165.646384 156.226357 
L 175.625876 166.174274 
L 186.058981 176.258797 
L 196.492086 186.033749 
L 206.925191 195.511675 
L 217.81191 205.097887 
L 228.698629 214.386504 
L 239.585347 223.389719 
L 250.925679 232.477055 
L 262.266011 241.279681 
L 274.059956 250.145038 
L 285.853901 258.727733 
L 297.647846 267.039657 
L 309.895404 275.396757 
L 322.142963 283.485971 
L 334.844134 291.603944 
L 347.545306 299.457965 
L 360.700091 307.326299 
L 373.854876 314.935531 
L 387.463274 322.546467 
L 401.071672 329.903944 
L 415.133684 337.252216 
L 429.195695 344.353338 
L 443.71132 351.435907 
L 458.680558 358.488256 
L 473.649796 365.296838 
L 489.072647 372.068511 
L 504.949112 378.79345 
L 521.279189 385.462538 
L 537.609267 391.892076 
L 554.392958 398.262509 
L 571.630263 404.566343 
L 589.32118 410.796727 
L 607.465711 416.947435 
L 626.063855 423.012851 
L 645.115613 428.987944 
L 664.620984 434.868247 
L 684.579968 440.649835 
L 704.992565 446.329297 
L 725.858775 451.903712 
L 747.178599 457.370624 
L 769.40565 462.837286 
L 792.086313 468.183795 
L 815.22059 473.409408 
L 839.262094 478.609758 
L 863.75721 483.680543 
L 889.159554 488.710311 
L 915.01551 493.604477 
L 941.778693 498.444896 
L 969.449103 503.222576 
L 995.758673 507.564021 
L 995.758673 507.564021 
" clip-path="url(#p8452973b9a)" style="fill: none; stroke: #1f77b4; stroke-width: 5; stroke-linecap: round"/>
   </g>
   <g id="line2d_13">
    <path d="M 88.532127 67.941693 
L 94.4291 82.90912 
L 100.326072 97.310134 
L 106.676658 112.217821 
L 113.027244 126.534334 
L 119.37783 140.290535 
L 125.728416 153.515296 
L 132.079001 166.235651 
L 138.429587 178.476938 
L 144.780173 190.262922 
L 151.584372 202.410835 
L 158.388571 214.087395 
L 165.19277 225.316683 
L 171.996969 236.121262 
L 178.801169 246.522289 
L 185.605368 256.53962 
L 192.86318 266.822844 
L 200.120992 276.711943 
L 207.378805 286.226808 
L 214.636617 295.386093 
L 222.348043 304.747782 
L 230.059468 313.747486 
L 237.770894 322.403632 
L 245.48232 330.733494 
L 253.647359 339.215694 
L 261.812397 347.368262 
L 269.977436 355.208063 
L 278.142475 362.750898 
L 286.761127 370.406964 
L 295.37978 377.764972 
L 303.998432 384.840197 
L 313.070697 391.998024 
L 322.142963 398.873989 
L 331.668841 405.806372 
L 341.19472 412.45991 
L 350.720599 418.849361 
L 360.700091 425.274844 
L 370.679583 431.440442 
L 381.112688 437.623422 
L 391.545793 443.55221 
L 402.432512 449.48262 
L 413.319231 455.165772 
L 424.659562 460.837405 
L 436.453507 466.482228 
L 448.247453 471.883117 
L 460.495011 477.24839 
L 473.196183 482.565704 
L 486.350967 487.823838 
L 499.505752 492.843663 
L 513.114151 497.8009 
L 527.176162 502.686836 
L 541.691787 507.493733 
L 556.661025 512.214799 
L 572.083876 516.844141 
L 587.960341 521.376722 
L 604.290418 525.808315 
L 621.074109 530.135447 
L 638.765027 534.463476 
L 656.909558 538.670983 
L 675.507702 542.757213 
L 695.013073 546.81374 
L 714.972057 550.739125 
L 735.838267 554.616739 
L 757.611705 558.434584 
L 780.292368 562.182189 
L 803.880258 565.850557 
L 828.375375 569.432089 
L 853.777718 572.920505 
L 880.540901 576.367327 
L 908.211311 579.704896 
L 937.242561 582.9804 
L 967.63465 586.182654 
L 995.758673 588.956815 
L 995.758673 588.956815 
" clip-path="url(#p8452973b9a)" style="fill: none; stroke: #ff7f0e; stroke-width: 5; stroke-linecap: round"/>
   </g>
   <g id="line2d_14">
    <path d="M 88.532127 67.941693 
L 93.521873 86.854598 
L 98.511619 104.86591 
L 103.501365 122.032068 
L 108.491111 138.40516 
L 113.480857 154.03332 
L 118.470603 168.961084 
L 123.460349 183.229708 
L 128.450095 196.877452 
L 133.893455 211.099465 
L 139.336814 224.667539 
L 144.780173 237.621179 
L 150.223532 249.996949 
L 155.666892 261.828732 
L 161.110251 273.147962 
L 166.55361 283.983835 
L 172.450583 295.20868 
L 178.347555 305.930111 
L 184.244528 316.177799 
L 190.1415 325.97926 
L 196.038473 335.36004 
L 201.935445 344.343884 
L 208.286031 353.600187 
L 214.636617 362.447366 
L 220.987203 370.90919 
L 227.337789 379.007726 
L 233.688375 386.763485 
L 240.492574 394.7145 
L 247.296773 402.315713 
L 254.100972 409.587354 
L 260.905171 416.54821 
L 268.162983 423.650226 
L 275.420796 430.438181 
L 282.678608 436.930328 
L 290.390034 443.523053 
L 298.101459 449.819807 
L 305.812885 455.83805 
L 313.977924 461.924715 
L 322.142963 467.735085 
L 330.761615 473.586695 
L 339.380267 479.166724 
L 348.452533 484.765222 
L 357.524798 490.098953 
L 367.050677 495.432388 
L 376.576555 500.509577 
L 386.556047 505.571288 
L 396.535539 510.386599 
L 406.968645 515.174404 
L 417.855363 519.919457 
L 428.742082 524.425249 
L 440.082414 528.881405 
L 451.876359 533.276227 
L 464.123917 537.599375 
L 476.825089 541.841821 
L 489.979874 545.995793 
L 503.588272 550.054714 
L 517.650283 554.013127 
L 532.165908 557.866622 
L 547.135146 561.611759 
L 563.011611 565.349604 
L 579.341688 568.962412 
L 596.125379 572.450156 
L 613.816297 575.8991 
L 632.414441 579.294169 
L 651.919812 582.622356 
L 671.878796 585.802848 
L 693.19862 588.970918 
L 715.42567 592.044351 
L 738.559947 595.017419 
L 763.055064 597.937975 
L 788.91102 600.791526 
L 816.127817 603.566114 
L 844.705453 606.252161 
L 874.643929 608.842284 
L 906.396858 611.365629 
L 939.96424 613.809895 
L 975.799689 616.194356 
L 995.758673 617.431494 
L 995.758673 617.431494 
" clip-path="url(#p8452973b9a)" style="fill: none; stroke: #2ca02c; stroke-width: 5; stroke-linecap: round"/>
   </g>
   <g id="line2d_15">
    <path d="M 88.532127 67.941693 
L 92.614647 88.54334 
L 96.697166 108.076471 
L 100.779686 126.613772 
L 105.315818 146.123644 
L 109.851951 164.569663 
L 114.388084 182.027845 
L 118.924217 198.567528 
L 123.460349 214.252073 
L 127.996482 229.139465 
L 132.532615 243.282854 
L 137.068747 256.731031 
L 141.60488 269.528852 
L 146.141013 281.717608 
L 151.130759 294.467113 
L 156.120505 306.572238 
L 161.110251 318.07571 
L 166.099997 329.01677 
L 171.089743 339.431512 
L 176.079489 349.353177 
L 181.069235 358.812422 
L 186.512594 368.637419 
L 191.955953 377.979619 
L 197.399313 386.870158 
L 202.842672 395.337704 
L 208.286031 403.408683 
L 213.729391 411.107488 
L 219.626363 419.053982 
L 225.523336 426.616565 
L 231.420308 433.819587 
L 237.317281 440.685495 
L 243.667867 447.726274 
L 250.018452 454.423944 
L 256.369038 460.800449 
L 262.719624 466.876008 
L 269.523823 473.072741 
L 276.328022 478.966525 
L 283.132221 484.576798 
L 290.390034 490.268744 
L 297.647846 495.678458 
L 305.359272 501.13755 
L 313.070697 506.318951 
L 320.782123 511.241188 
L 328.947162 516.189365 
L 337.112201 520.884556 
L 345.730853 525.584853 
L 354.803118 530.268469 
L 363.875384 534.700342 
L 373.401263 539.102249 
L 382.927141 543.264851 
L 392.906633 547.38755 
L 403.339739 551.456158 
L 414.226457 555.458184 
L 425.566789 559.38278 
L 437.360734 563.220685 
L 449.608292 566.964131 
L 462.309464 570.60676 
L 475.464249 574.143516 
L 489.072647 577.570539 
L 503.134659 580.88506 
L 518.103897 584.18189 
L 533.526748 587.350691 
L 549.856826 590.47632 
L 567.09413 593.542873 
L 584.785048 596.464813 
L 603.383192 599.313901 
L 623.342176 602.14223 
L 644.208386 604.87074 
L 665.981823 607.494477 
L 689.1161 610.05835 
L 713.611217 612.548589 
L 739.467174 614.954281 
L 767.137583 617.303925 
L 796.622446 619.581617 
L 827.921762 621.774967 
L 861.489144 623.902118 
L 897.324593 625.948623 
L 935.881721 627.925867 
L 977.614142 629.839236 
L 995.758673 630.606023 
L 995.758673 630.606023 
" clip-path="url(#p8452973b9a)" style="fill: none; stroke: #d62728; stroke-width: 5; stroke-linecap: round"/>
   </g>
   <g id="line2d_16">
    <path d="M 88.532127 67.941693 
L 92.161033 90.781629 
L 95.78994 112.310426 
L 99.418846 132.626638 
L 103.501365 154.144021 
L 107.583885 174.35491 
L 111.666404 193.363057 
L 115.748924 211.262109 
L 119.831443 228.136767 
L 123.913963 244.063793 
L 127.996482 259.112889 
L 132.079001 273.347458 
L 136.161521 286.82528 
L 140.24404 299.599097 
L 144.780173 313.025057 
L 149.316306 325.701616 
L 153.852439 337.683562 
L 158.388571 349.020765 
L 162.924704 359.758695 
L 167.460837 369.938882 
L 171.996969 379.599318 
L 176.533102 388.774811 
L 181.522848 398.345791 
L 186.512594 407.407501 
L 191.50234 415.995463 
L 196.492086 424.142151 
L 201.481832 431.877305 
L 206.471578 439.228197 
L 211.914937 446.838486 
L 217.358297 454.051053 
L 222.801656 460.893152 
L 228.245015 467.389738 
L 234.141988 474.064308 
L 240.03896 480.386855 
L 245.935933 486.381716 
L 251.832905 492.071162 
L 258.183491 497.88007 
L 264.534077 503.381734 
L 270.884663 508.597458 
L 277.688862 513.890529 
L 284.493061 518.899591 
L 291.29726 523.644614 
L 298.555073 528.435468 
L 305.812885 532.966847 
L 313.524311 537.517695 
L 321.235736 541.816493 
L 329.400775 546.113724 
L 338.019427 550.387107 
L 346.638079 554.411408 
L 355.710345 558.399279 
L 365.236224 562.334036 
L 374.762102 566.030674 
L 384.741594 569.668449 
L 395.1747 573.235401 
L 406.061418 576.721356 
L 417.40175 580.117831 
L 429.195695 583.41793 
L 441.443253 586.616224 
L 454.598038 589.815102 
L 468.206437 592.890321 
L 482.268448 595.84147 
L 497.237686 598.754048 
L 513.114151 601.610305 
L 529.444228 604.323068 
L 546.681533 606.964092 
L 565.279677 609.584108 
L 584.785048 612.103474 
L 605.651258 614.5684 
L 627.424695 616.915541 
L 650.558972 619.186899 
L 675.507702 621.410167 
L 702.270885 623.56635 
L 730.848521 625.640691 
L 761.240611 627.62232 
L 793.900766 629.528865 
L 829.282602 631.370041 
L 867.83973 633.149426 
L 909.572151 634.848751 
L 954.933478 636.470495 
L 995.758673 637.760181 
L 995.758673 637.760181 
" clip-path="url(#p8452973b9a)" style="fill: none; stroke: #9467bd; stroke-width: 5; stroke-linecap: round"/>
   </g>
   <g id="line2d_17">
    <path d="M 88.532127 67.941693 
L 92.161033 95.208626 
L 95.78994 120.613421 
L 99.418846 144.322022 
L 103.047752 166.48228 
L 106.676658 187.226268 
L 110.305564 206.672262 
L 113.934471 224.926432 
L 117.563377 242.084307 
L 121.192283 258.232024 
L 124.821189 273.447419 
L 128.450095 287.800967 
L 132.532615 302.997909 
L 136.615134 317.267114 
L 140.697654 330.682647 
L 144.780173 343.311323 
L 148.862693 355.213542 
L 152.945212 366.444014 
L 157.027731 377.05239 
L 161.110251 387.083817 
L 165.19277 396.579415 
L 169.728903 406.547162 
L 174.265036 415.946452 
L 178.801169 424.819733 
L 183.337301 433.205558 
L 187.873434 441.139013 
L 192.409567 448.652079 
L 197.399313 456.465682 
L 202.389059 463.841301 
L 207.378805 470.811089 
L 212.368551 477.404299 
L 217.358297 483.647595 
L 222.801656 490.087937 
L 228.245015 496.169576 
L 233.688375 501.918679 
L 239.131734 507.359067 
L 245.028706 512.929597 
L 250.925679 518.188425 
L 256.822651 523.158392 
L 263.173237 528.211419 
L 269.523823 532.977099 
L 275.874409 537.476826 
L 282.678608 542.02488 
L 289.482807 546.311608 
L 296.740619 550.618189 
L 303.998432 554.671362 
L 311.709857 558.721983 
L 319.421283 562.529656 
L 327.586322 566.317652 
L 336.204974 570.066252 
L 345.27724 573.758138 
L 354.349505 577.211575 
L 363.875384 580.603026 
L 373.854876 583.920423 
L 384.287981 587.153671 
L 395.1747 590.294528 
L 406.515031 593.336475 
L 418.308977 596.274563 
L 431.010148 599.206082 
L 444.164933 602.012911 
L 458.226945 604.781241 
L 472.742569 607.41314 
L 488.165421 609.984678 
L 504.495498 612.482064 
L 521.732803 614.894374 
L 540.330947 617.268627 
L 559.836318 619.533629 
L 580.702528 621.732244 
L 602.929579 623.850569 
L 626.971082 625.91521 
L 652.827039 627.907558 
L 680.497448 629.813633 
L 710.435924 631.649859 
L 742.642467 633.401091 
L 778.024302 635.097799 
L 816.58143 636.718621 
L 858.767464 638.264187 
L 905.036018 639.732412 
L 956.294318 641.131257 
L 995.758673 642.072691 
L 995.758673 642.072691 
" clip-path="url(#p8452973b9a)" style="fill: none; stroke: #8c564b; stroke-width: 5; stroke-linecap: round"/>
   </g>
   <g id="line2d_18">
    <path d="M 88.532127 67.941693 
L 91.70742 95.776334 
L 94.882713 121.670966 
L 98.058006 145.80198 
L 101.233299 168.326147 
L 104.408592 189.383181 
L 107.583885 209.097925 
L 110.759178 227.582206 
L 114.388084 247.328748 
L 118.01699 265.732927 
L 121.645896 282.913832 
L 125.274802 298.977621 
L 128.903709 314.019175 
L 132.532615 328.123504 
L 136.161521 341.366953 
L 139.790427 353.818245 
L 143.419333 365.539376 
L 147.048239 376.586387 
L 151.130759 388.271512 
L 155.213278 399.232799 
L 159.295798 409.528868 
L 163.378317 419.21252 
L 167.460837 428.331416 
L 171.543356 436.928665 
L 175.625876 445.043339 
L 180.162008 453.536703 
L 184.698141 461.522075 
L 189.234274 469.039203 
L 193.770407 476.124016 
L 198.306539 482.809062 
L 202.842672 489.123882 
L 207.832418 495.674557 
L 212.822164 501.842129 
L 217.81191 507.655919 
L 222.801656 513.142493 
L 228.245015 518.782936 
L 233.688375 524.090989 
L 239.131734 529.092277 
L 244.575093 533.810006 
L 250.472066 538.625257 
L 256.369038 543.156624 
L 262.719624 547.744147 
L 269.07021 552.052466 
L 275.420796 556.1038 
L 282.224995 560.182077 
L 289.029194 564.010559 
L 296.287006 567.841442 
L 303.998432 571.649618 
L 311.709857 575.21064 
L 319.874896 578.734983 
L 328.493549 582.204472 
L 337.112201 585.439353 
L 346.184466 588.613749 
L 355.710345 591.715205 
L 365.689837 594.733394 
L 376.122942 597.65999 
L 387.009661 600.488507 
L 398.803606 603.318799 
L 411.051164 606.026628 
L 424.205949 608.700132 
L 437.814347 611.237235 
L 452.329972 613.715434 
L 467.752823 616.119602 
L 484.082901 618.437868 
L 501.320205 620.661345 
L 519.91835 622.834254 
L 539.877334 624.93796 
L 561.197157 626.958143 
L 584.331434 628.920815 
L 609.280164 630.807166 
L 636.043347 632.603465 
L 665.074597 634.325777 
L 696.827526 635.981765 
L 731.302135 637.553588 
L 769.40565 639.06294 
L 811.138071 640.489398 
L 857.406625 641.844479 
L 909.118538 643.131024 
L 966.727423 644.337663 
L 995.758673 644.870988 
L 995.758673 644.870988 
" clip-path="url(#p8452973b9a)" style="fill: none; stroke: #e377c2; stroke-width: 5; stroke-linecap: round"/>
   </g>
   <g id="line2d_19">
    <path d="M 88.532127 67.941693 
L 91.70742 99.612694 
L 94.882713 128.779583 
L 98.058006 155.699891 
L 101.233299 180.598842 
L 104.408592 203.674101 
L 107.583885 225.099725 
L 110.759178 245.029473 
L 113.934471 263.59958 
L 117.109763 280.931105 
L 120.285056 297.131917 
L 123.460349 312.29838 
L 127.089255 328.475232 
L 130.718162 343.528371 
L 134.347068 357.559616 
L 137.975974 370.659504 
L 141.60488 382.908753 
L 145.233786 394.379518 
L 148.862693 405.136454 
L 152.491599 415.237639 
L 156.120505 424.735356 
L 159.749411 433.676777 
L 163.831931 443.12387 
L 167.91445 451.975459 
L 171.996969 460.280605 
L 176.079489 468.083413 
L 180.162008 475.423624 
L 184.244528 482.337125 
L 188.780661 489.557716 
L 193.316793 496.331694 
L 197.852926 502.695171 
L 202.389059 508.680681 
L 206.925191 514.317597 
L 211.914937 520.147213 
L 216.904683 525.619041 
L 221.894429 530.761789 
L 226.884175 535.601344 
L 232.327535 540.562488 
L 237.770894 545.217974 
L 243.214253 549.592418 
L 249.111226 554.039933 
L 255.008198 558.208996 
L 261.358784 562.413431 
L 267.70937 566.346818 
L 274.513569 570.286258 
L 281.317768 573.965793 
L 288.575581 577.629328 
L 295.833393 581.0468 
L 303.544819 584.432329 
L 311.709857 587.766271 
L 320.32851 591.031818 
L 328.947162 594.061551 
L 338.019427 597.020329 
L 347.545306 599.897198 
L 357.524798 602.683382 
L 368.411517 605.484181 
L 379.751848 608.164586 
L 391.545793 610.723147 
L 404.246965 613.246007 
L 417.40175 615.633219 
L 431.463761 617.960237 
L 446.432999 620.212105 
L 462.309464 622.377297 
L 479.546768 624.500502 
L 498.144913 626.560043 
L 518.103897 628.539165 
L 539.42372 630.425636 
L 562.557997 632.244847 
L 587.506727 633.980373 
L 614.723524 635.646954 
L 644.208386 637.227959 
L 676.868542 638.751962 
L 712.703991 640.196834 
L 752.168345 641.562571 
L 796.168833 642.85926 
L 845.612679 644.088325 
L 900.953499 645.23734 
L 964.005744 646.318735 
L 995.758673 646.789077 
L 995.758673 646.789077 
" clip-path="url(#p8452973b9a)" style="fill: none; stroke: #7f7f7f; stroke-width: 5; stroke-linecap: round"/>
   </g>
   <g id="line2d_20">
    <path d="M 88.532127 67.941693 
L 91.253807 98.548351 
L 93.975487 126.813744 
L 96.697166 152.971062 
L 99.418846 177.225137 
L 102.140525 199.756487 
L 105.315818 224.077608 
L 108.491111 246.493059 
L 111.666404 267.197103 
L 114.841697 286.359842 
L 118.01699 304.13074 
L 121.192283 320.641553 
L 124.367576 336.008795 
L 127.542869 350.335806 
L 130.718162 363.714502 
L 133.893455 376.226855 
L 137.068747 387.946163 
L 140.697654 400.452549 
L 144.32656 412.096205 
L 147.955466 422.954773 
L 151.584372 433.097349 
L 155.213278 442.585584 
L 158.842185 451.474629 
L 162.471091 459.81394 
L 166.099997 467.647971 
L 170.182516 475.906996 
L 174.265036 483.628273 
L 178.347555 490.857532 
L 182.430075 497.635739 
L 186.512594 503.999681 
L 190.595114 509.982469 
L 195.131246 516.219202 
L 199.667379 522.05901 
L 204.203512 527.5349 
L 208.739645 532.676515 
L 213.729391 537.977971 
L 218.719137 542.939072 
L 223.708883 547.588361 
L 228.698629 551.951449 
L 234.141988 556.411772 
L 239.585347 560.585695 
L 245.48232 564.812048 
L 251.379292 568.757716 
L 257.276265 572.447029 
L 263.626851 576.158337 
L 269.977436 579.62177 
L 276.781635 583.082022 
L 284.039448 586.513216 
L 291.29726 589.701126 
L 299.008686 592.84681 
L 307.173725 595.932251 
L 315.792377 598.942324 
L 324.864642 601.864666 
L 334.390521 604.689489 
L 344.370013 607.409367 
L 354.803118 610.018998 
L 365.689837 612.514959 
L 377.483782 614.986386 
L 389.73134 617.326126 
L 402.886125 619.612137 
L 416.948137 621.82715 
L 431.917375 623.957782 
L 447.793839 625.994196 
L 465.031144 627.979203 
L 483.629288 629.89311 
L 503.588272 631.721237 
L 525.361709 633.488036 
L 548.949599 635.174888 
L 574.805556 636.795473 
L 602.929579 638.331513 
L 633.775281 639.791034 
L 667.796277 641.176224 
L 705.899791 642.500077 
L 748.085826 643.740026 
L 795.715219 644.913347 
L 849.695199 646.015251 
L 911.386604 647.045787 
L 982.150275 647.999957 
L 995.758673 648.160811 
L 995.758673 648.160811 
" clip-path="url(#p8452973b9a)" style="fill: none; stroke: #bcbd22; stroke-width: 5; stroke-linecap: round"/>
   </g>
   <g id="line2d_21">
    <path d="M 88.532127 67.941693 
L 91.253807 101.824287 
L 93.975487 132.84485 
L 96.697166 161.317382 
L 99.418846 187.51392 
L 102.140525 211.671099 
L 104.862205 233.995546 
L 107.583885 254.668337 
L 110.305564 273.848699 
L 113.480857 294.526009 
L 116.65615 313.558069 
L 119.831443 331.115132 
L 123.006736 347.345958 
L 126.182029 362.380999 
L 129.357322 376.33504 
L 132.532615 389.309401 
L 135.707908 401.393795 
L 138.883201 412.667884 
L 142.058493 423.202608 
L 145.233786 433.061302 
L 148.862693 443.573038 
L 152.491599 453.351033 
L 156.120505 462.462089 
L 159.749411 470.965569 
L 163.378317 478.914369 
L 167.007223 486.355749 
L 170.63613 493.332035 
L 174.718649 500.671589 
L 178.801169 507.518891 
L 182.883688 513.917032 
L 186.966207 519.904488 
L 191.048727 525.515699 
L 195.131246 530.781565 
L 199.667379 536.261201 
L 204.203512 541.382908 
L 208.739645 546.177217 
L 213.275777 550.671469 
L 218.265523 555.2978 
L 223.255269 559.61996 
L 228.245015 563.66406 
L 233.688375 567.786069 
L 239.131734 571.632015 
L 245.028706 575.514847 
L 250.925679 579.129237 
L 257.276265 582.749149 
L 263.626851 586.112543 
L 270.43105 589.458384 
L 277.235249 592.56266 
L 284.493061 595.633176 
L 292.204487 598.649879 
L 300.369526 601.59588 
L 308.988178 604.457336 
L 318.060443 607.223253 
L 327.586322 609.885261 
L 337.565814 612.437348 
L 347.998919 614.875592 
L 359.339251 617.290117 
L 371.133196 619.571489 
L 383.834368 621.79831 
L 397.442766 623.952571 
L 411.958391 626.020478 
L 427.381242 627.99207 
L 444.164933 629.909757 
L 462.309464 631.75366 
L 481.814835 633.509245 
L 503.134659 635.200499 
L 526.268935 636.809205 
L 551.671279 638.348752 
L 579.795302 639.823766 
L 610.641004 641.213898 
L 645.115613 642.538628 
L 683.219128 643.776691 
L 726.312389 644.949648 
L 774.849009 646.044321 
L 830.643441 647.074025 
L 894.602913 648.026286 
L 968.99549 648.906089 
L 995.758673 649.175563 
L 995.758673 649.175563 
" clip-path="url(#p8452973b9a)" style="fill: none; stroke: #17becf; stroke-width: 5; stroke-linecap: round"/>
   </g>
   <g id="patch_3">
    <path d="M 88.532127 678.237256 
L 88.532127 38.88 
" style="fill: none; stroke: #262626; stroke-width: 0.8; stroke-linejoin: miter; stroke-linecap: square"/>
   </g>
   <g id="patch_4">
    <path d="M 88.532127 678.237256 
L 1041.12 678.237256 
" style="fill: none; stroke: #262626; stroke-width: 0.8; stroke-linejoin: miter; stroke-linecap: square"/>
   </g>
  </g>
 </g>
 <defs>
  <clipPath id="p8452973b9a">
   <rect x="88.532127" y="38.88" width="952.587873" height="639.357256"/>
  </clipPath>
 </defs>
</svg>
