<?xml version="1.0" encoding="utf-8" standalone="no"?>
<!DOCTYPE svg PUBLIC "-//W3C//DTD SVG 1.1//EN"
  "http://www.w3.org/Graphics/SVG/1.1/DTD/svg11.dtd">
<svg xmlns:xlink="http://www.w3.org/1999/xlink" width="1080pt" height="576pt" viewBox="0 0 1080 576" xmlns="http://www.w3.org/2000/svg" version="1.1">
 <metadata>
  <rdf:RDF xmlns:dc="http://purl.org/dc/elements/1.1/" xmlns:cc="http://creativecommons.org/ns#" xmlns:rdf="http://www.w3.org/1999/02/22-rdf-syntax-ns#">
   <cc:Work>
    <dc:type rdf:resource="http://purl.org/dc/dcmitype/StillImage"/>
    <dc:date>2024-07-25T14:15:06.247873</dc:date>
    <dc:format>image/svg+xml</dc:format>
    <dc:creator>
     <cc:Agent>
      <dc:title>Matplotlib v3.9.0, https://matplotlib.org/</dc:title>
     </cc:Agent>
    </dc:creator>
   </cc:Work>
  </rdf:RDF>
 </metadata>
 <defs>
  <style type="text/css">*{stroke-linejoin: round; stroke-linecap: butt}</style>
 </defs>
 <g id="figure_1">
  <g id="patch_1">
   <path d="M 0 576 
L 1080 576 
L 1080 0 
L 0 0 
z
" style="fill: #ffffff"/>
  </g>
  <g id="axes_1">
   <g id="patch_2">
    <path d="M 74.943439 510.031054 
L 1047.6 510.031054 
L 1047.6 32.4 
L 74.943439 32.4 
z
" style="fill: #ffffff"/>
   </g>
   <g id="matplotlib.axis_1">
    <g id="xtick_1">
     <g id="line2d_1">
      <defs>
       <path id="m355fe6f5fd" d="M 0 0 
L 0 3.5 
" style="stroke: #262626; stroke-width: 0.8"/>
      </defs>
      <g>
       <use xlink:href="#m355fe6f5fd" x="74.943439" y="510.031054" style="fill: #262626; stroke: #262626; stroke-width: 0.8"/>
      </g>
     </g>
     <g id="text_1">
      <!-- $\mathdefault{0}$ -->
      <g style="fill: #262626" transform="translate(68.089868 537.78655) scale(0.3 -0.3)">
       <defs>
        <path id="CMR17-30" d="M 2688 2025 
C 2688 2416 2682 3080 2413 3591 
C 2176 4039 1798 4198 1466 4198 
C 1158 4198 768 4058 525 3597 
C 269 3118 243 2524 243 2025 
C 243 1661 250 1106 448 619 
C 723 -39 1216 -128 1466 -128 
C 1760 -128 2208 -7 2470 600 
C 2662 1042 2688 1559 2688 2025 
z
M 1466 -26 
C 1056 -26 813 325 723 812 
C 653 1188 653 1738 653 2096 
C 653 2588 653 2997 736 3387 
C 858 3929 1216 4096 1466 4096 
C 1728 4096 2067 3923 2189 3400 
C 2272 3036 2278 2607 2278 2096 
C 2278 1680 2278 1169 2202 792 
C 2067 95 1690 -26 1466 -26 
z
" transform="scale(0.015625)"/>
       </defs>
       <use xlink:href="#CMR17-30" transform="scale(0.996264)"/>
      </g>
     </g>
    </g>
    <g id="xtick_2">
     <g id="line2d_2">
      <g>
       <use xlink:href="#m355fe6f5fd" x="190.735887" y="510.031054" style="fill: #262626; stroke: #262626; stroke-width: 0.8"/>
      </g>
     </g>
     <g id="text_2">
      <!-- $\mathdefault{250}$ -->
      <g style="fill: #262626" transform="translate(170.175172 537.78655) scale(0.3 -0.3)">
       <defs>
        <path id="CMR17-32" d="M 2669 989 
L 2554 989 
C 2490 536 2438 459 2413 420 
C 2381 369 1920 369 1830 369 
L 602 369 
C 832 619 1280 1072 1824 1597 
C 2214 1967 2669 2402 2669 3035 
C 2669 3790 2067 4224 1395 4224 
C 691 4224 262 3604 262 3030 
C 262 2780 448 2748 525 2748 
C 589 2748 781 2787 781 3010 
C 781 3207 614 3264 525 3264 
C 486 3264 448 3258 422 3245 
C 544 3790 915 4058 1306 4058 
C 1862 4058 2227 3617 2227 3035 
C 2227 2479 1901 2000 1536 1584 
L 262 146 
L 262 0 
L 2515 0 
L 2669 989 
z
" transform="scale(0.015625)"/>
        <path id="CMR17-35" d="M 730 3692 
C 794 3666 1056 3584 1325 3584 
C 1920 3584 2246 3911 2432 4100 
C 2432 4157 2432 4192 2394 4192 
C 2387 4192 2374 4192 2323 4163 
C 2099 4058 1837 3973 1517 3973 
C 1325 3973 1037 3999 723 4139 
C 653 4171 640 4171 634 4171 
C 602 4171 595 4164 595 4037 
L 595 2203 
C 595 2089 595 2057 659 2057 
C 691 2057 704 2070 736 2114 
C 941 2401 1222 2522 1542 2522 
C 1766 2522 2246 2382 2246 1289 
C 2246 1085 2246 715 2054 421 
C 1894 159 1645 25 1370 25 
C 947 25 518 320 403 814 
C 429 807 480 795 506 795 
C 589 795 749 840 749 1038 
C 749 1210 627 1280 506 1280 
C 358 1280 262 1190 262 1011 
C 262 454 704 -128 1382 -128 
C 2042 -128 2669 440 2669 1264 
C 2669 2030 2170 2624 1549 2624 
C 1222 2624 947 2503 730 2274 
L 730 3692 
z
" transform="scale(0.015625)"/>
       </defs>
       <use xlink:href="#CMR17-32" transform="scale(0.996264)"/>
       <use xlink:href="#CMR17-35" transform="translate(45.690477 0) scale(0.996264)"/>
       <use xlink:href="#CMR17-30" transform="translate(91.380954 0) scale(0.996264)"/>
      </g>
     </g>
    </g>
    <g id="xtick_3">
     <g id="line2d_3">
      <g>
       <use xlink:href="#m355fe6f5fd" x="306.528335" y="510.031054" style="fill: #262626; stroke: #262626; stroke-width: 0.8"/>
      </g>
     </g>
     <g id="text_3">
      <!-- $\mathdefault{500}$ -->
      <g style="fill: #262626" transform="translate(285.96762 537.78655) scale(0.3 -0.3)">
       <use xlink:href="#CMR17-35" transform="scale(0.996264)"/>
       <use xlink:href="#CMR17-30" transform="translate(45.690477 0) scale(0.996264)"/>
       <use xlink:href="#CMR17-30" transform="translate(91.380954 0) scale(0.996264)"/>
      </g>
     </g>
    </g>
    <g id="xtick_4">
     <g id="line2d_4">
      <g>
       <use xlink:href="#m355fe6f5fd" x="422.320782" y="510.031054" style="fill: #262626; stroke: #262626; stroke-width: 0.8"/>
      </g>
     </g>
     <g id="text_4">
      <!-- $\mathdefault{750}$ -->
      <g style="fill: #262626" transform="translate(401.760068 537.78655) scale(0.3 -0.3)">
       <defs>
        <path id="CMR17-37" d="M 2886 3941 
L 2886 4081 
L 1382 4081 
C 634 4081 621 4165 595 4288 
L 480 4288 
L 294 3094 
L 410 3094 
C 429 3215 474 3540 550 3661 
C 589 3712 1062 3712 1171 3712 
L 2579 3712 
L 1869 2661 
C 1395 1954 1069 999 1069 165 
C 1069 89 1069 -128 1299 -128 
C 1530 -128 1530 89 1530 171 
L 1530 465 
C 1530 1508 1709 2196 2003 2636 
L 2886 3941 
z
" transform="scale(0.015625)"/>
       </defs>
       <use xlink:href="#CMR17-37" transform="scale(0.996264)"/>
       <use xlink:href="#CMR17-35" transform="translate(45.690477 0) scale(0.996264)"/>
       <use xlink:href="#CMR17-30" transform="translate(91.380954 0) scale(0.996264)"/>
      </g>
     </g>
    </g>
    <g id="xtick_5">
     <g id="line2d_5">
      <g>
       <use xlink:href="#m355fe6f5fd" x="538.11323" y="510.031054" style="fill: #262626; stroke: #262626; stroke-width: 0.8"/>
      </g>
     </g>
     <g id="text_5">
      <!-- $\mathdefault{1000}$ -->
      <g style="fill: #262626" transform="translate(510.698944 537.78655) scale(0.3 -0.3)">
       <defs>
        <path id="CMR17-31" d="M 1702 4058 
C 1702 4192 1696 4192 1606 4192 
C 1357 3916 979 3827 621 3827 
C 602 3827 570 3827 563 3808 
C 557 3795 557 3782 557 3648 
C 755 3648 1088 3686 1344 3839 
L 1344 461 
C 1344 236 1331 160 781 160 
L 589 160 
L 589 0 
C 896 0 1216 0 1523 0 
C 1830 0 2150 0 2458 0 
L 2458 160 
L 2266 160 
C 1715 160 1702 230 1702 458 
L 1702 4058 
z
" transform="scale(0.015625)"/>
       </defs>
       <use xlink:href="#CMR17-31" transform="scale(0.996264)"/>
       <use xlink:href="#CMR17-30" transform="translate(45.690477 0) scale(0.996264)"/>
       <use xlink:href="#CMR17-30" transform="translate(91.380954 0) scale(0.996264)"/>
       <use xlink:href="#CMR17-30" transform="translate(137.071431 0) scale(0.996264)"/>
      </g>
     </g>
    </g>
    <g id="xtick_6">
     <g id="line2d_6">
      <g>
       <use xlink:href="#m355fe6f5fd" x="653.905678" y="510.031054" style="fill: #262626; stroke: #262626; stroke-width: 0.8"/>
      </g>
     </g>
     <g id="text_6">
      <!-- $\mathdefault{1250}$ -->
      <g style="fill: #262626" transform="translate(626.491392 537.78655) scale(0.3 -0.3)">
       <use xlink:href="#CMR17-31" transform="scale(0.996264)"/>
       <use xlink:href="#CMR17-32" transform="translate(45.690477 0) scale(0.996264)"/>
       <use xlink:href="#CMR17-35" transform="translate(91.380954 0) scale(0.996264)"/>
       <use xlink:href="#CMR17-30" transform="translate(137.071431 0) scale(0.996264)"/>
      </g>
     </g>
    </g>
    <g id="xtick_7">
     <g id="line2d_7">
      <g>
       <use xlink:href="#m355fe6f5fd" x="769.698126" y="510.031054" style="fill: #262626; stroke: #262626; stroke-width: 0.8"/>
      </g>
     </g>
     <g id="text_7">
      <!-- $\mathdefault{1500}$ -->
      <g style="fill: #262626" transform="translate(742.283839 537.78655) scale(0.3 -0.3)">
       <use xlink:href="#CMR17-31" transform="scale(0.996264)"/>
       <use xlink:href="#CMR17-35" transform="translate(45.690477 0) scale(0.996264)"/>
       <use xlink:href="#CMR17-30" transform="translate(91.380954 0) scale(0.996264)"/>
       <use xlink:href="#CMR17-30" transform="translate(137.071431 0) scale(0.996264)"/>
      </g>
     </g>
    </g>
    <g id="xtick_8">
     <g id="line2d_8">
      <g>
       <use xlink:href="#m355fe6f5fd" x="885.490573" y="510.031054" style="fill: #262626; stroke: #262626; stroke-width: 0.8"/>
      </g>
     </g>
     <g id="text_8">
      <!-- $\mathdefault{1750}$ -->
      <g style="fill: #262626" transform="translate(858.076287 537.78655) scale(0.3 -0.3)">
       <use xlink:href="#CMR17-31" transform="scale(0.996264)"/>
       <use xlink:href="#CMR17-37" transform="translate(45.690477 0) scale(0.996264)"/>
       <use xlink:href="#CMR17-35" transform="translate(91.380954 0) scale(0.996264)"/>
       <use xlink:href="#CMR17-30" transform="translate(137.071431 0) scale(0.996264)"/>
      </g>
     </g>
    </g>
    <g id="xtick_9">
     <g id="line2d_9">
      <g>
       <use xlink:href="#m355fe6f5fd" x="1001.283021" y="510.031054" style="fill: #262626; stroke: #262626; stroke-width: 0.8"/>
      </g>
     </g>
     <g id="text_9">
      <!-- $\mathdefault{2000}$ -->
      <g style="fill: #262626" transform="translate(973.868735 537.78655) scale(0.3 -0.3)">
       <use xlink:href="#CMR17-32" transform="scale(0.996264)"/>
       <use xlink:href="#CMR17-30" transform="translate(45.690477 0) scale(0.996264)"/>
       <use xlink:href="#CMR17-30" transform="translate(91.380954 0) scale(0.996264)"/>
       <use xlink:href="#CMR17-30" transform="translate(137.071431 0) scale(0.996264)"/>
      </g>
     </g>
    </g>
   </g>
   <g id="matplotlib.axis_2">
    <g id="ytick_1">
     <g id="line2d_10">
      <defs>
       <path id="m0c17c557d7" d="M 0 0 
L -3.5 0 
" style="stroke: #262626; stroke-width: 0.8"/>
      </defs>
      <g>
       <use xlink:href="#m0c17c557d7" x="74.943439" y="488.525275" style="fill: #262626; stroke: #262626; stroke-width: 0.8"/>
      </g>
     </g>
     <g id="text_10">
      <!-- $\mathdefault{0.0}$ -->
      <g style="fill: #262626" transform="translate(32.4 498.903023) scale(0.3 -0.3)">
       <defs>
        <path id="CMMI12-3a" d="M 1178 307 
C 1178 492 1024 619 870 619 
C 685 619 557 466 557 313 
C 557 128 710 0 864 0 
C 1050 0 1178 153 1178 307 
z
" transform="scale(0.015625)"/>
       </defs>
       <use xlink:href="#CMR17-30" transform="scale(0.996264)"/>
       <use xlink:href="#CMMI12-3a" transform="translate(45.690477 0) scale(0.996264)"/>
       <use xlink:href="#CMR17-30" transform="translate(72.787654 0) scale(0.996264)"/>
      </g>
     </g>
    </g>
    <g id="ytick_2">
     <g id="line2d_11">
      <g>
       <use xlink:href="#m0c17c557d7" x="74.943439" y="379.921582" style="fill: #262626; stroke: #262626; stroke-width: 0.8"/>
      </g>
     </g>
     <g id="text_11">
      <!-- $\mathdefault{0.5}$ -->
      <g style="fill: #262626" transform="translate(32.4 390.29933) scale(0.3 -0.3)">
       <use xlink:href="#CMR17-30" transform="scale(0.996264)"/>
       <use xlink:href="#CMMI12-3a" transform="translate(45.690477 0) scale(0.996264)"/>
       <use xlink:href="#CMR17-35" transform="translate(72.787654 0) scale(0.996264)"/>
      </g>
     </g>
    </g>
    <g id="ytick_3">
     <g id="line2d_12">
      <g>
       <use xlink:href="#m0c17c557d7" x="74.943439" y="271.317889" style="fill: #262626; stroke: #262626; stroke-width: 0.8"/>
      </g>
     </g>
     <g id="text_12">
      <!-- $\mathdefault{1.0}$ -->
      <g style="fill: #262626" transform="translate(32.4 281.695636) scale(0.3 -0.3)">
       <use xlink:href="#CMR17-31" transform="scale(0.996264)"/>
       <use xlink:href="#CMMI12-3a" transform="translate(45.690477 0) scale(0.996264)"/>
       <use xlink:href="#CMR17-30" transform="translate(72.787654 0) scale(0.996264)"/>
      </g>
     </g>
    </g>
    <g id="ytick_4">
     <g id="line2d_13">
      <g>
       <use xlink:href="#m0c17c557d7" x="74.943439" y="162.714196" style="fill: #262626; stroke: #262626; stroke-width: 0.8"/>
      </g>
     </g>
     <g id="text_13">
      <!-- $\mathdefault{1.5}$ -->
      <g style="fill: #262626" transform="translate(32.4 173.091943) scale(0.3 -0.3)">
       <use xlink:href="#CMR17-31" transform="scale(0.996264)"/>
       <use xlink:href="#CMMI12-3a" transform="translate(45.690477 0) scale(0.996264)"/>
       <use xlink:href="#CMR17-35" transform="translate(72.787654 0) scale(0.996264)"/>
      </g>
     </g>
    </g>
    <g id="ytick_5">
     <g id="line2d_14">
      <g>
       <use xlink:href="#m0c17c557d7" x="74.943439" y="54.110502" style="fill: #262626; stroke: #262626; stroke-width: 0.8"/>
      </g>
     </g>
     <g id="text_14">
      <!-- $\mathdefault{2.0}$ -->
      <g style="fill: #262626" transform="translate(32.4 64.48825) scale(0.3 -0.3)">
       <use xlink:href="#CMR17-32" transform="scale(0.996264)"/>
       <use xlink:href="#CMMI12-3a" transform="translate(45.690477 0) scale(0.996264)"/>
       <use xlink:href="#CMR17-30" transform="translate(72.787654 0) scale(0.996264)"/>
      </g>
     </g>
    </g>
   </g>
   <g id="line2d_15">
    <path d="M 74.943439 445.083798 
L 81.427816 447.700674 
L 88.143778 450.169259 
L 95.32291 452.568311 
L 102.965212 454.882845 
L 111.070683 457.101577 
L 119.639324 459.216536 
L 128.90272 461.271354 
L 138.860871 463.248157 
L 149.513776 465.133792 
L 161.09302 466.95359 
L 173.598605 468.690245 
L 187.262114 470.358293 
L 202.083547 471.94039 
L 218.29449 473.445196 
L 236.126527 474.875487 
L 256.042828 476.244898 
L 278.043393 477.531021 
L 302.822976 478.751631 
L 330.613164 479.893402 
L 362.10871 480.961153 
L 398.235953 481.958826 
L 440.152819 482.887432 
L 489.017232 483.741157 
L 546.913456 484.523467 
L 616.388925 485.23289 
L 701.612166 485.872369 
L 808.141218 486.440046 
L 945.007891 486.936736 
L 1001.283021 487.090695 
L 1001.283021 487.090695 
" clip-path="url(#pcd61cab919)" style="fill: none; stroke: #393b79; stroke-width: 2; stroke-linecap: round"/>
   </g>
   <g id="line2d_16">
    <path d="M 74.943439 401.642321 
L 77.954043 406.525941 
L 80.964647 411.008681 
L 84.206835 415.436819 
L 87.449024 419.495729 
L 90.922797 423.480127 
L 94.396571 427.128953 
L 98.101929 430.692386 
L 101.807287 433.954103 
L 105.74423 437.126077 
L 109.912759 440.192153 
L 114.312872 443.139975 
L 118.94457 445.960624 
L 123.807852 448.648214 
L 128.90272 451.199476 
L 134.229173 453.613366 
L 139.78721 455.890678 
L 145.808417 458.114984 
L 152.292794 460.265165 
L 159.240341 462.325194 
L 166.651058 464.28366 
L 174.524944 466.133192 
L 183.093586 467.915166 
L 192.356981 469.61237 
L 202.546717 471.247889 
L 213.662792 472.801267 
L 225.936791 474.284901 
L 239.368715 475.679971 
L 254.190148 476.993982 
L 270.864261 478.244801 
L 289.622637 479.423184 
L 310.696863 480.520515 
L 334.781692 481.547925 
L 362.571879 482.505309 
L 394.993765 483.392557 
L 432.973688 484.203252 
L 478.364327 484.943136 
L 533.481532 485.611657 
L 601.799076 486.209264 
L 688.643412 486.736373 
L 802.351596 487.1926 
L 957.281891 487.57862 
L 1001.283021 487.657796 
L 1001.283021 487.657796 
" clip-path="url(#pcd61cab919)" style="fill: none; stroke: #6b6ecf; stroke-width: 2; stroke-linecap: round"/>
   </g>
   <g id="line2d_17">
    <path d="M 74.943439 358.200843 
L 77.259288 366.61155 
L 79.575137 374.232396 
L 82.122571 381.817171 
L 84.670005 388.670222 
L 87.217439 394.88282 
L 89.764873 400.532429 
L 92.543891 406.130949 
L 95.32291 411.211042 
L 98.101929 415.834849 
L 100.880948 420.055469 
L 103.891551 424.225536 
L 106.902155 428.025528 
L 110.144343 431.752639 
L 113.386532 435.14531 
L 116.860305 438.453243 
L 120.334079 441.462667 
L 124.039437 444.38291 
L 127.97638 447.197308 
L 132.144909 449.89342 
L 136.545022 452.46258 
L 141.176719 454.89941 
L 146.040002 457.201332 
L 151.13487 459.368092 
L 156.692907 461.48485 
L 162.48253 463.453601 
L 168.735322 465.347584 
L 175.451284 467.152225 
L 182.862001 468.909227 
L 190.967472 470.593744 
L 199.767698 472.188103 
L 209.262679 473.680944 
L 219.915584 475.124498 
L 231.494829 476.466989 
L 244.463583 477.744195 
L 259.053431 478.952592 
L 275.495959 480.085907 
L 294.254335 481.149226 
L 315.791731 482.139671 
L 340.571314 483.050881 
L 369.751011 483.894191 
L 404.257161 484.662069 
L 445.942442 485.359543 
L 497.122704 485.98498 
L 561.503305 486.539649 
L 644.642282 487.022924 
L 756.266202 487.43664 
L 913.049176 487.78039 
L 1001.283021 487.906578 
L 1001.283021 487.906578 
" clip-path="url(#pcd61cab919)" style="fill: none; stroke: #637939; stroke-width: 2; stroke-linecap: round"/>
   </g>
   <g id="line2d_18">
    <path d="M 74.943439 314.759366 
L 77.027703 328.106721 
L 79.111968 339.970381 
L 81.196232 350.562661 
L 83.280496 360.05918 
L 85.36476 368.606216 
L 87.680609 377.137819 
L 89.996458 384.788881 
L 92.312307 391.676671 
L 94.628156 397.899548 
L 97.175589 404.075413 
L 99.723023 409.639964 
L 102.270457 414.671378 
L 104.817891 419.235714 
L 107.59691 423.748016 
L 110.375928 427.832941 
L 113.154947 431.542849 
L 116.165551 435.190263 
L 119.176154 438.497975 
L 122.418343 441.727049 
L 125.660531 444.652963 
L 129.134305 447.493177 
L 132.839663 450.228829 
L 136.776606 452.845896 
L 140.945135 455.334675 
L 145.345248 457.689204 
L 149.976946 459.906693 
L 154.840228 461.986956 
L 160.166681 464.015169 
L 165.724718 465.893154 
L 171.745926 467.693882 
L 178.230303 469.402759 
L 185.409434 471.060323 
L 193.283321 472.641944 
L 201.851962 474.130673 
L 211.346943 475.548244 
L 221.768263 476.875716 
L 233.347508 478.124996 
L 246.547847 479.318685 
L 261.36928 480.429372 
L 278.274978 481.467284 
L 297.728109 482.432302 
L 320.191844 483.319249 
L 346.824107 484.140847 
L 378.551237 484.888757 
L 416.99433 485.564009 
L 464.469233 486.166792 
L 524.681306 486.699009 
L 603.420171 487.160904 
L 710.412392 487.552544 
L 863.490008 487.874565 
L 1001.283021 488.044936 
L 1001.283021 488.044936 
" clip-path="url(#pcd61cab919)" style="fill: none; stroke: #b5cf6b; stroke-width: 2; stroke-linecap: round"/>
   </g>
   <g id="line2d_19">
    <path d="M 74.943439 271.317889 
L 76.796119 289.764952 
L 78.648798 305.952628 
L 80.501477 320.23597 
L 82.354156 332.902847 
L 84.206835 344.188656 
L 86.291099 355.474613 
L 88.375363 365.484299 
L 90.459627 374.403399 
L 92.543891 382.384984 
L 94.628156 389.556154 
L 96.944004 396.702273 
L 99.259853 403.100215 
L 101.575702 408.851012 
L 103.891551 414.039183 
L 106.438985 419.180916 
L 108.986419 423.80732 
L 111.533853 427.985097 
L 114.312872 432.096863 
L 117.09189 435.803001 
L 119.870909 439.155211 
L 122.881513 442.437906 
L 125.892116 445.403382 
L 129.134305 448.287528 
L 132.608078 451.067631 
L 136.081852 453.568963 
L 139.78721 455.970335 
L 143.724153 458.260163 
L 147.892681 460.430775 
L 152.292794 462.477846 
L 157.156077 464.490298 
L 162.250945 466.358137 
L 167.808982 468.15767 
L 173.83019 469.870414 
L 180.314567 471.483879 
L 187.493699 473.037436 
L 195.367585 474.508918 
L 203.936226 475.883887 
L 213.662792 477.212831 
L 224.315697 478.441282 
L 236.358111 479.603413 
L 250.02162 480.694167 
L 265.537808 481.706598 
L 283.60143 482.656009 
L 304.675656 483.532745 
L 329.455239 484.333638 
L 359.098106 485.061943 
L 395.22535 485.718993 
L 440.152819 486.30461 
L 497.585873 486.820031 
L 573.082549 487.263644 
L 677.064167 487.638234 
L 828.057519 487.943209 
L 1001.283021 488.132853 
L 1001.283021 488.132853 
" clip-path="url(#pcd61cab919)" style="fill: none; stroke: #8c6d31; stroke-width: 2; stroke-linecap: round"/>
   </g>
   <g id="line2d_20">
    <path d="M 74.943439 227.876412 
L 76.564534 251.08087 
L 78.185628 271.310646 
L 79.806722 289.054271 
L 81.659401 306.787818 
L 83.512081 322.25185 
L 85.36476 335.81839 
L 87.217439 347.786147 
L 89.070118 358.397211 
L 90.922797 367.849469 
L 93.007061 377.300009 
L 95.091325 385.680235 
L 97.175589 393.146092 
L 99.259853 399.826097 
L 101.344117 405.826932 
L 103.659966 411.805914 
L 105.975815 417.158135 
L 108.291664 421.968332 
L 110.607513 426.307379 
L 113.154947 430.607056 
L 115.702381 434.475333 
L 118.4814 438.268698 
L 121.260418 441.675779 
L 124.039437 444.747344 
L 127.050041 447.745602 
L 130.292229 450.642199 
L 133.534418 453.240444 
L 137.008191 455.738103 
L 140.71355 458.120545 
L 144.650493 460.377889 
L 148.819021 462.504334 
L 153.219134 464.49748 
L 158.082417 466.444957 
L 163.177285 468.241541 
L 168.735322 469.962126 
L 174.756529 471.590019 
L 181.240906 473.114572 
L 188.420038 474.573974 
L 196.293925 475.948234 
L 205.094151 477.25675 
L 215.052301 478.505287 
L 226.168376 479.668595 
L 238.67396 480.750491 
L 253.032224 481.764854 
L 269.706336 482.712018 
L 289.159468 483.585353 
L 312.086372 484.383563 
L 339.41339 485.105641 
L 372.761615 485.757094 
L 414.446896 486.339373 
L 467.711422 486.850052 
L 538.11323 487.290193 
L 635.147301 487.660114 
L 776.877257 487.960899 
L 1001.283021 488.193616 
L 1001.283021 488.193616 
" clip-path="url(#pcd61cab919)" style="fill: none; stroke: #e7cb94; stroke-width: 2; stroke-linecap: round"/>
   </g>
   <g id="line2d_21">
    <path d="M 74.943439 184.434934 
L 76.564534 215.71263 
L 78.185628 242.386673 
L 79.806722 265.320071 
L 81.427816 285.182365 
L 83.048911 302.499496 
L 84.670005 317.689285 
L 86.522684 332.871284 
L 88.375363 346.111024 
L 90.228042 357.726773 
L 92.080722 367.974098 
L 93.933401 377.060139 
L 95.78608 385.154229 
L 97.870344 393.247152 
L 99.954608 400.42378 
L 102.038872 406.817582 
L 104.123136 412.538556 
L 106.438985 418.216614 
L 108.754834 423.280179 
L 111.070683 427.814929 
L 113.386532 431.892099 
L 115.933966 435.919349 
L 118.4814 439.531201 
L 121.028834 442.782938 
L 123.807852 445.973872 
L 126.586871 448.841766 
L 129.597475 451.632906 
L 132.839663 454.32137 
L 136.081852 456.725981 
L 139.555625 459.031115 
L 143.260984 461.223886 
L 147.197927 463.295902 
L 151.366455 465.242591 
L 155.998153 467.152335 
L 160.861436 468.915096 
L 166.187888 470.606463 
L 171.977511 472.20796 
L 178.230303 473.707653 
L 185.17785 475.143528 
L 192.820151 476.494372 
L 201.388792 477.779103 
L 210.883773 478.97613 
L 221.768263 480.117588 
L 234.042263 481.175258 
L 248.168941 482.162886 
L 264.611469 483.080729 
L 283.833015 483.922399 
L 306.528335 484.686994 
L 334.086937 485.384159 
L 367.898332 486.007669 
L 410.509953 486.560503 
L 465.627158 487.041659 
L 539.50274 487.451779 
L 643.715942 487.792895 
L 800.498917 488.06526 
L 1001.283021 488.238107 
L 1001.283021 488.238107 
" clip-path="url(#pcd61cab919)" style="fill: none; stroke: #ad494a; stroke-width: 2; stroke-linecap: round"/>
   </g>
   <g id="line2d_22">
    <path d="M 74.943439 140.993457 
L 76.332949 176.120763 
L 77.722458 206.160461 
L 79.111968 232.052069 
L 80.733062 257.98358 
L 82.354156 280.160243 
L 83.97525 299.275037 
L 85.596345 315.867894 
L 87.217439 330.364588 
L 88.838533 343.104557 
L 90.691212 355.861593 
L 92.543891 367.006764 
L 94.396571 376.801061 
L 96.24925 385.454647 
L 98.101929 393.138299 
L 100.186193 400.796285 
L 102.270457 407.565963 
L 104.354721 413.579781 
L 106.438985 418.946366 
L 108.523249 423.755492 
L 110.839098 428.535604 
L 113.154947 432.804571 
L 115.470796 436.632838 
L 118.01823 440.404695 
L 120.565664 443.779172 
L 123.344683 447.070393 
L 126.123701 450.01092 
L 129.134305 452.856398 
L 132.144909 455.397407 
L 135.387097 457.841364 
L 138.860871 460.171123 
L 142.566229 462.375064 
L 146.503172 464.446311 
L 150.6717 466.381931 
L 155.071813 468.18215 
L 159.935096 469.92758 
L 165.261549 471.593208 
L 171.051171 473.161798 
L 177.303963 474.622848 
L 184.25151 476.01433 
L 191.893812 477.316518 
L 200.462453 478.548479 
L 210.189018 479.715714 
L 221.073508 480.794405 
L 233.579093 481.80587 
L 247.937356 482.740175 
L 264.843054 483.610261 
L 284.759355 484.404964 
L 308.612599 485.126723 
L 337.792296 485.778244 
L 374.151124 486.35774 
L 420.699688 486.866191 
L 482.30127 487.304025 
L 567.292927 487.671422 
L 691.654016 487.969693 
L 889.427516 488.200267 
L 1001.283021 488.272086 
L 1001.283021 488.272086 
" clip-path="url(#pcd61cab919)" style="fill: none; stroke: #e7969c; stroke-width: 2; stroke-linecap: round"/>
   </g>
   <g id="line2d_23">
    <path d="M 74.943439 97.55198 
L 76.332949 141.650908 
L 77.722458 178.659683 
L 79.111968 210.024731 
L 80.501477 236.840853 
L 81.890986 259.949187 
L 83.512081 283.08843 
L 85.133175 302.873218 
L 86.754269 319.923329 
L 88.375363 334.721512 
L 89.996458 347.648346 
L 91.617552 359.007159 
L 93.470231 370.379691 
L 95.32291 380.31401 
L 97.175589 389.04319 
L 99.028269 396.754875 
L 100.880948 403.601516 
L 102.965212 410.424622 
L 105.049476 416.455689 
L 107.13374 421.812894 
L 109.218004 426.593146 
L 111.533853 431.324788 
L 113.849702 435.533281 
L 116.165551 439.293091 
L 118.712985 442.983926 
L 121.260418 446.274136 
L 123.807852 449.219734 
L 126.586871 452.09457 
L 129.36589 454.66474 
L 132.376493 457.153379 
L 135.618682 459.538234 
L 139.092455 461.80341 
L 142.797814 463.938595 
L 146.734757 465.938195 
L 150.903285 467.800471 
L 155.303398 469.526732 
L 160.166681 471.194961 
L 165.493133 472.781669 
L 171.282756 474.271051 
L 177.767133 475.70116 
L 184.946265 477.046941 
L 192.820151 478.292894 
L 201.620377 479.45946 
L 211.578528 480.553973 
L 222.926188 481.57569 
L 236.126527 482.53494 
L 251.41113 483.416678 
L 269.474752 484.228825 
L 291.012147 484.967117 
L 317.18124 485.633736 
L 349.603125 486.228587 
L 390.825237 486.75271 
L 445.016102 487.207244 
L 518.891684 487.590894 
L 625.420736 487.905492 
L 791.003936 488.151899 
L 1001.283021 488.298881 
L 1001.283021 488.298881 
" clip-path="url(#pcd61cab919)" style="fill: none; stroke: #a55194; stroke-width: 2; stroke-linecap: round"/>
   </g>
   <g id="line2d_24">
    <path d="M 74.943439 54.110502 
L 76.332949 108.115938 
L 77.722458 152.600239 
L 79.111968 189.683261 
L 80.501477 220.924845 
L 81.890986 247.493704 
L 83.280496 270.279659 
L 84.90159 292.990292 
L 86.522684 312.320956 
L 88.143778 328.912009 
L 89.764873 343.258792 
L 91.385967 355.749376 
L 93.007061 366.691313 
L 94.85974 377.613786 
L 96.71242 387.127142 
L 98.565099 395.464155 
L 100.417778 402.811386 
L 102.270457 409.319777 
L 104.354721 415.791552 
L 106.438985 421.499791 
L 108.523249 426.560211 
L 110.607513 431.067389 
L 112.923362 435.520793 
L 115.239211 439.474935 
L 117.55506 443.001837 
L 120.102494 446.458642 
L 122.649928 449.535558 
L 125.428947 452.521837 
L 128.207965 455.177243 
L 131.218569 457.735069 
L 134.229173 460.009134 
L 137.471361 462.187092 
L 140.945135 464.254557 
L 144.650493 466.202267 
L 148.587436 468.025279 
L 152.987549 469.810192 
L 157.619247 471.448212 
L 162.714115 473.013208 
L 168.272152 474.486945 
L 174.524944 475.906897 
L 181.472491 477.245687 
L 189.114793 478.486114 
L 197.683434 479.648096 
L 207.41 480.738194 
L 218.526075 481.754861 
L 231.263244 482.692711 
L 246.316262 483.569774 
L 263.916714 484.365603 
L 284.99094 485.089627 
L 310.696863 485.742899 
L 342.655578 486.32453 
L 383.646105 486.83747 
L 437.605386 487.278595 
L 511.944137 487.65024 
L 620.325868 487.952919 
L 791.698691 488.187819 
L 1001.283021 488.320552 
L 1001.283021 488.320552 
" clip-path="url(#pcd61cab919)" style="fill: none; stroke: #de9ed6; stroke-width: 2; stroke-linecap: round"/>
   </g>
   <g id="patch_3">
    <path d="M 74.943439 510.031054 
L 74.943439 32.4 
" style="fill: none; stroke: #262626; stroke-width: 0.8; stroke-linejoin: miter; stroke-linecap: square"/>
   </g>
   <g id="patch_4">
    <path d="M 74.943439 510.031054 
L 1047.6 510.031054 
" style="fill: none; stroke: #262626; stroke-width: 0.8; stroke-linejoin: miter; stroke-linecap: square"/>
   </g>
  </g>
 </g>
 <defs>
  <clipPath id="pcd61cab919">
   <rect x="74.943439" y="32.4" width="972.656561" height="477.631054"/>
  </clipPath>
 </defs>
</svg>
