<?xml version="1.0" encoding="utf-8" standalone="no"?>
<!DOCTYPE svg PUBLIC "-//W3C//DTD SVG 1.1//EN"
  "http://www.w3.org/Graphics/SVG/1.1/DTD/svg11.dtd">
<svg xmlns:xlink="http://www.w3.org/1999/xlink" width="1080pt" height="756pt" viewBox="0 0 1080 756" xmlns="http://www.w3.org/2000/svg" version="1.1">
 <metadata>
  <rdf:RDF xmlns:dc="http://purl.org/dc/elements/1.1/" xmlns:cc="http://creativecommons.org/ns#" xmlns:rdf="http://www.w3.org/1999/02/22-rdf-syntax-ns#">
   <cc:Work>
    <dc:type rdf:resource="http://purl.org/dc/dcmitype/StillImage"/>
    <dc:date>2024-07-31T10:47:51.331478</dc:date>
    <dc:format>image/svg+xml</dc:format>
    <dc:creator>
     <cc:Agent>
      <dc:title>Matplotlib v3.9.0, https://matplotlib.org/</dc:title>
     </cc:Agent>
    </dc:creator>
   </cc:Work>
  </rdf:RDF>
 </metadata>
 <defs>
  <style type="text/css">*{stroke-linejoin: round; stroke-linecap: butt}</style>
 </defs>
 <g id="figure_1">
  <g id="patch_1">
   <path d="M 0 756 
L 1080 756 
L 1080 0 
L 0 0 
z
" style="fill: #ffffff"/>
  </g>
  <g id="axes_1">
   <g id="patch_2">
    <path d="M 88.532127 678.237256 
L 1041.12 678.237256 
L 1041.12 38.88 
L 88.532127 38.88 
z
" style="fill: #ffffff"/>
   </g>
   <g id="matplotlib.axis_1">
    <g id="xtick_1">
     <g id="line2d_1">
      <defs>
       <path id="mb619a779ef" d="M 0 0 
L 0 3.5 
" style="stroke: #262626; stroke-width: 0.8"/>
      </defs>
      <g>
       <use xlink:href="#mb619a779ef" x="88.532127" y="678.237256" style="fill: #262626; stroke: #262626; stroke-width: 0.8"/>
      </g>
     </g>
     <g id="text_1">
      <!-- $\mathdefault{0}$ -->
      <g style="fill: #262626" transform="translate(80.307841 710.143856) scale(0.36 -0.36)">
       <defs>
        <path id="CMR17-30" d="M 2688 2025 
C 2688 2416 2682 3080 2413 3591 
C 2176 4039 1798 4198 1466 4198 
C 1158 4198 768 4058 525 3597 
C 269 3118 243 2524 243 2025 
C 243 1661 250 1106 448 619 
C 723 -39 1216 -128 1466 -128 
C 1760 -128 2208 -7 2470 600 
C 2662 1042 2688 1559 2688 2025 
z
M 1466 -26 
C 1056 -26 813 325 723 812 
C 653 1188 653 1738 653 2096 
C 653 2588 653 2997 736 3387 
C 858 3929 1216 4096 1466 4096 
C 1728 4096 2067 3923 2189 3400 
C 2272 3036 2278 2607 2278 2096 
C 2278 1680 2278 1169 2202 792 
C 2067 95 1690 -26 1466 -26 
z
" transform="scale(0.015625)"/>
       </defs>
       <use xlink:href="#CMR17-30" transform="scale(0.996264)"/>
      </g>
     </g>
    </g>
    <g id="xtick_2">
     <g id="line2d_2">
      <g>
       <use xlink:href="#mb619a779ef" x="269.977436" y="678.237256" style="fill: #262626; stroke: #262626; stroke-width: 0.8"/>
      </g>
     </g>
     <g id="text_2">
      <!-- $\mathdefault{200}$ -->
      <g style="fill: #262626" transform="translate(245.304579 710.143856) scale(0.36 -0.36)">
       <defs>
        <path id="CMR17-32" d="M 2669 989 
L 2554 989 
C 2490 536 2438 459 2413 420 
C 2381 369 1920 369 1830 369 
L 602 369 
C 832 619 1280 1072 1824 1597 
C 2214 1967 2669 2402 2669 3035 
C 2669 3790 2067 4224 1395 4224 
C 691 4224 262 3604 262 3030 
C 262 2780 448 2748 525 2748 
C 589 2748 781 2787 781 3010 
C 781 3207 614 3264 525 3264 
C 486 3264 448 3258 422 3245 
C 544 3790 915 4058 1306 4058 
C 1862 4058 2227 3617 2227 3035 
C 2227 2479 1901 2000 1536 1584 
L 262 146 
L 262 0 
L 2515 0 
L 2669 989 
z
" transform="scale(0.015625)"/>
       </defs>
       <use xlink:href="#CMR17-32" transform="scale(0.996264)"/>
       <use xlink:href="#CMR17-30" transform="translate(45.690477 0) scale(0.996264)"/>
       <use xlink:href="#CMR17-30" transform="translate(91.380954 0) scale(0.996264)"/>
      </g>
     </g>
    </g>
    <g id="xtick_3">
     <g id="line2d_3">
      <g>
       <use xlink:href="#mb619a779ef" x="451.422745" y="678.237256" style="fill: #262626; stroke: #262626; stroke-width: 0.8"/>
      </g>
     </g>
     <g id="text_3">
      <!-- $\mathdefault{400}$ -->
      <g style="fill: #262626" transform="translate(426.749888 710.143856) scale(0.36 -0.36)">
       <defs>
        <path id="CMR17-34" d="M 2150 4122 
C 2150 4256 2144 4256 2029 4256 
L 128 1254 
L 128 1088 
L 1779 1088 
L 1779 457 
C 1779 224 1766 160 1318 160 
L 1197 160 
L 1197 0 
C 1402 0 1747 0 1965 0 
C 2182 0 2528 0 2733 0 
L 2733 160 
L 2611 160 
C 2163 160 2150 224 2150 457 
L 2150 1088 
L 2803 1088 
L 2803 1254 
L 2150 1254 
L 2150 4122 
z
M 1798 3703 
L 1798 1254 
L 256 1254 
L 1798 3703 
z
" transform="scale(0.015625)"/>
       </defs>
       <use xlink:href="#CMR17-34" transform="scale(0.996264)"/>
       <use xlink:href="#CMR17-30" transform="translate(45.690477 0) scale(0.996264)"/>
       <use xlink:href="#CMR17-30" transform="translate(91.380954 0) scale(0.996264)"/>
      </g>
     </g>
    </g>
    <g id="xtick_4">
     <g id="line2d_4">
      <g>
       <use xlink:href="#mb619a779ef" x="632.868055" y="678.237256" style="fill: #262626; stroke: #262626; stroke-width: 0.8"/>
      </g>
     </g>
     <g id="text_4">
      <!-- $\mathdefault{600}$ -->
      <g style="fill: #262626" transform="translate(608.195197 710.143856) scale(0.36 -0.36)">
       <defs>
        <path id="CMR17-36" d="M 678 2176 
C 678 3690 1395 4032 1811 4032 
C 1946 4032 2272 4009 2400 3776 
C 2298 3776 2106 3776 2106 3553 
C 2106 3381 2246 3323 2336 3323 
C 2394 3323 2566 3348 2566 3560 
C 2566 3954 2246 4179 1805 4179 
C 1043 4179 243 3390 243 1984 
C 243 253 966 -128 1478 -128 
C 2099 -128 2688 427 2688 1283 
C 2688 2081 2170 2662 1517 2662 
C 1126 2662 838 2407 678 1960 
L 678 2176 
z
M 1478 25 
C 691 25 691 1200 691 1436 
C 691 1896 909 2560 1504 2560 
C 1613 2560 1926 2560 2138 2120 
C 2253 1870 2253 1609 2253 1289 
C 2253 944 2253 690 2118 434 
C 1978 171 1773 25 1478 25 
z
" transform="scale(0.015625)"/>
       </defs>
       <use xlink:href="#CMR17-36" transform="scale(0.996264)"/>
       <use xlink:href="#CMR17-30" transform="translate(45.690477 0) scale(0.996264)"/>
       <use xlink:href="#CMR17-30" transform="translate(91.380954 0) scale(0.996264)"/>
      </g>
     </g>
    </g>
    <g id="xtick_5">
     <g id="line2d_5">
      <g>
       <use xlink:href="#mb619a779ef" x="814.313364" y="678.237256" style="fill: #262626; stroke: #262626; stroke-width: 0.8"/>
      </g>
     </g>
     <g id="text_5">
      <!-- $\mathdefault{800}$ -->
      <g style="fill: #262626" transform="translate(789.640506 710.143856) scale(0.36 -0.36)">
       <defs>
        <path id="CMR17-38" d="M 1741 2264 
C 2144 2467 2554 2773 2554 3263 
C 2554 3841 1990 4179 1472 4179 
C 890 4179 378 3759 378 3180 
C 378 3021 416 2747 666 2505 
C 730 2442 998 2251 1171 2130 
C 883 1983 211 1634 211 934 
C 211 279 838 -128 1459 -128 
C 2144 -128 2720 362 2720 1010 
C 2720 1590 2330 1857 2074 2029 
L 1741 2264 
z
M 902 2822 
C 851 2854 595 3051 595 3351 
C 595 3739 998 4032 1459 4032 
C 1965 4032 2336 3676 2336 3262 
C 2336 2669 1670 2331 1638 2331 
C 1632 2331 1626 2331 1574 2370 
L 902 2822 
z
M 2080 1519 
C 2176 1449 2483 1240 2483 851 
C 2483 381 2010 25 1472 25 
C 890 25 448 438 448 940 
C 448 1443 838 1862 1280 2060 
L 2080 1519 
z
" transform="scale(0.015625)"/>
       </defs>
       <use xlink:href="#CMR17-38" transform="scale(0.996264)"/>
       <use xlink:href="#CMR17-30" transform="translate(45.690477 0) scale(0.996264)"/>
       <use xlink:href="#CMR17-30" transform="translate(91.380954 0) scale(0.996264)"/>
      </g>
     </g>
    </g>
    <g id="xtick_6">
     <g id="line2d_6">
      <g>
       <use xlink:href="#mb619a779ef" x="995.758673" y="678.237256" style="fill: #262626; stroke: #262626; stroke-width: 0.8"/>
      </g>
     </g>
     <g id="text_6">
      <!-- $\mathdefault{1000}$ -->
      <g style="fill: #262626" transform="translate(962.861529 710.143856) scale(0.36 -0.36)">
       <defs>
        <path id="CMR17-31" d="M 1702 4058 
C 1702 4192 1696 4192 1606 4192 
C 1357 3916 979 3827 621 3827 
C 602 3827 570 3827 563 3808 
C 557 3795 557 3782 557 3648 
C 755 3648 1088 3686 1344 3839 
L 1344 461 
C 1344 236 1331 160 781 160 
L 589 160 
L 589 0 
C 896 0 1216 0 1523 0 
C 1830 0 2150 0 2458 0 
L 2458 160 
L 2266 160 
C 1715 160 1702 230 1702 458 
L 1702 4058 
z
" transform="scale(0.015625)"/>
       </defs>
       <use xlink:href="#CMR17-31" transform="scale(0.996264)"/>
       <use xlink:href="#CMR17-30" transform="translate(45.690477 0) scale(0.996264)"/>
       <use xlink:href="#CMR17-30" transform="translate(91.380954 0) scale(0.996264)"/>
       <use xlink:href="#CMR17-30" transform="translate(137.071431 0) scale(0.996264)"/>
      </g>
     </g>
    </g>
   </g>
   <g id="matplotlib.axis_2">
    <g id="ytick_1">
     <g id="line2d_7">
      <defs>
       <path id="mdda2f9d59c" d="M 0 0 
L -3.5 0 
" style="stroke: #262626; stroke-width: 0.8"/>
      </defs>
      <g>
       <use xlink:href="#mdda2f9d59c" x="88.532127" y="652.370721" style="fill: #262626; stroke: #262626; stroke-width: 0.8"/>
      </g>
     </g>
     <g id="text_7">
      <!-- $\mathdefault{0.0}$ -->
      <g style="fill: #262626" transform="translate(38.88 664.824021) scale(0.36 -0.36)">
       <defs>
        <path id="CMMI12-3a" d="M 1178 307 
C 1178 492 1024 619 870 619 
C 685 619 557 466 557 313 
C 557 128 710 0 864 0 
C 1050 0 1178 153 1178 307 
z
" transform="scale(0.015625)"/>
       </defs>
       <use xlink:href="#CMR17-30" transform="scale(0.996264)"/>
       <use xlink:href="#CMMI12-3a" transform="translate(45.690477 0) scale(0.996264)"/>
       <use xlink:href="#CMR17-30" transform="translate(72.787654 0) scale(0.996264)"/>
      </g>
     </g>
    </g>
    <g id="ytick_2">
     <g id="line2d_8">
      <g>
       <use xlink:href="#mdda2f9d59c" x="88.532127" y="506.263464" style="fill: #262626; stroke: #262626; stroke-width: 0.8"/>
      </g>
     </g>
     <g id="text_8">
      <!-- $\mathdefault{0.5}$ -->
      <g style="fill: #262626" transform="translate(38.88 518.716764) scale(0.36 -0.36)">
       <defs>
        <path id="CMR17-35" d="M 730 3692 
C 794 3666 1056 3584 1325 3584 
C 1920 3584 2246 3911 2432 4100 
C 2432 4157 2432 4192 2394 4192 
C 2387 4192 2374 4192 2323 4163 
C 2099 4058 1837 3973 1517 3973 
C 1325 3973 1037 3999 723 4139 
C 653 4171 640 4171 634 4171 
C 602 4171 595 4164 595 4037 
L 595 2203 
C 595 2089 595 2057 659 2057 
C 691 2057 704 2070 736 2114 
C 941 2401 1222 2522 1542 2522 
C 1766 2522 2246 2382 2246 1289 
C 2246 1085 2246 715 2054 421 
C 1894 159 1645 25 1370 25 
C 947 25 518 320 403 814 
C 429 807 480 795 506 795 
C 589 795 749 840 749 1038 
C 749 1210 627 1280 506 1280 
C 358 1280 262 1190 262 1011 
C 262 454 704 -128 1382 -128 
C 2042 -128 2669 440 2669 1264 
C 2669 2030 2170 2624 1549 2624 
C 1222 2624 947 2503 730 2274 
L 730 3692 
z
" transform="scale(0.015625)"/>
       </defs>
       <use xlink:href="#CMR17-30" transform="scale(0.996264)"/>
       <use xlink:href="#CMMI12-3a" transform="translate(45.690477 0) scale(0.996264)"/>
       <use xlink:href="#CMR17-35" transform="translate(72.787654 0) scale(0.996264)"/>
      </g>
     </g>
    </g>
    <g id="ytick_3">
     <g id="line2d_9">
      <g>
       <use xlink:href="#mdda2f9d59c" x="88.532127" y="360.156207" style="fill: #262626; stroke: #262626; stroke-width: 0.8"/>
      </g>
     </g>
     <g id="text_9">
      <!-- $\mathdefault{1.0}$ -->
      <g style="fill: #262626" transform="translate(38.88 372.609507) scale(0.36 -0.36)">
       <use xlink:href="#CMR17-31" transform="scale(0.996264)"/>
       <use xlink:href="#CMMI12-3a" transform="translate(45.690477 0) scale(0.996264)"/>
       <use xlink:href="#CMR17-30" transform="translate(72.787654 0) scale(0.996264)"/>
      </g>
     </g>
    </g>
    <g id="ytick_4">
     <g id="line2d_10">
      <g>
       <use xlink:href="#mdda2f9d59c" x="88.532127" y="214.04895" style="fill: #262626; stroke: #262626; stroke-width: 0.8"/>
      </g>
     </g>
     <g id="text_10">
      <!-- $\mathdefault{1.5}$ -->
      <g style="fill: #262626" transform="translate(38.88 226.50225) scale(0.36 -0.36)">
       <use xlink:href="#CMR17-31" transform="scale(0.996264)"/>
       <use xlink:href="#CMMI12-3a" transform="translate(45.690477 0) scale(0.996264)"/>
       <use xlink:href="#CMR17-35" transform="translate(72.787654 0) scale(0.996264)"/>
      </g>
     </g>
    </g>
    <g id="ytick_5">
     <g id="line2d_11">
      <g>
       <use xlink:href="#mdda2f9d59c" x="88.532127" y="67.941693" style="fill: #262626; stroke: #262626; stroke-width: 0.8"/>
      </g>
     </g>
     <g id="text_11">
      <!-- $\mathdefault{2.0}$ -->
      <g style="fill: #262626" transform="translate(38.88 80.394994) scale(0.36 -0.36)">
       <use xlink:href="#CMR17-32" transform="scale(0.996264)"/>
       <use xlink:href="#CMMI12-3a" transform="translate(45.690477 0) scale(0.996264)"/>
       <use xlink:href="#CMR17-30" transform="translate(72.787654 0) scale(0.996264)"/>
      </g>
     </g>
    </g>
   </g>
   <g id="line2d_12">
    <path d="M 88.532127 593.927818 
L 107.130271 596.814273 
L 126.635642 599.617627 
L 147.501853 602.387915 
L 169.27529 605.052235 
L 192.409567 607.656163 
L 216.904683 610.185698 
L 242.76064 612.629725 
L 270.43105 615.017178 
L 299.462299 617.297916 
L 330.761615 619.530436 
L 363.875384 621.667988 
L 399.710832 623.754271 
L 437.814347 625.747605 
L 479.093155 627.680761 
L 523.547256 629.536201 
L 571.630263 631.317056 
L 623.795789 633.023301 
L 680.497448 634.652839 
L 742.642467 636.213079 
L 810.684457 637.696201 
L 885.984261 639.111361 
L 969.449103 640.453303 
L 995.758673 640.834246 
L 995.758673 640.834246 
" clip-path="url(#p4d993a6e90)" style="fill: none; stroke: #1f77b4; stroke-width: 5; stroke-linecap: round"/>
   </g>
   <g id="line2d_13">
    <path d="M 88.532127 535.484915 
L 95.78994 540.031934 
L 103.047752 544.318545 
L 110.759178 548.609539 
L 118.470603 552.649771 
L 126.635642 556.675619 
L 135.254294 560.666127 
L 143.872947 564.412005 
L 152.945212 568.112274 
L 162.471091 571.75166 
L 172.450583 575.317014 
L 182.883688 578.797233 
L 193.770407 582.183148 
L 205.110738 585.467393 
L 216.904683 588.644264 
L 229.152242 591.709567 
L 241.853413 594.660462 
L 255.461812 597.589313 
L 269.523823 600.387528 
L 284.493061 603.136966 
L 300.369526 605.821228 
L 317.153217 608.426916 
L 334.844134 610.943442 
L 353.442279 613.362797 
L 373.401263 615.73068 
L 394.721086 618.029433 
L 417.40175 620.2452 
L 441.443253 622.367617 
L 467.29921 624.423671 
L 494.96962 626.398317 
L 524.908096 628.30796 
L 557.114638 630.136245 
L 592.04286 631.893039 
L 630.146375 633.582133 
L 671.425183 635.186474 
L 716.78651 636.723427 
L 766.68397 638.187411 
L 821.571176 639.572447 
L 882.808968 640.891084 
L 951.304572 642.138173 
L 995.758673 642.84183 
L 995.758673 642.84183 
" clip-path="url(#p4d993a6e90)" style="fill: none; stroke: #ff7f0e; stroke-width: 5; stroke-linecap: round"/>
   </g>
   <g id="line2d_14">
    <path d="M 88.532127 477.042012 
L 93.06826 483.453835 
L 98.058006 490.108515 
L 103.047752 496.37722 
L 108.037498 502.289252 
L 113.027244 507.87118 
L 118.470603 513.612382 
L 123.913963 519.017833 
L 129.357322 524.113227 
L 134.800681 528.921846 
L 140.697654 533.832029 
L 146.594626 538.454771 
L 152.945212 543.136857 
L 159.295798 547.535909 
L 165.646384 551.674299 
L 172.450583 555.841948 
L 179.254782 559.755947 
L 186.512594 563.674005 
L 194.22402 567.570465 
L 201.935445 571.215541 
L 210.100484 574.824533 
L 218.719137 578.378808 
L 227.337789 581.69407 
L 236.410054 584.948622 
L 245.935933 588.129644 
L 255.915425 591.22648 
L 266.34853 594.230512 
L 277.235249 597.135 
L 288.575581 599.934917 
L 300.823139 602.726135 
L 313.524311 605.391633 
L 327.132709 608.016021 
L 341.19472 610.50333 
L 356.163958 612.927921 
L 372.040423 615.276218 
L 389.277727 617.595904 
L 407.422258 619.810155 
L 426.927629 621.962524 
L 447.793839 624.036968 
L 470.02089 626.021503 
L 494.062393 627.942047 
L 519.91835 629.782188 
L 548.042373 631.557166 
L 578.434462 633.249865 
L 611.548231 634.869303 
L 647.837293 636.418509 
L 687.755261 637.896392 
L 731.755748 639.299365 
L 780.745981 640.634138 
L 835.179574 641.89073 
L 896.417366 643.077383 
L 965.820197 644.193883 
L 995.758673 644.614255 
L 995.758673 644.614255 
" clip-path="url(#p4d993a6e90)" style="fill: none; stroke: #2ca02c; stroke-width: 5; stroke-linecap: round"/>
   </g>
   <g id="line2d_15">
    <path d="M 88.532127 418.59911 
L 92.161033 427.709635 
L 96.243553 437.335834 
L 100.326072 446.355657 
L 104.408592 454.819024 
L 108.491111 462.770821 
L 112.573631 470.251494 
L 116.65615 477.297565 
L 121.192283 484.656907 
L 125.728416 491.56133 
L 130.264548 498.047595 
L 134.800681 504.148826 
L 139.336814 509.894924 
L 144.32656 515.837668 
L 149.316306 521.415879 
L 154.306052 526.658792 
L 159.295798 531.592769 
L 164.739157 536.650875 
L 170.182516 541.397505 
L 175.625876 545.857733 
L 181.522848 550.392608 
L 187.419821 554.643695 
L 193.316793 558.634202 
L 199.667379 562.664159 
L 206.017965 566.439523 
L 212.822164 570.225864 
L 219.626363 573.767186 
L 226.884175 577.297816 
L 234.595601 580.794502 
L 242.307027 584.052305 
L 250.472066 587.264985 
L 259.090718 590.416218 
L 268.162983 593.492249 
L 277.688862 596.481761 
L 287.668354 599.375724 
L 298.101459 602.167205 
L 308.988178 604.85117 
L 320.782123 607.522814 
L 333.029681 610.065486 
L 346.184466 612.562829 
L 359.792864 614.920465 
L 374.308489 617.211548 
L 389.73134 619.422772 
L 406.515031 621.600056 
L 424.205949 623.66932 
L 443.257707 625.672607 
L 463.670304 627.594754 
L 485.897354 629.460768 
L 509.938858 631.251252 
L 535.794814 632.952228 
L 563.918837 634.579098 
L 594.76454 636.138914 
L 628.785535 637.632692 
L 666.435437 639.05743 
L 708.167858 640.4079 
L 754.436412 641.678154 
L 806.148325 642.8723 
L 864.664437 643.997208 
L 931.345588 645.051509 
L 995.758673 645.891605 
L 995.758673 645.891605 
" clip-path="url(#p4d993a6e90)" style="fill: none; stroke: #d62728; stroke-width: 5; stroke-linecap: round"/>
   </g>
   <g id="line2d_16">
    <path d="M 88.532127 360.156207 
L 91.70742 372.588932 
L 95.336326 385.848875 
L 98.965233 398.186731 
L 102.594139 409.686139 
L 106.223045 420.421458 
L 109.851951 430.458977 
L 113.480857 439.857946 
L 117.109763 448.671449 
L 120.73867 456.947164 
L 124.367576 464.728011 
L 128.450095 472.938001 
L 132.532615 480.620117 
L 136.615134 487.818698 
L 140.697654 494.573523 
L 144.780173 500.920357 
L 148.862693 506.891435 
L 153.398825 513.120572 
L 157.934958 518.957632 
L 162.471091 524.434865 
L 167.007223 529.581272 
L 171.996969 534.891329 
L 176.986715 539.863923 
L 181.976461 544.527073 
L 186.966207 548.905949 
L 192.409567 553.385258 
L 197.852926 557.579613 
L 203.749899 561.829341 
L 209.646871 565.799329 
L 215.543844 569.513614 
L 221.894429 573.252272 
L 228.245015 576.743293 
L 235.049214 580.233146 
L 242.307027 583.695753 
L 249.564839 586.914734 
L 257.276265 590.092905 
L 265.441304 593.212018 
L 274.059956 596.256713 
L 283.132221 599.214388 
L 292.6581 602.075021 
L 302.637592 604.830963 
L 313.070697 607.476698 
L 323.957416 610.008609 
L 335.751361 612.517041 
L 347.998919 614.893145 
L 361.153704 617.215978 
L 375.215716 619.467926 
L 390.184954 621.635294 
L 406.061418 623.707967 
L 423.298723 625.729435 
L 441.896867 627.679583 
L 461.855851 629.54336 
L 483.175675 631.310276 
L 506.309951 633.005027 
L 531.712295 634.640511 
L 559.382704 636.196869 
L 589.774794 637.681304 
L 623.342176 639.095109 
L 660.538464 640.43579 
L 702.270885 641.711629 
L 748.993052 642.911461 
L 801.612192 644.035167 
L 861.489144 645.086348 
L 930.438361 646.067898 
L 995.758673 646.825584 
L 995.758673 646.825584 
" clip-path="url(#p4d993a6e90)" style="fill: none; stroke: #9467bd; stroke-width: 5; stroke-linecap: round"/>
   </g>
   <g id="line2d_17">
    <path d="M 88.532127 301.713304 
L 91.70742 319.517819 
L 94.882713 335.997687 
L 98.058006 351.281285 
L 101.233299 365.481792 
L 104.408592 378.699299 
L 107.583885 391.022586 
L 110.759178 402.530625 
L 113.934471 413.29385 
L 117.563377 424.763149 
L 121.192283 435.425346 
L 124.821189 445.354507 
L 128.450095 454.616386 
L 132.079001 463.26952 
L 135.707908 471.366161 
L 139.336814 478.953068 
L 142.96572 486.072186 
L 147.048239 493.568853 
L 151.130759 500.569205 
L 155.213278 507.116144 
L 159.295798 513.248029 
L 163.378317 518.999246 
L 167.460837 524.40069 
L 171.996969 530.025809 
L 176.533102 535.287648 
L 181.069235 540.216853 
L 185.605368 544.840901 
L 190.595114 549.604299 
L 195.58486 554.057756 
L 200.574606 558.227607 
L 206.017965 562.480745 
L 211.461324 566.451792 
L 217.358297 570.463687 
L 223.255269 574.200776 
L 229.605855 577.946104 
L 235.956441 581.428358 
L 242.76064 584.89472 
L 249.564839 588.112904 
L 256.822651 591.298121 
L 264.534077 594.429531 
L 272.245503 597.32597 
L 280.410542 600.16213 
L 289.029194 602.924315 
L 298.101459 605.601446 
L 307.627338 608.184878 
L 318.060443 610.776034 
L 328.947162 613.244033 
L 340.287494 615.588272 
L 352.535052 617.890902 
L 365.689837 620.131165 
L 379.751848 622.292664 
L 394.721086 624.363051 
L 410.597551 626.333618 
L 427.834855 628.246428 
L 446.432999 630.083 
L 466.391983 631.829943 
L 488.165421 633.511258 
L 512.206924 635.13854 
L 538.516494 636.689126 
L 567.09413 638.147551 
L 598.847059 639.541478 
L 634.228894 640.866223 
L 673.693249 642.115366 
L 718.14735 643.293343 
L 768.04481 644.388968 
L 825.200082 645.416647 
L 890.974007 646.371361 
L 967.63465 647.255256 
L 995.758673 647.531072 
L 995.758673 647.531072 
" clip-path="url(#p4d993a6e90)" style="fill: none; stroke: #8c564b; stroke-width: 5; stroke-linecap: round"/>
   </g>
   <g id="line2d_18">
    <path d="M 88.532127 243.270402 
L 91.253807 264.061037 
L 93.975487 283.303057 
L 96.697166 301.146746 
L 99.418846 317.72457 
L 102.594139 335.620958 
L 105.769432 352.116695 
L 108.944725 367.354403 
L 112.120017 381.458985 
L 115.29531 394.540204 
L 118.470603 406.694836 
L 121.645896 418.008469 
L 124.821189 428.557027 
L 127.996482 438.408045 
L 131.171775 447.621763 
L 134.800681 457.4402 
L 138.429587 466.567985 
L 142.058493 475.068473 
L 145.6874 482.997911 
L 149.316306 490.406376 
L 152.945212 497.338569 
L 156.574118 503.834493 
L 160.656638 510.665473 
L 164.739157 517.035285 
L 168.821677 522.984563 
L 172.904196 528.549556 
L 176.986715 533.76269 
L 181.522848 539.177647 
L 186.058981 544.22968 
L 190.595114 548.950535 
L 195.131246 553.368562 
L 200.120992 557.90883 
L 205.110738 562.143485 
L 210.100484 566.09937 
L 215.543844 570.125029 
L 220.987203 573.8751 
L 226.884175 577.655157 
L 232.781148 581.168363 
L 239.131734 584.681486 
L 245.48232 587.940666 
L 252.286519 591.177952 
L 259.090718 594.177057 
L 266.34853 597.13923 
L 274.059956 600.045208 
L 282.224995 602.878885 
L 290.843647 605.62717 
L 299.915912 608.279784 
L 309.441791 610.829017 
L 319.421283 613.269457 
L 330.308002 615.694185 
L 341.648333 617.987592 
L 353.895892 620.230828 
L 367.050677 622.40406 
L 381.112688 624.491999 
L 396.081926 626.483505 
L 411.958391 628.371108 
L 429.195695 630.195798 
L 447.793839 631.940497 
L 468.206437 633.628421 
L 490.433487 635.238937 
L 514.928604 636.784497 
L 541.691787 638.245566 
L 571.176649 639.629368 
L 603.836805 640.937393 
L 640.57948 642.18176 
L 681.858288 643.351888 
L 728.580455 644.44853 
L 782.106821 645.475729 
L 843.344613 646.423525 
L 915.01551 647.303984 
L 995.758673 648.080419 
L 995.758673 648.080419 
" clip-path="url(#p4d993a6e90)" style="fill: none; stroke: #e377c2; stroke-width: 5; stroke-linecap: round"/>
   </g>
   <g id="line2d_19">
    <path d="M 88.532127 184.827499 
L 91.253807 211.858069 
L 93.975487 236.605392 
L 96.697166 259.319969 
L 99.418846 280.218822 
L 102.140525 299.490733 
L 104.862205 317.300542 
L 107.583885 333.792707 
L 110.305564 349.094254 
L 113.480857 365.590024 
L 116.65615 380.773261 
L 119.831443 394.779786 
L 123.006736 407.728277 
L 126.182029 419.722806 
L 129.357322 430.854943 
L 132.532615 441.20552 
L 135.707908 450.846105 
L 138.883201 459.840253 
L 142.058493 468.244557 
L 145.6874 477.191784 
L 149.316306 485.501439 
L 152.945212 493.232753 
L 156.574118 500.438229 
L 160.203024 507.16454 
L 163.831931 513.45329 
L 167.460837 519.34166 
L 171.543356 525.528838 
L 175.625876 531.29368 
L 179.708395 536.6738 
L 183.790915 541.702716 
L 188.327047 546.914801 
L 192.86318 551.766765 
L 197.399313 556.291064 
L 201.935445 560.516571 
L 206.925191 564.850191 
L 211.914937 568.883903 
L 216.904683 572.644774 
L 222.348043 576.464594 
L 227.791402 580.016075 
L 233.688375 583.589132 
L 239.585347 586.903677 
L 245.935933 590.211968 
L 252.286519 593.275474 
L 259.090718 596.312898 
L 266.34853 599.30154 
L 274.059956 602.222267 
L 281.771381 604.908169 
L 289.93642 607.523321 
L 298.555073 610.055868 
L 307.627338 612.496612 
L 317.60683 614.945108 
L 328.039935 617.271237 
L 338.926654 619.474528 
L 350.720599 621.635091 
L 363.421771 623.732018 
L 377.030169 625.749069 
L 391.545793 627.674294 
L 407.422258 629.550142 
L 424.659562 631.354535 
L 443.257707 633.071342 
L 463.216691 634.689726 
L 485.443741 636.263418 
L 509.485244 637.740127 
L 536.248427 639.157087 
L 565.73329 640.49223 
L 598.847059 641.763837 
L 636.043347 642.963002 
L 677.775769 644.081279 
L 725.405162 645.130036 
L 780.292368 646.109283 
L 843.798226 647.013218 
L 918.190803 647.843537 
L 995.758673 648.519355 
L 995.758673 648.519355 
" clip-path="url(#p4d993a6e90)" style="fill: none; stroke: #7f7f7f; stroke-width: 5; stroke-linecap: round"/>
   </g>
   <g id="line2d_20">
    <path d="M 88.532127 126.384596 
L 91.253807 160.43866 
L 93.975487 191.281512 
L 96.697166 219.305266 
L 99.418846 244.843882 
L 102.140525 268.18323 
L 104.862205 289.569175 
L 107.583885 309.214116 
L 110.305564 327.302316 
L 113.027244 343.994262 
L 115.748924 359.430256 
L 118.470603 373.73339 
L 121.192283 387.012021 
L 124.367576 401.33594 
L 127.542869 414.528564 
L 130.718162 426.706114 
L 133.893455 437.970247 
L 137.068747 448.410194 
L 140.24404 458.104537 
L 143.419333 467.122706 
L 146.594626 475.526223 
L 149.769919 483.369766 
L 153.398825 491.710392 
L 157.027731 499.447592 
L 160.656638 506.638263 
L 164.285544 513.332743 
L 167.91445 519.575702 
L 171.543356 525.406888 
L 175.625876 531.518789 
L 179.708395 537.199207 
L 183.790915 542.48786 
L 187.873434 547.419993 
L 191.955953 552.026973 
L 196.492086 556.798428 
L 201.028219 561.237097 
L 205.564352 565.373247 
L 210.554098 569.605618 
L 215.543844 573.53617 
L 220.53359 577.192954 
L 225.976949 580.899084 
L 231.420308 584.337503 
L 237.317281 587.7895 
L 243.214253 590.985045 
L 249.564839 594.167984 
L 255.915425 597.109421 
L 262.719624 600.019997 
L 269.977436 602.878039 
L 277.688862 605.665448 
L 285.853901 608.36755 
L 294.472553 610.972875 
L 303.544819 613.472874 
L 313.070697 615.861605 
L 323.050189 618.135408 
L 333.936908 620.381701 
L 345.27724 622.494249 
L 357.524798 624.548925 
L 370.679583 626.5282 
L 384.741594 628.419048 
L 400.164446 630.263637 
L 416.948137 632.038774 
L 435.092668 633.727497 
L 454.598038 635.318407 
L 476.371475 636.865016 
L 499.959366 638.314409 
L 526.268935 639.703525 
L 555.300185 641.010066 
L 587.960341 642.252004 
L 624.703016 643.420354 
L 666.435437 644.517615 
L 714.06483 645.540144 
L 768.952036 646.488859 
L 832.911508 647.364593 
L 908.211311 648.166169 
L 995.758673 648.877698 
L 995.758673 648.877698 
" clip-path="url(#p4d993a6e90)" style="fill: none; stroke: #bcbd22; stroke-width: 5; stroke-linecap: round"/>
   </g>
   <g id="line2d_21">
    <path d="M 88.532127 67.941693 
L 90.800194 103.136419 
L 93.06826 135.236436 
L 95.336326 164.59493 
L 97.604393 191.516027 
L 100.326072 220.971828 
L 103.047752 247.684507 
L 105.769432 271.98498 
L 108.491111 294.155662 
L 111.212791 314.438763 
L 113.934471 333.042972 
L 116.65615 350.148878 
L 119.37783 365.913401 
L 122.099509 380.473414 
L 124.821189 393.948752 
L 127.542869 406.444689 
L 130.718162 419.908615 
L 133.893455 432.294409 
L 137.068747 443.71433 
L 140.24404 454.266384 
L 143.419333 464.036439 
L 146.594626 473.099994 
L 149.769919 481.523641 
L 152.945212 489.3663 
L 156.120505 496.680256 
L 159.749411 504.451125 
L 163.378317 511.65356 
L 167.007223 518.341738 
L 170.63613 524.563525 
L 174.265036 530.361341 
L 177.893942 535.772889 
L 181.976461 541.44086 
L 186.058981 546.704852 
L 190.1415 551.602397 
L 194.22402 556.166766 
L 198.760153 560.883386 
L 203.296285 565.261066 
L 207.832418 569.331546 
L 212.368551 573.122934 
L 217.358297 577.000821 
L 222.348043 580.600589 
L 227.791402 584.240876 
L 233.234761 587.610797 
L 239.131734 590.986692 
L 245.028706 594.105088 
L 251.379292 597.204632 
L 257.729878 600.063055 
L 264.534077 602.885728 
L 271.791889 605.651746 
L 279.503315 608.343816 
L 287.668354 610.948093 
L 296.287006 613.453921 
L 305.359272 615.853534 
L 314.88515 618.141726 
L 325.318256 620.409349 
L 336.204974 622.54332 
L 347.998919 624.622451 
L 360.700091 626.627282 
L 374.308489 628.543276 
L 388.824114 630.360322 
L 404.700578 632.119427 
L 421.937883 633.800639 
L 440.536027 635.390008 
L 460.948624 636.910335 
L 483.629288 638.371777 
L 508.578018 639.752151 
L 536.248427 641.057055 
L 567.09413 642.286523 
L 602.022352 643.451298 
L 641.486707 644.539944 
L 686.848034 645.561879 
L 739.01356 646.50781 
L 799.797739 647.38087 
L 871.468636 648.181032 
L 957.201545 648.908742 
L 995.758673 649.175563 
L 995.758673 649.175563 
" clip-path="url(#p4d993a6e90)" style="fill: none; stroke: #17becf; stroke-width: 5; stroke-linecap: round"/>
   </g>
   <g id="patch_3">
    <path d="M 88.532127 678.237256 
L 88.532127 38.88 
" style="fill: none; stroke: #262626; stroke-width: 0.8; stroke-linejoin: miter; stroke-linecap: square"/>
   </g>
   <g id="patch_4">
    <path d="M 88.532127 678.237256 
L 1041.12 678.237256 
" style="fill: none; stroke: #262626; stroke-width: 0.8; stroke-linejoin: miter; stroke-linecap: square"/>
   </g>
  </g>
 </g>
 <defs>
  <clipPath id="p4d993a6e90">
   <rect x="88.532127" y="38.88" width="952.587873" height="639.357256"/>
  </clipPath>
 </defs>
</svg>
