<?xml version="1.0" encoding="utf-8" standalone="no"?>
<!DOCTYPE svg PUBLIC "-//W3C//DTD SVG 1.1//EN"
  "http://www.w3.org/Graphics/SVG/1.1/DTD/svg11.dtd">
<svg xmlns:xlink="http://www.w3.org/1999/xlink" width="1080pt" height="756pt" viewBox="0 0 1080 756" xmlns="http://www.w3.org/2000/svg" version="1.1">
 <metadata>
  <rdf:RDF xmlns:dc="http://purl.org/dc/elements/1.1/" xmlns:cc="http://creativecommons.org/ns#" xmlns:rdf="http://www.w3.org/1999/02/22-rdf-syntax-ns#">
   <cc:Work>
    <dc:type rdf:resource="http://purl.org/dc/dcmitype/StillImage"/>
    <dc:date>2024-07-30T19:42:40.081656</dc:date>
    <dc:format>image/svg+xml</dc:format>
    <dc:creator>
     <cc:Agent>
      <dc:title>Matplotlib v3.9.0, https://matplotlib.org/</dc:title>
     </cc:Agent>
    </dc:creator>
   </cc:Work>
  </rdf:RDF>
 </metadata>
 <defs>
  <style type="text/css">*{stroke-linejoin: round; stroke-linecap: butt}</style>
 </defs>
 <g id="figure_1">
  <g id="patch_1">
   <path d="M 0 756 
L 1080 756 
L 1080 0 
L 0 0 
z
" style="fill: #ffffff"/>
  </g>
  <g id="axes_1">
   <g id="patch_2">
    <path d="M 88.532127 678.237256 
L 1041.12 678.237256 
L 1041.12 38.88 
L 88.532127 38.88 
z
" style="fill: #ffffff"/>
   </g>
   <g id="matplotlib.axis_1">
    <g id="xtick_1">
     <g id="line2d_1">
      <defs>
       <path id="me2c828265d" d="M 0 0 
L 0 3.5 
" style="stroke: #262626; stroke-width: 0.8"/>
      </defs>
      <g>
       <use xlink:href="#me2c828265d" x="88.532127" y="678.237256" style="fill: #262626; stroke: #262626; stroke-width: 0.8"/>
      </g>
     </g>
     <g id="text_1">
      <!-- $\mathdefault{0}$ -->
      <g style="fill: #262626" transform="translate(80.307841 710.143856) scale(0.36 -0.36)">
       <defs>
        <path id="CMR17-30" d="M 2688 2025 
C 2688 2416 2682 3080 2413 3591 
C 2176 4039 1798 4198 1466 4198 
C 1158 4198 768 4058 525 3597 
C 269 3118 243 2524 243 2025 
C 243 1661 250 1106 448 619 
C 723 -39 1216 -128 1466 -128 
C 1760 -128 2208 -7 2470 600 
C 2662 1042 2688 1559 2688 2025 
z
M 1466 -26 
C 1056 -26 813 325 723 812 
C 653 1188 653 1738 653 2096 
C 653 2588 653 2997 736 3387 
C 858 3929 1216 4096 1466 4096 
C 1728 4096 2067 3923 2189 3400 
C 2272 3036 2278 2607 2278 2096 
C 2278 1680 2278 1169 2202 792 
C 2067 95 1690 -26 1466 -26 
z
" transform="scale(0.015625)"/>
       </defs>
       <use xlink:href="#CMR17-30" transform="scale(0.996264)"/>
      </g>
     </g>
    </g>
    <g id="xtick_2">
     <g id="line2d_2">
      <g>
       <use xlink:href="#me2c828265d" x="315.338764" y="678.237256" style="fill: #262626; stroke: #262626; stroke-width: 0.8"/>
      </g>
     </g>
     <g id="text_2">
      <!-- $\mathdefault{500}$ -->
      <g style="fill: #262626" transform="translate(290.665906 710.143856) scale(0.36 -0.36)">
       <defs>
        <path id="CMR17-35" d="M 730 3692 
C 794 3666 1056 3584 1325 3584 
C 1920 3584 2246 3911 2432 4100 
C 2432 4157 2432 4192 2394 4192 
C 2387 4192 2374 4192 2323 4163 
C 2099 4058 1837 3973 1517 3973 
C 1325 3973 1037 3999 723 4139 
C 653 4171 640 4171 634 4171 
C 602 4171 595 4164 595 4037 
L 595 2203 
C 595 2089 595 2057 659 2057 
C 691 2057 704 2070 736 2114 
C 941 2401 1222 2522 1542 2522 
C 1766 2522 2246 2382 2246 1289 
C 2246 1085 2246 715 2054 421 
C 1894 159 1645 25 1370 25 
C 947 25 518 320 403 814 
C 429 807 480 795 506 795 
C 589 795 749 840 749 1038 
C 749 1210 627 1280 506 1280 
C 358 1280 262 1190 262 1011 
C 262 454 704 -128 1382 -128 
C 2042 -128 2669 440 2669 1264 
C 2669 2030 2170 2624 1549 2624 
C 1222 2624 947 2503 730 2274 
L 730 3692 
z
" transform="scale(0.015625)"/>
       </defs>
       <use xlink:href="#CMR17-35" transform="scale(0.996264)"/>
       <use xlink:href="#CMR17-30" transform="translate(45.690477 0) scale(0.996264)"/>
       <use xlink:href="#CMR17-30" transform="translate(91.380954 0) scale(0.996264)"/>
      </g>
     </g>
    </g>
    <g id="xtick_3">
     <g id="line2d_3">
      <g>
       <use xlink:href="#me2c828265d" x="542.1454" y="678.237256" style="fill: #262626; stroke: #262626; stroke-width: 0.8"/>
      </g>
     </g>
     <g id="text_3">
      <!-- $\mathdefault{1000}$ -->
      <g style="fill: #262626" transform="translate(509.248256 710.143856) scale(0.36 -0.36)">
       <defs>
        <path id="CMR17-31" d="M 1702 4058 
C 1702 4192 1696 4192 1606 4192 
C 1357 3916 979 3827 621 3827 
C 602 3827 570 3827 563 3808 
C 557 3795 557 3782 557 3648 
C 755 3648 1088 3686 1344 3839 
L 1344 461 
C 1344 236 1331 160 781 160 
L 589 160 
L 589 0 
C 896 0 1216 0 1523 0 
C 1830 0 2150 0 2458 0 
L 2458 160 
L 2266 160 
C 1715 160 1702 230 1702 458 
L 1702 4058 
z
" transform="scale(0.015625)"/>
       </defs>
       <use xlink:href="#CMR17-31" transform="scale(0.996264)"/>
       <use xlink:href="#CMR17-30" transform="translate(45.690477 0) scale(0.996264)"/>
       <use xlink:href="#CMR17-30" transform="translate(91.380954 0) scale(0.996264)"/>
       <use xlink:href="#CMR17-30" transform="translate(137.071431 0) scale(0.996264)"/>
      </g>
     </g>
    </g>
    <g id="xtick_4">
     <g id="line2d_4">
      <g>
       <use xlink:href="#me2c828265d" x="768.952036" y="678.237256" style="fill: #262626; stroke: #262626; stroke-width: 0.8"/>
      </g>
     </g>
     <g id="text_4">
      <!-- $\mathdefault{1500}$ -->
      <g style="fill: #262626" transform="translate(736.054893 710.143856) scale(0.36 -0.36)">
       <use xlink:href="#CMR17-31" transform="scale(0.996264)"/>
       <use xlink:href="#CMR17-35" transform="translate(45.690477 0) scale(0.996264)"/>
       <use xlink:href="#CMR17-30" transform="translate(91.380954 0) scale(0.996264)"/>
       <use xlink:href="#CMR17-30" transform="translate(137.071431 0) scale(0.996264)"/>
      </g>
     </g>
    </g>
    <g id="xtick_5">
     <g id="line2d_5">
      <g>
       <use xlink:href="#me2c828265d" x="995.758673" y="678.237256" style="fill: #262626; stroke: #262626; stroke-width: 0.8"/>
      </g>
     </g>
     <g id="text_5">
      <!-- $\mathdefault{2000}$ -->
      <g style="fill: #262626" transform="translate(962.861529 710.143856) scale(0.36 -0.36)">
       <defs>
        <path id="CMR17-32" d="M 2669 989 
L 2554 989 
C 2490 536 2438 459 2413 420 
C 2381 369 1920 369 1830 369 
L 602 369 
C 832 619 1280 1072 1824 1597 
C 2214 1967 2669 2402 2669 3035 
C 2669 3790 2067 4224 1395 4224 
C 691 4224 262 3604 262 3030 
C 262 2780 448 2748 525 2748 
C 589 2748 781 2787 781 3010 
C 781 3207 614 3264 525 3264 
C 486 3264 448 3258 422 3245 
C 544 3790 915 4058 1306 4058 
C 1862 4058 2227 3617 2227 3035 
C 2227 2479 1901 2000 1536 1584 
L 262 146 
L 262 0 
L 2515 0 
L 2669 989 
z
" transform="scale(0.015625)"/>
       </defs>
       <use xlink:href="#CMR17-32" transform="scale(0.996264)"/>
       <use xlink:href="#CMR17-30" transform="translate(45.690477 0) scale(0.996264)"/>
       <use xlink:href="#CMR17-30" transform="translate(91.380954 0) scale(0.996264)"/>
       <use xlink:href="#CMR17-30" transform="translate(137.071431 0) scale(0.996264)"/>
      </g>
     </g>
    </g>
   </g>
   <g id="matplotlib.axis_2">
    <g id="ytick_1">
     <g id="line2d_6">
      <defs>
       <path id="m8f57bb4ad8" d="M 0 0 
L -3.5 0 
" style="stroke: #262626; stroke-width: 0.8"/>
      </defs>
      <g>
       <use xlink:href="#m8f57bb4ad8" x="88.532127" y="649.449605" style="fill: #262626; stroke: #262626; stroke-width: 0.8"/>
      </g>
     </g>
     <g id="text_6">
      <!-- $\mathdefault{0.0}$ -->
      <g style="fill: #262626" transform="translate(38.88 661.902905) scale(0.36 -0.36)">
       <defs>
        <path id="CMMI12-3a" d="M 1178 307 
C 1178 492 1024 619 870 619 
C 685 619 557 466 557 313 
C 557 128 710 0 864 0 
C 1050 0 1178 153 1178 307 
z
" transform="scale(0.015625)"/>
       </defs>
       <use xlink:href="#CMR17-30" transform="scale(0.996264)"/>
       <use xlink:href="#CMMI12-3a" transform="translate(45.690477 0) scale(0.996264)"/>
       <use xlink:href="#CMR17-30" transform="translate(72.787654 0) scale(0.996264)"/>
      </g>
     </g>
    </g>
    <g id="ytick_2">
     <g id="line2d_7">
      <g>
       <use xlink:href="#m8f57bb4ad8" x="88.532127" y="504.072627" style="fill: #262626; stroke: #262626; stroke-width: 0.8"/>
      </g>
     </g>
     <g id="text_7">
      <!-- $\mathdefault{0.5}$ -->
      <g style="fill: #262626" transform="translate(38.88 516.525927) scale(0.36 -0.36)">
       <use xlink:href="#CMR17-30" transform="scale(0.996264)"/>
       <use xlink:href="#CMMI12-3a" transform="translate(45.690477 0) scale(0.996264)"/>
       <use xlink:href="#CMR17-35" transform="translate(72.787654 0) scale(0.996264)"/>
      </g>
     </g>
    </g>
    <g id="ytick_3">
     <g id="line2d_8">
      <g>
       <use xlink:href="#m8f57bb4ad8" x="88.532127" y="358.695649" style="fill: #262626; stroke: #262626; stroke-width: 0.8"/>
      </g>
     </g>
     <g id="text_8">
      <!-- $\mathdefault{1.0}$ -->
      <g style="fill: #262626" transform="translate(38.88 371.14895) scale(0.36 -0.36)">
       <use xlink:href="#CMR17-31" transform="scale(0.996264)"/>
       <use xlink:href="#CMMI12-3a" transform="translate(45.690477 0) scale(0.996264)"/>
       <use xlink:href="#CMR17-30" transform="translate(72.787654 0) scale(0.996264)"/>
      </g>
     </g>
    </g>
    <g id="ytick_4">
     <g id="line2d_9">
      <g>
       <use xlink:href="#m8f57bb4ad8" x="88.532127" y="213.318671" style="fill: #262626; stroke: #262626; stroke-width: 0.8"/>
      </g>
     </g>
     <g id="text_9">
      <!-- $\mathdefault{1.5}$ -->
      <g style="fill: #262626" transform="translate(38.88 225.771972) scale(0.36 -0.36)">
       <use xlink:href="#CMR17-31" transform="scale(0.996264)"/>
       <use xlink:href="#CMMI12-3a" transform="translate(45.690477 0) scale(0.996264)"/>
       <use xlink:href="#CMR17-35" transform="translate(72.787654 0) scale(0.996264)"/>
      </g>
     </g>
    </g>
    <g id="ytick_5">
     <g id="line2d_10">
      <g>
       <use xlink:href="#m8f57bb4ad8" x="88.532127" y="67.941693" style="fill: #262626; stroke: #262626; stroke-width: 0.8"/>
      </g>
     </g>
     <g id="text_10">
      <!-- $\mathdefault{2.0}$ -->
      <g style="fill: #262626" transform="translate(38.88 80.394994) scale(0.36 -0.36)">
       <use xlink:href="#CMR17-32" transform="scale(0.996264)"/>
       <use xlink:href="#CMMI12-3a" transform="translate(45.690477 0) scale(0.996264)"/>
       <use xlink:href="#CMR17-30" transform="translate(72.787654 0) scale(0.996264)"/>
      </g>
     </g>
    </g>
   </g>
   <g id="line2d_11">
    <path d="M 88.532127 591.298814 
L 94.202293 594.441821 
L 100.099266 597.447606 
L 106.223045 600.315409 
L 112.573631 603.045803 
L 119.37783 605.726031 
L 126.408836 608.258705 
L 133.893455 610.72026 
L 141.831687 613.097348 
L 150.223532 615.379842 
L 159.295798 617.613644 
L 168.821677 619.730619 
L 179.027975 621.772664 
L 190.1415 623.765668 
L 201.935445 625.654024 
L 214.863424 627.494185 
L 228.698629 629.236588 
L 243.894673 630.92159 
L 260.451558 632.528312 
L 278.596089 634.060259 
L 298.555073 635.516834 
L 320.555316 636.895006 
L 345.050433 638.201855 
L 372.494036 639.437465 
L 403.339739 640.597874 
L 438.267961 641.683903 
L 478.185929 642.697061 
L 524.227676 643.637436 
L 577.980849 644.506382 
L 641.486707 645.303343 
L 717.46693 646.027162 
L 810.230844 646.680211 
L 925.675422 647.26147 
L 995.758673 647.529276 
L 995.758673 647.529276 
" clip-path="url(#pbfd22eba9c)" style="fill: none; stroke: #1f77b4; stroke-width: 5; stroke-linecap: round"/>
   </g>
   <g id="line2d_12">
    <path d="M 88.532127 533.148023 
L 91.480614 539.68524 
L 94.4291 545.685839 
L 97.377586 551.207026 
L 100.552879 556.673725 
L 103.728172 561.6961 
L 106.903465 566.32106 
L 110.305564 570.881699 
L 113.707664 575.076757 
L 117.33657 579.191341 
L 120.965476 582.973416 
L 124.821189 586.666504 
L 128.676902 590.059944 
L 132.759421 593.36142 
L 137.068747 596.556122 
L 141.60488 599.632636 
L 146.36782 602.582619 
L 151.357566 605.400456 
L 156.574118 608.082909 
L 162.017477 610.628769 
L 167.687643 613.03853 
L 173.811423 615.397309 
L 180.388815 617.684171 
L 187.193014 619.815592 
L 194.677633 621.921365 
L 202.615865 623.918475 
L 211.234518 625.850178 
L 220.53359 627.698304 
L 230.513082 629.450041 
L 241.3998 631.130053 
L 253.193745 632.721785 
L 266.121724 634.239335 
L 280.410542 635.688156 
L 296.287006 637.06774 
L 313.751117 638.358543 
L 333.483295 639.588113 
L 355.483538 640.732441 
L 380.659075 641.813398 
L 409.463518 642.82057 
L 442.577287 643.750332 
L 481.361221 644.610405 
L 527.176162 645.397181 
L 582.290175 646.113371 
L 649.651746 646.757594 
L 733.797008 647.330356 
L 841.756967 647.83209 
L 984.871954 648.262914 
L 995.758673 648.288397 
L 995.758673 648.288397 
" clip-path="url(#pbfd22eba9c)" style="fill: none; stroke: #ff7f0e; stroke-width: 5; stroke-linecap: round"/>
   </g>
   <g id="line2d_13">
    <path d="M 88.532127 474.997232 
L 90.800194 486.255809 
L 93.06826 496.457079 
L 95.563133 506.610064 
L 98.058006 515.783562 
L 100.552879 524.099751 
L 103.047752 531.662322 
L 105.542625 538.55974 
L 108.264305 545.414424 
L 110.985984 551.651888 
L 113.707664 557.34413 
L 116.429344 562.552944 
L 119.37783 567.7119 
L 122.326316 572.424236 
L 125.274802 576.740093 
L 128.450095 580.994068 
L 131.625388 584.884998 
L 135.027488 588.696534 
L 138.429587 592.179951 
L 142.058493 595.575115 
L 145.6874 598.676821 
L 149.543112 601.687549 
L 153.625632 604.59233 
L 157.934958 607.379903 
L 162.471091 610.042328 
L 167.23403 612.574575 
L 172.223776 614.974113 
L 177.440329 617.240508 
L 183.110495 619.459335 
L 189.234274 621.607476 
L 195.58486 623.600111 
L 202.615865 625.566419 
L 210.100484 627.422729 
L 218.265523 629.211185 
L 227.110982 630.913408 
L 236.636861 632.516972 
L 247.069966 634.045538 
L 258.637105 635.510142 
L 271.338276 636.889968 
L 285.400288 638.19142 
L 301.276752 639.431584 
L 318.96767 640.586501 
L 339.15346 641.675996 
L 362.060931 642.685531 
L 388.597307 643.627119 
L 419.44301 644.493889 
L 455.958878 645.291137 
L 499.732559 646.016868 
L 553.032119 646.670188 
L 619.486463 647.253109 
L 704.312145 647.764534 
L 816.354623 648.205776 
L 970.583136 648.576931 
L 995.758673 648.621416 
L 995.758673 648.621416 
" clip-path="url(#pbfd22eba9c)" style="fill: none; stroke: #2ca02c; stroke-width: 5; stroke-linecap: round"/>
   </g>
   <g id="line2d_14">
    <path d="M 88.532127 416.846441 
L 90.573387 434.71322 
L 92.614647 450.593922 
L 94.655906 464.772756 
L 96.697166 477.484803 
L 98.738426 488.92587 
L 101.006492 500.346281 
L 103.274559 510.587997 
L 105.542625 519.807997 
L 107.810691 528.137945 
L 110.078758 535.688945 
L 112.573631 543.207454 
L 115.068504 550.003512 
L 117.563377 556.166889 
L 120.05825 561.773821 
L 122.779929 567.332072 
L 125.501609 572.377423 
L 128.223289 576.971147 
L 131.171775 581.4986 
L 134.120261 585.614255 
L 137.068747 589.36662 
L 140.24404 593.048887 
L 143.419333 596.4024 
L 146.821433 599.673727 
L 150.450339 602.840163 
L 154.079245 605.713524 
L 157.934958 608.48452 
L 162.017477 611.140751 
L 166.326804 613.673507 
L 170.862936 616.077301 
L 175.625876 618.3494 
L 180.615622 620.48936 
L 186.058981 622.581174 
L 191.955953 624.601282 
L 198.306539 626.532013 
L 205.110738 628.361019 
L 212.368551 630.080571 
L 220.306783 631.730983 
L 228.925435 633.294763 
L 238.451314 634.793767 
L 248.884419 636.20798 
L 260.451558 637.549111 
L 273.379536 638.820221 
L 287.895161 640.01891 
L 304.225238 641.140023 
L 322.823383 642.189392 
L 344.143206 643.164981 
L 368.86513 644.068644 
L 397.896379 644.901338 
L 432.370988 645.661376 
L 474.103409 646.351335 
L 525.588516 646.970752 
L 590.455214 647.518388 
L 674.600476 647.994924 
L 787.776987 648.400729 
L 947.902472 648.73725 
L 995.758673 648.806623 
L 995.758673 648.806623 
" clip-path="url(#pbfd22eba9c)" style="fill: none; stroke: #d62728; stroke-width: 5; stroke-linecap: round"/>
   </g>
   <g id="line2d_15">
    <path d="M 88.532127 358.695649 
L 90.34658 383.388901 
L 92.161033 405.057734 
L 93.975487 424.177426 
L 95.78994 441.133317 
L 97.831199 458.012375 
L 99.872459 472.916063 
L 101.913719 486.141442 
L 103.954979 497.931702 
L 105.996238 508.487482 
L 108.037498 517.975514 
L 110.305564 527.434341 
L 112.573631 535.906322 
L 114.841697 543.524263 
L 117.109763 550.399342 
L 119.37783 556.625199 
L 121.872703 562.818107 
L 124.367576 568.410481 
L 126.862449 573.477606 
L 129.584128 578.481087 
L 132.305808 583.005469 
L 135.027488 587.110077 
L 137.975974 591.141318 
L 140.92446 594.793375 
L 144.099753 598.355075 
L 147.275046 601.579277 
L 150.677146 604.706124 
L 154.079245 607.536022 
L 157.708151 610.268263 
L 161.563864 612.888287 
L 165.646384 615.385739 
L 169.95571 617.753943 
L 174.491842 619.989369 
L 179.254782 622.091103 
L 184.471334 624.144756 
L 189.914694 626.050435 
L 195.811666 627.881617 
L 202.162252 629.623084 
L 209.193258 631.315853 
L 216.904683 632.934526 
L 225.296529 634.461376 
L 234.368794 635.885366 
L 244.575093 637.257464 
L 255.915425 638.551194 
L 268.616597 639.769844 
L 282.905415 640.911445 
L 299.008686 641.971573 
L 317.60683 642.967394 
L 339.15346 643.890983 
L 364.328997 644.740206 
L 394.040666 645.513847 
L 429.876115 646.217508 
L 473.876602 646.850543 
L 528.990615 647.411744 
L 599.981092 647.901955 
L 694.786266 648.322189 
L 827.468149 648.673168 
L 995.758673 648.924309 
L 995.758673 648.924309 
" clip-path="url(#pbfd22eba9c)" style="fill: none; stroke: #9467bd; stroke-width: 5; stroke-linecap: round"/>
   </g>
   <g id="line2d_16">
    <path d="M 88.532127 300.544858 
L 90.119774 331.606362 
L 91.70742 358.685954 
L 93.295067 382.437583 
L 95.10952 406.175721 
L 96.923973 426.875885 
L 98.738426 445.036064 
L 100.552879 461.056113 
L 102.367332 475.260089 
L 104.408592 489.396729 
L 106.449852 501.87638 
L 108.491111 512.948597 
L 110.532371 522.817613 
L 112.573631 531.651878 
L 114.61489 539.591333 
L 116.882957 547.505183 
L 119.151023 554.592348 
L 121.41909 560.964217 
L 123.687156 566.714012 
L 126.182029 572.413616 
L 128.676902 577.5431 
L 131.171775 582.176117 
L 133.666648 586.374791 
L 136.388328 590.5215 
L 139.110007 594.271832 
L 142.058493 597.944038 
L 145.00698 601.261071 
L 148.182273 604.486836 
L 151.357566 607.398872 
L 154.759665 610.215441 
L 158.388571 612.918573 
L 162.017477 615.351407 
L 165.87319 617.679062 
L 169.95571 619.892877 
L 174.491842 622.091529 
L 179.254782 624.145973 
L 184.244528 626.059407 
L 189.687887 627.909177 
L 195.58486 629.67576 
L 201.935445 631.345581 
L 208.966451 632.958835 
L 216.677877 634.492038 
L 225.069722 635.929483 
L 234.368794 637.292843 
L 244.8019 638.590526 
L 256.369038 639.800317 
L 269.523823 640.945626 
L 284.493061 642.017148 
L 301.503559 643.006005 
L 321.235736 643.924352 
L 344.370013 644.771233 
L 371.813616 645.545529 
L 404.927385 646.248482 
L 445.525773 646.87862 
L 496.330459 647.435784 
L 562.104384 647.923746 
L 650.105359 648.341212 
L 773.261362 648.688401 
L 957.428351 648.967168 
L 995.758673 649.005646 
L 995.758673 649.005646 
" clip-path="url(#pbfd22eba9c)" style="fill: none; stroke: #8c564b; stroke-width: 5; stroke-linecap: round"/>
   </g>
   <g id="line2d_17">
    <path d="M 88.532127 242.394067 
L 90.119774 284.262412 
L 91.70742 319.968304 
L 93.295067 350.666967 
L 94.882713 377.254647 
L 96.47036 400.43537 
L 98.058006 420.768432 
L 99.872459 441.091066 
L 101.686912 458.813792 
L 103.501365 474.362642 
L 105.315818 488.079717 
L 107.130271 500.242298 
L 109.171531 512.34771 
L 111.212791 523.034642 
L 113.254051 532.516666 
L 115.29531 540.968577 
L 117.33657 548.534555 
L 119.604636 556.047144 
L 121.872703 562.749641 
L 124.140769 568.7546 
L 126.408836 574.155669 
L 128.903709 579.492576 
L 131.398582 584.280719 
L 133.893455 588.592912 
L 136.388328 592.490268 
L 139.110007 596.329233 
L 141.831687 599.792288 
L 144.780173 603.174713 
L 147.728659 606.222556 
L 150.903952 609.179557 
L 154.079245 611.842873 
L 157.481345 614.413203 
L 161.110251 616.874598 
L 164.965964 619.215805 
L 169.048483 621.429667 
L 173.357809 623.512497 
L 177.893942 625.463471 
L 182.883688 627.36552 
L 188.327047 629.193278 
L 194.22402 630.9284 
L 200.574606 632.55878 
L 207.605611 634.124643 
L 215.317037 635.604017 
L 223.708883 636.982894 
L 233.007955 638.283147 
L 243.44106 639.513609 
L 255.235005 640.674503 
L 268.616597 641.761156 
L 283.812641 642.767072 
L 301.503559 643.707843 
L 322.142963 644.574268 
L 346.411273 645.363626 
L 375.669329 646.084366 
L 411.277971 646.730717 
L 455.732072 647.306157 
L 512.660537 647.810515 
L 588.187147 648.245076 
L 692.745007 648.609771 
L 846.066293 648.905097 
L 995.758673 649.065202 
L 995.758673 649.065202 
" clip-path="url(#pbfd22eba9c)" style="fill: none; stroke: #e377c2; stroke-width: 5; stroke-linecap: round"/>
   </g>
   <g id="line2d_18">
    <path d="M 88.532127 184.243276 
L 89.892967 231.264711 
L 91.253807 271.475872 
L 92.841453 311.443109 
L 94.4291 345.370625 
L 96.016746 374.419469 
L 97.604393 399.484075 
L 99.192039 421.262587 
L 100.779686 440.306436 
L 102.594139 459.282966 
L 104.408592 475.78294 
L 106.223045 490.220014 
L 108.037498 502.92484 
L 109.851951 514.1643 
L 111.666404 524.155727 
L 113.707664 534.125225 
L 115.748924 542.948198 
L 117.790183 550.794183 
L 119.831443 557.802467 
L 121.872703 564.088349 
L 124.140769 570.341744 
L 126.408836 575.93121 
L 128.676902 580.947622 
L 130.944968 585.466806 
L 133.439841 589.939306 
L 135.934714 593.958072 
L 138.429587 597.582527 
L 141.151267 601.145307 
L 143.872947 604.352748 
L 146.821433 607.479393 
L 149.769919 610.291413 
L 152.945212 613.014621 
L 156.347312 615.628366 
L 159.976218 618.117723 
L 163.605124 620.341747 
L 167.460837 622.454693 
L 171.770163 624.554718 
L 176.306296 626.510913 
L 181.069235 628.32657 
L 186.285788 630.078203 
L 191.955953 631.745807 
L 198.079733 633.315818 
L 204.883932 634.827077 
L 212.368551 636.256466 
L 220.53359 637.589092 
L 229.832662 638.8747 
L 240.265767 640.082963 
L 251.832905 641.195314 
L 265.214497 642.251489 
L 280.410542 643.222336 
L 298.101459 644.123972 
L 318.96767 644.956535 
L 343.689593 645.712795 
L 373.628069 646.398043 
L 410.597551 647.012295 
L 457.319718 647.555345 
L 517.87709 648.025856 
L 599.754286 648.426853 
L 716.10609 648.758618 
L 893.242073 649.021882 
L 995.758673 649.110686 
L 995.758673 649.110686 
" clip-path="url(#pbfd22eba9c)" style="fill: none; stroke: #7f7f7f; stroke-width: 5; stroke-linecap: round"/>
   </g>
   <g id="line2d_19">
    <path d="M 88.532127 126.092485 
L 89.892967 185.12334 
L 91.253807 234.663311 
L 92.614647 276.648586 
L 93.975487 312.544665 
L 95.563133 348.214992 
L 97.150779 378.488344 
L 98.738426 404.40342 
L 100.326072 426.760135 
L 101.913719 446.18267 
L 103.501365 463.163903 
L 105.315818 480.08271 
L 107.130271 494.791473 
L 108.944725 507.65966 
L 110.759178 518.982536 
L 112.573631 528.998378 
L 114.388084 537.901187 
L 116.429344 546.783608 
L 118.470603 554.643785 
L 120.511863 561.632984 
L 122.553123 567.875461 
L 124.821189 574.060246 
L 127.089255 579.566248 
L 129.357322 584.489397 
L 131.625388 588.909243 
L 134.120261 593.268697 
L 136.615134 597.172999 
L 139.110007 600.683439 
L 141.831687 604.123869 
L 144.553366 607.212183 
L 147.501853 610.214256 
L 150.450339 612.906891 
L 153.625632 615.507641 
L 157.027731 617.997312 
L 160.656638 620.36234 
L 164.51235 622.594077 
L 168.59487 624.688024 
L 172.904196 626.64308 
L 177.440329 628.46084 
L 182.430075 630.220042 
L 187.873434 631.898083 
L 193.770407 633.47941 
L 200.347799 635.003408 
L 207.378805 636.403108 
L 215.317037 637.751963 
L 224.162496 639.022337 
L 234.141988 640.221928 
L 245.255513 641.329297 
L 257.956685 642.36703 
L 272.472309 643.326649 
L 289.482807 644.222123 
L 309.441791 645.043094 
L 333.256488 645.792458 
L 362.060931 646.468616 
L 397.669573 647.073607 
L 442.804093 647.608099 
L 501.773819 648.07226 
L 581.836561 648.466236 
L 696.147106 648.790356 
L 871.695443 649.046143 
L 995.758673 649.146554 
L 995.758673 649.146554 
" clip-path="url(#pbfd22eba9c)" style="fill: none; stroke: #bcbd22; stroke-width: 5; stroke-linecap: round"/>
   </g>
   <g id="line2d_20">
    <path d="M 88.532127 67.941693 
L 89.892967 140.233407 
L 91.253807 199.780123 
L 92.614647 249.41948 
L 93.975487 291.239486 
L 95.336326 326.804579 
L 96.697166 357.305874 
L 98.284813 387.706343 
L 99.872459 413.582384 
L 101.460106 435.791178 
L 103.047752 454.995791 
L 104.635398 471.715696 
L 106.223045 486.36258 
L 108.037498 500.983409 
L 109.851951 513.717995 
L 111.666404 524.877927 
L 113.480857 534.712934 
L 115.29531 543.425071 
L 117.33657 552.088194 
L 119.37783 559.729246 
L 121.41909 566.503128 
L 123.460349 572.536439 
L 125.501609 577.933468 
L 127.769675 583.288667 
L 130.037742 588.06314 
L 132.305808 592.338016 
L 134.800681 596.543477 
L 137.295554 600.300286 
L 139.790427 603.670129 
L 142.512107 606.965195 
L 145.233786 609.916428 
L 148.182273 612.779069 
L 151.130759 615.341291 
L 154.306052 617.811109 
L 157.708151 620.170707 
L 161.337058 622.407737 
L 165.19277 624.514577 
L 169.27529 626.487572 
L 173.584616 628.32628 
L 178.347555 630.112618 
L 183.564108 631.820737 
L 189.234274 633.432581 
L 195.358053 634.936893 
L 202.162252 636.372389 
L 209.646871 637.718387 
L 218.038717 638.994269 
L 227.337789 640.179138 
L 237.997701 641.305284 
L 250.018452 642.345334 
L 263.853657 643.313335 
L 279.956928 644.209997 
L 298.781879 645.029568 
L 321.235736 645.778264 
L 348.452533 646.455878 
L 382.019915 647.061329 
L 424.659562 647.597897 
L 480.227188 648.063159 
L 555.526992 648.458108 
L 663.033337 648.783815 
L 827.921762 649.041253 
L 995.758673 649.175563 
L 995.758673 649.175563 
" clip-path="url(#pbfd22eba9c)" style="fill: none; stroke: #17becf; stroke-width: 5; stroke-linecap: round"/>
   </g>
   <g id="patch_3">
    <path d="M 88.532127 678.237256 
L 88.532127 38.88 
" style="fill: none; stroke: #262626; stroke-width: 0.8; stroke-linejoin: miter; stroke-linecap: square"/>
   </g>
   <g id="patch_4">
    <path d="M 88.532127 678.237256 
L 1041.12 678.237256 
" style="fill: none; stroke: #262626; stroke-width: 0.8; stroke-linejoin: miter; stroke-linecap: square"/>
   </g>
  </g>
 </g>
 <defs>
  <clipPath id="pbfd22eba9c">
   <rect x="88.532127" y="38.88" width="952.587873" height="639.357256"/>
  </clipPath>
 </defs>
</svg>
