<?xml version="1.0" encoding="UTF-8" standalone="no"?>
<svg
   width="1011.9509pt"
   height="589.88843pt"
   viewBox="0 0 1011.9509 589.88843"
   version="1.1"
   id="svg90"
   sodipodi:docname="pareto_front.svg"
   inkscape:version="1.3.2 (091e20e, 2023-11-25)"
   xmlns:inkscape="http://www.inkscape.org/namespaces/inkscape"
   xmlns:sodipodi="http://sodipodi.sourceforge.net/DTD/sodipodi-0.dtd"
   xmlns:xlink="http://www.w3.org/1999/xlink"
   xmlns="http://www.w3.org/2000/svg"
   xmlns:svg="http://www.w3.org/2000/svg"
   xmlns:rdf="http://www.w3.org/1999/02/22-rdf-syntax-ns#"
   xmlns:cc="http://creativecommons.org/ns#"
   xmlns:dc="http://purl.org/dc/elements/1.1/">
  <sodipodi:namedview
     id="namedview90"
     pagecolor="#ffffff"
     bordercolor="#000000"
     borderopacity="0.25"
     inkscape:showpageshadow="2"
     inkscape:pageopacity="0.0"
     inkscape:pagecheckerboard="0"
     inkscape:deskcolor="#d1d1d1"
     inkscape:document-units="pt"
     inkscape:zoom="0.43085246"
     inkscape:cx="521.06005"
     inkscape:cy="157.82665"
     inkscape:window-width="1440"
     inkscape:window-height="790"
     inkscape:window-x="0"
     inkscape:window-y="25"
     inkscape:window-maximized="0"
     inkscape:current-layer="svg90" />
  <metadata
     id="metadata1">
    <rdf:RDF>
      <cc:Work>
        <dc:type
           rdf:resource="http://purl.org/dc/dcmitype/StillImage" />
        <dc:date>2024-08-20T11:01:30.223711</dc:date>
        <dc:format>image/svg+xml</dc:format>
        <dc:creator>
          <cc:Agent>
            <dc:title>Matplotlib v3.9.0, https://matplotlib.org/</dc:title>
          </cc:Agent>
        </dc:creator>
      </cc:Work>
    </rdf:RDF>
  </metadata>
  <defs
     id="defs1">
    <marker
       style="overflow:visible"
       id="marker15"
       refX="-25"
       refY="3"
       orient="-71.20368195"
       inkscape:stockid="Wide arrow"
       markerWidth="1"
       markerHeight="1"
       viewBox="0 0 1 1"
       inkscape:isstock="true"
       inkscape:collect="always"
       preserveAspectRatio="xMidYMid">
      <path
         style="fill:none;stroke:context-stroke;stroke-width:1;stroke-linecap:butt"
         d="M 3,-3 0,0 3,3"
         transform="rotate(180,0.125,0)"
         sodipodi:nodetypes="ccc"
         id="path15" />
    </marker>
    <marker
       style="overflow:visible"
       id="marker14"
       refX="14"
       refY="1.7"
       orient="-74.56821442"
       inkscape:stockid="Wide arrow"
       markerWidth="1"
       markerHeight="1"
       viewBox="0 0 1 1"
       inkscape:isstock="true"
       inkscape:collect="always"
       preserveAspectRatio="xMidYMid">
      <path
         style="fill:none;stroke:context-stroke;stroke-width:1;stroke-linecap:butt"
         d="M 3,-3 0,0 3,3"
         transform="rotate(180,0.125,0)"
         sodipodi:nodetypes="ccc"
         id="path14" />
    </marker>
    <marker
       style="overflow:visible"
       id="marker13"
       refX="-55.832119"
       refY="11.270552"
       orient="-45.99830246"
       inkscape:stockid="Wide arrow"
       markerWidth="1"
       markerHeight="1"
       viewBox="0 0 1 1"
       inkscape:isstock="true"
       inkscape:collect="always"
       preserveAspectRatio="xMidYMid">
      <path
         style="fill:none;stroke:context-stroke;stroke-width:1;stroke-linecap:butt"
         d="m -2.75,3 3,-3 -3,-3"
         sodipodi:nodetypes="ccc"
         id="path13" />
    </marker>
    <marker
       style="overflow:visible"
       id="marker12"
       refX="56"
       refY="-6"
       orient="auto-start-reverse"
       inkscape:stockid="Wide arrow"
       markerWidth="1"
       markerHeight="1"
       viewBox="0 0 1 1"
       inkscape:isstock="true"
       inkscape:collect="always"
       preserveAspectRatio="xMidYMid">
      <path
         style="fill:none;stroke:context-stroke;stroke-width:1;stroke-linecap:butt"
         d="M 3,-3 0,0 3,3"
         transform="rotate(180,0.125,0)"
         sodipodi:nodetypes="ccc"
         id="path12" />
    </marker>
    <marker
       style="overflow:visible"
       id="marker11"
       refX="41"
       refY="-5"
       orient="auto-start-reverse"
       inkscape:stockid="Wide arrow"
       markerWidth="1"
       markerHeight="1"
       viewBox="0 0 1 1"
       inkscape:isstock="true"
       inkscape:collect="always"
       preserveAspectRatio="xMidYMid">
      <path
         style="fill:none;stroke:context-stroke;stroke-width:1;stroke-linecap:butt"
         d="M 3,-3 0,0 3,3"
         transform="rotate(180,0.125,0)"
         sodipodi:nodetypes="ccc"
         id="path11" />
    </marker>
    <marker
       style="overflow:visible"
       id="marker10"
       refX="49"
       refY="-6.8"
       orient="-1,00"
       inkscape:stockid="Wide arrow"
       markerWidth="1"
       markerHeight="1"
       viewBox="0 0 1 1"
       inkscape:isstock="true"
       inkscape:collect="always"
       preserveAspectRatio="xMidYMid">
      <path
         style="fill:none;stroke:context-stroke;stroke-width:1;stroke-linecap:butt"
         d="M 3,-3 0,0 3,3"
         transform="rotate(180,0.125,0)"
         sodipodi:nodetypes="ccc"
         id="path10" />
    </marker>
    <marker
       style="overflow:visible"
       id="marker9"
       refX="55.588039"
       refY="-22.227564"
       orient="156.90293884"
       inkscape:stockid="Wide arrow"
       markerWidth="1"
       markerHeight="1"
       viewBox="0 0 1 1"
       inkscape:isstock="true"
       inkscape:collect="always"
       preserveAspectRatio="xMidYMid">
      <path
         style="fill:none;stroke:context-stroke;stroke-width:1;stroke-linecap:butt"
         d="m 0.3964259,3 -3,-3 3,-3"
         sodipodi:nodetypes="ccc"
         id="path9" />
    </marker>
    <marker
       style="overflow:visible"
       id="marker5"
       refX="-34.364433"
       refY="14.404444"
       orient="-18.14608765"
       inkscape:stockid="Wide arrow"
       markerWidth="1"
       markerHeight="1"
       viewBox="0 0 1 1"
       inkscape:isstock="true"
       inkscape:collect="always"
       preserveAspectRatio="xMidYMid">
      <path
         style="fill:none;stroke:context-stroke;stroke-width:1;stroke-linecap:butt"
         d="m -2.75,3 3,-3 -3,-3"
         sodipodi:nodetypes="ccc"
         id="path5" />
    </marker>
    <marker
       style="overflow:visible"
       id="marker4"
       refX="-38"
       refY="21.9"
       orient="-2.92125845"
       inkscape:stockid="Wide arrow"
       markerWidth="1"
       markerHeight="1"
       viewBox="0 0 1 1"
       inkscape:isstock="true"
       inkscape:collect="always"
       preserveAspectRatio="xMidYMid">
      <path
         style="fill:none;stroke:context-stroke;stroke-width:1;stroke-linecap:butt"
         d="M 3,-3 0,0 3,3"
         transform="rotate(180,0.125,0)"
         sodipodi:nodetypes="ccc"
         id="path4" />
    </marker>
    <marker
       style="overflow:visible"
       id="ArrowWide"
       refX="49"
       refY="-5"
       orient="auto-start-reverse"
       inkscape:stockid="Wide arrow"
       markerWidth="1"
       markerHeight="1"
       viewBox="0 0 1 1"
       inkscape:isstock="true"
       inkscape:collect="always"
       preserveAspectRatio="xMidYMid">
      <path
         style="fill:none;stroke:context-stroke;stroke-width:1;stroke-linecap:butt"
         d="M 3,-3 0,0 3,3"
         transform="rotate(180,0.125,0)"
         sodipodi:nodetypes="ccc"
         id="path1" />
    </marker>
    <style
       type="text/css"
       id="style1">*{stroke-linejoin: round; stroke-linecap: butt}</style>
    <marker
       style="overflow:visible"
       id="DartArrow"
       refX="0"
       refY="0"
       orient="auto-start-reverse"
       inkscape:stockid="Dart arrow"
       markerWidth="1"
       markerHeight="1"
       viewBox="0 0 1 1"
       inkscape:isstock="true"
       inkscape:collect="always"
       preserveAspectRatio="xMidYMid">
      <path
         style="fill:context-stroke;fill-rule:evenodd;stroke:none"
         d="M 0,0 5,-5 -12.5,0 5,5 Z"
         transform="scale(-0.5)"
         id="path6" />
    </marker>
  </defs>
  <g
     id="figure_1"
     transform="translate(7.60677,-27.801507)">
    <g
       id="axes_1">
      <g
         id="patch_2">
        <path
           d="M 135,512.64 H 972 V 69.12 H 135 Z"
           style="fill:#ffffff;marker-end:url(#marker5)"
           id="path2" />
      </g>
      <g
         id="matplotlib.axis_1">
        <g
           id="xtick_1"
           transform="translate(19.5)">
          <g
             id="line2d_1">
            <defs
               id="defs2">
              <path
                 id="m98313ab2ca"
                 d="M 0,0 V 3.5"
                 style="stroke:#262626;stroke-width:0.8" />
            </defs>
            <g
               id="g2">
              <use
                 xlink:href="#m98313ab2ca"
                 x="139.16418"
                 y="512.64001"
                 style="fill:#262626;stroke:#262626;stroke-width:0.8"
                 id="use2" />
            </g>
          </g>
          <g
             id="text_1">
            <!-- $\mathdefault{100}$ -->
            <g
               style="fill:#262626"
               transform="matrix(0.5,0,0,-0.5,104.89632,554.23251)"
               id="g5">
              <defs
                 id="defs3">
                <path
                   id="CMR17-31"
                   d="m 1702,4058 c 0,134 -6,134 -96,134 -249,-276 -627,-365 -985,-365 -19,0 -51,0 -58,-19 -6,-13 -6,-26 -6,-160 198,0 531,38 787,191 V 461 C 1344,236 1331,160 781,160 H 589 V 0 c 307,0 627,0 934,0 307,0 627,0 935,0 v 160 h -192 c -551,0 -564,70 -564,298 z"
                   transform="scale(0.015625)" />
                <path
                   id="CMR17-30"
                   d="m 2688,2025 c 0,391 -6,1055 -275,1566 -237,448 -615,607 -947,607 -308,0 -698,-140 -941,-601 C 269,3118 243,2524 243,2025 c 0,-364 7,-919 205,-1406 275,-658 768,-747 1018,-747 294,0 742,121 1004,728 192,442 218,959 218,1425 z M 1466,-26 c -410,0 -653,351 -743,838 -70,376 -70,926 -70,1284 0,492 0,901 83,1291 122,542 480,709 730,709 262,0 601,-173 723,-696 83,-364 89,-793 89,-1304 0,-416 0,-927 -76,-1304 C 2067,95 1690,-26 1466,-26 Z"
                   transform="scale(0.015625)" />
              </defs>
              <use
                 xlink:href="#CMR17-31"
                 transform="scale(0.996264)"
                 id="use3" />
              <use
                 xlink:href="#CMR17-30"
                 transform="matrix(0.996264,0,0,0.996264,45.690477,0)"
                 id="use4" />
              <use
                 xlink:href="#CMR17-30"
                 transform="matrix(0.996264,0,0,0.996264,91.380954,0)"
                 id="use5" />
            </g>
          </g>
        </g>
        <g
           id="xtick_2">
          <g
             id="line2d_2">
            <g
               id="g6">
              <use
                 xlink:href="#m98313ab2ca"
                 x="347.37314"
                 y="512.64001"
                 style="fill:#262626;stroke:#262626;stroke-width:0.8"
                 id="use6" />
            </g>
          </g>
          <g
             id="text_2">
            <!-- $\mathdefault{150}$ -->
            <g
               style="fill:#262626"
               transform="matrix(0.5,0,0,-0.5,313.10528,554.23251)"
               id="g9">
              <defs
                 id="defs6">
                <path
                   id="CMR17-35"
                   d="m 730,3692 c 64,-26 326,-108 595,-108 595,0 921,327 1107,516 0,57 0,92 -38,92 -7,0 -20,0 -71,-29 -224,-105 -486,-190 -806,-190 -192,0 -480,26 -794,166 -70,32 -83,32 -89,32 -32,0 -39,-7 -39,-134 V 2203 c 0,-114 0,-146 64,-146 32,0 45,13 77,57 205,287 486,408 806,408 224,0 704,-140 704,-1233 0,-204 0,-574 -192,-868 C 1894,159 1645,25 1370,25 947,25 518,320 403,814 c 26,-7 77,-19 103,-19 83,0 243,45 243,243 0,172 -122,242 -243,242 -148,0 -244,-90 -244,-269 0,-557 442,-1139 1120,-1139 660,0 1287,568 1287,1392 0,766 -499,1360 -1120,1360 -327,0 -602,-121 -819,-350 z"
                   transform="scale(0.015625)" />
              </defs>
              <use
                 xlink:href="#CMR17-31"
                 transform="scale(0.996264)"
                 id="use7" />
              <use
                 xlink:href="#CMR17-35"
                 transform="matrix(0.996264,0,0,0.996264,45.690477,0)"
                 id="use8" />
              <use
                 xlink:href="#CMR17-30"
                 transform="matrix(0.996264,0,0,0.996264,91.380954,0)"
                 id="use9" />
            </g>
          </g>
        </g>
        <g
           id="xtick_3">
          <g
             id="line2d_3">
            <g
               id="g10">
              <use
                 xlink:href="#m98313ab2ca"
                 x="555.58209"
                 y="512.64001"
                 style="fill:#262626;stroke:#262626;stroke-width:0.8"
                 id="use10" />
            </g>
          </g>
          <g
             id="text_3">
            <!-- $\mathdefault{200}$ -->
            <g
               style="fill:#262626"
               transform="matrix(0.5,0,0,-0.5,521.31423,554.23251)"
               id="g13">
              <defs
                 id="defs10">
                <path
                   id="CMR17-32"
                   d="M 2669,989 H 2554 C 2490,536 2438,459 2413,420 2381,369 1920,369 1830,369 H 602 c 230,250 678,703 1222,1228 390,370 845,805 845,1438 0,755 -602,1189 -1274,1189 -704,0 -1133,-620 -1133,-1194 0,-250 186,-282 263,-282 64,0 256,39 256,262 0,197 -167,254 -256,254 -39,0 -77,-6 -103,-19 122,545 493,813 884,813 556,0 921,-441 921,-1023 0,-556 -326,-1035 -691,-1451 L 262,146 V 0 h 2253 z"
                   transform="scale(0.015625)" />
              </defs>
              <use
                 xlink:href="#CMR17-32"
                 transform="scale(0.996264)"
                 id="use11" />
              <use
                 xlink:href="#CMR17-30"
                 transform="matrix(0.996264,0,0,0.996264,45.690477,0)"
                 id="use12" />
              <use
                 xlink:href="#CMR17-30"
                 transform="matrix(0.996264,0,0,0.996264,91.380954,0)"
                 id="use13" />
            </g>
          </g>
        </g>
        <g
           id="xtick_4">
          <g
             id="line2d_4">
            <g
               id="g14">
              <use
                 xlink:href="#m98313ab2ca"
                 x="763.79102"
                 y="512.64001"
                 style="fill:#262626;stroke:#262626;stroke-width:0.8"
                 id="use14" />
            </g>
          </g>
          <g
             id="text_4">
            <!-- $\mathdefault{250}$ -->
            <g
               style="fill:#262626"
               transform="matrix(0.5,0,0,-0.5,729.52319,554.23251)"
               id="g17">
              <use
                 xlink:href="#CMR17-32"
                 transform="scale(0.996264)"
                 id="use15" />
              <use
                 xlink:href="#CMR17-35"
                 transform="matrix(0.996264,0,0,0.996264,45.690477,0)"
                 id="use16" />
              <use
                 xlink:href="#CMR17-30"
                 transform="matrix(0.996264,0,0,0.996264,91.380954,0)"
                 id="use17" />
            </g>
          </g>
        </g>
        <g
           id="xtick_5">
          <g
             id="line2d_5">
            <g
               id="g18">
              <use
                 xlink:href="#m98313ab2ca"
                 x="972"
                 y="512.64001"
                 style="fill:#262626;stroke:#262626;stroke-width:0.8"
                 id="use18" />
            </g>
          </g>
          <g
             id="text_5">
            <!-- $\mathdefault{300}$ -->
            <g
               style="fill:#262626"
               transform="matrix(0.5,0,0,-0.5,937.73214,554.23251)"
               id="g21">
              <defs
                 id="defs18">
                <path
                   id="CMR17-33"
                   d="m 1414,2157 c 570,0 820,-495 820,-1067 C 2234,320 1824,25 1453,25 1114,25 563,194 390,693 c 32,-13 64,-13 96,-13 154,0 269,102 269,268 0,185 -141,268 -269,268 -108,0 -275,-51 -275,-290 0,-591 576,-1054 1255,-1054 710,0 1254,558 1254,1213 0,622 -512,1072 -1120,1142 486,101 954,529 954,1102 0,491 -506,850 -1082,850 -582,0 -1094,-350 -1094,-850 0,-219 166,-257 249,-257 135,0 250,83 250,249 0,165 -115,248 -250,248 -25,0 -57,0 -83,-12 186,402 691,475 915,475 224,0 647,-107 647,-712 0,-177 -26,-492 -244,-770 -192,-246 -409,-246 -620,-266 -32,0 -180,-15 -205,-15 -45,-6 -71,-12 -71,-61 0,-45 7,-51 135,-51 z"
                   transform="scale(0.015625)" />
              </defs>
              <use
                 xlink:href="#CMR17-33"
                 transform="scale(0.996264)"
                 id="use19" />
              <use
                 xlink:href="#CMR17-30"
                 transform="matrix(0.996264,0,0,0.996264,45.690477,0)"
                 id="use20" />
              <use
                 xlink:href="#CMR17-30"
                 transform="matrix(0.996264,0,0,0.996264,91.380954,0)"
                 id="use21" />
            </g>
          </g>
        </g>
        <g
           id="text_6">
          <!-- $T(\theta=100)$ -->
          <g
             style="fill:#262626"
             transform="matrix(0.5,0,0,-0.5,440.10283,605.23665)"
             id="g29">
            <defs
               id="defs21">
              <path
                 id="CMMI12-54"
                 d="m 2669,3910 c 38,154 51,211 147,237 51,13 262,13 397,13 640,0 941,-26 941,-526 0,-97 -26,-339 -64,-577 l -7,-77 c 0,-26 26,-64 64,-64 64,0 64,32 83,134 l 186,1134 c 13,59 13,72 13,91 0,70 -39,70 -167,70 H 762 c -148,0 -154,-6 -192,-121 L 179,3070 c -6,-14 -25,-84 -25,-90 0,-32 25,-64 64,-64 51,0 64,25 89,108 269,777 403,1136 1255,1136 h 428 c 154,0 218,0 218,-71 0,-20 0,-32 -32,-148 L 1318,499 C 1254,249 1242,185 563,185 403,185 358,185 358,64 358,0 429,0 461,0 621,0 787,0 947,0 h 999 c 160,0 332,0 492,0 71,0 135,0 135,121 0,64 -45,64 -211,64 -576,0 -576,58 -576,154 0,7 0,52 25,155 z"
                 transform="scale(0.015625)" />
              <path
                 id="CMR17-28"
                 d="m 1958,-1561 c 0,6 0,19 -19,38 -294,299 -1081,1116 -1081,3104 0,1988 774,2798 1088,3116 0,7 12,20 12,39 0,19 -19,32 -44,32 -71,0 -615,-472 -928,-1174 C 666,2887 576,2199 576,1588 c 0,-460 45,-1237 429,-2059 307,-664 832,-1129 909,-1129 32,0 44,13 44,39 z"
                 transform="scale(0.015625)" />
              <path
                 id="CMMI12-12"
                 d="m 2835,3200 c 0,650 -205,1280 -729,1280 C 1210,4480 256,2615 256,1216 256,923 320,-64 992,-64 c 870,0 1843,1820 1843,3264 z M 896,2304 c 96,375 230,910 486,1361 212,382 436,687 717,687 211,0 352,-178 352,-788 0,-230 -19,-547 -205,-1260 z M 2202,2113 C 2042,1490 1907,1088 1677,687 1491,363 1267,64 998,64 800,64 640,217 640,846 c 0,414 102,847 205,1267 z"
                 transform="scale(0.015625)" />
              <path
                 id="CMR17-3d"
                 d="m 4115,2017 c 96,0 192,0 192,108 0,115 -109,115 -217,115 H 512 c -109,0 -218,0 -218,-115 0,-108 96,-108 192,-108 z M 4090,896 c 108,0 217,0 217,115 0,108 -96,108 -192,108 H 486 c -96,0 -192,0 -192,-108 0,-115 109,-115 218,-115 z"
                 transform="scale(0.015625)" />
              <path
                 id="CMR17-29"
                 d="m 1683,1581 c 0,459 -45,1236 -429,2058 -307,664 -832,1129 -908,1129 -20,0 -45,-7 -45,-39 0,-12 6,-19 13,-32 307,-319 1088,-1129 1088,-3113 0,-1991 -775,-2801 -1088,-3121 -7,-12 -13,-19 -13,-31 0,-32 25,-32 45,-32 70,0 614,472 928,1174 320,707 409,1395 409,2007 z"
                 transform="scale(0.015625)" />
            </defs>
            <use
               xlink:href="#CMMI12-54"
               transform="scale(0.996264)"
               id="use22" />
            <use
               xlink:href="#CMR17-28"
               transform="matrix(0.996264,0,0,0.996264,70.723632,0)"
               id="use23" />
            <use
               xlink:href="#CMMI12-12"
               transform="matrix(0.996264,0,0,0.996264,106.0044,0)"
               id="use24" />
            <use
               xlink:href="#CMR17-3d"
               transform="matrix(0.996264,0,0,0.996264,181.84792,0)"
               id="use25" />
            <use
               xlink:href="#CMR17-31"
               transform="matrix(0.996264,0,0,0.996264,281.23671,0)"
               id="use26" />
            <use
               xlink:href="#CMR17-30"
               transform="matrix(0.996264,0,0,0.996264,326.92719,0)"
               id="use27" />
            <use
               xlink:href="#CMR17-30"
               transform="matrix(0.996264,0,0,0.996264,372.61767,0)"
               id="use28" />
            <use
               xlink:href="#CMR17-29"
               transform="matrix(0.996264,0,0,0.996264,418.30815,0)"
               id="use29" />
          </g>
        </g>
      </g>
      <g
         id="matplotlib.axis_2">
        <g
           id="ytick_1">
          <g
             id="line2d_6">
            <defs
               id="defs29">
              <path
                 id="m247083d5bb"
                 d="M 0,0 H -3.5"
                 style="stroke:#262626;stroke-width:0.8" />
            </defs>
            <g
               id="g30">
              <use
                 xlink:href="#m247083d5bb"
                 x="135"
                 y="512.64001"
                 style="fill:#262626;stroke:#262626;stroke-width:0.8"
                 id="use30" />
            </g>
          </g>
          <g
             id="text_7">
            <!-- $\mathdefault{0.00}$ -->
            <g
               style="fill:#262626"
               transform="matrix(0.5,0,0,-0.5,45.915696,529.93625)"
               id="g34">
              <defs
                 id="defs30">
                <path
                   id="CMMI12-3a"
                   d="M 1178,307 C 1178,492 1024,619 870,619 685,619 557,466 557,313 557,128 710,0 864,0 c 186,0 314,153 314,307 z"
                   transform="scale(0.015625)" />
              </defs>
              <use
                 xlink:href="#CMR17-30"
                 transform="scale(0.996264)"
                 id="use31" />
              <use
                 xlink:href="#CMMI12-3a"
                 transform="matrix(0.996264,0,0,0.996264,45.690477,0)"
                 id="use32" />
              <use
                 xlink:href="#CMR17-30"
                 transform="matrix(0.996264,0,0,0.996264,72.787654,0)"
                 id="use33" />
              <use
                 xlink:href="#CMR17-30"
                 transform="matrix(0.996264,0,0,0.996264,118.47813,0)"
                 id="use34" />
            </g>
          </g>
        </g>
        <g
           id="ytick_2">
          <g
             id="line2d_7">
            <g
               id="g35">
              <use
                 xlink:href="#m247083d5bb"
                 x="135"
                 y="401.76001"
                 style="fill:#262626;stroke:#262626;stroke-width:0.8"
                 id="use35" />
            </g>
          </g>
          <g
             id="text_8">
            <!-- $\mathdefault{0.25}$ -->
            <g
               style="fill:#262626"
               transform="matrix(0.5,0,0,-0.5,45.915696,419.05625)"
               id="g39">
              <use
                 xlink:href="#CMR17-30"
                 transform="scale(0.996264)"
                 id="use36" />
              <use
                 xlink:href="#CMMI12-3a"
                 transform="matrix(0.996264,0,0,0.996264,45.690477,0)"
                 id="use37" />
              <use
                 xlink:href="#CMR17-32"
                 transform="matrix(0.996264,0,0,0.996264,72.787654,0)"
                 id="use38" />
              <use
                 xlink:href="#CMR17-35"
                 transform="matrix(0.996264,0,0,0.996264,118.47813,0)"
                 id="use39" />
            </g>
          </g>
        </g>
        <g
           id="ytick_3">
          <g
             id="line2d_8">
            <g
               id="g40">
              <use
                 xlink:href="#m247083d5bb"
                 x="135"
                 y="290.88"
                 style="fill:#262626;stroke:#262626;stroke-width:0.8"
                 id="use40" />
            </g>
          </g>
          <g
             id="text_9">
            <!-- $\mathdefault{0.50}$ -->
            <g
               style="fill:#262626"
               transform="matrix(0.5,0,0,-0.5,45.915696,308.17625)"
               id="g44">
              <use
                 xlink:href="#CMR17-30"
                 transform="scale(0.996264)"
                 id="use41" />
              <use
                 xlink:href="#CMMI12-3a"
                 transform="matrix(0.996264,0,0,0.996264,45.690477,0)"
                 id="use42" />
              <use
                 xlink:href="#CMR17-35"
                 transform="matrix(0.996264,0,0,0.996264,72.787654,0)"
                 id="use43" />
              <use
                 xlink:href="#CMR17-30"
                 transform="matrix(0.996264,0,0,0.996264,118.47813,0)"
                 id="use44" />
            </g>
          </g>
        </g>
        <g
           id="ytick_4">
          <g
             id="line2d_9">
            <g
               id="g45">
              <use
                 xlink:href="#m247083d5bb"
                 x="135"
                 y="180"
                 style="fill:#262626;stroke:#262626;stroke-width:0.8"
                 id="use45" />
            </g>
          </g>
          <g
             id="text_10">
            <!-- $\mathdefault{0.75}$ -->
            <g
               style="fill:#262626"
               transform="matrix(0.5,0,0,-0.5,45.915696,197.29625)"
               id="g49">
              <defs
                 id="defs45">
                <path
                   id="CMR17-37"
                   d="m 2886,3941 v 140 H 1382 c -748,0 -761,84 -787,207 H 480 L 294,3094 h 116 c 19,121 64,446 140,567 39,51 512,51 621,51 H 2579 L 1869,2661 C 1395,1954 1069,999 1069,165 c 0,-76 0,-293 230,-293 231,0 231,217 231,299 v 294 c 0,1043 179,1731 473,2171 z"
                   transform="scale(0.015625)" />
              </defs>
              <use
                 xlink:href="#CMR17-30"
                 transform="scale(0.996264)"
                 id="use46" />
              <use
                 xlink:href="#CMMI12-3a"
                 transform="matrix(0.996264,0,0,0.996264,45.690477,0)"
                 id="use47" />
              <use
                 xlink:href="#CMR17-37"
                 transform="matrix(0.996264,0,0,0.996264,72.787654,0)"
                 id="use48" />
              <use
                 xlink:href="#CMR17-35"
                 transform="matrix(0.996264,0,0,0.996264,118.47813,0)"
                 id="use49" />
            </g>
          </g>
        </g>
        <g
           id="ytick_5">
          <g
             id="line2d_10">
            <g
               id="g50">
              <use
                 xlink:href="#m247083d5bb"
                 x="135"
                 y="69.120003"
                 style="fill:#262626;stroke:#262626;stroke-width:0.8"
                 id="use50" />
            </g>
          </g>
          <g
             id="text_11">
            <!-- $\mathdefault{1.00}$ -->
            <g
               style="fill:#262626"
               transform="matrix(0.5,0,0,-0.5,45.915696,86.416254)"
               id="g54">
              <use
                 xlink:href="#CMR17-31"
                 transform="scale(0.996264)"
                 id="use51" />
              <use
                 xlink:href="#CMMI12-3a"
                 transform="matrix(0.996264,0,0,0.996264,45.690477,0)"
                 id="use52" />
              <use
                 xlink:href="#CMR17-30"
                 transform="matrix(0.996264,0,0,0.996264,72.787654,0)"
                 id="use53" />
              <use
                 xlink:href="#CMR17-30"
                 transform="matrix(0.996264,0,0,0.996264,118.47813,0)"
                 id="use54" />
            </g>
          </g>
        </g>
        <g
           id="text_12">
          <!-- $\eta(\theta=100)$ -->
          <g
             style="fill:#262626"
             transform="matrix(0,-0.5,-0.5,0,29.504064,399.52221)"
             id="g62">
            <defs
               id="defs54">
              <path
                 id="CMMI12-11"
                 d="m 3040,1768 c 32,127 51,205 51,377 0,383 -224,670 -710,670 -570,0 -871,-402 -986,-561 -19,364 -281,561 -563,561 -186,0 -333,-89 -454,-332 -116,-229 -205,-619 -205,-644 0,-26 25,-58 70,-58 51,0 58,7 96,153 96,377 218,754 474,754 147,0 198,-102 198,-294 0,-140 -64,-389 -109,-587 L 723,1118 C 698,996 627,709 595,593 550,428 480,127 480,96 480,6 550,-64 646,-64 c 77,0 167,39 218,134 13,32 70,256 102,383 l 141,575 211,843 c 13,38 173,357 410,561 166,154 384,256 634,256 256,0 345,-192 345,-447 0,-186 -25,-288 -57,-410 l -743,-2938 c -6,-32 -19,-70 -19,-109 0,-96 77,-160 173,-160 57,0 192,26 243,218 z"
                 transform="scale(0.015625)" />
            </defs>
            <use
               xlink:href="#CMMI12-11"
               transform="scale(0.996264)"
               id="use55" />
            <use
               xlink:href="#CMR17-28"
               transform="matrix(0.996264,0,0,0.996264,51.703816,0)"
               id="use56" />
            <use
               xlink:href="#CMMI12-12"
               transform="matrix(0.996264,0,0,0.996264,86.984584,0)"
               id="use57" />
            <use
               xlink:href="#CMR17-3d"
               transform="matrix(0.996264,0,0,0.996264,162.8281,0)"
               id="use58" />
            <use
               xlink:href="#CMR17-31"
               transform="matrix(0.996264,0,0,0.996264,262.2169,0)"
               id="use59" />
            <use
               xlink:href="#CMR17-30"
               transform="matrix(0.996264,0,0,0.996264,307.90737,0)"
               id="use60" />
            <use
               xlink:href="#CMR17-30"
               transform="matrix(0.996264,0,0,0.996264,353.59785,0)"
               id="use61" />
            <use
               xlink:href="#CMR17-29"
               transform="matrix(0.996264,0,0,0.996264,399.28833,0)"
               id="use62" />
          </g>
        </g>
      </g>
      <g
         id="PolyCollection_1">
        <defs
           id="defs62">
          <path
             id="m83bdbbf3d9"
             d="m 139.16418,-240.768 h 416.41791 v -2.688 -2.688 -2.688 -2.688 -2.688 -2.688 -2.688 -2.688 -2.688 -2.688 -2.688 -2.688 -2.688 -2.688 -2.688 -2.688 -2.688 -2.688 -2.688 -2.688 -2.688 -2.688 -2.688 -2.688 -2.688 -2.688 -2.688 -2.688 -2.688 -2.688 -2.688 -2.688 -2.688 -2.688 -2.688 -2.688 -2.688 -2.688 -2.688 -2.688 -2.688 -2.688 -2.688 -2.688 -2.688 -2.688 -2.688 -2.688 -2.688 -2.688 -2.688 -2.688 -2.688 -2.688 -2.688 -2.688 -2.688 -2.688 -2.688 -2.688 -2.688 -2.688 -2.688 -2.688 -2.688 -2.688 -2.688 -2.688 -2.688 -2.688 -2.688 -2.688 -2.688 -2.688 -2.688 -2.688 -2.688 -2.688 -2.688 -2.688 -2.688 -2.688 -2.688 -2.688 -2.688 -2.688 -2.688 -2.688 -2.688 -2.688 -2.688 -2.688 -2.688 -2.688 -2.688 -2.688 -2.688 -2.688 -2.688 H 139.16418 v 0 2.688 2.688 2.688 2.688 2.688 2.688 2.688 2.688 2.688 2.688 2.688 2.688 2.688 2.688 2.688 2.688 2.688 2.688 2.688 2.688 2.688 2.688 2.688 2.688 2.688 2.688 2.688 2.688 2.688 2.688 2.688 2.688 2.688 2.688 2.688 2.688 2.688 2.688 2.688 2.688 2.688 2.688 2.688 2.688 2.688 2.688 2.688 2.688 2.688 2.688 2.688 2.688 2.688 2.688 2.688 2.688 2.688 2.688 2.688 2.688 2.688 2.688 2.688 2.688 2.688 2.688 2.688 2.688 2.688 2.688 2.688 2.688 2.688 2.688 2.688 2.688 2.688 2.688 2.688 2.688 2.688 2.688 2.688 2.688 2.688 2.688 2.688 2.688 2.688 2.688 2.688 2.688 2.688 2.688 2.688 2.688 2.688 2.688 z"
             style="stroke:#008000;stroke-opacity:0.1" />
        </defs>
        <g
           clip-path="url(#p583923bb12)"
           id="g63">
          <use
             xlink:href="#m83bdbbf3d9"
             x="0"
             y="576"
             style="fill:#008000;fill-opacity:0.1;stroke:#008000;stroke-opacity:0.1"
             id="use63" />
        </g>
      </g>
      <g
         id="line2d_11">
        <path
           d="m 139.16418,512.64 -1.34007,-0.0927 0.0131,-0.1 2.42755,-17.73731 2.33458,-15.45175 2.30974,-13.82285 2.34952,-12.72633 2.45231,-12.06544 2.62075,-11.77906 2.85106,-11.78732 3.12847,-11.98427 3.42844,-12.24952 3.71357,-12.44168 3.95821,-12.48405 4.15887,-12.38251 4.33639,-12.21399 4.52302,-12.07554 4.76675,-12.09056 5.13845,-12.42149 5.81331,-13.45798 7.56164,-16.90539 15.9723,-35.57487 7.44383,-17.26871 12.08628,-28.73283 6.76753,-16.45219 3.25973,-8.5088 2.51069,-7.1676 2.15222,-6.81638 2.05113,-7.25444 3.05345,-10.90885 1.14854,-3.13443 1.076,-2.31628 1.0231,-1.6973 0.96591,-1.19087 0.90812,-0.78182 0.85737,-0.45548 0.41861,-0.12684 v 0"
           clip-path="url(#p583923bb12)"
           style="fill:none;stroke:#1f77b4;stroke-width:5;stroke-linecap:round;marker-end:url(#marker14);marker-start:url(#marker15)"
           id="path63" />
      </g>
      <g
         id="line2d_12">
        <path
           d="m 139.16418,512.64 1.75303,-0.22064 1.89176,-8.72438 2.00304,-8.19747 2.11943,-7.74496 2.24845,-7.3802 2.39163,-7.09121 2.55389,-6.87818 2.73673,-6.732 2.94909,-6.66289 3.19656,-6.67102 3.49689,-6.7803 3.86061,-6.99635 4.31902,-7.36093 4.89996,-7.9041 5.66054,-8.69996 6.68631,-9.85811 8.08963,-11.51861 9.91828,-13.72311 11.77223,-15.90169 12.58836,-16.63257 12.18655,-15.73896 11.44933,-14.4287 10.79315,-13.2484 10.17461,-12.14193 9.46812,-10.95861 8.65282,-9.68169 7.84817,-8.45442 7.16894,-7.40187 6.65164,-6.55302 6.27878,-5.87736 6.02544,-5.33858 5.86539,-4.90205 5.78701,-4.54839 5.7725,-4.25524 5.81648,-4.01195 5.91421,-3.80919 6.06099,-3.6388 6.25654,-3.49621 6.50602,-3.38002 6.81567,-3.2889 7.17637,-3.21449 7.60568,-3.16126 8.10056,-3.12391 8.65658,-3.09768 9.27424,-3.08025 9.94636,-3.0668 10.64042,-3.0459 11.3381,-3.01228 11.99911,-2.95612 12.61688,-2.87777 13.17552,-2.77578 13.70649,-2.65916 14.24232,-2.53542 14.84815,-2.41597 15.5725,-2.30681 16.51307,-2.21904 17.78058,-2.16186 19.57185,-2.15138 22.24996,-2.21632 26.68281,-2.42589 31.15534,-2.62987 v 0"
           clip-path="url(#p583923bb12)"
           style="fill:none;stroke:#2ca02c;stroke-width:5;stroke-linecap:round;marker-end:url(#marker10);marker-start:url(#marker13)"
           id="path64" />
      </g>
      <g
         id="line2d_13">
        <path
           d="m 139.16418,512.64 1.41691,-0.21929 2.77125,-6.75128 2.90749,-6.50032 3.04872,-6.27403 3.20754,-6.09364 3.37874,-5.94236 3.56919,-5.82786 3.78617,-5.75584 4.03058,-5.72152 4.30971,-5.73011 4.63786,-5.79449 5.02959,-5.92531 5.50653,-6.13965 6.09007,-6.45268 6.83652,-6.91418 7.8228,-7.58867 9.17317,-8.58038 11.06233,-10.03296 13.52931,-11.96069 15.45474,-13.36469 14.84059,-12.54775 12.92146,-10.64208 11.35171,-9.06715 10.27125,-7.92398 9.53953,-7.0821 9.04421,-6.44026 8.72634,-5.94289 8.52043,-5.53522 8.42029,-5.20614 8.39771,-4.93145 8.44736,-4.70291 8.54742,-4.5042 8.70862,-4.33771 8.92602,-4.19704 9.18459,-4.07226 9.49629,-3.96635 9.85501,-3.87404 10.25317,-3.79048 10.70396,-3.71873 11.19983,-3.65408 11.73101,-3.5921 12.32407,-3.53957 12.95738,-3.48835 13.63187,-3.43799 14.36346,-3.39146 15.14031,-3.34471 15.9801,-3.30067 16.86988,-3.25552 17.82935,-3.21221 18.84428,-3.1672 19.93663,-3.12345 21.13359,-3.08377 22.40094,-3.04187 23.78858,-3.00371 25.28406,-2.96633 26.94828,-2.93538 28.74637,-2.90529 30.74719,-2.88172 12.07297,-1.07428 v 0"
           clip-path="url(#p583923bb12)"
           style="fill:none;stroke:#8c564b;stroke-width:5;stroke-linecap:round;marker-end:url(#marker11);marker-start:url(#marker9)"
           id="path65" />
      </g>
      <g
         id="line2d_14">
        <path
           d="m 139.16418,512.64 -2.5066,-0.0833 0.0579,-0.10004 3.60892,-6.01233 3.76458,-5.84024 3.92856,-5.68507 4.11002,-5.55729 4.30972,-5.45374 4.53744,-5.38239 4.77567,-5.31925 5.0525,-5.29365 5.35967,-5.29213 5.71704,-5.33048 6.11626,-5.39655 6.58762,-5.51317 7.12324,-5.66873 7.76486,-5.89173 8.49607,-6.16391 9.34141,-6.49893 10.27719,-6.8756 11.23034,-7.24259 12.04426,-7.5009 12.55524,-7.55673 12.69287,-7.38089 12.54839,-7.04104 12.25721,-6.62437 11.96353,-6.21435 11.70797,-5.8323 11.53689,-5.49952 11.44109,-5.20797 11.41103,-4.95043 11.46378,-4.73117 11.59203,-4.54328 11.77306,-4.37492 12.01047,-4.22552 12.32465,-4.0996 12.6908,-3.98608 13.11303,-3.88466 13.61409,-3.7998 14.16543,-3.72128 14.77049,-3.64904 15.47394,-3.5922 16.22372,-3.5365 17.06603,-3.49102 18.01088,-3.45533 19.02064,-3.42051 20.12415,-3.3909 21.32969,-3.36636 22.61811,-3.34266 24.05321,-3.32786 25.58905,-3.31361 27.23122,-3.29991 29.02019,-3.29051 30.93271,-3.2813 32.97562,-3.27215 35.15591,-3.26283 37.48084,-3.2531 22.47851,-1.85096 v 0"
           clip-path="url(#p583923bb12)"
           style="display:inline;fill:none;stroke:#7f7f7f;stroke-width:5;stroke-linecap:round;marker-end:url(#marker12);marker-start:url(#marker5)"
           id="path66" />
      </g>
      <g
         id="line2d_15"
         inkscape:label="line2d_15">
        <path
           d="m 139.16418,512.64 2.95683,-0.26495 3.93456,-5.60467 4.09462,-5.44605 4.26608,-5.30471 4.4602,-5.19094 4.65721,-5.0789 4.87889,-4.99131 5.11585,-4.9153 5.38028,-4.86033 5.67402,-4.82464 5.98758,-4.79784 6.33426,-4.78913 6.71678,-4.79783 7.13833,-4.82361 7.59031,-4.85866 8.0891,-4.91167 8.61447,-4.96825 9.15781,-5.02305 9.72348,-5.07801 10.28876,-5.12069 10.82781,-5.13917 11.33975,-5.13465 11.79188,-5.09437 12.20756,-5.03114 12.5966,-4.9502 12.95239,-4.85025 13.28391,-4.73642 13.63837,-4.62607 13.99607,-4.51188 14.39292,-4.40521 14.81016,-4.29933 15.26829,-4.19973 15.76973,-4.10605 16.31724,-4.01797 16.93884,-3.94092 17.61671,-3.86888 18.35526,-3.80176 19.1309,-3.734 20.00355,-3.6765 20.95331,-3.62359 21.98699,-3.57522 23.11214,-3.53128 24.33713,-3.49168 25.67116,-3.45637 27.0847,-3.42039 28.62275,-3.38878 30.34069,-3.36613 32.16831,-3.34286 34.1112,-3.31917 36.27643,-3.30427 38.58409,-3.28897 32.85771,-2.63789 v 0"
           clip-path="url(#p583923bb12)"
           style="fill:none;stroke:#17becf;stroke-width:5;stroke-linecap:round;stroke-dasharray:none;stroke-dashoffset:0;marker-end:url(#ArrowWide);marker-start:url(#marker4)"
           id="path67"
           inkscape:label="path67" />
      </g>
      <g
         id="line2d_16">
        <path
           d="M 555.58209,512.64 V 69.12"
           clip-path="url(#p583923bb12)"
           style="fill:none;stroke:#008000;stroke-width:3;stroke-dasharray:19.2, 4.8, 3, 4.8;stroke-dashoffset:0"
           id="path68" />
      </g>
      <g
         id="line2d_17">
        <path
           d="M 135,335.232 H 972"
           clip-path="url(#p583923bb12)"
           style="fill:none;stroke:#008000;stroke-width:3;stroke-dasharray:19.2, 4.8, 3, 4.8;stroke-dashoffset:0"
           id="path69" />
      </g>
      <g
         id="patch_3">
        <path
           d="M 135,512.64 V 69.12"
           style="fill:none;stroke:#262626;stroke-width:0.8;stroke-linecap:square;stroke-linejoin:miter"
           id="path70" />
      </g>
      <g
         id="patch_5">
        <path
           d="M 135,512.64 H 972"
           style="fill:none;stroke:#262626;stroke-width:0.8;stroke-linecap:square;stroke-linejoin:miter"
           id="path72" />
      </g>
      <g
         id="text_13"
         transform="translate(-34.5,-6)">
        <!-- $\eta_{\mathrm{min}}$ -->
        <g
           transform="matrix(0.5,0,0,-0.5,933.24777,326.3616)"
           id="g76">
          <defs
             id="defs73">
            <path
               id="CMR17-6d"
               d="m 4326,1933 c 0,319 -57,857 -819,857 -435,0 -736,-294 -851,-639 h -6 c -77,525 -455,639 -813,639 -506,0 -768,-390 -864,-646 h -7 v 646 l -755,-70 v -166 c 378,0 435,-39 435,-346 V 428 C 646,184 621,153 211,153 V -13 C 365,0 646,0 813,0 c 166,0 454,0 608,-13 v 166 c -410,0 -435,25 -435,275 v 1230 c 0,589 358,1030 806,1030 474,0 525,-422 525,-730 V 428 c 0,-244 -26,-275 -435,-275 V -13 c 153,13 435,13 601,13 167,0 455,0 608,-13 v 166 c -409,0 -435,25 -435,275 v 1230 c 0,589 358,1030 806,1030 474,0 525,-422 525,-730 V 428 c 0,-244 -25,-275 -435,-275 V -13 c 154,13 435,13 602,13 166,0 454,0 608,-13 v 166 c -410,0 -436,25 -436,275 z"
               transform="scale(0.015625)" />
            <path
               id="CMR17-69"
               d="m 992,3909 c 0,140 -115,261 -262,261 -141,0 -263,-114 -263,-261 0,-140 115,-261 263,-261 140,0 262,115 262,261 z M 243,2706 v -165 c 359,0 410,-39 410,-344 V 427 C 653,184 627,153 218,153 V -13 C 371,0 646,0 806,0 c 154,0 416,0 564,-13 v 166 c -378,0 -391,38 -391,267 v 2356 z"
               transform="scale(0.015625)" />
            <path
               id="CMR17-6e"
               d="m 2656,1933 c 0,326 -64,857 -819,857 -506,0 -768,-390 -864,-646 h -7 v 646 l -755,-70 v -166 c 378,0 435,-39 435,-346 V 428 C 646,184 621,153 211,153 V -13 C 365,0 646,0 813,0 c 166,0 454,0 608,-13 v 166 c -410,0 -435,25 -435,275 v 1230 c 0,589 358,1030 806,1030 474,0 525,-422 525,-730 V 428 c 0,-244 -26,-275 -435,-275 V -13 c 153,13 435,13 601,13 167,0 455,0 608,-13 v 166 c -409,0 -435,25 -435,275 z"
               transform="scale(0.015625)" />
          </defs>
          <use
             xlink:href="#CMMI12-11"
             transform="scale(0.996264)"
             id="use73" />
          <use
             xlink:href="#CMR17-6d"
             transform="matrix(0.697382,0,0,0.697382,48.129223,-14.943915)"
             id="use74" />
          <use
             xlink:href="#CMR17-69"
             transform="matrix(0.697382,0,0,0.697382,101.97269,-14.943915)"
             id="use75" />
          <use
             xlink:href="#CMR17-6e"
             transform="matrix(0.697382,0,0,0.697382,119.38235,-14.943915)"
             id="use76" />
        </g>
      </g>
      <g
         id="text_14"
         transform="translate(-42,-7.5)">
        <!-- $T_{\mathrm{max}}$ -->
        <g
           transform="matrix(0.5,0,0,-0.5,553.02224,69.12)"
           id="g80">
          <defs
             id="defs76">
            <path
               id="CMR17-61"
               d="m 2304,1653 c 0,419 0,641 -269,890 -237,209 -512,273 -729,273 -506,0 -871,-409 -871,-845 0,-243 192,-243 231,-243 83,0 230,50 230,226 0,158 -122,227 -230,227 -26,0 -58,-7 -77,-13 134,424 480,546 704,546 320,0 672,-285 672,-829 V 1600 C 1587,1600 1133,1549 774,1357 371,1133 256,813 256,570 256,77 832,-64 1171,-64 c 352,0 679,203 819,575 13,-278 192,-529 474,-529 134,0 474,88 474,585 V 920 H 2822 V 562 c 0,-384 -172,-434 -256,-434 -262,0 -262,330 -262,610 z M 1965,870 C 1965,317 1568,38 1216,38 896,38 646,275 646,570 c 0,191 84,530 455,735 307,173 659,199 864,199 z"
               transform="scale(0.015625)" />
            <path
               id="CMR17-78"
               d="m 1664,1477 c 192,249 410,529 589,739 211,242 454,344 736,344 v 166 c -109,0 -333,0 -448,0 -173,0 -371,0 -519,6 v -166 c 90,-13 141,-77 141,-166 0,-115 -64,-185 -96,-229 l -473,-598 -564,733 c -57,70 -57,82 -57,114 0,77 64,140 173,140 v 172 c -154,-6 -429,-6 -589,-6 -173,0 -378,0 -519,6 v -172 c 346,0 423,-26 576,-217 l 736,-948 c 13,-13 45,-51 45,-70 C 1395,1299 838,619 768,530 480,185 179,160 6,160 V 0 c 109,0 333,0 448,0 128,0 410,0 525,-6 v 166 c -38,6 -141,19 -141,165 0,115 52,185 109,261 l 531,650 557,-724 c 51,-70 128,-166 128,-211 0,-90 -77,-141 -179,-141 V -6 c 154,6 429,6 589,6 173,0 377,0 518,-6 v 166 c -320,0 -416,12 -569,210 z"
               transform="scale(0.015625)" />
          </defs>
          <use
             xlink:href="#CMMI12-54"
             transform="scale(0.996264)"
             id="use77" />
          <use
             xlink:href="#CMR17-6d"
             transform="matrix(0.697382,0,0,0.697382,57.175044,-14.943915)"
             id="use78" />
          <use
             xlink:href="#CMR17-61"
             transform="matrix(0.697382,0,0,0.697382,111.01851,-14.943915)"
             id="use79" />
          <use
             xlink:href="#CMR17-78"
             transform="matrix(0.697382,0,0,0.697382,143.00169,-14.943915)"
             id="use80" />
        </g>
      </g>
      <g
         id="PathCollection_1">
        <defs
           id="defs80">
          <path
             id="mbf03bf83e4"
             d="M -4.330127,8.660254 0,4.330127 4.330127,8.660254 8.660254,4.330127 4.330127,0 8.660254,-4.330127 4.330127,-8.660254 0,-4.330127 -4.330127,-8.660254 -8.660254,-4.330127 -4.330127,0 -8.660254,4.330127 Z"
             style="stroke:#1f77b4" />
        </defs>
        <g
           clip-path="url(#p583923bb12)"
           id="g81">
          <use
             xlink:href="#mbf03bf83e4"
             x="267.4046"
             y="127.98261"
             style="fill:#1f77b4;stroke:#1f77b4"
             id="use81" />
        </g>
      </g>
      <g
         id="PathCollection_2">
        <g
           clip-path="url(#p583923bb12)"
           id="g82">
          <use
             xlink:href="#mbf03bf83e4"
             x="180.91182"
             y="335.22794"
             style="fill:#1f77b4;stroke:#1f77b4"
             id="use82" />
        </g>
      </g>
      <g
         id="PathCollection_3">
        <defs
           id="defs82">
          <path
             id="m78a4dfc3e2"
             d="M -4.330127,8.660254 0,4.330127 4.330127,8.660254 8.660254,4.330127 4.330127,0 8.660254,-4.330127 4.330127,-8.660254 0,-4.330127 -4.330127,-8.660254 -8.660254,-4.330127 -4.330127,0 -8.660254,4.330127 Z"
             style="stroke:#2ca02c" />
        </defs>
        <g
           clip-path="url(#p583923bb12)"
           id="g83">
          <use
             xlink:href="#m78a4dfc3e2"
             x="555.58191"
             y="152.35204"
             style="fill:#2ca02c;stroke:#2ca02c"
             id="use83" />
        </g>
      </g>
      <g
         id="PathCollection_4">
        <g
           clip-path="url(#p583923bb12)"
           id="g84">
          <use
             xlink:href="#m78a4dfc3e2"
             x="238.70499"
             y="335.22906"
             style="fill:#2ca02c;stroke:#2ca02c"
             id="use84" />
        </g>
      </g>
      <g
         id="PathCollection_5">
        <defs
           id="defs84">
          <path
             id="m04d2874c8b"
             d="M -4.330127,8.660254 0,4.330127 4.330127,8.660254 8.660254,4.330127 4.330127,0 8.660254,-4.330127 4.330127,-8.660254 0,-4.330127 -4.330127,-8.660254 -8.660254,-4.330127 -4.330127,0 -8.660254,4.330127 Z"
             style="stroke:#8c564b" />
        </defs>
        <g
           clip-path="url(#p583923bb12)"
           id="g85">
          <use
             xlink:href="#m04d2874c8b"
             x="555.56647"
             y="233.78189"
             style="fill:#8c564b;stroke:#8c564b"
             id="use85" />
        </g>
      </g>
      <g
         id="PathCollection_6">
        <g
           clip-path="url(#p583923bb12)"
           id="g86">
          <use
             xlink:href="#m04d2874c8b"
             x="305.67007"
             y="335.22879"
             style="fill:#8c564b;stroke:#8c564b"
             id="use86" />
        </g>
      </g>
      <g
         id="PathCollection_7">
        <defs
           id="defs86">
          <path
             id="m110dc5ed6a"
             d="M -4.330127,8.660254 0,4.330127 4.330127,8.660254 8.660254,4.330127 4.330127,0 8.660254,-4.330127 4.330127,-8.660254 0,-4.330127 -4.330127,-8.660254 -8.660254,-4.330127 -4.330127,0 -8.660254,4.330127 Z"
             style="stroke:#7f7f7f" />
        </defs>
        <g
           clip-path="url(#p583923bb12)"
           id="g87">
          <use
             xlink:href="#m110dc5ed6a"
             x="555.56329"
             y="290.59085"
             style="fill:#7f7f7f;stroke:#7f7f7f"
             id="use87" />
        </g>
      </g>
      <g
         id="PathCollection_8">
        <g
           clip-path="url(#p583923bb12)"
           id="g88">
          <use
             xlink:href="#m110dc5ed6a"
             x="391.31177"
             y="335.2309"
             style="fill:#7f7f7f;stroke:#7f7f7f"
             id="use88" />
        </g>
      </g>
      <g
         id="PathCollection_9">
        <defs
           id="defs88">
          <path
             id="mb652015e77"
             d="M -4.330127,8.660254 0,4.330127 4.330127,8.660254 8.660254,4.330127 4.330127,0 8.660254,-4.330127 4.330127,-8.660254 0,-4.330127 -4.330127,-8.660254 -8.660254,-4.330127 -4.330127,0 -8.660254,4.330127 Z"
             style="stroke:#17becf" />
        </defs>
        <g
           clip-path="url(#p583923bb12)"
           id="g89">
          <use
             xlink:href="#mb652015e77"
             x="555.5564"
             y="331.09146"
             style="fill:#17becf;stroke:#17becf"
             id="use89" />
        </g>
      </g>
      <g
         id="PathCollection_10">
        <g
           clip-path="url(#p583923bb12)"
           id="g90">
          <use
             xlink:href="#mb652015e77"
             x="532.44861"
             y="335.23123"
             style="fill:#17becf;stroke:#17becf"
             id="use90" />
        </g>
      </g>
    </g>
  </g>
  <defs
     id="defs90">
    <clipPath
       id="p583923bb12">
      <rect
         x="135"
         y="69.120003"
         width="837"
         height="443.51999"
         id="rect90" />
    </clipPath>
  </defs>
  <path
     style="fill:#74cbf1;stroke:#000000;stroke-width:4;stroke-linecap:butt;stroke-linejoin:round;marker-end:url(#DartArrow)"
     d="M 149.2678,344.18775 H 528.80088"
     id="path83" />
  <g
     inkscape:label=""
     transform="matrix(4.1736705,0,0,4.1736705,184.26868,12.75892)"
     id="g466"
     style="stroke-width:0.679173;stroke-linecap:butt;stroke-linejoin:round">
    <g
       id="g8982"
       style="stroke-width:0.679173;stroke-linecap:butt;stroke-linejoin:round">
      <g
         style="fill:#000000;fill-opacity:1;stroke-width:0.679173;stroke-linecap:butt;stroke-linejoin:round"
         id="g9371">
        <g
           id="use1864"
           transform="translate(91.925003,81.962997)"
           style="stroke-width:0.679173;stroke-linecap:butt;stroke-linejoin:round">
          <path
             style="stroke:none;stroke-width:0.679173;stroke-linecap:butt;stroke-linejoin:round"
             d="M 2.25,-6.03125 C 2.25,-6.390625 2.265625,-6.5 3.0625,-6.5 h 0.25 v -0.3125 c -0.34375,0.03125 -1.125,0.03125 -1.515625,0.03125 -0.375,0 -1.171875,0 -1.515625,-0.03125 V -6.5 h 0.25 c 0.796875,0 0.828125,0.109375 0.828125,0.46875 v 5.25 c 0,0.359375 -0.03125,0.46875 -0.828125,0.46875 h -0.25 V 0 c 0.34375,-0.03125 1.140625,-0.03125 1.515625,-0.03125 0.390625,0 1.171875,0 1.515625,0.03125 v -0.3125 h -0.25 C 2.265625,-0.3125 2.25,-0.421875 2.25,-0.78125 Z m 0,0"
             id="path90" />
        </g>
        <g
           id="use5701"
           transform="translate(95.522491,81.962997)"
           style="stroke-width:0.679173;stroke-linecap:butt;stroke-linejoin:round">
          <path
             style="stroke:none;stroke-width:0.679173;stroke-linecap:butt;stroke-linejoin:round"
             d="M 1.09375,-3.421875 V -0.75 c 0,0.4375 -0.109375,0.4375 -0.78125,0.4375 V 0 c 0.359375,-0.015625 0.859375,-0.03125 1.140625,-0.03125 0.25,0 0.765625,0.015625 1.109375,0.03125 v -0.3125 c -0.671875,0 -0.78125,0 -0.78125,-0.4375 V -2.59375 C 1.78125,-3.625 2.5,-4.1875 3.125,-4.1875 c 0.640625,0 0.75,0.53125 0.75,1.109375 V -0.75 c 0,0.4375 -0.109375,0.4375 -0.78125,0.4375 V 0 c 0.34375,-0.015625 0.859375,-0.03125 1.125,-0.03125 0.25,0 0.78125,0.015625 1.109375,0.03125 v -0.3125 c -0.515625,0 -0.765625,0 -0.765625,-0.296875 v -1.90625 c 0,-0.859375 0,-1.15625 -0.3125,-1.515625 -0.140625,-0.171875 -0.46875,-0.375 -1.046875,-0.375 C 2.46875,-4.40625 2,-3.984375 1.71875,-3.359375 V -4.40625 L 0.3125,-4.296875 v 0.3125 c 0.703125,0 0.78125,0.0625 0.78125,0.5625 z m 0,0"
             id="path88" />
        </g>
        <g
           id="use8995"
           transform="translate(101.05772,81.962997)"
           style="stroke-width:0.679173;stroke-linecap:butt;stroke-linejoin:round">
          <path
             style="stroke:none;stroke-width:0.679173;stroke-linecap:butt;stroke-linejoin:round"
             d="m 1.171875,-2.171875 c 0,-1.625 0.8125,-2.046875 1.34375,-2.046875 0.09375,0 0.71875,0.015625 1.0625,0.375 -0.40625,0.03125 -0.46875,0.328125 -0.46875,0.453125 0,0.265625 0.1875,0.453125 0.453125,0.453125 0.265625,0 0.46875,-0.15625 0.46875,-0.46875 0,-0.671875 -0.765625,-1.0625 -1.53125,-1.0625 -1.25,0 -2.15625,1.078125 -2.15625,2.3125 0,1.28125 0.984375,2.265625 2.140625,2.265625 1.328125,0 1.65625,-1.203125 1.65625,-1.296875 0,-0.09375 -0.109375,-0.09375 -0.140625,-0.09375 -0.078125,0 -0.109375,0.03125 -0.125,0.09375 -0.28125,0.921875 -0.9375,1.046875 -1.296875,1.046875 -0.53125,0 -1.40625,-0.421875 -1.40625,-2.03125 z m 0,0"
             id="path87" />
        </g>
        <g
           id="use8293"
           transform="translate(105.48509,81.962997)"
           style="stroke-width:0.679173;stroke-linecap:butt;stroke-linejoin:round">
          <path
             style="stroke:none;stroke-width:0.679173;stroke-linecap:butt;stroke-linejoin:round"
             d="M 1.671875,-3.3125 V -4.40625 L 0.28125,-4.296875 v 0.3125 c 0.703125,0 0.78125,0.0625 0.78125,0.5625 V -0.75 c 0,0.4375 -0.109375,0.4375 -0.78125,0.4375 V 0 c 0.390625,-0.015625 0.859375,-0.03125 1.140625,-0.03125 0.390625,0 0.859375,0 1.265625,0.03125 V -0.3125 H 2.46875 c -0.734375,0 -0.75,-0.109375 -0.75,-0.46875 V -2.3125 c 0,-0.984375 0.421875,-1.875 1.171875,-1.875 0.0625,0 0.09375,0 0.109375,0.015625 -0.03125,0 -0.234375,0.125 -0.234375,0.390625 0,0.265625 0.21875,0.421875 0.4375,0.421875 0.171875,0 0.421875,-0.125 0.421875,-0.4375 0,-0.3125 -0.3125,-0.609375 -0.734375,-0.609375 -0.734375,0 -1.09375,0.671875 -1.21875,1.09375 z m 0,0"
             id="path86" />
        </g>
        <g
           id="use9585"
           transform="translate(109.38744,81.962997)"
           style="stroke-width:0.679173;stroke-linecap:butt;stroke-linejoin:round">
          <path
             style="stroke:none;stroke-width:0.679173;stroke-linecap:butt;stroke-linejoin:round"
             d="M 1.109375,-2.515625 C 1.171875,-4 2.015625,-4.25 2.359375,-4.25 c 1.015625,0 1.125,1.34375 1.125,1.734375 z m 0,0.21875 h 2.78125 c 0.21875,0 0.25,0 0.25,-0.21875 0,-0.984375 -0.546875,-1.953125 -1.78125,-1.953125 -1.15625,0 -2.078125,1.03125 -2.078125,2.28125 0,1.328125 1.046875,2.296875 2.1875,2.296875 C 3.6875,0.109375 4.140625,-1 4.140625,-1.1875 4.140625,-1.28125 4.0625,-1.3125 4,-1.3125 c -0.078125,0 -0.109375,0.0625 -0.125,0.140625 -0.34375,1.03125 -1.25,1.03125 -1.34375,1.03125 -0.5,0 -0.890625,-0.296875 -1.125,-0.671875 -0.296875,-0.46875 -0.296875,-1.125 -0.296875,-1.484375 z m 0,0"
             id="path91" />
        </g>
        <g
           id="use3126"
           transform="translate(113.81483,81.962997)"
           style="stroke-width:0.679173;stroke-linecap:butt;stroke-linejoin:round">
          <path
             style="stroke:none;stroke-width:0.679173;stroke-linecap:butt;stroke-linejoin:round"
             d="m 3.3125,-0.75 c 0.046875,0.390625 0.3125,0.8125 0.78125,0.8125 0.21875,0 0.828125,-0.140625 0.828125,-0.953125 v -0.5625 h -0.25 v 0.5625 c 0,0.578125 -0.25,0.640625 -0.359375,0.640625 -0.328125,0 -0.375,-0.453125 -0.375,-0.5 v -1.984375 c 0,-0.421875 0,-0.8125 -0.359375,-1.1875 C 3.1875,-4.3125 2.6875,-4.46875 2.21875,-4.46875 c -0.828125,0 -1.515625,0.46875 -1.515625,1.125 0,0.296875 0.203125,0.46875 0.46875,0.46875 0.28125,0 0.453125,-0.203125 0.453125,-0.453125 0,-0.125 -0.046875,-0.453125 -0.515625,-0.453125 C 1.390625,-4.140625 1.875,-4.25 2.1875,-4.25 c 0.5,0 1.0625,0.390625 1.0625,1.28125 v 0.359375 c -0.515625,0.03125 -1.203125,0.0625 -1.828125,0.359375 -0.75,0.34375 -1,0.859375 -1,1.296875 0,0.8125 0.96875,1.0625 1.59375,1.0625 0.65625,0 1.109375,-0.40625 1.296875,-0.859375 z M 3.25,-2.390625 v 1 c 0,0.9375 -0.71875,1.28125 -1.171875,1.28125 -0.484375,0 -0.890625,-0.34375 -0.890625,-0.84375 0,-0.546875 0.421875,-1.375 2.0625,-1.4375 z m 0,0"
             id="path94" />
        </g>
        <g
           id="use2934"
           transform="translate(118.79613,81.962997)"
           style="stroke-width:0.679173;stroke-linecap:butt;stroke-linejoin:round">
          <path
             style="stroke:none;stroke-width:0.679173;stroke-linecap:butt;stroke-linejoin:round"
             d="m 2.078125,-1.9375 c 0.21875,0.046875 1.03125,0.203125 1.03125,0.921875 0,0.5 -0.34375,0.90625 -1.125,0.90625 -0.84375,0 -1.203125,-0.5625 -1.390625,-1.421875 C 0.5625,-1.65625 0.5625,-1.6875 0.453125,-1.6875 c -0.125,0 -0.125,0.0625 -0.125,0.234375 V -0.125 c 0,0.171875 0,0.234375 0.109375,0.234375 0.046875,0 0.0625,-0.015625 0.25,-0.203125 0.015625,-0.015625 0.015625,-0.03125 0.203125,-0.21875 0.4375,0.40625 0.890625,0.421875 1.09375,0.421875 1.140625,0 1.609375,-0.671875 1.609375,-1.390625 0,-0.515625 -0.296875,-0.828125 -0.421875,-0.9375 C 2.84375,-2.546875 2.453125,-2.625 2.03125,-2.703125 1.46875,-2.8125 0.8125,-2.9375 0.8125,-3.515625 c 0,-0.359375 0.25,-0.765625 1.109375,-0.765625 1.09375,0 1.15625,0.90625 1.171875,1.203125 0,0.09375 0.09375,0.09375 0.109375,0.09375 0.140625,0 0.140625,-0.046875 0.140625,-0.234375 v -1.015625 c 0,-0.15625 0,-0.234375 -0.109375,-0.234375 -0.046875,0 -0.078125,0 -0.203125,0.125 -0.03125,0.03125 -0.125,0.125 -0.171875,0.15625 -0.375,-0.28125 -0.78125,-0.28125 -0.9375,-0.28125 -1.21875,0 -1.59375,0.671875 -1.59375,1.234375 0,0.34375 0.15625,0.625 0.421875,0.84375 0.328125,0.25 0.609375,0.3125 1.328125,0.453125 z m 0,0"
             id="path85" />
        </g>
        <g
           id="use5216"
           transform="translate(122.72537,81.962997)"
           style="stroke-width:0.679173;stroke-linecap:butt;stroke-linejoin:round">
          <path
             style="stroke:none;stroke-width:0.679173;stroke-linecap:butt;stroke-linejoin:round"
             d="M 1.765625,-4.40625 0.375,-4.296875 v 0.3125 c 0.640625,0 0.734375,0.0625 0.734375,0.546875 V -0.75 c 0,0.4375 -0.109375,0.4375 -0.78125,0.4375 V 0 C 0.640625,-0.015625 1.1875,-0.03125 1.421875,-0.03125 1.78125,-0.03125 2.125,-0.015625 2.46875,0 v -0.3125 c -0.671875,0 -0.703125,-0.046875 -0.703125,-0.4375 z m 0.03125,-1.734375 c 0,-0.3125 -0.234375,-0.53125 -0.515625,-0.53125 -0.3125,0 -0.53125,0.265625 -0.53125,0.53125 0,0.265625 0.21875,0.53125 0.53125,0.53125 0.28125,0 0.515625,-0.21875 0.515625,-0.53125 z m 0,0"
             id="path84" />
        </g>
        <g
           id="use5878"
           transform="translate(125.49298,81.962997)"
           style="stroke-width:0.679173;stroke-linecap:butt;stroke-linejoin:round">
          <path
             style="stroke:none;stroke-width:0.679173;stroke-linecap:butt;stroke-linejoin:round"
             d="M 1.09375,-3.421875 V -0.75 c 0,0.4375 -0.109375,0.4375 -0.78125,0.4375 V 0 c 0.359375,-0.015625 0.859375,-0.03125 1.140625,-0.03125 0.25,0 0.765625,0.015625 1.109375,0.03125 v -0.3125 c -0.671875,0 -0.78125,0 -0.78125,-0.4375 V -2.59375 C 1.78125,-3.625 2.5,-4.1875 3.125,-4.1875 c 0.640625,0 0.75,0.53125 0.75,1.109375 V -0.75 c 0,0.4375 -0.109375,0.4375 -0.78125,0.4375 V 0 c 0.34375,-0.015625 0.859375,-0.03125 1.125,-0.03125 0.25,0 0.78125,0.015625 1.109375,0.03125 v -0.3125 c -0.515625,0 -0.765625,0 -0.765625,-0.296875 v -1.90625 c 0,-0.859375 0,-1.15625 -0.3125,-1.515625 -0.140625,-0.171875 -0.46875,-0.375 -1.046875,-0.375 C 2.46875,-4.40625 2,-3.984375 1.71875,-3.359375 V -4.40625 L 0.3125,-4.296875 v 0.3125 c 0.703125,0 0.78125,0.0625 0.78125,0.5625 z m 0,0"
             id="path89" />
        </g>
        <g
           id="use6433"
           transform="translate(131.0282,81.962997)"
           style="stroke-width:0.679173;stroke-linecap:butt;stroke-linejoin:round">
          <path
             style="stroke:none;stroke-width:0.679173;stroke-linecap:butt;stroke-linejoin:round"
             d="m 2.21875,-1.71875 c -0.875,0 -0.875,-1 -0.875,-1.21875 0,-0.265625 0.015625,-0.59375 0.15625,-0.84375 0.078125,-0.109375 0.3125,-0.390625 0.71875,-0.390625 0.859375,0 0.859375,0.984375 0.859375,1.21875 0,0.265625 0,0.59375 -0.15625,0.84375 C 2.84375,-2 2.609375,-1.71875 2.21875,-1.71875 Z M 1.0625,-1.328125 c 0,-0.03125 0,-0.265625 0.15625,-0.46875 0.390625,0.28125 0.8125,0.3125 1,0.3125 0.921875,0 1.609375,-0.6875 1.609375,-1.453125 0,-0.375 -0.15625,-0.734375 -0.40625,-0.96875 C 3.78125,-4.25 4.140625,-4.296875 4.3125,-4.296875 c 0.03125,0 0.078125,0 0.109375,0.015625 C 4.3125,-4.25 4.25,-4.140625 4.25,-4.015625 c 0,0.171875 0.140625,0.28125 0.296875,0.28125 0.09375,0 0.28125,-0.0625 0.28125,-0.296875 0,-0.171875 -0.109375,-0.484375 -0.5,-0.484375 -0.203125,0 -0.640625,0.0625 -1.0625,0.46875 C 2.84375,-4.375 2.4375,-4.40625 2.21875,-4.40625 c -0.9375,0 -1.625,0.6875 -1.625,1.453125 0,0.4375 0.21875,0.8125 0.46875,1.03125 -0.125,0.140625 -0.3125,0.46875 -0.3125,0.828125 0,0.3125 0.140625,0.6875 0.453125,0.890625 -0.609375,0.15625 -0.921875,0.59375 -0.921875,0.984375 0,0.71875 0.984375,1.265625 2.203125,1.265625 1.171875,0 2.203125,-0.5 2.203125,-1.28125 0,-0.34375 -0.125,-0.859375 -0.640625,-1.140625 -0.53125,-0.265625 -1.109375,-0.265625 -1.71875,-0.265625 -0.25,0 -0.671875,0 -0.75,-0.015625 C 1.265625,-0.703125 1.0625,-1 1.0625,-1.328125 Z M 2.5,1.828125 c -1.015625,0 -1.703125,-0.515625 -1.703125,-1.046875 0,-0.453125 0.375,-0.828125 0.8125,-0.84375 h 0.59375 c 0.859375,0 1.96875,0 1.96875,0.84375 0,0.546875 -0.703125,1.046875 -1.671875,1.046875 z m 0,0"
             id="path93" />
        </g>
      </g>
      <g
         style="fill:#000000;fill-opacity:1;stroke-width:0.679173;stroke-linecap:butt;stroke-linejoin:round"
         id="g6697">
        <g
           id="use8577"
           transform="translate(139.33099,81.962997)"
           style="stroke-width:0.679173;stroke-linecap:butt;stroke-linejoin:round">
          <path
             style="stroke:none;stroke-width:0.679173;stroke-linecap:butt;stroke-linejoin:round"
             d="m 5.734375,-5.671875 c 0,-0.75 -0.546875,-1.359375 -1.359375,-1.359375 -0.578125,0 -0.859375,0.15625 -1.203125,0.40625 C 2.625,-6.21875 2.078125,-5.25 1.890625,-4.5 L 0.296875,1.828125 C 0.296875,1.875 0.34375,1.9375 0.421875,1.9375 0.5,1.9375 0.53125,1.90625 0.53125,1.890625 L 1.234375,-0.875 c 0.1875,0.609375 0.625,0.96875 1.359375,0.96875 C 3.3125,0.09375 4.0625,-0.25 4.515625,-0.6875 5,-1.140625 5.3125,-1.78125 5.3125,-2.515625 c 0,-0.71875 -0.375,-1.25 -0.734375,-1.484375 0.578125,-0.34375 1.15625,-0.953125 1.15625,-1.671875 z M 3.9375,-4.015625 c -0.125,0.046875 -0.234375,0.0625 -0.484375,0.0625 -0.140625,0 -0.328125,0.015625 -0.4375,-0.03125 0.03125,-0.109375 0.390625,-0.078125 0.5,-0.078125 0.203125,0 0.296875,0 0.421875,0.046875 z M 5.171875,-5.90625 c 0,0.703125 -0.375,1.421875 -0.890625,1.734375 C 4,-4.28125 3.8125,-4.296875 3.515625,-4.296875 c -0.21875,0 -0.78125,-0.015625 -0.78125,0.3125 0,0.28125 0.515625,0.25 0.6875,0.25 0.375,0 0.53125,0 0.828125,-0.125 0.375,0.359375 0.421875,0.671875 0.4375,1.125 0.015625,0.578125 -0.21875,1.328125 -0.5,1.71875 C 3.796875,-0.484375 3.125,-0.125 2.5625,-0.125 c -0.765625,0 -1.140625,-0.578125 -1.140625,-1.28125 0,-0.09375 0,-0.25 0.046875,-0.4375 L 2.109375,-4.359375 C 2.328125,-5.21875 3.046875,-6.8125 4.25,-6.8125 c 0.578125,0 0.921875,0.3125 0.921875,0.90625 z m 0,0"
             id="path92" />
        </g>
      </g>
    </g>
  </g>
</svg>
