<?xml version="1.0" encoding="utf-8" standalone="no"?>
<!DOCTYPE svg PUBLIC "-//W3C//DTD SVG 1.1//EN"
  "http://www.w3.org/Graphics/SVG/1.1/DTD/svg11.dtd">
<svg xmlns:xlink="http://www.w3.org/1999/xlink" width="1080pt" height="576pt" viewBox="0 0 1080 576" xmlns="http://www.w3.org/2000/svg" version="1.1">
 <metadata>
  <rdf:RDF xmlns:dc="http://purl.org/dc/elements/1.1/" xmlns:cc="http://creativecommons.org/ns#" xmlns:rdf="http://www.w3.org/1999/02/22-rdf-syntax-ns#">
   <cc:Work>
    <dc:type rdf:resource="http://purl.org/dc/dcmitype/StillImage"/>
    <dc:date>2024-07-04T17:25:10.425732</dc:date>
    <dc:format>image/svg+xml</dc:format>
    <dc:creator>
     <cc:Agent>
      <dc:title>Matplotlib v3.9.0, https://matplotlib.org/</dc:title>
     </cc:Agent>
    </dc:creator>
   </cc:Work>
  </rdf:RDF>
 </metadata>
 <defs>
  <style type="text/css">*{stroke-linejoin: round; stroke-linecap: butt}</style>
 </defs>
 <g id="figure_1">
  <g id="patch_1">
   <path d="M 0 576 
L 1080 576 
L 1080 0 
L 0 0 
z
" style="fill: #ffffff"/>
  </g>
  <g id="axes_1">
   <g id="patch_2">
    <path d="M 86.865012 507.974739 
L 529.2 507.974739 
L 529.2 21.6 
L 86.865012 21.6 
z
" style="fill: #eaeaf2"/>
   </g>
   <g id="matplotlib.axis_1">
    <g id="xtick_1">
     <g id="text_1">
      <!-- 0.3 -->
      <g style="fill: #262626" transform="translate(106.489231 528.811736) scale(0.2 -0.2)">
       <defs>
        <path id="CMSS17-30" d="M 2758 2044 
C 2758 2405 2752 3077 2490 3596 
C 2227 4096 1805 4229 1504 4229 
C 1069 4229 698 3975 506 3570 
C 301 3146 243 2709 243 2044 
C 243 1589 262 1031 493 543 
C 755 5 1197 -128 1498 -128 
C 1894 -128 2278 81 2496 518 
C 2720 974 2758 1474 2758 2044 
z
M 1498 261 
C 1011 261 864 811 819 995 
C 742 1310 730 1614 730 2114 
C 730 2506 730 2948 851 3297 
C 998 3701 1254 3840 1498 3840 
C 1971 3840 2125 3372 2176 3208 
C 2272 2873 2272 2481 2272 2114 
C 2272 1526 2272 261 1498 261 
z
" transform="scale(0.015625)"/>
        <path id="CMSS17-2e" d="M 1088 510 
L 576 510 
L 576 0 
L 1088 0 
L 1088 510 
z
" transform="scale(0.015625)"/>
        <path id="CMSS17-33" d="M 1005 2025 
L 1440 2025 
C 2042 2025 2214 1507 2214 1146 
C 2214 653 1933 267 1472 267 
C 1114 267 608 444 320 912 
C 275 691 275 678 250 526 
C 550 88 1037 -128 1485 -128 
C 2214 -128 2752 473 2752 1138 
C 2752 1638 2400 2057 1920 2215 
C 2304 2424 2586 2816 2586 3273 
C 2586 3805 2093 4229 1491 4229 
C 941 4229 512 3892 333 3530 
C 378 3468 493 3284 550 3189 
C 691 3562 1056 3840 1485 3840 
C 1843 3840 2080 3607 2080 3271 
C 2080 2923 1856 2543 1478 2455 
C 1453 2455 1056 2417 1005 2411 
L 1005 2025 
z
" transform="scale(0.015625)"/>
       </defs>
       <use xlink:href="#CMSS17-30" transform="scale(0.996264)"/>
       <use xlink:href="#CMSS17-2e" transform="translate(46.843624 0) scale(0.996264)"/>
       <use xlink:href="#CMSS17-33" transform="translate(72.867828 0) scale(0.996264)"/>
      </g>
     </g>
    </g>
    <g id="xtick_2">
     <g id="text_2">
      <!-- 0.4 -->
      <g style="fill: #262626" transform="translate(169.679943 528.811736) scale(0.2 -0.2)">
       <defs>
        <path id="CMSS17-34" d="M 2253 1088 
L 2835 1088 
L 2835 1477 
L 2253 1477 
L 2253 4192 
L 1690 4192 
L 166 1477 
L 166 1088 
L 1747 1088 
L 1747 0 
L 2253 0 
L 2253 1088 
z
M 659 1477 
C 1030 2127 1766 3439 1766 3885 
L 1766 1477 
L 659 1477 
z
" transform="scale(0.015625)"/>
       </defs>
       <use xlink:href="#CMSS17-30" transform="scale(0.996264)"/>
       <use xlink:href="#CMSS17-2e" transform="translate(46.843624 0) scale(0.996264)"/>
       <use xlink:href="#CMSS17-34" transform="translate(72.867828 0) scale(0.996264)"/>
      </g>
     </g>
    </g>
    <g id="xtick_3">
     <g id="text_3">
      <!-- 0.5 -->
      <g style="fill: #262626" transform="translate(232.870656 528.811736) scale(0.2 -0.2)">
       <defs>
        <path id="CMSS17-35" d="M 934 3752 
L 2502 3752 
L 2502 4160 
L 467 4160 
L 467 1781 
L 896 1781 
C 1011 2046 1248 2240 1555 2240 
C 1843 2240 2163 1989 2163 1266 
C 2163 493 1709 267 1376 267 
C 966 267 589 512 422 851 
L 218 499 
C 512 49 992 -128 1376 -128 
C 2118 -128 2701 497 2701 1253 
C 2701 2030 2182 2629 1562 2629 
C 1338 2629 1120 2553 934 2399 
L 934 3752 
z
" transform="scale(0.015625)"/>
       </defs>
       <use xlink:href="#CMSS17-30" transform="scale(0.996264)"/>
       <use xlink:href="#CMSS17-2e" transform="translate(46.843624 0) scale(0.996264)"/>
       <use xlink:href="#CMSS17-35" transform="translate(72.867828 0) scale(0.996264)"/>
      </g>
     </g>
    </g>
    <g id="xtick_4">
     <g id="text_4">
      <!-- 0.6 -->
      <g style="fill: #262626" transform="translate(296.061368 528.811736) scale(0.2 -0.2)">
       <defs>
        <path id="CMSS17-36" d="M 2496 4101 
C 2227 4210 2035 4229 1856 4229 
C 1024 4229 250 3368 250 2006 
C 250 265 986 -128 1510 -128 
C 1798 -128 2086 -39 2362 280 
C 2643 617 2752 898 2752 1389 
C 2752 2179 2362 2880 1779 2880 
C 1357 2880 992 2657 768 2376 
C 832 3258 1254 3840 1862 3840 
C 2029 3840 2246 3816 2496 3710 
L 2496 4101 
z
M 774 1369 
C 774 1420 774 1452 781 1548 
C 781 2045 1069 2491 1536 2491 
C 1837 2491 1990 2332 2106 2135 
C 2240 1886 2246 1650 2246 1388 
C 2246 1140 2246 891 2099 637 
C 1978 439 1818 267 1510 267 
C 902 267 800 1114 774 1369 
z
" transform="scale(0.015625)"/>
       </defs>
       <use xlink:href="#CMSS17-30" transform="scale(0.996264)"/>
       <use xlink:href="#CMSS17-2e" transform="translate(46.843624 0) scale(0.996264)"/>
       <use xlink:href="#CMSS17-36" transform="translate(72.867828 0) scale(0.996264)"/>
      </g>
     </g>
    </g>
    <g id="xtick_5">
     <g id="text_5">
      <!-- 0.7 -->
      <g style="fill: #262626" transform="translate(359.252081 528.811736) scale(0.2 -0.2)">
       <defs>
        <path id="CMSS17-37" d="M 1389 3776 
C 1466 3776 1542 3776 1619 3776 
L 2355 3776 
C 1440 2711 915 1365 915 -32 
L 1427 -32 
C 1427 1323 1875 2696 2752 3795 
L 2752 4209 
L 250 4209 
L 250 3776 
L 1389 3776 
z
" transform="scale(0.015625)"/>
       </defs>
       <use xlink:href="#CMSS17-30" transform="scale(0.996264)"/>
       <use xlink:href="#CMSS17-2e" transform="translate(46.843624 0) scale(0.996264)"/>
       <use xlink:href="#CMSS17-37" transform="translate(72.867828 0) scale(0.996264)"/>
      </g>
     </g>
    </g>
    <g id="xtick_6">
     <g id="text_6">
      <!-- 0.8 -->
      <g style="fill: #262626" transform="translate(422.442794 528.811736) scale(0.2 -0.2)">
       <defs>
        <path id="CMSS17-38" d="M 1933 2222 
C 2419 2380 2669 2760 2669 3134 
C 2669 3722 2157 4229 1504 4229 
C 826 4229 333 3708 333 3144 
C 333 2780 576 2403 1069 2241 
C 442 1997 250 1512 250 1149 
C 250 446 819 -128 1498 -128 
C 2202 -128 2752 455 2752 1138 
C 2752 1557 2502 2000 1933 2222 
z
M 1504 2432 
C 1075 2432 787 2712 787 3136 
C 787 3566 1075 3840 1504 3840 
C 1901 3840 2214 3591 2214 3136 
C 2214 2687 1907 2432 1504 2432 
z
M 1504 267 
C 1139 267 749 517 749 1156 
C 749 1813 1184 2043 1498 2043 
C 1843 2043 2253 1800 2253 1156 
C 2253 491 1830 267 1504 267 
z
" transform="scale(0.015625)"/>
       </defs>
       <use xlink:href="#CMSS17-30" transform="scale(0.996264)"/>
       <use xlink:href="#CMSS17-2e" transform="translate(46.843624 0) scale(0.996264)"/>
       <use xlink:href="#CMSS17-38" transform="translate(72.867828 0) scale(0.996264)"/>
      </g>
     </g>
    </g>
    <g id="xtick_7">
     <g id="text_7">
      <!-- 0.9 -->
      <g style="fill: #262626" transform="translate(485.633506 528.811736) scale(0.2 -0.2)">
       <defs>
        <path id="CMSS17-39" d="M 435 174 
C 614 21 845 -128 1235 -128 
C 2010 -128 2752 721 2752 2095 
C 2752 3932 1952 4229 1523 4229 
C 1094 4229 819 4041 582 3741 
C 301 3397 250 3090 250 2733 
C 250 2307 326 2045 506 1745 
C 749 1357 973 1275 1222 1275 
C 1600 1275 1978 1459 2234 1776 
C 2189 902 1798 267 1235 267 
C 1005 267 819 339 634 516 
L 435 174 
z
M 2214 2746 
C 2221 2703 2221 2622 2221 2596 
C 2221 2074 1914 1664 1466 1664 
C 1171 1664 1018 1813 902 2006 
C 762 2249 755 2485 755 2733 
C 755 2976 755 3244 934 3511 
C 1069 3703 1235 3840 1523 3840 
C 2112 3840 2208 3000 2214 2746 
z
" transform="scale(0.015625)"/>
       </defs>
       <use xlink:href="#CMSS17-30" transform="scale(0.996264)"/>
       <use xlink:href="#CMSS17-2e" transform="translate(46.843624 0) scale(0.996264)"/>
       <use xlink:href="#CMSS17-39" transform="translate(72.867828 0) scale(0.996264)"/>
      </g>
     </g>
    </g>
    <g id="text_8">
     <!-- Alpha -->
     <g style="fill: #262626" transform="translate(285.459478 550.524366) scale(0.2 -0.2)">
      <defs>
       <path id="CMSS17-41" d="M 2272 4416 
L 1722 4416 
L 166 0 
L 653 0 
L 1101 1280 
L 2816 1280 
L 3270 0 
L 3827 0 
L 2272 4416 
z
M 2694 1637 
L 1222 1637 
C 1530 2528 1914 3638 1958 3925 
L 1965 3925 
C 2010 3663 2138 3281 2246 2956 
L 2694 1637 
z
" transform="scale(0.015625)"/>
       <path id="CMSS17-6c" d="M 947 4416 
L 474 4416 
L 474 0 
L 947 0 
L 947 4416 
z
" transform="scale(0.015625)"/>
       <path id="CMSS17-70" d="M 966 333 
C 1178 129 1466 -5 1773 -5 
C 2368 -5 2880 603 2880 1412 
C 2880 2159 2496 2816 1946 2816 
C 1626 2816 1242 2702 954 2472 
L 954 2765 
L 480 2765 
L 480 -1216 
L 966 -1216 
L 966 333 
z
M 966 2100 
C 1018 2176 1235 2415 1587 2415 
C 2035 2415 2394 1960 2394 1412 
C 2394 787 1958 384 1530 384 
C 1402 384 1267 415 1139 523 
C 966 674 966 768 966 857 
L 966 2100 
z
" transform="scale(0.015625)"/>
       <path id="CMSS17-68" d="M 2618 1891 
C 2618 2292 2522 2820 1798 2820 
C 1395 2820 1133 2623 947 2407 
L 947 4448 
L 474 4448 
L 474 32 
L 960 32 
L 960 1573 
C 960 1973 1114 2432 1549 2432 
C 2112 2432 2131 2056 2131 1839 
L 2131 32 
L 2618 32 
L 2618 1891 
z
" transform="scale(0.015625)"/>
       <path id="CMSS17-61" d="M 2406 1791 
C 2406 2392 1978 2808 1402 2808 
C 1120 2808 813 2757 461 2553 
L 499 2135 
C 659 2248 934 2432 1395 2432 
C 1722 2432 1920 2180 1920 1782 
L 1920 1536 
C 896 1536 256 1238 256 726 
C 256 461 416 -64 947 -64 
C 1043 -64 1562 -64 1933 217 
L 1933 -19 
L 2406 -19 
L 2406 1791 
z
M 1920 816 
C 1920 701 1920 548 1728 434 
C 1562 325 1350 325 1261 325 
C 941 325 723 511 723 744 
C 723 1211 1722 1211 1920 1211 
L 1920 816 
z
" transform="scale(0.015625)"/>
      </defs>
      <use xlink:href="#CMSS17-41" transform="scale(0.996264)"/>
      <use xlink:href="#CMSS17-6c" transform="translate(62.217855 0) scale(0.996264)"/>
      <use xlink:href="#CMSS17-70" transform="translate(84.398578 0) scale(0.996264)"/>
      <use xlink:href="#CMSS17-68" transform="translate(132.603521 0) scale(0.996264)"/>
      <use xlink:href="#CMSS17-61" transform="translate(180.808464 0) scale(0.996264)"/>
     </g>
    </g>
   </g>
   <g id="matplotlib.axis_2">
    <g id="ytick_1">
     <g id="line2d_1">
      <path d="M 86.865012 448.395069 
L 529.2 448.395069 
" clip-path="url(#p72817f7de1)" style="fill: none; stroke: #ffffff; stroke-width: 0.8; stroke-linecap: round"/>
     </g>
     <g id="text_9">
      <!-- $\mathdefault{200}$ -->
      <g style="fill: #262626" transform="translate(52.450726 455.313567) scale(0.2 -0.2)">
       <defs>
        <path id="CMR17-32" d="M 2669 989 
L 2554 989 
C 2490 536 2438 459 2413 420 
C 2381 369 1920 369 1830 369 
L 602 369 
C 832 619 1280 1072 1824 1597 
C 2214 1967 2669 2402 2669 3035 
C 2669 3790 2067 4224 1395 4224 
C 691 4224 262 3604 262 3030 
C 262 2780 448 2748 525 2748 
C 589 2748 781 2787 781 3010 
C 781 3207 614 3264 525 3264 
C 486 3264 448 3258 422 3245 
C 544 3790 915 4058 1306 4058 
C 1862 4058 2227 3617 2227 3035 
C 2227 2479 1901 2000 1536 1584 
L 262 146 
L 262 0 
L 2515 0 
L 2669 989 
z
" transform="scale(0.015625)"/>
        <path id="CMR17-30" d="M 2688 2025 
C 2688 2416 2682 3080 2413 3591 
C 2176 4039 1798 4198 1466 4198 
C 1158 4198 768 4058 525 3597 
C 269 3118 243 2524 243 2025 
C 243 1661 250 1106 448 619 
C 723 -39 1216 -128 1466 -128 
C 1760 -128 2208 -7 2470 600 
C 2662 1042 2688 1559 2688 2025 
z
M 1466 -26 
C 1056 -26 813 325 723 812 
C 653 1188 653 1738 653 2096 
C 653 2588 653 2997 736 3387 
C 858 3929 1216 4096 1466 4096 
C 1728 4096 2067 3923 2189 3400 
C 2272 3036 2278 2607 2278 2096 
C 2278 1680 2278 1169 2202 792 
C 2067 95 1690 -26 1466 -26 
z
" transform="scale(0.015625)"/>
       </defs>
       <use xlink:href="#CMR17-32" transform="scale(0.996264)"/>
       <use xlink:href="#CMR17-30" transform="translate(45.690477 0) scale(0.996264)"/>
       <use xlink:href="#CMR17-30" transform="translate(91.380954 0) scale(0.996264)"/>
      </g>
     </g>
    </g>
    <g id="ytick_2">
     <g id="line2d_2">
      <path d="M 86.865012 355.006784 
L 529.2 355.006784 
" clip-path="url(#p72817f7de1)" style="fill: none; stroke: #ffffff; stroke-width: 0.8; stroke-linecap: round"/>
     </g>
     <g id="text_10">
      <!-- $\mathdefault{400}$ -->
      <g style="fill: #262626" transform="translate(52.450726 361.925282) scale(0.2 -0.2)">
       <defs>
        <path id="CMR17-34" d="M 2150 4122 
C 2150 4256 2144 4256 2029 4256 
L 128 1254 
L 128 1088 
L 1779 1088 
L 1779 457 
C 1779 224 1766 160 1318 160 
L 1197 160 
L 1197 0 
C 1402 0 1747 0 1965 0 
C 2182 0 2528 0 2733 0 
L 2733 160 
L 2611 160 
C 2163 160 2150 224 2150 457 
L 2150 1088 
L 2803 1088 
L 2803 1254 
L 2150 1254 
L 2150 4122 
z
M 1798 3703 
L 1798 1254 
L 256 1254 
L 1798 3703 
z
" transform="scale(0.015625)"/>
       </defs>
       <use xlink:href="#CMR17-34" transform="scale(0.996264)"/>
       <use xlink:href="#CMR17-30" transform="translate(45.690477 0) scale(0.996264)"/>
       <use xlink:href="#CMR17-30" transform="translate(91.380954 0) scale(0.996264)"/>
      </g>
     </g>
    </g>
    <g id="ytick_3">
     <g id="line2d_3">
      <path d="M 86.865012 261.618499 
L 529.2 261.618499 
" clip-path="url(#p72817f7de1)" style="fill: none; stroke: #ffffff; stroke-width: 0.8; stroke-linecap: round"/>
     </g>
     <g id="text_11">
      <!-- $\mathdefault{600}$ -->
      <g style="fill: #262626" transform="translate(52.450726 268.536997) scale(0.2 -0.2)">
       <defs>
        <path id="CMR17-36" d="M 678 2176 
C 678 3690 1395 4032 1811 4032 
C 1946 4032 2272 4009 2400 3776 
C 2298 3776 2106 3776 2106 3553 
C 2106 3381 2246 3323 2336 3323 
C 2394 3323 2566 3348 2566 3560 
C 2566 3954 2246 4179 1805 4179 
C 1043 4179 243 3390 243 1984 
C 243 253 966 -128 1478 -128 
C 2099 -128 2688 427 2688 1283 
C 2688 2081 2170 2662 1517 2662 
C 1126 2662 838 2407 678 1960 
L 678 2176 
z
M 1478 25 
C 691 25 691 1200 691 1436 
C 691 1896 909 2560 1504 2560 
C 1613 2560 1926 2560 2138 2120 
C 2253 1870 2253 1609 2253 1289 
C 2253 944 2253 690 2118 434 
C 1978 171 1773 25 1478 25 
z
" transform="scale(0.015625)"/>
       </defs>
       <use xlink:href="#CMR17-36" transform="scale(0.996264)"/>
       <use xlink:href="#CMR17-30" transform="translate(45.690477 0) scale(0.996264)"/>
       <use xlink:href="#CMR17-30" transform="translate(91.380954 0) scale(0.996264)"/>
      </g>
     </g>
    </g>
    <g id="ytick_4">
     <g id="line2d_4">
      <path d="M 86.865012 168.230213 
L 529.2 168.230213 
" clip-path="url(#p72817f7de1)" style="fill: none; stroke: #ffffff; stroke-width: 0.8; stroke-linecap: round"/>
     </g>
     <g id="text_12">
      <!-- $\mathdefault{800}$ -->
      <g style="fill: #262626" transform="translate(52.450726 175.148712) scale(0.2 -0.2)">
       <defs>
        <path id="CMR17-38" d="M 1741 2264 
C 2144 2467 2554 2773 2554 3263 
C 2554 3841 1990 4179 1472 4179 
C 890 4179 378 3759 378 3180 
C 378 3021 416 2747 666 2505 
C 730 2442 998 2251 1171 2130 
C 883 1983 211 1634 211 934 
C 211 279 838 -128 1459 -128 
C 2144 -128 2720 362 2720 1010 
C 2720 1590 2330 1857 2074 2029 
L 1741 2264 
z
M 902 2822 
C 851 2854 595 3051 595 3351 
C 595 3739 998 4032 1459 4032 
C 1965 4032 2336 3676 2336 3262 
C 2336 2669 1670 2331 1638 2331 
C 1632 2331 1626 2331 1574 2370 
L 902 2822 
z
M 2080 1519 
C 2176 1449 2483 1240 2483 851 
C 2483 381 2010 25 1472 25 
C 890 25 448 438 448 940 
C 448 1443 838 1862 1280 2060 
L 2080 1519 
z
" transform="scale(0.015625)"/>
       </defs>
       <use xlink:href="#CMR17-38" transform="scale(0.996264)"/>
       <use xlink:href="#CMR17-30" transform="translate(45.690477 0) scale(0.996264)"/>
       <use xlink:href="#CMR17-30" transform="translate(91.380954 0) scale(0.996264)"/>
      </g>
     </g>
    </g>
    <g id="ytick_5">
     <g id="line2d_5">
      <path d="M 86.865012 74.841928 
L 529.2 74.841928 
" clip-path="url(#p72817f7de1)" style="fill: none; stroke: #ffffff; stroke-width: 0.8; stroke-linecap: round"/>
     </g>
     <g id="text_13">
      <!-- $\mathdefault{1000}$ -->
      <g style="fill: #262626" transform="translate(43.31263 81.760427) scale(0.2 -0.2)">
       <defs>
        <path id="CMR17-31" d="M 1702 4058 
C 1702 4192 1696 4192 1606 4192 
C 1357 3916 979 3827 621 3827 
C 602 3827 570 3827 563 3808 
C 557 3795 557 3782 557 3648 
C 755 3648 1088 3686 1344 3839 
L 1344 461 
C 1344 236 1331 160 781 160 
L 589 160 
L 589 0 
C 896 0 1216 0 1523 0 
C 1830 0 2150 0 2458 0 
L 2458 160 
L 2266 160 
C 1715 160 1702 230 1702 458 
L 1702 4058 
z
" transform="scale(0.015625)"/>
       </defs>
       <use xlink:href="#CMR17-31" transform="scale(0.996264)"/>
       <use xlink:href="#CMR17-30" transform="translate(45.690477 0) scale(0.996264)"/>
       <use xlink:href="#CMR17-30" transform="translate(91.380954 0) scale(0.996264)"/>
       <use xlink:href="#CMR17-30" transform="translate(137.071431 0) scale(0.996264)"/>
      </g>
     </g>
    </g>
    <g id="text_14">
     <!-- Termination Time -->
     <g style="fill: #262626" transform="translate(35.436997 335.112928) rotate(-90) scale(0.2 -0.2)">
      <defs>
       <path id="CMSS17-54" d="M 2317 3968 
L 2848 3968 
C 2925 3968 3002 3968 3078 3968 
L 3878 3968 
L 3878 4376 
L 218 4376 
L 218 3968 
L 1018 3968 
C 1094 3968 1171 3968 1248 3968 
L 1779 3968 
L 1779 -32 
L 2317 -32 
L 2317 3968 
z
" transform="scale(0.015625)"/>
       <path id="CMSS17-65" d="M 2502 1377 
C 2502 1590 2490 2003 2285 2345 
C 2061 2713 1696 2816 1421 2816 
C 755 2816 192 2188 192 1375 
C 192 582 774 -64 1510 -64 
C 1798 -64 2150 19 2470 248 
C 2470 274 2458 414 2451 420 
C 2451 433 2432 630 2432 656 
C 2125 407 1773 325 1517 325 
C 1107 325 666 667 646 1377 
L 2502 1377 
z
M 698 1728 
C 781 2084 1062 2421 1421 2421 
C 1517 2421 1965 2421 2080 1728 
L 698 1728 
z
" transform="scale(0.015625)"/>
       <path id="CMSS17-72" d="M 954 1363 
C 954 1965 1395 2368 1958 2368 
L 1958 2789 
C 1549 2789 1165 2585 934 2253 
L 934 2758 
L 480 2758 
L 480 0 
L 954 0 
L 954 1363 
z
" transform="scale(0.015625)"/>
       <path id="CMSS17-6d" d="M 4288 1877 
C 4288 2308 4179 2816 3462 2816 
C 2982 2816 2694 2516 2566 2331 
C 2451 2670 2182 2816 1798 2816 
C 1363 2816 1088 2568 941 2389 
L 941 2758 
L 474 2758 
L 474 0 
L 960 0 
L 960 1559 
C 960 1939 1101 2428 1555 2428 
C 2138 2428 2138 2016 2138 1829 
L 2138 0 
L 2624 0 
L 2624 1559 
C 2624 1939 2765 2428 3219 2428 
C 3802 2428 3802 2016 3802 1829 
L 3802 0 
L 4288 0 
L 4288 1877 
z
" transform="scale(0.015625)"/>
       <path id="CMSS17-69" d="M 979 4183 
L 442 4183 
L 442 3648 
L 979 3648 
L 979 4183 
z
M 947 2739 
L 474 2739 
L 474 0 
L 947 0 
L 947 2739 
z
" transform="scale(0.015625)"/>
       <path id="CMSS17-6e" d="M 2618 1877 
C 2618 2283 2522 2816 1798 2816 
C 1389 2816 1120 2606 941 2389 
L 941 2758 
L 474 2758 
L 474 0 
L 960 0 
L 960 1559 
C 960 1964 1114 2428 1549 2428 
C 2112 2428 2131 2048 2131 1829 
L 2131 0 
L 2618 0 
L 2618 1877 
z
" transform="scale(0.015625)"/>
       <path id="CMSS17-74" d="M 1069 2368 
L 1901 2368 
L 1901 2737 
L 1069 2737 
L 1069 3520 
L 614 3520 
L 614 2737 
L 109 2737 
L 109 2368 
L 602 2368 
L 602 749 
C 602 384 685 -64 1107 -64 
C 1427 -64 1722 25 2003 172 
L 1901 548 
C 1747 414 1562 337 1363 337 
C 1082 337 1069 696 1069 856 
L 1069 2368 
z
" transform="scale(0.015625)"/>
       <path id="CMSS17-6f" d="M 2829 1356 
C 2829 2176 2221 2816 1504 2816 
C 768 2816 173 2157 173 1356 
C 173 544 787 -64 1498 -64 
C 2227 -64 2829 563 2829 1356 
z
M 1504 337 
C 1050 337 659 709 659 1408 
C 659 2151 1114 2427 1498 2427 
C 1914 2427 2342 2126 2342 1408 
C 2342 683 1926 337 1504 337 
z
" transform="scale(0.015625)"/>
      </defs>
      <use xlink:href="#CMSS17-54" transform="scale(0.996264)"/>
      <use xlink:href="#CMSS17-65" transform="translate(56.012199 0) scale(0.996264)"/>
      <use xlink:href="#CMSS17-72" transform="translate(97.651021 0) scale(0.996264)"/>
      <use xlink:href="#CMSS17-6d" transform="translate(129.560793 0) scale(0.996264)"/>
      <use xlink:href="#CMSS17-69" transform="translate(203.790048 0) scale(0.996264)"/>
      <use xlink:href="#CMSS17-6e" transform="translate(225.970771 0) scale(0.996264)"/>
      <use xlink:href="#CMSS17-61" transform="translate(274.175714 0) scale(0.996264)"/>
      <use xlink:href="#CMSS17-74" transform="translate(319.097634 0) scale(0.996264)"/>
      <use xlink:href="#CMSS17-69" transform="translate(352.929201 0) scale(0.996264)"/>
      <use xlink:href="#CMSS17-6f" transform="translate(375.109924 0) scale(0.996264)"/>
      <use xlink:href="#CMSS17-6e" transform="translate(421.953548 0) scale(0.996264)"/>
      <use xlink:href="#CMSS17-54" transform="translate(501.387603 0) scale(0.996264)"/>
      <use xlink:href="#CMSS17-69" transform="translate(565.207057 0) scale(0.996264)"/>
      <use xlink:href="#CMSS17-6d" transform="translate(587.38778 0) scale(0.996264)"/>
      <use xlink:href="#CMSS17-65" transform="translate(661.617035 0) scale(0.996264)"/>
     </g>
    </g>
   </g>
   <g id="patch_3">
    <path d="M 93.184083 342.302881 
L 143.736653 342.302881 
L 143.736653 205.960402 
L 93.184083 205.960402 
L 93.184083 342.302881 
z
" clip-path="url(#p72817f7de1)" style="fill: #9a5c8e; stroke: #4a4a4a; stroke-linejoin: miter"/>
   </g>
   <g id="line2d_6">
    <path d="M 118.460368 342.302881 
L 118.460368 376.420105 
" clip-path="url(#p72817f7de1)" style="fill: none; stroke: #4a4a4a"/>
   </g>
   <g id="line2d_7">
    <path d="M 118.460368 205.960402 
L 118.460368 43.707943 
" clip-path="url(#p72817f7de1)" style="fill: none; stroke: #4a4a4a"/>
   </g>
   <g id="line2d_8">
    <path d="M 105.822226 376.420105 
L 131.098511 376.420105 
" clip-path="url(#p72817f7de1)" style="fill: none; stroke: #4a4a4a; stroke-linecap: round"/>
   </g>
   <g id="line2d_9">
    <path d="M 105.822226 43.707943 
L 131.098511 43.707943 
" clip-path="url(#p72817f7de1)" style="fill: none; stroke: #4a4a4a; stroke-linecap: round"/>
   </g>
   <g id="line2d_10"/>
   <g id="patch_4">
    <path d="M 156.374796 389.76972 
L 206.927366 389.76972 
L 206.927366 285.694464 
L 156.374796 285.694464 
L 156.374796 389.76972 
z
" clip-path="url(#p72817f7de1)" style="fill: #9a5c8e; stroke: #4a4a4a; stroke-linejoin: miter"/>
   </g>
   <g id="line2d_11">
    <path d="M 181.651081 389.76972 
L 181.651081 415.840525 
" clip-path="url(#p72817f7de1)" style="fill: none; stroke: #4a4a4a"/>
   </g>
   <g id="line2d_12">
    <path d="M 181.651081 285.694464 
L 181.651081 161.857863 
" clip-path="url(#p72817f7de1)" style="fill: none; stroke: #4a4a4a"/>
   </g>
   <g id="line2d_13">
    <path d="M 169.012938 415.840525 
L 194.289223 415.840525 
" clip-path="url(#p72817f7de1)" style="fill: none; stroke: #4a4a4a; stroke-linecap: round"/>
   </g>
   <g id="line2d_14">
    <path d="M 169.012938 161.857863 
L 194.289223 161.857863 
" clip-path="url(#p72817f7de1)" style="fill: none; stroke: #4a4a4a; stroke-linecap: round"/>
   </g>
   <g id="line2d_15"/>
   <g id="patch_5">
    <path d="M 219.565508 419.04917 
L 270.118078 419.04917 
L 270.118078 334.860109 
L 219.565508 334.860109 
L 219.565508 419.04917 
z
" clip-path="url(#p72817f7de1)" style="fill: #9a5c8e; stroke: #4a4a4a; stroke-linejoin: miter"/>
   </g>
   <g id="line2d_16">
    <path d="M 244.841793 419.04917 
L 244.841793 440.149242 
" clip-path="url(#p72817f7de1)" style="fill: none; stroke: #4a4a4a"/>
   </g>
   <g id="line2d_17">
    <path d="M 244.841793 334.860109 
L 244.841793 234.702662 
" clip-path="url(#p72817f7de1)" style="fill: none; stroke: #4a4a4a"/>
   </g>
   <g id="line2d_18">
    <path d="M 232.203651 440.149242 
L 257.479936 440.149242 
" clip-path="url(#p72817f7de1)" style="fill: none; stroke: #4a4a4a; stroke-linecap: round"/>
   </g>
   <g id="line2d_19">
    <path d="M 232.203651 234.702662 
L 257.479936 234.702662 
" clip-path="url(#p72817f7de1)" style="fill: none; stroke: #4a4a4a; stroke-linecap: round"/>
   </g>
   <g id="line2d_20"/>
   <g id="patch_6">
    <path d="M 282.756221 439.14582 
L 333.308791 439.14582 
L 333.308791 368.60259 
L 282.756221 368.60259 
L 282.756221 439.14582 
z
" clip-path="url(#p72817f7de1)" style="fill: #9a5c8e; stroke: #4a4a4a; stroke-linejoin: miter"/>
   </g>
   <g id="line2d_21">
    <path d="M 308.032506 439.14582 
L 308.032506 456.819621 
" clip-path="url(#p72817f7de1)" style="fill: none; stroke: #4a4a4a"/>
   </g>
   <g id="line2d_22">
    <path d="M 308.032506 368.60259 
L 308.032506 284.663243 
" clip-path="url(#p72817f7de1)" style="fill: none; stroke: #4a4a4a"/>
   </g>
   <g id="line2d_23">
    <path d="M 295.394364 456.819621 
L 320.670649 456.819621 
" clip-path="url(#p72817f7de1)" style="fill: none; stroke: #4a4a4a; stroke-linecap: round"/>
   </g>
   <g id="line2d_24">
    <path d="M 295.394364 284.663243 
L 320.670649 284.663243 
" clip-path="url(#p72817f7de1)" style="fill: none; stroke: #4a4a4a; stroke-linecap: round"/>
   </g>
   <g id="line2d_25"/>
   <g id="patch_7">
    <path d="M 345.946934 453.879575 
L 396.499504 453.879575 
L 396.499504 393.341723 
L 345.946934 393.341723 
L 345.946934 453.879575 
z
" clip-path="url(#p72817f7de1)" style="fill: #9a5c8e; stroke: #4a4a4a; stroke-linejoin: miter"/>
   </g>
   <g id="line2d_26">
    <path d="M 371.223219 453.879575 
L 371.223219 469.054612 
" clip-path="url(#p72817f7de1)" style="fill: none; stroke: #4a4a4a"/>
   </g>
   <g id="line2d_27">
    <path d="M 371.223219 393.341723 
L 371.223219 321.32964 
" clip-path="url(#p72817f7de1)" style="fill: none; stroke: #4a4a4a"/>
   </g>
   <g id="line2d_28">
    <path d="M 358.585076 469.054612 
L 383.861361 469.054612 
" clip-path="url(#p72817f7de1)" style="fill: none; stroke: #4a4a4a; stroke-linecap: round"/>
   </g>
   <g id="line2d_29">
    <path d="M 358.585076 321.32964 
L 383.861361 321.32964 
" clip-path="url(#p72817f7de1)" style="fill: none; stroke: #4a4a4a; stroke-linecap: round"/>
   </g>
   <g id="line2d_30"/>
   <g id="patch_8">
    <path d="M 409.137646 465.192671 
L 459.690216 465.192671 
L 459.690216 412.354428 
L 409.137646 412.354428 
L 409.137646 465.192671 
z
" clip-path="url(#p72817f7de1)" style="fill: #9a5c8e; stroke: #4a4a4a; stroke-linejoin: miter"/>
   </g>
   <g id="line2d_31">
    <path d="M 434.413931 465.192671 
L 434.413931 478.430063 
" clip-path="url(#p72817f7de1)" style="fill: none; stroke: #4a4a4a"/>
   </g>
   <g id="line2d_32">
    <path d="M 434.413931 412.354428 
L 434.413931 349.523419 
" clip-path="url(#p72817f7de1)" style="fill: none; stroke: #4a4a4a"/>
   </g>
   <g id="line2d_33">
    <path d="M 421.775789 478.430063 
L 447.052074 478.430063 
" clip-path="url(#p72817f7de1)" style="fill: none; stroke: #4a4a4a; stroke-linecap: round"/>
   </g>
   <g id="line2d_34">
    <path d="M 421.775789 349.523419 
L 447.052074 349.523419 
" clip-path="url(#p72817f7de1)" style="fill: none; stroke: #4a4a4a; stroke-linecap: round"/>
   </g>
   <g id="line2d_35"/>
   <g id="patch_9">
    <path d="M 472.328359 474.171922 
L 522.880929 474.171922 
L 522.880929 427.455545 
L 472.328359 427.455545 
L 472.328359 474.171922 
z
" clip-path="url(#p72817f7de1)" style="fill: #9a5c8e; stroke: #4a4a4a; stroke-linejoin: miter"/>
   </g>
   <g id="line2d_36">
    <path d="M 497.604644 474.171922 
L 497.604644 485.866797 
" clip-path="url(#p72817f7de1)" style="fill: none; stroke: #4a4a4a"/>
   </g>
   <g id="line2d_37">
    <path d="M 497.604644 427.455545 
L 497.604644 371.905614 
" clip-path="url(#p72817f7de1)" style="fill: none; stroke: #4a4a4a"/>
   </g>
   <g id="line2d_38">
    <path d="M 484.966501 485.866797 
L 510.242786 485.866797 
" clip-path="url(#p72817f7de1)" style="fill: none; stroke: #4a4a4a; stroke-linecap: round"/>
   </g>
   <g id="line2d_39">
    <path d="M 484.966501 371.905614 
L 510.242786 371.905614 
" clip-path="url(#p72817f7de1)" style="fill: none; stroke: #4a4a4a; stroke-linecap: round"/>
   </g>
   <g id="line2d_40"/>
   <g id="line2d_41">
    <path d="M 93.184083 293.426608 
L 143.736653 293.426608 
" clip-path="url(#p72817f7de1)" style="fill: none; stroke: #4a4a4a"/>
   </g>
   <g id="line2d_42">
    <path d="M 156.374796 352.337208 
L 206.927366 352.337208 
" clip-path="url(#p72817f7de1)" style="fill: none; stroke: #4a4a4a"/>
   </g>
   <g id="line2d_43">
    <path d="M 219.565508 388.781166 
L 270.118078 388.781166 
" clip-path="url(#p72817f7de1)" style="fill: none; stroke: #4a4a4a"/>
   </g>
   <g id="line2d_44">
    <path d="M 282.756221 413.776638 
L 333.308791 413.776638 
" clip-path="url(#p72817f7de1)" style="fill: none; stroke: #4a4a4a"/>
   </g>
   <g id="line2d_45">
    <path d="M 345.946934 432.106104 
L 396.499504 432.106104 
" clip-path="url(#p72817f7de1)" style="fill: none; stroke: #4a4a4a"/>
   </g>
   <g id="line2d_46">
    <path d="M 409.137646 446.203908 
L 459.690216 446.203908 
" clip-path="url(#p72817f7de1)" style="fill: none; stroke: #4a4a4a"/>
   </g>
   <g id="line2d_47">
    <path d="M 472.328359 457.387117 
L 522.880929 457.387117 
" clip-path="url(#p72817f7de1)" style="fill: none; stroke: #4a4a4a"/>
   </g>
   <g id="patch_10">
    <path d="M 86.865012 507.974739 
L 86.865012 21.6 
" style="fill: none; stroke: #ffffff; stroke-width: 0.8; stroke-linejoin: miter; stroke-linecap: square"/>
   </g>
   <g id="patch_11">
    <path d="M 529.2 507.974739 
L 529.2 21.6 
" style="fill: none; stroke: #ffffff; stroke-width: 0.8; stroke-linejoin: miter; stroke-linecap: square"/>
   </g>
   <g id="patch_12">
    <path d="M 86.865012 507.974739 
L 529.2 507.974739 
" style="fill: none; stroke: #ffffff; stroke-width: 0.8; stroke-linejoin: miter; stroke-linecap: square"/>
   </g>
   <g id="patch_13">
    <path d="M 86.865012 21.6 
L 529.2 21.6 
" style="fill: none; stroke: #ffffff; stroke-width: 0.8; stroke-linejoin: miter; stroke-linecap: square"/>
   </g>
  </g>
  <g id="axes_2">
   <g id="patch_14">
    <path d="M 616.065012 507.974739 
L 1058.4 507.974739 
L 1058.4 21.6 
L 616.065012 21.6 
z
" style="fill: #eaeaf2"/>
   </g>
   <g id="matplotlib.axis_3">
    <g id="xtick_8">
     <g id="text_15">
      <!-- 0.03 -->
      <g style="fill: #262626" transform="translate(631.00487 528.811736) scale(0.2 -0.2)">
       <use xlink:href="#CMSS17-30" transform="scale(0.996264)"/>
       <use xlink:href="#CMSS17-2e" transform="translate(46.843624 0) scale(0.996264)"/>
       <use xlink:href="#CMSS17-30" transform="translate(72.867828 0) scale(0.996264)"/>
       <use xlink:href="#CMSS17-33" transform="translate(119.711452 0) scale(0.996264)"/>
      </g>
     </g>
    </g>
    <g id="xtick_9">
     <g id="text_16">
      <!-- 0.04 -->
      <g style="fill: #262626" transform="translate(694.195582 528.811736) scale(0.2 -0.2)">
       <use xlink:href="#CMSS17-30" transform="scale(0.996264)"/>
       <use xlink:href="#CMSS17-2e" transform="translate(46.843624 0) scale(0.996264)"/>
       <use xlink:href="#CMSS17-30" transform="translate(72.867828 0) scale(0.996264)"/>
       <use xlink:href="#CMSS17-34" transform="translate(119.711452 0) scale(0.996264)"/>
      </g>
     </g>
    </g>
    <g id="xtick_10">
     <g id="text_17">
      <!-- 0.05 -->
      <g style="fill: #262626" transform="translate(757.386295 528.811736) scale(0.2 -0.2)">
       <use xlink:href="#CMSS17-30" transform="scale(0.996264)"/>
       <use xlink:href="#CMSS17-2e" transform="translate(46.843624 0) scale(0.996264)"/>
       <use xlink:href="#CMSS17-30" transform="translate(72.867828 0) scale(0.996264)"/>
       <use xlink:href="#CMSS17-35" transform="translate(119.711452 0) scale(0.996264)"/>
      </g>
     </g>
    </g>
    <g id="xtick_11">
     <g id="text_18">
      <!-- 0.06 -->
      <g style="fill: #262626" transform="translate(820.577008 528.811736) scale(0.2 -0.2)">
       <use xlink:href="#CMSS17-30" transform="scale(0.996264)"/>
       <use xlink:href="#CMSS17-2e" transform="translate(46.843624 0) scale(0.996264)"/>
       <use xlink:href="#CMSS17-30" transform="translate(72.867828 0) scale(0.996264)"/>
       <use xlink:href="#CMSS17-36" transform="translate(119.711452 0) scale(0.996264)"/>
      </g>
     </g>
    </g>
    <g id="xtick_12">
     <g id="text_19">
      <!-- 0.07 -->
      <g style="fill: #262626" transform="translate(883.76772 528.811736) scale(0.2 -0.2)">
       <use xlink:href="#CMSS17-30" transform="scale(0.996264)"/>
       <use xlink:href="#CMSS17-2e" transform="translate(46.843624 0) scale(0.996264)"/>
       <use xlink:href="#CMSS17-30" transform="translate(72.867828 0) scale(0.996264)"/>
       <use xlink:href="#CMSS17-37" transform="translate(119.711452 0) scale(0.996264)"/>
      </g>
     </g>
    </g>
    <g id="xtick_13">
     <g id="text_20">
      <!-- 0.08 -->
      <g style="fill: #262626" transform="translate(946.958433 528.811736) scale(0.2 -0.2)">
       <use xlink:href="#CMSS17-30" transform="scale(0.996264)"/>
       <use xlink:href="#CMSS17-2e" transform="translate(46.843624 0) scale(0.996264)"/>
       <use xlink:href="#CMSS17-30" transform="translate(72.867828 0) scale(0.996264)"/>
       <use xlink:href="#CMSS17-38" transform="translate(119.711452 0) scale(0.996264)"/>
      </g>
     </g>
    </g>
    <g id="xtick_14">
     <g id="text_21">
      <!-- 0.09 -->
      <g style="fill: #262626" transform="translate(1010.149145 528.811736) scale(0.2 -0.2)">
       <use xlink:href="#CMSS17-30" transform="scale(0.996264)"/>
       <use xlink:href="#CMSS17-2e" transform="translate(46.843624 0) scale(0.996264)"/>
       <use xlink:href="#CMSS17-30" transform="translate(72.867828 0) scale(0.996264)"/>
       <use xlink:href="#CMSS17-39" transform="translate(119.711452 0) scale(0.996264)"/>
      </g>
     </g>
    </g>
    <g id="text_22">
     <!-- Beta -->
     <g style="fill: #262626" transform="translate(818.959477 550.524366) scale(0.2 -0.2)">
      <defs>
       <path id="CMSS17-42" d="M 570 4416 
L 570 0 
L 2163 0 
C 3034 0 3667 574 3667 1200 
C 3667 1685 3251 2176 2502 2317 
C 3334 2558 3501 3040 3501 3313 
C 3501 3883 2874 4416 1997 4416 
L 570 4416 
z
M 1088 2496 
L 1088 4059 
L 1824 4059 
C 2483 4059 3002 3724 3002 3306 
C 3002 2926 2592 2496 1766 2496 
L 1088 2496 
z
M 1088 357 
L 1088 2107 
L 1939 2107 
C 2630 2107 3162 1679 3162 1206 
C 3162 772 2694 357 1984 357 
L 1088 357 
z
" transform="scale(0.015625)"/>
      </defs>
      <use xlink:href="#CMSS17-42" transform="scale(0.996264)"/>
      <use xlink:href="#CMSS17-65" transform="translate(62.33804 0) scale(0.996264)"/>
      <use xlink:href="#CMSS17-74" transform="translate(103.976862 0) scale(0.996264)"/>
      <use xlink:href="#CMSS17-61" transform="translate(137.808429 0) scale(0.996264)"/>
     </g>
    </g>
   </g>
   <g id="matplotlib.axis_4">
    <g id="ytick_6">
     <g id="line2d_48">
      <path d="M 616.065012 448.395069 
L 1058.4 448.395069 
" clip-path="url(#pb2b92cbf61)" style="fill: none; stroke: #ffffff; stroke-width: 0.8; stroke-linecap: round"/>
     </g>
     <g id="text_23">
      <!-- $\mathdefault{200}$ -->
      <g style="fill: #262626" transform="translate(581.650726 455.313567) scale(0.2 -0.2)">
       <use xlink:href="#CMR17-32" transform="scale(0.996264)"/>
       <use xlink:href="#CMR17-30" transform="translate(45.690477 0) scale(0.996264)"/>
       <use xlink:href="#CMR17-30" transform="translate(91.380954 0) scale(0.996264)"/>
      </g>
     </g>
    </g>
    <g id="ytick_7">
     <g id="line2d_49">
      <path d="M 616.065012 355.006784 
L 1058.4 355.006784 
" clip-path="url(#pb2b92cbf61)" style="fill: none; stroke: #ffffff; stroke-width: 0.8; stroke-linecap: round"/>
     </g>
     <g id="text_24">
      <!-- $\mathdefault{400}$ -->
      <g style="fill: #262626" transform="translate(581.650726 361.925282) scale(0.2 -0.2)">
       <use xlink:href="#CMR17-34" transform="scale(0.996264)"/>
       <use xlink:href="#CMR17-30" transform="translate(45.690477 0) scale(0.996264)"/>
       <use xlink:href="#CMR17-30" transform="translate(91.380954 0) scale(0.996264)"/>
      </g>
     </g>
    </g>
    <g id="ytick_8">
     <g id="line2d_50">
      <path d="M 616.065012 261.618499 
L 1058.4 261.618499 
" clip-path="url(#pb2b92cbf61)" style="fill: none; stroke: #ffffff; stroke-width: 0.8; stroke-linecap: round"/>
     </g>
     <g id="text_25">
      <!-- $\mathdefault{600}$ -->
      <g style="fill: #262626" transform="translate(581.650726 268.536997) scale(0.2 -0.2)">
       <use xlink:href="#CMR17-36" transform="scale(0.996264)"/>
       <use xlink:href="#CMR17-30" transform="translate(45.690477 0) scale(0.996264)"/>
       <use xlink:href="#CMR17-30" transform="translate(91.380954 0) scale(0.996264)"/>
      </g>
     </g>
    </g>
    <g id="ytick_9">
     <g id="line2d_51">
      <path d="M 616.065012 168.230213 
L 1058.4 168.230213 
" clip-path="url(#pb2b92cbf61)" style="fill: none; stroke: #ffffff; stroke-width: 0.8; stroke-linecap: round"/>
     </g>
     <g id="text_26">
      <!-- $\mathdefault{800}$ -->
      <g style="fill: #262626" transform="translate(581.650726 175.148712) scale(0.2 -0.2)">
       <use xlink:href="#CMR17-38" transform="scale(0.996264)"/>
       <use xlink:href="#CMR17-30" transform="translate(45.690477 0) scale(0.996264)"/>
       <use xlink:href="#CMR17-30" transform="translate(91.380954 0) scale(0.996264)"/>
      </g>
     </g>
    </g>
    <g id="ytick_10">
     <g id="line2d_52">
      <path d="M 616.065012 74.841928 
L 1058.4 74.841928 
" clip-path="url(#pb2b92cbf61)" style="fill: none; stroke: #ffffff; stroke-width: 0.8; stroke-linecap: round"/>
     </g>
     <g id="text_27">
      <!-- $\mathdefault{1000}$ -->
      <g style="fill: #262626" transform="translate(572.51263 81.760427) scale(0.2 -0.2)">
       <use xlink:href="#CMR17-31" transform="scale(0.996264)"/>
       <use xlink:href="#CMR17-30" transform="translate(45.690477 0) scale(0.996264)"/>
       <use xlink:href="#CMR17-30" transform="translate(91.380954 0) scale(0.996264)"/>
       <use xlink:href="#CMR17-30" transform="translate(137.071431 0) scale(0.996264)"/>
      </g>
     </g>
    </g>
    <g id="text_28">
     <!-- Termination Time -->
     <g style="fill: #262626" transform="translate(564.636997 335.112928) rotate(-90) scale(0.2 -0.2)">
      <use xlink:href="#CMSS17-54" transform="scale(0.996264)"/>
      <use xlink:href="#CMSS17-65" transform="translate(56.012199 0) scale(0.996264)"/>
      <use xlink:href="#CMSS17-72" transform="translate(97.651021 0) scale(0.996264)"/>
      <use xlink:href="#CMSS17-6d" transform="translate(129.560793 0) scale(0.996264)"/>
      <use xlink:href="#CMSS17-69" transform="translate(203.790048 0) scale(0.996264)"/>
      <use xlink:href="#CMSS17-6e" transform="translate(225.970771 0) scale(0.996264)"/>
      <use xlink:href="#CMSS17-61" transform="translate(274.175714 0) scale(0.996264)"/>
      <use xlink:href="#CMSS17-74" transform="translate(319.097634 0) scale(0.996264)"/>
      <use xlink:href="#CMSS17-69" transform="translate(352.929201 0) scale(0.996264)"/>
      <use xlink:href="#CMSS17-6f" transform="translate(375.109924 0) scale(0.996264)"/>
      <use xlink:href="#CMSS17-6e" transform="translate(421.953548 0) scale(0.996264)"/>
      <use xlink:href="#CMSS17-54" transform="translate(501.387603 0) scale(0.996264)"/>
      <use xlink:href="#CMSS17-69" transform="translate(565.207057 0) scale(0.996264)"/>
      <use xlink:href="#CMSS17-6d" transform="translate(587.38778 0) scale(0.996264)"/>
      <use xlink:href="#CMSS17-65" transform="translate(661.617035 0) scale(0.996264)"/>
     </g>
    </g>
   </g>
   <g id="patch_15">
    <path d="M 622.384083 335.42653 
L 672.936653 335.42653 
L 672.936653 198.280263 
L 622.384083 198.280263 
L 622.384083 335.42653 
z
" clip-path="url(#pb2b92cbf61)" style="fill: #9a5c8e; stroke: #4a4a4a; stroke-linejoin: miter"/>
   </g>
   <g id="line2d_53">
    <path d="M 647.660368 335.42653 
L 647.660368 371.905614 
" clip-path="url(#pb2b92cbf61)" style="fill: none; stroke: #4a4a4a"/>
   </g>
   <g id="line2d_54">
    <path d="M 647.660368 198.280263 
L 647.660368 43.707943 
" clip-path="url(#pb2b92cbf61)" style="fill: none; stroke: #4a4a4a"/>
   </g>
   <g id="line2d_55">
    <path d="M 635.022226 371.905614 
L 660.298511 371.905614 
" clip-path="url(#pb2b92cbf61)" style="fill: none; stroke: #4a4a4a; stroke-linecap: round"/>
   </g>
   <g id="line2d_56">
    <path d="M 635.022226 43.707943 
L 660.298511 43.707943 
" clip-path="url(#pb2b92cbf61)" style="fill: none; stroke: #4a4a4a; stroke-linecap: round"/>
   </g>
   <g id="line2d_57"/>
   <g id="patch_16">
    <path d="M 685.574796 387.286265 
L 736.127366 387.286265 
L 736.127366 284.429047 
L 685.574796 284.429047 
L 685.574796 387.286265 
z
" clip-path="url(#pb2b92cbf61)" style="fill: #9a5c8e; stroke: #4a4a4a; stroke-linejoin: miter"/>
   </g>
   <g id="line2d_58">
    <path d="M 710.851081 387.286265 
L 710.851081 414.631551 
" clip-path="url(#pb2b92cbf61)" style="fill: none; stroke: #4a4a4a"/>
   </g>
   <g id="line2d_59">
    <path d="M 710.851081 284.429047 
L 710.851081 168.563442 
" clip-path="url(#pb2b92cbf61)" style="fill: none; stroke: #4a4a4a"/>
   </g>
   <g id="line2d_60">
    <path d="M 698.212938 414.631551 
L 723.489223 414.631551 
" clip-path="url(#pb2b92cbf61)" style="fill: none; stroke: #4a4a4a; stroke-linecap: round"/>
   </g>
   <g id="line2d_61">
    <path d="M 698.212938 168.563442 
L 723.489223 168.563442 
" clip-path="url(#pb2b92cbf61)" style="fill: none; stroke: #4a4a4a; stroke-linecap: round"/>
   </g>
   <g id="line2d_62"/>
   <g id="patch_17">
    <path d="M 748.765508 418.409886 
L 799.318078 418.409886 
L 799.318078 336.125526 
L 748.765508 336.125526 
L 748.765508 418.409886 
z
" clip-path="url(#pb2b92cbf61)" style="fill: #9a5c8e; stroke: #4a4a4a; stroke-linejoin: miter"/>
   </g>
   <g id="line2d_63">
    <path d="M 774.041793 418.409886 
L 774.041793 440.27954 
" clip-path="url(#pb2b92cbf61)" style="fill: none; stroke: #4a4a4a"/>
   </g>
   <g id="line2d_64">
    <path d="M 774.041793 336.125526 
L 774.041793 243.357362 
" clip-path="url(#pb2b92cbf61)" style="fill: none; stroke: #4a4a4a"/>
   </g>
   <g id="line2d_65">
    <path d="M 761.403651 440.27954 
L 786.679936 440.27954 
" clip-path="url(#pb2b92cbf61)" style="fill: none; stroke: #4a4a4a; stroke-linecap: round"/>
   </g>
   <g id="line2d_66">
    <path d="M 761.403651 243.357362 
L 786.679936 243.357362 
" clip-path="url(#pb2b92cbf61)" style="fill: none; stroke: #4a4a4a; stroke-linecap: round"/>
   </g>
   <g id="line2d_67"/>
   <g id="patch_18">
    <path d="M 811.956221 439.155006 
L 862.508791 439.155006 
L 862.508791 370.559187 
L 811.956221 370.559187 
L 811.956221 439.155006 
z
" clip-path="url(#pb2b92cbf61)" style="fill: #9a5c8e; stroke: #4a4a4a; stroke-linejoin: miter"/>
   </g>
   <g id="line2d_68">
    <path d="M 837.232506 439.155006 
L 837.232506 457.387117 
" clip-path="url(#pb2b92cbf61)" style="fill: none; stroke: #4a4a4a"/>
   </g>
   <g id="line2d_69">
    <path d="M 837.232506 370.559187 
L 837.232506 293.426608 
" clip-path="url(#pb2b92cbf61)" style="fill: none; stroke: #4a4a4a"/>
   </g>
   <g id="line2d_70">
    <path d="M 824.594364 457.387117 
L 849.870649 457.387117 
" clip-path="url(#pb2b92cbf61)" style="fill: none; stroke: #4a4a4a; stroke-linecap: round"/>
   </g>
   <g id="line2d_71">
    <path d="M 824.594364 293.426608 
L 849.870649 293.426608 
" clip-path="url(#pb2b92cbf61)" style="fill: none; stroke: #4a4a4a; stroke-linecap: round"/>
   </g>
   <g id="line2d_72"/>
   <g id="patch_19">
    <path d="M 875.146934 453.980772 
L 925.699504 453.980772 
L 925.699504 395.188911 
L 875.146934 395.188911 
L 875.146934 453.980772 
z
" clip-path="url(#pb2b92cbf61)" style="fill: #9a5c8e; stroke: #4a4a4a; stroke-linejoin: miter"/>
   </g>
   <g id="line2d_73">
    <path d="M 900.423219 453.980772 
L 900.423219 469.57958 
" clip-path="url(#pb2b92cbf61)" style="fill: none; stroke: #4a4a4a"/>
   </g>
   <g id="line2d_74">
    <path d="M 900.423219 395.188911 
L 900.423219 328.949633 
" clip-path="url(#pb2b92cbf61)" style="fill: none; stroke: #4a4a4a"/>
   </g>
   <g id="line2d_75">
    <path d="M 887.785076 469.57958 
L 913.061361 469.57958 
" clip-path="url(#pb2b92cbf61)" style="fill: none; stroke: #4a4a4a; stroke-linecap: round"/>
   </g>
   <g id="line2d_76">
    <path d="M 887.785076 328.949633 
L 913.061361 328.949633 
" clip-path="url(#pb2b92cbf61)" style="fill: none; stroke: #4a4a4a; stroke-linecap: round"/>
   </g>
   <g id="line2d_77"/>
   <g id="patch_20">
    <path d="M 938.337646 465.091473 
L 988.890216 465.091473 
L 988.890216 413.629979 
L 938.337646 413.629979 
L 938.337646 465.091473 
z
" clip-path="url(#pb2b92cbf61)" style="fill: #9a5c8e; stroke: #4a4a4a; stroke-linejoin: miter"/>
   </g>
   <g id="line2d_78">
    <path d="M 963.613931 465.091473 
L 963.613931 478.764264 
" clip-path="url(#pb2b92cbf61)" style="fill: none; stroke: #4a4a4a"/>
   </g>
   <g id="line2d_79">
    <path d="M 963.613931 413.629979 
L 963.613931 355.65613 
" clip-path="url(#pb2b92cbf61)" style="fill: none; stroke: #4a4a4a"/>
   </g>
   <g id="line2d_80">
    <path d="M 950.975789 478.764264 
L 976.252074 478.764264 
" clip-path="url(#pb2b92cbf61)" style="fill: none; stroke: #4a4a4a; stroke-linecap: round"/>
   </g>
   <g id="line2d_81">
    <path d="M 950.975789 355.65613 
L 976.252074 355.65613 
" clip-path="url(#pb2b92cbf61)" style="fill: none; stroke: #4a4a4a; stroke-linecap: round"/>
   </g>
   <g id="line2d_82"/>
   <g id="patch_21">
    <path d="M 1001.528359 473.742338 
L 1052.080929 473.742338 
L 1052.080929 427.994883 
L 1001.528359 427.994883 
L 1001.528359 473.742338 
z
" clip-path="url(#pb2b92cbf61)" style="fill: #9a5c8e; stroke: #4a4a4a; stroke-linejoin: miter"/>
   </g>
   <g id="line2d_83">
    <path d="M 1026.804644 473.742338 
L 1026.804644 485.866797 
" clip-path="url(#pb2b92cbf61)" style="fill: none; stroke: #4a4a4a"/>
   </g>
   <g id="line2d_84">
    <path d="M 1026.804644 427.994883 
L 1026.804644 376.420105 
" clip-path="url(#pb2b92cbf61)" style="fill: none; stroke: #4a4a4a"/>
   </g>
   <g id="line2d_85">
    <path d="M 1014.166501 485.866797 
L 1039.442786 485.866797 
" clip-path="url(#pb2b92cbf61)" style="fill: none; stroke: #4a4a4a; stroke-linecap: round"/>
   </g>
   <g id="line2d_86">
    <path d="M 1014.166501 376.420105 
L 1039.442786 376.420105 
" clip-path="url(#pb2b92cbf61)" style="fill: none; stroke: #4a4a4a; stroke-linecap: round"/>
   </g>
   <g id="line2d_87"/>
   <g id="line2d_88">
    <path d="M 622.384083 284.663243 
L 672.936653 284.663243 
" clip-path="url(#pb2b92cbf61)" style="fill: none; stroke: #4a4a4a"/>
   </g>
   <g id="line2d_89">
    <path d="M 685.574796 349.230373 
L 736.127366 349.230373 
" clip-path="url(#pb2b92cbf61)" style="fill: none; stroke: #4a4a4a"/>
   </g>
   <g id="line2d_90">
    <path d="M 748.765508 387.974808 
L 799.318078 387.974808 
" clip-path="url(#pb2b92cbf61)" style="fill: none; stroke: #4a4a4a"/>
   </g>
   <g id="line2d_91">
    <path d="M 811.956221 413.776638 
L 862.508791 413.776638 
" clip-path="url(#pb2b92cbf61)" style="fill: none; stroke: #4a4a4a"/>
   </g>
   <g id="line2d_92">
    <path d="M 875.146934 432.232076 
L 925.699504 432.232076 
" clip-path="url(#pb2b92cbf61)" style="fill: none; stroke: #4a4a4a"/>
   </g>
   <g id="line2d_93">
    <path d="M 938.337646 446.059565 
L 988.890216 446.059565 
" clip-path="url(#pb2b92cbf61)" style="fill: none; stroke: #4a4a4a"/>
   </g>
   <g id="line2d_94">
    <path d="M 1001.528359 456.819621 
L 1052.080929 456.819621 
" clip-path="url(#pb2b92cbf61)" style="fill: none; stroke: #4a4a4a"/>
   </g>
   <g id="patch_22">
    <path d="M 616.065012 507.974739 
L 616.065012 21.6 
" style="fill: none; stroke: #ffffff; stroke-width: 0.8; stroke-linejoin: miter; stroke-linecap: square"/>
   </g>
   <g id="patch_23">
    <path d="M 1058.4 507.974739 
L 1058.4 21.6 
" style="fill: none; stroke: #ffffff; stroke-width: 0.8; stroke-linejoin: miter; stroke-linecap: square"/>
   </g>
   <g id="patch_24">
    <path d="M 616.065012 507.974739 
L 1058.4 507.974739 
" style="fill: none; stroke: #ffffff; stroke-width: 0.8; stroke-linejoin: miter; stroke-linecap: square"/>
   </g>
   <g id="patch_25">
    <path d="M 616.065012 21.6 
L 1058.4 21.6 
" style="fill: none; stroke: #ffffff; stroke-width: 0.8; stroke-linejoin: miter; stroke-linecap: square"/>
   </g>
  </g>
 </g>
 <defs>
  <clipPath id="p72817f7de1">
   <rect x="86.865012" y="21.6" width="442.334988" height="486.374739"/>
  </clipPath>
  <clipPath id="pb2b92cbf61">
   <rect x="616.065012" y="21.6" width="442.334988" height="486.374739"/>
  </clipPath>
 </defs>
</svg>
