<?xml version="1.0" encoding="utf-8" standalone="no"?>
<!DOCTYPE svg PUBLIC "-//W3C//DTD SVG 1.1//EN"
  "http://www.w3.org/Graphics/SVG/1.1/DTD/svg11.dtd">
<svg xmlns:xlink="http://www.w3.org/1999/xlink" width="1080pt" height="576pt" viewBox="0 0 1080 576" xmlns="http://www.w3.org/2000/svg" version="1.1">
 <metadata>
  <rdf:RDF xmlns:dc="http://purl.org/dc/elements/1.1/" xmlns:cc="http://creativecommons.org/ns#" xmlns:rdf="http://www.w3.org/1999/02/22-rdf-syntax-ns#">
   <cc:Work>
    <dc:type rdf:resource="http://purl.org/dc/dcmitype/StillImage"/>
    <dc:date>2024-07-22T21:06:49.546992</dc:date>
    <dc:format>image/svg+xml</dc:format>
    <dc:creator>
     <cc:Agent>
      <dc:title>Matplotlib v3.9.0, https://matplotlib.org/</dc:title>
     </cc:Agent>
    </dc:creator>
   </cc:Work>
  </rdf:RDF>
 </metadata>
 <defs>
  <style type="text/css">*{stroke-linejoin: round; stroke-linecap: butt}</style>
 </defs>
 <g id="figure_1">
  <g id="patch_1">
   <path d="M 0 576 
L 1080 576 
L 1080 0 
L 0 0 
z
" style="fill: #ffffff"/>
  </g>
  <g id="axes_1">
   <g id="patch_2">
    <path d="M 69.793325 515.449571 
L 914.930094 515.449571 
L 914.930094 19.44 
L 69.793325 19.44 
z
" style="fill: #eaeaf2"/>
   </g>
   <g id="matplotlib.axis_1">
    <g id="xtick_1">
     <g id="line2d_1">
      <path d="M 108.208633 515.449571 
L 108.208633 19.44 
" clip-path="url(#p681a93542a)" style="fill: none; stroke: #ffffff; stroke-width: 0.8; stroke-linecap: round"/>
     </g>
     <g id="text_1">
      <!-- $\mathdefault{0.3}$ -->
      <g style="fill: #262626" transform="translate(98.236872 533.519159) scale(0.16 -0.16)">
       <defs>
        <path id="CMR17-30" d="M 2688 2025 
C 2688 2416 2682 3080 2413 3591 
C 2176 4039 1798 4198 1466 4198 
C 1158 4198 768 4058 525 3597 
C 269 3118 243 2524 243 2025 
C 243 1661 250 1106 448 619 
C 723 -39 1216 -128 1466 -128 
C 1760 -128 2208 -7 2470 600 
C 2662 1042 2688 1559 2688 2025 
z
M 1466 -26 
C 1056 -26 813 325 723 812 
C 653 1188 653 1738 653 2096 
C 653 2588 653 2997 736 3387 
C 858 3929 1216 4096 1466 4096 
C 1728 4096 2067 3923 2189 3400 
C 2272 3036 2278 2607 2278 2096 
C 2278 1680 2278 1169 2202 792 
C 2067 95 1690 -26 1466 -26 
z
" transform="scale(0.015625)"/>
        <path id="CMMI12-3a" d="M 1178 307 
C 1178 492 1024 619 870 619 
C 685 619 557 466 557 313 
C 557 128 710 0 864 0 
C 1050 0 1178 153 1178 307 
z
" transform="scale(0.015625)"/>
        <path id="CMR17-33" d="M 1414 2157 
C 1984 2157 2234 1662 2234 1090 
C 2234 320 1824 25 1453 25 
C 1114 25 563 194 390 693 
C 422 680 454 680 486 680 
C 640 680 755 782 755 948 
C 755 1133 614 1216 486 1216 
C 378 1216 211 1165 211 926 
C 211 335 787 -128 1466 -128 
C 2176 -128 2720 430 2720 1085 
C 2720 1707 2208 2157 1600 2227 
C 2086 2328 2554 2756 2554 3329 
C 2554 3820 2048 4179 1472 4179 
C 890 4179 378 3829 378 3329 
C 378 3110 544 3072 627 3072 
C 762 3072 877 3155 877 3321 
C 877 3486 762 3569 627 3569 
C 602 3569 570 3569 544 3557 
C 730 3959 1235 4032 1459 4032 
C 1683 4032 2106 3925 2106 3320 
C 2106 3143 2080 2828 1862 2550 
C 1670 2304 1453 2304 1242 2284 
C 1210 2284 1062 2269 1037 2269 
C 992 2263 966 2257 966 2208 
C 966 2163 973 2157 1101 2157 
L 1414 2157 
z
" transform="scale(0.015625)"/>
       </defs>
       <use xlink:href="#CMR17-30" transform="scale(0.996264)"/>
       <use xlink:href="#CMMI12-3a" transform="translate(45.690477 0) scale(0.996264)"/>
       <use xlink:href="#CMR17-33" transform="translate(72.787654 0) scale(0.996264)"/>
      </g>
     </g>
    </g>
    <g id="xtick_2">
     <g id="line2d_2">
      <path d="M 217.966655 515.449571 
L 217.966655 19.44 
" clip-path="url(#p681a93542a)" style="fill: none; stroke: #ffffff; stroke-width: 0.8; stroke-linecap: round"/>
     </g>
     <g id="text_2">
      <!-- $\mathdefault{0.4}$ -->
      <g style="fill: #262626" transform="translate(207.994894 533.519159) scale(0.16 -0.16)">
       <defs>
        <path id="CMR17-34" d="M 2150 4122 
C 2150 4256 2144 4256 2029 4256 
L 128 1254 
L 128 1088 
L 1779 1088 
L 1779 457 
C 1779 224 1766 160 1318 160 
L 1197 160 
L 1197 0 
C 1402 0 1747 0 1965 0 
C 2182 0 2528 0 2733 0 
L 2733 160 
L 2611 160 
C 2163 160 2150 224 2150 457 
L 2150 1088 
L 2803 1088 
L 2803 1254 
L 2150 1254 
L 2150 4122 
z
M 1798 3703 
L 1798 1254 
L 256 1254 
L 1798 3703 
z
" transform="scale(0.015625)"/>
       </defs>
       <use xlink:href="#CMR17-30" transform="scale(0.996264)"/>
       <use xlink:href="#CMMI12-3a" transform="translate(45.690477 0) scale(0.996264)"/>
       <use xlink:href="#CMR17-34" transform="translate(72.787654 0) scale(0.996264)"/>
      </g>
     </g>
    </g>
    <g id="xtick_3">
     <g id="line2d_3">
      <path d="M 327.724677 515.449571 
L 327.724677 19.44 
" clip-path="url(#p681a93542a)" style="fill: none; stroke: #ffffff; stroke-width: 0.8; stroke-linecap: round"/>
     </g>
     <g id="text_3">
      <!-- $\mathdefault{0.5}$ -->
      <g style="fill: #262626" transform="translate(317.752916 533.519159) scale(0.16 -0.16)">
       <defs>
        <path id="CMR17-35" d="M 730 3692 
C 794 3666 1056 3584 1325 3584 
C 1920 3584 2246 3911 2432 4100 
C 2432 4157 2432 4192 2394 4192 
C 2387 4192 2374 4192 2323 4163 
C 2099 4058 1837 3973 1517 3973 
C 1325 3973 1037 3999 723 4139 
C 653 4171 640 4171 634 4171 
C 602 4171 595 4164 595 4037 
L 595 2203 
C 595 2089 595 2057 659 2057 
C 691 2057 704 2070 736 2114 
C 941 2401 1222 2522 1542 2522 
C 1766 2522 2246 2382 2246 1289 
C 2246 1085 2246 715 2054 421 
C 1894 159 1645 25 1370 25 
C 947 25 518 320 403 814 
C 429 807 480 795 506 795 
C 589 795 749 840 749 1038 
C 749 1210 627 1280 506 1280 
C 358 1280 262 1190 262 1011 
C 262 454 704 -128 1382 -128 
C 2042 -128 2669 440 2669 1264 
C 2669 2030 2170 2624 1549 2624 
C 1222 2624 947 2503 730 2274 
L 730 3692 
z
" transform="scale(0.015625)"/>
       </defs>
       <use xlink:href="#CMR17-30" transform="scale(0.996264)"/>
       <use xlink:href="#CMMI12-3a" transform="translate(45.690477 0) scale(0.996264)"/>
       <use xlink:href="#CMR17-35" transform="translate(72.787654 0) scale(0.996264)"/>
      </g>
     </g>
    </g>
    <g id="xtick_4">
     <g id="line2d_4">
      <path d="M 437.482699 515.449571 
L 437.482699 19.44 
" clip-path="url(#p681a93542a)" style="fill: none; stroke: #ffffff; stroke-width: 0.8; stroke-linecap: round"/>
     </g>
     <g id="text_4">
      <!-- $\mathdefault{0.6}$ -->
      <g style="fill: #262626" transform="translate(427.510937 533.519159) scale(0.16 -0.16)">
       <defs>
        <path id="CMR17-36" d="M 678 2176 
C 678 3690 1395 4032 1811 4032 
C 1946 4032 2272 4009 2400 3776 
C 2298 3776 2106 3776 2106 3553 
C 2106 3381 2246 3323 2336 3323 
C 2394 3323 2566 3348 2566 3560 
C 2566 3954 2246 4179 1805 4179 
C 1043 4179 243 3390 243 1984 
C 243 253 966 -128 1478 -128 
C 2099 -128 2688 427 2688 1283 
C 2688 2081 2170 2662 1517 2662 
C 1126 2662 838 2407 678 1960 
L 678 2176 
z
M 1478 25 
C 691 25 691 1200 691 1436 
C 691 1896 909 2560 1504 2560 
C 1613 2560 1926 2560 2138 2120 
C 2253 1870 2253 1609 2253 1289 
C 2253 944 2253 690 2118 434 
C 1978 171 1773 25 1478 25 
z
" transform="scale(0.015625)"/>
       </defs>
       <use xlink:href="#CMR17-30" transform="scale(0.996264)"/>
       <use xlink:href="#CMMI12-3a" transform="translate(45.690477 0) scale(0.996264)"/>
       <use xlink:href="#CMR17-36" transform="translate(72.787654 0) scale(0.996264)"/>
      </g>
     </g>
    </g>
    <g id="xtick_5">
     <g id="line2d_5">
      <path d="M 547.24072 515.449571 
L 547.24072 19.44 
" clip-path="url(#p681a93542a)" style="fill: none; stroke: #ffffff; stroke-width: 0.8; stroke-linecap: round"/>
     </g>
     <g id="text_5">
      <!-- $\mathdefault{0.7}$ -->
      <g style="fill: #262626" transform="translate(537.268959 533.519159) scale(0.16 -0.16)">
       <defs>
        <path id="CMR17-37" d="M 2886 3941 
L 2886 4081 
L 1382 4081 
C 634 4081 621 4165 595 4288 
L 480 4288 
L 294 3094 
L 410 3094 
C 429 3215 474 3540 550 3661 
C 589 3712 1062 3712 1171 3712 
L 2579 3712 
L 1869 2661 
C 1395 1954 1069 999 1069 165 
C 1069 89 1069 -128 1299 -128 
C 1530 -128 1530 89 1530 171 
L 1530 465 
C 1530 1508 1709 2196 2003 2636 
L 2886 3941 
z
" transform="scale(0.015625)"/>
       </defs>
       <use xlink:href="#CMR17-30" transform="scale(0.996264)"/>
       <use xlink:href="#CMMI12-3a" transform="translate(45.690477 0) scale(0.996264)"/>
       <use xlink:href="#CMR17-37" transform="translate(72.787654 0) scale(0.996264)"/>
      </g>
     </g>
    </g>
    <g id="xtick_6">
     <g id="line2d_6">
      <path d="M 656.998742 515.449571 
L 656.998742 19.44 
" clip-path="url(#p681a93542a)" style="fill: none; stroke: #ffffff; stroke-width: 0.8; stroke-linecap: round"/>
     </g>
     <g id="text_6">
      <!-- $\mathdefault{0.8}$ -->
      <g style="fill: #262626" transform="translate(647.026981 533.519159) scale(0.16 -0.16)">
       <defs>
        <path id="CMR17-38" d="M 1741 2264 
C 2144 2467 2554 2773 2554 3263 
C 2554 3841 1990 4179 1472 4179 
C 890 4179 378 3759 378 3180 
C 378 3021 416 2747 666 2505 
C 730 2442 998 2251 1171 2130 
C 883 1983 211 1634 211 934 
C 211 279 838 -128 1459 -128 
C 2144 -128 2720 362 2720 1010 
C 2720 1590 2330 1857 2074 2029 
L 1741 2264 
z
M 902 2822 
C 851 2854 595 3051 595 3351 
C 595 3739 998 4032 1459 4032 
C 1965 4032 2336 3676 2336 3262 
C 2336 2669 1670 2331 1638 2331 
C 1632 2331 1626 2331 1574 2370 
L 902 2822 
z
M 2080 1519 
C 2176 1449 2483 1240 2483 851 
C 2483 381 2010 25 1472 25 
C 890 25 448 438 448 940 
C 448 1443 838 1862 1280 2060 
L 2080 1519 
z
" transform="scale(0.015625)"/>
       </defs>
       <use xlink:href="#CMR17-30" transform="scale(0.996264)"/>
       <use xlink:href="#CMMI12-3a" transform="translate(45.690477 0) scale(0.996264)"/>
       <use xlink:href="#CMR17-38" transform="translate(72.787654 0) scale(0.996264)"/>
      </g>
     </g>
    </g>
    <g id="xtick_7">
     <g id="line2d_7">
      <path d="M 766.756764 515.449571 
L 766.756764 19.44 
" clip-path="url(#p681a93542a)" style="fill: none; stroke: #ffffff; stroke-width: 0.8; stroke-linecap: round"/>
     </g>
     <g id="text_7">
      <!-- $\mathdefault{0.9}$ -->
      <g style="fill: #262626" transform="translate(756.785003 533.519159) scale(0.16 -0.16)">
       <defs>
        <path id="CMR17-39" d="M 2253 1864 
C 2253 464 1670 31 1190 31 
C 1043 31 685 31 538 294 
C 704 268 826 357 826 518 
C 826 692 685 749 595 749 
C 538 749 365 723 365 506 
C 365 71 742 -128 1203 -128 
C 1939 -128 2688 674 2688 2073 
C 2688 3817 1971 4179 1485 4179 
C 851 4179 243 3628 243 2778 
C 243 1991 762 1408 1414 1408 
C 1952 1408 2189 1903 2253 2112 
L 2253 1864 
z
M 1427 1510 
C 1254 1510 1011 1542 813 1922 
C 678 2169 678 2461 678 2771 
C 678 3146 678 3405 858 3684 
C 947 3817 1114 4032 1485 4032 
C 2240 4032 2240 2885 2240 2632 
C 2240 2182 2035 1510 1427 1510 
z
" transform="scale(0.015625)"/>
       </defs>
       <use xlink:href="#CMR17-30" transform="scale(0.996264)"/>
       <use xlink:href="#CMMI12-3a" transform="translate(45.690477 0) scale(0.996264)"/>
       <use xlink:href="#CMR17-39" transform="translate(72.787654 0) scale(0.996264)"/>
      </g>
     </g>
    </g>
    <g id="xtick_8">
     <g id="line2d_8">
      <path d="M 876.514786 515.449571 
L 876.514786 19.44 
" clip-path="url(#p681a93542a)" style="fill: none; stroke: #ffffff; stroke-width: 0.8; stroke-linecap: round"/>
     </g>
     <g id="text_8">
      <!-- $\mathdefault{1.0}$ -->
      <g style="fill: #262626" transform="translate(866.543025 533.519159) scale(0.16 -0.16)">
       <defs>
        <path id="CMR17-31" d="M 1702 4058 
C 1702 4192 1696 4192 1606 4192 
C 1357 3916 979 3827 621 3827 
C 602 3827 570 3827 563 3808 
C 557 3795 557 3782 557 3648 
C 755 3648 1088 3686 1344 3839 
L 1344 461 
C 1344 236 1331 160 781 160 
L 589 160 
L 589 0 
C 896 0 1216 0 1523 0 
C 1830 0 2150 0 2458 0 
L 2458 160 
L 2266 160 
C 1715 160 1702 230 1702 458 
L 1702 4058 
z
" transform="scale(0.015625)"/>
       </defs>
       <use xlink:href="#CMR17-31" transform="scale(0.996264)"/>
       <use xlink:href="#CMMI12-3a" transform="translate(45.690477 0) scale(0.996264)"/>
       <use xlink:href="#CMR17-30" transform="translate(72.787654 0) scale(0.996264)"/>
      </g>
     </g>
    </g>
    <g id="text_9">
     <!-- adhesivity -->
     <g style="fill: #262626" transform="translate(458.118988 553.071936) scale(0.18 -0.18)">
      <defs>
       <path id="CMSS17-61" d="M 2406 1791 
C 2406 2392 1978 2808 1402 2808 
C 1120 2808 813 2757 461 2553 
L 499 2135 
C 659 2248 934 2432 1395 2432 
C 1722 2432 1920 2180 1920 1782 
L 1920 1536 
C 896 1536 256 1238 256 726 
C 256 461 416 -64 947 -64 
C 1043 -64 1562 -64 1933 217 
L 1933 -19 
L 2406 -19 
L 2406 1791 
z
M 1920 816 
C 1920 701 1920 548 1728 434 
C 1562 325 1350 325 1261 325 
C 941 325 723 511 723 744 
C 723 1211 1722 1211 1920 1211 
L 1920 816 
z
" transform="scale(0.015625)"/>
       <path id="CMSS17-64" d="M 2611 4416 
L 2138 4416 
L 2138 2438 
C 1939 2603 1613 2756 1254 2756 
C 672 2756 211 2131 211 1347 
C 211 562 666 -64 1235 -64 
C 1677 -64 1971 172 2125 306 
L 2125 -13 
L 2611 -13 
L 2611 4416 
z
M 2125 836 
C 2125 747 2125 653 1926 482 
C 1798 375 1645 325 1498 325 
C 1152 325 698 576 698 1340 
C 698 2134 1210 2368 1562 2368 
C 1798 2368 1990 2254 2125 2065 
L 2125 836 
z
" transform="scale(0.015625)"/>
       <path id="CMSS17-68" d="M 2618 1891 
C 2618 2292 2522 2820 1798 2820 
C 1395 2820 1133 2623 947 2407 
L 947 4448 
L 474 4448 
L 474 32 
L 960 32 
L 960 1573 
C 960 1973 1114 2432 1549 2432 
C 2112 2432 2131 2056 2131 1839 
L 2131 32 
L 2618 32 
L 2618 1891 
z
" transform="scale(0.015625)"/>
       <path id="CMSS17-65" d="M 2502 1377 
C 2502 1590 2490 2003 2285 2345 
C 2061 2713 1696 2816 1421 2816 
C 755 2816 192 2188 192 1375 
C 192 582 774 -64 1510 -64 
C 1798 -64 2150 19 2470 248 
C 2470 274 2458 414 2451 420 
C 2451 433 2432 630 2432 656 
C 2125 407 1773 325 1517 325 
C 1107 325 666 667 646 1377 
L 2502 1377 
z
M 698 1728 
C 781 2084 1062 2421 1421 2421 
C 1517 2421 1965 2421 2080 1728 
L 698 1728 
z
" transform="scale(0.015625)"/>
       <path id="CMSS17-73" d="M 2061 2627 
C 1683 2807 1389 2807 1197 2807 
C 742 2807 198 2648 198 2003 
C 198 1359 902 1218 1094 1179 
C 1389 1122 1715 1058 1715 740 
C 1715 337 1254 337 1171 337 
C 915 337 563 407 243 638 
L 166 210 
C 531 0 883 -64 1178 -64 
C 1965 -64 2163 416 2163 781 
C 2163 1094 1984 1305 1862 1401 
C 1651 1568 1574 1587 1050 1696 
C 960 1709 646 1779 646 2066 
C 646 2432 1050 2432 1139 2432 
C 1555 2432 1811 2303 1984 2208 
L 2061 2627 
z
" transform="scale(0.015625)"/>
       <path id="CMSS17-69" d="M 979 4183 
L 442 4183 
L 442 3648 
L 979 3648 
L 979 4183 
z
M 947 2739 
L 474 2739 
L 474 0 
L 947 0 
L 947 2739 
z
" transform="scale(0.015625)"/>
       <path id="CMSS17-76" d="M 2675 2752 
L 2176 2752 
L 1747 1556 
C 1613 1165 1421 627 1389 352 
L 1382 352 
C 1370 468 1318 634 1286 749 
C 1248 890 1197 1056 1158 1172 
L 595 2752 
L 83 2752 
L 1094 0 
L 1664 0 
L 2675 2752 
z
" transform="scale(0.015625)"/>
       <path id="CMSS17-74" d="M 1069 2368 
L 1901 2368 
L 1901 2737 
L 1069 2737 
L 1069 3520 
L 614 3520 
L 614 2737 
L 109 2737 
L 109 2368 
L 602 2368 
L 602 749 
C 602 384 685 -64 1107 -64 
C 1427 -64 1722 25 2003 172 
L 1901 548 
C 1747 414 1562 337 1363 337 
C 1082 337 1069 696 1069 856 
L 1069 2368 
z
" transform="scale(0.015625)"/>
       <path id="CMSS17-79" d="M 2675 2752 
L 2176 2752 
C 1632 1294 1446 702 1434 383 
L 1427 383 
C 1408 696 1126 1460 902 2007 
L 602 2752 
L 83 2752 
L 1216 13 
C 1146 -178 1043 -465 1011 -529 
C 870 -885 774 -885 672 -885 
C 646 -885 442 -885 211 -809 
L 250 -1229 
C 410 -1261 570 -1280 685 -1280 
C 845 -1280 1165 -1280 1459 -497 
L 2675 2752 
z
" transform="scale(0.015625)"/>
      </defs>
      <use xlink:href="#CMSS17-61" transform="scale(0.996264)"/>
      <use xlink:href="#CMSS17-64" transform="translate(44.921921 0) scale(0.996264)"/>
      <use xlink:href="#CMSS17-68" transform="translate(93.126864 0) scale(0.996264)"/>
      <use xlink:href="#CMSS17-65" transform="translate(141.331807 0) scale(0.996264)"/>
      <use xlink:href="#CMSS17-73" transform="translate(182.970629 0) scale(0.996264)"/>
      <use xlink:href="#CMSS17-69" transform="translate(218.884171 0) scale(0.996264)"/>
      <use xlink:href="#CMSS17-76" transform="translate(241.064894 0) scale(0.996264)"/>
      <use xlink:href="#CMSS17-69" transform="translate(284.065036 0) scale(0.996264)"/>
      <use xlink:href="#CMSS17-74" transform="translate(306.245759 0) scale(0.996264)"/>
      <use xlink:href="#CMSS17-79" transform="translate(337.474871 0) scale(0.996264)"/>
     </g>
    </g>
   </g>
   <g id="matplotlib.axis_2">
    <g id="ytick_1">
     <g id="line2d_9">
      <path d="M 69.793325 475.551597 
L 914.930094 475.551597 
" clip-path="url(#p681a93542a)" style="fill: none; stroke: #ffffff; stroke-width: 0.8; stroke-linecap: round"/>
     </g>
     <g id="text_10">
      <!-- $\mathdefault{50}$ -->
      <g style="fill: #262626" transform="translate(47.185351 481.086391) scale(0.16 -0.16)">
       <use xlink:href="#CMR17-35" transform="scale(0.996264)"/>
       <use xlink:href="#CMR17-30" transform="translate(45.690477 0) scale(0.996264)"/>
      </g>
     </g>
    </g>
    <g id="ytick_2">
     <g id="line2d_10">
      <path d="M 69.793325 407.973699 
L 914.930094 407.973699 
" clip-path="url(#p681a93542a)" style="fill: none; stroke: #ffffff; stroke-width: 0.8; stroke-linecap: round"/>
     </g>
     <g id="text_11">
      <!-- $\mathdefault{100}$ -->
      <g style="fill: #262626" transform="translate(39.381364 413.508493) scale(0.16 -0.16)">
       <use xlink:href="#CMR17-31" transform="scale(0.996264)"/>
       <use xlink:href="#CMR17-30" transform="translate(45.690477 0) scale(0.996264)"/>
       <use xlink:href="#CMR17-30" transform="translate(91.380954 0) scale(0.996264)"/>
      </g>
     </g>
    </g>
    <g id="ytick_3">
     <g id="line2d_11">
      <path d="M 69.793325 340.395801 
L 914.930094 340.395801 
" clip-path="url(#p681a93542a)" style="fill: none; stroke: #ffffff; stroke-width: 0.8; stroke-linecap: round"/>
     </g>
     <g id="text_12">
      <!-- $\mathdefault{150}$ -->
      <g style="fill: #262626" transform="translate(39.381364 345.930595) scale(0.16 -0.16)">
       <use xlink:href="#CMR17-31" transform="scale(0.996264)"/>
       <use xlink:href="#CMR17-35" transform="translate(45.690477 0) scale(0.996264)"/>
       <use xlink:href="#CMR17-30" transform="translate(91.380954 0) scale(0.996264)"/>
      </g>
     </g>
    </g>
    <g id="ytick_4">
     <g id="line2d_12">
      <path d="M 69.793325 272.817903 
L 914.930094 272.817903 
" clip-path="url(#p681a93542a)" style="fill: none; stroke: #ffffff; stroke-width: 0.8; stroke-linecap: round"/>
     </g>
     <g id="text_13">
      <!-- $\mathdefault{200}$ -->
      <g style="fill: #262626" transform="translate(39.381364 278.352697) scale(0.16 -0.16)">
       <defs>
        <path id="CMR17-32" d="M 2669 989 
L 2554 989 
C 2490 536 2438 459 2413 420 
C 2381 369 1920 369 1830 369 
L 602 369 
C 832 619 1280 1072 1824 1597 
C 2214 1967 2669 2402 2669 3035 
C 2669 3790 2067 4224 1395 4224 
C 691 4224 262 3604 262 3030 
C 262 2780 448 2748 525 2748 
C 589 2748 781 2787 781 3010 
C 781 3207 614 3264 525 3264 
C 486 3264 448 3258 422 3245 
C 544 3790 915 4058 1306 4058 
C 1862 4058 2227 3617 2227 3035 
C 2227 2479 1901 2000 1536 1584 
L 262 146 
L 262 0 
L 2515 0 
L 2669 989 
z
" transform="scale(0.015625)"/>
       </defs>
       <use xlink:href="#CMR17-32" transform="scale(0.996264)"/>
       <use xlink:href="#CMR17-30" transform="translate(45.690477 0) scale(0.996264)"/>
       <use xlink:href="#CMR17-30" transform="translate(91.380954 0) scale(0.996264)"/>
      </g>
     </g>
    </g>
    <g id="ytick_5">
     <g id="line2d_13">
      <path d="M 69.793325 205.240005 
L 914.930094 205.240005 
" clip-path="url(#p681a93542a)" style="fill: none; stroke: #ffffff; stroke-width: 0.8; stroke-linecap: round"/>
     </g>
     <g id="text_14">
      <!-- $\mathdefault{250}$ -->
      <g style="fill: #262626" transform="translate(39.381364 210.774799) scale(0.16 -0.16)">
       <use xlink:href="#CMR17-32" transform="scale(0.996264)"/>
       <use xlink:href="#CMR17-35" transform="translate(45.690477 0) scale(0.996264)"/>
       <use xlink:href="#CMR17-30" transform="translate(91.380954 0) scale(0.996264)"/>
      </g>
     </g>
    </g>
    <g id="ytick_6">
     <g id="line2d_14">
      <path d="M 69.793325 137.662107 
L 914.930094 137.662107 
" clip-path="url(#p681a93542a)" style="fill: none; stroke: #ffffff; stroke-width: 0.8; stroke-linecap: round"/>
     </g>
     <g id="text_15">
      <!-- $\mathdefault{300}$ -->
      <g style="fill: #262626" transform="translate(39.381364 143.196901) scale(0.16 -0.16)">
       <use xlink:href="#CMR17-33" transform="scale(0.996264)"/>
       <use xlink:href="#CMR17-30" transform="translate(45.690477 0) scale(0.996264)"/>
       <use xlink:href="#CMR17-30" transform="translate(91.380954 0) scale(0.996264)"/>
      </g>
     </g>
    </g>
    <g id="ytick_7">
     <g id="line2d_15">
      <path d="M 69.793325 70.084209 
L 914.930094 70.084209 
" clip-path="url(#p681a93542a)" style="fill: none; stroke: #ffffff; stroke-width: 0.8; stroke-linecap: round"/>
     </g>
     <g id="text_16">
      <!-- $\mathdefault{350}$ -->
      <g style="fill: #262626" transform="translate(39.381364 75.619003) scale(0.16 -0.16)">
       <use xlink:href="#CMR17-33" transform="scale(0.996264)"/>
       <use xlink:href="#CMR17-35" transform="translate(45.690477 0) scale(0.996264)"/>
       <use xlink:href="#CMR17-30" transform="translate(91.380954 0) scale(0.996264)"/>
      </g>
     </g>
    </g>
    <g id="text_17">
     <!-- total_throughput -->
     <g style="fill: #262626" transform="translate(31.8933 325.910711) rotate(-90) scale(0.18 -0.18)">
      <defs>
       <path id="CMSS17-6f" d="M 2829 1356 
C 2829 2176 2221 2816 1504 2816 
C 768 2816 173 2157 173 1356 
C 173 544 787 -64 1498 -64 
C 2227 -64 2829 563 2829 1356 
z
M 1504 337 
C 1050 337 659 709 659 1408 
C 659 2151 1114 2427 1498 2427 
C 1914 2427 2342 2126 2342 1408 
C 2342 683 1926 337 1504 337 
z
" transform="scale(0.015625)"/>
       <path id="CMSS17-6c" d="M 947 4416 
L 474 4416 
L 474 0 
L 947 0 
L 947 4416 
z
" transform="scale(0.015625)"/>
       <path id="CMSS17-72" d="M 954 1363 
C 954 1965 1395 2368 1958 2368 
L 1958 2789 
C 1549 2789 1165 2585 934 2253 
L 934 2758 
L 480 2758 
L 480 0 
L 954 0 
L 954 1363 
z
" transform="scale(0.015625)"/>
       <path id="CMSS17-75" d="M 2618 2739 
L 2131 2739 
L 2131 972 
C 2131 498 1786 306 1421 306 
C 998 306 960 447 960 709 
L 960 2739 
L 474 2739 
L 474 678 
C 474 179 646 -64 1088 -64 
C 1306 -64 1798 -13 2144 306 
L 2144 0 
L 2618 0 
L 2618 2739 
z
" transform="scale(0.015625)"/>
       <path id="CMSS17-67" d="M 2848 2808 
C 2483 2808 2170 2738 1914 2617 
C 1702 2777 1485 2808 1338 2808 
C 781 2808 358 2349 358 1814 
C 358 1468 550 1207 563 1195 
C 448 1035 384 863 384 672 
C 384 448 474 289 544 200 
C 211 -3 166 -314 166 -435 
C 166 -898 749 -1280 1498 -1280 
C 2253 -1280 2835 -898 2835 -428 
C 2835 448 1856 448 1587 448 
L 1069 448 
C 973 448 717 448 717 791 
C 717 921 774 1004 781 1010 
C 877 940 1075 832 1338 832 
C 1869 832 2310 1278 2310 1827 
C 2310 2132 2170 2355 2112 2432 
L 2131 2432 
C 2150 2432 2419 2432 2515 2432 
C 2720 2432 2739 2429 2918 2419 
L 2848 2808 
z
M 1338 1182 
C 1120 1182 813 1315 813 1823 
C 813 2375 1165 2464 1331 2464 
C 1549 2464 1856 2331 1856 1823 
C 1856 1271 1504 1182 1338 1182 
z
M 1581 -10 
C 1734 -10 2381 -10 2381 -442 
C 2381 -714 1984 -929 1504 -929 
C 1018 -929 621 -720 621 -435 
C 621 -403 621 -10 1062 -10 
L 1581 -10 
z
" transform="scale(0.015625)"/>
       <path id="CMSS17-70" d="M 966 333 
C 1178 129 1466 -5 1773 -5 
C 2368 -5 2880 603 2880 1412 
C 2880 2159 2496 2816 1946 2816 
C 1626 2816 1242 2702 954 2472 
L 954 2765 
L 480 2765 
L 480 -1216 
L 966 -1216 
L 966 333 
z
M 966 2100 
C 1018 2176 1235 2415 1587 2415 
C 2035 2415 2394 1960 2394 1412 
C 2394 787 1958 384 1530 384 
C 1402 384 1267 415 1139 523 
C 966 674 966 768 966 857 
L 966 2100 
z
" transform="scale(0.015625)"/>
      </defs>
      <use xlink:href="#CMSS17-74" transform="scale(0.996264)"/>
      <use xlink:href="#CMSS17-6f" transform="translate(33.831567 0) scale(0.996264)"/>
      <use xlink:href="#CMSS17-74" transform="translate(80.67519 0) scale(0.996264)"/>
      <use xlink:href="#CMSS17-61" transform="translate(114.506757 0) scale(0.996264)"/>
      <use xlink:href="#CMSS17-6c" transform="translate(159.428677 0) scale(0.996264)"/>
      <use xlink:href="#CMSS17-74" transform="translate(215.336896 0) scale(0.996264)"/>
      <use xlink:href="#CMSS17-68" transform="translate(249.168463 0) scale(0.996264)"/>
      <use xlink:href="#CMSS17-72" transform="translate(297.373406 0) scale(0.996264)"/>
      <use xlink:href="#CMSS17-6f" transform="translate(329.283178 0) scale(0.996264)"/>
      <use xlink:href="#CMSS17-75" transform="translate(376.126802 0) scale(0.996264)"/>
      <use xlink:href="#CMSS17-67" transform="translate(424.331745 0) scale(0.996264)"/>
      <use xlink:href="#CMSS17-68" transform="translate(471.175368 0) scale(0.996264)"/>
      <use xlink:href="#CMSS17-70" transform="translate(519.380312 0) scale(0.996264)"/>
      <use xlink:href="#CMSS17-75" transform="translate(567.585255 0) scale(0.996264)"/>
      <use xlink:href="#CMSS17-74" transform="translate(615.790198 0) scale(0.996264)"/>
      <path d="M 187.230412 0 
L 215.336896 0 
L 215.336896 0.3985 
L 187.230412 0.3985 
L 187.230412 0 
z
"/>
     </g>
    </g>
   </g>
   <g id="PathCollection_1">
    <defs>
     <path id="C0_0_9c2ddc660b" d="M 0 6.123724 
C 1.624031 6.123724 3.181764 5.47849 4.330127 4.330127 
C 5.47849 3.181764 6.123724 1.624031 6.123724 -0 
C 6.123724 -1.624031 5.47849 -3.181764 4.330127 -4.330127 
C 3.181764 -5.47849 1.624031 -6.123724 0 -6.123724 
C -1.624031 -6.123724 -3.181764 -5.47849 -4.330127 -4.330127 
C -5.47849 -3.181764 -6.123724 -1.624031 -6.123724 0 
C -6.123724 1.624031 -5.47849 3.181764 -4.330127 4.330127 
C -3.181764 5.47849 -1.624031 6.123724 0 6.123724 
z
"/>
    </defs>
    <g clip-path="url(#p681a93542a)">
     <use xlink:href="#C0_0_9c2ddc660b" x="602.119731" y="411.091656" style="fill: #393b79; stroke: #ffffff; stroke-width: 0.48"/>
    </g>
    <g clip-path="url(#p681a93542a)">
     <use xlink:href="#C0_0_9c2ddc660b" x="108.208633" y="393.00836" style="fill: #5254a3; stroke: #ffffff; stroke-width: 0.48"/>
    </g>
    <g clip-path="url(#p681a93542a)">
     <use xlink:href="#C0_0_9c2ddc660b" x="547.24072" y="425.949971" style="fill: #9c9ede; stroke: #ffffff; stroke-width: 0.48"/>
    </g>
    <g clip-path="url(#p681a93542a)">
     <use xlink:href="#C0_0_9c2ddc660b" x="437.482699" y="272.900495" style="fill: #8ca252; stroke: #ffffff; stroke-width: 0.48"/>
    </g>
    <g clip-path="url(#p681a93542a)">
     <use xlink:href="#C0_0_9c2ddc660b" x="163.087644" y="355.878259" style="fill: #b5cf6b; stroke: #ffffff; stroke-width: 0.48"/>
    </g>
    <g clip-path="url(#p681a93542a)">
     <use xlink:href="#C0_0_9c2ddc660b" x="217.966655" y="413.845426" style="fill: #8c6d31; stroke: #ffffff; stroke-width: 0.48"/>
    </g>
    <g clip-path="url(#p681a93542a)">
     <use xlink:href="#C0_0_9c2ddc660b" x="163.087644" y="324.602125" style="fill: #9c9ede; stroke: #ffffff; stroke-width: 0.48"/>
    </g>
    <g clip-path="url(#p681a93542a)">
     <use xlink:href="#C0_0_9c2ddc660b" x="547.24072" y="442.762078" style="fill: #b5cf6b; stroke: #ffffff; stroke-width: 0.48"/>
    </g>
    <g clip-path="url(#p681a93542a)">
     <use xlink:href="#C0_0_9c2ddc660b" x="217.966655" y="397.635947" style="fill: #e7ba52; stroke: #ffffff; stroke-width: 0.48"/>
    </g>
    <g clip-path="url(#p681a93542a)">
     <use xlink:href="#C0_0_9c2ddc660b" x="602.119731" y="377.957421" style="fill: #e7cb94; stroke: #ffffff; stroke-width: 0.48"/>
    </g>
    <g clip-path="url(#p681a93542a)">
     <use xlink:href="#C0_0_9c2ddc660b" x="327.724677" y="447.875884" style="fill: #5254a3; stroke: #ffffff; stroke-width: 0.48"/>
    </g>
    <g clip-path="url(#p681a93542a)">
     <use xlink:href="#C0_0_9c2ddc660b" x="547.24072" y="402.426694" style="fill: #393b79; stroke: #ffffff; stroke-width: 0.48"/>
    </g>
    <g clip-path="url(#p681a93542a)">
     <use xlink:href="#C0_0_9c2ddc660b" x="163.087644" y="215.184123" style="fill: #e7cb94; stroke: #ffffff; stroke-width: 0.48"/>
    </g>
    <g clip-path="url(#p681a93542a)">
     <use xlink:href="#C0_0_9c2ddc660b" x="711.877753" y="478.030058" style="fill: #8c6d31; stroke: #ffffff; stroke-width: 0.48"/>
    </g>
    <g clip-path="url(#p681a93542a)">
     <use xlink:href="#C0_0_9c2ddc660b" x="766.756764" y="487.649846" style="fill: #5254a3; stroke: #ffffff; stroke-width: 0.48"/>
    </g>
    <g clip-path="url(#p681a93542a)">
     <use xlink:href="#C0_0_9c2ddc660b" x="602.119731" y="433.165789" style="fill: #9c9ede; stroke: #ffffff; stroke-width: 0.48"/>
    </g>
    <g clip-path="url(#p681a93542a)">
     <use xlink:href="#C0_0_9c2ddc660b" x="711.877753" y="469.840677" style="fill: #e7ba52; stroke: #ffffff; stroke-width: 0.48"/>
    </g>
    <g clip-path="url(#p681a93542a)">
     <use xlink:href="#C0_0_9c2ddc660b" x="602.119731" y="448.95049" style="fill: #b5cf6b; stroke: #ffffff; stroke-width: 0.48"/>
    </g>
    <g clip-path="url(#p681a93542a)">
     <use xlink:href="#C0_0_9c2ddc660b" x="163.087644" y="280.856775" style="fill: #393b79; stroke: #ffffff; stroke-width: 0.48"/>
    </g>
    <g clip-path="url(#p681a93542a)">
     <use xlink:href="#C0_0_9c2ddc660b" x="547.24072" y="367.131881" style="fill: #e7cb94; stroke: #ffffff; stroke-width: 0.48"/>
    </g>
    <g clip-path="url(#p681a93542a)">
     <use xlink:href="#C0_0_9c2ddc660b" x="437.482699" y="340.536971" style="fill: #e7cb94; stroke: #ffffff; stroke-width: 0.48"/>
    </g>
    <g clip-path="url(#p681a93542a)">
     <use xlink:href="#C0_0_9c2ddc660b" x="437.482699" y="381.144435" style="fill: #393b79; stroke: #ffffff; stroke-width: 0.48"/>
    </g>
    <g clip-path="url(#p681a93542a)">
     <use xlink:href="#C0_0_9c2ddc660b" x="602.119731" y="322.708906" style="fill: #8ca252; stroke: #ffffff; stroke-width: 0.48"/>
    </g>
    <g clip-path="url(#p681a93542a)">
     <use xlink:href="#C0_0_9c2ddc660b" x="327.724677" y="423.950488" style="fill: #e7ba52; stroke: #ffffff; stroke-width: 0.48"/>
    </g>
    <g clip-path="url(#p681a93542a)">
     <use xlink:href="#C0_0_9c2ddc660b" x="437.482699" y="427.563576" style="fill: #b5cf6b; stroke: #ffffff; stroke-width: 0.48"/>
    </g>
    <g clip-path="url(#p681a93542a)">
     <use xlink:href="#C0_0_9c2ddc660b" x="163.087644" y="105.729812" style="fill: #8ca252; stroke: #ffffff; stroke-width: 0.48"/>
    </g>
    <g clip-path="url(#p681a93542a)">
     <use xlink:href="#C0_0_9c2ddc660b" x="272.845666" y="426.736496" style="fill: #8c6d31; stroke: #ffffff; stroke-width: 0.48"/>
    </g>
    <g clip-path="url(#p681a93542a)">
     <use xlink:href="#C0_0_9c2ddc660b" x="272.845666" y="412.144806" style="fill: #e7ba52; stroke: #ffffff; stroke-width: 0.48"/>
    </g>
    <g clip-path="url(#p681a93542a)">
     <use xlink:href="#C0_0_9c2ddc660b" x="327.724677" y="437.243551" style="fill: #8c6d31; stroke: #ffffff; stroke-width: 0.48"/>
    </g>
    <g clip-path="url(#p681a93542a)">
     <use xlink:href="#C0_0_9c2ddc660b" x="547.24072" y="308.283468" style="fill: #8ca252; stroke: #ffffff; stroke-width: 0.48"/>
    </g>
    <g clip-path="url(#p681a93542a)">
     <use xlink:href="#C0_0_9c2ddc660b" x="437.482699" y="408.243451" style="fill: #9c9ede; stroke: #ffffff; stroke-width: 0.48"/>
    </g>
    <g clip-path="url(#p681a93542a)">
     <use xlink:href="#C0_0_9c2ddc660b" x="711.877753" y="396.01437" style="fill: #e7cb94; stroke: #ffffff; stroke-width: 0.48"/>
    </g>
    <g clip-path="url(#p681a93542a)">
     <use xlink:href="#C0_0_9c2ddc660b" x="272.845666" y="193.171358" style="fill: #8ca252; stroke: #ffffff; stroke-width: 0.48"/>
    </g>
    <g clip-path="url(#p681a93542a)">
     <use xlink:href="#C0_0_9c2ddc660b" x="217.966655" y="376.795192" style="fill: #b5cf6b; stroke: #ffffff; stroke-width: 0.48"/>
    </g>
    <g clip-path="url(#p681a93542a)">
     <use xlink:href="#C0_0_9c2ddc660b" x="547.24072" y="455.377631" style="fill: #e7ba52; stroke: #ffffff; stroke-width: 0.48"/>
    </g>
    <g clip-path="url(#p681a93542a)">
     <use xlink:href="#C0_0_9c2ddc660b" x="163.087644" y="397.57837" style="fill: #8c6d31; stroke: #ffffff; stroke-width: 0.48"/>
    </g>
    <g clip-path="url(#p681a93542a)">
     <use xlink:href="#C0_0_9c2ddc660b" x="217.966655" y="349.008685" style="fill: #9c9ede; stroke: #ffffff; stroke-width: 0.48"/>
    </g>
    <g clip-path="url(#p681a93542a)">
     <use xlink:href="#C0_0_9c2ddc660b" x="327.724677" y="224.586114" style="fill: #8ca252; stroke: #ffffff; stroke-width: 0.48"/>
    </g>
    <g clip-path="url(#p681a93542a)">
     <use xlink:href="#C0_0_9c2ddc660b" x="163.087644" y="379.326705" style="fill: #e7ba52; stroke: #ffffff; stroke-width: 0.48"/>
    </g>
    <g clip-path="url(#p681a93542a)">
     <use xlink:href="#C0_0_9c2ddc660b" x="547.24072" y="465.1756" style="fill: #8c6d31; stroke: #ffffff; stroke-width: 0.48"/>
    </g>
    <g clip-path="url(#p681a93542a)">
     <use xlink:href="#C0_0_9c2ddc660b" x="217.966655" y="426.80616" style="fill: #5254a3; stroke: #ffffff; stroke-width: 0.48"/>
    </g>
    <g clip-path="url(#p681a93542a)">
     <use xlink:href="#C0_0_9c2ddc660b" x="711.877753" y="425.532743" style="fill: #393b79; stroke: #ffffff; stroke-width: 0.48"/>
    </g>
    <g clip-path="url(#p681a93542a)">
     <use xlink:href="#C0_0_9c2ddc660b" x="821.635775" y="490.405456" style="fill: #5254a3; stroke: #ffffff; stroke-width: 0.48"/>
    </g>
    <g clip-path="url(#p681a93542a)">
     <use xlink:href="#C0_0_9c2ddc660b" x="656.998742" y="481.186555" style="fill: #5254a3; stroke: #ffffff; stroke-width: 0.48"/>
    </g>
    <g clip-path="url(#p681a93542a)">
     <use xlink:href="#C0_0_9c2ddc660b" x="217.966655" y="251.786949" style="fill: #e7cb94; stroke: #ffffff; stroke-width: 0.48"/>
    </g>
    <g clip-path="url(#p681a93542a)">
     <use xlink:href="#C0_0_9c2ddc660b" x="602.119731" y="460.793261" style="fill: #e7ba52; stroke: #ffffff; stroke-width: 0.48"/>
    </g>
    <g clip-path="url(#p681a93542a)">
     <use xlink:href="#C0_0_9c2ddc660b" x="711.877753" y="459.274053" style="fill: #b5cf6b; stroke: #ffffff; stroke-width: 0.48"/>
    </g>
    <g clip-path="url(#p681a93542a)">
     <use xlink:href="#C0_0_9c2ddc660b" x="602.119731" y="469.988037" style="fill: #8c6d31; stroke: #ffffff; stroke-width: 0.48"/>
    </g>
    <g clip-path="url(#p681a93542a)">
     <use xlink:href="#C0_0_9c2ddc660b" x="711.877753" y="445.220156" style="fill: #9c9ede; stroke: #ffffff; stroke-width: 0.48"/>
    </g>
    <g clip-path="url(#p681a93542a)">
     <use xlink:href="#C0_0_9c2ddc660b" x="217.966655" y="310.099768" style="fill: #393b79; stroke: #ffffff; stroke-width: 0.48"/>
    </g>
    <g clip-path="url(#p681a93542a)">
     <use xlink:href="#C0_0_9c2ddc660b" x="272.845666" y="280.752776" style="fill: #e7cb94; stroke: #ffffff; stroke-width: 0.48"/>
    </g>
    <g clip-path="url(#p681a93542a)">
     <use xlink:href="#C0_0_9c2ddc660b" x="711.877753" y="346.803596" style="fill: #8ca252; stroke: #ffffff; stroke-width: 0.48"/>
    </g>
    <g clip-path="url(#p681a93542a)">
     <use xlink:href="#C0_0_9c2ddc660b" x="327.724677" y="352.181618" style="fill: #393b79; stroke: #ffffff; stroke-width: 0.48"/>
    </g>
    <g clip-path="url(#p681a93542a)">
     <use xlink:href="#C0_0_9c2ddc660b" x="876.514786" y="492.903682" style="fill: #5254a3; stroke: #ffffff; stroke-width: 0.48"/>
    </g>
    <g clip-path="url(#p681a93542a)">
     <use xlink:href="#C0_0_9c2ddc660b" x="327.724677" y="304.33382" style="fill: #e7cb94; stroke: #ffffff; stroke-width: 0.48"/>
    </g>
    <g clip-path="url(#p681a93542a)">
     <use xlink:href="#C0_0_9c2ddc660b" x="711.877753" y="484.594272" style="fill: #5254a3; stroke: #ffffff; stroke-width: 0.48"/>
    </g>
    <g clip-path="url(#p681a93542a)">
     <use xlink:href="#C0_0_9c2ddc660b" x="163.087644" y="412.165483" style="fill: #5254a3; stroke: #ffffff; stroke-width: 0.48"/>
    </g>
    <g clip-path="url(#p681a93542a)">
     <use xlink:href="#C0_0_9c2ddc660b" x="272.845666" y="333.305742" style="fill: #393b79; stroke: #ffffff; stroke-width: 0.48"/>
    </g>
    <g clip-path="url(#p681a93542a)">
     <use xlink:href="#C0_0_9c2ddc660b" x="437.482699" y="453.354494" style="fill: #8c6d31; stroke: #ffffff; stroke-width: 0.48"/>
    </g>
    <g clip-path="url(#p681a93542a)">
     <use xlink:href="#C0_0_9c2ddc660b" x="217.966655" y="154.51448" style="fill: #8ca252; stroke: #ffffff; stroke-width: 0.48"/>
    </g>
    <g clip-path="url(#p681a93542a)">
     <use xlink:href="#C0_0_9c2ddc660b" x="327.724677" y="384.081021" style="fill: #9c9ede; stroke: #ffffff; stroke-width: 0.48"/>
    </g>
    <g clip-path="url(#p681a93542a)">
     <use xlink:href="#C0_0_9c2ddc660b" x="272.845666" y="393.372996" style="fill: #b5cf6b; stroke: #ffffff; stroke-width: 0.48"/>
    </g>
    <g clip-path="url(#p681a93542a)">
     <use xlink:href="#C0_0_9c2ddc660b" x="272.845666" y="368.352192" style="fill: #9c9ede; stroke: #ffffff; stroke-width: 0.48"/>
    </g>
    <g clip-path="url(#p681a93542a)">
     <use xlink:href="#C0_0_9c2ddc660b" x="437.482699" y="442.071618" style="fill: #e7ba52; stroke: #ffffff; stroke-width: 0.48"/>
    </g>
    <g clip-path="url(#p681a93542a)">
     <use xlink:href="#C0_0_9c2ddc660b" x="327.724677" y="406.875062" style="fill: #b5cf6b; stroke: #ffffff; stroke-width: 0.48"/>
    </g>
    <g clip-path="url(#p681a93542a)">
     <use xlink:href="#C0_0_9c2ddc660b" x="547.24072" y="473.026713" style="fill: #5254a3; stroke: #ffffff; stroke-width: 0.48"/>
    </g>
    <g clip-path="url(#p681a93542a)">
     <use xlink:href="#C0_0_9c2ddc660b" x="602.119731" y="477.356553" style="fill: #5254a3; stroke: #ffffff; stroke-width: 0.48"/>
    </g>
    <g clip-path="url(#p681a93542a)">
     <use xlink:href="#C0_0_9c2ddc660b" x="492.36171" y="291.82337" style="fill: #8ca252; stroke: #ffffff; stroke-width: 0.48"/>
    </g>
    <g clip-path="url(#p681a93542a)">
     <use xlink:href="#C0_0_9c2ddc660b" x="876.514786" y="374.433255" style="fill: #8ca252; stroke: #ffffff; stroke-width: 0.48"/>
    </g>
    <g clip-path="url(#p681a93542a)">
     <use xlink:href="#C0_0_9c2ddc660b" x="382.603688" y="433.766266" style="fill: #e7ba52; stroke: #ffffff; stroke-width: 0.48"/>
    </g>
    <g clip-path="url(#p681a93542a)">
     <use xlink:href="#C0_0_9c2ddc660b" x="766.756764" y="473.655303" style="fill: #e7ba52; stroke: #ffffff; stroke-width: 0.48"/>
    </g>
    <g clip-path="url(#p681a93542a)">
     <use xlink:href="#C0_0_9c2ddc660b" x="766.756764" y="481.424014" style="fill: #8c6d31; stroke: #ffffff; stroke-width: 0.48"/>
    </g>
    <g clip-path="url(#p681a93542a)">
     <use xlink:href="#C0_0_9c2ddc660b" x="382.603688" y="445.973262" style="fill: #8c6d31; stroke: #ffffff; stroke-width: 0.48"/>
    </g>
    <g clip-path="url(#p681a93542a)">
     <use xlink:href="#C0_0_9c2ddc660b" x="108.208633" y="376.29164" style="fill: #8c6d31; stroke: #ffffff; stroke-width: 0.48"/>
    </g>
    <g clip-path="url(#p681a93542a)">
     <use xlink:href="#C0_0_9c2ddc660b" x="656.998742" y="474.255892" style="fill: #8c6d31; stroke: #ffffff; stroke-width: 0.48"/>
    </g>
    <g clip-path="url(#p681a93542a)">
     <use xlink:href="#C0_0_9c2ddc660b" x="876.514786" y="471.143855" style="fill: #b5cf6b; stroke: #ffffff; stroke-width: 0.48"/>
    </g>
    <g clip-path="url(#p681a93542a)">
     <use xlink:href="#C0_0_9c2ddc660b" x="492.36171" y="354.763596" style="fill: #e7cb94; stroke: #ffffff; stroke-width: 0.48"/>
    </g>
    <g clip-path="url(#p681a93542a)">
     <use xlink:href="#C0_0_9c2ddc660b" x="656.998742" y="465.575684" style="fill: #e7ba52; stroke: #ffffff; stroke-width: 0.48"/>
    </g>
    <g clip-path="url(#p681a93542a)">
     <use xlink:href="#C0_0_9c2ddc660b" x="108.208633" y="355.386178" style="fill: #e7ba52; stroke: #ffffff; stroke-width: 0.48"/>
    </g>
    <g clip-path="url(#p681a93542a)">
     <use xlink:href="#C0_0_9c2ddc660b" x="876.514786" y="459.042985" style="fill: #9c9ede; stroke: #ffffff; stroke-width: 0.48"/>
    </g>
    <g clip-path="url(#p681a93542a)">
     <use xlink:href="#C0_0_9c2ddc660b" x="492.36171" y="392.545736" style="fill: #393b79; stroke: #ffffff; stroke-width: 0.48"/>
    </g>
    <g clip-path="url(#p681a93542a)">
     <use xlink:href="#C0_0_9c2ddc660b" x="492.36171" y="435.700884" style="fill: #b5cf6b; stroke: #ffffff; stroke-width: 0.48"/>
    </g>
    <g clip-path="url(#p681a93542a)">
     <use xlink:href="#C0_0_9c2ddc660b" x="876.514786" y="416.751629" style="fill: #e7cb94; stroke: #ffffff; stroke-width: 0.48"/>
    </g>
    <g clip-path="url(#p681a93542a)">
     <use xlink:href="#C0_0_9c2ddc660b" x="821.635775" y="477.090693" style="fill: #e7ba52; stroke: #ffffff; stroke-width: 0.48"/>
    </g>
    <g clip-path="url(#p681a93542a)">
     <use xlink:href="#C0_0_9c2ddc660b" x="492.36171" y="417.726751" style="fill: #9c9ede; stroke: #ffffff; stroke-width: 0.48"/>
    </g>
    <g clip-path="url(#p681a93542a)">
     <use xlink:href="#C0_0_9c2ddc660b" x="876.514786" y="442.135185" style="fill: #393b79; stroke: #ffffff; stroke-width: 0.48"/>
    </g>
    <g clip-path="url(#p681a93542a)">
     <use xlink:href="#C0_0_9c2ddc660b" x="821.635775" y="484.487433" style="fill: #8c6d31; stroke: #ffffff; stroke-width: 0.48"/>
    </g>
    <g clip-path="url(#p681a93542a)">
     <use xlink:href="#C0_0_9c2ddc660b" x="492.36171" y="468.076582" style="fill: #5254a3; stroke: #ffffff; stroke-width: 0.48"/>
    </g>
    <g clip-path="url(#p681a93542a)">
     <use xlink:href="#C0_0_9c2ddc660b" x="437.482699" y="462.379948" style="fill: #5254a3; stroke: #ffffff; stroke-width: 0.48"/>
    </g>
    <g clip-path="url(#p681a93542a)">
     <use xlink:href="#C0_0_9c2ddc660b" x="382.603688" y="367.874684" style="fill: #393b79; stroke: #ffffff; stroke-width: 0.48"/>
    </g>
    <g clip-path="url(#p681a93542a)">
     <use xlink:href="#C0_0_9c2ddc660b" x="766.756764" y="431.639694" style="fill: #393b79; stroke: #ffffff; stroke-width: 0.48"/>
    </g>
    <g clip-path="url(#p681a93542a)">
     <use xlink:href="#C0_0_9c2ddc660b" x="272.845666" y="438.418051" style="fill: #5254a3; stroke: #ffffff; stroke-width: 0.48"/>
    </g>
    <g clip-path="url(#p681a93542a)">
     <use xlink:href="#C0_0_9c2ddc660b" x="766.756764" y="403.635339" style="fill: #e7cb94; stroke: #ffffff; stroke-width: 0.48"/>
    </g>
    <g clip-path="url(#p681a93542a)">
     <use xlink:href="#C0_0_9c2ddc660b" x="382.603688" y="323.950441" style="fill: #e7cb94; stroke: #ffffff; stroke-width: 0.48"/>
    </g>
    <g clip-path="url(#p681a93542a)">
     <use xlink:href="#C0_0_9c2ddc660b" x="821.635775" y="366.156959" style="fill: #8ca252; stroke: #ffffff; stroke-width: 0.48"/>
    </g>
    <g clip-path="url(#p681a93542a)">
     <use xlink:href="#C0_0_9c2ddc660b" x="656.998742" y="335.449767" style="fill: #8ca252; stroke: #ffffff; stroke-width: 0.48"/>
    </g>
    <g clip-path="url(#p681a93542a)">
     <use xlink:href="#C0_0_9c2ddc660b" x="108.208633" y="41.98589" style="fill: #8ca252; stroke: #ffffff; stroke-width: 0.48"/>
    </g>
    <g clip-path="url(#p681a93542a)">
     <use xlink:href="#C0_0_9c2ddc660b" x="382.603688" y="397.158852" style="fill: #9c9ede; stroke: #ffffff; stroke-width: 0.48"/>
    </g>
    <g clip-path="url(#p681a93542a)">
     <use xlink:href="#C0_0_9c2ddc660b" x="766.756764" y="450.312073" style="fill: #9c9ede; stroke: #ffffff; stroke-width: 0.48"/>
    </g>
    <g clip-path="url(#p681a93542a)">
     <use xlink:href="#C0_0_9c2ddc660b" x="766.756764" y="463.638398" style="fill: #b5cf6b; stroke: #ffffff; stroke-width: 0.48"/>
    </g>
    <g clip-path="url(#p681a93542a)">
     <use xlink:href="#C0_0_9c2ddc660b" x="382.603688" y="418.088601" style="fill: #b5cf6b; stroke: #ffffff; stroke-width: 0.48"/>
    </g>
    <g clip-path="url(#p681a93542a)">
     <use xlink:href="#C0_0_9c2ddc660b" x="876.514786" y="487.256806" style="fill: #8c6d31; stroke: #ffffff; stroke-width: 0.48"/>
    </g>
    <g clip-path="url(#p681a93542a)">
     <use xlink:href="#C0_0_9c2ddc660b" x="108.208633" y="328.519081" style="fill: #b5cf6b; stroke: #ffffff; stroke-width: 0.48"/>
    </g>
    <g clip-path="url(#p681a93542a)">
     <use xlink:href="#C0_0_9c2ddc660b" x="656.998742" y="454.413974" style="fill: #b5cf6b; stroke: #ffffff; stroke-width: 0.48"/>
    </g>
    <g clip-path="url(#p681a93542a)">
     <use xlink:href="#C0_0_9c2ddc660b" x="821.635775" y="437.143988" style="fill: #393b79; stroke: #ffffff; stroke-width: 0.48"/>
    </g>
    <g clip-path="url(#p681a93542a)">
     <use xlink:href="#C0_0_9c2ddc660b" x="876.514786" y="480.206456" style="fill: #e7ba52; stroke: #ffffff; stroke-width: 0.48"/>
    </g>
    <g clip-path="url(#p681a93542a)">
     <use xlink:href="#C0_0_9c2ddc660b" x="656.998742" y="439.541776" style="fill: #9c9ede; stroke: #ffffff; stroke-width: 0.48"/>
    </g>
    <g clip-path="url(#p681a93542a)">
     <use xlink:href="#C0_0_9c2ddc660b" x="821.635775" y="410.511692" style="fill: #e7cb94; stroke: #ffffff; stroke-width: 0.48"/>
    </g>
    <g clip-path="url(#p681a93542a)">
     <use xlink:href="#C0_0_9c2ddc660b" x="766.756764" y="356.975391" style="fill: #8ca252; stroke: #ffffff; stroke-width: 0.48"/>
    </g>
    <g clip-path="url(#p681a93542a)">
     <use xlink:href="#C0_0_9c2ddc660b" x="108.208633" y="292.713414" style="fill: #9c9ede; stroke: #ffffff; stroke-width: 0.48"/>
    </g>
    <g clip-path="url(#p681a93542a)">
     <use xlink:href="#C0_0_9c2ddc660b" x="382.603688" y="250.764582" style="fill: #8ca252; stroke: #ffffff; stroke-width: 0.48"/>
    </g>
    <g clip-path="url(#p681a93542a)">
     <use xlink:href="#C0_0_9c2ddc660b" x="108.208633" y="167.350029" style="fill: #e7cb94; stroke: #ffffff; stroke-width: 0.48"/>
    </g>
    <g clip-path="url(#p681a93542a)">
     <use xlink:href="#C0_0_9c2ddc660b" x="821.635775" y="454.885063" style="fill: #9c9ede; stroke: #ffffff; stroke-width: 0.48"/>
    </g>
    <g clip-path="url(#p681a93542a)">
     <use xlink:href="#C0_0_9c2ddc660b" x="656.998742" y="387.513555" style="fill: #e7cb94; stroke: #ffffff; stroke-width: 0.48"/>
    </g>
    <g clip-path="url(#p681a93542a)">
     <use xlink:href="#C0_0_9c2ddc660b" x="492.36171" y="459.684259" style="fill: #8c6d31; stroke: #ffffff; stroke-width: 0.48"/>
    </g>
    <g clip-path="url(#p681a93542a)">
     <use xlink:href="#C0_0_9c2ddc660b" x="382.603688" y="455.735494" style="fill: #5254a3; stroke: #ffffff; stroke-width: 0.48"/>
    </g>
    <g clip-path="url(#p681a93542a)">
     <use xlink:href="#C0_0_9c2ddc660b" x="821.635775" y="467.571386" style="fill: #b5cf6b; stroke: #ffffff; stroke-width: 0.48"/>
    </g>
    <g clip-path="url(#p681a93542a)">
     <use xlink:href="#C0_0_9c2ddc660b" x="656.998742" y="418.719832" style="fill: #393b79; stroke: #ffffff; stroke-width: 0.48"/>
    </g>
    <g clip-path="url(#p681a93542a)">
     <use xlink:href="#C0_0_9c2ddc660b" x="108.208633" y="242.583957" style="fill: #393b79; stroke: #ffffff; stroke-width: 0.48"/>
    </g>
    <g clip-path="url(#p681a93542a)">
     <use xlink:href="#C0_0_9c2ddc660b" x="492.36171" y="449.1918" style="fill: #e7ba52; stroke: #ffffff; stroke-width: 0.48"/>
    </g>
   </g>
   <g id="line2d_16"/>
   <g id="line2d_17"/>
   <g id="line2d_18"/>
   <g id="line2d_19"/>
   <g id="line2d_20"/>
   <g id="line2d_21"/>
   <g id="line2d_22"/>
   <g id="line2d_23"/>
   <g id="patch_3">
    <path d="M 69.793325 515.449571 
L 69.793325 19.44 
" style="fill: none; stroke: #ffffff; stroke-width: 0.8; stroke-linejoin: miter; stroke-linecap: square"/>
   </g>
   <g id="patch_4">
    <path d="M 914.930094 515.449571 
L 914.930094 19.44 
" style="fill: none; stroke: #ffffff; stroke-width: 0.8; stroke-linejoin: miter; stroke-linecap: square"/>
   </g>
   <g id="patch_5">
    <path d="M 69.793325 515.449571 
L 914.930094 515.449571 
" style="fill: none; stroke: #ffffff; stroke-width: 0.8; stroke-linejoin: miter; stroke-linecap: square"/>
   </g>
   <g id="patch_6">
    <path d="M 69.793325 19.44 
L 914.930094 19.44 
" style="fill: none; stroke: #ffffff; stroke-width: 0.8; stroke-linejoin: miter; stroke-linecap: square"/>
   </g>
   <g id="legend_1">
    <g id="patch_7">
     <path d="M 969.786932 234.544513 
L 1057.366838 234.544513 
Q 1060.966838 234.544513 1060.966838 230.944513 
L 1060.966838 32.04 
Q 1060.966838 28.44 1057.366838 28.44 
L 969.786932 28.44 
Q 966.186932 28.44 966.186932 32.04 
L 966.186932 230.944513 
Q 966.186932 234.544513 969.786932 234.544513 
z
" style="fill: #eaeaf2; opacity: 0.8; stroke: #cccccc; stroke-linejoin: miter"/>
    </g>
    <g id="line2d_24">
     <defs>
      <path id="m37eed4be77" d="M 0 3 
C 0.795609 3 1.55874 2.683901 2.12132 2.12132 
C 2.683901 1.55874 3 0.795609 3 0 
C 3 -0.795609 2.683901 -1.55874 2.12132 -2.12132 
C 1.55874 -2.683901 0.795609 -3 0 -3 
C -0.795609 -3 -1.55874 -2.683901 -2.12132 -2.12132 
C -2.683901 -1.55874 -3 -0.795609 -3 0 
C -3 0.795609 -2.683901 1.55874 -2.12132 2.12132 
C -1.55874 2.683901 -0.795609 3 0 3 
z
" style="stroke: #ffffff; stroke-width: 0.48"/>
     </defs>
     <g>
      <use xlink:href="#m37eed4be77" x="991.386932" y="41.94" style="fill: #8ca252; stroke: #ffffff; stroke-width: 0.48"/>
     </g>
    </g>
    <g id="text_18">
     <!-- 0.03 -->
     <g style="fill: #262626" transform="translate(1023.786932 48.24) scale(0.18 -0.18)">
      <defs>
       <path id="CMSS17-30" d="M 2758 2044 
C 2758 2405 2752 3077 2490 3596 
C 2227 4096 1805 4229 1504 4229 
C 1069 4229 698 3975 506 3570 
C 301 3146 243 2709 243 2044 
C 243 1589 262 1031 493 543 
C 755 5 1197 -128 1498 -128 
C 1894 -128 2278 81 2496 518 
C 2720 974 2758 1474 2758 2044 
z
M 1498 261 
C 1011 261 864 811 819 995 
C 742 1310 730 1614 730 2114 
C 730 2506 730 2948 851 3297 
C 998 3701 1254 3840 1498 3840 
C 1971 3840 2125 3372 2176 3208 
C 2272 2873 2272 2481 2272 2114 
C 2272 1526 2272 261 1498 261 
z
" transform="scale(0.015625)"/>
       <path id="CMSS17-2e" d="M 1088 510 
L 576 510 
L 576 0 
L 1088 0 
L 1088 510 
z
" transform="scale(0.015625)"/>
       <path id="CMSS17-33" d="M 1005 2025 
L 1440 2025 
C 2042 2025 2214 1507 2214 1146 
C 2214 653 1933 267 1472 267 
C 1114 267 608 444 320 912 
C 275 691 275 678 250 526 
C 550 88 1037 -128 1485 -128 
C 2214 -128 2752 473 2752 1138 
C 2752 1638 2400 2057 1920 2215 
C 2304 2424 2586 2816 2586 3273 
C 2586 3805 2093 4229 1491 4229 
C 941 4229 512 3892 333 3530 
C 378 3468 493 3284 550 3189 
C 691 3562 1056 3840 1485 3840 
C 1843 3840 2080 3607 2080 3271 
C 2080 2923 1856 2543 1478 2455 
C 1453 2455 1056 2417 1005 2411 
L 1005 2025 
z
" transform="scale(0.015625)"/>
      </defs>
      <use xlink:href="#CMSS17-30" transform="scale(0.996264)"/>
      <use xlink:href="#CMSS17-2e" transform="translate(46.843624 0) scale(0.996264)"/>
      <use xlink:href="#CMSS17-30" transform="translate(72.867828 0) scale(0.996264)"/>
      <use xlink:href="#CMSS17-33" transform="translate(119.711452 0) scale(0.996264)"/>
     </g>
    </g>
    <g id="line2d_25">
     <defs>
      <path id="mace36410e2" d="M 0 3 
C 0.795609 3 1.55874 2.683901 2.12132 2.12132 
C 2.683901 1.55874 3 0.795609 3 0 
C 3 -0.795609 2.683901 -1.55874 2.12132 -2.12132 
C 1.55874 -2.683901 0.795609 -3 0 -3 
C -0.795609 -3 -1.55874 -2.683901 -2.12132 -2.12132 
C -2.683901 -1.55874 -3 -0.795609 -3 0 
C -3 0.795609 -2.683901 1.55874 -2.12132 2.12132 
C -1.55874 2.683901 -0.795609 3 0 3 
z
" style="stroke: #ffffff; stroke-width: 0.48"/>
     </defs>
     <g>
      <use xlink:href="#mace36410e2" x="991.386932" y="67.028064" style="fill: #e7cb94; stroke: #ffffff; stroke-width: 0.48"/>
     </g>
    </g>
    <g id="text_19">
     <!-- 0.04 -->
     <g style="fill: #262626" transform="translate(1023.786932 73.328064) scale(0.18 -0.18)">
      <defs>
       <path id="CMSS17-34" d="M 2253 1088 
L 2835 1088 
L 2835 1477 
L 2253 1477 
L 2253 4192 
L 1690 4192 
L 166 1477 
L 166 1088 
L 1747 1088 
L 1747 0 
L 2253 0 
L 2253 1088 
z
M 659 1477 
C 1030 2127 1766 3439 1766 3885 
L 1766 1477 
L 659 1477 
z
" transform="scale(0.015625)"/>
      </defs>
      <use xlink:href="#CMSS17-30" transform="scale(0.996264)"/>
      <use xlink:href="#CMSS17-2e" transform="translate(46.843624 0) scale(0.996264)"/>
      <use xlink:href="#CMSS17-30" transform="translate(72.867828 0) scale(0.996264)"/>
      <use xlink:href="#CMSS17-34" transform="translate(119.711452 0) scale(0.996264)"/>
     </g>
    </g>
    <g id="line2d_26">
     <defs>
      <path id="m8717da162b" d="M 0 3 
C 0.795609 3 1.55874 2.683901 2.12132 2.12132 
C 2.683901 1.55874 3 0.795609 3 0 
C 3 -0.795609 2.683901 -1.55874 2.12132 -2.12132 
C 1.55874 -2.683901 0.795609 -3 0 -3 
C -0.795609 -3 -1.55874 -2.683901 -2.12132 -2.12132 
C -2.683901 -1.55874 -3 -0.795609 -3 0 
C -3 0.795609 -2.683901 1.55874 -2.12132 2.12132 
C -1.55874 2.683901 -0.795609 3 0 3 
z
" style="stroke: #ffffff; stroke-width: 0.48"/>
     </defs>
     <g>
      <use xlink:href="#m8717da162b" x="991.386932" y="92.116128" style="fill: #393b79; stroke: #ffffff; stroke-width: 0.48"/>
     </g>
    </g>
    <g id="text_20">
     <!-- 0.05 -->
     <g style="fill: #262626" transform="translate(1023.786932 98.416128) scale(0.18 -0.18)">
      <defs>
       <path id="CMSS17-35" d="M 934 3752 
L 2502 3752 
L 2502 4160 
L 467 4160 
L 467 1781 
L 896 1781 
C 1011 2046 1248 2240 1555 2240 
C 1843 2240 2163 1989 2163 1266 
C 2163 493 1709 267 1376 267 
C 966 267 589 512 422 851 
L 218 499 
C 512 49 992 -128 1376 -128 
C 2118 -128 2701 497 2701 1253 
C 2701 2030 2182 2629 1562 2629 
C 1338 2629 1120 2553 934 2399 
L 934 3752 
z
" transform="scale(0.015625)"/>
      </defs>
      <use xlink:href="#CMSS17-30" transform="scale(0.996264)"/>
      <use xlink:href="#CMSS17-2e" transform="translate(46.843624 0) scale(0.996264)"/>
      <use xlink:href="#CMSS17-30" transform="translate(72.867828 0) scale(0.996264)"/>
      <use xlink:href="#CMSS17-35" transform="translate(119.711452 0) scale(0.996264)"/>
     </g>
    </g>
    <g id="line2d_27">
     <defs>
      <path id="m2940e1dd25" d="M 0 3 
C 0.795609 3 1.55874 2.683901 2.12132 2.12132 
C 2.683901 1.55874 3 0.795609 3 0 
C 3 -0.795609 2.683901 -1.55874 2.12132 -2.12132 
C 1.55874 -2.683901 0.795609 -3 0 -3 
C -0.795609 -3 -1.55874 -2.683901 -2.12132 -2.12132 
C -2.683901 -1.55874 -3 -0.795609 -3 0 
C -3 0.795609 -2.683901 1.55874 -2.12132 2.12132 
C -1.55874 2.683901 -0.795609 3 0 3 
z
" style="stroke: #ffffff; stroke-width: 0.48"/>
     </defs>
     <g>
      <use xlink:href="#m2940e1dd25" x="991.386932" y="117.204193" style="fill: #9c9ede; stroke: #ffffff; stroke-width: 0.48"/>
     </g>
    </g>
    <g id="text_21">
     <!-- 0.06 -->
     <g style="fill: #262626" transform="translate(1023.786932 123.504193) scale(0.18 -0.18)">
      <defs>
       <path id="CMSS17-36" d="M 2496 4101 
C 2227 4210 2035 4229 1856 4229 
C 1024 4229 250 3368 250 2006 
C 250 265 986 -128 1510 -128 
C 1798 -128 2086 -39 2362 280 
C 2643 617 2752 898 2752 1389 
C 2752 2179 2362 2880 1779 2880 
C 1357 2880 992 2657 768 2376 
C 832 3258 1254 3840 1862 3840 
C 2029 3840 2246 3816 2496 3710 
L 2496 4101 
z
M 774 1369 
C 774 1420 774 1452 781 1548 
C 781 2045 1069 2491 1536 2491 
C 1837 2491 1990 2332 2106 2135 
C 2240 1886 2246 1650 2246 1388 
C 2246 1140 2246 891 2099 637 
C 1978 439 1818 267 1510 267 
C 902 267 800 1114 774 1369 
z
" transform="scale(0.015625)"/>
      </defs>
      <use xlink:href="#CMSS17-30" transform="scale(0.996264)"/>
      <use xlink:href="#CMSS17-2e" transform="translate(46.843624 0) scale(0.996264)"/>
      <use xlink:href="#CMSS17-30" transform="translate(72.867828 0) scale(0.996264)"/>
      <use xlink:href="#CMSS17-36" transform="translate(119.711452 0) scale(0.996264)"/>
     </g>
    </g>
    <g id="line2d_28">
     <defs>
      <path id="mbf590b3432" d="M 0 3 
C 0.795609 3 1.55874 2.683901 2.12132 2.12132 
C 2.683901 1.55874 3 0.795609 3 0 
C 3 -0.795609 2.683901 -1.55874 2.12132 -2.12132 
C 1.55874 -2.683901 0.795609 -3 0 -3 
C -0.795609 -3 -1.55874 -2.683901 -2.12132 -2.12132 
C -2.683901 -1.55874 -3 -0.795609 -3 0 
C -3 0.795609 -2.683901 1.55874 -2.12132 2.12132 
C -1.55874 2.683901 -0.795609 3 0 3 
z
" style="stroke: #ffffff; stroke-width: 0.48"/>
     </defs>
     <g>
      <use xlink:href="#mbf590b3432" x="991.386932" y="142.292257" style="fill: #b5cf6b; stroke: #ffffff; stroke-width: 0.48"/>
     </g>
    </g>
    <g id="text_22">
     <!-- 0.07 -->
     <g style="fill: #262626" transform="translate(1023.786932 148.592257) scale(0.18 -0.18)">
      <defs>
       <path id="CMSS17-37" d="M 1389 3776 
C 1466 3776 1542 3776 1619 3776 
L 2355 3776 
C 1440 2711 915 1365 915 -32 
L 1427 -32 
C 1427 1323 1875 2696 2752 3795 
L 2752 4209 
L 250 4209 
L 250 3776 
L 1389 3776 
z
" transform="scale(0.015625)"/>
      </defs>
      <use xlink:href="#CMSS17-30" transform="scale(0.996264)"/>
      <use xlink:href="#CMSS17-2e" transform="translate(46.843624 0) scale(0.996264)"/>
      <use xlink:href="#CMSS17-30" transform="translate(72.867828 0) scale(0.996264)"/>
      <use xlink:href="#CMSS17-37" transform="translate(119.711452 0) scale(0.996264)"/>
     </g>
    </g>
    <g id="line2d_29">
     <defs>
      <path id="m6c132db116" d="M 0 3 
C 0.795609 3 1.55874 2.683901 2.12132 2.12132 
C 2.683901 1.55874 3 0.795609 3 0 
C 3 -0.795609 2.683901 -1.55874 2.12132 -2.12132 
C 1.55874 -2.683901 0.795609 -3 0 -3 
C -0.795609 -3 -1.55874 -2.683901 -2.12132 -2.12132 
C -2.683901 -1.55874 -3 -0.795609 -3 0 
C -3 0.795609 -2.683901 1.55874 -2.12132 2.12132 
C -1.55874 2.683901 -0.795609 3 0 3 
z
" style="stroke: #ffffff; stroke-width: 0.48"/>
     </defs>
     <g>
      <use xlink:href="#m6c132db116" x="991.386932" y="167.380321" style="fill: #e7ba52; stroke: #ffffff; stroke-width: 0.48"/>
     </g>
    </g>
    <g id="text_23">
     <!-- 0.08 -->
     <g style="fill: #262626" transform="translate(1023.786932 173.680321) scale(0.18 -0.18)">
      <defs>
       <path id="CMSS17-38" d="M 1933 2222 
C 2419 2380 2669 2760 2669 3134 
C 2669 3722 2157 4229 1504 4229 
C 826 4229 333 3708 333 3144 
C 333 2780 576 2403 1069 2241 
C 442 1997 250 1512 250 1149 
C 250 446 819 -128 1498 -128 
C 2202 -128 2752 455 2752 1138 
C 2752 1557 2502 2000 1933 2222 
z
M 1504 2432 
C 1075 2432 787 2712 787 3136 
C 787 3566 1075 3840 1504 3840 
C 1901 3840 2214 3591 2214 3136 
C 2214 2687 1907 2432 1504 2432 
z
M 1504 267 
C 1139 267 749 517 749 1156 
C 749 1813 1184 2043 1498 2043 
C 1843 2043 2253 1800 2253 1156 
C 2253 491 1830 267 1504 267 
z
" transform="scale(0.015625)"/>
      </defs>
      <use xlink:href="#CMSS17-30" transform="scale(0.996264)"/>
      <use xlink:href="#CMSS17-2e" transform="translate(46.843624 0) scale(0.996264)"/>
      <use xlink:href="#CMSS17-30" transform="translate(72.867828 0) scale(0.996264)"/>
      <use xlink:href="#CMSS17-38" transform="translate(119.711452 0) scale(0.996264)"/>
     </g>
    </g>
    <g id="line2d_30">
     <defs>
      <path id="m165d7d0b83" d="M 0 3 
C 0.795609 3 1.55874 2.683901 2.12132 2.12132 
C 2.683901 1.55874 3 0.795609 3 0 
C 3 -0.795609 2.683901 -1.55874 2.12132 -2.12132 
C 1.55874 -2.683901 0.795609 -3 0 -3 
C -0.795609 -3 -1.55874 -2.683901 -2.12132 -2.12132 
C -2.683901 -1.55874 -3 -0.795609 -3 0 
C -3 0.795609 -2.683901 1.55874 -2.12132 2.12132 
C -1.55874 2.683901 -0.795609 3 0 3 
z
" style="stroke: #ffffff; stroke-width: 0.48"/>
     </defs>
     <g>
      <use xlink:href="#m165d7d0b83" x="991.386932" y="192.468385" style="fill: #8c6d31; stroke: #ffffff; stroke-width: 0.48"/>
     </g>
    </g>
    <g id="text_24">
     <!-- 0.09 -->
     <g style="fill: #262626" transform="translate(1023.786932 198.768385) scale(0.18 -0.18)">
      <defs>
       <path id="CMSS17-39" d="M 435 174 
C 614 21 845 -128 1235 -128 
C 2010 -128 2752 721 2752 2095 
C 2752 3932 1952 4229 1523 4229 
C 1094 4229 819 4041 582 3741 
C 301 3397 250 3090 250 2733 
C 250 2307 326 2045 506 1745 
C 749 1357 973 1275 1222 1275 
C 1600 1275 1978 1459 2234 1776 
C 2189 902 1798 267 1235 267 
C 1005 267 819 339 634 516 
L 435 174 
z
M 2214 2746 
C 2221 2703 2221 2622 2221 2596 
C 2221 2074 1914 1664 1466 1664 
C 1171 1664 1018 1813 902 2006 
C 762 2249 755 2485 755 2733 
C 755 2976 755 3244 934 3511 
C 1069 3703 1235 3840 1523 3840 
C 2112 3840 2208 3000 2214 2746 
z
" transform="scale(0.015625)"/>
      </defs>
      <use xlink:href="#CMSS17-30" transform="scale(0.996264)"/>
      <use xlink:href="#CMSS17-2e" transform="translate(46.843624 0) scale(0.996264)"/>
      <use xlink:href="#CMSS17-30" transform="translate(72.867828 0) scale(0.996264)"/>
      <use xlink:href="#CMSS17-39" transform="translate(119.711452 0) scale(0.996264)"/>
     </g>
    </g>
    <g id="line2d_31">
     <defs>
      <path id="md5d369b8fe" d="M 0 3 
C 0.795609 3 1.55874 2.683901 2.12132 2.12132 
C 2.683901 1.55874 3 0.795609 3 0 
C 3 -0.795609 2.683901 -1.55874 2.12132 -2.12132 
C 1.55874 -2.683901 0.795609 -3 0 -3 
C -0.795609 -3 -1.55874 -2.683901 -2.12132 -2.12132 
C -2.683901 -1.55874 -3 -0.795609 -3 0 
C -3 0.795609 -2.683901 1.55874 -2.12132 2.12132 
C -1.55874 2.683901 -0.795609 3 0 3 
z
" style="stroke: #ffffff; stroke-width: 0.48"/>
     </defs>
     <g>
      <use xlink:href="#md5d369b8fe" x="991.386932" y="217.556449" style="fill: #5254a3; stroke: #ffffff; stroke-width: 0.48"/>
     </g>
    </g>
    <g id="text_25">
     <!-- 0.1 -->
     <g style="fill: #262626" transform="translate(1023.786932 223.856449) scale(0.18 -0.18)">
      <defs>
       <path id="CMSS17-31" d="M 1818 4288 
L 1696 4288 
C 1350 3940 947 3890 538 3890 
L 538 3520 
C 723 3520 1024 3520 1325 3667 
L 1325 369 
L 570 369 
L 570 0 
L 2573 0 
L 2573 369 
L 1818 369 
L 1818 4288 
z
" transform="scale(0.015625)"/>
      </defs>
      <use xlink:href="#CMSS17-30" transform="scale(0.996264)"/>
      <use xlink:href="#CMSS17-2e" transform="translate(46.843624 0) scale(0.996264)"/>
      <use xlink:href="#CMSS17-31" transform="translate(72.867828 0) scale(0.996264)"/>
     </g>
    </g>
   </g>
  </g>
 </g>
 <defs>
  <clipPath id="p681a93542a">
   <rect x="69.793325" y="19.44" width="845.136768" height="496.009571"/>
  </clipPath>
 </defs>
</svg>
