<?xml version="1.0" encoding="utf-8" standalone="no"?>
<!DOCTYPE svg PUBLIC "-//W3C//DTD SVG 1.1//EN"
  "http://www.w3.org/Graphics/SVG/1.1/DTD/svg11.dtd">
<svg xmlns:xlink="http://www.w3.org/1999/xlink" width="1080pt" height="576pt" viewBox="0 0 1080 576" xmlns="http://www.w3.org/2000/svg" version="1.1">
 <metadata>
  <rdf:RDF xmlns:dc="http://purl.org/dc/elements/1.1/" xmlns:cc="http://creativecommons.org/ns#" xmlns:rdf="http://www.w3.org/1999/02/22-rdf-syntax-ns#">
   <cc:Work>
    <dc:type rdf:resource="http://purl.org/dc/dcmitype/StillImage"/>
    <dc:date>2024-06-24T13:23:06.061263</dc:date>
    <dc:format>image/svg+xml</dc:format>
    <dc:creator>
     <cc:Agent>
      <dc:title>Matplotlib v3.9.0, https://matplotlib.org/</dc:title>
     </cc:Agent>
    </dc:creator>
   </cc:Work>
  </rdf:RDF>
 </metadata>
 <defs>
  <style type="text/css">*{stroke-linejoin: round; stroke-linecap: butt}</style>
 </defs>
 <g id="figure_1">
  <g id="patch_1">
   <path d="M 0 576 
L 1080 576 
L 1080 0 
L 0 0 
z
" style="fill: #ffffff"/>
  </g>
  <g id="axes_1">
   <g id="patch_2">
    <path d="M 41.730582 521.153031 
L 942.34616 521.153031 
L 942.34616 51.564121 
L 41.730582 51.564121 
z
" style="fill: #eaeaf2"/>
   </g>
   <g id="matplotlib.axis_1">
    <g id="xtick_1">
     <g id="line2d_1">
      <path d="M 41.730582 521.153031 
L 41.730582 51.564121 
" clip-path="url(#p615368e8a5)" style="fill: none; stroke: #ffffff; stroke-linecap: round"/>
     </g>
     <g id="line2d_2"/>
     <g id="text_1">
      <!-- $\mathdefault{0.0}$ -->
      <g style="fill: #262626" transform="translate(33.005291 537.838907) scale(0.14 -0.14)">
       <defs>
        <path id="CMR17-30" d="M 2688 2025 
C 2688 2416 2682 3080 2413 3591 
C 2176 4039 1798 4198 1466 4198 
C 1158 4198 768 4058 525 3597 
C 269 3118 243 2524 243 2025 
C 243 1661 250 1106 448 619 
C 723 -39 1216 -128 1466 -128 
C 1760 -128 2208 -7 2470 600 
C 2662 1042 2688 1559 2688 2025 
z
M 1466 -26 
C 1056 -26 813 325 723 812 
C 653 1188 653 1738 653 2096 
C 653 2588 653 2997 736 3387 
C 858 3929 1216 4096 1466 4096 
C 1728 4096 2067 3923 2189 3400 
C 2272 3036 2278 2607 2278 2096 
C 2278 1680 2278 1169 2202 792 
C 2067 95 1690 -26 1466 -26 
z
" transform="scale(0.015625)"/>
        <path id="CMMI12-3a" d="M 1178 307 
C 1178 492 1024 619 870 619 
C 685 619 557 466 557 313 
C 557 128 710 0 864 0 
C 1050 0 1178 153 1178 307 
z
" transform="scale(0.015625)"/>
       </defs>
       <use xlink:href="#CMR17-30" transform="scale(0.996264)"/>
       <use xlink:href="#CMMI12-3a" transform="translate(45.690477 0) scale(0.996264)"/>
       <use xlink:href="#CMR17-30" transform="translate(72.787654 0) scale(0.996264)"/>
      </g>
     </g>
    </g>
    <g id="xtick_2">
     <g id="line2d_3">
      <path d="M 213.276407 521.153031 
L 213.276407 51.564121 
" clip-path="url(#p615368e8a5)" style="fill: none; stroke: #ffffff; stroke-linecap: round"/>
     </g>
     <g id="line2d_4"/>
     <g id="text_2">
      <!-- $\mathdefault{0.2}$ -->
      <g style="fill: #262626" transform="translate(204.551115 537.838907) scale(0.14 -0.14)">
       <defs>
        <path id="CMR17-32" d="M 2669 989 
L 2554 989 
C 2490 536 2438 459 2413 420 
C 2381 369 1920 369 1830 369 
L 602 369 
C 832 619 1280 1072 1824 1597 
C 2214 1967 2669 2402 2669 3035 
C 2669 3790 2067 4224 1395 4224 
C 691 4224 262 3604 262 3030 
C 262 2780 448 2748 525 2748 
C 589 2748 781 2787 781 3010 
C 781 3207 614 3264 525 3264 
C 486 3264 448 3258 422 3245 
C 544 3790 915 4058 1306 4058 
C 1862 4058 2227 3617 2227 3035 
C 2227 2479 1901 2000 1536 1584 
L 262 146 
L 262 0 
L 2515 0 
L 2669 989 
z
" transform="scale(0.015625)"/>
       </defs>
       <use xlink:href="#CMR17-30" transform="scale(0.996264)"/>
       <use xlink:href="#CMMI12-3a" transform="translate(45.690477 0) scale(0.996264)"/>
       <use xlink:href="#CMR17-32" transform="translate(72.787654 0) scale(0.996264)"/>
      </g>
     </g>
    </g>
    <g id="xtick_3">
     <g id="line2d_5">
      <path d="M 384.822231 521.153031 
L 384.822231 51.564121 
" clip-path="url(#p615368e8a5)" style="fill: none; stroke: #ffffff; stroke-linecap: round"/>
     </g>
     <g id="line2d_6"/>
     <g id="text_3">
      <!-- $\mathdefault{0.4}$ -->
      <g style="fill: #262626" transform="translate(376.09694 537.838907) scale(0.14 -0.14)">
       <defs>
        <path id="CMR17-34" d="M 2150 4122 
C 2150 4256 2144 4256 2029 4256 
L 128 1254 
L 128 1088 
L 1779 1088 
L 1779 457 
C 1779 224 1766 160 1318 160 
L 1197 160 
L 1197 0 
C 1402 0 1747 0 1965 0 
C 2182 0 2528 0 2733 0 
L 2733 160 
L 2611 160 
C 2163 160 2150 224 2150 457 
L 2150 1088 
L 2803 1088 
L 2803 1254 
L 2150 1254 
L 2150 4122 
z
M 1798 3703 
L 1798 1254 
L 256 1254 
L 1798 3703 
z
" transform="scale(0.015625)"/>
       </defs>
       <use xlink:href="#CMR17-30" transform="scale(0.996264)"/>
       <use xlink:href="#CMMI12-3a" transform="translate(45.690477 0) scale(0.996264)"/>
       <use xlink:href="#CMR17-34" transform="translate(72.787654 0) scale(0.996264)"/>
      </g>
     </g>
    </g>
    <g id="xtick_4">
     <g id="line2d_7">
      <path d="M 556.368055 521.153031 
L 556.368055 51.564121 
" clip-path="url(#p615368e8a5)" style="fill: none; stroke: #ffffff; stroke-linecap: round"/>
     </g>
     <g id="line2d_8"/>
     <g id="text_4">
      <!-- $\mathdefault{0.6}$ -->
      <g style="fill: #262626" transform="translate(547.642764 537.838907) scale(0.14 -0.14)">
       <defs>
        <path id="CMR17-36" d="M 678 2176 
C 678 3690 1395 4032 1811 4032 
C 1946 4032 2272 4009 2400 3776 
C 2298 3776 2106 3776 2106 3553 
C 2106 3381 2246 3323 2336 3323 
C 2394 3323 2566 3348 2566 3560 
C 2566 3954 2246 4179 1805 4179 
C 1043 4179 243 3390 243 1984 
C 243 253 966 -128 1478 -128 
C 2099 -128 2688 427 2688 1283 
C 2688 2081 2170 2662 1517 2662 
C 1126 2662 838 2407 678 1960 
L 678 2176 
z
M 1478 25 
C 691 25 691 1200 691 1436 
C 691 1896 909 2560 1504 2560 
C 1613 2560 1926 2560 2138 2120 
C 2253 1870 2253 1609 2253 1289 
C 2253 944 2253 690 2118 434 
C 1978 171 1773 25 1478 25 
z
" transform="scale(0.015625)"/>
       </defs>
       <use xlink:href="#CMR17-30" transform="scale(0.996264)"/>
       <use xlink:href="#CMMI12-3a" transform="translate(45.690477 0) scale(0.996264)"/>
       <use xlink:href="#CMR17-36" transform="translate(72.787654 0) scale(0.996264)"/>
      </g>
     </g>
    </g>
    <g id="xtick_5">
     <g id="line2d_9">
      <path d="M 727.91388 521.153031 
L 727.91388 51.564121 
" clip-path="url(#p615368e8a5)" style="fill: none; stroke: #ffffff; stroke-linecap: round"/>
     </g>
     <g id="line2d_10"/>
     <g id="text_5">
      <!-- $\mathdefault{0.8}$ -->
      <g style="fill: #262626" transform="translate(719.188589 537.838907) scale(0.14 -0.14)">
       <defs>
        <path id="CMR17-38" d="M 1741 2264 
C 2144 2467 2554 2773 2554 3263 
C 2554 3841 1990 4179 1472 4179 
C 890 4179 378 3759 378 3180 
C 378 3021 416 2747 666 2505 
C 730 2442 998 2251 1171 2130 
C 883 1983 211 1634 211 934 
C 211 279 838 -128 1459 -128 
C 2144 -128 2720 362 2720 1010 
C 2720 1590 2330 1857 2074 2029 
L 1741 2264 
z
M 902 2822 
C 851 2854 595 3051 595 3351 
C 595 3739 998 4032 1459 4032 
C 1965 4032 2336 3676 2336 3262 
C 2336 2669 1670 2331 1638 2331 
C 1632 2331 1626 2331 1574 2370 
L 902 2822 
z
M 2080 1519 
C 2176 1449 2483 1240 2483 851 
C 2483 381 2010 25 1472 25 
C 890 25 448 438 448 940 
C 448 1443 838 1862 1280 2060 
L 2080 1519 
z
" transform="scale(0.015625)"/>
       </defs>
       <use xlink:href="#CMR17-30" transform="scale(0.996264)"/>
       <use xlink:href="#CMMI12-3a" transform="translate(45.690477 0) scale(0.996264)"/>
       <use xlink:href="#CMR17-38" transform="translate(72.787654 0) scale(0.996264)"/>
      </g>
     </g>
    </g>
    <g id="xtick_6">
     <g id="line2d_11">
      <path d="M 899.459704 521.153031 
L 899.459704 51.564121 
" clip-path="url(#p615368e8a5)" style="fill: none; stroke: #ffffff; stroke-linecap: round"/>
     </g>
     <g id="line2d_12"/>
     <g id="text_6">
      <!-- $\mathdefault{1.0}$ -->
      <g style="fill: #262626" transform="translate(890.734413 537.838907) scale(0.14 -0.14)">
       <defs>
        <path id="CMR17-31" d="M 1702 4058 
C 1702 4192 1696 4192 1606 4192 
C 1357 3916 979 3827 621 3827 
C 602 3827 570 3827 563 3808 
C 557 3795 557 3782 557 3648 
C 755 3648 1088 3686 1344 3839 
L 1344 461 
C 1344 236 1331 160 781 160 
L 589 160 
L 589 0 
C 896 0 1216 0 1523 0 
C 1830 0 2150 0 2458 0 
L 2458 160 
L 2266 160 
C 1715 160 1702 230 1702 458 
L 1702 4058 
z
" transform="scale(0.015625)"/>
       </defs>
       <use xlink:href="#CMR17-31" transform="scale(0.996264)"/>
       <use xlink:href="#CMMI12-3a" transform="translate(45.690477 0) scale(0.996264)"/>
       <use xlink:href="#CMR17-30" transform="translate(72.787654 0) scale(0.996264)"/>
      </g>
     </g>
    </g>
    <g id="text_7">
     <!-- $x$ -->
     <g style="fill: #262626" transform="translate(487.603646 555.620524) scale(0.16 -0.16)">
      <defs>
       <path id="CMMI12-78" d="M 3034 2606 
C 2829 2567 2752 2414 2752 2293 
C 2752 2139 2874 2088 2963 2088 
C 3155 2088 3290 2254 3290 2427 
C 3290 2695 2982 2816 2714 2816 
C 2323 2816 2106 2433 2048 2312 
C 1901 2816 1504 2816 1389 2816 
C 736 2816 390 1980 390 1839 
C 390 1814 416 1782 461 1782 
C 512 1782 525 1820 538 1846 
C 755 2555 1184 2689 1370 2689 
C 1658 2689 1715 2420 1715 2267 
C 1715 2127 1677 1980 1600 1673 
L 1382 798 
C 1286 415 1101 64 762 64 
C 730 64 570 64 435 147 
C 666 192 717 383 717 460 
C 717 588 621 664 499 664 
C 346 664 179 530 179 326 
C 179 57 480 -64 755 -64 
C 1062 -64 1280 179 1414 441 
C 1517 64 1837 -64 2074 -64 
C 2726 -64 3072 773 3072 913 
C 3072 945 3046 971 3008 971 
C 2950 971 2944 939 2925 888 
C 2752 326 2381 64 2093 64 
C 1869 64 1747 230 1747 492 
C 1747 632 1773 734 1875 1156 
L 2099 2024 
C 2195 2408 2413 2689 2707 2689 
C 2720 2689 2899 2689 3034 2606 
z
" transform="scale(0.015625)"/>
      </defs>
      <use xlink:href="#CMMI12-78" transform="scale(0.996264)"/>
     </g>
    </g>
   </g>
   <g id="matplotlib.axis_2">
    <g id="ytick_1">
     <g id="line2d_13">
      <path d="M 41.730582 499.80808 
L 942.34616 499.80808 
" clip-path="url(#p615368e8a5)" style="fill: none; stroke: #ffffff; stroke-linecap: round"/>
     </g>
     <g id="line2d_14"/>
     <g id="text_8">
      <!-- $\mathdefault{0.0}$ -->
      <g style="fill: #262626" transform="translate(17.28 504.651018) scale(0.14 -0.14)">
       <use xlink:href="#CMR17-30" transform="scale(0.996264)"/>
       <use xlink:href="#CMMI12-3a" transform="translate(45.690477 0) scale(0.996264)"/>
       <use xlink:href="#CMR17-30" transform="translate(72.787654 0) scale(0.996264)"/>
      </g>
     </g>
    </g>
    <g id="ytick_2">
     <g id="line2d_15">
      <path d="M 41.730582 414.428278 
L 942.34616 414.428278 
" clip-path="url(#p615368e8a5)" style="fill: none; stroke: #ffffff; stroke-linecap: round"/>
     </g>
     <g id="line2d_16"/>
     <g id="text_9">
      <!-- $\mathdefault{0.2}$ -->
      <g style="fill: #262626" transform="translate(17.28 419.271217) scale(0.14 -0.14)">
       <use xlink:href="#CMR17-30" transform="scale(0.996264)"/>
       <use xlink:href="#CMMI12-3a" transform="translate(45.690477 0) scale(0.996264)"/>
       <use xlink:href="#CMR17-32" transform="translate(72.787654 0) scale(0.996264)"/>
      </g>
     </g>
    </g>
    <g id="ytick_3">
     <g id="line2d_17">
      <path d="M 41.730582 329.048477 
L 942.34616 329.048477 
" clip-path="url(#p615368e8a5)" style="fill: none; stroke: #ffffff; stroke-linecap: round"/>
     </g>
     <g id="line2d_18"/>
     <g id="text_10">
      <!-- $\mathdefault{0.4}$ -->
      <g style="fill: #262626" transform="translate(17.28 333.891415) scale(0.14 -0.14)">
       <use xlink:href="#CMR17-30" transform="scale(0.996264)"/>
       <use xlink:href="#CMMI12-3a" transform="translate(45.690477 0) scale(0.996264)"/>
       <use xlink:href="#CMR17-34" transform="translate(72.787654 0) scale(0.996264)"/>
      </g>
     </g>
    </g>
    <g id="ytick_4">
     <g id="line2d_19">
      <path d="M 41.730582 243.668675 
L 942.34616 243.668675 
" clip-path="url(#p615368e8a5)" style="fill: none; stroke: #ffffff; stroke-linecap: round"/>
     </g>
     <g id="line2d_20"/>
     <g id="text_11">
      <!-- $\mathdefault{0.6}$ -->
      <g style="fill: #262626" transform="translate(17.28 248.511613) scale(0.14 -0.14)">
       <use xlink:href="#CMR17-30" transform="scale(0.996264)"/>
       <use xlink:href="#CMMI12-3a" transform="translate(45.690477 0) scale(0.996264)"/>
       <use xlink:href="#CMR17-36" transform="translate(72.787654 0) scale(0.996264)"/>
      </g>
     </g>
    </g>
    <g id="ytick_5">
     <g id="line2d_21">
      <path d="M 41.730582 158.288873 
L 942.34616 158.288873 
" clip-path="url(#p615368e8a5)" style="fill: none; stroke: #ffffff; stroke-linecap: round"/>
     </g>
     <g id="line2d_22"/>
     <g id="text_12">
      <!-- $\mathdefault{0.8}$ -->
      <g style="fill: #262626" transform="translate(17.28 163.131811) scale(0.14 -0.14)">
       <use xlink:href="#CMR17-30" transform="scale(0.996264)"/>
       <use xlink:href="#CMMI12-3a" transform="translate(45.690477 0) scale(0.996264)"/>
       <use xlink:href="#CMR17-38" transform="translate(72.787654 0) scale(0.996264)"/>
      </g>
     </g>
    </g>
    <g id="ytick_6">
     <g id="line2d_23">
      <path d="M 41.730582 72.909071 
L 942.34616 72.909071 
" clip-path="url(#p615368e8a5)" style="fill: none; stroke: #ffffff; stroke-linecap: round"/>
     </g>
     <g id="line2d_24"/>
     <g id="text_13">
      <!-- $\mathdefault{1.0}$ -->
      <g style="fill: #262626" transform="translate(17.28 77.75201) scale(0.14 -0.14)">
       <use xlink:href="#CMR17-31" transform="scale(0.996264)"/>
       <use xlink:href="#CMMI12-3a" transform="translate(45.690477 0) scale(0.996264)"/>
       <use xlink:href="#CMR17-30" transform="translate(72.787654 0) scale(0.996264)"/>
      </g>
     </g>
    </g>
   </g>
   <g id="line2d_25">
    <path d="M 41.730582 72.909071 
L 50.307873 72.909071 
L 58.885164 72.909071 
L 67.462456 72.909071 
L 76.039747 72.909071 
L 84.617038 72.909071 
L 93.194329 72.909071 
L 101.771621 72.909071 
L 110.348912 72.909071 
L 118.926203 72.909071 
L 127.503494 72.909071 
L 136.080785 72.909071 
L 144.658077 72.909071 
L 153.235368 72.909071 
L 161.812659 72.909071 
L 170.38995 72.909071 
L 178.967242 72.909071 
L 187.544533 72.909071 
L 196.121824 72.909071 
L 204.699115 72.909071 
L 213.276407 72.909071 
L 221.853698 72.909071 
L 230.430989 72.909071 
L 239.00828 72.909071 
L 247.585571 72.909071 
L 256.162863 72.909071 
L 264.740154 72.909071 
L 273.317445 72.909071 
L 281.894736 72.909071 
L 290.472028 72.909071 
L 299.049319 72.909071 
L 307.62661 72.909071 
L 316.203901 72.909071 
L 324.781192 72.909071 
L 333.358484 72.909071 
L 341.935775 72.909071 
L 350.513066 72.909071 
L 359.090357 72.909071 
L 367.667649 72.909071 
L 376.24494 72.909071 
L 384.822231 72.909071 
L 393.399522 72.909071 
L 401.976813 72.909071 
L 410.554105 72.909071 
L 419.131396 72.909071 
L 427.708687 72.909071 
L 436.285978 72.909071 
L 444.86327 72.909071 
L 453.440561 72.909071 
L 462.017852 72.909071 
L 470.595143 72.909071 
L 479.172434 72.909071 
L 487.749726 72.909071 
L 496.327017 72.909071 
L 504.904308 72.909071 
L 513.481599 72.909071 
L 522.058891 72.909071 
L 530.636182 72.909071 
L 539.213473 72.909071 
L 547.790764 72.909071 
L 556.368055 72.909071 
L 564.945347 72.909071 
L 573.522638 72.909071 
L 582.099929 72.909071 
L 590.67722 72.909071 
L 599.254512 72.909071 
L 607.831803 72.909071 
L 616.409094 72.909071 
L 624.986385 72.909071 
L 633.563676 72.909071 
L 642.140968 72.909071 
L 650.718259 72.909071 
L 659.29555 72.909071 
L 667.872841 72.909071 
L 676.450133 72.909071 
L 685.027424 72.909071 
L 693.604715 72.909071 
L 702.182006 72.909071 
L 710.759297 72.909071 
L 719.336589 72.909071 
L 727.91388 72.909071 
L 736.491171 72.909071 
L 745.068462 72.909071 
L 753.645754 72.909071 
L 762.223045 72.909071 
L 770.800336 72.909071 
L 779.377627 72.909071 
L 787.954918 72.909071 
L 796.53221 72.909071 
L 805.109501 72.909071 
L 813.686792 72.909071 
L 822.264083 72.909071 
L 830.841375 72.909071 
L 839.418666 72.909071 
L 847.995957 72.909071 
L 856.573248 72.909071 
L 865.150539 72.909071 
L 873.727831 72.909071 
L 882.305122 72.909071 
L 890.882413 72.909071 
L 899.459704 72.909071 
" clip-path="url(#p615368e8a5)" style="fill: none; stroke: #393b79; stroke-width: 2; stroke-linecap: round"/>
   </g>
   <g id="line2d_26">
    <path d="M 41.730582 246.139502 
L 50.307873 244.63511 
L 58.885164 243.141184 
L 67.462456 241.657716 
L 76.039747 240.184725 
L 84.617038 238.722213 
L 93.194329 237.270187 
L 101.771621 235.828654 
L 110.348912 234.397604 
L 118.926203 232.976899 
L 127.503494 231.566376 
L 136.080785 230.166025 
L 144.658077 228.775835 
L 153.235368 227.395782 
L 161.812659 226.025858 
L 170.38995 224.66605 
L 178.967242 223.316339 
L 187.544533 221.976709 
L 196.121824 220.647144 
L 204.699115 219.327622 
L 213.276407 218.018117 
L 221.853698 216.718613 
L 230.430989 215.429089 
L 239.00828 214.149523 
L 247.585571 212.879884 
L 256.162863 211.620146 
L 264.740154 210.370267 
L 273.317445 209.130094 
L 281.894736 207.899512 
L 290.472028 206.678479 
L 299.049319 205.466965 
L 307.62661 204.26494 
L 316.203901 203.072358 
L 324.781192 201.889186 
L 333.358484 200.715387 
L 341.935775 199.550924 
L 350.513066 198.395759 
L 359.090357 197.249854 
L 367.667649 196.113163 
L 376.24494 194.985652 
L 384.822231 193.867279 
L 393.399522 192.758005 
L 401.976813 191.657785 
L 410.554105 190.566576 
L 419.131396 189.484333 
L 427.708687 188.411016 
L 436.285978 187.34658 
L 444.86327 186.290978 
L 453.440561 185.244164 
L 462.017852 184.206095 
L 470.595143 183.176715 
L 479.172434 182.155894 
L 487.749726 181.143535 
L 496.327017 180.139595 
L 504.904308 179.144025 
L 513.481599 178.156779 
L 522.058891 177.177811 
L 530.636182 176.207075 
L 539.213473 175.244526 
L 547.790764 174.290113 
L 556.368055 173.343789 
L 564.945347 172.405509 
L 573.522638 171.475221 
L 582.099929 170.552883 
L 590.67722 169.63844 
L 599.254512 168.731846 
L 607.831803 167.833053 
L 616.409094 166.942011 
L 624.986385 166.058671 
L 633.563676 165.182984 
L 642.140968 164.314901 
L 650.718259 163.454372 
L 659.29555 162.601348 
L 667.872841 161.755779 
L 676.450133 160.917614 
L 685.027424 160.086804 
L 693.604715 159.2633 
L 702.182006 158.44705 
L 710.759297 157.638005 
L 719.336589 156.836113 
L 727.91388 156.041327 
L 736.491171 155.253594 
L 745.068462 154.472865 
L 753.645754 153.69909 
L 762.223045 152.932217 
L 770.800336 152.172195 
L 779.377627 151.418955 
L 787.954918 150.672399 
L 796.53221 149.932473 
L 805.109501 149.199131 
L 813.686792 148.472322 
L 822.264083 147.752 
L 830.841375 147.038114 
L 839.418666 146.330617 
L 847.995957 145.629461 
L 856.573248 144.934599 
L 865.150539 144.245981 
L 873.727831 143.563562 
L 882.305122 142.887294 
L 890.882413 142.217129 
L 899.459704 141.553022 
" clip-path="url(#p615368e8a5)" style="fill: none; stroke: #6b6ecf; stroke-width: 2; stroke-linecap: round"/>
   </g>
   <g id="line2d_27">
    <path d="M 41.730582 343.785007 
L 50.307873 341.771345 
L 58.885164 339.764709 
L 67.462456 337.76487 
L 76.039747 335.771988 
L 84.617038 333.786358 
L 93.194329 331.808293 
L 101.771621 329.838107 
L 110.348912 327.875725 
L 118.926203 325.92106 
L 127.503494 323.974353 
L 136.080785 322.03583 
L 144.658077 320.105771 
L 153.235368 318.184416 
L 161.812659 316.271721 
L 170.38995 314.36752 
L 178.967242 312.471994 
L 187.544533 310.585334 
L 196.121824 308.70773 
L 204.699115 306.83938 
L 213.276407 304.980488 
L 221.853698 303.130949 
L 230.430989 301.290612 
L 239.00828 299.459587 
L 247.585571 297.638033 
L 256.162863 295.826076 
L 264.740154 294.023846 
L 273.317445 292.231509 
L 281.894736 290.449197 
L 290.472028 288.676834 
L 299.049319 286.914216 
L 307.62661 285.161418 
L 316.203901 283.418529 
L 324.781192 281.685652 
L 333.358484 279.962881 
L 341.935775 278.250299 
L 350.513066 276.548001 
L 359.090357 274.856078 
L 367.667649 273.174576 
L 376.24494 271.503239 
L 384.822231 269.84204 
L 393.399522 268.191018 
L 401.976813 266.550237 
L 410.554105 264.919734 
L 419.131396 263.299565 
L 427.708687 261.68978 
L 436.285978 260.090424 
L 444.86327 258.501544 
L 453.440561 256.923187 
L 462.017852 255.355388 
L 470.595143 253.798004 
L 479.172434 252.250865 
L 487.749726 250.713981 
L 496.327017 249.187373 
L 504.904308 247.671053 
L 513.481599 246.165035 
L 522.058891 244.669331 
L 530.636182 243.183957 
L 539.213473 241.708923 
L 547.790764 240.244239 
L 556.368055 238.789911 
L 564.945347 237.345943 
L 573.522638 235.912347 
L 582.099929 234.489118 
L 590.67722 233.076126 
L 599.254512 231.673196 
L 607.831803 230.280324 
L 616.409094 228.897485 
L 624.986385 227.524672 
L 633.563676 226.161871 
L 642.140968 224.809065 
L 650.718259 223.466242 
L 659.29555 222.133384 
L 667.872841 220.810472 
L 676.450133 219.497487 
L 685.027424 218.194411 
L 693.604715 216.901222 
L 702.182006 215.617899 
L 710.759297 214.344415 
L 719.336589 213.080745 
L 727.91388 211.826866 
L 736.491171 210.582748 
L 745.068462 209.348249 
L 753.645754 208.123232 
L 762.223045 206.907665 
L 770.800336 205.701512 
L 779.377627 204.504741 
L 787.954918 203.317312 
L 796.53221 202.139189 
L 805.109501 200.970339 
L 813.686792 199.810723 
L 822.264083 198.660303 
L 830.841375 197.519042 
L 839.418666 196.386899 
L 847.995957 195.263839 
L 856.573248 194.149818 
L 865.150539 193.044796 
L 873.727831 191.948734 
L 882.305122 190.861587 
L 890.882413 189.783316 
L 899.459704 188.713875 
" clip-path="url(#p615368e8a5)" style="fill: none; stroke: #637939; stroke-width: 2; stroke-linecap: round"/>
   </g>
   <g id="line2d_28">
    <path d="M 41.730582 401.604787 
L 50.307873 399.512617 
L 58.885164 397.418923 
L 67.462456 395.32377 
L 76.039747 393.227919 
L 84.617038 391.131633 
L 93.194329 389.035193 
L 101.771621 386.93933 
L 110.348912 384.844066 
L 118.926203 382.749864 
L 127.503494 380.657369 
L 136.080785 378.566536 
L 144.658077 376.477783 
L 153.235368 374.391729 
L 161.812659 372.30844 
L 170.38995 370.228101 
L 178.967242 368.151262 
L 187.544533 366.078345 
L 196.121824 364.009219 
L 204.699115 361.94425 
L 213.276407 359.883951 
L 221.853698 357.828638 
L 230.430989 355.77815 
L 239.00828 353.73282 
L 247.585571 351.693092 
L 256.162863 349.659357 
L 264.740154 347.63142 
L 273.317445 345.609486 
L 281.894736 343.593894 
L 290.472028 341.585018 
L 299.049319 339.583136 
L 307.62661 337.588003 
L 316.203901 335.599809 
L 324.781192 333.618871 
L 333.358484 331.645498 
L 341.935775 329.679985 
L 350.513066 327.722211 
L 359.090357 325.772142 
L 367.667649 323.830005 
L 376.24494 321.896044 
L 384.822231 319.970526 
L 393.399522 318.053695 
L 401.976813 316.14546 
L 410.554105 314.245685 
L 419.131396 312.354559 
L 427.708687 310.472277 
L 436.285978 308.599025 
L 444.86327 306.734999 
L 453.440561 304.880401 
L 462.017852 303.035094 
L 470.595143 301.198944 
L 479.172434 299.372086 
L 487.749726 297.554658 
L 496.327017 295.746791 
L 504.904308 293.948636 
L 513.481599 292.160324 
L 522.058891 290.381998 
L 530.636182 288.613569 
L 539.213473 286.854841 
L 547.790764 285.105899 
L 556.368055 283.366837 
L 564.945347 281.63774 
L 573.522638 279.918708 
L 582.099929 278.209834 
L 590.67722 276.511199 
L 599.254512 274.822896 
L 607.831803 273.144978 
L 616.409094 271.477169 
L 624.986385 269.819454 
L 633.563676 268.171879 
L 642.140968 266.534494 
L 650.718259 264.907355 
L 659.29555 263.290509 
L 667.872841 261.684001 
L 676.450133 260.087879 
L 685.027424 258.502191 
L 693.604715 256.926979 
L 702.182006 255.362289 
L 710.759297 253.807967 
L 719.336589 252.263846 
L 727.91388 250.729946 
L 736.491171 249.206278 
L 745.068462 247.692856 
L 753.645754 246.189697 
L 762.223045 244.696814 
L 770.800336 243.214214 
L 779.377627 241.741915 
L 787.954918 240.279919 
L 796.53221 238.828237 
L 805.109501 237.386877 
L 813.686792 235.955842 
L 822.264083 234.535132 
L 830.841375 233.124623 
L 839.418666 231.724137 
L 847.995957 230.333665 
L 856.573248 228.953194 
L 865.150539 227.582707 
L 873.727831 226.222192 
L 882.305122 224.871635 
L 890.882413 223.53102 
L 899.459704 222.20033 
" clip-path="url(#p615368e8a5)" style="fill: none; stroke: #b5cf6b; stroke-width: 2; stroke-linecap: round"/>
   </g>
   <g id="line2d_29">
    <path d="M 41.730582 437.036171 
L 50.307873 435.058607 
L 58.885164 433.06959 
L 67.462456 431.069857 
L 76.039747 429.06007 
L 84.617038 427.040805 
L 93.194329 425.012807 
L 101.771621 422.976651 
L 110.348912 420.932857 
L 118.926203 418.882207 
L 127.503494 416.825063 
L 136.080785 414.762175 
L 144.658077 412.693926 
L 153.235368 410.620995 
L 161.812659 408.543741 
L 170.38995 406.462861 
L 178.967242 404.378614 
L 187.544533 402.291752 
L 196.121824 400.202426 
L 204.699115 398.111408 
L 213.276407 396.01887 
L 221.853698 393.925348 
L 230.430989 391.831422 
L 239.00828 389.737129 
L 247.585571 387.643205 
L 256.162863 385.549924 
L 264.740154 383.457446 
L 273.317445 381.366493 
L 281.894736 379.27726 
L 290.472028 377.189888 
L 299.049319 375.104996 
L 307.62661 373.022954 
L 316.203901 370.943677 
L 324.781192 368.867695 
L 333.358484 366.795566 
L 341.935775 364.727224 
L 350.513066 362.662879 
L 359.090357 360.60301 
L 367.667649 358.548076 
L 376.24494 356.49795 
L 384.822231 354.452845 
L 393.399522 352.413171 
L 401.976813 350.379369 
L 410.554105 348.351469 
L 419.131396 346.329418 
L 427.708687 344.31357 
L 436.285978 342.304291 
L 444.86327 340.301945 
L 453.440561 338.306406 
L 462.017852 336.3177 
L 470.595143 334.336115 
L 479.172434 332.361959 
L 487.749726 330.395549 
L 496.327017 328.436979 
L 504.904308 326.486033 
L 513.481599 324.542912 
L 522.058891 322.607866 
L 530.636182 320.681145 
L 539.213473 318.763002 
L 547.790764 316.853548 
L 556.368055 314.952518 
L 564.945347 313.06005 
L 573.522638 311.176335 
L 582.099929 309.301562 
L 590.67722 307.435921 
L 599.254512 305.579607 
L 607.831803 303.732695 
L 616.409094 301.8949 
L 624.986385 300.066325 
L 633.563676 298.247104 
L 642.140968 296.437378 
L 650.718259 294.63729 
L 659.29555 292.846976 
L 667.872841 291.066573 
L 676.450133 289.296141 
L 685.027424 287.535406 
L 693.604715 285.784405 
L 702.182006 284.04323 
L 710.759297 282.311965 
L 719.336589 280.590703 
L 727.91388 278.879541 
L 736.491171 277.178565 
L 745.068462 275.487866 
L 753.645754 273.807529 
L 762.223045 272.137404 
L 770.800336 270.477329 
L 779.377627 268.827356 
L 787.954918 267.187533 
L 796.53221 265.557912 
L 805.109501 263.938543 
L 813.686792 262.329475 
L 822.264083 260.730755 
L 830.841375 259.142428 
L 839.418666 257.564538 
L 847.995957 255.997127 
L 856.573248 254.440173 
L 865.150539 252.893424 
L 873.727831 251.356867 
L 882.305122 249.830513 
L 890.882413 248.314381 
L 899.459704 246.808483 
" clip-path="url(#p615368e8a5)" style="fill: none; stroke: #8c6d31; stroke-width: 2; stroke-linecap: round"/>
   </g>
   <g id="line2d_30">
    <path d="M 41.730582 459.276685 
L 50.307873 457.493968 
L 58.885164 455.690277 
L 67.462456 453.866532 
L 76.039747 452.023659 
L 84.617038 450.16252 
L 93.194329 448.283957 
L 101.771621 446.388796 
L 110.348912 444.477845 
L 118.926203 442.551919 
L 127.503494 440.611782 
L 136.080785 438.65819 
L 144.658077 436.691899 
L 153.235368 434.713597 
L 161.812659 432.723954 
L 170.38995 430.723716 
L 178.967242 428.713569 
L 187.544533 426.694058 
L 196.121824 424.665893 
L 204.699115 422.629723 
L 213.276407 420.586014 
L 221.853698 418.53554 
L 230.430989 416.478713 
L 239.00828 414.416186 
L 247.585571 412.348455 
L 256.162863 410.276054 
L 264.740154 408.199484 
L 273.317445 406.119304 
L 281.894736 404.035891 
L 290.472028 401.949917 
L 299.049319 399.861563 
L 307.62661 397.771614 
L 316.203901 395.680163 
L 324.781192 393.587851 
L 333.358484 391.49513 
L 341.935775 389.40214 
L 350.513066 387.309621 
L 359.090357 385.217718 
L 367.667649 383.126735 
L 376.24494 381.037351 
L 384.822231 378.949656 
L 393.399522 376.86392 
L 401.976813 374.780752 
L 410.554105 372.700384 
L 419.131396 370.622853 
L 427.708687 368.548707 
L 436.285978 366.47844 
L 444.86327 364.411935 
L 453.440561 362.349495 
L 462.017852 360.291603 
L 470.595143 358.23867 
L 479.172434 356.190518 
L 487.749726 354.147434 
L 496.327017 352.10984 
L 504.904308 350.078168 
L 513.481599 348.052334 
L 522.058891 346.032391 
L 530.636182 344.018695 
L 539.213473 342.011621 
L 547.790764 340.011494 
L 556.368055 338.018124 
L 564.945347 336.031613 
L 573.522638 334.052267 
L 582.099929 332.080389 
L 590.67722 330.116283 
L 599.254512 328.159966 
L 607.831803 326.211285 
L 616.409094 324.270452 
L 624.986385 322.337719 
L 633.563676 320.413335 
L 642.140968 318.497545 
L 650.718259 316.590401 
L 659.29555 314.69167 
L 667.872841 312.801519 
L 676.450133 310.920127 
L 685.027424 309.047695 
L 693.604715 307.184418 
L 702.182006 305.330484 
L 710.759297 303.485892 
L 719.336589 301.650407 
L 727.91388 299.824153 
L 736.491171 298.007263 
L 745.068462 296.199873 
L 753.645754 294.402126 
L 762.223045 292.614164 
L 770.800336 290.836118 
L 779.377627 289.068006 
L 787.954918 287.309562 
L 796.53221 285.560848 
L 805.109501 283.821958 
L 813.686792 282.092981 
L 822.264083 280.37401 
L 830.841375 278.665134 
L 839.418666 276.966443 
L 847.995957 275.278031 
L 856.573248 273.599971 
L 865.150539 271.932066 
L 873.727831 270.274207 
L 882.305122 268.626442 
L 890.882413 266.988822 
L 899.459704 265.361396 
" clip-path="url(#p615368e8a5)" style="fill: none; stroke: #e7cb94; stroke-width: 2; stroke-linecap: round"/>
   </g>
   <g id="line2d_31">
    <path d="M 41.730582 473.474346 
L 50.307873 471.911301 
L 58.885164 470.318574 
L 67.462456 468.697276 
L 76.039747 467.048513 
L 84.617038 465.373358 
L 93.194329 463.672833 
L 101.771621 461.94795 
L 110.348912 460.199722 
L 118.926203 458.429117 
L 127.503494 456.637076 
L 136.080785 454.824536 
L 144.658077 452.992403 
L 153.235368 451.141546 
L 161.812659 449.272829 
L 170.38995 447.387099 
L 178.967242 445.485188 
L 187.544533 443.567881 
L 196.121824 441.635982 
L 204.699115 439.690224 
L 213.276407 437.731356 
L 221.853698 435.760122 
L 230.430989 433.777254 
L 239.00828 431.783424 
L 247.585571 429.779257 
L 256.162863 427.765455 
L 264.740154 425.742692 
L 273.317445 423.7115 
L 281.894736 421.672583 
L 290.472028 419.626519 
L 299.049319 417.573795 
L 307.62661 415.515141 
L 316.203901 413.450895 
L 324.781192 411.381822 
L 333.358484 409.30821 
L 341.935775 407.230821 
L 350.513066 405.149874 
L 359.090357 403.066124 
L 367.667649 400.979794 
L 376.24494 398.891471 
L 384.822231 396.801659 
L 393.399522 394.710568 
L 401.976813 392.618942 
L 410.554105 390.526843 
L 419.131396 388.434819 
L 427.708687 386.343464 
L 436.285978 384.252738 
L 444.86327 382.16325 
L 453.440561 380.075527 
L 462.017852 377.989493 
L 470.595143 375.905683 
L 479.172434 373.82468 
L 487.749726 371.746387 
L 496.327017 369.671166 
L 504.904308 367.599576 
L 513.481599 365.531882 
L 522.058891 363.467989 
L 530.636182 361.408372 
L 539.213473 359.353537 
L 547.790764 357.303611 
L 556.368055 355.258532 
L 564.945347 353.218692 
L 573.522638 351.184542 
L 582.099929 349.156381 
L 590.67722 347.133987 
L 599.254512 345.117635 
L 607.831803 343.107692 
L 616.409094 341.10452 
L 624.986385 339.108275 
L 633.563676 337.118758 
L 642.140968 335.136226 
L 650.718259 333.160981 
L 659.29555 331.193335 
L 667.872841 329.233557 
L 676.450133 327.281406 
L 685.027424 325.336981 
L 693.604715 323.400524 
L 702.182006 321.472264 
L 710.759297 319.552452 
L 719.336589 317.641326 
L 727.91388 315.738679 
L 736.491171 313.844506 
L 745.068462 311.958985 
L 753.645754 310.082311 
L 762.223045 308.21467 
L 770.800336 306.356255 
L 779.377627 304.507243 
L 787.954918 302.667413 
L 796.53221 300.836729 
L 805.109501 299.015325 
L 813.686792 297.203338 
L 822.264083 295.400913 
L 830.841375 293.608177 
L 839.418666 291.825275 
L 847.995957 290.052346 
L 856.573248 288.289194 
L 865.150539 286.535716 
L 873.727831 284.792002 
L 882.305122 283.058141 
L 890.882413 281.334225 
L 899.459704 279.620347 
" clip-path="url(#p615368e8a5)" style="fill: none; stroke: #ad494a; stroke-width: 2; stroke-linecap: round"/>
   </g>
   <g id="line2d_32">
    <path d="M 41.730582 482.642468 
L 50.307873 481.296528 
L 58.885164 479.913182 
L 67.462456 478.493724 
L 76.039747 477.039426 
L 84.617038 475.551526 
L 93.194329 474.031211 
L 101.771621 472.479666 
L 110.348912 470.898041 
L 118.926203 469.287478 
L 127.503494 467.649058 
L 136.080785 465.983852 
L 144.658077 464.292939 
L 153.235368 462.577324 
L 161.812659 460.838001 
L 170.38995 459.075965 
L 178.967242 457.292173 
L 187.544533 455.487533 
L 196.121824 453.662991 
L 204.699115 451.819419 
L 213.276407 449.957692 
L 221.853698 448.078658 
L 230.430989 446.18314 
L 239.00828 444.271949 
L 247.585571 442.34587 
L 256.162863 440.405669 
L 264.740154 438.4521 
L 273.317445 436.485925 
L 281.894736 434.507836 
L 290.472028 432.518505 
L 299.049319 430.518628 
L 307.62661 428.508921 
L 316.203901 426.489966 
L 324.781192 424.462365 
L 333.358484 422.426869 
L 341.935775 420.383902 
L 350.513066 418.334203 
L 359.090357 416.278253 
L 367.667649 414.216602 
L 376.24494 412.149853 
L 384.822231 410.078444 
L 393.399522 408.002998 
L 401.976813 405.923912 
L 410.554105 403.841683 
L 419.131396 401.7569 
L 427.708687 399.669806 
L 436.285978 397.581149 
L 444.86327 395.49102 
L 453.440561 393.40012 
L 462.017852 391.308777 
L 470.595143 389.217226 
L 479.172434 387.1262 
L 487.749726 385.035766 
L 496.327017 382.946318 
L 504.904308 380.858514 
L 513.481599 378.772372 
L 522.058891 376.688219 
L 530.636182 374.606701 
L 539.213473 372.527962 
L 547.790764 370.452091 
L 556.368055 368.379639 
L 564.945347 366.311076 
L 573.522638 364.24627 
L 582.099929 362.185556 
L 590.67722 360.129419 
L 599.254512 358.078245 
L 607.831803 356.031846 
L 616.409094 353.990529 
L 624.986385 351.954727 
L 633.563676 349.924869 
L 642.140968 347.90082 
L 650.718259 345.882676 
L 659.29555 343.870795 
L 667.872841 341.865545 
L 676.450133 339.867242 
L 685.027424 337.875675 
L 693.604715 335.89099 
L 702.182006 333.913469 
L 710.759297 331.943419 
L 719.336589 329.981159 
L 727.91388 328.02665 
L 736.491171 326.079774 
L 745.068462 324.140757 
L 753.645754 322.209848 
L 762.223045 320.287289 
L 770.800336 318.373335 
L 779.377627 316.467989 
L 787.954918 314.571048 
L 796.53221 312.682688 
L 805.109501 310.803091 
L 813.686792 308.932448 
L 822.264083 307.07096 
L 830.841375 305.218808 
L 839.418666 303.375971 
L 847.995957 301.542235 
L 856.573248 299.71772 
L 865.150539 297.902565 
L 873.727831 296.096907 
L 882.305122 294.300882 
L 890.882413 292.514633 
L 899.459704 290.7383 
" clip-path="url(#p615368e8a5)" style="fill: none; stroke: #e7969c; stroke-width: 2; stroke-linecap: round"/>
   </g>
   <g id="line2d_33">
    <path d="M 41.730582 499.80808 
L 50.307873 487.461217 
L 58.885164 486.272668 
L 67.462456 485.041463 
L 76.039747 483.769019 
L 84.617038 482.456715 
L 93.194329 481.105886 
L 101.771621 479.71785 
L 110.348912 478.293889 
L 118.926203 476.835277 
L 127.503494 475.343227 
L 136.080785 473.818944 
L 144.658077 472.263613 
L 153.235368 470.678367 
L 161.812659 469.064333 
L 170.38995 467.422607 
L 178.967242 465.754262 
L 187.544533 464.060329 
L 196.121824 462.341863 
L 204.699115 460.59982 
L 213.276407 458.835213 
L 221.853698 457.048968 
L 230.430989 455.242027 
L 239.00828 453.41531 
L 247.585571 451.569691 
L 256.162863 449.706026 
L 264.740154 447.825154 
L 273.317445 445.927924 
L 281.894736 444.015132 
L 290.472028 442.087564 
L 299.049319 440.14598 
L 307.62661 438.191128 
L 316.203901 436.223767 
L 324.781192 434.244589 
L 333.358484 432.254286 
L 341.935775 430.253494 
L 350.513066 428.242968 
L 359.090357 426.22331 
L 367.667649 424.195057 
L 376.24494 422.158993 
L 384.822231 420.115566 
L 393.399522 418.065447 
L 401.976813 416.009192 
L 410.554105 413.94725 
L 419.131396 411.880343 
L 427.708687 409.808796 
L 436.285978 407.733304 
L 444.86327 405.6542 
L 453.440561 403.572092 
L 462.017852 401.487407 
L 470.595143 399.400517 
L 479.172434 397.312109 
L 487.749726 395.222269 
L 496.327017 393.131758 
L 504.904308 391.040782 
L 513.481599 388.949689 
L 522.058891 386.859173 
L 530.636182 384.769262 
L 539.213473 382.680417 
L 547.790764 380.593268 
L 556.368055 378.507777 
L 564.945347 376.424357 
L 573.522638 374.343635 
L 582.099929 372.265654 
L 590.67722 370.190611 
L 599.254512 368.119053 
L 607.831803 366.0514 
L 616.409094 363.987495 
L 624.986385 361.927741 
L 633.563676 359.872632 
L 642.140968 357.822475 
L 650.718259 355.777091 
L 659.29555 353.736851 
L 667.872841 351.702175 
L 676.450133 349.673456 
L 685.027424 347.650525 
L 693.604715 345.633549 
L 702.182006 343.622876 
L 710.759297 341.618872 
L 719.336589 339.621815 
L 727.91388 337.631472 
L 736.491171 335.648041 
L 745.068462 333.671809 
L 753.645754 331.703096 
L 762.223045 329.742199 
L 770.800336 327.788996 
L 779.377627 325.843447 
L 787.954918 323.905784 
L 796.53221 321.976253 
L 805.109501 320.055103 
L 813.686792 318.142582 
L 822.264083 316.238625 
L 830.841375 314.343081 
L 839.418666 312.456135 
L 847.995957 310.577976 
L 856.573248 308.708789 
L 865.150539 306.848773 
L 873.727831 304.998117 
L 882.305122 303.156723 
L 890.882413 301.324434 
L 899.459704 299.501381 
" clip-path="url(#p615368e8a5)" style="fill: none; stroke: #a55194; stroke-width: 2; stroke-linecap: round"/>
   </g>
   <g id="line2d_34">
    <path d="M 41.730582 499.80808 
L 50.307873 499.80808 
L 58.885164 499.80808 
L 67.462456 499.80808 
L 76.039747 488.356175 
L 84.617038 487.202195 
L 93.194329 486.004453 
L 101.771621 484.764379 
L 110.348912 483.483375 
L 118.926203 482.162822 
L 127.503494 480.804044 
L 136.080785 479.40835 
L 144.658077 477.977033 
L 153.235368 476.511333 
L 161.812659 475.012471 
L 170.38995 473.481641 
L 178.967242 471.920017 
L 187.544533 470.328733 
L 196.121824 468.708916 
L 204.699115 467.061639 
L 213.276407 465.387979 
L 221.853698 463.68898 
L 230.430989 461.965639 
L 239.00828 460.218979 
L 247.585571 458.449942 
L 256.162863 456.659479 
L 264.740154 454.848522 
L 273.317445 453.017975 
L 281.894736 451.16871 
L 290.472028 449.301597 
L 299.049319 447.417476 
L 307.62661 445.517165 
L 316.203901 443.60147 
L 324.781192 441.671162 
L 333.358484 439.727017 
L 341.935775 437.769752 
L 350.513066 435.800109 
L 359.090357 433.818839 
L 367.667649 431.82658 
L 376.24494 429.823987 
L 384.822231 427.811759 
L 393.399522 425.79058 
L 401.976813 423.760949 
L 410.554105 421.723576 
L 419.131396 419.679048 
L 427.708687 417.627856 
L 436.285978 415.570709 
L 444.86327 413.507971 
L 453.440561 411.440402 
L 462.017852 409.36827 
L 470.595143 407.292349 
L 479.172434 405.212854 
L 487.749726 403.130539 
L 496.327017 401.045638 
L 504.904308 398.958729 
L 513.481599 396.870312 
L 522.058891 394.780577 
L 530.636182 392.69031 
L 539.213473 390.59957 
L 547.790764 388.508874 
L 556.368055 386.418829 
L 564.945347 384.329402 
L 573.522638 382.24119 
L 582.099929 380.154725 
L 590.67722 378.069937 
L 599.254512 375.987352 
L 607.831803 373.907551 
L 616.409094 371.83045 
L 624.986385 369.756397 
L 633.563676 367.685954 
L 642.140968 365.619399 
L 650.718259 363.556631 
L 659.29555 361.49811 
L 667.872841 359.444337 
L 676.450133 357.395469 
L 685.027424 355.351433 
L 693.604715 353.312624 
L 702.182006 351.279472 
L 710.759297 349.252283 
L 719.336589 347.230855 
L 727.91388 345.21545 
L 736.491171 343.206425 
L 745.068462 341.204151 
L 753.645754 339.208802 
L 762.223045 337.22016 
L 770.800336 335.238484 
L 779.377627 333.26407 
L 787.954918 331.297229 
L 796.53221 329.33824 
L 805.109501 327.386882 
L 813.686792 325.44322 
L 822.264083 323.5075 
L 830.841375 321.579953 
L 839.418666 319.660834 
L 847.995957 317.750389 
L 856.573248 315.848416 
L 865.150539 313.9549 
L 873.727831 312.070015 
L 882.305122 310.193948 
L 890.882413 308.326893 
L 899.459704 306.469042 
" clip-path="url(#p615368e8a5)" style="fill: none; stroke: #de9ed6; stroke-width: 2; stroke-linecap: round"/>
   </g>
   <g id="patch_3">
    <path d="M 41.730582 521.153031 
L 41.730582 51.564121 
" style="fill: none"/>
   </g>
   <g id="patch_4">
    <path d="M 942.34616 521.153031 
L 942.34616 51.564121 
" style="fill: none"/>
   </g>
   <g id="patch_5">
    <path d="M 41.730582 521.153031 
L 942.34616 521.153031 
" style="fill: none"/>
   </g>
   <g id="patch_6">
    <path d="M 41.730582 51.564121 
L 942.34616 51.564121 
" style="fill: none"/>
   </g>
   <g id="patch_7">
    <path d="M 470.595143 83.448441 
Q 470.595143 237.967867 470.595143 390.810242 
" style="fill: none; stroke: #000000; stroke-width: 1.5; stroke-linecap: round"/>
    <path d="M 473.795143 384.410242 
L 470.595143 390.810242 
L 467.395143 384.410242 
" style="fill: none; stroke: #000000; stroke-width: 1.5; stroke-linecap: round"/>
   </g>
   <g id="text_14">
    <!-- Time -->
    <g style="fill: #262626" transform="translate(513.481599 390.997315) scale(0.18 -0.18)">
     <defs>
      <path id="CMR17-54" d="M 3981 4326 
L 288 4326 
L 179 2918 
L 294 2918 
C 378 3976 467 4160 1453 4160 
C 1568 4160 1754 4160 1805 4154 
C 1926 4135 1926 4058 1926 3912 
L 1926 459 
C 1926 230 1907 160 1376 160 
L 1197 160 
L 1197 0 
C 1504 0 1824 0 2138 0 
C 2451 0 2771 0 3078 0 
L 3078 160 
L 2899 160 
C 2368 160 2349 230 2349 459 
L 2349 3912 
C 2349 4052 2349 4129 2464 4154 
C 2515 4160 2701 4160 2816 4160 
C 3795 4160 3891 3976 3974 2918 
L 4090 2918 
L 3981 4326 
z
" transform="scale(0.015625)"/>
      <path id="CMR17-69" d="M 992 3909 
C 992 4049 877 4170 730 4170 
C 589 4170 467 4056 467 3909 
C 467 3769 582 3648 730 3648 
C 870 3648 992 3763 992 3909 
z
M 243 2706 
L 243 2541 
C 602 2541 653 2502 653 2197 
L 653 427 
C 653 184 627 153 218 153 
L 218 -13 
C 371 0 646 0 806 0 
C 960 0 1222 0 1370 -13 
L 1370 153 
C 992 153 979 191 979 420 
L 979 2776 
L 243 2706 
z
" transform="scale(0.015625)"/>
      <path id="CMR17-6d" d="M 4326 1933 
C 4326 2252 4269 2790 3507 2790 
C 3072 2790 2771 2496 2656 2151 
L 2650 2151 
C 2573 2676 2195 2790 1837 2790 
C 1331 2790 1069 2400 973 2144 
L 966 2144 
L 966 2790 
L 211 2720 
L 211 2554 
C 589 2554 646 2515 646 2208 
L 646 428 
C 646 184 621 153 211 153 
L 211 -13 
C 365 0 646 0 813 0 
C 979 0 1267 0 1421 -13 
L 1421 153 
C 1011 153 986 178 986 428 
L 986 1658 
C 986 2247 1344 2688 1792 2688 
C 2266 2688 2317 2266 2317 1958 
L 2317 428 
C 2317 184 2291 153 1882 153 
L 1882 -13 
C 2035 0 2317 0 2483 0 
C 2650 0 2938 0 3091 -13 
L 3091 153 
C 2682 153 2656 178 2656 428 
L 2656 1658 
C 2656 2247 3014 2688 3462 2688 
C 3936 2688 3987 2266 3987 1958 
L 3987 428 
C 3987 184 3962 153 3552 153 
L 3552 -13 
C 3706 0 3987 0 4154 0 
C 4320 0 4608 0 4762 -13 
L 4762 153 
C 4352 153 4326 178 4326 428 
L 4326 1933 
z
" transform="scale(0.015625)"/>
      <path id="CMR17-65" d="M 2438 1472 
C 2464 1498 2464 1511 2464 1576 
C 2464 2238 2118 2816 1389 2816 
C 710 2816 173 2169 173 1383 
C 173 551 781 -64 1459 -64 
C 2176 -64 2458 607 2458 740 
C 2458 784 2419 784 2406 784 
C 2362 784 2355 771 2330 696 
C 2189 265 1837 51 1504 51 
C 1229 51 954 203 781 480 
C 582 803 582 1176 582 1472 
L 2438 1472 
z
M 589 1568 
C 634 2505 1126 2714 1382 2714 
C 1818 2714 2112 2297 2118 1568 
L 589 1568 
z
" transform="scale(0.015625)"/>
     </defs>
     <use xlink:href="#CMR17-54" transform="scale(0.996264)"/>
     <use xlink:href="#CMR17-69" transform="translate(66.509881 0) scale(0.996264)"/>
     <use xlink:href="#CMR17-6d" transform="translate(91.380939 0) scale(0.996264)"/>
     <use xlink:href="#CMR17-65" transform="translate(168.300529 0) scale(0.996264)"/>
    </g>
   </g>
   <g id="legend_1">
    <g id="line2d_35">
     <path d="M 954.94616 197.198434 
L 968.94616 197.198434 
L 982.94616 197.198434 
" style="fill: none; stroke: #393b79; stroke-width: 2; stroke-linecap: round"/>
    </g>
    <g id="text_15">
     <!-- t = 0.00 -->
     <g style="fill: #262626" transform="translate(994.14616 202.098434) scale(0.14 -0.14)">
      <defs>
       <path id="CMR17-74" d="M 966 2560 
L 1862 2560 
L 1862 2725 
L 966 2725 
L 966 3904 
L 851 3904 
C 838 3245 614 2668 70 2668 
L 70 2560 
L 627 2560 
L 627 771 
C 627 650 627 -64 1370 -64 
C 1747 -64 1965 306 1965 777 
L 1965 1140 
L 1850 1140 
L 1850 783 
C 1850 344 1677 51 1408 51 
C 1222 51 966 178 966 758 
L 966 2560 
z
" transform="scale(0.015625)"/>
       <path id="CMR17-3d" d="M 4115 2017 
C 4211 2017 4307 2017 4307 2125 
C 4307 2240 4198 2240 4090 2240 
L 512 2240 
C 403 2240 294 2240 294 2125 
C 294 2017 390 2017 486 2017 
L 4115 2017 
z
M 4090 896 
C 4198 896 4307 896 4307 1011 
C 4307 1119 4211 1119 4115 1119 
L 486 1119 
C 390 1119 294 1119 294 1011 
C 294 896 403 896 512 896 
L 4090 896 
z
" transform="scale(0.015625)"/>
       <path id="CMR17-2e" d="M 1062 261 
C 1062 420 934 522 800 522 
C 672 522 538 420 538 261 
C 538 102 666 0 800 0 
C 928 0 1062 102 1062 261 
z
" transform="scale(0.015625)"/>
      </defs>
      <use xlink:href="#CMR17-74" transform="scale(0.996264)"/>
      <use xlink:href="#CMR17-3d" transform="translate(65.356734 0) scale(0.996264)"/>
      <use xlink:href="#CMR17-30" transform="translate(167.147489 0) scale(0.996264)"/>
      <use xlink:href="#CMR17-2e" transform="translate(212.837966 0) scale(0.996264)"/>
      <use xlink:href="#CMR17-30" transform="translate(237.709025 0) scale(0.996264)"/>
      <use xlink:href="#CMR17-30" transform="translate(283.399502 0) scale(0.996264)"/>
     </g>
    </g>
    <g id="line2d_36">
     <path d="M 954.94616 216.710462 
L 968.94616 216.710462 
L 982.94616 216.710462 
" style="fill: none; stroke: #6b6ecf; stroke-width: 2; stroke-linecap: round"/>
    </g>
    <g id="text_16">
     <!-- t = 50.00 -->
     <g style="fill: #262626" transform="translate(994.14616 221.610462) scale(0.14 -0.14)">
      <defs>
       <path id="CMR17-35" d="M 730 3692 
C 794 3666 1056 3584 1325 3584 
C 1920 3584 2246 3911 2432 4100 
C 2432 4157 2432 4192 2394 4192 
C 2387 4192 2374 4192 2323 4163 
C 2099 4058 1837 3973 1517 3973 
C 1325 3973 1037 3999 723 4139 
C 653 4171 640 4171 634 4171 
C 602 4171 595 4164 595 4037 
L 595 2203 
C 595 2089 595 2057 659 2057 
C 691 2057 704 2070 736 2114 
C 941 2401 1222 2522 1542 2522 
C 1766 2522 2246 2382 2246 1289 
C 2246 1085 2246 715 2054 421 
C 1894 159 1645 25 1370 25 
C 947 25 518 320 403 814 
C 429 807 480 795 506 795 
C 589 795 749 840 749 1038 
C 749 1210 627 1280 506 1280 
C 358 1280 262 1190 262 1011 
C 262 454 704 -128 1382 -128 
C 2042 -128 2669 440 2669 1264 
C 2669 2030 2170 2624 1549 2624 
C 1222 2624 947 2503 730 2274 
L 730 3692 
z
" transform="scale(0.015625)"/>
      </defs>
      <use xlink:href="#CMR17-74" transform="scale(0.996264)"/>
      <use xlink:href="#CMR17-3d" transform="translate(65.356734 0) scale(0.996264)"/>
      <use xlink:href="#CMR17-35" transform="translate(167.147489 0) scale(0.996264)"/>
      <use xlink:href="#CMR17-30" transform="translate(212.837966 0) scale(0.996264)"/>
      <use xlink:href="#CMR17-2e" transform="translate(258.528443 0) scale(0.996264)"/>
      <use xlink:href="#CMR17-30" transform="translate(283.399502 0) scale(0.996264)"/>
      <use xlink:href="#CMR17-30" transform="translate(329.089979 0) scale(0.996264)"/>
     </g>
    </g>
    <g id="line2d_37">
     <path d="M 954.94616 236.222491 
L 968.94616 236.222491 
L 982.94616 236.222491 
" style="fill: none; stroke: #637939; stroke-width: 2; stroke-linecap: round"/>
    </g>
    <g id="text_17">
     <!-- t = 100.00 -->
     <g style="fill: #262626" transform="translate(994.14616 241.122491) scale(0.14 -0.14)">
      <use xlink:href="#CMR17-74" transform="scale(0.996264)"/>
      <use xlink:href="#CMR17-3d" transform="translate(65.356734 0) scale(0.996264)"/>
      <use xlink:href="#CMR17-31" transform="translate(167.147489 0) scale(0.996264)"/>
      <use xlink:href="#CMR17-30" transform="translate(212.837966 0) scale(0.996264)"/>
      <use xlink:href="#CMR17-30" transform="translate(258.528443 0) scale(0.996264)"/>
      <use xlink:href="#CMR17-2e" transform="translate(304.21892 0) scale(0.996264)"/>
      <use xlink:href="#CMR17-30" transform="translate(329.089979 0) scale(0.996264)"/>
      <use xlink:href="#CMR17-30" transform="translate(374.780456 0) scale(0.996264)"/>
     </g>
    </g>
    <g id="line2d_38">
     <path d="M 954.94616 255.734519 
L 968.94616 255.734519 
L 982.94616 255.734519 
" style="fill: none; stroke: #b5cf6b; stroke-width: 2; stroke-linecap: round"/>
    </g>
    <g id="text_18">
     <!-- t = 150.00 -->
     <g style="fill: #262626" transform="translate(994.14616 260.634519) scale(0.14 -0.14)">
      <use xlink:href="#CMR17-74" transform="scale(0.996264)"/>
      <use xlink:href="#CMR17-3d" transform="translate(65.356734 0) scale(0.996264)"/>
      <use xlink:href="#CMR17-31" transform="translate(167.147489 0) scale(0.996264)"/>
      <use xlink:href="#CMR17-35" transform="translate(212.837966 0) scale(0.996264)"/>
      <use xlink:href="#CMR17-30" transform="translate(258.528443 0) scale(0.996264)"/>
      <use xlink:href="#CMR17-2e" transform="translate(304.21892 0) scale(0.996264)"/>
      <use xlink:href="#CMR17-30" transform="translate(329.089979 0) scale(0.996264)"/>
      <use xlink:href="#CMR17-30" transform="translate(374.780456 0) scale(0.996264)"/>
     </g>
    </g>
    <g id="line2d_39">
     <path d="M 954.94616 275.246547 
L 968.94616 275.246547 
L 982.94616 275.246547 
" style="fill: none; stroke: #8c6d31; stroke-width: 2; stroke-linecap: round"/>
    </g>
    <g id="text_19">
     <!-- t = 200.00 -->
     <g style="fill: #262626" transform="translate(994.14616 280.146547) scale(0.14 -0.14)">
      <use xlink:href="#CMR17-74" transform="scale(0.996264)"/>
      <use xlink:href="#CMR17-3d" transform="translate(65.356734 0) scale(0.996264)"/>
      <use xlink:href="#CMR17-32" transform="translate(167.147489 0) scale(0.996264)"/>
      <use xlink:href="#CMR17-30" transform="translate(212.837966 0) scale(0.996264)"/>
      <use xlink:href="#CMR17-30" transform="translate(258.528443 0) scale(0.996264)"/>
      <use xlink:href="#CMR17-2e" transform="translate(304.21892 0) scale(0.996264)"/>
      <use xlink:href="#CMR17-30" transform="translate(329.089979 0) scale(0.996264)"/>
      <use xlink:href="#CMR17-30" transform="translate(374.780456 0) scale(0.996264)"/>
     </g>
    </g>
    <g id="line2d_40">
     <path d="M 954.94616 294.758576 
L 968.94616 294.758576 
L 982.94616 294.758576 
" style="fill: none; stroke: #e7cb94; stroke-width: 2; stroke-linecap: round"/>
    </g>
    <g id="text_20">
     <!-- t = 250.00 -->
     <g style="fill: #262626" transform="translate(994.14616 299.658576) scale(0.14 -0.14)">
      <use xlink:href="#CMR17-74" transform="scale(0.996264)"/>
      <use xlink:href="#CMR17-3d" transform="translate(65.356734 0) scale(0.996264)"/>
      <use xlink:href="#CMR17-32" transform="translate(167.147489 0) scale(0.996264)"/>
      <use xlink:href="#CMR17-35" transform="translate(212.837966 0) scale(0.996264)"/>
      <use xlink:href="#CMR17-30" transform="translate(258.528443 0) scale(0.996264)"/>
      <use xlink:href="#CMR17-2e" transform="translate(304.21892 0) scale(0.996264)"/>
      <use xlink:href="#CMR17-30" transform="translate(329.089979 0) scale(0.996264)"/>
      <use xlink:href="#CMR17-30" transform="translate(374.780456 0) scale(0.996264)"/>
     </g>
    </g>
    <g id="line2d_41">
     <path d="M 954.94616 314.270604 
L 968.94616 314.270604 
L 982.94616 314.270604 
" style="fill: none; stroke: #ad494a; stroke-width: 2; stroke-linecap: round"/>
    </g>
    <g id="text_21">
     <!-- t = 300.00 -->
     <g style="fill: #262626" transform="translate(994.14616 319.170604) scale(0.14 -0.14)">
      <defs>
       <path id="CMR17-33" d="M 1414 2157 
C 1984 2157 2234 1662 2234 1090 
C 2234 320 1824 25 1453 25 
C 1114 25 563 194 390 693 
C 422 680 454 680 486 680 
C 640 680 755 782 755 948 
C 755 1133 614 1216 486 1216 
C 378 1216 211 1165 211 926 
C 211 335 787 -128 1466 -128 
C 2176 -128 2720 430 2720 1085 
C 2720 1707 2208 2157 1600 2227 
C 2086 2328 2554 2756 2554 3329 
C 2554 3820 2048 4179 1472 4179 
C 890 4179 378 3829 378 3329 
C 378 3110 544 3072 627 3072 
C 762 3072 877 3155 877 3321 
C 877 3486 762 3569 627 3569 
C 602 3569 570 3569 544 3557 
C 730 3959 1235 4032 1459 4032 
C 1683 4032 2106 3925 2106 3320 
C 2106 3143 2080 2828 1862 2550 
C 1670 2304 1453 2304 1242 2284 
C 1210 2284 1062 2269 1037 2269 
C 992 2263 966 2257 966 2208 
C 966 2163 973 2157 1101 2157 
L 1414 2157 
z
" transform="scale(0.015625)"/>
      </defs>
      <use xlink:href="#CMR17-74" transform="scale(0.996264)"/>
      <use xlink:href="#CMR17-3d" transform="translate(65.356734 0) scale(0.996264)"/>
      <use xlink:href="#CMR17-33" transform="translate(167.147489 0) scale(0.996264)"/>
      <use xlink:href="#CMR17-30" transform="translate(212.837966 0) scale(0.996264)"/>
      <use xlink:href="#CMR17-30" transform="translate(258.528443 0) scale(0.996264)"/>
      <use xlink:href="#CMR17-2e" transform="translate(304.21892 0) scale(0.996264)"/>
      <use xlink:href="#CMR17-30" transform="translate(329.089979 0) scale(0.996264)"/>
      <use xlink:href="#CMR17-30" transform="translate(374.780456 0) scale(0.996264)"/>
     </g>
    </g>
    <g id="line2d_42">
     <path d="M 954.94616 333.782633 
L 968.94616 333.782633 
L 982.94616 333.782633 
" style="fill: none; stroke: #e7969c; stroke-width: 2; stroke-linecap: round"/>
    </g>
    <g id="text_22">
     <!-- t = 350.00 -->
     <g style="fill: #262626" transform="translate(994.14616 338.682633) scale(0.14 -0.14)">
      <use xlink:href="#CMR17-74" transform="scale(0.996264)"/>
      <use xlink:href="#CMR17-3d" transform="translate(65.356734 0) scale(0.996264)"/>
      <use xlink:href="#CMR17-33" transform="translate(167.147489 0) scale(0.996264)"/>
      <use xlink:href="#CMR17-35" transform="translate(212.837966 0) scale(0.996264)"/>
      <use xlink:href="#CMR17-30" transform="translate(258.528443 0) scale(0.996264)"/>
      <use xlink:href="#CMR17-2e" transform="translate(304.21892 0) scale(0.996264)"/>
      <use xlink:href="#CMR17-30" transform="translate(329.089979 0) scale(0.996264)"/>
      <use xlink:href="#CMR17-30" transform="translate(374.780456 0) scale(0.996264)"/>
     </g>
    </g>
    <g id="line2d_43">
     <path d="M 954.94616 353.294661 
L 968.94616 353.294661 
L 982.94616 353.294661 
" style="fill: none; stroke: #a55194; stroke-width: 2; stroke-linecap: round"/>
    </g>
    <g id="text_23">
     <!-- t = 400.00 -->
     <g style="fill: #262626" transform="translate(994.14616 358.194661) scale(0.14 -0.14)">
      <use xlink:href="#CMR17-74" transform="scale(0.996264)"/>
      <use xlink:href="#CMR17-3d" transform="translate(65.356734 0) scale(0.996264)"/>
      <use xlink:href="#CMR17-34" transform="translate(167.147489 0) scale(0.996264)"/>
      <use xlink:href="#CMR17-30" transform="translate(212.837966 0) scale(0.996264)"/>
      <use xlink:href="#CMR17-30" transform="translate(258.528443 0) scale(0.996264)"/>
      <use xlink:href="#CMR17-2e" transform="translate(304.21892 0) scale(0.996264)"/>
      <use xlink:href="#CMR17-30" transform="translate(329.089979 0) scale(0.996264)"/>
      <use xlink:href="#CMR17-30" transform="translate(374.780456 0) scale(0.996264)"/>
     </g>
    </g>
    <g id="line2d_44">
     <path d="M 954.94616 372.806689 
L 968.94616 372.806689 
L 982.94616 372.806689 
" style="fill: none; stroke: #de9ed6; stroke-width: 2; stroke-linecap: round"/>
    </g>
    <g id="text_24">
     <!-- t = 450.00 -->
     <g style="fill: #262626" transform="translate(994.14616 377.706689) scale(0.14 -0.14)">
      <use xlink:href="#CMR17-74" transform="scale(0.996264)"/>
      <use xlink:href="#CMR17-3d" transform="translate(65.356734 0) scale(0.996264)"/>
      <use xlink:href="#CMR17-34" transform="translate(167.147489 0) scale(0.996264)"/>
      <use xlink:href="#CMR17-35" transform="translate(212.837966 0) scale(0.996264)"/>
      <use xlink:href="#CMR17-30" transform="translate(258.528443 0) scale(0.996264)"/>
      <use xlink:href="#CMR17-2e" transform="translate(304.21892 0) scale(0.996264)"/>
      <use xlink:href="#CMR17-30" transform="translate(329.089979 0) scale(0.996264)"/>
      <use xlink:href="#CMR17-30" transform="translate(374.780456 0) scale(0.996264)"/>
     </g>
    </g>
   </g>
  </g>
  <g id="text_25">
   <!-- Permeability -->
   <g style="fill: #262626" transform="translate(491.488794 24.803515) scale(0.192 -0.192)">
    <defs>
     <path id="CMR17-50" d="M 1267 2042 
L 2291 2042 
C 3117 2042 3718 2578 3718 3184 
C 3718 3791 3130 4352 2291 4352 
L 333 4352 
L 333 4186 
C 774 4186 845 4186 845 3899 
L 845 446 
C 845 160 774 160 333 160 
L 333 0 
C 518 0 858 0 1056 0 
C 1254 0 1594 0 1779 0 
L 1779 160 
C 1338 160 1267 160 1267 446 
L 1267 2042 
z
M 1254 2176 
L 1254 3938 
C 1254 4155 1267 4186 1523 4186 
L 2170 4186 
C 2995 4186 3232 3714 3232 3184 
C 3232 2604 2950 2176 2170 2176 
L 1254 2176 
z
" transform="scale(0.015625)"/>
     <path id="CMR17-72" d="M 960 1497 
C 960 2112 1222 2688 1702 2688 
C 1747 2688 1792 2682 1837 2662 
C 1837 2662 1696 2617 1696 2452 
C 1696 2298 1818 2234 1914 2234 
C 1990 2234 2131 2279 2131 2458 
C 2131 2663 1926 2790 1709 2790 
C 1222 2790 1011 2317 947 2093 
L 941 2093 
L 941 2790 
L 198 2720 
L 198 2554 
C 576 2554 634 2515 634 2208 
L 634 428 
C 634 184 608 153 198 153 
L 198 -13 
C 352 0 646 0 813 0 
C 998 0 1325 0 1498 -13 
L 1498 153 
C 1037 153 960 153 960 440 
L 960 1497 
z
" transform="scale(0.015625)"/>
     <path id="CMR17-61" d="M 2304 1653 
C 2304 2072 2304 2294 2035 2543 
C 1798 2752 1523 2816 1306 2816 
C 800 2816 435 2407 435 1971 
C 435 1728 627 1728 666 1728 
C 749 1728 896 1778 896 1954 
C 896 2112 774 2181 666 2181 
C 640 2181 608 2174 589 2168 
C 723 2592 1069 2714 1293 2714 
C 1613 2714 1965 2429 1965 1885 
L 1965 1600 
C 1587 1600 1133 1549 774 1357 
C 371 1133 256 813 256 570 
C 256 77 832 -64 1171 -64 
C 1523 -64 1850 139 1990 511 
C 2003 233 2182 -18 2464 -18 
C 2598 -18 2938 70 2938 567 
L 2938 920 
L 2822 920 
L 2822 562 
C 2822 178 2650 128 2566 128 
C 2304 128 2304 458 2304 738 
L 2304 1653 
z
M 1965 870 
C 1965 317 1568 38 1216 38 
C 896 38 646 275 646 570 
C 646 761 730 1100 1101 1305 
C 1408 1478 1760 1504 1965 1504 
L 1965 870 
z
" transform="scale(0.015625)"/>
     <path id="CMR17-62" d="M 960 4396 
L 198 4326 
L 198 4160 
C 576 4160 634 4122 634 3817 
L 634 -13 
L 749 -13 
L 934 441 
C 1120 141 1395 -64 1766 -64 
C 2406 -64 3053 500 3053 1370 
C 3053 2188 2477 2790 1830 2790 
C 1434 2790 1152 2579 960 2330 
L 960 4396 
z
M 973 2004 
C 973 2118 973 2138 1062 2272 
C 1312 2657 1670 2688 1792 2688 
C 1984 2688 2643 2585 2643 1376 
C 2643 108 1888 38 1734 38 
C 1536 38 1248 114 1043 486 
C 973 608 973 621 973 735 
L 973 2004 
z
" transform="scale(0.015625)"/>
     <path id="CMR17-6c" d="M 979 4396 
L 218 4326 
L 218 4160 
C 595 4160 653 4122 653 3817 
L 653 426 
C 653 184 627 153 218 153 
L 218 -13 
C 371 0 653 0 813 0 
C 979 0 1261 0 1414 -13 
L 1414 153 
C 1005 153 979 178 979 426 
L 979 4396 
z
" transform="scale(0.015625)"/>
     <path id="CMR17-79" d="M 2496 2197 
C 2656 2586 2944 2586 3034 2586 
L 3034 2752 
C 2912 2752 2752 2752 2630 2752 
C 2496 2752 2285 2752 2157 2758 
L 2157 2592 
C 2400 2573 2406 2394 2406 2343 
C 2406 2280 2394 2248 2362 2171 
L 1664 449 
L 902 2306 
C 870 2382 870 2426 870 2433 
C 870 2573 1018 2586 1171 2586 
L 1171 2758 
C 1018 2752 742 2752 582 2752 
C 410 2752 205 2752 64 2758 
L 64 2586 
C 410 2586 448 2554 531 2350 
L 1485 15 
C 1197 -738 1030 -1178 627 -1178 
C 557 -1178 397 -1159 282 -1044 
C 429 -1031 493 -942 493 -833 
C 493 -725 416 -629 288 -629 
C 147 -629 77 -725 77 -840 
C 77 -1095 339 -1280 627 -1280 
C 998 -1280 1229 -922 1357 -604 
L 2496 2197 
z
" transform="scale(0.015625)"/>
    </defs>
    <use xlink:href="#CMR17-50" transform="scale(0.996264)"/>
    <use xlink:href="#CMR17-65" transform="translate(59.983847 0) scale(0.996264)"/>
    <use xlink:href="#CMR17-72" transform="translate(100.469507 0) scale(0.996264)"/>
    <use xlink:href="#CMR17-6d" transform="translate(135.750275 0) scale(0.996264)"/>
    <use xlink:href="#CMR17-65" transform="translate(212.669865 0) scale(0.996264)"/>
    <use xlink:href="#CMR17-61" transform="translate(253.155525 0) scale(0.996264)"/>
    <use xlink:href="#CMR17-62" transform="translate(298.846002 0) scale(0.996264)"/>
    <use xlink:href="#CMR17-69" transform="translate(349.741372 0) scale(0.996264)"/>
    <use xlink:href="#CMR17-6c" transform="translate(374.612431 0) scale(0.996264)"/>
    <use xlink:href="#CMR17-69" transform="translate(399.483489 0) scale(0.996264)"/>
    <use xlink:href="#CMR17-74" transform="translate(424.354548 0) scale(0.996264)"/>
    <use xlink:href="#CMR17-79" transform="translate(457.032861 0) scale(0.996264)"/>
   </g>
  </g>
 </g>
 <defs>
  <clipPath id="p615368e8a5">
   <rect x="41.730582" y="51.564121" width="900.615578" height="469.58891"/>
  </clipPath>
 </defs>
</svg>
