<?xml version="1.0" encoding="utf-8" standalone="no"?>
<!DOCTYPE svg PUBLIC "-//W3C//DTD SVG 1.1//EN"
  "http://www.w3.org/Graphics/SVG/1.1/DTD/svg11.dtd">
<svg xmlns:xlink="http://www.w3.org/1999/xlink" width="1080pt" height="576pt" viewBox="0 0 1080 576" xmlns="http://www.w3.org/2000/svg" version="1.1">
 <metadata>
  <rdf:RDF xmlns:dc="http://purl.org/dc/elements/1.1/" xmlns:cc="http://creativecommons.org/ns#" xmlns:rdf="http://www.w3.org/1999/02/22-rdf-syntax-ns#">
   <cc:Work>
    <dc:type rdf:resource="http://purl.org/dc/dcmitype/StillImage"/>
    <dc:date>2024-06-28T12:13:47.230887</dc:date>
    <dc:format>image/svg+xml</dc:format>
    <dc:creator>
     <cc:Agent>
      <dc:title>Matplotlib v3.9.0, https://matplotlib.org/</dc:title>
     </cc:Agent>
    </dc:creator>
   </cc:Work>
  </rdf:RDF>
 </metadata>
 <defs>
  <style type="text/css">*{stroke-linejoin: round; stroke-linecap: butt}</style>
 </defs>
 <g id="figure_1">
  <g id="patch_1">
   <path d="M 0 576 
L 1080 576 
L 1080 0 
L 0 0 
z
" style="fill: #ffffff"/>
  </g>
  <g id="axes_1">
   <g id="patch_2">
    <path d="M 48.559071 521.153031 
L 935.517672 521.153031 
L 935.517672 51.564121 
L 48.559071 51.564121 
z
" style="fill: #eaeaf2"/>
   </g>
   <g id="matplotlib.axis_1">
    <g id="xtick_1">
     <g id="line2d_1">
      <path d="M 48.559071 521.153031 
L 48.559071 51.564121 
" clip-path="url(#pc742bcb17c)" style="fill: none; stroke: #ffffff; stroke-linecap: round"/>
     </g>
     <g id="line2d_2"/>
     <g id="text_1">
      <!-- $\mathdefault{0.00}$ -->
      <g style="fill: #262626" transform="translate(36.419535 537.838907) scale(0.14 -0.14)">
       <defs>
        <path id="CMR17-30" d="M 2688 2025 
C 2688 2416 2682 3080 2413 3591 
C 2176 4039 1798 4198 1466 4198 
C 1158 4198 768 4058 525 3597 
C 269 3118 243 2524 243 2025 
C 243 1661 250 1106 448 619 
C 723 -39 1216 -128 1466 -128 
C 1760 -128 2208 -7 2470 600 
C 2662 1042 2688 1559 2688 2025 
z
M 1466 -26 
C 1056 -26 813 325 723 812 
C 653 1188 653 1738 653 2096 
C 653 2588 653 2997 736 3387 
C 858 3929 1216 4096 1466 4096 
C 1728 4096 2067 3923 2189 3400 
C 2272 3036 2278 2607 2278 2096 
C 2278 1680 2278 1169 2202 792 
C 2067 95 1690 -26 1466 -26 
z
" transform="scale(0.015625)"/>
        <path id="CMMI12-3a" d="M 1178 307 
C 1178 492 1024 619 870 619 
C 685 619 557 466 557 313 
C 557 128 710 0 864 0 
C 1050 0 1178 153 1178 307 
z
" transform="scale(0.015625)"/>
       </defs>
       <use xlink:href="#CMR17-30" transform="scale(0.996264)"/>
       <use xlink:href="#CMMI12-3a" transform="translate(45.690477 0) scale(0.996264)"/>
       <use xlink:href="#CMR17-30" transform="translate(72.787654 0) scale(0.996264)"/>
       <use xlink:href="#CMR17-30" transform="translate(118.478131 0) scale(0.996264)"/>
      </g>
     </g>
    </g>
    <g id="xtick_2">
     <g id="line2d_3">
      <path d="M 154.14938 521.153031 
L 154.14938 51.564121 
" clip-path="url(#pc742bcb17c)" style="fill: none; stroke: #ffffff; stroke-linecap: round"/>
     </g>
     <g id="line2d_4"/>
     <g id="text_2">
      <!-- $\mathdefault{0.25}$ -->
      <g style="fill: #262626" transform="translate(142.009845 537.838907) scale(0.14 -0.14)">
       <defs>
        <path id="CMR17-32" d="M 2669 989 
L 2554 989 
C 2490 536 2438 459 2413 420 
C 2381 369 1920 369 1830 369 
L 602 369 
C 832 619 1280 1072 1824 1597 
C 2214 1967 2669 2402 2669 3035 
C 2669 3790 2067 4224 1395 4224 
C 691 4224 262 3604 262 3030 
C 262 2780 448 2748 525 2748 
C 589 2748 781 2787 781 3010 
C 781 3207 614 3264 525 3264 
C 486 3264 448 3258 422 3245 
C 544 3790 915 4058 1306 4058 
C 1862 4058 2227 3617 2227 3035 
C 2227 2479 1901 2000 1536 1584 
L 262 146 
L 262 0 
L 2515 0 
L 2669 989 
z
" transform="scale(0.015625)"/>
        <path id="CMR17-35" d="M 730 3692 
C 794 3666 1056 3584 1325 3584 
C 1920 3584 2246 3911 2432 4100 
C 2432 4157 2432 4192 2394 4192 
C 2387 4192 2374 4192 2323 4163 
C 2099 4058 1837 3973 1517 3973 
C 1325 3973 1037 3999 723 4139 
C 653 4171 640 4171 634 4171 
C 602 4171 595 4164 595 4037 
L 595 2203 
C 595 2089 595 2057 659 2057 
C 691 2057 704 2070 736 2114 
C 941 2401 1222 2522 1542 2522 
C 1766 2522 2246 2382 2246 1289 
C 2246 1085 2246 715 2054 421 
C 1894 159 1645 25 1370 25 
C 947 25 518 320 403 814 
C 429 807 480 795 506 795 
C 589 795 749 840 749 1038 
C 749 1210 627 1280 506 1280 
C 358 1280 262 1190 262 1011 
C 262 454 704 -128 1382 -128 
C 2042 -128 2669 440 2669 1264 
C 2669 2030 2170 2624 1549 2624 
C 1222 2624 947 2503 730 2274 
L 730 3692 
z
" transform="scale(0.015625)"/>
       </defs>
       <use xlink:href="#CMR17-30" transform="scale(0.996264)"/>
       <use xlink:href="#CMMI12-3a" transform="translate(45.690477 0) scale(0.996264)"/>
       <use xlink:href="#CMR17-32" transform="translate(72.787654 0) scale(0.996264)"/>
       <use xlink:href="#CMR17-35" transform="translate(118.478131 0) scale(0.996264)"/>
      </g>
     </g>
    </g>
    <g id="xtick_3">
     <g id="line2d_5">
      <path d="M 259.73969 521.153031 
L 259.73969 51.564121 
" clip-path="url(#pc742bcb17c)" style="fill: none; stroke: #ffffff; stroke-linecap: round"/>
     </g>
     <g id="line2d_6"/>
     <g id="text_3">
      <!-- $\mathdefault{0.50}$ -->
      <g style="fill: #262626" transform="translate(247.600155 537.838907) scale(0.14 -0.14)">
       <use xlink:href="#CMR17-30" transform="scale(0.996264)"/>
       <use xlink:href="#CMMI12-3a" transform="translate(45.690477 0) scale(0.996264)"/>
       <use xlink:href="#CMR17-35" transform="translate(72.787654 0) scale(0.996264)"/>
       <use xlink:href="#CMR17-30" transform="translate(118.478131 0) scale(0.996264)"/>
      </g>
     </g>
    </g>
    <g id="xtick_4">
     <g id="line2d_7">
      <path d="M 365.33 521.153031 
L 365.33 51.564121 
" clip-path="url(#pc742bcb17c)" style="fill: none; stroke: #ffffff; stroke-linecap: round"/>
     </g>
     <g id="line2d_8"/>
     <g id="text_4">
      <!-- $\mathdefault{0.75}$ -->
      <g style="fill: #262626" transform="translate(353.190464 537.838907) scale(0.14 -0.14)">
       <defs>
        <path id="CMR17-37" d="M 2886 3941 
L 2886 4081 
L 1382 4081 
C 634 4081 621 4165 595 4288 
L 480 4288 
L 294 3094 
L 410 3094 
C 429 3215 474 3540 550 3661 
C 589 3712 1062 3712 1171 3712 
L 2579 3712 
L 1869 2661 
C 1395 1954 1069 999 1069 165 
C 1069 89 1069 -128 1299 -128 
C 1530 -128 1530 89 1530 171 
L 1530 465 
C 1530 1508 1709 2196 2003 2636 
L 2886 3941 
z
" transform="scale(0.015625)"/>
       </defs>
       <use xlink:href="#CMR17-30" transform="scale(0.996264)"/>
       <use xlink:href="#CMMI12-3a" transform="translate(45.690477 0) scale(0.996264)"/>
       <use xlink:href="#CMR17-37" transform="translate(72.787654 0) scale(0.996264)"/>
       <use xlink:href="#CMR17-35" transform="translate(118.478131 0) scale(0.996264)"/>
      </g>
     </g>
    </g>
    <g id="xtick_5">
     <g id="line2d_9">
      <path d="M 470.920309 521.153031 
L 470.920309 51.564121 
" clip-path="url(#pc742bcb17c)" style="fill: none; stroke: #ffffff; stroke-linecap: round"/>
     </g>
     <g id="line2d_10"/>
     <g id="text_5">
      <!-- $\mathdefault{1.00}$ -->
      <g style="fill: #262626" transform="translate(458.780774 537.838907) scale(0.14 -0.14)">
       <defs>
        <path id="CMR17-31" d="M 1702 4058 
C 1702 4192 1696 4192 1606 4192 
C 1357 3916 979 3827 621 3827 
C 602 3827 570 3827 563 3808 
C 557 3795 557 3782 557 3648 
C 755 3648 1088 3686 1344 3839 
L 1344 461 
C 1344 236 1331 160 781 160 
L 589 160 
L 589 0 
C 896 0 1216 0 1523 0 
C 1830 0 2150 0 2458 0 
L 2458 160 
L 2266 160 
C 1715 160 1702 230 1702 458 
L 1702 4058 
z
" transform="scale(0.015625)"/>
       </defs>
       <use xlink:href="#CMR17-31" transform="scale(0.996264)"/>
       <use xlink:href="#CMMI12-3a" transform="translate(45.690477 0) scale(0.996264)"/>
       <use xlink:href="#CMR17-30" transform="translate(72.787654 0) scale(0.996264)"/>
       <use xlink:href="#CMR17-30" transform="translate(118.478131 0) scale(0.996264)"/>
      </g>
     </g>
    </g>
    <g id="xtick_6">
     <g id="line2d_11">
      <path d="M 576.510619 521.153031 
L 576.510619 51.564121 
" clip-path="url(#pc742bcb17c)" style="fill: none; stroke: #ffffff; stroke-linecap: round"/>
     </g>
     <g id="line2d_12"/>
     <g id="text_6">
      <!-- $\mathdefault{1.25}$ -->
      <g style="fill: #262626" transform="translate(564.371084 537.838907) scale(0.14 -0.14)">
       <use xlink:href="#CMR17-31" transform="scale(0.996264)"/>
       <use xlink:href="#CMMI12-3a" transform="translate(45.690477 0) scale(0.996264)"/>
       <use xlink:href="#CMR17-32" transform="translate(72.787654 0) scale(0.996264)"/>
       <use xlink:href="#CMR17-35" transform="translate(118.478131 0) scale(0.996264)"/>
      </g>
     </g>
    </g>
    <g id="xtick_7">
     <g id="line2d_13">
      <path d="M 682.100929 521.153031 
L 682.100929 51.564121 
" clip-path="url(#pc742bcb17c)" style="fill: none; stroke: #ffffff; stroke-linecap: round"/>
     </g>
     <g id="line2d_14"/>
     <g id="text_7">
      <!-- $\mathdefault{1.50}$ -->
      <g style="fill: #262626" transform="translate(669.961393 537.838907) scale(0.14 -0.14)">
       <use xlink:href="#CMR17-31" transform="scale(0.996264)"/>
       <use xlink:href="#CMMI12-3a" transform="translate(45.690477 0) scale(0.996264)"/>
       <use xlink:href="#CMR17-35" transform="translate(72.787654 0) scale(0.996264)"/>
       <use xlink:href="#CMR17-30" transform="translate(118.478131 0) scale(0.996264)"/>
      </g>
     </g>
    </g>
    <g id="xtick_8">
     <g id="line2d_15">
      <path d="M 787.691238 521.153031 
L 787.691238 51.564121 
" clip-path="url(#pc742bcb17c)" style="fill: none; stroke: #ffffff; stroke-linecap: round"/>
     </g>
     <g id="line2d_16"/>
     <g id="text_8">
      <!-- $\mathdefault{1.75}$ -->
      <g style="fill: #262626" transform="translate(775.551703 537.838907) scale(0.14 -0.14)">
       <use xlink:href="#CMR17-31" transform="scale(0.996264)"/>
       <use xlink:href="#CMMI12-3a" transform="translate(45.690477 0) scale(0.996264)"/>
       <use xlink:href="#CMR17-37" transform="translate(72.787654 0) scale(0.996264)"/>
       <use xlink:href="#CMR17-35" transform="translate(118.478131 0) scale(0.996264)"/>
      </g>
     </g>
    </g>
    <g id="xtick_9">
     <g id="line2d_17">
      <path d="M 893.281548 521.153031 
L 893.281548 51.564121 
" clip-path="url(#pc742bcb17c)" style="fill: none; stroke: #ffffff; stroke-linecap: round"/>
     </g>
     <g id="line2d_18"/>
     <g id="text_9">
      <!-- $\mathdefault{2.00}$ -->
      <g style="fill: #262626" transform="translate(881.142013 537.838907) scale(0.14 -0.14)">
       <use xlink:href="#CMR17-32" transform="scale(0.996264)"/>
       <use xlink:href="#CMMI12-3a" transform="translate(45.690477 0) scale(0.996264)"/>
       <use xlink:href="#CMR17-30" transform="translate(72.787654 0) scale(0.996264)"/>
       <use xlink:href="#CMR17-30" transform="translate(118.478131 0) scale(0.996264)"/>
      </g>
     </g>
    </g>
    <g id="text_10">
     <!-- $x$ -->
     <g style="fill: #262626" transform="translate(487.603646 555.620524) scale(0.16 -0.16)">
      <defs>
       <path id="CMMI12-78" d="M 3034 2606 
C 2829 2567 2752 2414 2752 2293 
C 2752 2139 2874 2088 2963 2088 
C 3155 2088 3290 2254 3290 2427 
C 3290 2695 2982 2816 2714 2816 
C 2323 2816 2106 2433 2048 2312 
C 1901 2816 1504 2816 1389 2816 
C 736 2816 390 1980 390 1839 
C 390 1814 416 1782 461 1782 
C 512 1782 525 1820 538 1846 
C 755 2555 1184 2689 1370 2689 
C 1658 2689 1715 2420 1715 2267 
C 1715 2127 1677 1980 1600 1673 
L 1382 798 
C 1286 415 1101 64 762 64 
C 730 64 570 64 435 147 
C 666 192 717 383 717 460 
C 717 588 621 664 499 664 
C 346 664 179 530 179 326 
C 179 57 480 -64 755 -64 
C 1062 -64 1280 179 1414 441 
C 1517 64 1837 -64 2074 -64 
C 2726 -64 3072 773 3072 913 
C 3072 945 3046 971 3008 971 
C 2950 971 2944 939 2925 888 
C 2752 326 2381 64 2093 64 
C 1869 64 1747 230 1747 492 
C 1747 632 1773 734 1875 1156 
L 2099 2024 
C 2195 2408 2413 2689 2707 2689 
C 2720 2689 2899 2689 3034 2606 
z
" transform="scale(0.015625)"/>
      </defs>
      <use xlink:href="#CMMI12-78" transform="scale(0.996264)"/>
     </g>
    </g>
   </g>
   <g id="matplotlib.axis_2">
    <g id="ytick_1">
     <g id="line2d_19">
      <path d="M 48.559071 521.153031 
L 935.517672 521.153031 
" clip-path="url(#pc742bcb17c)" style="fill: none; stroke: #ffffff; stroke-linecap: round"/>
     </g>
     <g id="line2d_20"/>
     <g id="text_11">
      <!-- $\mathdefault{0.00}$ -->
      <g style="fill: #262626" transform="translate(17.28 525.995969) scale(0.14 -0.14)">
       <use xlink:href="#CMR17-30" transform="scale(0.996264)"/>
       <use xlink:href="#CMMI12-3a" transform="translate(45.690477 0) scale(0.996264)"/>
       <use xlink:href="#CMR17-30" transform="translate(72.787654 0) scale(0.996264)"/>
       <use xlink:href="#CMR17-30" transform="translate(118.478131 0) scale(0.996264)"/>
      </g>
     </g>
    </g>
    <g id="ytick_2">
     <g id="line2d_21">
      <path d="M 48.559071 465.263416 
L 935.517672 465.263416 
" clip-path="url(#pc742bcb17c)" style="fill: none; stroke: #ffffff; stroke-linecap: round"/>
     </g>
     <g id="line2d_22"/>
     <g id="text_12">
      <!-- $\mathdefault{0.25}$ -->
      <g style="fill: #262626" transform="translate(17.28 470.106354) scale(0.14 -0.14)">
       <use xlink:href="#CMR17-30" transform="scale(0.996264)"/>
       <use xlink:href="#CMMI12-3a" transform="translate(45.690477 0) scale(0.996264)"/>
       <use xlink:href="#CMR17-32" transform="translate(72.787654 0) scale(0.996264)"/>
       <use xlink:href="#CMR17-35" transform="translate(118.478131 0) scale(0.996264)"/>
      </g>
     </g>
    </g>
    <g id="ytick_3">
     <g id="line2d_23">
      <path d="M 48.559071 409.373801 
L 935.517672 409.373801 
" clip-path="url(#pc742bcb17c)" style="fill: none; stroke: #ffffff; stroke-linecap: round"/>
     </g>
     <g id="line2d_24"/>
     <g id="text_13">
      <!-- $\mathdefault{0.50}$ -->
      <g style="fill: #262626" transform="translate(17.28 414.216739) scale(0.14 -0.14)">
       <use xlink:href="#CMR17-30" transform="scale(0.996264)"/>
       <use xlink:href="#CMMI12-3a" transform="translate(45.690477 0) scale(0.996264)"/>
       <use xlink:href="#CMR17-35" transform="translate(72.787654 0) scale(0.996264)"/>
       <use xlink:href="#CMR17-30" transform="translate(118.478131 0) scale(0.996264)"/>
      </g>
     </g>
    </g>
    <g id="ytick_4">
     <g id="line2d_25">
      <path d="M 48.559071 353.484186 
L 935.517672 353.484186 
" clip-path="url(#pc742bcb17c)" style="fill: none; stroke: #ffffff; stroke-linecap: round"/>
     </g>
     <g id="line2d_26"/>
     <g id="text_14">
      <!-- $\mathdefault{0.75}$ -->
      <g style="fill: #262626" transform="translate(17.28 358.327124) scale(0.14 -0.14)">
       <use xlink:href="#CMR17-30" transform="scale(0.996264)"/>
       <use xlink:href="#CMMI12-3a" transform="translate(45.690477 0) scale(0.996264)"/>
       <use xlink:href="#CMR17-37" transform="translate(72.787654 0) scale(0.996264)"/>
       <use xlink:href="#CMR17-35" transform="translate(118.478131 0) scale(0.996264)"/>
      </g>
     </g>
    </g>
    <g id="ytick_5">
     <g id="line2d_27">
      <path d="M 48.559071 297.594571 
L 935.517672 297.594571 
" clip-path="url(#pc742bcb17c)" style="fill: none; stroke: #ffffff; stroke-linecap: round"/>
     </g>
     <g id="line2d_28"/>
     <g id="text_15">
      <!-- $\mathdefault{1.00}$ -->
      <g style="fill: #262626" transform="translate(17.28 302.437509) scale(0.14 -0.14)">
       <use xlink:href="#CMR17-31" transform="scale(0.996264)"/>
       <use xlink:href="#CMMI12-3a" transform="translate(45.690477 0) scale(0.996264)"/>
       <use xlink:href="#CMR17-30" transform="translate(72.787654 0) scale(0.996264)"/>
       <use xlink:href="#CMR17-30" transform="translate(118.478131 0) scale(0.996264)"/>
      </g>
     </g>
    </g>
    <g id="ytick_6">
     <g id="line2d_29">
      <path d="M 48.559071 241.704956 
L 935.517672 241.704956 
" clip-path="url(#pc742bcb17c)" style="fill: none; stroke: #ffffff; stroke-linecap: round"/>
     </g>
     <g id="line2d_30"/>
     <g id="text_16">
      <!-- $\mathdefault{1.25}$ -->
      <g style="fill: #262626" transform="translate(17.28 246.547894) scale(0.14 -0.14)">
       <use xlink:href="#CMR17-31" transform="scale(0.996264)"/>
       <use xlink:href="#CMMI12-3a" transform="translate(45.690477 0) scale(0.996264)"/>
       <use xlink:href="#CMR17-32" transform="translate(72.787654 0) scale(0.996264)"/>
       <use xlink:href="#CMR17-35" transform="translate(118.478131 0) scale(0.996264)"/>
      </g>
     </g>
    </g>
    <g id="ytick_7">
     <g id="line2d_31">
      <path d="M 48.559071 185.815341 
L 935.517672 185.815341 
" clip-path="url(#pc742bcb17c)" style="fill: none; stroke: #ffffff; stroke-linecap: round"/>
     </g>
     <g id="line2d_32"/>
     <g id="text_17">
      <!-- $\mathdefault{1.50}$ -->
      <g style="fill: #262626" transform="translate(17.28 190.658279) scale(0.14 -0.14)">
       <use xlink:href="#CMR17-31" transform="scale(0.996264)"/>
       <use xlink:href="#CMMI12-3a" transform="translate(45.690477 0) scale(0.996264)"/>
       <use xlink:href="#CMR17-35" transform="translate(72.787654 0) scale(0.996264)"/>
       <use xlink:href="#CMR17-30" transform="translate(118.478131 0) scale(0.996264)"/>
      </g>
     </g>
    </g>
    <g id="ytick_8">
     <g id="line2d_33">
      <path d="M 48.559071 129.925726 
L 935.517672 129.925726 
" clip-path="url(#pc742bcb17c)" style="fill: none; stroke: #ffffff; stroke-linecap: round"/>
     </g>
     <g id="line2d_34"/>
     <g id="text_18">
      <!-- $\mathdefault{1.75}$ -->
      <g style="fill: #262626" transform="translate(17.28 134.768664) scale(0.14 -0.14)">
       <use xlink:href="#CMR17-31" transform="scale(0.996264)"/>
       <use xlink:href="#CMMI12-3a" transform="translate(45.690477 0) scale(0.996264)"/>
       <use xlink:href="#CMR17-37" transform="translate(72.787654 0) scale(0.996264)"/>
       <use xlink:href="#CMR17-35" transform="translate(118.478131 0) scale(0.996264)"/>
      </g>
     </g>
    </g>
    <g id="ytick_9">
     <g id="line2d_35">
      <path d="M 48.559071 74.036111 
L 935.517672 74.036111 
" clip-path="url(#pc742bcb17c)" style="fill: none; stroke: #ffffff; stroke-linecap: round"/>
     </g>
     <g id="line2d_36"/>
     <g id="text_19">
      <!-- $\mathdefault{2.00}$ -->
      <g style="fill: #262626" transform="translate(17.28 78.879049) scale(0.14 -0.14)">
       <use xlink:href="#CMR17-32" transform="scale(0.996264)"/>
       <use xlink:href="#CMMI12-3a" transform="translate(45.690477 0) scale(0.996264)"/>
       <use xlink:href="#CMR17-30" transform="translate(72.787654 0) scale(0.996264)"/>
       <use xlink:href="#CMR17-30" transform="translate(118.478131 0) scale(0.996264)"/>
      </g>
     </g>
    </g>
   </g>
   <g id="line2d_37">
    <path d="M 48.559071 74.036111 
L 57.006295 74.036111 
L 65.45352 74.036111 
L 73.900745 74.036111 
L 82.34797 74.036111 
L 90.795195 74.036111 
L 99.242419 74.036111 
L 107.689644 74.036111 
L 116.136869 74.036111 
L 124.584094 74.036111 
L 133.031318 74.036111 
L 141.478543 74.036111 
L 149.925768 74.036111 
L 158.372993 74.036111 
L 166.820217 74.036111 
L 175.267442 74.036111 
L 183.714667 74.036111 
L 192.161892 74.036111 
L 200.609117 74.036111 
L 209.056341 74.036111 
L 217.503566 74.036111 
L 225.950791 74.036111 
L 234.398016 74.036111 
L 242.84524 74.036111 
L 251.292465 74.036111 
L 259.73969 74.036111 
L 268.186915 74.036111 
L 276.63414 74.036111 
L 285.081364 74.036111 
L 293.528589 74.036111 
L 301.975814 74.036111 
L 310.423039 74.036111 
L 318.870263 74.036111 
L 327.317488 74.036111 
L 335.764713 74.036111 
L 344.211938 74.036111 
L 352.659162 74.036111 
L 361.106387 74.036111 
L 369.553612 74.036111 
L 378.000837 74.036111 
L 386.448062 74.036111 
L 394.895286 74.036111 
L 403.342511 74.036111 
L 411.789736 74.036111 
L 420.236961 74.036111 
L 428.684185 74.036111 
L 437.13141 74.036111 
L 445.578635 74.036111 
L 454.02586 74.036111 
L 462.473085 74.036111 
L 470.920309 74.036111 
L 479.367534 74.036111 
L 487.814759 74.036111 
L 496.261984 74.036111 
L 504.709208 74.036111 
L 513.156433 74.036111 
L 521.603658 74.036111 
L 530.050883 74.036111 
L 538.498107 74.036111 
L 546.945332 74.036111 
L 555.392557 74.036111 
L 563.839782 74.036111 
L 572.287007 74.036111 
L 580.734231 74.036111 
L 589.181456 74.036111 
L 597.628681 74.036111 
L 606.075906 74.036111 
L 614.52313 74.036111 
L 622.970355 74.036111 
L 631.41758 74.036111 
L 639.864805 74.036111 
L 648.31203 74.036111 
L 656.759254 74.036111 
L 665.206479 74.036111 
L 673.653704 74.036111 
L 682.100929 74.036111 
L 690.548153 74.036111 
L 698.995378 74.036111 
L 707.442603 74.036111 
L 715.889828 74.036111 
L 724.337052 74.036111 
L 732.784277 74.036111 
L 741.231502 74.036111 
L 749.678727 74.036111 
L 758.125952 74.036111 
L 766.573176 74.036111 
L 775.020401 74.036111 
L 783.467626 74.036111 
L 791.914851 74.036111 
L 800.362075 74.036111 
L 808.8093 74.036111 
L 817.256525 74.036111 
L 825.70375 74.036111 
L 834.150975 74.036111 
L 842.598199 74.036111 
L 851.045424 74.036111 
L 859.492649 74.036111 
L 867.939874 74.036111 
L 876.387098 74.036111 
L 884.834323 74.036111 
L 893.281548 74.036111 
" clip-path="url(#pc742bcb17c)" style="fill: none; stroke: #393b79; stroke-width: 2; stroke-linecap: round"/>
   </g>
   <g id="line2d_38">
    <path d="M 48.559071 154.094425 
L 57.006295 153.7534 
L 65.45352 153.414201 
L 73.900745 153.076827 
L 82.34797 152.741273 
L 90.795195 152.401729 
L 99.242419 152.06042 
L 107.689644 151.720939 
L 116.136869 151.383285 
L 124.584094 151.04744 
L 133.031318 150.713381 
L 141.478543 150.381105 
L 149.925768 150.050598 
L 158.372993 149.721853 
L 166.820217 149.394863 
L 175.267442 149.069616 
L 183.714667 148.746109 
L 192.161892 148.424351 
L 200.609117 148.104296 
L 209.056341 147.785938 
L 217.503566 147.469266 
L 225.950791 147.154274 
L 234.398016 146.840957 
L 242.84524 146.529319 
L 251.292465 146.219344 
L 259.73969 145.911005 
L 268.186915 145.600632 
L 276.63414 145.286862 
L 285.081364 144.97474 
L 293.528589 144.664262 
L 301.975814 144.355422 
L 310.423039 144.048201 
L 318.870263 143.74259 
L 327.317488 143.438597 
L 335.764713 143.136211 
L 344.211938 142.835414 
L 352.659162 142.536198 
L 361.106387 142.238547 
L 369.553612 141.942456 
L 378.000837 141.647912 
L 386.448062 141.354909 
L 394.895286 141.063453 
L 403.342511 140.773527 
L 411.789736 140.485114 
L 420.236961 140.19821 
L 428.684185 139.912803 
L 437.13141 139.628878 
L 445.578635 139.346434 
L 454.02586 139.065455 
L 462.473085 138.785933 
L 470.920309 138.503571 
L 479.367534 138.219023 
L 487.814759 137.93595 
L 496.261984 137.654347 
L 504.709208 137.374213 
L 513.156433 137.095532 
L 521.603658 136.818294 
L 530.050883 136.542489 
L 538.498107 136.268112 
L 546.945332 135.99516 
L 555.392557 135.723617 
L 563.839782 135.453476 
L 572.287007 135.184724 
L 580.734231 134.917355 
L 589.181456 134.651371 
L 597.628681 134.386763 
L 606.075906 134.123514 
L 614.52313 133.861616 
L 622.970355 133.601082 
L 631.41758 133.341883 
L 639.864805 133.08402 
L 648.31203 132.827477 
L 656.759254 132.572246 
L 665.206479 132.31833 
L 673.653704 132.065722 
L 682.100929 131.814404 
L 690.548153 131.56437 
L 698.995378 131.313774 
L 707.442603 131.059124 
L 715.889828 130.805773 
L 724.337052 130.553716 
L 732.784277 130.302958 
L 741.231502 130.05348 
L 749.678727 129.805276 
L 758.125952 129.558335 
L 766.573176 129.31265 
L 775.020401 129.068218 
L 783.467626 128.825027 
L 791.914851 128.58307 
L 800.362075 128.34234 
L 808.8093 128.102837 
L 817.256525 127.864562 
L 825.70375 127.627493 
L 834.150975 127.391625 
L 842.598199 127.15695 
L 851.045424 126.923461 
L 859.492649 126.691152 
L 867.939874 126.460018 
L 876.387098 126.23005 
L 884.834323 126.001251 
L 893.281548 125.773614 
" clip-path="url(#pc742bcb17c)" style="fill: none; stroke: #6b6ecf; stroke-width: 2; stroke-linecap: round"/>
   </g>
   <g id="line2d_39">
    <path d="M 48.559071 336.643138 
L 57.006295 335.791854 
L 65.45352 334.947867 
L 73.900745 334.108848 
L 82.34797 333.2629 
L 90.795195 332.424139 
L 99.242419 331.589239 
L 107.689644 330.748216 
L 116.136869 329.914284 
L 124.584094 329.084354 
L 133.031318 328.248097 
L 141.478543 327.418795 
L 149.925768 326.594745 
L 158.372993 325.762693 
L 166.820217 324.93755 
L 175.267442 324.119293 
L 183.714667 323.292458 
L 192.161892 322.471261 
L 200.609117 321.656756 
L 209.056341 320.837886 
L 217.503566 320.020299 
L 225.950791 319.20933 
L 234.398016 318.399562 
L 242.84524 317.585193 
L 251.292465 316.777381 
L 259.73969 315.97611 
L 268.186915 315.166726 
L 276.63414 314.361798 
L 285.081364 313.563085 
L 293.528589 312.765145 
L 301.975814 311.963105 
L 310.423039 311.167203 
L 318.870263 310.377315 
L 327.317488 309.581784 
L 335.764713 308.788192 
L 344.211938 308.000829 
L 352.659162 307.219402 
L 361.106387 306.428086 
L 369.553612 305.642269 
L 378.000837 304.862684 
L 386.448062 304.08761 
L 394.895286 303.303406 
L 403.342511 302.525263 
L 411.789736 301.75313 
L 420.236961 300.984973 
L 428.684185 300.208086 
L 437.13141 299.437297 
L 445.578635 298.672236 
L 454.02586 297.912661 
L 462.473085 297.142424 
L 470.920309 296.378149 
L 479.367534 295.61968 
L 487.814759 294.866868 
L 496.261984 294.107073 
L 504.709208 293.349158 
L 513.156433 292.596839 
L 521.603658 291.850042 
L 530.050883 291.10229 
L 538.498107 290.350229 
L 546.945332 289.603717 
L 555.392557 288.862699 
L 563.839782 288.127058 
L 572.287007 287.382533 
L 580.734231 286.641375 
L 589.181456 285.905622 
L 597.628681 285.175216 
L 606.075906 284.446899 
L 614.52313 283.710875 
L 622.970355 282.980144 
L 631.41758 282.254607 
L 639.864805 281.534243 
L 648.31203 280.813201 
L 656.759254 280.087005 
L 665.206479 279.36597 
L 673.653704 278.650055 
L 682.100929 277.939225 
L 690.548153 277.227824 
L 698.995378 276.510968 
L 707.442603 275.79917 
L 715.889828 275.092336 
L 724.337052 274.39046 
L 732.784277 273.691077 
L 741.231502 272.983051 
L 749.678727 272.279913 
L 758.125952 271.581654 
L 766.573176 270.888195 
L 775.020401 270.199527 
L 783.467626 269.503639 
L 791.914851 268.808681 
L 800.362075 268.118466 
L 808.8093 267.433012 
L 817.256525 266.75218 
L 825.70375 266.073524 
L 834.150975 265.386282 
L 842.598199 264.703783 
L 851.045424 264.025798 
L 859.492649 263.352424 
L 867.939874 262.683547 
L 876.387098 262.013927 
L 884.834323 261.338533 
L 893.281548 260.667598 
" clip-path="url(#pc742bcb17c)" style="fill: none; stroke: #637939; stroke-width: 2; stroke-linecap: round"/>
   </g>
   <g id="line2d_40">
    <path d="M 48.559071 430.506961 
L 57.006295 429.606052 
L 65.45352 428.704511 
L 73.900745 427.802271 
L 82.34797 426.89938 
L 90.795195 425.99591 
L 99.242419 425.091762 
L 107.689644 424.187034 
L 116.136869 423.281801 
L 124.584094 422.375968 
L 133.031318 421.469906 
L 141.478543 420.563261 
L 149.925768 419.656323 
L 158.372993 418.74917 
L 166.820217 417.841762 
L 175.267442 416.933787 
L 183.714667 416.024827 
L 192.161892 415.115508 
L 200.609117 414.206257 
L 209.056341 413.296992 
L 217.503566 412.388136 
L 225.950791 411.479484 
L 234.398016 410.57093 
L 242.84524 409.660205 
L 251.292465 408.750057 
L 259.73969 407.840603 
L 268.186915 406.931991 
L 276.63414 406.023438 
L 285.081364 405.112672 
L 293.528589 404.202886 
L 301.975814 403.294691 
L 310.423039 402.387422 
L 318.870263 401.476955 
L 327.317488 400.567646 
L 335.764713 399.661035 
L 344.211938 398.753268 
L 352.659162 397.844361 
L 361.106387 396.937702 
L 369.553612 396.032018 
L 378.000837 395.123739 
L 386.448062 394.218137 
L 394.895286 393.313993 
L 403.342511 392.406834 
L 411.789736 391.502869 
L 420.236961 390.599434 
L 428.684185 389.694203 
L 437.13141 388.792969 
L 445.578635 387.889499 
L 454.02586 386.987084 
L 462.473085 386.088037 
L 470.920309 385.18478 
L 479.367534 384.286427 
L 487.814759 383.386254 
L 496.261984 382.48765 
L 504.709208 381.591028 
L 513.156433 380.692433 
L 521.603658 379.79905 
L 530.050883 378.900365 
L 538.498107 378.007734 
L 546.945332 377.112263 
L 555.392557 376.219992 
L 563.839782 375.327618 
L 572.287007 374.436267 
L 580.734231 373.546338 
L 589.181456 372.656149 
L 597.628681 371.768815 
L 606.075906 370.880203 
L 614.52313 369.99489 
L 622.970355 369.108234 
L 631.41758 368.224904 
L 639.864805 367.34034 
L 648.31203 366.458673 
L 656.759254 365.576777 
L 665.206479 364.69661 
L 673.653704 363.817851 
L 682.100929 362.93887 
L 690.548153 362.063727 
L 698.995378 361.185739 
L 707.442603 360.314748 
L 715.889828 359.437401 
L 724.337052 358.568481 
L 732.784277 357.694461 
L 741.231502 356.825905 
L 749.678727 355.956849 
L 758.125952 355.088599 
L 766.573176 354.225345 
L 775.020401 353.357084 
L 783.467626 352.496783 
L 791.914851 351.631756 
L 800.362075 350.7712 
L 808.8093 349.91306 
L 817.256525 349.052076 
L 825.70375 348.198878 
L 834.150975 347.34 
L 842.598199 346.486064 
L 851.045424 345.635609 
L 859.492649 344.780752 
L 867.939874 343.933291 
L 876.387098 343.08335 
L 884.834323 342.234867 
L 893.281548 341.393697 
" clip-path="url(#pc742bcb17c)" style="fill: none; stroke: #b5cf6b; stroke-width: 2; stroke-linecap: round"/>
   </g>
   <g id="line2d_41">
    <path d="M 48.559071 504.058668 
L 57.006295 503.488217 
L 65.45352 502.910794 
L 73.900745 502.326499 
L 82.34797 501.735274 
L 90.795195 501.13741 
L 99.242419 500.532877 
L 107.689644 499.921836 
L 116.136869 499.304427 
L 124.584094 498.680592 
L 133.031318 498.050619 
L 141.478543 497.414437 
L 149.925768 496.772289 
L 158.372993 496.12409 
L 166.820217 495.470111 
L 175.267442 494.810304 
L 183.714667 494.144893 
L 192.161892 493.47384 
L 200.609117 492.797387 
L 209.056341 492.11526 
L 217.503566 491.428072 
L 225.950791 490.735476 
L 234.398016 490.03794 
L 242.84524 489.335137 
L 251.292465 488.627376 
L 259.73969 487.914761 
L 268.186915 487.19735 
L 276.63414 486.475086 
L 285.081364 485.748083 
L 293.528589 485.016654 
L 301.975814 484.28071 
L 310.423039 483.540561 
L 318.870263 482.795611 
L 327.317488 482.046303 
L 335.764713 481.293429 
L 344.211938 480.536215 
L 352.659162 479.774718 
L 361.106387 479.009291 
L 369.553612 478.24006 
L 378.000837 477.466808 
L 386.448062 476.689763 
L 394.895286 475.909205 
L 403.342511 475.125299 
L 411.789736 474.33718 
L 420.236961 473.54597 
L 428.684185 472.751241 
L 437.13141 471.953364 
L 445.578635 471.151943 
L 454.02586 470.3477 
L 462.473085 469.539535 
L 470.920309 468.72868 
L 479.367534 467.915034 
L 487.814759 467.098409 
L 496.261984 466.278677 
L 504.709208 465.455699 
L 513.156433 464.630541 
L 521.603658 463.802291 
L 530.050883 462.971479 
L 538.498107 462.138269 
L 546.945332 461.302401 
L 555.392557 460.464127 
L 563.839782 459.623387 
L 572.287007 458.779836 
L 580.734231 457.933997 
L 589.181456 457.086248 
L 597.628681 456.23689 
L 606.075906 455.384135 
L 614.52313 454.529635 
L 622.970355 453.674045 
L 631.41758 452.815027 
L 639.864805 451.954796 
L 648.31203 451.09262 
L 656.759254 450.228299 
L 665.206479 449.362714 
L 673.653704 448.494827 
L 682.100929 447.625603 
L 690.548153 446.754725 
L 698.995378 445.881888 
L 707.442603 445.008656 
L 715.889828 444.131973 
L 724.337052 443.255102 
L 732.784277 442.37716 
L 741.231502 441.496488 
L 749.678727 440.615261 
L 758.125952 439.733488 
L 766.573176 438.849212 
L 775.020401 437.96387 
L 783.467626 437.07777 
L 791.914851 436.191099 
L 800.362075 435.303255 
L 808.8093 434.413228 
L 817.256525 433.522556 
L 825.70375 432.631177 
L 834.150975 431.739071 
L 842.598199 430.84609 
L 851.045424 429.952555 
L 859.492649 429.058201 
L 867.939874 428.162869 
L 876.387098 427.267087 
L 884.834323 426.370453 
L 893.281548 425.473084 
" clip-path="url(#pc742bcb17c)" style="fill: none; stroke: #8c6d31; stroke-width: 2; stroke-linecap: round"/>
   </g>
   <g id="line2d_42">
    <path d="M 48.559071 519.298694 
L 57.006295 519.076352 
L 65.45352 518.8424 
L 73.900745 518.596979 
L 82.34797 518.340225 
L 90.795195 518.072294 
L 99.242419 517.793306 
L 107.689644 517.503418 
L 116.136869 517.202768 
L 124.584094 516.891477 
L 133.031318 516.569734 
L 141.478543 516.237588 
L 149.925768 515.89524 
L 158.372993 515.542814 
L 166.820217 515.180397 
L 175.267442 514.808157 
L 183.714667 514.426263 
L 192.161892 514.034743 
L 200.609117 513.63381 
L 209.056341 513.223507 
L 217.503566 512.804066 
L 225.950791 512.375507 
L 234.398016 511.938024 
L 242.84524 511.491683 
L 251.292465 511.036661 
L 259.73969 510.573023 
L 268.186915 510.1009 
L 276.63414 509.620432 
L 285.081364 509.131692 
L 293.528589 508.634798 
L 301.975814 508.129976 
L 310.423039 507.617267 
L 318.870263 507.096644 
L 327.317488 506.568199 
L 335.764713 506.032469 
L 344.211938 505.489181 
L 352.659162 504.938455 
L 361.106387 504.38048 
L 369.553612 503.815363 
L 378.000837 503.243222 
L 386.448062 502.664081 
L 394.895286 502.078154 
L 403.342511 501.485442 
L 411.789736 500.886039 
L 420.236961 500.280107 
L 428.684185 499.667777 
L 437.13141 499.049075 
L 445.578635 498.424132 
L 454.02586 497.792934 
L 462.473085 497.155607 
L 470.920309 496.51245 
L 479.367534 495.863359 
L 487.814759 495.208494 
L 496.261984 494.547963 
L 504.709208 493.881544 
L 513.156433 493.21003 
L 521.603658 492.532699 
L 530.050883 491.850048 
L 538.498107 491.162418 
L 546.945332 490.469284 
L 555.392557 489.771094 
L 563.839782 489.068059 
L 572.287007 488.359991 
L 580.734231 487.64697 
L 589.181456 486.92923 
L 597.628681 486.206998 
L 606.075906 485.48006 
L 614.52313 484.748328 
L 622.970355 484.012552 
L 631.41758 483.272073 
L 639.864805 482.527267 
L 648.31203 481.778532 
L 656.759254 481.025482 
L 665.206479 480.268301 
L 673.653704 479.507081 
L 682.100929 478.742022 
L 690.548153 477.973138 
L 698.995378 477.200233 
L 707.442603 476.42366 
L 715.889828 475.643465 
L 724.337052 474.859976 
L 732.784277 474.072483 
L 741.231502 473.282055 
L 749.678727 472.487645 
L 758.125952 471.690635 
L 766.573176 470.889534 
L 775.020401 470.08579 
L 783.467626 469.279046 
L 791.914851 468.46876 
L 800.362075 467.655574 
L 808.8093 466.839593 
L 817.256525 466.020872 
L 825.70375 465.199339 
L 834.150975 464.375009 
L 842.598199 463.547818 
L 851.045424 462.718097 
L 859.492649 461.885684 
L 867.939874 461.050523 
L 876.387098 460.213154 
L 884.834323 459.373347 
L 893.281548 458.531347 
" clip-path="url(#pc742bcb17c)" style="fill: none; stroke: #e7cb94; stroke-width: 2; stroke-linecap: round"/>
   </g>
   <g id="line2d_43">
    <path d="M 48.559071 520.910511 
L 57.006295 520.820572 
L 65.45352 520.718757 
L 73.900745 520.603853 
L 82.34797 520.476014 
L 90.795195 520.335406 
L 99.242419 520.182174 
L 107.689644 520.016482 
L 116.136869 519.838482 
L 124.584094 519.648317 
L 133.031318 519.44617 
L 141.478543 519.232137 
L 149.925768 519.006407 
L 158.372993 518.769123 
L 166.820217 518.520396 
L 175.267442 518.260406 
L 183.714667 517.989308 
L 192.161892 517.707187 
L 200.609117 517.414233 
L 209.056341 517.110534 
L 217.503566 516.796301 
L 225.950791 516.471599 
L 234.398016 516.13661 
L 242.84524 515.79143 
L 251.292465 515.436222 
L 259.73969 515.071101 
L 268.186915 514.696193 
L 276.63414 514.311632 
L 285.081364 513.917545 
L 293.528589 513.514027 
L 301.975814 513.101318 
L 310.423039 512.679456 
L 318.870263 512.248502 
L 327.317488 511.808507 
L 335.764713 511.35998 
L 344.211938 510.9027 
L 352.659162 510.436834 
L 361.106387 509.962504 
L 369.553612 509.479913 
L 378.000837 508.989097 
L 386.448062 508.49018 
L 394.895286 507.98334 
L 403.342511 507.468608 
L 411.789736 506.946031 
L 420.236961 506.415873 
L 428.684185 505.878151 
L 437.13141 505.333107 
L 445.578635 504.780676 
L 454.02586 504.220923 
L 462.473085 503.654093 
L 470.920309 503.080296 
L 479.367534 502.499558 
L 487.814759 501.911943 
L 496.261984 501.317786 
L 504.709208 500.716745 
L 513.156433 500.109522 
L 521.603658 499.495674 
L 530.050883 498.875466 
L 538.498107 498.249161 
L 546.945332 497.616626 
L 555.392557 496.978085 
L 563.839782 496.333633 
L 572.287007 495.6833 
L 580.734231 495.027067 
L 589.181456 494.36525 
L 597.628681 493.697958 
L 606.075906 493.025094 
L 614.52313 492.346827 
L 622.970355 491.663195 
L 631.41758 490.974426 
L 639.864805 490.280241 
L 648.31203 489.581226 
L 656.759254 488.877091 
L 665.206479 488.168157 
L 673.653704 487.454277 
L 682.100929 486.735685 
L 690.548153 486.012541 
L 698.995378 485.284773 
L 707.442603 484.552392 
L 715.889828 483.815614 
L 724.337052 483.07453 
L 732.784277 482.329061 
L 741.231502 481.579487 
L 749.678727 480.825799 
L 758.125952 480.068062 
L 766.573176 479.30625 
L 775.020401 478.540529 
L 783.467626 477.770849 
L 791.914851 476.997542 
L 800.362075 476.220532 
L 808.8093 475.440084 
L 817.256525 474.655584 
L 825.70375 473.868011 
L 834.150975 473.076801 
L 842.598199 472.282287 
L 851.045424 471.484429 
L 859.492649 470.683826 
L 867.939874 469.879095 
L 876.387098 469.07184 
L 884.834323 468.261681 
L 893.281548 467.448451 
" clip-path="url(#pc742bcb17c)" style="fill: none; stroke: #ad494a; stroke-width: 2; stroke-linecap: round"/>
   </g>
   <g id="line2d_44">
    <path d="M 48.559071 521.634084 
L 57.006295 521.352447 
L 65.45352 521.149922 
L 73.900745 521.004086 
L 82.34797 520.898925 
L 90.795195 520.808349 
L 99.242419 520.704886 
L 107.689644 520.58836 
L 116.136869 520.458927 
L 124.584094 520.31674 
L 133.031318 520.161977 
L 141.478543 519.994755 
L 149.925768 519.815257 
L 158.372993 519.623632 
L 166.820217 519.420006 
L 175.267442 519.204553 
L 183.714667 518.977433 
L 192.161892 518.738748 
L 200.609117 518.488679 
L 209.056341 518.227334 
L 217.503566 517.954914 
L 225.950791 517.671498 
L 234.398016 517.37727 
L 242.84524 517.072332 
L 251.292465 516.756853 
L 259.73969 516.430948 
L 268.186915 516.094751 
L 276.63414 515.748407 
L 285.081364 515.39203 
L 293.528589 515.025746 
L 301.975814 514.649777 
L 310.423039 514.264164 
L 318.870263 513.868992 
L 327.317488 513.464314 
L 335.764713 513.050621 
L 344.211938 512.627718 
L 352.659162 512.195756 
L 361.106387 511.754904 
L 369.553612 511.30532 
L 378.000837 510.847071 
L 386.448062 510.380269 
L 394.895286 509.905086 
L 403.342511 509.421596 
L 411.789736 508.929883 
L 420.236961 508.430108 
L 428.684185 507.922357 
L 437.13141 507.406838 
L 445.578635 506.883548 
L 454.02586 506.352568 
L 462.473085 505.813999 
L 470.920309 505.26815 
L 479.367534 504.714961 
L 487.814759 504.154456 
L 496.261984 503.587072 
L 504.709208 503.0124 
L 513.156433 502.431094 
L 521.603658 501.842811 
L 530.050883 501.247827 
L 538.498107 500.646377 
L 546.945332 500.038349 
L 555.392557 499.423839 
L 563.839782 498.803228 
L 572.287007 498.176237 
L 580.734231 497.543111 
L 589.181456 496.903931 
L 597.628681 496.258944 
L 606.075906 495.608094 
L 614.52313 494.951452 
L 622.970355 494.289172 
L 631.41758 493.621324 
L 639.864805 492.9479 
L 648.31203 492.269092 
L 656.759254 491.584973 
L 665.206479 490.895653 
L 673.653704 490.201278 
L 682.100929 489.501719 
L 690.548153 488.797195 
L 698.995378 488.087822 
L 707.442603 487.373693 
L 715.889828 486.654684 
L 724.337052 485.930982 
L 732.784277 485.202872 
L 741.231502 484.470178 
L 749.678727 483.733063 
L 758.125952 482.991523 
L 766.573176 482.245876 
L 775.020401 481.496081 
L 783.467626 480.74188 
L 791.914851 479.983814 
L 800.362075 479.221693 
L 808.8093 478.455729 
L 817.256525 477.686078 
L 825.70375 476.912384 
L 834.150975 476.134985 
L 842.598199 475.354086 
L 851.045424 474.56986 
L 859.492649 473.781732 
L 867.939874 472.990613 
L 876.387098 472.195611 
L 884.834323 471.397831 
L 893.281548 470.596433 
" clip-path="url(#pc742bcb17c)" style="fill: none; stroke: #e7969c; stroke-width: 2; stroke-linecap: round"/>
   </g>
   <g id="line2d_45">
    <path d="M 48.559071 522.523716 
L 57.006295 521.990978 
L 65.45352 521.608848 
L 73.900745 521.334366 
L 82.34797 521.136932 
L 90.795195 520.99474 
L 99.242419 520.892191 
L 107.689644 520.800893 
L 116.136869 520.696439 
L 124.584094 520.578931 
L 133.031318 520.448544 
L 141.478543 520.305406 
L 149.925768 520.149696 
L 158.372993 519.981569 
L 166.820217 519.801153 
L 175.267442 519.608625 
L 183.714667 519.404145 
L 192.161892 519.187821 
L 200.609117 518.959836 
L 209.056341 518.720302 
L 217.503566 518.469417 
L 225.950791 518.207267 
L 234.398016 517.934038 
L 242.84524 517.649834 
L 251.292465 517.354823 
L 259.73969 517.049132 
L 268.186915 516.732887 
L 276.63414 516.406244 
L 285.081364 516.069311 
L 293.528589 515.722223 
L 301.975814 515.365194 
L 310.423039 514.99829 
L 318.870263 514.621575 
L 327.317488 514.235121 
L 335.764713 513.839395 
L 344.211938 513.434239 
L 352.659162 513.019779 
L 361.106387 512.596203 
L 369.553612 512.16365 
L 378.000837 511.722221 
L 386.448062 511.272023 
L 394.895286 510.8132 
L 403.342511 510.345852 
L 411.789736 509.870056 
L 420.236961 509.385989 
L 428.684185 508.893746 
L 437.13141 508.3935 
L 445.578635 507.885279 
L 454.02586 507.369154 
L 462.473085 506.845241 
L 470.920309 506.313805 
L 479.367534 505.774861 
L 487.814759 505.228432 
L 496.261984 504.674851 
L 504.709208 504.113837 
L 513.156433 503.545994 
L 521.603658 502.970951 
L 530.050883 502.389071 
L 538.498107 501.800486 
L 546.945332 501.205141 
L 555.392557 500.603159 
L 563.839782 499.994755 
L 572.287007 499.379963 
L 580.734231 498.75872 
L 589.181456 498.131357 
L 597.628681 497.497989 
L 606.075906 496.858565 
L 614.52313 496.213099 
L 622.970355 495.561947 
L 631.41758 494.904935 
L 639.864805 494.24222 
L 648.31203 493.574068 
L 656.759254 492.900325 
L 665.206479 492.221372 
L 673.653704 491.536845 
L 682.100929 490.847344 
L 690.548153 490.152546 
L 698.995378 489.452719 
L 707.442603 488.747968 
L 715.889828 488.03821 
L 724.337052 487.323776 
L 732.784277 486.604668 
L 741.231502 485.880841 
L 749.678727 485.152263 
L 758.125952 484.419565 
L 766.573176 483.681966 
L 775.020401 482.940392 
L 783.467626 482.194512 
L 791.914851 481.444303 
L 800.362075 480.68995 
L 808.8093 479.931601 
L 817.256525 479.16935 
L 825.70375 478.403213 
L 834.150975 477.633302 
L 842.598199 476.859678 
L 851.045424 476.082104 
L 859.492649 475.300988 
L 867.939874 474.516514 
L 876.387098 473.728261 
L 884.834323 472.936889 
L 893.281548 472.141842 
" clip-path="url(#pc742bcb17c)" style="fill: none; stroke: #a55194; stroke-width: 2; stroke-linecap: round"/>
   </g>
   <g id="line2d_46">
    <path d="M 48.559071 523.475913 
L 57.006295 522.673058 
L 65.45352 522.098103 
L 73.900745 521.68578 
L 82.34797 521.389671 
L 90.795195 521.176754 
L 99.242419 521.023441 
L 107.689644 520.912908 
L 116.136869 520.823062 
L 124.584094 520.721637 
L 133.031318 520.60714 
L 141.478543 520.4797 
L 149.925768 520.339497 
L 158.372993 520.186687 
L 166.820217 520.021404 
L 175.267442 519.843822 
L 183.714667 519.654104 
L 192.161892 519.452362 
L 200.609117 519.238777 
L 209.056341 519.013466 
L 217.503566 518.776626 
L 225.950791 518.528347 
L 234.398016 518.268814 
L 242.84524 517.998135 
L 251.292465 517.716481 
L 259.73969 517.423973 
L 268.186915 517.120748 
L 276.63414 516.806957 
L 285.081364 516.482718 
L 293.528589 516.148152 
L 301.975814 515.803491 
L 310.423039 515.44879 
L 318.870263 515.084124 
L 327.317488 514.709565 
L 335.764713 514.325574 
L 344.211938 513.931992 
L 352.659162 513.528971 
L 361.106387 513.116672 
L 369.553612 512.695256 
L 378.000837 512.264805 
L 386.448062 511.825435 
L 394.895286 511.377305 
L 403.342511 510.920515 
L 411.789736 510.455115 
L 420.236961 509.981321 
L 428.684185 509.499189 
L 437.13141 509.008946 
L 445.578635 508.510569 
L 454.02586 508.004124 
L 462.473085 507.489814 
L 470.920309 506.967834 
L 479.367534 506.43819 
L 487.814759 505.900966 
L 496.261984 505.356412 
L 504.709208 504.804309 
L 513.156433 504.245293 
L 521.603658 503.67891 
L 530.050883 503.105567 
L 538.498107 502.525403 
L 546.945332 501.938384 
L 555.392557 501.344548 
L 563.839782 500.744238 
L 572.287007 500.137388 
L 580.734231 499.523959 
L 589.181456 498.904376 
L 597.628681 498.278576 
L 606.075906 497.646606 
L 614.52313 497.008505 
L 622.970355 496.364531 
L 631.41758 495.714783 
L 639.864805 495.059073 
L 648.31203 494.397816 
L 656.759254 493.730866 
L 665.206479 493.058589 
L 673.653704 492.380783 
L 682.100929 491.697602 
L 690.548153 491.009359 
L 698.995378 490.315819 
L 707.442603 489.617218 
L 715.889828 488.913556 
L 724.337052 488.205107 
L 732.784277 487.491814 
L 741.231502 486.773779 
L 749.678727 486.051183 
L 758.125952 485.323685 
L 766.573176 484.591895 
L 775.020401 483.855584 
L 783.467626 483.115136 
L 791.914851 482.370097 
L 800.362075 481.620891 
L 808.8093 480.867632 
L 817.256525 480.110376 
L 825.70375 479.3491 
L 834.150975 478.583871 
L 842.598199 477.814706 
L 851.045424 477.041971 
L 859.492649 476.265646 
L 867.939874 475.485298 
L 876.387098 474.701512 
L 884.834323 473.914586 
L 893.281548 473.123582 
" clip-path="url(#pc742bcb17c)" style="fill: none; stroke: #de9ed6; stroke-width: 2; stroke-linecap: round"/>
   </g>
   <g id="patch_3">
    <path d="M 48.559071 521.153031 
L 48.559071 51.564121 
" style="fill: none"/>
   </g>
   <g id="patch_4">
    <path d="M 935.517672 521.153031 
L 935.517672 51.564121 
" style="fill: none"/>
   </g>
   <g id="patch_5">
    <path d="M 48.559071 521.153031 
L 935.517672 521.153031 
" style="fill: none"/>
   </g>
   <g id="patch_6">
    <path d="M 48.559071 51.564121 
L 935.517672 51.564121 
" style="fill: none"/>
   </g>
   <g id="patch_7">
    <path d="M 470.920309 80.505488 
Q 470.920309 289.382509 470.920309 496.582479 
" style="fill: none; stroke: #000000; stroke-width: 1.5; stroke-linecap: round"/>
    <path d="M 474.120309 490.182479 
L 470.920309 496.582479 
L 467.720309 490.182479 
" style="fill: none; stroke: #000000; stroke-width: 1.5; stroke-linecap: round"/>
   </g>
   <g id="text_20">
    <!-- Time -->
    <g style="fill: #262626" transform="translate(492.038371 496.773016) scale(0.18 -0.18)">
     <defs>
      <path id="CMR17-54" d="M 3981 4326 
L 288 4326 
L 179 2918 
L 294 2918 
C 378 3976 467 4160 1453 4160 
C 1568 4160 1754 4160 1805 4154 
C 1926 4135 1926 4058 1926 3912 
L 1926 459 
C 1926 230 1907 160 1376 160 
L 1197 160 
L 1197 0 
C 1504 0 1824 0 2138 0 
C 2451 0 2771 0 3078 0 
L 3078 160 
L 2899 160 
C 2368 160 2349 230 2349 459 
L 2349 3912 
C 2349 4052 2349 4129 2464 4154 
C 2515 4160 2701 4160 2816 4160 
C 3795 4160 3891 3976 3974 2918 
L 4090 2918 
L 3981 4326 
z
" transform="scale(0.015625)"/>
      <path id="CMR17-69" d="M 992 3909 
C 992 4049 877 4170 730 4170 
C 589 4170 467 4056 467 3909 
C 467 3769 582 3648 730 3648 
C 870 3648 992 3763 992 3909 
z
M 243 2706 
L 243 2541 
C 602 2541 653 2502 653 2197 
L 653 427 
C 653 184 627 153 218 153 
L 218 -13 
C 371 0 646 0 806 0 
C 960 0 1222 0 1370 -13 
L 1370 153 
C 992 153 979 191 979 420 
L 979 2776 
L 243 2706 
z
" transform="scale(0.015625)"/>
      <path id="CMR17-6d" d="M 4326 1933 
C 4326 2252 4269 2790 3507 2790 
C 3072 2790 2771 2496 2656 2151 
L 2650 2151 
C 2573 2676 2195 2790 1837 2790 
C 1331 2790 1069 2400 973 2144 
L 966 2144 
L 966 2790 
L 211 2720 
L 211 2554 
C 589 2554 646 2515 646 2208 
L 646 428 
C 646 184 621 153 211 153 
L 211 -13 
C 365 0 646 0 813 0 
C 979 0 1267 0 1421 -13 
L 1421 153 
C 1011 153 986 178 986 428 
L 986 1658 
C 986 2247 1344 2688 1792 2688 
C 2266 2688 2317 2266 2317 1958 
L 2317 428 
C 2317 184 2291 153 1882 153 
L 1882 -13 
C 2035 0 2317 0 2483 0 
C 2650 0 2938 0 3091 -13 
L 3091 153 
C 2682 153 2656 178 2656 428 
L 2656 1658 
C 2656 2247 3014 2688 3462 2688 
C 3936 2688 3987 2266 3987 1958 
L 3987 428 
C 3987 184 3962 153 3552 153 
L 3552 -13 
C 3706 0 3987 0 4154 0 
C 4320 0 4608 0 4762 -13 
L 4762 153 
C 4352 153 4326 178 4326 428 
L 4326 1933 
z
" transform="scale(0.015625)"/>
      <path id="CMR17-65" d="M 2438 1472 
C 2464 1498 2464 1511 2464 1576 
C 2464 2238 2118 2816 1389 2816 
C 710 2816 173 2169 173 1383 
C 173 551 781 -64 1459 -64 
C 2176 -64 2458 607 2458 740 
C 2458 784 2419 784 2406 784 
C 2362 784 2355 771 2330 696 
C 2189 265 1837 51 1504 51 
C 1229 51 954 203 781 480 
C 582 803 582 1176 582 1472 
L 2438 1472 
z
M 589 1568 
C 634 2505 1126 2714 1382 2714 
C 1818 2714 2112 2297 2118 1568 
L 589 1568 
z
" transform="scale(0.015625)"/>
     </defs>
     <use xlink:href="#CMR17-54" transform="scale(0.996264)"/>
     <use xlink:href="#CMR17-69" transform="translate(66.509881 0) scale(0.996264)"/>
     <use xlink:href="#CMR17-6d" transform="translate(91.380939 0) scale(0.996264)"/>
     <use xlink:href="#CMR17-65" transform="translate(168.300529 0) scale(0.996264)"/>
    </g>
   </g>
   <g id="legend_1">
    <g id="line2d_47">
     <path d="M 948.117672 197.198434 
L 962.117672 197.198434 
L 976.117672 197.198434 
" style="fill: none; stroke: #393b79; stroke-width: 2; stroke-linecap: round"/>
    </g>
    <g id="text_21">
     <!-- t = 0.00 -->
     <g style="fill: #262626" transform="translate(987.317672 202.098434) scale(0.14 -0.14)">
      <defs>
       <path id="CMR17-74" d="M 966 2560 
L 1862 2560 
L 1862 2725 
L 966 2725 
L 966 3904 
L 851 3904 
C 838 3245 614 2668 70 2668 
L 70 2560 
L 627 2560 
L 627 771 
C 627 650 627 -64 1370 -64 
C 1747 -64 1965 306 1965 777 
L 1965 1140 
L 1850 1140 
L 1850 783 
C 1850 344 1677 51 1408 51 
C 1222 51 966 178 966 758 
L 966 2560 
z
" transform="scale(0.015625)"/>
       <path id="CMR17-3d" d="M 4115 2017 
C 4211 2017 4307 2017 4307 2125 
C 4307 2240 4198 2240 4090 2240 
L 512 2240 
C 403 2240 294 2240 294 2125 
C 294 2017 390 2017 486 2017 
L 4115 2017 
z
M 4090 896 
C 4198 896 4307 896 4307 1011 
C 4307 1119 4211 1119 4115 1119 
L 486 1119 
C 390 1119 294 1119 294 1011 
C 294 896 403 896 512 896 
L 4090 896 
z
" transform="scale(0.015625)"/>
       <path id="CMR17-2e" d="M 1062 261 
C 1062 420 934 522 800 522 
C 672 522 538 420 538 261 
C 538 102 666 0 800 0 
C 928 0 1062 102 1062 261 
z
" transform="scale(0.015625)"/>
      </defs>
      <use xlink:href="#CMR17-74" transform="scale(0.996264)"/>
      <use xlink:href="#CMR17-3d" transform="translate(65.356734 0) scale(0.996264)"/>
      <use xlink:href="#CMR17-30" transform="translate(167.147489 0) scale(0.996264)"/>
      <use xlink:href="#CMR17-2e" transform="translate(212.837966 0) scale(0.996264)"/>
      <use xlink:href="#CMR17-30" transform="translate(237.709025 0) scale(0.996264)"/>
      <use xlink:href="#CMR17-30" transform="translate(283.399502 0) scale(0.996264)"/>
     </g>
    </g>
    <g id="line2d_48">
     <path d="M 948.117672 216.710462 
L 962.117672 216.710462 
L 976.117672 216.710462 
" style="fill: none; stroke: #6b6ecf; stroke-width: 2; stroke-linecap: round"/>
    </g>
    <g id="text_22">
     <!-- t = 10.00 -->
     <g style="fill: #262626" transform="translate(987.317672 221.610462) scale(0.14 -0.14)">
      <use xlink:href="#CMR17-74" transform="scale(0.996264)"/>
      <use xlink:href="#CMR17-3d" transform="translate(65.356734 0) scale(0.996264)"/>
      <use xlink:href="#CMR17-31" transform="translate(167.147489 0) scale(0.996264)"/>
      <use xlink:href="#CMR17-30" transform="translate(212.837966 0) scale(0.996264)"/>
      <use xlink:href="#CMR17-2e" transform="translate(258.528443 0) scale(0.996264)"/>
      <use xlink:href="#CMR17-30" transform="translate(283.399502 0) scale(0.996264)"/>
      <use xlink:href="#CMR17-30" transform="translate(329.089979 0) scale(0.996264)"/>
     </g>
    </g>
    <g id="line2d_49">
     <path d="M 948.117672 236.222491 
L 962.117672 236.222491 
L 976.117672 236.222491 
" style="fill: none; stroke: #637939; stroke-width: 2; stroke-linecap: round"/>
    </g>
    <g id="text_23">
     <!-- t = 50.00 -->
     <g style="fill: #262626" transform="translate(987.317672 241.122491) scale(0.14 -0.14)">
      <use xlink:href="#CMR17-74" transform="scale(0.996264)"/>
      <use xlink:href="#CMR17-3d" transform="translate(65.356734 0) scale(0.996264)"/>
      <use xlink:href="#CMR17-35" transform="translate(167.147489 0) scale(0.996264)"/>
      <use xlink:href="#CMR17-30" transform="translate(212.837966 0) scale(0.996264)"/>
      <use xlink:href="#CMR17-2e" transform="translate(258.528443 0) scale(0.996264)"/>
      <use xlink:href="#CMR17-30" transform="translate(283.399502 0) scale(0.996264)"/>
      <use xlink:href="#CMR17-30" transform="translate(329.089979 0) scale(0.996264)"/>
     </g>
    </g>
    <g id="line2d_50">
     <path d="M 948.117672 255.734519 
L 962.117672 255.734519 
L 976.117672 255.734519 
" style="fill: none; stroke: #b5cf6b; stroke-width: 2; stroke-linecap: round"/>
    </g>
    <g id="text_24">
     <!-- t = 100.00 -->
     <g style="fill: #262626" transform="translate(987.317672 260.634519) scale(0.14 -0.14)">
      <use xlink:href="#CMR17-74" transform="scale(0.996264)"/>
      <use xlink:href="#CMR17-3d" transform="translate(65.356734 0) scale(0.996264)"/>
      <use xlink:href="#CMR17-31" transform="translate(167.147489 0) scale(0.996264)"/>
      <use xlink:href="#CMR17-30" transform="translate(212.837966 0) scale(0.996264)"/>
      <use xlink:href="#CMR17-30" transform="translate(258.528443 0) scale(0.996264)"/>
      <use xlink:href="#CMR17-2e" transform="translate(304.21892 0) scale(0.996264)"/>
      <use xlink:href="#CMR17-30" transform="translate(329.089979 0) scale(0.996264)"/>
      <use xlink:href="#CMR17-30" transform="translate(374.780456 0) scale(0.996264)"/>
     </g>
    </g>
    <g id="line2d_51">
     <path d="M 948.117672 275.246547 
L 962.117672 275.246547 
L 976.117672 275.246547 
" style="fill: none; stroke: #8c6d31; stroke-width: 2; stroke-linecap: round"/>
    </g>
    <g id="text_25">
     <!-- t = 250.00 -->
     <g style="fill: #262626" transform="translate(987.317672 280.146547) scale(0.14 -0.14)">
      <use xlink:href="#CMR17-74" transform="scale(0.996264)"/>
      <use xlink:href="#CMR17-3d" transform="translate(65.356734 0) scale(0.996264)"/>
      <use xlink:href="#CMR17-32" transform="translate(167.147489 0) scale(0.996264)"/>
      <use xlink:href="#CMR17-35" transform="translate(212.837966 0) scale(0.996264)"/>
      <use xlink:href="#CMR17-30" transform="translate(258.528443 0) scale(0.996264)"/>
      <use xlink:href="#CMR17-2e" transform="translate(304.21892 0) scale(0.996264)"/>
      <use xlink:href="#CMR17-30" transform="translate(329.089979 0) scale(0.996264)"/>
      <use xlink:href="#CMR17-30" transform="translate(374.780456 0) scale(0.996264)"/>
     </g>
    </g>
    <g id="line2d_52">
     <path d="M 948.117672 294.758576 
L 962.117672 294.758576 
L 976.117672 294.758576 
" style="fill: none; stroke: #e7cb94; stroke-width: 2; stroke-linecap: round"/>
    </g>
    <g id="text_26">
     <!-- t = 500.00 -->
     <g style="fill: #262626" transform="translate(987.317672 299.658576) scale(0.14 -0.14)">
      <use xlink:href="#CMR17-74" transform="scale(0.996264)"/>
      <use xlink:href="#CMR17-3d" transform="translate(65.356734 0) scale(0.996264)"/>
      <use xlink:href="#CMR17-35" transform="translate(167.147489 0) scale(0.996264)"/>
      <use xlink:href="#CMR17-30" transform="translate(212.837966 0) scale(0.996264)"/>
      <use xlink:href="#CMR17-30" transform="translate(258.528443 0) scale(0.996264)"/>
      <use xlink:href="#CMR17-2e" transform="translate(304.21892 0) scale(0.996264)"/>
      <use xlink:href="#CMR17-30" transform="translate(329.089979 0) scale(0.996264)"/>
      <use xlink:href="#CMR17-30" transform="translate(374.780456 0) scale(0.996264)"/>
     </g>
    </g>
    <g id="line2d_53">
     <path d="M 948.117672 314.270604 
L 962.117672 314.270604 
L 976.117672 314.270604 
" style="fill: none; stroke: #ad494a; stroke-width: 2; stroke-linecap: round"/>
    </g>
    <g id="text_27">
     <!-- t = 750.00 -->
     <g style="fill: #262626" transform="translate(987.317672 319.170604) scale(0.14 -0.14)">
      <use xlink:href="#CMR17-74" transform="scale(0.996264)"/>
      <use xlink:href="#CMR17-3d" transform="translate(65.356734 0) scale(0.996264)"/>
      <use xlink:href="#CMR17-37" transform="translate(167.147489 0) scale(0.996264)"/>
      <use xlink:href="#CMR17-35" transform="translate(212.837966 0) scale(0.996264)"/>
      <use xlink:href="#CMR17-30" transform="translate(258.528443 0) scale(0.996264)"/>
      <use xlink:href="#CMR17-2e" transform="translate(304.21892 0) scale(0.996264)"/>
      <use xlink:href="#CMR17-30" transform="translate(329.089979 0) scale(0.996264)"/>
      <use xlink:href="#CMR17-30" transform="translate(374.780456 0) scale(0.996264)"/>
     </g>
    </g>
    <g id="line2d_54">
     <path d="M 948.117672 333.782633 
L 962.117672 333.782633 
L 976.117672 333.782633 
" style="fill: none; stroke: #e7969c; stroke-width: 2; stroke-linecap: round"/>
    </g>
    <g id="text_28">
     <!-- t = 1000.00 -->
     <g style="fill: #262626" transform="translate(987.317672 338.682633) scale(0.14 -0.14)">
      <use xlink:href="#CMR17-74" transform="scale(0.996264)"/>
      <use xlink:href="#CMR17-3d" transform="translate(65.356734 0) scale(0.996264)"/>
      <use xlink:href="#CMR17-31" transform="translate(167.147489 0) scale(0.996264)"/>
      <use xlink:href="#CMR17-30" transform="translate(212.837966 0) scale(0.996264)"/>
      <use xlink:href="#CMR17-30" transform="translate(258.528443 0) scale(0.996264)"/>
      <use xlink:href="#CMR17-30" transform="translate(304.21892 0) scale(0.996264)"/>
      <use xlink:href="#CMR17-2e" transform="translate(349.909397 0) scale(0.996264)"/>
      <use xlink:href="#CMR17-30" transform="translate(374.780456 0) scale(0.996264)"/>
      <use xlink:href="#CMR17-30" transform="translate(420.470933 0) scale(0.996264)"/>
     </g>
    </g>
    <g id="line2d_55">
     <path d="M 948.117672 353.294661 
L 962.117672 353.294661 
L 976.117672 353.294661 
" style="fill: none; stroke: #a55194; stroke-width: 2; stroke-linecap: round"/>
    </g>
    <g id="text_29">
     <!-- t = 1250.00 -->
     <g style="fill: #262626" transform="translate(987.317672 358.194661) scale(0.14 -0.14)">
      <use xlink:href="#CMR17-74" transform="scale(0.996264)"/>
      <use xlink:href="#CMR17-3d" transform="translate(65.356734 0) scale(0.996264)"/>
      <use xlink:href="#CMR17-31" transform="translate(167.147489 0) scale(0.996264)"/>
      <use xlink:href="#CMR17-32" transform="translate(212.837966 0) scale(0.996264)"/>
      <use xlink:href="#CMR17-35" transform="translate(258.528443 0) scale(0.996264)"/>
      <use xlink:href="#CMR17-30" transform="translate(304.21892 0) scale(0.996264)"/>
      <use xlink:href="#CMR17-2e" transform="translate(349.909397 0) scale(0.996264)"/>
      <use xlink:href="#CMR17-30" transform="translate(374.780456 0) scale(0.996264)"/>
      <use xlink:href="#CMR17-30" transform="translate(420.470933 0) scale(0.996264)"/>
     </g>
    </g>
    <g id="line2d_56">
     <path d="M 948.117672 372.806689 
L 962.117672 372.806689 
L 976.117672 372.806689 
" style="fill: none; stroke: #de9ed6; stroke-width: 2; stroke-linecap: round"/>
    </g>
    <g id="text_30">
     <!-- t = 1500.00 -->
     <g style="fill: #262626" transform="translate(987.317672 377.706689) scale(0.14 -0.14)">
      <use xlink:href="#CMR17-74" transform="scale(0.996264)"/>
      <use xlink:href="#CMR17-3d" transform="translate(65.356734 0) scale(0.996264)"/>
      <use xlink:href="#CMR17-31" transform="translate(167.147489 0) scale(0.996264)"/>
      <use xlink:href="#CMR17-35" transform="translate(212.837966 0) scale(0.996264)"/>
      <use xlink:href="#CMR17-30" transform="translate(258.528443 0) scale(0.996264)"/>
      <use xlink:href="#CMR17-30" transform="translate(304.21892 0) scale(0.996264)"/>
      <use xlink:href="#CMR17-2e" transform="translate(349.909397 0) scale(0.996264)"/>
      <use xlink:href="#CMR17-30" transform="translate(374.780456 0) scale(0.996264)"/>
      <use xlink:href="#CMR17-30" transform="translate(420.470933 0) scale(0.996264)"/>
     </g>
    </g>
   </g>
  </g>
  <g id="text_31">
   <!-- permeability -->
   <g style="fill: #262626" transform="translate(492.111452 24.803515) scale(0.192 -0.192)">
    <defs>
     <path id="CMR17-70" d="M 1408 -1063 
C 998 -1063 973 -1037 973 -789 
L 973 402 
C 1158 134 1427 -38 1766 -38 
C 2406 -38 3053 523 3053 1388 
C 3053 2191 2496 2802 1837 2802 
C 1453 2802 1139 2592 960 2338 
L 960 2802 
L 198 2732 
L 198 2567 
C 576 2567 634 2528 634 2223 
L 634 -789 
C 634 -1031 608 -1063 198 -1063 
L 198 -1228 
C 352 -1216 634 -1216 800 -1216 
C 966 -1216 1254 -1216 1408 -1228 
L 1408 -1063 
z
M 973 2012 
C 973 2102 973 2235 1222 2471 
C 1254 2497 1472 2688 1792 2688 
C 2259 2688 2643 2108 2643 1382 
C 2643 656 2234 64 1728 64 
C 1498 64 1248 172 1056 472 
C 973 612 973 650 973 752 
L 973 2012 
z
" transform="scale(0.015625)"/>
     <path id="CMR17-72" d="M 960 1497 
C 960 2112 1222 2688 1702 2688 
C 1747 2688 1792 2682 1837 2662 
C 1837 2662 1696 2617 1696 2452 
C 1696 2298 1818 2234 1914 2234 
C 1990 2234 2131 2279 2131 2458 
C 2131 2663 1926 2790 1709 2790 
C 1222 2790 1011 2317 947 2093 
L 941 2093 
L 941 2790 
L 198 2720 
L 198 2554 
C 576 2554 634 2515 634 2208 
L 634 428 
C 634 184 608 153 198 153 
L 198 -13 
C 352 0 646 0 813 0 
C 998 0 1325 0 1498 -13 
L 1498 153 
C 1037 153 960 153 960 440 
L 960 1497 
z
" transform="scale(0.015625)"/>
     <path id="CMR17-61" d="M 2304 1653 
C 2304 2072 2304 2294 2035 2543 
C 1798 2752 1523 2816 1306 2816 
C 800 2816 435 2407 435 1971 
C 435 1728 627 1728 666 1728 
C 749 1728 896 1778 896 1954 
C 896 2112 774 2181 666 2181 
C 640 2181 608 2174 589 2168 
C 723 2592 1069 2714 1293 2714 
C 1613 2714 1965 2429 1965 1885 
L 1965 1600 
C 1587 1600 1133 1549 774 1357 
C 371 1133 256 813 256 570 
C 256 77 832 -64 1171 -64 
C 1523 -64 1850 139 1990 511 
C 2003 233 2182 -18 2464 -18 
C 2598 -18 2938 70 2938 567 
L 2938 920 
L 2822 920 
L 2822 562 
C 2822 178 2650 128 2566 128 
C 2304 128 2304 458 2304 738 
L 2304 1653 
z
M 1965 870 
C 1965 317 1568 38 1216 38 
C 896 38 646 275 646 570 
C 646 761 730 1100 1101 1305 
C 1408 1478 1760 1504 1965 1504 
L 1965 870 
z
" transform="scale(0.015625)"/>
     <path id="CMR17-62" d="M 960 4396 
L 198 4326 
L 198 4160 
C 576 4160 634 4122 634 3817 
L 634 -13 
L 749 -13 
L 934 441 
C 1120 141 1395 -64 1766 -64 
C 2406 -64 3053 500 3053 1370 
C 3053 2188 2477 2790 1830 2790 
C 1434 2790 1152 2579 960 2330 
L 960 4396 
z
M 973 2004 
C 973 2118 973 2138 1062 2272 
C 1312 2657 1670 2688 1792 2688 
C 1984 2688 2643 2585 2643 1376 
C 2643 108 1888 38 1734 38 
C 1536 38 1248 114 1043 486 
C 973 608 973 621 973 735 
L 973 2004 
z
" transform="scale(0.015625)"/>
     <path id="CMR17-6c" d="M 979 4396 
L 218 4326 
L 218 4160 
C 595 4160 653 4122 653 3817 
L 653 426 
C 653 184 627 153 218 153 
L 218 -13 
C 371 0 653 0 813 0 
C 979 0 1261 0 1414 -13 
L 1414 153 
C 1005 153 979 178 979 426 
L 979 4396 
z
" transform="scale(0.015625)"/>
     <path id="CMR17-79" d="M 2496 2197 
C 2656 2586 2944 2586 3034 2586 
L 3034 2752 
C 2912 2752 2752 2752 2630 2752 
C 2496 2752 2285 2752 2157 2758 
L 2157 2592 
C 2400 2573 2406 2394 2406 2343 
C 2406 2280 2394 2248 2362 2171 
L 1664 449 
L 902 2306 
C 870 2382 870 2426 870 2433 
C 870 2573 1018 2586 1171 2586 
L 1171 2758 
C 1018 2752 742 2752 582 2752 
C 410 2752 205 2752 64 2758 
L 64 2586 
C 410 2586 448 2554 531 2350 
L 1485 15 
C 1197 -738 1030 -1178 627 -1178 
C 557 -1178 397 -1159 282 -1044 
C 429 -1031 493 -942 493 -833 
C 493 -725 416 -629 288 -629 
C 147 -629 77 -725 77 -840 
C 77 -1095 339 -1280 627 -1280 
C 998 -1280 1229 -922 1357 -604 
L 2496 2197 
z
" transform="scale(0.015625)"/>
    </defs>
    <use xlink:href="#CMR17-70" transform="scale(0.996264)"/>
    <use xlink:href="#CMR17-65" transform="translate(53.497809 0) scale(0.996264)"/>
    <use xlink:href="#CMR17-72" transform="translate(93.983469 0) scale(0.996264)"/>
    <use xlink:href="#CMR17-6d" transform="translate(129.264237 0) scale(0.996264)"/>
    <use xlink:href="#CMR17-65" transform="translate(206.183827 0) scale(0.996264)"/>
    <use xlink:href="#CMR17-61" transform="translate(246.669487 0) scale(0.996264)"/>
    <use xlink:href="#CMR17-62" transform="translate(292.359964 0) scale(0.996264)"/>
    <use xlink:href="#CMR17-69" transform="translate(343.255334 0) scale(0.996264)"/>
    <use xlink:href="#CMR17-6c" transform="translate(368.126392 0) scale(0.996264)"/>
    <use xlink:href="#CMR17-69" transform="translate(392.997451 0) scale(0.996264)"/>
    <use xlink:href="#CMR17-74" transform="translate(417.868509 0) scale(0.996264)"/>
    <use xlink:href="#CMR17-79" transform="translate(450.546823 0) scale(0.996264)"/>
   </g>
  </g>
 </g>
 <defs>
  <clipPath id="pc742bcb17c">
   <rect x="48.559071" y="51.564121" width="886.958601" height="469.58891"/>
  </clipPath>
 </defs>
</svg>
