<?xml version="1.0" encoding="utf-8" standalone="no"?>
<!DOCTYPE svg PUBLIC "-//W3C//DTD SVG 1.1//EN"
  "http://www.w3.org/Graphics/SVG/1.1/DTD/svg11.dtd">
<svg xmlns:xlink="http://www.w3.org/1999/xlink" width="1080pt" height="576pt" viewBox="0 0 1080 576" xmlns="http://www.w3.org/2000/svg" version="1.1">
 <metadata>
  <rdf:RDF xmlns:dc="http://purl.org/dc/elements/1.1/" xmlns:cc="http://creativecommons.org/ns#" xmlns:rdf="http://www.w3.org/1999/02/22-rdf-syntax-ns#">
   <cc:Work>
    <dc:type rdf:resource="http://purl.org/dc/dcmitype/StillImage"/>
    <dc:date>2024-06-28T12:10:57.298814</dc:date>
    <dc:format>image/svg+xml</dc:format>
    <dc:creator>
     <cc:Agent>
      <dc:title>Matplotlib v3.9.0, https://matplotlib.org/</dc:title>
     </cc:Agent>
    </dc:creator>
   </cc:Work>
  </rdf:RDF>
 </metadata>
 <defs>
  <style type="text/css">*{stroke-linejoin: round; stroke-linecap: butt}</style>
 </defs>
 <g id="figure_1">
  <g id="patch_1">
   <path d="M 0 576 
L 1080 576 
L 1080 0 
L 0 0 
z
" style="fill: #ffffff"/>
  </g>
  <g id="axes_1">
   <g id="patch_2">
    <path d="M 48.559071 521.153031 
L 935.517672 521.153031 
L 935.517672 51.564121 
L 48.559071 51.564121 
z
" style="fill: #eaeaf2"/>
   </g>
   <g id="matplotlib.axis_1">
    <g id="xtick_1">
     <g id="line2d_1">
      <path d="M 48.559071 521.153031 
L 48.559071 51.564121 
" clip-path="url(#pfe14168ba0)" style="fill: none; stroke: #ffffff; stroke-linecap: round"/>
     </g>
     <g id="line2d_2"/>
     <g id="text_1">
      <!-- $\mathdefault{0.00}$ -->
      <g style="fill: #262626" transform="translate(36.419535 537.838907) scale(0.14 -0.14)">
       <defs>
        <path id="CMR17-30" d="M 2688 2025 
C 2688 2416 2682 3080 2413 3591 
C 2176 4039 1798 4198 1466 4198 
C 1158 4198 768 4058 525 3597 
C 269 3118 243 2524 243 2025 
C 243 1661 250 1106 448 619 
C 723 -39 1216 -128 1466 -128 
C 1760 -128 2208 -7 2470 600 
C 2662 1042 2688 1559 2688 2025 
z
M 1466 -26 
C 1056 -26 813 325 723 812 
C 653 1188 653 1738 653 2096 
C 653 2588 653 2997 736 3387 
C 858 3929 1216 4096 1466 4096 
C 1728 4096 2067 3923 2189 3400 
C 2272 3036 2278 2607 2278 2096 
C 2278 1680 2278 1169 2202 792 
C 2067 95 1690 -26 1466 -26 
z
" transform="scale(0.015625)"/>
        <path id="CMMI12-3a" d="M 1178 307 
C 1178 492 1024 619 870 619 
C 685 619 557 466 557 313 
C 557 128 710 0 864 0 
C 1050 0 1178 153 1178 307 
z
" transform="scale(0.015625)"/>
       </defs>
       <use xlink:href="#CMR17-30" transform="scale(0.996264)"/>
       <use xlink:href="#CMMI12-3a" transform="translate(45.690477 0) scale(0.996264)"/>
       <use xlink:href="#CMR17-30" transform="translate(72.787654 0) scale(0.996264)"/>
       <use xlink:href="#CMR17-30" transform="translate(118.478131 0) scale(0.996264)"/>
      </g>
     </g>
    </g>
    <g id="xtick_2">
     <g id="line2d_3">
      <path d="M 154.14938 521.153031 
L 154.14938 51.564121 
" clip-path="url(#pfe14168ba0)" style="fill: none; stroke: #ffffff; stroke-linecap: round"/>
     </g>
     <g id="line2d_4"/>
     <g id="text_2">
      <!-- $\mathdefault{0.25}$ -->
      <g style="fill: #262626" transform="translate(142.009845 537.838907) scale(0.14 -0.14)">
       <defs>
        <path id="CMR17-32" d="M 2669 989 
L 2554 989 
C 2490 536 2438 459 2413 420 
C 2381 369 1920 369 1830 369 
L 602 369 
C 832 619 1280 1072 1824 1597 
C 2214 1967 2669 2402 2669 3035 
C 2669 3790 2067 4224 1395 4224 
C 691 4224 262 3604 262 3030 
C 262 2780 448 2748 525 2748 
C 589 2748 781 2787 781 3010 
C 781 3207 614 3264 525 3264 
C 486 3264 448 3258 422 3245 
C 544 3790 915 4058 1306 4058 
C 1862 4058 2227 3617 2227 3035 
C 2227 2479 1901 2000 1536 1584 
L 262 146 
L 262 0 
L 2515 0 
L 2669 989 
z
" transform="scale(0.015625)"/>
        <path id="CMR17-35" d="M 730 3692 
C 794 3666 1056 3584 1325 3584 
C 1920 3584 2246 3911 2432 4100 
C 2432 4157 2432 4192 2394 4192 
C 2387 4192 2374 4192 2323 4163 
C 2099 4058 1837 3973 1517 3973 
C 1325 3973 1037 3999 723 4139 
C 653 4171 640 4171 634 4171 
C 602 4171 595 4164 595 4037 
L 595 2203 
C 595 2089 595 2057 659 2057 
C 691 2057 704 2070 736 2114 
C 941 2401 1222 2522 1542 2522 
C 1766 2522 2246 2382 2246 1289 
C 2246 1085 2246 715 2054 421 
C 1894 159 1645 25 1370 25 
C 947 25 518 320 403 814 
C 429 807 480 795 506 795 
C 589 795 749 840 749 1038 
C 749 1210 627 1280 506 1280 
C 358 1280 262 1190 262 1011 
C 262 454 704 -128 1382 -128 
C 2042 -128 2669 440 2669 1264 
C 2669 2030 2170 2624 1549 2624 
C 1222 2624 947 2503 730 2274 
L 730 3692 
z
" transform="scale(0.015625)"/>
       </defs>
       <use xlink:href="#CMR17-30" transform="scale(0.996264)"/>
       <use xlink:href="#CMMI12-3a" transform="translate(45.690477 0) scale(0.996264)"/>
       <use xlink:href="#CMR17-32" transform="translate(72.787654 0) scale(0.996264)"/>
       <use xlink:href="#CMR17-35" transform="translate(118.478131 0) scale(0.996264)"/>
      </g>
     </g>
    </g>
    <g id="xtick_3">
     <g id="line2d_5">
      <path d="M 259.73969 521.153031 
L 259.73969 51.564121 
" clip-path="url(#pfe14168ba0)" style="fill: none; stroke: #ffffff; stroke-linecap: round"/>
     </g>
     <g id="line2d_6"/>
     <g id="text_3">
      <!-- $\mathdefault{0.50}$ -->
      <g style="fill: #262626" transform="translate(247.600155 537.838907) scale(0.14 -0.14)">
       <use xlink:href="#CMR17-30" transform="scale(0.996264)"/>
       <use xlink:href="#CMMI12-3a" transform="translate(45.690477 0) scale(0.996264)"/>
       <use xlink:href="#CMR17-35" transform="translate(72.787654 0) scale(0.996264)"/>
       <use xlink:href="#CMR17-30" transform="translate(118.478131 0) scale(0.996264)"/>
      </g>
     </g>
    </g>
    <g id="xtick_4">
     <g id="line2d_7">
      <path d="M 365.33 521.153031 
L 365.33 51.564121 
" clip-path="url(#pfe14168ba0)" style="fill: none; stroke: #ffffff; stroke-linecap: round"/>
     </g>
     <g id="line2d_8"/>
     <g id="text_4">
      <!-- $\mathdefault{0.75}$ -->
      <g style="fill: #262626" transform="translate(353.190464 537.838907) scale(0.14 -0.14)">
       <defs>
        <path id="CMR17-37" d="M 2886 3941 
L 2886 4081 
L 1382 4081 
C 634 4081 621 4165 595 4288 
L 480 4288 
L 294 3094 
L 410 3094 
C 429 3215 474 3540 550 3661 
C 589 3712 1062 3712 1171 3712 
L 2579 3712 
L 1869 2661 
C 1395 1954 1069 999 1069 165 
C 1069 89 1069 -128 1299 -128 
C 1530 -128 1530 89 1530 171 
L 1530 465 
C 1530 1508 1709 2196 2003 2636 
L 2886 3941 
z
" transform="scale(0.015625)"/>
       </defs>
       <use xlink:href="#CMR17-30" transform="scale(0.996264)"/>
       <use xlink:href="#CMMI12-3a" transform="translate(45.690477 0) scale(0.996264)"/>
       <use xlink:href="#CMR17-37" transform="translate(72.787654 0) scale(0.996264)"/>
       <use xlink:href="#CMR17-35" transform="translate(118.478131 0) scale(0.996264)"/>
      </g>
     </g>
    </g>
    <g id="xtick_5">
     <g id="line2d_9">
      <path d="M 470.920309 521.153031 
L 470.920309 51.564121 
" clip-path="url(#pfe14168ba0)" style="fill: none; stroke: #ffffff; stroke-linecap: round"/>
     </g>
     <g id="line2d_10"/>
     <g id="text_5">
      <!-- $\mathdefault{1.00}$ -->
      <g style="fill: #262626" transform="translate(458.780774 537.838907) scale(0.14 -0.14)">
       <defs>
        <path id="CMR17-31" d="M 1702 4058 
C 1702 4192 1696 4192 1606 4192 
C 1357 3916 979 3827 621 3827 
C 602 3827 570 3827 563 3808 
C 557 3795 557 3782 557 3648 
C 755 3648 1088 3686 1344 3839 
L 1344 461 
C 1344 236 1331 160 781 160 
L 589 160 
L 589 0 
C 896 0 1216 0 1523 0 
C 1830 0 2150 0 2458 0 
L 2458 160 
L 2266 160 
C 1715 160 1702 230 1702 458 
L 1702 4058 
z
" transform="scale(0.015625)"/>
       </defs>
       <use xlink:href="#CMR17-31" transform="scale(0.996264)"/>
       <use xlink:href="#CMMI12-3a" transform="translate(45.690477 0) scale(0.996264)"/>
       <use xlink:href="#CMR17-30" transform="translate(72.787654 0) scale(0.996264)"/>
       <use xlink:href="#CMR17-30" transform="translate(118.478131 0) scale(0.996264)"/>
      </g>
     </g>
    </g>
    <g id="xtick_6">
     <g id="line2d_11">
      <path d="M 576.510619 521.153031 
L 576.510619 51.564121 
" clip-path="url(#pfe14168ba0)" style="fill: none; stroke: #ffffff; stroke-linecap: round"/>
     </g>
     <g id="line2d_12"/>
     <g id="text_6">
      <!-- $\mathdefault{1.25}$ -->
      <g style="fill: #262626" transform="translate(564.371084 537.838907) scale(0.14 -0.14)">
       <use xlink:href="#CMR17-31" transform="scale(0.996264)"/>
       <use xlink:href="#CMMI12-3a" transform="translate(45.690477 0) scale(0.996264)"/>
       <use xlink:href="#CMR17-32" transform="translate(72.787654 0) scale(0.996264)"/>
       <use xlink:href="#CMR17-35" transform="translate(118.478131 0) scale(0.996264)"/>
      </g>
     </g>
    </g>
    <g id="xtick_7">
     <g id="line2d_13">
      <path d="M 682.100929 521.153031 
L 682.100929 51.564121 
" clip-path="url(#pfe14168ba0)" style="fill: none; stroke: #ffffff; stroke-linecap: round"/>
     </g>
     <g id="line2d_14"/>
     <g id="text_7">
      <!-- $\mathdefault{1.50}$ -->
      <g style="fill: #262626" transform="translate(669.961393 537.838907) scale(0.14 -0.14)">
       <use xlink:href="#CMR17-31" transform="scale(0.996264)"/>
       <use xlink:href="#CMMI12-3a" transform="translate(45.690477 0) scale(0.996264)"/>
       <use xlink:href="#CMR17-35" transform="translate(72.787654 0) scale(0.996264)"/>
       <use xlink:href="#CMR17-30" transform="translate(118.478131 0) scale(0.996264)"/>
      </g>
     </g>
    </g>
    <g id="xtick_8">
     <g id="line2d_15">
      <path d="M 787.691238 521.153031 
L 787.691238 51.564121 
" clip-path="url(#pfe14168ba0)" style="fill: none; stroke: #ffffff; stroke-linecap: round"/>
     </g>
     <g id="line2d_16"/>
     <g id="text_8">
      <!-- $\mathdefault{1.75}$ -->
      <g style="fill: #262626" transform="translate(775.551703 537.838907) scale(0.14 -0.14)">
       <use xlink:href="#CMR17-31" transform="scale(0.996264)"/>
       <use xlink:href="#CMMI12-3a" transform="translate(45.690477 0) scale(0.996264)"/>
       <use xlink:href="#CMR17-37" transform="translate(72.787654 0) scale(0.996264)"/>
       <use xlink:href="#CMR17-35" transform="translate(118.478131 0) scale(0.996264)"/>
      </g>
     </g>
    </g>
    <g id="xtick_9">
     <g id="line2d_17">
      <path d="M 893.281548 521.153031 
L 893.281548 51.564121 
" clip-path="url(#pfe14168ba0)" style="fill: none; stroke: #ffffff; stroke-linecap: round"/>
     </g>
     <g id="line2d_18"/>
     <g id="text_9">
      <!-- $\mathdefault{2.00}$ -->
      <g style="fill: #262626" transform="translate(881.142013 537.838907) scale(0.14 -0.14)">
       <use xlink:href="#CMR17-32" transform="scale(0.996264)"/>
       <use xlink:href="#CMMI12-3a" transform="translate(45.690477 0) scale(0.996264)"/>
       <use xlink:href="#CMR17-30" transform="translate(72.787654 0) scale(0.996264)"/>
       <use xlink:href="#CMR17-30" transform="translate(118.478131 0) scale(0.996264)"/>
      </g>
     </g>
    </g>
    <g id="text_10">
     <!-- $x$ -->
     <g style="fill: #262626" transform="translate(487.603646 555.620524) scale(0.16 -0.16)">
      <defs>
       <path id="CMMI12-78" d="M 3034 2606 
C 2829 2567 2752 2414 2752 2293 
C 2752 2139 2874 2088 2963 2088 
C 3155 2088 3290 2254 3290 2427 
C 3290 2695 2982 2816 2714 2816 
C 2323 2816 2106 2433 2048 2312 
C 1901 2816 1504 2816 1389 2816 
C 736 2816 390 1980 390 1839 
C 390 1814 416 1782 461 1782 
C 512 1782 525 1820 538 1846 
C 755 2555 1184 2689 1370 2689 
C 1658 2689 1715 2420 1715 2267 
C 1715 2127 1677 1980 1600 1673 
L 1382 798 
C 1286 415 1101 64 762 64 
C 730 64 570 64 435 147 
C 666 192 717 383 717 460 
C 717 588 621 664 499 664 
C 346 664 179 530 179 326 
C 179 57 480 -64 755 -64 
C 1062 -64 1280 179 1414 441 
C 1517 64 1837 -64 2074 -64 
C 2726 -64 3072 773 3072 913 
C 3072 945 3046 971 3008 971 
C 2950 971 2944 939 2925 888 
C 2752 326 2381 64 2093 64 
C 1869 64 1747 230 1747 492 
C 1747 632 1773 734 1875 1156 
L 2099 2024 
C 2195 2408 2413 2689 2707 2689 
C 2720 2689 2899 2689 3034 2606 
z
" transform="scale(0.015625)"/>
      </defs>
      <use xlink:href="#CMMI12-78" transform="scale(0.996264)"/>
     </g>
    </g>
   </g>
   <g id="matplotlib.axis_2">
    <g id="ytick_1">
     <g id="line2d_19">
      <path d="M 48.559071 521.153031 
L 935.517672 521.153031 
" clip-path="url(#pfe14168ba0)" style="fill: none; stroke: #ffffff; stroke-linecap: round"/>
     </g>
     <g id="line2d_20"/>
     <g id="text_11">
      <!-- $\mathdefault{0.00}$ -->
      <g style="fill: #262626" transform="translate(17.28 525.995969) scale(0.14 -0.14)">
       <use xlink:href="#CMR17-30" transform="scale(0.996264)"/>
       <use xlink:href="#CMMI12-3a" transform="translate(45.690477 0) scale(0.996264)"/>
       <use xlink:href="#CMR17-30" transform="translate(72.787654 0) scale(0.996264)"/>
       <use xlink:href="#CMR17-30" transform="translate(118.478131 0) scale(0.996264)"/>
      </g>
     </g>
    </g>
    <g id="ytick_2">
     <g id="line2d_21">
      <path d="M 48.559071 465.258471 
L 935.517672 465.258471 
" clip-path="url(#pfe14168ba0)" style="fill: none; stroke: #ffffff; stroke-linecap: round"/>
     </g>
     <g id="line2d_22"/>
     <g id="text_12">
      <!-- $\mathdefault{0.25}$ -->
      <g style="fill: #262626" transform="translate(17.28 470.101409) scale(0.14 -0.14)">
       <use xlink:href="#CMR17-30" transform="scale(0.996264)"/>
       <use xlink:href="#CMMI12-3a" transform="translate(45.690477 0) scale(0.996264)"/>
       <use xlink:href="#CMR17-32" transform="translate(72.787654 0) scale(0.996264)"/>
       <use xlink:href="#CMR17-35" transform="translate(118.478131 0) scale(0.996264)"/>
      </g>
     </g>
    </g>
    <g id="ytick_3">
     <g id="line2d_23">
      <path d="M 48.559071 409.363912 
L 935.517672 409.363912 
" clip-path="url(#pfe14168ba0)" style="fill: none; stroke: #ffffff; stroke-linecap: round"/>
     </g>
     <g id="line2d_24"/>
     <g id="text_13">
      <!-- $\mathdefault{0.50}$ -->
      <g style="fill: #262626" transform="translate(17.28 414.20685) scale(0.14 -0.14)">
       <use xlink:href="#CMR17-30" transform="scale(0.996264)"/>
       <use xlink:href="#CMMI12-3a" transform="translate(45.690477 0) scale(0.996264)"/>
       <use xlink:href="#CMR17-35" transform="translate(72.787654 0) scale(0.996264)"/>
       <use xlink:href="#CMR17-30" transform="translate(118.478131 0) scale(0.996264)"/>
      </g>
     </g>
    </g>
    <g id="ytick_4">
     <g id="line2d_25">
      <path d="M 48.559071 353.469352 
L 935.517672 353.469352 
" clip-path="url(#pfe14168ba0)" style="fill: none; stroke: #ffffff; stroke-linecap: round"/>
     </g>
     <g id="line2d_26"/>
     <g id="text_14">
      <!-- $\mathdefault{0.75}$ -->
      <g style="fill: #262626" transform="translate(17.28 358.312291) scale(0.14 -0.14)">
       <use xlink:href="#CMR17-30" transform="scale(0.996264)"/>
       <use xlink:href="#CMMI12-3a" transform="translate(45.690477 0) scale(0.996264)"/>
       <use xlink:href="#CMR17-37" transform="translate(72.787654 0) scale(0.996264)"/>
       <use xlink:href="#CMR17-35" transform="translate(118.478131 0) scale(0.996264)"/>
      </g>
     </g>
    </g>
    <g id="ytick_5">
     <g id="line2d_27">
      <path d="M 48.559071 297.574793 
L 935.517672 297.574793 
" clip-path="url(#pfe14168ba0)" style="fill: none; stroke: #ffffff; stroke-linecap: round"/>
     </g>
     <g id="line2d_28"/>
     <g id="text_15">
      <!-- $\mathdefault{1.00}$ -->
      <g style="fill: #262626" transform="translate(17.28 302.417731) scale(0.14 -0.14)">
       <use xlink:href="#CMR17-31" transform="scale(0.996264)"/>
       <use xlink:href="#CMMI12-3a" transform="translate(45.690477 0) scale(0.996264)"/>
       <use xlink:href="#CMR17-30" transform="translate(72.787654 0) scale(0.996264)"/>
       <use xlink:href="#CMR17-30" transform="translate(118.478131 0) scale(0.996264)"/>
      </g>
     </g>
    </g>
    <g id="ytick_6">
     <g id="line2d_29">
      <path d="M 48.559071 241.680234 
L 935.517672 241.680234 
" clip-path="url(#pfe14168ba0)" style="fill: none; stroke: #ffffff; stroke-linecap: round"/>
     </g>
     <g id="line2d_30"/>
     <g id="text_16">
      <!-- $\mathdefault{1.25}$ -->
      <g style="fill: #262626" transform="translate(17.28 246.523172) scale(0.14 -0.14)">
       <use xlink:href="#CMR17-31" transform="scale(0.996264)"/>
       <use xlink:href="#CMMI12-3a" transform="translate(45.690477 0) scale(0.996264)"/>
       <use xlink:href="#CMR17-32" transform="translate(72.787654 0) scale(0.996264)"/>
       <use xlink:href="#CMR17-35" transform="translate(118.478131 0) scale(0.996264)"/>
      </g>
     </g>
    </g>
    <g id="ytick_7">
     <g id="line2d_31">
      <path d="M 48.559071 185.785674 
L 935.517672 185.785674 
" clip-path="url(#pfe14168ba0)" style="fill: none; stroke: #ffffff; stroke-linecap: round"/>
     </g>
     <g id="line2d_32"/>
     <g id="text_17">
      <!-- $\mathdefault{1.50}$ -->
      <g style="fill: #262626" transform="translate(17.28 190.628612) scale(0.14 -0.14)">
       <use xlink:href="#CMR17-31" transform="scale(0.996264)"/>
       <use xlink:href="#CMMI12-3a" transform="translate(45.690477 0) scale(0.996264)"/>
       <use xlink:href="#CMR17-35" transform="translate(72.787654 0) scale(0.996264)"/>
       <use xlink:href="#CMR17-30" transform="translate(118.478131 0) scale(0.996264)"/>
      </g>
     </g>
    </g>
    <g id="ytick_8">
     <g id="line2d_33">
      <path d="M 48.559071 129.891115 
L 935.517672 129.891115 
" clip-path="url(#pfe14168ba0)" style="fill: none; stroke: #ffffff; stroke-linecap: round"/>
     </g>
     <g id="line2d_34"/>
     <g id="text_18">
      <!-- $\mathdefault{1.75}$ -->
      <g style="fill: #262626" transform="translate(17.28 134.734053) scale(0.14 -0.14)">
       <use xlink:href="#CMR17-31" transform="scale(0.996264)"/>
       <use xlink:href="#CMMI12-3a" transform="translate(45.690477 0) scale(0.996264)"/>
       <use xlink:href="#CMR17-37" transform="translate(72.787654 0) scale(0.996264)"/>
       <use xlink:href="#CMR17-35" transform="translate(118.478131 0) scale(0.996264)"/>
      </g>
     </g>
    </g>
    <g id="ytick_9">
     <g id="line2d_35">
      <path d="M 48.559071 73.996555 
L 935.517672 73.996555 
" clip-path="url(#pfe14168ba0)" style="fill: none; stroke: #ffffff; stroke-linecap: round"/>
     </g>
     <g id="line2d_36"/>
     <g id="text_19">
      <!-- $\mathdefault{2.00}$ -->
      <g style="fill: #262626" transform="translate(17.28 78.839494) scale(0.14 -0.14)">
       <use xlink:href="#CMR17-32" transform="scale(0.996264)"/>
       <use xlink:href="#CMMI12-3a" transform="translate(45.690477 0) scale(0.996264)"/>
       <use xlink:href="#CMR17-30" transform="translate(72.787654 0) scale(0.996264)"/>
       <use xlink:href="#CMR17-30" transform="translate(118.478131 0) scale(0.996264)"/>
      </g>
     </g>
    </g>
   </g>
   <g id="line2d_37">
    <path d="M 48.559071 73.996555 
L 57.006295 73.996555 
L 65.45352 73.996555 
L 73.900745 73.996555 
L 82.34797 73.996555 
L 90.795195 73.996555 
L 99.242419 73.996555 
L 107.689644 73.996555 
L 116.136869 73.996555 
L 124.584094 73.996555 
L 133.031318 73.996555 
L 141.478543 73.996555 
L 149.925768 73.996555 
L 158.372993 73.996555 
L 166.820217 73.996555 
L 175.267442 73.996555 
L 183.714667 73.996555 
L 192.161892 73.996555 
L 200.609117 73.996555 
L 209.056341 73.996555 
L 217.503566 73.996555 
L 225.950791 73.996555 
L 234.398016 73.996555 
L 242.84524 73.996555 
L 251.292465 73.996555 
L 259.73969 73.996555 
L 268.186915 73.996555 
L 276.63414 73.996555 
L 285.081364 73.996555 
L 293.528589 73.996555 
L 301.975814 73.996555 
L 310.423039 73.996555 
L 318.870263 73.996555 
L 327.317488 73.996555 
L 335.764713 73.996555 
L 344.211938 73.996555 
L 352.659162 73.996555 
L 361.106387 73.996555 
L 369.553612 73.996555 
L 378.000837 73.996555 
L 386.448062 73.996555 
L 394.895286 73.996555 
L 403.342511 73.996555 
L 411.789736 73.996555 
L 420.236961 73.996555 
L 428.684185 73.996555 
L 437.13141 73.996555 
L 445.578635 73.996555 
L 454.02586 73.996555 
L 462.473085 73.996555 
L 470.920309 73.996555 
L 479.367534 73.996555 
L 487.814759 73.996555 
L 496.261984 73.996555 
L 504.709208 73.996555 
L 513.156433 73.996555 
L 521.603658 73.996555 
L 530.050883 73.996555 
L 538.498107 73.996555 
L 546.945332 73.996555 
L 555.392557 73.996555 
L 563.839782 73.996555 
L 572.287007 73.996555 
L 580.734231 73.996555 
L 589.181456 73.996555 
L 597.628681 73.996555 
L 606.075906 73.996555 
L 614.52313 73.996555 
L 622.970355 73.996555 
L 631.41758 73.996555 
L 639.864805 73.996555 
L 648.31203 73.996555 
L 656.759254 73.996555 
L 665.206479 73.996555 
L 673.653704 73.996555 
L 682.100929 73.996555 
L 690.548153 73.996555 
L 698.995378 73.996555 
L 707.442603 73.996555 
L 715.889828 73.996555 
L 724.337052 73.996555 
L 732.784277 73.996555 
L 741.231502 73.996555 
L 749.678727 73.996555 
L 758.125952 73.996555 
L 766.573176 73.996555 
L 775.020401 73.996555 
L 783.467626 73.996555 
L 791.914851 73.996555 
L 800.362075 73.996555 
L 808.8093 73.996555 
L 817.256525 73.996555 
L 825.70375 73.996555 
L 834.150975 73.996555 
L 842.598199 73.996555 
L 851.045424 73.996555 
L 859.492649 73.996555 
L 867.939874 73.996555 
L 876.387098 73.996555 
L 884.834323 73.996555 
L 893.281548 73.996555 
" clip-path="url(#pfe14168ba0)" style="fill: none; stroke: #393b79; stroke-width: 2; stroke-linecap: round"/>
   </g>
   <g id="line2d_38">
    <path d="M 48.559071 124.172371 
L 57.006295 123.954599 
L 65.45352 123.737911 
L 73.900745 123.521238 
L 82.34797 123.302986 
L 90.795195 123.085821 
L 99.242419 122.869739 
L 107.689644 122.654735 
L 116.136869 122.440799 
L 124.584094 122.227929 
L 133.031318 122.016122 
L 141.478543 121.805367 
L 149.925768 121.595658 
L 158.372993 121.386988 
L 166.820217 121.179358 
L 175.267442 120.972757 
L 183.714667 120.767179 
L 192.161892 120.562625 
L 200.609117 120.359084 
L 209.056341 120.156551 
L 217.503566 119.955019 
L 225.950791 119.754482 
L 234.398016 119.554936 
L 242.84524 119.356375 
L 251.292465 119.158801 
L 259.73969 118.961422 
L 268.186915 118.762391 
L 276.63414 118.56434 
L 285.081364 118.367265 
L 293.528589 118.17116 
L 301.975814 117.976021 
L 310.423039 117.781841 
L 318.870263 117.588618 
L 327.317488 117.396348 
L 335.764713 117.20503 
L 344.211938 117.014652 
L 352.659162 116.825212 
L 361.106387 116.636703 
L 369.553612 116.449118 
L 378.000837 116.262454 
L 386.448062 116.076705 
L 394.895286 115.891867 
L 403.342511 115.70794 
L 411.789736 115.524913 
L 420.236961 115.342783 
L 428.684185 115.161545 
L 437.13141 114.981197 
L 445.578635 114.801732 
L 454.02586 114.623143 
L 462.473085 114.445427 
L 470.920309 114.267131 
L 479.367534 114.088064 
L 487.814759 113.909873 
L 496.261984 113.732562 
L 504.709208 113.556118 
L 513.156433 113.380533 
L 521.603658 113.205805 
L 530.050883 113.031928 
L 538.498107 112.8589 
L 546.945332 112.686714 
L 555.392557 112.515367 
L 563.839782 112.344858 
L 572.287007 112.175177 
L 580.734231 112.006322 
L 589.181456 111.838287 
L 597.628681 111.671069 
L 606.075906 111.504668 
L 614.52313 111.339075 
L 622.970355 111.174286 
L 631.41758 111.010297 
L 639.864805 110.847108 
L 648.31203 110.68471 
L 656.759254 110.5231 
L 665.206479 110.362274 
L 673.653704 110.202228 
L 682.100929 110.042956 
L 690.548153 109.884456 
L 698.995378 109.726722 
L 707.442603 109.568981 
L 715.889828 109.410018 
L 724.337052 109.251825 
L 732.784277 109.0944 
L 741.231502 108.937735 
L 749.678727 108.781831 
L 758.125952 108.626681 
L 766.573176 108.472284 
L 775.020401 108.318633 
L 783.467626 108.165724 
L 791.914851 108.013552 
L 800.362075 107.862115 
L 808.8093 107.711407 
L 817.256525 107.561426 
L 825.70375 107.412167 
L 834.150975 107.263627 
L 842.598199 107.115804 
L 851.045424 106.968691 
L 859.492649 106.822287 
L 867.939874 106.676588 
L 876.387098 106.531589 
L 884.834323 106.387287 
L 893.281548 106.243679 
" clip-path="url(#pfe14168ba0)" style="fill: none; stroke: #6b6ecf; stroke-width: 2; stroke-linecap: round"/>
   </g>
   <g id="line2d_39">
    <path d="M 48.559071 264.475181 
L 57.006295 263.798539 
L 65.45352 263.126464 
L 73.900745 262.45888 
L 82.34797 261.787934 
L 90.795195 261.120073 
L 99.242419 260.456569 
L 107.689644 259.795197 
L 116.136869 259.131385 
L 124.584094 258.471979 
L 133.031318 257.816891 
L 141.478543 257.160861 
L 149.925768 256.505303 
L 158.372993 255.854129 
L 166.820217 255.207118 
L 175.267442 254.557094 
L 183.714667 253.909365 
L 192.161892 253.266014 
L 200.609117 252.626873 
L 209.056341 251.98358 
L 217.503566 251.34359 
L 225.950791 250.707769 
L 234.398016 250.076049 
L 242.84524 249.439995 
L 251.292465 248.807508 
L 259.73969 248.179123 
L 268.186915 247.554735 
L 276.63414 246.926652 
L 285.081364 246.301299 
L 293.528589 245.679904 
L 301.975814 245.06243 
L 310.423039 244.443099 
L 318.870263 243.824763 
L 327.317488 243.210294 
L 335.764713 242.599659 
L 344.211938 241.989616 
L 352.659162 241.377918 
L 361.106387 240.770075 
L 369.553612 240.16607 
L 378.000837 239.565873 
L 386.448062 238.96112 
L 394.895286 238.359669 
L 403.342511 237.762023 
L 411.789736 237.168017 
L 420.236961 236.574221 
L 428.684185 235.979019 
L 437.13141 235.387442 
L 445.578635 234.799601 
L 454.02586 234.21535 
L 462.473085 233.628463 
L 470.920309 233.042828 
L 479.367534 232.460746 
L 487.814759 231.882289 
L 496.261984 231.307357 
L 504.709208 230.728269 
L 513.156433 230.151963 
L 521.603658 229.579135 
L 530.050883 229.009733 
L 538.498107 228.443746 
L 546.945332 227.873364 
L 555.392557 227.305965 
L 563.839782 226.741983 
L 572.287007 226.181385 
L 580.734231 225.62412 
L 589.181456 225.063417 
L 597.628681 224.504622 
L 606.075906 223.949154 
L 614.52313 223.397032 
L 622.970355 222.848165 
L 631.41758 222.298088 
L 639.864805 221.747582 
L 648.31203 221.200369 
L 656.759254 220.65641 
L 665.206479 220.115649 
L 673.653704 219.577262 
L 682.100929 219.034763 
L 690.548153 218.495465 
L 698.995378 217.959381 
L 707.442603 217.426464 
L 715.889828 216.896616 
L 724.337052 216.366155 
L 732.784277 215.834495 
L 741.231502 215.305914 
L 749.678727 214.780467 
L 758.125952 214.258279 
L 766.573176 213.739065 
L 775.020401 213.217816 
L 783.467626 212.696698 
L 791.914851 212.178536 
L 800.362075 211.663313 
L 808.8093 211.151066 
L 817.256525 210.641802 
L 825.70375 210.130778 
L 834.150975 209.619674 
L 842.598199 209.111501 
L 851.045424 208.606225 
L 859.492649 208.10384 
L 867.939874 207.604345 
L 876.387098 207.104956 
L 884.834323 206.603572 
L 893.281548 206.105017 
" clip-path="url(#pfe14168ba0)" style="fill: none; stroke: #637939; stroke-width: 2; stroke-linecap: round"/>
   </g>
   <g id="line2d_40">
    <path d="M 48.559071 361.843751 
L 57.006295 360.971694 
L 65.45352 360.098911 
L 73.900745 359.22803 
L 82.34797 358.359055 
L 90.795195 357.491663 
L 99.242419 356.623576 
L 107.689644 355.757618 
L 116.136869 354.894318 
L 124.584094 354.03032 
L 133.031318 353.167902 
L 141.478543 352.307754 
L 149.925768 351.448555 
L 158.372993 350.589644 
L 166.820217 349.733436 
L 175.267442 348.878298 
L 183.714667 348.023084 
L 192.161892 347.171117 
L 200.609117 346.319848 
L 209.056341 345.468989 
L 217.503566 344.6215 
L 225.950791 343.773521 
L 234.398016 342.927333 
L 242.84524 342.084667 
L 251.292465 341.239911 
L 259.73969 340.398955 
L 268.186915 339.55908 
L 276.63414 338.71976 
L 285.081364 337.884508 
L 293.528589 337.046808 
L 301.975814 336.213418 
L 310.423039 335.380449 
L 318.870263 334.549012 
L 327.317488 333.72044 
L 335.764713 332.890951 
L 344.211938 332.066407 
L 352.659162 331.239308 
L 361.106387 330.417037 
L 369.553612 329.594043 
L 378.000837 328.774306 
L 386.448062 327.955228 
L 394.895286 327.137947 
L 403.342511 326.322655 
L 411.789736 325.508111 
L 420.236961 324.696472 
L 428.684185 323.884855 
L 437.13141 323.076477 
L 445.578635 322.268068 
L 454.02586 321.463379 
L 462.473085 320.657755 
L 470.920309 319.856271 
L 479.367534 319.054185 
L 487.814759 318.255829 
L 496.261984 317.457309 
L 504.709208 316.661904 
L 513.156433 315.867231 
L 521.603658 315.074737 
L 530.050883 314.284053 
L 538.498107 313.494181 
L 546.945332 312.707743 
L 555.392557 311.920564 
L 563.839782 311.138682 
L 572.287007 310.353978 
L 580.734231 309.575348 
L 589.181456 308.79446 
L 597.628681 308.018162 
L 606.075906 307.242204 
L 614.52313 306.468181 
L 622.970355 305.697519 
L 631.41758 304.925493 
L 639.864805 304.15932 
L 648.31203 303.390289 
L 656.759254 302.626195 
L 665.206479 301.862915 
L 673.653704 301.100536 
L 682.100929 300.343331 
L 690.548153 299.582735 
L 698.995378 298.827805 
L 707.442603 298.07308 
L 715.889828 297.319664 
L 724.337052 296.571641 
L 732.784277 295.819716 
L 741.231502 295.07328 
L 749.678727 294.328155 
L 758.125952 293.583278 
L 766.573176 292.843851 
L 775.020401 292.102085 
L 783.467626 291.363699 
L 791.914851 290.629613 
L 800.362075 289.892252 
L 808.8093 289.160258 
L 817.256525 288.430047 
L 825.70375 287.699056 
L 834.150975 286.973283 
L 842.598199 286.247306 
L 851.045424 285.522389 
L 859.492649 284.802592 
L 867.939874 284.081241 
L 876.387098 283.362257 
L 884.834323 282.648306 
L 893.281548 281.931916 
" clip-path="url(#pfe14168ba0)" style="fill: none; stroke: #b5cf6b; stroke-width: 2; stroke-linecap: round"/>
   </g>
   <g id="line2d_41">
    <path d="M 48.559071 471.521496 
L 57.006295 470.72019 
L 65.45352 469.915762 
L 73.900745 469.108096 
L 82.34797 468.297376 
L 90.795195 467.483946 
L 99.242419 466.667395 
L 107.689644 465.847939 
L 116.136869 465.025922 
L 124.584094 464.200949 
L 133.031318 463.373368 
L 141.478543 462.543162 
L 149.925768 461.710538 
L 158.372993 460.875221 
L 166.820217 460.037426 
L 175.267442 459.197285 
L 183.714667 458.354841 
L 192.161892 457.510169 
L 200.609117 456.663308 
L 209.056341 455.814241 
L 217.503566 454.963058 
L 225.950791 454.10959 
L 234.398016 453.254253 
L 242.84524 452.397206 
L 251.292465 451.537811 
L 259.73969 450.676818 
L 268.186915 449.814022 
L 276.63414 448.949418 
L 285.081364 448.083038 
L 293.528589 447.215079 
L 301.975814 446.345292 
L 310.423039 445.474405 
L 318.870263 444.601582 
L 327.317488 443.727343 
L 335.764713 442.851726 
L 344.211938 441.974955 
L 352.659162 441.096644 
L 361.106387 440.216876 
L 369.553612 439.335877 
L 378.000837 438.453826 
L 386.448062 437.570544 
L 394.895286 436.686158 
L 403.342511 435.800692 
L 411.789736 434.914201 
L 420.236961 434.026779 
L 428.684185 433.138367 
L 437.13141 432.249025 
L 445.578635 431.359077 
L 454.02586 430.467721 
L 462.473085 429.57561 
L 470.920309 428.682971 
L 479.367534 427.78989 
L 487.814759 426.895722 
L 496.261984 426.00074 
L 504.709208 425.105597 
L 513.156433 424.209823 
L 521.603658 423.313095 
L 530.050883 422.416455 
L 538.498107 421.518731 
L 546.945332 420.620856 
L 555.392557 419.722773 
L 563.839782 418.823935 
L 572.287007 417.925308 
L 580.734231 417.025631 
L 589.181456 416.126362 
L 597.628681 415.226282 
L 606.075906 414.326454 
L 614.52313 413.426308 
L 622.970355 412.525822 
L 631.41758 411.625917 
L 639.864805 410.724838 
L 648.31203 409.824278 
L 656.759254 408.924353 
L 665.206479 408.023089 
L 673.653704 407.122558 
L 682.100929 406.222543 
L 690.548153 405.321778 
L 698.995378 404.421277 
L 707.442603 403.521295 
L 715.889828 402.621871 
L 724.337052 401.721789 
L 732.784277 400.821857 
L 741.231502 399.922488 
L 749.678727 399.02361 
L 758.125952 398.125379 
L 766.573176 397.227393 
L 775.020401 396.329034 
L 783.467626 395.431083 
L 791.914851 394.5338 
L 800.362075 393.636897 
L 808.8093 392.740503 
L 817.256525 391.844754 
L 825.70375 390.949414 
L 834.150975 390.05471 
L 842.598199 389.16043 
L 851.045424 388.266839 
L 859.492649 387.373662 
L 867.939874 386.481182 
L 876.387098 385.589333 
L 884.834323 384.697962 
L 893.281548 383.80741 
" clip-path="url(#pfe14168ba0)" style="fill: none; stroke: #8c6d31; stroke-width: 2; stroke-linecap: round"/>
   </g>
   <g id="line2d_42">
    <path d="M 48.559071 510.411687 
L 57.006295 509.937551 
L 65.45352 509.45517 
L 73.900745 508.964578 
L 82.34797 508.465913 
L 90.795195 507.959375 
L 99.242419 507.444933 
L 107.689644 506.92278 
L 116.136869 506.393064 
L 124.584094 505.855761 
L 133.031318 505.311113 
L 141.478543 504.759091 
L 149.925768 504.199969 
L 158.372993 503.633752 
L 166.820217 503.060477 
L 175.267442 502.48034 
L 183.714667 501.893447 
L 192.161892 501.299874 
L 200.609117 500.6997 
L 209.056341 500.093026 
L 217.503566 499.479978 
L 225.950791 498.860598 
L 234.398016 498.23504 
L 242.84524 497.603373 
L 251.292465 496.965703 
L 259.73969 496.322097 
L 268.186915 495.67269 
L 276.63414 495.017547 
L 285.081364 494.356727 
L 293.528589 493.690284 
L 301.975814 493.018407 
L 310.423039 492.341233 
L 318.870263 491.658628 
L 327.317488 490.970915 
L 335.764713 490.277953 
L 344.211938 489.580018 
L 352.659162 488.877084 
L 361.106387 488.169329 
L 369.553612 487.456634 
L 378.000837 486.739374 
L 386.448062 486.017425 
L 394.895286 485.29086 
L 403.342511 484.559809 
L 411.789736 483.824311 
L 420.236961 483.084542 
L 428.684185 482.340486 
L 437.13141 481.592172 
L 445.578635 480.839926 
L 454.02586 480.083519 
L 462.473085 479.323118 
L 470.920309 478.558854 
L 479.367534 477.790812 
L 487.814759 477.019034 
L 496.261984 476.243427 
L 504.709208 475.464409 
L 513.156433 474.681632 
L 521.603658 473.895509 
L 530.050883 473.105986 
L 538.498107 472.313057 
L 546.945332 471.516833 
L 555.392557 470.717433 
L 563.839782 469.914889 
L 572.287007 469.10914 
L 580.734231 468.300369 
L 589.181456 467.488774 
L 597.628681 466.674149 
L 606.075906 465.856775 
L 614.52313 465.036531 
L 622.970355 464.213731 
L 631.41758 463.387986 
L 639.864805 462.559852 
L 648.31203 461.729228 
L 656.759254 460.895957 
L 665.206479 460.060176 
L 673.653704 459.222123 
L 682.100929 458.381671 
L 690.548153 457.539048 
L 698.995378 456.694275 
L 707.442603 455.847362 
L 715.889828 454.998056 
L 724.337052 454.146755 
L 732.784277 453.293549 
L 741.231502 452.438487 
L 749.678727 451.581181 
L 758.125952 450.722501 
L 766.573176 449.861732 
L 775.020401 448.999436 
L 783.467626 448.135016 
L 791.914851 447.269537 
L 800.362075 446.401693 
L 808.8093 445.532659 
L 817.256525 444.662392 
L 825.70375 443.790068 
L 834.150975 442.916588 
L 842.598199 442.041767 
L 851.045424 441.165822 
L 859.492649 440.288413 
L 867.939874 439.409609 
L 876.387098 438.529674 
L 884.834323 437.648504 
L 893.281548 436.76638 
" clip-path="url(#pfe14168ba0)" style="fill: none; stroke: #e7cb94; stroke-width: 2; stroke-linecap: round"/>
   </g>
   <g id="line2d_43">
    <path d="M 48.559071 518.28867 
L 57.006295 518.019198 
L 65.45352 517.738788 
L 73.900745 517.447533 
L 82.34797 517.145584 
L 90.795195 516.833126 
L 99.242419 516.510223 
L 107.689644 516.177039 
L 116.136869 515.833749 
L 124.584094 515.480396 
L 133.031318 515.117196 
L 141.478543 514.744192 
L 149.925768 514.361614 
L 158.372993 513.969534 
L 166.820217 513.568046 
L 175.267442 513.15731 
L 183.714667 512.737455 
L 192.161892 512.308608 
L 200.609117 511.870882 
L 209.056341 511.424355 
L 217.503566 510.969217 
L 225.950791 510.505528 
L 234.398016 510.033428 
L 242.84524 509.553037 
L 251.292465 509.064463 
L 259.73969 508.567825 
L 268.186915 508.063236 
L 276.63414 507.550805 
L 285.081364 507.030594 
L 293.528589 506.502752 
L 301.975814 505.967411 
L 310.423039 505.424696 
L 318.870263 504.874605 
L 327.317488 504.31738 
L 335.764713 503.752986 
L 344.211938 503.181634 
L 352.659162 502.603357 
L 361.106387 502.018301 
L 369.553612 501.426525 
L 378.000837 500.828216 
L 386.448062 500.22335 
L 394.895286 499.612089 
L 403.342511 498.994526 
L 411.789736 498.370745 
L 420.236961 497.740865 
L 428.684185 497.104938 
L 437.13141 496.462999 
L 445.578635 495.815417 
L 454.02586 495.161952 
L 462.473085 494.502832 
L 470.920309 493.838102 
L 479.367534 493.167927 
L 487.814759 492.492365 
L 496.261984 491.8115 
L 504.709208 491.125342 
L 513.156433 490.434109 
L 521.603658 489.737819 
L 530.050883 489.036482 
L 538.498107 488.330229 
L 546.945332 487.619281 
L 555.392557 486.903467 
L 563.839782 486.183088 
L 572.287007 485.458104 
L 580.734231 484.728582 
L 589.181456 483.994658 
L 597.628681 483.256455 
L 606.075906 482.513882 
L 614.52313 481.767164 
L 622.970355 481.016349 
L 631.41758 480.26136 
L 639.864805 479.50247 
L 648.31203 478.739671 
L 656.759254 477.97316 
L 665.206479 477.202686 
L 673.653704 476.428579 
L 682.100929 475.650883 
L 690.548153 474.86954 
L 698.995378 474.084801 
L 707.442603 473.296668 
L 715.889828 472.505156 
L 724.337052 471.710271 
L 732.784277 470.912149 
L 741.231502 470.110939 
L 749.678727 469.306474 
L 758.125952 468.499077 
L 766.573176 467.688856 
L 775.020401 466.875675 
L 783.467626 466.05939 
L 791.914851 465.240625 
L 800.362075 464.418809 
L 808.8093 463.594419 
L 817.256525 462.767625 
L 825.70375 461.937981 
L 834.150975 461.105913 
L 842.598199 460.271367 
L 851.045424 459.43455 
L 859.492649 458.595301 
L 867.939874 457.753854 
L 876.387098 456.9102 
L 884.834323 456.064314 
L 893.281548 455.216517 
" clip-path="url(#pfe14168ba0)" style="fill: none; stroke: #ad494a; stroke-width: 2; stroke-linecap: round"/>
   </g>
   <g id="line2d_44">
    <path d="M 48.559071 520.322869 
L 57.006295 520.168886 
L 65.45352 520.002518 
L 73.900745 519.823894 
L 82.34797 519.63317 
L 90.795195 519.430528 
L 99.242419 519.216069 
L 107.689644 518.98996 
L 116.136869 518.752377 
L 124.584094 518.503402 
L 133.031318 518.243239 
L 141.478543 517.971967 
L 149.925768 517.6898 
L 158.372993 517.396838 
L 166.820217 517.093195 
L 175.267442 516.779036 
L 183.714667 516.454496 
L 192.161892 516.119717 
L 200.609117 515.774821 
L 209.056341 515.419915 
L 217.503566 515.055172 
L 225.950791 514.680691 
L 234.398016 514.29661 
L 242.84524 513.903058 
L 251.292465 513.500157 
L 259.73969 513.088033 
L 268.186915 512.666822 
L 276.63414 512.236632 
L 285.081364 511.797549 
L 293.528589 511.349728 
L 301.975814 510.893293 
L 310.423039 510.428396 
L 318.870263 509.955053 
L 327.317488 509.473492 
L 335.764713 508.98372 
L 344.211938 508.485934 
L 352.659162 507.980182 
L 361.106387 507.466627 
L 369.553612 506.945339 
L 378.000837 506.416494 
L 386.448062 505.880101 
L 394.895286 505.336339 
L 403.342511 504.785273 
L 411.789736 504.227019 
L 420.236961 503.66171 
L 428.684185 503.089401 
L 437.13141 502.510162 
L 445.578635 501.924302 
L 454.02586 501.331662 
L 462.473085 500.732441 
L 470.920309 500.126725 
L 479.367534 499.514656 
L 487.814759 498.896318 
L 496.261984 498.271755 
L 504.709208 497.641106 
L 513.156433 497.00443 
L 521.603658 496.361902 
L 530.050883 495.713478 
L 538.498107 495.059301 
L 546.945332 494.399501 
L 555.392557 493.734168 
L 563.839782 493.063394 
L 572.287007 492.387188 
L 580.734231 491.705685 
L 589.181456 491.018962 
L 597.628681 490.327146 
L 606.075906 489.630314 
L 614.52313 488.928401 
L 622.970355 488.221716 
L 631.41758 487.510209 
L 639.864805 486.793901 
L 648.31203 486.072989 
L 656.759254 485.347595 
L 665.206479 484.617615 
L 673.653704 483.883306 
L 682.100929 483.144593 
L 690.548153 482.401619 
L 698.995378 481.654534 
L 707.442603 480.903355 
L 715.889828 480.148073 
L 724.337052 479.388827 
L 732.784277 478.625685 
L 741.231502 477.858643 
L 749.678727 477.087864 
L 758.125952 476.313608 
L 766.573176 475.535614 
L 775.020401 474.754207 
L 783.467626 473.969031 
L 791.914851 473.180601 
L 800.362075 472.388764 
L 808.8093 471.593656 
L 817.256525 470.795369 
L 825.70375 469.993875 
L 834.150975 469.189363 
L 842.598199 468.381829 
L 851.045424 467.571295 
L 859.492649 466.757757 
L 867.939874 465.941633 
L 876.387098 465.122479 
L 884.834323 464.300701 
L 893.281548 463.476341 
" clip-path="url(#pfe14168ba0)" style="fill: none; stroke: #e7969c; stroke-width: 2; stroke-linecap: round"/>
   </g>
   <g id="line2d_45">
    <path d="M 48.559071 521.355128 
L 57.006295 521.065797 
L 65.45352 520.82872 
L 73.900745 520.634265 
L 82.34797 520.474641 
L 90.795195 520.332831 
L 99.242419 520.179727 
L 107.689644 520.014217 
L 116.136869 519.836475 
L 124.584094 519.646608 
L 133.031318 519.44481 
L 141.478543 519.231183 
L 149.925768 519.005931 
L 158.372993 518.769169 
L 166.820217 518.521022 
L 175.267442 518.261656 
L 183.714667 517.991214 
L 192.161892 517.709842 
L 200.609117 517.417671 
L 209.056341 517.114816 
L 217.503566 516.801455 
L 225.950791 516.477692 
L 234.398016 516.143671 
L 242.84524 515.799529 
L 251.292465 515.445394 
L 259.73969 515.081397 
L 268.186915 514.707676 
L 276.63414 514.324354 
L 285.081364 513.93152 
L 293.528589 513.529329 
L 301.975814 513.11792 
L 310.423039 512.69744 
L 318.870263 512.267922 
L 327.317488 511.829587 
L 335.764713 511.382464 
L 344.211938 510.926736 
L 352.659162 510.462479 
L 361.106387 509.989844 
L 369.553612 509.508911 
L 378.000837 509.019857 
L 386.448062 508.522716 
L 394.895286 508.017641 
L 403.342511 507.504723 
L 411.789736 506.984108 
L 420.236961 506.455879 
L 428.684185 505.920114 
L 437.13141 505.376918 
L 445.578635 504.826576 
L 454.02586 504.268932 
L 462.473085 503.704194 
L 470.920309 503.132499 
L 479.367534 502.553924 
L 487.814759 501.968569 
L 496.261984 501.376522 
L 504.709208 500.777906 
L 513.156433 500.1728 
L 521.603658 499.561321 
L 530.050883 498.943538 
L 538.498107 498.319501 
L 546.945332 497.689412 
L 555.392557 497.053329 
L 563.839782 496.411306 
L 572.287007 495.763443 
L 580.734231 495.109837 
L 589.181456 494.450574 
L 597.628681 493.785772 
L 606.075906 493.115511 
L 614.52313 492.439817 
L 622.970355 491.758856 
L 631.41758 491.072645 
L 639.864805 490.381285 
L 648.31203 489.684887 
L 656.759254 488.983605 
L 665.206479 488.277375 
L 673.653704 487.566295 
L 682.100929 486.850513 
L 690.548153 486.130129 
L 698.995378 485.405165 
L 707.442603 484.675711 
L 715.889828 483.941778 
L 724.337052 483.203521 
L 732.784277 482.461045 
L 741.231502 481.714303 
L 749.678727 480.963466 
L 758.125952 480.20869 
L 766.573176 479.449983 
L 775.020401 478.6873 
L 783.467626 477.92072 
L 791.914851 477.150541 
L 800.362075 476.376464 
L 808.8093 475.598851 
L 817.256525 474.817682 
L 825.70375 474.033118 
L 834.150975 473.24505 
L 842.598199 472.453556 
L 851.045424 471.658897 
L 859.492649 470.860949 
L 867.939874 470.05994 
L 876.387098 469.255902 
L 884.834323 468.448604 
L 893.281548 467.638439 
" clip-path="url(#pfe14168ba0)" style="fill: none; stroke: #a55194; stroke-width: 2; stroke-linecap: round"/>
   </g>
   <g id="line2d_46">
    <path d="M 48.559071 522.645245 
L 57.006295 522.121346 
L 65.45352 521.693055 
L 73.900745 521.342574 
L 82.34797 521.055533 
L 90.795195 520.820322 
L 99.242419 520.62738 
L 107.689644 520.46901 
L 116.136869 520.32709 
L 124.584094 520.173511 
L 133.031318 520.007552 
L 141.478543 519.829326 
L 149.925768 519.639032 
L 158.372993 519.436795 
L 166.820217 519.222746 
L 175.267442 518.997053 
L 183.714667 518.759862 
L 192.161892 518.511321 
L 200.609117 518.251567 
L 209.056341 517.980723 
L 217.503566 517.698964 
L 225.950791 517.4064 
L 234.398016 517.103182 
L 242.84524 516.789448 
L 251.292465 516.465328 
L 259.73969 516.130959 
L 268.186915 515.786482 
L 276.63414 515.432022 
L 285.081364 515.067679 
L 293.528589 514.693606 
L 301.975814 514.309941 
L 310.423039 513.916839 
L 318.870263 513.514339 
L 327.317488 513.10266 
L 335.764713 512.681838 
L 344.211938 512.252064 
L 352.659162 511.813408 
L 361.106387 511.366033 
L 369.553612 510.910009 
L 378.000837 510.445526 
L 386.448062 509.972623 
L 394.895286 509.491448 
L 403.342511 509.002112 
L 411.789736 508.504736 
L 420.236961 507.999434 
L 428.684185 507.486289 
L 437.13141 506.965373 
L 445.578635 506.436997 
L 454.02586 505.901034 
L 462.473085 505.357649 
L 470.920309 504.806996 
L 479.367534 504.249182 
L 487.814759 503.684283 
L 496.261984 503.112383 
L 504.709208 502.53362 
L 513.156433 501.948097 
L 521.603658 501.355907 
L 530.050883 500.757085 
L 538.498107 500.151799 
L 546.945332 499.540138 
L 555.392557 498.922177 
L 563.839782 498.298065 
L 572.287007 497.667816 
L 580.734231 497.031547 
L 589.181456 496.389361 
L 597.628681 495.741356 
L 606.075906 495.087652 
L 614.52313 494.428268 
L 622.970355 493.763354 
L 631.41758 493.092899 
L 639.864805 492.417114 
L 648.31203 491.736033 
L 656.759254 491.049749 
L 665.206479 490.358273 
L 673.653704 489.661808 
L 682.100929 488.960309 
L 690.548153 488.254009 
L 698.995378 487.542888 
L 707.442603 486.827071 
L 715.889828 486.106536 
L 724.337052 485.381459 
L 732.784277 484.651876 
L 741.231502 483.917942 
L 749.678727 483.179544 
L 758.125952 482.437088 
L 766.573176 481.690375 
L 775.020401 480.939567 
L 783.467626 480.184655 
L 791.914851 479.42584 
L 800.362075 478.66301 
L 808.8093 477.896362 
L 817.256525 477.126065 
L 825.70375 476.352049 
L 834.150975 475.57438 
L 842.598199 474.793166 
L 851.045424 474.008603 
L 859.492649 473.2204 
L 867.939874 472.428978 
L 876.387098 471.6343 
L 884.834323 470.836322 
L 893.281548 470.035308 
" clip-path="url(#pfe14168ba0)" style="fill: none; stroke: #de9ed6; stroke-width: 2; stroke-linecap: round"/>
   </g>
   <g id="patch_3">
    <path d="M 48.559071 521.153031 
L 48.559071 51.564121 
" style="fill: none"/>
   </g>
   <g id="patch_4">
    <path d="M 935.517672 521.153031 
L 935.517672 51.564121 
" style="fill: none"/>
   </g>
   <g id="patch_5">
    <path d="M 48.559071 521.153031 
L 935.517672 521.153031 
" style="fill: none"/>
   </g>
   <g id="patch_6">
    <path d="M 48.559071 51.564121 
L 935.517672 51.564121 
" style="fill: none"/>
   </g>
   <g id="patch_7">
    <path d="M 470.920309 80.469079 
Q 470.920309 288.285469 470.920309 494.424807 
" style="fill: none; stroke: #000000; stroke-width: 1.5; stroke-linecap: round"/>
    <path d="M 474.120309 488.024807 
L 470.920309 494.424807 
L 467.720309 488.024807 
" style="fill: none; stroke: #000000; stroke-width: 1.5; stroke-linecap: round"/>
   </g>
   <g id="text_20">
    <!-- Time -->
    <g style="fill: #262626" transform="translate(492.038371 494.611584) scale(0.18 -0.18)">
     <defs>
      <path id="CMR17-54" d="M 3981 4326 
L 288 4326 
L 179 2918 
L 294 2918 
C 378 3976 467 4160 1453 4160 
C 1568 4160 1754 4160 1805 4154 
C 1926 4135 1926 4058 1926 3912 
L 1926 459 
C 1926 230 1907 160 1376 160 
L 1197 160 
L 1197 0 
C 1504 0 1824 0 2138 0 
C 2451 0 2771 0 3078 0 
L 3078 160 
L 2899 160 
C 2368 160 2349 230 2349 459 
L 2349 3912 
C 2349 4052 2349 4129 2464 4154 
C 2515 4160 2701 4160 2816 4160 
C 3795 4160 3891 3976 3974 2918 
L 4090 2918 
L 3981 4326 
z
" transform="scale(0.015625)"/>
      <path id="CMR17-69" d="M 992 3909 
C 992 4049 877 4170 730 4170 
C 589 4170 467 4056 467 3909 
C 467 3769 582 3648 730 3648 
C 870 3648 992 3763 992 3909 
z
M 243 2706 
L 243 2541 
C 602 2541 653 2502 653 2197 
L 653 427 
C 653 184 627 153 218 153 
L 218 -13 
C 371 0 646 0 806 0 
C 960 0 1222 0 1370 -13 
L 1370 153 
C 992 153 979 191 979 420 
L 979 2776 
L 243 2706 
z
" transform="scale(0.015625)"/>
      <path id="CMR17-6d" d="M 4326 1933 
C 4326 2252 4269 2790 3507 2790 
C 3072 2790 2771 2496 2656 2151 
L 2650 2151 
C 2573 2676 2195 2790 1837 2790 
C 1331 2790 1069 2400 973 2144 
L 966 2144 
L 966 2790 
L 211 2720 
L 211 2554 
C 589 2554 646 2515 646 2208 
L 646 428 
C 646 184 621 153 211 153 
L 211 -13 
C 365 0 646 0 813 0 
C 979 0 1267 0 1421 -13 
L 1421 153 
C 1011 153 986 178 986 428 
L 986 1658 
C 986 2247 1344 2688 1792 2688 
C 2266 2688 2317 2266 2317 1958 
L 2317 428 
C 2317 184 2291 153 1882 153 
L 1882 -13 
C 2035 0 2317 0 2483 0 
C 2650 0 2938 0 3091 -13 
L 3091 153 
C 2682 153 2656 178 2656 428 
L 2656 1658 
C 2656 2247 3014 2688 3462 2688 
C 3936 2688 3987 2266 3987 1958 
L 3987 428 
C 3987 184 3962 153 3552 153 
L 3552 -13 
C 3706 0 3987 0 4154 0 
C 4320 0 4608 0 4762 -13 
L 4762 153 
C 4352 153 4326 178 4326 428 
L 4326 1933 
z
" transform="scale(0.015625)"/>
      <path id="CMR17-65" d="M 2438 1472 
C 2464 1498 2464 1511 2464 1576 
C 2464 2238 2118 2816 1389 2816 
C 710 2816 173 2169 173 1383 
C 173 551 781 -64 1459 -64 
C 2176 -64 2458 607 2458 740 
C 2458 784 2419 784 2406 784 
C 2362 784 2355 771 2330 696 
C 2189 265 1837 51 1504 51 
C 1229 51 954 203 781 480 
C 582 803 582 1176 582 1472 
L 2438 1472 
z
M 589 1568 
C 634 2505 1126 2714 1382 2714 
C 1818 2714 2112 2297 2118 1568 
L 589 1568 
z
" transform="scale(0.015625)"/>
     </defs>
     <use xlink:href="#CMR17-54" transform="scale(0.996264)"/>
     <use xlink:href="#CMR17-69" transform="translate(66.509881 0) scale(0.996264)"/>
     <use xlink:href="#CMR17-6d" transform="translate(91.380939 0) scale(0.996264)"/>
     <use xlink:href="#CMR17-65" transform="translate(168.300529 0) scale(0.996264)"/>
    </g>
   </g>
   <g id="legend_1">
    <g id="line2d_47">
     <path d="M 948.117672 197.198434 
L 962.117672 197.198434 
L 976.117672 197.198434 
" style="fill: none; stroke: #393b79; stroke-width: 2; stroke-linecap: round"/>
    </g>
    <g id="text_21">
     <!-- t = 0.00 -->
     <g style="fill: #262626" transform="translate(987.317672 202.098434) scale(0.14 -0.14)">
      <defs>
       <path id="CMR17-74" d="M 966 2560 
L 1862 2560 
L 1862 2725 
L 966 2725 
L 966 3904 
L 851 3904 
C 838 3245 614 2668 70 2668 
L 70 2560 
L 627 2560 
L 627 771 
C 627 650 627 -64 1370 -64 
C 1747 -64 1965 306 1965 777 
L 1965 1140 
L 1850 1140 
L 1850 783 
C 1850 344 1677 51 1408 51 
C 1222 51 966 178 966 758 
L 966 2560 
z
" transform="scale(0.015625)"/>
       <path id="CMR17-3d" d="M 4115 2017 
C 4211 2017 4307 2017 4307 2125 
C 4307 2240 4198 2240 4090 2240 
L 512 2240 
C 403 2240 294 2240 294 2125 
C 294 2017 390 2017 486 2017 
L 4115 2017 
z
M 4090 896 
C 4198 896 4307 896 4307 1011 
C 4307 1119 4211 1119 4115 1119 
L 486 1119 
C 390 1119 294 1119 294 1011 
C 294 896 403 896 512 896 
L 4090 896 
z
" transform="scale(0.015625)"/>
       <path id="CMR17-2e" d="M 1062 261 
C 1062 420 934 522 800 522 
C 672 522 538 420 538 261 
C 538 102 666 0 800 0 
C 928 0 1062 102 1062 261 
z
" transform="scale(0.015625)"/>
      </defs>
      <use xlink:href="#CMR17-74" transform="scale(0.996264)"/>
      <use xlink:href="#CMR17-3d" transform="translate(65.356734 0) scale(0.996264)"/>
      <use xlink:href="#CMR17-30" transform="translate(167.147489 0) scale(0.996264)"/>
      <use xlink:href="#CMR17-2e" transform="translate(212.837966 0) scale(0.996264)"/>
      <use xlink:href="#CMR17-30" transform="translate(237.709025 0) scale(0.996264)"/>
      <use xlink:href="#CMR17-30" transform="translate(283.399502 0) scale(0.996264)"/>
     </g>
    </g>
    <g id="line2d_48">
     <path d="M 948.117672 216.710462 
L 962.117672 216.710462 
L 976.117672 216.710462 
" style="fill: none; stroke: #6b6ecf; stroke-width: 2; stroke-linecap: round"/>
    </g>
    <g id="text_22">
     <!-- t = 10.00 -->
     <g style="fill: #262626" transform="translate(987.317672 221.610462) scale(0.14 -0.14)">
      <use xlink:href="#CMR17-74" transform="scale(0.996264)"/>
      <use xlink:href="#CMR17-3d" transform="translate(65.356734 0) scale(0.996264)"/>
      <use xlink:href="#CMR17-31" transform="translate(167.147489 0) scale(0.996264)"/>
      <use xlink:href="#CMR17-30" transform="translate(212.837966 0) scale(0.996264)"/>
      <use xlink:href="#CMR17-2e" transform="translate(258.528443 0) scale(0.996264)"/>
      <use xlink:href="#CMR17-30" transform="translate(283.399502 0) scale(0.996264)"/>
      <use xlink:href="#CMR17-30" transform="translate(329.089979 0) scale(0.996264)"/>
     </g>
    </g>
    <g id="line2d_49">
     <path d="M 948.117672 236.222491 
L 962.117672 236.222491 
L 976.117672 236.222491 
" style="fill: none; stroke: #637939; stroke-width: 2; stroke-linecap: round"/>
    </g>
    <g id="text_23">
     <!-- t = 50.00 -->
     <g style="fill: #262626" transform="translate(987.317672 241.122491) scale(0.14 -0.14)">
      <use xlink:href="#CMR17-74" transform="scale(0.996264)"/>
      <use xlink:href="#CMR17-3d" transform="translate(65.356734 0) scale(0.996264)"/>
      <use xlink:href="#CMR17-35" transform="translate(167.147489 0) scale(0.996264)"/>
      <use xlink:href="#CMR17-30" transform="translate(212.837966 0) scale(0.996264)"/>
      <use xlink:href="#CMR17-2e" transform="translate(258.528443 0) scale(0.996264)"/>
      <use xlink:href="#CMR17-30" transform="translate(283.399502 0) scale(0.996264)"/>
      <use xlink:href="#CMR17-30" transform="translate(329.089979 0) scale(0.996264)"/>
     </g>
    </g>
    <g id="line2d_50">
     <path d="M 948.117672 255.734519 
L 962.117672 255.734519 
L 976.117672 255.734519 
" style="fill: none; stroke: #b5cf6b; stroke-width: 2; stroke-linecap: round"/>
    </g>
    <g id="text_24">
     <!-- t = 100.00 -->
     <g style="fill: #262626" transform="translate(987.317672 260.634519) scale(0.14 -0.14)">
      <use xlink:href="#CMR17-74" transform="scale(0.996264)"/>
      <use xlink:href="#CMR17-3d" transform="translate(65.356734 0) scale(0.996264)"/>
      <use xlink:href="#CMR17-31" transform="translate(167.147489 0) scale(0.996264)"/>
      <use xlink:href="#CMR17-30" transform="translate(212.837966 0) scale(0.996264)"/>
      <use xlink:href="#CMR17-30" transform="translate(258.528443 0) scale(0.996264)"/>
      <use xlink:href="#CMR17-2e" transform="translate(304.21892 0) scale(0.996264)"/>
      <use xlink:href="#CMR17-30" transform="translate(329.089979 0) scale(0.996264)"/>
      <use xlink:href="#CMR17-30" transform="translate(374.780456 0) scale(0.996264)"/>
     </g>
    </g>
    <g id="line2d_51">
     <path d="M 948.117672 275.246547 
L 962.117672 275.246547 
L 976.117672 275.246547 
" style="fill: none; stroke: #8c6d31; stroke-width: 2; stroke-linecap: round"/>
    </g>
    <g id="text_25">
     <!-- t = 250.00 -->
     <g style="fill: #262626" transform="translate(987.317672 280.146547) scale(0.14 -0.14)">
      <use xlink:href="#CMR17-74" transform="scale(0.996264)"/>
      <use xlink:href="#CMR17-3d" transform="translate(65.356734 0) scale(0.996264)"/>
      <use xlink:href="#CMR17-32" transform="translate(167.147489 0) scale(0.996264)"/>
      <use xlink:href="#CMR17-35" transform="translate(212.837966 0) scale(0.996264)"/>
      <use xlink:href="#CMR17-30" transform="translate(258.528443 0) scale(0.996264)"/>
      <use xlink:href="#CMR17-2e" transform="translate(304.21892 0) scale(0.996264)"/>
      <use xlink:href="#CMR17-30" transform="translate(329.089979 0) scale(0.996264)"/>
      <use xlink:href="#CMR17-30" transform="translate(374.780456 0) scale(0.996264)"/>
     </g>
    </g>
    <g id="line2d_52">
     <path d="M 948.117672 294.758576 
L 962.117672 294.758576 
L 976.117672 294.758576 
" style="fill: none; stroke: #e7cb94; stroke-width: 2; stroke-linecap: round"/>
    </g>
    <g id="text_26">
     <!-- t = 500.00 -->
     <g style="fill: #262626" transform="translate(987.317672 299.658576) scale(0.14 -0.14)">
      <use xlink:href="#CMR17-74" transform="scale(0.996264)"/>
      <use xlink:href="#CMR17-3d" transform="translate(65.356734 0) scale(0.996264)"/>
      <use xlink:href="#CMR17-35" transform="translate(167.147489 0) scale(0.996264)"/>
      <use xlink:href="#CMR17-30" transform="translate(212.837966 0) scale(0.996264)"/>
      <use xlink:href="#CMR17-30" transform="translate(258.528443 0) scale(0.996264)"/>
      <use xlink:href="#CMR17-2e" transform="translate(304.21892 0) scale(0.996264)"/>
      <use xlink:href="#CMR17-30" transform="translate(329.089979 0) scale(0.996264)"/>
      <use xlink:href="#CMR17-30" transform="translate(374.780456 0) scale(0.996264)"/>
     </g>
    </g>
    <g id="line2d_53">
     <path d="M 948.117672 314.270604 
L 962.117672 314.270604 
L 976.117672 314.270604 
" style="fill: none; stroke: #ad494a; stroke-width: 2; stroke-linecap: round"/>
    </g>
    <g id="text_27">
     <!-- t = 750.00 -->
     <g style="fill: #262626" transform="translate(987.317672 319.170604) scale(0.14 -0.14)">
      <use xlink:href="#CMR17-74" transform="scale(0.996264)"/>
      <use xlink:href="#CMR17-3d" transform="translate(65.356734 0) scale(0.996264)"/>
      <use xlink:href="#CMR17-37" transform="translate(167.147489 0) scale(0.996264)"/>
      <use xlink:href="#CMR17-35" transform="translate(212.837966 0) scale(0.996264)"/>
      <use xlink:href="#CMR17-30" transform="translate(258.528443 0) scale(0.996264)"/>
      <use xlink:href="#CMR17-2e" transform="translate(304.21892 0) scale(0.996264)"/>
      <use xlink:href="#CMR17-30" transform="translate(329.089979 0) scale(0.996264)"/>
      <use xlink:href="#CMR17-30" transform="translate(374.780456 0) scale(0.996264)"/>
     </g>
    </g>
    <g id="line2d_54">
     <path d="M 948.117672 333.782633 
L 962.117672 333.782633 
L 976.117672 333.782633 
" style="fill: none; stroke: #e7969c; stroke-width: 2; stroke-linecap: round"/>
    </g>
    <g id="text_28">
     <!-- t = 1000.00 -->
     <g style="fill: #262626" transform="translate(987.317672 338.682633) scale(0.14 -0.14)">
      <use xlink:href="#CMR17-74" transform="scale(0.996264)"/>
      <use xlink:href="#CMR17-3d" transform="translate(65.356734 0) scale(0.996264)"/>
      <use xlink:href="#CMR17-31" transform="translate(167.147489 0) scale(0.996264)"/>
      <use xlink:href="#CMR17-30" transform="translate(212.837966 0) scale(0.996264)"/>
      <use xlink:href="#CMR17-30" transform="translate(258.528443 0) scale(0.996264)"/>
      <use xlink:href="#CMR17-30" transform="translate(304.21892 0) scale(0.996264)"/>
      <use xlink:href="#CMR17-2e" transform="translate(349.909397 0) scale(0.996264)"/>
      <use xlink:href="#CMR17-30" transform="translate(374.780456 0) scale(0.996264)"/>
      <use xlink:href="#CMR17-30" transform="translate(420.470933 0) scale(0.996264)"/>
     </g>
    </g>
    <g id="line2d_55">
     <path d="M 948.117672 353.294661 
L 962.117672 353.294661 
L 976.117672 353.294661 
" style="fill: none; stroke: #a55194; stroke-width: 2; stroke-linecap: round"/>
    </g>
    <g id="text_29">
     <!-- t = 1250.00 -->
     <g style="fill: #262626" transform="translate(987.317672 358.194661) scale(0.14 -0.14)">
      <use xlink:href="#CMR17-74" transform="scale(0.996264)"/>
      <use xlink:href="#CMR17-3d" transform="translate(65.356734 0) scale(0.996264)"/>
      <use xlink:href="#CMR17-31" transform="translate(167.147489 0) scale(0.996264)"/>
      <use xlink:href="#CMR17-32" transform="translate(212.837966 0) scale(0.996264)"/>
      <use xlink:href="#CMR17-35" transform="translate(258.528443 0) scale(0.996264)"/>
      <use xlink:href="#CMR17-30" transform="translate(304.21892 0) scale(0.996264)"/>
      <use xlink:href="#CMR17-2e" transform="translate(349.909397 0) scale(0.996264)"/>
      <use xlink:href="#CMR17-30" transform="translate(374.780456 0) scale(0.996264)"/>
      <use xlink:href="#CMR17-30" transform="translate(420.470933 0) scale(0.996264)"/>
     </g>
    </g>
    <g id="line2d_56">
     <path d="M 948.117672 372.806689 
L 962.117672 372.806689 
L 976.117672 372.806689 
" style="fill: none; stroke: #de9ed6; stroke-width: 2; stroke-linecap: round"/>
    </g>
    <g id="text_30">
     <!-- t = 1500.00 -->
     <g style="fill: #262626" transform="translate(987.317672 377.706689) scale(0.14 -0.14)">
      <use xlink:href="#CMR17-74" transform="scale(0.996264)"/>
      <use xlink:href="#CMR17-3d" transform="translate(65.356734 0) scale(0.996264)"/>
      <use xlink:href="#CMR17-31" transform="translate(167.147489 0) scale(0.996264)"/>
      <use xlink:href="#CMR17-35" transform="translate(212.837966 0) scale(0.996264)"/>
      <use xlink:href="#CMR17-30" transform="translate(258.528443 0) scale(0.996264)"/>
      <use xlink:href="#CMR17-30" transform="translate(304.21892 0) scale(0.996264)"/>
      <use xlink:href="#CMR17-2e" transform="translate(349.909397 0) scale(0.996264)"/>
      <use xlink:href="#CMR17-30" transform="translate(374.780456 0) scale(0.996264)"/>
      <use xlink:href="#CMR17-30" transform="translate(420.470933 0) scale(0.996264)"/>
     </g>
    </g>
   </g>
  </g>
  <g id="text_31">
   <!-- permeability -->
   <g style="fill: #262626" transform="translate(492.111452 24.803515) scale(0.192 -0.192)">
    <defs>
     <path id="CMR17-70" d="M 1408 -1063 
C 998 -1063 973 -1037 973 -789 
L 973 402 
C 1158 134 1427 -38 1766 -38 
C 2406 -38 3053 523 3053 1388 
C 3053 2191 2496 2802 1837 2802 
C 1453 2802 1139 2592 960 2338 
L 960 2802 
L 198 2732 
L 198 2567 
C 576 2567 634 2528 634 2223 
L 634 -789 
C 634 -1031 608 -1063 198 -1063 
L 198 -1228 
C 352 -1216 634 -1216 800 -1216 
C 966 -1216 1254 -1216 1408 -1228 
L 1408 -1063 
z
M 973 2012 
C 973 2102 973 2235 1222 2471 
C 1254 2497 1472 2688 1792 2688 
C 2259 2688 2643 2108 2643 1382 
C 2643 656 2234 64 1728 64 
C 1498 64 1248 172 1056 472 
C 973 612 973 650 973 752 
L 973 2012 
z
" transform="scale(0.015625)"/>
     <path id="CMR17-72" d="M 960 1497 
C 960 2112 1222 2688 1702 2688 
C 1747 2688 1792 2682 1837 2662 
C 1837 2662 1696 2617 1696 2452 
C 1696 2298 1818 2234 1914 2234 
C 1990 2234 2131 2279 2131 2458 
C 2131 2663 1926 2790 1709 2790 
C 1222 2790 1011 2317 947 2093 
L 941 2093 
L 941 2790 
L 198 2720 
L 198 2554 
C 576 2554 634 2515 634 2208 
L 634 428 
C 634 184 608 153 198 153 
L 198 -13 
C 352 0 646 0 813 0 
C 998 0 1325 0 1498 -13 
L 1498 153 
C 1037 153 960 153 960 440 
L 960 1497 
z
" transform="scale(0.015625)"/>
     <path id="CMR17-61" d="M 2304 1653 
C 2304 2072 2304 2294 2035 2543 
C 1798 2752 1523 2816 1306 2816 
C 800 2816 435 2407 435 1971 
C 435 1728 627 1728 666 1728 
C 749 1728 896 1778 896 1954 
C 896 2112 774 2181 666 2181 
C 640 2181 608 2174 589 2168 
C 723 2592 1069 2714 1293 2714 
C 1613 2714 1965 2429 1965 1885 
L 1965 1600 
C 1587 1600 1133 1549 774 1357 
C 371 1133 256 813 256 570 
C 256 77 832 -64 1171 -64 
C 1523 -64 1850 139 1990 511 
C 2003 233 2182 -18 2464 -18 
C 2598 -18 2938 70 2938 567 
L 2938 920 
L 2822 920 
L 2822 562 
C 2822 178 2650 128 2566 128 
C 2304 128 2304 458 2304 738 
L 2304 1653 
z
M 1965 870 
C 1965 317 1568 38 1216 38 
C 896 38 646 275 646 570 
C 646 761 730 1100 1101 1305 
C 1408 1478 1760 1504 1965 1504 
L 1965 870 
z
" transform="scale(0.015625)"/>
     <path id="CMR17-62" d="M 960 4396 
L 198 4326 
L 198 4160 
C 576 4160 634 4122 634 3817 
L 634 -13 
L 749 -13 
L 934 441 
C 1120 141 1395 -64 1766 -64 
C 2406 -64 3053 500 3053 1370 
C 3053 2188 2477 2790 1830 2790 
C 1434 2790 1152 2579 960 2330 
L 960 4396 
z
M 973 2004 
C 973 2118 973 2138 1062 2272 
C 1312 2657 1670 2688 1792 2688 
C 1984 2688 2643 2585 2643 1376 
C 2643 108 1888 38 1734 38 
C 1536 38 1248 114 1043 486 
C 973 608 973 621 973 735 
L 973 2004 
z
" transform="scale(0.015625)"/>
     <path id="CMR17-6c" d="M 979 4396 
L 218 4326 
L 218 4160 
C 595 4160 653 4122 653 3817 
L 653 426 
C 653 184 627 153 218 153 
L 218 -13 
C 371 0 653 0 813 0 
C 979 0 1261 0 1414 -13 
L 1414 153 
C 1005 153 979 178 979 426 
L 979 4396 
z
" transform="scale(0.015625)"/>
     <path id="CMR17-79" d="M 2496 2197 
C 2656 2586 2944 2586 3034 2586 
L 3034 2752 
C 2912 2752 2752 2752 2630 2752 
C 2496 2752 2285 2752 2157 2758 
L 2157 2592 
C 2400 2573 2406 2394 2406 2343 
C 2406 2280 2394 2248 2362 2171 
L 1664 449 
L 902 2306 
C 870 2382 870 2426 870 2433 
C 870 2573 1018 2586 1171 2586 
L 1171 2758 
C 1018 2752 742 2752 582 2752 
C 410 2752 205 2752 64 2758 
L 64 2586 
C 410 2586 448 2554 531 2350 
L 1485 15 
C 1197 -738 1030 -1178 627 -1178 
C 557 -1178 397 -1159 282 -1044 
C 429 -1031 493 -942 493 -833 
C 493 -725 416 -629 288 -629 
C 147 -629 77 -725 77 -840 
C 77 -1095 339 -1280 627 -1280 
C 998 -1280 1229 -922 1357 -604 
L 2496 2197 
z
" transform="scale(0.015625)"/>
    </defs>
    <use xlink:href="#CMR17-70" transform="scale(0.996264)"/>
    <use xlink:href="#CMR17-65" transform="translate(53.497809 0) scale(0.996264)"/>
    <use xlink:href="#CMR17-72" transform="translate(93.983469 0) scale(0.996264)"/>
    <use xlink:href="#CMR17-6d" transform="translate(129.264237 0) scale(0.996264)"/>
    <use xlink:href="#CMR17-65" transform="translate(206.183827 0) scale(0.996264)"/>
    <use xlink:href="#CMR17-61" transform="translate(246.669487 0) scale(0.996264)"/>
    <use xlink:href="#CMR17-62" transform="translate(292.359964 0) scale(0.996264)"/>
    <use xlink:href="#CMR17-69" transform="translate(343.255334 0) scale(0.996264)"/>
    <use xlink:href="#CMR17-6c" transform="translate(368.126392 0) scale(0.996264)"/>
    <use xlink:href="#CMR17-69" transform="translate(392.997451 0) scale(0.996264)"/>
    <use xlink:href="#CMR17-74" transform="translate(417.868509 0) scale(0.996264)"/>
    <use xlink:href="#CMR17-79" transform="translate(450.546823 0) scale(0.996264)"/>
   </g>
  </g>
 </g>
 <defs>
  <clipPath id="pfe14168ba0">
   <rect x="48.559071" y="51.564121" width="886.958601" height="469.58891"/>
  </clipPath>
 </defs>
</svg>
