<?xml version="1.0" encoding="utf-8" standalone="no"?>
<!DOCTYPE svg PUBLIC "-//W3C//DTD SVG 1.1//EN"
  "http://www.w3.org/Graphics/SVG/1.1/DTD/svg11.dtd">
<svg xmlns:xlink="http://www.w3.org/1999/xlink" width="1080pt" height="576pt" viewBox="0 0 1080 576" xmlns="http://www.w3.org/2000/svg" version="1.1">
 <metadata>
  <rdf:RDF xmlns:dc="http://purl.org/dc/elements/1.1/" xmlns:cc="http://creativecommons.org/ns#" xmlns:rdf="http://www.w3.org/1999/02/22-rdf-syntax-ns#">
   <cc:Work>
    <dc:type rdf:resource="http://purl.org/dc/dcmitype/StillImage"/>
    <dc:date>2024-06-28T12:11:40.160847</dc:date>
    <dc:format>image/svg+xml</dc:format>
    <dc:creator>
     <cc:Agent>
      <dc:title>Matplotlib v3.9.0, https://matplotlib.org/</dc:title>
     </cc:Agent>
    </dc:creator>
   </cc:Work>
  </rdf:RDF>
 </metadata>
 <defs>
  <style type="text/css">*{stroke-linejoin: round; stroke-linecap: butt}</style>
 </defs>
 <g id="figure_1">
  <g id="patch_1">
   <path d="M 0 576 
L 1080 576 
L 1080 0 
L 0 0 
z
" style="fill: #ffffff"/>
  </g>
  <g id="axes_1">
   <g id="patch_2">
    <path d="M 48.559071 521.153031 
L 935.517672 521.153031 
L 935.517672 51.564121 
L 48.559071 51.564121 
z
" style="fill: #eaeaf2"/>
   </g>
   <g id="matplotlib.axis_1">
    <g id="xtick_1">
     <g id="line2d_1">
      <path d="M 48.559071 521.153031 
L 48.559071 51.564121 
" clip-path="url(#p221012f1df)" style="fill: none; stroke: #ffffff; stroke-linecap: round"/>
     </g>
     <g id="line2d_2"/>
     <g id="text_1">
      <!-- $\mathdefault{0.00}$ -->
      <g style="fill: #262626" transform="translate(36.419535 537.838907) scale(0.14 -0.14)">
       <defs>
        <path id="CMR17-30" d="M 2688 2025 
C 2688 2416 2682 3080 2413 3591 
C 2176 4039 1798 4198 1466 4198 
C 1158 4198 768 4058 525 3597 
C 269 3118 243 2524 243 2025 
C 243 1661 250 1106 448 619 
C 723 -39 1216 -128 1466 -128 
C 1760 -128 2208 -7 2470 600 
C 2662 1042 2688 1559 2688 2025 
z
M 1466 -26 
C 1056 -26 813 325 723 812 
C 653 1188 653 1738 653 2096 
C 653 2588 653 2997 736 3387 
C 858 3929 1216 4096 1466 4096 
C 1728 4096 2067 3923 2189 3400 
C 2272 3036 2278 2607 2278 2096 
C 2278 1680 2278 1169 2202 792 
C 2067 95 1690 -26 1466 -26 
z
" transform="scale(0.015625)"/>
        <path id="CMMI12-3a" d="M 1178 307 
C 1178 492 1024 619 870 619 
C 685 619 557 466 557 313 
C 557 128 710 0 864 0 
C 1050 0 1178 153 1178 307 
z
" transform="scale(0.015625)"/>
       </defs>
       <use xlink:href="#CMR17-30" transform="scale(0.996264)"/>
       <use xlink:href="#CMMI12-3a" transform="translate(45.690477 0) scale(0.996264)"/>
       <use xlink:href="#CMR17-30" transform="translate(72.787654 0) scale(0.996264)"/>
       <use xlink:href="#CMR17-30" transform="translate(118.478131 0) scale(0.996264)"/>
      </g>
     </g>
    </g>
    <g id="xtick_2">
     <g id="line2d_3">
      <path d="M 154.14938 521.153031 
L 154.14938 51.564121 
" clip-path="url(#p221012f1df)" style="fill: none; stroke: #ffffff; stroke-linecap: round"/>
     </g>
     <g id="line2d_4"/>
     <g id="text_2">
      <!-- $\mathdefault{0.25}$ -->
      <g style="fill: #262626" transform="translate(142.009845 537.838907) scale(0.14 -0.14)">
       <defs>
        <path id="CMR17-32" d="M 2669 989 
L 2554 989 
C 2490 536 2438 459 2413 420 
C 2381 369 1920 369 1830 369 
L 602 369 
C 832 619 1280 1072 1824 1597 
C 2214 1967 2669 2402 2669 3035 
C 2669 3790 2067 4224 1395 4224 
C 691 4224 262 3604 262 3030 
C 262 2780 448 2748 525 2748 
C 589 2748 781 2787 781 3010 
C 781 3207 614 3264 525 3264 
C 486 3264 448 3258 422 3245 
C 544 3790 915 4058 1306 4058 
C 1862 4058 2227 3617 2227 3035 
C 2227 2479 1901 2000 1536 1584 
L 262 146 
L 262 0 
L 2515 0 
L 2669 989 
z
" transform="scale(0.015625)"/>
        <path id="CMR17-35" d="M 730 3692 
C 794 3666 1056 3584 1325 3584 
C 1920 3584 2246 3911 2432 4100 
C 2432 4157 2432 4192 2394 4192 
C 2387 4192 2374 4192 2323 4163 
C 2099 4058 1837 3973 1517 3973 
C 1325 3973 1037 3999 723 4139 
C 653 4171 640 4171 634 4171 
C 602 4171 595 4164 595 4037 
L 595 2203 
C 595 2089 595 2057 659 2057 
C 691 2057 704 2070 736 2114 
C 941 2401 1222 2522 1542 2522 
C 1766 2522 2246 2382 2246 1289 
C 2246 1085 2246 715 2054 421 
C 1894 159 1645 25 1370 25 
C 947 25 518 320 403 814 
C 429 807 480 795 506 795 
C 589 795 749 840 749 1038 
C 749 1210 627 1280 506 1280 
C 358 1280 262 1190 262 1011 
C 262 454 704 -128 1382 -128 
C 2042 -128 2669 440 2669 1264 
C 2669 2030 2170 2624 1549 2624 
C 1222 2624 947 2503 730 2274 
L 730 3692 
z
" transform="scale(0.015625)"/>
       </defs>
       <use xlink:href="#CMR17-30" transform="scale(0.996264)"/>
       <use xlink:href="#CMMI12-3a" transform="translate(45.690477 0) scale(0.996264)"/>
       <use xlink:href="#CMR17-32" transform="translate(72.787654 0) scale(0.996264)"/>
       <use xlink:href="#CMR17-35" transform="translate(118.478131 0) scale(0.996264)"/>
      </g>
     </g>
    </g>
    <g id="xtick_3">
     <g id="line2d_5">
      <path d="M 259.73969 521.153031 
L 259.73969 51.564121 
" clip-path="url(#p221012f1df)" style="fill: none; stroke: #ffffff; stroke-linecap: round"/>
     </g>
     <g id="line2d_6"/>
     <g id="text_3">
      <!-- $\mathdefault{0.50}$ -->
      <g style="fill: #262626" transform="translate(247.600155 537.838907) scale(0.14 -0.14)">
       <use xlink:href="#CMR17-30" transform="scale(0.996264)"/>
       <use xlink:href="#CMMI12-3a" transform="translate(45.690477 0) scale(0.996264)"/>
       <use xlink:href="#CMR17-35" transform="translate(72.787654 0) scale(0.996264)"/>
       <use xlink:href="#CMR17-30" transform="translate(118.478131 0) scale(0.996264)"/>
      </g>
     </g>
    </g>
    <g id="xtick_4">
     <g id="line2d_7">
      <path d="M 365.33 521.153031 
L 365.33 51.564121 
" clip-path="url(#p221012f1df)" style="fill: none; stroke: #ffffff; stroke-linecap: round"/>
     </g>
     <g id="line2d_8"/>
     <g id="text_4">
      <!-- $\mathdefault{0.75}$ -->
      <g style="fill: #262626" transform="translate(353.190464 537.838907) scale(0.14 -0.14)">
       <defs>
        <path id="CMR17-37" d="M 2886 3941 
L 2886 4081 
L 1382 4081 
C 634 4081 621 4165 595 4288 
L 480 4288 
L 294 3094 
L 410 3094 
C 429 3215 474 3540 550 3661 
C 589 3712 1062 3712 1171 3712 
L 2579 3712 
L 1869 2661 
C 1395 1954 1069 999 1069 165 
C 1069 89 1069 -128 1299 -128 
C 1530 -128 1530 89 1530 171 
L 1530 465 
C 1530 1508 1709 2196 2003 2636 
L 2886 3941 
z
" transform="scale(0.015625)"/>
       </defs>
       <use xlink:href="#CMR17-30" transform="scale(0.996264)"/>
       <use xlink:href="#CMMI12-3a" transform="translate(45.690477 0) scale(0.996264)"/>
       <use xlink:href="#CMR17-37" transform="translate(72.787654 0) scale(0.996264)"/>
       <use xlink:href="#CMR17-35" transform="translate(118.478131 0) scale(0.996264)"/>
      </g>
     </g>
    </g>
    <g id="xtick_5">
     <g id="line2d_9">
      <path d="M 470.920309 521.153031 
L 470.920309 51.564121 
" clip-path="url(#p221012f1df)" style="fill: none; stroke: #ffffff; stroke-linecap: round"/>
     </g>
     <g id="line2d_10"/>
     <g id="text_5">
      <!-- $\mathdefault{1.00}$ -->
      <g style="fill: #262626" transform="translate(458.780774 537.838907) scale(0.14 -0.14)">
       <defs>
        <path id="CMR17-31" d="M 1702 4058 
C 1702 4192 1696 4192 1606 4192 
C 1357 3916 979 3827 621 3827 
C 602 3827 570 3827 563 3808 
C 557 3795 557 3782 557 3648 
C 755 3648 1088 3686 1344 3839 
L 1344 461 
C 1344 236 1331 160 781 160 
L 589 160 
L 589 0 
C 896 0 1216 0 1523 0 
C 1830 0 2150 0 2458 0 
L 2458 160 
L 2266 160 
C 1715 160 1702 230 1702 458 
L 1702 4058 
z
" transform="scale(0.015625)"/>
       </defs>
       <use xlink:href="#CMR17-31" transform="scale(0.996264)"/>
       <use xlink:href="#CMMI12-3a" transform="translate(45.690477 0) scale(0.996264)"/>
       <use xlink:href="#CMR17-30" transform="translate(72.787654 0) scale(0.996264)"/>
       <use xlink:href="#CMR17-30" transform="translate(118.478131 0) scale(0.996264)"/>
      </g>
     </g>
    </g>
    <g id="xtick_6">
     <g id="line2d_11">
      <path d="M 576.510619 521.153031 
L 576.510619 51.564121 
" clip-path="url(#p221012f1df)" style="fill: none; stroke: #ffffff; stroke-linecap: round"/>
     </g>
     <g id="line2d_12"/>
     <g id="text_6">
      <!-- $\mathdefault{1.25}$ -->
      <g style="fill: #262626" transform="translate(564.371084 537.838907) scale(0.14 -0.14)">
       <use xlink:href="#CMR17-31" transform="scale(0.996264)"/>
       <use xlink:href="#CMMI12-3a" transform="translate(45.690477 0) scale(0.996264)"/>
       <use xlink:href="#CMR17-32" transform="translate(72.787654 0) scale(0.996264)"/>
       <use xlink:href="#CMR17-35" transform="translate(118.478131 0) scale(0.996264)"/>
      </g>
     </g>
    </g>
    <g id="xtick_7">
     <g id="line2d_13">
      <path d="M 682.100929 521.153031 
L 682.100929 51.564121 
" clip-path="url(#p221012f1df)" style="fill: none; stroke: #ffffff; stroke-linecap: round"/>
     </g>
     <g id="line2d_14"/>
     <g id="text_7">
      <!-- $\mathdefault{1.50}$ -->
      <g style="fill: #262626" transform="translate(669.961393 537.838907) scale(0.14 -0.14)">
       <use xlink:href="#CMR17-31" transform="scale(0.996264)"/>
       <use xlink:href="#CMMI12-3a" transform="translate(45.690477 0) scale(0.996264)"/>
       <use xlink:href="#CMR17-35" transform="translate(72.787654 0) scale(0.996264)"/>
       <use xlink:href="#CMR17-30" transform="translate(118.478131 0) scale(0.996264)"/>
      </g>
     </g>
    </g>
    <g id="xtick_8">
     <g id="line2d_15">
      <path d="M 787.691238 521.153031 
L 787.691238 51.564121 
" clip-path="url(#p221012f1df)" style="fill: none; stroke: #ffffff; stroke-linecap: round"/>
     </g>
     <g id="line2d_16"/>
     <g id="text_8">
      <!-- $\mathdefault{1.75}$ -->
      <g style="fill: #262626" transform="translate(775.551703 537.838907) scale(0.14 -0.14)">
       <use xlink:href="#CMR17-31" transform="scale(0.996264)"/>
       <use xlink:href="#CMMI12-3a" transform="translate(45.690477 0) scale(0.996264)"/>
       <use xlink:href="#CMR17-37" transform="translate(72.787654 0) scale(0.996264)"/>
       <use xlink:href="#CMR17-35" transform="translate(118.478131 0) scale(0.996264)"/>
      </g>
     </g>
    </g>
    <g id="xtick_9">
     <g id="line2d_17">
      <path d="M 893.281548 521.153031 
L 893.281548 51.564121 
" clip-path="url(#p221012f1df)" style="fill: none; stroke: #ffffff; stroke-linecap: round"/>
     </g>
     <g id="line2d_18"/>
     <g id="text_9">
      <!-- $\mathdefault{2.00}$ -->
      <g style="fill: #262626" transform="translate(881.142013 537.838907) scale(0.14 -0.14)">
       <use xlink:href="#CMR17-32" transform="scale(0.996264)"/>
       <use xlink:href="#CMMI12-3a" transform="translate(45.690477 0) scale(0.996264)"/>
       <use xlink:href="#CMR17-30" transform="translate(72.787654 0) scale(0.996264)"/>
       <use xlink:href="#CMR17-30" transform="translate(118.478131 0) scale(0.996264)"/>
      </g>
     </g>
    </g>
    <g id="text_10">
     <!-- $x$ -->
     <g style="fill: #262626" transform="translate(487.603646 555.620524) scale(0.16 -0.16)">
      <defs>
       <path id="CMMI12-78" d="M 3034 2606 
C 2829 2567 2752 2414 2752 2293 
C 2752 2139 2874 2088 2963 2088 
C 3155 2088 3290 2254 3290 2427 
C 3290 2695 2982 2816 2714 2816 
C 2323 2816 2106 2433 2048 2312 
C 1901 2816 1504 2816 1389 2816 
C 736 2816 390 1980 390 1839 
C 390 1814 416 1782 461 1782 
C 512 1782 525 1820 538 1846 
C 755 2555 1184 2689 1370 2689 
C 1658 2689 1715 2420 1715 2267 
C 1715 2127 1677 1980 1600 1673 
L 1382 798 
C 1286 415 1101 64 762 64 
C 730 64 570 64 435 147 
C 666 192 717 383 717 460 
C 717 588 621 664 499 664 
C 346 664 179 530 179 326 
C 179 57 480 -64 755 -64 
C 1062 -64 1280 179 1414 441 
C 1517 64 1837 -64 2074 -64 
C 2726 -64 3072 773 3072 913 
C 3072 945 3046 971 3008 971 
C 2950 971 2944 939 2925 888 
C 2752 326 2381 64 2093 64 
C 1869 64 1747 230 1747 492 
C 1747 632 1773 734 1875 1156 
L 2099 2024 
C 2195 2408 2413 2689 2707 2689 
C 2720 2689 2899 2689 3034 2606 
z
" transform="scale(0.015625)"/>
      </defs>
      <use xlink:href="#CMMI12-78" transform="scale(0.996264)"/>
     </g>
    </g>
   </g>
   <g id="matplotlib.axis_2">
    <g id="ytick_1">
     <g id="line2d_19">
      <path d="M 48.559071 521.153031 
L 935.517672 521.153031 
" clip-path="url(#p221012f1df)" style="fill: none; stroke: #ffffff; stroke-linecap: round"/>
     </g>
     <g id="line2d_20"/>
     <g id="text_11">
      <!-- $\mathdefault{0.00}$ -->
      <g style="fill: #262626" transform="translate(17.28 525.995969) scale(0.14 -0.14)">
       <use xlink:href="#CMR17-30" transform="scale(0.996264)"/>
       <use xlink:href="#CMMI12-3a" transform="translate(45.690477 0) scale(0.996264)"/>
       <use xlink:href="#CMR17-30" transform="translate(72.787654 0) scale(0.996264)"/>
       <use xlink:href="#CMR17-30" transform="translate(118.478131 0) scale(0.996264)"/>
      </g>
     </g>
    </g>
    <g id="ytick_2">
     <g id="line2d_21">
      <path d="M 48.559071 465.260898 
L 935.517672 465.260898 
" clip-path="url(#p221012f1df)" style="fill: none; stroke: #ffffff; stroke-linecap: round"/>
     </g>
     <g id="line2d_22"/>
     <g id="text_12">
      <!-- $\mathdefault{0.25}$ -->
      <g style="fill: #262626" transform="translate(17.28 470.103836) scale(0.14 -0.14)">
       <use xlink:href="#CMR17-30" transform="scale(0.996264)"/>
       <use xlink:href="#CMMI12-3a" transform="translate(45.690477 0) scale(0.996264)"/>
       <use xlink:href="#CMR17-32" transform="translate(72.787654 0) scale(0.996264)"/>
       <use xlink:href="#CMR17-35" transform="translate(118.478131 0) scale(0.996264)"/>
      </g>
     </g>
    </g>
    <g id="ytick_3">
     <g id="line2d_23">
      <path d="M 48.559071 409.368765 
L 935.517672 409.368765 
" clip-path="url(#p221012f1df)" style="fill: none; stroke: #ffffff; stroke-linecap: round"/>
     </g>
     <g id="line2d_24"/>
     <g id="text_13">
      <!-- $\mathdefault{0.50}$ -->
      <g style="fill: #262626" transform="translate(17.28 414.211703) scale(0.14 -0.14)">
       <use xlink:href="#CMR17-30" transform="scale(0.996264)"/>
       <use xlink:href="#CMMI12-3a" transform="translate(45.690477 0) scale(0.996264)"/>
       <use xlink:href="#CMR17-35" transform="translate(72.787654 0) scale(0.996264)"/>
       <use xlink:href="#CMR17-30" transform="translate(118.478131 0) scale(0.996264)"/>
      </g>
     </g>
    </g>
    <g id="ytick_4">
     <g id="line2d_25">
      <path d="M 48.559071 353.476632 
L 935.517672 353.476632 
" clip-path="url(#p221012f1df)" style="fill: none; stroke: #ffffff; stroke-linecap: round"/>
     </g>
     <g id="line2d_26"/>
     <g id="text_14">
      <!-- $\mathdefault{0.75}$ -->
      <g style="fill: #262626" transform="translate(17.28 358.319571) scale(0.14 -0.14)">
       <use xlink:href="#CMR17-30" transform="scale(0.996264)"/>
       <use xlink:href="#CMMI12-3a" transform="translate(45.690477 0) scale(0.996264)"/>
       <use xlink:href="#CMR17-37" transform="translate(72.787654 0) scale(0.996264)"/>
       <use xlink:href="#CMR17-35" transform="translate(118.478131 0) scale(0.996264)"/>
      </g>
     </g>
    </g>
    <g id="ytick_5">
     <g id="line2d_27">
      <path d="M 48.559071 297.5845 
L 935.517672 297.5845 
" clip-path="url(#p221012f1df)" style="fill: none; stroke: #ffffff; stroke-linecap: round"/>
     </g>
     <g id="line2d_28"/>
     <g id="text_15">
      <!-- $\mathdefault{1.00}$ -->
      <g style="fill: #262626" transform="translate(17.28 302.427438) scale(0.14 -0.14)">
       <use xlink:href="#CMR17-31" transform="scale(0.996264)"/>
       <use xlink:href="#CMMI12-3a" transform="translate(45.690477 0) scale(0.996264)"/>
       <use xlink:href="#CMR17-30" transform="translate(72.787654 0) scale(0.996264)"/>
       <use xlink:href="#CMR17-30" transform="translate(118.478131 0) scale(0.996264)"/>
      </g>
     </g>
    </g>
    <g id="ytick_6">
     <g id="line2d_29">
      <path d="M 48.559071 241.692367 
L 935.517672 241.692367 
" clip-path="url(#p221012f1df)" style="fill: none; stroke: #ffffff; stroke-linecap: round"/>
     </g>
     <g id="line2d_30"/>
     <g id="text_16">
      <!-- $\mathdefault{1.25}$ -->
      <g style="fill: #262626" transform="translate(17.28 246.535305) scale(0.14 -0.14)">
       <use xlink:href="#CMR17-31" transform="scale(0.996264)"/>
       <use xlink:href="#CMMI12-3a" transform="translate(45.690477 0) scale(0.996264)"/>
       <use xlink:href="#CMR17-32" transform="translate(72.787654 0) scale(0.996264)"/>
       <use xlink:href="#CMR17-35" transform="translate(118.478131 0) scale(0.996264)"/>
      </g>
     </g>
    </g>
    <g id="ytick_7">
     <g id="line2d_31">
      <path d="M 48.559071 185.800234 
L 935.517672 185.800234 
" clip-path="url(#p221012f1df)" style="fill: none; stroke: #ffffff; stroke-linecap: round"/>
     </g>
     <g id="line2d_32"/>
     <g id="text_17">
      <!-- $\mathdefault{1.50}$ -->
      <g style="fill: #262626" transform="translate(17.28 190.643172) scale(0.14 -0.14)">
       <use xlink:href="#CMR17-31" transform="scale(0.996264)"/>
       <use xlink:href="#CMMI12-3a" transform="translate(45.690477 0) scale(0.996264)"/>
       <use xlink:href="#CMR17-35" transform="translate(72.787654 0) scale(0.996264)"/>
       <use xlink:href="#CMR17-30" transform="translate(118.478131 0) scale(0.996264)"/>
      </g>
     </g>
    </g>
    <g id="ytick_8">
     <g id="line2d_33">
      <path d="M 48.559071 129.908102 
L 935.517672 129.908102 
" clip-path="url(#p221012f1df)" style="fill: none; stroke: #ffffff; stroke-linecap: round"/>
     </g>
     <g id="line2d_34"/>
     <g id="text_18">
      <!-- $\mathdefault{1.75}$ -->
      <g style="fill: #262626" transform="translate(17.28 134.75104) scale(0.14 -0.14)">
       <use xlink:href="#CMR17-31" transform="scale(0.996264)"/>
       <use xlink:href="#CMMI12-3a" transform="translate(45.690477 0) scale(0.996264)"/>
       <use xlink:href="#CMR17-37" transform="translate(72.787654 0) scale(0.996264)"/>
       <use xlink:href="#CMR17-35" transform="translate(118.478131 0) scale(0.996264)"/>
      </g>
     </g>
    </g>
    <g id="ytick_9">
     <g id="line2d_35">
      <path d="M 48.559071 74.015969 
L 935.517672 74.015969 
" clip-path="url(#p221012f1df)" style="fill: none; stroke: #ffffff; stroke-linecap: round"/>
     </g>
     <g id="line2d_36"/>
     <g id="text_19">
      <!-- $\mathdefault{2.00}$ -->
      <g style="fill: #262626" transform="translate(17.28 78.858907) scale(0.14 -0.14)">
       <use xlink:href="#CMR17-32" transform="scale(0.996264)"/>
       <use xlink:href="#CMMI12-3a" transform="translate(45.690477 0) scale(0.996264)"/>
       <use xlink:href="#CMR17-30" transform="translate(72.787654 0) scale(0.996264)"/>
       <use xlink:href="#CMR17-30" transform="translate(118.478131 0) scale(0.996264)"/>
      </g>
     </g>
    </g>
   </g>
   <g id="line2d_37">
    <path d="M 48.559071 74.015969 
L 57.006295 74.015969 
L 65.45352 74.015969 
L 73.900745 74.015969 
L 82.34797 74.015969 
L 90.795195 74.015969 
L 99.242419 74.015969 
L 107.689644 74.015969 
L 116.136869 74.015969 
L 124.584094 74.015969 
L 133.031318 74.015969 
L 141.478543 74.015969 
L 149.925768 74.015969 
L 158.372993 74.015969 
L 166.820217 74.015969 
L 175.267442 74.015969 
L 183.714667 74.015969 
L 192.161892 74.015969 
L 200.609117 74.015969 
L 209.056341 74.015969 
L 217.503566 74.015969 
L 225.950791 74.015969 
L 234.398016 74.015969 
L 242.84524 74.015969 
L 251.292465 74.015969 
L 259.73969 74.015969 
L 268.186915 74.015969 
L 276.63414 74.015969 
L 285.081364 74.015969 
L 293.528589 74.015969 
L 301.975814 74.015969 
L 310.423039 74.015969 
L 318.870263 74.015969 
L 327.317488 74.015969 
L 335.764713 74.015969 
L 344.211938 74.015969 
L 352.659162 74.015969 
L 361.106387 74.015969 
L 369.553612 74.015969 
L 378.000837 74.015969 
L 386.448062 74.015969 
L 394.895286 74.015969 
L 403.342511 74.015969 
L 411.789736 74.015969 
L 420.236961 74.015969 
L 428.684185 74.015969 
L 437.13141 74.015969 
L 445.578635 74.015969 
L 454.02586 74.015969 
L 462.473085 74.015969 
L 470.920309 74.015969 
L 479.367534 74.015969 
L 487.814759 74.015969 
L 496.261984 74.015969 
L 504.709208 74.015969 
L 513.156433 74.015969 
L 521.603658 74.015969 
L 530.050883 74.015969 
L 538.498107 74.015969 
L 546.945332 74.015969 
L 555.392557 74.015969 
L 563.839782 74.015969 
L 572.287007 74.015969 
L 580.734231 74.015969 
L 589.181456 74.015969 
L 597.628681 74.015969 
L 606.075906 74.015969 
L 614.52313 74.015969 
L 622.970355 74.015969 
L 631.41758 74.015969 
L 639.864805 74.015969 
L 648.31203 74.015969 
L 656.759254 74.015969 
L 665.206479 74.015969 
L 673.653704 74.015969 
L 682.100929 74.015969 
L 690.548153 74.015969 
L 698.995378 74.015969 
L 707.442603 74.015969 
L 715.889828 74.015969 
L 724.337052 74.015969 
L 732.784277 74.015969 
L 741.231502 74.015969 
L 749.678727 74.015969 
L 758.125952 74.015969 
L 766.573176 74.015969 
L 775.020401 74.015969 
L 783.467626 74.015969 
L 791.914851 74.015969 
L 800.362075 74.015969 
L 808.8093 74.015969 
L 817.256525 74.015969 
L 825.70375 74.015969 
L 834.150975 74.015969 
L 842.598199 74.015969 
L 851.045424 74.015969 
L 859.492649 74.015969 
L 867.939874 74.015969 
L 876.387098 74.015969 
L 884.834323 74.015969 
L 893.281548 74.015969 
" clip-path="url(#p221012f1df)" style="fill: none; stroke: #393b79; stroke-width: 2; stroke-linecap: round"/>
   </g>
   <g id="line2d_38">
    <path d="M 48.559071 131.913189 
L 57.006295 131.663122 
L 65.45352 131.414322 
L 73.900745 131.166785 
L 82.34797 130.91626 
L 90.795195 130.666319 
L 99.242419 130.417643 
L 107.689644 130.170226 
L 116.136869 129.92406 
L 124.584094 129.679138 
L 133.031318 129.435474 
L 141.478543 129.193043 
L 149.925768 128.951836 
L 158.372993 128.711846 
L 166.820217 128.473067 
L 175.267442 128.235492 
L 183.714667 127.999119 
L 192.161892 127.763942 
L 200.609117 127.529949 
L 209.056341 127.297143 
L 217.503566 127.065512 
L 225.950791 126.835045 
L 234.398016 126.605734 
L 242.84524 126.377575 
L 251.292465 126.150561 
L 259.73969 125.924601 
L 268.186915 125.695339 
L 276.63414 125.467226 
L 285.081364 125.240255 
L 293.528589 125.014421 
L 301.975814 124.789715 
L 310.423039 124.566134 
L 318.870263 124.343679 
L 327.317488 124.12234 
L 335.764713 123.902107 
L 344.211938 123.682974 
L 352.659162 123.464936 
L 361.106387 123.24799 
L 369.553612 123.032125 
L 378.000837 122.817335 
L 386.448062 122.603615 
L 394.895286 122.390967 
L 403.342511 122.179379 
L 411.789736 121.968845 
L 420.236961 121.759365 
L 428.684185 121.550926 
L 437.13141 121.343522 
L 445.578635 121.137148 
L 454.02586 120.931798 
L 462.473085 120.727467 
L 470.920309 120.522144 
L 479.367534 120.315718 
L 487.814759 120.110318 
L 496.261984 119.905958 
L 504.709208 119.702615 
L 513.156433 119.500279 
L 521.603658 119.298943 
L 530.050883 119.098603 
L 538.498107 118.899253 
L 546.945332 118.700888 
L 555.392557 118.503502 
L 563.839782 118.307092 
L 572.287007 118.111651 
L 580.734231 117.917175 
L 589.181456 117.723665 
L 597.628681 117.531109 
L 606.075906 117.339501 
L 614.52313 117.148837 
L 622.970355 116.959112 
L 631.41758 116.770324 
L 639.864805 116.582464 
L 648.31203 116.39553 
L 656.759254 116.20952 
L 665.206479 116.024426 
L 673.653704 115.840241 
L 682.100929 115.656961 
L 690.548153 115.47458 
L 698.995378 115.293094 
L 707.442603 115.110555 
L 715.889828 114.92717 
L 724.337052 114.744685 
L 732.784277 114.563094 
L 741.231502 114.382393 
L 749.678727 114.202576 
L 758.125952 114.023642 
L 766.573176 113.845591 
L 775.020401 113.66841 
L 783.467626 113.492095 
L 791.914851 113.316642 
L 800.362075 113.142047 
L 808.8093 112.968305 
L 817.256525 112.795412 
L 825.70375 112.623365 
L 834.150975 112.452156 
L 842.598199 112.281784 
L 851.045424 112.112242 
L 859.492649 111.943527 
L 867.939874 111.775636 
L 876.387098 111.608565 
L 884.834323 111.442309 
L 893.281548 111.276861 
" clip-path="url(#p221012f1df)" style="fill: none; stroke: #6b6ecf; stroke-width: 2; stroke-linecap: round"/>
   </g>
   <g id="line2d_39">
    <path d="M 48.559071 285.415168 
L 57.006295 284.686992 
L 65.45352 283.956856 
L 73.900745 283.227909 
L 82.34797 282.504307 
L 90.795195 281.782735 
L 99.242419 281.058076 
L 107.689644 280.338642 
L 116.136869 279.624366 
L 124.584094 278.905945 
L 133.031318 278.190424 
L 141.478543 277.480078 
L 149.925768 276.771751 
L 158.372993 276.060273 
L 166.820217 275.353666 
L 175.267442 274.65199 
L 183.714667 273.94822 
L 192.161892 273.24527 
L 200.609117 272.547196 
L 209.056341 271.853936 
L 217.503566 271.155425 
L 225.950791 270.46079 
L 234.398016 269.770921 
L 242.84524 269.084811 
L 251.292465 268.393304 
L 259.73969 267.70654 
L 268.186915 267.024499 
L 276.63414 266.345378 
L 285.081364 265.661573 
L 293.528589 264.982526 
L 301.975814 264.308056 
L 310.423039 263.636716 
L 318.870263 262.960461 
L 327.317488 262.288662 
L 335.764713 261.621328 
L 344.211938 260.958484 
L 352.659162 260.28962 
L 361.106387 259.624896 
L 369.553612 258.964565 
L 378.000837 258.308638 
L 386.448062 257.649507 
L 394.895286 256.99156 
L 403.342511 256.337864 
L 411.789736 255.688456 
L 420.236961 255.040062 
L 428.684185 254.388601 
L 437.13141 253.74141 
L 445.578635 253.098417 
L 454.02586 252.459562 
L 462.473085 251.816582 
L 470.920309 251.175555 
L 479.367534 250.538624 
L 487.814759 249.905841 
L 496.261984 249.27572 
L 504.709208 248.640513 
L 513.156433 248.009456 
L 521.603658 247.382521 
L 530.050883 246.7596 
L 538.498107 246.137225 
L 546.945332 245.511762 
L 555.392557 244.890252 
L 563.839782 244.272734 
L 572.287007 243.659182 
L 580.734231 243.045663 
L 589.181456 242.429534 
L 597.628681 241.817234 
L 606.075906 241.208784 
L 614.52313 240.604273 
L 622.970355 240.000913 
L 631.41758 239.393792 
L 639.864805 238.790411 
L 648.31203 238.190729 
L 656.759254 237.594792 
L 665.206479 237.002615 
L 673.653704 236.404296 
L 682.100929 235.809368 
L 690.548153 235.218138 
L 698.995378 234.630541 
L 707.442603 234.046614 
L 715.889828 233.461295 
L 724.337052 232.874608 
L 732.784277 232.291462 
L 741.231502 231.711842 
L 749.678727 231.135778 
L 758.125952 230.563234 
L 766.573176 229.98585 
L 775.020401 229.410501 
L 783.467626 228.838599 
L 791.914851 228.27014 
L 800.362075 227.70513 
L 808.8093 227.143558 
L 817.256525 226.575796 
L 825.70375 226.011399 
L 834.150975 225.45035 
L 842.598199 224.892601 
L 851.045424 224.338157 
L 859.492649 223.786975 
L 867.939874 223.230274 
L 876.387098 222.676183 
L 884.834323 222.125524 
L 893.281548 221.578115 
" clip-path="url(#p221012f1df)" style="fill: none; stroke: #637939; stroke-width: 2; stroke-linecap: round"/>
   </g>
   <g id="line2d_40">
    <path d="M 48.559071 383.750886 
L 57.006295 382.85352 
L 65.45352 381.956684 
L 73.900745 381.060966 
L 82.34797 380.166556 
L 90.795195 379.273483 
L 99.242419 378.380451 
L 107.689644 377.487259 
L 116.136869 376.595759 
L 124.584094 375.705759 
L 133.031318 374.816934 
L 141.478543 373.927111 
L 149.925768 373.038881 
L 158.372993 372.152573 
L 166.820217 371.267499 
L 175.267442 370.381184 
L 183.714667 369.497143 
L 192.161892 368.615418 
L 200.609117 367.732662 
L 209.056341 366.851136 
L 217.503566 365.972177 
L 225.950791 365.093409 
L 234.398016 364.214773 
L 242.84524 363.339087 
L 251.292465 362.463574 
L 259.73969 361.588282 
L 268.186915 360.71623 
L 276.63414 359.843757 
L 285.081364 358.972185 
L 293.528589 358.104331 
L 301.975814 357.234375 
L 310.423039 356.367156 
L 318.870263 355.502256 
L 327.317488 354.636037 
L 335.764713 353.773918 
L 344.211938 352.910624 
L 352.659162 352.049692 
L 361.106387 351.190987 
L 369.553612 350.331293 
L 378.000837 349.476515 
L 386.448062 348.618641 
L 394.895286 347.765523 
L 403.342511 346.91173 
L 411.789736 346.06015 
L 420.236961 345.210452 
L 428.684185 344.360712 
L 437.13141 343.514868 
L 445.578635 342.667169 
L 454.02586 341.82484 
L 462.473085 340.979404 
L 470.920309 340.140257 
L 479.367534 339.2974 
L 487.814759 338.461007 
L 496.261984 337.621301 
L 504.709208 336.787667 
L 513.156433 335.951074 
L 521.603658 335.120696 
L 530.050883 334.28698 
L 538.498107 333.459954 
L 546.945332 332.628955 
L 555.392557 331.804849 
L 563.839782 330.977021 
L 572.287007 330.155513 
L 580.734231 329.331436 
L 589.181456 328.512363 
L 597.628681 327.692449 
L 606.075906 326.875288 
L 614.52313 326.059796 
L 622.970355 325.245116 
L 631.41758 324.434427 
L 639.864805 323.621316 
L 648.31203 322.814884 
L 656.759254 322.004543 
L 665.206479 321.199895 
L 673.653704 320.394785 
L 682.100929 319.591728 
L 690.548153 318.792271 
L 698.995378 317.990802 
L 707.442603 317.195644 
L 715.889828 316.397436 
L 724.337052 315.603639 
L 732.784277 314.811832 
L 741.231502 314.019006 
L 749.678727 313.232565 
L 758.125952 312.44252 
L 766.573176 311.656924 
L 775.020401 310.874388 
L 783.467626 310.089638 
L 791.914851 309.310929 
L 800.362075 308.530755 
L 808.8093 307.752836 
L 817.256525 306.980909 
L 825.70375 306.203643 
L 834.150975 305.432238 
L 842.598199 304.663661 
L 851.045424 303.89251 
L 859.492649 303.127202 
L 867.939874 302.362311 
L 876.387098 301.5973 
L 884.834323 300.83812 
L 893.281548 300.077447 
" clip-path="url(#p221012f1df)" style="fill: none; stroke: #b5cf6b; stroke-width: 2; stroke-linecap: round"/>
   </g>
   <g id="line2d_41">
    <path d="M 48.559071 483.749308 
L 57.006295 483.00692 
L 65.45352 482.260293 
L 73.900745 481.509511 
L 82.34797 480.75448 
L 90.795195 479.995501 
L 99.242419 479.232499 
L 107.689644 478.465501 
L 116.136869 477.694814 
L 124.584094 476.92028 
L 133.031318 476.141927 
L 141.478543 475.360237 
L 149.925768 474.574889 
L 158.372993 473.785868 
L 166.820217 472.993607 
L 175.267442 472.197865 
L 183.714667 471.398907 
L 192.161892 470.596667 
L 200.609117 469.79144 
L 209.056341 468.982797 
L 217.503566 468.171265 
L 225.950791 467.356825 
L 234.398016 466.539434 
L 242.84524 465.71919 
L 251.292465 464.896107 
L 259.73969 464.070295 
L 268.186915 463.241863 
L 276.63414 462.410904 
L 285.081364 461.577435 
L 293.528589 460.741104 
L 301.975814 459.902578 
L 310.423039 459.061817 
L 318.870263 458.218308 
L 327.317488 457.372997 
L 335.764713 456.524954 
L 344.211938 455.675365 
L 352.659162 454.822972 
L 361.106387 453.968928 
L 369.553612 453.113014 
L 378.000837 452.254694 
L 386.448062 451.394649 
L 394.895286 450.532964 
L 403.342511 449.669419 
L 411.789736 448.804037 
L 420.236961 447.936781 
L 428.684185 447.067907 
L 437.13141 446.197563 
L 445.578635 445.325596 
L 454.02586 444.452144 
L 462.473085 443.577285 
L 470.920309 442.701014 
L 479.367534 441.823488 
L 487.814759 440.944198 
L 496.261984 440.063566 
L 504.709208 439.181862 
L 513.156433 438.299151 
L 521.603658 437.415663 
L 530.050883 436.530079 
L 538.498107 435.643843 
L 546.945332 434.757 
L 555.392557 433.868516 
L 563.839782 432.979213 
L 572.287007 432.089746 
L 580.734231 431.198133 
L 589.181456 430.306801 
L 597.628681 429.413875 
L 606.075906 428.52061 
L 614.52313 427.62636 
L 622.970355 426.732041 
L 631.41758 425.836333 
L 639.864805 424.94077 
L 648.31203 424.043579 
L 656.759254 423.14688 
L 665.206479 422.249109 
L 673.653704 421.350758 
L 682.100929 420.452891 
L 690.548153 419.553328 
L 698.995378 418.65403 
L 707.442603 417.754891 
L 715.889828 416.854904 
L 724.337052 415.954377 
L 732.784277 415.053964 
L 741.231502 414.153812 
L 749.678727 413.253031 
L 758.125952 412.351594 
L 766.573176 411.450384 
L 775.020401 410.54945 
L 783.467626 409.648591 
L 791.914851 408.747819 
L 800.362075 407.846356 
L 808.8093 406.9449 
L 817.256525 406.043657 
L 825.70375 405.142607 
L 834.150975 404.241759 
L 842.598199 403.341055 
L 851.045424 402.440501 
L 859.492649 401.540108 
L 867.939874 400.64009 
L 876.387098 399.740257 
L 884.834323 398.84071 
L 893.281548 397.941492 
" clip-path="url(#p221012f1df)" style="fill: none; stroke: #8c6d31; stroke-width: 2; stroke-linecap: round"/>
   </g>
   <g id="line2d_42">
    <path d="M 48.559071 514.361392 
L 57.006295 513.968817 
L 65.45352 513.566846 
L 73.900745 513.155595 
L 82.34797 512.735211 
L 90.795195 512.3058 
L 99.242419 511.867455 
L 107.689644 511.420347 
L 116.136869 510.964625 
L 124.584094 510.500309 
L 133.031318 510.027494 
L 141.478543 509.546483 
L 149.925768 509.057227 
L 158.372993 508.55987 
L 166.820217 508.054565 
L 175.267442 507.541339 
L 183.714667 507.02042 
L 192.161892 506.49182 
L 200.609117 505.955673 
L 209.056341 505.41212 
L 217.503566 504.861256 
L 225.950791 504.303157 
L 234.398016 503.737934 
L 242.84524 503.165726 
L 251.292465 502.586551 
L 259.73969 502.000606 
L 268.186915 501.407929 
L 276.63414 500.808673 
L 285.081364 500.202855 
L 293.528589 499.590647 
L 301.975814 498.972164 
L 310.423039 498.347352 
L 318.870263 497.716532 
L 327.317488 497.07958 
L 335.764713 496.436686 
L 344.211938 495.787989 
L 352.659162 495.133491 
L 361.106387 494.473341 
L 369.553612 493.807569 
L 378.000837 493.136344 
L 386.448062 492.459716 
L 394.895286 491.777692 
L 403.342511 491.090464 
L 411.789736 490.398102 
L 420.236961 489.700629 
L 428.684185 488.998197 
L 437.13141 488.290894 
L 445.578635 487.578671 
L 454.02586 486.861816 
L 462.473085 486.140202 
L 470.920309 485.413983 
L 479.367534 484.68331 
L 487.814759 483.94823 
L 496.261984 483.208741 
L 504.709208 482.465075 
L 513.156433 481.71701 
L 521.603658 480.965021 
L 530.050883 480.208807 
L 538.498107 479.448797 
L 546.945332 478.684777 
L 555.392557 477.916824 
L 563.839782 477.145156 
L 572.287007 476.369853 
L 580.734231 475.590898 
L 589.181456 474.808343 
L 597.628681 474.022203 
L 606.075906 473.232713 
L 614.52313 472.43983 
L 622.970355 471.643828 
L 631.41758 470.84441 
L 639.864805 470.041912 
L 648.31203 469.236177 
L 656.759254 468.42742 
L 665.206479 467.615787 
L 673.653704 466.801156 
L 682.100929 465.983726 
L 690.548153 465.163371 
L 698.995378 464.340437 
L 707.442603 463.514745 
L 715.889828 462.686516 
L 724.337052 461.855855 
L 732.784277 461.022341 
L 741.231502 460.186409 
L 749.678727 459.348431 
L 758.125952 458.507675 
L 766.573176 457.664894 
L 775.020401 456.819812 
L 783.467626 455.972706 
L 791.914851 455.12311 
L 800.362075 454.271911 
L 808.8093 453.418346 
L 817.256525 452.562848 
L 825.70375 451.705666 
L 834.150975 450.846761 
L 842.598199 449.985554 
L 851.045424 449.122604 
L 859.492649 448.257978 
L 867.939874 447.391827 
L 876.387098 446.524008 
L 884.834323 445.654649 
L 893.281548 444.783789 
" clip-path="url(#p221012f1df)" style="fill: none; stroke: #e7cb94; stroke-width: 2; stroke-linecap: round"/>
   </g>
   <g id="line2d_43">
    <path d="M 48.559071 519.627097 
L 57.006295 519.42391 
L 65.45352 519.208916 
L 73.900745 518.982257 
L 82.34797 518.744093 
L 90.795195 518.494559 
L 99.242419 518.233781 
L 107.689644 517.96193 
L 116.136869 517.679164 
L 124.584094 517.385564 
L 133.031318 517.081257 
L 141.478543 516.766494 
L 149.925768 516.441304 
L 158.372993 516.105855 
L 166.820217 515.760285 
L 175.267442 515.404688 
L 183.714667 515.039255 
L 192.161892 514.664075 
L 200.609117 514.279272 
L 209.056341 513.884985 
L 217.503566 513.481367 
L 225.950791 513.068514 
L 234.398016 512.646537 
L 242.84524 512.215567 
L 251.292465 511.77572 
L 259.73969 511.327138 
L 268.186915 510.869928 
L 276.63414 510.404219 
L 285.081364 509.930071 
L 293.528589 509.447669 
L 301.975814 508.957126 
L 310.423039 508.458464 
L 318.870263 507.951928 
L 327.317488 507.437521 
L 335.764713 506.915384 
L 344.211938 506.385644 
L 352.659162 505.848398 
L 361.106387 505.303749 
L 369.553612 504.751806 
L 378.000837 504.192698 
L 386.448062 503.626463 
L 394.895286 503.053283 
L 403.342511 502.473146 
L 411.789736 501.886336 
L 420.236961 501.292753 
L 428.684185 500.692606 
L 437.13141 500.086053 
L 445.578635 499.473009 
L 454.02586 498.853698 
L 462.473085 498.228224 
L 470.920309 497.596581 
L 479.367534 496.958988 
L 487.814759 496.315473 
L 496.261984 495.666042 
L 504.709208 495.010939 
L 513.156433 494.350137 
L 521.603658 493.683853 
L 530.050883 493.01204 
L 538.498107 492.334911 
L 546.945332 491.65241 
L 555.392557 490.964723 
L 563.839782 490.271845 
L 572.287007 489.573979 
L 580.734231 488.871117 
L 589.181456 488.163442 
L 597.628681 487.45084 
L 606.075906 486.733546 
L 614.52313 486.011623 
L 622.970355 485.2852 
L 631.41758 484.554247 
L 639.864805 483.818774 
L 648.31203 483.079129 
L 656.759254 482.335151 
L 665.206479 481.58696 
L 673.653704 480.834722 
L 682.100929 480.078339 
L 690.548153 479.31796 
L 698.995378 478.553897 
L 707.442603 477.785942 
L 715.889828 477.014216 
L 724.337052 476.238771 
L 732.784277 475.459597 
L 741.231502 474.67696 
L 749.678727 473.890983 
L 758.125952 473.101392 
L 766.573176 472.308499 
L 775.020401 471.512415 
L 783.467626 470.7131 
L 791.914851 469.910437 
L 800.362075 469.104879 
L 808.8093 468.296399 
L 817.256525 467.484774 
L 825.70375 466.670243 
L 834.150975 465.8529 
L 842.598199 465.032773 
L 851.045424 464.209943 
L 859.492649 463.384388 
L 867.939874 462.556127 
L 876.387098 461.725332 
L 884.834323 460.892242 
L 893.281548 460.056741 
" clip-path="url(#p221012f1df)" style="fill: none; stroke: #ad494a; stroke-width: 2; stroke-linecap: round"/>
   </g>
   <g id="line2d_44">
    <path d="M 48.559071 520.831055 
L 57.006295 520.681806 
L 65.45352 520.557667 
L 73.900745 520.425259 
L 82.34797 520.280183 
L 90.795195 520.122588 
L 99.242419 519.952619 
L 107.689644 519.770444 
L 116.136869 519.576227 
L 124.584094 519.370079 
L 133.031318 519.15214 
L 141.478543 518.922635 
L 149.925768 518.681638 
L 158.372993 518.429314 
L 166.820217 518.165811 
L 175.267442 517.891242 
L 183.714667 517.605794 
L 192.161892 517.309573 
L 200.609117 517.002715 
L 209.056341 516.685368 
L 217.503566 516.357683 
L 225.950791 516.019777 
L 234.398016 515.671767 
L 242.84524 515.313801 
L 251.292465 514.945991 
L 259.73969 514.568492 
L 268.186915 514.18143 
L 276.63414 513.784927 
L 285.081364 513.37906 
L 293.528589 512.964032 
L 301.975814 512.539943 
L 310.423039 512.106846 
L 318.870263 511.664975 
L 327.317488 511.214355 
L 335.764713 510.755137 
L 344.211938 510.28745 
L 352.659162 509.811392 
L 361.106387 509.327096 
L 369.553612 508.834658 
L 378.000837 508.334208 
L 386.448062 507.825833 
L 394.895286 507.309664 
L 403.342511 506.785757 
L 411.789736 506.254345 
L 420.236961 505.715408 
L 428.684185 505.169108 
L 437.13141 504.615575 
L 445.578635 504.054861 
L 454.02586 503.487074 
L 462.473085 502.912377 
L 470.920309 502.330774 
L 479.367534 501.742413 
L 487.814759 501.147456 
L 496.261984 500.545871 
L 504.709208 499.937851 
L 513.156433 499.323458 
L 521.603658 498.702852 
L 530.050883 498.076037 
L 538.498107 497.443168 
L 546.945332 496.804302 
L 555.392557 496.159501 
L 563.839782 495.508898 
L 572.287007 494.85267 
L 580.734231 494.190693 
L 589.181456 493.523274 
L 597.628681 492.850385 
L 606.075906 492.172016 
L 614.52313 491.488468 
L 622.970355 490.79979 
L 631.41758 490.105969 
L 639.864805 489.406993 
L 648.31203 488.703178 
L 656.759254 487.994517 
L 665.206479 487.28107 
L 673.653704 486.562866 
L 682.100929 485.840033 
L 690.548153 485.112615 
L 698.995378 484.380868 
L 707.442603 483.644662 
L 715.889828 482.90419 
L 724.337052 482.159526 
L 732.784277 481.410448 
L 741.231502 480.65754 
L 749.678727 479.900418 
L 758.125952 479.139379 
L 766.573176 478.374528 
L 775.020401 477.605919 
L 783.467626 476.833509 
L 791.914851 476.057347 
L 800.362075 475.277623 
L 808.8093 474.49445 
L 817.256525 473.707957 
L 825.70375 472.917744 
L 834.150975 472.124485 
L 842.598199 471.327681 
L 851.045424 470.527936 
L 859.492649 469.724753 
L 867.939874 468.918641 
L 876.387098 468.109553 
L 884.834323 467.297573 
L 893.281548 466.48271 
" clip-path="url(#p221012f1df)" style="fill: none; stroke: #e7969c; stroke-width: 2; stroke-linecap: round"/>
   </g>
   <g id="line2d_45">
    <path d="M 48.559071 521.851709 
L 57.006295 521.491492 
L 65.45352 521.206056 
L 73.900745 520.979635 
L 82.34797 520.799893 
L 90.795195 520.657064 
L 99.242419 520.533451 
L 107.689644 520.398648 
L 116.136869 520.251218 
L 124.584094 520.091288 
L 133.031318 519.919003 
L 141.478543 519.734578 
L 149.925768 519.538107 
L 158.372993 519.329755 
L 166.820217 519.109675 
L 175.267442 518.87799 
L 183.714667 518.634884 
L 192.161892 518.380473 
L 200.609117 518.114898 
L 209.056341 517.838311 
L 217.503566 517.550867 
L 225.950791 517.252686 
L 234.398016 516.943896 
L 242.84524 516.624643 
L 251.292465 516.295053 
L 259.73969 515.955276 
L 268.186915 515.605444 
L 276.63414 515.245687 
L 285.081364 514.876092 
L 293.528589 514.496853 
L 301.975814 514.108084 
L 310.423039 513.70984 
L 318.870263 513.302351 
L 327.317488 512.885669 
L 335.764713 512.459924 
L 344.211938 512.02527 
L 352.659162 511.581792 
L 361.106387 511.129632 
L 369.553612 510.668899 
L 378.000837 510.199726 
L 386.448062 509.722186 
L 394.895286 509.236442 
L 403.342511 508.742545 
L 411.789736 508.240703 
L 420.236961 507.730946 
L 428.684185 507.213391 
L 437.13141 506.688224 
L 445.578635 506.155451 
L 454.02586 505.615245 
L 462.473085 505.067682 
L 470.920309 504.512853 
L 479.367534 503.950919 
L 487.814759 503.381939 
L 496.261984 502.806014 
L 504.709208 502.223247 
L 513.156433 501.633723 
L 521.603658 501.037635 
L 530.050883 500.434961 
L 538.498107 499.825923 
L 546.945332 499.210452 
L 555.392557 498.588751 
L 563.839782 497.960899 
L 572.287007 497.327011 
L 580.734231 496.687095 
L 589.181456 496.041397 
L 597.628681 495.389862 
L 606.075906 494.732532 
L 614.52313 494.069686 
L 622.970355 493.401399 
L 631.41758 492.727626 
L 639.864805 492.048448 
L 648.31203 491.364004 
L 656.759254 490.674431 
L 665.206479 489.979803 
L 673.653704 489.28006 
L 682.100929 488.57543 
L 690.548153 487.865922 
L 698.995378 487.151749 
L 707.442603 486.432871 
L 715.889828 485.709316 
L 724.337052 484.98128 
L 732.784277 484.248718 
L 741.231502 483.511838 
L 749.678727 482.770733 
L 758.125952 482.025245 
L 766.573176 481.275641 
L 775.020401 480.522042 
L 783.467626 479.764447 
L 791.914851 479.002733 
L 800.362075 478.237258 
L 808.8093 477.468031 
L 817.256525 476.695088 
L 825.70375 475.918497 
L 834.150975 475.138353 
L 842.598199 474.354737 
L 851.045424 473.567377 
L 859.492649 472.776803 
L 867.939874 471.982924 
L 876.387098 471.185824 
L 884.834323 470.385409 
L 893.281548 469.582081 
" clip-path="url(#p221012f1df)" style="fill: none; stroke: #a55194; stroke-width: 2; stroke-linecap: round"/>
   </g>
   <g id="line2d_46">
    <path d="M 48.559071 523.052927 
L 57.006295 522.441937 
L 65.45352 521.958791 
L 73.900745 521.576325 
L 82.34797 521.273332 
L 90.795195 521.033054 
L 99.242419 520.842328 
L 107.689644 520.690806 
L 116.136869 520.566156 
L 124.584094 520.434652 
L 133.031318 520.29045 
L 141.478543 520.133757 
L 149.925768 519.96468 
L 158.372993 519.783386 
L 166.820217 519.590029 
L 175.267442 519.384738 
L 183.714667 519.167696 
L 192.161892 518.939025 
L 200.609117 518.698869 
L 209.056341 518.447382 
L 217.503566 518.18472 
L 225.950791 517.911009 
L 234.398016 517.626379 
L 242.84524 517.33098 
L 251.292465 517.02494 
L 259.73969 516.70841 
L 268.186915 516.381527 
L 276.63414 516.044422 
L 285.081364 515.69719 
L 293.528589 515.34002 
L 301.975814 514.973032 
L 310.423039 514.596288 
L 318.870263 514.210012 
L 327.317488 513.814268 
L 335.764713 513.409181 
L 344.211938 512.994911 
L 352.659162 512.571549 
L 361.106387 512.139235 
L 369.553612 511.698079 
L 378.000837 511.248219 
L 386.448062 510.789729 
L 394.895286 510.322784 
L 403.342511 509.847419 
L 411.789736 509.363861 
L 420.236961 508.872128 
L 428.684185 508.372366 
L 437.13141 507.864733 
L 445.578635 507.349252 
L 454.02586 506.826079 
L 462.473085 506.295335 
L 470.920309 505.757076 
L 479.367534 505.211472 
L 487.814759 504.658605 
L 496.261984 504.098542 
L 504.709208 503.531416 
L 513.156433 502.957346 
L 521.603658 502.376448 
L 530.050883 501.788739 
L 538.498107 501.19444 
L 546.945332 500.593526 
L 555.392557 499.986108 
L 563.839782 499.372381 
L 572.287007 498.752388 
L 580.734231 498.126148 
L 589.181456 497.493956 
L 597.628681 496.855656 
L 606.075906 496.211422 
L 614.52313 495.56146 
L 622.970355 494.905813 
L 631.41758 494.244503 
L 639.864805 493.577553 
L 648.31203 492.905242 
L 656.759254 492.227566 
L 665.206479 491.544617 
L 673.653704 490.856434 
L 682.100929 490.163122 
L 690.548153 489.464734 
L 698.995378 488.761567 
L 707.442603 488.053387 
L 715.889828 487.340476 
L 724.337052 486.622874 
L 732.784277 485.900643 
L 741.231502 485.173786 
L 749.678727 484.442515 
L 758.125952 483.706835 
L 766.573176 482.966794 
L 775.020401 482.222514 
L 783.467626 481.474171 
L 791.914851 480.721536 
L 800.362075 479.965098 
L 808.8093 479.204542 
L 817.256525 478.440154 
L 825.70375 477.671989 
L 834.150975 476.900082 
L 842.598199 476.124478 
L 851.045424 475.345284 
L 859.492649 474.562615 
L 867.939874 473.77628 
L 876.387098 472.986668 
L 884.834323 472.19376 
L 893.281548 471.397549 
" clip-path="url(#p221012f1df)" style="fill: none; stroke: #de9ed6; stroke-width: 2; stroke-linecap: round"/>
   </g>
   <g id="patch_3">
    <path d="M 48.559071 521.153031 
L 48.559071 51.564121 
" style="fill: none"/>
   </g>
   <g id="patch_4">
    <path d="M 935.517672 521.153031 
L 935.517672 51.564121 
" style="fill: none"/>
   </g>
   <g id="patch_5">
    <path d="M 48.559071 521.153031 
L 935.517672 521.153031 
" style="fill: none"/>
   </g>
   <g id="patch_6">
    <path d="M 48.559071 51.564121 
L 935.517672 51.564121 
" style="fill: none"/>
   </g>
   <g id="patch_7">
    <path d="M 470.920309 80.486321 
Q 470.920309 288.767044 470.920309 495.370716 
" style="fill: none; stroke: #000000; stroke-width: 1.5; stroke-linecap: round"/>
    <path d="M 474.120309 488.970716 
L 470.920309 495.370716 
L 467.720309 488.970716 
" style="fill: none; stroke: #000000; stroke-width: 1.5; stroke-linecap: round"/>
   </g>
   <g id="text_20">
    <!-- Time -->
    <g style="fill: #262626" transform="translate(492.038371 495.561956) scale(0.18 -0.18)">
     <defs>
      <path id="CMR17-54" d="M 3981 4326 
L 288 4326 
L 179 2918 
L 294 2918 
C 378 3976 467 4160 1453 4160 
C 1568 4160 1754 4160 1805 4154 
C 1926 4135 1926 4058 1926 3912 
L 1926 459 
C 1926 230 1907 160 1376 160 
L 1197 160 
L 1197 0 
C 1504 0 1824 0 2138 0 
C 2451 0 2771 0 3078 0 
L 3078 160 
L 2899 160 
C 2368 160 2349 230 2349 459 
L 2349 3912 
C 2349 4052 2349 4129 2464 4154 
C 2515 4160 2701 4160 2816 4160 
C 3795 4160 3891 3976 3974 2918 
L 4090 2918 
L 3981 4326 
z
" transform="scale(0.015625)"/>
      <path id="CMR17-69" d="M 992 3909 
C 992 4049 877 4170 730 4170 
C 589 4170 467 4056 467 3909 
C 467 3769 582 3648 730 3648 
C 870 3648 992 3763 992 3909 
z
M 243 2706 
L 243 2541 
C 602 2541 653 2502 653 2197 
L 653 427 
C 653 184 627 153 218 153 
L 218 -13 
C 371 0 646 0 806 0 
C 960 0 1222 0 1370 -13 
L 1370 153 
C 992 153 979 191 979 420 
L 979 2776 
L 243 2706 
z
" transform="scale(0.015625)"/>
      <path id="CMR17-6d" d="M 4326 1933 
C 4326 2252 4269 2790 3507 2790 
C 3072 2790 2771 2496 2656 2151 
L 2650 2151 
C 2573 2676 2195 2790 1837 2790 
C 1331 2790 1069 2400 973 2144 
L 966 2144 
L 966 2790 
L 211 2720 
L 211 2554 
C 589 2554 646 2515 646 2208 
L 646 428 
C 646 184 621 153 211 153 
L 211 -13 
C 365 0 646 0 813 0 
C 979 0 1267 0 1421 -13 
L 1421 153 
C 1011 153 986 178 986 428 
L 986 1658 
C 986 2247 1344 2688 1792 2688 
C 2266 2688 2317 2266 2317 1958 
L 2317 428 
C 2317 184 2291 153 1882 153 
L 1882 -13 
C 2035 0 2317 0 2483 0 
C 2650 0 2938 0 3091 -13 
L 3091 153 
C 2682 153 2656 178 2656 428 
L 2656 1658 
C 2656 2247 3014 2688 3462 2688 
C 3936 2688 3987 2266 3987 1958 
L 3987 428 
C 3987 184 3962 153 3552 153 
L 3552 -13 
C 3706 0 3987 0 4154 0 
C 4320 0 4608 0 4762 -13 
L 4762 153 
C 4352 153 4326 178 4326 428 
L 4326 1933 
z
" transform="scale(0.015625)"/>
      <path id="CMR17-65" d="M 2438 1472 
C 2464 1498 2464 1511 2464 1576 
C 2464 2238 2118 2816 1389 2816 
C 710 2816 173 2169 173 1383 
C 173 551 781 -64 1459 -64 
C 2176 -64 2458 607 2458 740 
C 2458 784 2419 784 2406 784 
C 2362 784 2355 771 2330 696 
C 2189 265 1837 51 1504 51 
C 1229 51 954 203 781 480 
C 582 803 582 1176 582 1472 
L 2438 1472 
z
M 589 1568 
C 634 2505 1126 2714 1382 2714 
C 1818 2714 2112 2297 2118 1568 
L 589 1568 
z
" transform="scale(0.015625)"/>
     </defs>
     <use xlink:href="#CMR17-54" transform="scale(0.996264)"/>
     <use xlink:href="#CMR17-69" transform="translate(66.509881 0) scale(0.996264)"/>
     <use xlink:href="#CMR17-6d" transform="translate(91.380939 0) scale(0.996264)"/>
     <use xlink:href="#CMR17-65" transform="translate(168.300529 0) scale(0.996264)"/>
    </g>
   </g>
   <g id="legend_1">
    <g id="line2d_47">
     <path d="M 948.117672 197.198434 
L 962.117672 197.198434 
L 976.117672 197.198434 
" style="fill: none; stroke: #393b79; stroke-width: 2; stroke-linecap: round"/>
    </g>
    <g id="text_21">
     <!-- t = 0.00 -->
     <g style="fill: #262626" transform="translate(987.317672 202.098434) scale(0.14 -0.14)">
      <defs>
       <path id="CMR17-74" d="M 966 2560 
L 1862 2560 
L 1862 2725 
L 966 2725 
L 966 3904 
L 851 3904 
C 838 3245 614 2668 70 2668 
L 70 2560 
L 627 2560 
L 627 771 
C 627 650 627 -64 1370 -64 
C 1747 -64 1965 306 1965 777 
L 1965 1140 
L 1850 1140 
L 1850 783 
C 1850 344 1677 51 1408 51 
C 1222 51 966 178 966 758 
L 966 2560 
z
" transform="scale(0.015625)"/>
       <path id="CMR17-3d" d="M 4115 2017 
C 4211 2017 4307 2017 4307 2125 
C 4307 2240 4198 2240 4090 2240 
L 512 2240 
C 403 2240 294 2240 294 2125 
C 294 2017 390 2017 486 2017 
L 4115 2017 
z
M 4090 896 
C 4198 896 4307 896 4307 1011 
C 4307 1119 4211 1119 4115 1119 
L 486 1119 
C 390 1119 294 1119 294 1011 
C 294 896 403 896 512 896 
L 4090 896 
z
" transform="scale(0.015625)"/>
       <path id="CMR17-2e" d="M 1062 261 
C 1062 420 934 522 800 522 
C 672 522 538 420 538 261 
C 538 102 666 0 800 0 
C 928 0 1062 102 1062 261 
z
" transform="scale(0.015625)"/>
      </defs>
      <use xlink:href="#CMR17-74" transform="scale(0.996264)"/>
      <use xlink:href="#CMR17-3d" transform="translate(65.356734 0) scale(0.996264)"/>
      <use xlink:href="#CMR17-30" transform="translate(167.147489 0) scale(0.996264)"/>
      <use xlink:href="#CMR17-2e" transform="translate(212.837966 0) scale(0.996264)"/>
      <use xlink:href="#CMR17-30" transform="translate(237.709025 0) scale(0.996264)"/>
      <use xlink:href="#CMR17-30" transform="translate(283.399502 0) scale(0.996264)"/>
     </g>
    </g>
    <g id="line2d_48">
     <path d="M 948.117672 216.710462 
L 962.117672 216.710462 
L 976.117672 216.710462 
" style="fill: none; stroke: #6b6ecf; stroke-width: 2; stroke-linecap: round"/>
    </g>
    <g id="text_22">
     <!-- t = 10.00 -->
     <g style="fill: #262626" transform="translate(987.317672 221.610462) scale(0.14 -0.14)">
      <use xlink:href="#CMR17-74" transform="scale(0.996264)"/>
      <use xlink:href="#CMR17-3d" transform="translate(65.356734 0) scale(0.996264)"/>
      <use xlink:href="#CMR17-31" transform="translate(167.147489 0) scale(0.996264)"/>
      <use xlink:href="#CMR17-30" transform="translate(212.837966 0) scale(0.996264)"/>
      <use xlink:href="#CMR17-2e" transform="translate(258.528443 0) scale(0.996264)"/>
      <use xlink:href="#CMR17-30" transform="translate(283.399502 0) scale(0.996264)"/>
      <use xlink:href="#CMR17-30" transform="translate(329.089979 0) scale(0.996264)"/>
     </g>
    </g>
    <g id="line2d_49">
     <path d="M 948.117672 236.222491 
L 962.117672 236.222491 
L 976.117672 236.222491 
" style="fill: none; stroke: #637939; stroke-width: 2; stroke-linecap: round"/>
    </g>
    <g id="text_23">
     <!-- t = 50.00 -->
     <g style="fill: #262626" transform="translate(987.317672 241.122491) scale(0.14 -0.14)">
      <use xlink:href="#CMR17-74" transform="scale(0.996264)"/>
      <use xlink:href="#CMR17-3d" transform="translate(65.356734 0) scale(0.996264)"/>
      <use xlink:href="#CMR17-35" transform="translate(167.147489 0) scale(0.996264)"/>
      <use xlink:href="#CMR17-30" transform="translate(212.837966 0) scale(0.996264)"/>
      <use xlink:href="#CMR17-2e" transform="translate(258.528443 0) scale(0.996264)"/>
      <use xlink:href="#CMR17-30" transform="translate(283.399502 0) scale(0.996264)"/>
      <use xlink:href="#CMR17-30" transform="translate(329.089979 0) scale(0.996264)"/>
     </g>
    </g>
    <g id="line2d_50">
     <path d="M 948.117672 255.734519 
L 962.117672 255.734519 
L 976.117672 255.734519 
" style="fill: none; stroke: #b5cf6b; stroke-width: 2; stroke-linecap: round"/>
    </g>
    <g id="text_24">
     <!-- t = 100.00 -->
     <g style="fill: #262626" transform="translate(987.317672 260.634519) scale(0.14 -0.14)">
      <use xlink:href="#CMR17-74" transform="scale(0.996264)"/>
      <use xlink:href="#CMR17-3d" transform="translate(65.356734 0) scale(0.996264)"/>
      <use xlink:href="#CMR17-31" transform="translate(167.147489 0) scale(0.996264)"/>
      <use xlink:href="#CMR17-30" transform="translate(212.837966 0) scale(0.996264)"/>
      <use xlink:href="#CMR17-30" transform="translate(258.528443 0) scale(0.996264)"/>
      <use xlink:href="#CMR17-2e" transform="translate(304.21892 0) scale(0.996264)"/>
      <use xlink:href="#CMR17-30" transform="translate(329.089979 0) scale(0.996264)"/>
      <use xlink:href="#CMR17-30" transform="translate(374.780456 0) scale(0.996264)"/>
     </g>
    </g>
    <g id="line2d_51">
     <path d="M 948.117672 275.246547 
L 962.117672 275.246547 
L 976.117672 275.246547 
" style="fill: none; stroke: #8c6d31; stroke-width: 2; stroke-linecap: round"/>
    </g>
    <g id="text_25">
     <!-- t = 250.00 -->
     <g style="fill: #262626" transform="translate(987.317672 280.146547) scale(0.14 -0.14)">
      <use xlink:href="#CMR17-74" transform="scale(0.996264)"/>
      <use xlink:href="#CMR17-3d" transform="translate(65.356734 0) scale(0.996264)"/>
      <use xlink:href="#CMR17-32" transform="translate(167.147489 0) scale(0.996264)"/>
      <use xlink:href="#CMR17-35" transform="translate(212.837966 0) scale(0.996264)"/>
      <use xlink:href="#CMR17-30" transform="translate(258.528443 0) scale(0.996264)"/>
      <use xlink:href="#CMR17-2e" transform="translate(304.21892 0) scale(0.996264)"/>
      <use xlink:href="#CMR17-30" transform="translate(329.089979 0) scale(0.996264)"/>
      <use xlink:href="#CMR17-30" transform="translate(374.780456 0) scale(0.996264)"/>
     </g>
    </g>
    <g id="line2d_52">
     <path d="M 948.117672 294.758576 
L 962.117672 294.758576 
L 976.117672 294.758576 
" style="fill: none; stroke: #e7cb94; stroke-width: 2; stroke-linecap: round"/>
    </g>
    <g id="text_26">
     <!-- t = 500.00 -->
     <g style="fill: #262626" transform="translate(987.317672 299.658576) scale(0.14 -0.14)">
      <use xlink:href="#CMR17-74" transform="scale(0.996264)"/>
      <use xlink:href="#CMR17-3d" transform="translate(65.356734 0) scale(0.996264)"/>
      <use xlink:href="#CMR17-35" transform="translate(167.147489 0) scale(0.996264)"/>
      <use xlink:href="#CMR17-30" transform="translate(212.837966 0) scale(0.996264)"/>
      <use xlink:href="#CMR17-30" transform="translate(258.528443 0) scale(0.996264)"/>
      <use xlink:href="#CMR17-2e" transform="translate(304.21892 0) scale(0.996264)"/>
      <use xlink:href="#CMR17-30" transform="translate(329.089979 0) scale(0.996264)"/>
      <use xlink:href="#CMR17-30" transform="translate(374.780456 0) scale(0.996264)"/>
     </g>
    </g>
    <g id="line2d_53">
     <path d="M 948.117672 314.270604 
L 962.117672 314.270604 
L 976.117672 314.270604 
" style="fill: none; stroke: #ad494a; stroke-width: 2; stroke-linecap: round"/>
    </g>
    <g id="text_27">
     <!-- t = 750.00 -->
     <g style="fill: #262626" transform="translate(987.317672 319.170604) scale(0.14 -0.14)">
      <use xlink:href="#CMR17-74" transform="scale(0.996264)"/>
      <use xlink:href="#CMR17-3d" transform="translate(65.356734 0) scale(0.996264)"/>
      <use xlink:href="#CMR17-37" transform="translate(167.147489 0) scale(0.996264)"/>
      <use xlink:href="#CMR17-35" transform="translate(212.837966 0) scale(0.996264)"/>
      <use xlink:href="#CMR17-30" transform="translate(258.528443 0) scale(0.996264)"/>
      <use xlink:href="#CMR17-2e" transform="translate(304.21892 0) scale(0.996264)"/>
      <use xlink:href="#CMR17-30" transform="translate(329.089979 0) scale(0.996264)"/>
      <use xlink:href="#CMR17-30" transform="translate(374.780456 0) scale(0.996264)"/>
     </g>
    </g>
    <g id="line2d_54">
     <path d="M 948.117672 333.782633 
L 962.117672 333.782633 
L 976.117672 333.782633 
" style="fill: none; stroke: #e7969c; stroke-width: 2; stroke-linecap: round"/>
    </g>
    <g id="text_28">
     <!-- t = 1000.00 -->
     <g style="fill: #262626" transform="translate(987.317672 338.682633) scale(0.14 -0.14)">
      <use xlink:href="#CMR17-74" transform="scale(0.996264)"/>
      <use xlink:href="#CMR17-3d" transform="translate(65.356734 0) scale(0.996264)"/>
      <use xlink:href="#CMR17-31" transform="translate(167.147489 0) scale(0.996264)"/>
      <use xlink:href="#CMR17-30" transform="translate(212.837966 0) scale(0.996264)"/>
      <use xlink:href="#CMR17-30" transform="translate(258.528443 0) scale(0.996264)"/>
      <use xlink:href="#CMR17-30" transform="translate(304.21892 0) scale(0.996264)"/>
      <use xlink:href="#CMR17-2e" transform="translate(349.909397 0) scale(0.996264)"/>
      <use xlink:href="#CMR17-30" transform="translate(374.780456 0) scale(0.996264)"/>
      <use xlink:href="#CMR17-30" transform="translate(420.470933 0) scale(0.996264)"/>
     </g>
    </g>
    <g id="line2d_55">
     <path d="M 948.117672 353.294661 
L 962.117672 353.294661 
L 976.117672 353.294661 
" style="fill: none; stroke: #a55194; stroke-width: 2; stroke-linecap: round"/>
    </g>
    <g id="text_29">
     <!-- t = 1250.00 -->
     <g style="fill: #262626" transform="translate(987.317672 358.194661) scale(0.14 -0.14)">
      <use xlink:href="#CMR17-74" transform="scale(0.996264)"/>
      <use xlink:href="#CMR17-3d" transform="translate(65.356734 0) scale(0.996264)"/>
      <use xlink:href="#CMR17-31" transform="translate(167.147489 0) scale(0.996264)"/>
      <use xlink:href="#CMR17-32" transform="translate(212.837966 0) scale(0.996264)"/>
      <use xlink:href="#CMR17-35" transform="translate(258.528443 0) scale(0.996264)"/>
      <use xlink:href="#CMR17-30" transform="translate(304.21892 0) scale(0.996264)"/>
      <use xlink:href="#CMR17-2e" transform="translate(349.909397 0) scale(0.996264)"/>
      <use xlink:href="#CMR17-30" transform="translate(374.780456 0) scale(0.996264)"/>
      <use xlink:href="#CMR17-30" transform="translate(420.470933 0) scale(0.996264)"/>
     </g>
    </g>
    <g id="line2d_56">
     <path d="M 948.117672 372.806689 
L 962.117672 372.806689 
L 976.117672 372.806689 
" style="fill: none; stroke: #de9ed6; stroke-width: 2; stroke-linecap: round"/>
    </g>
    <g id="text_30">
     <!-- t = 1500.00 -->
     <g style="fill: #262626" transform="translate(987.317672 377.706689) scale(0.14 -0.14)">
      <use xlink:href="#CMR17-74" transform="scale(0.996264)"/>
      <use xlink:href="#CMR17-3d" transform="translate(65.356734 0) scale(0.996264)"/>
      <use xlink:href="#CMR17-31" transform="translate(167.147489 0) scale(0.996264)"/>
      <use xlink:href="#CMR17-35" transform="translate(212.837966 0) scale(0.996264)"/>
      <use xlink:href="#CMR17-30" transform="translate(258.528443 0) scale(0.996264)"/>
      <use xlink:href="#CMR17-30" transform="translate(304.21892 0) scale(0.996264)"/>
      <use xlink:href="#CMR17-2e" transform="translate(349.909397 0) scale(0.996264)"/>
      <use xlink:href="#CMR17-30" transform="translate(374.780456 0) scale(0.996264)"/>
      <use xlink:href="#CMR17-30" transform="translate(420.470933 0) scale(0.996264)"/>
     </g>
    </g>
   </g>
  </g>
  <g id="text_31">
   <!-- permeability -->
   <g style="fill: #262626" transform="translate(492.111452 24.803515) scale(0.192 -0.192)">
    <defs>
     <path id="CMR17-70" d="M 1408 -1063 
C 998 -1063 973 -1037 973 -789 
L 973 402 
C 1158 134 1427 -38 1766 -38 
C 2406 -38 3053 523 3053 1388 
C 3053 2191 2496 2802 1837 2802 
C 1453 2802 1139 2592 960 2338 
L 960 2802 
L 198 2732 
L 198 2567 
C 576 2567 634 2528 634 2223 
L 634 -789 
C 634 -1031 608 -1063 198 -1063 
L 198 -1228 
C 352 -1216 634 -1216 800 -1216 
C 966 -1216 1254 -1216 1408 -1228 
L 1408 -1063 
z
M 973 2012 
C 973 2102 973 2235 1222 2471 
C 1254 2497 1472 2688 1792 2688 
C 2259 2688 2643 2108 2643 1382 
C 2643 656 2234 64 1728 64 
C 1498 64 1248 172 1056 472 
C 973 612 973 650 973 752 
L 973 2012 
z
" transform="scale(0.015625)"/>
     <path id="CMR17-72" d="M 960 1497 
C 960 2112 1222 2688 1702 2688 
C 1747 2688 1792 2682 1837 2662 
C 1837 2662 1696 2617 1696 2452 
C 1696 2298 1818 2234 1914 2234 
C 1990 2234 2131 2279 2131 2458 
C 2131 2663 1926 2790 1709 2790 
C 1222 2790 1011 2317 947 2093 
L 941 2093 
L 941 2790 
L 198 2720 
L 198 2554 
C 576 2554 634 2515 634 2208 
L 634 428 
C 634 184 608 153 198 153 
L 198 -13 
C 352 0 646 0 813 0 
C 998 0 1325 0 1498 -13 
L 1498 153 
C 1037 153 960 153 960 440 
L 960 1497 
z
" transform="scale(0.015625)"/>
     <path id="CMR17-61" d="M 2304 1653 
C 2304 2072 2304 2294 2035 2543 
C 1798 2752 1523 2816 1306 2816 
C 800 2816 435 2407 435 1971 
C 435 1728 627 1728 666 1728 
C 749 1728 896 1778 896 1954 
C 896 2112 774 2181 666 2181 
C 640 2181 608 2174 589 2168 
C 723 2592 1069 2714 1293 2714 
C 1613 2714 1965 2429 1965 1885 
L 1965 1600 
C 1587 1600 1133 1549 774 1357 
C 371 1133 256 813 256 570 
C 256 77 832 -64 1171 -64 
C 1523 -64 1850 139 1990 511 
C 2003 233 2182 -18 2464 -18 
C 2598 -18 2938 70 2938 567 
L 2938 920 
L 2822 920 
L 2822 562 
C 2822 178 2650 128 2566 128 
C 2304 128 2304 458 2304 738 
L 2304 1653 
z
M 1965 870 
C 1965 317 1568 38 1216 38 
C 896 38 646 275 646 570 
C 646 761 730 1100 1101 1305 
C 1408 1478 1760 1504 1965 1504 
L 1965 870 
z
" transform="scale(0.015625)"/>
     <path id="CMR17-62" d="M 960 4396 
L 198 4326 
L 198 4160 
C 576 4160 634 4122 634 3817 
L 634 -13 
L 749 -13 
L 934 441 
C 1120 141 1395 -64 1766 -64 
C 2406 -64 3053 500 3053 1370 
C 3053 2188 2477 2790 1830 2790 
C 1434 2790 1152 2579 960 2330 
L 960 4396 
z
M 973 2004 
C 973 2118 973 2138 1062 2272 
C 1312 2657 1670 2688 1792 2688 
C 1984 2688 2643 2585 2643 1376 
C 2643 108 1888 38 1734 38 
C 1536 38 1248 114 1043 486 
C 973 608 973 621 973 735 
L 973 2004 
z
" transform="scale(0.015625)"/>
     <path id="CMR17-6c" d="M 979 4396 
L 218 4326 
L 218 4160 
C 595 4160 653 4122 653 3817 
L 653 426 
C 653 184 627 153 218 153 
L 218 -13 
C 371 0 653 0 813 0 
C 979 0 1261 0 1414 -13 
L 1414 153 
C 1005 153 979 178 979 426 
L 979 4396 
z
" transform="scale(0.015625)"/>
     <path id="CMR17-79" d="M 2496 2197 
C 2656 2586 2944 2586 3034 2586 
L 3034 2752 
C 2912 2752 2752 2752 2630 2752 
C 2496 2752 2285 2752 2157 2758 
L 2157 2592 
C 2400 2573 2406 2394 2406 2343 
C 2406 2280 2394 2248 2362 2171 
L 1664 449 
L 902 2306 
C 870 2382 870 2426 870 2433 
C 870 2573 1018 2586 1171 2586 
L 1171 2758 
C 1018 2752 742 2752 582 2752 
C 410 2752 205 2752 64 2758 
L 64 2586 
C 410 2586 448 2554 531 2350 
L 1485 15 
C 1197 -738 1030 -1178 627 -1178 
C 557 -1178 397 -1159 282 -1044 
C 429 -1031 493 -942 493 -833 
C 493 -725 416 -629 288 -629 
C 147 -629 77 -725 77 -840 
C 77 -1095 339 -1280 627 -1280 
C 998 -1280 1229 -922 1357 -604 
L 2496 2197 
z
" transform="scale(0.015625)"/>
    </defs>
    <use xlink:href="#CMR17-70" transform="scale(0.996264)"/>
    <use xlink:href="#CMR17-65" transform="translate(53.497809 0) scale(0.996264)"/>
    <use xlink:href="#CMR17-72" transform="translate(93.983469 0) scale(0.996264)"/>
    <use xlink:href="#CMR17-6d" transform="translate(129.264237 0) scale(0.996264)"/>
    <use xlink:href="#CMR17-65" transform="translate(206.183827 0) scale(0.996264)"/>
    <use xlink:href="#CMR17-61" transform="translate(246.669487 0) scale(0.996264)"/>
    <use xlink:href="#CMR17-62" transform="translate(292.359964 0) scale(0.996264)"/>
    <use xlink:href="#CMR17-69" transform="translate(343.255334 0) scale(0.996264)"/>
    <use xlink:href="#CMR17-6c" transform="translate(368.126392 0) scale(0.996264)"/>
    <use xlink:href="#CMR17-69" transform="translate(392.997451 0) scale(0.996264)"/>
    <use xlink:href="#CMR17-74" transform="translate(417.868509 0) scale(0.996264)"/>
    <use xlink:href="#CMR17-79" transform="translate(450.546823 0) scale(0.996264)"/>
   </g>
  </g>
 </g>
 <defs>
  <clipPath id="p221012f1df">
   <rect x="48.559071" y="51.564121" width="886.958601" height="469.58891"/>
  </clipPath>
 </defs>
</svg>
