<?xml version="1.0" encoding="utf-8" standalone="no"?>
<!DOCTYPE svg PUBLIC "-//W3C//DTD SVG 1.1//EN"
  "http://www.w3.org/Graphics/SVG/1.1/DTD/svg11.dtd">
<svg xmlns:xlink="http://www.w3.org/1999/xlink" width="1080pt" height="576pt" viewBox="0 0 1080 576" xmlns="http://www.w3.org/2000/svg" version="1.1">
 <metadata>
  <rdf:RDF xmlns:dc="http://purl.org/dc/elements/1.1/" xmlns:cc="http://creativecommons.org/ns#" xmlns:rdf="http://www.w3.org/1999/02/22-rdf-syntax-ns#">
   <cc:Work>
    <dc:type rdf:resource="http://purl.org/dc/dcmitype/StillImage"/>
    <dc:date>2024-06-28T12:10:14.972541</dc:date>
    <dc:format>image/svg+xml</dc:format>
    <dc:creator>
     <cc:Agent>
      <dc:title>Matplotlib v3.9.0, https://matplotlib.org/</dc:title>
     </cc:Agent>
    </dc:creator>
   </cc:Work>
  </rdf:RDF>
 </metadata>
 <defs>
  <style type="text/css">*{stroke-linejoin: round; stroke-linecap: butt}</style>
 </defs>
 <g id="figure_1">
  <g id="patch_1">
   <path d="M 0 576 
L 1080 576 
L 1080 0 
L 0 0 
z
" style="fill: #ffffff"/>
  </g>
  <g id="axes_1">
   <g id="patch_2">
    <path d="M 48.559071 521.153031 
L 935.517672 521.153031 
L 935.517672 51.564121 
L 48.559071 51.564121 
z
" style="fill: #eaeaf2"/>
   </g>
   <g id="matplotlib.axis_1">
    <g id="xtick_1">
     <g id="line2d_1">
      <path d="M 48.559071 521.153031 
L 48.559071 51.564121 
" clip-path="url(#p40b52e8d7a)" style="fill: none; stroke: #ffffff; stroke-linecap: round"/>
     </g>
     <g id="line2d_2"/>
     <g id="text_1">
      <!-- $\mathdefault{0.00}$ -->
      <g style="fill: #262626" transform="translate(36.419535 537.838907) scale(0.14 -0.14)">
       <defs>
        <path id="CMR17-30" d="M 2688 2025 
C 2688 2416 2682 3080 2413 3591 
C 2176 4039 1798 4198 1466 4198 
C 1158 4198 768 4058 525 3597 
C 269 3118 243 2524 243 2025 
C 243 1661 250 1106 448 619 
C 723 -39 1216 -128 1466 -128 
C 1760 -128 2208 -7 2470 600 
C 2662 1042 2688 1559 2688 2025 
z
M 1466 -26 
C 1056 -26 813 325 723 812 
C 653 1188 653 1738 653 2096 
C 653 2588 653 2997 736 3387 
C 858 3929 1216 4096 1466 4096 
C 1728 4096 2067 3923 2189 3400 
C 2272 3036 2278 2607 2278 2096 
C 2278 1680 2278 1169 2202 792 
C 2067 95 1690 -26 1466 -26 
z
" transform="scale(0.015625)"/>
        <path id="CMMI12-3a" d="M 1178 307 
C 1178 492 1024 619 870 619 
C 685 619 557 466 557 313 
C 557 128 710 0 864 0 
C 1050 0 1178 153 1178 307 
z
" transform="scale(0.015625)"/>
       </defs>
       <use xlink:href="#CMR17-30" transform="scale(0.996264)"/>
       <use xlink:href="#CMMI12-3a" transform="translate(45.690477 0) scale(0.996264)"/>
       <use xlink:href="#CMR17-30" transform="translate(72.787654 0) scale(0.996264)"/>
       <use xlink:href="#CMR17-30" transform="translate(118.478131 0) scale(0.996264)"/>
      </g>
     </g>
    </g>
    <g id="xtick_2">
     <g id="line2d_3">
      <path d="M 154.14938 521.153031 
L 154.14938 51.564121 
" clip-path="url(#p40b52e8d7a)" style="fill: none; stroke: #ffffff; stroke-linecap: round"/>
     </g>
     <g id="line2d_4"/>
     <g id="text_2">
      <!-- $\mathdefault{0.25}$ -->
      <g style="fill: #262626" transform="translate(142.009845 537.838907) scale(0.14 -0.14)">
       <defs>
        <path id="CMR17-32" d="M 2669 989 
L 2554 989 
C 2490 536 2438 459 2413 420 
C 2381 369 1920 369 1830 369 
L 602 369 
C 832 619 1280 1072 1824 1597 
C 2214 1967 2669 2402 2669 3035 
C 2669 3790 2067 4224 1395 4224 
C 691 4224 262 3604 262 3030 
C 262 2780 448 2748 525 2748 
C 589 2748 781 2787 781 3010 
C 781 3207 614 3264 525 3264 
C 486 3264 448 3258 422 3245 
C 544 3790 915 4058 1306 4058 
C 1862 4058 2227 3617 2227 3035 
C 2227 2479 1901 2000 1536 1584 
L 262 146 
L 262 0 
L 2515 0 
L 2669 989 
z
" transform="scale(0.015625)"/>
        <path id="CMR17-35" d="M 730 3692 
C 794 3666 1056 3584 1325 3584 
C 1920 3584 2246 3911 2432 4100 
C 2432 4157 2432 4192 2394 4192 
C 2387 4192 2374 4192 2323 4163 
C 2099 4058 1837 3973 1517 3973 
C 1325 3973 1037 3999 723 4139 
C 653 4171 640 4171 634 4171 
C 602 4171 595 4164 595 4037 
L 595 2203 
C 595 2089 595 2057 659 2057 
C 691 2057 704 2070 736 2114 
C 941 2401 1222 2522 1542 2522 
C 1766 2522 2246 2382 2246 1289 
C 2246 1085 2246 715 2054 421 
C 1894 159 1645 25 1370 25 
C 947 25 518 320 403 814 
C 429 807 480 795 506 795 
C 589 795 749 840 749 1038 
C 749 1210 627 1280 506 1280 
C 358 1280 262 1190 262 1011 
C 262 454 704 -128 1382 -128 
C 2042 -128 2669 440 2669 1264 
C 2669 2030 2170 2624 1549 2624 
C 1222 2624 947 2503 730 2274 
L 730 3692 
z
" transform="scale(0.015625)"/>
       </defs>
       <use xlink:href="#CMR17-30" transform="scale(0.996264)"/>
       <use xlink:href="#CMMI12-3a" transform="translate(45.690477 0) scale(0.996264)"/>
       <use xlink:href="#CMR17-32" transform="translate(72.787654 0) scale(0.996264)"/>
       <use xlink:href="#CMR17-35" transform="translate(118.478131 0) scale(0.996264)"/>
      </g>
     </g>
    </g>
    <g id="xtick_3">
     <g id="line2d_5">
      <path d="M 259.73969 521.153031 
L 259.73969 51.564121 
" clip-path="url(#p40b52e8d7a)" style="fill: none; stroke: #ffffff; stroke-linecap: round"/>
     </g>
     <g id="line2d_6"/>
     <g id="text_3">
      <!-- $\mathdefault{0.50}$ -->
      <g style="fill: #262626" transform="translate(247.600155 537.838907) scale(0.14 -0.14)">
       <use xlink:href="#CMR17-30" transform="scale(0.996264)"/>
       <use xlink:href="#CMMI12-3a" transform="translate(45.690477 0) scale(0.996264)"/>
       <use xlink:href="#CMR17-35" transform="translate(72.787654 0) scale(0.996264)"/>
       <use xlink:href="#CMR17-30" transform="translate(118.478131 0) scale(0.996264)"/>
      </g>
     </g>
    </g>
    <g id="xtick_4">
     <g id="line2d_7">
      <path d="M 365.33 521.153031 
L 365.33 51.564121 
" clip-path="url(#p40b52e8d7a)" style="fill: none; stroke: #ffffff; stroke-linecap: round"/>
     </g>
     <g id="line2d_8"/>
     <g id="text_4">
      <!-- $\mathdefault{0.75}$ -->
      <g style="fill: #262626" transform="translate(353.190464 537.838907) scale(0.14 -0.14)">
       <defs>
        <path id="CMR17-37" d="M 2886 3941 
L 2886 4081 
L 1382 4081 
C 634 4081 621 4165 595 4288 
L 480 4288 
L 294 3094 
L 410 3094 
C 429 3215 474 3540 550 3661 
C 589 3712 1062 3712 1171 3712 
L 2579 3712 
L 1869 2661 
C 1395 1954 1069 999 1069 165 
C 1069 89 1069 -128 1299 -128 
C 1530 -128 1530 89 1530 171 
L 1530 465 
C 1530 1508 1709 2196 2003 2636 
L 2886 3941 
z
" transform="scale(0.015625)"/>
       </defs>
       <use xlink:href="#CMR17-30" transform="scale(0.996264)"/>
       <use xlink:href="#CMMI12-3a" transform="translate(45.690477 0) scale(0.996264)"/>
       <use xlink:href="#CMR17-37" transform="translate(72.787654 0) scale(0.996264)"/>
       <use xlink:href="#CMR17-35" transform="translate(118.478131 0) scale(0.996264)"/>
      </g>
     </g>
    </g>
    <g id="xtick_5">
     <g id="line2d_9">
      <path d="M 470.920309 521.153031 
L 470.920309 51.564121 
" clip-path="url(#p40b52e8d7a)" style="fill: none; stroke: #ffffff; stroke-linecap: round"/>
     </g>
     <g id="line2d_10"/>
     <g id="text_5">
      <!-- $\mathdefault{1.00}$ -->
      <g style="fill: #262626" transform="translate(458.780774 537.838907) scale(0.14 -0.14)">
       <defs>
        <path id="CMR17-31" d="M 1702 4058 
C 1702 4192 1696 4192 1606 4192 
C 1357 3916 979 3827 621 3827 
C 602 3827 570 3827 563 3808 
C 557 3795 557 3782 557 3648 
C 755 3648 1088 3686 1344 3839 
L 1344 461 
C 1344 236 1331 160 781 160 
L 589 160 
L 589 0 
C 896 0 1216 0 1523 0 
C 1830 0 2150 0 2458 0 
L 2458 160 
L 2266 160 
C 1715 160 1702 230 1702 458 
L 1702 4058 
z
" transform="scale(0.015625)"/>
       </defs>
       <use xlink:href="#CMR17-31" transform="scale(0.996264)"/>
       <use xlink:href="#CMMI12-3a" transform="translate(45.690477 0) scale(0.996264)"/>
       <use xlink:href="#CMR17-30" transform="translate(72.787654 0) scale(0.996264)"/>
       <use xlink:href="#CMR17-30" transform="translate(118.478131 0) scale(0.996264)"/>
      </g>
     </g>
    </g>
    <g id="xtick_6">
     <g id="line2d_11">
      <path d="M 576.510619 521.153031 
L 576.510619 51.564121 
" clip-path="url(#p40b52e8d7a)" style="fill: none; stroke: #ffffff; stroke-linecap: round"/>
     </g>
     <g id="line2d_12"/>
     <g id="text_6">
      <!-- $\mathdefault{1.25}$ -->
      <g style="fill: #262626" transform="translate(564.371084 537.838907) scale(0.14 -0.14)">
       <use xlink:href="#CMR17-31" transform="scale(0.996264)"/>
       <use xlink:href="#CMMI12-3a" transform="translate(45.690477 0) scale(0.996264)"/>
       <use xlink:href="#CMR17-32" transform="translate(72.787654 0) scale(0.996264)"/>
       <use xlink:href="#CMR17-35" transform="translate(118.478131 0) scale(0.996264)"/>
      </g>
     </g>
    </g>
    <g id="xtick_7">
     <g id="line2d_13">
      <path d="M 682.100929 521.153031 
L 682.100929 51.564121 
" clip-path="url(#p40b52e8d7a)" style="fill: none; stroke: #ffffff; stroke-linecap: round"/>
     </g>
     <g id="line2d_14"/>
     <g id="text_7">
      <!-- $\mathdefault{1.50}$ -->
      <g style="fill: #262626" transform="translate(669.961393 537.838907) scale(0.14 -0.14)">
       <use xlink:href="#CMR17-31" transform="scale(0.996264)"/>
       <use xlink:href="#CMMI12-3a" transform="translate(45.690477 0) scale(0.996264)"/>
       <use xlink:href="#CMR17-35" transform="translate(72.787654 0) scale(0.996264)"/>
       <use xlink:href="#CMR17-30" transform="translate(118.478131 0) scale(0.996264)"/>
      </g>
     </g>
    </g>
    <g id="xtick_8">
     <g id="line2d_15">
      <path d="M 787.691238 521.153031 
L 787.691238 51.564121 
" clip-path="url(#p40b52e8d7a)" style="fill: none; stroke: #ffffff; stroke-linecap: round"/>
     </g>
     <g id="line2d_16"/>
     <g id="text_8">
      <!-- $\mathdefault{1.75}$ -->
      <g style="fill: #262626" transform="translate(775.551703 537.838907) scale(0.14 -0.14)">
       <use xlink:href="#CMR17-31" transform="scale(0.996264)"/>
       <use xlink:href="#CMMI12-3a" transform="translate(45.690477 0) scale(0.996264)"/>
       <use xlink:href="#CMR17-37" transform="translate(72.787654 0) scale(0.996264)"/>
       <use xlink:href="#CMR17-35" transform="translate(118.478131 0) scale(0.996264)"/>
      </g>
     </g>
    </g>
    <g id="xtick_9">
     <g id="line2d_17">
      <path d="M 893.281548 521.153031 
L 893.281548 51.564121 
" clip-path="url(#p40b52e8d7a)" style="fill: none; stroke: #ffffff; stroke-linecap: round"/>
     </g>
     <g id="line2d_18"/>
     <g id="text_9">
      <!-- $\mathdefault{2.00}$ -->
      <g style="fill: #262626" transform="translate(881.142013 537.838907) scale(0.14 -0.14)">
       <use xlink:href="#CMR17-32" transform="scale(0.996264)"/>
       <use xlink:href="#CMMI12-3a" transform="translate(45.690477 0) scale(0.996264)"/>
       <use xlink:href="#CMR17-30" transform="translate(72.787654 0) scale(0.996264)"/>
       <use xlink:href="#CMR17-30" transform="translate(118.478131 0) scale(0.996264)"/>
      </g>
     </g>
    </g>
    <g id="text_10">
     <!-- $x$ -->
     <g style="fill: #262626" transform="translate(487.603646 555.620524) scale(0.16 -0.16)">
      <defs>
       <path id="CMMI12-78" d="M 3034 2606 
C 2829 2567 2752 2414 2752 2293 
C 2752 2139 2874 2088 2963 2088 
C 3155 2088 3290 2254 3290 2427 
C 3290 2695 2982 2816 2714 2816 
C 2323 2816 2106 2433 2048 2312 
C 1901 2816 1504 2816 1389 2816 
C 736 2816 390 1980 390 1839 
C 390 1814 416 1782 461 1782 
C 512 1782 525 1820 538 1846 
C 755 2555 1184 2689 1370 2689 
C 1658 2689 1715 2420 1715 2267 
C 1715 2127 1677 1980 1600 1673 
L 1382 798 
C 1286 415 1101 64 762 64 
C 730 64 570 64 435 147 
C 666 192 717 383 717 460 
C 717 588 621 664 499 664 
C 346 664 179 530 179 326 
C 179 57 480 -64 755 -64 
C 1062 -64 1280 179 1414 441 
C 1517 64 1837 -64 2074 -64 
C 2726 -64 3072 773 3072 913 
C 3072 945 3046 971 3008 971 
C 2950 971 2944 939 2925 888 
C 2752 326 2381 64 2093 64 
C 1869 64 1747 230 1747 492 
C 1747 632 1773 734 1875 1156 
L 2099 2024 
C 2195 2408 2413 2689 2707 2689 
C 2720 2689 2899 2689 3034 2606 
z
" transform="scale(0.015625)"/>
      </defs>
      <use xlink:href="#CMMI12-78" transform="scale(0.996264)"/>
     </g>
    </g>
   </g>
   <g id="matplotlib.axis_2">
    <g id="ytick_1">
     <g id="line2d_19">
      <path d="M 48.559071 521.153031 
L 935.517672 521.153031 
" clip-path="url(#p40b52e8d7a)" style="fill: none; stroke: #ffffff; stroke-linecap: round"/>
     </g>
     <g id="line2d_20"/>
     <g id="text_11">
      <!-- $\mathdefault{0.00}$ -->
      <g style="fill: #262626" transform="translate(17.28 525.995969) scale(0.14 -0.14)">
       <use xlink:href="#CMR17-30" transform="scale(0.996264)"/>
       <use xlink:href="#CMMI12-3a" transform="translate(45.690477 0) scale(0.996264)"/>
       <use xlink:href="#CMR17-30" transform="translate(72.787654 0) scale(0.996264)"/>
       <use xlink:href="#CMR17-30" transform="translate(118.478131 0) scale(0.996264)"/>
      </g>
     </g>
    </g>
    <g id="ytick_2">
     <g id="line2d_21">
      <path d="M 48.559071 465.254267 
L 935.517672 465.254267 
" clip-path="url(#p40b52e8d7a)" style="fill: none; stroke: #ffffff; stroke-linecap: round"/>
     </g>
     <g id="line2d_22"/>
     <g id="text_12">
      <!-- $\mathdefault{0.25}$ -->
      <g style="fill: #262626" transform="translate(17.28 470.097205) scale(0.14 -0.14)">
       <use xlink:href="#CMR17-30" transform="scale(0.996264)"/>
       <use xlink:href="#CMMI12-3a" transform="translate(45.690477 0) scale(0.996264)"/>
       <use xlink:href="#CMR17-32" transform="translate(72.787654 0) scale(0.996264)"/>
       <use xlink:href="#CMR17-35" transform="translate(118.478131 0) scale(0.996264)"/>
      </g>
     </g>
    </g>
    <g id="ytick_3">
     <g id="line2d_23">
      <path d="M 48.559071 409.355503 
L 935.517672 409.355503 
" clip-path="url(#p40b52e8d7a)" style="fill: none; stroke: #ffffff; stroke-linecap: round"/>
     </g>
     <g id="line2d_24"/>
     <g id="text_13">
      <!-- $\mathdefault{0.50}$ -->
      <g style="fill: #262626" transform="translate(17.28 414.198441) scale(0.14 -0.14)">
       <use xlink:href="#CMR17-30" transform="scale(0.996264)"/>
       <use xlink:href="#CMMI12-3a" transform="translate(45.690477 0) scale(0.996264)"/>
       <use xlink:href="#CMR17-35" transform="translate(72.787654 0) scale(0.996264)"/>
       <use xlink:href="#CMR17-30" transform="translate(118.478131 0) scale(0.996264)"/>
      </g>
     </g>
    </g>
    <g id="ytick_4">
     <g id="line2d_25">
      <path d="M 48.559071 353.456739 
L 935.517672 353.456739 
" clip-path="url(#p40b52e8d7a)" style="fill: none; stroke: #ffffff; stroke-linecap: round"/>
     </g>
     <g id="line2d_26"/>
     <g id="text_14">
      <!-- $\mathdefault{0.75}$ -->
      <g style="fill: #262626" transform="translate(17.28 358.299677) scale(0.14 -0.14)">
       <use xlink:href="#CMR17-30" transform="scale(0.996264)"/>
       <use xlink:href="#CMMI12-3a" transform="translate(45.690477 0) scale(0.996264)"/>
       <use xlink:href="#CMR17-37" transform="translate(72.787654 0) scale(0.996264)"/>
       <use xlink:href="#CMR17-35" transform="translate(118.478131 0) scale(0.996264)"/>
      </g>
     </g>
    </g>
    <g id="ytick_5">
     <g id="line2d_27">
      <path d="M 48.559071 297.557975 
L 935.517672 297.557975 
" clip-path="url(#p40b52e8d7a)" style="fill: none; stroke: #ffffff; stroke-linecap: round"/>
     </g>
     <g id="line2d_28"/>
     <g id="text_15">
      <!-- $\mathdefault{1.00}$ -->
      <g style="fill: #262626" transform="translate(17.28 302.400913) scale(0.14 -0.14)">
       <use xlink:href="#CMR17-31" transform="scale(0.996264)"/>
       <use xlink:href="#CMMI12-3a" transform="translate(45.690477 0) scale(0.996264)"/>
       <use xlink:href="#CMR17-30" transform="translate(72.787654 0) scale(0.996264)"/>
       <use xlink:href="#CMR17-30" transform="translate(118.478131 0) scale(0.996264)"/>
      </g>
     </g>
    </g>
    <g id="ytick_6">
     <g id="line2d_29">
      <path d="M 48.559071 241.659211 
L 935.517672 241.659211 
" clip-path="url(#p40b52e8d7a)" style="fill: none; stroke: #ffffff; stroke-linecap: round"/>
     </g>
     <g id="line2d_30"/>
     <g id="text_16">
      <!-- $\mathdefault{1.25}$ -->
      <g style="fill: #262626" transform="translate(17.28 246.50215) scale(0.14 -0.14)">
       <use xlink:href="#CMR17-31" transform="scale(0.996264)"/>
       <use xlink:href="#CMMI12-3a" transform="translate(45.690477 0) scale(0.996264)"/>
       <use xlink:href="#CMR17-32" transform="translate(72.787654 0) scale(0.996264)"/>
       <use xlink:href="#CMR17-35" transform="translate(118.478131 0) scale(0.996264)"/>
      </g>
     </g>
    </g>
    <g id="ytick_7">
     <g id="line2d_31">
      <path d="M 48.559071 185.760448 
L 935.517672 185.760448 
" clip-path="url(#p40b52e8d7a)" style="fill: none; stroke: #ffffff; stroke-linecap: round"/>
     </g>
     <g id="line2d_32"/>
     <g id="text_17">
      <!-- $\mathdefault{1.50}$ -->
      <g style="fill: #262626" transform="translate(17.28 190.603386) scale(0.14 -0.14)">
       <use xlink:href="#CMR17-31" transform="scale(0.996264)"/>
       <use xlink:href="#CMMI12-3a" transform="translate(45.690477 0) scale(0.996264)"/>
       <use xlink:href="#CMR17-35" transform="translate(72.787654 0) scale(0.996264)"/>
       <use xlink:href="#CMR17-30" transform="translate(118.478131 0) scale(0.996264)"/>
      </g>
     </g>
    </g>
    <g id="ytick_8">
     <g id="line2d_33">
      <path d="M 48.559071 129.861684 
L 935.517672 129.861684 
" clip-path="url(#p40b52e8d7a)" style="fill: none; stroke: #ffffff; stroke-linecap: round"/>
     </g>
     <g id="line2d_34"/>
     <g id="text_18">
      <!-- $\mathdefault{1.75}$ -->
      <g style="fill: #262626" transform="translate(17.28 134.704622) scale(0.14 -0.14)">
       <use xlink:href="#CMR17-31" transform="scale(0.996264)"/>
       <use xlink:href="#CMMI12-3a" transform="translate(45.690477 0) scale(0.996264)"/>
       <use xlink:href="#CMR17-37" transform="translate(72.787654 0) scale(0.996264)"/>
       <use xlink:href="#CMR17-35" transform="translate(118.478131 0) scale(0.996264)"/>
      </g>
     </g>
    </g>
    <g id="ytick_9">
     <g id="line2d_35">
      <path d="M 48.559071 73.96292 
L 935.517672 73.96292 
" clip-path="url(#p40b52e8d7a)" style="fill: none; stroke: #ffffff; stroke-linecap: round"/>
     </g>
     <g id="line2d_36"/>
     <g id="text_19">
      <!-- $\mathdefault{2.00}$ -->
      <g style="fill: #262626" transform="translate(17.28 78.805858) scale(0.14 -0.14)">
       <use xlink:href="#CMR17-32" transform="scale(0.996264)"/>
       <use xlink:href="#CMMI12-3a" transform="translate(45.690477 0) scale(0.996264)"/>
       <use xlink:href="#CMR17-30" transform="translate(72.787654 0) scale(0.996264)"/>
       <use xlink:href="#CMR17-30" transform="translate(118.478131 0) scale(0.996264)"/>
      </g>
     </g>
    </g>
   </g>
   <g id="line2d_37">
    <path d="M 48.559071 73.96292 
L 57.006295 73.96292 
L 65.45352 73.96292 
L 73.900745 73.96292 
L 82.34797 73.96292 
L 90.795195 73.96292 
L 99.242419 73.96292 
L 107.689644 73.96292 
L 116.136869 73.96292 
L 124.584094 73.96292 
L 133.031318 73.96292 
L 141.478543 73.96292 
L 149.925768 73.96292 
L 158.372993 73.96292 
L 166.820217 73.96292 
L 175.267442 73.96292 
L 183.714667 73.96292 
L 192.161892 73.96292 
L 200.609117 73.96292 
L 209.056341 73.96292 
L 217.503566 73.96292 
L 225.950791 73.96292 
L 234.398016 73.96292 
L 242.84524 73.96292 
L 251.292465 73.96292 
L 259.73969 73.96292 
L 268.186915 73.96292 
L 276.63414 73.96292 
L 285.081364 73.96292 
L 293.528589 73.96292 
L 301.975814 73.96292 
L 310.423039 73.96292 
L 318.870263 73.96292 
L 327.317488 73.96292 
L 335.764713 73.96292 
L 344.211938 73.96292 
L 352.659162 73.96292 
L 361.106387 73.96292 
L 369.553612 73.96292 
L 378.000837 73.96292 
L 386.448062 73.96292 
L 394.895286 73.96292 
L 403.342511 73.96292 
L 411.789736 73.96292 
L 420.236961 73.96292 
L 428.684185 73.96292 
L 437.13141 73.96292 
L 445.578635 73.96292 
L 454.02586 73.96292 
L 462.473085 73.96292 
L 470.920309 73.96292 
L 479.367534 73.96292 
L 487.814759 73.96292 
L 496.261984 73.96292 
L 504.709208 73.96292 
L 513.156433 73.96292 
L 521.603658 73.96292 
L 530.050883 73.96292 
L 538.498107 73.96292 
L 546.945332 73.96292 
L 555.392557 73.96292 
L 563.839782 73.96292 
L 572.287007 73.96292 
L 580.734231 73.96292 
L 589.181456 73.96292 
L 597.628681 73.96292 
L 606.075906 73.96292 
L 614.52313 73.96292 
L 622.970355 73.96292 
L 631.41758 73.96292 
L 639.864805 73.96292 
L 648.31203 73.96292 
L 656.759254 73.96292 
L 665.206479 73.96292 
L 673.653704 73.96292 
L 682.100929 73.96292 
L 690.548153 73.96292 
L 698.995378 73.96292 
L 707.442603 73.96292 
L 715.889828 73.96292 
L 724.337052 73.96292 
L 732.784277 73.96292 
L 741.231502 73.96292 
L 749.678727 73.96292 
L 758.125952 73.96292 
L 766.573176 73.96292 
L 775.020401 73.96292 
L 783.467626 73.96292 
L 791.914851 73.96292 
L 800.362075 73.96292 
L 808.8093 73.96292 
L 817.256525 73.96292 
L 825.70375 73.96292 
L 834.150975 73.96292 
L 842.598199 73.96292 
L 851.045424 73.96292 
L 859.492649 73.96292 
L 867.939874 73.96292 
L 876.387098 73.96292 
L 884.834323 73.96292 
L 893.281548 73.96292 
" clip-path="url(#p40b52e8d7a)" style="fill: none; stroke: #393b79; stroke-width: 2; stroke-linecap: round"/>
   </g>
   <g id="line2d_38">
    <path d="M 48.559071 116.243186 
L 57.006295 116.058756 
L 65.45352 115.87523 
L 73.900745 115.690696 
L 82.34797 115.506321 
L 90.795195 115.322854 
L 99.242419 115.140284 
L 107.689644 114.958605 
L 116.136869 114.777813 
L 124.584094 114.597905 
L 133.031318 114.418875 
L 141.478543 114.240717 
L 149.925768 114.063427 
L 158.372993 113.887001 
L 166.820217 113.711433 
L 175.267442 113.536723 
L 183.714667 113.362863 
L 192.161892 113.189848 
L 200.609117 113.017674 
L 209.056341 112.84634 
L 217.503566 112.675839 
L 225.950791 112.506174 
L 234.398016 112.337331 
L 242.84524 112.169308 
L 251.292465 112.002099 
L 259.73969 111.834632 
L 268.186915 111.666625 
L 276.63414 111.499432 
L 285.081364 111.333048 
L 293.528589 111.16747 
L 301.975814 111.002701 
L 310.423039 110.838729 
L 318.870263 110.675553 
L 327.317488 110.513166 
L 335.764713 110.351563 
L 344.211938 110.190742 
L 352.659162 110.030698 
L 361.106387 109.871429 
L 369.553612 109.712929 
L 378.000837 109.555198 
L 386.448062 109.398228 
L 394.895286 109.242014 
L 403.342511 109.086554 
L 411.789736 108.931843 
L 420.236961 108.777877 
L 428.684185 108.624653 
L 437.13141 108.472167 
L 445.578635 108.320414 
L 454.02586 108.169393 
L 462.473085 108.019097 
L 470.920309 107.868537 
L 479.367534 107.717501 
L 487.814759 107.567193 
L 496.261984 107.417616 
L 504.709208 107.268759 
L 513.156433 107.120616 
L 521.603658 106.973184 
L 530.050883 106.826461 
L 538.498107 106.680446 
L 546.945332 106.535133 
L 555.392557 106.390516 
L 563.839782 106.246593 
L 572.287007 106.103361 
L 580.734231 105.960817 
L 589.181456 105.818955 
L 597.628681 105.677773 
L 606.075906 105.537267 
L 614.52313 105.397433 
L 622.970355 105.258268 
L 631.41758 105.119769 
L 639.864805 104.981932 
L 648.31203 104.844755 
L 656.759254 104.708233 
L 665.206479 104.572366 
L 673.653704 104.437148 
L 682.100929 104.302575 
L 690.548153 104.168646 
L 698.995378 104.035355 
L 707.442603 103.902644 
L 715.889828 103.768677 
L 724.337052 103.635349 
L 732.784277 103.502657 
L 741.231502 103.370598 
L 749.678727 103.239168 
L 758.125952 103.108367 
L 766.573176 102.978189 
L 775.020401 102.848631 
L 783.467626 102.71969 
L 791.914851 102.591362 
L 800.362075 102.463646 
L 808.8093 102.336542 
L 817.256525 102.21005 
L 825.70375 102.08416 
L 834.150975 101.958868 
L 842.598199 101.834172 
L 851.045424 101.710069 
L 859.492649 101.586556 
L 867.939874 101.463629 
L 876.387098 101.341286 
L 884.834323 101.219524 
L 893.281548 101.09834 
" clip-path="url(#p40b52e8d7a)" style="fill: none; stroke: #6b6ecf; stroke-width: 2; stroke-linecap: round"/>
   </g>
   <g id="line2d_39">
    <path d="M 48.559071 241.131024 
L 57.006295 240.526786 
L 65.45352 239.922385 
L 73.900745 239.318578 
L 82.34797 238.718482 
L 90.795195 238.122056 
L 99.242419 237.523532 
L 107.689644 236.927447 
L 116.136869 236.335035 
L 124.584094 235.746221 
L 133.031318 235.154118 
L 141.478543 234.56536 
L 149.925768 233.980378 
L 158.372993 233.398813 
L 166.820217 232.813888 
L 175.267442 232.232469 
L 183.714667 231.65459 
L 192.161892 231.080267 
L 200.609117 230.502455 
L 209.056341 229.928125 
L 217.503566 229.357272 
L 225.950791 228.789918 
L 234.398016 228.219964 
L 242.84524 227.652492 
L 251.292465 227.088441 
L 259.73969 226.527766 
L 268.186915 225.966129 
L 276.63414 225.405271 
L 285.081364 224.847857 
L 293.528589 224.293754 
L 301.975814 223.741054 
L 310.423039 223.186706 
L 318.870263 222.635662 
L 327.317488 222.087876 
L 335.764713 221.54334 
L 344.211938 220.996531 
L 352.659162 220.451696 
L 361.106387 219.910127 
L 369.553612 219.371729 
L 378.000837 218.834925 
L 386.448062 218.29619 
L 394.895286 217.760558 
L 403.342511 217.228055 
L 411.789736 216.698706 
L 420.236961 216.169021 
L 428.684185 215.639217 
L 437.13141 215.112513 
L 445.578635 214.588904 
L 454.02586 214.068305 
L 462.473085 213.546337 
L 470.920309 213.025242 
L 479.367534 212.507143 
L 487.814759 211.992061 
L 496.261984 211.479947 
L 504.709208 210.966357 
L 513.156433 210.45369 
L 521.603658 209.94397 
L 530.050883 209.437196 
L 538.498107 208.933278 
L 546.945332 208.428754 
L 555.392557 207.924209 
L 563.839782 207.422583 
L 572.287007 206.923813 
L 580.734231 206.427864 
L 589.181456 205.933093 
L 597.628681 205.436451 
L 606.075906 204.942625 
L 614.52313 204.451653 
L 622.970355 203.963441 
L 631.41758 203.477942 
L 639.864805 202.990195 
L 648.31203 202.503951 
L 656.759254 202.02044 
L 665.206479 201.539692 
L 673.653704 201.061657 
L 682.100929 200.585195 
L 690.548153 200.106335 
L 698.995378 199.630124 
L 707.442603 199.156575 
L 715.889828 198.685664 
L 724.337052 198.217421 
L 732.784277 197.749615 
L 741.231502 197.280549 
L 749.678727 196.814042 
L 758.125952 196.350101 
L 766.573176 195.88869 
L 775.020401 195.429812 
L 783.467626 194.971294 
L 791.914851 194.511554 
L 800.362075 194.054386 
L 808.8093 193.599791 
L 817.256525 193.147708 
L 825.70375 192.698078 
L 834.150975 192.250017 
L 842.598199 191.799428 
L 851.045424 191.351284 
L 859.492649 190.905602 
L 867.939874 190.462352 
L 876.387098 190.021502 
L 884.834323 189.583045 
L 893.281548 189.142852 
" clip-path="url(#p40b52e8d7a)" style="fill: none; stroke: #637939; stroke-width: 2; stroke-linecap: round"/>
   </g>
   <g id="line2d_40">
    <path d="M 48.559071 335.415683 
L 57.006295 334.586043 
L 65.45352 333.755898 
L 73.900745 332.928111 
L 82.34797 332.103239 
L 90.795195 331.277654 
L 99.242419 330.454454 
L 107.689644 329.634343 
L 116.136869 328.813303 
L 124.584094 327.995053 
L 133.031318 327.17939 
L 141.478543 326.362896 
L 149.925768 325.549862 
L 158.372993 324.738261 
L 166.820217 323.927257 
L 175.267442 323.119706 
L 183.714667 322.311559 
L 192.161892 321.506319 
L 200.609117 320.703133 
L 209.056341 319.899915 
L 217.503566 319.100872 
L 225.950791 318.300744 
L 234.398016 317.504045 
L 242.84524 316.708546 
L 251.292465 315.91425 
L 259.73969 315.12324 
L 268.186915 314.331465 
L 276.63414 313.544123 
L 285.081364 312.755645 
L 293.528589 311.971149 
L 301.975814 311.186839 
L 310.423039 310.405134 
L 318.870263 309.624884 
L 327.317488 308.846154 
L 335.764713 308.069827 
L 344.211938 307.294075 
L 352.659162 306.521632 
L 361.106387 305.749252 
L 369.553612 304.980403 
L 378.000837 304.211113 
L 386.448062 303.446146 
L 394.895286 302.680271 
L 403.342511 301.918566 
L 411.789736 301.15637 
L 420.236961 300.398146 
L 428.684185 299.639599 
L 437.13141 298.884646 
L 445.578635 298.130013 
L 454.02586 297.378263 
L 462.473085 296.627615 
L 470.920309 295.878941 
L 479.367534 295.132459 
L 487.814759 294.386795 
L 496.261984 293.644718 
L 504.709208 292.901931 
L 513.156433 292.164377 
L 521.603658 291.424412 
L 530.050883 290.689849 
L 538.498107 289.954378 
L 546.945332 289.22241 
L 555.392557 288.491879 
L 563.839782 287.762442 
L 572.287007 287.036938 
L 580.734231 286.310225 
L 589.181456 285.58847 
L 597.628681 284.865417 
L 606.075906 284.146073 
L 614.52313 283.428725 
L 622.970355 282.711695 
L 631.41758 281.99964 
L 639.864805 281.285052 
L 648.31203 280.575153 
L 656.759254 279.866538 
L 665.206479 279.158748 
L 673.653704 278.455905 
L 682.100929 277.75056 
L 690.548153 277.049605 
L 698.995378 276.350678 
L 707.442603 275.651583 
L 715.889828 274.957299 
L 724.337052 274.262123 
L 732.784277 273.569649 
L 741.231502 272.881412 
L 749.678727 272.190573 
L 758.125952 271.504437 
L 766.573176 270.820275 
L 775.020401 270.135669 
L 783.467626 269.45568 
L 791.914851 268.775872 
L 800.362075 268.097375 
L 808.8093 267.423638 
L 817.256525 266.748637 
L 825.70375 266.076065 
L 834.150975 265.40796 
L 842.598199 264.737944 
L 851.045424 264.071236 
L 859.492649 263.408871 
L 867.939874 262.743825 
L 876.387098 262.08262 
L 884.834323 261.425906 
L 893.281548 260.76646 
" clip-path="url(#p40b52e8d7a)" style="fill: none; stroke: #b5cf6b; stroke-width: 2; stroke-linecap: round"/>
   </g>
   <g id="line2d_41">
    <path d="M 48.559071 454.301625 
L 57.006295 453.447002 
L 65.45352 452.59076 
L 73.900745 451.732493 
L 82.34797 450.872457 
L 90.795195 450.010485 
L 99.242419 449.146723 
L 107.689644 448.281235 
L 116.136869 447.414067 
L 124.584094 446.545227 
L 133.031318 445.674846 
L 141.478543 444.802945 
L 149.925768 443.929809 
L 158.372993 443.054903 
L 166.820217 442.178721 
L 175.267442 441.301397 
L 183.714667 440.422236 
L 192.161892 439.54241 
L 200.609117 438.660914 
L 209.056341 437.778571 
L 217.503566 436.894849 
L 225.950791 436.010268 
L 234.398016 435.124445 
L 242.84524 434.237591 
L 251.292465 433.350086 
L 259.73969 432.461402 
L 268.186915 431.57172 
L 276.63414 430.68127 
L 285.081364 429.79019 
L 293.528589 428.89836 
L 301.975814 428.005837 
L 310.423039 427.112429 
L 318.870263 426.21832 
L 327.317488 425.323652 
L 335.764713 424.428414 
L 344.211938 423.532587 
L 352.659162 422.636416 
L 361.106387 421.739686 
L 369.553612 420.842264 
L 378.000837 419.944429 
L 386.448062 419.046488 
L 394.895286 418.148053 
L 403.342511 417.24949 
L 411.789736 416.350822 
L 420.236961 415.4513 
L 428.684185 414.551824 
L 437.13141 413.652428 
L 445.578635 412.752736 
L 454.02586 411.852646 
L 462.473085 410.952918 
L 470.920309 410.052837 
L 479.367534 409.152628 
L 487.814759 408.253141 
L 496.261984 407.352619 
L 504.709208 406.45295 
L 513.156433 405.552815 
L 521.603658 404.653249 
L 530.050883 403.753453 
L 538.498107 402.854277 
L 546.945332 401.954712 
L 555.392557 401.05616 
L 563.839782 400.156866 
L 572.287007 399.258736 
L 580.734231 398.360344 
L 589.181456 397.462405 
L 597.628681 396.565219 
L 606.075906 395.667509 
L 614.52313 394.770963 
L 622.970355 393.875086 
L 631.41758 392.978593 
L 639.864805 392.08324 
L 648.31203 391.188693 
L 656.759254 390.294046 
L 665.206479 389.399897 
L 673.653704 388.506759 
L 682.100929 387.614405 
L 690.548153 386.722166 
L 698.995378 385.830317 
L 707.442603 384.939356 
L 715.889828 384.04925 
L 724.337052 383.160072 
L 732.784277 382.271719 
L 741.231502 381.383294 
L 749.678727 380.495737 
L 758.125952 379.609052 
L 766.573176 378.723216 
L 775.020401 377.838193 
L 783.467626 376.954106 
L 791.914851 376.070814 
L 800.362075 375.18849 
L 808.8093 374.307164 
L 817.256525 373.426687 
L 825.70375 372.546986 
L 834.150975 371.668202 
L 842.598199 370.790495 
L 851.045424 369.913652 
L 859.492649 369.037719 
L 867.939874 368.162689 
L 876.387098 367.288682 
L 884.834323 366.415847 
L 893.281548 365.543989 
" clip-path="url(#p40b52e8d7a)" style="fill: none; stroke: #8c6d31; stroke-width: 2; stroke-linecap: round"/>
   </g>
   <g id="line2d_42">
    <path d="M 48.559071 503.804492 
L 57.006295 503.233508 
L 65.45352 502.655774 
L 73.900745 502.071129 
L 82.34797 501.479837 
L 90.795195 500.881892 
L 99.242419 500.27742 
L 107.689644 499.66657 
L 116.136869 499.0494 
L 124.584094 498.426007 
L 133.031318 497.796478 
L 141.478543 497.160866 
L 149.925768 496.519397 
L 158.372993 495.872069 
L 166.820217 495.218946 
L 175.267442 494.560156 
L 183.714667 493.895744 
L 192.161892 493.225911 
L 200.609117 492.550611 
L 209.056341 491.869961 
L 217.503566 491.184191 
L 225.950791 490.493166 
L 234.398016 489.797118 
L 242.84524 489.096091 
L 251.292465 488.39016 
L 259.73969 487.679353 
L 268.186915 486.9638 
L 276.63414 486.243625 
L 285.081364 485.518847 
L 293.528589 484.789575 
L 301.975814 484.055884 
L 310.423039 483.317816 
L 318.870263 482.575496 
L 327.317488 481.828927 
L 335.764713 481.078254 
L 344.211938 480.323511 
L 352.659162 479.564838 
L 361.106387 478.80225 
L 369.553612 478.035707 
L 378.000837 477.265415 
L 386.448062 476.491609 
L 394.895286 475.713942 
L 403.342511 474.932748 
L 411.789736 474.148189 
L 420.236961 473.360131 
L 428.684185 472.568697 
L 437.13141 471.773916 
L 445.578635 470.975942 
L 454.02586 470.174828 
L 462.473085 469.370629 
L 470.920309 468.563263 
L 479.367534 467.753028 
L 487.814759 466.939875 
L 496.261984 466.123779 
L 504.709208 465.30491 
L 513.156433 464.483348 
L 521.603658 463.659081 
L 530.050883 462.832184 
L 538.498107 462.002729 
L 546.945332 461.170732 
L 555.392557 460.336402 
L 563.839782 459.499597 
L 572.287007 458.660338 
L 580.734231 457.819153 
L 589.181456 456.975298 
L 597.628681 456.129545 
L 606.075906 455.281415 
L 614.52313 454.431442 
L 622.970355 453.579565 
L 631.41758 452.725427 
L 639.864805 451.86944 
L 648.31203 451.011545 
L 656.759254 450.151958 
L 665.206479 449.290539 
L 673.653704 448.427484 
L 682.100929 447.562704 
L 690.548153 446.696328 
L 698.995378 445.828456 
L 707.442603 444.958809 
L 715.889828 444.087692 
L 724.337052 443.215353 
L 732.784277 442.34163 
L 741.231502 441.466275 
L 749.678727 440.589972 
L 758.125952 439.712056 
L 766.573176 438.833209 
L 775.020401 437.952846 
L 783.467626 437.071805 
L 791.914851 436.189105 
L 800.362075 435.305754 
L 808.8093 434.42151 
L 817.256525 433.535957 
L 825.70375 432.64959 
L 834.150975 431.762496 
L 842.598199 430.874569 
L 851.045424 429.985555 
L 859.492649 429.095808 
L 867.939874 428.205334 
L 876.387098 427.314205 
L 884.834323 426.422547 
L 893.281548 425.530195 
" clip-path="url(#p40b52e8d7a)" style="fill: none; stroke: #e7cb94; stroke-width: 2; stroke-linecap: round"/>
   </g>
   <g id="line2d_43">
    <path d="M 48.559071 515.671812 
L 57.006295 515.314002 
L 65.45352 514.946451 
L 73.900745 514.569168 
L 82.34797 514.182355 
L 90.795195 513.786078 
L 99.242419 513.380494 
L 107.689644 512.965731 
L 116.136869 512.541917 
L 124.584094 512.109149 
L 133.031318 511.667566 
L 141.478543 511.217259 
L 149.925768 510.758403 
L 158.372993 510.291077 
L 166.820217 509.815405 
L 175.267442 509.331466 
L 183.714667 508.839395 
L 192.161892 508.339377 
L 200.609117 507.831408 
L 209.056341 507.31563 
L 217.503566 506.792255 
L 225.950791 506.261224 
L 234.398016 505.722779 
L 242.84524 505.176946 
L 251.292465 504.623896 
L 259.73969 504.063647 
L 268.186915 503.496383 
L 276.63414 502.922154 
L 285.081364 502.341113 
L 293.528589 501.753322 
L 301.975814 501.158882 
L 310.423039 500.557878 
L 318.870263 499.950436 
L 327.317488 499.33665 
L 335.764713 498.71659 
L 344.211938 498.090345 
L 352.659162 497.458086 
L 361.106387 496.819872 
L 369.553612 496.175709 
L 378.000837 495.525714 
L 386.448062 494.870154 
L 394.895286 494.208834 
L 403.342511 493.542014 
L 411.789736 492.869822 
L 420.236961 492.192227 
L 428.684185 491.509358 
L 437.13141 490.821315 
L 445.578635 490.128166 
L 454.02586 489.430027 
L 462.473085 488.726906 
L 470.920309 488.018942 
L 479.367534 487.306228 
L 487.814759 486.588786 
L 496.261984 485.866787 
L 504.709208 485.14018 
L 513.156433 484.409138 
L 521.603658 483.673731 
L 530.050883 482.933959 
L 538.498107 482.190009 
L 546.945332 481.441848 
L 555.392557 480.689691 
L 563.839782 479.933469 
L 572.287007 479.17328 
L 580.734231 478.409293 
L 589.181456 477.641384 
L 597.628681 476.869801 
L 606.075906 476.094508 
L 614.52313 475.315819 
L 622.970355 474.533461 
L 631.41758 473.747565 
L 639.864805 472.958394 
L 648.31203 472.165831 
L 656.759254 471.370112 
L 665.206479 470.571176 
L 673.653704 469.769024 
L 682.100929 468.963879 
L 690.548153 468.155623 
L 698.995378 467.344581 
L 707.442603 466.530459 
L 715.889828 465.71358 
L 724.337052 464.894016 
L 732.784277 464.071733 
L 741.231502 463.24676 
L 749.678727 462.419186 
L 758.125952 461.589092 
L 766.573176 460.756538 
L 775.020401 459.921633 
L 783.467626 459.084119 
L 791.914851 458.244446 
L 800.362075 457.402526 
L 808.8093 456.558485 
L 817.256525 455.712224 
L 825.70375 454.86398 
L 834.150975 454.013428 
L 842.598199 453.161079 
L 851.045424 452.306798 
L 859.492649 451.450628 
L 867.939874 450.592568 
L 876.387098 449.732712 
L 884.834323 448.871197 
L 893.281548 448.007898 
" clip-path="url(#p40b52e8d7a)" style="fill: none; stroke: #ad494a; stroke-width: 2; stroke-linecap: round"/>
   </g>
   <g id="line2d_44">
    <path d="M 48.559071 519.261081 
L 57.006295 519.037417 
L 65.45352 518.802279 
L 73.900745 518.555738 
L 82.34797 518.297983 
L 90.795195 518.029117 
L 99.242419 517.7493 
L 107.689644 517.458676 
L 116.136869 517.157384 
L 124.584094 516.845544 
L 133.031318 516.523306 
L 141.478543 516.190781 
L 149.925768 515.848146 
L 158.372993 515.495507 
L 166.820217 515.132992 
L 175.267442 514.760712 
L 183.714667 514.378808 
L 192.161892 513.987457 
L 200.609117 513.586702 
L 209.056341 513.176695 
L 217.503566 512.75763 
L 225.950791 512.329506 
L 234.398016 511.892539 
L 242.84524 511.446798 
L 251.292465 510.992448 
L 259.73969 510.529537 
L 268.186915 510.058243 
L 276.63414 509.578644 
L 285.081364 509.090905 
L 293.528589 508.595084 
L 301.975814 508.091321 
L 310.423039 507.579698 
L 318.870263 507.060357 
L 327.317488 506.533391 
L 335.764713 505.998915 
L 344.211938 505.457008 
L 352.659162 504.907834 
L 361.106387 504.351478 
L 369.553612 503.787975 
L 378.000837 503.217474 
L 386.448062 502.640173 
L 394.895286 502.055982 
L 403.342511 501.465117 
L 411.789736 500.867711 
L 420.236961 500.263783 
L 428.684185 499.65345 
L 437.13141 499.03681 
L 445.578635 498.413976 
L 454.02586 497.785025 
L 462.473085 497.150067 
L 470.920309 496.509145 
L 479.367534 495.862401 
L 487.814759 495.209933 
L 496.261984 494.551802 
L 504.709208 493.888067 
L 513.156433 493.21887 
L 521.603658 492.544254 
L 530.050883 491.864349 
L 538.498107 491.179234 
L 546.945332 490.488948 
L 555.392557 489.793632 
L 563.839782 489.093351 
L 572.287007 488.388117 
L 580.734231 487.678186 
L 589.181456 486.963375 
L 597.628681 486.243967 
L 606.075906 485.519926 
L 614.52313 484.791503 
L 622.970355 484.058654 
L 631.41758 483.321365 
L 639.864805 482.579896 
L 648.31203 481.834125 
L 656.759254 481.084331 
L 665.206479 480.330467 
L 673.653704 479.572669 
L 682.100929 478.81089 
L 690.548153 478.045252 
L 698.995378 477.27591 
L 707.442603 476.502866 
L 715.889828 475.726175 
L 724.337052 474.945941 
L 732.784277 474.162252 
L 741.231502 473.375117 
L 749.678727 472.58461 
L 758.125952 471.790798 
L 766.573176 470.993742 
L 775.020401 470.193552 
L 783.467626 469.390217 
L 791.914851 468.583832 
L 800.362075 467.774516 
L 808.8093 466.962425 
L 817.256525 466.147304 
L 825.70375 465.329372 
L 834.150975 464.508741 
L 842.598199 463.685536 
L 851.045424 462.859648 
L 859.492649 462.031175 
L 867.939874 461.200191 
L 876.387098 460.366854 
L 884.834323 459.531019 
L 893.281548 458.692893 
" clip-path="url(#p40b52e8d7a)" style="fill: none; stroke: #e7969c; stroke-width: 2; stroke-linecap: round"/>
   </g>
   <g id="line2d_45">
    <path d="M 48.559071 520.57865 
L 57.006295 520.362481 
L 65.45352 520.179278 
L 73.900745 520.012671 
L 82.34797 519.834888 
L 90.795195 519.645003 
L 99.242419 519.44318 
L 107.689644 519.229571 
L 116.136869 519.004325 
L 124.584094 518.767573 
L 133.031318 518.519471 
L 141.478543 518.260146 
L 149.925768 517.98977 
L 158.372993 517.708468 
L 166.820217 517.416376 
L 175.267442 517.113615 
L 183.714667 516.800333 
L 192.161892 516.476706 
L 200.609117 516.142803 
L 209.056341 515.798776 
L 217.503566 515.444817 
L 225.950791 515.08095 
L 234.398016 514.707388 
L 242.84524 514.324216 
L 251.292465 513.931595 
L 259.73969 513.5296 
L 268.186915 513.118398 
L 276.63414 512.698088 
L 285.081364 512.26883 
L 293.528589 511.830699 
L 301.975814 511.383841 
L 310.423039 510.928347 
L 318.870263 510.464355 
L 327.317488 509.991988 
L 335.764713 509.511343 
L 344.211938 509.022521 
L 352.659162 508.525694 
L 361.106387 508.020949 
L 369.553612 507.508335 
L 378.000837 506.987999 
L 386.448062 506.460143 
L 394.895286 505.924698 
L 403.342511 505.381869 
L 411.789736 504.831814 
L 420.236961 504.274552 
L 428.684185 503.710197 
L 437.13141 503.138871 
L 445.578635 502.560681 
L 454.02586 501.975714 
L 462.473085 501.384081 
L 470.920309 500.78585 
L 479.367534 500.181141 
L 487.814759 499.57009 
L 496.261984 498.952716 
L 504.709208 498.329156 
L 513.156433 497.699496 
L 521.603658 497.06381 
L 530.050883 496.422238 
L 538.498107 495.774846 
L 546.945332 495.121696 
L 555.392557 494.462917 
L 563.839782 493.798574 
L 572.287007 493.128759 
L 580.734231 492.453623 
L 589.181456 491.773118 
L 597.628681 491.08738 
L 606.075906 490.396516 
L 614.52313 489.700713 
L 622.970355 488.999927 
L 631.41758 488.294147 
L 639.864805 487.583673 
L 648.31203 486.868358 
L 656.759254 486.148546 
L 665.206479 485.424054 
L 673.653704 484.695161 
L 682.100929 483.96182 
L 690.548153 483.224158 
L 698.995378 482.482199 
L 707.442603 481.736096 
L 715.889828 480.985826 
L 724.337052 480.231595 
L 732.784277 479.473386 
L 741.231502 478.711249 
L 749.678727 477.94531 
L 758.125952 477.175682 
L 766.573176 476.402208 
L 775.020401 475.62522 
L 783.467626 474.844624 
L 791.914851 474.060528 
L 800.362075 473.273072 
L 808.8093 472.482334 
L 817.256525 471.688311 
L 825.70375 470.891037 
L 834.150975 470.090516 
L 842.598199 469.287026 
L 851.045424 468.480525 
L 859.492649 467.67095 
L 867.939874 466.858444 
L 876.387098 466.043183 
L 884.834323 465.225238 
L 893.281548 464.404421 
" clip-path="url(#p40b52e8d7a)" style="fill: none; stroke: #a55194; stroke-width: 2; stroke-linecap: round"/>
   </g>
   <g id="line2d_46">
    <path d="M 48.559071 521.938898 
L 57.006295 521.51364 
L 65.45352 521.154148 
L 73.900745 520.849937 
L 82.34797 520.592382 
L 90.795195 520.374189 
L 99.242419 520.189212 
L 107.689644 520.022741 
L 116.136869 519.845691 
L 124.584094 519.65654 
L 133.031318 519.455447 
L 141.478543 519.242545 
L 149.925768 519.018009 
L 158.372993 518.78197 
L 166.820217 518.534573 
L 175.267442 518.275943 
L 183.714667 518.006235 
L 192.161892 517.725622 
L 200.609117 517.434187 
L 209.056341 517.132086 
L 217.503566 516.819508 
L 225.950791 516.496495 
L 234.398016 516.163256 
L 242.84524 515.819885 
L 251.292465 515.466541 
L 259.73969 515.103314 
L 268.186915 514.730369 
L 276.63414 514.347816 
L 285.081364 513.955806 
L 293.528589 513.554437 
L 301.975814 513.143847 
L 310.423039 512.724138 
L 318.870263 512.295451 
L 327.317488 511.85791 
L 335.764713 511.411621 
L 344.211938 510.95669 
L 352.659162 510.493288 
L 361.106387 510.021511 
L 369.553612 509.541408 
L 378.000837 509.053139 
L 386.448062 508.556902 
L 394.895286 508.052636 
L 403.342511 507.54055 
L 411.789736 507.020801 
L 420.236961 506.493415 
L 428.684185 505.958519 
L 437.13141 505.416224 
L 445.578635 504.866663 
L 454.02586 504.309913 
L 462.473085 503.746065 
L 470.920309 503.175241 
L 479.367534 502.597522 
L 487.814759 502.013062 
L 496.261984 501.421911 
L 504.709208 500.824152 
L 513.156433 500.219938 
L 521.603658 499.609322 
L 530.050883 498.992416 
L 538.498107 498.369329 
L 546.945332 497.740106 
L 555.392557 497.104896 
L 563.839782 496.463775 
L 572.287007 495.816783 
L 580.734231 495.164128 
L 589.181456 494.505763 
L 597.628681 493.841818 
L 606.075906 493.17239 
L 614.52313 492.497697 
L 622.970355 491.817649 
L 631.41758 491.132308 
L 639.864805 490.441903 
L 648.31203 489.746385 
L 656.759254 489.045971 
L 665.206479 488.340633 
L 673.653704 487.63054 
L 682.100929 486.91571 
L 690.548153 486.196162 
L 698.995378 485.472116 
L 707.442603 484.743574 
L 715.889828 484.010575 
L 724.337052 483.27326 
L 732.784277 482.531708 
L 741.231502 481.785945 
L 749.678727 481.036105 
L 758.125952 480.282162 
L 766.573176 479.524256 
L 775.020401 478.762444 
L 783.467626 477.99684 
L 791.914851 477.227371 
L 800.362075 476.454348 
L 808.8093 475.677676 
L 817.256525 474.897525 
L 825.70375 474.113812 
L 834.150975 473.326629 
L 842.598199 472.536223 
L 851.045424 471.742499 
L 859.492649 470.945438 
L 867.939874 470.145219 
L 876.387098 469.342036 
L 884.834323 468.535735 
L 893.281548 467.726615 
" clip-path="url(#p40b52e8d7a)" style="fill: none; stroke: #de9ed6; stroke-width: 2; stroke-linecap: round"/>
   </g>
   <g id="patch_3">
    <path d="M 48.559071 521.153031 
L 48.559071 51.564121 
" style="fill: none"/>
   </g>
   <g id="patch_4">
    <path d="M 935.517672 521.153031 
L 935.517672 51.564121 
" style="fill: none"/>
   </g>
   <g id="patch_5">
    <path d="M 48.559071 521.153031 
L 935.517672 521.153031 
" style="fill: none"/>
   </g>
   <g id="patch_6">
    <path d="M 48.559071 51.564121 
L 935.517672 51.564121 
" style="fill: none"/>
   </g>
   <g id="patch_7">
    <path d="M 470.920309 80.434534 
Q 470.920309 287.44954 470.920309 492.787494 
" style="fill: none; stroke: #000000; stroke-width: 1.5; stroke-linecap: round"/>
    <path d="M 474.120309 486.387494 
L 470.920309 492.787494 
L 467.720309 486.387494 
" style="fill: none; stroke: #000000; stroke-width: 1.5; stroke-linecap: round"/>
   </g>
   <g id="text_20">
    <!-- Time -->
    <g style="fill: #262626" transform="translate(492.038371 492.979325) scale(0.18 -0.18)">
     <defs>
      <path id="CMR17-54" d="M 3981 4326 
L 288 4326 
L 179 2918 
L 294 2918 
C 378 3976 467 4160 1453 4160 
C 1568 4160 1754 4160 1805 4154 
C 1926 4135 1926 4058 1926 3912 
L 1926 459 
C 1926 230 1907 160 1376 160 
L 1197 160 
L 1197 0 
C 1504 0 1824 0 2138 0 
C 2451 0 2771 0 3078 0 
L 3078 160 
L 2899 160 
C 2368 160 2349 230 2349 459 
L 2349 3912 
C 2349 4052 2349 4129 2464 4154 
C 2515 4160 2701 4160 2816 4160 
C 3795 4160 3891 3976 3974 2918 
L 4090 2918 
L 3981 4326 
z
" transform="scale(0.015625)"/>
      <path id="CMR17-69" d="M 992 3909 
C 992 4049 877 4170 730 4170 
C 589 4170 467 4056 467 3909 
C 467 3769 582 3648 730 3648 
C 870 3648 992 3763 992 3909 
z
M 243 2706 
L 243 2541 
C 602 2541 653 2502 653 2197 
L 653 427 
C 653 184 627 153 218 153 
L 218 -13 
C 371 0 646 0 806 0 
C 960 0 1222 0 1370 -13 
L 1370 153 
C 992 153 979 191 979 420 
L 979 2776 
L 243 2706 
z
" transform="scale(0.015625)"/>
      <path id="CMR17-6d" d="M 4326 1933 
C 4326 2252 4269 2790 3507 2790 
C 3072 2790 2771 2496 2656 2151 
L 2650 2151 
C 2573 2676 2195 2790 1837 2790 
C 1331 2790 1069 2400 973 2144 
L 966 2144 
L 966 2790 
L 211 2720 
L 211 2554 
C 589 2554 646 2515 646 2208 
L 646 428 
C 646 184 621 153 211 153 
L 211 -13 
C 365 0 646 0 813 0 
C 979 0 1267 0 1421 -13 
L 1421 153 
C 1011 153 986 178 986 428 
L 986 1658 
C 986 2247 1344 2688 1792 2688 
C 2266 2688 2317 2266 2317 1958 
L 2317 428 
C 2317 184 2291 153 1882 153 
L 1882 -13 
C 2035 0 2317 0 2483 0 
C 2650 0 2938 0 3091 -13 
L 3091 153 
C 2682 153 2656 178 2656 428 
L 2656 1658 
C 2656 2247 3014 2688 3462 2688 
C 3936 2688 3987 2266 3987 1958 
L 3987 428 
C 3987 184 3962 153 3552 153 
L 3552 -13 
C 3706 0 3987 0 4154 0 
C 4320 0 4608 0 4762 -13 
L 4762 153 
C 4352 153 4326 178 4326 428 
L 4326 1933 
z
" transform="scale(0.015625)"/>
      <path id="CMR17-65" d="M 2438 1472 
C 2464 1498 2464 1511 2464 1576 
C 2464 2238 2118 2816 1389 2816 
C 710 2816 173 2169 173 1383 
C 173 551 781 -64 1459 -64 
C 2176 -64 2458 607 2458 740 
C 2458 784 2419 784 2406 784 
C 2362 784 2355 771 2330 696 
C 2189 265 1837 51 1504 51 
C 1229 51 954 203 781 480 
C 582 803 582 1176 582 1472 
L 2438 1472 
z
M 589 1568 
C 634 2505 1126 2714 1382 2714 
C 1818 2714 2112 2297 2118 1568 
L 589 1568 
z
" transform="scale(0.015625)"/>
     </defs>
     <use xlink:href="#CMR17-54" transform="scale(0.996264)"/>
     <use xlink:href="#CMR17-69" transform="translate(66.509881 0) scale(0.996264)"/>
     <use xlink:href="#CMR17-6d" transform="translate(91.380939 0) scale(0.996264)"/>
     <use xlink:href="#CMR17-65" transform="translate(168.300529 0) scale(0.996264)"/>
    </g>
   </g>
   <g id="legend_1">
    <g id="line2d_47">
     <path d="M 948.117672 197.198434 
L 962.117672 197.198434 
L 976.117672 197.198434 
" style="fill: none; stroke: #393b79; stroke-width: 2; stroke-linecap: round"/>
    </g>
    <g id="text_21">
     <!-- t = 0.00 -->
     <g style="fill: #262626" transform="translate(987.317672 202.098434) scale(0.14 -0.14)">
      <defs>
       <path id="CMR17-74" d="M 966 2560 
L 1862 2560 
L 1862 2725 
L 966 2725 
L 966 3904 
L 851 3904 
C 838 3245 614 2668 70 2668 
L 70 2560 
L 627 2560 
L 627 771 
C 627 650 627 -64 1370 -64 
C 1747 -64 1965 306 1965 777 
L 1965 1140 
L 1850 1140 
L 1850 783 
C 1850 344 1677 51 1408 51 
C 1222 51 966 178 966 758 
L 966 2560 
z
" transform="scale(0.015625)"/>
       <path id="CMR17-3d" d="M 4115 2017 
C 4211 2017 4307 2017 4307 2125 
C 4307 2240 4198 2240 4090 2240 
L 512 2240 
C 403 2240 294 2240 294 2125 
C 294 2017 390 2017 486 2017 
L 4115 2017 
z
M 4090 896 
C 4198 896 4307 896 4307 1011 
C 4307 1119 4211 1119 4115 1119 
L 486 1119 
C 390 1119 294 1119 294 1011 
C 294 896 403 896 512 896 
L 4090 896 
z
" transform="scale(0.015625)"/>
       <path id="CMR17-2e" d="M 1062 261 
C 1062 420 934 522 800 522 
C 672 522 538 420 538 261 
C 538 102 666 0 800 0 
C 928 0 1062 102 1062 261 
z
" transform="scale(0.015625)"/>
      </defs>
      <use xlink:href="#CMR17-74" transform="scale(0.996264)"/>
      <use xlink:href="#CMR17-3d" transform="translate(65.356734 0) scale(0.996264)"/>
      <use xlink:href="#CMR17-30" transform="translate(167.147489 0) scale(0.996264)"/>
      <use xlink:href="#CMR17-2e" transform="translate(212.837966 0) scale(0.996264)"/>
      <use xlink:href="#CMR17-30" transform="translate(237.709025 0) scale(0.996264)"/>
      <use xlink:href="#CMR17-30" transform="translate(283.399502 0) scale(0.996264)"/>
     </g>
    </g>
    <g id="line2d_48">
     <path d="M 948.117672 216.710462 
L 962.117672 216.710462 
L 976.117672 216.710462 
" style="fill: none; stroke: #6b6ecf; stroke-width: 2; stroke-linecap: round"/>
    </g>
    <g id="text_22">
     <!-- t = 10.00 -->
     <g style="fill: #262626" transform="translate(987.317672 221.610462) scale(0.14 -0.14)">
      <use xlink:href="#CMR17-74" transform="scale(0.996264)"/>
      <use xlink:href="#CMR17-3d" transform="translate(65.356734 0) scale(0.996264)"/>
      <use xlink:href="#CMR17-31" transform="translate(167.147489 0) scale(0.996264)"/>
      <use xlink:href="#CMR17-30" transform="translate(212.837966 0) scale(0.996264)"/>
      <use xlink:href="#CMR17-2e" transform="translate(258.528443 0) scale(0.996264)"/>
      <use xlink:href="#CMR17-30" transform="translate(283.399502 0) scale(0.996264)"/>
      <use xlink:href="#CMR17-30" transform="translate(329.089979 0) scale(0.996264)"/>
     </g>
    </g>
    <g id="line2d_49">
     <path d="M 948.117672 236.222491 
L 962.117672 236.222491 
L 976.117672 236.222491 
" style="fill: none; stroke: #637939; stroke-width: 2; stroke-linecap: round"/>
    </g>
    <g id="text_23">
     <!-- t = 50.00 -->
     <g style="fill: #262626" transform="translate(987.317672 241.122491) scale(0.14 -0.14)">
      <use xlink:href="#CMR17-74" transform="scale(0.996264)"/>
      <use xlink:href="#CMR17-3d" transform="translate(65.356734 0) scale(0.996264)"/>
      <use xlink:href="#CMR17-35" transform="translate(167.147489 0) scale(0.996264)"/>
      <use xlink:href="#CMR17-30" transform="translate(212.837966 0) scale(0.996264)"/>
      <use xlink:href="#CMR17-2e" transform="translate(258.528443 0) scale(0.996264)"/>
      <use xlink:href="#CMR17-30" transform="translate(283.399502 0) scale(0.996264)"/>
      <use xlink:href="#CMR17-30" transform="translate(329.089979 0) scale(0.996264)"/>
     </g>
    </g>
    <g id="line2d_50">
     <path d="M 948.117672 255.734519 
L 962.117672 255.734519 
L 976.117672 255.734519 
" style="fill: none; stroke: #b5cf6b; stroke-width: 2; stroke-linecap: round"/>
    </g>
    <g id="text_24">
     <!-- t = 100.00 -->
     <g style="fill: #262626" transform="translate(987.317672 260.634519) scale(0.14 -0.14)">
      <use xlink:href="#CMR17-74" transform="scale(0.996264)"/>
      <use xlink:href="#CMR17-3d" transform="translate(65.356734 0) scale(0.996264)"/>
      <use xlink:href="#CMR17-31" transform="translate(167.147489 0) scale(0.996264)"/>
      <use xlink:href="#CMR17-30" transform="translate(212.837966 0) scale(0.996264)"/>
      <use xlink:href="#CMR17-30" transform="translate(258.528443 0) scale(0.996264)"/>
      <use xlink:href="#CMR17-2e" transform="translate(304.21892 0) scale(0.996264)"/>
      <use xlink:href="#CMR17-30" transform="translate(329.089979 0) scale(0.996264)"/>
      <use xlink:href="#CMR17-30" transform="translate(374.780456 0) scale(0.996264)"/>
     </g>
    </g>
    <g id="line2d_51">
     <path d="M 948.117672 275.246547 
L 962.117672 275.246547 
L 976.117672 275.246547 
" style="fill: none; stroke: #8c6d31; stroke-width: 2; stroke-linecap: round"/>
    </g>
    <g id="text_25">
     <!-- t = 250.00 -->
     <g style="fill: #262626" transform="translate(987.317672 280.146547) scale(0.14 -0.14)">
      <use xlink:href="#CMR17-74" transform="scale(0.996264)"/>
      <use xlink:href="#CMR17-3d" transform="translate(65.356734 0) scale(0.996264)"/>
      <use xlink:href="#CMR17-32" transform="translate(167.147489 0) scale(0.996264)"/>
      <use xlink:href="#CMR17-35" transform="translate(212.837966 0) scale(0.996264)"/>
      <use xlink:href="#CMR17-30" transform="translate(258.528443 0) scale(0.996264)"/>
      <use xlink:href="#CMR17-2e" transform="translate(304.21892 0) scale(0.996264)"/>
      <use xlink:href="#CMR17-30" transform="translate(329.089979 0) scale(0.996264)"/>
      <use xlink:href="#CMR17-30" transform="translate(374.780456 0) scale(0.996264)"/>
     </g>
    </g>
    <g id="line2d_52">
     <path d="M 948.117672 294.758576 
L 962.117672 294.758576 
L 976.117672 294.758576 
" style="fill: none; stroke: #e7cb94; stroke-width: 2; stroke-linecap: round"/>
    </g>
    <g id="text_26">
     <!-- t = 500.00 -->
     <g style="fill: #262626" transform="translate(987.317672 299.658576) scale(0.14 -0.14)">
      <use xlink:href="#CMR17-74" transform="scale(0.996264)"/>
      <use xlink:href="#CMR17-3d" transform="translate(65.356734 0) scale(0.996264)"/>
      <use xlink:href="#CMR17-35" transform="translate(167.147489 0) scale(0.996264)"/>
      <use xlink:href="#CMR17-30" transform="translate(212.837966 0) scale(0.996264)"/>
      <use xlink:href="#CMR17-30" transform="translate(258.528443 0) scale(0.996264)"/>
      <use xlink:href="#CMR17-2e" transform="translate(304.21892 0) scale(0.996264)"/>
      <use xlink:href="#CMR17-30" transform="translate(329.089979 0) scale(0.996264)"/>
      <use xlink:href="#CMR17-30" transform="translate(374.780456 0) scale(0.996264)"/>
     </g>
    </g>
    <g id="line2d_53">
     <path d="M 948.117672 314.270604 
L 962.117672 314.270604 
L 976.117672 314.270604 
" style="fill: none; stroke: #ad494a; stroke-width: 2; stroke-linecap: round"/>
    </g>
    <g id="text_27">
     <!-- t = 750.00 -->
     <g style="fill: #262626" transform="translate(987.317672 319.170604) scale(0.14 -0.14)">
      <use xlink:href="#CMR17-74" transform="scale(0.996264)"/>
      <use xlink:href="#CMR17-3d" transform="translate(65.356734 0) scale(0.996264)"/>
      <use xlink:href="#CMR17-37" transform="translate(167.147489 0) scale(0.996264)"/>
      <use xlink:href="#CMR17-35" transform="translate(212.837966 0) scale(0.996264)"/>
      <use xlink:href="#CMR17-30" transform="translate(258.528443 0) scale(0.996264)"/>
      <use xlink:href="#CMR17-2e" transform="translate(304.21892 0) scale(0.996264)"/>
      <use xlink:href="#CMR17-30" transform="translate(329.089979 0) scale(0.996264)"/>
      <use xlink:href="#CMR17-30" transform="translate(374.780456 0) scale(0.996264)"/>
     </g>
    </g>
    <g id="line2d_54">
     <path d="M 948.117672 333.782633 
L 962.117672 333.782633 
L 976.117672 333.782633 
" style="fill: none; stroke: #e7969c; stroke-width: 2; stroke-linecap: round"/>
    </g>
    <g id="text_28">
     <!-- t = 1000.00 -->
     <g style="fill: #262626" transform="translate(987.317672 338.682633) scale(0.14 -0.14)">
      <use xlink:href="#CMR17-74" transform="scale(0.996264)"/>
      <use xlink:href="#CMR17-3d" transform="translate(65.356734 0) scale(0.996264)"/>
      <use xlink:href="#CMR17-31" transform="translate(167.147489 0) scale(0.996264)"/>
      <use xlink:href="#CMR17-30" transform="translate(212.837966 0) scale(0.996264)"/>
      <use xlink:href="#CMR17-30" transform="translate(258.528443 0) scale(0.996264)"/>
      <use xlink:href="#CMR17-30" transform="translate(304.21892 0) scale(0.996264)"/>
      <use xlink:href="#CMR17-2e" transform="translate(349.909397 0) scale(0.996264)"/>
      <use xlink:href="#CMR17-30" transform="translate(374.780456 0) scale(0.996264)"/>
      <use xlink:href="#CMR17-30" transform="translate(420.470933 0) scale(0.996264)"/>
     </g>
    </g>
    <g id="line2d_55">
     <path d="M 948.117672 353.294661 
L 962.117672 353.294661 
L 976.117672 353.294661 
" style="fill: none; stroke: #a55194; stroke-width: 2; stroke-linecap: round"/>
    </g>
    <g id="text_29">
     <!-- t = 1250.00 -->
     <g style="fill: #262626" transform="translate(987.317672 358.194661) scale(0.14 -0.14)">
      <use xlink:href="#CMR17-74" transform="scale(0.996264)"/>
      <use xlink:href="#CMR17-3d" transform="translate(65.356734 0) scale(0.996264)"/>
      <use xlink:href="#CMR17-31" transform="translate(167.147489 0) scale(0.996264)"/>
      <use xlink:href="#CMR17-32" transform="translate(212.837966 0) scale(0.996264)"/>
      <use xlink:href="#CMR17-35" transform="translate(258.528443 0) scale(0.996264)"/>
      <use xlink:href="#CMR17-30" transform="translate(304.21892 0) scale(0.996264)"/>
      <use xlink:href="#CMR17-2e" transform="translate(349.909397 0) scale(0.996264)"/>
      <use xlink:href="#CMR17-30" transform="translate(374.780456 0) scale(0.996264)"/>
      <use xlink:href="#CMR17-30" transform="translate(420.470933 0) scale(0.996264)"/>
     </g>
    </g>
    <g id="line2d_56">
     <path d="M 948.117672 372.806689 
L 962.117672 372.806689 
L 976.117672 372.806689 
" style="fill: none; stroke: #de9ed6; stroke-width: 2; stroke-linecap: round"/>
    </g>
    <g id="text_30">
     <!-- t = 1500.00 -->
     <g style="fill: #262626" transform="translate(987.317672 377.706689) scale(0.14 -0.14)">
      <use xlink:href="#CMR17-74" transform="scale(0.996264)"/>
      <use xlink:href="#CMR17-3d" transform="translate(65.356734 0) scale(0.996264)"/>
      <use xlink:href="#CMR17-31" transform="translate(167.147489 0) scale(0.996264)"/>
      <use xlink:href="#CMR17-35" transform="translate(212.837966 0) scale(0.996264)"/>
      <use xlink:href="#CMR17-30" transform="translate(258.528443 0) scale(0.996264)"/>
      <use xlink:href="#CMR17-30" transform="translate(304.21892 0) scale(0.996264)"/>
      <use xlink:href="#CMR17-2e" transform="translate(349.909397 0) scale(0.996264)"/>
      <use xlink:href="#CMR17-30" transform="translate(374.780456 0) scale(0.996264)"/>
      <use xlink:href="#CMR17-30" transform="translate(420.470933 0) scale(0.996264)"/>
     </g>
    </g>
   </g>
  </g>
  <g id="text_31">
   <!-- permeability -->
   <g style="fill: #262626" transform="translate(492.111452 24.803515) scale(0.192 -0.192)">
    <defs>
     <path id="CMR17-70" d="M 1408 -1063 
C 998 -1063 973 -1037 973 -789 
L 973 402 
C 1158 134 1427 -38 1766 -38 
C 2406 -38 3053 523 3053 1388 
C 3053 2191 2496 2802 1837 2802 
C 1453 2802 1139 2592 960 2338 
L 960 2802 
L 198 2732 
L 198 2567 
C 576 2567 634 2528 634 2223 
L 634 -789 
C 634 -1031 608 -1063 198 -1063 
L 198 -1228 
C 352 -1216 634 -1216 800 -1216 
C 966 -1216 1254 -1216 1408 -1228 
L 1408 -1063 
z
M 973 2012 
C 973 2102 973 2235 1222 2471 
C 1254 2497 1472 2688 1792 2688 
C 2259 2688 2643 2108 2643 1382 
C 2643 656 2234 64 1728 64 
C 1498 64 1248 172 1056 472 
C 973 612 973 650 973 752 
L 973 2012 
z
" transform="scale(0.015625)"/>
     <path id="CMR17-72" d="M 960 1497 
C 960 2112 1222 2688 1702 2688 
C 1747 2688 1792 2682 1837 2662 
C 1837 2662 1696 2617 1696 2452 
C 1696 2298 1818 2234 1914 2234 
C 1990 2234 2131 2279 2131 2458 
C 2131 2663 1926 2790 1709 2790 
C 1222 2790 1011 2317 947 2093 
L 941 2093 
L 941 2790 
L 198 2720 
L 198 2554 
C 576 2554 634 2515 634 2208 
L 634 428 
C 634 184 608 153 198 153 
L 198 -13 
C 352 0 646 0 813 0 
C 998 0 1325 0 1498 -13 
L 1498 153 
C 1037 153 960 153 960 440 
L 960 1497 
z
" transform="scale(0.015625)"/>
     <path id="CMR17-61" d="M 2304 1653 
C 2304 2072 2304 2294 2035 2543 
C 1798 2752 1523 2816 1306 2816 
C 800 2816 435 2407 435 1971 
C 435 1728 627 1728 666 1728 
C 749 1728 896 1778 896 1954 
C 896 2112 774 2181 666 2181 
C 640 2181 608 2174 589 2168 
C 723 2592 1069 2714 1293 2714 
C 1613 2714 1965 2429 1965 1885 
L 1965 1600 
C 1587 1600 1133 1549 774 1357 
C 371 1133 256 813 256 570 
C 256 77 832 -64 1171 -64 
C 1523 -64 1850 139 1990 511 
C 2003 233 2182 -18 2464 -18 
C 2598 -18 2938 70 2938 567 
L 2938 920 
L 2822 920 
L 2822 562 
C 2822 178 2650 128 2566 128 
C 2304 128 2304 458 2304 738 
L 2304 1653 
z
M 1965 870 
C 1965 317 1568 38 1216 38 
C 896 38 646 275 646 570 
C 646 761 730 1100 1101 1305 
C 1408 1478 1760 1504 1965 1504 
L 1965 870 
z
" transform="scale(0.015625)"/>
     <path id="CMR17-62" d="M 960 4396 
L 198 4326 
L 198 4160 
C 576 4160 634 4122 634 3817 
L 634 -13 
L 749 -13 
L 934 441 
C 1120 141 1395 -64 1766 -64 
C 2406 -64 3053 500 3053 1370 
C 3053 2188 2477 2790 1830 2790 
C 1434 2790 1152 2579 960 2330 
L 960 4396 
z
M 973 2004 
C 973 2118 973 2138 1062 2272 
C 1312 2657 1670 2688 1792 2688 
C 1984 2688 2643 2585 2643 1376 
C 2643 108 1888 38 1734 38 
C 1536 38 1248 114 1043 486 
C 973 608 973 621 973 735 
L 973 2004 
z
" transform="scale(0.015625)"/>
     <path id="CMR17-6c" d="M 979 4396 
L 218 4326 
L 218 4160 
C 595 4160 653 4122 653 3817 
L 653 426 
C 653 184 627 153 218 153 
L 218 -13 
C 371 0 653 0 813 0 
C 979 0 1261 0 1414 -13 
L 1414 153 
C 1005 153 979 178 979 426 
L 979 4396 
z
" transform="scale(0.015625)"/>
     <path id="CMR17-79" d="M 2496 2197 
C 2656 2586 2944 2586 3034 2586 
L 3034 2752 
C 2912 2752 2752 2752 2630 2752 
C 2496 2752 2285 2752 2157 2758 
L 2157 2592 
C 2400 2573 2406 2394 2406 2343 
C 2406 2280 2394 2248 2362 2171 
L 1664 449 
L 902 2306 
C 870 2382 870 2426 870 2433 
C 870 2573 1018 2586 1171 2586 
L 1171 2758 
C 1018 2752 742 2752 582 2752 
C 410 2752 205 2752 64 2758 
L 64 2586 
C 410 2586 448 2554 531 2350 
L 1485 15 
C 1197 -738 1030 -1178 627 -1178 
C 557 -1178 397 -1159 282 -1044 
C 429 -1031 493 -942 493 -833 
C 493 -725 416 -629 288 -629 
C 147 -629 77 -725 77 -840 
C 77 -1095 339 -1280 627 -1280 
C 998 -1280 1229 -922 1357 -604 
L 2496 2197 
z
" transform="scale(0.015625)"/>
    </defs>
    <use xlink:href="#CMR17-70" transform="scale(0.996264)"/>
    <use xlink:href="#CMR17-65" transform="translate(53.497809 0) scale(0.996264)"/>
    <use xlink:href="#CMR17-72" transform="translate(93.983469 0) scale(0.996264)"/>
    <use xlink:href="#CMR17-6d" transform="translate(129.264237 0) scale(0.996264)"/>
    <use xlink:href="#CMR17-65" transform="translate(206.183827 0) scale(0.996264)"/>
    <use xlink:href="#CMR17-61" transform="translate(246.669487 0) scale(0.996264)"/>
    <use xlink:href="#CMR17-62" transform="translate(292.359964 0) scale(0.996264)"/>
    <use xlink:href="#CMR17-69" transform="translate(343.255334 0) scale(0.996264)"/>
    <use xlink:href="#CMR17-6c" transform="translate(368.126392 0) scale(0.996264)"/>
    <use xlink:href="#CMR17-69" transform="translate(392.997451 0) scale(0.996264)"/>
    <use xlink:href="#CMR17-74" transform="translate(417.868509 0) scale(0.996264)"/>
    <use xlink:href="#CMR17-79" transform="translate(450.546823 0) scale(0.996264)"/>
   </g>
  </g>
 </g>
 <defs>
  <clipPath id="p40b52e8d7a">
   <rect x="48.559071" y="51.564121" width="886.958601" height="469.58891"/>
  </clipPath>
 </defs>
</svg>
