<?xml version="1.0" encoding="utf-8" standalone="no"?>
<!DOCTYPE svg PUBLIC "-//W3C//DTD SVG 1.1//EN"
  "http://www.w3.org/Graphics/SVG/1.1/DTD/svg11.dtd">
<svg xmlns:xlink="http://www.w3.org/1999/xlink" width="1080pt" height="576pt" viewBox="0 0 1080 576" xmlns="http://www.w3.org/2000/svg" version="1.1">
 <metadata>
  <rdf:RDF xmlns:dc="http://purl.org/dc/elements/1.1/" xmlns:cc="http://creativecommons.org/ns#" xmlns:rdf="http://www.w3.org/1999/02/22-rdf-syntax-ns#">
   <cc:Work>
    <dc:type rdf:resource="http://purl.org/dc/dcmitype/StillImage"/>
    <dc:date>2024-08-12T22:23:08.121100</dc:date>
    <dc:format>image/svg+xml</dc:format>
    <dc:creator>
     <cc:Agent>
      <dc:title>Matplotlib v3.9.0, https://matplotlib.org/</dc:title>
     </cc:Agent>
    </dc:creator>
   </cc:Work>
  </rdf:RDF>
 </metadata>
 <defs>
  <style type="text/css">*{stroke-linejoin: round; stroke-linecap: butt}</style>
 </defs>
 <g id="figure_1">
  <g id="patch_1">
   <path d="M 0 576 
L 1080 576 
L 1080 0 
L 0 0 
z
" style="fill: #ffffff"/>
  </g>
  <g id="axes_1">
   <g id="patch_2">
    <path d="M 135 512.64 
L 972 512.64 
L 972 69.12 
L 135 69.12 
z
" style="fill: #ffffff"/>
   </g>
   <g id="matplotlib.axis_1">
    <g id="xtick_1">
     <g id="line2d_1">
      <defs>
       <path id="m00b09e6e4f" d="M 0 0 
L 0 3.5 
" style="stroke: #262626; stroke-width: 0.8"/>
      </defs>
      <g>
       <use xlink:href="#m00b09e6e4f" x="173.045455" y="512.64" style="fill: #262626; stroke: #262626; stroke-width: 0.8"/>
      </g>
     </g>
     <g id="text_1">
      <!-- $\mathdefault{0.0}$ -->
      <g style="fill: #262626" transform="translate(143.425922 554.232507) scale(0.5 -0.5)">
       <defs>
        <path id="CMR17-30" d="M 2688 2025 
C 2688 2416 2682 3080 2413 3591 
C 2176 4039 1798 4198 1466 4198 
C 1158 4198 768 4058 525 3597 
C 269 3118 243 2524 243 2025 
C 243 1661 250 1106 448 619 
C 723 -39 1216 -128 1466 -128 
C 1760 -128 2208 -7 2470 600 
C 2662 1042 2688 1559 2688 2025 
z
M 1466 -26 
C 1056 -26 813 325 723 812 
C 653 1188 653 1738 653 2096 
C 653 2588 653 2997 736 3387 
C 858 3929 1216 4096 1466 4096 
C 1728 4096 2067 3923 2189 3400 
C 2272 3036 2278 2607 2278 2096 
C 2278 1680 2278 1169 2202 792 
C 2067 95 1690 -26 1466 -26 
z
" transform="scale(0.015625)"/>
        <path id="CMMI12-3a" d="M 1178 307 
C 1178 492 1024 619 870 619 
C 685 619 557 466 557 313 
C 557 128 710 0 864 0 
C 1050 0 1178 153 1178 307 
z
" transform="scale(0.015625)"/>
       </defs>
       <use xlink:href="#CMR17-30" transform="scale(0.996264)"/>
       <use xlink:href="#CMMI12-3a" transform="translate(45.690477 0) scale(0.996264)"/>
       <use xlink:href="#CMR17-30" transform="translate(72.787654 0) scale(0.996264)"/>
      </g>
     </g>
    </g>
    <g id="xtick_2">
     <g id="line2d_2">
      <g>
       <use xlink:href="#m00b09e6e4f" x="325.227273" y="512.64" style="fill: #262626; stroke: #262626; stroke-width: 0.8"/>
      </g>
     </g>
     <g id="text_2">
      <!-- $\mathdefault{0.2}$ -->
      <g style="fill: #262626" transform="translate(295.60774 554.232507) scale(0.5 -0.5)">
       <defs>
        <path id="CMR17-32" d="M 2669 989 
L 2554 989 
C 2490 536 2438 459 2413 420 
C 2381 369 1920 369 1830 369 
L 602 369 
C 832 619 1280 1072 1824 1597 
C 2214 1967 2669 2402 2669 3035 
C 2669 3790 2067 4224 1395 4224 
C 691 4224 262 3604 262 3030 
C 262 2780 448 2748 525 2748 
C 589 2748 781 2787 781 3010 
C 781 3207 614 3264 525 3264 
C 486 3264 448 3258 422 3245 
C 544 3790 915 4058 1306 4058 
C 1862 4058 2227 3617 2227 3035 
C 2227 2479 1901 2000 1536 1584 
L 262 146 
L 262 0 
L 2515 0 
L 2669 989 
z
" transform="scale(0.015625)"/>
       </defs>
       <use xlink:href="#CMR17-30" transform="scale(0.996264)"/>
       <use xlink:href="#CMMI12-3a" transform="translate(45.690477 0) scale(0.996264)"/>
       <use xlink:href="#CMR17-32" transform="translate(72.787654 0) scale(0.996264)"/>
      </g>
     </g>
    </g>
    <g id="xtick_3">
     <g id="line2d_3">
      <g>
       <use xlink:href="#m00b09e6e4f" x="477.409091" y="512.64" style="fill: #262626; stroke: #262626; stroke-width: 0.8"/>
      </g>
     </g>
     <g id="text_3">
      <!-- $\mathdefault{0.4}$ -->
      <g style="fill: #262626" transform="translate(447.789558 554.232507) scale(0.5 -0.5)">
       <defs>
        <path id="CMR17-34" d="M 2150 4122 
C 2150 4256 2144 4256 2029 4256 
L 128 1254 
L 128 1088 
L 1779 1088 
L 1779 457 
C 1779 224 1766 160 1318 160 
L 1197 160 
L 1197 0 
C 1402 0 1747 0 1965 0 
C 2182 0 2528 0 2733 0 
L 2733 160 
L 2611 160 
C 2163 160 2150 224 2150 457 
L 2150 1088 
L 2803 1088 
L 2803 1254 
L 2150 1254 
L 2150 4122 
z
M 1798 3703 
L 1798 1254 
L 256 1254 
L 1798 3703 
z
" transform="scale(0.015625)"/>
       </defs>
       <use xlink:href="#CMR17-30" transform="scale(0.996264)"/>
       <use xlink:href="#CMMI12-3a" transform="translate(45.690477 0) scale(0.996264)"/>
       <use xlink:href="#CMR17-34" transform="translate(72.787654 0) scale(0.996264)"/>
      </g>
     </g>
    </g>
    <g id="xtick_4">
     <g id="line2d_4">
      <g>
       <use xlink:href="#m00b09e6e4f" x="629.590909" y="512.64" style="fill: #262626; stroke: #262626; stroke-width: 0.8"/>
      </g>
     </g>
     <g id="text_4">
      <!-- $\mathdefault{0.6}$ -->
      <g style="fill: #262626" transform="translate(599.971376 554.232507) scale(0.5 -0.5)">
       <defs>
        <path id="CMR17-36" d="M 678 2176 
C 678 3690 1395 4032 1811 4032 
C 1946 4032 2272 4009 2400 3776 
C 2298 3776 2106 3776 2106 3553 
C 2106 3381 2246 3323 2336 3323 
C 2394 3323 2566 3348 2566 3560 
C 2566 3954 2246 4179 1805 4179 
C 1043 4179 243 3390 243 1984 
C 243 253 966 -128 1478 -128 
C 2099 -128 2688 427 2688 1283 
C 2688 2081 2170 2662 1517 2662 
C 1126 2662 838 2407 678 1960 
L 678 2176 
z
M 1478 25 
C 691 25 691 1200 691 1436 
C 691 1896 909 2560 1504 2560 
C 1613 2560 1926 2560 2138 2120 
C 2253 1870 2253 1609 2253 1289 
C 2253 944 2253 690 2118 434 
C 1978 171 1773 25 1478 25 
z
" transform="scale(0.015625)"/>
       </defs>
       <use xlink:href="#CMR17-30" transform="scale(0.996264)"/>
       <use xlink:href="#CMMI12-3a" transform="translate(45.690477 0) scale(0.996264)"/>
       <use xlink:href="#CMR17-36" transform="translate(72.787654 0) scale(0.996264)"/>
      </g>
     </g>
    </g>
    <g id="xtick_5">
     <g id="line2d_5">
      <g>
       <use xlink:href="#m00b09e6e4f" x="781.772727" y="512.64" style="fill: #262626; stroke: #262626; stroke-width: 0.8"/>
      </g>
     </g>
     <g id="text_5">
      <!-- $\mathdefault{0.8}$ -->
      <g style="fill: #262626" transform="translate(752.153194 554.232507) scale(0.5 -0.5)">
       <defs>
        <path id="CMR17-38" d="M 1741 2264 
C 2144 2467 2554 2773 2554 3263 
C 2554 3841 1990 4179 1472 4179 
C 890 4179 378 3759 378 3180 
C 378 3021 416 2747 666 2505 
C 730 2442 998 2251 1171 2130 
C 883 1983 211 1634 211 934 
C 211 279 838 -128 1459 -128 
C 2144 -128 2720 362 2720 1010 
C 2720 1590 2330 1857 2074 2029 
L 1741 2264 
z
M 902 2822 
C 851 2854 595 3051 595 3351 
C 595 3739 998 4032 1459 4032 
C 1965 4032 2336 3676 2336 3262 
C 2336 2669 1670 2331 1638 2331 
C 1632 2331 1626 2331 1574 2370 
L 902 2822 
z
M 2080 1519 
C 2176 1449 2483 1240 2483 851 
C 2483 381 2010 25 1472 25 
C 890 25 448 438 448 940 
C 448 1443 838 1862 1280 2060 
L 2080 1519 
z
" transform="scale(0.015625)"/>
       </defs>
       <use xlink:href="#CMR17-30" transform="scale(0.996264)"/>
       <use xlink:href="#CMMI12-3a" transform="translate(45.690477 0) scale(0.996264)"/>
       <use xlink:href="#CMR17-38" transform="translate(72.787654 0) scale(0.996264)"/>
      </g>
     </g>
    </g>
    <g id="xtick_6">
     <g id="line2d_6">
      <g>
       <use xlink:href="#m00b09e6e4f" x="933.954545" y="512.64" style="fill: #262626; stroke: #262626; stroke-width: 0.8"/>
      </g>
     </g>
     <g id="text_6">
      <!-- $\mathdefault{1.0}$ -->
      <g style="fill: #262626" transform="translate(904.335013 554.232507) scale(0.5 -0.5)">
       <defs>
        <path id="CMR17-31" d="M 1702 4058 
C 1702 4192 1696 4192 1606 4192 
C 1357 3916 979 3827 621 3827 
C 602 3827 570 3827 563 3808 
C 557 3795 557 3782 557 3648 
C 755 3648 1088 3686 1344 3839 
L 1344 461 
C 1344 236 1331 160 781 160 
L 589 160 
L 589 0 
C 896 0 1216 0 1523 0 
C 1830 0 2150 0 2458 0 
L 2458 160 
L 2266 160 
C 1715 160 1702 230 1702 458 
L 1702 4058 
z
" transform="scale(0.015625)"/>
       </defs>
       <use xlink:href="#CMR17-31" transform="scale(0.996264)"/>
       <use xlink:href="#CMMI12-3a" transform="translate(45.690477 0) scale(0.996264)"/>
       <use xlink:href="#CMR17-30" transform="translate(72.787654 0) scale(0.996264)"/>
      </g>
     </g>
    </g>
    <g id="text_7">
     <!-- $\alpha$ -->
     <g style="fill: #262626" transform="translate(537.988322 602.514098) scale(0.5 -0.5)">
      <defs>
       <path id="CMMI12-b" d="M 2963 1616 
C 2963 2235 2611 2815 1933 2815 
C 1094 2815 256 1902 256 996 
C 256 441 602 -64 1254 -64 
C 1651 -64 2125 89 2579 472 
C 2669 115 2867 -64 3142 -64 
C 3488 -64 3661 294 3661 377 
C 3661 434 3616 434 3597 434 
C 3546 434 3539 415 3520 364 
C 3462 204 3315 64 3162 64 
C 2963 64 2963 472 2963 862 
C 3616 1641 3770 2446 3770 2452 
C 3770 2510 3718 2510 3699 2510 
C 3642 2510 3635 2491 3610 2376 
C 3526 2095 3360 1597 2963 1073 
L 2963 1616 
z
M 2560 626 
C 1997 121 1491 64 1267 64 
C 813 64 685 466 685 766 
C 685 1040 826 1692 1024 2044 
C 1286 2491 1645 2688 1933 2688 
C 2554 2688 2554 1877 2554 1341 
C 2554 1182 2547 1016 2547 856 
C 2547 728 2554 696 2560 626 
z
" transform="scale(0.015625)"/>
      </defs>
      <use xlink:href="#CMMI12-b" transform="scale(0.996264)"/>
     </g>
    </g>
   </g>
   <g id="matplotlib.axis_2">
    <g id="ytick_1">
     <g id="line2d_7">
      <defs>
       <path id="mc6574d3e87" d="M 0 0 
L -3.5 0 
" style="stroke: #262626; stroke-width: 0.8"/>
      </defs>
      <g>
       <use xlink:href="#mc6574d3e87" x="135" y="422.541888" style="fill: #262626; stroke: #262626; stroke-width: 0.8"/>
      </g>
     </g>
     <g id="text_8">
      <!-- $\mathdefault{100}$ -->
      <g style="fill: #262626" transform="translate(59.464284 439.838142) scale(0.5 -0.5)">
       <use xlink:href="#CMR17-31" transform="scale(0.996264)"/>
       <use xlink:href="#CMR17-30" transform="translate(45.690477 0) scale(0.996264)"/>
       <use xlink:href="#CMR17-30" transform="translate(91.380954 0) scale(0.996264)"/>
      </g>
     </g>
    </g>
    <g id="ytick_2">
     <g id="line2d_8">
      <g>
       <use xlink:href="#mc6574d3e87" x="135" y="311.454592" style="fill: #262626; stroke: #262626; stroke-width: 0.8"/>
      </g>
     </g>
     <g id="text_9">
      <!-- $\mathdefault{200}$ -->
      <g style="fill: #262626" transform="translate(59.464284 328.750846) scale(0.5 -0.5)">
       <use xlink:href="#CMR17-32" transform="scale(0.996264)"/>
       <use xlink:href="#CMR17-30" transform="translate(45.690477 0) scale(0.996264)"/>
       <use xlink:href="#CMR17-30" transform="translate(91.380954 0) scale(0.996264)"/>
      </g>
     </g>
    </g>
    <g id="ytick_3">
     <g id="line2d_9">
      <g>
       <use xlink:href="#mc6574d3e87" x="135" y="200.367296" style="fill: #262626; stroke: #262626; stroke-width: 0.8"/>
      </g>
     </g>
     <g id="text_10">
      <!-- $\mathdefault{300}$ -->
      <g style="fill: #262626" transform="translate(59.464284 217.66355) scale(0.5 -0.5)">
       <defs>
        <path id="CMR17-33" d="M 1414 2157 
C 1984 2157 2234 1662 2234 1090 
C 2234 320 1824 25 1453 25 
C 1114 25 563 194 390 693 
C 422 680 454 680 486 680 
C 640 680 755 782 755 948 
C 755 1133 614 1216 486 1216 
C 378 1216 211 1165 211 926 
C 211 335 787 -128 1466 -128 
C 2176 -128 2720 430 2720 1085 
C 2720 1707 2208 2157 1600 2227 
C 2086 2328 2554 2756 2554 3329 
C 2554 3820 2048 4179 1472 4179 
C 890 4179 378 3829 378 3329 
C 378 3110 544 3072 627 3072 
C 762 3072 877 3155 877 3321 
C 877 3486 762 3569 627 3569 
C 602 3569 570 3569 544 3557 
C 730 3959 1235 4032 1459 4032 
C 1683 4032 2106 3925 2106 3320 
C 2106 3143 2080 2828 1862 2550 
C 1670 2304 1453 2304 1242 2284 
C 1210 2284 1062 2269 1037 2269 
C 992 2263 966 2257 966 2208 
C 966 2163 973 2157 1101 2157 
L 1414 2157 
z
" transform="scale(0.015625)"/>
       </defs>
       <use xlink:href="#CMR17-33" transform="scale(0.996264)"/>
       <use xlink:href="#CMR17-30" transform="translate(45.690477 0) scale(0.996264)"/>
       <use xlink:href="#CMR17-30" transform="translate(91.380954 0) scale(0.996264)"/>
      </g>
     </g>
    </g>
    <g id="ytick_4">
     <g id="line2d_10">
      <g>
       <use xlink:href="#mc6574d3e87" x="135" y="89.28" style="fill: #262626; stroke: #262626; stroke-width: 0.8"/>
      </g>
     </g>
     <g id="text_11">
      <!-- $\mathdefault{400}$ -->
      <g style="fill: #262626" transform="translate(59.464284 106.576254) scale(0.5 -0.5)">
       <use xlink:href="#CMR17-34" transform="scale(0.996264)"/>
       <use xlink:href="#CMR17-30" transform="translate(45.690477 0) scale(0.996264)"/>
       <use xlink:href="#CMR17-30" transform="translate(91.380954 0) scale(0.996264)"/>
      </g>
     </g>
    </g>
    <g id="text_12">
     <!-- $\theta(\min\{\tau,400\})$ -->
     <g style="fill: #262626" transform="translate(43.010984 440.852112) rotate(-90) scale(0.5 -0.5)">
      <defs>
       <path id="CMMI12-12" d="M 2835 3200 
C 2835 3850 2630 4480 2106 4480 
C 1210 4480 256 2615 256 1216 
C 256 923 320 -64 992 -64 
C 1862 -64 2835 1756 2835 3200 
z
M 896 2304 
C 992 2679 1126 3214 1382 3665 
C 1594 4047 1818 4352 2099 4352 
C 2310 4352 2451 4174 2451 3564 
C 2451 3334 2432 3017 2246 2304 
L 896 2304 
z
M 2202 2113 
C 2042 1490 1907 1088 1677 687 
C 1491 363 1267 64 998 64 
C 800 64 640 217 640 846 
C 640 1260 742 1693 845 2113 
L 2202 2113 
z
" transform="scale(0.015625)"/>
       <path id="CMR17-28" d="M 1958 -1561 
C 1958 -1555 1958 -1542 1939 -1523 
C 1645 -1224 858 -407 858 1581 
C 858 3569 1632 4379 1946 4697 
C 1946 4704 1958 4717 1958 4736 
C 1958 4755 1939 4768 1914 4768 
C 1843 4768 1299 4296 986 3594 
C 666 2887 576 2199 576 1588 
C 576 1128 621 351 1005 -471 
C 1312 -1135 1837 -1600 1914 -1600 
C 1946 -1600 1958 -1587 1958 -1561 
z
" transform="scale(0.015625)"/>
       <path id="CMR17-6d" d="M 4326 1933 
C 4326 2252 4269 2790 3507 2790 
C 3072 2790 2771 2496 2656 2151 
L 2650 2151 
C 2573 2676 2195 2790 1837 2790 
C 1331 2790 1069 2400 973 2144 
L 966 2144 
L 966 2790 
L 211 2720 
L 211 2554 
C 589 2554 646 2515 646 2208 
L 646 428 
C 646 184 621 153 211 153 
L 211 -13 
C 365 0 646 0 813 0 
C 979 0 1267 0 1421 -13 
L 1421 153 
C 1011 153 986 178 986 428 
L 986 1658 
C 986 2247 1344 2688 1792 2688 
C 2266 2688 2317 2266 2317 1958 
L 2317 428 
C 2317 184 2291 153 1882 153 
L 1882 -13 
C 2035 0 2317 0 2483 0 
C 2650 0 2938 0 3091 -13 
L 3091 153 
C 2682 153 2656 178 2656 428 
L 2656 1658 
C 2656 2247 3014 2688 3462 2688 
C 3936 2688 3987 2266 3987 1958 
L 3987 428 
C 3987 184 3962 153 3552 153 
L 3552 -13 
C 3706 0 3987 0 4154 0 
C 4320 0 4608 0 4762 -13 
L 4762 153 
C 4352 153 4326 178 4326 428 
L 4326 1933 
z
" transform="scale(0.015625)"/>
       <path id="CMR17-69" d="M 992 3909 
C 992 4049 877 4170 730 4170 
C 589 4170 467 4056 467 3909 
C 467 3769 582 3648 730 3648 
C 870 3648 992 3763 992 3909 
z
M 243 2706 
L 243 2541 
C 602 2541 653 2502 653 2197 
L 653 427 
C 653 184 627 153 218 153 
L 218 -13 
C 371 0 646 0 806 0 
C 960 0 1222 0 1370 -13 
L 1370 153 
C 992 153 979 191 979 420 
L 979 2776 
L 243 2706 
z
" transform="scale(0.015625)"/>
       <path id="CMR17-6e" d="M 2656 1933 
C 2656 2259 2592 2790 1837 2790 
C 1331 2790 1069 2400 973 2144 
L 966 2144 
L 966 2790 
L 211 2720 
L 211 2554 
C 589 2554 646 2515 646 2208 
L 646 428 
C 646 184 621 153 211 153 
L 211 -13 
C 365 0 646 0 813 0 
C 979 0 1267 0 1421 -13 
L 1421 153 
C 1011 153 986 178 986 428 
L 986 1658 
C 986 2247 1344 2688 1792 2688 
C 2266 2688 2317 2266 2317 1958 
L 2317 428 
C 2317 184 2291 153 1882 153 
L 1882 -13 
C 2035 0 2317 0 2483 0 
C 2650 0 2938 0 3091 -13 
L 3091 153 
C 2682 153 2656 178 2656 428 
L 2656 1933 
z
" transform="scale(0.015625)"/>
       <path id="CMSY10-66" d="M 1811 3962 
C 1811 4221 1978 4634 2675 4634 
C 2707 4642 2733 4672 2733 4718 
C 2733 4800 2682 4800 2611 4800 
C 1971 4800 1389 4471 1382 3993 
L 1382 2522 
C 1382 2270 1382 2063 1126 1851 
C 902 1664 659 1664 518 1664 
C 486 1657 461 1626 461 1580 
C 461 1504 499 1504 563 1504 
C 986 1504 1293 1274 1363 960 
C 1382 890 1382 877 1382 646 
L 1382 -621 
C 1382 -890 1382 -1094 1690 -1338 
C 1939 -1530 2362 -1600 2611 -1600 
C 2682 -1600 2733 -1600 2733 -1530 
C 2733 -1453 2694 -1453 2630 -1453 
C 2227 -1453 1914 -1248 1830 -920 
C 1811 -863 1811 -850 1811 -619 
L 1811 727 
C 1811 1023 1760 1132 1555 1337 
C 1421 1472 1235 1536 1056 1587 
C 1581 1736 1811 2034 1811 2409 
L 1811 3962 
z
" transform="scale(0.015625)"/>
       <path id="CMMI12-1c" d="M 1837 2408 
L 2899 2408 
C 2982 2408 3194 2408 3194 2612 
C 3194 2752 3072 2752 2957 2752 
L 1197 2752 
C 1050 2752 832 2752 538 2440 
C 371 2255 166 1917 166 1879 
C 166 1841 198 1828 237 1828 
C 282 1828 288 1847 320 1885 
C 653 2408 986 2408 1146 2408 
L 1677 2408 
L 1011 223 
C 979 127 979 114 979 95 
C 979 25 1024 -64 1152 -64 
C 1350 -64 1382 108 1402 203 
L 1837 2408 
z
" transform="scale(0.015625)"/>
       <path id="CMMI12-3b" d="M 1248 -31 
C 1248 343 1126 619 864 619 
C 659 619 557 453 557 313 
C 557 172 653 0 870 0 
C 954 0 1024 26 1082 83 
C 1094 96 1101 96 1107 96 
C 1120 96 1120 5 1120 -27 
C 1120 -240 1082 -659 710 -1080 
C 640 -1157 640 -1170 640 -1183 
C 640 -1216 672 -1248 704 -1248 
C 755 -1248 1248 -771 1248 -31 
z
" transform="scale(0.015625)"/>
       <path id="CMSY10-67" d="M 1382 -772 
C 1382 -1029 1216 -1440 518 -1440 
C 486 -1448 461 -1476 461 -1521 
C 461 -1600 531 -1600 589 -1600 
C 1210 -1600 1805 -1287 1811 -802 
L 1811 655 
C 1811 904 1811 1109 2067 1319 
C 2291 1504 2534 1504 2675 1504 
C 2707 1511 2733 1542 2733 1588 
C 2733 1664 2694 1664 2630 1664 
C 2208 1664 1901 1896 1830 2214 
C 1811 2284 1811 2297 1811 2531 
L 1811 3811 
C 1811 4083 1811 4289 1504 4535 
C 1248 4735 806 4800 589 4800 
C 531 4800 461 4800 461 4720 
C 461 4646 499 4646 563 4646 
C 966 4646 1280 4439 1363 4110 
C 1382 4052 1382 4039 1382 3807 
L 1382 2452 
C 1382 2155 1434 2045 1638 1839 
C 1773 1703 1958 1638 2138 1587 
C 1613 1439 1382 1143 1382 771 
L 1382 -772 
z
" transform="scale(0.015625)"/>
       <path id="CMR17-29" d="M 1683 1581 
C 1683 2040 1638 2817 1254 3639 
C 947 4303 422 4768 346 4768 
C 326 4768 301 4761 301 4729 
C 301 4717 307 4710 314 4697 
C 621 4378 1402 3568 1402 1584 
C 1402 -407 627 -1217 314 -1537 
C 307 -1549 301 -1556 301 -1568 
C 301 -1600 326 -1600 346 -1600 
C 416 -1600 960 -1128 1274 -426 
C 1594 281 1683 969 1683 1581 
z
" transform="scale(0.015625)"/>
      </defs>
      <use xlink:href="#CMMI12-12" transform="scale(0.996264)"/>
      <use xlink:href="#CMR17-28" transform="translate(48.169508 0) scale(0.996264)"/>
      <use xlink:href="#CMR17-6d" transform="translate(83.450276 0) scale(0.996264)"/>
      <use xlink:href="#CMR17-69" transform="translate(160.369865 0) scale(0.996264)"/>
      <use xlink:href="#CMR17-6e" transform="translate(185.240924 0) scale(0.996264)"/>
      <use xlink:href="#CMSY10-66" transform="translate(236.136294 0) scale(0.996264)"/>
      <use xlink:href="#CMMI12-1c" transform="translate(285.949677 0) scale(0.996264)"/>
      <use xlink:href="#CMMI12-3b" transform="translate(334.021407 0) scale(0.996264)"/>
      <use xlink:href="#CMR17-34" transform="translate(377.722989 0) scale(0.996264)"/>
      <use xlink:href="#CMR17-30" transform="translate(423.413466 0) scale(0.996264)"/>
      <use xlink:href="#CMR17-30" transform="translate(469.103943 0) scale(0.996264)"/>
      <use xlink:href="#CMSY10-67" transform="translate(514.79442 0) scale(0.996264)"/>
      <use xlink:href="#CMR17-29" transform="translate(564.607803 0) scale(0.996264)"/>
     </g>
    </g>
   </g>
   <g id="PathCollection_1">
    <defs>
     <path id="m7cda7d6d59" d="M 0 8.660254 
C 2.296726 8.660254 4.499694 7.747755 6.123724 6.123724 
C 7.747755 4.499694 8.660254 2.296726 8.660254 0 
C 8.660254 -2.296726 7.747755 -4.499694 6.123724 -6.123724 
C 4.499694 -7.747755 2.296726 -8.660254 0 -8.660254 
C -2.296726 -8.660254 -4.499694 -7.747755 -6.123724 -6.123724 
C -7.747755 -4.499694 -8.660254 -2.296726 -8.660254 0 
C -8.660254 2.296726 -7.747755 4.499694 -6.123724 6.123724 
C -4.499694 7.747755 -2.296726 8.660254 0 8.660254 
z
" style="stroke: #1f77b4"/>
    </defs>
    <g clip-path="url(#pbfbd18caa0)">
     <use xlink:href="#m7cda7d6d59" x="249.136364" y="157.383651" style="fill: #1f77b4; stroke: #1f77b4"/>
     <use xlink:href="#m7cda7d6d59" x="325.227273" y="199.684819" style="fill: #1f77b4; stroke: #1f77b4"/>
     <use xlink:href="#m7cda7d6d59" x="401.318182" y="228.634451" style="fill: #1f77b4; stroke: #1f77b4"/>
     <use xlink:href="#m7cda7d6d59" x="477.409091" y="250.0675" style="fill: #1f77b4; stroke: #1f77b4"/>
     <use xlink:href="#m7cda7d6d59" x="553.5" y="267.096613" style="fill: #1f77b4; stroke: #1f77b4"/>
     <use xlink:href="#m7cda7d6d59" x="629.590909" y="281.513294" style="fill: #1f77b4; stroke: #1f77b4"/>
     <use xlink:href="#m7cda7d6d59" x="705.681818" y="294.436429" style="fill: #1f77b4; stroke: #1f77b4"/>
     <use xlink:href="#m7cda7d6d59" x="781.772727" y="306.585586" style="fill: #1f77b4; stroke: #1f77b4"/>
     <use xlink:href="#m7cda7d6d59" x="857.863636" y="318.436792" style="fill: #1f77b4; stroke: #1f77b4"/>
     <use xlink:href="#m7cda7d6d59" x="933.954545" y="330.263651" style="fill: #1f77b4; stroke: #1f77b4"/>
    </g>
   </g>
   <g id="PathCollection_2">
    <defs>
     <path id="mc820e72694" d="M 0 8.660254 
C 2.296726 8.660254 4.499694 7.747755 6.123724 6.123724 
C 7.747755 4.499694 8.660254 2.296726 8.660254 0 
C 8.660254 -2.296726 7.747755 -4.499694 6.123724 -6.123724 
C 4.499694 -7.747755 2.296726 -8.660254 0 -8.660254 
C -2.296726 -8.660254 -4.499694 -7.747755 -6.123724 -6.123724 
C -7.747755 -4.499694 -8.660254 -2.296726 -8.660254 0 
C -8.660254 2.296726 -7.747755 4.499694 -6.123724 6.123724 
C -4.499694 7.747755 -2.296726 8.660254 0 8.660254 
z
" style="stroke: #2ca02c"/>
    </defs>
    <g clip-path="url(#pbfbd18caa0)">
     <use xlink:href="#mc820e72694" x="249.136364" y="207.432857" style="fill: #2ca02c; stroke: #2ca02c"/>
     <use xlink:href="#mc820e72694" x="325.227273" y="266.643076" style="fill: #2ca02c; stroke: #2ca02c"/>
     <use xlink:href="#mc820e72694" x="401.318182" y="303.037341" style="fill: #2ca02c; stroke: #2ca02c"/>
     <use xlink:href="#mc820e72694" x="477.409091" y="328.852438" style="fill: #2ca02c; stroke: #2ca02c"/>
     <use xlink:href="#mc820e72694" x="553.5" y="349.357236" style="fill: #2ca02c; stroke: #2ca02c"/>
     <use xlink:href="#mc820e72694" x="629.590909" y="367.114271" style="fill: #2ca02c; stroke: #2ca02c"/>
     <use xlink:href="#mc820e72694" x="705.681818" y="388.973168" style="fill: #2ca02c; stroke: #2ca02c"/>
     <use xlink:href="#mc820e72694" x="781.772727" y="405.72528" style="fill: #2ca02c; stroke: #2ca02c"/>
     <use xlink:href="#mc820e72694" x="857.863636" y="418.976102" style="fill: #2ca02c; stroke: #2ca02c"/>
     <use xlink:href="#mc820e72694" x="933.954545" y="429.756647" style="fill: #2ca02c; stroke: #2ca02c"/>
    </g>
   </g>
   <g id="PathCollection_3">
    <defs>
     <path id="mfdc5cafcb7" d="M 0 8.660254 
C 2.296726 8.660254 4.499694 7.747755 6.123724 6.123724 
C 7.747755 4.499694 8.660254 2.296726 8.660254 0 
C 8.660254 -2.296726 7.747755 -4.499694 6.123724 -6.123724 
C 4.499694 -7.747755 2.296726 -8.660254 0 -8.660254 
C -2.296726 -8.660254 -4.499694 -7.747755 -6.123724 -6.123724 
C -7.747755 -4.499694 -8.660254 -2.296726 -8.660254 0 
C -8.660254 2.296726 -7.747755 4.499694 -6.123724 6.123724 
C -4.499694 7.747755 -2.296726 8.660254 0 8.660254 
z
" style="stroke: #8c564b"/>
    </defs>
    <g clip-path="url(#pbfbd18caa0)">
     <use xlink:href="#mfdc5cafcb7" x="249.136364" y="245.786893" style="fill: #8c564b; stroke: #8c564b"/>
     <use xlink:href="#mfdc5cafcb7" x="325.227273" y="311.586912" style="fill: #8c564b; stroke: #8c564b"/>
     <use xlink:href="#mfdc5cafcb7" x="401.318182" y="349.309122" style="fill: #8c564b; stroke: #8c564b"/>
     <use xlink:href="#mfdc5cafcb7" x="477.409091" y="375.512032" style="fill: #8c564b; stroke: #8c564b"/>
     <use xlink:href="#mfdc5cafcb7" x="553.5" y="402.904011" style="fill: #8c564b; stroke: #8c564b"/>
     <use xlink:href="#mfdc5cafcb7" x="629.590909" y="422.763603" style="fill: #8c564b; stroke: #8c564b"/>
     <use xlink:href="#mfdc5cafcb7" x="705.681818" y="437.316952" style="fill: #8c564b; stroke: #8c564b"/>
     <use xlink:href="#mfdc5cafcb7" x="781.772727" y="448.488333" style="fill: #8c564b; stroke: #8c564b"/>
     <use xlink:href="#mfdc5cafcb7" x="857.863636" y="457.340659" style="fill: #8c564b; stroke: #8c564b"/>
     <use xlink:href="#mfdc5cafcb7" x="933.954545" y="464.516773" style="fill: #8c564b; stroke: #8c564b"/>
    </g>
   </g>
   <g id="PathCollection_4">
    <defs>
     <path id="mc5be65e19c" d="M 0 8.660254 
C 2.296726 8.660254 4.499694 7.747755 6.123724 6.123724 
C 7.747755 4.499694 8.660254 2.296726 8.660254 0 
C 8.660254 -2.296726 7.747755 -4.499694 6.123724 -6.123724 
C 4.499694 -7.747755 2.296726 -8.660254 0 -8.660254 
C -2.296726 -8.660254 -4.499694 -7.747755 -6.123724 -6.123724 
C -7.747755 -4.499694 -8.660254 -2.296726 -8.660254 0 
C -8.660254 2.296726 -7.747755 4.499694 -6.123724 6.123724 
C -4.499694 7.747755 -2.296726 8.660254 0 8.660254 
z
" style="stroke: #7f7f7f"/>
    </defs>
    <g clip-path="url(#pbfbd18caa0)">
     <use xlink:href="#mc5be65e19c" x="249.136364" y="276.111403" style="fill: #7f7f7f; stroke: #7f7f7f"/>
     <use xlink:href="#mc5be65e19c" x="325.227273" y="343.841928" style="fill: #7f7f7f; stroke: #7f7f7f"/>
     <use xlink:href="#mc5be65e19c" x="401.318182" y="380.831214" style="fill: #7f7f7f; stroke: #7f7f7f"/>
     <use xlink:href="#mc5be65e19c" x="477.409091" y="414.04508" style="fill: #7f7f7f; stroke: #7f7f7f"/>
     <use xlink:href="#mc5be65e19c" x="553.5" y="435.673536" style="fill: #7f7f7f; stroke: #7f7f7f"/>
     <use xlink:href="#mc5be65e19c" x="629.590909" y="450.567661" style="fill: #7f7f7f; stroke: #7f7f7f"/>
     <use xlink:href="#mc5be65e19c" x="705.681818" y="461.504144" style="fill: #7f7f7f; stroke: #7f7f7f"/>
     <use xlink:href="#mc5be65e19c" x="781.772727" y="469.886131" style="fill: #7f7f7f; stroke: #7f7f7f"/>
     <use xlink:href="#mc5be65e19c" x="857.863636" y="476.526934" style="fill: #7f7f7f; stroke: #7f7f7f"/>
     <use xlink:href="#mc5be65e19c" x="933.954545" y="481.91146" style="fill: #7f7f7f; stroke: #7f7f7f"/>
    </g>
   </g>
   <g id="PathCollection_5">
    <defs>
     <path id="m9332421168" d="M 0 8.660254 
C 2.296726 8.660254 4.499694 7.747755 6.123724 6.123724 
C 7.747755 4.499694 8.660254 2.296726 8.660254 0 
C 8.660254 -2.296726 7.747755 -4.499694 6.123724 -6.123724 
C 4.499694 -7.747755 2.296726 -8.660254 0 -8.660254 
C -2.296726 -8.660254 -4.499694 -7.747755 -6.123724 -6.123724 
C -7.747755 -4.499694 -8.660254 -2.296726 -8.660254 0 
C -8.660254 2.296726 -7.747755 4.499694 -6.123724 6.123724 
C -4.499694 7.747755 -2.296726 8.660254 0 8.660254 
z
" style="stroke: #17becf"/>
    </defs>
    <g clip-path="url(#pbfbd18caa0)">
     <use xlink:href="#m9332421168" x="249.136364" y="300.69599" style="fill: #17becf; stroke: #17becf"/>
     <use xlink:href="#m9332421168" x="325.227273" y="368.114191" style="fill: #17becf; stroke: #17becf"/>
     <use xlink:href="#m9332421168" x="401.318182" y="410.241572" style="fill: #17becf; stroke: #17becf"/>
     <use xlink:href="#m9332421168" x="477.409091" y="438.020671" style="fill: #17becf; stroke: #17becf"/>
     <use xlink:href="#m9332421168" x="553.5" y="455.338305" style="fill: #17becf; stroke: #17becf"/>
     <use xlink:href="#m9332421168" x="629.590909" y="467.259491" style="fill: #17becf; stroke: #17becf"/>
     <use xlink:href="#m9332421168" x="705.681818" y="476.010283" style="fill: #17becf; stroke: #17becf"/>
     <use xlink:href="#m9332421168" x="781.772727" y="482.717023" style="fill: #17becf; stroke: #17becf"/>
     <use xlink:href="#m9332421168" x="857.863636" y="488.029334" style="fill: #17becf; stroke: #17becf"/>
     <use xlink:href="#m9332421168" x="933.954545" y="492.347568" style="fill: #17becf; stroke: #17becf"/>
    </g>
   </g>
   <g id="line2d_11">
    <path d="M 173.045455 89.28 
L 180.654545 99.229269 
L 188.263636 107.688485 
L 195.872727 115.441287 
L 203.481818 122.609115 
L 211.090909 129.291269 
L 218.7 135.568027 
L 226.309091 141.50347 
L 233.918182 147.148011 
L 241.527273 152.540661 
L 249.136364 157.71104 
L 256.745455 162.681151 
L 264.354545 167.466936 
L 271.963636 172.079623 
L 279.572727 176.526891 
L 287.181818 180.813857 
L 294.790909 184.943908 
L 302.4 188.919386 
L 310.009091 192.742142 
L 317.618182 196.413982 
L 325.227273 199.936994 
L 332.836364 203.313798 
L 340.445455 206.547705 
L 348.054545 209.642812 
L 355.663636 212.604035 
L 363.272727 215.437095 
L 370.881818 218.148461 
L 378.490909 220.74526 
L 386.1 223.235169 
L 393.709091 225.626278 
L 401.318182 227.926953 
L 408.927273 230.145687 
L 416.536364 232.290951 
L 424.145455 234.371055 
L 431.754545 236.394004 
L 439.363636 238.367384 
L 446.972727 240.298241 
L 454.581818 242.192994 
L 462.190909 244.057354 
L 469.8 245.89627 
L 477.409091 247.713883 
L 485.018182 249.513517 
L 492.627273 251.297672 
L 500.236364 253.068045 
L 507.845455 254.82557 
L 515.454545 256.570471 
L 523.063636 258.302328 
L 530.672727 260.020161 
L 538.281818 261.722527 
L 545.890909 263.407615 
L 553.5 265.07336 
L 561.109091 266.717554 
L 568.718182 268.337957 
L 576.327273 269.932416 
L 583.936364 271.498969 
L 591.545455 273.035946 
L 599.154545 274.54207 
L 606.763636 276.01653 
L 614.372727 277.459057 
L 621.981818 278.869974 
L 629.590909 280.250232 
L 637.2 281.601428 
L 644.809091 282.925804 
L 652.418182 284.22622 
L 660.027273 285.50611 
L 667.636364 286.769418 
L 675.245455 288.020509 
L 682.854545 289.26406 
L 690.463636 290.504938 
L 698.072727 291.748051 
L 705.681818 292.998196 
L 713.290909 294.259887 
L 720.9 295.537179 
L 728.509091 296.833485 
L 736.118182 298.151406 
L 743.727273 299.492549 
L 751.336364 300.857379 
L 758.945455 302.245075 
L 766.554545 303.65343 
L 774.163636 305.078771 
L 781.772727 306.515942 
L 789.381818 307.958334 
L 796.990909 309.397984 
L 804.6 310.825753 
L 812.209091 312.231601 
L 819.818182 313.604954 
L 827.427273 314.935204 
L 835.036364 316.212332 
L 842.645455 317.427683 
L 850.254545 318.574903 
L 857.863636 319.651062 
L 865.472727 320.65797 
L 873.081818 321.603713 
L 880.690909 322.504421 
L 888.3 323.386294 
L 895.909091 324.287898 
L 903.518182 325.262759 
L 911.127273 326.38227 
L 918.736364 327.73893 
L 926.345455 329.449947 
L 933.954545 331.661216 
" clip-path="url(#pbfbd18caa0)" style="fill: none; stroke: #1f77b4; stroke-width: 5; stroke-linecap: round"/>
   </g>
   <g id="line2d_12">
    <path d="M 173.045455 89.28 
L 180.654545 106.159429 
L 188.263636 122.214774 
L 195.872727 136.66747 
L 203.481818 149.737475 
L 211.090909 161.614337 
L 218.7 172.460744 
L 226.309091 182.415781 
L 233.918182 191.597882 
L 241.527273 200.107512 
L 249.136364 208.029591 
L 256.745455 215.435671 
L 264.354545 222.385877 
L 271.963636 228.930651 
L 279.572727 235.112276 
L 287.181818 240.966233 
L 294.790909 246.522377 
L 302.4 251.805961 
L 310.009091 256.838515 
L 317.618182 261.638595 
L 325.227273 266.22241 
L 332.836364 270.604352 
L 340.445455 274.797419 
L 348.054545 278.813559 
L 355.663636 282.663942 
L 363.272727 286.359163 
L 370.881818 289.909387 
L 378.490909 293.32445 
L 386.1 296.613922 
L 393.709091 299.787129 
L 401.318182 302.853156 
L 408.927273 305.820829 
L 416.536364 308.698675 
L 424.145455 311.494882 
L 431.754545 314.217244 
L 439.363636 316.873112 
L 446.972727 319.469343 
L 454.581818 322.012248 
L 462.190909 324.507555 
L 469.8 326.960375 
L 477.409091 329.37518 
L 485.018182 331.75579 
L 492.627273 334.105369 
L 500.236364 336.42644 
L 507.845455 338.720904 
L 515.454545 340.990071 
L 523.063636 343.234707 
L 530.672727 345.455081 
L 538.281818 347.651032 
L 545.890909 349.82203 
L 553.5 351.967254 
L 561.109091 354.085666 
L 568.718182 356.176092 
L 576.327273 358.237301 
L 583.936364 360.268082 
L 591.545455 362.26732 
L 599.154545 364.234069 
L 606.763636 366.16761 
L 614.372727 368.067513 
L 621.981818 369.933679 
L 629.590909 371.766373 
L 637.2 373.566253 
L 644.809091 375.334376 
L 652.418182 377.072192 
L 660.027273 378.78153 
L 667.636364 380.464564 
L 675.245455 382.123765 
L 682.854545 383.761839 
L 690.463636 385.381656 
L 698.072727 386.986165 
L 705.681818 388.578293 
L 713.290909 390.160845 
L 720.9 391.736392 
L 728.509091 393.307156 
L 736.118182 394.874899 
L 743.727273 396.440809 
L 751.336364 398.005401 
L 758.945455 399.568423 
L 766.554545 401.128783 
L 774.163636 402.684502 
L 781.772727 404.232684 
L 789.381818 405.769536 
L 796.990909 407.290414 
L 804.6 408.789928 
L 812.209091 410.262102 
L 819.818182 411.700588 
L 827.427273 413.098966 
L 835.036364 414.451113 
L 842.645455 415.751666 
L 850.254545 416.996584 
L 857.863636 418.183814 
L 865.472727 419.314078 
L 873.081818 420.391779 
L 880.690909 421.426054 
L 888.3 422.431964 
L 895.909091 423.431838 
L 903.518182 424.456791 
L 911.127273 425.548407 
L 918.736364 426.760608 
L 926.345455 428.161715 
L 933.954545 429.836712 
" clip-path="url(#pbfbd18caa0)" style="fill: none; stroke: #2ca02c; stroke-width: 5; stroke-linecap: round"/>
   </g>
   <g id="line2d_13">
    <path d="M 173.045455 89.28 
L 180.654545 113.140874 
L 188.263636 135.169551 
L 195.872727 154.748934 
L 203.481818 172.198619 
L 211.090909 187.799238 
L 218.7 201.796463 
L 226.309091 214.404692 
L 233.918182 225.810447 
L 241.527273 236.175479 
L 249.136364 245.639614 
L 256.745455 254.323345 
L 264.354545 262.330182 
L 271.963636 269.748785 
L 279.572727 276.654882 
L 287.181818 283.112994 
L 294.790909 289.177977 
L 302.4 294.896394 
L 310.009091 300.307731 
L 317.618182 305.445469 
L 325.227273 310.338022 
L 332.836364 315.009556 
L 340.445455 319.480697 
L 348.054545 323.769134 
L 355.663636 327.89014 
L 363.272727 331.857005 
L 370.881818 335.681405 
L 378.490909 339.373695 
L 386.1 342.943158 
L 393.709091 346.398201 
L 401.318182 349.746504 
L 408.927273 352.995144 
L 416.536364 356.150676 
L 424.145455 359.219201 
L 431.754545 362.206408 
L 439.363636 365.117597 
L 446.972727 367.957698 
L 454.581818 370.731278 
L 462.190909 373.442536 
L 469.8 376.095309 
L 477.409091 378.693059 
L 485.018182 381.238876 
L 492.627273 383.735478 
L 500.236364 386.185209 
L 507.845455 388.590048 
L 515.454545 390.951622 
L 523.063636 393.271217 
L 530.672727 395.549804 
L 538.281818 397.788061 
L 545.890909 399.986406 
L 553.5 402.145024 
L 561.109091 404.263913 
L 568.718182 406.342914 
L 576.327273 408.381758 
L 583.936364 410.380103 
L 591.545455 412.337577 
L 599.154545 414.253815 
L 606.763636 416.128501 
L 614.372727 417.961395 
L 621.981818 419.752369 
L 629.590909 421.501428 
L 637.2 423.208735 
L 644.809091 424.874616 
L 652.418182 426.499575 
L 660.027273 428.08429 
L 667.636364 429.629607 
L 675.245455 431.136526 
L 682.854545 432.60618 
L 690.463636 434.039807 
L 698.072727 435.438719 
L 705.681818 436.80426 
L 713.290909 438.137769 
L 720.9 439.440529 
L 728.509091 440.713725 
L 736.118182 441.958394 
L 743.727273 443.175383 
L 751.336364 444.365305 
L 758.945455 445.528509 
L 766.554545 446.665049 
L 774.163636 447.774673 
L 781.772727 448.856817 
L 789.381818 449.910624 
L 796.990909 450.934976 
L 804.6 451.928549 
L 812.209091 452.889893 
L 819.818182 453.817545 
L 827.427273 454.710164 
L 835.036364 455.566703 
L 842.645455 456.386621 
L 850.254545 457.170127 
L 857.863636 457.918467 
L 865.472727 458.634254 
L 873.081818 459.321844 
L 880.690909 459.987747 
L 888.3 460.6411 
L 895.909091 461.294167 
L 903.518182 461.962897 
L 911.127273 462.667519 
L 918.736364 463.43318 
L 926.345455 464.290621 
L 933.954545 465.27688 
" clip-path="url(#pbfbd18caa0)" style="fill: none; stroke: #8c564b; stroke-width: 5; stroke-linecap: round"/>
   </g>
   <g id="line2d_14">
    <path d="M 173.045455 89.28 
L 180.654545 121.122204 
L 188.263636 148.136372 
L 195.872727 171.892673 
L 203.481818 192.811291 
L 211.090909 211.264626 
L 218.7 227.581754 
L 226.309091 242.052563 
L 233.918182 254.931594 
L 241.527273 266.441596 
L 249.136364 276.7768 
L 256.745455 286.10594 
L 264.354545 294.575024 
L 271.963636 302.309875 
L 279.572727 309.418447 
L 287.181818 315.992945 
L 294.790909 322.111736 
L 302.4 327.841092 
L 310.009091 333.236753 
L 317.618182 338.345338 
L 325.227273 343.205609 
L 332.836364 347.849594 
L 340.445455 352.30359 
L 348.054545 356.589046 
L 355.663636 360.723342 
L 363.272727 364.720472 
L 370.881818 368.591639 
L 378.490909 372.345762 
L 386.1 375.989927 
L 393.709091 379.529755 
L 401.318182 382.969721 
L 408.927273 386.313427 
L 416.536364 389.563814 
L 424.145455 392.723346 
L 431.754545 395.794156 
L 439.363636 398.77816 
L 446.972727 401.677144 
L 454.581818 404.492832 
L 462.190909 407.226933 
L 469.8 409.881174 
L 477.409091 412.457318 
L 485.018182 414.957177 
L 492.627273 417.382608 
L 500.236364 419.735514 
L 507.845455 422.017835 
L 515.454545 424.231531 
L 523.063636 426.378577 
L 530.672727 428.460944 
L 538.281818 430.480584 
L 545.890909 432.439424 
L 553.5 434.339346 
L 561.109091 436.18218 
L 568.718182 437.969697 
L 576.327273 439.703596 
L 583.936364 441.385505 
L 591.545455 443.016971 
L 599.154545 444.599464 
L 606.763636 446.134368 
L 614.372727 447.622987 
L 621.981818 449.066544 
L 629.590909 450.466184 
L 637.2 451.822975 
L 644.809091 453.137911 
L 652.418182 454.411919 
L 660.027273 455.645858 
L 667.636364 456.840528 
L 675.245455 457.996672 
L 682.854545 459.114982 
L 690.463636 460.196105 
L 698.072727 461.24065 
L 705.681818 462.249195 
L 713.290909 463.222295 
L 720.9 464.160491 
L 728.509091 465.064326 
L 736.118182 465.934352 
L 743.727273 466.77115 
L 751.336364 467.575346 
L 758.945455 468.347628 
L 766.554545 469.088772 
L 774.163636 469.799664 
L 781.772727 470.481322 
L 789.381818 471.134928 
L 796.990909 471.761852 
L 804.6 472.363678 
L 812.209091 472.942228 
L 819.818182 473.499585 
L 827.427273 474.038101 
L 835.036364 474.560411 
L 842.645455 475.06942 
L 850.254545 475.568282 
L 857.863636 476.06036 
L 865.472727 476.549155 
L 873.081818 477.038205 
L 880.690909 477.530949 
L 888.3 478.030537 
L 895.909091 478.539587 
L 903.518182 479.05988 
L 911.127273 479.591964 
L 918.736364 480.134681 
L 926.345455 480.684572 
L 933.954545 481.235175 
" clip-path="url(#pbfbd18caa0)" style="fill: none; stroke: #7f7f7f; stroke-width: 5; stroke-linecap: round"/>
   </g>
   <g id="line2d_15">
    <path d="M 173.045455 89.28 
L 180.654545 125.552793 
L 188.263636 157.126396 
L 195.872727 184.65938 
L 203.481818 208.673292 
L 211.090909 229.632817 
L 218.7 247.950695 
L 226.309091 263.992323 
L 233.918182 278.08006 
L 241.527273 290.497226 
L 249.136364 301.491836 
L 256.745455 311.280054 
L 264.354545 320.049402 
L 271.963636 327.961724 
L 279.572727 335.15592 
L 287.181818 341.750461 
L 294.790909 347.845704 
L 302.4 353.526006 
L 310.009091 358.861658 
L 317.618182 363.910649 
L 325.227273 368.720267 
L 332.836364 373.328549 
L 340.445455 377.765587 
L 348.054545 382.05471 
L 355.663636 386.21354 
L 363.272727 390.254929 
L 370.881818 394.187799 
L 378.490909 398.017886 
L 386.1 401.748385 
L 393.709091 405.380524 
L 401.318182 408.914056 
L 408.927273 412.347687 
L 416.536364 415.679438 
L 424.145455 418.906954 
L 431.754545 422.027759 
L 439.363636 425.039469 
L 446.972727 427.939959 
L 454.581818 430.727495 
L 462.190909 433.400838 
L 469.8 435.959313 
L 477.409091 438.402854 
L 485.018182 440.732031 
L 492.627273 442.948053 
L 500.236364 445.052758 
L 507.845455 447.048587 
L 515.454545 448.938551 
L 523.063636 450.72618 
L 530.672727 452.415476 
L 538.281818 454.010849 
L 545.890909 455.517058 
L 553.5 456.939141 
L 561.109091 458.282354 
L 568.718182 459.552096 
L 576.327273 460.753847 
L 583.936364 461.893103 
L 591.545455 462.97531 
L 599.154545 464.005809 
L 606.763636 464.989776 
L 614.372727 465.932177 
L 621.981818 466.837715 
L 629.590909 467.710798 
L 637.2 468.555501 
L 644.809091 469.375539 
L 652.418182 470.17425 
L 660.027273 470.954577 
L 667.636364 471.71907 
L 675.245455 472.46988 
L 682.854545 473.208774 
L 690.463636 473.93715 
L 698.072727 474.656064 
L 705.681818 475.366258 
L 713.290909 476.068203 
L 720.9 476.76214 
L 728.509091 477.448133 
L 736.118182 478.126121 
L 743.727273 478.795979 
L 751.336364 479.457572 
L 758.945455 480.110819 
L 766.554545 480.75575 
L 774.163636 481.392551 
L 781.772727 482.021617 
L 789.381818 482.643576 
L 796.990909 483.259312 
L 804.6 483.869954 
L 812.209091 484.476853 
L 819.818182 485.081518 
L 827.427273 485.685514 
L 835.036364 486.290317 
L 842.645455 486.897112 
L 850.254545 487.506523 
L 857.863636 488.118276 
L 865.472727 488.730759 
L 873.081818 489.340496 
L 880.690909 489.941494 
L 888.3 490.524461 
L 895.909091 491.075875 
L 903.518182 491.576875 
L 911.127273 492.001971 
L 918.736364 492.317524 
L 926.345455 492.48 
L 933.954545 492.43394 
" clip-path="url(#pbfbd18caa0)" style="fill: none; stroke: #17becf; stroke-width: 5; stroke-linecap: round"/>
   </g>
   <g id="patch_3">
    <path d="M 135 512.64 
L 135 69.12 
" style="fill: none; stroke: #262626; stroke-width: 0.8; stroke-linejoin: miter; stroke-linecap: square"/>
   </g>
   <g id="patch_4">
    <path d="M 972 512.64 
L 972 69.12 
" style="fill: none; stroke: #262626; stroke-width: 0.8; stroke-linejoin: miter; stroke-linecap: square"/>
   </g>
   <g id="patch_5">
    <path d="M 135 512.64 
L 972 512.64 
" style="fill: none; stroke: #262626; stroke-width: 0.8; stroke-linejoin: miter; stroke-linecap: square"/>
   </g>
   <g id="patch_6">
    <path d="M 135 69.12 
L 972 69.12 
" style="fill: none; stroke: #262626; stroke-width: 0.8; stroke-linejoin: miter; stroke-linecap: square"/>
   </g>
  </g>
 </g>
 <defs>
  <clipPath id="pbfbd18caa0">
   <rect x="135" y="69.12" width="837" height="443.52"/>
  </clipPath>
 </defs>
</svg>
