<?xml version="1.0" encoding="utf-8" standalone="no"?>
<!DOCTYPE svg PUBLIC "-//W3C//DTD SVG 1.1//EN"
  "http://www.w3.org/Graphics/SVG/1.1/DTD/svg11.dtd">
<svg xmlns:xlink="http://www.w3.org/1999/xlink" width="1080pt" height="576pt" viewBox="0 0 1080 576" xmlns="http://www.w3.org/2000/svg" version="1.1">
 <metadata>
  <rdf:RDF xmlns:dc="http://purl.org/dc/elements/1.1/" xmlns:cc="http://creativecommons.org/ns#" xmlns:rdf="http://www.w3.org/1999/02/22-rdf-syntax-ns#">
   <cc:Work>
    <dc:type rdf:resource="http://purl.org/dc/dcmitype/StillImage"/>
    <dc:date>2024-07-25T13:26:33.030776</dc:date>
    <dc:format>image/svg+xml</dc:format>
    <dc:creator>
     <cc:Agent>
      <dc:title>Matplotlib v3.9.0, https://matplotlib.org/</dc:title>
     </cc:Agent>
    </dc:creator>
   </cc:Work>
  </rdf:RDF>
 </metadata>
 <defs>
  <style type="text/css">*{stroke-linejoin: round; stroke-linecap: butt}</style>
 </defs>
 <g id="figure_1">
  <g id="patch_1">
   <path d="M 0 576 
L 1080 576 
L 1080 0 
L 0 0 
z
" style="fill: #ffffff"/>
  </g>
  <g id="axes_1">
   <g id="patch_2">
    <path d="M 74.943439 510.031054 
L 1047.6 510.031054 
L 1047.6 32.4 
L 74.943439 32.4 
z
" style="fill: #ffffff"/>
   </g>
   <g id="matplotlib.axis_1">
    <g id="xtick_1">
     <g id="line2d_1">
      <defs>
       <path id="m745d2ba1d3" d="M 0 0 
L 0 3.5 
" style="stroke: #262626; stroke-width: 0.8"/>
      </defs>
      <g>
       <use xlink:href="#m745d2ba1d3" x="74.943439" y="510.031054" style="fill: #262626; stroke: #262626; stroke-width: 0.8"/>
      </g>
     </g>
     <g id="text_1">
      <!-- $\mathdefault{0.0}$ -->
      <g style="fill: #262626" transform="translate(57.17172 537.78655) scale(0.3 -0.3)">
       <defs>
        <path id="CMR17-30" d="M 2688 2025 
C 2688 2416 2682 3080 2413 3591 
C 2176 4039 1798 4198 1466 4198 
C 1158 4198 768 4058 525 3597 
C 269 3118 243 2524 243 2025 
C 243 1661 250 1106 448 619 
C 723 -39 1216 -128 1466 -128 
C 1760 -128 2208 -7 2470 600 
C 2662 1042 2688 1559 2688 2025 
z
M 1466 -26 
C 1056 -26 813 325 723 812 
C 653 1188 653 1738 653 2096 
C 653 2588 653 2997 736 3387 
C 858 3929 1216 4096 1466 4096 
C 1728 4096 2067 3923 2189 3400 
C 2272 3036 2278 2607 2278 2096 
C 2278 1680 2278 1169 2202 792 
C 2067 95 1690 -26 1466 -26 
z
" transform="scale(0.015625)"/>
        <path id="CMMI12-3a" d="M 1178 307 
C 1178 492 1024 619 870 619 
C 685 619 557 466 557 313 
C 557 128 710 0 864 0 
C 1050 0 1178 153 1178 307 
z
" transform="scale(0.015625)"/>
       </defs>
       <use xlink:href="#CMR17-30" transform="scale(0.996264)"/>
       <use xlink:href="#CMMI12-3a" transform="translate(45.690477 0) scale(0.996264)"/>
       <use xlink:href="#CMR17-30" transform="translate(72.787654 0) scale(0.996264)"/>
      </g>
     </g>
    </g>
    <g id="xtick_2">
     <g id="line2d_2">
      <g>
       <use xlink:href="#m745d2ba1d3" x="260.211356" y="510.031054" style="fill: #262626; stroke: #262626; stroke-width: 0.8"/>
      </g>
     </g>
     <g id="text_2">
      <!-- $\mathdefault{0.2}$ -->
      <g style="fill: #262626" transform="translate(242.439636 537.78655) scale(0.3 -0.3)">
       <defs>
        <path id="CMR17-32" d="M 2669 989 
L 2554 989 
C 2490 536 2438 459 2413 420 
C 2381 369 1920 369 1830 369 
L 602 369 
C 832 619 1280 1072 1824 1597 
C 2214 1967 2669 2402 2669 3035 
C 2669 3790 2067 4224 1395 4224 
C 691 4224 262 3604 262 3030 
C 262 2780 448 2748 525 2748 
C 589 2748 781 2787 781 3010 
C 781 3207 614 3264 525 3264 
C 486 3264 448 3258 422 3245 
C 544 3790 915 4058 1306 4058 
C 1862 4058 2227 3617 2227 3035 
C 2227 2479 1901 2000 1536 1584 
L 262 146 
L 262 0 
L 2515 0 
L 2669 989 
z
" transform="scale(0.015625)"/>
       </defs>
       <use xlink:href="#CMR17-30" transform="scale(0.996264)"/>
       <use xlink:href="#CMMI12-3a" transform="translate(45.690477 0) scale(0.996264)"/>
       <use xlink:href="#CMR17-32" transform="translate(72.787654 0) scale(0.996264)"/>
      </g>
     </g>
    </g>
    <g id="xtick_3">
     <g id="line2d_3">
      <g>
       <use xlink:href="#m745d2ba1d3" x="445.479272" y="510.031054" style="fill: #262626; stroke: #262626; stroke-width: 0.8"/>
      </g>
     </g>
     <g id="text_3">
      <!-- $\mathdefault{0.4}$ -->
      <g style="fill: #262626" transform="translate(427.707552 537.78655) scale(0.3 -0.3)">
       <defs>
        <path id="CMR17-34" d="M 2150 4122 
C 2150 4256 2144 4256 2029 4256 
L 128 1254 
L 128 1088 
L 1779 1088 
L 1779 457 
C 1779 224 1766 160 1318 160 
L 1197 160 
L 1197 0 
C 1402 0 1747 0 1965 0 
C 2182 0 2528 0 2733 0 
L 2733 160 
L 2611 160 
C 2163 160 2150 224 2150 457 
L 2150 1088 
L 2803 1088 
L 2803 1254 
L 2150 1254 
L 2150 4122 
z
M 1798 3703 
L 1798 1254 
L 256 1254 
L 1798 3703 
z
" transform="scale(0.015625)"/>
       </defs>
       <use xlink:href="#CMR17-30" transform="scale(0.996264)"/>
       <use xlink:href="#CMMI12-3a" transform="translate(45.690477 0) scale(0.996264)"/>
       <use xlink:href="#CMR17-34" transform="translate(72.787654 0) scale(0.996264)"/>
      </g>
     </g>
    </g>
    <g id="xtick_4">
     <g id="line2d_4">
      <g>
       <use xlink:href="#m745d2ba1d3" x="630.747188" y="510.031054" style="fill: #262626; stroke: #262626; stroke-width: 0.8"/>
      </g>
     </g>
     <g id="text_4">
      <!-- $\mathdefault{0.6}$ -->
      <g style="fill: #262626" transform="translate(612.975469 537.78655) scale(0.3 -0.3)">
       <defs>
        <path id="CMR17-36" d="M 678 2176 
C 678 3690 1395 4032 1811 4032 
C 1946 4032 2272 4009 2400 3776 
C 2298 3776 2106 3776 2106 3553 
C 2106 3381 2246 3323 2336 3323 
C 2394 3323 2566 3348 2566 3560 
C 2566 3954 2246 4179 1805 4179 
C 1043 4179 243 3390 243 1984 
C 243 253 966 -128 1478 -128 
C 2099 -128 2688 427 2688 1283 
C 2688 2081 2170 2662 1517 2662 
C 1126 2662 838 2407 678 1960 
L 678 2176 
z
M 1478 25 
C 691 25 691 1200 691 1436 
C 691 1896 909 2560 1504 2560 
C 1613 2560 1926 2560 2138 2120 
C 2253 1870 2253 1609 2253 1289 
C 2253 944 2253 690 2118 434 
C 1978 171 1773 25 1478 25 
z
" transform="scale(0.015625)"/>
       </defs>
       <use xlink:href="#CMR17-30" transform="scale(0.996264)"/>
       <use xlink:href="#CMMI12-3a" transform="translate(45.690477 0) scale(0.996264)"/>
       <use xlink:href="#CMR17-36" transform="translate(72.787654 0) scale(0.996264)"/>
      </g>
     </g>
    </g>
    <g id="xtick_5">
     <g id="line2d_5">
      <g>
       <use xlink:href="#m745d2ba1d3" x="816.015105" y="510.031054" style="fill: #262626; stroke: #262626; stroke-width: 0.8"/>
      </g>
     </g>
     <g id="text_5">
      <!-- $\mathdefault{0.8}$ -->
      <g style="fill: #262626" transform="translate(798.243385 537.78655) scale(0.3 -0.3)">
       <defs>
        <path id="CMR17-38" d="M 1741 2264 
C 2144 2467 2554 2773 2554 3263 
C 2554 3841 1990 4179 1472 4179 
C 890 4179 378 3759 378 3180 
C 378 3021 416 2747 666 2505 
C 730 2442 998 2251 1171 2130 
C 883 1983 211 1634 211 934 
C 211 279 838 -128 1459 -128 
C 2144 -128 2720 362 2720 1010 
C 2720 1590 2330 1857 2074 2029 
L 1741 2264 
z
M 902 2822 
C 851 2854 595 3051 595 3351 
C 595 3739 998 4032 1459 4032 
C 1965 4032 2336 3676 2336 3262 
C 2336 2669 1670 2331 1638 2331 
C 1632 2331 1626 2331 1574 2370 
L 902 2822 
z
M 2080 1519 
C 2176 1449 2483 1240 2483 851 
C 2483 381 2010 25 1472 25 
C 890 25 448 438 448 940 
C 448 1443 838 1862 1280 2060 
L 2080 1519 
z
" transform="scale(0.015625)"/>
       </defs>
       <use xlink:href="#CMR17-30" transform="scale(0.996264)"/>
       <use xlink:href="#CMMI12-3a" transform="translate(45.690477 0) scale(0.996264)"/>
       <use xlink:href="#CMR17-38" transform="translate(72.787654 0) scale(0.996264)"/>
      </g>
     </g>
    </g>
    <g id="xtick_6">
     <g id="line2d_6">
      <g>
       <use xlink:href="#m745d2ba1d3" x="1001.283021" y="510.031054" style="fill: #262626; stroke: #262626; stroke-width: 0.8"/>
      </g>
     </g>
     <g id="text_6">
      <!-- $\mathdefault{1.0}$ -->
      <g style="fill: #262626" transform="translate(983.511301 537.78655) scale(0.3 -0.3)">
       <defs>
        <path id="CMR17-31" d="M 1702 4058 
C 1702 4192 1696 4192 1606 4192 
C 1357 3916 979 3827 621 3827 
C 602 3827 570 3827 563 3808 
C 557 3795 557 3782 557 3648 
C 755 3648 1088 3686 1344 3839 
L 1344 461 
C 1344 236 1331 160 781 160 
L 589 160 
L 589 0 
C 896 0 1216 0 1523 0 
C 1830 0 2150 0 2458 0 
L 2458 160 
L 2266 160 
C 1715 160 1702 230 1702 458 
L 1702 4058 
z
" transform="scale(0.015625)"/>
       </defs>
       <use xlink:href="#CMR17-31" transform="scale(0.996264)"/>
       <use xlink:href="#CMMI12-3a" transform="translate(45.690477 0) scale(0.996264)"/>
       <use xlink:href="#CMR17-30" transform="translate(72.787654 0) scale(0.996264)"/>
      </g>
     </g>
    </g>
   </g>
   <g id="matplotlib.axis_2">
    <g id="ytick_1">
     <g id="line2d_7">
      <defs>
       <path id="m1a215ccb6d" d="M 0 0 
L -3.5 0 
" style="stroke: #262626; stroke-width: 0.8"/>
      </defs>
      <g>
       <use xlink:href="#m1a215ccb6d" x="74.943439" y="456.686042" style="fill: #262626; stroke: #262626; stroke-width: 0.8"/>
      </g>
     </g>
     <g id="text_7">
      <!-- $\mathdefault{0.2}$ -->
      <g style="fill: #262626" transform="translate(32.4 467.063789) scale(0.3 -0.3)">
       <use xlink:href="#CMR17-30" transform="scale(0.996264)"/>
       <use xlink:href="#CMMI12-3a" transform="translate(45.690477 0) scale(0.996264)"/>
       <use xlink:href="#CMR17-32" transform="translate(72.787654 0) scale(0.996264)"/>
      </g>
     </g>
    </g>
    <g id="ytick_2">
     <g id="line2d_8">
      <g>
       <use xlink:href="#m1a215ccb6d" x="74.943439" y="356.042157" style="fill: #262626; stroke: #262626; stroke-width: 0.8"/>
      </g>
     </g>
     <g id="text_8">
      <!-- $\mathdefault{0.4}$ -->
      <g style="fill: #262626" transform="translate(32.4 366.419904) scale(0.3 -0.3)">
       <use xlink:href="#CMR17-30" transform="scale(0.996264)"/>
       <use xlink:href="#CMMI12-3a" transform="translate(45.690477 0) scale(0.996264)"/>
       <use xlink:href="#CMR17-34" transform="translate(72.787654 0) scale(0.996264)"/>
      </g>
     </g>
    </g>
    <g id="ytick_3">
     <g id="line2d_9">
      <g>
       <use xlink:href="#m1a215ccb6d" x="74.943439" y="255.398272" style="fill: #262626; stroke: #262626; stroke-width: 0.8"/>
      </g>
     </g>
     <g id="text_9">
      <!-- $\mathdefault{0.6}$ -->
      <g style="fill: #262626" transform="translate(32.4 265.77602) scale(0.3 -0.3)">
       <use xlink:href="#CMR17-30" transform="scale(0.996264)"/>
       <use xlink:href="#CMMI12-3a" transform="translate(45.690477 0) scale(0.996264)"/>
       <use xlink:href="#CMR17-36" transform="translate(72.787654 0) scale(0.996264)"/>
      </g>
     </g>
    </g>
    <g id="ytick_4">
     <g id="line2d_10">
      <g>
       <use xlink:href="#m1a215ccb6d" x="74.943439" y="154.754387" style="fill: #262626; stroke: #262626; stroke-width: 0.8"/>
      </g>
     </g>
     <g id="text_10">
      <!-- $\mathdefault{0.8}$ -->
      <g style="fill: #262626" transform="translate(32.4 165.132135) scale(0.3 -0.3)">
       <use xlink:href="#CMR17-30" transform="scale(0.996264)"/>
       <use xlink:href="#CMMI12-3a" transform="translate(45.690477 0) scale(0.996264)"/>
       <use xlink:href="#CMR17-38" transform="translate(72.787654 0) scale(0.996264)"/>
      </g>
     </g>
    </g>
    <g id="ytick_5">
     <g id="line2d_11">
      <g>
       <use xlink:href="#m1a215ccb6d" x="74.943439" y="54.110502" style="fill: #262626; stroke: #262626; stroke-width: 0.8"/>
      </g>
     </g>
     <g id="text_11">
      <!-- $\mathdefault{1.0}$ -->
      <g style="fill: #262626" transform="translate(32.4 64.48825) scale(0.3 -0.3)">
       <use xlink:href="#CMR17-31" transform="scale(0.996264)"/>
       <use xlink:href="#CMMI12-3a" transform="translate(45.690477 0) scale(0.996264)"/>
       <use xlink:href="#CMR17-30" transform="translate(72.787654 0) scale(0.996264)"/>
      </g>
     </g>
    </g>
   </g>
   <g id="line2d_12">
    <path d="M 74.943439 54.110502 
L 173.752995 64.72515 
L 272.56255 75.115898 
L 371.372105 85.287469 
L 470.181661 95.244486 
L 575.166813 105.593789 
L 680.151966 115.7113 
L 785.137119 125.60221 
L 890.122271 135.271593 
L 995.107424 144.724412 
L 1001.283021 145.27382 
L 1001.283021 145.27382 
" clip-path="url(#p2b420a4f70)" style="fill: none; stroke: #393b79; stroke-width: 2; stroke-linecap: round"/>
   </g>
   <g id="line2d_13">
    <path d="M 74.943439 54.110502 
L 124.348217 64.718163 
L 173.752995 75.102218 
L 223.157772 85.267381 
L 272.56255 95.218267 
L 321.967328 104.959393 
L 371.372105 114.495179 
L 426.95248 124.982881 
L 482.532855 135.222201 
L 538.11323 145.219022 
L 593.693605 154.979087 
L 649.27398 164.508004 
L 704.854355 173.811246 
L 760.43473 182.894159 
L 816.015105 191.76196 
L 871.59548 200.419745 
L 927.175854 208.872486 
L 988.931827 218.02984 
L 1001.283021 219.832227 
L 1001.283021 219.832227 
" clip-path="url(#p2b420a4f70)" style="fill: none; stroke: #6b6ecf; stroke-width: 2; stroke-linecap: round"/>
   </g>
   <g id="line2d_14">
    <path d="M 74.943439 54.110502 
L 105.821425 64.055237 
L 136.699411 73.803441 
L 173.752995 85.247329 
L 210.806578 96.420368 
L 247.860161 107.328969 
L 284.913745 117.97939 
L 321.967328 128.377742 
L 359.020911 138.52999 
L 396.074494 148.441959 
L 433.128078 158.119337 
L 470.181661 167.567674 
L 507.235244 176.792392 
L 544.288827 185.798784 
L 581.342411 194.592017 
L 618.395994 203.177135 
L 655.449577 211.559065 
L 692.50316 219.742615 
L 735.732341 229.045617 
L 778.961521 238.092254 
L 822.190702 246.889589 
L 865.419882 255.444494 
L 908.649063 263.763648 
L 951.878243 271.853549 
L 995.107424 279.720513 
L 1001.283021 280.826527 
L 1001.283021 280.826527 
" clip-path="url(#p2b420a4f70)" style="fill: none; stroke: #637939; stroke-width: 2; stroke-linecap: round"/>
   </g>
   <g id="line2d_15">
    <path d="M 74.943439 54.110502 
L 99.645828 64.704225 
L 124.348217 75.074929 
L 149.050606 85.227311 
L 173.752995 95.165966 
L 198.455384 104.895393 
L 223.157772 114.419997 
L 247.860161 123.74409 
L 272.56255 132.871894 
L 297.264939 141.80754 
L 328.142925 152.71303 
L 359.020911 163.332303 
L 389.898897 173.672871 
L 420.776883 183.742047 
L 451.654869 193.546956 
L 482.532855 203.094532 
L 513.410841 212.39153 
L 544.288827 221.444526 
L 575.166813 230.259923 
L 606.044799 238.843958 
L 636.922786 247.202703 
L 667.800772 255.342071 
L 698.678758 263.267819 
L 729.556744 270.985553 
L 760.43473 278.500734 
L 791.312716 285.818677 
L 828.366299 294.347133 
L 865.419882 302.607702 
L 902.473466 310.608797 
L 939.527049 318.35857 
L 976.580632 325.864914 
L 1001.283021 330.737691 
L 1001.283021 330.737691 
" clip-path="url(#p2b420a4f70)" style="fill: none; stroke: #b5cf6b; stroke-width: 2; stroke-linecap: round"/>
   </g>
   <g id="line2d_16">
    <path d="M 74.943439 54.110502 
L 93.470231 64.042175 
L 111.997023 73.777834 
L 130.523814 83.321347 
L 155.226203 95.753682 
L 179.928592 107.859941 
L 204.630981 119.648675 
L 229.33337 131.128214 
L 254.035758 142.306666 
L 278.738147 153.19193 
L 303.440536 163.791693 
L 328.142925 174.113445 
L 352.845314 184.164478 
L 377.547703 193.951891 
L 402.250092 203.482599 
L 426.95248 212.763335 
L 451.654869 221.800655 
L 476.357258 230.600943 
L 501.059647 239.170417 
L 525.762036 247.51513 
L 550.464425 255.640977 
L 575.166813 263.553699 
L 599.869202 271.258886 
L 624.571591 278.76198 
L 649.27398 286.068282 
L 673.976369 293.182954 
L 704.854355 301.814458 
L 735.732341 310.163912 
L 766.610327 318.240531 
L 797.488313 326.053231 
L 828.366299 333.610637 
L 859.244285 340.92109 
L 890.122271 347.99266 
L 921.000257 354.833153 
L 951.878243 361.45012 
L 982.756229 367.850865 
L 1001.283021 371.590474 
L 1001.283021 371.590474 
" clip-path="url(#p2b420a4f70)" style="fill: none; stroke: #8c6d31; stroke-width: 2; stroke-linecap: round"/>
   </g>
   <g id="line2d_17">
    <path d="M 74.943439 54.110502 
L 93.470231 65.997079 
L 111.997023 77.602881 
L 130.523814 88.934542 
L 149.050606 99.998537 
L 167.577398 110.801189 
L 186.104189 121.34867 
L 204.630981 131.64701 
L 223.157772 141.702091 
L 241.684564 151.519661 
L 260.211356 161.105329 
L 278.738147 170.464573 
L 297.264939 179.602743 
L 315.791731 188.525059 
L 334.318522 197.236621 
L 352.845314 205.742406 
L 371.372105 214.047276 
L 389.898897 222.155975 
L 408.425689 230.073139 
L 426.95248 237.803291 
L 445.479272 245.350849 
L 470.181661 255.137663 
L 494.88405 264.617464 
L 519.586439 273.799883 
L 544.288827 282.694248 
L 568.991216 291.309596 
L 593.693605 299.65468 
L 618.395994 307.737978 
L 643.098383 315.567702 
L 667.800772 323.151807 
L 692.50316 330.497998 
L 717.205549 337.613738 
L 741.907938 344.506256 
L 766.610327 351.182556 
L 791.312716 357.649419 
L 816.015105 363.913416 
L 840.717493 369.980911 
L 865.419882 375.858068 
L 896.297868 382.94593 
L 927.175854 389.756957 
L 958.05384 396.301961 
L 988.931827 402.591333 
L 1001.283021 405.037754 
L 1001.283021 405.037754 
" clip-path="url(#p2b420a4f70)" style="fill: none; stroke: #e7cb94; stroke-width: 2; stroke-linecap: round"/>
   </g>
   <g id="line2d_18">
    <path d="M 74.943439 54.110502 
L 93.470231 67.941665 
L 111.997023 81.392673 
L 130.523814 94.473976 
L 149.050606 107.195734 
L 167.577398 119.567831 
L 186.104189 131.599876 
L 204.630981 143.301216 
L 223.157772 154.68094 
L 241.684564 165.747889 
L 260.211356 176.510659 
L 278.738147 186.977611 
L 297.264939 197.156874 
L 315.791731 207.056357 
L 334.318522 216.683749 
L 352.845314 226.046529 
L 371.372105 235.151969 
L 389.898897 244.007144 
L 408.425689 252.618931 
L 426.95248 260.994019 
L 445.479272 269.138916 
L 464.006064 277.059947 
L 482.532855 284.763266 
L 501.059647 292.254856 
L 519.586439 299.540538 
L 538.11323 306.62597 
L 556.640022 313.516656 
L 575.166813 320.217949 
L 593.693605 326.735055 
L 612.220397 333.073036 
L 636.922786 341.253529 
L 661.625174 349.135612 
L 686.327563 356.73017 
L 711.029952 364.047692 
L 735.732341 371.098284 
L 760.43473 377.891683 
L 785.137119 384.437271 
L 809.839507 390.744088 
L 834.541896 396.820843 
L 859.244285 402.675929 
L 883.946674 408.317431 
L 908.649063 413.753142 
L 933.351452 418.990568 
L 958.05384 424.036942 
L 988.931827 430.086835 
L 1001.283021 432.429195 
L 1001.283021 432.429195 
" clip-path="url(#p2b420a4f70)" style="fill: none; stroke: #ad494a; stroke-width: 2; stroke-linecap: round"/>
   </g>
   <g id="line2d_19">
    <path d="M 74.943439 54.110502 
L 87.294634 64.676495 
L 99.645828 75.020636 
L 111.997023 85.147583 
L 124.348217 95.061897 
L 136.699411 104.768042 
L 149.050606 114.270389 
L 161.4018 123.573218 
L 173.752995 132.680716 
L 186.104189 141.596987 
L 198.455384 150.326044 
L 210.806578 158.87182 
L 229.33337 171.355225 
L 247.860161 183.447534 
L 266.386953 195.160999 
L 284.913745 206.50749 
L 303.440536 217.498504 
L 321.967328 228.145177 
L 340.494119 238.458298 
L 359.020911 248.448316 
L 377.547703 258.125354 
L 396.074494 267.499217 
L 414.601286 276.579404 
L 433.128078 285.375115 
L 451.654869 293.895263 
L 470.181661 302.148481 
L 488.708452 310.143132 
L 507.235244 317.887315 
L 525.762036 325.38888 
L 544.288827 332.655425 
L 562.815619 339.694315 
L 581.342411 346.512682 
L 599.869202 353.117434 
L 618.395994 359.515264 
L 636.922786 365.712655 
L 655.449577 371.715885 
L 673.976369 377.531039 
L 692.50316 383.164009 
L 717.205549 390.401076 
L 741.907938 397.337423 
L 766.610327 403.985546 
L 791.312716 410.357421 
L 816.015105 416.464528 
L 840.717493 422.317868 
L 865.419882 427.927986 
L 890.122271 433.304988 
L 914.82466 438.458561 
L 939.527049 443.397989 
L 964.229438 448.13217 
L 988.931827 452.669634 
L 1001.283021 454.867164 
L 1001.283021 454.867164 
" clip-path="url(#p2b420a4f70)" style="fill: none; stroke: #e7969c; stroke-width: 2; stroke-linecap: round"/>
   </g>
   <g id="line2d_20">
    <path d="M 74.943439 54.110502 
L 87.294634 65.973805 
L 99.645828 77.557432 
L 111.997023 88.867977 
L 124.348217 99.911878 
L 136.699411 110.695422 
L 149.050606 121.224745 
L 161.4018 131.505842 
L 173.752995 141.544564 
L 186.104189 151.346625 
L 198.455384 160.917604 
L 210.806578 170.262949 
L 223.157772 179.387979 
L 235.508967 188.297889 
L 247.860161 196.997749 
L 260.211356 205.492511 
L 272.56255 213.787012 
L 284.913745 221.88597 
L 297.264939 229.793998 
L 309.616133 237.515595 
L 321.967328 245.055157 
L 334.318522 252.416975 
L 352.845314 263.135572 
L 371.372105 273.477379 
L 389.898897 283.45564 
L 408.425689 293.083136 
L 426.95248 302.372196 
L 445.479272 311.334719 
L 464.006064 319.982182 
L 482.532855 328.325661 
L 501.059647 336.375842 
L 519.586439 344.143035 
L 538.11323 351.637189 
L 556.640022 358.8679 
L 575.166813 365.844431 
L 593.693605 372.575715 
L 612.220397 379.070375 
L 630.747188 385.336729 
L 649.27398 391.382801 
L 667.800772 397.216336 
L 686.327563 402.844805 
L 704.854355 408.275416 
L 723.381146 413.515126 
L 741.907938 418.570644 
L 760.43473 423.448445 
L 785.137119 429.686499 
L 809.839507 435.633897 
L 834.541896 441.304183 
L 859.244285 446.710269 
L 883.946674 451.864465 
L 908.649063 456.778506 
L 933.351452 461.463584 
L 958.05384 465.930366 
L 982.756229 470.189023 
L 1001.283021 473.252285 
L 1001.283021 473.252285 
" clip-path="url(#p2b420a4f70)" style="fill: none; stroke: #a55194; stroke-width: 2; stroke-linecap: round"/>
   </g>
   <g id="line2d_21">
    <path d="M 74.943439 54.110502 
L 87.294634 67.265996 
L 99.645828 80.077571 
L 111.997023 92.554216 
L 124.348217 104.704689 
L 136.699411 116.537517 
L 149.050606 128.061003 
L 161.4018 139.283234 
L 173.752995 150.212086 
L 186.104189 160.855229 
L 198.455384 171.220132 
L 210.806578 181.314069 
L 223.157772 191.144123 
L 235.508967 200.717194 
L 247.860161 210.039999 
L 260.211356 219.119082 
L 272.56255 227.960812 
L 284.913745 236.571397 
L 297.264939 244.956878 
L 309.616133 253.12314 
L 321.967328 261.075914 
L 334.318522 268.820782 
L 346.669717 276.363178 
L 359.020911 283.708396 
L 371.372105 290.861591 
L 383.7233 297.827782 
L 396.074494 304.611858 
L 408.425689 311.21858 
L 420.776883 317.652585 
L 439.303675 326.989593 
L 457.830466 335.962862 
L 476.357258 344.586564 
L 494.88405 352.874316 
L 513.410841 360.839206 
L 531.937633 368.493811 
L 550.464425 375.850218 
L 568.991216 382.920045 
L 587.518008 389.714456 
L 606.044799 396.244181 
L 624.571591 402.519529 
L 643.098383 408.550411 
L 661.625174 414.346351 
L 680.151966 419.916501 
L 698.678758 425.269657 
L 717.205549 430.414272 
L 735.732341 435.358471 
L 754.259133 440.110061 
L 772.785924 444.676545 
L 791.312716 449.065135 
L 816.015105 454.651801 
L 840.717493 459.950185 
L 865.419882 464.975163 
L 890.122271 469.740843 
L 914.82466 474.260604 
L 939.527049 478.547137 
L 964.229438 482.612476 
L 988.931827 486.468035 
L 1001.283021 488.320552 
L 1001.283021 488.320552 
" clip-path="url(#p2b420a4f70)" style="fill: none; stroke: #de9ed6; stroke-width: 2; stroke-linecap: round"/>
   </g>
   <g id="patch_3">
    <path d="M 74.943439 510.031054 
L 74.943439 32.4 
" style="fill: none; stroke: #262626; stroke-width: 0.8; stroke-linejoin: miter; stroke-linecap: square"/>
   </g>
   <g id="patch_4">
    <path d="M 74.943439 510.031054 
L 1047.6 510.031054 
" style="fill: none; stroke: #262626; stroke-width: 0.8; stroke-linejoin: miter; stroke-linecap: square"/>
   </g>
  </g>
 </g>
 <defs>
  <clipPath id="p2b420a4f70">
   <rect x="74.943439" y="32.4" width="972.656561" height="477.631054"/>
  </clipPath>
 </defs>
</svg>
