<?xml version="1.0" encoding="utf-8" standalone="no"?>
<!DOCTYPE svg PUBLIC "-//W3C//DTD SVG 1.1//EN"
  "http://www.w3.org/Graphics/SVG/1.1/DTD/svg11.dtd">
<svg xmlns:xlink="http://www.w3.org/1999/xlink" width="1080pt" height="576pt" viewBox="0 0 1080 576" xmlns="http://www.w3.org/2000/svg" version="1.1">
 <metadata>
  <rdf:RDF xmlns:dc="http://purl.org/dc/elements/1.1/" xmlns:cc="http://creativecommons.org/ns#" xmlns:rdf="http://www.w3.org/1999/02/22-rdf-syntax-ns#">
   <cc:Work>
    <dc:type rdf:resource="http://purl.org/dc/dcmitype/StillImage"/>
    <dc:date>2024-07-25T13:57:43.225698</dc:date>
    <dc:format>image/svg+xml</dc:format>
    <dc:creator>
     <cc:Agent>
      <dc:title>Matplotlib v3.9.0, https://matplotlib.org/</dc:title>
     </cc:Agent>
    </dc:creator>
   </cc:Work>
  </rdf:RDF>
 </metadata>
 <defs>
  <style type="text/css">*{stroke-linejoin: round; stroke-linecap: butt}</style>
 </defs>
 <g id="figure_1">
  <g id="patch_1">
   <path d="M 0 576 
L 1080 576 
L 1080 0 
L 0 0 
z
" style="fill: #ffffff"/>
  </g>
  <g id="axes_1">
   <g id="patch_2">
    <path d="M 74.943439 510.031054 
L 1047.6 510.031054 
L 1047.6 32.4 
L 74.943439 32.4 
z
" style="fill: #ffffff"/>
   </g>
   <g id="matplotlib.axis_1">
    <g id="xtick_1">
     <g id="line2d_1">
      <defs>
       <path id="mb8b2d670fc" d="M 0 0 
L 0 3.5 
" style="stroke: #262626; stroke-width: 0.8"/>
      </defs>
      <g>
       <use xlink:href="#mb8b2d670fc" x="74.943439" y="510.031054" style="fill: #262626; stroke: #262626; stroke-width: 0.8"/>
      </g>
     </g>
     <g id="text_1">
      <!-- $\mathdefault{0.0}$ -->
      <g style="fill: #262626" transform="translate(57.17172 537.78655) scale(0.3 -0.3)">
       <defs>
        <path id="CMR17-30" d="M 2688 2025 
C 2688 2416 2682 3080 2413 3591 
C 2176 4039 1798 4198 1466 4198 
C 1158 4198 768 4058 525 3597 
C 269 3118 243 2524 243 2025 
C 243 1661 250 1106 448 619 
C 723 -39 1216 -128 1466 -128 
C 1760 -128 2208 -7 2470 600 
C 2662 1042 2688 1559 2688 2025 
z
M 1466 -26 
C 1056 -26 813 325 723 812 
C 653 1188 653 1738 653 2096 
C 653 2588 653 2997 736 3387 
C 858 3929 1216 4096 1466 4096 
C 1728 4096 2067 3923 2189 3400 
C 2272 3036 2278 2607 2278 2096 
C 2278 1680 2278 1169 2202 792 
C 2067 95 1690 -26 1466 -26 
z
" transform="scale(0.015625)"/>
        <path id="CMMI12-3a" d="M 1178 307 
C 1178 492 1024 619 870 619 
C 685 619 557 466 557 313 
C 557 128 710 0 864 0 
C 1050 0 1178 153 1178 307 
z
" transform="scale(0.015625)"/>
       </defs>
       <use xlink:href="#CMR17-30" transform="scale(0.996264)"/>
       <use xlink:href="#CMMI12-3a" transform="translate(45.690477 0) scale(0.996264)"/>
       <use xlink:href="#CMR17-30" transform="translate(72.787654 0) scale(0.996264)"/>
      </g>
     </g>
    </g>
    <g id="xtick_2">
     <g id="line2d_2">
      <g>
       <use xlink:href="#mb8b2d670fc" x="260.211356" y="510.031054" style="fill: #262626; stroke: #262626; stroke-width: 0.8"/>
      </g>
     </g>
     <g id="text_2">
      <!-- $\mathdefault{0.2}$ -->
      <g style="fill: #262626" transform="translate(242.439636 537.78655) scale(0.3 -0.3)">
       <defs>
        <path id="CMR17-32" d="M 2669 989 
L 2554 989 
C 2490 536 2438 459 2413 420 
C 2381 369 1920 369 1830 369 
L 602 369 
C 832 619 1280 1072 1824 1597 
C 2214 1967 2669 2402 2669 3035 
C 2669 3790 2067 4224 1395 4224 
C 691 4224 262 3604 262 3030 
C 262 2780 448 2748 525 2748 
C 589 2748 781 2787 781 3010 
C 781 3207 614 3264 525 3264 
C 486 3264 448 3258 422 3245 
C 544 3790 915 4058 1306 4058 
C 1862 4058 2227 3617 2227 3035 
C 2227 2479 1901 2000 1536 1584 
L 262 146 
L 262 0 
L 2515 0 
L 2669 989 
z
" transform="scale(0.015625)"/>
       </defs>
       <use xlink:href="#CMR17-30" transform="scale(0.996264)"/>
       <use xlink:href="#CMMI12-3a" transform="translate(45.690477 0) scale(0.996264)"/>
       <use xlink:href="#CMR17-32" transform="translate(72.787654 0) scale(0.996264)"/>
      </g>
     </g>
    </g>
    <g id="xtick_3">
     <g id="line2d_3">
      <g>
       <use xlink:href="#mb8b2d670fc" x="445.479272" y="510.031054" style="fill: #262626; stroke: #262626; stroke-width: 0.8"/>
      </g>
     </g>
     <g id="text_3">
      <!-- $\mathdefault{0.4}$ -->
      <g style="fill: #262626" transform="translate(427.707552 537.78655) scale(0.3 -0.3)">
       <defs>
        <path id="CMR17-34" d="M 2150 4122 
C 2150 4256 2144 4256 2029 4256 
L 128 1254 
L 128 1088 
L 1779 1088 
L 1779 457 
C 1779 224 1766 160 1318 160 
L 1197 160 
L 1197 0 
C 1402 0 1747 0 1965 0 
C 2182 0 2528 0 2733 0 
L 2733 160 
L 2611 160 
C 2163 160 2150 224 2150 457 
L 2150 1088 
L 2803 1088 
L 2803 1254 
L 2150 1254 
L 2150 4122 
z
M 1798 3703 
L 1798 1254 
L 256 1254 
L 1798 3703 
z
" transform="scale(0.015625)"/>
       </defs>
       <use xlink:href="#CMR17-30" transform="scale(0.996264)"/>
       <use xlink:href="#CMMI12-3a" transform="translate(45.690477 0) scale(0.996264)"/>
       <use xlink:href="#CMR17-34" transform="translate(72.787654 0) scale(0.996264)"/>
      </g>
     </g>
    </g>
    <g id="xtick_4">
     <g id="line2d_4">
      <g>
       <use xlink:href="#mb8b2d670fc" x="630.747188" y="510.031054" style="fill: #262626; stroke: #262626; stroke-width: 0.8"/>
      </g>
     </g>
     <g id="text_4">
      <!-- $\mathdefault{0.6}$ -->
      <g style="fill: #262626" transform="translate(612.975469 537.78655) scale(0.3 -0.3)">
       <defs>
        <path id="CMR17-36" d="M 678 2176 
C 678 3690 1395 4032 1811 4032 
C 1946 4032 2272 4009 2400 3776 
C 2298 3776 2106 3776 2106 3553 
C 2106 3381 2246 3323 2336 3323 
C 2394 3323 2566 3348 2566 3560 
C 2566 3954 2246 4179 1805 4179 
C 1043 4179 243 3390 243 1984 
C 243 253 966 -128 1478 -128 
C 2099 -128 2688 427 2688 1283 
C 2688 2081 2170 2662 1517 2662 
C 1126 2662 838 2407 678 1960 
L 678 2176 
z
M 1478 25 
C 691 25 691 1200 691 1436 
C 691 1896 909 2560 1504 2560 
C 1613 2560 1926 2560 2138 2120 
C 2253 1870 2253 1609 2253 1289 
C 2253 944 2253 690 2118 434 
C 1978 171 1773 25 1478 25 
z
" transform="scale(0.015625)"/>
       </defs>
       <use xlink:href="#CMR17-30" transform="scale(0.996264)"/>
       <use xlink:href="#CMMI12-3a" transform="translate(45.690477 0) scale(0.996264)"/>
       <use xlink:href="#CMR17-36" transform="translate(72.787654 0) scale(0.996264)"/>
      </g>
     </g>
    </g>
    <g id="xtick_5">
     <g id="line2d_5">
      <g>
       <use xlink:href="#mb8b2d670fc" x="816.015105" y="510.031054" style="fill: #262626; stroke: #262626; stroke-width: 0.8"/>
      </g>
     </g>
     <g id="text_5">
      <!-- $\mathdefault{0.8}$ -->
      <g style="fill: #262626" transform="translate(798.243385 537.78655) scale(0.3 -0.3)">
       <defs>
        <path id="CMR17-38" d="M 1741 2264 
C 2144 2467 2554 2773 2554 3263 
C 2554 3841 1990 4179 1472 4179 
C 890 4179 378 3759 378 3180 
C 378 3021 416 2747 666 2505 
C 730 2442 998 2251 1171 2130 
C 883 1983 211 1634 211 934 
C 211 279 838 -128 1459 -128 
C 2144 -128 2720 362 2720 1010 
C 2720 1590 2330 1857 2074 2029 
L 1741 2264 
z
M 902 2822 
C 851 2854 595 3051 595 3351 
C 595 3739 998 4032 1459 4032 
C 1965 4032 2336 3676 2336 3262 
C 2336 2669 1670 2331 1638 2331 
C 1632 2331 1626 2331 1574 2370 
L 902 2822 
z
M 2080 1519 
C 2176 1449 2483 1240 2483 851 
C 2483 381 2010 25 1472 25 
C 890 25 448 438 448 940 
C 448 1443 838 1862 1280 2060 
L 2080 1519 
z
" transform="scale(0.015625)"/>
       </defs>
       <use xlink:href="#CMR17-30" transform="scale(0.996264)"/>
       <use xlink:href="#CMMI12-3a" transform="translate(45.690477 0) scale(0.996264)"/>
       <use xlink:href="#CMR17-38" transform="translate(72.787654 0) scale(0.996264)"/>
      </g>
     </g>
    </g>
    <g id="xtick_6">
     <g id="line2d_6">
      <g>
       <use xlink:href="#mb8b2d670fc" x="1001.283021" y="510.031054" style="fill: #262626; stroke: #262626; stroke-width: 0.8"/>
      </g>
     </g>
     <g id="text_6">
      <!-- $\mathdefault{1.0}$ -->
      <g style="fill: #262626" transform="translate(983.511301 537.78655) scale(0.3 -0.3)">
       <defs>
        <path id="CMR17-31" d="M 1702 4058 
C 1702 4192 1696 4192 1606 4192 
C 1357 3916 979 3827 621 3827 
C 602 3827 570 3827 563 3808 
C 557 3795 557 3782 557 3648 
C 755 3648 1088 3686 1344 3839 
L 1344 461 
C 1344 236 1331 160 781 160 
L 589 160 
L 589 0 
C 896 0 1216 0 1523 0 
C 1830 0 2150 0 2458 0 
L 2458 160 
L 2266 160 
C 1715 160 1702 230 1702 458 
L 1702 4058 
z
" transform="scale(0.015625)"/>
       </defs>
       <use xlink:href="#CMR17-31" transform="scale(0.996264)"/>
       <use xlink:href="#CMMI12-3a" transform="translate(45.690477 0) scale(0.996264)"/>
       <use xlink:href="#CMR17-30" transform="translate(72.787654 0) scale(0.996264)"/>
      </g>
     </g>
    </g>
   </g>
   <g id="matplotlib.axis_2">
    <g id="ytick_1">
     <g id="line2d_7">
      <defs>
       <path id="m81af274cfa" d="M 0 0 
L -3.5 0 
" style="stroke: #262626; stroke-width: 0.8"/>
      </defs>
      <g>
       <use xlink:href="#m81af274cfa" x="74.943439" y="427.697215" style="fill: #262626; stroke: #262626; stroke-width: 0.8"/>
      </g>
     </g>
     <g id="text_7">
      <!-- $\mathdefault{0.4}$ -->
      <g style="fill: #262626" transform="translate(32.4 438.074963) scale(0.3 -0.3)">
       <use xlink:href="#CMR17-30" transform="scale(0.996264)"/>
       <use xlink:href="#CMMI12-3a" transform="translate(45.690477 0) scale(0.996264)"/>
       <use xlink:href="#CMR17-34" transform="translate(72.787654 0) scale(0.996264)"/>
      </g>
     </g>
    </g>
    <g id="ytick_2">
     <g id="line2d_8">
      <g>
       <use xlink:href="#m81af274cfa" x="74.943439" y="303.168311" style="fill: #262626; stroke: #262626; stroke-width: 0.8"/>
      </g>
     </g>
     <g id="text_8">
      <!-- $\mathdefault{0.6}$ -->
      <g style="fill: #262626" transform="translate(32.4 313.546059) scale(0.3 -0.3)">
       <use xlink:href="#CMR17-30" transform="scale(0.996264)"/>
       <use xlink:href="#CMMI12-3a" transform="translate(45.690477 0) scale(0.996264)"/>
       <use xlink:href="#CMR17-36" transform="translate(72.787654 0) scale(0.996264)"/>
      </g>
     </g>
    </g>
    <g id="ytick_3">
     <g id="line2d_9">
      <g>
       <use xlink:href="#m81af274cfa" x="74.943439" y="178.639407" style="fill: #262626; stroke: #262626; stroke-width: 0.8"/>
      </g>
     </g>
     <g id="text_9">
      <!-- $\mathdefault{0.8}$ -->
      <g style="fill: #262626" transform="translate(32.4 189.017154) scale(0.3 -0.3)">
       <use xlink:href="#CMR17-30" transform="scale(0.996264)"/>
       <use xlink:href="#CMMI12-3a" transform="translate(45.690477 0) scale(0.996264)"/>
       <use xlink:href="#CMR17-38" transform="translate(72.787654 0) scale(0.996264)"/>
      </g>
     </g>
    </g>
    <g id="ytick_4">
     <g id="line2d_10">
      <g>
       <use xlink:href="#m81af274cfa" x="74.943439" y="54.110502" style="fill: #262626; stroke: #262626; stroke-width: 0.8"/>
      </g>
     </g>
     <g id="text_10">
      <!-- $\mathdefault{1.0}$ -->
      <g style="fill: #262626" transform="translate(32.4 64.48825) scale(0.3 -0.3)">
       <use xlink:href="#CMR17-31" transform="scale(0.996264)"/>
       <use xlink:href="#CMMI12-3a" transform="translate(45.690477 0) scale(0.996264)"/>
       <use xlink:href="#CMR17-30" transform="translate(72.787654 0) scale(0.996264)"/>
      </g>
     </g>
    </g>
   </g>
   <g id="line2d_11">
    <path d="M 74.943439 54.110502 
L 93.470231 68.818025 
L 111.997023 83.178141 
L 130.523814 97.199056 
L 149.050606 110.888782 
L 167.577398 124.255142 
L 186.104189 137.305774 
L 204.630981 150.048137 
L 223.157772 162.489511 
L 241.684564 174.637007 
L 260.211356 186.497567 
L 278.738147 198.077967 
L 297.264939 209.384826 
L 315.791731 220.424606 
L 334.318522 231.203613 
L 352.845314 241.72801 
L 371.372105 252.003808 
L 389.898897 262.036882 
L 408.425689 271.832964 
L 426.95248 281.397652 
L 445.479272 290.736412 
L 464.006064 299.85458 
L 482.532855 308.757368 
L 501.059647 317.449862 
L 519.586439 325.937031 
L 538.11323 334.223723 
L 556.640022 342.314676 
L 575.166813 350.214511 
L 593.693605 357.927744 
L 618.395994 367.929387 
L 643.098383 377.617278 
L 667.800772 387.001258 
L 692.50316 396.090862 
L 717.205549 404.895325 
L 741.907938 413.42359 
L 766.610327 421.684323 
L 791.312716 429.685916 
L 816.015105 437.436498 
L 840.717493 444.943944 
L 865.419882 452.21588 
L 890.122271 459.259695 
L 914.82466 466.082545 
L 939.527049 472.691362 
L 964.229438 479.092859 
L 988.931827 485.29354 
L 1001.283021 488.320552 
L 1001.283021 488.320552 
" clip-path="url(#p5137d226f8)" style="fill: none; stroke: #393b79; stroke-width: 2; stroke-linecap: round"/>
   </g>
   <g id="line2d_12">
    <path d="M 74.943439 54.110502 
L 93.470231 68.818026 
L 111.997023 83.178142 
L 130.523814 97.199056 
L 149.050606 110.888782 
L 167.577398 124.255142 
L 186.104189 137.305775 
L 204.630981 150.048137 
L 223.157772 162.489512 
L 241.684564 174.637008 
L 260.211356 186.497567 
L 278.738147 198.077968 
L 297.264939 209.384827 
L 315.791731 220.424606 
L 334.318522 231.203614 
L 352.845314 241.72801 
L 371.372105 252.003809 
L 389.898897 262.036882 
L 408.425689 271.832964 
L 426.95248 281.397652 
L 445.479272 290.736412 
L 464.006064 299.85458 
L 482.532855 308.757368 
L 501.059647 317.449862 
L 519.586439 325.937031 
L 538.11323 334.223724 
L 556.640022 342.314676 
L 575.166813 350.214511 
L 593.693605 357.927744 
L 618.395994 367.929387 
L 643.098383 377.617278 
L 667.800772 387.001258 
L 692.50316 396.090862 
L 717.205549 404.895325 
L 741.907938 413.42359 
L 766.610327 421.684323 
L 791.312716 429.685916 
L 816.015105 437.436498 
L 840.717493 444.943944 
L 865.419882 452.215881 
L 890.122271 459.259696 
L 914.82466 466.082545 
L 939.527049 472.691362 
L 964.229438 479.092859 
L 988.931827 485.29354 
L 1001.283021 488.320551 
L 1001.283021 488.320551 
" clip-path="url(#p5137d226f8)" style="fill: none; stroke: #6b6ecf; stroke-width: 2; stroke-linecap: round"/>
   </g>
   <g id="line2d_13">
    <path d="M 74.943439 54.110502 
L 93.470231 68.818026 
L 111.997023 83.178141 
L 130.523814 97.199056 
L 149.050606 110.888782 
L 167.577398 124.255142 
L 186.104189 137.305774 
L 204.630981 150.048137 
L 223.157772 162.489512 
L 241.684564 174.637008 
L 260.211356 186.497567 
L 278.738147 198.077968 
L 297.264939 209.384827 
L 315.791731 220.424606 
L 334.318522 231.203614 
L 352.845314 241.72801 
L 371.372105 252.003809 
L 389.898897 262.036882 
L 408.425689 271.832964 
L 426.95248 281.397652 
L 445.479272 290.736412 
L 464.006064 299.854581 
L 482.532855 308.757368 
L 501.059647 317.449863 
L 519.586439 325.937031 
L 538.11323 334.223724 
L 556.640022 342.314676 
L 575.166813 350.214511 
L 593.693605 357.927744 
L 618.395994 367.929387 
L 643.098383 377.617278 
L 667.800772 387.001258 
L 692.50316 396.090862 
L 717.205549 404.895325 
L 741.907938 413.42359 
L 766.610327 421.684323 
L 791.312716 429.685916 
L 816.015105 437.436498 
L 840.717493 444.943944 
L 865.419882 452.215881 
L 890.122271 459.259696 
L 914.82466 466.082545 
L 939.527049 472.691362 
L 964.229438 479.092859 
L 988.931827 485.293541 
L 1001.283021 488.320552 
L 1001.283021 488.320552 
" clip-path="url(#p5137d226f8)" style="fill: none; stroke: #637939; stroke-width: 2; stroke-linecap: round"/>
   </g>
   <g id="line2d_14">
    <path d="M 74.943439 54.110502 
L 93.470231 68.818026 
L 111.997023 83.178142 
L 130.523814 97.199056 
L 149.050606 110.888782 
L 167.577398 124.255141 
L 186.104189 137.305773 
L 204.630981 150.048136 
L 223.157772 162.48951 
L 241.684564 174.637006 
L 260.211356 186.497566 
L 278.738147 198.077967 
L 297.264939 209.384826 
L 315.791731 220.424606 
L 334.318522 231.203614 
L 352.845314 241.728011 
L 371.372105 252.00381 
L 389.898897 262.036884 
L 408.425689 271.832966 
L 426.95248 281.397654 
L 445.479272 290.736414 
L 464.006064 299.854582 
L 482.532855 308.75737 
L 501.059647 317.449864 
L 519.586439 325.937033 
L 538.11323 334.223725 
L 556.640022 342.314677 
L 575.166813 350.214512 
L 593.693605 357.927744 
L 618.395994 367.929387 
L 643.098383 377.617277 
L 667.800772 387.001258 
L 692.50316 396.090861 
L 717.205549 404.895324 
L 741.907938 413.423589 
L 766.610327 421.684322 
L 791.312716 429.685915 
L 816.015105 437.436497 
L 840.717493 444.943943 
L 865.419882 452.215879 
L 890.122271 459.259694 
L 914.82466 466.082544 
L 939.527049 472.691361 
L 964.229438 479.092859 
L 988.931827 485.293541 
L 1001.283021 488.320551 
L 1001.283021 488.320551 
" clip-path="url(#p5137d226f8)" style="fill: none; stroke: #b5cf6b; stroke-width: 2; stroke-linecap: round"/>
   </g>
   <g id="line2d_15">
    <path d="M 74.943439 54.110502 
L 93.470231 68.818026 
L 111.997023 83.178141 
L 130.523814 97.199056 
L 149.050606 110.888782 
L 167.577398 124.255142 
L 186.104189 137.305774 
L 204.630981 150.048137 
L 223.157772 162.489512 
L 241.684564 174.637008 
L 260.211356 186.497567 
L 278.738147 198.077968 
L 297.264939 209.384827 
L 315.791731 220.424606 
L 334.318522 231.203614 
L 352.845314 241.72801 
L 371.372105 252.003809 
L 389.898897 262.036882 
L 408.425689 271.832964 
L 426.95248 281.397652 
L 445.479272 290.736412 
L 464.006064 299.854581 
L 482.532855 308.757368 
L 501.059647 317.449863 
L 519.586439 325.937031 
L 538.11323 334.223724 
L 556.640022 342.314676 
L 575.166813 350.214511 
L 593.693605 357.927744 
L 618.395994 367.929387 
L 643.098383 377.617278 
L 667.800772 387.001258 
L 692.50316 396.090862 
L 717.205549 404.895325 
L 741.907938 413.42359 
L 766.610327 421.684323 
L 791.312716 429.685916 
L 816.015105 437.436498 
L 840.717493 444.943944 
L 865.419882 452.215881 
L 890.122271 459.259696 
L 914.82466 466.082545 
L 939.527049 472.691362 
L 964.229438 479.092859 
L 988.931827 485.293541 
L 1001.283021 488.320552 
L 1001.283021 488.320552 
" clip-path="url(#p5137d226f8)" style="fill: none; stroke: #8c6d31; stroke-width: 2; stroke-linecap: round"/>
   </g>
   <g id="line2d_16">
    <path d="M 74.943439 54.110502 
L 93.470231 68.818026 
L 111.997023 83.178141 
L 130.523814 97.199056 
L 149.050606 110.888782 
L 167.577398 124.255142 
L 186.104189 137.305774 
L 204.630981 150.048137 
L 223.157772 162.489512 
L 241.684564 174.637008 
L 260.211356 186.497567 
L 278.738147 198.077968 
L 297.264939 209.384827 
L 315.791731 220.424606 
L 334.318522 231.203614 
L 352.845314 241.72801 
L 371.372105 252.003809 
L 389.898897 262.036882 
L 408.425689 271.832964 
L 426.95248 281.397652 
L 445.479272 290.736412 
L 464.006064 299.854581 
L 482.532855 308.757368 
L 501.059647 317.449863 
L 519.586439 325.937031 
L 538.11323 334.223724 
L 556.640022 342.314676 
L 575.166813 350.214511 
L 593.693605 357.927744 
L 618.395994 367.929387 
L 643.098383 377.617278 
L 667.800772 387.001258 
L 692.50316 396.090862 
L 717.205549 404.895325 
L 741.907938 413.42359 
L 766.610327 421.684323 
L 791.312716 429.685916 
L 816.015105 437.436499 
L 840.717493 444.943944 
L 865.419882 452.215881 
L 890.122271 459.259696 
L 914.82466 466.082546 
L 939.527049 472.691362 
L 964.229438 479.092859 
L 988.931827 485.293541 
L 1001.283021 488.320552 
L 1001.283021 488.320552 
" clip-path="url(#p5137d226f8)" style="fill: none; stroke: #e7cb94; stroke-width: 2; stroke-linecap: round"/>
   </g>
   <g id="line2d_17">
    <path d="M 74.943439 54.110502 
L 93.470231 68.818026 
L 111.997023 83.178141 
L 130.523814 97.199056 
L 149.050606 110.888782 
L 167.577398 124.255142 
L 186.104189 137.305774 
L 204.630981 150.048137 
L 223.157772 162.489512 
L 241.684564 174.637008 
L 260.211356 186.497567 
L 278.738147 198.077968 
L 297.264939 209.384827 
L 315.791731 220.424606 
L 334.318522 231.203614 
L 352.845314 241.72801 
L 371.372105 252.003809 
L 389.898897 262.036882 
L 408.425689 271.832964 
L 426.95248 281.397652 
L 445.479272 290.736412 
L 464.006064 299.854581 
L 482.532855 308.757368 
L 501.059647 317.449863 
L 519.586439 325.937031 
L 538.11323 334.223724 
L 556.640022 342.314676 
L 575.166813 350.214511 
L 593.693605 357.927744 
L 618.395994 367.929387 
L 643.098383 377.617278 
L 667.800772 387.001258 
L 692.50316 396.090862 
L 717.205549 404.895325 
L 741.907938 413.42359 
L 766.610327 421.684323 
L 791.312716 429.685916 
L 816.015105 437.436499 
L 840.717493 444.943944 
L 865.419882 452.215881 
L 890.122271 459.259696 
L 914.82466 466.082545 
L 939.527049 472.691362 
L 964.229438 479.092859 
L 988.931827 485.293541 
L 1001.283021 488.320552 
L 1001.283021 488.320552 
" clip-path="url(#p5137d226f8)" style="fill: none; stroke: #ad494a; stroke-width: 2; stroke-linecap: round"/>
   </g>
   <g id="line2d_18">
    <path d="M 74.943439 54.110502 
L 93.470231 68.818025 
L 111.997023 83.178142 
L 130.523814 97.199056 
L 149.050606 110.888782 
L 167.577398 124.255142 
L 186.104189 137.305775 
L 204.630981 150.048138 
L 223.157772 162.489512 
L 241.684564 174.637008 
L 260.211356 186.497567 
L 278.738147 198.077967 
L 297.264939 209.384826 
L 315.791731 220.424605 
L 334.318522 231.203614 
L 352.845314 241.72801 
L 371.372105 252.00381 
L 389.898897 262.036883 
L 408.425689 271.832965 
L 426.95248 281.397653 
L 445.479272 290.736412 
L 464.006064 299.85458 
L 482.532855 308.757367 
L 501.059647 317.449862 
L 519.586439 325.93703 
L 538.11323 334.223722 
L 556.640022 342.314675 
L 575.166813 350.214511 
L 593.693605 357.927744 
L 618.395994 367.929388 
L 643.098383 377.617279 
L 667.800772 387.00126 
L 692.50316 396.090864 
L 717.205549 404.895326 
L 741.907938 413.423591 
L 766.610327 421.684323 
L 791.312716 429.685916 
L 816.015105 437.436498 
L 840.717493 444.943939 
L 865.419882 452.215873 
L 890.122271 459.259699 
L 914.82466 466.082568 
L 939.527049 472.691367 
L 964.229438 479.092809 
L 988.931827 485.293487 
L 1001.283021 488.320543 
L 1001.283021 488.320543 
" clip-path="url(#p5137d226f8)" style="fill: none; stroke: #e7969c; stroke-width: 2; stroke-linecap: round"/>
   </g>
   <g id="line2d_19">
    <path d="M 74.943439 54.110502 
L 93.470231 68.818027 
L 111.997023 83.178142 
L 130.523814 97.199059 
L 149.050606 110.888779 
L 167.577398 124.255138 
L 186.104189 137.305774 
L 204.630981 150.048142 
L 223.157772 162.489518 
L 241.684564 174.637011 
L 260.211356 186.497565 
L 278.738147 198.077961 
L 297.264939 209.384819 
L 315.791731 220.424601 
L 334.318522 231.203613 
L 352.845314 241.728014 
L 371.372105 252.003816 
L 389.898897 262.036892 
L 408.425689 271.832971 
L 426.95248 281.397656 
L 445.479272 290.736411 
L 464.006064 299.854577 
L 482.532855 308.757362 
L 501.059647 317.449853 
L 519.586439 325.937023 
L 538.11323 334.223718 
L 556.640022 342.314672 
L 575.166813 350.214512 
L 593.693605 357.927747 
L 618.395994 367.929392 
L 643.098383 377.617284 
L 667.800772 387.001264 
L 692.50316 396.090867 
L 717.205549 404.895328 
L 741.907938 413.423591 
L 766.610327 421.684321 
L 791.312716 429.685912 
L 816.015105 437.436495 
L 840.717493 444.943945 
L 865.419882 452.215878 
L 890.122271 459.259676 
L 914.82466 466.082531 
L 939.527049 472.691398 
L 964.229438 479.092917 
L 988.931827 485.2935 
L 1001.283021 488.320443 
L 1001.283021 488.320443 
" clip-path="url(#p5137d226f8)" style="fill: none; stroke: #a55194; stroke-width: 2; stroke-linecap: round"/>
   </g>
   <g id="line2d_20">
    <path d="M 74.943439 54.110502 
L 93.470231 68.818026 
L 111.997023 83.178141 
L 130.523814 97.199056 
L 149.050606 110.888782 
L 167.577398 124.255142 
L 186.104189 137.305774 
L 204.630981 150.048137 
L 223.157772 162.489512 
L 241.684564 174.637008 
L 260.211356 186.497567 
L 278.738147 198.077968 
L 297.264939 209.384827 
L 315.791731 220.424606 
L 334.318522 231.203614 
L 352.845314 241.72801 
L 371.372105 252.003809 
L 389.898897 262.036882 
L 408.425689 271.832964 
L 426.95248 281.397652 
L 445.479272 290.736412 
L 464.006064 299.854581 
L 482.532855 308.757368 
L 501.059647 317.449863 
L 519.586439 325.937031 
L 538.11323 334.223724 
L 556.640022 342.314676 
L 575.166813 350.214511 
L 593.693605 357.927744 
L 618.395994 367.929387 
L 643.098383 377.617278 
L 667.800772 387.001258 
L 692.50316 396.090862 
L 717.205549 404.895325 
L 741.907938 413.42359 
L 766.610327 421.684323 
L 791.312716 429.685916 
L 816.015105 437.436499 
L 840.717493 444.943944 
L 865.419882 452.215881 
L 890.122271 459.259696 
L 914.82466 466.082545 
L 939.527049 472.691362 
L 964.229438 479.092859 
L 988.931827 485.293541 
L 1001.283021 488.320552 
L 1001.283021 488.320552 
" clip-path="url(#p5137d226f8)" style="fill: none; stroke: #de9ed6; stroke-width: 2; stroke-linecap: round"/>
   </g>
   <g id="patch_3">
    <path d="M 74.943439 510.031054 
L 74.943439 32.4 
" style="fill: none; stroke: #262626; stroke-width: 0.8; stroke-linejoin: miter; stroke-linecap: square"/>
   </g>
   <g id="patch_4">
    <path d="M 74.943439 510.031054 
L 1047.6 510.031054 
" style="fill: none; stroke: #262626; stroke-width: 0.8; stroke-linejoin: miter; stroke-linecap: square"/>
   </g>
  </g>
 </g>
 <defs>
  <clipPath id="p5137d226f8">
   <rect x="74.943439" y="32.4" width="972.656561" height="477.631054"/>
  </clipPath>
 </defs>
</svg>
