<?xml version="1.0" encoding="utf-8" standalone="no"?>
<!DOCTYPE svg PUBLIC "-//W3C//DTD SVG 1.1//EN"
  "http://www.w3.org/Graphics/SVG/1.1/DTD/svg11.dtd">
<svg xmlns:xlink="http://www.w3.org/1999/xlink" width="1080pt" height="756pt" viewBox="0 0 1080 756" xmlns="http://www.w3.org/2000/svg" version="1.1">
 <metadata>
  <rdf:RDF xmlns:dc="http://purl.org/dc/elements/1.1/" xmlns:cc="http://creativecommons.org/ns#" xmlns:rdf="http://www.w3.org/1999/02/22-rdf-syntax-ns#">
   <cc:Work>
    <dc:type rdf:resource="http://purl.org/dc/dcmitype/StillImage"/>
    <dc:date>2024-07-30T17:29:13.237664</dc:date>
    <dc:format>image/svg+xml</dc:format>
    <dc:creator>
     <cc:Agent>
      <dc:title>Matplotlib v3.9.0, https://matplotlib.org/</dc:title>
     </cc:Agent>
    </dc:creator>
   </cc:Work>
  </rdf:RDF>
 </metadata>
 <defs>
  <style type="text/css">*{stroke-linejoin: round; stroke-linecap: butt}</style>
 </defs>
 <g id="figure_1">
  <g id="patch_1">
   <path d="M 0 756 
L 1080 756 
L 1080 0 
L 0 0 
z
" style="fill: #ffffff"/>
  </g>
  <g id="axes_1">
   <g id="patch_2">
    <path d="M 88.532127 678.237256 
L 1041.12 678.237256 
L 1041.12 38.88 
L 88.532127 38.88 
z
" style="fill: #ffffff"/>
   </g>
   <g id="matplotlib.axis_1">
    <g id="xtick_1">
     <g id="line2d_1">
      <defs>
       <path id="mad3b33eaed" d="M 0 0 
L 0 3.5 
" style="stroke: #262626; stroke-width: 0.8"/>
      </defs>
      <g>
       <use xlink:href="#mad3b33eaed" x="88.532127" y="678.237256" style="fill: #262626; stroke: #262626; stroke-width: 0.8"/>
      </g>
     </g>
     <g id="text_1">
      <!-- $\mathdefault{0.0}$ -->
      <g style="fill: #262626" transform="translate(67.206064 710.143856) scale(0.36 -0.36)">
       <defs>
        <path id="CMR17-30" d="M 2688 2025 
C 2688 2416 2682 3080 2413 3591 
C 2176 4039 1798 4198 1466 4198 
C 1158 4198 768 4058 525 3597 
C 269 3118 243 2524 243 2025 
C 243 1661 250 1106 448 619 
C 723 -39 1216 -128 1466 -128 
C 1760 -128 2208 -7 2470 600 
C 2662 1042 2688 1559 2688 2025 
z
M 1466 -26 
C 1056 -26 813 325 723 812 
C 653 1188 653 1738 653 2096 
C 653 2588 653 2997 736 3387 
C 858 3929 1216 4096 1466 4096 
C 1728 4096 2067 3923 2189 3400 
C 2272 3036 2278 2607 2278 2096 
C 2278 1680 2278 1169 2202 792 
C 2067 95 1690 -26 1466 -26 
z
" transform="scale(0.015625)"/>
        <path id="CMMI12-3a" d="M 1178 307 
C 1178 492 1024 619 870 619 
C 685 619 557 466 557 313 
C 557 128 710 0 864 0 
C 1050 0 1178 153 1178 307 
z
" transform="scale(0.015625)"/>
       </defs>
       <use xlink:href="#CMR17-30" transform="scale(0.996264)"/>
       <use xlink:href="#CMMI12-3a" transform="translate(45.690477 0) scale(0.996264)"/>
       <use xlink:href="#CMR17-30" transform="translate(72.787654 0) scale(0.996264)"/>
      </g>
     </g>
    </g>
    <g id="xtick_2">
     <g id="line2d_2">
      <g>
       <use xlink:href="#mad3b33eaed" x="269.977436" y="678.237256" style="fill: #262626; stroke: #262626; stroke-width: 0.8"/>
      </g>
     </g>
     <g id="text_2">
      <!-- $\mathdefault{0.2}$ -->
      <g style="fill: #262626" transform="translate(248.651373 710.143856) scale(0.36 -0.36)">
       <defs>
        <path id="CMR17-32" d="M 2669 989 
L 2554 989 
C 2490 536 2438 459 2413 420 
C 2381 369 1920 369 1830 369 
L 602 369 
C 832 619 1280 1072 1824 1597 
C 2214 1967 2669 2402 2669 3035 
C 2669 3790 2067 4224 1395 4224 
C 691 4224 262 3604 262 3030 
C 262 2780 448 2748 525 2748 
C 589 2748 781 2787 781 3010 
C 781 3207 614 3264 525 3264 
C 486 3264 448 3258 422 3245 
C 544 3790 915 4058 1306 4058 
C 1862 4058 2227 3617 2227 3035 
C 2227 2479 1901 2000 1536 1584 
L 262 146 
L 262 0 
L 2515 0 
L 2669 989 
z
" transform="scale(0.015625)"/>
       </defs>
       <use xlink:href="#CMR17-30" transform="scale(0.996264)"/>
       <use xlink:href="#CMMI12-3a" transform="translate(45.690477 0) scale(0.996264)"/>
       <use xlink:href="#CMR17-32" transform="translate(72.787654 0) scale(0.996264)"/>
      </g>
     </g>
    </g>
    <g id="xtick_3">
     <g id="line2d_3">
      <g>
       <use xlink:href="#mad3b33eaed" x="451.422745" y="678.237256" style="fill: #262626; stroke: #262626; stroke-width: 0.8"/>
      </g>
     </g>
     <g id="text_3">
      <!-- $\mathdefault{0.4}$ -->
      <g style="fill: #262626" transform="translate(430.096682 710.143856) scale(0.36 -0.36)">
       <defs>
        <path id="CMR17-34" d="M 2150 4122 
C 2150 4256 2144 4256 2029 4256 
L 128 1254 
L 128 1088 
L 1779 1088 
L 1779 457 
C 1779 224 1766 160 1318 160 
L 1197 160 
L 1197 0 
C 1402 0 1747 0 1965 0 
C 2182 0 2528 0 2733 0 
L 2733 160 
L 2611 160 
C 2163 160 2150 224 2150 457 
L 2150 1088 
L 2803 1088 
L 2803 1254 
L 2150 1254 
L 2150 4122 
z
M 1798 3703 
L 1798 1254 
L 256 1254 
L 1798 3703 
z
" transform="scale(0.015625)"/>
       </defs>
       <use xlink:href="#CMR17-30" transform="scale(0.996264)"/>
       <use xlink:href="#CMMI12-3a" transform="translate(45.690477 0) scale(0.996264)"/>
       <use xlink:href="#CMR17-34" transform="translate(72.787654 0) scale(0.996264)"/>
      </g>
     </g>
    </g>
    <g id="xtick_4">
     <g id="line2d_4">
      <g>
       <use xlink:href="#mad3b33eaed" x="632.868055" y="678.237256" style="fill: #262626; stroke: #262626; stroke-width: 0.8"/>
      </g>
     </g>
     <g id="text_4">
      <!-- $\mathdefault{0.6}$ -->
      <g style="fill: #262626" transform="translate(611.541991 710.143856) scale(0.36 -0.36)">
       <defs>
        <path id="CMR17-36" d="M 678 2176 
C 678 3690 1395 4032 1811 4032 
C 1946 4032 2272 4009 2400 3776 
C 2298 3776 2106 3776 2106 3553 
C 2106 3381 2246 3323 2336 3323 
C 2394 3323 2566 3348 2566 3560 
C 2566 3954 2246 4179 1805 4179 
C 1043 4179 243 3390 243 1984 
C 243 253 966 -128 1478 -128 
C 2099 -128 2688 427 2688 1283 
C 2688 2081 2170 2662 1517 2662 
C 1126 2662 838 2407 678 1960 
L 678 2176 
z
M 1478 25 
C 691 25 691 1200 691 1436 
C 691 1896 909 2560 1504 2560 
C 1613 2560 1926 2560 2138 2120 
C 2253 1870 2253 1609 2253 1289 
C 2253 944 2253 690 2118 434 
C 1978 171 1773 25 1478 25 
z
" transform="scale(0.015625)"/>
       </defs>
       <use xlink:href="#CMR17-30" transform="scale(0.996264)"/>
       <use xlink:href="#CMMI12-3a" transform="translate(45.690477 0) scale(0.996264)"/>
       <use xlink:href="#CMR17-36" transform="translate(72.787654 0) scale(0.996264)"/>
      </g>
     </g>
    </g>
    <g id="xtick_5">
     <g id="line2d_5">
      <g>
       <use xlink:href="#mad3b33eaed" x="814.313364" y="678.237256" style="fill: #262626; stroke: #262626; stroke-width: 0.8"/>
      </g>
     </g>
     <g id="text_5">
      <!-- $\mathdefault{0.8}$ -->
      <g style="fill: #262626" transform="translate(792.9873 710.143856) scale(0.36 -0.36)">
       <defs>
        <path id="CMR17-38" d="M 1741 2264 
C 2144 2467 2554 2773 2554 3263 
C 2554 3841 1990 4179 1472 4179 
C 890 4179 378 3759 378 3180 
C 378 3021 416 2747 666 2505 
C 730 2442 998 2251 1171 2130 
C 883 1983 211 1634 211 934 
C 211 279 838 -128 1459 -128 
C 2144 -128 2720 362 2720 1010 
C 2720 1590 2330 1857 2074 2029 
L 1741 2264 
z
M 902 2822 
C 851 2854 595 3051 595 3351 
C 595 3739 998 4032 1459 4032 
C 1965 4032 2336 3676 2336 3262 
C 2336 2669 1670 2331 1638 2331 
C 1632 2331 1626 2331 1574 2370 
L 902 2822 
z
M 2080 1519 
C 2176 1449 2483 1240 2483 851 
C 2483 381 2010 25 1472 25 
C 890 25 448 438 448 940 
C 448 1443 838 1862 1280 2060 
L 2080 1519 
z
" transform="scale(0.015625)"/>
       </defs>
       <use xlink:href="#CMR17-30" transform="scale(0.996264)"/>
       <use xlink:href="#CMMI12-3a" transform="translate(45.690477 0) scale(0.996264)"/>
       <use xlink:href="#CMR17-38" transform="translate(72.787654 0) scale(0.996264)"/>
      </g>
     </g>
    </g>
    <g id="xtick_6">
     <g id="line2d_6">
      <g>
       <use xlink:href="#mad3b33eaed" x="995.758673" y="678.237256" style="fill: #262626; stroke: #262626; stroke-width: 0.8"/>
      </g>
     </g>
     <g id="text_6">
      <!-- $\mathdefault{1.0}$ -->
      <g style="fill: #262626" transform="translate(974.432609 710.143856) scale(0.36 -0.36)">
       <defs>
        <path id="CMR17-31" d="M 1702 4058 
C 1702 4192 1696 4192 1606 4192 
C 1357 3916 979 3827 621 3827 
C 602 3827 570 3827 563 3808 
C 557 3795 557 3782 557 3648 
C 755 3648 1088 3686 1344 3839 
L 1344 461 
C 1344 236 1331 160 781 160 
L 589 160 
L 589 0 
C 896 0 1216 0 1523 0 
C 1830 0 2150 0 2458 0 
L 2458 160 
L 2266 160 
C 1715 160 1702 230 1702 458 
L 1702 4058 
z
" transform="scale(0.015625)"/>
       </defs>
       <use xlink:href="#CMR17-31" transform="scale(0.996264)"/>
       <use xlink:href="#CMMI12-3a" transform="translate(45.690477 0) scale(0.996264)"/>
       <use xlink:href="#CMR17-30" transform="translate(72.787654 0) scale(0.996264)"/>
      </g>
     </g>
    </g>
   </g>
   <g id="matplotlib.axis_2">
    <g id="ytick_1">
     <g id="line2d_7">
      <defs>
       <path id="mc14cc6a87a" d="M 0 0 
L -3.5 0 
" style="stroke: #262626; stroke-width: 0.8"/>
      </defs>
      <g>
       <use xlink:href="#mc14cc6a87a" x="88.532127" y="606.829585" style="fill: #262626; stroke: #262626; stroke-width: 0.8"/>
      </g>
     </g>
     <g id="text_7">
      <!-- $\mathdefault{0.2}$ -->
      <g style="fill: #262626" transform="translate(38.88 619.282886) scale(0.36 -0.36)">
       <use xlink:href="#CMR17-30" transform="scale(0.996264)"/>
       <use xlink:href="#CMMI12-3a" transform="translate(45.690477 0) scale(0.996264)"/>
       <use xlink:href="#CMR17-32" transform="translate(72.787654 0) scale(0.996264)"/>
      </g>
     </g>
    </g>
    <g id="ytick_2">
     <g id="line2d_8">
      <g>
       <use xlink:href="#mc14cc6a87a" x="88.532127" y="472.107612" style="fill: #262626; stroke: #262626; stroke-width: 0.8"/>
      </g>
     </g>
     <g id="text_8">
      <!-- $\mathdefault{0.4}$ -->
      <g style="fill: #262626" transform="translate(38.88 484.560913) scale(0.36 -0.36)">
       <use xlink:href="#CMR17-30" transform="scale(0.996264)"/>
       <use xlink:href="#CMMI12-3a" transform="translate(45.690477 0) scale(0.996264)"/>
       <use xlink:href="#CMR17-34" transform="translate(72.787654 0) scale(0.996264)"/>
      </g>
     </g>
    </g>
    <g id="ytick_3">
     <g id="line2d_9">
      <g>
       <use xlink:href="#mc14cc6a87a" x="88.532127" y="337.385639" style="fill: #262626; stroke: #262626; stroke-width: 0.8"/>
      </g>
     </g>
     <g id="text_9">
      <!-- $\mathdefault{0.6}$ -->
      <g style="fill: #262626" transform="translate(38.88 349.83894) scale(0.36 -0.36)">
       <use xlink:href="#CMR17-30" transform="scale(0.996264)"/>
       <use xlink:href="#CMMI12-3a" transform="translate(45.690477 0) scale(0.996264)"/>
       <use xlink:href="#CMR17-36" transform="translate(72.787654 0) scale(0.996264)"/>
      </g>
     </g>
    </g>
    <g id="ytick_4">
     <g id="line2d_10">
      <g>
       <use xlink:href="#mc14cc6a87a" x="88.532127" y="202.663666" style="fill: #262626; stroke: #262626; stroke-width: 0.8"/>
      </g>
     </g>
     <g id="text_10">
      <!-- $\mathdefault{0.8}$ -->
      <g style="fill: #262626" transform="translate(38.88 215.116967) scale(0.36 -0.36)">
       <use xlink:href="#CMR17-30" transform="scale(0.996264)"/>
       <use xlink:href="#CMMI12-3a" transform="translate(45.690477 0) scale(0.996264)"/>
       <use xlink:href="#CMR17-38" transform="translate(72.787654 0) scale(0.996264)"/>
      </g>
     </g>
    </g>
    <g id="ytick_5">
     <g id="line2d_11">
      <g>
       <use xlink:href="#mc14cc6a87a" x="88.532127" y="67.941693" style="fill: #262626; stroke: #262626; stroke-width: 0.8"/>
      </g>
     </g>
     <g id="text_11">
      <!-- $\mathdefault{1.0}$ -->
      <g style="fill: #262626" transform="translate(38.88 80.394994) scale(0.36 -0.36)">
       <use xlink:href="#CMR17-31" transform="scale(0.996264)"/>
       <use xlink:href="#CMMI12-3a" transform="translate(45.690477 0) scale(0.996264)"/>
       <use xlink:href="#CMR17-30" transform="translate(72.787654 0) scale(0.996264)"/>
      </g>
     </g>
    </g>
   </g>
   <g id="line2d_12">
    <path d="M 88.532127 67.941693 
L 173.206605 80.390893 
L 257.881082 92.610015 
L 342.55556 104.603311 
L 427.230038 116.374955 
L 511.904515 127.929044 
L 596.578993 139.269598 
L 687.301647 151.187715 
L 778.024302 162.869994 
L 868.746956 174.3211 
L 959.469611 185.545609 
L 995.758673 189.972973 
L 995.758673 189.972973 
" clip-path="url(#p6acfea9d62)" style="fill: none; stroke: #1f77b4; stroke-width: 5; stroke-linecap: round"/>
   </g>
   <g id="line2d_13">
    <path d="M 88.532127 67.941693 
L 130.869366 80.382687 
L 173.206605 92.593906 
L 215.543844 104.579594 
L 257.881082 116.343917 
L 300.218321 127.890964 
L 342.55556 139.224746 
L 384.892799 150.349203 
L 427.230038 161.2682 
L 475.615453 173.500337 
L 524.000869 185.474625 
L 572.386285 197.1965 
L 620.771701 208.671283 
L 669.157116 219.904182 
L 717.542532 230.900296 
L 765.927948 241.664616 
L 814.313364 252.202029 
L 862.698779 262.517318 
L 911.084195 272.615164 
L 959.469611 282.500152 
L 995.758673 289.776908 
L 995.758673 289.776908 
" clip-path="url(#p6acfea9d62)" style="fill: none; stroke: #ff7f0e; stroke-width: 5; stroke-linecap: round"/>
   </g>
   <g id="line2d_14">
    <path d="M 88.532127 67.941693 
L 118.773012 81.253721 
L 149.013897 94.302674 
L 179.254782 107.09375 
L 209.495667 119.632046 
L 239.736552 131.922558 
L 269.977436 143.970182 
L 300.218321 155.779718 
L 330.459206 167.355871 
L 360.700091 178.703254 
L 390.940976 189.826387 
L 421.181861 200.729702 
L 451.422745 211.417544 
L 481.66363 221.89417 
L 511.904515 232.163755 
L 542.1454 242.23039 
L 572.386285 252.098086 
L 608.675347 263.682251 
L 644.964408 274.992248 
L 681.25347 286.034565 
L 717.542532 296.815537 
L 753.831594 307.34135 
L 790.120656 317.618043 
L 826.409718 327.651511 
L 862.698779 337.447512 
L 898.987841 347.011666 
L 935.276903 356.349459 
L 971.565965 365.46625 
L 995.758673 371.423919 
L 995.758673 371.423919 
" clip-path="url(#p6acfea9d62)" style="fill: none; stroke: #2ca02c; stroke-width: 5; stroke-linecap: round"/>
   </g>
   <g id="line2d_15">
    <path d="M 88.532127 67.941693 
L 112.724835 82.122458 
L 136.917543 96.00469 
L 161.110251 109.594674 
L 185.302959 122.898564 
L 209.495667 135.922382 
L 233.688375 148.672024 
L 257.881082 161.153262 
L 282.07379 173.371746 
L 306.266498 185.333007 
L 330.459206 197.042462 
L 354.651914 208.50541 
L 378.844622 219.727042 
L 403.03733 230.712436 
L 427.230038 241.466568 
L 451.422745 251.994305 
L 475.615453 262.300412 
L 499.808161 272.389557 
L 524.000869 282.266306 
L 548.193577 291.935131 
L 572.386285 301.400409 
L 596.578993 310.666425 
L 620.771701 319.737373 
L 651.012585 330.807993 
L 681.25347 341.588062 
L 711.494355 352.085206 
L 741.73524 362.306849 
L 771.976125 372.260223 
L 802.21701 381.952367 
L 832.457895 391.390139 
L 862.698779 400.580214 
L 892.939664 409.529094 
L 923.180549 418.243108 
L 953.421434 426.72842 
L 983.662319 434.991033 
L 995.758673 438.235037 
L 995.758673 438.235037 
" clip-path="url(#p6acfea9d62)" style="fill: none; stroke: #d62728; stroke-width: 5; stroke-linecap: round"/>
   </g>
   <g id="line2d_16">
    <path d="M 88.532127 67.941693 
L 106.676658 81.236238 
L 124.821189 94.268397 
L 142.96572 107.04335 
L 161.110251 119.566174 
L 179.254782 131.841843 
L 197.399313 143.875237 
L 215.543844 155.671136 
L 233.688375 167.234229 
L 251.832905 178.569109 
L 269.977436 189.680281 
L 288.121967 200.57216 
L 306.266498 211.249073 
L 324.411029 221.715265 
L 342.55556 231.974893 
L 360.700091 242.032034 
L 378.844622 251.890684 
L 396.989153 261.554762 
L 415.133684 271.028107 
L 439.326392 283.369034 
L 463.519099 295.386282 
L 487.711807 307.08834 
L 511.904515 318.483476 
L 536.097223 329.579739 
L 560.289931 340.384969 
L 584.482639 350.906798 
L 608.675347 361.15266 
L 632.868055 371.129793 
L 657.060762 380.845244 
L 681.25347 390.305878 
L 705.446178 399.518378 
L 729.638886 408.489252 
L 753.831594 417.224836 
L 778.024302 425.731304 
L 802.21701 434.014662 
L 826.409718 442.080765 
L 850.602425 449.935308 
L 874.795133 457.583843 
L 898.987841 465.031771 
L 923.180549 472.284354 
L 947.373257 479.346715 
L 977.614142 487.914757 
L 995.758673 492.920601 
L 995.758673 492.920601 
" clip-path="url(#p6acfea9d62)" style="fill: none; stroke: #9467bd; stroke-width: 5; stroke-linecap: round"/>
   </g>
   <g id="line2d_17">
    <path d="M 88.532127 67.941693 
L 106.676658 83.85307 
L 124.821189 99.388605 
L 142.96572 114.557175 
L 161.110251 129.367446 
L 179.254782 143.827884 
L 197.399313 157.94675 
L 215.543844 171.732114 
L 233.688375 185.191853 
L 251.832905 198.333659 
L 269.977436 211.165041 
L 288.121967 223.693333 
L 306.266498 235.925693 
L 324.411029 247.869111 
L 342.55556 259.530414 
L 360.700091 270.916264 
L 378.844622 282.033168 
L 396.989153 292.887479 
L 415.133684 303.4854 
L 433.278215 313.832987 
L 451.422745 323.936153 
L 469.567276 333.800671 
L 487.711807 343.432179 
L 505.856338 352.83618 
L 524.000869 362.018049 
L 542.1454 370.983033 
L 560.289931 379.736254 
L 578.434462 388.282715 
L 596.578993 396.627299 
L 614.723524 404.774775 
L 632.868055 412.729799 
L 651.012585 420.496918 
L 669.157116 428.080568 
L 693.349824 437.914184 
L 717.542532 447.439318 
L 741.73524 456.665648 
L 765.927948 465.602547 
L 790.120656 474.259095 
L 814.313364 482.644086 
L 838.506072 490.766039 
L 862.698779 498.633205 
L 886.891487 506.253578 
L 911.084195 513.634898 
L 935.276903 520.784666 
L 959.469611 527.710145 
L 983.662319 534.418371 
L 995.758673 537.693152 
L 995.758673 537.693152 
" clip-path="url(#p6acfea9d62)" style="fill: none; stroke: #8c564b; stroke-width: 5; stroke-linecap: round"/>
   </g>
   <g id="line2d_18">
    <path d="M 88.532127 67.941693 
L 100.628481 80.341873 
L 112.724835 92.513783 
L 124.821189 104.461626 
L 136.917543 116.189527 
L 149.013897 127.701534 
L 161.110251 139.001621 
L 173.206605 150.093691 
L 185.302959 160.981571 
L 203.44749 176.938741 
L 221.592021 192.457323 
L 239.736552 207.549371 
L 257.881082 222.226609 
L 276.025613 236.500437 
L 294.170144 250.381945 
L 312.314675 263.881914 
L 330.459206 277.010832 
L 348.603737 289.778897 
L 366.748268 302.196028 
L 384.892799 314.271869 
L 403.03733 326.015801 
L 421.181861 337.436948 
L 439.326392 348.54418 
L 457.470922 359.346126 
L 475.615453 369.851176 
L 493.759984 380.067492 
L 511.904515 390.003008 
L 530.049046 399.665444 
L 548.193577 409.062304 
L 566.338108 418.200888 
L 584.482639 427.088294 
L 602.62717 435.731428 
L 620.771701 444.137001 
L 638.916232 452.311545 
L 657.060762 460.261408 
L 675.205293 467.992767 
L 693.349824 475.511627 
L 711.494355 482.823828 
L 729.638886 489.93505 
L 747.783417 496.850818 
L 765.927948 503.576504 
L 784.072479 510.117332 
L 802.21701 516.478383 
L 826.409718 524.688652 
L 850.602425 532.599425 
L 874.795133 540.221627 
L 898.987841 547.565785 
L 923.180549 554.642041 
L 947.373257 561.460168 
L 971.565965 568.029581 
L 995.758673 574.359355 
L 995.758673 574.359355 
" clip-path="url(#p6acfea9d62)" style="fill: none; stroke: #e377c2; stroke-width: 5; stroke-linecap: round"/>
   </g>
   <g id="line2d_19">
    <path d="M 88.532127 67.941693 
L 100.628481 82.085339 
L 112.724835 95.932013 
L 124.821189 109.487951 
L 136.917543 122.759258 
L 149.013897 135.751911 
L 161.110251 148.471759 
L 173.206605 160.924532 
L 185.302959 173.115836 
L 197.399313 185.051162 
L 209.495667 196.735884 
L 221.592021 208.175264 
L 233.688375 219.374455 
L 245.784728 230.338498 
L 257.881082 241.072332 
L 269.977436 251.580789 
L 282.07379 261.868603 
L 294.170144 271.940405 
L 306.266498 281.800733 
L 318.362852 291.454024 
L 330.459206 300.904628 
L 342.55556 310.156799 
L 354.651914 319.214705 
L 366.748268 328.082423 
L 378.844622 336.763948 
L 396.989153 349.445652 
L 415.133684 361.730047 
L 433.278215 373.629581 
L 451.422745 385.156311 
L 469.567276 396.321917 
L 487.711807 407.137712 
L 505.856338 417.614657 
L 524.000869 427.763366 
L 542.1454 437.594124 
L 560.289931 447.116891 
L 578.434462 456.341316 
L 596.578993 465.276747 
L 614.723524 473.932238 
L 632.868055 482.316558 
L 651.012585 490.438203 
L 669.157116 498.305404 
L 687.301647 505.92613 
L 705.446178 513.308105 
L 723.590709 520.458807 
L 741.73524 527.385484 
L 759.879771 534.095152 
L 778.024302 540.594612 
L 796.168833 546.890448 
L 814.313364 552.98904 
L 832.457895 558.896568 
L 850.602425 564.619017 
L 868.746956 570.162185 
L 892.939664 577.283879 
L 917.132372 584.109648 
L 941.32508 590.651787 
L 965.517788 596.922082 
L 989.710496 602.93183 
L 995.758673 604.394835 
L 995.758673 604.394835 
" clip-path="url(#p6acfea9d62)" style="fill: none; stroke: #7f7f7f; stroke-width: 5; stroke-linecap: round"/>
   </g>
   <g id="line2d_20">
    <path d="M 88.532127 67.941693 
L 100.628481 83.821918 
L 112.724835 99.327769 
L 124.821189 114.468073 
L 136.917543 129.251447 
L 149.013897 143.686305 
L 161.110251 157.780865 
L 173.206605 171.543148 
L 185.302959 184.980988 
L 197.399313 198.102033 
L 209.495667 210.913752 
L 221.592021 223.423438 
L 233.688375 235.63821 
L 245.784728 247.565021 
L 257.881082 259.210659 
L 269.977436 270.581754 
L 282.07379 281.684778 
L 294.170144 292.52605 
L 306.266498 303.111741 
L 318.362852 313.447876 
L 330.459206 323.540339 
L 342.55556 333.394874 
L 354.651914 343.01709 
L 366.748268 352.412464 
L 378.844622 361.586344 
L 390.940976 370.543952 
L 403.03733 379.290386 
L 415.133684 387.830624 
L 427.230038 396.169528 
L 439.326392 404.311843 
L 451.422745 412.262206 
L 463.519099 420.025139 
L 475.615453 427.605064 
L 487.711807 435.006293 
L 505.856338 445.78227 
L 524.000869 456.17944 
L 542.1454 466.211119 
L 560.289931 475.890154 
L 578.434462 485.228943 
L 596.578993 494.239445 
L 614.723524 502.933201 
L 632.868055 511.321346 
L 651.012585 519.414623 
L 669.157116 527.223397 
L 687.301647 534.757669 
L 705.446178 542.02709 
L 723.590709 549.040968 
L 741.73524 555.808288 
L 759.879771 562.337716 
L 778.024302 568.637616 
L 796.168833 574.716055 
L 814.313364 580.580819 
L 832.457895 586.239419 
L 850.602425 591.699103 
L 868.746956 596.966863 
L 886.891487 602.049445 
L 905.036018 606.953359 
L 929.228726 613.224807 
L 953.421434 619.204044 
L 977.614142 624.904685 
L 995.758673 629.00517 
L 995.758673 629.00517 
" clip-path="url(#p6acfea9d62)" style="fill: none; stroke: #bcbd22; stroke-width: 5; stroke-linecap: round"/>
   </g>
   <g id="line2d_21">
    <path d="M 88.532127 67.941693 
L 100.628481 85.551647 
L 112.724835 102.701228 
L 124.821189 119.402475 
L 136.917543 135.667107 
L 149.013897 151.506537 
L 161.110251 166.931883 
L 173.206605 181.95397 
L 185.302959 196.583339 
L 197.399313 210.830258 
L 209.495667 224.704724 
L 221.592021 238.216475 
L 233.688375 251.374992 
L 245.784728 264.189511 
L 257.881082 276.669025 
L 269.977436 288.82229 
L 282.07379 300.657837 
L 294.170144 312.183972 
L 306.266498 323.408782 
L 318.362852 334.340146 
L 330.459206 344.985735 
L 342.55556 355.353021 
L 354.651914 365.449277 
L 366.748268 375.281591 
L 378.844622 384.856862 
L 390.940976 394.18181 
L 403.03733 403.262979 
L 415.133684 412.106742 
L 427.230038 420.719305 
L 439.326392 429.106714 
L 451.422745 437.274853 
L 463.519099 445.229455 
L 475.615453 452.976103 
L 487.711807 460.520233 
L 499.808161 467.867139 
L 511.904515 475.021977 
L 524.000869 481.989769 
L 536.097223 488.775405 
L 548.193577 495.383646 
L 560.289931 501.819129 
L 578.434462 511.158283 
L 596.578993 520.133615 
L 614.723524 528.759299 
L 632.868055 537.048956 
L 651.012585 545.015676 
L 669.157116 552.67204 
L 687.301647 560.030139 
L 705.446178 567.101591 
L 723.590709 573.897564 
L 741.73524 580.428789 
L 759.879771 586.705579 
L 778.024302 592.737848 
L 796.168833 598.53512 
L 814.313364 604.10655 
L 832.457895 609.460936 
L 850.602425 614.606734 
L 868.746956 619.552069 
L 886.891487 624.304751 
L 905.036018 628.872285 
L 923.180549 633.261883 
L 947.373257 638.849833 
L 971.565965 644.149433 
L 995.758673 649.175563 
L 995.758673 649.175563 
" clip-path="url(#p6acfea9d62)" style="fill: none; stroke: #17becf; stroke-width: 5; stroke-linecap: round"/>
   </g>
   <g id="patch_3">
    <path d="M 88.532127 678.237256 
L 88.532127 38.88 
" style="fill: none; stroke: #262626; stroke-width: 0.8; stroke-linejoin: miter; stroke-linecap: square"/>
   </g>
   <g id="patch_4">
    <path d="M 88.532127 678.237256 
L 1041.12 678.237256 
" style="fill: none; stroke: #262626; stroke-width: 0.8; stroke-linejoin: miter; stroke-linecap: square"/>
   </g>
  </g>
 </g>
 <defs>
  <clipPath id="p6acfea9d62">
   <rect x="88.532127" y="38.88" width="952.587873" height="639.357256"/>
  </clipPath>
 </defs>
</svg>
