<?xml version="1.0" encoding="utf-8" standalone="no"?>
<!DOCTYPE svg PUBLIC "-//W3C//DTD SVG 1.1//EN"
  "http://www.w3.org/Graphics/SVG/1.1/DTD/svg11.dtd">
<svg xmlns:xlink="http://www.w3.org/1999/xlink" width="1080pt" height="576pt" viewBox="0 0 1080 576" xmlns="http://www.w3.org/2000/svg" version="1.1">
 <metadata>
  <rdf:RDF xmlns:dc="http://purl.org/dc/elements/1.1/" xmlns:cc="http://creativecommons.org/ns#" xmlns:rdf="http://www.w3.org/1999/02/22-rdf-syntax-ns#">
   <cc:Work>
    <dc:type rdf:resource="http://purl.org/dc/dcmitype/StillImage"/>
    <dc:date>2024-07-25T21:42:11.373348</dc:date>
    <dc:format>image/svg+xml</dc:format>
    <dc:creator>
     <cc:Agent>
      <dc:title>Matplotlib v3.9.0, https://matplotlib.org/</dc:title>
     </cc:Agent>
    </dc:creator>
   </cc:Work>
  </rdf:RDF>
 </metadata>
 <defs>
  <style type="text/css">*{stroke-linejoin: round; stroke-linecap: butt}</style>
 </defs>
 <g id="figure_1">
  <g id="patch_1">
   <path d="M 0 576 
L 1080 576 
L 1080 0 
L 0 0 
z
" style="fill: #ffffff"/>
  </g>
  <g id="axes_1">
   <g id="patch_2">
    <path d="M 88.532127 498.237256 
L 1041.12 498.237256 
L 1041.12 38.88 
L 88.532127 38.88 
z
" style="fill: #ffffff"/>
   </g>
   <g id="matplotlib.axis_1">
    <g id="xtick_1">
     <g id="line2d_1">
      <defs>
       <path id="mbbebf419c8" d="M 0 0 
L 0 3.5 
" style="stroke: #262626; stroke-width: 0.8"/>
      </defs>
      <g>
       <use xlink:href="#mbbebf419c8" x="88.532127" y="498.237256" style="fill: #262626; stroke: #262626; stroke-width: 0.8"/>
      </g>
     </g>
     <g id="text_1">
      <!-- $\mathdefault{0.0}$ -->
      <g style="fill: #262626" transform="translate(67.206064 530.143856) scale(0.36 -0.36)">
       <defs>
        <path id="CMR17-30" d="M 2688 2025 
C 2688 2416 2682 3080 2413 3591 
C 2176 4039 1798 4198 1466 4198 
C 1158 4198 768 4058 525 3597 
C 269 3118 243 2524 243 2025 
C 243 1661 250 1106 448 619 
C 723 -39 1216 -128 1466 -128 
C 1760 -128 2208 -7 2470 600 
C 2662 1042 2688 1559 2688 2025 
z
M 1466 -26 
C 1056 -26 813 325 723 812 
C 653 1188 653 1738 653 2096 
C 653 2588 653 2997 736 3387 
C 858 3929 1216 4096 1466 4096 
C 1728 4096 2067 3923 2189 3400 
C 2272 3036 2278 2607 2278 2096 
C 2278 1680 2278 1169 2202 792 
C 2067 95 1690 -26 1466 -26 
z
" transform="scale(0.015625)"/>
        <path id="CMMI12-3a" d="M 1178 307 
C 1178 492 1024 619 870 619 
C 685 619 557 466 557 313 
C 557 128 710 0 864 0 
C 1050 0 1178 153 1178 307 
z
" transform="scale(0.015625)"/>
       </defs>
       <use xlink:href="#CMR17-30" transform="scale(0.996264)"/>
       <use xlink:href="#CMMI12-3a" transform="translate(45.690477 0) scale(0.996264)"/>
       <use xlink:href="#CMR17-30" transform="translate(72.787654 0) scale(0.996264)"/>
      </g>
     </g>
    </g>
    <g id="xtick_2">
     <g id="line2d_2">
      <g>
       <use xlink:href="#mbbebf419c8" x="269.977436" y="498.237256" style="fill: #262626; stroke: #262626; stroke-width: 0.8"/>
      </g>
     </g>
     <g id="text_2">
      <!-- $\mathdefault{0.2}$ -->
      <g style="fill: #262626" transform="translate(248.651373 530.143856) scale(0.36 -0.36)">
       <defs>
        <path id="CMR17-32" d="M 2669 989 
L 2554 989 
C 2490 536 2438 459 2413 420 
C 2381 369 1920 369 1830 369 
L 602 369 
C 832 619 1280 1072 1824 1597 
C 2214 1967 2669 2402 2669 3035 
C 2669 3790 2067 4224 1395 4224 
C 691 4224 262 3604 262 3030 
C 262 2780 448 2748 525 2748 
C 589 2748 781 2787 781 3010 
C 781 3207 614 3264 525 3264 
C 486 3264 448 3258 422 3245 
C 544 3790 915 4058 1306 4058 
C 1862 4058 2227 3617 2227 3035 
C 2227 2479 1901 2000 1536 1584 
L 262 146 
L 262 0 
L 2515 0 
L 2669 989 
z
" transform="scale(0.015625)"/>
       </defs>
       <use xlink:href="#CMR17-30" transform="scale(0.996264)"/>
       <use xlink:href="#CMMI12-3a" transform="translate(45.690477 0) scale(0.996264)"/>
       <use xlink:href="#CMR17-32" transform="translate(72.787654 0) scale(0.996264)"/>
      </g>
     </g>
    </g>
    <g id="xtick_3">
     <g id="line2d_3">
      <g>
       <use xlink:href="#mbbebf419c8" x="451.422745" y="498.237256" style="fill: #262626; stroke: #262626; stroke-width: 0.8"/>
      </g>
     </g>
     <g id="text_3">
      <!-- $\mathdefault{0.4}$ -->
      <g style="fill: #262626" transform="translate(430.096682 530.143856) scale(0.36 -0.36)">
       <defs>
        <path id="CMR17-34" d="M 2150 4122 
C 2150 4256 2144 4256 2029 4256 
L 128 1254 
L 128 1088 
L 1779 1088 
L 1779 457 
C 1779 224 1766 160 1318 160 
L 1197 160 
L 1197 0 
C 1402 0 1747 0 1965 0 
C 2182 0 2528 0 2733 0 
L 2733 160 
L 2611 160 
C 2163 160 2150 224 2150 457 
L 2150 1088 
L 2803 1088 
L 2803 1254 
L 2150 1254 
L 2150 4122 
z
M 1798 3703 
L 1798 1254 
L 256 1254 
L 1798 3703 
z
" transform="scale(0.015625)"/>
       </defs>
       <use xlink:href="#CMR17-30" transform="scale(0.996264)"/>
       <use xlink:href="#CMMI12-3a" transform="translate(45.690477 0) scale(0.996264)"/>
       <use xlink:href="#CMR17-34" transform="translate(72.787654 0) scale(0.996264)"/>
      </g>
     </g>
    </g>
    <g id="xtick_4">
     <g id="line2d_4">
      <g>
       <use xlink:href="#mbbebf419c8" x="632.868055" y="498.237256" style="fill: #262626; stroke: #262626; stroke-width: 0.8"/>
      </g>
     </g>
     <g id="text_4">
      <!-- $\mathdefault{0.6}$ -->
      <g style="fill: #262626" transform="translate(611.541991 530.143856) scale(0.36 -0.36)">
       <defs>
        <path id="CMR17-36" d="M 678 2176 
C 678 3690 1395 4032 1811 4032 
C 1946 4032 2272 4009 2400 3776 
C 2298 3776 2106 3776 2106 3553 
C 2106 3381 2246 3323 2336 3323 
C 2394 3323 2566 3348 2566 3560 
C 2566 3954 2246 4179 1805 4179 
C 1043 4179 243 3390 243 1984 
C 243 253 966 -128 1478 -128 
C 2099 -128 2688 427 2688 1283 
C 2688 2081 2170 2662 1517 2662 
C 1126 2662 838 2407 678 1960 
L 678 2176 
z
M 1478 25 
C 691 25 691 1200 691 1436 
C 691 1896 909 2560 1504 2560 
C 1613 2560 1926 2560 2138 2120 
C 2253 1870 2253 1609 2253 1289 
C 2253 944 2253 690 2118 434 
C 1978 171 1773 25 1478 25 
z
" transform="scale(0.015625)"/>
       </defs>
       <use xlink:href="#CMR17-30" transform="scale(0.996264)"/>
       <use xlink:href="#CMMI12-3a" transform="translate(45.690477 0) scale(0.996264)"/>
       <use xlink:href="#CMR17-36" transform="translate(72.787654 0) scale(0.996264)"/>
      </g>
     </g>
    </g>
    <g id="xtick_5">
     <g id="line2d_5">
      <g>
       <use xlink:href="#mbbebf419c8" x="814.313364" y="498.237256" style="fill: #262626; stroke: #262626; stroke-width: 0.8"/>
      </g>
     </g>
     <g id="text_5">
      <!-- $\mathdefault{0.8}$ -->
      <g style="fill: #262626" transform="translate(792.9873 530.143856) scale(0.36 -0.36)">
       <defs>
        <path id="CMR17-38" d="M 1741 2264 
C 2144 2467 2554 2773 2554 3263 
C 2554 3841 1990 4179 1472 4179 
C 890 4179 378 3759 378 3180 
C 378 3021 416 2747 666 2505 
C 730 2442 998 2251 1171 2130 
C 883 1983 211 1634 211 934 
C 211 279 838 -128 1459 -128 
C 2144 -128 2720 362 2720 1010 
C 2720 1590 2330 1857 2074 2029 
L 1741 2264 
z
M 902 2822 
C 851 2854 595 3051 595 3351 
C 595 3739 998 4032 1459 4032 
C 1965 4032 2336 3676 2336 3262 
C 2336 2669 1670 2331 1638 2331 
C 1632 2331 1626 2331 1574 2370 
L 902 2822 
z
M 2080 1519 
C 2176 1449 2483 1240 2483 851 
C 2483 381 2010 25 1472 25 
C 890 25 448 438 448 940 
C 448 1443 838 1862 1280 2060 
L 2080 1519 
z
" transform="scale(0.015625)"/>
       </defs>
       <use xlink:href="#CMR17-30" transform="scale(0.996264)"/>
       <use xlink:href="#CMMI12-3a" transform="translate(45.690477 0) scale(0.996264)"/>
       <use xlink:href="#CMR17-38" transform="translate(72.787654 0) scale(0.996264)"/>
      </g>
     </g>
    </g>
    <g id="xtick_6">
     <g id="line2d_6">
      <g>
       <use xlink:href="#mbbebf419c8" x="995.758673" y="498.237256" style="fill: #262626; stroke: #262626; stroke-width: 0.8"/>
      </g>
     </g>
     <g id="text_6">
      <!-- $\mathdefault{1.0}$ -->
      <g style="fill: #262626" transform="translate(974.432609 530.143856) scale(0.36 -0.36)">
       <defs>
        <path id="CMR17-31" d="M 1702 4058 
C 1702 4192 1696 4192 1606 4192 
C 1357 3916 979 3827 621 3827 
C 602 3827 570 3827 563 3808 
C 557 3795 557 3782 557 3648 
C 755 3648 1088 3686 1344 3839 
L 1344 461 
C 1344 236 1331 160 781 160 
L 589 160 
L 589 0 
C 896 0 1216 0 1523 0 
C 1830 0 2150 0 2458 0 
L 2458 160 
L 2266 160 
C 1715 160 1702 230 1702 458 
L 1702 4058 
z
" transform="scale(0.015625)"/>
       </defs>
       <use xlink:href="#CMR17-31" transform="scale(0.996264)"/>
       <use xlink:href="#CMMI12-3a" transform="translate(45.690477 0) scale(0.996264)"/>
       <use xlink:href="#CMR17-30" transform="translate(72.787654 0) scale(0.996264)"/>
      </g>
     </g>
    </g>
   </g>
   <g id="matplotlib.axis_2">
    <g id="ytick_1">
     <g id="line2d_7">
      <defs>
       <path id="m54d79f013f" d="M 0 0 
L -3.5 0 
" style="stroke: #262626; stroke-width: 0.8"/>
      </defs>
      <g>
       <use xlink:href="#m54d79f013f" x="88.532127" y="419.053447" style="fill: #262626; stroke: #262626; stroke-width: 0.8"/>
      </g>
     </g>
     <g id="text_7">
      <!-- $\mathdefault{0.4}$ -->
      <g style="fill: #262626" transform="translate(38.88 431.506747) scale(0.36 -0.36)">
       <use xlink:href="#CMR17-30" transform="scale(0.996264)"/>
       <use xlink:href="#CMMI12-3a" transform="translate(45.690477 0) scale(0.996264)"/>
       <use xlink:href="#CMR17-34" transform="translate(72.787654 0) scale(0.996264)"/>
      </g>
     </g>
    </g>
    <g id="ytick_2">
     <g id="line2d_8">
      <g>
       <use xlink:href="#m54d79f013f" x="88.532127" y="299.288923" style="fill: #262626; stroke: #262626; stroke-width: 0.8"/>
      </g>
     </g>
     <g id="text_8">
      <!-- $\mathdefault{0.6}$ -->
      <g style="fill: #262626" transform="translate(38.88 311.742223) scale(0.36 -0.36)">
       <use xlink:href="#CMR17-30" transform="scale(0.996264)"/>
       <use xlink:href="#CMMI12-3a" transform="translate(45.690477 0) scale(0.996264)"/>
       <use xlink:href="#CMR17-36" transform="translate(72.787654 0) scale(0.996264)"/>
      </g>
     </g>
    </g>
    <g id="ytick_3">
     <g id="line2d_9">
      <g>
       <use xlink:href="#m54d79f013f" x="88.532127" y="179.524399" style="fill: #262626; stroke: #262626; stroke-width: 0.8"/>
      </g>
     </g>
     <g id="text_9">
      <!-- $\mathdefault{0.8}$ -->
      <g style="fill: #262626" transform="translate(38.88 191.977699) scale(0.36 -0.36)">
       <use xlink:href="#CMR17-30" transform="scale(0.996264)"/>
       <use xlink:href="#CMMI12-3a" transform="translate(45.690477 0) scale(0.996264)"/>
       <use xlink:href="#CMR17-38" transform="translate(72.787654 0) scale(0.996264)"/>
      </g>
     </g>
    </g>
    <g id="ytick_4">
     <g id="line2d_10">
      <g>
       <use xlink:href="#m54d79f013f" x="88.532127" y="59.759875" style="fill: #262626; stroke: #262626; stroke-width: 0.8"/>
      </g>
     </g>
     <g id="text_10">
      <!-- $\mathdefault{1.0}$ -->
      <g style="fill: #262626" transform="translate(38.88 72.213175) scale(0.36 -0.36)">
       <use xlink:href="#CMR17-31" transform="scale(0.996264)"/>
       <use xlink:href="#CMMI12-3a" transform="translate(45.690477 0) scale(0.996264)"/>
       <use xlink:href="#CMR17-30" transform="translate(72.787654 0) scale(0.996264)"/>
      </g>
     </g>
    </g>
   </g>
   <g id="line2d_11">
    <path d="M 88.532127 59.759875 
L 106.676658 73.904699 
L 124.821189 87.715408 
L 142.96572 101.199893 
L 161.110251 114.365861 
L 179.254782 127.220834 
L 197.399313 139.772159 
L 215.543844 152.027009 
L 233.688375 163.992386 
L 251.832905 175.675128 
L 269.977436 187.081912 
L 288.121967 198.219255 
L 306.266498 209.093523 
L 324.411029 219.710928 
L 342.55556 230.077539 
L 360.700091 240.19928 
L 378.844622 250.081935 
L 396.989153 259.731151 
L 415.133684 269.152442 
L 433.278215 278.351192 
L 451.422745 287.332659 
L 469.567276 296.101973 
L 487.711807 304.664147 
L 505.856338 313.024073 
L 524.000869 321.186529 
L 542.1454 329.156179 
L 560.289931 336.937578 
L 578.434462 344.535171 
L 602.62717 354.386867 
L 626.819878 363.929513 
L 651.012585 373.172806 
L 675.205293 382.126136 
L 699.398001 390.7986 
L 723.590709 399.199007 
L 747.783417 407.335892 
L 771.976125 415.217523 
L 796.168833 422.851906 
L 820.361541 430.246798 
L 844.554248 437.409711 
L 868.746956 444.347923 
L 892.939664 451.068483 
L 917.132372 457.578218 
L 941.32508 463.883742 
L 965.517788 469.991461 
L 989.710496 475.90758 
L 995.758673 477.357381 
L 995.758673 477.357381 
" clip-path="url(#p942f8db99b)" style="fill: none; stroke: #1f77b4; stroke-width: 4; stroke-linecap: round"/>
   </g>
   <g id="line2d_12">
    <path d="M 88.532127 59.759875 
L 106.676658 73.9047 
L 124.821189 87.715409 
L 142.96572 101.199894 
L 161.110251 114.365862 
L 179.254782 127.220835 
L 197.399313 139.77216 
L 215.543844 152.02701 
L 233.688375 163.992387 
L 251.832905 175.675129 
L 269.977436 187.081912 
L 288.121967 198.219255 
L 306.266498 209.093523 
L 324.411029 219.710928 
L 342.55556 230.07754 
L 360.700091 240.19928 
L 378.844622 250.081935 
L 396.989153 259.731151 
L 415.133684 269.152442 
L 433.278215 278.351193 
L 451.422745 287.332659 
L 469.567276 296.101973 
L 487.711807 304.664147 
L 505.856338 313.024073 
L 524.000869 321.186529 
L 542.1454 329.156179 
L 560.289931 336.937578 
L 578.434462 344.535171 
L 602.62717 354.386867 
L 626.819878 363.929513 
L 651.012585 373.172806 
L 675.205293 382.126137 
L 699.398001 390.7986 
L 723.590709 399.199007 
L 747.783417 407.335892 
L 771.976125 415.217523 
L 796.168833 422.851906 
L 820.361541 430.246798 
L 844.554248 437.409711 
L 868.746956 444.347923 
L 892.939664 451.068483 
L 917.132372 457.578218 
L 941.32508 463.883742 
L 965.517788 469.991461 
L 989.710496 475.90758 
L 995.758673 477.35738 
L 995.758673 477.35738 
" clip-path="url(#p942f8db99b)" style="fill: none; stroke: #ff7f0e; stroke-width: 4; stroke-linecap: round"/>
   </g>
   <g id="line2d_13">
    <path d="M 88.532127 59.759875 
L 106.676658 73.9047 
L 124.821189 87.715409 
L 142.96572 101.199894 
L 161.110251 114.365861 
L 179.254782 127.220835 
L 197.399313 139.77216 
L 215.543844 152.027009 
L 233.688375 163.992387 
L 251.832905 175.675129 
L 269.977436 187.081912 
L 288.121967 198.219256 
L 306.266498 209.093523 
L 324.411029 219.710929 
L 342.55556 230.07754 
L 360.700091 240.199281 
L 378.844622 250.081935 
L 396.989153 259.731151 
L 415.133684 269.152442 
L 433.278215 278.351193 
L 451.422745 287.332659 
L 469.567276 296.101973 
L 487.711807 304.664147 
L 505.856338 313.024073 
L 524.000869 321.186529 
L 542.1454 329.156179 
L 560.289931 336.937578 
L 578.434462 344.535171 
L 602.62717 354.386867 
L 626.819878 363.929514 
L 651.012585 373.172807 
L 675.205293 382.126137 
L 699.398001 390.7986 
L 723.590709 399.199007 
L 747.783417 407.335892 
L 771.976125 415.217523 
L 796.168833 422.851906 
L 820.361541 430.246798 
L 844.554248 437.409711 
L 868.746956 444.347923 
L 892.939664 451.068483 
L 917.132372 457.578218 
L 941.32508 463.883742 
L 965.517788 469.991461 
L 989.710496 475.90758 
L 995.758673 477.357381 
L 995.758673 477.357381 
" clip-path="url(#p942f8db99b)" style="fill: none; stroke: #2ca02c; stroke-width: 4; stroke-linecap: round"/>
   </g>
   <g id="line2d_14">
    <path d="M 88.532127 59.759875 
L 106.676658 73.9047 
L 124.821189 87.715409 
L 142.96572 101.199894 
L 161.110251 114.365861 
L 179.254782 127.220834 
L 197.399313 139.772159 
L 215.543844 152.027008 
L 233.688375 163.992385 
L 251.832905 175.675127 
L 269.977436 187.081911 
L 288.121967 198.219255 
L 306.266498 209.093522 
L 324.411029 219.710929 
L 342.55556 230.07754 
L 360.700091 240.199282 
L 378.844622 250.081937 
L 396.989153 259.731153 
L 415.133684 269.152444 
L 433.278215 278.351195 
L 451.422745 287.332661 
L 469.567276 296.101975 
L 487.711807 304.664149 
L 505.856338 313.024075 
L 524.000869 321.186531 
L 542.1454 329.15618 
L 560.289931 336.937579 
L 578.434462 344.535172 
L 602.62717 354.386867 
L 626.819878 363.929513 
L 651.012585 373.172806 
L 675.205293 382.126136 
L 699.398001 390.798599 
L 723.590709 399.199006 
L 747.783417 407.335891 
L 771.976125 415.217522 
L 796.168833 422.851905 
L 820.361541 430.246797 
L 844.554248 437.40971 
L 868.746956 444.347922 
L 892.939664 451.068481 
L 917.132372 457.578216 
L 941.32508 463.883741 
L 965.517788 469.991461 
L 989.710496 475.90758 
L 995.758673 477.35738 
L 995.758673 477.35738 
" clip-path="url(#p942f8db99b)" style="fill: none; stroke: #d62728; stroke-width: 4; stroke-linecap: round"/>
   </g>
   <g id="line2d_15">
    <path d="M 88.532127 59.759875 
L 106.676658 73.9047 
L 124.821189 87.715409 
L 142.96572 101.199894 
L 161.110251 114.365861 
L 179.254782 127.220835 
L 197.399313 139.77216 
L 215.543844 152.02701 
L 233.688375 163.992387 
L 251.832905 175.675129 
L 269.977436 187.081912 
L 288.121967 198.219256 
L 306.266498 209.093523 
L 324.411029 219.710928 
L 342.55556 230.07754 
L 360.700091 240.199281 
L 378.844622 250.081935 
L 396.989153 259.731151 
L 415.133684 269.152442 
L 433.278215 278.351193 
L 451.422745 287.332659 
L 469.567276 296.101973 
L 487.711807 304.664147 
L 505.856338 313.024073 
L 524.000869 321.186529 
L 542.1454 329.156179 
L 560.289931 336.937578 
L 578.434462 344.535171 
L 602.62717 354.386867 
L 626.819878 363.929514 
L 651.012585 373.172807 
L 675.205293 382.126137 
L 699.398001 390.7986 
L 723.590709 399.199007 
L 747.783417 407.335892 
L 771.976125 415.217523 
L 796.168833 422.851906 
L 820.361541 430.246798 
L 844.554248 437.409711 
L 868.746956 444.347923 
L 892.939664 451.068483 
L 917.132372 457.578218 
L 941.32508 463.883742 
L 965.517788 469.991461 
L 989.710496 475.90758 
L 995.758673 477.357381 
L 995.758673 477.357381 
" clip-path="url(#p942f8db99b)" style="fill: none; stroke: #9467bd; stroke-width: 4; stroke-linecap: round"/>
   </g>
   <g id="line2d_16">
    <path d="M 88.532127 59.759875 
L 106.676658 73.9047 
L 124.821189 87.715409 
L 142.96572 101.199894 
L 161.110251 114.365861 
L 179.254782 127.220835 
L 197.399313 139.77216 
L 215.543844 152.027009 
L 233.688375 163.992387 
L 251.832905 175.675129 
L 269.977436 187.081912 
L 288.121967 198.219255 
L 306.266498 209.093523 
L 324.411029 219.710928 
L 342.55556 230.07754 
L 360.700091 240.199281 
L 378.844622 250.081935 
L 396.989153 259.731151 
L 415.133684 269.152442 
L 433.278215 278.351193 
L 451.422745 287.332659 
L 469.567276 296.101973 
L 487.711807 304.664147 
L 505.856338 313.024073 
L 524.000869 321.186529 
L 542.1454 329.156179 
L 560.289931 336.937578 
L 578.434462 344.535171 
L 602.62717 354.386867 
L 626.819878 363.929514 
L 651.012585 373.172807 
L 675.205293 382.126137 
L 699.398001 390.7986 
L 723.590709 399.199007 
L 747.783417 407.335892 
L 771.976125 415.217523 
L 796.168833 422.851906 
L 820.361541 430.246798 
L 844.554248 437.409711 
L 868.746956 444.347923 
L 892.939664 451.068483 
L 917.132372 457.578218 
L 941.32508 463.883742 
L 965.517788 469.991461 
L 989.710496 475.90758 
L 995.758673 477.357381 
L 995.758673 477.357381 
" clip-path="url(#p942f8db99b)" style="fill: none; stroke: #8c564b; stroke-width: 4; stroke-linecap: round"/>
   </g>
   <g id="line2d_17">
    <path d="M 88.532127 59.759875 
L 106.676658 73.9047 
L 124.821189 87.715409 
L 142.96572 101.199894 
L 161.110251 114.365861 
L 179.254782 127.220835 
L 197.399313 139.77216 
L 215.543844 152.02701 
L 233.688375 163.992387 
L 251.832905 175.675129 
L 269.977436 187.081912 
L 288.121967 198.219256 
L 306.266498 209.093523 
L 324.411029 219.710928 
L 342.55556 230.07754 
L 360.700091 240.199281 
L 378.844622 250.081935 
L 396.989153 259.731151 
L 415.133684 269.152442 
L 433.278215 278.351193 
L 451.422745 287.332659 
L 469.567276 296.101973 
L 487.711807 304.664147 
L 505.856338 313.024073 
L 524.000869 321.186529 
L 542.1454 329.156179 
L 560.289931 336.937578 
L 578.434462 344.535171 
L 602.62717 354.386867 
L 626.819878 363.929514 
L 651.012585 373.172807 
L 675.205293 382.126137 
L 699.398001 390.7986 
L 723.590709 399.199007 
L 747.783417 407.335892 
L 771.976125 415.217523 
L 796.168833 422.851906 
L 820.361541 430.246798 
L 844.554248 437.409711 
L 868.746956 444.347923 
L 892.939664 451.068483 
L 917.132372 457.578218 
L 941.32508 463.883742 
L 965.517788 469.991461 
L 989.710496 475.90758 
L 995.758673 477.357381 
L 995.758673 477.357381 
" clip-path="url(#p942f8db99b)" style="fill: none; stroke: #e377c2; stroke-width: 4; stroke-linecap: round"/>
   </g>
   <g id="line2d_18">
    <path d="M 88.532127 59.759875 
L 106.676658 73.9047 
L 124.821189 87.715409 
L 142.96572 101.199894 
L 161.110251 114.365861 
L 179.254782 127.220835 
L 197.399313 139.77216 
L 215.543844 152.02701 
L 233.688375 163.992387 
L 251.832905 175.675129 
L 269.977436 187.081912 
L 288.121967 198.219255 
L 306.266498 209.093522 
L 324.411029 219.710928 
L 342.55556 230.07754 
L 360.700091 240.199281 
L 378.844622 250.081936 
L 396.989153 259.731152 
L 415.133684 269.152443 
L 433.278215 278.351193 
L 451.422745 287.332659 
L 469.567276 296.101973 
L 487.711807 304.664146 
L 505.856338 313.024072 
L 524.000869 321.186528 
L 542.1454 329.156178 
L 560.289931 336.937577 
L 578.434462 344.535171 
L 602.62717 354.386867 
L 626.819878 363.929515 
L 651.012585 373.172808 
L 675.205293 382.126138 
L 699.398001 390.798601 
L 723.590709 399.199008 
L 747.783417 407.335892 
L 771.976125 415.217523 
L 796.168833 422.851906 
L 820.361541 430.246797 
L 844.554248 437.409705 
L 868.746956 444.347917 
L 892.939664 451.068492 
L 917.132372 457.57824 
L 941.32508 463.883735 
L 965.517788 469.991403 
L 989.710496 475.907546 
L 995.758673 477.357372 
L 995.758673 477.357372 
" clip-path="url(#p942f8db99b)" style="fill: none; stroke: #7f7f7f; stroke-width: 4; stroke-linecap: round"/>
   </g>
   <g id="line2d_19">
    <path d="M 88.532127 59.759875 
L 106.676658 73.904701 
L 124.821189 87.715409 
L 142.96572 101.199897 
L 161.110251 114.365859 
L 179.254782 127.22083 
L 197.399313 139.772159 
L 215.543844 152.027014 
L 233.688375 163.992392 
L 251.832905 175.675132 
L 269.977436 187.08191 
L 288.121967 198.219249 
L 306.266498 209.093516 
L 324.411029 219.710924 
L 342.55556 230.077539 
L 360.700091 240.199285 
L 378.844622 250.081942 
L 396.989153 259.73116 
L 415.133684 269.152449 
L 433.278215 278.351197 
L 451.422745 287.332658 
L 469.567276 296.101969 
L 487.711807 304.664141 
L 505.856338 313.024064 
L 524.000869 321.186521 
L 542.1454 329.156174 
L 560.289931 336.937574 
L 578.434462 344.535172 
L 602.62717 354.38687 
L 626.819878 363.929519 
L 651.012585 373.172812 
L 675.205293 382.126142 
L 699.398001 390.798604 
L 723.590709 399.199009 
L 747.783417 407.335893 
L 771.976125 415.21752 
L 796.168833 422.851902 
L 820.361541 430.246796 
L 844.554248 437.409713 
L 868.746956 444.347917 
L 892.939664 451.068461 
L 917.132372 457.578213 
L 941.32508 463.883789 
L 965.517788 469.991504 
L 989.710496 475.907507 
L 995.758673 477.357277 
L 995.758673 477.357277 
" clip-path="url(#p942f8db99b)" style="fill: none; stroke: #bcbd22; stroke-width: 4; stroke-linecap: round"/>
   </g>
   <g id="line2d_20">
    <path d="M 88.532127 59.759875 
L 106.676658 73.9047 
L 124.821189 87.715409 
L 142.96572 101.199894 
L 161.110251 114.365861 
L 179.254782 127.220835 
L 197.399313 139.77216 
L 215.543844 152.02701 
L 233.688375 163.992387 
L 251.832905 175.675129 
L 269.977436 187.081912 
L 288.121967 198.219256 
L 306.266498 209.093523 
L 324.411029 219.710928 
L 342.55556 230.07754 
L 360.700091 240.199281 
L 378.844622 250.081935 
L 396.989153 259.731151 
L 415.133684 269.152442 
L 433.278215 278.351193 
L 451.422745 287.332659 
L 469.567276 296.101973 
L 487.711807 304.664147 
L 505.856338 313.024073 
L 524.000869 321.186529 
L 542.1454 329.156179 
L 560.289931 336.937578 
L 578.434462 344.535171 
L 602.62717 354.386867 
L 626.819878 363.929514 
L 651.012585 373.172807 
L 675.205293 382.126137 
L 699.398001 390.7986 
L 723.590709 399.199007 
L 747.783417 407.335892 
L 771.976125 415.217523 
L 796.168833 422.851906 
L 820.361541 430.246798 
L 844.554248 437.409711 
L 868.746956 444.347923 
L 892.939664 451.068483 
L 917.132372 457.578218 
L 941.32508 463.883742 
L 965.517788 469.991461 
L 989.710496 475.90758 
L 995.758673 477.357381 
L 995.758673 477.357381 
" clip-path="url(#p942f8db99b)" style="fill: none; stroke: #17becf; stroke-width: 4; stroke-linecap: round"/>
   </g>
   <g id="patch_3">
    <path d="M 88.532127 498.237256 
L 88.532127 38.88 
" style="fill: none; stroke: #262626; stroke-width: 0.8; stroke-linejoin: miter; stroke-linecap: square"/>
   </g>
   <g id="patch_4">
    <path d="M 88.532127 498.237256 
L 1041.12 498.237256 
" style="fill: none; stroke: #262626; stroke-width: 0.8; stroke-linejoin: miter; stroke-linecap: square"/>
   </g>
  </g>
 </g>
 <defs>
  <clipPath id="p942f8db99b">
   <rect x="88.532127" y="38.88" width="952.587873" height="459.357256"/>
  </clipPath>
 </defs>
</svg>
