<?xml version="1.0" encoding="utf-8" standalone="no"?>
<!DOCTYPE svg PUBLIC "-//W3C//DTD SVG 1.1//EN"
  "http://www.w3.org/Graphics/SVG/1.1/DTD/svg11.dtd">
<svg xmlns:xlink="http://www.w3.org/1999/xlink" width="1080pt" height="576pt" viewBox="0 0 1080 576" xmlns="http://www.w3.org/2000/svg" version="1.1">
 <metadata>
  <rdf:RDF xmlns:dc="http://purl.org/dc/elements/1.1/" xmlns:cc="http://creativecommons.org/ns#" xmlns:rdf="http://www.w3.org/1999/02/22-rdf-syntax-ns#">
   <cc:Work>
    <dc:type rdf:resource="http://purl.org/dc/dcmitype/StillImage"/>
    <dc:date>2024-07-24T00:25:29.400253</dc:date>
    <dc:format>image/svg+xml</dc:format>
    <dc:creator>
     <cc:Agent>
      <dc:title>Matplotlib v3.9.0, https://matplotlib.org/</dc:title>
     </cc:Agent>
    </dc:creator>
   </cc:Work>
  </rdf:RDF>
 </metadata>
 <defs>
  <style type="text/css">*{stroke-linejoin: round; stroke-linecap: butt}</style>
 </defs>
 <g id="figure_1">
  <g id="patch_1">
   <path d="M 0 576 
L 1080 576 
L 1080 0 
L 0 0 
z
" style="fill: #ffffff"/>
  </g>
  <g id="axes_1">
   <g id="patch_2">
    <path d="M 46.383522 535.390936 
L 1060.56 535.390936 
L 1060.56 19.44 
L 46.383522 19.44 
z
" style="fill: #eaeaf2"/>
   </g>
   <g id="matplotlib.axis_1">
    <g id="xtick_1">
     <g id="line2d_1">
      <path d="M 46.383522 535.390936 
L 46.383522 19.44 
" clip-path="url(#p584aa3ace9)" style="fill: none; stroke: #ffffff; stroke-width: 0.8; stroke-linecap: round"/>
     </g>
     <g id="text_1">
      <!-- $\mathdefault{0.0}$ -->
      <g style="fill: #262626" transform="translate(36.411761 553.460524) scale(0.16 -0.16)">
       <defs>
        <path id="CMR17-30" d="M 2688 2025 
C 2688 2416 2682 3080 2413 3591 
C 2176 4039 1798 4198 1466 4198 
C 1158 4198 768 4058 525 3597 
C 269 3118 243 2524 243 2025 
C 243 1661 250 1106 448 619 
C 723 -39 1216 -128 1466 -128 
C 1760 -128 2208 -7 2470 600 
C 2662 1042 2688 1559 2688 2025 
z
M 1466 -26 
C 1056 -26 813 325 723 812 
C 653 1188 653 1738 653 2096 
C 653 2588 653 2997 736 3387 
C 858 3929 1216 4096 1466 4096 
C 1728 4096 2067 3923 2189 3400 
C 2272 3036 2278 2607 2278 2096 
C 2278 1680 2278 1169 2202 792 
C 2067 95 1690 -26 1466 -26 
z
" transform="scale(0.015625)"/>
        <path id="CMMI12-3a" d="M 1178 307 
C 1178 492 1024 619 870 619 
C 685 619 557 466 557 313 
C 557 128 710 0 864 0 
C 1050 0 1178 153 1178 307 
z
" transform="scale(0.015625)"/>
       </defs>
       <use xlink:href="#CMR17-30" transform="scale(0.996264)"/>
       <use xlink:href="#CMMI12-3a" transform="translate(45.690477 0) scale(0.996264)"/>
       <use xlink:href="#CMR17-30" transform="translate(72.787654 0) scale(0.996264)"/>
      </g>
     </g>
    </g>
    <g id="xtick_2">
     <g id="line2d_2">
      <path d="M 239.559994 535.390936 
L 239.559994 19.44 
" clip-path="url(#p584aa3ace9)" style="fill: none; stroke: #ffffff; stroke-width: 0.8; stroke-linecap: round"/>
     </g>
     <g id="text_2">
      <!-- $\mathdefault{0.2}$ -->
      <g style="fill: #262626" transform="translate(229.588233 553.460524) scale(0.16 -0.16)">
       <defs>
        <path id="CMR17-32" d="M 2669 989 
L 2554 989 
C 2490 536 2438 459 2413 420 
C 2381 369 1920 369 1830 369 
L 602 369 
C 832 619 1280 1072 1824 1597 
C 2214 1967 2669 2402 2669 3035 
C 2669 3790 2067 4224 1395 4224 
C 691 4224 262 3604 262 3030 
C 262 2780 448 2748 525 2748 
C 589 2748 781 2787 781 3010 
C 781 3207 614 3264 525 3264 
C 486 3264 448 3258 422 3245 
C 544 3790 915 4058 1306 4058 
C 1862 4058 2227 3617 2227 3035 
C 2227 2479 1901 2000 1536 1584 
L 262 146 
L 262 0 
L 2515 0 
L 2669 989 
z
" transform="scale(0.015625)"/>
       </defs>
       <use xlink:href="#CMR17-30" transform="scale(0.996264)"/>
       <use xlink:href="#CMMI12-3a" transform="translate(45.690477 0) scale(0.996264)"/>
       <use xlink:href="#CMR17-32" transform="translate(72.787654 0) scale(0.996264)"/>
      </g>
     </g>
    </g>
    <g id="xtick_3">
     <g id="line2d_3">
      <path d="M 432.736466 535.390936 
L 432.736466 19.44 
" clip-path="url(#p584aa3ace9)" style="fill: none; stroke: #ffffff; stroke-width: 0.8; stroke-linecap: round"/>
     </g>
     <g id="text_3">
      <!-- $\mathdefault{0.4}$ -->
      <g style="fill: #262626" transform="translate(422.764705 553.460524) scale(0.16 -0.16)">
       <defs>
        <path id="CMR17-34" d="M 2150 4122 
C 2150 4256 2144 4256 2029 4256 
L 128 1254 
L 128 1088 
L 1779 1088 
L 1779 457 
C 1779 224 1766 160 1318 160 
L 1197 160 
L 1197 0 
C 1402 0 1747 0 1965 0 
C 2182 0 2528 0 2733 0 
L 2733 160 
L 2611 160 
C 2163 160 2150 224 2150 457 
L 2150 1088 
L 2803 1088 
L 2803 1254 
L 2150 1254 
L 2150 4122 
z
M 1798 3703 
L 1798 1254 
L 256 1254 
L 1798 3703 
z
" transform="scale(0.015625)"/>
       </defs>
       <use xlink:href="#CMR17-30" transform="scale(0.996264)"/>
       <use xlink:href="#CMMI12-3a" transform="translate(45.690477 0) scale(0.996264)"/>
       <use xlink:href="#CMR17-34" transform="translate(72.787654 0) scale(0.996264)"/>
      </g>
     </g>
    </g>
    <g id="xtick_4">
     <g id="line2d_4">
      <path d="M 625.912938 535.390936 
L 625.912938 19.44 
" clip-path="url(#p584aa3ace9)" style="fill: none; stroke: #ffffff; stroke-width: 0.8; stroke-linecap: round"/>
     </g>
     <g id="text_4">
      <!-- $\mathdefault{0.6}$ -->
      <g style="fill: #262626" transform="translate(615.941177 553.460524) scale(0.16 -0.16)">
       <defs>
        <path id="CMR17-36" d="M 678 2176 
C 678 3690 1395 4032 1811 4032 
C 1946 4032 2272 4009 2400 3776 
C 2298 3776 2106 3776 2106 3553 
C 2106 3381 2246 3323 2336 3323 
C 2394 3323 2566 3348 2566 3560 
C 2566 3954 2246 4179 1805 4179 
C 1043 4179 243 3390 243 1984 
C 243 253 966 -128 1478 -128 
C 2099 -128 2688 427 2688 1283 
C 2688 2081 2170 2662 1517 2662 
C 1126 2662 838 2407 678 1960 
L 678 2176 
z
M 1478 25 
C 691 25 691 1200 691 1436 
C 691 1896 909 2560 1504 2560 
C 1613 2560 1926 2560 2138 2120 
C 2253 1870 2253 1609 2253 1289 
C 2253 944 2253 690 2118 434 
C 1978 171 1773 25 1478 25 
z
" transform="scale(0.015625)"/>
       </defs>
       <use xlink:href="#CMR17-30" transform="scale(0.996264)"/>
       <use xlink:href="#CMMI12-3a" transform="translate(45.690477 0) scale(0.996264)"/>
       <use xlink:href="#CMR17-36" transform="translate(72.787654 0) scale(0.996264)"/>
      </g>
     </g>
    </g>
    <g id="xtick_5">
     <g id="line2d_5">
      <path d="M 819.08941 535.390936 
L 819.08941 19.44 
" clip-path="url(#p584aa3ace9)" style="fill: none; stroke: #ffffff; stroke-width: 0.8; stroke-linecap: round"/>
     </g>
     <g id="text_5">
      <!-- $\mathdefault{0.8}$ -->
      <g style="fill: #262626" transform="translate(809.117649 553.460524) scale(0.16 -0.16)">
       <defs>
        <path id="CMR17-38" d="M 1741 2264 
C 2144 2467 2554 2773 2554 3263 
C 2554 3841 1990 4179 1472 4179 
C 890 4179 378 3759 378 3180 
C 378 3021 416 2747 666 2505 
C 730 2442 998 2251 1171 2130 
C 883 1983 211 1634 211 934 
C 211 279 838 -128 1459 -128 
C 2144 -128 2720 362 2720 1010 
C 2720 1590 2330 1857 2074 2029 
L 1741 2264 
z
M 902 2822 
C 851 2854 595 3051 595 3351 
C 595 3739 998 4032 1459 4032 
C 1965 4032 2336 3676 2336 3262 
C 2336 2669 1670 2331 1638 2331 
C 1632 2331 1626 2331 1574 2370 
L 902 2822 
z
M 2080 1519 
C 2176 1449 2483 1240 2483 851 
C 2483 381 2010 25 1472 25 
C 890 25 448 438 448 940 
C 448 1443 838 1862 1280 2060 
L 2080 1519 
z
" transform="scale(0.015625)"/>
       </defs>
       <use xlink:href="#CMR17-30" transform="scale(0.996264)"/>
       <use xlink:href="#CMMI12-3a" transform="translate(45.690477 0) scale(0.996264)"/>
       <use xlink:href="#CMR17-38" transform="translate(72.787654 0) scale(0.996264)"/>
      </g>
     </g>
    </g>
    <g id="xtick_6">
     <g id="line2d_6">
      <path d="M 1012.265882 535.390936 
L 1012.265882 19.44 
" clip-path="url(#p584aa3ace9)" style="fill: none; stroke: #ffffff; stroke-width: 0.8; stroke-linecap: round"/>
     </g>
     <g id="text_6">
      <!-- $\mathdefault{1.0}$ -->
      <g style="fill: #262626" transform="translate(1002.294121 553.460524) scale(0.16 -0.16)">
       <defs>
        <path id="CMR17-31" d="M 1702 4058 
C 1702 4192 1696 4192 1606 4192 
C 1357 3916 979 3827 621 3827 
C 602 3827 570 3827 563 3808 
C 557 3795 557 3782 557 3648 
C 755 3648 1088 3686 1344 3839 
L 1344 461 
C 1344 236 1331 160 781 160 
L 589 160 
L 589 0 
C 896 0 1216 0 1523 0 
C 1830 0 2150 0 2458 0 
L 2458 160 
L 2266 160 
C 1715 160 1702 230 1702 458 
L 1702 4058 
z
" transform="scale(0.015625)"/>
       </defs>
       <use xlink:href="#CMR17-31" transform="scale(0.996264)"/>
       <use xlink:href="#CMMI12-3a" transform="translate(45.690477 0) scale(0.996264)"/>
       <use xlink:href="#CMR17-30" transform="translate(72.787654 0) scale(0.996264)"/>
      </g>
     </g>
    </g>
   </g>
   <g id="matplotlib.axis_2">
    <g id="ytick_1">
     <g id="line2d_7">
      <path d="M 46.383522 493.39995 
L 1060.56 493.39995 
" clip-path="url(#p584aa3ace9)" style="fill: none; stroke: #ffffff; stroke-width: 0.8; stroke-linecap: round"/>
     </g>
     <g id="text_7">
      <!-- $\mathdefault{0.2}$ -->
      <g style="fill: #262626" transform="translate(19.44 498.934744) scale(0.16 -0.16)">
       <use xlink:href="#CMR17-30" transform="scale(0.996264)"/>
       <use xlink:href="#CMMI12-3a" transform="translate(45.690477 0) scale(0.996264)"/>
       <use xlink:href="#CMR17-32" transform="translate(72.787654 0) scale(0.996264)"/>
      </g>
     </g>
    </g>
    <g id="ytick_2">
     <g id="line2d_8">
      <path d="M 46.383522 380.773041 
L 1060.56 380.773041 
" clip-path="url(#p584aa3ace9)" style="fill: none; stroke: #ffffff; stroke-width: 0.8; stroke-linecap: round"/>
     </g>
     <g id="text_8">
      <!-- $\mathdefault{0.4}$ -->
      <g style="fill: #262626" transform="translate(19.44 386.307835) scale(0.16 -0.16)">
       <use xlink:href="#CMR17-30" transform="scale(0.996264)"/>
       <use xlink:href="#CMMI12-3a" transform="translate(45.690477 0) scale(0.996264)"/>
       <use xlink:href="#CMR17-34" transform="translate(72.787654 0) scale(0.996264)"/>
      </g>
     </g>
    </g>
    <g id="ytick_3">
     <g id="line2d_9">
      <path d="M 46.383522 268.146133 
L 1060.56 268.146133 
" clip-path="url(#p584aa3ace9)" style="fill: none; stroke: #ffffff; stroke-width: 0.8; stroke-linecap: round"/>
     </g>
     <g id="text_9">
      <!-- $\mathdefault{0.6}$ -->
      <g style="fill: #262626" transform="translate(19.44 273.680927) scale(0.16 -0.16)">
       <use xlink:href="#CMR17-30" transform="scale(0.996264)"/>
       <use xlink:href="#CMMI12-3a" transform="translate(45.690477 0) scale(0.996264)"/>
       <use xlink:href="#CMR17-36" transform="translate(72.787654 0) scale(0.996264)"/>
      </g>
     </g>
    </g>
    <g id="ytick_4">
     <g id="line2d_10">
      <path d="M 46.383522 155.519224 
L 1060.56 155.519224 
" clip-path="url(#p584aa3ace9)" style="fill: none; stroke: #ffffff; stroke-width: 0.8; stroke-linecap: round"/>
     </g>
     <g id="text_10">
      <!-- $\mathdefault{0.8}$ -->
      <g style="fill: #262626" transform="translate(19.44 161.054018) scale(0.16 -0.16)">
       <use xlink:href="#CMR17-30" transform="scale(0.996264)"/>
       <use xlink:href="#CMMI12-3a" transform="translate(45.690477 0) scale(0.996264)"/>
       <use xlink:href="#CMR17-38" transform="translate(72.787654 0) scale(0.996264)"/>
      </g>
     </g>
    </g>
    <g id="ytick_5">
     <g id="line2d_11">
      <path d="M 46.383522 42.892315 
L 1060.56 42.892315 
" clip-path="url(#p584aa3ace9)" style="fill: none; stroke: #ffffff; stroke-width: 0.8; stroke-linecap: round"/>
     </g>
     <g id="text_11">
      <!-- $\mathdefault{1.0}$ -->
      <g style="fill: #262626" transform="translate(19.44 48.427109) scale(0.16 -0.16)">
       <use xlink:href="#CMR17-31" transform="scale(0.996264)"/>
       <use xlink:href="#CMMI12-3a" transform="translate(45.690477 0) scale(0.996264)"/>
       <use xlink:href="#CMR17-30" transform="translate(72.787654 0) scale(0.996264)"/>
      </g>
     </g>
    </g>
   </g>
   <g id="line2d_12">
    <path d="M 46.383522 42.892315 
L 142.971758 54.035773 
L 239.559994 64.958721 
L 336.14823 75.665523 
L 432.736466 86.160456 
L 535.763918 97.126246 
L 638.79137 107.86073 
L 741.818821 118.368786 
L 844.846273 128.65519 
L 947.873725 138.724619 
L 1012.265882 144.909866 
L 1012.265882 144.909866 
" clip-path="url(#p584aa3ace9)" style="fill: none; stroke: #393b79; stroke-width: 2; stroke-linecap: round"/>
   </g>
   <g id="line2d_13">
    <path d="M 46.383522 42.892315 
L 97.897248 54.762962 
L 149.410974 66.38338 
L 200.9247 77.758845 
L 252.438426 88.894519 
L 303.952152 99.795458 
L 355.465877 110.466609 
L 406.979603 120.912817 
L 458.493329 131.138824 
L 510.007055 141.14927 
L 561.520781 150.9487 
L 613.034507 160.541562 
L 670.987448 171.092036 
L 728.94039 181.392643 
L 786.893331 191.449299 
L 844.846273 201.267783 
L 902.799215 210.853734 
L 960.752156 220.21266 
L 1012.265882 228.345466 
L 1012.265882 228.345466 
" clip-path="url(#p584aa3ace9)" style="fill: none; stroke: #6b6ecf; stroke-width: 2; stroke-linecap: round"/>
   </g>
   <g id="line2d_14">
    <path d="M 46.383522 42.892315 
L 78.579601 54.021105 
L 110.77568 64.929966 
L 142.971758 75.623243 
L 175.167837 86.105197 
L 207.363916 96.380004 
L 239.559994 106.451758 
L 271.756073 116.324473 
L 310.391367 127.914529 
L 349.026662 139.230278 
L 387.661956 150.27821 
L 426.29725 161.064665 
L 464.932545 171.595831 
L 503.567839 181.87775 
L 542.203134 191.916321 
L 580.838428 201.717303 
L 619.473722 211.286321 
L 658.109017 220.628863 
L 696.744311 229.75029 
L 735.379606 238.655836 
L 774.0149 247.350608 
L 812.650194 255.839597 
L 851.285489 264.127673 
L 896.359999 273.549499 
L 941.434509 282.711685 
L 986.509019 291.621392 
L 1012.265882 296.601991 
L 1012.265882 296.601991 
" clip-path="url(#p584aa3ace9)" style="fill: none; stroke: #8ca252; stroke-width: 2; stroke-linecap: round"/>
   </g>
   <g id="line2d_15">
    <path d="M 46.383522 42.892315 
L 72.140385 54.747364 
L 97.897248 66.352842 
L 123.654111 77.714003 
L 149.410974 88.83599 
L 175.167837 99.723838 
L 200.9247 110.382476 
L 226.681563 120.816729 
L 252.438426 131.031322 
L 278.195289 141.030878 
L 303.952152 150.819924 
L 329.709015 160.402893 
L 355.465877 169.784122 
L 381.22274 178.967858 
L 406.979603 187.958259 
L 439.175682 198.930576 
L 471.371761 209.614921 
L 503.567839 220.018852 
L 535.763918 230.14973 
L 567.959997 240.014721 
L 600.156075 249.620802 
L 632.352154 258.97477 
L 664.548233 268.08324 
L 696.744311 276.952656 
L 728.94039 285.589292 
L 761.136468 293.999257 
L 793.332547 302.1885 
L 825.528626 310.162815 
L 857.724704 317.927842 
L 889.920783 325.489074 
L 922.116862 332.851859 
L 954.31294 340.021406 
L 992.948235 348.37692 
L 1012.265882 352.455734 
L 1012.265882 352.455734 
" clip-path="url(#p584aa3ace9)" style="fill: none; stroke: #cedb9c; stroke-width: 2; stroke-linecap: round"/>
   </g>
   <g id="line2d_16">
    <path d="M 46.383522 42.892315 
L 65.70117 54.006489 
L 85.018817 64.90131 
L 104.336464 75.581109 
L 123.654111 86.050127 
L 142.971758 96.312527 
L 162.289405 106.372385 
L 181.607053 116.233699 
L 200.9247 125.900388 
L 220.242347 135.376292 
L 245.99921 147.720553 
L 271.756073 159.741047 
L 297.512936 171.446267 
L 323.269799 182.844481 
L 349.026662 193.943742 
L 374.783525 204.751891 
L 400.540388 215.276563 
L 426.29725 225.525193 
L 452.054113 235.505021 
L 477.810976 245.223097 
L 503.567839 254.686287 
L 529.324702 263.901276 
L 555.081565 272.874573 
L 580.838428 281.612517 
L 606.595291 290.121283 
L 632.352154 298.406879 
L 658.109017 306.475161 
L 683.86588 314.331826 
L 709.622743 321.982427 
L 735.379606 329.432367 
L 761.136468 336.686909 
L 786.893331 343.751179 
L 819.08941 352.321535 
L 851.285489 360.611839 
L 883.481567 368.631241 
L 915.677646 376.388594 
L 947.873725 383.892461 
L 980.069803 391.151124 
L 1012.265882 398.172597 
L 1012.265882 398.172597 
" clip-path="url(#p584aa3ace9)" style="fill: none; stroke: #e7ba52; stroke-width: 2; stroke-linecap: round"/>
   </g>
   <g id="line2d_17">
    <path d="M 46.383522 42.892315 
L 65.70117 56.19415 
L 85.018817 69.181781 
L 104.336464 81.86263 
L 123.654111 94.243944 
L 142.971758 106.332799 
L 162.289405 118.136102 
L 181.607053 129.660598 
L 200.9247 140.912874 
L 220.242347 151.899359 
L 239.559994 162.626332 
L 258.877641 173.099922 
L 278.195289 183.326114 
L 297.512936 193.310754 
L 316.830583 203.059545 
L 336.14823 212.57806 
L 355.465877 221.871737 
L 374.783525 230.945888 
L 394.101172 239.805698 
L 413.418819 248.45623 
L 432.736466 256.902427 
L 452.054113 265.149116 
L 471.371761 273.201009 
L 490.689408 281.062708 
L 510.007055 288.738706 
L 535.763918 298.692066 
L 561.520781 308.333189 
L 587.277644 317.671869 
L 613.034507 326.717593 
L 638.79137 335.479552 
L 664.548233 343.966648 
L 690.305095 352.187502 
L 716.061958 360.150468 
L 741.818821 367.863635 
L 767.575684 375.334838 
L 793.332547 382.57167 
L 819.08941 389.581481 
L 844.846273 396.371394 
L 870.603136 402.948306 
L 896.359999 409.318901 
L 922.116862 415.489649 
L 947.873725 421.46682 
L 973.630588 427.256486 
L 1005.826666 434.238835 
L 1012.265882 435.602232 
L 1012.265882 435.602232 
" clip-path="url(#p584aa3ace9)" style="fill: none; stroke: #843c39; stroke-width: 2; stroke-linecap: round"/>
   </g>
   <g id="line2d_18">
    <path d="M 46.383522 42.892315 
L 59.261954 53.258805 
L 78.579601 68.451829 
L 97.897248 83.227267 
L 117.214895 97.596597 
L 136.532543 111.570981 
L 155.85019 125.161276 
L 175.167837 138.378036 
L 194.485484 151.231529 
L 213.803131 163.731738 
L 233.120779 175.888374 
L 252.438426 187.710881 
L 271.756073 199.208442 
L 291.07372 210.389988 
L 310.391367 221.264206 
L 329.709015 231.839542 
L 349.026662 242.124213 
L 368.344309 252.126205 
L 387.661956 261.85329 
L 406.979603 271.313022 
L 426.29725 280.51275 
L 445.614898 289.45962 
L 464.932545 298.160583 
L 484.250192 306.622396 
L 503.567839 314.851633 
L 522.885486 322.854686 
L 542.203134 330.637772 
L 561.520781 338.206937 
L 580.838428 345.568061 
L 600.156075 352.726862 
L 619.473722 359.688901 
L 638.79137 366.459586 
L 658.109017 373.044176 
L 677.426664 379.447787 
L 703.183527 387.712988 
L 728.94039 395.67669 
L 754.697253 403.34989 
L 780.454116 410.743186 
L 806.210979 417.866788 
L 831.967842 424.730533 
L 857.724704 431.343901 
L 883.481567 437.716025 
L 909.23843 443.855705 
L 934.995293 449.771421 
L 960.752156 455.471341 
L 986.509019 460.963338 
L 1012.265882 466.254998 
L 1012.265882 466.254998 
" clip-path="url(#p584aa3ace9)" style="fill: none; stroke: #e7969c; stroke-width: 2; stroke-linecap: round"/>
   </g>
   <g id="line2d_19">
    <path d="M 46.383522 42.892315 
L 59.261954 54.716333 
L 72.140385 66.292085 
L 85.018817 77.624783 
L 97.897248 88.719531 
L 110.77568 99.581324 
L 123.654111 110.215055 
L 136.532543 120.625512 
L 149.410974 130.817382 
L 162.289405 140.795256 
L 175.167837 150.563627 
L 188.046268 160.126893 
L 200.9247 169.489361 
L 213.803131 178.655247 
L 226.681563 187.62868 
L 239.559994 196.413699 
L 252.438426 205.01426 
L 265.316857 213.434238 
L 284.634504 225.733881 
L 303.952152 237.648186 
L 323.269799 249.189224 
L 342.587446 260.368689 
L 361.905093 271.19791 
L 381.22274 281.68786 
L 400.540388 291.849166 
L 419.858035 301.692127 
L 439.175682 311.226714 
L 458.493329 320.46259 
L 477.810976 329.409113 
L 497.128624 338.075347 
L 516.446271 346.470074 
L 535.763918 354.601801 
L 555.081565 362.478767 
L 574.399212 370.108953 
L 593.716859 377.50009 
L 613.034507 384.659669 
L 632.352154 391.594943 
L 651.669801 398.312941 
L 670.987448 404.820468 
L 690.305095 411.124119 
L 709.622743 417.230281 
L 728.94039 423.145141 
L 748.258037 428.874694 
L 767.575684 434.424743 
L 793.332547 441.555277 
L 819.08941 448.389518 
L 844.846273 454.939778 
L 870.603136 461.217856 
L 896.359999 467.235064 
L 922.116862 473.00224 
L 947.873725 478.529774 
L 973.630588 483.827624 
L 999.387451 488.905334 
L 1012.265882 491.36451 
L 1012.265882 491.36451 
" clip-path="url(#p584aa3ace9)" style="fill: none; stroke: #a55194; stroke-width: 2; stroke-linecap: round"/>
   </g>
   <g id="line2d_20">
    <path d="M 46.383522 42.892315 
L 59.261954 56.168107 
L 72.140385 69.130921 
L 85.018817 81.788136 
L 97.897248 94.146964 
L 110.77568 106.21444 
L 123.654111 117.997428 
L 136.532543 129.502631 
L 149.410974 140.736597 
L 162.289405 151.705722 
L 175.167837 162.41625 
L 188.046268 172.874281 
L 200.9247 183.085768 
L 213.803131 193.056525 
L 226.681563 202.792227 
L 239.559994 212.298412 
L 252.438426 221.580492 
L 265.316857 230.643748 
L 278.195289 239.493337 
L 291.07372 248.134296 
L 303.952152 256.571543 
L 316.830583 264.809881 
L 329.709015 272.854 
L 342.587446 280.70848 
L 355.465877 288.377792 
L 368.344309 295.866303 
L 381.22274 303.178276 
L 394.101172 310.317872 
L 413.418819 320.712925 
L 432.736466 330.742565 
L 452.054113 340.419635 
L 471.371761 349.756529 
L 490.689408 358.765202 
L 510.007055 367.457189 
L 529.324702 375.843624 
L 548.642349 383.935247 
L 567.959997 391.742421 
L 587.277644 399.275149 
L 606.595291 406.543078 
L 625.912938 413.555518 
L 645.230585 420.321452 
L 664.548233 426.849546 
L 683.86588 433.14816 
L 703.183527 439.225362 
L 722.501174 445.088935 
L 741.818821 450.746387 
L 761.136468 456.204964 
L 780.454116 461.471655 
L 799.771763 466.553206 
L 819.08941 471.456125 
L 844.846273 477.726296 
L 870.603136 483.704313 
L 896.359999 489.40379 
L 922.116862 494.837705 
L 947.873725 500.01843 
L 973.630588 504.957762 
L 999.387451 509.666954 
L 1012.265882 511.93862 
L 1012.265882 511.93862 
" clip-path="url(#p584aa3ace9)" style="fill: none; stroke: #de9ed6; stroke-width: 2; stroke-linecap: round"/>
   </g>
   <g id="patch_3">
    <path d="M 46.383522 535.390936 
L 46.383522 19.44 
" style="fill: none; stroke: #ffffff; stroke-width: 0.8; stroke-linejoin: miter; stroke-linecap: square"/>
   </g>
   <g id="patch_4">
    <path d="M 1060.56 535.390936 
L 1060.56 19.44 
" style="fill: none; stroke: #ffffff; stroke-width: 0.8; stroke-linejoin: miter; stroke-linecap: square"/>
   </g>
   <g id="patch_5">
    <path d="M 46.383522 535.390936 
L 1060.56 535.390936 
" style="fill: none; stroke: #ffffff; stroke-width: 0.8; stroke-linejoin: miter; stroke-linecap: square"/>
   </g>
   <g id="patch_6">
    <path d="M 46.383522 19.44 
L 1060.56 19.44 
" style="fill: none; stroke: #ffffff; stroke-width: 0.8; stroke-linejoin: miter; stroke-linecap: square"/>
   </g>
  </g>
 </g>
 <defs>
  <clipPath id="p584aa3ace9">
   <rect x="46.383522" y="19.44" width="1014.176478" height="515.950936"/>
  </clipPath>
 </defs>
</svg>
