<?xml version="1.0" encoding="utf-8" standalone="no"?>
<!DOCTYPE svg PUBLIC "-//W3C//DTD SVG 1.1//EN"
  "http://www.w3.org/Graphics/SVG/1.1/DTD/svg11.dtd">
<svg xmlns:xlink="http://www.w3.org/1999/xlink" width="1080pt" height="576pt" viewBox="0 0 1080 576" xmlns="http://www.w3.org/2000/svg" version="1.1">
 <metadata>
  <rdf:RDF xmlns:dc="http://purl.org/dc/elements/1.1/" xmlns:cc="http://creativecommons.org/ns#" xmlns:rdf="http://www.w3.org/1999/02/22-rdf-syntax-ns#">
   <cc:Work>
    <dc:type rdf:resource="http://purl.org/dc/dcmitype/StillImage"/>
    <dc:date>2024-07-25T16:25:17.688329</dc:date>
    <dc:format>image/svg+xml</dc:format>
    <dc:creator>
     <cc:Agent>
      <dc:title>Matplotlib v3.9.0, https://matplotlib.org/</dc:title>
     </cc:Agent>
    </dc:creator>
   </cc:Work>
  </rdf:RDF>
 </metadata>
 <defs>
  <style type="text/css">*{stroke-linejoin: round; stroke-linecap: butt}</style>
 </defs>
 <g id="figure_1">
  <g id="patch_1">
   <path d="M 0 576 
L 1080 576 
L 1080 0 
L 0 0 
z
" style="fill: #ffffff"/>
  </g>
  <g id="axes_1">
   <g id="patch_2">
    <path d="M 88.532127 498.237256 
L 1041.12 498.237256 
L 1041.12 38.88 
L 88.532127 38.88 
z
" style="fill: #ffffff"/>
   </g>
   <g id="matplotlib.axis_1">
    <g id="xtick_1">
     <g id="line2d_1">
      <defs>
       <path id="m42d03aec67" d="M 0 0 
L 0 3.5 
" style="stroke: #262626; stroke-width: 0.8"/>
      </defs>
      <g>
       <use xlink:href="#m42d03aec67" x="88.532127" y="498.237256" style="fill: #262626; stroke: #262626; stroke-width: 0.8"/>
      </g>
     </g>
     <g id="text_1">
      <!-- $\mathdefault{0.0}$ -->
      <g style="fill: #262626" transform="translate(67.206064 530.143856) scale(0.36 -0.36)">
       <defs>
        <path id="CMR17-30" d="M 2688 2025 
C 2688 2416 2682 3080 2413 3591 
C 2176 4039 1798 4198 1466 4198 
C 1158 4198 768 4058 525 3597 
C 269 3118 243 2524 243 2025 
C 243 1661 250 1106 448 619 
C 723 -39 1216 -128 1466 -128 
C 1760 -128 2208 -7 2470 600 
C 2662 1042 2688 1559 2688 2025 
z
M 1466 -26 
C 1056 -26 813 325 723 812 
C 653 1188 653 1738 653 2096 
C 653 2588 653 2997 736 3387 
C 858 3929 1216 4096 1466 4096 
C 1728 4096 2067 3923 2189 3400 
C 2272 3036 2278 2607 2278 2096 
C 2278 1680 2278 1169 2202 792 
C 2067 95 1690 -26 1466 -26 
z
" transform="scale(0.015625)"/>
        <path id="CMMI12-3a" d="M 1178 307 
C 1178 492 1024 619 870 619 
C 685 619 557 466 557 313 
C 557 128 710 0 864 0 
C 1050 0 1178 153 1178 307 
z
" transform="scale(0.015625)"/>
       </defs>
       <use xlink:href="#CMR17-30" transform="scale(0.996264)"/>
       <use xlink:href="#CMMI12-3a" transform="translate(45.690477 0) scale(0.996264)"/>
       <use xlink:href="#CMR17-30" transform="translate(72.787654 0) scale(0.996264)"/>
      </g>
     </g>
    </g>
    <g id="xtick_2">
     <g id="line2d_2">
      <g>
       <use xlink:href="#m42d03aec67" x="269.977436" y="498.237256" style="fill: #262626; stroke: #262626; stroke-width: 0.8"/>
      </g>
     </g>
     <g id="text_2">
      <!-- $\mathdefault{0.2}$ -->
      <g style="fill: #262626" transform="translate(248.651373 530.143856) scale(0.36 -0.36)">
       <defs>
        <path id="CMR17-32" d="M 2669 989 
L 2554 989 
C 2490 536 2438 459 2413 420 
C 2381 369 1920 369 1830 369 
L 602 369 
C 832 619 1280 1072 1824 1597 
C 2214 1967 2669 2402 2669 3035 
C 2669 3790 2067 4224 1395 4224 
C 691 4224 262 3604 262 3030 
C 262 2780 448 2748 525 2748 
C 589 2748 781 2787 781 3010 
C 781 3207 614 3264 525 3264 
C 486 3264 448 3258 422 3245 
C 544 3790 915 4058 1306 4058 
C 1862 4058 2227 3617 2227 3035 
C 2227 2479 1901 2000 1536 1584 
L 262 146 
L 262 0 
L 2515 0 
L 2669 989 
z
" transform="scale(0.015625)"/>
       </defs>
       <use xlink:href="#CMR17-30" transform="scale(0.996264)"/>
       <use xlink:href="#CMMI12-3a" transform="translate(45.690477 0) scale(0.996264)"/>
       <use xlink:href="#CMR17-32" transform="translate(72.787654 0) scale(0.996264)"/>
      </g>
     </g>
    </g>
    <g id="xtick_3">
     <g id="line2d_3">
      <g>
       <use xlink:href="#m42d03aec67" x="451.422745" y="498.237256" style="fill: #262626; stroke: #262626; stroke-width: 0.8"/>
      </g>
     </g>
     <g id="text_3">
      <!-- $\mathdefault{0.4}$ -->
      <g style="fill: #262626" transform="translate(430.096682 530.143856) scale(0.36 -0.36)">
       <defs>
        <path id="CMR17-34" d="M 2150 4122 
C 2150 4256 2144 4256 2029 4256 
L 128 1254 
L 128 1088 
L 1779 1088 
L 1779 457 
C 1779 224 1766 160 1318 160 
L 1197 160 
L 1197 0 
C 1402 0 1747 0 1965 0 
C 2182 0 2528 0 2733 0 
L 2733 160 
L 2611 160 
C 2163 160 2150 224 2150 457 
L 2150 1088 
L 2803 1088 
L 2803 1254 
L 2150 1254 
L 2150 4122 
z
M 1798 3703 
L 1798 1254 
L 256 1254 
L 1798 3703 
z
" transform="scale(0.015625)"/>
       </defs>
       <use xlink:href="#CMR17-30" transform="scale(0.996264)"/>
       <use xlink:href="#CMMI12-3a" transform="translate(45.690477 0) scale(0.996264)"/>
       <use xlink:href="#CMR17-34" transform="translate(72.787654 0) scale(0.996264)"/>
      </g>
     </g>
    </g>
    <g id="xtick_4">
     <g id="line2d_4">
      <g>
       <use xlink:href="#m42d03aec67" x="632.868055" y="498.237256" style="fill: #262626; stroke: #262626; stroke-width: 0.8"/>
      </g>
     </g>
     <g id="text_4">
      <!-- $\mathdefault{0.6}$ -->
      <g style="fill: #262626" transform="translate(611.541991 530.143856) scale(0.36 -0.36)">
       <defs>
        <path id="CMR17-36" d="M 678 2176 
C 678 3690 1395 4032 1811 4032 
C 1946 4032 2272 4009 2400 3776 
C 2298 3776 2106 3776 2106 3553 
C 2106 3381 2246 3323 2336 3323 
C 2394 3323 2566 3348 2566 3560 
C 2566 3954 2246 4179 1805 4179 
C 1043 4179 243 3390 243 1984 
C 243 253 966 -128 1478 -128 
C 2099 -128 2688 427 2688 1283 
C 2688 2081 2170 2662 1517 2662 
C 1126 2662 838 2407 678 1960 
L 678 2176 
z
M 1478 25 
C 691 25 691 1200 691 1436 
C 691 1896 909 2560 1504 2560 
C 1613 2560 1926 2560 2138 2120 
C 2253 1870 2253 1609 2253 1289 
C 2253 944 2253 690 2118 434 
C 1978 171 1773 25 1478 25 
z
" transform="scale(0.015625)"/>
       </defs>
       <use xlink:href="#CMR17-30" transform="scale(0.996264)"/>
       <use xlink:href="#CMMI12-3a" transform="translate(45.690477 0) scale(0.996264)"/>
       <use xlink:href="#CMR17-36" transform="translate(72.787654 0) scale(0.996264)"/>
      </g>
     </g>
    </g>
    <g id="xtick_5">
     <g id="line2d_5">
      <g>
       <use xlink:href="#m42d03aec67" x="814.313364" y="498.237256" style="fill: #262626; stroke: #262626; stroke-width: 0.8"/>
      </g>
     </g>
     <g id="text_5">
      <!-- $\mathdefault{0.8}$ -->
      <g style="fill: #262626" transform="translate(792.9873 530.143856) scale(0.36 -0.36)">
       <defs>
        <path id="CMR17-38" d="M 1741 2264 
C 2144 2467 2554 2773 2554 3263 
C 2554 3841 1990 4179 1472 4179 
C 890 4179 378 3759 378 3180 
C 378 3021 416 2747 666 2505 
C 730 2442 998 2251 1171 2130 
C 883 1983 211 1634 211 934 
C 211 279 838 -128 1459 -128 
C 2144 -128 2720 362 2720 1010 
C 2720 1590 2330 1857 2074 2029 
L 1741 2264 
z
M 902 2822 
C 851 2854 595 3051 595 3351 
C 595 3739 998 4032 1459 4032 
C 1965 4032 2336 3676 2336 3262 
C 2336 2669 1670 2331 1638 2331 
C 1632 2331 1626 2331 1574 2370 
L 902 2822 
z
M 2080 1519 
C 2176 1449 2483 1240 2483 851 
C 2483 381 2010 25 1472 25 
C 890 25 448 438 448 940 
C 448 1443 838 1862 1280 2060 
L 2080 1519 
z
" transform="scale(0.015625)"/>
       </defs>
       <use xlink:href="#CMR17-30" transform="scale(0.996264)"/>
       <use xlink:href="#CMMI12-3a" transform="translate(45.690477 0) scale(0.996264)"/>
       <use xlink:href="#CMR17-38" transform="translate(72.787654 0) scale(0.996264)"/>
      </g>
     </g>
    </g>
    <g id="xtick_6">
     <g id="line2d_6">
      <g>
       <use xlink:href="#m42d03aec67" x="995.758673" y="498.237256" style="fill: #262626; stroke: #262626; stroke-width: 0.8"/>
      </g>
     </g>
     <g id="text_6">
      <!-- $\mathdefault{1.0}$ -->
      <g style="fill: #262626" transform="translate(974.432609 530.143856) scale(0.36 -0.36)">
       <defs>
        <path id="CMR17-31" d="M 1702 4058 
C 1702 4192 1696 4192 1606 4192 
C 1357 3916 979 3827 621 3827 
C 602 3827 570 3827 563 3808 
C 557 3795 557 3782 557 3648 
C 755 3648 1088 3686 1344 3839 
L 1344 461 
C 1344 236 1331 160 781 160 
L 589 160 
L 589 0 
C 896 0 1216 0 1523 0 
C 1830 0 2150 0 2458 0 
L 2458 160 
L 2266 160 
C 1715 160 1702 230 1702 458 
L 1702 4058 
z
" transform="scale(0.015625)"/>
       </defs>
       <use xlink:href="#CMR17-31" transform="scale(0.996264)"/>
       <use xlink:href="#CMMI12-3a" transform="translate(45.690477 0) scale(0.996264)"/>
       <use xlink:href="#CMR17-30" transform="translate(72.787654 0) scale(0.996264)"/>
      </g>
     </g>
    </g>
   </g>
   <g id="matplotlib.axis_2">
    <g id="ytick_1">
     <g id="line2d_7">
      <defs>
       <path id="me8c1995c7d" d="M 0 0 
L -3.5 0 
" style="stroke: #262626; stroke-width: 0.8"/>
      </defs>
      <g>
       <use xlink:href="#me8c1995c7d" x="88.532127" y="446.933179" style="fill: #262626; stroke: #262626; stroke-width: 0.8"/>
      </g>
     </g>
     <g id="text_7">
      <!-- $\mathdefault{0.2}$ -->
      <g style="fill: #262626" transform="translate(38.88 459.386479) scale(0.36 -0.36)">
       <use xlink:href="#CMR17-30" transform="scale(0.996264)"/>
       <use xlink:href="#CMMI12-3a" transform="translate(45.690477 0) scale(0.996264)"/>
       <use xlink:href="#CMR17-32" transform="translate(72.787654 0) scale(0.996264)"/>
      </g>
     </g>
    </g>
    <g id="ytick_2">
     <g id="line2d_8">
      <g>
       <use xlink:href="#me8c1995c7d" x="88.532127" y="350.139853" style="fill: #262626; stroke: #262626; stroke-width: 0.8"/>
      </g>
     </g>
     <g id="text_8">
      <!-- $\mathdefault{0.4}$ -->
      <g style="fill: #262626" transform="translate(38.88 362.593153) scale(0.36 -0.36)">
       <use xlink:href="#CMR17-30" transform="scale(0.996264)"/>
       <use xlink:href="#CMMI12-3a" transform="translate(45.690477 0) scale(0.996264)"/>
       <use xlink:href="#CMR17-34" transform="translate(72.787654 0) scale(0.996264)"/>
      </g>
     </g>
    </g>
    <g id="ytick_3">
     <g id="line2d_9">
      <g>
       <use xlink:href="#me8c1995c7d" x="88.532127" y="253.346527" style="fill: #262626; stroke: #262626; stroke-width: 0.8"/>
      </g>
     </g>
     <g id="text_9">
      <!-- $\mathdefault{0.6}$ -->
      <g style="fill: #262626" transform="translate(38.88 265.799827) scale(0.36 -0.36)">
       <use xlink:href="#CMR17-30" transform="scale(0.996264)"/>
       <use xlink:href="#CMMI12-3a" transform="translate(45.690477 0) scale(0.996264)"/>
       <use xlink:href="#CMR17-36" transform="translate(72.787654 0) scale(0.996264)"/>
      </g>
     </g>
    </g>
    <g id="ytick_4">
     <g id="line2d_10">
      <g>
       <use xlink:href="#me8c1995c7d" x="88.532127" y="156.553201" style="fill: #262626; stroke: #262626; stroke-width: 0.8"/>
      </g>
     </g>
     <g id="text_10">
      <!-- $\mathdefault{0.8}$ -->
      <g style="fill: #262626" transform="translate(38.88 169.006501) scale(0.36 -0.36)">
       <use xlink:href="#CMR17-30" transform="scale(0.996264)"/>
       <use xlink:href="#CMMI12-3a" transform="translate(45.690477 0) scale(0.996264)"/>
       <use xlink:href="#CMR17-38" transform="translate(72.787654 0) scale(0.996264)"/>
      </g>
     </g>
    </g>
    <g id="ytick_5">
     <g id="line2d_11">
      <g>
       <use xlink:href="#me8c1995c7d" x="88.532127" y="59.759875" style="fill: #262626; stroke: #262626; stroke-width: 0.8"/>
      </g>
     </g>
     <g id="text_11">
      <!-- $\mathdefault{1.0}$ -->
      <g style="fill: #262626" transform="translate(38.88 72.213175) scale(0.36 -0.36)">
       <use xlink:href="#CMR17-31" transform="scale(0.996264)"/>
       <use xlink:href="#CMMI12-3a" transform="translate(45.690477 0) scale(0.996264)"/>
       <use xlink:href="#CMR17-30" transform="translate(72.787654 0) scale(0.996264)"/>
      </g>
     </g>
    </g>
   </g>
   <g id="line2d_12">
    <path d="M 88.532127 59.759875 
L 185.302959 69.968415 
L 282.07379 79.96162 
L 384.892799 90.348538 
L 487.711807 100.502821 
L 590.530816 110.429679 
L 693.349824 120.134206 
L 796.168833 129.621381 
L 905.036018 139.435127 
L 995.758673 147.435353 
L 995.758673 147.435353 
" clip-path="url(#p07c9a1ef5d)" style="fill: none; stroke: #393b79; stroke-width: 2; stroke-linecap: round"/>
   </g>
   <g id="line2d_13">
    <path d="M 88.532127 59.759875 
L 136.917543 69.961695 
L 185.302959 79.948464 
L 233.688375 89.724716 
L 282.07379 99.294888 
L 336.507383 109.820408 
L 390.940976 120.096652 
L 445.374568 130.129522 
L 499.808161 139.924782 
L 554.241754 149.48806 
L 608.675347 158.82485 
L 663.108939 167.940516 
L 717.542532 176.840295 
L 771.976125 185.529299 
L 826.409718 194.012521 
L 886.891487 203.202896 
L 947.373257 212.151752 
L 995.758673 219.141212 
L 995.758673 219.141212 
" clip-path="url(#p07c9a1ef5d)" style="fill: none; stroke: #6b6ecf; stroke-width: 2; stroke-linecap: round"/>
   </g>
   <g id="line2d_14">
    <path d="M 88.532127 59.759875 
L 124.821189 71.214181 
L 161.110251 82.397391 
L 197.399313 93.315921 
L 233.688375 103.976037 
L 269.977436 114.383854 
L 306.266498 124.545344 
L 342.55556 134.466336 
L 378.844622 144.152522 
L 415.133684 153.60946 
L 451.422745 162.842575 
L 487.711807 171.857166 
L 524.000869 180.658403 
L 560.289931 189.251336 
L 596.578993 197.640895 
L 632.868055 205.831895 
L 675.205293 215.143365 
L 717.542532 224.198237 
L 759.879771 233.003581 
L 802.21701 241.566272 
L 844.554248 249.893 
L 886.891487 257.990264 
L 929.228726 265.86439 
L 971.565965 273.521532 
L 995.758673 277.801937 
L 995.758673 277.801937 
" clip-path="url(#p07c9a1ef5d)" style="fill: none; stroke: #637939; stroke-width: 2; stroke-linecap: round"/>
   </g>
   <g id="line2d_15">
    <path d="M 88.532127 59.759875 
L 112.724835 69.94829 
L 136.917543 79.922219 
L 161.110251 89.686178 
L 185.302959 99.244587 
L 209.495667 108.601774 
L 233.688375 117.761974 
L 257.881082 126.729335 
L 288.121967 137.673531 
L 318.362852 148.330494 
L 348.603737 158.707763 
L 378.844622 168.812677 
L 409.085507 178.652386 
L 439.326392 188.233849 
L 469.567276 197.563843 
L 499.808161 206.64897 
L 530.049046 215.495656 
L 560.289931 224.110157 
L 590.530816 232.498569 
L 620.771701 240.666826 
L 651.012585 248.620704 
L 681.25347 256.36583 
L 711.494355 263.907684 
L 741.73524 271.2516 
L 778.024302 279.810326 
L 814.313364 288.100213 
L 850.602425 296.129706 
L 886.891487 303.906984 
L 923.180549 311.43997 
L 959.469611 318.736337 
L 995.758673 325.803517 
L 995.758673 325.803517 
" clip-path="url(#p07c9a1ef5d)" style="fill: none; stroke: #b5cf6b; stroke-width: 2; stroke-linecap: round"/>
   </g>
   <g id="line2d_16">
    <path d="M 88.532127 59.759875 
L 106.676658 69.31157 
L 130.869366 81.754563 
L 155.062074 93.8712 
L 179.254782 105.67004 
L 203.44749 117.15942 
L 227.640198 128.347456 
L 251.832905 139.242051 
L 276.025613 149.850901 
L 300.218321 160.181502 
L 324.411029 170.241151 
L 348.603737 180.036954 
L 372.796445 189.575833 
L 396.989153 198.864525 
L 421.181861 207.909592 
L 445.374568 216.717425 
L 469.567276 225.294245 
L 493.759984 233.646112 
L 517.952692 241.778925 
L 542.1454 249.698431 
L 566.338108 257.410222 
L 590.530816 264.919749 
L 614.723524 272.232314 
L 638.916232 279.353086 
L 669.157116 287.99199 
L 699.398001 296.348601 
L 729.638886 304.432144 
L 759.879771 312.251542 
L 790.120656 319.815426 
L 820.361541 327.132146 
L 850.602425 334.209779 
L 880.84331 341.056136 
L 911.084195 347.678775 
L 941.32508 354.085007 
L 971.565965 360.281904 
L 995.758673 365.093303 
L 995.758673 365.093303 
" clip-path="url(#p07c9a1ef5d)" style="fill: none; stroke: #8c6d31; stroke-width: 2; stroke-linecap: round"/>
   </g>
   <g id="line2d_17">
    <path d="M 88.532127 59.759875 
L 106.676658 71.19168 
L 124.821189 82.353453 
L 142.96572 93.251573 
L 161.110251 103.892268 
L 179.254782 114.281619 
L 197.399313 124.425562 
L 215.543844 134.329894 
L 233.688375 144.000276 
L 251.832905 153.442233 
L 269.977436 162.661161 
L 288.121967 171.662328 
L 306.266498 180.450878 
L 324.411029 189.031833 
L 342.55556 197.410097 
L 360.700091 205.590457 
L 378.844622 213.577589 
L 396.989153 221.376056 
L 415.133684 228.990315 
L 439.326392 238.86362 
L 463.519099 248.427199 
L 487.711807 257.690767 
L 511.904515 266.663736 
L 536.097223 275.355223 
L 560.289931 283.774056 
L 584.482639 291.92879 
L 608.675347 299.827709 
L 632.868055 307.478838 
L 657.060762 314.889951 
L 681.25347 322.068576 
L 705.446178 329.022007 
L 729.638886 335.757308 
L 753.831594 342.281322 
L 778.024302 348.600678 
L 802.21701 354.721794 
L 826.409718 360.65089 
L 850.602425 366.39399 
L 880.84331 373.320179 
L 911.084195 379.975848 
L 941.32508 386.371562 
L 971.565965 392.517474 
L 995.758673 397.260916 
L 995.758673 397.260916 
" clip-path="url(#p07c9a1ef5d)" style="fill: none; stroke: #e7cb94; stroke-width: 2; stroke-linecap: round"/>
   </g>
   <g id="line2d_18">
    <path d="M 88.532127 59.759875 
L 106.676658 73.061868 
L 124.821189 85.998251 
L 142.96572 98.579073 
L 161.110251 110.814106 
L 179.254782 122.712856 
L 197.399313 134.284564 
L 215.543844 145.538221 
L 233.688375 156.482566 
L 251.832905 167.126101 
L 269.977436 177.477095 
L 288.121967 187.543588 
L 306.266498 197.3334 
L 324.411029 206.854135 
L 342.55556 216.113191 
L 360.700091 225.117758 
L 378.844622 233.874831 
L 396.989153 242.391214 
L 415.133684 250.673521 
L 433.278215 258.728186 
L 451.422745 266.561465 
L 469.567276 274.179444 
L 487.711807 281.58804 
L 505.856338 288.793008 
L 524.000869 295.799945 
L 542.1454 302.614293 
L 560.289931 309.241347 
L 578.434462 315.686253 
L 602.62717 324.004755 
L 626.819878 332.019813 
L 651.012585 339.742496 
L 675.205293 347.18347 
L 699.398001 354.35301 
L 723.590709 361.261018 
L 747.783417 367.917035 
L 771.976125 374.330252 
L 796.168833 380.509526 
L 820.361541 386.463392 
L 844.554248 392.200071 
L 868.746956 397.727486 
L 892.939664 403.053271 
L 917.132372 408.184781 
L 941.32508 413.129101 
L 971.565965 419.056648 
L 995.758673 423.604382 
L 995.758673 423.604382 
" clip-path="url(#p07c9a1ef5d)" style="fill: none; stroke: #ad494a; stroke-width: 2; stroke-linecap: round"/>
   </g>
   <g id="line2d_19">
    <path d="M 88.532127 59.759875 
L 100.628481 69.921621 
L 112.724835 79.870003 
L 124.821189 89.609501 
L 136.917543 99.144501 
L 149.013897 108.479296 
L 161.110251 117.61809 
L 173.206605 126.565 
L 185.302959 135.324052 
L 203.44749 148.119006 
L 221.592021 160.513104 
L 239.736552 172.518903 
L 257.881082 184.148569 
L 276.025613 195.413887 
L 294.170144 206.32627 
L 312.314675 216.896775 
L 330.459206 227.136115 
L 348.603737 237.054663 
L 366.748268 246.662471 
L 384.892799 255.969273 
L 403.03733 264.984499 
L 421.181861 273.717285 
L 439.326392 282.176479 
L 457.470922 290.370652 
L 475.615453 298.308108 
L 493.759984 305.99689 
L 511.904515 313.444787 
L 530.049046 320.659347 
L 548.193577 327.64788 
L 566.338108 334.417467 
L 584.482639 340.974968 
L 602.62717 347.327028 
L 620.771701 353.480082 
L 638.916232 359.440365 
L 657.060762 365.213916 
L 675.205293 370.806587 
L 699.398001 377.991879 
L 723.590709 384.878603 
L 747.783417 391.479165 
L 771.976125 397.805455 
L 796.168833 403.868871 
L 820.361541 409.680336 
L 844.554248 415.250318 
L 868.746956 420.588853 
L 892.939664 425.705556 
L 917.132372 430.609647 
L 941.32508 435.30996 
L 965.517788 439.814962 
L 989.710496 444.132769 
L 995.758673 445.18389 
L 995.758673 445.18389 
" clip-path="url(#p07c9a1ef5d)" style="fill: none; stroke: #e7969c; stroke-width: 2; stroke-linecap: round"/>
   </g>
   <g id="line2d_20">
    <path d="M 88.532127 59.759875 
L 100.628481 71.169298 
L 112.724835 82.309743 
L 124.821189 93.187551 
L 136.917543 103.808922 
L 149.013897 114.179899 
L 161.110251 124.306383 
L 173.206605 134.194135 
L 185.302959 143.848781 
L 197.399313 153.275818 
L 209.495667 162.480613 
L 221.592021 171.468408 
L 233.688375 180.24432 
L 245.784728 188.813345 
L 257.881082 197.180359 
L 269.977436 205.350123 
L 282.07379 213.327288 
L 294.170144 221.116391 
L 306.266498 228.721867 
L 318.362852 236.148042 
L 336.507383 246.960336 
L 354.651914 257.392542 
L 372.796445 267.458024 
L 390.940976 277.169675 
L 409.085507 286.539936 
L 427.230038 295.580809 
L 445.374568 304.303873 
L 463.519099 312.720298 
L 481.66363 320.840862 
L 499.808161 328.675963 
L 517.952692 336.235634 
L 536.097223 343.529558 
L 554.241754 350.567075 
L 572.386285 357.357199 
L 590.530816 363.908628 
L 608.675347 370.229754 
L 626.819878 376.328674 
L 644.964408 382.213199 
L 663.108939 387.890868 
L 681.25347 393.368953 
L 699.398001 398.654469 
L 717.542532 403.754185 
L 735.687063 408.674633 
L 759.879771 414.967226 
L 784.072479 420.966624 
L 808.265187 426.686485 
L 832.457895 432.139833 
L 856.650602 437.339086 
L 880.84331 442.296084 
L 905.036018 447.022116 
L 929.228726 451.527942 
L 953.421434 455.823821 
L 977.614142 459.919539 
L 995.758673 462.865602 
L 995.758673 462.865602 
" clip-path="url(#p07c9a1ef5d)" style="fill: none; stroke: #a55194; stroke-width: 2; stroke-linecap: round"/>
   </g>
   <g id="line2d_21">
    <path d="M 88.532127 59.759875 
L 100.628481 72.41205 
L 112.724835 84.733463 
L 124.821189 96.732762 
L 136.917543 108.418367 
L 149.013897 119.79848 
L 161.110251 130.881085 
L 173.206605 141.673962 
L 185.302959 152.184685 
L 197.399313 162.420629 
L 209.495667 172.388979 
L 221.592021 182.096729 
L 233.688375 191.550693 
L 245.784728 200.757506 
L 257.881082 209.723628 
L 269.977436 218.455351 
L 282.07379 226.958804 
L 294.170144 235.239954 
L 306.266498 243.304613 
L 318.362852 251.15844 
L 330.459206 258.806947 
L 342.55556 266.255502 
L 354.651914 273.509331 
L 366.748268 280.573527 
L 378.844622 287.453046 
L 390.940976 294.152715 
L 403.03733 300.677238 
L 421.181861 310.145604 
L 439.326392 319.245115 
L 457.470922 327.990141 
L 475.615453 336.39449 
L 493.759984 344.471434 
L 511.904515 352.233729 
L 530.049046 359.693631 
L 548.193577 366.86292 
L 566.338108 373.752919 
L 584.482639 380.374508 
L 602.62717 386.738141 
L 620.771701 392.85387 
L 638.916232 398.73135 
L 657.060762 404.379865 
L 675.205293 409.808332 
L 693.349824 415.025325 
L 711.494355 420.039082 
L 729.638886 424.857519 
L 747.783417 429.488248 
L 765.927948 433.938578 
L 790.120656 439.603842 
L 814.313364 444.976767 
L 838.506072 450.072439 
L 862.698779 454.905165 
L 886.891487 459.488513 
L 911.084195 463.835352 
L 935.276903 467.957885 
L 959.469611 471.867689 
L 983.662319 475.575739 
L 995.758673 477.357381 
L 995.758673 477.357381 
" clip-path="url(#p07c9a1ef5d)" style="fill: none; stroke: #de9ed6; stroke-width: 2; stroke-linecap: round"/>
   </g>
   <g id="patch_3">
    <path d="M 88.532127 498.237256 
L 88.532127 38.88 
" style="fill: none; stroke: #262626; stroke-width: 0.8; stroke-linejoin: miter; stroke-linecap: square"/>
   </g>
   <g id="patch_4">
    <path d="M 88.532127 498.237256 
L 1041.12 498.237256 
" style="fill: none; stroke: #262626; stroke-width: 0.8; stroke-linejoin: miter; stroke-linecap: square"/>
   </g>
  </g>
 </g>
 <defs>
  <clipPath id="p07c9a1ef5d">
   <rect x="88.532127" y="38.88" width="952.587873" height="459.357256"/>
  </clipPath>
 </defs>
</svg>
