<?xml version="1.0" encoding="utf-8" standalone="no"?>
<!DOCTYPE svg PUBLIC "-//W3C//DTD SVG 1.1//EN"
  "http://www.w3.org/Graphics/SVG/1.1/DTD/svg11.dtd">
<svg xmlns:xlink="http://www.w3.org/1999/xlink" width="1080pt" height="756pt" viewBox="0 0 1080 756" xmlns="http://www.w3.org/2000/svg" version="1.1">
 <metadata>
  <rdf:RDF xmlns:dc="http://purl.org/dc/elements/1.1/" xmlns:cc="http://creativecommons.org/ns#" xmlns:rdf="http://www.w3.org/1999/02/22-rdf-syntax-ns#">
   <cc:Work>
    <dc:type rdf:resource="http://purl.org/dc/dcmitype/StillImage"/>
    <dc:date>2024-07-30T20:11:23.787561</dc:date>
    <dc:format>image/svg+xml</dc:format>
    <dc:creator>
     <cc:Agent>
      <dc:title>Matplotlib v3.9.0, https://matplotlib.org/</dc:title>
     </cc:Agent>
    </dc:creator>
   </cc:Work>
  </rdf:RDF>
 </metadata>
 <defs>
  <style type="text/css">*{stroke-linejoin: round; stroke-linecap: butt}</style>
 </defs>
 <g id="figure_1">
  <g id="patch_1">
   <path d="M 0 756 
L 1080 756 
L 1080 0 
L 0 0 
z
" style="fill: #ffffff"/>
  </g>
  <g id="axes_1">
   <g id="patch_2">
    <path d="M 88.532127 678.237256 
L 1041.12 678.237256 
L 1041.12 38.88 
L 88.532127 38.88 
z
" style="fill: #ffffff"/>
   </g>
   <g id="matplotlib.axis_1">
    <g id="xtick_1">
     <g id="line2d_1">
      <defs>
       <path id="m98e1090f1f" d="M 0 0 
L 0 3.5 
" style="stroke: #262626; stroke-width: 0.8"/>
      </defs>
      <g>
       <use xlink:href="#m98e1090f1f" x="88.532127" y="678.237256" style="fill: #262626; stroke: #262626; stroke-width: 0.8"/>
      </g>
     </g>
     <g id="text_1">
      <!-- $\mathdefault{0.0}$ -->
      <g style="fill: #262626" transform="translate(67.206064 710.143856) scale(0.36 -0.36)">
       <defs>
        <path id="CMR17-30" d="M 2688 2025 
C 2688 2416 2682 3080 2413 3591 
C 2176 4039 1798 4198 1466 4198 
C 1158 4198 768 4058 525 3597 
C 269 3118 243 2524 243 2025 
C 243 1661 250 1106 448 619 
C 723 -39 1216 -128 1466 -128 
C 1760 -128 2208 -7 2470 600 
C 2662 1042 2688 1559 2688 2025 
z
M 1466 -26 
C 1056 -26 813 325 723 812 
C 653 1188 653 1738 653 2096 
C 653 2588 653 2997 736 3387 
C 858 3929 1216 4096 1466 4096 
C 1728 4096 2067 3923 2189 3400 
C 2272 3036 2278 2607 2278 2096 
C 2278 1680 2278 1169 2202 792 
C 2067 95 1690 -26 1466 -26 
z
" transform="scale(0.015625)"/>
        <path id="CMMI12-3a" d="M 1178 307 
C 1178 492 1024 619 870 619 
C 685 619 557 466 557 313 
C 557 128 710 0 864 0 
C 1050 0 1178 153 1178 307 
z
" transform="scale(0.015625)"/>
       </defs>
       <use xlink:href="#CMR17-30" transform="scale(0.996264)"/>
       <use xlink:href="#CMMI12-3a" transform="translate(45.690477 0) scale(0.996264)"/>
       <use xlink:href="#CMR17-30" transform="translate(72.787654 0) scale(0.996264)"/>
      </g>
     </g>
    </g>
    <g id="xtick_2">
     <g id="line2d_2">
      <g>
       <use xlink:href="#m98e1090f1f" x="269.977436" y="678.237256" style="fill: #262626; stroke: #262626; stroke-width: 0.8"/>
      </g>
     </g>
     <g id="text_2">
      <!-- $\mathdefault{0.2}$ -->
      <g style="fill: #262626" transform="translate(248.651373 710.143856) scale(0.36 -0.36)">
       <defs>
        <path id="CMR17-32" d="M 2669 989 
L 2554 989 
C 2490 536 2438 459 2413 420 
C 2381 369 1920 369 1830 369 
L 602 369 
C 832 619 1280 1072 1824 1597 
C 2214 1967 2669 2402 2669 3035 
C 2669 3790 2067 4224 1395 4224 
C 691 4224 262 3604 262 3030 
C 262 2780 448 2748 525 2748 
C 589 2748 781 2787 781 3010 
C 781 3207 614 3264 525 3264 
C 486 3264 448 3258 422 3245 
C 544 3790 915 4058 1306 4058 
C 1862 4058 2227 3617 2227 3035 
C 2227 2479 1901 2000 1536 1584 
L 262 146 
L 262 0 
L 2515 0 
L 2669 989 
z
" transform="scale(0.015625)"/>
       </defs>
       <use xlink:href="#CMR17-30" transform="scale(0.996264)"/>
       <use xlink:href="#CMMI12-3a" transform="translate(45.690477 0) scale(0.996264)"/>
       <use xlink:href="#CMR17-32" transform="translate(72.787654 0) scale(0.996264)"/>
      </g>
     </g>
    </g>
    <g id="xtick_3">
     <g id="line2d_3">
      <g>
       <use xlink:href="#m98e1090f1f" x="451.422745" y="678.237256" style="fill: #262626; stroke: #262626; stroke-width: 0.8"/>
      </g>
     </g>
     <g id="text_3">
      <!-- $\mathdefault{0.4}$ -->
      <g style="fill: #262626" transform="translate(430.096682 710.143856) scale(0.36 -0.36)">
       <defs>
        <path id="CMR17-34" d="M 2150 4122 
C 2150 4256 2144 4256 2029 4256 
L 128 1254 
L 128 1088 
L 1779 1088 
L 1779 457 
C 1779 224 1766 160 1318 160 
L 1197 160 
L 1197 0 
C 1402 0 1747 0 1965 0 
C 2182 0 2528 0 2733 0 
L 2733 160 
L 2611 160 
C 2163 160 2150 224 2150 457 
L 2150 1088 
L 2803 1088 
L 2803 1254 
L 2150 1254 
L 2150 4122 
z
M 1798 3703 
L 1798 1254 
L 256 1254 
L 1798 3703 
z
" transform="scale(0.015625)"/>
       </defs>
       <use xlink:href="#CMR17-30" transform="scale(0.996264)"/>
       <use xlink:href="#CMMI12-3a" transform="translate(45.690477 0) scale(0.996264)"/>
       <use xlink:href="#CMR17-34" transform="translate(72.787654 0) scale(0.996264)"/>
      </g>
     </g>
    </g>
    <g id="xtick_4">
     <g id="line2d_4">
      <g>
       <use xlink:href="#m98e1090f1f" x="632.868055" y="678.237256" style="fill: #262626; stroke: #262626; stroke-width: 0.8"/>
      </g>
     </g>
     <g id="text_4">
      <!-- $\mathdefault{0.6}$ -->
      <g style="fill: #262626" transform="translate(611.541991 710.143856) scale(0.36 -0.36)">
       <defs>
        <path id="CMR17-36" d="M 678 2176 
C 678 3690 1395 4032 1811 4032 
C 1946 4032 2272 4009 2400 3776 
C 2298 3776 2106 3776 2106 3553 
C 2106 3381 2246 3323 2336 3323 
C 2394 3323 2566 3348 2566 3560 
C 2566 3954 2246 4179 1805 4179 
C 1043 4179 243 3390 243 1984 
C 243 253 966 -128 1478 -128 
C 2099 -128 2688 427 2688 1283 
C 2688 2081 2170 2662 1517 2662 
C 1126 2662 838 2407 678 1960 
L 678 2176 
z
M 1478 25 
C 691 25 691 1200 691 1436 
C 691 1896 909 2560 1504 2560 
C 1613 2560 1926 2560 2138 2120 
C 2253 1870 2253 1609 2253 1289 
C 2253 944 2253 690 2118 434 
C 1978 171 1773 25 1478 25 
z
" transform="scale(0.015625)"/>
       </defs>
       <use xlink:href="#CMR17-30" transform="scale(0.996264)"/>
       <use xlink:href="#CMMI12-3a" transform="translate(45.690477 0) scale(0.996264)"/>
       <use xlink:href="#CMR17-36" transform="translate(72.787654 0) scale(0.996264)"/>
      </g>
     </g>
    </g>
    <g id="xtick_5">
     <g id="line2d_5">
      <g>
       <use xlink:href="#m98e1090f1f" x="814.313364" y="678.237256" style="fill: #262626; stroke: #262626; stroke-width: 0.8"/>
      </g>
     </g>
     <g id="text_5">
      <!-- $\mathdefault{0.8}$ -->
      <g style="fill: #262626" transform="translate(792.9873 710.143856) scale(0.36 -0.36)">
       <defs>
        <path id="CMR17-38" d="M 1741 2264 
C 2144 2467 2554 2773 2554 3263 
C 2554 3841 1990 4179 1472 4179 
C 890 4179 378 3759 378 3180 
C 378 3021 416 2747 666 2505 
C 730 2442 998 2251 1171 2130 
C 883 1983 211 1634 211 934 
C 211 279 838 -128 1459 -128 
C 2144 -128 2720 362 2720 1010 
C 2720 1590 2330 1857 2074 2029 
L 1741 2264 
z
M 902 2822 
C 851 2854 595 3051 595 3351 
C 595 3739 998 4032 1459 4032 
C 1965 4032 2336 3676 2336 3262 
C 2336 2669 1670 2331 1638 2331 
C 1632 2331 1626 2331 1574 2370 
L 902 2822 
z
M 2080 1519 
C 2176 1449 2483 1240 2483 851 
C 2483 381 2010 25 1472 25 
C 890 25 448 438 448 940 
C 448 1443 838 1862 1280 2060 
L 2080 1519 
z
" transform="scale(0.015625)"/>
       </defs>
       <use xlink:href="#CMR17-30" transform="scale(0.996264)"/>
       <use xlink:href="#CMMI12-3a" transform="translate(45.690477 0) scale(0.996264)"/>
       <use xlink:href="#CMR17-38" transform="translate(72.787654 0) scale(0.996264)"/>
      </g>
     </g>
    </g>
    <g id="xtick_6">
     <g id="line2d_6">
      <g>
       <use xlink:href="#m98e1090f1f" x="995.758673" y="678.237256" style="fill: #262626; stroke: #262626; stroke-width: 0.8"/>
      </g>
     </g>
     <g id="text_6">
      <!-- $\mathdefault{1.0}$ -->
      <g style="fill: #262626" transform="translate(974.432609 710.143856) scale(0.36 -0.36)">
       <defs>
        <path id="CMR17-31" d="M 1702 4058 
C 1702 4192 1696 4192 1606 4192 
C 1357 3916 979 3827 621 3827 
C 602 3827 570 3827 563 3808 
C 557 3795 557 3782 557 3648 
C 755 3648 1088 3686 1344 3839 
L 1344 461 
C 1344 236 1331 160 781 160 
L 589 160 
L 589 0 
C 896 0 1216 0 1523 0 
C 1830 0 2150 0 2458 0 
L 2458 160 
L 2266 160 
C 1715 160 1702 230 1702 458 
L 1702 4058 
z
" transform="scale(0.015625)"/>
       </defs>
       <use xlink:href="#CMR17-31" transform="scale(0.996264)"/>
       <use xlink:href="#CMMI12-3a" transform="translate(45.690477 0) scale(0.996264)"/>
       <use xlink:href="#CMR17-30" transform="translate(72.787654 0) scale(0.996264)"/>
      </g>
     </g>
    </g>
   </g>
   <g id="matplotlib.axis_2">
    <g id="ytick_1">
     <g id="line2d_7">
      <defs>
       <path id="m7ddb303ec1" d="M 0 0 
L -3.5 0 
" style="stroke: #262626; stroke-width: 0.8"/>
      </defs>
      <g>
       <use xlink:href="#m7ddb303ec1" x="88.532127" y="606.82958" style="fill: #262626; stroke: #262626; stroke-width: 0.8"/>
      </g>
     </g>
     <g id="text_7">
      <!-- $\mathdefault{0.2}$ -->
      <g style="fill: #262626" transform="translate(38.88 619.28288) scale(0.36 -0.36)">
       <use xlink:href="#CMR17-30" transform="scale(0.996264)"/>
       <use xlink:href="#CMMI12-3a" transform="translate(45.690477 0) scale(0.996264)"/>
       <use xlink:href="#CMR17-32" transform="translate(72.787654 0) scale(0.996264)"/>
      </g>
     </g>
    </g>
    <g id="ytick_2">
     <g id="line2d_8">
      <g>
       <use xlink:href="#m7ddb303ec1" x="88.532127" y="472.107608" style="fill: #262626; stroke: #262626; stroke-width: 0.8"/>
      </g>
     </g>
     <g id="text_8">
      <!-- $\mathdefault{0.4}$ -->
      <g style="fill: #262626" transform="translate(38.88 484.560909) scale(0.36 -0.36)">
       <use xlink:href="#CMR17-30" transform="scale(0.996264)"/>
       <use xlink:href="#CMMI12-3a" transform="translate(45.690477 0) scale(0.996264)"/>
       <use xlink:href="#CMR17-34" transform="translate(72.787654 0) scale(0.996264)"/>
      </g>
     </g>
    </g>
    <g id="ytick_3">
     <g id="line2d_9">
      <g>
       <use xlink:href="#m7ddb303ec1" x="88.532127" y="337.385637" style="fill: #262626; stroke: #262626; stroke-width: 0.8"/>
      </g>
     </g>
     <g id="text_9">
      <!-- $\mathdefault{0.6}$ -->
      <g style="fill: #262626" transform="translate(38.88 349.838937) scale(0.36 -0.36)">
       <use xlink:href="#CMR17-30" transform="scale(0.996264)"/>
       <use xlink:href="#CMMI12-3a" transform="translate(45.690477 0) scale(0.996264)"/>
       <use xlink:href="#CMR17-36" transform="translate(72.787654 0) scale(0.996264)"/>
      </g>
     </g>
    </g>
    <g id="ytick_4">
     <g id="line2d_10">
      <g>
       <use xlink:href="#m7ddb303ec1" x="88.532127" y="202.663665" style="fill: #262626; stroke: #262626; stroke-width: 0.8"/>
      </g>
     </g>
     <g id="text_10">
      <!-- $\mathdefault{0.8}$ -->
      <g style="fill: #262626" transform="translate(38.88 215.116965) scale(0.36 -0.36)">
       <use xlink:href="#CMR17-30" transform="scale(0.996264)"/>
       <use xlink:href="#CMMI12-3a" transform="translate(45.690477 0) scale(0.996264)"/>
       <use xlink:href="#CMR17-38" transform="translate(72.787654 0) scale(0.996264)"/>
      </g>
     </g>
    </g>
    <g id="ytick_5">
     <g id="line2d_11">
      <g>
       <use xlink:href="#m7ddb303ec1" x="88.532127" y="67.941693" style="fill: #262626; stroke: #262626; stroke-width: 0.8"/>
      </g>
     </g>
     <g id="text_11">
      <!-- $\mathdefault{1.0}$ -->
      <g style="fill: #262626" transform="translate(38.88 80.394994) scale(0.36 -0.36)">
       <use xlink:href="#CMR17-31" transform="scale(0.996264)"/>
       <use xlink:href="#CMMI12-3a" transform="translate(45.690477 0) scale(0.996264)"/>
       <use xlink:href="#CMR17-30" transform="translate(72.787654 0) scale(0.996264)"/>
      </g>
     </g>
    </g>
   </g>
   <g id="line2d_12">
    <path d="M 88.532127 67.941693 
L 100.628481 85.551646 
L 112.724835 102.701228 
L 124.821189 119.402475 
L 136.917543 135.667106 
L 149.013897 151.506537 
L 161.110251 166.931883 
L 173.206605 181.953969 
L 185.302959 196.583338 
L 197.399313 210.830256 
L 209.495667 224.704722 
L 221.592021 238.216473 
L 233.688375 251.37499 
L 245.784728 264.189509 
L 257.881082 276.669022 
L 269.977436 288.822288 
L 282.07379 300.657835 
L 294.170144 312.183969 
L 306.266498 323.408779 
L 318.362852 334.340143 
L 330.459206 344.985732 
L 342.55556 355.353018 
L 354.651914 365.449274 
L 366.748268 375.281588 
L 378.844622 384.856859 
L 390.940976 394.181807 
L 403.03733 403.262975 
L 415.133684 412.106738 
L 427.230038 420.719302 
L 439.326392 429.10671 
L 451.422745 437.274849 
L 463.519099 445.229451 
L 475.615453 452.976099 
L 487.711807 460.520229 
L 499.808161 467.867135 
L 511.904515 475.021973 
L 524.000869 481.989765 
L 536.097223 488.775401 
L 548.193577 495.383641 
L 560.289931 501.819125 
L 578.434462 511.158279 
L 596.578993 520.133611 
L 614.723524 528.759295 
L 632.868055 537.048951 
L 651.012585 545.015672 
L 669.157116 552.672036 
L 687.301647 560.030134 
L 705.446178 567.101586 
L 723.590709 573.897559 
L 741.73524 580.428784 
L 759.879771 586.705574 
L 778.024302 592.737843 
L 796.168833 598.535115 
L 814.313364 604.106545 
L 832.457895 609.460931 
L 850.602425 614.606729 
L 868.746956 619.552064 
L 886.891487 624.304746 
L 905.036018 628.872279 
L 923.180549 633.261877 
L 947.373257 638.849828 
L 971.565965 644.14943 
L 995.758673 649.175563 
L 995.758673 649.175563 
" clip-path="url(#p5f1e8b05ea)" style="fill: none; stroke: #1f77b4; stroke-width: 5; stroke-linecap: round"/>
   </g>
   <g id="line2d_13">
    <path d="M 88.532127 67.941693 
L 100.628481 85.551646 
L 112.724835 102.701228 
L 124.821189 119.402474 
L 136.917543 135.667106 
L 149.013897 151.506537 
L 161.110251 166.931882 
L 173.206605 181.953969 
L 185.302959 196.583338 
L 197.399313 210.830256 
L 209.495667 224.704722 
L 221.592021 238.216473 
L 233.688375 251.37499 
L 245.784728 264.189509 
L 257.881082 276.669022 
L 269.977436 288.822288 
L 282.07379 300.657835 
L 294.170144 312.183969 
L 306.266498 323.40878 
L 318.362852 334.340144 
L 330.459206 344.985733 
L 342.55556 355.353018 
L 354.651914 365.449274 
L 366.748268 375.281588 
L 378.844622 384.856859 
L 390.940976 394.181807 
L 403.03733 403.262976 
L 415.133684 412.106739 
L 427.230038 420.719302 
L 439.326392 429.10671 
L 451.422745 437.274849 
L 463.519099 445.229451 
L 475.615453 452.976099 
L 487.711807 460.520229 
L 499.808161 467.867135 
L 511.904515 475.021973 
L 524.000869 481.989765 
L 536.097223 488.775401 
L 548.193577 495.383641 
L 560.289931 501.819125 
L 578.434462 511.158279 
L 596.578993 520.133611 
L 614.723524 528.759294 
L 632.868055 537.048951 
L 651.012585 545.015672 
L 669.157116 552.672036 
L 687.301647 560.030134 
L 705.446178 567.101586 
L 723.590709 573.897559 
L 741.73524 580.428783 
L 759.879771 586.705574 
L 778.024302 592.737843 
L 796.168833 598.535115 
L 814.313364 604.106545 
L 832.457895 609.460931 
L 850.602425 614.606728 
L 868.746956 619.552064 
L 886.891487 624.304746 
L 905.036018 628.87228 
L 923.180549 633.261878 
L 947.373257 638.849827 
L 971.565965 644.149428 
L 995.758673 649.175557 
L 995.758673 649.175557 
" clip-path="url(#p5f1e8b05ea)" style="fill: none; stroke: #ff7f0e; stroke-width: 5; stroke-linecap: round"/>
   </g>
   <g id="line2d_14">
    <path d="M 88.532127 67.941693 
L 100.628481 85.551646 
L 112.724835 102.701229 
L 124.821189 119.402474 
L 136.917543 135.667105 
L 149.013897 151.506537 
L 161.110251 166.931883 
L 173.206605 181.95397 
L 185.302959 196.583339 
L 197.399313 210.830257 
L 209.495667 224.704723 
L 221.592021 238.216473 
L 233.688375 251.37499 
L 245.784728 264.189509 
L 257.881082 276.669022 
L 269.977436 288.822287 
L 282.07379 300.657833 
L 294.170144 312.183967 
L 306.266498 323.408778 
L 318.362852 334.340142 
L 330.459206 344.985731 
L 342.55556 355.353016 
L 354.651914 365.449273 
L 366.748268 375.281587 
L 378.844622 384.856858 
L 390.940976 394.181807 
L 403.03733 403.262976 
L 415.133684 412.106739 
L 427.230038 420.719303 
L 439.326392 429.106711 
L 451.422745 437.274851 
L 463.519099 445.229453 
L 475.615453 452.976101 
L 487.711807 460.520231 
L 499.808161 467.867137 
L 511.904515 475.021975 
L 524.000869 481.989767 
L 536.097223 488.775402 
L 548.193577 495.383643 
L 560.289931 501.819126 
L 578.434462 511.158279 
L 596.578993 520.133611 
L 614.723524 528.759294 
L 632.868055 537.048951 
L 651.012585 545.015671 
L 669.157116 552.672035 
L 687.301647 560.030133 
L 705.446178 567.101585 
L 723.590709 573.897558 
L 741.73524 580.428783 
L 759.879771 586.705574 
L 778.024302 592.737842 
L 796.168833 598.535114 
L 814.313364 604.106544 
L 832.457895 609.460931 
L 850.602425 614.606729 
L 868.746956 619.552064 
L 886.891487 624.304746 
L 905.036018 628.872279 
L 923.180549 633.261877 
L 947.373257 638.849828 
L 971.565965 644.14943 
L 995.758673 649.175563 
L 995.758673 649.175563 
" clip-path="url(#p5f1e8b05ea)" style="fill: none; stroke: #2ca02c; stroke-width: 5; stroke-linecap: round"/>
   </g>
   <g id="line2d_15">
    <path d="M 88.532127 67.941693 
L 100.628481 85.551646 
L 112.724835 102.701229 
L 124.821189 119.402475 
L 136.917543 135.667106 
L 149.013897 151.506536 
L 161.110251 166.931882 
L 173.206605 181.953968 
L 185.302959 196.583337 
L 197.399313 210.830256 
L 209.495667 224.704722 
L 221.592021 238.216473 
L 233.688375 251.374991 
L 245.784728 264.18951 
L 257.881082 276.669024 
L 269.977436 288.822289 
L 282.07379 300.657836 
L 294.170144 312.18397 
L 306.266498 323.40878 
L 318.362852 334.340143 
L 330.459206 344.985732 
L 342.55556 355.353016 
L 354.651914 365.449273 
L 366.748268 375.281586 
L 378.844622 384.856857 
L 390.940976 394.181805 
L 403.03733 403.262974 
L 415.133684 412.106737 
L 427.230038 420.719301 
L 439.326392 429.10671 
L 451.422745 437.274849 
L 463.519099 445.229452 
L 475.615453 452.9761 
L 487.711807 460.52023 
L 499.808161 467.867136 
L 511.904515 475.021975 
L 524.000869 481.989767 
L 536.097223 488.775402 
L 548.193577 495.383643 
L 560.289931 501.819127 
L 578.434462 511.15828 
L 596.578993 520.133612 
L 614.723524 528.759295 
L 632.868055 537.048952 
L 651.012585 545.015671 
L 669.157116 552.672035 
L 687.301647 560.030133 
L 705.446178 567.101585 
L 723.590709 573.897557 
L 741.73524 580.428782 
L 759.879771 586.705573 
L 778.024302 592.737842 
L 796.168833 598.535114 
L 814.313364 604.106544 
L 832.457895 609.460931 
L 850.602425 614.606728 
L 868.746956 619.552063 
L 886.891487 624.304745 
L 905.036018 628.87228 
L 923.180549 633.26188 
L 947.373257 638.84983 
L 971.565965 644.149429 
L 995.758673 649.17556 
L 995.758673 649.17556 
" clip-path="url(#p5f1e8b05ea)" style="fill: none; stroke: #d62728; stroke-width: 5; stroke-linecap: round"/>
   </g>
   <g id="line2d_16">
    <path d="M 88.532127 67.941693 
L 100.628481 85.551646 
L 112.724835 102.701229 
L 124.821189 119.402475 
L 136.917543 135.667106 
L 149.013897 151.506537 
L 161.110251 166.931882 
L 173.206605 181.953969 
L 185.302959 196.583338 
L 197.399313 210.830256 
L 209.495667 224.704722 
L 221.592021 238.216473 
L 233.688375 251.37499 
L 245.784728 264.189509 
L 257.881082 276.669022 
L 269.977436 288.822288 
L 282.07379 300.657834 
L 294.170144 312.183969 
L 306.266498 323.408779 
L 318.362852 334.340143 
L 330.459206 344.985732 
L 342.55556 355.353018 
L 354.651914 365.449274 
L 366.748268 375.281588 
L 378.844622 384.856859 
L 390.940976 394.181807 
L 403.03733 403.262976 
L 415.133684 412.106739 
L 427.230038 420.719302 
L 439.326392 429.10671 
L 451.422745 437.274849 
L 463.519099 445.229451 
L 475.615453 452.976099 
L 487.711807 460.520229 
L 499.808161 467.867135 
L 511.904515 475.021973 
L 524.000869 481.989765 
L 536.097223 488.775401 
L 548.193577 495.383642 
L 560.289931 501.819125 
L 578.434462 511.158279 
L 596.578993 520.133611 
L 614.723524 528.759295 
L 632.868055 537.048951 
L 651.012585 545.015672 
L 669.157116 552.672036 
L 687.301647 560.030134 
L 705.446178 567.101586 
L 723.590709 573.897559 
L 741.73524 580.428784 
L 759.879771 586.705574 
L 778.024302 592.737843 
L 796.168833 598.535115 
L 814.313364 604.106545 
L 832.457895 609.460931 
L 850.602425 614.606729 
L 868.746956 619.552064 
L 886.891487 624.304746 
L 905.036018 628.872279 
L 923.180549 633.261877 
L 947.373257 638.849828 
L 971.565965 644.14943 
L 995.758673 649.175563 
L 995.758673 649.175563 
" clip-path="url(#p5f1e8b05ea)" style="fill: none; stroke: #9467bd; stroke-width: 5; stroke-linecap: round"/>
   </g>
   <g id="line2d_17">
    <path d="M 88.532127 67.941693 
L 100.628481 85.551646 
L 112.724835 102.701228 
L 124.821189 119.402475 
L 136.917543 135.667106 
L 149.013897 151.506537 
L 161.110251 166.931883 
L 173.206605 181.953969 
L 185.302959 196.583338 
L 197.399313 210.830256 
L 209.495667 224.704722 
L 221.592021 238.216473 
L 233.688375 251.37499 
L 245.784728 264.189509 
L 257.881082 276.669022 
L 269.977436 288.822288 
L 282.07379 300.657835 
L 294.170144 312.183969 
L 306.266498 323.408779 
L 318.362852 334.340143 
L 330.459206 344.985732 
L 342.55556 355.353017 
L 354.651914 365.449274 
L 366.748268 375.281588 
L 378.844622 384.856859 
L 390.940976 394.181807 
L 403.03733 403.262975 
L 415.133684 412.106738 
L 427.230038 420.719302 
L 439.326392 429.10671 
L 451.422745 437.274849 
L 463.519099 445.229451 
L 475.615453 452.976099 
L 487.711807 460.520229 
L 499.808161 467.867135 
L 511.904515 475.021973 
L 524.000869 481.989765 
L 536.097223 488.775401 
L 548.193577 495.383641 
L 560.289931 501.819125 
L 578.434462 511.158279 
L 596.578993 520.133611 
L 614.723524 528.759295 
L 632.868055 537.048951 
L 651.012585 545.015672 
L 669.157116 552.672036 
L 687.301647 560.030134 
L 705.446178 567.101586 
L 723.590709 573.897559 
L 741.73524 580.428784 
L 759.879771 586.705574 
L 778.024302 592.737843 
L 796.168833 598.535115 
L 814.313364 604.106545 
L 832.457895 609.460931 
L 850.602425 614.606729 
L 868.746956 619.552064 
L 886.891487 624.304746 
L 905.036018 628.872279 
L 923.180549 633.261877 
L 947.373257 638.849828 
L 971.565965 644.14943 
L 995.758673 649.175563 
L 995.758673 649.175563 
" clip-path="url(#p5f1e8b05ea)" style="fill: none; stroke: #8c564b; stroke-width: 5; stroke-linecap: round"/>
   </g>
   <g id="line2d_18">
    <path d="M 88.532127 67.941693 
L 100.628481 85.551646 
L 112.724835 102.701228 
L 124.821189 119.402474 
L 136.917543 135.667108 
L 149.013897 151.506541 
L 161.110251 166.931884 
L 173.206605 181.953961 
L 185.302959 196.583324 
L 197.399313 210.830246 
L 209.495667 224.704726 
L 221.592021 238.216495 
L 233.688375 251.375024 
L 245.784728 264.189538 
L 257.881082 276.669029 
L 269.977436 288.822265 
L 282.07379 300.657784 
L 294.170144 312.183904 
L 306.266498 323.408724 
L 318.362852 334.340115 
L 330.459206 344.98574 
L 342.55556 355.353074 
L 354.651914 365.449363 
L 366.748268 375.281679 
L 378.844622 384.856948 
L 390.940976 394.181871 
L 403.03733 403.262982 
L 415.133684 412.106701 
L 427.230038 420.719226 
L 439.326392 429.106588 
L 451.422745 437.274726 
L 463.519099 445.229363 
L 475.615453 452.976013 
L 487.711807 460.520149 
L 499.808161 467.867141 
L 511.904515 475.022077 
L 524.000869 481.989869 
L 536.097223 488.77546 
L 548.193577 495.383734 
L 560.289931 501.819292 
L 578.434462 511.158369 
L 596.578993 520.13358 
L 614.723524 528.759304 
L 632.868055 537.048885 
L 651.012585 545.015533 
L 669.157116 552.671955 
L 687.301647 560.030063 
L 705.446178 567.101525 
L 723.590709 573.897567 
L 741.73524 580.428821 
L 759.879771 586.705613 
L 778.024302 592.737897 
L 796.168833 598.535195 
L 814.313364 604.106674 
L 832.457895 609.461068 
L 850.602425 614.606696 
L 868.746956 619.551716 
L 886.891487 624.304305 
L 905.036018 628.872387 
L 923.180549 633.262952 
L 947.373257 638.850845 
L 971.565965 644.14749 
L 995.758673 649.17201 
L 995.758673 649.17201 
" clip-path="url(#p5f1e8b05ea)" style="fill: none; stroke: #e377c2; stroke-width: 5; stroke-linecap: round"/>
   </g>
   <g id="line2d_19">
    <path d="M 88.532127 67.941693 
L 100.628481 85.551646 
L 112.724835 102.701228 
L 124.821189 119.402475 
L 136.917543 135.667106 
L 149.013897 151.506537 
L 161.110251 166.931883 
L 173.206605 181.953969 
L 185.302959 196.583338 
L 197.399313 210.830256 
L 209.495667 224.704722 
L 221.592021 238.216473 
L 233.688375 251.37499 
L 245.784728 264.189509 
L 257.881082 276.669022 
L 269.977436 288.822288 
L 282.07379 300.657835 
L 294.170144 312.183969 
L 306.266498 323.408779 
L 318.362852 334.340143 
L 330.459206 344.985732 
L 342.55556 355.353017 
L 354.651914 365.449274 
L 366.748268 375.281588 
L 378.844622 384.856859 
L 390.940976 394.181807 
L 403.03733 403.262976 
L 415.133684 412.106739 
L 427.230038 420.719302 
L 439.326392 429.10671 
L 451.422745 437.274849 
L 463.519099 445.229451 
L 475.615453 452.976099 
L 487.711807 460.520229 
L 499.808161 467.867135 
L 511.904515 475.021973 
L 524.000869 481.989765 
L 536.097223 488.7754 
L 548.193577 495.383641 
L 560.289931 501.819125 
L 578.434462 511.158279 
L 596.578993 520.133611 
L 614.723524 528.759295 
L 632.868055 537.048951 
L 651.012585 545.015672 
L 669.157116 552.672036 
L 687.301647 560.030134 
L 705.446178 567.101586 
L 723.590709 573.897559 
L 741.73524 580.428784 
L 759.879771 586.705574 
L 778.024302 592.737843 
L 796.168833 598.535115 
L 814.313364 604.106545 
L 832.457895 609.460931 
L 850.602425 614.606729 
L 868.746956 619.552064 
L 886.891487 624.304746 
L 905.036018 628.872279 
L 923.180549 633.261877 
L 947.373257 638.849828 
L 971.565965 644.14943 
L 995.758673 649.175563 
L 995.758673 649.175563 
" clip-path="url(#p5f1e8b05ea)" style="fill: none; stroke: #7f7f7f; stroke-width: 5; stroke-linecap: round"/>
   </g>
   <g id="line2d_20">
    <path d="M 88.532127 67.941693 
L 100.628481 85.551646 
L 112.724835 102.701228 
L 124.821189 119.402475 
L 136.917543 135.667106 
L 149.013897 151.506537 
L 161.110251 166.931883 
L 173.206605 181.953969 
L 185.302959 196.583338 
L 197.399313 210.830256 
L 209.495667 224.704722 
L 221.592021 238.216473 
L 233.688375 251.37499 
L 245.784728 264.189509 
L 257.881082 276.669022 
L 269.977436 288.822288 
L 282.07379 300.657835 
L 294.170144 312.183969 
L 306.266498 323.408779 
L 318.362852 334.340143 
L 330.459206 344.985732 
L 342.55556 355.353018 
L 354.651914 365.449274 
L 366.748268 375.281588 
L 378.844622 384.856859 
L 390.940976 394.181807 
L 403.03733 403.262975 
L 415.133684 412.106738 
L 427.230038 420.719302 
L 439.326392 429.10671 
L 451.422745 437.274849 
L 463.519099 445.229451 
L 475.615453 452.976099 
L 487.711807 460.520229 
L 499.808161 467.867135 
L 511.904515 475.021973 
L 524.000869 481.989765 
L 536.097223 488.775401 
L 548.193577 495.383641 
L 560.289931 501.819125 
L 578.434462 511.158279 
L 596.578993 520.133611 
L 614.723524 528.759295 
L 632.868055 537.048951 
L 651.012585 545.015672 
L 669.157116 552.672036 
L 687.301647 560.030134 
L 705.446178 567.101586 
L 723.590709 573.897559 
L 741.73524 580.428784 
L 759.879771 586.705574 
L 778.024302 592.737843 
L 796.168833 598.535115 
L 814.313364 604.106545 
L 832.457895 609.460931 
L 850.602425 614.606729 
L 868.746956 619.552064 
L 886.891487 624.304746 
L 905.036018 628.872279 
L 923.180549 633.261877 
L 947.373257 638.849828 
L 971.565965 644.14943 
L 995.758673 649.175563 
L 995.758673 649.175563 
" clip-path="url(#p5f1e8b05ea)" style="fill: none; stroke: #bcbd22; stroke-width: 5; stroke-linecap: round"/>
   </g>
   <g id="line2d_21">
    <path d="M 88.532127 67.941693 
L 100.628481 85.551646 
L 112.724835 102.701228 
L 124.821189 119.402475 
L 136.917543 135.667106 
L 149.013897 151.506537 
L 161.110251 166.931883 
L 173.206605 181.953969 
L 185.302959 196.583338 
L 197.399313 210.830256 
L 209.495667 224.704722 
L 221.592021 238.216473 
L 233.688375 251.37499 
L 245.784728 264.189509 
L 257.881082 276.669022 
L 269.977436 288.822288 
L 282.07379 300.657835 
L 294.170144 312.183969 
L 306.266498 323.408779 
L 318.362852 334.340143 
L 330.459206 344.985732 
L 342.55556 355.353018 
L 354.651914 365.449274 
L 366.748268 375.281588 
L 378.844622 384.856859 
L 390.940976 394.181807 
L 403.03733 403.262976 
L 415.133684 412.106738 
L 427.230038 420.719302 
L 439.326392 429.10671 
L 451.422745 437.274849 
L 463.519099 445.229451 
L 475.615453 452.976099 
L 487.711807 460.520229 
L 499.808161 467.867135 
L 511.904515 475.021973 
L 524.000869 481.989765 
L 536.097223 488.775401 
L 548.193577 495.383641 
L 560.289931 501.819125 
L 578.434462 511.158279 
L 596.578993 520.133611 
L 614.723524 528.759295 
L 632.868055 537.048951 
L 651.012585 545.015672 
L 669.157116 552.672036 
L 687.301647 560.030134 
L 705.446178 567.101586 
L 723.590709 573.897559 
L 741.73524 580.428784 
L 759.879771 586.705574 
L 778.024302 592.737843 
L 796.168833 598.535115 
L 814.313364 604.106545 
L 832.457895 609.460931 
L 850.602425 614.606729 
L 868.746956 619.552064 
L 886.891487 624.304746 
L 905.036018 628.872279 
L 923.180549 633.261877 
L 947.373257 638.849828 
L 971.565965 644.14943 
L 995.758673 649.175563 
L 995.758673 649.175563 
" clip-path="url(#p5f1e8b05ea)" style="fill: none; stroke: #17becf; stroke-width: 5; stroke-linecap: round"/>
   </g>
   <g id="patch_3">
    <path d="M 88.532127 678.237256 
L 88.532127 38.88 
" style="fill: none; stroke: #262626; stroke-width: 0.8; stroke-linejoin: miter; stroke-linecap: square"/>
   </g>
   <g id="patch_4">
    <path d="M 88.532127 678.237256 
L 1041.12 678.237256 
" style="fill: none; stroke: #262626; stroke-width: 0.8; stroke-linejoin: miter; stroke-linecap: square"/>
   </g>
  </g>
 </g>
 <defs>
  <clipPath id="p5f1e8b05ea">
   <rect x="88.532127" y="38.88" width="952.587873" height="639.357256"/>
  </clipPath>
 </defs>
</svg>
