<?xml version="1.0" encoding="utf-8" standalone="no"?>
<!DOCTYPE svg PUBLIC "-//W3C//DTD SVG 1.1//EN"
  "http://www.w3.org/Graphics/SVG/1.1/DTD/svg11.dtd">
<svg xmlns:xlink="http://www.w3.org/1999/xlink" width="1080pt" height="576pt" viewBox="0 0 1080 576" xmlns="http://www.w3.org/2000/svg" version="1.1">
 <metadata>
  <rdf:RDF xmlns:dc="http://purl.org/dc/elements/1.1/" xmlns:cc="http://creativecommons.org/ns#" xmlns:rdf="http://www.w3.org/1999/02/22-rdf-syntax-ns#">
   <cc:Work>
    <dc:type rdf:resource="http://purl.org/dc/dcmitype/StillImage"/>
    <dc:date>2024-06-20T08:57:31.749921</dc:date>
    <dc:format>image/svg+xml</dc:format>
    <dc:creator>
     <cc:Agent>
      <dc:title>Matplotlib v3.9.0, https://matplotlib.org/</dc:title>
     </cc:Agent>
    </dc:creator>
   </cc:Work>
  </rdf:RDF>
 </metadata>
 <defs>
  <style type="text/css">*{stroke-linejoin: round; stroke-linecap: butt}</style>
 </defs>
 <g id="figure_1">
  <g id="patch_1">
   <path d="M 0 576 
L 1080 576 
L 1080 0 
L 0 0 
z
" style="fill: #ffffff"/>
  </g>
  <g id="axes_1">
   <g id="patch_2">
    <path d="M 41.730582 521.153031 
L 956.003138 521.153031 
L 956.003138 51.564121 
L 41.730582 51.564121 
z
" style="fill: #eaeaf2"/>
   </g>
   <g id="matplotlib.axis_1">
    <g id="xtick_1">
     <g id="line2d_1">
      <path d="M 41.730582 521.153031 
L 41.730582 51.564121 
" clip-path="url(#p110b46966e)" style="fill: none; stroke: #ffffff; stroke-linecap: round"/>
     </g>
     <g id="line2d_2"/>
     <g id="text_1">
      <!-- $\mathdefault{0.00}$ -->
      <g style="fill: #262626" transform="translate(29.591047 537.838907) scale(0.14 -0.14)">
       <defs>
        <path id="CMR17-30" d="M 2688 2025 
C 2688 2416 2682 3080 2413 3591 
C 2176 4039 1798 4198 1466 4198 
C 1158 4198 768 4058 525 3597 
C 269 3118 243 2524 243 2025 
C 243 1661 250 1106 448 619 
C 723 -39 1216 -128 1466 -128 
C 1760 -128 2208 -7 2470 600 
C 2662 1042 2688 1559 2688 2025 
z
M 1466 -26 
C 1056 -26 813 325 723 812 
C 653 1188 653 1738 653 2096 
C 653 2588 653 2997 736 3387 
C 858 3929 1216 4096 1466 4096 
C 1728 4096 2067 3923 2189 3400 
C 2272 3036 2278 2607 2278 2096 
C 2278 1680 2278 1169 2202 792 
C 2067 95 1690 -26 1466 -26 
z
" transform="scale(0.015625)"/>
        <path id="CMMI12-3a" d="M 1178 307 
C 1178 492 1024 619 870 619 
C 685 619 557 466 557 313 
C 557 128 710 0 864 0 
C 1050 0 1178 153 1178 307 
z
" transform="scale(0.015625)"/>
       </defs>
       <use xlink:href="#CMR17-30" transform="scale(0.996264)"/>
       <use xlink:href="#CMMI12-3a" transform="translate(45.690477 0) scale(0.996264)"/>
       <use xlink:href="#CMR17-30" transform="translate(72.787654 0) scale(0.996264)"/>
       <use xlink:href="#CMR17-30" transform="translate(118.478131 0) scale(0.996264)"/>
      </g>
     </g>
    </g>
    <g id="xtick_2">
     <g id="line2d_3">
      <path d="M 150.572553 521.153031 
L 150.572553 51.564121 
" clip-path="url(#p110b46966e)" style="fill: none; stroke: #ffffff; stroke-linecap: round"/>
     </g>
     <g id="line2d_4"/>
     <g id="text_2">
      <!-- $\mathdefault{0.25}$ -->
      <g style="fill: #262626" transform="translate(138.433018 537.838907) scale(0.14 -0.14)">
       <defs>
        <path id="CMR17-32" d="M 2669 989 
L 2554 989 
C 2490 536 2438 459 2413 420 
C 2381 369 1920 369 1830 369 
L 602 369 
C 832 619 1280 1072 1824 1597 
C 2214 1967 2669 2402 2669 3035 
C 2669 3790 2067 4224 1395 4224 
C 691 4224 262 3604 262 3030 
C 262 2780 448 2748 525 2748 
C 589 2748 781 2787 781 3010 
C 781 3207 614 3264 525 3264 
C 486 3264 448 3258 422 3245 
C 544 3790 915 4058 1306 4058 
C 1862 4058 2227 3617 2227 3035 
C 2227 2479 1901 2000 1536 1584 
L 262 146 
L 262 0 
L 2515 0 
L 2669 989 
z
" transform="scale(0.015625)"/>
        <path id="CMR17-35" d="M 730 3692 
C 794 3666 1056 3584 1325 3584 
C 1920 3584 2246 3911 2432 4100 
C 2432 4157 2432 4192 2394 4192 
C 2387 4192 2374 4192 2323 4163 
C 2099 4058 1837 3973 1517 3973 
C 1325 3973 1037 3999 723 4139 
C 653 4171 640 4171 634 4171 
C 602 4171 595 4164 595 4037 
L 595 2203 
C 595 2089 595 2057 659 2057 
C 691 2057 704 2070 736 2114 
C 941 2401 1222 2522 1542 2522 
C 1766 2522 2246 2382 2246 1289 
C 2246 1085 2246 715 2054 421 
C 1894 159 1645 25 1370 25 
C 947 25 518 320 403 814 
C 429 807 480 795 506 795 
C 589 795 749 840 749 1038 
C 749 1210 627 1280 506 1280 
C 358 1280 262 1190 262 1011 
C 262 454 704 -128 1382 -128 
C 2042 -128 2669 440 2669 1264 
C 2669 2030 2170 2624 1549 2624 
C 1222 2624 947 2503 730 2274 
L 730 3692 
z
" transform="scale(0.015625)"/>
       </defs>
       <use xlink:href="#CMR17-30" transform="scale(0.996264)"/>
       <use xlink:href="#CMMI12-3a" transform="translate(45.690477 0) scale(0.996264)"/>
       <use xlink:href="#CMR17-32" transform="translate(72.787654 0) scale(0.996264)"/>
       <use xlink:href="#CMR17-35" transform="translate(118.478131 0) scale(0.996264)"/>
      </g>
     </g>
    </g>
    <g id="xtick_3">
     <g id="line2d_5">
      <path d="M 259.414524 521.153031 
L 259.414524 51.564121 
" clip-path="url(#p110b46966e)" style="fill: none; stroke: #ffffff; stroke-linecap: round"/>
     </g>
     <g id="line2d_6"/>
     <g id="text_3">
      <!-- $\mathdefault{0.50}$ -->
      <g style="fill: #262626" transform="translate(247.274989 537.838907) scale(0.14 -0.14)">
       <use xlink:href="#CMR17-30" transform="scale(0.996264)"/>
       <use xlink:href="#CMMI12-3a" transform="translate(45.690477 0) scale(0.996264)"/>
       <use xlink:href="#CMR17-35" transform="translate(72.787654 0) scale(0.996264)"/>
       <use xlink:href="#CMR17-30" transform="translate(118.478131 0) scale(0.996264)"/>
      </g>
     </g>
    </g>
    <g id="xtick_4">
     <g id="line2d_7">
      <path d="M 368.256495 521.153031 
L 368.256495 51.564121 
" clip-path="url(#p110b46966e)" style="fill: none; stroke: #ffffff; stroke-linecap: round"/>
     </g>
     <g id="line2d_8"/>
     <g id="text_4">
      <!-- $\mathdefault{0.75}$ -->
      <g style="fill: #262626" transform="translate(356.116959 537.838907) scale(0.14 -0.14)">
       <defs>
        <path id="CMR17-37" d="M 2886 3941 
L 2886 4081 
L 1382 4081 
C 634 4081 621 4165 595 4288 
L 480 4288 
L 294 3094 
L 410 3094 
C 429 3215 474 3540 550 3661 
C 589 3712 1062 3712 1171 3712 
L 2579 3712 
L 1869 2661 
C 1395 1954 1069 999 1069 165 
C 1069 89 1069 -128 1299 -128 
C 1530 -128 1530 89 1530 171 
L 1530 465 
C 1530 1508 1709 2196 2003 2636 
L 2886 3941 
z
" transform="scale(0.015625)"/>
       </defs>
       <use xlink:href="#CMR17-30" transform="scale(0.996264)"/>
       <use xlink:href="#CMMI12-3a" transform="translate(45.690477 0) scale(0.996264)"/>
       <use xlink:href="#CMR17-37" transform="translate(72.787654 0) scale(0.996264)"/>
       <use xlink:href="#CMR17-35" transform="translate(118.478131 0) scale(0.996264)"/>
      </g>
     </g>
    </g>
    <g id="xtick_5">
     <g id="line2d_9">
      <path d="M 477.098466 521.153031 
L 477.098466 51.564121 
" clip-path="url(#p110b46966e)" style="fill: none; stroke: #ffffff; stroke-linecap: round"/>
     </g>
     <g id="line2d_10"/>
     <g id="text_5">
      <!-- $\mathdefault{1.00}$ -->
      <g style="fill: #262626" transform="translate(464.95893 537.838907) scale(0.14 -0.14)">
       <defs>
        <path id="CMR17-31" d="M 1702 4058 
C 1702 4192 1696 4192 1606 4192 
C 1357 3916 979 3827 621 3827 
C 602 3827 570 3827 563 3808 
C 557 3795 557 3782 557 3648 
C 755 3648 1088 3686 1344 3839 
L 1344 461 
C 1344 236 1331 160 781 160 
L 589 160 
L 589 0 
C 896 0 1216 0 1523 0 
C 1830 0 2150 0 2458 0 
L 2458 160 
L 2266 160 
C 1715 160 1702 230 1702 458 
L 1702 4058 
z
" transform="scale(0.015625)"/>
       </defs>
       <use xlink:href="#CMR17-31" transform="scale(0.996264)"/>
       <use xlink:href="#CMMI12-3a" transform="translate(45.690477 0) scale(0.996264)"/>
       <use xlink:href="#CMR17-30" transform="translate(72.787654 0) scale(0.996264)"/>
       <use xlink:href="#CMR17-30" transform="translate(118.478131 0) scale(0.996264)"/>
      </g>
     </g>
    </g>
    <g id="xtick_6">
     <g id="line2d_11">
      <path d="M 585.940437 521.153031 
L 585.940437 51.564121 
" clip-path="url(#p110b46966e)" style="fill: none; stroke: #ffffff; stroke-linecap: round"/>
     </g>
     <g id="line2d_12"/>
     <g id="text_6">
      <!-- $\mathdefault{1.25}$ -->
      <g style="fill: #262626" transform="translate(573.800901 537.838907) scale(0.14 -0.14)">
       <use xlink:href="#CMR17-31" transform="scale(0.996264)"/>
       <use xlink:href="#CMMI12-3a" transform="translate(45.690477 0) scale(0.996264)"/>
       <use xlink:href="#CMR17-32" transform="translate(72.787654 0) scale(0.996264)"/>
       <use xlink:href="#CMR17-35" transform="translate(118.478131 0) scale(0.996264)"/>
      </g>
     </g>
    </g>
    <g id="xtick_7">
     <g id="line2d_13">
      <path d="M 694.782408 521.153031 
L 694.782408 51.564121 
" clip-path="url(#p110b46966e)" style="fill: none; stroke: #ffffff; stroke-linecap: round"/>
     </g>
     <g id="line2d_14"/>
     <g id="text_7">
      <!-- $\mathdefault{1.50}$ -->
      <g style="fill: #262626" transform="translate(682.642872 537.838907) scale(0.14 -0.14)">
       <use xlink:href="#CMR17-31" transform="scale(0.996264)"/>
       <use xlink:href="#CMMI12-3a" transform="translate(45.690477 0) scale(0.996264)"/>
       <use xlink:href="#CMR17-35" transform="translate(72.787654 0) scale(0.996264)"/>
       <use xlink:href="#CMR17-30" transform="translate(118.478131 0) scale(0.996264)"/>
      </g>
     </g>
    </g>
    <g id="xtick_8">
     <g id="line2d_15">
      <path d="M 803.624378 521.153031 
L 803.624378 51.564121 
" clip-path="url(#p110b46966e)" style="fill: none; stroke: #ffffff; stroke-linecap: round"/>
     </g>
     <g id="line2d_16"/>
     <g id="text_8">
      <!-- $\mathdefault{1.75}$ -->
      <g style="fill: #262626" transform="translate(791.484843 537.838907) scale(0.14 -0.14)">
       <use xlink:href="#CMR17-31" transform="scale(0.996264)"/>
       <use xlink:href="#CMMI12-3a" transform="translate(45.690477 0) scale(0.996264)"/>
       <use xlink:href="#CMR17-37" transform="translate(72.787654 0) scale(0.996264)"/>
       <use xlink:href="#CMR17-35" transform="translate(118.478131 0) scale(0.996264)"/>
      </g>
     </g>
    </g>
    <g id="xtick_9">
     <g id="line2d_17">
      <path d="M 912.466349 521.153031 
L 912.466349 51.564121 
" clip-path="url(#p110b46966e)" style="fill: none; stroke: #ffffff; stroke-linecap: round"/>
     </g>
     <g id="line2d_18"/>
     <g id="text_9">
      <!-- $\mathdefault{2.00}$ -->
      <g style="fill: #262626" transform="translate(900.326814 537.838907) scale(0.14 -0.14)">
       <use xlink:href="#CMR17-32" transform="scale(0.996264)"/>
       <use xlink:href="#CMMI12-3a" transform="translate(45.690477 0) scale(0.996264)"/>
       <use xlink:href="#CMR17-30" transform="translate(72.787654 0) scale(0.996264)"/>
       <use xlink:href="#CMR17-30" transform="translate(118.478131 0) scale(0.996264)"/>
      </g>
     </g>
    </g>
    <g id="text_10">
     <!-- $x$ -->
     <g style="fill: #262626" transform="translate(494.432135 555.620524) scale(0.16 -0.16)">
      <defs>
       <path id="CMMI12-78" d="M 3034 2606 
C 2829 2567 2752 2414 2752 2293 
C 2752 2139 2874 2088 2963 2088 
C 3155 2088 3290 2254 3290 2427 
C 3290 2695 2982 2816 2714 2816 
C 2323 2816 2106 2433 2048 2312 
C 1901 2816 1504 2816 1389 2816 
C 736 2816 390 1980 390 1839 
C 390 1814 416 1782 461 1782 
C 512 1782 525 1820 538 1846 
C 755 2555 1184 2689 1370 2689 
C 1658 2689 1715 2420 1715 2267 
C 1715 2127 1677 1980 1600 1673 
L 1382 798 
C 1286 415 1101 64 762 64 
C 730 64 570 64 435 147 
C 666 192 717 383 717 460 
C 717 588 621 664 499 664 
C 346 664 179 530 179 326 
C 179 57 480 -64 755 -64 
C 1062 -64 1280 179 1414 441 
C 1517 64 1837 -64 2074 -64 
C 2726 -64 3072 773 3072 913 
C 3072 945 3046 971 3008 971 
C 2950 971 2944 939 2925 888 
C 2752 326 2381 64 2093 64 
C 1869 64 1747 230 1747 492 
C 1747 632 1773 734 1875 1156 
L 2099 2024 
C 2195 2408 2413 2689 2707 2689 
C 2720 2689 2899 2689 3034 2606 
z
" transform="scale(0.015625)"/>
      </defs>
      <use xlink:href="#CMMI12-78" transform="scale(0.996264)"/>
     </g>
    </g>
   </g>
   <g id="matplotlib.axis_2">
    <g id="ytick_1">
     <g id="line2d_19">
      <path d="M 41.730582 520.396358 
L 956.003138 520.396358 
" clip-path="url(#p110b46966e)" style="fill: none; stroke: #ffffff; stroke-linecap: round"/>
     </g>
     <g id="line2d_20"/>
     <g id="text_11">
      <!-- $\mathdefault{0.8}$ -->
      <g style="fill: #262626" transform="translate(17.28 525.239296) scale(0.14 -0.14)">
       <defs>
        <path id="CMR17-38" d="M 1741 2264 
C 2144 2467 2554 2773 2554 3263 
C 2554 3841 1990 4179 1472 4179 
C 890 4179 378 3759 378 3180 
C 378 3021 416 2747 666 2505 
C 730 2442 998 2251 1171 2130 
C 883 1983 211 1634 211 934 
C 211 279 838 -128 1459 -128 
C 2144 -128 2720 362 2720 1010 
C 2720 1590 2330 1857 2074 2029 
L 1741 2264 
z
M 902 2822 
C 851 2854 595 3051 595 3351 
C 595 3739 998 4032 1459 4032 
C 1965 4032 2336 3676 2336 3262 
C 2336 2669 1670 2331 1638 2331 
C 1632 2331 1626 2331 1574 2370 
L 902 2822 
z
M 2080 1519 
C 2176 1449 2483 1240 2483 851 
C 2483 381 2010 25 1472 25 
C 890 25 448 438 448 940 
C 448 1443 838 1862 1280 2060 
L 2080 1519 
z
" transform="scale(0.015625)"/>
       </defs>
       <use xlink:href="#CMR17-30" transform="scale(0.996264)"/>
       <use xlink:href="#CMMI12-3a" transform="translate(45.690477 0) scale(0.996264)"/>
       <use xlink:href="#CMR17-38" transform="translate(72.787654 0) scale(0.996264)"/>
      </g>
     </g>
    </g>
    <g id="ytick_2">
     <g id="line2d_21">
      <path d="M 41.730582 445.815144 
L 956.003138 445.815144 
" clip-path="url(#p110b46966e)" style="fill: none; stroke: #ffffff; stroke-linecap: round"/>
     </g>
     <g id="line2d_22"/>
     <g id="text_12">
      <!-- $\mathdefault{1.0}$ -->
      <g style="fill: #262626" transform="translate(17.28 450.658082) scale(0.14 -0.14)">
       <use xlink:href="#CMR17-31" transform="scale(0.996264)"/>
       <use xlink:href="#CMMI12-3a" transform="translate(45.690477 0) scale(0.996264)"/>
       <use xlink:href="#CMR17-30" transform="translate(72.787654 0) scale(0.996264)"/>
      </g>
     </g>
    </g>
    <g id="ytick_3">
     <g id="line2d_23">
      <path d="M 41.730582 371.233929 
L 956.003138 371.233929 
" clip-path="url(#p110b46966e)" style="fill: none; stroke: #ffffff; stroke-linecap: round"/>
     </g>
     <g id="line2d_24"/>
     <g id="text_13">
      <!-- $\mathdefault{1.2}$ -->
      <g style="fill: #262626" transform="translate(17.28 376.076867) scale(0.14 -0.14)">
       <use xlink:href="#CMR17-31" transform="scale(0.996264)"/>
       <use xlink:href="#CMMI12-3a" transform="translate(45.690477 0) scale(0.996264)"/>
       <use xlink:href="#CMR17-32" transform="translate(72.787654 0) scale(0.996264)"/>
      </g>
     </g>
    </g>
    <g id="ytick_4">
     <g id="line2d_25">
      <path d="M 41.730582 296.652715 
L 956.003138 296.652715 
" clip-path="url(#p110b46966e)" style="fill: none; stroke: #ffffff; stroke-linecap: round"/>
     </g>
     <g id="line2d_26"/>
     <g id="text_14">
      <!-- $\mathdefault{1.4}$ -->
      <g style="fill: #262626" transform="translate(17.28 301.495653) scale(0.14 -0.14)">
       <defs>
        <path id="CMR17-34" d="M 2150 4122 
C 2150 4256 2144 4256 2029 4256 
L 128 1254 
L 128 1088 
L 1779 1088 
L 1779 457 
C 1779 224 1766 160 1318 160 
L 1197 160 
L 1197 0 
C 1402 0 1747 0 1965 0 
C 2182 0 2528 0 2733 0 
L 2733 160 
L 2611 160 
C 2163 160 2150 224 2150 457 
L 2150 1088 
L 2803 1088 
L 2803 1254 
L 2150 1254 
L 2150 4122 
z
M 1798 3703 
L 1798 1254 
L 256 1254 
L 1798 3703 
z
" transform="scale(0.015625)"/>
       </defs>
       <use xlink:href="#CMR17-31" transform="scale(0.996264)"/>
       <use xlink:href="#CMMI12-3a" transform="translate(45.690477 0) scale(0.996264)"/>
       <use xlink:href="#CMR17-34" transform="translate(72.787654 0) scale(0.996264)"/>
      </g>
     </g>
    </g>
    <g id="ytick_5">
     <g id="line2d_27">
      <path d="M 41.730582 222.0715 
L 956.003138 222.0715 
" clip-path="url(#p110b46966e)" style="fill: none; stroke: #ffffff; stroke-linecap: round"/>
     </g>
     <g id="line2d_28"/>
     <g id="text_15">
      <!-- $\mathdefault{1.6}$ -->
      <g style="fill: #262626" transform="translate(17.28 226.914438) scale(0.14 -0.14)">
       <defs>
        <path id="CMR17-36" d="M 678 2176 
C 678 3690 1395 4032 1811 4032 
C 1946 4032 2272 4009 2400 3776 
C 2298 3776 2106 3776 2106 3553 
C 2106 3381 2246 3323 2336 3323 
C 2394 3323 2566 3348 2566 3560 
C 2566 3954 2246 4179 1805 4179 
C 1043 4179 243 3390 243 1984 
C 243 253 966 -128 1478 -128 
C 2099 -128 2688 427 2688 1283 
C 2688 2081 2170 2662 1517 2662 
C 1126 2662 838 2407 678 1960 
L 678 2176 
z
M 1478 25 
C 691 25 691 1200 691 1436 
C 691 1896 909 2560 1504 2560 
C 1613 2560 1926 2560 2138 2120 
C 2253 1870 2253 1609 2253 1289 
C 2253 944 2253 690 2118 434 
C 1978 171 1773 25 1478 25 
z
" transform="scale(0.015625)"/>
       </defs>
       <use xlink:href="#CMR17-31" transform="scale(0.996264)"/>
       <use xlink:href="#CMMI12-3a" transform="translate(45.690477 0) scale(0.996264)"/>
       <use xlink:href="#CMR17-36" transform="translate(72.787654 0) scale(0.996264)"/>
      </g>
     </g>
    </g>
    <g id="ytick_6">
     <g id="line2d_29">
      <path d="M 41.730582 147.490286 
L 956.003138 147.490286 
" clip-path="url(#p110b46966e)" style="fill: none; stroke: #ffffff; stroke-linecap: round"/>
     </g>
     <g id="line2d_30"/>
     <g id="text_16">
      <!-- $\mathdefault{1.8}$ -->
      <g style="fill: #262626" transform="translate(17.28 152.333224) scale(0.14 -0.14)">
       <use xlink:href="#CMR17-31" transform="scale(0.996264)"/>
       <use xlink:href="#CMMI12-3a" transform="translate(45.690477 0) scale(0.996264)"/>
       <use xlink:href="#CMR17-38" transform="translate(72.787654 0) scale(0.996264)"/>
      </g>
     </g>
    </g>
    <g id="ytick_7">
     <g id="line2d_31">
      <path d="M 41.730582 72.909071 
L 956.003138 72.909071 
" clip-path="url(#p110b46966e)" style="fill: none; stroke: #ffffff; stroke-linecap: round"/>
     </g>
     <g id="line2d_32"/>
     <g id="text_17">
      <!-- $\mathdefault{2.0}$ -->
      <g style="fill: #262626" transform="translate(17.28 77.75201) scale(0.14 -0.14)">
       <use xlink:href="#CMR17-32" transform="scale(0.996264)"/>
       <use xlink:href="#CMMI12-3a" transform="translate(45.690477 0) scale(0.996264)"/>
       <use xlink:href="#CMR17-30" transform="translate(72.787654 0) scale(0.996264)"/>
      </g>
     </g>
    </g>
   </g>
   <g id="line2d_33">
    <path d="M 41.730582 72.909071 
L 50.43794 72.909071 
L 59.145297 72.909071 
L 67.852655 72.909071 
L 76.560013 72.909071 
L 85.26737 72.909071 
L 93.974728 72.909071 
L 102.682086 72.909071 
L 111.389443 72.909071 
L 120.096801 72.909071 
L 128.804159 72.909071 
L 137.511516 72.909071 
L 146.218874 72.909071 
L 154.926232 72.909071 
L 163.633589 72.909071 
L 172.340947 72.909071 
L 181.048305 72.909071 
L 189.755662 72.909071 
L 198.46302 72.909071 
L 207.170378 72.909071 
L 215.877736 72.909071 
L 224.585093 72.909071 
L 233.292451 72.909071 
L 241.999809 72.909071 
L 250.707166 72.909071 
L 259.414524 72.909071 
L 268.121882 72.909071 
L 276.829239 72.909071 
L 285.536597 72.909071 
L 294.243955 72.909071 
L 302.951312 72.909071 
L 311.65867 72.909071 
L 320.366028 72.909071 
L 329.073385 72.909071 
L 337.780743 72.909071 
L 346.488101 72.909071 
L 355.195458 72.909071 
L 363.902816 72.909071 
L 372.610174 72.909071 
L 381.317531 72.909071 
L 390.024889 72.909071 
L 398.732247 72.909071 
L 407.439604 72.909071 
L 416.146962 72.909071 
L 424.85432 72.909071 
L 433.561677 72.909071 
L 442.269035 72.909071 
L 450.976393 72.909071 
L 459.68375 72.909071 
L 468.391108 72.909071 
L 477.098466 72.909071 
L 485.805823 72.909071 
L 494.513181 72.909071 
L 503.220539 72.909071 
L 511.927896 72.909071 
L 520.635254 72.909071 
L 529.342612 72.909071 
L 538.049969 72.909071 
L 546.757327 72.909071 
L 555.464685 72.909071 
L 564.172042 72.909071 
L 572.8794 72.909071 
L 581.586758 72.909071 
L 590.294115 72.909071 
L 599.001473 72.909071 
L 607.708831 72.909071 
L 616.416188 72.909071 
L 625.123546 72.909071 
L 633.830904 72.909071 
L 642.538261 72.909071 
L 651.245619 72.909071 
L 659.952977 72.909071 
L 668.660334 72.909071 
L 677.367692 72.909071 
L 686.07505 72.909071 
L 694.782408 72.909071 
L 703.489765 72.909071 
L 712.197123 72.909071 
L 720.904481 72.909071 
L 729.611838 72.909071 
L 738.319196 72.909071 
L 747.026554 72.909071 
L 755.733911 72.909071 
L 764.441269 72.909071 
L 773.148627 72.909071 
L 781.855984 72.909071 
L 790.563342 72.909071 
L 799.2707 72.909071 
L 807.978057 72.909071 
L 816.685415 72.909071 
L 825.392773 72.909071 
L 834.10013 72.909071 
L 842.807488 72.909071 
L 851.514846 72.909071 
L 860.222203 72.909071 
L 868.929561 72.909071 
L 877.636919 72.909071 
L 886.344276 72.909071 
L 895.051634 72.909071 
L 903.758992 72.909071 
L 912.466349 72.909071 
" clip-path="url(#p110b46966e)" style="fill: none; stroke: #393b79; stroke-width: 2; stroke-linecap: round"/>
   </g>
   <g id="line2d_34">
    <path d="M 41.730582 304.340235 
L 50.43794 296.899215 
L 59.145297 289.327643 
L 67.852655 281.623355 
L 76.560013 273.784195 
L 85.26737 265.808041 
L 93.974728 257.671312 
L 102.682086 249.368477 
L 111.389443 240.918524 
L 120.096801 232.319519 
L 128.804159 223.570138 
L 137.511516 214.670365 
L 146.218874 205.577899 
L 154.926232 196.326625 
L 163.633589 186.943912 
L 172.340947 177.456344 
L 181.048305 167.907435 
L 189.755662 158.297458 
L 198.46302 148.749906 
L 207.170378 139.397521 
L 215.877736 130.367508 
L 224.585093 121.692486 
L 233.292451 113.644038 
L 241.999809 106.261548 
L 250.707166 99.68978 
L 259.414524 93.936931 
L 268.121882 89.110891 
L 276.829239 85.080822 
L 285.536597 81.835315 
L 294.243955 79.313094 
L 302.951312 77.403096 
L 311.65867 75.993575 
L 320.366028 74.979702 
L 329.073385 74.268678 
L 337.780743 73.78237 
L 346.488101 73.457872 
L 355.195458 73.246548 
L 363.902816 73.112183 
L 372.610174 73.028741 
L 381.317531 72.97811 
L 390.024889 72.948081 
L 398.732247 72.930665 
L 407.439604 72.920784 
L 416.146962 72.915299 
L 424.85432 72.912318 
L 433.561677 72.910731 
L 442.269035 72.909904 
L 450.976393 72.909481 
L 459.68375 72.909269 
L 468.391108 72.909165 
L 477.098466 72.909115 
L 485.805823 72.909091 
L 494.513181 72.90908 
L 503.220539 72.909075 
L 511.927896 72.909073 
L 520.635254 72.909072 
L 529.342612 72.909072 
L 538.049969 72.909071 
L 546.757327 72.909071 
L 555.464685 72.909071 
L 564.172042 72.909071 
L 572.8794 72.909071 
L 581.586758 72.909071 
L 590.294115 72.909071 
L 599.001473 72.909071 
L 607.708831 72.909071 
L 616.416188 72.909071 
L 625.123546 72.909071 
L 633.830904 72.909071 
L 642.538261 72.909071 
L 651.245619 72.909071 
L 659.952977 72.909071 
L 668.660334 72.909071 
L 677.367692 72.909071 
L 686.07505 72.909071 
L 694.782408 72.909071 
L 703.489765 72.909071 
L 712.197123 72.909071 
L 720.904481 72.909071 
L 729.611838 72.909071 
L 738.319196 72.909071 
L 747.026554 72.909071 
L 755.733911 72.909071 
L 764.441269 72.909071 
L 773.148627 72.909071 
L 781.855984 72.909071 
L 790.563342 72.909071 
L 799.2707 72.909071 
L 807.978057 72.909071 
L 816.685415 72.909071 
L 825.392773 72.909071 
L 834.10013 72.909071 
L 842.807488 72.909071 
L 851.514846 72.909071 
L 860.222203 72.909071 
L 868.929561 72.909071 
L 877.636919 72.909071 
L 886.344276 72.909071 
L 895.051634 72.909071 
L 903.758992 72.909071 
L 912.466349 72.909071 
" clip-path="url(#p110b46966e)" style="fill: none; stroke: #8ca252; stroke-width: 2; stroke-linecap: round"/>
   </g>
   <g id="line2d_35">
    <path d="M 41.730582 405.969274 
L 50.43794 400.914742 
L 59.145297 395.791986 
L 67.852655 390.604198 
L 76.560013 385.35124 
L 85.26737 380.033052 
L 93.974728 374.616725 
L 102.682086 369.130551 
L 111.389443 363.576542 
L 120.096801 357.954812 
L 128.804159 352.248988 
L 137.511516 346.448886 
L 146.218874 340.578629 
L 154.926232 334.638575 
L 163.633589 328.620639 
L 172.340947 322.491544 
L 181.048305 316.290499 
L 189.755662 310.018192 
L 198.46302 303.663403 
L 207.170378 297.191259 
L 215.877736 290.64616 
L 224.585093 284.02924 
L 233.292451 277.310597 
L 241.999809 270.483262 
L 250.707166 263.583261 
L 259.414524 256.612493 
L 268.121882 249.501771 
L 276.829239 242.312393 
L 285.536597 235.054464 
L 294.243955 227.68602 
L 302.951312 220.211793 
L 311.65867 212.679835 
L 320.366028 205.070093 
L 329.073385 197.351867 
L 337.780743 189.610537 
L 346.488101 181.838067 
L 355.195458 174.00699 
L 363.902816 166.235943 
L 372.610174 158.501481 
L 381.317531 150.849567 
L 390.024889 143.404206 
L 398.732247 136.074342 
L 407.439604 129.086304 
L 416.146962 122.342939 
L 424.85432 116.056016 
L 433.561677 110.09854 
L 442.269035 104.673964 
L 450.976393 99.718356 
L 459.68375 95.252282 
L 468.391108 91.337258 
L 477.098466 87.951466 
L 485.805823 84.978414 
L 494.513181 82.474321 
L 503.220539 80.397641 
L 511.927896 78.699841 
L 520.635254 77.33155 
L 529.342612 76.244523 
L 538.049969 75.393233 
L 546.757327 74.73602 
L 555.464685 74.235812 
L 564.172042 73.860459 
L 572.8794 73.582736 
L 581.586758 73.380107 
L 590.294115 73.234309 
L 599.001473 73.13084 
L 607.708831 73.058411 
L 616.416188 73.008393 
L 625.123546 72.974314 
L 633.830904 72.951404 
L 642.538261 72.936204 
L 651.245619 72.926252 
L 659.952977 72.919819 
L 668.660334 72.915715 
L 677.367692 72.913129 
L 686.07505 72.91152 
L 694.782408 72.910532 
L 703.489765 72.909933 
L 712.197123 72.909573 
L 720.904481 72.909361 
L 729.611838 72.909236 
L 738.319196 72.909164 
L 747.026554 72.909123 
L 755.733911 72.9091 
L 764.441269 72.909087 
L 773.148627 72.90908 
L 781.855984 72.909076 
L 790.563342 72.909074 
L 799.2707 72.909073 
L 807.978057 72.909072 
L 816.685415 72.909072 
L 825.392773 72.909072 
L 834.10013 72.909071 
L 842.807488 72.909071 
L 851.514846 72.909071 
L 860.222203 72.909071 
L 868.929561 72.909071 
L 877.636919 72.909071 
L 886.344276 72.909071 
L 895.051634 72.909071 
L 903.758992 72.909071 
L 912.466349 72.909071 
" clip-path="url(#p110b46966e)" style="fill: none; stroke: #e7ba52; stroke-width: 2; stroke-linecap: round"/>
   </g>
   <g id="line2d_36">
    <path d="M 41.730582 463.013489 
L 50.43794 459.062774 
L 59.145297 455.070283 
L 67.852655 451.036188 
L 76.560013 446.947855 
L 85.26737 442.804302 
L 93.974728 438.618071 
L 102.682086 434.38948 
L 111.389443 430.113487 
L 120.096801 425.770169 
L 128.804159 421.383619 
L 137.511516 416.954335 
L 146.218874 412.477921 
L 154.926232 407.928695 
L 163.633589 403.336143 
L 172.340947 398.701003 
L 181.048305 394.010367 
L 189.755662 389.25023 
L 198.46302 384.447298 
L 207.170378 379.602605 
L 215.877736 374.68283 
L 224.585093 369.708408 
L 233.292451 364.692536 
L 241.999809 359.620722 
L 250.707166 354.471617 
L 259.414524 349.281774 
L 268.121882 344.05148 
L 276.829239 338.725149 
L 285.536597 333.359272 
L 294.243955 327.955897 
L 302.951312 322.458495 
L 311.65867 316.915454 
L 320.366028 311.337094 
L 329.073385 305.662825 
L 337.780743 299.942644 
L 346.488101 294.19011 
L 355.195458 288.331505 
L 363.902816 282.435684 
L 372.610174 276.501522 
L 381.317531 270.460958 
L 390.024889 264.393066 
L 398.732247 258.264745 
L 407.439604 252.052759 
L 416.146962 245.819962 
L 424.85432 239.492212 
L 433.561677 233.119884 
L 442.269035 226.717492 
L 450.976393 220.211816 
L 459.68375 213.704038 
L 468.391108 207.117095 
L 477.098466 200.502708 
L 485.805823 193.876182 
L 494.513181 187.187859 
L 503.220539 180.554403 
L 511.927896 173.848855 
L 520.635254 167.235403 
L 529.342612 160.619603 
L 538.049969 154.119464 
L 546.757327 147.683982 
L 555.464685 141.41854 
L 564.172042 135.272988 
L 572.8794 129.38698 
L 581.586758 123.65096 
L 590.294115 118.244502 
L 599.001473 113.091081 
L 607.708831 108.253169 
L 616.416188 103.798437 
L 625.123546 99.653575 
L 633.830904 95.861608 
L 642.538261 92.461928 
L 651.245619 89.442759 
L 659.952977 86.75544 
L 668.660334 84.371619 
L 677.367692 82.316126 
L 686.07505 80.561602 
L 694.782408 79.079191 
L 703.489765 77.839487 
L 712.197123 76.813386 
L 720.904481 75.972815 
L 729.611838 75.291314 
L 738.319196 74.744465 
L 747.026554 74.310173 
L 755.733911 73.968808 
L 764.441269 73.703231 
L 773.148627 73.498725 
L 781.855984 73.342845 
L 790.563342 73.225233 
L 799.2707 73.137388 
L 807.978057 73.072435 
L 816.685415 73.024888 
L 825.392773 72.990427 
L 834.10013 72.965699 
L 842.807488 72.948128 
L 851.514846 72.935764 
L 860.222203 72.92715 
L 868.929561 72.921205 
L 877.636919 72.917142 
L 886.344276 72.914392 
L 895.051634 72.912548 
L 903.758992 72.911323 
L 912.466349 72.910516 
" clip-path="url(#p110b46966e)" style="fill: none; stroke: #e7969c; stroke-width: 2; stroke-linecap: round"/>
   </g>
   <g id="line2d_37">
    <path d="M 41.730582 499.80808 
L 50.43794 496.483903 
L 59.145297 493.128395 
L 67.852655 489.741792 
L 76.560013 486.307969 
L 85.26737 482.837792 
L 93.974728 479.335976 
L 102.682086 475.802875 
L 111.389443 472.225496 
L 120.096801 468.605431 
L 128.804159 464.953723 
L 137.511516 461.270872 
L 146.218874 457.540927 
L 154.926232 453.76784 
L 163.633589 449.963496 
L 172.340947 446.128584 
L 181.048305 442.236385 
L 189.755662 438.308167 
L 198.46302 434.349586 
L 207.170378 430.350857 
L 215.877736 426.296694 
L 224.585093 422.212614 
L 233.292451 418.099707 
L 241.999809 413.921449 
L 250.707166 409.710477 
L 259.414524 405.471614 
L 268.121882 401.175546 
L 276.829239 396.836827 
L 285.536597 392.471525 
L 294.243955 388.053047 
L 302.951312 383.586383 
L 311.65867 379.094893 
L 320.366028 374.549218 
L 329.073385 369.955213 
L 337.780743 365.33866 
L 346.488101 360.660818 
L 355.195458 355.94104 
L 363.902816 351.201609 
L 372.610174 346.386452 
L 381.317531 341.543628 
L 390.024889 336.673822 
L 398.732247 331.726978 
L 407.439604 326.765223 
L 416.146962 321.750918 
L 424.85432 316.685994 
L 433.561677 311.611075 
L 442.269035 306.446763 
L 450.976393 301.270413 
L 459.68375 296.047465 
L 468.391108 290.770122 
L 477.098466 285.488347 
L 485.805823 280.110757 
L 494.513181 274.734269 
L 503.220539 269.293332 
L 511.927896 263.820851 
L 520.635254 258.319524 
L 529.342612 252.753236 
L 538.049969 247.192085 
L 546.757327 241.535169 
L 555.464685 235.8977 
L 564.172042 230.172863 
L 572.8794 224.456242 
L 581.586758 218.676776 
L 590.294115 212.890773 
L 599.001473 207.064408 
L 607.708831 201.224266 
L 616.416188 195.364288 
L 625.123546 189.49338 
L 633.830904 183.621089 
L 642.538261 177.754061 
L 651.245619 171.901351 
L 659.952977 166.087307 
L 668.660334 160.298786 
L 677.367692 154.603802 
L 686.07505 148.937655 
L 694.782408 143.438951 
L 703.489765 137.972526 
L 712.197123 132.702797 
L 720.904481 127.583068 
L 729.611838 122.622289 
L 738.319196 117.915964 
L 747.026554 113.389947 
L 755.733911 109.100848 
L 764.441269 105.10384 
L 773.148627 101.376379 
L 781.855984 97.8703 
L 790.563342 94.669088 
L 799.2707 91.767531 
L 807.978057 89.157217 
L 816.685415 86.796071 
L 825.392773 84.668012 
L 834.10013 82.797586 
L 842.807488 81.166723 
L 851.514846 79.756202 
L 860.222203 78.546163 
L 868.929561 77.516596 
L 877.636919 76.647778 
L 886.344276 75.920654 
L 895.051634 75.317141 
L 903.758992 74.820369 
L 912.466349 74.414843 
" clip-path="url(#p110b46966e)" style="fill: none; stroke: #de9ed6; stroke-width: 2; stroke-linecap: round"/>
   </g>
   <g id="patch_3">
    <path d="M 41.730582 521.153031 
L 41.730582 51.564121 
" style="fill: none"/>
   </g>
   <g id="patch_4">
    <path d="M 956.003138 521.153031 
L 956.003138 51.564121 
" style="fill: none"/>
   </g>
   <g id="patch_5">
    <path d="M 41.730582 521.153031 
L 956.003138 521.153031 
" style="fill: none"/>
   </g>
   <g id="patch_6">
    <path d="M 41.730582 51.564121 
L 956.003138 51.564121 
" style="fill: none"/>
   </g>
   <g id="patch_7">
    <path d="M 65.254937 73.870508 
Q 274.652842 188.521603 482.579755 302.36729 
" style="fill: none; stroke: #000000; stroke-width: 1.5; stroke-linecap: round"/>
    <path d="M 478.502931 296.486856 
L 482.579755 302.36729 
L 475.429314 302.100489 
" style="fill: none; stroke: #000000; stroke-width: 1.5; stroke-linecap: round"/>
   </g>
   <g id="text_18">
    <!-- Time -->
    <g style="fill: #262626" transform="translate(477.098466 296.916526) scale(0.18 -0.18)">
     <defs>
      <path id="CMR17-54" d="M 3981 4326 
L 288 4326 
L 179 2918 
L 294 2918 
C 378 3976 467 4160 1453 4160 
C 1568 4160 1754 4160 1805 4154 
C 1926 4135 1926 4058 1926 3912 
L 1926 459 
C 1926 230 1907 160 1376 160 
L 1197 160 
L 1197 0 
C 1504 0 1824 0 2138 0 
C 2451 0 2771 0 3078 0 
L 3078 160 
L 2899 160 
C 2368 160 2349 230 2349 459 
L 2349 3912 
C 2349 4052 2349 4129 2464 4154 
C 2515 4160 2701 4160 2816 4160 
C 3795 4160 3891 3976 3974 2918 
L 4090 2918 
L 3981 4326 
z
" transform="scale(0.015625)"/>
      <path id="CMR17-69" d="M 992 3909 
C 992 4049 877 4170 730 4170 
C 589 4170 467 4056 467 3909 
C 467 3769 582 3648 730 3648 
C 870 3648 992 3763 992 3909 
z
M 243 2706 
L 243 2541 
C 602 2541 653 2502 653 2197 
L 653 427 
C 653 184 627 153 218 153 
L 218 -13 
C 371 0 646 0 806 0 
C 960 0 1222 0 1370 -13 
L 1370 153 
C 992 153 979 191 979 420 
L 979 2776 
L 243 2706 
z
" transform="scale(0.015625)"/>
      <path id="CMR17-6d" d="M 4326 1933 
C 4326 2252 4269 2790 3507 2790 
C 3072 2790 2771 2496 2656 2151 
L 2650 2151 
C 2573 2676 2195 2790 1837 2790 
C 1331 2790 1069 2400 973 2144 
L 966 2144 
L 966 2790 
L 211 2720 
L 211 2554 
C 589 2554 646 2515 646 2208 
L 646 428 
C 646 184 621 153 211 153 
L 211 -13 
C 365 0 646 0 813 0 
C 979 0 1267 0 1421 -13 
L 1421 153 
C 1011 153 986 178 986 428 
L 986 1658 
C 986 2247 1344 2688 1792 2688 
C 2266 2688 2317 2266 2317 1958 
L 2317 428 
C 2317 184 2291 153 1882 153 
L 1882 -13 
C 2035 0 2317 0 2483 0 
C 2650 0 2938 0 3091 -13 
L 3091 153 
C 2682 153 2656 178 2656 428 
L 2656 1658 
C 2656 2247 3014 2688 3462 2688 
C 3936 2688 3987 2266 3987 1958 
L 3987 428 
C 3987 184 3962 153 3552 153 
L 3552 -13 
C 3706 0 3987 0 4154 0 
C 4320 0 4608 0 4762 -13 
L 4762 153 
C 4352 153 4326 178 4326 428 
L 4326 1933 
z
" transform="scale(0.015625)"/>
      <path id="CMR17-65" d="M 2438 1472 
C 2464 1498 2464 1511 2464 1576 
C 2464 2238 2118 2816 1389 2816 
C 710 2816 173 2169 173 1383 
C 173 551 781 -64 1459 -64 
C 2176 -64 2458 607 2458 740 
C 2458 784 2419 784 2406 784 
C 2362 784 2355 771 2330 696 
C 2189 265 1837 51 1504 51 
C 1229 51 954 203 781 480 
C 582 803 582 1176 582 1472 
L 2438 1472 
z
M 589 1568 
C 634 2505 1126 2714 1382 2714 
C 1818 2714 2112 2297 2118 1568 
L 589 1568 
z
" transform="scale(0.015625)"/>
     </defs>
     <use xlink:href="#CMR17-54" transform="scale(0.996264)"/>
     <use xlink:href="#CMR17-69" transform="translate(66.509881 0) scale(0.996264)"/>
     <use xlink:href="#CMR17-6d" transform="translate(91.380939 0) scale(0.996264)"/>
     <use xlink:href="#CMR17-65" transform="translate(168.300529 0) scale(0.996264)"/>
    </g>
   </g>
   <g id="legend_1">
    <g id="line2d_38">
     <path d="M 968.603138 245.978505 
L 982.603138 245.978505 
L 996.603138 245.978505 
" style="fill: none; stroke: #393b79; stroke-width: 2; stroke-linecap: round"/>
    </g>
    <g id="text_19">
     <!-- t = 0.00 -->
     <g style="fill: #262626" transform="translate(1007.803138 250.878505) scale(0.14 -0.14)">
      <defs>
       <path id="CMR17-74" d="M 966 2560 
L 1862 2560 
L 1862 2725 
L 966 2725 
L 966 3904 
L 851 3904 
C 838 3245 614 2668 70 2668 
L 70 2560 
L 627 2560 
L 627 771 
C 627 650 627 -64 1370 -64 
C 1747 -64 1965 306 1965 777 
L 1965 1140 
L 1850 1140 
L 1850 783 
C 1850 344 1677 51 1408 51 
C 1222 51 966 178 966 758 
L 966 2560 
z
" transform="scale(0.015625)"/>
       <path id="CMR17-3d" d="M 4115 2017 
C 4211 2017 4307 2017 4307 2125 
C 4307 2240 4198 2240 4090 2240 
L 512 2240 
C 403 2240 294 2240 294 2125 
C 294 2017 390 2017 486 2017 
L 4115 2017 
z
M 4090 896 
C 4198 896 4307 896 4307 1011 
C 4307 1119 4211 1119 4115 1119 
L 486 1119 
C 390 1119 294 1119 294 1011 
C 294 896 403 896 512 896 
L 4090 896 
z
" transform="scale(0.015625)"/>
       <path id="CMR17-2e" d="M 1062 261 
C 1062 420 934 522 800 522 
C 672 522 538 420 538 261 
C 538 102 666 0 800 0 
C 928 0 1062 102 1062 261 
z
" transform="scale(0.015625)"/>
      </defs>
      <use xlink:href="#CMR17-74" transform="scale(0.996264)"/>
      <use xlink:href="#CMR17-3d" transform="translate(65.356734 0) scale(0.996264)"/>
      <use xlink:href="#CMR17-30" transform="translate(167.147489 0) scale(0.996264)"/>
      <use xlink:href="#CMR17-2e" transform="translate(212.837966 0) scale(0.996264)"/>
      <use xlink:href="#CMR17-30" transform="translate(237.709025 0) scale(0.996264)"/>
      <use xlink:href="#CMR17-30" transform="translate(283.399502 0) scale(0.996264)"/>
     </g>
    </g>
    <g id="line2d_39">
     <path d="M 968.603138 265.490533 
L 982.603138 265.490533 
L 996.603138 265.490533 
" style="fill: none; stroke: #8ca252; stroke-width: 2; stroke-linecap: round"/>
    </g>
    <g id="text_20">
     <!-- t = 0.25 -->
     <g style="fill: #262626" transform="translate(1007.803138 270.390533) scale(0.14 -0.14)">
      <use xlink:href="#CMR17-74" transform="scale(0.996264)"/>
      <use xlink:href="#CMR17-3d" transform="translate(65.356734 0) scale(0.996264)"/>
      <use xlink:href="#CMR17-30" transform="translate(167.147489 0) scale(0.996264)"/>
      <use xlink:href="#CMR17-2e" transform="translate(212.837966 0) scale(0.996264)"/>
      <use xlink:href="#CMR17-32" transform="translate(237.709025 0) scale(0.996264)"/>
      <use xlink:href="#CMR17-35" transform="translate(283.399502 0) scale(0.996264)"/>
     </g>
    </g>
    <g id="line2d_40">
     <path d="M 968.603138 285.002562 
L 982.603138 285.002562 
L 996.603138 285.002562 
" style="fill: none; stroke: #e7ba52; stroke-width: 2; stroke-linecap: round"/>
    </g>
    <g id="text_21">
     <!-- t = 0.50 -->
     <g style="fill: #262626" transform="translate(1007.803138 289.902562) scale(0.14 -0.14)">
      <use xlink:href="#CMR17-74" transform="scale(0.996264)"/>
      <use xlink:href="#CMR17-3d" transform="translate(65.356734 0) scale(0.996264)"/>
      <use xlink:href="#CMR17-30" transform="translate(167.147489 0) scale(0.996264)"/>
      <use xlink:href="#CMR17-2e" transform="translate(212.837966 0) scale(0.996264)"/>
      <use xlink:href="#CMR17-35" transform="translate(237.709025 0) scale(0.996264)"/>
      <use xlink:href="#CMR17-30" transform="translate(283.399502 0) scale(0.996264)"/>
     </g>
    </g>
    <g id="line2d_41">
     <path d="M 968.603138 304.51459 
L 982.603138 304.51459 
L 996.603138 304.51459 
" style="fill: none; stroke: #e7969c; stroke-width: 2; stroke-linecap: round"/>
    </g>
    <g id="text_22">
     <!-- t = 0.75 -->
     <g style="fill: #262626" transform="translate(1007.803138 309.41459) scale(0.14 -0.14)">
      <use xlink:href="#CMR17-74" transform="scale(0.996264)"/>
      <use xlink:href="#CMR17-3d" transform="translate(65.356734 0) scale(0.996264)"/>
      <use xlink:href="#CMR17-30" transform="translate(167.147489 0) scale(0.996264)"/>
      <use xlink:href="#CMR17-2e" transform="translate(212.837966 0) scale(0.996264)"/>
      <use xlink:href="#CMR17-37" transform="translate(237.709025 0) scale(0.996264)"/>
      <use xlink:href="#CMR17-35" transform="translate(283.399502 0) scale(0.996264)"/>
     </g>
    </g>
    <g id="line2d_42">
     <path d="M 968.603138 324.026618 
L 982.603138 324.026618 
L 996.603138 324.026618 
" style="fill: none; stroke: #de9ed6; stroke-width: 2; stroke-linecap: round"/>
    </g>
    <g id="text_23">
     <!-- t = 1.00 -->
     <g style="fill: #262626" transform="translate(1007.803138 328.926618) scale(0.14 -0.14)">
      <use xlink:href="#CMR17-74" transform="scale(0.996264)"/>
      <use xlink:href="#CMR17-3d" transform="translate(65.356734 0) scale(0.996264)"/>
      <use xlink:href="#CMR17-31" transform="translate(167.147489 0) scale(0.996264)"/>
      <use xlink:href="#CMR17-2e" transform="translate(212.837966 0) scale(0.996264)"/>
      <use xlink:href="#CMR17-30" transform="translate(237.709025 0) scale(0.996264)"/>
      <use xlink:href="#CMR17-30" transform="translate(283.399502 0) scale(0.996264)"/>
     </g>
    </g>
   </g>
  </g>
  <g id="text_24">
   <!-- Permeability -->
   <g style="fill: #262626" transform="translate(491.488794 24.803515) scale(0.192 -0.192)">
    <defs>
     <path id="CMR17-50" d="M 1267 2042 
L 2291 2042 
C 3117 2042 3718 2578 3718 3184 
C 3718 3791 3130 4352 2291 4352 
L 333 4352 
L 333 4186 
C 774 4186 845 4186 845 3899 
L 845 446 
C 845 160 774 160 333 160 
L 333 0 
C 518 0 858 0 1056 0 
C 1254 0 1594 0 1779 0 
L 1779 160 
C 1338 160 1267 160 1267 446 
L 1267 2042 
z
M 1254 2176 
L 1254 3938 
C 1254 4155 1267 4186 1523 4186 
L 2170 4186 
C 2995 4186 3232 3714 3232 3184 
C 3232 2604 2950 2176 2170 2176 
L 1254 2176 
z
" transform="scale(0.015625)"/>
     <path id="CMR17-72" d="M 960 1497 
C 960 2112 1222 2688 1702 2688 
C 1747 2688 1792 2682 1837 2662 
C 1837 2662 1696 2617 1696 2452 
C 1696 2298 1818 2234 1914 2234 
C 1990 2234 2131 2279 2131 2458 
C 2131 2663 1926 2790 1709 2790 
C 1222 2790 1011 2317 947 2093 
L 941 2093 
L 941 2790 
L 198 2720 
L 198 2554 
C 576 2554 634 2515 634 2208 
L 634 428 
C 634 184 608 153 198 153 
L 198 -13 
C 352 0 646 0 813 0 
C 998 0 1325 0 1498 -13 
L 1498 153 
C 1037 153 960 153 960 440 
L 960 1497 
z
" transform="scale(0.015625)"/>
     <path id="CMR17-61" d="M 2304 1653 
C 2304 2072 2304 2294 2035 2543 
C 1798 2752 1523 2816 1306 2816 
C 800 2816 435 2407 435 1971 
C 435 1728 627 1728 666 1728 
C 749 1728 896 1778 896 1954 
C 896 2112 774 2181 666 2181 
C 640 2181 608 2174 589 2168 
C 723 2592 1069 2714 1293 2714 
C 1613 2714 1965 2429 1965 1885 
L 1965 1600 
C 1587 1600 1133 1549 774 1357 
C 371 1133 256 813 256 570 
C 256 77 832 -64 1171 -64 
C 1523 -64 1850 139 1990 511 
C 2003 233 2182 -18 2464 -18 
C 2598 -18 2938 70 2938 567 
L 2938 920 
L 2822 920 
L 2822 562 
C 2822 178 2650 128 2566 128 
C 2304 128 2304 458 2304 738 
L 2304 1653 
z
M 1965 870 
C 1965 317 1568 38 1216 38 
C 896 38 646 275 646 570 
C 646 761 730 1100 1101 1305 
C 1408 1478 1760 1504 1965 1504 
L 1965 870 
z
" transform="scale(0.015625)"/>
     <path id="CMR17-62" d="M 960 4396 
L 198 4326 
L 198 4160 
C 576 4160 634 4122 634 3817 
L 634 -13 
L 749 -13 
L 934 441 
C 1120 141 1395 -64 1766 -64 
C 2406 -64 3053 500 3053 1370 
C 3053 2188 2477 2790 1830 2790 
C 1434 2790 1152 2579 960 2330 
L 960 4396 
z
M 973 2004 
C 973 2118 973 2138 1062 2272 
C 1312 2657 1670 2688 1792 2688 
C 1984 2688 2643 2585 2643 1376 
C 2643 108 1888 38 1734 38 
C 1536 38 1248 114 1043 486 
C 973 608 973 621 973 735 
L 973 2004 
z
" transform="scale(0.015625)"/>
     <path id="CMR17-6c" d="M 979 4396 
L 218 4326 
L 218 4160 
C 595 4160 653 4122 653 3817 
L 653 426 
C 653 184 627 153 218 153 
L 218 -13 
C 371 0 653 0 813 0 
C 979 0 1261 0 1414 -13 
L 1414 153 
C 1005 153 979 178 979 426 
L 979 4396 
z
" transform="scale(0.015625)"/>
     <path id="CMR17-79" d="M 2496 2197 
C 2656 2586 2944 2586 3034 2586 
L 3034 2752 
C 2912 2752 2752 2752 2630 2752 
C 2496 2752 2285 2752 2157 2758 
L 2157 2592 
C 2400 2573 2406 2394 2406 2343 
C 2406 2280 2394 2248 2362 2171 
L 1664 449 
L 902 2306 
C 870 2382 870 2426 870 2433 
C 870 2573 1018 2586 1171 2586 
L 1171 2758 
C 1018 2752 742 2752 582 2752 
C 410 2752 205 2752 64 2758 
L 64 2586 
C 410 2586 448 2554 531 2350 
L 1485 15 
C 1197 -738 1030 -1178 627 -1178 
C 557 -1178 397 -1159 282 -1044 
C 429 -1031 493 -942 493 -833 
C 493 -725 416 -629 288 -629 
C 147 -629 77 -725 77 -840 
C 77 -1095 339 -1280 627 -1280 
C 998 -1280 1229 -922 1357 -604 
L 2496 2197 
z
" transform="scale(0.015625)"/>
    </defs>
    <use xlink:href="#CMR17-50" transform="scale(0.996264)"/>
    <use xlink:href="#CMR17-65" transform="translate(59.983847 0) scale(0.996264)"/>
    <use xlink:href="#CMR17-72" transform="translate(100.469507 0) scale(0.996264)"/>
    <use xlink:href="#CMR17-6d" transform="translate(135.750275 0) scale(0.996264)"/>
    <use xlink:href="#CMR17-65" transform="translate(212.669865 0) scale(0.996264)"/>
    <use xlink:href="#CMR17-61" transform="translate(253.155525 0) scale(0.996264)"/>
    <use xlink:href="#CMR17-62" transform="translate(298.846002 0) scale(0.996264)"/>
    <use xlink:href="#CMR17-69" transform="translate(349.741372 0) scale(0.996264)"/>
    <use xlink:href="#CMR17-6c" transform="translate(374.612431 0) scale(0.996264)"/>
    <use xlink:href="#CMR17-69" transform="translate(399.483489 0) scale(0.996264)"/>
    <use xlink:href="#CMR17-74" transform="translate(424.354548 0) scale(0.996264)"/>
    <use xlink:href="#CMR17-79" transform="translate(457.032861 0) scale(0.996264)"/>
   </g>
  </g>
 </g>
 <defs>
  <clipPath id="p110b46966e">
   <rect x="41.730582" y="51.564121" width="914.272556" height="469.58891"/>
  </clipPath>
 </defs>
</svg>
