<?xml version="1.0" encoding="utf-8" standalone="no"?>
<!DOCTYPE svg PUBLIC "-//W3C//DTD SVG 1.1//EN"
  "http://www.w3.org/Graphics/SVG/1.1/DTD/svg11.dtd">
<svg xmlns:xlink="http://www.w3.org/1999/xlink" width="1080pt" height="576pt" viewBox="0 0 1080 576" xmlns="http://www.w3.org/2000/svg" version="1.1">
 <metadata>
  <rdf:RDF xmlns:dc="http://purl.org/dc/elements/1.1/" xmlns:cc="http://creativecommons.org/ns#" xmlns:rdf="http://www.w3.org/1999/02/22-rdf-syntax-ns#">
   <cc:Work>
    <dc:type rdf:resource="http://purl.org/dc/dcmitype/StillImage"/>
    <dc:date>2024-06-28T12:17:40.699146</dc:date>
    <dc:format>image/svg+xml</dc:format>
    <dc:creator>
     <cc:Agent>
      <dc:title>Matplotlib v3.9.0, https://matplotlib.org/</dc:title>
     </cc:Agent>
    </dc:creator>
   </cc:Work>
  </rdf:RDF>
 </metadata>
 <defs>
  <style type="text/css">*{stroke-linejoin: round; stroke-linecap: butt}</style>
 </defs>
 <g id="figure_1">
  <g id="patch_1">
   <path d="M 0 576 
L 1080 576 
L 1080 0 
L 0 0 
z
" style="fill: #ffffff"/>
  </g>
  <g id="axes_1">
   <g id="patch_2">
    <path d="M 41.730582 521.153031 
L 935.517672 521.153031 
L 935.517672 51.564121 
L 41.730582 51.564121 
z
" style="fill: #eaeaf2"/>
   </g>
   <g id="matplotlib.axis_1">
    <g id="xtick_1">
     <g id="line2d_1">
      <path d="M 41.730582 521.153031 
L 41.730582 51.564121 
" clip-path="url(#p3c30c7cf9f)" style="fill: none; stroke: #ffffff; stroke-linecap: round"/>
     </g>
     <g id="line2d_2"/>
     <g id="text_1">
      <!-- $\mathdefault{0.00}$ -->
      <g style="fill: #262626" transform="translate(29.591047 537.838907) scale(0.14 -0.14)">
       <defs>
        <path id="CMR17-30" d="M 2688 2025 
C 2688 2416 2682 3080 2413 3591 
C 2176 4039 1798 4198 1466 4198 
C 1158 4198 768 4058 525 3597 
C 269 3118 243 2524 243 2025 
C 243 1661 250 1106 448 619 
C 723 -39 1216 -128 1466 -128 
C 1760 -128 2208 -7 2470 600 
C 2662 1042 2688 1559 2688 2025 
z
M 1466 -26 
C 1056 -26 813 325 723 812 
C 653 1188 653 1738 653 2096 
C 653 2588 653 2997 736 3387 
C 858 3929 1216 4096 1466 4096 
C 1728 4096 2067 3923 2189 3400 
C 2272 3036 2278 2607 2278 2096 
C 2278 1680 2278 1169 2202 792 
C 2067 95 1690 -26 1466 -26 
z
" transform="scale(0.015625)"/>
        <path id="CMMI12-3a" d="M 1178 307 
C 1178 492 1024 619 870 619 
C 685 619 557 466 557 313 
C 557 128 710 0 864 0 
C 1050 0 1178 153 1178 307 
z
" transform="scale(0.015625)"/>
       </defs>
       <use xlink:href="#CMR17-30" transform="scale(0.996264)"/>
       <use xlink:href="#CMMI12-3a" transform="translate(45.690477 0) scale(0.996264)"/>
       <use xlink:href="#CMR17-30" transform="translate(72.787654 0) scale(0.996264)"/>
       <use xlink:href="#CMR17-30" transform="translate(118.478131 0) scale(0.996264)"/>
      </g>
     </g>
    </g>
    <g id="xtick_2">
     <g id="line2d_3">
      <path d="M 148.133807 521.153031 
L 148.133807 51.564121 
" clip-path="url(#p3c30c7cf9f)" style="fill: none; stroke: #ffffff; stroke-linecap: round"/>
     </g>
     <g id="line2d_4"/>
     <g id="text_2">
      <!-- $\mathdefault{0.25}$ -->
      <g style="fill: #262626" transform="translate(135.994272 537.838907) scale(0.14 -0.14)">
       <defs>
        <path id="CMR17-32" d="M 2669 989 
L 2554 989 
C 2490 536 2438 459 2413 420 
C 2381 369 1920 369 1830 369 
L 602 369 
C 832 619 1280 1072 1824 1597 
C 2214 1967 2669 2402 2669 3035 
C 2669 3790 2067 4224 1395 4224 
C 691 4224 262 3604 262 3030 
C 262 2780 448 2748 525 2748 
C 589 2748 781 2787 781 3010 
C 781 3207 614 3264 525 3264 
C 486 3264 448 3258 422 3245 
C 544 3790 915 4058 1306 4058 
C 1862 4058 2227 3617 2227 3035 
C 2227 2479 1901 2000 1536 1584 
L 262 146 
L 262 0 
L 2515 0 
L 2669 989 
z
" transform="scale(0.015625)"/>
        <path id="CMR17-35" d="M 730 3692 
C 794 3666 1056 3584 1325 3584 
C 1920 3584 2246 3911 2432 4100 
C 2432 4157 2432 4192 2394 4192 
C 2387 4192 2374 4192 2323 4163 
C 2099 4058 1837 3973 1517 3973 
C 1325 3973 1037 3999 723 4139 
C 653 4171 640 4171 634 4171 
C 602 4171 595 4164 595 4037 
L 595 2203 
C 595 2089 595 2057 659 2057 
C 691 2057 704 2070 736 2114 
C 941 2401 1222 2522 1542 2522 
C 1766 2522 2246 2382 2246 1289 
C 2246 1085 2246 715 2054 421 
C 1894 159 1645 25 1370 25 
C 947 25 518 320 403 814 
C 429 807 480 795 506 795 
C 589 795 749 840 749 1038 
C 749 1210 627 1280 506 1280 
C 358 1280 262 1190 262 1011 
C 262 454 704 -128 1382 -128 
C 2042 -128 2669 440 2669 1264 
C 2669 2030 2170 2624 1549 2624 
C 1222 2624 947 2503 730 2274 
L 730 3692 
z
" transform="scale(0.015625)"/>
       </defs>
       <use xlink:href="#CMR17-30" transform="scale(0.996264)"/>
       <use xlink:href="#CMMI12-3a" transform="translate(45.690477 0) scale(0.996264)"/>
       <use xlink:href="#CMR17-32" transform="translate(72.787654 0) scale(0.996264)"/>
       <use xlink:href="#CMR17-35" transform="translate(118.478131 0) scale(0.996264)"/>
      </g>
     </g>
    </g>
    <g id="xtick_3">
     <g id="line2d_5">
      <path d="M 254.537032 521.153031 
L 254.537032 51.564121 
" clip-path="url(#p3c30c7cf9f)" style="fill: none; stroke: #ffffff; stroke-linecap: round"/>
     </g>
     <g id="line2d_6"/>
     <g id="text_3">
      <!-- $\mathdefault{0.50}$ -->
      <g style="fill: #262626" transform="translate(242.397497 537.838907) scale(0.14 -0.14)">
       <use xlink:href="#CMR17-30" transform="scale(0.996264)"/>
       <use xlink:href="#CMMI12-3a" transform="translate(45.690477 0) scale(0.996264)"/>
       <use xlink:href="#CMR17-35" transform="translate(72.787654 0) scale(0.996264)"/>
       <use xlink:href="#CMR17-30" transform="translate(118.478131 0) scale(0.996264)"/>
      </g>
     </g>
    </g>
    <g id="xtick_4">
     <g id="line2d_7">
      <path d="M 360.940257 521.153031 
L 360.940257 51.564121 
" clip-path="url(#p3c30c7cf9f)" style="fill: none; stroke: #ffffff; stroke-linecap: round"/>
     </g>
     <g id="line2d_8"/>
     <g id="text_4">
      <!-- $\mathdefault{0.75}$ -->
      <g style="fill: #262626" transform="translate(348.800722 537.838907) scale(0.14 -0.14)">
       <defs>
        <path id="CMR17-37" d="M 2886 3941 
L 2886 4081 
L 1382 4081 
C 634 4081 621 4165 595 4288 
L 480 4288 
L 294 3094 
L 410 3094 
C 429 3215 474 3540 550 3661 
C 589 3712 1062 3712 1171 3712 
L 2579 3712 
L 1869 2661 
C 1395 1954 1069 999 1069 165 
C 1069 89 1069 -128 1299 -128 
C 1530 -128 1530 89 1530 171 
L 1530 465 
C 1530 1508 1709 2196 2003 2636 
L 2886 3941 
z
" transform="scale(0.015625)"/>
       </defs>
       <use xlink:href="#CMR17-30" transform="scale(0.996264)"/>
       <use xlink:href="#CMMI12-3a" transform="translate(45.690477 0) scale(0.996264)"/>
       <use xlink:href="#CMR17-37" transform="translate(72.787654 0) scale(0.996264)"/>
       <use xlink:href="#CMR17-35" transform="translate(118.478131 0) scale(0.996264)"/>
      </g>
     </g>
    </g>
    <g id="xtick_5">
     <g id="line2d_9">
      <path d="M 467.343482 521.153031 
L 467.343482 51.564121 
" clip-path="url(#p3c30c7cf9f)" style="fill: none; stroke: #ffffff; stroke-linecap: round"/>
     </g>
     <g id="line2d_10"/>
     <g id="text_5">
      <!-- $\mathdefault{1.00}$ -->
      <g style="fill: #262626" transform="translate(455.203947 537.838907) scale(0.14 -0.14)">
       <defs>
        <path id="CMR17-31" d="M 1702 4058 
C 1702 4192 1696 4192 1606 4192 
C 1357 3916 979 3827 621 3827 
C 602 3827 570 3827 563 3808 
C 557 3795 557 3782 557 3648 
C 755 3648 1088 3686 1344 3839 
L 1344 461 
C 1344 236 1331 160 781 160 
L 589 160 
L 589 0 
C 896 0 1216 0 1523 0 
C 1830 0 2150 0 2458 0 
L 2458 160 
L 2266 160 
C 1715 160 1702 230 1702 458 
L 1702 4058 
z
" transform="scale(0.015625)"/>
       </defs>
       <use xlink:href="#CMR17-31" transform="scale(0.996264)"/>
       <use xlink:href="#CMMI12-3a" transform="translate(45.690477 0) scale(0.996264)"/>
       <use xlink:href="#CMR17-30" transform="translate(72.787654 0) scale(0.996264)"/>
       <use xlink:href="#CMR17-30" transform="translate(118.478131 0) scale(0.996264)"/>
      </g>
     </g>
    </g>
    <g id="xtick_6">
     <g id="line2d_11">
      <path d="M 573.746707 521.153031 
L 573.746707 51.564121 
" clip-path="url(#p3c30c7cf9f)" style="fill: none; stroke: #ffffff; stroke-linecap: round"/>
     </g>
     <g id="line2d_12"/>
     <g id="text_6">
      <!-- $\mathdefault{1.25}$ -->
      <g style="fill: #262626" transform="translate(561.607172 537.838907) scale(0.14 -0.14)">
       <use xlink:href="#CMR17-31" transform="scale(0.996264)"/>
       <use xlink:href="#CMMI12-3a" transform="translate(45.690477 0) scale(0.996264)"/>
       <use xlink:href="#CMR17-32" transform="translate(72.787654 0) scale(0.996264)"/>
       <use xlink:href="#CMR17-35" transform="translate(118.478131 0) scale(0.996264)"/>
      </g>
     </g>
    </g>
    <g id="xtick_7">
     <g id="line2d_13">
      <path d="M 680.149932 521.153031 
L 680.149932 51.564121 
" clip-path="url(#p3c30c7cf9f)" style="fill: none; stroke: #ffffff; stroke-linecap: round"/>
     </g>
     <g id="line2d_14"/>
     <g id="text_7">
      <!-- $\mathdefault{1.50}$ -->
      <g style="fill: #262626" transform="translate(668.010397 537.838907) scale(0.14 -0.14)">
       <use xlink:href="#CMR17-31" transform="scale(0.996264)"/>
       <use xlink:href="#CMMI12-3a" transform="translate(45.690477 0) scale(0.996264)"/>
       <use xlink:href="#CMR17-35" transform="translate(72.787654 0) scale(0.996264)"/>
       <use xlink:href="#CMR17-30" transform="translate(118.478131 0) scale(0.996264)"/>
      </g>
     </g>
    </g>
    <g id="xtick_8">
     <g id="line2d_15">
      <path d="M 786.553157 521.153031 
L 786.553157 51.564121 
" clip-path="url(#p3c30c7cf9f)" style="fill: none; stroke: #ffffff; stroke-linecap: round"/>
     </g>
     <g id="line2d_16"/>
     <g id="text_8">
      <!-- $\mathdefault{1.75}$ -->
      <g style="fill: #262626" transform="translate(774.413622 537.838907) scale(0.14 -0.14)">
       <use xlink:href="#CMR17-31" transform="scale(0.996264)"/>
       <use xlink:href="#CMMI12-3a" transform="translate(45.690477 0) scale(0.996264)"/>
       <use xlink:href="#CMR17-37" transform="translate(72.787654 0) scale(0.996264)"/>
       <use xlink:href="#CMR17-35" transform="translate(118.478131 0) scale(0.996264)"/>
      </g>
     </g>
    </g>
    <g id="xtick_9">
     <g id="line2d_17">
      <path d="M 892.956382 521.153031 
L 892.956382 51.564121 
" clip-path="url(#p3c30c7cf9f)" style="fill: none; stroke: #ffffff; stroke-linecap: round"/>
     </g>
     <g id="line2d_18"/>
     <g id="text_9">
      <!-- $\mathdefault{2.00}$ -->
      <g style="fill: #262626" transform="translate(880.816846 537.838907) scale(0.14 -0.14)">
       <use xlink:href="#CMR17-32" transform="scale(0.996264)"/>
       <use xlink:href="#CMMI12-3a" transform="translate(45.690477 0) scale(0.996264)"/>
       <use xlink:href="#CMR17-30" transform="translate(72.787654 0) scale(0.996264)"/>
       <use xlink:href="#CMR17-30" transform="translate(118.478131 0) scale(0.996264)"/>
      </g>
     </g>
    </g>
    <g id="text_10">
     <!-- $x$ -->
     <g style="fill: #262626" transform="translate(484.189402 555.620524) scale(0.16 -0.16)">
      <defs>
       <path id="CMMI12-78" d="M 3034 2606 
C 2829 2567 2752 2414 2752 2293 
C 2752 2139 2874 2088 2963 2088 
C 3155 2088 3290 2254 3290 2427 
C 3290 2695 2982 2816 2714 2816 
C 2323 2816 2106 2433 2048 2312 
C 1901 2816 1504 2816 1389 2816 
C 736 2816 390 1980 390 1839 
C 390 1814 416 1782 461 1782 
C 512 1782 525 1820 538 1846 
C 755 2555 1184 2689 1370 2689 
C 1658 2689 1715 2420 1715 2267 
C 1715 2127 1677 1980 1600 1673 
L 1382 798 
C 1286 415 1101 64 762 64 
C 730 64 570 64 435 147 
C 666 192 717 383 717 460 
C 717 588 621 664 499 664 
C 346 664 179 530 179 326 
C 179 57 480 -64 755 -64 
C 1062 -64 1280 179 1414 441 
C 1517 64 1837 -64 2074 -64 
C 2726 -64 3072 773 3072 913 
C 3072 945 3046 971 3008 971 
C 2950 971 2944 939 2925 888 
C 2752 326 2381 64 2093 64 
C 1869 64 1747 230 1747 492 
C 1747 632 1773 734 1875 1156 
L 2099 2024 
C 2195 2408 2413 2689 2707 2689 
C 2720 2689 2899 2689 3034 2606 
z
" transform="scale(0.015625)"/>
      </defs>
      <use xlink:href="#CMMI12-78" transform="scale(0.996264)"/>
     </g>
    </g>
   </g>
   <g id="matplotlib.axis_2">
    <g id="ytick_1">
     <g id="line2d_19">
      <path d="M 41.730582 521.153031 
L 935.517672 521.153031 
" clip-path="url(#p3c30c7cf9f)" style="fill: none; stroke: #ffffff; stroke-linecap: round"/>
     </g>
     <g id="line2d_20"/>
     <g id="text_11">
      <!-- $\mathdefault{0.0}$ -->
      <g style="fill: #262626" transform="translate(17.28 525.995969) scale(0.14 -0.14)">
       <use xlink:href="#CMR17-30" transform="scale(0.996264)"/>
       <use xlink:href="#CMMI12-3a" transform="translate(45.690477 0) scale(0.996264)"/>
       <use xlink:href="#CMR17-30" transform="translate(72.787654 0) scale(0.996264)"/>
      </g>
     </g>
    </g>
    <g id="ytick_2">
     <g id="line2d_21">
      <path d="M 41.730582 431.7368 
L 935.517672 431.7368 
" clip-path="url(#p3c30c7cf9f)" style="fill: none; stroke: #ffffff; stroke-linecap: round"/>
     </g>
     <g id="line2d_22"/>
     <g id="text_12">
      <!-- $\mathdefault{0.2}$ -->
      <g style="fill: #262626" transform="translate(17.28 436.579738) scale(0.14 -0.14)">
       <use xlink:href="#CMR17-30" transform="scale(0.996264)"/>
       <use xlink:href="#CMMI12-3a" transform="translate(45.690477 0) scale(0.996264)"/>
       <use xlink:href="#CMR17-32" transform="translate(72.787654 0) scale(0.996264)"/>
      </g>
     </g>
    </g>
    <g id="ytick_3">
     <g id="line2d_23">
      <path d="M 41.730582 342.320569 
L 935.517672 342.320569 
" clip-path="url(#p3c30c7cf9f)" style="fill: none; stroke: #ffffff; stroke-linecap: round"/>
     </g>
     <g id="line2d_24"/>
     <g id="text_13">
      <!-- $\mathdefault{0.4}$ -->
      <g style="fill: #262626" transform="translate(17.28 347.163507) scale(0.14 -0.14)">
       <defs>
        <path id="CMR17-34" d="M 2150 4122 
C 2150 4256 2144 4256 2029 4256 
L 128 1254 
L 128 1088 
L 1779 1088 
L 1779 457 
C 1779 224 1766 160 1318 160 
L 1197 160 
L 1197 0 
C 1402 0 1747 0 1965 0 
C 2182 0 2528 0 2733 0 
L 2733 160 
L 2611 160 
C 2163 160 2150 224 2150 457 
L 2150 1088 
L 2803 1088 
L 2803 1254 
L 2150 1254 
L 2150 4122 
z
M 1798 3703 
L 1798 1254 
L 256 1254 
L 1798 3703 
z
" transform="scale(0.015625)"/>
       </defs>
       <use xlink:href="#CMR17-30" transform="scale(0.996264)"/>
       <use xlink:href="#CMMI12-3a" transform="translate(45.690477 0) scale(0.996264)"/>
       <use xlink:href="#CMR17-34" transform="translate(72.787654 0) scale(0.996264)"/>
      </g>
     </g>
    </g>
    <g id="ytick_4">
     <g id="line2d_25">
      <path d="M 41.730582 252.904338 
L 935.517672 252.904338 
" clip-path="url(#p3c30c7cf9f)" style="fill: none; stroke: #ffffff; stroke-linecap: round"/>
     </g>
     <g id="line2d_26"/>
     <g id="text_14">
      <!-- $\mathdefault{0.6}$ -->
      <g style="fill: #262626" transform="translate(17.28 257.747276) scale(0.14 -0.14)">
       <defs>
        <path id="CMR17-36" d="M 678 2176 
C 678 3690 1395 4032 1811 4032 
C 1946 4032 2272 4009 2400 3776 
C 2298 3776 2106 3776 2106 3553 
C 2106 3381 2246 3323 2336 3323 
C 2394 3323 2566 3348 2566 3560 
C 2566 3954 2246 4179 1805 4179 
C 1043 4179 243 3390 243 1984 
C 243 253 966 -128 1478 -128 
C 2099 -128 2688 427 2688 1283 
C 2688 2081 2170 2662 1517 2662 
C 1126 2662 838 2407 678 1960 
L 678 2176 
z
M 1478 25 
C 691 25 691 1200 691 1436 
C 691 1896 909 2560 1504 2560 
C 1613 2560 1926 2560 2138 2120 
C 2253 1870 2253 1609 2253 1289 
C 2253 944 2253 690 2118 434 
C 1978 171 1773 25 1478 25 
z
" transform="scale(0.015625)"/>
       </defs>
       <use xlink:href="#CMR17-30" transform="scale(0.996264)"/>
       <use xlink:href="#CMMI12-3a" transform="translate(45.690477 0) scale(0.996264)"/>
       <use xlink:href="#CMR17-36" transform="translate(72.787654 0) scale(0.996264)"/>
      </g>
     </g>
    </g>
    <g id="ytick_5">
     <g id="line2d_27">
      <path d="M 41.730582 163.488107 
L 935.517672 163.488107 
" clip-path="url(#p3c30c7cf9f)" style="fill: none; stroke: #ffffff; stroke-linecap: round"/>
     </g>
     <g id="line2d_28"/>
     <g id="text_15">
      <!-- $\mathdefault{0.8}$ -->
      <g style="fill: #262626" transform="translate(17.28 168.331045) scale(0.14 -0.14)">
       <defs>
        <path id="CMR17-38" d="M 1741 2264 
C 2144 2467 2554 2773 2554 3263 
C 2554 3841 1990 4179 1472 4179 
C 890 4179 378 3759 378 3180 
C 378 3021 416 2747 666 2505 
C 730 2442 998 2251 1171 2130 
C 883 1983 211 1634 211 934 
C 211 279 838 -128 1459 -128 
C 2144 -128 2720 362 2720 1010 
C 2720 1590 2330 1857 2074 2029 
L 1741 2264 
z
M 902 2822 
C 851 2854 595 3051 595 3351 
C 595 3739 998 4032 1459 4032 
C 1965 4032 2336 3676 2336 3262 
C 2336 2669 1670 2331 1638 2331 
C 1632 2331 1626 2331 1574 2370 
L 902 2822 
z
M 2080 1519 
C 2176 1449 2483 1240 2483 851 
C 2483 381 2010 25 1472 25 
C 890 25 448 438 448 940 
C 448 1443 838 1862 1280 2060 
L 2080 1519 
z
" transform="scale(0.015625)"/>
       </defs>
       <use xlink:href="#CMR17-30" transform="scale(0.996264)"/>
       <use xlink:href="#CMMI12-3a" transform="translate(45.690477 0) scale(0.996264)"/>
       <use xlink:href="#CMR17-38" transform="translate(72.787654 0) scale(0.996264)"/>
      </g>
     </g>
    </g>
    <g id="ytick_6">
     <g id="line2d_29">
      <path d="M 41.730582 74.071876 
L 935.517672 74.071876 
" clip-path="url(#p3c30c7cf9f)" style="fill: none; stroke: #ffffff; stroke-linecap: round"/>
     </g>
     <g id="line2d_30"/>
     <g id="text_16">
      <!-- $\mathdefault{1.0}$ -->
      <g style="fill: #262626" transform="translate(17.28 78.914814) scale(0.14 -0.14)">
       <use xlink:href="#CMR17-31" transform="scale(0.996264)"/>
       <use xlink:href="#CMMI12-3a" transform="translate(45.690477 0) scale(0.996264)"/>
       <use xlink:href="#CMR17-30" transform="translate(72.787654 0) scale(0.996264)"/>
      </g>
     </g>
    </g>
   </g>
   <g id="line2d_31">
    <path d="M 41.730582 74.071876 
L 50.24284 74.071876 
L 58.755098 74.071876 
L 67.267356 74.071876 
L 75.779614 74.071876 
L 84.291872 74.071876 
L 92.80413 74.071876 
L 101.316388 74.071876 
L 109.828646 74.071876 
L 118.340904 74.071876 
L 126.853162 74.071876 
L 135.36542 74.071876 
L 143.877678 74.071876 
L 152.389936 74.071876 
L 160.902194 74.071876 
L 169.414452 74.071876 
L 177.92671 74.071876 
L 186.438968 74.071876 
L 194.951226 74.071876 
L 203.463484 74.071876 
L 211.975742 74.071876 
L 220.488 74.071876 
L 229.000258 74.071876 
L 237.512516 74.071876 
L 246.024774 74.071876 
L 254.537032 74.071876 
L 263.04929 74.071876 
L 271.561548 74.071876 
L 280.073806 74.071876 
L 288.586064 74.071876 
L 297.098322 74.071876 
L 305.61058 74.071876 
L 314.122838 74.071876 
L 322.635096 74.071876 
L 331.147354 74.071876 
L 339.659612 74.071876 
L 348.17187 74.071876 
L 356.684128 74.071876 
L 365.196386 74.071876 
L 373.708644 74.071876 
L 382.220902 74.071876 
L 390.73316 74.071876 
L 399.245418 74.071876 
L 407.757676 74.071876 
L 416.269934 74.071876 
L 424.782192 74.071876 
L 433.29445 74.071876 
L 441.806708 74.071876 
L 450.318966 74.071876 
L 458.831224 74.071876 
L 467.343482 74.071876 
L 475.85574 74.071876 
L 484.367998 74.071876 
L 492.880256 74.071876 
L 501.392514 74.071876 
L 509.904772 74.071876 
L 518.41703 74.071876 
L 526.929288 74.071876 
L 535.441546 74.071876 
L 543.953804 74.071876 
L 552.466062 74.071876 
L 560.97832 74.071876 
L 569.490578 74.071876 
L 578.002836 74.071876 
L 586.515094 74.071876 
L 595.027352 74.071876 
L 603.53961 74.071876 
L 612.051868 74.071876 
L 620.564126 74.071876 
L 629.076384 74.071876 
L 637.588642 74.071876 
L 646.1009 74.071876 
L 654.613158 74.071876 
L 663.125416 74.071876 
L 671.637674 74.071876 
L 680.149932 74.071876 
L 688.66219 74.071876 
L 697.174448 74.071876 
L 705.686706 74.071876 
L 714.198964 74.071876 
L 722.711222 74.071876 
L 731.22348 74.071876 
L 739.735738 74.071876 
L 748.247996 74.071876 
L 756.760254 74.071876 
L 765.272512 74.071876 
L 773.78477 74.071876 
L 782.297028 74.071876 
L 790.809286 74.071876 
L 799.321544 74.071876 
L 807.833802 74.071876 
L 816.34606 74.071876 
L 824.858318 74.071876 
L 833.370576 74.071876 
L 841.882834 74.071876 
L 850.395092 74.071876 
L 858.90735 74.071876 
L 867.419608 74.071876 
L 875.931866 74.071876 
L 884.444124 74.071876 
L 892.956382 74.071876 
" clip-path="url(#p3c30c7cf9f)" style="fill: none; stroke: #393b79; stroke-width: 2; stroke-linecap: round"/>
   </g>
   <g id="line2d_32">
    <path d="M 41.730582 126.290087 
L 50.24284 126.013957 
L 58.755098 125.739522 
L 67.267356 125.465241 
L 75.779614 125.189274 
L 84.291872 124.914996 
L 92.80413 124.642406 
L 101.316388 124.371488 
L 109.828646 124.102225 
L 118.340904 123.834605 
L 126.853162 123.56862 
L 135.36542 123.304256 
L 143.877678 123.041506 
L 152.389936 122.780362 
L 160.902194 122.520812 
L 169.414452 122.262851 
L 177.92671 122.006457 
L 186.438968 121.751621 
L 194.951226 121.498334 
L 203.463484 121.246584 
L 211.975742 120.996364 
L 220.488 120.746432 
L 229.000258 120.494772 
L 237.512516 120.244636 
L 246.024774 119.996015 
L 254.537032 119.7489 
L 263.04929 119.50328 
L 271.561548 119.259144 
L 280.073806 119.016487 
L 288.586064 118.775306 
L 297.098322 118.535581 
L 305.61058 118.297308 
L 314.122838 118.060473 
L 322.635096 117.825064 
L 331.147354 117.591073 
L 339.659612 117.358497 
L 348.17187 117.127321 
L 356.684128 116.897535 
L 365.196386 116.669132 
L 373.708644 116.442107 
L 382.220902 116.216445 
L 390.73316 115.992085 
L 399.245418 115.765059 
L 407.757676 115.539401 
L 416.269934 115.315102 
L 424.782192 115.092147 
L 433.29445 114.870527 
L 441.806708 114.650233 
L 450.318966 114.431259 
L 458.831224 114.213594 
L 467.343482 113.99723 
L 475.85574 113.782163 
L 484.367998 113.568382 
L 492.880256 113.355876 
L 501.392514 113.144638 
L 509.904772 112.934664 
L 518.41703 112.725943 
L 526.929288 112.518466 
L 535.441546 112.31223 
L 543.953804 112.107225 
L 552.466062 111.903439 
L 560.97832 111.700866 
L 569.490578 111.499497 
L 578.002836 111.299325 
L 586.515094 111.100341 
L 595.027352 110.899177 
L 603.53961 110.698943 
L 612.051868 110.499898 
L 620.564126 110.302038 
L 629.076384 110.105354 
L 637.588642 109.90984 
L 646.1009 109.71549 
L 654.613158 109.522291 
L 663.125416 109.330235 
L 671.637674 109.139316 
L 680.149932 108.949528 
L 688.66219 108.760862 
L 697.174448 108.57331 
L 705.686706 108.386867 
L 714.198964 108.201525 
L 722.711222 108.017277 
L 731.22348 107.834116 
L 739.735738 107.652035 
L 748.247996 107.471027 
L 756.760254 107.291087 
L 765.272512 107.112212 
L 773.78477 106.934393 
L 782.297028 106.757624 
L 790.809286 106.581897 
L 799.321544 106.407207 
L 807.833802 106.233545 
L 816.34606 106.060426 
L 824.858318 105.885631 
L 833.370576 105.711863 
L 841.882834 105.539116 
L 850.395092 105.367382 
L 858.90735 105.196657 
L 867.419608 105.026933 
L 875.931866 104.858205 
L 884.444124 104.690466 
L 892.956382 104.523711 
" clip-path="url(#p3c30c7cf9f)" style="fill: none; stroke: #6b6ecf; stroke-width: 2; stroke-linecap: round"/>
   </g>
   <g id="line2d_33">
    <path d="M 41.730582 271.453867 
L 50.24284 270.593587 
L 58.755098 269.738285 
L 67.267356 268.880461 
L 75.779614 268.0299 
L 84.291872 267.181621 
L 92.80413 266.333412 
L 101.316388 265.492176 
L 109.828646 264.651737 
L 118.340904 263.812626 
L 126.853162 262.980468 
L 135.36542 262.148196 
L 143.877678 261.317869 
L 152.389936 260.494447 
L 160.902194 259.671 
L 169.414452 258.849304 
L 177.92671 258.03434 
L 186.438968 257.220296 
L 194.951226 256.406785 
L 203.463484 255.599914 
L 211.975742 254.795906 
L 220.488 253.990402 
L 229.000258 253.19141 
L 237.512516 252.398137 
L 246.024774 251.600301 
L 254.537032 250.808814 
L 263.04929 250.023679 
L 271.561548 249.236561 
L 280.073806 248.452461 
L 288.586064 247.674584 
L 297.098322 246.899606 
L 305.61058 246.122522 
L 314.122838 245.351513 
L 322.635096 244.586641 
L 331.147354 243.819309 
L 339.659612 243.055157 
L 348.17187 242.296842 
L 356.684128 241.542915 
L 365.196386 240.78516 
L 373.708644 240.033478 
L 382.220902 239.287486 
L 390.73316 238.542777 
L 399.245418 237.796983 
L 407.757676 237.057004 
L 416.269934 236.322742 
L 424.782192 235.588125 
L 433.29445 234.854102 
L 441.806708 234.125687 
L 450.318966 233.402776 
L 458.831224 232.678982 
L 467.343482 231.956002 
L 475.85574 231.238509 
L 484.367998 230.526413 
L 492.880256 229.814391 
L 501.392514 229.102157 
L 509.904772 228.395419 
L 518.41703 227.693981 
L 526.929288 226.994887 
L 535.441546 226.293146 
L 543.953804 225.596594 
L 552.466062 224.90522 
L 560.97832 224.218963 
L 569.490578 223.52811 
L 578.002836 222.841442 
L 586.515094 222.159814 
L 595.027352 221.483241 
L 603.53961 220.807352 
L 612.051868 220.130224 
L 620.564126 219.458071 
L 629.076384 218.790814 
L 637.588642 218.12844 
L 646.1009 217.46312 
L 654.613158 216.800075 
L 663.125416 216.141833 
L 671.637674 215.48835 
L 680.149932 214.839621 
L 688.66219 214.186068 
L 697.174448 213.536519 
L 705.686706 212.891666 
L 714.198964 212.251357 
L 722.711222 211.615625 
L 731.22348 210.97518 
L 739.735738 210.338566 
L 748.247996 209.706473 
L 756.760254 209.078881 
L 765.272512 208.455758 
L 773.78477 207.829645 
L 782.297028 207.205507 
L 790.809286 206.585777 
L 799.321544 205.970418 
L 807.833802 205.359368 
L 816.34606 204.749013 
L 824.858318 204.136844 
L 833.370576 203.528952 
L 841.882834 202.925323 
L 850.395092 202.325908 
L 858.90735 201.730691 
L 867.419608 201.132106 
L 875.931866 200.535651 
L 884.444124 199.943311 
L 892.956382 199.355053 
" clip-path="url(#p3c30c7cf9f)" style="fill: none; stroke: #637939; stroke-width: 2; stroke-linecap: round"/>
   </g>
   <g id="line2d_34">
    <path d="M 41.730582 370.835314 
L 50.24284 369.735446 
L 58.755098 368.637251 
L 67.267356 367.540408 
L 75.779614 366.445218 
L 84.291872 365.351652 
L 92.80413 364.259768 
L 101.316388 363.169581 
L 109.828646 362.081205 
L 118.340904 360.994728 
L 126.853162 359.910149 
L 135.36542 358.827615 
L 143.877678 357.747119 
L 152.389936 356.668375 
L 160.902194 355.590314 
L 169.414452 354.514451 
L 177.92671 353.440888 
L 186.438968 352.369675 
L 194.951226 351.301017 
L 203.463484 350.234235 
L 211.975742 349.16781 
L 220.488 348.104119 
L 229.000258 347.043216 
L 237.512516 345.985248 
L 246.024774 344.928076 
L 254.537032 343.872336 
L 263.04929 342.819852 
L 271.561548 341.770743 
L 280.073806 340.722163 
L 288.586064 339.675387 
L 297.098322 338.632326 
L 305.61058 337.592368 
L 314.122838 336.551601 
L 322.635096 335.514889 
L 331.147354 334.482176 
L 339.659612 333.448895 
L 348.17187 332.418803 
L 356.684128 331.393104 
L 365.196386 330.366799 
L 373.708644 329.3443 
L 382.220902 328.326476 
L 390.73316 327.306592 
L 399.245418 326.291841 
L 407.757676 325.280134 
L 416.269934 324.268467 
L 424.782192 323.262358 
L 433.29445 322.256339 
L 441.806708 321.25364 
L 450.318966 320.255113 
L 458.831224 319.255781 
L 467.343482 318.262706 
L 475.85574 317.268738 
L 484.367998 316.279466 
L 492.880256 315.292419 
L 501.392514 314.30713 
L 509.904772 313.326897 
L 518.41703 312.345864 
L 526.929288 311.372079 
L 535.441546 310.39531 
L 543.953804 309.426312 
L 552.466062 308.455492 
L 560.97832 307.491243 
L 569.490578 306.526329 
L 578.002836 305.567169 
L 586.515094 304.607937 
L 595.027352 303.654083 
L 603.53961 302.70038 
L 612.051868 301.752081 
L 620.564126 300.803686 
L 629.076384 299.861268 
L 637.588642 298.917882 
L 646.1009 297.981668 
L 654.613158 297.043173 
L 663.125416 296.113362 
L 671.637674 295.179593 
L 680.149932 294.254478 
L 688.66219 293.327412 
L 697.174448 292.406541 
L 705.686706 291.4868 
L 714.198964 290.570022 
L 722.711222 289.657584 
L 731.22348 288.745134 
L 739.735738 287.840491 
L 748.247996 286.931755 
L 756.760254 286.031148 
L 765.272512 285.130534 
L 773.78477 284.233513 
L 782.297028 283.34155 
L 790.809286 282.448035 
L 799.321544 281.562293 
L 807.833802 280.674882 
L 816.34606 279.79245 
L 824.858318 278.914622 
L 833.370576 278.035119 
L 841.882834 277.163282 
L 850.395092 276.290859 
L 858.90735 275.421859 
L 867.419608 274.559937 
L 875.931866 273.693571 
L 884.444124 272.834627 
L 892.956382 271.979013 
" clip-path="url(#p3c30c7cf9f)" style="fill: none; stroke: #b5cf6b; stroke-width: 2; stroke-linecap: round"/>
   </g>
   <g id="line2d_35">
    <path d="M 41.730582 479.017519 
L 50.24284 478.060221 
L 58.755098 477.097205 
L 67.267356 476.12815 
L 75.779614 475.153731 
L 84.291872 474.17368 
L 92.80413 473.18825 
L 101.316388 472.197643 
L 109.828646 471.20197 
L 118.340904 470.201135 
L 126.853162 469.195555 
L 135.36542 468.185274 
L 143.877678 467.170372 
L 152.389936 466.150809 
L 160.902194 465.127031 
L 169.414452 464.098976 
L 177.92671 463.066775 
L 186.438968 462.030493 
L 194.951226 460.990331 
L 203.463484 459.946518 
L 211.975742 458.898679 
L 220.488 457.847445 
L 229.000258 456.79268 
L 237.512516 455.734512 
L 246.024774 454.672973 
L 254.537032 453.608415 
L 263.04929 452.540889 
L 271.561548 451.470076 
L 280.073806 450.396469 
L 288.586064 449.320119 
L 297.098322 448.241143 
L 305.61058 447.159575 
L 314.122838 446.075372 
L 322.635096 444.988654 
L 331.147354 443.89962 
L 339.659612 442.808862 
L 348.17187 441.715443 
L 356.684128 440.619949 
L 365.196386 439.522788 
L 373.708644 438.423574 
L 382.220902 437.322606 
L 390.73316 436.219913 
L 399.245418 435.115339 
L 407.757676 434.009512 
L 416.269934 432.902255 
L 424.782192 431.793136 
L 433.29445 430.682922 
L 441.806708 429.571646 
L 450.318966 428.45911 
L 458.831224 427.345593 
L 467.343482 426.230816 
L 475.85574 425.115109 
L 484.367998 423.998436 
L 492.880256 422.880815 
L 501.392514 421.762419 
L 509.904772 420.643413 
L 518.41703 419.523839 
L 526.929288 418.403825 
L 535.441546 417.283512 
L 543.953804 416.162641 
L 552.466062 415.040811 
L 560.97832 413.919035 
L 569.490578 412.79759 
L 578.002836 411.674938 
L 586.515094 410.552571 
L 595.027352 409.430864 
L 603.53961 408.307772 
L 612.051868 407.18585 
L 620.564126 406.06321 
L 629.076384 404.941383 
L 637.588642 403.819283 
L 646.1009 402.697937 
L 654.613158 401.576204 
L 663.125416 400.456042 
L 671.637674 399.33462 
L 680.149932 398.215131 
L 688.66219 397.09527 
L 697.174448 395.975959 
L 705.686706 394.858323 
L 714.198964 393.740031 
L 722.711222 392.622661 
L 731.22348 391.506821 
L 739.735738 390.391618 
L 748.247996 389.276187 
L 756.760254 388.162222 
L 765.272512 387.049644 
L 773.78477 385.938371 
L 782.297028 384.827022 
L 790.809286 383.716722 
L 799.321544 382.607698 
L 807.833802 381.499948 
L 816.34606 380.393677 
L 824.858318 379.288672 
L 833.370576 378.184873 
L 841.882834 377.082448 
L 850.395092 375.980667 
L 858.90735 374.8802 
L 867.419608 373.781276 
L 875.931866 372.683743 
L 884.444124 371.587739 
L 892.956382 370.493344 
" clip-path="url(#p3c30c7cf9f)" style="fill: none; stroke: #8c6d31; stroke-width: 2; stroke-linecap: round"/>
   </g>
   <g id="line2d_36">
    <path d="M 41.730582 513.802827 
L 50.24284 513.295531 
L 58.755098 512.773995 
L 67.267356 512.238396 
L 75.779614 511.689027 
L 84.291872 511.126063 
L 92.80413 510.549776 
L 101.316388 509.960369 
L 109.828646 509.358074 
L 118.340904 508.743113 
L 126.853162 508.115693 
L 135.36542 507.476056 
L 143.877678 506.824372 
L 152.389936 506.160867 
L 160.902194 505.485792 
L 169.414452 504.799306 
L 177.92671 504.101631 
L 186.438968 503.392936 
L 194.951226 502.673454 
L 203.463484 501.943385 
L 211.975742 501.202912 
L 220.488 500.452229 
L 229.000258 499.691522 
L 237.512516 498.920896 
L 246.024774 498.140719 
L 254.537032 497.35098 
L 263.04929 496.551989 
L 271.561548 495.743884 
L 280.073806 494.926806 
L 288.586064 494.101002 
L 297.098322 493.266596 
L 305.61058 492.423755 
L 314.122838 491.572664 
L 322.635096 490.713455 
L 331.147354 489.84623 
L 339.659612 488.971377 
L 348.17187 488.088887 
L 356.684128 487.198812 
L 365.196386 486.30157 
L 373.708644 485.397225 
L 382.220902 484.485761 
L 390.73316 483.567494 
L 399.245418 482.642463 
L 407.757676 481.7109 
L 416.269934 480.772934 
L 424.782192 479.828699 
L 433.29445 478.878361 
L 441.806708 477.922118 
L 450.318966 476.959902 
L 458.831224 475.991998 
L 467.343482 475.018396 
L 475.85574 474.039465 
L 484.367998 473.055181 
L 492.880256 472.065618 
L 501.392514 471.07098 
L 509.904772 470.071515 
L 518.41703 469.067272 
L 526.929288 468.058185 
L 535.441546 467.044555 
L 543.953804 466.026582 
L 552.466062 465.004154 
L 560.97832 463.977428 
L 569.490578 462.946639 
L 578.002836 461.911863 
L 586.515094 460.873049 
L 595.027352 459.830485 
L 603.53961 458.784496 
L 612.051868 457.734596 
L 620.564126 456.681521 
L 629.076384 455.624813 
L 637.588642 454.56514 
L 646.1009 453.502199 
L 654.613158 452.436008 
L 663.125416 451.367013 
L 671.637674 450.295071 
L 680.149932 449.22054 
L 688.66219 448.143171 
L 697.174448 447.063341 
L 705.686706 445.981168 
L 714.198964 444.896393 
L 722.711222 443.80909 
L 731.22348 442.719864 
L 739.735738 441.628647 
L 748.247996 440.534826 
L 756.760254 439.439792 
L 765.272512 438.342081 
L 773.78477 437.243319 
L 782.297028 436.142208 
L 790.809286 435.039789 
L 799.321544 433.936147 
L 807.833802 432.830275 
L 816.34606 431.723314 
L 824.858318 430.615163 
L 833.370576 429.505818 
L 841.882834 428.395358 
L 850.395092 427.283843 
L 858.90735 426.170972 
L 867.419608 425.057272 
L 875.931866 423.942693 
L 884.444124 422.827202 
L 892.956382 421.710871 
" clip-path="url(#p3c30c7cf9f)" style="fill: none; stroke: #e7cb94; stroke-width: 2; stroke-linecap: round"/>
   </g>
   <g id="line2d_37">
    <path d="M 41.730582 519.64181 
L 50.24284 519.387782 
L 58.755098 519.11546 
L 67.267356 518.825099 
L 75.779614 518.51701 
L 84.291872 518.191444 
L 92.80413 517.848689 
L 101.316388 517.489019 
L 109.828646 517.112695 
L 118.340904 516.719988 
L 126.853162 516.311153 
L 135.36542 515.886461 
L 143.877678 515.446149 
L 152.389936 514.990474 
L 160.902194 514.519717 
L 169.414452 514.03409 
L 177.92671 513.53386 
L 186.438968 513.019241 
L 194.951226 512.490489 
L 203.463484 511.947853 
L 211.975742 511.39154 
L 220.488 510.82181 
L 229.000258 510.238854 
L 237.512516 509.642887 
L 246.024774 509.03421 
L 254.537032 508.412955 
L 263.04929 507.779375 
L 271.561548 507.133698 
L 280.073806 506.476123 
L 288.586064 505.806876 
L 297.098322 505.126126 
L 305.61058 504.434084 
L 314.122838 503.730971 
L 322.635096 503.017006 
L 331.147354 502.292263 
L 339.659612 501.557161 
L 348.17187 500.811727 
L 356.684128 500.056086 
L 365.196386 499.290609 
L 373.708644 498.515464 
L 382.220902 497.730681 
L 390.73316 496.936509 
L 399.245418 496.133203 
L 407.757676 495.320788 
L 416.269934 494.499647 
L 424.782192 493.669773 
L 433.29445 492.831415 
L 441.806708 491.984777 
L 450.318966 491.129888 
L 458.831224 490.267082 
L 467.343482 489.396303 
L 475.85574 488.517921 
L 484.367998 487.631985 
L 492.880256 486.738685 
L 501.392514 485.838155 
L 509.904772 484.930636 
L 518.41703 484.016188 
L 526.929288 483.094946 
L 535.441546 482.167186 
L 543.953804 481.232757 
L 552.466062 480.292085 
L 560.97832 479.34521 
L 569.490578 478.392276 
L 578.002836 477.433487 
L 586.515094 476.468821 
L 595.027352 475.498662 
L 603.53961 474.522795 
L 612.051868 473.541584 
L 620.564126 472.555159 
L 629.076384 471.563653 
L 637.588642 470.567215 
L 646.1009 469.565624 
L 654.613158 468.559518 
L 663.125416 467.548622 
L 671.637674 466.533289 
L 680.149932 465.513734 
L 688.66219 464.489566 
L 697.174448 463.461369 
L 705.686706 462.429215 
L 714.198964 461.392888 
L 722.711222 460.352727 
L 731.22348 459.309009 
L 739.735738 458.261687 
L 748.247996 457.210603 
L 756.760254 456.15638 
L 765.272512 455.098757 
L 773.78477 454.037798 
L 782.297028 452.973903 
L 790.809286 451.907101 
L 799.321544 450.837318 
L 807.833802 449.764633 
L 816.34606 448.689271 
L 824.858318 447.611176 
L 833.370576 446.530482 
L 841.882834 445.447419 
L 850.395092 444.36222 
L 858.90735 443.274818 
L 867.419608 442.18477 
L 875.931866 441.093023 
L 884.444124 439.999095 
L 892.956382 438.903377 
" clip-path="url(#p3c30c7cf9f)" style="fill: none; stroke: #ad494a; stroke-width: 2; stroke-linecap: round"/>
   </g>
   <g id="line2d_38">
    <path d="M 41.730582 521.032867 
L 50.24284 520.765131 
L 58.755098 520.55807 
L 67.267356 520.386067 
L 75.779614 520.198899 
L 84.291872 519.992391 
L 92.80413 519.76685 
L 101.316388 519.522566 
L 109.828646 519.259828 
L 118.340904 518.978925 
L 126.853162 518.680134 
L 135.36542 518.363744 
L 143.877678 518.030017 
L 152.389936 517.679231 
L 160.902194 517.311676 
L 169.414452 516.927594 
L 177.92671 516.527267 
L 186.438968 516.110932 
L 194.951226 515.678864 
L 203.463484 515.231324 
L 211.975742 514.768542 
L 220.488 514.2908 
L 229.000258 513.798303 
L 237.512516 513.291293 
L 246.024774 512.770064 
L 254.537032 512.2348 
L 263.04929 511.685751 
L 271.561548 511.123153 
L 280.073806 510.547258 
L 288.586064 509.958252 
L 297.098322 509.356385 
L 305.61058 508.741832 
L 314.122838 508.114864 
L 322.635096 507.475699 
L 331.147354 506.824464 
L 339.659612 506.161516 
L 348.17187 505.486968 
L 356.684128 504.800949 
L 365.196386 504.103819 
L 373.708644 503.395751 
L 382.220902 502.676839 
L 390.73316 501.947331 
L 399.245418 501.207478 
L 407.757676 500.457345 
L 416.269934 499.697295 
L 424.782192 498.927349 
L 433.29445 498.147814 
L 441.806708 497.358818 
L 450.318966 496.560517 
L 458.831224 495.753132 
L 467.343482 494.936705 
L 475.85574 494.111593 
L 484.367998 493.277904 
L 492.880256 492.435772 
L 501.392514 491.585418 
L 509.904772 490.726969 
L 518.41703 489.860641 
L 526.929288 488.986504 
L 535.441546 488.104771 
L 543.953804 487.215607 
L 552.466062 486.319119 
L 560.97832 485.415549 
L 569.490578 484.504913 
L 578.002836 483.587407 
L 586.515094 482.663223 
L 595.027352 481.73261 
L 603.53961 480.795431 
L 612.051868 479.852021 
L 620.564126 478.90253 
L 629.076384 477.947126 
L 637.588642 476.985726 
L 646.1009 476.018712 
L 654.613158 475.045999 
L 663.125416 474.067968 
L 671.637674 473.084512 
L 680.149932 472.095973 
L 688.66219 471.102229 
L 697.174448 470.10371 
L 705.686706 469.100252 
L 714.198964 468.092097 
L 722.711222 467.079302 
L 731.22348 466.062207 
L 739.735738 465.04074 
L 748.247996 464.014999 
L 756.760254 462.985099 
L 765.272512 461.95114 
L 773.78477 460.913271 
L 782.297028 459.871725 
L 790.809286 458.826709 
L 799.321544 457.777664 
L 807.833802 456.725583 
L 816.34606 455.66977 
L 824.858318 454.610917 
L 833.370576 453.549042 
L 841.882834 452.483813 
L 850.395092 451.415702 
L 858.90735 450.34469 
L 867.419608 449.271025 
L 875.931866 448.19465 
L 884.444124 447.115775 
L 892.956382 446.034584 
" clip-path="url(#p3c30c7cf9f)" style="fill: none; stroke: #e7969c; stroke-width: 2; stroke-linecap: round"/>
   </g>
   <g id="line2d_39">
    <path d="M 41.730582 522.521805 
L 50.24284 521.913434 
L 58.755098 521.444816 
L 67.267356 521.083347 
L 75.779614 520.804201 
L 84.291872 520.588326 
L 92.80413 520.414763 
L 101.316388 520.230801 
L 109.828646 520.027459 
L 118.340904 519.805038 
L 126.853162 519.563827 
L 135.36542 519.304123 
L 143.877678 519.026202 
L 152.389936 518.73035 
L 160.902194 518.416864 
L 169.414452 518.086001 
L 177.92671 517.73805 
L 186.438968 517.373259 
L 194.951226 516.991915 
L 203.463484 516.594282 
L 211.975742 516.180608 
L 220.488 515.751176 
L 229.000258 515.306209 
L 237.512516 514.845954 
L 246.024774 514.370711 
L 254.537032 513.880672 
L 263.04929 513.37611 
L 271.561548 512.857252 
L 280.073806 512.324362 
L 288.586064 511.777656 
L 297.098322 511.217357 
L 305.61058 510.643679 
L 314.122838 510.056886 
L 322.635096 509.457198 
L 331.147354 508.844773 
L 339.659612 508.219965 
L 348.17187 507.58288 
L 356.684128 506.933672 
L 365.196386 506.272707 
L 373.708644 505.600172 
L 382.220902 504.916163 
L 390.73316 504.220917 
L 399.245418 503.514713 
L 407.757676 502.797625 
L 416.269934 502.070004 
L 424.782192 501.331901 
L 433.29445 500.583603 
L 441.806708 499.825299 
L 450.318966 499.05706 
L 458.831224 498.279235 
L 467.343482 497.491794 
L 475.85574 496.69512 
L 484.367998 495.889301 
L 492.880256 495.074471 
L 501.392514 494.250917 
L 509.904772 493.418746 
L 518.41703 492.578173 
L 526.929288 491.729276 
L 535.441546 490.872286 
L 543.953804 490.007333 
L 552.466062 489.13461 
L 560.97832 488.254216 
L 569.490578 487.366363 
L 578.002836 486.471112 
L 586.515094 485.568822 
L 595.027352 484.65948 
L 603.53961 483.743247 
L 612.051868 482.820271 
L 620.564126 481.890826 
L 629.076384 480.954862 
L 637.588642 480.012623 
L 646.1009 479.06425 
L 654.613158 478.109916 
L 663.125416 477.149656 
L 671.637674 476.183615 
L 680.149932 475.212065 
L 688.66219 474.234985 
L 697.174448 473.252614 
L 705.686706 472.265009 
L 714.198964 471.272178 
L 722.711222 470.274508 
L 731.22348 469.272127 
L 739.735738 468.264726 
L 748.247996 467.252906 
L 756.760254 466.236674 
L 765.272512 465.215892 
L 773.78477 464.190918 
L 782.297028 463.161851 
L 790.809286 462.128844 
L 799.321544 461.091927 
L 807.833802 460.050881 
L 816.34606 459.006412 
L 824.858318 457.958468 
L 833.370576 456.906705 
L 841.882834 455.851822 
L 850.395092 454.793693 
L 858.90735 453.732095 
L 867.419608 452.667653 
L 875.931866 451.600227 
L 884.444124 450.529937 
L 892.956382 449.456868 
" clip-path="url(#p3c30c7cf9f)" style="fill: none; stroke: #a55194; stroke-width: 2; stroke-linecap: round"/>
   </g>
   <g id="line2d_40">
    <path d="M 41.730582 524.226982 
L 50.24284 523.224486 
L 58.755098 522.45416 
L 67.267356 521.861407 
L 75.779614 521.404754 
L 84.291872 521.052454 
L 92.80413 520.78033 
L 101.316388 520.569872 
L 109.828646 520.397493 
L 118.340904 520.21162 
L 126.853162 520.006399 
L 135.36542 519.782131 
L 143.877678 519.539101 
L 152.389936 519.277601 
L 160.902194 518.997932 
L 169.414452 518.700359 
L 177.92671 518.385176 
L 186.438968 518.05264 
L 194.951226 517.70304 
L 203.463484 517.336648 
L 211.975742 516.953718 
L 220.488 516.554539 
L 229.000258 516.139337 
L 237.512516 515.708371 
L 246.024774 515.261939 
L 254.537032 514.800248 
L 263.04929 514.323562 
L 271.561548 513.83213 
L 280.073806 513.326209 
L 288.586064 512.806024 
L 297.098322 512.271807 
L 305.61058 511.723775 
L 314.122838 511.16219 
L 322.635096 510.587298 
L 331.147354 509.999236 
L 339.659612 509.398373 
L 348.17187 508.784824 
L 356.684128 508.158756 
L 365.196386 507.520516 
L 373.708644 506.870309 
L 382.220902 506.208232 
L 390.73316 505.534548 
L 399.245418 504.849507 
L 407.757676 504.153233 
L 416.269934 503.446005 
L 424.782192 502.727976 
L 433.29445 501.999358 
L 441.806708 501.260382 
L 450.318966 500.511113 
L 458.831224 499.751911 
L 467.343482 498.982735 
L 475.85574 498.203995 
L 484.367998 497.415745 
L 492.880256 496.618196 
L 501.392514 495.811556 
L 509.904772 494.995978 
L 518.41703 494.17168 
L 526.929288 493.33874 
L 535.441546 492.497414 
L 543.953804 491.647765 
L 552.466062 490.790077 
L 560.97832 489.924365 
L 569.490578 489.050955 
L 578.002836 488.169886 
L 586.515094 487.281368 
L 595.027352 486.38558 
L 603.53961 485.482596 
L 612.051868 484.572619 
L 620.564126 483.655812 
L 629.076384 482.732385 
L 637.588642 481.802246 
L 646.1009 480.865794 
L 654.613158 479.923064 
L 663.125416 478.974196 
L 671.637674 478.019204 
L 680.149932 477.058556 
L 688.66219 476.092037 
L 697.174448 475.120053 
L 705.686706 474.142506 
L 714.198964 473.159578 
L 722.711222 472.171548 
L 731.22348 471.178524 
L 739.735738 470.180351 
L 748.247996 469.177367 
L 756.760254 468.169807 
L 765.272512 467.157597 
L 773.78477 466.140838 
L 782.297028 465.119813 
L 790.809286 464.094593 
L 799.321544 463.065166 
L 807.833802 462.031685 
L 816.34606 460.994452 
L 824.858318 459.953541 
L 833.370576 458.908548 
L 841.882834 457.860222 
L 850.395092 456.808401 
L 858.90735 455.753279 
L 867.419608 454.694677 
L 875.931866 453.633062 
L 884.444124 452.568502 
L 892.956382 451.500951 
" clip-path="url(#p3c30c7cf9f)" style="fill: none; stroke: #de9ed6; stroke-width: 2; stroke-linecap: round"/>
   </g>
   <g id="patch_3">
    <path d="M 41.730582 521.153031 
L 41.730582 51.564121 
" style="fill: none"/>
   </g>
   <g id="patch_4">
    <path d="M 935.517672 521.153031 
L 935.517672 51.564121 
" style="fill: none"/>
   </g>
   <g id="patch_5">
    <path d="M 41.730582 521.153031 
L 935.517672 521.153031 
" style="fill: none"/>
   </g>
   <g id="patch_6">
    <path d="M 41.730582 51.564121 
L 935.517672 51.564121 
" style="fill: none"/>
   </g>
   <g id="patch_7">
    <path d="M 467.343482 85.012893 
Q 467.343482 284.290753 467.343482 481.891563 
" style="fill: none; stroke: #000000; stroke-width: 1.5; stroke-linecap: round"/>
    <path d="M 470.543482 475.491563 
L 467.343482 481.891563 
L 464.143482 475.491563 
" style="fill: none; stroke: #000000; stroke-width: 1.5; stroke-linecap: round"/>
   </g>
   <g id="text_17">
    <!-- Time -->
    <g style="fill: #262626" transform="translate(488.624127 482.082236) scale(0.18 -0.18)">
     <defs>
      <path id="CMR17-54" d="M 3981 4326 
L 288 4326 
L 179 2918 
L 294 2918 
C 378 3976 467 4160 1453 4160 
C 1568 4160 1754 4160 1805 4154 
C 1926 4135 1926 4058 1926 3912 
L 1926 459 
C 1926 230 1907 160 1376 160 
L 1197 160 
L 1197 0 
C 1504 0 1824 0 2138 0 
C 2451 0 2771 0 3078 0 
L 3078 160 
L 2899 160 
C 2368 160 2349 230 2349 459 
L 2349 3912 
C 2349 4052 2349 4129 2464 4154 
C 2515 4160 2701 4160 2816 4160 
C 3795 4160 3891 3976 3974 2918 
L 4090 2918 
L 3981 4326 
z
" transform="scale(0.015625)"/>
      <path id="CMR17-69" d="M 992 3909 
C 992 4049 877 4170 730 4170 
C 589 4170 467 4056 467 3909 
C 467 3769 582 3648 730 3648 
C 870 3648 992 3763 992 3909 
z
M 243 2706 
L 243 2541 
C 602 2541 653 2502 653 2197 
L 653 427 
C 653 184 627 153 218 153 
L 218 -13 
C 371 0 646 0 806 0 
C 960 0 1222 0 1370 -13 
L 1370 153 
C 992 153 979 191 979 420 
L 979 2776 
L 243 2706 
z
" transform="scale(0.015625)"/>
      <path id="CMR17-6d" d="M 4326 1933 
C 4326 2252 4269 2790 3507 2790 
C 3072 2790 2771 2496 2656 2151 
L 2650 2151 
C 2573 2676 2195 2790 1837 2790 
C 1331 2790 1069 2400 973 2144 
L 966 2144 
L 966 2790 
L 211 2720 
L 211 2554 
C 589 2554 646 2515 646 2208 
L 646 428 
C 646 184 621 153 211 153 
L 211 -13 
C 365 0 646 0 813 0 
C 979 0 1267 0 1421 -13 
L 1421 153 
C 1011 153 986 178 986 428 
L 986 1658 
C 986 2247 1344 2688 1792 2688 
C 2266 2688 2317 2266 2317 1958 
L 2317 428 
C 2317 184 2291 153 1882 153 
L 1882 -13 
C 2035 0 2317 0 2483 0 
C 2650 0 2938 0 3091 -13 
L 3091 153 
C 2682 153 2656 178 2656 428 
L 2656 1658 
C 2656 2247 3014 2688 3462 2688 
C 3936 2688 3987 2266 3987 1958 
L 3987 428 
C 3987 184 3962 153 3552 153 
L 3552 -13 
C 3706 0 3987 0 4154 0 
C 4320 0 4608 0 4762 -13 
L 4762 153 
C 4352 153 4326 178 4326 428 
L 4326 1933 
z
" transform="scale(0.015625)"/>
      <path id="CMR17-65" d="M 2438 1472 
C 2464 1498 2464 1511 2464 1576 
C 2464 2238 2118 2816 1389 2816 
C 710 2816 173 2169 173 1383 
C 173 551 781 -64 1459 -64 
C 2176 -64 2458 607 2458 740 
C 2458 784 2419 784 2406 784 
C 2362 784 2355 771 2330 696 
C 2189 265 1837 51 1504 51 
C 1229 51 954 203 781 480 
C 582 803 582 1176 582 1472 
L 2438 1472 
z
M 589 1568 
C 634 2505 1126 2714 1382 2714 
C 1818 2714 2112 2297 2118 1568 
L 589 1568 
z
" transform="scale(0.015625)"/>
     </defs>
     <use xlink:href="#CMR17-54" transform="scale(0.996264)"/>
     <use xlink:href="#CMR17-69" transform="translate(66.509881 0) scale(0.996264)"/>
     <use xlink:href="#CMR17-6d" transform="translate(91.380939 0) scale(0.996264)"/>
     <use xlink:href="#CMR17-65" transform="translate(168.300529 0) scale(0.996264)"/>
    </g>
   </g>
   <g id="legend_1">
    <g id="line2d_41">
     <path d="M 948.117672 197.198434 
L 962.117672 197.198434 
L 976.117672 197.198434 
" style="fill: none; stroke: #393b79; stroke-width: 2; stroke-linecap: round"/>
    </g>
    <g id="text_18">
     <!-- t = 0.00 -->
     <g style="fill: #262626" transform="translate(987.317672 202.098434) scale(0.14 -0.14)">
      <defs>
       <path id="CMR17-74" d="M 966 2560 
L 1862 2560 
L 1862 2725 
L 966 2725 
L 966 3904 
L 851 3904 
C 838 3245 614 2668 70 2668 
L 70 2560 
L 627 2560 
L 627 771 
C 627 650 627 -64 1370 -64 
C 1747 -64 1965 306 1965 777 
L 1965 1140 
L 1850 1140 
L 1850 783 
C 1850 344 1677 51 1408 51 
C 1222 51 966 178 966 758 
L 966 2560 
z
" transform="scale(0.015625)"/>
       <path id="CMR17-3d" d="M 4115 2017 
C 4211 2017 4307 2017 4307 2125 
C 4307 2240 4198 2240 4090 2240 
L 512 2240 
C 403 2240 294 2240 294 2125 
C 294 2017 390 2017 486 2017 
L 4115 2017 
z
M 4090 896 
C 4198 896 4307 896 4307 1011 
C 4307 1119 4211 1119 4115 1119 
L 486 1119 
C 390 1119 294 1119 294 1011 
C 294 896 403 896 512 896 
L 4090 896 
z
" transform="scale(0.015625)"/>
       <path id="CMR17-2e" d="M 1062 261 
C 1062 420 934 522 800 522 
C 672 522 538 420 538 261 
C 538 102 666 0 800 0 
C 928 0 1062 102 1062 261 
z
" transform="scale(0.015625)"/>
      </defs>
      <use xlink:href="#CMR17-74" transform="scale(0.996264)"/>
      <use xlink:href="#CMR17-3d" transform="translate(65.356734 0) scale(0.996264)"/>
      <use xlink:href="#CMR17-30" transform="translate(167.147489 0) scale(0.996264)"/>
      <use xlink:href="#CMR17-2e" transform="translate(212.837966 0) scale(0.996264)"/>
      <use xlink:href="#CMR17-30" transform="translate(237.709025 0) scale(0.996264)"/>
      <use xlink:href="#CMR17-30" transform="translate(283.399502 0) scale(0.996264)"/>
     </g>
    </g>
    <g id="line2d_42">
     <path d="M 948.117672 216.710462 
L 962.117672 216.710462 
L 976.117672 216.710462 
" style="fill: none; stroke: #6b6ecf; stroke-width: 2; stroke-linecap: round"/>
    </g>
    <g id="text_19">
     <!-- t = 10.00 -->
     <g style="fill: #262626" transform="translate(987.317672 221.610462) scale(0.14 -0.14)">
      <use xlink:href="#CMR17-74" transform="scale(0.996264)"/>
      <use xlink:href="#CMR17-3d" transform="translate(65.356734 0) scale(0.996264)"/>
      <use xlink:href="#CMR17-31" transform="translate(167.147489 0) scale(0.996264)"/>
      <use xlink:href="#CMR17-30" transform="translate(212.837966 0) scale(0.996264)"/>
      <use xlink:href="#CMR17-2e" transform="translate(258.528443 0) scale(0.996264)"/>
      <use xlink:href="#CMR17-30" transform="translate(283.399502 0) scale(0.996264)"/>
      <use xlink:href="#CMR17-30" transform="translate(329.089979 0) scale(0.996264)"/>
     </g>
    </g>
    <g id="line2d_43">
     <path d="M 948.117672 236.222491 
L 962.117672 236.222491 
L 976.117672 236.222491 
" style="fill: none; stroke: #637939; stroke-width: 2; stroke-linecap: round"/>
    </g>
    <g id="text_20">
     <!-- t = 50.00 -->
     <g style="fill: #262626" transform="translate(987.317672 241.122491) scale(0.14 -0.14)">
      <use xlink:href="#CMR17-74" transform="scale(0.996264)"/>
      <use xlink:href="#CMR17-3d" transform="translate(65.356734 0) scale(0.996264)"/>
      <use xlink:href="#CMR17-35" transform="translate(167.147489 0) scale(0.996264)"/>
      <use xlink:href="#CMR17-30" transform="translate(212.837966 0) scale(0.996264)"/>
      <use xlink:href="#CMR17-2e" transform="translate(258.528443 0) scale(0.996264)"/>
      <use xlink:href="#CMR17-30" transform="translate(283.399502 0) scale(0.996264)"/>
      <use xlink:href="#CMR17-30" transform="translate(329.089979 0) scale(0.996264)"/>
     </g>
    </g>
    <g id="line2d_44">
     <path d="M 948.117672 255.734519 
L 962.117672 255.734519 
L 976.117672 255.734519 
" style="fill: none; stroke: #b5cf6b; stroke-width: 2; stroke-linecap: round"/>
    </g>
    <g id="text_21">
     <!-- t = 100.00 -->
     <g style="fill: #262626" transform="translate(987.317672 260.634519) scale(0.14 -0.14)">
      <use xlink:href="#CMR17-74" transform="scale(0.996264)"/>
      <use xlink:href="#CMR17-3d" transform="translate(65.356734 0) scale(0.996264)"/>
      <use xlink:href="#CMR17-31" transform="translate(167.147489 0) scale(0.996264)"/>
      <use xlink:href="#CMR17-30" transform="translate(212.837966 0) scale(0.996264)"/>
      <use xlink:href="#CMR17-30" transform="translate(258.528443 0) scale(0.996264)"/>
      <use xlink:href="#CMR17-2e" transform="translate(304.21892 0) scale(0.996264)"/>
      <use xlink:href="#CMR17-30" transform="translate(329.089979 0) scale(0.996264)"/>
      <use xlink:href="#CMR17-30" transform="translate(374.780456 0) scale(0.996264)"/>
     </g>
    </g>
    <g id="line2d_45">
     <path d="M 948.117672 275.246547 
L 962.117672 275.246547 
L 976.117672 275.246547 
" style="fill: none; stroke: #8c6d31; stroke-width: 2; stroke-linecap: round"/>
    </g>
    <g id="text_22">
     <!-- t = 250.00 -->
     <g style="fill: #262626" transform="translate(987.317672 280.146547) scale(0.14 -0.14)">
      <use xlink:href="#CMR17-74" transform="scale(0.996264)"/>
      <use xlink:href="#CMR17-3d" transform="translate(65.356734 0) scale(0.996264)"/>
      <use xlink:href="#CMR17-32" transform="translate(167.147489 0) scale(0.996264)"/>
      <use xlink:href="#CMR17-35" transform="translate(212.837966 0) scale(0.996264)"/>
      <use xlink:href="#CMR17-30" transform="translate(258.528443 0) scale(0.996264)"/>
      <use xlink:href="#CMR17-2e" transform="translate(304.21892 0) scale(0.996264)"/>
      <use xlink:href="#CMR17-30" transform="translate(329.089979 0) scale(0.996264)"/>
      <use xlink:href="#CMR17-30" transform="translate(374.780456 0) scale(0.996264)"/>
     </g>
    </g>
    <g id="line2d_46">
     <path d="M 948.117672 294.758576 
L 962.117672 294.758576 
L 976.117672 294.758576 
" style="fill: none; stroke: #e7cb94; stroke-width: 2; stroke-linecap: round"/>
    </g>
    <g id="text_23">
     <!-- t = 500.00 -->
     <g style="fill: #262626" transform="translate(987.317672 299.658576) scale(0.14 -0.14)">
      <use xlink:href="#CMR17-74" transform="scale(0.996264)"/>
      <use xlink:href="#CMR17-3d" transform="translate(65.356734 0) scale(0.996264)"/>
      <use xlink:href="#CMR17-35" transform="translate(167.147489 0) scale(0.996264)"/>
      <use xlink:href="#CMR17-30" transform="translate(212.837966 0) scale(0.996264)"/>
      <use xlink:href="#CMR17-30" transform="translate(258.528443 0) scale(0.996264)"/>
      <use xlink:href="#CMR17-2e" transform="translate(304.21892 0) scale(0.996264)"/>
      <use xlink:href="#CMR17-30" transform="translate(329.089979 0) scale(0.996264)"/>
      <use xlink:href="#CMR17-30" transform="translate(374.780456 0) scale(0.996264)"/>
     </g>
    </g>
    <g id="line2d_47">
     <path d="M 948.117672 314.270604 
L 962.117672 314.270604 
L 976.117672 314.270604 
" style="fill: none; stroke: #ad494a; stroke-width: 2; stroke-linecap: round"/>
    </g>
    <g id="text_24">
     <!-- t = 750.00 -->
     <g style="fill: #262626" transform="translate(987.317672 319.170604) scale(0.14 -0.14)">
      <use xlink:href="#CMR17-74" transform="scale(0.996264)"/>
      <use xlink:href="#CMR17-3d" transform="translate(65.356734 0) scale(0.996264)"/>
      <use xlink:href="#CMR17-37" transform="translate(167.147489 0) scale(0.996264)"/>
      <use xlink:href="#CMR17-35" transform="translate(212.837966 0) scale(0.996264)"/>
      <use xlink:href="#CMR17-30" transform="translate(258.528443 0) scale(0.996264)"/>
      <use xlink:href="#CMR17-2e" transform="translate(304.21892 0) scale(0.996264)"/>
      <use xlink:href="#CMR17-30" transform="translate(329.089979 0) scale(0.996264)"/>
      <use xlink:href="#CMR17-30" transform="translate(374.780456 0) scale(0.996264)"/>
     </g>
    </g>
    <g id="line2d_48">
     <path d="M 948.117672 333.782633 
L 962.117672 333.782633 
L 976.117672 333.782633 
" style="fill: none; stroke: #e7969c; stroke-width: 2; stroke-linecap: round"/>
    </g>
    <g id="text_25">
     <!-- t = 1000.00 -->
     <g style="fill: #262626" transform="translate(987.317672 338.682633) scale(0.14 -0.14)">
      <use xlink:href="#CMR17-74" transform="scale(0.996264)"/>
      <use xlink:href="#CMR17-3d" transform="translate(65.356734 0) scale(0.996264)"/>
      <use xlink:href="#CMR17-31" transform="translate(167.147489 0) scale(0.996264)"/>
      <use xlink:href="#CMR17-30" transform="translate(212.837966 0) scale(0.996264)"/>
      <use xlink:href="#CMR17-30" transform="translate(258.528443 0) scale(0.996264)"/>
      <use xlink:href="#CMR17-30" transform="translate(304.21892 0) scale(0.996264)"/>
      <use xlink:href="#CMR17-2e" transform="translate(349.909397 0) scale(0.996264)"/>
      <use xlink:href="#CMR17-30" transform="translate(374.780456 0) scale(0.996264)"/>
      <use xlink:href="#CMR17-30" transform="translate(420.470933 0) scale(0.996264)"/>
     </g>
    </g>
    <g id="line2d_49">
     <path d="M 948.117672 353.294661 
L 962.117672 353.294661 
L 976.117672 353.294661 
" style="fill: none; stroke: #a55194; stroke-width: 2; stroke-linecap: round"/>
    </g>
    <g id="text_26">
     <!-- t = 1250.00 -->
     <g style="fill: #262626" transform="translate(987.317672 358.194661) scale(0.14 -0.14)">
      <use xlink:href="#CMR17-74" transform="scale(0.996264)"/>
      <use xlink:href="#CMR17-3d" transform="translate(65.356734 0) scale(0.996264)"/>
      <use xlink:href="#CMR17-31" transform="translate(167.147489 0) scale(0.996264)"/>
      <use xlink:href="#CMR17-32" transform="translate(212.837966 0) scale(0.996264)"/>
      <use xlink:href="#CMR17-35" transform="translate(258.528443 0) scale(0.996264)"/>
      <use xlink:href="#CMR17-30" transform="translate(304.21892 0) scale(0.996264)"/>
      <use xlink:href="#CMR17-2e" transform="translate(349.909397 0) scale(0.996264)"/>
      <use xlink:href="#CMR17-30" transform="translate(374.780456 0) scale(0.996264)"/>
      <use xlink:href="#CMR17-30" transform="translate(420.470933 0) scale(0.996264)"/>
     </g>
    </g>
    <g id="line2d_50">
     <path d="M 948.117672 372.806689 
L 962.117672 372.806689 
L 976.117672 372.806689 
" style="fill: none; stroke: #de9ed6; stroke-width: 2; stroke-linecap: round"/>
    </g>
    <g id="text_27">
     <!-- t = 1500.00 -->
     <g style="fill: #262626" transform="translate(987.317672 377.706689) scale(0.14 -0.14)">
      <use xlink:href="#CMR17-74" transform="scale(0.996264)"/>
      <use xlink:href="#CMR17-3d" transform="translate(65.356734 0) scale(0.996264)"/>
      <use xlink:href="#CMR17-31" transform="translate(167.147489 0) scale(0.996264)"/>
      <use xlink:href="#CMR17-35" transform="translate(212.837966 0) scale(0.996264)"/>
      <use xlink:href="#CMR17-30" transform="translate(258.528443 0) scale(0.996264)"/>
      <use xlink:href="#CMR17-30" transform="translate(304.21892 0) scale(0.996264)"/>
      <use xlink:href="#CMR17-2e" transform="translate(349.909397 0) scale(0.996264)"/>
      <use xlink:href="#CMR17-30" transform="translate(374.780456 0) scale(0.996264)"/>
      <use xlink:href="#CMR17-30" transform="translate(420.470933 0) scale(0.996264)"/>
     </g>
    </g>
   </g>
  </g>
  <g id="text_28">
   <!-- adhesivity -->
   <g style="fill: #262626" transform="translate(501.333696 24.803515) scale(0.192 -0.192)">
    <defs>
     <path id="CMR17-61" d="M 2304 1653 
C 2304 2072 2304 2294 2035 2543 
C 1798 2752 1523 2816 1306 2816 
C 800 2816 435 2407 435 1971 
C 435 1728 627 1728 666 1728 
C 749 1728 896 1778 896 1954 
C 896 2112 774 2181 666 2181 
C 640 2181 608 2174 589 2168 
C 723 2592 1069 2714 1293 2714 
C 1613 2714 1965 2429 1965 1885 
L 1965 1600 
C 1587 1600 1133 1549 774 1357 
C 371 1133 256 813 256 570 
C 256 77 832 -64 1171 -64 
C 1523 -64 1850 139 1990 511 
C 2003 233 2182 -18 2464 -18 
C 2598 -18 2938 70 2938 567 
L 2938 920 
L 2822 920 
L 2822 562 
C 2822 178 2650 128 2566 128 
C 2304 128 2304 458 2304 738 
L 2304 1653 
z
M 1965 870 
C 1965 317 1568 38 1216 38 
C 896 38 646 275 646 570 
C 646 761 730 1100 1101 1305 
C 1408 1478 1760 1504 1965 1504 
L 1965 870 
z
" transform="scale(0.015625)"/>
     <path id="CMR17-64" d="M 1869 4326 
L 1869 4160 
C 2246 4160 2304 4122 2304 3820 
L 2304 2345 
C 2278 2377 2016 2790 1498 2790 
C 845 2790 211 2208 211 1364 
C 211 525 806 -64 1434 -64 
C 1978 -64 2259 337 2291 380 
L 2291 -63 
L 3066 -63 
L 3066 128 
C 2688 128 2630 166 2630 473 
L 2630 4396 
L 1869 4326 
z
M 2291 755 
C 2291 563 2176 390 2029 262 
C 1811 70 1594 38 1472 38 
C 1286 38 621 134 621 1356 
C 621 2612 1363 2688 1530 2688 
C 1824 2688 2061 2522 2208 2291 
C 2291 2157 2291 2138 2291 2023 
L 2291 755 
z
" transform="scale(0.015625)"/>
     <path id="CMR17-68" d="M 2656 1933 
C 2656 2259 2592 2790 1837 2790 
C 1312 2790 1056 2368 979 2157 
L 973 2157 
L 973 4396 
L 211 4326 
L 211 4160 
C 589 4160 646 4122 646 3817 
L 646 426 
C 646 184 621 153 211 153 
L 211 -13 
C 365 0 646 0 813 0 
C 979 0 1267 0 1421 -13 
L 1421 153 
C 1011 153 986 178 986 428 
L 986 1658 
C 986 2247 1344 2688 1792 2688 
C 2266 2688 2317 2266 2317 1958 
L 2317 428 
C 2317 184 2291 153 1882 153 
L 1882 -13 
C 2035 0 2317 0 2483 0 
C 2650 0 2938 0 3091 -13 
L 3091 153 
C 2682 153 2656 178 2656 428 
L 2656 1933 
z
" transform="scale(0.015625)"/>
     <path id="CMR17-73" d="M 1978 2697 
C 1978 2813 1971 2819 1933 2819 
C 1907 2819 1901 2813 1824 2717 
C 1805 2691 1747 2626 1728 2601 
C 1523 2819 1235 2819 1126 2819 
C 416 2819 160 2447 160 2076 
C 160 1498 813 1365 998 1325 
C 1402 1243 1542 1217 1677 1101 
C 1760 1025 1901 884 1901 654 
C 1901 384 1747 38 1158 38 
C 602 38 403 460 288 1021 
C 269 1110 269 1117 218 1117 
C 166 1117 160 1110 160 983 
L 160 63 
C 160 -51 166 -58 205 -58 
C 237 -58 243 -51 275 0 
C 314 57 410 211 448 276 
C 576 103 800 -64 1158 -64 
C 1792 -64 2131 283 2131 784 
C 2131 1112 1958 1285 1875 1362 
C 1683 1561 1459 1606 1190 1657 
C 838 1735 390 1825 390 2217 
C 390 2383 480 2737 1126 2737 
C 1811 2737 1850 2094 1862 1888 
C 1869 1856 1901 1849 1920 1849 
C 1978 1849 1978 1869 1978 1978 
L 1978 2697 
z
" transform="scale(0.015625)"/>
     <path id="CMR17-76" d="M 2502 2163 
C 2560 2304 2662 2560 3034 2560 
L 3034 2726 
C 2912 2726 2752 2726 2630 2726 
C 2496 2726 2285 2726 2157 2732 
L 2157 2566 
C 2317 2553 2406 2477 2406 2311 
C 2406 2253 2406 2240 2368 2151 
L 1664 377 
L 902 2286 
C 864 2369 864 2381 864 2407 
C 864 2560 1075 2560 1171 2560 
L 1171 2732 
C 1018 2726 736 2726 576 2726 
C 403 2726 205 2726 64 2732 
L 64 2560 
C 307 2560 442 2560 518 2362 
L 1446 44 
C 1485 -51 1491 -64 1549 -64 
C 1606 -64 1613 -51 1651 44 
L 2502 2163 
z
" transform="scale(0.015625)"/>
     <path id="CMR17-79" d="M 2496 2197 
C 2656 2586 2944 2586 3034 2586 
L 3034 2752 
C 2912 2752 2752 2752 2630 2752 
C 2496 2752 2285 2752 2157 2758 
L 2157 2592 
C 2400 2573 2406 2394 2406 2343 
C 2406 2280 2394 2248 2362 2171 
L 1664 449 
L 902 2306 
C 870 2382 870 2426 870 2433 
C 870 2573 1018 2586 1171 2586 
L 1171 2758 
C 1018 2752 742 2752 582 2752 
C 410 2752 205 2752 64 2758 
L 64 2586 
C 410 2586 448 2554 531 2350 
L 1485 15 
C 1197 -738 1030 -1178 627 -1178 
C 557 -1178 397 -1159 282 -1044 
C 429 -1031 493 -942 493 -833 
C 493 -725 416 -629 288 -629 
C 147 -629 77 -725 77 -840 
C 77 -1095 339 -1280 627 -1280 
C 998 -1280 1229 -922 1357 -604 
L 2496 2197 
z
" transform="scale(0.015625)"/>
    </defs>
    <use xlink:href="#CMR17-61" transform="scale(0.996264)"/>
    <use xlink:href="#CMR17-64" transform="translate(45.690477 0) scale(0.996264)"/>
    <use xlink:href="#CMR17-68" transform="translate(96.585847 0) scale(0.996264)"/>
    <use xlink:href="#CMR17-65" transform="translate(147.481217 0) scale(0.996264)"/>
    <use xlink:href="#CMR17-73" transform="translate(187.966877 0) scale(0.996264)"/>
    <use xlink:href="#CMR17-69" transform="translate(223.768215 0) scale(0.996264)"/>
    <use xlink:href="#CMR17-76" transform="translate(248.639273 0) scale(0.996264)"/>
    <use xlink:href="#CMR17-69" transform="translate(296.932189 0) scale(0.996264)"/>
    <use xlink:href="#CMR17-74" transform="translate(321.803248 0) scale(0.996264)"/>
    <use xlink:href="#CMR17-79" transform="translate(354.481561 0) scale(0.996264)"/>
   </g>
  </g>
 </g>
 <defs>
  <clipPath id="p3c30c7cf9f">
   <rect x="41.730582" y="51.564121" width="893.78709" height="469.58891"/>
  </clipPath>
 </defs>
</svg>
