<?xml version="1.0" encoding="utf-8" standalone="no"?>
<!DOCTYPE svg PUBLIC "-//W3C//DTD SVG 1.1//EN"
  "http://www.w3.org/Graphics/SVG/1.1/DTD/svg11.dtd">
<svg xmlns:xlink="http://www.w3.org/1999/xlink" width="1080pt" height="576pt" viewBox="0 0 1080 576" xmlns="http://www.w3.org/2000/svg" version="1.1">
 <metadata>
  <rdf:RDF xmlns:dc="http://purl.org/dc/elements/1.1/" xmlns:cc="http://creativecommons.org/ns#" xmlns:rdf="http://www.w3.org/1999/02/22-rdf-syntax-ns#">
   <cc:Work>
    <dc:type rdf:resource="http://purl.org/dc/dcmitype/StillImage"/>
    <dc:date>2024-06-28T12:18:22.727789</dc:date>
    <dc:format>image/svg+xml</dc:format>
    <dc:creator>
     <cc:Agent>
      <dc:title>Matplotlib v3.9.0, https://matplotlib.org/</dc:title>
     </cc:Agent>
    </dc:creator>
   </cc:Work>
  </rdf:RDF>
 </metadata>
 <defs>
  <style type="text/css">*{stroke-linejoin: round; stroke-linecap: butt}</style>
 </defs>
 <g id="figure_1">
  <g id="patch_1">
   <path d="M 0 576 
L 1080 576 
L 1080 0 
L 0 0 
z
" style="fill: #ffffff"/>
  </g>
  <g id="axes_1">
   <g id="patch_2">
    <path d="M 41.730582 521.153031 
L 935.517672 521.153031 
L 935.517672 51.564121 
L 41.730582 51.564121 
z
" style="fill: #eaeaf2"/>
   </g>
   <g id="matplotlib.axis_1">
    <g id="xtick_1">
     <g id="line2d_1">
      <path d="M 41.730582 521.153031 
L 41.730582 51.564121 
" clip-path="url(#paec54bb09f)" style="fill: none; stroke: #ffffff; stroke-linecap: round"/>
     </g>
     <g id="line2d_2"/>
     <g id="text_1">
      <!-- $\mathdefault{0.00}$ -->
      <g style="fill: #262626" transform="translate(29.591047 537.838907) scale(0.14 -0.14)">
       <defs>
        <path id="CMR17-30" d="M 2688 2025 
C 2688 2416 2682 3080 2413 3591 
C 2176 4039 1798 4198 1466 4198 
C 1158 4198 768 4058 525 3597 
C 269 3118 243 2524 243 2025 
C 243 1661 250 1106 448 619 
C 723 -39 1216 -128 1466 -128 
C 1760 -128 2208 -7 2470 600 
C 2662 1042 2688 1559 2688 2025 
z
M 1466 -26 
C 1056 -26 813 325 723 812 
C 653 1188 653 1738 653 2096 
C 653 2588 653 2997 736 3387 
C 858 3929 1216 4096 1466 4096 
C 1728 4096 2067 3923 2189 3400 
C 2272 3036 2278 2607 2278 2096 
C 2278 1680 2278 1169 2202 792 
C 2067 95 1690 -26 1466 -26 
z
" transform="scale(0.015625)"/>
        <path id="CMMI12-3a" d="M 1178 307 
C 1178 492 1024 619 870 619 
C 685 619 557 466 557 313 
C 557 128 710 0 864 0 
C 1050 0 1178 153 1178 307 
z
" transform="scale(0.015625)"/>
       </defs>
       <use xlink:href="#CMR17-30" transform="scale(0.996264)"/>
       <use xlink:href="#CMMI12-3a" transform="translate(45.690477 0) scale(0.996264)"/>
       <use xlink:href="#CMR17-30" transform="translate(72.787654 0) scale(0.996264)"/>
       <use xlink:href="#CMR17-30" transform="translate(118.478131 0) scale(0.996264)"/>
      </g>
     </g>
    </g>
    <g id="xtick_2">
     <g id="line2d_3">
      <path d="M 148.133807 521.153031 
L 148.133807 51.564121 
" clip-path="url(#paec54bb09f)" style="fill: none; stroke: #ffffff; stroke-linecap: round"/>
     </g>
     <g id="line2d_4"/>
     <g id="text_2">
      <!-- $\mathdefault{0.25}$ -->
      <g style="fill: #262626" transform="translate(135.994272 537.838907) scale(0.14 -0.14)">
       <defs>
        <path id="CMR17-32" d="M 2669 989 
L 2554 989 
C 2490 536 2438 459 2413 420 
C 2381 369 1920 369 1830 369 
L 602 369 
C 832 619 1280 1072 1824 1597 
C 2214 1967 2669 2402 2669 3035 
C 2669 3790 2067 4224 1395 4224 
C 691 4224 262 3604 262 3030 
C 262 2780 448 2748 525 2748 
C 589 2748 781 2787 781 3010 
C 781 3207 614 3264 525 3264 
C 486 3264 448 3258 422 3245 
C 544 3790 915 4058 1306 4058 
C 1862 4058 2227 3617 2227 3035 
C 2227 2479 1901 2000 1536 1584 
L 262 146 
L 262 0 
L 2515 0 
L 2669 989 
z
" transform="scale(0.015625)"/>
        <path id="CMR17-35" d="M 730 3692 
C 794 3666 1056 3584 1325 3584 
C 1920 3584 2246 3911 2432 4100 
C 2432 4157 2432 4192 2394 4192 
C 2387 4192 2374 4192 2323 4163 
C 2099 4058 1837 3973 1517 3973 
C 1325 3973 1037 3999 723 4139 
C 653 4171 640 4171 634 4171 
C 602 4171 595 4164 595 4037 
L 595 2203 
C 595 2089 595 2057 659 2057 
C 691 2057 704 2070 736 2114 
C 941 2401 1222 2522 1542 2522 
C 1766 2522 2246 2382 2246 1289 
C 2246 1085 2246 715 2054 421 
C 1894 159 1645 25 1370 25 
C 947 25 518 320 403 814 
C 429 807 480 795 506 795 
C 589 795 749 840 749 1038 
C 749 1210 627 1280 506 1280 
C 358 1280 262 1190 262 1011 
C 262 454 704 -128 1382 -128 
C 2042 -128 2669 440 2669 1264 
C 2669 2030 2170 2624 1549 2624 
C 1222 2624 947 2503 730 2274 
L 730 3692 
z
" transform="scale(0.015625)"/>
       </defs>
       <use xlink:href="#CMR17-30" transform="scale(0.996264)"/>
       <use xlink:href="#CMMI12-3a" transform="translate(45.690477 0) scale(0.996264)"/>
       <use xlink:href="#CMR17-32" transform="translate(72.787654 0) scale(0.996264)"/>
       <use xlink:href="#CMR17-35" transform="translate(118.478131 0) scale(0.996264)"/>
      </g>
     </g>
    </g>
    <g id="xtick_3">
     <g id="line2d_5">
      <path d="M 254.537032 521.153031 
L 254.537032 51.564121 
" clip-path="url(#paec54bb09f)" style="fill: none; stroke: #ffffff; stroke-linecap: round"/>
     </g>
     <g id="line2d_6"/>
     <g id="text_3">
      <!-- $\mathdefault{0.50}$ -->
      <g style="fill: #262626" transform="translate(242.397497 537.838907) scale(0.14 -0.14)">
       <use xlink:href="#CMR17-30" transform="scale(0.996264)"/>
       <use xlink:href="#CMMI12-3a" transform="translate(45.690477 0) scale(0.996264)"/>
       <use xlink:href="#CMR17-35" transform="translate(72.787654 0) scale(0.996264)"/>
       <use xlink:href="#CMR17-30" transform="translate(118.478131 0) scale(0.996264)"/>
      </g>
     </g>
    </g>
    <g id="xtick_4">
     <g id="line2d_7">
      <path d="M 360.940257 521.153031 
L 360.940257 51.564121 
" clip-path="url(#paec54bb09f)" style="fill: none; stroke: #ffffff; stroke-linecap: round"/>
     </g>
     <g id="line2d_8"/>
     <g id="text_4">
      <!-- $\mathdefault{0.75}$ -->
      <g style="fill: #262626" transform="translate(348.800722 537.838907) scale(0.14 -0.14)">
       <defs>
        <path id="CMR17-37" d="M 2886 3941 
L 2886 4081 
L 1382 4081 
C 634 4081 621 4165 595 4288 
L 480 4288 
L 294 3094 
L 410 3094 
C 429 3215 474 3540 550 3661 
C 589 3712 1062 3712 1171 3712 
L 2579 3712 
L 1869 2661 
C 1395 1954 1069 999 1069 165 
C 1069 89 1069 -128 1299 -128 
C 1530 -128 1530 89 1530 171 
L 1530 465 
C 1530 1508 1709 2196 2003 2636 
L 2886 3941 
z
" transform="scale(0.015625)"/>
       </defs>
       <use xlink:href="#CMR17-30" transform="scale(0.996264)"/>
       <use xlink:href="#CMMI12-3a" transform="translate(45.690477 0) scale(0.996264)"/>
       <use xlink:href="#CMR17-37" transform="translate(72.787654 0) scale(0.996264)"/>
       <use xlink:href="#CMR17-35" transform="translate(118.478131 0) scale(0.996264)"/>
      </g>
     </g>
    </g>
    <g id="xtick_5">
     <g id="line2d_9">
      <path d="M 467.343482 521.153031 
L 467.343482 51.564121 
" clip-path="url(#paec54bb09f)" style="fill: none; stroke: #ffffff; stroke-linecap: round"/>
     </g>
     <g id="line2d_10"/>
     <g id="text_5">
      <!-- $\mathdefault{1.00}$ -->
      <g style="fill: #262626" transform="translate(455.203947 537.838907) scale(0.14 -0.14)">
       <defs>
        <path id="CMR17-31" d="M 1702 4058 
C 1702 4192 1696 4192 1606 4192 
C 1357 3916 979 3827 621 3827 
C 602 3827 570 3827 563 3808 
C 557 3795 557 3782 557 3648 
C 755 3648 1088 3686 1344 3839 
L 1344 461 
C 1344 236 1331 160 781 160 
L 589 160 
L 589 0 
C 896 0 1216 0 1523 0 
C 1830 0 2150 0 2458 0 
L 2458 160 
L 2266 160 
C 1715 160 1702 230 1702 458 
L 1702 4058 
z
" transform="scale(0.015625)"/>
       </defs>
       <use xlink:href="#CMR17-31" transform="scale(0.996264)"/>
       <use xlink:href="#CMMI12-3a" transform="translate(45.690477 0) scale(0.996264)"/>
       <use xlink:href="#CMR17-30" transform="translate(72.787654 0) scale(0.996264)"/>
       <use xlink:href="#CMR17-30" transform="translate(118.478131 0) scale(0.996264)"/>
      </g>
     </g>
    </g>
    <g id="xtick_6">
     <g id="line2d_11">
      <path d="M 573.746707 521.153031 
L 573.746707 51.564121 
" clip-path="url(#paec54bb09f)" style="fill: none; stroke: #ffffff; stroke-linecap: round"/>
     </g>
     <g id="line2d_12"/>
     <g id="text_6">
      <!-- $\mathdefault{1.25}$ -->
      <g style="fill: #262626" transform="translate(561.607172 537.838907) scale(0.14 -0.14)">
       <use xlink:href="#CMR17-31" transform="scale(0.996264)"/>
       <use xlink:href="#CMMI12-3a" transform="translate(45.690477 0) scale(0.996264)"/>
       <use xlink:href="#CMR17-32" transform="translate(72.787654 0) scale(0.996264)"/>
       <use xlink:href="#CMR17-35" transform="translate(118.478131 0) scale(0.996264)"/>
      </g>
     </g>
    </g>
    <g id="xtick_7">
     <g id="line2d_13">
      <path d="M 680.149932 521.153031 
L 680.149932 51.564121 
" clip-path="url(#paec54bb09f)" style="fill: none; stroke: #ffffff; stroke-linecap: round"/>
     </g>
     <g id="line2d_14"/>
     <g id="text_7">
      <!-- $\mathdefault{1.50}$ -->
      <g style="fill: #262626" transform="translate(668.010397 537.838907) scale(0.14 -0.14)">
       <use xlink:href="#CMR17-31" transform="scale(0.996264)"/>
       <use xlink:href="#CMMI12-3a" transform="translate(45.690477 0) scale(0.996264)"/>
       <use xlink:href="#CMR17-35" transform="translate(72.787654 0) scale(0.996264)"/>
       <use xlink:href="#CMR17-30" transform="translate(118.478131 0) scale(0.996264)"/>
      </g>
     </g>
    </g>
    <g id="xtick_8">
     <g id="line2d_15">
      <path d="M 786.553157 521.153031 
L 786.553157 51.564121 
" clip-path="url(#paec54bb09f)" style="fill: none; stroke: #ffffff; stroke-linecap: round"/>
     </g>
     <g id="line2d_16"/>
     <g id="text_8">
      <!-- $\mathdefault{1.75}$ -->
      <g style="fill: #262626" transform="translate(774.413622 537.838907) scale(0.14 -0.14)">
       <use xlink:href="#CMR17-31" transform="scale(0.996264)"/>
       <use xlink:href="#CMMI12-3a" transform="translate(45.690477 0) scale(0.996264)"/>
       <use xlink:href="#CMR17-37" transform="translate(72.787654 0) scale(0.996264)"/>
       <use xlink:href="#CMR17-35" transform="translate(118.478131 0) scale(0.996264)"/>
      </g>
     </g>
    </g>
    <g id="xtick_9">
     <g id="line2d_17">
      <path d="M 892.956382 521.153031 
L 892.956382 51.564121 
" clip-path="url(#paec54bb09f)" style="fill: none; stroke: #ffffff; stroke-linecap: round"/>
     </g>
     <g id="line2d_18"/>
     <g id="text_9">
      <!-- $\mathdefault{2.00}$ -->
      <g style="fill: #262626" transform="translate(880.816846 537.838907) scale(0.14 -0.14)">
       <use xlink:href="#CMR17-32" transform="scale(0.996264)"/>
       <use xlink:href="#CMMI12-3a" transform="translate(45.690477 0) scale(0.996264)"/>
       <use xlink:href="#CMR17-30" transform="translate(72.787654 0) scale(0.996264)"/>
       <use xlink:href="#CMR17-30" transform="translate(118.478131 0) scale(0.996264)"/>
      </g>
     </g>
    </g>
    <g id="text_10">
     <!-- $x$ -->
     <g style="fill: #262626" transform="translate(484.189402 555.620524) scale(0.16 -0.16)">
      <defs>
       <path id="CMMI12-78" d="M 3034 2606 
C 2829 2567 2752 2414 2752 2293 
C 2752 2139 2874 2088 2963 2088 
C 3155 2088 3290 2254 3290 2427 
C 3290 2695 2982 2816 2714 2816 
C 2323 2816 2106 2433 2048 2312 
C 1901 2816 1504 2816 1389 2816 
C 736 2816 390 1980 390 1839 
C 390 1814 416 1782 461 1782 
C 512 1782 525 1820 538 1846 
C 755 2555 1184 2689 1370 2689 
C 1658 2689 1715 2420 1715 2267 
C 1715 2127 1677 1980 1600 1673 
L 1382 798 
C 1286 415 1101 64 762 64 
C 730 64 570 64 435 147 
C 666 192 717 383 717 460 
C 717 588 621 664 499 664 
C 346 664 179 530 179 326 
C 179 57 480 -64 755 -64 
C 1062 -64 1280 179 1414 441 
C 1517 64 1837 -64 2074 -64 
C 2726 -64 3072 773 3072 913 
C 3072 945 3046 971 3008 971 
C 2950 971 2944 939 2925 888 
C 2752 326 2381 64 2093 64 
C 1869 64 1747 230 1747 492 
C 1747 632 1773 734 1875 1156 
L 2099 2024 
C 2195 2408 2413 2689 2707 2689 
C 2720 2689 2899 2689 3034 2606 
z
" transform="scale(0.015625)"/>
      </defs>
      <use xlink:href="#CMMI12-78" transform="scale(0.996264)"/>
     </g>
    </g>
   </g>
   <g id="matplotlib.axis_2">
    <g id="ytick_1">
     <g id="line2d_19">
      <path d="M 41.730582 521.153031 
L 935.517672 521.153031 
" clip-path="url(#paec54bb09f)" style="fill: none; stroke: #ffffff; stroke-linecap: round"/>
     </g>
     <g id="line2d_20"/>
     <g id="text_11">
      <!-- $\mathdefault{0.0}$ -->
      <g style="fill: #262626" transform="translate(17.28 525.995969) scale(0.14 -0.14)">
       <use xlink:href="#CMR17-30" transform="scale(0.996264)"/>
       <use xlink:href="#CMMI12-3a" transform="translate(45.690477 0) scale(0.996264)"/>
       <use xlink:href="#CMR17-30" transform="translate(72.787654 0) scale(0.996264)"/>
      </g>
     </g>
    </g>
    <g id="ytick_2">
     <g id="line2d_21">
      <path d="M 41.730582 431.739949 
L 935.517672 431.739949 
" clip-path="url(#paec54bb09f)" style="fill: none; stroke: #ffffff; stroke-linecap: round"/>
     </g>
     <g id="line2d_22"/>
     <g id="text_12">
      <!-- $\mathdefault{0.2}$ -->
      <g style="fill: #262626" transform="translate(17.28 436.582887) scale(0.14 -0.14)">
       <use xlink:href="#CMR17-30" transform="scale(0.996264)"/>
       <use xlink:href="#CMMI12-3a" transform="translate(45.690477 0) scale(0.996264)"/>
       <use xlink:href="#CMR17-32" transform="translate(72.787654 0) scale(0.996264)"/>
      </g>
     </g>
    </g>
    <g id="ytick_3">
     <g id="line2d_23">
      <path d="M 41.730582 342.326867 
L 935.517672 342.326867 
" clip-path="url(#paec54bb09f)" style="fill: none; stroke: #ffffff; stroke-linecap: round"/>
     </g>
     <g id="line2d_24"/>
     <g id="text_13">
      <!-- $\mathdefault{0.4}$ -->
      <g style="fill: #262626" transform="translate(17.28 347.169805) scale(0.14 -0.14)">
       <defs>
        <path id="CMR17-34" d="M 2150 4122 
C 2150 4256 2144 4256 2029 4256 
L 128 1254 
L 128 1088 
L 1779 1088 
L 1779 457 
C 1779 224 1766 160 1318 160 
L 1197 160 
L 1197 0 
C 1402 0 1747 0 1965 0 
C 2182 0 2528 0 2733 0 
L 2733 160 
L 2611 160 
C 2163 160 2150 224 2150 457 
L 2150 1088 
L 2803 1088 
L 2803 1254 
L 2150 1254 
L 2150 4122 
z
M 1798 3703 
L 1798 1254 
L 256 1254 
L 1798 3703 
z
" transform="scale(0.015625)"/>
       </defs>
       <use xlink:href="#CMR17-30" transform="scale(0.996264)"/>
       <use xlink:href="#CMMI12-3a" transform="translate(45.690477 0) scale(0.996264)"/>
       <use xlink:href="#CMR17-34" transform="translate(72.787654 0) scale(0.996264)"/>
      </g>
     </g>
    </g>
    <g id="ytick_4">
     <g id="line2d_25">
      <path d="M 41.730582 252.913786 
L 935.517672 252.913786 
" clip-path="url(#paec54bb09f)" style="fill: none; stroke: #ffffff; stroke-linecap: round"/>
     </g>
     <g id="line2d_26"/>
     <g id="text_14">
      <!-- $\mathdefault{0.6}$ -->
      <g style="fill: #262626" transform="translate(17.28 257.756724) scale(0.14 -0.14)">
       <defs>
        <path id="CMR17-36" d="M 678 2176 
C 678 3690 1395 4032 1811 4032 
C 1946 4032 2272 4009 2400 3776 
C 2298 3776 2106 3776 2106 3553 
C 2106 3381 2246 3323 2336 3323 
C 2394 3323 2566 3348 2566 3560 
C 2566 3954 2246 4179 1805 4179 
C 1043 4179 243 3390 243 1984 
C 243 253 966 -128 1478 -128 
C 2099 -128 2688 427 2688 1283 
C 2688 2081 2170 2662 1517 2662 
C 1126 2662 838 2407 678 1960 
L 678 2176 
z
M 1478 25 
C 691 25 691 1200 691 1436 
C 691 1896 909 2560 1504 2560 
C 1613 2560 1926 2560 2138 2120 
C 2253 1870 2253 1609 2253 1289 
C 2253 944 2253 690 2118 434 
C 1978 171 1773 25 1478 25 
z
" transform="scale(0.015625)"/>
       </defs>
       <use xlink:href="#CMR17-30" transform="scale(0.996264)"/>
       <use xlink:href="#CMMI12-3a" transform="translate(45.690477 0) scale(0.996264)"/>
       <use xlink:href="#CMR17-36" transform="translate(72.787654 0) scale(0.996264)"/>
      </g>
     </g>
    </g>
    <g id="ytick_5">
     <g id="line2d_27">
      <path d="M 41.730582 163.500704 
L 935.517672 163.500704 
" clip-path="url(#paec54bb09f)" style="fill: none; stroke: #ffffff; stroke-linecap: round"/>
     </g>
     <g id="line2d_28"/>
     <g id="text_15">
      <!-- $\mathdefault{0.8}$ -->
      <g style="fill: #262626" transform="translate(17.28 168.343642) scale(0.14 -0.14)">
       <defs>
        <path id="CMR17-38" d="M 1741 2264 
C 2144 2467 2554 2773 2554 3263 
C 2554 3841 1990 4179 1472 4179 
C 890 4179 378 3759 378 3180 
C 378 3021 416 2747 666 2505 
C 730 2442 998 2251 1171 2130 
C 883 1983 211 1634 211 934 
C 211 279 838 -128 1459 -128 
C 2144 -128 2720 362 2720 1010 
C 2720 1590 2330 1857 2074 2029 
L 1741 2264 
z
M 902 2822 
C 851 2854 595 3051 595 3351 
C 595 3739 998 4032 1459 4032 
C 1965 4032 2336 3676 2336 3262 
C 2336 2669 1670 2331 1638 2331 
C 1632 2331 1626 2331 1574 2370 
L 902 2822 
z
M 2080 1519 
C 2176 1449 2483 1240 2483 851 
C 2483 381 2010 25 1472 25 
C 890 25 448 438 448 940 
C 448 1443 838 1862 1280 2060 
L 2080 1519 
z
" transform="scale(0.015625)"/>
       </defs>
       <use xlink:href="#CMR17-30" transform="scale(0.996264)"/>
       <use xlink:href="#CMMI12-3a" transform="translate(45.690477 0) scale(0.996264)"/>
       <use xlink:href="#CMR17-38" transform="translate(72.787654 0) scale(0.996264)"/>
      </g>
     </g>
    </g>
    <g id="ytick_6">
     <g id="line2d_29">
      <path d="M 41.730582 74.087622 
L 935.517672 74.087622 
" clip-path="url(#paec54bb09f)" style="fill: none; stroke: #ffffff; stroke-linecap: round"/>
     </g>
     <g id="line2d_30"/>
     <g id="text_16">
      <!-- $\mathdefault{1.0}$ -->
      <g style="fill: #262626" transform="translate(17.28 78.93056) scale(0.14 -0.14)">
       <use xlink:href="#CMR17-31" transform="scale(0.996264)"/>
       <use xlink:href="#CMMI12-3a" transform="translate(45.690477 0) scale(0.996264)"/>
       <use xlink:href="#CMR17-30" transform="translate(72.787654 0) scale(0.996264)"/>
      </g>
     </g>
    </g>
   </g>
   <g id="line2d_31">
    <path d="M 41.730582 74.087622 
L 50.24284 74.087622 
L 58.755098 74.087622 
L 67.267356 74.087622 
L 75.779614 74.087622 
L 84.291872 74.087622 
L 92.80413 74.087622 
L 101.316388 74.087622 
L 109.828646 74.087622 
L 118.340904 74.087622 
L 126.853162 74.087622 
L 135.36542 74.087622 
L 143.877678 74.087622 
L 152.389936 74.087622 
L 160.902194 74.087622 
L 169.414452 74.087622 
L 177.92671 74.087622 
L 186.438968 74.087622 
L 194.951226 74.087622 
L 203.463484 74.087622 
L 211.975742 74.087622 
L 220.488 74.087622 
L 229.000258 74.087622 
L 237.512516 74.087622 
L 246.024774 74.087622 
L 254.537032 74.087622 
L 263.04929 74.087622 
L 271.561548 74.087622 
L 280.073806 74.087622 
L 288.586064 74.087622 
L 297.098322 74.087622 
L 305.61058 74.087622 
L 314.122838 74.087622 
L 322.635096 74.087622 
L 331.147354 74.087622 
L 339.659612 74.087622 
L 348.17187 74.087622 
L 356.684128 74.087622 
L 365.196386 74.087622 
L 373.708644 74.087622 
L 382.220902 74.087622 
L 390.73316 74.087622 
L 399.245418 74.087622 
L 407.757676 74.087622 
L 416.269934 74.087622 
L 424.782192 74.087622 
L 433.29445 74.087622 
L 441.806708 74.087622 
L 450.318966 74.087622 
L 458.831224 74.087622 
L 467.343482 74.087622 
L 475.85574 74.087622 
L 484.367998 74.087622 
L 492.880256 74.087622 
L 501.392514 74.087622 
L 509.904772 74.087622 
L 518.41703 74.087622 
L 526.929288 74.087622 
L 535.441546 74.087622 
L 543.953804 74.087622 
L 552.466062 74.087622 
L 560.97832 74.087622 
L 569.490578 74.087622 
L 578.002836 74.087622 
L 586.515094 74.087622 
L 595.027352 74.087622 
L 603.53961 74.087622 
L 612.051868 74.087622 
L 620.564126 74.087622 
L 629.076384 74.087622 
L 637.588642 74.087622 
L 646.1009 74.087622 
L 654.613158 74.087622 
L 663.125416 74.087622 
L 671.637674 74.087622 
L 680.149932 74.087622 
L 688.66219 74.087622 
L 697.174448 74.087622 
L 705.686706 74.087622 
L 714.198964 74.087622 
L 722.711222 74.087622 
L 731.22348 74.087622 
L 739.735738 74.087622 
L 748.247996 74.087622 
L 756.760254 74.087622 
L 765.272512 74.087622 
L 773.78477 74.087622 
L 782.297028 74.087622 
L 790.809286 74.087622 
L 799.321544 74.087622 
L 807.833802 74.087622 
L 816.34606 74.087622 
L 824.858318 74.087622 
L 833.370576 74.087622 
L 841.882834 74.087622 
L 850.395092 74.087622 
L 858.90735 74.087622 
L 867.419608 74.087622 
L 875.931866 74.087622 
L 884.444124 74.087622 
L 892.956382 74.087622 
" clip-path="url(#paec54bb09f)" style="fill: none; stroke: #393b79; stroke-width: 2; stroke-linecap: round"/>
   </g>
   <g id="line2d_32">
    <path d="M 41.730582 135.917819 
L 50.24284 135.592843 
L 58.755098 135.269918 
L 67.267356 134.94902 
L 75.779614 134.624638 
L 84.291872 134.300968 
L 92.80413 133.979323 
L 101.316388 133.659688 
L 109.828646 133.342051 
L 118.340904 133.026418 
L 126.853162 132.712755 
L 135.36542 132.401046 
L 143.877678 132.091279 
L 152.389936 131.783452 
L 160.902194 131.477544 
L 169.414452 131.173542 
L 177.92671 130.871429 
L 186.438968 130.571201 
L 194.951226 130.272839 
L 203.463484 129.976333 
L 211.975742 129.681674 
L 220.488 129.388839 
L 229.000258 129.091601 
L 237.512516 128.79614 
L 246.024774 128.502508 
L 254.537032 128.210697 
L 263.04929 127.920687 
L 271.561548 127.63247 
L 280.073806 127.34603 
L 288.586064 127.061357 
L 297.098322 126.778442 
L 305.61058 126.497271 
L 314.122838 126.217832 
L 322.635096 125.940117 
L 331.147354 125.664107 
L 339.659612 125.389793 
L 348.17187 125.117163 
L 356.684128 124.846208 
L 365.196386 124.576919 
L 373.708644 124.309292 
L 382.220902 124.043318 
L 390.73316 123.778972 
L 399.245418 123.510811 
L 407.757676 123.244003 
L 416.269934 122.978824 
L 424.782192 122.715262 
L 433.29445 122.453307 
L 441.806708 122.19295 
L 450.318966 121.934187 
L 458.831224 121.677007 
L 467.343482 121.421395 
L 475.85574 121.16734 
L 484.367998 120.91483 
L 492.880256 120.663856 
L 501.392514 120.414407 
L 509.904772 120.166475 
L 518.41703 119.920049 
L 526.929288 119.67512 
L 535.441546 119.43168 
L 543.953804 119.189713 
L 552.466062 118.949216 
L 560.97832 118.710173 
L 569.490578 118.472576 
L 578.002836 118.23642 
L 586.515094 118.001212 
L 595.027352 117.76279 
L 603.53961 117.525816 
L 612.051868 117.290271 
L 620.564126 117.056146 
L 629.076384 116.823433 
L 637.588642 116.592129 
L 646.1009 116.362217 
L 654.613158 116.133687 
L 663.125416 115.906532 
L 671.637674 115.680747 
L 680.149932 115.45632 
L 688.66219 115.233243 
L 697.174448 115.011505 
L 705.686706 114.791098 
L 714.198964 114.572016 
L 722.711222 114.354249 
L 731.22348 114.137787 
L 739.735738 113.922626 
L 748.247996 113.708753 
L 756.760254 113.496162 
L 765.272512 113.284843 
L 773.78477 113.074787 
L 782.297028 112.86599 
L 790.809286 112.658441 
L 799.321544 112.452136 
L 807.833802 112.247063 
L 816.34606 112.040729 
L 824.858318 111.833621 
L 833.370576 111.627747 
L 841.882834 111.423099 
L 850.395092 111.21967 
L 858.90735 111.017452 
L 867.419608 110.816445 
L 875.931866 110.616642 
L 884.444124 110.418028 
L 892.956382 110.220594 
" clip-path="url(#paec54bb09f)" style="fill: none; stroke: #6b6ecf; stroke-width: 2; stroke-linecap: round"/>
   </g>
   <g id="line2d_33">
    <path d="M 41.730582 296.987908 
L 50.24284 296.049002 
L 58.755098 295.10587 
L 67.267356 294.169321 
L 75.779614 293.237309 
L 84.291872 292.302802 
L 92.80413 291.3769 
L 101.316388 290.450357 
L 109.828646 289.526134 
L 118.340904 288.61029 
L 126.853162 287.689824 
L 135.36542 286.775637 
L 143.877678 285.868446 
L 152.389936 284.955549 
L 160.902194 284.050793 
L 169.414452 283.151257 
L 177.92671 282.247583 
L 186.438968 281.351863 
L 194.951226 280.460416 
L 203.463484 279.565719 
L 211.975742 278.678788 
L 220.488 277.796224 
L 229.000258 276.91001 
L 237.512516 276.031333 
L 246.024774 275.158674 
L 254.537032 274.280647 
L 263.04929 273.410048 
L 271.561548 272.546789 
L 280.073806 271.677536 
L 288.586064 270.81479 
L 297.098322 269.959198 
L 305.61058 269.101535 
L 314.122838 268.245827 
L 322.635096 267.397523 
L 331.147354 266.552633 
L 339.659612 265.703934 
L 348.17187 264.862479 
L 356.684128 264.027951 
L 365.196386 263.18917 
L 373.708644 262.354249 
L 382.220902 261.526263 
L 390.73316 260.702446 
L 399.245418 259.873782 
L 407.757676 259.051788 
L 416.269934 258.236667 
L 424.782192 257.421169 
L 433.29445 256.605317 
L 441.806708 255.796064 
L 450.318966 254.993265 
L 458.831224 254.187175 
L 467.343482 253.383419 
L 475.85574 252.586224 
L 484.367998 251.795406 
L 492.880256 251.000292 
L 501.392514 250.20803 
L 509.904772 249.422159 
L 518.41703 248.642586 
L 526.929288 247.859654 
L 535.441546 247.078743 
L 543.953804 246.303975 
L 552.466062 245.535278 
L 560.97832 244.765567 
L 569.490578 243.995278 
L 578.002836 243.231138 
L 586.515094 242.472945 
L 595.027352 241.718367 
L 603.53961 240.958347 
L 612.051868 240.204155 
L 620.564126 239.455852 
L 629.076384 238.71338 
L 637.588642 237.967568 
L 646.1009 237.223215 
L 654.613158 236.4846 
L 663.125416 235.751589 
L 671.637674 235.023738 
L 680.149932 234.288537 
L 688.66219 233.558995 
L 697.174448 232.835137 
L 705.686706 232.11675 
L 714.198964 231.401103 
L 722.711222 230.680285 
L 731.22348 229.964837 
L 739.735738 229.255067 
L 748.247996 228.550577 
L 756.760254 227.848824 
L 765.272512 227.141862 
L 773.78477 226.440142 
L 782.297028 225.743607 
L 790.809286 225.052317 
L 799.321544 224.366235 
L 807.833802 223.672647 
L 816.34606 222.983995 
L 824.858318 222.300342 
L 833.370576 221.62172 
L 841.882834 220.948153 
L 850.395092 220.272345 
L 858.90735 219.596123 
L 867.419608 218.92489 
L 875.931866 218.258488 
L 884.444124 217.596922 
L 892.956382 216.940176 
" clip-path="url(#paec54bb09f)" style="fill: none; stroke: #637939; stroke-width: 2; stroke-linecap: round"/>
   </g>
   <g id="line2d_34">
    <path d="M 41.730582 396.842892 
L 50.24284 395.716863 
L 58.755098 394.591689 
L 67.267356 393.467377 
L 75.779614 392.343626 
L 84.291872 391.220769 
L 92.80413 390.098837 
L 101.316388 388.977101 
L 109.828646 387.856207 
L 118.340904 386.736375 
L 126.853162 385.617709 
L 135.36542 384.500138 
L 143.877678 383.383573 
L 152.389936 382.268265 
L 160.902194 381.153514 
L 169.414452 380.039988 
L 177.92671 378.927567 
L 186.438968 377.816376 
L 194.951226 376.706723 
L 203.463484 375.598541 
L 211.975742 374.491927 
L 220.488 373.386938 
L 229.000258 372.283878 
L 237.512516 371.181791 
L 246.024774 370.079856 
L 254.537032 368.979926 
L 263.04929 367.882107 
L 271.561548 366.786457 
L 280.073806 365.693145 
L 288.586064 364.599301 
L 297.098322 363.507343 
L 305.61058 362.417747 
L 314.122838 361.33147 
L 322.635096 360.245274 
L 331.147354 359.159987 
L 339.659612 358.077932 
L 348.17187 356.999371 
L 356.684128 355.919424 
L 365.196386 354.842062 
L 373.708644 353.768619 
L 382.220902 352.696172 
L 390.73316 351.624207 
L 399.245418 350.556449 
L 407.757676 349.490417 
L 416.269934 348.424262 
L 424.782192 347.362912 
L 433.29445 346.302896 
L 441.806708 345.2434 
L 450.318966 344.189164 
L 458.831224 343.13398 
L 467.343482 342.081924 
L 475.85574 341.034898 
L 484.367998 339.985201 
L 492.880256 338.941688 
L 501.392514 337.898228 
L 509.904772 336.857343 
L 518.41703 335.821108 
L 526.929288 334.78321 
L 535.441546 333.75262 
L 543.953804 332.719028 
L 552.466062 331.691758 
L 560.97832 330.664434 
L 569.490578 329.64083 
L 578.002836 328.619856 
L 586.515094 327.600166 
L 595.027352 326.585019 
L 603.53961 325.56949 
L 612.051868 324.559832 
L 620.564126 323.548721 
L 629.076384 322.544453 
L 637.588642 321.538276 
L 646.1009 320.539028 
L 654.613158 319.538141 
L 663.125416 318.543595 
L 671.637674 317.548124 
L 680.149932 316.558345 
L 688.66219 315.568478 
L 697.174448 314.58316 
L 705.686706 313.600179 
L 714.198964 312.618772 
L 722.711222 311.642229 
L 731.22348 310.66457 
L 739.735738 309.695811 
L 748.247996 308.721993 
L 756.760254 307.757389 
L 765.272512 306.790344 
L 773.78477 305.829093 
L 782.297028 304.870375 
L 790.809286 303.912215 
L 799.321544 302.962466 
L 807.833802 302.007194 
L 816.34606 301.060911 
L 824.858318 300.114412 
L 833.370576 299.170615 
L 841.882834 298.234218 
L 850.395092 297.292837 
L 858.90735 296.360156 
L 867.419608 295.428158 
L 875.931866 294.497574 
L 884.444124 293.575433 
L 892.956382 292.648188 
" clip-path="url(#paec54bb09f)" style="fill: none; stroke: #b5cf6b; stroke-width: 2; stroke-linecap: round"/>
   </g>
   <g id="line2d_35">
    <path d="M 41.730582 492.264792 
L 50.24284 491.410228 
L 58.755098 490.547659 
L 67.267356 489.677173 
L 75.779614 488.798759 
L 84.291872 487.912839 
L 92.80413 487.019501 
L 101.316388 486.11885 
L 109.828646 485.211005 
L 118.340904 484.29606 
L 126.853162 483.374324 
L 135.36542 482.446075 
L 143.877678 481.510965 
L 152.389936 480.569594 
L 160.902194 479.621944 
L 169.414452 478.668208 
L 177.92671 477.708421 
L 186.438968 476.742898 
L 194.951226 475.771412 
L 203.463484 474.794705 
L 211.975742 473.812196 
L 220.488 472.824421 
L 229.000258 471.831548 
L 237.512516 470.833536 
L 246.024774 469.830644 
L 254.537032 468.823033 
L 263.04929 467.810699 
L 271.561548 466.79348 
L 280.073806 465.772085 
L 288.586064 464.746248 
L 297.098322 463.716433 
L 305.61058 462.682062 
L 314.122838 461.643903 
L 322.635096 460.601868 
L 331.147354 459.556056 
L 339.659612 458.50656 
L 348.17187 457.453528 
L 356.684128 456.396997 
L 365.196386 455.337161 
L 373.708644 454.274348 
L 382.220902 453.207841 
L 390.73316 452.138519 
L 399.245418 451.066672 
L 407.757676 449.991052 
L 416.269934 448.913674 
L 424.782192 447.832682 
L 433.29445 446.749869 
L 441.806708 445.664285 
L 450.318966 444.576081 
L 458.831224 443.48594 
L 467.343482 442.393812 
L 475.85574 441.29914 
L 484.367998 440.20235 
L 492.880256 439.103676 
L 501.392514 438.003148 
L 509.904772 436.900937 
L 518.41703 435.797056 
L 526.929288 434.691609 
L 535.441546 433.584672 
L 543.953804 432.47635 
L 552.466062 431.366804 
L 560.97832 430.255118 
L 569.490578 429.142387 
L 578.002836 428.028795 
L 586.515094 426.914606 
L 595.027352 425.79868 
L 603.53961 424.681737 
L 612.051868 423.56469 
L 620.564126 422.445988 
L 629.076384 421.326756 
L 637.588642 420.207478 
L 646.1009 419.086549 
L 654.613158 417.96645 
L 663.125416 416.844302 
L 671.637674 415.72308 
L 680.149932 414.600605 
L 688.66219 413.478056 
L 697.174448 412.355936 
L 705.686706 411.232532 
L 714.198964 410.110192 
L 722.711222 408.986995 
L 731.22348 407.863333 
L 739.735738 406.74105 
L 748.247996 405.618757 
L 756.760254 404.495297 
L 765.272512 403.372722 
L 773.78477 402.25098 
L 782.297028 401.130042 
L 790.809286 400.007815 
L 799.321544 398.88636 
L 807.833802 397.765648 
L 816.34606 396.645831 
L 824.858318 395.526661 
L 833.370576 394.408224 
L 841.882834 393.290557 
L 850.395092 392.173158 
L 858.90735 391.056172 
L 867.419608 389.940129 
L 875.931866 388.824997 
L 884.444124 387.710816 
L 892.956382 386.59759 
" clip-path="url(#paec54bb09f)" style="fill: none; stroke: #8c6d31; stroke-width: 2; stroke-linecap: round"/>
   </g>
   <g id="line2d_36">
    <path d="M 41.730582 517.30572 
L 50.24284 516.920972 
L 58.755098 516.519955 
L 67.267356 516.102926 
L 75.779614 515.670096 
L 84.291872 515.221793 
L 92.80413 514.758245 
L 101.316388 514.279665 
L 109.828646 513.786321 
L 118.340904 513.278457 
L 126.853162 512.75634 
L 135.36542 512.220199 
L 143.877678 511.670204 
L 152.389936 511.106663 
L 160.902194 510.529769 
L 169.414452 509.939789 
L 177.92671 509.33688 
L 186.438968 508.721269 
L 194.951226 508.093259 
L 203.463484 507.453004 
L 211.975742 506.800723 
L 220.488 506.136599 
L 229.000258 505.460907 
L 237.512516 504.773766 
L 246.024774 504.075458 
L 254.537032 503.36618 
L 263.04929 502.646052 
L 271.561548 501.915358 
L 280.073806 501.174161 
L 288.586064 500.422903 
L 297.098322 499.661549 
L 305.61058 498.890271 
L 314.122838 498.10944 
L 322.635096 497.319137 
L 331.147354 496.519443 
L 339.659612 495.710662 
L 348.17187 494.892983 
L 356.684128 494.066497 
L 365.196386 493.23141 
L 373.708644 492.387878 
L 382.220902 491.536114 
L 390.73316 490.676281 
L 399.245418 489.808494 
L 407.757676 488.932841 
L 416.269934 488.049652 
L 424.782192 487.159005 
L 433.29445 486.261157 
L 441.806708 485.356066 
L 450.318966 484.443907 
L 458.831224 483.524836 
L 467.343482 482.599197 
L 475.85574 481.667 
L 484.367998 480.728404 
L 492.880256 479.783481 
L 501.392514 478.832364 
L 509.904772 477.875293 
L 518.41703 476.912464 
L 526.929288 475.943882 
L 535.441546 474.969724 
L 543.953804 473.98998 
L 552.466062 473.00502 
L 560.97832 472.014796 
L 569.490578 471.019551 
L 578.002836 470.019289 
L 586.515094 469.014219 
L 595.027352 468.004578 
L 603.53961 466.990304 
L 612.051868 465.971308 
L 620.564126 464.948347 
L 629.076384 463.920804 
L 637.588642 462.889312 
L 646.1009 461.853798 
L 654.613158 460.814661 
L 663.125416 459.771471 
L 671.637674 458.724661 
L 680.149932 457.67422 
L 688.66219 456.620031 
L 697.174448 455.562705 
L 705.686706 454.502184 
L 714.198964 453.438726 
L 722.711222 452.371857 
L 731.22348 451.301816 
L 739.735738 450.229825 
L 748.247996 449.154066 
L 756.760254 448.076368 
L 765.272512 446.995505 
L 773.78477 445.912376 
L 782.297028 444.827345 
L 790.809286 443.739179 
L 799.321544 442.649046 
L 807.833802 441.556891 
L 816.34606 440.462922 
L 824.858318 439.366934 
L 833.370576 438.268996 
L 841.882834 437.169228 
L 850.395092 436.067678 
L 858.90735 434.964407 
L 867.419608 433.859576 
L 875.931866 432.753197 
L 884.444124 431.64551 
L 892.956382 430.536598 
" clip-path="url(#paec54bb09f)" style="fill: none; stroke: #e7cb94; stroke-width: 2; stroke-linecap: round"/>
   </g>
   <g id="line2d_37">
    <path d="M 41.730582 520.556133 
L 50.24284 520.388828 
L 58.755098 520.201872 
L 67.267356 519.995567 
L 75.779614 519.770184 
L 84.291872 519.52605 
L 92.80413 519.263449 
L 101.316388 518.982646 
L 109.828646 518.683935 
L 118.340904 518.367595 
L 126.853162 518.033921 
L 135.36542 517.683176 
L 143.877678 517.315602 
L 152.389936 516.931505 
L 160.902194 516.531126 
L 169.414452 516.114755 
L 177.92671 515.682603 
L 186.438968 515.234938 
L 194.951226 514.772049 
L 203.463484 514.294171 
L 211.975742 513.801525 
L 220.488 513.294356 
L 229.000258 512.772932 
L 237.512516 512.237451 
L 246.024774 511.688193 
L 254.537032 511.125383 
L 263.04929 510.549192 
L 271.561548 509.9599 
L 280.073806 509.357669 
L 288.586064 508.742908 
L 297.098322 508.115628 
L 305.61058 507.476019 
L 314.122838 506.824527 
L 322.635096 506.161172 
L 331.147354 505.486193 
L 339.659612 504.799817 
L 348.17187 504.102295 
L 356.684128 503.393716 
L 365.196386 502.674347 
L 373.708644 501.944379 
L 382.220902 501.204038 
L 390.73316 500.453532 
L 399.245418 499.692928 
L 407.757676 498.922412 
L 416.269934 498.142332 
L 424.782192 497.352739 
L 433.29445 496.553923 
L 441.806708 495.745942 
L 450.318966 494.929016 
L 458.831224 494.103241 
L 467.343482 493.268906 
L 475.85574 492.426264 
L 484.367998 491.575355 
L 492.880256 490.716158 
L 501.392514 489.84908 
L 509.904772 488.974295 
L 518.41703 488.091974 
L 526.929288 487.202034 
L 535.441546 486.304896 
L 543.953804 485.400574 
L 552.466062 484.489212 
L 560.97832 483.570967 
L 569.490578 482.646159 
L 578.002836 481.71468 
L 586.515094 480.776799 
L 595.027352 479.832692 
L 603.53961 478.882416 
L 612.051868 477.926119 
L 620.564126 476.964183 
L 629.076384 475.996071 
L 637.588642 475.0229 
L 646.1009 474.043785 
L 654.613158 473.059626 
L 663.125416 472.070097 
L 671.637674 471.07563 
L 680.149932 470.076195 
L 688.66219 469.071811 
L 697.174448 468.063101 
L 705.686706 467.049349 
L 714.198964 466.031416 
L 722.711222 465.008848 
L 731.22348 463.982309 
L 739.735738 462.951475 
L 748.247996 461.916661 
L 756.760254 460.878035 
L 765.272512 459.835638 
L 773.78477 458.789493 
L 782.297028 457.739753 
L 790.809286 456.686451 
L 799.321544 455.629882 
L 807.833802 454.570099 
L 816.34606 453.507502 
L 824.858318 452.441079 
L 833.370576 451.372104 
L 841.882834 450.300255 
L 850.395092 449.225522 
L 858.90735 448.148236 
L 867.419608 447.068511 
L 875.931866 445.985848 
L 884.444124 444.901292 
L 892.956382 443.814332 
" clip-path="url(#paec54bb09f)" style="fill: none; stroke: #ad494a; stroke-width: 2; stroke-linecap: round"/>
   </g>
   <g id="line2d_38">
    <path d="M 41.730582 521.643002 
L 50.24284 521.27005 
L 58.755098 520.996361 
L 67.267356 520.795206 
L 75.779614 520.644084 
L 84.291872 520.488368 
L 92.80413 520.312834 
L 101.316388 520.117767 
L 109.828646 519.903475 
L 118.340904 519.670251 
L 126.853162 519.4184 
L 135.36542 519.148205 
L 143.877678 518.859927 
L 152.389936 518.553879 
L 160.902194 518.230322 
L 169.414452 517.889552 
L 177.92671 517.531806 
L 186.438968 517.157362 
L 194.951226 516.766517 
L 203.463484 516.359518 
L 211.975742 515.936614 
L 220.488 515.498054 
L 229.000258 515.044118 
L 237.512516 514.575015 
L 246.024774 514.091045 
L 254.537032 513.592442 
L 263.04929 513.0794 
L 271.561548 512.552199 
L 280.073806 512.011013 
L 288.586064 511.45626 
L 297.098322 510.887972 
L 305.61058 510.30637 
L 314.122838 509.711857 
L 322.635096 509.104527 
L 331.147354 508.484605 
L 339.659612 507.852319 
L 348.17187 507.207921 
L 356.684128 506.551553 
L 365.196386 505.883445 
L 373.708644 505.203881 
L 382.220902 504.512989 
L 390.73316 503.81102 
L 399.245418 503.098109 
L 407.757676 502.374458 
L 416.269934 501.640303 
L 424.782192 500.895849 
L 433.29445 500.141268 
L 441.806708 499.376741 
L 450.318966 498.602446 
L 458.831224 497.818546 
L 467.343482 497.025196 
L 475.85574 496.222806 
L 484.367998 495.411259 
L 492.880256 494.590791 
L 501.392514 493.76166 
L 509.904772 492.924038 
L 518.41703 492.078027 
L 526.929288 491.223942 
L 535.441546 490.361703 
L 543.953804 489.49162 
L 552.466062 488.613881 
L 560.97832 487.728421 
L 569.490578 486.835808 
L 578.002836 485.935788 
L 586.515094 485.028761 
L 595.027352 484.11486 
L 603.53961 483.193966 
L 612.051868 482.266582 
L 620.564126 481.332615 
L 629.076384 480.392245 
L 637.588642 479.445851 
L 646.1009 478.493206 
L 654.613158 477.534868 
L 663.125416 476.570498 
L 671.637674 475.600497 
L 680.149932 474.62505 
L 688.66219 473.644174 
L 697.174448 472.657947 
L 705.686706 471.666633 
L 714.198964 470.670326 
L 722.711222 469.669099 
L 731.22348 468.662826 
L 739.735738 467.652183 
L 748.247996 466.637131 
L 756.760254 465.61729 
L 765.272512 464.593595 
L 773.78477 463.565175 
L 782.297028 462.53298 
L 790.809286 461.496892 
L 799.321544 460.457038 
L 807.833802 459.413211 
L 816.34606 458.365879 
L 824.858318 457.314901 
L 833.370576 456.260321 
L 841.882834 455.202466 
L 850.395092 454.141547 
L 858.90735 453.077814 
L 867.419608 452.010528 
L 875.931866 450.940557 
L 884.444124 449.867858 
L 892.956382 448.792189 
" clip-path="url(#paec54bb09f)" style="fill: none; stroke: #e7969c; stroke-width: 2; stroke-linecap: round"/>
   </g>
   <g id="line2d_39">
    <path d="M 41.730582 523.037308 
L 50.24284 522.290663 
L 58.755098 521.7446 
L 67.267356 521.344609 
L 75.779614 521.051124 
L 84.291872 520.835493 
L 92.80413 520.676574 
L 101.316388 520.525404 
L 109.828646 520.354342 
L 118.340904 520.16369 
L 126.853162 519.953758 
L 135.36542 519.724837 
L 143.877678 519.4772 
L 152.389936 519.211162 
L 160.902194 518.926994 
L 169.414452 518.624998 
L 177.92671 518.305419 
L 186.438968 517.968545 
L 194.951226 517.614673 
L 203.463484 517.244061 
L 211.975742 516.856964 
L 220.488 516.453639 
L 229.000258 516.03437 
L 237.512516 515.599382 
L 246.024774 515.148971 
L 254.537032 514.683374 
L 263.04929 514.202805 
L 271.561548 513.707537 
L 280.073806 513.197768 
L 288.586064 512.673899 
L 297.098322 512.135984 
L 305.61058 511.584252 
L 314.122838 511.0191 
L 322.635096 510.440632 
L 331.147354 509.849077 
L 339.659612 509.244687 
L 348.17187 508.627686 
L 356.684128 507.998265 
L 365.196386 507.35665 
L 373.708644 506.703064 
L 382.220902 506.037735 
L 390.73316 505.360851 
L 399.245418 504.672597 
L 407.757676 503.973148 
L 416.269934 503.262792 
L 424.782192 502.541677 
L 433.29445 501.810017 
L 441.806708 501.067989 
L 450.318966 500.315781 
L 458.831224 499.553558 
L 467.343482 498.781476 
L 475.85574 497.999928 
L 484.367998 497.208861 
L 492.880256 496.408521 
L 501.392514 495.599077 
L 509.904772 494.780748 
L 518.41703 493.953747 
L 526.929288 493.118191 
L 535.441546 492.274171 
L 543.953804 491.421915 
L 552.466062 490.561606 
L 560.97832 489.693348 
L 569.490578 488.817408 
L 578.002836 487.933934 
L 586.515094 487.042947 
L 595.027352 486.144777 
L 603.53961 485.239432 
L 612.051868 484.327022 
L 620.564126 483.407933 
L 629.076384 482.48207 
L 637.588642 481.549814 
L 646.1009 480.610951 
L 654.613158 479.666069 
L 663.125416 478.7149 
L 671.637674 477.757969 
L 680.149932 476.795074 
L 688.66219 475.826334 
L 697.174448 474.85227 
L 705.686706 473.872891 
L 714.198964 472.887909 
L 722.711222 471.897733 
L 731.22348 470.902481 
L 739.735738 469.902659 
L 748.247996 468.897899 
L 756.760254 467.888162 
L 765.272512 466.874099 
L 773.78477 465.855565 
L 782.297028 464.832692 
L 790.809286 463.805491 
L 799.321544 462.774513 
L 807.833802 461.739297 
L 816.34606 460.700179 
L 824.858318 459.657301 
L 833.370576 458.610761 
L 841.882834 457.560735 
L 850.395092 456.507352 
L 858.90735 455.450684 
L 867.419608 454.390368 
L 875.931866 453.327048 
L 884.444124 452.261102 
L 892.956382 451.1916 
" clip-path="url(#paec54bb09f)" style="fill: none; stroke: #a55194; stroke-width: 2; stroke-linecap: round"/>
   </g>
   <g id="line2d_40">
    <path d="M 41.730582 524.557646 
L 50.24284 523.40057 
L 58.755098 522.556149 
L 67.267356 521.93893 
L 75.779614 521.487018 
L 84.291872 521.155688 
L 92.80413 520.912375 
L 101.316388 520.733423 
L 109.828646 520.587172 
L 118.340904 520.423895 
L 126.853162 520.240921 
L 135.36542 520.038547 
L 143.877678 519.817052 
L 152.389936 519.576753 
L 160.902194 519.317927 
L 169.414452 519.040879 
L 177.92671 518.745864 
L 186.438968 518.433169 
L 194.951226 518.103096 
L 203.463484 517.755907 
L 211.975742 517.391866 
L 220.488 517.011229 
L 229.000258 516.614288 
L 237.512516 516.201271 
L 246.024774 515.772474 
L 254.537032 515.328144 
L 263.04929 514.8685 
L 271.561548 514.393815 
L 280.073806 513.90429 
L 288.586064 513.400331 
L 297.098322 512.882003 
L 305.61058 512.349527 
L 314.122838 511.803311 
L 322.635096 511.243458 
L 331.147354 510.670211 
L 339.659612 510.083811 
L 348.17187 509.484506 
L 356.684128 508.872466 
L 365.196386 508.24793 
L 373.708644 507.611151 
L 382.220902 506.96231 
L 390.73316 506.301643 
L 399.245418 505.629313 
L 407.757676 504.945507 
L 416.269934 504.250529 
L 424.782192 503.544505 
L 433.29445 502.82766 
L 441.806708 502.100186 
L 450.318966 501.362248 
L 458.831224 500.61401 
L 467.343482 499.855743 
L 475.85574 499.087689 
L 484.367998 498.309889 
L 492.880256 497.522535 
L 501.392514 496.72588 
L 509.904772 495.920067 
L 518.41703 495.105333 
L 526.929288 494.281748 
L 535.441546 493.449596 
L 543.953804 492.608919 
L 552.466062 491.759943 
L 560.97832 490.902818 
L 569.490578 490.037829 
L 578.002836 489.164957 
L 586.515094 488.284426 
L 595.027352 487.396549 
L 603.53961 486.501147 
L 612.051868 485.598579 
L 620.564126 484.689103 
L 629.076384 483.772682 
L 637.588642 482.849553 
L 646.1009 481.919839 
L 654.613158 480.98368 
L 663.125416 480.041097 
L 671.637674 479.092506 
L 680.149932 478.137922 
L 688.66219 477.177363 
L 697.174448 476.210993 
L 705.686706 475.239327 
L 714.198964 474.261792 
L 722.711222 473.27895 
L 731.22348 472.290863 
L 739.735738 471.297949 
L 748.247996 470.299861 
L 756.760254 469.296924 
L 765.272512 468.289381 
L 773.78477 467.277137 
L 782.297028 466.260293 
L 790.809286 465.239295 
L 799.321544 464.213841 
L 807.833802 463.184217 
L 816.34606 462.150863 
L 824.858318 461.113561 
L 833.370576 460.072107 
L 841.882834 459.027066 
L 850.395092 457.978518 
L 858.90735 456.926572 
L 867.419608 455.870991 
L 875.931866 454.812057 
L 884.444124 453.750137 
L 892.956382 452.685443 
" clip-path="url(#paec54bb09f)" style="fill: none; stroke: #de9ed6; stroke-width: 2; stroke-linecap: round"/>
   </g>
   <g id="patch_3">
    <path d="M 41.730582 521.153031 
L 41.730582 51.564121 
" style="fill: none"/>
   </g>
   <g id="patch_4">
    <path d="M 935.517672 521.153031 
L 935.517672 51.564121 
" style="fill: none"/>
   </g>
   <g id="patch_5">
    <path d="M 41.730582 521.153031 
L 935.517672 521.153031 
" style="fill: none"/>
   </g>
   <g id="patch_6">
    <path d="M 41.730582 51.564121 
L 935.517672 51.564121 
" style="fill: none"/>
   </g>
   <g id="patch_7">
    <path d="M 467.343482 85.02643 
Q 467.343482 284.735176 467.343482 482.766871 
" style="fill: none; stroke: #000000; stroke-width: 1.5; stroke-linecap: round"/>
    <path d="M 470.543482 476.366871 
L 467.343482 482.766871 
L 464.143482 476.366871 
" style="fill: none; stroke: #000000; stroke-width: 1.5; stroke-linecap: round"/>
   </g>
   <g id="text_17">
    <!-- Time -->
    <g style="fill: #262626" transform="translate(488.624127 482.955717) scale(0.18 -0.18)">
     <defs>
      <path id="CMR17-54" d="M 3981 4326 
L 288 4326 
L 179 2918 
L 294 2918 
C 378 3976 467 4160 1453 4160 
C 1568 4160 1754 4160 1805 4154 
C 1926 4135 1926 4058 1926 3912 
L 1926 459 
C 1926 230 1907 160 1376 160 
L 1197 160 
L 1197 0 
C 1504 0 1824 0 2138 0 
C 2451 0 2771 0 3078 0 
L 3078 160 
L 2899 160 
C 2368 160 2349 230 2349 459 
L 2349 3912 
C 2349 4052 2349 4129 2464 4154 
C 2515 4160 2701 4160 2816 4160 
C 3795 4160 3891 3976 3974 2918 
L 4090 2918 
L 3981 4326 
z
" transform="scale(0.015625)"/>
      <path id="CMR17-69" d="M 992 3909 
C 992 4049 877 4170 730 4170 
C 589 4170 467 4056 467 3909 
C 467 3769 582 3648 730 3648 
C 870 3648 992 3763 992 3909 
z
M 243 2706 
L 243 2541 
C 602 2541 653 2502 653 2197 
L 653 427 
C 653 184 627 153 218 153 
L 218 -13 
C 371 0 646 0 806 0 
C 960 0 1222 0 1370 -13 
L 1370 153 
C 992 153 979 191 979 420 
L 979 2776 
L 243 2706 
z
" transform="scale(0.015625)"/>
      <path id="CMR17-6d" d="M 4326 1933 
C 4326 2252 4269 2790 3507 2790 
C 3072 2790 2771 2496 2656 2151 
L 2650 2151 
C 2573 2676 2195 2790 1837 2790 
C 1331 2790 1069 2400 973 2144 
L 966 2144 
L 966 2790 
L 211 2720 
L 211 2554 
C 589 2554 646 2515 646 2208 
L 646 428 
C 646 184 621 153 211 153 
L 211 -13 
C 365 0 646 0 813 0 
C 979 0 1267 0 1421 -13 
L 1421 153 
C 1011 153 986 178 986 428 
L 986 1658 
C 986 2247 1344 2688 1792 2688 
C 2266 2688 2317 2266 2317 1958 
L 2317 428 
C 2317 184 2291 153 1882 153 
L 1882 -13 
C 2035 0 2317 0 2483 0 
C 2650 0 2938 0 3091 -13 
L 3091 153 
C 2682 153 2656 178 2656 428 
L 2656 1658 
C 2656 2247 3014 2688 3462 2688 
C 3936 2688 3987 2266 3987 1958 
L 3987 428 
C 3987 184 3962 153 3552 153 
L 3552 -13 
C 3706 0 3987 0 4154 0 
C 4320 0 4608 0 4762 -13 
L 4762 153 
C 4352 153 4326 178 4326 428 
L 4326 1933 
z
" transform="scale(0.015625)"/>
      <path id="CMR17-65" d="M 2438 1472 
C 2464 1498 2464 1511 2464 1576 
C 2464 2238 2118 2816 1389 2816 
C 710 2816 173 2169 173 1383 
C 173 551 781 -64 1459 -64 
C 2176 -64 2458 607 2458 740 
C 2458 784 2419 784 2406 784 
C 2362 784 2355 771 2330 696 
C 2189 265 1837 51 1504 51 
C 1229 51 954 203 781 480 
C 582 803 582 1176 582 1472 
L 2438 1472 
z
M 589 1568 
C 634 2505 1126 2714 1382 2714 
C 1818 2714 2112 2297 2118 1568 
L 589 1568 
z
" transform="scale(0.015625)"/>
     </defs>
     <use xlink:href="#CMR17-54" transform="scale(0.996264)"/>
     <use xlink:href="#CMR17-69" transform="translate(66.509881 0) scale(0.996264)"/>
     <use xlink:href="#CMR17-6d" transform="translate(91.380939 0) scale(0.996264)"/>
     <use xlink:href="#CMR17-65" transform="translate(168.300529 0) scale(0.996264)"/>
    </g>
   </g>
   <g id="legend_1">
    <g id="line2d_41">
     <path d="M 948.117672 197.198434 
L 962.117672 197.198434 
L 976.117672 197.198434 
" style="fill: none; stroke: #393b79; stroke-width: 2; stroke-linecap: round"/>
    </g>
    <g id="text_18">
     <!-- t = 0.00 -->
     <g style="fill: #262626" transform="translate(987.317672 202.098434) scale(0.14 -0.14)">
      <defs>
       <path id="CMR17-74" d="M 966 2560 
L 1862 2560 
L 1862 2725 
L 966 2725 
L 966 3904 
L 851 3904 
C 838 3245 614 2668 70 2668 
L 70 2560 
L 627 2560 
L 627 771 
C 627 650 627 -64 1370 -64 
C 1747 -64 1965 306 1965 777 
L 1965 1140 
L 1850 1140 
L 1850 783 
C 1850 344 1677 51 1408 51 
C 1222 51 966 178 966 758 
L 966 2560 
z
" transform="scale(0.015625)"/>
       <path id="CMR17-3d" d="M 4115 2017 
C 4211 2017 4307 2017 4307 2125 
C 4307 2240 4198 2240 4090 2240 
L 512 2240 
C 403 2240 294 2240 294 2125 
C 294 2017 390 2017 486 2017 
L 4115 2017 
z
M 4090 896 
C 4198 896 4307 896 4307 1011 
C 4307 1119 4211 1119 4115 1119 
L 486 1119 
C 390 1119 294 1119 294 1011 
C 294 896 403 896 512 896 
L 4090 896 
z
" transform="scale(0.015625)"/>
       <path id="CMR17-2e" d="M 1062 261 
C 1062 420 934 522 800 522 
C 672 522 538 420 538 261 
C 538 102 666 0 800 0 
C 928 0 1062 102 1062 261 
z
" transform="scale(0.015625)"/>
      </defs>
      <use xlink:href="#CMR17-74" transform="scale(0.996264)"/>
      <use xlink:href="#CMR17-3d" transform="translate(65.356734 0) scale(0.996264)"/>
      <use xlink:href="#CMR17-30" transform="translate(167.147489 0) scale(0.996264)"/>
      <use xlink:href="#CMR17-2e" transform="translate(212.837966 0) scale(0.996264)"/>
      <use xlink:href="#CMR17-30" transform="translate(237.709025 0) scale(0.996264)"/>
      <use xlink:href="#CMR17-30" transform="translate(283.399502 0) scale(0.996264)"/>
     </g>
    </g>
    <g id="line2d_42">
     <path d="M 948.117672 216.710462 
L 962.117672 216.710462 
L 976.117672 216.710462 
" style="fill: none; stroke: #6b6ecf; stroke-width: 2; stroke-linecap: round"/>
    </g>
    <g id="text_19">
     <!-- t = 10.00 -->
     <g style="fill: #262626" transform="translate(987.317672 221.610462) scale(0.14 -0.14)">
      <use xlink:href="#CMR17-74" transform="scale(0.996264)"/>
      <use xlink:href="#CMR17-3d" transform="translate(65.356734 0) scale(0.996264)"/>
      <use xlink:href="#CMR17-31" transform="translate(167.147489 0) scale(0.996264)"/>
      <use xlink:href="#CMR17-30" transform="translate(212.837966 0) scale(0.996264)"/>
      <use xlink:href="#CMR17-2e" transform="translate(258.528443 0) scale(0.996264)"/>
      <use xlink:href="#CMR17-30" transform="translate(283.399502 0) scale(0.996264)"/>
      <use xlink:href="#CMR17-30" transform="translate(329.089979 0) scale(0.996264)"/>
     </g>
    </g>
    <g id="line2d_43">
     <path d="M 948.117672 236.222491 
L 962.117672 236.222491 
L 976.117672 236.222491 
" style="fill: none; stroke: #637939; stroke-width: 2; stroke-linecap: round"/>
    </g>
    <g id="text_20">
     <!-- t = 50.00 -->
     <g style="fill: #262626" transform="translate(987.317672 241.122491) scale(0.14 -0.14)">
      <use xlink:href="#CMR17-74" transform="scale(0.996264)"/>
      <use xlink:href="#CMR17-3d" transform="translate(65.356734 0) scale(0.996264)"/>
      <use xlink:href="#CMR17-35" transform="translate(167.147489 0) scale(0.996264)"/>
      <use xlink:href="#CMR17-30" transform="translate(212.837966 0) scale(0.996264)"/>
      <use xlink:href="#CMR17-2e" transform="translate(258.528443 0) scale(0.996264)"/>
      <use xlink:href="#CMR17-30" transform="translate(283.399502 0) scale(0.996264)"/>
      <use xlink:href="#CMR17-30" transform="translate(329.089979 0) scale(0.996264)"/>
     </g>
    </g>
    <g id="line2d_44">
     <path d="M 948.117672 255.734519 
L 962.117672 255.734519 
L 976.117672 255.734519 
" style="fill: none; stroke: #b5cf6b; stroke-width: 2; stroke-linecap: round"/>
    </g>
    <g id="text_21">
     <!-- t = 100.00 -->
     <g style="fill: #262626" transform="translate(987.317672 260.634519) scale(0.14 -0.14)">
      <use xlink:href="#CMR17-74" transform="scale(0.996264)"/>
      <use xlink:href="#CMR17-3d" transform="translate(65.356734 0) scale(0.996264)"/>
      <use xlink:href="#CMR17-31" transform="translate(167.147489 0) scale(0.996264)"/>
      <use xlink:href="#CMR17-30" transform="translate(212.837966 0) scale(0.996264)"/>
      <use xlink:href="#CMR17-30" transform="translate(258.528443 0) scale(0.996264)"/>
      <use xlink:href="#CMR17-2e" transform="translate(304.21892 0) scale(0.996264)"/>
      <use xlink:href="#CMR17-30" transform="translate(329.089979 0) scale(0.996264)"/>
      <use xlink:href="#CMR17-30" transform="translate(374.780456 0) scale(0.996264)"/>
     </g>
    </g>
    <g id="line2d_45">
     <path d="M 948.117672 275.246547 
L 962.117672 275.246547 
L 976.117672 275.246547 
" style="fill: none; stroke: #8c6d31; stroke-width: 2; stroke-linecap: round"/>
    </g>
    <g id="text_22">
     <!-- t = 250.00 -->
     <g style="fill: #262626" transform="translate(987.317672 280.146547) scale(0.14 -0.14)">
      <use xlink:href="#CMR17-74" transform="scale(0.996264)"/>
      <use xlink:href="#CMR17-3d" transform="translate(65.356734 0) scale(0.996264)"/>
      <use xlink:href="#CMR17-32" transform="translate(167.147489 0) scale(0.996264)"/>
      <use xlink:href="#CMR17-35" transform="translate(212.837966 0) scale(0.996264)"/>
      <use xlink:href="#CMR17-30" transform="translate(258.528443 0) scale(0.996264)"/>
      <use xlink:href="#CMR17-2e" transform="translate(304.21892 0) scale(0.996264)"/>
      <use xlink:href="#CMR17-30" transform="translate(329.089979 0) scale(0.996264)"/>
      <use xlink:href="#CMR17-30" transform="translate(374.780456 0) scale(0.996264)"/>
     </g>
    </g>
    <g id="line2d_46">
     <path d="M 948.117672 294.758576 
L 962.117672 294.758576 
L 976.117672 294.758576 
" style="fill: none; stroke: #e7cb94; stroke-width: 2; stroke-linecap: round"/>
    </g>
    <g id="text_23">
     <!-- t = 500.00 -->
     <g style="fill: #262626" transform="translate(987.317672 299.658576) scale(0.14 -0.14)">
      <use xlink:href="#CMR17-74" transform="scale(0.996264)"/>
      <use xlink:href="#CMR17-3d" transform="translate(65.356734 0) scale(0.996264)"/>
      <use xlink:href="#CMR17-35" transform="translate(167.147489 0) scale(0.996264)"/>
      <use xlink:href="#CMR17-30" transform="translate(212.837966 0) scale(0.996264)"/>
      <use xlink:href="#CMR17-30" transform="translate(258.528443 0) scale(0.996264)"/>
      <use xlink:href="#CMR17-2e" transform="translate(304.21892 0) scale(0.996264)"/>
      <use xlink:href="#CMR17-30" transform="translate(329.089979 0) scale(0.996264)"/>
      <use xlink:href="#CMR17-30" transform="translate(374.780456 0) scale(0.996264)"/>
     </g>
    </g>
    <g id="line2d_47">
     <path d="M 948.117672 314.270604 
L 962.117672 314.270604 
L 976.117672 314.270604 
" style="fill: none; stroke: #ad494a; stroke-width: 2; stroke-linecap: round"/>
    </g>
    <g id="text_24">
     <!-- t = 750.00 -->
     <g style="fill: #262626" transform="translate(987.317672 319.170604) scale(0.14 -0.14)">
      <use xlink:href="#CMR17-74" transform="scale(0.996264)"/>
      <use xlink:href="#CMR17-3d" transform="translate(65.356734 0) scale(0.996264)"/>
      <use xlink:href="#CMR17-37" transform="translate(167.147489 0) scale(0.996264)"/>
      <use xlink:href="#CMR17-35" transform="translate(212.837966 0) scale(0.996264)"/>
      <use xlink:href="#CMR17-30" transform="translate(258.528443 0) scale(0.996264)"/>
      <use xlink:href="#CMR17-2e" transform="translate(304.21892 0) scale(0.996264)"/>
      <use xlink:href="#CMR17-30" transform="translate(329.089979 0) scale(0.996264)"/>
      <use xlink:href="#CMR17-30" transform="translate(374.780456 0) scale(0.996264)"/>
     </g>
    </g>
    <g id="line2d_48">
     <path d="M 948.117672 333.782633 
L 962.117672 333.782633 
L 976.117672 333.782633 
" style="fill: none; stroke: #e7969c; stroke-width: 2; stroke-linecap: round"/>
    </g>
    <g id="text_25">
     <!-- t = 1000.00 -->
     <g style="fill: #262626" transform="translate(987.317672 338.682633) scale(0.14 -0.14)">
      <use xlink:href="#CMR17-74" transform="scale(0.996264)"/>
      <use xlink:href="#CMR17-3d" transform="translate(65.356734 0) scale(0.996264)"/>
      <use xlink:href="#CMR17-31" transform="translate(167.147489 0) scale(0.996264)"/>
      <use xlink:href="#CMR17-30" transform="translate(212.837966 0) scale(0.996264)"/>
      <use xlink:href="#CMR17-30" transform="translate(258.528443 0) scale(0.996264)"/>
      <use xlink:href="#CMR17-30" transform="translate(304.21892 0) scale(0.996264)"/>
      <use xlink:href="#CMR17-2e" transform="translate(349.909397 0) scale(0.996264)"/>
      <use xlink:href="#CMR17-30" transform="translate(374.780456 0) scale(0.996264)"/>
      <use xlink:href="#CMR17-30" transform="translate(420.470933 0) scale(0.996264)"/>
     </g>
    </g>
    <g id="line2d_49">
     <path d="M 948.117672 353.294661 
L 962.117672 353.294661 
L 976.117672 353.294661 
" style="fill: none; stroke: #a55194; stroke-width: 2; stroke-linecap: round"/>
    </g>
    <g id="text_26">
     <!-- t = 1250.00 -->
     <g style="fill: #262626" transform="translate(987.317672 358.194661) scale(0.14 -0.14)">
      <use xlink:href="#CMR17-74" transform="scale(0.996264)"/>
      <use xlink:href="#CMR17-3d" transform="translate(65.356734 0) scale(0.996264)"/>
      <use xlink:href="#CMR17-31" transform="translate(167.147489 0) scale(0.996264)"/>
      <use xlink:href="#CMR17-32" transform="translate(212.837966 0) scale(0.996264)"/>
      <use xlink:href="#CMR17-35" transform="translate(258.528443 0) scale(0.996264)"/>
      <use xlink:href="#CMR17-30" transform="translate(304.21892 0) scale(0.996264)"/>
      <use xlink:href="#CMR17-2e" transform="translate(349.909397 0) scale(0.996264)"/>
      <use xlink:href="#CMR17-30" transform="translate(374.780456 0) scale(0.996264)"/>
      <use xlink:href="#CMR17-30" transform="translate(420.470933 0) scale(0.996264)"/>
     </g>
    </g>
    <g id="line2d_50">
     <path d="M 948.117672 372.806689 
L 962.117672 372.806689 
L 976.117672 372.806689 
" style="fill: none; stroke: #de9ed6; stroke-width: 2; stroke-linecap: round"/>
    </g>
    <g id="text_27">
     <!-- t = 1500.00 -->
     <g style="fill: #262626" transform="translate(987.317672 377.706689) scale(0.14 -0.14)">
      <use xlink:href="#CMR17-74" transform="scale(0.996264)"/>
      <use xlink:href="#CMR17-3d" transform="translate(65.356734 0) scale(0.996264)"/>
      <use xlink:href="#CMR17-31" transform="translate(167.147489 0) scale(0.996264)"/>
      <use xlink:href="#CMR17-35" transform="translate(212.837966 0) scale(0.996264)"/>
      <use xlink:href="#CMR17-30" transform="translate(258.528443 0) scale(0.996264)"/>
      <use xlink:href="#CMR17-30" transform="translate(304.21892 0) scale(0.996264)"/>
      <use xlink:href="#CMR17-2e" transform="translate(349.909397 0) scale(0.996264)"/>
      <use xlink:href="#CMR17-30" transform="translate(374.780456 0) scale(0.996264)"/>
      <use xlink:href="#CMR17-30" transform="translate(420.470933 0) scale(0.996264)"/>
     </g>
    </g>
   </g>
  </g>
  <g id="text_28">
   <!-- adhesivity -->
   <g style="fill: #262626" transform="translate(501.333696 24.803515) scale(0.192 -0.192)">
    <defs>
     <path id="CMR17-61" d="M 2304 1653 
C 2304 2072 2304 2294 2035 2543 
C 1798 2752 1523 2816 1306 2816 
C 800 2816 435 2407 435 1971 
C 435 1728 627 1728 666 1728 
C 749 1728 896 1778 896 1954 
C 896 2112 774 2181 666 2181 
C 640 2181 608 2174 589 2168 
C 723 2592 1069 2714 1293 2714 
C 1613 2714 1965 2429 1965 1885 
L 1965 1600 
C 1587 1600 1133 1549 774 1357 
C 371 1133 256 813 256 570 
C 256 77 832 -64 1171 -64 
C 1523 -64 1850 139 1990 511 
C 2003 233 2182 -18 2464 -18 
C 2598 -18 2938 70 2938 567 
L 2938 920 
L 2822 920 
L 2822 562 
C 2822 178 2650 128 2566 128 
C 2304 128 2304 458 2304 738 
L 2304 1653 
z
M 1965 870 
C 1965 317 1568 38 1216 38 
C 896 38 646 275 646 570 
C 646 761 730 1100 1101 1305 
C 1408 1478 1760 1504 1965 1504 
L 1965 870 
z
" transform="scale(0.015625)"/>
     <path id="CMR17-64" d="M 1869 4326 
L 1869 4160 
C 2246 4160 2304 4122 2304 3820 
L 2304 2345 
C 2278 2377 2016 2790 1498 2790 
C 845 2790 211 2208 211 1364 
C 211 525 806 -64 1434 -64 
C 1978 -64 2259 337 2291 380 
L 2291 -63 
L 3066 -63 
L 3066 128 
C 2688 128 2630 166 2630 473 
L 2630 4396 
L 1869 4326 
z
M 2291 755 
C 2291 563 2176 390 2029 262 
C 1811 70 1594 38 1472 38 
C 1286 38 621 134 621 1356 
C 621 2612 1363 2688 1530 2688 
C 1824 2688 2061 2522 2208 2291 
C 2291 2157 2291 2138 2291 2023 
L 2291 755 
z
" transform="scale(0.015625)"/>
     <path id="CMR17-68" d="M 2656 1933 
C 2656 2259 2592 2790 1837 2790 
C 1312 2790 1056 2368 979 2157 
L 973 2157 
L 973 4396 
L 211 4326 
L 211 4160 
C 589 4160 646 4122 646 3817 
L 646 426 
C 646 184 621 153 211 153 
L 211 -13 
C 365 0 646 0 813 0 
C 979 0 1267 0 1421 -13 
L 1421 153 
C 1011 153 986 178 986 428 
L 986 1658 
C 986 2247 1344 2688 1792 2688 
C 2266 2688 2317 2266 2317 1958 
L 2317 428 
C 2317 184 2291 153 1882 153 
L 1882 -13 
C 2035 0 2317 0 2483 0 
C 2650 0 2938 0 3091 -13 
L 3091 153 
C 2682 153 2656 178 2656 428 
L 2656 1933 
z
" transform="scale(0.015625)"/>
     <path id="CMR17-73" d="M 1978 2697 
C 1978 2813 1971 2819 1933 2819 
C 1907 2819 1901 2813 1824 2717 
C 1805 2691 1747 2626 1728 2601 
C 1523 2819 1235 2819 1126 2819 
C 416 2819 160 2447 160 2076 
C 160 1498 813 1365 998 1325 
C 1402 1243 1542 1217 1677 1101 
C 1760 1025 1901 884 1901 654 
C 1901 384 1747 38 1158 38 
C 602 38 403 460 288 1021 
C 269 1110 269 1117 218 1117 
C 166 1117 160 1110 160 983 
L 160 63 
C 160 -51 166 -58 205 -58 
C 237 -58 243 -51 275 0 
C 314 57 410 211 448 276 
C 576 103 800 -64 1158 -64 
C 1792 -64 2131 283 2131 784 
C 2131 1112 1958 1285 1875 1362 
C 1683 1561 1459 1606 1190 1657 
C 838 1735 390 1825 390 2217 
C 390 2383 480 2737 1126 2737 
C 1811 2737 1850 2094 1862 1888 
C 1869 1856 1901 1849 1920 1849 
C 1978 1849 1978 1869 1978 1978 
L 1978 2697 
z
" transform="scale(0.015625)"/>
     <path id="CMR17-76" d="M 2502 2163 
C 2560 2304 2662 2560 3034 2560 
L 3034 2726 
C 2912 2726 2752 2726 2630 2726 
C 2496 2726 2285 2726 2157 2732 
L 2157 2566 
C 2317 2553 2406 2477 2406 2311 
C 2406 2253 2406 2240 2368 2151 
L 1664 377 
L 902 2286 
C 864 2369 864 2381 864 2407 
C 864 2560 1075 2560 1171 2560 
L 1171 2732 
C 1018 2726 736 2726 576 2726 
C 403 2726 205 2726 64 2732 
L 64 2560 
C 307 2560 442 2560 518 2362 
L 1446 44 
C 1485 -51 1491 -64 1549 -64 
C 1606 -64 1613 -51 1651 44 
L 2502 2163 
z
" transform="scale(0.015625)"/>
     <path id="CMR17-79" d="M 2496 2197 
C 2656 2586 2944 2586 3034 2586 
L 3034 2752 
C 2912 2752 2752 2752 2630 2752 
C 2496 2752 2285 2752 2157 2758 
L 2157 2592 
C 2400 2573 2406 2394 2406 2343 
C 2406 2280 2394 2248 2362 2171 
L 1664 449 
L 902 2306 
C 870 2382 870 2426 870 2433 
C 870 2573 1018 2586 1171 2586 
L 1171 2758 
C 1018 2752 742 2752 582 2752 
C 410 2752 205 2752 64 2758 
L 64 2586 
C 410 2586 448 2554 531 2350 
L 1485 15 
C 1197 -738 1030 -1178 627 -1178 
C 557 -1178 397 -1159 282 -1044 
C 429 -1031 493 -942 493 -833 
C 493 -725 416 -629 288 -629 
C 147 -629 77 -725 77 -840 
C 77 -1095 339 -1280 627 -1280 
C 998 -1280 1229 -922 1357 -604 
L 2496 2197 
z
" transform="scale(0.015625)"/>
    </defs>
    <use xlink:href="#CMR17-61" transform="scale(0.996264)"/>
    <use xlink:href="#CMR17-64" transform="translate(45.690477 0) scale(0.996264)"/>
    <use xlink:href="#CMR17-68" transform="translate(96.585847 0) scale(0.996264)"/>
    <use xlink:href="#CMR17-65" transform="translate(147.481217 0) scale(0.996264)"/>
    <use xlink:href="#CMR17-73" transform="translate(187.966877 0) scale(0.996264)"/>
    <use xlink:href="#CMR17-69" transform="translate(223.768215 0) scale(0.996264)"/>
    <use xlink:href="#CMR17-76" transform="translate(248.639273 0) scale(0.996264)"/>
    <use xlink:href="#CMR17-69" transform="translate(296.932189 0) scale(0.996264)"/>
    <use xlink:href="#CMR17-74" transform="translate(321.803248 0) scale(0.996264)"/>
    <use xlink:href="#CMR17-79" transform="translate(354.481561 0) scale(0.996264)"/>
   </g>
  </g>
 </g>
 <defs>
  <clipPath id="paec54bb09f">
   <rect x="41.730582" y="51.564121" width="893.78709" height="469.58891"/>
  </clipPath>
 </defs>
</svg>
