<?xml version="1.0" encoding="utf-8" standalone="no"?>
<!DOCTYPE svg PUBLIC "-//W3C//DTD SVG 1.1//EN"
  "http://www.w3.org/Graphics/SVG/1.1/DTD/svg11.dtd">
<svg xmlns:xlink="http://www.w3.org/1999/xlink" width="1080pt" height="756pt" viewBox="0 0 1080 756" xmlns="http://www.w3.org/2000/svg" version="1.1">
 <metadata>
  <rdf:RDF xmlns:dc="http://purl.org/dc/elements/1.1/" xmlns:cc="http://creativecommons.org/ns#" xmlns:rdf="http://www.w3.org/1999/02/22-rdf-syntax-ns#">
   <cc:Work>
    <dc:type rdf:resource="http://purl.org/dc/dcmitype/StillImage"/>
    <dc:date>2024-07-31T08:50:06.156078</dc:date>
    <dc:format>image/svg+xml</dc:format>
    <dc:creator>
     <cc:Agent>
      <dc:title>Matplotlib v3.9.0, https://matplotlib.org/</dc:title>
     </cc:Agent>
    </dc:creator>
   </cc:Work>
  </rdf:RDF>
 </metadata>
 <defs>
  <style type="text/css">*{stroke-linejoin: round; stroke-linecap: butt}</style>
 </defs>
 <g id="figure_1">
  <g id="patch_1">
   <path d="M 0 756 
L 1080 756 
L 1080 0 
L 0 0 
z
" style="fill: #ffffff"/>
  </g>
  <g id="axes_1">
   <g id="patch_2">
    <path d="M 88.532127 678.237256 
L 1041.12 678.237256 
L 1041.12 38.88 
L 88.532127 38.88 
z
" style="fill: #ffffff"/>
   </g>
   <g id="matplotlib.axis_1">
    <g id="xtick_1">
     <g id="line2d_1">
      <defs>
       <path id="m988050132a" d="M 0 0 
L 0 3.5 
" style="stroke: #262626; stroke-width: 0.8"/>
      </defs>
      <g>
       <use xlink:href="#m988050132a" x="88.532127" y="678.237256" style="fill: #262626; stroke: #262626; stroke-width: 0.8"/>
      </g>
     </g>
     <g id="text_1">
      <!-- $\mathdefault{0.0}$ -->
      <g style="fill: #262626" transform="translate(67.206064 710.143856) scale(0.36 -0.36)">
       <defs>
        <path id="CMR17-30" d="M 2688 2025 
C 2688 2416 2682 3080 2413 3591 
C 2176 4039 1798 4198 1466 4198 
C 1158 4198 768 4058 525 3597 
C 269 3118 243 2524 243 2025 
C 243 1661 250 1106 448 619 
C 723 -39 1216 -128 1466 -128 
C 1760 -128 2208 -7 2470 600 
C 2662 1042 2688 1559 2688 2025 
z
M 1466 -26 
C 1056 -26 813 325 723 812 
C 653 1188 653 1738 653 2096 
C 653 2588 653 2997 736 3387 
C 858 3929 1216 4096 1466 4096 
C 1728 4096 2067 3923 2189 3400 
C 2272 3036 2278 2607 2278 2096 
C 2278 1680 2278 1169 2202 792 
C 2067 95 1690 -26 1466 -26 
z
" transform="scale(0.015625)"/>
        <path id="CMMI12-3a" d="M 1178 307 
C 1178 492 1024 619 870 619 
C 685 619 557 466 557 313 
C 557 128 710 0 864 0 
C 1050 0 1178 153 1178 307 
z
" transform="scale(0.015625)"/>
       </defs>
       <use xlink:href="#CMR17-30" transform="scale(0.996264)"/>
       <use xlink:href="#CMMI12-3a" transform="translate(45.690477 0) scale(0.996264)"/>
       <use xlink:href="#CMR17-30" transform="translate(72.787654 0) scale(0.996264)"/>
      </g>
     </g>
    </g>
    <g id="xtick_2">
     <g id="line2d_2">
      <g>
       <use xlink:href="#m988050132a" x="269.977436" y="678.237256" style="fill: #262626; stroke: #262626; stroke-width: 0.8"/>
      </g>
     </g>
     <g id="text_2">
      <!-- $\mathdefault{0.2}$ -->
      <g style="fill: #262626" transform="translate(248.651373 710.143856) scale(0.36 -0.36)">
       <defs>
        <path id="CMR17-32" d="M 2669 989 
L 2554 989 
C 2490 536 2438 459 2413 420 
C 2381 369 1920 369 1830 369 
L 602 369 
C 832 619 1280 1072 1824 1597 
C 2214 1967 2669 2402 2669 3035 
C 2669 3790 2067 4224 1395 4224 
C 691 4224 262 3604 262 3030 
C 262 2780 448 2748 525 2748 
C 589 2748 781 2787 781 3010 
C 781 3207 614 3264 525 3264 
C 486 3264 448 3258 422 3245 
C 544 3790 915 4058 1306 4058 
C 1862 4058 2227 3617 2227 3035 
C 2227 2479 1901 2000 1536 1584 
L 262 146 
L 262 0 
L 2515 0 
L 2669 989 
z
" transform="scale(0.015625)"/>
       </defs>
       <use xlink:href="#CMR17-30" transform="scale(0.996264)"/>
       <use xlink:href="#CMMI12-3a" transform="translate(45.690477 0) scale(0.996264)"/>
       <use xlink:href="#CMR17-32" transform="translate(72.787654 0) scale(0.996264)"/>
      </g>
     </g>
    </g>
    <g id="xtick_3">
     <g id="line2d_3">
      <g>
       <use xlink:href="#m988050132a" x="451.422745" y="678.237256" style="fill: #262626; stroke: #262626; stroke-width: 0.8"/>
      </g>
     </g>
     <g id="text_3">
      <!-- $\mathdefault{0.4}$ -->
      <g style="fill: #262626" transform="translate(430.096682 710.143856) scale(0.36 -0.36)">
       <defs>
        <path id="CMR17-34" d="M 2150 4122 
C 2150 4256 2144 4256 2029 4256 
L 128 1254 
L 128 1088 
L 1779 1088 
L 1779 457 
C 1779 224 1766 160 1318 160 
L 1197 160 
L 1197 0 
C 1402 0 1747 0 1965 0 
C 2182 0 2528 0 2733 0 
L 2733 160 
L 2611 160 
C 2163 160 2150 224 2150 457 
L 2150 1088 
L 2803 1088 
L 2803 1254 
L 2150 1254 
L 2150 4122 
z
M 1798 3703 
L 1798 1254 
L 256 1254 
L 1798 3703 
z
" transform="scale(0.015625)"/>
       </defs>
       <use xlink:href="#CMR17-30" transform="scale(0.996264)"/>
       <use xlink:href="#CMMI12-3a" transform="translate(45.690477 0) scale(0.996264)"/>
       <use xlink:href="#CMR17-34" transform="translate(72.787654 0) scale(0.996264)"/>
      </g>
     </g>
    </g>
    <g id="xtick_4">
     <g id="line2d_4">
      <g>
       <use xlink:href="#m988050132a" x="632.868055" y="678.237256" style="fill: #262626; stroke: #262626; stroke-width: 0.8"/>
      </g>
     </g>
     <g id="text_4">
      <!-- $\mathdefault{0.6}$ -->
      <g style="fill: #262626" transform="translate(611.541991 710.143856) scale(0.36 -0.36)">
       <defs>
        <path id="CMR17-36" d="M 678 2176 
C 678 3690 1395 4032 1811 4032 
C 1946 4032 2272 4009 2400 3776 
C 2298 3776 2106 3776 2106 3553 
C 2106 3381 2246 3323 2336 3323 
C 2394 3323 2566 3348 2566 3560 
C 2566 3954 2246 4179 1805 4179 
C 1043 4179 243 3390 243 1984 
C 243 253 966 -128 1478 -128 
C 2099 -128 2688 427 2688 1283 
C 2688 2081 2170 2662 1517 2662 
C 1126 2662 838 2407 678 1960 
L 678 2176 
z
M 1478 25 
C 691 25 691 1200 691 1436 
C 691 1896 909 2560 1504 2560 
C 1613 2560 1926 2560 2138 2120 
C 2253 1870 2253 1609 2253 1289 
C 2253 944 2253 690 2118 434 
C 1978 171 1773 25 1478 25 
z
" transform="scale(0.015625)"/>
       </defs>
       <use xlink:href="#CMR17-30" transform="scale(0.996264)"/>
       <use xlink:href="#CMMI12-3a" transform="translate(45.690477 0) scale(0.996264)"/>
       <use xlink:href="#CMR17-36" transform="translate(72.787654 0) scale(0.996264)"/>
      </g>
     </g>
    </g>
    <g id="xtick_5">
     <g id="line2d_5">
      <g>
       <use xlink:href="#m988050132a" x="814.313364" y="678.237256" style="fill: #262626; stroke: #262626; stroke-width: 0.8"/>
      </g>
     </g>
     <g id="text_5">
      <!-- $\mathdefault{0.8}$ -->
      <g style="fill: #262626" transform="translate(792.9873 710.143856) scale(0.36 -0.36)">
       <defs>
        <path id="CMR17-38" d="M 1741 2264 
C 2144 2467 2554 2773 2554 3263 
C 2554 3841 1990 4179 1472 4179 
C 890 4179 378 3759 378 3180 
C 378 3021 416 2747 666 2505 
C 730 2442 998 2251 1171 2130 
C 883 1983 211 1634 211 934 
C 211 279 838 -128 1459 -128 
C 2144 -128 2720 362 2720 1010 
C 2720 1590 2330 1857 2074 2029 
L 1741 2264 
z
M 902 2822 
C 851 2854 595 3051 595 3351 
C 595 3739 998 4032 1459 4032 
C 1965 4032 2336 3676 2336 3262 
C 2336 2669 1670 2331 1638 2331 
C 1632 2331 1626 2331 1574 2370 
L 902 2822 
z
M 2080 1519 
C 2176 1449 2483 1240 2483 851 
C 2483 381 2010 25 1472 25 
C 890 25 448 438 448 940 
C 448 1443 838 1862 1280 2060 
L 2080 1519 
z
" transform="scale(0.015625)"/>
       </defs>
       <use xlink:href="#CMR17-30" transform="scale(0.996264)"/>
       <use xlink:href="#CMMI12-3a" transform="translate(45.690477 0) scale(0.996264)"/>
       <use xlink:href="#CMR17-38" transform="translate(72.787654 0) scale(0.996264)"/>
      </g>
     </g>
    </g>
    <g id="xtick_6">
     <g id="line2d_6">
      <g>
       <use xlink:href="#m988050132a" x="995.758673" y="678.237256" style="fill: #262626; stroke: #262626; stroke-width: 0.8"/>
      </g>
     </g>
     <g id="text_6">
      <!-- $\mathdefault{1.0}$ -->
      <g style="fill: #262626" transform="translate(974.432609 710.143856) scale(0.36 -0.36)">
       <defs>
        <path id="CMR17-31" d="M 1702 4058 
C 1702 4192 1696 4192 1606 4192 
C 1357 3916 979 3827 621 3827 
C 602 3827 570 3827 563 3808 
C 557 3795 557 3782 557 3648 
C 755 3648 1088 3686 1344 3839 
L 1344 461 
C 1344 236 1331 160 781 160 
L 589 160 
L 589 0 
C 896 0 1216 0 1523 0 
C 1830 0 2150 0 2458 0 
L 2458 160 
L 2266 160 
C 1715 160 1702 230 1702 458 
L 1702 4058 
z
" transform="scale(0.015625)"/>
       </defs>
       <use xlink:href="#CMR17-31" transform="scale(0.996264)"/>
       <use xlink:href="#CMMI12-3a" transform="translate(45.690477 0) scale(0.996264)"/>
       <use xlink:href="#CMR17-30" transform="translate(72.787654 0) scale(0.996264)"/>
      </g>
     </g>
    </g>
   </g>
   <g id="matplotlib.axis_2">
    <g id="ytick_1">
     <g id="line2d_7">
      <defs>
       <path id="m8b96043156" d="M 0 0 
L -3.5 0 
" style="stroke: #262626; stroke-width: 0.8"/>
      </defs>
      <g>
       <use xlink:href="#m8b96043156" x="88.532127" y="678.237256" style="fill: #262626; stroke: #262626; stroke-width: 0.8"/>
      </g>
     </g>
     <g id="text_7">
      <!-- $\mathdefault{0.0}$ -->
      <g style="fill: #262626" transform="translate(38.88 690.690556) scale(0.36 -0.36)">
       <use xlink:href="#CMR17-30" transform="scale(0.996264)"/>
       <use xlink:href="#CMMI12-3a" transform="translate(45.690477 0) scale(0.996264)"/>
       <use xlink:href="#CMR17-30" transform="translate(72.787654 0) scale(0.996264)"/>
      </g>
     </g>
    </g>
    <g id="ytick_2">
     <g id="line2d_8">
      <g>
       <use xlink:href="#m8b96043156" x="88.532127" y="678.139841" style="fill: #262626; stroke: #262626; stroke-width: 0.8"/>
      </g>
     </g>
     <g id="text_8">
      <!-- $\mathdefault{0.2}$ -->
      <g style="fill: #262626" transform="translate(38.88 690.593141) scale(0.36 -0.36)">
       <use xlink:href="#CMR17-30" transform="scale(0.996264)"/>
       <use xlink:href="#CMMI12-3a" transform="translate(45.690477 0) scale(0.996264)"/>
       <use xlink:href="#CMR17-32" transform="translate(72.787654 0) scale(0.996264)"/>
      </g>
     </g>
    </g>
    <g id="ytick_3">
     <g id="line2d_9">
      <g>
       <use xlink:href="#m8b96043156" x="88.532127" y="678.042425" style="fill: #262626; stroke: #262626; stroke-width: 0.8"/>
      </g>
     </g>
     <g id="text_9">
      <!-- $\mathdefault{0.4}$ -->
      <g style="fill: #262626" transform="translate(38.88 690.495725) scale(0.36 -0.36)">
       <use xlink:href="#CMR17-30" transform="scale(0.996264)"/>
       <use xlink:href="#CMMI12-3a" transform="translate(45.690477 0) scale(0.996264)"/>
       <use xlink:href="#CMR17-34" transform="translate(72.787654 0) scale(0.996264)"/>
      </g>
     </g>
    </g>
    <g id="ytick_4">
     <g id="line2d_10">
      <g>
       <use xlink:href="#m8b96043156" x="88.532127" y="677.94501" style="fill: #262626; stroke: #262626; stroke-width: 0.8"/>
      </g>
     </g>
     <g id="text_10">
      <!-- $\mathdefault{0.6}$ -->
      <g style="fill: #262626" transform="translate(38.88 690.39831) scale(0.36 -0.36)">
       <use xlink:href="#CMR17-30" transform="scale(0.996264)"/>
       <use xlink:href="#CMMI12-3a" transform="translate(45.690477 0) scale(0.996264)"/>
       <use xlink:href="#CMR17-36" transform="translate(72.787654 0) scale(0.996264)"/>
      </g>
     </g>
    </g>
    <g id="ytick_5">
     <g id="line2d_11">
      <g>
       <use xlink:href="#m8b96043156" x="88.532127" y="677.847595" style="fill: #262626; stroke: #262626; stroke-width: 0.8"/>
      </g>
     </g>
     <g id="text_11">
      <!-- $\mathdefault{0.8}$ -->
      <g style="fill: #262626" transform="translate(38.88 690.300895) scale(0.36 -0.36)">
       <use xlink:href="#CMR17-30" transform="scale(0.996264)"/>
       <use xlink:href="#CMMI12-3a" transform="translate(45.690477 0) scale(0.996264)"/>
       <use xlink:href="#CMR17-38" transform="translate(72.787654 0) scale(0.996264)"/>
      </g>
     </g>
    </g>
    <g id="ytick_6">
     <g id="line2d_12">
      <g>
       <use xlink:href="#m8b96043156" x="88.532127" y="677.750179" style="fill: #262626; stroke: #262626; stroke-width: 0.8"/>
      </g>
     </g>
     <g id="text_12">
      <!-- $\mathdefault{1.0}$ -->
      <g style="fill: #262626" transform="translate(38.88 690.203479) scale(0.36 -0.36)">
       <use xlink:href="#CMR17-31" transform="scale(0.996264)"/>
       <use xlink:href="#CMMI12-3a" transform="translate(45.690477 0) scale(0.996264)"/>
       <use xlink:href="#CMR17-30" transform="translate(72.787654 0) scale(0.996264)"/>
      </g>
     </g>
    </g>
    <g id="ytick_7">
     <g id="line2d_13">
      <g>
       <use xlink:href="#m8b96043156" x="88.532127" y="677.652764" style="fill: #262626; stroke: #262626; stroke-width: 0.8"/>
      </g>
     </g>
     <g id="text_13">
      <!-- $\mathdefault{1.2}$ -->
      <g style="fill: #262626" transform="translate(38.88 690.106064) scale(0.36 -0.36)">
       <use xlink:href="#CMR17-31" transform="scale(0.996264)"/>
       <use xlink:href="#CMMI12-3a" transform="translate(45.690477 0) scale(0.996264)"/>
       <use xlink:href="#CMR17-32" transform="translate(72.787654 0) scale(0.996264)"/>
      </g>
     </g>
    </g>
   </g>
   <g id="line2d_14">
    <path d="M 88.532127 678.237256 
L 995.758673 678.237256 
L 995.758673 678.237256 
" clip-path="url(#p58d753810c)" style="fill: none; stroke: #1f77b4; stroke-width: 5; stroke-linecap: round"/>
   </g>
   <g id="line2d_15">
    <path d="M 88.532127 628.373875 
L 306.266498 631.383468 
L 536.097223 634.330852 
L 771.976125 637.133011 
L 995.758673 639.601451 
L 995.758673 639.601451 
" clip-path="url(#p58d753810c)" style="fill: none; stroke: #ff7f0e; stroke-width: 5; stroke-linecap: round"/>
   </g>
   <g id="line2d_16">
    <path d="M 88.532127 576.339956 
L 209.495667 580.36896 
L 336.507383 584.377293 
L 469.567276 588.349985 
L 608.675347 592.273606 
L 753.831594 596.136284 
L 905.036018 599.927571 
L 995.758673 602.096128 
L 995.758673 602.096128 
" clip-path="url(#p58d753810c)" style="fill: none; stroke: #2ca02c; stroke-width: 5; stroke-linecap: round"/>
   </g>
   <g id="line2d_17">
    <path d="M 88.532127 522.049785 
L 173.206605 527.08569 
L 257.881082 531.895251 
L 348.603737 536.813226 
L 439.326392 541.503462 
L 536.097223 546.271749 
L 632.868055 550.813627 
L 735.687063 555.407761 
L 838.506072 559.77909 
L 947.373257 564.181061 
L 995.758673 566.066841 
L 995.758673 566.066841 
" clip-path="url(#p58d753810c)" style="fill: none; stroke: #d62728; stroke-width: 5; stroke-linecap: round"/>
   </g>
   <g id="line2d_18">
    <path d="M 88.532127 465.380325 
L 149.013897 471.022666 
L 209.495667 476.444982 
L 269.977436 481.659474 
L 336.507383 487.168771 
L 403.03733 492.454106 
L 469.567276 497.52829 
L 542.1454 502.83689 
L 614.723524 507.922576 
L 693.349824 513.195693 
L 771.976125 518.237923 
L 850.602425 523.063369 
L 935.276903 528.032436 
L 995.758673 531.445348 
L 995.758673 531.445348 
" clip-path="url(#p58d753810c)" style="fill: none; stroke: #9467bd; stroke-width: 5; stroke-linecap: round"/>
   </g>
   <g id="line2d_19">
    <path d="M 88.532127 406.232396 
L 136.917543 412.786182 
L 185.302959 419.098169 
L 233.688375 425.181169 
L 282.07379 431.047075 
L 330.459206 436.706962 
L 384.892799 442.840945 
L 439.326392 448.741029 
L 493.759984 454.419898 
L 548.193577 459.889346 
L 608.675347 465.73427 
L 669.157116 471.348238 
L 729.638886 476.744129 
L 796.168833 482.44209 
L 862.698779 487.905486 
L 929.228726 493.147915 
L 995.758673 498.181986 
L 995.758673 498.181986 
" clip-path="url(#p58d753810c)" style="fill: none; stroke: #8c564b; stroke-width: 5; stroke-linecap: round"/>
   </g>
   <g id="line2d_20">
    <path d="M 88.532127 344.485733 
L 124.821189 351.284717 
L 161.110251 357.864473 
L 197.399313 364.235164 
L 233.688375 370.406424 
L 276.025613 377.366223 
L 318.362852 384.080253 
L 360.700091 390.561095 
L 403.03733 396.82037 
L 445.374568 402.868995 
L 493.759984 409.536861 
L 542.1454 415.957082 
L 590.530816 422.142902 
L 638.916232 428.106548 
L 687.301647 433.859464 
L 741.73524 440.092859 
L 796.168833 446.087135 
L 850.602425 451.855372 
L 905.036018 457.409702 
L 965.517788 463.344028 
L 995.758673 466.221913 
L 995.758673 466.221913 
" clip-path="url(#p58d753810c)" style="fill: none; stroke: #e377c2; stroke-width: 5; stroke-linecap: round"/>
   </g>
   <g id="line2d_21">
    <path d="M 88.532127 280.048977 
L 118.773012 287.596969 
L 149.013897 294.912524 
L 179.254782 302.006023 
L 209.495667 308.887308 
L 239.736552 315.565663 
L 269.977436 322.049735 
L 306.266498 329.585759 
L 342.55556 336.867204 
L 378.844622 343.906556 
L 415.133684 350.715442 
L 451.422745 357.304842 
L 487.711807 363.684976 
L 524.000869 369.865452 
L 566.338108 376.8357 
L 608.675347 383.559909 
L 651.012585 390.050639 
L 693.349824 396.319517 
L 735.687063 402.377473 
L 778.024302 408.234733 
L 826.409718 414.69524 
L 874.795133 420.919378 
L 923.180549 426.919577 
L 971.565965 432.70736 
L 995.758673 435.524983 
L 995.758673 435.524983 
" clip-path="url(#p58d753810c)" style="fill: none; stroke: #7f7f7f; stroke-width: 5; stroke-linecap: round"/>
   </g>
   <g id="line2d_22">
    <path d="M 88.532127 212.81249 
L 112.724835 220.646782 
L 136.917543 228.262011 
L 161.110251 235.667189 
L 185.302959 242.870733 
L 209.495667 249.880734 
L 239.736552 258.382633 
L 269.977436 266.607927 
L 300.218321 274.569774 
L 330.459206 282.280477 
L 360.700091 289.751562 
L 390.940976 296.993859 
L 421.181861 304.017625 
L 451.422745 310.832395 
L 481.66363 317.447255 
L 517.952692 325.133191 
L 554.241754 332.557315 
L 590.530816 339.732606 
L 626.819878 346.671102 
L 663.108939 353.384129 
L 699.398001 359.882322 
L 735.687063 366.175613 
L 778.024302 373.271244 
L 820.361541 380.11456 
L 862.698779 386.718521 
L 905.036018 393.095129 
L 947.373257 399.255695 
L 989.710496 405.210766 
L 995.758673 406.04529 
L 995.758673 406.04529 
" clip-path="url(#p58d753810c)" style="fill: none; stroke: #bcbd22; stroke-width: 5; stroke-linecap: round"/>
   </g>
   <g id="line2d_23">
    <path d="M 88.532127 142.616877 
L 112.724835 152.536483 
L 136.917543 162.146073 
L 161.110251 171.459894 
L 185.302959 180.491213 
L 209.495667 189.25265 
L 233.688375 197.756031 
L 257.881082 206.012418 
L 282.07379 214.032411 
L 306.266498 221.825812 
L 330.459206 229.402067 
L 354.651914 236.769993 
L 378.844622 243.938007 
L 403.03733 250.914013 
L 433.278215 259.375403 
L 463.519099 267.5624 
L 493.759984 275.487963 
L 524.000869 283.164171 
L 554.241754 290.602512 
L 584.482639 297.813706 
L 614.723524 304.80787 
L 644.964408 311.594457 
L 675.205293 318.182471 
L 711.494355 325.837801 
L 747.783417 333.232993 
L 784.072479 340.380894 
L 820.361541 347.293453 
L 856.650602 353.981915 
L 892.939664 360.456755 
L 929.228726 366.727878 
L 971.565965 373.79902 
L 995.758673 377.726161 
L 995.758673 377.726161 
" clip-path="url(#p58d753810c)" style="fill: none; stroke: #17becf; stroke-width: 5; stroke-linecap: round"/>
   </g>
   <g id="line2d_24">
    <path d="M 88.532127 69.325584 
L 106.676658 78.626436 
L 124.821189 87.683318 
L 142.96572 96.505817 
L 161.110251 105.102774 
L 179.254782 113.482626 
L 197.399313 121.653517 
L 215.543844 129.623028 
L 233.688375 137.39857 
L 251.832905 144.987002 
L 276.025613 154.825348 
L 300.218321 164.357623 
L 324.411029 173.597864 
L 348.603737 182.55914 
L 372.796445 191.253757 
L 396.989153 199.693418 
L 421.181861 207.888974 
L 445.374568 215.85078 
L 469.567276 223.58862 
L 493.759984 231.1117 
L 517.952692 238.428702 
L 542.1454 245.547909 
L 566.338108 252.477149 
L 596.578993 260.882801 
L 626.819878 269.016816 
L 657.060762 276.891963 
L 687.301647 284.520195 
L 717.542532 291.912898 
L 747.783417 299.08052 
L 778.024302 306.033132 
L 808.265187 312.78006 
L 838.506072 319.330189 
L 874.795133 326.942261 
L 911.084195 334.29646 
L 947.373257 341.405392 
L 983.662319 348.28096 
L 995.758673 350.522899 
L 995.758673 350.522899 
" clip-path="url(#p58d753810c)" style="fill: none; stroke: #17becf; stroke-width: 5; stroke-linecap: round"/>
   </g>
   <g id="patch_3">
    <path d="M 88.532127 678.237256 
L 88.532127 38.88 
" style="fill: none; stroke: #262626; stroke-width: 0.8; stroke-linejoin: miter; stroke-linecap: square"/>
   </g>
   <g id="patch_4">
    <path d="M 88.532127 678.237256 
L 1041.12 678.237256 
" style="fill: none; stroke: #262626; stroke-width: 0.8; stroke-linejoin: miter; stroke-linecap: square"/>
   </g>
  </g>
 </g>
 <defs>
  <clipPath id="p58d753810c">
   <rect x="88.532127" y="38.88" width="952.587873" height="639.357256"/>
  </clipPath>
 </defs>
</svg>
