<?xml version="1.0" encoding="utf-8" standalone="no"?>
<!DOCTYPE svg PUBLIC "-//W3C//DTD SVG 1.1//EN"
  "http://www.w3.org/Graphics/SVG/1.1/DTD/svg11.dtd">
<svg xmlns:xlink="http://www.w3.org/1999/xlink" width="1080pt" height="576pt" viewBox="0 0 1080 576" xmlns="http://www.w3.org/2000/svg" version="1.1">
 <metadata>
  <rdf:RDF xmlns:dc="http://purl.org/dc/elements/1.1/" xmlns:cc="http://creativecommons.org/ns#" xmlns:rdf="http://www.w3.org/1999/02/22-rdf-syntax-ns#">
   <cc:Work>
    <dc:type rdf:resource="http://purl.org/dc/dcmitype/StillImage"/>
    <dc:date>2024-06-17T11:14:28.916785</dc:date>
    <dc:format>image/svg+xml</dc:format>
    <dc:creator>
     <cc:Agent>
      <dc:title>Matplotlib v3.9.0, https://matplotlib.org/</dc:title>
     </cc:Agent>
    </dc:creator>
   </cc:Work>
  </rdf:RDF>
 </metadata>
 <defs>
  <style type="text/css">*{stroke-linejoin: round; stroke-linecap: butt}</style>
 </defs>
 <g id="figure_1">
  <g id="patch_1">
   <path d="M 0 576 
L 1080 576 
L 1080 0 
L 0 0 
z
" style="fill: #ffffff"/>
  </g>
  <g id="axes_1">
   <g id="patch_2">
    <path d="M 44.765466 521.153031 
L 1062.72 521.153031 
L 1062.72 17.28 
L 44.765466 17.28 
z
" style="fill: #eaeaf2"/>
   </g>
   <g id="matplotlib.axis_1">
    <g id="xtick_1">
     <g id="line2d_1">
      <path d="M 44.765466 521.153031 
L 44.765466 17.28 
" clip-path="url(#p1c5850fac5)" style="fill: none; stroke: #ffffff; stroke-linecap: round"/>
     </g>
     <g id="line2d_2"/>
     <g id="text_1">
      <!-- $\mathdefault{0.0}$ -->
      <g style="fill: #262626" transform="translate(36.040175 537.838907) scale(0.14 -0.14)">
       <defs>
        <path id="CMR17-30" d="M 2688 2025 
C 2688 2416 2682 3080 2413 3591 
C 2176 4039 1798 4198 1466 4198 
C 1158 4198 768 4058 525 3597 
C 269 3118 243 2524 243 2025 
C 243 1661 250 1106 448 619 
C 723 -39 1216 -128 1466 -128 
C 1760 -128 2208 -7 2470 600 
C 2662 1042 2688 1559 2688 2025 
z
M 1466 -26 
C 1056 -26 813 325 723 812 
C 653 1188 653 1738 653 2096 
C 653 2588 653 2997 736 3387 
C 858 3929 1216 4096 1466 4096 
C 1728 4096 2067 3923 2189 3400 
C 2272 3036 2278 2607 2278 2096 
C 2278 1680 2278 1169 2202 792 
C 2067 95 1690 -26 1466 -26 
z
" transform="scale(0.015625)"/>
        <path id="CMMI12-3a" d="M 1178 307 
C 1178 492 1024 619 870 619 
C 685 619 557 466 557 313 
C 557 128 710 0 864 0 
C 1050 0 1178 153 1178 307 
z
" transform="scale(0.015625)"/>
       </defs>
       <use xlink:href="#CMR17-30" transform="scale(0.996264)"/>
       <use xlink:href="#CMMI12-3a" transform="translate(45.690477 0) scale(0.996264)"/>
       <use xlink:href="#CMR17-30" transform="translate(72.787654 0) scale(0.996264)"/>
      </g>
     </g>
    </g>
    <g id="xtick_2">
     <g id="line2d_3">
      <path d="M 238.661568 521.153031 
L 238.661568 17.28 
" clip-path="url(#p1c5850fac5)" style="fill: none; stroke: #ffffff; stroke-linecap: round"/>
     </g>
     <g id="line2d_4"/>
     <g id="text_2">
      <!-- $\mathdefault{0.2}$ -->
      <g style="fill: #262626" transform="translate(229.936277 537.838907) scale(0.14 -0.14)">
       <defs>
        <path id="CMR17-32" d="M 2669 989 
L 2554 989 
C 2490 536 2438 459 2413 420 
C 2381 369 1920 369 1830 369 
L 602 369 
C 832 619 1280 1072 1824 1597 
C 2214 1967 2669 2402 2669 3035 
C 2669 3790 2067 4224 1395 4224 
C 691 4224 262 3604 262 3030 
C 262 2780 448 2748 525 2748 
C 589 2748 781 2787 781 3010 
C 781 3207 614 3264 525 3264 
C 486 3264 448 3258 422 3245 
C 544 3790 915 4058 1306 4058 
C 1862 4058 2227 3617 2227 3035 
C 2227 2479 1901 2000 1536 1584 
L 262 146 
L 262 0 
L 2515 0 
L 2669 989 
z
" transform="scale(0.015625)"/>
       </defs>
       <use xlink:href="#CMR17-30" transform="scale(0.996264)"/>
       <use xlink:href="#CMMI12-3a" transform="translate(45.690477 0) scale(0.996264)"/>
       <use xlink:href="#CMR17-32" transform="translate(72.787654 0) scale(0.996264)"/>
      </g>
     </g>
    </g>
    <g id="xtick_3">
     <g id="line2d_5">
      <path d="M 432.557669 521.153031 
L 432.557669 17.28 
" clip-path="url(#p1c5850fac5)" style="fill: none; stroke: #ffffff; stroke-linecap: round"/>
     </g>
     <g id="line2d_6"/>
     <g id="text_3">
      <!-- $\mathdefault{0.4}$ -->
      <g style="fill: #262626" transform="translate(423.832378 537.838907) scale(0.14 -0.14)">
       <defs>
        <path id="CMR17-34" d="M 2150 4122 
C 2150 4256 2144 4256 2029 4256 
L 128 1254 
L 128 1088 
L 1779 1088 
L 1779 457 
C 1779 224 1766 160 1318 160 
L 1197 160 
L 1197 0 
C 1402 0 1747 0 1965 0 
C 2182 0 2528 0 2733 0 
L 2733 160 
L 2611 160 
C 2163 160 2150 224 2150 457 
L 2150 1088 
L 2803 1088 
L 2803 1254 
L 2150 1254 
L 2150 4122 
z
M 1798 3703 
L 1798 1254 
L 256 1254 
L 1798 3703 
z
" transform="scale(0.015625)"/>
       </defs>
       <use xlink:href="#CMR17-30" transform="scale(0.996264)"/>
       <use xlink:href="#CMMI12-3a" transform="translate(45.690477 0) scale(0.996264)"/>
       <use xlink:href="#CMR17-34" transform="translate(72.787654 0) scale(0.996264)"/>
      </g>
     </g>
    </g>
    <g id="xtick_4">
     <g id="line2d_7">
      <path d="M 626.453771 521.153031 
L 626.453771 17.28 
" clip-path="url(#p1c5850fac5)" style="fill: none; stroke: #ffffff; stroke-linecap: round"/>
     </g>
     <g id="line2d_8"/>
     <g id="text_4">
      <!-- $\mathdefault{0.6}$ -->
      <g style="fill: #262626" transform="translate(617.72848 537.838907) scale(0.14 -0.14)">
       <defs>
        <path id="CMR17-36" d="M 678 2176 
C 678 3690 1395 4032 1811 4032 
C 1946 4032 2272 4009 2400 3776 
C 2298 3776 2106 3776 2106 3553 
C 2106 3381 2246 3323 2336 3323 
C 2394 3323 2566 3348 2566 3560 
C 2566 3954 2246 4179 1805 4179 
C 1043 4179 243 3390 243 1984 
C 243 253 966 -128 1478 -128 
C 2099 -128 2688 427 2688 1283 
C 2688 2081 2170 2662 1517 2662 
C 1126 2662 838 2407 678 1960 
L 678 2176 
z
M 1478 25 
C 691 25 691 1200 691 1436 
C 691 1896 909 2560 1504 2560 
C 1613 2560 1926 2560 2138 2120 
C 2253 1870 2253 1609 2253 1289 
C 2253 944 2253 690 2118 434 
C 1978 171 1773 25 1478 25 
z
" transform="scale(0.015625)"/>
       </defs>
       <use xlink:href="#CMR17-30" transform="scale(0.996264)"/>
       <use xlink:href="#CMMI12-3a" transform="translate(45.690477 0) scale(0.996264)"/>
       <use xlink:href="#CMR17-36" transform="translate(72.787654 0) scale(0.996264)"/>
      </g>
     </g>
    </g>
    <g id="xtick_5">
     <g id="line2d_9">
      <path d="M 820.349873 521.153031 
L 820.349873 17.28 
" clip-path="url(#p1c5850fac5)" style="fill: none; stroke: #ffffff; stroke-linecap: round"/>
     </g>
     <g id="line2d_10"/>
     <g id="text_5">
      <!-- $\mathdefault{0.8}$ -->
      <g style="fill: #262626" transform="translate(811.624582 537.838907) scale(0.14 -0.14)">
       <defs>
        <path id="CMR17-38" d="M 1741 2264 
C 2144 2467 2554 2773 2554 3263 
C 2554 3841 1990 4179 1472 4179 
C 890 4179 378 3759 378 3180 
C 378 3021 416 2747 666 2505 
C 730 2442 998 2251 1171 2130 
C 883 1983 211 1634 211 934 
C 211 279 838 -128 1459 -128 
C 2144 -128 2720 362 2720 1010 
C 2720 1590 2330 1857 2074 2029 
L 1741 2264 
z
M 902 2822 
C 851 2854 595 3051 595 3351 
C 595 3739 998 4032 1459 4032 
C 1965 4032 2336 3676 2336 3262 
C 2336 2669 1670 2331 1638 2331 
C 1632 2331 1626 2331 1574 2370 
L 902 2822 
z
M 2080 1519 
C 2176 1449 2483 1240 2483 851 
C 2483 381 2010 25 1472 25 
C 890 25 448 438 448 940 
C 448 1443 838 1862 1280 2060 
L 2080 1519 
z
" transform="scale(0.015625)"/>
       </defs>
       <use xlink:href="#CMR17-30" transform="scale(0.996264)"/>
       <use xlink:href="#CMMI12-3a" transform="translate(45.690477 0) scale(0.996264)"/>
       <use xlink:href="#CMR17-38" transform="translate(72.787654 0) scale(0.996264)"/>
      </g>
     </g>
    </g>
    <g id="xtick_6">
     <g id="line2d_11">
      <path d="M 1014.245975 521.153031 
L 1014.245975 17.28 
" clip-path="url(#p1c5850fac5)" style="fill: none; stroke: #ffffff; stroke-linecap: round"/>
     </g>
     <g id="line2d_12"/>
     <g id="text_6">
      <!-- $\mathdefault{1.0}$ -->
      <g style="fill: #262626" transform="translate(1005.520684 537.838907) scale(0.14 -0.14)">
       <defs>
        <path id="CMR17-31" d="M 1702 4058 
C 1702 4192 1696 4192 1606 4192 
C 1357 3916 979 3827 621 3827 
C 602 3827 570 3827 563 3808 
C 557 3795 557 3782 557 3648 
C 755 3648 1088 3686 1344 3839 
L 1344 461 
C 1344 236 1331 160 781 160 
L 589 160 
L 589 0 
C 896 0 1216 0 1523 0 
C 1830 0 2150 0 2458 0 
L 2458 160 
L 2266 160 
C 1715 160 1702 230 1702 458 
L 1702 4058 
z
" transform="scale(0.015625)"/>
       </defs>
       <use xlink:href="#CMR17-31" transform="scale(0.996264)"/>
       <use xlink:href="#CMMI12-3a" transform="translate(45.690477 0) scale(0.996264)"/>
       <use xlink:href="#CMR17-30" transform="translate(72.787654 0) scale(0.996264)"/>
      </g>
     </g>
    </g>
    <g id="text_7">
     <!-- $x$ -->
     <g style="fill: #262626" transform="translate(549.308008 555.620524) scale(0.16 -0.16)">
      <defs>
       <path id="CMMI12-78" d="M 3034 2606 
C 2829 2567 2752 2414 2752 2293 
C 2752 2139 2874 2088 2963 2088 
C 3155 2088 3290 2254 3290 2427 
C 3290 2695 2982 2816 2714 2816 
C 2323 2816 2106 2433 2048 2312 
C 1901 2816 1504 2816 1389 2816 
C 736 2816 390 1980 390 1839 
C 390 1814 416 1782 461 1782 
C 512 1782 525 1820 538 1846 
C 755 2555 1184 2689 1370 2689 
C 1658 2689 1715 2420 1715 2267 
C 1715 2127 1677 1980 1600 1673 
L 1382 798 
C 1286 415 1101 64 762 64 
C 730 64 570 64 435 147 
C 666 192 717 383 717 460 
C 717 588 621 664 499 664 
C 346 664 179 530 179 326 
C 179 57 480 -64 755 -64 
C 1062 -64 1280 179 1414 441 
C 1517 64 1837 -64 2074 -64 
C 2726 -64 3072 773 3072 913 
C 3072 945 3046 971 3008 971 
C 2950 971 2944 939 2925 888 
C 2752 326 2381 64 2093 64 
C 1869 64 1747 230 1747 492 
C 1747 632 1773 734 1875 1156 
L 2099 2024 
C 2195 2408 2413 2689 2707 2689 
C 2720 2689 2899 2689 3034 2606 
z
" transform="scale(0.015625)"/>
      </defs>
      <use xlink:href="#CMMI12-78" transform="scale(0.996264)"/>
     </g>
    </g>
   </g>
   <g id="matplotlib.axis_2">
    <g id="ytick_1">
     <g id="line2d_13">
      <path d="M 44.765466 521.153031 
L 1062.72 521.153031 
" clip-path="url(#p1c5850fac5)" style="fill: none; stroke: #ffffff; stroke-linecap: round"/>
     </g>
     <g id="line2d_14"/>
     <g id="text_8">
      <!-- $\mathdefault{0}$ -->
      <g style="fill: #262626" transform="translate(30.936977 525.995969) scale(0.14 -0.14)">
       <use xlink:href="#CMR17-30" transform="scale(0.996264)"/>
      </g>
     </g>
    </g>
    <g id="ytick_2">
     <g id="line2d_15">
      <path d="M 44.765466 444.16782 
L 1062.72 444.16782 
" clip-path="url(#p1c5850fac5)" style="fill: none; stroke: #ffffff; stroke-linecap: round"/>
     </g>
     <g id="line2d_16"/>
     <g id="text_9">
      <!-- $\mathdefault{50}$ -->
      <g style="fill: #262626" transform="translate(24.108489 449.010758) scale(0.14 -0.14)">
       <defs>
        <path id="CMR17-35" d="M 730 3692 
C 794 3666 1056 3584 1325 3584 
C 1920 3584 2246 3911 2432 4100 
C 2432 4157 2432 4192 2394 4192 
C 2387 4192 2374 4192 2323 4163 
C 2099 4058 1837 3973 1517 3973 
C 1325 3973 1037 3999 723 4139 
C 653 4171 640 4171 634 4171 
C 602 4171 595 4164 595 4037 
L 595 2203 
C 595 2089 595 2057 659 2057 
C 691 2057 704 2070 736 2114 
C 941 2401 1222 2522 1542 2522 
C 1766 2522 2246 2382 2246 1289 
C 2246 1085 2246 715 2054 421 
C 1894 159 1645 25 1370 25 
C 947 25 518 320 403 814 
C 429 807 480 795 506 795 
C 589 795 749 840 749 1038 
C 749 1210 627 1280 506 1280 
C 358 1280 262 1190 262 1011 
C 262 454 704 -128 1382 -128 
C 2042 -128 2669 440 2669 1264 
C 2669 2030 2170 2624 1549 2624 
C 1222 2624 947 2503 730 2274 
L 730 3692 
z
" transform="scale(0.015625)"/>
       </defs>
       <use xlink:href="#CMR17-35" transform="scale(0.996264)"/>
       <use xlink:href="#CMR17-30" transform="translate(45.690477 0) scale(0.996264)"/>
      </g>
     </g>
    </g>
    <g id="ytick_3">
     <g id="line2d_17">
      <path d="M 44.765466 367.18261 
L 1062.72 367.18261 
" clip-path="url(#p1c5850fac5)" style="fill: none; stroke: #ffffff; stroke-linecap: round"/>
     </g>
     <g id="line2d_18"/>
     <g id="text_10">
      <!-- $\mathdefault{100}$ -->
      <g style="fill: #262626" transform="translate(17.28 372.025548) scale(0.14 -0.14)">
       <use xlink:href="#CMR17-31" transform="scale(0.996264)"/>
       <use xlink:href="#CMR17-30" transform="translate(45.690477 0) scale(0.996264)"/>
       <use xlink:href="#CMR17-30" transform="translate(91.380954 0) scale(0.996264)"/>
      </g>
     </g>
    </g>
    <g id="ytick_4">
     <g id="line2d_19">
      <path d="M 44.765466 290.197399 
L 1062.72 290.197399 
" clip-path="url(#p1c5850fac5)" style="fill: none; stroke: #ffffff; stroke-linecap: round"/>
     </g>
     <g id="line2d_20"/>
     <g id="text_11">
      <!-- $\mathdefault{150}$ -->
      <g style="fill: #262626" transform="translate(17.28 295.040337) scale(0.14 -0.14)">
       <use xlink:href="#CMR17-31" transform="scale(0.996264)"/>
       <use xlink:href="#CMR17-35" transform="translate(45.690477 0) scale(0.996264)"/>
       <use xlink:href="#CMR17-30" transform="translate(91.380954 0) scale(0.996264)"/>
      </g>
     </g>
    </g>
    <g id="ytick_5">
     <g id="line2d_21">
      <path d="M 44.765466 213.212189 
L 1062.72 213.212189 
" clip-path="url(#p1c5850fac5)" style="fill: none; stroke: #ffffff; stroke-linecap: round"/>
     </g>
     <g id="line2d_22"/>
     <g id="text_12">
      <!-- $\mathdefault{200}$ -->
      <g style="fill: #262626" transform="translate(17.28 218.055127) scale(0.14 -0.14)">
       <use xlink:href="#CMR17-32" transform="scale(0.996264)"/>
       <use xlink:href="#CMR17-30" transform="translate(45.690477 0) scale(0.996264)"/>
       <use xlink:href="#CMR17-30" transform="translate(91.380954 0) scale(0.996264)"/>
      </g>
     </g>
    </g>
    <g id="ytick_6">
     <g id="line2d_23">
      <path d="M 44.765466 136.226978 
L 1062.72 136.226978 
" clip-path="url(#p1c5850fac5)" style="fill: none; stroke: #ffffff; stroke-linecap: round"/>
     </g>
     <g id="line2d_24"/>
     <g id="text_13">
      <!-- $\mathdefault{250}$ -->
      <g style="fill: #262626" transform="translate(17.28 141.069916) scale(0.14 -0.14)">
       <use xlink:href="#CMR17-32" transform="scale(0.996264)"/>
       <use xlink:href="#CMR17-35" transform="translate(45.690477 0) scale(0.996264)"/>
       <use xlink:href="#CMR17-30" transform="translate(91.380954 0) scale(0.996264)"/>
      </g>
     </g>
    </g>
    <g id="ytick_7">
     <g id="line2d_25">
      <path d="M 44.765466 59.241768 
L 1062.72 59.241768 
" clip-path="url(#p1c5850fac5)" style="fill: none; stroke: #ffffff; stroke-linecap: round"/>
     </g>
     <g id="line2d_26"/>
     <g id="text_14">
      <!-- $\mathdefault{300}$ -->
      <g style="fill: #262626" transform="translate(17.28 64.084706) scale(0.14 -0.14)">
       <defs>
        <path id="CMR17-33" d="M 1414 2157 
C 1984 2157 2234 1662 2234 1090 
C 2234 320 1824 25 1453 25 
C 1114 25 563 194 390 693 
C 422 680 454 680 486 680 
C 640 680 755 782 755 948 
C 755 1133 614 1216 486 1216 
C 378 1216 211 1165 211 926 
C 211 335 787 -128 1466 -128 
C 2176 -128 2720 430 2720 1085 
C 2720 1707 2208 2157 1600 2227 
C 2086 2328 2554 2756 2554 3329 
C 2554 3820 2048 4179 1472 4179 
C 890 4179 378 3829 378 3329 
C 378 3110 544 3072 627 3072 
C 762 3072 877 3155 877 3321 
C 877 3486 762 3569 627 3569 
C 602 3569 570 3569 544 3557 
C 730 3959 1235 4032 1459 4032 
C 1683 4032 2106 3925 2106 3320 
C 2106 3143 2080 2828 1862 2550 
C 1670 2304 1453 2304 1242 2284 
C 1210 2284 1062 2269 1037 2269 
C 992 2263 966 2257 966 2208 
C 966 2163 973 2157 1101 2157 
L 1414 2157 
z
" transform="scale(0.015625)"/>
       </defs>
       <use xlink:href="#CMR17-33" transform="scale(0.996264)"/>
       <use xlink:href="#CMR17-30" transform="translate(45.690477 0) scale(0.996264)"/>
       <use xlink:href="#CMR17-30" transform="translate(91.380954 0) scale(0.996264)"/>
      </g>
     </g>
    </g>
   </g>
   <g id="line2d_27">
    <path d="M 44.765466 521.153031 
L 64.155076 521.153031 
L 83.544686 521.153031 
L 102.934296 521.153031 
L 122.323907 521.153031 
L 141.713517 521.153031 
L 161.103127 521.153031 
L 180.492737 521.153031 
L 199.882347 521.153031 
L 219.271957 521.153031 
L 238.661568 521.153031 
L 258.051178 521.153031 
L 277.440788 521.153031 
L 296.830398 521.153031 
L 316.220008 521.153031 
L 335.609618 521.153031 
L 354.999229 521.153031 
L 374.388839 521.153031 
L 393.778449 521.153031 
L 413.168059 521.153031 
L 432.557669 521.153031 
L 451.94728 521.153031 
L 471.33689 521.153031 
L 490.7265 521.153031 
L 510.11611 521.153031 
L 529.50572 521.153031 
L 548.89533 521.153031 
L 568.284941 521.153031 
L 587.674551 521.153031 
L 607.064161 521.153031 
L 626.453771 521.153031 
L 645.843381 521.153031 
L 665.232991 521.153031 
L 684.622602 521.153031 
L 704.012212 521.153031 
L 723.401822 521.153031 
L 742.791432 521.153031 
L 762.181042 521.153031 
L 781.570652 521.153031 
L 800.960263 521.153031 
L 820.349873 521.153031 
L 839.739483 521.153031 
L 859.129093 521.153031 
L 878.518703 521.153031 
L 897.908314 521.153031 
L 917.297924 521.153031 
L 936.687534 521.153031 
L 956.077144 521.153031 
L 975.466754 521.153031 
L 994.856364 521.153031 
L 1014.245975 521.153031 
" clip-path="url(#p1c5850fac5)" style="fill: none; stroke: #1f77b4; stroke-width: 2; stroke-linecap: round"/>
   </g>
   <g id="line2d_28">
    <path d="M 44.765466 454.439492 
L 64.155076 463.479758 
L 83.544686 471.320346 
L 102.934296 478.113531 
L 122.323907 483.994209 
L 141.713517 489.081303 
L 161.103127 493.479249 
L 180.492737 497.27952 
L 199.882347 500.56198 
L 219.271957 503.396161 
L 238.661568 505.842516 
L 258.051178 507.953537 
L 277.440788 509.77476 
L 296.830398 511.345645 
L 316.220008 512.70036 
L 335.609618 513.868473 
L 354.999229 514.875553 
L 374.388839 515.743698 
L 393.778449 516.492001 
L 413.168059 517.136949 
L 432.557669 517.692778 
L 451.94728 518.171769 
L 471.33689 518.584523 
L 490.7265 518.940181 
L 510.11611 519.246629 
L 529.50572 519.510667 
L 548.89533 519.738156 
L 568.284941 519.93415 
L 587.674551 520.103006 
L 607.064161 520.248479 
L 626.453771 520.373804 
L 645.843381 520.48177 
L 665.232991 520.574781 
L 684.622602 520.654907 
L 704.012212 520.723932 
L 723.401822 520.783394 
L 742.791432 520.834617 
L 762.181042 520.878743 
L 781.570652 520.916754 
L 800.960263 520.949499 
L 820.349873 520.977706 
L 839.739483 521.002004 
L 859.129093 521.022935 
L 878.518703 521.040965 
L 897.908314 521.056496 
L 917.297924 521.069876 
L 936.687534 521.081401 
L 956.077144 521.091328 
L 975.466754 521.09988 
L 994.856364 521.107247 
L 1014.245975 521.113592 
" clip-path="url(#p1c5850fac5)" style="fill: none; stroke: #1f77b4; stroke-width: 2; stroke-linecap: round"/>
   </g>
   <g id="line2d_29">
    <path d="M 44.765466 392.594271 
L 64.155076 409.544867 
L 83.544686 424.369299 
L 102.934296 437.303513 
L 122.323907 448.56643 
L 141.713517 458.358094 
L 161.103127 466.859215 
L 180.492737 474.231584 
L 199.882347 480.619057 
L 219.271957 486.148838 
L 238.661568 490.932916 
L 258.051178 495.069544 
L 277.440788 498.644722 
L 296.830398 501.733451 
L 316.220008 504.401013 
L 335.609618 506.704159 
L 354.999229 508.692161 
L 374.388839 510.407759 
L 393.778449 511.887995 
L 413.168059 513.164942 
L 432.557669 514.266361 
L 451.94728 515.216261 
L 471.33689 516.035397 
L 490.7265 516.741704 
L 510.11611 517.350674 
L 529.50572 517.875684 
L 548.89533 518.328283 
L 568.284941 518.718438 
L 587.674551 519.054748 
L 607.064161 519.344634 
L 626.453771 519.594495 
L 645.843381 519.809852 
L 665.232991 519.995464 
L 684.622602 520.155437 
L 704.012212 520.29331 
L 723.401822 520.412133 
L 742.791432 520.514538 
L 762.181042 520.602792 
L 781.570652 520.678849 
L 800.960263 520.744395 
L 820.349873 520.800882 
L 839.739483 520.849562 
L 859.129093 520.891513 
L 878.518703 520.927665 
L 897.908314 520.95882 
L 917.297924 520.985668 
L 936.687534 521.008805 
L 956.077144 521.028744 
L 975.466754 521.045926 
L 994.856364 521.060733 
L 1014.245975 521.073493 
" clip-path="url(#p1c5850fac5)" style="fill: none; stroke: #1f77b4; stroke-width: 2; stroke-linecap: round"/>
   </g>
   <g id="line2d_30">
    <path d="M 44.765466 335.337264 
L 64.155076 359.140541 
L 83.544686 380.151204 
L 102.934296 398.622755 
L 122.323907 414.80886 
L 141.713517 428.954131 
L 161.103127 441.288477 
L 180.492737 452.024023 
L 199.882347 461.353798 
L 219.271957 469.45162 
L 238.661568 476.472733 
L 258.051178 482.55491 
L 277.440788 487.819797 
L 296.830398 492.374362 
L 316.220008 496.312391 
L 335.609618 499.715887 
L 354.999229 502.656315 
L 374.388839 505.195856 
L 393.778449 507.388551 
L 413.168059 509.281307 
L 432.557669 510.914809 
L 451.94728 512.324307 
L 471.33689 513.540326 
L 490.7265 514.589279 
L 510.11611 515.494012 
L 529.50572 516.274274 
L 548.89533 516.947127 
L 568.284941 517.527314 
L 587.674551 518.027564 
L 607.064161 518.458864 
L 626.453771 518.830701 
L 645.843381 519.151258 
L 665.232991 519.427598 
L 684.622602 519.665811 
L 704.012212 519.871153 
L 723.401822 520.048156 
L 742.791432 520.200727 
L 762.181042 520.332236 
L 781.570652 520.44559 
L 800.960263 520.543293 
L 820.349873 520.627505 
L 839.739483 520.700088 
L 859.129093 520.762648 
L 878.518703 520.816569 
L 897.908314 520.863042 
L 917.297924 520.903098 
L 936.687534 520.937621 
L 956.077144 520.967375 
L 975.466754 520.99302 
L 994.856364 521.015123 
L 1014.245975 521.034173 
" clip-path="url(#p1c5850fac5)" style="fill: none; stroke: #1f77b4; stroke-width: 2; stroke-linecap: round"/>
   </g>
   <g id="line2d_31">
    <path d="M 44.765466 282.398072 
L 64.155076 312.041706 
L 83.544686 338.474069 
L 102.934296 361.905504 
L 122.323907 382.577768 
L 141.713517 400.744723 
L 161.103127 416.659017 
L 180.492737 430.563392 
L 199.882347 442.685409 
L 219.271957 453.234628 
L 238.661568 462.40148 
L 258.051178 470.357258 
L 277.440788 477.254827 
L 296.830398 483.229763 
L 316.220008 488.401713 
L 335.609618 492.875847 
L 354.999229 496.744358 
L 374.388839 500.087821 
L 393.778449 502.976444 
L 413.168059 505.471311 
L 432.557669 507.625499 
L 451.94728 509.485084 
L 471.33689 511.090021 
L 490.7265 512.47493 
L 510.11611 513.66979 
L 529.50572 514.700541 
L 548.89533 515.589619 
L 568.284941 516.356419 
L 587.674551 517.0177 
L 607.064161 517.587939 
L 626.453771 518.079639 
L 645.843381 518.503593 
L 665.232991 518.869117 
L 684.622602 519.18425 
L 704.012212 519.45593 
L 723.401822 519.690141 
L 742.791432 519.892046 
L 762.181042 520.066095 
L 781.570652 520.21613 
L 800.960263 520.345462 
L 820.349873 520.456945 
L 839.739483 520.553041 
L 859.129093 520.635874 
L 878.518703 520.707274 
L 897.908314 520.768817 
L 917.297924 520.821864 
L 936.687534 520.867588 
L 956.077144 520.907 
L 975.466754 520.94097 
L 994.856364 520.970251 
L 1014.245975 520.995488 
" clip-path="url(#p1c5850fac5)" style="fill: none; stroke: #1f77b4; stroke-width: 2; stroke-linecap: round"/>
   </g>
   <g id="line2d_32">
    <path d="M 44.765466 233.512606 
L 64.155076 268.042936 
L 83.544686 299.170931 
L 102.934296 327.01199 
L 122.323907 351.754084 
L 141.713517 373.627516 
L 161.103127 392.882507 
L 180.492737 409.773387 
L 199.882347 424.547994 
L 219.271957 437.441011 
L 238.661568 448.670156 
L 258.051178 458.434374 
L 277.440788 466.913382 
L 296.830398 474.268104 
L 316.220008 480.641639 
L 335.609618 486.160545 
L 354.999229 490.936254 
L 374.388839 495.066558 
L 393.778449 498.637062 
L 413.168059 501.722441 
L 432.557669 504.38771 
L 451.94728 506.689394 
L 471.33689 508.676584 
L 490.7265 510.39187 
L 510.11611 511.872173 
L 529.50572 513.14947 
L 548.89533 514.251442 
L 568.284941 515.202035 
L 587.674551 516.021957 
L 607.064161 516.729103 
L 626.453771 517.338936 
L 645.843381 517.864811 
L 665.232991 518.31826 
L 684.622602 518.709236 
L 704.012212 519.046333 
L 723.401822 519.336963 
L 742.791432 519.587523 
L 762.181042 519.803532 
L 781.570652 519.98975 
L 800.960263 520.150281 
L 820.349873 520.288666 
L 839.739483 520.40796 
L 859.129093 520.510793 
L 878.518703 520.599436 
L 897.908314 520.675847 
L 917.297924 520.741713 
L 936.687534 520.798489 
L 956.077144 520.847428 
L 975.466754 520.889613 
L 994.856364 520.925975 
L 1014.245975 520.957319 
" clip-path="url(#p1c5850fac5)" style="fill: none; stroke: #1f77b4; stroke-width: 2; stroke-linecap: round"/>
   </g>
   <g id="line2d_33">
    <path d="M 44.765466 188.424954 
L 64.155076 226.95549 
L 83.544686 262.095076 
L 102.934296 293.823241 
L 122.323907 322.238448 
L 141.713517 347.518007 
L 161.103127 369.886362 
L 180.492737 389.591368 
L 199.882347 406.887407 
L 219.271957 422.023958 
L 238.661568 435.238318 
L 258.051178 446.751347 
L 277.440788 456.765351 
L 296.830398 465.463431 
L 316.220008 473.009775 
L 335.609618 479.550558 
L 354.999229 485.215172 
L 374.388839 490.117636 
L 393.778449 494.35806 
L 413.168059 498.024127 
L 432.557669 501.192375 
L 451.94728 503.929455 
L 471.33689 506.29333 
L 490.7265 508.334355 
L 510.11611 510.09622 
L 529.50572 511.616808 
L 548.89533 512.928936 
L 568.284941 514.061013 
L 587.674551 515.037622 
L 607.064161 515.88002 
L 626.453771 516.60658 
L 645.843381 517.23318 
L 665.232991 517.773534 
L 684.622602 518.239483 
L 704.012212 518.641251 
L 723.401822 518.987664 
L 742.791432 519.286335 
L 762.181042 519.543836 
L 781.570652 519.765835 
L 800.960263 519.957222 
L 820.349873 520.122215 
L 839.739483 520.26445 
L 859.129093 520.387065 
L 878.518703 520.492765 
L 897.908314 520.583882 
L 917.297924 520.662427 
L 936.687534 520.730135 
L 956.077144 520.788499 
L 975.466754 520.83881 
L 994.856364 520.882177 
L 1014.245975 520.91956 
" clip-path="url(#p1c5850fac5)" style="fill: none; stroke: #1f77b4; stroke-width: 2; stroke-linecap: round"/>
   </g>
   <g id="line2d_34">
    <path d="M 44.765466 146.88852 
L 64.155076 188.604773 
L 83.544686 227.116142 
L 102.934296 262.236925 
L 122.323907 293.947268 
L 141.713517 322.346011 
L 161.103127 347.610654 
L 180.492737 369.965698 
L 199.882347 389.658969 
L 219.271957 406.94476 
L 238.661568 422.072432 
L 258.051178 435.279148 
L 277.440788 446.785631 
L 296.830398 456.794056 
L 316.220008 465.487398 
L 335.609618 473.029734 
L 354.999229 479.567134 
L 374.388839 485.228904 
L 393.778449 490.12898 
L 413.168059 494.367405 
L 432.557669 498.031804 
L 451.94728 501.198662 
L 471.33689 503.934585 
L 490.7265 506.297502 
L 510.11611 508.337732 
L 529.50572 510.098942 
L 548.89533 511.61899 
L 568.284941 512.930675 
L 587.674551 514.06239 
L 607.064161 515.038702 
L 626.453771 515.880859 
L 645.843381 516.607224 
L 665.232991 517.233667 
L 684.622602 517.773894 
L 704.012212 518.239742 
L 723.401822 518.641431 
L 742.791432 518.987781 
L 762.181042 519.286403 
L 781.570652 519.543866 
L 800.960263 519.765837 
L 820.349873 519.957203 
L 839.739483 520.12218 
L 859.129093 520.264404 
L 878.518703 520.387012 
L 897.908314 520.492708 
L 917.297924 520.583823 
L 936.687534 520.662367 
L 956.077144 520.730075 
L 975.466754 520.788442 
L 994.856364 520.838755 
L 1014.245975 520.882125 
" clip-path="url(#p1c5850fac5)" style="fill: none; stroke: #1f77b4; stroke-width: 2; stroke-linecap: round"/>
   </g>
   <g id="line2d_35">
    <path d="M 44.765466 108.666754 
L 64.155076 152.828279 
L 83.544686 194.117015 
L 102.934296 232.164064 
L 122.323907 266.809629 
L 141.713517 298.052894 
L 161.103127 326.005704 
L 180.492737 350.853678 
L 199.882347 372.825708 
L 219.271957 392.171306 
L 238.661568 409.144594 
L 258.051178 423.993545 
L 277.440788 436.9532 
L 296.830398 448.241765 
L 316.220008 458.058745 
L 335.609618 466.584445 
L 354.999229 473.98037 
L 374.388839 480.390182 
L 393.778449 485.940964 
L 413.168059 490.744639 
L 432.557669 494.899442 
L 451.94728 498.491383 
L 471.33689 501.595505 
L 490.7265 504.277146 
L 510.11611 506.593124 
L 529.50572 508.592786 
L 548.89533 510.318948 
L 568.284941 511.80873 
L 587.674551 513.094286 
L 607.064161 514.203451 
L 626.453771 515.160308 
L 645.843381 515.985681 
L 665.232991 516.697571 
L 684.622602 517.311532 
L 704.012212 517.840997 
L 723.401822 518.297567 
L 742.791432 518.691259 
L 762.181042 519.030715 
L 781.570652 519.323396 
L 800.960263 519.57574 
L 820.349873 519.793298 
L 839.739483 519.980862 
L 859.129093 520.142563 
L 878.518703 520.281965 
L 897.908314 520.402141 
L 917.297924 520.505741 
L 936.687534 520.59505 
L 956.077144 520.67204 
L 975.466754 520.738408 
L 994.856364 520.79562 
L 1014.245975 520.844938 
" clip-path="url(#p1c5850fac5)" style="fill: none; stroke: #1f77b4; stroke-width: 2; stroke-linecap: round"/>
   </g>
   <g id="line2d_36">
    <path d="M 44.765466 73.533639 
L 64.155076 119.473957 
L 83.544686 162.99138 
L 102.934296 203.526426 
L 122.323907 240.764836 
L 141.713517 274.589391 
L 161.103127 305.030192 
L 180.492737 332.219924 
L 199.882347 356.356979 
L 219.271957 377.676917 
L 238.661568 396.43154 
L 258.051178 412.87426 
L 277.440788 427.250405 
L 296.830398 439.791215 
L 316.220008 450.710501 
L 335.609618 460.203151 
L 354.999229 468.444889 
L 374.388839 475.592831 
L 393.778449 481.786535 
L 413.168059 487.149315 
L 432.557669 491.789676 
L 451.94728 495.802794 
L 471.33689 499.27194 
L 490.7265 502.269717 
L 510.11611 504.859322 
L 529.50572 507.095691 
L 548.89533 509.026527 
L 568.284941 510.693214 
L 587.674551 512.131618 
L 607.064161 513.372807 
L 626.453771 514.44367 
L 645.843381 515.367467 
L 665.232991 516.164313 
L 684.622602 516.851592 
L 704.012212 517.444321 
L 723.401822 517.955475 
L 742.791432 518.396253 
L 762.181042 518.776327 
L 781.570652 519.104042 
L 800.960263 519.3866 
L 820.349873 519.630216 
L 839.739483 519.840251 
L 859.129093 520.02133 
L 878.518703 520.17744 
L 897.908314 520.312024 
L 917.297924 520.428047 
L 936.687534 520.528067 
L 956.077144 520.614291 
L 975.466754 520.688622 
L 994.856364 520.752698 
L 1014.245975 520.807935 
" clip-path="url(#p1c5850fac5)" style="fill: none; stroke: #1f77b4; stroke-width: 2; stroke-linecap: round"/>
   </g>
   <g id="line2d_37">
    <path d="M 44.765466 41.273954 
L 64.155076 88.398912 
L 83.544686 133.641765 
L 102.934296 176.254452 
L 122.323907 215.760466 
L 141.713517 251.913867 
L 161.103127 284.649642 
L 180.492737 314.035078 
L 199.882347 340.227366 
L 219.271957 363.439414 
L 238.661568 383.913859 
L 258.051178 401.904302 
L 277.440788 417.662395 
L 296.830398 431.429449 
L 316.220008 443.431383 
L 335.609618 453.876047 
L 354.999229 462.952182 
L 374.388839 470.829477 
L 393.778449 477.659311 
L 413.168059 483.575905 
L 432.557669 488.697688 
L 451.94728 493.128747 
L 471.33689 496.960321 
L 490.7265 500.272141 
L 510.11611 503.133678 
L 529.50572 505.605377 
L 548.89533 507.739763 
L 568.284941 509.582432 
L 587.674551 511.172926 
L 607.064161 512.545511 
L 626.453771 513.729859 
L 645.843381 514.751647 
L 665.232991 515.633086 
L 684.622602 516.393378 
L 704.012212 517.049116 
L 723.401822 517.614636 
L 742.791432 518.102319 
L 762.181042 518.522855 
L 781.570652 518.885471 
L 800.960263 519.198132 
L 820.349873 519.46771 
L 839.739483 519.700135 
L 859.129093 519.900521 
L 878.518703 520.073281 
L 897.908314 520.222221 
L 917.297924 520.350622 
L 936.687534 520.461316 
L 956.077144 520.556743 
L 975.466754 520.639007 
L 994.856364 520.709925 
L 1014.245975 520.771059 
" clip-path="url(#p1c5850fac5)" style="fill: none; stroke: #1f77b4; stroke-width: 2; stroke-linecap: round"/>
   </g>
   <g id="patch_3">
    <path d="M 44.765466 521.153031 
L 44.765466 17.28 
" style="fill: none"/>
   </g>
   <g id="patch_4">
    <path d="M 1062.72 521.153031 
L 1062.72 17.28 
" style="fill: none"/>
   </g>
   <g id="patch_5">
    <path d="M 44.765466 521.153031 
L 1062.72 521.153031 
" style="fill: none"/>
   </g>
   <g id="patch_6">
    <path d="M 44.765466 17.28 
L 1062.72 17.28 
" style="fill: none"/>
   </g>
  </g>
 </g>
 <defs>
  <clipPath id="p1c5850fac5">
   <rect x="44.765466" y="17.28" width="1017.954534" height="503.873031"/>
  </clipPath>
 </defs>
</svg>
