<?xml version="1.0" encoding="utf-8" standalone="no"?>
<!DOCTYPE svg PUBLIC "-//W3C//DTD SVG 1.1//EN"
  "http://www.w3.org/Graphics/SVG/1.1/DTD/svg11.dtd">
<svg xmlns:xlink="http://www.w3.org/1999/xlink" width="1080pt" height="576pt" viewBox="0 0 1080 576" xmlns="http://www.w3.org/2000/svg" version="1.1">
 <metadata>
  <rdf:RDF xmlns:dc="http://purl.org/dc/elements/1.1/" xmlns:cc="http://creativecommons.org/ns#" xmlns:rdf="http://www.w3.org/1999/02/22-rdf-syntax-ns#">
   <cc:Work>
    <dc:type rdf:resource="http://purl.org/dc/dcmitype/StillImage"/>
    <dc:date>2024-06-28T12:04:15.490488</dc:date>
    <dc:format>image/svg+xml</dc:format>
    <dc:creator>
     <cc:Agent>
      <dc:title>Matplotlib v3.9.0, https://matplotlib.org/</dc:title>
     </cc:Agent>
    </dc:creator>
   </cc:Work>
  </rdf:RDF>
 </metadata>
 <defs>
  <style type="text/css">*{stroke-linejoin: round; stroke-linecap: butt}</style>
 </defs>
 <g id="figure_1">
  <g id="patch_1">
   <path d="M 0 576 
L 1080 576 
L 1080 0 
L 0 0 
z
" style="fill: #ffffff"/>
  </g>
  <g id="axes_1">
   <g id="patch_2">
    <path d="M 41.730582 521.153031 
L 935.517672 521.153031 
L 935.517672 51.564121 
L 41.730582 51.564121 
z
" style="fill: #eaeaf2"/>
   </g>
   <g id="matplotlib.axis_1">
    <g id="xtick_1">
     <g id="line2d_1">
      <path d="M 41.730582 521.153031 
L 41.730582 51.564121 
" clip-path="url(#pcbd3b66aa2)" style="fill: none; stroke: #ffffff; stroke-linecap: round"/>
     </g>
     <g id="line2d_2"/>
     <g id="text_1">
      <!-- $\mathdefault{0.00}$ -->
      <g style="fill: #262626" transform="translate(29.591047 537.838907) scale(0.14 -0.14)">
       <defs>
        <path id="CMR17-30" d="M 2688 2025 
C 2688 2416 2682 3080 2413 3591 
C 2176 4039 1798 4198 1466 4198 
C 1158 4198 768 4058 525 3597 
C 269 3118 243 2524 243 2025 
C 243 1661 250 1106 448 619 
C 723 -39 1216 -128 1466 -128 
C 1760 -128 2208 -7 2470 600 
C 2662 1042 2688 1559 2688 2025 
z
M 1466 -26 
C 1056 -26 813 325 723 812 
C 653 1188 653 1738 653 2096 
C 653 2588 653 2997 736 3387 
C 858 3929 1216 4096 1466 4096 
C 1728 4096 2067 3923 2189 3400 
C 2272 3036 2278 2607 2278 2096 
C 2278 1680 2278 1169 2202 792 
C 2067 95 1690 -26 1466 -26 
z
" transform="scale(0.015625)"/>
        <path id="CMMI12-3a" d="M 1178 307 
C 1178 492 1024 619 870 619 
C 685 619 557 466 557 313 
C 557 128 710 0 864 0 
C 1050 0 1178 153 1178 307 
z
" transform="scale(0.015625)"/>
       </defs>
       <use xlink:href="#CMR17-30" transform="scale(0.996264)"/>
       <use xlink:href="#CMMI12-3a" transform="translate(45.690477 0) scale(0.996264)"/>
       <use xlink:href="#CMR17-30" transform="translate(72.787654 0) scale(0.996264)"/>
       <use xlink:href="#CMR17-30" transform="translate(118.478131 0) scale(0.996264)"/>
      </g>
     </g>
    </g>
    <g id="xtick_2">
     <g id="line2d_3">
      <path d="M 148.133807 521.153031 
L 148.133807 51.564121 
" clip-path="url(#pcbd3b66aa2)" style="fill: none; stroke: #ffffff; stroke-linecap: round"/>
     </g>
     <g id="line2d_4"/>
     <g id="text_2">
      <!-- $\mathdefault{0.25}$ -->
      <g style="fill: #262626" transform="translate(135.994272 537.838907) scale(0.14 -0.14)">
       <defs>
        <path id="CMR17-32" d="M 2669 989 
L 2554 989 
C 2490 536 2438 459 2413 420 
C 2381 369 1920 369 1830 369 
L 602 369 
C 832 619 1280 1072 1824 1597 
C 2214 1967 2669 2402 2669 3035 
C 2669 3790 2067 4224 1395 4224 
C 691 4224 262 3604 262 3030 
C 262 2780 448 2748 525 2748 
C 589 2748 781 2787 781 3010 
C 781 3207 614 3264 525 3264 
C 486 3264 448 3258 422 3245 
C 544 3790 915 4058 1306 4058 
C 1862 4058 2227 3617 2227 3035 
C 2227 2479 1901 2000 1536 1584 
L 262 146 
L 262 0 
L 2515 0 
L 2669 989 
z
" transform="scale(0.015625)"/>
        <path id="CMR17-35" d="M 730 3692 
C 794 3666 1056 3584 1325 3584 
C 1920 3584 2246 3911 2432 4100 
C 2432 4157 2432 4192 2394 4192 
C 2387 4192 2374 4192 2323 4163 
C 2099 4058 1837 3973 1517 3973 
C 1325 3973 1037 3999 723 4139 
C 653 4171 640 4171 634 4171 
C 602 4171 595 4164 595 4037 
L 595 2203 
C 595 2089 595 2057 659 2057 
C 691 2057 704 2070 736 2114 
C 941 2401 1222 2522 1542 2522 
C 1766 2522 2246 2382 2246 1289 
C 2246 1085 2246 715 2054 421 
C 1894 159 1645 25 1370 25 
C 947 25 518 320 403 814 
C 429 807 480 795 506 795 
C 589 795 749 840 749 1038 
C 749 1210 627 1280 506 1280 
C 358 1280 262 1190 262 1011 
C 262 454 704 -128 1382 -128 
C 2042 -128 2669 440 2669 1264 
C 2669 2030 2170 2624 1549 2624 
C 1222 2624 947 2503 730 2274 
L 730 3692 
z
" transform="scale(0.015625)"/>
       </defs>
       <use xlink:href="#CMR17-30" transform="scale(0.996264)"/>
       <use xlink:href="#CMMI12-3a" transform="translate(45.690477 0) scale(0.996264)"/>
       <use xlink:href="#CMR17-32" transform="translate(72.787654 0) scale(0.996264)"/>
       <use xlink:href="#CMR17-35" transform="translate(118.478131 0) scale(0.996264)"/>
      </g>
     </g>
    </g>
    <g id="xtick_3">
     <g id="line2d_5">
      <path d="M 254.537032 521.153031 
L 254.537032 51.564121 
" clip-path="url(#pcbd3b66aa2)" style="fill: none; stroke: #ffffff; stroke-linecap: round"/>
     </g>
     <g id="line2d_6"/>
     <g id="text_3">
      <!-- $\mathdefault{0.50}$ -->
      <g style="fill: #262626" transform="translate(242.397497 537.838907) scale(0.14 -0.14)">
       <use xlink:href="#CMR17-30" transform="scale(0.996264)"/>
       <use xlink:href="#CMMI12-3a" transform="translate(45.690477 0) scale(0.996264)"/>
       <use xlink:href="#CMR17-35" transform="translate(72.787654 0) scale(0.996264)"/>
       <use xlink:href="#CMR17-30" transform="translate(118.478131 0) scale(0.996264)"/>
      </g>
     </g>
    </g>
    <g id="xtick_4">
     <g id="line2d_7">
      <path d="M 360.940257 521.153031 
L 360.940257 51.564121 
" clip-path="url(#pcbd3b66aa2)" style="fill: none; stroke: #ffffff; stroke-linecap: round"/>
     </g>
     <g id="line2d_8"/>
     <g id="text_4">
      <!-- $\mathdefault{0.75}$ -->
      <g style="fill: #262626" transform="translate(348.800722 537.838907) scale(0.14 -0.14)">
       <defs>
        <path id="CMR17-37" d="M 2886 3941 
L 2886 4081 
L 1382 4081 
C 634 4081 621 4165 595 4288 
L 480 4288 
L 294 3094 
L 410 3094 
C 429 3215 474 3540 550 3661 
C 589 3712 1062 3712 1171 3712 
L 2579 3712 
L 1869 2661 
C 1395 1954 1069 999 1069 165 
C 1069 89 1069 -128 1299 -128 
C 1530 -128 1530 89 1530 171 
L 1530 465 
C 1530 1508 1709 2196 2003 2636 
L 2886 3941 
z
" transform="scale(0.015625)"/>
       </defs>
       <use xlink:href="#CMR17-30" transform="scale(0.996264)"/>
       <use xlink:href="#CMMI12-3a" transform="translate(45.690477 0) scale(0.996264)"/>
       <use xlink:href="#CMR17-37" transform="translate(72.787654 0) scale(0.996264)"/>
       <use xlink:href="#CMR17-35" transform="translate(118.478131 0) scale(0.996264)"/>
      </g>
     </g>
    </g>
    <g id="xtick_5">
     <g id="line2d_9">
      <path d="M 467.343482 521.153031 
L 467.343482 51.564121 
" clip-path="url(#pcbd3b66aa2)" style="fill: none; stroke: #ffffff; stroke-linecap: round"/>
     </g>
     <g id="line2d_10"/>
     <g id="text_5">
      <!-- $\mathdefault{1.00}$ -->
      <g style="fill: #262626" transform="translate(455.203947 537.838907) scale(0.14 -0.14)">
       <defs>
        <path id="CMR17-31" d="M 1702 4058 
C 1702 4192 1696 4192 1606 4192 
C 1357 3916 979 3827 621 3827 
C 602 3827 570 3827 563 3808 
C 557 3795 557 3782 557 3648 
C 755 3648 1088 3686 1344 3839 
L 1344 461 
C 1344 236 1331 160 781 160 
L 589 160 
L 589 0 
C 896 0 1216 0 1523 0 
C 1830 0 2150 0 2458 0 
L 2458 160 
L 2266 160 
C 1715 160 1702 230 1702 458 
L 1702 4058 
z
" transform="scale(0.015625)"/>
       </defs>
       <use xlink:href="#CMR17-31" transform="scale(0.996264)"/>
       <use xlink:href="#CMMI12-3a" transform="translate(45.690477 0) scale(0.996264)"/>
       <use xlink:href="#CMR17-30" transform="translate(72.787654 0) scale(0.996264)"/>
       <use xlink:href="#CMR17-30" transform="translate(118.478131 0) scale(0.996264)"/>
      </g>
     </g>
    </g>
    <g id="xtick_6">
     <g id="line2d_11">
      <path d="M 573.746707 521.153031 
L 573.746707 51.564121 
" clip-path="url(#pcbd3b66aa2)" style="fill: none; stroke: #ffffff; stroke-linecap: round"/>
     </g>
     <g id="line2d_12"/>
     <g id="text_6">
      <!-- $\mathdefault{1.25}$ -->
      <g style="fill: #262626" transform="translate(561.607172 537.838907) scale(0.14 -0.14)">
       <use xlink:href="#CMR17-31" transform="scale(0.996264)"/>
       <use xlink:href="#CMMI12-3a" transform="translate(45.690477 0) scale(0.996264)"/>
       <use xlink:href="#CMR17-32" transform="translate(72.787654 0) scale(0.996264)"/>
       <use xlink:href="#CMR17-35" transform="translate(118.478131 0) scale(0.996264)"/>
      </g>
     </g>
    </g>
    <g id="xtick_7">
     <g id="line2d_13">
      <path d="M 680.149932 521.153031 
L 680.149932 51.564121 
" clip-path="url(#pcbd3b66aa2)" style="fill: none; stroke: #ffffff; stroke-linecap: round"/>
     </g>
     <g id="line2d_14"/>
     <g id="text_7">
      <!-- $\mathdefault{1.50}$ -->
      <g style="fill: #262626" transform="translate(668.010397 537.838907) scale(0.14 -0.14)">
       <use xlink:href="#CMR17-31" transform="scale(0.996264)"/>
       <use xlink:href="#CMMI12-3a" transform="translate(45.690477 0) scale(0.996264)"/>
       <use xlink:href="#CMR17-35" transform="translate(72.787654 0) scale(0.996264)"/>
       <use xlink:href="#CMR17-30" transform="translate(118.478131 0) scale(0.996264)"/>
      </g>
     </g>
    </g>
    <g id="xtick_8">
     <g id="line2d_15">
      <path d="M 786.553157 521.153031 
L 786.553157 51.564121 
" clip-path="url(#pcbd3b66aa2)" style="fill: none; stroke: #ffffff; stroke-linecap: round"/>
     </g>
     <g id="line2d_16"/>
     <g id="text_8">
      <!-- $\mathdefault{1.75}$ -->
      <g style="fill: #262626" transform="translate(774.413622 537.838907) scale(0.14 -0.14)">
       <use xlink:href="#CMR17-31" transform="scale(0.996264)"/>
       <use xlink:href="#CMMI12-3a" transform="translate(45.690477 0) scale(0.996264)"/>
       <use xlink:href="#CMR17-37" transform="translate(72.787654 0) scale(0.996264)"/>
       <use xlink:href="#CMR17-35" transform="translate(118.478131 0) scale(0.996264)"/>
      </g>
     </g>
    </g>
    <g id="xtick_9">
     <g id="line2d_17">
      <path d="M 892.956382 521.153031 
L 892.956382 51.564121 
" clip-path="url(#pcbd3b66aa2)" style="fill: none; stroke: #ffffff; stroke-linecap: round"/>
     </g>
     <g id="line2d_18"/>
     <g id="text_9">
      <!-- $\mathdefault{2.00}$ -->
      <g style="fill: #262626" transform="translate(880.816846 537.838907) scale(0.14 -0.14)">
       <use xlink:href="#CMR17-32" transform="scale(0.996264)"/>
       <use xlink:href="#CMMI12-3a" transform="translate(45.690477 0) scale(0.996264)"/>
       <use xlink:href="#CMR17-30" transform="translate(72.787654 0) scale(0.996264)"/>
       <use xlink:href="#CMR17-30" transform="translate(118.478131 0) scale(0.996264)"/>
      </g>
     </g>
    </g>
    <g id="text_10">
     <!-- $x$ -->
     <g style="fill: #262626" transform="translate(484.189402 555.620524) scale(0.16 -0.16)">
      <defs>
       <path id="CMMI12-78" d="M 3034 2606 
C 2829 2567 2752 2414 2752 2293 
C 2752 2139 2874 2088 2963 2088 
C 3155 2088 3290 2254 3290 2427 
C 3290 2695 2982 2816 2714 2816 
C 2323 2816 2106 2433 2048 2312 
C 1901 2816 1504 2816 1389 2816 
C 736 2816 390 1980 390 1839 
C 390 1814 416 1782 461 1782 
C 512 1782 525 1820 538 1846 
C 755 2555 1184 2689 1370 2689 
C 1658 2689 1715 2420 1715 2267 
C 1715 2127 1677 1980 1600 1673 
L 1382 798 
C 1286 415 1101 64 762 64 
C 730 64 570 64 435 147 
C 666 192 717 383 717 460 
C 717 588 621 664 499 664 
C 346 664 179 530 179 326 
C 179 57 480 -64 755 -64 
C 1062 -64 1280 179 1414 441 
C 1517 64 1837 -64 2074 -64 
C 2726 -64 3072 773 3072 913 
C 3072 945 3046 971 3008 971 
C 2950 971 2944 939 2925 888 
C 2752 326 2381 64 2093 64 
C 1869 64 1747 230 1747 492 
C 1747 632 1773 734 1875 1156 
L 2099 2024 
C 2195 2408 2413 2689 2707 2689 
C 2720 2689 2899 2689 3034 2606 
z
" transform="scale(0.015625)"/>
      </defs>
      <use xlink:href="#CMMI12-78" transform="scale(0.996264)"/>
     </g>
    </g>
   </g>
   <g id="matplotlib.axis_2">
    <g id="ytick_1">
     <g id="line2d_19">
      <path d="M 41.730582 521.153031 
L 935.517672 521.153031 
" clip-path="url(#pcbd3b66aa2)" style="fill: none; stroke: #ffffff; stroke-linecap: round"/>
     </g>
     <g id="line2d_20"/>
     <g id="text_11">
      <!-- $\mathdefault{0.0}$ -->
      <g style="fill: #262626" transform="translate(17.28 525.995969) scale(0.14 -0.14)">
       <use xlink:href="#CMR17-30" transform="scale(0.996264)"/>
       <use xlink:href="#CMMI12-3a" transform="translate(45.690477 0) scale(0.996264)"/>
       <use xlink:href="#CMR17-30" transform="translate(72.787654 0) scale(0.996264)"/>
      </g>
     </g>
    </g>
    <g id="ytick_2">
     <g id="line2d_21">
      <path d="M 41.730582 446.607624 
L 935.517672 446.607624 
" clip-path="url(#pcbd3b66aa2)" style="fill: none; stroke: #ffffff; stroke-linecap: round"/>
     </g>
     <g id="line2d_22"/>
     <g id="text_12">
      <!-- $\mathdefault{0.1}$ -->
      <g style="fill: #262626" transform="translate(17.28 451.450562) scale(0.14 -0.14)">
       <use xlink:href="#CMR17-30" transform="scale(0.996264)"/>
       <use xlink:href="#CMMI12-3a" transform="translate(45.690477 0) scale(0.996264)"/>
       <use xlink:href="#CMR17-31" transform="translate(72.787654 0) scale(0.996264)"/>
      </g>
     </g>
    </g>
    <g id="ytick_3">
     <g id="line2d_23">
      <path d="M 41.730582 372.062217 
L 935.517672 372.062217 
" clip-path="url(#pcbd3b66aa2)" style="fill: none; stroke: #ffffff; stroke-linecap: round"/>
     </g>
     <g id="line2d_24"/>
     <g id="text_13">
      <!-- $\mathdefault{0.2}$ -->
      <g style="fill: #262626" transform="translate(17.28 376.905155) scale(0.14 -0.14)">
       <use xlink:href="#CMR17-30" transform="scale(0.996264)"/>
       <use xlink:href="#CMMI12-3a" transform="translate(45.690477 0) scale(0.996264)"/>
       <use xlink:href="#CMR17-32" transform="translate(72.787654 0) scale(0.996264)"/>
      </g>
     </g>
    </g>
    <g id="ytick_4">
     <g id="line2d_25">
      <path d="M 41.730582 297.51681 
L 935.517672 297.51681 
" clip-path="url(#pcbd3b66aa2)" style="fill: none; stroke: #ffffff; stroke-linecap: round"/>
     </g>
     <g id="line2d_26"/>
     <g id="text_14">
      <!-- $\mathdefault{0.3}$ -->
      <g style="fill: #262626" transform="translate(17.28 302.359748) scale(0.14 -0.14)">
       <defs>
        <path id="CMR17-33" d="M 1414 2157 
C 1984 2157 2234 1662 2234 1090 
C 2234 320 1824 25 1453 25 
C 1114 25 563 194 390 693 
C 422 680 454 680 486 680 
C 640 680 755 782 755 948 
C 755 1133 614 1216 486 1216 
C 378 1216 211 1165 211 926 
C 211 335 787 -128 1466 -128 
C 2176 -128 2720 430 2720 1085 
C 2720 1707 2208 2157 1600 2227 
C 2086 2328 2554 2756 2554 3329 
C 2554 3820 2048 4179 1472 4179 
C 890 4179 378 3829 378 3329 
C 378 3110 544 3072 627 3072 
C 762 3072 877 3155 877 3321 
C 877 3486 762 3569 627 3569 
C 602 3569 570 3569 544 3557 
C 730 3959 1235 4032 1459 4032 
C 1683 4032 2106 3925 2106 3320 
C 2106 3143 2080 2828 1862 2550 
C 1670 2304 1453 2304 1242 2284 
C 1210 2284 1062 2269 1037 2269 
C 992 2263 966 2257 966 2208 
C 966 2163 973 2157 1101 2157 
L 1414 2157 
z
" transform="scale(0.015625)"/>
       </defs>
       <use xlink:href="#CMR17-30" transform="scale(0.996264)"/>
       <use xlink:href="#CMMI12-3a" transform="translate(45.690477 0) scale(0.996264)"/>
       <use xlink:href="#CMR17-33" transform="translate(72.787654 0) scale(0.996264)"/>
      </g>
     </g>
    </g>
    <g id="ytick_5">
     <g id="line2d_27">
      <path d="M 41.730582 222.971403 
L 935.517672 222.971403 
" clip-path="url(#pcbd3b66aa2)" style="fill: none; stroke: #ffffff; stroke-linecap: round"/>
     </g>
     <g id="line2d_28"/>
     <g id="text_15">
      <!-- $\mathdefault{0.4}$ -->
      <g style="fill: #262626" transform="translate(17.28 227.814342) scale(0.14 -0.14)">
       <defs>
        <path id="CMR17-34" d="M 2150 4122 
C 2150 4256 2144 4256 2029 4256 
L 128 1254 
L 128 1088 
L 1779 1088 
L 1779 457 
C 1779 224 1766 160 1318 160 
L 1197 160 
L 1197 0 
C 1402 0 1747 0 1965 0 
C 2182 0 2528 0 2733 0 
L 2733 160 
L 2611 160 
C 2163 160 2150 224 2150 457 
L 2150 1088 
L 2803 1088 
L 2803 1254 
L 2150 1254 
L 2150 4122 
z
M 1798 3703 
L 1798 1254 
L 256 1254 
L 1798 3703 
z
" transform="scale(0.015625)"/>
       </defs>
       <use xlink:href="#CMR17-30" transform="scale(0.996264)"/>
       <use xlink:href="#CMMI12-3a" transform="translate(45.690477 0) scale(0.996264)"/>
       <use xlink:href="#CMR17-34" transform="translate(72.787654 0) scale(0.996264)"/>
      </g>
     </g>
    </g>
    <g id="ytick_6">
     <g id="line2d_29">
      <path d="M 41.730582 148.425996 
L 935.517672 148.425996 
" clip-path="url(#pcbd3b66aa2)" style="fill: none; stroke: #ffffff; stroke-linecap: round"/>
     </g>
     <g id="line2d_30"/>
     <g id="text_16">
      <!-- $\mathdefault{0.5}$ -->
      <g style="fill: #262626" transform="translate(17.28 153.268935) scale(0.14 -0.14)">
       <use xlink:href="#CMR17-30" transform="scale(0.996264)"/>
       <use xlink:href="#CMMI12-3a" transform="translate(45.690477 0) scale(0.996264)"/>
       <use xlink:href="#CMR17-35" transform="translate(72.787654 0) scale(0.996264)"/>
      </g>
     </g>
    </g>
    <g id="ytick_7">
     <g id="line2d_31">
      <path d="M 41.730582 73.88059 
L 935.517672 73.88059 
" clip-path="url(#pcbd3b66aa2)" style="fill: none; stroke: #ffffff; stroke-linecap: round"/>
     </g>
     <g id="line2d_32"/>
     <g id="text_17">
      <!-- $\mathdefault{0.6}$ -->
      <g style="fill: #262626" transform="translate(17.28 78.723528) scale(0.14 -0.14)">
       <defs>
        <path id="CMR17-36" d="M 678 2176 
C 678 3690 1395 4032 1811 4032 
C 1946 4032 2272 4009 2400 3776 
C 2298 3776 2106 3776 2106 3553 
C 2106 3381 2246 3323 2336 3323 
C 2394 3323 2566 3348 2566 3560 
C 2566 3954 2246 4179 1805 4179 
C 1043 4179 243 3390 243 1984 
C 243 253 966 -128 1478 -128 
C 2099 -128 2688 427 2688 1283 
C 2688 2081 2170 2662 1517 2662 
C 1126 2662 838 2407 678 1960 
L 678 2176 
z
M 1478 25 
C 691 25 691 1200 691 1436 
C 691 1896 909 2560 1504 2560 
C 1613 2560 1926 2560 2138 2120 
C 2253 1870 2253 1609 2253 1289 
C 2253 944 2253 690 2118 434 
C 1978 171 1773 25 1478 25 
z
" transform="scale(0.015625)"/>
       </defs>
       <use xlink:href="#CMR17-30" transform="scale(0.996264)"/>
       <use xlink:href="#CMMI12-3a" transform="translate(45.690477 0) scale(0.996264)"/>
       <use xlink:href="#CMR17-36" transform="translate(72.787654 0) scale(0.996264)"/>
      </g>
     </g>
    </g>
   </g>
   <g id="line2d_33">
    <path d="M 41.730582 73.88059 
L 50.24284 73.88059 
L 58.755098 73.88059 
L 67.267356 73.88059 
L 75.779614 73.88059 
L 84.291872 73.88059 
L 92.80413 73.88059 
L 101.316388 73.88059 
L 109.828646 73.88059 
L 118.340904 73.88059 
L 126.853162 73.88059 
L 135.36542 73.88059 
L 143.877678 73.88059 
L 152.389936 73.88059 
L 160.902194 73.88059 
L 169.414452 73.88059 
L 177.92671 73.88059 
L 186.438968 73.88059 
L 194.951226 73.88059 
L 203.463484 73.88059 
L 211.975742 73.88059 
L 220.488 73.88059 
L 229.000258 73.88059 
L 237.512516 73.88059 
L 246.024774 73.88059 
L 254.537032 73.88059 
L 263.04929 73.88059 
L 271.561548 73.88059 
L 280.073806 73.88059 
L 288.586064 73.88059 
L 297.098322 73.88059 
L 305.61058 73.88059 
L 314.122838 73.88059 
L 322.635096 73.88059 
L 331.147354 73.88059 
L 339.659612 73.88059 
L 348.17187 73.88059 
L 356.684128 73.88059 
L 365.196386 73.88059 
L 373.708644 73.88059 
L 382.220902 73.88059 
L 390.73316 73.88059 
L 399.245418 73.88059 
L 407.757676 73.88059 
L 416.269934 73.88059 
L 424.782192 73.88059 
L 433.29445 73.88059 
L 441.806708 73.88059 
L 450.318966 73.88059 
L 458.831224 73.88059 
L 467.343482 73.88059 
L 475.85574 73.88059 
L 484.367998 73.88059 
L 492.880256 73.88059 
L 501.392514 73.88059 
L 509.904772 73.88059 
L 518.41703 73.88059 
L 526.929288 73.88059 
L 535.441546 73.88059 
L 543.953804 73.88059 
L 552.466062 73.88059 
L 560.97832 73.88059 
L 569.490578 73.88059 
L 578.002836 73.88059 
L 586.515094 73.88059 
L 595.027352 73.88059 
L 603.53961 73.88059 
L 612.051868 73.88059 
L 620.564126 73.88059 
L 629.076384 73.88059 
L 637.588642 73.88059 
L 646.1009 73.88059 
L 654.613158 73.88059 
L 663.125416 73.88059 
L 671.637674 73.88059 
L 680.149932 73.88059 
L 688.66219 73.88059 
L 697.174448 73.88059 
L 705.686706 73.88059 
L 714.198964 73.88059 
L 722.711222 73.88059 
L 731.22348 73.88059 
L 739.735738 73.88059 
L 748.247996 73.88059 
L 756.760254 73.88059 
L 765.272512 73.88059 
L 773.78477 73.88059 
L 782.297028 73.88059 
L 790.809286 73.88059 
L 799.321544 73.88059 
L 807.833802 73.88059 
L 816.34606 73.88059 
L 824.858318 73.88059 
L 833.370576 73.88059 
L 841.882834 73.88059 
L 850.395092 73.88059 
L 858.90735 73.88059 
L 867.419608 73.88059 
L 875.931866 73.88059 
L 884.444124 73.88059 
L 892.956382 73.88059 
" clip-path="url(#pcbd3b66aa2)" style="fill: none; stroke: #393b79; stroke-width: 2; stroke-linecap: round"/>
   </g>
   <g id="line2d_34">
    <path d="M 41.730582 112.091377 
L 50.24284 111.961125 
L 58.755098 111.83136 
L 67.267356 111.700703 
L 75.779614 111.57022 
L 84.291872 111.440226 
L 92.80413 111.31072 
L 101.316388 111.181699 
L 109.828646 111.05316 
L 118.340904 110.925101 
L 126.853162 110.797521 
L 135.36542 110.670417 
L 143.877678 110.543789 
L 152.389936 110.417639 
L 160.902194 110.291961 
L 169.414452 110.166752 
L 177.92671 110.04201 
L 186.438968 109.917734 
L 194.951226 109.793921 
L 203.463484 109.67057 
L 211.975742 109.547678 
L 220.488 109.425245 
L 229.000258 109.303268 
L 237.512516 109.181746 
L 246.024774 109.060677 
L 254.537032 108.940059 
L 263.04929 108.81989 
L 271.561548 108.700168 
L 280.073806 108.580898 
L 288.586064 108.462073 
L 297.098322 108.34369 
L 305.61058 108.225605 
L 314.122838 108.106553 
L 322.635096 107.987944 
L 331.147354 107.869776 
L 339.659612 107.752047 
L 348.17187 107.634755 
L 356.684128 107.517899 
L 365.196386 107.401477 
L 373.708644 107.285487 
L 382.220902 107.169928 
L 390.73316 107.054798 
L 399.245418 106.940095 
L 407.757676 106.825819 
L 416.269934 106.711967 
L 424.782192 106.598543 
L 433.29445 106.485539 
L 441.806708 106.372954 
L 450.318966 106.260786 
L 458.831224 106.149034 
L 467.343482 106.037696 
L 475.85574 105.92677 
L 484.367998 105.816255 
L 492.880256 105.706149 
L 501.392514 105.596451 
L 509.904772 105.487161 
L 518.41703 105.378276 
L 526.929288 105.269793 
L 535.441546 105.161713 
L 543.953804 105.054033 
L 552.466062 104.946751 
L 560.97832 104.839865 
L 569.490578 104.733376 
L 578.002836 104.627279 
L 586.515094 104.520288 
L 595.027352 104.413581 
L 603.53961 104.307268 
L 612.051868 104.201348 
L 620.564126 104.09582 
L 629.076384 103.990686 
L 637.588642 103.885939 
L 646.1009 103.781579 
L 654.613158 103.677606 
L 663.125416 103.574016 
L 671.637674 103.470808 
L 680.149932 103.36798 
L 688.66219 103.265532 
L 697.174448 103.163461 
L 705.686706 103.061767 
L 714.198964 102.960447 
L 722.711222 102.8595 
L 731.22348 102.758929 
L 739.735738 102.658728 
L 748.247996 102.558897 
L 756.760254 102.459433 
L 765.272512 102.360335 
L 773.78477 102.261602 
L 782.297028 102.163232 
L 790.809286 102.065224 
L 799.321544 101.967576 
L 807.833802 101.870289 
L 816.34606 101.773359 
L 824.858318 101.676786 
L 833.370576 101.580568 
L 841.882834 101.484704 
L 850.395092 101.389192 
L 858.90735 101.294031 
L 867.419608 101.19922 
L 875.931866 101.104757 
L 884.444124 101.010643 
L 892.956382 100.91639 
" clip-path="url(#pcbd3b66aa2)" style="fill: none; stroke: #6b6ecf; stroke-width: 2; stroke-linecap: round"/>
   </g>
   <g id="line2d_35">
    <path d="M 41.730582 227.411934 
L 50.24284 226.984249 
L 58.755098 226.558515 
L 67.267356 226.134716 
L 75.779614 225.710212 
L 84.291872 225.285559 
L 92.80413 224.862818 
L 101.316388 224.441999 
L 109.828646 224.023048 
L 118.340904 223.604277 
L 126.853162 223.184521 
L 135.36542 222.766671 
L 143.877678 222.350668 
L 152.389936 221.936553 
L 160.902194 221.523872 
L 169.414452 221.108822 
L 177.92671 220.695659 
L 186.438968 220.284333 
L 194.951226 219.874882 
L 203.463484 219.46725 
L 211.975742 219.058436 
L 220.488 218.649878 
L 229.000258 218.243118 
L 237.512516 217.838122 
L 246.024774 217.434936 
L 254.537032 217.033124 
L 263.04929 216.629042 
L 271.561548 216.226777 
L 280.073806 215.826261 
L 288.586064 215.427488 
L 297.098322 215.030459 
L 305.61058 214.633413 
L 314.122838 214.235457 
L 322.635096 213.839272 
L 331.147354 213.444791 
L 339.659612 213.052007 
L 348.17187 212.660937 
L 356.684128 212.269195 
L 365.196386 211.877125 
L 373.708644 211.486809 
L 382.220902 211.09823 
L 390.73316 210.711314 
L 399.245418 210.326059 
L 407.757676 209.940109 
L 416.269934 209.553796 
L 424.782192 209.169157 
L 433.29445 208.786222 
L 441.806708 208.404956 
L 450.318966 208.02535 
L 458.831224 207.645783 
L 467.343482 207.265114 
L 475.85574 206.886065 
L 484.367998 206.508661 
L 492.880256 206.132872 
L 501.392514 205.758693 
L 509.904772 205.385962 
L 518.41703 205.010734 
L 526.929288 204.637121 
L 535.441546 204.265115 
L 543.953804 203.894708 
L 552.466062 203.525856 
L 560.97832 203.15858 
L 569.490578 202.790646 
L 578.002836 202.422277 
L 586.515094 202.05548 
L 595.027352 201.690217 
L 603.53961 201.32651 
L 612.051868 200.964384 
L 620.564126 200.603789 
L 629.076384 200.241288 
L 637.588642 199.879579 
L 646.1009 199.519387 
L 654.613158 199.160722 
L 663.125416 198.80357 
L 671.637674 198.447917 
L 680.149932 198.093742 
L 688.66219 197.737236 
L 697.174448 197.381985 
L 705.686706 197.028232 
L 714.198964 196.675948 
L 722.711222 196.325123 
L 731.22348 195.975789 
L 739.735738 195.627897 
L 748.247996 195.278071 
L 756.760254 194.929041 
L 765.272512 194.581471 
L 773.78477 194.235359 
L 782.297028 193.890673 
L 790.809286 193.547412 
L 799.321544 193.205588 
L 807.833802 192.86314 
L 816.34606 192.520188 
L 824.858318 192.178642 
L 833.370576 191.838495 
L 841.882834 191.499764 
L 850.395092 191.162417 
L 858.90735 190.826466 
L 867.419608 190.491918 
L 875.931866 190.154938 
L 884.444124 189.819224 
L 892.956382 189.484897 
" clip-path="url(#pcbd3b66aa2)" style="fill: none; stroke: #637939; stroke-width: 2; stroke-linecap: round"/>
   </g>
   <g id="line2d_36">
    <path d="M 41.730582 317.683964 
L 50.24284 317.083578 
L 58.755098 316.483371 
L 67.267356 315.884677 
L 75.779614 315.286665 
L 84.291872 314.689603 
L 92.80413 314.093799 
L 101.316388 313.498333 
L 109.828646 312.904863 
L 118.340904 312.310989 
L 126.853162 311.720027 
L 135.36542 311.127606 
L 143.877678 310.538604 
L 152.389936 309.948205 
L 160.902194 309.360639 
L 169.414452 308.77286 
L 177.92671 308.186616 
L 186.438968 307.601636 
L 194.951226 307.016753 
L 203.463484 306.43463 
L 211.975742 305.851021 
L 220.488 305.270747 
L 229.000258 304.689461 
L 237.512516 304.110315 
L 246.024774 303.532184 
L 254.537032 302.954207 
L 263.04929 302.3793 
L 271.561548 301.802473 
L 280.073806 301.22889 
L 288.586064 300.655149 
L 297.098322 300.082584 
L 305.61058 299.512294 
L 314.122838 298.940704 
L 322.635096 298.372351 
L 331.147354 297.803505 
L 339.659612 297.236118 
L 348.17187 296.6709 
L 356.684128 296.104195 
L 365.196386 295.540882 
L 373.708644 294.97737 
L 382.220902 294.414769 
L 390.73316 293.855274 
L 399.245418 293.29345 
L 407.757676 292.734702 
L 416.269934 292.177009 
L 424.782192 291.618978 
L 433.29445 291.064038 
L 441.806708 290.508331 
L 450.318966 289.95404 
L 458.831224 289.402816 
L 467.343482 288.849218 
L 475.85574 288.298536 
L 484.367998 287.749534 
L 492.880256 287.199441 
L 501.392514 286.652338 
L 509.904772 286.10572 
L 518.41703 285.559084 
L 526.929288 285.015436 
L 535.441546 284.47141 
L 543.953804 283.928203 
L 552.466062 283.387871 
L 560.97832 282.846511 
L 569.490578 282.306624 
L 578.002836 281.769552 
L 586.515094 281.231045 
L 595.027352 280.694335 
L 603.53961 280.160461 
L 612.051868 279.624975 
L 620.564126 279.091444 
L 629.076384 278.560735 
L 637.588642 278.028417 
L 646.1009 277.497923 
L 654.613158 276.970212 
L 663.125416 276.441283 
L 671.637674 275.913733 
L 680.149932 275.38899 
L 688.66219 274.863598 
L 697.174448 274.33902 
L 705.686706 273.817127 
L 714.198964 273.295504 
L 722.711222 272.773758 
L 731.22348 272.254681 
L 739.735738 271.736962 
L 748.247996 271.21798 
L 756.760254 270.701634 
L 765.272512 270.187877 
L 773.78477 269.671751 
L 782.297028 269.158087 
L 790.809286 268.646979 
L 799.321544 268.135141 
L 807.833802 267.624091 
L 816.34606 267.115618 
L 824.858318 266.608356 
L 833.370576 266.099741 
L 841.882834 265.593748 
L 850.395092 265.09029 
L 858.90735 264.585185 
L 867.419608 264.081603 
L 875.931866 263.580517 
L 884.444124 263.080435 
L 892.956382 262.579245 
" clip-path="url(#pcbd3b66aa2)" style="fill: none; stroke: #b5cf6b; stroke-width: 2; stroke-linecap: round"/>
   </g>
   <g id="line2d_37">
    <path d="M 41.730582 438.581706 
L 50.24284 437.917336 
L 58.755098 437.252325 
L 67.267356 436.586697 
L 75.779614 435.920466 
L 84.291872 435.253669 
L 92.80413 434.586242 
L 101.316388 433.918325 
L 109.828646 433.249825 
L 118.340904 432.580964 
L 126.853162 431.911441 
L 135.36542 431.241301 
L 143.877678 430.57075 
L 152.389936 429.899797 
L 160.902194 429.228497 
L 169.414452 428.556882 
L 177.92671 427.884474 
L 186.438968 427.211799 
L 194.951226 426.53892 
L 203.463484 425.865709 
L 211.975742 425.191869 
L 220.488 424.517917 
L 229.000258 423.843764 
L 237.512516 423.168855 
L 246.024774 422.494086 
L 254.537032 421.818914 
L 263.04929 421.143363 
L 271.561548 420.468028 
L 280.073806 419.79185 
L 288.586064 419.116016 
L 297.098322 418.439479 
L 305.61058 417.763176 
L 314.122838 417.086321 
L 322.635096 416.409747 
L 331.147354 415.73263 
L 339.659612 415.055918 
L 348.17187 414.378389 
L 356.684128 413.701263 
L 365.196386 413.023766 
L 373.708644 412.346395 
L 382.220902 411.66908 
L 390.73316 410.991288 
L 399.245418 410.313925 
L 407.757676 409.636218 
L 416.269934 408.958464 
L 424.782192 408.281105 
L 433.29445 407.60339 
L 441.806708 406.925705 
L 450.318966 406.248363 
L 458.831224 405.571047 
L 467.343482 404.893359 
L 475.85574 404.21603 
L 484.367998 403.539006 
L 492.880256 402.861858 
L 501.392514 402.1846 
L 509.904772 401.507625 
L 518.41703 400.83096 
L 526.929288 400.154622 
L 535.441546 399.477977 
L 543.953804 398.801488 
L 552.466062 398.12525 
L 560.97832 397.449346 
L 569.490578 396.773772 
L 578.002836 396.098373 
L 586.515094 395.423146 
L 595.027352 394.747843 
L 603.53961 394.072817 
L 612.051868 393.398154 
L 620.564126 392.723745 
L 629.076384 392.049707 
L 637.588642 391.375939 
L 646.1009 390.702462 
L 654.613158 390.02927 
L 663.125416 389.356445 
L 671.637674 388.683864 
L 680.149932 388.011698 
L 688.66219 387.33977 
L 697.174448 386.668268 
L 705.686706 385.997018 
L 714.198964 385.32621 
L 722.711222 384.655711 
L 731.22348 383.985556 
L 739.735738 383.315801 
L 748.247996 382.64647 
L 756.760254 381.977515 
L 765.272512 381.308954 
L 773.78477 380.640871 
L 782.297028 379.973207 
L 790.809286 379.306024 
L 799.321544 378.639277 
L 807.833802 377.973117 
L 816.34606 377.307464 
L 824.858318 376.642292 
L 833.370576 375.977697 
L 841.882834 375.313118 
L 850.395092 374.649017 
L 858.90735 373.985503 
L 867.419608 373.322558 
L 875.931866 372.660265 
L 884.444124 371.998651 
L 892.956382 371.337719 
" clip-path="url(#pcbd3b66aa2)" style="fill: none; stroke: #8c6d31; stroke-width: 2; stroke-linecap: round"/>
   </g>
   <g id="line2d_38">
    <path d="M 41.730582 495.031918 
L 50.24284 494.535648 
L 58.755098 494.036241 
L 67.267356 493.533715 
L 75.779614 493.028086 
L 84.291872 492.519447 
L 92.80413 492.007723 
L 101.316388 491.493077 
L 109.828646 490.975456 
L 118.340904 490.455035 
L 126.853162 489.931665 
L 135.36542 489.405474 
L 143.877678 488.876507 
L 152.389936 488.344743 
L 160.902194 487.810277 
L 169.414452 487.273103 
L 177.92671 486.733313 
L 186.438968 486.190855 
L 194.951226 485.645815 
L 203.463484 485.098215 
L 211.975742 484.548127 
L 220.488 483.995549 
L 229.000258 483.440443 
L 237.512516 482.882907 
L 246.024774 482.323047 
L 254.537032 481.760766 
L 263.04929 481.196144 
L 271.561548 480.629292 
L 280.073806 480.060151 
L 288.586064 479.488747 
L 297.098322 478.915119 
L 305.61058 478.339291 
L 314.122838 477.761324 
L 322.635096 477.18128 
L 331.147354 476.599171 
L 339.659612 476.014935 
L 348.17187 475.428719 
L 356.684128 474.840358 
L 365.196386 474.250186 
L 373.708644 473.65808 
L 382.220902 473.063986 
L 390.73316 472.467974 
L 399.245418 471.870109 
L 407.757676 471.270422 
L 416.269934 470.668934 
L 424.782192 470.065672 
L 433.29445 469.460682 
L 441.806708 468.853997 
L 450.318966 468.245498 
L 458.831224 467.63538 
L 467.343482 467.023705 
L 475.85574 466.410242 
L 484.367998 465.795305 
L 492.880256 465.178686 
L 501.392514 464.560695 
L 509.904772 463.940971 
L 518.41703 463.319899 
L 526.929288 462.697392 
L 535.441546 462.073275 
L 543.953804 461.447827 
L 552.466062 460.820977 
L 560.97832 460.192801 
L 569.490578 459.563301 
L 578.002836 458.932371 
L 586.515094 458.30019 
L 595.027352 457.666696 
L 603.53961 457.031918 
L 612.051868 456.395933 
L 620.564126 455.758729 
L 629.076384 455.12041 
L 637.588642 454.480969 
L 646.1009 453.840244 
L 654.613158 453.198352 
L 663.125416 452.555537 
L 671.637674 451.911536 
L 680.149932 451.266447 
L 688.66219 450.620505 
L 697.174448 449.973278 
L 705.686706 449.325293 
L 714.198964 448.676138 
L 722.711222 448.026299 
L 731.22348 447.375156 
L 739.735738 446.72336 
L 748.247996 446.070639 
L 756.760254 445.416924 
L 765.272512 444.762524 
L 773.78477 444.107249 
L 782.297028 443.451003 
L 790.809286 442.794071 
L 799.321544 442.136414 
L 807.833802 441.478125 
L 816.34606 440.81883 
L 824.858318 440.158835 
L 833.370576 439.498155 
L 841.882834 438.836854 
L 850.395092 438.174882 
L 858.90735 437.512276 
L 867.419608 436.849022 
L 875.931866 436.185158 
L 884.444124 435.520696 
L 892.956382 434.855666 
" clip-path="url(#pcbd3b66aa2)" style="fill: none; stroke: #e7cb94; stroke-width: 2; stroke-linecap: round"/>
   </g>
   <g id="line2d_39">
    <path d="M 41.730582 510.946141 
L 50.24284 510.59804 
L 58.755098 510.245185 
L 67.267356 509.887606 
L 75.779614 509.52536 
L 84.291872 509.15851 
L 92.80413 508.787055 
L 101.316388 508.411102 
L 109.828646 508.030644 
L 118.340904 507.645811 
L 126.853162 507.256564 
L 135.36542 506.862973 
L 143.877678 506.465104 
L 152.389936 506.062994 
L 160.902194 505.656678 
L 169.414452 505.246195 
L 177.92671 504.831621 
L 186.438968 504.412991 
L 194.951226 503.99032 
L 203.463484 503.563679 
L 211.975742 503.133112 
L 220.488 502.698651 
L 229.000258 502.260322 
L 237.512516 501.818185 
L 246.024774 501.372314 
L 254.537032 500.922695 
L 263.04929 500.469404 
L 271.561548 500.012493 
L 280.073806 499.551975 
L 288.586064 499.087903 
L 297.098322 498.620289 
L 305.61058 498.149202 
L 314.122838 497.674679 
L 322.635096 497.196776 
L 331.147354 496.715523 
L 339.659612 496.230958 
L 348.17187 495.743075 
L 356.684128 495.251903 
L 365.196386 494.757608 
L 373.708644 494.260143 
L 382.220902 493.759528 
L 390.73316 493.255805 
L 399.245418 492.749024 
L 407.757676 492.239233 
L 416.269934 491.726466 
L 424.782192 491.210725 
L 433.29445 490.692095 
L 441.806708 490.170613 
L 450.318966 489.646275 
L 458.831224 489.119118 
L 467.343482 488.589176 
L 475.85574 488.056529 
L 484.367998 487.521157 
L 492.880256 486.983119 
L 501.392514 486.442446 
L 509.904772 485.899161 
L 518.41703 485.353329 
L 526.929288 484.804967 
L 535.441546 484.254075 
L 543.953804 483.700767 
L 552.466062 483.144954 
L 560.97832 482.586769 
L 569.490578 482.026239 
L 578.002836 481.463323 
L 586.515094 480.898079 
L 595.027352 480.330569 
L 603.53961 479.7608 
L 612.051868 479.188839 
L 620.564126 478.614672 
L 629.076384 478.038389 
L 637.588642 477.459987 
L 646.1009 476.879383 
L 654.613158 476.296754 
L 663.125416 475.712111 
L 671.637674 475.12542 
L 680.149932 474.536755 
L 688.66219 473.946162 
L 697.174448 473.353641 
L 705.686706 472.75914 
L 714.198964 472.162854 
L 722.711222 471.564696 
L 731.22348 470.964707 
L 739.735738 470.362945 
L 748.247996 469.759462 
L 756.760254 469.154235 
L 765.272512 468.54725 
L 773.78477 467.938564 
L 782.297028 467.328275 
L 790.809286 466.716348 
L 799.321544 466.102739 
L 807.833802 465.487702 
L 816.34606 464.870994 
L 824.858318 464.252783 
L 833.370576 463.633105 
L 841.882834 463.011849 
L 850.395092 462.389206 
L 858.90735 461.765195 
L 867.419608 461.139722 
L 875.931866 460.512801 
L 884.444124 459.88455 
L 892.956382 459.25498 
" clip-path="url(#pcbd3b66aa2)" style="fill: none; stroke: #ad494a; stroke-width: 2; stroke-linecap: round"/>
   </g>
   <g id="line2d_40">
    <path d="M 41.730582 516.71142 
L 50.24284 516.466811 
L 58.755098 516.216411 
L 67.267356 515.960275 
L 75.779614 515.698456 
L 84.291872 515.431022 
L 92.80413 515.158 
L 101.316388 514.879477 
L 109.828646 514.595474 
L 118.340904 514.306101 
L 126.853162 514.011355 
L 135.36542 513.711307 
L 143.877678 513.406019 
L 152.389936 513.095536 
L 160.902194 512.779913 
L 169.414452 512.459188 
L 177.92671 512.133438 
L 186.438968 511.802701 
L 194.951226 511.467025 
L 203.463484 511.126456 
L 211.975742 510.781067 
L 220.488 510.430883 
L 229.000258 510.075949 
L 237.512516 509.716318 
L 246.024774 509.352073 
L 254.537032 508.983219 
L 263.04929 508.609822 
L 271.561548 508.231946 
L 280.073806 507.849613 
L 288.586064 507.462869 
L 297.098322 507.071771 
L 305.61058 506.676356 
L 314.122838 506.276677 
L 322.635096 505.872786 
L 331.147354 505.464742 
L 339.659612 505.052551 
L 348.17187 504.636266 
L 356.684128 504.215904 
L 365.196386 503.791621 
L 373.708644 503.363356 
L 382.220902 502.931193 
L 390.73316 502.495138 
L 399.245418 502.055262 
L 407.757676 501.611594 
L 416.269934 501.164195 
L 424.782192 500.71311 
L 433.29445 500.258344 
L 441.806708 499.799985 
L 450.318966 499.338048 
L 458.831224 498.872578 
L 467.343482 498.403606 
L 475.85574 497.93118 
L 484.367998 497.455336 
L 492.880256 496.976085 
L 501.392514 496.493555 
L 509.904772 496.007672 
L 518.41703 495.518557 
L 526.929288 495.026228 
L 535.441546 494.530671 
L 543.953804 494.032022 
L 552.466062 493.530226 
L 560.97832 493.025371 
L 569.490578 492.517518 
L 578.002836 492.00657 
L 586.515094 491.492715 
L 595.027352 490.975929 
L 603.53961 490.456258 
L 612.051868 489.933722 
L 620.564126 489.408359 
L 629.076384 488.880229 
L 637.588642 488.349314 
L 646.1009 487.815704 
L 654.613158 487.279373 
L 663.125416 486.740474 
L 671.637674 486.198855 
L 680.149932 485.654709 
L 688.66219 485.107983 
L 697.174448 484.558791 
L 705.686706 484.007082 
L 714.198964 483.452913 
L 722.711222 482.896338 
L 731.22348 482.337344 
L 739.735738 481.776032 
L 748.247996 481.212367 
L 756.760254 480.646403 
L 765.272512 480.078189 
L 773.78477 479.507751 
L 782.297028 478.935078 
L 790.809286 478.360242 
L 799.321544 477.783245 
L 807.833802 477.204236 
L 816.34606 476.623028 
L 824.858318 476.039799 
L 833.370576 475.454516 
L 841.882834 474.867296 
L 850.395092 474.278027 
L 858.90735 473.686888 
L 867.419608 473.093849 
L 875.931866 472.498859 
L 884.444124 471.902018 
L 892.956382 471.30336 
" clip-path="url(#pcbd3b66aa2)" style="fill: none; stroke: #e7969c; stroke-width: 2; stroke-linecap: round"/>
   </g>
   <g id="line2d_41">
    <path d="M 41.730582 519.097573 
L 50.24284 518.924147 
L 58.755098 518.744251 
L 67.267356 518.557944 
L 75.779614 518.365289 
L 84.291872 518.16635 
L 92.80413 517.961166 
L 101.316388 517.749826 
L 109.828646 517.532363 
L 118.340904 517.308872 
L 126.853162 517.079372 
L 135.36542 516.843934 
L 143.877678 516.602624 
L 152.389936 516.355494 
L 160.902194 516.102595 
L 169.414452 515.843984 
L 177.92671 515.57973 
L 186.438968 515.309876 
L 194.951226 515.034479 
L 203.463484 514.75359 
L 211.975742 514.467284 
L 220.488 514.175591 
L 229.000258 513.878556 
L 237.512516 513.57625 
L 246.024774 513.268735 
L 254.537032 512.956049 
L 263.04929 512.638241 
L 271.561548 512.315389 
L 280.073806 511.987513 
L 288.586064 511.654673 
L 297.098322 511.316917 
L 305.61058 510.9743 
L 314.122838 510.626869 
L 322.635096 510.274683 
L 331.147354 509.917795 
L 339.659612 509.556237 
L 348.17187 509.190046 
L 356.684128 508.819256 
L 365.196386 508.444013 
L 373.708644 508.064271 
L 382.220902 507.680114 
L 390.73316 507.291556 
L 399.245418 506.898667 
L 407.757676 506.501491 
L 416.269934 506.10006 
L 424.782192 505.694443 
L 433.29445 505.284685 
L 441.806708 504.870824 
L 450.318966 504.45288 
L 458.831224 504.030934 
L 467.343482 503.604999 
L 475.85574 503.175145 
L 484.367998 502.741387 
L 492.880256 502.303786 
L 501.392514 501.862385 
L 509.904772 501.417211 
L 518.41703 500.968331 
L 526.929288 500.515792 
L 535.441546 500.059566 
L 543.953804 499.599782 
L 552.466062 499.136422 
L 560.97832 498.669553 
L 569.490578 498.199237 
L 578.002836 497.725421 
L 586.515094 497.248259 
L 595.027352 496.767717 
L 603.53961 496.283861 
L 612.051868 495.796732 
L 620.564126 495.30635 
L 629.076384 494.812767 
L 637.588642 494.316034 
L 646.1009 493.816141 
L 654.613158 493.313148 
L 663.125416 492.807139 
L 671.637674 492.298074 
L 680.149932 491.786083 
L 688.66219 491.27106 
L 697.174448 490.753206 
L 705.686706 490.232431 
L 714.198964 489.70885 
L 722.711222 489.182454 
L 731.22348 488.653238 
L 739.735738 488.121304 
L 748.247996 487.586743 
L 756.760254 487.049413 
L 765.272512 486.509489 
L 773.78477 485.966993 
L 782.297028 485.421899 
L 790.809286 484.874268 
L 799.321544 484.324099 
L 807.833802 483.77152 
L 816.34606 483.216533 
L 824.858318 482.659033 
L 833.370576 482.099249 
L 841.882834 481.537045 
L 850.395092 480.972561 
L 858.90735 480.405823 
L 867.419608 479.83682 
L 875.931866 479.265589 
L 884.444124 478.692153 
L 892.956382 478.116562 
" clip-path="url(#pcbd3b66aa2)" style="fill: none; stroke: #a55194; stroke-width: 2; stroke-linecap: round"/>
   </g>
   <g id="line2d_42">
    <path d="M 41.730582 520.209963 
L 50.24284 520.052026 
L 58.755098 519.910788 
L 67.267356 519.772965 
L 75.779614 519.628339 
L 84.291872 519.476977 
L 92.80413 519.318926 
L 101.316388 519.154271 
L 109.828646 518.983056 
L 118.340904 518.805369 
L 126.853162 518.621241 
L 135.36542 518.430744 
L 143.877678 518.233946 
L 152.389936 518.030901 
L 160.902194 517.821664 
L 169.414452 517.606297 
L 177.92671 517.384868 
L 186.438968 517.157426 
L 194.951226 516.92403 
L 203.463484 516.684735 
L 211.975742 516.439615 
L 220.488 516.188707 
L 229.000258 515.932059 
L 237.512516 515.669743 
L 246.024774 515.401825 
L 254.537032 515.128344 
L 263.04929 514.849354 
L 271.561548 514.56493 
L 280.073806 514.275102 
L 288.586064 513.97993 
L 297.098322 513.679468 
L 305.61058 513.373765 
L 314.122838 513.062883 
L 322.635096 512.746869 
L 331.147354 512.425789 
L 339.659612 512.099676 
L 348.17187 511.768571 
L 356.684128 511.43251 
L 365.196386 511.091632 
L 373.708644 510.745904 
L 382.220902 510.395413 
L 390.73316 510.040171 
L 399.245418 509.680244 
L 407.757676 509.315699 
L 416.269934 508.946557 
L 424.782192 508.572888 
L 433.29445 508.194733 
L 441.806708 507.812146 
L 450.318966 507.425152 
L 458.831224 507.033822 
L 467.343482 506.638178 
L 475.85574 506.238289 
L 484.367998 505.834182 
L 492.880256 505.425894 
L 501.392514 505.01351 
L 509.904772 504.597024 
L 518.41703 504.176533 
L 526.929288 503.75205 
L 535.441546 503.323587 
L 543.953804 502.89126 
L 552.466062 502.455049 
L 560.97832 502.015037 
L 569.490578 501.571271 
L 578.002836 501.123712 
L 586.515094 500.672513 
L 595.027352 500.217633 
L 603.53961 499.759139 
L 612.051868 499.297106 
L 620.564126 498.831525 
L 629.076384 498.362489 
L 637.588642 497.889979 
L 646.1009 497.41405 
L 654.613158 496.934728 
L 663.125416 496.452128 
L 671.637674 495.966202 
L 680.149932 495.477039 
L 688.66219 494.984622 
L 697.174448 494.489078 
L 705.686706 493.990341 
L 714.198964 493.488562 
L 722.711222 492.983686 
L 731.22348 492.475754 
L 739.735738 491.964842 
L 748.247996 491.451021 
L 756.760254 490.934209 
L 765.272512 490.414528 
L 773.78477 489.892019 
L 782.297028 489.366668 
L 790.809286 488.838547 
L 799.321544 488.307672 
L 807.833802 487.774099 
L 816.34606 487.23786 
L 824.858318 486.698919 
L 833.370576 486.157393 
L 841.882834 485.613305 
L 850.395092 485.066651 
L 858.90735 484.517488 
L 867.419608 483.96584 
L 875.931866 483.411782 
L 884.444124 482.855239 
L 892.956382 482.296377 
" clip-path="url(#pcbd3b66aa2)" style="fill: none; stroke: #de9ed6; stroke-width: 2; stroke-linecap: round"/>
   </g>
   <g id="patch_3">
    <path d="M 41.730582 521.153031 
L 41.730582 51.564121 
" style="fill: none"/>
   </g>
   <g id="patch_4">
    <path d="M 935.517672 521.153031 
L 935.517672 51.564121 
" style="fill: none"/>
   </g>
   <g id="patch_5">
    <path d="M 41.730582 521.153031 
L 935.517672 521.153031 
" style="fill: none"/>
   </g>
   <g id="patch_6">
    <path d="M 41.730582 51.564121 
L 935.517672 51.564121 
" style="fill: none"/>
   </g>
   <g id="patch_7">
    <path d="M 467.343482 90.790148 
Q 467.343482 286.531169 467.343482 480.595139 
" style="fill: none; stroke: #000000; stroke-width: 1.5; stroke-linecap: round"/>
    <path d="M 470.543482 474.195139 
L 467.343482 480.595139 
L 464.143482 474.195139 
" style="fill: none; stroke: #000000; stroke-width: 1.5; stroke-linecap: round"/>
   </g>
   <g id="text_18">
    <!-- Time -->
    <g style="fill: #262626" transform="translate(488.624127 480.786492) scale(0.18 -0.18)">
     <defs>
      <path id="CMR17-54" d="M 3981 4326 
L 288 4326 
L 179 2918 
L 294 2918 
C 378 3976 467 4160 1453 4160 
C 1568 4160 1754 4160 1805 4154 
C 1926 4135 1926 4058 1926 3912 
L 1926 459 
C 1926 230 1907 160 1376 160 
L 1197 160 
L 1197 0 
C 1504 0 1824 0 2138 0 
C 2451 0 2771 0 3078 0 
L 3078 160 
L 2899 160 
C 2368 160 2349 230 2349 459 
L 2349 3912 
C 2349 4052 2349 4129 2464 4154 
C 2515 4160 2701 4160 2816 4160 
C 3795 4160 3891 3976 3974 2918 
L 4090 2918 
L 3981 4326 
z
" transform="scale(0.015625)"/>
      <path id="CMR17-69" d="M 992 3909 
C 992 4049 877 4170 730 4170 
C 589 4170 467 4056 467 3909 
C 467 3769 582 3648 730 3648 
C 870 3648 992 3763 992 3909 
z
M 243 2706 
L 243 2541 
C 602 2541 653 2502 653 2197 
L 653 427 
C 653 184 627 153 218 153 
L 218 -13 
C 371 0 646 0 806 0 
C 960 0 1222 0 1370 -13 
L 1370 153 
C 992 153 979 191 979 420 
L 979 2776 
L 243 2706 
z
" transform="scale(0.015625)"/>
      <path id="CMR17-6d" d="M 4326 1933 
C 4326 2252 4269 2790 3507 2790 
C 3072 2790 2771 2496 2656 2151 
L 2650 2151 
C 2573 2676 2195 2790 1837 2790 
C 1331 2790 1069 2400 973 2144 
L 966 2144 
L 966 2790 
L 211 2720 
L 211 2554 
C 589 2554 646 2515 646 2208 
L 646 428 
C 646 184 621 153 211 153 
L 211 -13 
C 365 0 646 0 813 0 
C 979 0 1267 0 1421 -13 
L 1421 153 
C 1011 153 986 178 986 428 
L 986 1658 
C 986 2247 1344 2688 1792 2688 
C 2266 2688 2317 2266 2317 1958 
L 2317 428 
C 2317 184 2291 153 1882 153 
L 1882 -13 
C 2035 0 2317 0 2483 0 
C 2650 0 2938 0 3091 -13 
L 3091 153 
C 2682 153 2656 178 2656 428 
L 2656 1658 
C 2656 2247 3014 2688 3462 2688 
C 3936 2688 3987 2266 3987 1958 
L 3987 428 
C 3987 184 3962 153 3552 153 
L 3552 -13 
C 3706 0 3987 0 4154 0 
C 4320 0 4608 0 4762 -13 
L 4762 153 
C 4352 153 4326 178 4326 428 
L 4326 1933 
z
" transform="scale(0.015625)"/>
      <path id="CMR17-65" d="M 2438 1472 
C 2464 1498 2464 1511 2464 1576 
C 2464 2238 2118 2816 1389 2816 
C 710 2816 173 2169 173 1383 
C 173 551 781 -64 1459 -64 
C 2176 -64 2458 607 2458 740 
C 2458 784 2419 784 2406 784 
C 2362 784 2355 771 2330 696 
C 2189 265 1837 51 1504 51 
C 1229 51 954 203 781 480 
C 582 803 582 1176 582 1472 
L 2438 1472 
z
M 589 1568 
C 634 2505 1126 2714 1382 2714 
C 1818 2714 2112 2297 2118 1568 
L 589 1568 
z
" transform="scale(0.015625)"/>
     </defs>
     <use xlink:href="#CMR17-54" transform="scale(0.996264)"/>
     <use xlink:href="#CMR17-69" transform="translate(66.509881 0) scale(0.996264)"/>
     <use xlink:href="#CMR17-6d" transform="translate(91.380939 0) scale(0.996264)"/>
     <use xlink:href="#CMR17-65" transform="translate(168.300529 0) scale(0.996264)"/>
    </g>
   </g>
   <g id="legend_1">
    <g id="line2d_43">
     <path d="M 948.117672 197.198434 
L 962.117672 197.198434 
L 976.117672 197.198434 
" style="fill: none; stroke: #393b79; stroke-width: 2; stroke-linecap: round"/>
    </g>
    <g id="text_19">
     <!-- t = 0.00 -->
     <g style="fill: #262626" transform="translate(987.317672 202.098434) scale(0.14 -0.14)">
      <defs>
       <path id="CMR17-74" d="M 966 2560 
L 1862 2560 
L 1862 2725 
L 966 2725 
L 966 3904 
L 851 3904 
C 838 3245 614 2668 70 2668 
L 70 2560 
L 627 2560 
L 627 771 
C 627 650 627 -64 1370 -64 
C 1747 -64 1965 306 1965 777 
L 1965 1140 
L 1850 1140 
L 1850 783 
C 1850 344 1677 51 1408 51 
C 1222 51 966 178 966 758 
L 966 2560 
z
" transform="scale(0.015625)"/>
       <path id="CMR17-3d" d="M 4115 2017 
C 4211 2017 4307 2017 4307 2125 
C 4307 2240 4198 2240 4090 2240 
L 512 2240 
C 403 2240 294 2240 294 2125 
C 294 2017 390 2017 486 2017 
L 4115 2017 
z
M 4090 896 
C 4198 896 4307 896 4307 1011 
C 4307 1119 4211 1119 4115 1119 
L 486 1119 
C 390 1119 294 1119 294 1011 
C 294 896 403 896 512 896 
L 4090 896 
z
" transform="scale(0.015625)"/>
       <path id="CMR17-2e" d="M 1062 261 
C 1062 420 934 522 800 522 
C 672 522 538 420 538 261 
C 538 102 666 0 800 0 
C 928 0 1062 102 1062 261 
z
" transform="scale(0.015625)"/>
      </defs>
      <use xlink:href="#CMR17-74" transform="scale(0.996264)"/>
      <use xlink:href="#CMR17-3d" transform="translate(65.356734 0) scale(0.996264)"/>
      <use xlink:href="#CMR17-30" transform="translate(167.147489 0) scale(0.996264)"/>
      <use xlink:href="#CMR17-2e" transform="translate(212.837966 0) scale(0.996264)"/>
      <use xlink:href="#CMR17-30" transform="translate(237.709025 0) scale(0.996264)"/>
      <use xlink:href="#CMR17-30" transform="translate(283.399502 0) scale(0.996264)"/>
     </g>
    </g>
    <g id="line2d_44">
     <path d="M 948.117672 216.710462 
L 962.117672 216.710462 
L 976.117672 216.710462 
" style="fill: none; stroke: #6b6ecf; stroke-width: 2; stroke-linecap: round"/>
    </g>
    <g id="text_20">
     <!-- t = 10.00 -->
     <g style="fill: #262626" transform="translate(987.317672 221.610462) scale(0.14 -0.14)">
      <use xlink:href="#CMR17-74" transform="scale(0.996264)"/>
      <use xlink:href="#CMR17-3d" transform="translate(65.356734 0) scale(0.996264)"/>
      <use xlink:href="#CMR17-31" transform="translate(167.147489 0) scale(0.996264)"/>
      <use xlink:href="#CMR17-30" transform="translate(212.837966 0) scale(0.996264)"/>
      <use xlink:href="#CMR17-2e" transform="translate(258.528443 0) scale(0.996264)"/>
      <use xlink:href="#CMR17-30" transform="translate(283.399502 0) scale(0.996264)"/>
      <use xlink:href="#CMR17-30" transform="translate(329.089979 0) scale(0.996264)"/>
     </g>
    </g>
    <g id="line2d_45">
     <path d="M 948.117672 236.222491 
L 962.117672 236.222491 
L 976.117672 236.222491 
" style="fill: none; stroke: #637939; stroke-width: 2; stroke-linecap: round"/>
    </g>
    <g id="text_21">
     <!-- t = 50.00 -->
     <g style="fill: #262626" transform="translate(987.317672 241.122491) scale(0.14 -0.14)">
      <use xlink:href="#CMR17-74" transform="scale(0.996264)"/>
      <use xlink:href="#CMR17-3d" transform="translate(65.356734 0) scale(0.996264)"/>
      <use xlink:href="#CMR17-35" transform="translate(167.147489 0) scale(0.996264)"/>
      <use xlink:href="#CMR17-30" transform="translate(212.837966 0) scale(0.996264)"/>
      <use xlink:href="#CMR17-2e" transform="translate(258.528443 0) scale(0.996264)"/>
      <use xlink:href="#CMR17-30" transform="translate(283.399502 0) scale(0.996264)"/>
      <use xlink:href="#CMR17-30" transform="translate(329.089979 0) scale(0.996264)"/>
     </g>
    </g>
    <g id="line2d_46">
     <path d="M 948.117672 255.734519 
L 962.117672 255.734519 
L 976.117672 255.734519 
" style="fill: none; stroke: #b5cf6b; stroke-width: 2; stroke-linecap: round"/>
    </g>
    <g id="text_22">
     <!-- t = 100.00 -->
     <g style="fill: #262626" transform="translate(987.317672 260.634519) scale(0.14 -0.14)">
      <use xlink:href="#CMR17-74" transform="scale(0.996264)"/>
      <use xlink:href="#CMR17-3d" transform="translate(65.356734 0) scale(0.996264)"/>
      <use xlink:href="#CMR17-31" transform="translate(167.147489 0) scale(0.996264)"/>
      <use xlink:href="#CMR17-30" transform="translate(212.837966 0) scale(0.996264)"/>
      <use xlink:href="#CMR17-30" transform="translate(258.528443 0) scale(0.996264)"/>
      <use xlink:href="#CMR17-2e" transform="translate(304.21892 0) scale(0.996264)"/>
      <use xlink:href="#CMR17-30" transform="translate(329.089979 0) scale(0.996264)"/>
      <use xlink:href="#CMR17-30" transform="translate(374.780456 0) scale(0.996264)"/>
     </g>
    </g>
    <g id="line2d_47">
     <path d="M 948.117672 275.246547 
L 962.117672 275.246547 
L 976.117672 275.246547 
" style="fill: none; stroke: #8c6d31; stroke-width: 2; stroke-linecap: round"/>
    </g>
    <g id="text_23">
     <!-- t = 250.00 -->
     <g style="fill: #262626" transform="translate(987.317672 280.146547) scale(0.14 -0.14)">
      <use xlink:href="#CMR17-74" transform="scale(0.996264)"/>
      <use xlink:href="#CMR17-3d" transform="translate(65.356734 0) scale(0.996264)"/>
      <use xlink:href="#CMR17-32" transform="translate(167.147489 0) scale(0.996264)"/>
      <use xlink:href="#CMR17-35" transform="translate(212.837966 0) scale(0.996264)"/>
      <use xlink:href="#CMR17-30" transform="translate(258.528443 0) scale(0.996264)"/>
      <use xlink:href="#CMR17-2e" transform="translate(304.21892 0) scale(0.996264)"/>
      <use xlink:href="#CMR17-30" transform="translate(329.089979 0) scale(0.996264)"/>
      <use xlink:href="#CMR17-30" transform="translate(374.780456 0) scale(0.996264)"/>
     </g>
    </g>
    <g id="line2d_48">
     <path d="M 948.117672 294.758576 
L 962.117672 294.758576 
L 976.117672 294.758576 
" style="fill: none; stroke: #e7cb94; stroke-width: 2; stroke-linecap: round"/>
    </g>
    <g id="text_24">
     <!-- t = 500.00 -->
     <g style="fill: #262626" transform="translate(987.317672 299.658576) scale(0.14 -0.14)">
      <use xlink:href="#CMR17-74" transform="scale(0.996264)"/>
      <use xlink:href="#CMR17-3d" transform="translate(65.356734 0) scale(0.996264)"/>
      <use xlink:href="#CMR17-35" transform="translate(167.147489 0) scale(0.996264)"/>
      <use xlink:href="#CMR17-30" transform="translate(212.837966 0) scale(0.996264)"/>
      <use xlink:href="#CMR17-30" transform="translate(258.528443 0) scale(0.996264)"/>
      <use xlink:href="#CMR17-2e" transform="translate(304.21892 0) scale(0.996264)"/>
      <use xlink:href="#CMR17-30" transform="translate(329.089979 0) scale(0.996264)"/>
      <use xlink:href="#CMR17-30" transform="translate(374.780456 0) scale(0.996264)"/>
     </g>
    </g>
    <g id="line2d_49">
     <path d="M 948.117672 314.270604 
L 962.117672 314.270604 
L 976.117672 314.270604 
" style="fill: none; stroke: #ad494a; stroke-width: 2; stroke-linecap: round"/>
    </g>
    <g id="text_25">
     <!-- t = 750.00 -->
     <g style="fill: #262626" transform="translate(987.317672 319.170604) scale(0.14 -0.14)">
      <use xlink:href="#CMR17-74" transform="scale(0.996264)"/>
      <use xlink:href="#CMR17-3d" transform="translate(65.356734 0) scale(0.996264)"/>
      <use xlink:href="#CMR17-37" transform="translate(167.147489 0) scale(0.996264)"/>
      <use xlink:href="#CMR17-35" transform="translate(212.837966 0) scale(0.996264)"/>
      <use xlink:href="#CMR17-30" transform="translate(258.528443 0) scale(0.996264)"/>
      <use xlink:href="#CMR17-2e" transform="translate(304.21892 0) scale(0.996264)"/>
      <use xlink:href="#CMR17-30" transform="translate(329.089979 0) scale(0.996264)"/>
      <use xlink:href="#CMR17-30" transform="translate(374.780456 0) scale(0.996264)"/>
     </g>
    </g>
    <g id="line2d_50">
     <path d="M 948.117672 333.782633 
L 962.117672 333.782633 
L 976.117672 333.782633 
" style="fill: none; stroke: #e7969c; stroke-width: 2; stroke-linecap: round"/>
    </g>
    <g id="text_26">
     <!-- t = 1000.00 -->
     <g style="fill: #262626" transform="translate(987.317672 338.682633) scale(0.14 -0.14)">
      <use xlink:href="#CMR17-74" transform="scale(0.996264)"/>
      <use xlink:href="#CMR17-3d" transform="translate(65.356734 0) scale(0.996264)"/>
      <use xlink:href="#CMR17-31" transform="translate(167.147489 0) scale(0.996264)"/>
      <use xlink:href="#CMR17-30" transform="translate(212.837966 0) scale(0.996264)"/>
      <use xlink:href="#CMR17-30" transform="translate(258.528443 0) scale(0.996264)"/>
      <use xlink:href="#CMR17-30" transform="translate(304.21892 0) scale(0.996264)"/>
      <use xlink:href="#CMR17-2e" transform="translate(349.909397 0) scale(0.996264)"/>
      <use xlink:href="#CMR17-30" transform="translate(374.780456 0) scale(0.996264)"/>
      <use xlink:href="#CMR17-30" transform="translate(420.470933 0) scale(0.996264)"/>
     </g>
    </g>
    <g id="line2d_51">
     <path d="M 948.117672 353.294661 
L 962.117672 353.294661 
L 976.117672 353.294661 
" style="fill: none; stroke: #a55194; stroke-width: 2; stroke-linecap: round"/>
    </g>
    <g id="text_27">
     <!-- t = 1250.00 -->
     <g style="fill: #262626" transform="translate(987.317672 358.194661) scale(0.14 -0.14)">
      <use xlink:href="#CMR17-74" transform="scale(0.996264)"/>
      <use xlink:href="#CMR17-3d" transform="translate(65.356734 0) scale(0.996264)"/>
      <use xlink:href="#CMR17-31" transform="translate(167.147489 0) scale(0.996264)"/>
      <use xlink:href="#CMR17-32" transform="translate(212.837966 0) scale(0.996264)"/>
      <use xlink:href="#CMR17-35" transform="translate(258.528443 0) scale(0.996264)"/>
      <use xlink:href="#CMR17-30" transform="translate(304.21892 0) scale(0.996264)"/>
      <use xlink:href="#CMR17-2e" transform="translate(349.909397 0) scale(0.996264)"/>
      <use xlink:href="#CMR17-30" transform="translate(374.780456 0) scale(0.996264)"/>
      <use xlink:href="#CMR17-30" transform="translate(420.470933 0) scale(0.996264)"/>
     </g>
    </g>
    <g id="line2d_52">
     <path d="M 948.117672 372.806689 
L 962.117672 372.806689 
L 976.117672 372.806689 
" style="fill: none; stroke: #de9ed6; stroke-width: 2; stroke-linecap: round"/>
    </g>
    <g id="text_28">
     <!-- t = 1500.00 -->
     <g style="fill: #262626" transform="translate(987.317672 377.706689) scale(0.14 -0.14)">
      <use xlink:href="#CMR17-74" transform="scale(0.996264)"/>
      <use xlink:href="#CMR17-3d" transform="translate(65.356734 0) scale(0.996264)"/>
      <use xlink:href="#CMR17-31" transform="translate(167.147489 0) scale(0.996264)"/>
      <use xlink:href="#CMR17-35" transform="translate(212.837966 0) scale(0.996264)"/>
      <use xlink:href="#CMR17-30" transform="translate(258.528443 0) scale(0.996264)"/>
      <use xlink:href="#CMR17-30" transform="translate(304.21892 0) scale(0.996264)"/>
      <use xlink:href="#CMR17-2e" transform="translate(349.909397 0) scale(0.996264)"/>
      <use xlink:href="#CMR17-30" transform="translate(374.780456 0) scale(0.996264)"/>
      <use xlink:href="#CMR17-30" transform="translate(420.470933 0) scale(0.996264)"/>
     </g>
    </g>
   </g>
  </g>
  <g id="text_29">
   <!-- adhesivity -->
   <g style="fill: #262626" transform="translate(501.333696 24.803515) scale(0.192 -0.192)">
    <defs>
     <path id="CMR17-61" d="M 2304 1653 
C 2304 2072 2304 2294 2035 2543 
C 1798 2752 1523 2816 1306 2816 
C 800 2816 435 2407 435 1971 
C 435 1728 627 1728 666 1728 
C 749 1728 896 1778 896 1954 
C 896 2112 774 2181 666 2181 
C 640 2181 608 2174 589 2168 
C 723 2592 1069 2714 1293 2714 
C 1613 2714 1965 2429 1965 1885 
L 1965 1600 
C 1587 1600 1133 1549 774 1357 
C 371 1133 256 813 256 570 
C 256 77 832 -64 1171 -64 
C 1523 -64 1850 139 1990 511 
C 2003 233 2182 -18 2464 -18 
C 2598 -18 2938 70 2938 567 
L 2938 920 
L 2822 920 
L 2822 562 
C 2822 178 2650 128 2566 128 
C 2304 128 2304 458 2304 738 
L 2304 1653 
z
M 1965 870 
C 1965 317 1568 38 1216 38 
C 896 38 646 275 646 570 
C 646 761 730 1100 1101 1305 
C 1408 1478 1760 1504 1965 1504 
L 1965 870 
z
" transform="scale(0.015625)"/>
     <path id="CMR17-64" d="M 1869 4326 
L 1869 4160 
C 2246 4160 2304 4122 2304 3820 
L 2304 2345 
C 2278 2377 2016 2790 1498 2790 
C 845 2790 211 2208 211 1364 
C 211 525 806 -64 1434 -64 
C 1978 -64 2259 337 2291 380 
L 2291 -63 
L 3066 -63 
L 3066 128 
C 2688 128 2630 166 2630 473 
L 2630 4396 
L 1869 4326 
z
M 2291 755 
C 2291 563 2176 390 2029 262 
C 1811 70 1594 38 1472 38 
C 1286 38 621 134 621 1356 
C 621 2612 1363 2688 1530 2688 
C 1824 2688 2061 2522 2208 2291 
C 2291 2157 2291 2138 2291 2023 
L 2291 755 
z
" transform="scale(0.015625)"/>
     <path id="CMR17-68" d="M 2656 1933 
C 2656 2259 2592 2790 1837 2790 
C 1312 2790 1056 2368 979 2157 
L 973 2157 
L 973 4396 
L 211 4326 
L 211 4160 
C 589 4160 646 4122 646 3817 
L 646 426 
C 646 184 621 153 211 153 
L 211 -13 
C 365 0 646 0 813 0 
C 979 0 1267 0 1421 -13 
L 1421 153 
C 1011 153 986 178 986 428 
L 986 1658 
C 986 2247 1344 2688 1792 2688 
C 2266 2688 2317 2266 2317 1958 
L 2317 428 
C 2317 184 2291 153 1882 153 
L 1882 -13 
C 2035 0 2317 0 2483 0 
C 2650 0 2938 0 3091 -13 
L 3091 153 
C 2682 153 2656 178 2656 428 
L 2656 1933 
z
" transform="scale(0.015625)"/>
     <path id="CMR17-73" d="M 1978 2697 
C 1978 2813 1971 2819 1933 2819 
C 1907 2819 1901 2813 1824 2717 
C 1805 2691 1747 2626 1728 2601 
C 1523 2819 1235 2819 1126 2819 
C 416 2819 160 2447 160 2076 
C 160 1498 813 1365 998 1325 
C 1402 1243 1542 1217 1677 1101 
C 1760 1025 1901 884 1901 654 
C 1901 384 1747 38 1158 38 
C 602 38 403 460 288 1021 
C 269 1110 269 1117 218 1117 
C 166 1117 160 1110 160 983 
L 160 63 
C 160 -51 166 -58 205 -58 
C 237 -58 243 -51 275 0 
C 314 57 410 211 448 276 
C 576 103 800 -64 1158 -64 
C 1792 -64 2131 283 2131 784 
C 2131 1112 1958 1285 1875 1362 
C 1683 1561 1459 1606 1190 1657 
C 838 1735 390 1825 390 2217 
C 390 2383 480 2737 1126 2737 
C 1811 2737 1850 2094 1862 1888 
C 1869 1856 1901 1849 1920 1849 
C 1978 1849 1978 1869 1978 1978 
L 1978 2697 
z
" transform="scale(0.015625)"/>
     <path id="CMR17-76" d="M 2502 2163 
C 2560 2304 2662 2560 3034 2560 
L 3034 2726 
C 2912 2726 2752 2726 2630 2726 
C 2496 2726 2285 2726 2157 2732 
L 2157 2566 
C 2317 2553 2406 2477 2406 2311 
C 2406 2253 2406 2240 2368 2151 
L 1664 377 
L 902 2286 
C 864 2369 864 2381 864 2407 
C 864 2560 1075 2560 1171 2560 
L 1171 2732 
C 1018 2726 736 2726 576 2726 
C 403 2726 205 2726 64 2732 
L 64 2560 
C 307 2560 442 2560 518 2362 
L 1446 44 
C 1485 -51 1491 -64 1549 -64 
C 1606 -64 1613 -51 1651 44 
L 2502 2163 
z
" transform="scale(0.015625)"/>
     <path id="CMR17-79" d="M 2496 2197 
C 2656 2586 2944 2586 3034 2586 
L 3034 2752 
C 2912 2752 2752 2752 2630 2752 
C 2496 2752 2285 2752 2157 2758 
L 2157 2592 
C 2400 2573 2406 2394 2406 2343 
C 2406 2280 2394 2248 2362 2171 
L 1664 449 
L 902 2306 
C 870 2382 870 2426 870 2433 
C 870 2573 1018 2586 1171 2586 
L 1171 2758 
C 1018 2752 742 2752 582 2752 
C 410 2752 205 2752 64 2758 
L 64 2586 
C 410 2586 448 2554 531 2350 
L 1485 15 
C 1197 -738 1030 -1178 627 -1178 
C 557 -1178 397 -1159 282 -1044 
C 429 -1031 493 -942 493 -833 
C 493 -725 416 -629 288 -629 
C 147 -629 77 -725 77 -840 
C 77 -1095 339 -1280 627 -1280 
C 998 -1280 1229 -922 1357 -604 
L 2496 2197 
z
" transform="scale(0.015625)"/>
    </defs>
    <use xlink:href="#CMR17-61" transform="scale(0.996264)"/>
    <use xlink:href="#CMR17-64" transform="translate(45.690477 0) scale(0.996264)"/>
    <use xlink:href="#CMR17-68" transform="translate(96.585847 0) scale(0.996264)"/>
    <use xlink:href="#CMR17-65" transform="translate(147.481217 0) scale(0.996264)"/>
    <use xlink:href="#CMR17-73" transform="translate(187.966877 0) scale(0.996264)"/>
    <use xlink:href="#CMR17-69" transform="translate(223.768215 0) scale(0.996264)"/>
    <use xlink:href="#CMR17-76" transform="translate(248.639273 0) scale(0.996264)"/>
    <use xlink:href="#CMR17-69" transform="translate(296.932189 0) scale(0.996264)"/>
    <use xlink:href="#CMR17-74" transform="translate(321.803248 0) scale(0.996264)"/>
    <use xlink:href="#CMR17-79" transform="translate(354.481561 0) scale(0.996264)"/>
   </g>
  </g>
 </g>
 <defs>
  <clipPath id="pcbd3b66aa2">
   <rect x="41.730582" y="51.564121" width="893.78709" height="469.58891"/>
  </clipPath>
 </defs>
</svg>
