<?xml version="1.0" encoding="utf-8" standalone="no"?>
<!DOCTYPE svg PUBLIC "-//W3C//DTD SVG 1.1//EN"
  "http://www.w3.org/Graphics/SVG/1.1/DTD/svg11.dtd">
<svg xmlns:xlink="http://www.w3.org/1999/xlink" width="1080pt" height="576pt" viewBox="0 0 1080 576" xmlns="http://www.w3.org/2000/svg" version="1.1">
 <metadata>
  <rdf:RDF xmlns:dc="http://purl.org/dc/elements/1.1/" xmlns:cc="http://creativecommons.org/ns#" xmlns:rdf="http://www.w3.org/1999/02/22-rdf-syntax-ns#">
   <cc:Work>
    <dc:type rdf:resource="http://purl.org/dc/dcmitype/StillImage"/>
    <dc:date>2024-06-28T14:00:52.741555</dc:date>
    <dc:format>image/svg+xml</dc:format>
    <dc:creator>
     <cc:Agent>
      <dc:title>Matplotlib v3.9.0, https://matplotlib.org/</dc:title>
     </cc:Agent>
    </dc:creator>
   </cc:Work>
  </rdf:RDF>
 </metadata>
 <defs>
  <style type="text/css">*{stroke-linejoin: round; stroke-linecap: butt}</style>
 </defs>
 <g id="figure_1">
  <g id="patch_1">
   <path d="M 0 576 
L 1080 576 
L 1080 0 
L 0 0 
z
" style="fill: #ffffff"/>
  </g>
  <g id="axes_1">
   <g id="patch_2">
    <path d="M 55.387559 521.153031 
L 935.517672 521.153031 
L 935.517672 51.564121 
L 55.387559 51.564121 
z
" style="fill: #eaeaf2"/>
   </g>
   <g id="matplotlib.axis_1">
    <g id="xtick_1">
     <g id="line2d_1">
      <path d="M 55.387559 521.153031 
L 55.387559 51.564121 
" clip-path="url(#p9ac4bc0153)" style="fill: none; stroke: #ffffff; stroke-linecap: round"/>
     </g>
     <g id="line2d_2"/>
     <g id="text_1">
      <!-- $\mathdefault{0.00}$ -->
      <g style="fill: #262626" transform="translate(43.248024 537.838907) scale(0.14 -0.14)">
       <defs>
        <path id="CMR17-30" d="M 2688 2025 
C 2688 2416 2682 3080 2413 3591 
C 2176 4039 1798 4198 1466 4198 
C 1158 4198 768 4058 525 3597 
C 269 3118 243 2524 243 2025 
C 243 1661 250 1106 448 619 
C 723 -39 1216 -128 1466 -128 
C 1760 -128 2208 -7 2470 600 
C 2662 1042 2688 1559 2688 2025 
z
M 1466 -26 
C 1056 -26 813 325 723 812 
C 653 1188 653 1738 653 2096 
C 653 2588 653 2997 736 3387 
C 858 3929 1216 4096 1466 4096 
C 1728 4096 2067 3923 2189 3400 
C 2272 3036 2278 2607 2278 2096 
C 2278 1680 2278 1169 2202 792 
C 2067 95 1690 -26 1466 -26 
z
" transform="scale(0.015625)"/>
        <path id="CMMI12-3a" d="M 1178 307 
C 1178 492 1024 619 870 619 
C 685 619 557 466 557 313 
C 557 128 710 0 864 0 
C 1050 0 1178 153 1178 307 
z
" transform="scale(0.015625)"/>
       </defs>
       <use xlink:href="#CMR17-30" transform="scale(0.996264)"/>
       <use xlink:href="#CMMI12-3a" transform="translate(45.690477 0) scale(0.996264)"/>
       <use xlink:href="#CMR17-30" transform="translate(72.787654 0) scale(0.996264)"/>
       <use xlink:href="#CMR17-30" transform="translate(118.478131 0) scale(0.996264)"/>
      </g>
     </g>
    </g>
    <g id="xtick_2">
     <g id="line2d_3">
      <path d="M 160.164954 521.153031 
L 160.164954 51.564121 
" clip-path="url(#p9ac4bc0153)" style="fill: none; stroke: #ffffff; stroke-linecap: round"/>
     </g>
     <g id="line2d_4"/>
     <g id="text_2">
      <!-- $\mathdefault{0.25}$ -->
      <g style="fill: #262626" transform="translate(148.025418 537.838907) scale(0.14 -0.14)">
       <defs>
        <path id="CMR17-32" d="M 2669 989 
L 2554 989 
C 2490 536 2438 459 2413 420 
C 2381 369 1920 369 1830 369 
L 602 369 
C 832 619 1280 1072 1824 1597 
C 2214 1967 2669 2402 2669 3035 
C 2669 3790 2067 4224 1395 4224 
C 691 4224 262 3604 262 3030 
C 262 2780 448 2748 525 2748 
C 589 2748 781 2787 781 3010 
C 781 3207 614 3264 525 3264 
C 486 3264 448 3258 422 3245 
C 544 3790 915 4058 1306 4058 
C 1862 4058 2227 3617 2227 3035 
C 2227 2479 1901 2000 1536 1584 
L 262 146 
L 262 0 
L 2515 0 
L 2669 989 
z
" transform="scale(0.015625)"/>
        <path id="CMR17-35" d="M 730 3692 
C 794 3666 1056 3584 1325 3584 
C 1920 3584 2246 3911 2432 4100 
C 2432 4157 2432 4192 2394 4192 
C 2387 4192 2374 4192 2323 4163 
C 2099 4058 1837 3973 1517 3973 
C 1325 3973 1037 3999 723 4139 
C 653 4171 640 4171 634 4171 
C 602 4171 595 4164 595 4037 
L 595 2203 
C 595 2089 595 2057 659 2057 
C 691 2057 704 2070 736 2114 
C 941 2401 1222 2522 1542 2522 
C 1766 2522 2246 2382 2246 1289 
C 2246 1085 2246 715 2054 421 
C 1894 159 1645 25 1370 25 
C 947 25 518 320 403 814 
C 429 807 480 795 506 795 
C 589 795 749 840 749 1038 
C 749 1210 627 1280 506 1280 
C 358 1280 262 1190 262 1011 
C 262 454 704 -128 1382 -128 
C 2042 -128 2669 440 2669 1264 
C 2669 2030 2170 2624 1549 2624 
C 1222 2624 947 2503 730 2274 
L 730 3692 
z
" transform="scale(0.015625)"/>
       </defs>
       <use xlink:href="#CMR17-30" transform="scale(0.996264)"/>
       <use xlink:href="#CMMI12-3a" transform="translate(45.690477 0) scale(0.996264)"/>
       <use xlink:href="#CMR17-32" transform="translate(72.787654 0) scale(0.996264)"/>
       <use xlink:href="#CMR17-35" transform="translate(118.478131 0) scale(0.996264)"/>
      </g>
     </g>
    </g>
    <g id="xtick_3">
     <g id="line2d_5">
      <path d="M 264.942348 521.153031 
L 264.942348 51.564121 
" clip-path="url(#p9ac4bc0153)" style="fill: none; stroke: #ffffff; stroke-linecap: round"/>
     </g>
     <g id="line2d_6"/>
     <g id="text_3">
      <!-- $\mathdefault{0.50}$ -->
      <g style="fill: #262626" transform="translate(252.802813 537.838907) scale(0.14 -0.14)">
       <use xlink:href="#CMR17-30" transform="scale(0.996264)"/>
       <use xlink:href="#CMMI12-3a" transform="translate(45.690477 0) scale(0.996264)"/>
       <use xlink:href="#CMR17-35" transform="translate(72.787654 0) scale(0.996264)"/>
       <use xlink:href="#CMR17-30" transform="translate(118.478131 0) scale(0.996264)"/>
      </g>
     </g>
    </g>
    <g id="xtick_4">
     <g id="line2d_7">
      <path d="M 369.719742 521.153031 
L 369.719742 51.564121 
" clip-path="url(#p9ac4bc0153)" style="fill: none; stroke: #ffffff; stroke-linecap: round"/>
     </g>
     <g id="line2d_8"/>
     <g id="text_4">
      <!-- $\mathdefault{0.75}$ -->
      <g style="fill: #262626" transform="translate(357.580207 537.838907) scale(0.14 -0.14)">
       <defs>
        <path id="CMR17-37" d="M 2886 3941 
L 2886 4081 
L 1382 4081 
C 634 4081 621 4165 595 4288 
L 480 4288 
L 294 3094 
L 410 3094 
C 429 3215 474 3540 550 3661 
C 589 3712 1062 3712 1171 3712 
L 2579 3712 
L 1869 2661 
C 1395 1954 1069 999 1069 165 
C 1069 89 1069 -128 1299 -128 
C 1530 -128 1530 89 1530 171 
L 1530 465 
C 1530 1508 1709 2196 2003 2636 
L 2886 3941 
z
" transform="scale(0.015625)"/>
       </defs>
       <use xlink:href="#CMR17-30" transform="scale(0.996264)"/>
       <use xlink:href="#CMMI12-3a" transform="translate(45.690477 0) scale(0.996264)"/>
       <use xlink:href="#CMR17-37" transform="translate(72.787654 0) scale(0.996264)"/>
       <use xlink:href="#CMR17-35" transform="translate(118.478131 0) scale(0.996264)"/>
      </g>
     </g>
    </g>
    <g id="xtick_5">
     <g id="line2d_9">
      <path d="M 474.497137 521.153031 
L 474.497137 51.564121 
" clip-path="url(#p9ac4bc0153)" style="fill: none; stroke: #ffffff; stroke-linecap: round"/>
     </g>
     <g id="line2d_10"/>
     <g id="text_5">
      <!-- $\mathdefault{1.00}$ -->
      <g style="fill: #262626" transform="translate(462.357601 537.838907) scale(0.14 -0.14)">
       <defs>
        <path id="CMR17-31" d="M 1702 4058 
C 1702 4192 1696 4192 1606 4192 
C 1357 3916 979 3827 621 3827 
C 602 3827 570 3827 563 3808 
C 557 3795 557 3782 557 3648 
C 755 3648 1088 3686 1344 3839 
L 1344 461 
C 1344 236 1331 160 781 160 
L 589 160 
L 589 0 
C 896 0 1216 0 1523 0 
C 1830 0 2150 0 2458 0 
L 2458 160 
L 2266 160 
C 1715 160 1702 230 1702 458 
L 1702 4058 
z
" transform="scale(0.015625)"/>
       </defs>
       <use xlink:href="#CMR17-31" transform="scale(0.996264)"/>
       <use xlink:href="#CMMI12-3a" transform="translate(45.690477 0) scale(0.996264)"/>
       <use xlink:href="#CMR17-30" transform="translate(72.787654 0) scale(0.996264)"/>
       <use xlink:href="#CMR17-30" transform="translate(118.478131 0) scale(0.996264)"/>
      </g>
     </g>
    </g>
    <g id="xtick_6">
     <g id="line2d_11">
      <path d="M 579.274531 521.153031 
L 579.274531 51.564121 
" clip-path="url(#p9ac4bc0153)" style="fill: none; stroke: #ffffff; stroke-linecap: round"/>
     </g>
     <g id="line2d_12"/>
     <g id="text_6">
      <!-- $\mathdefault{1.25}$ -->
      <g style="fill: #262626" transform="translate(567.134996 537.838907) scale(0.14 -0.14)">
       <use xlink:href="#CMR17-31" transform="scale(0.996264)"/>
       <use xlink:href="#CMMI12-3a" transform="translate(45.690477 0) scale(0.996264)"/>
       <use xlink:href="#CMR17-32" transform="translate(72.787654 0) scale(0.996264)"/>
       <use xlink:href="#CMR17-35" transform="translate(118.478131 0) scale(0.996264)"/>
      </g>
     </g>
    </g>
    <g id="xtick_7">
     <g id="line2d_13">
      <path d="M 684.051925 521.153031 
L 684.051925 51.564121 
" clip-path="url(#p9ac4bc0153)" style="fill: none; stroke: #ffffff; stroke-linecap: round"/>
     </g>
     <g id="line2d_14"/>
     <g id="text_7">
      <!-- $\mathdefault{1.50}$ -->
      <g style="fill: #262626" transform="translate(671.91239 537.838907) scale(0.14 -0.14)">
       <use xlink:href="#CMR17-31" transform="scale(0.996264)"/>
       <use xlink:href="#CMMI12-3a" transform="translate(45.690477 0) scale(0.996264)"/>
       <use xlink:href="#CMR17-35" transform="translate(72.787654 0) scale(0.996264)"/>
       <use xlink:href="#CMR17-30" transform="translate(118.478131 0) scale(0.996264)"/>
      </g>
     </g>
    </g>
    <g id="xtick_8">
     <g id="line2d_15">
      <path d="M 788.82932 521.153031 
L 788.82932 51.564121 
" clip-path="url(#p9ac4bc0153)" style="fill: none; stroke: #ffffff; stroke-linecap: round"/>
     </g>
     <g id="line2d_16"/>
     <g id="text_8">
      <!-- $\mathdefault{1.75}$ -->
      <g style="fill: #262626" transform="translate(776.689784 537.838907) scale(0.14 -0.14)">
       <use xlink:href="#CMR17-31" transform="scale(0.996264)"/>
       <use xlink:href="#CMMI12-3a" transform="translate(45.690477 0) scale(0.996264)"/>
       <use xlink:href="#CMR17-37" transform="translate(72.787654 0) scale(0.996264)"/>
       <use xlink:href="#CMR17-35" transform="translate(118.478131 0) scale(0.996264)"/>
      </g>
     </g>
    </g>
    <g id="xtick_9">
     <g id="line2d_17">
      <path d="M 893.606714 521.153031 
L 893.606714 51.564121 
" clip-path="url(#p9ac4bc0153)" style="fill: none; stroke: #ffffff; stroke-linecap: round"/>
     </g>
     <g id="line2d_18"/>
     <g id="text_9">
      <!-- $\mathdefault{2.00}$ -->
      <g style="fill: #262626" transform="translate(881.467179 537.838907) scale(0.14 -0.14)">
       <use xlink:href="#CMR17-32" transform="scale(0.996264)"/>
       <use xlink:href="#CMMI12-3a" transform="translate(45.690477 0) scale(0.996264)"/>
       <use xlink:href="#CMR17-30" transform="translate(72.787654 0) scale(0.996264)"/>
       <use xlink:href="#CMR17-30" transform="translate(118.478131 0) scale(0.996264)"/>
      </g>
     </g>
    </g>
    <g id="text_10">
     <!-- $x$ -->
     <g style="fill: #262626" transform="translate(491.017891 555.620524) scale(0.16 -0.16)">
      <defs>
       <path id="CMMI12-78" d="M 3034 2606 
C 2829 2567 2752 2414 2752 2293 
C 2752 2139 2874 2088 2963 2088 
C 3155 2088 3290 2254 3290 2427 
C 3290 2695 2982 2816 2714 2816 
C 2323 2816 2106 2433 2048 2312 
C 1901 2816 1504 2816 1389 2816 
C 736 2816 390 1980 390 1839 
C 390 1814 416 1782 461 1782 
C 512 1782 525 1820 538 1846 
C 755 2555 1184 2689 1370 2689 
C 1658 2689 1715 2420 1715 2267 
C 1715 2127 1677 1980 1600 1673 
L 1382 798 
C 1286 415 1101 64 762 64 
C 730 64 570 64 435 147 
C 666 192 717 383 717 460 
C 717 588 621 664 499 664 
C 346 664 179 530 179 326 
C 179 57 480 -64 755 -64 
C 1062 -64 1280 179 1414 441 
C 1517 64 1837 -64 2074 -64 
C 2726 -64 3072 773 3072 913 
C 3072 945 3046 971 3008 971 
C 2950 971 2944 939 2925 888 
C 2752 326 2381 64 2093 64 
C 1869 64 1747 230 1747 492 
C 1747 632 1773 734 1875 1156 
L 2099 2024 
C 2195 2408 2413 2689 2707 2689 
C 2720 2689 2899 2689 3034 2606 
z
" transform="scale(0.015625)"/>
      </defs>
      <use xlink:href="#CMMI12-78" transform="scale(0.996264)"/>
     </g>
    </g>
   </g>
   <g id="matplotlib.axis_2">
    <g id="ytick_1">
     <g id="line2d_19">
      <path d="M 55.387559 521.153031 
L 935.517672 521.153031 
" clip-path="url(#p9ac4bc0153)" style="fill: none; stroke: #ffffff; stroke-linecap: round"/>
     </g>
     <g id="line2d_20"/>
     <g id="text_11">
      <!-- $\mathdefault{0.000}$ -->
      <g style="fill: #262626" transform="translate(17.28 525.995969) scale(0.14 -0.14)">
       <use xlink:href="#CMR17-30" transform="scale(0.996264)"/>
       <use xlink:href="#CMMI12-3a" transform="translate(45.690477 0) scale(0.996264)"/>
       <use xlink:href="#CMR17-30" transform="translate(72.787654 0) scale(0.996264)"/>
       <use xlink:href="#CMR17-30" transform="translate(118.478131 0) scale(0.996264)"/>
       <use xlink:href="#CMR17-30" transform="translate(164.168608 0) scale(0.996264)"/>
      </g>
     </g>
    </g>
    <g id="ytick_2">
     <g id="line2d_21">
      <path d="M 55.387559 465.177461 
L 935.517672 465.177461 
" clip-path="url(#p9ac4bc0153)" style="fill: none; stroke: #ffffff; stroke-linecap: round"/>
     </g>
     <g id="line2d_22"/>
     <g id="text_12">
      <!-- $\mathdefault{0.025}$ -->
      <g style="fill: #262626" transform="translate(17.28 470.020399) scale(0.14 -0.14)">
       <use xlink:href="#CMR17-30" transform="scale(0.996264)"/>
       <use xlink:href="#CMMI12-3a" transform="translate(45.690477 0) scale(0.996264)"/>
       <use xlink:href="#CMR17-30" transform="translate(72.787654 0) scale(0.996264)"/>
       <use xlink:href="#CMR17-32" transform="translate(118.478131 0) scale(0.996264)"/>
       <use xlink:href="#CMR17-35" transform="translate(164.168608 0) scale(0.996264)"/>
      </g>
     </g>
    </g>
    <g id="ytick_3">
     <g id="line2d_23">
      <path d="M 55.387559 409.201891 
L 935.517672 409.201891 
" clip-path="url(#p9ac4bc0153)" style="fill: none; stroke: #ffffff; stroke-linecap: round"/>
     </g>
     <g id="line2d_24"/>
     <g id="text_13">
      <!-- $\mathdefault{0.050}$ -->
      <g style="fill: #262626" transform="translate(17.28 414.04483) scale(0.14 -0.14)">
       <use xlink:href="#CMR17-30" transform="scale(0.996264)"/>
       <use xlink:href="#CMMI12-3a" transform="translate(45.690477 0) scale(0.996264)"/>
       <use xlink:href="#CMR17-30" transform="translate(72.787654 0) scale(0.996264)"/>
       <use xlink:href="#CMR17-35" transform="translate(118.478131 0) scale(0.996264)"/>
       <use xlink:href="#CMR17-30" transform="translate(164.168608 0) scale(0.996264)"/>
      </g>
     </g>
    </g>
    <g id="ytick_4">
     <g id="line2d_25">
      <path d="M 55.387559 353.226322 
L 935.517672 353.226322 
" clip-path="url(#p9ac4bc0153)" style="fill: none; stroke: #ffffff; stroke-linecap: round"/>
     </g>
     <g id="line2d_26"/>
     <g id="text_14">
      <!-- $\mathdefault{0.075}$ -->
      <g style="fill: #262626" transform="translate(17.28 358.06926) scale(0.14 -0.14)">
       <use xlink:href="#CMR17-30" transform="scale(0.996264)"/>
       <use xlink:href="#CMMI12-3a" transform="translate(45.690477 0) scale(0.996264)"/>
       <use xlink:href="#CMR17-30" transform="translate(72.787654 0) scale(0.996264)"/>
       <use xlink:href="#CMR17-37" transform="translate(118.478131 0) scale(0.996264)"/>
       <use xlink:href="#CMR17-35" transform="translate(164.168608 0) scale(0.996264)"/>
      </g>
     </g>
    </g>
    <g id="ytick_5">
     <g id="line2d_27">
      <path d="M 55.387559 297.250752 
L 935.517672 297.250752 
" clip-path="url(#p9ac4bc0153)" style="fill: none; stroke: #ffffff; stroke-linecap: round"/>
     </g>
     <g id="line2d_28"/>
     <g id="text_15">
      <!-- $\mathdefault{0.100}$ -->
      <g style="fill: #262626" transform="translate(17.28 302.09369) scale(0.14 -0.14)">
       <use xlink:href="#CMR17-30" transform="scale(0.996264)"/>
       <use xlink:href="#CMMI12-3a" transform="translate(45.690477 0) scale(0.996264)"/>
       <use xlink:href="#CMR17-31" transform="translate(72.787654 0) scale(0.996264)"/>
       <use xlink:href="#CMR17-30" transform="translate(118.478131 0) scale(0.996264)"/>
       <use xlink:href="#CMR17-30" transform="translate(164.168608 0) scale(0.996264)"/>
      </g>
     </g>
    </g>
    <g id="ytick_6">
     <g id="line2d_29">
      <path d="M 55.387559 241.275182 
L 935.517672 241.275182 
" clip-path="url(#p9ac4bc0153)" style="fill: none; stroke: #ffffff; stroke-linecap: round"/>
     </g>
     <g id="line2d_30"/>
     <g id="text_16">
      <!-- $\mathdefault{0.125}$ -->
      <g style="fill: #262626" transform="translate(17.28 246.118121) scale(0.14 -0.14)">
       <use xlink:href="#CMR17-30" transform="scale(0.996264)"/>
       <use xlink:href="#CMMI12-3a" transform="translate(45.690477 0) scale(0.996264)"/>
       <use xlink:href="#CMR17-31" transform="translate(72.787654 0) scale(0.996264)"/>
       <use xlink:href="#CMR17-32" transform="translate(118.478131 0) scale(0.996264)"/>
       <use xlink:href="#CMR17-35" transform="translate(164.168608 0) scale(0.996264)"/>
      </g>
     </g>
    </g>
    <g id="ytick_7">
     <g id="line2d_31">
      <path d="M 55.387559 185.299613 
L 935.517672 185.299613 
" clip-path="url(#p9ac4bc0153)" style="fill: none; stroke: #ffffff; stroke-linecap: round"/>
     </g>
     <g id="line2d_32"/>
     <g id="text_17">
      <!-- $\mathdefault{0.150}$ -->
      <g style="fill: #262626" transform="translate(17.28 190.142551) scale(0.14 -0.14)">
       <use xlink:href="#CMR17-30" transform="scale(0.996264)"/>
       <use xlink:href="#CMMI12-3a" transform="translate(45.690477 0) scale(0.996264)"/>
       <use xlink:href="#CMR17-31" transform="translate(72.787654 0) scale(0.996264)"/>
       <use xlink:href="#CMR17-35" transform="translate(118.478131 0) scale(0.996264)"/>
       <use xlink:href="#CMR17-30" transform="translate(164.168608 0) scale(0.996264)"/>
      </g>
     </g>
    </g>
    <g id="ytick_8">
     <g id="line2d_33">
      <path d="M 55.387559 129.324043 
L 935.517672 129.324043 
" clip-path="url(#p9ac4bc0153)" style="fill: none; stroke: #ffffff; stroke-linecap: round"/>
     </g>
     <g id="line2d_34"/>
     <g id="text_18">
      <!-- $\mathdefault{0.175}$ -->
      <g style="fill: #262626" transform="translate(17.28 134.166981) scale(0.14 -0.14)">
       <use xlink:href="#CMR17-30" transform="scale(0.996264)"/>
       <use xlink:href="#CMMI12-3a" transform="translate(45.690477 0) scale(0.996264)"/>
       <use xlink:href="#CMR17-31" transform="translate(72.787654 0) scale(0.996264)"/>
       <use xlink:href="#CMR17-37" transform="translate(118.478131 0) scale(0.996264)"/>
       <use xlink:href="#CMR17-35" transform="translate(164.168608 0) scale(0.996264)"/>
      </g>
     </g>
    </g>
    <g id="ytick_9">
     <g id="line2d_35">
      <path d="M 55.387559 73.348473 
L 935.517672 73.348473 
" clip-path="url(#p9ac4bc0153)" style="fill: none; stroke: #ffffff; stroke-linecap: round"/>
     </g>
     <g id="line2d_36"/>
     <g id="text_19">
      <!-- $\mathdefault{0.200}$ -->
      <g style="fill: #262626" transform="translate(17.28 78.191412) scale(0.14 -0.14)">
       <use xlink:href="#CMR17-30" transform="scale(0.996264)"/>
       <use xlink:href="#CMMI12-3a" transform="translate(45.690477 0) scale(0.996264)"/>
       <use xlink:href="#CMR17-32" transform="translate(72.787654 0) scale(0.996264)"/>
       <use xlink:href="#CMR17-30" transform="translate(118.478131 0) scale(0.996264)"/>
       <use xlink:href="#CMR17-30" transform="translate(164.168608 0) scale(0.996264)"/>
      </g>
     </g>
    </g>
   </g>
   <g id="line2d_37">
    <path d="M 55.387559 73.348473 
L 63.769751 73.348473 
L 72.151942 73.348473 
L 80.534134 73.348473 
L 88.916325 73.348473 
L 97.298517 73.348473 
L 105.680709 73.348473 
L 114.0629 73.348473 
L 122.445092 73.348473 
L 130.827283 73.348473 
L 139.209475 73.348473 
L 147.591666 73.348473 
L 155.973858 73.348473 
L 164.356049 73.348473 
L 172.738241 73.348473 
L 181.120433 73.348473 
L 189.502624 73.348473 
L 197.884816 73.348473 
L 206.267007 73.348473 
L 214.649199 73.348473 
L 223.03139 73.348473 
L 231.413582 73.348473 
L 239.795773 73.348473 
L 248.177965 73.348473 
L 256.560156 73.348473 
L 264.942348 73.348473 
L 273.32454 73.348473 
L 281.706731 73.348473 
L 290.088923 73.348473 
L 298.471114 73.348473 
L 306.853306 73.348473 
L 315.235497 73.348473 
L 323.617689 73.348473 
L 331.99988 73.348473 
L 340.382072 73.348473 
L 348.764263 73.348473 
L 357.146455 73.348473 
L 365.528647 73.348473 
L 373.910838 73.348473 
L 382.29303 73.348473 
L 390.675221 73.348473 
L 399.057413 73.348473 
L 407.439604 73.348473 
L 415.821796 73.348473 
L 424.203987 73.348473 
L 432.586179 73.348473 
L 440.96837 73.348473 
L 449.350562 73.348473 
L 457.732754 73.348473 
L 466.114945 73.348473 
L 474.497137 73.348473 
L 482.879328 73.348473 
L 491.26152 73.348473 
L 499.643711 73.348473 
L 508.025903 73.348473 
L 516.408094 73.348473 
L 524.790286 73.348473 
L 533.172478 73.348473 
L 541.554669 73.348473 
L 549.936861 73.348473 
L 558.319052 73.348473 
L 566.701244 73.348473 
L 575.083435 73.348473 
L 583.465627 73.348473 
L 591.847818 73.348473 
L 600.23001 73.348473 
L 608.612201 73.348473 
L 616.994393 73.348473 
L 625.376585 73.348473 
L 633.758776 73.348473 
L 642.140968 73.348473 
L 650.523159 73.348473 
L 658.905351 73.348473 
L 667.287542 73.348473 
L 675.669734 73.348473 
L 684.051925 73.348473 
L 692.434117 73.348473 
L 700.816308 73.348473 
L 709.1985 73.348473 
L 717.580692 73.348473 
L 725.962883 73.348473 
L 734.345075 73.348473 
L 742.727266 73.348473 
L 751.109458 73.348473 
L 759.491649 73.348473 
L 767.873841 73.348473 
L 776.256032 73.348473 
L 784.638224 73.348473 
L 793.020416 73.348473 
L 801.402607 73.348473 
L 809.784799 73.348473 
L 818.16699 73.348473 
L 826.549182 73.348473 
L 834.931373 73.348473 
L 843.313565 73.348473 
L 851.695756 73.348473 
L 860.077948 73.348473 
L 868.460139 73.348473 
L 876.842331 73.348473 
L 885.224523 73.348473 
L 893.606714 73.348473 
" clip-path="url(#p9ac4bc0153)" style="fill: none; stroke: #393b79; stroke-width: 2; stroke-linecap: round"/>
   </g>
   <g id="line2d_38">
    <path d="M 55.387559 99.978793 
L 63.769751 99.978793 
L 72.151942 99.978793 
L 80.534134 99.978793 
L 88.916325 99.978793 
L 97.298517 99.978793 
L 105.680709 99.978793 
L 114.0629 99.978793 
L 122.445092 99.978793 
L 130.827283 99.978793 
L 139.209475 99.978793 
L 147.591666 99.978793 
L 155.973858 99.978793 
L 164.356049 99.978793 
L 172.738241 99.978793 
L 181.120433 99.978793 
L 189.502624 99.978793 
L 197.884816 99.978793 
L 206.267007 99.978793 
L 214.649199 99.978793 
L 223.03139 99.978793 
L 231.413582 99.978793 
L 239.795773 99.978793 
L 248.177965 99.978793 
L 256.560156 99.978793 
L 264.942348 99.978793 
L 273.32454 99.978793 
L 281.706731 99.978793 
L 290.088923 99.978793 
L 298.471114 99.978793 
L 306.853306 99.978793 
L 315.235497 99.978793 
L 323.617689 99.978793 
L 331.99988 99.978793 
L 340.382072 99.978793 
L 348.764263 99.978793 
L 357.146455 99.978793 
L 365.528647 99.978793 
L 373.910838 99.978793 
L 382.29303 99.978793 
L 390.675221 99.978793 
L 399.057413 99.978793 
L 407.439604 99.978793 
L 415.821796 99.978793 
L 424.203987 99.978793 
L 432.586179 99.978793 
L 440.96837 99.978793 
L 449.350562 99.978793 
L 457.732754 99.978793 
L 466.114945 99.978793 
L 474.497137 99.978793 
L 482.879328 99.978793 
L 491.26152 99.978793 
L 499.643711 99.978793 
L 508.025903 99.978793 
L 516.408094 99.978793 
L 524.790286 99.978793 
L 533.172478 99.978793 
L 541.554669 99.978793 
L 549.936861 99.978793 
L 558.319052 99.978793 
L 566.701244 99.978793 
L 575.083435 99.978793 
L 583.465627 99.978793 
L 591.847818 99.978793 
L 600.23001 99.978793 
L 608.612201 99.978793 
L 616.994393 99.978793 
L 625.376585 99.978793 
L 633.758776 99.978793 
L 642.140968 99.978793 
L 650.523159 99.978793 
L 658.905351 99.978793 
L 667.287542 99.978793 
L 675.669734 99.978793 
L 684.051925 99.978793 
L 692.434117 99.978793 
L 700.816308 99.978793 
L 709.1985 99.978793 
L 717.580692 99.978793 
L 725.962883 99.978793 
L 734.345075 99.978793 
L 742.727266 99.978793 
L 751.109458 99.978793 
L 759.491649 99.978793 
L 767.873841 99.978793 
L 776.256032 99.978793 
L 784.638224 99.978793 
L 793.020416 99.978793 
L 801.402607 99.978793 
L 809.784799 99.978793 
L 818.16699 99.978793 
L 826.549182 99.978793 
L 834.931373 99.978793 
L 843.313565 99.978793 
L 851.695756 99.978793 
L 860.077948 99.978793 
L 868.460139 99.978793 
L 876.842331 99.978793 
L 885.224523 99.978793 
L 893.606714 99.978793 
" clip-path="url(#p9ac4bc0153)" style="fill: none; stroke: #6b6ecf; stroke-width: 2; stroke-linecap: round"/>
   </g>
   <g id="line2d_39">
    <path d="M 55.387559 187.662123 
L 63.769751 187.662123 
L 72.151942 187.662123 
L 80.534134 187.662123 
L 88.916325 187.662123 
L 97.298517 187.662123 
L 105.680709 187.662123 
L 114.0629 187.662123 
L 122.445092 187.662123 
L 130.827283 187.662123 
L 139.209475 187.662123 
L 147.591666 187.662123 
L 155.973858 187.662123 
L 164.356049 187.662123 
L 172.738241 187.662123 
L 181.120433 187.662123 
L 189.502624 187.662123 
L 197.884816 187.662123 
L 206.267007 187.662123 
L 214.649199 187.662123 
L 223.03139 187.662123 
L 231.413582 187.662123 
L 239.795773 187.662123 
L 248.177965 187.662123 
L 256.560156 187.662123 
L 264.942348 187.662123 
L 273.32454 187.662123 
L 281.706731 187.662123 
L 290.088923 187.662123 
L 298.471114 187.662123 
L 306.853306 187.662123 
L 315.235497 187.662123 
L 323.617689 187.662123 
L 331.99988 187.662123 
L 340.382072 187.662123 
L 348.764263 187.662123 
L 357.146455 187.662123 
L 365.528647 187.662123 
L 373.910838 187.662123 
L 382.29303 187.662123 
L 390.675221 187.662123 
L 399.057413 187.662123 
L 407.439604 187.662123 
L 415.821796 187.662123 
L 424.203987 187.662123 
L 432.586179 187.662123 
L 440.96837 187.662123 
L 449.350562 187.662123 
L 457.732754 187.662123 
L 466.114945 187.662123 
L 474.497137 187.662123 
L 482.879328 187.662123 
L 491.26152 187.662123 
L 499.643711 187.662123 
L 508.025903 187.662123 
L 516.408094 187.662123 
L 524.790286 187.662123 
L 533.172478 187.662123 
L 541.554669 187.662123 
L 549.936861 187.662123 
L 558.319052 187.662123 
L 566.701244 187.662123 
L 575.083435 187.662123 
L 583.465627 187.662123 
L 591.847818 187.662123 
L 600.23001 187.662123 
L 608.612201 187.662123 
L 616.994393 187.662123 
L 625.376585 187.662123 
L 633.758776 187.662123 
L 642.140968 187.662123 
L 650.523159 187.662123 
L 658.905351 187.662123 
L 667.287542 187.662123 
L 675.669734 187.662123 
L 684.051925 187.662123 
L 692.434117 187.662123 
L 700.816308 187.662123 
L 709.1985 187.662123 
L 717.580692 187.662123 
L 725.962883 187.662123 
L 734.345075 187.662123 
L 742.727266 187.662123 
L 751.109458 187.662123 
L 759.491649 187.662123 
L 767.873841 187.662123 
L 776.256032 187.662123 
L 784.638224 187.662123 
L 793.020416 187.662123 
L 801.402607 187.662123 
L 809.784799 187.662123 
L 818.16699 187.662123 
L 826.549182 187.662123 
L 834.931373 187.662123 
L 843.313565 187.662123 
L 851.695756 187.662123 
L 860.077948 187.662123 
L 868.460139 187.662123 
L 876.842331 187.662123 
L 885.224523 187.662123 
L 893.606714 187.662123 
" clip-path="url(#p9ac4bc0153)" style="fill: none; stroke: #637939; stroke-width: 2; stroke-linecap: round"/>
   </g>
   <g id="line2d_40">
    <path d="M 55.387559 263.57604 
L 63.769751 263.57604 
L 72.151942 263.57604 
L 80.534134 263.57604 
L 88.916325 263.57604 
L 97.298517 263.57604 
L 105.680709 263.57604 
L 114.0629 263.57604 
L 122.445092 263.57604 
L 130.827283 263.57604 
L 139.209475 263.57604 
L 147.591666 263.57604 
L 155.973858 263.57604 
L 164.356049 263.57604 
L 172.738241 263.57604 
L 181.120433 263.57604 
L 189.502624 263.57604 
L 197.884816 263.57604 
L 206.267007 263.57604 
L 214.649199 263.57604 
L 223.03139 263.57604 
L 231.413582 263.57604 
L 239.795773 263.57604 
L 248.177965 263.57604 
L 256.560156 263.57604 
L 264.942348 263.57604 
L 273.32454 263.57604 
L 281.706731 263.57604 
L 290.088923 263.57604 
L 298.471114 263.57604 
L 306.853306 263.57604 
L 315.235497 263.57604 
L 323.617689 263.57604 
L 331.99988 263.57604 
L 340.382072 263.57604 
L 348.764263 263.57604 
L 357.146455 263.57604 
L 365.528647 263.57604 
L 373.910838 263.57604 
L 382.29303 263.57604 
L 390.675221 263.57604 
L 399.057413 263.57604 
L 407.439604 263.57604 
L 415.821796 263.57604 
L 424.203987 263.57604 
L 432.586179 263.57604 
L 440.96837 263.57604 
L 449.350562 263.57604 
L 457.732754 263.57604 
L 466.114945 263.57604 
L 474.497137 263.57604 
L 482.879328 263.57604 
L 491.26152 263.57604 
L 499.643711 263.57604 
L 508.025903 263.57604 
L 516.408094 263.57604 
L 524.790286 263.57604 
L 533.172478 263.57604 
L 541.554669 263.57604 
L 549.936861 263.57604 
L 558.319052 263.57604 
L 566.701244 263.57604 
L 575.083435 263.57604 
L 583.465627 263.57604 
L 591.847818 263.57604 
L 600.23001 263.57604 
L 608.612201 263.57604 
L 616.994393 263.57604 
L 625.376585 263.57604 
L 633.758776 263.57604 
L 642.140968 263.57604 
L 650.523159 263.57604 
L 658.905351 263.57604 
L 667.287542 263.57604 
L 675.669734 263.57604 
L 684.051925 263.57604 
L 692.434117 263.57604 
L 700.816308 263.57604 
L 709.1985 263.57604 
L 717.580692 263.57604 
L 725.962883 263.57604 
L 734.345075 263.57604 
L 742.727266 263.57604 
L 751.109458 263.57604 
L 759.491649 263.57604 
L 767.873841 263.57604 
L 776.256032 263.57604 
L 784.638224 263.57604 
L 793.020416 263.57604 
L 801.402607 263.57604 
L 809.784799 263.57604 
L 818.16699 263.57604 
L 826.549182 263.57604 
L 834.931373 263.57604 
L 843.313565 263.57604 
L 851.695756 263.57604 
L 860.077948 263.57604 
L 868.460139 263.57604 
L 876.842331 263.57604 
L 885.224523 263.57604 
L 893.606714 263.57604 
" clip-path="url(#p9ac4bc0153)" style="fill: none; stroke: #b5cf6b; stroke-width: 2; stroke-linecap: round"/>
   </g>
   <g id="line2d_41">
    <path d="M 55.387559 382.875736 
L 63.769751 382.875736 
L 72.151942 382.875736 
L 80.534134 382.875736 
L 88.916325 382.875736 
L 97.298517 382.875736 
L 105.680709 382.875736 
L 114.0629 382.875736 
L 122.445092 382.875736 
L 130.827283 382.875736 
L 139.209475 382.875736 
L 147.591666 382.875736 
L 155.973858 382.875736 
L 164.356049 382.875736 
L 172.738241 382.875736 
L 181.120433 382.875736 
L 189.502624 382.875736 
L 197.884816 382.875736 
L 206.267007 382.875736 
L 214.649199 382.875736 
L 223.03139 382.875736 
L 231.413582 382.875736 
L 239.795773 382.875736 
L 248.177965 382.875736 
L 256.560156 382.875736 
L 264.942348 382.875736 
L 273.32454 382.875736 
L 281.706731 382.875736 
L 290.088923 382.875736 
L 298.471114 382.875736 
L 306.853306 382.875736 
L 315.235497 382.875736 
L 323.617689 382.875736 
L 331.99988 382.875736 
L 340.382072 382.875736 
L 348.764263 382.875736 
L 357.146455 382.875736 
L 365.528647 382.875736 
L 373.910838 382.875736 
L 382.29303 382.875736 
L 390.675221 382.875736 
L 399.057413 382.875736 
L 407.439604 382.875736 
L 415.821796 382.875736 
L 424.203987 382.875736 
L 432.586179 382.875736 
L 440.96837 382.875736 
L 449.350562 382.875736 
L 457.732754 382.875736 
L 466.114945 382.875736 
L 474.497137 382.875736 
L 482.879328 382.875736 
L 491.26152 382.875736 
L 499.643711 382.875736 
L 508.025903 382.875736 
L 516.408094 382.875736 
L 524.790286 382.875736 
L 533.172478 382.875736 
L 541.554669 382.875736 
L 549.936861 382.875736 
L 558.319052 382.875736 
L 566.701244 382.875736 
L 575.083435 382.875736 
L 583.465627 382.875736 
L 591.847818 382.875736 
L 600.23001 382.875736 
L 608.612201 382.875736 
L 616.994393 382.875736 
L 625.376585 382.875736 
L 633.758776 382.875736 
L 642.140968 382.875736 
L 650.523159 382.875736 
L 658.905351 382.875736 
L 667.287542 382.875736 
L 675.669734 382.875736 
L 684.051925 382.875736 
L 692.434117 382.875736 
L 700.816308 382.875736 
L 709.1985 382.875736 
L 717.580692 382.875736 
L 725.962883 382.875736 
L 734.345075 382.875736 
L 742.727266 382.875736 
L 751.109458 382.875736 
L 759.491649 382.875736 
L 767.873841 382.875736 
L 776.256032 382.875736 
L 784.638224 382.875736 
L 793.020416 382.875736 
L 801.402607 382.875736 
L 809.784799 382.875736 
L 818.16699 382.875736 
L 826.549182 382.875736 
L 834.931373 382.875736 
L 843.313565 382.875736 
L 851.695756 382.875736 
L 860.077948 382.875736 
L 868.460139 382.875736 
L 876.842331 382.875736 
L 885.224523 382.875736 
L 893.606714 382.875736 
" clip-path="url(#p9ac4bc0153)" style="fill: none; stroke: #8c6d31; stroke-width: 2; stroke-linecap: round"/>
   </g>
   <g id="line2d_42">
    <path d="M 55.387559 455.436657 
L 63.769751 455.436657 
L 72.151942 455.436657 
L 80.534134 455.436657 
L 88.916325 455.436657 
L 97.298517 455.436657 
L 105.680709 455.436657 
L 114.0629 455.436657 
L 122.445092 455.436657 
L 130.827283 455.436657 
L 139.209475 455.436657 
L 147.591666 455.436657 
L 155.973858 455.436657 
L 164.356049 455.436657 
L 172.738241 455.436657 
L 181.120433 455.436657 
L 189.502624 455.436657 
L 197.884816 455.436657 
L 206.267007 455.436657 
L 214.649199 455.436657 
L 223.03139 455.436657 
L 231.413582 455.436657 
L 239.795773 455.436657 
L 248.177965 455.436657 
L 256.560156 455.436657 
L 264.942348 455.436657 
L 273.32454 455.436657 
L 281.706731 455.436657 
L 290.088923 455.436657 
L 298.471114 455.436657 
L 306.853306 455.436657 
L 315.235497 455.436657 
L 323.617689 455.436657 
L 331.99988 455.436657 
L 340.382072 455.436657 
L 348.764263 455.436657 
L 357.146455 455.436657 
L 365.528647 455.436657 
L 373.910838 455.436657 
L 382.29303 455.436657 
L 390.675221 455.436657 
L 399.057413 455.436657 
L 407.439604 455.436657 
L 415.821796 455.436657 
L 424.203987 455.436657 
L 432.586179 455.436657 
L 440.96837 455.436657 
L 449.350562 455.436657 
L 457.732754 455.436657 
L 466.114945 455.436657 
L 474.497137 455.436657 
L 482.879328 455.436657 
L 491.26152 455.436657 
L 499.643711 455.436657 
L 508.025903 455.436657 
L 516.408094 455.436657 
L 524.790286 455.436657 
L 533.172478 455.436657 
L 541.554669 455.436657 
L 549.936861 455.436657 
L 558.319052 455.436657 
L 566.701244 455.436657 
L 575.083435 455.436657 
L 583.465627 455.436657 
L 591.847818 455.436657 
L 600.23001 455.436657 
L 608.612201 455.436657 
L 616.994393 455.436657 
L 625.376585 455.436657 
L 633.758776 455.436657 
L 642.140968 455.436657 
L 650.523159 455.436657 
L 658.905351 455.436657 
L 667.287542 455.436657 
L 675.669734 455.436657 
L 684.051925 455.436657 
L 692.434117 455.436657 
L 700.816308 455.436657 
L 709.1985 455.436657 
L 717.580692 455.436657 
L 725.962883 455.436657 
L 734.345075 455.436657 
L 742.727266 455.436657 
L 751.109458 455.436657 
L 759.491649 455.436657 
L 767.873841 455.436657 
L 776.256032 455.436657 
L 784.638224 455.436657 
L 793.020416 455.436657 
L 801.402607 455.436657 
L 809.784799 455.436657 
L 818.16699 455.436657 
L 826.549182 455.436657 
L 834.931373 455.436657 
L 843.313565 455.436657 
L 851.695756 455.436657 
L 860.077948 455.436657 
L 868.460139 455.436657 
L 876.842331 455.436657 
L 885.224523 455.436657 
L 893.606714 455.436657 
" clip-path="url(#p9ac4bc0153)" style="fill: none; stroke: #e7cb94; stroke-width: 2; stroke-linecap: round"/>
   </g>
   <g id="line2d_43">
    <path d="M 55.387559 483.262066 
L 63.769751 483.262066 
L 72.151942 483.262066 
L 80.534134 483.262066 
L 88.916325 483.262066 
L 97.298517 483.262066 
L 105.680709 483.262066 
L 114.0629 483.262066 
L 122.445092 483.262066 
L 130.827283 483.262066 
L 139.209475 483.262066 
L 147.591666 483.262066 
L 155.973858 483.262066 
L 164.356049 483.262066 
L 172.738241 483.262066 
L 181.120433 483.262066 
L 189.502624 483.262066 
L 197.884816 483.262066 
L 206.267007 483.262066 
L 214.649199 483.262066 
L 223.03139 483.262066 
L 231.413582 483.262066 
L 239.795773 483.262066 
L 248.177965 483.262066 
L 256.560156 483.262066 
L 264.942348 483.262066 
L 273.32454 483.262066 
L 281.706731 483.262066 
L 290.088923 483.262066 
L 298.471114 483.262066 
L 306.853306 483.262066 
L 315.235497 483.262066 
L 323.617689 483.262066 
L 331.99988 483.262066 
L 340.382072 483.262066 
L 348.764263 483.262066 
L 357.146455 483.262066 
L 365.528647 483.262066 
L 373.910838 483.262066 
L 382.29303 483.262066 
L 390.675221 483.262066 
L 399.057413 483.262066 
L 407.439604 483.262066 
L 415.821796 483.262066 
L 424.203987 483.262066 
L 432.586179 483.262066 
L 440.96837 483.262066 
L 449.350562 483.262066 
L 457.732754 483.262066 
L 466.114945 483.262066 
L 474.497137 483.262066 
L 482.879328 483.262066 
L 491.26152 483.262066 
L 499.643711 483.262066 
L 508.025903 483.262066 
L 516.408094 483.262066 
L 524.790286 483.262066 
L 533.172478 483.262066 
L 541.554669 483.262066 
L 549.936861 483.262066 
L 558.319052 483.262066 
L 566.701244 483.262066 
L 575.083435 483.262066 
L 583.465627 483.262066 
L 591.847818 483.262066 
L 600.23001 483.262066 
L 608.612201 483.262066 
L 616.994393 483.262066 
L 625.376585 483.262066 
L 633.758776 483.262066 
L 642.140968 483.262066 
L 650.523159 483.262066 
L 658.905351 483.262066 
L 667.287542 483.262066 
L 675.669734 483.262066 
L 684.051925 483.262066 
L 692.434117 483.262066 
L 700.816308 483.262066 
L 709.1985 483.262066 
L 717.580692 483.262066 
L 725.962883 483.262066 
L 734.345075 483.262066 
L 742.727266 483.262066 
L 751.109458 483.262066 
L 759.491649 483.262066 
L 767.873841 483.262066 
L 776.256032 483.262066 
L 784.638224 483.262066 
L 793.020416 483.262066 
L 801.402607 483.262066 
L 809.784799 483.262066 
L 818.16699 483.262066 
L 826.549182 483.262066 
L 834.931373 483.262066 
L 843.313565 483.262066 
L 851.695756 483.262066 
L 860.077948 483.262066 
L 868.460139 483.262066 
L 876.842331 483.262066 
L 885.224523 483.262066 
L 893.606714 483.262066 
" clip-path="url(#p9ac4bc0153)" style="fill: none; stroke: #ad494a; stroke-width: 2; stroke-linecap: round"/>
   </g>
   <g id="line2d_44">
    <path d="M 55.387559 496.794061 
L 63.769751 496.794061 
L 72.151942 496.794061 
L 80.534134 496.794061 
L 88.916325 496.794061 
L 97.298517 496.794061 
L 105.680709 496.794061 
L 114.0629 496.794061 
L 122.445092 496.794061 
L 130.827283 496.794061 
L 139.209475 496.794061 
L 147.591666 496.794061 
L 155.973858 496.794061 
L 164.356049 496.794061 
L 172.738241 496.794061 
L 181.120433 496.794061 
L 189.502624 496.794061 
L 197.884816 496.794061 
L 206.267007 496.794061 
L 214.649199 496.794061 
L 223.03139 496.794061 
L 231.413582 496.794061 
L 239.795773 496.794061 
L 248.177965 496.794061 
L 256.560156 496.794061 
L 264.942348 496.794061 
L 273.32454 496.794061 
L 281.706731 496.794061 
L 290.088923 496.794061 
L 298.471114 496.794061 
L 306.853306 496.794061 
L 315.235497 496.794061 
L 323.617689 496.794061 
L 331.99988 496.794061 
L 340.382072 496.794061 
L 348.764263 496.794061 
L 357.146455 496.794061 
L 365.528647 496.794061 
L 373.910838 496.794061 
L 382.29303 496.794061 
L 390.675221 496.794061 
L 399.057413 496.794061 
L 407.439604 496.794061 
L 415.821796 496.794061 
L 424.203987 496.794061 
L 432.586179 496.794061 
L 440.96837 496.794061 
L 449.350562 496.794061 
L 457.732754 496.794061 
L 466.114945 496.794061 
L 474.497137 496.794061 
L 482.879328 496.794061 
L 491.26152 496.794061 
L 499.643711 496.794061 
L 508.025903 496.794061 
L 516.408094 496.794061 
L 524.790286 496.794061 
L 533.172478 496.794061 
L 541.554669 496.794061 
L 549.936861 496.794061 
L 558.319052 496.794061 
L 566.701244 496.794061 
L 575.083435 496.794061 
L 583.465627 496.794061 
L 591.847818 496.794061 
L 600.23001 496.794061 
L 608.612201 496.794061 
L 616.994393 496.794061 
L 625.376585 496.794061 
L 633.758776 496.794061 
L 642.140968 496.794061 
L 650.523159 496.794061 
L 658.905351 496.794061 
L 667.287542 496.794061 
L 675.669734 496.794061 
L 684.051925 496.794061 
L 692.434117 496.794061 
L 700.816308 496.794061 
L 709.1985 496.794061 
L 717.580692 496.794061 
L 725.962883 496.794061 
L 734.345075 496.794061 
L 742.727266 496.794061 
L 751.109458 496.794061 
L 759.491649 496.794061 
L 767.873841 496.794061 
L 776.256032 496.794061 
L 784.638224 496.794061 
L 793.020416 496.794061 
L 801.402607 496.794061 
L 809.784799 496.794061 
L 818.16699 496.794061 
L 826.549182 496.794061 
L 834.931373 496.794061 
L 843.313565 496.794061 
L 851.695756 496.794061 
L 860.077948 496.794061 
L 868.460139 496.794061 
L 876.842331 496.794061 
L 885.224523 496.794061 
L 893.606714 496.794061 
" clip-path="url(#p9ac4bc0153)" style="fill: none; stroke: #e7969c; stroke-width: 2; stroke-linecap: round"/>
   </g>
   <g id="line2d_45">
    <path d="M 55.387559 504.37292 
L 63.769751 504.37292 
L 72.151942 504.37292 
L 80.534134 504.37292 
L 88.916325 504.37292 
L 97.298517 504.37292 
L 105.680709 504.37292 
L 114.0629 504.37292 
L 122.445092 504.37292 
L 130.827283 504.37292 
L 139.209475 504.37292 
L 147.591666 504.37292 
L 155.973858 504.37292 
L 164.356049 504.37292 
L 172.738241 504.37292 
L 181.120433 504.37292 
L 189.502624 504.37292 
L 197.884816 504.37292 
L 206.267007 504.37292 
L 214.649199 504.37292 
L 223.03139 504.37292 
L 231.413582 504.37292 
L 239.795773 504.37292 
L 248.177965 504.37292 
L 256.560156 504.37292 
L 264.942348 504.37292 
L 273.32454 504.37292 
L 281.706731 504.37292 
L 290.088923 504.37292 
L 298.471114 504.37292 
L 306.853306 504.37292 
L 315.235497 504.37292 
L 323.617689 504.37292 
L 331.99988 504.37292 
L 340.382072 504.37292 
L 348.764263 504.37292 
L 357.146455 504.37292 
L 365.528647 504.37292 
L 373.910838 504.37292 
L 382.29303 504.37292 
L 390.675221 504.37292 
L 399.057413 504.37292 
L 407.439604 504.37292 
L 415.821796 504.37292 
L 424.203987 504.37292 
L 432.586179 504.37292 
L 440.96837 504.37292 
L 449.350562 504.37292 
L 457.732754 504.37292 
L 466.114945 504.37292 
L 474.497137 504.37292 
L 482.879328 504.37292 
L 491.26152 504.37292 
L 499.643711 504.37292 
L 508.025903 504.37292 
L 516.408094 504.37292 
L 524.790286 504.37292 
L 533.172478 504.37292 
L 541.554669 504.37292 
L 549.936861 504.37292 
L 558.319052 504.37292 
L 566.701244 504.37292 
L 575.083435 504.37292 
L 583.465627 504.37292 
L 591.847818 504.37292 
L 600.23001 504.37292 
L 608.612201 504.37292 
L 616.994393 504.37292 
L 625.376585 504.37292 
L 633.758776 504.37292 
L 642.140968 504.37292 
L 650.523159 504.37292 
L 658.905351 504.37292 
L 667.287542 504.37292 
L 675.669734 504.37292 
L 684.051925 504.37292 
L 692.434117 504.37292 
L 700.816308 504.37292 
L 709.1985 504.37292 
L 717.580692 504.37292 
L 725.962883 504.37292 
L 734.345075 504.37292 
L 742.727266 504.37292 
L 751.109458 504.37292 
L 759.491649 504.37292 
L 767.873841 504.37292 
L 776.256032 504.37292 
L 784.638224 504.37292 
L 793.020416 504.37292 
L 801.402607 504.37292 
L 809.784799 504.37292 
L 818.16699 504.37292 
L 826.549182 504.37292 
L 834.931373 504.37292 
L 843.313565 504.37292 
L 851.695756 504.37292 
L 860.077948 504.37292 
L 868.460139 504.37292 
L 876.842331 504.37292 
L 885.224523 504.37292 
L 893.606714 504.37292 
" clip-path="url(#p9ac4bc0153)" style="fill: none; stroke: #a55194; stroke-width: 2; stroke-linecap: round"/>
   </g>
   <g id="line2d_46">
    <path d="M 55.387559 509.035524 
L 63.769751 509.035524 
L 72.151942 509.035524 
L 80.534134 509.035524 
L 88.916325 509.035524 
L 97.298517 509.035524 
L 105.680709 509.035524 
L 114.0629 509.035524 
L 122.445092 509.035524 
L 130.827283 509.035524 
L 139.209475 509.035524 
L 147.591666 509.035524 
L 155.973858 509.035524 
L 164.356049 509.035524 
L 172.738241 509.035524 
L 181.120433 509.035524 
L 189.502624 509.035524 
L 197.884816 509.035524 
L 206.267007 509.035524 
L 214.649199 509.035524 
L 223.03139 509.035524 
L 231.413582 509.035524 
L 239.795773 509.035524 
L 248.177965 509.035524 
L 256.560156 509.035524 
L 264.942348 509.035524 
L 273.32454 509.035524 
L 281.706731 509.035524 
L 290.088923 509.035524 
L 298.471114 509.035524 
L 306.853306 509.035524 
L 315.235497 509.035524 
L 323.617689 509.035524 
L 331.99988 509.035524 
L 340.382072 509.035524 
L 348.764263 509.035524 
L 357.146455 509.035524 
L 365.528647 509.035524 
L 373.910838 509.035524 
L 382.29303 509.035524 
L 390.675221 509.035524 
L 399.057413 509.035524 
L 407.439604 509.035524 
L 415.821796 509.035524 
L 424.203987 509.035524 
L 432.586179 509.035524 
L 440.96837 509.035524 
L 449.350562 509.035524 
L 457.732754 509.035524 
L 466.114945 509.035524 
L 474.497137 509.035524 
L 482.879328 509.035524 
L 491.26152 509.035524 
L 499.643711 509.035524 
L 508.025903 509.035524 
L 516.408094 509.035524 
L 524.790286 509.035524 
L 533.172478 509.035524 
L 541.554669 509.035524 
L 549.936861 509.035524 
L 558.319052 509.035524 
L 566.701244 509.035524 
L 575.083435 509.035524 
L 583.465627 509.035524 
L 591.847818 509.035524 
L 600.23001 509.035524 
L 608.612201 509.035524 
L 616.994393 509.035524 
L 625.376585 509.035524 
L 633.758776 509.035524 
L 642.140968 509.035524 
L 650.523159 509.035524 
L 658.905351 509.035524 
L 667.287542 509.035524 
L 675.669734 509.035524 
L 684.051925 509.035524 
L 692.434117 509.035524 
L 700.816308 509.035524 
L 709.1985 509.035524 
L 717.580692 509.035524 
L 725.962883 509.035524 
L 734.345075 509.035524 
L 742.727266 509.035524 
L 751.109458 509.035524 
L 759.491649 509.035524 
L 767.873841 509.035524 
L 776.256032 509.035524 
L 784.638224 509.035524 
L 793.020416 509.035524 
L 801.402607 509.035524 
L 809.784799 509.035524 
L 818.16699 509.035524 
L 826.549182 509.035524 
L 834.931373 509.035524 
L 843.313565 509.035524 
L 851.695756 509.035524 
L 860.077948 509.035524 
L 868.460139 509.035524 
L 876.842331 509.035524 
L 885.224523 509.035524 
L 893.606714 509.035524 
" clip-path="url(#p9ac4bc0153)" style="fill: none; stroke: #de9ed6; stroke-width: 2; stroke-linecap: round"/>
   </g>
   <g id="patch_3">
    <path d="M 55.387559 521.153031 
L 55.387559 51.564121 
" style="fill: none"/>
   </g>
   <g id="patch_4">
    <path d="M 935.517672 521.153031 
L 935.517672 51.564121 
" style="fill: none"/>
   </g>
   <g id="patch_5">
    <path d="M 55.387559 521.153031 
L 935.517672 521.153031 
" style="fill: none"/>
   </g>
   <g id="patch_6">
    <path d="M 55.387559 51.564121 
L 935.517672 51.564121 
" style="fill: none"/>
   </g>
   <g id="patch_7">
    <path d="M 474.497137 120.129555 
Q 474.497137 279.998157 474.497137 438.189708 
" style="fill: none; stroke: #000000; stroke-width: 1.5; stroke-linecap: round"/>
    <path d="M 477.697137 431.789708 
L 474.497137 438.189708 
L 471.297137 431.789708 
" style="fill: none; stroke: #000000; stroke-width: 1.5; stroke-linecap: round"/>
   </g>
   <g id="text_20">
    <!-- Time -->
    <g style="fill: #262626" transform="translate(495.452616 438.376776) scale(0.18 -0.18)">
     <defs>
      <path id="CMR17-54" d="M 3981 4326 
L 288 4326 
L 179 2918 
L 294 2918 
C 378 3976 467 4160 1453 4160 
C 1568 4160 1754 4160 1805 4154 
C 1926 4135 1926 4058 1926 3912 
L 1926 459 
C 1926 230 1907 160 1376 160 
L 1197 160 
L 1197 0 
C 1504 0 1824 0 2138 0 
C 2451 0 2771 0 3078 0 
L 3078 160 
L 2899 160 
C 2368 160 2349 230 2349 459 
L 2349 3912 
C 2349 4052 2349 4129 2464 4154 
C 2515 4160 2701 4160 2816 4160 
C 3795 4160 3891 3976 3974 2918 
L 4090 2918 
L 3981 4326 
z
" transform="scale(0.015625)"/>
      <path id="CMR17-69" d="M 992 3909 
C 992 4049 877 4170 730 4170 
C 589 4170 467 4056 467 3909 
C 467 3769 582 3648 730 3648 
C 870 3648 992 3763 992 3909 
z
M 243 2706 
L 243 2541 
C 602 2541 653 2502 653 2197 
L 653 427 
C 653 184 627 153 218 153 
L 218 -13 
C 371 0 646 0 806 0 
C 960 0 1222 0 1370 -13 
L 1370 153 
C 992 153 979 191 979 420 
L 979 2776 
L 243 2706 
z
" transform="scale(0.015625)"/>
      <path id="CMR17-6d" d="M 4326 1933 
C 4326 2252 4269 2790 3507 2790 
C 3072 2790 2771 2496 2656 2151 
L 2650 2151 
C 2573 2676 2195 2790 1837 2790 
C 1331 2790 1069 2400 973 2144 
L 966 2144 
L 966 2790 
L 211 2720 
L 211 2554 
C 589 2554 646 2515 646 2208 
L 646 428 
C 646 184 621 153 211 153 
L 211 -13 
C 365 0 646 0 813 0 
C 979 0 1267 0 1421 -13 
L 1421 153 
C 1011 153 986 178 986 428 
L 986 1658 
C 986 2247 1344 2688 1792 2688 
C 2266 2688 2317 2266 2317 1958 
L 2317 428 
C 2317 184 2291 153 1882 153 
L 1882 -13 
C 2035 0 2317 0 2483 0 
C 2650 0 2938 0 3091 -13 
L 3091 153 
C 2682 153 2656 178 2656 428 
L 2656 1658 
C 2656 2247 3014 2688 3462 2688 
C 3936 2688 3987 2266 3987 1958 
L 3987 428 
C 3987 184 3962 153 3552 153 
L 3552 -13 
C 3706 0 3987 0 4154 0 
C 4320 0 4608 0 4762 -13 
L 4762 153 
C 4352 153 4326 178 4326 428 
L 4326 1933 
z
" transform="scale(0.015625)"/>
      <path id="CMR17-65" d="M 2438 1472 
C 2464 1498 2464 1511 2464 1576 
C 2464 2238 2118 2816 1389 2816 
C 710 2816 173 2169 173 1383 
C 173 551 781 -64 1459 -64 
C 2176 -64 2458 607 2458 740 
C 2458 784 2419 784 2406 784 
C 2362 784 2355 771 2330 696 
C 2189 265 1837 51 1504 51 
C 1229 51 954 203 781 480 
C 582 803 582 1176 582 1472 
L 2438 1472 
z
M 589 1568 
C 634 2505 1126 2714 1382 2714 
C 1818 2714 2112 2297 2118 1568 
L 589 1568 
z
" transform="scale(0.015625)"/>
     </defs>
     <use xlink:href="#CMR17-54" transform="scale(0.996264)"/>
     <use xlink:href="#CMR17-69" transform="translate(66.509881 0) scale(0.996264)"/>
     <use xlink:href="#CMR17-6d" transform="translate(91.380939 0) scale(0.996264)"/>
     <use xlink:href="#CMR17-65" transform="translate(168.300529 0) scale(0.996264)"/>
    </g>
   </g>
   <g id="legend_1">
    <g id="line2d_47">
     <path d="M 948.117672 197.198434 
L 962.117672 197.198434 
L 976.117672 197.198434 
" style="fill: none; stroke: #393b79; stroke-width: 2; stroke-linecap: round"/>
    </g>
    <g id="text_21">
     <!-- t = 0.00 -->
     <g style="fill: #262626" transform="translate(987.317672 202.098434) scale(0.14 -0.14)">
      <defs>
       <path id="CMR17-74" d="M 966 2560 
L 1862 2560 
L 1862 2725 
L 966 2725 
L 966 3904 
L 851 3904 
C 838 3245 614 2668 70 2668 
L 70 2560 
L 627 2560 
L 627 771 
C 627 650 627 -64 1370 -64 
C 1747 -64 1965 306 1965 777 
L 1965 1140 
L 1850 1140 
L 1850 783 
C 1850 344 1677 51 1408 51 
C 1222 51 966 178 966 758 
L 966 2560 
z
" transform="scale(0.015625)"/>
       <path id="CMR17-3d" d="M 4115 2017 
C 4211 2017 4307 2017 4307 2125 
C 4307 2240 4198 2240 4090 2240 
L 512 2240 
C 403 2240 294 2240 294 2125 
C 294 2017 390 2017 486 2017 
L 4115 2017 
z
M 4090 896 
C 4198 896 4307 896 4307 1011 
C 4307 1119 4211 1119 4115 1119 
L 486 1119 
C 390 1119 294 1119 294 1011 
C 294 896 403 896 512 896 
L 4090 896 
z
" transform="scale(0.015625)"/>
       <path id="CMR17-2e" d="M 1062 261 
C 1062 420 934 522 800 522 
C 672 522 538 420 538 261 
C 538 102 666 0 800 0 
C 928 0 1062 102 1062 261 
z
" transform="scale(0.015625)"/>
      </defs>
      <use xlink:href="#CMR17-74" transform="scale(0.996264)"/>
      <use xlink:href="#CMR17-3d" transform="translate(65.356734 0) scale(0.996264)"/>
      <use xlink:href="#CMR17-30" transform="translate(167.147489 0) scale(0.996264)"/>
      <use xlink:href="#CMR17-2e" transform="translate(212.837966 0) scale(0.996264)"/>
      <use xlink:href="#CMR17-30" transform="translate(237.709025 0) scale(0.996264)"/>
      <use xlink:href="#CMR17-30" transform="translate(283.399502 0) scale(0.996264)"/>
     </g>
    </g>
    <g id="line2d_48">
     <path d="M 948.117672 216.710462 
L 962.117672 216.710462 
L 976.117672 216.710462 
" style="fill: none; stroke: #6b6ecf; stroke-width: 2; stroke-linecap: round"/>
    </g>
    <g id="text_22">
     <!-- t = 10.00 -->
     <g style="fill: #262626" transform="translate(987.317672 221.610462) scale(0.14 -0.14)">
      <use xlink:href="#CMR17-74" transform="scale(0.996264)"/>
      <use xlink:href="#CMR17-3d" transform="translate(65.356734 0) scale(0.996264)"/>
      <use xlink:href="#CMR17-31" transform="translate(167.147489 0) scale(0.996264)"/>
      <use xlink:href="#CMR17-30" transform="translate(212.837966 0) scale(0.996264)"/>
      <use xlink:href="#CMR17-2e" transform="translate(258.528443 0) scale(0.996264)"/>
      <use xlink:href="#CMR17-30" transform="translate(283.399502 0) scale(0.996264)"/>
      <use xlink:href="#CMR17-30" transform="translate(329.089979 0) scale(0.996264)"/>
     </g>
    </g>
    <g id="line2d_49">
     <path d="M 948.117672 236.222491 
L 962.117672 236.222491 
L 976.117672 236.222491 
" style="fill: none; stroke: #637939; stroke-width: 2; stroke-linecap: round"/>
    </g>
    <g id="text_23">
     <!-- t = 50.00 -->
     <g style="fill: #262626" transform="translate(987.317672 241.122491) scale(0.14 -0.14)">
      <use xlink:href="#CMR17-74" transform="scale(0.996264)"/>
      <use xlink:href="#CMR17-3d" transform="translate(65.356734 0) scale(0.996264)"/>
      <use xlink:href="#CMR17-35" transform="translate(167.147489 0) scale(0.996264)"/>
      <use xlink:href="#CMR17-30" transform="translate(212.837966 0) scale(0.996264)"/>
      <use xlink:href="#CMR17-2e" transform="translate(258.528443 0) scale(0.996264)"/>
      <use xlink:href="#CMR17-30" transform="translate(283.399502 0) scale(0.996264)"/>
      <use xlink:href="#CMR17-30" transform="translate(329.089979 0) scale(0.996264)"/>
     </g>
    </g>
    <g id="line2d_50">
     <path d="M 948.117672 255.734519 
L 962.117672 255.734519 
L 976.117672 255.734519 
" style="fill: none; stroke: #b5cf6b; stroke-width: 2; stroke-linecap: round"/>
    </g>
    <g id="text_24">
     <!-- t = 100.00 -->
     <g style="fill: #262626" transform="translate(987.317672 260.634519) scale(0.14 -0.14)">
      <use xlink:href="#CMR17-74" transform="scale(0.996264)"/>
      <use xlink:href="#CMR17-3d" transform="translate(65.356734 0) scale(0.996264)"/>
      <use xlink:href="#CMR17-31" transform="translate(167.147489 0) scale(0.996264)"/>
      <use xlink:href="#CMR17-30" transform="translate(212.837966 0) scale(0.996264)"/>
      <use xlink:href="#CMR17-30" transform="translate(258.528443 0) scale(0.996264)"/>
      <use xlink:href="#CMR17-2e" transform="translate(304.21892 0) scale(0.996264)"/>
      <use xlink:href="#CMR17-30" transform="translate(329.089979 0) scale(0.996264)"/>
      <use xlink:href="#CMR17-30" transform="translate(374.780456 0) scale(0.996264)"/>
     </g>
    </g>
    <g id="line2d_51">
     <path d="M 948.117672 275.246547 
L 962.117672 275.246547 
L 976.117672 275.246547 
" style="fill: none; stroke: #8c6d31; stroke-width: 2; stroke-linecap: round"/>
    </g>
    <g id="text_25">
     <!-- t = 250.00 -->
     <g style="fill: #262626" transform="translate(987.317672 280.146547) scale(0.14 -0.14)">
      <use xlink:href="#CMR17-74" transform="scale(0.996264)"/>
      <use xlink:href="#CMR17-3d" transform="translate(65.356734 0) scale(0.996264)"/>
      <use xlink:href="#CMR17-32" transform="translate(167.147489 0) scale(0.996264)"/>
      <use xlink:href="#CMR17-35" transform="translate(212.837966 0) scale(0.996264)"/>
      <use xlink:href="#CMR17-30" transform="translate(258.528443 0) scale(0.996264)"/>
      <use xlink:href="#CMR17-2e" transform="translate(304.21892 0) scale(0.996264)"/>
      <use xlink:href="#CMR17-30" transform="translate(329.089979 0) scale(0.996264)"/>
      <use xlink:href="#CMR17-30" transform="translate(374.780456 0) scale(0.996264)"/>
     </g>
    </g>
    <g id="line2d_52">
     <path d="M 948.117672 294.758576 
L 962.117672 294.758576 
L 976.117672 294.758576 
" style="fill: none; stroke: #e7cb94; stroke-width: 2; stroke-linecap: round"/>
    </g>
    <g id="text_26">
     <!-- t = 500.00 -->
     <g style="fill: #262626" transform="translate(987.317672 299.658576) scale(0.14 -0.14)">
      <use xlink:href="#CMR17-74" transform="scale(0.996264)"/>
      <use xlink:href="#CMR17-3d" transform="translate(65.356734 0) scale(0.996264)"/>
      <use xlink:href="#CMR17-35" transform="translate(167.147489 0) scale(0.996264)"/>
      <use xlink:href="#CMR17-30" transform="translate(212.837966 0) scale(0.996264)"/>
      <use xlink:href="#CMR17-30" transform="translate(258.528443 0) scale(0.996264)"/>
      <use xlink:href="#CMR17-2e" transform="translate(304.21892 0) scale(0.996264)"/>
      <use xlink:href="#CMR17-30" transform="translate(329.089979 0) scale(0.996264)"/>
      <use xlink:href="#CMR17-30" transform="translate(374.780456 0) scale(0.996264)"/>
     </g>
    </g>
    <g id="line2d_53">
     <path d="M 948.117672 314.270604 
L 962.117672 314.270604 
L 976.117672 314.270604 
" style="fill: none; stroke: #ad494a; stroke-width: 2; stroke-linecap: round"/>
    </g>
    <g id="text_27">
     <!-- t = 750.00 -->
     <g style="fill: #262626" transform="translate(987.317672 319.170604) scale(0.14 -0.14)">
      <use xlink:href="#CMR17-74" transform="scale(0.996264)"/>
      <use xlink:href="#CMR17-3d" transform="translate(65.356734 0) scale(0.996264)"/>
      <use xlink:href="#CMR17-37" transform="translate(167.147489 0) scale(0.996264)"/>
      <use xlink:href="#CMR17-35" transform="translate(212.837966 0) scale(0.996264)"/>
      <use xlink:href="#CMR17-30" transform="translate(258.528443 0) scale(0.996264)"/>
      <use xlink:href="#CMR17-2e" transform="translate(304.21892 0) scale(0.996264)"/>
      <use xlink:href="#CMR17-30" transform="translate(329.089979 0) scale(0.996264)"/>
      <use xlink:href="#CMR17-30" transform="translate(374.780456 0) scale(0.996264)"/>
     </g>
    </g>
    <g id="line2d_54">
     <path d="M 948.117672 333.782633 
L 962.117672 333.782633 
L 976.117672 333.782633 
" style="fill: none; stroke: #e7969c; stroke-width: 2; stroke-linecap: round"/>
    </g>
    <g id="text_28">
     <!-- t = 1000.00 -->
     <g style="fill: #262626" transform="translate(987.317672 338.682633) scale(0.14 -0.14)">
      <use xlink:href="#CMR17-74" transform="scale(0.996264)"/>
      <use xlink:href="#CMR17-3d" transform="translate(65.356734 0) scale(0.996264)"/>
      <use xlink:href="#CMR17-31" transform="translate(167.147489 0) scale(0.996264)"/>
      <use xlink:href="#CMR17-30" transform="translate(212.837966 0) scale(0.996264)"/>
      <use xlink:href="#CMR17-30" transform="translate(258.528443 0) scale(0.996264)"/>
      <use xlink:href="#CMR17-30" transform="translate(304.21892 0) scale(0.996264)"/>
      <use xlink:href="#CMR17-2e" transform="translate(349.909397 0) scale(0.996264)"/>
      <use xlink:href="#CMR17-30" transform="translate(374.780456 0) scale(0.996264)"/>
      <use xlink:href="#CMR17-30" transform="translate(420.470933 0) scale(0.996264)"/>
     </g>
    </g>
    <g id="line2d_55">
     <path d="M 948.117672 353.294661 
L 962.117672 353.294661 
L 976.117672 353.294661 
" style="fill: none; stroke: #a55194; stroke-width: 2; stroke-linecap: round"/>
    </g>
    <g id="text_29">
     <!-- t = 1250.00 -->
     <g style="fill: #262626" transform="translate(987.317672 358.194661) scale(0.14 -0.14)">
      <use xlink:href="#CMR17-74" transform="scale(0.996264)"/>
      <use xlink:href="#CMR17-3d" transform="translate(65.356734 0) scale(0.996264)"/>
      <use xlink:href="#CMR17-31" transform="translate(167.147489 0) scale(0.996264)"/>
      <use xlink:href="#CMR17-32" transform="translate(212.837966 0) scale(0.996264)"/>
      <use xlink:href="#CMR17-35" transform="translate(258.528443 0) scale(0.996264)"/>
      <use xlink:href="#CMR17-30" transform="translate(304.21892 0) scale(0.996264)"/>
      <use xlink:href="#CMR17-2e" transform="translate(349.909397 0) scale(0.996264)"/>
      <use xlink:href="#CMR17-30" transform="translate(374.780456 0) scale(0.996264)"/>
      <use xlink:href="#CMR17-30" transform="translate(420.470933 0) scale(0.996264)"/>
     </g>
    </g>
    <g id="line2d_56">
     <path d="M 948.117672 372.806689 
L 962.117672 372.806689 
L 976.117672 372.806689 
" style="fill: none; stroke: #de9ed6; stroke-width: 2; stroke-linecap: round"/>
    </g>
    <g id="text_30">
     <!-- t = 1500.00 -->
     <g style="fill: #262626" transform="translate(987.317672 377.706689) scale(0.14 -0.14)">
      <use xlink:href="#CMR17-74" transform="scale(0.996264)"/>
      <use xlink:href="#CMR17-3d" transform="translate(65.356734 0) scale(0.996264)"/>
      <use xlink:href="#CMR17-31" transform="translate(167.147489 0) scale(0.996264)"/>
      <use xlink:href="#CMR17-35" transform="translate(212.837966 0) scale(0.996264)"/>
      <use xlink:href="#CMR17-30" transform="translate(258.528443 0) scale(0.996264)"/>
      <use xlink:href="#CMR17-30" transform="translate(304.21892 0) scale(0.996264)"/>
      <use xlink:href="#CMR17-2e" transform="translate(349.909397 0) scale(0.996264)"/>
      <use xlink:href="#CMR17-30" transform="translate(374.780456 0) scale(0.996264)"/>
      <use xlink:href="#CMR17-30" transform="translate(420.470933 0) scale(0.996264)"/>
     </g>
    </g>
   </g>
  </g>
  <g id="text_31">
   <!-- Reactivity -->
   <g style="fill: #262626" transform="translate(500.761015 24.803515) scale(0.192 -0.192)">
    <defs>
     <path id="CMR17-52" d="M 2509 2146 
C 3117 2268 3629 2676 3629 3186 
C 3629 3785 2950 4326 2054 4326 
L 333 4326 
L 333 4160 
C 774 4160 845 4160 845 3873 
L 845 415 
C 845 128 774 128 333 128 
L 333 -26 
C 518 -26 851 -26 1050 -26 
C 1248 -26 1581 -26 1766 -26 
L 1766 128 
C 1325 128 1254 128 1254 417 
L 1254 2112 
L 2003 2112 
C 2368 2112 2573 1964 2662 1881 
C 2918 1632 2918 1459 2918 1024 
C 2918 595 2918 377 3110 160 
C 3354 -102 3680 -128 3821 -128 
C 4294 -128 4365 396 4365 503 
C 4365 540 4365 585 4307 585 
C 4256 585 4250 547 4250 522 
C 4218 112 4032 -26 3834 -26 
C 3482 -26 3443 375 3405 764 
C 3386 898 3373 993 3360 1133 
C 3322 1452 3270 1917 2509 2146 
z
M 1984 2214 
L 1254 2214 
L 1254 3913 
C 1254 4129 1267 4160 1523 4160 
L 1990 4160 
C 2522 4160 3142 3977 3142 3190 
C 3142 2372 2464 2214 1984 2214 
z
" transform="scale(0.015625)"/>
     <path id="CMR17-61" d="M 2304 1653 
C 2304 2072 2304 2294 2035 2543 
C 1798 2752 1523 2816 1306 2816 
C 800 2816 435 2407 435 1971 
C 435 1728 627 1728 666 1728 
C 749 1728 896 1778 896 1954 
C 896 2112 774 2181 666 2181 
C 640 2181 608 2174 589 2168 
C 723 2592 1069 2714 1293 2714 
C 1613 2714 1965 2429 1965 1885 
L 1965 1600 
C 1587 1600 1133 1549 774 1357 
C 371 1133 256 813 256 570 
C 256 77 832 -64 1171 -64 
C 1523 -64 1850 139 1990 511 
C 2003 233 2182 -18 2464 -18 
C 2598 -18 2938 70 2938 567 
L 2938 920 
L 2822 920 
L 2822 562 
C 2822 178 2650 128 2566 128 
C 2304 128 2304 458 2304 738 
L 2304 1653 
z
M 1965 870 
C 1965 317 1568 38 1216 38 
C 896 38 646 275 646 570 
C 646 761 730 1100 1101 1305 
C 1408 1478 1760 1504 1965 1504 
L 1965 870 
z
" transform="scale(0.015625)"/>
     <path id="CMR17-63" d="M 2234 2240 
C 2112 2240 1933 2240 1933 2017 
C 1933 1838 2080 1787 2163 1787 
C 2208 1787 2394 1807 2394 2024 
C 2394 2467 1958 2803 1466 2803 
C 787 2803 211 2178 211 1363 
C 211 516 813 -64 1466 -64 
C 2259 -64 2458 677 2458 748 
C 2458 774 2451 793 2406 793 
C 2362 793 2355 787 2330 703 
C 2163 180 1798 51 1523 51 
C 1114 51 621 427 621 1369 
C 621 2338 1094 2688 1472 2688 
C 1722 2688 2093 2573 2234 2240 
z
" transform="scale(0.015625)"/>
     <path id="CMR17-76" d="M 2502 2163 
C 2560 2304 2662 2560 3034 2560 
L 3034 2726 
C 2912 2726 2752 2726 2630 2726 
C 2496 2726 2285 2726 2157 2732 
L 2157 2566 
C 2317 2553 2406 2477 2406 2311 
C 2406 2253 2406 2240 2368 2151 
L 1664 377 
L 902 2286 
C 864 2369 864 2381 864 2407 
C 864 2560 1075 2560 1171 2560 
L 1171 2732 
C 1018 2726 736 2726 576 2726 
C 403 2726 205 2726 64 2732 
L 64 2560 
C 307 2560 442 2560 518 2362 
L 1446 44 
C 1485 -51 1491 -64 1549 -64 
C 1606 -64 1613 -51 1651 44 
L 2502 2163 
z
" transform="scale(0.015625)"/>
     <path id="CMR17-79" d="M 2496 2197 
C 2656 2586 2944 2586 3034 2586 
L 3034 2752 
C 2912 2752 2752 2752 2630 2752 
C 2496 2752 2285 2752 2157 2758 
L 2157 2592 
C 2400 2573 2406 2394 2406 2343 
C 2406 2280 2394 2248 2362 2171 
L 1664 449 
L 902 2306 
C 870 2382 870 2426 870 2433 
C 870 2573 1018 2586 1171 2586 
L 1171 2758 
C 1018 2752 742 2752 582 2752 
C 410 2752 205 2752 64 2758 
L 64 2586 
C 410 2586 448 2554 531 2350 
L 1485 15 
C 1197 -738 1030 -1178 627 -1178 
C 557 -1178 397 -1159 282 -1044 
C 429 -1031 493 -942 493 -833 
C 493 -725 416 -629 288 -629 
C 147 -629 77 -725 77 -840 
C 77 -1095 339 -1280 627 -1280 
C 998 -1280 1229 -922 1357 -604 
L 2496 2197 
z
" transform="scale(0.015625)"/>
    </defs>
    <use xlink:href="#CMR17-52" transform="scale(0.996264)"/>
    <use xlink:href="#CMR17-65" transform="translate(67.791102 0) scale(0.996264)"/>
    <use xlink:href="#CMR17-61" transform="translate(108.276762 0) scale(0.996264)"/>
    <use xlink:href="#CMR17-63" transform="translate(153.96724 0) scale(0.996264)"/>
    <use xlink:href="#CMR17-74" transform="translate(194.4529 0) scale(0.996264)"/>
    <use xlink:href="#CMR17-69" transform="translate(229.733668 0) scale(0.996264)"/>
    <use xlink:href="#CMR17-76" transform="translate(254.604726 0) scale(0.996264)"/>
    <use xlink:href="#CMR17-69" transform="translate(302.897642 0) scale(0.996264)"/>
    <use xlink:href="#CMR17-74" transform="translate(327.768701 0) scale(0.996264)"/>
    <use xlink:href="#CMR17-79" transform="translate(360.447014 0) scale(0.996264)"/>
   </g>
  </g>
 </g>
 <defs>
  <clipPath id="p9ac4bc0153">
   <rect x="55.387559" y="51.564121" width="880.130113" height="469.58891"/>
  </clipPath>
 </defs>
</svg>
