<?xml version="1.0" encoding="utf-8" standalone="no"?>
<!DOCTYPE svg PUBLIC "-//W3C//DTD SVG 1.1//EN"
  "http://www.w3.org/Graphics/SVG/1.1/DTD/svg11.dtd">
<svg xmlns:xlink="http://www.w3.org/1999/xlink" width="1080pt" height="576pt" viewBox="0 0 1080 576" xmlns="http://www.w3.org/2000/svg" version="1.1">
 <metadata>
  <rdf:RDF xmlns:dc="http://purl.org/dc/elements/1.1/" xmlns:cc="http://creativecommons.org/ns#" xmlns:rdf="http://www.w3.org/1999/02/22-rdf-syntax-ns#">
   <cc:Work>
    <dc:type rdf:resource="http://purl.org/dc/dcmitype/StillImage"/>
    <dc:date>2024-06-28T13:58:45.686068</dc:date>
    <dc:format>image/svg+xml</dc:format>
    <dc:creator>
     <cc:Agent>
      <dc:title>Matplotlib v3.9.0, https://matplotlib.org/</dc:title>
     </cc:Agent>
    </dc:creator>
   </cc:Work>
  </rdf:RDF>
 </metadata>
 <defs>
  <style type="text/css">*{stroke-linejoin: round; stroke-linecap: butt}</style>
 </defs>
 <g id="figure_1">
  <g id="patch_1">
   <path d="M 0 576 
L 1080 576 
L 1080 0 
L 0 0 
z
" style="fill: #ffffff"/>
  </g>
  <g id="axes_1">
   <g id="patch_2">
    <path d="M 55.387559 521.153031 
L 935.517672 521.153031 
L 935.517672 51.564121 
L 55.387559 51.564121 
z
" style="fill: #eaeaf2"/>
   </g>
   <g id="matplotlib.axis_1">
    <g id="xtick_1">
     <g id="line2d_1">
      <path d="M 55.387559 521.153031 
L 55.387559 51.564121 
" clip-path="url(#pe1b2e7c993)" style="fill: none; stroke: #ffffff; stroke-linecap: round"/>
     </g>
     <g id="line2d_2"/>
     <g id="text_1">
      <!-- $\mathdefault{0.00}$ -->
      <g style="fill: #262626" transform="translate(43.248024 537.838907) scale(0.14 -0.14)">
       <defs>
        <path id="CMR17-30" d="M 2688 2025 
C 2688 2416 2682 3080 2413 3591 
C 2176 4039 1798 4198 1466 4198 
C 1158 4198 768 4058 525 3597 
C 269 3118 243 2524 243 2025 
C 243 1661 250 1106 448 619 
C 723 -39 1216 -128 1466 -128 
C 1760 -128 2208 -7 2470 600 
C 2662 1042 2688 1559 2688 2025 
z
M 1466 -26 
C 1056 -26 813 325 723 812 
C 653 1188 653 1738 653 2096 
C 653 2588 653 2997 736 3387 
C 858 3929 1216 4096 1466 4096 
C 1728 4096 2067 3923 2189 3400 
C 2272 3036 2278 2607 2278 2096 
C 2278 1680 2278 1169 2202 792 
C 2067 95 1690 -26 1466 -26 
z
" transform="scale(0.015625)"/>
        <path id="CMMI12-3a" d="M 1178 307 
C 1178 492 1024 619 870 619 
C 685 619 557 466 557 313 
C 557 128 710 0 864 0 
C 1050 0 1178 153 1178 307 
z
" transform="scale(0.015625)"/>
       </defs>
       <use xlink:href="#CMR17-30" transform="scale(0.996264)"/>
       <use xlink:href="#CMMI12-3a" transform="translate(45.690477 0) scale(0.996264)"/>
       <use xlink:href="#CMR17-30" transform="translate(72.787654 0) scale(0.996264)"/>
       <use xlink:href="#CMR17-30" transform="translate(118.478131 0) scale(0.996264)"/>
      </g>
     </g>
    </g>
    <g id="xtick_2">
     <g id="line2d_3">
      <path d="M 160.164954 521.153031 
L 160.164954 51.564121 
" clip-path="url(#pe1b2e7c993)" style="fill: none; stroke: #ffffff; stroke-linecap: round"/>
     </g>
     <g id="line2d_4"/>
     <g id="text_2">
      <!-- $\mathdefault{0.25}$ -->
      <g style="fill: #262626" transform="translate(148.025418 537.838907) scale(0.14 -0.14)">
       <defs>
        <path id="CMR17-32" d="M 2669 989 
L 2554 989 
C 2490 536 2438 459 2413 420 
C 2381 369 1920 369 1830 369 
L 602 369 
C 832 619 1280 1072 1824 1597 
C 2214 1967 2669 2402 2669 3035 
C 2669 3790 2067 4224 1395 4224 
C 691 4224 262 3604 262 3030 
C 262 2780 448 2748 525 2748 
C 589 2748 781 2787 781 3010 
C 781 3207 614 3264 525 3264 
C 486 3264 448 3258 422 3245 
C 544 3790 915 4058 1306 4058 
C 1862 4058 2227 3617 2227 3035 
C 2227 2479 1901 2000 1536 1584 
L 262 146 
L 262 0 
L 2515 0 
L 2669 989 
z
" transform="scale(0.015625)"/>
        <path id="CMR17-35" d="M 730 3692 
C 794 3666 1056 3584 1325 3584 
C 1920 3584 2246 3911 2432 4100 
C 2432 4157 2432 4192 2394 4192 
C 2387 4192 2374 4192 2323 4163 
C 2099 4058 1837 3973 1517 3973 
C 1325 3973 1037 3999 723 4139 
C 653 4171 640 4171 634 4171 
C 602 4171 595 4164 595 4037 
L 595 2203 
C 595 2089 595 2057 659 2057 
C 691 2057 704 2070 736 2114 
C 941 2401 1222 2522 1542 2522 
C 1766 2522 2246 2382 2246 1289 
C 2246 1085 2246 715 2054 421 
C 1894 159 1645 25 1370 25 
C 947 25 518 320 403 814 
C 429 807 480 795 506 795 
C 589 795 749 840 749 1038 
C 749 1210 627 1280 506 1280 
C 358 1280 262 1190 262 1011 
C 262 454 704 -128 1382 -128 
C 2042 -128 2669 440 2669 1264 
C 2669 2030 2170 2624 1549 2624 
C 1222 2624 947 2503 730 2274 
L 730 3692 
z
" transform="scale(0.015625)"/>
       </defs>
       <use xlink:href="#CMR17-30" transform="scale(0.996264)"/>
       <use xlink:href="#CMMI12-3a" transform="translate(45.690477 0) scale(0.996264)"/>
       <use xlink:href="#CMR17-32" transform="translate(72.787654 0) scale(0.996264)"/>
       <use xlink:href="#CMR17-35" transform="translate(118.478131 0) scale(0.996264)"/>
      </g>
     </g>
    </g>
    <g id="xtick_3">
     <g id="line2d_5">
      <path d="M 264.942348 521.153031 
L 264.942348 51.564121 
" clip-path="url(#pe1b2e7c993)" style="fill: none; stroke: #ffffff; stroke-linecap: round"/>
     </g>
     <g id="line2d_6"/>
     <g id="text_3">
      <!-- $\mathdefault{0.50}$ -->
      <g style="fill: #262626" transform="translate(252.802813 537.838907) scale(0.14 -0.14)">
       <use xlink:href="#CMR17-30" transform="scale(0.996264)"/>
       <use xlink:href="#CMMI12-3a" transform="translate(45.690477 0) scale(0.996264)"/>
       <use xlink:href="#CMR17-35" transform="translate(72.787654 0) scale(0.996264)"/>
       <use xlink:href="#CMR17-30" transform="translate(118.478131 0) scale(0.996264)"/>
      </g>
     </g>
    </g>
    <g id="xtick_4">
     <g id="line2d_7">
      <path d="M 369.719742 521.153031 
L 369.719742 51.564121 
" clip-path="url(#pe1b2e7c993)" style="fill: none; stroke: #ffffff; stroke-linecap: round"/>
     </g>
     <g id="line2d_8"/>
     <g id="text_4">
      <!-- $\mathdefault{0.75}$ -->
      <g style="fill: #262626" transform="translate(357.580207 537.838907) scale(0.14 -0.14)">
       <defs>
        <path id="CMR17-37" d="M 2886 3941 
L 2886 4081 
L 1382 4081 
C 634 4081 621 4165 595 4288 
L 480 4288 
L 294 3094 
L 410 3094 
C 429 3215 474 3540 550 3661 
C 589 3712 1062 3712 1171 3712 
L 2579 3712 
L 1869 2661 
C 1395 1954 1069 999 1069 165 
C 1069 89 1069 -128 1299 -128 
C 1530 -128 1530 89 1530 171 
L 1530 465 
C 1530 1508 1709 2196 2003 2636 
L 2886 3941 
z
" transform="scale(0.015625)"/>
       </defs>
       <use xlink:href="#CMR17-30" transform="scale(0.996264)"/>
       <use xlink:href="#CMMI12-3a" transform="translate(45.690477 0) scale(0.996264)"/>
       <use xlink:href="#CMR17-37" transform="translate(72.787654 0) scale(0.996264)"/>
       <use xlink:href="#CMR17-35" transform="translate(118.478131 0) scale(0.996264)"/>
      </g>
     </g>
    </g>
    <g id="xtick_5">
     <g id="line2d_9">
      <path d="M 474.497137 521.153031 
L 474.497137 51.564121 
" clip-path="url(#pe1b2e7c993)" style="fill: none; stroke: #ffffff; stroke-linecap: round"/>
     </g>
     <g id="line2d_10"/>
     <g id="text_5">
      <!-- $\mathdefault{1.00}$ -->
      <g style="fill: #262626" transform="translate(462.357601 537.838907) scale(0.14 -0.14)">
       <defs>
        <path id="CMR17-31" d="M 1702 4058 
C 1702 4192 1696 4192 1606 4192 
C 1357 3916 979 3827 621 3827 
C 602 3827 570 3827 563 3808 
C 557 3795 557 3782 557 3648 
C 755 3648 1088 3686 1344 3839 
L 1344 461 
C 1344 236 1331 160 781 160 
L 589 160 
L 589 0 
C 896 0 1216 0 1523 0 
C 1830 0 2150 0 2458 0 
L 2458 160 
L 2266 160 
C 1715 160 1702 230 1702 458 
L 1702 4058 
z
" transform="scale(0.015625)"/>
       </defs>
       <use xlink:href="#CMR17-31" transform="scale(0.996264)"/>
       <use xlink:href="#CMMI12-3a" transform="translate(45.690477 0) scale(0.996264)"/>
       <use xlink:href="#CMR17-30" transform="translate(72.787654 0) scale(0.996264)"/>
       <use xlink:href="#CMR17-30" transform="translate(118.478131 0) scale(0.996264)"/>
      </g>
     </g>
    </g>
    <g id="xtick_6">
     <g id="line2d_11">
      <path d="M 579.274531 521.153031 
L 579.274531 51.564121 
" clip-path="url(#pe1b2e7c993)" style="fill: none; stroke: #ffffff; stroke-linecap: round"/>
     </g>
     <g id="line2d_12"/>
     <g id="text_6">
      <!-- $\mathdefault{1.25}$ -->
      <g style="fill: #262626" transform="translate(567.134996 537.838907) scale(0.14 -0.14)">
       <use xlink:href="#CMR17-31" transform="scale(0.996264)"/>
       <use xlink:href="#CMMI12-3a" transform="translate(45.690477 0) scale(0.996264)"/>
       <use xlink:href="#CMR17-32" transform="translate(72.787654 0) scale(0.996264)"/>
       <use xlink:href="#CMR17-35" transform="translate(118.478131 0) scale(0.996264)"/>
      </g>
     </g>
    </g>
    <g id="xtick_7">
     <g id="line2d_13">
      <path d="M 684.051925 521.153031 
L 684.051925 51.564121 
" clip-path="url(#pe1b2e7c993)" style="fill: none; stroke: #ffffff; stroke-linecap: round"/>
     </g>
     <g id="line2d_14"/>
     <g id="text_7">
      <!-- $\mathdefault{1.50}$ -->
      <g style="fill: #262626" transform="translate(671.91239 537.838907) scale(0.14 -0.14)">
       <use xlink:href="#CMR17-31" transform="scale(0.996264)"/>
       <use xlink:href="#CMMI12-3a" transform="translate(45.690477 0) scale(0.996264)"/>
       <use xlink:href="#CMR17-35" transform="translate(72.787654 0) scale(0.996264)"/>
       <use xlink:href="#CMR17-30" transform="translate(118.478131 0) scale(0.996264)"/>
      </g>
     </g>
    </g>
    <g id="xtick_8">
     <g id="line2d_15">
      <path d="M 788.82932 521.153031 
L 788.82932 51.564121 
" clip-path="url(#pe1b2e7c993)" style="fill: none; stroke: #ffffff; stroke-linecap: round"/>
     </g>
     <g id="line2d_16"/>
     <g id="text_8">
      <!-- $\mathdefault{1.75}$ -->
      <g style="fill: #262626" transform="translate(776.689784 537.838907) scale(0.14 -0.14)">
       <use xlink:href="#CMR17-31" transform="scale(0.996264)"/>
       <use xlink:href="#CMMI12-3a" transform="translate(45.690477 0) scale(0.996264)"/>
       <use xlink:href="#CMR17-37" transform="translate(72.787654 0) scale(0.996264)"/>
       <use xlink:href="#CMR17-35" transform="translate(118.478131 0) scale(0.996264)"/>
      </g>
     </g>
    </g>
    <g id="xtick_9">
     <g id="line2d_17">
      <path d="M 893.606714 521.153031 
L 893.606714 51.564121 
" clip-path="url(#pe1b2e7c993)" style="fill: none; stroke: #ffffff; stroke-linecap: round"/>
     </g>
     <g id="line2d_18"/>
     <g id="text_9">
      <!-- $\mathdefault{2.00}$ -->
      <g style="fill: #262626" transform="translate(881.467179 537.838907) scale(0.14 -0.14)">
       <use xlink:href="#CMR17-32" transform="scale(0.996264)"/>
       <use xlink:href="#CMMI12-3a" transform="translate(45.690477 0) scale(0.996264)"/>
       <use xlink:href="#CMR17-30" transform="translate(72.787654 0) scale(0.996264)"/>
       <use xlink:href="#CMR17-30" transform="translate(118.478131 0) scale(0.996264)"/>
      </g>
     </g>
    </g>
    <g id="text_10">
     <!-- $x$ -->
     <g style="fill: #262626" transform="translate(491.017891 555.620524) scale(0.16 -0.16)">
      <defs>
       <path id="CMMI12-78" d="M 3034 2606 
C 2829 2567 2752 2414 2752 2293 
C 2752 2139 2874 2088 2963 2088 
C 3155 2088 3290 2254 3290 2427 
C 3290 2695 2982 2816 2714 2816 
C 2323 2816 2106 2433 2048 2312 
C 1901 2816 1504 2816 1389 2816 
C 736 2816 390 1980 390 1839 
C 390 1814 416 1782 461 1782 
C 512 1782 525 1820 538 1846 
C 755 2555 1184 2689 1370 2689 
C 1658 2689 1715 2420 1715 2267 
C 1715 2127 1677 1980 1600 1673 
L 1382 798 
C 1286 415 1101 64 762 64 
C 730 64 570 64 435 147 
C 666 192 717 383 717 460 
C 717 588 621 664 499 664 
C 346 664 179 530 179 326 
C 179 57 480 -64 755 -64 
C 1062 -64 1280 179 1414 441 
C 1517 64 1837 -64 2074 -64 
C 2726 -64 3072 773 3072 913 
C 3072 945 3046 971 3008 971 
C 2950 971 2944 939 2925 888 
C 2752 326 2381 64 2093 64 
C 1869 64 1747 230 1747 492 
C 1747 632 1773 734 1875 1156 
L 2099 2024 
C 2195 2408 2413 2689 2707 2689 
C 2720 2689 2899 2689 3034 2606 
z
" transform="scale(0.015625)"/>
      </defs>
      <use xlink:href="#CMMI12-78" transform="scale(0.996264)"/>
     </g>
    </g>
   </g>
   <g id="matplotlib.axis_2">
    <g id="ytick_1">
     <g id="line2d_19">
      <path d="M 55.387559 521.153031 
L 935.517672 521.153031 
" clip-path="url(#pe1b2e7c993)" style="fill: none; stroke: #ffffff; stroke-linecap: round"/>
     </g>
     <g id="line2d_20"/>
     <g id="text_11">
      <!-- $\mathdefault{0.000}$ -->
      <g style="fill: #262626" transform="translate(17.28 525.995969) scale(0.14 -0.14)">
       <use xlink:href="#CMR17-30" transform="scale(0.996264)"/>
       <use xlink:href="#CMMI12-3a" transform="translate(45.690477 0) scale(0.996264)"/>
       <use xlink:href="#CMR17-30" transform="translate(72.787654 0) scale(0.996264)"/>
       <use xlink:href="#CMR17-30" transform="translate(118.478131 0) scale(0.996264)"/>
       <use xlink:href="#CMR17-30" transform="translate(164.168608 0) scale(0.996264)"/>
      </g>
     </g>
    </g>
    <g id="ytick_2">
     <g id="line2d_21">
      <path d="M 55.387559 465.064195 
L 935.517672 465.064195 
" clip-path="url(#pe1b2e7c993)" style="fill: none; stroke: #ffffff; stroke-linecap: round"/>
     </g>
     <g id="line2d_22"/>
     <g id="text_12">
      <!-- $\mathdefault{0.025}$ -->
      <g style="fill: #262626" transform="translate(17.28 469.907134) scale(0.14 -0.14)">
       <use xlink:href="#CMR17-30" transform="scale(0.996264)"/>
       <use xlink:href="#CMMI12-3a" transform="translate(45.690477 0) scale(0.996264)"/>
       <use xlink:href="#CMR17-30" transform="translate(72.787654 0) scale(0.996264)"/>
       <use xlink:href="#CMR17-32" transform="translate(118.478131 0) scale(0.996264)"/>
       <use xlink:href="#CMR17-35" transform="translate(164.168608 0) scale(0.996264)"/>
      </g>
     </g>
    </g>
    <g id="ytick_3">
     <g id="line2d_23">
      <path d="M 55.387559 408.97536 
L 935.517672 408.97536 
" clip-path="url(#pe1b2e7c993)" style="fill: none; stroke: #ffffff; stroke-linecap: round"/>
     </g>
     <g id="line2d_24"/>
     <g id="text_13">
      <!-- $\mathdefault{0.050}$ -->
      <g style="fill: #262626" transform="translate(17.28 413.818298) scale(0.14 -0.14)">
       <use xlink:href="#CMR17-30" transform="scale(0.996264)"/>
       <use xlink:href="#CMMI12-3a" transform="translate(45.690477 0) scale(0.996264)"/>
       <use xlink:href="#CMR17-30" transform="translate(72.787654 0) scale(0.996264)"/>
       <use xlink:href="#CMR17-35" transform="translate(118.478131 0) scale(0.996264)"/>
       <use xlink:href="#CMR17-30" transform="translate(164.168608 0) scale(0.996264)"/>
      </g>
     </g>
    </g>
    <g id="ytick_4">
     <g id="line2d_25">
      <path d="M 55.387559 352.886525 
L 935.517672 352.886525 
" clip-path="url(#pe1b2e7c993)" style="fill: none; stroke: #ffffff; stroke-linecap: round"/>
     </g>
     <g id="line2d_26"/>
     <g id="text_14">
      <!-- $\mathdefault{0.075}$ -->
      <g style="fill: #262626" transform="translate(17.28 357.729463) scale(0.14 -0.14)">
       <use xlink:href="#CMR17-30" transform="scale(0.996264)"/>
       <use xlink:href="#CMMI12-3a" transform="translate(45.690477 0) scale(0.996264)"/>
       <use xlink:href="#CMR17-30" transform="translate(72.787654 0) scale(0.996264)"/>
       <use xlink:href="#CMR17-37" transform="translate(118.478131 0) scale(0.996264)"/>
       <use xlink:href="#CMR17-35" transform="translate(164.168608 0) scale(0.996264)"/>
      </g>
     </g>
    </g>
    <g id="ytick_5">
     <g id="line2d_27">
      <path d="M 55.387559 296.79769 
L 935.517672 296.79769 
" clip-path="url(#pe1b2e7c993)" style="fill: none; stroke: #ffffff; stroke-linecap: round"/>
     </g>
     <g id="line2d_28"/>
     <g id="text_15">
      <!-- $\mathdefault{0.100}$ -->
      <g style="fill: #262626" transform="translate(17.28 301.640628) scale(0.14 -0.14)">
       <use xlink:href="#CMR17-30" transform="scale(0.996264)"/>
       <use xlink:href="#CMMI12-3a" transform="translate(45.690477 0) scale(0.996264)"/>
       <use xlink:href="#CMR17-31" transform="translate(72.787654 0) scale(0.996264)"/>
       <use xlink:href="#CMR17-30" transform="translate(118.478131 0) scale(0.996264)"/>
       <use xlink:href="#CMR17-30" transform="translate(164.168608 0) scale(0.996264)"/>
      </g>
     </g>
    </g>
    <g id="ytick_6">
     <g id="line2d_29">
      <path d="M 55.387559 240.708854 
L 935.517672 240.708854 
" clip-path="url(#pe1b2e7c993)" style="fill: none; stroke: #ffffff; stroke-linecap: round"/>
     </g>
     <g id="line2d_30"/>
     <g id="text_16">
      <!-- $\mathdefault{0.125}$ -->
      <g style="fill: #262626" transform="translate(17.28 245.551793) scale(0.14 -0.14)">
       <use xlink:href="#CMR17-30" transform="scale(0.996264)"/>
       <use xlink:href="#CMMI12-3a" transform="translate(45.690477 0) scale(0.996264)"/>
       <use xlink:href="#CMR17-31" transform="translate(72.787654 0) scale(0.996264)"/>
       <use xlink:href="#CMR17-32" transform="translate(118.478131 0) scale(0.996264)"/>
       <use xlink:href="#CMR17-35" transform="translate(164.168608 0) scale(0.996264)"/>
      </g>
     </g>
    </g>
    <g id="ytick_7">
     <g id="line2d_31">
      <path d="M 55.387559 184.620019 
L 935.517672 184.620019 
" clip-path="url(#pe1b2e7c993)" style="fill: none; stroke: #ffffff; stroke-linecap: round"/>
     </g>
     <g id="line2d_32"/>
     <g id="text_17">
      <!-- $\mathdefault{0.150}$ -->
      <g style="fill: #262626" transform="translate(17.28 189.462957) scale(0.14 -0.14)">
       <use xlink:href="#CMR17-30" transform="scale(0.996264)"/>
       <use xlink:href="#CMMI12-3a" transform="translate(45.690477 0) scale(0.996264)"/>
       <use xlink:href="#CMR17-31" transform="translate(72.787654 0) scale(0.996264)"/>
       <use xlink:href="#CMR17-35" transform="translate(118.478131 0) scale(0.996264)"/>
       <use xlink:href="#CMR17-30" transform="translate(164.168608 0) scale(0.996264)"/>
      </g>
     </g>
    </g>
    <g id="ytick_8">
     <g id="line2d_33">
      <path d="M 55.387559 128.531184 
L 935.517672 128.531184 
" clip-path="url(#pe1b2e7c993)" style="fill: none; stroke: #ffffff; stroke-linecap: round"/>
     </g>
     <g id="line2d_34"/>
     <g id="text_18">
      <!-- $\mathdefault{0.175}$ -->
      <g style="fill: #262626" transform="translate(17.28 133.374122) scale(0.14 -0.14)">
       <use xlink:href="#CMR17-30" transform="scale(0.996264)"/>
       <use xlink:href="#CMMI12-3a" transform="translate(45.690477 0) scale(0.996264)"/>
       <use xlink:href="#CMR17-31" transform="translate(72.787654 0) scale(0.996264)"/>
       <use xlink:href="#CMR17-37" transform="translate(118.478131 0) scale(0.996264)"/>
       <use xlink:href="#CMR17-35" transform="translate(164.168608 0) scale(0.996264)"/>
      </g>
     </g>
    </g>
    <g id="ytick_9">
     <g id="line2d_35">
      <path d="M 55.387559 72.442349 
L 935.517672 72.442349 
" clip-path="url(#pe1b2e7c993)" style="fill: none; stroke: #ffffff; stroke-linecap: round"/>
     </g>
     <g id="line2d_36"/>
     <g id="text_19">
      <!-- $\mathdefault{0.200}$ -->
      <g style="fill: #262626" transform="translate(17.28 77.285287) scale(0.14 -0.14)">
       <use xlink:href="#CMR17-30" transform="scale(0.996264)"/>
       <use xlink:href="#CMMI12-3a" transform="translate(45.690477 0) scale(0.996264)"/>
       <use xlink:href="#CMR17-32" transform="translate(72.787654 0) scale(0.996264)"/>
       <use xlink:href="#CMR17-30" transform="translate(118.478131 0) scale(0.996264)"/>
       <use xlink:href="#CMR17-30" transform="translate(164.168608 0) scale(0.996264)"/>
      </g>
     </g>
    </g>
   </g>
   <g id="line2d_37">
    <path d="M 55.387559 72.442349 
L 63.769751 72.442349 
L 72.151942 72.442349 
L 80.534134 72.442349 
L 88.916325 72.442349 
L 97.298517 72.442349 
L 105.680709 72.442349 
L 114.0629 72.442349 
L 122.445092 72.442349 
L 130.827283 72.442349 
L 139.209475 72.442349 
L 147.591666 72.442349 
L 155.973858 72.442349 
L 164.356049 72.442349 
L 172.738241 72.442349 
L 181.120433 72.442349 
L 189.502624 72.442349 
L 197.884816 72.442349 
L 206.267007 72.442349 
L 214.649199 72.442349 
L 223.03139 72.442349 
L 231.413582 72.442349 
L 239.795773 72.442349 
L 248.177965 72.442349 
L 256.560156 72.442349 
L 264.942348 72.442349 
L 273.32454 72.442349 
L 281.706731 72.442349 
L 290.088923 72.442349 
L 298.471114 72.442349 
L 306.853306 72.442349 
L 315.235497 72.442349 
L 323.617689 72.442349 
L 331.99988 72.442349 
L 340.382072 72.442349 
L 348.764263 72.442349 
L 357.146455 72.442349 
L 365.528647 72.442349 
L 373.910838 72.442349 
L 382.29303 72.442349 
L 390.675221 72.442349 
L 399.057413 72.442349 
L 407.439604 72.442349 
L 415.821796 72.442349 
L 424.203987 72.442349 
L 432.586179 72.442349 
L 440.96837 72.442349 
L 449.350562 72.442349 
L 457.732754 72.442349 
L 466.114945 72.442349 
L 474.497137 72.442349 
L 482.879328 72.442349 
L 491.26152 72.442349 
L 499.643711 72.442349 
L 508.025903 72.442349 
L 516.408094 72.442349 
L 524.790286 72.442349 
L 533.172478 72.442349 
L 541.554669 72.442349 
L 549.936861 72.442349 
L 558.319052 72.442349 
L 566.701244 72.442349 
L 575.083435 72.442349 
L 583.465627 72.442349 
L 591.847818 72.442349 
L 600.23001 72.442349 
L 608.612201 72.442349 
L 616.994393 72.442349 
L 625.376585 72.442349 
L 633.758776 72.442349 
L 642.140968 72.442349 
L 650.523159 72.442349 
L 658.905351 72.442349 
L 667.287542 72.442349 
L 675.669734 72.442349 
L 684.051925 72.442349 
L 692.434117 72.442349 
L 700.816308 72.442349 
L 709.1985 72.442349 
L 717.580692 72.442349 
L 725.962883 72.442349 
L 734.345075 72.442349 
L 742.727266 72.442349 
L 751.109458 72.442349 
L 759.491649 72.442349 
L 767.873841 72.442349 
L 776.256032 72.442349 
L 784.638224 72.442349 
L 793.020416 72.442349 
L 801.402607 72.442349 
L 809.784799 72.442349 
L 818.16699 72.442349 
L 826.549182 72.442349 
L 834.931373 72.442349 
L 843.313565 72.442349 
L 851.695756 72.442349 
L 860.077948 72.442349 
L 868.460139 72.442349 
L 876.842331 72.442349 
L 885.224523 72.442349 
L 893.606714 72.442349 
" clip-path="url(#pe1b2e7c993)" style="fill: none; stroke: #393b79; stroke-width: 2; stroke-linecap: round"/>
   </g>
   <g id="line2d_38">
    <path d="M 55.387559 87.954721 
L 63.769751 87.954721 
L 72.151942 87.954721 
L 80.534134 87.954721 
L 88.916325 87.954721 
L 97.298517 87.954721 
L 105.680709 87.954721 
L 114.0629 87.954721 
L 122.445092 87.954721 
L 130.827283 87.954721 
L 139.209475 87.954721 
L 147.591666 87.954721 
L 155.973858 87.954721 
L 164.356049 87.954721 
L 172.738241 87.954721 
L 181.120433 87.954721 
L 189.502624 87.954721 
L 197.884816 87.954721 
L 206.267007 87.954721 
L 214.649199 87.954721 
L 223.03139 87.954721 
L 231.413582 87.954721 
L 239.795773 87.954721 
L 248.177965 87.954721 
L 256.560156 87.954721 
L 264.942348 87.954721 
L 273.32454 87.954721 
L 281.706731 87.954721 
L 290.088923 87.954721 
L 298.471114 87.954721 
L 306.853306 87.954721 
L 315.235497 87.954721 
L 323.617689 87.954721 
L 331.99988 87.954721 
L 340.382072 87.954721 
L 348.764263 87.954721 
L 357.146455 87.954721 
L 365.528647 87.954721 
L 373.910838 87.954721 
L 382.29303 87.954721 
L 390.675221 87.954721 
L 399.057413 87.954721 
L 407.439604 87.954721 
L 415.821796 87.954721 
L 424.203987 87.954721 
L 432.586179 87.954721 
L 440.96837 87.954721 
L 449.350562 87.954721 
L 457.732754 87.954721 
L 466.114945 87.954721 
L 474.497137 87.954721 
L 482.879328 87.954721 
L 491.26152 87.954721 
L 499.643711 87.954721 
L 508.025903 87.954721 
L 516.408094 87.954721 
L 524.790286 87.954721 
L 533.172478 87.954721 
L 541.554669 87.954721 
L 549.936861 87.954721 
L 558.319052 87.954721 
L 566.701244 87.954721 
L 575.083435 87.954721 
L 583.465627 87.954721 
L 591.847818 87.954721 
L 600.23001 87.954721 
L 608.612201 87.954721 
L 616.994393 87.954721 
L 625.376585 87.954721 
L 633.758776 87.954721 
L 642.140968 87.954721 
L 650.523159 87.954721 
L 658.905351 87.954721 
L 667.287542 87.954721 
L 675.669734 87.954721 
L 684.051925 87.954721 
L 692.434117 87.954721 
L 700.816308 87.954721 
L 709.1985 87.954721 
L 717.580692 87.954721 
L 725.962883 87.954721 
L 734.345075 87.954721 
L 742.727266 87.954721 
L 751.109458 87.954721 
L 759.491649 87.954721 
L 767.873841 87.954721 
L 776.256032 87.954721 
L 784.638224 87.954721 
L 793.020416 87.954721 
L 801.402607 87.954721 
L 809.784799 87.954721 
L 818.16699 87.954721 
L 826.549182 87.954721 
L 834.931373 87.954721 
L 843.313565 87.954721 
L 851.695756 87.954721 
L 860.077948 87.954721 
L 868.460139 87.954721 
L 876.842331 87.954721 
L 885.224523 87.954721 
L 893.606714 87.954721 
" clip-path="url(#pe1b2e7c993)" style="fill: none; stroke: #6b6ecf; stroke-width: 2; stroke-linecap: round"/>
   </g>
   <g id="line2d_39">
    <path d="M 55.387559 143.837635 
L 63.769751 143.837635 
L 72.151942 143.837635 
L 80.534134 143.837635 
L 88.916325 143.837635 
L 97.298517 143.837635 
L 105.680709 143.837635 
L 114.0629 143.837635 
L 122.445092 143.837635 
L 130.827283 143.837635 
L 139.209475 143.837635 
L 147.591666 143.837635 
L 155.973858 143.837635 
L 164.356049 143.837635 
L 172.738241 143.837635 
L 181.120433 143.837635 
L 189.502624 143.837635 
L 197.884816 143.837635 
L 206.267007 143.837635 
L 214.649199 143.837635 
L 223.03139 143.837635 
L 231.413582 143.837635 
L 239.795773 143.837635 
L 248.177965 143.837635 
L 256.560156 143.837635 
L 264.942348 143.837635 
L 273.32454 143.837635 
L 281.706731 143.837635 
L 290.088923 143.837635 
L 298.471114 143.837635 
L 306.853306 143.837635 
L 315.235497 143.837635 
L 323.617689 143.837635 
L 331.99988 143.837635 
L 340.382072 143.837635 
L 348.764263 143.837635 
L 357.146455 143.837635 
L 365.528647 143.837635 
L 373.910838 143.837635 
L 382.29303 143.837635 
L 390.675221 143.837635 
L 399.057413 143.837635 
L 407.439604 143.837635 
L 415.821796 143.837635 
L 424.203987 143.837635 
L 432.586179 143.837635 
L 440.96837 143.837635 
L 449.350562 143.837635 
L 457.732754 143.837635 
L 466.114945 143.837635 
L 474.497137 143.837635 
L 482.879328 143.837635 
L 491.26152 143.837635 
L 499.643711 143.837635 
L 508.025903 143.837635 
L 516.408094 143.837635 
L 524.790286 143.837635 
L 533.172478 143.837635 
L 541.554669 143.837635 
L 549.936861 143.837635 
L 558.319052 143.837635 
L 566.701244 143.837635 
L 575.083435 143.837635 
L 583.465627 143.837635 
L 591.847818 143.837635 
L 600.23001 143.837635 
L 608.612201 143.837635 
L 616.994393 143.837635 
L 625.376585 143.837635 
L 633.758776 143.837635 
L 642.140968 143.837635 
L 650.523159 143.837635 
L 658.905351 143.837635 
L 667.287542 143.837635 
L 675.669734 143.837635 
L 684.051925 143.837635 
L 692.434117 143.837635 
L 700.816308 143.837635 
L 709.1985 143.837635 
L 717.580692 143.837635 
L 725.962883 143.837635 
L 734.345075 143.837635 
L 742.727266 143.837635 
L 751.109458 143.837635 
L 759.491649 143.837635 
L 767.873841 143.837635 
L 776.256032 143.837635 
L 784.638224 143.837635 
L 793.020416 143.837635 
L 801.402607 143.837635 
L 809.784799 143.837635 
L 818.16699 143.837635 
L 826.549182 143.837635 
L 834.931373 143.837635 
L 843.313565 143.837635 
L 851.695756 143.837635 
L 860.077948 143.837635 
L 868.460139 143.837635 
L 876.842331 143.837635 
L 885.224523 143.837635 
L 893.606714 143.837635 
" clip-path="url(#pe1b2e7c993)" style="fill: none; stroke: #637939; stroke-width: 2; stroke-linecap: round"/>
   </g>
   <g id="line2d_40">
    <path d="M 55.387559 199.732121 
L 63.769751 199.732121 
L 72.151942 199.732121 
L 80.534134 199.732121 
L 88.916325 199.732121 
L 97.298517 199.732121 
L 105.680709 199.732121 
L 114.0629 199.732121 
L 122.445092 199.732121 
L 130.827283 199.732121 
L 139.209475 199.732121 
L 147.591666 199.732121 
L 155.973858 199.732121 
L 164.356049 199.732121 
L 172.738241 199.732121 
L 181.120433 199.732121 
L 189.502624 199.732121 
L 197.884816 199.732121 
L 206.267007 199.732121 
L 214.649199 199.732121 
L 223.03139 199.732121 
L 231.413582 199.732121 
L 239.795773 199.732121 
L 248.177965 199.732121 
L 256.560156 199.732121 
L 264.942348 199.732121 
L 273.32454 199.732121 
L 281.706731 199.732121 
L 290.088923 199.732121 
L 298.471114 199.732121 
L 306.853306 199.732121 
L 315.235497 199.732121 
L 323.617689 199.732121 
L 331.99988 199.732121 
L 340.382072 199.732121 
L 348.764263 199.732121 
L 357.146455 199.732121 
L 365.528647 199.732121 
L 373.910838 199.732121 
L 382.29303 199.732121 
L 390.675221 199.732121 
L 399.057413 199.732121 
L 407.439604 199.732121 
L 415.821796 199.732121 
L 424.203987 199.732121 
L 432.586179 199.732121 
L 440.96837 199.732121 
L 449.350562 199.732121 
L 457.732754 199.732121 
L 466.114945 199.732121 
L 474.497137 199.732121 
L 482.879328 199.732121 
L 491.26152 199.732121 
L 499.643711 199.732121 
L 508.025903 199.732121 
L 516.408094 199.732121 
L 524.790286 199.732121 
L 533.172478 199.732121 
L 541.554669 199.732121 
L 549.936861 199.732121 
L 558.319052 199.732121 
L 566.701244 199.732121 
L 575.083435 199.732121 
L 583.465627 199.732121 
L 591.847818 199.732121 
L 600.23001 199.732121 
L 608.612201 199.732121 
L 616.994393 199.732121 
L 625.376585 199.732121 
L 633.758776 199.732121 
L 642.140968 199.732121 
L 650.523159 199.732121 
L 658.905351 199.732121 
L 667.287542 199.732121 
L 675.669734 199.732121 
L 684.051925 199.732121 
L 692.434117 199.732121 
L 700.816308 199.732121 
L 709.1985 199.732121 
L 717.580692 199.732121 
L 725.962883 199.732121 
L 734.345075 199.732121 
L 742.727266 199.732121 
L 751.109458 199.732121 
L 759.491649 199.732121 
L 767.873841 199.732121 
L 776.256032 199.732121 
L 784.638224 199.732121 
L 793.020416 199.732121 
L 801.402607 199.732121 
L 809.784799 199.732121 
L 818.16699 199.732121 
L 826.549182 199.732121 
L 834.931373 199.732121 
L 843.313565 199.732121 
L 851.695756 199.732121 
L 860.077948 199.732121 
L 868.460139 199.732121 
L 876.842331 199.732121 
L 885.224523 199.732121 
L 893.606714 199.732121 
" clip-path="url(#pe1b2e7c993)" style="fill: none; stroke: #b5cf6b; stroke-width: 2; stroke-linecap: round"/>
   </g>
   <g id="line2d_41">
    <path d="M 55.387559 309.234607 
L 63.769751 309.234607 
L 72.151942 309.234607 
L 80.534134 309.234607 
L 88.916325 309.234607 
L 97.298517 309.234607 
L 105.680709 309.234607 
L 114.0629 309.234607 
L 122.445092 309.234607 
L 130.827283 309.234607 
L 139.209475 309.234607 
L 147.591666 309.234607 
L 155.973858 309.234607 
L 164.356049 309.234607 
L 172.738241 309.234607 
L 181.120433 309.234607 
L 189.502624 309.234607 
L 197.884816 309.234607 
L 206.267007 309.234607 
L 214.649199 309.234607 
L 223.03139 309.234607 
L 231.413582 309.234607 
L 239.795773 309.234607 
L 248.177965 309.234607 
L 256.560156 309.234607 
L 264.942348 309.234607 
L 273.32454 309.234607 
L 281.706731 309.234607 
L 290.088923 309.234607 
L 298.471114 309.234607 
L 306.853306 309.234607 
L 315.235497 309.234607 
L 323.617689 309.234607 
L 331.99988 309.234607 
L 340.382072 309.234607 
L 348.764263 309.234607 
L 357.146455 309.234607 
L 365.528647 309.234607 
L 373.910838 309.234607 
L 382.29303 309.234607 
L 390.675221 309.234607 
L 399.057413 309.234607 
L 407.439604 309.234607 
L 415.821796 309.234607 
L 424.203987 309.234607 
L 432.586179 309.234607 
L 440.96837 309.234607 
L 449.350562 309.234607 
L 457.732754 309.234607 
L 466.114945 309.234607 
L 474.497137 309.234607 
L 482.879328 309.234607 
L 491.26152 309.234607 
L 499.643711 309.234607 
L 508.025903 309.234607 
L 516.408094 309.234607 
L 524.790286 309.234607 
L 533.172478 309.234607 
L 541.554669 309.234607 
L 549.936861 309.234607 
L 558.319052 309.234607 
L 566.701244 309.234607 
L 575.083435 309.234607 
L 583.465627 309.234607 
L 591.847818 309.234607 
L 600.23001 309.234607 
L 608.612201 309.234607 
L 616.994393 309.234607 
L 625.376585 309.234607 
L 633.758776 309.234607 
L 642.140968 309.234607 
L 650.523159 309.234607 
L 658.905351 309.234607 
L 667.287542 309.234607 
L 675.669734 309.234607 
L 684.051925 309.234607 
L 692.434117 309.234607 
L 700.816308 309.234607 
L 709.1985 309.234607 
L 717.580692 309.234607 
L 725.962883 309.234607 
L 734.345075 309.234607 
L 742.727266 309.234607 
L 751.109458 309.234607 
L 759.491649 309.234607 
L 767.873841 309.234607 
L 776.256032 309.234607 
L 784.638224 309.234607 
L 793.020416 309.234607 
L 801.402607 309.234607 
L 809.784799 309.234607 
L 818.16699 309.234607 
L 826.549182 309.234607 
L 834.931373 309.234607 
L 843.313565 309.234607 
L 851.695756 309.234607 
L 860.077948 309.234607 
L 868.460139 309.234607 
L 876.842331 309.234607 
L 885.224523 309.234607 
L 893.606714 309.234607 
" clip-path="url(#pe1b2e7c993)" style="fill: none; stroke: #8c6d31; stroke-width: 2; stroke-linecap: round"/>
   </g>
   <g id="line2d_42">
    <path d="M 55.387559 398.591639 
L 63.769751 398.591639 
L 72.151942 398.591639 
L 80.534134 398.591639 
L 88.916325 398.591639 
L 97.298517 398.591639 
L 105.680709 398.591639 
L 114.0629 398.591639 
L 122.445092 398.591639 
L 130.827283 398.591639 
L 139.209475 398.591639 
L 147.591666 398.591639 
L 155.973858 398.591639 
L 164.356049 398.591639 
L 172.738241 398.591639 
L 181.120433 398.591639 
L 189.502624 398.591639 
L 197.884816 398.591639 
L 206.267007 398.591639 
L 214.649199 398.591639 
L 223.03139 398.591639 
L 231.413582 398.591639 
L 239.795773 398.591639 
L 248.177965 398.591639 
L 256.560156 398.591639 
L 264.942348 398.591639 
L 273.32454 398.591639 
L 281.706731 398.591639 
L 290.088923 398.591639 
L 298.471114 398.591639 
L 306.853306 398.591639 
L 315.235497 398.591639 
L 323.617689 398.591639 
L 331.99988 398.591639 
L 340.382072 398.591639 
L 348.764263 398.591639 
L 357.146455 398.591639 
L 365.528647 398.591639 
L 373.910838 398.591639 
L 382.29303 398.591639 
L 390.675221 398.591639 
L 399.057413 398.591639 
L 407.439604 398.591639 
L 415.821796 398.591639 
L 424.203987 398.591639 
L 432.586179 398.591639 
L 440.96837 398.591639 
L 449.350562 398.591639 
L 457.732754 398.591639 
L 466.114945 398.591639 
L 474.497137 398.591639 
L 482.879328 398.591639 
L 491.26152 398.591639 
L 499.643711 398.591639 
L 508.025903 398.591639 
L 516.408094 398.591639 
L 524.790286 398.591639 
L 533.172478 398.591639 
L 541.554669 398.591639 
L 549.936861 398.591639 
L 558.319052 398.591639 
L 566.701244 398.591639 
L 575.083435 398.591639 
L 583.465627 398.591639 
L 591.847818 398.591639 
L 600.23001 398.591639 
L 608.612201 398.591639 
L 616.994393 398.591639 
L 625.376585 398.591639 
L 633.758776 398.591639 
L 642.140968 398.591639 
L 650.523159 398.591639 
L 658.905351 398.591639 
L 667.287542 398.591639 
L 675.669734 398.591639 
L 684.051925 398.591639 
L 692.434117 398.591639 
L 700.816308 398.591639 
L 709.1985 398.591639 
L 717.580692 398.591639 
L 725.962883 398.591639 
L 734.345075 398.591639 
L 742.727266 398.591639 
L 751.109458 398.591639 
L 759.491649 398.591639 
L 767.873841 398.591639 
L 776.256032 398.591639 
L 784.638224 398.591639 
L 793.020416 398.591639 
L 801.402607 398.591639 
L 809.784799 398.591639 
L 818.16699 398.591639 
L 826.549182 398.591639 
L 834.931373 398.591639 
L 843.313565 398.591639 
L 851.695756 398.591639 
L 860.077948 398.591639 
L 868.460139 398.591639 
L 876.842331 398.591639 
L 885.224523 398.591639 
L 893.606714 398.591639 
" clip-path="url(#pe1b2e7c993)" style="fill: none; stroke: #e7cb94; stroke-width: 2; stroke-linecap: round"/>
   </g>
   <g id="line2d_43">
    <path d="M 55.387559 441.638762 
L 63.769751 441.638762 
L 72.151942 441.638762 
L 80.534134 441.638762 
L 88.916325 441.638762 
L 97.298517 441.638762 
L 105.680709 441.638762 
L 114.0629 441.638762 
L 122.445092 441.638762 
L 130.827283 441.638762 
L 139.209475 441.638762 
L 147.591666 441.638762 
L 155.973858 441.638762 
L 164.356049 441.638762 
L 172.738241 441.638762 
L 181.120433 441.638762 
L 189.502624 441.638762 
L 197.884816 441.638762 
L 206.267007 441.638762 
L 214.649199 441.638762 
L 223.03139 441.638762 
L 231.413582 441.638762 
L 239.795773 441.638762 
L 248.177965 441.638762 
L 256.560156 441.638762 
L 264.942348 441.638762 
L 273.32454 441.638762 
L 281.706731 441.638762 
L 290.088923 441.638762 
L 298.471114 441.638762 
L 306.853306 441.638762 
L 315.235497 441.638762 
L 323.617689 441.638762 
L 331.99988 441.638762 
L 340.382072 441.638762 
L 348.764263 441.638762 
L 357.146455 441.638762 
L 365.528647 441.638762 
L 373.910838 441.638762 
L 382.29303 441.638762 
L 390.675221 441.638762 
L 399.057413 441.638762 
L 407.439604 441.638762 
L 415.821796 441.638762 
L 424.203987 441.638762 
L 432.586179 441.638762 
L 440.96837 441.638762 
L 449.350562 441.638762 
L 457.732754 441.638762 
L 466.114945 441.638762 
L 474.497137 441.638762 
L 482.879328 441.638762 
L 491.26152 441.638762 
L 499.643711 441.638762 
L 508.025903 441.638762 
L 516.408094 441.638762 
L 524.790286 441.638762 
L 533.172478 441.638762 
L 541.554669 441.638762 
L 549.936861 441.638762 
L 558.319052 441.638762 
L 566.701244 441.638762 
L 575.083435 441.638762 
L 583.465627 441.638762 
L 591.847818 441.638762 
L 600.23001 441.638762 
L 608.612201 441.638762 
L 616.994393 441.638762 
L 625.376585 441.638762 
L 633.758776 441.638762 
L 642.140968 441.638762 
L 650.523159 441.638762 
L 658.905351 441.638762 
L 667.287542 441.638762 
L 675.669734 441.638762 
L 684.051925 441.638762 
L 692.434117 441.638762 
L 700.816308 441.638762 
L 709.1985 441.638762 
L 717.580692 441.638762 
L 725.962883 441.638762 
L 734.345075 441.638762 
L 742.727266 441.638762 
L 751.109458 441.638762 
L 759.491649 441.638762 
L 767.873841 441.638762 
L 776.256032 441.638762 
L 784.638224 441.638762 
L 793.020416 441.638762 
L 801.402607 441.638762 
L 809.784799 441.638762 
L 818.16699 441.638762 
L 826.549182 441.638762 
L 834.931373 441.638762 
L 843.313565 441.638762 
L 851.695756 441.638762 
L 860.077948 441.638762 
L 868.460139 441.638762 
L 876.842331 441.638762 
L 885.224523 441.638762 
L 893.606714 441.638762 
" clip-path="url(#pe1b2e7c993)" style="fill: none; stroke: #ad494a; stroke-width: 2; stroke-linecap: round"/>
   </g>
   <g id="line2d_44">
    <path d="M 55.387559 465.620459 
L 63.769751 465.620459 
L 72.151942 465.620459 
L 80.534134 465.620459 
L 88.916325 465.620459 
L 97.298517 465.620459 
L 105.680709 465.620459 
L 114.0629 465.620459 
L 122.445092 465.620459 
L 130.827283 465.620459 
L 139.209475 465.620459 
L 147.591666 465.620459 
L 155.973858 465.620459 
L 164.356049 465.620459 
L 172.738241 465.620459 
L 181.120433 465.620459 
L 189.502624 465.620459 
L 197.884816 465.620459 
L 206.267007 465.620459 
L 214.649199 465.620459 
L 223.03139 465.620459 
L 231.413582 465.620459 
L 239.795773 465.620459 
L 248.177965 465.620459 
L 256.560156 465.620459 
L 264.942348 465.620459 
L 273.32454 465.620459 
L 281.706731 465.620459 
L 290.088923 465.620459 
L 298.471114 465.620459 
L 306.853306 465.620459 
L 315.235497 465.620459 
L 323.617689 465.620459 
L 331.99988 465.620459 
L 340.382072 465.620459 
L 348.764263 465.620459 
L 357.146455 465.620459 
L 365.528647 465.620459 
L 373.910838 465.620459 
L 382.29303 465.620459 
L 390.675221 465.620459 
L 399.057413 465.620459 
L 407.439604 465.620459 
L 415.821796 465.620459 
L 424.203987 465.620459 
L 432.586179 465.620459 
L 440.96837 465.620459 
L 449.350562 465.620459 
L 457.732754 465.620459 
L 466.114945 465.620459 
L 474.497137 465.620459 
L 482.879328 465.620459 
L 491.26152 465.620459 
L 499.643711 465.620459 
L 508.025903 465.620459 
L 516.408094 465.620459 
L 524.790286 465.620459 
L 533.172478 465.620459 
L 541.554669 465.620459 
L 549.936861 465.620459 
L 558.319052 465.620459 
L 566.701244 465.620459 
L 575.083435 465.620459 
L 583.465627 465.620459 
L 591.847818 465.620459 
L 600.23001 465.620459 
L 608.612201 465.620459 
L 616.994393 465.620459 
L 625.376585 465.620459 
L 633.758776 465.620459 
L 642.140968 465.620459 
L 650.523159 465.620459 
L 658.905351 465.620459 
L 667.287542 465.620459 
L 675.669734 465.620459 
L 684.051925 465.620459 
L 692.434117 465.620459 
L 700.816308 465.620459 
L 709.1985 465.620459 
L 717.580692 465.620459 
L 725.962883 465.620459 
L 734.345075 465.620459 
L 742.727266 465.620459 
L 751.109458 465.620459 
L 759.491649 465.620459 
L 767.873841 465.620459 
L 776.256032 465.620459 
L 784.638224 465.620459 
L 793.020416 465.620459 
L 801.402607 465.620459 
L 809.784799 465.620459 
L 818.16699 465.620459 
L 826.549182 465.620459 
L 834.931373 465.620459 
L 843.313565 465.620459 
L 851.695756 465.620459 
L 860.077948 465.620459 
L 868.460139 465.620459 
L 876.842331 465.620459 
L 885.224523 465.620459 
L 893.606714 465.620459 
" clip-path="url(#pe1b2e7c993)" style="fill: none; stroke: #e7969c; stroke-width: 2; stroke-linecap: round"/>
   </g>
   <g id="line2d_45">
    <path d="M 55.387559 480.335062 
L 63.769751 480.335062 
L 72.151942 480.335062 
L 80.534134 480.335062 
L 88.916325 480.335062 
L 97.298517 480.335062 
L 105.680709 480.335062 
L 114.0629 480.335062 
L 122.445092 480.335062 
L 130.827283 480.335062 
L 139.209475 480.335062 
L 147.591666 480.335062 
L 155.973858 480.335062 
L 164.356049 480.335062 
L 172.738241 480.335062 
L 181.120433 480.335062 
L 189.502624 480.335062 
L 197.884816 480.335062 
L 206.267007 480.335062 
L 214.649199 480.335062 
L 223.03139 480.335062 
L 231.413582 480.335062 
L 239.795773 480.335062 
L 248.177965 480.335062 
L 256.560156 480.335062 
L 264.942348 480.335062 
L 273.32454 480.335062 
L 281.706731 480.335062 
L 290.088923 480.335062 
L 298.471114 480.335062 
L 306.853306 480.335062 
L 315.235497 480.335062 
L 323.617689 480.335062 
L 331.99988 480.335062 
L 340.382072 480.335062 
L 348.764263 480.335062 
L 357.146455 480.335062 
L 365.528647 480.335062 
L 373.910838 480.335062 
L 382.29303 480.335062 
L 390.675221 480.335062 
L 399.057413 480.335062 
L 407.439604 480.335062 
L 415.821796 480.335062 
L 424.203987 480.335062 
L 432.586179 480.335062 
L 440.96837 480.335062 
L 449.350562 480.335062 
L 457.732754 480.335062 
L 466.114945 480.335062 
L 474.497137 480.335062 
L 482.879328 480.335062 
L 491.26152 480.335062 
L 499.643711 480.335062 
L 508.025903 480.335062 
L 516.408094 480.335062 
L 524.790286 480.335062 
L 533.172478 480.335062 
L 541.554669 480.335062 
L 549.936861 480.335062 
L 558.319052 480.335062 
L 566.701244 480.335062 
L 575.083435 480.335062 
L 583.465627 480.335062 
L 591.847818 480.335062 
L 600.23001 480.335062 
L 608.612201 480.335062 
L 616.994393 480.335062 
L 625.376585 480.335062 
L 633.758776 480.335062 
L 642.140968 480.335062 
L 650.523159 480.335062 
L 658.905351 480.335062 
L 667.287542 480.335062 
L 675.669734 480.335062 
L 684.051925 480.335062 
L 692.434117 480.335062 
L 700.816308 480.335062 
L 709.1985 480.335062 
L 717.580692 480.335062 
L 725.962883 480.335062 
L 734.345075 480.335062 
L 742.727266 480.335062 
L 751.109458 480.335062 
L 759.491649 480.335062 
L 767.873841 480.335062 
L 776.256032 480.335062 
L 784.638224 480.335062 
L 793.020416 480.335062 
L 801.402607 480.335062 
L 809.784799 480.335062 
L 818.16699 480.335062 
L 826.549182 480.335062 
L 834.931373 480.335062 
L 843.313565 480.335062 
L 851.695756 480.335062 
L 860.077948 480.335062 
L 868.460139 480.335062 
L 876.842331 480.335062 
L 885.224523 480.335062 
L 893.606714 480.335062 
" clip-path="url(#pe1b2e7c993)" style="fill: none; stroke: #a55194; stroke-width: 2; stroke-linecap: round"/>
   </g>
   <g id="line2d_46">
    <path d="M 55.387559 490.006902 
L 63.769751 490.006902 
L 72.151942 490.006902 
L 80.534134 490.006902 
L 88.916325 490.006902 
L 97.298517 490.006902 
L 105.680709 490.006902 
L 114.0629 490.006902 
L 122.445092 490.006902 
L 130.827283 490.006902 
L 139.209475 490.006902 
L 147.591666 490.006902 
L 155.973858 490.006902 
L 164.356049 490.006902 
L 172.738241 490.006902 
L 181.120433 490.006902 
L 189.502624 490.006902 
L 197.884816 490.006902 
L 206.267007 490.006902 
L 214.649199 490.006902 
L 223.03139 490.006902 
L 231.413582 490.006902 
L 239.795773 490.006902 
L 248.177965 490.006902 
L 256.560156 490.006902 
L 264.942348 490.006902 
L 273.32454 490.006902 
L 281.706731 490.006902 
L 290.088923 490.006902 
L 298.471114 490.006902 
L 306.853306 490.006902 
L 315.235497 490.006902 
L 323.617689 490.006902 
L 331.99988 490.006902 
L 340.382072 490.006902 
L 348.764263 490.006902 
L 357.146455 490.006902 
L 365.528647 490.006902 
L 373.910838 490.006902 
L 382.29303 490.006902 
L 390.675221 490.006902 
L 399.057413 490.006902 
L 407.439604 490.006902 
L 415.821796 490.006902 
L 424.203987 490.006902 
L 432.586179 490.006902 
L 440.96837 490.006902 
L 449.350562 490.006902 
L 457.732754 490.006902 
L 466.114945 490.006902 
L 474.497137 490.006902 
L 482.879328 490.006902 
L 491.26152 490.006902 
L 499.643711 490.006902 
L 508.025903 490.006902 
L 516.408094 490.006902 
L 524.790286 490.006902 
L 533.172478 490.006902 
L 541.554669 490.006902 
L 549.936861 490.006902 
L 558.319052 490.006902 
L 566.701244 490.006902 
L 575.083435 490.006902 
L 583.465627 490.006902 
L 591.847818 490.006902 
L 600.23001 490.006902 
L 608.612201 490.006902 
L 616.994393 490.006902 
L 625.376585 490.006902 
L 633.758776 490.006902 
L 642.140968 490.006902 
L 650.523159 490.006902 
L 658.905351 490.006902 
L 667.287542 490.006902 
L 675.669734 490.006902 
L 684.051925 490.006902 
L 692.434117 490.006902 
L 700.816308 490.006902 
L 709.1985 490.006902 
L 717.580692 490.006902 
L 725.962883 490.006902 
L 734.345075 490.006902 
L 742.727266 490.006902 
L 751.109458 490.006902 
L 759.491649 490.006902 
L 767.873841 490.006902 
L 776.256032 490.006902 
L 784.638224 490.006902 
L 793.020416 490.006902 
L 801.402607 490.006902 
L 809.784799 490.006902 
L 818.16699 490.006902 
L 826.549182 490.006902 
L 834.931373 490.006902 
L 843.313565 490.006902 
L 851.695756 490.006902 
L 860.077948 490.006902 
L 868.460139 490.006902 
L 876.842331 490.006902 
L 885.224523 490.006902 
L 893.606714 490.006902 
" clip-path="url(#pe1b2e7c993)" style="fill: none; stroke: #de9ed6; stroke-width: 2; stroke-linecap: round"/>
   </g>
   <g id="patch_3">
    <path d="M 55.387559 521.153031 
L 55.387559 51.564121 
" style="fill: none"/>
   </g>
   <g id="patch_4">
    <path d="M 935.517672 521.153031 
L 935.517672 51.564121 
" style="fill: none"/>
   </g>
   <g id="patch_5">
    <path d="M 55.387559 521.153031 
L 935.517672 521.153031 
" style="fill: none"/>
   </g>
   <g id="patch_6">
    <path d="M 55.387559 51.564121 
L 935.517672 51.564121 
" style="fill: none"/>
   </g>
   <g id="patch_7">
    <path d="M 474.497137 119.312486 
Q 474.497137 270.004143 474.497137 419.018749 
" style="fill: none; stroke: #000000; stroke-width: 1.5; stroke-linecap: round"/>
    <path d="M 477.697137 412.618749 
L 474.497137 419.018749 
L 471.297137 412.618749 
" style="fill: none; stroke: #000000; stroke-width: 1.5; stroke-linecap: round"/>
   </g>
   <g id="text_20">
    <!-- Time -->
    <g style="fill: #262626" transform="translate(495.452616 419.212236) scale(0.18 -0.18)">
     <defs>
      <path id="CMR17-54" d="M 3981 4326 
L 288 4326 
L 179 2918 
L 294 2918 
C 378 3976 467 4160 1453 4160 
C 1568 4160 1754 4160 1805 4154 
C 1926 4135 1926 4058 1926 3912 
L 1926 459 
C 1926 230 1907 160 1376 160 
L 1197 160 
L 1197 0 
C 1504 0 1824 0 2138 0 
C 2451 0 2771 0 3078 0 
L 3078 160 
L 2899 160 
C 2368 160 2349 230 2349 459 
L 2349 3912 
C 2349 4052 2349 4129 2464 4154 
C 2515 4160 2701 4160 2816 4160 
C 3795 4160 3891 3976 3974 2918 
L 4090 2918 
L 3981 4326 
z
" transform="scale(0.015625)"/>
      <path id="CMR17-69" d="M 992 3909 
C 992 4049 877 4170 730 4170 
C 589 4170 467 4056 467 3909 
C 467 3769 582 3648 730 3648 
C 870 3648 992 3763 992 3909 
z
M 243 2706 
L 243 2541 
C 602 2541 653 2502 653 2197 
L 653 427 
C 653 184 627 153 218 153 
L 218 -13 
C 371 0 646 0 806 0 
C 960 0 1222 0 1370 -13 
L 1370 153 
C 992 153 979 191 979 420 
L 979 2776 
L 243 2706 
z
" transform="scale(0.015625)"/>
      <path id="CMR17-6d" d="M 4326 1933 
C 4326 2252 4269 2790 3507 2790 
C 3072 2790 2771 2496 2656 2151 
L 2650 2151 
C 2573 2676 2195 2790 1837 2790 
C 1331 2790 1069 2400 973 2144 
L 966 2144 
L 966 2790 
L 211 2720 
L 211 2554 
C 589 2554 646 2515 646 2208 
L 646 428 
C 646 184 621 153 211 153 
L 211 -13 
C 365 0 646 0 813 0 
C 979 0 1267 0 1421 -13 
L 1421 153 
C 1011 153 986 178 986 428 
L 986 1658 
C 986 2247 1344 2688 1792 2688 
C 2266 2688 2317 2266 2317 1958 
L 2317 428 
C 2317 184 2291 153 1882 153 
L 1882 -13 
C 2035 0 2317 0 2483 0 
C 2650 0 2938 0 3091 -13 
L 3091 153 
C 2682 153 2656 178 2656 428 
L 2656 1658 
C 2656 2247 3014 2688 3462 2688 
C 3936 2688 3987 2266 3987 1958 
L 3987 428 
C 3987 184 3962 153 3552 153 
L 3552 -13 
C 3706 0 3987 0 4154 0 
C 4320 0 4608 0 4762 -13 
L 4762 153 
C 4352 153 4326 178 4326 428 
L 4326 1933 
z
" transform="scale(0.015625)"/>
      <path id="CMR17-65" d="M 2438 1472 
C 2464 1498 2464 1511 2464 1576 
C 2464 2238 2118 2816 1389 2816 
C 710 2816 173 2169 173 1383 
C 173 551 781 -64 1459 -64 
C 2176 -64 2458 607 2458 740 
C 2458 784 2419 784 2406 784 
C 2362 784 2355 771 2330 696 
C 2189 265 1837 51 1504 51 
C 1229 51 954 203 781 480 
C 582 803 582 1176 582 1472 
L 2438 1472 
z
M 589 1568 
C 634 2505 1126 2714 1382 2714 
C 1818 2714 2112 2297 2118 1568 
L 589 1568 
z
" transform="scale(0.015625)"/>
     </defs>
     <use xlink:href="#CMR17-54" transform="scale(0.996264)"/>
     <use xlink:href="#CMR17-69" transform="translate(66.509881 0) scale(0.996264)"/>
     <use xlink:href="#CMR17-6d" transform="translate(91.380939 0) scale(0.996264)"/>
     <use xlink:href="#CMR17-65" transform="translate(168.300529 0) scale(0.996264)"/>
    </g>
   </g>
   <g id="legend_1">
    <g id="line2d_47">
     <path d="M 948.117672 197.198434 
L 962.117672 197.198434 
L 976.117672 197.198434 
" style="fill: none; stroke: #393b79; stroke-width: 2; stroke-linecap: round"/>
    </g>
    <g id="text_21">
     <!-- t = 0.00 -->
     <g style="fill: #262626" transform="translate(987.317672 202.098434) scale(0.14 -0.14)">
      <defs>
       <path id="CMR17-74" d="M 966 2560 
L 1862 2560 
L 1862 2725 
L 966 2725 
L 966 3904 
L 851 3904 
C 838 3245 614 2668 70 2668 
L 70 2560 
L 627 2560 
L 627 771 
C 627 650 627 -64 1370 -64 
C 1747 -64 1965 306 1965 777 
L 1965 1140 
L 1850 1140 
L 1850 783 
C 1850 344 1677 51 1408 51 
C 1222 51 966 178 966 758 
L 966 2560 
z
" transform="scale(0.015625)"/>
       <path id="CMR17-3d" d="M 4115 2017 
C 4211 2017 4307 2017 4307 2125 
C 4307 2240 4198 2240 4090 2240 
L 512 2240 
C 403 2240 294 2240 294 2125 
C 294 2017 390 2017 486 2017 
L 4115 2017 
z
M 4090 896 
C 4198 896 4307 896 4307 1011 
C 4307 1119 4211 1119 4115 1119 
L 486 1119 
C 390 1119 294 1119 294 1011 
C 294 896 403 896 512 896 
L 4090 896 
z
" transform="scale(0.015625)"/>
       <path id="CMR17-2e" d="M 1062 261 
C 1062 420 934 522 800 522 
C 672 522 538 420 538 261 
C 538 102 666 0 800 0 
C 928 0 1062 102 1062 261 
z
" transform="scale(0.015625)"/>
      </defs>
      <use xlink:href="#CMR17-74" transform="scale(0.996264)"/>
      <use xlink:href="#CMR17-3d" transform="translate(65.356734 0) scale(0.996264)"/>
      <use xlink:href="#CMR17-30" transform="translate(167.147489 0) scale(0.996264)"/>
      <use xlink:href="#CMR17-2e" transform="translate(212.837966 0) scale(0.996264)"/>
      <use xlink:href="#CMR17-30" transform="translate(237.709025 0) scale(0.996264)"/>
      <use xlink:href="#CMR17-30" transform="translate(283.399502 0) scale(0.996264)"/>
     </g>
    </g>
    <g id="line2d_48">
     <path d="M 948.117672 216.710462 
L 962.117672 216.710462 
L 976.117672 216.710462 
" style="fill: none; stroke: #6b6ecf; stroke-width: 2; stroke-linecap: round"/>
    </g>
    <g id="text_22">
     <!-- t = 10.00 -->
     <g style="fill: #262626" transform="translate(987.317672 221.610462) scale(0.14 -0.14)">
      <use xlink:href="#CMR17-74" transform="scale(0.996264)"/>
      <use xlink:href="#CMR17-3d" transform="translate(65.356734 0) scale(0.996264)"/>
      <use xlink:href="#CMR17-31" transform="translate(167.147489 0) scale(0.996264)"/>
      <use xlink:href="#CMR17-30" transform="translate(212.837966 0) scale(0.996264)"/>
      <use xlink:href="#CMR17-2e" transform="translate(258.528443 0) scale(0.996264)"/>
      <use xlink:href="#CMR17-30" transform="translate(283.399502 0) scale(0.996264)"/>
      <use xlink:href="#CMR17-30" transform="translate(329.089979 0) scale(0.996264)"/>
     </g>
    </g>
    <g id="line2d_49">
     <path d="M 948.117672 236.222491 
L 962.117672 236.222491 
L 976.117672 236.222491 
" style="fill: none; stroke: #637939; stroke-width: 2; stroke-linecap: round"/>
    </g>
    <g id="text_23">
     <!-- t = 50.00 -->
     <g style="fill: #262626" transform="translate(987.317672 241.122491) scale(0.14 -0.14)">
      <use xlink:href="#CMR17-74" transform="scale(0.996264)"/>
      <use xlink:href="#CMR17-3d" transform="translate(65.356734 0) scale(0.996264)"/>
      <use xlink:href="#CMR17-35" transform="translate(167.147489 0) scale(0.996264)"/>
      <use xlink:href="#CMR17-30" transform="translate(212.837966 0) scale(0.996264)"/>
      <use xlink:href="#CMR17-2e" transform="translate(258.528443 0) scale(0.996264)"/>
      <use xlink:href="#CMR17-30" transform="translate(283.399502 0) scale(0.996264)"/>
      <use xlink:href="#CMR17-30" transform="translate(329.089979 0) scale(0.996264)"/>
     </g>
    </g>
    <g id="line2d_50">
     <path d="M 948.117672 255.734519 
L 962.117672 255.734519 
L 976.117672 255.734519 
" style="fill: none; stroke: #b5cf6b; stroke-width: 2; stroke-linecap: round"/>
    </g>
    <g id="text_24">
     <!-- t = 100.00 -->
     <g style="fill: #262626" transform="translate(987.317672 260.634519) scale(0.14 -0.14)">
      <use xlink:href="#CMR17-74" transform="scale(0.996264)"/>
      <use xlink:href="#CMR17-3d" transform="translate(65.356734 0) scale(0.996264)"/>
      <use xlink:href="#CMR17-31" transform="translate(167.147489 0) scale(0.996264)"/>
      <use xlink:href="#CMR17-30" transform="translate(212.837966 0) scale(0.996264)"/>
      <use xlink:href="#CMR17-30" transform="translate(258.528443 0) scale(0.996264)"/>
      <use xlink:href="#CMR17-2e" transform="translate(304.21892 0) scale(0.996264)"/>
      <use xlink:href="#CMR17-30" transform="translate(329.089979 0) scale(0.996264)"/>
      <use xlink:href="#CMR17-30" transform="translate(374.780456 0) scale(0.996264)"/>
     </g>
    </g>
    <g id="line2d_51">
     <path d="M 948.117672 275.246547 
L 962.117672 275.246547 
L 976.117672 275.246547 
" style="fill: none; stroke: #8c6d31; stroke-width: 2; stroke-linecap: round"/>
    </g>
    <g id="text_25">
     <!-- t = 250.00 -->
     <g style="fill: #262626" transform="translate(987.317672 280.146547) scale(0.14 -0.14)">
      <use xlink:href="#CMR17-74" transform="scale(0.996264)"/>
      <use xlink:href="#CMR17-3d" transform="translate(65.356734 0) scale(0.996264)"/>
      <use xlink:href="#CMR17-32" transform="translate(167.147489 0) scale(0.996264)"/>
      <use xlink:href="#CMR17-35" transform="translate(212.837966 0) scale(0.996264)"/>
      <use xlink:href="#CMR17-30" transform="translate(258.528443 0) scale(0.996264)"/>
      <use xlink:href="#CMR17-2e" transform="translate(304.21892 0) scale(0.996264)"/>
      <use xlink:href="#CMR17-30" transform="translate(329.089979 0) scale(0.996264)"/>
      <use xlink:href="#CMR17-30" transform="translate(374.780456 0) scale(0.996264)"/>
     </g>
    </g>
    <g id="line2d_52">
     <path d="M 948.117672 294.758576 
L 962.117672 294.758576 
L 976.117672 294.758576 
" style="fill: none; stroke: #e7cb94; stroke-width: 2; stroke-linecap: round"/>
    </g>
    <g id="text_26">
     <!-- t = 500.00 -->
     <g style="fill: #262626" transform="translate(987.317672 299.658576) scale(0.14 -0.14)">
      <use xlink:href="#CMR17-74" transform="scale(0.996264)"/>
      <use xlink:href="#CMR17-3d" transform="translate(65.356734 0) scale(0.996264)"/>
      <use xlink:href="#CMR17-35" transform="translate(167.147489 0) scale(0.996264)"/>
      <use xlink:href="#CMR17-30" transform="translate(212.837966 0) scale(0.996264)"/>
      <use xlink:href="#CMR17-30" transform="translate(258.528443 0) scale(0.996264)"/>
      <use xlink:href="#CMR17-2e" transform="translate(304.21892 0) scale(0.996264)"/>
      <use xlink:href="#CMR17-30" transform="translate(329.089979 0) scale(0.996264)"/>
      <use xlink:href="#CMR17-30" transform="translate(374.780456 0) scale(0.996264)"/>
     </g>
    </g>
    <g id="line2d_53">
     <path d="M 948.117672 314.270604 
L 962.117672 314.270604 
L 976.117672 314.270604 
" style="fill: none; stroke: #ad494a; stroke-width: 2; stroke-linecap: round"/>
    </g>
    <g id="text_27">
     <!-- t = 750.00 -->
     <g style="fill: #262626" transform="translate(987.317672 319.170604) scale(0.14 -0.14)">
      <use xlink:href="#CMR17-74" transform="scale(0.996264)"/>
      <use xlink:href="#CMR17-3d" transform="translate(65.356734 0) scale(0.996264)"/>
      <use xlink:href="#CMR17-37" transform="translate(167.147489 0) scale(0.996264)"/>
      <use xlink:href="#CMR17-35" transform="translate(212.837966 0) scale(0.996264)"/>
      <use xlink:href="#CMR17-30" transform="translate(258.528443 0) scale(0.996264)"/>
      <use xlink:href="#CMR17-2e" transform="translate(304.21892 0) scale(0.996264)"/>
      <use xlink:href="#CMR17-30" transform="translate(329.089979 0) scale(0.996264)"/>
      <use xlink:href="#CMR17-30" transform="translate(374.780456 0) scale(0.996264)"/>
     </g>
    </g>
    <g id="line2d_54">
     <path d="M 948.117672 333.782633 
L 962.117672 333.782633 
L 976.117672 333.782633 
" style="fill: none; stroke: #e7969c; stroke-width: 2; stroke-linecap: round"/>
    </g>
    <g id="text_28">
     <!-- t = 1000.00 -->
     <g style="fill: #262626" transform="translate(987.317672 338.682633) scale(0.14 -0.14)">
      <use xlink:href="#CMR17-74" transform="scale(0.996264)"/>
      <use xlink:href="#CMR17-3d" transform="translate(65.356734 0) scale(0.996264)"/>
      <use xlink:href="#CMR17-31" transform="translate(167.147489 0) scale(0.996264)"/>
      <use xlink:href="#CMR17-30" transform="translate(212.837966 0) scale(0.996264)"/>
      <use xlink:href="#CMR17-30" transform="translate(258.528443 0) scale(0.996264)"/>
      <use xlink:href="#CMR17-30" transform="translate(304.21892 0) scale(0.996264)"/>
      <use xlink:href="#CMR17-2e" transform="translate(349.909397 0) scale(0.996264)"/>
      <use xlink:href="#CMR17-30" transform="translate(374.780456 0) scale(0.996264)"/>
      <use xlink:href="#CMR17-30" transform="translate(420.470933 0) scale(0.996264)"/>
     </g>
    </g>
    <g id="line2d_55">
     <path d="M 948.117672 353.294661 
L 962.117672 353.294661 
L 976.117672 353.294661 
" style="fill: none; stroke: #a55194; stroke-width: 2; stroke-linecap: round"/>
    </g>
    <g id="text_29">
     <!-- t = 1250.00 -->
     <g style="fill: #262626" transform="translate(987.317672 358.194661) scale(0.14 -0.14)">
      <use xlink:href="#CMR17-74" transform="scale(0.996264)"/>
      <use xlink:href="#CMR17-3d" transform="translate(65.356734 0) scale(0.996264)"/>
      <use xlink:href="#CMR17-31" transform="translate(167.147489 0) scale(0.996264)"/>
      <use xlink:href="#CMR17-32" transform="translate(212.837966 0) scale(0.996264)"/>
      <use xlink:href="#CMR17-35" transform="translate(258.528443 0) scale(0.996264)"/>
      <use xlink:href="#CMR17-30" transform="translate(304.21892 0) scale(0.996264)"/>
      <use xlink:href="#CMR17-2e" transform="translate(349.909397 0) scale(0.996264)"/>
      <use xlink:href="#CMR17-30" transform="translate(374.780456 0) scale(0.996264)"/>
      <use xlink:href="#CMR17-30" transform="translate(420.470933 0) scale(0.996264)"/>
     </g>
    </g>
    <g id="line2d_56">
     <path d="M 948.117672 372.806689 
L 962.117672 372.806689 
L 976.117672 372.806689 
" style="fill: none; stroke: #de9ed6; stroke-width: 2; stroke-linecap: round"/>
    </g>
    <g id="text_30">
     <!-- t = 1500.00 -->
     <g style="fill: #262626" transform="translate(987.317672 377.706689) scale(0.14 -0.14)">
      <use xlink:href="#CMR17-74" transform="scale(0.996264)"/>
      <use xlink:href="#CMR17-3d" transform="translate(65.356734 0) scale(0.996264)"/>
      <use xlink:href="#CMR17-31" transform="translate(167.147489 0) scale(0.996264)"/>
      <use xlink:href="#CMR17-35" transform="translate(212.837966 0) scale(0.996264)"/>
      <use xlink:href="#CMR17-30" transform="translate(258.528443 0) scale(0.996264)"/>
      <use xlink:href="#CMR17-30" transform="translate(304.21892 0) scale(0.996264)"/>
      <use xlink:href="#CMR17-2e" transform="translate(349.909397 0) scale(0.996264)"/>
      <use xlink:href="#CMR17-30" transform="translate(374.780456 0) scale(0.996264)"/>
      <use xlink:href="#CMR17-30" transform="translate(420.470933 0) scale(0.996264)"/>
     </g>
    </g>
   </g>
  </g>
  <g id="text_31">
   <!-- Reactivity -->
   <g style="fill: #262626" transform="translate(500.761015 24.803515) scale(0.192 -0.192)">
    <defs>
     <path id="CMR17-52" d="M 2509 2146 
C 3117 2268 3629 2676 3629 3186 
C 3629 3785 2950 4326 2054 4326 
L 333 4326 
L 333 4160 
C 774 4160 845 4160 845 3873 
L 845 415 
C 845 128 774 128 333 128 
L 333 -26 
C 518 -26 851 -26 1050 -26 
C 1248 -26 1581 -26 1766 -26 
L 1766 128 
C 1325 128 1254 128 1254 417 
L 1254 2112 
L 2003 2112 
C 2368 2112 2573 1964 2662 1881 
C 2918 1632 2918 1459 2918 1024 
C 2918 595 2918 377 3110 160 
C 3354 -102 3680 -128 3821 -128 
C 4294 -128 4365 396 4365 503 
C 4365 540 4365 585 4307 585 
C 4256 585 4250 547 4250 522 
C 4218 112 4032 -26 3834 -26 
C 3482 -26 3443 375 3405 764 
C 3386 898 3373 993 3360 1133 
C 3322 1452 3270 1917 2509 2146 
z
M 1984 2214 
L 1254 2214 
L 1254 3913 
C 1254 4129 1267 4160 1523 4160 
L 1990 4160 
C 2522 4160 3142 3977 3142 3190 
C 3142 2372 2464 2214 1984 2214 
z
" transform="scale(0.015625)"/>
     <path id="CMR17-61" d="M 2304 1653 
C 2304 2072 2304 2294 2035 2543 
C 1798 2752 1523 2816 1306 2816 
C 800 2816 435 2407 435 1971 
C 435 1728 627 1728 666 1728 
C 749 1728 896 1778 896 1954 
C 896 2112 774 2181 666 2181 
C 640 2181 608 2174 589 2168 
C 723 2592 1069 2714 1293 2714 
C 1613 2714 1965 2429 1965 1885 
L 1965 1600 
C 1587 1600 1133 1549 774 1357 
C 371 1133 256 813 256 570 
C 256 77 832 -64 1171 -64 
C 1523 -64 1850 139 1990 511 
C 2003 233 2182 -18 2464 -18 
C 2598 -18 2938 70 2938 567 
L 2938 920 
L 2822 920 
L 2822 562 
C 2822 178 2650 128 2566 128 
C 2304 128 2304 458 2304 738 
L 2304 1653 
z
M 1965 870 
C 1965 317 1568 38 1216 38 
C 896 38 646 275 646 570 
C 646 761 730 1100 1101 1305 
C 1408 1478 1760 1504 1965 1504 
L 1965 870 
z
" transform="scale(0.015625)"/>
     <path id="CMR17-63" d="M 2234 2240 
C 2112 2240 1933 2240 1933 2017 
C 1933 1838 2080 1787 2163 1787 
C 2208 1787 2394 1807 2394 2024 
C 2394 2467 1958 2803 1466 2803 
C 787 2803 211 2178 211 1363 
C 211 516 813 -64 1466 -64 
C 2259 -64 2458 677 2458 748 
C 2458 774 2451 793 2406 793 
C 2362 793 2355 787 2330 703 
C 2163 180 1798 51 1523 51 
C 1114 51 621 427 621 1369 
C 621 2338 1094 2688 1472 2688 
C 1722 2688 2093 2573 2234 2240 
z
" transform="scale(0.015625)"/>
     <path id="CMR17-76" d="M 2502 2163 
C 2560 2304 2662 2560 3034 2560 
L 3034 2726 
C 2912 2726 2752 2726 2630 2726 
C 2496 2726 2285 2726 2157 2732 
L 2157 2566 
C 2317 2553 2406 2477 2406 2311 
C 2406 2253 2406 2240 2368 2151 
L 1664 377 
L 902 2286 
C 864 2369 864 2381 864 2407 
C 864 2560 1075 2560 1171 2560 
L 1171 2732 
C 1018 2726 736 2726 576 2726 
C 403 2726 205 2726 64 2732 
L 64 2560 
C 307 2560 442 2560 518 2362 
L 1446 44 
C 1485 -51 1491 -64 1549 -64 
C 1606 -64 1613 -51 1651 44 
L 2502 2163 
z
" transform="scale(0.015625)"/>
     <path id="CMR17-79" d="M 2496 2197 
C 2656 2586 2944 2586 3034 2586 
L 3034 2752 
C 2912 2752 2752 2752 2630 2752 
C 2496 2752 2285 2752 2157 2758 
L 2157 2592 
C 2400 2573 2406 2394 2406 2343 
C 2406 2280 2394 2248 2362 2171 
L 1664 449 
L 902 2306 
C 870 2382 870 2426 870 2433 
C 870 2573 1018 2586 1171 2586 
L 1171 2758 
C 1018 2752 742 2752 582 2752 
C 410 2752 205 2752 64 2758 
L 64 2586 
C 410 2586 448 2554 531 2350 
L 1485 15 
C 1197 -738 1030 -1178 627 -1178 
C 557 -1178 397 -1159 282 -1044 
C 429 -1031 493 -942 493 -833 
C 493 -725 416 -629 288 -629 
C 147 -629 77 -725 77 -840 
C 77 -1095 339 -1280 627 -1280 
C 998 -1280 1229 -922 1357 -604 
L 2496 2197 
z
" transform="scale(0.015625)"/>
    </defs>
    <use xlink:href="#CMR17-52" transform="scale(0.996264)"/>
    <use xlink:href="#CMR17-65" transform="translate(67.791102 0) scale(0.996264)"/>
    <use xlink:href="#CMR17-61" transform="translate(108.276762 0) scale(0.996264)"/>
    <use xlink:href="#CMR17-63" transform="translate(153.96724 0) scale(0.996264)"/>
    <use xlink:href="#CMR17-74" transform="translate(194.4529 0) scale(0.996264)"/>
    <use xlink:href="#CMR17-69" transform="translate(229.733668 0) scale(0.996264)"/>
    <use xlink:href="#CMR17-76" transform="translate(254.604726 0) scale(0.996264)"/>
    <use xlink:href="#CMR17-69" transform="translate(302.897642 0) scale(0.996264)"/>
    <use xlink:href="#CMR17-74" transform="translate(327.768701 0) scale(0.996264)"/>
    <use xlink:href="#CMR17-79" transform="translate(360.447014 0) scale(0.996264)"/>
   </g>
  </g>
 </g>
 <defs>
  <clipPath id="pe1b2e7c993">
   <rect x="55.387559" y="51.564121" width="880.130113" height="469.58891"/>
  </clipPath>
 </defs>
</svg>
