<?xml version="1.0" encoding="utf-8" standalone="no"?>
<!DOCTYPE svg PUBLIC "-//W3C//DTD SVG 1.1//EN"
  "http://www.w3.org/Graphics/SVG/1.1/DTD/svg11.dtd">
<svg xmlns:xlink="http://www.w3.org/1999/xlink" width="1080pt" height="576pt" viewBox="0 0 1080 576" xmlns="http://www.w3.org/2000/svg" version="1.1">
 <metadata>
  <rdf:RDF xmlns:dc="http://purl.org/dc/elements/1.1/" xmlns:cc="http://creativecommons.org/ns#" xmlns:rdf="http://www.w3.org/1999/02/22-rdf-syntax-ns#">
   <cc:Work>
    <dc:type rdf:resource="http://purl.org/dc/dcmitype/StillImage"/>
    <dc:date>2024-06-20T08:58:31.095050</dc:date>
    <dc:format>image/svg+xml</dc:format>
    <dc:creator>
     <cc:Agent>
      <dc:title>Matplotlib v3.9.0, https://matplotlib.org/</dc:title>
     </cc:Agent>
    </dc:creator>
   </cc:Work>
  </rdf:RDF>
 </metadata>
 <defs>
  <style type="text/css">*{stroke-linejoin: round; stroke-linecap: butt}</style>
 </defs>
 <g id="figure_1">
  <g id="patch_1">
   <path d="M 0 576 
L 1080 576 
L 1080 0 
L 0 0 
z
" style="fill: #ffffff"/>
  </g>
  <g id="axes_1">
   <g id="patch_2">
    <path d="M 41.730582 521.153031 
L 956.003138 521.153031 
L 956.003138 51.564121 
L 41.730582 51.564121 
z
" style="fill: #eaeaf2"/>
   </g>
   <g id="matplotlib.axis_1">
    <g id="xtick_1">
     <g id="line2d_1">
      <path d="M 41.730582 521.153031 
L 41.730582 51.564121 
" clip-path="url(#p2956e46020)" style="fill: none; stroke: #ffffff; stroke-linecap: round"/>
     </g>
     <g id="line2d_2"/>
     <g id="text_1">
      <!-- $\mathdefault{0.00}$ -->
      <g style="fill: #262626" transform="translate(29.591047 537.838907) scale(0.14 -0.14)">
       <defs>
        <path id="CMR17-30" d="M 2688 2025 
C 2688 2416 2682 3080 2413 3591 
C 2176 4039 1798 4198 1466 4198 
C 1158 4198 768 4058 525 3597 
C 269 3118 243 2524 243 2025 
C 243 1661 250 1106 448 619 
C 723 -39 1216 -128 1466 -128 
C 1760 -128 2208 -7 2470 600 
C 2662 1042 2688 1559 2688 2025 
z
M 1466 -26 
C 1056 -26 813 325 723 812 
C 653 1188 653 1738 653 2096 
C 653 2588 653 2997 736 3387 
C 858 3929 1216 4096 1466 4096 
C 1728 4096 2067 3923 2189 3400 
C 2272 3036 2278 2607 2278 2096 
C 2278 1680 2278 1169 2202 792 
C 2067 95 1690 -26 1466 -26 
z
" transform="scale(0.015625)"/>
        <path id="CMMI12-3a" d="M 1178 307 
C 1178 492 1024 619 870 619 
C 685 619 557 466 557 313 
C 557 128 710 0 864 0 
C 1050 0 1178 153 1178 307 
z
" transform="scale(0.015625)"/>
       </defs>
       <use xlink:href="#CMR17-30" transform="scale(0.996264)"/>
       <use xlink:href="#CMMI12-3a" transform="translate(45.690477 0) scale(0.996264)"/>
       <use xlink:href="#CMR17-30" transform="translate(72.787654 0) scale(0.996264)"/>
       <use xlink:href="#CMR17-30" transform="translate(118.478131 0) scale(0.996264)"/>
      </g>
     </g>
    </g>
    <g id="xtick_2">
     <g id="line2d_3">
      <path d="M 150.572553 521.153031 
L 150.572553 51.564121 
" clip-path="url(#p2956e46020)" style="fill: none; stroke: #ffffff; stroke-linecap: round"/>
     </g>
     <g id="line2d_4"/>
     <g id="text_2">
      <!-- $\mathdefault{0.25}$ -->
      <g style="fill: #262626" transform="translate(138.433018 537.838907) scale(0.14 -0.14)">
       <defs>
        <path id="CMR17-32" d="M 2669 989 
L 2554 989 
C 2490 536 2438 459 2413 420 
C 2381 369 1920 369 1830 369 
L 602 369 
C 832 619 1280 1072 1824 1597 
C 2214 1967 2669 2402 2669 3035 
C 2669 3790 2067 4224 1395 4224 
C 691 4224 262 3604 262 3030 
C 262 2780 448 2748 525 2748 
C 589 2748 781 2787 781 3010 
C 781 3207 614 3264 525 3264 
C 486 3264 448 3258 422 3245 
C 544 3790 915 4058 1306 4058 
C 1862 4058 2227 3617 2227 3035 
C 2227 2479 1901 2000 1536 1584 
L 262 146 
L 262 0 
L 2515 0 
L 2669 989 
z
" transform="scale(0.015625)"/>
        <path id="CMR17-35" d="M 730 3692 
C 794 3666 1056 3584 1325 3584 
C 1920 3584 2246 3911 2432 4100 
C 2432 4157 2432 4192 2394 4192 
C 2387 4192 2374 4192 2323 4163 
C 2099 4058 1837 3973 1517 3973 
C 1325 3973 1037 3999 723 4139 
C 653 4171 640 4171 634 4171 
C 602 4171 595 4164 595 4037 
L 595 2203 
C 595 2089 595 2057 659 2057 
C 691 2057 704 2070 736 2114 
C 941 2401 1222 2522 1542 2522 
C 1766 2522 2246 2382 2246 1289 
C 2246 1085 2246 715 2054 421 
C 1894 159 1645 25 1370 25 
C 947 25 518 320 403 814 
C 429 807 480 795 506 795 
C 589 795 749 840 749 1038 
C 749 1210 627 1280 506 1280 
C 358 1280 262 1190 262 1011 
C 262 454 704 -128 1382 -128 
C 2042 -128 2669 440 2669 1264 
C 2669 2030 2170 2624 1549 2624 
C 1222 2624 947 2503 730 2274 
L 730 3692 
z
" transform="scale(0.015625)"/>
       </defs>
       <use xlink:href="#CMR17-30" transform="scale(0.996264)"/>
       <use xlink:href="#CMMI12-3a" transform="translate(45.690477 0) scale(0.996264)"/>
       <use xlink:href="#CMR17-32" transform="translate(72.787654 0) scale(0.996264)"/>
       <use xlink:href="#CMR17-35" transform="translate(118.478131 0) scale(0.996264)"/>
      </g>
     </g>
    </g>
    <g id="xtick_3">
     <g id="line2d_5">
      <path d="M 259.414524 521.153031 
L 259.414524 51.564121 
" clip-path="url(#p2956e46020)" style="fill: none; stroke: #ffffff; stroke-linecap: round"/>
     </g>
     <g id="line2d_6"/>
     <g id="text_3">
      <!-- $\mathdefault{0.50}$ -->
      <g style="fill: #262626" transform="translate(247.274989 537.838907) scale(0.14 -0.14)">
       <use xlink:href="#CMR17-30" transform="scale(0.996264)"/>
       <use xlink:href="#CMMI12-3a" transform="translate(45.690477 0) scale(0.996264)"/>
       <use xlink:href="#CMR17-35" transform="translate(72.787654 0) scale(0.996264)"/>
       <use xlink:href="#CMR17-30" transform="translate(118.478131 0) scale(0.996264)"/>
      </g>
     </g>
    </g>
    <g id="xtick_4">
     <g id="line2d_7">
      <path d="M 368.256495 521.153031 
L 368.256495 51.564121 
" clip-path="url(#p2956e46020)" style="fill: none; stroke: #ffffff; stroke-linecap: round"/>
     </g>
     <g id="line2d_8"/>
     <g id="text_4">
      <!-- $\mathdefault{0.75}$ -->
      <g style="fill: #262626" transform="translate(356.116959 537.838907) scale(0.14 -0.14)">
       <defs>
        <path id="CMR17-37" d="M 2886 3941 
L 2886 4081 
L 1382 4081 
C 634 4081 621 4165 595 4288 
L 480 4288 
L 294 3094 
L 410 3094 
C 429 3215 474 3540 550 3661 
C 589 3712 1062 3712 1171 3712 
L 2579 3712 
L 1869 2661 
C 1395 1954 1069 999 1069 165 
C 1069 89 1069 -128 1299 -128 
C 1530 -128 1530 89 1530 171 
L 1530 465 
C 1530 1508 1709 2196 2003 2636 
L 2886 3941 
z
" transform="scale(0.015625)"/>
       </defs>
       <use xlink:href="#CMR17-30" transform="scale(0.996264)"/>
       <use xlink:href="#CMMI12-3a" transform="translate(45.690477 0) scale(0.996264)"/>
       <use xlink:href="#CMR17-37" transform="translate(72.787654 0) scale(0.996264)"/>
       <use xlink:href="#CMR17-35" transform="translate(118.478131 0) scale(0.996264)"/>
      </g>
     </g>
    </g>
    <g id="xtick_5">
     <g id="line2d_9">
      <path d="M 477.098466 521.153031 
L 477.098466 51.564121 
" clip-path="url(#p2956e46020)" style="fill: none; stroke: #ffffff; stroke-linecap: round"/>
     </g>
     <g id="line2d_10"/>
     <g id="text_5">
      <!-- $\mathdefault{1.00}$ -->
      <g style="fill: #262626" transform="translate(464.95893 537.838907) scale(0.14 -0.14)">
       <defs>
        <path id="CMR17-31" d="M 1702 4058 
C 1702 4192 1696 4192 1606 4192 
C 1357 3916 979 3827 621 3827 
C 602 3827 570 3827 563 3808 
C 557 3795 557 3782 557 3648 
C 755 3648 1088 3686 1344 3839 
L 1344 461 
C 1344 236 1331 160 781 160 
L 589 160 
L 589 0 
C 896 0 1216 0 1523 0 
C 1830 0 2150 0 2458 0 
L 2458 160 
L 2266 160 
C 1715 160 1702 230 1702 458 
L 1702 4058 
z
" transform="scale(0.015625)"/>
       </defs>
       <use xlink:href="#CMR17-31" transform="scale(0.996264)"/>
       <use xlink:href="#CMMI12-3a" transform="translate(45.690477 0) scale(0.996264)"/>
       <use xlink:href="#CMR17-30" transform="translate(72.787654 0) scale(0.996264)"/>
       <use xlink:href="#CMR17-30" transform="translate(118.478131 0) scale(0.996264)"/>
      </g>
     </g>
    </g>
    <g id="xtick_6">
     <g id="line2d_11">
      <path d="M 585.940437 521.153031 
L 585.940437 51.564121 
" clip-path="url(#p2956e46020)" style="fill: none; stroke: #ffffff; stroke-linecap: round"/>
     </g>
     <g id="line2d_12"/>
     <g id="text_6">
      <!-- $\mathdefault{1.25}$ -->
      <g style="fill: #262626" transform="translate(573.800901 537.838907) scale(0.14 -0.14)">
       <use xlink:href="#CMR17-31" transform="scale(0.996264)"/>
       <use xlink:href="#CMMI12-3a" transform="translate(45.690477 0) scale(0.996264)"/>
       <use xlink:href="#CMR17-32" transform="translate(72.787654 0) scale(0.996264)"/>
       <use xlink:href="#CMR17-35" transform="translate(118.478131 0) scale(0.996264)"/>
      </g>
     </g>
    </g>
    <g id="xtick_7">
     <g id="line2d_13">
      <path d="M 694.782408 521.153031 
L 694.782408 51.564121 
" clip-path="url(#p2956e46020)" style="fill: none; stroke: #ffffff; stroke-linecap: round"/>
     </g>
     <g id="line2d_14"/>
     <g id="text_7">
      <!-- $\mathdefault{1.50}$ -->
      <g style="fill: #262626" transform="translate(682.642872 537.838907) scale(0.14 -0.14)">
       <use xlink:href="#CMR17-31" transform="scale(0.996264)"/>
       <use xlink:href="#CMMI12-3a" transform="translate(45.690477 0) scale(0.996264)"/>
       <use xlink:href="#CMR17-35" transform="translate(72.787654 0) scale(0.996264)"/>
       <use xlink:href="#CMR17-30" transform="translate(118.478131 0) scale(0.996264)"/>
      </g>
     </g>
    </g>
    <g id="xtick_8">
     <g id="line2d_15">
      <path d="M 803.624378 521.153031 
L 803.624378 51.564121 
" clip-path="url(#p2956e46020)" style="fill: none; stroke: #ffffff; stroke-linecap: round"/>
     </g>
     <g id="line2d_16"/>
     <g id="text_8">
      <!-- $\mathdefault{1.75}$ -->
      <g style="fill: #262626" transform="translate(791.484843 537.838907) scale(0.14 -0.14)">
       <use xlink:href="#CMR17-31" transform="scale(0.996264)"/>
       <use xlink:href="#CMMI12-3a" transform="translate(45.690477 0) scale(0.996264)"/>
       <use xlink:href="#CMR17-37" transform="translate(72.787654 0) scale(0.996264)"/>
       <use xlink:href="#CMR17-35" transform="translate(118.478131 0) scale(0.996264)"/>
      </g>
     </g>
    </g>
    <g id="xtick_9">
     <g id="line2d_17">
      <path d="M 912.466349 521.153031 
L 912.466349 51.564121 
" clip-path="url(#p2956e46020)" style="fill: none; stroke: #ffffff; stroke-linecap: round"/>
     </g>
     <g id="line2d_18"/>
     <g id="text_9">
      <!-- $\mathdefault{2.00}$ -->
      <g style="fill: #262626" transform="translate(900.326814 537.838907) scale(0.14 -0.14)">
       <use xlink:href="#CMR17-32" transform="scale(0.996264)"/>
       <use xlink:href="#CMMI12-3a" transform="translate(45.690477 0) scale(0.996264)"/>
       <use xlink:href="#CMR17-30" transform="translate(72.787654 0) scale(0.996264)"/>
       <use xlink:href="#CMR17-30" transform="translate(118.478131 0) scale(0.996264)"/>
      </g>
     </g>
    </g>
    <g id="text_10">
     <!-- $x$ -->
     <g style="fill: #262626" transform="translate(494.432135 555.620524) scale(0.16 -0.16)">
      <defs>
       <path id="CMMI12-78" d="M 3034 2606 
C 2829 2567 2752 2414 2752 2293 
C 2752 2139 2874 2088 2963 2088 
C 3155 2088 3290 2254 3290 2427 
C 3290 2695 2982 2816 2714 2816 
C 2323 2816 2106 2433 2048 2312 
C 1901 2816 1504 2816 1389 2816 
C 736 2816 390 1980 390 1839 
C 390 1814 416 1782 461 1782 
C 512 1782 525 1820 538 1846 
C 755 2555 1184 2689 1370 2689 
C 1658 2689 1715 2420 1715 2267 
C 1715 2127 1677 1980 1600 1673 
L 1382 798 
C 1286 415 1101 64 762 64 
C 730 64 570 64 435 147 
C 666 192 717 383 717 460 
C 717 588 621 664 499 664 
C 346 664 179 530 179 326 
C 179 57 480 -64 755 -64 
C 1062 -64 1280 179 1414 441 
C 1517 64 1837 -64 2074 -64 
C 2726 -64 3072 773 3072 913 
C 3072 945 3046 971 3008 971 
C 2950 971 2944 939 2925 888 
C 2752 326 2381 64 2093 64 
C 1869 64 1747 230 1747 492 
C 1747 632 1773 734 1875 1156 
L 2099 2024 
C 2195 2408 2413 2689 2707 2689 
C 2720 2689 2899 2689 3034 2606 
z
" transform="scale(0.015625)"/>
      </defs>
      <use xlink:href="#CMMI12-78" transform="scale(0.996264)"/>
     </g>
    </g>
   </g>
   <g id="matplotlib.axis_2">
    <g id="ytick_1">
     <g id="line2d_19">
      <path d="M 41.730582 499.80808 
L 956.003138 499.80808 
" clip-path="url(#p2956e46020)" style="fill: none; stroke: #ffffff; stroke-linecap: round"/>
     </g>
     <g id="line2d_20"/>
     <g id="text_11">
      <!-- $\mathdefault{0.0}$ -->
      <g style="fill: #262626" transform="translate(17.28 504.651018) scale(0.14 -0.14)">
       <use xlink:href="#CMR17-30" transform="scale(0.996264)"/>
       <use xlink:href="#CMMI12-3a" transform="translate(45.690477 0) scale(0.996264)"/>
       <use xlink:href="#CMR17-30" transform="translate(72.787654 0) scale(0.996264)"/>
      </g>
     </g>
    </g>
    <g id="ytick_2">
     <g id="line2d_21">
      <path d="M 41.730582 418.161726 
L 956.003138 418.161726 
" clip-path="url(#p2956e46020)" style="fill: none; stroke: #ffffff; stroke-linecap: round"/>
     </g>
     <g id="line2d_22"/>
     <g id="text_12">
      <!-- $\mathdefault{0.2}$ -->
      <g style="fill: #262626" transform="translate(17.28 423.004664) scale(0.14 -0.14)">
       <use xlink:href="#CMR17-30" transform="scale(0.996264)"/>
       <use xlink:href="#CMMI12-3a" transform="translate(45.690477 0) scale(0.996264)"/>
       <use xlink:href="#CMR17-32" transform="translate(72.787654 0) scale(0.996264)"/>
      </g>
     </g>
    </g>
    <g id="ytick_3">
     <g id="line2d_23">
      <path d="M 41.730582 336.515372 
L 956.003138 336.515372 
" clip-path="url(#p2956e46020)" style="fill: none; stroke: #ffffff; stroke-linecap: round"/>
     </g>
     <g id="line2d_24"/>
     <g id="text_13">
      <!-- $\mathdefault{0.4}$ -->
      <g style="fill: #262626" transform="translate(17.28 341.358311) scale(0.14 -0.14)">
       <defs>
        <path id="CMR17-34" d="M 2150 4122 
C 2150 4256 2144 4256 2029 4256 
L 128 1254 
L 128 1088 
L 1779 1088 
L 1779 457 
C 1779 224 1766 160 1318 160 
L 1197 160 
L 1197 0 
C 1402 0 1747 0 1965 0 
C 2182 0 2528 0 2733 0 
L 2733 160 
L 2611 160 
C 2163 160 2150 224 2150 457 
L 2150 1088 
L 2803 1088 
L 2803 1254 
L 2150 1254 
L 2150 4122 
z
M 1798 3703 
L 1798 1254 
L 256 1254 
L 1798 3703 
z
" transform="scale(0.015625)"/>
       </defs>
       <use xlink:href="#CMR17-30" transform="scale(0.996264)"/>
       <use xlink:href="#CMMI12-3a" transform="translate(45.690477 0) scale(0.996264)"/>
       <use xlink:href="#CMR17-34" transform="translate(72.787654 0) scale(0.996264)"/>
      </g>
     </g>
    </g>
    <g id="ytick_4">
     <g id="line2d_25">
      <path d="M 41.730582 254.869018 
L 956.003138 254.869018 
" clip-path="url(#p2956e46020)" style="fill: none; stroke: #ffffff; stroke-linecap: round"/>
     </g>
     <g id="line2d_26"/>
     <g id="text_14">
      <!-- $\mathdefault{0.6}$ -->
      <g style="fill: #262626" transform="translate(17.28 259.711957) scale(0.14 -0.14)">
       <defs>
        <path id="CMR17-36" d="M 678 2176 
C 678 3690 1395 4032 1811 4032 
C 1946 4032 2272 4009 2400 3776 
C 2298 3776 2106 3776 2106 3553 
C 2106 3381 2246 3323 2336 3323 
C 2394 3323 2566 3348 2566 3560 
C 2566 3954 2246 4179 1805 4179 
C 1043 4179 243 3390 243 1984 
C 243 253 966 -128 1478 -128 
C 2099 -128 2688 427 2688 1283 
C 2688 2081 2170 2662 1517 2662 
C 1126 2662 838 2407 678 1960 
L 678 2176 
z
M 1478 25 
C 691 25 691 1200 691 1436 
C 691 1896 909 2560 1504 2560 
C 1613 2560 1926 2560 2138 2120 
C 2253 1870 2253 1609 2253 1289 
C 2253 944 2253 690 2118 434 
C 1978 171 1773 25 1478 25 
z
" transform="scale(0.015625)"/>
       </defs>
       <use xlink:href="#CMR17-30" transform="scale(0.996264)"/>
       <use xlink:href="#CMMI12-3a" transform="translate(45.690477 0) scale(0.996264)"/>
       <use xlink:href="#CMR17-36" transform="translate(72.787654 0) scale(0.996264)"/>
      </g>
     </g>
    </g>
    <g id="ytick_5">
     <g id="line2d_27">
      <path d="M 41.730582 173.222664 
L 956.003138 173.222664 
" clip-path="url(#p2956e46020)" style="fill: none; stroke: #ffffff; stroke-linecap: round"/>
     </g>
     <g id="line2d_28"/>
     <g id="text_15">
      <!-- $\mathdefault{0.8}$ -->
      <g style="fill: #262626" transform="translate(17.28 178.065603) scale(0.14 -0.14)">
       <defs>
        <path id="CMR17-38" d="M 1741 2264 
C 2144 2467 2554 2773 2554 3263 
C 2554 3841 1990 4179 1472 4179 
C 890 4179 378 3759 378 3180 
C 378 3021 416 2747 666 2505 
C 730 2442 998 2251 1171 2130 
C 883 1983 211 1634 211 934 
C 211 279 838 -128 1459 -128 
C 2144 -128 2720 362 2720 1010 
C 2720 1590 2330 1857 2074 2029 
L 1741 2264 
z
M 902 2822 
C 851 2854 595 3051 595 3351 
C 595 3739 998 4032 1459 4032 
C 1965 4032 2336 3676 2336 3262 
C 2336 2669 1670 2331 1638 2331 
C 1632 2331 1626 2331 1574 2370 
L 902 2822 
z
M 2080 1519 
C 2176 1449 2483 1240 2483 851 
C 2483 381 2010 25 1472 25 
C 890 25 448 438 448 940 
C 448 1443 838 1862 1280 2060 
L 2080 1519 
z
" transform="scale(0.015625)"/>
       </defs>
       <use xlink:href="#CMR17-30" transform="scale(0.996264)"/>
       <use xlink:href="#CMMI12-3a" transform="translate(45.690477 0) scale(0.996264)"/>
       <use xlink:href="#CMR17-38" transform="translate(72.787654 0) scale(0.996264)"/>
      </g>
     </g>
    </g>
    <g id="ytick_6">
     <g id="line2d_29">
      <path d="M 41.730582 91.57631 
L 956.003138 91.57631 
" clip-path="url(#p2956e46020)" style="fill: none; stroke: #ffffff; stroke-linecap: round"/>
     </g>
     <g id="line2d_30"/>
     <g id="text_16">
      <!-- $\mathdefault{1.0}$ -->
      <g style="fill: #262626" transform="translate(17.28 96.419249) scale(0.14 -0.14)">
       <use xlink:href="#CMR17-31" transform="scale(0.996264)"/>
       <use xlink:href="#CMMI12-3a" transform="translate(45.690477 0) scale(0.996264)"/>
       <use xlink:href="#CMR17-30" transform="translate(72.787654 0) scale(0.996264)"/>
      </g>
     </g>
    </g>
   </g>
   <g id="line2d_31">
    <path d="M 41.730582 499.80808 
L 50.43794 499.80808 
L 59.145297 499.80808 
L 67.852655 499.80808 
L 76.560013 499.80808 
L 85.26737 499.80808 
L 93.974728 499.80808 
L 102.682086 499.80808 
L 111.389443 499.80808 
L 120.096801 499.80808 
L 128.804159 499.80808 
L 137.511516 499.80808 
L 146.218874 499.80808 
L 154.926232 499.80808 
L 163.633589 499.80808 
L 172.340947 499.80808 
L 181.048305 499.80808 
L 189.755662 499.80808 
L 198.46302 499.80808 
L 207.170378 499.80808 
L 215.877736 499.80808 
L 224.585093 499.80808 
L 233.292451 499.80808 
L 241.999809 499.80808 
L 250.707166 499.80808 
L 259.414524 499.80808 
L 268.121882 499.80808 
L 276.829239 499.80808 
L 285.536597 499.80808 
L 294.243955 499.80808 
L 302.951312 499.80808 
L 311.65867 499.80808 
L 320.366028 499.80808 
L 329.073385 499.80808 
L 337.780743 499.80808 
L 346.488101 499.80808 
L 355.195458 499.80808 
L 363.902816 499.80808 
L 372.610174 499.80808 
L 381.317531 499.80808 
L 390.024889 499.80808 
L 398.732247 499.80808 
L 407.439604 499.80808 
L 416.146962 499.80808 
L 424.85432 499.80808 
L 433.561677 499.80808 
L 442.269035 499.80808 
L 450.976393 499.80808 
L 459.68375 499.80808 
L 468.391108 499.80808 
L 477.098466 499.80808 
L 485.805823 499.80808 
L 494.513181 499.80808 
L 503.220539 499.80808 
L 511.927896 499.80808 
L 520.635254 499.80808 
L 529.342612 499.80808 
L 538.049969 499.80808 
L 546.757327 499.80808 
L 555.464685 499.80808 
L 564.172042 499.80808 
L 572.8794 499.80808 
L 581.586758 499.80808 
L 590.294115 499.80808 
L 599.001473 499.80808 
L 607.708831 499.80808 
L 616.416188 499.80808 
L 625.123546 499.80808 
L 633.830904 499.80808 
L 642.538261 499.80808 
L 651.245619 499.80808 
L 659.952977 499.80808 
L 668.660334 499.80808 
L 677.367692 499.80808 
L 686.07505 499.80808 
L 694.782408 499.80808 
L 703.489765 499.80808 
L 712.197123 499.80808 
L 720.904481 499.80808 
L 729.611838 499.80808 
L 738.319196 499.80808 
L 747.026554 499.80808 
L 755.733911 499.80808 
L 764.441269 499.80808 
L 773.148627 499.80808 
L 781.855984 499.80808 
L 790.563342 499.80808 
L 799.2707 499.80808 
L 807.978057 499.80808 
L 816.685415 499.80808 
L 825.392773 499.80808 
L 834.10013 499.80808 
L 842.807488 499.80808 
L 851.514846 499.80808 
L 860.222203 499.80808 
L 868.929561 499.80808 
L 877.636919 499.80808 
L 886.344276 499.80808 
L 895.051634 499.80808 
L 903.758992 499.80808 
L 912.466349 499.80808 
" clip-path="url(#p2956e46020)" style="fill: none; stroke: #393b79; stroke-width: 2; stroke-linecap: round"/>
   </g>
   <g id="line2d_32">
    <path d="M 41.730582 335.422998 
L 50.43794 342.360056 
L 59.145297 349.271974 
L 67.852655 356.158764 
L 76.560013 363.020442 
L 85.26737 369.857014 
L 93.974728 376.668477 
L 102.682086 383.454731 
L 111.389443 390.215675 
L 120.096801 396.951064 
L 128.804159 403.660257 
L 137.511516 410.341768 
L 146.218874 416.992416 
L 154.926232 423.606057 
L 163.633589 430.171983 
L 172.340947 436.672745 
L 181.048305 443.082001 
L 189.755662 449.362786 
L 198.46302 455.466876 
L 207.170378 461.336171 
L 215.877736 466.905699 
L 224.585093 472.108324 
L 233.292451 476.881388 
L 241.999809 481.173473 
L 250.707166 484.949434 
L 259.414524 488.19523 
L 268.121882 490.918114 
L 276.829239 493.145685 
L 285.536597 494.922163 
L 294.243955 496.30274 
L 302.951312 497.348206 
L 311.65867 498.119729 
L 320.366028 498.674688 
L 329.073385 499.063879 
L 337.780743 499.330067 
L 346.488101 499.507686 
L 355.195458 499.623357 
L 363.902816 499.696904 
L 372.610174 499.742577 
L 381.317531 499.770291 
L 390.024889 499.786728 
L 398.732247 499.796261 
L 407.439604 499.801669 
L 416.146962 499.804671 
L 424.85432 499.806303 
L 433.561677 499.807172 
L 442.269035 499.807625 
L 450.976393 499.807856 
L 459.68375 499.807972 
L 468.391108 499.808029 
L 477.098466 499.808056 
L 485.805823 499.808069 
L 494.513181 499.808075 
L 503.220539 499.808078 
L 511.927896 499.808079 
L 520.635254 499.80808 
L 529.342612 499.80808 
L 538.049969 499.80808 
L 546.757327 499.80808 
L 555.464685 499.80808 
L 564.172042 499.80808 
L 572.8794 499.80808 
L 581.586758 499.80808 
L 590.294115 499.80808 
L 599.001473 499.80808 
L 607.708831 499.80808 
L 616.416188 499.80808 
L 625.123546 499.80808 
L 633.830904 499.80808 
L 642.538261 499.80808 
L 651.245619 499.80808 
L 659.952977 499.80808 
L 668.660334 499.80808 
L 677.367692 499.80808 
L 686.07505 499.80808 
L 694.782408 499.80808 
L 703.489765 499.80808 
L 712.197123 499.80808 
L 720.904481 499.80808 
L 729.611838 499.80808 
L 738.319196 499.80808 
L 747.026554 499.80808 
L 755.733911 499.80808 
L 764.441269 499.80808 
L 773.148627 499.80808 
L 781.855984 499.80808 
L 790.563342 499.80808 
L 799.2707 499.80808 
L 807.978057 499.80808 
L 816.685415 499.80808 
L 825.392773 499.80808 
L 834.10013 499.80808 
L 842.807488 499.80808 
L 851.514846 499.80808 
L 860.222203 499.80808 
L 868.929561 499.80808 
L 877.636919 499.80808 
L 886.344276 499.80808 
L 895.051634 499.80808 
L 903.758992 499.80808 
L 912.466349 499.80808 
" clip-path="url(#p2956e46020)" style="fill: none; stroke: #8ca252; stroke-width: 2; stroke-linecap: round"/>
   </g>
   <g id="line2d_33">
    <path d="M 41.730582 222.407354 
L 50.43794 228.980445 
L 59.145297 235.523384 
L 67.852655 242.036145 
L 76.560013 248.518704 
L 85.26737 254.971037 
L 93.974728 261.393065 
L 102.682086 267.784681 
L 111.389443 274.145851 
L 120.096801 280.476544 
L 128.804159 286.776715 
L 137.511516 293.046211 
L 146.218874 299.284954 
L 154.926232 305.492908 
L 163.633589 311.670033 
L 172.340947 317.816156 
L 181.048305 323.931166 
L 189.755662 330.015014 
L 198.46302 336.067648 
L 207.170378 342.088865 
L 215.877736 348.078535 
L 224.585093 354.036592 
L 233.292451 359.962941 
L 241.999809 365.857283 
L 250.707166 371.719434 
L 259.414524 377.549184 
L 268.121882 383.346066 
L 276.829239 389.109334 
L 285.536597 394.838082 
L 294.243955 400.530844 
L 302.951312 406.185162 
L 311.65867 411.797733 
L 320.366028 417.363848 
L 329.073385 422.876667 
L 337.780743 428.327259 
L 346.488101 433.704117 
L 355.195458 438.992422 
L 363.902816 444.174437 
L 372.610174 449.229442 
L 381.317531 454.133596 
L 390.024889 458.861385 
L 398.732247 463.385839 
L 407.439604 467.680089 
L 416.146962 471.718761 
L 424.85432 475.479095 
L 433.561677 478.942695 
L 442.269035 482.096474 
L 450.976393 484.933311 
L 459.68375 487.4531 
L 468.391108 489.661983 
L 477.098466 491.572269 
L 485.805823 493.201739 
L 494.513181 494.572393 
L 503.220539 495.709096 
L 511.927896 496.638413 
L 520.635254 497.387368 
L 529.342612 497.982369 
L 538.049969 498.448336 
L 546.757327 498.808072 
L 555.464685 499.081868 
L 564.172042 499.287324 
L 572.8794 499.439339 
L 581.586758 499.550251 
L 590.294115 499.630056 
L 599.001473 499.686692 
L 607.708831 499.726337 
L 616.416188 499.753715 
L 625.123546 499.772368 
L 633.830904 499.784909 
L 642.538261 499.793229 
L 651.245619 499.798676 
L 659.952977 499.802197 
L 668.660334 499.804444 
L 677.367692 499.805859 
L 686.07505 499.80674 
L 694.782408 499.807281 
L 703.489765 499.807609 
L 712.197123 499.807805 
L 720.904481 499.807922 
L 729.611838 499.80799 
L 738.319196 499.808029 
L 747.026554 499.808052 
L 755.733911 499.808065 
L 764.441269 499.808072 
L 773.148627 499.808076 
L 781.855984 499.808078 
L 790.563342 499.808079 
L 799.2707 499.80808 
L 807.978057 499.80808 
L 816.685415 499.80808 
L 825.392773 499.80808 
L 834.10013 499.80808 
L 842.807488 499.80808 
L 851.514846 499.80808 
L 860.222203 499.80808 
L 868.929561 499.80808 
L 877.636919 499.80808 
L 886.344276 499.80808 
L 895.051634 499.80808 
L 903.758992 499.80808 
L 912.466349 499.80808 
" clip-path="url(#p2956e46020)" style="fill: none; stroke: #e7ba52; stroke-width: 2; stroke-linecap: round"/>
   </g>
   <g id="line2d_34">
    <path d="M 41.730582 138.577294 
L 50.43794 145.014842 
L 59.145297 151.420973 
L 67.852655 157.795683 
L 76.560013 164.138954 
L 85.26737 170.450683 
L 93.974728 176.73085 
L 102.682086 182.979445 
L 111.389443 189.196456 
L 120.096801 195.381784 
L 128.804159 201.535361 
L 137.511516 207.65718 
L 146.218874 213.747226 
L 154.926232 219.805383 
L 163.633589 225.83157 
L 172.340947 231.825773 
L 181.048305 237.787975 
L 189.755662 243.718015 
L 198.46302 249.615829 
L 207.170378 255.48141 
L 215.877736 261.314686 
L 224.585093 267.115476 
L 233.292451 272.883763 
L 241.999809 278.619525 
L 250.707166 284.322565 
L 259.414524 289.992803 
L 268.121882 295.630237 
L 276.829239 301.234704 
L 285.536597 306.806051 
L 294.243955 312.344274 
L 302.951312 317.84925 
L 311.65867 323.320766 
L 320.366028 328.758823 
L 329.073385 334.163294 
L 337.780743 339.533942 
L 346.488101 344.870774 
L 355.195458 350.173616 
L 363.902816 355.442229 
L 372.610174 360.676606 
L 381.317531 365.876451 
L 390.024889 371.041525 
L 398.732247 376.171699 
L 407.439604 381.266421 
L 416.146962 386.325309 
L 424.85432 391.347766 
L 433.561677 396.332713 
L 442.269035 401.279115 
L 450.976393 406.185145 
L 459.68375 411.048584 
L 468.391108 415.866577 
L 477.098466 420.635061 
L 485.805823 425.349378 
L 494.513181 430.003225 
L 503.220539 434.589313 
L 511.927896 439.098768 
L 520.635254 443.521221 
L 529.342612 447.845103 
L 538.049969 452.057217 
L 546.757327 456.143736 
L 555.464685 460.089647 
L 564.172042 463.880098 
L 572.8794 467.500011 
L 581.586758 470.935374 
L 590.294115 474.173358 
L 599.001473 477.20287 
L 607.708831 480.01557 
L 616.416188 482.605495 
L 625.123546 484.969861 
L 633.830904 487.109314 
L 642.538261 489.027436 
L 651.245619 490.730872 
L 659.952977 492.229057 
L 668.660334 493.533878 
L 677.367692 494.658984 
L 686.07505 495.61935 
L 694.782408 496.43077 
L 703.489765 497.109342 
L 712.197123 497.670994 
L 720.904481 498.131093 
L 729.611838 498.504123 
L 738.319196 498.803449 
L 747.026554 499.041166 
L 755.733911 499.228017 
L 764.441269 499.373385 
L 773.148627 499.485324 
L 781.855984 499.570648 
L 790.563342 499.635024 
L 799.2707 499.683107 
L 807.978057 499.71866 
L 816.685415 499.744686 
L 825.392773 499.763549 
L 834.10013 499.777084 
L 842.807488 499.786702 
L 851.514846 499.793469 
L 860.222203 499.798185 
L 868.929561 499.801439 
L 877.636919 499.803663 
L 886.344276 499.805168 
L 895.051634 499.806177 
L 903.758992 499.806848 
L 912.466349 499.807289 
" clip-path="url(#p2956e46020)" style="fill: none; stroke: #e7969c; stroke-width: 2; stroke-linecap: round"/>
   </g>
   <g id="line2d_35">
    <path d="M 41.730582 72.909071 
L 50.43794 79.29823 
L 59.145297 85.65562 
L 67.852655 91.98125 
L 76.560013 98.275102 
L 85.26737 104.537104 
L 93.974728 110.767265 
L 102.682086 116.965596 
L 111.389443 123.132086 
L 120.096801 129.266644 
L 128.804159 135.369262 
L 137.511516 141.439953 
L 146.218874 147.478699 
L 154.926232 153.48539 
L 163.633589 159.460023 
L 172.340947 165.402607 
L 181.048305 171.313092 
L 189.755662 177.19137 
L 198.46302 183.037449 
L 207.170378 188.851336 
L 215.877736 194.632896 
L 224.585093 200.382088 
L 233.292451 206.098931 
L 241.999809 211.783343 
L 250.707166 217.435202 
L 259.414524 223.054528 
L 268.121882 228.641286 
L 276.829239 234.195302 
L 285.536597 239.71659 
L 294.243955 245.205131 
L 302.951312 250.660731 
L 311.65867 256.083394 
L 320.366028 261.473107 
L 329.073385 266.829657 
L 337.780743 272.153056 
L 346.488101 277.443271 
L 355.195458 282.700081 
L 363.902816 287.923523 
L 372.610174 293.113504 
L 381.317531 298.269835 
L 390.024889 303.392576 
L 398.732247 308.481523 
L 407.439604 313.536589 
L 416.146962 318.557802 
L 424.85432 323.544882 
L 433.561677 328.497869 
L 442.269035 333.41663 
L 450.976393 338.300982 
L 459.68375 343.150986 
L 468.391108 347.966333 
L 477.098466 352.747064 
L 485.805823 357.49299 
L 494.513181 362.203943 
L 503.220539 366.879916 
L 511.927896 371.520541 
L 520.635254 376.125842 
L 529.342612 380.695371 
L 538.049969 385.228994 
L 546.757327 389.726232 
L 555.464685 394.186609 
L 564.172042 398.609542 
L 572.8794 402.994057 
L 581.586758 407.339233 
L 590.294115 411.643444 
L 599.001473 415.905115 
L 607.708831 420.121722 
L 616.416188 424.290693 
L 625.123546 428.408306 
L 633.830904 432.470653 
L 642.538261 436.472532 
L 651.245619 440.408456 
L 659.952977 444.271581 
L 668.660334 448.054779 
L 677.367692 451.749664 
L 686.07505 455.347656 
L 694.782408 458.839322 
L 703.489765 462.215079 
L 712.197123 465.465339 
L 720.904481 468.580393 
L 729.611838 471.551456 
L 738.319196 474.370123 
L 747.026554 477.029113 
L 755.733911 479.522741 
L 764.441269 481.84655 
L 773.148627 483.997843 
L 781.855984 485.975997 
L 790.563342 487.782142 
L 799.2707 489.419219 
L 807.978057 490.891976 
L 816.685415 492.206817 
L 825.392773 493.371643 
L 834.10013 494.395449 
L 842.807488 495.288127 
L 851.514846 496.060198 
L 860.222203 496.722531 
L 868.929561 497.286081 
L 877.636919 497.761641 
L 886.344276 498.159644 
L 895.051634 498.489986 
L 903.758992 498.761902 
L 912.466349 498.983873 
" clip-path="url(#p2956e46020)" style="fill: none; stroke: #de9ed6; stroke-width: 2; stroke-linecap: round"/>
   </g>
   <g id="patch_3">
    <path d="M 41.730582 521.153031 
L 41.730582 51.564121 
" style="fill: none"/>
   </g>
   <g id="patch_4">
    <path d="M 956.003138 521.153031 
L 956.003138 51.564121 
" style="fill: none"/>
   </g>
   <g id="patch_5">
    <path d="M 41.730582 521.153031 
L 956.003138 521.153031 
" style="fill: none"/>
   </g>
   <g id="patch_6">
    <path d="M 41.730582 51.564121 
L 956.003138 51.564121 
" style="fill: none"/>
   </g>
   <g id="patch_7">
    <path d="M 65.390258 478.737886 
Q 274.653427 405.865626 482.332827 333.544886 
" style="fill: none; stroke: #000000; stroke-width: 1.5; stroke-linecap: round"/>
    <path d="M 475.236448 332.627601 
L 482.332827 333.544886 
L 477.341172 338.671618 
" style="fill: none; stroke: #000000; stroke-width: 1.5; stroke-linecap: round"/>
   </g>
   <g id="text_17">
    <!-- Time -->
    <g style="fill: #262626" transform="translate(477.098466 324.765094) scale(0.18 -0.18)">
     <defs>
      <path id="CMR17-54" d="M 3981 4326 
L 288 4326 
L 179 2918 
L 294 2918 
C 378 3976 467 4160 1453 4160 
C 1568 4160 1754 4160 1805 4154 
C 1926 4135 1926 4058 1926 3912 
L 1926 459 
C 1926 230 1907 160 1376 160 
L 1197 160 
L 1197 0 
C 1504 0 1824 0 2138 0 
C 2451 0 2771 0 3078 0 
L 3078 160 
L 2899 160 
C 2368 160 2349 230 2349 459 
L 2349 3912 
C 2349 4052 2349 4129 2464 4154 
C 2515 4160 2701 4160 2816 4160 
C 3795 4160 3891 3976 3974 2918 
L 4090 2918 
L 3981 4326 
z
" transform="scale(0.015625)"/>
      <path id="CMR17-69" d="M 992 3909 
C 992 4049 877 4170 730 4170 
C 589 4170 467 4056 467 3909 
C 467 3769 582 3648 730 3648 
C 870 3648 992 3763 992 3909 
z
M 243 2706 
L 243 2541 
C 602 2541 653 2502 653 2197 
L 653 427 
C 653 184 627 153 218 153 
L 218 -13 
C 371 0 646 0 806 0 
C 960 0 1222 0 1370 -13 
L 1370 153 
C 992 153 979 191 979 420 
L 979 2776 
L 243 2706 
z
" transform="scale(0.015625)"/>
      <path id="CMR17-6d" d="M 4326 1933 
C 4326 2252 4269 2790 3507 2790 
C 3072 2790 2771 2496 2656 2151 
L 2650 2151 
C 2573 2676 2195 2790 1837 2790 
C 1331 2790 1069 2400 973 2144 
L 966 2144 
L 966 2790 
L 211 2720 
L 211 2554 
C 589 2554 646 2515 646 2208 
L 646 428 
C 646 184 621 153 211 153 
L 211 -13 
C 365 0 646 0 813 0 
C 979 0 1267 0 1421 -13 
L 1421 153 
C 1011 153 986 178 986 428 
L 986 1658 
C 986 2247 1344 2688 1792 2688 
C 2266 2688 2317 2266 2317 1958 
L 2317 428 
C 2317 184 2291 153 1882 153 
L 1882 -13 
C 2035 0 2317 0 2483 0 
C 2650 0 2938 0 3091 -13 
L 3091 153 
C 2682 153 2656 178 2656 428 
L 2656 1658 
C 2656 2247 3014 2688 3462 2688 
C 3936 2688 3987 2266 3987 1958 
L 3987 428 
C 3987 184 3962 153 3552 153 
L 3552 -13 
C 3706 0 3987 0 4154 0 
C 4320 0 4608 0 4762 -13 
L 4762 153 
C 4352 153 4326 178 4326 428 
L 4326 1933 
z
" transform="scale(0.015625)"/>
      <path id="CMR17-65" d="M 2438 1472 
C 2464 1498 2464 1511 2464 1576 
C 2464 2238 2118 2816 1389 2816 
C 710 2816 173 2169 173 1383 
C 173 551 781 -64 1459 -64 
C 2176 -64 2458 607 2458 740 
C 2458 784 2419 784 2406 784 
C 2362 784 2355 771 2330 696 
C 2189 265 1837 51 1504 51 
C 1229 51 954 203 781 480 
C 582 803 582 1176 582 1472 
L 2438 1472 
z
M 589 1568 
C 634 2505 1126 2714 1382 2714 
C 1818 2714 2112 2297 2118 1568 
L 589 1568 
z
" transform="scale(0.015625)"/>
     </defs>
     <use xlink:href="#CMR17-54" transform="scale(0.996264)"/>
     <use xlink:href="#CMR17-69" transform="translate(66.509881 0) scale(0.996264)"/>
     <use xlink:href="#CMR17-6d" transform="translate(91.380939 0) scale(0.996264)"/>
     <use xlink:href="#CMR17-65" transform="translate(168.300529 0) scale(0.996264)"/>
    </g>
   </g>
   <g id="legend_1">
    <g id="line2d_36">
     <path d="M 968.603138 245.978505 
L 982.603138 245.978505 
L 996.603138 245.978505 
" style="fill: none; stroke: #393b79; stroke-width: 2; stroke-linecap: round"/>
    </g>
    <g id="text_18">
     <!-- t = 0.00 -->
     <g style="fill: #262626" transform="translate(1007.803138 250.878505) scale(0.14 -0.14)">
      <defs>
       <path id="CMR17-74" d="M 966 2560 
L 1862 2560 
L 1862 2725 
L 966 2725 
L 966 3904 
L 851 3904 
C 838 3245 614 2668 70 2668 
L 70 2560 
L 627 2560 
L 627 771 
C 627 650 627 -64 1370 -64 
C 1747 -64 1965 306 1965 777 
L 1965 1140 
L 1850 1140 
L 1850 783 
C 1850 344 1677 51 1408 51 
C 1222 51 966 178 966 758 
L 966 2560 
z
" transform="scale(0.015625)"/>
       <path id="CMR17-3d" d="M 4115 2017 
C 4211 2017 4307 2017 4307 2125 
C 4307 2240 4198 2240 4090 2240 
L 512 2240 
C 403 2240 294 2240 294 2125 
C 294 2017 390 2017 486 2017 
L 4115 2017 
z
M 4090 896 
C 4198 896 4307 896 4307 1011 
C 4307 1119 4211 1119 4115 1119 
L 486 1119 
C 390 1119 294 1119 294 1011 
C 294 896 403 896 512 896 
L 4090 896 
z
" transform="scale(0.015625)"/>
       <path id="CMR17-2e" d="M 1062 261 
C 1062 420 934 522 800 522 
C 672 522 538 420 538 261 
C 538 102 666 0 800 0 
C 928 0 1062 102 1062 261 
z
" transform="scale(0.015625)"/>
      </defs>
      <use xlink:href="#CMR17-74" transform="scale(0.996264)"/>
      <use xlink:href="#CMR17-3d" transform="translate(65.356734 0) scale(0.996264)"/>
      <use xlink:href="#CMR17-30" transform="translate(167.147489 0) scale(0.996264)"/>
      <use xlink:href="#CMR17-2e" transform="translate(212.837966 0) scale(0.996264)"/>
      <use xlink:href="#CMR17-30" transform="translate(237.709025 0) scale(0.996264)"/>
      <use xlink:href="#CMR17-30" transform="translate(283.399502 0) scale(0.996264)"/>
     </g>
    </g>
    <g id="line2d_37">
     <path d="M 968.603138 265.490533 
L 982.603138 265.490533 
L 996.603138 265.490533 
" style="fill: none; stroke: #8ca252; stroke-width: 2; stroke-linecap: round"/>
    </g>
    <g id="text_19">
     <!-- t = 0.25 -->
     <g style="fill: #262626" transform="translate(1007.803138 270.390533) scale(0.14 -0.14)">
      <use xlink:href="#CMR17-74" transform="scale(0.996264)"/>
      <use xlink:href="#CMR17-3d" transform="translate(65.356734 0) scale(0.996264)"/>
      <use xlink:href="#CMR17-30" transform="translate(167.147489 0) scale(0.996264)"/>
      <use xlink:href="#CMR17-2e" transform="translate(212.837966 0) scale(0.996264)"/>
      <use xlink:href="#CMR17-32" transform="translate(237.709025 0) scale(0.996264)"/>
      <use xlink:href="#CMR17-35" transform="translate(283.399502 0) scale(0.996264)"/>
     </g>
    </g>
    <g id="line2d_38">
     <path d="M 968.603138 285.002562 
L 982.603138 285.002562 
L 996.603138 285.002562 
" style="fill: none; stroke: #e7ba52; stroke-width: 2; stroke-linecap: round"/>
    </g>
    <g id="text_20">
     <!-- t = 0.50 -->
     <g style="fill: #262626" transform="translate(1007.803138 289.902562) scale(0.14 -0.14)">
      <use xlink:href="#CMR17-74" transform="scale(0.996264)"/>
      <use xlink:href="#CMR17-3d" transform="translate(65.356734 0) scale(0.996264)"/>
      <use xlink:href="#CMR17-30" transform="translate(167.147489 0) scale(0.996264)"/>
      <use xlink:href="#CMR17-2e" transform="translate(212.837966 0) scale(0.996264)"/>
      <use xlink:href="#CMR17-35" transform="translate(237.709025 0) scale(0.996264)"/>
      <use xlink:href="#CMR17-30" transform="translate(283.399502 0) scale(0.996264)"/>
     </g>
    </g>
    <g id="line2d_39">
     <path d="M 968.603138 304.51459 
L 982.603138 304.51459 
L 996.603138 304.51459 
" style="fill: none; stroke: #e7969c; stroke-width: 2; stroke-linecap: round"/>
    </g>
    <g id="text_21">
     <!-- t = 0.75 -->
     <g style="fill: #262626" transform="translate(1007.803138 309.41459) scale(0.14 -0.14)">
      <use xlink:href="#CMR17-74" transform="scale(0.996264)"/>
      <use xlink:href="#CMR17-3d" transform="translate(65.356734 0) scale(0.996264)"/>
      <use xlink:href="#CMR17-30" transform="translate(167.147489 0) scale(0.996264)"/>
      <use xlink:href="#CMR17-2e" transform="translate(212.837966 0) scale(0.996264)"/>
      <use xlink:href="#CMR17-37" transform="translate(237.709025 0) scale(0.996264)"/>
      <use xlink:href="#CMR17-35" transform="translate(283.399502 0) scale(0.996264)"/>
     </g>
    </g>
    <g id="line2d_40">
     <path d="M 968.603138 324.026618 
L 982.603138 324.026618 
L 996.603138 324.026618 
" style="fill: none; stroke: #de9ed6; stroke-width: 2; stroke-linecap: round"/>
    </g>
    <g id="text_22">
     <!-- t = 1.00 -->
     <g style="fill: #262626" transform="translate(1007.803138 328.926618) scale(0.14 -0.14)">
      <use xlink:href="#CMR17-74" transform="scale(0.996264)"/>
      <use xlink:href="#CMR17-3d" transform="translate(65.356734 0) scale(0.996264)"/>
      <use xlink:href="#CMR17-31" transform="translate(167.147489 0) scale(0.996264)"/>
      <use xlink:href="#CMR17-2e" transform="translate(212.837966 0) scale(0.996264)"/>
      <use xlink:href="#CMR17-30" transform="translate(237.709025 0) scale(0.996264)"/>
      <use xlink:href="#CMR17-30" transform="translate(283.399502 0) scale(0.996264)"/>
     </g>
    </g>
   </g>
  </g>
  <g id="text_23">
   <!-- Auxiliar variable -->
   <g style="fill: #262626" transform="translate(476.179847 24.803515) scale(0.192 -0.192)">
    <defs>
     <path id="CMR17-41" d="M 2323 4378 
C 2291 4461 2278 4480 2214 4480 
C 2150 4480 2138 4461 2106 4378 
L 749 566 
C 627 223 371 153 147 153 
L 147 -13 
C 262 0 518 0 640 0 
C 800 0 1056 0 1210 -13 
L 1210 153 
C 909 153 864 361 864 439 
C 864 497 877 530 890 569 
L 1229 1536 
L 2906 1536 
L 3290 442 
C 3322 365 3322 352 3322 327 
C 3322 153 3046 153 2925 153 
L 2925 0 
C 3110 0 3443 0 3642 0 
C 3808 0 4128 0 4282 -13 
L 4282 153 
C 3942 153 3827 153 3744 387 
L 2323 4378 
z
M 2067 3893 
L 2848 1702 
L 1286 1702 
L 2067 3893 
z
" transform="scale(0.015625)"/>
     <path id="CMR17-75" d="M 1882 2693 
L 1882 2528 
C 2259 2528 2317 2489 2317 2186 
L 2317 1032 
C 2317 500 2029 38 1555 38 
C 1030 38 986 348 986 678 
L 986 2763 
L 211 2693 
L 211 2528 
C 467 2528 640 2528 646 2274 
L 646 1058 
C 646 633 646 361 813 183 
C 896 101 1056 -64 1517 -64 
C 2061 -64 2272 377 2323 506 
L 2330 506 
L 2330 -63 
L 3091 -63 
L 3091 128 
C 2714 128 2656 166 2656 473 
L 2656 2763 
L 1882 2693 
z
" transform="scale(0.015625)"/>
     <path id="CMR17-78" d="M 1664 1477 
C 1856 1726 2074 2006 2253 2216 
C 2464 2458 2707 2560 2989 2560 
L 2989 2726 
C 2880 2726 2656 2726 2541 2726 
C 2368 2726 2170 2726 2022 2732 
L 2022 2566 
C 2112 2553 2163 2489 2163 2400 
C 2163 2285 2099 2215 2067 2171 
L 1594 1573 
L 1030 2306 
C 973 2376 973 2388 973 2420 
C 973 2497 1037 2560 1146 2560 
L 1146 2732 
C 992 2726 717 2726 557 2726 
C 384 2726 179 2726 38 2732 
L 38 2560 
C 384 2560 461 2534 614 2343 
L 1350 1395 
C 1363 1382 1395 1344 1395 1325 
C 1395 1299 838 619 768 530 
C 480 185 179 160 6 160 
L 6 0 
C 115 0 339 0 454 0 
C 582 0 864 0 979 -6 
L 979 160 
C 941 166 838 179 838 325 
C 838 440 890 510 947 586 
L 1478 1236 
L 2035 512 
C 2086 442 2163 346 2163 301 
C 2163 211 2086 160 1984 160 
L 1984 -6 
C 2138 0 2413 0 2573 0 
C 2746 0 2950 0 3091 -6 
L 3091 160 
C 2771 160 2675 172 2522 370 
L 1664 1477 
z
" transform="scale(0.015625)"/>
     <path id="CMR17-6c" d="M 979 4396 
L 218 4326 
L 218 4160 
C 595 4160 653 4122 653 3817 
L 653 426 
C 653 184 627 153 218 153 
L 218 -13 
C 371 0 653 0 813 0 
C 979 0 1261 0 1414 -13 
L 1414 153 
C 1005 153 979 178 979 426 
L 979 4396 
z
" transform="scale(0.015625)"/>
     <path id="CMR17-61" d="M 2304 1653 
C 2304 2072 2304 2294 2035 2543 
C 1798 2752 1523 2816 1306 2816 
C 800 2816 435 2407 435 1971 
C 435 1728 627 1728 666 1728 
C 749 1728 896 1778 896 1954 
C 896 2112 774 2181 666 2181 
C 640 2181 608 2174 589 2168 
C 723 2592 1069 2714 1293 2714 
C 1613 2714 1965 2429 1965 1885 
L 1965 1600 
C 1587 1600 1133 1549 774 1357 
C 371 1133 256 813 256 570 
C 256 77 832 -64 1171 -64 
C 1523 -64 1850 139 1990 511 
C 2003 233 2182 -18 2464 -18 
C 2598 -18 2938 70 2938 567 
L 2938 920 
L 2822 920 
L 2822 562 
C 2822 178 2650 128 2566 128 
C 2304 128 2304 458 2304 738 
L 2304 1653 
z
M 1965 870 
C 1965 317 1568 38 1216 38 
C 896 38 646 275 646 570 
C 646 761 730 1100 1101 1305 
C 1408 1478 1760 1504 1965 1504 
L 1965 870 
z
" transform="scale(0.015625)"/>
     <path id="CMR17-72" d="M 960 1497 
C 960 2112 1222 2688 1702 2688 
C 1747 2688 1792 2682 1837 2662 
C 1837 2662 1696 2617 1696 2452 
C 1696 2298 1818 2234 1914 2234 
C 1990 2234 2131 2279 2131 2458 
C 2131 2663 1926 2790 1709 2790 
C 1222 2790 1011 2317 947 2093 
L 941 2093 
L 941 2790 
L 198 2720 
L 198 2554 
C 576 2554 634 2515 634 2208 
L 634 428 
C 634 184 608 153 198 153 
L 198 -13 
C 352 0 646 0 813 0 
C 998 0 1325 0 1498 -13 
L 1498 153 
C 1037 153 960 153 960 440 
L 960 1497 
z
" transform="scale(0.015625)"/>
     <path id="CMR17-76" d="M 2502 2163 
C 2560 2304 2662 2560 3034 2560 
L 3034 2726 
C 2912 2726 2752 2726 2630 2726 
C 2496 2726 2285 2726 2157 2732 
L 2157 2566 
C 2317 2553 2406 2477 2406 2311 
C 2406 2253 2406 2240 2368 2151 
L 1664 377 
L 902 2286 
C 864 2369 864 2381 864 2407 
C 864 2560 1075 2560 1171 2560 
L 1171 2732 
C 1018 2726 736 2726 576 2726 
C 403 2726 205 2726 64 2732 
L 64 2560 
C 307 2560 442 2560 518 2362 
L 1446 44 
C 1485 -51 1491 -64 1549 -64 
C 1606 -64 1613 -51 1651 44 
L 2502 2163 
z
" transform="scale(0.015625)"/>
     <path id="CMR17-62" d="M 960 4396 
L 198 4326 
L 198 4160 
C 576 4160 634 4122 634 3817 
L 634 -13 
L 749 -13 
L 934 441 
C 1120 141 1395 -64 1766 -64 
C 2406 -64 3053 500 3053 1370 
C 3053 2188 2477 2790 1830 2790 
C 1434 2790 1152 2579 960 2330 
L 960 4396 
z
M 973 2004 
C 973 2118 973 2138 1062 2272 
C 1312 2657 1670 2688 1792 2688 
C 1984 2688 2643 2585 2643 1376 
C 2643 108 1888 38 1734 38 
C 1536 38 1248 114 1043 486 
C 973 608 973 621 973 735 
L 973 2004 
z
" transform="scale(0.015625)"/>
    </defs>
    <use xlink:href="#CMR17-41" transform="scale(0.996264)"/>
    <use xlink:href="#CMR17-75" transform="translate(69.07243 0) scale(0.996264)"/>
    <use xlink:href="#CMR17-78" transform="translate(119.9678 0) scale(0.996264)"/>
    <use xlink:href="#CMR17-69" transform="translate(168.260715 0) scale(0.996264)"/>
    <use xlink:href="#CMR17-6c" transform="translate(193.131774 0) scale(0.996264)"/>
    <use xlink:href="#CMR17-69" transform="translate(218.002832 0) scale(0.996264)"/>
    <use xlink:href="#CMR17-61" transform="translate(242.873891 0) scale(0.996264)"/>
    <use xlink:href="#CMR17-72" transform="translate(288.564368 0) scale(0.996264)"/>
    <use xlink:href="#CMR17-76" transform="translate(353.921102 0) scale(0.996264)"/>
    <use xlink:href="#CMR17-61" transform="translate(397.009201 0) scale(0.996264)"/>
    <use xlink:href="#CMR17-72" transform="translate(442.699678 0) scale(0.996264)"/>
    <use xlink:href="#CMR17-69" transform="translate(477.980446 0) scale(0.996264)"/>
    <use xlink:href="#CMR17-61" transform="translate(502.851505 0) scale(0.996264)"/>
    <use xlink:href="#CMR17-62" transform="translate(548.541982 0) scale(0.996264)"/>
    <use xlink:href="#CMR17-6c" transform="translate(599.437352 0) scale(0.996264)"/>
    <use xlink:href="#CMR17-65" transform="translate(624.30841 0) scale(0.996264)"/>
   </g>
  </g>
 </g>
 <defs>
  <clipPath id="p2956e46020">
   <rect x="41.730582" y="51.564121" width="914.272556" height="469.58891"/>
  </clipPath>
 </defs>
</svg>
