<?xml version="1.0" encoding="utf-8" standalone="no"?>
<!DOCTYPE svg PUBLIC "-//W3C//DTD SVG 1.1//EN"
  "http://www.w3.org/Graphics/SVG/1.1/DTD/svg11.dtd">
<svg xmlns:xlink="http://www.w3.org/1999/xlink" width="1080pt" height="756pt" viewBox="0 0 1080 756" xmlns="http://www.w3.org/2000/svg" version="1.1">
 <metadata>
  <rdf:RDF xmlns:dc="http://purl.org/dc/elements/1.1/" xmlns:cc="http://creativecommons.org/ns#" xmlns:rdf="http://www.w3.org/1999/02/22-rdf-syntax-ns#">
   <cc:Work>
    <dc:type rdf:resource="http://purl.org/dc/dcmitype/StillImage"/>
    <dc:date>2024-07-31T08:56:17.978784</dc:date>
    <dc:format>image/svg+xml</dc:format>
    <dc:creator>
     <cc:Agent>
      <dc:title>Matplotlib v3.9.0, https://matplotlib.org/</dc:title>
     </cc:Agent>
    </dc:creator>
   </cc:Work>
  </rdf:RDF>
 </metadata>
 <defs>
  <style type="text/css">*{stroke-linejoin: round; stroke-linecap: butt}</style>
 </defs>
 <g id="figure_1">
  <g id="patch_1">
   <path d="M 0 756 
L 1080 756 
L 1080 0 
L 0 0 
z
" style="fill: #ffffff"/>
  </g>
  <g id="axes_1">
   <g id="patch_2">
    <path d="M 88.532127 678.237256 
L 1041.12 678.237256 
L 1041.12 38.88 
L 88.532127 38.88 
z
" style="fill: #ffffff"/>
   </g>
   <g id="matplotlib.axis_1">
    <g id="xtick_1">
     <g id="line2d_1">
      <defs>
       <path id="mc1f0d5d188" d="M 0 0 
L 0 3.5 
" style="stroke: #262626; stroke-width: 0.8"/>
      </defs>
      <g>
       <use xlink:href="#mc1f0d5d188" x="88.532127" y="678.237256" style="fill: #262626; stroke: #262626; stroke-width: 0.8"/>
      </g>
     </g>
     <g id="text_1">
      <!-- $\mathdefault{0.0}$ -->
      <g style="fill: #262626" transform="translate(67.206064 710.143856) scale(0.36 -0.36)">
       <defs>
        <path id="CMR17-30" d="M 2688 2025 
C 2688 2416 2682 3080 2413 3591 
C 2176 4039 1798 4198 1466 4198 
C 1158 4198 768 4058 525 3597 
C 269 3118 243 2524 243 2025 
C 243 1661 250 1106 448 619 
C 723 -39 1216 -128 1466 -128 
C 1760 -128 2208 -7 2470 600 
C 2662 1042 2688 1559 2688 2025 
z
M 1466 -26 
C 1056 -26 813 325 723 812 
C 653 1188 653 1738 653 2096 
C 653 2588 653 2997 736 3387 
C 858 3929 1216 4096 1466 4096 
C 1728 4096 2067 3923 2189 3400 
C 2272 3036 2278 2607 2278 2096 
C 2278 1680 2278 1169 2202 792 
C 2067 95 1690 -26 1466 -26 
z
" transform="scale(0.015625)"/>
        <path id="CMMI12-3a" d="M 1178 307 
C 1178 492 1024 619 870 619 
C 685 619 557 466 557 313 
C 557 128 710 0 864 0 
C 1050 0 1178 153 1178 307 
z
" transform="scale(0.015625)"/>
       </defs>
       <use xlink:href="#CMR17-30" transform="scale(0.996264)"/>
       <use xlink:href="#CMMI12-3a" transform="translate(45.690477 0) scale(0.996264)"/>
       <use xlink:href="#CMR17-30" transform="translate(72.787654 0) scale(0.996264)"/>
      </g>
     </g>
    </g>
    <g id="xtick_2">
     <g id="line2d_2">
      <g>
       <use xlink:href="#mc1f0d5d188" x="269.977436" y="678.237256" style="fill: #262626; stroke: #262626; stroke-width: 0.8"/>
      </g>
     </g>
     <g id="text_2">
      <!-- $\mathdefault{0.2}$ -->
      <g style="fill: #262626" transform="translate(248.651373 710.143856) scale(0.36 -0.36)">
       <defs>
        <path id="CMR17-32" d="M 2669 989 
L 2554 989 
C 2490 536 2438 459 2413 420 
C 2381 369 1920 369 1830 369 
L 602 369 
C 832 619 1280 1072 1824 1597 
C 2214 1967 2669 2402 2669 3035 
C 2669 3790 2067 4224 1395 4224 
C 691 4224 262 3604 262 3030 
C 262 2780 448 2748 525 2748 
C 589 2748 781 2787 781 3010 
C 781 3207 614 3264 525 3264 
C 486 3264 448 3258 422 3245 
C 544 3790 915 4058 1306 4058 
C 1862 4058 2227 3617 2227 3035 
C 2227 2479 1901 2000 1536 1584 
L 262 146 
L 262 0 
L 2515 0 
L 2669 989 
z
" transform="scale(0.015625)"/>
       </defs>
       <use xlink:href="#CMR17-30" transform="scale(0.996264)"/>
       <use xlink:href="#CMMI12-3a" transform="translate(45.690477 0) scale(0.996264)"/>
       <use xlink:href="#CMR17-32" transform="translate(72.787654 0) scale(0.996264)"/>
      </g>
     </g>
    </g>
    <g id="xtick_3">
     <g id="line2d_3">
      <g>
       <use xlink:href="#mc1f0d5d188" x="451.422745" y="678.237256" style="fill: #262626; stroke: #262626; stroke-width: 0.8"/>
      </g>
     </g>
     <g id="text_3">
      <!-- $\mathdefault{0.4}$ -->
      <g style="fill: #262626" transform="translate(430.096682 710.143856) scale(0.36 -0.36)">
       <defs>
        <path id="CMR17-34" d="M 2150 4122 
C 2150 4256 2144 4256 2029 4256 
L 128 1254 
L 128 1088 
L 1779 1088 
L 1779 457 
C 1779 224 1766 160 1318 160 
L 1197 160 
L 1197 0 
C 1402 0 1747 0 1965 0 
C 2182 0 2528 0 2733 0 
L 2733 160 
L 2611 160 
C 2163 160 2150 224 2150 457 
L 2150 1088 
L 2803 1088 
L 2803 1254 
L 2150 1254 
L 2150 4122 
z
M 1798 3703 
L 1798 1254 
L 256 1254 
L 1798 3703 
z
" transform="scale(0.015625)"/>
       </defs>
       <use xlink:href="#CMR17-30" transform="scale(0.996264)"/>
       <use xlink:href="#CMMI12-3a" transform="translate(45.690477 0) scale(0.996264)"/>
       <use xlink:href="#CMR17-34" transform="translate(72.787654 0) scale(0.996264)"/>
      </g>
     </g>
    </g>
    <g id="xtick_4">
     <g id="line2d_4">
      <g>
       <use xlink:href="#mc1f0d5d188" x="632.868055" y="678.237256" style="fill: #262626; stroke: #262626; stroke-width: 0.8"/>
      </g>
     </g>
     <g id="text_4">
      <!-- $\mathdefault{0.6}$ -->
      <g style="fill: #262626" transform="translate(611.541991 710.143856) scale(0.36 -0.36)">
       <defs>
        <path id="CMR17-36" d="M 678 2176 
C 678 3690 1395 4032 1811 4032 
C 1946 4032 2272 4009 2400 3776 
C 2298 3776 2106 3776 2106 3553 
C 2106 3381 2246 3323 2336 3323 
C 2394 3323 2566 3348 2566 3560 
C 2566 3954 2246 4179 1805 4179 
C 1043 4179 243 3390 243 1984 
C 243 253 966 -128 1478 -128 
C 2099 -128 2688 427 2688 1283 
C 2688 2081 2170 2662 1517 2662 
C 1126 2662 838 2407 678 1960 
L 678 2176 
z
M 1478 25 
C 691 25 691 1200 691 1436 
C 691 1896 909 2560 1504 2560 
C 1613 2560 1926 2560 2138 2120 
C 2253 1870 2253 1609 2253 1289 
C 2253 944 2253 690 2118 434 
C 1978 171 1773 25 1478 25 
z
" transform="scale(0.015625)"/>
       </defs>
       <use xlink:href="#CMR17-30" transform="scale(0.996264)"/>
       <use xlink:href="#CMMI12-3a" transform="translate(45.690477 0) scale(0.996264)"/>
       <use xlink:href="#CMR17-36" transform="translate(72.787654 0) scale(0.996264)"/>
      </g>
     </g>
    </g>
    <g id="xtick_5">
     <g id="line2d_5">
      <g>
       <use xlink:href="#mc1f0d5d188" x="814.313364" y="678.237256" style="fill: #262626; stroke: #262626; stroke-width: 0.8"/>
      </g>
     </g>
     <g id="text_5">
      <!-- $\mathdefault{0.8}$ -->
      <g style="fill: #262626" transform="translate(792.9873 710.143856) scale(0.36 -0.36)">
       <defs>
        <path id="CMR17-38" d="M 1741 2264 
C 2144 2467 2554 2773 2554 3263 
C 2554 3841 1990 4179 1472 4179 
C 890 4179 378 3759 378 3180 
C 378 3021 416 2747 666 2505 
C 730 2442 998 2251 1171 2130 
C 883 1983 211 1634 211 934 
C 211 279 838 -128 1459 -128 
C 2144 -128 2720 362 2720 1010 
C 2720 1590 2330 1857 2074 2029 
L 1741 2264 
z
M 902 2822 
C 851 2854 595 3051 595 3351 
C 595 3739 998 4032 1459 4032 
C 1965 4032 2336 3676 2336 3262 
C 2336 2669 1670 2331 1638 2331 
C 1632 2331 1626 2331 1574 2370 
L 902 2822 
z
M 2080 1519 
C 2176 1449 2483 1240 2483 851 
C 2483 381 2010 25 1472 25 
C 890 25 448 438 448 940 
C 448 1443 838 1862 1280 2060 
L 2080 1519 
z
" transform="scale(0.015625)"/>
       </defs>
       <use xlink:href="#CMR17-30" transform="scale(0.996264)"/>
       <use xlink:href="#CMMI12-3a" transform="translate(45.690477 0) scale(0.996264)"/>
       <use xlink:href="#CMR17-38" transform="translate(72.787654 0) scale(0.996264)"/>
      </g>
     </g>
    </g>
    <g id="xtick_6">
     <g id="line2d_6">
      <g>
       <use xlink:href="#mc1f0d5d188" x="995.758673" y="678.237256" style="fill: #262626; stroke: #262626; stroke-width: 0.8"/>
      </g>
     </g>
     <g id="text_6">
      <!-- $\mathdefault{1.0}$ -->
      <g style="fill: #262626" transform="translate(974.432609 710.143856) scale(0.36 -0.36)">
       <defs>
        <path id="CMR17-31" d="M 1702 4058 
C 1702 4192 1696 4192 1606 4192 
C 1357 3916 979 3827 621 3827 
C 602 3827 570 3827 563 3808 
C 557 3795 557 3782 557 3648 
C 755 3648 1088 3686 1344 3839 
L 1344 461 
C 1344 236 1331 160 781 160 
L 589 160 
L 589 0 
C 896 0 1216 0 1523 0 
C 1830 0 2150 0 2458 0 
L 2458 160 
L 2266 160 
C 1715 160 1702 230 1702 458 
L 1702 4058 
z
" transform="scale(0.015625)"/>
       </defs>
       <use xlink:href="#CMR17-31" transform="scale(0.996264)"/>
       <use xlink:href="#CMMI12-3a" transform="translate(45.690477 0) scale(0.996264)"/>
       <use xlink:href="#CMR17-30" transform="translate(72.787654 0) scale(0.996264)"/>
      </g>
     </g>
    </g>
   </g>
   <g id="matplotlib.axis_2">
    <g id="ytick_1">
     <g id="line2d_7">
      <defs>
       <path id="mc75a1889ad" d="M 0 0 
L -3.5 0 
" style="stroke: #262626; stroke-width: 0.8"/>
      </defs>
      <g>
       <use xlink:href="#mc75a1889ad" x="88.532127" y="678.237256" style="fill: #262626; stroke: #262626; stroke-width: 0.8"/>
      </g>
     </g>
     <g id="text_7">
      <!-- $\mathdefault{0.0}$ -->
      <g style="fill: #262626" transform="translate(38.88 690.690556) scale(0.36 -0.36)">
       <use xlink:href="#CMR17-30" transform="scale(0.996264)"/>
       <use xlink:href="#CMMI12-3a" transform="translate(45.690477 0) scale(0.996264)"/>
       <use xlink:href="#CMR17-30" transform="translate(72.787654 0) scale(0.996264)"/>
      </g>
     </g>
    </g>
    <g id="ytick_2">
     <g id="line2d_8">
      <g>
       <use xlink:href="#mc75a1889ad" x="88.532127" y="678.234653" style="fill: #262626; stroke: #262626; stroke-width: 0.8"/>
      </g>
     </g>
     <g id="text_8">
      <!-- $\mathdefault{0.2}$ -->
      <g style="fill: #262626" transform="translate(38.88 690.687953) scale(0.36 -0.36)">
       <use xlink:href="#CMR17-30" transform="scale(0.996264)"/>
       <use xlink:href="#CMMI12-3a" transform="translate(45.690477 0) scale(0.996264)"/>
       <use xlink:href="#CMR17-32" transform="translate(72.787654 0) scale(0.996264)"/>
      </g>
     </g>
    </g>
    <g id="ytick_3">
     <g id="line2d_9">
      <g>
       <use xlink:href="#mc75a1889ad" x="88.532127" y="678.23205" style="fill: #262626; stroke: #262626; stroke-width: 0.8"/>
      </g>
     </g>
     <g id="text_9">
      <!-- $\mathdefault{0.4}$ -->
      <g style="fill: #262626" transform="translate(38.88 690.68535) scale(0.36 -0.36)">
       <use xlink:href="#CMR17-30" transform="scale(0.996264)"/>
       <use xlink:href="#CMMI12-3a" transform="translate(45.690477 0) scale(0.996264)"/>
       <use xlink:href="#CMR17-34" transform="translate(72.787654 0) scale(0.996264)"/>
      </g>
     </g>
    </g>
    <g id="ytick_4">
     <g id="line2d_10">
      <g>
       <use xlink:href="#mc75a1889ad" x="88.532127" y="678.229447" style="fill: #262626; stroke: #262626; stroke-width: 0.8"/>
      </g>
     </g>
     <g id="text_10">
      <!-- $\mathdefault{0.6}$ -->
      <g style="fill: #262626" transform="translate(38.88 690.682747) scale(0.36 -0.36)">
       <use xlink:href="#CMR17-30" transform="scale(0.996264)"/>
       <use xlink:href="#CMMI12-3a" transform="translate(45.690477 0) scale(0.996264)"/>
       <use xlink:href="#CMR17-36" transform="translate(72.787654 0) scale(0.996264)"/>
      </g>
     </g>
    </g>
    <g id="ytick_5">
     <g id="line2d_11">
      <g>
       <use xlink:href="#mc75a1889ad" x="88.532127" y="678.226843" style="fill: #262626; stroke: #262626; stroke-width: 0.8"/>
      </g>
     </g>
     <g id="text_11">
      <!-- $\mathdefault{0.8}$ -->
      <g style="fill: #262626" transform="translate(38.88 690.680144) scale(0.36 -0.36)">
       <use xlink:href="#CMR17-30" transform="scale(0.996264)"/>
       <use xlink:href="#CMMI12-3a" transform="translate(45.690477 0) scale(0.996264)"/>
       <use xlink:href="#CMR17-38" transform="translate(72.787654 0) scale(0.996264)"/>
      </g>
     </g>
    </g>
    <g id="ytick_6">
     <g id="line2d_12">
      <g>
       <use xlink:href="#mc75a1889ad" x="88.532127" y="678.22424" style="fill: #262626; stroke: #262626; stroke-width: 0.8"/>
      </g>
     </g>
     <g id="text_12">
      <!-- $\mathdefault{1.0}$ -->
      <g style="fill: #262626" transform="translate(38.88 690.67754) scale(0.36 -0.36)">
       <use xlink:href="#CMR17-31" transform="scale(0.996264)"/>
       <use xlink:href="#CMMI12-3a" transform="translate(45.690477 0) scale(0.996264)"/>
       <use xlink:href="#CMR17-30" transform="translate(72.787654 0) scale(0.996264)"/>
      </g>
     </g>
    </g>
    <g id="ytick_7">
     <g id="line2d_13">
      <g>
       <use xlink:href="#mc75a1889ad" x="88.532127" y="678.221637" style="fill: #262626; stroke: #262626; stroke-width: 0.8"/>
      </g>
     </g>
     <g id="text_13">
      <!-- $\mathdefault{1.2}$ -->
      <g style="fill: #262626" transform="translate(38.88 690.674937) scale(0.36 -0.36)">
       <use xlink:href="#CMR17-31" transform="scale(0.996264)"/>
       <use xlink:href="#CMMI12-3a" transform="translate(45.690477 0) scale(0.996264)"/>
       <use xlink:href="#CMR17-32" transform="translate(72.787654 0) scale(0.996264)"/>
      </g>
     </g>
    </g>
   </g>
   <g id="line2d_14">
    <path d="M 88.532127 678.237256 
L 995.758673 678.237256 
L 995.758673 678.237256 
" clip-path="url(#pbf51f7e94a)" style="fill: none; stroke: #1f77b4; stroke-width: 5; stroke-linecap: round"/>
   </g>
   <g id="line2d_15">
    <path d="M 88.532127 675.931171 
L 142.96572 676.459863 
L 215.543844 676.917699 
L 318.362852 677.317608 
L 463.519099 677.643346 
L 687.301647 677.905802 
L 995.758673 678.074915 
L 995.758673 678.074915 
" clip-path="url(#pbf51f7e94a)" style="fill: none; stroke: #ff7f0e; stroke-width: 5; stroke-linecap: round"/>
   </g>
   <g id="line2d_16">
    <path d="M 88.532127 668.185723 
L 94.580304 669.066993 
L 106.676658 670.45599 
L 118.773012 671.501032 
L 130.869366 672.315675 
L 149.013897 673.248395 
L 167.158428 673.948762 
L 191.351136 674.649338 
L 221.592021 675.285681 
L 263.929259 675.907576 
L 318.362852 676.442883 
L 390.940976 676.905843 
L 493.759984 677.309725 
L 638.916232 677.63835 
L 862.698779 677.902934 
L 995.758673 677.993629 
L 995.758673 677.993629 
" clip-path="url(#pbf51f7e94a)" style="fill: none; stroke: #2ca02c; stroke-width: 5; stroke-linecap: round"/>
   </g>
   <g id="line2d_17">
    <path d="M 88.532127 636.954124 
L 94.580304 647.241404 
L 100.628481 653.810053 
L 106.676658 658.145876 
L 112.724835 661.204892 
L 118.773012 663.479015 
L 124.821189 665.23594 
L 130.869366 666.634088 
L 136.917543 667.773133 
L 142.96572 668.718902 
L 149.013897 669.516696 
L 161.110251 670.788307 
L 173.206605 671.756497 
L 185.302959 672.518057 
L 203.44749 673.39738 
L 221.592021 674.062869 
L 245.784728 674.733045 
L 276.025613 675.345692 
L 318.362852 675.948061 
L 372.796445 676.469463 
L 445.374568 676.922574 
L 548.193577 677.31953 
L 699.398001 677.653624 
L 929.228726 677.915052 
L 995.758673 677.962474 
L 995.758673 677.962474 
" clip-path="url(#pbf51f7e94a)" style="fill: none; stroke: #d62728; stroke-width: 5; stroke-linecap: round"/>
   </g>
   <g id="line2d_18">
    <path d="M 88.532127 571.491071 
L 94.580304 605.852776 
L 100.628481 627.483457 
L 106.676658 641.183584 
L 112.724835 649.924762 
L 118.773012 655.546008 
L 124.821189 659.345451 
L 130.869366 662.083259 
L 136.917543 664.149816 
L 142.96572 665.764887 
L 149.013897 667.061786 
L 155.062074 668.125999 
L 161.110251 669.014989 
L 173.206605 670.415634 
L 185.302959 671.468813 
L 197.399313 672.289355 
L 215.543844 673.228194 
L 233.688375 673.932718 
L 257.881082 674.637026 
L 288.121967 675.276381 
L 324.411029 675.825548 
L 372.796445 676.336874 
L 439.326392 676.805049 
L 530.049046 677.209068 
L 663.108939 677.559651 
L 862.698779 677.841896 
L 995.758673 677.951751 
L 995.758673 677.951751 
" clip-path="url(#pbf51f7e94a)" style="fill: none; stroke: #9467bd; stroke-width: 5; stroke-linecap: round"/>
   </g>
   <g id="line2d_19">
    <path d="M 88.532127 494.607748 
L 94.580304 557.702737 
L 100.628481 597.143971 
L 106.676658 621.952425 
L 112.724835 637.668201 
L 118.773012 647.680515 
L 124.821189 654.086293 
L 130.869366 658.330531 
L 136.917543 661.33695 
L 142.96572 663.577975 
L 149.013897 665.312796 
L 155.062074 666.695386 
L 161.110251 667.823125 
L 167.158428 668.760408 
L 173.206605 669.551674 
L 185.302959 670.814042 
L 197.399313 671.776172 
L 209.495667 672.53353 
L 227.640198 673.408623 
L 245.784728 674.071358 
L 269.977436 674.739145 
L 300.218321 675.349951 
L 342.55556 675.950823 
L 396.989153 676.471179 
L 469.567276 676.923574 
L 572.386285 677.32005 
L 723.590709 677.653846 
L 953.421434 677.915116 
L 995.758673 677.946291 
L 995.758673 677.946291 
" clip-path="url(#pbf51f7e94a)" style="fill: none; stroke: #8c564b; stroke-width: 5; stroke-linecap: round"/>
   </g>
   <g id="line2d_20">
    <path d="M 88.532127 413.164894 
L 94.580304 506.983942 
L 100.628481 565.363529 
L 106.676658 601.918601 
L 112.724835 624.972187 
L 118.773012 639.594364 
L 124.821189 648.903593 
L 130.869366 654.878913 
L 136.917543 658.878315 
L 142.96572 661.737944 
L 149.013897 663.884146 
L 155.062074 665.554129 
L 161.110251 666.890555 
L 167.158428 667.98414 
L 173.206605 668.895504 
L 185.302959 670.327491 
L 197.399313 671.401149 
L 209.495667 672.235731 
L 227.640198 673.188675 
L 245.784728 673.902386 
L 269.977436 674.614684 
L 300.218321 675.260261 
L 336.507383 675.813987 
L 384.892799 676.328914 
L 451.422745 676.799839 
L 542.1454 677.205812 
L 675.205293 677.557776 
L 874.795133 677.840922 
L 995.758673 677.942712 
L 995.758673 677.942712 
" clip-path="url(#pbf51f7e94a)" style="fill: none; stroke: #e377c2; stroke-width: 5; stroke-linecap: round"/>
   </g>
   <g id="line2d_21">
    <path d="M 88.532127 329.194967 
L 94.580304 454.897202 
L 100.628481 532.85288 
L 106.676658 581.503256 
L 112.724835 612.083546 
L 118.773012 631.416368 
L 124.821189 643.683765 
L 130.869366 651.522552 
L 136.917543 656.596988 
L 142.96572 660.087042 
L 149.013897 662.63432 
L 155.062074 664.575185 
L 161.110251 666.103137 
L 167.158428 667.337112 
L 173.206605 668.354442 
L 179.254782 669.207478 
L 191.351136 670.55765 
L 203.44749 671.577814 
L 215.543844 672.375575 
L 233.688375 673.291566 
L 251.832905 673.981191 
L 276.025613 674.672539 
L 306.266498 675.301824 
L 348.603737 675.918017 
L 403.03733 676.449374 
L 475.615453 676.90963 
L 578.434462 677.3117 
L 723.590709 677.639233 
L 947.373257 677.903205 
L 995.758673 677.940063 
L 995.758673 677.940063 
" clip-path="url(#pbf51f7e94a)" style="fill: none; stroke: #7f7f7f; stroke-width: 5; stroke-linecap: round"/>
   </g>
   <g id="line2d_22">
    <path d="M 88.532127 243.608404 
L 94.580304 401.967182 
L 100.628481 499.913988 
L 106.676658 560.879689 
L 112.724835 599.101209 
L 118.773012 623.202522 
L 124.821189 638.457402 
L 130.869366 648.179373 
L 136.917543 654.408707 
L 142.96572 658.552055 
L 149.013897 661.498386 
L 155.062074 663.700748 
L 161.110251 665.409324 
L 167.158428 666.773261 
L 173.206605 667.88721 
L 179.254782 668.814025 
L 185.302959 669.597197 
L 197.399313 670.84804 
L 209.495667 671.802447 
L 221.592021 672.554441 
L 239.736552 673.424077 
L 257.881082 674.083211 
L 282.07379 674.747849 
L 312.314675 675.356183 
L 354.651914 675.955016 
L 409.085507 676.473915 
L 481.66363 676.925279 
L 584.482639 677.321032 
L 735.687063 677.654355 
L 965.517788 677.91534 
L 995.758673 677.937964 
L 995.758673 677.937964 
" clip-path="url(#pbf51f7e94a)" style="fill: none; stroke: #bcbd22; stroke-width: 5; stroke-linecap: round"/>
   </g>
   <g id="line2d_23">
    <path d="M 88.532127 156.912607 
L 94.580304 348.480376 
L 100.628481 466.707856 
L 106.676658 540.137712 
L 112.724835 586.074684 
L 118.773012 614.979649 
L 124.821189 633.236778 
L 130.869366 644.847949 
L 136.917543 652.264485 
L 142.96572 657.091861 
L 149.013897 660.440257 
L 155.062074 662.898872 
L 161.110251 664.780766 
L 167.158428 666.267368 
L 173.206605 667.471309 
L 179.254782 668.466095 
L 185.302959 669.30186 
L 197.399313 670.62759 
L 209.495667 671.631672 
L 221.592021 672.418299 
L 239.736552 673.323071 
L 257.881082 674.00535 
L 282.07379 674.690303 
L 312.314675 675.314585 
L 354.651914 675.92666 
L 409.085507 676.455074 
L 481.66363 676.913241 
L 584.482639 677.313834 
L 729.638886 677.64041 
L 953.421434 677.903768 
L 995.758673 677.936225 
L 995.758673 677.936225 
" clip-path="url(#pbf51f7e94a)" style="fill: none; stroke: #17becf; stroke-width: 5; stroke-linecap: round"/>
   </g>
   <g id="line2d_24">
    <path d="M 88.532127 69.325584 
L 94.580304 294.55349 
L 100.628481 433.295708 
L 106.676658 519.30844 
L 112.724835 573.018973 
L 118.773012 606.754312 
L 124.821189 628.024572 
L 130.869366 641.528202 
L 136.917543 650.137483 
L 142.96572 655.681436 
L 149.013897 659.438474 
L 155.062074 662.150778 
L 161.110251 664.200927 
L 167.158428 665.804817 
L 173.206605 667.093768 
L 179.254782 668.152129 
L 185.302959 669.036683 
L 197.399313 670.431217 
L 209.495667 671.480461 
L 221.592021 672.29832 
L 239.736552 673.234538 
L 257.881082 673.937383 
L 282.07379 674.640275 
L 312.314675 675.278556 
L 348.603737 675.826968 
L 396.989153 676.33773 
L 463.519099 676.805505 
L 554.241754 677.20927 
L 687.301647 677.559701 
L 886.891487 677.841875 
L 995.758673 677.934742 
L 995.758673 677.934742 
" clip-path="url(#pbf51f7e94a)" style="fill: none; stroke: #17becf; stroke-width: 5; stroke-linecap: round"/>
   </g>
   <g id="patch_3">
    <path d="M 88.532127 678.237256 
L 88.532127 38.88 
" style="fill: none; stroke: #262626; stroke-width: 0.8; stroke-linejoin: miter; stroke-linecap: square"/>
   </g>
   <g id="patch_4">
    <path d="M 88.532127 678.237256 
L 1041.12 678.237256 
" style="fill: none; stroke: #262626; stroke-width: 0.8; stroke-linejoin: miter; stroke-linecap: square"/>
   </g>
  </g>
 </g>
 <defs>
  <clipPath id="pbf51f7e94a">
   <rect x="88.532127" y="38.88" width="952.587873" height="639.357256"/>
  </clipPath>
 </defs>
</svg>
