<?xml version="1.0" encoding="utf-8" standalone="no"?>
<!DOCTYPE svg PUBLIC "-//W3C//DTD SVG 1.1//EN"
  "http://www.w3.org/Graphics/SVG/1.1/DTD/svg11.dtd">
<svg xmlns:xlink="http://www.w3.org/1999/xlink" width="1080pt" height="756pt" viewBox="0 0 1080 756" xmlns="http://www.w3.org/2000/svg" version="1.1">
 <metadata>
  <rdf:RDF xmlns:dc="http://purl.org/dc/elements/1.1/" xmlns:cc="http://creativecommons.org/ns#" xmlns:rdf="http://www.w3.org/1999/02/22-rdf-syntax-ns#">
   <cc:Work>
    <dc:type rdf:resource="http://purl.org/dc/dcmitype/StillImage"/>
    <dc:date>2024-07-31T08:53:13.817721</dc:date>
    <dc:format>image/svg+xml</dc:format>
    <dc:creator>
     <cc:Agent>
      <dc:title>Matplotlib v3.9.0, https://matplotlib.org/</dc:title>
     </cc:Agent>
    </dc:creator>
   </cc:Work>
  </rdf:RDF>
 </metadata>
 <defs>
  <style type="text/css">*{stroke-linejoin: round; stroke-linecap: butt}</style>
 </defs>
 <g id="figure_1">
  <g id="patch_1">
   <path d="M 0 756 
L 1080 756 
L 1080 0 
L 0 0 
z
" style="fill: #ffffff"/>
  </g>
  <g id="axes_1">
   <g id="patch_2">
    <path d="M 88.532127 678.237256 
L 1041.12 678.237256 
L 1041.12 38.88 
L 88.532127 38.88 
z
" style="fill: #ffffff"/>
   </g>
   <g id="matplotlib.axis_1">
    <g id="xtick_1">
     <g id="line2d_1">
      <defs>
       <path id="m6fadf07507" d="M 0 0 
L 0 3.5 
" style="stroke: #262626; stroke-width: 0.8"/>
      </defs>
      <g>
       <use xlink:href="#m6fadf07507" x="88.532127" y="678.237256" style="fill: #262626; stroke: #262626; stroke-width: 0.8"/>
      </g>
     </g>
     <g id="text_1">
      <!-- $\mathdefault{0.0}$ -->
      <g style="fill: #262626" transform="translate(67.206064 710.143856) scale(0.36 -0.36)">
       <defs>
        <path id="CMR17-30" d="M 2688 2025 
C 2688 2416 2682 3080 2413 3591 
C 2176 4039 1798 4198 1466 4198 
C 1158 4198 768 4058 525 3597 
C 269 3118 243 2524 243 2025 
C 243 1661 250 1106 448 619 
C 723 -39 1216 -128 1466 -128 
C 1760 -128 2208 -7 2470 600 
C 2662 1042 2688 1559 2688 2025 
z
M 1466 -26 
C 1056 -26 813 325 723 812 
C 653 1188 653 1738 653 2096 
C 653 2588 653 2997 736 3387 
C 858 3929 1216 4096 1466 4096 
C 1728 4096 2067 3923 2189 3400 
C 2272 3036 2278 2607 2278 2096 
C 2278 1680 2278 1169 2202 792 
C 2067 95 1690 -26 1466 -26 
z
" transform="scale(0.015625)"/>
        <path id="CMMI12-3a" d="M 1178 307 
C 1178 492 1024 619 870 619 
C 685 619 557 466 557 313 
C 557 128 710 0 864 0 
C 1050 0 1178 153 1178 307 
z
" transform="scale(0.015625)"/>
       </defs>
       <use xlink:href="#CMR17-30" transform="scale(0.996264)"/>
       <use xlink:href="#CMMI12-3a" transform="translate(45.690477 0) scale(0.996264)"/>
       <use xlink:href="#CMR17-30" transform="translate(72.787654 0) scale(0.996264)"/>
      </g>
     </g>
    </g>
    <g id="xtick_2">
     <g id="line2d_2">
      <g>
       <use xlink:href="#m6fadf07507" x="269.977436" y="678.237256" style="fill: #262626; stroke: #262626; stroke-width: 0.8"/>
      </g>
     </g>
     <g id="text_2">
      <!-- $\mathdefault{0.2}$ -->
      <g style="fill: #262626" transform="translate(248.651373 710.143856) scale(0.36 -0.36)">
       <defs>
        <path id="CMR17-32" d="M 2669 989 
L 2554 989 
C 2490 536 2438 459 2413 420 
C 2381 369 1920 369 1830 369 
L 602 369 
C 832 619 1280 1072 1824 1597 
C 2214 1967 2669 2402 2669 3035 
C 2669 3790 2067 4224 1395 4224 
C 691 4224 262 3604 262 3030 
C 262 2780 448 2748 525 2748 
C 589 2748 781 2787 781 3010 
C 781 3207 614 3264 525 3264 
C 486 3264 448 3258 422 3245 
C 544 3790 915 4058 1306 4058 
C 1862 4058 2227 3617 2227 3035 
C 2227 2479 1901 2000 1536 1584 
L 262 146 
L 262 0 
L 2515 0 
L 2669 989 
z
" transform="scale(0.015625)"/>
       </defs>
       <use xlink:href="#CMR17-30" transform="scale(0.996264)"/>
       <use xlink:href="#CMMI12-3a" transform="translate(45.690477 0) scale(0.996264)"/>
       <use xlink:href="#CMR17-32" transform="translate(72.787654 0) scale(0.996264)"/>
      </g>
     </g>
    </g>
    <g id="xtick_3">
     <g id="line2d_3">
      <g>
       <use xlink:href="#m6fadf07507" x="451.422745" y="678.237256" style="fill: #262626; stroke: #262626; stroke-width: 0.8"/>
      </g>
     </g>
     <g id="text_3">
      <!-- $\mathdefault{0.4}$ -->
      <g style="fill: #262626" transform="translate(430.096682 710.143856) scale(0.36 -0.36)">
       <defs>
        <path id="CMR17-34" d="M 2150 4122 
C 2150 4256 2144 4256 2029 4256 
L 128 1254 
L 128 1088 
L 1779 1088 
L 1779 457 
C 1779 224 1766 160 1318 160 
L 1197 160 
L 1197 0 
C 1402 0 1747 0 1965 0 
C 2182 0 2528 0 2733 0 
L 2733 160 
L 2611 160 
C 2163 160 2150 224 2150 457 
L 2150 1088 
L 2803 1088 
L 2803 1254 
L 2150 1254 
L 2150 4122 
z
M 1798 3703 
L 1798 1254 
L 256 1254 
L 1798 3703 
z
" transform="scale(0.015625)"/>
       </defs>
       <use xlink:href="#CMR17-30" transform="scale(0.996264)"/>
       <use xlink:href="#CMMI12-3a" transform="translate(45.690477 0) scale(0.996264)"/>
       <use xlink:href="#CMR17-34" transform="translate(72.787654 0) scale(0.996264)"/>
      </g>
     </g>
    </g>
    <g id="xtick_4">
     <g id="line2d_4">
      <g>
       <use xlink:href="#m6fadf07507" x="632.868055" y="678.237256" style="fill: #262626; stroke: #262626; stroke-width: 0.8"/>
      </g>
     </g>
     <g id="text_4">
      <!-- $\mathdefault{0.6}$ -->
      <g style="fill: #262626" transform="translate(611.541991 710.143856) scale(0.36 -0.36)">
       <defs>
        <path id="CMR17-36" d="M 678 2176 
C 678 3690 1395 4032 1811 4032 
C 1946 4032 2272 4009 2400 3776 
C 2298 3776 2106 3776 2106 3553 
C 2106 3381 2246 3323 2336 3323 
C 2394 3323 2566 3348 2566 3560 
C 2566 3954 2246 4179 1805 4179 
C 1043 4179 243 3390 243 1984 
C 243 253 966 -128 1478 -128 
C 2099 -128 2688 427 2688 1283 
C 2688 2081 2170 2662 1517 2662 
C 1126 2662 838 2407 678 1960 
L 678 2176 
z
M 1478 25 
C 691 25 691 1200 691 1436 
C 691 1896 909 2560 1504 2560 
C 1613 2560 1926 2560 2138 2120 
C 2253 1870 2253 1609 2253 1289 
C 2253 944 2253 690 2118 434 
C 1978 171 1773 25 1478 25 
z
" transform="scale(0.015625)"/>
       </defs>
       <use xlink:href="#CMR17-30" transform="scale(0.996264)"/>
       <use xlink:href="#CMMI12-3a" transform="translate(45.690477 0) scale(0.996264)"/>
       <use xlink:href="#CMR17-36" transform="translate(72.787654 0) scale(0.996264)"/>
      </g>
     </g>
    </g>
    <g id="xtick_5">
     <g id="line2d_5">
      <g>
       <use xlink:href="#m6fadf07507" x="814.313364" y="678.237256" style="fill: #262626; stroke: #262626; stroke-width: 0.8"/>
      </g>
     </g>
     <g id="text_5">
      <!-- $\mathdefault{0.8}$ -->
      <g style="fill: #262626" transform="translate(792.9873 710.143856) scale(0.36 -0.36)">
       <defs>
        <path id="CMR17-38" d="M 1741 2264 
C 2144 2467 2554 2773 2554 3263 
C 2554 3841 1990 4179 1472 4179 
C 890 4179 378 3759 378 3180 
C 378 3021 416 2747 666 2505 
C 730 2442 998 2251 1171 2130 
C 883 1983 211 1634 211 934 
C 211 279 838 -128 1459 -128 
C 2144 -128 2720 362 2720 1010 
C 2720 1590 2330 1857 2074 2029 
L 1741 2264 
z
M 902 2822 
C 851 2854 595 3051 595 3351 
C 595 3739 998 4032 1459 4032 
C 1965 4032 2336 3676 2336 3262 
C 2336 2669 1670 2331 1638 2331 
C 1632 2331 1626 2331 1574 2370 
L 902 2822 
z
M 2080 1519 
C 2176 1449 2483 1240 2483 851 
C 2483 381 2010 25 1472 25 
C 890 25 448 438 448 940 
C 448 1443 838 1862 1280 2060 
L 2080 1519 
z
" transform="scale(0.015625)"/>
       </defs>
       <use xlink:href="#CMR17-30" transform="scale(0.996264)"/>
       <use xlink:href="#CMMI12-3a" transform="translate(45.690477 0) scale(0.996264)"/>
       <use xlink:href="#CMR17-38" transform="translate(72.787654 0) scale(0.996264)"/>
      </g>
     </g>
    </g>
    <g id="xtick_6">
     <g id="line2d_6">
      <g>
       <use xlink:href="#m6fadf07507" x="995.758673" y="678.237256" style="fill: #262626; stroke: #262626; stroke-width: 0.8"/>
      </g>
     </g>
     <g id="text_6">
      <!-- $\mathdefault{1.0}$ -->
      <g style="fill: #262626" transform="translate(974.432609 710.143856) scale(0.36 -0.36)">
       <defs>
        <path id="CMR17-31" d="M 1702 4058 
C 1702 4192 1696 4192 1606 4192 
C 1357 3916 979 3827 621 3827 
C 602 3827 570 3827 563 3808 
C 557 3795 557 3782 557 3648 
C 755 3648 1088 3686 1344 3839 
L 1344 461 
C 1344 236 1331 160 781 160 
L 589 160 
L 589 0 
C 896 0 1216 0 1523 0 
C 1830 0 2150 0 2458 0 
L 2458 160 
L 2266 160 
C 1715 160 1702 230 1702 458 
L 1702 4058 
z
" transform="scale(0.015625)"/>
       </defs>
       <use xlink:href="#CMR17-31" transform="scale(0.996264)"/>
       <use xlink:href="#CMMI12-3a" transform="translate(45.690477 0) scale(0.996264)"/>
       <use xlink:href="#CMR17-30" transform="translate(72.787654 0) scale(0.996264)"/>
      </g>
     </g>
    </g>
   </g>
   <g id="matplotlib.axis_2">
    <g id="ytick_1">
     <g id="line2d_7">
      <defs>
       <path id="mb8efe77ecf" d="M 0 0 
L -3.5 0 
" style="stroke: #262626; stroke-width: 0.8"/>
      </defs>
      <g>
       <use xlink:href="#mb8efe77ecf" x="88.532127" y="678.237256" style="fill: #262626; stroke: #262626; stroke-width: 0.8"/>
      </g>
     </g>
     <g id="text_7">
      <!-- $\mathdefault{0.0}$ -->
      <g style="fill: #262626" transform="translate(38.88 690.690556) scale(0.36 -0.36)">
       <use xlink:href="#CMR17-30" transform="scale(0.996264)"/>
       <use xlink:href="#CMMI12-3a" transform="translate(45.690477 0) scale(0.996264)"/>
       <use xlink:href="#CMR17-30" transform="translate(72.787654 0) scale(0.996264)"/>
      </g>
     </g>
    </g>
    <g id="ytick_2">
     <g id="line2d_8">
      <g>
       <use xlink:href="#mb8efe77ecf" x="88.532127" y="678.223832" style="fill: #262626; stroke: #262626; stroke-width: 0.8"/>
      </g>
     </g>
     <g id="text_8">
      <!-- $\mathdefault{0.2}$ -->
      <g style="fill: #262626" transform="translate(38.88 690.677132) scale(0.36 -0.36)">
       <use xlink:href="#CMR17-30" transform="scale(0.996264)"/>
       <use xlink:href="#CMMI12-3a" transform="translate(45.690477 0) scale(0.996264)"/>
       <use xlink:href="#CMR17-32" transform="translate(72.787654 0) scale(0.996264)"/>
      </g>
     </g>
    </g>
    <g id="ytick_3">
     <g id="line2d_9">
      <g>
       <use xlink:href="#mb8efe77ecf" x="88.532127" y="678.210407" style="fill: #262626; stroke: #262626; stroke-width: 0.8"/>
      </g>
     </g>
     <g id="text_9">
      <!-- $\mathdefault{0.4}$ -->
      <g style="fill: #262626" transform="translate(38.88 690.663707) scale(0.36 -0.36)">
       <use xlink:href="#CMR17-30" transform="scale(0.996264)"/>
       <use xlink:href="#CMMI12-3a" transform="translate(45.690477 0) scale(0.996264)"/>
       <use xlink:href="#CMR17-34" transform="translate(72.787654 0) scale(0.996264)"/>
      </g>
     </g>
    </g>
    <g id="ytick_4">
     <g id="line2d_10">
      <g>
       <use xlink:href="#mb8efe77ecf" x="88.532127" y="678.196983" style="fill: #262626; stroke: #262626; stroke-width: 0.8"/>
      </g>
     </g>
     <g id="text_10">
      <!-- $\mathdefault{0.6}$ -->
      <g style="fill: #262626" transform="translate(38.88 690.650283) scale(0.36 -0.36)">
       <use xlink:href="#CMR17-30" transform="scale(0.996264)"/>
       <use xlink:href="#CMMI12-3a" transform="translate(45.690477 0) scale(0.996264)"/>
       <use xlink:href="#CMR17-36" transform="translate(72.787654 0) scale(0.996264)"/>
      </g>
     </g>
    </g>
    <g id="ytick_5">
     <g id="line2d_11">
      <g>
       <use xlink:href="#mb8efe77ecf" x="88.532127" y="678.183558" style="fill: #262626; stroke: #262626; stroke-width: 0.8"/>
      </g>
     </g>
     <g id="text_11">
      <!-- $\mathdefault{0.8}$ -->
      <g style="fill: #262626" transform="translate(38.88 690.636858) scale(0.36 -0.36)">
       <use xlink:href="#CMR17-30" transform="scale(0.996264)"/>
       <use xlink:href="#CMMI12-3a" transform="translate(45.690477 0) scale(0.996264)"/>
       <use xlink:href="#CMR17-38" transform="translate(72.787654 0) scale(0.996264)"/>
      </g>
     </g>
    </g>
    <g id="ytick_6">
     <g id="line2d_12">
      <g>
       <use xlink:href="#mb8efe77ecf" x="88.532127" y="678.170133" style="fill: #262626; stroke: #262626; stroke-width: 0.8"/>
      </g>
     </g>
     <g id="text_12">
      <!-- $\mathdefault{1.0}$ -->
      <g style="fill: #262626" transform="translate(38.88 690.623434) scale(0.36 -0.36)">
       <use xlink:href="#CMR17-31" transform="scale(0.996264)"/>
       <use xlink:href="#CMMI12-3a" transform="translate(45.690477 0) scale(0.996264)"/>
       <use xlink:href="#CMR17-30" transform="translate(72.787654 0) scale(0.996264)"/>
      </g>
     </g>
    </g>
    <g id="ytick_7">
     <g id="line2d_13">
      <g>
       <use xlink:href="#mb8efe77ecf" x="88.532127" y="678.156709" style="fill: #262626; stroke: #262626; stroke-width: 0.8"/>
      </g>
     </g>
     <g id="text_13">
      <!-- $\mathdefault{1.2}$ -->
      <g style="fill: #262626" transform="translate(38.88 690.610009) scale(0.36 -0.36)">
       <use xlink:href="#CMR17-31" transform="scale(0.996264)"/>
       <use xlink:href="#CMMI12-3a" transform="translate(45.690477 0) scale(0.996264)"/>
       <use xlink:href="#CMR17-32" transform="translate(72.787654 0) scale(0.996264)"/>
      </g>
     </g>
    </g>
   </g>
   <g id="line2d_14">
    <path d="M 88.532127 678.237256 
L 995.758673 678.237256 
L 995.758673 678.237256 
" clip-path="url(#p57586136f2)" style="fill: none; stroke: #1f77b4; stroke-width: 5; stroke-linecap: round"/>
   </g>
   <g id="line2d_15">
    <path d="M 88.532127 670.066466 
L 173.206605 671.18878 
L 269.977436 672.231627 
L 378.844622 673.176217 
L 505.856338 674.052114 
L 657.060762 674.863874 
L 838.506072 675.602352 
L 995.758673 676.093332 
L 995.758673 676.093332 
" clip-path="url(#p57586136f2)" style="fill: none; stroke: #ff7f0e; stroke-width: 5; stroke-linecap: round"/>
   </g>
   <g id="line2d_16">
    <path d="M 88.532127 658.013219 
L 118.773012 659.607278 
L 155.062074 661.271712 
L 191.351136 662.715083 
L 233.688375 664.173023 
L 282.07379 665.599476 
L 336.507383 666.961468 
L 396.989153 668.237644 
L 463.519099 669.416004 
L 542.1454 670.572913 
L 632.868055 671.665417 
L 735.687063 672.66727 
L 856.650602 673.607458 
L 995.758673 674.455559 
L 995.758673 674.455559 
" clip-path="url(#p57586136f2)" style="fill: none; stroke: #2ca02c; stroke-width: 5; stroke-linecap: round"/>
   </g>
   <g id="line2d_17">
    <path d="M 88.532127 639.899664 
L 100.628481 641.795401 
L 118.773012 644.350988 
L 136.917543 646.61337 
L 155.062074 648.629968 
L 173.206605 650.438483 
L 197.399313 652.577742 
L 221.592021 654.457293 
L 245.784728 656.121206 
L 276.025613 657.94988 
L 306.266498 659.547829 
L 342.55556 661.216933 
L 378.844622 662.6647 
L 421.181861 664.127269 
L 469.567276 665.558337 
L 524.000869 666.924747 
L 584.482639 668.205008 
L 651.012585 669.387061 
L 729.638886 670.547532 
L 820.361541 671.643308 
L 923.180549 672.648113 
L 995.758673 673.240232 
L 995.758673 673.240232 
" clip-path="url(#p57586136f2)" style="fill: none; stroke: #d62728; stroke-width: 5; stroke-linecap: round"/>
   </g>
   <g id="line2d_18">
    <path d="M 88.532127 612.177897 
L 94.580304 614.704406 
L 100.628481 617.059743 
L 106.676658 619.260661 
L 112.724835 621.321791 
L 124.821189 625.074934 
L 136.917543 628.404962 
L 149.013897 631.379434 
L 161.110251 634.052256 
L 173.206605 636.4669 
L 185.302959 638.658898 
L 197.399313 640.657542 
L 209.495667 642.487159 
L 227.640198 644.958505 
L 245.784728 647.151038 
L 263.929259 649.109054 
L 282.07379 650.867922 
L 306.266498 652.951968 
L 330.459206 654.78614 
L 354.651914 656.412276 
L 384.892799 658.202022 
L 415.133684 659.768128 
L 451.422745 661.406165 
L 487.711807 662.828757 
L 530.049046 664.267586 
L 578.434462 665.677043 
L 632.868055 667.024316 
L 693.349824 668.287978 
L 759.879771 669.455853 
L 838.506072 670.603478 
L 929.228726 671.688113 
L 995.758673 672.356401 
L 995.758673 672.356401 
" clip-path="url(#p57586136f2)" style="fill: none; stroke: #9467bd; stroke-width: 5; stroke-linecap: round"/>
   </g>
   <g id="line2d_19">
    <path d="M 88.532127 569.012524 
L 94.580304 575.329914 
L 100.628481 580.990211 
L 106.676658 586.091032 
L 112.724835 590.7115 
L 118.773012 594.916825 
L 124.821189 598.760298 
L 130.869366 602.286907 
L 136.917543 605.534332 
L 142.96572 608.534353 
L 149.013897 611.314285 
L 155.062074 613.897402 
L 161.110251 616.303947 
L 167.158428 618.551286 
L 173.206605 620.654792 
L 179.254782 622.627742 
L 191.351136 626.227704 
L 203.44749 629.429871 
L 215.543844 632.29656 
L 227.640198 634.877582 
L 239.736552 637.213486 
L 251.832905 639.337387 
L 263.929259 641.276775 
L 282.07379 643.888875 
L 300.218321 646.199058 
L 318.362852 648.256464 
L 336.507383 650.10004 
L 354.651914 651.761161 
L 378.844622 653.73559 
L 403.03733 655.478848 
L 433.278215 657.389711 
L 463.519099 659.055132 
L 499.808161 660.790381 
L 536.097223 662.291937 
L 578.434462 663.805476 
L 626.819878 665.283107 
L 681.25347 666.69095 
L 741.73524 668.007346 
L 808.265187 669.220467 
L 880.84331 670.325804 
L 965.517788 671.393563 
L 995.758673 671.727796 
L 995.758673 671.727796 
" clip-path="url(#p57586136f2)" style="fill: none; stroke: #8c564b; stroke-width: 5; stroke-linecap: round"/>
   </g>
   <g id="line2d_20">
    <path d="M 88.532127 501.771977 
L 94.580304 516.562785 
L 100.628481 529.373857 
L 106.676658 540.494907 
L 112.724835 550.161366 
L 118.773012 558.61967 
L 124.821189 566.074839 
L 130.869366 572.695847 
L 136.917543 578.61545 
L 142.96572 583.939363 
L 149.013897 588.753358 
L 155.062074 593.127228 
L 161.110251 597.11879 
L 167.158428 600.775864 
L 173.206605 604.138925 
L 179.254782 607.241906 
L 185.302959 610.113848 
L 191.351136 612.779575 
L 197.399313 615.260501 
L 203.44749 617.575074 
L 209.495667 619.739557 
L 215.543844 621.767985 
L 227.640198 625.464769 
L 239.736552 628.748379 
L 251.832905 631.684112 
L 263.929259 634.324303 
L 276.025613 636.711134 
L 288.121967 638.87932 
L 300.218321 640.857345 
L 312.314675 642.669052 
L 330.459206 645.117615 
L 348.603737 647.29121 
L 366.748268 649.233387 
L 384.892799 650.978837 
L 409.085507 653.047994 
L 433.278215 654.869942 
L 457.470922 656.485922 
L 487.711807 658.265227 
L 517.952692 659.822843 
L 554.241754 661.452604 
L 590.530816 662.868524 
L 632.868055 664.301084 
L 681.25347 665.70487 
L 735.687063 667.047162 
L 796.168833 668.306536 
L 862.698779 669.470788 
L 941.32508 670.615165 
L 995.758673 671.290742 
L 995.758673 671.290742 
" clip-path="url(#p57586136f2)" style="fill: none; stroke: #e377c2; stroke-width: 5; stroke-linecap: round"/>
   </g>
   <g id="line2d_21">
    <path d="M 88.532127 410.994624 
L 94.580304 438.052834 
L 100.628481 461.410254 
L 106.676658 481.615281 
L 112.724835 499.094178 
L 118.773012 514.231839 
L 124.821189 527.351038 
L 130.869366 538.732373 
L 136.917543 548.62339 
L 142.96572 557.262439 
L 149.013897 564.869156 
L 155.062074 571.617916 
L 161.110251 577.646261 
L 167.158428 583.063397 
L 173.206605 587.95796 
L 179.254782 592.401869 
L 185.302959 596.454612 
L 191.351136 600.165582 
L 197.399313 603.576223 
L 203.44749 606.721409 
L 209.495667 609.631063 
L 215.543844 612.330548 
L 221.592021 614.841757 
L 227.640198 617.183721 
L 233.688375 619.372939 
L 239.736552 621.423861 
L 251.832905 625.159837 
L 263.929259 628.476309 
L 276.025613 631.439802 
L 288.121967 634.103712 
L 300.218321 636.510988 
L 312.314675 638.696861 
L 324.411029 640.690356 
L 336.507383 642.515612 
L 354.651914 644.981587 
L 372.796445 647.169799 
L 390.940976 649.124329 
L 409.085507 650.88035 
L 433.278215 652.961358 
L 457.470922 654.793127 
L 481.66363 656.417361 
L 511.904515 658.205228 
L 542.1454 659.769892 
L 578.434462 661.406601 
L 614.723524 662.828188 
L 657.060762 664.266141 
L 705.446178 665.674873 
L 759.879771 667.021581 
L 820.361541 668.284829 
L 886.891487 669.452424 
L 965.517788 670.599871 
L 995.758673 670.986603 
L 995.758673 670.986603 
" clip-path="url(#p57586136f2)" style="fill: none; stroke: #7f7f7f; stroke-width: 5; stroke-linecap: round"/>
   </g>
   <g id="line2d_22">
    <path d="M 88.532127 305.523553 
L 94.580304 347.113368 
L 100.628481 382.91731 
L 106.676658 413.805296 
L 112.724835 440.456826 
L 118.773012 463.482023 
L 124.821189 483.391106 
L 130.869366 500.620578 
L 136.917543 515.538158 
L 142.96572 528.477825 
L 149.013897 539.708578 
L 155.062074 549.470497 
L 161.110251 558.003059 
L 167.158428 565.521917 
L 173.206605 572.197809 
L 179.254782 578.164688 
L 185.302959 583.529788 
L 191.351136 588.379674 
L 197.399313 592.785108 
L 203.44749 596.804295 
L 209.495667 600.486011 
L 215.543844 603.870874 
L 221.592021 606.993288 
L 227.640198 609.882634 
L 233.688375 612.564004 
L 239.736552 615.059044 
L 245.784728 617.386419 
L 251.832905 619.562439 
L 257.881082 621.601418 
L 269.977436 625.316626 
L 282.07379 628.615701 
L 294.170144 631.564534 
L 306.266498 634.215937 
L 318.362852 636.612477 
L 330.459206 638.789067 
L 342.55556 640.774439 
L 354.651914 642.592613 
L 372.796445 645.049469 
L 390.940976 647.230092 
L 409.085507 649.178189 
L 427.230038 650.928733 
L 451.422745 653.003603 
L 475.615453 654.830313 
L 499.808161 656.450313 
L 530.049046 658.233799 
L 560.289931 659.794875 
L 596.578993 661.428055 
L 632.868055 662.84679 
L 675.205293 664.282036 
L 723.590709 665.688311 
L 778.024302 667.032845 
L 838.506072 668.294202 
L 905.036018 669.460178 
L 983.662319 670.606159 
L 995.758673 670.763945 
L 995.758673 670.763945 
" clip-path="url(#p57586136f2)" style="fill: none; stroke: #bcbd22; stroke-width: 5; stroke-linecap: round"/>
   </g>
   <g id="line2d_23">
    <path d="M 88.532127 190.669408 
L 94.580304 248.319212 
L 100.628481 297.847079 
L 106.676658 340.486877 
L 112.724835 377.20363 
L 118.773012 408.860197 
L 124.821189 436.177231 
L 130.869366 459.770118 
L 136.917543 480.156956 
L 142.96572 497.807003 
L 149.013897 513.100307 
L 155.062074 526.361411 
L 161.110251 537.867474 
L 167.158428 547.86595 
L 173.206605 556.594225 
L 179.254782 564.275134 
L 185.302959 571.08651 
L 191.351136 577.167978 
L 197.399313 582.630835 
L 203.44749 587.564643 
L 209.495667 592.042842 
L 215.543844 596.125548 
L 221.592021 599.862811 
L 227.640198 603.296688 
L 233.688375 606.462606 
L 239.736552 609.390714 
L 245.784728 612.106717 
L 251.832905 614.632809 
L 257.881082 616.988249 
L 263.929259 619.189645 
L 269.977436 621.251579 
L 282.07379 625.006853 
L 294.170144 628.339423 
L 306.266498 631.316685 
L 318.362852 633.992284 
L 330.459206 636.409688 
L 342.55556 638.604309 
L 354.651914 640.605456 
L 366.748268 642.437451 
L 384.892799 644.912083 
L 403.03733 647.107574 
L 421.181861 649.068264 
L 439.326392 650.829565 
L 463.519099 652.916534 
L 487.711807 654.753218 
L 511.904515 656.381598 
L 542.1454 658.173791 
L 572.386285 659.74203 
L 608.675347 661.38225 
L 644.964408 662.80672 
L 687.301647 664.24742 
L 735.687063 665.658692 
L 790.120656 667.007672 
L 850.602425 668.272922 
L 917.132372 669.442255 
L 995.758673 670.591308 
L 995.758673 670.591308 
" clip-path="url(#p57586136f2)" style="fill: none; stroke: #17becf; stroke-width: 5; stroke-linecap: round"/>
   </g>
   <g id="line2d_24">
    <path d="M 88.532127 69.325584 
L 94.580304 144.135295 
L 100.628481 208.300096 
L 106.676658 263.450508 
L 112.724835 310.862995 
L 118.773012 351.675233 
L 124.821189 386.836415 
L 130.869366 417.155732 
L 136.917543 443.313483 
L 142.96572 465.924 
L 149.013897 485.484857 
L 155.062074 502.420268 
L 161.110251 517.092189 
L 167.158428 529.819954 
L 173.206605 540.872115 
L 179.254782 550.482889 
L 185.302959 558.889769 
L 191.351136 566.305065 
L 197.399313 572.894372 
L 203.44749 578.788121 
L 209.495667 584.091083 
L 215.543844 588.887608 
L 221.592021 593.246792 
L 227.640198 597.225834 
L 233.688375 600.872295 
L 239.736552 604.226159 
L 245.784728 607.321146 
L 251.832905 610.186063 
L 257.881082 612.845659 
L 263.929259 615.321109 
L 269.977436 617.63084 
L 276.025613 619.790898 
L 282.07379 621.815464 
L 294.170144 625.505519 
L 306.266498 628.783601 
L 318.362852 631.71472 
L 330.459206 634.351012 
L 342.55556 636.734566 
L 354.651914 638.899921 
L 366.748268 640.875532 
L 378.844622 642.685128 
L 396.989153 645.130997 
L 415.133684 647.302422 
L 433.278215 649.242775 
L 451.422745 650.9867 
L 475.615453 653.054196 
L 499.808161 654.87481 
L 524.000869 656.489706 
L 554.241754 658.267932 
L 584.482639 659.824674 
L 620.771701 661.453629 
L 657.060762 662.868937 
L 699.398001 664.300952 
L 747.783417 665.704271 
L 802.21701 667.046192 
L 862.698779 668.305291 
L 929.228726 669.46934 
L 995.758673 670.451457 
L 995.758673 670.451457 
" clip-path="url(#p57586136f2)" style="fill: none; stroke: #17becf; stroke-width: 5; stroke-linecap: round"/>
   </g>
   <g id="patch_3">
    <path d="M 88.532127 678.237256 
L 88.532127 38.88 
" style="fill: none; stroke: #262626; stroke-width: 0.8; stroke-linejoin: miter; stroke-linecap: square"/>
   </g>
   <g id="patch_4">
    <path d="M 88.532127 678.237256 
L 1041.12 678.237256 
" style="fill: none; stroke: #262626; stroke-width: 0.8; stroke-linejoin: miter; stroke-linecap: square"/>
   </g>
  </g>
 </g>
 <defs>
  <clipPath id="p57586136f2">
   <rect x="88.532127" y="38.88" width="952.587873" height="639.357256"/>
  </clipPath>
 </defs>
</svg>
