<?xml version="1.0" encoding="utf-8" standalone="no"?>
<!DOCTYPE svg PUBLIC "-//W3C//DTD SVG 1.1//EN"
  "http://www.w3.org/Graphics/SVG/1.1/DTD/svg11.dtd">
<svg xmlns:xlink="http://www.w3.org/1999/xlink" width="1080pt" height="756pt" viewBox="0 0 1080 756" xmlns="http://www.w3.org/2000/svg" version="1.1">
 <metadata>
  <rdf:RDF xmlns:dc="http://purl.org/dc/elements/1.1/" xmlns:cc="http://creativecommons.org/ns#" xmlns:rdf="http://www.w3.org/1999/02/22-rdf-syntax-ns#">
   <cc:Work>
    <dc:type rdf:resource="http://purl.org/dc/dcmitype/StillImage"/>
    <dc:date>2024-07-31T08:53:31.040959</dc:date>
    <dc:format>image/svg+xml</dc:format>
    <dc:creator>
     <cc:Agent>
      <dc:title>Matplotlib v3.9.0, https://matplotlib.org/</dc:title>
     </cc:Agent>
    </dc:creator>
   </cc:Work>
  </rdf:RDF>
 </metadata>
 <defs>
  <style type="text/css">*{stroke-linejoin: round; stroke-linecap: butt}</style>
 </defs>
 <g id="figure_1">
  <g id="patch_1">
   <path d="M 0 756 
L 1080 756 
L 1080 0 
L 0 0 
z
" style="fill: #ffffff"/>
  </g>
  <g id="axes_1">
   <g id="patch_2">
    <path d="M 88.532127 678.237256 
L 1041.12 678.237256 
L 1041.12 38.88 
L 88.532127 38.88 
z
" style="fill: #ffffff"/>
   </g>
   <g id="matplotlib.axis_1">
    <g id="xtick_1">
     <g id="line2d_1">
      <defs>
       <path id="m264cf0ce79" d="M 0 0 
L 0 3.5 
" style="stroke: #262626; stroke-width: 0.8"/>
      </defs>
      <g>
       <use xlink:href="#m264cf0ce79" x="88.532127" y="678.237256" style="fill: #262626; stroke: #262626; stroke-width: 0.8"/>
      </g>
     </g>
     <g id="text_1">
      <!-- $\mathdefault{0.0}$ -->
      <g style="fill: #262626" transform="translate(67.206064 710.143856) scale(0.36 -0.36)">
       <defs>
        <path id="CMR17-30" d="M 2688 2025 
C 2688 2416 2682 3080 2413 3591 
C 2176 4039 1798 4198 1466 4198 
C 1158 4198 768 4058 525 3597 
C 269 3118 243 2524 243 2025 
C 243 1661 250 1106 448 619 
C 723 -39 1216 -128 1466 -128 
C 1760 -128 2208 -7 2470 600 
C 2662 1042 2688 1559 2688 2025 
z
M 1466 -26 
C 1056 -26 813 325 723 812 
C 653 1188 653 1738 653 2096 
C 653 2588 653 2997 736 3387 
C 858 3929 1216 4096 1466 4096 
C 1728 4096 2067 3923 2189 3400 
C 2272 3036 2278 2607 2278 2096 
C 2278 1680 2278 1169 2202 792 
C 2067 95 1690 -26 1466 -26 
z
" transform="scale(0.015625)"/>
        <path id="CMMI12-3a" d="M 1178 307 
C 1178 492 1024 619 870 619 
C 685 619 557 466 557 313 
C 557 128 710 0 864 0 
C 1050 0 1178 153 1178 307 
z
" transform="scale(0.015625)"/>
       </defs>
       <use xlink:href="#CMR17-30" transform="scale(0.996264)"/>
       <use xlink:href="#CMMI12-3a" transform="translate(45.690477 0) scale(0.996264)"/>
       <use xlink:href="#CMR17-30" transform="translate(72.787654 0) scale(0.996264)"/>
      </g>
     </g>
    </g>
    <g id="xtick_2">
     <g id="line2d_2">
      <g>
       <use xlink:href="#m264cf0ce79" x="269.977436" y="678.237256" style="fill: #262626; stroke: #262626; stroke-width: 0.8"/>
      </g>
     </g>
     <g id="text_2">
      <!-- $\mathdefault{0.2}$ -->
      <g style="fill: #262626" transform="translate(248.651373 710.143856) scale(0.36 -0.36)">
       <defs>
        <path id="CMR17-32" d="M 2669 989 
L 2554 989 
C 2490 536 2438 459 2413 420 
C 2381 369 1920 369 1830 369 
L 602 369 
C 832 619 1280 1072 1824 1597 
C 2214 1967 2669 2402 2669 3035 
C 2669 3790 2067 4224 1395 4224 
C 691 4224 262 3604 262 3030 
C 262 2780 448 2748 525 2748 
C 589 2748 781 2787 781 3010 
C 781 3207 614 3264 525 3264 
C 486 3264 448 3258 422 3245 
C 544 3790 915 4058 1306 4058 
C 1862 4058 2227 3617 2227 3035 
C 2227 2479 1901 2000 1536 1584 
L 262 146 
L 262 0 
L 2515 0 
L 2669 989 
z
" transform="scale(0.015625)"/>
       </defs>
       <use xlink:href="#CMR17-30" transform="scale(0.996264)"/>
       <use xlink:href="#CMMI12-3a" transform="translate(45.690477 0) scale(0.996264)"/>
       <use xlink:href="#CMR17-32" transform="translate(72.787654 0) scale(0.996264)"/>
      </g>
     </g>
    </g>
    <g id="xtick_3">
     <g id="line2d_3">
      <g>
       <use xlink:href="#m264cf0ce79" x="451.422745" y="678.237256" style="fill: #262626; stroke: #262626; stroke-width: 0.8"/>
      </g>
     </g>
     <g id="text_3">
      <!-- $\mathdefault{0.4}$ -->
      <g style="fill: #262626" transform="translate(430.096682 710.143856) scale(0.36 -0.36)">
       <defs>
        <path id="CMR17-34" d="M 2150 4122 
C 2150 4256 2144 4256 2029 4256 
L 128 1254 
L 128 1088 
L 1779 1088 
L 1779 457 
C 1779 224 1766 160 1318 160 
L 1197 160 
L 1197 0 
C 1402 0 1747 0 1965 0 
C 2182 0 2528 0 2733 0 
L 2733 160 
L 2611 160 
C 2163 160 2150 224 2150 457 
L 2150 1088 
L 2803 1088 
L 2803 1254 
L 2150 1254 
L 2150 4122 
z
M 1798 3703 
L 1798 1254 
L 256 1254 
L 1798 3703 
z
" transform="scale(0.015625)"/>
       </defs>
       <use xlink:href="#CMR17-30" transform="scale(0.996264)"/>
       <use xlink:href="#CMMI12-3a" transform="translate(45.690477 0) scale(0.996264)"/>
       <use xlink:href="#CMR17-34" transform="translate(72.787654 0) scale(0.996264)"/>
      </g>
     </g>
    </g>
    <g id="xtick_4">
     <g id="line2d_4">
      <g>
       <use xlink:href="#m264cf0ce79" x="632.868055" y="678.237256" style="fill: #262626; stroke: #262626; stroke-width: 0.8"/>
      </g>
     </g>
     <g id="text_4">
      <!-- $\mathdefault{0.6}$ -->
      <g style="fill: #262626" transform="translate(611.541991 710.143856) scale(0.36 -0.36)">
       <defs>
        <path id="CMR17-36" d="M 678 2176 
C 678 3690 1395 4032 1811 4032 
C 1946 4032 2272 4009 2400 3776 
C 2298 3776 2106 3776 2106 3553 
C 2106 3381 2246 3323 2336 3323 
C 2394 3323 2566 3348 2566 3560 
C 2566 3954 2246 4179 1805 4179 
C 1043 4179 243 3390 243 1984 
C 243 253 966 -128 1478 -128 
C 2099 -128 2688 427 2688 1283 
C 2688 2081 2170 2662 1517 2662 
C 1126 2662 838 2407 678 1960 
L 678 2176 
z
M 1478 25 
C 691 25 691 1200 691 1436 
C 691 1896 909 2560 1504 2560 
C 1613 2560 1926 2560 2138 2120 
C 2253 1870 2253 1609 2253 1289 
C 2253 944 2253 690 2118 434 
C 1978 171 1773 25 1478 25 
z
" transform="scale(0.015625)"/>
       </defs>
       <use xlink:href="#CMR17-30" transform="scale(0.996264)"/>
       <use xlink:href="#CMMI12-3a" transform="translate(45.690477 0) scale(0.996264)"/>
       <use xlink:href="#CMR17-36" transform="translate(72.787654 0) scale(0.996264)"/>
      </g>
     </g>
    </g>
    <g id="xtick_5">
     <g id="line2d_5">
      <g>
       <use xlink:href="#m264cf0ce79" x="814.313364" y="678.237256" style="fill: #262626; stroke: #262626; stroke-width: 0.8"/>
      </g>
     </g>
     <g id="text_5">
      <!-- $\mathdefault{0.8}$ -->
      <g style="fill: #262626" transform="translate(792.9873 710.143856) scale(0.36 -0.36)">
       <defs>
        <path id="CMR17-38" d="M 1741 2264 
C 2144 2467 2554 2773 2554 3263 
C 2554 3841 1990 4179 1472 4179 
C 890 4179 378 3759 378 3180 
C 378 3021 416 2747 666 2505 
C 730 2442 998 2251 1171 2130 
C 883 1983 211 1634 211 934 
C 211 279 838 -128 1459 -128 
C 2144 -128 2720 362 2720 1010 
C 2720 1590 2330 1857 2074 2029 
L 1741 2264 
z
M 902 2822 
C 851 2854 595 3051 595 3351 
C 595 3739 998 4032 1459 4032 
C 1965 4032 2336 3676 2336 3262 
C 2336 2669 1670 2331 1638 2331 
C 1632 2331 1626 2331 1574 2370 
L 902 2822 
z
M 2080 1519 
C 2176 1449 2483 1240 2483 851 
C 2483 381 2010 25 1472 25 
C 890 25 448 438 448 940 
C 448 1443 838 1862 1280 2060 
L 2080 1519 
z
" transform="scale(0.015625)"/>
       </defs>
       <use xlink:href="#CMR17-30" transform="scale(0.996264)"/>
       <use xlink:href="#CMMI12-3a" transform="translate(45.690477 0) scale(0.996264)"/>
       <use xlink:href="#CMR17-38" transform="translate(72.787654 0) scale(0.996264)"/>
      </g>
     </g>
    </g>
    <g id="xtick_6">
     <g id="line2d_6">
      <g>
       <use xlink:href="#m264cf0ce79" x="995.758673" y="678.237256" style="fill: #262626; stroke: #262626; stroke-width: 0.8"/>
      </g>
     </g>
     <g id="text_6">
      <!-- $\mathdefault{1.0}$ -->
      <g style="fill: #262626" transform="translate(974.432609 710.143856) scale(0.36 -0.36)">
       <defs>
        <path id="CMR17-31" d="M 1702 4058 
C 1702 4192 1696 4192 1606 4192 
C 1357 3916 979 3827 621 3827 
C 602 3827 570 3827 563 3808 
C 557 3795 557 3782 557 3648 
C 755 3648 1088 3686 1344 3839 
L 1344 461 
C 1344 236 1331 160 781 160 
L 589 160 
L 589 0 
C 896 0 1216 0 1523 0 
C 1830 0 2150 0 2458 0 
L 2458 160 
L 2266 160 
C 1715 160 1702 230 1702 458 
L 1702 4058 
z
" transform="scale(0.015625)"/>
       </defs>
       <use xlink:href="#CMR17-31" transform="scale(0.996264)"/>
       <use xlink:href="#CMMI12-3a" transform="translate(45.690477 0) scale(0.996264)"/>
       <use xlink:href="#CMR17-30" transform="translate(72.787654 0) scale(0.996264)"/>
      </g>
     </g>
    </g>
   </g>
   <g id="matplotlib.axis_2">
    <g id="ytick_1">
     <g id="line2d_7">
      <defs>
       <path id="mfaeb451f49" d="M 0 0 
L -3.5 0 
" style="stroke: #262626; stroke-width: 0.8"/>
      </defs>
      <g>
       <use xlink:href="#mfaeb451f49" x="88.532127" y="678.237256" style="fill: #262626; stroke: #262626; stroke-width: 0.8"/>
      </g>
     </g>
     <g id="text_7">
      <!-- $\mathdefault{0.0}$ -->
      <g style="fill: #262626" transform="translate(38.88 690.690556) scale(0.36 -0.36)">
       <use xlink:href="#CMR17-30" transform="scale(0.996264)"/>
       <use xlink:href="#CMMI12-3a" transform="translate(45.690477 0) scale(0.996264)"/>
       <use xlink:href="#CMR17-30" transform="translate(72.787654 0) scale(0.996264)"/>
      </g>
     </g>
    </g>
    <g id="ytick_2">
     <g id="line2d_8">
      <g>
       <use xlink:href="#mfaeb451f49" x="88.532127" y="678.23008" style="fill: #262626; stroke: #262626; stroke-width: 0.8"/>
      </g>
     </g>
     <g id="text_8">
      <!-- $\mathdefault{0.2}$ -->
      <g style="fill: #262626" transform="translate(38.88 690.68338) scale(0.36 -0.36)">
       <use xlink:href="#CMR17-30" transform="scale(0.996264)"/>
       <use xlink:href="#CMMI12-3a" transform="translate(45.690477 0) scale(0.996264)"/>
       <use xlink:href="#CMR17-32" transform="translate(72.787654 0) scale(0.996264)"/>
      </g>
     </g>
    </g>
    <g id="ytick_3">
     <g id="line2d_9">
      <g>
       <use xlink:href="#mfaeb451f49" x="88.532127" y="678.222904" style="fill: #262626; stroke: #262626; stroke-width: 0.8"/>
      </g>
     </g>
     <g id="text_9">
      <!-- $\mathdefault{0.4}$ -->
      <g style="fill: #262626" transform="translate(38.88 690.676204) scale(0.36 -0.36)">
       <use xlink:href="#CMR17-30" transform="scale(0.996264)"/>
       <use xlink:href="#CMMI12-3a" transform="translate(45.690477 0) scale(0.996264)"/>
       <use xlink:href="#CMR17-34" transform="translate(72.787654 0) scale(0.996264)"/>
      </g>
     </g>
    </g>
    <g id="ytick_4">
     <g id="line2d_10">
      <g>
       <use xlink:href="#mfaeb451f49" x="88.532127" y="678.215727" style="fill: #262626; stroke: #262626; stroke-width: 0.8"/>
      </g>
     </g>
     <g id="text_10">
      <!-- $\mathdefault{0.6}$ -->
      <g style="fill: #262626" transform="translate(38.88 690.669027) scale(0.36 -0.36)">
       <use xlink:href="#CMR17-30" transform="scale(0.996264)"/>
       <use xlink:href="#CMMI12-3a" transform="translate(45.690477 0) scale(0.996264)"/>
       <use xlink:href="#CMR17-36" transform="translate(72.787654 0) scale(0.996264)"/>
      </g>
     </g>
    </g>
    <g id="ytick_5">
     <g id="line2d_11">
      <g>
       <use xlink:href="#mfaeb451f49" x="88.532127" y="678.208551" style="fill: #262626; stroke: #262626; stroke-width: 0.8"/>
      </g>
     </g>
     <g id="text_11">
      <!-- $\mathdefault{0.8}$ -->
      <g style="fill: #262626" transform="translate(38.88 690.661851) scale(0.36 -0.36)">
       <use xlink:href="#CMR17-30" transform="scale(0.996264)"/>
       <use xlink:href="#CMMI12-3a" transform="translate(45.690477 0) scale(0.996264)"/>
       <use xlink:href="#CMR17-38" transform="translate(72.787654 0) scale(0.996264)"/>
      </g>
     </g>
    </g>
    <g id="ytick_6">
     <g id="line2d_12">
      <g>
       <use xlink:href="#mfaeb451f49" x="88.532127" y="678.201375" style="fill: #262626; stroke: #262626; stroke-width: 0.8"/>
      </g>
     </g>
     <g id="text_12">
      <!-- $\mathdefault{1.0}$ -->
      <g style="fill: #262626" transform="translate(38.88 690.654675) scale(0.36 -0.36)">
       <use xlink:href="#CMR17-31" transform="scale(0.996264)"/>
       <use xlink:href="#CMMI12-3a" transform="translate(45.690477 0) scale(0.996264)"/>
       <use xlink:href="#CMR17-30" transform="translate(72.787654 0) scale(0.996264)"/>
      </g>
     </g>
    </g>
    <g id="ytick_7">
     <g id="line2d_13">
      <g>
       <use xlink:href="#mfaeb451f49" x="88.532127" y="678.194198" style="fill: #262626; stroke: #262626; stroke-width: 0.8"/>
      </g>
     </g>
     <g id="text_13">
      <!-- $\mathdefault{1.2}$ -->
      <g style="fill: #262626" transform="translate(38.88 690.647499) scale(0.36 -0.36)">
       <use xlink:href="#CMR17-31" transform="scale(0.996264)"/>
       <use xlink:href="#CMMI12-3a" transform="translate(45.690477 0) scale(0.996264)"/>
       <use xlink:href="#CMR17-32" transform="translate(72.787654 0) scale(0.996264)"/>
      </g>
     </g>
    </g>
   </g>
   <g id="line2d_14">
    <path d="M 88.532127 678.237256 
L 995.758673 678.237256 
L 995.758673 678.237256 
" clip-path="url(#pc6abf7a435)" style="fill: none; stroke: #1f77b4; stroke-width: 5; stroke-linecap: round"/>
   </g>
   <g id="line2d_15">
    <path d="M 88.532127 673.378206 
L 173.206605 674.188333 
L 276.025613 674.931261 
L 403.03733 675.60864 
L 560.289931 676.211174 
L 759.879771 676.742321 
L 995.758673 677.165882 
L 995.758673 677.165882 
" clip-path="url(#pc6abf7a435)" style="fill: none; stroke: #ff7f0e; stroke-width: 5; stroke-linecap: round"/>
   </g>
   <g id="line2d_16">
    <path d="M 88.532127 664.522842 
L 112.724835 665.832109 
L 142.96572 667.190215 
L 173.206605 668.313394 
L 209.495667 669.428358 
L 251.832905 670.489131 
L 300.218321 671.468733 
L 354.651914 672.354623 
L 421.181861 673.214107 
L 499.808161 674.006154 
L 596.578993 674.751927 
L 717.542532 675.44616 
L 868.746956 676.073201 
L 995.758673 676.463694 
L 995.758673 676.463694 
" clip-path="url(#pc6abf7a435)" style="fill: none; stroke: #2ca02c; stroke-width: 5; stroke-linecap: round"/>
   </g>
   <g id="line2d_17">
    <path d="M 88.532127 647.70855 
L 94.580304 649.156834 
L 106.676658 651.6987 
L 118.773012 653.857282 
L 130.869366 655.713364 
L 142.96572 657.326463 
L 155.062074 658.741364 
L 173.206605 660.56517 
L 191.351136 662.104926 
L 209.495667 663.421992 
L 233.688375 664.907494 
L 257.881082 666.152269 
L 288.121967 667.450125 
L 318.362852 668.528438 
L 354.651914 669.603164 
L 396.989153 670.629571 
L 445.374568 671.580714 
L 505.856338 672.52855 
L 578.434462 673.415668 
L 663.108939 674.212068 
L 765.927948 674.94494 
L 892.939664 675.615095 
L 995.758673 676.028429 
L 995.758673 676.028429 
" clip-path="url(#pc6abf7a435)" style="fill: none; stroke: #d62728; stroke-width: 5; stroke-linecap: round"/>
   </g>
   <g id="line2d_18">
    <path d="M 88.532127 614.544109 
L 94.580304 620.154624 
L 100.628481 624.881056 
L 106.676658 628.918017 
L 112.724835 632.406979 
L 118.773012 635.452954 
L 124.821189 638.135206 
L 130.869366 640.51571 
L 136.917543 642.642559 
L 142.96572 644.554256 
L 149.013897 646.282107 
L 155.062074 647.851073 
L 161.110251 649.282379 
L 173.206605 651.798383 
L 185.302959 653.938415 
L 197.399313 655.780741 
L 209.495667 657.383356 
L 221.592021 658.790017 
L 239.736552 660.604393 
L 257.881082 662.1372 
L 276.025613 663.448948 
L 300.218321 664.929125 
L 324.411029 666.16988 
L 354.651914 667.464016 
L 384.892799 668.539573 
L 421.181861 669.611842 
L 463.519099 670.636161 
L 511.904515 671.585592 
L 572.386285 672.53194 
L 644.964408 673.417866 
L 729.638886 674.213363 
L 832.457895 674.945548 
L 959.469611 675.615198 
L 995.758673 675.771951 
L 995.758673 675.771951 
" clip-path="url(#pc6abf7a435)" style="fill: none; stroke: #9467bd; stroke-width: 5; stroke-linecap: round"/>
   </g>
   <g id="line2d_19">
    <path d="M 88.532127 552.630375 
L 94.580304 569.819102 
L 100.628481 583.685868 
L 106.676658 594.912954 
L 112.724835 604.019638 
L 118.773012 611.432017 
L 124.821189 617.536383 
L 130.869366 622.64912 
L 136.917543 626.993667 
L 142.96572 630.731167 
L 149.013897 633.980989 
L 155.062074 636.832158 
L 161.110251 639.354252 
L 167.158428 641.601083 
L 173.206605 643.615103 
L 179.254782 645.430919 
L 185.302959 647.076255 
L 191.351136 648.574075 
L 203.44749 651.199762 
L 215.543844 653.425895 
L 227.640198 655.337031 
L 239.736552 656.995417 
L 251.832905 658.44804 
L 263.929259 659.730756 
L 282.07379 661.396064 
L 300.218321 662.812377 
L 318.362852 664.031434 
L 342.55556 665.414816 
L 366.748268 666.58088 
L 396.989153 667.803383 
L 433.278215 669.008618 
L 475.615453 670.147497 
L 524.000869 671.192427 
L 578.434462 672.131769 
L 644.964408 673.037968 
L 723.590709 673.868596 
L 820.361541 674.646803 
L 935.276903 675.336858 
L 995.758673 675.627636 
L 995.758673 675.627636 
" clip-path="url(#pc6abf7a435)" style="fill: none; stroke: #8c564b; stroke-width: 5; stroke-linecap: round"/>
   </g>
   <g id="line2d_20">
    <path d="M 88.532127 469.647589 
L 94.580304 502.931696 
L 100.628481 529.673056 
L 106.676658 551.237298 
L 112.724835 568.652126 
L 118.773012 582.729115 
L 124.821189 594.125476 
L 130.869366 603.374829 
L 136.917543 610.900217 
L 142.96572 617.090264 
L 149.013897 622.269864 
L 155.062074 626.667 
L 161.110251 630.447251 
L 167.158428 633.731875 
L 173.206605 636.611973 
L 179.254782 639.158223 
L 185.302959 641.425279 
L 191.351136 643.456716 
L 197.399313 645.287333 
L 203.44749 646.945531 
L 209.495667 648.454568 
L 221.592021 651.098686 
L 233.688375 653.339189 
L 245.784728 655.261858 
L 257.881082 656.929603 
L 269.977436 658.389887 
L 282.07379 659.678993 
L 300.218321 661.352016 
L 318.362852 662.774438 
L 336.507383 663.998387 
L 360.700091 665.386938 
L 384.892799 666.557026 
L 415.133684 667.783433 
L 451.422745 668.992173 
L 493.759984 670.134086 
L 542.1454 671.18155 
L 596.578993 672.122961 
L 663.108939 673.030966 
L 741.73524 673.863088 
L 838.506072 674.642558 
L 953.421434 675.333616 
L 995.758673 675.541788 
L 995.758673 675.541788 
" clip-path="url(#pc6abf7a435)" style="fill: none; stroke: #e377c2; stroke-width: 5; stroke-linecap: round"/>
   </g>
   <g id="line2d_21">
    <path d="M 88.532127 376.392099 
L 94.580304 428.01291 
L 100.628481 469.371202 
L 106.676658 502.62954 
L 112.724835 529.413854 
L 118.773012 551.005106 
L 124.821189 568.43738 
L 130.869366 582.548196 
L 136.917543 593.997896 
L 142.96572 603.269851 
L 149.013897 610.811681 
L 155.062074 617.014677 
L 161.110251 622.204628 
L 167.158428 626.61093 
L 173.206605 630.398139 
L 179.254782 633.68853 
L 185.302959 636.573581 
L 191.351136 639.123896 
L 197.399313 641.394392 
L 203.44749 643.428757 
L 209.495667 645.261996 
L 215.543844 646.922343 
L 221.592021 648.433277 
L 227.640198 649.813944 
L 239.736552 652.246525 
L 251.832905 654.321278 
L 263.929259 656.111468 
L 276.025613 657.671794 
L 288.121967 659.0437 
L 306.266498 660.816525 
L 324.411029 662.316984 
L 342.55556 663.603179 
L 366.748268 665.056799 
L 390.940976 666.277199 
L 421.181861 667.551911 
L 451.422745 668.612752 
L 487.711807 669.671653 
L 530.049046 670.684407 
L 578.434462 671.624169 
L 638.916232 672.561884 
L 711.494355 673.440639 
L 796.168833 674.230455 
L 898.987841 674.95804 
L 995.758673 675.483651 
L 995.758673 675.483651 
" clip-path="url(#pc6abf7a435)" style="fill: none; stroke: #7f7f7f; stroke-width: 5; stroke-linecap: round"/>
   </g>
   <g id="line2d_22">
    <path d="M 88.532127 277.421986 
L 94.580304 348.694451 
L 100.628481 405.680647 
L 106.676658 451.412136 
L 112.724835 488.166497 
L 118.773012 517.734919 
L 124.821189 541.559961 
L 130.869366 560.80735 
L 136.917543 576.397326 
L 142.96572 589.001059 
L 149.013897 599.217434 
L 155.062074 607.509727 
L 161.110251 614.284517 
L 167.158428 619.909732 
L 173.206605 624.654498 
L 179.254782 628.710952 
L 185.302959 632.218419 
L 191.351136 635.281335 
L 197.399313 637.979007 
L 203.44749 640.373121 
L 209.495667 642.51217 
L 215.543844 644.434639 
L 221.592021 646.171973 
L 227.640198 647.749512 
L 233.688375 649.188338 
L 245.784728 651.717125 
L 257.881082 653.867405 
L 269.977436 655.718129 
L 282.07379 657.32762 
L 294.170144 658.740051 
L 312.314675 660.561443 
L 330.459206 662.099769 
L 348.603737 663.415942 
L 372.796445 664.900853 
L 396.989153 666.145307 
L 427.230038 667.44306 
L 457.470922 668.521427 
L 493.759984 669.596327 
L 536.097223 670.623001 
L 584.482639 671.574468 
L 644.964408 672.522707 
L 717.542532 673.410274 
L 802.21701 674.207143 
L 905.036018 674.940509 
L 995.758673 675.44036 
L 995.758673 675.44036 
" clip-path="url(#pc6abf7a435)" style="fill: none; stroke: #bcbd22; stroke-width: 5; stroke-linecap: round"/>
   </g>
   <g id="line2d_23">
    <path d="M 88.532127 174.727061 
L 94.580304 266.541848 
L 100.628481 339.83464 
L 106.676658 398.557333 
L 112.724835 445.6771 
L 118.773012 483.52418 
L 124.821189 513.971727 
L 130.869366 538.530402 
L 136.917543 558.390807 
L 142.96572 574.422848 
L 149.013897 587.400046 
L 155.062074 597.917638 
L 161.110251 606.454359 
L 167.158428 613.416585 
L 173.206605 619.182858 
L 179.254782 624.037437 
L 185.302959 628.180319 
L 191.351136 631.757381 
L 197.399313 634.876929 
L 203.44749 637.621495 
L 209.495667 640.05484 
L 215.543844 642.226817 
L 221.592021 644.177543 
L 227.640198 645.938991 
L 233.688375 647.537441 
L 239.736552 648.994507 
L 251.832905 651.553352 
L 263.929259 653.727186 
L 276.025613 655.596714 
L 288.121967 657.221468 
L 300.218321 658.646455 
L 318.362852 660.482898 
L 336.507383 662.032884 
L 354.651914 663.358328 
L 378.844622 664.852852 
L 403.03733 666.104736 
L 433.278215 667.40957 
L 463.519099 668.493309 
L 499.808161 669.573131 
L 542.1454 670.604066 
L 590.530816 671.559133 
L 651.012585 672.510594 
L 723.590709 673.400866 
L 808.265187 674.199905 
L 911.084195 674.935044 
L 995.758673 675.405991 
L 995.758673 675.405991 
" clip-path="url(#pc6abf7a435)" style="fill: none; stroke: #17becf; stroke-width: 5; stroke-linecap: round"/>
   </g>
   <g id="line2d_24">
    <path d="M 88.532127 69.325584 
L 94.580304 182.348503 
L 100.628481 272.451872 
L 106.676658 344.547719 
L 112.724835 402.322157 
L 118.773012 448.66669 
L 124.821189 485.902064 
L 130.869366 515.896885 
L 136.917543 540.122062 
L 142.96572 559.652785 
L 149.013897 575.442321 
L 155.062074 588.22364 
L 161.110251 598.583987 
L 167.158428 606.995508 
L 173.206605 613.86055 
L 179.254782 619.554176 
L 185.302959 624.352229 
L 191.351136 628.450682 
L 197.399313 631.991932 
L 203.44749 635.082414 
L 209.495667 637.80303 
L 215.543844 640.216161 
L 221.592021 642.371314 
L 227.640198 644.307546 
L 233.688375 646.056609 
L 239.736552 647.644378 
L 245.784728 649.092216 
L 257.881082 651.635658 
L 269.977436 653.797516 
L 282.07379 655.657441 
L 294.170144 657.274437 
L 306.266498 658.693021 
L 324.411029 660.521807 
L 342.55556 662.065912 
L 360.700091 663.38669 
L 384.892799 664.876356 
L 409.085507 666.124515 
L 439.326392 667.425795 
L 469.567276 668.50686 
L 505.856338 669.584232 
L 548.193577 670.613056 
L 596.578993 671.566356 
L 657.060762 672.516238 
L 729.638886 673.405194 
L 814.313364 674.203183 
L 917.132372 674.937472 
L 995.758673 675.377525 
L 995.758673 675.377525 
" clip-path="url(#pc6abf7a435)" style="fill: none; stroke: #17becf; stroke-width: 5; stroke-linecap: round"/>
   </g>
   <g id="patch_3">
    <path d="M 88.532127 678.237256 
L 88.532127 38.88 
" style="fill: none; stroke: #262626; stroke-width: 0.8; stroke-linejoin: miter; stroke-linecap: square"/>
   </g>
   <g id="patch_4">
    <path d="M 88.532127 678.237256 
L 1041.12 678.237256 
" style="fill: none; stroke: #262626; stroke-width: 0.8; stroke-linejoin: miter; stroke-linecap: square"/>
   </g>
  </g>
 </g>
 <defs>
  <clipPath id="pc6abf7a435">
   <rect x="88.532127" y="38.88" width="952.587873" height="639.357256"/>
  </clipPath>
 </defs>
</svg>
