<?xml version="1.0" encoding="utf-8" standalone="no"?>
<!DOCTYPE svg PUBLIC "-//W3C//DTD SVG 1.1//EN"
  "http://www.w3.org/Graphics/SVG/1.1/DTD/svg11.dtd">
<svg xmlns:xlink="http://www.w3.org/1999/xlink" width="1080pt" height="756pt" viewBox="0 0 1080 756" xmlns="http://www.w3.org/2000/svg" version="1.1">
 <metadata>
  <rdf:RDF xmlns:dc="http://purl.org/dc/elements/1.1/" xmlns:cc="http://creativecommons.org/ns#" xmlns:rdf="http://www.w3.org/1999/02/22-rdf-syntax-ns#">
   <cc:Work>
    <dc:type rdf:resource="http://purl.org/dc/dcmitype/StillImage"/>
    <dc:date>2024-07-31T08:53:47.154728</dc:date>
    <dc:format>image/svg+xml</dc:format>
    <dc:creator>
     <cc:Agent>
      <dc:title>Matplotlib v3.9.0, https://matplotlib.org/</dc:title>
     </cc:Agent>
    </dc:creator>
   </cc:Work>
  </rdf:RDF>
 </metadata>
 <defs>
  <style type="text/css">*{stroke-linejoin: round; stroke-linecap: butt}</style>
 </defs>
 <g id="figure_1">
  <g id="patch_1">
   <path d="M 0 756 
L 1080 756 
L 1080 0 
L 0 0 
z
" style="fill: #ffffff"/>
  </g>
  <g id="axes_1">
   <g id="patch_2">
    <path d="M 88.532127 678.237256 
L 1041.12 678.237256 
L 1041.12 38.88 
L 88.532127 38.88 
z
" style="fill: #ffffff"/>
   </g>
   <g id="matplotlib.axis_1">
    <g id="xtick_1">
     <g id="line2d_1">
      <defs>
       <path id="mb74aebce00" d="M 0 0 
L 0 3.5 
" style="stroke: #262626; stroke-width: 0.8"/>
      </defs>
      <g>
       <use xlink:href="#mb74aebce00" x="88.532127" y="678.237256" style="fill: #262626; stroke: #262626; stroke-width: 0.8"/>
      </g>
     </g>
     <g id="text_1">
      <!-- $\mathdefault{0.0}$ -->
      <g style="fill: #262626" transform="translate(67.206064 710.143856) scale(0.36 -0.36)">
       <defs>
        <path id="CMR17-30" d="M 2688 2025 
C 2688 2416 2682 3080 2413 3591 
C 2176 4039 1798 4198 1466 4198 
C 1158 4198 768 4058 525 3597 
C 269 3118 243 2524 243 2025 
C 243 1661 250 1106 448 619 
C 723 -39 1216 -128 1466 -128 
C 1760 -128 2208 -7 2470 600 
C 2662 1042 2688 1559 2688 2025 
z
M 1466 -26 
C 1056 -26 813 325 723 812 
C 653 1188 653 1738 653 2096 
C 653 2588 653 2997 736 3387 
C 858 3929 1216 4096 1466 4096 
C 1728 4096 2067 3923 2189 3400 
C 2272 3036 2278 2607 2278 2096 
C 2278 1680 2278 1169 2202 792 
C 2067 95 1690 -26 1466 -26 
z
" transform="scale(0.015625)"/>
        <path id="CMMI12-3a" d="M 1178 307 
C 1178 492 1024 619 870 619 
C 685 619 557 466 557 313 
C 557 128 710 0 864 0 
C 1050 0 1178 153 1178 307 
z
" transform="scale(0.015625)"/>
       </defs>
       <use xlink:href="#CMR17-30" transform="scale(0.996264)"/>
       <use xlink:href="#CMMI12-3a" transform="translate(45.690477 0) scale(0.996264)"/>
       <use xlink:href="#CMR17-30" transform="translate(72.787654 0) scale(0.996264)"/>
      </g>
     </g>
    </g>
    <g id="xtick_2">
     <g id="line2d_2">
      <g>
       <use xlink:href="#mb74aebce00" x="269.977436" y="678.237256" style="fill: #262626; stroke: #262626; stroke-width: 0.8"/>
      </g>
     </g>
     <g id="text_2">
      <!-- $\mathdefault{0.2}$ -->
      <g style="fill: #262626" transform="translate(248.651373 710.143856) scale(0.36 -0.36)">
       <defs>
        <path id="CMR17-32" d="M 2669 989 
L 2554 989 
C 2490 536 2438 459 2413 420 
C 2381 369 1920 369 1830 369 
L 602 369 
C 832 619 1280 1072 1824 1597 
C 2214 1967 2669 2402 2669 3035 
C 2669 3790 2067 4224 1395 4224 
C 691 4224 262 3604 262 3030 
C 262 2780 448 2748 525 2748 
C 589 2748 781 2787 781 3010 
C 781 3207 614 3264 525 3264 
C 486 3264 448 3258 422 3245 
C 544 3790 915 4058 1306 4058 
C 1862 4058 2227 3617 2227 3035 
C 2227 2479 1901 2000 1536 1584 
L 262 146 
L 262 0 
L 2515 0 
L 2669 989 
z
" transform="scale(0.015625)"/>
       </defs>
       <use xlink:href="#CMR17-30" transform="scale(0.996264)"/>
       <use xlink:href="#CMMI12-3a" transform="translate(45.690477 0) scale(0.996264)"/>
       <use xlink:href="#CMR17-32" transform="translate(72.787654 0) scale(0.996264)"/>
      </g>
     </g>
    </g>
    <g id="xtick_3">
     <g id="line2d_3">
      <g>
       <use xlink:href="#mb74aebce00" x="451.422745" y="678.237256" style="fill: #262626; stroke: #262626; stroke-width: 0.8"/>
      </g>
     </g>
     <g id="text_3">
      <!-- $\mathdefault{0.4}$ -->
      <g style="fill: #262626" transform="translate(430.096682 710.143856) scale(0.36 -0.36)">
       <defs>
        <path id="CMR17-34" d="M 2150 4122 
C 2150 4256 2144 4256 2029 4256 
L 128 1254 
L 128 1088 
L 1779 1088 
L 1779 457 
C 1779 224 1766 160 1318 160 
L 1197 160 
L 1197 0 
C 1402 0 1747 0 1965 0 
C 2182 0 2528 0 2733 0 
L 2733 160 
L 2611 160 
C 2163 160 2150 224 2150 457 
L 2150 1088 
L 2803 1088 
L 2803 1254 
L 2150 1254 
L 2150 4122 
z
M 1798 3703 
L 1798 1254 
L 256 1254 
L 1798 3703 
z
" transform="scale(0.015625)"/>
       </defs>
       <use xlink:href="#CMR17-30" transform="scale(0.996264)"/>
       <use xlink:href="#CMMI12-3a" transform="translate(45.690477 0) scale(0.996264)"/>
       <use xlink:href="#CMR17-34" transform="translate(72.787654 0) scale(0.996264)"/>
      </g>
     </g>
    </g>
    <g id="xtick_4">
     <g id="line2d_4">
      <g>
       <use xlink:href="#mb74aebce00" x="632.868055" y="678.237256" style="fill: #262626; stroke: #262626; stroke-width: 0.8"/>
      </g>
     </g>
     <g id="text_4">
      <!-- $\mathdefault{0.6}$ -->
      <g style="fill: #262626" transform="translate(611.541991 710.143856) scale(0.36 -0.36)">
       <defs>
        <path id="CMR17-36" d="M 678 2176 
C 678 3690 1395 4032 1811 4032 
C 1946 4032 2272 4009 2400 3776 
C 2298 3776 2106 3776 2106 3553 
C 2106 3381 2246 3323 2336 3323 
C 2394 3323 2566 3348 2566 3560 
C 2566 3954 2246 4179 1805 4179 
C 1043 4179 243 3390 243 1984 
C 243 253 966 -128 1478 -128 
C 2099 -128 2688 427 2688 1283 
C 2688 2081 2170 2662 1517 2662 
C 1126 2662 838 2407 678 1960 
L 678 2176 
z
M 1478 25 
C 691 25 691 1200 691 1436 
C 691 1896 909 2560 1504 2560 
C 1613 2560 1926 2560 2138 2120 
C 2253 1870 2253 1609 2253 1289 
C 2253 944 2253 690 2118 434 
C 1978 171 1773 25 1478 25 
z
" transform="scale(0.015625)"/>
       </defs>
       <use xlink:href="#CMR17-30" transform="scale(0.996264)"/>
       <use xlink:href="#CMMI12-3a" transform="translate(45.690477 0) scale(0.996264)"/>
       <use xlink:href="#CMR17-36" transform="translate(72.787654 0) scale(0.996264)"/>
      </g>
     </g>
    </g>
    <g id="xtick_5">
     <g id="line2d_5">
      <g>
       <use xlink:href="#mb74aebce00" x="814.313364" y="678.237256" style="fill: #262626; stroke: #262626; stroke-width: 0.8"/>
      </g>
     </g>
     <g id="text_5">
      <!-- $\mathdefault{0.8}$ -->
      <g style="fill: #262626" transform="translate(792.9873 710.143856) scale(0.36 -0.36)">
       <defs>
        <path id="CMR17-38" d="M 1741 2264 
C 2144 2467 2554 2773 2554 3263 
C 2554 3841 1990 4179 1472 4179 
C 890 4179 378 3759 378 3180 
C 378 3021 416 2747 666 2505 
C 730 2442 998 2251 1171 2130 
C 883 1983 211 1634 211 934 
C 211 279 838 -128 1459 -128 
C 2144 -128 2720 362 2720 1010 
C 2720 1590 2330 1857 2074 2029 
L 1741 2264 
z
M 902 2822 
C 851 2854 595 3051 595 3351 
C 595 3739 998 4032 1459 4032 
C 1965 4032 2336 3676 2336 3262 
C 2336 2669 1670 2331 1638 2331 
C 1632 2331 1626 2331 1574 2370 
L 902 2822 
z
M 2080 1519 
C 2176 1449 2483 1240 2483 851 
C 2483 381 2010 25 1472 25 
C 890 25 448 438 448 940 
C 448 1443 838 1862 1280 2060 
L 2080 1519 
z
" transform="scale(0.015625)"/>
       </defs>
       <use xlink:href="#CMR17-30" transform="scale(0.996264)"/>
       <use xlink:href="#CMMI12-3a" transform="translate(45.690477 0) scale(0.996264)"/>
       <use xlink:href="#CMR17-38" transform="translate(72.787654 0) scale(0.996264)"/>
      </g>
     </g>
    </g>
    <g id="xtick_6">
     <g id="line2d_6">
      <g>
       <use xlink:href="#mb74aebce00" x="995.758673" y="678.237256" style="fill: #262626; stroke: #262626; stroke-width: 0.8"/>
      </g>
     </g>
     <g id="text_6">
      <!-- $\mathdefault{1.0}$ -->
      <g style="fill: #262626" transform="translate(974.432609 710.143856) scale(0.36 -0.36)">
       <defs>
        <path id="CMR17-31" d="M 1702 4058 
C 1702 4192 1696 4192 1606 4192 
C 1357 3916 979 3827 621 3827 
C 602 3827 570 3827 563 3808 
C 557 3795 557 3782 557 3648 
C 755 3648 1088 3686 1344 3839 
L 1344 461 
C 1344 236 1331 160 781 160 
L 589 160 
L 589 0 
C 896 0 1216 0 1523 0 
C 1830 0 2150 0 2458 0 
L 2458 160 
L 2266 160 
C 1715 160 1702 230 1702 458 
L 1702 4058 
z
" transform="scale(0.015625)"/>
       </defs>
       <use xlink:href="#CMR17-31" transform="scale(0.996264)"/>
       <use xlink:href="#CMMI12-3a" transform="translate(45.690477 0) scale(0.996264)"/>
       <use xlink:href="#CMR17-30" transform="translate(72.787654 0) scale(0.996264)"/>
      </g>
     </g>
    </g>
   </g>
   <g id="matplotlib.axis_2">
    <g id="ytick_1">
     <g id="line2d_7">
      <defs>
       <path id="m9c8e6a7242" d="M 0 0 
L -3.5 0 
" style="stroke: #262626; stroke-width: 0.8"/>
      </defs>
      <g>
       <use xlink:href="#m9c8e6a7242" x="88.532127" y="678.237256" style="fill: #262626; stroke: #262626; stroke-width: 0.8"/>
      </g>
     </g>
     <g id="text_7">
      <!-- $\mathdefault{0.0}$ -->
      <g style="fill: #262626" transform="translate(38.88 690.690556) scale(0.36 -0.36)">
       <use xlink:href="#CMR17-30" transform="scale(0.996264)"/>
       <use xlink:href="#CMMI12-3a" transform="translate(45.690477 0) scale(0.996264)"/>
       <use xlink:href="#CMR17-30" transform="translate(72.787654 0) scale(0.996264)"/>
      </g>
     </g>
    </g>
    <g id="ytick_2">
     <g id="line2d_8">
      <g>
       <use xlink:href="#m9c8e6a7242" x="88.532127" y="678.23252" style="fill: #262626; stroke: #262626; stroke-width: 0.8"/>
      </g>
     </g>
     <g id="text_8">
      <!-- $\mathdefault{0.2}$ -->
      <g style="fill: #262626" transform="translate(38.88 690.685821) scale(0.36 -0.36)">
       <use xlink:href="#CMR17-30" transform="scale(0.996264)"/>
       <use xlink:href="#CMMI12-3a" transform="translate(45.690477 0) scale(0.996264)"/>
       <use xlink:href="#CMR17-32" transform="translate(72.787654 0) scale(0.996264)"/>
      </g>
     </g>
    </g>
    <g id="ytick_3">
     <g id="line2d_9">
      <g>
       <use xlink:href="#m9c8e6a7242" x="88.532127" y="678.227785" style="fill: #262626; stroke: #262626; stroke-width: 0.8"/>
      </g>
     </g>
     <g id="text_9">
      <!-- $\mathdefault{0.4}$ -->
      <g style="fill: #262626" transform="translate(38.88 690.681085) scale(0.36 -0.36)">
       <use xlink:href="#CMR17-30" transform="scale(0.996264)"/>
       <use xlink:href="#CMMI12-3a" transform="translate(45.690477 0) scale(0.996264)"/>
       <use xlink:href="#CMR17-34" transform="translate(72.787654 0) scale(0.996264)"/>
      </g>
     </g>
    </g>
    <g id="ytick_4">
     <g id="line2d_10">
      <g>
       <use xlink:href="#m9c8e6a7242" x="88.532127" y="678.223049" style="fill: #262626; stroke: #262626; stroke-width: 0.8"/>
      </g>
     </g>
     <g id="text_10">
      <!-- $\mathdefault{0.6}$ -->
      <g style="fill: #262626" transform="translate(38.88 690.676349) scale(0.36 -0.36)">
       <use xlink:href="#CMR17-30" transform="scale(0.996264)"/>
       <use xlink:href="#CMMI12-3a" transform="translate(45.690477 0) scale(0.996264)"/>
       <use xlink:href="#CMR17-36" transform="translate(72.787654 0) scale(0.996264)"/>
      </g>
     </g>
    </g>
    <g id="ytick_5">
     <g id="line2d_11">
      <g>
       <use xlink:href="#m9c8e6a7242" x="88.532127" y="678.218313" style="fill: #262626; stroke: #262626; stroke-width: 0.8"/>
      </g>
     </g>
     <g id="text_11">
      <!-- $\mathdefault{0.8}$ -->
      <g style="fill: #262626" transform="translate(38.88 690.671613) scale(0.36 -0.36)">
       <use xlink:href="#CMR17-30" transform="scale(0.996264)"/>
       <use xlink:href="#CMMI12-3a" transform="translate(45.690477 0) scale(0.996264)"/>
       <use xlink:href="#CMR17-38" transform="translate(72.787654 0) scale(0.996264)"/>
      </g>
     </g>
    </g>
    <g id="ytick_6">
     <g id="line2d_12">
      <g>
       <use xlink:href="#m9c8e6a7242" x="88.532127" y="678.213578" style="fill: #262626; stroke: #262626; stroke-width: 0.8"/>
      </g>
     </g>
     <g id="text_12">
      <!-- $\mathdefault{1.0}$ -->
      <g style="fill: #262626" transform="translate(38.88 690.666878) scale(0.36 -0.36)">
       <use xlink:href="#CMR17-31" transform="scale(0.996264)"/>
       <use xlink:href="#CMMI12-3a" transform="translate(45.690477 0) scale(0.996264)"/>
       <use xlink:href="#CMR17-30" transform="translate(72.787654 0) scale(0.996264)"/>
      </g>
     </g>
    </g>
    <g id="ytick_7">
     <g id="line2d_13">
      <g>
       <use xlink:href="#m9c8e6a7242" x="88.532127" y="678.208842" style="fill: #262626; stroke: #262626; stroke-width: 0.8"/>
      </g>
     </g>
     <g id="text_13">
      <!-- $\mathdefault{1.2}$ -->
      <g style="fill: #262626" transform="translate(38.88 690.662142) scale(0.36 -0.36)">
       <use xlink:href="#CMR17-31" transform="scale(0.996264)"/>
       <use xlink:href="#CMMI12-3a" transform="translate(45.690477 0) scale(0.996264)"/>
       <use xlink:href="#CMR17-32" transform="translate(72.787654 0) scale(0.996264)"/>
      </g>
     </g>
    </g>
   </g>
   <g id="line2d_14">
    <path d="M 88.532127 678.237256 
L 995.758673 678.237256 
L 995.758673 678.237256 
" clip-path="url(#p5f0a6e056e)" style="fill: none; stroke: #1f77b4; stroke-width: 5; stroke-linecap: round"/>
   </g>
   <g id="line2d_15">
    <path d="M 88.532127 674.64936 
L 167.158428 675.32408 
L 263.929259 675.916582 
L 390.940976 676.455669 
L 560.289931 676.932766 
L 790.120656 677.340575 
L 995.758673 677.576259 
L 995.758673 677.576259 
" clip-path="url(#p5f0a6e056e)" style="fill: none; stroke: #ff7f0e; stroke-width: 5; stroke-linecap: round"/>
   </g>
   <g id="line2d_16">
    <path d="M 88.532127 666.475424 
L 106.676658 667.755691 
L 124.821189 668.802474 
L 149.013897 669.933731 
L 173.206605 670.84402 
L 203.44749 671.75892 
L 239.736552 672.623911 
L 282.07379 673.409648 
L 336.507383 674.180333 
L 403.03733 674.88099 
L 487.711807 675.528801 
L 596.578993 676.115466 
L 735.687063 676.627257 
L 923.180549 677.079178 
L 995.758673 677.208202 
L 995.758673 677.208202 
" clip-path="url(#p5f0a6e056e)" style="fill: none; stroke: #2ca02c; stroke-width: 5; stroke-linecap: round"/>
   </g>
   <g id="line2d_17">
    <path d="M 88.532127 646.533857 
L 94.580304 649.34815 
L 100.628481 651.715678 
L 106.676658 653.735285 
L 112.724835 655.479128 
L 118.773012 657.000111 
L 124.821189 658.338464 
L 130.869366 659.525459 
L 142.96572 661.537456 
L 155.062074 663.178418 
L 167.158428 664.542221 
L 179.254782 665.693673 
L 197.399313 667.11963 
L 215.543844 668.275333 
L 233.688375 669.230769 
L 257.881082 670.273589 
L 288.121967 671.307565 
L 324.411029 672.272171 
L 366.748268 673.137565 
L 415.133684 673.894937 
L 475.615453 674.610417 
L 554.241754 675.292169 
L 651.012585 675.890801 
L 778.024302 676.435418 
L 947.373257 676.917359 
L 995.758673 677.022032 
L 995.758673 677.022032 
" clip-path="url(#p5f0a6e056e)" style="fill: none; stroke: #d62728; stroke-width: 5; stroke-linecap: round"/>
   </g>
   <g id="line2d_18">
    <path d="M 88.532127 598.05606 
L 94.580304 611.878526 
L 100.628481 622.314445 
L 106.676658 630.209717 
L 112.724835 636.234002 
L 118.773012 640.943335 
L 124.821189 644.724959 
L 130.869366 647.829013 
L 136.917543 650.422441 
L 142.96572 652.621659 
L 149.013897 654.510349 
L 155.062074 656.149996 
L 161.110251 657.586545 
L 167.158428 658.855746 
L 173.206605 659.985093 
L 185.302959 661.90763 
L 197.399313 663.482859 
L 209.495667 664.797064 
L 221.592021 665.910053 
L 239.736552 667.292757 
L 257.881082 668.416902 
L 282.07379 669.62469 
L 306.266498 670.590908 
L 336.507383 671.556699 
L 372.796445 672.464775 
L 415.133684 673.285318 
L 469.567276 674.086094 
L 536.097223 674.810625 
L 614.723524 675.436923 
L 717.542532 676.022599 
L 850.602425 676.544997 
L 995.758673 676.935918 
L 995.758673 676.935918 
" clip-path="url(#p5f0a6e056e)" style="fill: none; stroke: #9467bd; stroke-width: 5; stroke-linecap: round"/>
   </g>
   <g id="line2d_19">
    <path d="M 88.532127 523.970525 
L 94.580304 556.084113 
L 100.628481 580.222854 
L 106.676658 598.398381 
L 112.724835 612.107415 
L 118.773012 622.471408 
L 124.821189 630.326203 
L 130.869366 636.318109 
L 136.917543 641.005793 
L 142.96572 644.772998 
L 149.013897 647.866827 
L 155.062074 650.453086 
L 161.110251 652.646816 
L 167.158428 654.531379 
L 173.206605 656.167632 
L 179.254782 657.601748 
L 185.302959 658.868812 
L 191.351136 659.996415 
L 203.44749 661.916304 
L 215.543844 663.489709 
L 227.640198 664.802548 
L 239.736552 665.914478 
L 257.881082 667.296066 
L 276.025613 668.419405 
L 300.218321 669.626453 
L 324.411029 670.592148 
L 354.651914 671.557511 
L 390.940976 672.465239 
L 433.278215 673.285531 
L 487.711807 674.086114 
L 554.241754 674.810513 
L 632.868055 675.436727 
L 735.687063 676.022364 
L 868.746956 676.54475 
L 995.758673 676.89411 
L 995.758673 676.89411 
" clip-path="url(#p5f0a6e056e)" style="fill: none; stroke: #8c564b; stroke-width: 5; stroke-linecap: round"/>
   </g>
   <g id="line2d_20">
    <path d="M 88.532127 439.779282 
L 94.580304 492.940003 
L 100.628481 532.769429 
L 106.676658 562.662739 
L 112.724835 585.137918 
L 118.773012 602.075341 
L 124.821189 614.873778 
L 130.869366 624.564992 
L 136.917543 631.914495 
L 142.96572 637.544683 
L 149.013897 641.981283 
L 155.062074 645.56757 
L 161.110251 648.526095 
L 167.158428 651.008808 
L 173.206605 653.121699 
L 179.254782 654.941831 
L 185.302959 656.525873 
L 191.351136 657.916969 
L 197.399313 659.148424 
L 203.44749 660.246138 
L 215.543844 662.118915 
L 227.640198 663.65734 
L 239.736552 664.943471 
L 251.832905 666.034628 
L 269.977436 667.392619 
L 288.121967 668.498687 
L 312.314675 669.689013 
L 336.507383 670.64274 
L 366.748268 671.597379 
L 403.03733 672.496168 
L 445.374568 673.309312 
L 499.808161 674.103794 
L 566.338108 674.823415 
L 644.964408 675.446074 
L 747.783417 676.02886 
L 880.84331 676.549098 
L 995.758673 676.868602 
L 995.758673 676.868602 
" clip-path="url(#p5f0a6e056e)" style="fill: none; stroke: #e377c2; stroke-width: 5; stroke-linecap: round"/>
   </g>
   <g id="line2d_21">
    <path d="M 88.532127 350.700219 
L 94.580304 426.31072 
L 100.628481 482.831508 
L 106.676658 525.156675 
L 112.724835 556.907585 
L 118.773012 580.782105 
L 124.821189 598.782498 
L 130.869366 612.38256 
L 136.917543 622.673948 
L 142.96572 630.470528 
L 149.013897 636.424971 
L 155.062074 641.087886 
L 161.110251 644.837465 
L 167.158428 647.918625 
L 173.206605 650.495185 
L 179.254782 652.681913 
L 185.302959 654.560785 
L 191.351136 656.192546 
L 197.399313 657.623025 
L 203.44749 658.887196 
L 209.495667 660.012458 
L 221.592021 661.928683 
L 233.688375 663.499455 
L 245.784728 664.810337 
L 257.881082 665.920867 
L 276.025613 667.300859 
L 294.170144 668.423049 
L 318.362852 669.629075 
L 342.55556 670.594086 
L 372.796445 671.558824 
L 409.085507 672.466088 
L 451.422745 673.286017 
L 505.856338 674.086326 
L 572.386285 674.810534 
L 651.012585 675.436637 
L 753.831594 676.022197 
L 886.891487 676.544549 
L 995.758673 676.850505 
L 995.758673 676.850505 
" clip-path="url(#p5f0a6e056e)" style="fill: none; stroke: #7f7f7f; stroke-width: 5; stroke-linecap: round"/>
   </g>
   <g id="line2d_22">
    <path d="M 88.532127 258.661293 
L 94.580304 357.604182 
L 100.628481 431.438258 
L 106.676658 486.633201 
L 112.724835 527.967894 
L 118.773012 558.996018 
L 124.821189 582.350396 
L 130.869366 599.96597 
L 136.917543 613.273743 
L 142.96572 623.336462 
L 149.013897 630.973105 
L 155.062074 636.812589 
L 161.110251 641.394836 
L 167.158428 645.086933 
L 173.206605 648.125002 
L 179.254782 650.668924 
L 185.302959 652.829888 
L 191.351136 654.688327 
L 197.399313 656.303711 
L 203.44749 657.720678 
L 209.495667 658.973659 
L 215.543844 660.089547 
L 227.640198 661.991043 
L 239.736552 663.550887 
L 251.832905 664.853516 
L 263.929259 665.957575 
L 282.07379 667.33025 
L 300.218321 668.447143 
L 324.411029 669.648005 
L 348.603737 670.609329 
L 378.844622 671.570813 
L 415.133684 672.475345 
L 457.470922 673.293106 
L 511.904515 674.091578 
L 578.434462 674.814344 
L 657.060762 675.439376 
L 759.879771 676.024088 
L 892.939664 676.545802 
L 995.758673 676.836559 
L 995.758673 676.836559 
" clip-path="url(#p5f0a6e056e)" style="fill: none; stroke: #bcbd22; stroke-width: 5; stroke-linecap: round"/>
   </g>
   <g id="line2d_23">
    <path d="M 88.532127 164.676577 
L 94.580304 287.555381 
L 100.628481 379.122804 
L 106.676658 447.479306 
L 112.724835 498.599965 
L 118.773012 536.921417 
L 124.821189 565.726027 
L 130.869366 587.423102 
L 136.917543 603.792209 
L 142.96572 616.154196 
L 149.013897 625.528202 
L 155.062074 632.639242 
L 161.110251 638.105628 
L 167.158428 642.427929 
L 173.206605 645.930969 
L 179.254782 648.827782 
L 185.302959 651.262863 
L 191.351136 653.338472 
L 197.399313 655.128843 
L 203.44749 656.688866 
L 209.495667 658.060295 
L 215.543844 659.275362 
L 227.640198 661.332292 
L 239.736552 663.006999 
L 251.832905 664.396909 
L 263.929259 665.568838 
L 282.07379 667.018146 
L 300.218321 668.191104 
L 318.362852 669.159632 
L 342.55556 670.215539 
L 372.796445 671.26118 
L 409.085507 672.235557 
L 451.422745 673.108754 
L 499.808161 673.872237 
L 560.289931 674.592854 
L 632.868055 675.23368 
L 729.638886 675.84903 
L 850.602425 676.384643 
L 995.758673 676.825316 
L 995.758673 676.825316 
" clip-path="url(#p5f0a6e056e)" style="fill: none; stroke: #17becf; stroke-width: 5; stroke-linecap: round"/>
   </g>
   <g id="line2d_24">
    <path d="M 88.532127 69.325584 
L 94.580304 216.579518 
L 100.628481 326.182596 
L 106.676658 407.908044 
L 112.724835 468.95635 
L 118.773012 514.667465 
L 124.821189 548.987412 
L 130.869366 574.809626 
L 136.917543 594.268992 
L 142.96572 608.948671 
L 149.013897 620.070053 
L 155.062074 628.494616 
L 161.110251 634.903978 
L 167.158428 639.881857 
L 173.206605 643.857911 
L 179.254782 647.107222 
L 185.302959 649.81198 
L 191.351136 652.098504 
L 197.399313 654.056956 
L 203.44749 655.753077 
L 209.495667 657.236252 
L 215.543844 658.544196 
L 221.592021 659.706166 
L 233.688375 661.680099 
L 245.784728 663.293652 
L 257.881082 664.637218 
L 269.977436 665.773119 
L 288.121967 667.181927 
L 306.266498 668.325249 
L 324.411029 669.271504 
L 348.603737 670.305351 
L 378.844622 671.33151 
L 415.133684 672.28979 
L 457.470922 673.150282 
L 505.856338 673.903987 
L 566.338108 674.616531 
L 644.964408 675.29597 
L 741.73524 675.892971 
L 868.746956 676.436434 
L 995.758673 676.815875 
L 995.758673 676.815875 
" clip-path="url(#p5f0a6e056e)" style="fill: none; stroke: #17becf; stroke-width: 5; stroke-linecap: round"/>
   </g>
   <g id="patch_3">
    <path d="M 88.532127 678.237256 
L 88.532127 38.88 
" style="fill: none; stroke: #262626; stroke-width: 0.8; stroke-linejoin: miter; stroke-linecap: square"/>
   </g>
   <g id="patch_4">
    <path d="M 88.532127 678.237256 
L 1041.12 678.237256 
" style="fill: none; stroke: #262626; stroke-width: 0.8; stroke-linejoin: miter; stroke-linecap: square"/>
   </g>
  </g>
 </g>
 <defs>
  <clipPath id="p5f0a6e056e">
   <rect x="88.532127" y="38.88" width="952.587873" height="639.357256"/>
  </clipPath>
 </defs>
</svg>
