<?xml version="1.0" encoding="utf-8" standalone="no"?>
<!DOCTYPE svg PUBLIC "-//W3C//DTD SVG 1.1//EN"
  "http://www.w3.org/Graphics/SVG/1.1/DTD/svg11.dtd">
<svg xmlns:xlink="http://www.w3.org/1999/xlink" width="1080pt" height="576pt" viewBox="0 0 1080 576" xmlns="http://www.w3.org/2000/svg" version="1.1">
 <metadata>
  <rdf:RDF xmlns:dc="http://purl.org/dc/elements/1.1/" xmlns:cc="http://creativecommons.org/ns#" xmlns:rdf="http://www.w3.org/1999/02/22-rdf-syntax-ns#">
   <cc:Work>
    <dc:type rdf:resource="http://purl.org/dc/dcmitype/StillImage"/>
    <dc:date>2024-07-17T11:20:03.377427</dc:date>
    <dc:format>image/svg+xml</dc:format>
    <dc:creator>
     <cc:Agent>
      <dc:title>Matplotlib v3.9.0, https://matplotlib.org/</dc:title>
     </cc:Agent>
    </dc:creator>
   </cc:Work>
  </rdf:RDF>
 </metadata>
 <defs>
  <style type="text/css">*{stroke-linejoin: round; stroke-linecap: butt}</style>
 </defs>
 <g id="figure_1">
  <g id="patch_1">
   <path d="M 0 576 
L 1080 576 
L 1080 0 
L 0 0 
z
" style="fill: #ffffff"/>
  </g>
  <g id="axes_1">
   <g id="patch_2">
    <path d="M 77.597312 515.449571 
L 1060.56 515.449571 
L 1060.56 19.44 
L 77.597312 19.44 
z
" style="fill: #eaeaf2"/>
   </g>
   <g id="matplotlib.axis_1">
    <g id="xtick_1">
     <g id="line2d_1">
      <path d="M 122.277434 515.449571 
L 122.277434 19.44 
" clip-path="url(#pefdb9d8519)" style="fill: none; stroke: #ffffff; stroke-width: 0.8; stroke-linecap: round"/>
     </g>
     <g id="text_1">
      <!-- $\mathdefault{0.3}$ -->
      <g style="fill: #262626" transform="translate(112.305673 533.519159) scale(0.16 -0.16)">
       <defs>
        <path id="CMR17-30" d="M 2688 2025 
C 2688 2416 2682 3080 2413 3591 
C 2176 4039 1798 4198 1466 4198 
C 1158 4198 768 4058 525 3597 
C 269 3118 243 2524 243 2025 
C 243 1661 250 1106 448 619 
C 723 -39 1216 -128 1466 -128 
C 1760 -128 2208 -7 2470 600 
C 2662 1042 2688 1559 2688 2025 
z
M 1466 -26 
C 1056 -26 813 325 723 812 
C 653 1188 653 1738 653 2096 
C 653 2588 653 2997 736 3387 
C 858 3929 1216 4096 1466 4096 
C 1728 4096 2067 3923 2189 3400 
C 2272 3036 2278 2607 2278 2096 
C 2278 1680 2278 1169 2202 792 
C 2067 95 1690 -26 1466 -26 
z
" transform="scale(0.015625)"/>
        <path id="CMMI12-3a" d="M 1178 307 
C 1178 492 1024 619 870 619 
C 685 619 557 466 557 313 
C 557 128 710 0 864 0 
C 1050 0 1178 153 1178 307 
z
" transform="scale(0.015625)"/>
        <path id="CMR17-33" d="M 1414 2157 
C 1984 2157 2234 1662 2234 1090 
C 2234 320 1824 25 1453 25 
C 1114 25 563 194 390 693 
C 422 680 454 680 486 680 
C 640 680 755 782 755 948 
C 755 1133 614 1216 486 1216 
C 378 1216 211 1165 211 926 
C 211 335 787 -128 1466 -128 
C 2176 -128 2720 430 2720 1085 
C 2720 1707 2208 2157 1600 2227 
C 2086 2328 2554 2756 2554 3329 
C 2554 3820 2048 4179 1472 4179 
C 890 4179 378 3829 378 3329 
C 378 3110 544 3072 627 3072 
C 762 3072 877 3155 877 3321 
C 877 3486 762 3569 627 3569 
C 602 3569 570 3569 544 3557 
C 730 3959 1235 4032 1459 4032 
C 1683 4032 2106 3925 2106 3320 
C 2106 3143 2080 2828 1862 2550 
C 1670 2304 1453 2304 1242 2284 
C 1210 2284 1062 2269 1037 2269 
C 992 2263 966 2257 966 2208 
C 966 2163 973 2157 1101 2157 
L 1414 2157 
z
" transform="scale(0.015625)"/>
       </defs>
       <use xlink:href="#CMR17-30" transform="scale(0.996264)"/>
       <use xlink:href="#CMMI12-3a" transform="translate(45.690477 0) scale(0.996264)"/>
       <use xlink:href="#CMR17-33" transform="translate(72.787654 0) scale(0.996264)"/>
      </g>
     </g>
    </g>
    <g id="xtick_2">
     <g id="line2d_2">
      <path d="M 249.771006 515.449571 
L 249.771006 19.44 
" clip-path="url(#pefdb9d8519)" style="fill: none; stroke: #ffffff; stroke-width: 0.8; stroke-linecap: round"/>
     </g>
     <g id="text_2">
      <!-- $\mathdefault{0.4}$ -->
      <g style="fill: #262626" transform="translate(239.799245 533.519159) scale(0.16 -0.16)">
       <defs>
        <path id="CMR17-34" d="M 2150 4122 
C 2150 4256 2144 4256 2029 4256 
L 128 1254 
L 128 1088 
L 1779 1088 
L 1779 457 
C 1779 224 1766 160 1318 160 
L 1197 160 
L 1197 0 
C 1402 0 1747 0 1965 0 
C 2182 0 2528 0 2733 0 
L 2733 160 
L 2611 160 
C 2163 160 2150 224 2150 457 
L 2150 1088 
L 2803 1088 
L 2803 1254 
L 2150 1254 
L 2150 4122 
z
M 1798 3703 
L 1798 1254 
L 256 1254 
L 1798 3703 
z
" transform="scale(0.015625)"/>
       </defs>
       <use xlink:href="#CMR17-30" transform="scale(0.996264)"/>
       <use xlink:href="#CMMI12-3a" transform="translate(45.690477 0) scale(0.996264)"/>
       <use xlink:href="#CMR17-34" transform="translate(72.787654 0) scale(0.996264)"/>
      </g>
     </g>
    </g>
    <g id="xtick_3">
     <g id="line2d_3">
      <path d="M 377.264578 515.449571 
L 377.264578 19.44 
" clip-path="url(#pefdb9d8519)" style="fill: none; stroke: #ffffff; stroke-width: 0.8; stroke-linecap: round"/>
     </g>
     <g id="text_3">
      <!-- $\mathdefault{0.5}$ -->
      <g style="fill: #262626" transform="translate(367.292817 533.519159) scale(0.16 -0.16)">
       <defs>
        <path id="CMR17-35" d="M 730 3692 
C 794 3666 1056 3584 1325 3584 
C 1920 3584 2246 3911 2432 4100 
C 2432 4157 2432 4192 2394 4192 
C 2387 4192 2374 4192 2323 4163 
C 2099 4058 1837 3973 1517 3973 
C 1325 3973 1037 3999 723 4139 
C 653 4171 640 4171 634 4171 
C 602 4171 595 4164 595 4037 
L 595 2203 
C 595 2089 595 2057 659 2057 
C 691 2057 704 2070 736 2114 
C 941 2401 1222 2522 1542 2522 
C 1766 2522 2246 2382 2246 1289 
C 2246 1085 2246 715 2054 421 
C 1894 159 1645 25 1370 25 
C 947 25 518 320 403 814 
C 429 807 480 795 506 795 
C 589 795 749 840 749 1038 
C 749 1210 627 1280 506 1280 
C 358 1280 262 1190 262 1011 
C 262 454 704 -128 1382 -128 
C 2042 -128 2669 440 2669 1264 
C 2669 2030 2170 2624 1549 2624 
C 1222 2624 947 2503 730 2274 
L 730 3692 
z
" transform="scale(0.015625)"/>
       </defs>
       <use xlink:href="#CMR17-30" transform="scale(0.996264)"/>
       <use xlink:href="#CMMI12-3a" transform="translate(45.690477 0) scale(0.996264)"/>
       <use xlink:href="#CMR17-35" transform="translate(72.787654 0) scale(0.996264)"/>
      </g>
     </g>
    </g>
    <g id="xtick_4">
     <g id="line2d_4">
      <path d="M 504.758149 515.449571 
L 504.758149 19.44 
" clip-path="url(#pefdb9d8519)" style="fill: none; stroke: #ffffff; stroke-width: 0.8; stroke-linecap: round"/>
     </g>
     <g id="text_4">
      <!-- $\mathdefault{0.6}$ -->
      <g style="fill: #262626" transform="translate(494.786388 533.519159) scale(0.16 -0.16)">
       <defs>
        <path id="CMR17-36" d="M 678 2176 
C 678 3690 1395 4032 1811 4032 
C 1946 4032 2272 4009 2400 3776 
C 2298 3776 2106 3776 2106 3553 
C 2106 3381 2246 3323 2336 3323 
C 2394 3323 2566 3348 2566 3560 
C 2566 3954 2246 4179 1805 4179 
C 1043 4179 243 3390 243 1984 
C 243 253 966 -128 1478 -128 
C 2099 -128 2688 427 2688 1283 
C 2688 2081 2170 2662 1517 2662 
C 1126 2662 838 2407 678 1960 
L 678 2176 
z
M 1478 25 
C 691 25 691 1200 691 1436 
C 691 1896 909 2560 1504 2560 
C 1613 2560 1926 2560 2138 2120 
C 2253 1870 2253 1609 2253 1289 
C 2253 944 2253 690 2118 434 
C 1978 171 1773 25 1478 25 
z
" transform="scale(0.015625)"/>
       </defs>
       <use xlink:href="#CMR17-30" transform="scale(0.996264)"/>
       <use xlink:href="#CMMI12-3a" transform="translate(45.690477 0) scale(0.996264)"/>
       <use xlink:href="#CMR17-36" transform="translate(72.787654 0) scale(0.996264)"/>
      </g>
     </g>
    </g>
    <g id="xtick_5">
     <g id="line2d_5">
      <path d="M 632.251721 515.449571 
L 632.251721 19.44 
" clip-path="url(#pefdb9d8519)" style="fill: none; stroke: #ffffff; stroke-width: 0.8; stroke-linecap: round"/>
     </g>
     <g id="text_5">
      <!-- $\mathdefault{0.7}$ -->
      <g style="fill: #262626" transform="translate(622.27996 533.519159) scale(0.16 -0.16)">
       <defs>
        <path id="CMR17-37" d="M 2886 3941 
L 2886 4081 
L 1382 4081 
C 634 4081 621 4165 595 4288 
L 480 4288 
L 294 3094 
L 410 3094 
C 429 3215 474 3540 550 3661 
C 589 3712 1062 3712 1171 3712 
L 2579 3712 
L 1869 2661 
C 1395 1954 1069 999 1069 165 
C 1069 89 1069 -128 1299 -128 
C 1530 -128 1530 89 1530 171 
L 1530 465 
C 1530 1508 1709 2196 2003 2636 
L 2886 3941 
z
" transform="scale(0.015625)"/>
       </defs>
       <use xlink:href="#CMR17-30" transform="scale(0.996264)"/>
       <use xlink:href="#CMMI12-3a" transform="translate(45.690477 0) scale(0.996264)"/>
       <use xlink:href="#CMR17-37" transform="translate(72.787654 0) scale(0.996264)"/>
      </g>
     </g>
    </g>
    <g id="xtick_6">
     <g id="line2d_6">
      <path d="M 759.745292 515.449571 
L 759.745292 19.44 
" clip-path="url(#pefdb9d8519)" style="fill: none; stroke: #ffffff; stroke-width: 0.8; stroke-linecap: round"/>
     </g>
     <g id="text_6">
      <!-- $\mathdefault{0.8}$ -->
      <g style="fill: #262626" transform="translate(749.773531 533.519159) scale(0.16 -0.16)">
       <defs>
        <path id="CMR17-38" d="M 1741 2264 
C 2144 2467 2554 2773 2554 3263 
C 2554 3841 1990 4179 1472 4179 
C 890 4179 378 3759 378 3180 
C 378 3021 416 2747 666 2505 
C 730 2442 998 2251 1171 2130 
C 883 1983 211 1634 211 934 
C 211 279 838 -128 1459 -128 
C 2144 -128 2720 362 2720 1010 
C 2720 1590 2330 1857 2074 2029 
L 1741 2264 
z
M 902 2822 
C 851 2854 595 3051 595 3351 
C 595 3739 998 4032 1459 4032 
C 1965 4032 2336 3676 2336 3262 
C 2336 2669 1670 2331 1638 2331 
C 1632 2331 1626 2331 1574 2370 
L 902 2822 
z
M 2080 1519 
C 2176 1449 2483 1240 2483 851 
C 2483 381 2010 25 1472 25 
C 890 25 448 438 448 940 
C 448 1443 838 1862 1280 2060 
L 2080 1519 
z
" transform="scale(0.015625)"/>
       </defs>
       <use xlink:href="#CMR17-30" transform="scale(0.996264)"/>
       <use xlink:href="#CMMI12-3a" transform="translate(45.690477 0) scale(0.996264)"/>
       <use xlink:href="#CMR17-38" transform="translate(72.787654 0) scale(0.996264)"/>
      </g>
     </g>
    </g>
    <g id="xtick_7">
     <g id="line2d_7">
      <path d="M 887.238864 515.449571 
L 887.238864 19.44 
" clip-path="url(#pefdb9d8519)" style="fill: none; stroke: #ffffff; stroke-width: 0.8; stroke-linecap: round"/>
     </g>
     <g id="text_7">
      <!-- $\mathdefault{0.9}$ -->
      <g style="fill: #262626" transform="translate(877.267103 533.519159) scale(0.16 -0.16)">
       <defs>
        <path id="CMR17-39" d="M 2253 1864 
C 2253 464 1670 31 1190 31 
C 1043 31 685 31 538 294 
C 704 268 826 357 826 518 
C 826 692 685 749 595 749 
C 538 749 365 723 365 506 
C 365 71 742 -128 1203 -128 
C 1939 -128 2688 674 2688 2073 
C 2688 3817 1971 4179 1485 4179 
C 851 4179 243 3628 243 2778 
C 243 1991 762 1408 1414 1408 
C 1952 1408 2189 1903 2253 2112 
L 2253 1864 
z
M 1427 1510 
C 1254 1510 1011 1542 813 1922 
C 678 2169 678 2461 678 2771 
C 678 3146 678 3405 858 3684 
C 947 3817 1114 4032 1485 4032 
C 2240 4032 2240 2885 2240 2632 
C 2240 2182 2035 1510 1427 1510 
z
" transform="scale(0.015625)"/>
       </defs>
       <use xlink:href="#CMR17-30" transform="scale(0.996264)"/>
       <use xlink:href="#CMMI12-3a" transform="translate(45.690477 0) scale(0.996264)"/>
       <use xlink:href="#CMR17-39" transform="translate(72.787654 0) scale(0.996264)"/>
      </g>
     </g>
    </g>
    <g id="xtick_8">
     <g id="line2d_8">
      <path d="M 1014.732436 515.449571 
L 1014.732436 19.44 
" clip-path="url(#pefdb9d8519)" style="fill: none; stroke: #ffffff; stroke-width: 0.8; stroke-linecap: round"/>
     </g>
     <g id="text_8">
      <!-- $\mathdefault{1.0}$ -->
      <g style="fill: #262626" transform="translate(1004.760675 533.519159) scale(0.16 -0.16)">
       <defs>
        <path id="CMR17-31" d="M 1702 4058 
C 1702 4192 1696 4192 1606 4192 
C 1357 3916 979 3827 621 3827 
C 602 3827 570 3827 563 3808 
C 557 3795 557 3782 557 3648 
C 755 3648 1088 3686 1344 3839 
L 1344 461 
C 1344 236 1331 160 781 160 
L 589 160 
L 589 0 
C 896 0 1216 0 1523 0 
C 1830 0 2150 0 2458 0 
L 2458 160 
L 2266 160 
C 1715 160 1702 230 1702 458 
L 1702 4058 
z
" transform="scale(0.015625)"/>
       </defs>
       <use xlink:href="#CMR17-31" transform="scale(0.996264)"/>
       <use xlink:href="#CMMI12-3a" transform="translate(45.690477 0) scale(0.996264)"/>
       <use xlink:href="#CMR17-30" transform="translate(72.787654 0) scale(0.996264)"/>
      </g>
     </g>
    </g>
    <g id="text_9">
     <!-- adhesivity -->
     <g style="fill: #262626" transform="translate(534.835934 553.071936) scale(0.18 -0.18)">
      <defs>
       <path id="CMSS17-61" d="M 2406 1791 
C 2406 2392 1978 2808 1402 2808 
C 1120 2808 813 2757 461 2553 
L 499 2135 
C 659 2248 934 2432 1395 2432 
C 1722 2432 1920 2180 1920 1782 
L 1920 1536 
C 896 1536 256 1238 256 726 
C 256 461 416 -64 947 -64 
C 1043 -64 1562 -64 1933 217 
L 1933 -19 
L 2406 -19 
L 2406 1791 
z
M 1920 816 
C 1920 701 1920 548 1728 434 
C 1562 325 1350 325 1261 325 
C 941 325 723 511 723 744 
C 723 1211 1722 1211 1920 1211 
L 1920 816 
z
" transform="scale(0.015625)"/>
       <path id="CMSS17-64" d="M 2611 4416 
L 2138 4416 
L 2138 2438 
C 1939 2603 1613 2756 1254 2756 
C 672 2756 211 2131 211 1347 
C 211 562 666 -64 1235 -64 
C 1677 -64 1971 172 2125 306 
L 2125 -13 
L 2611 -13 
L 2611 4416 
z
M 2125 836 
C 2125 747 2125 653 1926 482 
C 1798 375 1645 325 1498 325 
C 1152 325 698 576 698 1340 
C 698 2134 1210 2368 1562 2368 
C 1798 2368 1990 2254 2125 2065 
L 2125 836 
z
" transform="scale(0.015625)"/>
       <path id="CMSS17-68" d="M 2618 1891 
C 2618 2292 2522 2820 1798 2820 
C 1395 2820 1133 2623 947 2407 
L 947 4448 
L 474 4448 
L 474 32 
L 960 32 
L 960 1573 
C 960 1973 1114 2432 1549 2432 
C 2112 2432 2131 2056 2131 1839 
L 2131 32 
L 2618 32 
L 2618 1891 
z
" transform="scale(0.015625)"/>
       <path id="CMSS17-65" d="M 2502 1377 
C 2502 1590 2490 2003 2285 2345 
C 2061 2713 1696 2816 1421 2816 
C 755 2816 192 2188 192 1375 
C 192 582 774 -64 1510 -64 
C 1798 -64 2150 19 2470 248 
C 2470 274 2458 414 2451 420 
C 2451 433 2432 630 2432 656 
C 2125 407 1773 325 1517 325 
C 1107 325 666 667 646 1377 
L 2502 1377 
z
M 698 1728 
C 781 2084 1062 2421 1421 2421 
C 1517 2421 1965 2421 2080 1728 
L 698 1728 
z
" transform="scale(0.015625)"/>
       <path id="CMSS17-73" d="M 2061 2627 
C 1683 2807 1389 2807 1197 2807 
C 742 2807 198 2648 198 2003 
C 198 1359 902 1218 1094 1179 
C 1389 1122 1715 1058 1715 740 
C 1715 337 1254 337 1171 337 
C 915 337 563 407 243 638 
L 166 210 
C 531 0 883 -64 1178 -64 
C 1965 -64 2163 416 2163 781 
C 2163 1094 1984 1305 1862 1401 
C 1651 1568 1574 1587 1050 1696 
C 960 1709 646 1779 646 2066 
C 646 2432 1050 2432 1139 2432 
C 1555 2432 1811 2303 1984 2208 
L 2061 2627 
z
" transform="scale(0.015625)"/>
       <path id="CMSS17-69" d="M 979 4183 
L 442 4183 
L 442 3648 
L 979 3648 
L 979 4183 
z
M 947 2739 
L 474 2739 
L 474 0 
L 947 0 
L 947 2739 
z
" transform="scale(0.015625)"/>
       <path id="CMSS17-76" d="M 2675 2752 
L 2176 2752 
L 1747 1556 
C 1613 1165 1421 627 1389 352 
L 1382 352 
C 1370 468 1318 634 1286 749 
C 1248 890 1197 1056 1158 1172 
L 595 2752 
L 83 2752 
L 1094 0 
L 1664 0 
L 2675 2752 
z
" transform="scale(0.015625)"/>
       <path id="CMSS17-74" d="M 1069 2368 
L 1901 2368 
L 1901 2737 
L 1069 2737 
L 1069 3520 
L 614 3520 
L 614 2737 
L 109 2737 
L 109 2368 
L 602 2368 
L 602 749 
C 602 384 685 -64 1107 -64 
C 1427 -64 1722 25 2003 172 
L 1901 548 
C 1747 414 1562 337 1363 337 
C 1082 337 1069 696 1069 856 
L 1069 2368 
z
" transform="scale(0.015625)"/>
       <path id="CMSS17-79" d="M 2675 2752 
L 2176 2752 
C 1632 1294 1446 702 1434 383 
L 1427 383 
C 1408 696 1126 1460 902 2007 
L 602 2752 
L 83 2752 
L 1216 13 
C 1146 -178 1043 -465 1011 -529 
C 870 -885 774 -885 672 -885 
C 646 -885 442 -885 211 -809 
L 250 -1229 
C 410 -1261 570 -1280 685 -1280 
C 845 -1280 1165 -1280 1459 -497 
L 2675 2752 
z
" transform="scale(0.015625)"/>
      </defs>
      <use xlink:href="#CMSS17-61" transform="scale(0.996264)"/>
      <use xlink:href="#CMSS17-64" transform="translate(44.921921 0) scale(0.996264)"/>
      <use xlink:href="#CMSS17-68" transform="translate(93.126864 0) scale(0.996264)"/>
      <use xlink:href="#CMSS17-65" transform="translate(141.331807 0) scale(0.996264)"/>
      <use xlink:href="#CMSS17-73" transform="translate(182.970629 0) scale(0.996264)"/>
      <use xlink:href="#CMSS17-69" transform="translate(218.884171 0) scale(0.996264)"/>
      <use xlink:href="#CMSS17-76" transform="translate(241.064894 0) scale(0.996264)"/>
      <use xlink:href="#CMSS17-69" transform="translate(284.065036 0) scale(0.996264)"/>
      <use xlink:href="#CMSS17-74" transform="translate(306.245759 0) scale(0.996264)"/>
      <use xlink:href="#CMSS17-79" transform="translate(337.474871 0) scale(0.996264)"/>
     </g>
    </g>
   </g>
   <g id="matplotlib.axis_2">
    <g id="ytick_1">
     <g id="line2d_9">
      <path d="M 77.597312 480.293543 
L 1060.56 480.293543 
" clip-path="url(#pefdb9d8519)" style="fill: none; stroke: #ffffff; stroke-width: 0.8; stroke-linecap: round"/>
     </g>
     <g id="text_10">
      <!-- $\mathdefault{200}$ -->
      <g style="fill: #262626" transform="translate(47.185351 485.828338) scale(0.16 -0.16)">
       <defs>
        <path id="CMR17-32" d="M 2669 989 
L 2554 989 
C 2490 536 2438 459 2413 420 
C 2381 369 1920 369 1830 369 
L 602 369 
C 832 619 1280 1072 1824 1597 
C 2214 1967 2669 2402 2669 3035 
C 2669 3790 2067 4224 1395 4224 
C 691 4224 262 3604 262 3030 
C 262 2780 448 2748 525 2748 
C 589 2748 781 2787 781 3010 
C 781 3207 614 3264 525 3264 
C 486 3264 448 3258 422 3245 
C 544 3790 915 4058 1306 4058 
C 1862 4058 2227 3617 2227 3035 
C 2227 2479 1901 2000 1536 1584 
L 262 146 
L 262 0 
L 2515 0 
L 2669 989 
z
" transform="scale(0.015625)"/>
       </defs>
       <use xlink:href="#CMR17-32" transform="scale(0.996264)"/>
       <use xlink:href="#CMR17-30" transform="translate(45.690477 0) scale(0.996264)"/>
       <use xlink:href="#CMR17-30" transform="translate(91.380954 0) scale(0.996264)"/>
      </g>
     </g>
    </g>
    <g id="ytick_2">
     <g id="line2d_10">
      <path d="M 77.597312 379.146762 
L 1060.56 379.146762 
" clip-path="url(#pefdb9d8519)" style="fill: none; stroke: #ffffff; stroke-width: 0.8; stroke-linecap: round"/>
     </g>
     <g id="text_11">
      <!-- $\mathdefault{400}$ -->
      <g style="fill: #262626" transform="translate(47.185351 384.681556) scale(0.16 -0.16)">
       <use xlink:href="#CMR17-34" transform="scale(0.996264)"/>
       <use xlink:href="#CMR17-30" transform="translate(45.690477 0) scale(0.996264)"/>
       <use xlink:href="#CMR17-30" transform="translate(91.380954 0) scale(0.996264)"/>
      </g>
     </g>
    </g>
    <g id="ytick_3">
     <g id="line2d_11">
      <path d="M 77.597312 277.999981 
L 1060.56 277.999981 
" clip-path="url(#pefdb9d8519)" style="fill: none; stroke: #ffffff; stroke-width: 0.8; stroke-linecap: round"/>
     </g>
     <g id="text_12">
      <!-- $\mathdefault{600}$ -->
      <g style="fill: #262626" transform="translate(47.185351 283.534775) scale(0.16 -0.16)">
       <use xlink:href="#CMR17-36" transform="scale(0.996264)"/>
       <use xlink:href="#CMR17-30" transform="translate(45.690477 0) scale(0.996264)"/>
       <use xlink:href="#CMR17-30" transform="translate(91.380954 0) scale(0.996264)"/>
      </g>
     </g>
    </g>
    <g id="ytick_4">
     <g id="line2d_12">
      <path d="M 77.597312 176.853199 
L 1060.56 176.853199 
" clip-path="url(#pefdb9d8519)" style="fill: none; stroke: #ffffff; stroke-width: 0.8; stroke-linecap: round"/>
     </g>
     <g id="text_13">
      <!-- $\mathdefault{800}$ -->
      <g style="fill: #262626" transform="translate(47.185351 182.387994) scale(0.16 -0.16)">
       <use xlink:href="#CMR17-38" transform="scale(0.996264)"/>
       <use xlink:href="#CMR17-30" transform="translate(45.690477 0) scale(0.996264)"/>
       <use xlink:href="#CMR17-30" transform="translate(91.380954 0) scale(0.996264)"/>
      </g>
     </g>
    </g>
    <g id="ytick_5">
     <g id="line2d_13">
      <path d="M 77.597312 75.706418 
L 1060.56 75.706418 
" clip-path="url(#pefdb9d8519)" style="fill: none; stroke: #ffffff; stroke-width: 0.8; stroke-linecap: round"/>
     </g>
     <g id="text_14">
      <!-- $\mathdefault{1000}$ -->
      <g style="fill: #262626" transform="translate(39.381364 81.241212) scale(0.16 -0.16)">
       <use xlink:href="#CMR17-31" transform="scale(0.996264)"/>
       <use xlink:href="#CMR17-30" transform="translate(45.690477 0) scale(0.996264)"/>
       <use xlink:href="#CMR17-30" transform="translate(91.380954 0) scale(0.996264)"/>
       <use xlink:href="#CMR17-30" transform="translate(137.071431 0) scale(0.996264)"/>
      </g>
     </g>
    </g>
    <g id="text_15">
     <!-- termination_time -->
     <g style="fill: #262626" transform="translate(31.8933 326.267444) rotate(-90) scale(0.18 -0.18)">
      <defs>
       <path id="CMSS17-72" d="M 954 1363 
C 954 1965 1395 2368 1958 2368 
L 1958 2789 
C 1549 2789 1165 2585 934 2253 
L 934 2758 
L 480 2758 
L 480 0 
L 954 0 
L 954 1363 
z
" transform="scale(0.015625)"/>
       <path id="CMSS17-6d" d="M 4288 1877 
C 4288 2308 4179 2816 3462 2816 
C 2982 2816 2694 2516 2566 2331 
C 2451 2670 2182 2816 1798 2816 
C 1363 2816 1088 2568 941 2389 
L 941 2758 
L 474 2758 
L 474 0 
L 960 0 
L 960 1559 
C 960 1939 1101 2428 1555 2428 
C 2138 2428 2138 2016 2138 1829 
L 2138 0 
L 2624 0 
L 2624 1559 
C 2624 1939 2765 2428 3219 2428 
C 3802 2428 3802 2016 3802 1829 
L 3802 0 
L 4288 0 
L 4288 1877 
z
" transform="scale(0.015625)"/>
       <path id="CMSS17-6e" d="M 2618 1877 
C 2618 2283 2522 2816 1798 2816 
C 1389 2816 1120 2606 941 2389 
L 941 2758 
L 474 2758 
L 474 0 
L 960 0 
L 960 1559 
C 960 1964 1114 2428 1549 2428 
C 2112 2428 2131 2048 2131 1829 
L 2131 0 
L 2618 0 
L 2618 1877 
z
" transform="scale(0.015625)"/>
       <path id="CMSS17-6f" d="M 2829 1356 
C 2829 2176 2221 2816 1504 2816 
C 768 2816 173 2157 173 1356 
C 173 544 787 -64 1498 -64 
C 2227 -64 2829 563 2829 1356 
z
M 1504 337 
C 1050 337 659 709 659 1408 
C 659 2151 1114 2427 1498 2427 
C 1914 2427 2342 2126 2342 1408 
C 2342 683 1926 337 1504 337 
z
" transform="scale(0.015625)"/>
      </defs>
      <use xlink:href="#CMSS17-74" transform="scale(0.996264)"/>
      <use xlink:href="#CMSS17-65" transform="translate(33.831567 0) scale(0.996264)"/>
      <use xlink:href="#CMSS17-72" transform="translate(75.470389 0) scale(0.996264)"/>
      <use xlink:href="#CMSS17-6d" transform="translate(107.380161 0) scale(0.996264)"/>
      <use xlink:href="#CMSS17-69" transform="translate(181.609416 0) scale(0.996264)"/>
      <use xlink:href="#CMSS17-6e" transform="translate(203.790139 0) scale(0.996264)"/>
      <use xlink:href="#CMSS17-61" transform="translate(251.995082 0) scale(0.996264)"/>
      <use xlink:href="#CMSS17-74" transform="translate(296.917003 0) scale(0.996264)"/>
      <use xlink:href="#CMSS17-69" transform="translate(330.748569 0) scale(0.996264)"/>
      <use xlink:href="#CMSS17-6f" transform="translate(352.929292 0) scale(0.996264)"/>
      <use xlink:href="#CMSS17-6e" transform="translate(399.772916 0) scale(0.996264)"/>
      <use xlink:href="#CMSS17-74" transform="translate(481.705354 0) scale(0.996264)"/>
      <use xlink:href="#CMSS17-69" transform="translate(515.536921 0) scale(0.996264)"/>
      <use xlink:href="#CMSS17-6d" transform="translate(537.717644 0) scale(0.996264)"/>
      <use xlink:href="#CMSS17-65" transform="translate(611.946898 0) scale(0.996264)"/>
      <path d="M 453.59887 0 
L 481.705354 0 
L 481.705354 0.3985 
L 453.59887 0.3985 
L 453.59887 0 
z
"/>
     </g>
    </g>
   </g>
   <g id="PathCollection_1">
    <defs>
     <path id="C0_0_92e0b27fd9" d="M 0 3 
C 0.795609 3 1.55874 2.683901 2.12132 2.12132 
C 2.683901 1.55874 3 0.795609 3 -0 
C 3 -0.795609 2.683901 -1.55874 2.12132 -2.12132 
C 1.55874 -2.683901 0.795609 -3 0 -3 
C -0.795609 -3 -1.55874 -2.683901 -2.12132 -2.12132 
C -2.683901 -1.55874 -3 -0.795609 -3 0 
C -3 0.795609 -2.683901 1.55874 -2.12132 2.12132 
C -1.55874 2.683901 -0.795609 3 0 3 
z
"/>
    </defs>
    <g clip-path="url(#pefdb9d8519)">
     <use xlink:href="#C0_0_92e0b27fd9" x="186.02422" y="231.620938" style="fill: #637939; stroke: #ffffff; stroke-width: 0.48"/>
    </g>
    <g clip-path="url(#pefdb9d8519)">
     <use xlink:href="#C0_0_92e0b27fd9" x="186.02422" y="301.931911" style="fill: #8c6d31; stroke: #ffffff; stroke-width: 0.48"/>
    </g>
    <g clip-path="url(#pefdb9d8519)">
     <use xlink:href="#C0_0_92e0b27fd9" x="695.998507" y="448.386917" style="fill: #8c6d31; stroke: #ffffff; stroke-width: 0.48"/>
    </g>
    <g clip-path="url(#pefdb9d8519)">
     <use xlink:href="#C0_0_92e0b27fd9" x="695.998507" y="414.830667" style="fill: #637939; stroke: #ffffff; stroke-width: 0.48"/>
    </g>
    <g clip-path="url(#pefdb9d8519)">
     <use xlink:href="#C0_0_92e0b27fd9" x="186.02422" y="114.680723" style="fill: #393b79; stroke: #ffffff; stroke-width: 0.48"/>
    </g>
    <g clip-path="url(#pefdb9d8519)">
     <use xlink:href="#C0_0_92e0b27fd9" x="695.998507" y="358.867565" style="fill: #393b79; stroke: #ffffff; stroke-width: 0.48"/>
    </g>
    <g clip-path="url(#pefdb9d8519)">
     <use xlink:href="#C0_0_92e0b27fd9" x="823.492078" y="435.139978" style="fill: #637939; stroke: #ffffff; stroke-width: 0.48"/>
    </g>
    <g clip-path="url(#pefdb9d8519)">
     <use xlink:href="#C0_0_92e0b27fd9" x="313.517792" y="213.515997" style="fill: #393b79; stroke: #ffffff; stroke-width: 0.48"/>
    </g>
    <g clip-path="url(#pefdb9d8519)">
     <use xlink:href="#C0_0_92e0b27fd9" x="823.492078" y="464.632235" style="fill: #8c6d31; stroke: #ffffff; stroke-width: 0.48"/>
    </g>
    <g clip-path="url(#pefdb9d8519)">
     <use xlink:href="#C0_0_92e0b27fd9" x="313.517792" y="305.751381" style="fill: #637939; stroke: #ffffff; stroke-width: 0.48"/>
    </g>
    <g clip-path="url(#pefdb9d8519)">
     <use xlink:href="#C0_0_92e0b27fd9" x="823.492078" y="385.975461" style="fill: #393b79; stroke: #ffffff; stroke-width: 0.48"/>
    </g>
    <g clip-path="url(#pefdb9d8519)">
     <use xlink:href="#C0_0_92e0b27fd9" x="313.517792" y="361.136671" style="fill: #8c6d31; stroke: #ffffff; stroke-width: 0.48"/>
    </g>
    <g clip-path="url(#pefdb9d8519)">
     <use xlink:href="#C0_0_92e0b27fd9" x="568.504935" y="324.221338" style="fill: #393b79; stroke: #ffffff; stroke-width: 0.48"/>
    </g>
    <g clip-path="url(#pefdb9d8519)">
     <use xlink:href="#C0_0_92e0b27fd9" x="568.504935" y="388.828938" style="fill: #637939; stroke: #ffffff; stroke-width: 0.48"/>
    </g>
    <g clip-path="url(#pefdb9d8519)">
     <use xlink:href="#C0_0_92e0b27fd9" x="568.504935" y="427.590946" style="fill: #8c6d31; stroke: #ffffff; stroke-width: 0.48"/>
    </g>
    <g clip-path="url(#pefdb9d8519)">
     <use xlink:href="#C0_0_92e0b27fd9" x="441.011363" y="399.92008" style="fill: #8c6d31; stroke: #ffffff; stroke-width: 0.48"/>
    </g>
    <g clip-path="url(#pefdb9d8519)">
     <use xlink:href="#C0_0_92e0b27fd9" x="441.011363" y="354.277656" style="fill: #637939; stroke: #ffffff; stroke-width: 0.48"/>
    </g>
    <g clip-path="url(#pefdb9d8519)">
     <use xlink:href="#C0_0_92e0b27fd9" x="950.98565" y="407.789794" style="fill: #393b79; stroke: #ffffff; stroke-width: 0.48"/>
    </g>
    <g clip-path="url(#pefdb9d8519)">
     <use xlink:href="#C0_0_92e0b27fd9" x="950.98565" y="477.690445" style="fill: #8c6d31; stroke: #ffffff; stroke-width: 0.48"/>
    </g>
    <g clip-path="url(#pefdb9d8519)">
     <use xlink:href="#C0_0_92e0b27fd9" x="950.98565" y="451.495536" style="fill: #637939; stroke: #ffffff; stroke-width: 0.48"/>
    </g>
    <g clip-path="url(#pefdb9d8519)">
     <use xlink:href="#C0_0_92e0b27fd9" x="441.011363" y="278.215742" style="fill: #393b79; stroke: #ffffff; stroke-width: 0.48"/>
    </g>
    <g clip-path="url(#pefdb9d8519)">
     <use xlink:href="#C0_0_92e0b27fd9" x="377.264578" y="332.291852" style="fill: #637939; stroke: #ffffff; stroke-width: 0.48"/>
    </g>
    <g clip-path="url(#pefdb9d8519)">
     <use xlink:href="#C0_0_92e0b27fd9" x="377.264578" y="382.360965" style="fill: #8c6d31; stroke: #ffffff; stroke-width: 0.48"/>
    </g>
    <g clip-path="url(#pefdb9d8519)">
     <use xlink:href="#C0_0_92e0b27fd9" x="249.771006" y="169.952785" style="fill: #393b79; stroke: #ffffff; stroke-width: 0.48"/>
    </g>
    <g clip-path="url(#pefdb9d8519)">
     <use xlink:href="#C0_0_92e0b27fd9" x="377.264578" y="248.848015" style="fill: #393b79; stroke: #ffffff; stroke-width: 0.48"/>
    </g>
    <g clip-path="url(#pefdb9d8519)">
     <use xlink:href="#C0_0_92e0b27fd9" x="249.771006" y="335.033008" style="fill: #8c6d31; stroke: #ffffff; stroke-width: 0.48"/>
    </g>
    <g clip-path="url(#pefdb9d8519)">
     <use xlink:href="#C0_0_92e0b27fd9" x="249.771006" y="273.118847" style="fill: #637939; stroke: #ffffff; stroke-width: 0.48"/>
    </g>
    <g clip-path="url(#pefdb9d8519)">
     <use xlink:href="#C0_0_92e0b27fd9" x="504.758149" y="414.853963" style="fill: #8c6d31; stroke: #ffffff; stroke-width: 0.48"/>
    </g>
    <g clip-path="url(#pefdb9d8519)">
     <use xlink:href="#C0_0_92e0b27fd9" x="504.758149" y="372.89044" style="fill: #637939; stroke: #ffffff; stroke-width: 0.48"/>
    </g>
    <g clip-path="url(#pefdb9d8519)">
     <use xlink:href="#C0_0_92e0b27fd9" x="632.251721" y="342.672149" style="fill: #393b79; stroke: #ffffff; stroke-width: 0.48"/>
    </g>
    <g clip-path="url(#pefdb9d8519)">
     <use xlink:href="#C0_0_92e0b27fd9" x="504.758149" y="302.959062" style="fill: #393b79; stroke: #ffffff; stroke-width: 0.48"/>
    </g>
    <g clip-path="url(#pefdb9d8519)">
     <use xlink:href="#C0_0_92e0b27fd9" x="632.251721" y="402.663468" style="fill: #637939; stroke: #ffffff; stroke-width: 0.48"/>
    </g>
    <g clip-path="url(#pefdb9d8519)">
     <use xlink:href="#C0_0_92e0b27fd9" x="632.251721" y="438.668506" style="fill: #8c6d31; stroke: #ffffff; stroke-width: 0.48"/>
    </g>
    <g clip-path="url(#pefdb9d8519)">
     <use xlink:href="#C0_0_92e0b27fd9" x="887.238864" y="397.449728" style="fill: #393b79; stroke: #ffffff; stroke-width: 0.48"/>
    </g>
    <g clip-path="url(#pefdb9d8519)">
     <use xlink:href="#C0_0_92e0b27fd9" x="759.745292" y="456.965811" style="fill: #8c6d31; stroke: #ffffff; stroke-width: 0.48"/>
    </g>
    <g clip-path="url(#pefdb9d8519)">
     <use xlink:href="#C0_0_92e0b27fd9" x="122.277434" y="258.218108" style="fill: #8c6d31; stroke: #ffffff; stroke-width: 0.48"/>
    </g>
    <g clip-path="url(#pefdb9d8519)">
     <use xlink:href="#C0_0_92e0b27fd9" x="122.277434" y="177.2134" style="fill: #637939; stroke: #ffffff; stroke-width: 0.48"/>
    </g>
    <g clip-path="url(#pefdb9d8519)">
     <use xlink:href="#C0_0_92e0b27fd9" x="759.745292" y="425.550987" style="fill: #637939; stroke: #ffffff; stroke-width: 0.48"/>
    </g>
    <g clip-path="url(#pefdb9d8519)">
     <use xlink:href="#C0_0_92e0b27fd9" x="887.238864" y="443.725003" style="fill: #637939; stroke: #ffffff; stroke-width: 0.48"/>
    </g>
    <g clip-path="url(#pefdb9d8519)">
     <use xlink:href="#C0_0_92e0b27fd9" x="887.238864" y="471.503822" style="fill: #8c6d31; stroke: #ffffff; stroke-width: 0.48"/>
    </g>
    <g clip-path="url(#pefdb9d8519)">
     <use xlink:href="#C0_0_92e0b27fd9" x="759.745292" y="373.208138" style="fill: #393b79; stroke: #ffffff; stroke-width: 0.48"/>
    </g>
    <g clip-path="url(#pefdb9d8519)">
     <use xlink:href="#C0_0_92e0b27fd9" x="122.277434" y="41.98589" style="fill: #393b79; stroke: #ffffff; stroke-width: 0.48"/>
    </g>
    <g clip-path="url(#pefdb9d8519)">
     <use xlink:href="#C0_0_92e0b27fd9" x="1014.732436" y="483.316985" style="fill: #8c6d31; stroke: #ffffff; stroke-width: 0.48"/>
    </g>
    <g clip-path="url(#pefdb9d8519)">
     <use xlink:href="#C0_0_92e0b27fd9" x="1014.732436" y="458.505703" style="fill: #637939; stroke: #ffffff; stroke-width: 0.48"/>
    </g>
    <g clip-path="url(#pefdb9d8519)">
     <use xlink:href="#C0_0_92e0b27fd9" x="1014.732436" y="417.150412" style="fill: #393b79; stroke: #ffffff; stroke-width: 0.48"/>
    </g>
    <g clip-path="url(#pefdb9d8519)">
     <use xlink:href="#C0_0_92e0b27fd9" x="377.264578" y="400.574546" style="fill: #e7cb94; stroke: #ffffff; stroke-width: 0.48"/>
    </g>
    <g clip-path="url(#pefdb9d8519)">
     <use xlink:href="#C0_0_92e0b27fd9" x="759.745292" y="403.142208" style="fill: #6b6ecf; stroke: #ffffff; stroke-width: 0.48"/>
    </g>
    <g clip-path="url(#pefdb9d8519)">
     <use xlink:href="#C0_0_92e0b27fd9" x="887.238864" y="481.595182" style="fill: #e7cb94; stroke: #ffffff; stroke-width: 0.48"/>
    </g>
    <g clip-path="url(#pefdb9d8519)">
     <use xlink:href="#C0_0_92e0b27fd9" x="122.277434" y="222.198209" style="fill: #b5cf6b; stroke: #ffffff; stroke-width: 0.48"/>
    </g>
    <g clip-path="url(#pefdb9d8519)">
     <use xlink:href="#C0_0_92e0b27fd9" x="1014.732436" y="492.349118" style="fill: #e7cb94; stroke: #ffffff; stroke-width: 0.48"/>
    </g>
    <g clip-path="url(#pefdb9d8519)">
     <use xlink:href="#C0_0_92e0b27fd9" x="632.251721" y="422.669542" style="fill: #b5cf6b; stroke: #ffffff; stroke-width: 0.48"/>
    </g>
    <g clip-path="url(#pefdb9d8519)">
     <use xlink:href="#C0_0_92e0b27fd9" x="249.771006" y="228.844844" style="fill: #6b6ecf; stroke: #ffffff; stroke-width: 0.48"/>
    </g>
    <g clip-path="url(#pefdb9d8519)">
     <use xlink:href="#C0_0_92e0b27fd9" x="122.277434" y="119.366324" style="fill: #6b6ecf; stroke: #ffffff; stroke-width: 0.48"/>
    </g>
    <g clip-path="url(#pefdb9d8519)">
     <use xlink:href="#C0_0_92e0b27fd9" x="632.251721" y="376.987839" style="fill: #6b6ecf; stroke: #ffffff; stroke-width: 0.48"/>
    </g>
    <g clip-path="url(#pefdb9d8519)">
     <use xlink:href="#C0_0_92e0b27fd9" x="249.771006" y="307.430019" style="fill: #b5cf6b; stroke: #ffffff; stroke-width: 0.48"/>
    </g>
    <g clip-path="url(#pefdb9d8519)">
     <use xlink:href="#C0_0_92e0b27fd9" x="504.758149" y="430.103129" style="fill: #e7cb94; stroke: #ffffff; stroke-width: 0.48"/>
    </g>
    <g clip-path="url(#pefdb9d8519)">
     <use xlink:href="#C0_0_92e0b27fd9" x="759.745292" y="443.012101" style="fill: #b5cf6b; stroke: #ffffff; stroke-width: 0.48"/>
    </g>
    <g clip-path="url(#pefdb9d8519)">
     <use xlink:href="#C0_0_92e0b27fd9" x="759.745292" y="468.396777" style="fill: #e7cb94; stroke: #ffffff; stroke-width: 0.48"/>
    </g>
    <g clip-path="url(#pefdb9d8519)">
     <use xlink:href="#C0_0_92e0b27fd9" x="377.264578" y="296.552582" style="fill: #6b6ecf; stroke: #ffffff; stroke-width: 0.48"/>
    </g>
    <g clip-path="url(#pefdb9d8519)">
     <use xlink:href="#C0_0_92e0b27fd9" x="504.758149" y="396.202526" style="fill: #b5cf6b; stroke: #ffffff; stroke-width: 0.48"/>
    </g>
    <g clip-path="url(#pefdb9d8519)">
     <use xlink:href="#C0_0_92e0b27fd9" x="1014.732436" y="440.788283" style="fill: #6b6ecf; stroke: #ffffff; stroke-width: 0.48"/>
    </g>
    <g clip-path="url(#pefdb9d8519)">
     <use xlink:href="#C0_0_92e0b27fd9" x="249.771006" y="357.487826" style="fill: #e7cb94; stroke: #ffffff; stroke-width: 0.48"/>
    </g>
    <g clip-path="url(#pefdb9d8519)">
     <use xlink:href="#C0_0_92e0b27fd9" x="887.238864" y="423.878448" style="fill: #6b6ecf; stroke: #ffffff; stroke-width: 0.48"/>
    </g>
    <g clip-path="url(#pefdb9d8519)">
     <use xlink:href="#C0_0_92e0b27fd9" x="1014.732436" y="472.276896" style="fill: #b5cf6b; stroke: #ffffff; stroke-width: 0.48"/>
    </g>
    <g clip-path="url(#pefdb9d8519)">
     <use xlink:href="#C0_0_92e0b27fd9" x="632.251721" y="451.76203" style="fill: #e7cb94; stroke: #ffffff; stroke-width: 0.48"/>
    </g>
    <g clip-path="url(#pefdb9d8519)">
     <use xlink:href="#C0_0_92e0b27fd9" x="887.238864" y="459.151281" style="fill: #b5cf6b; stroke: #ffffff; stroke-width: 0.48"/>
    </g>
    <g clip-path="url(#pefdb9d8519)">
     <use xlink:href="#C0_0_92e0b27fd9" x="122.277434" y="287.756917" style="fill: #e7cb94; stroke: #ffffff; stroke-width: 0.48"/>
    </g>
    <g clip-path="url(#pefdb9d8519)">
     <use xlink:href="#C0_0_92e0b27fd9" x="377.264578" y="360.096963" style="fill: #b5cf6b; stroke: #ffffff; stroke-width: 0.48"/>
    </g>
    <g clip-path="url(#pefdb9d8519)">
     <use xlink:href="#C0_0_92e0b27fd9" x="504.758149" y="342.880477" style="fill: #6b6ecf; stroke: #ffffff; stroke-width: 0.48"/>
    </g>
    <g clip-path="url(#pefdb9d8519)">
     <use xlink:href="#C0_0_92e0b27fd9" x="950.98565" y="466.041204" style="fill: #b5cf6b; stroke: #ffffff; stroke-width: 0.48"/>
    </g>
    <g clip-path="url(#pefdb9d8519)">
     <use xlink:href="#C0_0_92e0b27fd9" x="823.492078" y="451.529554" style="fill: #b5cf6b; stroke: #ffffff; stroke-width: 0.48"/>
    </g>
    <g clip-path="url(#pefdb9d8519)">
     <use xlink:href="#C0_0_92e0b27fd9" x="186.02422" y="181.562243" style="fill: #6b6ecf; stroke: #ffffff; stroke-width: 0.48"/>
    </g>
    <g clip-path="url(#pefdb9d8519)">
     <use xlink:href="#C0_0_92e0b27fd9" x="568.504935" y="361.187522" style="fill: #6b6ecf; stroke: #ffffff; stroke-width: 0.48"/>
    </g>
    <g clip-path="url(#pefdb9d8519)">
     <use xlink:href="#C0_0_92e0b27fd9" x="695.998507" y="390.866446" style="fill: #6b6ecf; stroke: #ffffff; stroke-width: 0.48"/>
    </g>
    <g clip-path="url(#pefdb9d8519)">
     <use xlink:href="#C0_0_92e0b27fd9" x="441.011363" y="321.621017" style="fill: #6b6ecf; stroke: #ffffff; stroke-width: 0.48"/>
    </g>
    <g clip-path="url(#pefdb9d8519)">
     <use xlink:href="#C0_0_92e0b27fd9" x="313.517792" y="266.272251" style="fill: #6b6ecf; stroke: #ffffff; stroke-width: 0.48"/>
    </g>
    <g clip-path="url(#pefdb9d8519)">
     <use xlink:href="#C0_0_92e0b27fd9" x="568.504935" y="410.357059" style="fill: #b5cf6b; stroke: #ffffff; stroke-width: 0.48"/>
    </g>
    <g clip-path="url(#pefdb9d8519)">
     <use xlink:href="#C0_0_92e0b27fd9" x="695.998507" y="433.474374" style="fill: #b5cf6b; stroke: #ffffff; stroke-width: 0.48"/>
    </g>
    <g clip-path="url(#pefdb9d8519)">
     <use xlink:href="#C0_0_92e0b27fd9" x="441.011363" y="379.673017" style="fill: #b5cf6b; stroke: #ffffff; stroke-width: 0.48"/>
    </g>
    <g clip-path="url(#pefdb9d8519)">
     <use xlink:href="#C0_0_92e0b27fd9" x="313.517792" y="336.528226" style="fill: #b5cf6b; stroke: #ffffff; stroke-width: 0.48"/>
    </g>
    <g clip-path="url(#pefdb9d8519)">
     <use xlink:href="#C0_0_92e0b27fd9" x="950.98565" y="432.748952" style="fill: #6b6ecf; stroke: #ffffff; stroke-width: 0.48"/>
    </g>
    <g clip-path="url(#pefdb9d8519)">
     <use xlink:href="#C0_0_92e0b27fd9" x="823.492078" y="414.089028" style="fill: #6b6ecf; stroke: #ffffff; stroke-width: 0.48"/>
    </g>
    <g clip-path="url(#pefdb9d8519)">
     <use xlink:href="#C0_0_92e0b27fd9" x="186.02422" y="270.690649" style="fill: #b5cf6b; stroke: #ffffff; stroke-width: 0.48"/>
    </g>
    <g clip-path="url(#pefdb9d8519)">
     <use xlink:href="#C0_0_92e0b27fd9" x="186.02422" y="327.37639" style="fill: #e7cb94; stroke: #ffffff; stroke-width: 0.48"/>
    </g>
    <g clip-path="url(#pefdb9d8519)">
     <use xlink:href="#C0_0_92e0b27fd9" x="441.011363" y="416.559198" style="fill: #e7cb94; stroke: #ffffff; stroke-width: 0.48"/>
    </g>
    <g clip-path="url(#pefdb9d8519)">
     <use xlink:href="#C0_0_92e0b27fd9" x="313.517792" y="381.282633" style="fill: #e7cb94; stroke: #ffffff; stroke-width: 0.48"/>
    </g>
    <g clip-path="url(#pefdb9d8519)">
     <use xlink:href="#C0_0_92e0b27fd9" x="568.504935" y="441.685539" style="fill: #e7cb94; stroke: #ffffff; stroke-width: 0.48"/>
    </g>
    <g clip-path="url(#pefdb9d8519)">
     <use xlink:href="#C0_0_92e0b27fd9" x="695.998507" y="460.58456" style="fill: #e7cb94; stroke: #ffffff; stroke-width: 0.48"/>
    </g>
    <g clip-path="url(#pefdb9d8519)">
     <use xlink:href="#C0_0_92e0b27fd9" x="950.98565" y="487.225598" style="fill: #e7cb94; stroke: #ffffff; stroke-width: 0.48"/>
    </g>
    <g clip-path="url(#pefdb9d8519)">
     <use xlink:href="#C0_0_92e0b27fd9" x="823.492078" y="475.372127" style="fill: #e7cb94; stroke: #ffffff; stroke-width: 0.48"/>
    </g>
   </g>
   <g id="PathCollection_2">
    <defs>
     <path id="m0f01e44b0e" d="M -3 3 
L 3 -3 
M -3 -3 
L 3 3 
" style="stroke: #000000; stroke-width: 2"/>
    </defs>
    <g clip-path="url(#pefdb9d8519)">
     <use xlink:href="#m0f01e44b0e" x="313.517792" y="302.787766" style="stroke: #000000; stroke-width: 2"/>
     <use xlink:href="#m0f01e44b0e" x="186.02422" y="226.182464" style="stroke: #000000; stroke-width: 2"/>
     <use xlink:href="#m0f01e44b0e" x="632.251721" y="401.707636" style="stroke: #000000; stroke-width: 2"/>
     <use xlink:href="#m0f01e44b0e" x="568.504935" y="324.396085" style="stroke: #000000; stroke-width: 2"/>
     <use xlink:href="#m0f01e44b0e" x="950.98565" y="408.081478" style="stroke: #000000; stroke-width: 2"/>
     <use xlink:href="#m0f01e44b0e" x="823.492078" y="385.953356" style="stroke: #000000; stroke-width: 2"/>
     <use xlink:href="#m0f01e44b0e" x="441.011363" y="352.12569" style="stroke: #000000; stroke-width: 2"/>
     <use xlink:href="#m0f01e44b0e" x="504.758149" y="371.102002" style="stroke: #000000; stroke-width: 2"/>
     <use xlink:href="#m0f01e44b0e" x="632.251721" y="440.1563" style="stroke: #000000; stroke-width: 2"/>
     <use xlink:href="#m0f01e44b0e" x="695.998507" y="450.118393" style="stroke: #000000; stroke-width: 2"/>
     <use xlink:href="#m0f01e44b0e" x="313.517792" y="215.342394" style="stroke: #000000; stroke-width: 2"/>
     <use xlink:href="#m0f01e44b0e" x="313.517792" y="362.433768" style="stroke: #000000; stroke-width: 2"/>
     <use xlink:href="#m0f01e44b0e" x="887.238864" y="443.027283" style="stroke: #000000; stroke-width: 2"/>
     <use xlink:href="#m0f01e44b0e" x="504.758149" y="415.93131" style="stroke: #000000; stroke-width: 2"/>
     <use xlink:href="#m0f01e44b0e" x="950.98565" y="450.257655" style="stroke: #000000; stroke-width: 2"/>
     <use xlink:href="#m0f01e44b0e" x="950.98565" y="478.642473" style="stroke: #000000; stroke-width: 2"/>
     <use xlink:href="#m0f01e44b0e" x="441.011363" y="401.040435" style="stroke: #000000; stroke-width: 2"/>
     <use xlink:href="#m0f01e44b0e" x="249.771006" y="269.239455" style="stroke: #000000; stroke-width: 2"/>
     <use xlink:href="#m0f01e44b0e" x="249.771006" y="172.784006" style="stroke: #000000; stroke-width: 2"/>
     <use xlink:href="#m0f01e44b0e" x="377.264578" y="329.76678" style="stroke: #000000; stroke-width: 2"/>
     <use xlink:href="#m0f01e44b0e" x="377.264578" y="249.929841" style="stroke: #000000; stroke-width: 2"/>
     <use xlink:href="#m0f01e44b0e" x="568.504935" y="428.843921" style="stroke: #000000; stroke-width: 2"/>
     <use xlink:href="#m0f01e44b0e" x="441.011363" y="278.752437" style="stroke: #000000; stroke-width: 2"/>
     <use xlink:href="#m0f01e44b0e" x="186.02422" y="301.575317" style="stroke: #000000; stroke-width: 2"/>
     <use xlink:href="#m0f01e44b0e" x="568.504935" y="387.465356" style="stroke: #000000; stroke-width: 2"/>
     <use xlink:href="#m0f01e44b0e" x="695.998507" y="358.942511" style="stroke: #000000; stroke-width: 2"/>
     <use xlink:href="#m0f01e44b0e" x="249.771006" y="335.985225" style="stroke: #000000; stroke-width: 2"/>
     <use xlink:href="#m0f01e44b0e" x="759.745292" y="425.09988" style="stroke: #000000; stroke-width: 2"/>
     <use xlink:href="#m0f01e44b0e" x="823.492078" y="434.680364" style="stroke: #000000; stroke-width: 2"/>
     <use xlink:href="#m0f01e44b0e" x="122.277434" y="255.339835" style="stroke: #000000; stroke-width: 2"/>
     <use xlink:href="#m0f01e44b0e" x="1014.732436" y="483.151389" style="stroke: #000000; stroke-width: 2"/>
     <use xlink:href="#m0f01e44b0e" x="122.277434" y="169.398367" style="stroke: #000000; stroke-width: 2"/>
     <use xlink:href="#m0f01e44b0e" x="1014.732436" y="456.695322" style="stroke: #000000; stroke-width: 2"/>
     <use xlink:href="#m0f01e44b0e" x="122.277434" y="49.466454" style="stroke: #000000; stroke-width: 2"/>
     <use xlink:href="#m0f01e44b0e" x="1014.732436" y="418.375825" style="stroke: #000000; stroke-width: 2"/>
    </g>
   </g>
   <g id="PathCollection_3">
    <defs>
     <path id="mb3ed44dba8" d="M 0 3 
C 0.795609 3 1.55874 2.683901 2.12132 2.12132 
C 2.683901 1.55874 3 0.795609 3 0 
C 3 -0.795609 2.683901 -1.55874 2.12132 -2.12132 
C 1.55874 -2.683901 0.795609 -3 0 -3 
C -0.795609 -3 -1.55874 -2.683901 -2.12132 -2.12132 
C -2.683901 -1.55874 -3 -0.795609 -3 0 
C -3 0.795609 -2.683901 1.55874 -2.12132 2.12132 
C -1.55874 2.683901 -0.795609 3 0 3 
z
" style="stroke: #ffffff; stroke-width: 0.48"/>
    </defs>
    <g clip-path="url(#pefdb9d8519)">
     <use xlink:href="#mb3ed44dba8" x="568.504935" y="324.221338" style="fill: #ff0000; stroke: #ffffff; stroke-width: 0.48"/>
     <use xlink:href="#mb3ed44dba8" x="950.98565" y="407.789794" style="fill: #ff0000; stroke: #ffffff; stroke-width: 0.48"/>
     <use xlink:href="#mb3ed44dba8" x="313.517792" y="213.515997" style="fill: #ff0000; stroke: #ffffff; stroke-width: 0.48"/>
     <use xlink:href="#mb3ed44dba8" x="823.492078" y="385.975461" style="fill: #ff0000; stroke: #ffffff; stroke-width: 0.48"/>
     <use xlink:href="#mb3ed44dba8" x="377.264578" y="248.848015" style="fill: #ff0000; stroke: #ffffff; stroke-width: 0.48"/>
     <use xlink:href="#mb3ed44dba8" x="441.011363" y="278.215742" style="fill: #ff0000; stroke: #ffffff; stroke-width: 0.48"/>
     <use xlink:href="#mb3ed44dba8" x="695.998507" y="358.867565" style="fill: #ff0000; stroke: #ffffff; stroke-width: 0.48"/>
     <use xlink:href="#mb3ed44dba8" x="249.771006" y="169.952785" style="fill: #ff0000; stroke: #ffffff; stroke-width: 0.48"/>
     <use xlink:href="#mb3ed44dba8" x="122.277434" y="41.98589" style="fill: #ff0000; stroke: #ffffff; stroke-width: 0.48"/>
     <use xlink:href="#mb3ed44dba8" x="1014.732436" y="417.150412" style="fill: #ff0000; stroke: #ffffff; stroke-width: 0.48"/>
     <use xlink:href="#mb3ed44dba8" x="441.011363" y="354.277656" style="fill: #ff0000; stroke: #ffffff; stroke-width: 0.48"/>
     <use xlink:href="#mb3ed44dba8" x="249.771006" y="273.118847" style="fill: #ff0000; stroke: #ffffff; stroke-width: 0.48"/>
     <use xlink:href="#mb3ed44dba8" x="632.251721" y="402.663468" style="fill: #ff0000; stroke: #ffffff; stroke-width: 0.48"/>
     <use xlink:href="#mb3ed44dba8" x="504.758149" y="372.89044" style="fill: #ff0000; stroke: #ffffff; stroke-width: 0.48"/>
     <use xlink:href="#mb3ed44dba8" x="887.238864" y="443.725003" style="fill: #ff0000; stroke: #ffffff; stroke-width: 0.48"/>
     <use xlink:href="#mb3ed44dba8" x="377.264578" y="332.291852" style="fill: #ff0000; stroke: #ffffff; stroke-width: 0.48"/>
     <use xlink:href="#mb3ed44dba8" x="950.98565" y="451.495536" style="fill: #ff0000; stroke: #ffffff; stroke-width: 0.48"/>
     <use xlink:href="#mb3ed44dba8" x="759.745292" y="425.550987" style="fill: #ff0000; stroke: #ffffff; stroke-width: 0.48"/>
     <use xlink:href="#mb3ed44dba8" x="568.504935" y="388.828938" style="fill: #ff0000; stroke: #ffffff; stroke-width: 0.48"/>
     <use xlink:href="#mb3ed44dba8" x="823.492078" y="435.139978" style="fill: #ff0000; stroke: #ffffff; stroke-width: 0.48"/>
     <use xlink:href="#mb3ed44dba8" x="122.277434" y="177.2134" style="fill: #ff0000; stroke: #ffffff; stroke-width: 0.48"/>
     <use xlink:href="#mb3ed44dba8" x="1014.732436" y="458.505703" style="fill: #ff0000; stroke: #ffffff; stroke-width: 0.48"/>
     <use xlink:href="#mb3ed44dba8" x="313.517792" y="305.751381" style="fill: #ff0000; stroke: #ffffff; stroke-width: 0.48"/>
     <use xlink:href="#mb3ed44dba8" x="186.02422" y="231.620938" style="fill: #ff0000; stroke: #ffffff; stroke-width: 0.48"/>
     <use xlink:href="#mb3ed44dba8" x="249.771006" y="335.033008" style="fill: #ff0000; stroke: #ffffff; stroke-width: 0.48"/>
     <use xlink:href="#mb3ed44dba8" x="632.251721" y="438.668506" style="fill: #ff0000; stroke: #ffffff; stroke-width: 0.48"/>
     <use xlink:href="#mb3ed44dba8" x="313.517792" y="361.136671" style="fill: #ff0000; stroke: #ffffff; stroke-width: 0.48"/>
     <use xlink:href="#mb3ed44dba8" x="695.998507" y="448.386917" style="fill: #ff0000; stroke: #ffffff; stroke-width: 0.48"/>
     <use xlink:href="#mb3ed44dba8" x="568.504935" y="427.590946" style="fill: #ff0000; stroke: #ffffff; stroke-width: 0.48"/>
     <use xlink:href="#mb3ed44dba8" x="950.98565" y="477.690445" style="fill: #ff0000; stroke: #ffffff; stroke-width: 0.48"/>
     <use xlink:href="#mb3ed44dba8" x="441.011363" y="399.92008" style="fill: #ff0000; stroke: #ffffff; stroke-width: 0.48"/>
     <use xlink:href="#mb3ed44dba8" x="504.758149" y="414.853963" style="fill: #ff0000; stroke: #ffffff; stroke-width: 0.48"/>
     <use xlink:href="#mb3ed44dba8" x="186.02422" y="301.931911" style="fill: #ff0000; stroke: #ffffff; stroke-width: 0.48"/>
     <use xlink:href="#mb3ed44dba8" x="122.277434" y="258.218108" style="fill: #ff0000; stroke: #ffffff; stroke-width: 0.48"/>
     <use xlink:href="#mb3ed44dba8" x="1014.732436" y="483.316985" style="fill: #ff0000; stroke: #ffffff; stroke-width: 0.48"/>
    </g>
   </g>
   <g id="line2d_14"/>
   <g id="line2d_15"/>
   <g id="line2d_16"/>
   <g id="line2d_17"/>
   <g id="line2d_18"/>
   <g id="line2d_19"/>
   <g id="line2d_20">
    <path d="M 122.277434 49.466454 
L 130.437023 59.445926 
L 138.724105 69.231039 
L 147.138681 78.820456 
L 155.553257 88.075694 
L 164.095326 97.143995 
L 172.764889 106.02528 
L 181.561945 114.719982 
L 190.486495 123.229022 
L 199.538539 131.55378 
L 208.718076 139.696068 
L 218.1526 147.76518 
L 227.714618 155.648953 
L 237.40413 163.350727 
L 247.348628 170.970052 
L 257.42062 178.408012 
L 267.7476 185.758227 
L 278.329566 193.015739 
L 289.16652 200.176444 
L 300.25846 207.237043 
L 311.605388 214.194979 
L 323.207303 221.048373 
L 335.191699 227.86716 
L 347.431082 234.574183 
L 360.052946 241.235529 
L 372.929796 247.780729 
L 386.189128 254.272062 
L 399.83094 260.704001 
L 413.855233 267.071675 
L 428.3895 273.425457 
L 443.306248 279.702714 
L 458.605476 285.900168 
L 474.414679 292.063574 
L 490.606363 298.137682 
L 507.308021 304.165162 
L 524.519653 310.138474 
L 542.113766 316.008806 
L 560.217853 321.814443 
L 578.831914 327.548999 
L 597.95595 333.206585 
L 617.58996 338.78188 
L 637.733944 344.270212 
L 658.515397 349.70028 
L 679.934317 355.064937 
L 701.990705 360.35824 
L 724.68456 365.575533 
L 748.270871 370.768438 
L 772.749637 375.928026 
L 798.120858 381.047462 
L 824.63952 386.170485 
L 852.560613 391.335764 
L 882.266615 396.601984 
L 914.777476 402.134726 
L 953.535521 408.494254 
L 1015.879878 418.56413 
L 1015.879878 418.56413 
" clip-path="url(#pefdb9d8519)" style="fill: none; stroke: #393b79; stroke-width: 1.5; stroke-linecap: round"/>
   </g>
   <g id="line2d_21">
    <path d="M 122.277434 114.120815 
L 130.437023 123.183066 
L 138.724105 132.056788 
L 147.138681 140.741151 
L 155.68075 149.235892 
L 164.350313 157.541292 
L 173.14737 165.658151 
L 182.07192 173.587761 
L 191.123963 181.33188 
L 200.3035 188.892701 
L 209.610531 196.27282 
L 219.172549 203.570674 
L 228.86206 210.686942 
L 238.806559 217.714037 
L 249.006045 224.646205 
L 259.333024 231.39694 
L 269.91499 238.050391 
L 280.751944 244.603235 
L 291.971378 251.12564 
L 303.4458 257.537557 
L 315.175208 263.838245 
L 327.287098 270.092118 
L 339.781468 276.292069 
L 352.658318 282.432037 
L 365.91765 288.506908 
L 379.559462 294.512405 
L 393.711248 300.49783 
L 408.245516 306.403228 
L 423.289757 312.275155 
L 438.843973 318.105978 
L 454.908163 323.888742 
L 471.482327 329.617042 
L 488.566466 335.284898 
L 506.160579 340.886659 
L 524.264666 346.416932 
L 542.878727 351.87053 
L 562.130256 357.277528 
L 581.89176 362.595156 
L 602.163238 367.81905 
L 623.072184 372.975921 
L 644.491104 378.028666 
L 666.547492 383.00231 
L 689.241347 387.890469 
L 712.572671 392.687482 
L 736.541462 397.388351 
L 761.275215 402.011894 
L 786.77393 406.550721 
L 813.037605 410.997974 
L 840.066243 415.347452 
L 867.987335 419.613258 
L 896.928376 423.808726 
L 927.78182 428.053745 
L 962.587565 432.611283 
L 1015.879878 439.345937 
L 1015.879878 439.345937 
" clip-path="url(#pefdb9d8519)" style="fill: none; stroke: #6b6ecf; stroke-width: 1.5; stroke-linecap: round"/>
   </g>
   <g id="line2d_22">
    <path d="M 122.277434 169.398367 
L 130.564517 177.743077 
L 138.851599 185.775034 
L 147.266175 193.624706 
L 155.808244 201.292284 
L 164.477807 208.778477 
L 173.274863 216.084493 
L 182.326907 223.311822 
L 191.506444 230.355019 
L 200.813475 237.217047 
L 210.375492 243.989763 
L 220.065004 250.581368 
L 230.009502 257.077907 
L 240.208988 263.474326 
L 250.663461 269.766555 
L 261.372921 275.951466 
L 272.337368 282.026819 
L 283.684296 288.057569 
L 295.286211 293.971282 
L 307.270607 299.829379 
L 319.637483 305.625349 
L 332.38684 311.353842 
L 345.518678 317.010568 
L 359.160491 322.643727 
L 373.312277 328.244391 
L 387.974038 333.804857 
L 403.145773 339.318491 
L 418.827482 344.779562 
L 435.146659 350.224705 
L 451.975811 355.604333 
L 469.44243 360.95281 
L 487.546517 366.261674 
L 506.160579 371.487916 
L 525.412108 376.661945 
L 545.301105 381.776247 
L 565.82757 386.823554 
L 586.991503 391.796832 
L 608.66541 396.661359 
L 630.976785 401.441208 
L 653.925628 406.130153 
L 677.511939 410.722314 
L 701.735717 415.212085 
L 726.596964 419.593975 
L 752.095678 423.862348 
L 778.23186 428.011093 
L 804.878017 432.014667 
L 831.906654 435.85079 
L 859.317772 439.51714 
L 887.238864 443.027283 
L 915.924918 446.40831 
L 946.140894 449.742567 
L 980.181678 453.267489 
L 1015.879878 456.808443 
L 1015.879878 456.808443 
" clip-path="url(#pefdb9d8519)" style="fill: none; stroke: #637939; stroke-width: 1.5; stroke-linecap: round"/>
   </g>
   <g id="line2d_23">
    <path d="M 122.277434 216.177683 
L 130.564517 223.739748 
L 138.979092 231.117881 
L 147.521162 238.31259 
L 156.190725 245.324909 
L 164.987781 252.156371 
L 174.039825 258.90206 
L 183.219362 265.463796 
L 192.526392 271.844883 
L 202.08841 278.131081 
L 211.905415 284.316228 
L 221.849914 290.319915 
L 232.0494 296.219803 
L 242.503872 302.012512 
L 253.340826 307.761798 
L 264.432767 313.394289 
L 275.907188 318.970263 
L 287.76409 324.482308 
L 300.003473 329.924377 
L 312.625337 335.291704 
L 325.757175 340.631398 
L 339.271493 345.885802 
L 353.295786 351.099984 
L 367.957547 356.311696 
L 383.129282 361.467374 
L 398.938485 366.603452 
L 415.385156 371.711345 
L 432.469294 376.783556 
L 450.318394 381.848818 
L 468.804962 386.862605 
L 488.056491 391.851801 
L 507.945489 396.776015 
L 528.599447 401.659758 
L 550.018367 406.494037 
L 572.074755 411.243289 
L 594.896104 415.928316 
L 618.354922 420.516382 
L 642.5787 425.026045 
L 667.439947 429.427283 
L 692.938661 433.715513 
L 719.074843 437.885781 
L 745.848493 441.932339 
L 773.132118 445.830391 
L 800.670729 449.540679 
L 828.464328 453.061105 
L 856.257926 456.358241 
L 884.179018 459.446715 
L 912.355098 462.338588 
L 941.168645 465.070876 
L 972.022089 467.768892 
L 1009.88768 470.842025 
L 1015.879878 471.315142 
L 1015.879878 471.315142 
" clip-path="url(#pefdb9d8519)" style="fill: none; stroke: #b5cf6b; stroke-width: 1.5; stroke-linecap: round"/>
   </g>
   <g id="line2d_24">
    <path d="M 122.277434 255.339835 
L 130.69201 262.295426 
L 139.234079 269.066766 
L 147.903642 275.655191 
L 156.700699 282.06254 
L 165.752742 288.378191 
L 174.93228 294.510469 
L 184.366804 300.542752 
L 193.928822 306.392427 
L 203.745827 312.13726 
L 213.817819 317.772797 
L 224.144798 323.295644 
L 234.726765 328.703422 
L 245.691212 334.055543 
L 256.910646 339.285205 
L 268.512561 344.448562 
L 280.496957 349.539552 
L 292.991327 354.603984 
L 305.868178 359.58336 
L 319.255003 364.521748 
L 333.279295 369.455813 
L 347.813563 374.332086 
L 362.985298 379.186465 
L 378.794501 384.010655 
L 395.368665 388.834094 
L 412.707791 393.646198 
L 430.811878 398.437825 
L 449.680926 403.200953 
L 469.44243 407.958337 
L 489.968895 412.670511 
L 511.387815 417.358461 
L 533.69919 422.012164 
L 556.775526 426.597148 
L 580.744318 431.130991 
L 605.478071 435.581883 
L 630.976785 439.943971 
L 657.367954 444.231568 
L 684.524085 448.416343 
L 712.317684 452.473645 
L 740.74875 456.398658 
L 769.562297 460.152043 
L 798.630832 463.714252 
L 827.571873 467.037607 
L 856.257926 470.109277 
L 884.688993 472.930928 
L 912.992566 475.51656 
L 941.551126 477.901879 
L 971.512115 480.178884 
L 1006.445354 482.600744 
L 1015.879878 483.227249 
L 1015.879878 483.227249 
" clip-path="url(#pefdb9d8519)" style="fill: none; stroke: #8c6d31; stroke-width: 1.5; stroke-linecap: round"/>
   </g>
   <g id="line2d_25">
    <path d="M 122.277434 287.768399 
L 130.819504 294.170064 
L 139.489067 300.388612 
L 148.286123 306.426164 
L 157.338167 312.367144 
L 166.517704 318.125566 
L 175.952228 323.780033 
L 185.64174 329.324757 
L 195.458745 334.687081 
L 205.65823 340.002676 
L 216.112703 345.197805 
L 226.822163 350.271057 
L 237.914104 355.278182 
L 249.388525 360.211678 
L 261.245428 365.065612 
L 273.48481 369.835547 
L 286.234168 374.564591 
L 299.493499 379.244329 
L 313.262805 383.86819 
L 327.669578 388.471038 
L 342.71382 393.043753 
L 358.523023 397.615116 
L 375.097187 402.174411 
L 392.436313 406.712894 
L 410.667893 411.254435 
L 429.791929 415.788711 
L 449.935913 420.33482 
L 471.099846 424.880668 
L 493.156234 429.389675 
L 516.232571 433.879177 
L 540.328856 438.338815 
L 565.317596 442.736613 
L 591.326284 447.086795 
L 618.227428 451.359979 
L 646.14852 455.56861 
L 674.962067 459.685681 
L 704.66807 463.704397 
L 735.01154 467.584745 
L 765.864984 471.306016 
L 796.845922 474.818535 
L 827.444379 478.065147 
L 857.532862 481.035266 
L 886.983877 483.719894 
L 915.924918 486.135761 
L 944.993452 488.338754 
L 975.336922 490.412584 
L 1010.907629 492.609634 
L 1015.879878 492.903682 
L 1015.879878 492.903682 
" clip-path="url(#pefdb9d8519)" style="fill: none; stroke: #e7cb94; stroke-width: 1.5; stroke-linecap: round"/>
   </g>
   <g id="patch_3">
    <path d="M 77.597312 515.449571 
L 77.597312 19.44 
" style="fill: none; stroke: #ffffff; stroke-width: 0.8; stroke-linejoin: miter; stroke-linecap: square"/>
   </g>
   <g id="patch_4">
    <path d="M 1060.56 515.449571 
L 1060.56 19.44 
" style="fill: none; stroke: #ffffff; stroke-width: 0.8; stroke-linejoin: miter; stroke-linecap: square"/>
   </g>
   <g id="patch_5">
    <path d="M 77.597312 515.449571 
L 1060.56 515.449571 
" style="fill: none; stroke: #ffffff; stroke-width: 0.8; stroke-linejoin: miter; stroke-linecap: square"/>
   </g>
   <g id="patch_6">
    <path d="M 77.597312 19.44 
L 1060.56 19.44 
" style="fill: none; stroke: #ffffff; stroke-width: 0.8; stroke-linejoin: miter; stroke-linecap: square"/>
   </g>
   <g id="legend_1">
    <g id="patch_7">
     <path d="M 951.948243 184.368385 
L 1047.96 184.368385 
Q 1051.56 184.368385 1051.56 180.768385 
L 1051.56 32.04 
Q 1051.56 28.44 1047.96 28.44 
L 951.948243 28.44 
Q 948.348243 28.44 948.348243 32.04 
L 948.348243 180.768385 
Q 948.348243 184.368385 951.948243 184.368385 
z
" style="fill: #eaeaf2; opacity: 0.8; stroke: #cccccc; stroke-linejoin: miter"/>
    </g>
    <g id="line2d_26">
     <defs>
      <path id="m39073601b3" d="M 0 3 
C 0.795609 3 1.55874 2.683901 2.12132 2.12132 
C 2.683901 1.55874 3 0.795609 3 0 
C 3 -0.795609 2.683901 -1.55874 2.12132 -2.12132 
C 1.55874 -2.683901 0.795609 -3 0 -3 
C -0.795609 -3 -1.55874 -2.683901 -2.12132 -2.12132 
C -2.683901 -1.55874 -3 -0.795609 -3 0 
C -3 0.795609 -2.683901 1.55874 -2.12132 2.12132 
C -1.55874 2.683901 -0.795609 3 0 3 
z
" style="stroke: #ffffff; stroke-width: 0.48"/>
     </defs>
     <g>
      <use xlink:href="#m39073601b3" x="973.548243" y="41.94" style="fill: #393b79; stroke: #ffffff; stroke-width: 0.48"/>
     </g>
    </g>
    <g id="text_16">
     <!-- 0.03 -->
     <g style="fill: #262626" transform="translate(1005.948243 48.24) scale(0.18 -0.18)">
      <defs>
       <path id="CMSS17-30" d="M 2758 2044 
C 2758 2405 2752 3077 2490 3596 
C 2227 4096 1805 4229 1504 4229 
C 1069 4229 698 3975 506 3570 
C 301 3146 243 2709 243 2044 
C 243 1589 262 1031 493 543 
C 755 5 1197 -128 1498 -128 
C 1894 -128 2278 81 2496 518 
C 2720 974 2758 1474 2758 2044 
z
M 1498 261 
C 1011 261 864 811 819 995 
C 742 1310 730 1614 730 2114 
C 730 2506 730 2948 851 3297 
C 998 3701 1254 3840 1498 3840 
C 1971 3840 2125 3372 2176 3208 
C 2272 2873 2272 2481 2272 2114 
C 2272 1526 2272 261 1498 261 
z
" transform="scale(0.015625)"/>
       <path id="CMSS17-2e" d="M 1088 510 
L 576 510 
L 576 0 
L 1088 0 
L 1088 510 
z
" transform="scale(0.015625)"/>
       <path id="CMSS17-33" d="M 1005 2025 
L 1440 2025 
C 2042 2025 2214 1507 2214 1146 
C 2214 653 1933 267 1472 267 
C 1114 267 608 444 320 912 
C 275 691 275 678 250 526 
C 550 88 1037 -128 1485 -128 
C 2214 -128 2752 473 2752 1138 
C 2752 1638 2400 2057 1920 2215 
C 2304 2424 2586 2816 2586 3273 
C 2586 3805 2093 4229 1491 4229 
C 941 4229 512 3892 333 3530 
C 378 3468 493 3284 550 3189 
C 691 3562 1056 3840 1485 3840 
C 1843 3840 2080 3607 2080 3271 
C 2080 2923 1856 2543 1478 2455 
C 1453 2455 1056 2417 1005 2411 
L 1005 2025 
z
" transform="scale(0.015625)"/>
      </defs>
      <use xlink:href="#CMSS17-30" transform="scale(0.996264)"/>
      <use xlink:href="#CMSS17-2e" transform="translate(46.843624 0) scale(0.996264)"/>
      <use xlink:href="#CMSS17-30" transform="translate(72.867828 0) scale(0.996264)"/>
      <use xlink:href="#CMSS17-33" transform="translate(119.711452 0) scale(0.996264)"/>
     </g>
    </g>
    <g id="line2d_27">
     <defs>
      <path id="m6835b613f6" d="M 0 3 
C 0.795609 3 1.55874 2.683901 2.12132 2.12132 
C 2.683901 1.55874 3 0.795609 3 0 
C 3 -0.795609 2.683901 -1.55874 2.12132 -2.12132 
C 1.55874 -2.683901 0.795609 -3 0 -3 
C -0.795609 -3 -1.55874 -2.683901 -2.12132 -2.12132 
C -2.683901 -1.55874 -3 -0.795609 -3 0 
C -3 0.795609 -2.683901 1.55874 -2.12132 2.12132 
C -1.55874 2.683901 -0.795609 3 0 3 
z
" style="stroke: #ffffff; stroke-width: 0.48"/>
     </defs>
     <g>
      <use xlink:href="#m6835b613f6" x="973.548243" y="67.028064" style="fill: #6b6ecf; stroke: #ffffff; stroke-width: 0.48"/>
     </g>
    </g>
    <g id="text_17">
     <!-- 0.035 -->
     <g style="fill: #262626" transform="translate(1005.948243 73.328064) scale(0.18 -0.18)">
      <defs>
       <path id="CMSS17-35" d="M 934 3752 
L 2502 3752 
L 2502 4160 
L 467 4160 
L 467 1781 
L 896 1781 
C 1011 2046 1248 2240 1555 2240 
C 1843 2240 2163 1989 2163 1266 
C 2163 493 1709 267 1376 267 
C 966 267 589 512 422 851 
L 218 499 
C 512 49 992 -128 1376 -128 
C 2118 -128 2701 497 2701 1253 
C 2701 2030 2182 2629 1562 2629 
C 1338 2629 1120 2553 934 2399 
L 934 3752 
z
" transform="scale(0.015625)"/>
      </defs>
      <use xlink:href="#CMSS17-30" transform="scale(0.996264)"/>
      <use xlink:href="#CMSS17-2e" transform="translate(46.843624 0) scale(0.996264)"/>
      <use xlink:href="#CMSS17-30" transform="translate(72.867828 0) scale(0.996264)"/>
      <use xlink:href="#CMSS17-33" transform="translate(119.711452 0) scale(0.996264)"/>
      <use xlink:href="#CMSS17-35" transform="translate(166.555075 0) scale(0.996264)"/>
     </g>
    </g>
    <g id="line2d_28">
     <defs>
      <path id="m8578812d6b" d="M 0 3 
C 0.795609 3 1.55874 2.683901 2.12132 2.12132 
C 2.683901 1.55874 3 0.795609 3 0 
C 3 -0.795609 2.683901 -1.55874 2.12132 -2.12132 
C 1.55874 -2.683901 0.795609 -3 0 -3 
C -0.795609 -3 -1.55874 -2.683901 -2.12132 -2.12132 
C -2.683901 -1.55874 -3 -0.795609 -3 0 
C -3 0.795609 -2.683901 1.55874 -2.12132 2.12132 
C -1.55874 2.683901 -0.795609 3 0 3 
z
" style="stroke: #ffffff; stroke-width: 0.48"/>
     </defs>
     <g>
      <use xlink:href="#m8578812d6b" x="973.548243" y="92.116128" style="fill: #637939; stroke: #ffffff; stroke-width: 0.48"/>
     </g>
    </g>
    <g id="text_18">
     <!-- 0.04 -->
     <g style="fill: #262626" transform="translate(1005.948243 98.416128) scale(0.18 -0.18)">
      <defs>
       <path id="CMSS17-34" d="M 2253 1088 
L 2835 1088 
L 2835 1477 
L 2253 1477 
L 2253 4192 
L 1690 4192 
L 166 1477 
L 166 1088 
L 1747 1088 
L 1747 0 
L 2253 0 
L 2253 1088 
z
M 659 1477 
C 1030 2127 1766 3439 1766 3885 
L 1766 1477 
L 659 1477 
z
" transform="scale(0.015625)"/>
      </defs>
      <use xlink:href="#CMSS17-30" transform="scale(0.996264)"/>
      <use xlink:href="#CMSS17-2e" transform="translate(46.843624 0) scale(0.996264)"/>
      <use xlink:href="#CMSS17-30" transform="translate(72.867828 0) scale(0.996264)"/>
      <use xlink:href="#CMSS17-34" transform="translate(119.711452 0) scale(0.996264)"/>
     </g>
    </g>
    <g id="line2d_29">
     <defs>
      <path id="m58f937b802" d="M 0 3 
C 0.795609 3 1.55874 2.683901 2.12132 2.12132 
C 2.683901 1.55874 3 0.795609 3 0 
C 3 -0.795609 2.683901 -1.55874 2.12132 -2.12132 
C 1.55874 -2.683901 0.795609 -3 0 -3 
C -0.795609 -3 -1.55874 -2.683901 -2.12132 -2.12132 
C -2.683901 -1.55874 -3 -0.795609 -3 0 
C -3 0.795609 -2.683901 1.55874 -2.12132 2.12132 
C -1.55874 2.683901 -0.795609 3 0 3 
z
" style="stroke: #ffffff; stroke-width: 0.48"/>
     </defs>
     <g>
      <use xlink:href="#m58f937b802" x="973.548243" y="117.204193" style="fill: #b5cf6b; stroke: #ffffff; stroke-width: 0.48"/>
     </g>
    </g>
    <g id="text_19">
     <!-- 0.045 -->
     <g style="fill: #262626" transform="translate(1005.948243 123.504193) scale(0.18 -0.18)">
      <use xlink:href="#CMSS17-30" transform="scale(0.996264)"/>
      <use xlink:href="#CMSS17-2e" transform="translate(46.843624 0) scale(0.996264)"/>
      <use xlink:href="#CMSS17-30" transform="translate(72.867828 0) scale(0.996264)"/>
      <use xlink:href="#CMSS17-34" transform="translate(119.711452 0) scale(0.996264)"/>
      <use xlink:href="#CMSS17-35" transform="translate(166.555075 0) scale(0.996264)"/>
     </g>
    </g>
    <g id="line2d_30">
     <defs>
      <path id="mbce32ae99b" d="M 0 3 
C 0.795609 3 1.55874 2.683901 2.12132 2.12132 
C 2.683901 1.55874 3 0.795609 3 0 
C 3 -0.795609 2.683901 -1.55874 2.12132 -2.12132 
C 1.55874 -2.683901 0.795609 -3 0 -3 
C -0.795609 -3 -1.55874 -2.683901 -2.12132 -2.12132 
C -2.683901 -1.55874 -3 -0.795609 -3 0 
C -3 0.795609 -2.683901 1.55874 -2.12132 2.12132 
C -1.55874 2.683901 -0.795609 3 0 3 
z
" style="stroke: #ffffff; stroke-width: 0.48"/>
     </defs>
     <g>
      <use xlink:href="#mbce32ae99b" x="973.548243" y="142.292257" style="fill: #8c6d31; stroke: #ffffff; stroke-width: 0.48"/>
     </g>
    </g>
    <g id="text_20">
     <!-- 0.05 -->
     <g style="fill: #262626" transform="translate(1005.948243 148.592257) scale(0.18 -0.18)">
      <use xlink:href="#CMSS17-30" transform="scale(0.996264)"/>
      <use xlink:href="#CMSS17-2e" transform="translate(46.843624 0) scale(0.996264)"/>
      <use xlink:href="#CMSS17-30" transform="translate(72.867828 0) scale(0.996264)"/>
      <use xlink:href="#CMSS17-35" transform="translate(119.711452 0) scale(0.996264)"/>
     </g>
    </g>
    <g id="line2d_31">
     <defs>
      <path id="m7d5ad426bc" d="M 0 3 
C 0.795609 3 1.55874 2.683901 2.12132 2.12132 
C 2.683901 1.55874 3 0.795609 3 0 
C 3 -0.795609 2.683901 -1.55874 2.12132 -2.12132 
C 1.55874 -2.683901 0.795609 -3 0 -3 
C -0.795609 -3 -1.55874 -2.683901 -2.12132 -2.12132 
C -2.683901 -1.55874 -3 -0.795609 -3 0 
C -3 0.795609 -2.683901 1.55874 -2.12132 2.12132 
C -1.55874 2.683901 -0.795609 3 0 3 
z
" style="stroke: #ffffff; stroke-width: 0.48"/>
     </defs>
     <g>
      <use xlink:href="#m7d5ad426bc" x="973.548243" y="167.380321" style="fill: #e7cb94; stroke: #ffffff; stroke-width: 0.48"/>
     </g>
    </g>
    <g id="text_21">
     <!-- 0.055 -->
     <g style="fill: #262626" transform="translate(1005.948243 173.680321) scale(0.18 -0.18)">
      <use xlink:href="#CMSS17-30" transform="scale(0.996264)"/>
      <use xlink:href="#CMSS17-2e" transform="translate(46.843624 0) scale(0.996264)"/>
      <use xlink:href="#CMSS17-30" transform="translate(72.867828 0) scale(0.996264)"/>
      <use xlink:href="#CMSS17-35" transform="translate(119.711452 0) scale(0.996264)"/>
      <use xlink:href="#CMSS17-35" transform="translate(166.555075 0) scale(0.996264)"/>
     </g>
    </g>
   </g>
  </g>
 </g>
 <defs>
  <clipPath id="pefdb9d8519">
   <rect x="77.597312" y="19.44" width="982.962688" height="496.009571"/>
  </clipPath>
 </defs>
</svg>
