<?xml version="1.0" encoding="utf-8" standalone="no"?>
<!DOCTYPE svg PUBLIC "-//W3C//DTD SVG 1.1//EN"
  "http://www.w3.org/Graphics/SVG/1.1/DTD/svg11.dtd">
<svg xmlns:xlink="http://www.w3.org/1999/xlink" width="1080pt" height="576pt" viewBox="0 0 1080 576" xmlns="http://www.w3.org/2000/svg" version="1.1">
 <metadata>
  <rdf:RDF xmlns:dc="http://purl.org/dc/elements/1.1/" xmlns:cc="http://creativecommons.org/ns#" xmlns:rdf="http://www.w3.org/1999/02/22-rdf-syntax-ns#">
   <cc:Work>
    <dc:type rdf:resource="http://purl.org/dc/dcmitype/StillImage"/>
    <dc:date>2024-06-28T11:59:18.201597</dc:date>
    <dc:format>image/svg+xml</dc:format>
    <dc:creator>
     <cc:Agent>
      <dc:title>Matplotlib v3.9.0, https://matplotlib.org/</dc:title>
     </cc:Agent>
    </dc:creator>
   </cc:Work>
  </rdf:RDF>
 </metadata>
 <defs>
  <style type="text/css">*{stroke-linejoin: round; stroke-linecap: butt}</style>
 </defs>
 <g id="figure_1">
  <g id="patch_1">
   <path d="M 0 576 
L 1080 576 
L 1080 0 
L 0 0 
z
" style="fill: #ffffff"/>
  </g>
  <g id="axes_1">
   <g id="patch_2">
    <path d="M 48.559071 521.153031 
L 935.517672 521.153031 
L 935.517672 51.564121 
L 48.559071 51.564121 
z
" style="fill: #eaeaf2"/>
   </g>
   <g id="matplotlib.axis_1">
    <g id="xtick_1">
     <g id="line2d_1">
      <path d="M 48.559071 521.153031 
L 48.559071 51.564121 
" clip-path="url(#p34e2edc83a)" style="fill: none; stroke: #ffffff; stroke-linecap: round"/>
     </g>
     <g id="line2d_2"/>
     <g id="text_1">
      <!-- $\mathdefault{0.00}$ -->
      <g style="fill: #262626" transform="translate(36.419535 537.838907) scale(0.14 -0.14)">
       <defs>
        <path id="CMR17-30" d="M 2688 2025 
C 2688 2416 2682 3080 2413 3591 
C 2176 4039 1798 4198 1466 4198 
C 1158 4198 768 4058 525 3597 
C 269 3118 243 2524 243 2025 
C 243 1661 250 1106 448 619 
C 723 -39 1216 -128 1466 -128 
C 1760 -128 2208 -7 2470 600 
C 2662 1042 2688 1559 2688 2025 
z
M 1466 -26 
C 1056 -26 813 325 723 812 
C 653 1188 653 1738 653 2096 
C 653 2588 653 2997 736 3387 
C 858 3929 1216 4096 1466 4096 
C 1728 4096 2067 3923 2189 3400 
C 2272 3036 2278 2607 2278 2096 
C 2278 1680 2278 1169 2202 792 
C 2067 95 1690 -26 1466 -26 
z
" transform="scale(0.015625)"/>
        <path id="CMMI12-3a" d="M 1178 307 
C 1178 492 1024 619 870 619 
C 685 619 557 466 557 313 
C 557 128 710 0 864 0 
C 1050 0 1178 153 1178 307 
z
" transform="scale(0.015625)"/>
       </defs>
       <use xlink:href="#CMR17-30" transform="scale(0.996264)"/>
       <use xlink:href="#CMMI12-3a" transform="translate(45.690477 0) scale(0.996264)"/>
       <use xlink:href="#CMR17-30" transform="translate(72.787654 0) scale(0.996264)"/>
       <use xlink:href="#CMR17-30" transform="translate(118.478131 0) scale(0.996264)"/>
      </g>
     </g>
    </g>
    <g id="xtick_2">
     <g id="line2d_3">
      <path d="M 154.14938 521.153031 
L 154.14938 51.564121 
" clip-path="url(#p34e2edc83a)" style="fill: none; stroke: #ffffff; stroke-linecap: round"/>
     </g>
     <g id="line2d_4"/>
     <g id="text_2">
      <!-- $\mathdefault{0.25}$ -->
      <g style="fill: #262626" transform="translate(142.009845 537.838907) scale(0.14 -0.14)">
       <defs>
        <path id="CMR17-32" d="M 2669 989 
L 2554 989 
C 2490 536 2438 459 2413 420 
C 2381 369 1920 369 1830 369 
L 602 369 
C 832 619 1280 1072 1824 1597 
C 2214 1967 2669 2402 2669 3035 
C 2669 3790 2067 4224 1395 4224 
C 691 4224 262 3604 262 3030 
C 262 2780 448 2748 525 2748 
C 589 2748 781 2787 781 3010 
C 781 3207 614 3264 525 3264 
C 486 3264 448 3258 422 3245 
C 544 3790 915 4058 1306 4058 
C 1862 4058 2227 3617 2227 3035 
C 2227 2479 1901 2000 1536 1584 
L 262 146 
L 262 0 
L 2515 0 
L 2669 989 
z
" transform="scale(0.015625)"/>
        <path id="CMR17-35" d="M 730 3692 
C 794 3666 1056 3584 1325 3584 
C 1920 3584 2246 3911 2432 4100 
C 2432 4157 2432 4192 2394 4192 
C 2387 4192 2374 4192 2323 4163 
C 2099 4058 1837 3973 1517 3973 
C 1325 3973 1037 3999 723 4139 
C 653 4171 640 4171 634 4171 
C 602 4171 595 4164 595 4037 
L 595 2203 
C 595 2089 595 2057 659 2057 
C 691 2057 704 2070 736 2114 
C 941 2401 1222 2522 1542 2522 
C 1766 2522 2246 2382 2246 1289 
C 2246 1085 2246 715 2054 421 
C 1894 159 1645 25 1370 25 
C 947 25 518 320 403 814 
C 429 807 480 795 506 795 
C 589 795 749 840 749 1038 
C 749 1210 627 1280 506 1280 
C 358 1280 262 1190 262 1011 
C 262 454 704 -128 1382 -128 
C 2042 -128 2669 440 2669 1264 
C 2669 2030 2170 2624 1549 2624 
C 1222 2624 947 2503 730 2274 
L 730 3692 
z
" transform="scale(0.015625)"/>
       </defs>
       <use xlink:href="#CMR17-30" transform="scale(0.996264)"/>
       <use xlink:href="#CMMI12-3a" transform="translate(45.690477 0) scale(0.996264)"/>
       <use xlink:href="#CMR17-32" transform="translate(72.787654 0) scale(0.996264)"/>
       <use xlink:href="#CMR17-35" transform="translate(118.478131 0) scale(0.996264)"/>
      </g>
     </g>
    </g>
    <g id="xtick_3">
     <g id="line2d_5">
      <path d="M 259.73969 521.153031 
L 259.73969 51.564121 
" clip-path="url(#p34e2edc83a)" style="fill: none; stroke: #ffffff; stroke-linecap: round"/>
     </g>
     <g id="line2d_6"/>
     <g id="text_3">
      <!-- $\mathdefault{0.50}$ -->
      <g style="fill: #262626" transform="translate(247.600155 537.838907) scale(0.14 -0.14)">
       <use xlink:href="#CMR17-30" transform="scale(0.996264)"/>
       <use xlink:href="#CMMI12-3a" transform="translate(45.690477 0) scale(0.996264)"/>
       <use xlink:href="#CMR17-35" transform="translate(72.787654 0) scale(0.996264)"/>
       <use xlink:href="#CMR17-30" transform="translate(118.478131 0) scale(0.996264)"/>
      </g>
     </g>
    </g>
    <g id="xtick_4">
     <g id="line2d_7">
      <path d="M 365.33 521.153031 
L 365.33 51.564121 
" clip-path="url(#p34e2edc83a)" style="fill: none; stroke: #ffffff; stroke-linecap: round"/>
     </g>
     <g id="line2d_8"/>
     <g id="text_4">
      <!-- $\mathdefault{0.75}$ -->
      <g style="fill: #262626" transform="translate(353.190464 537.838907) scale(0.14 -0.14)">
       <defs>
        <path id="CMR17-37" d="M 2886 3941 
L 2886 4081 
L 1382 4081 
C 634 4081 621 4165 595 4288 
L 480 4288 
L 294 3094 
L 410 3094 
C 429 3215 474 3540 550 3661 
C 589 3712 1062 3712 1171 3712 
L 2579 3712 
L 1869 2661 
C 1395 1954 1069 999 1069 165 
C 1069 89 1069 -128 1299 -128 
C 1530 -128 1530 89 1530 171 
L 1530 465 
C 1530 1508 1709 2196 2003 2636 
L 2886 3941 
z
" transform="scale(0.015625)"/>
       </defs>
       <use xlink:href="#CMR17-30" transform="scale(0.996264)"/>
       <use xlink:href="#CMMI12-3a" transform="translate(45.690477 0) scale(0.996264)"/>
       <use xlink:href="#CMR17-37" transform="translate(72.787654 0) scale(0.996264)"/>
       <use xlink:href="#CMR17-35" transform="translate(118.478131 0) scale(0.996264)"/>
      </g>
     </g>
    </g>
    <g id="xtick_5">
     <g id="line2d_9">
      <path d="M 470.920309 521.153031 
L 470.920309 51.564121 
" clip-path="url(#p34e2edc83a)" style="fill: none; stroke: #ffffff; stroke-linecap: round"/>
     </g>
     <g id="line2d_10"/>
     <g id="text_5">
      <!-- $\mathdefault{1.00}$ -->
      <g style="fill: #262626" transform="translate(458.780774 537.838907) scale(0.14 -0.14)">
       <defs>
        <path id="CMR17-31" d="M 1702 4058 
C 1702 4192 1696 4192 1606 4192 
C 1357 3916 979 3827 621 3827 
C 602 3827 570 3827 563 3808 
C 557 3795 557 3782 557 3648 
C 755 3648 1088 3686 1344 3839 
L 1344 461 
C 1344 236 1331 160 781 160 
L 589 160 
L 589 0 
C 896 0 1216 0 1523 0 
C 1830 0 2150 0 2458 0 
L 2458 160 
L 2266 160 
C 1715 160 1702 230 1702 458 
L 1702 4058 
z
" transform="scale(0.015625)"/>
       </defs>
       <use xlink:href="#CMR17-31" transform="scale(0.996264)"/>
       <use xlink:href="#CMMI12-3a" transform="translate(45.690477 0) scale(0.996264)"/>
       <use xlink:href="#CMR17-30" transform="translate(72.787654 0) scale(0.996264)"/>
       <use xlink:href="#CMR17-30" transform="translate(118.478131 0) scale(0.996264)"/>
      </g>
     </g>
    </g>
    <g id="xtick_6">
     <g id="line2d_11">
      <path d="M 576.510619 521.153031 
L 576.510619 51.564121 
" clip-path="url(#p34e2edc83a)" style="fill: none; stroke: #ffffff; stroke-linecap: round"/>
     </g>
     <g id="line2d_12"/>
     <g id="text_6">
      <!-- $\mathdefault{1.25}$ -->
      <g style="fill: #262626" transform="translate(564.371084 537.838907) scale(0.14 -0.14)">
       <use xlink:href="#CMR17-31" transform="scale(0.996264)"/>
       <use xlink:href="#CMMI12-3a" transform="translate(45.690477 0) scale(0.996264)"/>
       <use xlink:href="#CMR17-32" transform="translate(72.787654 0) scale(0.996264)"/>
       <use xlink:href="#CMR17-35" transform="translate(118.478131 0) scale(0.996264)"/>
      </g>
     </g>
    </g>
    <g id="xtick_7">
     <g id="line2d_13">
      <path d="M 682.100929 521.153031 
L 682.100929 51.564121 
" clip-path="url(#p34e2edc83a)" style="fill: none; stroke: #ffffff; stroke-linecap: round"/>
     </g>
     <g id="line2d_14"/>
     <g id="text_7">
      <!-- $\mathdefault{1.50}$ -->
      <g style="fill: #262626" transform="translate(669.961393 537.838907) scale(0.14 -0.14)">
       <use xlink:href="#CMR17-31" transform="scale(0.996264)"/>
       <use xlink:href="#CMMI12-3a" transform="translate(45.690477 0) scale(0.996264)"/>
       <use xlink:href="#CMR17-35" transform="translate(72.787654 0) scale(0.996264)"/>
       <use xlink:href="#CMR17-30" transform="translate(118.478131 0) scale(0.996264)"/>
      </g>
     </g>
    </g>
    <g id="xtick_8">
     <g id="line2d_15">
      <path d="M 787.691238 521.153031 
L 787.691238 51.564121 
" clip-path="url(#p34e2edc83a)" style="fill: none; stroke: #ffffff; stroke-linecap: round"/>
     </g>
     <g id="line2d_16"/>
     <g id="text_8">
      <!-- $\mathdefault{1.75}$ -->
      <g style="fill: #262626" transform="translate(775.551703 537.838907) scale(0.14 -0.14)">
       <use xlink:href="#CMR17-31" transform="scale(0.996264)"/>
       <use xlink:href="#CMMI12-3a" transform="translate(45.690477 0) scale(0.996264)"/>
       <use xlink:href="#CMR17-37" transform="translate(72.787654 0) scale(0.996264)"/>
       <use xlink:href="#CMR17-35" transform="translate(118.478131 0) scale(0.996264)"/>
      </g>
     </g>
    </g>
    <g id="xtick_9">
     <g id="line2d_17">
      <path d="M 893.281548 521.153031 
L 893.281548 51.564121 
" clip-path="url(#p34e2edc83a)" style="fill: none; stroke: #ffffff; stroke-linecap: round"/>
     </g>
     <g id="line2d_18"/>
     <g id="text_9">
      <!-- $\mathdefault{2.00}$ -->
      <g style="fill: #262626" transform="translate(881.142013 537.838907) scale(0.14 -0.14)">
       <use xlink:href="#CMR17-32" transform="scale(0.996264)"/>
       <use xlink:href="#CMMI12-3a" transform="translate(45.690477 0) scale(0.996264)"/>
       <use xlink:href="#CMR17-30" transform="translate(72.787654 0) scale(0.996264)"/>
       <use xlink:href="#CMR17-30" transform="translate(118.478131 0) scale(0.996264)"/>
      </g>
     </g>
    </g>
    <g id="text_10">
     <!-- $x$ -->
     <g style="fill: #262626" transform="translate(487.603646 555.620524) scale(0.16 -0.16)">
      <defs>
       <path id="CMMI12-78" d="M 3034 2606 
C 2829 2567 2752 2414 2752 2293 
C 2752 2139 2874 2088 2963 2088 
C 3155 2088 3290 2254 3290 2427 
C 3290 2695 2982 2816 2714 2816 
C 2323 2816 2106 2433 2048 2312 
C 1901 2816 1504 2816 1389 2816 
C 736 2816 390 1980 390 1839 
C 390 1814 416 1782 461 1782 
C 512 1782 525 1820 538 1846 
C 755 2555 1184 2689 1370 2689 
C 1658 2689 1715 2420 1715 2267 
C 1715 2127 1677 1980 1600 1673 
L 1382 798 
C 1286 415 1101 64 762 64 
C 730 64 570 64 435 147 
C 666 192 717 383 717 460 
C 717 588 621 664 499 664 
C 346 664 179 530 179 326 
C 179 57 480 -64 755 -64 
C 1062 -64 1280 179 1414 441 
C 1517 64 1837 -64 2074 -64 
C 2726 -64 3072 773 3072 913 
C 3072 945 3046 971 3008 971 
C 2950 971 2944 939 2925 888 
C 2752 326 2381 64 2093 64 
C 1869 64 1747 230 1747 492 
C 1747 632 1773 734 1875 1156 
L 2099 2024 
C 2195 2408 2413 2689 2707 2689 
C 2720 2689 2899 2689 3034 2606 
z
" transform="scale(0.015625)"/>
      </defs>
      <use xlink:href="#CMMI12-78" transform="scale(0.996264)"/>
     </g>
    </g>
   </g>
   <g id="matplotlib.axis_2">
    <g id="ytick_1">
     <g id="line2d_19">
      <path d="M 48.559071 521.153031 
L 935.517672 521.153031 
" clip-path="url(#p34e2edc83a)" style="fill: none; stroke: #ffffff; stroke-linecap: round"/>
     </g>
     <g id="line2d_20"/>
     <g id="text_11">
      <!-- $\mathdefault{0.00}$ -->
      <g style="fill: #262626" transform="translate(17.28 525.995969) scale(0.14 -0.14)">
       <use xlink:href="#CMR17-30" transform="scale(0.996264)"/>
       <use xlink:href="#CMMI12-3a" transform="translate(45.690477 0) scale(0.996264)"/>
       <use xlink:href="#CMR17-30" transform="translate(72.787654 0) scale(0.996264)"/>
       <use xlink:href="#CMR17-30" transform="translate(118.478131 0) scale(0.996264)"/>
      </g>
     </g>
    </g>
    <g id="ytick_2">
     <g id="line2d_21">
      <path d="M 48.559071 465.237527 
L 935.517672 465.237527 
" clip-path="url(#p34e2edc83a)" style="fill: none; stroke: #ffffff; stroke-linecap: round"/>
     </g>
     <g id="line2d_22"/>
     <g id="text_12">
      <!-- $\mathdefault{0.05}$ -->
      <g style="fill: #262626" transform="translate(17.28 470.080465) scale(0.14 -0.14)">
       <use xlink:href="#CMR17-30" transform="scale(0.996264)"/>
       <use xlink:href="#CMMI12-3a" transform="translate(45.690477 0) scale(0.996264)"/>
       <use xlink:href="#CMR17-30" transform="translate(72.787654 0) scale(0.996264)"/>
       <use xlink:href="#CMR17-35" transform="translate(118.478131 0) scale(0.996264)"/>
      </g>
     </g>
    </g>
    <g id="ytick_3">
     <g id="line2d_23">
      <path d="M 48.559071 409.322023 
L 935.517672 409.322023 
" clip-path="url(#p34e2edc83a)" style="fill: none; stroke: #ffffff; stroke-linecap: round"/>
     </g>
     <g id="line2d_24"/>
     <g id="text_13">
      <!-- $\mathdefault{0.10}$ -->
      <g style="fill: #262626" transform="translate(17.28 414.164962) scale(0.14 -0.14)">
       <use xlink:href="#CMR17-30" transform="scale(0.996264)"/>
       <use xlink:href="#CMMI12-3a" transform="translate(45.690477 0) scale(0.996264)"/>
       <use xlink:href="#CMR17-31" transform="translate(72.787654 0) scale(0.996264)"/>
       <use xlink:href="#CMR17-30" transform="translate(118.478131 0) scale(0.996264)"/>
      </g>
     </g>
    </g>
    <g id="ytick_4">
     <g id="line2d_25">
      <path d="M 48.559071 353.40652 
L 935.517672 353.40652 
" clip-path="url(#p34e2edc83a)" style="fill: none; stroke: #ffffff; stroke-linecap: round"/>
     </g>
     <g id="line2d_26"/>
     <g id="text_14">
      <!-- $\mathdefault{0.15}$ -->
      <g style="fill: #262626" transform="translate(17.28 358.249458) scale(0.14 -0.14)">
       <use xlink:href="#CMR17-30" transform="scale(0.996264)"/>
       <use xlink:href="#CMMI12-3a" transform="translate(45.690477 0) scale(0.996264)"/>
       <use xlink:href="#CMR17-31" transform="translate(72.787654 0) scale(0.996264)"/>
       <use xlink:href="#CMR17-35" transform="translate(118.478131 0) scale(0.996264)"/>
      </g>
     </g>
    </g>
    <g id="ytick_5">
     <g id="line2d_27">
      <path d="M 48.559071 297.491016 
L 935.517672 297.491016 
" clip-path="url(#p34e2edc83a)" style="fill: none; stroke: #ffffff; stroke-linecap: round"/>
     </g>
     <g id="line2d_28"/>
     <g id="text_15">
      <!-- $\mathdefault{0.20}$ -->
      <g style="fill: #262626" transform="translate(17.28 302.333954) scale(0.14 -0.14)">
       <use xlink:href="#CMR17-30" transform="scale(0.996264)"/>
       <use xlink:href="#CMMI12-3a" transform="translate(45.690477 0) scale(0.996264)"/>
       <use xlink:href="#CMR17-32" transform="translate(72.787654 0) scale(0.996264)"/>
       <use xlink:href="#CMR17-30" transform="translate(118.478131 0) scale(0.996264)"/>
      </g>
     </g>
    </g>
    <g id="ytick_6">
     <g id="line2d_29">
      <path d="M 48.559071 241.575513 
L 935.517672 241.575513 
" clip-path="url(#p34e2edc83a)" style="fill: none; stroke: #ffffff; stroke-linecap: round"/>
     </g>
     <g id="line2d_30"/>
     <g id="text_16">
      <!-- $\mathdefault{0.25}$ -->
      <g style="fill: #262626" transform="translate(17.28 246.418451) scale(0.14 -0.14)">
       <use xlink:href="#CMR17-30" transform="scale(0.996264)"/>
       <use xlink:href="#CMMI12-3a" transform="translate(45.690477 0) scale(0.996264)"/>
       <use xlink:href="#CMR17-32" transform="translate(72.787654 0) scale(0.996264)"/>
       <use xlink:href="#CMR17-35" transform="translate(118.478131 0) scale(0.996264)"/>
      </g>
     </g>
    </g>
    <g id="ytick_7">
     <g id="line2d_31">
      <path d="M 48.559071 185.660009 
L 935.517672 185.660009 
" clip-path="url(#p34e2edc83a)" style="fill: none; stroke: #ffffff; stroke-linecap: round"/>
     </g>
     <g id="line2d_32"/>
     <g id="text_17">
      <!-- $\mathdefault{0.30}$ -->
      <g style="fill: #262626" transform="translate(17.28 190.502947) scale(0.14 -0.14)">
       <defs>
        <path id="CMR17-33" d="M 1414 2157 
C 1984 2157 2234 1662 2234 1090 
C 2234 320 1824 25 1453 25 
C 1114 25 563 194 390 693 
C 422 680 454 680 486 680 
C 640 680 755 782 755 948 
C 755 1133 614 1216 486 1216 
C 378 1216 211 1165 211 926 
C 211 335 787 -128 1466 -128 
C 2176 -128 2720 430 2720 1085 
C 2720 1707 2208 2157 1600 2227 
C 2086 2328 2554 2756 2554 3329 
C 2554 3820 2048 4179 1472 4179 
C 890 4179 378 3829 378 3329 
C 378 3110 544 3072 627 3072 
C 762 3072 877 3155 877 3321 
C 877 3486 762 3569 627 3569 
C 602 3569 570 3569 544 3557 
C 730 3959 1235 4032 1459 4032 
C 1683 4032 2106 3925 2106 3320 
C 2106 3143 2080 2828 1862 2550 
C 1670 2304 1453 2304 1242 2284 
C 1210 2284 1062 2269 1037 2269 
C 992 2263 966 2257 966 2208 
C 966 2163 973 2157 1101 2157 
L 1414 2157 
z
" transform="scale(0.015625)"/>
       </defs>
       <use xlink:href="#CMR17-30" transform="scale(0.996264)"/>
       <use xlink:href="#CMMI12-3a" transform="translate(45.690477 0) scale(0.996264)"/>
       <use xlink:href="#CMR17-33" transform="translate(72.787654 0) scale(0.996264)"/>
       <use xlink:href="#CMR17-30" transform="translate(118.478131 0) scale(0.996264)"/>
      </g>
     </g>
    </g>
    <g id="ytick_8">
     <g id="line2d_33">
      <path d="M 48.559071 129.744505 
L 935.517672 129.744505 
" clip-path="url(#p34e2edc83a)" style="fill: none; stroke: #ffffff; stroke-linecap: round"/>
     </g>
     <g id="line2d_34"/>
     <g id="text_18">
      <!-- $\mathdefault{0.35}$ -->
      <g style="fill: #262626" transform="translate(17.28 134.587444) scale(0.14 -0.14)">
       <use xlink:href="#CMR17-30" transform="scale(0.996264)"/>
       <use xlink:href="#CMMI12-3a" transform="translate(45.690477 0) scale(0.996264)"/>
       <use xlink:href="#CMR17-33" transform="translate(72.787654 0) scale(0.996264)"/>
       <use xlink:href="#CMR17-35" transform="translate(118.478131 0) scale(0.996264)"/>
      </g>
     </g>
    </g>
    <g id="ytick_9">
     <g id="line2d_35">
      <path d="M 48.559071 73.829002 
L 935.517672 73.829002 
" clip-path="url(#p34e2edc83a)" style="fill: none; stroke: #ffffff; stroke-linecap: round"/>
     </g>
     <g id="line2d_36"/>
     <g id="text_19">
      <!-- $\mathdefault{0.40}$ -->
      <g style="fill: #262626" transform="translate(17.28 78.67194) scale(0.14 -0.14)">
       <defs>
        <path id="CMR17-34" d="M 2150 4122 
C 2150 4256 2144 4256 2029 4256 
L 128 1254 
L 128 1088 
L 1779 1088 
L 1779 457 
C 1779 224 1766 160 1318 160 
L 1197 160 
L 1197 0 
C 1402 0 1747 0 1965 0 
C 2182 0 2528 0 2733 0 
L 2733 160 
L 2611 160 
C 2163 160 2150 224 2150 457 
L 2150 1088 
L 2803 1088 
L 2803 1254 
L 2150 1254 
L 2150 4122 
z
M 1798 3703 
L 1798 1254 
L 256 1254 
L 1798 3703 
z
" transform="scale(0.015625)"/>
       </defs>
       <use xlink:href="#CMR17-30" transform="scale(0.996264)"/>
       <use xlink:href="#CMMI12-3a" transform="translate(45.690477 0) scale(0.996264)"/>
       <use xlink:href="#CMR17-34" transform="translate(72.787654 0) scale(0.996264)"/>
       <use xlink:href="#CMR17-30" transform="translate(118.478131 0) scale(0.996264)"/>
      </g>
     </g>
    </g>
   </g>
   <g id="line2d_37">
    <path d="M 48.559071 73.829002 
L 57.006295 73.829002 
L 65.45352 73.829002 
L 73.900745 73.829002 
L 82.34797 73.829002 
L 90.795195 73.829002 
L 99.242419 73.829002 
L 107.689644 73.829002 
L 116.136869 73.829002 
L 124.584094 73.829002 
L 133.031318 73.829002 
L 141.478543 73.829002 
L 149.925768 73.829002 
L 158.372993 73.829002 
L 166.820217 73.829002 
L 175.267442 73.829002 
L 183.714667 73.829002 
L 192.161892 73.829002 
L 200.609117 73.829002 
L 209.056341 73.829002 
L 217.503566 73.829002 
L 225.950791 73.829002 
L 234.398016 73.829002 
L 242.84524 73.829002 
L 251.292465 73.829002 
L 259.73969 73.829002 
L 268.186915 73.829002 
L 276.63414 73.829002 
L 285.081364 73.829002 
L 293.528589 73.829002 
L 301.975814 73.829002 
L 310.423039 73.829002 
L 318.870263 73.829002 
L 327.317488 73.829002 
L 335.764713 73.829002 
L 344.211938 73.829002 
L 352.659162 73.829002 
L 361.106387 73.829002 
L 369.553612 73.829002 
L 378.000837 73.829002 
L 386.448062 73.829002 
L 394.895286 73.829002 
L 403.342511 73.829002 
L 411.789736 73.829002 
L 420.236961 73.829002 
L 428.684185 73.829002 
L 437.13141 73.829002 
L 445.578635 73.829002 
L 454.02586 73.829002 
L 462.473085 73.829002 
L 470.920309 73.829002 
L 479.367534 73.829002 
L 487.814759 73.829002 
L 496.261984 73.829002 
L 504.709208 73.829002 
L 513.156433 73.829002 
L 521.603658 73.829002 
L 530.050883 73.829002 
L 538.498107 73.829002 
L 546.945332 73.829002 
L 555.392557 73.829002 
L 563.839782 73.829002 
L 572.287007 73.829002 
L 580.734231 73.829002 
L 589.181456 73.829002 
L 597.628681 73.829002 
L 606.075906 73.829002 
L 614.52313 73.829002 
L 622.970355 73.829002 
L 631.41758 73.829002 
L 639.864805 73.829002 
L 648.31203 73.829002 
L 656.759254 73.829002 
L 665.206479 73.829002 
L 673.653704 73.829002 
L 682.100929 73.829002 
L 690.548153 73.829002 
L 698.995378 73.829002 
L 707.442603 73.829002 
L 715.889828 73.829002 
L 724.337052 73.829002 
L 732.784277 73.829002 
L 741.231502 73.829002 
L 749.678727 73.829002 
L 758.125952 73.829002 
L 766.573176 73.829002 
L 775.020401 73.829002 
L 783.467626 73.829002 
L 791.914851 73.829002 
L 800.362075 73.829002 
L 808.8093 73.829002 
L 817.256525 73.829002 
L 825.70375 73.829002 
L 834.150975 73.829002 
L 842.598199 73.829002 
L 851.045424 73.829002 
L 859.492649 73.829002 
L 867.939874 73.829002 
L 876.387098 73.829002 
L 884.834323 73.829002 
L 893.281548 73.829002 
" clip-path="url(#p34e2edc83a)" style="fill: none; stroke: #393b79; stroke-width: 2; stroke-linecap: round"/>
   </g>
   <g id="line2d_38">
    <path d="M 48.559071 111.980484 
L 57.006295 111.887282 
L 65.45352 111.794324 
L 73.900745 111.700845 
L 82.34797 111.607164 
L 90.795195 111.513729 
L 99.242419 111.42054 
L 107.689644 111.327598 
L 116.136869 111.2349 
L 124.584094 111.142445 
L 133.031318 111.050234 
L 141.478543 110.958265 
L 149.925768 110.866538 
L 158.372993 110.775051 
L 166.820217 110.683805 
L 175.267442 110.592799 
L 183.714667 110.502034 
L 192.161892 110.411506 
L 200.609117 110.321216 
L 209.056341 110.231163 
L 217.503566 110.141347 
L 225.950791 110.051766 
L 234.398016 109.96242 
L 242.84524 109.873309 
L 251.292465 109.784434 
L 259.73969 109.695794 
L 268.186915 109.607386 
L 276.63414 109.51921 
L 285.081364 109.431266 
L 293.528589 109.343552 
L 301.975814 109.256068 
L 310.423039 109.168814 
L 318.870263 109.081788 
L 327.317488 108.994991 
L 335.764713 108.90842 
L 344.211938 108.822077 
L 352.659162 108.735959 
L 361.106387 108.65007 
L 369.553612 108.564407 
L 378.000837 108.478969 
L 386.448062 108.393754 
L 394.895286 108.308762 
L 403.342511 108.223992 
L 411.789736 108.138792 
L 420.236961 108.053355 
L 428.684185 107.968141 
L 437.13141 107.88315 
L 445.578635 107.798382 
L 454.02586 107.713835 
L 462.473085 107.629509 
L 470.920309 107.545404 
L 479.367534 107.461519 
L 487.814759 107.377853 
L 496.261984 107.294406 
L 504.709208 107.211178 
L 513.156433 107.128166 
L 521.603658 107.045372 
L 530.050883 106.962795 
L 538.498107 106.880434 
L 546.945332 106.798288 
L 555.392557 106.716357 
L 563.839782 106.63464 
L 572.287007 106.553136 
L 580.734231 106.471845 
L 589.181456 106.390766 
L 597.628681 106.309898 
L 606.075906 106.229242 
L 614.52313 106.148796 
L 622.970355 106.068561 
L 631.41758 105.988538 
L 639.864805 105.908723 
L 648.31203 105.829117 
L 656.759254 105.74972 
L 665.206479 105.67053 
L 673.653704 105.591547 
L 682.100929 105.51277 
L 690.548153 105.434198 
L 698.995378 105.355832 
L 707.442603 105.277669 
L 715.889828 105.19971 
L 724.337052 105.121955 
L 732.784277 105.044402 
L 741.231502 104.967051 
L 749.678727 104.889902 
L 758.125952 104.812953 
L 766.573176 104.736205 
L 775.020401 104.659657 
L 783.467626 104.583308 
L 791.914851 104.506315 
L 800.362075 104.429358 
L 808.8093 104.352602 
L 817.256525 104.276045 
L 825.70375 104.199689 
L 834.150975 104.123535 
L 842.598199 104.04758 
L 851.045424 103.971822 
L 859.492649 103.896261 
L 867.939874 103.820896 
L 876.387098 103.745728 
L 884.834323 103.670755 
L 893.281548 103.595977 
" clip-path="url(#p34e2edc83a)" style="fill: none; stroke: #6b6ecf; stroke-width: 2; stroke-linecap: round"/>
   </g>
   <g id="line2d_39">
    <path d="M 48.559071 226.318574 
L 57.006295 226.030727 
L 65.45352 225.741869 
L 73.900745 225.452638 
L 82.34797 225.164287 
L 90.795195 224.876815 
L 99.242419 224.590257 
L 107.689644 224.30458 
L 116.136869 224.019765 
L 124.584094 223.735853 
L 133.031318 223.449697 
L 141.478543 223.16436 
L 149.925768 222.879884 
L 158.372993 222.596283 
L 166.820217 222.31354 
L 175.267442 222.031646 
L 183.714667 221.750608 
L 192.161892 221.469849 
L 200.609117 221.187432 
L 209.056341 220.90586 
L 217.503566 220.62513 
L 225.950791 220.345248 
L 234.398016 220.066256 
L 242.84524 219.788116 
L 251.292465 219.51082 
L 259.73969 219.233686 
L 268.186915 218.954944 
L 276.63414 218.677042 
L 285.081364 218.39998 
L 293.528589 218.123741 
L 301.975814 217.848339 
L 310.423039 217.57376 
L 318.870263 217.300012 
L 327.317488 217.026994 
L 335.764713 216.751846 
L 344.211938 216.477533 
L 352.659162 216.204042 
L 361.106387 215.931365 
L 369.553612 215.659502 
L 378.000837 215.388464 
L 386.448062 215.118249 
L 394.895286 214.848832 
L 403.342511 214.578241 
L 411.789736 214.307369 
L 420.236961 214.037311 
L 428.684185 213.768048 
L 437.13141 213.499583 
L 445.578635 213.231929 
L 454.02586 212.96511 
L 462.473085 212.699083 
L 470.920309 212.433695 
L 479.367534 212.166229 
L 487.814759 211.899566 
L 496.261984 211.63368 
L 504.709208 211.368577 
L 513.156433 211.104274 
L 521.603658 210.84077 
L 530.050883 210.578038 
L 538.498107 210.316057 
L 546.945332 210.054174 
L 555.392557 209.790732 
L 563.839782 209.528078 
L 572.287007 209.266208 
L 580.734231 209.005095 
L 589.181456 208.744767 
L 597.628681 208.485245 
L 606.075906 208.226507 
L 614.52313 207.968519 
L 622.970355 207.710817 
L 631.41758 207.451381 
L 639.864805 207.192697 
L 648.31203 206.934758 
L 656.759254 206.677565 
L 665.206479 206.421115 
L 673.653704 206.165408 
L 682.100929 205.910443 
L 690.548153 205.656252 
L 698.995378 205.402823 
L 707.442603 205.147693 
L 715.889828 204.89284 
L 724.337052 204.638723 
L 732.784277 204.385339 
L 741.231502 204.132698 
L 749.678727 203.880789 
L 758.125952 203.629618 
L 766.573176 203.379164 
L 775.020401 203.129429 
L 783.467626 202.879635 
L 791.914851 202.628463 
L 800.362075 202.378009 
L 808.8093 202.128312 
L 817.256525 201.879346 
L 825.70375 201.631098 
L 834.150975 201.383572 
L 842.598199 201.136763 
L 851.045424 200.890654 
L 859.492649 200.645242 
L 867.939874 200.399325 
L 876.387098 200.152487 
L 884.834323 199.906347 
L 893.281548 199.66091 
" clip-path="url(#p34e2edc83a)" style="fill: none; stroke: #637939; stroke-width: 2; stroke-linecap: round"/>
   </g>
   <g id="line2d_40">
    <path d="M 48.559071 315.092289 
L 57.006295 314.68959 
L 65.45352 314.288277 
L 73.900745 313.885104 
L 82.34797 313.483541 
L 90.795195 313.083593 
L 99.242419 312.681959 
L 107.689644 312.281508 
L 116.136869 311.882614 
L 124.584094 311.482886 
L 133.031318 311.083484 
L 141.478543 310.685672 
L 149.925768 310.287934 
L 158.372993 309.88957 
L 166.820217 309.49275 
L 175.267442 309.097107 
L 183.714667 308.699661 
L 192.161892 308.303798 
L 200.609117 307.909512 
L 209.056341 307.514043 
L 217.503566 307.119147 
L 225.950791 306.725748 
L 234.398016 306.332648 
L 242.84524 305.938633 
L 251.292465 305.546161 
L 259.73969 305.155222 
L 268.186915 304.76245 
L 276.63414 304.370859 
L 285.081364 303.980764 
L 293.528589 303.590602 
L 301.975814 303.199802 
L 310.423039 302.8105 
L 318.870263 302.422684 
L 327.317488 302.033158 
L 335.764713 301.644676 
L 344.211938 301.257683 
L 352.659162 300.871058 
L 361.106387 300.483344 
L 369.553612 300.097094 
L 378.000837 299.712306 
L 386.448062 299.32655 
L 394.895286 298.941042 
L 403.342511 298.556973 
L 411.789736 298.174322 
L 420.236961 297.789525 
L 428.684185 297.406123 
L 437.13141 297.02416 
L 445.578635 296.64272 
L 454.02586 296.259974 
L 462.473085 295.878692 
L 470.920309 295.498826 
L 479.367534 295.118708 
L 487.814759 294.738016 
L 496.261984 294.358766 
L 504.709208 293.980906 
L 513.156433 293.602185 
L 521.603658 293.223427 
L 530.050883 292.846181 
L 538.498107 292.470374 
L 546.945332 292.093295 
L 555.392557 291.716478 
L 563.839782 291.341012 
L 572.287007 290.966987 
L 580.734231 290.591634 
L 589.181456 290.216786 
L 597.628681 289.843325 
L 606.075906 289.471252 
L 614.52313 289.097869 
L 622.970355 288.72486 
L 631.41758 288.353198 
L 639.864805 287.98289 
L 648.31203 287.611562 
L 656.759254 287.240321 
L 665.206479 286.870442 
L 673.653704 286.501878 
L 682.100929 286.13277 
L 690.548153 285.763299 
L 698.995378 285.395178 
L 707.442603 285.028401 
L 715.889828 284.661781 
L 724.337052 284.294004 
L 732.784277 283.927563 
L 741.231502 283.562454 
L 749.678727 283.19846 
L 758.125952 282.83235 
L 766.573176 282.467551 
L 775.020401 282.104064 
L 783.467626 281.741857 
L 791.914851 281.378359 
L 800.362075 281.015115 
L 808.8093 280.653219 
L 817.256525 280.292623 
L 825.70375 279.932163 
L 834.150975 279.570556 
L 842.598199 279.210214 
L 851.045424 278.851143 
L 859.492649 278.493316 
L 867.939874 278.133716 
L 876.387098 277.774866 
L 884.834323 277.417244 
L 893.281548 277.060893 
" clip-path="url(#p34e2edc83a)" style="fill: none; stroke: #b5cf6b; stroke-width: 2; stroke-linecap: round"/>
   </g>
   <g id="line2d_41">
    <path d="M 48.559071 433.764869 
L 57.006295 433.315998 
L 65.45352 432.86658 
L 73.900745 432.416916 
L 82.34797 431.967269 
L 90.795195 431.517472 
L 99.242419 431.067127 
L 107.689644 430.616632 
L 116.136869 430.166061 
L 124.584094 429.715401 
L 133.031318 429.264426 
L 141.478543 428.813101 
L 149.925768 428.361646 
L 158.372993 427.910155 
L 166.820217 427.458531 
L 175.267442 427.006754 
L 183.714667 426.554483 
L 192.161892 426.102155 
L 200.609117 425.649716 
L 209.056341 425.197168 
L 217.503566 424.744514 
L 225.950791 424.291749 
L 234.398016 423.838871 
L 242.84524 423.385792 
L 251.292465 422.932457 
L 259.73969 422.479007 
L 268.186915 422.025459 
L 276.63414 421.571846 
L 285.081364 421.118061 
L 293.528589 420.664253 
L 301.975814 420.210291 
L 310.423039 419.756237 
L 318.870263 419.302075 
L 327.317488 418.847901 
L 335.764713 418.39361 
L 344.211938 417.939225 
L 352.659162 417.484775 
L 361.106387 417.030271 
L 369.553612 416.57565 
L 378.000837 416.12095 
L 386.448062 415.666229 
L 394.895286 415.211451 
L 403.342511 414.756592 
L 411.789736 414.30166 
L 420.236961 413.846694 
L 428.684185 413.391702 
L 437.13141 412.936685 
L 445.578635 412.481624 
L 454.02586 412.02656 
L 462.473085 411.571518 
L 470.920309 411.116455 
L 479.367534 410.661419 
L 487.814759 410.2064 
L 496.261984 409.751291 
L 504.709208 409.295922 
L 513.156433 408.840719 
L 521.603658 408.385372 
L 530.050883 407.930214 
L 538.498107 407.475157 
L 546.945332 407.020063 
L 555.392557 406.565005 
L 563.839782 406.110035 
L 572.287007 405.654869 
L 580.734231 405.199624 
L 589.181456 404.744509 
L 597.628681 404.289528 
L 606.075906 403.834684 
L 614.52313 403.379988 
L 622.970355 402.925294 
L 631.41758 402.470235 
L 639.864805 402.015328 
L 648.31203 401.560621 
L 656.759254 401.106084 
L 665.206479 400.651783 
L 673.653704 400.197078 
L 682.100929 399.742385 
L 690.548153 399.28799 
L 698.995378 398.833878 
L 707.442603 398.379998 
L 715.889828 397.92555 
L 724.337052 397.471337 
L 732.784277 397.017404 
L 741.231502 396.563867 
L 749.678727 396.110036 
L 758.125952 395.656112 
L 766.573176 395.202514 
L 775.020401 394.749319 
L 783.467626 394.296024 
L 791.914851 393.842427 
L 800.362075 393.389255 
L 808.8093 392.936633 
L 817.256525 392.483584 
L 825.70375 392.03056 
L 834.150975 391.578093 
L 842.598199 391.125982 
L 851.045424 390.673147 
L 859.492649 390.220814 
L 867.939874 389.769051 
L 876.387098 389.316931 
L 884.834323 388.864833 
L 893.281548 388.413354 
" clip-path="url(#p34e2edc83a)" style="fill: none; stroke: #8c6d31; stroke-width: 2; stroke-linecap: round"/>
   </g>
   <g id="line2d_42">
    <path d="M 48.559071 490.555515 
L 57.006295 490.20524 
L 65.45352 489.853713 
L 73.900745 489.500844 
L 82.34797 489.14676 
L 90.795195 488.791444 
L 99.242419 488.434852 
L 107.689644 488.077066 
L 116.136869 487.718011 
L 124.584094 487.357787 
L 133.031318 486.996401 
L 141.478543 486.633769 
L 149.925768 486.269942 
L 158.372993 485.904999 
L 166.820217 485.538884 
L 175.267442 485.171599 
L 183.714667 484.803171 
L 192.161892 484.433642 
L 200.609117 484.062995 
L 209.056341 483.691245 
L 217.503566 483.318421 
L 225.950791 482.944433 
L 234.398016 482.569404 
L 242.84524 482.193331 
L 251.292465 481.816151 
L 259.73969 481.437951 
L 268.186915 481.058705 
L 276.63414 480.678439 
L 285.081364 480.297105 
L 293.528589 479.914831 
L 301.975814 479.531458 
L 310.423039 479.147149 
L 318.870263 478.761827 
L 327.317488 478.375535 
L 335.764713 477.988287 
L 344.211938 477.600106 
L 352.659162 477.210978 
L 361.106387 476.820905 
L 369.553612 476.429851 
L 378.000837 476.037876 
L 386.448062 475.645022 
L 394.895286 475.251268 
L 403.342511 474.856606 
L 411.789736 474.461048 
L 420.236961 474.064625 
L 428.684185 473.667278 
L 437.13141 473.26908 
L 445.578635 472.870029 
L 454.02586 472.470169 
L 462.473085 472.069528 
L 470.920309 471.667934 
L 479.367534 471.26558 
L 487.814759 470.862471 
L 496.261984 470.458468 
L 504.709208 470.053635 
L 513.156433 469.648189 
L 521.603658 469.241707 
L 530.050883 468.834699 
L 538.498107 468.426809 
L 546.945332 468.018245 
L 555.392557 467.608746 
L 563.839782 467.198667 
L 572.287007 466.787723 
L 580.734231 466.376152 
L 589.181456 465.963887 
L 597.628681 465.550837 
L 606.075906 465.137189 
L 614.52313 464.722839 
L 622.970355 464.307678 
L 631.41758 463.891912 
L 639.864805 463.475536 
L 648.31203 463.058437 
L 656.759254 462.640614 
L 665.206479 462.22219 
L 673.653704 461.803115 
L 682.100929 461.383422 
L 690.548153 460.963165 
L 698.995378 460.542292 
L 707.442603 460.12071 
L 715.889828 459.698519 
L 724.337052 459.275755 
L 732.784277 458.852391 
L 741.231502 458.428498 
L 749.678727 458.003976 
L 758.125952 457.578906 
L 766.573176 457.153265 
L 775.020401 456.727087 
L 783.467626 456.300419 
L 791.914851 455.873076 
L 800.362075 455.445154 
L 808.8093 455.016791 
L 817.256525 454.587896 
L 825.70375 454.158476 
L 834.150975 453.728636 
L 842.598199 453.298313 
L 851.045424 452.86737 
L 859.492649 452.435879 
L 867.939874 452.003979 
L 876.387098 451.571688 
L 884.834323 451.138876 
L 893.281548 450.705464 
" clip-path="url(#p34e2edc83a)" style="fill: none; stroke: #e7cb94; stroke-width: 2; stroke-linecap: round"/>
   </g>
   <g id="line2d_43">
    <path d="M 48.559071 507.661948 
L 57.006295 507.401665 
L 65.45352 507.139437 
L 73.900745 506.87524 
L 82.34797 506.609141 
L 90.795195 506.341112 
L 99.242419 506.071206 
L 107.689644 505.799393 
L 116.136869 505.525713 
L 124.584094 505.250181 
L 133.031318 504.972805 
L 141.478543 504.693592 
L 149.925768 504.412547 
L 158.372993 504.129713 
L 166.820217 503.84509 
L 175.267442 503.558659 
L 183.714667 503.270463 
L 192.161892 502.980534 
L 200.609117 502.688855 
L 209.056341 502.395443 
L 217.503566 502.100333 
L 225.950791 501.803509 
L 234.398016 501.504997 
L 242.84524 501.204798 
L 251.292465 500.902954 
L 259.73969 500.599445 
L 268.186915 500.294293 
L 276.63414 499.987542 
L 285.081364 499.679125 
L 293.528589 499.369142 
L 301.975814 499.057546 
L 310.423039 498.744371 
L 318.870263 498.429618 
L 327.317488 498.11335 
L 335.764713 497.795535 
L 344.211938 497.476165 
L 352.659162 497.155305 
L 361.106387 496.832919 
L 369.553612 496.509034 
L 378.000837 496.183664 
L 386.448062 495.856844 
L 394.895286 495.528558 
L 403.342511 495.198804 
L 411.789736 494.867597 
L 420.236961 494.534977 
L 428.684185 494.200967 
L 437.13141 493.865512 
L 445.578635 493.528694 
L 454.02586 493.190463 
L 462.473085 492.850904 
L 470.920309 492.509972 
L 479.367534 492.167689 
L 487.814759 491.824067 
L 496.261984 491.479118 
L 504.709208 491.132814 
L 513.156433 490.785281 
L 521.603658 490.436367 
L 530.050883 490.086256 
L 538.498107 489.734854 
L 546.945332 489.382153 
L 555.392557 489.028207 
L 563.839782 488.672964 
L 572.287007 488.31657 
L 580.734231 487.958888 
L 589.181456 487.600051 
L 597.628681 487.240027 
L 606.075906 486.878777 
L 614.52313 486.516372 
L 622.970355 486.152777 
L 631.41758 485.788028 
L 639.864805 485.422131 
L 648.31203 485.055095 
L 656.759254 484.686903 
L 665.206479 484.317599 
L 673.653704 483.947154 
L 682.100929 483.575616 
L 690.548153 483.203046 
L 698.995378 482.829386 
L 707.442603 482.454605 
L 715.889828 482.078794 
L 724.337052 481.701911 
L 732.784277 481.323975 
L 741.231502 480.945062 
L 749.678727 480.565056 
L 758.125952 480.184058 
L 766.573176 479.802066 
L 775.020401 479.419023 
L 783.467626 479.035085 
L 791.914851 478.650097 
L 800.362075 478.264079 
L 808.8093 477.877193 
L 817.256525 477.489355 
L 825.70375 477.100555 
L 834.150975 476.710866 
L 842.598199 476.320224 
L 851.045424 475.928627 
L 859.492649 475.536117 
L 867.939874 475.142728 
L 876.387098 474.74845 
L 884.834323 474.353241 
L 893.281548 473.957165 
" clip-path="url(#p34e2edc83a)" style="fill: none; stroke: #ad494a; stroke-width: 2; stroke-linecap: round"/>
   </g>
   <g id="line2d_44">
    <path d="M 48.559071 514.434186 
L 57.006295 514.238861 
L 65.45352 514.041145 
L 73.900745 513.841024 
L 82.34797 513.638564 
L 90.795195 513.433739 
L 99.242419 513.226599 
L 107.689644 513.017122 
L 116.136869 512.805348 
L 124.584094 512.591294 
L 133.031318 512.374972 
L 141.478543 512.156388 
L 149.925768 511.935553 
L 158.372993 511.712512 
L 166.820217 511.487254 
L 175.267442 511.259788 
L 183.714667 511.030143 
L 192.161892 510.798343 
L 200.609117 510.564392 
L 209.056341 510.328302 
L 217.503566 510.090103 
L 225.950791 509.849788 
L 234.398016 509.607384 
L 242.84524 509.362898 
L 251.292465 509.116359 
L 259.73969 508.867772 
L 268.186915 508.617144 
L 276.63414 508.364512 
L 285.081364 508.109847 
L 293.528589 507.853222 
L 301.975814 507.594592 
L 310.423039 507.334003 
L 318.870263 507.071459 
L 327.317488 506.80701 
L 335.764713 506.540623 
L 344.211938 506.272331 
L 352.659162 506.002147 
L 361.106387 505.730099 
L 369.553612 505.456155 
L 378.000837 505.18036 
L 386.448062 504.902745 
L 394.895286 504.6233 
L 403.342511 504.342033 
L 411.789736 504.058961 
L 420.236961 503.774096 
L 428.684185 503.487463 
L 437.13141 503.199074 
L 445.578635 502.908931 
L 454.02586 502.617061 
L 462.473085 502.323462 
L 470.920309 502.028165 
L 479.367534 501.731178 
L 487.814759 501.432496 
L 496.261984 501.132142 
L 504.709208 500.830102 
L 513.156433 500.526458 
L 521.603658 500.221119 
L 530.050883 499.914213 
L 538.498107 499.605738 
L 546.945332 499.295595 
L 555.392557 498.983852 
L 563.839782 498.670542 
L 572.287007 498.355691 
L 580.734231 498.039279 
L 589.181456 497.721337 
L 597.628681 497.401899 
L 606.075906 497.080919 
L 614.52313 496.758466 
L 622.970355 496.434499 
L 631.41758 496.109037 
L 639.864805 495.78212 
L 648.31203 495.453757 
L 656.759254 495.123937 
L 665.206479 494.792693 
L 673.653704 494.459982 
L 682.100929 494.125875 
L 690.548153 493.790405 
L 698.995378 493.453553 
L 707.442603 493.115305 
L 715.889828 492.775705 
L 724.337052 492.434716 
L 732.784277 492.092388 
L 741.231502 491.748764 
L 749.678727 491.403783 
L 758.125952 491.057499 
L 766.573176 490.709908 
L 775.020401 490.361038 
L 783.467626 490.010937 
L 791.914851 489.659453 
L 800.362075 489.306734 
L 808.8093 488.952851 
L 817.256525 488.597666 
L 825.70375 488.241281 
L 834.150975 487.883668 
L 842.598199 487.524855 
L 851.045424 487.16486 
L 859.492649 486.803618 
L 867.939874 486.441219 
L 876.387098 486.077672 
L 884.834323 485.712951 
L 893.281548 485.347089 
" clip-path="url(#p34e2edc83a)" style="fill: none; stroke: #e7969c; stroke-width: 2; stroke-linecap: round"/>
   </g>
   <g id="line2d_45">
    <path d="M 48.559071 517.551036 
L 57.006295 517.402313 
L 65.45352 517.250894 
L 73.900745 517.096772 
L 82.34797 516.94001 
L 90.795195 516.780583 
L 99.242419 516.618541 
L 107.689644 516.45387 
L 116.136869 516.286606 
L 124.584094 516.116767 
L 133.031318 515.94437 
L 141.478543 515.769421 
L 149.925768 515.591933 
L 158.372993 515.411951 
L 166.820217 515.229465 
L 175.267442 515.044483 
L 183.714667 514.857046 
L 192.161892 514.667171 
L 200.609117 514.474856 
L 209.056341 514.280128 
L 217.503566 514.08301 
L 225.950791 513.883498 
L 234.398016 513.68163 
L 242.84524 513.477403 
L 251.292465 513.270843 
L 259.73969 513.061968 
L 268.186915 512.850786 
L 276.63414 512.637323 
L 285.081364 512.421565 
L 293.528589 512.203574 
L 301.975814 511.983325 
L 310.423039 511.760845 
L 318.870263 511.53615 
L 327.317488 511.309281 
L 335.764713 511.080224 
L 344.211938 510.848998 
L 352.659162 510.615627 
L 361.106387 510.380125 
L 369.553612 510.142484 
L 378.000837 509.902731 
L 386.448062 509.660906 
L 394.895286 509.417009 
L 403.342511 509.171034 
L 411.789736 508.922999 
L 420.236961 508.672928 
L 428.684185 508.420845 
L 437.13141 508.166757 
L 445.578635 507.910669 
L 454.02586 507.652611 
L 462.473085 507.392593 
L 470.920309 507.130626 
L 479.367534 506.866722 
L 487.814759 506.600899 
L 496.261984 506.333161 
L 504.709208 506.0635 
L 513.156433 505.792007 
L 521.603658 505.518589 
L 530.050883 505.243355 
L 538.498107 504.966316 
L 546.945332 504.687399 
L 555.392557 504.406657 
L 563.839782 504.124104 
L 572.287007 503.83979 
L 580.734231 503.55368 
L 589.181456 503.265833 
L 597.628681 502.976236 
L 606.075906 502.684916 
L 614.52313 502.391859 
L 622.970355 502.097094 
L 631.41758 501.800612 
L 639.864805 501.502451 
L 648.31203 501.202632 
L 656.759254 500.901131 
L 665.206479 500.597997 
L 673.653704 500.29319 
L 682.100929 499.986775 
L 690.548153 499.678762 
L 698.995378 499.369171 
L 707.442603 499.057975 
L 715.889828 498.745197 
L 724.337052 498.430858 
L 732.784277 498.114974 
L 741.231502 497.797577 
L 749.678727 497.478603 
L 758.125952 497.158147 
L 766.573176 496.836157 
L 775.020401 496.512685 
L 783.467626 496.187768 
L 791.914851 495.861331 
L 800.362075 495.533426 
L 808.8093 495.204123 
L 817.256525 494.873379 
L 825.70375 494.541195 
L 834.150975 494.207639 
L 842.598199 493.872642 
L 851.045424 493.536273 
L 859.492649 493.198486 
L 867.939874 492.859353 
L 876.387098 492.518899 
L 884.834323 492.177049 
L 893.281548 491.833872 
" clip-path="url(#p34e2edc83a)" style="fill: none; stroke: #a55194; stroke-width: 2; stroke-linecap: round"/>
   </g>
   <g id="line2d_46">
    <path d="M 48.559071 519.12662 
L 57.006295 519.011935 
L 65.45352 518.894338 
L 73.900745 518.77383 
L 82.34797 518.650461 
L 90.795195 518.524219 
L 99.242419 518.395149 
L 107.689644 518.263241 
L 116.136869 518.12853 
L 124.584094 517.991036 
L 133.031318 517.850774 
L 141.478543 517.707755 
L 149.925768 517.561994 
L 158.372993 517.41353 
L 166.820217 517.262361 
L 175.267442 517.108495 
L 183.714667 516.951971 
L 192.161892 516.792805 
L 200.609117 516.631003 
L 209.056341 516.466588 
L 217.503566 516.299583 
L 225.950791 516.129988 
L 234.398016 515.95784 
L 242.84524 515.783138 
L 251.292465 515.605911 
L 259.73969 515.426171 
L 268.186915 515.243935 
L 276.63414 515.059224 
L 285.081364 514.872032 
L 293.528589 514.68241 
L 301.975814 514.490345 
L 310.423039 514.295865 
L 318.870263 514.098981 
L 327.317488 513.899731 
L 335.764713 513.698112 
L 344.211938 513.494139 
L 352.659162 513.287834 
L 361.106387 513.079217 
L 369.553612 512.868282 
L 378.000837 512.655055 
L 386.448062 512.439573 
L 394.895286 512.221831 
L 403.342511 512.001844 
L 411.789736 511.779619 
L 420.236961 511.555184 
L 428.684185 511.328553 
L 437.13141 511.099747 
L 445.578635 510.868765 
L 454.02586 510.635641 
L 462.473085 510.400381 
L 470.920309 510.163003 
L 479.367534 509.923516 
L 487.814759 509.68194 
L 496.261984 509.438279 
L 504.709208 509.192534 
L 513.156433 508.944782 
L 521.603658 508.694938 
L 530.050883 508.443117 
L 538.498107 508.189318 
L 546.945332 507.933485 
L 555.392557 507.675656 
L 563.839782 507.415863 
L 572.287007 507.154137 
L 580.734231 506.890465 
L 589.181456 506.624888 
L 597.628681 506.357403 
L 606.075906 506.088027 
L 614.52313 505.816769 
L 622.970355 505.543635 
L 631.41758 505.268634 
L 639.864805 504.991801 
L 648.31203 504.71315 
L 656.759254 504.432662 
L 665.206479 504.150392 
L 673.653704 503.866301 
L 682.100929 503.580432 
L 690.548153 503.292832 
L 698.995378 503.003498 
L 707.442603 502.712412 
L 715.889828 502.419587 
L 724.337052 502.125061 
L 732.784277 501.828826 
L 741.231502 501.530933 
L 749.678727 501.23134 
L 758.125952 500.930092 
L 766.573176 500.627199 
L 775.020401 500.322658 
L 783.467626 500.016527 
L 791.914851 499.70873 
L 800.362075 499.399338 
L 808.8093 499.088408 
L 817.256525 498.775891 
L 825.70375 498.461781 
L 834.150975 498.146152 
L 842.598199 497.828981 
L 851.045424 497.510263 
L 859.492649 497.190023 
L 867.939874 496.868282 
L 876.387098 496.545081 
L 884.834323 496.220362 
L 893.281548 495.894178 
" clip-path="url(#p34e2edc83a)" style="fill: none; stroke: #de9ed6; stroke-width: 2; stroke-linecap: round"/>
   </g>
   <g id="patch_3">
    <path d="M 48.559071 521.153031 
L 48.559071 51.564121 
" style="fill: none"/>
   </g>
   <g id="patch_4">
    <path d="M 935.517672 521.153031 
L 935.517672 51.564121 
" style="fill: none"/>
   </g>
   <g id="patch_5">
    <path d="M 48.559071 521.153031 
L 935.517672 521.153031 
" style="fill: none"/>
   </g>
   <g id="patch_6">
    <path d="M 48.559071 51.564121 
L 935.517672 51.564121 
" style="fill: none"/>
   </g>
   <g id="patch_7">
    <path d="M 470.920309 98.194931 
Q 470.920309 286.403934 470.920309 472.935886 
" style="fill: none; stroke: #000000; stroke-width: 1.5; stroke-linecap: round"/>
    <path d="M 474.120309 466.535886 
L 470.920309 472.935886 
L 467.720309 466.535886 
" style="fill: none; stroke: #000000; stroke-width: 1.5; stroke-linecap: round"/>
   </g>
   <g id="text_20">
    <!-- Time -->
    <g style="fill: #262626" transform="translate(492.038371 473.125637) scale(0.18 -0.18)">
     <defs>
      <path id="CMR17-54" d="M 3981 4326 
L 288 4326 
L 179 2918 
L 294 2918 
C 378 3976 467 4160 1453 4160 
C 1568 4160 1754 4160 1805 4154 
C 1926 4135 1926 4058 1926 3912 
L 1926 459 
C 1926 230 1907 160 1376 160 
L 1197 160 
L 1197 0 
C 1504 0 1824 0 2138 0 
C 2451 0 2771 0 3078 0 
L 3078 160 
L 2899 160 
C 2368 160 2349 230 2349 459 
L 2349 3912 
C 2349 4052 2349 4129 2464 4154 
C 2515 4160 2701 4160 2816 4160 
C 3795 4160 3891 3976 3974 2918 
L 4090 2918 
L 3981 4326 
z
" transform="scale(0.015625)"/>
      <path id="CMR17-69" d="M 992 3909 
C 992 4049 877 4170 730 4170 
C 589 4170 467 4056 467 3909 
C 467 3769 582 3648 730 3648 
C 870 3648 992 3763 992 3909 
z
M 243 2706 
L 243 2541 
C 602 2541 653 2502 653 2197 
L 653 427 
C 653 184 627 153 218 153 
L 218 -13 
C 371 0 646 0 806 0 
C 960 0 1222 0 1370 -13 
L 1370 153 
C 992 153 979 191 979 420 
L 979 2776 
L 243 2706 
z
" transform="scale(0.015625)"/>
      <path id="CMR17-6d" d="M 4326 1933 
C 4326 2252 4269 2790 3507 2790 
C 3072 2790 2771 2496 2656 2151 
L 2650 2151 
C 2573 2676 2195 2790 1837 2790 
C 1331 2790 1069 2400 973 2144 
L 966 2144 
L 966 2790 
L 211 2720 
L 211 2554 
C 589 2554 646 2515 646 2208 
L 646 428 
C 646 184 621 153 211 153 
L 211 -13 
C 365 0 646 0 813 0 
C 979 0 1267 0 1421 -13 
L 1421 153 
C 1011 153 986 178 986 428 
L 986 1658 
C 986 2247 1344 2688 1792 2688 
C 2266 2688 2317 2266 2317 1958 
L 2317 428 
C 2317 184 2291 153 1882 153 
L 1882 -13 
C 2035 0 2317 0 2483 0 
C 2650 0 2938 0 3091 -13 
L 3091 153 
C 2682 153 2656 178 2656 428 
L 2656 1658 
C 2656 2247 3014 2688 3462 2688 
C 3936 2688 3987 2266 3987 1958 
L 3987 428 
C 3987 184 3962 153 3552 153 
L 3552 -13 
C 3706 0 3987 0 4154 0 
C 4320 0 4608 0 4762 -13 
L 4762 153 
C 4352 153 4326 178 4326 428 
L 4326 1933 
z
" transform="scale(0.015625)"/>
      <path id="CMR17-65" d="M 2438 1472 
C 2464 1498 2464 1511 2464 1576 
C 2464 2238 2118 2816 1389 2816 
C 710 2816 173 2169 173 1383 
C 173 551 781 -64 1459 -64 
C 2176 -64 2458 607 2458 740 
C 2458 784 2419 784 2406 784 
C 2362 784 2355 771 2330 696 
C 2189 265 1837 51 1504 51 
C 1229 51 954 203 781 480 
C 582 803 582 1176 582 1472 
L 2438 1472 
z
M 589 1568 
C 634 2505 1126 2714 1382 2714 
C 1818 2714 2112 2297 2118 1568 
L 589 1568 
z
" transform="scale(0.015625)"/>
     </defs>
     <use xlink:href="#CMR17-54" transform="scale(0.996264)"/>
     <use xlink:href="#CMR17-69" transform="translate(66.509881 0) scale(0.996264)"/>
     <use xlink:href="#CMR17-6d" transform="translate(91.380939 0) scale(0.996264)"/>
     <use xlink:href="#CMR17-65" transform="translate(168.300529 0) scale(0.996264)"/>
    </g>
   </g>
   <g id="legend_1">
    <g id="line2d_47">
     <path d="M 948.117672 197.198434 
L 962.117672 197.198434 
L 976.117672 197.198434 
" style="fill: none; stroke: #393b79; stroke-width: 2; stroke-linecap: round"/>
    </g>
    <g id="text_21">
     <!-- t = 0.00 -->
     <g style="fill: #262626" transform="translate(987.317672 202.098434) scale(0.14 -0.14)">
      <defs>
       <path id="CMR17-74" d="M 966 2560 
L 1862 2560 
L 1862 2725 
L 966 2725 
L 966 3904 
L 851 3904 
C 838 3245 614 2668 70 2668 
L 70 2560 
L 627 2560 
L 627 771 
C 627 650 627 -64 1370 -64 
C 1747 -64 1965 306 1965 777 
L 1965 1140 
L 1850 1140 
L 1850 783 
C 1850 344 1677 51 1408 51 
C 1222 51 966 178 966 758 
L 966 2560 
z
" transform="scale(0.015625)"/>
       <path id="CMR17-3d" d="M 4115 2017 
C 4211 2017 4307 2017 4307 2125 
C 4307 2240 4198 2240 4090 2240 
L 512 2240 
C 403 2240 294 2240 294 2125 
C 294 2017 390 2017 486 2017 
L 4115 2017 
z
M 4090 896 
C 4198 896 4307 896 4307 1011 
C 4307 1119 4211 1119 4115 1119 
L 486 1119 
C 390 1119 294 1119 294 1011 
C 294 896 403 896 512 896 
L 4090 896 
z
" transform="scale(0.015625)"/>
       <path id="CMR17-2e" d="M 1062 261 
C 1062 420 934 522 800 522 
C 672 522 538 420 538 261 
C 538 102 666 0 800 0 
C 928 0 1062 102 1062 261 
z
" transform="scale(0.015625)"/>
      </defs>
      <use xlink:href="#CMR17-74" transform="scale(0.996264)"/>
      <use xlink:href="#CMR17-3d" transform="translate(65.356734 0) scale(0.996264)"/>
      <use xlink:href="#CMR17-30" transform="translate(167.147489 0) scale(0.996264)"/>
      <use xlink:href="#CMR17-2e" transform="translate(212.837966 0) scale(0.996264)"/>
      <use xlink:href="#CMR17-30" transform="translate(237.709025 0) scale(0.996264)"/>
      <use xlink:href="#CMR17-30" transform="translate(283.399502 0) scale(0.996264)"/>
     </g>
    </g>
    <g id="line2d_48">
     <path d="M 948.117672 216.710462 
L 962.117672 216.710462 
L 976.117672 216.710462 
" style="fill: none; stroke: #6b6ecf; stroke-width: 2; stroke-linecap: round"/>
    </g>
    <g id="text_22">
     <!-- t = 10.00 -->
     <g style="fill: #262626" transform="translate(987.317672 221.610462) scale(0.14 -0.14)">
      <use xlink:href="#CMR17-74" transform="scale(0.996264)"/>
      <use xlink:href="#CMR17-3d" transform="translate(65.356734 0) scale(0.996264)"/>
      <use xlink:href="#CMR17-31" transform="translate(167.147489 0) scale(0.996264)"/>
      <use xlink:href="#CMR17-30" transform="translate(212.837966 0) scale(0.996264)"/>
      <use xlink:href="#CMR17-2e" transform="translate(258.528443 0) scale(0.996264)"/>
      <use xlink:href="#CMR17-30" transform="translate(283.399502 0) scale(0.996264)"/>
      <use xlink:href="#CMR17-30" transform="translate(329.089979 0) scale(0.996264)"/>
     </g>
    </g>
    <g id="line2d_49">
     <path d="M 948.117672 236.222491 
L 962.117672 236.222491 
L 976.117672 236.222491 
" style="fill: none; stroke: #637939; stroke-width: 2; stroke-linecap: round"/>
    </g>
    <g id="text_23">
     <!-- t = 50.00 -->
     <g style="fill: #262626" transform="translate(987.317672 241.122491) scale(0.14 -0.14)">
      <use xlink:href="#CMR17-74" transform="scale(0.996264)"/>
      <use xlink:href="#CMR17-3d" transform="translate(65.356734 0) scale(0.996264)"/>
      <use xlink:href="#CMR17-35" transform="translate(167.147489 0) scale(0.996264)"/>
      <use xlink:href="#CMR17-30" transform="translate(212.837966 0) scale(0.996264)"/>
      <use xlink:href="#CMR17-2e" transform="translate(258.528443 0) scale(0.996264)"/>
      <use xlink:href="#CMR17-30" transform="translate(283.399502 0) scale(0.996264)"/>
      <use xlink:href="#CMR17-30" transform="translate(329.089979 0) scale(0.996264)"/>
     </g>
    </g>
    <g id="line2d_50">
     <path d="M 948.117672 255.734519 
L 962.117672 255.734519 
L 976.117672 255.734519 
" style="fill: none; stroke: #b5cf6b; stroke-width: 2; stroke-linecap: round"/>
    </g>
    <g id="text_24">
     <!-- t = 100.00 -->
     <g style="fill: #262626" transform="translate(987.317672 260.634519) scale(0.14 -0.14)">
      <use xlink:href="#CMR17-74" transform="scale(0.996264)"/>
      <use xlink:href="#CMR17-3d" transform="translate(65.356734 0) scale(0.996264)"/>
      <use xlink:href="#CMR17-31" transform="translate(167.147489 0) scale(0.996264)"/>
      <use xlink:href="#CMR17-30" transform="translate(212.837966 0) scale(0.996264)"/>
      <use xlink:href="#CMR17-30" transform="translate(258.528443 0) scale(0.996264)"/>
      <use xlink:href="#CMR17-2e" transform="translate(304.21892 0) scale(0.996264)"/>
      <use xlink:href="#CMR17-30" transform="translate(329.089979 0) scale(0.996264)"/>
      <use xlink:href="#CMR17-30" transform="translate(374.780456 0) scale(0.996264)"/>
     </g>
    </g>
    <g id="line2d_51">
     <path d="M 948.117672 275.246547 
L 962.117672 275.246547 
L 976.117672 275.246547 
" style="fill: none; stroke: #8c6d31; stroke-width: 2; stroke-linecap: round"/>
    </g>
    <g id="text_25">
     <!-- t = 250.00 -->
     <g style="fill: #262626" transform="translate(987.317672 280.146547) scale(0.14 -0.14)">
      <use xlink:href="#CMR17-74" transform="scale(0.996264)"/>
      <use xlink:href="#CMR17-3d" transform="translate(65.356734 0) scale(0.996264)"/>
      <use xlink:href="#CMR17-32" transform="translate(167.147489 0) scale(0.996264)"/>
      <use xlink:href="#CMR17-35" transform="translate(212.837966 0) scale(0.996264)"/>
      <use xlink:href="#CMR17-30" transform="translate(258.528443 0) scale(0.996264)"/>
      <use xlink:href="#CMR17-2e" transform="translate(304.21892 0) scale(0.996264)"/>
      <use xlink:href="#CMR17-30" transform="translate(329.089979 0) scale(0.996264)"/>
      <use xlink:href="#CMR17-30" transform="translate(374.780456 0) scale(0.996264)"/>
     </g>
    </g>
    <g id="line2d_52">
     <path d="M 948.117672 294.758576 
L 962.117672 294.758576 
L 976.117672 294.758576 
" style="fill: none; stroke: #e7cb94; stroke-width: 2; stroke-linecap: round"/>
    </g>
    <g id="text_26">
     <!-- t = 500.00 -->
     <g style="fill: #262626" transform="translate(987.317672 299.658576) scale(0.14 -0.14)">
      <use xlink:href="#CMR17-74" transform="scale(0.996264)"/>
      <use xlink:href="#CMR17-3d" transform="translate(65.356734 0) scale(0.996264)"/>
      <use xlink:href="#CMR17-35" transform="translate(167.147489 0) scale(0.996264)"/>
      <use xlink:href="#CMR17-30" transform="translate(212.837966 0) scale(0.996264)"/>
      <use xlink:href="#CMR17-30" transform="translate(258.528443 0) scale(0.996264)"/>
      <use xlink:href="#CMR17-2e" transform="translate(304.21892 0) scale(0.996264)"/>
      <use xlink:href="#CMR17-30" transform="translate(329.089979 0) scale(0.996264)"/>
      <use xlink:href="#CMR17-30" transform="translate(374.780456 0) scale(0.996264)"/>
     </g>
    </g>
    <g id="line2d_53">
     <path d="M 948.117672 314.270604 
L 962.117672 314.270604 
L 976.117672 314.270604 
" style="fill: none; stroke: #ad494a; stroke-width: 2; stroke-linecap: round"/>
    </g>
    <g id="text_27">
     <!-- t = 750.00 -->
     <g style="fill: #262626" transform="translate(987.317672 319.170604) scale(0.14 -0.14)">
      <use xlink:href="#CMR17-74" transform="scale(0.996264)"/>
      <use xlink:href="#CMR17-3d" transform="translate(65.356734 0) scale(0.996264)"/>
      <use xlink:href="#CMR17-37" transform="translate(167.147489 0) scale(0.996264)"/>
      <use xlink:href="#CMR17-35" transform="translate(212.837966 0) scale(0.996264)"/>
      <use xlink:href="#CMR17-30" transform="translate(258.528443 0) scale(0.996264)"/>
      <use xlink:href="#CMR17-2e" transform="translate(304.21892 0) scale(0.996264)"/>
      <use xlink:href="#CMR17-30" transform="translate(329.089979 0) scale(0.996264)"/>
      <use xlink:href="#CMR17-30" transform="translate(374.780456 0) scale(0.996264)"/>
     </g>
    </g>
    <g id="line2d_54">
     <path d="M 948.117672 333.782633 
L 962.117672 333.782633 
L 976.117672 333.782633 
" style="fill: none; stroke: #e7969c; stroke-width: 2; stroke-linecap: round"/>
    </g>
    <g id="text_28">
     <!-- t = 1000.00 -->
     <g style="fill: #262626" transform="translate(987.317672 338.682633) scale(0.14 -0.14)">
      <use xlink:href="#CMR17-74" transform="scale(0.996264)"/>
      <use xlink:href="#CMR17-3d" transform="translate(65.356734 0) scale(0.996264)"/>
      <use xlink:href="#CMR17-31" transform="translate(167.147489 0) scale(0.996264)"/>
      <use xlink:href="#CMR17-30" transform="translate(212.837966 0) scale(0.996264)"/>
      <use xlink:href="#CMR17-30" transform="translate(258.528443 0) scale(0.996264)"/>
      <use xlink:href="#CMR17-30" transform="translate(304.21892 0) scale(0.996264)"/>
      <use xlink:href="#CMR17-2e" transform="translate(349.909397 0) scale(0.996264)"/>
      <use xlink:href="#CMR17-30" transform="translate(374.780456 0) scale(0.996264)"/>
      <use xlink:href="#CMR17-30" transform="translate(420.470933 0) scale(0.996264)"/>
     </g>
    </g>
    <g id="line2d_55">
     <path d="M 948.117672 353.294661 
L 962.117672 353.294661 
L 976.117672 353.294661 
" style="fill: none; stroke: #a55194; stroke-width: 2; stroke-linecap: round"/>
    </g>
    <g id="text_29">
     <!-- t = 1250.00 -->
     <g style="fill: #262626" transform="translate(987.317672 358.194661) scale(0.14 -0.14)">
      <use xlink:href="#CMR17-74" transform="scale(0.996264)"/>
      <use xlink:href="#CMR17-3d" transform="translate(65.356734 0) scale(0.996264)"/>
      <use xlink:href="#CMR17-31" transform="translate(167.147489 0) scale(0.996264)"/>
      <use xlink:href="#CMR17-32" transform="translate(212.837966 0) scale(0.996264)"/>
      <use xlink:href="#CMR17-35" transform="translate(258.528443 0) scale(0.996264)"/>
      <use xlink:href="#CMR17-30" transform="translate(304.21892 0) scale(0.996264)"/>
      <use xlink:href="#CMR17-2e" transform="translate(349.909397 0) scale(0.996264)"/>
      <use xlink:href="#CMR17-30" transform="translate(374.780456 0) scale(0.996264)"/>
      <use xlink:href="#CMR17-30" transform="translate(420.470933 0) scale(0.996264)"/>
     </g>
    </g>
    <g id="line2d_56">
     <path d="M 948.117672 372.806689 
L 962.117672 372.806689 
L 976.117672 372.806689 
" style="fill: none; stroke: #de9ed6; stroke-width: 2; stroke-linecap: round"/>
    </g>
    <g id="text_30">
     <!-- t = 1500.00 -->
     <g style="fill: #262626" transform="translate(987.317672 377.706689) scale(0.14 -0.14)">
      <use xlink:href="#CMR17-74" transform="scale(0.996264)"/>
      <use xlink:href="#CMR17-3d" transform="translate(65.356734 0) scale(0.996264)"/>
      <use xlink:href="#CMR17-31" transform="translate(167.147489 0) scale(0.996264)"/>
      <use xlink:href="#CMR17-35" transform="translate(212.837966 0) scale(0.996264)"/>
      <use xlink:href="#CMR17-30" transform="translate(258.528443 0) scale(0.996264)"/>
      <use xlink:href="#CMR17-30" transform="translate(304.21892 0) scale(0.996264)"/>
      <use xlink:href="#CMR17-2e" transform="translate(349.909397 0) scale(0.996264)"/>
      <use xlink:href="#CMR17-30" transform="translate(374.780456 0) scale(0.996264)"/>
      <use xlink:href="#CMR17-30" transform="translate(420.470933 0) scale(0.996264)"/>
     </g>
    </g>
   </g>
  </g>
  <g id="text_31">
   <!-- adhesivity -->
   <g style="fill: #262626" transform="translate(501.333696 24.803515) scale(0.192 -0.192)">
    <defs>
     <path id="CMR17-61" d="M 2304 1653 
C 2304 2072 2304 2294 2035 2543 
C 1798 2752 1523 2816 1306 2816 
C 800 2816 435 2407 435 1971 
C 435 1728 627 1728 666 1728 
C 749 1728 896 1778 896 1954 
C 896 2112 774 2181 666 2181 
C 640 2181 608 2174 589 2168 
C 723 2592 1069 2714 1293 2714 
C 1613 2714 1965 2429 1965 1885 
L 1965 1600 
C 1587 1600 1133 1549 774 1357 
C 371 1133 256 813 256 570 
C 256 77 832 -64 1171 -64 
C 1523 -64 1850 139 1990 511 
C 2003 233 2182 -18 2464 -18 
C 2598 -18 2938 70 2938 567 
L 2938 920 
L 2822 920 
L 2822 562 
C 2822 178 2650 128 2566 128 
C 2304 128 2304 458 2304 738 
L 2304 1653 
z
M 1965 870 
C 1965 317 1568 38 1216 38 
C 896 38 646 275 646 570 
C 646 761 730 1100 1101 1305 
C 1408 1478 1760 1504 1965 1504 
L 1965 870 
z
" transform="scale(0.015625)"/>
     <path id="CMR17-64" d="M 1869 4326 
L 1869 4160 
C 2246 4160 2304 4122 2304 3820 
L 2304 2345 
C 2278 2377 2016 2790 1498 2790 
C 845 2790 211 2208 211 1364 
C 211 525 806 -64 1434 -64 
C 1978 -64 2259 337 2291 380 
L 2291 -63 
L 3066 -63 
L 3066 128 
C 2688 128 2630 166 2630 473 
L 2630 4396 
L 1869 4326 
z
M 2291 755 
C 2291 563 2176 390 2029 262 
C 1811 70 1594 38 1472 38 
C 1286 38 621 134 621 1356 
C 621 2612 1363 2688 1530 2688 
C 1824 2688 2061 2522 2208 2291 
C 2291 2157 2291 2138 2291 2023 
L 2291 755 
z
" transform="scale(0.015625)"/>
     <path id="CMR17-68" d="M 2656 1933 
C 2656 2259 2592 2790 1837 2790 
C 1312 2790 1056 2368 979 2157 
L 973 2157 
L 973 4396 
L 211 4326 
L 211 4160 
C 589 4160 646 4122 646 3817 
L 646 426 
C 646 184 621 153 211 153 
L 211 -13 
C 365 0 646 0 813 0 
C 979 0 1267 0 1421 -13 
L 1421 153 
C 1011 153 986 178 986 428 
L 986 1658 
C 986 2247 1344 2688 1792 2688 
C 2266 2688 2317 2266 2317 1958 
L 2317 428 
C 2317 184 2291 153 1882 153 
L 1882 -13 
C 2035 0 2317 0 2483 0 
C 2650 0 2938 0 3091 -13 
L 3091 153 
C 2682 153 2656 178 2656 428 
L 2656 1933 
z
" transform="scale(0.015625)"/>
     <path id="CMR17-73" d="M 1978 2697 
C 1978 2813 1971 2819 1933 2819 
C 1907 2819 1901 2813 1824 2717 
C 1805 2691 1747 2626 1728 2601 
C 1523 2819 1235 2819 1126 2819 
C 416 2819 160 2447 160 2076 
C 160 1498 813 1365 998 1325 
C 1402 1243 1542 1217 1677 1101 
C 1760 1025 1901 884 1901 654 
C 1901 384 1747 38 1158 38 
C 602 38 403 460 288 1021 
C 269 1110 269 1117 218 1117 
C 166 1117 160 1110 160 983 
L 160 63 
C 160 -51 166 -58 205 -58 
C 237 -58 243 -51 275 0 
C 314 57 410 211 448 276 
C 576 103 800 -64 1158 -64 
C 1792 -64 2131 283 2131 784 
C 2131 1112 1958 1285 1875 1362 
C 1683 1561 1459 1606 1190 1657 
C 838 1735 390 1825 390 2217 
C 390 2383 480 2737 1126 2737 
C 1811 2737 1850 2094 1862 1888 
C 1869 1856 1901 1849 1920 1849 
C 1978 1849 1978 1869 1978 1978 
L 1978 2697 
z
" transform="scale(0.015625)"/>
     <path id="CMR17-76" d="M 2502 2163 
C 2560 2304 2662 2560 3034 2560 
L 3034 2726 
C 2912 2726 2752 2726 2630 2726 
C 2496 2726 2285 2726 2157 2732 
L 2157 2566 
C 2317 2553 2406 2477 2406 2311 
C 2406 2253 2406 2240 2368 2151 
L 1664 377 
L 902 2286 
C 864 2369 864 2381 864 2407 
C 864 2560 1075 2560 1171 2560 
L 1171 2732 
C 1018 2726 736 2726 576 2726 
C 403 2726 205 2726 64 2732 
L 64 2560 
C 307 2560 442 2560 518 2362 
L 1446 44 
C 1485 -51 1491 -64 1549 -64 
C 1606 -64 1613 -51 1651 44 
L 2502 2163 
z
" transform="scale(0.015625)"/>
     <path id="CMR17-79" d="M 2496 2197 
C 2656 2586 2944 2586 3034 2586 
L 3034 2752 
C 2912 2752 2752 2752 2630 2752 
C 2496 2752 2285 2752 2157 2758 
L 2157 2592 
C 2400 2573 2406 2394 2406 2343 
C 2406 2280 2394 2248 2362 2171 
L 1664 449 
L 902 2306 
C 870 2382 870 2426 870 2433 
C 870 2573 1018 2586 1171 2586 
L 1171 2758 
C 1018 2752 742 2752 582 2752 
C 410 2752 205 2752 64 2758 
L 64 2586 
C 410 2586 448 2554 531 2350 
L 1485 15 
C 1197 -738 1030 -1178 627 -1178 
C 557 -1178 397 -1159 282 -1044 
C 429 -1031 493 -942 493 -833 
C 493 -725 416 -629 288 -629 
C 147 -629 77 -725 77 -840 
C 77 -1095 339 -1280 627 -1280 
C 998 -1280 1229 -922 1357 -604 
L 2496 2197 
z
" transform="scale(0.015625)"/>
    </defs>
    <use xlink:href="#CMR17-61" transform="scale(0.996264)"/>
    <use xlink:href="#CMR17-64" transform="translate(45.690477 0) scale(0.996264)"/>
    <use xlink:href="#CMR17-68" transform="translate(96.585847 0) scale(0.996264)"/>
    <use xlink:href="#CMR17-65" transform="translate(147.481217 0) scale(0.996264)"/>
    <use xlink:href="#CMR17-73" transform="translate(187.966877 0) scale(0.996264)"/>
    <use xlink:href="#CMR17-69" transform="translate(223.768215 0) scale(0.996264)"/>
    <use xlink:href="#CMR17-76" transform="translate(248.639273 0) scale(0.996264)"/>
    <use xlink:href="#CMR17-69" transform="translate(296.932189 0) scale(0.996264)"/>
    <use xlink:href="#CMR17-74" transform="translate(321.803248 0) scale(0.996264)"/>
    <use xlink:href="#CMR17-79" transform="translate(354.481561 0) scale(0.996264)"/>
   </g>
  </g>
 </g>
 <defs>
  <clipPath id="p34e2edc83a">
   <rect x="48.559071" y="51.564121" width="886.958601" height="469.58891"/>
  </clipPath>
 </defs>
</svg>
