<?xml version="1.0" encoding="utf-8" standalone="no"?>
<!DOCTYPE svg PUBLIC "-//W3C//DTD SVG 1.1//EN"
  "http://www.w3.org/Graphics/SVG/1.1/DTD/svg11.dtd">
<svg xmlns:xlink="http://www.w3.org/1999/xlink" width="1080pt" height="756pt" viewBox="0 0 1080 756" xmlns="http://www.w3.org/2000/svg" version="1.1">
 <metadata>
  <rdf:RDF xmlns:dc="http://purl.org/dc/elements/1.1/" xmlns:cc="http://creativecommons.org/ns#" xmlns:rdf="http://www.w3.org/1999/02/22-rdf-syntax-ns#">
   <cc:Work>
    <dc:type rdf:resource="http://purl.org/dc/dcmitype/StillImage"/>
    <dc:date>2024-07-31T08:56:49.167972</dc:date>
    <dc:format>image/svg+xml</dc:format>
    <dc:creator>
     <cc:Agent>
      <dc:title>Matplotlib v3.9.0, https://matplotlib.org/</dc:title>
     </cc:Agent>
    </dc:creator>
   </cc:Work>
  </rdf:RDF>
 </metadata>
 <defs>
  <style type="text/css">*{stroke-linejoin: round; stroke-linecap: butt}</style>
 </defs>
 <g id="figure_1">
  <g id="patch_1">
   <path d="M 0 756 
L 1080 756 
L 1080 0 
L 0 0 
z
" style="fill: #ffffff"/>
  </g>
  <g id="axes_1">
   <g id="patch_2">
    <path d="M 88.532127 678.237256 
L 1041.12 678.237256 
L 1041.12 38.88 
L 88.532127 38.88 
z
" style="fill: #ffffff"/>
   </g>
   <g id="matplotlib.axis_1">
    <g id="xtick_1">
     <g id="line2d_1">
      <defs>
       <path id="m24324c08f9" d="M 0 0 
L 0 3.5 
" style="stroke: #262626; stroke-width: 0.8"/>
      </defs>
      <g>
       <use xlink:href="#m24324c08f9" x="88.532127" y="678.237256" style="fill: #262626; stroke: #262626; stroke-width: 0.8"/>
      </g>
     </g>
     <g id="text_1">
      <!-- $\mathdefault{0.0}$ -->
      <g style="fill: #262626" transform="translate(67.206064 710.143856) scale(0.36 -0.36)">
       <defs>
        <path id="CMR17-30" d="M 2688 2025 
C 2688 2416 2682 3080 2413 3591 
C 2176 4039 1798 4198 1466 4198 
C 1158 4198 768 4058 525 3597 
C 269 3118 243 2524 243 2025 
C 243 1661 250 1106 448 619 
C 723 -39 1216 -128 1466 -128 
C 1760 -128 2208 -7 2470 600 
C 2662 1042 2688 1559 2688 2025 
z
M 1466 -26 
C 1056 -26 813 325 723 812 
C 653 1188 653 1738 653 2096 
C 653 2588 653 2997 736 3387 
C 858 3929 1216 4096 1466 4096 
C 1728 4096 2067 3923 2189 3400 
C 2272 3036 2278 2607 2278 2096 
C 2278 1680 2278 1169 2202 792 
C 2067 95 1690 -26 1466 -26 
z
" transform="scale(0.015625)"/>
        <path id="CMMI12-3a" d="M 1178 307 
C 1178 492 1024 619 870 619 
C 685 619 557 466 557 313 
C 557 128 710 0 864 0 
C 1050 0 1178 153 1178 307 
z
" transform="scale(0.015625)"/>
       </defs>
       <use xlink:href="#CMR17-30" transform="scale(0.996264)"/>
       <use xlink:href="#CMMI12-3a" transform="translate(45.690477 0) scale(0.996264)"/>
       <use xlink:href="#CMR17-30" transform="translate(72.787654 0) scale(0.996264)"/>
      </g>
     </g>
    </g>
    <g id="xtick_2">
     <g id="line2d_2">
      <g>
       <use xlink:href="#m24324c08f9" x="269.977436" y="678.237256" style="fill: #262626; stroke: #262626; stroke-width: 0.8"/>
      </g>
     </g>
     <g id="text_2">
      <!-- $\mathdefault{0.2}$ -->
      <g style="fill: #262626" transform="translate(248.651373 710.143856) scale(0.36 -0.36)">
       <defs>
        <path id="CMR17-32" d="M 2669 989 
L 2554 989 
C 2490 536 2438 459 2413 420 
C 2381 369 1920 369 1830 369 
L 602 369 
C 832 619 1280 1072 1824 1597 
C 2214 1967 2669 2402 2669 3035 
C 2669 3790 2067 4224 1395 4224 
C 691 4224 262 3604 262 3030 
C 262 2780 448 2748 525 2748 
C 589 2748 781 2787 781 3010 
C 781 3207 614 3264 525 3264 
C 486 3264 448 3258 422 3245 
C 544 3790 915 4058 1306 4058 
C 1862 4058 2227 3617 2227 3035 
C 2227 2479 1901 2000 1536 1584 
L 262 146 
L 262 0 
L 2515 0 
L 2669 989 
z
" transform="scale(0.015625)"/>
       </defs>
       <use xlink:href="#CMR17-30" transform="scale(0.996264)"/>
       <use xlink:href="#CMMI12-3a" transform="translate(45.690477 0) scale(0.996264)"/>
       <use xlink:href="#CMR17-32" transform="translate(72.787654 0) scale(0.996264)"/>
      </g>
     </g>
    </g>
    <g id="xtick_3">
     <g id="line2d_3">
      <g>
       <use xlink:href="#m24324c08f9" x="451.422745" y="678.237256" style="fill: #262626; stroke: #262626; stroke-width: 0.8"/>
      </g>
     </g>
     <g id="text_3">
      <!-- $\mathdefault{0.4}$ -->
      <g style="fill: #262626" transform="translate(430.096682 710.143856) scale(0.36 -0.36)">
       <defs>
        <path id="CMR17-34" d="M 2150 4122 
C 2150 4256 2144 4256 2029 4256 
L 128 1254 
L 128 1088 
L 1779 1088 
L 1779 457 
C 1779 224 1766 160 1318 160 
L 1197 160 
L 1197 0 
C 1402 0 1747 0 1965 0 
C 2182 0 2528 0 2733 0 
L 2733 160 
L 2611 160 
C 2163 160 2150 224 2150 457 
L 2150 1088 
L 2803 1088 
L 2803 1254 
L 2150 1254 
L 2150 4122 
z
M 1798 3703 
L 1798 1254 
L 256 1254 
L 1798 3703 
z
" transform="scale(0.015625)"/>
       </defs>
       <use xlink:href="#CMR17-30" transform="scale(0.996264)"/>
       <use xlink:href="#CMMI12-3a" transform="translate(45.690477 0) scale(0.996264)"/>
       <use xlink:href="#CMR17-34" transform="translate(72.787654 0) scale(0.996264)"/>
      </g>
     </g>
    </g>
    <g id="xtick_4">
     <g id="line2d_4">
      <g>
       <use xlink:href="#m24324c08f9" x="632.868055" y="678.237256" style="fill: #262626; stroke: #262626; stroke-width: 0.8"/>
      </g>
     </g>
     <g id="text_4">
      <!-- $\mathdefault{0.6}$ -->
      <g style="fill: #262626" transform="translate(611.541991 710.143856) scale(0.36 -0.36)">
       <defs>
        <path id="CMR17-36" d="M 678 2176 
C 678 3690 1395 4032 1811 4032 
C 1946 4032 2272 4009 2400 3776 
C 2298 3776 2106 3776 2106 3553 
C 2106 3381 2246 3323 2336 3323 
C 2394 3323 2566 3348 2566 3560 
C 2566 3954 2246 4179 1805 4179 
C 1043 4179 243 3390 243 1984 
C 243 253 966 -128 1478 -128 
C 2099 -128 2688 427 2688 1283 
C 2688 2081 2170 2662 1517 2662 
C 1126 2662 838 2407 678 1960 
L 678 2176 
z
M 1478 25 
C 691 25 691 1200 691 1436 
C 691 1896 909 2560 1504 2560 
C 1613 2560 1926 2560 2138 2120 
C 2253 1870 2253 1609 2253 1289 
C 2253 944 2253 690 2118 434 
C 1978 171 1773 25 1478 25 
z
" transform="scale(0.015625)"/>
       </defs>
       <use xlink:href="#CMR17-30" transform="scale(0.996264)"/>
       <use xlink:href="#CMMI12-3a" transform="translate(45.690477 0) scale(0.996264)"/>
       <use xlink:href="#CMR17-36" transform="translate(72.787654 0) scale(0.996264)"/>
      </g>
     </g>
    </g>
    <g id="xtick_5">
     <g id="line2d_5">
      <g>
       <use xlink:href="#m24324c08f9" x="814.313364" y="678.237256" style="fill: #262626; stroke: #262626; stroke-width: 0.8"/>
      </g>
     </g>
     <g id="text_5">
      <!-- $\mathdefault{0.8}$ -->
      <g style="fill: #262626" transform="translate(792.9873 710.143856) scale(0.36 -0.36)">
       <defs>
        <path id="CMR17-38" d="M 1741 2264 
C 2144 2467 2554 2773 2554 3263 
C 2554 3841 1990 4179 1472 4179 
C 890 4179 378 3759 378 3180 
C 378 3021 416 2747 666 2505 
C 730 2442 998 2251 1171 2130 
C 883 1983 211 1634 211 934 
C 211 279 838 -128 1459 -128 
C 2144 -128 2720 362 2720 1010 
C 2720 1590 2330 1857 2074 2029 
L 1741 2264 
z
M 902 2822 
C 851 2854 595 3051 595 3351 
C 595 3739 998 4032 1459 4032 
C 1965 4032 2336 3676 2336 3262 
C 2336 2669 1670 2331 1638 2331 
C 1632 2331 1626 2331 1574 2370 
L 902 2822 
z
M 2080 1519 
C 2176 1449 2483 1240 2483 851 
C 2483 381 2010 25 1472 25 
C 890 25 448 438 448 940 
C 448 1443 838 1862 1280 2060 
L 2080 1519 
z
" transform="scale(0.015625)"/>
       </defs>
       <use xlink:href="#CMR17-30" transform="scale(0.996264)"/>
       <use xlink:href="#CMMI12-3a" transform="translate(45.690477 0) scale(0.996264)"/>
       <use xlink:href="#CMR17-38" transform="translate(72.787654 0) scale(0.996264)"/>
      </g>
     </g>
    </g>
    <g id="xtick_6">
     <g id="line2d_6">
      <g>
       <use xlink:href="#m24324c08f9" x="995.758673" y="678.237256" style="fill: #262626; stroke: #262626; stroke-width: 0.8"/>
      </g>
     </g>
     <g id="text_6">
      <!-- $\mathdefault{1.0}$ -->
      <g style="fill: #262626" transform="translate(974.432609 710.143856) scale(0.36 -0.36)">
       <defs>
        <path id="CMR17-31" d="M 1702 4058 
C 1702 4192 1696 4192 1606 4192 
C 1357 3916 979 3827 621 3827 
C 602 3827 570 3827 563 3808 
C 557 3795 557 3782 557 3648 
C 755 3648 1088 3686 1344 3839 
L 1344 461 
C 1344 236 1331 160 781 160 
L 589 160 
L 589 0 
C 896 0 1216 0 1523 0 
C 1830 0 2150 0 2458 0 
L 2458 160 
L 2266 160 
C 1715 160 1702 230 1702 458 
L 1702 4058 
z
" transform="scale(0.015625)"/>
       </defs>
       <use xlink:href="#CMR17-31" transform="scale(0.996264)"/>
       <use xlink:href="#CMMI12-3a" transform="translate(45.690477 0) scale(0.996264)"/>
       <use xlink:href="#CMR17-30" transform="translate(72.787654 0) scale(0.996264)"/>
      </g>
     </g>
    </g>
   </g>
   <g id="matplotlib.axis_2">
    <g id="ytick_1">
     <g id="line2d_7">
      <defs>
       <path id="m26b37995cb" d="M 0 0 
L -3.5 0 
" style="stroke: #262626; stroke-width: 0.8"/>
      </defs>
      <g>
       <use xlink:href="#m26b37995cb" x="88.532127" y="678.237256" style="fill: #262626; stroke: #262626; stroke-width: 0.8"/>
      </g>
     </g>
     <g id="text_7">
      <!-- $\mathdefault{0.0}$ -->
      <g style="fill: #262626" transform="translate(38.88 690.690556) scale(0.36 -0.36)">
       <use xlink:href="#CMR17-30" transform="scale(0.996264)"/>
       <use xlink:href="#CMMI12-3a" transform="translate(45.690477 0) scale(0.996264)"/>
       <use xlink:href="#CMR17-30" transform="translate(72.787654 0) scale(0.996264)"/>
      </g>
     </g>
    </g>
    <g id="ytick_2">
     <g id="line2d_8">
      <g>
       <use xlink:href="#m26b37995cb" x="88.532127" y="678.220442" style="fill: #262626; stroke: #262626; stroke-width: 0.8"/>
      </g>
     </g>
     <g id="text_8">
      <!-- $\mathdefault{0.2}$ -->
      <g style="fill: #262626" transform="translate(38.88 690.673742) scale(0.36 -0.36)">
       <use xlink:href="#CMR17-30" transform="scale(0.996264)"/>
       <use xlink:href="#CMMI12-3a" transform="translate(45.690477 0) scale(0.996264)"/>
       <use xlink:href="#CMR17-32" transform="translate(72.787654 0) scale(0.996264)"/>
      </g>
     </g>
    </g>
    <g id="ytick_3">
     <g id="line2d_9">
      <g>
       <use xlink:href="#m26b37995cb" x="88.532127" y="678.203627" style="fill: #262626; stroke: #262626; stroke-width: 0.8"/>
      </g>
     </g>
     <g id="text_9">
      <!-- $\mathdefault{0.4}$ -->
      <g style="fill: #262626" transform="translate(38.88 690.656927) scale(0.36 -0.36)">
       <use xlink:href="#CMR17-30" transform="scale(0.996264)"/>
       <use xlink:href="#CMMI12-3a" transform="translate(45.690477 0) scale(0.996264)"/>
       <use xlink:href="#CMR17-34" transform="translate(72.787654 0) scale(0.996264)"/>
      </g>
     </g>
    </g>
    <g id="ytick_4">
     <g id="line2d_10">
      <g>
       <use xlink:href="#m26b37995cb" x="88.532127" y="678.186812" style="fill: #262626; stroke: #262626; stroke-width: 0.8"/>
      </g>
     </g>
     <g id="text_10">
      <!-- $\mathdefault{0.6}$ -->
      <g style="fill: #262626" transform="translate(38.88 690.640113) scale(0.36 -0.36)">
       <use xlink:href="#CMR17-30" transform="scale(0.996264)"/>
       <use xlink:href="#CMMI12-3a" transform="translate(45.690477 0) scale(0.996264)"/>
       <use xlink:href="#CMR17-36" transform="translate(72.787654 0) scale(0.996264)"/>
      </g>
     </g>
    </g>
    <g id="ytick_5">
     <g id="line2d_11">
      <g>
       <use xlink:href="#m26b37995cb" x="88.532127" y="678.169998" style="fill: #262626; stroke: #262626; stroke-width: 0.8"/>
      </g>
     </g>
     <g id="text_11">
      <!-- $\mathdefault{0.8}$ -->
      <g style="fill: #262626" transform="translate(38.88 690.623298) scale(0.36 -0.36)">
       <use xlink:href="#CMR17-30" transform="scale(0.996264)"/>
       <use xlink:href="#CMMI12-3a" transform="translate(45.690477 0) scale(0.996264)"/>
       <use xlink:href="#CMR17-38" transform="translate(72.787654 0) scale(0.996264)"/>
      </g>
     </g>
    </g>
    <g id="ytick_6">
     <g id="line2d_12">
      <g>
       <use xlink:href="#m26b37995cb" x="88.532127" y="678.153183" style="fill: #262626; stroke: #262626; stroke-width: 0.8"/>
      </g>
     </g>
     <g id="text_12">
      <!-- $\mathdefault{1.0}$ -->
      <g style="fill: #262626" transform="translate(38.88 690.606483) scale(0.36 -0.36)">
       <use xlink:href="#CMR17-31" transform="scale(0.996264)"/>
       <use xlink:href="#CMMI12-3a" transform="translate(45.690477 0) scale(0.996264)"/>
       <use xlink:href="#CMR17-30" transform="translate(72.787654 0) scale(0.996264)"/>
      </g>
     </g>
    </g>
    <g id="ytick_7">
     <g id="line2d_13">
      <g>
       <use xlink:href="#m26b37995cb" x="88.532127" y="678.136369" style="fill: #262626; stroke: #262626; stroke-width: 0.8"/>
      </g>
     </g>
     <g id="text_13">
      <!-- $\mathdefault{1.2}$ -->
      <g style="fill: #262626" transform="translate(38.88 690.589669) scale(0.36 -0.36)">
       <use xlink:href="#CMR17-31" transform="scale(0.996264)"/>
       <use xlink:href="#CMMI12-3a" transform="translate(45.690477 0) scale(0.996264)"/>
       <use xlink:href="#CMR17-32" transform="translate(72.787654 0) scale(0.996264)"/>
      </g>
     </g>
    </g>
   </g>
   <g id="line2d_14">
    <path d="M 88.532127 678.237256 
L 995.758673 678.237256 
L 995.758673 678.237256 
" clip-path="url(#p9a5424fd0d)" style="fill: none; stroke: #1f77b4; stroke-width: 5; stroke-linecap: round"/>
   </g>
   <g id="line2d_15">
    <path d="M 88.532127 668.475572 
L 136.917543 669.713162 
L 191.351136 670.887191 
L 251.832905 671.974886 
L 324.411029 673.043095 
L 403.03733 673.973792 
L 493.759984 674.824363 
L 602.62717 675.608832 
L 729.638886 676.28737 
L 880.84331 676.86221 
L 995.758673 677.179327 
L 995.758673 677.179327 
" clip-path="url(#p9a5424fd0d)" style="fill: none; stroke: #ff7f0e; stroke-width: 5; stroke-linecap: round"/>
   </g>
   <g id="line2d_16">
    <path d="M 88.532127 655.252515 
L 112.724835 657.190897 
L 136.917543 658.909104 
L 167.158428 660.797873 
L 197.399313 662.44649 
L 233.688375 664.163818 
L 269.977436 665.646544 
L 312.314675 667.134373 
L 354.651914 668.408911 
L 403.03733 669.653189 
L 457.470922 670.833839 
L 517.952692 671.927924 
L 590.530816 673.002663 
L 669.157116 673.93928 
L 759.879771 674.795486 
L 868.746956 675.585397 
L 995.758673 676.268903 
L 995.758673 676.268903 
" clip-path="url(#p9a5424fd0d)" style="fill: none; stroke: #2ca02c; stroke-width: 5; stroke-linecap: round"/>
   </g>
   <g id="line2d_17">
    <path d="M 88.532127 636.969027 
L 100.628481 639.310363 
L 112.724835 641.452407 
L 124.821189 643.419075 
L 142.96572 646.083665 
L 161.110251 648.454571 
L 179.254782 650.576436 
L 197.399313 652.485254 
L 215.543844 654.210374 
L 239.736552 656.265997 
L 263.929259 658.084037 
L 288.121967 659.70135 
L 318.362852 661.485277 
L 348.603737 663.047462 
L 384.892799 664.679658 
L 421.181861 666.092827 
L 463.519099 667.514469 
L 511.904515 668.895308 
L 566.338108 670.199126 
L 626.819878 671.401806 
L 693.349824 672.489493 
L 765.927948 673.456462 
L 850.602425 674.360954 
L 947.373257 675.170522 
L 995.758673 675.504683 
L 995.758673 675.504683 
" clip-path="url(#p9a5424fd0d)" style="fill: none; stroke: #d62728; stroke-width: 5; stroke-linecap: round"/>
   </g>
   <g id="line2d_18">
    <path d="M 88.532127 611.122364 
L 94.580304 613.721433 
L 100.628481 616.155636 
L 106.676658 618.440314 
L 112.724835 620.588879 
L 124.821189 624.523569 
L 136.917543 628.039183 
L 149.013897 631.198893 
L 161.110251 634.053614 
L 173.206605 636.644901 
L 185.302959 639.007018 
L 197.399313 641.168489 
L 209.495667 643.153255 
L 227.640198 645.8426 
L 245.784728 648.235587 
L 263.929259 650.377113 
L 282.07379 652.303436 
L 300.218321 654.044153 
L 324.411029 656.117978 
L 348.603737 657.951695 
L 372.796445 659.58255 
L 403.03733 661.380926 
L 433.278215 662.955284 
L 469.567276 664.599686 
L 505.856338 666.022966 
L 548.193577 667.454339 
L 596.578993 668.84419 
L 651.012585 670.156115 
L 711.494355 671.365932 
L 778.024302 672.459796 
L 850.602425 673.432047 
L 935.276903 674.341314 
L 995.758673 674.873994 
L 995.758673 674.873994 
" clip-path="url(#p9a5424fd0d)" style="fill: none; stroke: #9467bd; stroke-width: 5; stroke-linecap: round"/>
   </g>
   <g id="line2d_19">
    <path d="M 88.532127 573.738618 
L 94.580304 579.222482 
L 100.628481 584.214567 
L 106.676658 588.779149 
L 112.724835 592.969486 
L 118.773012 596.830163 
L 124.821189 600.398899 
L 130.869366 603.707757 
L 136.917543 606.784178 
L 142.96572 609.651861 
L 149.013897 612.331321 
L 155.062074 614.840437 
L 161.110251 617.194881 
L 167.158428 619.408438 
L 173.206605 621.493276 
L 185.302959 625.318842 
L 197.399313 628.744709 
L 209.495667 631.829564 
L 221.592021 634.621119 
L 233.688375 637.158516 
L 245.784728 639.474229 
L 257.881082 641.595404 
L 269.977436 643.544924 
L 288.121967 646.189065 
L 306.266498 648.544199 
L 324.411029 650.653657 
L 342.55556 652.552551 
L 360.700091 654.269598 
L 384.892799 656.316573 
L 409.085507 658.127739 
L 433.278215 659.739462 
L 463.519099 661.517729 
L 493.759984 663.075332 
L 530.049046 664.70307 
L 566.338108 666.112622 
L 608.675347 667.530836 
L 657.060762 668.908537 
L 711.494355 670.209572 
L 771.976125 671.409847 
L 838.506072 672.495512 
L 911.084195 673.460823 
L 995.758673 674.363904 
L 995.758673 674.363904 
" clip-path="url(#p9a5424fd0d)" style="fill: none; stroke: #8c564b; stroke-width: 5; stroke-linecap: round"/>
   </g>
   <g id="line2d_20">
    <path d="M 88.532127 518.380008 
L 94.580304 529.925831 
L 100.628481 540.01547 
L 106.676658 548.911911 
L 112.724835 556.817703 
L 118.773012 563.891372 
L 124.821189 570.259043 
L 130.869366 576.022186 
L 136.917543 581.263467 
L 142.96572 586.051039 
L 149.013897 590.441504 
L 155.062074 594.482334 
L 161.110251 598.213678 
L 167.158428 601.669697 
L 173.206605 604.87966 
L 179.254782 607.868812 
L 185.302959 610.659037 
L 191.351136 613.269384 
L 197.399313 615.716573 
L 203.44749 618.015249 
L 209.495667 620.178378 
L 221.592021 624.142736 
L 233.688375 627.687337 
L 245.784728 630.87448 
L 257.881082 633.754692 
L 269.977436 636.369393 
L 282.07379 638.752873 
L 294.170144 640.933761 
L 306.266498 642.936148 
L 324.411029 645.648848 
L 342.55556 648.061993 
L 360.700091 650.220948 
L 378.844622 652.16239 
L 396.989153 653.916264 
L 421.181861 656.005094 
L 445.374568 657.851439 
L 469.567276 659.493007 
L 499.808161 661.302603 
L 530.049046 662.886273 
L 566.338108 664.539893 
L 602.62717 665.970735 
L 644.964408 667.409331 
L 693.349824 668.805841 
L 747.783417 670.123744 
L 808.265187 671.338824 
L 874.795133 672.437257 
L 947.373257 673.413431 
L 995.758673 673.960986 
L 995.758673 673.960986 
" clip-path="url(#p9a5424fd0d)" style="fill: none; stroke: #e377c2; stroke-width: 5; stroke-linecap: round"/>
   </g>
   <g id="line2d_21">
    <path d="M 88.532127 437.314835 
L 94.580304 460.051302 
L 100.628481 479.46716 
L 106.676658 496.186083 
L 112.724835 510.558032 
L 118.773012 523.014877 
L 124.821189 533.875422 
L 130.869366 543.425013 
L 136.917543 551.888531 
L 142.96572 559.441977 
L 149.013897 566.224935 
L 155.062074 572.349677 
L 161.110251 577.907588 
L 167.158428 582.973759 
L 173.206605 587.610524 
L 179.254782 591.870073 
L 185.302959 595.796433 
L 191.351136 599.426989 
L 197.399313 602.793768 
L 203.44749 605.924251 
L 209.495667 608.842255 
L 215.543844 611.56851 
L 221.592021 614.121118 
L 227.640198 616.515937 
L 233.688375 618.766991 
L 239.736552 620.886665 
L 251.832905 624.774685 
L 263.929259 628.254613 
L 276.025613 631.386443 
L 288.121967 634.21894 
L 300.218321 636.792167 
L 312.314675 639.139368 
L 324.411029 641.288323 
L 336.507383 643.262452 
L 354.651914 645.938499 
L 372.796445 648.320602 
L 390.940976 650.453047 
L 409.085507 652.371659 
L 427.230038 654.105742 
L 451.422745 656.172046 
L 475.615453 657.99942 
L 499.808161 659.624872 
L 530.049046 661.417529 
L 560.289931 662.987093 
L 596.578993 664.626699 
L 632.868055 666.046014 
L 675.205293 667.473581 
L 723.590709 668.859928 
L 778.024302 670.168738 
L 838.506072 671.375862 
L 905.036018 672.467459 
L 977.614142 673.437845 
L 995.758673 673.650653 
L 995.758673 673.650653 
" clip-path="url(#p9a5424fd0d)" style="fill: none; stroke: #7f7f7f; stroke-width: 5; stroke-linecap: round"/>
   </g>
   <g id="line2d_22">
    <path d="M 88.532127 331.504423 
L 94.580304 369.646644 
L 100.628481 402.035267 
L 106.676658 429.753824 
L 112.724835 453.406679 
L 118.773012 473.730151 
L 124.821189 491.191993 
L 130.869366 506.226589 
L 136.917543 519.221251 
L 142.96572 530.529122 
L 149.013897 540.454003 
L 155.062074 549.235124 
L 161.110251 557.059414 
L 167.158428 564.075007 
L 173.206605 570.400881 
L 179.254782 576.133719 
L 185.302959 581.3529 
L 191.351136 586.124177 
L 197.399313 590.502583 
L 203.44749 594.534391 
L 209.495667 598.25891 
L 215.543844 601.709732 
L 221.592021 604.915709 
L 227.640198 607.901732 
L 233.688375 610.689477 
L 239.736552 613.297831 
L 245.784728 615.743354 
L 251.832905 618.040646 
L 257.881082 620.202597 
L 269.977436 624.164978 
L 282.07379 627.707959 
L 294.170144 630.893692 
L 306.266498 633.772635 
L 318.362852 636.386143 
L 330.459206 638.768524 
L 342.55556 640.948366 
L 354.651914 642.949765 
L 372.796445 645.661099 
L 390.940976 648.072995 
L 409.085507 650.230814 
L 427.230038 652.171219 
L 445.374568 653.924166 
L 469.567276 656.011906 
L 493.759984 657.857301 
L 517.952692 659.498047 
L 548.193577 661.306775 
L 578.434462 662.889723 
L 614.723524 664.542631 
L 651.012585 665.972902 
L 693.349824 667.410967 
L 741.73524 668.80701 
L 796.168833 670.124522 
L 856.650602 671.339285 
L 923.180549 672.437473 
L 995.758673 673.413467 
L 995.758673 673.413467 
" clip-path="url(#p9a5424fd0d)" style="fill: none; stroke: #bcbd22; stroke-width: 5; stroke-linecap: round"/>
   </g>
   <g id="line2d_23">
    <path d="M 88.532127 207.267146 
L 94.580304 264.043514 
L 100.628481 312.036946 
L 106.676658 352.91991 
L 112.724835 387.655837 
L 118.773012 417.369761 
L 124.821189 442.785537 
L 130.869366 464.557702 
L 136.917543 483.263445 
L 142.96572 499.370031 
L 149.013897 513.274997 
L 155.062074 525.332156 
L 161.110251 535.874337 
L 167.158428 545.169916 
L 173.206605 553.427368 
L 179.254782 560.811064 
L 185.302959 567.452362 
L 191.351136 573.457464 
L 197.399313 578.913289 
L 203.44749 583.89149 
L 209.495667 588.451812 
L 215.543844 592.644449 
L 221.592021 596.511843 
L 227.640198 600.0901 
L 233.688375 603.410222 
L 239.736552 606.498902 
L 245.784728 609.379272 
L 251.832905 612.071496 
L 257.881082 614.593206 
L 263.929259 616.959887 
L 269.977436 619.185236 
L 276.025613 621.281349 
L 288.121967 625.127781 
L 300.218321 628.572241 
L 312.314675 631.673563 
L 324.411029 634.479621 
L 336.507383 637.029795 
L 348.603737 639.356751 
L 360.700091 641.487836 
L 372.796445 643.44612 
L 390.940976 646.101571 
L 409.085507 648.466193 
L 427.230038 650.583677 
L 445.374568 652.489402 
L 463.519099 654.212307 
L 487.711807 656.265871 
L 511.904515 658.082523 
L 536.097223 659.698861 
L 566.338108 661.481945 
L 596.578993 663.043538 
L 632.868055 664.675232 
L 669.157116 666.088044 
L 711.494355 667.509398 
L 759.879771 668.890025 
L 814.313364 670.193722 
L 874.795133 671.396379 
L 941.32508 672.484146 
L 995.758673 673.228046 
L 995.758673 673.228046 
" clip-path="url(#p9a5424fd0d)" style="fill: none; stroke: #17becf; stroke-width: 5; stroke-linecap: round"/>
   </g>
   <g id="line2d_24">
    <path d="M 88.532127 69.325584 
L 94.580304 147.292584 
L 100.628481 212.952451 
L 106.676658 268.671419 
L 112.724835 315.842102 
L 118.773012 356.047099 
L 124.821189 390.317606 
L 130.869366 419.57462 
L 136.917543 444.613501 
L 142.96572 466.107851 
L 149.013897 484.58296 
L 155.062074 500.514111 
L 161.110251 514.261898 
L 167.158428 526.187101 
L 173.206605 536.62264 
L 179.254782 545.830812 
L 185.302959 554.015679 
L 191.351136 561.338348 
L 197.399313 567.927851 
L 203.44749 573.888554 
L 209.495667 579.305952 
L 215.543844 584.250731 
L 221.592021 588.781798 
L 227.640198 592.948608 
L 233.688375 596.793095 
L 239.736552 600.350957 
L 245.784728 603.652805 
L 251.832905 606.725061 
L 257.881082 609.590617 
L 263.929259 612.269409 
L 269.977436 614.778923 
L 276.025613 617.134494 
L 282.07379 619.34967 
L 288.121967 621.436468 
L 300.218321 625.266435 
L 312.314675 628.696876 
L 324.411029 631.786145 
L 336.507383 634.581774 
L 348.603737 637.12285 
L 360.700091 639.441831 
L 372.796445 641.565897 
L 384.892799 643.517956 
L 403.03733 646.165322 
L 421.181861 648.523094 
L 439.326392 650.634729 
L 457.470922 652.535416 
L 475.615453 654.253949 
L 499.808161 656.302544 
L 524.000869 658.115011 
L 548.193577 659.727795 
L 578.434462 661.507145 
L 608.675347 663.065631 
L 644.964408 664.694239 
L 681.25347 666.104514 
L 723.590709 667.523443 
L 771.976125 668.901838 
L 826.409718 670.203538 
L 886.891487 671.40445 
L 953.421434 672.490718 
L 995.758673 673.078476 
L 995.758673 673.078476 
" clip-path="url(#p9a5424fd0d)" style="fill: none; stroke: #17becf; stroke-width: 5; stroke-linecap: round"/>
   </g>
   <g id="patch_3">
    <path d="M 88.532127 678.237256 
L 88.532127 38.88 
" style="fill: none; stroke: #262626; stroke-width: 0.8; stroke-linejoin: miter; stroke-linecap: square"/>
   </g>
   <g id="patch_4">
    <path d="M 88.532127 678.237256 
L 1041.12 678.237256 
" style="fill: none; stroke: #262626; stroke-width: 0.8; stroke-linejoin: miter; stroke-linecap: square"/>
   </g>
  </g>
 </g>
 <defs>
  <clipPath id="p9a5424fd0d">
   <rect x="88.532127" y="38.88" width="952.587873" height="639.357256"/>
  </clipPath>
 </defs>
</svg>
