<?xml version="1.0" encoding="utf-8" standalone="no"?>
<!DOCTYPE svg PUBLIC "-//W3C//DTD SVG 1.1//EN"
  "http://www.w3.org/Graphics/SVG/1.1/DTD/svg11.dtd">
<svg xmlns:xlink="http://www.w3.org/1999/xlink" width="1080pt" height="576pt" viewBox="0 0 1080 576" xmlns="http://www.w3.org/2000/svg" version="1.1">
 <metadata>
  <rdf:RDF xmlns:dc="http://purl.org/dc/elements/1.1/" xmlns:cc="http://creativecommons.org/ns#" xmlns:rdf="http://www.w3.org/1999/02/22-rdf-syntax-ns#">
   <cc:Work>
    <dc:type rdf:resource="http://purl.org/dc/dcmitype/StillImage"/>
    <dc:date>2024-07-04T17:25:08.674883</dc:date>
    <dc:format>image/svg+xml</dc:format>
    <dc:creator>
     <cc:Agent>
      <dc:title>Matplotlib v3.9.0, https://matplotlib.org/</dc:title>
     </cc:Agent>
    </dc:creator>
   </cc:Work>
  </rdf:RDF>
 </metadata>
 <defs>
  <style type="text/css">*{stroke-linejoin: round; stroke-linecap: butt}</style>
 </defs>
 <g id="figure_1">
  <g id="patch_1">
   <path d="M 0 576 
L 1080 576 
L 1080 0 
L 0 0 
z
" style="fill: #ffffff"/>
  </g>
  <g id="axes_1">
   <g id="patch_2">
    <path d="M 135 512.64 
L 515.454545 512.64 
L 515.454545 69.12 
L 135 69.12 
z
" style="fill: #eaeaf2"/>
   </g>
   <g id="matplotlib.axis_1">
    <g id="xtick_1">
     <g id="line2d_1">
      <path d="M 209.938017 512.64 
L 209.938017 69.12 
" clip-path="url(#p5a3142e759)" style="fill: none; stroke: #ffffff; stroke-width: 0.8; stroke-linecap: round"/>
     </g>
     <g id="text_1">
      <!-- $\mathdefault{0.4}$ -->
      <g style="fill: #262626" transform="translate(198.090203 533.476997) scale(0.2 -0.2)">
       <defs>
        <path id="CMR17-30" d="M 2688 2025 
C 2688 2416 2682 3080 2413 3591 
C 2176 4039 1798 4198 1466 4198 
C 1158 4198 768 4058 525 3597 
C 269 3118 243 2524 243 2025 
C 243 1661 250 1106 448 619 
C 723 -39 1216 -128 1466 -128 
C 1760 -128 2208 -7 2470 600 
C 2662 1042 2688 1559 2688 2025 
z
M 1466 -26 
C 1056 -26 813 325 723 812 
C 653 1188 653 1738 653 2096 
C 653 2588 653 2997 736 3387 
C 858 3929 1216 4096 1466 4096 
C 1728 4096 2067 3923 2189 3400 
C 2272 3036 2278 2607 2278 2096 
C 2278 1680 2278 1169 2202 792 
C 2067 95 1690 -26 1466 -26 
z
" transform="scale(0.015625)"/>
        <path id="CMMI12-3a" d="M 1178 307 
C 1178 492 1024 619 870 619 
C 685 619 557 466 557 313 
C 557 128 710 0 864 0 
C 1050 0 1178 153 1178 307 
z
" transform="scale(0.015625)"/>
        <path id="CMR17-34" d="M 2150 4122 
C 2150 4256 2144 4256 2029 4256 
L 128 1254 
L 128 1088 
L 1779 1088 
L 1779 457 
C 1779 224 1766 160 1318 160 
L 1197 160 
L 1197 0 
C 1402 0 1747 0 1965 0 
C 2182 0 2528 0 2733 0 
L 2733 160 
L 2611 160 
C 2163 160 2150 224 2150 457 
L 2150 1088 
L 2803 1088 
L 2803 1254 
L 2150 1254 
L 2150 4122 
z
M 1798 3703 
L 1798 1254 
L 256 1254 
L 1798 3703 
z
" transform="scale(0.015625)"/>
       </defs>
       <use xlink:href="#CMR17-30" transform="scale(0.996264)"/>
       <use xlink:href="#CMMI12-3a" transform="translate(45.690477 0) scale(0.996264)"/>
       <use xlink:href="#CMR17-34" transform="translate(72.787654 0) scale(0.996264)"/>
      </g>
     </g>
    </g>
    <g id="xtick_2">
     <g id="line2d_2">
      <path d="M 325.227273 512.64 
L 325.227273 69.12 
" clip-path="url(#p5a3142e759)" style="fill: none; stroke: #ffffff; stroke-width: 0.8; stroke-linecap: round"/>
     </g>
     <g id="text_2">
      <!-- $\mathdefault{0.6}$ -->
      <g style="fill: #262626" transform="translate(313.37946 533.476997) scale(0.2 -0.2)">
       <defs>
        <path id="CMR17-36" d="M 678 2176 
C 678 3690 1395 4032 1811 4032 
C 1946 4032 2272 4009 2400 3776 
C 2298 3776 2106 3776 2106 3553 
C 2106 3381 2246 3323 2336 3323 
C 2394 3323 2566 3348 2566 3560 
C 2566 3954 2246 4179 1805 4179 
C 1043 4179 243 3390 243 1984 
C 243 253 966 -128 1478 -128 
C 2099 -128 2688 427 2688 1283 
C 2688 2081 2170 2662 1517 2662 
C 1126 2662 838 2407 678 1960 
L 678 2176 
z
M 1478 25 
C 691 25 691 1200 691 1436 
C 691 1896 909 2560 1504 2560 
C 1613 2560 1926 2560 2138 2120 
C 2253 1870 2253 1609 2253 1289 
C 2253 944 2253 690 2118 434 
C 1978 171 1773 25 1478 25 
z
" transform="scale(0.015625)"/>
       </defs>
       <use xlink:href="#CMR17-30" transform="scale(0.996264)"/>
       <use xlink:href="#CMMI12-3a" transform="translate(45.690477 0) scale(0.996264)"/>
       <use xlink:href="#CMR17-36" transform="translate(72.787654 0) scale(0.996264)"/>
      </g>
     </g>
    </g>
    <g id="xtick_3">
     <g id="line2d_3">
      <path d="M 440.516529 512.64 
L 440.516529 69.12 
" clip-path="url(#p5a3142e759)" style="fill: none; stroke: #ffffff; stroke-width: 0.8; stroke-linecap: round"/>
     </g>
     <g id="text_3">
      <!-- $\mathdefault{0.8}$ -->
      <g style="fill: #262626" transform="translate(428.668716 533.476997) scale(0.2 -0.2)">
       <defs>
        <path id="CMR17-38" d="M 1741 2264 
C 2144 2467 2554 2773 2554 3263 
C 2554 3841 1990 4179 1472 4179 
C 890 4179 378 3759 378 3180 
C 378 3021 416 2747 666 2505 
C 730 2442 998 2251 1171 2130 
C 883 1983 211 1634 211 934 
C 211 279 838 -128 1459 -128 
C 2144 -128 2720 362 2720 1010 
C 2720 1590 2330 1857 2074 2029 
L 1741 2264 
z
M 902 2822 
C 851 2854 595 3051 595 3351 
C 595 3739 998 4032 1459 4032 
C 1965 4032 2336 3676 2336 3262 
C 2336 2669 1670 2331 1638 2331 
C 1632 2331 1626 2331 1574 2370 
L 902 2822 
z
M 2080 1519 
C 2176 1449 2483 1240 2483 851 
C 2483 381 2010 25 1472 25 
C 890 25 448 438 448 940 
C 448 1443 838 1862 1280 2060 
L 2080 1519 
z
" transform="scale(0.015625)"/>
       </defs>
       <use xlink:href="#CMR17-30" transform="scale(0.996264)"/>
       <use xlink:href="#CMMI12-3a" transform="translate(45.690477 0) scale(0.996264)"/>
       <use xlink:href="#CMR17-38" transform="translate(72.787654 0) scale(0.996264)"/>
      </g>
     </g>
    </g>
    <g id="text_4">
     <!-- Alpha -->
     <g style="fill: #262626" transform="translate(302.654245 555.189627) scale(0.2 -0.2)">
      <defs>
       <path id="CMSS17-41" d="M 2272 4416 
L 1722 4416 
L 166 0 
L 653 0 
L 1101 1280 
L 2816 1280 
L 3270 0 
L 3827 0 
L 2272 4416 
z
M 2694 1637 
L 1222 1637 
C 1530 2528 1914 3638 1958 3925 
L 1965 3925 
C 2010 3663 2138 3281 2246 2956 
L 2694 1637 
z
" transform="scale(0.015625)"/>
       <path id="CMSS17-6c" d="M 947 4416 
L 474 4416 
L 474 0 
L 947 0 
L 947 4416 
z
" transform="scale(0.015625)"/>
       <path id="CMSS17-70" d="M 966 333 
C 1178 129 1466 -5 1773 -5 
C 2368 -5 2880 603 2880 1412 
C 2880 2159 2496 2816 1946 2816 
C 1626 2816 1242 2702 954 2472 
L 954 2765 
L 480 2765 
L 480 -1216 
L 966 -1216 
L 966 333 
z
M 966 2100 
C 1018 2176 1235 2415 1587 2415 
C 2035 2415 2394 1960 2394 1412 
C 2394 787 1958 384 1530 384 
C 1402 384 1267 415 1139 523 
C 966 674 966 768 966 857 
L 966 2100 
z
" transform="scale(0.015625)"/>
       <path id="CMSS17-68" d="M 2618 1891 
C 2618 2292 2522 2820 1798 2820 
C 1395 2820 1133 2623 947 2407 
L 947 4448 
L 474 4448 
L 474 32 
L 960 32 
L 960 1573 
C 960 1973 1114 2432 1549 2432 
C 2112 2432 2131 2056 2131 1839 
L 2131 32 
L 2618 32 
L 2618 1891 
z
" transform="scale(0.015625)"/>
       <path id="CMSS17-61" d="M 2406 1791 
C 2406 2392 1978 2808 1402 2808 
C 1120 2808 813 2757 461 2553 
L 499 2135 
C 659 2248 934 2432 1395 2432 
C 1722 2432 1920 2180 1920 1782 
L 1920 1536 
C 896 1536 256 1238 256 726 
C 256 461 416 -64 947 -64 
C 1043 -64 1562 -64 1933 217 
L 1933 -19 
L 2406 -19 
L 2406 1791 
z
M 1920 816 
C 1920 701 1920 548 1728 434 
C 1562 325 1350 325 1261 325 
C 941 325 723 511 723 744 
C 723 1211 1722 1211 1920 1211 
L 1920 816 
z
" transform="scale(0.015625)"/>
      </defs>
      <use xlink:href="#CMSS17-41" transform="scale(0.996264)"/>
      <use xlink:href="#CMSS17-6c" transform="translate(62.217855 0) scale(0.996264)"/>
      <use xlink:href="#CMSS17-70" transform="translate(84.398578 0) scale(0.996264)"/>
      <use xlink:href="#CMSS17-68" transform="translate(132.603521 0) scale(0.996264)"/>
      <use xlink:href="#CMSS17-61" transform="translate(180.808464 0) scale(0.996264)"/>
     </g>
    </g>
   </g>
   <g id="matplotlib.axis_2">
    <g id="ytick_1">
     <g id="line2d_4">
      <path d="M 135 458.309926 
L 515.454545 458.309926 
" clip-path="url(#p5a3142e759)" style="fill: none; stroke: #ffffff; stroke-width: 0.8; stroke-linecap: round"/>
     </g>
     <g id="text_5">
      <!-- $\mathdefault{200}$ -->
      <g style="fill: #262626" transform="translate(100.585714 465.228425) scale(0.2 -0.2)">
       <defs>
        <path id="CMR17-32" d="M 2669 989 
L 2554 989 
C 2490 536 2438 459 2413 420 
C 2381 369 1920 369 1830 369 
L 602 369 
C 832 619 1280 1072 1824 1597 
C 2214 1967 2669 2402 2669 3035 
C 2669 3790 2067 4224 1395 4224 
C 691 4224 262 3604 262 3030 
C 262 2780 448 2748 525 2748 
C 589 2748 781 2787 781 3010 
C 781 3207 614 3264 525 3264 
C 486 3264 448 3258 422 3245 
C 544 3790 915 4058 1306 4058 
C 1862 4058 2227 3617 2227 3035 
C 2227 2479 1901 2000 1536 1584 
L 262 146 
L 262 0 
L 2515 0 
L 2669 989 
z
" transform="scale(0.015625)"/>
       </defs>
       <use xlink:href="#CMR17-32" transform="scale(0.996264)"/>
       <use xlink:href="#CMR17-30" transform="translate(45.690477 0) scale(0.996264)"/>
       <use xlink:href="#CMR17-30" transform="translate(91.380954 0) scale(0.996264)"/>
      </g>
     </g>
    </g>
    <g id="ytick_2">
     <g id="line2d_5">
      <path d="M 135 373.150133 
L 515.454545 373.150133 
" clip-path="url(#p5a3142e759)" style="fill: none; stroke: #ffffff; stroke-width: 0.8; stroke-linecap: round"/>
     </g>
     <g id="text_6">
      <!-- $\mathdefault{400}$ -->
      <g style="fill: #262626" transform="translate(100.585714 380.068631) scale(0.2 -0.2)">
       <use xlink:href="#CMR17-34" transform="scale(0.996264)"/>
       <use xlink:href="#CMR17-30" transform="translate(45.690477 0) scale(0.996264)"/>
       <use xlink:href="#CMR17-30" transform="translate(91.380954 0) scale(0.996264)"/>
      </g>
     </g>
    </g>
    <g id="ytick_3">
     <g id="line2d_6">
      <path d="M 135 287.99034 
L 515.454545 287.99034 
" clip-path="url(#p5a3142e759)" style="fill: none; stroke: #ffffff; stroke-width: 0.8; stroke-linecap: round"/>
     </g>
     <g id="text_7">
      <!-- $\mathdefault{600}$ -->
      <g style="fill: #262626" transform="translate(100.585714 294.908838) scale(0.2 -0.2)">
       <use xlink:href="#CMR17-36" transform="scale(0.996264)"/>
       <use xlink:href="#CMR17-30" transform="translate(45.690477 0) scale(0.996264)"/>
       <use xlink:href="#CMR17-30" transform="translate(91.380954 0) scale(0.996264)"/>
      </g>
     </g>
    </g>
    <g id="ytick_4">
     <g id="line2d_7">
      <path d="M 135 202.830547 
L 515.454545 202.830547 
" clip-path="url(#p5a3142e759)" style="fill: none; stroke: #ffffff; stroke-width: 0.8; stroke-linecap: round"/>
     </g>
     <g id="text_8">
      <!-- $\mathdefault{800}$ -->
      <g style="fill: #262626" transform="translate(100.585714 209.749045) scale(0.2 -0.2)">
       <use xlink:href="#CMR17-38" transform="scale(0.996264)"/>
       <use xlink:href="#CMR17-30" transform="translate(45.690477 0) scale(0.996264)"/>
       <use xlink:href="#CMR17-30" transform="translate(91.380954 0) scale(0.996264)"/>
      </g>
     </g>
    </g>
    <g id="ytick_5">
     <g id="line2d_8">
      <path d="M 135 117.670753 
L 515.454545 117.670753 
" clip-path="url(#p5a3142e759)" style="fill: none; stroke: #ffffff; stroke-width: 0.8; stroke-linecap: round"/>
     </g>
     <g id="text_9">
      <!-- $\mathdefault{1000}$ -->
      <g style="fill: #262626" transform="translate(91.447618 124.589252) scale(0.2 -0.2)">
       <defs>
        <path id="CMR17-31" d="M 1702 4058 
C 1702 4192 1696 4192 1606 4192 
C 1357 3916 979 3827 621 3827 
C 602 3827 570 3827 563 3808 
C 557 3795 557 3782 557 3648 
C 755 3648 1088 3686 1344 3839 
L 1344 461 
C 1344 236 1331 160 781 160 
L 589 160 
L 589 0 
C 896 0 1216 0 1523 0 
C 1830 0 2150 0 2458 0 
L 2458 160 
L 2266 160 
C 1715 160 1702 230 1702 458 
L 1702 4058 
z
" transform="scale(0.015625)"/>
       </defs>
       <use xlink:href="#CMR17-31" transform="scale(0.996264)"/>
       <use xlink:href="#CMR17-30" transform="translate(45.690477 0) scale(0.996264)"/>
       <use xlink:href="#CMR17-30" transform="translate(91.380954 0) scale(0.996264)"/>
       <use xlink:href="#CMR17-30" transform="translate(137.071431 0) scale(0.996264)"/>
      </g>
     </g>
    </g>
    <g id="text_10">
     <!-- Termination Time -->
     <g style="fill: #262626" transform="translate(83.571985 361.205558) rotate(-90) scale(0.2 -0.2)">
      <defs>
       <path id="CMSS17-54" d="M 2317 3968 
L 2848 3968 
C 2925 3968 3002 3968 3078 3968 
L 3878 3968 
L 3878 4376 
L 218 4376 
L 218 3968 
L 1018 3968 
C 1094 3968 1171 3968 1248 3968 
L 1779 3968 
L 1779 -32 
L 2317 -32 
L 2317 3968 
z
" transform="scale(0.015625)"/>
       <path id="CMSS17-65" d="M 2502 1377 
C 2502 1590 2490 2003 2285 2345 
C 2061 2713 1696 2816 1421 2816 
C 755 2816 192 2188 192 1375 
C 192 582 774 -64 1510 -64 
C 1798 -64 2150 19 2470 248 
C 2470 274 2458 414 2451 420 
C 2451 433 2432 630 2432 656 
C 2125 407 1773 325 1517 325 
C 1107 325 666 667 646 1377 
L 2502 1377 
z
M 698 1728 
C 781 2084 1062 2421 1421 2421 
C 1517 2421 1965 2421 2080 1728 
L 698 1728 
z
" transform="scale(0.015625)"/>
       <path id="CMSS17-72" d="M 954 1363 
C 954 1965 1395 2368 1958 2368 
L 1958 2789 
C 1549 2789 1165 2585 934 2253 
L 934 2758 
L 480 2758 
L 480 0 
L 954 0 
L 954 1363 
z
" transform="scale(0.015625)"/>
       <path id="CMSS17-6d" d="M 4288 1877 
C 4288 2308 4179 2816 3462 2816 
C 2982 2816 2694 2516 2566 2331 
C 2451 2670 2182 2816 1798 2816 
C 1363 2816 1088 2568 941 2389 
L 941 2758 
L 474 2758 
L 474 0 
L 960 0 
L 960 1559 
C 960 1939 1101 2428 1555 2428 
C 2138 2428 2138 2016 2138 1829 
L 2138 0 
L 2624 0 
L 2624 1559 
C 2624 1939 2765 2428 3219 2428 
C 3802 2428 3802 2016 3802 1829 
L 3802 0 
L 4288 0 
L 4288 1877 
z
" transform="scale(0.015625)"/>
       <path id="CMSS17-69" d="M 979 4183 
L 442 4183 
L 442 3648 
L 979 3648 
L 979 4183 
z
M 947 2739 
L 474 2739 
L 474 0 
L 947 0 
L 947 2739 
z
" transform="scale(0.015625)"/>
       <path id="CMSS17-6e" d="M 2618 1877 
C 2618 2283 2522 2816 1798 2816 
C 1389 2816 1120 2606 941 2389 
L 941 2758 
L 474 2758 
L 474 0 
L 960 0 
L 960 1559 
C 960 1964 1114 2428 1549 2428 
C 2112 2428 2131 2048 2131 1829 
L 2131 0 
L 2618 0 
L 2618 1877 
z
" transform="scale(0.015625)"/>
       <path id="CMSS17-74" d="M 1069 2368 
L 1901 2368 
L 1901 2737 
L 1069 2737 
L 1069 3520 
L 614 3520 
L 614 2737 
L 109 2737 
L 109 2368 
L 602 2368 
L 602 749 
C 602 384 685 -64 1107 -64 
C 1427 -64 1722 25 2003 172 
L 1901 548 
C 1747 414 1562 337 1363 337 
C 1082 337 1069 696 1069 856 
L 1069 2368 
z
" transform="scale(0.015625)"/>
       <path id="CMSS17-6f" d="M 2829 1356 
C 2829 2176 2221 2816 1504 2816 
C 768 2816 173 2157 173 1356 
C 173 544 787 -64 1498 -64 
C 2227 -64 2829 563 2829 1356 
z
M 1504 337 
C 1050 337 659 709 659 1408 
C 659 2151 1114 2427 1498 2427 
C 1914 2427 2342 2126 2342 1408 
C 2342 683 1926 337 1504 337 
z
" transform="scale(0.015625)"/>
      </defs>
      <use xlink:href="#CMSS17-54" transform="scale(0.996264)"/>
      <use xlink:href="#CMSS17-65" transform="translate(56.012199 0) scale(0.996264)"/>
      <use xlink:href="#CMSS17-72" transform="translate(97.651021 0) scale(0.996264)"/>
      <use xlink:href="#CMSS17-6d" transform="translate(129.560793 0) scale(0.996264)"/>
      <use xlink:href="#CMSS17-69" transform="translate(203.790048 0) scale(0.996264)"/>
      <use xlink:href="#CMSS17-6e" transform="translate(225.970771 0) scale(0.996264)"/>
      <use xlink:href="#CMSS17-61" transform="translate(274.175714 0) scale(0.996264)"/>
      <use xlink:href="#CMSS17-74" transform="translate(319.097634 0) scale(0.996264)"/>
      <use xlink:href="#CMSS17-69" transform="translate(352.929201 0) scale(0.996264)"/>
      <use xlink:href="#CMSS17-6f" transform="translate(375.109924 0) scale(0.996264)"/>
      <use xlink:href="#CMSS17-6e" transform="translate(421.953548 0) scale(0.996264)"/>
      <use xlink:href="#CMSS17-54" transform="translate(501.387603 0) scale(0.996264)"/>
      <use xlink:href="#CMSS17-69" transform="translate(565.207057 0) scale(0.996264)"/>
      <use xlink:href="#CMSS17-6d" transform="translate(587.38778 0) scale(0.996264)"/>
      <use xlink:href="#CMSS17-65" transform="translate(661.617035 0) scale(0.996264)"/>
     </g>
    </g>
   </g>
   <g id="PathCollection_1">
    <path d="M 382.871901 449.579915 
C 384.495932 449.579915 386.053665 448.934681 387.202028 447.786318 
C 388.350391 446.637955 388.995625 445.080222 388.995625 443.456191 
C 388.995625 441.83216 388.350391 440.274427 387.202028 439.126064 
C 386.053665 437.977701 384.495932 437.332467 382.871901 437.332467 
C 381.24787 437.332467 379.690137 437.977701 378.541774 439.126064 
C 377.393411 440.274427 376.748176 441.83216 376.748176 443.456191 
C 376.748176 445.080222 377.393411 446.637955 378.541774 447.786318 
C 379.690137 448.934681 381.24787 449.579915 382.871901 449.579915 
z
" clip-path="url(#p5a3142e759)" style="fill: #cedb9c; stroke: #ffffff; stroke-width: 0.979796"/>
    <path d="M 498.161157 483.751583 
C 499.785188 483.751583 501.342921 483.106349 502.491284 481.957986 
C 503.639647 480.809623 504.284881 479.251889 504.284881 477.627859 
C 504.284881 476.003828 503.639647 474.446095 502.491284 473.297732 
C 501.342921 472.149369 499.785188 471.504134 498.161157 471.504134 
C 496.537126 471.504134 494.979393 472.149369 493.83103 473.297732 
C 492.682667 474.446095 492.037433 476.003828 492.037433 477.627859 
C 492.037433 479.251889 492.682667 480.809623 493.83103 481.957986 
C 494.979393 483.106349 496.537126 483.751583 498.161157 483.751583 
z
" clip-path="url(#p5a3142e759)" style="fill: #e7ba52; stroke: #ffffff; stroke-width: 0.979796"/>
    <path d="M 152.293388 355.512616 
C 153.917419 355.512616 155.475152 354.867382 156.623515 353.719019 
C 157.771879 352.570656 158.417113 351.012923 158.417113 349.388892 
C 158.417113 347.764861 157.771879 346.207128 156.623515 345.058765 
C 155.475152 343.910402 153.917419 343.265168 152.293388 343.265168 
C 150.669358 343.265168 149.111625 343.910402 147.963261 345.058765 
C 146.814898 346.207128 146.169664 347.764861 146.169664 349.388892 
C 146.169664 351.012923 146.814898 352.570656 147.963261 353.719019 
C 149.111625 354.867382 150.669358 355.512616 152.293388 355.512616 
z
" clip-path="url(#p5a3142e759)" style="fill: #e7ba52; stroke: #ffffff; stroke-width: 0.979796"/>
    <path d="M 209.938017 401.674398 
C 211.562047 401.674398 213.11978 401.029163 214.268144 399.8808 
C 215.416507 398.732437 216.061741 397.174704 216.061741 395.550673 
C 216.061741 393.926643 215.416507 392.368909 214.268144 391.220546 
C 213.11978 390.072183 211.562047 389.426949 209.938017 389.426949 
C 208.313986 389.426949 206.756253 390.072183 205.60789 391.220546 
C 204.459526 392.368909 203.814292 393.926643 203.814292 395.550673 
C 203.814292 397.174704 204.459526 398.732437 205.60789 399.8808 
C 206.756253 401.029163 208.313986 401.674398 209.938017 401.674398 
z
" clip-path="url(#p5a3142e759)" style="fill: #e7ba52; stroke: #ffffff; stroke-width: 0.979796"/>
    <path d="M 498.161157 472.633405 
C 499.785188 472.633405 501.342921 471.98817 502.491284 470.839807 
C 503.639647 469.691444 504.284881 468.133711 504.284881 466.50968 
C 504.284881 464.885649 503.639647 463.327916 502.491284 462.179553 
C 501.342921 461.03119 499.785188 460.385956 498.161157 460.385956 
C 496.537126 460.385956 494.979393 461.03119 493.83103 462.179553 
C 492.682667 463.327916 492.037433 464.885649 492.037433 466.50968 
C 492.037433 468.133711 492.682667 469.691444 493.83103 470.839807 
C 494.979393 471.98817 496.537126 472.633405 498.161157 472.633405 
z
" clip-path="url(#p5a3142e759)" style="fill: #cedb9c; stroke: #ffffff; stroke-width: 0.979796"/>
    <path d="M 152.293388 323.119544 
C 153.917419 323.119544 155.475152 322.47431 156.623515 321.325947 
C 157.771879 320.177584 158.417113 318.619851 158.417113 316.99582 
C 158.417113 315.371789 157.771879 313.814056 156.623515 312.665693 
C 155.475152 311.51733 153.917419 310.872096 152.293388 310.872096 
C 150.669358 310.872096 149.111625 311.51733 147.963261 312.665693 
C 146.814898 313.814056 146.169664 315.371789 146.169664 316.99582 
C 146.169664 318.619851 146.814898 320.177584 147.963261 321.325947 
C 149.111625 322.47431 150.669358 323.119544 152.293388 323.119544 
z
" clip-path="url(#p5a3142e759)" style="fill: #cedb9c; stroke: #ffffff; stroke-width: 0.979796"/>
    <path d="M 382.871901 464.029156 
C 384.495932 464.029156 386.053665 463.383921 387.202028 462.235558 
C 388.350391 461.087195 388.995625 459.529462 388.995625 457.905431 
C 388.995625 456.2814 388.350391 454.723667 387.202028 453.575304 
C 386.053665 452.426941 384.495932 451.781707 382.871901 451.781707 
C 381.24787 451.781707 379.690137 452.426941 378.541774 453.575304 
C 377.393411 454.723667 376.748176 456.2814 376.748176 457.905431 
C 376.748176 459.529462 377.393411 461.087195 378.541774 462.235558 
C 379.690137 463.383921 381.24787 464.029156 382.871901 464.029156 
z
" clip-path="url(#p5a3142e759)" style="fill: #e7ba52; stroke: #ffffff; stroke-width: 0.979796"/>
    <path d="M 209.938017 376.8395 
C 211.562047 376.8395 213.11978 376.194266 214.268144 375.045902 
C 215.416507 373.897539 216.061741 372.339806 216.061741 370.715775 
C 216.061741 369.091745 215.416507 367.534011 214.268144 366.385648 
C 213.11978 365.237285 211.562047 364.592051 209.938017 364.592051 
C 208.313986 364.592051 206.756253 365.237285 205.60789 366.385648 
C 204.459526 367.534011 203.814292 369.091745 203.814292 370.715775 
C 203.814292 372.339806 204.459526 373.897539 205.60789 375.045902 
C 206.756253 376.194266 208.313986 376.8395 209.938017 376.8395 
z
" clip-path="url(#p5a3142e759)" style="fill: #cedb9c; stroke: #ffffff; stroke-width: 0.979796"/>
    <path d="M 267.582645 410.072361 
C 269.206675 410.072361 270.764409 409.427127 271.912772 408.278764 
C 273.061135 407.130401 273.706369 405.572667 273.706369 403.948637 
C 273.706369 402.324606 273.061135 400.766873 271.912772 399.61851 
C 270.764409 398.470147 269.206675 397.824912 267.582645 397.824912 
C 265.958614 397.824912 264.400881 398.470147 263.252518 399.61851 
C 262.104155 400.766873 261.45892 402.324606 261.45892 403.948637 
C 261.45892 405.572667 262.104155 407.130401 263.252518 408.278764 
C 264.400881 409.427127 265.958614 410.072361 267.582645 410.072361 
z
" clip-path="url(#p5a3142e759)" style="fill: #cedb9c; stroke: #ffffff; stroke-width: 0.979796"/>
    <path d="M 325.227273 449.694788 
C 326.851303 449.694788 328.409037 449.049553 329.5574 447.90119 
C 330.705763 446.752827 331.350997 445.195094 331.350997 443.571063 
C 331.350997 441.947032 330.705763 440.389299 329.5574 439.240936 
C 328.409037 438.092573 326.851303 437.447339 325.227273 437.447339 
C 323.603242 437.447339 322.045509 438.092573 320.897146 439.240936 
C 319.748783 440.389299 319.103548 441.947032 319.103548 443.571063 
C 319.103548 445.195094 319.748783 446.752827 320.897146 447.90119 
C 322.045509 449.049553 323.603242 449.694788 325.227273 449.694788 
z
" clip-path="url(#p5a3142e759)" style="fill: #e7ba52; stroke: #ffffff; stroke-width: 0.979796"/>
    <path d="M 440.516529 462.435554 
C 442.14056 462.435554 443.698293 461.79032 444.846656 460.641957 
C 445.995019 459.493594 446.640253 457.935861 446.640253 456.31183 
C 446.640253 454.687799 445.995019 453.130066 444.846656 451.981703 
C 443.698293 450.83334 442.14056 450.188106 440.516529 450.188106 
C 438.892498 450.188106 437.334765 450.83334 436.186402 451.981703 
C 435.038039 453.130066 434.392805 454.687799 434.392805 456.31183 
C 434.392805 457.935861 435.038039 459.493594 436.186402 460.641957 
C 437.334765 461.79032 438.892498 462.435554 440.516529 462.435554 
z
" clip-path="url(#p5a3142e759)" style="fill: #cedb9c; stroke: #ffffff; stroke-width: 0.979796"/>
    <path d="M 267.582645 430.156634 
C 269.206675 430.156634 270.764409 429.5114 271.912772 428.363037 
C 273.061135 427.214674 273.706369 425.656941 273.706369 424.03291 
C 273.706369 422.408879 273.061135 420.851146 271.912772 419.702783 
C 270.764409 418.55442 269.206675 417.909186 267.582645 417.909186 
C 265.958614 417.909186 264.400881 418.55442 263.252518 419.702783 
C 262.104155 420.851146 261.45892 422.408879 261.45892 424.03291 
C 261.45892 425.656941 262.104155 427.214674 263.252518 428.363037 
C 264.400881 429.5114 265.958614 430.156634 267.582645 430.156634 
z
" clip-path="url(#p5a3142e759)" style="fill: #e7ba52; stroke: #ffffff; stroke-width: 0.979796"/>
    <path d="M 440.516529 475.025234 
C 442.14056 475.025234 443.698293 474.38 444.846656 473.231637 
C 445.995019 472.083274 446.640253 470.52554 446.640253 468.90151 
C 446.640253 467.277479 445.995019 465.719746 444.846656 464.571383 
C 443.698293 463.42302 442.14056 462.777785 440.516529 462.777785 
C 438.892498 462.777785 437.334765 463.42302 436.186402 464.571383 
C 435.038039 465.719746 434.392805 467.277479 434.392805 468.90151 
C 434.392805 470.52554 435.038039 472.083274 436.186402 473.231637 
C 437.334765 474.38 438.892498 475.025234 440.516529 475.025234 
z
" clip-path="url(#p5a3142e759)" style="fill: #e7ba52; stroke: #ffffff; stroke-width: 0.979796"/>
    <path d="M 325.227273 432.865469 
C 326.851303 432.865469 328.409037 432.220234 329.5574 431.071871 
C 330.705763 429.923508 331.350997 428.365775 331.350997 426.741744 
C 331.350997 425.117713 330.705763 423.55998 329.5574 422.411617 
C 328.409037 421.263254 326.851303 420.61802 325.227273 420.61802 
C 323.603242 420.61802 322.045509 421.263254 320.897146 422.411617 
C 319.748783 423.55998 319.103548 425.117713 319.103548 426.741744 
C 319.103548 428.365775 319.748783 429.923508 320.897146 431.071871 
C 322.045509 432.220234 323.603242 432.865469 325.227273 432.865469 
z
" clip-path="url(#p5a3142e759)" style="fill: #cedb9c; stroke: #ffffff; stroke-width: 0.979796"/>
    <path d="M 209.938017 420.273227 
C 211.562047 420.273227 213.11978 419.627993 214.268144 418.47963 
C 215.416507 417.331267 216.061741 415.773533 216.061741 414.149503 
C 216.061741 412.525472 215.416507 410.967739 214.268144 409.819376 
C 213.11978 408.671013 211.562047 408.025778 209.938017 408.025778 
C 208.313986 408.025778 206.756253 408.671013 205.60789 409.819376 
C 204.459526 410.967739 203.814292 412.525472 203.814292 414.149503 
C 203.814292 415.773533 204.459526 417.331267 205.60789 418.47963 
C 206.756253 419.627993 208.313986 420.273227 209.938017 420.273227 
z
" clip-path="url(#p5a3142e759)" style="fill: #843c39; stroke: #ffffff; stroke-width: 0.979796"/>
    <path d="M 267.582645 381.979884 
C 269.206675 381.979884 270.764409 381.33465 271.912772 380.186287 
C 273.061135 379.037924 273.706369 377.480191 273.706369 375.85616 
C 273.706369 374.232129 273.061135 372.674396 271.912772 371.526033 
C 270.764409 370.37767 269.206675 369.732435 267.582645 369.732435 
C 265.958614 369.732435 264.400881 370.37767 263.252518 371.526033 
C 262.104155 372.674396 261.45892 374.232129 261.45892 375.85616 
C 261.45892 377.480191 262.104155 379.037924 263.252518 380.186287 
C 264.400881 381.33465 265.958614 381.979884 267.582645 381.979884 
z
" clip-path="url(#p5a3142e759)" style="fill: #8ca252; stroke: #ffffff; stroke-width: 0.979796"/>
    <path d="M 440.516529 444.793227 
C 442.14056 444.793227 443.698293 444.147993 444.846656 442.99963 
C 445.995019 441.851267 446.640253 440.293533 446.640253 438.669503 
C 446.640253 437.045472 445.995019 435.487739 444.846656 434.339376 
C 443.698293 433.191013 442.14056 432.545778 440.516529 432.545778 
C 438.892498 432.545778 437.334765 433.191013 436.186402 434.339376 
C 435.038039 435.487739 434.392805 437.045472 434.392805 438.669503 
C 434.392805 440.293533 435.038039 441.851267 436.186402 442.99963 
C 437.334765 444.147993 438.892498 444.793227 440.516529 444.793227 
z
" clip-path="url(#p5a3142e759)" style="fill: #8ca252; stroke: #ffffff; stroke-width: 0.979796"/>
    <path d="M 152.293388 379.865989 
C 153.917419 379.865989 155.475152 379.220755 156.623515 378.072392 
C 157.771879 376.924029 158.417113 375.366296 158.417113 373.742265 
C 158.417113 372.118234 157.771879 370.560501 156.623515 369.412138 
C 155.475152 368.263775 153.917419 367.61854 152.293388 367.61854 
C 150.669358 367.61854 149.111625 368.263775 147.963261 369.412138 
C 146.814898 370.560501 146.169664 372.118234 146.169664 373.742265 
C 146.169664 375.366296 146.814898 376.924029 147.963261 378.072392 
C 149.111625 379.220755 150.669358 379.865989 152.293388 379.865989 
z
" clip-path="url(#p5a3142e759)" style="fill: #843c39; stroke: #ffffff; stroke-width: 0.979796"/>
    <path d="M 498.161157 492.127 
C 499.785188 492.127 501.342921 491.481765 502.491284 490.333402 
C 503.639647 489.185039 504.284881 487.627306 504.284881 486.003275 
C 504.284881 484.379245 503.639647 482.821511 502.491284 481.673148 
C 501.342921 480.524785 499.785188 479.879551 498.161157 479.879551 
C 496.537126 479.879551 494.979393 480.524785 493.83103 481.673148 
C 492.682667 482.821511 492.037433 484.379245 492.037433 486.003275 
C 492.037433 487.627306 492.682667 489.185039 493.83103 490.333402 
C 494.979393 491.481765 496.537126 492.127 498.161157 492.127 
z
" clip-path="url(#p5a3142e759)" style="fill: #843c39; stroke: #ffffff; stroke-width: 0.979796"/>
    <path d="M 325.227273 315.128324 
C 326.851303 315.128324 328.409037 314.483089 329.5574 313.334726 
C 330.705763 312.186363 331.350997 310.62863 331.350997 309.004599 
C 331.350997 307.380569 330.705763 305.822835 329.5574 304.674472 
C 328.409037 303.526109 326.851303 302.880875 325.227273 302.880875 
C 323.603242 302.880875 322.045509 303.526109 320.897146 304.674472 
C 319.748783 305.822835 319.103548 307.380569 319.103548 309.004599 
C 319.103548 310.62863 319.748783 312.186363 320.897146 313.334726 
C 322.045509 314.483089 323.603242 315.128324 325.227273 315.128324 
z
" clip-path="url(#p5a3142e759)" style="fill: #393b79; stroke: #ffffff; stroke-width: 0.979796"/>
    <path d="M 325.227273 374.006409 
C 326.851303 374.006409 328.409037 373.361175 329.5574 372.212812 
C 330.705763 371.064449 331.350997 369.506716 331.350997 367.882685 
C 331.350997 366.258654 330.705763 364.700921 329.5574 363.552558 
C 328.409037 362.404195 326.851303 361.758961 325.227273 361.758961 
C 323.603242 361.758961 322.045509 362.404195 320.897146 363.552558 
C 319.748783 364.700921 319.103548 366.258654 319.103548 367.882685 
C 319.103548 369.506716 319.748783 371.064449 320.897146 372.212812 
C 322.045509 373.361175 323.603242 374.006409 325.227273 374.006409 
z
" clip-path="url(#p5a3142e759)" style="fill: #6b6ecf; stroke: #ffffff; stroke-width: 0.979796"/>
    <path d="M 382.871901 483.272871 
C 384.495932 483.272871 386.053665 482.627636 387.202028 481.479273 
C 388.350391 480.33091 388.995625 478.773177 388.995625 477.149146 
C 388.995625 475.525116 388.350391 473.967382 387.202028 472.819019 
C 386.053665 471.670656 384.495932 471.025422 382.871901 471.025422 
C 381.24787 471.025422 379.690137 471.670656 378.541774 472.819019 
C 377.393411 473.967382 376.748176 475.525116 376.748176 477.149146 
C 376.748176 478.773177 377.393411 480.33091 378.541774 481.479273 
C 379.690137 482.627636 381.24787 483.272871 382.871901 483.272871 
z
" clip-path="url(#p5a3142e759)" style="fill: #e7969c; stroke: #ffffff; stroke-width: 0.979796"/>
    <path d="M 209.938017 434.747505 
C 211.562047 434.747505 213.11978 434.10227 214.268144 432.953907 
C 215.416507 431.805544 216.061741 430.247811 216.061741 428.62378 
C 216.061741 426.99975 215.416507 425.442016 214.268144 424.293653 
C 213.11978 423.14529 211.562047 422.500056 209.938017 422.500056 
C 208.313986 422.500056 206.756253 423.14529 205.60789 424.293653 
C 204.459526 425.442016 203.814292 426.99975 203.814292 428.62378 
C 203.814292 430.247811 204.459526 431.805544 205.60789 432.953907 
C 206.756253 434.10227 208.313986 434.747505 209.938017 434.747505 
z
" clip-path="url(#p5a3142e759)" style="fill: #e7969c; stroke: #ffffff; stroke-width: 0.979796"/>
    <path d="M 267.582645 339.82475 
C 269.206675 339.82475 270.764409 339.179515 271.912772 338.031152 
C 273.061135 336.882789 273.706369 335.325056 273.706369 333.701025 
C 273.706369 332.076995 273.061135 330.519261 271.912772 329.370898 
C 270.764409 328.222535 269.206675 327.577301 267.582645 327.577301 
C 265.958614 327.577301 264.400881 328.222535 263.252518 329.370898 
C 262.104155 330.519261 261.45892 332.076995 261.45892 333.701025 
C 261.45892 335.325056 262.104155 336.882789 263.252518 338.031152 
C 264.400881 339.179515 265.958614 339.82475 267.582645 339.82475 
z
" clip-path="url(#p5a3142e759)" style="fill: #6b6ecf; stroke: #ffffff; stroke-width: 0.979796"/>
    <path d="M 267.582645 269.569797 
C 269.206675 269.569797 270.764409 268.924562 271.912772 267.776199 
C 273.061135 266.627836 273.706369 265.070103 273.706369 263.446072 
C 273.706369 261.822042 273.061135 260.264308 271.912772 259.115945 
C 270.764409 257.967582 269.206675 257.322348 267.582645 257.322348 
C 265.958614 257.322348 264.400881 257.967582 263.252518 259.115945 
C 262.104155 260.264308 261.45892 261.822042 261.45892 263.446072 
C 261.45892 265.070103 262.104155 266.627836 263.252518 267.776199 
C 264.400881 268.924562 265.958614 269.569797 267.582645 269.569797 
z
" clip-path="url(#p5a3142e759)" style="fill: #393b79; stroke: #ffffff; stroke-width: 0.979796"/>
    <path d="M 325.227273 409.337051 
C 326.851303 409.337051 328.409037 408.691817 329.5574 407.543454 
C 330.705763 406.395091 331.350997 404.837358 331.350997 403.213327 
C 331.350997 401.589296 330.705763 400.031563 329.5574 398.8832 
C 328.409037 397.734837 326.851303 397.089603 325.227273 397.089603 
C 323.603242 397.089603 322.045509 397.734837 320.897146 398.8832 
C 319.748783 400.031563 319.103548 401.589296 319.103548 403.213327 
C 319.103548 404.837358 319.748783 406.395091 320.897146 407.543454 
C 322.045509 408.691817 323.603242 409.337051 325.227273 409.337051 
z
" clip-path="url(#p5a3142e759)" style="fill: #8ca252; stroke: #ffffff; stroke-width: 0.979796"/>
    <path d="M 382.871901 474.840672 
C 384.495932 474.840672 386.053665 474.195438 387.202028 473.047075 
C 388.350391 471.898712 388.995625 470.340978 388.995625 468.716948 
C 388.995625 467.092917 388.350391 465.535184 387.202028 464.386821 
C 386.053665 463.238458 384.495932 462.593223 382.871901 462.593223 
C 381.24787 462.593223 379.690137 463.238458 378.541774 464.386821 
C 377.393411 465.535184 376.748176 467.092917 376.748176 468.716948 
C 376.748176 470.340978 377.393411 471.898712 378.541774 473.047075 
C 379.690137 474.195438 381.24787 474.840672 382.871901 474.840672 
z
" clip-path="url(#p5a3142e759)" style="fill: #843c39; stroke: #ffffff; stroke-width: 0.979796"/>
    <path d="M 440.516529 374.273635 
C 442.14056 374.273635 443.698293 373.628401 444.846656 372.480038 
C 445.995019 371.331675 446.640253 369.773942 446.640253 368.149911 
C 446.640253 366.52588 445.995019 364.968147 444.846656 363.819784 
C 443.698293 362.671421 442.14056 362.026187 440.516529 362.026187 
C 438.892498 362.026187 437.334765 362.671421 436.186402 363.819784 
C 435.038039 364.968147 434.392805 366.52588 434.392805 368.149911 
C 434.392805 369.773942 435.038039 371.331675 436.186402 372.480038 
C 437.334765 373.628401 438.892498 374.273635 440.516529 374.273635 
z
" clip-path="url(#p5a3142e759)" style="fill: #393b79; stroke: #ffffff; stroke-width: 0.979796"/>
    <path d="M 152.293388 398.800439 
C 153.917419 398.800439 155.475152 398.155205 156.623515 397.006842 
C 157.771879 395.858479 158.417113 394.300746 158.417113 392.676715 
C 158.417113 391.052684 157.771879 389.494951 156.623515 388.346588 
C 155.475152 387.198225 153.917419 386.552991 152.293388 386.552991 
C 150.669358 386.552991 149.111625 387.198225 147.963261 388.346588 
C 146.814898 389.494951 146.169664 391.052684 146.169664 392.676715 
C 146.169664 394.300746 146.814898 395.858479 147.963261 397.006842 
C 149.111625 398.155205 150.669358 398.800439 152.293388 398.800439 
z
" clip-path="url(#p5a3142e759)" style="fill: #e7969c; stroke: #ffffff; stroke-width: 0.979796"/>
    <path d="M 440.516529 418.343913 
C 442.14056 418.343913 443.698293 417.698679 444.846656 416.550316 
C 445.995019 415.401952 446.640253 413.844219 446.640253 412.220189 
C 446.640253 410.596158 445.995019 409.038425 444.846656 407.890061 
C 443.698293 406.741698 442.14056 406.096464 440.516529 406.096464 
C 438.892498 406.096464 437.334765 406.741698 436.186402 407.890061 
C 435.038039 409.038425 434.392805 410.596158 434.392805 412.220189 
C 434.392805 413.844219 435.038039 415.401952 436.186402 416.550316 
C 437.334765 417.698679 438.892498 418.343913 440.516529 418.343913 
z
" clip-path="url(#p5a3142e759)" style="fill: #6b6ecf; stroke: #ffffff; stroke-width: 0.979796"/>
    <path d="M 498.161157 498.603724 
C 499.785188 498.603724 501.342921 497.95849 502.491284 496.810127 
C 503.639647 495.661764 504.284881 494.104031 504.284881 492.48 
C 504.284881 490.855969 503.639647 489.298236 502.491284 488.149873 
C 501.342921 487.00151 499.785188 486.356276 498.161157 486.356276 
C 496.537126 486.356276 494.979393 487.00151 493.83103 488.149873 
C 492.682667 489.298236 492.037433 490.855969 492.037433 492.48 
C 492.037433 494.104031 492.682667 495.661764 493.83103 496.810127 
C 494.979393 497.95849 496.537126 498.603724 498.161157 498.603724 
z
" clip-path="url(#p5a3142e759)" style="fill: #e7969c; stroke: #ffffff; stroke-width: 0.979796"/>
    <path d="M 152.293388 209.258139 
C 153.917419 209.258139 155.475152 208.612905 156.623515 207.464542 
C 157.771879 206.316178 158.417113 204.758445 158.417113 203.134415 
C 158.417113 201.510384 157.771879 199.952651 156.623515 198.804288 
C 155.475152 197.655924 153.917419 197.01069 152.293388 197.01069 
C 150.669358 197.01069 149.111625 197.655924 147.963261 198.804288 
C 146.814898 199.952651 146.169664 201.510384 146.169664 203.134415 
C 146.169664 204.758445 146.814898 206.316178 147.963261 207.464542 
C 149.111625 208.612905 150.669358 209.258139 152.293388 209.258139 
z
" clip-path="url(#p5a3142e759)" style="fill: #6b6ecf; stroke: #ffffff; stroke-width: 0.979796"/>
    <path d="M 152.293388 95.403724 
C 153.917419 95.403724 155.475152 94.75849 156.623515 93.610127 
C 157.771879 92.461764 158.417113 90.904031 158.417113 89.28 
C 158.417113 87.655969 157.771879 86.098236 156.623515 84.949873 
C 155.475152 83.80151 153.917419 83.156276 152.293388 83.156276 
C 150.669358 83.156276 149.111625 83.80151 147.963261 84.949873 
C 146.814898 86.098236 146.169664 87.655969 146.169664 89.28 
C 146.169664 90.904031 146.814898 92.461764 147.963261 93.610127 
C 149.111625 94.75849 150.669358 95.403724 152.293388 95.403724 
z
" clip-path="url(#p5a3142e759)" style="fill: #393b79; stroke: #ffffff; stroke-width: 0.979796"/>
    <path d="M 440.516529 491.822245 
C 442.14056 491.822245 443.698293 491.177011 444.846656 490.028648 
C 445.995019 488.880285 446.640253 487.322552 446.640253 485.698521 
C 446.640253 484.07449 445.995019 482.516757 444.846656 481.368394 
C 443.698293 480.220031 442.14056 479.574797 440.516529 479.574797 
C 438.892498 479.574797 437.334765 480.220031 436.186402 481.368394 
C 435.038039 482.516757 434.392805 484.07449 434.392805 485.698521 
C 434.392805 487.322552 435.038039 488.880285 436.186402 490.028648 
C 437.334765 491.177011 438.892498 491.822245 440.516529 491.822245 
z
" clip-path="url(#p5a3142e759)" style="fill: #e7969c; stroke: #ffffff; stroke-width: 0.979796"/>
    <path d="M 498.161157 394.683723 
C 499.785188 394.683723 501.342921 394.038488 502.491284 392.890125 
C 503.639647 391.741762 504.284881 390.184029 504.284881 388.559998 
C 504.284881 386.935967 503.639647 385.378234 502.491284 384.229871 
C 501.342921 383.081508 499.785188 382.436274 498.161157 382.436274 
C 496.537126 382.436274 494.979393 383.081508 493.83103 384.229871 
C 492.682667 385.378234 492.037433 386.935967 492.037433 388.559998 
C 492.037433 390.184029 492.682667 391.741762 493.83103 392.890125 
C 494.979393 394.038488 496.537126 394.683723 498.161157 394.683723 
z
" clip-path="url(#p5a3142e759)" style="fill: #393b79; stroke: #ffffff; stroke-width: 0.979796"/>
    <path d="M 498.161157 433.645054 
C 499.785188 433.645054 501.342921 432.99982 502.491284 431.851457 
C 503.639647 430.703094 504.284881 429.145361 504.284881 427.52133 
C 504.284881 425.897299 503.639647 424.339566 502.491284 423.191203 
C 501.342921 422.04284 499.785188 421.397606 498.161157 421.397606 
C 496.537126 421.397606 494.979393 422.04284 493.83103 423.191203 
C 492.682667 424.339566 492.037433 425.897299 492.037433 427.52133 
C 492.037433 429.145361 492.682667 430.703094 493.83103 431.851457 
C 494.979393 432.99982 496.537126 433.645054 498.161157 433.645054 
z
" clip-path="url(#p5a3142e759)" style="fill: #6b6ecf; stroke: #ffffff; stroke-width: 0.979796"/>
    <path d="M 325.227273 462.303929 
C 326.851303 462.303929 328.409037 461.658695 329.5574 460.510332 
C 330.705763 459.361968 331.350997 457.804235 331.350997 456.180205 
C 331.350997 454.556174 330.705763 452.998441 329.5574 451.850078 
C 328.409037 450.701714 326.851303 450.05648 325.227273 450.05648 
C 323.603242 450.05648 322.045509 450.701714 320.897146 451.850078 
C 319.748783 452.998441 319.103548 454.556174 319.103548 456.180205 
C 319.103548 457.804235 319.748783 459.361968 320.897146 460.510332 
C 322.045509 461.658695 323.603242 462.303929 325.227273 462.303929 
z
" clip-path="url(#p5a3142e759)" style="fill: #843c39; stroke: #ffffff; stroke-width: 0.979796"/>
    <path d="M 382.871901 429.38773 
C 384.495932 429.38773 386.053665 428.742496 387.202028 427.594133 
C 388.350391 426.44577 388.995625 424.888036 388.995625 423.264006 
C 388.995625 421.639975 388.350391 420.082242 387.202028 418.933879 
C 386.053665 417.785516 384.495932 417.140281 382.871901 417.140281 
C 381.24787 417.140281 379.690137 417.785516 378.541774 418.933879 
C 377.393411 420.082242 376.748176 421.639975 376.748176 423.264006 
C 376.748176 424.888036 377.393411 426.44577 378.541774 427.594133 
C 379.690137 428.742496 381.24787 429.38773 382.871901 429.38773 
z
" clip-path="url(#p5a3142e759)" style="fill: #8ca252; stroke: #ffffff; stroke-width: 0.979796"/>
    <path d="M 209.938017 290.004776 
C 211.562047 290.004776 213.11978 289.359542 214.268144 288.211179 
C 215.416507 287.062816 216.061741 285.505083 216.061741 283.881052 
C 216.061741 282.257021 215.416507 280.699288 214.268144 279.550925 
C 213.11978 278.402562 211.562047 277.757328 209.938017 277.757328 
C 208.313986 277.757328 206.756253 278.402562 205.60789 279.550925 
C 204.459526 280.699288 203.814292 282.257021 203.814292 283.881052 
C 203.814292 285.505083 204.459526 287.062816 205.60789 288.211179 
C 206.756253 289.359542 208.313986 290.004776 209.938017 290.004776 
z
" clip-path="url(#p5a3142e759)" style="fill: #6b6ecf; stroke: #ffffff; stroke-width: 0.979796"/>
    <path d="M 209.938017 203.143392 
C 211.562047 203.143392 213.11978 202.498158 214.268144 201.349794 
C 215.416507 200.201431 216.061741 198.643698 216.061741 197.019667 
C 216.061741 195.395637 215.416507 193.837903 214.268144 192.68954 
C 213.11978 191.541177 211.562047 190.895943 209.938017 190.895943 
C 208.313986 190.895943 206.756253 191.541177 205.60789 192.68954 
C 204.459526 193.837903 203.814292 195.395637 203.814292 197.019667 
C 203.814292 198.643698 204.459526 200.201431 205.60789 201.349794 
C 206.756253 202.498158 208.313986 203.143392 209.938017 203.143392 
z
" clip-path="url(#p5a3142e759)" style="fill: #393b79; stroke: #ffffff; stroke-width: 0.979796"/>
    <path d="M 267.582645 456.914368 
C 269.206675 456.914368 270.764409 456.269134 271.912772 455.120771 
C 273.061135 453.972408 273.706369 452.414675 273.706369 450.790644 
C 273.706369 449.166613 273.061135 447.60888 271.912772 446.460517 
C 270.764409 445.312154 269.206675 444.66692 267.582645 444.66692 
C 265.958614 444.66692 264.400881 445.312154 263.252518 446.460517 
C 262.104155 447.60888 261.45892 449.166613 261.45892 450.790644 
C 261.45892 452.414675 262.104155 453.972408 263.252518 455.120771 
C 264.400881 456.269134 265.958614 456.914368 267.582645 456.914368 
z
" clip-path="url(#p5a3142e759)" style="fill: #e7969c; stroke: #ffffff; stroke-width: 0.979796"/>
    <path d="M 325.227273 472.115911 
C 326.851303 472.115911 328.409037 471.470676 329.5574 470.322313 
C 330.705763 469.17395 331.350997 467.616217 331.350997 465.992186 
C 331.350997 464.368156 330.705763 462.810422 329.5574 461.662059 
C 328.409037 460.513696 326.851303 459.868462 325.227273 459.868462 
C 323.603242 459.868462 322.045509 460.513696 320.897146 461.662059 
C 319.748783 462.810422 319.103548 464.368156 319.103548 465.992186 
C 319.103548 467.616217 319.748783 469.17395 320.897146 470.322313 
C 322.045509 471.470676 323.603242 472.115911 325.227273 472.115911 
z
" clip-path="url(#p5a3142e759)" style="fill: #e7969c; stroke: #ffffff; stroke-width: 0.979796"/>
    <path d="M 382.871901 348.564025 
C 384.495932 348.564025 386.053665 347.91879 387.202028 346.770427 
C 388.350391 345.622064 388.995625 344.064331 388.995625 342.4403 
C 388.995625 340.81627 388.350391 339.258536 387.202028 338.110173 
C 386.053665 336.96181 384.495932 336.316576 382.871901 336.316576 
C 381.24787 336.316576 379.690137 336.96181 378.541774 338.110173 
C 377.393411 339.258536 376.748176 340.81627 376.748176 342.4403 
C 376.748176 344.064331 377.393411 345.622064 378.541774 346.770427 
C 379.690137 347.91879 381.24787 348.564025 382.871901 348.564025 
z
" clip-path="url(#p5a3142e759)" style="fill: #393b79; stroke: #ffffff; stroke-width: 0.979796"/>
    <path d="M 382.871901 399.074439 
C 384.495932 399.074439 386.053665 398.429205 387.202028 397.280842 
C 388.350391 396.132479 388.995625 394.574746 388.995625 392.950715 
C 388.995625 391.326684 388.350391 389.768951 387.202028 388.620588 
C 386.053665 387.472225 384.495932 386.82699 382.871901 386.82699 
C 381.24787 386.82699 379.690137 387.472225 378.541774 388.620588 
C 377.393411 389.768951 376.748176 391.326684 376.748176 392.950715 
C 376.748176 394.574746 377.393411 396.132479 378.541774 397.280842 
C 379.690137 398.429205 381.24787 399.074439 382.871901 399.074439 
z
" clip-path="url(#p5a3142e759)" style="fill: #6b6ecf; stroke: #ffffff; stroke-width: 0.979796"/>
    <path d="M 440.516529 484.477179 
C 442.14056 484.477179 443.698293 483.831945 444.846656 482.683582 
C 445.995019 481.535219 446.640253 479.977486 446.640253 478.353455 
C 446.640253 476.729424 445.995019 475.171691 444.846656 474.023328 
C 443.698293 472.874965 442.14056 472.229731 440.516529 472.229731 
C 438.892498 472.229731 437.334765 472.874965 436.186402 474.023328 
C 435.038039 475.171691 434.392805 476.729424 434.392805 478.353455 
C 434.392805 479.977486 435.038039 481.535219 436.186402 482.683582 
C 437.334765 483.831945 438.892498 484.477179 440.516529 484.477179 
z
" clip-path="url(#p5a3142e759)" style="fill: #843c39; stroke: #ffffff; stroke-width: 0.979796"/>
    <path d="M 152.293388 277.461926 
C 153.917419 277.461926 155.475152 276.816692 156.623515 275.668329 
C 157.771879 274.519966 158.417113 272.962233 158.417113 271.338202 
C 158.417113 269.714171 157.771879 268.156438 156.623515 267.008075 
C 155.475152 265.859712 153.917419 265.214478 152.293388 265.214478 
C 150.669358 265.214478 149.111625 265.859712 147.963261 267.008075 
C 146.814898 268.156438 146.169664 269.714171 146.169664 271.338202 
C 146.169664 272.962233 146.814898 274.519966 147.963261 275.668329 
C 149.111625 276.816692 150.669358 277.461926 152.293388 277.461926 
z
" clip-path="url(#p5a3142e759)" style="fill: #8ca252; stroke: #ffffff; stroke-width: 0.979796"/>
    <path d="M 498.161157 457.033185 
C 499.785188 457.033185 501.342921 456.387951 502.491284 455.239588 
C 503.639647 454.091225 504.284881 452.533492 504.284881 450.909461 
C 504.284881 449.28543 503.639647 447.727697 502.491284 446.579334 
C 501.342921 445.430971 499.785188 444.785736 498.161157 444.785736 
C 496.537126 444.785736 494.979393 445.430971 493.83103 446.579334 
C 492.682667 447.727697 492.037433 449.28543 492.037433 450.909461 
C 492.037433 452.533492 492.682667 454.091225 493.83103 455.239588 
C 494.979393 456.387951 496.537126 457.033185 498.161157 457.033185 
z
" clip-path="url(#p5a3142e759)" style="fill: #8ca252; stroke: #ffffff; stroke-width: 0.979796"/>
    <path d="M 209.938017 342.13259 
C 211.562047 342.13259 213.11978 341.487356 214.268144 340.338993 
C 215.416507 339.19063 216.061741 337.632896 216.061741 336.008866 
C 216.061741 334.384835 215.416507 332.827102 214.268144 331.678739 
C 213.11978 330.530375 211.562047 329.885141 209.938017 329.885141 
C 208.313986 329.885141 206.756253 330.530375 205.60789 331.678739 
C 204.459526 332.827102 203.814292 334.384835 203.814292 336.008866 
C 203.814292 337.632896 204.459526 339.19063 205.60789 340.338993 
C 206.756253 341.487356 208.313986 342.13259 209.938017 342.13259 
z
" clip-path="url(#p5a3142e759)" style="fill: #8ca252; stroke: #ffffff; stroke-width: 0.979796"/>
    <path d="M 267.582645 445.190236 
C 269.206675 445.190236 270.764409 444.545001 271.912772 443.396638 
C 273.061135 442.248275 273.706369 440.690542 273.706369 439.066511 
C 273.706369 437.442481 273.061135 435.884747 271.912772 434.736384 
C 270.764409 433.588021 269.206675 432.942787 267.582645 432.942787 
C 265.958614 432.942787 264.400881 433.588021 263.252518 434.736384 
C 262.104155 435.884747 261.45892 437.442481 261.45892 439.066511 
C 261.45892 440.690542 262.104155 442.248275 263.252518 443.396638 
C 264.400881 444.545001 265.958614 445.190236 267.582645 445.190236 
z
" clip-path="url(#p5a3142e759)" style="fill: #843c39; stroke: #ffffff; stroke-width: 0.979796"/>
   </g>
   <g id="patch_3">
    <path d="M 135 512.64 
L 135 69.12 
" style="fill: none; stroke: #ffffff; stroke-width: 0.8; stroke-linejoin: miter; stroke-linecap: square"/>
   </g>
   <g id="patch_4">
    <path d="M 515.454545 512.64 
L 515.454545 69.12 
" style="fill: none; stroke: #ffffff; stroke-width: 0.8; stroke-linejoin: miter; stroke-linecap: square"/>
   </g>
   <g id="patch_5">
    <path d="M 135 512.64 
L 515.454545 512.64 
" style="fill: none; stroke: #ffffff; stroke-width: 0.8; stroke-linejoin: miter; stroke-linecap: square"/>
   </g>
   <g id="patch_6">
    <path d="M 135 69.12 
L 515.454545 69.12 
" style="fill: none; stroke: #ffffff; stroke-width: 0.8; stroke-linejoin: miter; stroke-linecap: square"/>
   </g>
  </g>
  <g id="axes_2">
   <g id="patch_7">
    <path d="M 591.545455 512.64 
L 972 512.64 
L 972 69.12 
L 591.545455 69.12 
z
" style="fill: #eaeaf2"/>
   </g>
   <g id="matplotlib.axis_3">
    <g id="xtick_4">
     <g id="line2d_9">
      <path d="M 638.15017 512.64 
L 638.15017 69.12 
" clip-path="url(#p958b07e0ec)" style="fill: none; stroke: #ffffff; stroke-width: 0.8; stroke-linecap: round"/>
     </g>
     <g id="text_11">
      <!-- $\mathdefault{200}$ -->
      <g style="fill: #262626" transform="translate(624.443027 533.476997) scale(0.2 -0.2)">
       <use xlink:href="#CMR17-32" transform="scale(0.996264)"/>
       <use xlink:href="#CMR17-30" transform="translate(45.690477 0) scale(0.996264)"/>
       <use xlink:href="#CMR17-30" transform="translate(91.380954 0) scale(0.996264)"/>
      </g>
     </g>
    </g>
    <g id="xtick_5">
     <g id="line2d_10">
      <path d="M 711.200834 512.64 
L 711.200834 69.12 
" clip-path="url(#p958b07e0ec)" style="fill: none; stroke: #ffffff; stroke-width: 0.8; stroke-linecap: round"/>
     </g>
     <g id="text_12">
      <!-- $\mathdefault{400}$ -->
      <g style="fill: #262626" transform="translate(697.493691 533.476997) scale(0.2 -0.2)">
       <use xlink:href="#CMR17-34" transform="scale(0.996264)"/>
       <use xlink:href="#CMR17-30" transform="translate(45.690477 0) scale(0.996264)"/>
       <use xlink:href="#CMR17-30" transform="translate(91.380954 0) scale(0.996264)"/>
      </g>
     </g>
    </g>
    <g id="xtick_6">
     <g id="line2d_11">
      <path d="M 784.251498 512.64 
L 784.251498 69.12 
" clip-path="url(#p958b07e0ec)" style="fill: none; stroke: #ffffff; stroke-width: 0.8; stroke-linecap: round"/>
     </g>
     <g id="text_13">
      <!-- $\mathdefault{600}$ -->
      <g style="fill: #262626" transform="translate(770.544355 533.476997) scale(0.2 -0.2)">
       <use xlink:href="#CMR17-36" transform="scale(0.996264)"/>
       <use xlink:href="#CMR17-30" transform="translate(45.690477 0) scale(0.996264)"/>
       <use xlink:href="#CMR17-30" transform="translate(91.380954 0) scale(0.996264)"/>
      </g>
     </g>
    </g>
    <g id="xtick_7">
     <g id="line2d_12">
      <path d="M 857.302162 512.64 
L 857.302162 69.12 
" clip-path="url(#p958b07e0ec)" style="fill: none; stroke: #ffffff; stroke-width: 0.8; stroke-linecap: round"/>
     </g>
     <g id="text_14">
      <!-- $\mathdefault{800}$ -->
      <g style="fill: #262626" transform="translate(843.595019 533.476997) scale(0.2 -0.2)">
       <use xlink:href="#CMR17-38" transform="scale(0.996264)"/>
       <use xlink:href="#CMR17-30" transform="translate(45.690477 0) scale(0.996264)"/>
       <use xlink:href="#CMR17-30" transform="translate(91.380954 0) scale(0.996264)"/>
      </g>
     </g>
    </g>
    <g id="xtick_8">
     <g id="line2d_13">
      <path d="M 930.352826 512.64 
L 930.352826 69.12 
" clip-path="url(#p958b07e0ec)" style="fill: none; stroke: #ffffff; stroke-width: 0.8; stroke-linecap: round"/>
     </g>
     <g id="text_15">
      <!-- $\mathdefault{1000}$ -->
      <g style="fill: #262626" transform="translate(912.076635 533.476997) scale(0.2 -0.2)">
       <use xlink:href="#CMR17-31" transform="scale(0.996264)"/>
       <use xlink:href="#CMR17-30" transform="translate(45.690477 0) scale(0.996264)"/>
       <use xlink:href="#CMR17-30" transform="translate(91.380954 0) scale(0.996264)"/>
       <use xlink:href="#CMR17-30" transform="translate(137.071431 0) scale(0.996264)"/>
      </g>
     </g>
    </g>
    <g id="text_16">
     <!-- Termination Time -->
     <g style="fill: #262626" transform="translate(711.447169 555.189627) scale(0.2 -0.2)">
      <use xlink:href="#CMSS17-54" transform="scale(0.996264)"/>
      <use xlink:href="#CMSS17-65" transform="translate(56.012199 0) scale(0.996264)"/>
      <use xlink:href="#CMSS17-72" transform="translate(97.651021 0) scale(0.996264)"/>
      <use xlink:href="#CMSS17-6d" transform="translate(129.560793 0) scale(0.996264)"/>
      <use xlink:href="#CMSS17-69" transform="translate(203.790048 0) scale(0.996264)"/>
      <use xlink:href="#CMSS17-6e" transform="translate(225.970771 0) scale(0.996264)"/>
      <use xlink:href="#CMSS17-61" transform="translate(274.175714 0) scale(0.996264)"/>
      <use xlink:href="#CMSS17-74" transform="translate(319.097634 0) scale(0.996264)"/>
      <use xlink:href="#CMSS17-69" transform="translate(352.929201 0) scale(0.996264)"/>
      <use xlink:href="#CMSS17-6f" transform="translate(375.109924 0) scale(0.996264)"/>
      <use xlink:href="#CMSS17-6e" transform="translate(421.953548 0) scale(0.996264)"/>
      <use xlink:href="#CMSS17-54" transform="translate(501.387603 0) scale(0.996264)"/>
      <use xlink:href="#CMSS17-69" transform="translate(565.207057 0) scale(0.996264)"/>
      <use xlink:href="#CMSS17-6d" transform="translate(587.38778 0) scale(0.996264)"/>
      <use xlink:href="#CMSS17-65" transform="translate(661.617035 0) scale(0.996264)"/>
     </g>
    </g>
   </g>
   <g id="matplotlib.axis_4">
    <g id="ytick_6">
     <g id="line2d_14">
      <path d="M 591.545455 512.64 
L 972 512.64 
" clip-path="url(#p958b07e0ec)" style="fill: none; stroke: #ffffff; stroke-width: 0.8; stroke-linecap: round"/>
     </g>
     <g id="text_17">
      <!-- $\mathdefault{0}$ -->
      <g style="fill: #262626" transform="translate(575.407359 519.558498) scale(0.2 -0.2)">
       <use xlink:href="#CMR17-30" transform="scale(0.996264)"/>
      </g>
     </g>
    </g>
    <g id="ytick_7">
     <g id="line2d_15">
      <path d="M 591.545455 452.297143 
L 972 452.297143 
" clip-path="url(#p958b07e0ec)" style="fill: none; stroke: #ffffff; stroke-width: 0.8; stroke-linecap: round"/>
     </g>
     <g id="text_18">
      <!-- $\mathdefault{1}$ -->
      <g style="fill: #262626" transform="translate(575.407359 459.215641) scale(0.2 -0.2)">
       <use xlink:href="#CMR17-31" transform="scale(0.996264)"/>
      </g>
     </g>
    </g>
    <g id="ytick_8">
     <g id="line2d_16">
      <path d="M 591.545455 391.954286 
L 972 391.954286 
" clip-path="url(#p958b07e0ec)" style="fill: none; stroke: #ffffff; stroke-width: 0.8; stroke-linecap: round"/>
     </g>
     <g id="text_19">
      <!-- $\mathdefault{2}$ -->
      <g style="fill: #262626" transform="translate(575.407359 398.872784) scale(0.2 -0.2)">
       <use xlink:href="#CMR17-32" transform="scale(0.996264)"/>
      </g>
     </g>
    </g>
    <g id="ytick_9">
     <g id="line2d_17">
      <path d="M 591.545455 331.611429 
L 972 331.611429 
" clip-path="url(#p958b07e0ec)" style="fill: none; stroke: #ffffff; stroke-width: 0.8; stroke-linecap: round"/>
     </g>
     <g id="text_20">
      <!-- $\mathdefault{3}$ -->
      <g style="fill: #262626" transform="translate(575.407359 338.529927) scale(0.2 -0.2)">
       <defs>
        <path id="CMR17-33" d="M 1414 2157 
C 1984 2157 2234 1662 2234 1090 
C 2234 320 1824 25 1453 25 
C 1114 25 563 194 390 693 
C 422 680 454 680 486 680 
C 640 680 755 782 755 948 
C 755 1133 614 1216 486 1216 
C 378 1216 211 1165 211 926 
C 211 335 787 -128 1466 -128 
C 2176 -128 2720 430 2720 1085 
C 2720 1707 2208 2157 1600 2227 
C 2086 2328 2554 2756 2554 3329 
C 2554 3820 2048 4179 1472 4179 
C 890 4179 378 3829 378 3329 
C 378 3110 544 3072 627 3072 
C 762 3072 877 3155 877 3321 
C 877 3486 762 3569 627 3569 
C 602 3569 570 3569 544 3557 
C 730 3959 1235 4032 1459 4032 
C 1683 4032 2106 3925 2106 3320 
C 2106 3143 2080 2828 1862 2550 
C 1670 2304 1453 2304 1242 2284 
C 1210 2284 1062 2269 1037 2269 
C 992 2263 966 2257 966 2208 
C 966 2163 973 2157 1101 2157 
L 1414 2157 
z
" transform="scale(0.015625)"/>
       </defs>
       <use xlink:href="#CMR17-33" transform="scale(0.996264)"/>
      </g>
     </g>
    </g>
    <g id="ytick_10">
     <g id="line2d_18">
      <path d="M 591.545455 271.268571 
L 972 271.268571 
" clip-path="url(#p958b07e0ec)" style="fill: none; stroke: #ffffff; stroke-width: 0.8; stroke-linecap: round"/>
     </g>
     <g id="text_21">
      <!-- $\mathdefault{4}$ -->
      <g style="fill: #262626" transform="translate(575.407359 278.18707) scale(0.2 -0.2)">
       <use xlink:href="#CMR17-34" transform="scale(0.996264)"/>
      </g>
     </g>
    </g>
    <g id="ytick_11">
     <g id="line2d_19">
      <path d="M 591.545455 210.925714 
L 972 210.925714 
" clip-path="url(#p958b07e0ec)" style="fill: none; stroke: #ffffff; stroke-width: 0.8; stroke-linecap: round"/>
     </g>
     <g id="text_22">
      <!-- $\mathdefault{5}$ -->
      <g style="fill: #262626" transform="translate(575.407359 217.844213) scale(0.2 -0.2)">
       <defs>
        <path id="CMR17-35" d="M 730 3692 
C 794 3666 1056 3584 1325 3584 
C 1920 3584 2246 3911 2432 4100 
C 2432 4157 2432 4192 2394 4192 
C 2387 4192 2374 4192 2323 4163 
C 2099 4058 1837 3973 1517 3973 
C 1325 3973 1037 3999 723 4139 
C 653 4171 640 4171 634 4171 
C 602 4171 595 4164 595 4037 
L 595 2203 
C 595 2089 595 2057 659 2057 
C 691 2057 704 2070 736 2114 
C 941 2401 1222 2522 1542 2522 
C 1766 2522 2246 2382 2246 1289 
C 2246 1085 2246 715 2054 421 
C 1894 159 1645 25 1370 25 
C 947 25 518 320 403 814 
C 429 807 480 795 506 795 
C 589 795 749 840 749 1038 
C 749 1210 627 1280 506 1280 
C 358 1280 262 1190 262 1011 
C 262 454 704 -128 1382 -128 
C 2042 -128 2669 440 2669 1264 
C 2669 2030 2170 2624 1549 2624 
C 1222 2624 947 2503 730 2274 
L 730 3692 
z
" transform="scale(0.015625)"/>
       </defs>
       <use xlink:href="#CMR17-35" transform="scale(0.996264)"/>
      </g>
     </g>
    </g>
    <g id="ytick_12">
     <g id="line2d_20">
      <path d="M 591.545455 150.582857 
L 972 150.582857 
" clip-path="url(#p958b07e0ec)" style="fill: none; stroke: #ffffff; stroke-width: 0.8; stroke-linecap: round"/>
     </g>
     <g id="text_23">
      <!-- $\mathdefault{6}$ -->
      <g style="fill: #262626" transform="translate(575.407359 157.501356) scale(0.2 -0.2)">
       <use xlink:href="#CMR17-36" transform="scale(0.996264)"/>
      </g>
     </g>
    </g>
    <g id="ytick_13">
     <g id="line2d_21">
      <path d="M 591.545455 90.24 
L 972 90.24 
" clip-path="url(#p958b07e0ec)" style="fill: none; stroke: #ffffff; stroke-width: 0.8; stroke-linecap: round"/>
     </g>
     <g id="text_24">
      <!-- $\mathdefault{7}$ -->
      <g style="fill: #262626" transform="translate(575.407359 97.158498) scale(0.2 -0.2)">
       <defs>
        <path id="CMR17-37" d="M 2886 3941 
L 2886 4081 
L 1382 4081 
C 634 4081 621 4165 595 4288 
L 480 4288 
L 294 3094 
L 410 3094 
C 429 3215 474 3540 550 3661 
C 589 3712 1062 3712 1171 3712 
L 2579 3712 
L 1869 2661 
C 1395 1954 1069 999 1069 165 
C 1069 89 1069 -128 1299 -128 
C 1530 -128 1530 89 1530 171 
L 1530 465 
C 1530 1508 1709 2196 2003 2636 
L 2886 3941 
z
" transform="scale(0.015625)"/>
       </defs>
       <use xlink:href="#CMR17-37" transform="scale(0.996264)"/>
      </g>
     </g>
    </g>
    <g id="text_25">
     <!-- Frequency -->
     <g style="fill: #262626" transform="translate(567.531726 330.392822) rotate(-90) scale(0.2 -0.2)">
      <defs>
       <path id="CMSS17-46" d="M 2918 1984 
L 2918 2373 
L 1101 2373 
L 1101 3968 
L 1882 3968 
C 1958 3968 2035 3968 2112 3968 
L 3168 3968 
L 3168 4375 
L 563 4375 
L 563 -32 
L 1101 -32 
L 1101 1984 
L 2918 1984 
z
" transform="scale(0.015625)"/>
       <path id="CMSS17-71" d="M 2611 2816 
L 2138 2816 
L 2138 2428 
C 2112 2460 1818 2816 1318 2816 
C 736 2816 211 2228 211 1399 
C 211 633 653 -5 1229 -5 
C 1498 -5 1837 91 2125 365 
L 2125 -1216 
L 2611 -1216 
L 2611 2816 
z
M 2138 914 
C 2138 832 2138 718 1939 554 
C 1888 510 1747 384 1504 384 
C 1050 384 698 850 698 1399 
C 698 2011 1126 2415 1562 2415 
C 1926 2415 2138 2061 2138 1797 
L 2138 914 
z
" transform="scale(0.015625)"/>
       <path id="CMSS17-75" d="M 2618 2739 
L 2131 2739 
L 2131 972 
C 2131 498 1786 306 1421 306 
C 998 306 960 447 960 709 
L 960 2739 
L 474 2739 
L 474 678 
C 474 179 646 -64 1088 -64 
C 1306 -64 1798 -13 2144 306 
L 2144 0 
L 2618 0 
L 2618 2739 
z
" transform="scale(0.015625)"/>
       <path id="CMSS17-63" d="M 2464 2541 
C 2464 2585 2170 2714 2093 2739 
C 1882 2816 1613 2816 1542 2816 
C 710 2816 211 2093 211 1363 
C 211 595 768 -64 1517 -64 
C 1946 -64 2253 76 2502 242 
L 2464 664 
C 2189 453 1869 337 1523 337 
C 1024 337 698 774 698 1369 
C 698 1831 909 2414 1549 2414 
C 1901 2414 2099 2343 2394 2145 
L 2464 2541 
z
" transform="scale(0.015625)"/>
       <path id="CMSS17-79" d="M 2675 2752 
L 2176 2752 
C 1632 1294 1446 702 1434 383 
L 1427 383 
C 1408 696 1126 1460 902 2007 
L 602 2752 
L 83 2752 
L 1216 13 
C 1146 -178 1043 -465 1011 -529 
C 870 -885 774 -885 672 -885 
C 646 -885 442 -885 211 -809 
L 250 -1229 
C 410 -1261 570 -1280 685 -1280 
C 845 -1280 1165 -1280 1459 -497 
L 2675 2752 
z
" transform="scale(0.015625)"/>
      </defs>
      <use xlink:href="#CMSS17-46" transform="scale(0.996264)"/>
      <use xlink:href="#CMSS17-72" transform="translate(50.687105 0) scale(0.996264)"/>
      <use xlink:href="#CMSS17-65" transform="translate(82.596878 0) scale(0.996264)"/>
      <use xlink:href="#CMSS17-71" transform="translate(124.2357 0) scale(0.996264)"/>
      <use xlink:href="#CMSS17-75" transform="translate(172.440643 0) scale(0.996264)"/>
      <use xlink:href="#CMSS17-65" transform="translate(220.645586 0) scale(0.996264)"/>
      <use xlink:href="#CMSS17-6e" transform="translate(262.284408 0) scale(0.996264)"/>
      <use xlink:href="#CMSS17-63" transform="translate(310.489351 0) scale(0.996264)"/>
      <use xlink:href="#CMSS17-79" transform="translate(352.128174 0) scale(0.996264)"/>
     </g>
    </g>
   </g>
   <g id="patch_8">
    <path d="M 608.838843 512.64 
L 626.132231 512.64 
L 626.132231 150.582857 
L 608.838843 150.582857 
z
" clip-path="url(#p958b07e0ec)" style="fill: #a55194; fill-opacity: 0.5; stroke: #ffffff; stroke-linejoin: miter"/>
   </g>
   <g id="patch_9">
    <path d="M 626.132231 512.64 
L 643.42562 512.64 
L 643.42562 90.24 
L 626.132231 90.24 
z
" clip-path="url(#p958b07e0ec)" style="fill: #a55194; fill-opacity: 0.5; stroke: #ffffff; stroke-linejoin: miter"/>
   </g>
   <g id="patch_10">
    <path d="M 643.42562 512.64 
L 660.719008 512.64 
L 660.719008 150.582857 
L 643.42562 150.582857 
z
" clip-path="url(#p958b07e0ec)" style="fill: #a55194; fill-opacity: 0.5; stroke: #ffffff; stroke-linejoin: miter"/>
   </g>
   <g id="patch_11">
    <path d="M 660.719008 512.64 
L 678.012397 512.64 
L 678.012397 90.24 
L 660.719008 90.24 
z
" clip-path="url(#p958b07e0ec)" style="fill: #a55194; fill-opacity: 0.5; stroke: #ffffff; stroke-linejoin: miter"/>
   </g>
   <g id="patch_12">
    <path d="M 678.012397 512.64 
L 695.305785 512.64 
L 695.305785 210.925714 
L 678.012397 210.925714 
z
" clip-path="url(#p958b07e0ec)" style="fill: #a55194; fill-opacity: 0.5; stroke: #ffffff; stroke-linejoin: miter"/>
   </g>
   <g id="patch_13">
    <path d="M 695.305785 512.64 
L 712.599174 512.64 
L 712.599174 331.611429 
L 695.305785 331.611429 
z
" clip-path="url(#p958b07e0ec)" style="fill: #a55194; fill-opacity: 0.5; stroke: #ffffff; stroke-linejoin: miter"/>
   </g>
   <g id="patch_14">
    <path d="M 712.599174 512.64 
L 729.892562 512.64 
L 729.892562 331.611429 
L 712.599174 331.611429 
z
" clip-path="url(#p958b07e0ec)" style="fill: #a55194; fill-opacity: 0.5; stroke: #ffffff; stroke-linejoin: miter"/>
   </g>
   <g id="patch_15">
    <path d="M 729.892562 512.64 
L 747.18595 512.64 
L 747.18595 271.268571 
L 729.892562 271.268571 
z
" clip-path="url(#p958b07e0ec)" style="fill: #a55194; fill-opacity: 0.5; stroke: #ffffff; stroke-linejoin: miter"/>
   </g>
   <g id="patch_16">
    <path d="M 747.18595 512.64 
L 764.479339 512.64 
L 764.479339 452.297143 
L 747.18595 452.297143 
z
" clip-path="url(#p958b07e0ec)" style="fill: #a55194; fill-opacity: 0.5; stroke: #ffffff; stroke-linejoin: miter"/>
   </g>
   <g id="patch_17">
    <path d="M 764.479339 512.64 
L 781.772727 512.64 
L 781.772727 452.297143 
L 764.479339 452.297143 
z
" clip-path="url(#p958b07e0ec)" style="fill: #a55194; fill-opacity: 0.5; stroke: #ffffff; stroke-linejoin: miter"/>
   </g>
   <g id="patch_18">
    <path d="M 781.772727 512.64 
L 799.066116 512.64 
L 799.066116 391.954286 
L 781.772727 391.954286 
z
" clip-path="url(#p958b07e0ec)" style="fill: #a55194; fill-opacity: 0.5; stroke: #ffffff; stroke-linejoin: miter"/>
   </g>
   <g id="patch_19">
    <path d="M 799.066116 512.64 
L 816.359504 512.64 
L 816.359504 452.297143 
L 799.066116 452.297143 
z
" clip-path="url(#p958b07e0ec)" style="fill: #a55194; fill-opacity: 0.5; stroke: #ffffff; stroke-linejoin: miter"/>
   </g>
   <g id="patch_20">
    <path d="M 816.359504 512.64 
L 833.652893 512.64 
L 833.652893 512.64 
L 816.359504 512.64 
z
" clip-path="url(#p958b07e0ec)" style="fill: #a55194; fill-opacity: 0.5; stroke: #ffffff; stroke-linejoin: miter"/>
   </g>
   <g id="patch_21">
    <path d="M 833.652893 512.64 
L 850.946281 512.64 
L 850.946281 512.64 
L 833.652893 512.64 
z
" clip-path="url(#p958b07e0ec)" style="fill: #a55194; fill-opacity: 0.5; stroke: #ffffff; stroke-linejoin: miter"/>
   </g>
   <g id="patch_22">
    <path d="M 850.946281 512.64 
L 868.239669 512.64 
L 868.239669 391.954286 
L 850.946281 391.954286 
z
" clip-path="url(#p958b07e0ec)" style="fill: #a55194; fill-opacity: 0.5; stroke: #ffffff; stroke-linejoin: miter"/>
   </g>
   <g id="patch_23">
    <path d="M 868.239669 512.64 
L 885.533058 512.64 
L 885.533058 512.64 
L 868.239669 512.64 
z
" clip-path="url(#p958b07e0ec)" style="fill: #a55194; fill-opacity: 0.5; stroke: #ffffff; stroke-linejoin: miter"/>
   </g>
   <g id="patch_24">
    <path d="M 885.533058 512.64 
L 902.826446 512.64 
L 902.826446 512.64 
L 885.533058 512.64 
z
" clip-path="url(#p958b07e0ec)" style="fill: #a55194; fill-opacity: 0.5; stroke: #ffffff; stroke-linejoin: miter"/>
   </g>
   <g id="patch_25">
    <path d="M 902.826446 512.64 
L 920.119835 512.64 
L 920.119835 512.64 
L 902.826446 512.64 
z
" clip-path="url(#p958b07e0ec)" style="fill: #a55194; fill-opacity: 0.5; stroke: #ffffff; stroke-linejoin: miter"/>
   </g>
   <g id="patch_26">
    <path d="M 920.119835 512.64 
L 937.413223 512.64 
L 937.413223 512.64 
L 920.119835 512.64 
z
" clip-path="url(#p958b07e0ec)" style="fill: #a55194; fill-opacity: 0.5; stroke: #ffffff; stroke-linejoin: miter"/>
   </g>
   <g id="patch_27">
    <path d="M 937.413223 512.64 
L 954.706612 512.64 
L 954.706612 452.297143 
L 937.413223 452.297143 
z
" clip-path="url(#p958b07e0ec)" style="fill: #a55194; fill-opacity: 0.5; stroke: #ffffff; stroke-linejoin: miter"/>
   </g>
   <g id="line2d_22">
    <path d="M 608.838843 318.600575 
L 614.05293 295.34262 
L 619.267017 273.192394 
L 622.743075 259.374579 
L 626.219133 246.527128 
L 629.695191 234.806444 
L 633.171249 224.342372 
L 634.909278 219.614127 
L 636.647307 215.23525 
L 638.385336 211.213411 
L 640.123365 207.554309 
L 641.861394 204.261699 
L 643.599423 201.337431 
L 645.337452 198.781515 
L 647.075481 196.592197 
L 648.81351 194.766054 
L 650.551539 193.298098 
L 652.289568 192.181894 
L 654.027597 191.409689 
L 655.765626 190.97254 
L 657.503655 190.860458 
L 659.241684 191.062545 
L 660.979713 191.567136 
L 662.717742 192.361941 
L 664.455771 193.43418 
L 666.1938 194.770712 
L 667.931829 196.358166 
L 669.669858 198.183056 
L 671.407887 200.231889 
L 673.145916 202.491265 
L 676.621974 207.589034 
L 680.098031 213.374122 
L 683.574089 219.750309 
L 687.050147 226.628658 
L 690.526205 233.928136 
L 695.740292 245.509201 
L 700.954379 257.659719 
L 707.906495 274.433496 
L 730.500872 329.578104 
L 737.452988 345.68389 
L 742.667075 357.234322 
L 747.881162 368.245083 
L 753.095249 378.657991 
L 758.309336 388.435882 
L 763.523423 397.563929 
L 768.73751 406.048912 
L 773.951597 413.916134 
L 779.165684 421.20409 
L 784.379771 427.957464 
L 789.593858 434.219543 
L 794.807945 440.02543 
L 800.022032 445.397523 
L 805.236119 450.344405 
L 810.450206 454.863668 
L 813.926264 457.635412 
L 817.402322 460.212442 
L 820.87838 462.595341 
L 824.354437 464.787869 
L 827.830495 466.797883 
L 833.044582 469.499392 
L 838.258669 471.881717 
L 843.472756 474.027511 
L 853.90093 477.989203 
L 862.591075 481.360873 
L 869.543191 484.271867 
L 879.971365 488.939 
L 888.66151 492.781957 
L 893.875597 494.880735 
L 899.089684 496.714549 
L 902.565742 497.75441 
L 906.0418 498.631022 
L 909.517858 499.336895 
L 912.993916 499.871404 
L 916.469974 500.240804 
L 921.684061 500.51489 
L 926.898148 500.514219 
L 933.850264 500.239708 
L 946.016467 499.664883 
L 951.230554 499.612818 
L 954.706612 499.69109 
L 954.706612 499.69109 
" clip-path="url(#p958b07e0ec)" style="fill: none; stroke: #a55194; stroke-width: 1.5; stroke-linecap: round"/>
   </g>
   <g id="patch_28">
    <path d="M 591.545455 512.64 
L 591.545455 69.12 
" style="fill: none; stroke: #ffffff; stroke-width: 0.8; stroke-linejoin: miter; stroke-linecap: square"/>
   </g>
   <g id="patch_29">
    <path d="M 972 512.64 
L 972 69.12 
" style="fill: none; stroke: #ffffff; stroke-width: 0.8; stroke-linejoin: miter; stroke-linecap: square"/>
   </g>
   <g id="patch_30">
    <path d="M 591.545455 512.64 
L 972 512.64 
" style="fill: none; stroke: #ffffff; stroke-width: 0.8; stroke-linejoin: miter; stroke-linecap: square"/>
   </g>
   <g id="patch_31">
    <path d="M 591.545455 69.12 
L 972 69.12 
" style="fill: none; stroke: #ffffff; stroke-width: 0.8; stroke-linejoin: miter; stroke-linecap: square"/>
   </g>
  </g>
 </g>
 <defs>
  <clipPath id="p5a3142e759">
   <rect x="135" y="69.12" width="380.454545" height="443.52"/>
  </clipPath>
  <clipPath id="p958b07e0ec">
   <rect x="591.545455" y="69.12" width="380.454545" height="443.52"/>
  </clipPath>
 </defs>
</svg>
