<?xml version="1.0" encoding="utf-8" standalone="no"?>
<!DOCTYPE svg PUBLIC "-//W3C//DTD SVG 1.1//EN"
  "http://www.w3.org/Graphics/SVG/1.1/DTD/svg11.dtd">
<svg xmlns:xlink="http://www.w3.org/1999/xlink" width="1080pt" height="576pt" viewBox="0 0 1080 576" xmlns="http://www.w3.org/2000/svg" version="1.1">
 <metadata>
  <rdf:RDF xmlns:dc="http://purl.org/dc/elements/1.1/" xmlns:cc="http://creativecommons.org/ns#" xmlns:rdf="http://www.w3.org/1999/02/22-rdf-syntax-ns#">
   <cc:Work>
    <dc:type rdf:resource="http://purl.org/dc/dcmitype/StillImage"/>
    <dc:date>2024-06-28T14:56:36.670903</dc:date>
    <dc:format>image/svg+xml</dc:format>
    <dc:creator>
     <cc:Agent>
      <dc:title>Matplotlib v3.9.0, https://matplotlib.org/</dc:title>
     </cc:Agent>
    </dc:creator>
   </cc:Work>
  </rdf:RDF>
 </metadata>
 <defs>
  <style type="text/css">*{stroke-linejoin: round; stroke-linecap: butt}</style>
 </defs>
 <g id="figure_1">
  <g id="patch_1">
   <path d="M 0 576 
L 1080 576 
L 1080 0 
L 0 0 
z
" style="fill: #ffffff"/>
  </g>
  <g id="axes_1">
   <g id="patch_2">
    <path d="M 41.730582 521.153031 
L 935.517672 521.153031 
L 935.517672 51.564121 
L 41.730582 51.564121 
z
" style="fill: #eaeaf2"/>
   </g>
   <g id="matplotlib.axis_1">
    <g id="xtick_1">
     <g id="line2d_1">
      <path d="M 41.730582 521.153031 
L 41.730582 51.564121 
" clip-path="url(#pab97290e04)" style="fill: none; stroke: #ffffff; stroke-linecap: round"/>
     </g>
     <g id="line2d_2"/>
     <g id="text_1">
      <!-- $\mathdefault{0.00}$ -->
      <g style="fill: #262626" transform="translate(29.591047 537.838907) scale(0.14 -0.14)">
       <defs>
        <path id="CMR17-30" d="M 2688 2025 
C 2688 2416 2682 3080 2413 3591 
C 2176 4039 1798 4198 1466 4198 
C 1158 4198 768 4058 525 3597 
C 269 3118 243 2524 243 2025 
C 243 1661 250 1106 448 619 
C 723 -39 1216 -128 1466 -128 
C 1760 -128 2208 -7 2470 600 
C 2662 1042 2688 1559 2688 2025 
z
M 1466 -26 
C 1056 -26 813 325 723 812 
C 653 1188 653 1738 653 2096 
C 653 2588 653 2997 736 3387 
C 858 3929 1216 4096 1466 4096 
C 1728 4096 2067 3923 2189 3400 
C 2272 3036 2278 2607 2278 2096 
C 2278 1680 2278 1169 2202 792 
C 2067 95 1690 -26 1466 -26 
z
" transform="scale(0.015625)"/>
        <path id="CMMI12-3a" d="M 1178 307 
C 1178 492 1024 619 870 619 
C 685 619 557 466 557 313 
C 557 128 710 0 864 0 
C 1050 0 1178 153 1178 307 
z
" transform="scale(0.015625)"/>
       </defs>
       <use xlink:href="#CMR17-30" transform="scale(0.996264)"/>
       <use xlink:href="#CMMI12-3a" transform="translate(45.690477 0) scale(0.996264)"/>
       <use xlink:href="#CMR17-30" transform="translate(72.787654 0) scale(0.996264)"/>
       <use xlink:href="#CMR17-30" transform="translate(118.478131 0) scale(0.996264)"/>
      </g>
     </g>
    </g>
    <g id="xtick_2">
     <g id="line2d_3">
      <path d="M 148.133807 521.153031 
L 148.133807 51.564121 
" clip-path="url(#pab97290e04)" style="fill: none; stroke: #ffffff; stroke-linecap: round"/>
     </g>
     <g id="line2d_4"/>
     <g id="text_2">
      <!-- $\mathdefault{0.25}$ -->
      <g style="fill: #262626" transform="translate(135.994272 537.838907) scale(0.14 -0.14)">
       <defs>
        <path id="CMR17-32" d="M 2669 989 
L 2554 989 
C 2490 536 2438 459 2413 420 
C 2381 369 1920 369 1830 369 
L 602 369 
C 832 619 1280 1072 1824 1597 
C 2214 1967 2669 2402 2669 3035 
C 2669 3790 2067 4224 1395 4224 
C 691 4224 262 3604 262 3030 
C 262 2780 448 2748 525 2748 
C 589 2748 781 2787 781 3010 
C 781 3207 614 3264 525 3264 
C 486 3264 448 3258 422 3245 
C 544 3790 915 4058 1306 4058 
C 1862 4058 2227 3617 2227 3035 
C 2227 2479 1901 2000 1536 1584 
L 262 146 
L 262 0 
L 2515 0 
L 2669 989 
z
" transform="scale(0.015625)"/>
        <path id="CMR17-35" d="M 730 3692 
C 794 3666 1056 3584 1325 3584 
C 1920 3584 2246 3911 2432 4100 
C 2432 4157 2432 4192 2394 4192 
C 2387 4192 2374 4192 2323 4163 
C 2099 4058 1837 3973 1517 3973 
C 1325 3973 1037 3999 723 4139 
C 653 4171 640 4171 634 4171 
C 602 4171 595 4164 595 4037 
L 595 2203 
C 595 2089 595 2057 659 2057 
C 691 2057 704 2070 736 2114 
C 941 2401 1222 2522 1542 2522 
C 1766 2522 2246 2382 2246 1289 
C 2246 1085 2246 715 2054 421 
C 1894 159 1645 25 1370 25 
C 947 25 518 320 403 814 
C 429 807 480 795 506 795 
C 589 795 749 840 749 1038 
C 749 1210 627 1280 506 1280 
C 358 1280 262 1190 262 1011 
C 262 454 704 -128 1382 -128 
C 2042 -128 2669 440 2669 1264 
C 2669 2030 2170 2624 1549 2624 
C 1222 2624 947 2503 730 2274 
L 730 3692 
z
" transform="scale(0.015625)"/>
       </defs>
       <use xlink:href="#CMR17-30" transform="scale(0.996264)"/>
       <use xlink:href="#CMMI12-3a" transform="translate(45.690477 0) scale(0.996264)"/>
       <use xlink:href="#CMR17-32" transform="translate(72.787654 0) scale(0.996264)"/>
       <use xlink:href="#CMR17-35" transform="translate(118.478131 0) scale(0.996264)"/>
      </g>
     </g>
    </g>
    <g id="xtick_3">
     <g id="line2d_5">
      <path d="M 254.537032 521.153031 
L 254.537032 51.564121 
" clip-path="url(#pab97290e04)" style="fill: none; stroke: #ffffff; stroke-linecap: round"/>
     </g>
     <g id="line2d_6"/>
     <g id="text_3">
      <!-- $\mathdefault{0.50}$ -->
      <g style="fill: #262626" transform="translate(242.397497 537.838907) scale(0.14 -0.14)">
       <use xlink:href="#CMR17-30" transform="scale(0.996264)"/>
       <use xlink:href="#CMMI12-3a" transform="translate(45.690477 0) scale(0.996264)"/>
       <use xlink:href="#CMR17-35" transform="translate(72.787654 0) scale(0.996264)"/>
       <use xlink:href="#CMR17-30" transform="translate(118.478131 0) scale(0.996264)"/>
      </g>
     </g>
    </g>
    <g id="xtick_4">
     <g id="line2d_7">
      <path d="M 360.940257 521.153031 
L 360.940257 51.564121 
" clip-path="url(#pab97290e04)" style="fill: none; stroke: #ffffff; stroke-linecap: round"/>
     </g>
     <g id="line2d_8"/>
     <g id="text_4">
      <!-- $\mathdefault{0.75}$ -->
      <g style="fill: #262626" transform="translate(348.800722 537.838907) scale(0.14 -0.14)">
       <defs>
        <path id="CMR17-37" d="M 2886 3941 
L 2886 4081 
L 1382 4081 
C 634 4081 621 4165 595 4288 
L 480 4288 
L 294 3094 
L 410 3094 
C 429 3215 474 3540 550 3661 
C 589 3712 1062 3712 1171 3712 
L 2579 3712 
L 1869 2661 
C 1395 1954 1069 999 1069 165 
C 1069 89 1069 -128 1299 -128 
C 1530 -128 1530 89 1530 171 
L 1530 465 
C 1530 1508 1709 2196 2003 2636 
L 2886 3941 
z
" transform="scale(0.015625)"/>
       </defs>
       <use xlink:href="#CMR17-30" transform="scale(0.996264)"/>
       <use xlink:href="#CMMI12-3a" transform="translate(45.690477 0) scale(0.996264)"/>
       <use xlink:href="#CMR17-37" transform="translate(72.787654 0) scale(0.996264)"/>
       <use xlink:href="#CMR17-35" transform="translate(118.478131 0) scale(0.996264)"/>
      </g>
     </g>
    </g>
    <g id="xtick_5">
     <g id="line2d_9">
      <path d="M 467.343482 521.153031 
L 467.343482 51.564121 
" clip-path="url(#pab97290e04)" style="fill: none; stroke: #ffffff; stroke-linecap: round"/>
     </g>
     <g id="line2d_10"/>
     <g id="text_5">
      <!-- $\mathdefault{1.00}$ -->
      <g style="fill: #262626" transform="translate(455.203947 537.838907) scale(0.14 -0.14)">
       <defs>
        <path id="CMR17-31" d="M 1702 4058 
C 1702 4192 1696 4192 1606 4192 
C 1357 3916 979 3827 621 3827 
C 602 3827 570 3827 563 3808 
C 557 3795 557 3782 557 3648 
C 755 3648 1088 3686 1344 3839 
L 1344 461 
C 1344 236 1331 160 781 160 
L 589 160 
L 589 0 
C 896 0 1216 0 1523 0 
C 1830 0 2150 0 2458 0 
L 2458 160 
L 2266 160 
C 1715 160 1702 230 1702 458 
L 1702 4058 
z
" transform="scale(0.015625)"/>
       </defs>
       <use xlink:href="#CMR17-31" transform="scale(0.996264)"/>
       <use xlink:href="#CMMI12-3a" transform="translate(45.690477 0) scale(0.996264)"/>
       <use xlink:href="#CMR17-30" transform="translate(72.787654 0) scale(0.996264)"/>
       <use xlink:href="#CMR17-30" transform="translate(118.478131 0) scale(0.996264)"/>
      </g>
     </g>
    </g>
    <g id="xtick_6">
     <g id="line2d_11">
      <path d="M 573.746707 521.153031 
L 573.746707 51.564121 
" clip-path="url(#pab97290e04)" style="fill: none; stroke: #ffffff; stroke-linecap: round"/>
     </g>
     <g id="line2d_12"/>
     <g id="text_6">
      <!-- $\mathdefault{1.25}$ -->
      <g style="fill: #262626" transform="translate(561.607172 537.838907) scale(0.14 -0.14)">
       <use xlink:href="#CMR17-31" transform="scale(0.996264)"/>
       <use xlink:href="#CMMI12-3a" transform="translate(45.690477 0) scale(0.996264)"/>
       <use xlink:href="#CMR17-32" transform="translate(72.787654 0) scale(0.996264)"/>
       <use xlink:href="#CMR17-35" transform="translate(118.478131 0) scale(0.996264)"/>
      </g>
     </g>
    </g>
    <g id="xtick_7">
     <g id="line2d_13">
      <path d="M 680.149932 521.153031 
L 680.149932 51.564121 
" clip-path="url(#pab97290e04)" style="fill: none; stroke: #ffffff; stroke-linecap: round"/>
     </g>
     <g id="line2d_14"/>
     <g id="text_7">
      <!-- $\mathdefault{1.50}$ -->
      <g style="fill: #262626" transform="translate(668.010397 537.838907) scale(0.14 -0.14)">
       <use xlink:href="#CMR17-31" transform="scale(0.996264)"/>
       <use xlink:href="#CMMI12-3a" transform="translate(45.690477 0) scale(0.996264)"/>
       <use xlink:href="#CMR17-35" transform="translate(72.787654 0) scale(0.996264)"/>
       <use xlink:href="#CMR17-30" transform="translate(118.478131 0) scale(0.996264)"/>
      </g>
     </g>
    </g>
    <g id="xtick_8">
     <g id="line2d_15">
      <path d="M 786.553157 521.153031 
L 786.553157 51.564121 
" clip-path="url(#pab97290e04)" style="fill: none; stroke: #ffffff; stroke-linecap: round"/>
     </g>
     <g id="line2d_16"/>
     <g id="text_8">
      <!-- $\mathdefault{1.75}$ -->
      <g style="fill: #262626" transform="translate(774.413622 537.838907) scale(0.14 -0.14)">
       <use xlink:href="#CMR17-31" transform="scale(0.996264)"/>
       <use xlink:href="#CMMI12-3a" transform="translate(45.690477 0) scale(0.996264)"/>
       <use xlink:href="#CMR17-37" transform="translate(72.787654 0) scale(0.996264)"/>
       <use xlink:href="#CMR17-35" transform="translate(118.478131 0) scale(0.996264)"/>
      </g>
     </g>
    </g>
    <g id="xtick_9">
     <g id="line2d_17">
      <path d="M 892.956382 521.153031 
L 892.956382 51.564121 
" clip-path="url(#pab97290e04)" style="fill: none; stroke: #ffffff; stroke-linecap: round"/>
     </g>
     <g id="line2d_18"/>
     <g id="text_9">
      <!-- $\mathdefault{2.00}$ -->
      <g style="fill: #262626" transform="translate(880.816846 537.838907) scale(0.14 -0.14)">
       <use xlink:href="#CMR17-32" transform="scale(0.996264)"/>
       <use xlink:href="#CMMI12-3a" transform="translate(45.690477 0) scale(0.996264)"/>
       <use xlink:href="#CMR17-30" transform="translate(72.787654 0) scale(0.996264)"/>
       <use xlink:href="#CMR17-30" transform="translate(118.478131 0) scale(0.996264)"/>
      </g>
     </g>
    </g>
    <g id="text_10">
     <!-- $x$ -->
     <g style="fill: #262626" transform="translate(484.189402 555.620524) scale(0.16 -0.16)">
      <defs>
       <path id="CMMI12-78" d="M 3034 2606 
C 2829 2567 2752 2414 2752 2293 
C 2752 2139 2874 2088 2963 2088 
C 3155 2088 3290 2254 3290 2427 
C 3290 2695 2982 2816 2714 2816 
C 2323 2816 2106 2433 2048 2312 
C 1901 2816 1504 2816 1389 2816 
C 736 2816 390 1980 390 1839 
C 390 1814 416 1782 461 1782 
C 512 1782 525 1820 538 1846 
C 755 2555 1184 2689 1370 2689 
C 1658 2689 1715 2420 1715 2267 
C 1715 2127 1677 1980 1600 1673 
L 1382 798 
C 1286 415 1101 64 762 64 
C 730 64 570 64 435 147 
C 666 192 717 383 717 460 
C 717 588 621 664 499 664 
C 346 664 179 530 179 326 
C 179 57 480 -64 755 -64 
C 1062 -64 1280 179 1414 441 
C 1517 64 1837 -64 2074 -64 
C 2726 -64 3072 773 3072 913 
C 3072 945 3046 971 3008 971 
C 2950 971 2944 939 2925 888 
C 2752 326 2381 64 2093 64 
C 1869 64 1747 230 1747 492 
C 1747 632 1773 734 1875 1156 
L 2099 2024 
C 2195 2408 2413 2689 2707 2689 
C 2720 2689 2899 2689 3034 2606 
z
" transform="scale(0.015625)"/>
      </defs>
      <use xlink:href="#CMMI12-78" transform="scale(0.996264)"/>
     </g>
    </g>
   </g>
   <g id="matplotlib.axis_2">
    <g id="ytick_1">
     <g id="line2d_19">
      <path d="M 41.730582 521.153031 
L 935.517672 521.153031 
" clip-path="url(#pab97290e04)" style="fill: none; stroke: #ffffff; stroke-linecap: round"/>
     </g>
     <g id="line2d_20"/>
     <g id="text_11">
      <!-- $\mathdefault{0.0}$ -->
      <g style="fill: #262626" transform="translate(17.28 525.995969) scale(0.14 -0.14)">
       <use xlink:href="#CMR17-30" transform="scale(0.996264)"/>
       <use xlink:href="#CMMI12-3a" transform="translate(45.690477 0) scale(0.996264)"/>
       <use xlink:href="#CMR17-30" transform="translate(72.787654 0) scale(0.996264)"/>
      </g>
     </g>
    </g>
    <g id="ytick_2">
     <g id="line2d_21">
      <path d="M 41.730582 431.705496 
L 935.517672 431.705496 
" clip-path="url(#pab97290e04)" style="fill: none; stroke: #ffffff; stroke-linecap: round"/>
     </g>
     <g id="line2d_22"/>
     <g id="text_12">
      <!-- $\mathdefault{0.2}$ -->
      <g style="fill: #262626" transform="translate(17.28 436.548434) scale(0.14 -0.14)">
       <use xlink:href="#CMR17-30" transform="scale(0.996264)"/>
       <use xlink:href="#CMMI12-3a" transform="translate(45.690477 0) scale(0.996264)"/>
       <use xlink:href="#CMR17-32" transform="translate(72.787654 0) scale(0.996264)"/>
      </g>
     </g>
    </g>
    <g id="ytick_3">
     <g id="line2d_23">
      <path d="M 41.730582 342.257962 
L 935.517672 342.257962 
" clip-path="url(#pab97290e04)" style="fill: none; stroke: #ffffff; stroke-linecap: round"/>
     </g>
     <g id="line2d_24"/>
     <g id="text_13">
      <!-- $\mathdefault{0.4}$ -->
      <g style="fill: #262626" transform="translate(17.28 347.1009) scale(0.14 -0.14)">
       <defs>
        <path id="CMR17-34" d="M 2150 4122 
C 2150 4256 2144 4256 2029 4256 
L 128 1254 
L 128 1088 
L 1779 1088 
L 1779 457 
C 1779 224 1766 160 1318 160 
L 1197 160 
L 1197 0 
C 1402 0 1747 0 1965 0 
C 2182 0 2528 0 2733 0 
L 2733 160 
L 2611 160 
C 2163 160 2150 224 2150 457 
L 2150 1088 
L 2803 1088 
L 2803 1254 
L 2150 1254 
L 2150 4122 
z
M 1798 3703 
L 1798 1254 
L 256 1254 
L 1798 3703 
z
" transform="scale(0.015625)"/>
       </defs>
       <use xlink:href="#CMR17-30" transform="scale(0.996264)"/>
       <use xlink:href="#CMMI12-3a" transform="translate(45.690477 0) scale(0.996264)"/>
       <use xlink:href="#CMR17-34" transform="translate(72.787654 0) scale(0.996264)"/>
      </g>
     </g>
    </g>
    <g id="ytick_4">
     <g id="line2d_25">
      <path d="M 41.730582 252.810427 
L 935.517672 252.810427 
" clip-path="url(#pab97290e04)" style="fill: none; stroke: #ffffff; stroke-linecap: round"/>
     </g>
     <g id="line2d_26"/>
     <g id="text_14">
      <!-- $\mathdefault{0.6}$ -->
      <g style="fill: #262626" transform="translate(17.28 257.653365) scale(0.14 -0.14)">
       <defs>
        <path id="CMR17-36" d="M 678 2176 
C 678 3690 1395 4032 1811 4032 
C 1946 4032 2272 4009 2400 3776 
C 2298 3776 2106 3776 2106 3553 
C 2106 3381 2246 3323 2336 3323 
C 2394 3323 2566 3348 2566 3560 
C 2566 3954 2246 4179 1805 4179 
C 1043 4179 243 3390 243 1984 
C 243 253 966 -128 1478 -128 
C 2099 -128 2688 427 2688 1283 
C 2688 2081 2170 2662 1517 2662 
C 1126 2662 838 2407 678 1960 
L 678 2176 
z
M 1478 25 
C 691 25 691 1200 691 1436 
C 691 1896 909 2560 1504 2560 
C 1613 2560 1926 2560 2138 2120 
C 2253 1870 2253 1609 2253 1289 
C 2253 944 2253 690 2118 434 
C 1978 171 1773 25 1478 25 
z
" transform="scale(0.015625)"/>
       </defs>
       <use xlink:href="#CMR17-30" transform="scale(0.996264)"/>
       <use xlink:href="#CMMI12-3a" transform="translate(45.690477 0) scale(0.996264)"/>
       <use xlink:href="#CMR17-36" transform="translate(72.787654 0) scale(0.996264)"/>
      </g>
     </g>
    </g>
    <g id="ytick_5">
     <g id="line2d_27">
      <path d="M 41.730582 163.362893 
L 935.517672 163.362893 
" clip-path="url(#pab97290e04)" style="fill: none; stroke: #ffffff; stroke-linecap: round"/>
     </g>
     <g id="line2d_28"/>
     <g id="text_15">
      <!-- $\mathdefault{0.8}$ -->
      <g style="fill: #262626" transform="translate(17.28 168.205831) scale(0.14 -0.14)">
       <defs>
        <path id="CMR17-38" d="M 1741 2264 
C 2144 2467 2554 2773 2554 3263 
C 2554 3841 1990 4179 1472 4179 
C 890 4179 378 3759 378 3180 
C 378 3021 416 2747 666 2505 
C 730 2442 998 2251 1171 2130 
C 883 1983 211 1634 211 934 
C 211 279 838 -128 1459 -128 
C 2144 -128 2720 362 2720 1010 
C 2720 1590 2330 1857 2074 2029 
L 1741 2264 
z
M 902 2822 
C 851 2854 595 3051 595 3351 
C 595 3739 998 4032 1459 4032 
C 1965 4032 2336 3676 2336 3262 
C 2336 2669 1670 2331 1638 2331 
C 1632 2331 1626 2331 1574 2370 
L 902 2822 
z
M 2080 1519 
C 2176 1449 2483 1240 2483 851 
C 2483 381 2010 25 1472 25 
C 890 25 448 438 448 940 
C 448 1443 838 1862 1280 2060 
L 2080 1519 
z
" transform="scale(0.015625)"/>
       </defs>
       <use xlink:href="#CMR17-30" transform="scale(0.996264)"/>
       <use xlink:href="#CMMI12-3a" transform="translate(45.690477 0) scale(0.996264)"/>
       <use xlink:href="#CMR17-38" transform="translate(72.787654 0) scale(0.996264)"/>
      </g>
     </g>
    </g>
    <g id="ytick_6">
     <g id="line2d_29">
      <path d="M 41.730582 73.915358 
L 935.517672 73.915358 
" clip-path="url(#pab97290e04)" style="fill: none; stroke: #ffffff; stroke-linecap: round"/>
     </g>
     <g id="line2d_30"/>
     <g id="text_16">
      <!-- $\mathdefault{1.0}$ -->
      <g style="fill: #262626" transform="translate(17.28 78.758296) scale(0.14 -0.14)">
       <use xlink:href="#CMR17-31" transform="scale(0.996264)"/>
       <use xlink:href="#CMMI12-3a" transform="translate(45.690477 0) scale(0.996264)"/>
       <use xlink:href="#CMR17-30" transform="translate(72.787654 0) scale(0.996264)"/>
      </g>
     </g>
    </g>
   </g>
   <g id="line2d_31">
    <path d="M 41.730582 73.915358 
L 50.24284 73.915358 
L 58.755098 73.915358 
L 67.267356 73.915358 
L 75.779614 73.915358 
L 84.291872 73.915358 
L 92.80413 73.915358 
L 101.316388 73.915358 
L 109.828646 73.915358 
L 118.340904 73.915358 
L 126.853162 73.915358 
L 135.36542 73.915358 
L 143.877678 73.915358 
L 152.389936 73.915358 
L 160.902194 73.915358 
L 169.414452 73.915358 
L 177.92671 73.915358 
L 186.438968 73.915358 
L 194.951226 73.915358 
L 203.463484 73.915358 
L 211.975742 73.915358 
L 220.488 73.915358 
L 229.000258 73.915358 
L 237.512516 73.915358 
L 246.024774 73.915358 
L 254.537032 73.915358 
L 263.04929 73.915358 
L 271.561548 73.915358 
L 280.073806 73.915358 
L 288.586064 73.915358 
L 297.098322 73.915358 
L 305.61058 73.915358 
L 314.122838 73.915358 
L 322.635096 73.915358 
L 331.147354 73.915358 
L 339.659612 73.915358 
L 348.17187 73.915358 
L 356.684128 73.915358 
L 365.196386 73.915358 
L 373.708644 73.915358 
L 382.220902 73.915358 
L 390.73316 73.915358 
L 399.245418 73.915358 
L 407.757676 73.915358 
L 416.269934 73.915358 
L 424.782192 73.915358 
L 433.29445 73.915358 
L 441.806708 73.915358 
L 450.318966 73.915358 
L 458.831224 73.915358 
L 467.343482 73.915358 
L 475.85574 73.915358 
L 484.367998 73.915358 
L 492.880256 73.915358 
L 501.392514 73.915358 
L 509.904772 73.915358 
L 518.41703 73.915358 
L 526.929288 73.915358 
L 535.441546 73.915358 
L 543.953804 73.915358 
L 552.466062 73.915358 
L 560.97832 73.915358 
L 569.490578 73.915358 
L 578.002836 73.915358 
L 586.515094 73.915358 
L 595.027352 73.915358 
L 603.53961 73.915358 
L 612.051868 73.915358 
L 620.564126 73.915358 
L 629.076384 73.915358 
L 637.588642 73.915358 
L 646.1009 73.915358 
L 654.613158 73.915358 
L 663.125416 73.915358 
L 671.637674 73.915358 
L 680.149932 73.915358 
L 688.66219 73.915358 
L 697.174448 73.915358 
L 705.686706 73.915358 
L 714.198964 73.915358 
L 722.711222 73.915358 
L 731.22348 73.915358 
L 739.735738 73.915358 
L 748.247996 73.915358 
L 756.760254 73.915358 
L 765.272512 73.915358 
L 773.78477 73.915358 
L 782.297028 73.915358 
L 790.809286 73.915358 
L 799.321544 73.915358 
L 807.833802 73.915358 
L 816.34606 73.915358 
L 824.858318 73.915358 
L 833.370576 73.915358 
L 841.882834 73.915358 
L 850.395092 73.915358 
L 858.90735 73.915358 
L 867.419608 73.915358 
L 875.931866 73.915358 
L 884.444124 73.915358 
L 892.956382 73.915358 
" clip-path="url(#pab97290e04)" style="fill: none; stroke: #393b79; stroke-width: 2; stroke-linecap: round"/>
   </g>
   <g id="line2d_32">
    <path d="M 41.730582 149.099704 
L 50.24284 149.099704 
L 58.755098 149.099704 
L 67.267356 149.099704 
L 75.779614 149.099704 
L 84.291872 149.099704 
L 92.80413 149.099704 
L 101.316388 149.099704 
L 109.828646 149.099704 
L 118.340904 149.099704 
L 126.853162 149.099704 
L 135.36542 149.099704 
L 143.877678 149.099704 
L 152.389936 149.099704 
L 160.902194 149.099704 
L 169.414452 149.099704 
L 177.92671 149.099704 
L 186.438968 149.099704 
L 194.951226 149.099704 
L 203.463484 149.099704 
L 211.975742 149.099704 
L 220.488 149.099704 
L 229.000258 149.099704 
L 237.512516 149.099704 
L 246.024774 149.099704 
L 254.537032 149.099704 
L 263.04929 149.099704 
L 271.561548 149.099704 
L 280.073806 149.099704 
L 288.586064 149.099704 
L 297.098322 149.099704 
L 305.61058 149.099704 
L 314.122838 149.099704 
L 322.635096 149.099704 
L 331.147354 149.099704 
L 339.659612 149.099704 
L 348.17187 149.099704 
L 356.684128 149.099704 
L 365.196386 149.099704 
L 373.708644 149.099704 
L 382.220902 149.099704 
L 390.73316 149.099704 
L 399.245418 149.099704 
L 407.757676 149.099704 
L 416.269934 149.099704 
L 424.782192 149.099704 
L 433.29445 149.099704 
L 441.806708 149.099704 
L 450.318966 149.099704 
L 458.831224 149.099704 
L 467.343482 149.099704 
L 475.85574 149.099704 
L 484.367998 149.099704 
L 492.880256 149.099704 
L 501.392514 149.099704 
L 509.904772 149.099704 
L 518.41703 149.099704 
L 526.929288 149.099704 
L 535.441546 149.099704 
L 543.953804 149.099704 
L 552.466062 149.099704 
L 560.97832 149.099704 
L 569.490578 149.099704 
L 578.002836 149.099704 
L 586.515094 149.099704 
L 595.027352 149.099704 
L 603.53961 149.099704 
L 612.051868 149.099704 
L 620.564126 149.099704 
L 629.076384 149.099704 
L 637.588642 149.099704 
L 646.1009 149.099704 
L 654.613158 149.099704 
L 663.125416 149.099704 
L 671.637674 149.099704 
L 680.149932 149.099704 
L 688.66219 149.099704 
L 697.174448 149.099704 
L 705.686706 149.099704 
L 714.198964 149.099704 
L 722.711222 149.099704 
L 731.22348 149.099704 
L 739.735738 149.099704 
L 748.247996 149.099704 
L 756.760254 149.099704 
L 765.272512 149.099704 
L 773.78477 149.099704 
L 782.297028 149.099704 
L 790.809286 149.099704 
L 799.321544 149.099704 
L 807.833802 149.099704 
L 816.34606 149.099704 
L 824.858318 149.099704 
L 833.370576 149.099704 
L 841.882834 149.099704 
L 850.395092 149.099704 
L 858.90735 149.099704 
L 867.419608 149.099704 
L 875.931866 149.099704 
L 884.444124 149.099704 
L 892.956382 149.099704 
" clip-path="url(#pab97290e04)" style="fill: none; stroke: #6b6ecf; stroke-width: 2; stroke-linecap: round"/>
   </g>
   <g id="line2d_33">
    <path d="M 41.730582 327.047367 
L 50.24284 327.047367 
L 58.755098 327.047367 
L 67.267356 327.047367 
L 75.779614 327.047367 
L 84.291872 327.047367 
L 92.80413 327.047367 
L 101.316388 327.047367 
L 109.828646 327.047367 
L 118.340904 327.047367 
L 126.853162 327.047367 
L 135.36542 327.047367 
L 143.877678 327.047367 
L 152.389936 327.047367 
L 160.902194 327.047367 
L 169.414452 327.047367 
L 177.92671 327.047367 
L 186.438968 327.047367 
L 194.951226 327.047367 
L 203.463484 327.047367 
L 211.975742 327.047367 
L 220.488 327.047367 
L 229.000258 327.047367 
L 237.512516 327.047367 
L 246.024774 327.047367 
L 254.537032 327.047367 
L 263.04929 327.047367 
L 271.561548 327.047367 
L 280.073806 327.047367 
L 288.586064 327.047367 
L 297.098322 327.047367 
L 305.61058 327.047367 
L 314.122838 327.047367 
L 322.635096 327.047367 
L 331.147354 327.047367 
L 339.659612 327.047367 
L 348.17187 327.047367 
L 356.684128 327.047367 
L 365.196386 327.047367 
L 373.708644 327.047367 
L 382.220902 327.047367 
L 390.73316 327.047367 
L 399.245418 327.047367 
L 407.757676 327.047367 
L 416.269934 327.047367 
L 424.782192 327.047367 
L 433.29445 327.047367 
L 441.806708 327.047367 
L 450.318966 327.047367 
L 458.831224 327.047367 
L 467.343482 327.047367 
L 475.85574 327.047367 
L 484.367998 327.047367 
L 492.880256 327.047367 
L 501.392514 327.047367 
L 509.904772 327.047367 
L 518.41703 327.047367 
L 526.929288 327.047367 
L 535.441546 327.047367 
L 543.953804 327.047367 
L 552.466062 327.047367 
L 560.97832 327.047367 
L 569.490578 327.047367 
L 578.002836 327.047367 
L 586.515094 327.047367 
L 595.027352 327.047367 
L 603.53961 327.047367 
L 612.051868 327.047367 
L 620.564126 327.047367 
L 629.076384 327.047367 
L 637.588642 327.047367 
L 646.1009 327.047367 
L 654.613158 327.047367 
L 663.125416 327.047367 
L 671.637674 327.047367 
L 680.149932 327.047367 
L 688.66219 327.047367 
L 697.174448 327.047367 
L 705.686706 327.047367 
L 714.198964 327.047367 
L 722.711222 327.047367 
L 731.22348 327.047367 
L 739.735738 327.047367 
L 748.247996 327.047367 
L 756.760254 327.047367 
L 765.272512 327.047367 
L 773.78477 327.047367 
L 782.297028 327.047367 
L 790.809286 327.047367 
L 799.321544 327.047367 
L 807.833802 327.047367 
L 816.34606 327.047367 
L 824.858318 327.047367 
L 833.370576 327.047367 
L 841.882834 327.047367 
L 850.395092 327.047367 
L 858.90735 327.047367 
L 867.419608 327.047367 
L 875.931866 327.047367 
L 884.444124 327.047367 
L 892.956382 327.047367 
" clip-path="url(#pab97290e04)" style="fill: none; stroke: #637939; stroke-width: 2; stroke-linecap: round"/>
   </g>
   <g id="line2d_34">
    <path d="M 41.730582 423.545646 
L 50.24284 423.545646 
L 58.755098 423.545646 
L 67.267356 423.545646 
L 75.779614 423.545646 
L 84.291872 423.545646 
L 92.80413 423.545646 
L 101.316388 423.545646 
L 109.828646 423.545646 
L 118.340904 423.545646 
L 126.853162 423.545646 
L 135.36542 423.545646 
L 143.877678 423.545646 
L 152.389936 423.545646 
L 160.902194 423.545646 
L 169.414452 423.545646 
L 177.92671 423.545646 
L 186.438968 423.545646 
L 194.951226 423.545646 
L 203.463484 423.545646 
L 211.975742 423.545646 
L 220.488 423.545646 
L 229.000258 423.545646 
L 237.512516 423.545646 
L 246.024774 423.545646 
L 254.537032 423.545646 
L 263.04929 423.545646 
L 271.561548 423.545646 
L 280.073806 423.545646 
L 288.586064 423.545646 
L 297.098322 423.545646 
L 305.61058 423.545646 
L 314.122838 423.545646 
L 322.635096 423.545646 
L 331.147354 423.545646 
L 339.659612 423.545646 
L 348.17187 423.545646 
L 356.684128 423.545646 
L 365.196386 423.545646 
L 373.708644 423.545646 
L 382.220902 423.545646 
L 390.73316 423.545646 
L 399.245418 423.545646 
L 407.757676 423.545646 
L 416.269934 423.545646 
L 424.782192 423.545646 
L 433.29445 423.545646 
L 441.806708 423.545646 
L 450.318966 423.545646 
L 458.831224 423.545646 
L 467.343482 423.545646 
L 475.85574 423.545646 
L 484.367998 423.545646 
L 492.880256 423.545646 
L 501.392514 423.545646 
L 509.904772 423.545646 
L 518.41703 423.545646 
L 526.929288 423.545646 
L 535.441546 423.545646 
L 543.953804 423.545646 
L 552.466062 423.545646 
L 560.97832 423.545646 
L 569.490578 423.545646 
L 578.002836 423.545646 
L 586.515094 423.545646 
L 595.027352 423.545646 
L 603.53961 423.545646 
L 612.051868 423.545646 
L 620.564126 423.545646 
L 629.076384 423.545646 
L 637.588642 423.545646 
L 646.1009 423.545646 
L 654.613158 423.545646 
L 663.125416 423.545646 
L 671.637674 423.545646 
L 680.149932 423.545646 
L 688.66219 423.545646 
L 697.174448 423.545646 
L 705.686706 423.545646 
L 714.198964 423.545646 
L 722.711222 423.545646 
L 731.22348 423.545646 
L 739.735738 423.545646 
L 748.247996 423.545646 
L 756.760254 423.545646 
L 765.272512 423.545646 
L 773.78477 423.545646 
L 782.297028 423.545646 
L 790.809286 423.545646 
L 799.321544 423.545646 
L 807.833802 423.545646 
L 816.34606 423.545646 
L 824.858318 423.545646 
L 833.370576 423.545646 
L 841.882834 423.545646 
L 850.395092 423.545646 
L 858.90735 423.545646 
L 867.419608 423.545646 
L 875.931866 423.545646 
L 884.444124 423.545646 
L 892.956382 423.545646 
" clip-path="url(#pab97290e04)" style="fill: none; stroke: #b5cf6b; stroke-width: 2; stroke-linecap: round"/>
   </g>
   <g id="line2d_35">
    <path d="M 41.730582 506.672141 
L 50.24284 506.672141 
L 58.755098 506.672141 
L 67.267356 506.672141 
L 75.779614 506.672141 
L 84.291872 506.672141 
L 92.80413 506.672141 
L 101.316388 506.672141 
L 109.828646 506.672141 
L 118.340904 506.672141 
L 126.853162 506.672141 
L 135.36542 506.672141 
L 143.877678 506.672141 
L 152.389936 506.672141 
L 160.902194 506.672141 
L 169.414452 506.672141 
L 177.92671 506.672141 
L 186.438968 506.672141 
L 194.951226 506.672141 
L 203.463484 506.672141 
L 211.975742 506.672141 
L 220.488 506.672141 
L 229.000258 506.672141 
L 237.512516 506.672141 
L 246.024774 506.672141 
L 254.537032 506.672141 
L 263.04929 506.672141 
L 271.561548 506.672141 
L 280.073806 506.672141 
L 288.586064 506.672141 
L 297.098322 506.672141 
L 305.61058 506.672141 
L 314.122838 506.672141 
L 322.635096 506.672141 
L 331.147354 506.672141 
L 339.659612 506.672141 
L 348.17187 506.672141 
L 356.684128 506.672141 
L 365.196386 506.672141 
L 373.708644 506.672141 
L 382.220902 506.672141 
L 390.73316 506.672141 
L 399.245418 506.672141 
L 407.757676 506.672141 
L 416.269934 506.672141 
L 424.782192 506.672141 
L 433.29445 506.672141 
L 441.806708 506.672141 
L 450.318966 506.672141 
L 458.831224 506.672141 
L 467.343482 506.672141 
L 475.85574 506.672141 
L 484.367998 506.672141 
L 492.880256 506.672141 
L 501.392514 506.672141 
L 509.904772 506.672141 
L 518.41703 506.672141 
L 526.929288 506.672141 
L 535.441546 506.672141 
L 543.953804 506.672141 
L 552.466062 506.672141 
L 560.97832 506.672141 
L 569.490578 506.672141 
L 578.002836 506.672141 
L 586.515094 506.672141 
L 595.027352 506.672141 
L 603.53961 506.672141 
L 612.051868 506.672141 
L 620.564126 506.672141 
L 629.076384 506.672141 
L 637.588642 506.672141 
L 646.1009 506.672141 
L 654.613158 506.672141 
L 663.125416 506.672141 
L 671.637674 506.672141 
L 680.149932 506.672141 
L 688.66219 506.672141 
L 697.174448 506.672141 
L 705.686706 506.672141 
L 714.198964 506.672141 
L 722.711222 506.672141 
L 731.22348 506.672141 
L 739.735738 506.672141 
L 748.247996 506.672141 
L 756.760254 506.672141 
L 765.272512 506.672141 
L 773.78477 506.672141 
L 782.297028 506.672141 
L 790.809286 506.672141 
L 799.321544 506.672141 
L 807.833802 506.672141 
L 816.34606 506.672141 
L 824.858318 506.672141 
L 833.370576 506.672141 
L 841.882834 506.672141 
L 850.395092 506.672141 
L 858.90735 506.672141 
L 867.419608 506.672141 
L 875.931866 506.672141 
L 884.444124 506.672141 
L 892.956382 506.672141 
" clip-path="url(#pab97290e04)" style="fill: none; stroke: #8c6d31; stroke-width: 2; stroke-linecap: round"/>
   </g>
   <g id="line2d_36">
    <path d="M 41.730582 519.853257 
L 50.24284 519.853257 
L 58.755098 519.853257 
L 67.267356 519.853257 
L 75.779614 519.853257 
L 84.291872 519.853257 
L 92.80413 519.853257 
L 101.316388 519.853257 
L 109.828646 519.853257 
L 118.340904 519.853257 
L 126.853162 519.853257 
L 135.36542 519.853257 
L 143.877678 519.853257 
L 152.389936 519.853257 
L 160.902194 519.853257 
L 169.414452 519.853257 
L 177.92671 519.853257 
L 186.438968 519.853257 
L 194.951226 519.853257 
L 203.463484 519.853257 
L 211.975742 519.853257 
L 220.488 519.853257 
L 229.000258 519.853257 
L 237.512516 519.853257 
L 246.024774 519.853257 
L 254.537032 519.853257 
L 263.04929 519.853257 
L 271.561548 519.853257 
L 280.073806 519.853257 
L 288.586064 519.853257 
L 297.098322 519.853257 
L 305.61058 519.853257 
L 314.122838 519.853257 
L 322.635096 519.853257 
L 331.147354 519.853257 
L 339.659612 519.853257 
L 348.17187 519.853257 
L 356.684128 519.853257 
L 365.196386 519.853257 
L 373.708644 519.853257 
L 382.220902 519.853257 
L 390.73316 519.853257 
L 399.245418 519.853257 
L 407.757676 519.853257 
L 416.269934 519.853257 
L 424.782192 519.853257 
L 433.29445 519.853257 
L 441.806708 519.853257 
L 450.318966 519.853257 
L 458.831224 519.853257 
L 467.343482 519.853257 
L 475.85574 519.853257 
L 484.367998 519.853257 
L 492.880256 519.853257 
L 501.392514 519.853257 
L 509.904772 519.853257 
L 518.41703 519.853257 
L 526.929288 519.853257 
L 535.441546 519.853257 
L 543.953804 519.853257 
L 552.466062 519.853257 
L 560.97832 519.853257 
L 569.490578 519.853257 
L 578.002836 519.853257 
L 586.515094 519.853257 
L 595.027352 519.853257 
L 603.53961 519.853257 
L 612.051868 519.853257 
L 620.564126 519.853257 
L 629.076384 519.853257 
L 637.588642 519.853257 
L 646.1009 519.853257 
L 654.613158 519.853257 
L 663.125416 519.853257 
L 671.637674 519.853257 
L 680.149932 519.853257 
L 688.66219 519.853257 
L 697.174448 519.853257 
L 705.686706 519.853257 
L 714.198964 519.853257 
L 722.711222 519.853257 
L 731.22348 519.853257 
L 739.735738 519.853257 
L 748.247996 519.853257 
L 756.760254 519.853257 
L 765.272512 519.853257 
L 773.78477 519.853257 
L 782.297028 519.853257 
L 790.809286 519.853257 
L 799.321544 519.853257 
L 807.833802 519.853257 
L 816.34606 519.853257 
L 824.858318 519.853257 
L 833.370576 519.853257 
L 841.882834 519.853257 
L 850.395092 519.853257 
L 858.90735 519.853257 
L 867.419608 519.853257 
L 875.931866 519.853257 
L 884.444124 519.853257 
L 892.956382 519.853257 
" clip-path="url(#pab97290e04)" style="fill: none; stroke: #e7cb94; stroke-width: 2; stroke-linecap: round"/>
   </g>
   <g id="line2d_37">
    <path d="M 41.730582 520.57196 
L 50.24284 520.57196 
L 58.755098 520.57196 
L 67.267356 520.57196 
L 75.779614 520.57196 
L 84.291872 520.57196 
L 92.80413 520.57196 
L 101.316388 520.57196 
L 109.828646 520.57196 
L 118.340904 520.57196 
L 126.853162 520.57196 
L 135.36542 520.57196 
L 143.877678 520.57196 
L 152.389936 520.57196 
L 160.902194 520.57196 
L 169.414452 520.57196 
L 177.92671 520.57196 
L 186.438968 520.57196 
L 194.951226 520.57196 
L 203.463484 520.57196 
L 211.975742 520.57196 
L 220.488 520.57196 
L 229.000258 520.57196 
L 237.512516 520.57196 
L 246.024774 520.57196 
L 254.537032 520.57196 
L 263.04929 520.57196 
L 271.561548 520.57196 
L 280.073806 520.57196 
L 288.586064 520.57196 
L 297.098322 520.57196 
L 305.61058 520.57196 
L 314.122838 520.57196 
L 322.635096 520.57196 
L 331.147354 520.57196 
L 339.659612 520.57196 
L 348.17187 520.57196 
L 356.684128 520.57196 
L 365.196386 520.57196 
L 373.708644 520.57196 
L 382.220902 520.57196 
L 390.73316 520.57196 
L 399.245418 520.57196 
L 407.757676 520.57196 
L 416.269934 520.57196 
L 424.782192 520.57196 
L 433.29445 520.57196 
L 441.806708 520.57196 
L 450.318966 520.57196 
L 458.831224 520.57196 
L 467.343482 520.57196 
L 475.85574 520.57196 
L 484.367998 520.57196 
L 492.880256 520.57196 
L 501.392514 520.57196 
L 509.904772 520.57196 
L 518.41703 520.57196 
L 526.929288 520.57196 
L 535.441546 520.57196 
L 543.953804 520.57196 
L 552.466062 520.57196 
L 560.97832 520.57196 
L 569.490578 520.57196 
L 578.002836 520.57196 
L 586.515094 520.57196 
L 595.027352 520.57196 
L 603.53961 520.57196 
L 612.051868 520.57196 
L 620.564126 520.57196 
L 629.076384 520.57196 
L 637.588642 520.57196 
L 646.1009 520.57196 
L 654.613158 520.57196 
L 663.125416 520.57196 
L 671.637674 520.57196 
L 680.149932 520.57196 
L 688.66219 520.57196 
L 697.174448 520.57196 
L 705.686706 520.57196 
L 714.198964 520.57196 
L 722.711222 520.57196 
L 731.22348 520.57196 
L 739.735738 520.57196 
L 748.247996 520.57196 
L 756.760254 520.57196 
L 765.272512 520.57196 
L 773.78477 520.57196 
L 782.297028 520.57196 
L 790.809286 520.57196 
L 799.321544 520.57196 
L 807.833802 520.57196 
L 816.34606 520.57196 
L 824.858318 520.57196 
L 833.370576 520.57196 
L 841.882834 520.57196 
L 850.395092 520.57196 
L 858.90735 520.57196 
L 867.419608 520.57196 
L 875.931866 520.57196 
L 884.444124 520.57196 
L 892.956382 520.57196 
" clip-path="url(#pab97290e04)" style="fill: none; stroke: #ad494a; stroke-width: 2; stroke-linecap: round"/>
   </g>
   <g id="line2d_38">
    <path d="M 41.730582 520.783076 
L 50.24284 520.783076 
L 58.755098 520.783076 
L 67.267356 520.783076 
L 75.779614 520.783076 
L 84.291872 520.783076 
L 92.80413 520.783076 
L 101.316388 520.783076 
L 109.828646 520.783076 
L 118.340904 520.783076 
L 126.853162 520.783076 
L 135.36542 520.783076 
L 143.877678 520.783076 
L 152.389936 520.783076 
L 160.902194 520.783076 
L 169.414452 520.783076 
L 177.92671 520.783076 
L 186.438968 520.783076 
L 194.951226 520.783076 
L 203.463484 520.783076 
L 211.975742 520.783076 
L 220.488 520.783076 
L 229.000258 520.783076 
L 237.512516 520.783076 
L 246.024774 520.783076 
L 254.537032 520.783076 
L 263.04929 520.783076 
L 271.561548 520.783076 
L 280.073806 520.783076 
L 288.586064 520.783076 
L 297.098322 520.783076 
L 305.61058 520.783076 
L 314.122838 520.783076 
L 322.635096 520.783076 
L 331.147354 520.783076 
L 339.659612 520.783076 
L 348.17187 520.783076 
L 356.684128 520.783076 
L 365.196386 520.783076 
L 373.708644 520.783076 
L 382.220902 520.783076 
L 390.73316 520.783076 
L 399.245418 520.783076 
L 407.757676 520.783076 
L 416.269934 520.783076 
L 424.782192 520.783076 
L 433.29445 520.783076 
L 441.806708 520.783076 
L 450.318966 520.783076 
L 458.831224 520.783076 
L 467.343482 520.783076 
L 475.85574 520.783076 
L 484.367998 520.783076 
L 492.880256 520.783076 
L 501.392514 520.783076 
L 509.904772 520.783076 
L 518.41703 520.783076 
L 526.929288 520.783076 
L 535.441546 520.783076 
L 543.953804 520.783076 
L 552.466062 520.783076 
L 560.97832 520.783076 
L 569.490578 520.783076 
L 578.002836 520.783076 
L 586.515094 520.783076 
L 595.027352 520.783076 
L 603.53961 520.783076 
L 612.051868 520.783076 
L 620.564126 520.783076 
L 629.076384 520.783076 
L 637.588642 520.783076 
L 646.1009 520.783076 
L 654.613158 520.783076 
L 663.125416 520.783076 
L 671.637674 520.783076 
L 680.149932 520.783076 
L 688.66219 520.783076 
L 697.174448 520.783076 
L 705.686706 520.783076 
L 714.198964 520.783076 
L 722.711222 520.783076 
L 731.22348 520.783076 
L 739.735738 520.783076 
L 748.247996 520.783076 
L 756.760254 520.783076 
L 765.272512 520.783076 
L 773.78477 520.783076 
L 782.297028 520.783076 
L 790.809286 520.783076 
L 799.321544 520.783076 
L 807.833802 520.783076 
L 816.34606 520.783076 
L 824.858318 520.783076 
L 833.370576 520.783076 
L 841.882834 520.783076 
L 850.395092 520.783076 
L 858.90735 520.783076 
L 867.419608 520.783076 
L 875.931866 520.783076 
L 884.444124 520.783076 
L 892.956382 520.783076 
" clip-path="url(#pab97290e04)" style="fill: none; stroke: #e7969c; stroke-width: 2; stroke-linecap: round"/>
   </g>
   <g id="line2d_39">
    <path d="M 41.730582 520.882566 
L 50.24284 520.882566 
L 58.755098 520.882566 
L 67.267356 520.882566 
L 75.779614 520.882566 
L 84.291872 520.882566 
L 92.80413 520.882566 
L 101.316388 520.882566 
L 109.828646 520.882566 
L 118.340904 520.882566 
L 126.853162 520.882566 
L 135.36542 520.882566 
L 143.877678 520.882566 
L 152.389936 520.882566 
L 160.902194 520.882566 
L 169.414452 520.882566 
L 177.92671 520.882566 
L 186.438968 520.882566 
L 194.951226 520.882566 
L 203.463484 520.882566 
L 211.975742 520.882566 
L 220.488 520.882566 
L 229.000258 520.882566 
L 237.512516 520.882566 
L 246.024774 520.882566 
L 254.537032 520.882566 
L 263.04929 520.882566 
L 271.561548 520.882566 
L 280.073806 520.882566 
L 288.586064 520.882566 
L 297.098322 520.882566 
L 305.61058 520.882566 
L 314.122838 520.882566 
L 322.635096 520.882566 
L 331.147354 520.882566 
L 339.659612 520.882566 
L 348.17187 520.882566 
L 356.684128 520.882566 
L 365.196386 520.882566 
L 373.708644 520.882566 
L 382.220902 520.882566 
L 390.73316 520.882566 
L 399.245418 520.882566 
L 407.757676 520.882566 
L 416.269934 520.882566 
L 424.782192 520.882566 
L 433.29445 520.882566 
L 441.806708 520.882566 
L 450.318966 520.882566 
L 458.831224 520.882566 
L 467.343482 520.882566 
L 475.85574 520.882566 
L 484.367998 520.882566 
L 492.880256 520.882566 
L 501.392514 520.882566 
L 509.904772 520.882566 
L 518.41703 520.882566 
L 526.929288 520.882566 
L 535.441546 520.882566 
L 543.953804 520.882566 
L 552.466062 520.882566 
L 560.97832 520.882566 
L 569.490578 520.882566 
L 578.002836 520.882566 
L 586.515094 520.882566 
L 595.027352 520.882566 
L 603.53961 520.882566 
L 612.051868 520.882566 
L 620.564126 520.882566 
L 629.076384 520.882566 
L 637.588642 520.882566 
L 646.1009 520.882566 
L 654.613158 520.882566 
L 663.125416 520.882566 
L 671.637674 520.882566 
L 680.149932 520.882566 
L 688.66219 520.882566 
L 697.174448 520.882566 
L 705.686706 520.882566 
L 714.198964 520.882566 
L 722.711222 520.882566 
L 731.22348 520.882566 
L 739.735738 520.882566 
L 748.247996 520.882566 
L 756.760254 520.882566 
L 765.272512 520.882566 
L 773.78477 520.882566 
L 782.297028 520.882566 
L 790.809286 520.882566 
L 799.321544 520.882566 
L 807.833802 520.882566 
L 816.34606 520.882566 
L 824.858318 520.882566 
L 833.370576 520.882566 
L 841.882834 520.882566 
L 850.395092 520.882566 
L 858.90735 520.882566 
L 867.419608 520.882566 
L 875.931866 520.882566 
L 884.444124 520.882566 
L 892.956382 520.882566 
" clip-path="url(#pab97290e04)" style="fill: none; stroke: #a55194; stroke-width: 2; stroke-linecap: round"/>
   </g>
   <g id="line2d_40">
    <path d="M 41.730582 520.940103 
L 50.24284 520.940103 
L 58.755098 520.940103 
L 67.267356 520.940103 
L 75.779614 520.940103 
L 84.291872 520.940103 
L 92.80413 520.940103 
L 101.316388 520.940103 
L 109.828646 520.940103 
L 118.340904 520.940103 
L 126.853162 520.940103 
L 135.36542 520.940103 
L 143.877678 520.940103 
L 152.389936 520.940103 
L 160.902194 520.940103 
L 169.414452 520.940103 
L 177.92671 520.940103 
L 186.438968 520.940103 
L 194.951226 520.940103 
L 203.463484 520.940103 
L 211.975742 520.940103 
L 220.488 520.940103 
L 229.000258 520.940103 
L 237.512516 520.940103 
L 246.024774 520.940103 
L 254.537032 520.940103 
L 263.04929 520.940103 
L 271.561548 520.940103 
L 280.073806 520.940103 
L 288.586064 520.940103 
L 297.098322 520.940103 
L 305.61058 520.940103 
L 314.122838 520.940103 
L 322.635096 520.940103 
L 331.147354 520.940103 
L 339.659612 520.940103 
L 348.17187 520.940103 
L 356.684128 520.940103 
L 365.196386 520.940103 
L 373.708644 520.940103 
L 382.220902 520.940103 
L 390.73316 520.940103 
L 399.245418 520.940103 
L 407.757676 520.940103 
L 416.269934 520.940103 
L 424.782192 520.940103 
L 433.29445 520.940103 
L 441.806708 520.940103 
L 450.318966 520.940103 
L 458.831224 520.940103 
L 467.343482 520.940103 
L 475.85574 520.940103 
L 484.367998 520.940103 
L 492.880256 520.940103 
L 501.392514 520.940103 
L 509.904772 520.940103 
L 518.41703 520.940103 
L 526.929288 520.940103 
L 535.441546 520.940103 
L 543.953804 520.940103 
L 552.466062 520.940103 
L 560.97832 520.940103 
L 569.490578 520.940103 
L 578.002836 520.940103 
L 586.515094 520.940103 
L 595.027352 520.940103 
L 603.53961 520.940103 
L 612.051868 520.940103 
L 620.564126 520.940103 
L 629.076384 520.940103 
L 637.588642 520.940103 
L 646.1009 520.940103 
L 654.613158 520.940103 
L 663.125416 520.940103 
L 671.637674 520.940103 
L 680.149932 520.940103 
L 688.66219 520.940103 
L 697.174448 520.940103 
L 705.686706 520.940103 
L 714.198964 520.940103 
L 722.711222 520.940103 
L 731.22348 520.940103 
L 739.735738 520.940103 
L 748.247996 520.940103 
L 756.760254 520.940103 
L 765.272512 520.940103 
L 773.78477 520.940103 
L 782.297028 520.940103 
L 790.809286 520.940103 
L 799.321544 520.940103 
L 807.833802 520.940103 
L 816.34606 520.940103 
L 824.858318 520.940103 
L 833.370576 520.940103 
L 841.882834 520.940103 
L 850.395092 520.940103 
L 858.90735 520.940103 
L 867.419608 520.940103 
L 875.931866 520.940103 
L 884.444124 520.940103 
L 892.956382 520.940103 
" clip-path="url(#pab97290e04)" style="fill: none; stroke: #de9ed6; stroke-width: 2; stroke-linecap: round"/>
   </g>
   <g id="patch_3">
    <path d="M 41.730582 521.153031 
L 41.730582 51.564121 
" style="fill: none"/>
   </g>
   <g id="patch_4">
    <path d="M 935.517672 521.153031 
L 935.517672 51.564121 
" style="fill: none"/>
   </g>
   <g id="patch_5">
    <path d="M 41.730582 521.153031 
L 935.517672 521.153031 
" style="fill: none"/>
   </g>
   <g id="patch_6">
    <path d="M 41.730582 51.564121 
L 935.517672 51.564121 
" style="fill: none"/>
   </g>
   <g id="patch_7">
    <path d="M 467.343482 84.859143 
Q 467.343482 295.189798 467.343482 503.843402 
" style="fill: none; stroke: #000000; stroke-width: 1.5; stroke-linecap: round"/>
    <path d="M 470.543482 497.443402 
L 467.343482 503.843402 
L 464.143482 497.443402 
" style="fill: none; stroke: #000000; stroke-width: 1.5; stroke-linecap: round"/>
   </g>
   <g id="text_17">
    <!-- Time -->
    <g style="fill: #262626" transform="translate(488.624127 504.034909) scale(0.18 -0.18)">
     <defs>
      <path id="CMR17-54" d="M 3981 4326 
L 288 4326 
L 179 2918 
L 294 2918 
C 378 3976 467 4160 1453 4160 
C 1568 4160 1754 4160 1805 4154 
C 1926 4135 1926 4058 1926 3912 
L 1926 459 
C 1926 230 1907 160 1376 160 
L 1197 160 
L 1197 0 
C 1504 0 1824 0 2138 0 
C 2451 0 2771 0 3078 0 
L 3078 160 
L 2899 160 
C 2368 160 2349 230 2349 459 
L 2349 3912 
C 2349 4052 2349 4129 2464 4154 
C 2515 4160 2701 4160 2816 4160 
C 3795 4160 3891 3976 3974 2918 
L 4090 2918 
L 3981 4326 
z
" transform="scale(0.015625)"/>
      <path id="CMR17-69" d="M 992 3909 
C 992 4049 877 4170 730 4170 
C 589 4170 467 4056 467 3909 
C 467 3769 582 3648 730 3648 
C 870 3648 992 3763 992 3909 
z
M 243 2706 
L 243 2541 
C 602 2541 653 2502 653 2197 
L 653 427 
C 653 184 627 153 218 153 
L 218 -13 
C 371 0 646 0 806 0 
C 960 0 1222 0 1370 -13 
L 1370 153 
C 992 153 979 191 979 420 
L 979 2776 
L 243 2706 
z
" transform="scale(0.015625)"/>
      <path id="CMR17-6d" d="M 4326 1933 
C 4326 2252 4269 2790 3507 2790 
C 3072 2790 2771 2496 2656 2151 
L 2650 2151 
C 2573 2676 2195 2790 1837 2790 
C 1331 2790 1069 2400 973 2144 
L 966 2144 
L 966 2790 
L 211 2720 
L 211 2554 
C 589 2554 646 2515 646 2208 
L 646 428 
C 646 184 621 153 211 153 
L 211 -13 
C 365 0 646 0 813 0 
C 979 0 1267 0 1421 -13 
L 1421 153 
C 1011 153 986 178 986 428 
L 986 1658 
C 986 2247 1344 2688 1792 2688 
C 2266 2688 2317 2266 2317 1958 
L 2317 428 
C 2317 184 2291 153 1882 153 
L 1882 -13 
C 2035 0 2317 0 2483 0 
C 2650 0 2938 0 3091 -13 
L 3091 153 
C 2682 153 2656 178 2656 428 
L 2656 1658 
C 2656 2247 3014 2688 3462 2688 
C 3936 2688 3987 2266 3987 1958 
L 3987 428 
C 3987 184 3962 153 3552 153 
L 3552 -13 
C 3706 0 3987 0 4154 0 
C 4320 0 4608 0 4762 -13 
L 4762 153 
C 4352 153 4326 178 4326 428 
L 4326 1933 
z
" transform="scale(0.015625)"/>
      <path id="CMR17-65" d="M 2438 1472 
C 2464 1498 2464 1511 2464 1576 
C 2464 2238 2118 2816 1389 2816 
C 710 2816 173 2169 173 1383 
C 173 551 781 -64 1459 -64 
C 2176 -64 2458 607 2458 740 
C 2458 784 2419 784 2406 784 
C 2362 784 2355 771 2330 696 
C 2189 265 1837 51 1504 51 
C 1229 51 954 203 781 480 
C 582 803 582 1176 582 1472 
L 2438 1472 
z
M 589 1568 
C 634 2505 1126 2714 1382 2714 
C 1818 2714 2112 2297 2118 1568 
L 589 1568 
z
" transform="scale(0.015625)"/>
     </defs>
     <use xlink:href="#CMR17-54" transform="scale(0.996264)"/>
     <use xlink:href="#CMR17-69" transform="translate(66.509881 0) scale(0.996264)"/>
     <use xlink:href="#CMR17-6d" transform="translate(91.380939 0) scale(0.996264)"/>
     <use xlink:href="#CMR17-65" transform="translate(168.300529 0) scale(0.996264)"/>
    </g>
   </g>
   <g id="legend_1">
    <g id="line2d_41">
     <path d="M 948.117672 197.198434 
L 962.117672 197.198434 
L 976.117672 197.198434 
" style="fill: none; stroke: #393b79; stroke-width: 2; stroke-linecap: round"/>
    </g>
    <g id="text_18">
     <!-- t = 0.00 -->
     <g style="fill: #262626" transform="translate(987.317672 202.098434) scale(0.14 -0.14)">
      <defs>
       <path id="CMR17-74" d="M 966 2560 
L 1862 2560 
L 1862 2725 
L 966 2725 
L 966 3904 
L 851 3904 
C 838 3245 614 2668 70 2668 
L 70 2560 
L 627 2560 
L 627 771 
C 627 650 627 -64 1370 -64 
C 1747 -64 1965 306 1965 777 
L 1965 1140 
L 1850 1140 
L 1850 783 
C 1850 344 1677 51 1408 51 
C 1222 51 966 178 966 758 
L 966 2560 
z
" transform="scale(0.015625)"/>
       <path id="CMR17-3d" d="M 4115 2017 
C 4211 2017 4307 2017 4307 2125 
C 4307 2240 4198 2240 4090 2240 
L 512 2240 
C 403 2240 294 2240 294 2125 
C 294 2017 390 2017 486 2017 
L 4115 2017 
z
M 4090 896 
C 4198 896 4307 896 4307 1011 
C 4307 1119 4211 1119 4115 1119 
L 486 1119 
C 390 1119 294 1119 294 1011 
C 294 896 403 896 512 896 
L 4090 896 
z
" transform="scale(0.015625)"/>
       <path id="CMR17-2e" d="M 1062 261 
C 1062 420 934 522 800 522 
C 672 522 538 420 538 261 
C 538 102 666 0 800 0 
C 928 0 1062 102 1062 261 
z
" transform="scale(0.015625)"/>
      </defs>
      <use xlink:href="#CMR17-74" transform="scale(0.996264)"/>
      <use xlink:href="#CMR17-3d" transform="translate(65.356734 0) scale(0.996264)"/>
      <use xlink:href="#CMR17-30" transform="translate(167.147489 0) scale(0.996264)"/>
      <use xlink:href="#CMR17-2e" transform="translate(212.837966 0) scale(0.996264)"/>
      <use xlink:href="#CMR17-30" transform="translate(237.709025 0) scale(0.996264)"/>
      <use xlink:href="#CMR17-30" transform="translate(283.399502 0) scale(0.996264)"/>
     </g>
    </g>
    <g id="line2d_42">
     <path d="M 948.117672 216.710462 
L 962.117672 216.710462 
L 976.117672 216.710462 
" style="fill: none; stroke: #6b6ecf; stroke-width: 2; stroke-linecap: round"/>
    </g>
    <g id="text_19">
     <!-- t = 10.00 -->
     <g style="fill: #262626" transform="translate(987.317672 221.610462) scale(0.14 -0.14)">
      <use xlink:href="#CMR17-74" transform="scale(0.996264)"/>
      <use xlink:href="#CMR17-3d" transform="translate(65.356734 0) scale(0.996264)"/>
      <use xlink:href="#CMR17-31" transform="translate(167.147489 0) scale(0.996264)"/>
      <use xlink:href="#CMR17-30" transform="translate(212.837966 0) scale(0.996264)"/>
      <use xlink:href="#CMR17-2e" transform="translate(258.528443 0) scale(0.996264)"/>
      <use xlink:href="#CMR17-30" transform="translate(283.399502 0) scale(0.996264)"/>
      <use xlink:href="#CMR17-30" transform="translate(329.089979 0) scale(0.996264)"/>
     </g>
    </g>
    <g id="line2d_43">
     <path d="M 948.117672 236.222491 
L 962.117672 236.222491 
L 976.117672 236.222491 
" style="fill: none; stroke: #637939; stroke-width: 2; stroke-linecap: round"/>
    </g>
    <g id="text_20">
     <!-- t = 50.00 -->
     <g style="fill: #262626" transform="translate(987.317672 241.122491) scale(0.14 -0.14)">
      <use xlink:href="#CMR17-74" transform="scale(0.996264)"/>
      <use xlink:href="#CMR17-3d" transform="translate(65.356734 0) scale(0.996264)"/>
      <use xlink:href="#CMR17-35" transform="translate(167.147489 0) scale(0.996264)"/>
      <use xlink:href="#CMR17-30" transform="translate(212.837966 0) scale(0.996264)"/>
      <use xlink:href="#CMR17-2e" transform="translate(258.528443 0) scale(0.996264)"/>
      <use xlink:href="#CMR17-30" transform="translate(283.399502 0) scale(0.996264)"/>
      <use xlink:href="#CMR17-30" transform="translate(329.089979 0) scale(0.996264)"/>
     </g>
    </g>
    <g id="line2d_44">
     <path d="M 948.117672 255.734519 
L 962.117672 255.734519 
L 976.117672 255.734519 
" style="fill: none; stroke: #b5cf6b; stroke-width: 2; stroke-linecap: round"/>
    </g>
    <g id="text_21">
     <!-- t = 100.00 -->
     <g style="fill: #262626" transform="translate(987.317672 260.634519) scale(0.14 -0.14)">
      <use xlink:href="#CMR17-74" transform="scale(0.996264)"/>
      <use xlink:href="#CMR17-3d" transform="translate(65.356734 0) scale(0.996264)"/>
      <use xlink:href="#CMR17-31" transform="translate(167.147489 0) scale(0.996264)"/>
      <use xlink:href="#CMR17-30" transform="translate(212.837966 0) scale(0.996264)"/>
      <use xlink:href="#CMR17-30" transform="translate(258.528443 0) scale(0.996264)"/>
      <use xlink:href="#CMR17-2e" transform="translate(304.21892 0) scale(0.996264)"/>
      <use xlink:href="#CMR17-30" transform="translate(329.089979 0) scale(0.996264)"/>
      <use xlink:href="#CMR17-30" transform="translate(374.780456 0) scale(0.996264)"/>
     </g>
    </g>
    <g id="line2d_45">
     <path d="M 948.117672 275.246547 
L 962.117672 275.246547 
L 976.117672 275.246547 
" style="fill: none; stroke: #8c6d31; stroke-width: 2; stroke-linecap: round"/>
    </g>
    <g id="text_22">
     <!-- t = 250.00 -->
     <g style="fill: #262626" transform="translate(987.317672 280.146547) scale(0.14 -0.14)">
      <use xlink:href="#CMR17-74" transform="scale(0.996264)"/>
      <use xlink:href="#CMR17-3d" transform="translate(65.356734 0) scale(0.996264)"/>
      <use xlink:href="#CMR17-32" transform="translate(167.147489 0) scale(0.996264)"/>
      <use xlink:href="#CMR17-35" transform="translate(212.837966 0) scale(0.996264)"/>
      <use xlink:href="#CMR17-30" transform="translate(258.528443 0) scale(0.996264)"/>
      <use xlink:href="#CMR17-2e" transform="translate(304.21892 0) scale(0.996264)"/>
      <use xlink:href="#CMR17-30" transform="translate(329.089979 0) scale(0.996264)"/>
      <use xlink:href="#CMR17-30" transform="translate(374.780456 0) scale(0.996264)"/>
     </g>
    </g>
    <g id="line2d_46">
     <path d="M 948.117672 294.758576 
L 962.117672 294.758576 
L 976.117672 294.758576 
" style="fill: none; stroke: #e7cb94; stroke-width: 2; stroke-linecap: round"/>
    </g>
    <g id="text_23">
     <!-- t = 500.00 -->
     <g style="fill: #262626" transform="translate(987.317672 299.658576) scale(0.14 -0.14)">
      <use xlink:href="#CMR17-74" transform="scale(0.996264)"/>
      <use xlink:href="#CMR17-3d" transform="translate(65.356734 0) scale(0.996264)"/>
      <use xlink:href="#CMR17-35" transform="translate(167.147489 0) scale(0.996264)"/>
      <use xlink:href="#CMR17-30" transform="translate(212.837966 0) scale(0.996264)"/>
      <use xlink:href="#CMR17-30" transform="translate(258.528443 0) scale(0.996264)"/>
      <use xlink:href="#CMR17-2e" transform="translate(304.21892 0) scale(0.996264)"/>
      <use xlink:href="#CMR17-30" transform="translate(329.089979 0) scale(0.996264)"/>
      <use xlink:href="#CMR17-30" transform="translate(374.780456 0) scale(0.996264)"/>
     </g>
    </g>
    <g id="line2d_47">
     <path d="M 948.117672 314.270604 
L 962.117672 314.270604 
L 976.117672 314.270604 
" style="fill: none; stroke: #ad494a; stroke-width: 2; stroke-linecap: round"/>
    </g>
    <g id="text_24">
     <!-- t = 750.00 -->
     <g style="fill: #262626" transform="translate(987.317672 319.170604) scale(0.14 -0.14)">
      <use xlink:href="#CMR17-74" transform="scale(0.996264)"/>
      <use xlink:href="#CMR17-3d" transform="translate(65.356734 0) scale(0.996264)"/>
      <use xlink:href="#CMR17-37" transform="translate(167.147489 0) scale(0.996264)"/>
      <use xlink:href="#CMR17-35" transform="translate(212.837966 0) scale(0.996264)"/>
      <use xlink:href="#CMR17-30" transform="translate(258.528443 0) scale(0.996264)"/>
      <use xlink:href="#CMR17-2e" transform="translate(304.21892 0) scale(0.996264)"/>
      <use xlink:href="#CMR17-30" transform="translate(329.089979 0) scale(0.996264)"/>
      <use xlink:href="#CMR17-30" transform="translate(374.780456 0) scale(0.996264)"/>
     </g>
    </g>
    <g id="line2d_48">
     <path d="M 948.117672 333.782633 
L 962.117672 333.782633 
L 976.117672 333.782633 
" style="fill: none; stroke: #e7969c; stroke-width: 2; stroke-linecap: round"/>
    </g>
    <g id="text_25">
     <!-- t = 1000.00 -->
     <g style="fill: #262626" transform="translate(987.317672 338.682633) scale(0.14 -0.14)">
      <use xlink:href="#CMR17-74" transform="scale(0.996264)"/>
      <use xlink:href="#CMR17-3d" transform="translate(65.356734 0) scale(0.996264)"/>
      <use xlink:href="#CMR17-31" transform="translate(167.147489 0) scale(0.996264)"/>
      <use xlink:href="#CMR17-30" transform="translate(212.837966 0) scale(0.996264)"/>
      <use xlink:href="#CMR17-30" transform="translate(258.528443 0) scale(0.996264)"/>
      <use xlink:href="#CMR17-30" transform="translate(304.21892 0) scale(0.996264)"/>
      <use xlink:href="#CMR17-2e" transform="translate(349.909397 0) scale(0.996264)"/>
      <use xlink:href="#CMR17-30" transform="translate(374.780456 0) scale(0.996264)"/>
      <use xlink:href="#CMR17-30" transform="translate(420.470933 0) scale(0.996264)"/>
     </g>
    </g>
    <g id="line2d_49">
     <path d="M 948.117672 353.294661 
L 962.117672 353.294661 
L 976.117672 353.294661 
" style="fill: none; stroke: #a55194; stroke-width: 2; stroke-linecap: round"/>
    </g>
    <g id="text_26">
     <!-- t = 1250.00 -->
     <g style="fill: #262626" transform="translate(987.317672 358.194661) scale(0.14 -0.14)">
      <use xlink:href="#CMR17-74" transform="scale(0.996264)"/>
      <use xlink:href="#CMR17-3d" transform="translate(65.356734 0) scale(0.996264)"/>
      <use xlink:href="#CMR17-31" transform="translate(167.147489 0) scale(0.996264)"/>
      <use xlink:href="#CMR17-32" transform="translate(212.837966 0) scale(0.996264)"/>
      <use xlink:href="#CMR17-35" transform="translate(258.528443 0) scale(0.996264)"/>
      <use xlink:href="#CMR17-30" transform="translate(304.21892 0) scale(0.996264)"/>
      <use xlink:href="#CMR17-2e" transform="translate(349.909397 0) scale(0.996264)"/>
      <use xlink:href="#CMR17-30" transform="translate(374.780456 0) scale(0.996264)"/>
      <use xlink:href="#CMR17-30" transform="translate(420.470933 0) scale(0.996264)"/>
     </g>
    </g>
    <g id="line2d_50">
     <path d="M 948.117672 372.806689 
L 962.117672 372.806689 
L 976.117672 372.806689 
" style="fill: none; stroke: #de9ed6; stroke-width: 2; stroke-linecap: round"/>
    </g>
    <g id="text_27">
     <!-- t = 1500.00 -->
     <g style="fill: #262626" transform="translate(987.317672 377.706689) scale(0.14 -0.14)">
      <use xlink:href="#CMR17-74" transform="scale(0.996264)"/>
      <use xlink:href="#CMR17-3d" transform="translate(65.356734 0) scale(0.996264)"/>
      <use xlink:href="#CMR17-31" transform="translate(167.147489 0) scale(0.996264)"/>
      <use xlink:href="#CMR17-35" transform="translate(212.837966 0) scale(0.996264)"/>
      <use xlink:href="#CMR17-30" transform="translate(258.528443 0) scale(0.996264)"/>
      <use xlink:href="#CMR17-30" transform="translate(304.21892 0) scale(0.996264)"/>
      <use xlink:href="#CMR17-2e" transform="translate(349.909397 0) scale(0.996264)"/>
      <use xlink:href="#CMR17-30" transform="translate(374.780456 0) scale(0.996264)"/>
      <use xlink:href="#CMR17-30" transform="translate(420.470933 0) scale(0.996264)"/>
     </g>
    </g>
   </g>
  </g>
  <g id="text_28">
   <!-- Reactivity -->
   <g style="fill: #262626" transform="translate(500.761015 24.803515) scale(0.192 -0.192)">
    <defs>
     <path id="CMR17-52" d="M 2509 2146 
C 3117 2268 3629 2676 3629 3186 
C 3629 3785 2950 4326 2054 4326 
L 333 4326 
L 333 4160 
C 774 4160 845 4160 845 3873 
L 845 415 
C 845 128 774 128 333 128 
L 333 -26 
C 518 -26 851 -26 1050 -26 
C 1248 -26 1581 -26 1766 -26 
L 1766 128 
C 1325 128 1254 128 1254 417 
L 1254 2112 
L 2003 2112 
C 2368 2112 2573 1964 2662 1881 
C 2918 1632 2918 1459 2918 1024 
C 2918 595 2918 377 3110 160 
C 3354 -102 3680 -128 3821 -128 
C 4294 -128 4365 396 4365 503 
C 4365 540 4365 585 4307 585 
C 4256 585 4250 547 4250 522 
C 4218 112 4032 -26 3834 -26 
C 3482 -26 3443 375 3405 764 
C 3386 898 3373 993 3360 1133 
C 3322 1452 3270 1917 2509 2146 
z
M 1984 2214 
L 1254 2214 
L 1254 3913 
C 1254 4129 1267 4160 1523 4160 
L 1990 4160 
C 2522 4160 3142 3977 3142 3190 
C 3142 2372 2464 2214 1984 2214 
z
" transform="scale(0.015625)"/>
     <path id="CMR17-61" d="M 2304 1653 
C 2304 2072 2304 2294 2035 2543 
C 1798 2752 1523 2816 1306 2816 
C 800 2816 435 2407 435 1971 
C 435 1728 627 1728 666 1728 
C 749 1728 896 1778 896 1954 
C 896 2112 774 2181 666 2181 
C 640 2181 608 2174 589 2168 
C 723 2592 1069 2714 1293 2714 
C 1613 2714 1965 2429 1965 1885 
L 1965 1600 
C 1587 1600 1133 1549 774 1357 
C 371 1133 256 813 256 570 
C 256 77 832 -64 1171 -64 
C 1523 -64 1850 139 1990 511 
C 2003 233 2182 -18 2464 -18 
C 2598 -18 2938 70 2938 567 
L 2938 920 
L 2822 920 
L 2822 562 
C 2822 178 2650 128 2566 128 
C 2304 128 2304 458 2304 738 
L 2304 1653 
z
M 1965 870 
C 1965 317 1568 38 1216 38 
C 896 38 646 275 646 570 
C 646 761 730 1100 1101 1305 
C 1408 1478 1760 1504 1965 1504 
L 1965 870 
z
" transform="scale(0.015625)"/>
     <path id="CMR17-63" d="M 2234 2240 
C 2112 2240 1933 2240 1933 2017 
C 1933 1838 2080 1787 2163 1787 
C 2208 1787 2394 1807 2394 2024 
C 2394 2467 1958 2803 1466 2803 
C 787 2803 211 2178 211 1363 
C 211 516 813 -64 1466 -64 
C 2259 -64 2458 677 2458 748 
C 2458 774 2451 793 2406 793 
C 2362 793 2355 787 2330 703 
C 2163 180 1798 51 1523 51 
C 1114 51 621 427 621 1369 
C 621 2338 1094 2688 1472 2688 
C 1722 2688 2093 2573 2234 2240 
z
" transform="scale(0.015625)"/>
     <path id="CMR17-76" d="M 2502 2163 
C 2560 2304 2662 2560 3034 2560 
L 3034 2726 
C 2912 2726 2752 2726 2630 2726 
C 2496 2726 2285 2726 2157 2732 
L 2157 2566 
C 2317 2553 2406 2477 2406 2311 
C 2406 2253 2406 2240 2368 2151 
L 1664 377 
L 902 2286 
C 864 2369 864 2381 864 2407 
C 864 2560 1075 2560 1171 2560 
L 1171 2732 
C 1018 2726 736 2726 576 2726 
C 403 2726 205 2726 64 2732 
L 64 2560 
C 307 2560 442 2560 518 2362 
L 1446 44 
C 1485 -51 1491 -64 1549 -64 
C 1606 -64 1613 -51 1651 44 
L 2502 2163 
z
" transform="scale(0.015625)"/>
     <path id="CMR17-79" d="M 2496 2197 
C 2656 2586 2944 2586 3034 2586 
L 3034 2752 
C 2912 2752 2752 2752 2630 2752 
C 2496 2752 2285 2752 2157 2758 
L 2157 2592 
C 2400 2573 2406 2394 2406 2343 
C 2406 2280 2394 2248 2362 2171 
L 1664 449 
L 902 2306 
C 870 2382 870 2426 870 2433 
C 870 2573 1018 2586 1171 2586 
L 1171 2758 
C 1018 2752 742 2752 582 2752 
C 410 2752 205 2752 64 2758 
L 64 2586 
C 410 2586 448 2554 531 2350 
L 1485 15 
C 1197 -738 1030 -1178 627 -1178 
C 557 -1178 397 -1159 282 -1044 
C 429 -1031 493 -942 493 -833 
C 493 -725 416 -629 288 -629 
C 147 -629 77 -725 77 -840 
C 77 -1095 339 -1280 627 -1280 
C 998 -1280 1229 -922 1357 -604 
L 2496 2197 
z
" transform="scale(0.015625)"/>
    </defs>
    <use xlink:href="#CMR17-52" transform="scale(0.996264)"/>
    <use xlink:href="#CMR17-65" transform="translate(67.791102 0) scale(0.996264)"/>
    <use xlink:href="#CMR17-61" transform="translate(108.276762 0) scale(0.996264)"/>
    <use xlink:href="#CMR17-63" transform="translate(153.96724 0) scale(0.996264)"/>
    <use xlink:href="#CMR17-74" transform="translate(194.4529 0) scale(0.996264)"/>
    <use xlink:href="#CMR17-69" transform="translate(229.733668 0) scale(0.996264)"/>
    <use xlink:href="#CMR17-76" transform="translate(254.604726 0) scale(0.996264)"/>
    <use xlink:href="#CMR17-69" transform="translate(302.897642 0) scale(0.996264)"/>
    <use xlink:href="#CMR17-74" transform="translate(327.768701 0) scale(0.996264)"/>
    <use xlink:href="#CMR17-79" transform="translate(360.447014 0) scale(0.996264)"/>
   </g>
  </g>
 </g>
 <defs>
  <clipPath id="pab97290e04">
   <rect x="41.730582" y="51.564121" width="893.78709" height="469.58891"/>
  </clipPath>
 </defs>
</svg>
