<?xml version="1.0" encoding="utf-8" standalone="no"?>
<!DOCTYPE svg PUBLIC "-//W3C//DTD SVG 1.1//EN"
  "http://www.w3.org/Graphics/SVG/1.1/DTD/svg11.dtd">
<svg xmlns:xlink="http://www.w3.org/1999/xlink" width="1080pt" height="576pt" viewBox="0 0 1080 576" xmlns="http://www.w3.org/2000/svg" version="1.1">
 <metadata>
  <rdf:RDF xmlns:dc="http://purl.org/dc/elements/1.1/" xmlns:cc="http://creativecommons.org/ns#" xmlns:rdf="http://www.w3.org/1999/02/22-rdf-syntax-ns#">
   <cc:Work>
    <dc:type rdf:resource="http://purl.org/dc/dcmitype/StillImage"/>
    <dc:date>2024-06-28T14:24:09.592567</dc:date>
    <dc:format>image/svg+xml</dc:format>
    <dc:creator>
     <cc:Agent>
      <dc:title>Matplotlib v3.9.0, https://matplotlib.org/</dc:title>
     </cc:Agent>
    </dc:creator>
   </cc:Work>
  </rdf:RDF>
 </metadata>
 <defs>
  <style type="text/css">*{stroke-linejoin: round; stroke-linecap: butt}</style>
 </defs>
 <g id="figure_1">
  <g id="patch_1">
   <path d="M 0 576 
L 1080 576 
L 1080 0 
L 0 0 
z
" style="fill: #ffffff"/>
  </g>
  <g id="axes_1">
   <g id="patch_2">
    <path d="M 41.730582 521.153031 
L 935.517672 521.153031 
L 935.517672 51.564121 
L 41.730582 51.564121 
z
" style="fill: #eaeaf2"/>
   </g>
   <g id="matplotlib.axis_1">
    <g id="xtick_1">
     <g id="line2d_1">
      <path d="M 41.730582 521.153031 
L 41.730582 51.564121 
" clip-path="url(#p39bf52db97)" style="fill: none; stroke: #ffffff; stroke-linecap: round"/>
     </g>
     <g id="line2d_2"/>
     <g id="text_1">
      <!-- $\mathdefault{0.00}$ -->
      <g style="fill: #262626" transform="translate(29.591047 537.838907) scale(0.14 -0.14)">
       <defs>
        <path id="CMR17-30" d="M 2688 2025 
C 2688 2416 2682 3080 2413 3591 
C 2176 4039 1798 4198 1466 4198 
C 1158 4198 768 4058 525 3597 
C 269 3118 243 2524 243 2025 
C 243 1661 250 1106 448 619 
C 723 -39 1216 -128 1466 -128 
C 1760 -128 2208 -7 2470 600 
C 2662 1042 2688 1559 2688 2025 
z
M 1466 -26 
C 1056 -26 813 325 723 812 
C 653 1188 653 1738 653 2096 
C 653 2588 653 2997 736 3387 
C 858 3929 1216 4096 1466 4096 
C 1728 4096 2067 3923 2189 3400 
C 2272 3036 2278 2607 2278 2096 
C 2278 1680 2278 1169 2202 792 
C 2067 95 1690 -26 1466 -26 
z
" transform="scale(0.015625)"/>
        <path id="CMMI12-3a" d="M 1178 307 
C 1178 492 1024 619 870 619 
C 685 619 557 466 557 313 
C 557 128 710 0 864 0 
C 1050 0 1178 153 1178 307 
z
" transform="scale(0.015625)"/>
       </defs>
       <use xlink:href="#CMR17-30" transform="scale(0.996264)"/>
       <use xlink:href="#CMMI12-3a" transform="translate(45.690477 0) scale(0.996264)"/>
       <use xlink:href="#CMR17-30" transform="translate(72.787654 0) scale(0.996264)"/>
       <use xlink:href="#CMR17-30" transform="translate(118.478131 0) scale(0.996264)"/>
      </g>
     </g>
    </g>
    <g id="xtick_2">
     <g id="line2d_3">
      <path d="M 148.133807 521.153031 
L 148.133807 51.564121 
" clip-path="url(#p39bf52db97)" style="fill: none; stroke: #ffffff; stroke-linecap: round"/>
     </g>
     <g id="line2d_4"/>
     <g id="text_2">
      <!-- $\mathdefault{0.25}$ -->
      <g style="fill: #262626" transform="translate(135.994272 537.838907) scale(0.14 -0.14)">
       <defs>
        <path id="CMR17-32" d="M 2669 989 
L 2554 989 
C 2490 536 2438 459 2413 420 
C 2381 369 1920 369 1830 369 
L 602 369 
C 832 619 1280 1072 1824 1597 
C 2214 1967 2669 2402 2669 3035 
C 2669 3790 2067 4224 1395 4224 
C 691 4224 262 3604 262 3030 
C 262 2780 448 2748 525 2748 
C 589 2748 781 2787 781 3010 
C 781 3207 614 3264 525 3264 
C 486 3264 448 3258 422 3245 
C 544 3790 915 4058 1306 4058 
C 1862 4058 2227 3617 2227 3035 
C 2227 2479 1901 2000 1536 1584 
L 262 146 
L 262 0 
L 2515 0 
L 2669 989 
z
" transform="scale(0.015625)"/>
        <path id="CMR17-35" d="M 730 3692 
C 794 3666 1056 3584 1325 3584 
C 1920 3584 2246 3911 2432 4100 
C 2432 4157 2432 4192 2394 4192 
C 2387 4192 2374 4192 2323 4163 
C 2099 4058 1837 3973 1517 3973 
C 1325 3973 1037 3999 723 4139 
C 653 4171 640 4171 634 4171 
C 602 4171 595 4164 595 4037 
L 595 2203 
C 595 2089 595 2057 659 2057 
C 691 2057 704 2070 736 2114 
C 941 2401 1222 2522 1542 2522 
C 1766 2522 2246 2382 2246 1289 
C 2246 1085 2246 715 2054 421 
C 1894 159 1645 25 1370 25 
C 947 25 518 320 403 814 
C 429 807 480 795 506 795 
C 589 795 749 840 749 1038 
C 749 1210 627 1280 506 1280 
C 358 1280 262 1190 262 1011 
C 262 454 704 -128 1382 -128 
C 2042 -128 2669 440 2669 1264 
C 2669 2030 2170 2624 1549 2624 
C 1222 2624 947 2503 730 2274 
L 730 3692 
z
" transform="scale(0.015625)"/>
       </defs>
       <use xlink:href="#CMR17-30" transform="scale(0.996264)"/>
       <use xlink:href="#CMMI12-3a" transform="translate(45.690477 0) scale(0.996264)"/>
       <use xlink:href="#CMR17-32" transform="translate(72.787654 0) scale(0.996264)"/>
       <use xlink:href="#CMR17-35" transform="translate(118.478131 0) scale(0.996264)"/>
      </g>
     </g>
    </g>
    <g id="xtick_3">
     <g id="line2d_5">
      <path d="M 254.537032 521.153031 
L 254.537032 51.564121 
" clip-path="url(#p39bf52db97)" style="fill: none; stroke: #ffffff; stroke-linecap: round"/>
     </g>
     <g id="line2d_6"/>
     <g id="text_3">
      <!-- $\mathdefault{0.50}$ -->
      <g style="fill: #262626" transform="translate(242.397497 537.838907) scale(0.14 -0.14)">
       <use xlink:href="#CMR17-30" transform="scale(0.996264)"/>
       <use xlink:href="#CMMI12-3a" transform="translate(45.690477 0) scale(0.996264)"/>
       <use xlink:href="#CMR17-35" transform="translate(72.787654 0) scale(0.996264)"/>
       <use xlink:href="#CMR17-30" transform="translate(118.478131 0) scale(0.996264)"/>
      </g>
     </g>
    </g>
    <g id="xtick_4">
     <g id="line2d_7">
      <path d="M 360.940257 521.153031 
L 360.940257 51.564121 
" clip-path="url(#p39bf52db97)" style="fill: none; stroke: #ffffff; stroke-linecap: round"/>
     </g>
     <g id="line2d_8"/>
     <g id="text_4">
      <!-- $\mathdefault{0.75}$ -->
      <g style="fill: #262626" transform="translate(348.800722 537.838907) scale(0.14 -0.14)">
       <defs>
        <path id="CMR17-37" d="M 2886 3941 
L 2886 4081 
L 1382 4081 
C 634 4081 621 4165 595 4288 
L 480 4288 
L 294 3094 
L 410 3094 
C 429 3215 474 3540 550 3661 
C 589 3712 1062 3712 1171 3712 
L 2579 3712 
L 1869 2661 
C 1395 1954 1069 999 1069 165 
C 1069 89 1069 -128 1299 -128 
C 1530 -128 1530 89 1530 171 
L 1530 465 
C 1530 1508 1709 2196 2003 2636 
L 2886 3941 
z
" transform="scale(0.015625)"/>
       </defs>
       <use xlink:href="#CMR17-30" transform="scale(0.996264)"/>
       <use xlink:href="#CMMI12-3a" transform="translate(45.690477 0) scale(0.996264)"/>
       <use xlink:href="#CMR17-37" transform="translate(72.787654 0) scale(0.996264)"/>
       <use xlink:href="#CMR17-35" transform="translate(118.478131 0) scale(0.996264)"/>
      </g>
     </g>
    </g>
    <g id="xtick_5">
     <g id="line2d_9">
      <path d="M 467.343482 521.153031 
L 467.343482 51.564121 
" clip-path="url(#p39bf52db97)" style="fill: none; stroke: #ffffff; stroke-linecap: round"/>
     </g>
     <g id="line2d_10"/>
     <g id="text_5">
      <!-- $\mathdefault{1.00}$ -->
      <g style="fill: #262626" transform="translate(455.203947 537.838907) scale(0.14 -0.14)">
       <defs>
        <path id="CMR17-31" d="M 1702 4058 
C 1702 4192 1696 4192 1606 4192 
C 1357 3916 979 3827 621 3827 
C 602 3827 570 3827 563 3808 
C 557 3795 557 3782 557 3648 
C 755 3648 1088 3686 1344 3839 
L 1344 461 
C 1344 236 1331 160 781 160 
L 589 160 
L 589 0 
C 896 0 1216 0 1523 0 
C 1830 0 2150 0 2458 0 
L 2458 160 
L 2266 160 
C 1715 160 1702 230 1702 458 
L 1702 4058 
z
" transform="scale(0.015625)"/>
       </defs>
       <use xlink:href="#CMR17-31" transform="scale(0.996264)"/>
       <use xlink:href="#CMMI12-3a" transform="translate(45.690477 0) scale(0.996264)"/>
       <use xlink:href="#CMR17-30" transform="translate(72.787654 0) scale(0.996264)"/>
       <use xlink:href="#CMR17-30" transform="translate(118.478131 0) scale(0.996264)"/>
      </g>
     </g>
    </g>
    <g id="xtick_6">
     <g id="line2d_11">
      <path d="M 573.746707 521.153031 
L 573.746707 51.564121 
" clip-path="url(#p39bf52db97)" style="fill: none; stroke: #ffffff; stroke-linecap: round"/>
     </g>
     <g id="line2d_12"/>
     <g id="text_6">
      <!-- $\mathdefault{1.25}$ -->
      <g style="fill: #262626" transform="translate(561.607172 537.838907) scale(0.14 -0.14)">
       <use xlink:href="#CMR17-31" transform="scale(0.996264)"/>
       <use xlink:href="#CMMI12-3a" transform="translate(45.690477 0) scale(0.996264)"/>
       <use xlink:href="#CMR17-32" transform="translate(72.787654 0) scale(0.996264)"/>
       <use xlink:href="#CMR17-35" transform="translate(118.478131 0) scale(0.996264)"/>
      </g>
     </g>
    </g>
    <g id="xtick_7">
     <g id="line2d_13">
      <path d="M 680.149932 521.153031 
L 680.149932 51.564121 
" clip-path="url(#p39bf52db97)" style="fill: none; stroke: #ffffff; stroke-linecap: round"/>
     </g>
     <g id="line2d_14"/>
     <g id="text_7">
      <!-- $\mathdefault{1.50}$ -->
      <g style="fill: #262626" transform="translate(668.010397 537.838907) scale(0.14 -0.14)">
       <use xlink:href="#CMR17-31" transform="scale(0.996264)"/>
       <use xlink:href="#CMMI12-3a" transform="translate(45.690477 0) scale(0.996264)"/>
       <use xlink:href="#CMR17-35" transform="translate(72.787654 0) scale(0.996264)"/>
       <use xlink:href="#CMR17-30" transform="translate(118.478131 0) scale(0.996264)"/>
      </g>
     </g>
    </g>
    <g id="xtick_8">
     <g id="line2d_15">
      <path d="M 786.553157 521.153031 
L 786.553157 51.564121 
" clip-path="url(#p39bf52db97)" style="fill: none; stroke: #ffffff; stroke-linecap: round"/>
     </g>
     <g id="line2d_16"/>
     <g id="text_8">
      <!-- $\mathdefault{1.75}$ -->
      <g style="fill: #262626" transform="translate(774.413622 537.838907) scale(0.14 -0.14)">
       <use xlink:href="#CMR17-31" transform="scale(0.996264)"/>
       <use xlink:href="#CMMI12-3a" transform="translate(45.690477 0) scale(0.996264)"/>
       <use xlink:href="#CMR17-37" transform="translate(72.787654 0) scale(0.996264)"/>
       <use xlink:href="#CMR17-35" transform="translate(118.478131 0) scale(0.996264)"/>
      </g>
     </g>
    </g>
    <g id="xtick_9">
     <g id="line2d_17">
      <path d="M 892.956382 521.153031 
L 892.956382 51.564121 
" clip-path="url(#p39bf52db97)" style="fill: none; stroke: #ffffff; stroke-linecap: round"/>
     </g>
     <g id="line2d_18"/>
     <g id="text_9">
      <!-- $\mathdefault{2.00}$ -->
      <g style="fill: #262626" transform="translate(880.816846 537.838907) scale(0.14 -0.14)">
       <use xlink:href="#CMR17-32" transform="scale(0.996264)"/>
       <use xlink:href="#CMMI12-3a" transform="translate(45.690477 0) scale(0.996264)"/>
       <use xlink:href="#CMR17-30" transform="translate(72.787654 0) scale(0.996264)"/>
       <use xlink:href="#CMR17-30" transform="translate(118.478131 0) scale(0.996264)"/>
      </g>
     </g>
    </g>
    <g id="text_10">
     <!-- $x$ -->
     <g style="fill: #262626" transform="translate(484.189402 555.620524) scale(0.16 -0.16)">
      <defs>
       <path id="CMMI12-78" d="M 3034 2606 
C 2829 2567 2752 2414 2752 2293 
C 2752 2139 2874 2088 2963 2088 
C 3155 2088 3290 2254 3290 2427 
C 3290 2695 2982 2816 2714 2816 
C 2323 2816 2106 2433 2048 2312 
C 1901 2816 1504 2816 1389 2816 
C 736 2816 390 1980 390 1839 
C 390 1814 416 1782 461 1782 
C 512 1782 525 1820 538 1846 
C 755 2555 1184 2689 1370 2689 
C 1658 2689 1715 2420 1715 2267 
C 1715 2127 1677 1980 1600 1673 
L 1382 798 
C 1286 415 1101 64 762 64 
C 730 64 570 64 435 147 
C 666 192 717 383 717 460 
C 717 588 621 664 499 664 
C 346 664 179 530 179 326 
C 179 57 480 -64 755 -64 
C 1062 -64 1280 179 1414 441 
C 1517 64 1837 -64 2074 -64 
C 2726 -64 3072 773 3072 913 
C 3072 945 3046 971 3008 971 
C 2950 971 2944 939 2925 888 
C 2752 326 2381 64 2093 64 
C 1869 64 1747 230 1747 492 
C 1747 632 1773 734 1875 1156 
L 2099 2024 
C 2195 2408 2413 2689 2707 2689 
C 2720 2689 2899 2689 3034 2606 
z
" transform="scale(0.015625)"/>
      </defs>
      <use xlink:href="#CMMI12-78" transform="scale(0.996264)"/>
     </g>
    </g>
   </g>
   <g id="matplotlib.axis_2">
    <g id="ytick_1">
     <g id="line2d_19">
      <path d="M 41.730582 521.153031 
L 935.517672 521.153031 
" clip-path="url(#p39bf52db97)" style="fill: none; stroke: #ffffff; stroke-linecap: round"/>
     </g>
     <g id="line2d_20"/>
     <g id="text_11">
      <!-- $\mathdefault{0.0}$ -->
      <g style="fill: #262626" transform="translate(17.28 525.995969) scale(0.14 -0.14)">
       <use xlink:href="#CMR17-30" transform="scale(0.996264)"/>
       <use xlink:href="#CMMI12-3a" transform="translate(45.690477 0) scale(0.996264)"/>
       <use xlink:href="#CMR17-30" transform="translate(72.787654 0) scale(0.996264)"/>
      </g>
     </g>
    </g>
    <g id="ytick_2">
     <g id="line2d_21">
      <path d="M 41.730582 431.703817 
L 935.517672 431.703817 
" clip-path="url(#p39bf52db97)" style="fill: none; stroke: #ffffff; stroke-linecap: round"/>
     </g>
     <g id="line2d_22"/>
     <g id="text_12">
      <!-- $\mathdefault{0.1}$ -->
      <g style="fill: #262626" transform="translate(17.28 436.546755) scale(0.14 -0.14)">
       <use xlink:href="#CMR17-30" transform="scale(0.996264)"/>
       <use xlink:href="#CMMI12-3a" transform="translate(45.690477 0) scale(0.996264)"/>
       <use xlink:href="#CMR17-31" transform="translate(72.787654 0) scale(0.996264)"/>
      </g>
     </g>
    </g>
    <g id="ytick_3">
     <g id="line2d_23">
      <path d="M 41.730582 342.254604 
L 935.517672 342.254604 
" clip-path="url(#p39bf52db97)" style="fill: none; stroke: #ffffff; stroke-linecap: round"/>
     </g>
     <g id="line2d_24"/>
     <g id="text_13">
      <!-- $\mathdefault{0.2}$ -->
      <g style="fill: #262626" transform="translate(17.28 347.097542) scale(0.14 -0.14)">
       <use xlink:href="#CMR17-30" transform="scale(0.996264)"/>
       <use xlink:href="#CMMI12-3a" transform="translate(45.690477 0) scale(0.996264)"/>
       <use xlink:href="#CMR17-32" transform="translate(72.787654 0) scale(0.996264)"/>
      </g>
     </g>
    </g>
    <g id="ytick_4">
     <g id="line2d_25">
      <path d="M 41.730582 252.80539 
L 935.517672 252.80539 
" clip-path="url(#p39bf52db97)" style="fill: none; stroke: #ffffff; stroke-linecap: round"/>
     </g>
     <g id="line2d_26"/>
     <g id="text_14">
      <!-- $\mathdefault{0.3}$ -->
      <g style="fill: #262626" transform="translate(17.28 257.648328) scale(0.14 -0.14)">
       <defs>
        <path id="CMR17-33" d="M 1414 2157 
C 1984 2157 2234 1662 2234 1090 
C 2234 320 1824 25 1453 25 
C 1114 25 563 194 390 693 
C 422 680 454 680 486 680 
C 640 680 755 782 755 948 
C 755 1133 614 1216 486 1216 
C 378 1216 211 1165 211 926 
C 211 335 787 -128 1466 -128 
C 2176 -128 2720 430 2720 1085 
C 2720 1707 2208 2157 1600 2227 
C 2086 2328 2554 2756 2554 3329 
C 2554 3820 2048 4179 1472 4179 
C 890 4179 378 3829 378 3329 
C 378 3110 544 3072 627 3072 
C 762 3072 877 3155 877 3321 
C 877 3486 762 3569 627 3569 
C 602 3569 570 3569 544 3557 
C 730 3959 1235 4032 1459 4032 
C 1683 4032 2106 3925 2106 3320 
C 2106 3143 2080 2828 1862 2550 
C 1670 2304 1453 2304 1242 2284 
C 1210 2284 1062 2269 1037 2269 
C 992 2263 966 2257 966 2208 
C 966 2163 973 2157 1101 2157 
L 1414 2157 
z
" transform="scale(0.015625)"/>
       </defs>
       <use xlink:href="#CMR17-30" transform="scale(0.996264)"/>
       <use xlink:href="#CMMI12-3a" transform="translate(45.690477 0) scale(0.996264)"/>
       <use xlink:href="#CMR17-33" transform="translate(72.787654 0) scale(0.996264)"/>
      </g>
     </g>
    </g>
    <g id="ytick_5">
     <g id="line2d_27">
      <path d="M 41.730582 163.356177 
L 935.517672 163.356177 
" clip-path="url(#p39bf52db97)" style="fill: none; stroke: #ffffff; stroke-linecap: round"/>
     </g>
     <g id="line2d_28"/>
     <g id="text_15">
      <!-- $\mathdefault{0.4}$ -->
      <g style="fill: #262626" transform="translate(17.28 168.199115) scale(0.14 -0.14)">
       <defs>
        <path id="CMR17-34" d="M 2150 4122 
C 2150 4256 2144 4256 2029 4256 
L 128 1254 
L 128 1088 
L 1779 1088 
L 1779 457 
C 1779 224 1766 160 1318 160 
L 1197 160 
L 1197 0 
C 1402 0 1747 0 1965 0 
C 2182 0 2528 0 2733 0 
L 2733 160 
L 2611 160 
C 2163 160 2150 224 2150 457 
L 2150 1088 
L 2803 1088 
L 2803 1254 
L 2150 1254 
L 2150 4122 
z
M 1798 3703 
L 1798 1254 
L 256 1254 
L 1798 3703 
z
" transform="scale(0.015625)"/>
       </defs>
       <use xlink:href="#CMR17-30" transform="scale(0.996264)"/>
       <use xlink:href="#CMMI12-3a" transform="translate(45.690477 0) scale(0.996264)"/>
       <use xlink:href="#CMR17-34" transform="translate(72.787654 0) scale(0.996264)"/>
      </g>
     </g>
    </g>
    <g id="ytick_6">
     <g id="line2d_29">
      <path d="M 41.730582 73.906963 
L 935.517672 73.906963 
" clip-path="url(#p39bf52db97)" style="fill: none; stroke: #ffffff; stroke-linecap: round"/>
     </g>
     <g id="line2d_30"/>
     <g id="text_16">
      <!-- $\mathdefault{0.5}$ -->
      <g style="fill: #262626" transform="translate(17.28 78.749901) scale(0.14 -0.14)">
       <use xlink:href="#CMR17-30" transform="scale(0.996264)"/>
       <use xlink:href="#CMMI12-3a" transform="translate(45.690477 0) scale(0.996264)"/>
       <use xlink:href="#CMR17-35" transform="translate(72.787654 0) scale(0.996264)"/>
      </g>
     </g>
    </g>
   </g>
   <g id="line2d_31">
    <path d="M 41.730582 73.906963 
L 50.24284 73.906963 
L 58.755098 73.906963 
L 67.267356 73.906963 
L 75.779614 73.906963 
L 84.291872 73.906963 
L 92.80413 73.906963 
L 101.316388 73.906963 
L 109.828646 73.906963 
L 118.340904 73.906963 
L 126.853162 73.906963 
L 135.36542 73.906963 
L 143.877678 73.906963 
L 152.389936 73.906963 
L 160.902194 73.906963 
L 169.414452 73.906963 
L 177.92671 73.906963 
L 186.438968 73.906963 
L 194.951226 73.906963 
L 203.463484 73.906963 
L 211.975742 73.906963 
L 220.488 73.906963 
L 229.000258 73.906963 
L 237.512516 73.906963 
L 246.024774 73.906963 
L 254.537032 73.906963 
L 263.04929 73.906963 
L 271.561548 73.906963 
L 280.073806 73.906963 
L 288.586064 73.906963 
L 297.098322 73.906963 
L 305.61058 73.906963 
L 314.122838 73.906963 
L 322.635096 73.906963 
L 331.147354 73.906963 
L 339.659612 73.906963 
L 348.17187 73.906963 
L 356.684128 73.906963 
L 365.196386 73.906963 
L 373.708644 73.906963 
L 382.220902 73.906963 
L 390.73316 73.906963 
L 399.245418 73.906963 
L 407.757676 73.906963 
L 416.269934 73.906963 
L 424.782192 73.906963 
L 433.29445 73.906963 
L 441.806708 73.906963 
L 450.318966 73.906963 
L 458.831224 73.906963 
L 467.343482 73.906963 
L 475.85574 73.906963 
L 484.367998 73.906963 
L 492.880256 73.906963 
L 501.392514 73.906963 
L 509.904772 73.906963 
L 518.41703 73.906963 
L 526.929288 73.906963 
L 535.441546 73.906963 
L 543.953804 73.906963 
L 552.466062 73.906963 
L 560.97832 73.906963 
L 569.490578 73.906963 
L 578.002836 73.906963 
L 586.515094 73.906963 
L 595.027352 73.906963 
L 603.53961 73.906963 
L 612.051868 73.906963 
L 620.564126 73.906963 
L 629.076384 73.906963 
L 637.588642 73.906963 
L 646.1009 73.906963 
L 654.613158 73.906963 
L 663.125416 73.906963 
L 671.637674 73.906963 
L 680.149932 73.906963 
L 688.66219 73.906963 
L 697.174448 73.906963 
L 705.686706 73.906963 
L 714.198964 73.906963 
L 722.711222 73.906963 
L 731.22348 73.906963 
L 739.735738 73.906963 
L 748.247996 73.906963 
L 756.760254 73.906963 
L 765.272512 73.906963 
L 773.78477 73.906963 
L 782.297028 73.906963 
L 790.809286 73.906963 
L 799.321544 73.906963 
L 807.833802 73.906963 
L 816.34606 73.906963 
L 824.858318 73.906963 
L 833.370576 73.906963 
L 841.882834 73.906963 
L 850.395092 73.906963 
L 858.90735 73.906963 
L 867.419608 73.906963 
L 875.931866 73.906963 
L 884.444124 73.906963 
L 892.956382 73.906963 
" clip-path="url(#p39bf52db97)" style="fill: none; stroke: #393b79; stroke-width: 2; stroke-linecap: round"/>
   </g>
   <g id="line2d_32">
    <path d="M 41.730582 150.402748 
L 50.24284 150.402748 
L 58.755098 150.402748 
L 67.267356 150.402748 
L 75.779614 150.402748 
L 84.291872 150.402748 
L 92.80413 150.402748 
L 101.316388 150.402748 
L 109.828646 150.402748 
L 118.340904 150.402748 
L 126.853162 150.402748 
L 135.36542 150.402748 
L 143.877678 150.402748 
L 152.389936 150.402748 
L 160.902194 150.402748 
L 169.414452 150.402748 
L 177.92671 150.402748 
L 186.438968 150.402748 
L 194.951226 150.402748 
L 203.463484 150.402748 
L 211.975742 150.402748 
L 220.488 150.402748 
L 229.000258 150.402748 
L 237.512516 150.402748 
L 246.024774 150.402748 
L 254.537032 150.402748 
L 263.04929 150.402748 
L 271.561548 150.402748 
L 280.073806 150.402748 
L 288.586064 150.402748 
L 297.098322 150.402748 
L 305.61058 150.402748 
L 314.122838 150.402748 
L 322.635096 150.402748 
L 331.147354 150.402748 
L 339.659612 150.402748 
L 348.17187 150.402748 
L 356.684128 150.402748 
L 365.196386 150.402748 
L 373.708644 150.402748 
L 382.220902 150.402748 
L 390.73316 150.402748 
L 399.245418 150.402748 
L 407.757676 150.402748 
L 416.269934 150.402748 
L 424.782192 150.402748 
L 433.29445 150.402748 
L 441.806708 150.402748 
L 450.318966 150.402748 
L 458.831224 150.402748 
L 467.343482 150.402748 
L 475.85574 150.402748 
L 484.367998 150.402748 
L 492.880256 150.402748 
L 501.392514 150.402748 
L 509.904772 150.402748 
L 518.41703 150.402748 
L 526.929288 150.402748 
L 535.441546 150.402748 
L 543.953804 150.402748 
L 552.466062 150.402748 
L 560.97832 150.402748 
L 569.490578 150.402748 
L 578.002836 150.402748 
L 586.515094 150.402748 
L 595.027352 150.402748 
L 603.53961 150.402748 
L 612.051868 150.402748 
L 620.564126 150.402748 
L 629.076384 150.402748 
L 637.588642 150.402748 
L 646.1009 150.402748 
L 654.613158 150.402748 
L 663.125416 150.402748 
L 671.637674 150.402748 
L 680.149932 150.402748 
L 688.66219 150.402748 
L 697.174448 150.402748 
L 705.686706 150.402748 
L 714.198964 150.402748 
L 722.711222 150.402748 
L 731.22348 150.402748 
L 739.735738 150.402748 
L 748.247996 150.402748 
L 756.760254 150.402748 
L 765.272512 150.402748 
L 773.78477 150.402748 
L 782.297028 150.402748 
L 790.809286 150.402748 
L 799.321544 150.402748 
L 807.833802 150.402748 
L 816.34606 150.402748 
L 824.858318 150.402748 
L 833.370576 150.402748 
L 841.882834 150.402748 
L 850.395092 150.402748 
L 858.90735 150.402748 
L 867.419608 150.402748 
L 875.931866 150.402748 
L 884.444124 150.402748 
L 892.956382 150.402748 
" clip-path="url(#p39bf52db97)" style="fill: none; stroke: #6b6ecf; stroke-width: 2; stroke-linecap: round"/>
   </g>
   <g id="line2d_33">
    <path d="M 41.730582 324.223233 
L 50.24284 324.223233 
L 58.755098 324.223233 
L 67.267356 324.223233 
L 75.779614 324.223233 
L 84.291872 324.223233 
L 92.80413 324.223233 
L 101.316388 324.223233 
L 109.828646 324.223233 
L 118.340904 324.223233 
L 126.853162 324.223233 
L 135.36542 324.223233 
L 143.877678 324.223233 
L 152.389936 324.223233 
L 160.902194 324.223233 
L 169.414452 324.223233 
L 177.92671 324.223233 
L 186.438968 324.223233 
L 194.951226 324.223233 
L 203.463484 324.223233 
L 211.975742 324.223233 
L 220.488 324.223233 
L 229.000258 324.223233 
L 237.512516 324.223233 
L 246.024774 324.223233 
L 254.537032 324.223233 
L 263.04929 324.223233 
L 271.561548 324.223233 
L 280.073806 324.223233 
L 288.586064 324.223233 
L 297.098322 324.223233 
L 305.61058 324.223233 
L 314.122838 324.223233 
L 322.635096 324.223233 
L 331.147354 324.223233 
L 339.659612 324.223233 
L 348.17187 324.223233 
L 356.684128 324.223233 
L 365.196386 324.223233 
L 373.708644 324.223233 
L 382.220902 324.223233 
L 390.73316 324.223233 
L 399.245418 324.223233 
L 407.757676 324.223233 
L 416.269934 324.223233 
L 424.782192 324.223233 
L 433.29445 324.223233 
L 441.806708 324.223233 
L 450.318966 324.223233 
L 458.831224 324.223233 
L 467.343482 324.223233 
L 475.85574 324.223233 
L 484.367998 324.223233 
L 492.880256 324.223233 
L 501.392514 324.223233 
L 509.904772 324.223233 
L 518.41703 324.223233 
L 526.929288 324.223233 
L 535.441546 324.223233 
L 543.953804 324.223233 
L 552.466062 324.223233 
L 560.97832 324.223233 
L 569.490578 324.223233 
L 578.002836 324.223233 
L 586.515094 324.223233 
L 595.027352 324.223233 
L 603.53961 324.223233 
L 612.051868 324.223233 
L 620.564126 324.223233 
L 629.076384 324.223233 
L 637.588642 324.223233 
L 646.1009 324.223233 
L 654.613158 324.223233 
L 663.125416 324.223233 
L 671.637674 324.223233 
L 680.149932 324.223233 
L 688.66219 324.223233 
L 697.174448 324.223233 
L 705.686706 324.223233 
L 714.198964 324.223233 
L 722.711222 324.223233 
L 731.22348 324.223233 
L 739.735738 324.223233 
L 748.247996 324.223233 
L 756.760254 324.223233 
L 765.272512 324.223233 
L 773.78477 324.223233 
L 782.297028 324.223233 
L 790.809286 324.223233 
L 799.321544 324.223233 
L 807.833802 324.223233 
L 816.34606 324.223233 
L 824.858318 324.223233 
L 833.370576 324.223233 
L 841.882834 324.223233 
L 850.395092 324.223233 
L 858.90735 324.223233 
L 867.419608 324.223233 
L 875.931866 324.223233 
L 884.444124 324.223233 
L 892.956382 324.223233 
" clip-path="url(#p39bf52db97)" style="fill: none; stroke: #637939; stroke-width: 2; stroke-linecap: round"/>
   </g>
   <g id="line2d_34">
    <path d="M 41.730582 413.535648 
L 50.24284 413.535648 
L 58.755098 413.535648 
L 67.267356 413.535648 
L 75.779614 413.535648 
L 84.291872 413.535648 
L 92.80413 413.535648 
L 101.316388 413.535648 
L 109.828646 413.535648 
L 118.340904 413.535648 
L 126.853162 413.535648 
L 135.36542 413.535648 
L 143.877678 413.535648 
L 152.389936 413.535648 
L 160.902194 413.535648 
L 169.414452 413.535648 
L 177.92671 413.535648 
L 186.438968 413.535648 
L 194.951226 413.535648 
L 203.463484 413.535648 
L 211.975742 413.535648 
L 220.488 413.535648 
L 229.000258 413.535648 
L 237.512516 413.535648 
L 246.024774 413.535648 
L 254.537032 413.535648 
L 263.04929 413.535648 
L 271.561548 413.535648 
L 280.073806 413.535648 
L 288.586064 413.535648 
L 297.098322 413.535648 
L 305.61058 413.535648 
L 314.122838 413.535648 
L 322.635096 413.535648 
L 331.147354 413.535648 
L 339.659612 413.535648 
L 348.17187 413.535648 
L 356.684128 413.535648 
L 365.196386 413.535648 
L 373.708644 413.535648 
L 382.220902 413.535648 
L 390.73316 413.535648 
L 399.245418 413.535648 
L 407.757676 413.535648 
L 416.269934 413.535648 
L 424.782192 413.535648 
L 433.29445 413.535648 
L 441.806708 413.535648 
L 450.318966 413.535648 
L 458.831224 413.535648 
L 467.343482 413.535648 
L 475.85574 413.535648 
L 484.367998 413.535648 
L 492.880256 413.535648 
L 501.392514 413.535648 
L 509.904772 413.535648 
L 518.41703 413.535648 
L 526.929288 413.535648 
L 535.441546 413.535648 
L 543.953804 413.535648 
L 552.466062 413.535648 
L 560.97832 413.535648 
L 569.490578 413.535648 
L 578.002836 413.535648 
L 586.515094 413.535648 
L 595.027352 413.535648 
L 603.53961 413.535648 
L 612.051868 413.535648 
L 620.564126 413.535648 
L 629.076384 413.535648 
L 637.588642 413.535648 
L 646.1009 413.535648 
L 654.613158 413.535648 
L 663.125416 413.535648 
L 671.637674 413.535648 
L 680.149932 413.535648 
L 688.66219 413.535648 
L 697.174448 413.535648 
L 705.686706 413.535648 
L 714.198964 413.535648 
L 722.711222 413.535648 
L 731.22348 413.535648 
L 739.735738 413.535648 
L 748.247996 413.535648 
L 756.760254 413.535648 
L 765.272512 413.535648 
L 773.78477 413.535648 
L 782.297028 413.535648 
L 790.809286 413.535648 
L 799.321544 413.535648 
L 807.833802 413.535648 
L 816.34606 413.535648 
L 824.858318 413.535648 
L 833.370576 413.535648 
L 841.882834 413.535648 
L 850.395092 413.535648 
L 858.90735 413.535648 
L 867.419608 413.535648 
L 875.931866 413.535648 
L 884.444124 413.535648 
L 892.956382 413.535648 
" clip-path="url(#p39bf52db97)" style="fill: none; stroke: #b5cf6b; stroke-width: 2; stroke-linecap: round"/>
   </g>
   <g id="line2d_35">
    <path d="M 41.730582 491.496412 
L 50.24284 491.496412 
L 58.755098 491.496412 
L 67.267356 491.496412 
L 75.779614 491.496412 
L 84.291872 491.496412 
L 92.80413 491.496412 
L 101.316388 491.496412 
L 109.828646 491.496412 
L 118.340904 491.496412 
L 126.853162 491.496412 
L 135.36542 491.496412 
L 143.877678 491.496412 
L 152.389936 491.496412 
L 160.902194 491.496412 
L 169.414452 491.496412 
L 177.92671 491.496412 
L 186.438968 491.496412 
L 194.951226 491.496412 
L 203.463484 491.496412 
L 211.975742 491.496412 
L 220.488 491.496412 
L 229.000258 491.496412 
L 237.512516 491.496412 
L 246.024774 491.496412 
L 254.537032 491.496412 
L 263.04929 491.496412 
L 271.561548 491.496412 
L 280.073806 491.496412 
L 288.586064 491.496412 
L 297.098322 491.496412 
L 305.61058 491.496412 
L 314.122838 491.496412 
L 322.635096 491.496412 
L 331.147354 491.496412 
L 339.659612 491.496412 
L 348.17187 491.496412 
L 356.684128 491.496412 
L 365.196386 491.496412 
L 373.708644 491.496412 
L 382.220902 491.496412 
L 390.73316 491.496412 
L 399.245418 491.496412 
L 407.757676 491.496412 
L 416.269934 491.496412 
L 424.782192 491.496412 
L 433.29445 491.496412 
L 441.806708 491.496412 
L 450.318966 491.496412 
L 458.831224 491.496412 
L 467.343482 491.496412 
L 475.85574 491.496412 
L 484.367998 491.496412 
L 492.880256 491.496412 
L 501.392514 491.496412 
L 509.904772 491.496412 
L 518.41703 491.496412 
L 526.929288 491.496412 
L 535.441546 491.496412 
L 543.953804 491.496412 
L 552.466062 491.496412 
L 560.97832 491.496412 
L 569.490578 491.496412 
L 578.002836 491.496412 
L 586.515094 491.496412 
L 595.027352 491.496412 
L 603.53961 491.496412 
L 612.051868 491.496412 
L 620.564126 491.496412 
L 629.076384 491.496412 
L 637.588642 491.496412 
L 646.1009 491.496412 
L 654.613158 491.496412 
L 663.125416 491.496412 
L 671.637674 491.496412 
L 680.149932 491.496412 
L 688.66219 491.496412 
L 697.174448 491.496412 
L 705.686706 491.496412 
L 714.198964 491.496412 
L 722.711222 491.496412 
L 731.22348 491.496412 
L 739.735738 491.496412 
L 748.247996 491.496412 
L 756.760254 491.496412 
L 765.272512 491.496412 
L 773.78477 491.496412 
L 782.297028 491.496412 
L 790.809286 491.496412 
L 799.321544 491.496412 
L 807.833802 491.496412 
L 816.34606 491.496412 
L 824.858318 491.496412 
L 833.370576 491.496412 
L 841.882834 491.496412 
L 850.395092 491.496412 
L 858.90735 491.496412 
L 867.419608 491.496412 
L 875.931866 491.496412 
L 884.444124 491.496412 
L 892.956382 491.496412 
" clip-path="url(#p39bf52db97)" style="fill: none; stroke: #8c6d31; stroke-width: 2; stroke-linecap: round"/>
   </g>
   <g id="line2d_36">
    <path d="M 41.730582 515.318689 
L 50.24284 515.318689 
L 58.755098 515.318689 
L 67.267356 515.318689 
L 75.779614 515.318689 
L 84.291872 515.318689 
L 92.80413 515.318689 
L 101.316388 515.318689 
L 109.828646 515.318689 
L 118.340904 515.318689 
L 126.853162 515.318689 
L 135.36542 515.318689 
L 143.877678 515.318689 
L 152.389936 515.318689 
L 160.902194 515.318689 
L 169.414452 515.318689 
L 177.92671 515.318689 
L 186.438968 515.318689 
L 194.951226 515.318689 
L 203.463484 515.318689 
L 211.975742 515.318689 
L 220.488 515.318689 
L 229.000258 515.318689 
L 237.512516 515.318689 
L 246.024774 515.318689 
L 254.537032 515.318689 
L 263.04929 515.318689 
L 271.561548 515.318689 
L 280.073806 515.318689 
L 288.586064 515.318689 
L 297.098322 515.318689 
L 305.61058 515.318689 
L 314.122838 515.318689 
L 322.635096 515.318689 
L 331.147354 515.318689 
L 339.659612 515.318689 
L 348.17187 515.318689 
L 356.684128 515.318689 
L 365.196386 515.318689 
L 373.708644 515.318689 
L 382.220902 515.318689 
L 390.73316 515.318689 
L 399.245418 515.318689 
L 407.757676 515.318689 
L 416.269934 515.318689 
L 424.782192 515.318689 
L 433.29445 515.318689 
L 441.806708 515.318689 
L 450.318966 515.318689 
L 458.831224 515.318689 
L 467.343482 515.318689 
L 475.85574 515.318689 
L 484.367998 515.318689 
L 492.880256 515.318689 
L 501.392514 515.318689 
L 509.904772 515.318689 
L 518.41703 515.318689 
L 526.929288 515.318689 
L 535.441546 515.318689 
L 543.953804 515.318689 
L 552.466062 515.318689 
L 560.97832 515.318689 
L 569.490578 515.318689 
L 578.002836 515.318689 
L 586.515094 515.318689 
L 595.027352 515.318689 
L 603.53961 515.318689 
L 612.051868 515.318689 
L 620.564126 515.318689 
L 629.076384 515.318689 
L 637.588642 515.318689 
L 646.1009 515.318689 
L 654.613158 515.318689 
L 663.125416 515.318689 
L 671.637674 515.318689 
L 680.149932 515.318689 
L 688.66219 515.318689 
L 697.174448 515.318689 
L 705.686706 515.318689 
L 714.198964 515.318689 
L 722.711222 515.318689 
L 731.22348 515.318689 
L 739.735738 515.318689 
L 748.247996 515.318689 
L 756.760254 515.318689 
L 765.272512 515.318689 
L 773.78477 515.318689 
L 782.297028 515.318689 
L 790.809286 515.318689 
L 799.321544 515.318689 
L 807.833802 515.318689 
L 816.34606 515.318689 
L 824.858318 515.318689 
L 833.370576 515.318689 
L 841.882834 515.318689 
L 850.395092 515.318689 
L 858.90735 515.318689 
L 867.419608 515.318689 
L 875.931866 515.318689 
L 884.444124 515.318689 
L 892.956382 515.318689 
" clip-path="url(#p39bf52db97)" style="fill: none; stroke: #e7cb94; stroke-width: 2; stroke-linecap: round"/>
   </g>
   <g id="line2d_37">
    <path d="M 41.730582 519.561102 
L 50.24284 519.561102 
L 58.755098 519.561102 
L 67.267356 519.561102 
L 75.779614 519.561102 
L 84.291872 519.561102 
L 92.80413 519.561102 
L 101.316388 519.561102 
L 109.828646 519.561102 
L 118.340904 519.561102 
L 126.853162 519.561102 
L 135.36542 519.561102 
L 143.877678 519.561102 
L 152.389936 519.561102 
L 160.902194 519.561102 
L 169.414452 519.561102 
L 177.92671 519.561102 
L 186.438968 519.561102 
L 194.951226 519.561102 
L 203.463484 519.561102 
L 211.975742 519.561102 
L 220.488 519.561102 
L 229.000258 519.561102 
L 237.512516 519.561102 
L 246.024774 519.561102 
L 254.537032 519.561102 
L 263.04929 519.561102 
L 271.561548 519.561102 
L 280.073806 519.561102 
L 288.586064 519.561102 
L 297.098322 519.561102 
L 305.61058 519.561102 
L 314.122838 519.561102 
L 322.635096 519.561102 
L 331.147354 519.561102 
L 339.659612 519.561102 
L 348.17187 519.561102 
L 356.684128 519.561102 
L 365.196386 519.561102 
L 373.708644 519.561102 
L 382.220902 519.561102 
L 390.73316 519.561102 
L 399.245418 519.561102 
L 407.757676 519.561102 
L 416.269934 519.561102 
L 424.782192 519.561102 
L 433.29445 519.561102 
L 441.806708 519.561102 
L 450.318966 519.561102 
L 458.831224 519.561102 
L 467.343482 519.561102 
L 475.85574 519.561102 
L 484.367998 519.561102 
L 492.880256 519.561102 
L 501.392514 519.561102 
L 509.904772 519.561102 
L 518.41703 519.561102 
L 526.929288 519.561102 
L 535.441546 519.561102 
L 543.953804 519.561102 
L 552.466062 519.561102 
L 560.97832 519.561102 
L 569.490578 519.561102 
L 578.002836 519.561102 
L 586.515094 519.561102 
L 595.027352 519.561102 
L 603.53961 519.561102 
L 612.051868 519.561102 
L 620.564126 519.561102 
L 629.076384 519.561102 
L 637.588642 519.561102 
L 646.1009 519.561102 
L 654.613158 519.561102 
L 663.125416 519.561102 
L 671.637674 519.561102 
L 680.149932 519.561102 
L 688.66219 519.561102 
L 697.174448 519.561102 
L 705.686706 519.561102 
L 714.198964 519.561102 
L 722.711222 519.561102 
L 731.22348 519.561102 
L 739.735738 519.561102 
L 748.247996 519.561102 
L 756.760254 519.561102 
L 765.272512 519.561102 
L 773.78477 519.561102 
L 782.297028 519.561102 
L 790.809286 519.561102 
L 799.321544 519.561102 
L 807.833802 519.561102 
L 816.34606 519.561102 
L 824.858318 519.561102 
L 833.370576 519.561102 
L 841.882834 519.561102 
L 850.395092 519.561102 
L 858.90735 519.561102 
L 867.419608 519.561102 
L 875.931866 519.561102 
L 884.444124 519.561102 
L 892.956382 519.561102 
" clip-path="url(#p39bf52db97)" style="fill: none; stroke: #ad494a; stroke-width: 2; stroke-linecap: round"/>
   </g>
   <g id="line2d_38">
    <path d="M 41.730582 520.349373 
L 50.24284 520.349373 
L 58.755098 520.349373 
L 67.267356 520.349373 
L 75.779614 520.349373 
L 84.291872 520.349373 
L 92.80413 520.349373 
L 101.316388 520.349373 
L 109.828646 520.349373 
L 118.340904 520.349373 
L 126.853162 520.349373 
L 135.36542 520.349373 
L 143.877678 520.349373 
L 152.389936 520.349373 
L 160.902194 520.349373 
L 169.414452 520.349373 
L 177.92671 520.349373 
L 186.438968 520.349373 
L 194.951226 520.349373 
L 203.463484 520.349373 
L 211.975742 520.349373 
L 220.488 520.349373 
L 229.000258 520.349373 
L 237.512516 520.349373 
L 246.024774 520.349373 
L 254.537032 520.349373 
L 263.04929 520.349373 
L 271.561548 520.349373 
L 280.073806 520.349373 
L 288.586064 520.349373 
L 297.098322 520.349373 
L 305.61058 520.349373 
L 314.122838 520.349373 
L 322.635096 520.349373 
L 331.147354 520.349373 
L 339.659612 520.349373 
L 348.17187 520.349373 
L 356.684128 520.349373 
L 365.196386 520.349373 
L 373.708644 520.349373 
L 382.220902 520.349373 
L 390.73316 520.349373 
L 399.245418 520.349373 
L 407.757676 520.349373 
L 416.269934 520.349373 
L 424.782192 520.349373 
L 433.29445 520.349373 
L 441.806708 520.349373 
L 450.318966 520.349373 
L 458.831224 520.349373 
L 467.343482 520.349373 
L 475.85574 520.349373 
L 484.367998 520.349373 
L 492.880256 520.349373 
L 501.392514 520.349373 
L 509.904772 520.349373 
L 518.41703 520.349373 
L 526.929288 520.349373 
L 535.441546 520.349373 
L 543.953804 520.349373 
L 552.466062 520.349373 
L 560.97832 520.349373 
L 569.490578 520.349373 
L 578.002836 520.349373 
L 586.515094 520.349373 
L 595.027352 520.349373 
L 603.53961 520.349373 
L 612.051868 520.349373 
L 620.564126 520.349373 
L 629.076384 520.349373 
L 637.588642 520.349373 
L 646.1009 520.349373 
L 654.613158 520.349373 
L 663.125416 520.349373 
L 671.637674 520.349373 
L 680.149932 520.349373 
L 688.66219 520.349373 
L 697.174448 520.349373 
L 705.686706 520.349373 
L 714.198964 520.349373 
L 722.711222 520.349373 
L 731.22348 520.349373 
L 739.735738 520.349373 
L 748.247996 520.349373 
L 756.760254 520.349373 
L 765.272512 520.349373 
L 773.78477 520.349373 
L 782.297028 520.349373 
L 790.809286 520.349373 
L 799.321544 520.349373 
L 807.833802 520.349373 
L 816.34606 520.349373 
L 824.858318 520.349373 
L 833.370576 520.349373 
L 841.882834 520.349373 
L 850.395092 520.349373 
L 858.90735 520.349373 
L 867.419608 520.349373 
L 875.931866 520.349373 
L 884.444124 520.349373 
L 892.956382 520.349373 
" clip-path="url(#p39bf52db97)" style="fill: none; stroke: #e7969c; stroke-width: 2; stroke-linecap: round"/>
   </g>
   <g id="line2d_39">
    <path d="M 41.730582 520.626431 
L 50.24284 520.626431 
L 58.755098 520.626431 
L 67.267356 520.626431 
L 75.779614 520.626431 
L 84.291872 520.626431 
L 92.80413 520.626431 
L 101.316388 520.626431 
L 109.828646 520.626431 
L 118.340904 520.626431 
L 126.853162 520.626431 
L 135.36542 520.626431 
L 143.877678 520.626431 
L 152.389936 520.626431 
L 160.902194 520.626431 
L 169.414452 520.626431 
L 177.92671 520.626431 
L 186.438968 520.626431 
L 194.951226 520.626431 
L 203.463484 520.626431 
L 211.975742 520.626431 
L 220.488 520.626431 
L 229.000258 520.626431 
L 237.512516 520.626431 
L 246.024774 520.626431 
L 254.537032 520.626431 
L 263.04929 520.626431 
L 271.561548 520.626431 
L 280.073806 520.626431 
L 288.586064 520.626431 
L 297.098322 520.626431 
L 305.61058 520.626431 
L 314.122838 520.626431 
L 322.635096 520.626431 
L 331.147354 520.626431 
L 339.659612 520.626431 
L 348.17187 520.626431 
L 356.684128 520.626431 
L 365.196386 520.626431 
L 373.708644 520.626431 
L 382.220902 520.626431 
L 390.73316 520.626431 
L 399.245418 520.626431 
L 407.757676 520.626431 
L 416.269934 520.626431 
L 424.782192 520.626431 
L 433.29445 520.626431 
L 441.806708 520.626431 
L 450.318966 520.626431 
L 458.831224 520.626431 
L 467.343482 520.626431 
L 475.85574 520.626431 
L 484.367998 520.626431 
L 492.880256 520.626431 
L 501.392514 520.626431 
L 509.904772 520.626431 
L 518.41703 520.626431 
L 526.929288 520.626431 
L 535.441546 520.626431 
L 543.953804 520.626431 
L 552.466062 520.626431 
L 560.97832 520.626431 
L 569.490578 520.626431 
L 578.002836 520.626431 
L 586.515094 520.626431 
L 595.027352 520.626431 
L 603.53961 520.626431 
L 612.051868 520.626431 
L 620.564126 520.626431 
L 629.076384 520.626431 
L 637.588642 520.626431 
L 646.1009 520.626431 
L 654.613158 520.626431 
L 663.125416 520.626431 
L 671.637674 520.626431 
L 680.149932 520.626431 
L 688.66219 520.626431 
L 697.174448 520.626431 
L 705.686706 520.626431 
L 714.198964 520.626431 
L 722.711222 520.626431 
L 731.22348 520.626431 
L 739.735738 520.626431 
L 748.247996 520.626431 
L 756.760254 520.626431 
L 765.272512 520.626431 
L 773.78477 520.626431 
L 782.297028 520.626431 
L 790.809286 520.626431 
L 799.321544 520.626431 
L 807.833802 520.626431 
L 816.34606 520.626431 
L 824.858318 520.626431 
L 833.370576 520.626431 
L 841.882834 520.626431 
L 850.395092 520.626431 
L 858.90735 520.626431 
L 867.419608 520.626431 
L 875.931866 520.626431 
L 884.444124 520.626431 
L 892.956382 520.626431 
" clip-path="url(#p39bf52db97)" style="fill: none; stroke: #a55194; stroke-width: 2; stroke-linecap: round"/>
   </g>
   <g id="line2d_40">
    <path d="M 41.730582 520.763805 
L 50.24284 520.763805 
L 58.755098 520.763805 
L 67.267356 520.763805 
L 75.779614 520.763805 
L 84.291872 520.763805 
L 92.80413 520.763805 
L 101.316388 520.763805 
L 109.828646 520.763805 
L 118.340904 520.763805 
L 126.853162 520.763805 
L 135.36542 520.763805 
L 143.877678 520.763805 
L 152.389936 520.763805 
L 160.902194 520.763805 
L 169.414452 520.763805 
L 177.92671 520.763805 
L 186.438968 520.763805 
L 194.951226 520.763805 
L 203.463484 520.763805 
L 211.975742 520.763805 
L 220.488 520.763805 
L 229.000258 520.763805 
L 237.512516 520.763805 
L 246.024774 520.763805 
L 254.537032 520.763805 
L 263.04929 520.763805 
L 271.561548 520.763805 
L 280.073806 520.763805 
L 288.586064 520.763805 
L 297.098322 520.763805 
L 305.61058 520.763805 
L 314.122838 520.763805 
L 322.635096 520.763805 
L 331.147354 520.763805 
L 339.659612 520.763805 
L 348.17187 520.763805 
L 356.684128 520.763805 
L 365.196386 520.763805 
L 373.708644 520.763805 
L 382.220902 520.763805 
L 390.73316 520.763805 
L 399.245418 520.763805 
L 407.757676 520.763805 
L 416.269934 520.763805 
L 424.782192 520.763805 
L 433.29445 520.763805 
L 441.806708 520.763805 
L 450.318966 520.763805 
L 458.831224 520.763805 
L 467.343482 520.763805 
L 475.85574 520.763805 
L 484.367998 520.763805 
L 492.880256 520.763805 
L 501.392514 520.763805 
L 509.904772 520.763805 
L 518.41703 520.763805 
L 526.929288 520.763805 
L 535.441546 520.763805 
L 543.953804 520.763805 
L 552.466062 520.763805 
L 560.97832 520.763805 
L 569.490578 520.763805 
L 578.002836 520.763805 
L 586.515094 520.763805 
L 595.027352 520.763805 
L 603.53961 520.763805 
L 612.051868 520.763805 
L 620.564126 520.763805 
L 629.076384 520.763805 
L 637.588642 520.763805 
L 646.1009 520.763805 
L 654.613158 520.763805 
L 663.125416 520.763805 
L 671.637674 520.763805 
L 680.149932 520.763805 
L 688.66219 520.763805 
L 697.174448 520.763805 
L 705.686706 520.763805 
L 714.198964 520.763805 
L 722.711222 520.763805 
L 731.22348 520.763805 
L 739.735738 520.763805 
L 748.247996 520.763805 
L 756.760254 520.763805 
L 765.272512 520.763805 
L 773.78477 520.763805 
L 782.297028 520.763805 
L 790.809286 520.763805 
L 799.321544 520.763805 
L 807.833802 520.763805 
L 816.34606 520.763805 
L 824.858318 520.763805 
L 833.370576 520.763805 
L 841.882834 520.763805 
L 850.395092 520.763805 
L 858.90735 520.763805 
L 867.419608 520.763805 
L 875.931866 520.763805 
L 884.444124 520.763805 
L 892.956382 520.763805 
" clip-path="url(#p39bf52db97)" style="fill: none; stroke: #de9ed6; stroke-width: 2; stroke-linecap: round"/>
   </g>
   <g id="patch_3">
    <path d="M 41.730582 521.153031 
L 41.730582 51.564121 
" style="fill: none"/>
   </g>
   <g id="patch_4">
    <path d="M 935.517672 521.153031 
L 935.517672 51.564121 
" style="fill: none"/>
   </g>
   <g id="patch_5">
    <path d="M 41.730582 521.153031 
L 935.517672 521.153031 
" style="fill: none"/>
   </g>
   <g id="patch_6">
    <path d="M 41.730582 51.564121 
L 935.517672 51.564121 
" style="fill: none"/>
   </g>
   <g id="patch_7">
    <path d="M 467.343482 93.79409 
Q 467.343482 292.861778 467.343482 490.252414 
" style="fill: none; stroke: #000000; stroke-width: 1.5; stroke-linecap: round"/>
    <path d="M 470.543482 483.852414 
L 467.343482 490.252414 
L 464.143482 483.852414 
" style="fill: none; stroke: #000000; stroke-width: 1.5; stroke-linecap: round"/>
   </g>
   <g id="text_17">
    <!-- Time -->
    <g style="fill: #262626" transform="translate(488.624127 490.440977) scale(0.18 -0.18)">
     <defs>
      <path id="CMR17-54" d="M 3981 4326 
L 288 4326 
L 179 2918 
L 294 2918 
C 378 3976 467 4160 1453 4160 
C 1568 4160 1754 4160 1805 4154 
C 1926 4135 1926 4058 1926 3912 
L 1926 459 
C 1926 230 1907 160 1376 160 
L 1197 160 
L 1197 0 
C 1504 0 1824 0 2138 0 
C 2451 0 2771 0 3078 0 
L 3078 160 
L 2899 160 
C 2368 160 2349 230 2349 459 
L 2349 3912 
C 2349 4052 2349 4129 2464 4154 
C 2515 4160 2701 4160 2816 4160 
C 3795 4160 3891 3976 3974 2918 
L 4090 2918 
L 3981 4326 
z
" transform="scale(0.015625)"/>
      <path id="CMR17-69" d="M 992 3909 
C 992 4049 877 4170 730 4170 
C 589 4170 467 4056 467 3909 
C 467 3769 582 3648 730 3648 
C 870 3648 992 3763 992 3909 
z
M 243 2706 
L 243 2541 
C 602 2541 653 2502 653 2197 
L 653 427 
C 653 184 627 153 218 153 
L 218 -13 
C 371 0 646 0 806 0 
C 960 0 1222 0 1370 -13 
L 1370 153 
C 992 153 979 191 979 420 
L 979 2776 
L 243 2706 
z
" transform="scale(0.015625)"/>
      <path id="CMR17-6d" d="M 4326 1933 
C 4326 2252 4269 2790 3507 2790 
C 3072 2790 2771 2496 2656 2151 
L 2650 2151 
C 2573 2676 2195 2790 1837 2790 
C 1331 2790 1069 2400 973 2144 
L 966 2144 
L 966 2790 
L 211 2720 
L 211 2554 
C 589 2554 646 2515 646 2208 
L 646 428 
C 646 184 621 153 211 153 
L 211 -13 
C 365 0 646 0 813 0 
C 979 0 1267 0 1421 -13 
L 1421 153 
C 1011 153 986 178 986 428 
L 986 1658 
C 986 2247 1344 2688 1792 2688 
C 2266 2688 2317 2266 2317 1958 
L 2317 428 
C 2317 184 2291 153 1882 153 
L 1882 -13 
C 2035 0 2317 0 2483 0 
C 2650 0 2938 0 3091 -13 
L 3091 153 
C 2682 153 2656 178 2656 428 
L 2656 1658 
C 2656 2247 3014 2688 3462 2688 
C 3936 2688 3987 2266 3987 1958 
L 3987 428 
C 3987 184 3962 153 3552 153 
L 3552 -13 
C 3706 0 3987 0 4154 0 
C 4320 0 4608 0 4762 -13 
L 4762 153 
C 4352 153 4326 178 4326 428 
L 4326 1933 
z
" transform="scale(0.015625)"/>
      <path id="CMR17-65" d="M 2438 1472 
C 2464 1498 2464 1511 2464 1576 
C 2464 2238 2118 2816 1389 2816 
C 710 2816 173 2169 173 1383 
C 173 551 781 -64 1459 -64 
C 2176 -64 2458 607 2458 740 
C 2458 784 2419 784 2406 784 
C 2362 784 2355 771 2330 696 
C 2189 265 1837 51 1504 51 
C 1229 51 954 203 781 480 
C 582 803 582 1176 582 1472 
L 2438 1472 
z
M 589 1568 
C 634 2505 1126 2714 1382 2714 
C 1818 2714 2112 2297 2118 1568 
L 589 1568 
z
" transform="scale(0.015625)"/>
     </defs>
     <use xlink:href="#CMR17-54" transform="scale(0.996264)"/>
     <use xlink:href="#CMR17-69" transform="translate(66.509881 0) scale(0.996264)"/>
     <use xlink:href="#CMR17-6d" transform="translate(91.380939 0) scale(0.996264)"/>
     <use xlink:href="#CMR17-65" transform="translate(168.300529 0) scale(0.996264)"/>
    </g>
   </g>
   <g id="legend_1">
    <g id="line2d_41">
     <path d="M 948.117672 197.198434 
L 962.117672 197.198434 
L 976.117672 197.198434 
" style="fill: none; stroke: #393b79; stroke-width: 2; stroke-linecap: round"/>
    </g>
    <g id="text_18">
     <!-- t = 0.00 -->
     <g style="fill: #262626" transform="translate(987.317672 202.098434) scale(0.14 -0.14)">
      <defs>
       <path id="CMR17-74" d="M 966 2560 
L 1862 2560 
L 1862 2725 
L 966 2725 
L 966 3904 
L 851 3904 
C 838 3245 614 2668 70 2668 
L 70 2560 
L 627 2560 
L 627 771 
C 627 650 627 -64 1370 -64 
C 1747 -64 1965 306 1965 777 
L 1965 1140 
L 1850 1140 
L 1850 783 
C 1850 344 1677 51 1408 51 
C 1222 51 966 178 966 758 
L 966 2560 
z
" transform="scale(0.015625)"/>
       <path id="CMR17-3d" d="M 4115 2017 
C 4211 2017 4307 2017 4307 2125 
C 4307 2240 4198 2240 4090 2240 
L 512 2240 
C 403 2240 294 2240 294 2125 
C 294 2017 390 2017 486 2017 
L 4115 2017 
z
M 4090 896 
C 4198 896 4307 896 4307 1011 
C 4307 1119 4211 1119 4115 1119 
L 486 1119 
C 390 1119 294 1119 294 1011 
C 294 896 403 896 512 896 
L 4090 896 
z
" transform="scale(0.015625)"/>
       <path id="CMR17-2e" d="M 1062 261 
C 1062 420 934 522 800 522 
C 672 522 538 420 538 261 
C 538 102 666 0 800 0 
C 928 0 1062 102 1062 261 
z
" transform="scale(0.015625)"/>
      </defs>
      <use xlink:href="#CMR17-74" transform="scale(0.996264)"/>
      <use xlink:href="#CMR17-3d" transform="translate(65.356734 0) scale(0.996264)"/>
      <use xlink:href="#CMR17-30" transform="translate(167.147489 0) scale(0.996264)"/>
      <use xlink:href="#CMR17-2e" transform="translate(212.837966 0) scale(0.996264)"/>
      <use xlink:href="#CMR17-30" transform="translate(237.709025 0) scale(0.996264)"/>
      <use xlink:href="#CMR17-30" transform="translate(283.399502 0) scale(0.996264)"/>
     </g>
    </g>
    <g id="line2d_42">
     <path d="M 948.117672 216.710462 
L 962.117672 216.710462 
L 976.117672 216.710462 
" style="fill: none; stroke: #6b6ecf; stroke-width: 2; stroke-linecap: round"/>
    </g>
    <g id="text_19">
     <!-- t = 10.00 -->
     <g style="fill: #262626" transform="translate(987.317672 221.610462) scale(0.14 -0.14)">
      <use xlink:href="#CMR17-74" transform="scale(0.996264)"/>
      <use xlink:href="#CMR17-3d" transform="translate(65.356734 0) scale(0.996264)"/>
      <use xlink:href="#CMR17-31" transform="translate(167.147489 0) scale(0.996264)"/>
      <use xlink:href="#CMR17-30" transform="translate(212.837966 0) scale(0.996264)"/>
      <use xlink:href="#CMR17-2e" transform="translate(258.528443 0) scale(0.996264)"/>
      <use xlink:href="#CMR17-30" transform="translate(283.399502 0) scale(0.996264)"/>
      <use xlink:href="#CMR17-30" transform="translate(329.089979 0) scale(0.996264)"/>
     </g>
    </g>
    <g id="line2d_43">
     <path d="M 948.117672 236.222491 
L 962.117672 236.222491 
L 976.117672 236.222491 
" style="fill: none; stroke: #637939; stroke-width: 2; stroke-linecap: round"/>
    </g>
    <g id="text_20">
     <!-- t = 50.00 -->
     <g style="fill: #262626" transform="translate(987.317672 241.122491) scale(0.14 -0.14)">
      <use xlink:href="#CMR17-74" transform="scale(0.996264)"/>
      <use xlink:href="#CMR17-3d" transform="translate(65.356734 0) scale(0.996264)"/>
      <use xlink:href="#CMR17-35" transform="translate(167.147489 0) scale(0.996264)"/>
      <use xlink:href="#CMR17-30" transform="translate(212.837966 0) scale(0.996264)"/>
      <use xlink:href="#CMR17-2e" transform="translate(258.528443 0) scale(0.996264)"/>
      <use xlink:href="#CMR17-30" transform="translate(283.399502 0) scale(0.996264)"/>
      <use xlink:href="#CMR17-30" transform="translate(329.089979 0) scale(0.996264)"/>
     </g>
    </g>
    <g id="line2d_44">
     <path d="M 948.117672 255.734519 
L 962.117672 255.734519 
L 976.117672 255.734519 
" style="fill: none; stroke: #b5cf6b; stroke-width: 2; stroke-linecap: round"/>
    </g>
    <g id="text_21">
     <!-- t = 100.00 -->
     <g style="fill: #262626" transform="translate(987.317672 260.634519) scale(0.14 -0.14)">
      <use xlink:href="#CMR17-74" transform="scale(0.996264)"/>
      <use xlink:href="#CMR17-3d" transform="translate(65.356734 0) scale(0.996264)"/>
      <use xlink:href="#CMR17-31" transform="translate(167.147489 0) scale(0.996264)"/>
      <use xlink:href="#CMR17-30" transform="translate(212.837966 0) scale(0.996264)"/>
      <use xlink:href="#CMR17-30" transform="translate(258.528443 0) scale(0.996264)"/>
      <use xlink:href="#CMR17-2e" transform="translate(304.21892 0) scale(0.996264)"/>
      <use xlink:href="#CMR17-30" transform="translate(329.089979 0) scale(0.996264)"/>
      <use xlink:href="#CMR17-30" transform="translate(374.780456 0) scale(0.996264)"/>
     </g>
    </g>
    <g id="line2d_45">
     <path d="M 948.117672 275.246547 
L 962.117672 275.246547 
L 976.117672 275.246547 
" style="fill: none; stroke: #8c6d31; stroke-width: 2; stroke-linecap: round"/>
    </g>
    <g id="text_22">
     <!-- t = 250.00 -->
     <g style="fill: #262626" transform="translate(987.317672 280.146547) scale(0.14 -0.14)">
      <use xlink:href="#CMR17-74" transform="scale(0.996264)"/>
      <use xlink:href="#CMR17-3d" transform="translate(65.356734 0) scale(0.996264)"/>
      <use xlink:href="#CMR17-32" transform="translate(167.147489 0) scale(0.996264)"/>
      <use xlink:href="#CMR17-35" transform="translate(212.837966 0) scale(0.996264)"/>
      <use xlink:href="#CMR17-30" transform="translate(258.528443 0) scale(0.996264)"/>
      <use xlink:href="#CMR17-2e" transform="translate(304.21892 0) scale(0.996264)"/>
      <use xlink:href="#CMR17-30" transform="translate(329.089979 0) scale(0.996264)"/>
      <use xlink:href="#CMR17-30" transform="translate(374.780456 0) scale(0.996264)"/>
     </g>
    </g>
    <g id="line2d_46">
     <path d="M 948.117672 294.758576 
L 962.117672 294.758576 
L 976.117672 294.758576 
" style="fill: none; stroke: #e7cb94; stroke-width: 2; stroke-linecap: round"/>
    </g>
    <g id="text_23">
     <!-- t = 500.00 -->
     <g style="fill: #262626" transform="translate(987.317672 299.658576) scale(0.14 -0.14)">
      <use xlink:href="#CMR17-74" transform="scale(0.996264)"/>
      <use xlink:href="#CMR17-3d" transform="translate(65.356734 0) scale(0.996264)"/>
      <use xlink:href="#CMR17-35" transform="translate(167.147489 0) scale(0.996264)"/>
      <use xlink:href="#CMR17-30" transform="translate(212.837966 0) scale(0.996264)"/>
      <use xlink:href="#CMR17-30" transform="translate(258.528443 0) scale(0.996264)"/>
      <use xlink:href="#CMR17-2e" transform="translate(304.21892 0) scale(0.996264)"/>
      <use xlink:href="#CMR17-30" transform="translate(329.089979 0) scale(0.996264)"/>
      <use xlink:href="#CMR17-30" transform="translate(374.780456 0) scale(0.996264)"/>
     </g>
    </g>
    <g id="line2d_47">
     <path d="M 948.117672 314.270604 
L 962.117672 314.270604 
L 976.117672 314.270604 
" style="fill: none; stroke: #ad494a; stroke-width: 2; stroke-linecap: round"/>
    </g>
    <g id="text_24">
     <!-- t = 750.00 -->
     <g style="fill: #262626" transform="translate(987.317672 319.170604) scale(0.14 -0.14)">
      <use xlink:href="#CMR17-74" transform="scale(0.996264)"/>
      <use xlink:href="#CMR17-3d" transform="translate(65.356734 0) scale(0.996264)"/>
      <use xlink:href="#CMR17-37" transform="translate(167.147489 0) scale(0.996264)"/>
      <use xlink:href="#CMR17-35" transform="translate(212.837966 0) scale(0.996264)"/>
      <use xlink:href="#CMR17-30" transform="translate(258.528443 0) scale(0.996264)"/>
      <use xlink:href="#CMR17-2e" transform="translate(304.21892 0) scale(0.996264)"/>
      <use xlink:href="#CMR17-30" transform="translate(329.089979 0) scale(0.996264)"/>
      <use xlink:href="#CMR17-30" transform="translate(374.780456 0) scale(0.996264)"/>
     </g>
    </g>
    <g id="line2d_48">
     <path d="M 948.117672 333.782633 
L 962.117672 333.782633 
L 976.117672 333.782633 
" style="fill: none; stroke: #e7969c; stroke-width: 2; stroke-linecap: round"/>
    </g>
    <g id="text_25">
     <!-- t = 1000.00 -->
     <g style="fill: #262626" transform="translate(987.317672 338.682633) scale(0.14 -0.14)">
      <use xlink:href="#CMR17-74" transform="scale(0.996264)"/>
      <use xlink:href="#CMR17-3d" transform="translate(65.356734 0) scale(0.996264)"/>
      <use xlink:href="#CMR17-31" transform="translate(167.147489 0) scale(0.996264)"/>
      <use xlink:href="#CMR17-30" transform="translate(212.837966 0) scale(0.996264)"/>
      <use xlink:href="#CMR17-30" transform="translate(258.528443 0) scale(0.996264)"/>
      <use xlink:href="#CMR17-30" transform="translate(304.21892 0) scale(0.996264)"/>
      <use xlink:href="#CMR17-2e" transform="translate(349.909397 0) scale(0.996264)"/>
      <use xlink:href="#CMR17-30" transform="translate(374.780456 0) scale(0.996264)"/>
      <use xlink:href="#CMR17-30" transform="translate(420.470933 0) scale(0.996264)"/>
     </g>
    </g>
    <g id="line2d_49">
     <path d="M 948.117672 353.294661 
L 962.117672 353.294661 
L 976.117672 353.294661 
" style="fill: none; stroke: #a55194; stroke-width: 2; stroke-linecap: round"/>
    </g>
    <g id="text_26">
     <!-- t = 1250.00 -->
     <g style="fill: #262626" transform="translate(987.317672 358.194661) scale(0.14 -0.14)">
      <use xlink:href="#CMR17-74" transform="scale(0.996264)"/>
      <use xlink:href="#CMR17-3d" transform="translate(65.356734 0) scale(0.996264)"/>
      <use xlink:href="#CMR17-31" transform="translate(167.147489 0) scale(0.996264)"/>
      <use xlink:href="#CMR17-32" transform="translate(212.837966 0) scale(0.996264)"/>
      <use xlink:href="#CMR17-35" transform="translate(258.528443 0) scale(0.996264)"/>
      <use xlink:href="#CMR17-30" transform="translate(304.21892 0) scale(0.996264)"/>
      <use xlink:href="#CMR17-2e" transform="translate(349.909397 0) scale(0.996264)"/>
      <use xlink:href="#CMR17-30" transform="translate(374.780456 0) scale(0.996264)"/>
      <use xlink:href="#CMR17-30" transform="translate(420.470933 0) scale(0.996264)"/>
     </g>
    </g>
    <g id="line2d_50">
     <path d="M 948.117672 372.806689 
L 962.117672 372.806689 
L 976.117672 372.806689 
" style="fill: none; stroke: #de9ed6; stroke-width: 2; stroke-linecap: round"/>
    </g>
    <g id="text_27">
     <!-- t = 1500.00 -->
     <g style="fill: #262626" transform="translate(987.317672 377.706689) scale(0.14 -0.14)">
      <use xlink:href="#CMR17-74" transform="scale(0.996264)"/>
      <use xlink:href="#CMR17-3d" transform="translate(65.356734 0) scale(0.996264)"/>
      <use xlink:href="#CMR17-31" transform="translate(167.147489 0) scale(0.996264)"/>
      <use xlink:href="#CMR17-35" transform="translate(212.837966 0) scale(0.996264)"/>
      <use xlink:href="#CMR17-30" transform="translate(258.528443 0) scale(0.996264)"/>
      <use xlink:href="#CMR17-30" transform="translate(304.21892 0) scale(0.996264)"/>
      <use xlink:href="#CMR17-2e" transform="translate(349.909397 0) scale(0.996264)"/>
      <use xlink:href="#CMR17-30" transform="translate(374.780456 0) scale(0.996264)"/>
      <use xlink:href="#CMR17-30" transform="translate(420.470933 0) scale(0.996264)"/>
     </g>
    </g>
   </g>
  </g>
  <g id="text_28">
   <!-- Reactivity -->
   <g style="fill: #262626" transform="translate(500.761015 24.803515) scale(0.192 -0.192)">
    <defs>
     <path id="CMR17-52" d="M 2509 2146 
C 3117 2268 3629 2676 3629 3186 
C 3629 3785 2950 4326 2054 4326 
L 333 4326 
L 333 4160 
C 774 4160 845 4160 845 3873 
L 845 415 
C 845 128 774 128 333 128 
L 333 -26 
C 518 -26 851 -26 1050 -26 
C 1248 -26 1581 -26 1766 -26 
L 1766 128 
C 1325 128 1254 128 1254 417 
L 1254 2112 
L 2003 2112 
C 2368 2112 2573 1964 2662 1881 
C 2918 1632 2918 1459 2918 1024 
C 2918 595 2918 377 3110 160 
C 3354 -102 3680 -128 3821 -128 
C 4294 -128 4365 396 4365 503 
C 4365 540 4365 585 4307 585 
C 4256 585 4250 547 4250 522 
C 4218 112 4032 -26 3834 -26 
C 3482 -26 3443 375 3405 764 
C 3386 898 3373 993 3360 1133 
C 3322 1452 3270 1917 2509 2146 
z
M 1984 2214 
L 1254 2214 
L 1254 3913 
C 1254 4129 1267 4160 1523 4160 
L 1990 4160 
C 2522 4160 3142 3977 3142 3190 
C 3142 2372 2464 2214 1984 2214 
z
" transform="scale(0.015625)"/>
     <path id="CMR17-61" d="M 2304 1653 
C 2304 2072 2304 2294 2035 2543 
C 1798 2752 1523 2816 1306 2816 
C 800 2816 435 2407 435 1971 
C 435 1728 627 1728 666 1728 
C 749 1728 896 1778 896 1954 
C 896 2112 774 2181 666 2181 
C 640 2181 608 2174 589 2168 
C 723 2592 1069 2714 1293 2714 
C 1613 2714 1965 2429 1965 1885 
L 1965 1600 
C 1587 1600 1133 1549 774 1357 
C 371 1133 256 813 256 570 
C 256 77 832 -64 1171 -64 
C 1523 -64 1850 139 1990 511 
C 2003 233 2182 -18 2464 -18 
C 2598 -18 2938 70 2938 567 
L 2938 920 
L 2822 920 
L 2822 562 
C 2822 178 2650 128 2566 128 
C 2304 128 2304 458 2304 738 
L 2304 1653 
z
M 1965 870 
C 1965 317 1568 38 1216 38 
C 896 38 646 275 646 570 
C 646 761 730 1100 1101 1305 
C 1408 1478 1760 1504 1965 1504 
L 1965 870 
z
" transform="scale(0.015625)"/>
     <path id="CMR17-63" d="M 2234 2240 
C 2112 2240 1933 2240 1933 2017 
C 1933 1838 2080 1787 2163 1787 
C 2208 1787 2394 1807 2394 2024 
C 2394 2467 1958 2803 1466 2803 
C 787 2803 211 2178 211 1363 
C 211 516 813 -64 1466 -64 
C 2259 -64 2458 677 2458 748 
C 2458 774 2451 793 2406 793 
C 2362 793 2355 787 2330 703 
C 2163 180 1798 51 1523 51 
C 1114 51 621 427 621 1369 
C 621 2338 1094 2688 1472 2688 
C 1722 2688 2093 2573 2234 2240 
z
" transform="scale(0.015625)"/>
     <path id="CMR17-76" d="M 2502 2163 
C 2560 2304 2662 2560 3034 2560 
L 3034 2726 
C 2912 2726 2752 2726 2630 2726 
C 2496 2726 2285 2726 2157 2732 
L 2157 2566 
C 2317 2553 2406 2477 2406 2311 
C 2406 2253 2406 2240 2368 2151 
L 1664 377 
L 902 2286 
C 864 2369 864 2381 864 2407 
C 864 2560 1075 2560 1171 2560 
L 1171 2732 
C 1018 2726 736 2726 576 2726 
C 403 2726 205 2726 64 2732 
L 64 2560 
C 307 2560 442 2560 518 2362 
L 1446 44 
C 1485 -51 1491 -64 1549 -64 
C 1606 -64 1613 -51 1651 44 
L 2502 2163 
z
" transform="scale(0.015625)"/>
     <path id="CMR17-79" d="M 2496 2197 
C 2656 2586 2944 2586 3034 2586 
L 3034 2752 
C 2912 2752 2752 2752 2630 2752 
C 2496 2752 2285 2752 2157 2758 
L 2157 2592 
C 2400 2573 2406 2394 2406 2343 
C 2406 2280 2394 2248 2362 2171 
L 1664 449 
L 902 2306 
C 870 2382 870 2426 870 2433 
C 870 2573 1018 2586 1171 2586 
L 1171 2758 
C 1018 2752 742 2752 582 2752 
C 410 2752 205 2752 64 2758 
L 64 2586 
C 410 2586 448 2554 531 2350 
L 1485 15 
C 1197 -738 1030 -1178 627 -1178 
C 557 -1178 397 -1159 282 -1044 
C 429 -1031 493 -942 493 -833 
C 493 -725 416 -629 288 -629 
C 147 -629 77 -725 77 -840 
C 77 -1095 339 -1280 627 -1280 
C 998 -1280 1229 -922 1357 -604 
L 2496 2197 
z
" transform="scale(0.015625)"/>
    </defs>
    <use xlink:href="#CMR17-52" transform="scale(0.996264)"/>
    <use xlink:href="#CMR17-65" transform="translate(67.791102 0) scale(0.996264)"/>
    <use xlink:href="#CMR17-61" transform="translate(108.276762 0) scale(0.996264)"/>
    <use xlink:href="#CMR17-63" transform="translate(153.96724 0) scale(0.996264)"/>
    <use xlink:href="#CMR17-74" transform="translate(194.4529 0) scale(0.996264)"/>
    <use xlink:href="#CMR17-69" transform="translate(229.733668 0) scale(0.996264)"/>
    <use xlink:href="#CMR17-76" transform="translate(254.604726 0) scale(0.996264)"/>
    <use xlink:href="#CMR17-69" transform="translate(302.897642 0) scale(0.996264)"/>
    <use xlink:href="#CMR17-74" transform="translate(327.768701 0) scale(0.996264)"/>
    <use xlink:href="#CMR17-79" transform="translate(360.447014 0) scale(0.996264)"/>
   </g>
  </g>
 </g>
 <defs>
  <clipPath id="p39bf52db97">
   <rect x="41.730582" y="51.564121" width="893.78709" height="469.58891"/>
  </clipPath>
 </defs>
</svg>
