<?xml version="1.0" encoding="utf-8" standalone="no"?>
<!DOCTYPE svg PUBLIC "-//W3C//DTD SVG 1.1//EN"
  "http://www.w3.org/Graphics/SVG/1.1/DTD/svg11.dtd">
<svg xmlns:xlink="http://www.w3.org/1999/xlink" width="1080pt" height="576pt" viewBox="0 0 1080 576" xmlns="http://www.w3.org/2000/svg" version="1.1">
 <metadata>
  <rdf:RDF xmlns:dc="http://purl.org/dc/elements/1.1/" xmlns:cc="http://creativecommons.org/ns#" xmlns:rdf="http://www.w3.org/1999/02/22-rdf-syntax-ns#">
   <cc:Work>
    <dc:type rdf:resource="http://purl.org/dc/dcmitype/StillImage"/>
    <dc:date>2024-06-28T14:08:38.318592</dc:date>
    <dc:format>image/svg+xml</dc:format>
    <dc:creator>
     <cc:Agent>
      <dc:title>Matplotlib v3.9.0, https://matplotlib.org/</dc:title>
     </cc:Agent>
    </dc:creator>
   </cc:Work>
  </rdf:RDF>
 </metadata>
 <defs>
  <style type="text/css">*{stroke-linejoin: round; stroke-linecap: butt}</style>
 </defs>
 <g id="figure_1">
  <g id="patch_1">
   <path d="M 0 576 
L 1080 576 
L 1080 0 
L 0 0 
z
" style="fill: #ffffff"/>
  </g>
  <g id="axes_1">
   <g id="patch_2">
    <path d="M 48.559071 521.153031 
L 935.517672 521.153031 
L 935.517672 51.564121 
L 48.559071 51.564121 
z
" style="fill: #eaeaf2"/>
   </g>
   <g id="matplotlib.axis_1">
    <g id="xtick_1">
     <g id="line2d_1">
      <path d="M 48.559071 521.153031 
L 48.559071 51.564121 
" clip-path="url(#p78969757ff)" style="fill: none; stroke: #ffffff; stroke-linecap: round"/>
     </g>
     <g id="line2d_2"/>
     <g id="text_1">
      <!-- $\mathdefault{0.00}$ -->
      <g style="fill: #262626" transform="translate(36.419535 537.838907) scale(0.14 -0.14)">
       <defs>
        <path id="CMR17-30" d="M 2688 2025 
C 2688 2416 2682 3080 2413 3591 
C 2176 4039 1798 4198 1466 4198 
C 1158 4198 768 4058 525 3597 
C 269 3118 243 2524 243 2025 
C 243 1661 250 1106 448 619 
C 723 -39 1216 -128 1466 -128 
C 1760 -128 2208 -7 2470 600 
C 2662 1042 2688 1559 2688 2025 
z
M 1466 -26 
C 1056 -26 813 325 723 812 
C 653 1188 653 1738 653 2096 
C 653 2588 653 2997 736 3387 
C 858 3929 1216 4096 1466 4096 
C 1728 4096 2067 3923 2189 3400 
C 2272 3036 2278 2607 2278 2096 
C 2278 1680 2278 1169 2202 792 
C 2067 95 1690 -26 1466 -26 
z
" transform="scale(0.015625)"/>
        <path id="CMMI12-3a" d="M 1178 307 
C 1178 492 1024 619 870 619 
C 685 619 557 466 557 313 
C 557 128 710 0 864 0 
C 1050 0 1178 153 1178 307 
z
" transform="scale(0.015625)"/>
       </defs>
       <use xlink:href="#CMR17-30" transform="scale(0.996264)"/>
       <use xlink:href="#CMMI12-3a" transform="translate(45.690477 0) scale(0.996264)"/>
       <use xlink:href="#CMR17-30" transform="translate(72.787654 0) scale(0.996264)"/>
       <use xlink:href="#CMR17-30" transform="translate(118.478131 0) scale(0.996264)"/>
      </g>
     </g>
    </g>
    <g id="xtick_2">
     <g id="line2d_3">
      <path d="M 154.14938 521.153031 
L 154.14938 51.564121 
" clip-path="url(#p78969757ff)" style="fill: none; stroke: #ffffff; stroke-linecap: round"/>
     </g>
     <g id="line2d_4"/>
     <g id="text_2">
      <!-- $\mathdefault{0.25}$ -->
      <g style="fill: #262626" transform="translate(142.009845 537.838907) scale(0.14 -0.14)">
       <defs>
        <path id="CMR17-32" d="M 2669 989 
L 2554 989 
C 2490 536 2438 459 2413 420 
C 2381 369 1920 369 1830 369 
L 602 369 
C 832 619 1280 1072 1824 1597 
C 2214 1967 2669 2402 2669 3035 
C 2669 3790 2067 4224 1395 4224 
C 691 4224 262 3604 262 3030 
C 262 2780 448 2748 525 2748 
C 589 2748 781 2787 781 3010 
C 781 3207 614 3264 525 3264 
C 486 3264 448 3258 422 3245 
C 544 3790 915 4058 1306 4058 
C 1862 4058 2227 3617 2227 3035 
C 2227 2479 1901 2000 1536 1584 
L 262 146 
L 262 0 
L 2515 0 
L 2669 989 
z
" transform="scale(0.015625)"/>
        <path id="CMR17-35" d="M 730 3692 
C 794 3666 1056 3584 1325 3584 
C 1920 3584 2246 3911 2432 4100 
C 2432 4157 2432 4192 2394 4192 
C 2387 4192 2374 4192 2323 4163 
C 2099 4058 1837 3973 1517 3973 
C 1325 3973 1037 3999 723 4139 
C 653 4171 640 4171 634 4171 
C 602 4171 595 4164 595 4037 
L 595 2203 
C 595 2089 595 2057 659 2057 
C 691 2057 704 2070 736 2114 
C 941 2401 1222 2522 1542 2522 
C 1766 2522 2246 2382 2246 1289 
C 2246 1085 2246 715 2054 421 
C 1894 159 1645 25 1370 25 
C 947 25 518 320 403 814 
C 429 807 480 795 506 795 
C 589 795 749 840 749 1038 
C 749 1210 627 1280 506 1280 
C 358 1280 262 1190 262 1011 
C 262 454 704 -128 1382 -128 
C 2042 -128 2669 440 2669 1264 
C 2669 2030 2170 2624 1549 2624 
C 1222 2624 947 2503 730 2274 
L 730 3692 
z
" transform="scale(0.015625)"/>
       </defs>
       <use xlink:href="#CMR17-30" transform="scale(0.996264)"/>
       <use xlink:href="#CMMI12-3a" transform="translate(45.690477 0) scale(0.996264)"/>
       <use xlink:href="#CMR17-32" transform="translate(72.787654 0) scale(0.996264)"/>
       <use xlink:href="#CMR17-35" transform="translate(118.478131 0) scale(0.996264)"/>
      </g>
     </g>
    </g>
    <g id="xtick_3">
     <g id="line2d_5">
      <path d="M 259.73969 521.153031 
L 259.73969 51.564121 
" clip-path="url(#p78969757ff)" style="fill: none; stroke: #ffffff; stroke-linecap: round"/>
     </g>
     <g id="line2d_6"/>
     <g id="text_3">
      <!-- $\mathdefault{0.50}$ -->
      <g style="fill: #262626" transform="translate(247.600155 537.838907) scale(0.14 -0.14)">
       <use xlink:href="#CMR17-30" transform="scale(0.996264)"/>
       <use xlink:href="#CMMI12-3a" transform="translate(45.690477 0) scale(0.996264)"/>
       <use xlink:href="#CMR17-35" transform="translate(72.787654 0) scale(0.996264)"/>
       <use xlink:href="#CMR17-30" transform="translate(118.478131 0) scale(0.996264)"/>
      </g>
     </g>
    </g>
    <g id="xtick_4">
     <g id="line2d_7">
      <path d="M 365.33 521.153031 
L 365.33 51.564121 
" clip-path="url(#p78969757ff)" style="fill: none; stroke: #ffffff; stroke-linecap: round"/>
     </g>
     <g id="line2d_8"/>
     <g id="text_4">
      <!-- $\mathdefault{0.75}$ -->
      <g style="fill: #262626" transform="translate(353.190464 537.838907) scale(0.14 -0.14)">
       <defs>
        <path id="CMR17-37" d="M 2886 3941 
L 2886 4081 
L 1382 4081 
C 634 4081 621 4165 595 4288 
L 480 4288 
L 294 3094 
L 410 3094 
C 429 3215 474 3540 550 3661 
C 589 3712 1062 3712 1171 3712 
L 2579 3712 
L 1869 2661 
C 1395 1954 1069 999 1069 165 
C 1069 89 1069 -128 1299 -128 
C 1530 -128 1530 89 1530 171 
L 1530 465 
C 1530 1508 1709 2196 2003 2636 
L 2886 3941 
z
" transform="scale(0.015625)"/>
       </defs>
       <use xlink:href="#CMR17-30" transform="scale(0.996264)"/>
       <use xlink:href="#CMMI12-3a" transform="translate(45.690477 0) scale(0.996264)"/>
       <use xlink:href="#CMR17-37" transform="translate(72.787654 0) scale(0.996264)"/>
       <use xlink:href="#CMR17-35" transform="translate(118.478131 0) scale(0.996264)"/>
      </g>
     </g>
    </g>
    <g id="xtick_5">
     <g id="line2d_9">
      <path d="M 470.920309 521.153031 
L 470.920309 51.564121 
" clip-path="url(#p78969757ff)" style="fill: none; stroke: #ffffff; stroke-linecap: round"/>
     </g>
     <g id="line2d_10"/>
     <g id="text_5">
      <!-- $\mathdefault{1.00}$ -->
      <g style="fill: #262626" transform="translate(458.780774 537.838907) scale(0.14 -0.14)">
       <defs>
        <path id="CMR17-31" d="M 1702 4058 
C 1702 4192 1696 4192 1606 4192 
C 1357 3916 979 3827 621 3827 
C 602 3827 570 3827 563 3808 
C 557 3795 557 3782 557 3648 
C 755 3648 1088 3686 1344 3839 
L 1344 461 
C 1344 236 1331 160 781 160 
L 589 160 
L 589 0 
C 896 0 1216 0 1523 0 
C 1830 0 2150 0 2458 0 
L 2458 160 
L 2266 160 
C 1715 160 1702 230 1702 458 
L 1702 4058 
z
" transform="scale(0.015625)"/>
       </defs>
       <use xlink:href="#CMR17-31" transform="scale(0.996264)"/>
       <use xlink:href="#CMMI12-3a" transform="translate(45.690477 0) scale(0.996264)"/>
       <use xlink:href="#CMR17-30" transform="translate(72.787654 0) scale(0.996264)"/>
       <use xlink:href="#CMR17-30" transform="translate(118.478131 0) scale(0.996264)"/>
      </g>
     </g>
    </g>
    <g id="xtick_6">
     <g id="line2d_11">
      <path d="M 576.510619 521.153031 
L 576.510619 51.564121 
" clip-path="url(#p78969757ff)" style="fill: none; stroke: #ffffff; stroke-linecap: round"/>
     </g>
     <g id="line2d_12"/>
     <g id="text_6">
      <!-- $\mathdefault{1.25}$ -->
      <g style="fill: #262626" transform="translate(564.371084 537.838907) scale(0.14 -0.14)">
       <use xlink:href="#CMR17-31" transform="scale(0.996264)"/>
       <use xlink:href="#CMMI12-3a" transform="translate(45.690477 0) scale(0.996264)"/>
       <use xlink:href="#CMR17-32" transform="translate(72.787654 0) scale(0.996264)"/>
       <use xlink:href="#CMR17-35" transform="translate(118.478131 0) scale(0.996264)"/>
      </g>
     </g>
    </g>
    <g id="xtick_7">
     <g id="line2d_13">
      <path d="M 682.100929 521.153031 
L 682.100929 51.564121 
" clip-path="url(#p78969757ff)" style="fill: none; stroke: #ffffff; stroke-linecap: round"/>
     </g>
     <g id="line2d_14"/>
     <g id="text_7">
      <!-- $\mathdefault{1.50}$ -->
      <g style="fill: #262626" transform="translate(669.961393 537.838907) scale(0.14 -0.14)">
       <use xlink:href="#CMR17-31" transform="scale(0.996264)"/>
       <use xlink:href="#CMMI12-3a" transform="translate(45.690477 0) scale(0.996264)"/>
       <use xlink:href="#CMR17-35" transform="translate(72.787654 0) scale(0.996264)"/>
       <use xlink:href="#CMR17-30" transform="translate(118.478131 0) scale(0.996264)"/>
      </g>
     </g>
    </g>
    <g id="xtick_8">
     <g id="line2d_15">
      <path d="M 787.691238 521.153031 
L 787.691238 51.564121 
" clip-path="url(#p78969757ff)" style="fill: none; stroke: #ffffff; stroke-linecap: round"/>
     </g>
     <g id="line2d_16"/>
     <g id="text_8">
      <!-- $\mathdefault{1.75}$ -->
      <g style="fill: #262626" transform="translate(775.551703 537.838907) scale(0.14 -0.14)">
       <use xlink:href="#CMR17-31" transform="scale(0.996264)"/>
       <use xlink:href="#CMMI12-3a" transform="translate(45.690477 0) scale(0.996264)"/>
       <use xlink:href="#CMR17-37" transform="translate(72.787654 0) scale(0.996264)"/>
       <use xlink:href="#CMR17-35" transform="translate(118.478131 0) scale(0.996264)"/>
      </g>
     </g>
    </g>
    <g id="xtick_9">
     <g id="line2d_17">
      <path d="M 893.281548 521.153031 
L 893.281548 51.564121 
" clip-path="url(#p78969757ff)" style="fill: none; stroke: #ffffff; stroke-linecap: round"/>
     </g>
     <g id="line2d_18"/>
     <g id="text_9">
      <!-- $\mathdefault{2.00}$ -->
      <g style="fill: #262626" transform="translate(881.142013 537.838907) scale(0.14 -0.14)">
       <use xlink:href="#CMR17-32" transform="scale(0.996264)"/>
       <use xlink:href="#CMMI12-3a" transform="translate(45.690477 0) scale(0.996264)"/>
       <use xlink:href="#CMR17-30" transform="translate(72.787654 0) scale(0.996264)"/>
       <use xlink:href="#CMR17-30" transform="translate(118.478131 0) scale(0.996264)"/>
      </g>
     </g>
    </g>
    <g id="text_10">
     <!-- $x$ -->
     <g style="fill: #262626" transform="translate(487.603646 555.620524) scale(0.16 -0.16)">
      <defs>
       <path id="CMMI12-78" d="M 3034 2606 
C 2829 2567 2752 2414 2752 2293 
C 2752 2139 2874 2088 2963 2088 
C 3155 2088 3290 2254 3290 2427 
C 3290 2695 2982 2816 2714 2816 
C 2323 2816 2106 2433 2048 2312 
C 1901 2816 1504 2816 1389 2816 
C 736 2816 390 1980 390 1839 
C 390 1814 416 1782 461 1782 
C 512 1782 525 1820 538 1846 
C 755 2555 1184 2689 1370 2689 
C 1658 2689 1715 2420 1715 2267 
C 1715 2127 1677 1980 1600 1673 
L 1382 798 
C 1286 415 1101 64 762 64 
C 730 64 570 64 435 147 
C 666 192 717 383 717 460 
C 717 588 621 664 499 664 
C 346 664 179 530 179 326 
C 179 57 480 -64 755 -64 
C 1062 -64 1280 179 1414 441 
C 1517 64 1837 -64 2074 -64 
C 2726 -64 3072 773 3072 913 
C 3072 945 3046 971 3008 971 
C 2950 971 2944 939 2925 888 
C 2752 326 2381 64 2093 64 
C 1869 64 1747 230 1747 492 
C 1747 632 1773 734 1875 1156 
L 2099 2024 
C 2195 2408 2413 2689 2707 2689 
C 2720 2689 2899 2689 3034 2606 
z
" transform="scale(0.015625)"/>
      </defs>
      <use xlink:href="#CMMI12-78" transform="scale(0.996264)"/>
     </g>
    </g>
   </g>
   <g id="matplotlib.axis_2">
    <g id="ytick_1">
     <g id="line2d_19">
      <path d="M 48.559071 521.153031 
L 935.517672 521.153031 
" clip-path="url(#p78969757ff)" style="fill: none; stroke: #ffffff; stroke-linecap: round"/>
     </g>
     <g id="line2d_20"/>
     <g id="text_11">
      <!-- $\mathdefault{0.00}$ -->
      <g style="fill: #262626" transform="translate(17.28 525.995969) scale(0.14 -0.14)">
       <use xlink:href="#CMR17-30" transform="scale(0.996264)"/>
       <use xlink:href="#CMMI12-3a" transform="translate(45.690477 0) scale(0.996264)"/>
       <use xlink:href="#CMR17-30" transform="translate(72.787654 0) scale(0.996264)"/>
       <use xlink:href="#CMR17-30" transform="translate(118.478131 0) scale(0.996264)"/>
      </g>
     </g>
    </g>
    <g id="ytick_2">
     <g id="line2d_21">
      <path d="M 48.559071 446.588925 
L 935.517672 446.588925 
" clip-path="url(#p78969757ff)" style="fill: none; stroke: #ffffff; stroke-linecap: round"/>
     </g>
     <g id="line2d_22"/>
     <g id="text_12">
      <!-- $\mathdefault{0.05}$ -->
      <g style="fill: #262626" transform="translate(17.28 451.431864) scale(0.14 -0.14)">
       <use xlink:href="#CMR17-30" transform="scale(0.996264)"/>
       <use xlink:href="#CMMI12-3a" transform="translate(45.690477 0) scale(0.996264)"/>
       <use xlink:href="#CMR17-30" transform="translate(72.787654 0) scale(0.996264)"/>
       <use xlink:href="#CMR17-35" transform="translate(118.478131 0) scale(0.996264)"/>
      </g>
     </g>
    </g>
    <g id="ytick_3">
     <g id="line2d_23">
      <path d="M 48.559071 372.02482 
L 935.517672 372.02482 
" clip-path="url(#p78969757ff)" style="fill: none; stroke: #ffffff; stroke-linecap: round"/>
     </g>
     <g id="line2d_24"/>
     <g id="text_13">
      <!-- $\mathdefault{0.10}$ -->
      <g style="fill: #262626" transform="translate(17.28 376.867758) scale(0.14 -0.14)">
       <use xlink:href="#CMR17-30" transform="scale(0.996264)"/>
       <use xlink:href="#CMMI12-3a" transform="translate(45.690477 0) scale(0.996264)"/>
       <use xlink:href="#CMR17-31" transform="translate(72.787654 0) scale(0.996264)"/>
       <use xlink:href="#CMR17-30" transform="translate(118.478131 0) scale(0.996264)"/>
      </g>
     </g>
    </g>
    <g id="ytick_4">
     <g id="line2d_25">
      <path d="M 48.559071 297.460715 
L 935.517672 297.460715 
" clip-path="url(#p78969757ff)" style="fill: none; stroke: #ffffff; stroke-linecap: round"/>
     </g>
     <g id="line2d_26"/>
     <g id="text_14">
      <!-- $\mathdefault{0.15}$ -->
      <g style="fill: #262626" transform="translate(17.28 302.303653) scale(0.14 -0.14)">
       <use xlink:href="#CMR17-30" transform="scale(0.996264)"/>
       <use xlink:href="#CMMI12-3a" transform="translate(45.690477 0) scale(0.996264)"/>
       <use xlink:href="#CMR17-31" transform="translate(72.787654 0) scale(0.996264)"/>
       <use xlink:href="#CMR17-35" transform="translate(118.478131 0) scale(0.996264)"/>
      </g>
     </g>
    </g>
    <g id="ytick_5">
     <g id="line2d_27">
      <path d="M 48.559071 222.896609 
L 935.517672 222.896609 
" clip-path="url(#p78969757ff)" style="fill: none; stroke: #ffffff; stroke-linecap: round"/>
     </g>
     <g id="line2d_28"/>
     <g id="text_15">
      <!-- $\mathdefault{0.20}$ -->
      <g style="fill: #262626" transform="translate(17.28 227.739548) scale(0.14 -0.14)">
       <use xlink:href="#CMR17-30" transform="scale(0.996264)"/>
       <use xlink:href="#CMMI12-3a" transform="translate(45.690477 0) scale(0.996264)"/>
       <use xlink:href="#CMR17-32" transform="translate(72.787654 0) scale(0.996264)"/>
       <use xlink:href="#CMR17-30" transform="translate(118.478131 0) scale(0.996264)"/>
      </g>
     </g>
    </g>
    <g id="ytick_6">
     <g id="line2d_29">
      <path d="M 48.559071 148.332504 
L 935.517672 148.332504 
" clip-path="url(#p78969757ff)" style="fill: none; stroke: #ffffff; stroke-linecap: round"/>
     </g>
     <g id="line2d_30"/>
     <g id="text_16">
      <!-- $\mathdefault{0.25}$ -->
      <g style="fill: #262626" transform="translate(17.28 153.175442) scale(0.14 -0.14)">
       <use xlink:href="#CMR17-30" transform="scale(0.996264)"/>
       <use xlink:href="#CMMI12-3a" transform="translate(45.690477 0) scale(0.996264)"/>
       <use xlink:href="#CMR17-32" transform="translate(72.787654 0) scale(0.996264)"/>
       <use xlink:href="#CMR17-35" transform="translate(118.478131 0) scale(0.996264)"/>
      </g>
     </g>
    </g>
    <g id="ytick_7">
     <g id="line2d_31">
      <path d="M 48.559071 73.768399 
L 935.517672 73.768399 
" clip-path="url(#p78969757ff)" style="fill: none; stroke: #ffffff; stroke-linecap: round"/>
     </g>
     <g id="line2d_32"/>
     <g id="text_17">
      <!-- $\mathdefault{0.30}$ -->
      <g style="fill: #262626" transform="translate(17.28 78.611337) scale(0.14 -0.14)">
       <defs>
        <path id="CMR17-33" d="M 1414 2157 
C 1984 2157 2234 1662 2234 1090 
C 2234 320 1824 25 1453 25 
C 1114 25 563 194 390 693 
C 422 680 454 680 486 680 
C 640 680 755 782 755 948 
C 755 1133 614 1216 486 1216 
C 378 1216 211 1165 211 926 
C 211 335 787 -128 1466 -128 
C 2176 -128 2720 430 2720 1085 
C 2720 1707 2208 2157 1600 2227 
C 2086 2328 2554 2756 2554 3329 
C 2554 3820 2048 4179 1472 4179 
C 890 4179 378 3829 378 3329 
C 378 3110 544 3072 627 3072 
C 762 3072 877 3155 877 3321 
C 877 3486 762 3569 627 3569 
C 602 3569 570 3569 544 3557 
C 730 3959 1235 4032 1459 4032 
C 1683 4032 2106 3925 2106 3320 
C 2106 3143 2080 2828 1862 2550 
C 1670 2304 1453 2304 1242 2284 
C 1210 2284 1062 2269 1037 2269 
C 992 2263 966 2257 966 2208 
C 966 2163 973 2157 1101 2157 
L 1414 2157 
z
" transform="scale(0.015625)"/>
       </defs>
       <use xlink:href="#CMR17-30" transform="scale(0.996264)"/>
       <use xlink:href="#CMMI12-3a" transform="translate(45.690477 0) scale(0.996264)"/>
       <use xlink:href="#CMR17-33" transform="translate(72.787654 0) scale(0.996264)"/>
       <use xlink:href="#CMR17-30" transform="translate(118.478131 0) scale(0.996264)"/>
      </g>
     </g>
    </g>
   </g>
   <g id="line2d_33">
    <path d="M 48.559071 73.768399 
L 57.006295 73.768399 
L 65.45352 73.768399 
L 73.900745 73.768399 
L 82.34797 73.768399 
L 90.795195 73.768399 
L 99.242419 73.768399 
L 107.689644 73.768399 
L 116.136869 73.768399 
L 124.584094 73.768399 
L 133.031318 73.768399 
L 141.478543 73.768399 
L 149.925768 73.768399 
L 158.372993 73.768399 
L 166.820217 73.768399 
L 175.267442 73.768399 
L 183.714667 73.768399 
L 192.161892 73.768399 
L 200.609117 73.768399 
L 209.056341 73.768399 
L 217.503566 73.768399 
L 225.950791 73.768399 
L 234.398016 73.768399 
L 242.84524 73.768399 
L 251.292465 73.768399 
L 259.73969 73.768399 
L 268.186915 73.768399 
L 276.63414 73.768399 
L 285.081364 73.768399 
L 293.528589 73.768399 
L 301.975814 73.768399 
L 310.423039 73.768399 
L 318.870263 73.768399 
L 327.317488 73.768399 
L 335.764713 73.768399 
L 344.211938 73.768399 
L 352.659162 73.768399 
L 361.106387 73.768399 
L 369.553612 73.768399 
L 378.000837 73.768399 
L 386.448062 73.768399 
L 394.895286 73.768399 
L 403.342511 73.768399 
L 411.789736 73.768399 
L 420.236961 73.768399 
L 428.684185 73.768399 
L 437.13141 73.768399 
L 445.578635 73.768399 
L 454.02586 73.768399 
L 462.473085 73.768399 
L 470.920309 73.768399 
L 479.367534 73.768399 
L 487.814759 73.768399 
L 496.261984 73.768399 
L 504.709208 73.768399 
L 513.156433 73.768399 
L 521.603658 73.768399 
L 530.050883 73.768399 
L 538.498107 73.768399 
L 546.945332 73.768399 
L 555.392557 73.768399 
L 563.839782 73.768399 
L 572.287007 73.768399 
L 580.734231 73.768399 
L 589.181456 73.768399 
L 597.628681 73.768399 
L 606.075906 73.768399 
L 614.52313 73.768399 
L 622.970355 73.768399 
L 631.41758 73.768399 
L 639.864805 73.768399 
L 648.31203 73.768399 
L 656.759254 73.768399 
L 665.206479 73.768399 
L 673.653704 73.768399 
L 682.100929 73.768399 
L 690.548153 73.768399 
L 698.995378 73.768399 
L 707.442603 73.768399 
L 715.889828 73.768399 
L 724.337052 73.768399 
L 732.784277 73.768399 
L 741.231502 73.768399 
L 749.678727 73.768399 
L 758.125952 73.768399 
L 766.573176 73.768399 
L 775.020401 73.768399 
L 783.467626 73.768399 
L 791.914851 73.768399 
L 800.362075 73.768399 
L 808.8093 73.768399 
L 817.256525 73.768399 
L 825.70375 73.768399 
L 834.150975 73.768399 
L 842.598199 73.768399 
L 851.045424 73.768399 
L 859.492649 73.768399 
L 867.939874 73.768399 
L 876.387098 73.768399 
L 884.834323 73.768399 
L 893.281548 73.768399 
" clip-path="url(#p78969757ff)" style="fill: none; stroke: #393b79; stroke-width: 2; stroke-linecap: round"/>
   </g>
   <g id="line2d_34">
    <path d="M 48.559071 116.220796 
L 57.006295 116.220796 
L 65.45352 116.220796 
L 73.900745 116.220796 
L 82.34797 116.220796 
L 90.795195 116.220796 
L 99.242419 116.220796 
L 107.689644 116.220796 
L 116.136869 116.220796 
L 124.584094 116.220796 
L 133.031318 116.220796 
L 141.478543 116.220796 
L 149.925768 116.220796 
L 158.372993 116.220796 
L 166.820217 116.220796 
L 175.267442 116.220796 
L 183.714667 116.220796 
L 192.161892 116.220796 
L 200.609117 116.220796 
L 209.056341 116.220796 
L 217.503566 116.220796 
L 225.950791 116.220796 
L 234.398016 116.220796 
L 242.84524 116.220796 
L 251.292465 116.220796 
L 259.73969 116.220796 
L 268.186915 116.220796 
L 276.63414 116.220796 
L 285.081364 116.220796 
L 293.528589 116.220796 
L 301.975814 116.220796 
L 310.423039 116.220796 
L 318.870263 116.220796 
L 327.317488 116.220796 
L 335.764713 116.220796 
L 344.211938 116.220796 
L 352.659162 116.220796 
L 361.106387 116.220796 
L 369.553612 116.220796 
L 378.000837 116.220796 
L 386.448062 116.220796 
L 394.895286 116.220796 
L 403.342511 116.220796 
L 411.789736 116.220796 
L 420.236961 116.220796 
L 428.684185 116.220796 
L 437.13141 116.220796 
L 445.578635 116.220796 
L 454.02586 116.220796 
L 462.473085 116.220796 
L 470.920309 116.220796 
L 479.367534 116.220796 
L 487.814759 116.220796 
L 496.261984 116.220796 
L 504.709208 116.220796 
L 513.156433 116.220796 
L 521.603658 116.220796 
L 530.050883 116.220796 
L 538.498107 116.220796 
L 546.945332 116.220796 
L 555.392557 116.220796 
L 563.839782 116.220796 
L 572.287007 116.220796 
L 580.734231 116.220796 
L 589.181456 116.220796 
L 597.628681 116.220796 
L 606.075906 116.220796 
L 614.52313 116.220796 
L 622.970355 116.220796 
L 631.41758 116.220796 
L 639.864805 116.220796 
L 648.31203 116.220796 
L 656.759254 116.220796 
L 665.206479 116.220796 
L 673.653704 116.220796 
L 682.100929 116.220796 
L 690.548153 116.220796 
L 698.995378 116.220796 
L 707.442603 116.220796 
L 715.889828 116.220796 
L 724.337052 116.220796 
L 732.784277 116.220796 
L 741.231502 116.220796 
L 749.678727 116.220796 
L 758.125952 116.220796 
L 766.573176 116.220796 
L 775.020401 116.220796 
L 783.467626 116.220796 
L 791.914851 116.220796 
L 800.362075 116.220796 
L 808.8093 116.220796 
L 817.256525 116.220796 
L 825.70375 116.220796 
L 834.150975 116.220796 
L 842.598199 116.220796 
L 851.045424 116.220796 
L 859.492649 116.220796 
L 867.939874 116.220796 
L 876.387098 116.220796 
L 884.834323 116.220796 
L 893.281548 116.220796 
" clip-path="url(#p78969757ff)" style="fill: none; stroke: #6b6ecf; stroke-width: 2; stroke-linecap: round"/>
   </g>
   <g id="line2d_35">
    <path d="M 48.559071 239.79505 
L 57.006295 239.79505 
L 65.45352 239.79505 
L 73.900745 239.79505 
L 82.34797 239.79505 
L 90.795195 239.79505 
L 99.242419 239.79505 
L 107.689644 239.79505 
L 116.136869 239.79505 
L 124.584094 239.79505 
L 133.031318 239.79505 
L 141.478543 239.79505 
L 149.925768 239.79505 
L 158.372993 239.79505 
L 166.820217 239.79505 
L 175.267442 239.79505 
L 183.714667 239.79505 
L 192.161892 239.79505 
L 200.609117 239.79505 
L 209.056341 239.79505 
L 217.503566 239.79505 
L 225.950791 239.79505 
L 234.398016 239.79505 
L 242.84524 239.79505 
L 251.292465 239.79505 
L 259.73969 239.79505 
L 268.186915 239.79505 
L 276.63414 239.79505 
L 285.081364 239.79505 
L 293.528589 239.79505 
L 301.975814 239.79505 
L 310.423039 239.79505 
L 318.870263 239.79505 
L 327.317488 239.79505 
L 335.764713 239.79505 
L 344.211938 239.79505 
L 352.659162 239.79505 
L 361.106387 239.79505 
L 369.553612 239.79505 
L 378.000837 239.79505 
L 386.448062 239.79505 
L 394.895286 239.79505 
L 403.342511 239.79505 
L 411.789736 239.79505 
L 420.236961 239.79505 
L 428.684185 239.79505 
L 437.13141 239.79505 
L 445.578635 239.79505 
L 454.02586 239.79505 
L 462.473085 239.79505 
L 470.920309 239.79505 
L 479.367534 239.79505 
L 487.814759 239.79505 
L 496.261984 239.79505 
L 504.709208 239.79505 
L 513.156433 239.79505 
L 521.603658 239.79505 
L 530.050883 239.79505 
L 538.498107 239.79505 
L 546.945332 239.79505 
L 555.392557 239.79505 
L 563.839782 239.79505 
L 572.287007 239.79505 
L 580.734231 239.79505 
L 589.181456 239.79505 
L 597.628681 239.79505 
L 606.075906 239.79505 
L 614.52313 239.79505 
L 622.970355 239.79505 
L 631.41758 239.79505 
L 639.864805 239.79505 
L 648.31203 239.79505 
L 656.759254 239.79505 
L 665.206479 239.79505 
L 673.653704 239.79505 
L 682.100929 239.79505 
L 690.548153 239.79505 
L 698.995378 239.79505 
L 707.442603 239.79505 
L 715.889828 239.79505 
L 724.337052 239.79505 
L 732.784277 239.79505 
L 741.231502 239.79505 
L 749.678727 239.79505 
L 758.125952 239.79505 
L 766.573176 239.79505 
L 775.020401 239.79505 
L 783.467626 239.79505 
L 791.914851 239.79505 
L 800.362075 239.79505 
L 808.8093 239.79505 
L 817.256525 239.79505 
L 825.70375 239.79505 
L 834.150975 239.79505 
L 842.598199 239.79505 
L 851.045424 239.79505 
L 859.492649 239.79505 
L 867.939874 239.79505 
L 876.387098 239.79505 
L 884.834323 239.79505 
L 893.281548 239.79505 
" clip-path="url(#p78969757ff)" style="fill: none; stroke: #637939; stroke-width: 2; stroke-linecap: round"/>
   </g>
   <g id="line2d_36">
    <path d="M 48.559071 328.725048 
L 57.006295 328.725048 
L 65.45352 328.725048 
L 73.900745 328.725048 
L 82.34797 328.725048 
L 90.795195 328.725048 
L 99.242419 328.725048 
L 107.689644 328.725048 
L 116.136869 328.725048 
L 124.584094 328.725048 
L 133.031318 328.725048 
L 141.478543 328.725048 
L 149.925768 328.725048 
L 158.372993 328.725048 
L 166.820217 328.725048 
L 175.267442 328.725048 
L 183.714667 328.725048 
L 192.161892 328.725048 
L 200.609117 328.725048 
L 209.056341 328.725048 
L 217.503566 328.725048 
L 225.950791 328.725048 
L 234.398016 328.725048 
L 242.84524 328.725048 
L 251.292465 328.725048 
L 259.73969 328.725048 
L 268.186915 328.725048 
L 276.63414 328.725048 
L 285.081364 328.725048 
L 293.528589 328.725048 
L 301.975814 328.725048 
L 310.423039 328.725048 
L 318.870263 328.725048 
L 327.317488 328.725048 
L 335.764713 328.725048 
L 344.211938 328.725048 
L 352.659162 328.725048 
L 361.106387 328.725048 
L 369.553612 328.725048 
L 378.000837 328.725048 
L 386.448062 328.725048 
L 394.895286 328.725048 
L 403.342511 328.725048 
L 411.789736 328.725048 
L 420.236961 328.725048 
L 428.684185 328.725048 
L 437.13141 328.725048 
L 445.578635 328.725048 
L 454.02586 328.725048 
L 462.473085 328.725048 
L 470.920309 328.725048 
L 479.367534 328.725048 
L 487.814759 328.725048 
L 496.261984 328.725048 
L 504.709208 328.725048 
L 513.156433 328.725048 
L 521.603658 328.725048 
L 530.050883 328.725048 
L 538.498107 328.725048 
L 546.945332 328.725048 
L 555.392557 328.725048 
L 563.839782 328.725048 
L 572.287007 328.725048 
L 580.734231 328.725048 
L 589.181456 328.725048 
L 597.628681 328.725048 
L 606.075906 328.725048 
L 614.52313 328.725048 
L 622.970355 328.725048 
L 631.41758 328.725048 
L 639.864805 328.725048 
L 648.31203 328.725048 
L 656.759254 328.725048 
L 665.206479 328.725048 
L 673.653704 328.725048 
L 682.100929 328.725048 
L 690.548153 328.725048 
L 698.995378 328.725048 
L 707.442603 328.725048 
L 715.889828 328.725048 
L 724.337052 328.725048 
L 732.784277 328.725048 
L 741.231502 328.725048 
L 749.678727 328.725048 
L 758.125952 328.725048 
L 766.573176 328.725048 
L 775.020401 328.725048 
L 783.467626 328.725048 
L 791.914851 328.725048 
L 800.362075 328.725048 
L 808.8093 328.725048 
L 817.256525 328.725048 
L 825.70375 328.725048 
L 834.150975 328.725048 
L 842.598199 328.725048 
L 851.045424 328.725048 
L 859.492649 328.725048 
L 867.939874 328.725048 
L 876.387098 328.725048 
L 884.834323 328.725048 
L 893.281548 328.725048 
" clip-path="url(#p78969757ff)" style="fill: none; stroke: #b5cf6b; stroke-width: 2; stroke-linecap: round"/>
   </g>
   <g id="line2d_37">
    <path d="M 48.559071 438.80772 
L 57.006295 438.80772 
L 65.45352 438.80772 
L 73.900745 438.80772 
L 82.34797 438.80772 
L 90.795195 438.80772 
L 99.242419 438.80772 
L 107.689644 438.80772 
L 116.136869 438.80772 
L 124.584094 438.80772 
L 133.031318 438.80772 
L 141.478543 438.80772 
L 149.925768 438.80772 
L 158.372993 438.80772 
L 166.820217 438.80772 
L 175.267442 438.80772 
L 183.714667 438.80772 
L 192.161892 438.80772 
L 200.609117 438.80772 
L 209.056341 438.80772 
L 217.503566 438.80772 
L 225.950791 438.80772 
L 234.398016 438.80772 
L 242.84524 438.80772 
L 251.292465 438.80772 
L 259.73969 438.80772 
L 268.186915 438.80772 
L 276.63414 438.80772 
L 285.081364 438.80772 
L 293.528589 438.80772 
L 301.975814 438.80772 
L 310.423039 438.80772 
L 318.870263 438.80772 
L 327.317488 438.80772 
L 335.764713 438.80772 
L 344.211938 438.80772 
L 352.659162 438.80772 
L 361.106387 438.80772 
L 369.553612 438.80772 
L 378.000837 438.80772 
L 386.448062 438.80772 
L 394.895286 438.80772 
L 403.342511 438.80772 
L 411.789736 438.80772 
L 420.236961 438.80772 
L 428.684185 438.80772 
L 437.13141 438.80772 
L 445.578635 438.80772 
L 454.02586 438.80772 
L 462.473085 438.80772 
L 470.920309 438.80772 
L 479.367534 438.80772 
L 487.814759 438.80772 
L 496.261984 438.80772 
L 504.709208 438.80772 
L 513.156433 438.80772 
L 521.603658 438.80772 
L 530.050883 438.80772 
L 538.498107 438.80772 
L 546.945332 438.80772 
L 555.392557 438.80772 
L 563.839782 438.80772 
L 572.287007 438.80772 
L 580.734231 438.80772 
L 589.181456 438.80772 
L 597.628681 438.80772 
L 606.075906 438.80772 
L 614.52313 438.80772 
L 622.970355 438.80772 
L 631.41758 438.80772 
L 639.864805 438.80772 
L 648.31203 438.80772 
L 656.759254 438.80772 
L 665.206479 438.80772 
L 673.653704 438.80772 
L 682.100929 438.80772 
L 690.548153 438.80772 
L 698.995378 438.80772 
L 707.442603 438.80772 
L 715.889828 438.80772 
L 724.337052 438.80772 
L 732.784277 438.80772 
L 741.231502 438.80772 
L 749.678727 438.80772 
L 758.125952 438.80772 
L 766.573176 438.80772 
L 775.020401 438.80772 
L 783.467626 438.80772 
L 791.914851 438.80772 
L 800.362075 438.80772 
L 808.8093 438.80772 
L 817.256525 438.80772 
L 825.70375 438.80772 
L 834.150975 438.80772 
L 842.598199 438.80772 
L 851.045424 438.80772 
L 859.492649 438.80772 
L 867.939874 438.80772 
L 876.387098 438.80772 
L 884.834323 438.80772 
L 893.281548 438.80772 
" clip-path="url(#p78969757ff)" style="fill: none; stroke: #8c6d31; stroke-width: 2; stroke-linecap: round"/>
   </g>
   <g id="line2d_38">
    <path d="M 48.559071 489.401835 
L 57.006295 489.401835 
L 65.45352 489.401835 
L 73.900745 489.401835 
L 82.34797 489.401835 
L 90.795195 489.401835 
L 99.242419 489.401835 
L 107.689644 489.401835 
L 116.136869 489.401835 
L 124.584094 489.401835 
L 133.031318 489.401835 
L 141.478543 489.401835 
L 149.925768 489.401835 
L 158.372993 489.401835 
L 166.820217 489.401835 
L 175.267442 489.401835 
L 183.714667 489.401835 
L 192.161892 489.401835 
L 200.609117 489.401835 
L 209.056341 489.401835 
L 217.503566 489.401835 
L 225.950791 489.401835 
L 234.398016 489.401835 
L 242.84524 489.401835 
L 251.292465 489.401835 
L 259.73969 489.401835 
L 268.186915 489.401835 
L 276.63414 489.401835 
L 285.081364 489.401835 
L 293.528589 489.401835 
L 301.975814 489.401835 
L 310.423039 489.401835 
L 318.870263 489.401835 
L 327.317488 489.401835 
L 335.764713 489.401835 
L 344.211938 489.401835 
L 352.659162 489.401835 
L 361.106387 489.401835 
L 369.553612 489.401835 
L 378.000837 489.401835 
L 386.448062 489.401835 
L 394.895286 489.401835 
L 403.342511 489.401835 
L 411.789736 489.401835 
L 420.236961 489.401835 
L 428.684185 489.401835 
L 437.13141 489.401835 
L 445.578635 489.401835 
L 454.02586 489.401835 
L 462.473085 489.401835 
L 470.920309 489.401835 
L 479.367534 489.401835 
L 487.814759 489.401835 
L 496.261984 489.401835 
L 504.709208 489.401835 
L 513.156433 489.401835 
L 521.603658 489.401835 
L 530.050883 489.401835 
L 538.498107 489.401835 
L 546.945332 489.401835 
L 555.392557 489.401835 
L 563.839782 489.401835 
L 572.287007 489.401835 
L 580.734231 489.401835 
L 589.181456 489.401835 
L 597.628681 489.401835 
L 606.075906 489.401835 
L 614.52313 489.401835 
L 622.970355 489.401835 
L 631.41758 489.401835 
L 639.864805 489.401835 
L 648.31203 489.401835 
L 656.759254 489.401835 
L 665.206479 489.401835 
L 673.653704 489.401835 
L 682.100929 489.401835 
L 690.548153 489.401835 
L 698.995378 489.401835 
L 707.442603 489.401835 
L 715.889828 489.401835 
L 724.337052 489.401835 
L 732.784277 489.401835 
L 741.231502 489.401835 
L 749.678727 489.401835 
L 758.125952 489.401835 
L 766.573176 489.401835 
L 775.020401 489.401835 
L 783.467626 489.401835 
L 791.914851 489.401835 
L 800.362075 489.401835 
L 808.8093 489.401835 
L 817.256525 489.401835 
L 825.70375 489.401835 
L 834.150975 489.401835 
L 842.598199 489.401835 
L 851.045424 489.401835 
L 859.492649 489.401835 
L 867.939874 489.401835 
L 876.387098 489.401835 
L 884.834323 489.401835 
L 893.281548 489.401835 
" clip-path="url(#p78969757ff)" style="fill: none; stroke: #e7cb94; stroke-width: 2; stroke-linecap: round"/>
   </g>
   <g id="line2d_39">
    <path d="M 48.559071 505.424626 
L 57.006295 505.424626 
L 65.45352 505.424626 
L 73.900745 505.424626 
L 82.34797 505.424626 
L 90.795195 505.424626 
L 99.242419 505.424626 
L 107.689644 505.424626 
L 116.136869 505.424626 
L 124.584094 505.424626 
L 133.031318 505.424626 
L 141.478543 505.424626 
L 149.925768 505.424626 
L 158.372993 505.424626 
L 166.820217 505.424626 
L 175.267442 505.424626 
L 183.714667 505.424626 
L 192.161892 505.424626 
L 200.609117 505.424626 
L 209.056341 505.424626 
L 217.503566 505.424626 
L 225.950791 505.424626 
L 234.398016 505.424626 
L 242.84524 505.424626 
L 251.292465 505.424626 
L 259.73969 505.424626 
L 268.186915 505.424626 
L 276.63414 505.424626 
L 285.081364 505.424626 
L 293.528589 505.424626 
L 301.975814 505.424626 
L 310.423039 505.424626 
L 318.870263 505.424626 
L 327.317488 505.424626 
L 335.764713 505.424626 
L 344.211938 505.424626 
L 352.659162 505.424626 
L 361.106387 505.424626 
L 369.553612 505.424626 
L 378.000837 505.424626 
L 386.448062 505.424626 
L 394.895286 505.424626 
L 403.342511 505.424626 
L 411.789736 505.424626 
L 420.236961 505.424626 
L 428.684185 505.424626 
L 437.13141 505.424626 
L 445.578635 505.424626 
L 454.02586 505.424626 
L 462.473085 505.424626 
L 470.920309 505.424626 
L 479.367534 505.424626 
L 487.814759 505.424626 
L 496.261984 505.424626 
L 504.709208 505.424626 
L 513.156433 505.424626 
L 521.603658 505.424626 
L 530.050883 505.424626 
L 538.498107 505.424626 
L 546.945332 505.424626 
L 555.392557 505.424626 
L 563.839782 505.424626 
L 572.287007 505.424626 
L 580.734231 505.424626 
L 589.181456 505.424626 
L 597.628681 505.424626 
L 606.075906 505.424626 
L 614.52313 505.424626 
L 622.970355 505.424626 
L 631.41758 505.424626 
L 639.864805 505.424626 
L 648.31203 505.424626 
L 656.759254 505.424626 
L 665.206479 505.424626 
L 673.653704 505.424626 
L 682.100929 505.424626 
L 690.548153 505.424626 
L 698.995378 505.424626 
L 707.442603 505.424626 
L 715.889828 505.424626 
L 724.337052 505.424626 
L 732.784277 505.424626 
L 741.231502 505.424626 
L 749.678727 505.424626 
L 758.125952 505.424626 
L 766.573176 505.424626 
L 775.020401 505.424626 
L 783.467626 505.424626 
L 791.914851 505.424626 
L 800.362075 505.424626 
L 808.8093 505.424626 
L 817.256525 505.424626 
L 825.70375 505.424626 
L 834.150975 505.424626 
L 842.598199 505.424626 
L 851.045424 505.424626 
L 859.492649 505.424626 
L 867.939874 505.424626 
L 876.387098 505.424626 
L 884.834323 505.424626 
L 893.281548 505.424626 
" clip-path="url(#p78969757ff)" style="fill: none; stroke: #ad494a; stroke-width: 2; stroke-linecap: round"/>
   </g>
   <g id="line2d_40">
    <path d="M 48.559071 512.39237 
L 57.006295 512.39237 
L 65.45352 512.39237 
L 73.900745 512.39237 
L 82.34797 512.39237 
L 90.795195 512.39237 
L 99.242419 512.39237 
L 107.689644 512.39237 
L 116.136869 512.39237 
L 124.584094 512.39237 
L 133.031318 512.39237 
L 141.478543 512.39237 
L 149.925768 512.39237 
L 158.372993 512.39237 
L 166.820217 512.39237 
L 175.267442 512.39237 
L 183.714667 512.39237 
L 192.161892 512.39237 
L 200.609117 512.39237 
L 209.056341 512.39237 
L 217.503566 512.39237 
L 225.950791 512.39237 
L 234.398016 512.39237 
L 242.84524 512.39237 
L 251.292465 512.39237 
L 259.73969 512.39237 
L 268.186915 512.39237 
L 276.63414 512.39237 
L 285.081364 512.39237 
L 293.528589 512.39237 
L 301.975814 512.39237 
L 310.423039 512.39237 
L 318.870263 512.39237 
L 327.317488 512.39237 
L 335.764713 512.39237 
L 344.211938 512.39237 
L 352.659162 512.39237 
L 361.106387 512.39237 
L 369.553612 512.39237 
L 378.000837 512.39237 
L 386.448062 512.39237 
L 394.895286 512.39237 
L 403.342511 512.39237 
L 411.789736 512.39237 
L 420.236961 512.39237 
L 428.684185 512.39237 
L 437.13141 512.39237 
L 445.578635 512.39237 
L 454.02586 512.39237 
L 462.473085 512.39237 
L 470.920309 512.39237 
L 479.367534 512.39237 
L 487.814759 512.39237 
L 496.261984 512.39237 
L 504.709208 512.39237 
L 513.156433 512.39237 
L 521.603658 512.39237 
L 530.050883 512.39237 
L 538.498107 512.39237 
L 546.945332 512.39237 
L 555.392557 512.39237 
L 563.839782 512.39237 
L 572.287007 512.39237 
L 580.734231 512.39237 
L 589.181456 512.39237 
L 597.628681 512.39237 
L 606.075906 512.39237 
L 614.52313 512.39237 
L 622.970355 512.39237 
L 631.41758 512.39237 
L 639.864805 512.39237 
L 648.31203 512.39237 
L 656.759254 512.39237 
L 665.206479 512.39237 
L 673.653704 512.39237 
L 682.100929 512.39237 
L 690.548153 512.39237 
L 698.995378 512.39237 
L 707.442603 512.39237 
L 715.889828 512.39237 
L 724.337052 512.39237 
L 732.784277 512.39237 
L 741.231502 512.39237 
L 749.678727 512.39237 
L 758.125952 512.39237 
L 766.573176 512.39237 
L 775.020401 512.39237 
L 783.467626 512.39237 
L 791.914851 512.39237 
L 800.362075 512.39237 
L 808.8093 512.39237 
L 817.256525 512.39237 
L 825.70375 512.39237 
L 834.150975 512.39237 
L 842.598199 512.39237 
L 851.045424 512.39237 
L 859.492649 512.39237 
L 867.939874 512.39237 
L 876.387098 512.39237 
L 884.834323 512.39237 
L 893.281548 512.39237 
" clip-path="url(#p78969757ff)" style="fill: none; stroke: #e7969c; stroke-width: 2; stroke-linecap: round"/>
   </g>
   <g id="line2d_41">
    <path d="M 48.559071 515.960985 
L 57.006295 515.960985 
L 65.45352 515.960985 
L 73.900745 515.960985 
L 82.34797 515.960985 
L 90.795195 515.960985 
L 99.242419 515.960985 
L 107.689644 515.960985 
L 116.136869 515.960985 
L 124.584094 515.960985 
L 133.031318 515.960985 
L 141.478543 515.960985 
L 149.925768 515.960985 
L 158.372993 515.960985 
L 166.820217 515.960985 
L 175.267442 515.960985 
L 183.714667 515.960985 
L 192.161892 515.960985 
L 200.609117 515.960985 
L 209.056341 515.960985 
L 217.503566 515.960985 
L 225.950791 515.960985 
L 234.398016 515.960985 
L 242.84524 515.960985 
L 251.292465 515.960985 
L 259.73969 515.960985 
L 268.186915 515.960985 
L 276.63414 515.960985 
L 285.081364 515.960985 
L 293.528589 515.960985 
L 301.975814 515.960985 
L 310.423039 515.960985 
L 318.870263 515.960985 
L 327.317488 515.960985 
L 335.764713 515.960985 
L 344.211938 515.960985 
L 352.659162 515.960985 
L 361.106387 515.960985 
L 369.553612 515.960985 
L 378.000837 515.960985 
L 386.448062 515.960985 
L 394.895286 515.960985 
L 403.342511 515.960985 
L 411.789736 515.960985 
L 420.236961 515.960985 
L 428.684185 515.960985 
L 437.13141 515.960985 
L 445.578635 515.960985 
L 454.02586 515.960985 
L 462.473085 515.960985 
L 470.920309 515.960985 
L 479.367534 515.960985 
L 487.814759 515.960985 
L 496.261984 515.960985 
L 504.709208 515.960985 
L 513.156433 515.960985 
L 521.603658 515.960985 
L 530.050883 515.960985 
L 538.498107 515.960985 
L 546.945332 515.960985 
L 555.392557 515.960985 
L 563.839782 515.960985 
L 572.287007 515.960985 
L 580.734231 515.960985 
L 589.181456 515.960985 
L 597.628681 515.960985 
L 606.075906 515.960985 
L 614.52313 515.960985 
L 622.970355 515.960985 
L 631.41758 515.960985 
L 639.864805 515.960985 
L 648.31203 515.960985 
L 656.759254 515.960985 
L 665.206479 515.960985 
L 673.653704 515.960985 
L 682.100929 515.960985 
L 690.548153 515.960985 
L 698.995378 515.960985 
L 707.442603 515.960985 
L 715.889828 515.960985 
L 724.337052 515.960985 
L 732.784277 515.960985 
L 741.231502 515.960985 
L 749.678727 515.960985 
L 758.125952 515.960985 
L 766.573176 515.960985 
L 775.020401 515.960985 
L 783.467626 515.960985 
L 791.914851 515.960985 
L 800.362075 515.960985 
L 808.8093 515.960985 
L 817.256525 515.960985 
L 825.70375 515.960985 
L 834.150975 515.960985 
L 842.598199 515.960985 
L 851.045424 515.960985 
L 859.492649 515.960985 
L 867.939874 515.960985 
L 876.387098 515.960985 
L 884.834323 515.960985 
L 893.281548 515.960985 
" clip-path="url(#p78969757ff)" style="fill: none; stroke: #a55194; stroke-width: 2; stroke-linecap: round"/>
   </g>
   <g id="line2d_42">
    <path d="M 48.559071 517.853957 
L 57.006295 517.853957 
L 65.45352 517.853957 
L 73.900745 517.853957 
L 82.34797 517.853957 
L 90.795195 517.853957 
L 99.242419 517.853957 
L 107.689644 517.853957 
L 116.136869 517.853957 
L 124.584094 517.853957 
L 133.031318 517.853957 
L 141.478543 517.853957 
L 149.925768 517.853957 
L 158.372993 517.853957 
L 166.820217 517.853957 
L 175.267442 517.853957 
L 183.714667 517.853957 
L 192.161892 517.853957 
L 200.609117 517.853957 
L 209.056341 517.853957 
L 217.503566 517.853957 
L 225.950791 517.853957 
L 234.398016 517.853957 
L 242.84524 517.853957 
L 251.292465 517.853957 
L 259.73969 517.853957 
L 268.186915 517.853957 
L 276.63414 517.853957 
L 285.081364 517.853957 
L 293.528589 517.853957 
L 301.975814 517.853957 
L 310.423039 517.853957 
L 318.870263 517.853957 
L 327.317488 517.853957 
L 335.764713 517.853957 
L 344.211938 517.853957 
L 352.659162 517.853957 
L 361.106387 517.853957 
L 369.553612 517.853957 
L 378.000837 517.853957 
L 386.448062 517.853957 
L 394.895286 517.853957 
L 403.342511 517.853957 
L 411.789736 517.853957 
L 420.236961 517.853957 
L 428.684185 517.853957 
L 437.13141 517.853957 
L 445.578635 517.853957 
L 454.02586 517.853957 
L 462.473085 517.853957 
L 470.920309 517.853957 
L 479.367534 517.853957 
L 487.814759 517.853957 
L 496.261984 517.853957 
L 504.709208 517.853957 
L 513.156433 517.853957 
L 521.603658 517.853957 
L 530.050883 517.853957 
L 538.498107 517.853957 
L 546.945332 517.853957 
L 555.392557 517.853957 
L 563.839782 517.853957 
L 572.287007 517.853957 
L 580.734231 517.853957 
L 589.181456 517.853957 
L 597.628681 517.853957 
L 606.075906 517.853957 
L 614.52313 517.853957 
L 622.970355 517.853957 
L 631.41758 517.853957 
L 639.864805 517.853957 
L 648.31203 517.853957 
L 656.759254 517.853957 
L 665.206479 517.853957 
L 673.653704 517.853957 
L 682.100929 517.853957 
L 690.548153 517.853957 
L 698.995378 517.853957 
L 707.442603 517.853957 
L 715.889828 517.853957 
L 724.337052 517.853957 
L 732.784277 517.853957 
L 741.231502 517.853957 
L 749.678727 517.853957 
L 758.125952 517.853957 
L 766.573176 517.853957 
L 775.020401 517.853957 
L 783.467626 517.853957 
L 791.914851 517.853957 
L 800.362075 517.853957 
L 808.8093 517.853957 
L 817.256525 517.853957 
L 825.70375 517.853957 
L 834.150975 517.853957 
L 842.598199 517.853957 
L 851.045424 517.853957 
L 859.492649 517.853957 
L 867.939874 517.853957 
L 876.387098 517.853957 
L 884.834323 517.853957 
L 893.281548 517.853957 
" clip-path="url(#p78969757ff)" style="fill: none; stroke: #de9ed6; stroke-width: 2; stroke-linecap: round"/>
   </g>
   <g id="patch_3">
    <path d="M 48.559071 521.153031 
L 48.559071 51.564121 
" style="fill: none"/>
   </g>
   <g id="patch_4">
    <path d="M 935.517672 521.153031 
L 935.517672 51.564121 
" style="fill: none"/>
   </g>
   <g id="patch_5">
    <path d="M 48.559071 521.153031 
L 935.517672 521.153031 
" style="fill: none"/>
   </g>
   <g id="patch_6">
    <path d="M 48.559071 51.564121 
L 935.517672 51.564121 
" style="fill: none"/>
   </g>
   <g id="patch_7">
    <path d="M 470.920309 105.592871 
Q 470.920309 288.354566 470.920309 469.439209 
" style="fill: none; stroke: #000000; stroke-width: 1.5; stroke-linecap: round"/>
    <path d="M 474.120309 463.039209 
L 470.920309 469.439209 
L 467.720309 463.039209 
" style="fill: none; stroke: #000000; stroke-width: 1.5; stroke-linecap: round"/>
   </g>
   <g id="text_18">
    <!-- Time -->
    <g style="fill: #262626" transform="translate(492.038371 469.62743) scale(0.18 -0.18)">
     <defs>
      <path id="CMR17-54" d="M 3981 4326 
L 288 4326 
L 179 2918 
L 294 2918 
C 378 3976 467 4160 1453 4160 
C 1568 4160 1754 4160 1805 4154 
C 1926 4135 1926 4058 1926 3912 
L 1926 459 
C 1926 230 1907 160 1376 160 
L 1197 160 
L 1197 0 
C 1504 0 1824 0 2138 0 
C 2451 0 2771 0 3078 0 
L 3078 160 
L 2899 160 
C 2368 160 2349 230 2349 459 
L 2349 3912 
C 2349 4052 2349 4129 2464 4154 
C 2515 4160 2701 4160 2816 4160 
C 3795 4160 3891 3976 3974 2918 
L 4090 2918 
L 3981 4326 
z
" transform="scale(0.015625)"/>
      <path id="CMR17-69" d="M 992 3909 
C 992 4049 877 4170 730 4170 
C 589 4170 467 4056 467 3909 
C 467 3769 582 3648 730 3648 
C 870 3648 992 3763 992 3909 
z
M 243 2706 
L 243 2541 
C 602 2541 653 2502 653 2197 
L 653 427 
C 653 184 627 153 218 153 
L 218 -13 
C 371 0 646 0 806 0 
C 960 0 1222 0 1370 -13 
L 1370 153 
C 992 153 979 191 979 420 
L 979 2776 
L 243 2706 
z
" transform="scale(0.015625)"/>
      <path id="CMR17-6d" d="M 4326 1933 
C 4326 2252 4269 2790 3507 2790 
C 3072 2790 2771 2496 2656 2151 
L 2650 2151 
C 2573 2676 2195 2790 1837 2790 
C 1331 2790 1069 2400 973 2144 
L 966 2144 
L 966 2790 
L 211 2720 
L 211 2554 
C 589 2554 646 2515 646 2208 
L 646 428 
C 646 184 621 153 211 153 
L 211 -13 
C 365 0 646 0 813 0 
C 979 0 1267 0 1421 -13 
L 1421 153 
C 1011 153 986 178 986 428 
L 986 1658 
C 986 2247 1344 2688 1792 2688 
C 2266 2688 2317 2266 2317 1958 
L 2317 428 
C 2317 184 2291 153 1882 153 
L 1882 -13 
C 2035 0 2317 0 2483 0 
C 2650 0 2938 0 3091 -13 
L 3091 153 
C 2682 153 2656 178 2656 428 
L 2656 1658 
C 2656 2247 3014 2688 3462 2688 
C 3936 2688 3987 2266 3987 1958 
L 3987 428 
C 3987 184 3962 153 3552 153 
L 3552 -13 
C 3706 0 3987 0 4154 0 
C 4320 0 4608 0 4762 -13 
L 4762 153 
C 4352 153 4326 178 4326 428 
L 4326 1933 
z
" transform="scale(0.015625)"/>
      <path id="CMR17-65" d="M 2438 1472 
C 2464 1498 2464 1511 2464 1576 
C 2464 2238 2118 2816 1389 2816 
C 710 2816 173 2169 173 1383 
C 173 551 781 -64 1459 -64 
C 2176 -64 2458 607 2458 740 
C 2458 784 2419 784 2406 784 
C 2362 784 2355 771 2330 696 
C 2189 265 1837 51 1504 51 
C 1229 51 954 203 781 480 
C 582 803 582 1176 582 1472 
L 2438 1472 
z
M 589 1568 
C 634 2505 1126 2714 1382 2714 
C 1818 2714 2112 2297 2118 1568 
L 589 1568 
z
" transform="scale(0.015625)"/>
     </defs>
     <use xlink:href="#CMR17-54" transform="scale(0.996264)"/>
     <use xlink:href="#CMR17-69" transform="translate(66.509881 0) scale(0.996264)"/>
     <use xlink:href="#CMR17-6d" transform="translate(91.380939 0) scale(0.996264)"/>
     <use xlink:href="#CMR17-65" transform="translate(168.300529 0) scale(0.996264)"/>
    </g>
   </g>
   <g id="legend_1">
    <g id="line2d_43">
     <path d="M 948.117672 197.198434 
L 962.117672 197.198434 
L 976.117672 197.198434 
" style="fill: none; stroke: #393b79; stroke-width: 2; stroke-linecap: round"/>
    </g>
    <g id="text_19">
     <!-- t = 0.00 -->
     <g style="fill: #262626" transform="translate(987.317672 202.098434) scale(0.14 -0.14)">
      <defs>
       <path id="CMR17-74" d="M 966 2560 
L 1862 2560 
L 1862 2725 
L 966 2725 
L 966 3904 
L 851 3904 
C 838 3245 614 2668 70 2668 
L 70 2560 
L 627 2560 
L 627 771 
C 627 650 627 -64 1370 -64 
C 1747 -64 1965 306 1965 777 
L 1965 1140 
L 1850 1140 
L 1850 783 
C 1850 344 1677 51 1408 51 
C 1222 51 966 178 966 758 
L 966 2560 
z
" transform="scale(0.015625)"/>
       <path id="CMR17-3d" d="M 4115 2017 
C 4211 2017 4307 2017 4307 2125 
C 4307 2240 4198 2240 4090 2240 
L 512 2240 
C 403 2240 294 2240 294 2125 
C 294 2017 390 2017 486 2017 
L 4115 2017 
z
M 4090 896 
C 4198 896 4307 896 4307 1011 
C 4307 1119 4211 1119 4115 1119 
L 486 1119 
C 390 1119 294 1119 294 1011 
C 294 896 403 896 512 896 
L 4090 896 
z
" transform="scale(0.015625)"/>
       <path id="CMR17-2e" d="M 1062 261 
C 1062 420 934 522 800 522 
C 672 522 538 420 538 261 
C 538 102 666 0 800 0 
C 928 0 1062 102 1062 261 
z
" transform="scale(0.015625)"/>
      </defs>
      <use xlink:href="#CMR17-74" transform="scale(0.996264)"/>
      <use xlink:href="#CMR17-3d" transform="translate(65.356734 0) scale(0.996264)"/>
      <use xlink:href="#CMR17-30" transform="translate(167.147489 0) scale(0.996264)"/>
      <use xlink:href="#CMR17-2e" transform="translate(212.837966 0) scale(0.996264)"/>
      <use xlink:href="#CMR17-30" transform="translate(237.709025 0) scale(0.996264)"/>
      <use xlink:href="#CMR17-30" transform="translate(283.399502 0) scale(0.996264)"/>
     </g>
    </g>
    <g id="line2d_44">
     <path d="M 948.117672 216.710462 
L 962.117672 216.710462 
L 976.117672 216.710462 
" style="fill: none; stroke: #6b6ecf; stroke-width: 2; stroke-linecap: round"/>
    </g>
    <g id="text_20">
     <!-- t = 10.00 -->
     <g style="fill: #262626" transform="translate(987.317672 221.610462) scale(0.14 -0.14)">
      <use xlink:href="#CMR17-74" transform="scale(0.996264)"/>
      <use xlink:href="#CMR17-3d" transform="translate(65.356734 0) scale(0.996264)"/>
      <use xlink:href="#CMR17-31" transform="translate(167.147489 0) scale(0.996264)"/>
      <use xlink:href="#CMR17-30" transform="translate(212.837966 0) scale(0.996264)"/>
      <use xlink:href="#CMR17-2e" transform="translate(258.528443 0) scale(0.996264)"/>
      <use xlink:href="#CMR17-30" transform="translate(283.399502 0) scale(0.996264)"/>
      <use xlink:href="#CMR17-30" transform="translate(329.089979 0) scale(0.996264)"/>
     </g>
    </g>
    <g id="line2d_45">
     <path d="M 948.117672 236.222491 
L 962.117672 236.222491 
L 976.117672 236.222491 
" style="fill: none; stroke: #637939; stroke-width: 2; stroke-linecap: round"/>
    </g>
    <g id="text_21">
     <!-- t = 50.00 -->
     <g style="fill: #262626" transform="translate(987.317672 241.122491) scale(0.14 -0.14)">
      <use xlink:href="#CMR17-74" transform="scale(0.996264)"/>
      <use xlink:href="#CMR17-3d" transform="translate(65.356734 0) scale(0.996264)"/>
      <use xlink:href="#CMR17-35" transform="translate(167.147489 0) scale(0.996264)"/>
      <use xlink:href="#CMR17-30" transform="translate(212.837966 0) scale(0.996264)"/>
      <use xlink:href="#CMR17-2e" transform="translate(258.528443 0) scale(0.996264)"/>
      <use xlink:href="#CMR17-30" transform="translate(283.399502 0) scale(0.996264)"/>
      <use xlink:href="#CMR17-30" transform="translate(329.089979 0) scale(0.996264)"/>
     </g>
    </g>
    <g id="line2d_46">
     <path d="M 948.117672 255.734519 
L 962.117672 255.734519 
L 976.117672 255.734519 
" style="fill: none; stroke: #b5cf6b; stroke-width: 2; stroke-linecap: round"/>
    </g>
    <g id="text_22">
     <!-- t = 100.00 -->
     <g style="fill: #262626" transform="translate(987.317672 260.634519) scale(0.14 -0.14)">
      <use xlink:href="#CMR17-74" transform="scale(0.996264)"/>
      <use xlink:href="#CMR17-3d" transform="translate(65.356734 0) scale(0.996264)"/>
      <use xlink:href="#CMR17-31" transform="translate(167.147489 0) scale(0.996264)"/>
      <use xlink:href="#CMR17-30" transform="translate(212.837966 0) scale(0.996264)"/>
      <use xlink:href="#CMR17-30" transform="translate(258.528443 0) scale(0.996264)"/>
      <use xlink:href="#CMR17-2e" transform="translate(304.21892 0) scale(0.996264)"/>
      <use xlink:href="#CMR17-30" transform="translate(329.089979 0) scale(0.996264)"/>
      <use xlink:href="#CMR17-30" transform="translate(374.780456 0) scale(0.996264)"/>
     </g>
    </g>
    <g id="line2d_47">
     <path d="M 948.117672 275.246547 
L 962.117672 275.246547 
L 976.117672 275.246547 
" style="fill: none; stroke: #8c6d31; stroke-width: 2; stroke-linecap: round"/>
    </g>
    <g id="text_23">
     <!-- t = 250.00 -->
     <g style="fill: #262626" transform="translate(987.317672 280.146547) scale(0.14 -0.14)">
      <use xlink:href="#CMR17-74" transform="scale(0.996264)"/>
      <use xlink:href="#CMR17-3d" transform="translate(65.356734 0) scale(0.996264)"/>
      <use xlink:href="#CMR17-32" transform="translate(167.147489 0) scale(0.996264)"/>
      <use xlink:href="#CMR17-35" transform="translate(212.837966 0) scale(0.996264)"/>
      <use xlink:href="#CMR17-30" transform="translate(258.528443 0) scale(0.996264)"/>
      <use xlink:href="#CMR17-2e" transform="translate(304.21892 0) scale(0.996264)"/>
      <use xlink:href="#CMR17-30" transform="translate(329.089979 0) scale(0.996264)"/>
      <use xlink:href="#CMR17-30" transform="translate(374.780456 0) scale(0.996264)"/>
     </g>
    </g>
    <g id="line2d_48">
     <path d="M 948.117672 294.758576 
L 962.117672 294.758576 
L 976.117672 294.758576 
" style="fill: none; stroke: #e7cb94; stroke-width: 2; stroke-linecap: round"/>
    </g>
    <g id="text_24">
     <!-- t = 500.00 -->
     <g style="fill: #262626" transform="translate(987.317672 299.658576) scale(0.14 -0.14)">
      <use xlink:href="#CMR17-74" transform="scale(0.996264)"/>
      <use xlink:href="#CMR17-3d" transform="translate(65.356734 0) scale(0.996264)"/>
      <use xlink:href="#CMR17-35" transform="translate(167.147489 0) scale(0.996264)"/>
      <use xlink:href="#CMR17-30" transform="translate(212.837966 0) scale(0.996264)"/>
      <use xlink:href="#CMR17-30" transform="translate(258.528443 0) scale(0.996264)"/>
      <use xlink:href="#CMR17-2e" transform="translate(304.21892 0) scale(0.996264)"/>
      <use xlink:href="#CMR17-30" transform="translate(329.089979 0) scale(0.996264)"/>
      <use xlink:href="#CMR17-30" transform="translate(374.780456 0) scale(0.996264)"/>
     </g>
    </g>
    <g id="line2d_49">
     <path d="M 948.117672 314.270604 
L 962.117672 314.270604 
L 976.117672 314.270604 
" style="fill: none; stroke: #ad494a; stroke-width: 2; stroke-linecap: round"/>
    </g>
    <g id="text_25">
     <!-- t = 750.00 -->
     <g style="fill: #262626" transform="translate(987.317672 319.170604) scale(0.14 -0.14)">
      <use xlink:href="#CMR17-74" transform="scale(0.996264)"/>
      <use xlink:href="#CMR17-3d" transform="translate(65.356734 0) scale(0.996264)"/>
      <use xlink:href="#CMR17-37" transform="translate(167.147489 0) scale(0.996264)"/>
      <use xlink:href="#CMR17-35" transform="translate(212.837966 0) scale(0.996264)"/>
      <use xlink:href="#CMR17-30" transform="translate(258.528443 0) scale(0.996264)"/>
      <use xlink:href="#CMR17-2e" transform="translate(304.21892 0) scale(0.996264)"/>
      <use xlink:href="#CMR17-30" transform="translate(329.089979 0) scale(0.996264)"/>
      <use xlink:href="#CMR17-30" transform="translate(374.780456 0) scale(0.996264)"/>
     </g>
    </g>
    <g id="line2d_50">
     <path d="M 948.117672 333.782633 
L 962.117672 333.782633 
L 976.117672 333.782633 
" style="fill: none; stroke: #e7969c; stroke-width: 2; stroke-linecap: round"/>
    </g>
    <g id="text_26">
     <!-- t = 1000.00 -->
     <g style="fill: #262626" transform="translate(987.317672 338.682633) scale(0.14 -0.14)">
      <use xlink:href="#CMR17-74" transform="scale(0.996264)"/>
      <use xlink:href="#CMR17-3d" transform="translate(65.356734 0) scale(0.996264)"/>
      <use xlink:href="#CMR17-31" transform="translate(167.147489 0) scale(0.996264)"/>
      <use xlink:href="#CMR17-30" transform="translate(212.837966 0) scale(0.996264)"/>
      <use xlink:href="#CMR17-30" transform="translate(258.528443 0) scale(0.996264)"/>
      <use xlink:href="#CMR17-30" transform="translate(304.21892 0) scale(0.996264)"/>
      <use xlink:href="#CMR17-2e" transform="translate(349.909397 0) scale(0.996264)"/>
      <use xlink:href="#CMR17-30" transform="translate(374.780456 0) scale(0.996264)"/>
      <use xlink:href="#CMR17-30" transform="translate(420.470933 0) scale(0.996264)"/>
     </g>
    </g>
    <g id="line2d_51">
     <path d="M 948.117672 353.294661 
L 962.117672 353.294661 
L 976.117672 353.294661 
" style="fill: none; stroke: #a55194; stroke-width: 2; stroke-linecap: round"/>
    </g>
    <g id="text_27">
     <!-- t = 1250.00 -->
     <g style="fill: #262626" transform="translate(987.317672 358.194661) scale(0.14 -0.14)">
      <use xlink:href="#CMR17-74" transform="scale(0.996264)"/>
      <use xlink:href="#CMR17-3d" transform="translate(65.356734 0) scale(0.996264)"/>
      <use xlink:href="#CMR17-31" transform="translate(167.147489 0) scale(0.996264)"/>
      <use xlink:href="#CMR17-32" transform="translate(212.837966 0) scale(0.996264)"/>
      <use xlink:href="#CMR17-35" transform="translate(258.528443 0) scale(0.996264)"/>
      <use xlink:href="#CMR17-30" transform="translate(304.21892 0) scale(0.996264)"/>
      <use xlink:href="#CMR17-2e" transform="translate(349.909397 0) scale(0.996264)"/>
      <use xlink:href="#CMR17-30" transform="translate(374.780456 0) scale(0.996264)"/>
      <use xlink:href="#CMR17-30" transform="translate(420.470933 0) scale(0.996264)"/>
     </g>
    </g>
    <g id="line2d_52">
     <path d="M 948.117672 372.806689 
L 962.117672 372.806689 
L 976.117672 372.806689 
" style="fill: none; stroke: #de9ed6; stroke-width: 2; stroke-linecap: round"/>
    </g>
    <g id="text_28">
     <!-- t = 1500.00 -->
     <g style="fill: #262626" transform="translate(987.317672 377.706689) scale(0.14 -0.14)">
      <use xlink:href="#CMR17-74" transform="scale(0.996264)"/>
      <use xlink:href="#CMR17-3d" transform="translate(65.356734 0) scale(0.996264)"/>
      <use xlink:href="#CMR17-31" transform="translate(167.147489 0) scale(0.996264)"/>
      <use xlink:href="#CMR17-35" transform="translate(212.837966 0) scale(0.996264)"/>
      <use xlink:href="#CMR17-30" transform="translate(258.528443 0) scale(0.996264)"/>
      <use xlink:href="#CMR17-30" transform="translate(304.21892 0) scale(0.996264)"/>
      <use xlink:href="#CMR17-2e" transform="translate(349.909397 0) scale(0.996264)"/>
      <use xlink:href="#CMR17-30" transform="translate(374.780456 0) scale(0.996264)"/>
      <use xlink:href="#CMR17-30" transform="translate(420.470933 0) scale(0.996264)"/>
     </g>
    </g>
   </g>
  </g>
  <g id="text_29">
   <!-- Reactivity -->
   <g style="fill: #262626" transform="translate(500.761015 24.803515) scale(0.192 -0.192)">
    <defs>
     <path id="CMR17-52" d="M 2509 2146 
C 3117 2268 3629 2676 3629 3186 
C 3629 3785 2950 4326 2054 4326 
L 333 4326 
L 333 4160 
C 774 4160 845 4160 845 3873 
L 845 415 
C 845 128 774 128 333 128 
L 333 -26 
C 518 -26 851 -26 1050 -26 
C 1248 -26 1581 -26 1766 -26 
L 1766 128 
C 1325 128 1254 128 1254 417 
L 1254 2112 
L 2003 2112 
C 2368 2112 2573 1964 2662 1881 
C 2918 1632 2918 1459 2918 1024 
C 2918 595 2918 377 3110 160 
C 3354 -102 3680 -128 3821 -128 
C 4294 -128 4365 396 4365 503 
C 4365 540 4365 585 4307 585 
C 4256 585 4250 547 4250 522 
C 4218 112 4032 -26 3834 -26 
C 3482 -26 3443 375 3405 764 
C 3386 898 3373 993 3360 1133 
C 3322 1452 3270 1917 2509 2146 
z
M 1984 2214 
L 1254 2214 
L 1254 3913 
C 1254 4129 1267 4160 1523 4160 
L 1990 4160 
C 2522 4160 3142 3977 3142 3190 
C 3142 2372 2464 2214 1984 2214 
z
" transform="scale(0.015625)"/>
     <path id="CMR17-61" d="M 2304 1653 
C 2304 2072 2304 2294 2035 2543 
C 1798 2752 1523 2816 1306 2816 
C 800 2816 435 2407 435 1971 
C 435 1728 627 1728 666 1728 
C 749 1728 896 1778 896 1954 
C 896 2112 774 2181 666 2181 
C 640 2181 608 2174 589 2168 
C 723 2592 1069 2714 1293 2714 
C 1613 2714 1965 2429 1965 1885 
L 1965 1600 
C 1587 1600 1133 1549 774 1357 
C 371 1133 256 813 256 570 
C 256 77 832 -64 1171 -64 
C 1523 -64 1850 139 1990 511 
C 2003 233 2182 -18 2464 -18 
C 2598 -18 2938 70 2938 567 
L 2938 920 
L 2822 920 
L 2822 562 
C 2822 178 2650 128 2566 128 
C 2304 128 2304 458 2304 738 
L 2304 1653 
z
M 1965 870 
C 1965 317 1568 38 1216 38 
C 896 38 646 275 646 570 
C 646 761 730 1100 1101 1305 
C 1408 1478 1760 1504 1965 1504 
L 1965 870 
z
" transform="scale(0.015625)"/>
     <path id="CMR17-63" d="M 2234 2240 
C 2112 2240 1933 2240 1933 2017 
C 1933 1838 2080 1787 2163 1787 
C 2208 1787 2394 1807 2394 2024 
C 2394 2467 1958 2803 1466 2803 
C 787 2803 211 2178 211 1363 
C 211 516 813 -64 1466 -64 
C 2259 -64 2458 677 2458 748 
C 2458 774 2451 793 2406 793 
C 2362 793 2355 787 2330 703 
C 2163 180 1798 51 1523 51 
C 1114 51 621 427 621 1369 
C 621 2338 1094 2688 1472 2688 
C 1722 2688 2093 2573 2234 2240 
z
" transform="scale(0.015625)"/>
     <path id="CMR17-76" d="M 2502 2163 
C 2560 2304 2662 2560 3034 2560 
L 3034 2726 
C 2912 2726 2752 2726 2630 2726 
C 2496 2726 2285 2726 2157 2732 
L 2157 2566 
C 2317 2553 2406 2477 2406 2311 
C 2406 2253 2406 2240 2368 2151 
L 1664 377 
L 902 2286 
C 864 2369 864 2381 864 2407 
C 864 2560 1075 2560 1171 2560 
L 1171 2732 
C 1018 2726 736 2726 576 2726 
C 403 2726 205 2726 64 2732 
L 64 2560 
C 307 2560 442 2560 518 2362 
L 1446 44 
C 1485 -51 1491 -64 1549 -64 
C 1606 -64 1613 -51 1651 44 
L 2502 2163 
z
" transform="scale(0.015625)"/>
     <path id="CMR17-79" d="M 2496 2197 
C 2656 2586 2944 2586 3034 2586 
L 3034 2752 
C 2912 2752 2752 2752 2630 2752 
C 2496 2752 2285 2752 2157 2758 
L 2157 2592 
C 2400 2573 2406 2394 2406 2343 
C 2406 2280 2394 2248 2362 2171 
L 1664 449 
L 902 2306 
C 870 2382 870 2426 870 2433 
C 870 2573 1018 2586 1171 2586 
L 1171 2758 
C 1018 2752 742 2752 582 2752 
C 410 2752 205 2752 64 2758 
L 64 2586 
C 410 2586 448 2554 531 2350 
L 1485 15 
C 1197 -738 1030 -1178 627 -1178 
C 557 -1178 397 -1159 282 -1044 
C 429 -1031 493 -942 493 -833 
C 493 -725 416 -629 288 -629 
C 147 -629 77 -725 77 -840 
C 77 -1095 339 -1280 627 -1280 
C 998 -1280 1229 -922 1357 -604 
L 2496 2197 
z
" transform="scale(0.015625)"/>
    </defs>
    <use xlink:href="#CMR17-52" transform="scale(0.996264)"/>
    <use xlink:href="#CMR17-65" transform="translate(67.791102 0) scale(0.996264)"/>
    <use xlink:href="#CMR17-61" transform="translate(108.276762 0) scale(0.996264)"/>
    <use xlink:href="#CMR17-63" transform="translate(153.96724 0) scale(0.996264)"/>
    <use xlink:href="#CMR17-74" transform="translate(194.4529 0) scale(0.996264)"/>
    <use xlink:href="#CMR17-69" transform="translate(229.733668 0) scale(0.996264)"/>
    <use xlink:href="#CMR17-76" transform="translate(254.604726 0) scale(0.996264)"/>
    <use xlink:href="#CMR17-69" transform="translate(302.897642 0) scale(0.996264)"/>
    <use xlink:href="#CMR17-74" transform="translate(327.768701 0) scale(0.996264)"/>
    <use xlink:href="#CMR17-79" transform="translate(360.447014 0) scale(0.996264)"/>
   </g>
  </g>
 </g>
 <defs>
  <clipPath id="p78969757ff">
   <rect x="48.559071" y="51.564121" width="886.958601" height="469.58891"/>
  </clipPath>
 </defs>
</svg>
