<?xml version="1.0" encoding="utf-8" standalone="no"?>
<!DOCTYPE svg PUBLIC "-//W3C//DTD SVG 1.1//EN"
  "http://www.w3.org/Graphics/SVG/1.1/DTD/svg11.dtd">
<svg xmlns:xlink="http://www.w3.org/1999/xlink" width="1080pt" height="576pt" viewBox="0 0 1080 576" xmlns="http://www.w3.org/2000/svg" version="1.1">
 <metadata>
  <rdf:RDF xmlns:dc="http://purl.org/dc/elements/1.1/" xmlns:cc="http://creativecommons.org/ns#" xmlns:rdf="http://www.w3.org/1999/02/22-rdf-syntax-ns#">
   <cc:Work>
    <dc:type rdf:resource="http://purl.org/dc/dcmitype/StillImage"/>
    <dc:date>2024-08-15T10:04:52.254820</dc:date>
    <dc:format>image/svg+xml</dc:format>
    <dc:creator>
     <cc:Agent>
      <dc:title>Matplotlib v3.9.0, https://matplotlib.org/</dc:title>
     </cc:Agent>
    </dc:creator>
   </cc:Work>
  </rdf:RDF>
 </metadata>
 <defs>
  <style type="text/css">*{stroke-linejoin: round; stroke-linecap: butt}</style>
 </defs>
 <g id="figure_1">
  <g id="patch_1">
   <path d="M 0 576 
L 1080 576 
L 1080 0 
L 0 0 
z
" style="fill: #ffffff"/>
  </g>
  <g id="axes_1">
   <g id="patch_2">
    <path d="M 170.963659 422.436818 
L 365.644797 422.436818 
L 365.644797 54 
L 170.963659 54 
z
" style="fill: #ffffff"/>
   </g>
   <g id="matplotlib.axis_1">
    <g id="xtick_1">
     <g id="line2d_1">
      <defs>
       <path id="m43ff80ae99" d="M 0 0 
L 0 3.5 
" style="stroke: #262626; stroke-width: 0.8"/>
      </defs>
      <g>
       <use xlink:href="#m43ff80ae99" x="179.812802" y="422.436818" style="fill: #262626; stroke: #262626; stroke-width: 0.8"/>
      </g>
     </g>
     <g id="text_1">
      <!-- $\mathdefault{10^{-1}}$ -->
      <g style="fill: #262626" transform="translate(135.41152 464.029325) scale(0.5 -0.5)">
       <defs>
        <path id="CMR17-31" d="M 1702 4058 
C 1702 4192 1696 4192 1606 4192 
C 1357 3916 979 3827 621 3827 
C 602 3827 570 3827 563 3808 
C 557 3795 557 3782 557 3648 
C 755 3648 1088 3686 1344 3839 
L 1344 461 
C 1344 236 1331 160 781 160 
L 589 160 
L 589 0 
C 896 0 1216 0 1523 0 
C 1830 0 2150 0 2458 0 
L 2458 160 
L 2266 160 
C 1715 160 1702 230 1702 458 
L 1702 4058 
z
" transform="scale(0.015625)"/>
        <path id="CMR17-30" d="M 2688 2025 
C 2688 2416 2682 3080 2413 3591 
C 2176 4039 1798 4198 1466 4198 
C 1158 4198 768 4058 525 3597 
C 269 3118 243 2524 243 2025 
C 243 1661 250 1106 448 619 
C 723 -39 1216 -128 1466 -128 
C 1760 -128 2208 -7 2470 600 
C 2662 1042 2688 1559 2688 2025 
z
M 1466 -26 
C 1056 -26 813 325 723 812 
C 653 1188 653 1738 653 2096 
C 653 2588 653 2997 736 3387 
C 858 3929 1216 4096 1466 4096 
C 1728 4096 2067 3923 2189 3400 
C 2272 3036 2278 2607 2278 2096 
C 2278 1680 2278 1169 2202 792 
C 2067 95 1690 -26 1466 -26 
z
" transform="scale(0.015625)"/>
        <path id="CMSY10-0" d="M 4218 1472 
C 4326 1472 4442 1472 4442 1600 
C 4442 1728 4326 1728 4218 1728 
L 755 1728 
C 646 1728 531 1728 531 1600 
C 531 1472 646 1472 755 1472 
L 4218 1472 
z
" transform="scale(0.015625)"/>
       </defs>
       <use xlink:href="#CMR17-31" transform="scale(0.996264)"/>
       <use xlink:href="#CMR17-30" transform="translate(45.690477 0) scale(0.996264)"/>
       <use xlink:href="#CMSY10-0" transform="translate(91.380954 36.153639) scale(0.697382)"/>
       <use xlink:href="#CMR17-31" transform="translate(145.621947 36.153639) scale(0.697382)"/>
      </g>
     </g>
    </g>
    <g id="xtick_2">
     <g id="line2d_2">
      <g>
       <use xlink:href="#m43ff80ae99" x="356.795655" y="422.436818" style="fill: #262626; stroke: #262626; stroke-width: 0.8"/>
      </g>
     </g>
     <g id="text_2">
      <!-- $\mathdefault{10^{0}}$ -->
      <g style="fill: #262626" transform="translate(325.954621 464.029325) scale(0.5 -0.5)">
       <use xlink:href="#CMR17-31" transform="scale(0.996264)"/>
       <use xlink:href="#CMR17-30" transform="translate(45.690477 0) scale(0.996264)"/>
       <use xlink:href="#CMR17-30" transform="translate(91.380954 36.153639) scale(0.697382)"/>
      </g>
     </g>
    </g>
    <g id="xtick_3">
     <g id="line2d_3">
      <defs>
       <path id="m0d61600c3e" d="M 0 0 
L 0 2 
" style="stroke: #262626; stroke-width: 0.6"/>
      </defs>
      <g>
       <use xlink:href="#m0d61600c3e" x="171.714511" y="422.436818" style="fill: #262626; stroke: #262626; stroke-width: 0.6"/>
      </g>
     </g>
    </g>
    <g id="xtick_4">
     <g id="line2d_4">
      <g>
       <use xlink:href="#m0d61600c3e" x="233.089949" y="422.436818" style="fill: #262626; stroke: #262626; stroke-width: 0.6"/>
      </g>
     </g>
    </g>
    <g id="xtick_5">
     <g id="line2d_5">
      <g>
       <use xlink:href="#m0d61600c3e" x="264.255083" y="422.436818" style="fill: #262626; stroke: #262626; stroke-width: 0.6"/>
      </g>
     </g>
    </g>
    <g id="xtick_6">
     <g id="line2d_6">
      <g>
       <use xlink:href="#m0d61600c3e" x="286.367097" y="422.436818" style="fill: #262626; stroke: #262626; stroke-width: 0.6"/>
      </g>
     </g>
    </g>
    <g id="xtick_7">
     <g id="line2d_7">
      <g>
       <use xlink:href="#m0d61600c3e" x="303.518507" y="422.436818" style="fill: #262626; stroke: #262626; stroke-width: 0.6"/>
      </g>
     </g>
    </g>
    <g id="xtick_8">
     <g id="line2d_8">
      <g>
       <use xlink:href="#m0d61600c3e" x="317.53223" y="422.436818" style="fill: #262626; stroke: #262626; stroke-width: 0.6"/>
      </g>
     </g>
    </g>
    <g id="xtick_9">
     <g id="line2d_9">
      <g>
       <use xlink:href="#m0d61600c3e" x="329.380664" y="422.436818" style="fill: #262626; stroke: #262626; stroke-width: 0.6"/>
      </g>
     </g>
    </g>
    <g id="xtick_10">
     <g id="line2d_10">
      <g>
       <use xlink:href="#m0d61600c3e" x="339.644244" y="422.436818" style="fill: #262626; stroke: #262626; stroke-width: 0.6"/>
      </g>
     </g>
    </g>
    <g id="xtick_11">
     <g id="line2d_11">
      <g>
       <use xlink:href="#m0d61600c3e" x="348.697363" y="422.436818" style="fill: #262626; stroke: #262626; stroke-width: 0.6"/>
      </g>
     </g>
    </g>
    <g id="text_3">
     <!-- $\alpha$ -->
     <g style="fill: #262626" transform="translate(252.79255 512.310916) scale(0.5 -0.5)">
      <defs>
       <path id="CMMI12-b" d="M 2963 1616 
C 2963 2235 2611 2815 1933 2815 
C 1094 2815 256 1902 256 996 
C 256 441 602 -64 1254 -64 
C 1651 -64 2125 89 2579 472 
C 2669 115 2867 -64 3142 -64 
C 3488 -64 3661 294 3661 377 
C 3661 434 3616 434 3597 434 
C 3546 434 3539 415 3520 364 
C 3462 204 3315 64 3162 64 
C 2963 64 2963 472 2963 862 
C 3616 1641 3770 2446 3770 2452 
C 3770 2510 3718 2510 3699 2510 
C 3642 2510 3635 2491 3610 2376 
C 3526 2095 3360 1597 2963 1073 
L 2963 1616 
z
M 2560 626 
C 1997 121 1491 64 1267 64 
C 813 64 685 466 685 766 
C 685 1040 826 1692 1024 2044 
C 1286 2491 1645 2688 1933 2688 
C 2554 2688 2554 1877 2554 1341 
C 2554 1182 2547 1016 2547 856 
C 2547 728 2554 696 2560 626 
z
" transform="scale(0.015625)"/>
      </defs>
      <use xlink:href="#CMMI12-b" transform="scale(0.996264)"/>
     </g>
    </g>
   </g>
   <g id="matplotlib.axis_2">
    <g id="ytick_1">
     <g id="line2d_12">
      <defs>
       <path id="m1bd505c7ee" d="M 0 0 
L -3.5 0 
" style="stroke: #262626; stroke-width: 0.8"/>
      </defs>
      <g>
       <use xlink:href="#m1bd505c7ee" x="170.963659" y="394.185993" style="fill: #262626; stroke: #262626; stroke-width: 0.8"/>
      </g>
     </g>
     <g id="text_4">
      <!-- $\mathdefault{10^{2}}$ -->
      <g style="fill: #262626" transform="translate(102.281591 411.482247) scale(0.5 -0.5)">
       <defs>
        <path id="CMR17-32" d="M 2669 989 
L 2554 989 
C 2490 536 2438 459 2413 420 
C 2381 369 1920 369 1830 369 
L 602 369 
C 832 619 1280 1072 1824 1597 
C 2214 1967 2669 2402 2669 3035 
C 2669 3790 2067 4224 1395 4224 
C 691 4224 262 3604 262 3030 
C 262 2780 448 2748 525 2748 
C 589 2748 781 2787 781 3010 
C 781 3207 614 3264 525 3264 
C 486 3264 448 3258 422 3245 
C 544 3790 915 4058 1306 4058 
C 1862 4058 2227 3617 2227 3035 
C 2227 2479 1901 2000 1536 1584 
L 262 146 
L 262 0 
L 2515 0 
L 2669 989 
z
" transform="scale(0.015625)"/>
       </defs>
       <use xlink:href="#CMR17-31" transform="scale(0.996264)"/>
       <use xlink:href="#CMR17-30" transform="translate(45.690477 0) scale(0.996264)"/>
       <use xlink:href="#CMR17-32" transform="translate(91.380954 36.153639) scale(0.697382)"/>
      </g>
     </g>
    </g>
    <g id="ytick_2">
     <g id="line2d_13">
      <g>
       <use xlink:href="#m1bd505c7ee" x="170.963659" y="208.176229" style="fill: #262626; stroke: #262626; stroke-width: 0.8"/>
      </g>
     </g>
     <g id="text_5">
      <!-- $\mathdefault{10^{3}}$ -->
      <g style="fill: #262626" transform="translate(102.281591 225.472483) scale(0.5 -0.5)">
       <defs>
        <path id="CMR17-33" d="M 1414 2157 
C 1984 2157 2234 1662 2234 1090 
C 2234 320 1824 25 1453 25 
C 1114 25 563 194 390 693 
C 422 680 454 680 486 680 
C 640 680 755 782 755 948 
C 755 1133 614 1216 486 1216 
C 378 1216 211 1165 211 926 
C 211 335 787 -128 1466 -128 
C 2176 -128 2720 430 2720 1085 
C 2720 1707 2208 2157 1600 2227 
C 2086 2328 2554 2756 2554 3329 
C 2554 3820 2048 4179 1472 4179 
C 890 4179 378 3829 378 3329 
C 378 3110 544 3072 627 3072 
C 762 3072 877 3155 877 3321 
C 877 3486 762 3569 627 3569 
C 602 3569 570 3569 544 3557 
C 730 3959 1235 4032 1459 4032 
C 1683 4032 2106 3925 2106 3320 
C 2106 3143 2080 2828 1862 2550 
C 1670 2304 1453 2304 1242 2284 
C 1210 2284 1062 2269 1037 2269 
C 992 2263 966 2257 966 2208 
C 966 2163 973 2157 1101 2157 
L 1414 2157 
z
" transform="scale(0.015625)"/>
       </defs>
       <use xlink:href="#CMR17-31" transform="scale(0.996264)"/>
       <use xlink:href="#CMR17-30" transform="translate(45.690477 0) scale(0.996264)"/>
       <use xlink:href="#CMR17-33" transform="translate(91.380954 36.153639) scale(0.697382)"/>
      </g>
     </g>
    </g>
    <g id="ytick_3">
     <g id="line2d_14">
      <defs>
       <path id="mda3312e060" d="M 0 0 
L -2 0 
" style="stroke: #262626; stroke-width: 0.6"/>
      </defs>
      <g>
       <use xlink:href="#mda3312e060" x="170.963659" y="412.212202" style="fill: #262626; stroke: #262626; stroke-width: 0.6"/>
      </g>
     </g>
    </g>
    <g id="ytick_4">
     <g id="line2d_15">
      <g>
       <use xlink:href="#mda3312e060" x="170.963659" y="402.697333" style="fill: #262626; stroke: #262626; stroke-width: 0.6"/>
      </g>
     </g>
    </g>
    <g id="ytick_5">
     <g id="line2d_16">
      <g>
       <use xlink:href="#mda3312e060" x="170.963659" y="338.191475" style="fill: #262626; stroke: #262626; stroke-width: 0.6"/>
      </g>
     </g>
    </g>
    <g id="ytick_6">
     <g id="line2d_17">
      <g>
       <use xlink:href="#mda3312e060" x="170.963659" y="305.436781" style="fill: #262626; stroke: #262626; stroke-width: 0.6"/>
      </g>
     </g>
    </g>
    <g id="ytick_7">
     <g id="line2d_18">
      <g>
       <use xlink:href="#mda3312e060" x="170.963659" y="282.196956" style="fill: #262626; stroke: #262626; stroke-width: 0.6"/>
      </g>
     </g>
    </g>
    <g id="ytick_8">
     <g id="line2d_19">
      <g>
       <use xlink:href="#mda3312e060" x="170.963659" y="264.170748" style="fill: #262626; stroke: #262626; stroke-width: 0.6"/>
      </g>
     </g>
    </g>
    <g id="ytick_9">
     <g id="line2d_20">
      <g>
       <use xlink:href="#mda3312e060" x="170.963659" y="249.442263" style="fill: #262626; stroke: #262626; stroke-width: 0.6"/>
      </g>
     </g>
    </g>
    <g id="ytick_10">
     <g id="line2d_21">
      <g>
       <use xlink:href="#mda3312e060" x="170.963659" y="236.989506" style="fill: #262626; stroke: #262626; stroke-width: 0.6"/>
      </g>
     </g>
    </g>
    <g id="ytick_11">
     <g id="line2d_22">
      <g>
       <use xlink:href="#mda3312e060" x="170.963659" y="226.202438" style="fill: #262626; stroke: #262626; stroke-width: 0.6"/>
      </g>
     </g>
    </g>
    <g id="ytick_12">
     <g id="line2d_23">
      <g>
       <use xlink:href="#mda3312e060" x="170.963659" y="216.687569" style="fill: #262626; stroke: #262626; stroke-width: 0.6"/>
      </g>
     </g>
    </g>
    <g id="ytick_13">
     <g id="line2d_24">
      <g>
       <use xlink:href="#mda3312e060" x="170.963659" y="152.181711" style="fill: #262626; stroke: #262626; stroke-width: 0.6"/>
      </g>
     </g>
    </g>
    <g id="ytick_14">
     <g id="line2d_25">
      <g>
       <use xlink:href="#mda3312e060" x="170.963659" y="119.427017" style="fill: #262626; stroke: #262626; stroke-width: 0.6"/>
      </g>
     </g>
    </g>
    <g id="ytick_15">
     <g id="line2d_26">
      <g>
       <use xlink:href="#mda3312e060" x="170.963659" y="96.187193" style="fill: #262626; stroke: #262626; stroke-width: 0.6"/>
      </g>
     </g>
    </g>
    <g id="ytick_16">
     <g id="line2d_27">
      <g>
       <use xlink:href="#mda3312e060" x="170.963659" y="78.160984" style="fill: #262626; stroke: #262626; stroke-width: 0.6"/>
      </g>
     </g>
    </g>
    <g id="ytick_17">
     <g id="line2d_28">
      <g>
       <use xlink:href="#mda3312e060" x="170.963659" y="63.432499" style="fill: #262626; stroke: #262626; stroke-width: 0.6"/>
      </g>
     </g>
    </g>
    <g id="text_6">
     <!-- $\tau$ -->
     <g style="fill: #262626" transform="translate(88.592507 248.809369) rotate(-90) scale(0.5 -0.5)">
      <defs>
       <path id="CMMI12-1c" d="M 1837 2408 
L 2899 2408 
C 2982 2408 3194 2408 3194 2612 
C 3194 2752 3072 2752 2957 2752 
L 1197 2752 
C 1050 2752 832 2752 538 2440 
C 371 2255 166 1917 166 1879 
C 166 1841 198 1828 237 1828 
C 282 1828 288 1847 320 1885 
C 653 2408 986 2408 1146 2408 
L 1677 2408 
L 1011 223 
C 979 127 979 114 979 95 
C 979 25 1024 -64 1152 -64 
C 1350 -64 1382 108 1402 203 
L 1837 2408 
z
" transform="scale(0.015625)"/>
      </defs>
      <use xlink:href="#CMMI12-1c" transform="scale(0.996264)"/>
     </g>
    </g>
   </g>
   <g id="line2d_29">
    <path d="M 179.812802 195.441426 
L 196.964212 212.361951 
L 210.977935 226.18513 
L 222.826369 237.84727 
L 233.089949 248.033673 
L 242.143069 257.059546 
L 250.24136 265.230108 
L 257.567155 272.676995 
L 264.255083 279.559574 
L 270.407379 285.980885 
L 276.103516 291.990308 
L 281.406493 297.669781 
L 286.367097 303.028016 
L 291.026867 308.155265 
L 295.420216 313.031671 
L 299.575967 317.690686 
L 303.518507 322.168958 
L 307.26865 326.486947 
L 310.844303 330.620092 
L 314.260984 334.6262 
L 317.53223 338.504925 
L 320.669918 342.23456 
L 323.684527 345.858634 
L 326.585349 349.372956 
L 329.380664 352.78238 
L 332.077877 356.102704 
L 334.683641 359.33261 
L 337.203954 362.4741 
L 339.644244 365.521084 
L 342.009436 368.491549 
L 344.304015 371.398752 
L 346.532074 374.230835 
L 348.697363 377.003626 
L 350.803322 379.713034 
L 352.853115 382.325856 
L 354.84966 384.9344 
L 356.795655 387.427613 
" clip-path="url(#p171eacc581)" style="fill: none; stroke: #1f77b4; stroke-width: 6; stroke-linecap: round"/>
   </g>
   <g id="line2d_30">
    <path d="M 179.812802 189.238885 
L 196.964212 208.037105 
L 210.977935 223.396368 
L 222.826369 236.382441 
L 233.089949 247.631489 
L 242.143069 257.553852 
L 250.24136 266.429708 
L 257.567155 274.458897 
L 264.255083 281.788972 
L 270.407379 288.531987 
L 276.103516 294.775044 
L 281.406493 300.587191 
L 286.367097 306.024092 
L 291.026867 311.131275 
L 295.420216 315.946455 
L 299.575967 320.501225 
L 303.518507 324.822312 
L 307.26865 328.932528 
L 310.844303 332.8515 
L 314.260984 336.596238 
L 317.53223 340.181575 
L 320.669918 343.620531 
L 323.684527 346.924591 
L 326.585349 350.103939 
L 329.380664 353.167648 
L 332.077877 356.123836 
L 334.683641 358.979795 
L 337.203954 361.742099 
L 339.644244 364.416695 
L 342.009436 367.008984 
L 344.304015 369.523878 
L 346.532074 371.965867 
L 348.697363 374.339059 
L 350.803322 376.647223 
L 352.853115 378.893828 
L 354.84966 381.082074 
L 356.795655 383.214915 
" clip-path="url(#p171eacc581)" style="fill: none; stroke-dasharray: 22.2,9.6; stroke-dashoffset: 0; stroke: #1f77b4; stroke-width: 6"/>
   </g>
   <g id="line2d_31">
    <path d="M 179.812802 213.515856 
L 196.964212 230.451802 
L 210.977935 244.227344 
L 222.826369 255.918907 
L 233.089949 266.125619 
L 242.143069 275.125519 
L 250.24136 283.275907 
L 257.567155 290.757045 
L 264.255083 297.641693 
L 270.407379 304.089604 
L 276.103516 310.109199 
L 281.406493 315.787834 
L 286.367097 321.165347 
L 291.026867 326.266169 
L 295.420216 331.168574 
L 299.575967 335.839982 
L 303.518507 340.311956 
L 307.26865 344.626771 
L 310.844303 348.774767 
L 314.260984 352.783517 
L 317.53223 356.656669 
L 320.669918 360.404168 
L 323.684527 364.032434 
L 326.585349 367.549233 
L 329.380664 370.965075 
L 332.077877 374.286885 
L 334.683641 377.538355 
L 337.203954 380.677629 
L 339.644244 383.735819 
L 342.009436 386.703947 
L 344.304015 389.596149 
L 346.532074 392.47526 
L 348.697363 395.20235 
L 350.803322 397.918294 
L 352.853115 400.552819 
L 354.84966 403.133606 
L 356.795655 405.68969 
" clip-path="url(#p171eacc581)" style="fill: none; stroke: #2ca02c; stroke-width: 6; stroke-linecap: round"/>
   </g>
   <g id="line2d_32">
    <path d="M 179.812802 207.257239 
L 196.964212 226.074361 
L 210.977935 241.44907 
L 222.826369 254.448201 
L 233.089949 265.70856 
L 242.143069 275.640901 
L 250.24136 284.525683 
L 257.567155 292.562946 
L 264.255083 299.900392 
L 270.407379 306.650188 
L 276.103516 312.899523 
L 281.406493 318.717514 
L 286.367097 324.159882 
L 291.026867 329.272201 
L 295.420216 334.092223 
L 299.575967 338.651573 
L 303.518507 342.977005 
L 307.26865 347.091354 
L 310.844303 351.014267 
L 314.260984 354.76277 
L 317.53223 358.351713 
L 320.669918 361.794127 
L 323.684527 365.101509 
L 326.585349 368.284054 
L 329.380664 371.350844 
L 332.077877 374.310005 
L 334.683641 377.168836 
L 337.203954 379.933918 
L 339.644244 382.611204 
L 342.009436 385.206099 
L 344.304015 387.723522 
L 346.532074 390.167967 
L 348.697363 392.543545 
L 350.803322 394.85403 
L 352.853115 397.102895 
L 354.84966 399.293341 
L 356.795655 401.428326 
" clip-path="url(#p171eacc581)" style="fill: none; stroke-dasharray: 22.2,9.6; stroke-dashoffset: 0; stroke: #2ca02c; stroke-width: 6"/>
   </g>
   <g id="line2d_33">
    <path d="M 179.812802 70.747128 
L 196.964212 92.257403 
L 210.977935 108.889535 
L 222.826369 122.134127 
L 233.089949 133.215341 
L 242.143069 142.875571 
L 250.24136 151.400592 
L 257.567155 159.153092 
L 264.255083 166.218784 
L 270.407379 172.7744 
L 276.103516 178.875045 
L 281.406493 184.626943 
L 286.367097 190.032424 
L 291.026867 195.155742 
L 295.420216 200.072936 
L 299.575967 204.750321 
L 303.518507 209.279684 
L 307.26865 213.565473 
L 310.844303 217.741695 
L 314.260984 221.727256 
L 317.53223 225.60579 
L 320.669918 229.348583 
L 323.684527 232.940192 
L 326.585349 236.476707 
L 329.380664 239.873746 
L 332.077877 243.201738 
L 334.683641 246.409647 
L 337.203954 249.544694 
L 339.644244 252.593828 
L 342.009436 255.568741 
L 344.304015 258.455973 
L 346.532074 261.288744 
L 348.697363 264.049077 
L 350.803322 266.745801 
L 352.853115 269.381025 
L 354.84966 271.928395 
L 356.795655 274.471244 
" clip-path="url(#p171eacc581)" style="fill: none; stroke: #8c564b; stroke-width: 6; stroke-linecap: round"/>
   </g>
   <g id="line2d_34">
    <path d="M 179.812802 71.118801 
L 196.964212 90.541844 
L 210.977935 106.411626 
L 222.826369 119.829336 
L 233.089949 131.452285 
L 242.143069 141.704452 
L 250.24136 150.875328 
L 257.567155 159.171395 
L 264.255083 166.745111 
L 270.407379 173.712254 
L 276.103516 180.16282 
L 281.406493 186.168154 
L 286.367097 191.785769 
L 291.026867 197.062707 
L 295.420216 202.037937 
L 299.575967 206.7441 
L 303.518507 211.208813 
L 307.26865 215.455646 
L 310.844303 219.50488 
L 314.260984 223.374086 
L 317.53223 227.078595 
L 320.669918 230.631856 
L 323.684527 234.045738 
L 326.585349 237.330762 
L 329.380664 240.496305 
L 332.077877 243.550752 
L 334.683641 246.501639 
L 337.203954 249.355757 
L 339.644244 252.119253 
L 342.009436 254.797705 
L 344.304015 257.396191 
L 346.532074 259.919348 
L 348.697363 262.371421 
L 350.803322 264.756305 
L 352.853115 267.077584 
L 354.84966 269.338564 
L 356.795655 271.542297 
" clip-path="url(#p171eacc581)" style="fill: none; stroke-dasharray: 22.2,9.6; stroke-dashoffset: 0; stroke: #8c564b; stroke-width: 6"/>
   </g>
   <g id="line2d_35">
    <path d="M 179.812802 138.519913 
L 196.964212 156.125991 
L 210.977935 170.072799 
L 222.826369 181.774427 
L 233.089949 191.951091 
L 242.143069 200.952699 
L 250.24136 209.097311 
L 257.567155 216.579523 
L 264.255083 223.421312 
L 270.407379 229.824309 
L 276.103516 235.839416 
L 281.406493 241.488777 
L 286.367097 246.854848 
L 291.026867 251.951517 
L 295.420216 256.814441 
L 299.575967 261.462742 
L 303.518507 265.943408 
L 307.26865 270.233668 
L 310.844303 274.354766 
L 314.260984 278.356812 
L 317.53223 282.23286 
L 320.669918 285.946916 
L 323.684527 289.561454 
L 326.585349 293.067171 
L 329.380664 296.467745 
L 332.077877 299.777841 
L 334.683641 303.01703 
L 337.203954 306.12129 
L 339.644244 309.177416 
L 342.009436 312.153482 
L 344.304015 315.042634 
L 346.532074 317.884023 
L 348.697363 320.649324 
L 350.803322 323.347534 
L 352.853115 325.953753 
L 354.84966 328.552614 
L 356.795655 331.058409 
" clip-path="url(#p171eacc581)" style="fill: none; stroke: #7f7f7f; stroke-width: 6; stroke-linecap: round"/>
   </g>
   <g id="line2d_36">
    <path d="M 179.812802 133.048264 
L 196.964212 151.835295 
L 210.977935 167.185417 
L 222.826369 180.16376 
L 233.089949 191.406113 
L 242.143069 201.32257 
L 250.24136 210.193144 
L 257.567155 218.217553 
L 264.255083 225.543266 
L 270.407379 232.282268 
L 276.103516 238.521609 
L 281.406493 244.330297 
L 286.367097 249.763961 
L 291.026867 254.868104 
L 295.420216 259.680419 
L 299.575967 264.232477 
L 303.518507 268.550992 
L 307.26865 272.658762 
L 310.844303 276.575402 
L 314.260984 280.31791 
L 317.53223 283.901114 
L 320.669918 287.338023 
L 323.684527 290.640116 
L 326.585349 293.817572 
L 329.380664 296.879457 
L 332.077877 299.833886 
L 334.683641 302.688145 
L 337.203954 305.448805 
L 339.644244 308.12181 
L 342.009436 310.712555 
L 344.304015 313.225953 
L 346.532074 315.666488 
L 348.697363 318.038267 
L 350.803322 320.345057 
L 352.853115 322.590326 
L 354.84966 324.777269 
L 356.795655 326.908841 
" clip-path="url(#p171eacc581)" style="fill: none; stroke-dasharray: 22.2,9.6; stroke-dashoffset: 0; stroke: #7f7f7f; stroke-width: 6"/>
   </g>
   <g id="line2d_37">
    <path d="M 179.812802 172.198174 
L 196.964212 189.109714 
L 210.977935 202.911617 
L 222.826369 214.598453 
L 233.089949 224.737601 
L 242.143069 233.774343 
L 250.24136 241.928162 
L 257.567155 249.386635 
L 264.255083 256.261036 
L 270.407379 262.656346 
L 276.103516 268.680923 
L 281.406493 274.330433 
L 286.367097 279.707337 
L 291.026867 284.805776 
L 295.420216 289.671085 
L 299.575967 294.333784 
L 303.518507 298.804317 
L 307.26865 303.102307 
L 310.844303 307.243814 
L 314.260984 311.250644 
L 317.53223 315.117806 
L 320.669918 318.850408 
L 323.684527 322.462722 
L 326.585349 325.999888 
L 329.380664 329.40166 
L 332.077877 332.710904 
L 334.683641 335.915573 
L 337.203954 339.0501 
L 339.644244 342.129562 
L 342.009436 345.088893 
L 344.304015 347.975115 
L 346.532074 350.810377 
L 348.697363 353.570187 
L 350.803322 356.279979 
L 352.853115 358.903541 
L 354.84966 361.486832 
L 356.795655 364.023165 
" clip-path="url(#p171eacc581)" style="fill: none; stroke: #17becf; stroke-width: 6; stroke-linecap: round"/>
   </g>
   <g id="line2d_38">
    <path d="M 179.812802 166.018835 
L 196.964212 184.797004 
L 210.977935 200.139885 
L 222.826369 213.112106 
L 233.089949 224.349155 
L 242.143069 234.260934 
L 250.24136 243.127323 
L 257.567155 251.147948 
L 264.255083 258.470204 
L 270.407379 265.206027 
L 276.103516 271.442425 
L 281.406493 277.248373 
L 286.367097 282.679474 
L 291.026867 287.78121 
L 295.420216 292.591254 
L 299.575967 297.141165 
L 303.518507 301.457643 
L 307.26865 305.563475 
L 310.844303 309.478267 
L 314.260984 313.21901 
L 317.53223 316.800524 
L 320.669918 320.235811 
L 323.684527 323.536347 
L 326.585349 326.712303 
L 329.380664 329.772745 
L 332.077877 332.72578 
L 334.683641 335.578692 
L 337.203954 338.33805 
L 339.644244 341.009794 
L 342.009436 343.599317 
L 344.304015 346.111529 
L 346.532074 348.550913 
L 348.697363 350.921573 
L 350.803322 353.227275 
L 352.853115 355.471485 
L 354.84966 357.657396 
L 356.795655 359.787962 
" clip-path="url(#p171eacc581)" style="fill: none; stroke-dasharray: 22.2,9.6; stroke-dashoffset: 0; stroke: #17becf; stroke-width: 6"/>
   </g>
   <g id="patch_3">
    <path d="M 170.963659 422.436818 
L 170.963659 54 
" style="fill: none; stroke: #262626; stroke-width: 0.8; stroke-linejoin: miter; stroke-linecap: square"/>
   </g>
   <g id="patch_4">
    <path d="M 365.644797 422.436818 
L 365.644797 54 
" style="fill: none; stroke: #262626; stroke-width: 0.8; stroke-linejoin: miter; stroke-linecap: square"/>
   </g>
   <g id="patch_5">
    <path d="M 170.963659 422.436818 
L 365.644797 422.436818 
" style="fill: none; stroke: #262626; stroke-width: 0.8; stroke-linejoin: miter; stroke-linecap: square"/>
   </g>
   <g id="patch_6">
    <path d="M 170.963659 54 
L 365.644797 54 
" style="fill: none; stroke: #262626; stroke-width: 0.8; stroke-linejoin: miter; stroke-linecap: square"/>
   </g>
   <g id="legend_1">
    <g id="patch_7">
     <path d="M 410.378854 511.727011 
L 983.884057 511.727011 
Q 993.884057 511.727011 993.884057 501.727011 
L 993.884057 89 
Q 993.884057 79 983.884057 79 
L 410.378854 79 
Q 400.378854 79 400.378854 89 
L 400.378854 501.727011 
Q 400.378854 511.727011 410.378854 511.727011 
z
" style="fill: #ffffff; opacity: 0.8; stroke: #cccccc; stroke-linejoin: miter"/>
    </g>
    <g id="text_7">
     <!-- Particle Size -->
     <g style="fill: #262626" transform="translate(576.979471 133.592507) scale(0.5 -0.5)">
      <defs>
       <path id="CMSS17-50" d="M 2106 1856 
C 2874 1856 3501 2453 3501 3158 
C 3501 3850 2899 4453 2067 4453 
L 570 4453 
L 570 0 
L 1107 0 
L 1107 1856 
L 2106 1856 
z
M 1926 4096 
C 2669 4096 2995 3627 2995 3157 
C 2995 2720 2694 2226 1926 2226 
L 1094 2226 
L 1094 4096 
L 1926 4096 
z
" transform="scale(0.015625)"/>
       <path id="CMSS17-61" d="M 2406 1791 
C 2406 2392 1978 2808 1402 2808 
C 1120 2808 813 2757 461 2553 
L 499 2135 
C 659 2248 934 2432 1395 2432 
C 1722 2432 1920 2180 1920 1782 
L 1920 1536 
C 896 1536 256 1238 256 726 
C 256 461 416 -64 947 -64 
C 1043 -64 1562 -64 1933 217 
L 1933 -19 
L 2406 -19 
L 2406 1791 
z
M 1920 816 
C 1920 701 1920 548 1728 434 
C 1562 325 1350 325 1261 325 
C 941 325 723 511 723 744 
C 723 1211 1722 1211 1920 1211 
L 1920 816 
z
" transform="scale(0.015625)"/>
       <path id="CMSS17-72" d="M 954 1363 
C 954 1965 1395 2368 1958 2368 
L 1958 2789 
C 1549 2789 1165 2585 934 2253 
L 934 2758 
L 480 2758 
L 480 0 
L 954 0 
L 954 1363 
z
" transform="scale(0.015625)"/>
       <path id="CMSS17-74" d="M 1069 2368 
L 1901 2368 
L 1901 2737 
L 1069 2737 
L 1069 3520 
L 614 3520 
L 614 2737 
L 109 2737 
L 109 2368 
L 602 2368 
L 602 749 
C 602 384 685 -64 1107 -64 
C 1427 -64 1722 25 2003 172 
L 1901 548 
C 1747 414 1562 337 1363 337 
C 1082 337 1069 696 1069 856 
L 1069 2368 
z
" transform="scale(0.015625)"/>
       <path id="CMSS17-69" d="M 979 4183 
L 442 4183 
L 442 3648 
L 979 3648 
L 979 4183 
z
M 947 2739 
L 474 2739 
L 474 0 
L 947 0 
L 947 2739 
z
" transform="scale(0.015625)"/>
       <path id="CMSS17-63" d="M 2464 2541 
C 2464 2585 2170 2714 2093 2739 
C 1882 2816 1613 2816 1542 2816 
C 710 2816 211 2093 211 1363 
C 211 595 768 -64 1517 -64 
C 1946 -64 2253 76 2502 242 
L 2464 664 
C 2189 453 1869 337 1523 337 
C 1024 337 698 774 698 1369 
C 698 1831 909 2414 1549 2414 
C 1901 2414 2099 2343 2394 2145 
L 2464 2541 
z
" transform="scale(0.015625)"/>
       <path id="CMSS17-6c" d="M 947 4416 
L 474 4416 
L 474 0 
L 947 0 
L 947 4416 
z
" transform="scale(0.015625)"/>
       <path id="CMSS17-65" d="M 2502 1377 
C 2502 1590 2490 2003 2285 2345 
C 2061 2713 1696 2816 1421 2816 
C 755 2816 192 2188 192 1375 
C 192 582 774 -64 1510 -64 
C 1798 -64 2150 19 2470 248 
C 2470 274 2458 414 2451 420 
C 2451 433 2432 630 2432 656 
C 2125 407 1773 325 1517 325 
C 1107 325 666 667 646 1377 
L 2502 1377 
z
M 698 1728 
C 781 2084 1062 2421 1421 2421 
C 1517 2421 1965 2421 2080 1728 
L 698 1728 
z
" transform="scale(0.015625)"/>
       <path id="CMSS17-53" d="M 2797 4169 
C 2515 4334 2208 4480 1690 4480 
C 864 4480 333 3879 333 3266 
C 333 3025 403 2753 653 2475 
C 902 2196 1184 2121 1542 2033 
C 1690 1994 1939 1924 1984 1906 
C 2342 1767 2515 1444 2515 1140 
C 2515 742 2202 318 1645 318 
C 1453 318 890 318 358 819 
L 269 318 
C 794 -64 1363 -128 1651 -128 
C 2438 -128 3002 488 3002 1186 
C 3002 1440 2925 1763 2656 2061 
C 2394 2347 2163 2410 1638 2549 
C 1338 2626 1146 2677 986 2873 
C 877 3013 819 3146 819 3317 
C 819 3673 1126 4060 1690 4060 
C 1971 4060 2336 4002 2707 3660 
L 2797 4169 
z
" transform="scale(0.015625)"/>
       <path id="CMSS17-7a" d="M 2400 2502 
L 2400 2750 
L 250 2750 
L 250 2368 
L 1069 2368 
C 1146 2368 1222 2368 1299 2368 
L 1747 2368 
L 166 261 
L 166 0 
L 2419 0 
L 2419 395 
L 1549 395 
C 1472 395 1395 395 1318 395 
L 826 395 
L 2400 2502 
z
" transform="scale(0.015625)"/>
      </defs>
      <use xlink:href="#CMSS17-50" transform="scale(0.996264)"/>
      <use xlink:href="#CMSS17-61" transform="translate(57.133132 0) scale(0.996264)"/>
      <use xlink:href="#CMSS17-72" transform="translate(99.452599 0) scale(0.996264)"/>
      <use xlink:href="#CMSS17-74" transform="translate(131.362372 0) scale(0.996264)"/>
      <use xlink:href="#CMSS17-69" transform="translate(165.193938 0) scale(0.996264)"/>
      <use xlink:href="#CMSS17-63" transform="translate(187.374661 0) scale(0.996264)"/>
      <use xlink:href="#CMSS17-6c" transform="translate(229.013483 0) scale(0.996264)"/>
      <use xlink:href="#CMSS17-65" transform="translate(251.194206 0) scale(0.996264)"/>
      <use xlink:href="#CMSS17-53" transform="translate(324.062141 0) scale(0.996264)"/>
      <use xlink:href="#CMSS17-69" transform="translate(376.110657 0) scale(0.996264)"/>
      <use xlink:href="#CMSS17-7a" transform="translate(398.29138 0) scale(0.996264)"/>
      <use xlink:href="#CMSS17-65" transform="translate(438.969252 0) scale(0.996264)"/>
     </g>
    </g>
    <g id="line2d_39">
     <path d="M 420.378854 185.781591 
L 470.378854 185.781591 
L 520.378854 185.781591 
" style="fill: none; stroke-dasharray: 22.2,9.6; stroke-dashoffset: 0; stroke: #1f77b4; stroke-width: 6"/>
    </g>
    <g id="text_8">
     <!-- Beta 0.08,Order 1.04 -->
     <g style="fill: #262626" transform="translate(560.378854 203.281591) scale(0.5 -0.5)">
      <defs>
       <path id="CMSS17-42" d="M 570 4416 
L 570 0 
L 2163 0 
C 3034 0 3667 574 3667 1200 
C 3667 1685 3251 2176 2502 2317 
C 3334 2558 3501 3040 3501 3313 
C 3501 3883 2874 4416 1997 4416 
L 570 4416 
z
M 1088 2496 
L 1088 4059 
L 1824 4059 
C 2483 4059 3002 3724 3002 3306 
C 3002 2926 2592 2496 1766 2496 
L 1088 2496 
z
M 1088 357 
L 1088 2107 
L 1939 2107 
C 2630 2107 3162 1679 3162 1206 
C 3162 772 2694 357 1984 357 
L 1088 357 
z
" transform="scale(0.015625)"/>
       <path id="CMSS17-30" d="M 2758 2044 
C 2758 2405 2752 3077 2490 3596 
C 2227 4096 1805 4229 1504 4229 
C 1069 4229 698 3975 506 3570 
C 301 3146 243 2709 243 2044 
C 243 1589 262 1031 493 543 
C 755 5 1197 -128 1498 -128 
C 1894 -128 2278 81 2496 518 
C 2720 974 2758 1474 2758 2044 
z
M 1498 261 
C 1011 261 864 811 819 995 
C 742 1310 730 1614 730 2114 
C 730 2506 730 2948 851 3297 
C 998 3701 1254 3840 1498 3840 
C 1971 3840 2125 3372 2176 3208 
C 2272 2873 2272 2481 2272 2114 
C 2272 1526 2272 261 1498 261 
z
" transform="scale(0.015625)"/>
       <path id="CMSS17-2e" d="M 1088 510 
L 576 510 
L 576 0 
L 1088 0 
L 1088 510 
z
" transform="scale(0.015625)"/>
       <path id="CMSS17-38" d="M 1933 2222 
C 2419 2380 2669 2760 2669 3134 
C 2669 3722 2157 4229 1504 4229 
C 826 4229 333 3708 333 3144 
C 333 2780 576 2403 1069 2241 
C 442 1997 250 1512 250 1149 
C 250 446 819 -128 1498 -128 
C 2202 -128 2752 455 2752 1138 
C 2752 1557 2502 2000 1933 2222 
z
M 1504 2432 
C 1075 2432 787 2712 787 3136 
C 787 3566 1075 3840 1504 3840 
C 1901 3840 2214 3591 2214 3136 
C 2214 2687 1907 2432 1504 2432 
z
M 1504 267 
C 1139 267 749 517 749 1156 
C 749 1813 1184 2043 1498 2043 
C 1843 2043 2253 1800 2253 1156 
C 2253 491 1830 267 1504 267 
z
" transform="scale(0.015625)"/>
       <path id="CMSS17-2c" d="M 1088 6 
L 1088 510 
L 576 510 
L 576 0 
L 736 0 
L 570 -800 
L 826 -800 
L 1088 6 
z
" transform="scale(0.015625)"/>
       <path id="CMSS17-4f" d="M 4096 2178 
C 4096 3503 3219 4497 2214 4497 
C 1210 4497 333 3497 333 2178 
C 333 847 1222 -128 2214 -128 
C 3206 -128 4096 847 4096 2178 
z
M 2214 273 
C 1510 273 870 1057 870 2261 
C 870 3433 1549 4096 2214 4096 
C 2880 4096 3558 3433 3558 2261 
C 3558 1051 2912 273 2214 273 
z
" transform="scale(0.015625)"/>
       <path id="CMSS17-64" d="M 2611 4416 
L 2138 4416 
L 2138 2438 
C 1939 2603 1613 2756 1254 2756 
C 672 2756 211 2131 211 1347 
C 211 562 666 -64 1235 -64 
C 1677 -64 1971 172 2125 306 
L 2125 -13 
L 2611 -13 
L 2611 4416 
z
M 2125 836 
C 2125 747 2125 653 1926 482 
C 1798 375 1645 325 1498 325 
C 1152 325 698 576 698 1340 
C 698 2134 1210 2368 1562 2368 
C 1798 2368 1990 2254 2125 2065 
L 2125 836 
z
" transform="scale(0.015625)"/>
       <path id="CMSS17-31" d="M 1818 4288 
L 1696 4288 
C 1350 3940 947 3890 538 3890 
L 538 3520 
C 723 3520 1024 3520 1325 3667 
L 1325 369 
L 570 369 
L 570 0 
L 2573 0 
L 2573 369 
L 1818 369 
L 1818 4288 
z
" transform="scale(0.015625)"/>
       <path id="CMSS17-34" d="M 2253 1088 
L 2835 1088 
L 2835 1477 
L 2253 1477 
L 2253 4192 
L 1690 4192 
L 166 1477 
L 166 1088 
L 1747 1088 
L 1747 0 
L 2253 0 
L 2253 1088 
z
M 659 1477 
C 1030 2127 1766 3439 1766 3885 
L 1766 1477 
L 659 1477 
z
" transform="scale(0.015625)"/>
      </defs>
      <use xlink:href="#CMSS17-42" transform="scale(0.996264)"/>
      <use xlink:href="#CMSS17-65" transform="translate(62.33804 0) scale(0.996264)"/>
      <use xlink:href="#CMSS17-74" transform="translate(103.976862 0) scale(0.996264)"/>
      <use xlink:href="#CMSS17-61" transform="translate(137.808429 0) scale(0.996264)"/>
      <use xlink:href="#CMSS17-30" transform="translate(213.959462 0) scale(0.996264)"/>
      <use xlink:href="#CMSS17-2e" transform="translate(260.803086 0) scale(0.996264)"/>
      <use xlink:href="#CMSS17-30" transform="translate(286.827291 0) scale(0.996264)"/>
      <use xlink:href="#CMSS17-38" transform="translate(333.670914 0) scale(0.996264)"/>
      <use xlink:href="#CMSS17-2c" transform="translate(380.514538 0) scale(0.996264)"/>
      <use xlink:href="#CMSS17-4f" transform="translate(406.538743 0) scale(0.996264)"/>
      <use xlink:href="#CMSS17-72" transform="translate(475.562998 0) scale(0.996264)"/>
      <use xlink:href="#CMSS17-64" transform="translate(507.472771 0) scale(0.996264)"/>
      <use xlink:href="#CMSS17-65" transform="translate(555.677714 0) scale(0.996264)"/>
      <use xlink:href="#CMSS17-72" transform="translate(597.316536 0) scale(0.996264)"/>
      <use xlink:href="#CMSS17-31" transform="translate(660.455421 0) scale(0.996264)"/>
      <use xlink:href="#CMSS17-2e" transform="translate(707.299045 0) scale(0.996264)"/>
      <use xlink:href="#CMSS17-30" transform="translate(733.323249 0) scale(0.996264)"/>
      <use xlink:href="#CMSS17-34" transform="translate(780.166873 0) scale(0.996264)"/>
     </g>
    </g>
    <g id="line2d_40">
     <path d="M 420.378854 255.470675 
L 470.378854 255.470675 
L 520.378854 255.470675 
" style="fill: none; stroke-dasharray: 22.2,9.6; stroke-dashoffset: 0; stroke: #2ca02c; stroke-width: 6"/>
    </g>
    <g id="text_9">
     <!-- Beta 0.1,Order 1.04 -->
     <g style="fill: #262626" transform="translate(560.378854 272.970675) scale(0.5 -0.5)">
      <use xlink:href="#CMSS17-42" transform="scale(0.996264)"/>
      <use xlink:href="#CMSS17-65" transform="translate(62.33804 0) scale(0.996264)"/>
      <use xlink:href="#CMSS17-74" transform="translate(103.976862 0) scale(0.996264)"/>
      <use xlink:href="#CMSS17-61" transform="translate(137.808429 0) scale(0.996264)"/>
      <use xlink:href="#CMSS17-30" transform="translate(213.959462 0) scale(0.996264)"/>
      <use xlink:href="#CMSS17-2e" transform="translate(260.803086 0) scale(0.996264)"/>
      <use xlink:href="#CMSS17-31" transform="translate(286.827291 0) scale(0.996264)"/>
      <use xlink:href="#CMSS17-2c" transform="translate(333.670914 0) scale(0.996264)"/>
      <use xlink:href="#CMSS17-4f" transform="translate(359.695119 0) scale(0.996264)"/>
      <use xlink:href="#CMSS17-72" transform="translate(428.719374 0) scale(0.996264)"/>
      <use xlink:href="#CMSS17-64" transform="translate(460.629147 0) scale(0.996264)"/>
      <use xlink:href="#CMSS17-65" transform="translate(508.83409 0) scale(0.996264)"/>
      <use xlink:href="#CMSS17-72" transform="translate(550.472912 0) scale(0.996264)"/>
      <use xlink:href="#CMSS17-31" transform="translate(613.611798 0) scale(0.996264)"/>
      <use xlink:href="#CMSS17-2e" transform="translate(660.455421 0) scale(0.996264)"/>
      <use xlink:href="#CMSS17-30" transform="translate(686.479626 0) scale(0.996264)"/>
      <use xlink:href="#CMSS17-34" transform="translate(733.323249 0) scale(0.996264)"/>
     </g>
    </g>
    <g id="line2d_41">
     <path d="M 420.378854 325.159759 
L 470.378854 325.159759 
L 520.378854 325.159759 
" style="fill: none; stroke-dasharray: 22.2,9.6; stroke-dashoffset: 0; stroke: #8c564b; stroke-width: 6"/>
    </g>
    <g id="text_10">
     <!-- Beta 0.02,Order 1.08 -->
     <g style="fill: #262626" transform="translate(560.378854 342.659759) scale(0.5 -0.5)">
      <defs>
       <path id="CMSS17-32" d="M 1651 1357 
C 1830 1541 2099 1764 2285 1987 
C 2464 2204 2701 2511 2701 2957 
C 2701 3657 2227 4288 1421 4288 
C 787 4288 422 3893 250 3274 
L 499 2929 
C 640 3510 838 3880 1338 3880 
C 1888 3880 2195 3433 2195 2942 
C 2195 2355 1747 1901 1408 1563 
C 1030 1187 659 804 301 408 
L 301 0 
L 2701 0 
L 2701 433 
L 1613 433 
C 1536 433 1459 433 1382 433 
L 742 433 
L 742 439 
L 1651 1357 
z
" transform="scale(0.015625)"/>
      </defs>
      <use xlink:href="#CMSS17-42" transform="scale(0.996264)"/>
      <use xlink:href="#CMSS17-65" transform="translate(62.33804 0) scale(0.996264)"/>
      <use xlink:href="#CMSS17-74" transform="translate(103.976862 0) scale(0.996264)"/>
      <use xlink:href="#CMSS17-61" transform="translate(137.808429 0) scale(0.996264)"/>
      <use xlink:href="#CMSS17-30" transform="translate(213.959462 0) scale(0.996264)"/>
      <use xlink:href="#CMSS17-2e" transform="translate(260.803086 0) scale(0.996264)"/>
      <use xlink:href="#CMSS17-30" transform="translate(286.827291 0) scale(0.996264)"/>
      <use xlink:href="#CMSS17-32" transform="translate(333.670914 0) scale(0.996264)"/>
      <use xlink:href="#CMSS17-2c" transform="translate(380.514538 0) scale(0.996264)"/>
      <use xlink:href="#CMSS17-4f" transform="translate(406.538743 0) scale(0.996264)"/>
      <use xlink:href="#CMSS17-72" transform="translate(475.562998 0) scale(0.996264)"/>
      <use xlink:href="#CMSS17-64" transform="translate(507.472771 0) scale(0.996264)"/>
      <use xlink:href="#CMSS17-65" transform="translate(555.677714 0) scale(0.996264)"/>
      <use xlink:href="#CMSS17-72" transform="translate(597.316536 0) scale(0.996264)"/>
      <use xlink:href="#CMSS17-31" transform="translate(660.455421 0) scale(0.996264)"/>
      <use xlink:href="#CMSS17-2e" transform="translate(707.299045 0) scale(0.996264)"/>
      <use xlink:href="#CMSS17-30" transform="translate(733.323249 0) scale(0.996264)"/>
      <use xlink:href="#CMSS17-38" transform="translate(780.166873 0) scale(0.996264)"/>
     </g>
    </g>
    <g id="line2d_42">
     <path d="M 420.378854 394.848843 
L 470.378854 394.848843 
L 520.378854 394.848843 
" style="fill: none; stroke-dasharray: 22.2,9.6; stroke-dashoffset: 0; stroke: #7f7f7f; stroke-width: 6"/>
    </g>
    <g id="text_11">
     <!-- Beta 0.04,Order 1.04 -->
     <g style="fill: #262626" transform="translate(560.378854 412.348843) scale(0.5 -0.5)">
      <use xlink:href="#CMSS17-42" transform="scale(0.996264)"/>
      <use xlink:href="#CMSS17-65" transform="translate(62.33804 0) scale(0.996264)"/>
      <use xlink:href="#CMSS17-74" transform="translate(103.976862 0) scale(0.996264)"/>
      <use xlink:href="#CMSS17-61" transform="translate(137.808429 0) scale(0.996264)"/>
      <use xlink:href="#CMSS17-30" transform="translate(213.959462 0) scale(0.996264)"/>
      <use xlink:href="#CMSS17-2e" transform="translate(260.803086 0) scale(0.996264)"/>
      <use xlink:href="#CMSS17-30" transform="translate(286.827291 0) scale(0.996264)"/>
      <use xlink:href="#CMSS17-34" transform="translate(333.670914 0) scale(0.996264)"/>
      <use xlink:href="#CMSS17-2c" transform="translate(380.514538 0) scale(0.996264)"/>
      <use xlink:href="#CMSS17-4f" transform="translate(406.538743 0) scale(0.996264)"/>
      <use xlink:href="#CMSS17-72" transform="translate(475.562998 0) scale(0.996264)"/>
      <use xlink:href="#CMSS17-64" transform="translate(507.472771 0) scale(0.996264)"/>
      <use xlink:href="#CMSS17-65" transform="translate(555.677714 0) scale(0.996264)"/>
      <use xlink:href="#CMSS17-72" transform="translate(597.316536 0) scale(0.996264)"/>
      <use xlink:href="#CMSS17-31" transform="translate(660.455421 0) scale(0.996264)"/>
      <use xlink:href="#CMSS17-2e" transform="translate(707.299045 0) scale(0.996264)"/>
      <use xlink:href="#CMSS17-30" transform="translate(733.323249 0) scale(0.996264)"/>
      <use xlink:href="#CMSS17-34" transform="translate(780.166873 0) scale(0.996264)"/>
     </g>
    </g>
    <g id="line2d_43">
     <path d="M 420.378854 464.537927 
L 470.378854 464.537927 
L 520.378854 464.537927 
" style="fill: none; stroke-dasharray: 22.2,9.6; stroke-dashoffset: 0; stroke: #17becf; stroke-width: 6"/>
    </g>
    <g id="text_12">
     <!-- Beta 0.06,Order 1.04 -->
     <g style="fill: #262626" transform="translate(560.378854 482.037927) scale(0.5 -0.5)">
      <defs>
       <path id="CMSS17-36" d="M 2496 4101 
C 2227 4210 2035 4229 1856 4229 
C 1024 4229 250 3368 250 2006 
C 250 265 986 -128 1510 -128 
C 1798 -128 2086 -39 2362 280 
C 2643 617 2752 898 2752 1389 
C 2752 2179 2362 2880 1779 2880 
C 1357 2880 992 2657 768 2376 
C 832 3258 1254 3840 1862 3840 
C 2029 3840 2246 3816 2496 3710 
L 2496 4101 
z
M 774 1369 
C 774 1420 774 1452 781 1548 
C 781 2045 1069 2491 1536 2491 
C 1837 2491 1990 2332 2106 2135 
C 2240 1886 2246 1650 2246 1388 
C 2246 1140 2246 891 2099 637 
C 1978 439 1818 267 1510 267 
C 902 267 800 1114 774 1369 
z
" transform="scale(0.015625)"/>
      </defs>
      <use xlink:href="#CMSS17-42" transform="scale(0.996264)"/>
      <use xlink:href="#CMSS17-65" transform="translate(62.33804 0) scale(0.996264)"/>
      <use xlink:href="#CMSS17-74" transform="translate(103.976862 0) scale(0.996264)"/>
      <use xlink:href="#CMSS17-61" transform="translate(137.808429 0) scale(0.996264)"/>
      <use xlink:href="#CMSS17-30" transform="translate(213.959462 0) scale(0.996264)"/>
      <use xlink:href="#CMSS17-2e" transform="translate(260.803086 0) scale(0.996264)"/>
      <use xlink:href="#CMSS17-30" transform="translate(286.827291 0) scale(0.996264)"/>
      <use xlink:href="#CMSS17-36" transform="translate(333.670914 0) scale(0.996264)"/>
      <use xlink:href="#CMSS17-2c" transform="translate(380.514538 0) scale(0.996264)"/>
      <use xlink:href="#CMSS17-4f" transform="translate(406.538743 0) scale(0.996264)"/>
      <use xlink:href="#CMSS17-72" transform="translate(475.562998 0) scale(0.996264)"/>
      <use xlink:href="#CMSS17-64" transform="translate(507.472771 0) scale(0.996264)"/>
      <use xlink:href="#CMSS17-65" transform="translate(555.677714 0) scale(0.996264)"/>
      <use xlink:href="#CMSS17-72" transform="translate(597.316536 0) scale(0.996264)"/>
      <use xlink:href="#CMSS17-31" transform="translate(660.455421 0) scale(0.996264)"/>
      <use xlink:href="#CMSS17-2e" transform="translate(707.299045 0) scale(0.996264)"/>
      <use xlink:href="#CMSS17-30" transform="translate(733.323249 0) scale(0.996264)"/>
      <use xlink:href="#CMSS17-34" transform="translate(780.166873 0) scale(0.996264)"/>
     </g>
    </g>
   </g>
  </g>
 </g>
 <defs>
  <clipPath id="p171eacc581">
   <rect x="170.963659" y="54" width="194.681138" height="368.436818"/>
  </clipPath>
 </defs>
</svg>
