<?xml version="1.0" encoding="utf-8" standalone="no"?>
<!DOCTYPE svg PUBLIC "-//W3C//DTD SVG 1.1//EN"
  "http://www.w3.org/Graphics/SVG/1.1/DTD/svg11.dtd">
<svg xmlns:xlink="http://www.w3.org/1999/xlink" width="1080pt" height="756pt" viewBox="0 0 1080 756" xmlns="http://www.w3.org/2000/svg" version="1.1">
 <metadata>
  <rdf:RDF xmlns:dc="http://purl.org/dc/elements/1.1/" xmlns:cc="http://creativecommons.org/ns#" xmlns:rdf="http://www.w3.org/1999/02/22-rdf-syntax-ns#">
   <cc:Work>
    <dc:type rdf:resource="http://purl.org/dc/dcmitype/StillImage"/>
    <dc:date>2024-07-30T20:13:45.865786</dc:date>
    <dc:format>image/svg+xml</dc:format>
    <dc:creator>
     <cc:Agent>
      <dc:title>Matplotlib v3.9.0, https://matplotlib.org/</dc:title>
     </cc:Agent>
    </dc:creator>
   </cc:Work>
  </rdf:RDF>
 </metadata>
 <defs>
  <style type="text/css">*{stroke-linejoin: round; stroke-linecap: butt}</style>
 </defs>
 <g id="figure_1">
  <g id="patch_1">
   <path d="M 0 756 
L 1080 756 
L 1080 0 
L 0 0 
z
" style="fill: #ffffff"/>
  </g>
  <g id="axes_1">
   <g id="patch_2">
    <path d="M 88.532127 678.237256 
L 1041.12 678.237256 
L 1041.12 38.88 
L 88.532127 38.88 
z
" style="fill: #ffffff"/>
   </g>
   <g id="matplotlib.axis_1">
    <g id="xtick_1">
     <g id="line2d_1">
      <defs>
       <path id="maedd5037ef" d="M 0 0 
L 0 3.5 
" style="stroke: #262626; stroke-width: 0.8"/>
      </defs>
      <g>
       <use xlink:href="#maedd5037ef" x="131.831576" y="678.237256" style="fill: #262626; stroke: #262626; stroke-width: 0.8"/>
      </g>
     </g>
     <g id="text_1">
      <!-- $\mathdefault{0.0}$ -->
      <g style="fill: #262626" transform="translate(110.505512 710.143856) scale(0.36 -0.36)">
       <defs>
        <path id="CMR17-30" d="M 2688 2025 
C 2688 2416 2682 3080 2413 3591 
C 2176 4039 1798 4198 1466 4198 
C 1158 4198 768 4058 525 3597 
C 269 3118 243 2524 243 2025 
C 243 1661 250 1106 448 619 
C 723 -39 1216 -128 1466 -128 
C 1760 -128 2208 -7 2470 600 
C 2662 1042 2688 1559 2688 2025 
z
M 1466 -26 
C 1056 -26 813 325 723 812 
C 653 1188 653 1738 653 2096 
C 653 2588 653 2997 736 3387 
C 858 3929 1216 4096 1466 4096 
C 1728 4096 2067 3923 2189 3400 
C 2272 3036 2278 2607 2278 2096 
C 2278 1680 2278 1169 2202 792 
C 2067 95 1690 -26 1466 -26 
z
" transform="scale(0.015625)"/>
        <path id="CMMI12-3a" d="M 1178 307 
C 1178 492 1024 619 870 619 
C 685 619 557 466 557 313 
C 557 128 710 0 864 0 
C 1050 0 1178 153 1178 307 
z
" transform="scale(0.015625)"/>
       </defs>
       <use xlink:href="#CMR17-30" transform="scale(0.996264)"/>
       <use xlink:href="#CMMI12-3a" transform="translate(45.690477 0) scale(0.996264)"/>
       <use xlink:href="#CMR17-30" transform="translate(72.787654 0) scale(0.996264)"/>
      </g>
     </g>
    </g>
    <g id="xtick_2">
     <g id="line2d_2">
      <g>
       <use xlink:href="#maedd5037ef" x="305.029371" y="678.237256" style="fill: #262626; stroke: #262626; stroke-width: 0.8"/>
      </g>
     </g>
     <g id="text_2">
      <!-- $\mathdefault{0.2}$ -->
      <g style="fill: #262626" transform="translate(283.703307 710.143856) scale(0.36 -0.36)">
       <defs>
        <path id="CMR17-32" d="M 2669 989 
L 2554 989 
C 2490 536 2438 459 2413 420 
C 2381 369 1920 369 1830 369 
L 602 369 
C 832 619 1280 1072 1824 1597 
C 2214 1967 2669 2402 2669 3035 
C 2669 3790 2067 4224 1395 4224 
C 691 4224 262 3604 262 3030 
C 262 2780 448 2748 525 2748 
C 589 2748 781 2787 781 3010 
C 781 3207 614 3264 525 3264 
C 486 3264 448 3258 422 3245 
C 544 3790 915 4058 1306 4058 
C 1862 4058 2227 3617 2227 3035 
C 2227 2479 1901 2000 1536 1584 
L 262 146 
L 262 0 
L 2515 0 
L 2669 989 
z
" transform="scale(0.015625)"/>
       </defs>
       <use xlink:href="#CMR17-30" transform="scale(0.996264)"/>
       <use xlink:href="#CMMI12-3a" transform="translate(45.690477 0) scale(0.996264)"/>
       <use xlink:href="#CMR17-32" transform="translate(72.787654 0) scale(0.996264)"/>
      </g>
     </g>
    </g>
    <g id="xtick_3">
     <g id="line2d_3">
      <g>
       <use xlink:href="#maedd5037ef" x="478.227166" y="678.237256" style="fill: #262626; stroke: #262626; stroke-width: 0.8"/>
      </g>
     </g>
     <g id="text_3">
      <!-- $\mathdefault{0.4}$ -->
      <g style="fill: #262626" transform="translate(456.901102 710.143856) scale(0.36 -0.36)">
       <defs>
        <path id="CMR17-34" d="M 2150 4122 
C 2150 4256 2144 4256 2029 4256 
L 128 1254 
L 128 1088 
L 1779 1088 
L 1779 457 
C 1779 224 1766 160 1318 160 
L 1197 160 
L 1197 0 
C 1402 0 1747 0 1965 0 
C 2182 0 2528 0 2733 0 
L 2733 160 
L 2611 160 
C 2163 160 2150 224 2150 457 
L 2150 1088 
L 2803 1088 
L 2803 1254 
L 2150 1254 
L 2150 4122 
z
M 1798 3703 
L 1798 1254 
L 256 1254 
L 1798 3703 
z
" transform="scale(0.015625)"/>
       </defs>
       <use xlink:href="#CMR17-30" transform="scale(0.996264)"/>
       <use xlink:href="#CMMI12-3a" transform="translate(45.690477 0) scale(0.996264)"/>
       <use xlink:href="#CMR17-34" transform="translate(72.787654 0) scale(0.996264)"/>
      </g>
     </g>
    </g>
    <g id="xtick_4">
     <g id="line2d_4">
      <g>
       <use xlink:href="#maedd5037ef" x="651.424961" y="678.237256" style="fill: #262626; stroke: #262626; stroke-width: 0.8"/>
      </g>
     </g>
     <g id="text_4">
      <!-- $\mathdefault{0.6}$ -->
      <g style="fill: #262626" transform="translate(630.098898 710.143856) scale(0.36 -0.36)">
       <defs>
        <path id="CMR17-36" d="M 678 2176 
C 678 3690 1395 4032 1811 4032 
C 1946 4032 2272 4009 2400 3776 
C 2298 3776 2106 3776 2106 3553 
C 2106 3381 2246 3323 2336 3323 
C 2394 3323 2566 3348 2566 3560 
C 2566 3954 2246 4179 1805 4179 
C 1043 4179 243 3390 243 1984 
C 243 253 966 -128 1478 -128 
C 2099 -128 2688 427 2688 1283 
C 2688 2081 2170 2662 1517 2662 
C 1126 2662 838 2407 678 1960 
L 678 2176 
z
M 1478 25 
C 691 25 691 1200 691 1436 
C 691 1896 909 2560 1504 2560 
C 1613 2560 1926 2560 2138 2120 
C 2253 1870 2253 1609 2253 1289 
C 2253 944 2253 690 2118 434 
C 1978 171 1773 25 1478 25 
z
" transform="scale(0.015625)"/>
       </defs>
       <use xlink:href="#CMR17-30" transform="scale(0.996264)"/>
       <use xlink:href="#CMMI12-3a" transform="translate(45.690477 0) scale(0.996264)"/>
       <use xlink:href="#CMR17-36" transform="translate(72.787654 0) scale(0.996264)"/>
      </g>
     </g>
    </g>
    <g id="xtick_5">
     <g id="line2d_5">
      <g>
       <use xlink:href="#maedd5037ef" x="824.622756" y="678.237256" style="fill: #262626; stroke: #262626; stroke-width: 0.8"/>
      </g>
     </g>
     <g id="text_5">
      <!-- $\mathdefault{0.8}$ -->
      <g style="fill: #262626" transform="translate(803.296693 710.143856) scale(0.36 -0.36)">
       <defs>
        <path id="CMR17-38" d="M 1741 2264 
C 2144 2467 2554 2773 2554 3263 
C 2554 3841 1990 4179 1472 4179 
C 890 4179 378 3759 378 3180 
C 378 3021 416 2747 666 2505 
C 730 2442 998 2251 1171 2130 
C 883 1983 211 1634 211 934 
C 211 279 838 -128 1459 -128 
C 2144 -128 2720 362 2720 1010 
C 2720 1590 2330 1857 2074 2029 
L 1741 2264 
z
M 902 2822 
C 851 2854 595 3051 595 3351 
C 595 3739 998 4032 1459 4032 
C 1965 4032 2336 3676 2336 3262 
C 2336 2669 1670 2331 1638 2331 
C 1632 2331 1626 2331 1574 2370 
L 902 2822 
z
M 2080 1519 
C 2176 1449 2483 1240 2483 851 
C 2483 381 2010 25 1472 25 
C 890 25 448 438 448 940 
C 448 1443 838 1862 1280 2060 
L 2080 1519 
z
" transform="scale(0.015625)"/>
       </defs>
       <use xlink:href="#CMR17-30" transform="scale(0.996264)"/>
       <use xlink:href="#CMMI12-3a" transform="translate(45.690477 0) scale(0.996264)"/>
       <use xlink:href="#CMR17-38" transform="translate(72.787654 0) scale(0.996264)"/>
      </g>
     </g>
    </g>
    <g id="xtick_6">
     <g id="line2d_6">
      <g>
       <use xlink:href="#maedd5037ef" x="997.820551" y="678.237256" style="fill: #262626; stroke: #262626; stroke-width: 0.8"/>
      </g>
     </g>
     <g id="text_6">
      <!-- $\mathdefault{1.0}$ -->
      <g style="fill: #262626" transform="translate(976.494488 710.143856) scale(0.36 -0.36)">
       <defs>
        <path id="CMR17-31" d="M 1702 4058 
C 1702 4192 1696 4192 1606 4192 
C 1357 3916 979 3827 621 3827 
C 602 3827 570 3827 563 3808 
C 557 3795 557 3782 557 3648 
C 755 3648 1088 3686 1344 3839 
L 1344 461 
C 1344 236 1331 160 781 160 
L 589 160 
L 589 0 
C 896 0 1216 0 1523 0 
C 1830 0 2150 0 2458 0 
L 2458 160 
L 2266 160 
C 1715 160 1702 230 1702 458 
L 1702 4058 
z
" transform="scale(0.015625)"/>
       </defs>
       <use xlink:href="#CMR17-31" transform="scale(0.996264)"/>
       <use xlink:href="#CMMI12-3a" transform="translate(45.690477 0) scale(0.996264)"/>
       <use xlink:href="#CMR17-30" transform="translate(72.787654 0) scale(0.996264)"/>
      </g>
     </g>
    </g>
   </g>
   <g id="matplotlib.axis_2">
    <g id="ytick_1">
     <g id="line2d_7">
      <defs>
       <path id="mbcb26208d2" d="M 0 0 
L -3.5 0 
" style="stroke: #262626; stroke-width: 0.8"/>
      </defs>
      <g>
       <use xlink:href="#mbcb26208d2" x="88.532127" y="629.56476" style="fill: #262626; stroke: #262626; stroke-width: 0.8"/>
      </g>
     </g>
     <g id="text_7">
      <!-- $\mathdefault{0.0}$ -->
      <g style="fill: #262626" transform="translate(38.88 642.01806) scale(0.36 -0.36)">
       <use xlink:href="#CMR17-30" transform="scale(0.996264)"/>
       <use xlink:href="#CMMI12-3a" transform="translate(45.690477 0) scale(0.996264)"/>
       <use xlink:href="#CMR17-30" transform="translate(72.787654 0) scale(0.996264)"/>
      </g>
     </g>
    </g>
    <g id="ytick_2">
     <g id="line2d_8">
      <g>
       <use xlink:href="#mbcb26208d2" x="88.532127" y="517.240147" style="fill: #262626; stroke: #262626; stroke-width: 0.8"/>
      </g>
     </g>
     <g id="text_8">
      <!-- $\mathdefault{0.2}$ -->
      <g style="fill: #262626" transform="translate(38.88 529.693447) scale(0.36 -0.36)">
       <use xlink:href="#CMR17-30" transform="scale(0.996264)"/>
       <use xlink:href="#CMMI12-3a" transform="translate(45.690477 0) scale(0.996264)"/>
       <use xlink:href="#CMR17-32" transform="translate(72.787654 0) scale(0.996264)"/>
      </g>
     </g>
    </g>
    <g id="ytick_3">
     <g id="line2d_9">
      <g>
       <use xlink:href="#mbcb26208d2" x="88.532127" y="404.915533" style="fill: #262626; stroke: #262626; stroke-width: 0.8"/>
      </g>
     </g>
     <g id="text_9">
      <!-- $\mathdefault{0.4}$ -->
      <g style="fill: #262626" transform="translate(38.88 417.368833) scale(0.36 -0.36)">
       <use xlink:href="#CMR17-30" transform="scale(0.996264)"/>
       <use xlink:href="#CMMI12-3a" transform="translate(45.690477 0) scale(0.996264)"/>
       <use xlink:href="#CMR17-34" transform="translate(72.787654 0) scale(0.996264)"/>
      </g>
     </g>
    </g>
    <g id="ytick_4">
     <g id="line2d_10">
      <g>
       <use xlink:href="#mbcb26208d2" x="88.532127" y="292.59092" style="fill: #262626; stroke: #262626; stroke-width: 0.8"/>
      </g>
     </g>
     <g id="text_10">
      <!-- $\mathdefault{0.6}$ -->
      <g style="fill: #262626" transform="translate(38.88 305.04422) scale(0.36 -0.36)">
       <use xlink:href="#CMR17-30" transform="scale(0.996264)"/>
       <use xlink:href="#CMMI12-3a" transform="translate(45.690477 0) scale(0.996264)"/>
       <use xlink:href="#CMR17-36" transform="translate(72.787654 0) scale(0.996264)"/>
      </g>
     </g>
    </g>
    <g id="ytick_5">
     <g id="line2d_11">
      <g>
       <use xlink:href="#mbcb26208d2" x="88.532127" y="180.266307" style="fill: #262626; stroke: #262626; stroke-width: 0.8"/>
      </g>
     </g>
     <g id="text_11">
      <!-- $\mathdefault{0.8}$ -->
      <g style="fill: #262626" transform="translate(38.88 192.719607) scale(0.36 -0.36)">
       <use xlink:href="#CMR17-30" transform="scale(0.996264)"/>
       <use xlink:href="#CMMI12-3a" transform="translate(45.690477 0) scale(0.996264)"/>
       <use xlink:href="#CMR17-38" transform="translate(72.787654 0) scale(0.996264)"/>
      </g>
     </g>
    </g>
    <g id="ytick_6">
     <g id="line2d_12">
      <g>
       <use xlink:href="#mbcb26208d2" x="88.532127" y="67.941693" style="fill: #262626; stroke: #262626; stroke-width: 0.8"/>
      </g>
     </g>
     <g id="text_12">
      <!-- $\mathdefault{1.0}$ -->
      <g style="fill: #262626" transform="translate(38.88 80.394994) scale(0.36 -0.36)">
       <use xlink:href="#CMR17-31" transform="scale(0.996264)"/>
       <use xlink:href="#CMMI12-3a" transform="translate(45.690477 0) scale(0.996264)"/>
       <use xlink:href="#CMR17-30" transform="translate(72.787654 0) scale(0.996264)"/>
      </g>
     </g>
    </g>
   </g>
   <g id="line2d_13">
    <path d="M 131.831576 67.941693 
L 997.820551 67.941693 
L 997.820551 67.941693 
" clip-path="url(#p13bea41d1b)" style="fill: none; stroke: #1f77b4; stroke-width: 5; stroke-linecap: round"/>
   </g>
   <g id="line2d_14">
    <path d="M 131.831576 496.617454 
L 276.163072 458.691863 
L 339.66893 442.243084 
L 397.401528 427.513495 
L 449.360867 414.479307 
L 501.320205 401.686727 
L 547.506284 390.536347 
L 593.692363 379.609892 
L 639.878441 368.915972 
L 686.06452 358.466096 
L 732.250599 348.266157 
L 778.436678 338.321682 
L 824.622756 328.638095 
L 865.035575 320.377116 
L 911.221654 311.184434 
L 957.407732 302.256598 
L 997.820551 294.65748 
L 997.820551 294.65748 
" clip-path="url(#p13bea41d1b)" style="fill: none; stroke: #ff7f0e; stroke-width: 5; stroke-linecap: round"/>
   </g>
   <g id="line2d_15">
    <path d="M 131.831576 591.685406 
L 160.697875 585.728103 
L 189.564174 579.514647 
L 218.430474 573.072563 
L 247.296773 566.428542 
L 281.936332 558.223432 
L 316.575891 549.802099 
L 356.98871 539.752477 
L 403.174788 528.034581 
L 460.907387 513.141208 
L 547.506284 490.531625 
L 668.744741 458.893585 
L 732.250599 442.539777 
L 789.983197 427.891274 
L 841.942536 414.92641 
L 893.901874 402.198226 
L 945.861213 389.730797 
L 992.047291 378.88172 
L 997.820551 377.541606 
L 997.820551 377.541606 
" clip-path="url(#p13bea41d1b)" style="fill: none; stroke: #2ca02c; stroke-width: 5; stroke-linecap: round"/>
   </g>
   <g id="line2d_16">
    <path d="M 131.831576 618.067279 
L 149.151356 615.757124 
L 172.244395 612.417525 
L 195.337434 608.800731 
L 218.430474 604.927201 
L 241.523513 600.816061 
L 264.616552 596.485682 
L 287.709592 591.953467 
L 316.575891 586.029489 
L 345.44219 579.846304 
L 374.308489 573.432568 
L 403.174788 566.814621 
L 437.814347 558.638716 
L 472.453906 550.244249 
L 512.866725 540.223357 
L 559.052804 528.536036 
L 616.785402 513.67656 
L 703.3843 491.111001 
L 830.396016 458.028592 
L 893.901874 441.714849 
L 951.634473 427.105254 
L 997.820551 415.602045 
L 997.820551 415.602045 
" clip-path="url(#p13bea41d1b)" style="fill: none; stroke: #d62728; stroke-width: 5; stroke-linecap: round"/>
   </g>
   <g id="line2d_17">
    <path d="M 131.831576 626.038522 
L 149.151356 624.601359 
L 166.471135 622.95293 
L 183.790915 621.10314 
L 201.110694 619.06187 
L 218.430474 616.838895 
L 241.523513 613.608406 
L 264.616552 610.093106 
L 287.709592 606.313629 
L 310.802631 602.289706 
L 333.89567 598.039903 
L 356.98871 593.582126 
L 380.081749 588.933082 
L 408.948048 582.877388 
L 437.814347 576.577398 
L 466.680646 570.060496 
L 501.320205 561.990344 
L 535.959764 553.685986 
L 576.372583 543.752299 
L 622.558662 532.142744 
L 674.518 518.841465 
L 743.797119 500.863288 
L 928.541433 452.799576 
L 992.047291 436.572175 
L 997.820551 435.110073 
L 997.820551 435.110073 
" clip-path="url(#p13bea41d1b)" style="fill: none; stroke: #9467bd; stroke-width: 5; stroke-linecap: round"/>
   </g>
   <g id="line2d_18">
    <path d="M 131.831576 628.931101 
L 143.378096 627.976069 
L 172.244395 626.063344 
L 189.564174 624.638693 
L 206.883954 623.000963 
L 224.203733 621.160687 
L 241.523513 619.128019 
L 258.843292 616.912891 
L 281.936332 613.692032 
L 305.029371 610.185588 
L 328.12241 606.414328 
L 351.21545 602.397933 
L 374.308489 598.155356 
L 397.401528 593.704247 
L 420.494568 589.0616 
L 449.360867 583.013336 
L 478.227166 576.72017 
L 507.093465 570.209884 
L 541.733024 562.146986 
L 576.372583 553.849259 
L 616.785402 543.922721 
L 662.971481 532.320321 
L 714.930819 519.02627 
L 784.209937 501.056083 
L 968.954252 453.007538 
L 997.820551 445.602593 
L 997.820551 445.602593 
" clip-path="url(#p13bea41d1b)" style="fill: none; stroke: #8c564b; stroke-width: 5; stroke-linecap: round"/>
   </g>
   <g id="line2d_19">
    <path d="M 131.831576 632.269982 
L 137.604836 631.193311 
L 143.378096 630.295433 
L 149.151356 629.548274 
L 160.697875 628.407688 
L 172.244395 627.612641 
L 189.564174 626.492034 
L 206.883954 625.142981 
L 224.203733 623.576747 
L 241.523513 621.804111 
L 258.843292 619.835563 
L 276.163072 617.68116 
L 293.482851 615.350679 
L 316.575891 611.985698 
L 339.66893 608.345694 
L 362.761969 604.450927 
L 385.855009 600.32071 
L 408.948048 595.973288 
L 432.041087 591.425992 
L 460.907387 585.485803 
L 489.773686 579.289502 
L 518.639985 572.865084 
L 553.279544 564.891868 
L 587.919103 556.670645 
L 628.331922 546.817873 
L 668.744741 536.736864 
L 720.704079 523.522277 
L 784.209937 507.113055 
L 997.820551 451.580687 
L 997.820551 451.580687 
" clip-path="url(#p13bea41d1b)" style="fill: none; stroke: #e377c2; stroke-width: 5; stroke-linecap: round"/>
   </g>
   <g id="line2d_20">
    <path d="M 131.831576 636.141257 
L 137.604836 634.410432 
L 143.378096 632.970766 
L 149.151356 631.775806 
L 154.924615 630.783633 
L 160.697875 629.957314 
L 166.471135 629.268771 
L 178.017655 628.214801 
L 195.337434 627.111276 
L 212.657214 625.881888 
L 229.976993 624.429245 
L 247.296773 622.764519 
L 264.616552 620.898352 
L 281.936332 618.841082 
L 299.256111 616.60265 
L 322.349151 613.352764 
L 345.44219 609.819574 
L 368.535229 606.023822 
L 391.628269 601.985179 
L 414.721308 597.722232 
L 437.814347 593.252838 
L 466.680646 587.40099 
L 495.546946 581.283579 
L 524.413245 574.929526 
L 553.279544 568.365671 
L 587.919103 560.247743 
L 622.558662 551.9045 
L 662.971481 541.935223 
L 709.15756 530.296713 
L 761.116898 516.976602 
L 836.169276 497.486332 
L 992.047291 456.933087 
L 997.820551 455.444265 
L 997.820551 455.444265 
" clip-path="url(#p13bea41d1b)" style="fill: none; stroke: #7f7f7f; stroke-width: 5; stroke-linecap: round"/>
   </g>
   <g id="line2d_21">
    <path d="M 131.831576 640.318827 
L 137.604836 637.874715 
L 143.378096 635.845393 
L 149.151356 634.163959 
L 154.924615 632.770302 
L 160.697875 631.611655 
L 166.471135 630.647847 
L 172.244395 629.845167 
L 183.790915 628.617795 
L 195.337434 627.760775 
L 212.657214 626.6685 
L 229.976993 625.352564 
L 247.296773 623.817706 
L 264.616552 622.074828 
L 281.936332 620.134518 
L 299.256111 618.006954 
L 316.575891 615.701903 
L 339.66893 612.368866 
L 362.761969 608.758609 
L 385.855009 604.891601 
L 408.948048 600.787139 
L 432.041087 596.463613 
L 455.134127 591.93848 
L 484.000426 586.023727 
L 512.866725 579.850155 
L 541.733024 573.446418 
L 570.599323 566.838779 
L 605.238882 558.675734 
L 639.878441 550.294696 
L 680.29126 540.289703 
L 726.477339 528.620614 
L 784.209937 513.784586 
L 865.035575 492.760457 
L 997.820551 458.220374 
L 997.820551 458.220374 
" clip-path="url(#p13bea41d1b)" style="fill: none; stroke: #bcbd22; stroke-width: 5; stroke-linecap: round"/>
   </g>
   <g id="line2d_22">
    <path d="M 131.831576 644.686521 
L 137.604836 641.491008 
L 143.378096 638.841505 
L 149.151356 636.649204 
L 154.924615 634.834573 
L 160.697875 633.327987 
L 166.471135 632.076441 
L 172.244395 631.035516 
L 178.017655 630.169116 
L 183.790915 629.4469 
L 195.337434 628.340546 
L 206.883954 627.565384 
L 224.203733 626.435102 
L 241.523513 625.076666 
L 258.843292 623.501385 
L 276.163072 621.720117 
L 293.482851 619.743384 
L 310.802631 617.581373 
L 328.12241 615.243739 
L 351.21545 611.86991 
L 374.308489 608.221969 
L 397.401528 604.320056 
L 420.494568 600.183413 
L 443.587607 595.830354 
L 466.680646 591.278172 
L 495.546946 585.332783 
L 524.413245 579.132037 
L 553.279544 572.704148 
L 587.919103 564.727765 
L 622.558662 556.504551 
L 662.971481 546.650392 
L 703.3843 536.56926 
L 755.343638 523.355422 
L 818.849496 506.94932 
L 997.820551 460.362814 
L 997.820551 460.362814 
" clip-path="url(#p13bea41d1b)" style="fill: none; stroke: #17becf; stroke-width: 5; stroke-linecap: round"/>
   </g>
   <g id="line2d_23">
    <path d="M 131.831576 649.175563 
L 137.604836 645.203159 
L 143.378096 641.913238 
L 149.151356 639.194048 
L 154.924615 636.945762 
L 160.697875 635.081194 
L 166.471135 633.533971 
L 172.244395 632.24853 
L 178.017655 631.179765 
L 183.790915 630.289817 
L 189.564174 629.547775 
L 201.110694 628.411283 
L 212.657214 627.616262 
L 229.976993 626.497934 
L 247.296773 625.150895 
L 264.616552 623.586426 
L 281.936332 621.815462 
L 299.256111 619.848521 
L 316.575891 617.695703 
L 333.89567 615.366881 
L 356.98871 612.004167 
L 380.081749 608.366428 
L 403.174788 604.4741 
L 426.267828 600.346311 
L 449.360867 596.001502 
L 472.453906 591.456899 
L 501.320205 585.520197 
L 530.186505 579.327211 
L 559.052804 572.906303 
L 593.692363 564.937374 
L 628.331922 556.720395 
L 668.744741 546.872528 
L 709.15756 536.796361 
L 761.116898 523.587674 
L 824.622756 507.185483 
L 997.820551 462.094447 
L 997.820551 462.094447 
" clip-path="url(#p13bea41d1b)" style="fill: none; stroke: #17becf; stroke-width: 5; stroke-linecap: round"/>
   </g>
   <g id="patch_3">
    <path d="M 88.532127 678.237256 
L 88.532127 38.88 
" style="fill: none; stroke: #262626; stroke-width: 0.8; stroke-linejoin: miter; stroke-linecap: square"/>
   </g>
   <g id="patch_4">
    <path d="M 88.532127 678.237256 
L 1041.12 678.237256 
" style="fill: none; stroke: #262626; stroke-width: 0.8; stroke-linejoin: miter; stroke-linecap: square"/>
   </g>
  </g>
 </g>
 <defs>
  <clipPath id="p13bea41d1b">
   <rect x="88.532127" y="38.88" width="952.587873" height="639.357256"/>
  </clipPath>
 </defs>
</svg>
