<?xml version="1.0" encoding="utf-8" standalone="no"?>
<!DOCTYPE svg PUBLIC "-//W3C//DTD SVG 1.1//EN"
  "http://www.w3.org/Graphics/SVG/1.1/DTD/svg11.dtd">
<svg xmlns:xlink="http://www.w3.org/1999/xlink" width="1080pt" height="756pt" viewBox="0 0 1080 756" xmlns="http://www.w3.org/2000/svg" version="1.1">
 <metadata>
  <rdf:RDF xmlns:dc="http://purl.org/dc/elements/1.1/" xmlns:cc="http://creativecommons.org/ns#" xmlns:rdf="http://www.w3.org/1999/02/22-rdf-syntax-ns#">
   <cc:Work>
    <dc:type rdf:resource="http://purl.org/dc/dcmitype/StillImage"/>
    <dc:date>2024-07-31T08:51:48.004141</dc:date>
    <dc:format>image/svg+xml</dc:format>
    <dc:creator>
     <cc:Agent>
      <dc:title>Matplotlib v3.9.0, https://matplotlib.org/</dc:title>
     </cc:Agent>
    </dc:creator>
   </cc:Work>
  </rdf:RDF>
 </metadata>
 <defs>
  <style type="text/css">*{stroke-linejoin: round; stroke-linecap: butt}</style>
 </defs>
 <g id="figure_1">
  <g id="patch_1">
   <path d="M 0 756 
L 1080 756 
L 1080 0 
L 0 0 
z
" style="fill: #ffffff"/>
  </g>
  <g id="axes_1">
   <g id="patch_2">
    <path d="M 88.532127 678.237256 
L 1041.12 678.237256 
L 1041.12 38.88 
L 88.532127 38.88 
z
" style="fill: #ffffff"/>
   </g>
   <g id="matplotlib.axis_1">
    <g id="xtick_1">
     <g id="line2d_1">
      <defs>
       <path id="md0218db9d2" d="M 0 0 
L 0 3.5 
" style="stroke: #262626; stroke-width: 0.8"/>
      </defs>
      <g>
       <use xlink:href="#md0218db9d2" x="88.532127" y="678.237256" style="fill: #262626; stroke: #262626; stroke-width: 0.8"/>
      </g>
     </g>
     <g id="text_1">
      <!-- $\mathdefault{0.0}$ -->
      <g style="fill: #262626" transform="translate(67.206064 710.143856) scale(0.36 -0.36)">
       <defs>
        <path id="CMR17-30" d="M 2688 2025 
C 2688 2416 2682 3080 2413 3591 
C 2176 4039 1798 4198 1466 4198 
C 1158 4198 768 4058 525 3597 
C 269 3118 243 2524 243 2025 
C 243 1661 250 1106 448 619 
C 723 -39 1216 -128 1466 -128 
C 1760 -128 2208 -7 2470 600 
C 2662 1042 2688 1559 2688 2025 
z
M 1466 -26 
C 1056 -26 813 325 723 812 
C 653 1188 653 1738 653 2096 
C 653 2588 653 2997 736 3387 
C 858 3929 1216 4096 1466 4096 
C 1728 4096 2067 3923 2189 3400 
C 2272 3036 2278 2607 2278 2096 
C 2278 1680 2278 1169 2202 792 
C 2067 95 1690 -26 1466 -26 
z
" transform="scale(0.015625)"/>
        <path id="CMMI12-3a" d="M 1178 307 
C 1178 492 1024 619 870 619 
C 685 619 557 466 557 313 
C 557 128 710 0 864 0 
C 1050 0 1178 153 1178 307 
z
" transform="scale(0.015625)"/>
       </defs>
       <use xlink:href="#CMR17-30" transform="scale(0.996264)"/>
       <use xlink:href="#CMMI12-3a" transform="translate(45.690477 0) scale(0.996264)"/>
       <use xlink:href="#CMR17-30" transform="translate(72.787654 0) scale(0.996264)"/>
      </g>
     </g>
    </g>
    <g id="xtick_2">
     <g id="line2d_2">
      <g>
       <use xlink:href="#md0218db9d2" x="269.977436" y="678.237256" style="fill: #262626; stroke: #262626; stroke-width: 0.8"/>
      </g>
     </g>
     <g id="text_2">
      <!-- $\mathdefault{0.2}$ -->
      <g style="fill: #262626" transform="translate(248.651373 710.143856) scale(0.36 -0.36)">
       <defs>
        <path id="CMR17-32" d="M 2669 989 
L 2554 989 
C 2490 536 2438 459 2413 420 
C 2381 369 1920 369 1830 369 
L 602 369 
C 832 619 1280 1072 1824 1597 
C 2214 1967 2669 2402 2669 3035 
C 2669 3790 2067 4224 1395 4224 
C 691 4224 262 3604 262 3030 
C 262 2780 448 2748 525 2748 
C 589 2748 781 2787 781 3010 
C 781 3207 614 3264 525 3264 
C 486 3264 448 3258 422 3245 
C 544 3790 915 4058 1306 4058 
C 1862 4058 2227 3617 2227 3035 
C 2227 2479 1901 2000 1536 1584 
L 262 146 
L 262 0 
L 2515 0 
L 2669 989 
z
" transform="scale(0.015625)"/>
       </defs>
       <use xlink:href="#CMR17-30" transform="scale(0.996264)"/>
       <use xlink:href="#CMMI12-3a" transform="translate(45.690477 0) scale(0.996264)"/>
       <use xlink:href="#CMR17-32" transform="translate(72.787654 0) scale(0.996264)"/>
      </g>
     </g>
    </g>
    <g id="xtick_3">
     <g id="line2d_3">
      <g>
       <use xlink:href="#md0218db9d2" x="451.422745" y="678.237256" style="fill: #262626; stroke: #262626; stroke-width: 0.8"/>
      </g>
     </g>
     <g id="text_3">
      <!-- $\mathdefault{0.4}$ -->
      <g style="fill: #262626" transform="translate(430.096682 710.143856) scale(0.36 -0.36)">
       <defs>
        <path id="CMR17-34" d="M 2150 4122 
C 2150 4256 2144 4256 2029 4256 
L 128 1254 
L 128 1088 
L 1779 1088 
L 1779 457 
C 1779 224 1766 160 1318 160 
L 1197 160 
L 1197 0 
C 1402 0 1747 0 1965 0 
C 2182 0 2528 0 2733 0 
L 2733 160 
L 2611 160 
C 2163 160 2150 224 2150 457 
L 2150 1088 
L 2803 1088 
L 2803 1254 
L 2150 1254 
L 2150 4122 
z
M 1798 3703 
L 1798 1254 
L 256 1254 
L 1798 3703 
z
" transform="scale(0.015625)"/>
       </defs>
       <use xlink:href="#CMR17-30" transform="scale(0.996264)"/>
       <use xlink:href="#CMMI12-3a" transform="translate(45.690477 0) scale(0.996264)"/>
       <use xlink:href="#CMR17-34" transform="translate(72.787654 0) scale(0.996264)"/>
      </g>
     </g>
    </g>
    <g id="xtick_4">
     <g id="line2d_4">
      <g>
       <use xlink:href="#md0218db9d2" x="632.868055" y="678.237256" style="fill: #262626; stroke: #262626; stroke-width: 0.8"/>
      </g>
     </g>
     <g id="text_4">
      <!-- $\mathdefault{0.6}$ -->
      <g style="fill: #262626" transform="translate(611.541991 710.143856) scale(0.36 -0.36)">
       <defs>
        <path id="CMR17-36" d="M 678 2176 
C 678 3690 1395 4032 1811 4032 
C 1946 4032 2272 4009 2400 3776 
C 2298 3776 2106 3776 2106 3553 
C 2106 3381 2246 3323 2336 3323 
C 2394 3323 2566 3348 2566 3560 
C 2566 3954 2246 4179 1805 4179 
C 1043 4179 243 3390 243 1984 
C 243 253 966 -128 1478 -128 
C 2099 -128 2688 427 2688 1283 
C 2688 2081 2170 2662 1517 2662 
C 1126 2662 838 2407 678 1960 
L 678 2176 
z
M 1478 25 
C 691 25 691 1200 691 1436 
C 691 1896 909 2560 1504 2560 
C 1613 2560 1926 2560 2138 2120 
C 2253 1870 2253 1609 2253 1289 
C 2253 944 2253 690 2118 434 
C 1978 171 1773 25 1478 25 
z
" transform="scale(0.015625)"/>
       </defs>
       <use xlink:href="#CMR17-30" transform="scale(0.996264)"/>
       <use xlink:href="#CMMI12-3a" transform="translate(45.690477 0) scale(0.996264)"/>
       <use xlink:href="#CMR17-36" transform="translate(72.787654 0) scale(0.996264)"/>
      </g>
     </g>
    </g>
    <g id="xtick_5">
     <g id="line2d_5">
      <g>
       <use xlink:href="#md0218db9d2" x="814.313364" y="678.237256" style="fill: #262626; stroke: #262626; stroke-width: 0.8"/>
      </g>
     </g>
     <g id="text_5">
      <!-- $\mathdefault{0.8}$ -->
      <g style="fill: #262626" transform="translate(792.9873 710.143856) scale(0.36 -0.36)">
       <defs>
        <path id="CMR17-38" d="M 1741 2264 
C 2144 2467 2554 2773 2554 3263 
C 2554 3841 1990 4179 1472 4179 
C 890 4179 378 3759 378 3180 
C 378 3021 416 2747 666 2505 
C 730 2442 998 2251 1171 2130 
C 883 1983 211 1634 211 934 
C 211 279 838 -128 1459 -128 
C 2144 -128 2720 362 2720 1010 
C 2720 1590 2330 1857 2074 2029 
L 1741 2264 
z
M 902 2822 
C 851 2854 595 3051 595 3351 
C 595 3739 998 4032 1459 4032 
C 1965 4032 2336 3676 2336 3262 
C 2336 2669 1670 2331 1638 2331 
C 1632 2331 1626 2331 1574 2370 
L 902 2822 
z
M 2080 1519 
C 2176 1449 2483 1240 2483 851 
C 2483 381 2010 25 1472 25 
C 890 25 448 438 448 940 
C 448 1443 838 1862 1280 2060 
L 2080 1519 
z
" transform="scale(0.015625)"/>
       </defs>
       <use xlink:href="#CMR17-30" transform="scale(0.996264)"/>
       <use xlink:href="#CMMI12-3a" transform="translate(45.690477 0) scale(0.996264)"/>
       <use xlink:href="#CMR17-38" transform="translate(72.787654 0) scale(0.996264)"/>
      </g>
     </g>
    </g>
    <g id="xtick_6">
     <g id="line2d_6">
      <g>
       <use xlink:href="#md0218db9d2" x="995.758673" y="678.237256" style="fill: #262626; stroke: #262626; stroke-width: 0.8"/>
      </g>
     </g>
     <g id="text_6">
      <!-- $\mathdefault{1.0}$ -->
      <g style="fill: #262626" transform="translate(974.432609 710.143856) scale(0.36 -0.36)">
       <defs>
        <path id="CMR17-31" d="M 1702 4058 
C 1702 4192 1696 4192 1606 4192 
C 1357 3916 979 3827 621 3827 
C 602 3827 570 3827 563 3808 
C 557 3795 557 3782 557 3648 
C 755 3648 1088 3686 1344 3839 
L 1344 461 
C 1344 236 1331 160 781 160 
L 589 160 
L 589 0 
C 896 0 1216 0 1523 0 
C 1830 0 2150 0 2458 0 
L 2458 160 
L 2266 160 
C 1715 160 1702 230 1702 458 
L 1702 4058 
z
" transform="scale(0.015625)"/>
       </defs>
       <use xlink:href="#CMR17-31" transform="scale(0.996264)"/>
       <use xlink:href="#CMMI12-3a" transform="translate(45.690477 0) scale(0.996264)"/>
       <use xlink:href="#CMR17-30" transform="translate(72.787654 0) scale(0.996264)"/>
      </g>
     </g>
    </g>
   </g>
   <g id="matplotlib.axis_2">
    <g id="ytick_1">
     <g id="line2d_7">
      <defs>
       <path id="m7d465e634c" d="M 0 0 
L -3.5 0 
" style="stroke: #262626; stroke-width: 0.8"/>
      </defs>
      <g>
       <use xlink:href="#m7d465e634c" x="88.532127" y="678.237256" style="fill: #262626; stroke: #262626; stroke-width: 0.8"/>
      </g>
     </g>
     <g id="text_7">
      <!-- $\mathdefault{0.0}$ -->
      <g style="fill: #262626" transform="translate(38.88 690.690556) scale(0.36 -0.36)">
       <use xlink:href="#CMR17-30" transform="scale(0.996264)"/>
       <use xlink:href="#CMMI12-3a" transform="translate(45.690477 0) scale(0.996264)"/>
       <use xlink:href="#CMR17-30" transform="translate(72.787654 0) scale(0.996264)"/>
      </g>
     </g>
    </g>
    <g id="ytick_2">
     <g id="line2d_8">
      <g>
       <use xlink:href="#m7d465e634c" x="88.532127" y="678.222798" style="fill: #262626; stroke: #262626; stroke-width: 0.8"/>
      </g>
     </g>
     <g id="text_8">
      <!-- $\mathdefault{0.2}$ -->
      <g style="fill: #262626" transform="translate(38.88 690.676098) scale(0.36 -0.36)">
       <use xlink:href="#CMR17-30" transform="scale(0.996264)"/>
       <use xlink:href="#CMMI12-3a" transform="translate(45.690477 0) scale(0.996264)"/>
       <use xlink:href="#CMR17-32" transform="translate(72.787654 0) scale(0.996264)"/>
      </g>
     </g>
    </g>
    <g id="ytick_3">
     <g id="line2d_9">
      <g>
       <use xlink:href="#m7d465e634c" x="88.532127" y="678.208339" style="fill: #262626; stroke: #262626; stroke-width: 0.8"/>
      </g>
     </g>
     <g id="text_9">
      <!-- $\mathdefault{0.4}$ -->
      <g style="fill: #262626" transform="translate(38.88 690.66164) scale(0.36 -0.36)">
       <use xlink:href="#CMR17-30" transform="scale(0.996264)"/>
       <use xlink:href="#CMMI12-3a" transform="translate(45.690477 0) scale(0.996264)"/>
       <use xlink:href="#CMR17-34" transform="translate(72.787654 0) scale(0.996264)"/>
      </g>
     </g>
    </g>
    <g id="ytick_4">
     <g id="line2d_10">
      <g>
       <use xlink:href="#m7d465e634c" x="88.532127" y="678.193881" style="fill: #262626; stroke: #262626; stroke-width: 0.8"/>
      </g>
     </g>
     <g id="text_10">
      <!-- $\mathdefault{0.6}$ -->
      <g style="fill: #262626" transform="translate(38.88 690.647181) scale(0.36 -0.36)">
       <use xlink:href="#CMR17-30" transform="scale(0.996264)"/>
       <use xlink:href="#CMMI12-3a" transform="translate(45.690477 0) scale(0.996264)"/>
       <use xlink:href="#CMR17-36" transform="translate(72.787654 0) scale(0.996264)"/>
      </g>
     </g>
    </g>
    <g id="ytick_5">
     <g id="line2d_11">
      <g>
       <use xlink:href="#m7d465e634c" x="88.532127" y="678.179423" style="fill: #262626; stroke: #262626; stroke-width: 0.8"/>
      </g>
     </g>
     <g id="text_11">
      <!-- $\mathdefault{0.8}$ -->
      <g style="fill: #262626" transform="translate(38.88 690.632723) scale(0.36 -0.36)">
       <use xlink:href="#CMR17-30" transform="scale(0.996264)"/>
       <use xlink:href="#CMMI12-3a" transform="translate(45.690477 0) scale(0.996264)"/>
       <use xlink:href="#CMR17-38" transform="translate(72.787654 0) scale(0.996264)"/>
      </g>
     </g>
    </g>
    <g id="ytick_6">
     <g id="line2d_12">
      <g>
       <use xlink:href="#m7d465e634c" x="88.532127" y="678.164964" style="fill: #262626; stroke: #262626; stroke-width: 0.8"/>
      </g>
     </g>
     <g id="text_12">
      <!-- $\mathdefault{1.0}$ -->
      <g style="fill: #262626" transform="translate(38.88 690.618264) scale(0.36 -0.36)">
       <use xlink:href="#CMR17-31" transform="scale(0.996264)"/>
       <use xlink:href="#CMMI12-3a" transform="translate(45.690477 0) scale(0.996264)"/>
       <use xlink:href="#CMR17-30" transform="translate(72.787654 0) scale(0.996264)"/>
      </g>
     </g>
    </g>
    <g id="ytick_7">
     <g id="line2d_13">
      <g>
       <use xlink:href="#m7d465e634c" x="88.532127" y="678.150506" style="fill: #262626; stroke: #262626; stroke-width: 0.8"/>
      </g>
     </g>
     <g id="text_13">
      <!-- $\mathdefault{1.2}$ -->
      <g style="fill: #262626" transform="translate(38.88 690.603806) scale(0.36 -0.36)">
       <use xlink:href="#CMR17-31" transform="scale(0.996264)"/>
       <use xlink:href="#CMMI12-3a" transform="translate(45.690477 0) scale(0.996264)"/>
       <use xlink:href="#CMR17-32" transform="translate(72.787654 0) scale(0.996264)"/>
      </g>
     </g>
    </g>
   </g>
   <g id="line2d_14">
    <path d="M 88.532127 678.237256 
L 995.758673 678.237256 
L 995.758673 678.237256 
" clip-path="url(#p479a6663b1)" style="fill: none; stroke: #1f77b4; stroke-width: 5; stroke-linecap: round"/>
   </g>
   <g id="line2d_15">
    <path d="M 88.532127 669.391413 
L 191.351136 670.468208 
L 312.314675 671.50781 
L 451.422745 672.476098 
L 614.723524 673.384408 
L 808.265187 674.229738 
L 995.758673 674.875294 
L 995.758673 674.875294 
" clip-path="url(#p479a6663b1)" style="fill: none; stroke: #ff7f0e; stroke-width: 5; stroke-linecap: round"/>
   </g>
   <g id="line2d_16">
    <path d="M 88.532127 656.335827 
L 124.821189 657.975894 
L 167.158428 659.643555 
L 209.495667 661.095082 
L 257.881082 662.538961 
L 312.314675 663.941247 
L 372.796445 665.278197 
L 439.326392 666.534622 
L 517.952692 667.791516 
L 608.675347 669.00306 
L 711.494355 670.139257 
L 826.409718 671.183162 
L 959.469611 672.168019 
L 995.758673 672.403124 
L 995.758673 672.403124 
" clip-path="url(#p479a6663b1)" style="fill: none; stroke: #2ca02c; stroke-width: 5; stroke-linecap: round"/>
   </g>
   <g id="line2d_17">
    <path d="M 88.532127 636.842734 
L 106.676658 639.36529 
L 124.821189 641.623547 
L 142.96572 643.656833 
L 161.110251 645.497161 
L 185.302959 647.695313 
L 209.495667 649.646239 
L 233.688375 651.38927 
L 263.929259 653.322902 
L 294.170144 655.028733 
L 330.459206 656.827556 
L 366.748268 658.402847 
L 409.085507 660.009478 
L 457.470922 661.597599 
L 511.904515 663.130441 
L 572.386285 664.583075 
L 638.916232 665.940511 
L 711.494355 667.195353 
L 796.168833 668.426764 
L 892.939664 669.597202 
L 995.758673 670.628574 
L 995.758673 670.628574 
" clip-path="url(#p479a6663b1)" style="fill: none; stroke: #d62728; stroke-width: 5; stroke-linecap: round"/>
   </g>
   <g id="line2d_18">
    <path d="M 88.532127 607.405007 
L 94.580304 609.732892 
L 100.628481 611.920644 
L 112.724835 615.923683 
L 124.821189 619.496923 
L 136.917543 622.706154 
L 149.013897 625.604385 
L 161.110251 628.2348 
L 173.206605 630.633045 
L 185.302959 632.828327 
L 197.399313 634.845492 
L 215.543844 637.581844 
L 233.688375 640.021212 
L 251.832905 642.20928 
L 269.977436 644.182879 
L 288.121967 645.971986 
L 312.314675 648.112328 
L 336.507383 650.015185 
L 360.700091 651.717767 
L 390.940976 653.609223 
L 421.181861 655.2802 
L 457.470922 657.044708 
L 493.759984 658.591949 
L 536.097223 660.171925 
L 584.482639 661.735639 
L 638.916232 663.246708 
L 699.398001 664.680355 
L 765.927948 666.021485 
L 838.506072 667.262499 
L 923.180549 668.48148 
L 995.758673 669.371256 
L 995.758673 669.371256 
" clip-path="url(#p479a6663b1)" style="fill: none; stroke: #9467bd; stroke-width: 5; stroke-linecap: round"/>
   </g>
   <g id="line2d_19">
    <path d="M 88.532127 562.548076 
L 94.580304 568.358637 
L 100.628481 573.631944 
L 106.676658 578.439451 
L 112.724835 582.84039 
L 118.773012 586.884246 
L 124.821189 590.613153 
L 130.869366 594.061912 
L 136.917543 597.262143 
L 142.96572 600.238736 
L 149.013897 603.014931 
L 155.062074 605.609997 
L 161.110251 608.041467 
L 167.158428 610.324184 
L 173.206605 612.471437 
L 185.302959 616.404729 
L 197.399313 619.920658 
L 209.495667 623.082243 
L 221.592021 625.940461 
L 233.688375 628.536868 
L 245.784728 630.905822 
L 257.881082 633.076024 
L 269.977436 635.071325 
L 288.121967 637.779871 
L 306.266498 640.196043 
L 324.411029 642.364757 
L 342.55556 644.32194 
L 360.700091 646.097055 
L 384.892799 648.221702 
L 409.085507 650.111496 
L 433.278215 651.80307 
L 463.519099 653.683167 
L 493.759984 655.344764 
L 530.049046 657.100058 
L 566.338108 658.639818 
L 608.675347 660.21267 
L 657.060762 661.769862 
L 711.494355 663.275146 
L 771.976125 664.703781 
L 838.506072 666.040611 
L 911.084195 667.277994 
L 995.758673 668.493747 
L 995.758673 668.493747 
" clip-path="url(#p479a6663b1)" style="fill: none; stroke: #8c564b; stroke-width: 5; stroke-linecap: round"/>
   </g>
   <g id="line2d_20">
    <path d="M 88.532127 494.316928 
L 94.580304 507.790371 
L 100.628481 519.656832 
L 106.676658 530.115346 
L 112.724835 539.346608 
L 118.773012 547.527662 
L 124.821189 554.824296 
L 130.869366 561.37167 
L 136.917543 567.281821 
L 142.96572 572.64177 
L 149.013897 577.526003 
L 155.062074 581.994715 
L 161.110251 586.099399 
L 167.158428 589.882584 
L 173.206605 593.380711 
L 179.254782 596.62449 
L 185.302959 599.641161 
L 191.351136 602.453412 
L 197.399313 605.081787 
L 203.44749 607.543463 
L 209.495667 609.853687 
L 215.543844 612.026147 
L 227.640198 616.004588 
L 239.736552 619.558863 
L 251.832905 622.753585 
L 263.929259 625.64044 
L 276.025613 628.261904 
L 288.121967 630.652969 
L 300.218321 632.842443 
L 312.314675 634.854973 
L 330.459206 637.586022 
L 348.603737 640.021344 
L 366.748268 642.206366 
L 384.892799 644.177665 
L 403.03733 645.965011 
L 427.230038 648.103706 
L 451.422745 650.005354 
L 475.615453 651.707069 
L 505.856338 653.597832 
L 536.097223 655.268394 
L 572.386285 657.032644 
L 608.675347 658.579828 
L 651.012585 660.159853 
L 699.398001 661.723731 
L 753.831594 663.23509 
L 814.313364 664.669122 
L 880.84331 666.010665 
L 953.421434 667.252156 
L 995.758673 667.889133 
L 995.758673 667.889133 
" clip-path="url(#p479a6663b1)" style="fill: none; stroke: #e377c2; stroke-width: 5; stroke-linecap: round"/>
   </g>
   <g id="line2d_21">
    <path d="M 88.532127 403.695475 
L 94.580304 428.067916 
L 100.628481 449.484146 
L 106.676658 468.314689 
L 112.724835 484.891907 
L 118.773012 499.49921 
L 124.821189 512.363013 
L 130.869366 523.667087 
L 136.917543 533.633857 
L 142.96572 542.44423 
L 149.013897 550.272592 
L 155.062074 557.272763 
L 161.110251 563.570551 
L 167.158428 569.266335 
L 173.206605 574.442648 
L 179.254782 579.166987 
L 185.302959 583.496741 
L 191.351136 587.478876 
L 197.399313 591.15425 
L 203.44749 594.556613 
L 209.495667 597.715128 
L 215.543844 600.655276 
L 221.592021 603.399215 
L 227.640198 605.965572 
L 233.688375 608.37108 
L 239.736552 610.630481 
L 245.784728 612.756638 
L 257.881082 616.653938 
L 269.977436 620.139963 
L 282.07379 623.276418 
L 294.170144 626.113475 
L 306.266498 628.691768 
L 318.362852 631.045246 
L 330.459206 633.202036 
L 342.55556 635.185622 
L 360.700091 637.879339 
L 378.844622 640.283198 
L 396.989153 642.44159 
L 415.133684 644.39 
L 439.326392 646.710928 
L 463.519099 648.765085 
L 487.711807 650.59559 
L 517.952692 652.621158 
L 548.193577 654.403537 
L 578.434462 655.983735 
L 614.723524 657.65807 
L 657.060762 659.35949 
L 699.398001 660.839372 
L 747.783417 662.310423 
L 802.21701 663.738039 
L 862.698779 665.0981 
L 929.228726 666.375297 
L 995.758673 667.469703 
L 995.758673 667.469703 
" clip-path="url(#p479a6663b1)" style="fill: none; stroke: #7f7f7f; stroke-width: 5; stroke-linecap: round"/>
   </g>
   <g id="line2d_22">
    <path d="M 88.532127 299.581981 
L 94.580304 336.650073 
L 100.628481 369.169867 
L 106.676658 397.718451 
L 112.724835 422.81293 
L 118.773012 444.897605 
L 124.821189 464.324318 
L 130.869366 481.36116 
L 136.917543 496.358027 
L 142.96572 509.560505 
L 149.013897 521.190263 
L 155.062074 531.443826 
L 161.110251 540.498996 
L 167.158428 548.533545 
L 173.206605 555.709413 
L 179.254782 562.156653 
L 185.302959 567.981767 
L 191.351136 573.270024 
L 197.399313 578.093157 
L 203.44749 582.509455 
L 209.495667 586.5681 
L 215.543844 590.311057 
L 221.592021 593.774114 
L 227.640198 596.987066 
L 233.688375 599.976104 
L 239.736552 602.76394 
L 245.784728 605.370159 
L 251.832905 607.812165 
L 257.881082 610.104625 
L 263.929259 612.261046 
L 276.025613 616.211354 
L 288.121967 619.742448 
L 300.218321 622.917288 
L 312.314675 625.787447 
L 324.411029 628.394657 
L 336.507383 630.773209 
L 348.603737 632.952049 
L 360.700091 634.955127 
L 378.844622 637.673927 
L 396.989153 640.099131 
L 415.133684 642.275541 
L 433.278215 644.239592 
L 451.422745 646.020701 
L 475.615453 648.152345 
L 499.808161 650.048088 
L 524.000869 651.744844 
L 554.241754 653.630453 
L 584.482639 655.296802 
L 620.771701 657.056866 
L 657.060762 658.600614 
L 699.398001 660.177405 
L 747.783417 661.738333 
L 802.21701 663.247059 
L 862.698779 664.678823 
L 929.228726 666.018434 
L 995.758673 667.162552 
L 995.758673 667.162552 
" clip-path="url(#p479a6663b1)" style="fill: none; stroke: #bcbd22; stroke-width: 5; stroke-linecap: round"/>
   </g>
   <g id="line2d_23">
    <path d="M 88.532127 187.19981 
L 94.580304 238.110314 
L 100.628481 282.719492 
L 106.676658 321.833433 
L 112.724835 356.172915 
L 118.773012 386.356611 
L 124.821189 412.875643 
L 130.869366 436.106466 
L 136.917543 456.533217 
L 142.96572 474.496447 
L 149.013897 490.302502 
L 155.062074 504.219522 
L 161.110251 516.478237 
L 167.158428 527.291406 
L 173.206605 536.827451 
L 179.254782 545.265521 
L 185.302959 552.782082 
L 191.351136 559.519481 
L 197.399313 565.593872 
L 203.44749 571.097932 
L 209.495667 576.108121 
L 215.543844 580.688312 
L 221.592021 584.891981 
L 227.640198 588.763163 
L 233.688375 592.339851 
L 239.736552 595.654529 
L 245.784728 598.734888 
L 251.832905 601.605175 
L 257.881082 604.285733 
L 263.929259 606.794976 
L 269.977436 609.148837 
L 276.025613 611.361103 
L 282.07379 613.444369 
L 294.170144 617.266335 
L 306.266498 620.688588 
L 318.362852 623.770826 
L 330.459206 626.561257 
L 342.55556 629.099216 
L 354.651914 631.417455 
L 366.748268 633.543389 
L 378.844622 635.49973 
L 396.989153 638.158263 
L 415.133684 640.532456 
L 433.278215 642.665626 
L 451.422745 644.592469 
L 475.615453 646.889041 
L 499.808161 648.922831 
L 524.000869 650.736291 
L 554.241754 652.744048 
L 584.482639 654.511762 
L 620.771701 656.372226 
L 657.060762 657.998427 
L 699.398001 659.654052 
L 741.73524 661.096643 
L 790.120656 662.532968 
L 844.554248 663.929164 
L 905.036018 665.261328 
L 977.614142 666.618685 
L 995.758673 666.923657 
L 995.758673 666.923657 
" clip-path="url(#p479a6663b1)" style="fill: none; stroke: #17becf; stroke-width: 5; stroke-linecap: round"/>
   </g>
   <g id="line2d_24">
    <path d="M 88.532127 69.325584 
L 94.580304 134.867861 
L 100.628481 192.241936 
L 106.676658 242.499561 
L 112.724835 286.57969 
L 118.773012 325.287789 
L 124.821189 359.263777 
L 130.869366 388.998637 
L 136.917543 415.118977 
L 142.96572 438.06556 
L 149.013897 458.233698 
L 155.062074 475.971253 
L 161.110251 491.576235 
L 167.158428 505.354961 
L 173.206605 517.498912 
L 179.254782 528.178982 
L 185.302959 537.609076 
L 191.351136 545.957277 
L 197.399313 553.398822 
L 203.44749 560.073085 
L 209.495667 566.092608 
L 215.543844 571.549528 
L 221.592021 576.519661 
L 227.640198 581.064712 
L 233.688375 585.237031 
L 239.736552 589.080789 
L 245.784728 592.633231 
L 251.832905 595.92655 
L 257.881082 598.987603 
L 263.929259 601.840354 
L 269.977436 604.505386 
L 276.025613 607.000399 
L 282.07379 609.341373 
L 288.121967 611.542146 
L 300.218321 615.569932 
L 312.314675 619.166627 
L 324.411029 622.397778 
L 336.507383 625.3161 
L 348.603737 627.965075 
L 360.700091 630.380124 
L 372.796445 632.590851 
L 384.892799 634.622114 
L 403.03733 637.377432 
L 421.181861 639.833383 
L 439.326392 642.035996 
L 457.470922 644.022554 
L 475.615453 645.823108 
L 499.808161 647.976821 
L 524.000869 649.89114 
L 548.193577 651.603668 
L 578.434462 653.505823 
L 608.675347 655.185943 
L 644.964408 656.959717 
L 681.25347 658.514782 
L 723.590709 660.102432 
L 771.976125 661.673389 
L 826.409718 663.191175 
L 886.891487 664.630929 
L 953.421434 665.977511 
L 995.758673 666.729178 
L 995.758673 666.729178 
" clip-path="url(#p479a6663b1)" style="fill: none; stroke: #17becf; stroke-width: 5; stroke-linecap: round"/>
   </g>
   <g id="patch_3">
    <path d="M 88.532127 678.237256 
L 88.532127 38.88 
" style="fill: none; stroke: #262626; stroke-width: 0.8; stroke-linejoin: miter; stroke-linecap: square"/>
   </g>
   <g id="patch_4">
    <path d="M 88.532127 678.237256 
L 1041.12 678.237256 
" style="fill: none; stroke: #262626; stroke-width: 0.8; stroke-linejoin: miter; stroke-linecap: square"/>
   </g>
  </g>
 </g>
 <defs>
  <clipPath id="p479a6663b1">
   <rect x="88.532127" y="38.88" width="952.587873" height="639.357256"/>
  </clipPath>
 </defs>
</svg>
