<?xml version="1.0" encoding="utf-8" standalone="no"?>
<!DOCTYPE svg PUBLIC "-//W3C//DTD SVG 1.1//EN"
  "http://www.w3.org/Graphics/SVG/1.1/DTD/svg11.dtd">
<svg xmlns:xlink="http://www.w3.org/1999/xlink" width="1080pt" height="756pt" viewBox="0 0 1080 756" xmlns="http://www.w3.org/2000/svg" version="1.1">
 <metadata>
  <rdf:RDF xmlns:dc="http://purl.org/dc/elements/1.1/" xmlns:cc="http://creativecommons.org/ns#" xmlns:rdf="http://www.w3.org/1999/02/22-rdf-syntax-ns#">
   <cc:Work>
    <dc:type rdf:resource="http://purl.org/dc/dcmitype/StillImage"/>
    <dc:date>2024-07-31T08:51:35.680086</dc:date>
    <dc:format>image/svg+xml</dc:format>
    <dc:creator>
     <cc:Agent>
      <dc:title>Matplotlib v3.9.0, https://matplotlib.org/</dc:title>
     </cc:Agent>
    </dc:creator>
   </cc:Work>
  </rdf:RDF>
 </metadata>
 <defs>
  <style type="text/css">*{stroke-linejoin: round; stroke-linecap: butt}</style>
 </defs>
 <g id="figure_1">
  <g id="patch_1">
   <path d="M 0 756 
L 1080 756 
L 1080 0 
L 0 0 
z
" style="fill: #ffffff"/>
  </g>
  <g id="axes_1">
   <g id="patch_2">
    <path d="M 88.532127 678.237256 
L 1041.12 678.237256 
L 1041.12 38.88 
L 88.532127 38.88 
z
" style="fill: #ffffff"/>
   </g>
   <g id="matplotlib.axis_1">
    <g id="xtick_1">
     <g id="line2d_1">
      <defs>
       <path id="med9337cf02" d="M 0 0 
L 0 3.5 
" style="stroke: #262626; stroke-width: 0.8"/>
      </defs>
      <g>
       <use xlink:href="#med9337cf02" x="88.532127" y="678.237256" style="fill: #262626; stroke: #262626; stroke-width: 0.8"/>
      </g>
     </g>
     <g id="text_1">
      <!-- $\mathdefault{0.0}$ -->
      <g style="fill: #262626" transform="translate(67.206064 710.143856) scale(0.36 -0.36)">
       <defs>
        <path id="CMR17-30" d="M 2688 2025 
C 2688 2416 2682 3080 2413 3591 
C 2176 4039 1798 4198 1466 4198 
C 1158 4198 768 4058 525 3597 
C 269 3118 243 2524 243 2025 
C 243 1661 250 1106 448 619 
C 723 -39 1216 -128 1466 -128 
C 1760 -128 2208 -7 2470 600 
C 2662 1042 2688 1559 2688 2025 
z
M 1466 -26 
C 1056 -26 813 325 723 812 
C 653 1188 653 1738 653 2096 
C 653 2588 653 2997 736 3387 
C 858 3929 1216 4096 1466 4096 
C 1728 4096 2067 3923 2189 3400 
C 2272 3036 2278 2607 2278 2096 
C 2278 1680 2278 1169 2202 792 
C 2067 95 1690 -26 1466 -26 
z
" transform="scale(0.015625)"/>
        <path id="CMMI12-3a" d="M 1178 307 
C 1178 492 1024 619 870 619 
C 685 619 557 466 557 313 
C 557 128 710 0 864 0 
C 1050 0 1178 153 1178 307 
z
" transform="scale(0.015625)"/>
       </defs>
       <use xlink:href="#CMR17-30" transform="scale(0.996264)"/>
       <use xlink:href="#CMMI12-3a" transform="translate(45.690477 0) scale(0.996264)"/>
       <use xlink:href="#CMR17-30" transform="translate(72.787654 0) scale(0.996264)"/>
      </g>
     </g>
    </g>
    <g id="xtick_2">
     <g id="line2d_2">
      <g>
       <use xlink:href="#med9337cf02" x="269.977436" y="678.237256" style="fill: #262626; stroke: #262626; stroke-width: 0.8"/>
      </g>
     </g>
     <g id="text_2">
      <!-- $\mathdefault{0.2}$ -->
      <g style="fill: #262626" transform="translate(248.651373 710.143856) scale(0.36 -0.36)">
       <defs>
        <path id="CMR17-32" d="M 2669 989 
L 2554 989 
C 2490 536 2438 459 2413 420 
C 2381 369 1920 369 1830 369 
L 602 369 
C 832 619 1280 1072 1824 1597 
C 2214 1967 2669 2402 2669 3035 
C 2669 3790 2067 4224 1395 4224 
C 691 4224 262 3604 262 3030 
C 262 2780 448 2748 525 2748 
C 589 2748 781 2787 781 3010 
C 781 3207 614 3264 525 3264 
C 486 3264 448 3258 422 3245 
C 544 3790 915 4058 1306 4058 
C 1862 4058 2227 3617 2227 3035 
C 2227 2479 1901 2000 1536 1584 
L 262 146 
L 262 0 
L 2515 0 
L 2669 989 
z
" transform="scale(0.015625)"/>
       </defs>
       <use xlink:href="#CMR17-30" transform="scale(0.996264)"/>
       <use xlink:href="#CMMI12-3a" transform="translate(45.690477 0) scale(0.996264)"/>
       <use xlink:href="#CMR17-32" transform="translate(72.787654 0) scale(0.996264)"/>
      </g>
     </g>
    </g>
    <g id="xtick_3">
     <g id="line2d_3">
      <g>
       <use xlink:href="#med9337cf02" x="451.422745" y="678.237256" style="fill: #262626; stroke: #262626; stroke-width: 0.8"/>
      </g>
     </g>
     <g id="text_3">
      <!-- $\mathdefault{0.4}$ -->
      <g style="fill: #262626" transform="translate(430.096682 710.143856) scale(0.36 -0.36)">
       <defs>
        <path id="CMR17-34" d="M 2150 4122 
C 2150 4256 2144 4256 2029 4256 
L 128 1254 
L 128 1088 
L 1779 1088 
L 1779 457 
C 1779 224 1766 160 1318 160 
L 1197 160 
L 1197 0 
C 1402 0 1747 0 1965 0 
C 2182 0 2528 0 2733 0 
L 2733 160 
L 2611 160 
C 2163 160 2150 224 2150 457 
L 2150 1088 
L 2803 1088 
L 2803 1254 
L 2150 1254 
L 2150 4122 
z
M 1798 3703 
L 1798 1254 
L 256 1254 
L 1798 3703 
z
" transform="scale(0.015625)"/>
       </defs>
       <use xlink:href="#CMR17-30" transform="scale(0.996264)"/>
       <use xlink:href="#CMMI12-3a" transform="translate(45.690477 0) scale(0.996264)"/>
       <use xlink:href="#CMR17-34" transform="translate(72.787654 0) scale(0.996264)"/>
      </g>
     </g>
    </g>
    <g id="xtick_4">
     <g id="line2d_4">
      <g>
       <use xlink:href="#med9337cf02" x="632.868055" y="678.237256" style="fill: #262626; stroke: #262626; stroke-width: 0.8"/>
      </g>
     </g>
     <g id="text_4">
      <!-- $\mathdefault{0.6}$ -->
      <g style="fill: #262626" transform="translate(611.541991 710.143856) scale(0.36 -0.36)">
       <defs>
        <path id="CMR17-36" d="M 678 2176 
C 678 3690 1395 4032 1811 4032 
C 1946 4032 2272 4009 2400 3776 
C 2298 3776 2106 3776 2106 3553 
C 2106 3381 2246 3323 2336 3323 
C 2394 3323 2566 3348 2566 3560 
C 2566 3954 2246 4179 1805 4179 
C 1043 4179 243 3390 243 1984 
C 243 253 966 -128 1478 -128 
C 2099 -128 2688 427 2688 1283 
C 2688 2081 2170 2662 1517 2662 
C 1126 2662 838 2407 678 1960 
L 678 2176 
z
M 1478 25 
C 691 25 691 1200 691 1436 
C 691 1896 909 2560 1504 2560 
C 1613 2560 1926 2560 2138 2120 
C 2253 1870 2253 1609 2253 1289 
C 2253 944 2253 690 2118 434 
C 1978 171 1773 25 1478 25 
z
" transform="scale(0.015625)"/>
       </defs>
       <use xlink:href="#CMR17-30" transform="scale(0.996264)"/>
       <use xlink:href="#CMMI12-3a" transform="translate(45.690477 0) scale(0.996264)"/>
       <use xlink:href="#CMR17-36" transform="translate(72.787654 0) scale(0.996264)"/>
      </g>
     </g>
    </g>
    <g id="xtick_5">
     <g id="line2d_5">
      <g>
       <use xlink:href="#med9337cf02" x="814.313364" y="678.237256" style="fill: #262626; stroke: #262626; stroke-width: 0.8"/>
      </g>
     </g>
     <g id="text_5">
      <!-- $\mathdefault{0.8}$ -->
      <g style="fill: #262626" transform="translate(792.9873 710.143856) scale(0.36 -0.36)">
       <defs>
        <path id="CMR17-38" d="M 1741 2264 
C 2144 2467 2554 2773 2554 3263 
C 2554 3841 1990 4179 1472 4179 
C 890 4179 378 3759 378 3180 
C 378 3021 416 2747 666 2505 
C 730 2442 998 2251 1171 2130 
C 883 1983 211 1634 211 934 
C 211 279 838 -128 1459 -128 
C 2144 -128 2720 362 2720 1010 
C 2720 1590 2330 1857 2074 2029 
L 1741 2264 
z
M 902 2822 
C 851 2854 595 3051 595 3351 
C 595 3739 998 4032 1459 4032 
C 1965 4032 2336 3676 2336 3262 
C 2336 2669 1670 2331 1638 2331 
C 1632 2331 1626 2331 1574 2370 
L 902 2822 
z
M 2080 1519 
C 2176 1449 2483 1240 2483 851 
C 2483 381 2010 25 1472 25 
C 890 25 448 438 448 940 
C 448 1443 838 1862 1280 2060 
L 2080 1519 
z
" transform="scale(0.015625)"/>
       </defs>
       <use xlink:href="#CMR17-30" transform="scale(0.996264)"/>
       <use xlink:href="#CMMI12-3a" transform="translate(45.690477 0) scale(0.996264)"/>
       <use xlink:href="#CMR17-38" transform="translate(72.787654 0) scale(0.996264)"/>
      </g>
     </g>
    </g>
    <g id="xtick_6">
     <g id="line2d_6">
      <g>
       <use xlink:href="#med9337cf02" x="995.758673" y="678.237256" style="fill: #262626; stroke: #262626; stroke-width: 0.8"/>
      </g>
     </g>
     <g id="text_6">
      <!-- $\mathdefault{1.0}$ -->
      <g style="fill: #262626" transform="translate(974.432609 710.143856) scale(0.36 -0.36)">
       <defs>
        <path id="CMR17-31" d="M 1702 4058 
C 1702 4192 1696 4192 1606 4192 
C 1357 3916 979 3827 621 3827 
C 602 3827 570 3827 563 3808 
C 557 3795 557 3782 557 3648 
C 755 3648 1088 3686 1344 3839 
L 1344 461 
C 1344 236 1331 160 781 160 
L 589 160 
L 589 0 
C 896 0 1216 0 1523 0 
C 1830 0 2150 0 2458 0 
L 2458 160 
L 2266 160 
C 1715 160 1702 230 1702 458 
L 1702 4058 
z
" transform="scale(0.015625)"/>
       </defs>
       <use xlink:href="#CMR17-31" transform="scale(0.996264)"/>
       <use xlink:href="#CMMI12-3a" transform="translate(45.690477 0) scale(0.996264)"/>
       <use xlink:href="#CMR17-30" transform="translate(72.787654 0) scale(0.996264)"/>
      </g>
     </g>
    </g>
   </g>
   <g id="matplotlib.axis_2">
    <g id="ytick_1">
     <g id="line2d_7">
      <defs>
       <path id="m733eb3def1" d="M 0 0 
L -3.5 0 
" style="stroke: #262626; stroke-width: 0.8"/>
      </defs>
      <g>
       <use xlink:href="#m733eb3def1" x="88.532127" y="678.237256" style="fill: #262626; stroke: #262626; stroke-width: 0.8"/>
      </g>
     </g>
     <g id="text_7">
      <!-- $\mathdefault{0.0}$ -->
      <g style="fill: #262626" transform="translate(38.88 690.690556) scale(0.36 -0.36)">
       <use xlink:href="#CMR17-30" transform="scale(0.996264)"/>
       <use xlink:href="#CMMI12-3a" transform="translate(45.690477 0) scale(0.996264)"/>
       <use xlink:href="#CMR17-30" transform="translate(72.787654 0) scale(0.996264)"/>
      </g>
     </g>
    </g>
    <g id="ytick_2">
     <g id="line2d_8">
      <g>
       <use xlink:href="#m733eb3def1" x="88.532127" y="678.212467" style="fill: #262626; stroke: #262626; stroke-width: 0.8"/>
      </g>
     </g>
     <g id="text_8">
      <!-- $\mathdefault{0.2}$ -->
      <g style="fill: #262626" transform="translate(38.88 690.665767) scale(0.36 -0.36)">
       <use xlink:href="#CMR17-30" transform="scale(0.996264)"/>
       <use xlink:href="#CMMI12-3a" transform="translate(45.690477 0) scale(0.996264)"/>
       <use xlink:href="#CMR17-32" transform="translate(72.787654 0) scale(0.996264)"/>
      </g>
     </g>
    </g>
    <g id="ytick_3">
     <g id="line2d_9">
      <g>
       <use xlink:href="#m733eb3def1" x="88.532127" y="678.187678" style="fill: #262626; stroke: #262626; stroke-width: 0.8"/>
      </g>
     </g>
     <g id="text_9">
      <!-- $\mathdefault{0.4}$ -->
      <g style="fill: #262626" transform="translate(38.88 690.640978) scale(0.36 -0.36)">
       <use xlink:href="#CMR17-30" transform="scale(0.996264)"/>
       <use xlink:href="#CMMI12-3a" transform="translate(45.690477 0) scale(0.996264)"/>
       <use xlink:href="#CMR17-34" transform="translate(72.787654 0) scale(0.996264)"/>
      </g>
     </g>
    </g>
    <g id="ytick_4">
     <g id="line2d_10">
      <g>
       <use xlink:href="#m733eb3def1" x="88.532127" y="678.162888" style="fill: #262626; stroke: #262626; stroke-width: 0.8"/>
      </g>
     </g>
     <g id="text_10">
      <!-- $\mathdefault{0.6}$ -->
      <g style="fill: #262626" transform="translate(38.88 690.616188) scale(0.36 -0.36)">
       <use xlink:href="#CMR17-30" transform="scale(0.996264)"/>
       <use xlink:href="#CMMI12-3a" transform="translate(45.690477 0) scale(0.996264)"/>
       <use xlink:href="#CMR17-36" transform="translate(72.787654 0) scale(0.996264)"/>
      </g>
     </g>
    </g>
    <g id="ytick_5">
     <g id="line2d_11">
      <g>
       <use xlink:href="#m733eb3def1" x="88.532127" y="678.138099" style="fill: #262626; stroke: #262626; stroke-width: 0.8"/>
      </g>
     </g>
     <g id="text_11">
      <!-- $\mathdefault{0.8}$ -->
      <g style="fill: #262626" transform="translate(38.88 690.591399) scale(0.36 -0.36)">
       <use xlink:href="#CMR17-30" transform="scale(0.996264)"/>
       <use xlink:href="#CMMI12-3a" transform="translate(45.690477 0) scale(0.996264)"/>
       <use xlink:href="#CMR17-38" transform="translate(72.787654 0) scale(0.996264)"/>
      </g>
     </g>
    </g>
    <g id="ytick_6">
     <g id="line2d_12">
      <g>
       <use xlink:href="#m733eb3def1" x="88.532127" y="678.11331" style="fill: #262626; stroke: #262626; stroke-width: 0.8"/>
      </g>
     </g>
     <g id="text_12">
      <!-- $\mathdefault{1.0}$ -->
      <g style="fill: #262626" transform="translate(38.88 690.56661) scale(0.36 -0.36)">
       <use xlink:href="#CMR17-31" transform="scale(0.996264)"/>
       <use xlink:href="#CMMI12-3a" transform="translate(45.690477 0) scale(0.996264)"/>
       <use xlink:href="#CMR17-30" transform="translate(72.787654 0) scale(0.996264)"/>
      </g>
     </g>
    </g>
    <g id="ytick_7">
     <g id="line2d_13">
      <g>
       <use xlink:href="#m733eb3def1" x="88.532127" y="678.08852" style="fill: #262626; stroke: #262626; stroke-width: 0.8"/>
      </g>
     </g>
     <g id="text_13">
      <!-- $\mathdefault{1.2}$ -->
      <g style="fill: #262626" transform="translate(38.88 690.54182) scale(0.36 -0.36)">
       <use xlink:href="#CMR17-31" transform="scale(0.996264)"/>
       <use xlink:href="#CMMI12-3a" transform="translate(45.690477 0) scale(0.996264)"/>
       <use xlink:href="#CMR17-32" transform="translate(72.787654 0) scale(0.996264)"/>
      </g>
     </g>
    </g>
   </g>
   <g id="line2d_14">
    <path d="M 88.532127 678.237256 
L 995.758673 678.237256 
L 995.758673 678.237256 
" clip-path="url(#p0e23d42448)" style="fill: none; stroke: #1f77b4; stroke-width: 5; stroke-linecap: round"/>
   </g>
   <g id="line2d_15">
    <path d="M 88.532127 663.993339 
L 191.351136 665.468345 
L 306.266498 666.882572 
L 433.278215 668.213918 
L 572.386285 669.448633 
L 729.638886 670.620928 
L 911.084195 671.741933 
L 995.758673 672.195711 
L 995.758673 672.195711 
" clip-path="url(#p0e23d42448)" style="fill: none; stroke: #ff7f0e; stroke-width: 5; stroke-linecap: round"/>
   </g>
   <g id="line2d_16">
    <path d="M 88.532127 645.358304 
L 130.869366 647.479443 
L 179.254782 649.651956 
L 227.640198 651.595647 
L 282.07379 653.550217 
L 342.55556 655.478265 
L 409.085507 657.350609 
L 481.66363 659.145774 
L 560.289931 660.84895 
L 644.964408 662.450924 
L 735.687063 663.946944 
L 838.506072 665.416279 
L 953.421434 666.826853 
L 995.758673 667.294317 
L 995.758673 667.294317 
" clip-path="url(#p0e23d42448)" style="fill: none; stroke: #2ca02c; stroke-width: 5; stroke-linecap: round"/>
   </g>
   <g id="line2d_17">
    <path d="M 88.532127 620.841228 
L 112.724835 623.885737 
L 136.917543 626.665581 
L 161.110251 629.213616 
L 185.302959 631.557411 
L 215.543844 634.23522 
L 245.784728 636.668467 
L 276.025613 638.888745 
L 312.314675 641.308892 
L 348.603737 643.497983 
L 390.940976 645.801019 
L 433.278215 647.871888 
L 481.66363 649.996014 
L 530.049046 651.899009 
L 584.482639 653.815168 
L 644.964408 655.707722 
L 711.494355 657.547892 
L 784.072479 659.314305 
L 862.698779 660.992104 
L 947.373257 662.571887 
L 995.758673 663.384667 
L 995.758673 663.384667 
" clip-path="url(#p0e23d42448)" style="fill: none; stroke: #d62728; stroke-width: 5; stroke-linecap: round"/>
   </g>
   <g id="line2d_18">
    <path d="M 88.532127 588.404946 
L 100.628481 591.779488 
L 112.724835 594.933516 
L 124.821189 597.887849 
L 136.917543 600.660996 
L 149.013897 603.269081 
L 167.158428 606.902409 
L 185.302959 610.237797 
L 203.44749 613.310284 
L 221.592021 616.149672 
L 239.736552 618.781392 
L 257.881082 621.227258 
L 282.07379 624.231569 
L 306.266498 626.976896 
L 330.459206 629.495008 
L 354.651914 631.812749 
L 384.892799 634.462432 
L 415.133684 636.871633 
L 445.374568 639.071222 
L 481.66363 641.4701 
L 517.952692 643.641127 
L 560.289931 645.926345 
L 602.62717 647.982201 
L 651.012585 650.09191 
L 699.398001 651.98283 
L 753.831594 653.887612 
L 814.313364 655.769702 
L 880.84331 657.600418 
L 953.421434 659.358425 
L 995.758673 660.285358 
L 995.758673 660.285358 
" clip-path="url(#p0e23d42448)" style="fill: none; stroke: #9467bd; stroke-width: 5; stroke-linecap: round"/>
   </g>
   <g id="line2d_19">
    <path d="M 88.532127 545.256062 
L 94.580304 548.735532 
L 100.628481 552.049912 
L 106.676658 555.21086 
L 112.724835 558.228779 
L 118.773012 561.113055 
L 130.869366 566.515092 
L 142.96572 571.477991 
L 155.062074 576.053255 
L 167.158428 580.284581 
L 179.254782 584.209331 
L 191.351136 587.859618 
L 203.44749 591.263238 
L 215.543844 594.444294 
L 227.640198 597.423915 
L 239.736552 600.220517 
L 251.832905 602.850425 
L 269.977436 606.513856 
L 288.121967 609.876311 
L 306.266498 612.973235 
L 324.411029 615.834714 
L 342.55556 618.486446 
L 360.700091 620.950497 
L 384.892799 623.976573 
L 409.085507 626.741159 
L 433.278215 629.276415 
L 457.470922 631.609454 
L 487.711807 634.276085 
L 517.952692 636.700112 
L 548.193577 638.912789 
L 584.482639 641.32542 
L 620.771701 643.508434 
L 663.108939 645.805758 
L 705.446178 647.872083 
L 753.831594 649.992083 
L 802.21701 651.891872 
L 856.650602 653.805215 
L 917.132372 655.695424 
L 983.662319 657.533697 
L 995.758673 657.844083 
L 995.758673 657.844083 
" clip-path="url(#p0e23d42448)" style="fill: none; stroke: #8c564b; stroke-width: 5; stroke-linecap: round"/>
   </g>
   <g id="line2d_20">
    <path d="M 88.532127 487.538044 
L 94.580304 494.296899 
L 100.628481 500.616212 
L 106.676658 506.537883 
L 112.724835 512.098317 
L 118.773012 517.329435 
L 124.821189 522.259867 
L 130.869366 526.914966 
L 136.917543 531.316947 
L 142.96572 535.48609 
L 149.013897 539.440397 
L 155.062074 543.195873 
L 161.110251 546.767363 
L 167.158428 550.167945 
L 173.206605 553.409611 
L 179.254782 556.503343 
L 185.302959 559.458947 
L 197.399313 564.991118 
L 209.495667 570.069759 
L 221.592021 574.748236 
L 233.688375 579.07208 
L 245.784728 583.080017 
L 257.881082 586.80531 
L 269.977436 590.276776 
L 282.07379 593.519362 
L 294.170144 596.55501 
L 306.266498 599.402754 
L 318.362852 602.079441 
L 336.507383 605.805874 
L 354.651914 609.223963 
L 372.796445 612.37021 
L 390.940976 615.275615 
L 409.085507 617.966627 
L 427.230038 620.465982 
L 451.422745 623.533721 
L 475.615453 626.334836 
L 499.808161 628.902243 
L 524.000869 631.263738 
L 554.241754 633.961553 
L 584.482639 636.412702 
L 614.723524 638.649098 
L 651.012585 641.086498 
L 687.301647 643.290901 
L 729.638886 645.609722 
L 771.976125 647.69448 
L 820.361541 649.832507 
L 868.746956 651.747707 
L 923.180549 653.675838 
L 983.662319 655.579953 
L 995.758673 655.934209 
L 995.758673 655.934209 
" clip-path="url(#p0e23d42448)" style="fill: none; stroke: #e377c2; stroke-width: 5; stroke-linecap: round"/>
   </g>
   <g id="line2d_21">
    <path d="M 88.532127 410.103928 
L 94.580304 422.815846 
L 100.628481 434.460096 
L 106.676658 445.137889 
L 112.724835 454.955477 
L 118.773012 464.012644 
L 124.821189 472.394891 
L 130.869366 480.175253 
L 136.917543 487.41601 
L 142.96572 494.171735 
L 149.013897 500.489613 
L 155.062074 506.410614 
L 161.110251 511.971338 
L 167.158428 517.203525 
L 173.206605 522.135477 
L 179.254782 526.792464 
L 185.302959 531.196721 
L 191.351136 535.36819 
L 197.399313 539.325008 
L 203.44749 543.083188 
L 209.495667 546.657425 
L 215.543844 550.060684 
L 221.592021 553.305119 
L 227.640198 556.401568 
L 233.688375 559.35976 
L 245.784728 564.897146 
L 257.881082 569.980662 
L 269.977436 574.663823 
L 282.07379 578.991944 
L 294.170144 583.003956 
L 306.266498 586.733058 
L 318.362852 590.208056 
L 330.459206 593.453988 
L 342.55556 596.492688 
L 354.651914 599.343301 
L 366.748268 602.022638 
L 384.892799 605.752709 
L 403.03733 609.174084 
L 421.181861 612.323337 
L 439.326392 615.231436 
L 457.470922 617.9249 
L 475.615453 620.426463 
L 499.808161 623.496918 
L 524.000869 626.300391 
L 548.193577 628.869915 
L 572.386285 631.233307 
L 602.62717 633.93323 
L 632.868055 636.386258 
L 663.108939 638.624312 
L 699.398001 641.063454 
L 735.687063 643.269417 
L 778.024302 645.589815 
L 820.361541 647.675945 
L 868.746956 649.815367 
L 917.132372 651.731761 
L 971.565965 653.661078 
L 995.758673 654.450999 
L 995.758673 654.450999 
" clip-path="url(#p0e23d42448)" style="fill: none; stroke: #7f7f7f; stroke-width: 5; stroke-linecap: round"/>
   </g>
   <g id="line2d_22">
    <path d="M 88.532127 310.800867 
L 94.580304 332.077127 
L 100.628481 351.513354 
L 106.676658 369.243785 
L 112.724835 385.444438 
L 118.773012 400.256887 
L 124.821189 413.81508 
L 130.869366 426.210095 
L 136.917543 437.556284 
L 142.96572 447.968451 
L 149.013897 457.553485 
L 155.062074 466.405728 
L 161.110251 474.606628 
L 167.158428 482.2253 
L 173.206605 489.321663 
L 179.254782 495.947861 
L 185.302959 502.14894 
L 191.351136 507.964424 
L 197.399313 513.429402 
L 203.44749 518.574454 
L 209.495667 523.427009 
L 215.543844 528.011036 
L 221.592021 532.348449 
L 227.640198 536.458588 
L 233.688375 540.358647 
L 239.736552 544.064514 
L 245.784728 547.590207 
L 251.832905 550.948508 
L 257.881082 554.151155 
L 263.929259 557.208592 
L 269.977436 560.130522 
L 282.07379 565.602116 
L 294.170144 570.628014 
L 306.266498 575.26028 
L 318.362852 579.54329 
L 330.459206 583.515011 
L 342.55556 587.208072 
L 354.651914 590.650701 
L 366.748268 593.867385 
L 378.844622 596.879601 
L 390.940976 599.706184 
L 403.03733 602.363636 
L 421.181861 606.064393 
L 439.326392 609.459966 
L 457.470922 612.586426 
L 475.615453 615.474334 
L 493.759984 618.14979 
L 511.904515 620.635228 
L 536.097223 623.686691 
L 560.289931 626.473565 
L 584.482639 629.028524 
L 608.675347 631.379066 
L 638.916232 634.064931 
L 669.157116 636.505776 
L 699.398001 638.733199 
L 735.687063 641.161298 
L 771.976125 643.357739 
L 814.313364 645.668601 
L 856.650602 647.746594 
L 905.036018 649.878095 
L 953.421434 651.787749 
L 995.758673 653.302088 
L 995.758673 653.302088 
" clip-path="url(#p0e23d42448)" style="fill: none; stroke: #bcbd22; stroke-width: 5; stroke-linecap: round"/>
   </g>
   <g id="line2d_23">
    <path d="M 88.532127 195.541308 
L 94.580304 226.923653 
L 100.628481 255.549487 
L 106.676658 281.625859 
L 112.724835 305.418814 
L 118.773012 327.146081 
L 124.821189 347.007069 
L 130.869366 365.135241 
L 136.917543 381.694722 
L 142.96572 396.83568 
L 149.013897 410.677702 
L 155.062074 423.334752 
L 161.110251 434.917659 
L 167.158428 445.538579 
L 173.206605 455.308351 
L 179.254782 464.325634 
L 185.302959 472.673903 
L 191.351136 480.4248 
L 197.399313 487.640497 
L 203.44749 494.374345 
L 209.495667 500.673221 
L 215.543844 506.57759 
L 221.592021 512.123669 
L 227.640198 517.343064 
L 233.688375 522.263544 
L 239.736552 526.910298 
L 245.784728 531.305384 
L 251.832905 535.468652 
L 257.881082 539.418083 
L 263.929259 543.169579 
L 269.977436 546.737711 
L 276.025613 550.135457 
L 282.07379 553.374851 
L 288.121967 556.466738 
L 294.170144 559.420735 
L 306.266498 564.950689 
L 318.362852 570.027899 
L 330.459206 574.705665 
L 342.55556 579.029202 
L 354.651914 583.037156 
L 366.748268 586.76269 
L 378.844622 590.234566 
L 390.940976 593.47777 
L 403.03733 596.514007 
L 415.133684 599.362449 
L 427.230038 602.039872 
L 445.374568 605.767398 
L 463.519099 609.186538 
L 481.66363 612.333905 
L 499.808161 615.240352 
L 517.952692 617.932374 
L 536.097223 620.432692 
L 560.289931 623.501681 
L 584.482639 626.303907 
L 608.675347 628.872381 
L 632.868055 631.23486 
L 663.108939 633.933825 
L 693.349824 636.386046 
L 723.590709 638.623415 
L 759.879771 641.061896 
L 796.168833 643.267288 
L 838.506072 645.587168 
L 880.84331 647.672885 
L 929.228726 649.81193 
L 977.614142 651.72804 
L 995.758673 652.395895 
L 995.758673 652.395895 
" clip-path="url(#p0e23d42448)" style="fill: none; stroke: #17becf; stroke-width: 5; stroke-linecap: round"/>
   </g>
   <g id="line2d_24">
    <path d="M 88.532127 69.325584 
L 94.580304 111.925547 
L 100.628481 150.738231 
L 106.676658 186.053736 
L 112.724835 218.239503 
L 118.773012 247.596701 
L 124.821189 274.400859 
L 130.869366 298.838583 
L 136.917543 321.136424 
L 142.96572 341.501814 
L 149.013897 360.101698 
L 155.062074 377.093722 
L 161.110251 392.62348 
L 167.158428 406.820986 
L 173.206605 419.804382 
L 179.254782 431.684214 
L 185.302959 442.567805 
L 191.351136 452.569394 
L 197.399313 461.792358 
L 203.44749 470.323923 
L 209.495667 478.239238 
L 215.543844 485.602302 
L 221.592021 492.469299 
L 227.640198 498.88867 
L 233.688375 504.902479 
L 239.736552 510.548248 
L 245.784728 515.858565 
L 251.832905 520.862395 
L 257.881082 525.585659 
L 263.929259 530.051121 
L 269.977436 534.27939 
L 276.025613 538.288706 
L 282.07379 542.095781 
L 288.121967 545.715568 
L 294.170144 549.16129 
L 300.218321 552.445425 
L 306.266498 555.578798 
L 312.314675 558.571782 
L 324.411029 564.172163 
L 336.507383 569.311449 
L 348.603737 574.044135 
L 360.700091 578.416477 
L 372.796445 582.468035 
L 384.892799 586.232658 
L 396.989153 589.739793 
L 409.085507 593.014752 
L 421.181861 596.079859 
L 433.278215 598.954462 
L 445.374568 601.65581 
L 463.519099 605.415395 
L 481.66363 608.862832 
L 499.808161 612.035108 
L 517.952692 614.96374 
L 536.097223 617.675583 
L 554.241754 620.193616 
L 578.434462 623.283531 
L 602.62717 626.104054 
L 626.819878 628.688613 
L 651.012585 631.065322 
L 681.25347 633.779846 
L 711.494355 636.24558 
L 741.73524 638.494783 
L 778.024302 640.945574 
L 814.313364 643.161609 
L 856.650602 645.492149 
L 898.987841 647.58702 
L 947.373257 649.734995 
L 995.758673 651.658716 
L 995.758673 651.658716 
" clip-path="url(#p0e23d42448)" style="fill: none; stroke: #17becf; stroke-width: 5; stroke-linecap: round"/>
   </g>
   <g id="patch_3">
    <path d="M 88.532127 678.237256 
L 88.532127 38.88 
" style="fill: none; stroke: #262626; stroke-width: 0.8; stroke-linejoin: miter; stroke-linecap: square"/>
   </g>
   <g id="patch_4">
    <path d="M 88.532127 678.237256 
L 1041.12 678.237256 
" style="fill: none; stroke: #262626; stroke-width: 0.8; stroke-linejoin: miter; stroke-linecap: square"/>
   </g>
  </g>
 </g>
 <defs>
  <clipPath id="p0e23d42448">
   <rect x="88.532127" y="38.88" width="952.587873" height="639.357256"/>
  </clipPath>
 </defs>
</svg>
