<?xml version="1.0" encoding="utf-8" standalone="no"?>
<!DOCTYPE svg PUBLIC "-//W3C//DTD SVG 1.1//EN"
  "http://www.w3.org/Graphics/SVG/1.1/DTD/svg11.dtd">
<svg xmlns:xlink="http://www.w3.org/1999/xlink" width="1080pt" height="576pt" viewBox="0 0 1080 576" xmlns="http://www.w3.org/2000/svg" version="1.1">
 <metadata>
  <rdf:RDF xmlns:dc="http://purl.org/dc/elements/1.1/" xmlns:cc="http://creativecommons.org/ns#" xmlns:rdf="http://www.w3.org/1999/02/22-rdf-syntax-ns#">
   <cc:Work>
    <dc:type rdf:resource="http://purl.org/dc/dcmitype/StillImage"/>
    <dc:date>2024-06-28T12:20:08.409427</dc:date>
    <dc:format>image/svg+xml</dc:format>
    <dc:creator>
     <cc:Agent>
      <dc:title>Matplotlib v3.9.0, https://matplotlib.org/</dc:title>
     </cc:Agent>
    </dc:creator>
   </cc:Work>
  </rdf:RDF>
 </metadata>
 <defs>
  <style type="text/css">*{stroke-linejoin: round; stroke-linecap: butt}</style>
 </defs>
 <g id="figure_1">
  <g id="patch_1">
   <path d="M 0 576 
L 1080 576 
L 1080 0 
L 0 0 
z
" style="fill: #ffffff"/>
  </g>
  <g id="axes_1">
   <g id="patch_2">
    <path d="M 48.559071 521.153031 
L 935.517672 521.153031 
L 935.517672 51.564121 
L 48.559071 51.564121 
z
" style="fill: #eaeaf2"/>
   </g>
   <g id="matplotlib.axis_1">
    <g id="xtick_1">
     <g id="line2d_1">
      <path d="M 48.559071 521.153031 
L 48.559071 51.564121 
" clip-path="url(#p56f3eb5ce6)" style="fill: none; stroke: #ffffff; stroke-linecap: round"/>
     </g>
     <g id="line2d_2"/>
     <g id="text_1">
      <!-- $\mathdefault{0.00}$ -->
      <g style="fill: #262626" transform="translate(36.419535 537.838907) scale(0.14 -0.14)">
       <defs>
        <path id="CMR17-30" d="M 2688 2025 
C 2688 2416 2682 3080 2413 3591 
C 2176 4039 1798 4198 1466 4198 
C 1158 4198 768 4058 525 3597 
C 269 3118 243 2524 243 2025 
C 243 1661 250 1106 448 619 
C 723 -39 1216 -128 1466 -128 
C 1760 -128 2208 -7 2470 600 
C 2662 1042 2688 1559 2688 2025 
z
M 1466 -26 
C 1056 -26 813 325 723 812 
C 653 1188 653 1738 653 2096 
C 653 2588 653 2997 736 3387 
C 858 3929 1216 4096 1466 4096 
C 1728 4096 2067 3923 2189 3400 
C 2272 3036 2278 2607 2278 2096 
C 2278 1680 2278 1169 2202 792 
C 2067 95 1690 -26 1466 -26 
z
" transform="scale(0.015625)"/>
        <path id="CMMI12-3a" d="M 1178 307 
C 1178 492 1024 619 870 619 
C 685 619 557 466 557 313 
C 557 128 710 0 864 0 
C 1050 0 1178 153 1178 307 
z
" transform="scale(0.015625)"/>
       </defs>
       <use xlink:href="#CMR17-30" transform="scale(0.996264)"/>
       <use xlink:href="#CMMI12-3a" transform="translate(45.690477 0) scale(0.996264)"/>
       <use xlink:href="#CMR17-30" transform="translate(72.787654 0) scale(0.996264)"/>
       <use xlink:href="#CMR17-30" transform="translate(118.478131 0) scale(0.996264)"/>
      </g>
     </g>
    </g>
    <g id="xtick_2">
     <g id="line2d_3">
      <path d="M 154.14938 521.153031 
L 154.14938 51.564121 
" clip-path="url(#p56f3eb5ce6)" style="fill: none; stroke: #ffffff; stroke-linecap: round"/>
     </g>
     <g id="line2d_4"/>
     <g id="text_2">
      <!-- $\mathdefault{0.25}$ -->
      <g style="fill: #262626" transform="translate(142.009845 537.838907) scale(0.14 -0.14)">
       <defs>
        <path id="CMR17-32" d="M 2669 989 
L 2554 989 
C 2490 536 2438 459 2413 420 
C 2381 369 1920 369 1830 369 
L 602 369 
C 832 619 1280 1072 1824 1597 
C 2214 1967 2669 2402 2669 3035 
C 2669 3790 2067 4224 1395 4224 
C 691 4224 262 3604 262 3030 
C 262 2780 448 2748 525 2748 
C 589 2748 781 2787 781 3010 
C 781 3207 614 3264 525 3264 
C 486 3264 448 3258 422 3245 
C 544 3790 915 4058 1306 4058 
C 1862 4058 2227 3617 2227 3035 
C 2227 2479 1901 2000 1536 1584 
L 262 146 
L 262 0 
L 2515 0 
L 2669 989 
z
" transform="scale(0.015625)"/>
        <path id="CMR17-35" d="M 730 3692 
C 794 3666 1056 3584 1325 3584 
C 1920 3584 2246 3911 2432 4100 
C 2432 4157 2432 4192 2394 4192 
C 2387 4192 2374 4192 2323 4163 
C 2099 4058 1837 3973 1517 3973 
C 1325 3973 1037 3999 723 4139 
C 653 4171 640 4171 634 4171 
C 602 4171 595 4164 595 4037 
L 595 2203 
C 595 2089 595 2057 659 2057 
C 691 2057 704 2070 736 2114 
C 941 2401 1222 2522 1542 2522 
C 1766 2522 2246 2382 2246 1289 
C 2246 1085 2246 715 2054 421 
C 1894 159 1645 25 1370 25 
C 947 25 518 320 403 814 
C 429 807 480 795 506 795 
C 589 795 749 840 749 1038 
C 749 1210 627 1280 506 1280 
C 358 1280 262 1190 262 1011 
C 262 454 704 -128 1382 -128 
C 2042 -128 2669 440 2669 1264 
C 2669 2030 2170 2624 1549 2624 
C 1222 2624 947 2503 730 2274 
L 730 3692 
z
" transform="scale(0.015625)"/>
       </defs>
       <use xlink:href="#CMR17-30" transform="scale(0.996264)"/>
       <use xlink:href="#CMMI12-3a" transform="translate(45.690477 0) scale(0.996264)"/>
       <use xlink:href="#CMR17-32" transform="translate(72.787654 0) scale(0.996264)"/>
       <use xlink:href="#CMR17-35" transform="translate(118.478131 0) scale(0.996264)"/>
      </g>
     </g>
    </g>
    <g id="xtick_3">
     <g id="line2d_5">
      <path d="M 259.73969 521.153031 
L 259.73969 51.564121 
" clip-path="url(#p56f3eb5ce6)" style="fill: none; stroke: #ffffff; stroke-linecap: round"/>
     </g>
     <g id="line2d_6"/>
     <g id="text_3">
      <!-- $\mathdefault{0.50}$ -->
      <g style="fill: #262626" transform="translate(247.600155 537.838907) scale(0.14 -0.14)">
       <use xlink:href="#CMR17-30" transform="scale(0.996264)"/>
       <use xlink:href="#CMMI12-3a" transform="translate(45.690477 0) scale(0.996264)"/>
       <use xlink:href="#CMR17-35" transform="translate(72.787654 0) scale(0.996264)"/>
       <use xlink:href="#CMR17-30" transform="translate(118.478131 0) scale(0.996264)"/>
      </g>
     </g>
    </g>
    <g id="xtick_4">
     <g id="line2d_7">
      <path d="M 365.33 521.153031 
L 365.33 51.564121 
" clip-path="url(#p56f3eb5ce6)" style="fill: none; stroke: #ffffff; stroke-linecap: round"/>
     </g>
     <g id="line2d_8"/>
     <g id="text_4">
      <!-- $\mathdefault{0.75}$ -->
      <g style="fill: #262626" transform="translate(353.190464 537.838907) scale(0.14 -0.14)">
       <defs>
        <path id="CMR17-37" d="M 2886 3941 
L 2886 4081 
L 1382 4081 
C 634 4081 621 4165 595 4288 
L 480 4288 
L 294 3094 
L 410 3094 
C 429 3215 474 3540 550 3661 
C 589 3712 1062 3712 1171 3712 
L 2579 3712 
L 1869 2661 
C 1395 1954 1069 999 1069 165 
C 1069 89 1069 -128 1299 -128 
C 1530 -128 1530 89 1530 171 
L 1530 465 
C 1530 1508 1709 2196 2003 2636 
L 2886 3941 
z
" transform="scale(0.015625)"/>
       </defs>
       <use xlink:href="#CMR17-30" transform="scale(0.996264)"/>
       <use xlink:href="#CMMI12-3a" transform="translate(45.690477 0) scale(0.996264)"/>
       <use xlink:href="#CMR17-37" transform="translate(72.787654 0) scale(0.996264)"/>
       <use xlink:href="#CMR17-35" transform="translate(118.478131 0) scale(0.996264)"/>
      </g>
     </g>
    </g>
    <g id="xtick_5">
     <g id="line2d_9">
      <path d="M 470.920309 521.153031 
L 470.920309 51.564121 
" clip-path="url(#p56f3eb5ce6)" style="fill: none; stroke: #ffffff; stroke-linecap: round"/>
     </g>
     <g id="line2d_10"/>
     <g id="text_5">
      <!-- $\mathdefault{1.00}$ -->
      <g style="fill: #262626" transform="translate(458.780774 537.838907) scale(0.14 -0.14)">
       <defs>
        <path id="CMR17-31" d="M 1702 4058 
C 1702 4192 1696 4192 1606 4192 
C 1357 3916 979 3827 621 3827 
C 602 3827 570 3827 563 3808 
C 557 3795 557 3782 557 3648 
C 755 3648 1088 3686 1344 3839 
L 1344 461 
C 1344 236 1331 160 781 160 
L 589 160 
L 589 0 
C 896 0 1216 0 1523 0 
C 1830 0 2150 0 2458 0 
L 2458 160 
L 2266 160 
C 1715 160 1702 230 1702 458 
L 1702 4058 
z
" transform="scale(0.015625)"/>
       </defs>
       <use xlink:href="#CMR17-31" transform="scale(0.996264)"/>
       <use xlink:href="#CMMI12-3a" transform="translate(45.690477 0) scale(0.996264)"/>
       <use xlink:href="#CMR17-30" transform="translate(72.787654 0) scale(0.996264)"/>
       <use xlink:href="#CMR17-30" transform="translate(118.478131 0) scale(0.996264)"/>
      </g>
     </g>
    </g>
    <g id="xtick_6">
     <g id="line2d_11">
      <path d="M 576.510619 521.153031 
L 576.510619 51.564121 
" clip-path="url(#p56f3eb5ce6)" style="fill: none; stroke: #ffffff; stroke-linecap: round"/>
     </g>
     <g id="line2d_12"/>
     <g id="text_6">
      <!-- $\mathdefault{1.25}$ -->
      <g style="fill: #262626" transform="translate(564.371084 537.838907) scale(0.14 -0.14)">
       <use xlink:href="#CMR17-31" transform="scale(0.996264)"/>
       <use xlink:href="#CMMI12-3a" transform="translate(45.690477 0) scale(0.996264)"/>
       <use xlink:href="#CMR17-32" transform="translate(72.787654 0) scale(0.996264)"/>
       <use xlink:href="#CMR17-35" transform="translate(118.478131 0) scale(0.996264)"/>
      </g>
     </g>
    </g>
    <g id="xtick_7">
     <g id="line2d_13">
      <path d="M 682.100929 521.153031 
L 682.100929 51.564121 
" clip-path="url(#p56f3eb5ce6)" style="fill: none; stroke: #ffffff; stroke-linecap: round"/>
     </g>
     <g id="line2d_14"/>
     <g id="text_7">
      <!-- $\mathdefault{1.50}$ -->
      <g style="fill: #262626" transform="translate(669.961393 537.838907) scale(0.14 -0.14)">
       <use xlink:href="#CMR17-31" transform="scale(0.996264)"/>
       <use xlink:href="#CMMI12-3a" transform="translate(45.690477 0) scale(0.996264)"/>
       <use xlink:href="#CMR17-35" transform="translate(72.787654 0) scale(0.996264)"/>
       <use xlink:href="#CMR17-30" transform="translate(118.478131 0) scale(0.996264)"/>
      </g>
     </g>
    </g>
    <g id="xtick_8">
     <g id="line2d_15">
      <path d="M 787.691238 521.153031 
L 787.691238 51.564121 
" clip-path="url(#p56f3eb5ce6)" style="fill: none; stroke: #ffffff; stroke-linecap: round"/>
     </g>
     <g id="line2d_16"/>
     <g id="text_8">
      <!-- $\mathdefault{1.75}$ -->
      <g style="fill: #262626" transform="translate(775.551703 537.838907) scale(0.14 -0.14)">
       <use xlink:href="#CMR17-31" transform="scale(0.996264)"/>
       <use xlink:href="#CMMI12-3a" transform="translate(45.690477 0) scale(0.996264)"/>
       <use xlink:href="#CMR17-37" transform="translate(72.787654 0) scale(0.996264)"/>
       <use xlink:href="#CMR17-35" transform="translate(118.478131 0) scale(0.996264)"/>
      </g>
     </g>
    </g>
    <g id="xtick_9">
     <g id="line2d_17">
      <path d="M 893.281548 521.153031 
L 893.281548 51.564121 
" clip-path="url(#p56f3eb5ce6)" style="fill: none; stroke: #ffffff; stroke-linecap: round"/>
     </g>
     <g id="line2d_18"/>
     <g id="text_9">
      <!-- $\mathdefault{2.00}$ -->
      <g style="fill: #262626" transform="translate(881.142013 537.838907) scale(0.14 -0.14)">
       <use xlink:href="#CMR17-32" transform="scale(0.996264)"/>
       <use xlink:href="#CMMI12-3a" transform="translate(45.690477 0) scale(0.996264)"/>
       <use xlink:href="#CMR17-30" transform="translate(72.787654 0) scale(0.996264)"/>
       <use xlink:href="#CMR17-30" transform="translate(118.478131 0) scale(0.996264)"/>
      </g>
     </g>
    </g>
    <g id="text_10">
     <!-- $x$ -->
     <g style="fill: #262626" transform="translate(487.603646 555.620524) scale(0.16 -0.16)">
      <defs>
       <path id="CMMI12-78" d="M 3034 2606 
C 2829 2567 2752 2414 2752 2293 
C 2752 2139 2874 2088 2963 2088 
C 3155 2088 3290 2254 3290 2427 
C 3290 2695 2982 2816 2714 2816 
C 2323 2816 2106 2433 2048 2312 
C 1901 2816 1504 2816 1389 2816 
C 736 2816 390 1980 390 1839 
C 390 1814 416 1782 461 1782 
C 512 1782 525 1820 538 1846 
C 755 2555 1184 2689 1370 2689 
C 1658 2689 1715 2420 1715 2267 
C 1715 2127 1677 1980 1600 1673 
L 1382 798 
C 1286 415 1101 64 762 64 
C 730 64 570 64 435 147 
C 666 192 717 383 717 460 
C 717 588 621 664 499 664 
C 346 664 179 530 179 326 
C 179 57 480 -64 755 -64 
C 1062 -64 1280 179 1414 441 
C 1517 64 1837 -64 2074 -64 
C 2726 -64 3072 773 3072 913 
C 3072 945 3046 971 3008 971 
C 2950 971 2944 939 2925 888 
C 2752 326 2381 64 2093 64 
C 1869 64 1747 230 1747 492 
C 1747 632 1773 734 1875 1156 
L 2099 2024 
C 2195 2408 2413 2689 2707 2689 
C 2720 2689 2899 2689 3034 2606 
z
" transform="scale(0.015625)"/>
      </defs>
      <use xlink:href="#CMMI12-78" transform="scale(0.996264)"/>
     </g>
    </g>
   </g>
   <g id="matplotlib.axis_2">
    <g id="ytick_1">
     <g id="line2d_19">
      <path d="M 48.559071 521.153031 
L 935.517672 521.153031 
" clip-path="url(#p56f3eb5ce6)" style="fill: none; stroke: #ffffff; stroke-linecap: round"/>
     </g>
     <g id="line2d_20"/>
     <g id="text_11">
      <!-- $\mathdefault{0.00}$ -->
      <g style="fill: #262626" transform="translate(17.28 525.995969) scale(0.14 -0.14)">
       <use xlink:href="#CMR17-30" transform="scale(0.996264)"/>
       <use xlink:href="#CMMI12-3a" transform="translate(45.690477 0) scale(0.996264)"/>
       <use xlink:href="#CMR17-30" transform="translate(72.787654 0) scale(0.996264)"/>
       <use xlink:href="#CMR17-30" transform="translate(118.478131 0) scale(0.996264)"/>
      </g>
     </g>
    </g>
    <g id="ytick_2">
     <g id="line2d_21">
      <path d="M 48.559071 465.270071 
L 935.517672 465.270071 
" clip-path="url(#p56f3eb5ce6)" style="fill: none; stroke: #ffffff; stroke-linecap: round"/>
     </g>
     <g id="line2d_22"/>
     <g id="text_12">
      <!-- $\mathdefault{0.25}$ -->
      <g style="fill: #262626" transform="translate(17.28 470.113009) scale(0.14 -0.14)">
       <use xlink:href="#CMR17-30" transform="scale(0.996264)"/>
       <use xlink:href="#CMMI12-3a" transform="translate(45.690477 0) scale(0.996264)"/>
       <use xlink:href="#CMR17-32" transform="translate(72.787654 0) scale(0.996264)"/>
       <use xlink:href="#CMR17-35" transform="translate(118.478131 0) scale(0.996264)"/>
      </g>
     </g>
    </g>
    <g id="ytick_3">
     <g id="line2d_23">
      <path d="M 48.559071 409.387112 
L 935.517672 409.387112 
" clip-path="url(#p56f3eb5ce6)" style="fill: none; stroke: #ffffff; stroke-linecap: round"/>
     </g>
     <g id="line2d_24"/>
     <g id="text_13">
      <!-- $\mathdefault{0.50}$ -->
      <g style="fill: #262626" transform="translate(17.28 414.23005) scale(0.14 -0.14)">
       <use xlink:href="#CMR17-30" transform="scale(0.996264)"/>
       <use xlink:href="#CMMI12-3a" transform="translate(45.690477 0) scale(0.996264)"/>
       <use xlink:href="#CMR17-35" transform="translate(72.787654 0) scale(0.996264)"/>
       <use xlink:href="#CMR17-30" transform="translate(118.478131 0) scale(0.996264)"/>
      </g>
     </g>
    </g>
    <g id="ytick_4">
     <g id="line2d_25">
      <path d="M 48.559071 353.504152 
L 935.517672 353.504152 
" clip-path="url(#p56f3eb5ce6)" style="fill: none; stroke: #ffffff; stroke-linecap: round"/>
     </g>
     <g id="line2d_26"/>
     <g id="text_14">
      <!-- $\mathdefault{0.75}$ -->
      <g style="fill: #262626" transform="translate(17.28 358.34709) scale(0.14 -0.14)">
       <use xlink:href="#CMR17-30" transform="scale(0.996264)"/>
       <use xlink:href="#CMMI12-3a" transform="translate(45.690477 0) scale(0.996264)"/>
       <use xlink:href="#CMR17-37" transform="translate(72.787654 0) scale(0.996264)"/>
       <use xlink:href="#CMR17-35" transform="translate(118.478131 0) scale(0.996264)"/>
      </g>
     </g>
    </g>
    <g id="ytick_5">
     <g id="line2d_27">
      <path d="M 48.559071 297.621193 
L 935.517672 297.621193 
" clip-path="url(#p56f3eb5ce6)" style="fill: none; stroke: #ffffff; stroke-linecap: round"/>
     </g>
     <g id="line2d_28"/>
     <g id="text_15">
      <!-- $\mathdefault{1.00}$ -->
      <g style="fill: #262626" transform="translate(17.28 302.464131) scale(0.14 -0.14)">
       <use xlink:href="#CMR17-31" transform="scale(0.996264)"/>
       <use xlink:href="#CMMI12-3a" transform="translate(45.690477 0) scale(0.996264)"/>
       <use xlink:href="#CMR17-30" transform="translate(72.787654 0) scale(0.996264)"/>
       <use xlink:href="#CMR17-30" transform="translate(118.478131 0) scale(0.996264)"/>
      </g>
     </g>
    </g>
    <g id="ytick_6">
     <g id="line2d_29">
      <path d="M 48.559071 241.738233 
L 935.517672 241.738233 
" clip-path="url(#p56f3eb5ce6)" style="fill: none; stroke: #ffffff; stroke-linecap: round"/>
     </g>
     <g id="line2d_30"/>
     <g id="text_16">
      <!-- $\mathdefault{1.25}$ -->
      <g style="fill: #262626" transform="translate(17.28 246.581171) scale(0.14 -0.14)">
       <use xlink:href="#CMR17-31" transform="scale(0.996264)"/>
       <use xlink:href="#CMMI12-3a" transform="translate(45.690477 0) scale(0.996264)"/>
       <use xlink:href="#CMR17-32" transform="translate(72.787654 0) scale(0.996264)"/>
       <use xlink:href="#CMR17-35" transform="translate(118.478131 0) scale(0.996264)"/>
      </g>
     </g>
    </g>
    <g id="ytick_7">
     <g id="line2d_31">
      <path d="M 48.559071 185.855274 
L 935.517672 185.855274 
" clip-path="url(#p56f3eb5ce6)" style="fill: none; stroke: #ffffff; stroke-linecap: round"/>
     </g>
     <g id="line2d_32"/>
     <g id="text_17">
      <!-- $\mathdefault{1.50}$ -->
      <g style="fill: #262626" transform="translate(17.28 190.698212) scale(0.14 -0.14)">
       <use xlink:href="#CMR17-31" transform="scale(0.996264)"/>
       <use xlink:href="#CMMI12-3a" transform="translate(45.690477 0) scale(0.996264)"/>
       <use xlink:href="#CMR17-35" transform="translate(72.787654 0) scale(0.996264)"/>
       <use xlink:href="#CMR17-30" transform="translate(118.478131 0) scale(0.996264)"/>
      </g>
     </g>
    </g>
    <g id="ytick_8">
     <g id="line2d_33">
      <path d="M 48.559071 129.972314 
L 935.517672 129.972314 
" clip-path="url(#p56f3eb5ce6)" style="fill: none; stroke: #ffffff; stroke-linecap: round"/>
     </g>
     <g id="line2d_34"/>
     <g id="text_18">
      <!-- $\mathdefault{1.75}$ -->
      <g style="fill: #262626" transform="translate(17.28 134.815252) scale(0.14 -0.14)">
       <use xlink:href="#CMR17-31" transform="scale(0.996264)"/>
       <use xlink:href="#CMMI12-3a" transform="translate(45.690477 0) scale(0.996264)"/>
       <use xlink:href="#CMR17-37" transform="translate(72.787654 0) scale(0.996264)"/>
       <use xlink:href="#CMR17-35" transform="translate(118.478131 0) scale(0.996264)"/>
      </g>
     </g>
    </g>
    <g id="ytick_9">
     <g id="line2d_35">
      <path d="M 48.559071 74.089355 
L 935.517672 74.089355 
" clip-path="url(#p56f3eb5ce6)" style="fill: none; stroke: #ffffff; stroke-linecap: round"/>
     </g>
     <g id="line2d_36"/>
     <g id="text_19">
      <!-- $\mathdefault{2.00}$ -->
      <g style="fill: #262626" transform="translate(17.28 78.932293) scale(0.14 -0.14)">
       <use xlink:href="#CMR17-32" transform="scale(0.996264)"/>
       <use xlink:href="#CMMI12-3a" transform="translate(45.690477 0) scale(0.996264)"/>
       <use xlink:href="#CMR17-30" transform="translate(72.787654 0) scale(0.996264)"/>
       <use xlink:href="#CMR17-30" transform="translate(118.478131 0) scale(0.996264)"/>
      </g>
     </g>
    </g>
   </g>
   <g id="line2d_37">
    <path d="M 48.559071 74.089355 
L 57.006295 74.089355 
L 65.45352 74.089355 
L 73.900745 74.089355 
L 82.34797 74.089355 
L 90.795195 74.089355 
L 99.242419 74.089355 
L 107.689644 74.089355 
L 116.136869 74.089355 
L 124.584094 74.089355 
L 133.031318 74.089355 
L 141.478543 74.089355 
L 149.925768 74.089355 
L 158.372993 74.089355 
L 166.820217 74.089355 
L 175.267442 74.089355 
L 183.714667 74.089355 
L 192.161892 74.089355 
L 200.609117 74.089355 
L 209.056341 74.089355 
L 217.503566 74.089355 
L 225.950791 74.089355 
L 234.398016 74.089355 
L 242.84524 74.089355 
L 251.292465 74.089355 
L 259.73969 74.089355 
L 268.186915 74.089355 
L 276.63414 74.089355 
L 285.081364 74.089355 
L 293.528589 74.089355 
L 301.975814 74.089355 
L 310.423039 74.089355 
L 318.870263 74.089355 
L 327.317488 74.089355 
L 335.764713 74.089355 
L 344.211938 74.089355 
L 352.659162 74.089355 
L 361.106387 74.089355 
L 369.553612 74.089355 
L 378.000837 74.089355 
L 386.448062 74.089355 
L 394.895286 74.089355 
L 403.342511 74.089355 
L 411.789736 74.089355 
L 420.236961 74.089355 
L 428.684185 74.089355 
L 437.13141 74.089355 
L 445.578635 74.089355 
L 454.02586 74.089355 
L 462.473085 74.089355 
L 470.920309 74.089355 
L 479.367534 74.089355 
L 487.814759 74.089355 
L 496.261984 74.089355 
L 504.709208 74.089355 
L 513.156433 74.089355 
L 521.603658 74.089355 
L 530.050883 74.089355 
L 538.498107 74.089355 
L 546.945332 74.089355 
L 555.392557 74.089355 
L 563.839782 74.089355 
L 572.287007 74.089355 
L 580.734231 74.089355 
L 589.181456 74.089355 
L 597.628681 74.089355 
L 606.075906 74.089355 
L 614.52313 74.089355 
L 622.970355 74.089355 
L 631.41758 74.089355 
L 639.864805 74.089355 
L 648.31203 74.089355 
L 656.759254 74.089355 
L 665.206479 74.089355 
L 673.653704 74.089355 
L 682.100929 74.089355 
L 690.548153 74.089355 
L 698.995378 74.089355 
L 707.442603 74.089355 
L 715.889828 74.089355 
L 724.337052 74.089355 
L 732.784277 74.089355 
L 741.231502 74.089355 
L 749.678727 74.089355 
L 758.125952 74.089355 
L 766.573176 74.089355 
L 775.020401 74.089355 
L 783.467626 74.089355 
L 791.914851 74.089355 
L 800.362075 74.089355 
L 808.8093 74.089355 
L 817.256525 74.089355 
L 825.70375 74.089355 
L 834.150975 74.089355 
L 842.598199 74.089355 
L 851.045424 74.089355 
L 859.492649 74.089355 
L 867.939874 74.089355 
L 876.387098 74.089355 
L 884.834323 74.089355 
L 893.281548 74.089355 
" clip-path="url(#p56f3eb5ce6)" style="fill: none; stroke: #393b79; stroke-width: 2; stroke-linecap: round"/>
   </g>
   <g id="line2d_38">
    <path d="M 48.559071 163.245083 
L 57.006295 162.784402 
L 65.45352 162.326856 
L 73.900745 161.872443 
L 82.34797 161.421098 
L 90.795195 160.967926 
L 99.242419 160.508604 
L 107.689644 160.05234 
L 116.136869 159.599112 
L 124.584094 159.148923 
L 133.031318 158.701775 
L 141.478543 158.257618 
L 149.925768 157.816411 
L 158.372993 157.378128 
L 166.820217 156.942759 
L 175.267442 156.510295 
L 183.714667 156.080719 
L 192.161892 155.653989 
L 200.609117 155.230089 
L 209.056341 154.808991 
L 217.503566 154.390676 
L 225.950791 153.97513 
L 234.398016 153.560219 
L 242.84524 153.137147 
L 251.292465 152.716854 
L 259.73969 152.299329 
L 268.186915 151.884549 
L 276.63414 151.472487 
L 285.081364 151.063131 
L 293.528589 150.656459 
L 301.975814 150.252441 
L 310.423039 149.851073 
L 318.870263 149.452346 
L 327.317488 149.05621 
L 335.764713 148.662654 
L 344.211938 148.271674 
L 352.659162 147.883235 
L 361.106387 147.497323 
L 369.553612 147.113927 
L 378.000837 146.733012 
L 386.448062 146.354577 
L 394.895286 145.978597 
L 403.342511 145.595787 
L 411.789736 145.212756 
L 420.236961 144.832199 
L 428.684185 144.454105 
L 437.13141 144.078448 
L 445.578635 143.705205 
L 454.02586 143.33436 
L 462.473085 142.965909 
L 470.920309 142.599842 
L 479.367534 142.23613 
L 487.814759 141.874744 
L 496.261984 141.51567 
L 504.709208 141.15889 
L 513.156433 140.804386 
L 521.603658 140.452148 
L 530.050883 140.102193 
L 538.498107 139.754491 
L 546.945332 139.409005 
L 555.392557 139.065718 
L 563.839782 138.72461 
L 572.287007 138.385675 
L 580.734231 138.048901 
L 589.181456 137.707922 
L 597.628681 137.364637 
L 606.075906 137.023526 
L 614.52313 136.684578 
L 622.970355 136.347778 
L 631.41758 136.013105 
L 639.864805 135.680558 
L 648.31203 135.350116 
L 656.759254 135.021757 
L 665.206479 134.695475 
L 673.653704 134.371248 
L 682.100929 134.049064 
L 690.548153 133.728918 
L 698.995378 133.410796 
L 707.442603 133.094668 
L 715.889828 132.780522 
L 724.337052 132.468355 
L 732.784277 132.158144 
L 741.231502 131.849885 
L 749.678727 131.543563 
L 758.125952 131.239155 
L 766.573176 130.936653 
L 775.020401 130.636045 
L 783.467626 130.33732 
L 791.914851 130.040467 
L 800.362075 129.745467 
L 808.8093 129.445251 
L 817.256525 129.144355 
L 825.70375 128.845335 
L 834.150975 128.548178 
L 842.598199 128.252888 
L 851.045424 127.95943 
L 859.492649 127.667791 
L 867.939874 127.377959 
L 876.387098 127.089922 
L 884.834323 126.803667 
L 893.281548 126.519187 
" clip-path="url(#p56f3eb5ce6)" style="fill: none; stroke: #6b6ecf; stroke-width: 2; stroke-linecap: round"/>
   </g>
   <g id="line2d_39">
    <path d="M 48.559071 356.720112 
L 57.006295 355.625499 
L 65.45352 354.542246 
L 73.900745 353.450257 
L 82.34797 352.370951 
L 90.795195 351.283474 
L 99.242419 350.206242 
L 107.689644 349.125433 
L 116.136869 348.049941 
L 124.584094 346.976674 
L 133.031318 345.902632 
L 141.478543 344.838096 
L 149.925768 343.765084 
L 158.372993 342.703906 
L 166.820217 341.637787 
L 175.267442 340.577128 
L 183.714667 339.521659 
L 192.161892 338.461167 
L 200.609117 337.412263 
L 209.056341 336.357075 
L 217.503566 335.307695 
L 225.950791 334.265682 
L 234.398016 333.215686 
L 242.84524 332.176815 
L 251.292465 331.137288 
L 259.73969 330.097412 
L 268.186915 329.068323 
L 276.63414 328.032267 
L 285.081364 327.001657 
L 293.528589 325.981897 
L 301.975814 324.950537 
L 310.423039 323.928646 
L 318.870263 322.916352 
L 327.317488 321.892209 
L 335.764713 320.878452 
L 344.211938 319.873861 
L 352.659162 318.857461 
L 361.106387 317.851283 
L 369.553612 316.855145 
L 378.000837 315.84667 
L 386.448062 314.847543 
L 394.895286 313.858374 
L 403.342511 312.860851 
L 411.789736 311.867871 
L 420.236961 310.884949 
L 428.684185 309.90035 
L 437.13141 308.913202 
L 445.578635 307.935683 
L 454.02586 306.966165 
L 462.473085 305.984596 
L 470.920309 305.012204 
L 479.367534 304.049188 
L 487.814759 303.082641 
L 496.261984 302.115083 
L 504.709208 301.156533 
L 513.156433 300.207118 
L 521.603658 299.245792 
L 530.050883 298.291558 
L 538.498107 297.346102 
L 546.945332 296.405893 
L 555.392557 295.455221 
L 563.839782 294.513403 
L 572.287007 293.580065 
L 580.734231 292.649887 
L 589.181456 291.711103 
L 597.628681 290.7807 
L 606.075906 289.858765 
L 614.52313 288.94107 
L 622.970355 288.013246 
L 631.41758 287.093756 
L 639.864805 286.182485 
L 648.31203 285.27947 
L 656.759254 284.362308 
L 665.206479 283.452992 
L 673.653704 282.551762 
L 682.100929 281.658527 
L 690.548153 280.759467 
L 698.995378 279.859613 
L 707.442603 278.967628 
L 715.889828 278.0834 
L 724.337052 277.205566 
L 732.784277 276.314479 
L 741.231502 275.431189 
L 749.678727 274.555493 
L 758.125952 273.687345 
L 766.573176 272.819529 
L 775.020401 271.944197 
L 783.467626 271.076343 
L 791.914851 270.215926 
L 800.362075 269.362849 
L 808.8093 268.5086 
L 817.256525 267.647972 
L 825.70375 266.794582 
L 834.150975 265.948467 
L 842.598199 265.10949 
L 851.045424 264.272699 
L 859.492649 263.425963 
L 867.939874 262.586244 
L 876.387098 261.753504 
L 884.834323 260.927643 
L 893.281548 260.10866 
" clip-path="url(#p56f3eb5ce6)" style="fill: none; stroke: #637939; stroke-width: 2; stroke-linecap: round"/>
   </g>
   <g id="line2d_40">
    <path d="M 48.559071 448.241935 
L 57.006295 447.151825 
L 65.45352 446.059223 
L 73.900745 444.964998 
L 82.34797 443.866947 
L 90.795195 442.768433 
L 99.242419 441.665775 
L 107.689644 440.562395 
L 116.136869 439.456495 
L 124.584094 438.348395 
L 133.031318 437.240064 
L 141.478543 436.127566 
L 149.925768 435.014417 
L 158.372993 433.900774 
L 166.820217 432.784179 
L 175.267442 431.665897 
L 183.714667 430.547028 
L 192.161892 429.427494 
L 200.609117 428.307019 
L 209.056341 427.18342 
L 217.503566 426.059234 
L 225.950791 424.93438 
L 234.398016 423.808928 
L 242.84524 422.682509 
L 251.292465 421.555735 
L 259.73969 420.428062 
L 268.186915 419.299744 
L 276.63414 418.170785 
L 285.081364 417.041203 
L 293.528589 415.9112 
L 301.975814 414.780661 
L 310.423039 413.649701 
L 318.870263 412.518618 
L 327.317488 411.387391 
L 335.764713 410.256021 
L 344.211938 409.12493 
L 352.659162 407.994058 
L 361.106387 406.863798 
L 369.553612 405.733128 
L 378.000837 404.600987 
L 386.448062 403.469125 
L 394.895286 402.338483 
L 403.342511 401.208722 
L 411.789736 400.08066 
L 420.236961 398.950338 
L 428.684185 397.820065 
L 437.13141 396.691554 
L 445.578635 395.564951 
L 454.02586 394.438278 
L 462.473085 393.309961 
L 470.920309 392.183968 
L 479.367534 391.061628 
L 487.814759 389.935219 
L 496.261984 388.810783 
L 504.709208 387.690355 
L 513.156433 386.567772 
L 521.603658 385.445926 
L 530.050883 384.328861 
L 538.498107 383.208834 
L 546.945332 382.090422 
L 555.392557 380.977867 
L 563.839782 379.859193 
L 572.287007 378.745955 
L 580.734231 377.634647 
L 589.181456 376.521164 
L 597.628681 375.414795 
L 606.075906 374.302692 
L 614.52313 373.196901 
L 622.970355 372.091011 
L 631.41758 370.985681 
L 639.864805 369.885445 
L 648.31203 368.781194 
L 656.759254 367.686246 
L 665.206479 366.583429 
L 673.653704 365.491406 
L 682.100929 364.392457 
L 690.548153 363.303099 
L 698.995378 362.208221 
L 707.442603 361.12222 
L 715.889828 360.03091 
L 724.337052 358.948742 
L 732.784277 357.860813 
L 741.231502 356.783359 
L 749.678727 355.698296 
L 758.125952 354.625656 
L 766.573176 353.543483 
L 775.020401 352.473251 
L 783.467626 351.397056 
L 791.914851 350.328607 
L 800.362075 349.259349 
L 808.8093 348.192582 
L 817.256525 347.131003 
L 825.70375 346.065253 
L 834.150975 345.0114 
L 842.598199 343.947918 
L 851.045424 342.894719 
L 859.492649 341.84076 
L 867.939874 340.787979 
L 876.387098 339.744814 
L 884.834323 338.692119 
L 893.281548 337.65058 
" clip-path="url(#p56f3eb5ce6)" style="fill: none; stroke: #b5cf6b; stroke-width: 2; stroke-linecap: round"/>
   </g>
   <g id="line2d_41">
    <path d="M 48.559071 511.091042 
L 57.006295 510.512274 
L 65.45352 509.920376 
L 73.900745 509.31545 
L 82.34797 508.697816 
L 90.795195 508.067705 
L 99.242419 507.425198 
L 107.689644 506.770637 
L 116.136869 506.104281 
L 124.584094 505.426151 
L 133.031318 504.736607 
L 141.478543 504.035862 
L 149.925768 503.324 
L 158.372993 502.601333 
L 166.820217 501.867925 
L 175.267442 501.12409 
L 183.714667 500.370063 
L 192.161892 499.605825 
L 200.609117 498.831822 
L 209.056341 498.048085 
L 217.503566 497.254673 
L 225.950791 496.45214 
L 234.398016 495.640421 
L 242.84524 494.819446 
L 251.292465 493.989924 
L 259.73969 493.15172 
L 268.186915 492.305122 
L 276.63414 491.45007 
L 285.081364 490.586951 
L 293.528589 489.715718 
L 301.975814 488.836797 
L 310.423039 487.950134 
L 318.870263 487.056217 
L 327.317488 486.154861 
L 335.764713 485.246186 
L 344.211938 484.330667 
L 352.659162 483.408027 
L 361.106387 482.478679 
L 369.553612 481.542886 
L 378.000837 480.600561 
L 386.448062 479.652174 
L 394.895286 478.697365 
L 403.342511 477.736388 
L 411.789736 476.769791 
L 420.236961 475.797365 
L 428.684185 474.81943 
L 437.13141 473.835906 
L 445.578635 472.847118 
L 454.02586 471.853318 
L 462.473085 470.853881 
L 470.920309 469.849908 
L 479.367534 468.84074 
L 487.814759 467.827479 
L 496.261984 466.808652 
L 504.709208 465.786193 
L 513.156433 464.758998 
L 521.603658 463.727374 
L 530.050883 462.691915 
L 538.498107 461.652471 
L 546.945332 460.609142 
L 555.392557 459.561988 
L 563.839782 458.511104 
L 572.287007 457.456469 
L 580.734231 456.39828 
L 589.181456 455.336829 
L 597.628681 454.271994 
L 606.075906 453.204224 
L 614.52313 452.134083 
L 622.970355 451.059756 
L 631.41758 449.982679 
L 639.864805 448.903671 
L 648.31203 447.821316 
L 656.759254 446.736225 
L 665.206479 445.649768 
L 673.653704 444.559265 
L 682.100929 443.468502 
L 690.548153 442.373134 
L 698.995378 441.277604 
L 707.442603 440.178707 
L 715.889828 439.078238 
L 724.337052 437.976875 
L 732.784277 436.871818 
L 741.231502 435.766419 
L 749.678727 434.660148 
L 758.125952 433.549992 
L 766.573176 432.439474 
L 775.020401 431.328218 
L 783.467626 430.216362 
L 791.914851 429.100848 
L 800.362075 427.984875 
L 808.8093 426.868144 
L 817.256525 425.750585 
L 825.70375 424.632231 
L 834.150975 423.513154 
L 842.598199 422.393554 
L 851.045424 421.27291 
L 859.492649 420.151464 
L 867.939874 419.029017 
L 876.387098 417.905975 
L 884.834323 416.782978 
L 893.281548 415.65928 
" clip-path="url(#p56f3eb5ce6)" style="fill: none; stroke: #8c6d31; stroke-width: 2; stroke-linecap: round"/>
   </g>
   <g id="line2d_42">
    <path d="M 48.559071 520.565411 
L 57.006295 520.399042 
L 65.45352 520.212977 
L 73.900745 520.007492 
L 82.34797 519.782885 
L 90.795195 519.539475 
L 99.242419 519.277506 
L 107.689644 518.997281 
L 116.136869 518.699123 
L 124.584094 518.383253 
L 133.031318 518.049976 
L 141.478543 517.699564 
L 149.925768 517.332289 
L 158.372993 516.948411 
L 166.820217 516.54819 
L 175.267442 516.131897 
L 183.714667 515.6998 
L 192.161892 515.252129 
L 200.609117 514.789203 
L 209.056341 514.311158 
L 217.503566 513.818299 
L 225.950791 513.310902 
L 234.398016 512.789214 
L 242.84524 512.253321 
L 251.292465 511.703707 
L 259.73969 511.140412 
L 268.186915 510.563741 
L 276.63414 509.973876 
L 285.081364 509.371105 
L 293.528589 508.75561 
L 301.975814 508.127596 
L 310.423039 507.487288 
L 318.870263 506.834904 
L 327.317488 506.170779 
L 335.764713 505.494846 
L 344.211938 504.807544 
L 352.659162 504.109018 
L 361.106387 503.399423 
L 369.553612 502.678922 
L 378.000837 501.947897 
L 386.448062 501.206314 
L 394.895286 500.454644 
L 403.342511 499.692658 
L 411.789736 498.920964 
L 420.236961 498.139511 
L 428.684185 497.348673 
L 437.13141 496.548316 
L 445.578635 495.73875 
L 454.02586 494.92055 
L 462.473085 494.093238 
L 470.920309 493.257316 
L 479.367534 492.412944 
L 487.814759 491.560404 
L 496.261984 490.699519 
L 504.709208 489.830879 
L 513.156433 488.954231 
L 521.603658 488.070202 
L 530.050883 487.178408 
L 538.498107 486.27934 
L 546.945332 485.373086 
L 555.392557 484.459823 
L 563.839782 483.539784 
L 572.287007 482.613172 
L 580.734231 481.67943 
L 589.181456 480.739899 
L 597.628681 479.793384 
L 606.075906 478.841026 
L 614.52313 477.882979 
L 622.970355 476.918706 
L 631.41758 475.948691 
L 639.864805 474.973111 
L 648.31203 473.991933 
L 656.759254 473.005205 
L 665.206479 472.013393 
L 673.653704 471.016991 
L 682.100929 470.015019 
L 690.548153 469.008464 
L 698.995378 467.997035 
L 707.442603 466.98143 
L 715.889828 465.960494 
L 724.337052 464.93591 
L 732.784277 463.90725 
L 741.231502 462.873596 
L 749.678727 461.836272 
L 758.125952 460.795008 
L 766.573176 459.750094 
L 775.020401 458.701386 
L 783.467626 457.649194 
L 791.914851 456.593383 
L 800.362075 455.534455 
L 808.8093 454.472396 
L 817.256525 453.407222 
L 825.70375 452.337834 
L 834.150975 451.26595 
L 842.598199 450.192128 
L 851.045424 449.114774 
L 859.492649 448.034245 
L 867.939874 446.952618 
L 876.387098 445.866543 
L 884.834323 444.779752 
L 893.281548 443.689482 
" clip-path="url(#p56f3eb5ce6)" style="fill: none; stroke: #e7cb94; stroke-width: 2; stroke-linecap: round"/>
   </g>
   <g id="line2d_43">
    <path d="M 48.559071 521.423477 
L 57.006295 521.170191 
L 65.45352 521.010291 
L 73.900745 520.904608 
L 82.34797 520.791287 
L 90.795195 520.657468 
L 99.242419 520.503436 
L 107.689644 520.329507 
L 116.136869 520.136008 
L 124.584094 519.9232 
L 133.031318 519.691396 
L 141.478543 519.440889 
L 149.925768 519.171966 
L 158.372993 518.88491 
L 166.820217 518.58 
L 175.267442 518.257518 
L 183.714667 517.917748 
L 192.161892 517.560947 
L 200.609117 517.187426 
L 209.056341 516.797384 
L 217.503566 516.391101 
L 225.950791 515.968888 
L 234.398016 515.530985 
L 242.84524 515.077549 
L 251.292465 514.609021 
L 259.73969 514.125488 
L 268.186915 513.62725 
L 276.63414 513.114544 
L 285.081364 512.587597 
L 293.528589 512.046707 
L 301.975814 511.492016 
L 310.423039 510.923788 
L 318.870263 510.342279 
L 327.317488 509.747775 
L 335.764713 509.140312 
L 344.211938 508.520284 
L 352.659162 507.887807 
L 361.106387 507.243177 
L 369.553612 506.586478 
L 378.000837 505.918169 
L 386.448062 505.238127 
L 394.895286 504.546865 
L 403.342511 503.84429 
L 411.789736 503.130883 
L 420.236961 502.40668 
L 428.684185 501.671931 
L 437.13141 500.926749 
L 445.578635 500.171372 
L 454.02586 499.406193 
L 462.473085 498.631087 
L 470.920309 497.846208 
L 479.367534 497.052044 
L 487.814759 496.248655 
L 496.261984 495.435994 
L 504.709208 494.61457 
L 513.156433 493.784388 
L 521.603658 492.945736 
L 530.050883 492.098545 
L 538.498107 491.243134 
L 546.945332 490.379722 
L 555.392557 489.508288 
L 563.839782 488.629185 
L 572.287007 487.742482 
L 580.734231 486.848521 
L 589.181456 485.947237 
L 597.628681 485.038694 
L 606.075906 484.123087 
L 614.52313 483.200717 
L 622.970355 482.271678 
L 631.41758 481.336318 
L 639.864805 480.394248 
L 648.31203 479.446101 
L 656.759254 478.492035 
L 665.206479 477.531804 
L 673.653704 476.565704 
L 682.100929 475.593994 
L 690.548153 474.616776 
L 698.995378 473.634039 
L 707.442603 472.64579 
L 715.889828 471.652355 
L 724.337052 470.654503 
L 732.784277 469.650893 
L 741.231502 468.643118 
L 749.678727 467.630208 
L 758.125952 466.613459 
L 766.573176 465.591293 
L 775.020401 464.565158 
L 783.467626 463.535265 
L 791.914851 462.501243 
L 800.362075 461.462682 
L 808.8093 460.420349 
L 817.256525 459.374309 
L 825.70375 458.324607 
L 834.150975 457.271507 
L 842.598199 456.215317 
L 851.045424 455.155632 
L 859.492649 454.091867 
L 867.939874 453.025212 
L 876.387098 451.955748 
L 884.834323 450.884298 
L 893.281548 449.808643 
" clip-path="url(#p56f3eb5ce6)" style="fill: none; stroke: #ad494a; stroke-width: 2; stroke-linecap: round"/>
   </g>
   <g id="line2d_44">
    <path d="M 48.559071 522.408429 
L 57.006295 521.789917 
L 65.45352 521.401159 
L 73.900745 521.156181 
L 82.34797 521.00145 
L 90.795195 520.89724 
L 99.242419 520.782467 
L 107.689644 520.647208 
L 116.136869 520.491791 
L 124.584094 520.316494 
L 133.031318 520.121632 
L 141.478543 519.907502 
L 149.925768 519.6744 
L 158.372993 519.422616 
L 166.820217 519.152436 
L 175.267442 518.864145 
L 183.714667 518.558037 
L 192.161892 518.23437 
L 200.609117 517.893464 
L 209.056341 517.535525 
L 217.503566 517.160839 
L 225.950791 516.769722 
L 234.398016 516.362418 
L 242.84524 515.939099 
L 251.292465 515.500191 
L 259.73969 515.045798 
L 268.186915 514.57624 
L 276.63414 514.091735 
L 285.081364 513.592543 
L 293.528589 513.078926 
L 301.975814 512.551092 
L 310.423039 512.009247 
L 318.870263 511.453688 
L 327.317488 510.884705 
L 335.764713 510.302349 
L 344.211938 509.706977 
L 352.659162 509.098743 
L 361.106387 508.477936 
L 369.553612 507.844617 
L 378.000837 507.199321 
L 386.448062 506.541926 
L 394.895286 505.872849 
L 403.342511 505.192168 
L 411.789736 504.500174 
L 420.236961 503.797001 
L 428.684185 503.082962 
L 437.13141 502.358067 
L 445.578635 501.622638 
L 454.02586 500.876998 
L 462.473085 500.12106 
L 470.920309 499.355064 
L 479.367534 498.579417 
L 487.814759 497.794246 
L 496.261984 496.999388 
L 504.709208 496.19544 
L 513.156433 495.382417 
L 521.603658 494.560451 
L 530.050883 493.72993 
L 538.498107 492.89058 
L 546.945332 492.042936 
L 555.392557 491.187098 
L 563.839782 490.323252 
L 572.287007 489.451617 
L 580.734231 488.571969 
L 589.181456 487.68517 
L 597.628681 486.79051 
L 606.075906 485.888624 
L 614.52313 484.979866 
L 622.970355 484.064067 
L 631.41758 483.14151 
L 639.864805 482.211961 
L 648.31203 481.276392 
L 656.759254 480.333916 
L 665.206479 479.385633 
L 673.653704 478.431189 
L 682.100929 477.470578 
L 690.548153 476.504201 
L 698.995378 475.532176 
L 707.442603 474.554759 
L 715.889828 473.571844 
L 724.337052 472.583568 
L 732.784277 471.589846 
L 741.231502 470.591485 
L 749.678727 469.588164 
L 758.125952 468.579816 
L 766.573176 467.567022 
L 775.020401 466.54976 
L 783.467626 465.527608 
L 791.914851 464.501501 
L 800.362075 463.471657 
L 808.8093 462.436955 
L 817.256525 461.398264 
L 825.70375 460.355757 
L 834.150975 459.309622 
L 842.598199 458.260091 
L 851.045424 457.206828 
L 859.492649 456.150205 
L 867.939874 455.090528 
L 876.387098 454.027195 
L 884.834323 452.960455 
L 893.281548 451.890818 
" clip-path="url(#p56f3eb5ce6)" style="fill: none; stroke: #e7969c; stroke-width: 2; stroke-linecap: round"/>
   </g>
   <g id="line2d_45">
    <path d="M 48.559071 523.482465 
L 57.006295 522.463526 
L 65.45352 521.824655 
L 73.900745 521.42305 
L 82.34797 521.170006 
L 90.795195 521.010212 
L 99.242419 520.904565 
L 107.689644 520.791258 
L 116.136869 520.657461 
L 124.584094 520.503461 
L 133.031318 520.329574 
L 141.478543 520.136102 
L 149.925768 519.923344 
L 158.372993 519.691593 
L 166.820217 519.441139 
L 175.267442 519.172271 
L 183.714667 518.885286 
L 192.161892 518.580448 
L 200.609117 518.258074 
L 209.056341 517.918378 
L 217.503566 517.561651 
L 225.950791 517.188208 
L 234.398016 516.798299 
L 242.84524 516.3921 
L 251.292465 515.970035 
L 259.73969 515.532216 
L 268.186915 515.078963 
L 276.63414 514.610505 
L 285.081364 514.127105 
L 293.528589 513.629008 
L 301.975814 513.116439 
L 310.423039 512.589613 
L 318.870263 512.048837 
L 327.317488 511.494377 
L 335.764713 510.926299 
L 344.211938 510.34497 
L 352.659162 509.750547 
L 361.106387 509.143295 
L 369.553612 508.523317 
L 378.000837 507.891121 
L 386.448062 507.246598 
L 394.895286 506.590228 
L 403.342511 505.92193 
L 411.789736 505.242169 
L 420.236961 504.55102 
L 428.684185 503.848726 
L 437.13141 503.135422 
L 445.578635 502.411355 
L 454.02586 501.676876 
L 462.473085 500.931947 
L 470.920309 500.176739 
L 479.367534 499.411686 
L 487.814759 498.636867 
L 496.261984 497.852149 
L 504.709208 497.058146 
L 513.156433 496.254889 
L 521.603658 495.442587 
L 530.050883 494.621454 
L 538.498107 493.791394 
L 546.945332 492.952924 
L 555.392557 492.105888 
L 563.839782 491.250752 
L 572.287007 490.387604 
L 580.734231 489.516357 
L 589.181456 488.637554 
L 597.628681 487.75101 
L 606.075906 486.857174 
L 614.52313 485.956207 
L 622.970355 485.047874 
L 631.41758 484.13252 
L 639.864805 483.210252 
L 648.31203 482.281559 
L 656.759254 481.346313 
L 665.206479 480.404534 
L 673.653704 479.456606 
L 682.100929 478.502811 
L 690.548153 477.542931 
L 698.995378 476.576976 
L 707.442603 475.60554 
L 715.889828 474.628454 
L 724.337052 473.645869 
L 732.784277 472.6578 
L 741.231502 471.664729 
L 749.678727 470.667229 
L 758.125952 469.663699 
L 766.573176 468.656305 
L 775.020401 467.643431 
L 783.467626 466.626974 
L 791.914851 465.605025 
L 800.362075 464.579197 
L 808.8093 463.549451 
L 817.256525 462.515747 
L 825.70375 461.477341 
L 834.150975 460.435175 
L 842.598199 459.389567 
L 851.045424 458.340147 
L 859.492649 457.287248 
L 867.939874 456.231134 
L 876.387098 455.171425 
L 884.834323 454.108173 
L 893.281548 453.041751 
" clip-path="url(#p56f3eb5ce6)" style="fill: none; stroke: #a55194; stroke-width: 2; stroke-linecap: round"/>
   </g>
   <g id="line2d_46">
    <path d="M 48.559071 524.594029 
L 57.006295 523.159262 
L 65.45352 522.261183 
L 73.900745 521.69758 
L 82.34797 521.343058 
L 90.795195 521.119551 
L 99.242419 520.978292 
L 107.689644 520.876097 
L 116.136869 520.757258 
L 124.584094 520.617993 
L 133.031318 520.458619 
L 141.478543 520.279441 
L 149.925768 520.08076 
L 158.372993 519.862873 
L 166.820217 519.626071 
L 175.267442 519.370646 
L 183.714667 519.096896 
L 192.161892 518.805088 
L 200.609117 518.495543 
L 209.056341 518.168478 
L 217.503566 517.824183 
L 225.950791 517.462978 
L 234.398016 517.08511 
L 242.84524 516.690764 
L 251.292465 516.280366 
L 259.73969 515.854026 
L 268.186915 515.412067 
L 276.63414 514.954721 
L 285.081364 514.482244 
L 293.528589 513.994906 
L 301.975814 513.492916 
L 310.423039 512.976499 
L 318.870263 512.445955 
L 327.317488 511.901552 
L 335.764713 511.34336 
L 344.211938 510.771755 
L 352.659162 510.186916 
L 361.106387 509.589093 
L 369.553612 508.978365 
L 378.000837 508.355247 
L 386.448062 507.719652 
L 394.895286 507.072014 
L 403.342511 506.412386 
L 411.789736 505.741078 
L 420.236961 505.058265 
L 428.684185 504.364155 
L 437.13141 503.658937 
L 445.578635 502.942701 
L 454.02586 502.215966 
L 462.473085 501.478626 
L 470.920309 500.730877 
L 479.367534 499.97315 
L 487.814759 499.205571 
L 496.261984 498.42794 
L 504.709208 497.640793 
L 513.156433 496.84445 
L 521.603658 496.038865 
L 530.050883 495.224191 
L 538.498107 494.40051 
L 546.945332 493.568293 
L 555.392557 492.72743 
L 563.839782 491.878345 
L 572.287007 491.021025 
L 580.734231 490.155726 
L 589.181456 489.282774 
L 597.628681 488.401662 
L 606.075906 487.51324 
L 614.52313 486.617696 
L 622.970355 485.71452 
L 631.41758 484.804468 
L 639.864805 483.887305 
L 648.31203 482.963327 
L 656.759254 482.032896 
L 665.206479 481.095882 
L 673.653704 480.15269 
L 682.100929 479.203044 
L 690.548153 478.247517 
L 698.995378 477.286117 
L 707.442603 476.318974 
L 715.889828 475.345856 
L 724.337052 474.367236 
L 732.784277 473.383187 
L 741.231502 472.393953 
L 749.678727 471.400049 
L 758.125952 470.40039 
L 766.573176 469.396225 
L 775.020401 468.387221 
L 783.467626 467.373693 
L 791.914851 466.355223 
L 800.362075 465.333119 
L 808.8093 464.306132 
L 817.256525 463.274775 
L 825.70375 462.239515 
L 834.150975 461.200477 
L 842.598199 460.157821 
L 851.045424 459.11115 
L 859.492649 458.060755 
L 867.939874 457.00686 
L 876.387098 455.949396 
L 884.834323 454.889002 
L 893.281548 453.825416 
" clip-path="url(#p56f3eb5ce6)" style="fill: none; stroke: #de9ed6; stroke-width: 2; stroke-linecap: round"/>
   </g>
   <g id="patch_3">
    <path d="M 48.559071 521.153031 
L 48.559071 51.564121 
" style="fill: none"/>
   </g>
   <g id="patch_4">
    <path d="M 935.517672 521.153031 
L 935.517672 51.564121 
" style="fill: none"/>
   </g>
   <g id="patch_5">
    <path d="M 48.559071 521.153031 
L 935.517672 521.153031 
" style="fill: none"/>
   </g>
   <g id="patch_6">
    <path d="M 48.559071 51.564121 
L 935.517672 51.564121 
" style="fill: none"/>
   </g>
   <g id="patch_7">
    <path d="M 470.920309 80.560101 
Q 470.920309 286.290962 470.920309 490.344772 
" style="fill: none; stroke: #000000; stroke-width: 1.5; stroke-linecap: round"/>
    <path d="M 474.120309 483.944772 
L 470.920309 490.344772 
L 467.720309 483.944772 
" style="fill: none; stroke: #000000; stroke-width: 1.5; stroke-linecap: round"/>
   </g>
   <g id="text_20">
    <!-- Time -->
    <g style="fill: #262626" transform="translate(492.038371 490.536858) scale(0.18 -0.18)">
     <defs>
      <path id="CMR17-54" d="M 3981 4326 
L 288 4326 
L 179 2918 
L 294 2918 
C 378 3976 467 4160 1453 4160 
C 1568 4160 1754 4160 1805 4154 
C 1926 4135 1926 4058 1926 3912 
L 1926 459 
C 1926 230 1907 160 1376 160 
L 1197 160 
L 1197 0 
C 1504 0 1824 0 2138 0 
C 2451 0 2771 0 3078 0 
L 3078 160 
L 2899 160 
C 2368 160 2349 230 2349 459 
L 2349 3912 
C 2349 4052 2349 4129 2464 4154 
C 2515 4160 2701 4160 2816 4160 
C 3795 4160 3891 3976 3974 2918 
L 4090 2918 
L 3981 4326 
z
" transform="scale(0.015625)"/>
      <path id="CMR17-69" d="M 992 3909 
C 992 4049 877 4170 730 4170 
C 589 4170 467 4056 467 3909 
C 467 3769 582 3648 730 3648 
C 870 3648 992 3763 992 3909 
z
M 243 2706 
L 243 2541 
C 602 2541 653 2502 653 2197 
L 653 427 
C 653 184 627 153 218 153 
L 218 -13 
C 371 0 646 0 806 0 
C 960 0 1222 0 1370 -13 
L 1370 153 
C 992 153 979 191 979 420 
L 979 2776 
L 243 2706 
z
" transform="scale(0.015625)"/>
      <path id="CMR17-6d" d="M 4326 1933 
C 4326 2252 4269 2790 3507 2790 
C 3072 2790 2771 2496 2656 2151 
L 2650 2151 
C 2573 2676 2195 2790 1837 2790 
C 1331 2790 1069 2400 973 2144 
L 966 2144 
L 966 2790 
L 211 2720 
L 211 2554 
C 589 2554 646 2515 646 2208 
L 646 428 
C 646 184 621 153 211 153 
L 211 -13 
C 365 0 646 0 813 0 
C 979 0 1267 0 1421 -13 
L 1421 153 
C 1011 153 986 178 986 428 
L 986 1658 
C 986 2247 1344 2688 1792 2688 
C 2266 2688 2317 2266 2317 1958 
L 2317 428 
C 2317 184 2291 153 1882 153 
L 1882 -13 
C 2035 0 2317 0 2483 0 
C 2650 0 2938 0 3091 -13 
L 3091 153 
C 2682 153 2656 178 2656 428 
L 2656 1658 
C 2656 2247 3014 2688 3462 2688 
C 3936 2688 3987 2266 3987 1958 
L 3987 428 
C 3987 184 3962 153 3552 153 
L 3552 -13 
C 3706 0 3987 0 4154 0 
C 4320 0 4608 0 4762 -13 
L 4762 153 
C 4352 153 4326 178 4326 428 
L 4326 1933 
z
" transform="scale(0.015625)"/>
      <path id="CMR17-65" d="M 2438 1472 
C 2464 1498 2464 1511 2464 1576 
C 2464 2238 2118 2816 1389 2816 
C 710 2816 173 2169 173 1383 
C 173 551 781 -64 1459 -64 
C 2176 -64 2458 607 2458 740 
C 2458 784 2419 784 2406 784 
C 2362 784 2355 771 2330 696 
C 2189 265 1837 51 1504 51 
C 1229 51 954 203 781 480 
C 582 803 582 1176 582 1472 
L 2438 1472 
z
M 589 1568 
C 634 2505 1126 2714 1382 2714 
C 1818 2714 2112 2297 2118 1568 
L 589 1568 
z
" transform="scale(0.015625)"/>
     </defs>
     <use xlink:href="#CMR17-54" transform="scale(0.996264)"/>
     <use xlink:href="#CMR17-69" transform="translate(66.509881 0) scale(0.996264)"/>
     <use xlink:href="#CMR17-6d" transform="translate(91.380939 0) scale(0.996264)"/>
     <use xlink:href="#CMR17-65" transform="translate(168.300529 0) scale(0.996264)"/>
    </g>
   </g>
   <g id="legend_1">
    <g id="line2d_47">
     <path d="M 948.117672 197.198434 
L 962.117672 197.198434 
L 976.117672 197.198434 
" style="fill: none; stroke: #393b79; stroke-width: 2; stroke-linecap: round"/>
    </g>
    <g id="text_21">
     <!-- t = 0.00 -->
     <g style="fill: #262626" transform="translate(987.317672 202.098434) scale(0.14 -0.14)">
      <defs>
       <path id="CMR17-74" d="M 966 2560 
L 1862 2560 
L 1862 2725 
L 966 2725 
L 966 3904 
L 851 3904 
C 838 3245 614 2668 70 2668 
L 70 2560 
L 627 2560 
L 627 771 
C 627 650 627 -64 1370 -64 
C 1747 -64 1965 306 1965 777 
L 1965 1140 
L 1850 1140 
L 1850 783 
C 1850 344 1677 51 1408 51 
C 1222 51 966 178 966 758 
L 966 2560 
z
" transform="scale(0.015625)"/>
       <path id="CMR17-3d" d="M 4115 2017 
C 4211 2017 4307 2017 4307 2125 
C 4307 2240 4198 2240 4090 2240 
L 512 2240 
C 403 2240 294 2240 294 2125 
C 294 2017 390 2017 486 2017 
L 4115 2017 
z
M 4090 896 
C 4198 896 4307 896 4307 1011 
C 4307 1119 4211 1119 4115 1119 
L 486 1119 
C 390 1119 294 1119 294 1011 
C 294 896 403 896 512 896 
L 4090 896 
z
" transform="scale(0.015625)"/>
       <path id="CMR17-2e" d="M 1062 261 
C 1062 420 934 522 800 522 
C 672 522 538 420 538 261 
C 538 102 666 0 800 0 
C 928 0 1062 102 1062 261 
z
" transform="scale(0.015625)"/>
      </defs>
      <use xlink:href="#CMR17-74" transform="scale(0.996264)"/>
      <use xlink:href="#CMR17-3d" transform="translate(65.356734 0) scale(0.996264)"/>
      <use xlink:href="#CMR17-30" transform="translate(167.147489 0) scale(0.996264)"/>
      <use xlink:href="#CMR17-2e" transform="translate(212.837966 0) scale(0.996264)"/>
      <use xlink:href="#CMR17-30" transform="translate(237.709025 0) scale(0.996264)"/>
      <use xlink:href="#CMR17-30" transform="translate(283.399502 0) scale(0.996264)"/>
     </g>
    </g>
    <g id="line2d_48">
     <path d="M 948.117672 216.710462 
L 962.117672 216.710462 
L 976.117672 216.710462 
" style="fill: none; stroke: #6b6ecf; stroke-width: 2; stroke-linecap: round"/>
    </g>
    <g id="text_22">
     <!-- t = 10.00 -->
     <g style="fill: #262626" transform="translate(987.317672 221.610462) scale(0.14 -0.14)">
      <use xlink:href="#CMR17-74" transform="scale(0.996264)"/>
      <use xlink:href="#CMR17-3d" transform="translate(65.356734 0) scale(0.996264)"/>
      <use xlink:href="#CMR17-31" transform="translate(167.147489 0) scale(0.996264)"/>
      <use xlink:href="#CMR17-30" transform="translate(212.837966 0) scale(0.996264)"/>
      <use xlink:href="#CMR17-2e" transform="translate(258.528443 0) scale(0.996264)"/>
      <use xlink:href="#CMR17-30" transform="translate(283.399502 0) scale(0.996264)"/>
      <use xlink:href="#CMR17-30" transform="translate(329.089979 0) scale(0.996264)"/>
     </g>
    </g>
    <g id="line2d_49">
     <path d="M 948.117672 236.222491 
L 962.117672 236.222491 
L 976.117672 236.222491 
" style="fill: none; stroke: #637939; stroke-width: 2; stroke-linecap: round"/>
    </g>
    <g id="text_23">
     <!-- t = 50.00 -->
     <g style="fill: #262626" transform="translate(987.317672 241.122491) scale(0.14 -0.14)">
      <use xlink:href="#CMR17-74" transform="scale(0.996264)"/>
      <use xlink:href="#CMR17-3d" transform="translate(65.356734 0) scale(0.996264)"/>
      <use xlink:href="#CMR17-35" transform="translate(167.147489 0) scale(0.996264)"/>
      <use xlink:href="#CMR17-30" transform="translate(212.837966 0) scale(0.996264)"/>
      <use xlink:href="#CMR17-2e" transform="translate(258.528443 0) scale(0.996264)"/>
      <use xlink:href="#CMR17-30" transform="translate(283.399502 0) scale(0.996264)"/>
      <use xlink:href="#CMR17-30" transform="translate(329.089979 0) scale(0.996264)"/>
     </g>
    </g>
    <g id="line2d_50">
     <path d="M 948.117672 255.734519 
L 962.117672 255.734519 
L 976.117672 255.734519 
" style="fill: none; stroke: #b5cf6b; stroke-width: 2; stroke-linecap: round"/>
    </g>
    <g id="text_24">
     <!-- t = 100.00 -->
     <g style="fill: #262626" transform="translate(987.317672 260.634519) scale(0.14 -0.14)">
      <use xlink:href="#CMR17-74" transform="scale(0.996264)"/>
      <use xlink:href="#CMR17-3d" transform="translate(65.356734 0) scale(0.996264)"/>
      <use xlink:href="#CMR17-31" transform="translate(167.147489 0) scale(0.996264)"/>
      <use xlink:href="#CMR17-30" transform="translate(212.837966 0) scale(0.996264)"/>
      <use xlink:href="#CMR17-30" transform="translate(258.528443 0) scale(0.996264)"/>
      <use xlink:href="#CMR17-2e" transform="translate(304.21892 0) scale(0.996264)"/>
      <use xlink:href="#CMR17-30" transform="translate(329.089979 0) scale(0.996264)"/>
      <use xlink:href="#CMR17-30" transform="translate(374.780456 0) scale(0.996264)"/>
     </g>
    </g>
    <g id="line2d_51">
     <path d="M 948.117672 275.246547 
L 962.117672 275.246547 
L 976.117672 275.246547 
" style="fill: none; stroke: #8c6d31; stroke-width: 2; stroke-linecap: round"/>
    </g>
    <g id="text_25">
     <!-- t = 250.00 -->
     <g style="fill: #262626" transform="translate(987.317672 280.146547) scale(0.14 -0.14)">
      <use xlink:href="#CMR17-74" transform="scale(0.996264)"/>
      <use xlink:href="#CMR17-3d" transform="translate(65.356734 0) scale(0.996264)"/>
      <use xlink:href="#CMR17-32" transform="translate(167.147489 0) scale(0.996264)"/>
      <use xlink:href="#CMR17-35" transform="translate(212.837966 0) scale(0.996264)"/>
      <use xlink:href="#CMR17-30" transform="translate(258.528443 0) scale(0.996264)"/>
      <use xlink:href="#CMR17-2e" transform="translate(304.21892 0) scale(0.996264)"/>
      <use xlink:href="#CMR17-30" transform="translate(329.089979 0) scale(0.996264)"/>
      <use xlink:href="#CMR17-30" transform="translate(374.780456 0) scale(0.996264)"/>
     </g>
    </g>
    <g id="line2d_52">
     <path d="M 948.117672 294.758576 
L 962.117672 294.758576 
L 976.117672 294.758576 
" style="fill: none; stroke: #e7cb94; stroke-width: 2; stroke-linecap: round"/>
    </g>
    <g id="text_26">
     <!-- t = 500.00 -->
     <g style="fill: #262626" transform="translate(987.317672 299.658576) scale(0.14 -0.14)">
      <use xlink:href="#CMR17-74" transform="scale(0.996264)"/>
      <use xlink:href="#CMR17-3d" transform="translate(65.356734 0) scale(0.996264)"/>
      <use xlink:href="#CMR17-35" transform="translate(167.147489 0) scale(0.996264)"/>
      <use xlink:href="#CMR17-30" transform="translate(212.837966 0) scale(0.996264)"/>
      <use xlink:href="#CMR17-30" transform="translate(258.528443 0) scale(0.996264)"/>
      <use xlink:href="#CMR17-2e" transform="translate(304.21892 0) scale(0.996264)"/>
      <use xlink:href="#CMR17-30" transform="translate(329.089979 0) scale(0.996264)"/>
      <use xlink:href="#CMR17-30" transform="translate(374.780456 0) scale(0.996264)"/>
     </g>
    </g>
    <g id="line2d_53">
     <path d="M 948.117672 314.270604 
L 962.117672 314.270604 
L 976.117672 314.270604 
" style="fill: none; stroke: #ad494a; stroke-width: 2; stroke-linecap: round"/>
    </g>
    <g id="text_27">
     <!-- t = 750.00 -->
     <g style="fill: #262626" transform="translate(987.317672 319.170604) scale(0.14 -0.14)">
      <use xlink:href="#CMR17-74" transform="scale(0.996264)"/>
      <use xlink:href="#CMR17-3d" transform="translate(65.356734 0) scale(0.996264)"/>
      <use xlink:href="#CMR17-37" transform="translate(167.147489 0) scale(0.996264)"/>
      <use xlink:href="#CMR17-35" transform="translate(212.837966 0) scale(0.996264)"/>
      <use xlink:href="#CMR17-30" transform="translate(258.528443 0) scale(0.996264)"/>
      <use xlink:href="#CMR17-2e" transform="translate(304.21892 0) scale(0.996264)"/>
      <use xlink:href="#CMR17-30" transform="translate(329.089979 0) scale(0.996264)"/>
      <use xlink:href="#CMR17-30" transform="translate(374.780456 0) scale(0.996264)"/>
     </g>
    </g>
    <g id="line2d_54">
     <path d="M 948.117672 333.782633 
L 962.117672 333.782633 
L 976.117672 333.782633 
" style="fill: none; stroke: #e7969c; stroke-width: 2; stroke-linecap: round"/>
    </g>
    <g id="text_28">
     <!-- t = 1000.00 -->
     <g style="fill: #262626" transform="translate(987.317672 338.682633) scale(0.14 -0.14)">
      <use xlink:href="#CMR17-74" transform="scale(0.996264)"/>
      <use xlink:href="#CMR17-3d" transform="translate(65.356734 0) scale(0.996264)"/>
      <use xlink:href="#CMR17-31" transform="translate(167.147489 0) scale(0.996264)"/>
      <use xlink:href="#CMR17-30" transform="translate(212.837966 0) scale(0.996264)"/>
      <use xlink:href="#CMR17-30" transform="translate(258.528443 0) scale(0.996264)"/>
      <use xlink:href="#CMR17-30" transform="translate(304.21892 0) scale(0.996264)"/>
      <use xlink:href="#CMR17-2e" transform="translate(349.909397 0) scale(0.996264)"/>
      <use xlink:href="#CMR17-30" transform="translate(374.780456 0) scale(0.996264)"/>
      <use xlink:href="#CMR17-30" transform="translate(420.470933 0) scale(0.996264)"/>
     </g>
    </g>
    <g id="line2d_55">
     <path d="M 948.117672 353.294661 
L 962.117672 353.294661 
L 976.117672 353.294661 
" style="fill: none; stroke: #a55194; stroke-width: 2; stroke-linecap: round"/>
    </g>
    <g id="text_29">
     <!-- t = 1250.00 -->
     <g style="fill: #262626" transform="translate(987.317672 358.194661) scale(0.14 -0.14)">
      <use xlink:href="#CMR17-74" transform="scale(0.996264)"/>
      <use xlink:href="#CMR17-3d" transform="translate(65.356734 0) scale(0.996264)"/>
      <use xlink:href="#CMR17-31" transform="translate(167.147489 0) scale(0.996264)"/>
      <use xlink:href="#CMR17-32" transform="translate(212.837966 0) scale(0.996264)"/>
      <use xlink:href="#CMR17-35" transform="translate(258.528443 0) scale(0.996264)"/>
      <use xlink:href="#CMR17-30" transform="translate(304.21892 0) scale(0.996264)"/>
      <use xlink:href="#CMR17-2e" transform="translate(349.909397 0) scale(0.996264)"/>
      <use xlink:href="#CMR17-30" transform="translate(374.780456 0) scale(0.996264)"/>
      <use xlink:href="#CMR17-30" transform="translate(420.470933 0) scale(0.996264)"/>
     </g>
    </g>
    <g id="line2d_56">
     <path d="M 948.117672 372.806689 
L 962.117672 372.806689 
L 976.117672 372.806689 
" style="fill: none; stroke: #de9ed6; stroke-width: 2; stroke-linecap: round"/>
    </g>
    <g id="text_30">
     <!-- t = 1500.00 -->
     <g style="fill: #262626" transform="translate(987.317672 377.706689) scale(0.14 -0.14)">
      <use xlink:href="#CMR17-74" transform="scale(0.996264)"/>
      <use xlink:href="#CMR17-3d" transform="translate(65.356734 0) scale(0.996264)"/>
      <use xlink:href="#CMR17-31" transform="translate(167.147489 0) scale(0.996264)"/>
      <use xlink:href="#CMR17-35" transform="translate(212.837966 0) scale(0.996264)"/>
      <use xlink:href="#CMR17-30" transform="translate(258.528443 0) scale(0.996264)"/>
      <use xlink:href="#CMR17-30" transform="translate(304.21892 0) scale(0.996264)"/>
      <use xlink:href="#CMR17-2e" transform="translate(349.909397 0) scale(0.996264)"/>
      <use xlink:href="#CMR17-30" transform="translate(374.780456 0) scale(0.996264)"/>
      <use xlink:href="#CMR17-30" transform="translate(420.470933 0) scale(0.996264)"/>
     </g>
    </g>
   </g>
  </g>
  <g id="text_31">
   <!-- permeability -->
   <g style="fill: #262626" transform="translate(492.111452 24.803515) scale(0.192 -0.192)">
    <defs>
     <path id="CMR17-70" d="M 1408 -1063 
C 998 -1063 973 -1037 973 -789 
L 973 402 
C 1158 134 1427 -38 1766 -38 
C 2406 -38 3053 523 3053 1388 
C 3053 2191 2496 2802 1837 2802 
C 1453 2802 1139 2592 960 2338 
L 960 2802 
L 198 2732 
L 198 2567 
C 576 2567 634 2528 634 2223 
L 634 -789 
C 634 -1031 608 -1063 198 -1063 
L 198 -1228 
C 352 -1216 634 -1216 800 -1216 
C 966 -1216 1254 -1216 1408 -1228 
L 1408 -1063 
z
M 973 2012 
C 973 2102 973 2235 1222 2471 
C 1254 2497 1472 2688 1792 2688 
C 2259 2688 2643 2108 2643 1382 
C 2643 656 2234 64 1728 64 
C 1498 64 1248 172 1056 472 
C 973 612 973 650 973 752 
L 973 2012 
z
" transform="scale(0.015625)"/>
     <path id="CMR17-72" d="M 960 1497 
C 960 2112 1222 2688 1702 2688 
C 1747 2688 1792 2682 1837 2662 
C 1837 2662 1696 2617 1696 2452 
C 1696 2298 1818 2234 1914 2234 
C 1990 2234 2131 2279 2131 2458 
C 2131 2663 1926 2790 1709 2790 
C 1222 2790 1011 2317 947 2093 
L 941 2093 
L 941 2790 
L 198 2720 
L 198 2554 
C 576 2554 634 2515 634 2208 
L 634 428 
C 634 184 608 153 198 153 
L 198 -13 
C 352 0 646 0 813 0 
C 998 0 1325 0 1498 -13 
L 1498 153 
C 1037 153 960 153 960 440 
L 960 1497 
z
" transform="scale(0.015625)"/>
     <path id="CMR17-61" d="M 2304 1653 
C 2304 2072 2304 2294 2035 2543 
C 1798 2752 1523 2816 1306 2816 
C 800 2816 435 2407 435 1971 
C 435 1728 627 1728 666 1728 
C 749 1728 896 1778 896 1954 
C 896 2112 774 2181 666 2181 
C 640 2181 608 2174 589 2168 
C 723 2592 1069 2714 1293 2714 
C 1613 2714 1965 2429 1965 1885 
L 1965 1600 
C 1587 1600 1133 1549 774 1357 
C 371 1133 256 813 256 570 
C 256 77 832 -64 1171 -64 
C 1523 -64 1850 139 1990 511 
C 2003 233 2182 -18 2464 -18 
C 2598 -18 2938 70 2938 567 
L 2938 920 
L 2822 920 
L 2822 562 
C 2822 178 2650 128 2566 128 
C 2304 128 2304 458 2304 738 
L 2304 1653 
z
M 1965 870 
C 1965 317 1568 38 1216 38 
C 896 38 646 275 646 570 
C 646 761 730 1100 1101 1305 
C 1408 1478 1760 1504 1965 1504 
L 1965 870 
z
" transform="scale(0.015625)"/>
     <path id="CMR17-62" d="M 960 4396 
L 198 4326 
L 198 4160 
C 576 4160 634 4122 634 3817 
L 634 -13 
L 749 -13 
L 934 441 
C 1120 141 1395 -64 1766 -64 
C 2406 -64 3053 500 3053 1370 
C 3053 2188 2477 2790 1830 2790 
C 1434 2790 1152 2579 960 2330 
L 960 4396 
z
M 973 2004 
C 973 2118 973 2138 1062 2272 
C 1312 2657 1670 2688 1792 2688 
C 1984 2688 2643 2585 2643 1376 
C 2643 108 1888 38 1734 38 
C 1536 38 1248 114 1043 486 
C 973 608 973 621 973 735 
L 973 2004 
z
" transform="scale(0.015625)"/>
     <path id="CMR17-6c" d="M 979 4396 
L 218 4326 
L 218 4160 
C 595 4160 653 4122 653 3817 
L 653 426 
C 653 184 627 153 218 153 
L 218 -13 
C 371 0 653 0 813 0 
C 979 0 1261 0 1414 -13 
L 1414 153 
C 1005 153 979 178 979 426 
L 979 4396 
z
" transform="scale(0.015625)"/>
     <path id="CMR17-79" d="M 2496 2197 
C 2656 2586 2944 2586 3034 2586 
L 3034 2752 
C 2912 2752 2752 2752 2630 2752 
C 2496 2752 2285 2752 2157 2758 
L 2157 2592 
C 2400 2573 2406 2394 2406 2343 
C 2406 2280 2394 2248 2362 2171 
L 1664 449 
L 902 2306 
C 870 2382 870 2426 870 2433 
C 870 2573 1018 2586 1171 2586 
L 1171 2758 
C 1018 2752 742 2752 582 2752 
C 410 2752 205 2752 64 2758 
L 64 2586 
C 410 2586 448 2554 531 2350 
L 1485 15 
C 1197 -738 1030 -1178 627 -1178 
C 557 -1178 397 -1159 282 -1044 
C 429 -1031 493 -942 493 -833 
C 493 -725 416 -629 288 -629 
C 147 -629 77 -725 77 -840 
C 77 -1095 339 -1280 627 -1280 
C 998 -1280 1229 -922 1357 -604 
L 2496 2197 
z
" transform="scale(0.015625)"/>
    </defs>
    <use xlink:href="#CMR17-70" transform="scale(0.996264)"/>
    <use xlink:href="#CMR17-65" transform="translate(53.497809 0) scale(0.996264)"/>
    <use xlink:href="#CMR17-72" transform="translate(93.983469 0) scale(0.996264)"/>
    <use xlink:href="#CMR17-6d" transform="translate(129.264237 0) scale(0.996264)"/>
    <use xlink:href="#CMR17-65" transform="translate(206.183827 0) scale(0.996264)"/>
    <use xlink:href="#CMR17-61" transform="translate(246.669487 0) scale(0.996264)"/>
    <use xlink:href="#CMR17-62" transform="translate(292.359964 0) scale(0.996264)"/>
    <use xlink:href="#CMR17-69" transform="translate(343.255334 0) scale(0.996264)"/>
    <use xlink:href="#CMR17-6c" transform="translate(368.126392 0) scale(0.996264)"/>
    <use xlink:href="#CMR17-69" transform="translate(392.997451 0) scale(0.996264)"/>
    <use xlink:href="#CMR17-74" transform="translate(417.868509 0) scale(0.996264)"/>
    <use xlink:href="#CMR17-79" transform="translate(450.546823 0) scale(0.996264)"/>
   </g>
  </g>
 </g>
 <defs>
  <clipPath id="p56f3eb5ce6">
   <rect x="48.559071" y="51.564121" width="886.958601" height="469.58891"/>
  </clipPath>
 </defs>
</svg>
