<?xml version="1.0" encoding="utf-8" standalone="no"?>
<!DOCTYPE svg PUBLIC "-//W3C//DTD SVG 1.1//EN"
  "http://www.w3.org/Graphics/SVG/1.1/DTD/svg11.dtd">
<svg xmlns:xlink="http://www.w3.org/1999/xlink" width="1080pt" height="576pt" viewBox="0 0 1080 576" xmlns="http://www.w3.org/2000/svg" version="1.1">
 <metadata>
  <rdf:RDF xmlns:dc="http://purl.org/dc/elements/1.1/" xmlns:cc="http://creativecommons.org/ns#" xmlns:rdf="http://www.w3.org/1999/02/22-rdf-syntax-ns#">
   <cc:Work>
    <dc:type rdf:resource="http://purl.org/dc/dcmitype/StillImage"/>
    <dc:date>2024-06-28T12:18:01.709843</dc:date>
    <dc:format>image/svg+xml</dc:format>
    <dc:creator>
     <cc:Agent>
      <dc:title>Matplotlib v3.9.0, https://matplotlib.org/</dc:title>
     </cc:Agent>
    </dc:creator>
   </cc:Work>
  </rdf:RDF>
 </metadata>
 <defs>
  <style type="text/css">*{stroke-linejoin: round; stroke-linecap: butt}</style>
 </defs>
 <g id="figure_1">
  <g id="patch_1">
   <path d="M 0 576 
L 1080 576 
L 1080 0 
L 0 0 
z
" style="fill: #ffffff"/>
  </g>
  <g id="axes_1">
   <g id="patch_2">
    <path d="M 48.559071 521.153031 
L 935.517672 521.153031 
L 935.517672 51.564121 
L 48.559071 51.564121 
z
" style="fill: #eaeaf2"/>
   </g>
   <g id="matplotlib.axis_1">
    <g id="xtick_1">
     <g id="line2d_1">
      <path d="M 48.559071 521.153031 
L 48.559071 51.564121 
" clip-path="url(#pd3056186da)" style="fill: none; stroke: #ffffff; stroke-linecap: round"/>
     </g>
     <g id="line2d_2"/>
     <g id="text_1">
      <!-- $\mathdefault{0.00}$ -->
      <g style="fill: #262626" transform="translate(36.419535 537.838907) scale(0.14 -0.14)">
       <defs>
        <path id="CMR17-30" d="M 2688 2025 
C 2688 2416 2682 3080 2413 3591 
C 2176 4039 1798 4198 1466 4198 
C 1158 4198 768 4058 525 3597 
C 269 3118 243 2524 243 2025 
C 243 1661 250 1106 448 619 
C 723 -39 1216 -128 1466 -128 
C 1760 -128 2208 -7 2470 600 
C 2662 1042 2688 1559 2688 2025 
z
M 1466 -26 
C 1056 -26 813 325 723 812 
C 653 1188 653 1738 653 2096 
C 653 2588 653 2997 736 3387 
C 858 3929 1216 4096 1466 4096 
C 1728 4096 2067 3923 2189 3400 
C 2272 3036 2278 2607 2278 2096 
C 2278 1680 2278 1169 2202 792 
C 2067 95 1690 -26 1466 -26 
z
" transform="scale(0.015625)"/>
        <path id="CMMI12-3a" d="M 1178 307 
C 1178 492 1024 619 870 619 
C 685 619 557 466 557 313 
C 557 128 710 0 864 0 
C 1050 0 1178 153 1178 307 
z
" transform="scale(0.015625)"/>
       </defs>
       <use xlink:href="#CMR17-30" transform="scale(0.996264)"/>
       <use xlink:href="#CMMI12-3a" transform="translate(45.690477 0) scale(0.996264)"/>
       <use xlink:href="#CMR17-30" transform="translate(72.787654 0) scale(0.996264)"/>
       <use xlink:href="#CMR17-30" transform="translate(118.478131 0) scale(0.996264)"/>
      </g>
     </g>
    </g>
    <g id="xtick_2">
     <g id="line2d_3">
      <path d="M 154.14938 521.153031 
L 154.14938 51.564121 
" clip-path="url(#pd3056186da)" style="fill: none; stroke: #ffffff; stroke-linecap: round"/>
     </g>
     <g id="line2d_4"/>
     <g id="text_2">
      <!-- $\mathdefault{0.25}$ -->
      <g style="fill: #262626" transform="translate(142.009845 537.838907) scale(0.14 -0.14)">
       <defs>
        <path id="CMR17-32" d="M 2669 989 
L 2554 989 
C 2490 536 2438 459 2413 420 
C 2381 369 1920 369 1830 369 
L 602 369 
C 832 619 1280 1072 1824 1597 
C 2214 1967 2669 2402 2669 3035 
C 2669 3790 2067 4224 1395 4224 
C 691 4224 262 3604 262 3030 
C 262 2780 448 2748 525 2748 
C 589 2748 781 2787 781 3010 
C 781 3207 614 3264 525 3264 
C 486 3264 448 3258 422 3245 
C 544 3790 915 4058 1306 4058 
C 1862 4058 2227 3617 2227 3035 
C 2227 2479 1901 2000 1536 1584 
L 262 146 
L 262 0 
L 2515 0 
L 2669 989 
z
" transform="scale(0.015625)"/>
        <path id="CMR17-35" d="M 730 3692 
C 794 3666 1056 3584 1325 3584 
C 1920 3584 2246 3911 2432 4100 
C 2432 4157 2432 4192 2394 4192 
C 2387 4192 2374 4192 2323 4163 
C 2099 4058 1837 3973 1517 3973 
C 1325 3973 1037 3999 723 4139 
C 653 4171 640 4171 634 4171 
C 602 4171 595 4164 595 4037 
L 595 2203 
C 595 2089 595 2057 659 2057 
C 691 2057 704 2070 736 2114 
C 941 2401 1222 2522 1542 2522 
C 1766 2522 2246 2382 2246 1289 
C 2246 1085 2246 715 2054 421 
C 1894 159 1645 25 1370 25 
C 947 25 518 320 403 814 
C 429 807 480 795 506 795 
C 589 795 749 840 749 1038 
C 749 1210 627 1280 506 1280 
C 358 1280 262 1190 262 1011 
C 262 454 704 -128 1382 -128 
C 2042 -128 2669 440 2669 1264 
C 2669 2030 2170 2624 1549 2624 
C 1222 2624 947 2503 730 2274 
L 730 3692 
z
" transform="scale(0.015625)"/>
       </defs>
       <use xlink:href="#CMR17-30" transform="scale(0.996264)"/>
       <use xlink:href="#CMMI12-3a" transform="translate(45.690477 0) scale(0.996264)"/>
       <use xlink:href="#CMR17-32" transform="translate(72.787654 0) scale(0.996264)"/>
       <use xlink:href="#CMR17-35" transform="translate(118.478131 0) scale(0.996264)"/>
      </g>
     </g>
    </g>
    <g id="xtick_3">
     <g id="line2d_5">
      <path d="M 259.73969 521.153031 
L 259.73969 51.564121 
" clip-path="url(#pd3056186da)" style="fill: none; stroke: #ffffff; stroke-linecap: round"/>
     </g>
     <g id="line2d_6"/>
     <g id="text_3">
      <!-- $\mathdefault{0.50}$ -->
      <g style="fill: #262626" transform="translate(247.600155 537.838907) scale(0.14 -0.14)">
       <use xlink:href="#CMR17-30" transform="scale(0.996264)"/>
       <use xlink:href="#CMMI12-3a" transform="translate(45.690477 0) scale(0.996264)"/>
       <use xlink:href="#CMR17-35" transform="translate(72.787654 0) scale(0.996264)"/>
       <use xlink:href="#CMR17-30" transform="translate(118.478131 0) scale(0.996264)"/>
      </g>
     </g>
    </g>
    <g id="xtick_4">
     <g id="line2d_7">
      <path d="M 365.33 521.153031 
L 365.33 51.564121 
" clip-path="url(#pd3056186da)" style="fill: none; stroke: #ffffff; stroke-linecap: round"/>
     </g>
     <g id="line2d_8"/>
     <g id="text_4">
      <!-- $\mathdefault{0.75}$ -->
      <g style="fill: #262626" transform="translate(353.190464 537.838907) scale(0.14 -0.14)">
       <defs>
        <path id="CMR17-37" d="M 2886 3941 
L 2886 4081 
L 1382 4081 
C 634 4081 621 4165 595 4288 
L 480 4288 
L 294 3094 
L 410 3094 
C 429 3215 474 3540 550 3661 
C 589 3712 1062 3712 1171 3712 
L 2579 3712 
L 1869 2661 
C 1395 1954 1069 999 1069 165 
C 1069 89 1069 -128 1299 -128 
C 1530 -128 1530 89 1530 171 
L 1530 465 
C 1530 1508 1709 2196 2003 2636 
L 2886 3941 
z
" transform="scale(0.015625)"/>
       </defs>
       <use xlink:href="#CMR17-30" transform="scale(0.996264)"/>
       <use xlink:href="#CMMI12-3a" transform="translate(45.690477 0) scale(0.996264)"/>
       <use xlink:href="#CMR17-37" transform="translate(72.787654 0) scale(0.996264)"/>
       <use xlink:href="#CMR17-35" transform="translate(118.478131 0) scale(0.996264)"/>
      </g>
     </g>
    </g>
    <g id="xtick_5">
     <g id="line2d_9">
      <path d="M 470.920309 521.153031 
L 470.920309 51.564121 
" clip-path="url(#pd3056186da)" style="fill: none; stroke: #ffffff; stroke-linecap: round"/>
     </g>
     <g id="line2d_10"/>
     <g id="text_5">
      <!-- $\mathdefault{1.00}$ -->
      <g style="fill: #262626" transform="translate(458.780774 537.838907) scale(0.14 -0.14)">
       <defs>
        <path id="CMR17-31" d="M 1702 4058 
C 1702 4192 1696 4192 1606 4192 
C 1357 3916 979 3827 621 3827 
C 602 3827 570 3827 563 3808 
C 557 3795 557 3782 557 3648 
C 755 3648 1088 3686 1344 3839 
L 1344 461 
C 1344 236 1331 160 781 160 
L 589 160 
L 589 0 
C 896 0 1216 0 1523 0 
C 1830 0 2150 0 2458 0 
L 2458 160 
L 2266 160 
C 1715 160 1702 230 1702 458 
L 1702 4058 
z
" transform="scale(0.015625)"/>
       </defs>
       <use xlink:href="#CMR17-31" transform="scale(0.996264)"/>
       <use xlink:href="#CMMI12-3a" transform="translate(45.690477 0) scale(0.996264)"/>
       <use xlink:href="#CMR17-30" transform="translate(72.787654 0) scale(0.996264)"/>
       <use xlink:href="#CMR17-30" transform="translate(118.478131 0) scale(0.996264)"/>
      </g>
     </g>
    </g>
    <g id="xtick_6">
     <g id="line2d_11">
      <path d="M 576.510619 521.153031 
L 576.510619 51.564121 
" clip-path="url(#pd3056186da)" style="fill: none; stroke: #ffffff; stroke-linecap: round"/>
     </g>
     <g id="line2d_12"/>
     <g id="text_6">
      <!-- $\mathdefault{1.25}$ -->
      <g style="fill: #262626" transform="translate(564.371084 537.838907) scale(0.14 -0.14)">
       <use xlink:href="#CMR17-31" transform="scale(0.996264)"/>
       <use xlink:href="#CMMI12-3a" transform="translate(45.690477 0) scale(0.996264)"/>
       <use xlink:href="#CMR17-32" transform="translate(72.787654 0) scale(0.996264)"/>
       <use xlink:href="#CMR17-35" transform="translate(118.478131 0) scale(0.996264)"/>
      </g>
     </g>
    </g>
    <g id="xtick_7">
     <g id="line2d_13">
      <path d="M 682.100929 521.153031 
L 682.100929 51.564121 
" clip-path="url(#pd3056186da)" style="fill: none; stroke: #ffffff; stroke-linecap: round"/>
     </g>
     <g id="line2d_14"/>
     <g id="text_7">
      <!-- $\mathdefault{1.50}$ -->
      <g style="fill: #262626" transform="translate(669.961393 537.838907) scale(0.14 -0.14)">
       <use xlink:href="#CMR17-31" transform="scale(0.996264)"/>
       <use xlink:href="#CMMI12-3a" transform="translate(45.690477 0) scale(0.996264)"/>
       <use xlink:href="#CMR17-35" transform="translate(72.787654 0) scale(0.996264)"/>
       <use xlink:href="#CMR17-30" transform="translate(118.478131 0) scale(0.996264)"/>
      </g>
     </g>
    </g>
    <g id="xtick_8">
     <g id="line2d_15">
      <path d="M 787.691238 521.153031 
L 787.691238 51.564121 
" clip-path="url(#pd3056186da)" style="fill: none; stroke: #ffffff; stroke-linecap: round"/>
     </g>
     <g id="line2d_16"/>
     <g id="text_8">
      <!-- $\mathdefault{1.75}$ -->
      <g style="fill: #262626" transform="translate(775.551703 537.838907) scale(0.14 -0.14)">
       <use xlink:href="#CMR17-31" transform="scale(0.996264)"/>
       <use xlink:href="#CMMI12-3a" transform="translate(45.690477 0) scale(0.996264)"/>
       <use xlink:href="#CMR17-37" transform="translate(72.787654 0) scale(0.996264)"/>
       <use xlink:href="#CMR17-35" transform="translate(118.478131 0) scale(0.996264)"/>
      </g>
     </g>
    </g>
    <g id="xtick_9">
     <g id="line2d_17">
      <path d="M 893.281548 521.153031 
L 893.281548 51.564121 
" clip-path="url(#pd3056186da)" style="fill: none; stroke: #ffffff; stroke-linecap: round"/>
     </g>
     <g id="line2d_18"/>
     <g id="text_9">
      <!-- $\mathdefault{2.00}$ -->
      <g style="fill: #262626" transform="translate(881.142013 537.838907) scale(0.14 -0.14)">
       <use xlink:href="#CMR17-32" transform="scale(0.996264)"/>
       <use xlink:href="#CMMI12-3a" transform="translate(45.690477 0) scale(0.996264)"/>
       <use xlink:href="#CMR17-30" transform="translate(72.787654 0) scale(0.996264)"/>
       <use xlink:href="#CMR17-30" transform="translate(118.478131 0) scale(0.996264)"/>
      </g>
     </g>
    </g>
    <g id="text_10">
     <!-- $x$ -->
     <g style="fill: #262626" transform="translate(487.603646 555.620524) scale(0.16 -0.16)">
      <defs>
       <path id="CMMI12-78" d="M 3034 2606 
C 2829 2567 2752 2414 2752 2293 
C 2752 2139 2874 2088 2963 2088 
C 3155 2088 3290 2254 3290 2427 
C 3290 2695 2982 2816 2714 2816 
C 2323 2816 2106 2433 2048 2312 
C 1901 2816 1504 2816 1389 2816 
C 736 2816 390 1980 390 1839 
C 390 1814 416 1782 461 1782 
C 512 1782 525 1820 538 1846 
C 755 2555 1184 2689 1370 2689 
C 1658 2689 1715 2420 1715 2267 
C 1715 2127 1677 1980 1600 1673 
L 1382 798 
C 1286 415 1101 64 762 64 
C 730 64 570 64 435 147 
C 666 192 717 383 717 460 
C 717 588 621 664 499 664 
C 346 664 179 530 179 326 
C 179 57 480 -64 755 -64 
C 1062 -64 1280 179 1414 441 
C 1517 64 1837 -64 2074 -64 
C 2726 -64 3072 773 3072 913 
C 3072 945 3046 971 3008 971 
C 2950 971 2944 939 2925 888 
C 2752 326 2381 64 2093 64 
C 1869 64 1747 230 1747 492 
C 1747 632 1773 734 1875 1156 
L 2099 2024 
C 2195 2408 2413 2689 2707 2689 
C 2720 2689 2899 2689 3034 2606 
z
" transform="scale(0.015625)"/>
      </defs>
      <use xlink:href="#CMMI12-78" transform="scale(0.996264)"/>
     </g>
    </g>
   </g>
   <g id="matplotlib.axis_2">
    <g id="ytick_1">
     <g id="line2d_19">
      <path d="M 48.559071 521.153031 
L 935.517672 521.153031 
" clip-path="url(#pd3056186da)" style="fill: none; stroke: #ffffff; stroke-linecap: round"/>
     </g>
     <g id="line2d_20"/>
     <g id="text_11">
      <!-- $\mathdefault{0.00}$ -->
      <g style="fill: #262626" transform="translate(17.28 525.995969) scale(0.14 -0.14)">
       <use xlink:href="#CMR17-30" transform="scale(0.996264)"/>
       <use xlink:href="#CMMI12-3a" transform="translate(45.690477 0) scale(0.996264)"/>
       <use xlink:href="#CMR17-30" transform="translate(72.787654 0) scale(0.996264)"/>
       <use xlink:href="#CMR17-30" transform="translate(118.478131 0) scale(0.996264)"/>
      </g>
     </g>
    </g>
    <g id="ytick_2">
     <g id="line2d_21">
      <path d="M 48.559071 465.269855 
L 935.517672 465.269855 
" clip-path="url(#pd3056186da)" style="fill: none; stroke: #ffffff; stroke-linecap: round"/>
     </g>
     <g id="line2d_22"/>
     <g id="text_12">
      <!-- $\mathdefault{0.25}$ -->
      <g style="fill: #262626" transform="translate(17.28 470.112793) scale(0.14 -0.14)">
       <use xlink:href="#CMR17-30" transform="scale(0.996264)"/>
       <use xlink:href="#CMMI12-3a" transform="translate(45.690477 0) scale(0.996264)"/>
       <use xlink:href="#CMR17-32" transform="translate(72.787654 0) scale(0.996264)"/>
       <use xlink:href="#CMR17-35" transform="translate(118.478131 0) scale(0.996264)"/>
      </g>
     </g>
    </g>
    <g id="ytick_3">
     <g id="line2d_23">
      <path d="M 48.559071 409.386679 
L 935.517672 409.386679 
" clip-path="url(#pd3056186da)" style="fill: none; stroke: #ffffff; stroke-linecap: round"/>
     </g>
     <g id="line2d_24"/>
     <g id="text_13">
      <!-- $\mathdefault{0.50}$ -->
      <g style="fill: #262626" transform="translate(17.28 414.229617) scale(0.14 -0.14)">
       <use xlink:href="#CMR17-30" transform="scale(0.996264)"/>
       <use xlink:href="#CMMI12-3a" transform="translate(45.690477 0) scale(0.996264)"/>
       <use xlink:href="#CMR17-35" transform="translate(72.787654 0) scale(0.996264)"/>
       <use xlink:href="#CMR17-30" transform="translate(118.478131 0) scale(0.996264)"/>
      </g>
     </g>
    </g>
    <g id="ytick_4">
     <g id="line2d_25">
      <path d="M 48.559071 353.503502 
L 935.517672 353.503502 
" clip-path="url(#pd3056186da)" style="fill: none; stroke: #ffffff; stroke-linecap: round"/>
     </g>
     <g id="line2d_26"/>
     <g id="text_14">
      <!-- $\mathdefault{0.75}$ -->
      <g style="fill: #262626" transform="translate(17.28 358.346441) scale(0.14 -0.14)">
       <use xlink:href="#CMR17-30" transform="scale(0.996264)"/>
       <use xlink:href="#CMMI12-3a" transform="translate(45.690477 0) scale(0.996264)"/>
       <use xlink:href="#CMR17-37" transform="translate(72.787654 0) scale(0.996264)"/>
       <use xlink:href="#CMR17-35" transform="translate(118.478131 0) scale(0.996264)"/>
      </g>
     </g>
    </g>
    <g id="ytick_5">
     <g id="line2d_27">
      <path d="M 48.559071 297.620326 
L 935.517672 297.620326 
" clip-path="url(#pd3056186da)" style="fill: none; stroke: #ffffff; stroke-linecap: round"/>
     </g>
     <g id="line2d_28"/>
     <g id="text_15">
      <!-- $\mathdefault{1.00}$ -->
      <g style="fill: #262626" transform="translate(17.28 302.463265) scale(0.14 -0.14)">
       <use xlink:href="#CMR17-31" transform="scale(0.996264)"/>
       <use xlink:href="#CMMI12-3a" transform="translate(45.690477 0) scale(0.996264)"/>
       <use xlink:href="#CMR17-30" transform="translate(72.787654 0) scale(0.996264)"/>
       <use xlink:href="#CMR17-30" transform="translate(118.478131 0) scale(0.996264)"/>
      </g>
     </g>
    </g>
    <g id="ytick_6">
     <g id="line2d_29">
      <path d="M 48.559071 241.73715 
L 935.517672 241.73715 
" clip-path="url(#pd3056186da)" style="fill: none; stroke: #ffffff; stroke-linecap: round"/>
     </g>
     <g id="line2d_30"/>
     <g id="text_16">
      <!-- $\mathdefault{1.25}$ -->
      <g style="fill: #262626" transform="translate(17.28 246.580089) scale(0.14 -0.14)">
       <use xlink:href="#CMR17-31" transform="scale(0.996264)"/>
       <use xlink:href="#CMMI12-3a" transform="translate(45.690477 0) scale(0.996264)"/>
       <use xlink:href="#CMR17-32" transform="translate(72.787654 0) scale(0.996264)"/>
       <use xlink:href="#CMR17-35" transform="translate(118.478131 0) scale(0.996264)"/>
      </g>
     </g>
    </g>
    <g id="ytick_7">
     <g id="line2d_31">
      <path d="M 48.559071 185.853974 
L 935.517672 185.853974 
" clip-path="url(#pd3056186da)" style="fill: none; stroke: #ffffff; stroke-linecap: round"/>
     </g>
     <g id="line2d_32"/>
     <g id="text_17">
      <!-- $\mathdefault{1.50}$ -->
      <g style="fill: #262626" transform="translate(17.28 190.696912) scale(0.14 -0.14)">
       <use xlink:href="#CMR17-31" transform="scale(0.996264)"/>
       <use xlink:href="#CMMI12-3a" transform="translate(45.690477 0) scale(0.996264)"/>
       <use xlink:href="#CMR17-35" transform="translate(72.787654 0) scale(0.996264)"/>
       <use xlink:href="#CMR17-30" transform="translate(118.478131 0) scale(0.996264)"/>
      </g>
     </g>
    </g>
    <g id="ytick_8">
     <g id="line2d_33">
      <path d="M 48.559071 129.970798 
L 935.517672 129.970798 
" clip-path="url(#pd3056186da)" style="fill: none; stroke: #ffffff; stroke-linecap: round"/>
     </g>
     <g id="line2d_34"/>
     <g id="text_18">
      <!-- $\mathdefault{1.75}$ -->
      <g style="fill: #262626" transform="translate(17.28 134.813736) scale(0.14 -0.14)">
       <use xlink:href="#CMR17-31" transform="scale(0.996264)"/>
       <use xlink:href="#CMMI12-3a" transform="translate(45.690477 0) scale(0.996264)"/>
       <use xlink:href="#CMR17-37" transform="translate(72.787654 0) scale(0.996264)"/>
       <use xlink:href="#CMR17-35" transform="translate(118.478131 0) scale(0.996264)"/>
      </g>
     </g>
    </g>
    <g id="ytick_9">
     <g id="line2d_35">
      <path d="M 48.559071 74.087622 
L 935.517672 74.087622 
" clip-path="url(#pd3056186da)" style="fill: none; stroke: #ffffff; stroke-linecap: round"/>
     </g>
     <g id="line2d_36"/>
     <g id="text_19">
      <!-- $\mathdefault{2.00}$ -->
      <g style="fill: #262626" transform="translate(17.28 78.93056) scale(0.14 -0.14)">
       <use xlink:href="#CMR17-32" transform="scale(0.996264)"/>
       <use xlink:href="#CMMI12-3a" transform="translate(45.690477 0) scale(0.996264)"/>
       <use xlink:href="#CMR17-30" transform="translate(72.787654 0) scale(0.996264)"/>
       <use xlink:href="#CMR17-30" transform="translate(118.478131 0) scale(0.996264)"/>
      </g>
     </g>
    </g>
   </g>
   <g id="line2d_37">
    <path d="M 48.559071 74.087622 
L 57.006295 74.087622 
L 65.45352 74.087622 
L 73.900745 74.087622 
L 82.34797 74.087622 
L 90.795195 74.087622 
L 99.242419 74.087622 
L 107.689644 74.087622 
L 116.136869 74.087622 
L 124.584094 74.087622 
L 133.031318 74.087622 
L 141.478543 74.087622 
L 149.925768 74.087622 
L 158.372993 74.087622 
L 166.820217 74.087622 
L 175.267442 74.087622 
L 183.714667 74.087622 
L 192.161892 74.087622 
L 200.609117 74.087622 
L 209.056341 74.087622 
L 217.503566 74.087622 
L 225.950791 74.087622 
L 234.398016 74.087622 
L 242.84524 74.087622 
L 251.292465 74.087622 
L 259.73969 74.087622 
L 268.186915 74.087622 
L 276.63414 74.087622 
L 285.081364 74.087622 
L 293.528589 74.087622 
L 301.975814 74.087622 
L 310.423039 74.087622 
L 318.870263 74.087622 
L 327.317488 74.087622 
L 335.764713 74.087622 
L 344.211938 74.087622 
L 352.659162 74.087622 
L 361.106387 74.087622 
L 369.553612 74.087622 
L 378.000837 74.087622 
L 386.448062 74.087622 
L 394.895286 74.087622 
L 403.342511 74.087622 
L 411.789736 74.087622 
L 420.236961 74.087622 
L 428.684185 74.087622 
L 437.13141 74.087622 
L 445.578635 74.087622 
L 454.02586 74.087622 
L 462.473085 74.087622 
L 470.920309 74.087622 
L 479.367534 74.087622 
L 487.814759 74.087622 
L 496.261984 74.087622 
L 504.709208 74.087622 
L 513.156433 74.087622 
L 521.603658 74.087622 
L 530.050883 74.087622 
L 538.498107 74.087622 
L 546.945332 74.087622 
L 555.392557 74.087622 
L 563.839782 74.087622 
L 572.287007 74.087622 
L 580.734231 74.087622 
L 589.181456 74.087622 
L 597.628681 74.087622 
L 606.075906 74.087622 
L 614.52313 74.087622 
L 622.970355 74.087622 
L 631.41758 74.087622 
L 639.864805 74.087622 
L 648.31203 74.087622 
L 656.759254 74.087622 
L 665.206479 74.087622 
L 673.653704 74.087622 
L 682.100929 74.087622 
L 690.548153 74.087622 
L 698.995378 74.087622 
L 707.442603 74.087622 
L 715.889828 74.087622 
L 724.337052 74.087622 
L 732.784277 74.087622 
L 741.231502 74.087622 
L 749.678727 74.087622 
L 758.125952 74.087622 
L 766.573176 74.087622 
L 775.020401 74.087622 
L 783.467626 74.087622 
L 791.914851 74.087622 
L 800.362075 74.087622 
L 808.8093 74.087622 
L 817.256525 74.087622 
L 825.70375 74.087622 
L 834.150975 74.087622 
L 842.598199 74.087622 
L 851.045424 74.087622 
L 859.492649 74.087622 
L 867.939874 74.087622 
L 876.387098 74.087622 
L 884.834323 74.087622 
L 893.281548 74.087622 
" clip-path="url(#pd3056186da)" style="fill: none; stroke: #393b79; stroke-width: 2; stroke-linecap: round"/>
   </g>
   <g id="line2d_38">
    <path d="M 48.559071 135.917819 
L 57.006295 135.592843 
L 65.45352 135.269918 
L 73.900745 134.94902 
L 82.34797 134.624638 
L 90.795195 134.300968 
L 99.242419 133.979323 
L 107.689644 133.659688 
L 116.136869 133.342051 
L 124.584094 133.026418 
L 133.031318 132.712755 
L 141.478543 132.401046 
L 149.925768 132.091279 
L 158.372993 131.783452 
L 166.820217 131.477544 
L 175.267442 131.173542 
L 183.714667 130.871429 
L 192.161892 130.571201 
L 200.609117 130.272839 
L 209.056341 129.976333 
L 217.503566 129.681674 
L 225.950791 129.388839 
L 234.398016 129.091601 
L 242.84524 128.79614 
L 251.292465 128.502508 
L 259.73969 128.210697 
L 268.186915 127.920687 
L 276.63414 127.63247 
L 285.081364 127.34603 
L 293.528589 127.061357 
L 301.975814 126.778442 
L 310.423039 126.497271 
L 318.870263 126.217832 
L 327.317488 125.940117 
L 335.764713 125.664107 
L 344.211938 125.389793 
L 352.659162 125.117163 
L 361.106387 124.846208 
L 369.553612 124.576919 
L 378.000837 124.309292 
L 386.448062 124.043318 
L 394.895286 123.778972 
L 403.342511 123.510811 
L 411.789736 123.244003 
L 420.236961 122.978824 
L 428.684185 122.715262 
L 437.13141 122.453307 
L 445.578635 122.19295 
L 454.02586 121.934187 
L 462.473085 121.677007 
L 470.920309 121.421395 
L 479.367534 121.16734 
L 487.814759 120.91483 
L 496.261984 120.663856 
L 504.709208 120.414407 
L 513.156433 120.166475 
L 521.603658 119.920049 
L 530.050883 119.67512 
L 538.498107 119.43168 
L 546.945332 119.189713 
L 555.392557 118.949216 
L 563.839782 118.710173 
L 572.287007 118.472576 
L 580.734231 118.23642 
L 589.181456 118.001212 
L 597.628681 117.76279 
L 606.075906 117.525816 
L 614.52313 117.290271 
L 622.970355 117.056146 
L 631.41758 116.823433 
L 639.864805 116.592129 
L 648.31203 116.362217 
L 656.759254 116.133687 
L 665.206479 115.906532 
L 673.653704 115.680747 
L 682.100929 115.45632 
L 690.548153 115.233243 
L 698.995378 115.011505 
L 707.442603 114.791098 
L 715.889828 114.572016 
L 724.337052 114.354249 
L 732.784277 114.137787 
L 741.231502 113.922626 
L 749.678727 113.708753 
L 758.125952 113.496162 
L 766.573176 113.284843 
L 775.020401 113.074787 
L 783.467626 112.86599 
L 791.914851 112.658441 
L 800.362075 112.452136 
L 808.8093 112.247063 
L 817.256525 112.040729 
L 825.70375 111.833621 
L 834.150975 111.627747 
L 842.598199 111.423099 
L 851.045424 111.21967 
L 859.492649 111.017452 
L 867.939874 110.816445 
L 876.387098 110.616642 
L 884.834323 110.418028 
L 893.281548 110.220594 
" clip-path="url(#pd3056186da)" style="fill: none; stroke: #6b6ecf; stroke-width: 2; stroke-linecap: round"/>
   </g>
   <g id="line2d_39">
    <path d="M 48.559071 296.987908 
L 57.006295 296.049002 
L 65.45352 295.10587 
L 73.900745 294.169321 
L 82.34797 293.237309 
L 90.795195 292.302802 
L 99.242419 291.3769 
L 107.689644 290.450357 
L 116.136869 289.526134 
L 124.584094 288.61029 
L 133.031318 287.689824 
L 141.478543 286.775637 
L 149.925768 285.868446 
L 158.372993 284.955549 
L 166.820217 284.050793 
L 175.267442 283.151257 
L 183.714667 282.247583 
L 192.161892 281.351863 
L 200.609117 280.460416 
L 209.056341 279.565719 
L 217.503566 278.678788 
L 225.950791 277.796224 
L 234.398016 276.91001 
L 242.84524 276.031333 
L 251.292465 275.158674 
L 259.73969 274.280647 
L 268.186915 273.410048 
L 276.63414 272.546789 
L 285.081364 271.677536 
L 293.528589 270.81479 
L 301.975814 269.959198 
L 310.423039 269.101535 
L 318.870263 268.245827 
L 327.317488 267.397523 
L 335.764713 266.552633 
L 344.211938 265.703934 
L 352.659162 264.862479 
L 361.106387 264.027951 
L 369.553612 263.18917 
L 378.000837 262.354249 
L 386.448062 261.526263 
L 394.895286 260.702446 
L 403.342511 259.873782 
L 411.789736 259.051788 
L 420.236961 258.236667 
L 428.684185 257.421169 
L 437.13141 256.605317 
L 445.578635 255.796064 
L 454.02586 254.993265 
L 462.473085 254.187175 
L 470.920309 253.383419 
L 479.367534 252.586224 
L 487.814759 251.795406 
L 496.261984 251.000292 
L 504.709208 250.20803 
L 513.156433 249.422159 
L 521.603658 248.642586 
L 530.050883 247.859654 
L 538.498107 247.078743 
L 546.945332 246.303975 
L 555.392557 245.535278 
L 563.839782 244.765567 
L 572.287007 243.995278 
L 580.734231 243.231138 
L 589.181456 242.472945 
L 597.628681 241.718367 
L 606.075906 240.958347 
L 614.52313 240.204155 
L 622.970355 239.455852 
L 631.41758 238.71338 
L 639.864805 237.967568 
L 648.31203 237.223215 
L 656.759254 236.4846 
L 665.206479 235.751589 
L 673.653704 235.023738 
L 682.100929 234.288537 
L 690.548153 233.558995 
L 698.995378 232.835137 
L 707.442603 232.11675 
L 715.889828 231.401103 
L 724.337052 230.680285 
L 732.784277 229.964837 
L 741.231502 229.255067 
L 749.678727 228.550577 
L 758.125952 227.848824 
L 766.573176 227.141862 
L 775.020401 226.440142 
L 783.467626 225.743607 
L 791.914851 225.052317 
L 800.362075 224.366235 
L 808.8093 223.672647 
L 817.256525 222.983995 
L 825.70375 222.300342 
L 834.150975 221.62172 
L 842.598199 220.948153 
L 851.045424 220.272345 
L 859.492649 219.596123 
L 867.939874 218.92489 
L 876.387098 218.258488 
L 884.834323 217.596922 
L 893.281548 216.940176 
" clip-path="url(#pd3056186da)" style="fill: none; stroke: #637939; stroke-width: 2; stroke-linecap: round"/>
   </g>
   <g id="line2d_40">
    <path d="M 48.559071 396.842892 
L 57.006295 395.716863 
L 65.45352 394.591689 
L 73.900745 393.467377 
L 82.34797 392.343626 
L 90.795195 391.220769 
L 99.242419 390.098837 
L 107.689644 388.977101 
L 116.136869 387.856207 
L 124.584094 386.736375 
L 133.031318 385.617709 
L 141.478543 384.500138 
L 149.925768 383.383573 
L 158.372993 382.268265 
L 166.820217 381.153514 
L 175.267442 380.039988 
L 183.714667 378.927567 
L 192.161892 377.816376 
L 200.609117 376.706723 
L 209.056341 375.598541 
L 217.503566 374.491927 
L 225.950791 373.386938 
L 234.398016 372.283878 
L 242.84524 371.181791 
L 251.292465 370.079856 
L 259.73969 368.979926 
L 268.186915 367.882107 
L 276.63414 366.786457 
L 285.081364 365.693145 
L 293.528589 364.599301 
L 301.975814 363.507343 
L 310.423039 362.417747 
L 318.870263 361.33147 
L 327.317488 360.245274 
L 335.764713 359.159987 
L 344.211938 358.077932 
L 352.659162 356.999371 
L 361.106387 355.919424 
L 369.553612 354.842062 
L 378.000837 353.768619 
L 386.448062 352.696172 
L 394.895286 351.624207 
L 403.342511 350.556449 
L 411.789736 349.490417 
L 420.236961 348.424262 
L 428.684185 347.362912 
L 437.13141 346.302896 
L 445.578635 345.2434 
L 454.02586 344.189164 
L 462.473085 343.13398 
L 470.920309 342.081924 
L 479.367534 341.034898 
L 487.814759 339.985201 
L 496.261984 338.941688 
L 504.709208 337.898228 
L 513.156433 336.857343 
L 521.603658 335.821108 
L 530.050883 334.78321 
L 538.498107 333.75262 
L 546.945332 332.719028 
L 555.392557 331.691758 
L 563.839782 330.664434 
L 572.287007 329.64083 
L 580.734231 328.619856 
L 589.181456 327.600166 
L 597.628681 326.585019 
L 606.075906 325.56949 
L 614.52313 324.559832 
L 622.970355 323.548721 
L 631.41758 322.544453 
L 639.864805 321.538276 
L 648.31203 320.539028 
L 656.759254 319.538141 
L 665.206479 318.543595 
L 673.653704 317.548124 
L 682.100929 316.558345 
L 690.548153 315.568478 
L 698.995378 314.58316 
L 707.442603 313.600179 
L 715.889828 312.618772 
L 724.337052 311.642229 
L 732.784277 310.66457 
L 741.231502 309.695811 
L 749.678727 308.721993 
L 758.125952 307.757389 
L 766.573176 306.790344 
L 775.020401 305.829093 
L 783.467626 304.870375 
L 791.914851 303.912215 
L 800.362075 302.962466 
L 808.8093 302.007194 
L 817.256525 301.060911 
L 825.70375 300.114412 
L 834.150975 299.170615 
L 842.598199 298.234218 
L 851.045424 297.292837 
L 859.492649 296.360156 
L 867.939874 295.428158 
L 876.387098 294.497574 
L 884.834323 293.575433 
L 893.281548 292.648188 
" clip-path="url(#pd3056186da)" style="fill: none; stroke: #b5cf6b; stroke-width: 2; stroke-linecap: round"/>
   </g>
   <g id="line2d_41">
    <path d="M 48.559071 492.264792 
L 57.006295 491.410228 
L 65.45352 490.547659 
L 73.900745 489.677173 
L 82.34797 488.798759 
L 90.795195 487.912839 
L 99.242419 487.019501 
L 107.689644 486.11885 
L 116.136869 485.211005 
L 124.584094 484.29606 
L 133.031318 483.374324 
L 141.478543 482.446075 
L 149.925768 481.510965 
L 158.372993 480.569594 
L 166.820217 479.621944 
L 175.267442 478.668208 
L 183.714667 477.708421 
L 192.161892 476.742898 
L 200.609117 475.771412 
L 209.056341 474.794705 
L 217.503566 473.812196 
L 225.950791 472.824421 
L 234.398016 471.831548 
L 242.84524 470.833536 
L 251.292465 469.830644 
L 259.73969 468.823033 
L 268.186915 467.810699 
L 276.63414 466.79348 
L 285.081364 465.772085 
L 293.528589 464.746248 
L 301.975814 463.716433 
L 310.423039 462.682062 
L 318.870263 461.643903 
L 327.317488 460.601868 
L 335.764713 459.556056 
L 344.211938 458.50656 
L 352.659162 457.453528 
L 361.106387 456.396997 
L 369.553612 455.337161 
L 378.000837 454.274348 
L 386.448062 453.207841 
L 394.895286 452.138519 
L 403.342511 451.066672 
L 411.789736 449.991052 
L 420.236961 448.913674 
L 428.684185 447.832682 
L 437.13141 446.749869 
L 445.578635 445.664285 
L 454.02586 444.576081 
L 462.473085 443.48594 
L 470.920309 442.393812 
L 479.367534 441.29914 
L 487.814759 440.20235 
L 496.261984 439.103676 
L 504.709208 438.003148 
L 513.156433 436.900937 
L 521.603658 435.797056 
L 530.050883 434.691609 
L 538.498107 433.584672 
L 546.945332 432.47635 
L 555.392557 431.366804 
L 563.839782 430.255118 
L 572.287007 429.142387 
L 580.734231 428.028795 
L 589.181456 426.914606 
L 597.628681 425.79868 
L 606.075906 424.681737 
L 614.52313 423.56469 
L 622.970355 422.445988 
L 631.41758 421.326756 
L 639.864805 420.207478 
L 648.31203 419.086549 
L 656.759254 417.96645 
L 665.206479 416.844302 
L 673.653704 415.72308 
L 682.100929 414.600605 
L 690.548153 413.478056 
L 698.995378 412.355936 
L 707.442603 411.232532 
L 715.889828 410.110192 
L 724.337052 408.986995 
L 732.784277 407.863333 
L 741.231502 406.74105 
L 749.678727 405.618757 
L 758.125952 404.495297 
L 766.573176 403.372722 
L 775.020401 402.25098 
L 783.467626 401.130042 
L 791.914851 400.007815 
L 800.362075 398.88636 
L 808.8093 397.765648 
L 817.256525 396.645831 
L 825.70375 395.526661 
L 834.150975 394.408224 
L 842.598199 393.290557 
L 851.045424 392.173158 
L 859.492649 391.056172 
L 867.939874 389.940129 
L 876.387098 388.824997 
L 884.834323 387.710816 
L 893.281548 386.59759 
" clip-path="url(#pd3056186da)" style="fill: none; stroke: #8c6d31; stroke-width: 2; stroke-linecap: round"/>
   </g>
   <g id="line2d_42">
    <path d="M 48.559071 517.30572 
L 57.006295 516.920972 
L 65.45352 516.519955 
L 73.900745 516.102926 
L 82.34797 515.670096 
L 90.795195 515.221793 
L 99.242419 514.758245 
L 107.689644 514.279665 
L 116.136869 513.786321 
L 124.584094 513.278457 
L 133.031318 512.75634 
L 141.478543 512.220199 
L 149.925768 511.670204 
L 158.372993 511.106663 
L 166.820217 510.529769 
L 175.267442 509.939789 
L 183.714667 509.33688 
L 192.161892 508.721269 
L 200.609117 508.093259 
L 209.056341 507.453004 
L 217.503566 506.800723 
L 225.950791 506.136599 
L 234.398016 505.460907 
L 242.84524 504.773766 
L 251.292465 504.075458 
L 259.73969 503.36618 
L 268.186915 502.646052 
L 276.63414 501.915358 
L 285.081364 501.174161 
L 293.528589 500.422903 
L 301.975814 499.661549 
L 310.423039 498.890271 
L 318.870263 498.10944 
L 327.317488 497.319137 
L 335.764713 496.519443 
L 344.211938 495.710662 
L 352.659162 494.892983 
L 361.106387 494.066497 
L 369.553612 493.23141 
L 378.000837 492.387878 
L 386.448062 491.536114 
L 394.895286 490.676281 
L 403.342511 489.808494 
L 411.789736 488.932841 
L 420.236961 488.049652 
L 428.684185 487.159005 
L 437.13141 486.261157 
L 445.578635 485.356066 
L 454.02586 484.443907 
L 462.473085 483.524836 
L 470.920309 482.599197 
L 479.367534 481.667 
L 487.814759 480.728404 
L 496.261984 479.783481 
L 504.709208 478.832364 
L 513.156433 477.875293 
L 521.603658 476.912464 
L 530.050883 475.943882 
L 538.498107 474.969724 
L 546.945332 473.98998 
L 555.392557 473.00502 
L 563.839782 472.014796 
L 572.287007 471.019551 
L 580.734231 470.019289 
L 589.181456 469.014219 
L 597.628681 468.004578 
L 606.075906 466.990304 
L 614.52313 465.971308 
L 622.970355 464.948347 
L 631.41758 463.920804 
L 639.864805 462.889312 
L 648.31203 461.853798 
L 656.759254 460.814661 
L 665.206479 459.771471 
L 673.653704 458.724661 
L 682.100929 457.67422 
L 690.548153 456.620031 
L 698.995378 455.562705 
L 707.442603 454.502184 
L 715.889828 453.438726 
L 724.337052 452.371857 
L 732.784277 451.301816 
L 741.231502 450.229825 
L 749.678727 449.154066 
L 758.125952 448.076368 
L 766.573176 446.995505 
L 775.020401 445.912376 
L 783.467626 444.827345 
L 791.914851 443.739179 
L 800.362075 442.649046 
L 808.8093 441.556891 
L 817.256525 440.462922 
L 825.70375 439.366934 
L 834.150975 438.268996 
L 842.598199 437.169228 
L 851.045424 436.067678 
L 859.492649 434.964407 
L 867.939874 433.859576 
L 876.387098 432.753197 
L 884.834323 431.64551 
L 893.281548 430.536598 
" clip-path="url(#pd3056186da)" style="fill: none; stroke: #e7cb94; stroke-width: 2; stroke-linecap: round"/>
   </g>
   <g id="line2d_43">
    <path d="M 48.559071 520.556133 
L 57.006295 520.388828 
L 65.45352 520.201872 
L 73.900745 519.995567 
L 82.34797 519.770184 
L 90.795195 519.52605 
L 99.242419 519.263449 
L 107.689644 518.982646 
L 116.136869 518.683935 
L 124.584094 518.367595 
L 133.031318 518.033921 
L 141.478543 517.683176 
L 149.925768 517.315602 
L 158.372993 516.931505 
L 166.820217 516.531126 
L 175.267442 516.114755 
L 183.714667 515.682603 
L 192.161892 515.234938 
L 200.609117 514.772049 
L 209.056341 514.294171 
L 217.503566 513.801525 
L 225.950791 513.294356 
L 234.398016 512.772932 
L 242.84524 512.237451 
L 251.292465 511.688193 
L 259.73969 511.125383 
L 268.186915 510.549192 
L 276.63414 509.9599 
L 285.081364 509.357669 
L 293.528589 508.742908 
L 301.975814 508.115628 
L 310.423039 507.476019 
L 318.870263 506.824527 
L 327.317488 506.161172 
L 335.764713 505.486193 
L 344.211938 504.799817 
L 352.659162 504.102295 
L 361.106387 503.393716 
L 369.553612 502.674347 
L 378.000837 501.944379 
L 386.448062 501.204038 
L 394.895286 500.453532 
L 403.342511 499.692928 
L 411.789736 498.922412 
L 420.236961 498.142332 
L 428.684185 497.352739 
L 437.13141 496.553923 
L 445.578635 495.745942 
L 454.02586 494.929016 
L 462.473085 494.103241 
L 470.920309 493.268906 
L 479.367534 492.426264 
L 487.814759 491.575355 
L 496.261984 490.716158 
L 504.709208 489.84908 
L 513.156433 488.974295 
L 521.603658 488.091974 
L 530.050883 487.202034 
L 538.498107 486.304896 
L 546.945332 485.400574 
L 555.392557 484.489212 
L 563.839782 483.570967 
L 572.287007 482.646159 
L 580.734231 481.71468 
L 589.181456 480.776799 
L 597.628681 479.832692 
L 606.075906 478.882416 
L 614.52313 477.926119 
L 622.970355 476.964183 
L 631.41758 475.996071 
L 639.864805 475.0229 
L 648.31203 474.043785 
L 656.759254 473.059626 
L 665.206479 472.070097 
L 673.653704 471.07563 
L 682.100929 470.076195 
L 690.548153 469.071811 
L 698.995378 468.063101 
L 707.442603 467.049349 
L 715.889828 466.031416 
L 724.337052 465.008848 
L 732.784277 463.982309 
L 741.231502 462.951475 
L 749.678727 461.916661 
L 758.125952 460.878035 
L 766.573176 459.835638 
L 775.020401 458.789493 
L 783.467626 457.739753 
L 791.914851 456.686451 
L 800.362075 455.629882 
L 808.8093 454.570099 
L 817.256525 453.507502 
L 825.70375 452.441079 
L 834.150975 451.372104 
L 842.598199 450.300255 
L 851.045424 449.225522 
L 859.492649 448.148236 
L 867.939874 447.068511 
L 876.387098 445.985848 
L 884.834323 444.901292 
L 893.281548 443.814332 
" clip-path="url(#pd3056186da)" style="fill: none; stroke: #ad494a; stroke-width: 2; stroke-linecap: round"/>
   </g>
   <g id="line2d_44">
    <path d="M 48.559071 521.643002 
L 57.006295 521.27005 
L 65.45352 520.996361 
L 73.900745 520.795206 
L 82.34797 520.644084 
L 90.795195 520.488368 
L 99.242419 520.312834 
L 107.689644 520.117767 
L 116.136869 519.903475 
L 124.584094 519.670251 
L 133.031318 519.4184 
L 141.478543 519.148205 
L 149.925768 518.859927 
L 158.372993 518.553879 
L 166.820217 518.230322 
L 175.267442 517.889552 
L 183.714667 517.531806 
L 192.161892 517.157362 
L 200.609117 516.766517 
L 209.056341 516.359518 
L 217.503566 515.936614 
L 225.950791 515.498054 
L 234.398016 515.044118 
L 242.84524 514.575015 
L 251.292465 514.091045 
L 259.73969 513.592442 
L 268.186915 513.0794 
L 276.63414 512.552199 
L 285.081364 512.011013 
L 293.528589 511.45626 
L 301.975814 510.887972 
L 310.423039 510.30637 
L 318.870263 509.711857 
L 327.317488 509.104527 
L 335.764713 508.484605 
L 344.211938 507.852319 
L 352.659162 507.207921 
L 361.106387 506.551553 
L 369.553612 505.883445 
L 378.000837 505.203881 
L 386.448062 504.512989 
L 394.895286 503.81102 
L 403.342511 503.098109 
L 411.789736 502.374458 
L 420.236961 501.640303 
L 428.684185 500.895849 
L 437.13141 500.141268 
L 445.578635 499.376741 
L 454.02586 498.602446 
L 462.473085 497.818546 
L 470.920309 497.025196 
L 479.367534 496.222806 
L 487.814759 495.411259 
L 496.261984 494.590791 
L 504.709208 493.76166 
L 513.156433 492.924038 
L 521.603658 492.078027 
L 530.050883 491.223942 
L 538.498107 490.361703 
L 546.945332 489.49162 
L 555.392557 488.613881 
L 563.839782 487.728421 
L 572.287007 486.835808 
L 580.734231 485.935788 
L 589.181456 485.028761 
L 597.628681 484.11486 
L 606.075906 483.193966 
L 614.52313 482.266582 
L 622.970355 481.332615 
L 631.41758 480.392245 
L 639.864805 479.445851 
L 648.31203 478.493206 
L 656.759254 477.534868 
L 665.206479 476.570498 
L 673.653704 475.600497 
L 682.100929 474.62505 
L 690.548153 473.644174 
L 698.995378 472.657947 
L 707.442603 471.666633 
L 715.889828 470.670326 
L 724.337052 469.669099 
L 732.784277 468.662826 
L 741.231502 467.652183 
L 749.678727 466.637131 
L 758.125952 465.61729 
L 766.573176 464.593595 
L 775.020401 463.565175 
L 783.467626 462.53298 
L 791.914851 461.496892 
L 800.362075 460.457038 
L 808.8093 459.413211 
L 817.256525 458.365879 
L 825.70375 457.314901 
L 834.150975 456.260321 
L 842.598199 455.202466 
L 851.045424 454.141547 
L 859.492649 453.077814 
L 867.939874 452.010528 
L 876.387098 450.940557 
L 884.834323 449.867858 
L 893.281548 448.792189 
" clip-path="url(#pd3056186da)" style="fill: none; stroke: #e7969c; stroke-width: 2; stroke-linecap: round"/>
   </g>
   <g id="line2d_45">
    <path d="M 48.559071 523.037308 
L 57.006295 522.290663 
L 65.45352 521.7446 
L 73.900745 521.344609 
L 82.34797 521.051124 
L 90.795195 520.835493 
L 99.242419 520.676574 
L 107.689644 520.525404 
L 116.136869 520.354342 
L 124.584094 520.16369 
L 133.031318 519.953758 
L 141.478543 519.724837 
L 149.925768 519.4772 
L 158.372993 519.211162 
L 166.820217 518.926994 
L 175.267442 518.624998 
L 183.714667 518.305419 
L 192.161892 517.968545 
L 200.609117 517.614673 
L 209.056341 517.244061 
L 217.503566 516.856964 
L 225.950791 516.453639 
L 234.398016 516.03437 
L 242.84524 515.599382 
L 251.292465 515.148971 
L 259.73969 514.683374 
L 268.186915 514.202805 
L 276.63414 513.707537 
L 285.081364 513.197768 
L 293.528589 512.673899 
L 301.975814 512.135984 
L 310.423039 511.584252 
L 318.870263 511.0191 
L 327.317488 510.440632 
L 335.764713 509.849077 
L 344.211938 509.244687 
L 352.659162 508.627686 
L 361.106387 507.998265 
L 369.553612 507.35665 
L 378.000837 506.703064 
L 386.448062 506.037735 
L 394.895286 505.360851 
L 403.342511 504.672597 
L 411.789736 503.973148 
L 420.236961 503.262792 
L 428.684185 502.541677 
L 437.13141 501.810017 
L 445.578635 501.067989 
L 454.02586 500.315781 
L 462.473085 499.553558 
L 470.920309 498.781476 
L 479.367534 497.999928 
L 487.814759 497.208861 
L 496.261984 496.408521 
L 504.709208 495.599077 
L 513.156433 494.780748 
L 521.603658 493.953747 
L 530.050883 493.118191 
L 538.498107 492.274171 
L 546.945332 491.421915 
L 555.392557 490.561606 
L 563.839782 489.693348 
L 572.287007 488.817408 
L 580.734231 487.933934 
L 589.181456 487.042947 
L 597.628681 486.144777 
L 606.075906 485.239432 
L 614.52313 484.327022 
L 622.970355 483.407933 
L 631.41758 482.48207 
L 639.864805 481.549814 
L 648.31203 480.610951 
L 656.759254 479.666069 
L 665.206479 478.7149 
L 673.653704 477.757969 
L 682.100929 476.795074 
L 690.548153 475.826334 
L 698.995378 474.85227 
L 707.442603 473.872891 
L 715.889828 472.887909 
L 724.337052 471.897733 
L 732.784277 470.902481 
L 741.231502 469.902659 
L 749.678727 468.897899 
L 758.125952 467.888162 
L 766.573176 466.874099 
L 775.020401 465.855565 
L 783.467626 464.832692 
L 791.914851 463.805491 
L 800.362075 462.774513 
L 808.8093 461.739297 
L 817.256525 460.700179 
L 825.70375 459.657301 
L 834.150975 458.610761 
L 842.598199 457.560735 
L 851.045424 456.507352 
L 859.492649 455.450684 
L 867.939874 454.390368 
L 876.387098 453.327048 
L 884.834323 452.261102 
L 893.281548 451.1916 
" clip-path="url(#pd3056186da)" style="fill: none; stroke: #a55194; stroke-width: 2; stroke-linecap: round"/>
   </g>
   <g id="line2d_46">
    <path d="M 48.559071 524.557646 
L 57.006295 523.40057 
L 65.45352 522.556149 
L 73.900745 521.93893 
L 82.34797 521.487018 
L 90.795195 521.155688 
L 99.242419 520.912375 
L 107.689644 520.733423 
L 116.136869 520.587172 
L 124.584094 520.423895 
L 133.031318 520.240921 
L 141.478543 520.038547 
L 149.925768 519.817052 
L 158.372993 519.576753 
L 166.820217 519.317927 
L 175.267442 519.040879 
L 183.714667 518.745864 
L 192.161892 518.433169 
L 200.609117 518.103096 
L 209.056341 517.755907 
L 217.503566 517.391866 
L 225.950791 517.011229 
L 234.398016 516.614288 
L 242.84524 516.201271 
L 251.292465 515.772474 
L 259.73969 515.328144 
L 268.186915 514.8685 
L 276.63414 514.393815 
L 285.081364 513.90429 
L 293.528589 513.400331 
L 301.975814 512.882003 
L 310.423039 512.349527 
L 318.870263 511.803311 
L 327.317488 511.243458 
L 335.764713 510.670211 
L 344.211938 510.083811 
L 352.659162 509.484506 
L 361.106387 508.872466 
L 369.553612 508.24793 
L 378.000837 507.611151 
L 386.448062 506.96231 
L 394.895286 506.301643 
L 403.342511 505.629313 
L 411.789736 504.945507 
L 420.236961 504.250529 
L 428.684185 503.544505 
L 437.13141 502.82766 
L 445.578635 502.100186 
L 454.02586 501.362248 
L 462.473085 500.61401 
L 470.920309 499.855743 
L 479.367534 499.087689 
L 487.814759 498.309889 
L 496.261984 497.522535 
L 504.709208 496.72588 
L 513.156433 495.920067 
L 521.603658 495.105333 
L 530.050883 494.281748 
L 538.498107 493.449596 
L 546.945332 492.608919 
L 555.392557 491.759943 
L 563.839782 490.902818 
L 572.287007 490.037829 
L 580.734231 489.164957 
L 589.181456 488.284426 
L 597.628681 487.396549 
L 606.075906 486.501147 
L 614.52313 485.598579 
L 622.970355 484.689103 
L 631.41758 483.772682 
L 639.864805 482.849553 
L 648.31203 481.919839 
L 656.759254 480.98368 
L 665.206479 480.041097 
L 673.653704 479.092506 
L 682.100929 478.137922 
L 690.548153 477.177363 
L 698.995378 476.210993 
L 707.442603 475.239327 
L 715.889828 474.261792 
L 724.337052 473.27895 
L 732.784277 472.290863 
L 741.231502 471.297949 
L 749.678727 470.299861 
L 758.125952 469.296924 
L 766.573176 468.289381 
L 775.020401 467.277137 
L 783.467626 466.260293 
L 791.914851 465.239295 
L 800.362075 464.213841 
L 808.8093 463.184217 
L 817.256525 462.150863 
L 825.70375 461.113561 
L 834.150975 460.072107 
L 842.598199 459.027066 
L 851.045424 457.978518 
L 859.492649 456.926572 
L 867.939874 455.870991 
L 876.387098 454.812057 
L 884.834323 453.750137 
L 893.281548 452.685443 
" clip-path="url(#pd3056186da)" style="fill: none; stroke: #de9ed6; stroke-width: 2; stroke-linecap: round"/>
   </g>
   <g id="patch_3">
    <path d="M 48.559071 521.153031 
L 48.559071 51.564121 
" style="fill: none"/>
   </g>
   <g id="patch_4">
    <path d="M 935.517672 521.153031 
L 935.517672 51.564121 
" style="fill: none"/>
   </g>
   <g id="patch_5">
    <path d="M 48.559071 521.153031 
L 935.517672 521.153031 
" style="fill: none"/>
   </g>
   <g id="patch_6">
    <path d="M 48.559071 51.564121 
L 935.517672 51.564121 
" style="fill: none"/>
   </g>
   <g id="patch_7">
    <path d="M 470.920309 80.560507 
Q 470.920309 285.855706 470.920309 489.473854 
" style="fill: none; stroke: #000000; stroke-width: 1.5; stroke-linecap: round"/>
    <path d="M 474.120309 483.073854 
L 470.920309 489.473854 
L 467.720309 483.073854 
" style="fill: none; stroke: #000000; stroke-width: 1.5; stroke-linecap: round"/>
   </g>
   <g id="text_20">
    <!-- Time -->
    <g style="fill: #262626" transform="translate(492.038371 489.661698) scale(0.18 -0.18)">
     <defs>
      <path id="CMR17-54" d="M 3981 4326 
L 288 4326 
L 179 2918 
L 294 2918 
C 378 3976 467 4160 1453 4160 
C 1568 4160 1754 4160 1805 4154 
C 1926 4135 1926 4058 1926 3912 
L 1926 459 
C 1926 230 1907 160 1376 160 
L 1197 160 
L 1197 0 
C 1504 0 1824 0 2138 0 
C 2451 0 2771 0 3078 0 
L 3078 160 
L 2899 160 
C 2368 160 2349 230 2349 459 
L 2349 3912 
C 2349 4052 2349 4129 2464 4154 
C 2515 4160 2701 4160 2816 4160 
C 3795 4160 3891 3976 3974 2918 
L 4090 2918 
L 3981 4326 
z
" transform="scale(0.015625)"/>
      <path id="CMR17-69" d="M 992 3909 
C 992 4049 877 4170 730 4170 
C 589 4170 467 4056 467 3909 
C 467 3769 582 3648 730 3648 
C 870 3648 992 3763 992 3909 
z
M 243 2706 
L 243 2541 
C 602 2541 653 2502 653 2197 
L 653 427 
C 653 184 627 153 218 153 
L 218 -13 
C 371 0 646 0 806 0 
C 960 0 1222 0 1370 -13 
L 1370 153 
C 992 153 979 191 979 420 
L 979 2776 
L 243 2706 
z
" transform="scale(0.015625)"/>
      <path id="CMR17-6d" d="M 4326 1933 
C 4326 2252 4269 2790 3507 2790 
C 3072 2790 2771 2496 2656 2151 
L 2650 2151 
C 2573 2676 2195 2790 1837 2790 
C 1331 2790 1069 2400 973 2144 
L 966 2144 
L 966 2790 
L 211 2720 
L 211 2554 
C 589 2554 646 2515 646 2208 
L 646 428 
C 646 184 621 153 211 153 
L 211 -13 
C 365 0 646 0 813 0 
C 979 0 1267 0 1421 -13 
L 1421 153 
C 1011 153 986 178 986 428 
L 986 1658 
C 986 2247 1344 2688 1792 2688 
C 2266 2688 2317 2266 2317 1958 
L 2317 428 
C 2317 184 2291 153 1882 153 
L 1882 -13 
C 2035 0 2317 0 2483 0 
C 2650 0 2938 0 3091 -13 
L 3091 153 
C 2682 153 2656 178 2656 428 
L 2656 1658 
C 2656 2247 3014 2688 3462 2688 
C 3936 2688 3987 2266 3987 1958 
L 3987 428 
C 3987 184 3962 153 3552 153 
L 3552 -13 
C 3706 0 3987 0 4154 0 
C 4320 0 4608 0 4762 -13 
L 4762 153 
C 4352 153 4326 178 4326 428 
L 4326 1933 
z
" transform="scale(0.015625)"/>
      <path id="CMR17-65" d="M 2438 1472 
C 2464 1498 2464 1511 2464 1576 
C 2464 2238 2118 2816 1389 2816 
C 710 2816 173 2169 173 1383 
C 173 551 781 -64 1459 -64 
C 2176 -64 2458 607 2458 740 
C 2458 784 2419 784 2406 784 
C 2362 784 2355 771 2330 696 
C 2189 265 1837 51 1504 51 
C 1229 51 954 203 781 480 
C 582 803 582 1176 582 1472 
L 2438 1472 
z
M 589 1568 
C 634 2505 1126 2714 1382 2714 
C 1818 2714 2112 2297 2118 1568 
L 589 1568 
z
" transform="scale(0.015625)"/>
     </defs>
     <use xlink:href="#CMR17-54" transform="scale(0.996264)"/>
     <use xlink:href="#CMR17-69" transform="translate(66.509881 0) scale(0.996264)"/>
     <use xlink:href="#CMR17-6d" transform="translate(91.380939 0) scale(0.996264)"/>
     <use xlink:href="#CMR17-65" transform="translate(168.300529 0) scale(0.996264)"/>
    </g>
   </g>
   <g id="legend_1">
    <g id="line2d_47">
     <path d="M 948.117672 197.198434 
L 962.117672 197.198434 
L 976.117672 197.198434 
" style="fill: none; stroke: #393b79; stroke-width: 2; stroke-linecap: round"/>
    </g>
    <g id="text_21">
     <!-- t = 0.00 -->
     <g style="fill: #262626" transform="translate(987.317672 202.098434) scale(0.14 -0.14)">
      <defs>
       <path id="CMR17-74" d="M 966 2560 
L 1862 2560 
L 1862 2725 
L 966 2725 
L 966 3904 
L 851 3904 
C 838 3245 614 2668 70 2668 
L 70 2560 
L 627 2560 
L 627 771 
C 627 650 627 -64 1370 -64 
C 1747 -64 1965 306 1965 777 
L 1965 1140 
L 1850 1140 
L 1850 783 
C 1850 344 1677 51 1408 51 
C 1222 51 966 178 966 758 
L 966 2560 
z
" transform="scale(0.015625)"/>
       <path id="CMR17-3d" d="M 4115 2017 
C 4211 2017 4307 2017 4307 2125 
C 4307 2240 4198 2240 4090 2240 
L 512 2240 
C 403 2240 294 2240 294 2125 
C 294 2017 390 2017 486 2017 
L 4115 2017 
z
M 4090 896 
C 4198 896 4307 896 4307 1011 
C 4307 1119 4211 1119 4115 1119 
L 486 1119 
C 390 1119 294 1119 294 1011 
C 294 896 403 896 512 896 
L 4090 896 
z
" transform="scale(0.015625)"/>
       <path id="CMR17-2e" d="M 1062 261 
C 1062 420 934 522 800 522 
C 672 522 538 420 538 261 
C 538 102 666 0 800 0 
C 928 0 1062 102 1062 261 
z
" transform="scale(0.015625)"/>
      </defs>
      <use xlink:href="#CMR17-74" transform="scale(0.996264)"/>
      <use xlink:href="#CMR17-3d" transform="translate(65.356734 0) scale(0.996264)"/>
      <use xlink:href="#CMR17-30" transform="translate(167.147489 0) scale(0.996264)"/>
      <use xlink:href="#CMR17-2e" transform="translate(212.837966 0) scale(0.996264)"/>
      <use xlink:href="#CMR17-30" transform="translate(237.709025 0) scale(0.996264)"/>
      <use xlink:href="#CMR17-30" transform="translate(283.399502 0) scale(0.996264)"/>
     </g>
    </g>
    <g id="line2d_48">
     <path d="M 948.117672 216.710462 
L 962.117672 216.710462 
L 976.117672 216.710462 
" style="fill: none; stroke: #6b6ecf; stroke-width: 2; stroke-linecap: round"/>
    </g>
    <g id="text_22">
     <!-- t = 10.00 -->
     <g style="fill: #262626" transform="translate(987.317672 221.610462) scale(0.14 -0.14)">
      <use xlink:href="#CMR17-74" transform="scale(0.996264)"/>
      <use xlink:href="#CMR17-3d" transform="translate(65.356734 0) scale(0.996264)"/>
      <use xlink:href="#CMR17-31" transform="translate(167.147489 0) scale(0.996264)"/>
      <use xlink:href="#CMR17-30" transform="translate(212.837966 0) scale(0.996264)"/>
      <use xlink:href="#CMR17-2e" transform="translate(258.528443 0) scale(0.996264)"/>
      <use xlink:href="#CMR17-30" transform="translate(283.399502 0) scale(0.996264)"/>
      <use xlink:href="#CMR17-30" transform="translate(329.089979 0) scale(0.996264)"/>
     </g>
    </g>
    <g id="line2d_49">
     <path d="M 948.117672 236.222491 
L 962.117672 236.222491 
L 976.117672 236.222491 
" style="fill: none; stroke: #637939; stroke-width: 2; stroke-linecap: round"/>
    </g>
    <g id="text_23">
     <!-- t = 50.00 -->
     <g style="fill: #262626" transform="translate(987.317672 241.122491) scale(0.14 -0.14)">
      <use xlink:href="#CMR17-74" transform="scale(0.996264)"/>
      <use xlink:href="#CMR17-3d" transform="translate(65.356734 0) scale(0.996264)"/>
      <use xlink:href="#CMR17-35" transform="translate(167.147489 0) scale(0.996264)"/>
      <use xlink:href="#CMR17-30" transform="translate(212.837966 0) scale(0.996264)"/>
      <use xlink:href="#CMR17-2e" transform="translate(258.528443 0) scale(0.996264)"/>
      <use xlink:href="#CMR17-30" transform="translate(283.399502 0) scale(0.996264)"/>
      <use xlink:href="#CMR17-30" transform="translate(329.089979 0) scale(0.996264)"/>
     </g>
    </g>
    <g id="line2d_50">
     <path d="M 948.117672 255.734519 
L 962.117672 255.734519 
L 976.117672 255.734519 
" style="fill: none; stroke: #b5cf6b; stroke-width: 2; stroke-linecap: round"/>
    </g>
    <g id="text_24">
     <!-- t = 100.00 -->
     <g style="fill: #262626" transform="translate(987.317672 260.634519) scale(0.14 -0.14)">
      <use xlink:href="#CMR17-74" transform="scale(0.996264)"/>
      <use xlink:href="#CMR17-3d" transform="translate(65.356734 0) scale(0.996264)"/>
      <use xlink:href="#CMR17-31" transform="translate(167.147489 0) scale(0.996264)"/>
      <use xlink:href="#CMR17-30" transform="translate(212.837966 0) scale(0.996264)"/>
      <use xlink:href="#CMR17-30" transform="translate(258.528443 0) scale(0.996264)"/>
      <use xlink:href="#CMR17-2e" transform="translate(304.21892 0) scale(0.996264)"/>
      <use xlink:href="#CMR17-30" transform="translate(329.089979 0) scale(0.996264)"/>
      <use xlink:href="#CMR17-30" transform="translate(374.780456 0) scale(0.996264)"/>
     </g>
    </g>
    <g id="line2d_51">
     <path d="M 948.117672 275.246547 
L 962.117672 275.246547 
L 976.117672 275.246547 
" style="fill: none; stroke: #8c6d31; stroke-width: 2; stroke-linecap: round"/>
    </g>
    <g id="text_25">
     <!-- t = 250.00 -->
     <g style="fill: #262626" transform="translate(987.317672 280.146547) scale(0.14 -0.14)">
      <use xlink:href="#CMR17-74" transform="scale(0.996264)"/>
      <use xlink:href="#CMR17-3d" transform="translate(65.356734 0) scale(0.996264)"/>
      <use xlink:href="#CMR17-32" transform="translate(167.147489 0) scale(0.996264)"/>
      <use xlink:href="#CMR17-35" transform="translate(212.837966 0) scale(0.996264)"/>
      <use xlink:href="#CMR17-30" transform="translate(258.528443 0) scale(0.996264)"/>
      <use xlink:href="#CMR17-2e" transform="translate(304.21892 0) scale(0.996264)"/>
      <use xlink:href="#CMR17-30" transform="translate(329.089979 0) scale(0.996264)"/>
      <use xlink:href="#CMR17-30" transform="translate(374.780456 0) scale(0.996264)"/>
     </g>
    </g>
    <g id="line2d_52">
     <path d="M 948.117672 294.758576 
L 962.117672 294.758576 
L 976.117672 294.758576 
" style="fill: none; stroke: #e7cb94; stroke-width: 2; stroke-linecap: round"/>
    </g>
    <g id="text_26">
     <!-- t = 500.00 -->
     <g style="fill: #262626" transform="translate(987.317672 299.658576) scale(0.14 -0.14)">
      <use xlink:href="#CMR17-74" transform="scale(0.996264)"/>
      <use xlink:href="#CMR17-3d" transform="translate(65.356734 0) scale(0.996264)"/>
      <use xlink:href="#CMR17-35" transform="translate(167.147489 0) scale(0.996264)"/>
      <use xlink:href="#CMR17-30" transform="translate(212.837966 0) scale(0.996264)"/>
      <use xlink:href="#CMR17-30" transform="translate(258.528443 0) scale(0.996264)"/>
      <use xlink:href="#CMR17-2e" transform="translate(304.21892 0) scale(0.996264)"/>
      <use xlink:href="#CMR17-30" transform="translate(329.089979 0) scale(0.996264)"/>
      <use xlink:href="#CMR17-30" transform="translate(374.780456 0) scale(0.996264)"/>
     </g>
    </g>
    <g id="line2d_53">
     <path d="M 948.117672 314.270604 
L 962.117672 314.270604 
L 976.117672 314.270604 
" style="fill: none; stroke: #ad494a; stroke-width: 2; stroke-linecap: round"/>
    </g>
    <g id="text_27">
     <!-- t = 750.00 -->
     <g style="fill: #262626" transform="translate(987.317672 319.170604) scale(0.14 -0.14)">
      <use xlink:href="#CMR17-74" transform="scale(0.996264)"/>
      <use xlink:href="#CMR17-3d" transform="translate(65.356734 0) scale(0.996264)"/>
      <use xlink:href="#CMR17-37" transform="translate(167.147489 0) scale(0.996264)"/>
      <use xlink:href="#CMR17-35" transform="translate(212.837966 0) scale(0.996264)"/>
      <use xlink:href="#CMR17-30" transform="translate(258.528443 0) scale(0.996264)"/>
      <use xlink:href="#CMR17-2e" transform="translate(304.21892 0) scale(0.996264)"/>
      <use xlink:href="#CMR17-30" transform="translate(329.089979 0) scale(0.996264)"/>
      <use xlink:href="#CMR17-30" transform="translate(374.780456 0) scale(0.996264)"/>
     </g>
    </g>
    <g id="line2d_54">
     <path d="M 948.117672 333.782633 
L 962.117672 333.782633 
L 976.117672 333.782633 
" style="fill: none; stroke: #e7969c; stroke-width: 2; stroke-linecap: round"/>
    </g>
    <g id="text_28">
     <!-- t = 1000.00 -->
     <g style="fill: #262626" transform="translate(987.317672 338.682633) scale(0.14 -0.14)">
      <use xlink:href="#CMR17-74" transform="scale(0.996264)"/>
      <use xlink:href="#CMR17-3d" transform="translate(65.356734 0) scale(0.996264)"/>
      <use xlink:href="#CMR17-31" transform="translate(167.147489 0) scale(0.996264)"/>
      <use xlink:href="#CMR17-30" transform="translate(212.837966 0) scale(0.996264)"/>
      <use xlink:href="#CMR17-30" transform="translate(258.528443 0) scale(0.996264)"/>
      <use xlink:href="#CMR17-30" transform="translate(304.21892 0) scale(0.996264)"/>
      <use xlink:href="#CMR17-2e" transform="translate(349.909397 0) scale(0.996264)"/>
      <use xlink:href="#CMR17-30" transform="translate(374.780456 0) scale(0.996264)"/>
      <use xlink:href="#CMR17-30" transform="translate(420.470933 0) scale(0.996264)"/>
     </g>
    </g>
    <g id="line2d_55">
     <path d="M 948.117672 353.294661 
L 962.117672 353.294661 
L 976.117672 353.294661 
" style="fill: none; stroke: #a55194; stroke-width: 2; stroke-linecap: round"/>
    </g>
    <g id="text_29">
     <!-- t = 1250.00 -->
     <g style="fill: #262626" transform="translate(987.317672 358.194661) scale(0.14 -0.14)">
      <use xlink:href="#CMR17-74" transform="scale(0.996264)"/>
      <use xlink:href="#CMR17-3d" transform="translate(65.356734 0) scale(0.996264)"/>
      <use xlink:href="#CMR17-31" transform="translate(167.147489 0) scale(0.996264)"/>
      <use xlink:href="#CMR17-32" transform="translate(212.837966 0) scale(0.996264)"/>
      <use xlink:href="#CMR17-35" transform="translate(258.528443 0) scale(0.996264)"/>
      <use xlink:href="#CMR17-30" transform="translate(304.21892 0) scale(0.996264)"/>
      <use xlink:href="#CMR17-2e" transform="translate(349.909397 0) scale(0.996264)"/>
      <use xlink:href="#CMR17-30" transform="translate(374.780456 0) scale(0.996264)"/>
      <use xlink:href="#CMR17-30" transform="translate(420.470933 0) scale(0.996264)"/>
     </g>
    </g>
    <g id="line2d_56">
     <path d="M 948.117672 372.806689 
L 962.117672 372.806689 
L 976.117672 372.806689 
" style="fill: none; stroke: #de9ed6; stroke-width: 2; stroke-linecap: round"/>
    </g>
    <g id="text_30">
     <!-- t = 1500.00 -->
     <g style="fill: #262626" transform="translate(987.317672 377.706689) scale(0.14 -0.14)">
      <use xlink:href="#CMR17-74" transform="scale(0.996264)"/>
      <use xlink:href="#CMR17-3d" transform="translate(65.356734 0) scale(0.996264)"/>
      <use xlink:href="#CMR17-31" transform="translate(167.147489 0) scale(0.996264)"/>
      <use xlink:href="#CMR17-35" transform="translate(212.837966 0) scale(0.996264)"/>
      <use xlink:href="#CMR17-30" transform="translate(258.528443 0) scale(0.996264)"/>
      <use xlink:href="#CMR17-30" transform="translate(304.21892 0) scale(0.996264)"/>
      <use xlink:href="#CMR17-2e" transform="translate(349.909397 0) scale(0.996264)"/>
      <use xlink:href="#CMR17-30" transform="translate(374.780456 0) scale(0.996264)"/>
      <use xlink:href="#CMR17-30" transform="translate(420.470933 0) scale(0.996264)"/>
     </g>
    </g>
   </g>
  </g>
  <g id="text_31">
   <!-- permeability -->
   <g style="fill: #262626" transform="translate(492.111452 24.803515) scale(0.192 -0.192)">
    <defs>
     <path id="CMR17-70" d="M 1408 -1063 
C 998 -1063 973 -1037 973 -789 
L 973 402 
C 1158 134 1427 -38 1766 -38 
C 2406 -38 3053 523 3053 1388 
C 3053 2191 2496 2802 1837 2802 
C 1453 2802 1139 2592 960 2338 
L 960 2802 
L 198 2732 
L 198 2567 
C 576 2567 634 2528 634 2223 
L 634 -789 
C 634 -1031 608 -1063 198 -1063 
L 198 -1228 
C 352 -1216 634 -1216 800 -1216 
C 966 -1216 1254 -1216 1408 -1228 
L 1408 -1063 
z
M 973 2012 
C 973 2102 973 2235 1222 2471 
C 1254 2497 1472 2688 1792 2688 
C 2259 2688 2643 2108 2643 1382 
C 2643 656 2234 64 1728 64 
C 1498 64 1248 172 1056 472 
C 973 612 973 650 973 752 
L 973 2012 
z
" transform="scale(0.015625)"/>
     <path id="CMR17-72" d="M 960 1497 
C 960 2112 1222 2688 1702 2688 
C 1747 2688 1792 2682 1837 2662 
C 1837 2662 1696 2617 1696 2452 
C 1696 2298 1818 2234 1914 2234 
C 1990 2234 2131 2279 2131 2458 
C 2131 2663 1926 2790 1709 2790 
C 1222 2790 1011 2317 947 2093 
L 941 2093 
L 941 2790 
L 198 2720 
L 198 2554 
C 576 2554 634 2515 634 2208 
L 634 428 
C 634 184 608 153 198 153 
L 198 -13 
C 352 0 646 0 813 0 
C 998 0 1325 0 1498 -13 
L 1498 153 
C 1037 153 960 153 960 440 
L 960 1497 
z
" transform="scale(0.015625)"/>
     <path id="CMR17-61" d="M 2304 1653 
C 2304 2072 2304 2294 2035 2543 
C 1798 2752 1523 2816 1306 2816 
C 800 2816 435 2407 435 1971 
C 435 1728 627 1728 666 1728 
C 749 1728 896 1778 896 1954 
C 896 2112 774 2181 666 2181 
C 640 2181 608 2174 589 2168 
C 723 2592 1069 2714 1293 2714 
C 1613 2714 1965 2429 1965 1885 
L 1965 1600 
C 1587 1600 1133 1549 774 1357 
C 371 1133 256 813 256 570 
C 256 77 832 -64 1171 -64 
C 1523 -64 1850 139 1990 511 
C 2003 233 2182 -18 2464 -18 
C 2598 -18 2938 70 2938 567 
L 2938 920 
L 2822 920 
L 2822 562 
C 2822 178 2650 128 2566 128 
C 2304 128 2304 458 2304 738 
L 2304 1653 
z
M 1965 870 
C 1965 317 1568 38 1216 38 
C 896 38 646 275 646 570 
C 646 761 730 1100 1101 1305 
C 1408 1478 1760 1504 1965 1504 
L 1965 870 
z
" transform="scale(0.015625)"/>
     <path id="CMR17-62" d="M 960 4396 
L 198 4326 
L 198 4160 
C 576 4160 634 4122 634 3817 
L 634 -13 
L 749 -13 
L 934 441 
C 1120 141 1395 -64 1766 -64 
C 2406 -64 3053 500 3053 1370 
C 3053 2188 2477 2790 1830 2790 
C 1434 2790 1152 2579 960 2330 
L 960 4396 
z
M 973 2004 
C 973 2118 973 2138 1062 2272 
C 1312 2657 1670 2688 1792 2688 
C 1984 2688 2643 2585 2643 1376 
C 2643 108 1888 38 1734 38 
C 1536 38 1248 114 1043 486 
C 973 608 973 621 973 735 
L 973 2004 
z
" transform="scale(0.015625)"/>
     <path id="CMR17-6c" d="M 979 4396 
L 218 4326 
L 218 4160 
C 595 4160 653 4122 653 3817 
L 653 426 
C 653 184 627 153 218 153 
L 218 -13 
C 371 0 653 0 813 0 
C 979 0 1261 0 1414 -13 
L 1414 153 
C 1005 153 979 178 979 426 
L 979 4396 
z
" transform="scale(0.015625)"/>
     <path id="CMR17-79" d="M 2496 2197 
C 2656 2586 2944 2586 3034 2586 
L 3034 2752 
C 2912 2752 2752 2752 2630 2752 
C 2496 2752 2285 2752 2157 2758 
L 2157 2592 
C 2400 2573 2406 2394 2406 2343 
C 2406 2280 2394 2248 2362 2171 
L 1664 449 
L 902 2306 
C 870 2382 870 2426 870 2433 
C 870 2573 1018 2586 1171 2586 
L 1171 2758 
C 1018 2752 742 2752 582 2752 
C 410 2752 205 2752 64 2758 
L 64 2586 
C 410 2586 448 2554 531 2350 
L 1485 15 
C 1197 -738 1030 -1178 627 -1178 
C 557 -1178 397 -1159 282 -1044 
C 429 -1031 493 -942 493 -833 
C 493 -725 416 -629 288 -629 
C 147 -629 77 -725 77 -840 
C 77 -1095 339 -1280 627 -1280 
C 998 -1280 1229 -922 1357 -604 
L 2496 2197 
z
" transform="scale(0.015625)"/>
    </defs>
    <use xlink:href="#CMR17-70" transform="scale(0.996264)"/>
    <use xlink:href="#CMR17-65" transform="translate(53.497809 0) scale(0.996264)"/>
    <use xlink:href="#CMR17-72" transform="translate(93.983469 0) scale(0.996264)"/>
    <use xlink:href="#CMR17-6d" transform="translate(129.264237 0) scale(0.996264)"/>
    <use xlink:href="#CMR17-65" transform="translate(206.183827 0) scale(0.996264)"/>
    <use xlink:href="#CMR17-61" transform="translate(246.669487 0) scale(0.996264)"/>
    <use xlink:href="#CMR17-62" transform="translate(292.359964 0) scale(0.996264)"/>
    <use xlink:href="#CMR17-69" transform="translate(343.255334 0) scale(0.996264)"/>
    <use xlink:href="#CMR17-6c" transform="translate(368.126392 0) scale(0.996264)"/>
    <use xlink:href="#CMR17-69" transform="translate(392.997451 0) scale(0.996264)"/>
    <use xlink:href="#CMR17-74" transform="translate(417.868509 0) scale(0.996264)"/>
    <use xlink:href="#CMR17-79" transform="translate(450.546823 0) scale(0.996264)"/>
   </g>
  </g>
 </g>
 <defs>
  <clipPath id="pd3056186da">
   <rect x="48.559071" y="51.564121" width="886.958601" height="469.58891"/>
  </clipPath>
 </defs>
</svg>
