<?xml version="1.0" encoding="utf-8" standalone="no"?>
<!DOCTYPE svg PUBLIC "-//W3C//DTD SVG 1.1//EN"
  "http://www.w3.org/Graphics/SVG/1.1/DTD/svg11.dtd">
<svg xmlns:xlink="http://www.w3.org/1999/xlink" width="1080pt" height="576pt" viewBox="0 0 1080 576" xmlns="http://www.w3.org/2000/svg" version="1.1">
 <metadata>
  <rdf:RDF xmlns:dc="http://purl.org/dc/elements/1.1/" xmlns:cc="http://creativecommons.org/ns#" xmlns:rdf="http://www.w3.org/1999/02/22-rdf-syntax-ns#">
   <cc:Work>
    <dc:type rdf:resource="http://purl.org/dc/dcmitype/StillImage"/>
    <dc:date>2024-06-28T12:16:37.581944</dc:date>
    <dc:format>image/svg+xml</dc:format>
    <dc:creator>
     <cc:Agent>
      <dc:title>Matplotlib v3.9.0, https://matplotlib.org/</dc:title>
     </cc:Agent>
    </dc:creator>
   </cc:Work>
  </rdf:RDF>
 </metadata>
 <defs>
  <style type="text/css">*{stroke-linejoin: round; stroke-linecap: butt}</style>
 </defs>
 <g id="figure_1">
  <g id="patch_1">
   <path d="M 0 576 
L 1080 576 
L 1080 0 
L 0 0 
z
" style="fill: #ffffff"/>
  </g>
  <g id="axes_1">
   <g id="patch_2">
    <path d="M 48.559071 521.153031 
L 935.517672 521.153031 
L 935.517672 51.564121 
L 48.559071 51.564121 
z
" style="fill: #eaeaf2"/>
   </g>
   <g id="matplotlib.axis_1">
    <g id="xtick_1">
     <g id="line2d_1">
      <path d="M 48.559071 521.153031 
L 48.559071 51.564121 
" clip-path="url(#p9d8b101d6a)" style="fill: none; stroke: #ffffff; stroke-linecap: round"/>
     </g>
     <g id="line2d_2"/>
     <g id="text_1">
      <!-- $\mathdefault{0.00}$ -->
      <g style="fill: #262626" transform="translate(36.419535 537.838907) scale(0.14 -0.14)">
       <defs>
        <path id="CMR17-30" d="M 2688 2025 
C 2688 2416 2682 3080 2413 3591 
C 2176 4039 1798 4198 1466 4198 
C 1158 4198 768 4058 525 3597 
C 269 3118 243 2524 243 2025 
C 243 1661 250 1106 448 619 
C 723 -39 1216 -128 1466 -128 
C 1760 -128 2208 -7 2470 600 
C 2662 1042 2688 1559 2688 2025 
z
M 1466 -26 
C 1056 -26 813 325 723 812 
C 653 1188 653 1738 653 2096 
C 653 2588 653 2997 736 3387 
C 858 3929 1216 4096 1466 4096 
C 1728 4096 2067 3923 2189 3400 
C 2272 3036 2278 2607 2278 2096 
C 2278 1680 2278 1169 2202 792 
C 2067 95 1690 -26 1466 -26 
z
" transform="scale(0.015625)"/>
        <path id="CMMI12-3a" d="M 1178 307 
C 1178 492 1024 619 870 619 
C 685 619 557 466 557 313 
C 557 128 710 0 864 0 
C 1050 0 1178 153 1178 307 
z
" transform="scale(0.015625)"/>
       </defs>
       <use xlink:href="#CMR17-30" transform="scale(0.996264)"/>
       <use xlink:href="#CMMI12-3a" transform="translate(45.690477 0) scale(0.996264)"/>
       <use xlink:href="#CMR17-30" transform="translate(72.787654 0) scale(0.996264)"/>
       <use xlink:href="#CMR17-30" transform="translate(118.478131 0) scale(0.996264)"/>
      </g>
     </g>
    </g>
    <g id="xtick_2">
     <g id="line2d_3">
      <path d="M 154.14938 521.153031 
L 154.14938 51.564121 
" clip-path="url(#p9d8b101d6a)" style="fill: none; stroke: #ffffff; stroke-linecap: round"/>
     </g>
     <g id="line2d_4"/>
     <g id="text_2">
      <!-- $\mathdefault{0.25}$ -->
      <g style="fill: #262626" transform="translate(142.009845 537.838907) scale(0.14 -0.14)">
       <defs>
        <path id="CMR17-32" d="M 2669 989 
L 2554 989 
C 2490 536 2438 459 2413 420 
C 2381 369 1920 369 1830 369 
L 602 369 
C 832 619 1280 1072 1824 1597 
C 2214 1967 2669 2402 2669 3035 
C 2669 3790 2067 4224 1395 4224 
C 691 4224 262 3604 262 3030 
C 262 2780 448 2748 525 2748 
C 589 2748 781 2787 781 3010 
C 781 3207 614 3264 525 3264 
C 486 3264 448 3258 422 3245 
C 544 3790 915 4058 1306 4058 
C 1862 4058 2227 3617 2227 3035 
C 2227 2479 1901 2000 1536 1584 
L 262 146 
L 262 0 
L 2515 0 
L 2669 989 
z
" transform="scale(0.015625)"/>
        <path id="CMR17-35" d="M 730 3692 
C 794 3666 1056 3584 1325 3584 
C 1920 3584 2246 3911 2432 4100 
C 2432 4157 2432 4192 2394 4192 
C 2387 4192 2374 4192 2323 4163 
C 2099 4058 1837 3973 1517 3973 
C 1325 3973 1037 3999 723 4139 
C 653 4171 640 4171 634 4171 
C 602 4171 595 4164 595 4037 
L 595 2203 
C 595 2089 595 2057 659 2057 
C 691 2057 704 2070 736 2114 
C 941 2401 1222 2522 1542 2522 
C 1766 2522 2246 2382 2246 1289 
C 2246 1085 2246 715 2054 421 
C 1894 159 1645 25 1370 25 
C 947 25 518 320 403 814 
C 429 807 480 795 506 795 
C 589 795 749 840 749 1038 
C 749 1210 627 1280 506 1280 
C 358 1280 262 1190 262 1011 
C 262 454 704 -128 1382 -128 
C 2042 -128 2669 440 2669 1264 
C 2669 2030 2170 2624 1549 2624 
C 1222 2624 947 2503 730 2274 
L 730 3692 
z
" transform="scale(0.015625)"/>
       </defs>
       <use xlink:href="#CMR17-30" transform="scale(0.996264)"/>
       <use xlink:href="#CMMI12-3a" transform="translate(45.690477 0) scale(0.996264)"/>
       <use xlink:href="#CMR17-32" transform="translate(72.787654 0) scale(0.996264)"/>
       <use xlink:href="#CMR17-35" transform="translate(118.478131 0) scale(0.996264)"/>
      </g>
     </g>
    </g>
    <g id="xtick_3">
     <g id="line2d_5">
      <path d="M 259.73969 521.153031 
L 259.73969 51.564121 
" clip-path="url(#p9d8b101d6a)" style="fill: none; stroke: #ffffff; stroke-linecap: round"/>
     </g>
     <g id="line2d_6"/>
     <g id="text_3">
      <!-- $\mathdefault{0.50}$ -->
      <g style="fill: #262626" transform="translate(247.600155 537.838907) scale(0.14 -0.14)">
       <use xlink:href="#CMR17-30" transform="scale(0.996264)"/>
       <use xlink:href="#CMMI12-3a" transform="translate(45.690477 0) scale(0.996264)"/>
       <use xlink:href="#CMR17-35" transform="translate(72.787654 0) scale(0.996264)"/>
       <use xlink:href="#CMR17-30" transform="translate(118.478131 0) scale(0.996264)"/>
      </g>
     </g>
    </g>
    <g id="xtick_4">
     <g id="line2d_7">
      <path d="M 365.33 521.153031 
L 365.33 51.564121 
" clip-path="url(#p9d8b101d6a)" style="fill: none; stroke: #ffffff; stroke-linecap: round"/>
     </g>
     <g id="line2d_8"/>
     <g id="text_4">
      <!-- $\mathdefault{0.75}$ -->
      <g style="fill: #262626" transform="translate(353.190464 537.838907) scale(0.14 -0.14)">
       <defs>
        <path id="CMR17-37" d="M 2886 3941 
L 2886 4081 
L 1382 4081 
C 634 4081 621 4165 595 4288 
L 480 4288 
L 294 3094 
L 410 3094 
C 429 3215 474 3540 550 3661 
C 589 3712 1062 3712 1171 3712 
L 2579 3712 
L 1869 2661 
C 1395 1954 1069 999 1069 165 
C 1069 89 1069 -128 1299 -128 
C 1530 -128 1530 89 1530 171 
L 1530 465 
C 1530 1508 1709 2196 2003 2636 
L 2886 3941 
z
" transform="scale(0.015625)"/>
       </defs>
       <use xlink:href="#CMR17-30" transform="scale(0.996264)"/>
       <use xlink:href="#CMMI12-3a" transform="translate(45.690477 0) scale(0.996264)"/>
       <use xlink:href="#CMR17-37" transform="translate(72.787654 0) scale(0.996264)"/>
       <use xlink:href="#CMR17-35" transform="translate(118.478131 0) scale(0.996264)"/>
      </g>
     </g>
    </g>
    <g id="xtick_5">
     <g id="line2d_9">
      <path d="M 470.920309 521.153031 
L 470.920309 51.564121 
" clip-path="url(#p9d8b101d6a)" style="fill: none; stroke: #ffffff; stroke-linecap: round"/>
     </g>
     <g id="line2d_10"/>
     <g id="text_5">
      <!-- $\mathdefault{1.00}$ -->
      <g style="fill: #262626" transform="translate(458.780774 537.838907) scale(0.14 -0.14)">
       <defs>
        <path id="CMR17-31" d="M 1702 4058 
C 1702 4192 1696 4192 1606 4192 
C 1357 3916 979 3827 621 3827 
C 602 3827 570 3827 563 3808 
C 557 3795 557 3782 557 3648 
C 755 3648 1088 3686 1344 3839 
L 1344 461 
C 1344 236 1331 160 781 160 
L 589 160 
L 589 0 
C 896 0 1216 0 1523 0 
C 1830 0 2150 0 2458 0 
L 2458 160 
L 2266 160 
C 1715 160 1702 230 1702 458 
L 1702 4058 
z
" transform="scale(0.015625)"/>
       </defs>
       <use xlink:href="#CMR17-31" transform="scale(0.996264)"/>
       <use xlink:href="#CMMI12-3a" transform="translate(45.690477 0) scale(0.996264)"/>
       <use xlink:href="#CMR17-30" transform="translate(72.787654 0) scale(0.996264)"/>
       <use xlink:href="#CMR17-30" transform="translate(118.478131 0) scale(0.996264)"/>
      </g>
     </g>
    </g>
    <g id="xtick_6">
     <g id="line2d_11">
      <path d="M 576.510619 521.153031 
L 576.510619 51.564121 
" clip-path="url(#p9d8b101d6a)" style="fill: none; stroke: #ffffff; stroke-linecap: round"/>
     </g>
     <g id="line2d_12"/>
     <g id="text_6">
      <!-- $\mathdefault{1.25}$ -->
      <g style="fill: #262626" transform="translate(564.371084 537.838907) scale(0.14 -0.14)">
       <use xlink:href="#CMR17-31" transform="scale(0.996264)"/>
       <use xlink:href="#CMMI12-3a" transform="translate(45.690477 0) scale(0.996264)"/>
       <use xlink:href="#CMR17-32" transform="translate(72.787654 0) scale(0.996264)"/>
       <use xlink:href="#CMR17-35" transform="translate(118.478131 0) scale(0.996264)"/>
      </g>
     </g>
    </g>
    <g id="xtick_7">
     <g id="line2d_13">
      <path d="M 682.100929 521.153031 
L 682.100929 51.564121 
" clip-path="url(#p9d8b101d6a)" style="fill: none; stroke: #ffffff; stroke-linecap: round"/>
     </g>
     <g id="line2d_14"/>
     <g id="text_7">
      <!-- $\mathdefault{1.50}$ -->
      <g style="fill: #262626" transform="translate(669.961393 537.838907) scale(0.14 -0.14)">
       <use xlink:href="#CMR17-31" transform="scale(0.996264)"/>
       <use xlink:href="#CMMI12-3a" transform="translate(45.690477 0) scale(0.996264)"/>
       <use xlink:href="#CMR17-35" transform="translate(72.787654 0) scale(0.996264)"/>
       <use xlink:href="#CMR17-30" transform="translate(118.478131 0) scale(0.996264)"/>
      </g>
     </g>
    </g>
    <g id="xtick_8">
     <g id="line2d_15">
      <path d="M 787.691238 521.153031 
L 787.691238 51.564121 
" clip-path="url(#p9d8b101d6a)" style="fill: none; stroke: #ffffff; stroke-linecap: round"/>
     </g>
     <g id="line2d_16"/>
     <g id="text_8">
      <!-- $\mathdefault{1.75}$ -->
      <g style="fill: #262626" transform="translate(775.551703 537.838907) scale(0.14 -0.14)">
       <use xlink:href="#CMR17-31" transform="scale(0.996264)"/>
       <use xlink:href="#CMMI12-3a" transform="translate(45.690477 0) scale(0.996264)"/>
       <use xlink:href="#CMR17-37" transform="translate(72.787654 0) scale(0.996264)"/>
       <use xlink:href="#CMR17-35" transform="translate(118.478131 0) scale(0.996264)"/>
      </g>
     </g>
    </g>
    <g id="xtick_9">
     <g id="line2d_17">
      <path d="M 893.281548 521.153031 
L 893.281548 51.564121 
" clip-path="url(#p9d8b101d6a)" style="fill: none; stroke: #ffffff; stroke-linecap: round"/>
     </g>
     <g id="line2d_18"/>
     <g id="text_9">
      <!-- $\mathdefault{2.00}$ -->
      <g style="fill: #262626" transform="translate(881.142013 537.838907) scale(0.14 -0.14)">
       <use xlink:href="#CMR17-32" transform="scale(0.996264)"/>
       <use xlink:href="#CMMI12-3a" transform="translate(45.690477 0) scale(0.996264)"/>
       <use xlink:href="#CMR17-30" transform="translate(72.787654 0) scale(0.996264)"/>
       <use xlink:href="#CMR17-30" transform="translate(118.478131 0) scale(0.996264)"/>
      </g>
     </g>
    </g>
    <g id="text_10">
     <!-- $x$ -->
     <g style="fill: #262626" transform="translate(487.603646 555.620524) scale(0.16 -0.16)">
      <defs>
       <path id="CMMI12-78" d="M 3034 2606 
C 2829 2567 2752 2414 2752 2293 
C 2752 2139 2874 2088 2963 2088 
C 3155 2088 3290 2254 3290 2427 
C 3290 2695 2982 2816 2714 2816 
C 2323 2816 2106 2433 2048 2312 
C 1901 2816 1504 2816 1389 2816 
C 736 2816 390 1980 390 1839 
C 390 1814 416 1782 461 1782 
C 512 1782 525 1820 538 1846 
C 755 2555 1184 2689 1370 2689 
C 1658 2689 1715 2420 1715 2267 
C 1715 2127 1677 1980 1600 1673 
L 1382 798 
C 1286 415 1101 64 762 64 
C 730 64 570 64 435 147 
C 666 192 717 383 717 460 
C 717 588 621 664 499 664 
C 346 664 179 530 179 326 
C 179 57 480 -64 755 -64 
C 1062 -64 1280 179 1414 441 
C 1517 64 1837 -64 2074 -64 
C 2726 -64 3072 773 3072 913 
C 3072 945 3046 971 3008 971 
C 2950 971 2944 939 2925 888 
C 2752 326 2381 64 2093 64 
C 1869 64 1747 230 1747 492 
C 1747 632 1773 734 1875 1156 
L 2099 2024 
C 2195 2408 2413 2689 2707 2689 
C 2720 2689 2899 2689 3034 2606 
z
" transform="scale(0.015625)"/>
      </defs>
      <use xlink:href="#CMMI12-78" transform="scale(0.996264)"/>
     </g>
    </g>
   </g>
   <g id="matplotlib.axis_2">
    <g id="ytick_1">
     <g id="line2d_19">
      <path d="M 48.559071 521.153031 
L 935.517672 521.153031 
" clip-path="url(#p9d8b101d6a)" style="fill: none; stroke: #ffffff; stroke-linecap: round"/>
     </g>
     <g id="line2d_20"/>
     <g id="text_11">
      <!-- $\mathdefault{0.00}$ -->
      <g style="fill: #262626" transform="translate(17.28 525.995969) scale(0.14 -0.14)">
       <use xlink:href="#CMR17-30" transform="scale(0.996264)"/>
       <use xlink:href="#CMMI12-3a" transform="translate(45.690477 0) scale(0.996264)"/>
       <use xlink:href="#CMR17-30" transform="translate(72.787654 0) scale(0.996264)"/>
       <use xlink:href="#CMR17-30" transform="translate(118.478131 0) scale(0.996264)"/>
      </g>
     </g>
    </g>
    <g id="ytick_2">
     <g id="line2d_21">
      <path d="M 48.559071 465.263203 
L 935.517672 465.263203 
" clip-path="url(#p9d8b101d6a)" style="fill: none; stroke: #ffffff; stroke-linecap: round"/>
     </g>
     <g id="line2d_22"/>
     <g id="text_12">
      <!-- $\mathdefault{0.25}$ -->
      <g style="fill: #262626" transform="translate(17.28 470.106141) scale(0.14 -0.14)">
       <use xlink:href="#CMR17-30" transform="scale(0.996264)"/>
       <use xlink:href="#CMMI12-3a" transform="translate(45.690477 0) scale(0.996264)"/>
       <use xlink:href="#CMR17-32" transform="translate(72.787654 0) scale(0.996264)"/>
       <use xlink:href="#CMR17-35" transform="translate(118.478131 0) scale(0.996264)"/>
      </g>
     </g>
    </g>
    <g id="ytick_3">
     <g id="line2d_23">
      <path d="M 48.559071 409.373376 
L 935.517672 409.373376 
" clip-path="url(#p9d8b101d6a)" style="fill: none; stroke: #ffffff; stroke-linecap: round"/>
     </g>
     <g id="line2d_24"/>
     <g id="text_13">
      <!-- $\mathdefault{0.50}$ -->
      <g style="fill: #262626" transform="translate(17.28 414.216314) scale(0.14 -0.14)">
       <use xlink:href="#CMR17-30" transform="scale(0.996264)"/>
       <use xlink:href="#CMMI12-3a" transform="translate(45.690477 0) scale(0.996264)"/>
       <use xlink:href="#CMR17-35" transform="translate(72.787654 0) scale(0.996264)"/>
       <use xlink:href="#CMR17-30" transform="translate(118.478131 0) scale(0.996264)"/>
      </g>
     </g>
    </g>
    <g id="ytick_4">
     <g id="line2d_25">
      <path d="M 48.559071 353.483548 
L 935.517672 353.483548 
" clip-path="url(#p9d8b101d6a)" style="fill: none; stroke: #ffffff; stroke-linecap: round"/>
     </g>
     <g id="line2d_26"/>
     <g id="text_14">
      <!-- $\mathdefault{0.75}$ -->
      <g style="fill: #262626" transform="translate(17.28 358.326487) scale(0.14 -0.14)">
       <use xlink:href="#CMR17-30" transform="scale(0.996264)"/>
       <use xlink:href="#CMMI12-3a" transform="translate(45.690477 0) scale(0.996264)"/>
       <use xlink:href="#CMR17-37" transform="translate(72.787654 0) scale(0.996264)"/>
       <use xlink:href="#CMR17-35" transform="translate(118.478131 0) scale(0.996264)"/>
      </g>
     </g>
    </g>
    <g id="ytick_5">
     <g id="line2d_27">
      <path d="M 48.559071 297.593721 
L 935.517672 297.593721 
" clip-path="url(#p9d8b101d6a)" style="fill: none; stroke: #ffffff; stroke-linecap: round"/>
     </g>
     <g id="line2d_28"/>
     <g id="text_15">
      <!-- $\mathdefault{1.00}$ -->
      <g style="fill: #262626" transform="translate(17.28 302.436659) scale(0.14 -0.14)">
       <use xlink:href="#CMR17-31" transform="scale(0.996264)"/>
       <use xlink:href="#CMMI12-3a" transform="translate(45.690477 0) scale(0.996264)"/>
       <use xlink:href="#CMR17-30" transform="translate(72.787654 0) scale(0.996264)"/>
       <use xlink:href="#CMR17-30" transform="translate(118.478131 0) scale(0.996264)"/>
      </g>
     </g>
    </g>
    <g id="ytick_6">
     <g id="line2d_29">
      <path d="M 48.559071 241.703893 
L 935.517672 241.703893 
" clip-path="url(#p9d8b101d6a)" style="fill: none; stroke: #ffffff; stroke-linecap: round"/>
     </g>
     <g id="line2d_30"/>
     <g id="text_16">
      <!-- $\mathdefault{1.25}$ -->
      <g style="fill: #262626" transform="translate(17.28 246.546832) scale(0.14 -0.14)">
       <use xlink:href="#CMR17-31" transform="scale(0.996264)"/>
       <use xlink:href="#CMMI12-3a" transform="translate(45.690477 0) scale(0.996264)"/>
       <use xlink:href="#CMR17-32" transform="translate(72.787654 0) scale(0.996264)"/>
       <use xlink:href="#CMR17-35" transform="translate(118.478131 0) scale(0.996264)"/>
      </g>
     </g>
    </g>
    <g id="ytick_7">
     <g id="line2d_31">
      <path d="M 48.559071 185.814066 
L 935.517672 185.814066 
" clip-path="url(#p9d8b101d6a)" style="fill: none; stroke: #ffffff; stroke-linecap: round"/>
     </g>
     <g id="line2d_32"/>
     <g id="text_17">
      <!-- $\mathdefault{1.50}$ -->
      <g style="fill: #262626" transform="translate(17.28 190.657004) scale(0.14 -0.14)">
       <use xlink:href="#CMR17-31" transform="scale(0.996264)"/>
       <use xlink:href="#CMMI12-3a" transform="translate(45.690477 0) scale(0.996264)"/>
       <use xlink:href="#CMR17-35" transform="translate(72.787654 0) scale(0.996264)"/>
       <use xlink:href="#CMR17-30" transform="translate(118.478131 0) scale(0.996264)"/>
      </g>
     </g>
    </g>
    <g id="ytick_8">
     <g id="line2d_33">
      <path d="M 48.559071 129.924239 
L 935.517672 129.924239 
" clip-path="url(#p9d8b101d6a)" style="fill: none; stroke: #ffffff; stroke-linecap: round"/>
     </g>
     <g id="line2d_34"/>
     <g id="text_18">
      <!-- $\mathdefault{1.75}$ -->
      <g style="fill: #262626" transform="translate(17.28 134.767177) scale(0.14 -0.14)">
       <use xlink:href="#CMR17-31" transform="scale(0.996264)"/>
       <use xlink:href="#CMMI12-3a" transform="translate(45.690477 0) scale(0.996264)"/>
       <use xlink:href="#CMR17-37" transform="translate(72.787654 0) scale(0.996264)"/>
       <use xlink:href="#CMR17-35" transform="translate(118.478131 0) scale(0.996264)"/>
      </g>
     </g>
    </g>
    <g id="ytick_9">
     <g id="line2d_35">
      <path d="M 48.559071 74.034411 
L 935.517672 74.034411 
" clip-path="url(#p9d8b101d6a)" style="fill: none; stroke: #ffffff; stroke-linecap: round"/>
     </g>
     <g id="line2d_36"/>
     <g id="text_19">
      <!-- $\mathdefault{2.00}$ -->
      <g style="fill: #262626" transform="translate(17.28 78.877349) scale(0.14 -0.14)">
       <use xlink:href="#CMR17-32" transform="scale(0.996264)"/>
       <use xlink:href="#CMMI12-3a" transform="translate(45.690477 0) scale(0.996264)"/>
       <use xlink:href="#CMR17-30" transform="translate(72.787654 0) scale(0.996264)"/>
       <use xlink:href="#CMR17-30" transform="translate(118.478131 0) scale(0.996264)"/>
      </g>
     </g>
    </g>
   </g>
   <g id="line2d_37">
    <path d="M 48.559071 74.034411 
L 57.006295 74.034411 
L 65.45352 74.034411 
L 73.900745 74.034411 
L 82.34797 74.034411 
L 90.795195 74.034411 
L 99.242419 74.034411 
L 107.689644 74.034411 
L 116.136869 74.034411 
L 124.584094 74.034411 
L 133.031318 74.034411 
L 141.478543 74.034411 
L 149.925768 74.034411 
L 158.372993 74.034411 
L 166.820217 74.034411 
L 175.267442 74.034411 
L 183.714667 74.034411 
L 192.161892 74.034411 
L 200.609117 74.034411 
L 209.056341 74.034411 
L 217.503566 74.034411 
L 225.950791 74.034411 
L 234.398016 74.034411 
L 242.84524 74.034411 
L 251.292465 74.034411 
L 259.73969 74.034411 
L 268.186915 74.034411 
L 276.63414 74.034411 
L 285.081364 74.034411 
L 293.528589 74.034411 
L 301.975814 74.034411 
L 310.423039 74.034411 
L 318.870263 74.034411 
L 327.317488 74.034411 
L 335.764713 74.034411 
L 344.211938 74.034411 
L 352.659162 74.034411 
L 361.106387 74.034411 
L 369.553612 74.034411 
L 378.000837 74.034411 
L 386.448062 74.034411 
L 394.895286 74.034411 
L 403.342511 74.034411 
L 411.789736 74.034411 
L 420.236961 74.034411 
L 428.684185 74.034411 
L 437.13141 74.034411 
L 445.578635 74.034411 
L 454.02586 74.034411 
L 462.473085 74.034411 
L 470.920309 74.034411 
L 479.367534 74.034411 
L 487.814759 74.034411 
L 496.261984 74.034411 
L 504.709208 74.034411 
L 513.156433 74.034411 
L 521.603658 74.034411 
L 530.050883 74.034411 
L 538.498107 74.034411 
L 546.945332 74.034411 
L 555.392557 74.034411 
L 563.839782 74.034411 
L 572.287007 74.034411 
L 580.734231 74.034411 
L 589.181456 74.034411 
L 597.628681 74.034411 
L 606.075906 74.034411 
L 614.52313 74.034411 
L 622.970355 74.034411 
L 631.41758 74.034411 
L 639.864805 74.034411 
L 648.31203 74.034411 
L 656.759254 74.034411 
L 665.206479 74.034411 
L 673.653704 74.034411 
L 682.100929 74.034411 
L 690.548153 74.034411 
L 698.995378 74.034411 
L 707.442603 74.034411 
L 715.889828 74.034411 
L 724.337052 74.034411 
L 732.784277 74.034411 
L 741.231502 74.034411 
L 749.678727 74.034411 
L 758.125952 74.034411 
L 766.573176 74.034411 
L 775.020401 74.034411 
L 783.467626 74.034411 
L 791.914851 74.034411 
L 800.362075 74.034411 
L 808.8093 74.034411 
L 817.256525 74.034411 
L 825.70375 74.034411 
L 834.150975 74.034411 
L 842.598199 74.034411 
L 851.045424 74.034411 
L 859.492649 74.034411 
L 867.939874 74.034411 
L 876.387098 74.034411 
L 884.834323 74.034411 
L 893.281548 74.034411 
" clip-path="url(#p9d8b101d6a)" style="fill: none; stroke: #393b79; stroke-width: 2; stroke-linecap: round"/>
   </g>
   <g id="line2d_38">
    <path d="M 48.559071 116.376504 
L 57.006295 116.151166 
L 65.45352 115.927178 
L 73.900745 115.701865 
L 82.34797 115.477346 
L 90.795195 115.254173 
L 99.242419 115.032334 
L 107.689644 114.81182 
L 116.136869 114.592622 
L 124.584094 114.374732 
L 133.031318 114.158146 
L 141.478543 113.942853 
L 149.925768 113.728845 
L 158.372993 113.516113 
L 166.820217 113.304648 
L 175.267442 113.094446 
L 183.714667 112.885497 
L 192.161892 112.677791 
L 200.609117 112.47132 
L 209.056341 112.266075 
L 217.503566 112.062048 
L 225.950791 111.857561 
L 234.398016 111.653021 
L 242.84524 111.449698 
L 251.292465 111.247579 
L 259.73969 111.046659 
L 268.186915 110.846928 
L 276.63414 110.648379 
L 285.081364 110.451006 
L 293.528589 110.2548 
L 301.975814 110.059759 
L 310.423039 109.86587 
L 318.870263 109.673127 
L 327.317488 109.481525 
L 335.764713 109.291056 
L 344.211938 109.101711 
L 352.659162 108.913483 
L 361.106387 108.726365 
L 369.553612 108.54035 
L 378.000837 108.35543 
L 386.448062 108.171601 
L 394.895286 107.988654 
L 403.342511 107.804335 
L 411.789736 107.6211 
L 420.236961 107.438943 
L 428.684185 107.257857 
L 437.13141 107.077835 
L 445.578635 106.89887 
L 454.02586 106.720956 
L 462.473085 106.544087 
L 470.920309 106.368255 
L 479.367534 106.193455 
L 487.814759 106.019682 
L 496.261984 105.84693 
L 504.709208 105.675189 
L 513.156433 105.504455 
L 521.603658 105.33472 
L 530.050883 105.16598 
L 538.498107 104.998228 
L 546.945332 104.831459 
L 555.392557 104.665668 
L 563.839782 104.500846 
L 572.287007 104.336987 
L 580.734231 104.174086 
L 589.181456 104.012135 
L 597.628681 103.849336 
L 606.075906 103.686918 
L 614.52313 103.52545 
L 622.970355 103.364924 
L 631.41758 103.205334 
L 639.864805 103.046673 
L 648.31203 102.888938 
L 656.759254 102.732122 
L 665.206479 102.576222 
L 673.653704 102.42123 
L 682.100929 102.26714 
L 690.548153 102.113946 
L 698.995378 101.961644 
L 707.442603 101.810227 
L 715.889828 101.65969 
L 724.337052 101.510028 
L 732.784277 101.361235 
L 741.231502 101.213306 
L 749.678727 101.066236 
L 758.125952 100.920021 
L 766.573176 100.774654 
L 775.020401 100.630131 
L 783.467626 100.486446 
L 791.914851 100.343596 
L 800.362075 100.201573 
L 808.8093 100.060376 
L 817.256525 99.919999 
L 825.70375 99.778903 
L 834.150975 99.638097 
L 842.598199 99.498105 
L 851.045424 99.358924 
L 859.492649 99.220547 
L 867.939874 99.082971 
L 876.387098 98.946189 
L 884.834323 98.810199 
L 893.281548 98.674994 
" clip-path="url(#p9d8b101d6a)" style="fill: none; stroke: #6b6ecf; stroke-width: 2; stroke-linecap: round"/>
   </g>
   <g id="line2d_39">
    <path d="M 48.559071 242.280547 
L 57.006295 241.522361 
L 65.45352 240.770056 
L 73.900745 240.020118 
L 82.34797 239.270428 
L 90.795195 238.52674 
L 99.242419 237.785525 
L 107.689644 237.044122 
L 116.136869 236.308374 
L 124.584094 235.576081 
L 133.031318 234.842862 
L 141.478543 234.115187 
L 149.925768 233.392299 
L 158.372993 232.666996 
L 166.820217 231.947111 
L 175.267442 231.232667 
L 183.714667 230.516267 
L 192.161892 229.803918 
L 200.609117 229.096934 
L 209.056341 228.390734 
L 217.503566 227.685744 
L 225.950791 226.986051 
L 234.398016 226.290612 
L 242.84524 225.592784 
L 251.292465 224.900101 
L 259.73969 224.212554 
L 268.186915 223.524951 
L 276.63414 222.83911 
L 285.081364 222.15831 
L 293.528589 221.482449 
L 301.975814 220.803281 
L 310.423039 220.129115 
L 318.870263 219.459785 
L 327.317488 218.792841 
L 335.764713 218.125047 
L 344.211938 217.462087 
L 352.659162 216.803913 
L 361.106387 216.146237 
L 369.553612 215.489469 
L 378.000837 214.837423 
L 386.448062 214.190047 
L 394.895286 213.542311 
L 403.342511 212.896206 
L 411.789736 212.254697 
L 420.236961 211.617803 
L 428.684185 210.980594 
L 437.13141 210.344757 
L 445.578635 209.713465 
L 454.02586 209.086656 
L 462.473085 208.460573 
L 470.920309 207.834751 
L 479.367534 207.213328 
L 487.814759 206.596317 
L 496.261984 205.982028 
L 504.709208 205.365907 
L 513.156433 204.754095 
L 521.603658 204.146541 
L 530.050883 203.543259 
L 538.498107 202.937938 
L 546.945332 202.335418 
L 555.392557 201.737074 
L 563.839782 201.142878 
L 572.287007 200.550679 
L 580.734231 199.957213 
L 589.181456 199.367794 
L 597.628681 198.782395 
L 606.075906 198.200988 
L 614.52313 197.619047 
L 622.970355 197.038428 
L 631.41758 196.461787 
L 639.864805 195.889041 
L 648.31203 195.32016 
L 656.759254 194.749471 
L 665.206479 194.180998 
L 673.653704 193.616414 
L 682.100929 193.055678 
L 690.548153 192.498734 
L 698.995378 191.94001 
L 707.442603 191.383414 
L 715.889828 190.830591 
L 724.337052 190.28151 
L 732.784277 189.736102 
L 741.231502 189.190191 
L 749.678727 188.645047 
L 758.125952 188.103564 
L 766.573176 187.565717 
L 775.020401 187.031477 
L 783.467626 186.499231 
L 791.914851 185.965137 
L 800.362075 185.434635 
L 808.8093 184.907655 
L 817.256525 184.384171 
L 825.70375 183.864179 
L 834.150975 183.343111 
L 842.598199 182.823186 
L 851.045424 182.306692 
L 859.492649 181.793573 
L 867.939874 181.283886 
L 876.387098 180.777541 
L 884.834323 180.268622 
L 893.281548 179.762272 
" clip-path="url(#p9d8b101d6a)" style="fill: none; stroke: #637939; stroke-width: 2; stroke-linecap: round"/>
   </g>
   <g id="line2d_40">
    <path d="M 48.559071 338.003648 
L 57.006295 336.964813 
L 65.45352 335.927773 
L 73.900745 334.892325 
L 82.34797 333.859624 
L 90.795195 332.829623 
L 99.242419 331.80222 
L 107.689644 330.777523 
L 116.136869 329.755015 
L 124.584094 328.733866 
L 133.031318 327.715469 
L 141.478543 326.700016 
L 149.925768 325.687798 
L 158.372993 324.677448 
L 166.820217 323.668554 
L 175.267442 322.662786 
L 183.714667 321.660406 
L 192.161892 320.660517 
L 200.609117 319.6615 
L 209.056341 318.665979 
L 217.503566 317.674116 
L 225.950791 316.683709 
L 234.398016 315.695359 
L 242.84524 314.710768 
L 251.292465 313.729382 
L 259.73969 312.748268 
L 268.186915 311.771336 
L 276.63414 310.798311 
L 285.081364 309.824883 
L 293.528589 308.85587 
L 301.975814 307.890802 
L 310.423039 306.925454 
L 318.870263 305.964677 
L 327.317488 305.007121 
L 335.764713 304.050199 
L 344.211938 303.098214 
L 352.659162 302.147525 
L 361.106387 301.199536 
L 369.553612 300.25663 
L 378.000837 299.31272 
L 386.448062 298.374161 
L 394.895286 297.437464 
L 403.342511 296.503254 
L 411.789736 295.573754 
L 420.236961 294.643915 
L 428.684185 293.719981 
L 437.13141 292.795961 
L 445.578635 291.876768 
L 454.02586 290.959487 
L 462.473085 290.044937 
L 470.920309 289.134339 
L 479.367534 288.224572 
L 487.814759 287.320372 
L 496.261984 286.415637 
L 504.709208 285.51764 
L 513.156433 284.618059 
L 521.603658 283.725687 
L 530.050883 282.83176 
L 538.498107 281.944928 
L 546.945332 281.056732 
L 555.392557 280.175647 
L 563.839782 279.293132 
L 572.287007 278.417808 
L 580.734231 277.540791 
L 589.181456 276.671367 
L 597.628681 275.799888 
L 606.075906 274.935432 
L 614.52313 274.070148 
L 622.970355 273.211145 
L 631.41758 272.352445 
L 639.864805 271.498224 
L 648.31203 270.646155 
L 656.759254 269.796683 
L 665.206479 268.951472 
L 673.653704 268.106635 
L 682.100929 267.268626 
L 690.548153 266.428306 
L 698.995378 265.594974 
L 707.442603 264.761766 
L 715.889828 263.932775 
L 724.337052 263.107247 
L 732.784277 262.282392 
L 741.231502 261.464323 
L 749.678727 260.643967 
L 758.125952 259.829973 
L 766.573176 259.017911 
L 775.020401 258.207547 
L 783.467626 257.403963 
L 791.914851 256.597638 
L 800.362075 255.797606 
L 808.8093 255.000066 
L 817.256525 254.203676 
L 825.70375 253.413609 
L 834.150975 252.622331 
L 842.598199 251.835659 
L 851.045424 251.053891 
L 859.492649 250.27046 
L 867.939874 249.493256 
L 876.387098 248.718335 
L 884.834323 247.944244 
L 893.281548 247.176245 
" clip-path="url(#p9d8b101d6a)" style="fill: none; stroke: #b5cf6b; stroke-width: 2; stroke-linecap: round"/>
   </g>
   <g id="line2d_41">
    <path d="M 48.559071 458.479288 
L 57.006295 457.426949 
L 65.45352 456.371373 
L 73.900745 455.312078 
L 82.34797 454.24977 
L 90.795195 453.184373 
L 99.242419 452.11591 
L 107.689644 451.044446 
L 116.136869 449.970161 
L 124.584094 448.893227 
L 133.031318 447.813436 
L 141.478543 446.731334 
L 149.925768 445.646624 
L 158.372993 444.559675 
L 166.820217 443.470233 
L 175.267442 442.378755 
L 183.714667 441.285199 
L 192.161892 440.189389 
L 200.609117 439.091752 
L 209.056341 437.992292 
L 217.503566 436.891043 
L 225.950791 435.788118 
L 234.398016 434.683636 
L 242.84524 433.577609 
L 251.292465 432.47026 
L 259.73969 431.361365 
L 268.186915 430.251015 
L 276.63414 429.139632 
L 285.081364 428.027252 
L 293.528589 426.913342 
L 301.975814 425.79896 
L 310.423039 424.683142 
L 318.870263 423.566983 
L 327.317488 422.449405 
L 335.764713 421.331629 
L 344.211938 420.212955 
L 352.659162 419.093477 
L 361.106387 417.973852 
L 369.553612 416.853924 
L 378.000837 415.732961 
L 386.448062 414.611815 
L 394.895286 413.490473 
L 403.342511 412.36897 
L 411.789736 411.247307 
L 420.236961 410.125579 
L 428.684185 409.003744 
L 437.13141 407.881877 
L 445.578635 406.760106 
L 454.02586 405.638372 
L 462.473085 404.516971 
L 470.920309 403.39578 
L 479.367534 402.275013 
L 487.814759 401.154481 
L 496.261984 400.033882 
L 504.709208 398.913963 
L 513.156433 397.794846 
L 521.603658 396.676237 
L 530.050883 395.557549 
L 538.498107 394.440093 
L 546.945332 393.323367 
L 555.392557 392.206747 
L 563.839782 391.091765 
L 572.287007 389.97666 
L 580.734231 388.86303 
L 589.181456 387.750165 
L 597.628681 386.63804 
L 606.075906 385.526938 
L 614.52313 384.416917 
L 622.970355 383.308025 
L 631.41758 382.200575 
L 639.864805 381.093424 
L 648.31203 379.988547 
L 656.759254 378.88374 
L 665.206479 377.780629 
L 673.653704 376.679596 
L 682.100929 375.578378 
L 690.548153 374.479267 
L 698.995378 373.382149 
L 707.442603 372.285487 
L 715.889828 371.190318 
L 724.337052 370.097215 
L 732.784277 369.005892 
L 741.231502 367.915363 
L 749.678727 366.826232 
L 758.125952 365.739202 
L 766.573176 364.654033 
L 775.020401 363.570645 
L 783.467626 362.488925 
L 791.914851 361.408232 
L 800.362075 360.329411 
L 808.8093 359.252507 
L 817.256525 358.1776 
L 825.70375 357.104535 
L 834.150975 356.033411 
L 842.598199 354.96421 
L 851.045424 353.896906 
L 859.492649 352.831567 
L 867.939874 351.76809 
L 876.387098 350.706697 
L 884.834323 349.647238 
L 893.281548 348.589801 
" clip-path="url(#p9d8b101d6a)" style="fill: none; stroke: #8c6d31; stroke-width: 2; stroke-linecap: round"/>
   </g>
   <g id="line2d_42">
    <path d="M 48.559071 506.780307 
L 57.006295 506.116182 
L 65.45352 505.440493 
L 73.900745 504.753382 
L 82.34797 504.055162 
L 90.795195 503.34598 
L 99.242419 502.62601 
L 107.689644 501.895398 
L 116.136869 501.154389 
L 124.584094 500.403283 
L 133.031318 499.642105 
L 141.478543 498.871112 
L 149.925768 498.090544 
L 158.372993 497.300463 
L 166.820217 496.501138 
L 175.267442 495.692692 
L 183.714667 494.875321 
L 192.161892 494.049196 
L 200.609117 493.21453 
L 209.056341 492.371404 
L 217.503566 491.520055 
L 225.950791 490.660631 
L 234.398016 489.793308 
L 242.84524 488.918229 
L 251.292465 488.035561 
L 259.73969 487.14537 
L 268.186915 486.247998 
L 276.63414 485.343447 
L 285.081364 484.43192 
L 293.528589 483.513515 
L 301.975814 482.58849 
L 310.423039 481.656947 
L 318.870263 480.718917 
L 327.317488 479.774683 
L 335.764713 478.824342 
L 344.211938 477.86807 
L 352.659162 476.90586 
L 361.106387 475.937966 
L 369.553612 474.964476 
L 378.000837 473.985626 
L 386.448062 473.001387 
L 394.895286 472.011955 
L 403.342511 471.017507 
L 411.789736 470.018124 
L 420.236961 469.014004 
L 428.684185 468.005028 
L 437.13141 466.991654 
L 445.578635 465.973699 
L 454.02586 464.951373 
L 462.473085 463.924953 
L 470.920309 462.894345 
L 479.367534 461.859776 
L 487.814759 460.821429 
L 496.261984 459.779099 
L 504.709208 458.73326 
L 513.156433 457.683748 
L 521.603658 456.630971 
L 530.050883 455.574598 
L 538.498107 454.515063 
L 546.945332 453.452345 
L 555.392557 452.386653 
L 563.839782 451.318051 
L 572.287007 450.246541 
L 580.734231 449.172347 
L 589.181456 448.095338 
L 597.628681 447.01582 
L 606.075906 445.933689 
L 614.52313 444.849312 
L 622.970355 443.76269 
L 631.41758 442.673981 
L 639.864805 441.582911 
L 648.31203 440.489788 
L 656.759254 439.39477 
L 665.206479 438.29793 
L 673.653704 437.199277 
L 682.100929 436.09891 
L 690.548153 434.996876 
L 698.995378 433.89331 
L 707.442603 432.78835 
L 715.889828 431.682064 
L 724.337052 430.574355 
L 732.784277 429.465126 
L 741.231502 428.355216 
L 749.678727 427.243863 
L 758.125952 426.131619 
L 766.573176 425.018542 
L 775.020401 423.90428 
L 783.467626 422.789416 
L 791.914851 421.673926 
L 800.362075 420.557336 
L 808.8093 419.44049 
L 817.256525 418.323236 
L 825.70375 417.204954 
L 834.150975 416.086449 
L 842.598199 414.967743 
L 851.045424 413.848763 
L 859.492649 412.729598 
L 867.939874 411.610148 
L 876.387098 410.490495 
L 884.834323 409.370776 
L 893.281548 408.251123 
" clip-path="url(#p9d8b101d6a)" style="fill: none; stroke: #e7cb94; stroke-width: 2; stroke-linecap: round"/>
   </g>
   <g id="line2d_43">
    <path d="M 48.559071 517.271488 
L 57.006295 516.885627 
L 65.45352 516.483561 
L 73.900745 516.065504 
L 82.34797 515.631781 
L 90.795195 515.182614 
L 99.242419 514.71824 
L 107.689644 514.238883 
L 116.136869 513.744809 
L 124.584094 513.236329 
L 133.031318 512.713595 
L 141.478543 512.176869 
L 149.925768 511.626433 
L 158.372993 511.062433 
L 166.820217 510.48517 
L 175.267442 509.894796 
L 183.714667 509.291603 
L 192.161892 508.675776 
L 200.609117 508.047552 
L 209.056341 507.407138 
L 217.503566 506.754732 
L 225.950791 506.090564 
L 234.398016 505.414842 
L 242.84524 504.727771 
L 251.292465 504.029533 
L 259.73969 503.320323 
L 268.186915 502.600379 
L 276.63414 501.869877 
L 285.081364 501.128977 
L 293.528589 500.377925 
L 301.975814 499.616895 
L 310.423039 498.846062 
L 318.870263 498.065585 
L 327.317488 497.275679 
L 335.764713 496.476523 
L 344.211938 495.668275 
L 352.659162 494.851089 
L 361.106387 494.025236 
L 369.553612 493.190769 
L 378.000837 492.347927 
L 386.448062 491.496833 
L 394.895286 490.637682 
L 403.342511 489.770673 
L 411.789736 488.895845 
L 420.236961 488.013499 
L 428.684185 487.123743 
L 437.13141 486.226628 
L 445.578635 485.322454 
L 454.02586 484.411278 
L 462.473085 483.493327 
L 470.920309 482.56869 
L 479.367534 481.637483 
L 487.814759 480.699903 
L 496.261984 479.756052 
L 504.709208 478.806192 
L 513.156433 477.8503 
L 521.603658 476.88857 
L 530.050883 475.921143 
L 538.498107 474.94812 
L 546.945332 473.969747 
L 555.392557 472.98596 
L 563.839782 471.997079 
L 572.287007 471.003067 
L 580.734231 470.004226 
L 589.181456 469.000691 
L 597.628681 467.992135 
L 606.075906 466.97923 
L 614.52313 465.961706 
L 622.970355 464.940094 
L 631.41758 463.914173 
L 639.864805 462.884171 
L 648.31203 461.850182 
L 656.759254 460.81237 
L 665.206479 459.770633 
L 673.653704 458.725312 
L 682.100929 457.676414 
L 690.548153 456.624222 
L 698.995378 455.568414 
L 707.442603 454.509461 
L 715.889828 453.447345 
L 724.337052 452.382274 
L 732.784277 451.314144 
L 741.231502 450.243368 
L 749.678727 449.169696 
L 758.125952 448.09329 
L 766.573176 447.014481 
L 775.020401 445.933026 
L 783.467626 444.84933 
L 791.914851 443.763215 
L 800.362075 442.67513 
L 808.8093 441.584633 
L 817.256525 440.492181 
L 825.70375 439.397798 
L 834.150975 438.301577 
L 842.598199 437.203595 
L 851.045424 436.103842 
L 859.492649 435.00248 
L 867.939874 433.899498 
L 876.387098 432.795213 
L 884.834323 431.689632 
L 893.281548 430.582509 
" clip-path="url(#p9d8b101d6a)" style="fill: none; stroke: #ad494a; stroke-width: 2; stroke-linecap: round"/>
   </g>
   <g id="line2d_44">
    <path d="M 48.559071 520.037888 
L 57.006295 519.816399 
L 65.45352 519.576126 
L 73.900745 519.31733 
L 82.34797 519.040341 
L 90.795195 518.745422 
L 99.242419 518.432844 
L 107.689644 518.102869 
L 116.136869 517.755783 
L 124.584094 517.391901 
L 133.031318 517.011435 
L 141.478543 516.614665 
L 149.925768 516.201885 
L 158.372993 515.773295 
L 166.820217 515.329196 
L 175.267442 514.869799 
L 183.714667 514.395391 
L 192.161892 513.906201 
L 200.609117 513.402482 
L 209.056341 512.884461 
L 217.503566 512.35238 
L 225.950791 511.806482 
L 234.398016 511.247006 
L 242.84524 510.674158 
L 251.292465 510.088185 
L 259.73969 509.489266 
L 268.186915 508.877696 
L 276.63414 508.253648 
L 285.081364 507.617319 
L 293.528589 506.968969 
L 301.975814 506.308787 
L 310.423039 505.637 
L 318.870263 504.953759 
L 327.317488 504.259325 
L 335.764713 503.553875 
L 344.211938 502.837619 
L 352.659162 502.110704 
L 361.106387 501.373405 
L 369.553612 500.625864 
L 378.000837 499.86825 
L 386.448062 499.100803 
L 394.895286 498.323676 
L 403.342511 497.537069 
L 411.789736 496.741105 
L 420.236961 495.936076 
L 428.684185 495.122029 
L 437.13141 494.299227 
L 445.578635 493.467789 
L 454.02586 492.627885 
L 462.473085 491.779764 
L 470.920309 490.923478 
L 479.367534 490.059226 
L 487.814759 489.18725 
L 496.261984 488.307608 
L 504.709208 487.420481 
L 513.156433 486.526029 
L 521.603658 485.624399 
L 530.050883 484.715772 
L 538.498107 483.800326 
L 546.945332 482.878051 
L 555.392557 481.949264 
L 563.839782 481.014084 
L 572.287007 480.072576 
L 580.734231 479.124878 
L 589.181456 478.171275 
L 597.628681 477.21167 
L 606.075906 476.246293 
L 614.52313 475.275367 
L 622.970355 474.299147 
L 631.41758 473.317416 
L 639.864805 472.330484 
L 648.31203 471.338476 
L 656.759254 470.341483 
L 665.206479 469.339722 
L 673.653704 468.333106 
L 682.100929 467.321988 
L 690.548153 466.306289 
L 698.995378 465.286313 
L 707.442603 464.262105 
L 715.889828 463.233674 
L 724.337052 462.201252 
L 732.784277 461.164811 
L 741.231502 460.124809 
L 749.678727 459.080868 
L 758.125952 458.033553 
L 766.573176 456.982577 
L 775.020401 455.928312 
L 783.467626 454.87087 
L 791.914851 453.810106 
L 800.362075 452.74628 
L 808.8093 451.679513 
L 817.256525 450.609813 
L 825.70375 449.537242 
L 834.150975 448.462082 
L 842.598199 447.38453 
L 851.045424 446.304048 
L 859.492649 445.221618 
L 867.939874 444.136325 
L 876.387098 443.049203 
L 884.834323 441.959918 
L 893.281548 440.86834 
" clip-path="url(#p9d8b101d6a)" style="fill: none; stroke: #e7969c; stroke-width: 2; stroke-linecap: round"/>
   </g>
   <g id="line2d_45">
    <path d="M 48.559071 521.546501 
L 57.006295 521.100756 
L 65.45352 520.7387 
L 73.900745 520.444526 
L 82.34797 520.205237 
L 90.795195 519.996258 
L 99.242419 519.771142 
L 107.689644 519.527278 
L 116.136869 519.264961 
L 124.584094 518.984513 
L 133.031318 518.686175 
L 141.478543 518.370237 
L 149.925768 518.037002 
L 158.372993 517.686698 
L 166.820217 517.319632 
L 175.267442 516.936035 
L 183.714667 516.536204 
L 192.161892 516.120383 
L 200.609117 515.688839 
L 209.056341 515.241818 
L 217.503566 514.779572 
L 225.950791 514.302354 
L 234.398016 513.810419 
L 242.84524 513.303992 
L 251.292465 512.783327 
L 259.73969 512.248623 
L 268.186915 511.700177 
L 276.63414 511.138181 
L 285.081364 510.56285 
L 293.528589 509.974455 
L 301.975814 509.373181 
L 310.423039 508.759287 
L 318.870263 508.132937 
L 327.317488 507.494394 
L 335.764713 506.843846 
L 344.211938 506.181517 
L 352.659162 505.507574 
L 361.106387 504.822306 
L 369.553612 504.125824 
L 378.000837 503.418378 
L 386.448062 502.700172 
L 394.895286 501.971364 
L 403.342511 501.232189 
L 411.789736 500.482801 
L 420.236961 499.723427 
L 428.684185 498.95422 
L 437.13141 498.175388 
L 445.578635 497.387087 
L 454.02586 496.589491 
L 462.473085 495.782832 
L 470.920309 494.967212 
L 479.367534 494.142845 
L 487.814759 493.309909 
L 496.261984 492.468567 
L 504.709208 491.619005 
L 513.156433 490.761329 
L 521.603658 489.895703 
L 530.050883 489.022367 
L 538.498107 488.141432 
L 546.945332 487.252972 
L 555.392557 486.357339 
L 563.839782 485.45453 
L 572.287007 484.544671 
L 580.734231 483.628002 
L 589.181456 482.704735 
L 597.628681 481.774796 
L 606.075906 480.838408 
L 614.52313 479.895805 
L 622.970355 478.947256 
L 631.41758 477.992637 
L 639.864805 477.032149 
L 648.31203 476.065937 
L 656.759254 475.094068 
L 665.206479 474.116895 
L 673.653704 473.134245 
L 682.100929 472.146488 
L 690.548153 471.153644 
L 698.995378 470.155867 
L 707.442603 469.153338 
L 715.889828 468.145986 
L 724.337052 467.134171 
L 732.784277 466.117718 
L 741.231502 465.097123 
L 749.678727 464.072187 
L 758.125952 463.043218 
L 766.573176 462.01017 
L 775.020401 460.97322 
L 783.467626 459.932681 
L 791.914851 458.888171 
L 800.362075 457.84038 
L 808.8093 456.788818 
L 817.256525 455.734082 
L 825.70375 454.67609 
L 834.150975 453.614936 
L 842.598199 452.550718 
L 851.045424 451.483461 
L 859.492649 450.413367 
L 867.939874 449.340498 
L 876.387098 448.265215 
L 884.834323 447.186929 
L 893.281548 446.106469 
" clip-path="url(#p9d8b101d6a)" style="fill: none; stroke: #a55194; stroke-width: 2; stroke-linecap: round"/>
   </g>
   <g id="line2d_46">
    <path d="M 48.559071 523.440217 
L 57.006295 522.635168 
L 65.45352 521.983147 
L 73.900745 521.454883 
L 82.34797 521.026391 
L 90.795195 520.678419 
L 99.242419 520.395524 
L 107.689644 520.165336 
L 116.136869 519.955207 
L 124.584094 519.726557 
L 133.031318 519.479217 
L 141.478543 519.213486 
L 149.925768 518.929671 
L 158.372993 518.628017 
L 166.820217 518.308833 
L 175.267442 517.972366 
L 183.714667 517.618916 
L 192.161892 517.248738 
L 200.609117 516.862106 
L 209.056341 516.459277 
L 217.503566 516.04051 
L 225.950791 515.606067 
L 234.398016 515.15621 
L 242.84524 514.691173 
L 251.292465 514.211219 
L 259.73969 513.716555 
L 268.186915 513.207483 
L 276.63414 512.684207 
L 285.081364 512.146948 
L 293.528589 511.595983 
L 301.975814 511.031509 
L 310.423039 510.453788 
L 318.870263 509.862994 
L 327.317488 509.259392 
L 335.764713 508.643192 
L 344.211938 508.014606 
L 352.659162 507.373817 
L 361.106387 506.721112 
L 369.553612 506.056647 
L 378.000837 505.380625 
L 386.448062 504.693291 
L 394.895286 503.994798 
L 403.342511 503.2854 
L 411.789736 502.565227 
L 420.236961 501.834558 
L 428.684185 501.093524 
L 437.13141 500.34231 
L 445.578635 499.581155 
L 454.02586 498.810165 
L 462.473085 498.029644 
L 470.920309 497.239636 
L 479.367534 496.440402 
L 487.814759 495.632137 
L 496.261984 494.814959 
L 504.709208 493.989057 
L 513.156433 493.154615 
L 521.603658 492.311765 
L 530.050883 491.46074 
L 538.498107 490.601662 
L 546.945332 489.734623 
L 555.392557 488.859937 
L 563.839782 487.977679 
L 572.287007 487.08793 
L 580.734231 486.190999 
L 589.181456 485.286989 
L 597.628681 484.375888 
L 606.075906 483.458034 
L 614.52313 482.533462 
L 622.970355 481.602542 
L 631.41758 480.665176 
L 639.864805 479.721566 
L 648.31203 478.771875 
L 656.759254 477.816156 
L 665.206479 476.854664 
L 673.653704 475.887499 
L 682.100929 474.914749 
L 690.548153 473.936565 
L 698.995378 472.953069 
L 707.442603 471.964458 
L 715.889828 470.970746 
L 724.337052 469.972173 
L 732.784277 468.968751 
L 741.231502 467.960722 
L 749.678727 466.948065 
L 758.125952 465.931008 
L 766.573176 464.90964 
L 775.020401 463.88402 
L 783.467626 462.854337 
L 791.914851 461.820672 
L 800.362075 460.78318 
L 808.8093 459.741875 
L 817.256525 458.696906 
L 825.70375 457.648431 
L 834.150975 456.596527 
L 842.598199 455.541164 
L 851.045424 454.482595 
L 859.492649 453.420936 
L 867.939874 452.356164 
L 876.387098 451.288546 
L 884.834323 450.218092 
L 893.281548 449.145031 
" clip-path="url(#p9d8b101d6a)" style="fill: none; stroke: #de9ed6; stroke-width: 2; stroke-linecap: round"/>
   </g>
   <g id="patch_3">
    <path d="M 48.559071 521.153031 
L 48.559071 51.564121 
" style="fill: none"/>
   </g>
   <g id="patch_4">
    <path d="M 935.517672 521.153031 
L 935.517672 51.564121 
" style="fill: none"/>
   </g>
   <g id="patch_5">
    <path d="M 48.559071 521.153031 
L 935.517672 521.153031 
" style="fill: none"/>
   </g>
   <g id="patch_6">
    <path d="M 48.559071 51.564121 
L 935.517672 51.564121 
" style="fill: none"/>
   </g>
   <g id="patch_7">
    <path d="M 470.920309 80.508019 
Q 470.920309 284.520965 470.920309 486.85686 
" style="fill: none; stroke: #000000; stroke-width: 1.5; stroke-linecap: round"/>
    <path d="M 474.120309 480.45686 
L 470.920309 486.85686 
L 467.720309 480.45686 
" style="fill: none; stroke: #000000; stroke-width: 1.5; stroke-linecap: round"/>
   </g>
   <g id="text_20">
    <!-- Time -->
    <g style="fill: #262626" transform="translate(492.038371 487.044793) scale(0.18 -0.18)">
     <defs>
      <path id="CMR17-54" d="M 3981 4326 
L 288 4326 
L 179 2918 
L 294 2918 
C 378 3976 467 4160 1453 4160 
C 1568 4160 1754 4160 1805 4154 
C 1926 4135 1926 4058 1926 3912 
L 1926 459 
C 1926 230 1907 160 1376 160 
L 1197 160 
L 1197 0 
C 1504 0 1824 0 2138 0 
C 2451 0 2771 0 3078 0 
L 3078 160 
L 2899 160 
C 2368 160 2349 230 2349 459 
L 2349 3912 
C 2349 4052 2349 4129 2464 4154 
C 2515 4160 2701 4160 2816 4160 
C 3795 4160 3891 3976 3974 2918 
L 4090 2918 
L 3981 4326 
z
" transform="scale(0.015625)"/>
      <path id="CMR17-69" d="M 992 3909 
C 992 4049 877 4170 730 4170 
C 589 4170 467 4056 467 3909 
C 467 3769 582 3648 730 3648 
C 870 3648 992 3763 992 3909 
z
M 243 2706 
L 243 2541 
C 602 2541 653 2502 653 2197 
L 653 427 
C 653 184 627 153 218 153 
L 218 -13 
C 371 0 646 0 806 0 
C 960 0 1222 0 1370 -13 
L 1370 153 
C 992 153 979 191 979 420 
L 979 2776 
L 243 2706 
z
" transform="scale(0.015625)"/>
      <path id="CMR17-6d" d="M 4326 1933 
C 4326 2252 4269 2790 3507 2790 
C 3072 2790 2771 2496 2656 2151 
L 2650 2151 
C 2573 2676 2195 2790 1837 2790 
C 1331 2790 1069 2400 973 2144 
L 966 2144 
L 966 2790 
L 211 2720 
L 211 2554 
C 589 2554 646 2515 646 2208 
L 646 428 
C 646 184 621 153 211 153 
L 211 -13 
C 365 0 646 0 813 0 
C 979 0 1267 0 1421 -13 
L 1421 153 
C 1011 153 986 178 986 428 
L 986 1658 
C 986 2247 1344 2688 1792 2688 
C 2266 2688 2317 2266 2317 1958 
L 2317 428 
C 2317 184 2291 153 1882 153 
L 1882 -13 
C 2035 0 2317 0 2483 0 
C 2650 0 2938 0 3091 -13 
L 3091 153 
C 2682 153 2656 178 2656 428 
L 2656 1658 
C 2656 2247 3014 2688 3462 2688 
C 3936 2688 3987 2266 3987 1958 
L 3987 428 
C 3987 184 3962 153 3552 153 
L 3552 -13 
C 3706 0 3987 0 4154 0 
C 4320 0 4608 0 4762 -13 
L 4762 153 
C 4352 153 4326 178 4326 428 
L 4326 1933 
z
" transform="scale(0.015625)"/>
      <path id="CMR17-65" d="M 2438 1472 
C 2464 1498 2464 1511 2464 1576 
C 2464 2238 2118 2816 1389 2816 
C 710 2816 173 2169 173 1383 
C 173 551 781 -64 1459 -64 
C 2176 -64 2458 607 2458 740 
C 2458 784 2419 784 2406 784 
C 2362 784 2355 771 2330 696 
C 2189 265 1837 51 1504 51 
C 1229 51 954 203 781 480 
C 582 803 582 1176 582 1472 
L 2438 1472 
z
M 589 1568 
C 634 2505 1126 2714 1382 2714 
C 1818 2714 2112 2297 2118 1568 
L 589 1568 
z
" transform="scale(0.015625)"/>
     </defs>
     <use xlink:href="#CMR17-54" transform="scale(0.996264)"/>
     <use xlink:href="#CMR17-69" transform="translate(66.509881 0) scale(0.996264)"/>
     <use xlink:href="#CMR17-6d" transform="translate(91.380939 0) scale(0.996264)"/>
     <use xlink:href="#CMR17-65" transform="translate(168.300529 0) scale(0.996264)"/>
    </g>
   </g>
   <g id="legend_1">
    <g id="line2d_47">
     <path d="M 948.117672 197.198434 
L 962.117672 197.198434 
L 976.117672 197.198434 
" style="fill: none; stroke: #393b79; stroke-width: 2; stroke-linecap: round"/>
    </g>
    <g id="text_21">
     <!-- t = 0.00 -->
     <g style="fill: #262626" transform="translate(987.317672 202.098434) scale(0.14 -0.14)">
      <defs>
       <path id="CMR17-74" d="M 966 2560 
L 1862 2560 
L 1862 2725 
L 966 2725 
L 966 3904 
L 851 3904 
C 838 3245 614 2668 70 2668 
L 70 2560 
L 627 2560 
L 627 771 
C 627 650 627 -64 1370 -64 
C 1747 -64 1965 306 1965 777 
L 1965 1140 
L 1850 1140 
L 1850 783 
C 1850 344 1677 51 1408 51 
C 1222 51 966 178 966 758 
L 966 2560 
z
" transform="scale(0.015625)"/>
       <path id="CMR17-3d" d="M 4115 2017 
C 4211 2017 4307 2017 4307 2125 
C 4307 2240 4198 2240 4090 2240 
L 512 2240 
C 403 2240 294 2240 294 2125 
C 294 2017 390 2017 486 2017 
L 4115 2017 
z
M 4090 896 
C 4198 896 4307 896 4307 1011 
C 4307 1119 4211 1119 4115 1119 
L 486 1119 
C 390 1119 294 1119 294 1011 
C 294 896 403 896 512 896 
L 4090 896 
z
" transform="scale(0.015625)"/>
       <path id="CMR17-2e" d="M 1062 261 
C 1062 420 934 522 800 522 
C 672 522 538 420 538 261 
C 538 102 666 0 800 0 
C 928 0 1062 102 1062 261 
z
" transform="scale(0.015625)"/>
      </defs>
      <use xlink:href="#CMR17-74" transform="scale(0.996264)"/>
      <use xlink:href="#CMR17-3d" transform="translate(65.356734 0) scale(0.996264)"/>
      <use xlink:href="#CMR17-30" transform="translate(167.147489 0) scale(0.996264)"/>
      <use xlink:href="#CMR17-2e" transform="translate(212.837966 0) scale(0.996264)"/>
      <use xlink:href="#CMR17-30" transform="translate(237.709025 0) scale(0.996264)"/>
      <use xlink:href="#CMR17-30" transform="translate(283.399502 0) scale(0.996264)"/>
     </g>
    </g>
    <g id="line2d_48">
     <path d="M 948.117672 216.710462 
L 962.117672 216.710462 
L 976.117672 216.710462 
" style="fill: none; stroke: #6b6ecf; stroke-width: 2; stroke-linecap: round"/>
    </g>
    <g id="text_22">
     <!-- t = 10.00 -->
     <g style="fill: #262626" transform="translate(987.317672 221.610462) scale(0.14 -0.14)">
      <use xlink:href="#CMR17-74" transform="scale(0.996264)"/>
      <use xlink:href="#CMR17-3d" transform="translate(65.356734 0) scale(0.996264)"/>
      <use xlink:href="#CMR17-31" transform="translate(167.147489 0) scale(0.996264)"/>
      <use xlink:href="#CMR17-30" transform="translate(212.837966 0) scale(0.996264)"/>
      <use xlink:href="#CMR17-2e" transform="translate(258.528443 0) scale(0.996264)"/>
      <use xlink:href="#CMR17-30" transform="translate(283.399502 0) scale(0.996264)"/>
      <use xlink:href="#CMR17-30" transform="translate(329.089979 0) scale(0.996264)"/>
     </g>
    </g>
    <g id="line2d_49">
     <path d="M 948.117672 236.222491 
L 962.117672 236.222491 
L 976.117672 236.222491 
" style="fill: none; stroke: #637939; stroke-width: 2; stroke-linecap: round"/>
    </g>
    <g id="text_23">
     <!-- t = 50.00 -->
     <g style="fill: #262626" transform="translate(987.317672 241.122491) scale(0.14 -0.14)">
      <use xlink:href="#CMR17-74" transform="scale(0.996264)"/>
      <use xlink:href="#CMR17-3d" transform="translate(65.356734 0) scale(0.996264)"/>
      <use xlink:href="#CMR17-35" transform="translate(167.147489 0) scale(0.996264)"/>
      <use xlink:href="#CMR17-30" transform="translate(212.837966 0) scale(0.996264)"/>
      <use xlink:href="#CMR17-2e" transform="translate(258.528443 0) scale(0.996264)"/>
      <use xlink:href="#CMR17-30" transform="translate(283.399502 0) scale(0.996264)"/>
      <use xlink:href="#CMR17-30" transform="translate(329.089979 0) scale(0.996264)"/>
     </g>
    </g>
    <g id="line2d_50">
     <path d="M 948.117672 255.734519 
L 962.117672 255.734519 
L 976.117672 255.734519 
" style="fill: none; stroke: #b5cf6b; stroke-width: 2; stroke-linecap: round"/>
    </g>
    <g id="text_24">
     <!-- t = 100.00 -->
     <g style="fill: #262626" transform="translate(987.317672 260.634519) scale(0.14 -0.14)">
      <use xlink:href="#CMR17-74" transform="scale(0.996264)"/>
      <use xlink:href="#CMR17-3d" transform="translate(65.356734 0) scale(0.996264)"/>
      <use xlink:href="#CMR17-31" transform="translate(167.147489 0) scale(0.996264)"/>
      <use xlink:href="#CMR17-30" transform="translate(212.837966 0) scale(0.996264)"/>
      <use xlink:href="#CMR17-30" transform="translate(258.528443 0) scale(0.996264)"/>
      <use xlink:href="#CMR17-2e" transform="translate(304.21892 0) scale(0.996264)"/>
      <use xlink:href="#CMR17-30" transform="translate(329.089979 0) scale(0.996264)"/>
      <use xlink:href="#CMR17-30" transform="translate(374.780456 0) scale(0.996264)"/>
     </g>
    </g>
    <g id="line2d_51">
     <path d="M 948.117672 275.246547 
L 962.117672 275.246547 
L 976.117672 275.246547 
" style="fill: none; stroke: #8c6d31; stroke-width: 2; stroke-linecap: round"/>
    </g>
    <g id="text_25">
     <!-- t = 250.00 -->
     <g style="fill: #262626" transform="translate(987.317672 280.146547) scale(0.14 -0.14)">
      <use xlink:href="#CMR17-74" transform="scale(0.996264)"/>
      <use xlink:href="#CMR17-3d" transform="translate(65.356734 0) scale(0.996264)"/>
      <use xlink:href="#CMR17-32" transform="translate(167.147489 0) scale(0.996264)"/>
      <use xlink:href="#CMR17-35" transform="translate(212.837966 0) scale(0.996264)"/>
      <use xlink:href="#CMR17-30" transform="translate(258.528443 0) scale(0.996264)"/>
      <use xlink:href="#CMR17-2e" transform="translate(304.21892 0) scale(0.996264)"/>
      <use xlink:href="#CMR17-30" transform="translate(329.089979 0) scale(0.996264)"/>
      <use xlink:href="#CMR17-30" transform="translate(374.780456 0) scale(0.996264)"/>
     </g>
    </g>
    <g id="line2d_52">
     <path d="M 948.117672 294.758576 
L 962.117672 294.758576 
L 976.117672 294.758576 
" style="fill: none; stroke: #e7cb94; stroke-width: 2; stroke-linecap: round"/>
    </g>
    <g id="text_26">
     <!-- t = 500.00 -->
     <g style="fill: #262626" transform="translate(987.317672 299.658576) scale(0.14 -0.14)">
      <use xlink:href="#CMR17-74" transform="scale(0.996264)"/>
      <use xlink:href="#CMR17-3d" transform="translate(65.356734 0) scale(0.996264)"/>
      <use xlink:href="#CMR17-35" transform="translate(167.147489 0) scale(0.996264)"/>
      <use xlink:href="#CMR17-30" transform="translate(212.837966 0) scale(0.996264)"/>
      <use xlink:href="#CMR17-30" transform="translate(258.528443 0) scale(0.996264)"/>
      <use xlink:href="#CMR17-2e" transform="translate(304.21892 0) scale(0.996264)"/>
      <use xlink:href="#CMR17-30" transform="translate(329.089979 0) scale(0.996264)"/>
      <use xlink:href="#CMR17-30" transform="translate(374.780456 0) scale(0.996264)"/>
     </g>
    </g>
    <g id="line2d_53">
     <path d="M 948.117672 314.270604 
L 962.117672 314.270604 
L 976.117672 314.270604 
" style="fill: none; stroke: #ad494a; stroke-width: 2; stroke-linecap: round"/>
    </g>
    <g id="text_27">
     <!-- t = 750.00 -->
     <g style="fill: #262626" transform="translate(987.317672 319.170604) scale(0.14 -0.14)">
      <use xlink:href="#CMR17-74" transform="scale(0.996264)"/>
      <use xlink:href="#CMR17-3d" transform="translate(65.356734 0) scale(0.996264)"/>
      <use xlink:href="#CMR17-37" transform="translate(167.147489 0) scale(0.996264)"/>
      <use xlink:href="#CMR17-35" transform="translate(212.837966 0) scale(0.996264)"/>
      <use xlink:href="#CMR17-30" transform="translate(258.528443 0) scale(0.996264)"/>
      <use xlink:href="#CMR17-2e" transform="translate(304.21892 0) scale(0.996264)"/>
      <use xlink:href="#CMR17-30" transform="translate(329.089979 0) scale(0.996264)"/>
      <use xlink:href="#CMR17-30" transform="translate(374.780456 0) scale(0.996264)"/>
     </g>
    </g>
    <g id="line2d_54">
     <path d="M 948.117672 333.782633 
L 962.117672 333.782633 
L 976.117672 333.782633 
" style="fill: none; stroke: #e7969c; stroke-width: 2; stroke-linecap: round"/>
    </g>
    <g id="text_28">
     <!-- t = 1000.00 -->
     <g style="fill: #262626" transform="translate(987.317672 338.682633) scale(0.14 -0.14)">
      <use xlink:href="#CMR17-74" transform="scale(0.996264)"/>
      <use xlink:href="#CMR17-3d" transform="translate(65.356734 0) scale(0.996264)"/>
      <use xlink:href="#CMR17-31" transform="translate(167.147489 0) scale(0.996264)"/>
      <use xlink:href="#CMR17-30" transform="translate(212.837966 0) scale(0.996264)"/>
      <use xlink:href="#CMR17-30" transform="translate(258.528443 0) scale(0.996264)"/>
      <use xlink:href="#CMR17-30" transform="translate(304.21892 0) scale(0.996264)"/>
      <use xlink:href="#CMR17-2e" transform="translate(349.909397 0) scale(0.996264)"/>
      <use xlink:href="#CMR17-30" transform="translate(374.780456 0) scale(0.996264)"/>
      <use xlink:href="#CMR17-30" transform="translate(420.470933 0) scale(0.996264)"/>
     </g>
    </g>
    <g id="line2d_55">
     <path d="M 948.117672 353.294661 
L 962.117672 353.294661 
L 976.117672 353.294661 
" style="fill: none; stroke: #a55194; stroke-width: 2; stroke-linecap: round"/>
    </g>
    <g id="text_29">
     <!-- t = 1250.00 -->
     <g style="fill: #262626" transform="translate(987.317672 358.194661) scale(0.14 -0.14)">
      <use xlink:href="#CMR17-74" transform="scale(0.996264)"/>
      <use xlink:href="#CMR17-3d" transform="translate(65.356734 0) scale(0.996264)"/>
      <use xlink:href="#CMR17-31" transform="translate(167.147489 0) scale(0.996264)"/>
      <use xlink:href="#CMR17-32" transform="translate(212.837966 0) scale(0.996264)"/>
      <use xlink:href="#CMR17-35" transform="translate(258.528443 0) scale(0.996264)"/>
      <use xlink:href="#CMR17-30" transform="translate(304.21892 0) scale(0.996264)"/>
      <use xlink:href="#CMR17-2e" transform="translate(349.909397 0) scale(0.996264)"/>
      <use xlink:href="#CMR17-30" transform="translate(374.780456 0) scale(0.996264)"/>
      <use xlink:href="#CMR17-30" transform="translate(420.470933 0) scale(0.996264)"/>
     </g>
    </g>
    <g id="line2d_56">
     <path d="M 948.117672 372.806689 
L 962.117672 372.806689 
L 976.117672 372.806689 
" style="fill: none; stroke: #de9ed6; stroke-width: 2; stroke-linecap: round"/>
    </g>
    <g id="text_30">
     <!-- t = 1500.00 -->
     <g style="fill: #262626" transform="translate(987.317672 377.706689) scale(0.14 -0.14)">
      <use xlink:href="#CMR17-74" transform="scale(0.996264)"/>
      <use xlink:href="#CMR17-3d" transform="translate(65.356734 0) scale(0.996264)"/>
      <use xlink:href="#CMR17-31" transform="translate(167.147489 0) scale(0.996264)"/>
      <use xlink:href="#CMR17-35" transform="translate(212.837966 0) scale(0.996264)"/>
      <use xlink:href="#CMR17-30" transform="translate(258.528443 0) scale(0.996264)"/>
      <use xlink:href="#CMR17-30" transform="translate(304.21892 0) scale(0.996264)"/>
      <use xlink:href="#CMR17-2e" transform="translate(349.909397 0) scale(0.996264)"/>
      <use xlink:href="#CMR17-30" transform="translate(374.780456 0) scale(0.996264)"/>
      <use xlink:href="#CMR17-30" transform="translate(420.470933 0) scale(0.996264)"/>
     </g>
    </g>
   </g>
  </g>
  <g id="text_31">
   <!-- permeability -->
   <g style="fill: #262626" transform="translate(492.111452 24.803515) scale(0.192 -0.192)">
    <defs>
     <path id="CMR17-70" d="M 1408 -1063 
C 998 -1063 973 -1037 973 -789 
L 973 402 
C 1158 134 1427 -38 1766 -38 
C 2406 -38 3053 523 3053 1388 
C 3053 2191 2496 2802 1837 2802 
C 1453 2802 1139 2592 960 2338 
L 960 2802 
L 198 2732 
L 198 2567 
C 576 2567 634 2528 634 2223 
L 634 -789 
C 634 -1031 608 -1063 198 -1063 
L 198 -1228 
C 352 -1216 634 -1216 800 -1216 
C 966 -1216 1254 -1216 1408 -1228 
L 1408 -1063 
z
M 973 2012 
C 973 2102 973 2235 1222 2471 
C 1254 2497 1472 2688 1792 2688 
C 2259 2688 2643 2108 2643 1382 
C 2643 656 2234 64 1728 64 
C 1498 64 1248 172 1056 472 
C 973 612 973 650 973 752 
L 973 2012 
z
" transform="scale(0.015625)"/>
     <path id="CMR17-72" d="M 960 1497 
C 960 2112 1222 2688 1702 2688 
C 1747 2688 1792 2682 1837 2662 
C 1837 2662 1696 2617 1696 2452 
C 1696 2298 1818 2234 1914 2234 
C 1990 2234 2131 2279 2131 2458 
C 2131 2663 1926 2790 1709 2790 
C 1222 2790 1011 2317 947 2093 
L 941 2093 
L 941 2790 
L 198 2720 
L 198 2554 
C 576 2554 634 2515 634 2208 
L 634 428 
C 634 184 608 153 198 153 
L 198 -13 
C 352 0 646 0 813 0 
C 998 0 1325 0 1498 -13 
L 1498 153 
C 1037 153 960 153 960 440 
L 960 1497 
z
" transform="scale(0.015625)"/>
     <path id="CMR17-61" d="M 2304 1653 
C 2304 2072 2304 2294 2035 2543 
C 1798 2752 1523 2816 1306 2816 
C 800 2816 435 2407 435 1971 
C 435 1728 627 1728 666 1728 
C 749 1728 896 1778 896 1954 
C 896 2112 774 2181 666 2181 
C 640 2181 608 2174 589 2168 
C 723 2592 1069 2714 1293 2714 
C 1613 2714 1965 2429 1965 1885 
L 1965 1600 
C 1587 1600 1133 1549 774 1357 
C 371 1133 256 813 256 570 
C 256 77 832 -64 1171 -64 
C 1523 -64 1850 139 1990 511 
C 2003 233 2182 -18 2464 -18 
C 2598 -18 2938 70 2938 567 
L 2938 920 
L 2822 920 
L 2822 562 
C 2822 178 2650 128 2566 128 
C 2304 128 2304 458 2304 738 
L 2304 1653 
z
M 1965 870 
C 1965 317 1568 38 1216 38 
C 896 38 646 275 646 570 
C 646 761 730 1100 1101 1305 
C 1408 1478 1760 1504 1965 1504 
L 1965 870 
z
" transform="scale(0.015625)"/>
     <path id="CMR17-62" d="M 960 4396 
L 198 4326 
L 198 4160 
C 576 4160 634 4122 634 3817 
L 634 -13 
L 749 -13 
L 934 441 
C 1120 141 1395 -64 1766 -64 
C 2406 -64 3053 500 3053 1370 
C 3053 2188 2477 2790 1830 2790 
C 1434 2790 1152 2579 960 2330 
L 960 4396 
z
M 973 2004 
C 973 2118 973 2138 1062 2272 
C 1312 2657 1670 2688 1792 2688 
C 1984 2688 2643 2585 2643 1376 
C 2643 108 1888 38 1734 38 
C 1536 38 1248 114 1043 486 
C 973 608 973 621 973 735 
L 973 2004 
z
" transform="scale(0.015625)"/>
     <path id="CMR17-6c" d="M 979 4396 
L 218 4326 
L 218 4160 
C 595 4160 653 4122 653 3817 
L 653 426 
C 653 184 627 153 218 153 
L 218 -13 
C 371 0 653 0 813 0 
C 979 0 1261 0 1414 -13 
L 1414 153 
C 1005 153 979 178 979 426 
L 979 4396 
z
" transform="scale(0.015625)"/>
     <path id="CMR17-79" d="M 2496 2197 
C 2656 2586 2944 2586 3034 2586 
L 3034 2752 
C 2912 2752 2752 2752 2630 2752 
C 2496 2752 2285 2752 2157 2758 
L 2157 2592 
C 2400 2573 2406 2394 2406 2343 
C 2406 2280 2394 2248 2362 2171 
L 1664 449 
L 902 2306 
C 870 2382 870 2426 870 2433 
C 870 2573 1018 2586 1171 2586 
L 1171 2758 
C 1018 2752 742 2752 582 2752 
C 410 2752 205 2752 64 2758 
L 64 2586 
C 410 2586 448 2554 531 2350 
L 1485 15 
C 1197 -738 1030 -1178 627 -1178 
C 557 -1178 397 -1159 282 -1044 
C 429 -1031 493 -942 493 -833 
C 493 -725 416 -629 288 -629 
C 147 -629 77 -725 77 -840 
C 77 -1095 339 -1280 627 -1280 
C 998 -1280 1229 -922 1357 -604 
L 2496 2197 
z
" transform="scale(0.015625)"/>
    </defs>
    <use xlink:href="#CMR17-70" transform="scale(0.996264)"/>
    <use xlink:href="#CMR17-65" transform="translate(53.497809 0) scale(0.996264)"/>
    <use xlink:href="#CMR17-72" transform="translate(93.983469 0) scale(0.996264)"/>
    <use xlink:href="#CMR17-6d" transform="translate(129.264237 0) scale(0.996264)"/>
    <use xlink:href="#CMR17-65" transform="translate(206.183827 0) scale(0.996264)"/>
    <use xlink:href="#CMR17-61" transform="translate(246.669487 0) scale(0.996264)"/>
    <use xlink:href="#CMR17-62" transform="translate(292.359964 0) scale(0.996264)"/>
    <use xlink:href="#CMR17-69" transform="translate(343.255334 0) scale(0.996264)"/>
    <use xlink:href="#CMR17-6c" transform="translate(368.126392 0) scale(0.996264)"/>
    <use xlink:href="#CMR17-69" transform="translate(392.997451 0) scale(0.996264)"/>
    <use xlink:href="#CMR17-74" transform="translate(417.868509 0) scale(0.996264)"/>
    <use xlink:href="#CMR17-79" transform="translate(450.546823 0) scale(0.996264)"/>
   </g>
  </g>
 </g>
 <defs>
  <clipPath id="p9d8b101d6a">
   <rect x="48.559071" y="51.564121" width="886.958601" height="469.58891"/>
  </clipPath>
 </defs>
</svg>
