<?xml version="1.0" encoding="utf-8" standalone="no"?>
<!DOCTYPE svg PUBLIC "-//W3C//DTD SVG 1.1//EN"
  "http://www.w3.org/Graphics/SVG/1.1/DTD/svg11.dtd">
<svg xmlns:xlink="http://www.w3.org/1999/xlink" width="1080pt" height="756pt" viewBox="0 0 1080 756" xmlns="http://www.w3.org/2000/svg" version="1.1">
 <metadata>
  <rdf:RDF xmlns:dc="http://purl.org/dc/elements/1.1/" xmlns:cc="http://creativecommons.org/ns#" xmlns:rdf="http://www.w3.org/1999/02/22-rdf-syntax-ns#">
   <cc:Work>
    <dc:type rdf:resource="http://purl.org/dc/dcmitype/StillImage"/>
    <dc:date>2024-07-30T20:15:33.358117</dc:date>
    <dc:format>image/svg+xml</dc:format>
    <dc:creator>
     <cc:Agent>
      <dc:title>Matplotlib v3.9.0, https://matplotlib.org/</dc:title>
     </cc:Agent>
    </dc:creator>
   </cc:Work>
  </rdf:RDF>
 </metadata>
 <defs>
  <style type="text/css">*{stroke-linejoin: round; stroke-linecap: butt}</style>
 </defs>
 <g id="figure_1">
  <g id="patch_1">
   <path d="M 0 756 
L 1080 756 
L 1080 0 
L 0 0 
z
" style="fill: #ffffff"/>
  </g>
  <g id="axes_1">
   <g id="patch_2">
    <path d="M 88.532127 678.237256 
L 1041.12 678.237256 
L 1041.12 38.88 
L 88.532127 38.88 
z
" style="fill: #ffffff"/>
   </g>
   <g id="matplotlib.axis_1">
    <g id="xtick_1">
     <g id="line2d_1">
      <defs>
       <path id="m67cb0c5a71" d="M 0 0 
L 0 3.5 
" style="stroke: #262626; stroke-width: 0.8"/>
      </defs>
      <g>
       <use xlink:href="#m67cb0c5a71" x="131.831576" y="678.237256" style="fill: #262626; stroke: #262626; stroke-width: 0.8"/>
      </g>
     </g>
     <g id="text_1">
      <!-- $\mathdefault{0.0}$ -->
      <g style="fill: #262626" transform="translate(110.505512 710.143856) scale(0.36 -0.36)">
       <defs>
        <path id="CMR17-30" d="M 2688 2025 
C 2688 2416 2682 3080 2413 3591 
C 2176 4039 1798 4198 1466 4198 
C 1158 4198 768 4058 525 3597 
C 269 3118 243 2524 243 2025 
C 243 1661 250 1106 448 619 
C 723 -39 1216 -128 1466 -128 
C 1760 -128 2208 -7 2470 600 
C 2662 1042 2688 1559 2688 2025 
z
M 1466 -26 
C 1056 -26 813 325 723 812 
C 653 1188 653 1738 653 2096 
C 653 2588 653 2997 736 3387 
C 858 3929 1216 4096 1466 4096 
C 1728 4096 2067 3923 2189 3400 
C 2272 3036 2278 2607 2278 2096 
C 2278 1680 2278 1169 2202 792 
C 2067 95 1690 -26 1466 -26 
z
" transform="scale(0.015625)"/>
        <path id="CMMI12-3a" d="M 1178 307 
C 1178 492 1024 619 870 619 
C 685 619 557 466 557 313 
C 557 128 710 0 864 0 
C 1050 0 1178 153 1178 307 
z
" transform="scale(0.015625)"/>
       </defs>
       <use xlink:href="#CMR17-30" transform="scale(0.996264)"/>
       <use xlink:href="#CMMI12-3a" transform="translate(45.690477 0) scale(0.996264)"/>
       <use xlink:href="#CMR17-30" transform="translate(72.787654 0) scale(0.996264)"/>
      </g>
     </g>
    </g>
    <g id="xtick_2">
     <g id="line2d_2">
      <g>
       <use xlink:href="#m67cb0c5a71" x="305.029371" y="678.237256" style="fill: #262626; stroke: #262626; stroke-width: 0.8"/>
      </g>
     </g>
     <g id="text_2">
      <!-- $\mathdefault{0.2}$ -->
      <g style="fill: #262626" transform="translate(283.703307 710.143856) scale(0.36 -0.36)">
       <defs>
        <path id="CMR17-32" d="M 2669 989 
L 2554 989 
C 2490 536 2438 459 2413 420 
C 2381 369 1920 369 1830 369 
L 602 369 
C 832 619 1280 1072 1824 1597 
C 2214 1967 2669 2402 2669 3035 
C 2669 3790 2067 4224 1395 4224 
C 691 4224 262 3604 262 3030 
C 262 2780 448 2748 525 2748 
C 589 2748 781 2787 781 3010 
C 781 3207 614 3264 525 3264 
C 486 3264 448 3258 422 3245 
C 544 3790 915 4058 1306 4058 
C 1862 4058 2227 3617 2227 3035 
C 2227 2479 1901 2000 1536 1584 
L 262 146 
L 262 0 
L 2515 0 
L 2669 989 
z
" transform="scale(0.015625)"/>
       </defs>
       <use xlink:href="#CMR17-30" transform="scale(0.996264)"/>
       <use xlink:href="#CMMI12-3a" transform="translate(45.690477 0) scale(0.996264)"/>
       <use xlink:href="#CMR17-32" transform="translate(72.787654 0) scale(0.996264)"/>
      </g>
     </g>
    </g>
    <g id="xtick_3">
     <g id="line2d_3">
      <g>
       <use xlink:href="#m67cb0c5a71" x="478.227166" y="678.237256" style="fill: #262626; stroke: #262626; stroke-width: 0.8"/>
      </g>
     </g>
     <g id="text_3">
      <!-- $\mathdefault{0.4}$ -->
      <g style="fill: #262626" transform="translate(456.901102 710.143856) scale(0.36 -0.36)">
       <defs>
        <path id="CMR17-34" d="M 2150 4122 
C 2150 4256 2144 4256 2029 4256 
L 128 1254 
L 128 1088 
L 1779 1088 
L 1779 457 
C 1779 224 1766 160 1318 160 
L 1197 160 
L 1197 0 
C 1402 0 1747 0 1965 0 
C 2182 0 2528 0 2733 0 
L 2733 160 
L 2611 160 
C 2163 160 2150 224 2150 457 
L 2150 1088 
L 2803 1088 
L 2803 1254 
L 2150 1254 
L 2150 4122 
z
M 1798 3703 
L 1798 1254 
L 256 1254 
L 1798 3703 
z
" transform="scale(0.015625)"/>
       </defs>
       <use xlink:href="#CMR17-30" transform="scale(0.996264)"/>
       <use xlink:href="#CMMI12-3a" transform="translate(45.690477 0) scale(0.996264)"/>
       <use xlink:href="#CMR17-34" transform="translate(72.787654 0) scale(0.996264)"/>
      </g>
     </g>
    </g>
    <g id="xtick_4">
     <g id="line2d_4">
      <g>
       <use xlink:href="#m67cb0c5a71" x="651.424961" y="678.237256" style="fill: #262626; stroke: #262626; stroke-width: 0.8"/>
      </g>
     </g>
     <g id="text_4">
      <!-- $\mathdefault{0.6}$ -->
      <g style="fill: #262626" transform="translate(630.098898 710.143856) scale(0.36 -0.36)">
       <defs>
        <path id="CMR17-36" d="M 678 2176 
C 678 3690 1395 4032 1811 4032 
C 1946 4032 2272 4009 2400 3776 
C 2298 3776 2106 3776 2106 3553 
C 2106 3381 2246 3323 2336 3323 
C 2394 3323 2566 3348 2566 3560 
C 2566 3954 2246 4179 1805 4179 
C 1043 4179 243 3390 243 1984 
C 243 253 966 -128 1478 -128 
C 2099 -128 2688 427 2688 1283 
C 2688 2081 2170 2662 1517 2662 
C 1126 2662 838 2407 678 1960 
L 678 2176 
z
M 1478 25 
C 691 25 691 1200 691 1436 
C 691 1896 909 2560 1504 2560 
C 1613 2560 1926 2560 2138 2120 
C 2253 1870 2253 1609 2253 1289 
C 2253 944 2253 690 2118 434 
C 1978 171 1773 25 1478 25 
z
" transform="scale(0.015625)"/>
       </defs>
       <use xlink:href="#CMR17-30" transform="scale(0.996264)"/>
       <use xlink:href="#CMMI12-3a" transform="translate(45.690477 0) scale(0.996264)"/>
       <use xlink:href="#CMR17-36" transform="translate(72.787654 0) scale(0.996264)"/>
      </g>
     </g>
    </g>
    <g id="xtick_5">
     <g id="line2d_5">
      <g>
       <use xlink:href="#m67cb0c5a71" x="824.622756" y="678.237256" style="fill: #262626; stroke: #262626; stroke-width: 0.8"/>
      </g>
     </g>
     <g id="text_5">
      <!-- $\mathdefault{0.8}$ -->
      <g style="fill: #262626" transform="translate(803.296693 710.143856) scale(0.36 -0.36)">
       <defs>
        <path id="CMR17-38" d="M 1741 2264 
C 2144 2467 2554 2773 2554 3263 
C 2554 3841 1990 4179 1472 4179 
C 890 4179 378 3759 378 3180 
C 378 3021 416 2747 666 2505 
C 730 2442 998 2251 1171 2130 
C 883 1983 211 1634 211 934 
C 211 279 838 -128 1459 -128 
C 2144 -128 2720 362 2720 1010 
C 2720 1590 2330 1857 2074 2029 
L 1741 2264 
z
M 902 2822 
C 851 2854 595 3051 595 3351 
C 595 3739 998 4032 1459 4032 
C 1965 4032 2336 3676 2336 3262 
C 2336 2669 1670 2331 1638 2331 
C 1632 2331 1626 2331 1574 2370 
L 902 2822 
z
M 2080 1519 
C 2176 1449 2483 1240 2483 851 
C 2483 381 2010 25 1472 25 
C 890 25 448 438 448 940 
C 448 1443 838 1862 1280 2060 
L 2080 1519 
z
" transform="scale(0.015625)"/>
       </defs>
       <use xlink:href="#CMR17-30" transform="scale(0.996264)"/>
       <use xlink:href="#CMMI12-3a" transform="translate(45.690477 0) scale(0.996264)"/>
       <use xlink:href="#CMR17-38" transform="translate(72.787654 0) scale(0.996264)"/>
      </g>
     </g>
    </g>
    <g id="xtick_6">
     <g id="line2d_6">
      <g>
       <use xlink:href="#m67cb0c5a71" x="997.820551" y="678.237256" style="fill: #262626; stroke: #262626; stroke-width: 0.8"/>
      </g>
     </g>
     <g id="text_6">
      <!-- $\mathdefault{1.0}$ -->
      <g style="fill: #262626" transform="translate(976.494488 710.143856) scale(0.36 -0.36)">
       <defs>
        <path id="CMR17-31" d="M 1702 4058 
C 1702 4192 1696 4192 1606 4192 
C 1357 3916 979 3827 621 3827 
C 602 3827 570 3827 563 3808 
C 557 3795 557 3782 557 3648 
C 755 3648 1088 3686 1344 3839 
L 1344 461 
C 1344 236 1331 160 781 160 
L 589 160 
L 589 0 
C 896 0 1216 0 1523 0 
C 1830 0 2150 0 2458 0 
L 2458 160 
L 2266 160 
C 1715 160 1702 230 1702 458 
L 1702 4058 
z
" transform="scale(0.015625)"/>
       </defs>
       <use xlink:href="#CMR17-31" transform="scale(0.996264)"/>
       <use xlink:href="#CMMI12-3a" transform="translate(45.690477 0) scale(0.996264)"/>
       <use xlink:href="#CMR17-30" transform="translate(72.787654 0) scale(0.996264)"/>
      </g>
     </g>
    </g>
   </g>
   <g id="matplotlib.axis_2">
    <g id="ytick_1">
     <g id="line2d_7">
      <defs>
       <path id="m3a9de682dd" d="M 0 0 
L -3.5 0 
" style="stroke: #262626; stroke-width: 0.8"/>
      </defs>
      <g>
       <use xlink:href="#m3a9de682dd" x="88.532127" y="604.598424" style="fill: #262626; stroke: #262626; stroke-width: 0.8"/>
      </g>
     </g>
     <g id="text_7">
      <!-- $\mathdefault{0.0}$ -->
      <g style="fill: #262626" transform="translate(38.88 617.051724) scale(0.36 -0.36)">
       <use xlink:href="#CMR17-30" transform="scale(0.996264)"/>
       <use xlink:href="#CMMI12-3a" transform="translate(45.690477 0) scale(0.996264)"/>
       <use xlink:href="#CMR17-30" transform="translate(72.787654 0) scale(0.996264)"/>
      </g>
     </g>
    </g>
    <g id="ytick_2">
     <g id="line2d_8">
      <g>
       <use xlink:href="#m3a9de682dd" x="88.532127" y="497.267078" style="fill: #262626; stroke: #262626; stroke-width: 0.8"/>
      </g>
     </g>
     <g id="text_8">
      <!-- $\mathdefault{0.2}$ -->
      <g style="fill: #262626" transform="translate(38.88 509.720378) scale(0.36 -0.36)">
       <use xlink:href="#CMR17-30" transform="scale(0.996264)"/>
       <use xlink:href="#CMMI12-3a" transform="translate(45.690477 0) scale(0.996264)"/>
       <use xlink:href="#CMR17-32" transform="translate(72.787654 0) scale(0.996264)"/>
      </g>
     </g>
    </g>
    <g id="ytick_3">
     <g id="line2d_9">
      <g>
       <use xlink:href="#m3a9de682dd" x="88.532127" y="389.935732" style="fill: #262626; stroke: #262626; stroke-width: 0.8"/>
      </g>
     </g>
     <g id="text_9">
      <!-- $\mathdefault{0.4}$ -->
      <g style="fill: #262626" transform="translate(38.88 402.389032) scale(0.36 -0.36)">
       <use xlink:href="#CMR17-30" transform="scale(0.996264)"/>
       <use xlink:href="#CMMI12-3a" transform="translate(45.690477 0) scale(0.996264)"/>
       <use xlink:href="#CMR17-34" transform="translate(72.787654 0) scale(0.996264)"/>
      </g>
     </g>
    </g>
    <g id="ytick_4">
     <g id="line2d_10">
      <g>
       <use xlink:href="#m3a9de682dd" x="88.532127" y="282.604386" style="fill: #262626; stroke: #262626; stroke-width: 0.8"/>
      </g>
     </g>
     <g id="text_10">
      <!-- $\mathdefault{0.6}$ -->
      <g style="fill: #262626" transform="translate(38.88 295.057686) scale(0.36 -0.36)">
       <use xlink:href="#CMR17-30" transform="scale(0.996264)"/>
       <use xlink:href="#CMMI12-3a" transform="translate(45.690477 0) scale(0.996264)"/>
       <use xlink:href="#CMR17-36" transform="translate(72.787654 0) scale(0.996264)"/>
      </g>
     </g>
    </g>
    <g id="ytick_5">
     <g id="line2d_11">
      <g>
       <use xlink:href="#m3a9de682dd" x="88.532127" y="175.273039" style="fill: #262626; stroke: #262626; stroke-width: 0.8"/>
      </g>
     </g>
     <g id="text_11">
      <!-- $\mathdefault{0.8}$ -->
      <g style="fill: #262626" transform="translate(38.88 187.72634) scale(0.36 -0.36)">
       <use xlink:href="#CMR17-30" transform="scale(0.996264)"/>
       <use xlink:href="#CMMI12-3a" transform="translate(45.690477 0) scale(0.996264)"/>
       <use xlink:href="#CMR17-38" transform="translate(72.787654 0) scale(0.996264)"/>
      </g>
     </g>
    </g>
    <g id="ytick_6">
     <g id="line2d_12">
      <g>
       <use xlink:href="#m3a9de682dd" x="88.532127" y="67.941693" style="fill: #262626; stroke: #262626; stroke-width: 0.8"/>
      </g>
     </g>
     <g id="text_12">
      <!-- $\mathdefault{1.0}$ -->
      <g style="fill: #262626" transform="translate(38.88 80.394994) scale(0.36 -0.36)">
       <use xlink:href="#CMR17-31" transform="scale(0.996264)"/>
       <use xlink:href="#CMMI12-3a" transform="translate(45.690477 0) scale(0.996264)"/>
       <use xlink:href="#CMR17-30" transform="translate(72.787654 0) scale(0.996264)"/>
      </g>
     </g>
    </g>
   </g>
   <g id="line2d_13">
    <path d="M 131.831576 67.941693 
L 997.820551 67.941693 
L 997.820551 67.941693 
" clip-path="url(#p8bd71a72c2)" style="fill: none; stroke: #1f77b4; stroke-width: 5; stroke-linecap: round"/>
   </g>
   <g id="line2d_14">
    <path d="M 131.831576 589.496093 
L 143.378096 585.721373 
L 154.924615 581.636496 
L 166.471135 577.266672 
L 178.017655 572.635356 
L 189.564174 567.76527 
L 201.110694 562.678527 
L 212.657214 557.394979 
L 224.203733 551.933912 
L 241.523513 543.449317 
L 258.843292 534.663741 
L 276.163072 525.62844 
L 299.256111 513.275167 
L 322.349151 500.664105 
L 356.98871 481.45483 
L 437.814347 436.472399 
L 466.680646 420.683078 
L 495.546946 405.164024 
L 524.413245 389.978394 
L 547.506284 378.095387 
L 570.599323 366.474216 
L 593.692363 355.12126 
L 616.785402 344.059363 
L 639.878441 333.295347 
L 657.198221 325.413993 
L 680.29126 315.179016 
L 703.3843 305.252608 
L 726.477339 295.643544 
L 743.797119 288.632829 
L 761.116898 281.79355 
L 784.209937 272.951911 
L 801.529717 266.51573 
L 824.622756 258.201941 
L 841.942536 252.158624 
L 865.035575 244.360086 
L 888.128614 236.852466 
L 911.221654 229.615494 
L 934.314693 222.658935 
L 957.407732 215.979149 
L 974.727512 211.129525 
L 992.047291 206.421417 
L 997.820551 204.891007 
L 997.820551 204.891007 
" clip-path="url(#p8bd71a72c2)" style="fill: none; stroke: #ff7f0e; stroke-width: 5; stroke-linecap: round"/>
   </g>
   <g id="line2d_15">
    <path d="M 131.831576 604.966337 
L 137.604836 604.227024 
L 143.378096 603.793717 
L 149.151356 603.246704 
L 154.924615 602.568523 
L 160.697875 601.763969 
L 166.471135 600.837866 
L 178.017655 598.638211 
L 189.564174 596.004229 
L 201.110694 592.968942 
L 212.657214 589.563014 
L 224.203733 585.815632 
L 235.750253 581.754674 
L 247.296773 577.405819 
L 258.843292 572.794001 
L 270.389812 567.942216 
L 281.936332 562.872176 
L 293.482851 557.605262 
L 305.029371 552.159913 
L 322.349151 543.698317 
L 339.66893 534.934884 
L 356.98871 525.920672 
L 380.081749 513.595167 
L 403.174788 501.009213 
L 437.814347 481.834031 
L 524.413245 433.746981 
L 553.279544 418.024757 
L 582.145843 402.585447 
L 605.238882 390.472884 
L 628.331922 378.602712 
L 651.424961 366.98386 
L 674.518 355.64281 
L 697.61104 344.585191 
L 720.704079 333.818802 
L 743.797119 323.359525 
L 761.116898 315.707905 
L 784.209937 305.782755 
L 807.302977 296.169139 
L 824.622756 289.155575 
L 841.942536 282.316491 
L 865.035575 273.469417 
L 888.128614 264.925581 
L 911.221654 256.678829 
L 934.314693 248.728377 
L 957.407732 241.076802 
L 974.727512 235.512172 
L 992.047291 230.106145 
L 997.820551 228.336661 
L 997.820551 228.336661 
" clip-path="url(#p8bd71a72c2)" style="fill: none; stroke: #2ca02c; stroke-width: 5; stroke-linecap: round"/>
   </g>
   <g id="line2d_16">
    <path d="M 131.831576 609.724 
L 137.604836 606.389204 
L 143.378096 604.879031 
L 149.151356 604.188152 
L 154.924615 603.756006 
L 160.697875 603.200111 
L 166.471135 602.513551 
L 172.244395 601.700879 
L 178.017655 600.766864 
L 189.564174 598.552535 
L 201.110694 595.905361 
L 212.657214 592.857778 
L 224.203733 589.440658 
L 235.750253 585.683341 
L 247.296773 581.613056 
L 258.843292 577.256167 
L 270.389812 572.636911 
L 281.936332 567.778469 
L 293.482851 562.703128 
L 305.029371 557.43076 
L 316.575891 551.981605 
L 333.89567 543.514665 
L 351.21545 534.746431 
L 368.535229 525.730252 
L 391.628269 513.40183 
L 414.721308 500.815345 
L 449.360867 481.642722 
L 530.186505 436.738722 
L 559.052804 420.974349 
L 587.919103 405.480236 
L 611.012142 393.317248 
L 634.105182 381.388349 
L 657.198221 369.711556 
L 680.29126 358.307604 
L 703.3843 347.182059 
L 726.477339 336.351724 
L 749.570378 325.815764 
L 772.663418 315.586523 
L 795.756457 305.667509 
L 818.849496 296.060339 
L 836.169276 289.05061 
L 853.489055 282.215049 
L 876.582095 273.37404 
L 899.675134 264.83482 
L 922.768173 256.592817 
L 945.861213 248.646761 
L 968.954252 241.000493 
L 986.274032 235.438012 
L 997.820551 231.822967 
L 997.820551 231.822967 
" clip-path="url(#p8bd71a72c2)" style="fill: none; stroke: #d62728; stroke-width: 5; stroke-linecap: round"/>
   </g>
   <g id="line2d_17">
    <path d="M 131.831576 615.073025 
L 137.604836 608.793921 
L 143.378096 605.971322 
L 149.151356 604.689413 
L 154.924615 604.101445 
L 160.697875 603.653237 
L 166.471135 603.070588 
L 172.244395 602.358063 
L 178.017655 601.520517 
L 183.790915 600.562605 
L 195.337434 598.303071 
L 206.883954 595.613879 
L 218.430474 592.527845 
L 229.976993 589.075327 
L 241.523513 585.285244 
L 253.070033 581.185308 
L 264.616552 576.800847 
L 276.163072 572.156937 
L 287.709592 567.276118 
L 299.256111 562.180083 
L 310.802631 556.889778 
L 328.12241 548.63068 
L 345.44219 540.037522 
L 362.761969 531.164991 
L 380.081749 522.062553 
L 403.174788 509.647932 
L 432.041087 493.816479 
L 478.227166 468.132244 
L 530.186505 439.287308 
L 559.052804 423.486991 
L 587.919103 407.948526 
L 611.012142 395.741677 
L 634.105182 383.763454 
L 657.198221 372.036122 
L 680.29126 360.575693 
L 703.3843 349.393244 
L 726.477339 338.505084 
L 749.570378 327.910006 
L 772.663418 317.623206 
L 789.983197 310.112565 
L 807.302977 302.768976 
L 824.622756 295.602229 
L 841.942536 288.606893 
L 859.262315 281.780769 
L 882.355355 272.956397 
L 899.675134 266.532215 
L 922.768173 258.234197 
L 940.087953 252.201156 
L 963.180992 244.416344 
L 986.274032 236.92002 
L 997.820551 233.269482 
L 997.820551 233.269482 
" clip-path="url(#p8bd71a72c2)" style="fill: none; stroke: #9467bd; stroke-width: 5; stroke-linecap: round"/>
   </g>
   <g id="line2d_18">
    <path d="M 131.831576 620.608334 
L 137.604836 611.267921 
L 143.378096 607.088627 
L 149.151356 605.199241 
L 154.924615 604.336602 
L 166.471135 603.375687 
L 172.244395 602.726874 
L 178.017655 601.950699 
L 183.790915 601.051887 
L 189.564174 600.034711 
L 201.110694 597.663798 
L 212.657214 594.871639 
L 224.203733 591.690253 
L 235.750253 588.150047 
L 247.296773 584.27935 
L 258.843292 580.105464 
L 270.389812 575.653496 
L 281.936332 570.947701 
L 293.482851 566.010964 
L 305.029371 560.86428 
L 316.575891 555.528167 
L 333.89567 547.209324 
L 351.21545 538.565433 
L 368.535229 529.651559 
L 385.855009 520.5157 
L 408.948048 508.068002 
L 437.814347 492.209655 
L 484.000426 466.513843 
L 530.186505 440.871842 
L 559.052804 425.049569 
L 587.919103 409.482278 
L 611.012142 397.248675 
L 634.105182 385.246133 
L 657.198221 373.486212 
L 680.29126 361.990275 
L 703.3843 350.776534 
L 726.477339 339.84734 
L 749.570378 329.21824 
L 772.663418 318.889615 
L 795.756457 308.870424 
L 818.849496 299.164072 
L 836.169276 292.085687 
L 853.489055 285.173133 
L 870.808835 278.435638 
L 893.901874 269.723009 
L 916.994914 261.31159 
L 940.087953 253.197719 
L 963.180992 245.382837 
L 980.500772 239.698959 
L 997.820551 234.177313 
L 997.820551 234.177313 
" clip-path="url(#p8bd71a72c2)" style="fill: none; stroke: #8c564b; stroke-width: 5; stroke-linecap: round"/>
   </g>
   <g id="line2d_19">
    <path d="M 131.831576 626.230248 
L 137.604836 613.770735 
L 143.378096 608.214545 
L 149.151356 605.711023 
L 154.924615 604.57174 
L 172.244395 602.973711 
L 178.017655 602.242545 
L 183.790915 601.387078 
L 189.564174 600.411645 
L 201.110694 598.119549 
L 212.657214 595.400307 
L 224.203733 592.286243 
L 235.750253 588.808117 
L 247.296773 584.994528 
L 258.843292 580.873005 
L 270.389812 576.469042 
L 281.936332 571.806969 
L 293.482851 566.910203 
L 305.029371 561.799529 
L 316.575891 556.496064 
L 333.89567 548.220294 
L 351.21545 539.612356 
L 368.535229 530.728441 
L 385.855009 521.616738 
L 408.948048 509.193571 
L 437.814347 493.354767 
L 484.000426 467.668579 
L 535.959764 438.830222 
L 564.826064 423.0388 
L 593.692363 407.508565 
L 616.785402 395.310924 
L 639.878441 383.345818 
L 662.971481 371.628975 
L 686.06452 360.175804 
L 709.15756 349.005668 
L 732.250599 338.127272 
L 755.343638 327.546663 
L 772.663418 319.811539 
L 795.756457 309.765566 
L 813.076237 302.430843 
L 836.169276 292.922824 
L 853.489055 285.992798 
L 876.582095 277.02798 
L 893.901874 270.49784 
L 916.994914 262.060092 
L 940.087953 253.92219 
L 957.407732 248.005141 
L 980.500772 240.37948 
L 997.820551 234.837059 
L 997.820551 234.837059 
" clip-path="url(#p8bd71a72c2)" style="fill: none; stroke: #e377c2; stroke-width: 5; stroke-linecap: round"/>
   </g>
   <g id="line2d_20">
    <path d="M 131.831576 631.909626 
L 137.604836 616.291599 
L 143.378096 609.345243 
L 149.151356 606.223483 
L 154.924615 604.806505 
L 160.697875 604.155469 
L 166.471135 603.720291 
L 172.244395 603.155183 
L 178.017655 602.459649 
L 183.790915 601.638506 
L 189.564174 600.696133 
L 201.110694 598.466485 
L 212.657214 595.805034 
L 224.203733 592.744359 
L 235.750253 589.315469 
L 247.296773 585.547156 
L 258.843292 581.46726 
L 270.389812 577.101409 
L 281.936332 572.474172 
L 293.482851 567.609003 
L 305.029371 562.527072 
L 316.575891 557.249637 
L 328.12241 551.795316 
L 345.44219 543.322635 
L 362.761969 534.550551 
L 380.081749 525.529978 
L 403.174788 513.199095 
L 426.267828 500.611891 
L 460.907387 481.440757 
L 541.733024 436.548393 
L 570.599323 420.789767 
L 599.465623 405.300557 
L 622.558662 393.143492 
L 645.651701 381.221543 
L 668.744741 369.551192 
L 691.83778 358.151185 
L 714.930819 347.03269 
L 738.023859 336.209847 
L 761.116898 325.678928 
L 784.209937 315.455776 
L 807.302977 305.542355 
L 830.396016 295.942366 
L 847.715796 288.936659 
L 865.035575 282.104521 
L 888.128614 273.269668 
L 911.221654 264.736034 
L 934.314693 256.498611 
L 957.407732 248.556846 
L 980.500772 240.915058 
L 997.820551 235.356254 
L 997.820551 235.356254 
" clip-path="url(#p8bd71a72c2)" style="fill: none; stroke: #7f7f7f; stroke-width: 5; stroke-linecap: round"/>
   </g>
   <g id="line2d_21">
    <path d="M 131.831576 637.63415 
L 137.604836 618.826394 
L 143.378096 610.479491 
L 149.151356 606.736344 
L 154.924615 605.04091 
L 160.697875 604.263552 
L 172.244395 603.296397 
L 178.017655 602.63036 
L 183.790915 601.837632 
L 189.564174 600.922636 
L 195.337434 599.890287 
L 206.883954 597.490144 
L 218.430474 594.67126 
L 229.976993 591.465259 
L 241.523513 587.902195 
L 253.070033 584.010899 
L 264.616552 579.817652 
L 276.163072 575.348592 
L 287.709592 570.627134 
L 299.256111 565.675833 
L 310.802631 560.516532 
L 322.349151 555.168636 
L 339.66893 546.83508 
L 356.98871 538.178946 
L 374.308489 529.254912 
L 391.628269 520.111338 
L 414.721308 507.655544 
L 443.587607 491.792426 
L 489.773686 466.096808 
L 535.959764 440.45837 
L 564.826064 424.644576 
L 593.692363 409.08456 
L 622.558662 393.841958 
L 645.651701 381.901543 
L 668.744741 370.217151 
L 691.83778 358.804426 
L 714.930819 347.671529 
L 738.023859 336.824355 
L 761.116898 326.282434 
L 784.209937 316.040518 
L 807.302977 306.110741 
L 830.396016 296.486588 
L 847.715796 289.469112 
L 870.808835 280.392922 
L 888.128614 273.772179 
L 911.221654 265.221062 
L 934.314693 256.967691 
L 957.407732 249.011358 
L 980.500772 241.349824 
L 997.820551 235.783923 
L 997.820551 235.783923 
" clip-path="url(#p8bd71a72c2)" style="fill: none; stroke: #bcbd22; stroke-width: 5; stroke-linecap: round"/>
   </g>
   <g id="line2d_22">
    <path d="M 131.831576 643.391651 
L 137.604836 621.37075 
L 143.378096 611.615792 
L 149.151356 607.249142 
L 154.924615 605.274839 
L 160.697875 604.371223 
L 172.244395 603.410751 
L 178.017655 602.769981 
L 183.790915 602.001609 
L 189.564174 601.110082 
L 195.337434 600.10033 
L 206.883954 597.74288 
L 218.430474 594.963491 
L 229.976993 591.793953 
L 241.523513 588.264521 
L 253.070033 584.404136 
L 264.616552 580.239277 
L 276.163072 575.79622 
L 287.709592 571.098458 
L 299.256111 566.16869 
L 310.802631 561.02893 
L 322.349151 555.698798 
L 339.66893 547.388338 
L 356.98871 538.751921 
L 374.308489 529.843841 
L 391.628269 520.713365 
L 414.721308 508.27057 
L 443.587607 492.417439 
L 489.773686 466.725895 
L 535.959764 441.083251 
L 570.599323 422.126958 
L 599.465623 406.611607 
L 622.558662 394.432332 
L 645.651701 382.48311 
L 668.744741 370.786601 
L 691.83778 359.356191 
L 714.930819 348.209351 
L 738.023859 337.349562 
L 761.116898 326.797388 
L 778.436678 319.071464 
L 801.529717 309.048036 
L 824.622756 299.337906 
L 841.942536 292.253714 
L 859.262315 285.338162 
L 876.582095 278.598216 
L 899.675134 269.88051 
L 922.768173 261.464538 
L 945.861213 253.346629 
L 968.954252 245.528307 
L 986.274032 239.840211 
L 997.820551 236.149068 
L 997.820551 236.149068 
" clip-path="url(#p8bd71a72c2)" style="fill: none; stroke: #17becf; stroke-width: 5; stroke-linecap: round"/>
   </g>
   <g id="line2d_23">
    <path d="M 131.831576 649.175563 
L 137.604836 623.922389 
L 143.378096 612.753413 
L 149.151356 607.761676 
L 154.924615 605.508261 
L 160.697875 604.478486 
L 172.244395 603.505813 
L 178.017655 602.887096 
L 183.790915 602.139984 
L 189.564174 601.268949 
L 195.337434 600.278931 
L 206.883954 597.958766 
L 218.430474 595.213878 
L 229.976993 592.076205 
L 241.523513 588.576155 
L 253.070033 584.742788 
L 264.616552 580.602757 
L 276.163072 576.182352 
L 287.709592 571.505354 
L 299.256111 566.594521 
L 310.802631 561.471897 
L 322.349151 556.157138 
L 339.66893 547.867074 
L 356.98871 539.247371 
L 374.308489 530.353931 
L 391.628269 521.234726 
L 414.721308 508.803683 
L 443.587607 492.959875 
L 489.773686 467.274266 
L 535.959764 441.623974 
L 570.599323 422.657842 
L 599.465623 407.134614 
L 628.331922 391.9368 
L 651.424961 380.035359 
L 674.518 368.39413 
L 697.61104 357.020397 
L 720.704079 345.931921 
L 743.797119 335.136517 
L 766.890158 324.640578 
L 789.983197 314.450891 
L 813.076237 304.566077 
L 836.169276 294.993989 
L 859.262315 285.726214 
L 882.355355 276.772112 
L 899.675134 270.24735 
L 922.768173 261.818918 
L 945.861213 253.689637 
L 963.180992 247.78084 
L 986.274032 240.162418 
L 997.820551 236.461907 
L 997.820551 236.461907 
" clip-path="url(#p8bd71a72c2)" style="fill: none; stroke: #17becf; stroke-width: 5; stroke-linecap: round"/>
   </g>
   <g id="patch_3">
    <path d="M 88.532127 678.237256 
L 88.532127 38.88 
" style="fill: none; stroke: #262626; stroke-width: 0.8; stroke-linejoin: miter; stroke-linecap: square"/>
   </g>
   <g id="patch_4">
    <path d="M 88.532127 678.237256 
L 1041.12 678.237256 
" style="fill: none; stroke: #262626; stroke-width: 0.8; stroke-linejoin: miter; stroke-linecap: square"/>
   </g>
  </g>
 </g>
 <defs>
  <clipPath id="p8bd71a72c2">
   <rect x="88.532127" y="38.88" width="952.587873" height="639.357256"/>
  </clipPath>
 </defs>
</svg>
