<?xml version="1.0" encoding="utf-8" standalone="no"?>
<!DOCTYPE svg PUBLIC "-//W3C//DTD SVG 1.1//EN"
  "http://www.w3.org/Graphics/SVG/1.1/DTD/svg11.dtd">
<svg xmlns:xlink="http://www.w3.org/1999/xlink" width="1080pt" height="756pt" viewBox="0 0 1080 756" xmlns="http://www.w3.org/2000/svg" version="1.1">
 <metadata>
  <rdf:RDF xmlns:dc="http://purl.org/dc/elements/1.1/" xmlns:cc="http://creativecommons.org/ns#" xmlns:rdf="http://www.w3.org/1999/02/22-rdf-syntax-ns#">
   <cc:Work>
    <dc:type rdf:resource="http://purl.org/dc/dcmitype/StillImage"/>
    <dc:date>2024-07-31T14:17:19.301782</dc:date>
    <dc:format>image/svg+xml</dc:format>
    <dc:creator>
     <cc:Agent>
      <dc:title>Matplotlib v3.9.0, https://matplotlib.org/</dc:title>
     </cc:Agent>
    </dc:creator>
   </cc:Work>
  </rdf:RDF>
 </metadata>
 <defs>
  <style type="text/css">*{stroke-linejoin: round; stroke-linecap: butt}</style>
 </defs>
 <g id="figure_1">
  <g id="patch_1">
   <path d="M 0 756 
L 1080 756 
L 1080 0 
L 0 0 
z
" style="fill: #ffffff"/>
  </g>
  <g id="axes_1">
   <g id="patch_2">
    <path d="M 88.532127 678.237256 
L 1041.12 678.237256 
L 1041.12 38.88 
L 88.532127 38.88 
z
" style="fill: #ffffff"/>
   </g>
   <g id="matplotlib.axis_1">
    <g id="xtick_1">
     <g id="line2d_1">
      <defs>
       <path id="m271420bb49" d="M 0 0 
L 0 3.5 
" style="stroke: #262626; stroke-width: 0.8"/>
      </defs>
      <g>
       <use xlink:href="#m271420bb49" x="88.532127" y="678.237256" style="fill: #262626; stroke: #262626; stroke-width: 0.8"/>
      </g>
     </g>
     <g id="text_1">
      <!-- $\mathdefault{0.0}$ -->
      <g style="fill: #262626" transform="translate(67.206064 710.143856) scale(0.36 -0.36)">
       <defs>
        <path id="CMR17-30" d="M 2688 2025 
C 2688 2416 2682 3080 2413 3591 
C 2176 4039 1798 4198 1466 4198 
C 1158 4198 768 4058 525 3597 
C 269 3118 243 2524 243 2025 
C 243 1661 250 1106 448 619 
C 723 -39 1216 -128 1466 -128 
C 1760 -128 2208 -7 2470 600 
C 2662 1042 2688 1559 2688 2025 
z
M 1466 -26 
C 1056 -26 813 325 723 812 
C 653 1188 653 1738 653 2096 
C 653 2588 653 2997 736 3387 
C 858 3929 1216 4096 1466 4096 
C 1728 4096 2067 3923 2189 3400 
C 2272 3036 2278 2607 2278 2096 
C 2278 1680 2278 1169 2202 792 
C 2067 95 1690 -26 1466 -26 
z
" transform="scale(0.015625)"/>
        <path id="CMMI12-3a" d="M 1178 307 
C 1178 492 1024 619 870 619 
C 685 619 557 466 557 313 
C 557 128 710 0 864 0 
C 1050 0 1178 153 1178 307 
z
" transform="scale(0.015625)"/>
       </defs>
       <use xlink:href="#CMR17-30" transform="scale(0.996264)"/>
       <use xlink:href="#CMMI12-3a" transform="translate(45.690477 0) scale(0.996264)"/>
       <use xlink:href="#CMR17-30" transform="translate(72.787654 0) scale(0.996264)"/>
      </g>
     </g>
    </g>
    <g id="xtick_2">
     <g id="line2d_2">
      <g>
       <use xlink:href="#m271420bb49" x="269.977436" y="678.237256" style="fill: #262626; stroke: #262626; stroke-width: 0.8"/>
      </g>
     </g>
     <g id="text_2">
      <!-- $\mathdefault{0.2}$ -->
      <g style="fill: #262626" transform="translate(248.651373 710.143856) scale(0.36 -0.36)">
       <defs>
        <path id="CMR17-32" d="M 2669 989 
L 2554 989 
C 2490 536 2438 459 2413 420 
C 2381 369 1920 369 1830 369 
L 602 369 
C 832 619 1280 1072 1824 1597 
C 2214 1967 2669 2402 2669 3035 
C 2669 3790 2067 4224 1395 4224 
C 691 4224 262 3604 262 3030 
C 262 2780 448 2748 525 2748 
C 589 2748 781 2787 781 3010 
C 781 3207 614 3264 525 3264 
C 486 3264 448 3258 422 3245 
C 544 3790 915 4058 1306 4058 
C 1862 4058 2227 3617 2227 3035 
C 2227 2479 1901 2000 1536 1584 
L 262 146 
L 262 0 
L 2515 0 
L 2669 989 
z
" transform="scale(0.015625)"/>
       </defs>
       <use xlink:href="#CMR17-30" transform="scale(0.996264)"/>
       <use xlink:href="#CMMI12-3a" transform="translate(45.690477 0) scale(0.996264)"/>
       <use xlink:href="#CMR17-32" transform="translate(72.787654 0) scale(0.996264)"/>
      </g>
     </g>
    </g>
    <g id="xtick_3">
     <g id="line2d_3">
      <g>
       <use xlink:href="#m271420bb49" x="451.422745" y="678.237256" style="fill: #262626; stroke: #262626; stroke-width: 0.8"/>
      </g>
     </g>
     <g id="text_3">
      <!-- $\mathdefault{0.4}$ -->
      <g style="fill: #262626" transform="translate(430.096682 710.143856) scale(0.36 -0.36)">
       <defs>
        <path id="CMR17-34" d="M 2150 4122 
C 2150 4256 2144 4256 2029 4256 
L 128 1254 
L 128 1088 
L 1779 1088 
L 1779 457 
C 1779 224 1766 160 1318 160 
L 1197 160 
L 1197 0 
C 1402 0 1747 0 1965 0 
C 2182 0 2528 0 2733 0 
L 2733 160 
L 2611 160 
C 2163 160 2150 224 2150 457 
L 2150 1088 
L 2803 1088 
L 2803 1254 
L 2150 1254 
L 2150 4122 
z
M 1798 3703 
L 1798 1254 
L 256 1254 
L 1798 3703 
z
" transform="scale(0.015625)"/>
       </defs>
       <use xlink:href="#CMR17-30" transform="scale(0.996264)"/>
       <use xlink:href="#CMMI12-3a" transform="translate(45.690477 0) scale(0.996264)"/>
       <use xlink:href="#CMR17-34" transform="translate(72.787654 0) scale(0.996264)"/>
      </g>
     </g>
    </g>
    <g id="xtick_4">
     <g id="line2d_4">
      <g>
       <use xlink:href="#m271420bb49" x="632.868055" y="678.237256" style="fill: #262626; stroke: #262626; stroke-width: 0.8"/>
      </g>
     </g>
     <g id="text_4">
      <!-- $\mathdefault{0.6}$ -->
      <g style="fill: #262626" transform="translate(611.541991 710.143856) scale(0.36 -0.36)">
       <defs>
        <path id="CMR17-36" d="M 678 2176 
C 678 3690 1395 4032 1811 4032 
C 1946 4032 2272 4009 2400 3776 
C 2298 3776 2106 3776 2106 3553 
C 2106 3381 2246 3323 2336 3323 
C 2394 3323 2566 3348 2566 3560 
C 2566 3954 2246 4179 1805 4179 
C 1043 4179 243 3390 243 1984 
C 243 253 966 -128 1478 -128 
C 2099 -128 2688 427 2688 1283 
C 2688 2081 2170 2662 1517 2662 
C 1126 2662 838 2407 678 1960 
L 678 2176 
z
M 1478 25 
C 691 25 691 1200 691 1436 
C 691 1896 909 2560 1504 2560 
C 1613 2560 1926 2560 2138 2120 
C 2253 1870 2253 1609 2253 1289 
C 2253 944 2253 690 2118 434 
C 1978 171 1773 25 1478 25 
z
" transform="scale(0.015625)"/>
       </defs>
       <use xlink:href="#CMR17-30" transform="scale(0.996264)"/>
       <use xlink:href="#CMMI12-3a" transform="translate(45.690477 0) scale(0.996264)"/>
       <use xlink:href="#CMR17-36" transform="translate(72.787654 0) scale(0.996264)"/>
      </g>
     </g>
    </g>
    <g id="xtick_5">
     <g id="line2d_5">
      <g>
       <use xlink:href="#m271420bb49" x="814.313364" y="678.237256" style="fill: #262626; stroke: #262626; stroke-width: 0.8"/>
      </g>
     </g>
     <g id="text_5">
      <!-- $\mathdefault{0.8}$ -->
      <g style="fill: #262626" transform="translate(792.9873 710.143856) scale(0.36 -0.36)">
       <defs>
        <path id="CMR17-38" d="M 1741 2264 
C 2144 2467 2554 2773 2554 3263 
C 2554 3841 1990 4179 1472 4179 
C 890 4179 378 3759 378 3180 
C 378 3021 416 2747 666 2505 
C 730 2442 998 2251 1171 2130 
C 883 1983 211 1634 211 934 
C 211 279 838 -128 1459 -128 
C 2144 -128 2720 362 2720 1010 
C 2720 1590 2330 1857 2074 2029 
L 1741 2264 
z
M 902 2822 
C 851 2854 595 3051 595 3351 
C 595 3739 998 4032 1459 4032 
C 1965 4032 2336 3676 2336 3262 
C 2336 2669 1670 2331 1638 2331 
C 1632 2331 1626 2331 1574 2370 
L 902 2822 
z
M 2080 1519 
C 2176 1449 2483 1240 2483 851 
C 2483 381 2010 25 1472 25 
C 890 25 448 438 448 940 
C 448 1443 838 1862 1280 2060 
L 2080 1519 
z
" transform="scale(0.015625)"/>
       </defs>
       <use xlink:href="#CMR17-30" transform="scale(0.996264)"/>
       <use xlink:href="#CMMI12-3a" transform="translate(45.690477 0) scale(0.996264)"/>
       <use xlink:href="#CMR17-38" transform="translate(72.787654 0) scale(0.996264)"/>
      </g>
     </g>
    </g>
    <g id="xtick_6">
     <g id="line2d_6">
      <g>
       <use xlink:href="#m271420bb49" x="995.758673" y="678.237256" style="fill: #262626; stroke: #262626; stroke-width: 0.8"/>
      </g>
     </g>
     <g id="text_6">
      <!-- $\mathdefault{1.0}$ -->
      <g style="fill: #262626" transform="translate(974.432609 710.143856) scale(0.36 -0.36)">
       <defs>
        <path id="CMR17-31" d="M 1702 4058 
C 1702 4192 1696 4192 1606 4192 
C 1357 3916 979 3827 621 3827 
C 602 3827 570 3827 563 3808 
C 557 3795 557 3782 557 3648 
C 755 3648 1088 3686 1344 3839 
L 1344 461 
C 1344 236 1331 160 781 160 
L 589 160 
L 589 0 
C 896 0 1216 0 1523 0 
C 1830 0 2150 0 2458 0 
L 2458 160 
L 2266 160 
C 1715 160 1702 230 1702 458 
L 1702 4058 
z
" transform="scale(0.015625)"/>
       </defs>
       <use xlink:href="#CMR17-31" transform="scale(0.996264)"/>
       <use xlink:href="#CMMI12-3a" transform="translate(45.690477 0) scale(0.996264)"/>
       <use xlink:href="#CMR17-30" transform="translate(72.787654 0) scale(0.996264)"/>
      </g>
     </g>
    </g>
   </g>
   <g id="matplotlib.axis_2">
    <g id="ytick_1">
     <g id="line2d_7">
      <defs>
       <path id="md5ce84890f" d="M 0 0 
L -3.5 0 
" style="stroke: #262626; stroke-width: 0.8"/>
      </defs>
      <g>
       <use xlink:href="#md5ce84890f" x="88.532127" y="678.237256" style="fill: #262626; stroke: #262626; stroke-width: 0.8"/>
      </g>
     </g>
     <g id="text_7">
      <!-- $\mathdefault{0.0}$ -->
      <g style="fill: #262626" transform="translate(38.88 690.690556) scale(0.36 -0.36)">
       <use xlink:href="#CMR17-30" transform="scale(0.996264)"/>
       <use xlink:href="#CMMI12-3a" transform="translate(45.690477 0) scale(0.996264)"/>
       <use xlink:href="#CMR17-30" transform="translate(72.787654 0) scale(0.996264)"/>
      </g>
     </g>
    </g>
    <g id="ytick_2">
     <g id="line2d_8">
      <g>
       <use xlink:href="#md5ce84890f" x="88.532127" y="556.912267" style="fill: #262626; stroke: #262626; stroke-width: 0.8"/>
      </g>
     </g>
     <g id="text_8">
      <!-- $\mathdefault{0.2}$ -->
      <g style="fill: #262626" transform="translate(38.88 569.365568) scale(0.36 -0.36)">
       <use xlink:href="#CMR17-30" transform="scale(0.996264)"/>
       <use xlink:href="#CMMI12-3a" transform="translate(45.690477 0) scale(0.996264)"/>
       <use xlink:href="#CMR17-32" transform="translate(72.787654 0) scale(0.996264)"/>
      </g>
     </g>
    </g>
    <g id="ytick_3">
     <g id="line2d_9">
      <g>
       <use xlink:href="#md5ce84890f" x="88.532127" y="435.587279" style="fill: #262626; stroke: #262626; stroke-width: 0.8"/>
      </g>
     </g>
     <g id="text_9">
      <!-- $\mathdefault{0.4}$ -->
      <g style="fill: #262626" transform="translate(38.88 448.040579) scale(0.36 -0.36)">
       <use xlink:href="#CMR17-30" transform="scale(0.996264)"/>
       <use xlink:href="#CMMI12-3a" transform="translate(45.690477 0) scale(0.996264)"/>
       <use xlink:href="#CMR17-34" transform="translate(72.787654 0) scale(0.996264)"/>
      </g>
     </g>
    </g>
    <g id="ytick_4">
     <g id="line2d_10">
      <g>
       <use xlink:href="#md5ce84890f" x="88.532127" y="314.26229" style="fill: #262626; stroke: #262626; stroke-width: 0.8"/>
      </g>
     </g>
     <g id="text_10">
      <!-- $\mathdefault{0.6}$ -->
      <g style="fill: #262626" transform="translate(38.88 326.71559) scale(0.36 -0.36)">
       <use xlink:href="#CMR17-30" transform="scale(0.996264)"/>
       <use xlink:href="#CMMI12-3a" transform="translate(45.690477 0) scale(0.996264)"/>
       <use xlink:href="#CMR17-36" transform="translate(72.787654 0) scale(0.996264)"/>
      </g>
     </g>
    </g>
    <g id="ytick_5">
     <g id="line2d_11">
      <g>
       <use xlink:href="#md5ce84890f" x="88.532127" y="192.937301" style="fill: #262626; stroke: #262626; stroke-width: 0.8"/>
      </g>
     </g>
     <g id="text_11">
      <!-- $\mathdefault{0.8}$ -->
      <g style="fill: #262626" transform="translate(38.88 205.390601) scale(0.36 -0.36)">
       <use xlink:href="#CMR17-30" transform="scale(0.996264)"/>
       <use xlink:href="#CMMI12-3a" transform="translate(45.690477 0) scale(0.996264)"/>
       <use xlink:href="#CMR17-38" transform="translate(72.787654 0) scale(0.996264)"/>
      </g>
     </g>
    </g>
    <g id="ytick_6">
     <g id="line2d_12">
      <g>
       <use xlink:href="#md5ce84890f" x="88.532127" y="71.612312" style="fill: #262626; stroke: #262626; stroke-width: 0.8"/>
      </g>
     </g>
     <g id="text_12">
      <!-- $\mathdefault{1.0}$ -->
      <g style="fill: #262626" transform="translate(38.88 84.065612) scale(0.36 -0.36)">
       <use xlink:href="#CMR17-31" transform="scale(0.996264)"/>
       <use xlink:href="#CMMI12-3a" transform="translate(45.690477 0) scale(0.996264)"/>
       <use xlink:href="#CMR17-30" transform="translate(72.787654 0) scale(0.996264)"/>
      </g>
     </g>
    </g>
   </g>
   <g id="line2d_13">
    <path d="M 88.532127 71.612312 
L 995.758673 71.612312 
L 995.758673 71.612312 
" clip-path="url(#pe1c0977bcf)" style="fill: none; stroke: #1f77b4; stroke-width: 5; stroke-linecap: round"/>
   </g>
   <g id="line2d_14">
    <path d="M 88.532127 680.670214 
L 94.580304 678.561897 
L 100.628481 677.871554 
L 106.676658 677.38393 
L 112.724835 676.705098 
L 118.773012 675.843246 
L 124.821189 674.806156 
L 130.869366 673.60121 
L 136.917543 672.23565 
L 142.96572 670.716272 
L 149.013897 669.048802 
L 155.062074 667.240295 
L 161.110251 665.296999 
L 167.158428 663.223903 
L 179.254782 658.711636 
L 191.351136 653.747479 
L 203.44749 648.373073 
L 215.543844 642.625679 
L 227.640198 636.541293 
L 239.736552 630.154077 
L 251.832905 623.495579 
L 263.929259 616.595839 
L 276.025613 609.482055 
L 288.121967 602.17999 
L 306.266498 590.927575 
L 324.411029 579.382646 
L 348.603737 563.647645 
L 378.844622 543.627213 
L 469.567276 483.259338 
L 493.759984 467.478862 
L 517.952692 451.949781 
L 536.097223 440.491073 
L 554.241754 429.208739 
L 572.386285 418.134419 
L 590.530816 407.262297 
L 608.675347 396.598248 
L 626.819878 386.158601 
L 644.964408 375.960053 
L 663.108939 365.991271 
L 681.25347 356.256967 
L 699.398001 346.765796 
L 717.542532 337.524931 
L 735.687063 328.507034 
L 753.831594 319.741176 
L 771.976125 311.223517 
L 790.120656 302.939544 
L 808.265187 294.88926 
L 832.457895 284.534702 
L 850.602425 277.027561 
L 868.746956 269.752426 
L 886.891487 262.702064 
L 905.036018 255.872283 
L 923.180549 249.260338 
L 941.32508 242.862787 
L 959.469611 236.680461 
L 977.614142 230.674127 
L 995.758673 224.866706 
L 995.758673 224.866706 
" clip-path="url(#pe1c0977bcf)" style="fill: none; stroke: #2ca02c; stroke-width: 5; stroke-linecap: round"/>
   </g>
   <g id="line2d_15">
    <path d="M 88.532127 691.604607 
L 94.580304 682.093591 
L 100.628481 679.039638 
L 106.676658 678.033225 
L 112.724835 677.578807 
L 118.773012 676.968618 
L 124.821189 676.172895 
L 130.869366 675.199388 
L 136.917543 674.055647 
L 142.96572 672.748811 
L 149.013897 671.285021 
L 155.062074 669.671507 
L 161.110251 667.914787 
L 167.158428 666.02022 
L 173.206605 663.993795 
L 179.254782 661.841788 
L 191.351136 657.18209 
L 203.44749 652.084507 
L 215.543844 646.588054 
L 227.640198 640.730521 
L 239.736552 634.547141 
L 251.832905 628.071286 
L 263.929259 621.334034 
L 276.025613 614.364688 
L 288.121967 607.189006 
L 306.266498 596.096435 
L 324.411029 584.678743 
L 342.55556 573.00216 
L 366.748268 557.148951 
L 396.989153 537.052063 
L 469.567276 488.725366 
L 493.759984 472.871398 
L 517.952692 457.250713 
L 542.1454 441.905608 
L 566.338108 426.88475 
L 584.482639 415.846855 
L 602.62717 405.018336 
L 620.771701 394.407436 
L 638.916232 384.030479 
L 657.060762 373.868911 
L 675.205293 363.94864 
L 693.349824 354.267499 
L 711.494355 344.827498 
L 729.638886 335.631267 
L 753.831594 323.74347 
L 778.024302 312.287954 
L 802.21701 301.258571 
L 826.409718 290.656124 
L 844.554248 282.967803 
L 862.698779 275.514547 
L 886.891487 265.949733 
L 898.987841 261.286784 
L 923.180549 252.304189 
L 941.32508 245.79768 
L 959.469611 239.500579 
L 983.662319 231.432685 
L 995.758673 227.533712 
L 995.758673 227.533712 
" clip-path="url(#pe1c0977bcf)" style="fill: none; stroke: #9467bd; stroke-width: 5; stroke-linecap: round"/>
   </g>
   <g id="line2d_16">
    <path d="M 88.532127 703.047183 
L 94.580304 685.746211 
L 100.628481 680.233692 
L 106.676658 678.430918 
L 124.821189 676.620233 
L 130.869366 675.741247 
L 136.917543 674.688157 
L 142.96572 673.468227 
L 149.013897 672.087763 
L 155.062074 670.554067 
L 161.110251 668.873767 
L 167.158428 667.052355 
L 173.206605 665.095928 
L 179.254782 663.010852 
L 185.302959 660.802768 
L 197.399313 656.03814 
L 209.495667 650.844552 
L 221.592021 645.261302 
L 233.688375 639.325621 
L 245.784728 633.07217 
L 257.881082 626.532738 
L 269.977436 619.740301 
L 282.07379 612.721095 
L 294.170144 605.502263 
L 312.314675 594.354339 
L 330.459206 582.893811 
L 348.603737 571.185975 
L 372.796445 555.303542 
L 409.085507 531.151136 
L 463.519099 494.874883 
L 493.759984 474.996899 
L 517.952692 459.339825 
L 542.1454 443.961458 
L 566.338108 428.894057 
L 590.530816 414.182684 
L 608.675347 403.388628 
L 626.819878 392.806781 
L 644.964408 382.45531 
L 663.108939 372.337866 
L 681.25347 362.462235 
L 699.398001 352.820097 
L 717.542532 343.414313 
L 735.687063 334.249347 
L 753.831594 325.332557 
L 771.976125 316.664095 
L 790.120656 308.223233 
L 808.265187 300.029151 
L 826.409718 292.086032 
L 844.554248 284.348647 
L 862.698779 276.849548 
L 880.84331 269.581779 
L 898.987841 262.538708 
L 923.180549 253.496176 
L 947.373257 244.839527 
L 965.517788 238.570072 
L 989.710496 230.543917 
L 995.758673 228.599418 
L 995.758673 228.599418 
" clip-path="url(#pe1c0977bcf)" style="fill: none; stroke: #e377c2; stroke-width: 5; stroke-linecap: round"/>
   </g>
   <g id="line2d_17">
    <path d="M 88.532127 714.624505 
L 94.580304 689.419199 
L 100.628481 681.42714 
L 106.676658 678.826035 
L 112.724835 677.963389 
L 118.773012 677.50791 
L 124.821189 676.873221 
L 130.869366 676.054231 
L 136.917543 675.058686 
L 142.96572 673.893933 
L 149.013897 672.566381 
L 155.062074 671.08338 
L 161.110251 669.451626 
L 167.158428 667.67671 
L 173.206605 665.764768 
L 179.254782 663.722237 
L 185.302959 661.554802 
L 197.399313 656.866106 
L 209.495667 651.741629 
L 221.592021 646.221092 
L 233.688375 640.342111 
L 245.784728 634.139731 
L 257.881082 627.645839 
L 269.977436 620.894113 
L 282.07379 613.911151 
L 294.170144 606.723967 
L 312.314675 595.616475 
L 330.459206 584.187452 
L 348.603737 572.504916 
L 372.796445 556.64446 
L 409.085507 532.507461 
L 463.519099 496.217665 
L 493.759984 476.320407 
L 517.952692 460.648265 
L 542.1454 445.242628 
L 566.338108 430.150135 
L 584.482639 419.055005 
L 602.62717 408.166905 
L 620.771701 397.490662 
L 638.916232 387.043083 
L 657.060762 376.820197 
L 675.205293 366.840493 
L 693.349824 357.091441 
L 711.494355 347.58478 
L 729.638886 338.311407 
L 747.783417 329.278469 
L 765.927948 320.503206 
L 784.072479 311.956504 
L 802.21701 303.664863 
L 820.361541 295.589884 
L 838.506072 287.764412 
L 862.698779 277.689077 
L 880.84331 270.394232 
L 898.987841 263.325797 
L 917.132372 256.4799 
L 935.276903 249.85083 
L 953.421434 243.438806 
L 971.565965 237.233644 
L 989.710496 231.207793 
L 995.758673 229.266628 
L 995.758673 229.266628 
" clip-path="url(#pe1c0977bcf)" style="fill: none; stroke: #bcbd22; stroke-width: 5; stroke-linecap: round"/>
   </g>
   <g id="line2d_18">
    <path d="M 88.532127 726.258559 
L 94.580304 693.094962 
L 100.628481 682.616628 
L 106.676658 679.218259 
L 112.724835 678.095298 
L 118.773012 677.633194 
L 124.821189 677.04476 
L 130.869366 676.270212 
L 136.917543 675.317329 
L 142.96572 674.193508 
L 149.013897 672.90523 
L 155.062074 671.459869 
L 161.110251 669.864176 
L 167.158428 668.123789 
L 173.206605 666.244924 
L 179.254782 664.234016 
L 185.302959 662.096815 
L 197.399313 657.464616 
L 209.495667 652.391553 
L 221.592021 646.917656 
L 233.688375 641.080893 
L 245.784728 634.916484 
L 257.881082 628.456928 
L 269.977436 621.735793 
L 282.07379 614.779621 
L 294.170144 607.616244 
L 312.314675 596.539768 
L 330.459206 585.134568 
L 348.603737 573.469894 
L 372.796445 557.6275 
L 409.085507 533.499985 
L 469.567276 493.204082 
L 499.808161 473.350972 
L 524.000869 457.727765 
L 548.193577 442.375561 
L 572.386285 427.350473 
L 590.530816 416.303152 
L 608.675347 405.466813 
L 626.819878 394.849765 
L 644.964408 384.4597 
L 663.108939 374.294669 
L 687.301647 361.112577 
L 705.446178 351.502125 
L 723.590709 342.139006 
L 741.73524 333.012156 
L 759.879771 324.121173 
L 784.072479 312.652181 
L 808.265187 301.611394 
L 826.409718 293.611986 
L 844.554248 285.856193 
L 856.650602 280.791404 
L 874.795133 273.412921 
L 892.939664 266.256983 
L 911.084195 259.319211 
L 929.228726 252.594727 
L 947.373257 246.080735 
L 971.565965 237.736608 
L 989.710496 231.697237 
L 995.758673 229.747514 
L 995.758673 229.747514 
" clip-path="url(#pe1c0977bcf)" style="fill: none; stroke: #17becf; stroke-width: 5; stroke-linecap: round"/>
   </g>
   <g id="patch_3">
    <path d="M 88.532127 678.237256 
L 88.532127 38.88 
" style="fill: none; stroke: #262626; stroke-width: 0.8; stroke-linejoin: miter; stroke-linecap: square"/>
   </g>
   <g id="patch_4">
    <path d="M 88.532127 678.237256 
L 1041.12 678.237256 
" style="fill: none; stroke: #262626; stroke-width: 0.8; stroke-linejoin: miter; stroke-linecap: square"/>
   </g>
  </g>
 </g>
 <defs>
  <clipPath id="pe1c0977bcf">
   <rect x="88.532127" y="38.88" width="952.587873" height="639.357256"/>
  </clipPath>
 </defs>
</svg>
