<?xml version="1.0" encoding="utf-8" standalone="no"?>
<!DOCTYPE svg PUBLIC "-//W3C//DTD SVG 1.1//EN"
  "http://www.w3.org/Graphics/SVG/1.1/DTD/svg11.dtd">
<svg xmlns:xlink="http://www.w3.org/1999/xlink" width="1080pt" height="756pt" viewBox="0 0 1080 756" xmlns="http://www.w3.org/2000/svg" version="1.1">
 <metadata>
  <rdf:RDF xmlns:dc="http://purl.org/dc/elements/1.1/" xmlns:cc="http://creativecommons.org/ns#" xmlns:rdf="http://www.w3.org/1999/02/22-rdf-syntax-ns#">
   <cc:Work>
    <dc:type rdf:resource="http://purl.org/dc/dcmitype/StillImage"/>
    <dc:date>2024-07-31T14:17:23.664418</dc:date>
    <dc:format>image/svg+xml</dc:format>
    <dc:creator>
     <cc:Agent>
      <dc:title>Matplotlib v3.9.0, https://matplotlib.org/</dc:title>
     </cc:Agent>
    </dc:creator>
   </cc:Work>
  </rdf:RDF>
 </metadata>
 <defs>
  <style type="text/css">*{stroke-linejoin: round; stroke-linecap: butt}</style>
 </defs>
 <g id="figure_1">
  <g id="patch_1">
   <path d="M 0 756 
L 1080 756 
L 1080 0 
L 0 0 
z
" style="fill: #ffffff"/>
  </g>
  <g id="axes_1">
   <g id="patch_2">
    <path d="M 88.532127 678.237256 
L 1041.12 678.237256 
L 1041.12 38.88 
L 88.532127 38.88 
z
" style="fill: #ffffff"/>
   </g>
   <g id="matplotlib.axis_1">
    <g id="xtick_1">
     <g id="line2d_1">
      <defs>
       <path id="m8676232bda" d="M 0 0 
L 0 3.5 
" style="stroke: #262626; stroke-width: 0.8"/>
      </defs>
      <g>
       <use xlink:href="#m8676232bda" x="88.532127" y="678.237256" style="fill: #262626; stroke: #262626; stroke-width: 0.8"/>
      </g>
     </g>
     <g id="text_1">
      <!-- $\mathdefault{0.0}$ -->
      <g style="fill: #262626" transform="translate(67.206064 710.143856) scale(0.36 -0.36)">
       <defs>
        <path id="CMR17-30" d="M 2688 2025 
C 2688 2416 2682 3080 2413 3591 
C 2176 4039 1798 4198 1466 4198 
C 1158 4198 768 4058 525 3597 
C 269 3118 243 2524 243 2025 
C 243 1661 250 1106 448 619 
C 723 -39 1216 -128 1466 -128 
C 1760 -128 2208 -7 2470 600 
C 2662 1042 2688 1559 2688 2025 
z
M 1466 -26 
C 1056 -26 813 325 723 812 
C 653 1188 653 1738 653 2096 
C 653 2588 653 2997 736 3387 
C 858 3929 1216 4096 1466 4096 
C 1728 4096 2067 3923 2189 3400 
C 2272 3036 2278 2607 2278 2096 
C 2278 1680 2278 1169 2202 792 
C 2067 95 1690 -26 1466 -26 
z
" transform="scale(0.015625)"/>
        <path id="CMMI12-3a" d="M 1178 307 
C 1178 492 1024 619 870 619 
C 685 619 557 466 557 313 
C 557 128 710 0 864 0 
C 1050 0 1178 153 1178 307 
z
" transform="scale(0.015625)"/>
       </defs>
       <use xlink:href="#CMR17-30" transform="scale(0.996264)"/>
       <use xlink:href="#CMMI12-3a" transform="translate(45.690477 0) scale(0.996264)"/>
       <use xlink:href="#CMR17-30" transform="translate(72.787654 0) scale(0.996264)"/>
      </g>
     </g>
    </g>
    <g id="xtick_2">
     <g id="line2d_2">
      <g>
       <use xlink:href="#m8676232bda" x="269.977436" y="678.237256" style="fill: #262626; stroke: #262626; stroke-width: 0.8"/>
      </g>
     </g>
     <g id="text_2">
      <!-- $\mathdefault{0.2}$ -->
      <g style="fill: #262626" transform="translate(248.651373 710.143856) scale(0.36 -0.36)">
       <defs>
        <path id="CMR17-32" d="M 2669 989 
L 2554 989 
C 2490 536 2438 459 2413 420 
C 2381 369 1920 369 1830 369 
L 602 369 
C 832 619 1280 1072 1824 1597 
C 2214 1967 2669 2402 2669 3035 
C 2669 3790 2067 4224 1395 4224 
C 691 4224 262 3604 262 3030 
C 262 2780 448 2748 525 2748 
C 589 2748 781 2787 781 3010 
C 781 3207 614 3264 525 3264 
C 486 3264 448 3258 422 3245 
C 544 3790 915 4058 1306 4058 
C 1862 4058 2227 3617 2227 3035 
C 2227 2479 1901 2000 1536 1584 
L 262 146 
L 262 0 
L 2515 0 
L 2669 989 
z
" transform="scale(0.015625)"/>
       </defs>
       <use xlink:href="#CMR17-30" transform="scale(0.996264)"/>
       <use xlink:href="#CMMI12-3a" transform="translate(45.690477 0) scale(0.996264)"/>
       <use xlink:href="#CMR17-32" transform="translate(72.787654 0) scale(0.996264)"/>
      </g>
     </g>
    </g>
    <g id="xtick_3">
     <g id="line2d_3">
      <g>
       <use xlink:href="#m8676232bda" x="451.422745" y="678.237256" style="fill: #262626; stroke: #262626; stroke-width: 0.8"/>
      </g>
     </g>
     <g id="text_3">
      <!-- $\mathdefault{0.4}$ -->
      <g style="fill: #262626" transform="translate(430.096682 710.143856) scale(0.36 -0.36)">
       <defs>
        <path id="CMR17-34" d="M 2150 4122 
C 2150 4256 2144 4256 2029 4256 
L 128 1254 
L 128 1088 
L 1779 1088 
L 1779 457 
C 1779 224 1766 160 1318 160 
L 1197 160 
L 1197 0 
C 1402 0 1747 0 1965 0 
C 2182 0 2528 0 2733 0 
L 2733 160 
L 2611 160 
C 2163 160 2150 224 2150 457 
L 2150 1088 
L 2803 1088 
L 2803 1254 
L 2150 1254 
L 2150 4122 
z
M 1798 3703 
L 1798 1254 
L 256 1254 
L 1798 3703 
z
" transform="scale(0.015625)"/>
       </defs>
       <use xlink:href="#CMR17-30" transform="scale(0.996264)"/>
       <use xlink:href="#CMMI12-3a" transform="translate(45.690477 0) scale(0.996264)"/>
       <use xlink:href="#CMR17-34" transform="translate(72.787654 0) scale(0.996264)"/>
      </g>
     </g>
    </g>
    <g id="xtick_4">
     <g id="line2d_4">
      <g>
       <use xlink:href="#m8676232bda" x="632.868055" y="678.237256" style="fill: #262626; stroke: #262626; stroke-width: 0.8"/>
      </g>
     </g>
     <g id="text_4">
      <!-- $\mathdefault{0.6}$ -->
      <g style="fill: #262626" transform="translate(611.541991 710.143856) scale(0.36 -0.36)">
       <defs>
        <path id="CMR17-36" d="M 678 2176 
C 678 3690 1395 4032 1811 4032 
C 1946 4032 2272 4009 2400 3776 
C 2298 3776 2106 3776 2106 3553 
C 2106 3381 2246 3323 2336 3323 
C 2394 3323 2566 3348 2566 3560 
C 2566 3954 2246 4179 1805 4179 
C 1043 4179 243 3390 243 1984 
C 243 253 966 -128 1478 -128 
C 2099 -128 2688 427 2688 1283 
C 2688 2081 2170 2662 1517 2662 
C 1126 2662 838 2407 678 1960 
L 678 2176 
z
M 1478 25 
C 691 25 691 1200 691 1436 
C 691 1896 909 2560 1504 2560 
C 1613 2560 1926 2560 2138 2120 
C 2253 1870 2253 1609 2253 1289 
C 2253 944 2253 690 2118 434 
C 1978 171 1773 25 1478 25 
z
" transform="scale(0.015625)"/>
       </defs>
       <use xlink:href="#CMR17-30" transform="scale(0.996264)"/>
       <use xlink:href="#CMMI12-3a" transform="translate(45.690477 0) scale(0.996264)"/>
       <use xlink:href="#CMR17-36" transform="translate(72.787654 0) scale(0.996264)"/>
      </g>
     </g>
    </g>
    <g id="xtick_5">
     <g id="line2d_5">
      <g>
       <use xlink:href="#m8676232bda" x="814.313364" y="678.237256" style="fill: #262626; stroke: #262626; stroke-width: 0.8"/>
      </g>
     </g>
     <g id="text_5">
      <!-- $\mathdefault{0.8}$ -->
      <g style="fill: #262626" transform="translate(792.9873 710.143856) scale(0.36 -0.36)">
       <defs>
        <path id="CMR17-38" d="M 1741 2264 
C 2144 2467 2554 2773 2554 3263 
C 2554 3841 1990 4179 1472 4179 
C 890 4179 378 3759 378 3180 
C 378 3021 416 2747 666 2505 
C 730 2442 998 2251 1171 2130 
C 883 1983 211 1634 211 934 
C 211 279 838 -128 1459 -128 
C 2144 -128 2720 362 2720 1010 
C 2720 1590 2330 1857 2074 2029 
L 1741 2264 
z
M 902 2822 
C 851 2854 595 3051 595 3351 
C 595 3739 998 4032 1459 4032 
C 1965 4032 2336 3676 2336 3262 
C 2336 2669 1670 2331 1638 2331 
C 1632 2331 1626 2331 1574 2370 
L 902 2822 
z
M 2080 1519 
C 2176 1449 2483 1240 2483 851 
C 2483 381 2010 25 1472 25 
C 890 25 448 438 448 940 
C 448 1443 838 1862 1280 2060 
L 2080 1519 
z
" transform="scale(0.015625)"/>
       </defs>
       <use xlink:href="#CMR17-30" transform="scale(0.996264)"/>
       <use xlink:href="#CMMI12-3a" transform="translate(45.690477 0) scale(0.996264)"/>
       <use xlink:href="#CMR17-38" transform="translate(72.787654 0) scale(0.996264)"/>
      </g>
     </g>
    </g>
    <g id="xtick_6">
     <g id="line2d_6">
      <g>
       <use xlink:href="#m8676232bda" x="995.758673" y="678.237256" style="fill: #262626; stroke: #262626; stroke-width: 0.8"/>
      </g>
     </g>
     <g id="text_6">
      <!-- $\mathdefault{1.0}$ -->
      <g style="fill: #262626" transform="translate(974.432609 710.143856) scale(0.36 -0.36)">
       <defs>
        <path id="CMR17-31" d="M 1702 4058 
C 1702 4192 1696 4192 1606 4192 
C 1357 3916 979 3827 621 3827 
C 602 3827 570 3827 563 3808 
C 557 3795 557 3782 557 3648 
C 755 3648 1088 3686 1344 3839 
L 1344 461 
C 1344 236 1331 160 781 160 
L 589 160 
L 589 0 
C 896 0 1216 0 1523 0 
C 1830 0 2150 0 2458 0 
L 2458 160 
L 2266 160 
C 1715 160 1702 230 1702 458 
L 1702 4058 
z
" transform="scale(0.015625)"/>
       </defs>
       <use xlink:href="#CMR17-31" transform="scale(0.996264)"/>
       <use xlink:href="#CMMI12-3a" transform="translate(45.690477 0) scale(0.996264)"/>
       <use xlink:href="#CMR17-30" transform="translate(72.787654 0) scale(0.996264)"/>
      </g>
     </g>
    </g>
   </g>
   <g id="matplotlib.axis_2">
    <g id="ytick_1">
     <g id="line2d_7">
      <defs>
       <path id="me25a35b50e" d="M 0 0 
L -3.5 0 
" style="stroke: #262626; stroke-width: 0.8"/>
      </defs>
      <g>
       <use xlink:href="#me25a35b50e" x="88.532127" y="678.237256" style="fill: #262626; stroke: #262626; stroke-width: 0.8"/>
      </g>
     </g>
     <g id="text_7">
      <!-- $\mathdefault{0.0}$ -->
      <g style="fill: #262626" transform="translate(38.88 690.690556) scale(0.36 -0.36)">
       <use xlink:href="#CMR17-30" transform="scale(0.996264)"/>
       <use xlink:href="#CMMI12-3a" transform="translate(45.690477 0) scale(0.996264)"/>
       <use xlink:href="#CMR17-30" transform="translate(72.787654 0) scale(0.996264)"/>
      </g>
     </g>
    </g>
    <g id="ytick_2">
     <g id="line2d_8">
      <g>
       <use xlink:href="#me25a35b50e" x="88.532127" y="556.830861" style="fill: #262626; stroke: #262626; stroke-width: 0.8"/>
      </g>
     </g>
     <g id="text_8">
      <!-- $\mathdefault{0.2}$ -->
      <g style="fill: #262626" transform="translate(38.88 569.284161) scale(0.36 -0.36)">
       <use xlink:href="#CMR17-30" transform="scale(0.996264)"/>
       <use xlink:href="#CMMI12-3a" transform="translate(45.690477 0) scale(0.996264)"/>
       <use xlink:href="#CMR17-32" transform="translate(72.787654 0) scale(0.996264)"/>
      </g>
     </g>
    </g>
    <g id="ytick_3">
     <g id="line2d_9">
      <g>
       <use xlink:href="#me25a35b50e" x="88.532127" y="435.424465" style="fill: #262626; stroke: #262626; stroke-width: 0.8"/>
      </g>
     </g>
     <g id="text_9">
      <!-- $\mathdefault{0.4}$ -->
      <g style="fill: #262626" transform="translate(38.88 447.877765) scale(0.36 -0.36)">
       <use xlink:href="#CMR17-30" transform="scale(0.996264)"/>
       <use xlink:href="#CMMI12-3a" transform="translate(45.690477 0) scale(0.996264)"/>
       <use xlink:href="#CMR17-34" transform="translate(72.787654 0) scale(0.996264)"/>
      </g>
     </g>
    </g>
    <g id="ytick_4">
     <g id="line2d_10">
      <g>
       <use xlink:href="#me25a35b50e" x="88.532127" y="314.018069" style="fill: #262626; stroke: #262626; stroke-width: 0.8"/>
      </g>
     </g>
     <g id="text_10">
      <!-- $\mathdefault{0.6}$ -->
      <g style="fill: #262626" transform="translate(38.88 326.471369) scale(0.36 -0.36)">
       <use xlink:href="#CMR17-30" transform="scale(0.996264)"/>
       <use xlink:href="#CMMI12-3a" transform="translate(45.690477 0) scale(0.996264)"/>
       <use xlink:href="#CMR17-36" transform="translate(72.787654 0) scale(0.996264)"/>
      </g>
     </g>
    </g>
    <g id="ytick_5">
     <g id="line2d_11">
      <g>
       <use xlink:href="#me25a35b50e" x="88.532127" y="192.611673" style="fill: #262626; stroke: #262626; stroke-width: 0.8"/>
      </g>
     </g>
     <g id="text_11">
      <!-- $\mathdefault{0.8}$ -->
      <g style="fill: #262626" transform="translate(38.88 205.064974) scale(0.36 -0.36)">
       <use xlink:href="#CMR17-30" transform="scale(0.996264)"/>
       <use xlink:href="#CMMI12-3a" transform="translate(45.690477 0) scale(0.996264)"/>
       <use xlink:href="#CMR17-38" transform="translate(72.787654 0) scale(0.996264)"/>
      </g>
     </g>
    </g>
    <g id="ytick_6">
     <g id="line2d_12">
      <g>
       <use xlink:href="#me25a35b50e" x="88.532127" y="71.205278" style="fill: #262626; stroke: #262626; stroke-width: 0.8"/>
      </g>
     </g>
     <g id="text_12">
      <!-- $\mathdefault{1.0}$ -->
      <g style="fill: #262626" transform="translate(38.88 83.658578) scale(0.36 -0.36)">
       <use xlink:href="#CMR17-31" transform="scale(0.996264)"/>
       <use xlink:href="#CMMI12-3a" transform="translate(45.690477 0) scale(0.996264)"/>
       <use xlink:href="#CMR17-30" transform="translate(72.787654 0) scale(0.996264)"/>
      </g>
     </g>
    </g>
   </g>
   <g id="line2d_13">
    <path d="M 88.532127 71.205278 
L 995.758673 71.205278 
L 995.758673 71.205278 
" clip-path="url(#pd3c0019957)" style="fill: none; stroke: #1f77b4; stroke-width: 5; stroke-linecap: round"/>
   </g>
   <g id="line2d_14">
    <path d="M 88.532127 681.26217 
L 94.580304 678.664074 
L 100.628481 678.004954 
L 106.676658 677.595151 
L 112.724835 676.990671 
L 118.773012 676.199639 
L 124.821189 675.229305 
L 130.869366 674.087107 
L 136.917543 672.780191 
L 142.96572 671.315512 
L 149.013897 669.699641 
L 155.062074 667.939492 
L 161.110251 666.040174 
L 167.158428 664.008918 
L 173.206605 661.851318 
L 185.302959 657.178206 
L 197.399313 652.064924 
L 209.495667 646.552234 
L 221.592021 640.677281 
L 233.688375 634.476866 
L 245.784728 627.982923 
L 257.881082 621.226679 
L 269.977436 614.238158 
L 282.07379 607.045489 
L 300.218321 595.92425 
L 318.362852 584.477503 
L 336.507383 572.775281 
L 360.700091 556.884521 
L 390.940976 536.740667 
L 463.519099 488.309025 
L 487.711807 472.418707 
L 511.904515 456.766688 
L 536.097223 441.393583 
L 560.289931 426.342877 
L 578.434462 415.294549 
L 596.578993 404.436423 
L 614.723524 393.808227 
L 632.868055 383.406 
L 651.012585 373.230999 
L 669.157116 363.294622 
L 693.349824 350.418735 
L 717.542532 337.975425 
L 741.73524 325.964327 
L 759.879771 317.24004 
L 784.072479 305.990938 
L 802.21701 297.82417 
L 820.361541 289.897673 
L 838.506072 282.208161 
L 856.650602 274.755376 
L 868.746956 269.903952 
L 892.939664 260.516683 
L 911.084195 253.712847 
L 935.276903 244.99354 
L 959.469611 236.647993 
L 977.614142 230.655698 
L 995.758673 224.806444 
L 995.758673 224.806444 
" clip-path="url(#pd3c0019957)" style="fill: none; stroke: #2ca02c; stroke-width: 5; stroke-linecap: round"/>
   </g>
   <g id="line2d_15">
    <path d="M 88.532127 690.136997 
L 94.580304 680.880863 
L 100.628481 678.570939 
L 106.676658 677.979398 
L 112.724835 677.55387 
L 118.773012 676.93476 
L 124.821189 676.129542 
L 130.869366 675.145813 
L 136.917543 673.990905 
L 142.96572 672.671964 
L 149.013897 671.195754 
L 155.062074 669.569338 
L 161.110251 667.798138 
L 167.158428 665.889406 
L 173.206605 663.848933 
L 179.254782 661.681998 
L 191.351136 656.992684 
L 203.44749 651.864727 
L 215.543844 646.339073 
L 227.640198 640.45252 
L 239.736552 634.241347 
L 251.832905 627.738218 
L 263.929259 620.974333 
L 276.025613 613.979869 
L 288.121967 606.780033 
L 306.266498 595.652939 
L 324.411029 584.202148 
L 342.55556 572.495031 
L 366.748268 556.601741 
L 403.03733 532.413954 
L 463.519099 492.035078 
L 493.759984 472.153489 
L 517.952692 456.507881 
L 542.1454 441.144577 
L 566.338108 426.099962 
L 584.482639 415.055551 
L 608.675347 400.641566 
L 632.868055 386.633606 
L 651.012585 376.393457 
L 669.157116 366.384588 
L 687.301647 356.602095 
L 711.494355 343.952752 
L 735.687063 331.730976 
L 759.879771 319.949654 
L 778.024302 311.388354 
L 796.168833 303.072877 
L 820.361541 292.384357 
L 832.457895 287.156091 
L 856.650602 277.081083 
L 874.795133 269.766945 
L 898.987841 260.387644 
L 917.132372 253.587534 
L 941.32508 244.875361 
L 965.517788 236.535225 
L 983.662319 230.546429 
L 995.758673 226.617008 
L 995.758673 226.617008 
" clip-path="url(#pd3c0019957)" style="fill: none; stroke: #9467bd; stroke-width: 5; stroke-linecap: round"/>
   </g>
   <g id="line2d_16">
    <path d="M 88.532127 699.268757 
L 94.580304 683.137775 
L 100.628481 679.141216 
L 106.676658 678.128251 
L 112.724835 677.747059 
L 118.773012 677.204212 
L 124.821189 676.472238 
L 130.869366 675.558812 
L 136.917543 674.471357 
L 142.96572 673.217099 
L 149.013897 671.8029 
L 155.062074 670.235877 
L 161.110251 668.521569 
L 167.158428 666.667276 
L 173.206605 664.678901 
L 179.254782 662.56181 
L 191.351136 657.965465 
L 203.44749 652.922233 
L 215.543844 647.473487 
L 227.640198 641.656509 
L 239.736552 635.507795 
L 251.832905 629.061264 
L 263.929259 622.347632 
L 276.025613 615.397833 
L 288.121967 608.237836 
L 306.266498 597.159825 
L 324.411029 585.74804 
L 342.55556 574.073232 
L 366.748268 558.208484 
L 396.989153 538.08421 
L 475.615453 485.653298 
L 499.808161 469.803397 
L 524.000869 454.20267 
L 548.193577 438.879226 
L 566.338108 427.607751 
L 590.530816 412.877201 
L 608.675347 402.090878 
L 626.819878 391.505141 
L 644.964408 381.154364 
L 663.108939 371.043732 
L 681.25347 361.154347 
L 699.398001 351.505411 
L 723.590709 339.028758 
L 747.783417 326.988255 
L 765.927948 318.23049 
L 790.120656 306.958892 
L 802.21701 301.465532 
L 820.361541 293.439816 
L 838.506072 285.644501 
L 856.650602 278.077944 
L 880.84331 268.36602 
L 898.987841 261.316214 
L 923.180549 252.281011 
L 947.373257 243.62323 
L 971.565965 235.332405 
L 995.758673 227.407956 
L 995.758673 227.407956 
" clip-path="url(#pd3c0019957)" style="fill: none; stroke: #e377c2; stroke-width: 5; stroke-linecap: round"/>
   </g>
   <g id="line2d_17">
    <path d="M 88.532127 708.447651 
L 94.580304 685.393395 
L 100.628481 679.707957 
L 106.676658 678.273562 
L 118.773012 677.361707 
L 124.821189 676.677735 
L 130.869366 675.810437 
L 136.917543 674.767272 
L 142.96572 673.555509 
L 149.013897 672.182069 
L 155.062074 670.654103 
L 161.110251 668.977222 
L 167.158428 667.158772 
L 173.206605 665.20469 
L 179.254782 663.120356 
L 191.351136 658.585333 
L 203.44749 653.597883 
L 215.543844 648.199733 
L 227.640198 642.428737 
L 239.736552 636.321445 
L 251.832905 629.911929 
L 263.929259 623.231883 
L 276.025613 616.311049 
L 288.121967 609.176745 
L 306.266498 598.132803 
L 324.411029 586.747604 
L 342.55556 575.093099 
L 366.748268 559.247638 
L 396.989153 539.140088 
L 469.567276 490.692863 
L 493.759984 474.774915 
L 524.000869 455.209125 
L 548.193577 439.878608 
L 572.386285 424.8621 
L 590.530816 413.829103 
L 614.723524 399.453875 
L 632.868055 388.93304 
L 651.012585 378.638517 
L 669.157116 368.577607 
L 693.349824 355.538361 
L 711.494355 346.035914 
L 729.638886 336.78106 
L 747.783417 327.773715 
L 765.927948 318.988873 
L 784.072479 310.45965 
L 808.265187 299.480819 
L 820.361541 294.128583 
L 838.506072 286.313371 
L 856.650602 278.728337 
L 880.84331 268.987238 
L 898.987841 261.921926 
L 923.180549 252.861442 
L 947.373257 244.180371 
L 971.565965 235.86804 
L 995.758673 227.923693 
L 995.758673 227.923693 
" clip-path="url(#pd3c0019957)" style="fill: none; stroke: #bcbd22; stroke-width: 5; stroke-linecap: round"/>
   </g>
   <g id="line2d_18">
    <path d="M 88.532127 717.710832 
L 94.580304 687.660575 
L 100.628481 680.275343 
L 106.676658 678.418435 
L 118.773012 677.469877 
L 124.821189 676.821526 
L 130.869366 675.988443 
L 136.917543 674.978125 
L 142.96572 673.797875 
L 149.013897 672.454658 
L 155.062074 670.955654 
L 161.110251 669.306521 
L 167.158428 667.514641 
L 173.206605 665.585963 
L 179.254782 663.52597 
L 185.302959 661.340827 
L 197.399313 656.617615 
L 209.495667 651.459375 
L 221.592021 645.905759 
L 233.688375 639.994933 
L 245.784728 633.761724 
L 257.881082 627.239052 
L 269.977436 620.457855 
L 282.07379 613.448194 
L 294.170144 606.235311 
L 312.314675 595.092467 
L 330.459206 583.627926 
L 348.603737 571.913391 
L 372.796445 556.014131 
L 409.085507 531.821236 
L 463.519099 495.467082 
L 493.759984 475.532911 
L 517.952692 459.834496 
L 542.1454 444.412093 
L 566.338108 429.298164 
L 584.482639 418.187357 
L 602.62717 407.292866 
L 620.771701 396.607594 
L 638.916232 386.142907 
L 657.060762 375.913867 
L 675.205293 365.928088 
L 693.349824 356.15379 
L 711.494355 346.64358 
L 729.638886 337.365594 
L 747.783417 328.353535 
L 759.879771 322.46348 
L 778.024302 313.837178 
L 796.168833 305.443594 
L 814.313364 297.295677 
L 832.457895 289.387389 
L 850.602425 281.715094 
L 868.746956 274.277423 
L 886.891487 267.075184 
L 898.987841 262.368752 
L 923.180549 253.289584 
L 947.373257 244.591302 
L 971.565965 236.263081 
L 989.710496 230.281316 
L 995.758673 228.304032 
L 995.758673 228.304032 
" clip-path="url(#pd3c0019957)" style="fill: none; stroke: #17becf; stroke-width: 5; stroke-linecap: round"/>
   </g>
   <g id="patch_3">
    <path d="M 88.532127 678.237256 
L 88.532127 38.88 
" style="fill: none; stroke: #262626; stroke-width: 0.8; stroke-linejoin: miter; stroke-linecap: square"/>
   </g>
   <g id="patch_4">
    <path d="M 88.532127 678.237256 
L 1041.12 678.237256 
" style="fill: none; stroke: #262626; stroke-width: 0.8; stroke-linejoin: miter; stroke-linecap: square"/>
   </g>
  </g>
 </g>
 <defs>
  <clipPath id="pd3c0019957">
   <rect x="88.532127" y="38.88" width="952.587873" height="639.357256"/>
  </clipPath>
 </defs>
</svg>
